<?xml version="1.0" standalone="no"?>
<!DOCTYPE svg PUBLIC "-//W3C//DTD SVG 20010904//EN"
 "http://www.w3.org/TR/2001/REC-SVG-20010904/DTD/svg10.dtd">
<svg version="1.0" xmlns="http://www.w3.org/2000/svg"
 width="700.000000pt" height="700.000000pt" viewBox="0 0 700.000000 700.000000"
 preserveAspectRatio="xMidYMid meet">
<metadata>
Created by potrace 1.14, written by Peter Selinger 2001-2017
</metadata>
<g transform="translate(0.000000,700.000000) scale(0.100000,-0.100000)"
fill="#000000" stroke="none">
<path d="M2990 6644 c-212 -29 -410 -80 -632 -165 -131 -50 -402 -180 -485
-232 -24 -15 -45 -27 -48 -27 -5 0 -240 -149 -289 -183 -183 -129 -405 -329
-502 -452 -21 -27 -42 -52 -45 -55 -14 -12 -139 -191 -180 -260 -37 -61 -109
-204 -160 -315 -64 -142 -162 -477 -184 -630 -1 -11 -7 -47 -13 -80 -6 -33
-14 -85 -17 -115 -11 -101 -16 -134 -40 -255 -34 -166 -39 -217 -39 -395 0
-277 32 -491 123 -803 32 -107 84 -264 101 -302 44 -99 97 -251 126 -364 59
-229 120 -329 294 -475 25 -21 86 -77 136 -125 369 -352 431 -406 584 -508
150 -101 236 -144 392 -196 132 -45 601 -186 683 -206 22 -5 102 -26 178 -46
156 -41 242 -50 442 -49 135 1 332 11 372 18 11 3 46 7 78 10 47 5 235 40 328
61 102 23 318 94 412 135 22 10 69 30 105 46 88 39 236 120 403 220 77 46 141
84 142 84 6 0 254 159 351 225 273 186 393 305 517 512 61 100 153 301 186
403 50 158 195 729 206 813 2 16 6 40 9 55 3 15 8 43 10 62 3 19 7 44 10 55 2
11 7 40 10 65 3 25 8 56 10 70 3 14 7 41 10 60 3 19 12 78 20 130 48 295 39
555 -28 763 -13 39 -43 148 -66 242 -48 192 -93 307 -200 515 -40 80 -74 147
-75 150 -5 22 -97 188 -134 240 -50 71 -200 267 -241 314 -145 169 -281 308
-385 391 -27 22 -52 43 -55 46 -3 3 -41 33 -85 66 -208 157 -423 269 -630 327
-91 25 -302 70 -385 81 -25 3 -52 8 -60 10 -8 2 -40 7 -70 10 -30 3 -66 8 -80
10 -14 2 -50 7 -80 10 -30 3 -75 7 -100 10 -72 7 -139 14 -220 20 -41 3 -97 8
-125 11 -129 13 -484 11 -585 -2z"/>
</g>
</svg>
