
<svg xmlns="http://www.w3.org/2000/svg" version="1.1" xmlns:xlink="http://www.w3.org/1999/xlink" preserveAspectRatio="none" x="0px" y="0px" width="560px" height="544px" viewBox="0 0 560 544">
<defs>
<g id="foot_0_Layer1_0_FILL">
<path fill="#85AA4D" stroke="none" d="
M 8 -6.9
Q 7.35 -8.1 6.9 -9.7 6.7 -10.5 5.7 -11.1 4.8 -11.7 3.3 -12.1 2.2 -12.4 1.3 -12.3 0.9 -12.3 0.55 -12.3 -0.9 -12.3 -1.95 -11.5 -4.2 -9.4 -4.7 -7.9 -5.1 -6.4 -5.75 -3.45
L -5.75 -1.85
Q -5.8 -1.45 -6.25 -0.7 -6.85 0.35 -7.95 1.9
L -8.35 2.5 -8.4 2.45 -9.8 4.3
Q -11.1 7.2 -7.05 10 -5.85 10.8 -4.3 11.45 -4.1 11.5 -3.9 11.65 3.05 14.75 5.7 13.1 8.45 11.35 8.85 10.7 9.1 10.4 9.2 9.65
L 9.25 9.65
Q 9.25 9.45 9.35 9.15 9.4 8.75 9.35 8.5 9.35 7.55 9.45 6.55 9.55 5.05 9.75 3.5 9.55 1.3 9.1 -1.75 9.05 -2 9 -2.3 8.5 -5.65 8 -6.9
M 3.95 8.6
Q 4.1 8.6 4.4 8.65 4.55 8.65 4.65 8.65
L 4.65 8.6
Q 5.15 8.55 5.35 8.45 5.8 8.2 7.2 6.55 7.3 6.4 7.35 6.25 7.5 8.5 6.7 9.5 5.3 11.2 4.9 11.45 4.7 11.5 4.25 11.55
L 4.25 11.6
Q 4.15 11.6 3.95 11.55 3.65 11.6 3.5 11.55 2.95 11.5 2.3 11.4 1.45 11.35 0.45 11.3 -1 10.95 -3.05 10.3 -3.85 10.1 -4.5 9.85 -4.45 9.6 -4.45 9.1 -4.55 6.75 -2.55 7.4 -0.55 8 0.9 8.3 1.9 8.4 2.8 8.45 3.4 8.5 3.95 8.6 Z"/>

<path fill="#A5C278" stroke="none" d="
M 4.4 8.65
Q 4.1 8.6 3.95 8.6 3.4 8.5 2.8 8.45 1.9 8.4 0.9 8.3 -0.55 8 -2.55 7.4 -4.55 6.75 -4.45 9.1 -4.45 9.6 -4.5 9.85 -3.85 10.1 -3.05 10.3 -1 10.95 0.45 11.3 1.45 11.35 2.3 11.4 2.95 11.5 3.5 11.55 3.65 11.6 3.95 11.55 4.15 11.6 4.25 11.6
L 4.25 11.55
Q 4.7 11.5 4.9 11.45 5.3 11.2 6.7 9.5 7.5 8.5 7.35 6.25 7.3 6.4 7.2 6.55 5.8 8.2 5.35 8.45 5.15 8.55 4.65 8.6
L 4.65 8.65
Q 4.55 8.65 4.4 8.65 Z"/>
</g>

<g id="body_front_0_Layer1_0_FILL">
<path fill="#000000" stroke="none" d="
M -46.2 -16.75
Q -44.85 -11.05 -46.1 -6.4 -40.75 -8.2 -38.5 -12.55 -37.9 -8.15 -40.1 -2.75 -32.9 -5.75 -30.7 -10.85 -27.3 -8.75 -26.95 -5.7
L -22 -12.3 -15.45 -12.25 -16.85 -16.45 -17.1 -16.6
Q -20.15 -15.2 -29.75 -19.9 -35.3 -24.25 -40.45 -31.65 -47.55 -22.55 -46.2 -16.75
M 4.35 -17.4
L 3.25 -13.1 9.8 -13.5 15.15 -7.3
Q 15.3 -10.45 18.6 -12.75 21.15 -7.8 28.6 -5.3 25.95 -10.45 26.3 -14.95 28.85 -10.85 34.3 -9.45 32.7 -13.9 33.65 -19.8 34.6 -25.6 26.9 -34.2 22.25 -26.4 17.05 -21.6 7.75 -16.3 4.65 -17.6
L 4.35 -17.4 Z"/>
</g>

<g id="body_front_0_Layer0_0_FILL">
<path fill="#92B65A" stroke="none" d="
M -27.95 1
Q -28.4765625 5.95703125 -27.75 12.9 -27.762109375 15.114453125 -26.8 17 -17.9814453125 28.8728515625 -4.95 28.75 7.86484375 28.40859375 18.9 16.4 20.27421875 13.38828125 19.95 9.95 19.8873046875 8.2310546875 19.75 6.6 -17.0033203125 27.122265625 -27.95 1
M 1.85 19.6
L 6.65 18.35 6.65 15.25 6.65 18.35
Q 10.005078125 18.626953125 12.05 16.1
L 11.35 14.15 12.05 16.1 15.35 14.15 12.05 16.1 13.2 19.25 12.05 16.1
Q 10.005078125 18.626953125 6.65 18.35
L 5.95 21.8 6.65 18.35 1.85 19.6 Z"/>

<path fill="#7C9E47" stroke="none" d="
M 16.65 -8
Q 13.9419921875 -13.596484375 9.7 -18.65 5.7859375 -23.037890625 3.5 -23.15 1.2169921875 -23.2642578125 -2.4 -23.25 -3.50625 -23.1765625 -5.55 -22.95 -5.771875 -22.9947265625 -5.75 -22.95 -5.9234375 -22.9474609375 -5.9 -22.9
L -6 -22.9
Q -8.31484375 -23.033984375 -9.4 -22.9 -13.0634765625 -22.8095703125 -14.65 -21.45 -16.6974609375 -20.040234375 -20.25 -15.7 -24.471484375 -10.824609375 -26.5 -5.4 -27.0337890625 -4.2341796875 -27.3 -2.75 -27.7314453125 -1.0462890625 -27.95 1 -17.0033203125 27.122265625 19.75 6.6 19.5892578125 3.5810546875 19.25 1 18.299609375 -4.3296875 16.65 -8 Z"/>
</g>

<g id="arm__0_Layer1_0_FILL">
<path fill="#B1CB89" stroke="none" d="
M -5.3 -7.5
Q -5.65 -7.55 -6.6 -7 -7.5 -6.55 -7.8 -4.4 -8.05 -2.45 -7.3 -0.6 -7.05 -2.15 -5.8 -3.35 -6 -3.55 -6.2 -3.85 -6 -3.55 -5.8 -3.35 -4.5 -2.1 -3.4 -3.65 -3.25 -4.2 -3.25 -4.7 -3.25 -5.6 -3.7 -6.3 -3.9 -7.65 -5.3 -7.5
M 4.15 -1.7
Q 3.35 -1.85 2.7 -2.65 3.55 -1.15 3.55 0.15 3.55 0.25 3.55 0.35
L 4.1 2 3.55 0.35
Q 3.5 2.3 1.95 3.75 1.55 4.1 1.15 4.4 3 3.65 4.25 2.2 7.75 3.75 8.45 -0.9 8.45 -3.35 5.95 -3.05 5.2 -1.85 4.15 -1.7
M 0.3 -4.45
Q 0.9 -4.45 1.6 -4.7 2.2 -6 2.25 -7.35 2.4 -9.85 -0.15 -10.35 -3.25 -10.45 -3.7 -6.3 -3.25 -5.6 -3.25 -4.7 -2.6 -4.85 -1.9 -4.85 -1.25 -4.85 -0.6 -4.75 -1.3 -5.15 -1.75 -6.15 -1.3 -5.15 -0.6 -4.75 -0.2 -4.45 0.3 -4.45
M 1.6 -4.7
Q 0.9 -4.45 0.3 -4.45 1.2 -4.1 1.95 -3.4 2.3 -3.1 2.55 -2.75 2.35 -3.35 2.55 -4.25 2.35 -3.35 2.55 -2.75 2.65 -2.45 2.7 -2.65 3.35 -1.85 4.15 -1.7 5.2 -1.85 5.95 -3.05
L 5.9 -3.05
Q 5.9939453125 -3.1439453125 6.05 -3.2 6.05 -3.3 6.15 -3.35 7.75 -5.95 5.45 -8.55 3.2 -8.85 2.25 -7.35 2.2 -6 1.6 -4.7 Z"/>

<path fill="#8DB355" stroke="none" d="
M 1.95 -3.4
Q 1.2 -4.1 0.3 -4.45 -0.2 -4.45 -0.6 -4.75 -1.25 -4.85 -1.9 -4.85 -2.6 -4.85 -3.25 -4.7 -3.25 -4.2 -3.4 -3.65 -4.5 -2.1 -5.8 -3.35 -7.05 -2.15 -7.3 -0.6 -7.25 -0.45 -7.2 -0.25 -6.35 1.7 -5.65 2.7 -2.7 5.8 0.9 4.55 0.95 4.5 1 4.5 1.05 4.45 1.15 4.4 1.55 4.1 1.95 3.75 3.5 2.3 3.55 0.35 3.55 0.25 3.55 0.15 3.55 -1.15 2.7 -2.65 2.65 -2.45 2.55 -2.75 2.3 -3.1 1.95 -3.4 Z"/>
</g>

<g id="arm__0_Layer0_0_FILL">
<path fill="#FDF7C7" stroke="none" d="
M 5.45 2
Q 5.85 1.45 5.1 0.95
L 4.85 0.85
Q 3.55 2.4 1.85 2.95 3.6 3.5 5.45 2
M -3.55 -5.35
Q -4.05 -6 -4.9 -5.3
L -5.1 -5.05
Q -3.75 -3 -3.65 -0.85 -2.4 -2.7 -3.55 -5.35
M 1.35 -5.85
Q 1.2 -6.6 0.1 -6.45
L -0.15 -6.35
Q 0 -3.85 -1 -1.95 1 -2.95 1.35 -5.85
M 5.75 -3
L 4.95 -3.85 4.8 -3.75
Q 3.75 -1.75 2 -0.4 4.25 -0.5 5.75 -3 Z"/>
</g>

<g id="Duplicate_Items_Folder_head_0_Layer1_0_FILL">
<path fill="#81A948" stroke="none" d="
M -24.7 -12.85
Q -9.3 -12.95 -7.4 -25.65 -12.45 -24.8 -16.55 -21.8 -21.95 -18 -24.7 -12.85
M -1.9 -26
Q -3.25 -26.05 -4.4 -26 -1.75 -22.15 2.45 -25.05 -0.1 -25.9 -1.9 -26
M -3.5 -23.15
Q -3.85 -23.45 -4.4 -23.45 -4.95 -23.45 -5.35 -23.15 -5.7 -22.8 -5.7 -22.3 -5.7 -21.75 -5.35 -21.45 -4.95 -21.1 -4.4 -21.1 -3.85 -21.1 -3.5 -21.45 -3.05 -21.75 -3.05 -22.3 -3.05 -22.8 -3.5 -23.15
M -21.85 -9.05
Q -21.5 -9.35 -21.5 -9.9 -21.5 -10.4 -21.85 -10.75 -22.25 -11.05 -22.85 -11.05 -23.45 -11.05 -23.85 -10.75 -24.25 -10.4 -24.25 -9.9 -24.25 -9.35 -23.85 -9.05 -23.45 -8.7 -22.85 -8.7 -22.25 -8.7 -21.85 -9.05 Z"/>

<path fill="#9ABB66" stroke="none" d="
M 7.7 32.1
Q 7.75 32.15 7.85 32.25 7.55 30.4 7.05 28.1
L 7.7 32.1
M 9.35 -21.45
Q 8.9 -21.85 8.4 -22.2 -18.3724609375 -17.8771484375 -22.7 10.9 -21.85 11.7 -20.9 12.5 -15.55 17.2 -14.35 19.05 -13.35 20.65 -12.95 22.4
L -12.7 25.7
Q -14 33.9 -8.1 31.75 -7.55 31.5 -7.1 30.6 -7.05 28.1 -7.6 24.55 -7.05 28.1 -7.1 30.6 -8.6 36.25 -6.55 37.85 -4 41.25 -0.25 37.9 0.75 36.35 0.15 28.8 1.35 39.35 3.5 39.95 5.25 41.15 7.35 39.25 8.75 37.95 7.85 32.25 7.75 32.15 7.7 32.1
L 7.05 28.1 5.95 24.25 7.05 28.1
Q 7.55 30.4 7.85 32.25 10.85 34.8 12.85 32.5 14.85 30.1 10.65 21.85 10.2 20.4 10.65 18.55 10.95 16.75 14.75 12.35 18.45 7.95 19.4 1.85 20.35 -4.2 17.7 -10.7 15.05 -17.25 9.35 -21.45
M 12 -15.7
Q 12 -15.4 11.75 -15.15 11.5 -14.9 11.25 -14.9 10.9 -14.9 10.7 -15.15 10.45 -15.4 10.45 -15.7 10.45 -16 10.7 -16.25 10.9 -16.45 11.25 -16.45 11.5 -16.45 11.75 -16.25 12 -16 12 -15.7
M 6.8 -17.9
Q 6.8 -18.45 7.25 -18.8 7.75 -19.15 8.5 -19.15 9.2 -19.15 9.7 -18.8 10.15 -18.45 10.15 -17.9 10.15 -17.4 9.7 -17.05 9.2 -16.7 8.5 -16.7 7.75 -16.7 7.25 -17.05 6.8 -17.4 6.8 -17.9 Z"/>

<path fill="#ADCA82" stroke="none" d="
M 8.4 -22.2
Q 5.15 -24.45 2.45 -25.05 -1.75 -22.15 -4.4 -26 -5.95 -25.9 -7.4 -25.65 -9.3 -12.95 -24.7 -12.85 -25.25 -11.85 -25.6 -10.85 -28.25 -4.35 -27.35 1.7 -26.55 6.75 -22.7 10.9 -18.3724609375 -17.8771484375 8.4 -22.2
M -21.5 -9.9
Q -21.5 -9.35 -21.85 -9.05 -22.25 -8.7 -22.85 -8.7 -23.45 -8.7 -23.85 -9.05 -24.25 -9.35 -24.25 -9.9 -24.25 -10.4 -23.85 -10.75 -23.45 -11.05 -22.85 -11.05 -22.25 -11.05 -21.85 -10.75 -21.5 -10.4 -21.5 -9.9
M -4.4 -23.45
Q -3.85 -23.45 -3.5 -23.15 -3.05 -22.8 -3.05 -22.3 -3.05 -21.75 -3.5 -21.45 -3.85 -21.1 -4.4 -21.1 -4.95 -21.1 -5.35 -21.45 -5.7 -21.75 -5.7 -22.3 -5.7 -22.8 -5.35 -23.15 -4.95 -23.45 -4.4 -23.45 Z"/>

<path fill="#5C7733" stroke="none" d="
M 7.25 -18.8
Q 6.8 -18.45 6.8 -17.9 6.8 -17.4 7.25 -17.05 7.75 -16.7 8.5 -16.7 9.2 -16.7 9.7 -17.05 10.15 -17.4 10.15 -17.9 10.15 -18.45 9.7 -18.8 9.2 -19.15 8.5 -19.15 7.75 -19.15 7.25 -18.8
M 11.75 -15.15
Q 12 -15.4 12 -15.7 12 -16 11.75 -16.25 11.5 -16.45 11.25 -16.45 10.9 -16.45 10.7 -16.25 10.45 -16 10.45 -15.7 10.45 -15.4 10.7 -15.15 10.9 -14.9 11.25 -14.9 11.5 -14.9 11.75 -15.15 Z"/>
</g>

<g id="Duplicate_Items_Folder_head_0_Layer0_0_FILL">
<path fill="#000000" stroke="none" d="
M -5.95 10.5
Q -4.65 8.95 -4.6 7.35 -4.7 5.65 -5.9 4.45 -7.05 3.4 -8.6 3.5 -10.2 3.65 -11.2 4.9 -12.15 6.2 -12 7.95 -11.85 9.65 -10.65 10.7 -9.45 11.7 -8.35 11.85 -7.3 12.05 -5.95 10.5
M 3.6 7.75
Q 3.9 8.615234375 4.55 9.05 5.25 9.5345703125 6.05 9.4 6.9 9.305078125 7.3 8.1 7.7 6.9 7.25 6.2 6.95 5.5 6.15 5.25 5.4 4.95 4.6 5.3 3.85 5.55 3.55 6.2 3.3 6.8947265625 3.6 7.75 Z"/>
</g>

<path id="foot_0_Layer1_0_1_STROKES" stroke="#000000" stroke-width="1" stroke-linejoin="round" stroke-linecap="round" fill="none" d="
M 8 -6.9
Q 8.5 -5.65 9 -2.3 9.05 -2 9.1 -1.75 9.55 1.3 9.75 3.5 9.55 5.05 9.45 6.55 9.35 7.55 9.35 8.5 9.4 8.75 9.35 9.15 9.25 9.45 9.25 9.65
L 9.2 9.65
Q 9.1 10.4 8.85 10.7 8.45 11.35 5.7 13.1 3.05 14.75 -3.9 11.65 -4.1 11.5 -4.3 11.45 -5.85 10.8 -7.05 10 -11.1 7.2 -9.8 4.3
L -8.4 2.45 -8.35 2.5 -7.95 1.9
Q -6.85 0.35 -6.25 -0.7 -5.8 -1.45 -5.75 -1.85
L -5.75 -3.45
Q -5.1 -6.4 -4.7 -7.9 -4.2 -9.4 -1.95 -11.5 -0.9 -12.3 0.55 -12.3 0.9 -12.3 1.3 -12.3 2.2 -12.4 3.3 -12.1 4.8 -11.7 5.7 -11.1 6.7 -10.5 6.9 -9.7 7.35 -8.1 8 -6.9 Z"/>

<path id="foot_0_Layer0_0_1_STROKES" stroke="#000000" stroke-width="1" stroke-linejoin="round" stroke-linecap="round" fill="none" d="
M 6.65 6.7
Q 8.434375 10.278125 7 12.25
M 3.05 8.35
Q 5.54921875 10.1072265625 3.4 13.4"/>

<path id="body_front_0_Layer0_0_1_STROKES" stroke="#000000" stroke-width="1" stroke-linejoin="round" stroke-linecap="round" fill="none" d="
M -27.95 1
Q -27.7314453125 -1.0462890625 -27.3 -2.75 -27.0337890625 -4.2341796875 -26.5 -5.375 -24.471484375 -10.824609375 -20.225 -15.7 -16.6974609375 -20.040234375 -14.625 -21.425 -13.0634765625 -22.8095703125 -9.375 -22.9 -8.31484375 -23.033984375 -5.975 -22.9
L -5.875 -22.9
Q -5.9234375 -22.9474609375 -5.725 -22.95 -5.771875 -22.9947265625 -5.525 -22.95 -3.50625 -23.1765625 -2.4 -23.225 1.2169921875 -23.2642578125 3.525 -23.125 5.7859375 -23.037890625 9.7 -18.65 13.9419921875 -13.596484375 16.65 -8 18.299609375 -4.3296875 19.25 1.025 19.5892578125 3.5810546875 19.775 6.625 19.8873046875 8.2310546875 19.95 9.975 20.27421875 13.38828125 18.9 16.4 7.86484375 28.40859375 -4.925 28.75 -17.9814453125 28.8728515625 -26.8 17 -27.762109375 15.114453125 -27.725 12.9 -28.4765625 5.95703125 -27.95 1 Z
M 1.85 19.6
L 6.65 18.375 6.65 15.25
M 13.2 19.25
L 12.075 16.125
Q 10.005078125 18.626953125 6.65 18.375
L 5.95 21.8
M 11.35 14.15
L 12.075 16.125 15.35 14.15"/>

<path id="arm__0_Layer1_0_1_STROKES" stroke="#000000" stroke-width="1" stroke-linejoin="round" stroke-linecap="round" fill="none" d="
M 2.25 -7.35
Q 2.2 -6 1.6 -4.7 0.9 -4.45 0.3 -4.45
M 2.55 -2.75
Q 2.35 -3.35 2.55 -4.25
M 2.7 -2.65
Q 3.35 -1.85 4.15 -1.7 5.2 -1.85 5.95 -3.05
L 5.9 -3.05
Q 5.9939453125 -3.1439453125 6.05 -3.2 6.05 -3.3 6.15 -3.35 7.75 -5.95 5.45 -8.55 3.2 -8.85 2.25 -7.35 2.4 -9.85 -0.15 -10.35 -3.25 -10.45 -3.7 -6.3 -3.25 -5.6 -3.25 -4.7
M -0.6 -4.75
Q -1.3 -5.15 -1.75 -6.15
M 6.05 -3.2
Q 5.996875 -3.14375 5.95 -3.05 8.45 -3.35 8.45 -0.9 7.75 3.75 4.25 2.2 3 3.65 1.15 4.4 1.05 4.45 1 4.5 0.95 4.5 0.9 4.55 -2.7 5.8 -5.65 2.7 -6.35 1.7 -7.2 -0.25 -7.25 -0.45 -7.3 -0.6 -8.05 -2.45 -7.8 -4.4 -7.5 -6.55 -6.6 -7 -5.65 -7.55 -5.3 -7.5 -3.9 -7.65 -3.7 -6.3
M 4.1 2
L 3.55 0.35
M -6.2 -3.85
Q -6 -3.55 -5.8 -3.35 -4.5 -2.1 -3.4 -3.65 -3.25 -4.2 -3.25 -4.7"/>

<path id="arm__0_Layer0_0_1_STROKES" stroke="#000000" stroke-width="0.5" stroke-linejoin="round" stroke-linecap="round" fill="none" d="
M 4.8 -3.75
Q 3.75 -1.75 2 -0.4 4.25 -0.5 5.75 -3
L 4.95 -3.85
M -0.15 -6.35
Q 0 -3.85 -1 -1.95 1 -2.95 1.35 -5.85 1.2 -6.6 0.1 -6.45
M -5.1 -5.05
Q -3.75 -3 -3.65 -0.85 -2.4 -2.7 -3.55 -5.35 -4.05 -6 -4.9 -5.3
M 4.85 0.85
Q 3.55 2.4 1.85 2.95 3.6 3.5 5.45 2 5.85 1.45 5.1 0.95"/>

<path id="Duplicate_Items_Folder_head_0_Layer1_0_1_STROKES" stroke="#000000" stroke-width="1" stroke-linejoin="round" stroke-linecap="round" fill="none" d="
M 7.85 32.25
Q 10.85 34.8 12.85 32.5 14.85 30.1 10.65 21.85 10.2 20.4 10.65 18.55 10.95 16.75 14.75 12.35 18.45 7.95 19.4 1.85 20.35 -4.2 17.7 -10.7 15.05 -17.25 9.35 -21.45 8.9 -21.85 8.4 -22.2
M -22.7 10.9
Q -21.85 11.7 -20.9 12.5 -15.55 17.2 -14.35 19.05 -13.35 20.65 -12.95 22.4
L -12.7 25.7
Q -14 33.9 -8.1 31.75 -7.55 31.5 -7.1 30.6 -7.05 28.1 -7.6 24.55
M 8.4 -22.2
Q 5.15 -24.45 2.45 -25.05
M -4.4 -26
Q -5.95 -25.9 -7.4 -25.65
M -24.7 -12.85
Q -25.25 -11.85 -25.6 -10.85 -28.25 -4.35 -27.35 1.7 -26.55 6.75 -22.7 10.9
M 7.85 32.25
Q 7.55 30.4 7.05 28.1
L 7.7 32.1
Q 7.75 32.15 7.85 32.25 8.75 37.95 7.35 39.25 5.25 41.15 3.5 39.95 1.35 39.35 0.15 28.8 0.75 36.35 -0.25 37.9 -4 41.25 -6.55 37.85 -8.6 36.25 -7.1 30.6
M 5.95 24.25
L 7.05 28.1
M 2.45 -25.05
Q -0.1 -25.9 -1.9 -26 -3.25 -26.05 -4.4 -26
M -7.4 -25.65
Q -12.45 -24.8 -16.55 -21.8 -21.95 -18 -24.7 -12.85"/>

<path id="Duplicate_Items_Folder_head_0_Layer0_0_1_STROKES" stroke="#000000" stroke-width="0.5" stroke-linejoin="round" stroke-linecap="round" fill="none" d="
M 6.4 3.7
Q 8.2 3.9 9.1 4.9
M 8.85 2.6
Q 9.95 3.8 10.15 4.9
M -13 5.4
Q -12.7 3 -9.45 1.2"/>
</defs>

<g transform="matrix( 7.061279296875, 0, 0, 7.061279296875, -18.5,514.65) ">
<g transform="matrix( -0.63262939453125, -0.1971893310546875, -0.186492919921875, 0.59832763671875, 31.75,-7.75) ">
<g transform="matrix( 1, 0, 0, 1, 0,0) ">
<use xlink:href="#foot_0_Layer1_0_FILL"/>

<use xlink:href="#foot_0_Layer1_0_1_STROKES"/>
</g>

<g transform="matrix( 1, 0, 0, 1, 0,0) ">
<use xlink:href="#foot_0_Layer0_0_1_STROKES"/>
</g>
</g>

<g transform="matrix( 0.6136322021484375, -0.16839599609375, 0.16070556640625, 0.5856781005859375, 57.1,-7.35) ">
<g transform="matrix( 1, 0, 0, 1, 0,0) ">
<use xlink:href="#foot_0_Layer1_0_FILL"/>

<use xlink:href="#foot_0_Layer1_0_1_STROKES"/>
</g>

<g transform="matrix( 1, 0, 0, 1, 0,0) ">
<use xlink:href="#foot_0_Layer0_0_1_STROKES"/>
</g>
</g>

<g transform="matrix( 0.66851806640625, 0, 0, 0.66851806640625, 47.35,-21.65) ">
<g transform="matrix( 1, 0, 0, 1, 0,0) ">
<use xlink:href="#body_front_0_Layer1_0_FILL"/>
</g>

<g transform="matrix( 1, 0, 0, 1, 0,0) ">
<use xlink:href="#body_front_0_Layer0_0_FILL"/>

<use xlink:href="#body_front_0_Layer0_0_1_STROKES"/>
</g>
</g>

<g transform="matrix( -0.87469482421875, 0.4818115234375, 0.4818115234375, 0.87469482421875, 25.5,-22.4) ">
<g transform="matrix( 1, 0, 0, 1, 0,0) ">
<use xlink:href="#arm__0_Layer1_0_FILL"/>

<use xlink:href="#arm__0_Layer1_0_1_STROKES"/>
</g>

<g transform="matrix( 1, 0, 0, 1, 0,0) ">
<use xlink:href="#arm__0_Layer0_0_FILL"/>

<use xlink:href="#arm__0_Layer0_0_1_STROKES"/>
</g>
</g>

<g transform="matrix( 0.821929931640625, 0.03240966796875, -0.0317535400390625, 0.805450439453125, 45.2,-45.6) ">
<g transform="matrix( 1, 0, 0, 1, 0,0) ">
<use xlink:href="#Duplicate_Items_Folder_head_0_Layer1_0_FILL"/>

<use xlink:href="#Duplicate_Items_Folder_head_0_Layer1_0_1_STROKES"/>
</g>

<g transform="matrix( 1, 0, 0, 1, 0,0) ">
<use xlink:href="#Duplicate_Items_Folder_head_0_Layer0_0_FILL"/>

<use xlink:href="#Duplicate_Items_Folder_head_0_Layer0_0_1_STROKES"/>
</g>
</g>

<g transform="matrix( 1, 0, 0, 1, 63.25,-25.8) ">
<g transform="matrix( 1, 0, 0, 1, 0,0) ">
<use xlink:href="#arm__0_Layer1_0_FILL"/>

<use xlink:href="#arm__0_Layer1_0_1_STROKES"/>
</g>

<g transform="matrix( 1, 0, 0, 1, 0,0) ">
<use xlink:href="#arm__0_Layer0_0_FILL"/>

<use xlink:href="#arm__0_Layer0_0_1_STROKES"/>
</g>
</g>
</g>
</svg>
