
<svg xmlns="http://www.w3.org/2000/svg" version="1.1" xmlns:xlink="http://www.w3.org/1999/xlink" preserveAspectRatio="none" x="0px" y="0px" width="560px" height="544px" viewBox="0 0 560 544">
<defs>
<radialGradient id="Gradient_1" gradientUnits="userSpaceOnUse" cx="0" cy="0" r="13.850000000000001" fx="0" fy="0" gradientTransform="matrix( 0.9999999999999999, 0, 0, 0.9999999999999999, 8.2,9.05) " spreadMethod="pad">
<stop  offset="29.019607843137255%" stop-color="#FFFFFF"/>

<stop  offset="100%" stop-color="#00CCFF"/>
</radialGradient>

<filter id="Filter_1" x="-20%" y="-20%" width="140%" height="140%" color-interpolation-filters="sRGB">
<feColorMatrix in="SourceGraphic" type="matrix" values="-0.1462532694356932 0.1495649955291498 0.9966882739065435 0 0 0.39401500324822 0.7980472420003577 -0.19206224524857765 0 0 -0.5188982773581076 1.5532918678593093 -0.034393590501201804 0 0 0 0 0 1 0 " result="result1"/>
</filter>

<g id="body_no_fins_0_Layer4_0_FILL">
<path fill="#FFFF00" stroke="none" d="
M -21.05 16.25
L -21 17.95 -19.4 17.5 -21.05 16.25 Z"/>

<path fill="#FFFFFF" stroke="none" d="
M -36.9 12.55
L -34.85 15.85 -35 11.35 -32.45 15.65 -32.2 10.95 -30.65 15.25 -29.35 11.95 -28.8 15.55 -26.95 13.25 -26.95 16.25 -25.5 13.75 -25 17.3 -23.25 15.2 -23.1 17.65 -21.05 16.25 -23.6 14.3 -29.5 11.05 -34 10.65 -36.9 12.55
M -35.65 16.15
L -36.75 18.5 -37.1 15.25 -38.3 18.35 -37.35 20.3 -32.95 20.7 -25.65 20.4 -26.4 18.6 -27.75 19.05 -28.45 18.35 -29.35 19.2 -30.35 18.15 -31.6 19.35 -32.45 16.75 -33.5 19.5 -34 18.35 -35.05 19.35 -35.65 16.15 Z"/>
</g>

<g id="body_no_fins_0_Layer3_0_FILL">
<path fill="#009900" stroke="none" d="
M 16.8 18.9
Q 16.755859375 18.879296875 16.65 18.85 16.2513671875 18.7279296875 15.8 18.6 10.198046875 16.2396484375 3.65 18.3
L -3.05 20.95
Q -3.4068359375 22.1400390625 -4.85 23.3 -10.95 25.9 -26.95 24.85 -16.1259765625 29.9021484375 -2.3 26.85 2.372265625 26.3251953125 6.8 22.55 12.2205078125 20.4654296875 17.65 22
L 16.8 18.9
M 6.2 13.2
Q 6.278515625 13.928515625 6.75 14.4 7.14921875 14.835546875 7.65 14.95 7.6873046875 15.3873046875 8 15.7 8.35 16.05 8.85 16.05 9.4 16.05 9.75 15.7 10.15 15.35 10.15 14.85 10.15 14.600390625 10.05 14.4 10.172265625 14.4 10.3 14.4 11.05 14.4 11.55 14 11.892578125 13.75078125 12 13.4
L 18.9 15.35
Q 19.213671875 15.29609375 19.55 15.3
L 19.9 14.85 18.75 12.15 9.45 8.9
Q 0.8435546875 9.7318359375 -4.6 14.7 -3.60625 15.963671875 -3.15 17.15 1.1029296875 14.173046875 6.2 13.2
M 40.7 13.45
Q 47.612890625 10.4755859375 53.65 12.8 51.9517578125 8.1732421875 44.4 9.4 39.49609375 11.9724609375 34.85 13.5 34.7548828125 12.9884765625 34.25 12.6 33.65 12.1 32.8 12.1 32 12.1 31.4 12.6 30.8 13.1 30.8 13.8 30.8 14.235546875 31 14.6 29.371875 14.9923828125 27.75 15.25
L 21.9 13.25 21.4 16.05 26.35 17.4
Q 34.969921875 17.749609375 40.7 13.45
M 92.05 2
Q 89.9671875 1.798828125 88.95 2.1
L 85.8 9.6
Q 82.1666015625 15.518359375 77.55 14.75 69.9470703125 12.12890625 60.95 14 46.9166015625 22.29609375 38.5 22.55 30.1283203125 22.0451171875 22.3 20.3
L 22.6 21 22 23.65
Q 41.3890625 30.78984375 51.55 21.3 58.9365234375 15.484765625 73.15 17.55 80.7701171875 20.6873046875 87.05 12 90.99453125 8.356640625 90.65 2.75 90.5119140625 2.358203125 92.05 2
M -25.45 22.45
Q -25.45 22.15 -25.85 21.9 -26.2 21.65 -26.75 21.65 -27.25 21.65 -27.65 21.9 -28.05 22.15 -28.05 22.45 -28.05 22.75 -27.65 23 -27.25 23.25 -26.75 23.25 -26.2 23.25 -25.85 23 -25.45 22.75 -25.45 22.45
M -36.1 21.6
Q -36.6 21.6 -37 21.85 -37.35 22.15 -37.35 22.55 -37.35 22.95 -37 23.2 -36.6 23.5 -36.1 23.5 -35.55 23.5 -35.2 23.2
L -35.2 23.15
Q -35.00234375 23.41015625 -34.65 23.6 -34 23.95 -33.05 23.95 -32.05 23.95 -31.4 23.6 -30.75 23.25 -30.75 22.75 -30.75 22.3 -31.4 21.95 -32.05 21.6 -33.05 21.6 -34 21.6 -34.65 21.95 -34.8091796875 22.0357421875 -34.95 22.1 -35.02734375 21.9794921875 -35.2 21.85 -35.55 21.6 -36.1 21.6
M -12 14.8
Q -11.7 15.15 -11.35 15.15 -10.95 15.15 -10.65 14.8 -10.35 14.45 -10.35 14 -10.35 13.5 -10.65 13.15 -10.95 12.8 -11.35 12.8 -11.7 12.8 -12 13.15 -12.3 13.5 -12.3 13.95 -12.3 14.45 -12 14.8
M -9.6 10.55
Q -9.15 9.8 -9.15 8.65 -9.15 7.5 -9.6 6.7 -10 5.95 -10.65 5.95 -11.25 5.95 -11.7 6.7 -11.981640625 7.26328125 -12.1 8 -12.2908203125 7.9 -12.55 7.9 -13.05 7.9 -13.45 8.35 -13.8 8.85 -13.8 9.55 -13.8 10.25 -13.45 10.75 -13.05 11.25 -12.55 11.25 -12 11.25 -11.6 10.75
L -11.6 10.7
Q -11.1765625 11.35 -10.65 11.35 -10 11.35 -9.6 10.55
M 31.75 17.9
Q 31.35 17.9 31.05 18.1 30.8 18.35 30.8 18.65 30.8 18.95 31.05 19.15 31.35 19.4 31.75 19.4 32.2 19.4 32.5 19.15 32.8 18.95 32.8 18.65 32.8 18.35 32.5 18.1 32.2 17.9 31.75 17.9
M 48.5 15.45
Q 48.5 14.95 48.1 14.55 47.75 14.2 47.2 14.2 46.7 14.2 46.3 14.55 45.95 14.95 45.95 15.45 45.95 16 46.3 16.35 46.7 16.75 47.2 16.75 47.75 16.75 48.1 16.35 48.5 16 48.5 15.45
M 40.55 9.95
Q 41.1 9.55 41.1 9.05 41.1 8.5 40.55 8.1 40 7.75 39.2 7.75 38.4 7.75 37.85 8.1 37.35 8.5 37.35 9 37.35 9.55 37.85 9.95 38.4 10.35 39.2 10.35 40 10.35 40.55 9.95
M 42.8 6.2
Q 42.8 5.65 42.35 5.25 41.9 4.85 41.3 4.85 40.7 4.85 40.25 5.25 39.8 5.65 39.8 6.2 39.8 6.75 40.25 7.15 40.7 7.55 41.3 7.55 41.9 7.55 42.35 7.15 42.8 6.75 42.8 6.2
M 78.05 10.3
Q 77.65 10.65 77.65 11.1 77.65 11.6 78.05 11.95 78.45 12.3 79.05 12.3 79.7 12.3 80.1 11.95 80.5 11.6 80.5 11.15 80.5 10.65 80.1 10.3 79.7 9.95 79.05 9.95 78.45 9.95 78.05 10.3 Z"/>

<path fill="#99CC00" stroke="none" d="
M 6.75 14.4
Q 6.278515625 13.928515625 6.2 13.2 1.1029296875 14.173046875 -3.15 17.15 -2.4025390625 19.0890625 -3.05 20.95
L 3.65 18.3
Q 10.198046875 16.2396484375 15.8 18.6 16.2513671875 18.7279296875 16.65 18.85 17.2005859375 15.6857421875 18.9 15.35
L 12 13.4
Q 11.892578125 13.75078125 11.55 14 11.05 14.4 10.3 14.4 10.172265625 14.4 10.05 14.4 10.15 14.600390625 10.15 14.85 10.15 15.35 9.75 15.7 9.4 16.05 8.85 16.05 8.35 16.05 8 15.7 7.6873046875 15.3873046875 7.65 14.95 7.14921875 14.835546875 6.75 14.4
M 88.55 2.25
Q 87.55 2.7 86.5 3.95 83.5 10.05 76.65 7.35 76.3595703125 7.028125 76.05 6.75 74.081640625 4.89375 71.6 4.7
L 71.5 7.15 75.35 9.9 72.7 13.05 72.2 10.1
Q 70.25 13.1064453125 68.3 10.1
L 69.75 8.65
Q 66.2337890625 7.2248046875 68.45 5.1 67.9626953125 5.290234375 67.45 5.5 66.9427734375 5.9630859375 66.4 6.35 64.8583984375 7.606640625 63.25 8.25 58.2853515625 10.3453125 53 6.95 49.9994140625 3.8984375 46.55 3.05 45.0140625 2.67265625 43.4 2.7 41.4583984375 2.781640625 39.4 3.45 35.3623046875 5.8884765625 31.85 7.2 27.01328125 9.025 23.15 8.75 20.9115234375 8.599609375 19 7.75 18.928125 7.695703125 18.85 7.65 16.9875 6.240234375 15.3 5.25 13.9 4.4046875 12.6 3.85 11.1943359375 3.2205078125 9.9 2.95 8.6376953125 2.6646484375 7.5 2.75 6.4271484375 2.8259765625 5.5 3.25 1.8005859375 4.3642578125 2.4 2.55 -1.8921875 -1.8376953125 -5.2 -1.4 -9.7 -0.85 -13.7 2.55 -15.320703125 0.945703125 -17.7 1.3 -22.10859375 -0.154296875 -26.9 4.9 -30.4 3.2 -33.55 3.45 -37.05 4.35 -36.05 7.95 -41.1 10.35 -37.55 12.85 -34.7 10.35 -32 10.5 -30.25 10.6 -22.5 14.95
L -15.05 19.25 -22.4 20.3
Q -30.55 21.3 -34.3 20.9 -37.8 20.55 -38.25 18.95 -38.6 17.6 -39.2 17.65 -40.5 17.9 -39.95 21.05 -39.45 24.15 -37.4 25.35 -31.45 26.95 -27.3 24.75
L -26.95 24.85
Q -10.95 25.9 -4.85 23.3 -3.4068359375 22.1400390625 -3.05 20.95 -2.4025390625 19.0890625 -3.15 17.15 -3.60625 15.963671875 -4.6 14.7 -5.664453125 13.4029296875 -7.35 12.05 -5.664453125 13.4029296875 -4.6 14.7 0.8435546875 9.7318359375 9.45 8.9
L 18.75 12.15 18.7 12.05
Q 20.425 8.6005859375 22.15 11.85
L 21.9 13.25 27.75 15.25
Q 29.371875 14.9923828125 31 14.6 30.8 14.235546875 30.8 13.8 30.8 13.1 31.4 12.6 32 12.1 32.8 12.1 33.65 12.1 34.25 12.6 34.7548828125 12.9884765625 34.85 13.5 39.49609375 11.9724609375 44.4 9.4 51.9517578125 8.1732421875 53.65 12.8 47.612890625 10.4755859375 40.7 13.45 34.969921875 17.749609375 26.35 17.4
L 21.4 16.05 21.15 17.45 22.3 20.3
Q 30.1283203125 22.0451171875 38.5 22.55 46.9166015625 22.29609375 60.95 14 69.9470703125 12.12890625 77.55 14.75 82.1666015625 15.518359375 85.8 9.6
L 88.95 2.1
Q 88.7208984375 2.162109375 88.55 2.25
M 77.65 11.1
Q 77.65 10.65 78.05 10.3 78.45 9.95 79.05 9.95 79.7 9.95 80.1 10.3 80.5 10.65 80.5 11.15 80.5 11.6 80.1 11.95 79.7 12.3 79.05 12.3 78.45 12.3 78.05 11.95 77.65 11.6 77.65 11.1
M 42.35 5.25
Q 42.8 5.65 42.8 6.2 42.8 6.75 42.35 7.15 41.9 7.55 41.3 7.55 40.7 7.55 40.25 7.15 39.8 6.75 39.8 6.2 39.8 5.65 40.25 5.25 40.7 4.85 41.3 4.85 41.9 4.85 42.35 5.25
M 41.1 9.05
Q 41.1 9.55 40.55 9.95 40 10.35 39.2 10.35 38.4 10.35 37.85 9.95 37.35 9.55 37.35 9 37.35 8.5 37.85 8.1 38.4 7.75 39.2 7.75 40 7.75 40.55 8.1 41.1 8.5 41.1 9.05
M 48.1 14.55
Q 48.5 14.95 48.5 15.45 48.5 16 48.1 16.35 47.75 16.75 47.2 16.75 46.7 16.75 46.3 16.35 45.95 16 45.95 15.45 45.95 14.95 46.3 14.55 46.7 14.2 47.2 14.2 47.75 14.2 48.1 14.55
M 31.05 18.1
Q 31.35 17.9 31.75 17.9 32.2 17.9 32.5 18.1 32.8 18.35 32.8 18.65 32.8 18.95 32.5 19.15 32.2 19.4 31.75 19.4 31.35 19.4 31.05 19.15 30.8 18.95 30.8 18.65 30.8 18.35 31.05 18.1
M -3.25 1.6
Q -0.3783203125 3.425 -2.3 5.25
L -0.8 7.75 -1.55 11.1 -3.5 12.8 -3.25 9.9 -6.9 9.85
Q -7.5943359375 7.000390625 -4.45 5.75
L -5.7 3.6 -3.25 1.6
M -9.15 8.65
Q -9.15 9.8 -9.6 10.55 -10 11.35 -10.65 11.35 -11.1765625 11.35 -11.6 10.7
L -11.6 10.75
Q -12 11.25 -12.55 11.25 -13.05 11.25 -13.45 10.75 -13.8 10.25 -13.8 9.55 -13.8 8.85 -13.45 8.35 -13.05 7.9 -12.55 7.9 -12.2908203125 7.9 -12.1 8 -11.981640625 7.26328125 -11.7 6.7 -11.25 5.95 -10.65 5.95 -10 5.95 -9.6 6.7 -9.15 7.5 -9.15 8.65
M -11.35 15.15
Q -11.7 15.15 -12 14.8 -12.3 14.45 -12.3 13.95 -12.3 13.5 -12 13.15 -11.7 12.8 -11.35 12.8 -10.95 12.8 -10.65 13.15 -10.35 13.5 -10.35 14 -10.35 14.45 -10.65 14.8 -10.95 15.15 -11.35 15.15
M -11.8 19.15
Q -12.7134765625 22.092578125 -15.45 22.3 -12.7134765625 22.092578125 -11.8 19.15 -10.7525390625 16.726171875 -16.15 15.25 -10.7525390625 16.726171875 -11.8 19.15
M -37 21.85
Q -36.6 21.6 -36.1 21.6 -35.55 21.6 -35.2 21.85 -35.02734375 21.9794921875 -34.95 22.1 -34.8091796875 22.0357421875 -34.65 21.95 -34 21.6 -33.05 21.6 -32.05 21.6 -31.4 21.95 -30.75 22.3 -30.75 22.75 -30.75 23.25 -31.4 23.6 -32.05 23.95 -33.05 23.95 -34 23.95 -34.65 23.6 -35.00234375 23.41015625 -35.2 23.15
L -35.2 23.2
Q -35.55 23.5 -36.1 23.5 -36.6 23.5 -37 23.2 -37.35 22.95 -37.35 22.55 -37.35 22.15 -37 21.85
M -25.85 21.9
Q -25.45 22.15 -25.45 22.45 -25.45 22.75 -25.85 23 -26.2 23.25 -26.75 23.25 -27.25 23.25 -27.65 23 -28.05 22.75 -28.05 22.45 -28.05 22.15 -27.65 21.9 -27.25 21.65 -26.75 21.65 -26.2 21.65 -25.85 21.9 Z"/>

<path fill="#FF6699" stroke="none" d="
M 22.3 20.3
L 21.15 17.45 21.4 16.05 21.9 13.25 22.15 11.85
Q 20.425 8.6005859375 18.7 12.05
L 18.75 12.15 19.9 14.85 19.55 15.3
Q 19.213671875 15.29609375 18.9 15.35 17.2005859375 15.6857421875 16.65 18.85 16.755859375 18.879296875 16.8 18.9 19.5375 19.6794921875 22.3 20.3 Z"/>

<path fill="#D20256" stroke="none" d="
M 22 23.65
L 22.6 21 22.3 20.3
Q 19.5375 19.6794921875 16.8 18.9
L 17.65 22
Q 18.3205078125 22.1994140625 19 22.45 20.540234375 23.0962890625 22 23.65 Z"/>

<path fill="#00CC00" stroke="none" d="
M 23.15 8.75
L 22.85 4.1
Q 21.6599609375 3.8353515625 20.65 3.15 19.3751953125 1.2517578125 18.6 -1.6
L 15.3 5.25
Q 16.9875 6.240234375 18.85 7.65
L 20.2 3 18.85 7.65
Q 18.928125 7.695703125 19 7.75 20.9115234375 8.599609375 23.15 8.75
M 68.45 5.1
Q 69.12421875 4.9171875 69.75 4.8
L 69.3 -2.35
Q 67.1505859375 -0.4884765625 65.85 0.15 64.6025390625 0.8357421875 63.65 0.4
L 66.4 6.35
Q 66.9427734375 5.9630859375 67.45 5.5 67.9626953125 5.290234375 68.45 5.1
M 86.5 3.95
Q 87.55 2.7 88.55 2.25 88.7208984375 2.162109375 88.95 2.1 89.9671875 1.798828125 92.05 2 90.9974609375 0.4134765625 88.45 -1.15 85.950390625 -2.726171875 83.75 0.2 81.1994140625 4.998046875 77.15 3.75
L 76.05 6.75
Q 76.3595703125 7.028125 76.65 7.35 83.5 10.05 86.5 3.95
M 82.7 2.55
L 85.15 4.7 82.7 2.55
M 80.5 4.25
L 81.2 7.7 80.5 4.25
M 86.1 -1.15
L 87.35 2.55 86.1 -1.15
M 47.8 -3.25
Q 45.175 -2.3447265625 42.5 -5.55
L 43.4 2.7
Q 45.0140625 2.67265625 46.55 3.05
L 47.8 -3.25
M 6.25 -1.55
Q 5.79921875 -1.0052734375 5.35 -0.4
L 3.2 1.1 2.45 2.6
Q 2.44453125 2.56875 2.4 2.55 1.8005859375 4.3642578125 5.5 3.25 6.4271484375 2.8259765625 7.5 2.75
L 6.25 -1.55 Z"/>

<path fill="#669900" stroke="none" d="
M 31.85 7.2
L 30.45 2.05
Q 25.9216796875 4.755078125 22.85 4.1
L 23.15 8.75
Q 27.01328125 9.025 31.85 7.2
M 26.8 7.9
L 26.05 4.5 26.8 7.9
M 63.65 0.4
Q 62.38046875 2.02578125 61.15 2.95
L 63.25 8.25
Q 64.8583984375 7.606640625 66.4 6.35
L 63.65 0.4
M 14.05 -3.55
L 9.85 -4.05 9.9 2.95
Q 11.1943359375 3.2205078125 12.6 3.85
L 14.05 -3.55 Z"/>

<path fill="#CCFF00" stroke="none" d="
M 63.25 8.25
L 61.15 2.95
Q 57.2810546875 6.0078125 53.8 2.7
L 51.2 0.8 50.7 4.5 51.2 0.8
Q 48.1751953125 -0.3125 47.8 -3.25
L 46.55 3.05
Q 49.9994140625 3.8984375 53 6.95 58.2853515625 10.3453125 63.25 8.25
M 53.9 6.95
L 54.9 4.25 53.9 6.95
M 58.05 8.4
L 58.05 5 58.05 8.4
M 77.15 3.75
Q 76.5646484375 3.60078125 75.95 3.3 72.6546875 -1.3205078125 69.3 -2.35
L 69.75 4.8
Q 70.729296875 4.655078125 71.6 4.7 74.081640625 4.89375 76.05 6.75
L 77.15 3.75
M 73.65 1.3
L 73.2 4 73.65 1.3
M 18.6 -1.6
Q 15.627734375 -0.828515625 14.05 -3.55
L 12.6 3.85
Q 13.9 4.4046875 15.3 5.25
L 18.6 -1.6
M 9.85 -4.05
Q 9.359375 -1.684765625 6.25 -1.55
L 7.5 2.75
Q 8.6376953125 2.6646484375 9.9 2.95
L 9.85 -4.05 Z"/>

<path fill="#FF0000" stroke="none" d="
M 75.35 9.9
L 71.5 7.15 71.6 4.7
Q 70.729296875 4.655078125 69.75 4.8 69.12421875 4.9171875 68.45 5.1 66.2337890625 7.2248046875 69.75 8.65
L 68.3 10.1
Q 70.25 13.1064453125 72.2 10.1
L 72.7 13.05 75.35 9.9 Z"/>

<path fill="#00CCFF" stroke="none" d="
M -2.3 5.25
Q -0.3783203125 3.425 -3.25 1.6
L -5.7 3.6 -4.45 5.75
Q -7.5943359375 7.000390625 -6.9 9.85
L -3.25 9.9 -3.5 12.8 -1.55 11.1 -0.8 7.75 -2.3 5.25 Z"/>

<path fill="#89C102" stroke="none" d="
M 38.25 -2.05
Q 37.13828125 -1.4421875 36.3 -0.05 34.859765625 0.505078125 33.55 1.05
L 34.85 5.25 33.55 1.05
Q 31.737109375 1.83515625 30.45 2.05
L 31.85 7.2
Q 35.3623046875 5.8884765625 39.4 3.45 41.4583984375 2.781640625 43.4 2.7
L 42.5 -5.55
Q 40.9787109375 -3.39140625 38.25 -2.05
L 38.5 3.3 38.25 -2.05 Z"/>
</g>

<g id="body_no_fins_0_Layer2_0_FILL">
<path fill="#009900" stroke="none" d="
M -30.8 7.25
Q -31.05 6.95 -31.4 6.95 -31.75 6.95 -32.05 7.25 -32.3 7.6 -32.3 8.05 -32.3 8.5 -32.05 8.8 -31.75 9.15 -31.4 9.15 -31.05 9.15 -30.8 8.8 -30.55 8.5 -30.55 8.05 -30.55 7.6 -30.8 7.25
M -32.9 6.15
Q -33.25 5.7 -33.8 5.7 -34.3 5.7 -34.65 6.15 -35 6.65 -35 7.3 -35 7.95 -34.65 8.4 -34.3 8.9 -33.8 8.9 -33.25 8.9 -32.9 8.4 -32.55 7.95 -32.55 7.3 -32.55 6.65 -32.9 6.15
M -15.05 7.2
Q -14.9533203125 5.294921875 -16.8 3.3 -18.6404296875 1.3650390625 -20.3 2.45 -21.909765625 3.584765625 -23.55 4.55 -25.196875 5.5548828125 -25.3 7.3 -25.35 9.1 -23.75 10.75 -22.25 12.4 -20.15 12.5 -18.05 12.5 -16.55 10.8 -15.1 9.15 -15.05 7.2 Z"/>
</g>

<g id="Duplicate_Items_Folder_eye_copy_8_0_Layer2_0_FILL">
<path fill="url(#Gradient_1)" stroke="none" d="
M 3.3 12.3
Q 2.5978515625 15.4525390625 5.3 18.15 8.001171875 20.8490234375 11.6 20.85 15.15 20.85 17.65 17.9 20.1 14.9 20.2 11.45 20.3 8 17.9 5.75 15.4966796875 3.450390625 14.15 3.75 12.807421875 4.0994140625 8.4 6.65 4.048046875 9.1978515625 3.3 12.3 Z"/>
</g>

<g id="Duplicate_Items_Folder_eye_copy_8_0_Layer1_0_FILL">
<path fill="#000000" stroke="none" d="
M 11.8 12.65
Q 11.45 11.55 10.8 10.55 10.05 9.55 8.85 9.65 7.7 9.6 6.9 10.5 6.1 11.45 6 12.85 5.95 14.15 6.95 15.05 7.85 15.85 9.25 15.7 10.65 15.55 11.35 14.75 12.15 13.8 11.8 12.65 Z"/>
</g>

<g id="Duplicate_Items_Folder_eye_copy_8_0_Layer0_0_FILL">
<path fill="#000000" stroke="none" d="
M 7.9 11.75
Q 7.7 12.1 7.75 12.75 7.75 13.2 8.05 13.55 8.3 14 8.75 13.95 9.35 14 9.65 13.6 10.05 13.25 10 12.65 9.95 12.15 9.6 11.75 9.2 11.45 8.65 11.4 8.1 11.5 7.9 11.75 Z"/>
</g>

<path id="body_no_fins_0_Layer4_0_1_STROKES" stroke="#000000" stroke-width="0.5" stroke-linejoin="round" stroke-linecap="round" fill="none" d="
M -35.65 16.15
L -35.05 19.35 -34 18.35 -33.5 19.5 -32.45 16.75 -31.6 19.35 -30.35 18.15 -29.35 19.2 -28.45 18.35 -27.75 19.05 -26.4 18.6 -25.65 20.4 -32.95 20.7 -37.35 20.3 -38.3 18.35 -37.1 15.25 -36.75 18.5 -35.65 16.15 Z
M -21.05 16.25
L -23.6 14.3 -29.5 11.05 -34 10.65 -36.9 12.55 -34.85 15.85 -35 11.35 -32.45 15.65 -32.2 10.95 -30.65 15.25 -29.35 11.95 -28.8 15.55 -26.95 13.25 -26.95 16.25 -25.5 13.75 -25 17.3 -23.25 15.2 -23.1 17.65 -21.05 16.25 -19.4 17.5 -21 17.95 -21.05 16.25 Z"/>

<path id="body_no_fins_0_Layer3_0_1_STROKES" stroke="#000000" stroke-width="1" stroke-linejoin="round" stroke-linecap="round" fill="none" d="
M 2.425 2.55
Q 2.44453125 2.56875 2.475 2.6
L 3.225 1.1 5.35 -0.4
Q 5.79921875 -1.0052734375 6.25 -1.525 9.359375 -1.684765625 9.875 -4.025
L 14.075 -3.525
Q 15.627734375 -0.828515625 18.6 -1.6 19.3751953125 1.2517578125 20.65 3.15 21.6599609375 3.8353515625 22.85 4.1 25.9216796875 4.755078125 30.475 2.05 31.737109375 1.83515625 33.575 1.05 34.859765625 0.505078125 36.3 -0.05 37.13828125 -1.4421875 38.275 -2.025 40.9787109375 -3.39140625 42.525 -5.525 45.175 -2.3447265625 47.825 -3.25 48.1751953125 -0.3125 51.225 0.825
L 53.8 2.7
Q 57.2810546875 6.0078125 61.15 2.975 62.38046875 2.02578125 63.65 0.425 64.6025390625 0.8357421875 65.875 0.175 67.1505859375 -0.4884765625 69.325 -2.325 72.6546875 -1.3205078125 75.95 3.3 76.5646484375 3.60078125 77.15 3.775
L 77.25 3.5
M 88.95 2.1
Q 88.7208984375 2.162109375 88.55 2.25 87.55 2.7 86.5 3.95 83.5 10.05 76.65 7.35 76.3595703125 7.028125 76.05 6.75 74.081640625 4.89375 71.625 4.725
L 71.5 7.15 75.35 9.9 72.7 13.05 72.2 10.1
Q 70.25 13.1064453125 68.3 10.1
L 69.75 8.65
Q 66.2337890625 7.2248046875 68.45 5.125 67.9626953125 5.290234375 67.45 5.5 66.9427734375 5.9630859375 66.425 6.375 64.8583984375 7.606640625 63.25 8.275 58.2853515625 10.3453125 53 6.95 49.9994140625 3.8984375 46.55 3.05 45.0140625 2.67265625 43.4 2.725 41.4583984375 2.781640625 39.4 3.45 35.3623046875 5.8884765625 31.85 7.225 27.01328125 9.025 23.15 8.75 20.9115234375 8.599609375 19 7.75 18.928125 7.695703125 18.85 7.65 16.9875 6.240234375 15.3 5.25 13.9 4.4046875 12.625 3.85 11.1943359375 3.2205078125 9.925 2.95 8.6376953125 2.6646484375 7.525 2.75 6.4271484375 2.8259765625 5.5 3.25 1.8005859375 4.3642578125 2.425 2.55 -1.8921875 -1.8376953125 -5.2 -1.4 -9.7 -0.85 -13.7 2.55 -15.320703125 0.945703125 -17.7 1.3 -22.10859375 -0.154296875 -26.9 4.9 -30.4 3.2 -33.55 3.45 -37.05 4.35 -36.05 7.95 -41.1 10.35 -37.55 12.85 -34.7 10.35 -32 10.5 -30.25 10.6 -22.5 14.95
L -15.05 19.25 -22.4 20.3
Q -30.55 21.3 -34.3 20.9 -37.8 20.55 -38.25 18.95 -38.6 17.6 -39.2 17.65 -40.5 17.9 -39.95 21.05 -39.45 24.15 -37.4 25.35 -31.45 26.95 -27.3 24.75
L -26.95 24.85
Q -10.95 25.9 -4.85 23.3 -3.4068359375 22.1400390625 -3.025 20.95 -2.4025390625 19.0890625 -3.15 17.175 -3.60625 15.963671875 -4.6 14.725 -5.664453125 13.4029296875 -7.35 12.05
M 92.075 2
Q 89.9671875 1.798828125 88.95 2.1
M 22.325 20.3
L 22.625 21.025 22.025 23.65
Q 41.3890625 30.78984375 51.55 21.3 58.9365234375 15.484765625 73.15 17.55 80.7701171875 20.6873046875 87.05 12 90.99453125 8.356640625 90.65 2.75 90.5119140625 2.358203125 92.075 2 90.9974609375 0.4134765625 88.475 -1.15 85.950390625 -2.726171875 83.75 0.2 81.1994140625 4.998046875 77.15 3.775
L 76.05 6.75
M 82.7 2.55
L 85.15 4.7
M 73.65 1.3
L 73.2 4
M 69.775 4.8
Q 69.12421875 4.9171875 68.45 5.125
M 61.15 2.975
L 63.25 8.275
M 66.425 6.375
L 63.65 0.425
M 71.625 4.725
Q 70.729296875 4.655078125 69.775 4.8
L 69.325 -2.325
M 53.9 6.95
L 54.9 4.25
M 58.05 8.4
L 58.05 5
M 50.7 4.5
L 51.225 0.825
M 21.4 16.05
L 21.15 17.45 22.325 20.3
M 16.825 18.9
L 17.65 22
Q 18.3205078125 22.1994140625 19 22.45 20.540234375 23.0962890625 22.025 23.65
M 34.85 5.25
L 33.575 1.05
M 31.85 7.225
L 30.475 2.05
M 23.15 8.75
L 22.85 4.1
M 26.8 7.9
L 26.05 4.5
M 21.9 13.275
L 21.4 16.05
M 18.75 12.175
L 18.7 12.05
Q 20.425 8.6005859375 22.15 11.85
L 21.9 13.275
M 18.85 7.65
L 20.2 3
M 18.925 15.35
Q 19.213671875 15.29609375 19.55 15.325
L 19.9 14.875 18.75 12.175
M 16.825 18.9
Q 16.755859375 18.879296875 16.675 18.85 17.2005859375 15.6857421875 18.925 15.35
M 17.65 22
Q 12.2205078125 20.4654296875 6.8 22.575 2.372265625 26.3251953125 -2.3 26.85 -16.1259765625 29.9021484375 -26.95 24.85
M 80.5 4.25
L 81.2 7.7
M 38.5 3.3
L 38.275 -2.025
M 86.1 -1.15
L 87.35 2.55
M 12.625 3.85
L 14.075 -3.525
M 7.525 2.75
L 6.25 -1.525
M 9.925 2.95
L 9.875 -4.025
M 15.3 5.25
L 18.6 -1.6
M 43.4 2.725
L 42.525 -5.525
M 46.55 3.05
L 47.825 -3.25
M -3.25 1.6
L -5.7 3.625 -4.45 5.75
Q -7.5943359375 7.000390625 -6.9 9.85
L -3.25 9.9 -3.5 12.8 -1.55 11.1 -0.8 7.75 -2.3 5.25
Q -0.3783203125 3.425 -3.25 1.6 Z
M -16.15 15.25
Q -10.7525390625 16.726171875 -11.8 19.15 -12.7134765625 22.092578125 -15.45 22.3"/>

<path id="Duplicate_Items_Folder_eye_copy_8_0_Layer2_0_1_STROKES" stroke="#000000" stroke-width="1" stroke-linejoin="round" stroke-linecap="round" fill="none" d="
M 3.325 12.325
Q 4.048046875 9.1978515625 8.425 6.65 12.807421875 4.0994140625 14.15 3.775 15.4966796875 3.450390625 17.9 5.75 20.3 8 20.2 11.45 20.1 14.9 17.65 17.9 15.15 20.85 11.6 20.85 8.001171875 20.8490234375 5.3 18.15 2.5978515625 15.4525390625 3.325 12.325 Z"/>

<path id="Duplicate_Items_Folder_eye_copy_8_0_Layer1_0_1_STROKES" stroke="#000000" stroke-width="0.8" stroke-linejoin="round" stroke-linecap="round" fill="none" d="
M 10.8 10.55
Q 10.05 9.55 8.85 9.65 7.7 9.6 6.9 10.5 6.1 11.45 6 12.85 5.95 14.15 6.95 15.05 7.85 15.85 9.25 15.7 10.65 15.55 11.35 14.75 12.15 13.8 11.8 12.65 11.45 11.55 10.8 10.55 Z"/>
</defs>

<g transform="matrix( 8.0263671875, 0, 0, 8.0263671875, 274.9,289.05) "/>

<g transform="matrix( 4.110321044921875, 0, 0, 4.110321044921875, 172.3,227.3) ">
<g filter="url(#Filter_1)" transform="matrix( 0.2432861328125, 0, 0, 0.2432861328125, -41.9,-55.25) ">
<g transform="matrix( 4.110321044921875, 0, 0, 4.110321044921875, 173.1,228.7) ">
<g transform="matrix( 1, 0, 0, 1, 0,0) ">
<use xlink:href="#body_no_fins_0_Layer4_0_FILL"/>

<use xlink:href="#body_no_fins_0_Layer4_0_1_STROKES"/>
</g>

<g transform="matrix( 1, 0, 0, 1, 0,0) ">
<use xlink:href="#body_no_fins_0_Layer3_0_FILL"/>

<use xlink:href="#body_no_fins_0_Layer3_0_1_STROKES"/>
</g>

<g transform="matrix( 1, 0, 0, 1, 0,0) ">
<use xlink:href="#body_no_fins_0_Layer2_0_FILL"/>
</g>

<g transform="matrix( 0.395538330078125, 0, 0, 0.3792724609375, -25.1,2.75) ">
<g transform="matrix( 1, 0, 0, 1, 0,0) ">
<use xlink:href="#Duplicate_Items_Folder_eye_copy_8_0_Layer2_0_FILL"/>

<use xlink:href="#Duplicate_Items_Folder_eye_copy_8_0_Layer2_0_1_STROKES"/>
</g>

<g transform="matrix( 1, 0, 0, 1, 0,0) ">
<use xlink:href="#Duplicate_Items_Folder_eye_copy_8_0_Layer1_0_FILL"/>

<use xlink:href="#Duplicate_Items_Folder_eye_copy_8_0_Layer1_0_1_STROKES"/>
</g>

<g transform="matrix( 1, 0, 0, 1, 0,0) ">
<use xlink:href="#Duplicate_Items_Folder_eye_copy_8_0_Layer0_0_FILL"/>
</g>
</g>
</g>
</g>
</g>
</svg>
