
<svg xmlns="http://www.w3.org/2000/svg" version="1.1" xmlns:xlink="http://www.w3.org/1999/xlink" preserveAspectRatio="none" x="0px" y="0px" width="560px" height="544px" viewBox="0 0 560 544">
<defs>
<linearGradient id="Gradient_1" gradientUnits="userSpaceOnUse" x1="-1.1250000000000002" y1="-9.85" x2="3.5250000000000004" y2="-9.85" spreadMethod="pad">
<stop  offset="0%" stop-color="#CC0000"/>

<stop  offset="100%" stop-color="#FF0000"/>
</linearGradient>

<linearGradient id="Gradient_2" gradientUnits="userSpaceOnUse" x1="4.075" y1="-15.65" x2="9.225000000000001" y2="-15.65" spreadMethod="pad">
<stop  offset="0%" stop-color="#CC0000"/>

<stop  offset="100%" stop-color="#A00101"/>
</linearGradient>

<linearGradient id="Gradient_3" gradientUnits="userSpaceOnUse" x1="0.9249999999999998" y1="-16.7" x2="9.274999999999999" y2="-16.7" spreadMethod="pad">
<stop  offset="0%" stop-color="#CC0000"/>

<stop  offset="100%" stop-color="#FF0000"/>
</linearGradient>

<linearGradient id="Gradient_4" gradientUnits="userSpaceOnUse" x1="-8.55" y1="16.75" x2="-4.05" y2="16.75" spreadMethod="pad">
<stop  offset="0%" stop-color="#CC0000"/>

<stop  offset="100%" stop-color="#FF0000"/>
</linearGradient>

<linearGradient id="Gradient_5" gradientUnits="userSpaceOnUse" x1="-3.525" y1="14.6" x2="3.225" y2="14.6" spreadMethod="pad">
<stop  offset="0%" stop-color="#CC0000"/>

<stop  offset="100%" stop-color="#FF0000"/>
</linearGradient>

<linearGradient id="Gradient_6" gradientUnits="userSpaceOnUse" x1="1.7749999999999995" y1="9.35" x2="7.425" y2="9.35" spreadMethod="pad">
<stop  offset="0%" stop-color="#CC0000"/>

<stop  offset="100%" stop-color="#FF0000"/>
</linearGradient>

<linearGradient id="Gradient_7" gradientUnits="userSpaceOnUse" x1="1.7000000000000002" y1="2.9" x2="6.7" y2="2.9" spreadMethod="pad">
<stop  offset="0%" stop-color="#CC0000"/>

<stop  offset="100%" stop-color="#FF0000"/>
</linearGradient>

<linearGradient id="Gradient_8" gradientUnits="userSpaceOnUse" x1="-1.125" y1="-3.2" x2="3.625" y2="-3.2" spreadMethod="pad">
<stop  offset="0%" stop-color="#CC0000"/>

<stop  offset="100%" stop-color="#FF0000"/>
</linearGradient>

<linearGradient id="Gradient_9" gradientUnits="userSpaceOnUse" x1="-14.925" y1="-2.85" x2="8.125" y2="-2.85" spreadMethod="pad">
<stop  offset="0%" stop-color="#CC0000"/>

<stop  offset="100%" stop-color="#A00101"/>
</linearGradient>

<linearGradient id="Gradient_10" gradientUnits="userSpaceOnUse" x1="-4" y1="-7" x2="-2.2" y2="-7" spreadMethod="pad">
<stop  offset="0%" stop-color="#CC0000"/>

<stop  offset="100%" stop-color="#A00101"/>
</linearGradient>

<linearGradient id="Gradient_11" gradientUnits="userSpaceOnUse" x1="-9.675" y1="-6.3" x2="-6.925000000000001" y2="-6.3" spreadMethod="pad">
<stop  offset="0%" stop-color="#CC0000"/>

<stop  offset="100%" stop-color="#A00101"/>
</linearGradient>

<linearGradient id="Gradient_12" gradientUnits="userSpaceOnUse" x1="0.6749999999999998" y1="-7.25" x2="3.225" y2="-7.25" spreadMethod="pad">
<stop  offset="0%" stop-color="#CC0000"/>

<stop  offset="100%" stop-color="#A00101"/>
</linearGradient>

<linearGradient id="Gradient_13" gradientUnits="userSpaceOnUse" x1="-2.2875" y1="-3.0125" x2="0.8875000000000002" y2="2.7125000000000004" spreadMethod="pad">
<stop  offset="0%" stop-color="#CC0000"/>

<stop  offset="100%" stop-color="#FF0000"/>
</linearGradient>

<linearGradient id="Gradient_14" gradientUnits="userSpaceOnUse" x1="2.5500000000000003" y1="-5" x2="1.15" y2="1.4000000000000001" spreadMethod="pad">
<stop  offset="0%" stop-color="#CC0000"/>

<stop  offset="100%" stop-color="#FF0000"/>
</linearGradient>

<filter id="Filter_1" x="-20%" y="-20%" width="140%" height="140%" color-interpolation-filters="sRGB">
<feColorMatrix in="SourceGraphic" type="matrix" values="1.6753194003260496 0.9701051808652361 -1.4954245811912854 0 -0.03735294117647061 -0.4020547962182829 1.144081088820486 0.40797370739779704 0 -0.0373529411764706 1.0596796450598729 -1.2775079922828962 1.367828347223023 0 -0.0373529411764706 0 0 0 1 0 " result="result1"/>
</filter>

<g id="leg_3_0_Layer2_0_FILL">
<path fill="#CC0000" stroke="none" d="
M 1.2 -9.4
L 1.2 -9.35 1.25 -9.3
Q 2.322265625 -0.003515625 1.35 8.5 2.4919921875 10.0548828125 2.65 10.1 2.95 10.25 3.8 10.2 4.65 10.15 5.05 9.4 5.4 8.65 5.2 7.55 4.952734375 6.4443359375 4.55 6 4.1916015625 5.5666015625 3.5 3.45 2.8611328125 1.327734375 2.25 -3.25
L 2.1 -8.75
Q 2 -8.85 1.85 -8.95 1.5330078125 -9.196484375 1.2 -9.4 Z"/>

<path fill="#000000" stroke="none" d="
M 0.6 -9.7
L 0.35 -9.8
Q 0.73203125 -9.5830078125 0.1 -9.85 -0.6427734375 -9.0310546875 -1.3 -5.15 -1.9396484375 -1.2234375 -1.2 2.65 -0.4208984375 6.5857421875 0.15 7.1 0.7294921875 7.6013671875 0.75 8
L 0.8 8
Q 0.8015625 8.0455078125 0.75 8.05 0.7501953125 9.11484375 1 9.2 1.3033203125 9.3455078125 0.85 9.6 0.399609375 9.841796875 0.4 9.65
L -0.3 9.6
Q -0.779296875 9.7205078125 -0.95 9.7 -1.0599609375 9.7341796875 -1.2 9.7 -3.1478515625 9.7216796875 -2.95 6.7 -2.2685546875 -1.64296875 -1.95 -10.4
L -2.75 -10.7
Q -2.563671875 -10.1763671875 -2.8 -7.95 -3.082421875 -4.6806640625 -3.35 -1.8 -3.6166015625 1.119921875 -4.35 7.7 -4.6171875 10.6876953125 -1.35 11 -1.1833984375 11.0400390625 -1.05 11.05 -0.015625 11.1177734375 1.2 10.95 1.676953125 10.88046875 2.2 10.75 2.25234375 10.7599609375 2.3 10.75
L 3.55 11
Q 4.2 11.2 4.9 11.05 5.55 10.95 6.1 10.05 6.55 9.2 6.35 7.85 6.05 6.5 5.6 6.05 5.15 5.55 4.4 3.25 3.75 0.95 3.15 -2.95
L 3.1 -8.5 1.85 -8.95
Q 2 -8.85 2.1 -8.75
L 2.25 -3.25
Q 2.8611328125 1.327734375 3.5 3.45 4.1916015625 5.5666015625 4.55 6 4.952734375 6.4443359375 5.2 7.55 5.4 8.65 5.05 9.4 4.65 10.15 3.8 10.2 2.95 10.25 2.65 10.1 2.4919921875 10.0548828125 1.35 8.5 2.322265625 -0.003515625 1.25 -9.3
L 1.2 -9.35 1.2 -9.4 1.15 -9.4 0.95 -9.6 0.7 -9.7
Q 0.7673828125 -9.6474609375 0.8 -9.65
L 0.6 -9.7
M 0.75 4.75
Q 0.708984375 5.6623046875 0.65 6.4 -0.42265625 -6.1138671875 0.6 -8.9 0.935546875 0.70859375 0.75 4.75 Z"/>

<path fill="#FF0000" stroke="none" d="
M 0.35 -9.8
Q 0.2701171875 -9.8365234375 0.05 -9.95
L 0.6 -9.7 0.8 -9.65
Q 0.7673828125 -9.6474609375 0.7 -9.7 0.64375 -9.726953125 0.55 -9.8 -0.6740234375 -10.3853515625 -1.7 -10.3
L -1.8 -10.35
Q -1.8875 -10.4125 -1.95 -10.6 -1.953515625 -10.4970703125 -1.95 -10.4 -2.2685546875 -1.64296875 -2.95 6.7 -3.1478515625 9.7216796875 -1.2 9.7 -1.0599609375 9.7341796875 -0.95 9.7 -0.779296875 9.7205078125 -0.3 9.6
L 0.4 9.65
Q 0.399609375 9.841796875 0.85 9.6 1.3033203125 9.3455078125 1 9.2 0.7501953125 9.11484375 0.75 8.05 0.8015625 8.0455078125 0.8 8
L 0.75 8
Q 0.7294921875 7.6013671875 0.15 7.1 -0.4208984375 6.5857421875 -1.2 2.65 -1.9396484375 -1.2234375 -1.3 -5.15 -0.6427734375 -9.0310546875 0.1 -9.85 0.73203125 -9.5830078125 0.35 -9.8 Z"/>
</g>

<g id="leg_3_0_Layer0_0_FILL">
<path fill="#000000" stroke="none" d="
M -4.1 6.05
Q -4.35 5.9 -4.7 5.85 -5.15 5.75 -5.7 5.8 -6.65 5.9 -7.35 6.8 -7.65 7.05 -7.9 7.35 -8.55 8.55 -8.45 9.65 -8.45 9.75 -8.4 9.85 -8.35 10.35 -7.2 11 -6.35 9.25 -5.25 7.95 -5.75 9.2 -5.6 10.2 -5.55 10.35 -5.5 10.45 -5.35 11 -4.05 11.6 -2.6 8.95 -1.45 7.9 -0.3 6.8 -0.55 6.45
L -1 6.05 -1 6
Q -1.3 5.85 -1.65 5.75 -2.25 5.7 -2.85 5.8 -3.4 5.85 -3.85 6.25
L -4.05 6.1 -4.1 6.05
M -6.7 6.9
Q -6.2 6.4 -5.65 6.35 -5.05 6.25 -4.3 6.55
L -4.3 6.6 -4.35 6.65
Q -4.4 6.7 -4.4 6.8 -4.5 6.85 -4.55 6.95 -4.65 7.05 -4.65 7.1
L -4.75 7.05
Q -6.8 6.8 -7.35 10.45 -7.95 10.45 -7.9 9.7
L -7.95 9.7
Q -8 8.7 -7.4 7.55 -7.15 7.15 -6.7 6.9
M -1.15 6.6
L -1.2 6.6
Q -1.4 7.15 -1.55 7.2 -3.95 6.9 -4.25 11.05 -4.9 11.05 -4.9 10.25
L -5 10.25
Q -5.1 9.15 -4.6 7.85 -4.3 7.35 -3.85 7 -3.35 6.45 -2.7 6.4 -2 6.25 -1.15 6.6 Z"/>

<path fill="#FF0000" stroke="none" d="
M -1.2 6.6
L -1.15 6.6
Q -2 6.25 -2.7 6.4 -3.35 6.45 -3.85 7 -4.3 7.35 -4.6 7.85 -5.1 9.15 -5 10.25
L -4.9 10.25
Q -4.9 11.05 -4.25 11.05 -3.95 6.9 -1.55 7.2 -1.4 7.15 -1.2 6.6 Z"/>

<path fill="#CC0000" stroke="none" d="
M -5.65 6.35
Q -6.2 6.4 -6.7 6.9 -7.15 7.15 -7.4 7.55 -8 8.7 -7.95 9.7
L -7.9 9.7
Q -7.95 10.45 -7.35 10.45 -6.8 6.8 -4.75 7.05
L -4.65 7.1
Q -4.65 7.05 -4.55 6.95 -4.5 6.85 -4.4 6.8 -4.4 6.7 -4.35 6.65
L -4.3 6.6 -4.3 6.55
Q -5.05 6.25 -5.65 6.35 Z"/>
</g>

<g id="tail_0_Layer1_0_FILL">
<path fill="#000000" stroke="none" d="
M 4.45 -11.7
L 4.05 -11.9
Q 2.85 -12.85 1.25 -12.6 -0.35 -12.4 -0.6 -11.9 -0.8 -11.4 -1.65 -8 -1.8 -7.4 -1.55 -7.1 0.85 -8.45 2.35 -7.3 3.85 -6.15 3.9 -6.85 3.95 -7.55 4.05 -8.35 4.15 -9.2 4.3 -10.15 4.4 -11.15 4.45 -11.7
M 3.55 -10.85
Q 3.55 -10.5 3.55 -10.15 3.55 -9.85 3.4 -9.2 3.25 -8.65 3.35 -7.6 1.1 -9.45 -1.1 -7.8 -0.8 -9.15 -0.05 -11.2 0 -11.45 0.75 -11.9 1.45 -12.35 2.45 -11.8 3.45 -11.25 3.55 -10.85
M 9.9 -19.55
Q 9.50078125 -19.965234375 8.45 -20.4 7.4046875 -20.784765625 5.55 -20.05 3.736328125 -19.305078125 2.85 -18.75 1.9669921875 -18.2 0.75 -15.9 -0.455859375 -13.6 -0.05 -13.55 3.508984375 -13.3798828125 4.75 -12.2
L 8.9 -16.05
Q 9.238671875 -16.44296875 9.65 -16.9 10.35 -17.95 10.3 -19 10.29921875 -19.144921875 9.9 -19.55
M 0.95 -14.3
Q 1.6947265625 -16.6 2.7 -17.55 3.7158203125 -18.5 4.7 -19.1 5.7341796875 -19.7 7.5 -19.55 9.2552734375 -19.35 9.3 -18.2 9.3 -18.2486328125 9.25 -18.2 9.1376953125 -18.12265625 8.8 -17.65 7.65 -16.05 6.3 -15 4.95 -13.95 4.75 -13.25 4.75 -13.2 4.7 -13.1
L 4.1 -13.85
Q 2.9158203125 -14.7033203125 0.95 -14.3 Z"/>

<path fill="url(#Gradient_1)" stroke="none" d="
M 3.55 -10.15
Q 3.55 -10.5 3.55 -10.85 3.45 -11.25 2.45 -11.8 1.45 -12.35 0.75 -11.9 0 -11.45 -0.05 -11.2 -0.8 -9.15 -1.1 -7.8 1.1 -9.45 3.35 -7.6 3.25 -8.65 3.4 -9.2 3.55 -9.85 3.55 -10.15 Z"/>

<path fill="url(#Gradient_2)" stroke="none" d="
M 4.1 -13.85
L 4.7 -13.1
Q 4.75 -13.2 4.75 -13.25 4.95 -13.95 6.3 -15 7.65 -16.05 8.8 -17.65 9.1376953125 -18.12265625 9.25 -18.2 7.6236328125 -18.41640625 6 -16.35
L 4.1 -13.85 Z"/>

<path fill="url(#Gradient_3)" stroke="none" d="
M 2.7 -17.55
Q 1.6947265625 -16.6 0.95 -14.3 2.9158203125 -14.7033203125 4.1 -13.85
L 6 -16.35
Q 7.6236328125 -18.41640625 9.25 -18.2 9.3 -18.2486328125 9.3 -18.2 9.2552734375 -19.35 7.5 -19.55 5.7341796875 -19.7 4.7 -19.1 3.7158203125 -18.5 2.7 -17.55 Z"/>
</g>

<g id="tail_0_Layer0_0_FILL">
<path fill="#000000" stroke="none" d="
M -3.85 15.2
Q -4.45 13.8 -4.9 13.75 -5.3 13.75 -8.05 14.25 -8.55 14.35 -8.65 14.65 -9.55 16.25 -8.95 18.1 -8.4 19.95 -7.5 19.8 -6.7 19.6 -6.1 19.4 -5.65 19.2 -5.25 19.1 -4.95 19.05 -4.75 18.95 -3.95 18.7 -3.55 18.45
L -3.5 18.05
Q -3.2 16.6 -3.85 15.2
M -4.4 18
Q -4.65 18.1 -4.95 18.25 -5.15 18.35 -5.65 18.45 -6.15 18.5 -6.85 19 -9.5 17.6 -8 14.85 -6.95 14.6 -5.2 14.5 -5.05 14.45 -4.45 15 -3.95 15.5 -4.05 16.6 -4.15 17.75 -4.4 18
M 3.55 11.95
Q 2.5 10.75 1.8 10.9 1.05 11.05 -3.55 12.85 -4.35 13.1 -4.6 13.55 -1.75 14.65 -2.35 16.75 -3.05 18.9 -2.15 18.4 -1.25 17.95 -0.25 17.5 0.45 17.1 1.25 16.75 1.65 16.6 2.1 16.35 3.35 15.75 4.1 15.35
L 4.15 14.9
Q 4.7 13.15 3.55 11.95
M 1.15 11.85
Q 1.5 11.75 2.45 12.05 3.4 12.35 3.2 13.6 3.05 14.85 2.6 15.2 2.15 15.45 1.75 15.7 1.35 15.95 0.45 16.25 -0.25 16.55 -1.5 17.4 -0.4 14.15 -3.5 13.45 -1.7 12.7 1.15 11.85
M 4.05 6.1
Q 4 6.1 4 6.05 3.35 6.8 1.35 9.6 0.95 10.15 1.05 10.6 3.9 10.25 4.75 12.1 5.65 14.05 6 13.35 6.35 12.65 6.8 11.8 7.1 11.2 7.5 10.6 7.65 10.3 7.9 10 8.45 8.95 8.65 8.35
L 8.45 7.9
Q 7.75 6.4 6.15 6 4.75 5.55 4.25 5.8 4.15 5.95 4.05 6.1
M 1.8 10.1
Q 2.65 8.7 4.3 6.85 4.45 6.6 5.35 6.5 6.2 6.4 6.85 7.35 7.55 8.4 7.45 8.85 7.3 9.25 7.2 9.65 7 9.95 6.6 10.6 6.2 11.1 5.8 12.25 4.6 9.25 1.8 10.1
M 5.05 -0.85
Q 3.45 -1.4 2.15 -0.45 0.85 0.45 0.85 1.15 0.95 1.85 1.95 5.95 2.13046875 6.5818359375 2.45 6.85 2.5111328125 6.8755859375 2.55 6.9 2.6416015625 6.7419921875 2.7 6.6 4.1232421875 4.437890625 5.95 5 7.85 5.6 7.55 4.85 7.25 4.05 6.9 3.15 6.7 2.5 6.4 1.8 6.3 1.4 6.2 1.05 5.75 -0.15 5.55 -0.8
L 5.05 -0.85
M 5.9 2.45
Q 6 3.2 6.7 4.25 3.75 3.2 2.6 5.95 2.15 4.3 1.7 1.7 1.65 1.35 2.1 0.6 2.45 -0.25 3.7 -0.05 4.9 0.2 5.15 0.55 5.3 1 5.5 1.35 5.65 1.7 5.9 2.45
M 2.75 -6.6
L 2.25 -6.65
Q 0.75 -6.85 -0.55 -5.95 -1.85 -5 -1.85 -4.5 -1.8 -3.9 -0.95 -0.55 -0.85 0.1 -0.45 0.2 1.1 -2.05 2.9 -1.75 4.75 -1.4 4.45 -2.1 4.15 -2.7 3.9 -3.5 3.7 -3.95 3.55 -4.55 3.45 -4.8 3.3 -5.2 3 -6.1 2.75 -6.6
M 2.6 -4.8
Q 2.8 -4.5 2.95 -3.9 3.1 -3.35 3.65 -2.45 0.8 -3.05 -0.4 -0.6 -0.75 -1.95 -1.1 -4.05 -1.15 -4.3 -0.65 -5.1 -0.2 -5.8 0.85 -5.8 2 -5.75 2.3 -5.4 2.45 -5.1 2.6 -4.8 Z"/>

<path fill="url(#Gradient_4)" stroke="none" d="
M -4.95 18.25
Q -4.65 18.1 -4.4 18 -4.15 17.75 -4.05 16.6 -3.95 15.5 -4.45 15 -5.05 14.45 -5.2 14.5 -6.95 14.6 -8 14.85 -9.5 17.6 -6.85 19 -6.15 18.5 -5.65 18.45 -5.15 18.35 -4.95 18.25 Z"/>

<path fill="url(#Gradient_5)" stroke="none" d="
M 2.45 12.05
Q 1.5 11.75 1.15 11.85 -1.7 12.7 -3.5 13.45 -0.4 14.15 -1.5 17.4 -0.25 16.55 0.45 16.25 1.35 15.95 1.75 15.7 2.15 15.45 2.6 15.2 3.05 14.85 3.2 13.6 3.4 12.35 2.45 12.05 Z"/>

<path fill="url(#Gradient_6)" stroke="none" d="
M 4.3 6.85
Q 2.65 8.7 1.8 10.1 4.6 9.25 5.8 12.25 6.2 11.1 6.6 10.6 7 9.95 7.2 9.65 7.3 9.25 7.45 8.85 7.55 8.4 6.85 7.35 6.2 6.4 5.35 6.5 4.45 6.6 4.3 6.85 Z"/>

<path fill="url(#Gradient_7)" stroke="none" d="
M 6.7 4.25
Q 6 3.2 5.9 2.45 5.65 1.7 5.5 1.35 5.3 1 5.15 0.55 4.9 0.2 3.7 -0.05 2.45 -0.25 2.1 0.6 1.65 1.35 1.7 1.7 2.15 4.3 2.6 5.95 3.75 3.2 6.7 4.25 Z"/>

<path fill="url(#Gradient_8)" stroke="none" d="
M 2.95 -3.9
Q 2.8 -4.5 2.6 -4.8 2.45 -5.1 2.3 -5.4 2 -5.75 0.85 -5.8 -0.2 -5.8 -0.65 -5.1 -1.15 -4.3 -1.1 -4.05 -0.75 -1.95 -0.4 -0.6 0.8 -3.05 3.65 -2.45 3.1 -3.35 2.95 -3.9 Z"/>
</g>

<g id="stand_body_0_Layer5_0_FILL">
<path fill="#000000" stroke="none" d="
M 9.35 -7.15
Q 9.2 -8.25 8.15 -9.85 7 -11.3 3.6 -11.05 0 -10.85 -2.55 -10.95 -4.25 -10.9 -7.8 -10.3 -9.55 -10.1 -11.75 -9.6 -14.35 -8.05 -14.55 -7.25 -14.85 -6.4 -14.85 -6.3 -14.85 -5.5 -14.85 -4.9 -14.85 -4.2 -14.8 -3.7 -14.9 -2.05 -14.65 -1.2 -14.4 -0.3 -14.15 0.35 -14 1 -12.25 1.9 -10.6 2.95 -8.1 3.05 -7.35 3.05 -6.7 3 2.35 2.4 6.5 1.7 7.85 1.55 8.1 1.5 9.2 1.05 9.45 0.55 9.8 0.05 10 -0.75 10.1 -1.65 9.8 -3.85 9.5 -6 9.35 -7.15
M 6.4 -10
Q 7.15 -9.45 7.9 -6.95 8.5 -4.4 8.55 -2.65
L 8.6 -2.65
Q 8.7 -1.85 8.55 -1.2 8.5 -0.8 8.35 -0.3
L 8.4 -0.25 8.35 -0.2
Q 8.3 -0.2 8.35 -0.15
L 8.25 -0.1 8.3 -0.05 8.25 0.05
Q 8.25 0.4 8.05 0.7
L 8.2 0.35 7.95 0.9
Q 4.85 1.2 1.25 1.45
L -2.5 1.85
Q -4.35 1.95 -5.25 2.05 -6 2.15 -6.8 2.2 -9.35 2.35 -10.85 1.85 -12 1.45 -12.4 0.6 -12.65 0.2 -12.85 -0.2 -13.8 -2.05 -13.75 -2.15
L -13.75 -2.35
Q -13.8 -3 -13.8 -3.6 -13.8 -4.2 -13.75 -4.75 -13.85 -5.35 -13.85 -5.95 -13.85 -6.1 -13.65 -6.8 -13.6 -7.4 -10.7 -9 -9.15 -9.2 -7.75 -9.3 -2.8 -9.8 -0.55 -9.95 2.2 -10.15 3.25 -10.5 3.4 -10.5 4.7 -10.5 5.35 -10.45 6.35 -10.05
L 6.4 -10
M 8.85 -0.7
L 8.75 -0.65
Q 8.8484375 -0.7484375 8.8 -0.8 8.85 -0.74921875 8.85 -0.7 Z"/>

<path fill="#212C58" stroke="none" d="
M 8.75 -0.65
L 8.85 -0.7
Q 8.85 -0.74921875 8.8 -0.8 8.8484375 -0.7484375 8.75 -0.65 Z"/>

<path fill="#99CC99" stroke="none" d="
M 8.6 -2.65
L 8.55 -2.65
Q 0.35 0.85 -7 0.25 -10.15 0.1 -13.1 -0.95 -13 -0.6 -12.85 -0.25
L -12.85 -0.2
Q -12.65 0.2 -12.4 0.6 -12 1.45 -10.85 1.85 -9.35 2.35 -6.8 2.2 -6 2.15 -5.25 2.05 -4.35 1.95 -2.5 1.85
L 1.25 1.45
Q 4.85 1.2 7.95 0.9
L 8.2 0.35 8.05 0.7
Q 8.25 0.4 8.25 0.05
L 8.3 -0.05 8.25 -0.1 8.35 -0.15
Q 8.3 -0.2 8.35 -0.2
L 8.4 -0.25 8.35 -0.3
Q 8.5 -0.8 8.55 -1.2 8.7 -1.85 8.6 -2.65 Z"/>

<path fill="#FFCCFF" stroke="none" d="
M 7.9 -6.95
Q 7.15 -9.45 6.4 -10
L 6.35 -10.05
Q 5.35 -10.45 4.7 -10.5 3.4 -10.5 3.25 -10.5 2.2 -10.15 -0.55 -9.95 -2.8 -9.8 -7.75 -9.3 -9.15 -9.2 -10.7 -9 -13.6 -7.4 -13.65 -6.8 -13.85 -6.1 -13.85 -5.95 -13.85 -5.35 -13.75 -4.75 -13.8 -4.2 -13.8 -3.6 -13.8 -3 -13.75 -2.35
L -13.75 -2.15
Q -13.8 -2.05 -12.85 -0.2
L -12.85 -0.25
Q -13 -0.6 -13.1 -0.95 -10.15 0.1 -7 0.25 0.35 0.85 8.55 -2.65 8.5 -4.4 7.9 -6.95 Z"/>
</g>

<g id="stand_body_0_Layer4_0_FILL">
<path fill="#000000" stroke="none" d="
M 4.55 -8.9
Q 3.35 -5.9 4.3 -3.35 5.35 6.25 6.65 6.3 7.85 6.45 8.8 6.35 9.7 6.25 10.05 4.55 10.2 -0.55 12.8 -1.6 13.85 -3.6 13.25 -6.1 12.8 -8.45 12.2 -9 12 -11 4.55 -8.9
M 4.95 -3.6
L 5.9 -8.35 8.75 -9.05 10.9 -8.85
Q 11.6 -7.65 12.05 -5.7 12.5 -3.75 11.65 -2.2 9.6 -1.45 9.3 2.65 9.6 5.8 7.8 5.45 7.7 5.65 7 5.15 6.25 4.7 4.95 -3.6 Z"/>

<path fill="#FF0000" stroke="none" d="
M 8.75 -9.05
L 5.9 -8.35
Q 8.75 -7.85 9.55 -7.65 10.35 -7.45 10.45 -5.45 10.5 -3.45 9.15 -2.25 7.3 -1.15 7.25 -0.2 7.25 0.7 7.05 1.65 6.8 2.65 6.85 2.9 6.95 3.25 7 3.9 7.05 4.55 7.8 5.45 9.6 5.8 9.3 2.65 9.6 -1.45 11.65 -2.2 12.5 -3.75 12.05 -5.7 11.6 -7.65 10.9 -8.85
L 8.75 -9.05 Z"/>

<path fill="#BA0101" stroke="none" d="
M 5.9 -8.35
L 4.95 -3.6
Q 6.25 4.7 7 5.15 7.7 5.65 7.8 5.45 7.05 4.55 7 3.9 6.95 3.25 6.85 2.9 6.8 2.65 7.05 1.65 7.25 0.7 7.25 -0.2 7.3 -1.15 9.15 -2.25 10.5 -3.45 10.45 -5.45 10.35 -7.45 9.55 -7.65 8.75 -7.85 5.9 -8.35 Z"/>
</g>

<g id="stand_body_0_Layer3_0_FILL">
<path fill="#000000" stroke="none" d="
M 8.35 -6.45
Q 7.55 -7.75 6.95 -7.95 6.5 -8.05 5.8 -7.75 5.05 -7.4 4.65 -6.8 4.55 -6.6 4.5 -6.3 4.45 -6.05 4.4 -5.9
L -1.6 -5.65 -10.15 -5.9
Q -10.2 -6.55 -10.6 -7.2 -11.3 -8.3 -12.45 -8.35 -13.6 -8.55 -14.65 -8.2 -15.6 -7.75 -15.8 -7.1 -16.35 -5.65 -15.4 -4.65 -14.95 -3.95 -14.3 -3.5 -15.25 -3.35 -16 -2.2 -16.7 -1 -15.9 0.35 -15.1 1.7 -13.85 2.15 -12.7 2.6 -11.4 1.9 -10.85 1.7 -10.15 0.15
L -9.85 0.15 -9.85 0.2 4.5 0.1
Q 5.15 0.95 5.65 1.3 6.1 1.75 7.6 0.65 9.4 -2.25 8.5 -6.2 8.5 -6.4 8.35 -6.45
M 5.1 -6.25
Q 5.2 -6.7 5.75 -7.1 6.3 -7.6 7.1 -7.15 7.55 -6.75 7.9 -6.25 7.9 -5.95 7.85 -5.65 7.9 -5.3 8.05 -4.5 8.15 -4.05 8.1 -3.9 8.2 -3.4 8.15 -2.95 7.95 -1.85 7.95 -1.7 7.95 -1.6 7.85 -1.3 7.8 -1 7.45 -0.4 7.25 0.15 6.6 0.5 5.95 0.9 5.5 0.4 5.2 0 4.85 -0.7
L -2.2 -1.05 -10.8 -0.8
Q -10.75 -0.65 -10.95 -0.5 -11.1 -0.05 -11.4 0.2 -11.5 0.25 -11.55 0.3 -11.65 0.4 -11.8 0.6 -12 0.85 -11.95 0.65
L -12.05 0.75
Q -11.95 0.75 -12 0.8
L -12 0.85 -12.1 0.8
Q -12.4 1.05 -13.15 1.05 -14.05 1 -14.55 0.25 -15.2 -0.6 -14.7 -1.7 -14.2 -2.8 -13.4 -3
L -13.2 -3.1
Q -13.05 -3.15 -12.8 -3.15
L -12.7 -3.15
Q -14.05 -4 -14.55 -4.65 -14.65 -4.65 -14.75 -4.8
L -14.65 -4.8
Q -14.95 -5.45 -14.8 -6.25 -14.65 -7 -13.9 -7.3 -13.05 -7.65 -12.3 -7.15 -11.45 -6.75 -11.15 -6.15 -10.8 -5.45 -10.6 -5.05
L -9.55 -5 -9.6 -4.95 4.7 -5
Q 4.9 -5.55 5.05 -6.2 5.05 -6.25 5.1 -6.25 Z"/>

<path fill="url(#Gradient_9)" stroke="none" d="
M 7.05 -6.25
Q 6.8 -6.55 6.3 -6.4 6 -6.35 5.8 -6.25 5.65 -6.15 5.55 -6 5.2 -5.75 5.15 -5.2 5.15 -4.65 5.15 -4.3
L -2.45 -3.8 -9.6 -4 -9.65 -4.05 -11.55 -4.2
Q -11.3 -4.75 -11.35 -5.2 -11.35 -5.75 -11.8 -6.15 -12.25 -6.4 -13.05 -6.6 -13.35 -6.7 -13.65 -6.75
L -13.85 -6.6
Q -14 -6.45 -14.2 -6.2 -14.75 -5.6 -14.75 -5.25 -14.75 -4.95 -14.55 -4.85
L -14.65 -4.8 -14.75 -4.8
Q -14.65 -4.65 -14.55 -4.65 -14.05 -4 -12.7 -3.15
L -12.8 -3.15
Q -13.05 -3.15 -13.2 -3.1
L -13.4 -3
Q -14.2 -2.8 -14.7 -1.7 -15.2 -0.6 -14.55 0.25 -14.05 1 -13.15 1.05 -12.4 1.05 -12.1 0.8
L -12 0.85 -12 0.8
Q -11.95 0.75 -12.05 0.75
L -11.95 0.65
Q -12 0.85 -11.8 0.6 -11.65 0.4 -11.55 0.3 -11.5 0.25 -11.4 0.2 -11.1 -0.05 -10.95 -0.5 -10.75 -0.65 -10.8 -0.8
L -2.2 -1.05 4.85 -0.7
Q 5.2 0 5.5 0.4 5.95 0.9 6.6 0.5 7.25 0.15 7.45 -0.4 7.8 -1 7.85 -1.3 7.95 -1.6 7.95 -1.7 7.95 -1.85 8.15 -2.95 8.2 -3.4 8.1 -3.9 8.05 -4.2 7.8 -4.7 7.55 -5.3 7.45 -5.55 7.35 -5.75 7.2 -6.1 7.2 -6.25 7.05 -6.25 Z"/>

<path fill="#FD3E3E" stroke="none" d="
M 6.3 -6.4
Q 6.8 -6.55 7.05 -6.25 7.2 -6.25 7.2 -6.1 7.35 -5.75 7.45 -5.55 7.55 -5.3 7.8 -4.7 8.05 -4.2 8.1 -3.9 8.15 -4.05 8.05 -4.5 7.9 -5.3 7.85 -5.65 7.9 -5.95 7.9 -6.25 7.55 -6.75 7.1 -7.15 6.3 -7.6 5.75 -7.1 5.2 -6.7 5.1 -6.25 5.05 -6.25 5.05 -6.2 4.9 -5.55 4.7 -5
L -9.6 -4.95 -9.55 -5 -10.6 -5.05
Q -10.8 -5.45 -11.15 -6.15 -11.45 -6.75 -12.3 -7.15 -13.05 -7.65 -13.9 -7.3 -14.65 -7 -14.8 -6.25 -14.95 -5.45 -14.65 -4.8
L -14.55 -4.85
Q -14.75 -4.95 -14.75 -5.25 -14.75 -5.6 -14.2 -6.2 -14 -6.45 -13.85 -6.6
L -13.65 -6.75
Q -13.35 -6.7 -13.05 -6.6 -12.25 -6.4 -11.8 -6.15 -11.35 -5.75 -11.35 -5.2 -11.3 -4.75 -11.55 -4.2
L -9.65 -4.05 -9.6 -4 -2.45 -3.8 5.15 -4.3
Q 5.15 -4.65 5.15 -5.2 5.2 -5.75 5.55 -6 5.65 -6.15 5.8 -6.25 6 -6.35 6.3 -6.4 Z"/>
</g>

<g id="stand_body_0_Layer2_0_FILL">
<path fill="#000000" stroke="none" d="
M -1.8 -11.35
Q -1.85 -11.75 -2.25 -12
L -2.3 -12.05
Q -2.75 -12.3 -3.35 -12.15
L -3.4 -12.2
Q -3.45 -12.1 -3.6 -12.1 -4.1 -11.95 -4.45 -11.65 -4.8 -11.25 -4.8 -10.7
L -4.3 -2.8
Q -4.25 -2.45 -3.9 -2.2 -3.9 -2.15 -3.75 -2.05 -3.4 -1.8 -2.75 -2 -2.7 -1.95 -2.65 -2 -2.1 -2.15 -1.7 -2.5 -1.25 -2.85 -1.35 -3.3
L -1.8 -11.35
M -2.25 -11.15
Q -2.2 -10.95 -2.2 -10.85
L -1.75 -3.65
Q -1.75 -3.2 -2.05 -2.8 -2.3 -2.55 -2.6 -2.45 -2.75 -2.4 -2.85 -2.35 -3.35 -2.25 -3.7 -2.55 -3.9 -2.75 -3.95 -2.9 -4.05 -3.05 -4.05 -3.2
L -4.5 -10.4
Q -4.45 -10.85 -4.25 -11.15 -3.95 -11.5 -3.6 -11.6 -3.5 -11.65 -3.4 -11.65 -2.95 -11.7 -2.6 -11.5 -2.35 -11.35 -2.25 -11.15 Z"/>

<path fill="url(#Gradient_10)" stroke="none" d="
M -2.6 -11.5
Q -2.95 -11.7 -3.4 -11.65 -3.5 -11.65 -3.6 -11.6 -4.1 -9 -3.95 -2.9 -3.9 -2.75 -3.7 -2.55 -3.35 -2.25 -2.85 -2.35 -2.75 -2.4 -2.6 -2.45 -2.05 -4.8 -2.25 -11.15 -2.35 -11.35 -2.6 -11.5 Z"/>

<path fill="#FD3E3E" stroke="none" d="
M -3.6 -11.6
Q -3.95 -11.5 -4.25 -11.15 -4.45 -10.85 -4.5 -10.4
L -4.05 -3.2
Q -4.05 -3.05 -3.95 -2.9 -4.1 -9 -3.6 -11.6 Z"/>

<path fill="#6D0101" stroke="none" d="
M -2.2 -10.85
Q -2.2 -10.95 -2.25 -11.15 -2.05 -4.8 -2.6 -2.45 -2.3 -2.55 -2.05 -2.8 -1.75 -3.2 -1.75 -3.65
L -2.2 -10.85 Z"/>
</g>

<g id="stand_body_0_Layer1_0_FILL">
<path fill="#000000" stroke="none" d="
M -10.5 -11
Q -10.9 -10.55 -10.8 -10.05
L -8.9 -1.7
Q -8.8 -1.35 -8.4 -1.05 -8.35 -1.1 -8.2 -0.95 -7.7 -0.8 -7.05 -0.95
L -7 -0.95
Q -6.9 -1 -6.8 -0.95 -6.3 -1.2 -5.9 -1.6 -5.55 -2.05 -5.65 -2.55
L -7.6 -10.9
Q -7.7 -11.4 -8.15 -11.65
L -8.2 -11.65
Q -8.85 -11.8 -9.45 -11.65
L -9.45 -11.6
Q -9.6 -11.6 -9.75 -11.55 -9.95 -11.5 -10.05 -11.35 -10.3 -11.2 -10.5 -11
M -10.45 -9.75
Q -10.5 -10.15 -10.15 -10.55 -9.9 -10.9 -9.65 -11.1 -9.6 -11.1 -9.55 -11.1 -9.5 -11.15 -9.45 -11.15 -8.9 -11.3 -8.45 -11.05 -8.25 -10.95 -8.05 -10.7 -7.95 -10.6 -7.95 -10.4
L -6.25 -2.8
Q -6.1 -2.4 -6.35 -2 -6.65 -1.65 -6.95 -1.55 -7.05 -1.5 -7.2 -1.45 -7.75 -1.3 -8.1 -1.5 -8.4 -1.6 -8.45 -1.8 -8.6 -1.95 -8.6 -2.15
L -10.45 -9.75 Z"/>

<path fill="#6D0101" stroke="none" d="
M -7.95 -10.4
Q -7.95 -10.6 -8.05 -10.7 -6.7 -4.1 -6.95 -1.55 -6.65 -1.65 -6.35 -2 -6.1 -2.4 -6.25 -2.8
L -7.95 -10.4 Z"/>

<path fill="url(#Gradient_11)" stroke="none" d="
M -9.45 -11.15
Q -9.5 -11.15 -9.55 -11.1 -9.6 -11.1 -9.65 -11.1 -9.65 -10.65 -9.65 -10.1 -9.55 -7.3 -8.45 -1.8 -8.4 -1.6 -8.1 -1.5 -7.75 -1.3 -7.2 -1.45 -7.05 -1.5 -6.95 -1.55 -6.7 -4.1 -8.05 -10.7 -8.25 -10.95 -8.45 -11.05 -8.9 -11.3 -9.45 -11.15 Z"/>

<path fill="#FD3E3E" stroke="none" d="
M -10.15 -10.55
Q -10.5 -10.15 -10.45 -9.75
L -8.6 -2.15
Q -8.6 -1.95 -8.45 -1.8 -9.55 -7.3 -9.65 -10.1 -9.65 -10.65 -9.65 -11.1 -9.9 -10.9 -10.15 -10.55 Z"/>
</g>

<g id="stand_body_0_Layer0_0_FILL">
<path fill="#000000" stroke="none" d="
M 3.35 -11.7
L 3.3 -11.7
Q 2.9 -11.9 2.15 -11.75 2 -11.75 1.9 -11.75 1.3 -11.65 0.95 -11.4 0.45 -11.1 0.5 -10.65
L 0.3 -3.5
Q 0.3 -3.15 0.6 -2.95 0.65 -2.9 0.75 -2.8 1.25 -2.6 1.85 -2.7
L 1.95 -2.65
Q 2 -2.65 2.1 -2.65 2.75 -2.8 3.15 -3.1 3.6 -3.5 3.6 -3.9
L 3.8 -11
Q 3.75 -11.4 3.35 -11.7
M 3.2 -10.65
L 3.25 -10.25 3.15 -4.05
Q 3.15 -3.8 2.8 -3.45 2.45 -3.25 2.2 -3.1 1.95 -3.1 1.85 -3.1 1.3 -3.05 1 -3.3 0.7 -3.35 0.7 -3.6 0.6 -3.7 0.6 -3.9
L 0.75 -10.3
Q 0.75 -10.7 1.2 -10.95 1.45 -11.3 1.8 -11.4 1.9 -11.4 2 -11.4 2.55 -11.45 2.9 -11.25 3.15 -11.05 3.25 -10.85 3.25 -10.8 3.25 -10.7
L 3.2 -10.65 Z"/>

<path fill="#6D0101" stroke="none" d="
M 2.8 -3.45
Q 3.15 -3.8 3.15 -4.05
L 3.25 -10.25
Q 2.9 -5.15 2.2 -3.1 2.45 -3.25 2.8 -3.45 Z"/>

<path fill="#FD3E3E" stroke="none" d="
M 1.8 -11.4
Q 1.45 -11.3 1.2 -10.95 0.75 -10.7 0.75 -10.3
L 0.6 -3.9
Q 0.6 -3.7 0.7 -3.6 1.05 -9.05 1.8 -11.4 Z"/>

<path fill="url(#Gradient_12)" stroke="none" d="
M 3.25 -10.25
L 3.2 -10.65 3.25 -10.7
Q 3.25 -10.8 3.25 -10.85 3.15 -11.05 2.9 -11.25 2.55 -11.45 2 -11.4 1.9 -11.4 1.8 -11.4 1.05 -9.05 0.7 -3.6 0.7 -3.35 1 -3.3 1.3 -3.05 1.85 -3.1 1.95 -3.1 2.2 -3.1 2.9 -5.15 3.25 -10.25 Z"/>
</g>

<g id="Duplicate_Items_Folder_chin_0_Layer0_0_FILL">
<path fill="#FF66CC" stroke="none" d="
M 7.85 -2.5
Q 7.771875 -2.6953125 7.6 -2.9 7.59375 -2.9453125 7.55 -3 7.3755859375 -3.21796875 7.25 -3.4 2.746875 -5.3373046875 -2.5 -4.3 -3.15390625 -3.3615234375 -3.5 -2.15 -3.7447265625 -1.3615234375 -3.55 -0.6 -3.5376953125 -0.5185546875 -3.55 -0.45
L -3.5 -0.4
Q -3.3412109375 0.1826171875 -2.95 0.75 -2.85 0.85 -2.75 0.9 -2.7 0.95 -2.7 1.05 -1.3 2.4 7.35 -0.5 7.45 -0.55 7.6 -0.6 7.85 -0.95 7.85 -1.35 7.85 -1.4 7.85 -1.45 7.9349609375 -1.7560546875 8 -2 8.0427734375 -2.121875 7.85 -2.5 Z"/>

<path fill="#000000" stroke="none" d="
M 7.75 -3.35
Q 7.6787109375 -3.3619140625 7.6 -3.4 7.3904296875 -3.4119140625 7.2 -3.45 7.2193359375 -3.4244140625 7.25 -3.4 7.3755859375 -3.21796875 7.55 -3 7.59375 -2.9453125 7.6 -2.9 7.771875 -2.6953125 7.85 -2.5 8.0427734375 -2.121875 8 -2 7.9349609375 -1.7560546875 7.85 -1.45 7.85 -1.4 7.85 -1.35 7.85 -0.95 7.6 -0.6 7.45 -0.55 7.35 -0.5 -1.3 2.4 -2.7 1.05 -2.7 0.95 -2.75 0.9 -2.85 0.85 -2.95 0.75 -3.3412109375 0.1826171875 -3.5 -0.4
L -3.55 -0.45
Q -3.5376953125 -0.5185546875 -3.55 -0.6 -3.7447265625 -1.3615234375 -3.5 -2.15 -3.15390625 -3.3615234375 -2.5 -4.3 -2.4078125 -4.45859375 -2.3 -4.6
L -2.5 -4.6
Q -2.63203125 -4.5826171875 -2.8 -4.6 -3.22265625 -4.50859375 -3.7 -4.45 -3.8404296875 -4.39765625 -4 -4.4 -6.0546875 -3.940234375 -8.55 -3.1 -11.7279296875 -1.9455078125 -11.75 0.55 -11.766796875 3.0435546875 -8.45 5.2 -5.09453125 7.3521484375 -0.1 6.3 4.85 5.15 8.75 3.65 12.7 2.2 12.25 -0.15 11.75 -2.55 7.75 -3.35
M 10.4 1.25
Q 9.95 1.65 8.55 2.3 7.8 2.6 6.8 3 3.8 4.1 -0.05 5.15 -3.95 6.2 -6.6 4.85 -7.8 4.25 -8.55 3.4 -9.5 2.3 -9.8 0.8 -1.55 5 10.4 1.25 Z"/>

<path fill="#A90101" stroke="none" d="
M 6.8 3
L 6.7 2.7 -1.6 4.5
Q -6.4 4.15 -8.55 3.4 -7.8 4.25 -6.6 4.85 -3.95 6.2 -0.05 5.15 3.8 4.1 6.8 3 Z"/>

<path fill="#FF0000" stroke="none" d="
M 8.55 2.3
Q 9.95 1.65 10.4 1.25 -1.55 5 -9.8 0.8 -9.5 2.3 -8.55 3.4 -6.4 4.15 -1.6 4.5
L 6.7 2.7 6.8 3
Q 7.8 2.6 8.55 2.3 Z"/>
</g>

<g id="Duplicate_Items_Folder_teeth_0_Layer0_0_FILL">
<path fill="#000000" stroke="none" d="
M -9.4 -0.65
Q -9.369921875 -0.6046875 -9.4 -0.6 -8.867578125 1.3861328125 -8.5 2.55 -8.1 4 -7.75 3.8 -5.35 0.35 -4.35 -1.15 -3.4 -2.65 -3 -2.95
L -10.05 -3.4
Q -9.687890625 -1.85625 -9.4 -0.65
M -8.8 -0.85
Q -8.9525390625 -1.584375 -9.15 -2.45 -6.25 -1.75 -4.15 -2.15 -4.75 -1.75 -6 -1.15 -6.546875 -0.8646484375 -6.85 -0.3 -6.90234375 -0.1142578125 -6.95 0.05 -7.15 0.650390625 -7.15 1.45 -7.75 2.8 -8.05 1.75 -8.36328125 0.8099609375 -8.8 -0.85
M 2.95 -2.85
Q 3.5 -2.4 4.25 -1.55 5 -0.75 8.2 3.6 8.5 3.75 8.85 2.3 9.082421875 1.292578125 9.35 -0.3 9.38984375 -0.3453125 9.4 -0.4 9.6740234375 -1.8673828125 10 -3.8
L 2.95 -2.85
M 7.05 -0.35
Q 7.05703125 -0.362109375 7 -0.4 6.8232421875 -0.630859375 6.55 -0.8 5.5 -1.5 4.15 -2.15
L 9.2 -2.8
Q 9.0166015625 -1.7185546875 8.85 -0.85 8.5716796875 0.644921875 8.35 1.5 8.15 2.55 7.6 1.5 7.6 0.34765625 7.05 -0.35 Z"/>

<path fill="#99FF00" stroke="none" d="
M -7.5 -1.35
L -8.8 -0.85
Q -8.36328125 0.8099609375 -8.05 1.75 -7.75 2.8 -7.15 1.45 -7.15 0.650390625 -6.95 0.05 -6.90234375 -0.1142578125 -6.85 -0.3
L -7.5 -1.35
M 7 -0.4
Q 7.05703125 -0.362109375 7.05 -0.35 7.6 0.34765625 7.6 1.5 8.15 2.55 8.35 1.5 8.5716796875 0.644921875 8.85 -0.85
L 8.1 0.2 7 -0.4 Z"/>

<path fill="#FFFFFF" stroke="none" d="
M -9.15 -2.45
Q -8.9525390625 -1.584375 -8.8 -0.85
L -7.5 -1.35 -6.85 -0.3
Q -6.546875 -0.8646484375 -6 -1.15 -4.75 -1.75 -4.15 -2.15 -6.25 -1.75 -9.15 -2.45
M 6.55 -0.8
Q 6.8232421875 -0.630859375 7 -0.4
L 8.1 0.2 8.85 -0.85
Q 9.0166015625 -1.7185546875 9.2 -2.8
L 4.15 -2.15
Q 5.5 -1.5 6.55 -0.8 Z"/>
</g>

<g id="Duplicate_Items_Folder_head_0_Layer2_0_FILL">
<path fill="#000000" stroke="none" d="
M 17.95 -7.95
Q 17.25 -8.85 16.35 -9.65 11.35 -14.2 3 -14.85 -5.35 -15.45 -11.35 -10.7 -14.25 -8.4 -15.5 -5.5 -16.8 -2.4 -16.15 1.4 -15.85 3 -15.5 4.45 -14.1 9.2 -10.75 12.65 -10.4 13 -10.05 13.3 -10 13.4 -9.9 13.5 -9.15 14.15 -4.85 14.65 -2.35 14.95 0.2 14.8 2.751171875 14.7017578125 4 14.65
L 3.9 14.7
Q 4.6 14.8 6.05 14.75 12.7 14.3 15.65 11.75 18.6 9.15 19.85 2.7 20.8 -2.05 19.4 -5.5 19.05 -6.25 18.65 -6.9 18.3 -7.45 17.95 -7.95
M 17.35 -5.95
Q 17.6 -5.7 17.75 -5.35 19.25 -2.65 18.85 0.8 18.75 1.35 18.65 1.95 17.25 8.3 14.3 10.75 11.25 13.2 8.35 13.5 6.033203125 13.735546875 5 13.55
L 2.25 13.5
Q 0.6607421875 13.5607421875 -1.7 13.7 -4.0037109375 13.8462890625 -7.4 12.8 -7.65 12.7 -7.95 12.6 -8.3 12.7 -9.45 11.6 -14.05 7.2 -14.5 1.25 -14.5 1.1 -14.5 0.95 -14.6 -1 -14.15 -2.7 -13.2 -6.55 -9.55 -9.4 -4.2 -13.6 3.15 -13.05 10.55 -12.45 15.25 -8.4 16.1 -7.7 16.7 -6.9 17.05 -6.45 17.35 -5.95 Z"/>

<path fill="#FF0000" stroke="none" d="
M 18.85 0.8
Q 19.25 -2.65 17.75 -5.35 -3.2703125 -16.213671875 -14.15 -2.7 -14.6 -1 -14.5 0.95 -14.5 1.1 -14.5 1.25 1.9390625 21.5380859375 18.85 0.8 Z"/>

<path fill="#CC0000" stroke="none" d="
M 14.3 10.75
Q 17.25 8.3 18.65 1.95 18.75 1.35 18.85 0.8 1.9390625 21.5380859375 -14.5 1.25 -14.05 7.2 -9.45 11.6 -8.3 12.7 -7.95 12.6 -7.65 12.7 -7.4 12.8 -4.0037109375 13.8462890625 -1.7 13.7 0.6607421875 13.5607421875 2.25 13.5
L 5 13.55
Q 6.033203125 13.735546875 8.35 13.5 11.25 13.2 14.3 10.75 Z"/>

<path fill="#FE9292" stroke="none" d="
M 17.75 -5.35
Q 17.6 -5.7 17.35 -5.95 17.05 -6.45 16.7 -6.9 16.1 -7.7 15.25 -8.4 10.55 -12.45 3.15 -13.05 -4.2 -13.6 -9.55 -9.4 -13.2 -6.55 -14.15 -2.7 -3.2703125 -16.213671875 17.75 -5.35 Z"/>
</g>

<g id="Duplicate_Items_Folder_head_0_Layer1_0_FILL">
<path fill="#C1C1C1" stroke="none" d="
M 3.6 -13.25
L 2.65 -13.05 1.3 -5.1
Q 0 -7.25 -0.75 -7.9 -0.85 -8.05 -1 -8.25 -1.35 -8.9 -1.15 -10.3 -1.1 -11.45 -0.25 -12.55
L -0.85 -12.45
Q -1.8 -11.2 -1.95 -10.05 -2.15 -8.1 -1.35 -7.4 -1.3 -7.3 -1.1 -7.25 -0.15 -6.5 1.5 -4.65 3.1 -8.85 3.6 -13.25 Z"/>

<path fill="#000000" stroke="none" d="
M 1.9 -13.65
L 1.85 -13.6 0.8 -13.75
Q 0.15 -13.15 -0.25 -12.55 -1.1 -11.45 -1.15 -10.3 -1.35 -8.9 -1 -8.25 -0.85 -8.05 -0.75 -7.9 0 -7.25 1.3 -5.1
L 2.65 -13.05 2.7 -13.55 1.9 -13.65
M 0.35 -12.65
Q 0.65 -13.05 1 -13.45
L 1.8 -13.35 2.3 -13.25
Q 2.25 -13.2 2.15 -13 0.5 -9.4 0.95 -6.4 0.45 -8.35 -0.05 -8.75 -0.3 -8.95 -0.4 -9.25 -0.55 -9.75 -0.4 -10.7 -0.3 -11.7 0.35 -12.65 Z"/>

<path fill="#FFCCFF" stroke="none" d="
M 1.8 -13.35
Q 1.55 -13.15 1.25 -12.85 0.55 -11.8 -0.4 -9.25 -0.3 -8.95 -0.05 -8.75 0.45 -8.35 0.95 -6.4 0.5 -9.4 2.15 -13 2.25 -13.2 2.3 -13.25
L 1.8 -13.35 Z"/>

<path fill="#336699" stroke="none" d="
M 1.25 -12.85
Q 1.55 -13.15 1.8 -13.35
L 1 -13.45
Q 0.65 -13.05 0.35 -12.65 -0.3 -11.7 -0.4 -10.7 -0.55 -9.75 -0.4 -9.25 0.55 -11.8 1.25 -12.85 Z"/>
</g>

<g id="Duplicate_Items_Folder_head_0_Layer0_0_FILL">
<path fill="#000000" stroke="none" d="
M 3.95 -7.55
L 3.45 -7.65 0.9 -6.65 -1.55 -7.05 -2.05 -6.85 0.4 -6.45 -2.3 -5.35 -1.8 -5.3 0.9 -6.4 3.4 -6 3.8 -6.1 1.3 -6.55 3.95 -7.55
M 4.1 -10.4
L 3.7 -10.55 0.75 -9.8 -1.65 -10.55 -2.3 -10.45 0.15 -9.7 -3 -8.9 -2.5 -8.75 0.6 -9.55 3 -8.8 3.5 -8.85 1 -9.65 4.1 -10.4
M 1.6 -12.6
L 4.3 -13.3 4 -13.45 1.3 -12.7 -0.5 -13.5 -1 -13.35 0.8 -12.65 -1.95 -11.85 -1.65 -11.75 1.15 -12.45 3.05 -11.7 3.5 -11.8 1.6 -12.6 Z"/>
</g>

<g id="ear_0_Layer0_0_FILL">
<path fill="url(#Gradient_13)" stroke="none" d="
M 7.1 -5.5
Q 7.05 -5.9 7.05 -5.65 0.3 -4.35 -4.4 -1.95 -8.2056640625 -0.0470703125 -7.2 0.95 -6.90078125 1.203125 -6.3 1.4 0.45 2.55 4.75 7.2 4.808203125 7.1025390625 4.85 7 8.4287109375 0.89765625 7.1 -5.5 Z"/>

<path fill="#000000" stroke="none" d="
M 8.85 -7.85
Q 8.75 -8.3 8.75 -8 0.3 -6.4 -5.6 -3.4 -11.55 -0.4 -7.95 0.8 -7.55703125 0.8673828125 -7.2 0.95 -8.2056640625 -0.0470703125 -4.4 -1.95 0.3 -4.35 7.05 -5.65 7.05 -5.9 7.1 -5.5 8.4287109375 0.89765625 4.85 7 5.3958984375 7.50859375 5.9 8.05 10.5 0.3 8.85 -7.85 Z"/>
</g>

<g id="Duplicate_Items_Folder_missing_ear_0_Layer0_0_FILL">
<path fill="url(#Gradient_14)" stroke="none" d="
M 0.45 5.7
Q 0.2763671875 5.8607421875 0.1 5.95 0.24296875 6.05078125 0.35 6.1 0.4091796875 5.9267578125 0.45 5.7
M 7.6 -1.95
Q 8.15 -2.3 8.35 -2.55 9.1 -3.85 4.85 -4.6 -0.35 -5.55 -7.2 -4.9
L -7.15 -4.75
Q -6.6587890625 1.14453125 0 5.9 0.19375 5.794921875 0.5 5.6 2.1908203125 0.710546875 7.6 -1.95 Z"/>

<path fill="#000000" stroke="none" d="
M 4.85 -4.6
Q 9.1 -3.85 8.35 -2.55 8.7 -2.8 9.1 -2.95 12.15 -5.15 5.6 -6.35 -0.9 -7.5 -9.45 -6.65 -9.55 -6.95 -9.55 -6.45 -8.75 1.8 -0.05 9.05
L 0.3 6.85
Q -0.7154296875 6.7603515625 -0.1 6.15 0.033203125 6.1763671875 0.35 6.1 0.24296875 6.05078125 0.1 5.95 0.2763671875 5.8607421875 0.45 5.7 0.9029296875 5.4509765625 1.55 5.1 0.9064453125 5.4091796875 0.5 5.6 0.19375 5.794921875 0 5.9 -6.6587890625 1.14453125 -7.15 -4.75
L -7.2 -4.9
Q -0.35 -5.55 4.85 -4.6 Z"/>
</g>

<g id="Duplicate_Items_Folder_eye_copy_3_0_Layer0_0_FILL">
<path fill="#000000" stroke="none" d="
M 59.1 11.65
Q 52.5 2.6 43.55 4.4 34.55 6.15 18.9 13.95 3.25 21.75 2.45 35 1.65 48.25 12.4 56.85 23.15 65.4 37.4 66.55 51.65 67.7 57.05 57.7 62.4 47.65 64.05 34.1 65.65 20.65 59.1 11.65
M 43.45 6.35
Q 51.75 4.65 57.9 13.1 64 21.45 62.5 34 61 46.6 56 55.95 51 65.25 37.7 64.2 24.45 63.1 14.45 55.15 4.45 47.15 5.2 34.8 5.95 22.5 20.5 15.25 35.05 8 43.45 6.35
M 55.75 15
Q 50.15 7.35 42.55 8.85 34.95 10.35 21.6 16.95 8.35 23.6 7.65 34.8 7 46.1 16.15 53.4 25.25 60.65 37.35 61.65 49.45 62.6 54 54.1 58.55 45.55 59.95 34.1 61.3 22.65 55.75 15 Z"/>

<path fill="#FFFFFF" stroke="none" d="
M 57.9 13.1
Q 51.75 4.65 43.45 6.35 35.05 8 20.5 15.25 5.95 22.5 5.2 34.8 4.45 47.15 14.45 55.15 24.45 63.1 37.7 64.2 51 65.25 56 55.95 61 46.6 62.5 34 64 21.45 57.9 13.1
M 42.55 8.85
Q 50.15 7.35 55.75 15 61.3 22.65 59.95 34.1 58.55 45.55 54 54.1 49.45 62.6 37.35 61.65 25.25 60.65 16.15 53.4 7 46.1 7.65 34.8 8.35 23.6 21.6 16.95 34.95 10.35 42.55 8.85 Z"/>
</g>

<g id="nose_0_Layer0_0_FILL">
<path fill="#000000" stroke="none" d="
M 2.45 -2.55
Q 2.1 -2.8 1.25 -2.2 0.6 -1.15 0.3 -1.85 -0.05 -2.55 -1.45 -2.95 -3 -3.3 -3.05 -1.5
L 0.2 1.85 1.1 1.05 4.15 -0.9
Q 4.25 -2.1 2.45 -2.55 Z"/>
</g>

<g id="stitch_0_Layer0_0_FILL">
<path fill="#000000" stroke="none" d="
M -4.95 2.6
L -5.05 1.15
Q -5.3880859375 1.196484375 -5.75 1.25
L -5.65 2.6 -4.95 2.6
M -5.25 -2.4
L -5.3 -3 -6 -3 -5.85 -0.75
Q -7.65 -0.45 -9.45 -0.2
L -9.45 0.55 -9.4 0.55 -9.4 1.1
Q -9.0509765625 1.0515625 -8.7 1
L -8.7 0.4
Q -6.905078125 0.130859375 -5.1 -0.2
L -5.25 -2.4
M 1.15 0
Q 0.8837890625 0.06953125 0.6 0.1
L 1.25 3.4 1.5 3.35 1.5 3.4 1.85 3.25 1.15 0
M 7 -1.25
Q 6.7607421875 -1.1859375 6.5 -1.15
L 7 0.75 7.2 0.6 7.25 0.75 7.5 0.5 7 -1.25
M 7.3 -3.45
L 7.5 -2.7
Q 9.073828125 -3.08046875 10.65 -3.5
L 10.6 -4.25
Q 8.9322265625 -3.822265625 7.3 -3.45
M 1.55 -2.2
L 1.7 -1.45
Q 4.2009765625 -1.9380859375 6.65 -2.5
L 5.8 -5.6 6.1 -5.6 5.95 -6.2 5.05 -6.2 5.95 -3.1
Q 3.74609375 -2.6150390625 1.55 -2.2
M 0.9 -1.3
L 0.6 -2.8 0.8 -2.8 0.7 -3.4 -0.15 -3.4 0.15 -1.85
Q -2.15078125 -1.4158203125 -4.45 -1.05
L -4.4 -0.3
Q -1.758984375 -0.7458984375 0.9 -1.3 Z"/>

<path fill="#FFFFFF" stroke="none" d="
M 1.45 -2.8
L 0.8 -2.8 0.6 -2.8 0.9 -1.3
Q -1.758984375 -0.7458984375 -4.4 -0.3
L -4.45 -1.05 -4.55 -2.4 -5.25 -2.4 -5.1 -0.2
Q -6.905078125 0.130859375 -8.7 0.4
L -8.7 1 -8.7 1.15 -8.65 1.15 -8.65 1.7
Q -7.1806640625 1.4900390625 -5.75 1.25 -5.3880859375 1.196484375 -5.05 1.15
L -5.05 1.15 -4.9 3.2 -4.2 3.2 -4.35 1
Q -1.8642578125 0.615625 0.6 0.1 0.8837890625 0.06953125 1.15 0
L 1.85 3.25 2 4 2.25 3.95 2.25 4 2.8 3.8 2 -0.15
Q 4.2482421875 -0.607421875 6.5 -1.15 6.7607421875 -1.1859375 7 -1.25
L 7.5 0.5 7.75 1.35 7.95 1.2 8 1.35 8.5 0.9 7.85 -1.45
Q 9.6515625 -1.880078125 11.45 -2.35
L 11.35 -3.65
Q 11.0048828125 -3.5625 10.65 -3.5 9.073828125 -3.08046875 7.5 -2.7
L 7.3 -3.45 6.7 -5.6 6.1 -5.6 5.8 -5.6 6.65 -2.5
Q 4.2009765625 -1.9380859375 1.7 -1.45
L 1.55 -2.2 1.45 -2.8 Z"/>
</g>
</defs>

<g filter="url(#Filter_1)" transform="matrix( 1, 0, 0, 1, 0,0) ">
<g transform="matrix( 1, 0, 0, 1, 17.9,48.8) ">
<g transform="matrix( 5.78546142578125, 0, 0, 5.78546142578125, 218.75,383.2) ">
<g transform="matrix( 1, 0, 0, 1, 0,0) ">
<use xlink:href="#leg_3_0_Layer2_0_FILL"/>
</g>

<g transform="matrix( 1, 0, 0, 1, 0,0) ">
<use xlink:href="#leg_3_0_Layer0_0_FILL"/>
</g>
</g>

<g transform="matrix( 5.78546142578125, 0, 0, 5.78546142578125, 305.9,389.65) ">
<g transform="matrix( 1, 0, 0, 1, 0,0) ">
<use xlink:href="#leg_3_0_Layer2_0_FILL"/>
</g>

<g transform="matrix( 1, 0, 0, 1, 0,0) ">
<use xlink:href="#leg_3_0_Layer0_0_FILL"/>
</g>
</g>

<g transform="matrix( 7.0018768310546875, 0, 0, 7.0018768310546875, 425.55,203.85) ">
<g transform="matrix( 1, 0, 0, 1, 0,0) ">
<use xlink:href="#tail_0_Layer1_0_FILL"/>
</g>

<g transform="matrix( 1, 0, 0, 1, 0,0) ">
<use xlink:href="#tail_0_Layer0_0_FILL"/>
</g>
</g>

<g transform="matrix( 6.9700164794921875, 0.643890380859375, -0.643890380859375, 6.9700164794921875, 297.85,343.5) ">
<g transform="matrix( 1, 0, 0, 1, 0,0) ">
<use xlink:href="#stand_body_0_Layer5_0_FILL"/>
</g>

<g transform="matrix( 1, 0, 0, 1, 0,0) ">
<use xlink:href="#stand_body_0_Layer4_0_FILL"/>
</g>

<g transform="matrix( 1, 0, 0, 1, 0,0) ">
<use xlink:href="#stand_body_0_Layer3_0_FILL"/>
</g>

<g transform="matrix( 1, 0, 0, 1, 0,0) ">
<use xlink:href="#stand_body_0_Layer2_0_FILL"/>
</g>

<g transform="matrix( 1, 0, 0, 1, 0,0) ">
<use xlink:href="#stand_body_0_Layer1_0_FILL"/>
</g>

<g transform="matrix( 1, 0, 0, 1, 0,0) ">
<use xlink:href="#stand_body_0_Layer0_0_FILL"/>
</g>
</g>

<g transform="matrix( 7.0018768310546875, 0, 0, 7.0018768310546875, 247.5,397.4) ">
<g transform="matrix( 1, 0, 0, 1, 0,0) ">
<use xlink:href="#leg_3_0_Layer2_0_FILL"/>
</g>

<g transform="matrix( 1, 0, 0, 1, 0,0) ">
<use xlink:href="#leg_3_0_Layer0_0_FILL"/>
</g>
</g>

<g transform="matrix( 6.8106842041015625, 0, 0, 5.918914794921875, 353.15,408.5) ">
<g transform="matrix( 1, 0, 0, 1, 0,0) ">
<use xlink:href="#leg_3_0_Layer2_0_FILL"/>
</g>

<g transform="matrix( 1, 0, 0, 1, 0,0) ">
<use xlink:href="#leg_3_0_Layer0_0_FILL"/>
</g>
</g>

<g transform="matrix( 6.9462890625, -0.857696533203125, 0.857696533203125, 6.9462890625, 30.65,99.3) "/>

<g transform="matrix( 6.9462890625, -0.857696533203125, 0.857696533203125, 6.9462890625, 194.55,264.45) ">
<g transform="matrix( 1, 0, 0, 1, 0,0) ">
<use xlink:href="#Duplicate_Items_Folder_chin_0_Layer0_0_FILL"/>
</g>
</g>

<g transform="matrix( 6.9462890625, -0.857696533203125, 0.857696533203125, 6.9462890625, 193.85,289) ">
<g transform="matrix( 1, 0, 0, 1, 0,0) ">
<use xlink:href="#Duplicate_Items_Folder_teeth_0_Layer0_0_FILL"/>
</g>
</g>

<g transform="matrix( 6.9462890625, -0.857696533203125, 0.857696533203125, 6.9462890625, 175.9,171.75) ">
<g transform="matrix( 1, 0, 0, 1, 0,0) ">
<use xlink:href="#Duplicate_Items_Folder_head_0_Layer2_0_FILL"/>
</g>

<g transform="matrix( 1, 0, 0, 1, 0,0) ">
<use xlink:href="#Duplicate_Items_Folder_head_0_Layer1_0_FILL"/>
</g>

<g transform="matrix( 1, 0, 0, 1, 0,0) ">
<use xlink:href="#Duplicate_Items_Folder_head_0_Layer0_0_FILL"/>
</g>
</g>

<g transform="matrix( 6.9462890625, -0.857696533203125, 0.857696533203125, 6.9462890625, 256.55,64.25) ">
<g transform="matrix( 1, 0, 0, 1, 0,0) ">
<use xlink:href="#ear_0_Layer0_0_FILL"/>
</g>
</g>

<g transform="matrix( 6.947998046875, 0.84344482421875, -0.84344482421875, 6.947998046875, 74,98.65) ">
<g transform="matrix( 1, 0, 0, 1, 0,0) ">
<use xlink:href="#Duplicate_Items_Folder_missing_ear_0_Layer0_0_FILL"/>
</g>
</g>

<g transform="matrix( 2.0416717529296875, -0.252105712890625, 0.252105712890625, 2.0416717529296875, 48.55,103.1) ">
<g transform="matrix( 1, 0, 0, 1, 0,0) ">
<use xlink:href="#Duplicate_Items_Folder_eye_copy_3_0_Layer0_0_FILL"/>
</g>
</g>

<g transform="matrix( 6.9462890625, -0.857696533203125, 0.857696533203125, 6.9462890625, 181.25,236.8) ">
<g transform="matrix( 1, 0, 0, 1, 0,0) ">
<use xlink:href="#nose_0_Layer0_0_FILL"/>
</g>
</g>

<g transform="matrix( -1.82305908203125, 0.2250823974609375, 0.2250823974609375, 1.82305908203125, 295,82.8) ">
<g transform="matrix( 1, 0, 0, 1, 0,0) ">
<use xlink:href="#Duplicate_Items_Folder_eye_copy_3_0_Layer0_0_FILL"/>
</g>
</g>

<g transform="matrix( 4.5770263671875, -0.56512451171875, 0.63360595703125, 5.1316070556640625, 253.45,57.6) ">
<g transform="matrix( 1, 0, 0, 1, 0,0) ">
<use xlink:href="#stitch_0_Layer0_0_FILL"/>
</g>
</g>
</g>
</g>
</svg>
