
<svg xmlns="http://www.w3.org/2000/svg" version="1.1" xmlns:xlink="http://www.w3.org/1999/xlink" preserveAspectRatio="none" x="0px" y="0px" width="560px" height="544px" viewBox="0 0 560 544">
<defs>
<g id="Duplicate_Items_Folder_ear_copy_4_0_Layer0_0_FILL">
<path fill="#000000" stroke="none" d="
M 1 0
L 0.1 2.7
Q -0.55 4.9 2.4 11.5 5.35 18.2 19.25 19.6
L 1 0
M 0.95 2.35
L 1.2 1.6
Q 1.25 1.7 1.3 1.7 1.65 2.25 2.1 2.75
L 14.65 16.6 16.25 18.1
Q 16.55 18.3 16.85 18.6 16.75 18.6 16.7 18.6 16.35 18.5 16.05 18.4 6.3 15.8 3.75 10.95 1.05 5.85 0.65 3.2
L 0.95 2.35 Z"/>

<path fill="#FFA8D3" stroke="none" d="
M 0.65 3.2
Q 1.05 5.85 3.75 10.95 6.3 15.8 16.05 18.4 14.05 17.75 10.2 14.05 6.3 10.4 0.95 2.35
L 0.65 3.2 Z"/>

<path fill="#FFC6E2" stroke="none" d="
M 1.2 1.6
L 0.95 2.35
Q 6.3 10.4 10.2 14.05 14.05 17.75 16.05 18.4 16.35 18.5 16.7 18.6 16.75 18.6 16.85 18.6 16.55 18.3 16.25 18.1
L 14.65 16.6 2.1 2.75
Q 1.65 2.25 1.3 1.7 1.25 1.7 1.2 1.6 Z"/>
</g>

<g id="Duplicate_Items_Folder_body_copy_2_0_Layer0_0_FILL">
<path fill="#000000" stroke="none" d="
M 4 6.45
Q 0.1 12.75 0 16.5 -0.05 20.15 0.8 20.4
L 0.8 20.5
Q 5.3546875 30.1556640625 22.5 26.5
L 26.8 27.6
Q 31.45625 28.846875 39.25 27.3 47.03125 25.809375 45.15 17.4 43.28125 9.040625 36.75 4.4 30.20625 -0.196875 19.05 0 7.9 0.15 4 6.45
M 5.75 7
Q 9.25 1.25 19.45 1.1 29.5484375 0.95078125 35.5 5.3 41.4546875 9.69765625 43.45 17.1 45.4453125 24.50234375 38.1 25.9 30.7515625 27.29921875 25.1 25.9
L 22.05 25.3
Q 5.0658203125 28.3171875 2.8 19.75
L 2.8 19.65
Q 2.05 19.45 2.1 16.1 2.15 12.75 5.75 7 Z"/>

<path fill="#FFCEE7" stroke="none" d="
M 19.45 1.1
Q 9.25 1.25 5.75 7 2.15 12.75 2.1 16.1 2.05 19.45 2.8 19.65
L 2.8 19.75
Q 5.0658203125 28.3171875 22.05 25.3
L 25.1 25.9
Q 30.7515625 27.29921875 38.1 25.9 45.4453125 24.50234375 43.45 17.1 41.4546875 9.69765625 35.5 5.3 29.5484375 0.95078125 19.45 1.1 Z"/>
</g>

<g id="Duplicate_Items_Folder_tail_copy_5_0_Layer0_0_FILL">
<path fill="#000000" stroke="none" d="
M 11.9 3.6
Q 11.9 2.75 11.15 2.05 10.35 1.45 9.3 1.45 9.05 1.45 8.8 1.5 8.65 1.2 8.35 0.95 7.45 0 6.2 0 5 0 4.1 0.8 3.15 0.8 2.45 1.55 1.65 2.3 1.65 3.4 1.65 3.95 1.9 4.45 1.3 4.6 0.8 5.05 0 5.8 0 6.9 0 7.95 0.8 8.7 1.1 9 1.4 9.15 1.35 9.55 1.35 10 1.35 11.35 2.1 12.25 2.85 13.2 3.95 13.2 5.1 13.2 5.85 12.35 6.75 13.05 7.95 13.05 9.45 13.05 10.55 11.85 11.55 10.8 11.7 9.4 11.9 9.2 12.1 9 13 8.2 13 7.05 13 5.95 12.1 5.15 11.85 4.9 11.55 4.7 11.9 4.2 11.9 3.6
M 10.75 5.2
Q 11.05 5.3 11.25 5.55 11.95 6.2 11.95 7.15 11.95 8.05 11.25 8.7 11.05 8.9 10.9 9.05 10.75 10.2 10 11 9.1 12.05 7.85 12.05 6.9 12.05 6.15 11.45 5.5 12.15 4.6 12.15 3.7 12.15 3.05 11.35 2.4 10.6 2.4 9.55 2.4 9.15 2.5 8.8 2.2 8.7 2 8.5 1.35 7.85 1.35 7 1.35 6.1 2 5.5 2.4 5.15 2.85 5 2.7 4.6 2.7 4.1 2.7 3.25 3.35 2.6 3.95 2.05 4.7 1.95 5.45 1.4 6.4 1.4 7.45 1.4 8.2 2.15 8.4 2.3 8.55 2.6 8.75 2.55 8.9 2.55 9.8 2.55 10.4 3.1 11.05 3.6 11.05 4.3 11.05 4.8 10.75 5.2 Z"/>

<path fill="#FF9BCD" stroke="none" d="
M 11.25 5.55
Q 11.05 5.3 10.75 5.2 11.05 4.8 11.05 4.3 11.05 3.6 10.4 3.1 9.8 2.55 8.9 2.55 8.75 2.55 8.55 2.6 8.4 2.3 8.2 2.15 7.45 1.4 6.4 1.4 5.45 1.4 4.7 1.95 3.95 2.05 3.35 2.6 2.7 3.25 2.7 4.1 2.7 4.6 2.85 5 2.4 5.15 2 5.5 1.35 6.1 1.35 7 1.35 7.85 2 8.5 2.2 8.7 2.5 8.8 2.4 9.15 2.4 9.55 2.4 10.6 3.05 11.35 3.7 12.15 4.6 12.15 5.5 12.15 6.15 11.45 6.9 12.05 7.85 12.05 9.1 12.05 10 11 10.75 10.2 10.9 9.05 11.05 8.9 11.25 8.7 11.95 8.05 11.95 7.15 11.95 6.2 11.25 5.55 Z"/>
</g>

<g id="Duplicate_Items_Folder_nose_copy_4_0_Layer0_0_FILL">
<path fill="#000000" stroke="none" d="
M 4.1 1.2
Q 4 0.15 2.75 0.05 1.55 -0.15 0.55 0.75 -0.55 1.55 0.5 3.25 1.5 5 2.3 5.85 3.1 6.85 3.55 6.55 4 6.2 4.25 5.45 4.45 4.6 4.3 3.4 4.15 2.15 4.1 1.2
M 2.7 0.95
Q 3.2 1.05 3.3 1.75 3.4 2.4 3.65 3.25 3.85 4.1 3.75 4.7 3.5 5.25 3.35 5.4 3.1 5.6 2.95 4.9 2.75 4.2 1.65 3.05 0.5 1.95 1.35 1.4 2.15 0.85 2.7 0.95 Z"/>

<path fill="#990000" stroke="none" d="
M 3.3 1.75
Q 3.2 1.05 2.7 0.95 2.15 0.85 1.35 1.4 0.5 1.95 1.65 3.05 2.75 4.2 2.95 4.9 3.1 5.6 3.35 5.4 3.5 5.25 3.75 4.7 3.85 4.1 3.65 3.25 3.4 2.4 3.3 1.75 Z"/>
</g>

<g id="Duplicate_Items_Folder_pupil_copy_5_0_Layer0_0_FILL">
<path fill="#FFFFFF" stroke="none" d="
M 0.4 2.75
Q 0.85 3.2 1.4 3.2 2 3.2 2.4 2.75 2.85 2.25 2.85 1.6 2.85 0.9 2.4 0.45 2 0 1.4 0 0.85 0 0.4 0.45 0 0.9 0 1.6 0 2.25 0.4 2.75 Z"/>
</g>

<g id="Duplicate_Items_Folder_front_leg_copy_2_0_Layer0_0_FILL">
<path fill="#FFCEE7" stroke="none" d="
M 7.3 0.7
Q 6.65 0.45 5.35 1.1 4.05 1.7 2.85 2.35 1.6 3 1.4 4.3 1.2 5.6 2.3 5.95 3.4 6.3 4.9 5.05 6.35 3.8 8.9 3.05
L 8 1.4 7.65 1.45
Q 7.5 1.05 7.3 0.7 Z"/>

<path fill="#000000" stroke="none" d="
M 6 5.9
Q 7.3 4.85 8.65 4.45
L 8.9 3.05
Q 6.35 3.8 4.9 5.05 3.4 6.3 2.3 5.95 1.2 5.6 1.4 4.3 1.6 3 2.85 2.35 4.05 1.7 5.35 1.1 6.65 0.45 7.3 0.7 6.6 -0.3 4.95 0.15 2.8 0.7 1.3 2 -0.25 3.25 0.05 4.85 0.3 6.4 2.2 7 3.95 7.6 6 5.9 Z"/>
</g>

<g id="Duplicate_Items_Folder_back_leg_copy_3_0_Layer0_0_FILL">
<path fill="#000000" stroke="none" d="
M 16.3 9.05
Q 14.2 9.85 13.45 10.7 13.05 11.15 12.95 12.5 9.45 11.65 8.25 12.3 7 12.9 6.15 13.4 5.2 13.9 3.5 14 1.8 14.15 1.5 12.65 1.25 11.2 2.9 10.75 4.5 10.25 6.2 10.2 5.85 9.65 5.2 8.95 4.55 8.25 4.4 6.55 4.2 4.85 5.95 3.25 6.1 3.05 6.35 2.95 7.35 2.15 8.6 1.85
L 8.6 0
Q 7.4 0.25 6.35 0.9 5.7 1.25 5.15 1.8 3.05 3.75 3.05 6.5 3.05 7.9 3.8 8.65 4.5 9.35 3.45 9.5 2.35 9.65 1.4 10.1 0.4 10.55 0.05 12.05 -0.3 13.55 1.8 14.65 3.85 15.8 6.35 14.45
L 6.35 14.4
Q 10.6 12.5 13.45 14.3
L 14.35 12.9
Q 14.6 12.35 15.45 11.35 16.3 10.3 16.85 9.2
L 16.3 9.05 Z"/>

<path fill="#FFCEE7" stroke="none" d="
M 14.35 6.05
Q 14.25 5.8 12.35 4.2 11.1 2.7 8.6 1.85 7.35 2.15 6.35 2.95 6.1 3.05 5.95 3.25 4.2 4.85 4.4 6.55 4.55 8.25 5.2 8.95 5.85 9.65 6.2 10.2 4.5 10.25 2.9 10.75 1.25 11.2 1.5 12.65 1.8 14.15 3.5 14 5.2 13.9 6.15 13.4 7 12.9 8.25 12.3 9.45 11.65 12.95 12.5 13.05 11.15 13.45 10.7 14.2 9.85 16.3 9.05
L 16.2 8.85
Q 15.85 7 14.35 6.05 Z"/>
</g>

<g id="Duplicate_Items_Folder_eye_copy_3_0_Layer1_0_FILL">
<path fill="#FF4FA7" stroke="none" d="
M 9.05 3.3
Q 8.25 1.75 5.6 0.35 3.15 -0.85 2 -0.85 0.9 -0.85 0.35 2.05 -0.35 4.95 0.1 8 0.65 11.05 3.6 11.8 6.6 12.4 10.65 11.55 10.55 9.7 10.25 8.05 9.75 4.7 9.05 3.3 Z"/>
</g>

<g id="Duplicate_Items_Folder_eye_copy_3_0_Layer0_0_FILL">
<path fill="#000000" stroke="none" d="
M 1.8 0
Q 0.85 0 0.35 2.55 -0.25 5.15 0.15 7.85 0.6 10.55 3.25 11.2 5.9 11.75 9.5 11 9.4 9.35 9.15 7.9 8.7 4.9 8.1 3.65 7.35 2.3 5 1.05 2.85 0 1.8 0
M 1.1 3.45
Q 1.2 2.65 1.45 2.2 1.8 1.25 2.25 1.25 3.15 1.25 4.9 2.15 6.8 3.1 7.35 4.2 7.8 5.2 8.15 7.3
L 8.1 7.3
Q 8.15 7.5 8.2 7.8 8.4 8.95 8.45 9.9 8.4015625 9.9 8.4 9.95
L 8.4 10.1
Q 5.65 10.85 3.35 9.85 1.55 9.1 0.95 7.85
L 0.85 7.25
Q 0.85 7.2 0.8 7.15 0.8 6.9 0.8 6.8 0.7 5.25 1.1 3.45 Z"/>

<path fill="#9D0000" stroke="none" d="
M 0.95 7.85
Q 1.55 9.1 3.35 9.85 5.65 10.85 8.4 10.1
L 8.4 9.95
Q 8.399609375 9.6978515625 8.35 9.35 4.9 9.7 0.8 6.8 0.8 6.9 0.8 7.15 0.85 7.2 0.85 7.25
L 0.95 7.85
M 2.25 1.25
Q 1.8 1.25 1.45 2.2 5.15 2.7 8.1 7.3
L 8.15 7.3
Q 7.8 5.2 7.35 4.2 6.8 3.1 4.9 2.15 3.15 1.25 2.25 1.25 Z"/>

<path fill="#CC0000" stroke="none" d="
M 1.45 2.2
Q 1.2 2.65 1.1 3.45 0.7 5.25 0.8 6.8 4.9 9.7 8.35 9.35 8.399609375 9.6978515625 8.4 9.95 8.4015625 9.9 8.45 9.9 8.4 8.95 8.2 7.8 8.15 7.5 8.1 7.3 5.15 2.7 1.45 2.2 Z"/>
</g>
</defs>

<g transform="matrix( 6.46905517578125, 3.8567962646484375, -3.8567962646484375, 6.46905517578125, 192.8,81.5) ">
<g transform="matrix( 1, 0, 0, 1, 0,0) ">
<use xlink:href="#Duplicate_Items_Folder_ear_copy_4_0_Layer0_0_FILL"/>
</g>
</g>

<g transform="matrix( 9.127548217773438, 0, 0, 9.127548217773438, 78.25,217.9) ">
<g transform="matrix( 1, 0, 0, 1, 0,0) ">
<use xlink:href="#Duplicate_Items_Folder_body_copy_2_0_Layer0_0_FILL"/>
</g>
</g>

<g transform="matrix( 9.127548217773438, 0, 0, 9.127548217773438, 34.45,110.25) ">
<g transform="matrix( 1, 0, 0, 1, 0,0) ">
<use xlink:href="#Duplicate_Items_Folder_ear_copy_4_0_Layer0_0_FILL"/>
</g>
</g>

<g transform="matrix( 9.127548217773438, 0, 0, 9.127548217773438, 415.05,351.6) ">
<g transform="matrix( 1, 0, 0, 1, 0,0) ">
<use xlink:href="#Duplicate_Items_Folder_tail_copy_5_0_Layer0_0_FILL"/>
</g>
</g>

<g transform="matrix( 9.127548217773438, 0, 0, 9.127548217773438, 60.9,352.95) ">
<g transform="matrix( 1, 0, 0, 1, 0,0) ">
<use xlink:href="#Duplicate_Items_Folder_nose_copy_4_0_Layer0_0_FILL"/>
</g>
</g>

<g transform="matrix( 9.127548217773438, 0, 0, 9.127548217773438, 131.65,332) ">
<g transform="matrix( 1, 0, 0, 1, 0,0) ">
<use xlink:href="#Duplicate_Items_Folder_pupil_copy_5_0_Layer0_0_FILL"/>
</g>
</g>

<g transform="matrix( 9.127548217773438, 0, 0, 9.127548217773438, 167.25,407.75) ">
<g transform="matrix( 1, 0, 0, 1, 0,0) ">
<use xlink:href="#Duplicate_Items_Folder_front_leg_copy_2_0_Layer0_0_FILL"/>
</g>
</g>

<g transform="matrix( 9.104415893554688, -0.313629150390625, 0.313629150390625, 9.104415893554688, 274.95,379) ">
<g transform="matrix( 1, 0, 0, 1, 0,0) ">
<use xlink:href="#Duplicate_Items_Folder_back_leg_copy_3_0_Layer0_0_FILL"/>
</g>
</g>

<g transform="matrix( 9.127548217773438, 0, 0, 9.127548217773438, 116.6,295) ">
<g transform="matrix( 1, 0, 0, 1, 0,0) ">
<use xlink:href="#Duplicate_Items_Folder_eye_copy_3_0_Layer1_0_FILL"/>
</g>

<g transform="matrix( 1, 0, 0, 1, 0,0) ">
<use xlink:href="#Duplicate_Items_Folder_eye_copy_3_0_Layer0_0_FILL"/>
</g>
</g>
</svg>
