
<svg xmlns="http://www.w3.org/2000/svg" version="1.1" xmlns:xlink="http://www.w3.org/1999/xlink" preserveAspectRatio="none" x="0px" y="0px" width="560px" height="544px" viewBox="0 0 560 544">
<defs>
<g id="Duplicate_Items_Folder_foot_copy_4_0_Layer0_0_FILL">
<path fill="#000000" stroke="none" d="
M 5.9 -15.05
Q 5.6349609375 -16.0306640625 4.45 -16.8 3.4119140625 -17.456640625 1.65 -17.95 0.4 -18.35 -0.65 -18.25 -2.9 -18.4 -4.35 -17.05 -6.8 -14.4 -7.25 -12.6 -7.65 -10.75 -8.2 -7
L -8.1 -5
Q -8.2 -4.5 -8.6 -3.5 -9.25 -2.25 -10.35 -0.3
L -10.85 0.5 -10.9 0.45 -12.4 2.7
Q -13.6447265625 6.473046875 -8.9 9.7 -7.5041015625 10.6619140625 -5.65 11.55 -5.45 11.6 -5.2 11.75 2.9 15.45 5.85 13.4 8.9 11.1 9.4 10.3 9.6 9.9 9.7 8.95
L 9.75 9
Q 9.75 8.7 9.8 8.35 9.85 7.9 9.8 7.55 9.78046875 6.48984375 9.8 5.3 9.7984375 5.216015625 9.8 5.1 9.8134765625 3.349609375 9.9 1.3 9.55 -1.65 8.8 -5.9 8 -10.05 7.3 -11.6 6.5 -13.1 5.9 -15.05
M 4.3 -14.3
Q 4.3796875 -14.115234375 4.45 -13.95 5.4 -11.68125 5.4 -10.8 5.35 -9.9 6.1 -7.1 6.8 -4.4 6.85 -1.05 6.8751953125 -0.9435546875 7.2 0.5 7.6474609375 2.3546875 7.8 4.35 7.8486328125 4.684375 7.05 10.2 -2.131640625 13.6541015625 -9.75 4.4
L -9.35 1.05 -9.25 1.1 -9.15 0.85 -9.25 0.75
Q -9.1984375 0.79921875 -9.1 0.75
L -6.3 -4.05 -6.05 -6.3
Q -5.65 -9 -5.45 -11.15
L -3.75 -14.75 -0.85 -17.05
Q -0.5 -17 0 -17 3.25 -16.85 4.3 -14.3 Z"/>

<path fill="#5B3835" stroke="none" d="
M 4.45 -13.95
Q 4.3796875 -14.115234375 4.3 -14.3 3.25 -16.85 0 -17 -0.5 -17 -0.85 -17.05
L -3.75 -14.75 -5.45 -11.15
Q -5.65 -9 -6.05 -6.3
L -6.3 -4.05 -9.1 0.75
Q -9.1984375 0.79921875 -9.25 0.75
L -9.15 0.85 -9.25 1.1 -9.35 1.05 -9.75 4.4
Q -2.131640625 13.6541015625 7.05 10.2 7.8486328125 4.684375 7.8 4.35 7.6474609375 2.3546875 7.2 0.5 6.8751953125 -0.9435546875 6.85 -1.05 6.8 -4.4 6.1 -7.1 5.35 -9.9 5.4 -10.8 5.4 -11.68125 4.45 -13.95 Z"/>
</g>

<g id="Duplicate_Items_Folder_arm__copy_5_0_Layer0_0_FILL">
<path fill="#613E30" stroke="none" d="
M -4.7 13.9
Q -5.658984375 13.13671875 -6.25 12.05 -5.6552734375 13.88671875 -4.7 13.9 Z"/>

<path fill="#000000" stroke="none" d="
M -7 7.2
L -7.05 9.1
Q -7.04765625 9.2046875 -7 9.3 -6.9212890625 10.1775390625 -6.7 10.95 -6.4978515625 11.494140625 -6.3 11.9
L -6.35 11.9
Q -6.280078125 11.98984375 -6.25 12.05 -6.7638671875 10.4125 -7 7.2
M -7.95 -16.6
Q -7.8833984375 -16.6400390625 -7.8 -16.7 -7.606640625 -16.8033203125 -7.35 -16.95 -5 -18.4 -3.25 -16.15 -1.4953125 -13.8990234375 -1.2 -12.9 -0.8640625 -11.853515625 0.7 -9.25 2.31875 -6.5955078125 3.55 -2.95 6.1140625 1.559375 7.55 5.95
L 8.15 7.9
Q 8.3802734375 8.21640625 6.75 10.75 5.122265625 13.2880859375 0.1 9.9 0.1970703125 12.5244140625 -0.7 12.9
L -0.7 12.95
Q -0.8380859375 13.0173828125 -1 13.1 -3.3861328125 13.92578125 -4.7 13.9 -4.0626953125 14.417578125 -3.25 14.8 -1.95 15.45 -0.25 15.7 -1.95 15.45 -3.25 14.8 -4.0626953125 14.417578125 -4.7 13.9 -5.6552734375 13.88671875 -6.25 12.05 -6.280078125 11.98984375 -6.35 11.9
L -6.3 11.9
Q -6.4978515625 11.494140625 -6.7 10.95 -6.9212890625 10.1775390625 -7 9.3 -7.05 9.25 -7.05 9.2
L -7.05 9.1 -7 7.2 -6.95 6.85 -7.05 6.8 -7.6 7.05
Q -7.5328125 7.2220703125 -7.5 7.4
L -7.8 7.15 -8.45 10.6
Q -7.5955078125 17.201171875 -3.85 16.8 -0.0634765625 16.396484375 3.4 15.1 6.8634765625 13.853515625 8.4 12.05 9.9955078125 10.248828125 10 9.05 9.9580078125 8.084375 9.25 5.85 9.1103515625 5.423046875 8.95 4.95 8.8701171875 4.729296875 8.8 4.5 8.60859375 3.991796875 8.4 3.45 7.5904296875 1.084375 6.65 -1.85 5.271484375 -4.91328125 3.1 -9.1 0.9337890625 -13.2900390625 -0.2 -14.6 -1.2947265625 -15.9033203125 -2.4 -17.7 -3.5 -19.45 -6.5 -18.8 -7.55 -18.6 -8.25 -18.05 -8.587109375 -17.8392578125 -8.9 -17.6
L -7.95 -16.6 Z"/>

<path fill="#928943" stroke="none" d="
M -7.05 9.1
L -7.05 9.2
Q -7.05 9.25 -7 9.3 -7.04765625 9.2046875 -7.05 9.1 Z"/>

<path fill="#261615" stroke="none" d="
M -7.95 -16.6
L -8.9 -17.6
Q -9.9658203125 -16.5970703125 -10.4 -14.9 -11.103125 -10.924609375 -10.7 -8.7 -10.296875 -6.475390625 -9.25 -2.15
L -8.4 -0.05
Q -8.31328125 0.6 -8.3 1.85 -8.2240234375 3.4125 -7.6 7.05
L -7.05 6.8 -6.95 6.85 -7 7.2
Q -6.7638671875 10.4125 -6.25 12.05 -5.658984375 13.13671875 -4.7 13.9 -3.3861328125 13.92578125 -1 13.1 -0.8380859375 13.0173828125 -0.7 12.95
L -0.7 12.9
Q 0.1970703125 12.5244140625 0.1 9.9 0.13515625 8.297265625 -0.85 4.95
L -3.9 5.85 -0.85 4.95
Q -1.7970703125 1.741015625 -3.7 -3.1
L -6.7 -3.45 -3.7 -3.1
Q -4.732421875 -5.8646484375 -6.1 -9.15
L -6.15 -9.3 -8.35 -7.5 -6.15 -9.3 -7.8 -16.55
Q -7.85859375 -16.5736328125 -7.95 -16.6 Z"/>

<path fill="#52342E" stroke="none" d="
M -7.8 -16.7
L -7.8 -16.55 -6.15 -9.3 -4.4 -10.65 -6.15 -9.3 -6.1 -9.15
Q -4.732421875 -5.8646484375 -3.7 -3.1
L -2.3 -2.95 -3.7 -3.1
Q -1.7970703125 1.741015625 -0.85 4.95
L 2.3 4.05 -0.85 4.95
Q 0.13515625 8.297265625 0.1 9.9 5.122265625 13.2880859375 6.75 10.75 8.3802734375 8.21640625 8.15 7.9
L 7.55 5.95
Q 6.1140625 1.559375 3.55 -2.95 2.31875 -6.5955078125 0.7 -9.25 -0.8640625 -11.853515625 -1.2 -12.9 -1.4953125 -13.8990234375 -3.25 -16.15 -5 -18.4 -7.35 -16.95 -7.606640625 -16.8033203125 -7.8 -16.7 Z"/>

<path fill="#695B27" stroke="none" d="
M -7.8 -16.7
Q -7.8833984375 -16.6400390625 -7.95 -16.6 -7.85859375 -16.5736328125 -7.8 -16.55
L -7.8 -16.7 Z"/>
</g>

<g id="Duplicate_Items_Folder_body_front_copy_5_0_Layer0_0_FILL">
<path fill="#52342E" stroke="none" d="
M 14.7 -9.95
Q 12 -16.7 7.55 -21.55 2.15 -23.5 -3.8 -23.3 -4.46953125 -23.2931640625 -5.15 -23.25 -6.8771484375 -23.1677734375 -8.7 -22.9 -11.3580078125 -22.5251953125 -14.2 -21.75 -17.1 -20.75 -18.5 -16.7 -19.65 -15.65 -24.35 -5.75 -26.95 -0.45 -26.7 4.2 -26.4830078125 7.9318359375 -23.3 13 -22.805078125 13.7939453125 -22.25 14.6 -18.5666015625 19.9255859375 -11.6 21.2 -10.688671875 21.3544921875 -9.75 21.45 -8.246484375 21.5859375 -6.95 21.65 -6.18359375 21.72890625 -5.5 21.75 -0.6724609375 22.05859375 1.3 21.7 4 21.2 5.15 20.65 6.25 20.1 7.25 19.65 8.25 19.25 10.2 18.4 12.15 17.5 13.7 16.5 15.2 15.5 17.65 12.15 20.1 8.7 18.8 2.7 17.4 -3.25 14.7 -9.95
M -8.55 -20.9
Q -8.058984375 -20.9302734375 -7.7 -20.9
L -5 -20.85
Q 9.15 10.8 3.95 16.2 3.8283203125 16.308203125 3.7 16.4
L 3.65 16.4
Q 3.4818359375 16.613671875 3.3 16.75 3.25 16.75 3.25 16.8
L 3.1 16.85 3.1 16.8
Q 2.45 17.2 2.3 17.25
L 2.35 17.25
Q -0.6025390625 18.824609375 -4.05 19 -4.69140625 19.03046875 -5.4 19 -6.0662109375 18.9810546875 -6.8 18.9 -8.177734375 18.7599609375 -9.65 18.4 -10.285546875 18.4498046875 -11.15 18.25 -13.6578125 17.6654296875 -18.05 14.85 -19.3 12.9 -19.9 11.9 -20.013671875 11.786328125 -20.15 11.6 -20.251171875 11.4634765625 -20.4 11.25 -20.86640625 10.4173828125 -21.4 8.85 -22.7 5.45 -22.55 4.75 -21.8 1.65 -18.5 -3.25 -14.545703125 -9.2513671875 -13.35 -14.2 -12.1068359375 -19.08984375 -10.7 -20.05 -10.0833984375 -20.443359375 -9.55 -20.65 -8.9779296875 -20.7998046875 -8.55 -20.9 Z"/>

<path fill="#88524D" stroke="none" d="
M -7.7 -20.9
L -7.85 -20.9
Q -8 -20.9 -8.2 -20.85 -8.362890625 -20.868359375 -8.55 -20.9 -8.9779296875 -20.7998046875 -9.55 -20.65 -10.0833984375 -20.443359375 -10.7 -20.05 -12.1068359375 -19.08984375 -13.35 -14.2 -14.545703125 -9.2513671875 -18.5 -3.25 -21.8 1.65 -22.55 4.75 -22.7 5.45 -21.4 8.85 -20.86640625 10.4173828125 -20.4 11.25 -20.251171875 11.4634765625 -20.15 11.6 -20.013671875 11.786328125 -19.9 11.9 -19.3 12.9 -18.05 14.85 -13.6578125 17.6654296875 -11.15 18.25 -10.285546875 18.4498046875 -9.65 18.4 -8.177734375 18.7599609375 -6.8 18.9 -6.0662109375 18.9810546875 -5.4 19 -4.69140625 19.03046875 -4.05 19 -0.6025390625 18.824609375 2.35 17.25
L 2.3 17.25
Q 2.45 17.2 3.1 16.8
L 3.1 16.85 3.25 16.8
Q 3.25 16.75 3.3 16.75 3.4818359375 16.613671875 3.65 16.4
L 3.7 16.4
Q 3.8283203125 16.308203125 3.95 16.2 9.15 10.8 -5 -20.85
L -7.7 -20.9 Z"/>

<path fill="#928943" stroke="none" d="
M -7.7 -20.9
Q -8.058984375 -20.9302734375 -8.55 -20.9 -8.362890625 -20.868359375 -8.2 -20.85 -8 -20.9 -7.85 -20.9
L -7.7 -20.9 Z"/>
</g>

<g id="Duplicate_Items_Folder_head_copy_6_0_Layer2_0_FILL">
<path fill="#52342E" stroke="none" d="
M -24 -12.55
Q -26.451953125 -8.7630859375 -30.15 2.85
L -24 -12.55
M -32.4 8.85
L -32.2 6.4 -32.3 7.55
Q -32.3798828125 8.2248046875 -32.4 8.85
M -23.75 -12.9
Q -23.698046875 -12.6796875 -22.55 -11.95 -21.351171875 -11.2109375 -19.65 -9.25 -17.8998046875 -7.29765625 -19.15 -2.8 -20.45 1.75 -24.1 3.4 -27.7 5.05 -29.35 4.35 -29.908203125 4.1173828125 -30.5 3.85 -28.7912109375 10.1267578125 -32.4 10.3 -32.1267578125 16.3826171875 -26.75 18.9 -13.608984375 15.8845703125 -11.65 7.1 -11.584375 6.27109375 -11.45 5.45 -11.3669921875 4.9744140625 -11.3 4.5 -10.617578125 0.9951171875 -9.55 -1.55 -8.334375 -4.3876953125 -5.85 -4.15 -3.35625 -3.869921875 -2.35 -3.65 -1.341015625 -3.4265625 -0.5 -3.1 11.55078125 -7.180859375 8 -18.8 4.414453125 -20.7080078125 -0.35 -21.8 -8.7630859375 -24.0076171875 -14.65 -20.8 -20.4818359375 -17.575390625 -23.75 -12.9
M -6.95 -19.65
L -1.5 -16.45
Q -8.65 -15.05 -15.5 -8.4 -13.4544921875 -15.683984375 -11.25 -17.45 -8.9939453125 -19.1748046875 -6.95 -19.65 Z"/>

<path fill="#3C2422" stroke="none" d="
M -10.1 14.8
Q -11.7521484375 10.6109375 -11.65 7.1 -13.608984375 15.8845703125 -26.75 18.9 -20.9966796875 21.60390625 -9.5 20.3
L -5.75 21.85
Q 0.9208984375 24.5650390625 5.85 18.5
L 6.7 17.55 9.3 16
Q 15.729296875 15.6140625 18.55 4.65 20.537109375 -12.1009765625 8 -18.8 11.55078125 -7.180859375 -0.5 -3.1 2.2376953125 -2.1033203125 3.55 -0.15 5.65 3.05 5.2 7.2 4.991796875 9.396484375 4.9 11.7 4.8521484375 14.0623046875 3.25 16.9 1.6970703125 19.7251953125 -3.2 19.85 -8.044140625 20.0353515625 -10.1 14.8 Z"/>

<path fill="#251616" stroke="none" d="
M -5.85 -4.15
Q -8.334375 -4.3876953125 -9.55 -1.55 -10.617578125 0.9951171875 -11.3 4.5 -11.3669921875 4.9744140625 -11.45 5.45 -11.584375 6.27109375 -11.65 7.1 -11.7521484375 10.6109375 -10.1 14.8 -8.044140625 20.0353515625 -3.2 19.85 1.6970703125 19.7251953125 3.25 16.9 4.8521484375 14.0623046875 4.9 11.7 4.991796875 9.396484375 5.2 7.2 5.65 3.05 3.55 -0.15 2.2376953125 -2.1033203125 -0.5 -3.1 -1.341015625 -3.4265625 -2.35 -3.65 -3.35625 -3.869921875 -5.85 -4.15 Z"/>

<path fill="#734440" stroke="none" d="
M -1.5 -16.45
L -6.95 -19.65
Q -8.9939453125 -19.1748046875 -11.25 -17.45 -13.4544921875 -15.683984375 -15.5 -8.4 -8.65 -15.05 -1.5 -16.45 Z"/>

<path fill="#311D1C" stroke="none" d="
M -23.75 -12.9
Q -23.8029296875 -12.8953125 -23.85 -12.9
L -24 -12.55 -30.15 2.85 -30.55 3.85
Q -30.508203125 3.8673828125 -30.5 3.85 -29.908203125 4.1173828125 -29.35 4.35 -27.7 5.05 -24.1 3.4 -20.45 1.75 -19.15 -2.8 -17.8998046875 -7.29765625 -19.65 -9.25 -21.351171875 -11.2109375 -22.55 -11.95 -23.698046875 -12.6796875 -23.75 -12.9 Z"/>
</g>

<g id="Duplicate_Items_Folder_head_copy_6_0_Layer1_0_FILL">
<path fill="#52342E" stroke="none" d="
M -20.75 -31.7
L -21.35 -27 -23.3 -27.85
Q -27.8 -18.7 -25.8 -9.35
L -10.9 -20.6
Q -10.12734375 -25.97109375 -20.75 -31.7
M -22.85 -13.9
L -22.9 -13.95
Q -25.05 -20.4 -19.35 -24.8
L -18.65 -23.65 -16.7 -19.1 -22.85 -13.9 Z"/>

<path fill="#FFC4DC" stroke="none" d="
M -22.9 -13.95
Q -22.45 -20 -18.65 -23.65
L -19.35 -24.8
Q -25.05 -20.4 -22.9 -13.95
M 14.15 -16.9
Q 17.6 -12.5 17.35 -5.9 20.25 -12.65 14.9 -18
L 14.15 -16.9 Z"/>

<path fill="#FF6699" stroke="none" d="
M -22.9 -13.95
L -22.85 -13.9 -16.7 -19.1 -18.65 -23.65
Q -22.45 -20 -22.9 -13.95
M 17.35 -5.9
Q 17.6 -12.5 14.15 -16.9
L 11.65 -12.15 17.3 -5.85 17.35 -5.9 Z"/>

<path fill="#3C2422" stroke="none" d="
M 6 -14.3
L 17.9 -2.1
Q 22.8 -10.5 19.1 -20.9
L 15.2 -19.85 16.5 -25.75
Q 7.2947265625 -20.2626953125 6 -14.3
M 14.15 -16.9
L 14.9 -18
Q 20.25 -12.65 17.35 -5.9
L 17.3 -5.85 11.65 -12.15 14.15 -16.9 Z"/>
</g>

<g id="Duplicate_Items_Folder_head_copy_6_0_Layer0_0_FILL">
<path fill="#FFFFFF" stroke="none" d="
M -5.95 13.5
Q -3.85 15.4 -1.75 14.6 0.4 13.95 1.35 11.15 2.35 8.25 1.6 5.15 0.8 2 -2.05 0.75 -4.85 -0.5 -6.15 -0.4 -7.5 -0.35 -8.45 2.6 -9.5 5.35 -8.8 8.6 -8 11.85 -5.95 13.5
M -26.9 -8.15
Q -29.15 -7.35 -29.9 -5.2 -30.65 -3.05 -30 -1.05 -29.3 0.9 -27.75 1.35 -26.15 1.95 -24.4 0.7 -22.7 -0.45 -22 -2.65 -21.2 -4.8 -21.95 -6.75 -22.6 -8.75 -23.6 -8.9 -24.65 -8.9 -26.9 -8.15 Z"/>

<path fill="#000000" stroke="none" d="
M -19.3 18.05
Q -16.75 15.15 -19.2 12.7 -21.7 10.15 -25.55 8.3 -29.45 6.4 -30.75 6.8 -32.25 7 -33.55 8.9 -34.9 10.7 -34.3 14.9 -33.65 19 -31.25 20.9 -29.95 21.85 -28.3 22.1 -26.95 22.35 -25.4 21.95 -21.9 21.15 -19.3 18.05 Z"/>
</g>

<path id="Duplicate_Items_Folder_arm__copy_5_0_Layer0_0_1_STROKES" stroke="#000000" stroke-width="1" stroke-linejoin="round" stroke-linecap="round" fill="none" d="
M -4.7 13.9
Q -4.0626953125 14.417578125 -3.25 14.8 -1.95 15.45 -0.25 15.7
M -7.05 9.1
L -6.975 7.225 -6.95 6.85 -7.05 6.8 -7.575 7.05 -7.775 7.15
M -7 9.3
Q -6.9212890625 10.1775390625 -6.7 10.95 -6.4978515625 11.494140625 -6.3 11.9
L -6.325 11.9
Q -6.280078125 11.98984375 -6.225 12.075
M -7.05 9.1
Q -7.04765625 9.2046875 -7 9.3
M -6.225 12.075
Q -5.658984375 13.13671875 -4.7 13.9"/>

<path id="Duplicate_Items_Folder_arm__copy_5_0_Layer0_0_2_STROKES" stroke="#000000" stroke-width="2" stroke-linejoin="round" stroke-linecap="round" fill="none" d="
M -7.775 -16.55
L -6.125 -9.275 -4.4 -10.65
M -7.575 7.05
Q -8.2240234375 3.4125 -8.275 1.85 -8.31328125 0.6 -8.4 -0.05
L -9.25 -2.15
Q -10.296875 -6.475390625 -10.7 -8.7 -11.103125 -10.924609375 -10.4 -14.9 -9.9658203125 -16.5970703125 -8.875 -17.575
M -6.125 -9.275
L -8.35 -7.5
M -3.675 -3.1
Q -4.732421875 -5.8646484375 -6.1 -9.15
L -6.125 -9.275
M -6.7 -3.45
L -3.675 -3.1 -2.3 -2.95
M -3.9 5.85
L -0.85 4.975
Q -1.7970703125 1.741015625 -3.675 -3.1
M -7.575 7.05
Q -7.5328125 7.2220703125 -7.5 7.4
L -7.775 7.15
M 0.125 9.9
Q 0.13515625 8.297265625 -0.85 4.975
L 2.3 4.05"/>

<path id="Duplicate_Items_Folder_body_front_copy_5_0_Layer0_0_1_STROKES" stroke="#000000" stroke-width="1.5" stroke-linejoin="round" stroke-linecap="round" fill="none" d="
M 7.55 -21.55
Q 2.15 -23.5 -3.8 -23.3 -4.46953125 -23.2931640625 -5.15 -23.25 -6.8771484375 -23.1677734375 -8.675 -22.9 -11.3580078125 -22.5251953125 -14.2 -21.75 -17.1 -20.75 -18.5 -16.7 -19.65 -15.65 -24.35 -5.75 -26.95 -0.45 -26.7 4.2 -26.4830078125 7.9318359375 -23.3 13.025 -22.805078125 13.7939453125 -22.25 14.6 -18.5666015625 19.9255859375 -11.575 21.2 -10.688671875 21.3544921875 -9.75 21.45 -8.246484375 21.5859375 -6.925 21.675 -6.18359375 21.72890625 -5.5 21.775 -0.6724609375 22.05859375 1.3 21.7 4 21.2 5.15 20.65 6.25 20.1 7.25 19.65 8.25 19.25 10.2 18.4 12.15 17.5 13.7 16.5 15.2 15.5 17.65 12.15 20.1 8.7 18.8 2.7 17.4 -3.25 14.7 -9.95 12 -16.7 7.55 -21.55 Z"/>

<path id="Duplicate_Items_Folder_head_copy_6_0_Layer2_0_1_STROKES" stroke="#000000" stroke-width="1.5" stroke-linejoin="round" stroke-linecap="round" fill="none" d="
M -23.75 -12.9
Q -20.4818359375 -17.575390625 -14.65 -20.775 -8.7630859375 -24.0076171875 -0.35 -21.8 4.414453125 -20.7080078125 8 -18.8 20.537109375 -12.1009765625 18.55 4.65 15.729296875 15.6140625 9.3 16
L 6.7 17.55 5.85 18.5
Q 0.9208984375 24.5650390625 -5.75 21.85
L -9.5 20.3
Q -20.9966796875 21.60390625 -26.725 18.925 -32.1267578125 16.3826171875 -32.4 10.3 -32.518359375 10.657421875 -32.625 11.025
L -32.4 8.875
Q -32.4384765625 9.6052734375 -32.4 10.3 -28.7912109375 10.1267578125 -30.475 3.875
M -30.15 2.875
Q -26.451953125 -8.7630859375 -24 -12.525"/>

<path id="Duplicate_Items_Folder_head_copy_6_0_Layer1_0_1_STROKES" stroke="#000000" stroke-width="1.5" stroke-linejoin="round" stroke-linecap="round" fill="none" d="
M 6 -14.3
Q 7.2947265625 -20.2626953125 16.5 -25.75
L 15.2 -19.85 19.1 -20.9
Q 22.8 -10.5 17.9 -2.1
M 17.35 -5.9
Q 20.25 -12.65 14.9 -18
L 14.15 -16.9 11.65 -12.15 17.3 -5.85 17.35 -5.9 Z
M -10.9 -20.6
Q -10.12734375 -25.97109375 -20.75 -31.7
L -21.35 -27 -23.3 -27.85
Q -27.8 -18.7 -25.8 -9.35
M -22.9 -13.95
L -22.85 -13.9 -16.7 -19.1 -18.65 -23.65
M -22.9 -13.95
Q -25.05 -20.4 -19.35 -24.8
L -18.65 -23.65"/>

<path id="Duplicate_Items_Folder_head_copy_6_0_Layer0_0_1_STROKES" stroke="#000000" stroke-width="1.5" stroke-linejoin="round" stroke-linecap="round" fill="none" d="
M -29.9 -5.2
Q -30.65 -3.05 -30 -1.05 -29.3 0.9 -27.75 1.35 -26.15 1.95 -24.4 0.7 -22.7 -0.45 -22 -2.65 -21.2 -4.8 -21.95 -6.75 -22.6 -8.75 -23.6 -8.9 -24.65 -8.9 -26.9 -8.15 -29.15 -7.35 -29.9 -5.2 Z
M 1.35 11.15
Q 0.4 13.95 -1.75 14.6 -3.85 15.4 -5.95 13.5 -8 11.85 -8.8 8.6 -9.5 5.35 -8.45 2.6 -7.5 -0.35 -6.15 -0.4 -4.85 -0.5 -2.05 0.75 0.8 2 1.6 5.15 2.35 8.25 1.35 11.15 Z"/>
</defs>

<g transform="matrix( -4.1738739013671875, -1.300994873046875, -1.2304840087890625, 3.9477081298828125, 217.75,465.9) ">
<g transform="matrix( 1, 0, 0, 1, 0,0) ">
<use xlink:href="#Duplicate_Items_Folder_foot_copy_4_0_Layer0_0_FILL"/>
</g>
</g>

<g transform="matrix( -4.0961151123046875, -1.229705810546875, -1.3087615966796875, 4.3592071533203125, 202.85,344.45) ">
<g transform="matrix( 1, 0, 0, 1, 0,0) ">
<use xlink:href="#Duplicate_Items_Folder_arm__copy_5_0_Layer0_0_FILL"/>

<use xlink:href="#Duplicate_Items_Folder_arm__copy_5_0_Layer0_0_1_STROKES"/>

<use xlink:href="#Duplicate_Items_Folder_arm__copy_5_0_Layer0_0_2_STROKES"/>
</g>
</g>

<g transform="matrix( 4.9688873291015625, 0, 0, 4.9688873291015625, 323.9,369.05) ">
<g transform="matrix( 1, 0, 0, 1, 0,0) ">
<use xlink:href="#Duplicate_Items_Folder_body_front_copy_5_0_Layer0_0_FILL"/>

<use xlink:href="#Duplicate_Items_Folder_body_front_copy_5_0_Layer0_0_1_STROKES"/>
</g>
</g>

<g transform="matrix( 4.560882568359375, -1.2514801025390625, 1.1944580078125, 4.353118896484375, 387.6,473.95) ">
<g transform="matrix( 1, 0, 0, 1, 0,0) ">
<use xlink:href="#Duplicate_Items_Folder_foot_copy_4_0_Layer0_0_FILL"/>
</g>
</g>

<g transform="matrix( 4.582916259765625, -1.3759002685546875, 1.4640350341796875, 4.87725830078125, 407.15,352.5) ">
<g transform="matrix( 1, 0, 0, 1, 0,0) ">
<use xlink:href="#Duplicate_Items_Folder_arm__copy_5_0_Layer0_0_FILL"/>

<use xlink:href="#Duplicate_Items_Folder_arm__copy_5_0_Layer0_0_1_STROKES"/>

<use xlink:href="#Duplicate_Items_Folder_arm__copy_5_0_Layer0_0_2_STROKES"/>
</g>
</g>

<g transform="matrix( 6.0855865478515625, -0.6144561767578125, 0.602142333984375, 5.9634857177734375, 307.75,190.7) ">
<g transform="matrix( 1, 0, 0, 1, 0,0) ">
<use xlink:href="#Duplicate_Items_Folder_head_copy_6_0_Layer2_0_FILL"/>

<use xlink:href="#Duplicate_Items_Folder_head_copy_6_0_Layer2_0_1_STROKES"/>
</g>

<g transform="matrix( 1, 0, 0, 1, 0,0) ">
<use xlink:href="#Duplicate_Items_Folder_head_copy_6_0_Layer1_0_FILL"/>

<use xlink:href="#Duplicate_Items_Folder_head_copy_6_0_Layer1_0_1_STROKES"/>
</g>

<g transform="matrix( 1, 0, 0, 1, 0,0) ">
<use xlink:href="#Duplicate_Items_Folder_head_copy_6_0_Layer0_0_FILL"/>

<use xlink:href="#Duplicate_Items_Folder_head_copy_6_0_Layer0_0_1_STROKES"/>
</g>
</g>
</svg>
