
<svg xmlns="http://www.w3.org/2000/svg" version="1.1" xmlns:xlink="http://www.w3.org/1999/xlink" preserveAspectRatio="none" x="0px" y="0px" width="560px" height="544px" viewBox="0 0 560 544">
<defs>
<radialGradient id="Gradient_1" gradientUnits="userSpaceOnUse" cx="0" cy="0" r="27.700000000000003" fx="0" fy="0" gradientTransform="matrix( 0.9999999999999999, 0, 0, 0.9999999999999999, 31.75,31.85) " spreadMethod="pad">
<stop  offset="0%" stop-color="#ECF5FB"/>

<stop  offset="100%" stop-color="#8A74B4"/>
</radialGradient>

<g id="Duplicate_Items_Folder_leg_suit_copy_2_0_Layer0_0_FILL">
<path fill="#000000" stroke="none" d="
M 42.6 16
Q 42.45 6.3 40.9 3.85 40.65 3.35 40.25 2.85 38.35 0.55 35.35 0.05 31.25 -0.5 25.65 2.3 20.4 5 13.05 21.8 7.05 35.55 4.9 44.65 2.95 53.05 0 59.05 3 62.7 10.5 65.1 16.65 67 21.7 67 24.6 67 31.5 65.3 31.25 65.65 34.95 64.4 43.85 61.4 42.95 58.05 42.25 55.85 41.45 50.85 40.7 46.75 39.9 45.1 39.15 43.5 40.65 38.1 42.4 31.6 42.4 29.2 42.65 21.15 42.6 16
M 37.65 6.2
Q 37.95 6.65 38.2 7.1 39 8.5 39.35 12.65 39.5 14.9 39.55 18 39.55 20.2 39.55 23 39.5 26.05 39.4 29.85 39.4 31.45 38.6 35.15 38.3 36.4 37.95 37.85 36.75 42.7 37.35 44.15 37.8 45.15 38.25 47.3 22.5 54.2 8.05 46.55 8.4 45.2 8.7 43.75 9.75 38.75 12 32.25 13.45 28.05 15.4 23.2 16.55 20.35 17.6 18 20.2 12.15 22.45 9 24.2 6.55 25.7 5.7 30.3 3.2 33.65 3.7 36.1 4.15 37.65 6.2 Z"/>

<path fill="#999999" stroke="none" d="
M 12 32.25
Q 9.75 38.75 8.7 43.75 8.4 45.2 8.05 46.55 22.5 54.2 38.25 47.3 37.8 45.15 37.35 44.15 36.75 42.7 37.95 37.85 38.3 36.4 38.6 35.15 24.6 39.3 12 32.25
M 39.55 18
Q 39.5 14.9 39.35 12.65 30.9 14.95 22.45 9 20.2 12.15 17.6 18 26.25 24.55 39.55 23 39.55 20.2 39.55 18 Z"/>

<path fill="#666666" stroke="none" d="
M 17.6 18
Q 16.55 20.35 15.4 23.2 13.45 28.05 12 32.25 24.6 39.3 38.6 35.15 39.4 31.45 39.4 29.85 39.5 26.05 39.55 23 26.25 24.55 17.6 18
M 38.2 7.1
Q 37.95 6.65 37.65 6.2 36.1 4.15 33.65 3.7 30.3 3.2 25.7 5.7 24.2 6.55 22.45 9 30.9 14.95 39.35 12.65 39 8.5 38.2 7.1 Z"/>
</g>

<g id="Duplicate_Items_Folder_arm_suit_copy_2_0_Layer0_0_FILL">
<path fill="#666666" stroke="none" d="
M 67.75 0.9
Q 66.75 0.85 65.95 0.95 65.25 0.9 64.75 0.9 64.2 0.9 63.8 0.95 61.55 1.05 61.75 1.15 62 1.15 60.15 1.6 59.3 1.8 57.65 2.9 55.95 4.05 53.4 6.25 48.4 10.4 48.9 9.95 49.3 9.45 36.35 21.05
L 36.6 21.05 18.9 35.85
Q 35.9388671875 49.8318359375 42.85 44.3
L 54.85 24.9
Q 64.1548828125 19.305078125 68.2 13.7
L 68.45 12.65 68.95 7.1
Q 69 6.9 69.05 6.75
L 69.35 4.25
Q 68.7744140625 2.6306640625 67.75 0.9 Z"/>

<path fill="#000000" stroke="none" d="
M 69.35 4.25
L 69.7 1.25
Q 69.75 1.25 69.8 1.25
L 70 0.1
Q 68.25 0.05 65.7 0 58.7 -0.2 52.45 4.8 46.05 9.85 44.7 10.85 43.95 11.4 39.55 15.45 35.9 18.8 29.55 24.7 27.45 26.75 22.65 29.8 17.95 32.8 16.3 34.45 14.3 36.45 15.5 36.8 16.75 37.3 15.55 38.6 14 40.4 7.05 47.9 2 53.35 2.05 53.5 0 56.1 0 57.9 1.55 61.15 4.15 61.6 1 64.75 2.7 68.6
L 14.95 80
Q 17.7 81.7 19.75 80.5 21.8 79.25 23.15 77.95 24.45 76.65 24.5 75.7 24.5 74.75 24.7 72.95 24.9 71.15 23.05 67.5
L 20.7 64.1
Q 20.7 61.75 22.55 60.85
L 23.9 64.25
Q 25 67.5 29.8 68.8 31.05 68.9 33 69.1 35 69.2 37.25 67.7 39.4 66.15 38.9 63.25 37.8 60 37.7 58.8 37.5 56.95 38.65 56.35 39 56.15 40.45 52.95 42.15 49.35 42.7 48.55 46.5 45.9 46.7 45.6 47.3 44.75 47.75 43.1 48.05 41.8 49 39.8 49.7 38.25 50.65 36.25 54.8 30.75 57.95 27 59.65 24.95 61 23.4 64.55 19.5 67.4 17.35
L 68.2 13.7
Q 64.1548828125 19.305078125 54.85 24.9
L 42.85 44.3
Q 35.9388671875 49.8318359375 18.9 35.85
L 36.6 21.05 36.35 21.05
Q 49.3 9.45 48.9 9.95 48.4 10.4 53.4 6.25 55.95 4.05 57.65 2.9 59.3 1.8 60.15 1.6 62 1.15 61.75 1.15 61.55 1.05 63.8 0.95 64.2 0.9 64.75 0.9 65.25 0.9 65.95 0.95 66.75 0.85 67.75 0.9 68.7744140625 2.6306640625 69.35 4.25
M 10.3 47.75
Q 11.2 46.65 12.15 45.5 14.9126953125 42.0689453125 18 38.95
L 20.65 40.85 23.2 42.1 27.05 46.45 33.35 48.5 34.55 48.7 33.45 48.95 40.45 48.4
Q 39.45 49.8 38.7 50.65
L 38.5 50.8
Q 38.15 51.2 37.25 52.7 36.45 54.25 35.95 55.4 35.45 56.45 36.15 60.45 36.75 64.45 35.15 65.5 33.45 66.55 30.65 66.05 27.7 65.55 26.15 63.65
L 25.2 62.85
Q 24.2 58.9 24.2 58.55 23.9 55.25 20.25 60.45 19.3 61.75 18.8 62.95 17.65 66.15 20.45 68 22.65 71.15 22.05 74.4 22 75.35 21.55 76.2 21.05 77.05 20.15 77.8 18.4 78.85 16 78.15
L 4 67.65
Q 4.25 63.65 6.3 61.15 6.05 60.85 5.75 60.45 4.55 58.55 4.4 56.5 7.15 51.95 10.3 47.75 Z"/>

<path fill="#7D7997" stroke="none" d="
M 40.45 48.4
L 33.45 48.95
Q 28.5453125 56.589453125 25.2 62.85
L 26.15 63.65
Q 27.7 65.55 30.65 66.05 33.45 66.55 35.15 65.5 36.75 64.45 36.15 60.45 35.45 56.45 35.95 55.4 36.45 54.25 37.25 52.7 38.15 51.2 38.5 50.8
L 38.7 50.65
Q 39.45 49.8 40.45 48.4 Z"/>

<path fill="#9592A9" stroke="none" d="
M 16.7 45.5
Q 15.75 46.65 14.9 47.75 9.9 54.15 5.75 60.45 6.05 60.85 6.3 61.15 4.25 63.65 4 67.65
L 16 78.15
Q 18.4 78.85 20.15 77.8 21.05 77.05 21.55 76.2 22 75.35 22.05 74.4 22.65 71.15 20.45 68 17.65 66.15 18.8 62.95 19.3 61.75 20.25 60.45 23.9 55.25 24.2 58.55 24.2 58.9 25.2 62.85 28.5453125 56.589453125 33.45 48.95
L 34.55 48.7 33.35 48.5 27.05 46.45 23.2 42.1 20.65 40.85
Q 18.75 42.95 16.7 45.5 Z"/>

<path fill="#ADABBE" stroke="none" d="
M 12.15 45.5
Q 11.2 46.65 10.3 47.75 7.15 51.95 4.4 56.5 4.55 58.55 5.75 60.45 9.9 54.15 14.9 47.75 15.75 46.65 16.7 45.5 18.75 42.95 20.65 40.85
L 18 38.95
Q 14.9126953125 42.0689453125 12.15 45.5 Z"/>
</g>

<g id="Duplicate_Items_Folder_body_suit_copy_2_0_Layer4_0_FILL">
<path fill="#212C58" stroke="none" d="
M -60.85 20.4
Q -62.15 21.55 -63.8 22.7 -62.15 21.6 -60.85 20.5 -60.85 20.45 -60.85 20.4
M 37.25 16.45
Q 37 16.7 36.75 16.9
L 36.75 16.95
Q 37 16.75 37.25 16.55 37.25 16.5 37.25 16.45
M 18.55 43.05
Q 18.65 43.05 18.7 43 18.45 43.05 18.15 43.15 18.35 43.1 18.55 43.05 Z"/>

<path fill="#595959" stroke="none" d="
M 14.4 -40
Q 12.7044921875 -40.5734375 11.3 -41.05 28.9484375 -4.020703125 9.45 42.85
L 9.45 43
Q 13.2 42.85 16.25 42.25 18.1 41.9 19.85 41.4 19.861328125 41.3544921875 19.85 41.3 19.97421875 41.278515625 20.05 41.25 20.11640625 41.1017578125 20.15 40.95 20.747265625 40.95 21.3 40.95 21.534375 40.8744140625 21.75 40.8 23.723828125 40.139453125 25.45 39.25
L 28.65 37.45 29.4 36.9
Q 30.551171875 36.1353515625 31.55 35.25 31.646484375 35.14609375 31.75 35.05 23.39375 26.475 25.55 2.55 25.8671875 -0.7880859375 26.35 -4.45 26.3876953125 -4.5125 26.4 -4.6 26.918359375 -8.240234375 27.2 -11.5 29.1560546875 -34.98046875 18.4 -38.8 16.2751953125 -39.5544921875 14.5 -40.2
L 14.4 -40 Z"/>

<path fill="#666666" stroke="none" d="
M 14.4 -40
L 14.45 -40.2
Q 6.0443359375 -43.15 5.55 -43.15
L 4.15 -43.1
Q 1.7 -43 -1.45 -42.8 -3.75 -42.7 -6.55 -42.45 -9.1 -42.2 -12.1 -41.95 -12.95 -41.95 -15.75 -41.4 -18.5 -40.9 -25.2 -29.3 -26.75 -1.45 -26.75 10 -26.75 20.9 -28.25 24.75 -28.15 24.85 -28.15 24.9
L -28.25 24.9
Q -28.25 24.85 -28.25 24.8 -28.35 24.95 -28.45 25.15 -30.1 28.8 -29.65 29.8 -28.8 32.1 -27.15 33.95 -22.25 39.6 -10.6 41.45 1.177734375 43.1810546875 9.45 42.85 28.9484375 -4.020703125 11.3 -41.05 12.7044921875 -40.5734375 14.4 -40 Z"/>

<path fill="#333333" stroke="none" d="
M 14.5 -40.2
Q 14.4759765625 -40.1908203125 14.45 -40.2
L 14.4 -40 14.5 -40.2 Z"/>

<path fill="#000000" stroke="none" d="
M 14.45 -40.2
Q 14.4759765625 -40.1908203125 14.5 -40.2 16.2751953125 -39.5544921875 18.4 -38.8 29.1560546875 -34.98046875 27.2 -11.5 26.918359375 -8.240234375 26.4 -4.6 26.3876953125 -4.5125 26.35 -4.45 25.8671875 -0.7880859375 25.55 2.55 23.39375 26.475 31.75 35.05 31.646484375 35.14609375 31.55 35.25 30.551171875 36.1353515625 29.4 36.9
L 28.65 37.45 25.45 39.25
Q 23.723828125 40.139453125 21.75 40.8 27.945703125 40.673046875 31.65 38.7 35.803515625 36.49453125 36.3 34.6 24.015625 26.5591796875 31.15 -22.8 29.9 -32.25 24.8 -38.5 19.75 -44.75 16.75 -45.3 13.75 -45.85 9.6 -46.55 5.5 -47.3 -1.95 -46.8 -4.55 -46.65 -7.55 -46.4 -10.4 -46.15 -13.7 -45.85 -14.6 -45.85 -18.25 -44.55 -21.8 -43.25 -28.25 -32.95 -32.65 -7.2 -30.7 2.35 -28.85 11.85 -31.1 21.8 -33.4046875 31.7451171875 -32 32.55 -30.5865234375 33.414453125 -26.6 37 -22.613671875 40.6353515625 -7.85 44.55 6.9544921875 48.4546875 16.45 47.65 18.28515625 47.505078125 20.05 41.25 19.97421875 41.278515625 19.85 41.3 19.861328125 41.3544921875 19.85 41.4 18.1 41.9 16.25 42.25 13.2 42.85 9.45 43
L 9.45 42.85
Q 1.177734375 43.1810546875 -10.6 41.45 -22.25 39.6 -27.15 33.95 -28.8 32.1 -29.65 29.8 -30.1 28.8 -28.45 25.15 -28.35 24.95 -28.25 24.8 -28.25 24.85 -28.25 24.9
L -28.15 24.9
Q -28.15 24.85 -28.25 24.75 -26.75 20.9 -26.75 10 -26.75 -1.45 -25.2 -29.3 -18.5 -40.9 -15.75 -41.4 -12.95 -41.95 -12.1 -41.95 -9.1 -42.2 -6.55 -42.45 -3.75 -42.7 -1.45 -42.8 1.7 -43 4.15 -43.1
L 5.55 -43.15
Q 6.0443359375 -43.15 14.45 -40.2
M 18.7 43
Q 18.65 43.05 18.55 43.05 18.35 43.1 18.15 43.15 18.45 43.05 18.7 43
M -31.3 27.5
L -31.35 27.5
Q -31.4 27.25 -31.45 27.05 -31.35 27.3 -31.3 27.5 Z"/>

<path fill="#FFFFFF" stroke="none" d="
M -31.35 27.5
L -31.3 27.5
Q -31.35 27.3 -31.45 27.05 -31.4 27.25 -31.35 27.5 Z"/>
</g>

<g id="Duplicate_Items_Folder_body_suit_copy_2_0_Layer2_0_FILL">
<path fill="#000000" stroke="none" d="
M 20.3 44.05
Q 27.005078125 47.689453125 43.8 59.3 47.4376953125 34.5763671875 28.75 19.05 -9.6765625 35.0302734375 -29.95 17 -43.9095703125 30.8 -43.5 49.75
L -28.2 37.15 -24.9 57.2 -7.4 46 3.6 67.1 20.3 44.05 Z"/>
</g>

<g id="Duplicate_Items_Folder_body_suit_copy_2_0_Layer1_0_FILL">
<path fill="#595959" stroke="none" d="
M -27.1 -17.2
Q -26.85 -16.75 -26.55 -16.3 -23.55 -11.95 -18.4 -11.05 -13.25 -10.1 -8.95 -13.1 -7 -14.45 -5.7 -16.3 -5 -17.35 -4.5 -18.55 -5.4 -17.65 -6.5 -16.85 -10.85 -13.8 -16 -14.75 -21.2 -15.65 -24.1 -20 -24.3 -20.3 -24.5 -20.6
L -27.2 -18.75 -27.1 -17.2
M 19.5 -18.5
Q 16.6 -14.15 11.4 -13.25 6.25 -12.3 1.9 -15.35 0.8 -16.15 -0.1 -17.05 0.4 -15.85 1.15 -14.8 2.4 -12.95 4.35 -11.6 8.65 -8.6 13.8 -9.55 18.95 -10.45 21.95 -14.8 22.25 -15.25 23.4 -16.6
L 19.95 -19.05 19.5 -18.5 Z"/>
</g>

<g id="Duplicate_Items_Folder_body_suit_copy_2_0_Layer0_0_FILL">
<path fill="#6D6987" stroke="none" d="
M 18.7 40.3
L 15.55 28.15
Q 15.5 28.35 15.4 28.6
L 7.6 20.05
Q 16.9 37.7 16.45 44.1
L 18.7 40.3
M -25.8 -19.8
L -25.2 -14.7 -15.6 -3.45
Q -15.75 -3.65 -15.8 -4.05
L -4.9 1.25
Q -22.35 -12.9 -25.8 -19.8 Z"/>

<path fill="#CC0000" stroke="none" d="
M 15.9 45.8
Q 16.05 46.55 16.15 47.3
L 20.9 41.25 24.45 43 28.65 25.1 27.1 25.95 23.35 42.05 20.25 40.4 15.9 45.8
M 16.45 20.45
Q 16.45 20.7 16.35 20.9
L 22.9 27.9 23.85 27.45 16.2 19.2
Q 16.35 19.75 16.45 20.4
L 16.45 20.45
M -11.5 5.25
Q -11.35 5 -11.25 4.85
L -11.75 4.6
Q -11.8 4.65 -11.8 4.8 -11.95 4.65 -11.95 4.5
L -20.95 0.25 -21.3 1.25 -12 5.7 -11.2 5.8
Q -11.35 5.6 -11.5 5.25
M -26.4 -14.05
L -26.3 -21.7
Q -26.35 -21.8 -26.4 -21.9
L -26.3 -21.85
Q -26.9 -22.55 -27.5 -23.25
L -27.4 -14.6 -31.05 -14.9 -23.45 6 -22.85 4.35 -29.65 -14.3 -26.4 -14.05 Z"/>

<path fill="#7D7997" stroke="none" d="
M 16.05 21.5
Q 16.1 21.65 16.15 21.75 17 24.95 15.55 28.15
L 18.7 40.3 20 38.25 22.65 41.2
Q 22.4 33.65 26.4 27.1
L 22.35 30.85 16.05 21.5
M -24.95 -11.95
L -28.65 -13.85
Q -24 -6 -22.95 2.85
L -22.25 -3 -12.05 3.9
Q -12.2 3.7 -12.3 3.55 -14.8 0.55 -15.6 -3.45
L -25.2 -14.7 -24.95 -11.95 Z"/>

<path fill="#000000" stroke="none" d="
M 16 21.45
L 16.05 21.5 22.35 30.85 26.4 27.1
Q 22.4 33.65 22.65 41.2
L 20 38.25 18.7 40.3 16.45 44.1
Q 16.9 37.7 7.6 20.05
L 15.4 28.6
Q 15.5 28.35 15.55 28.15 17 24.95 16.15 21.75 16.1 21.65 16.05 21.5 16.05 21.75 15.95 22.2 15.85 22.75 15.45 23.55 14.55 25.4 13.4 25.15
L 7.1 19.3
Q 7.85 28.95 12.1 37.9 12.15 38 12.2 38.05 15.5 44.2 15.9 45.85
L 15.9 45.8 20.25 40.4 23.35 42.05 27.1 25.95 27.15 25.75 23.85 27.45 22.9 27.9 16.35 20.9 15.85 20.3
Q 16.05 20.85 16 21.45
M -25.2 -14.7
L -25.8 -19.8
Q -22.35 -12.9 -4.9 1.25
L -15.8 -4.05
Q -15.75 -3.65 -15.6 -3.45 -14.8 0.55 -12.3 3.55 -12.2 3.7 -12.05 3.9 -12.25 3.45 -12.4 2.9 -12.65 2.25 -12.8 1.4 -13.25 -1.05 -12.35 -1.3
L -4.1 1.75 -23.85 -18.65
Q -25.1 -20.2 -26.3 -21.7
L -26.4 -14.05 -29.65 -14.3 -22.85 4.35 -22.75 4.6 -21.3 1.25 -20.95 0.25 -11.95 4.5 -11.75 4.6 -11.25 4.85
Q -11.45 4.65 -11.7 4.35 -11.85 4.2 -11.95 3.9
L -12.05 3.9 -22.25 -3 -22.95 2.85
Q -24 -6 -28.65 -13.85
L -24.95 -11.95 -25.2 -14.7 Z"/>
</g>

<g id="Duplicate_Items_Folder_head_copy_4_0_Layer2_0_FILL">
<path fill="#000000" stroke="none" d="
M 25.45 110.7
L 17.55 100.1
Q -2.9 118.95 -24 125.75
L 0 123.9 -16.5 146.95
Q -1.3 140 10.85 128.6
L 10.35 145.55
Q 21.6 129.1 25.45 110.7
M 185 131.45
L 163.45 108.35 191.1 105.35
Q 166.15 102.1 140.55 84.75
L 132.75 98.7
Q 139.3 119.1 154.15 135.65
L 151.55 116.2
Q 166.8 126.7 185 131.45 Z"/>
</g>

<g id="Duplicate_Items_Folder_head_copy_4_0_Layer1_0_FILL">
<path fill="#000000" stroke="none" d="
M 139.65 40.3
Q 131.05 25.55 127.75 22.1 124.45 18.65 121.85 16.55 119.2 14.4 108.7 8.7 98.2 2.95 83.7 0.6 69.15 -1.75 47.3 5.35 25.45 12.4 18.05 23.75 10.6 35 3.45 49.15 -3.7 63.25 4 84.45 11.651953125 105.6462890625 29.3 118.4 46.9955078125 131.16015625 55.5 134.65 63.9990234375 138.1412109375 73.35 138 82.7615234375 137.89921875 98.2 133.95 113.6283203125 130.006640625 113.7 128.95 114.75 128 118.1 125.15 124.35 119.85 127.25 117.15 131.35 113.3 133.6 110.35 137.35 105.3 138.95 102.7 140.5 100.05 141.8 95.85 143.1 91.65 146.75 75.6 146.81015625 75.3291015625 147 75.05 149.8177734375 71.2904296875 149.6 63.7 149.4255859375 56.103125 146.85 55.5 146.36875 55.4177734375 146 55.45 145.9583984375 51.425 145 49.7 141.45 43.35 139.65 40.3
M 124.5 26.65
Q 128.85 30.7 132.65 37.65 136.35 44.55 141 53.4 141.323046875 54.016796875 141.65 54.6 141.01875 54.983203125 145.65 57.95 145.375390625 57.9673828125 145.1 57.95 145.4123046875 58.0884765625 145.85 58.25 144.954296875 71.4466796875 145.4 71.5 145.40625 71.585546875 145.4 71.65 144.422265625 74.7646484375 143.3 78.65 142.730859375 82.769140625 140.7 85.2 140.577734375 86.0216796875 140.35 86.8 140.1513671875 87.84296875 139.9 88.95
L 139.95 88.5
Q 140.01875 88.2228515625 140.05 87.95 140.04140625 87.9978515625 140 88.05 138.9359375 91.6421875 136.9 94.65 136.1921875 95.6947265625 135.45 96.55 134.865234375 97.9857421875 133.95 99.7 133.02890625 101.4546875 130.75 105.95 128.51796875 110.5 125.95 112.55 123.4439453125 114.65 113.75 123.55 102.37265625 127.483203125 89.25 129.8 76.17109375 132.1171875 69.95 131.45 63.7810546875 130.829296875 58 129.7 52.22421875 128.5841796875 36.1 115.95 20.0123046875 103.355859375 15 90.85 9.9970703125 78.3498046875 9.7 78 9.7 78.1 9.65 78.2
L 8.15 72.3
Q 4.7 58.3 10.05 48.7 14.3396484375 40.9548828125 18.4 34.4 21.15234375 29.95078125 23.8 26.05 24.3 25.3 24.9 24.65 25.75 23.5 26.8 22.5 33.2 16.05 46.4 11.35 48.3 10.6 50.4 9.95 70.4 3.6 83.7 5.75 88.7 6.55 93.15 7.9
L 101.55 10.85 102.8 11.45
Q 104.7 12.3 106.45 13.25 108.1 14.15 109.5 14.95 109.25 14.9 109 14.85 116.2 19.1 118.15 20.85 120.15 22.55 124.5 26.65
M 140.55 64.55
Q 140.368359375 64.340625 140 64.65 140.1017578125 64.7 140.15 64.7 140.3490234375 64.7 140.55 64.55
M 142.45 72.75
Q 142.4626953125 72.8263671875 142.45 72.85 142.8908203125 72.6365234375 143.4 72.4 142.918359375 72.601953125 142.45 72.75 Z"/>

<path fill="#7D7997" stroke="none" d="
M 18.4 34.4
L 12.15 45
Q 18 47.05 21 47 22.6814453125 46.9720703125 24.15 46.05 25.3451171875 45.324609375 26.4 44.05 28.4931640625 41.520703125 28.6 39.95 28.6255859375 39.7109375 28.6 39.5 28.4 37.85 26.2 35.95 24 34.05 20.85 34.05 19.55 34.05 18.4 34.4
M 140.7 85.2
Q 141.3 82.22578125 141.3 78.9 141.3 78.3162109375 140.05 87.95 140.231640625 87.3873046875 140.35 86.8 140.577734375 86.0216796875 140.7 85.2
M 116.4 59
L 116.35 59
Q 113.75 50.95 100.05 39.5 86.35 28 62 31.05 37.6 34.05 34.75 48.95 31.8 63.8 29.25 78 26.7 92.2 38.2 103.4 49.7 114.55 70.2 118.5 90.7 122.4 98.95 108.75 104.3 93.15 118.35 97.85 121.85 101.2 126.3 101.2 128.6 101.2 130.65 100.3 133.55 99.8 134.75 97.4 135.10859375 97.0087890625 135.45 96.55 136.1921875 95.6947265625 136.9 94.65 138.9359375 91.6421875 140 88.05 141.2810546875 77.4677734375 141.25 77.25 141.194921875 75.5078125 140.95 73.85 140.9115234375 73.5921875 140.85 73.3 140.5779296875 71.5830078125 140.1 69.95 140.3248046875 70.287109375 140.45 69.95 140.8578125 69.2640625 140.85 64.9 140.8525390625 64.589453125 140.85 64.25 140.6990234375 64.444140625 140.55 64.55 140.3490234375 64.7 140.15 64.7 140.1017578125 64.7 140 64.65 139.344921875 65.361328125 138 68.4 139.276953125 64.415625 139.45 64.2 139.271875 64.021484375 139.05 63.75 138.6673828125 63.346875 138.15 62.7 136.5 60.7 129.95 59.65 123.35 58.55 116.4 59
M 84 23.3
Q 83.2 23.75 83.2 24.4 83.2 25.05 84 25.5 84.85 25.95 86 25.95 87.15 25.95 87.95 25.5 88.8 25.05 88.8 24.4 88.8 23.75 87.95 23.3 87.15 22.85 86 22.85 84.85 22.85 84 23.3
M 102.4 23.05
Q 104.35 21.9 104.35 20.3 104.35 18.7 102.4 17.55 100.45 16.4 97.65 16.4 94.85 16.4 92.9 17.55 90.95 18.7 90.95 20.3 90.95 21.9 92.9 23.05 94.85 24.2 97.65 24.2 100.45 24.2 102.4 23.05 Z"/>

<path fill="#A7A5B8" stroke="none" d="
M 18.4 34.4
Q 14.3396484375 40.9548828125 10.05 48.7 4.7 58.3 8.15 72.3
L 9.65 78.2
Q 9.7 78.1 9.7 78 15.3619140625 59.3546875 24.15 46.05 22.6814453125 46.9720703125 21 47 18 47.05 12.15 45
L 18.4 34.4
M 102.8 11.45
L 101.55 10.85 93.15 7.9
Q 88.6 6.65 83.6 5.85 70.3 3.7 50.3 10.05 48.3 10.7 46.4 11.35 33.2 16.05 26.8 22.5 25.75 23.5 24.9 24.65 24.3 25.3 23.8 26.05 21.15234375 29.95078125 18.4 34.4 19.55 34.05 20.85 34.05 24 34.05 26.2 35.95 28.4 37.85 28.6 39.5 28.6255859375 39.7109375 28.6 39.95 55.9505859375 5.61328125 109 14.85 109.25 14.9 109.5 14.95 108.1 14.15 106.45 13.25 104.7 12.3 102.8 11.45 Z"/>

<path fill="#9592A9" stroke="none" d="
M 140.05 87.95
Q 140.01875 88.2228515625 139.95 88.5
L 139.9 88.95
Q 140.1513671875 87.84296875 140.35 86.8 140.231640625 87.3873046875 140.05 87.95
M 140 64.65
Q 139.836328125 64.5830078125 139.45 64.2
L 139.45 64.2
Q 139.276953125 64.415625 138 68.4 139.344921875 65.361328125 140 64.65
M 142.45 72.75
Q 142.54296875 72.5119140625 142.6 72.25 141.2498046875 71.5111328125 140.45 69.95 140.3248046875 70.287109375 140.1 69.95 140.5779296875 71.5830078125 140.85 73.3 140.9115234375 73.5921875 140.95 73.85 141.194921875 75.5078125 141.25 77.25 141.2810546875 77.4677734375 140 88.05 140.04140625 87.9978515625 140.05 87.95 141.3 78.3162109375 141.3 78.9 141.3 82.22578125 140.7 85.2 142.730859375 82.769140625 143.3 78.65 144.422265625 74.7646484375 145.4 71.65 144.9916015625 71.76796875 144.55 71.9 144.5009765625 71.9146484375 144.45 71.9 143.8927734375 72.1615234375 143.4 72.4 142.8908203125 72.6365234375 142.45 72.85 142.4626953125 72.8263671875 142.45 72.75
M 132.65 37.65
Q 128.85 30.7 124.5 26.65 120.15 22.55 118.15 20.85 116.2 19.1 109 14.85 55.9505859375 5.61328125 28.6 39.95 28.4931640625 41.520703125 26.4 44.05 25.3451171875 45.324609375 24.15 46.05 15.3619140625 59.3546875 9.7 78 9.9970703125 78.3498046875 15 90.85 20.0123046875 103.355859375 36.1 115.95 52.22421875 128.5841796875 58 129.7 63.7810546875 130.829296875 69.95 131.45 76.17109375 132.1171875 89.25 129.8 102.37265625 127.483203125 113.75 123.55 123.4439453125 114.65 125.95 112.55 128.51796875 110.5 130.75 105.95 133.02890625 101.4546875 133.95 99.7 134.865234375 97.9857421875 135.45 96.55 135.10859375 97.0087890625 134.75 97.4 133.55 99.8 130.65 100.3 128.6 101.2 126.3 101.2 121.85 101.2 118.35 97.85 104.3 93.15 98.95 108.75 90.7 122.4 70.2 118.5 49.7 114.55 38.2 103.4 26.7 92.2 29.25 78 31.8 63.8 34.75 48.95 37.6 34.05 62 31.05 86.35 28 100.05 39.5 113.75 50.95 116.35 59
L 116.4 59
Q 123.35 58.55 129.95 59.65 136.5 60.7 138.15 62.7 138.6673828125 63.346875 139.05 63.75 139.7013671875 60.901171875 139.85 59.75 140.1470703125 57.9390625 145.1 57.95 145.375390625 57.9673828125 145.65 57.95 141.01875 54.983203125 141.65 54.6 141.323046875 54.016796875 141 53.4 136.35 44.55 132.65 37.65
M 104.35 20.3
Q 104.35 21.9 102.4 23.05 100.45 24.2 97.65 24.2 94.85 24.2 92.9 23.05 90.95 21.9 90.95 20.3 90.95 18.7 92.9 17.55 94.85 16.4 97.65 16.4 100.45 16.4 102.4 17.55 104.35 18.7 104.35 20.3
M 83.2 24.4
Q 83.2 23.75 84 23.3 84.85 22.85 86 22.85 87.15 22.85 87.95 23.3 88.8 23.75 88.8 24.4 88.8 25.05 87.95 25.5 87.15 25.95 86 25.95 84.85 25.95 84 25.5 83.2 25.05 83.2 24.4 Z"/>

<path fill="#8EA494" stroke="none" d="
M 83.6 5.85
Q 88.6 6.65 93.15 7.9 88.7 6.55 83.7 5.75 70.4 3.6 50.4 9.95 48.3 10.6 46.4 11.35 48.3 10.7 50.3 10.05 70.3 3.7 83.6 5.85 Z"/>
</g>

<g id="Duplicate_Items_Folder_head_copy_4_0_Layer0_0_FILL">
<path fill="#000000" stroke="none" d="
M 143.9 47.15
Q 141.2482421875 43.2533203125 139.45 40.2 130.85 25.45 127.55 22 124.25 18.55 121.65 16.45 119 14.3 108.5 8.6 98 2.85 83.5 0.5 68.95 -1.85 47.1 5.25 25.25 12.3 17.85 23.65 10.4 34.9 3.25 49.05 -3.9 63.15 3.8 84.35 7.95 95.9 15.95 105.25 62.025390625 65.714453125 73.75 12.5 76.462890625 16.5953125 79.3 20.55 100.5 50.05 124.9 68.4 130.6 67.5 133.2 62.15 104.1365234375 43.0783203125 82.6 20.75 108.1203125 42.7771484375 149 57.45 146.6046875 51.03984375 143.9 47.15
M 134.15 35.85
Q 133.9302734375 34.3544921875 135.85 38.45 137.8177734375 42.53515625 138.25 45.35 111.7673828125 32.92421875 76.15 5.85
L 76.4 5.7
Q 107.1234375 25.533203125 134.15 35.85
M 51.85 31.5
Q 65.38671875 9.900390625 67.3 6.5 47.2701171875 55.1763671875 12.25 90.45 10.361328125 88.9068359375 8.25 84.05 38.3578125 53.1384765625 51.85 31.5 Z"/>

<path fill="#615E79" stroke="none" d="
M 67.3 6.5
Q 65.38671875 9.900390625 51.85 31.5 38.3578125 53.1384765625 8.25 84.05 10.361328125 88.9068359375 12.25 90.45 47.2701171875 55.1763671875 67.3 6.5
M 135.85 38.45
Q 133.9302734375 34.3544921875 134.15 35.85 107.1234375 25.533203125 76.4 5.7
L 76.15 5.85
Q 111.7673828125 32.92421875 138.25 45.35 137.8177734375 42.53515625 135.85 38.45 Z"/>
</g>

<g id="Duplicate_Items_Folder_pupil_0_Layer0_0_FILL">
<path fill="#E9F4D7" stroke="none" d="
M 16.5 8.45
Q 16.5 4.95 14.1 2.45 14 2.35 13.95 2.3 11.6 0 8.25 0 4.85 0 2.45 2.45 1.7 3.25 1.15 4.1 0 6.05 0 8.45 0 11.95 2.45 14.4 4.85 16.9 8.25 16.9 11.65 16.9 14.1 14.4 16.5 11.95 16.5 8.45
M 13.45 3.3
Q 15.2 5.1 15.2 7.55 15.2 10.05 13.45 11.75 11.75 13.5 9.35 13.5 6.95 13.5 5.3 11.75 3.55 10.05 3.55 7.55 3.55 5.1 5.3 3.3
L 5.35 3.25
Q 7 1.55 9.35 1.55 11 1.55 12.35 2.4 12.95 2.75 13.45 3.3 Z"/>

<path fill="#3399CC" stroke="none" d="
M 15.2 7.55
Q 15.2 5.1 13.45 3.3 12.95 2.75 12.35 2.4 11 1.55 9.35 1.55 7 1.55 5.35 3.25
L 5.3 3.3
Q 3.55 5.1 3.55 7.55 3.55 10.05 5.3 11.75 6.95 13.5 9.35 13.5 11.75 13.5 13.45 11.75 15.2 10.05 15.2 7.55 Z"/>
</g>

<g id="Duplicate_Items_Folder_ear_0_Layer0_0_FILL">
<path fill="#000000" stroke="none" d="
M 25.15 20.6
Q 24.9 17.85 23.8 19.1 22.7 20.3 21.45 24.6 20.6 25.45 18.45 25.45 16.25 25.45 12.2 22.65 7.7 19.2 5.95 17.95 3.25 16.05 2.85 12.9 2.45 9.75 4.8 5.55 7.15 1.3 10.9 2.65 14.65 3.95 13.5 0.65 11.35 0.05 9 0 2.45 -0.25 1.1 4.5 -0.5 10.1 0.25 13.7 0.9 17.15 3.85 19.25 5.75 20.6 10.65 24.35 15.05 27.4 17.45 27.4 19.8 27.4 20.75 26.5 22.1 24.7 24 23.05 25.05 22.15 25.15 20.6 Z"/>

<path fill="#9592A9" stroke="none" d="
M 23.8 19.1
Q 24.9 17.85 25.15 20.6 26.15 18.6 24.25 14.6
L 16.25 1.4
Q 14.9 0.9 13.5 0.65 14.65 3.95 10.9 2.65 7.15 1.3 4.8 5.55 2.45 9.75 2.85 12.9 3.25 16.05 5.95 17.95 7.7 19.2 12.2 22.65 16.25 25.45 18.45 25.45 20.6 25.45 21.45 24.6 22.7 20.3 23.8 19.1 Z"/>
</g>

<g id="Duplicate_Items_Folder_eye_copy_2_0_Layer1_0_FILL">
<path fill="#000000" stroke="none" d="
M 60.8 30.8
Q 62.4 17.35 54.95 7.8 47.5017578125 -1.7564453125 32 0.1 16.5443359375 2.0103515625 6.75 10.4 -3.0486328125 18.8361328125 -4.25 37.3 -5.45625 55.8119140625 5.2 61.3 15.8673828125 66.7943359375 31.95 65.75 48.087890625 64.69765625 53.65 54.5 59.15 44.35 60.8 30.8
M 53.05 14.25
L 53.15 14.3 54.05 14.7 53.15 14.2
Q 56.605859375 15.5232421875 57.65 18.2
L 58.05 20.45
Q 59.0427734375 25.1646484375 58.4 30.55 56.9 42.75 51.95 51.9 46.95 61.1 33.25 59.85 19.55 58.55 11.6 50.65 3.587109375 42.786328125 3.55 31.75
L 7.1 28.35 7.1 28.4
Q 16.1 19.55 26.45 17 36.75 14.45 43.8 14.2 50.687890625 13.9048828125 53.05 14.25 Z"/>

<path fill="#867CBE" stroke="none" d="
M 12.6 47.25
Q 13.3 48.1 14.1 48.9 21.35 56.05 33.65 57.2 46.05 58.4 50.55 50.1 52.1 47.2 53.3 44.05 40.0396484375 56.2759765625 12.6 47.25 Z"/>

<path fill="#990000" stroke="none" d="
M 53.15 14.3
L 53.2 14.45
Q 56.932421875 20.9947265625 56.2 29.5 55.5056640625 38.0015625 53.3 44.05 52.1 47.2 50.55 50.1 46.05 58.4 33.65 57.2 21.35 56.05 14.1 48.9 13.3 48.1 12.6 47.25 6.9 40.65 6.9 31.8 6.9 30.05 7.1 28.4
L 7.1 28.35 3.55 31.75
Q 3.587109375 42.786328125 11.6 50.65 19.55 58.55 33.25 59.85 46.95 61.1 51.95 51.9 56.9 42.75 58.4 30.55 59.0427734375 25.1646484375 58.05 20.45
L 57.65 18.2
Q 56.605859375 15.5232421875 53.15 14.2
L 54.05 14.7 53.15 14.3 Z"/>

<path fill="url(#Gradient_1)" stroke="none" d="
M 53.15 14.3
L 53.05 14.25
Q 50.687890625 13.9048828125 43.8 14.2 36.75 14.45 26.45 17 16.1 19.55 7.1 28.4 6.9 30.05 6.9 31.8 6.9 40.65 12.6 47.25 40.0396484375 56.2759765625 53.3 44.05 55.5056640625 38.0015625 56.2 29.5 56.932421875 20.9947265625 53.2 14.45
L 53.15 14.3 Z"/>
</g>

<g id="Duplicate_Items_Folder_eye_copy_2_0_Layer0_0_FILL">
<path fill="#000000" stroke="none" d="
M 4.2 18.8
L 10.2 10.75
Q 11.4 9.5 10.45 8.25 3.85 4.1 -1.4 -4.4 1.7 4.65 6.25 10.75 -3.95 8.05 -13.95 0.9 -7.75 9.85 3.95 14.45 -3.75 16.15 -16.1 12.5 -4.75 19.85 4.2 18.8 Z"/>
</g>

<g id="Duplicate_Items_Folder_nose_copy_0_Layer0_0_FILL">
<path fill="#000000" stroke="none" d="
M 5.3 0.1
Q 3.5 0.75 2.05 2.5 0.6 4.25 0.15 6.6 -0.25 8.85 0.3 11.1 0.95 13.4 2.4 13.15 3.9 12.8 5.15 11.35 6.4 10 6.8 7.75 7.25 5.45 7.2 2.45 7.2 -0.55 5.3 0.1
M 12.05 6.25
Q 11.75 5.2 11.05 5.05 10.35 4.95 9.7 5.85 9.1 6.85 8.8 8.35 8.55 9.9 8.75 11.05 9.05 12.2 10.7 12.7 12.3 13.2 12.5 12.05 12.65 10.85 12.5 9.15 12.3 7.45 12.05 6.25 Z"/>
</g>

<g id="mouth_0_Layer2_0_FILL">
<path fill="#A7A5B8" stroke="none" d="
M 37.1 4.3
L 37 3
Q 35.071484375 3.4892578125 33.15 3.9
L 32.35 1.05 31.45 1.05 32.3 4.1
Q 29.85078125 4.6947265625 27.35 5.2
L 27.1 3.85 26.25 3.85 26.55 5.35
Q 23.887890625 5.9046875 21.2 6.35
L 21.1 4.25 20.4 4.25 20.55 6.45
Q 18.7458984375 6.7806640625 16.95 7.05
L 16.95 7.8 17 7.8 17 8.35
Q 18.8130859375 8.091015625 20.6 7.8
L 20.75 9.85 21.45 9.85 21.3 7.65
Q 24.0720703125 7.2208984375 26.8 6.65
L 27.65 10.65 27.9 10.6 27.9 10.65 28.45 10.45 27.65 6.5
Q 30.1650390625 5.987890625 32.65 5.4
L 33.4 8 33.6 7.85 33.65 8 34.15 7.55 33.5 5.2
Q 35.3015625 4.769921875 37.1 4.3 Z"/>
</g>

<g id="mouth_0_Layer1_0_FILL">
<path fill="#000000" stroke="none" d="
M 17.75 8.4
L 17.75 8.95
Q 27.9 7.5 37.85 4.9
L 37.8 4.15 37.75 4.15 37.75 3.6
Q 27.7 6.15 17.7 7.65
L 17.7 8.4
Q 17.725 8.396484375 17.75 8.4 Z"/>
</g>

<g id="mouth_0_Layer0_0_FILL">
<path fill="#000000" stroke="none" d="
M 21.85 4.85
L 21.15 4.85 21.5 10.45 22.2 10.45 21.85 4.85
M 27.85 4.45
L 27 4.45 28.4 11.25 28.6 11.15 28.65 11.25 29.2 11.05 27.85 4.45
M 34.4 8.6
L 34.9 8.15 33.1 1.65 32.2 1.65 34.15 8.6 34.35 8.4 34.4 8.6 Z"/>
</g>
</defs>

<g transform="matrix( 6.6776580810546875, 0, 0, 6.6776580810546875, 21,522.8) ">
<g transform="matrix( 0.333953857421875, 0.0046844482421875, -0.0046844482421875, 0.333953857421875, 21.85,-21.05) ">
<g transform="matrix( 1, 0, 0, 1, 0,0) ">
<use xlink:href="#Duplicate_Items_Folder_leg_suit_copy_2_0_Layer0_0_FILL"/>
</g>
</g>

<g transform="matrix( 0.3328704833984375, -0.0264129638671875, 0.0264129638671875, 0.3328704833984375, 12.65,-40.45) ">
<g transform="matrix( 1, 0, 0, 1, 0,0) ">
<use xlink:href="#Duplicate_Items_Folder_arm_suit_copy_2_0_Layer0_0_FILL"/>
</g>
</g>

<g transform="matrix( -0.333984375, 0, 0, 0.333984375, 59.9,-20.05) ">
<g transform="matrix( 1, 0, 0, 1, 0,0) ">
<use xlink:href="#Duplicate_Items_Folder_leg_suit_copy_2_0_Layer0_0_FILL"/>
</g>
</g>

<g transform="matrix( 0.333984375, -0.013916015625, 0.009796142578125, 0.3336029052734375, 39.6,-29.6) ">
<g transform="matrix( 1, 0, 0, 1, 0,0) ">
<use xlink:href="#Duplicate_Items_Folder_body_suit_copy_2_0_Layer4_0_FILL"/>
</g>

<g transform="matrix( 1, 0, 0, 1, 0,0) ">
<use xlink:href="#Duplicate_Items_Folder_body_suit_copy_2_0_Layer2_0_FILL"/>
</g>

<g transform="matrix( 1, 0, 0, 1, 0,0) ">
<use xlink:href="#Duplicate_Items_Folder_body_suit_copy_2_0_Layer1_0_FILL"/>
</g>

<g transform="matrix( 1, 0, 0, 1, 0,0) ">
<use xlink:href="#Duplicate_Items_Folder_body_suit_copy_2_0_Layer0_0_FILL"/>
</g>
</g>

<g transform="matrix( -0.332763671875, -0.0277252197265625, -0.0277252197265625, 0.332763671875, 66.85,-40.05) ">
<g transform="matrix( 1, 0, 0, 1, 0,0) ">
<use xlink:href="#Duplicate_Items_Folder_arm_suit_copy_2_0_Layer0_0_FILL"/>
</g>
</g>

<g transform="matrix( -0.2664642333984375, 0.0593414306640625, 0.0696868896484375, 0.26373291015625, 55.85,-81.1) ">
<g transform="matrix( 1, 0, 0, 1, 0,0) ">
<use xlink:href="#Duplicate_Items_Folder_head_copy_4_0_Layer2_0_FILL"/>
</g>

<g transform="matrix( 1, 0, 0, 1, 0,0) ">
<use xlink:href="#Duplicate_Items_Folder_head_copy_4_0_Layer1_0_FILL"/>
</g>

<g transform="matrix( 1, 0, 0, 1, 0,0) ">
<use xlink:href="#Duplicate_Items_Folder_head_copy_4_0_Layer0_0_FILL"/>
</g>
</g>

<g transform="matrix( -0.31988525390625, 0, 0, 0.31988525390625, 47.65,-62.2) ">
<g transform="matrix( 1, 0, 0, 1, 0,0) ">
<use xlink:href="#Duplicate_Items_Folder_pupil_0_Layer0_0_FILL"/>
</g>
</g>

<g transform="matrix( 0.20562744140625, 0, 0, 0.20562744140625, 26.65,-59.6) ">
<g transform="matrix( 1, 0, 0, 1, 0,0) ">
<use xlink:href="#Duplicate_Items_Folder_pupil_0_Layer0_0_FILL"/>
</g>
</g>

<g transform="matrix( -0.307891845703125, 0, 0, 0.3219451904296875, 61.5,-57.85) ">
<g transform="matrix( 1, 0, 0, 1, 0,0) ">
<use xlink:href="#Duplicate_Items_Folder_ear_0_Layer0_0_FILL"/>
</g>
</g>

<g transform="matrix( -0.296875, 0, 0, 0.296875, 54.35,-68.45) ">
<g transform="matrix( 1, 0, 0, 1, 0,0) ">
<use xlink:href="#Duplicate_Items_Folder_eye_copy_2_0_Layer1_0_FILL"/>
</g>

<g transform="matrix( 1, 0, 0, 1, 0,0) ">
<use xlink:href="#Duplicate_Items_Folder_eye_copy_2_0_Layer0_0_FILL"/>
</g>
</g>

<g transform="matrix( 0.2352752685546875, 0, 0, 0.21112060546875, 19.7,-63.8) ">
<g transform="matrix( 1, 0, 0, 1, 0,0) ">
<use xlink:href="#Duplicate_Items_Folder_eye_copy_2_0_Layer1_0_FILL"/>
</g>

<g transform="matrix( 1, 0, 0, 1, 0,0) ">
<use xlink:href="#Duplicate_Items_Folder_eye_copy_2_0_Layer0_0_FILL"/>
</g>
</g>

<g transform="matrix( -0.33697509765625, -0.085906982421875, -0.085906982421875, 0.33697509765625, 38.15,-52.05) ">
<g transform="matrix( 1, 0, 0, 1, 0,0) ">
<use xlink:href="#Duplicate_Items_Folder_nose_copy_0_Layer0_0_FILL"/>
</g>
</g>

<g transform="matrix( 0.45428466796875, 0, 0, 0.45428466796875, 26.1,-49.3) ">
<g transform="matrix( 1, 0, 0, 1, 0,0) ">
<use xlink:href="#mouth_0_Layer2_0_FILL"/>
</g>

<g transform="matrix( 1, 0, 0, 1, 0,0) ">
<use xlink:href="#mouth_0_Layer1_0_FILL"/>
</g>

<g transform="matrix( 1, 0, 0, 1, 0,0) ">
<use xlink:href="#mouth_0_Layer0_0_FILL"/>
</g>
</g>

<g transform="matrix( 0.291839599609375, 0, 0, 0.291839599609375, 26.4,-59.6) ">
<g transform="matrix( 1, 0, 0, 1, 0,0) ">
<use xlink:href="#Duplicate_Items_Folder_pupil_0_Layer0_0_FILL"/>
</g>
</g>

<g transform="matrix( -0.45428466796875, 0, 0, 0.45428466796875, 46.5,-62.75) ">
<g transform="matrix( 1, 0, 0, 1, 0,0) ">
<use xlink:href="#Duplicate_Items_Folder_pupil_0_Layer0_0_FILL"/>
</g>
</g>
</g>
</svg>
