
<svg xmlns="http://www.w3.org/2000/svg" version="1.1" xmlns:xlink="http://www.w3.org/1999/xlink" preserveAspectRatio="none" x="0px" y="0px" width="560px" height="544px" viewBox="0 0 560 544">
<defs>
<radialGradient id="Gradient_1" gradientUnits="userSpaceOnUse" cx="0" cy="0" r="10.495750628230455" fx="0" fy="0" gradientTransform="matrix( -0.9349021663688624, -0.3549055357680522, -0.3572874521154888, 0.9420479154111722, 3.15,-1.25) " spreadMethod="pad">
<stop  offset="24.313725490196077%" stop-color="#B12FEA"/>

<stop  offset="64.31372549019608%" stop-color="#7B0D0D"/>

<stop  offset="83.92156862745098%" stop-color="#36115E"/>
</radialGradient>

<filter id="Filter_1" x="-20%" y="-20%" width="140%" height="140%" color-interpolation-filters="sRGB">
<feColorMatrix in="SourceGraphic" type="matrix" values="1.5226578400000002 -0.30201864 -0.0406392 0 -0.007803921568627477 -0.15294216 1.37358136 -0.0406392 0 -0.007803921568627477 -0.15294216 -0.30201864 1.6349608000000002 0 -0.007803921568627477 0 0 0 1 0 " result="result1"/>
</filter>

<g id="Duplicate_Items_Folder_body_front_copy_4_0_Layer2_0_FILL">
<path fill="#241C17" stroke="none" d="
M -22.5 -27.2
Q -28.25 -22.7 -31.15 -17.3 -35.1 -10.25 -35.55 1.1 -36.05 12.2 -32.8 20.8 -29.4943359375 29.2044921875 -20.25 29.7 -11.0173828125 30.2359375 -8.2 23.15 -5.3328125 16.1138671875 -5.25 0.7 -5.105859375 -14.7046875 -7.05 -25.25 -9.1 -35.95 -18.05 -30.25 -20.4 -28.7 -22.5 -27.2
M 12.1 -28
Q 10.05 -29.55 7.7 -31 -1.25 -36.75 -3.35 -26.1 -5.2958984375 -15.55 -5.05 0.2 -4.7626953125 15.95 -1.85 23.1 1.1125 30.3 10.1 29.3 19.095703125 28.35 22.45 20 25.65 11.35 25.15 0.25 24.75 -11.05 20.75 -18.1 17.85 -23.5 12.1 -28 Z"/>
</g>

<g id="Duplicate_Items_Folder_body_front_copy_4_0_Layer1_0_FILL">
<path fill="#000000" stroke="none" d="
M 9.2 -16.45
Q 9.141015625 -16.61484375 9.05 -16.8 7.5783203125 -20.6892578125 4.6 -21.65 0 -22.9 -4.2 -23.15
L -4.2 -23.25
Q -4.55 -23.25 -4.95 -23.15 -5.15 -23.25 -5.35 -23.25
L -5.35 -23.15
Q -9.55 -22.85 -14.15 -21.65 -17.1078125 -20.6958984375 -18.6 -16.85 -18.68125 -16.642578125 -18.75 -16.45 -19.7958984375 -15.5294921875 -23.5 -8.2 -24.183984375 -6.7728515625 -25 -5.1 -27.09375 -0.9873046875 -27.5 2.7 -27.6130859375 3.9892578125 -27.55 5.2 -27.2931640625 9.008984375 -23.95 14.15 -23.3982421875 15.0423828125 -22.75 15.95 -18.3 22.2 -9.4 23.05 -7.2 23.25 -5.35 23.35
L -5.35 23.4
Q -5.05 23.4 -4.75 23.4 -4.45 23.4 -4.2 23.4
L -4.2 23.35
Q -2.4 23.25 -0.2 23.05 8.75 22.2 13.2 15.95 13.691796875 15.2615234375 14.1 14.6 15.78515625 12.0947265625 16.7 9.9 17.8298828125 7.337109375 17.95 5.2 18.015234375 4.1552734375 17.9 3.05 17.640625 -0.7970703125 15.45 -5.1 14.67890625 -6.665234375 14 -8.05 13.13671875 -9.7345703125 12.4 -11.1 9.984765625 -15.7306640625 9.2 -16.45
M 0.3 -20.35
Q 5.0478515625 -19.2453125 6.7 -16.8 6.79609375 -16.6583984375 6.9 -16.5 8.4673828125 -14.0509765625 11.3 -7.65 11.4373046875 -7.3388671875 11.55 -7.05 13.997265625 -1.508203125 14.4 3.55 14.53515625 5.248828125 14.45 6.85 14.56796875 7.4392578125 14.4 8.05 14.3150390625 8.399609375 14.15 9.65 13.984765625 10.9064453125 13.65 11.7 13.3125 12.5318359375 12.8 13.35 12.34453125 14.2263671875 12.4 14.5 12.41640625 14.5771484375 11.65 14.65 11.7404296875 15.421875 9.95 17.05 8.3625 18.4517578125 5.55 19.5 2.7392578125 20.5373046875 3.55 20.2 4.4076171875 19.870703125 0.4 20.65 -3.5546875 21.4201171875 -5.65 21.3 -7.7033203125 21.1875 -8 21.25 -8.243359375 21.35625 -12.15 20.65 -16.04296875 19.9423828125 -18.1 18.2 -20.1626953125 16.450390625 -21.3 14.65 -21.3375 14.59140625 -21.4 14.5 -22.4537109375 12.8423828125 -22.7 12.3 -22.9033203125 11.7236328125 -23.75 10.7 -24.60546875 9.68125 -25.1 6.65 -25.3236328125 5.0822265625 -25.1 3.1 -24.881640625 1.363671875 -24.3 -0.7 -23.043359375 -5.040234375 -22.8 -5.8 -22.613671875 -6.2611328125 -21.6 -7.95 -20.95 -9.0134765625 -19.95 -10.65 -17.59375 -14.2966796875 -16.3 -16.55 -16.1294921875 -16.7548828125 -16 -17 -14.6509765625 -19.254296875 -9.85 -20.35 -9.5 -20.45 -9.1 -20.55 -8.6 -20.7 -8.05 -20.75 -7.55 -20.85 -7.2 -20.8
L -5.35 -20.75 -5.25 -20.75 -2.4 -20.8
Q -2 -20.85 -1.5 -20.75 -1 -20.7 -0.45 -20.55 -0.05 -20.45 0.3 -20.35 Z"/>

<path fill="#695441" stroke="none" d="
M -2.6 15.65
L -0.9 15.65
Q 5.638671875 15.538671875 11.65 14.65 12.41640625 14.5771484375 12.4 14.5 12.34453125 14.2263671875 12.8 13.35 13.3125 12.5318359375 13.65 11.7 13.984765625 10.9064453125 14.15 9.65 14.3150390625 8.399609375 14.4 8.05 14.56796875 7.4392578125 14.45 6.85 14.53515625 5.248828125 14.4 3.55 13.61328125 3.6794921875 12.8 3.75 -4.66328125 5.805859375 -22.3 3.5 -23.6935546875 3.315234375 -25.1 3.1 -25.3236328125 5.0822265625 -25.1 6.65 -24.60546875 9.68125 -23.75 10.7 -22.9033203125 11.7236328125 -22.7 12.3 -22.4537109375 12.8423828125 -21.4 14.5 -21.326171875 14.53125 -21.3 14.55 -15.110546875 15.325390625 -8.9 15.55
L -8.9 15.45
Q -8.209375 15.6806640625 -6.1 15.65 -3.9849609375 15.6671875 -2.6 15.65
M 12.3 10
L 12.25 9.95
Q 12.311328125 9.9228515625 12.35 9.9 12.3 9.95 12.3 10
M 6.9 -16.5
Q 4.9216796875 -16.2724609375 2.95 -16.15 -4.843359375 -15.5228515625 -12.55 -16.15 -14.401171875 -16.2962890625 -16.3 -16.55 -17.59375 -14.2966796875 -19.95 -10.65 -20.95 -9.0134765625 -21.6 -7.95 -18.928515625 -7.5404296875 -16.25 -7.3 -4.9095703125 -6.1517578125 6.4 -7.15 8.8640625 -7.3359375 11.3 -7.65 8.4673828125 -14.0509765625 6.9 -16.5 Z"/>

<path fill="#FDCC9B" stroke="none" d="
M 12.25 9.95
L 12.3 10
Q 12.3 9.95 12.35 9.9 12.311328125 9.9228515625 12.25 9.95 Z"/>

<path fill="#392D24" stroke="none" d="
M -18.1 18.2
Q -16.04296875 19.9423828125 -12.15 20.65 -8.243359375 21.35625 -8 21.25 -7.7033203125 21.1875 -5.65 21.3 -3.5546875 21.4201171875 0.4 20.65 4.4076171875 19.870703125 3.55 20.2 2.7392578125 20.5373046875 5.55 19.5 8.3625 18.4517578125 9.95 17.05 11.7404296875 15.421875 11.65 14.65 5.638671875 15.538671875 -0.9 15.65
L -2.6 15.65
Q -3.9849609375 15.6671875 -6.1 15.65 -8.209375 15.6806640625 -8.9 15.45
L -8.9 15.55
Q -15.110546875 15.325390625 -21.3 14.55 -21.326171875 14.53125 -21.4 14.5 -21.3375 14.59140625 -21.3 14.65 -20.1626953125 16.450390625 -18.1 18.2
M 11.55 -7.05
Q 11.4373046875 -7.3388671875 11.3 -7.65 8.8640625 -7.3359375 6.4 -7.15 -4.9095703125 -6.1517578125 -16.25 -7.3 -18.928515625 -7.5404296875 -21.6 -7.95 -22.613671875 -6.2611328125 -22.8 -5.8 -23.043359375 -5.040234375 -24.3 -0.7 -24.881640625 1.363671875 -25.1 3.1 -23.6935546875 3.315234375 -22.3 3.5 -4.66328125 5.805859375 12.8 3.75 13.61328125 3.6794921875 14.4 3.55 13.997265625 -1.508203125 11.55 -7.05
M 6.7 -16.8
Q 5.0478515625 -19.2453125 0.3 -20.35 -0.05 -20.45 -0.45 -20.55 -1 -20.7 -1.5 -20.75 -1.7 -20.75 -1.85 -20.75 -2.05 -20.8 -2.2 -20.8
L -2.4 -20.8 -5.25 -20.75
Q -5.3 -20.65 -5.35 -20.5
L -5.35 -20.75 -7.2 -20.8 -7.35 -20.8
Q -7.5 -20.8 -7.75 -20.75 -7.9 -20.75 -8.05 -20.75 -8.6 -20.7 -9.1 -20.55 -9.5 -20.45 -9.85 -20.35 -14.6509765625 -19.254296875 -16 -17 -16.1294921875 -16.7548828125 -16.3 -16.55 -14.401171875 -16.2962890625 -12.55 -16.15 -4.843359375 -15.5228515625 2.95 -16.15 4.9216796875 -16.2724609375 6.9 -16.5 6.79609375 -16.6583984375 6.7 -16.8 Z"/>

<path fill="#928943" stroke="none" d="
M -5.35 -20.5
Q -5.3 -20.65 -5.25 -20.75
L -5.35 -20.75 -5.35 -20.5
M -8.05 -20.75
Q -7.9 -20.75 -7.75 -20.75 -7.5 -20.8 -7.35 -20.8
L -7.2 -20.8
Q -7.55 -20.85 -8.05 -20.75
M -1.5 -20.75
Q -2 -20.85 -2.4 -20.8
L -2.2 -20.8
Q -2.05 -20.8 -1.85 -20.75 -1.7 -20.75 -1.5 -20.75 Z"/>
</g>

<g id="Duplicate_Items_Folder_body_front_copy_4_0_Layer0_0_FILL">
<path fill="#CC0000" stroke="none" d="
M 3.85 10.45
Q 2.84765625 10.44921875 2.2 11.5 1.6064453125 12.5517578125 2.6 13.9 3.593359375 15.298046875 3.2 16.55 2.8521484375 17.8005859375 3.85 17.8 4.85 17.8 5.6 16.7 6.4 15.65 6.4 14.15 6.4 12.6 5.6 11.5 4.85 10.45 3.85 10.45
M -15 11.2
Q -12.886328125 11.4470703125 -12.8 9.95 -12.6595703125 8.50546875 -13.6 6.05 -14.4953125 3.643359375 -14.15 2.05 -13.751171875 0.5021484375 -14.8 0.5 -15.8 0.5 -16.5 1.8 -17.2044921875 3.152734375 -17.25 5.05 -17.2861328125 6.9916015625 -17.2 8.95 -17.1177734375 10.9580078125 -15 11.2
M -4.8 -10.15
Q -6.1 -10.15 -7.05 -8.3 -7.95 -6.4 -8 -3.65 -8.1 -0.9 -7.9 1.55 -7.75 3.95 -6.1 3.35 -4.5 2.75 -3.85 1.8 -4 3.8 -3.3 4.7 -2.4 5.95 -1.2 7.4 0 8.85 1 6.65 2 4.45 2.05 2.25 2.05 0.05 1.15 -1.2 0.3 -2.35 -0.95 -2.45 -1.65 -3.3 -1.65 -3.7 -1.65 -6.4 -2.6 -8.3 -3.5 -10.15 -4.8 -10.15 Z"/>
</g>

<g id="Duplicate_Items_Folder_foot_copy_12_0_Layer3_0_FILL">
<path fill="#0C0D30" stroke="none" d="
M -16.8 16.7
Q -16.65 17 -16.4 17.25 -17.5 20.7 -17.25 23.9 -18.7 24.55 -18.65 26.55 -18.95 28.2 -16.6 28.35 -14.95 31.35 -13.3 32.85
L -8.75 34.15
Q -4.2 34.9 -1.45 32.8 -0.1 29.2 -0.9 27.05 -1.15 26.3 -1.65 25.55 -2.25 24.6 -3.3 23.75
L -6.95 22.8 -10.2 22.95 -6.95 22.8 -5.4 19.65
Q -4.65 20 -3.55 18.8 -5.05 16.25 -7.3 15.6
L -14.25 14.45
Q -15.65 13.75 -17.1 15.05 -17.8 15.4 -16.8 16.7
M -14.45 15.5
Q -13.6 15.6 -12.6 15.75 -11.7 15.9 -10.55 16.15 -8.35 16.65 -6.8 17.35 -5.3 18.05 -5.35 18.35 -5.35 18.4 -5.6 18.55 -5.9943359375 18.7046875 -7.45 18.8 -8.867578125 18.9359375 -11.1 18.3 -13.2826171875 17.7140625 -14.45 17.05 -15.605859375 16.4453125 -15.85 16.2 -16.1 16.1 -16.15 15.95 -16.2 15.9 -16.2 15.8 -16.1 15.45 -14.45 15.5
M -8.85 24.5
Q -7.25 23.55 -5.35 23.65 -3.5 23.75 -1.95 25.5 -0.5 27.3 -0.9 27.85 -1.2 28.4 -1.65 29.45 -2.05 30.45 -3.65 30.25 -5.3 30.05 -7.15 30.25 -8.95 30.45 -10.1 29.35 -11.1 28.25 -10.7 26.9 -10.45 25.45 -8.85 24.5 Z"/>

<path fill="#171F60" stroke="none" d="
M -5.35 23.65
Q -7.25 23.55 -8.85 24.5 -10.45 25.45 -10.7 26.9 -11.1 28.25 -10.1 29.35 -8.95 30.45 -7.15 30.25 -5.3 30.05 -3.65 30.25 -2.05 30.45 -1.65 29.45 -1.2 28.4 -0.9 27.85 -0.5 27.3 -1.95 25.5 -3.5 23.75 -5.35 23.65 Z"/>

<path fill="#000000" stroke="none" d="
M -12.6 15.75
Q -13.6 15.6 -14.45 15.5 -16.1 15.45 -16.2 15.8 -16.2 15.9 -16.15 15.95 -16.1 16.1 -15.85 16.2 -15.605859375 16.4453125 -14.45 17.05 -13.2826171875 17.7140625 -11.1 18.3 -8.867578125 18.9359375 -7.45 18.8 -5.9943359375 18.7046875 -5.6 18.55 -5.35 18.4 -5.35 18.35 -5.3 18.05 -6.8 17.35 -8.35 16.65 -10.55 16.15 -11.7 15.9 -12.6 15.75 Z"/>
</g>

<g id="Duplicate_Items_Folder_foot_copy_12_0_Layer2_0_FILL">
<path fill="#4E3D32" stroke="none" d="
M -9.25 -3.5
Q -10.3 -1.8 -9.5 -0.15 -9.5 0.55 -9.3 1.3 -9.4 1.4 -9.3 1.45
L -9.25 1.45
Q -10.55 2.6 -10.25 3.95 -10.09296875 4.8291015625 -9.95 6 -9.84296875 6.7314453125 -12.15 17.05 -10.322265625 18.3876953125 -8.1 17.95 -5.6 8.95 -5.55 8.9 -5.331640625 8.2810546875 -5 7.45 -4.8859375 7.13984375 -4.75 6.8 -4.3 5.55 -3.75 4.3 -3.6 3.65 -3.45 3.2 -3.4 2.8 -3.3 2.45 -3.25 2.3 -3.2 2.05
L -3.25 2.05
Q -3.25 1.9 -3.2 1.7 -3.25 1.5 -3.15 1.3 -3.2 1.25 -3.2 0.85 -3.2 0.8 -3.2 0.65 -3.45 0.05 -4.15 -1.8 -4.9 -3.7 -8.85 -3.45 -9.05 -3.5 -9.15 -3.5
L -9.25 -3.5 Z"/>

<path fill="#090909" stroke="none" d="
M -10.45 -2.75
Q -11.05 -2.25 -11.45 -1.75 -11.9 1.75 -11.5 5.35
L -13.05 15.6 -12.15 17.05
Q -9.84296875 6.7314453125 -9.95 6 -10.09296875 4.8291015625 -10.25 3.95 -10.55 2.6 -9.25 1.45
L -9.3 1.45
Q -9.4 1.4 -9.3 1.3 -9.5 0.55 -9.5 -0.15 -10.3 -1.8 -9.25 -3.5 -9.5 -3.4 -9.75 -3.3 -10.1 -3.15 -10.45 -2.75 Z"/>

<path fill="#000000" stroke="none" d="
M -11.25 -3.7
L -11.3 -3.6
Q -12.8 -0.6 -12.5 2.15 -12.2876953125 4.144921875 -12.4 5.3 -12.4197265625 5.51875 -13.6 15.2
L -13.05 15.6 -11.5 5.35
Q -11.9 1.75 -11.45 -1.75 -11.05 -2.25 -10.45 -2.75 -10.1 -3.15 -9.75 -3.3 -9.5 -3.4 -9.25 -3.5
L -9.15 -3.5
Q -9.05 -3.5 -8.85 -3.45 -4.9 -3.7 -4.15 -1.8 -3.45 0.05 -3.2 0.65 -3.2 0.8 -3.2 0.85 -3.2 1.25 -3.15 1.3 -3.25 1.5 -3.2 1.7 -3.25 1.9 -3.25 2.05
L -3.2 2.05
Q -3.25 2.3 -3.3 2.45 -3.4 2.8 -3.45 3.2 -3.6 3.65 -3.75 4.3 -4.3 5.55 -4.75 6.8 -4.8859375 7.13984375 -5 7.45 -5.331640625 8.2810546875 -5.55 8.9 -5.6 8.95 -8.1 17.95
L -7.2 17.3
Q -3.9626953125 8.6818359375 -3.65 7.85 -3.42734375 7.375390625 -3.25 6.95 -2.95 5.6 -2.6 4.4 -2.4 3.5 -2.15 2.7 -2.1 2.5 -2 2.15 -1.95 2 -1.9 1.75
L -1.95 1.75
Q -1.85 1.1 -1.8 0.7 -2 0.05 -3.05 -2.55 -3.55 -3.3 -4.4 -3.9 -6.05 -4.75 -9.05 -4.65 -9.25 -4.65 -9.75 -4.65 -10.35 -4.6 -10.9 -4.05
L -10.9 -4.1 -11.25 -3.7 Z"/>
</g>

<g id="Duplicate_Items_Folder_foot_copy_12_0_Layer0_0_FILL">
<path fill="#CC0000" stroke="none" d="
M -14.95 28.7
Q -14.5537109375 29.1498046875 -14.2 29.25 -13.85 29.35 -13.5 28.85 -13.15 28.4 -12.95 27.7 -12.8 26.95 -12.85 26.35 -12.9 25.75 -13.25 25.65 -13.5962890625 25.55 -14.45 26.3 -15.2611328125 27.0494140625 -15.3 27.65 -15.2888671875 28.300390625 -14.95 28.7
M -9.6 24
Q -10.6 23.7 -11.35 23.75 -12.1 23.85 -12.25 24.3 -12.35 24.75 -11.75 25.2 -11.1 25.7 -10.1 26 -9.648828125 26.12890625 -9.25 26.15 -9.26640625 26.5240234375 -8.6 27 -7.85 27.5 -6.85 27.75 -5.8 28.05 -4.95 28 -4.1 27.95 -4.05 27.6 -3.95 27.25 -4.65 26.75 -5.35 26.25 -6.4 25.95 -6.92421875 25.8189453125 -7.45 25.75 -7.408203125 25.7365234375 -7.4 25.7 -7.25 25.25 -7.9 24.75 -8.55 24.3 -9.6 24 Z"/>
</g>

<g id="Duplicate_Items_Folder_arm__copy_7_0_Layer1_0_FILL">
<path fill="#000000" stroke="none" d="
M 13.65 6.7
Q 13.79375 6.5896484375 13.9 6.5
L 13.7 5.95 13.35 7.15
Q 13.5216796875 6.9599609375 13.65 6.7
M 13.75 -0.65
Q 13.6759765625 -0.70546875 13.6 -0.8
L 12.95 -0.3 14.25 -0.25
Q 14.0232421875 -0.4353515625 13.75 -0.65
M 11.5 -2.3
Q 11 -2.6 10.55 -2.95 9.9529296875 -3.36328125 0.8 -7.4 -4.2240234375 -8.7724609375 -4.9 -8 -5.2 -7.75 -5.35 -7.3 -5.65 -6.8 -5.55 -6.2 -5.55 -5 -4.25 -3.95 -3 -2.9 -1.9 -2.2 -1.45 -2 -0.2 -1.85 0.8 -1.7 2.65 -0.85 4.05 0 4.4 0.2 5 0.6 5.95 1.15 8.2619140625 3.760546875 6.95 5.65 5.6958984375 7.5962890625 5.8 7.7 6.45 8.3 7.25 8.15 7.2 8.2 7.2 8.35 7.2 8.8994140625 7.9 9.3
L 8.3 6.75 7.9 9.3
Q 8.102734375 9.403125 8.35 9.5 9.4 10 10.2 9.35 10.3330078125 9.261328125 10.5 9.1
L 10.2 6.65 10.5 9.1
Q 10.5275390625 9.1169921875 10.55 9.1 10.6 9 10.7 8.9 10.7392578125 8.841015625 10.75 8.75 11.802734375 8.1529296875 12.3 8 12.90078125 7.8998046875 13.35 7.15
L 13.7 5.95 13.9 6.5
Q 14.5796875 5.9892578125 14.85 5.8 15.392578125 5.4744140625 15.75 4.7
L 14.85 4.75 15.75 4.7
Q 15.9255859375 4.409375 16.05 4.05 16.15 3.8 16.2 3.55 16.25 3.15 16.3 2.85 16.3 2.5376953125 16.25 2.2
L 14.35 2.9 16.25 2.2
Q 16.2306640625 2.0876953125 16.2 1.95 15.95 1.1 15 0.35 15 0.3 14.95 0.25 14.6451171875 0.0365234375 14.25 -0.25
L 12.95 -0.3 13.6 -0.8
Q 13.051171875 -1.1740234375 12.35 -1.7 11.95 -2 11.5 -2.3 Z"/>
</g>

<g id="Duplicate_Items_Folder_arm__copy_7_0_Layer0_0_FILL">
<path fill="#000000" stroke="none" d="
M 13.65 6.7
Q 13.79375 6.5896484375 13.9 6.5
L 13.7 5.95 13.35 7.15
Q 13.5216796875 6.9599609375 13.65 6.7
M 14.25 -0.25
Q 14.0232421875 -0.4353515625 13.75 -0.65 13.6759765625 -0.70546875 13.6 -0.8
L 12.95 -0.3 14.25 -0.25
M 13.6 -0.8
Q 13.051171875 -1.1740234375 12.35 -1.7 11.95 -2 11.5 -2.3 11 -2.6 10.55 -2.95 9.9529296875 -3.36328125 0.8 -7.4 -4.2240234375 -8.7724609375 -4.9 -8 -5.2 -7.75 -5.35 -7.3 -5.65 -6.8 -5.55 -6.2 -5.55 -5 -4.25 -3.95 -3 -2.9 -1.9 -2.2 -1.45 -2 -0.2 -1.85 0.8 -1.7 2.65 -0.85 4.05 0 4.4 0.2 5 0.6 5.95 1.15 8.2619140625 3.760546875 6.95 5.65 5.6958984375 7.5962890625 5.8 7.7 6.45 8.3 7.25 8.15 7.2 8.2 7.2 8.35 7.2 8.8994140625 7.9 9.3
L 8.3 6.75 7.9 9.3
Q 8.102734375 9.403125 8.35 9.5 9.4 10 10.2 9.35 10.3330078125 9.261328125 10.5 9.1
L 10.2 6.65 10.5 9.1
Q 10.5275390625 9.1169921875 10.55 9.1 10.6 9 10.7 8.9 10.7392578125 8.841015625 10.75 8.75 11.802734375 8.1529296875 12.3 8 12.90078125 7.8998046875 13.35 7.15
L 13.7 5.95 13.9 6.5
Q 14.5796875 5.9892578125 14.85 5.8 15.392578125 5.4744140625 15.75 4.7
L 14.85 4.75 15.75 4.7
Q 15.9255859375 4.409375 16.05 4.05 16.15 3.8 16.2 3.55 16.25 3.15 16.3 2.85 16.3 2.5376953125 16.25 2.2
L 14.35 2.9 16.25 2.2
Q 16.2306640625 2.0876953125 16.2 1.95 15.95 1.1 15 0.35 15 0.3 14.95 0.25 14.6451171875 0.0365234375 14.25 -0.25
L 12.95 -0.3 13.6 -0.8 Z"/>
</g>

<g id="Duplicate_Items_Folder_head_copy_43_0_Layer5_0_FILL">
<path fill="#CC0000" stroke="none" d="
M -11.55 20.5
L -11.5 20.55
Q -10 24.05 -8.15 24.05 -8.2 22.85 -8.2 21.45
L -8.2 21.4
Q -9.688671875 18.96171875 -11.55 20.5
M -19.2 19.3
Q -19.05 18.15 -18.8 16.75 -18.6958984375 16.166796875 -18.6 15.65 -20.375 16.1953125 -22.2 13.75 -22.11796875 14.466015625 -21.9 15.35 -21 19 -19.2 19.3
M 4.25 21.85
Q 3.079296875 20.48203125 0.95 22.45 0.95 22.6384765625 0.95 22.8 0.9 24.25 0.85 25.4 2.65 25.45 4.2 22 4.2328125 21.9279296875 4.25 21.85
M 14.1 16.65
Q 12.4 18.9208984375 10.65 17.95 10.741796875 18.3419921875 10.8 18.75 11 20.15 11.1 21.25 12.9 21.05 13.95 17.4 14.0478515625 17.0291015625 14.1 16.65 Z"/>

<path fill="#FFFFFF" stroke="none" d="
M -11.15 15.85
Q -12.890625 17.093359375 -11.55 20.5 -9.688671875 18.96171875 -8.2 21.4 -8.14375 18.5900390625 -7.45 17.5 -6.75 16.3 -7.4 16.1
L -8.15 16.1
Q -8.2 16 -8.35 15.95 -9.55 14.7 -11.15 15.85
M -17.2 11.6
L -17.95 11.5
Q -18 11.35 -18.05 11.3 -19.15 9.9 -20.9 10.75 -22.33984375 11.469921875 -22.2 13.75 -20.375 16.1953125 -18.6 15.65 -18.1333984375 13.7416015625 -17.5 12.95 -16.65 11.85 -17.2 11.6
M 4.05 17.3
Q 2.45 16.1 1.2 17.35 1.05 17.35 1.05 17.5
L 0.25 17.45
Q -0.4 17.6 0.3 18.8 0.9130859375 19.884765625 0.95 22.45 3.079296875 20.48203125 4.25 21.85 5.7140625 18.5724609375 4.05 17.3
M 10.05 13.45
L 9.35 13.55
Q 8.75 13.8 9.55 14.9 10.276171875 15.7970703125 10.65 17.95 12.4 18.9208984375 14.1 16.65 14.709375 13.696875 13.05 12.8 11.3 11.9 10.2 13.3 10.1 13.35 10.05 13.45 Z"/>
</g>

<g id="Duplicate_Items_Folder_head_copy_43_0_Layer4_0_FILL">
<path fill="#392D24" stroke="none" d="
M -35.2 -43.55
Q -34.5236328125 -44.091015625 -34.25 -44.8 -35.691796875 -48.53515625 -38.15 -48.05 -40.5529296875 -47.555078125 -40.7 -46.3 -40.8 -45.05 -39.9 -44.05 -39 -43.05 -37.65 -42.9 -36.3 -42.75 -35.2 -43.55
M 36.85 -32.4
Q 36.8291015625 -32.3400390625 36.8 -32.3 36.2 -31.25 36.65 -30.15 37.15 -28.95 38.35 -28.3 39.55 -27.65 40.85 -27.95 42.1 -28.2 42.75 -29.15 43.35 -30.15 42.85 -31.3 42.4 -32.45 41.2 -33.05 40 -33.7 38.65 -33.5 38.2 -33.35 37.8 -33.15 37.2435546875 -32.871875 36.85 -32.4 Z"/>
</g>

<g id="Duplicate_Items_Folder_head_copy_43_0_Layer3_0_FILL">
<path fill="#392D24" stroke="none" d="
M -13.6 14.85
Q -14.476171875 14.0302734375 -15.25 13.15
L -15.55 13.75
Q -14.05859375 14.744140625 -13.6 14.85
M 1.2 -5.05
Q 3.85 4.1 10.1 -4.9 14.7189453125 5.0724609375 10.4 12.05 13.098046875 11.842578125 13.3 12.8
L 13.55 13.25
Q 15.332421875 12.3708984375 17.1 11.45 25.216796875 -6.974609375 15.7 -20.2
L 11.35 -19.05 10.2 -21.45 8 -21.2 7.4 -23.4 4.45 -22.55 3.75 -28
Q 1.86171875 -28.4046875 -0.4 -28.5
L -0.7 -28.65
Q -3.4 -28.9 -5.7 -28.6 -5.25 -28.25 -4.8 -27.9 -7.9 -27.7 -10.4 -26.75 -15.05 -25 -17.4 -23.15 -18.55 -22.3 -19.15 -21.45 -30.25 -10.05 -24.3 7.3
L -24.25 7.35
Q -21.9142578125 9.1486328125 -20.1 10.5 -19.99921875 10.569921875 -19.95 10.6 -20.4201171875 8.1380859375 -17.65 9.7 -21.5435546875 2.1392578125 -15.4 -7.15 -10.2 1.45 -6.6 -6.7 -10.85 -16.95 -1.35 -24.6 6.7 -15.7 1.2 -5.05 Z"/>

<path fill="#CC0000" stroke="none" d="
M -17.65 9.7
Q -20.4201171875 8.1380859375 -19.95 10.6 -17.12421875 12.719140625 -15.55 13.75
L -15.25 13.15
Q -15.11171875 11.7501953125 -14.8 10.45
L -16.15 9.15
Q -17.5255859375 8.352734375 -17.65 9.7
M 10.4 12.05
Q 10.3896484375 12.0763671875 10.35 12.1 9.712890625 13.8072265625 7.75 13.4 6.0890625 9.425 1.65 11.8 0.96171875 17.3404296875 -3.45 16.55 -6.1873046875 16.5857421875 -6.5 13.85 -8.4744140625 12.737890625 -10.6 14.35 -12.1244140625 14.8236328125 -12.35 12.7 -12.7083984375 14.5169921875 -12.55 16.4 -11.5466796875 17.0564453125 -10.55 17.7 -4.2 21.8 -1.3 21.05 1.55 20.3 5.05 17.5 9.337890625 15.4263671875 13.55 13.25
L 13.3 12.8
Q 13.098046875 11.842578125 10.4 12.05 Z"/>

<path fill="#FF99CC" stroke="none" d="
M -19.95 10.6
Q -19.99921875 10.569921875 -20.1 10.5 -21.9142578125 9.1486328125 -24.25 7.35 -24.1 7.95 -23.95 8.5 -18.0064453125 12.799609375 -12.55 16.4 -12.7083984375 14.5169921875 -12.35 12.7 -12.129296875 11.5640625 -11.7 10.45
L -9.65 12.4
Q -9.3408203125 6.8984375 -6.35 3.1 -8.9271484375 5.0203125 -10.65 7.85
L -11.1 4.05
Q -13.81796875 6.8033203125 -14.8 10.45 -15.11171875 11.7501953125 -15.25 13.15 -14.476171875 14.0302734375 -13.6 14.85 -14.05859375 14.744140625 -15.55 13.75 -17.12421875 12.719140625 -19.95 10.6 Z"/>

<path fill="#695441" stroke="none" d="
M -5.7 -28.6
Q -7.45 -28.45 -8.9 -27.9 -15.25 -25.75 -17.4 -23.15 -15.05 -25 -10.4 -26.75 -7.9 -27.7 -4.8 -27.9 -5.25 -28.25 -5.7 -28.6
M 10.1 -4.9
Q 3.85 4.1 1.2 -5.05 6.7 -15.7 -1.35 -24.6 -10.85 -16.95 -6.6 -6.7 -10.2 1.45 -15.4 -7.15 -21.5435546875 2.1392578125 -17.65 9.7 -17.5255859375 8.352734375 -16.15 9.15
L -14.8 10.45
Q -13.81796875 6.8033203125 -11.1 4.05
L -10.65 7.85
Q -8.9271484375 5.0203125 -6.35 3.1 -9.3408203125 6.8984375 -9.65 12.4
L -11.7 10.45
Q -12.129296875 11.5640625 -12.35 12.7 -12.1244140625 14.8236328125 -10.6 14.35 -8.4744140625 12.737890625 -6.5 13.85 -6.1873046875 16.5857421875 -3.45 16.55 0.96171875 17.3404296875 1.65 11.8 6.0890625 9.425 7.75 13.4 9.712890625 13.8072265625 10.35 12.1 10.3896484375 12.0763671875 10.4 12.05 14.7189453125 5.0724609375 10.1 -4.9 Z"/>

<path fill="#CB9DFB" stroke="none" d="
M 7.6 -26.65
Q 5.8974609375 -27.514453125 3.75 -28
L 4.45 -22.55 7.4 -23.4 8 -21.2 10.2 -21.45 11.35 -19.05 15.7 -20.2
Q 15.6890625 -20.24609375 15.65 -20.3 14.1 -23.35 7.6 -26.65 Z"/>
</g>

<g id="Duplicate_Items_Folder_head_copy_43_0_Layer2_0_FILL">
<path fill="#000000" stroke="none" d="
M -31.1 -12.55
Q -31.8 -10.7 -31.85 -7.9 -31.85 -5.35 -31.05 -3.05 -30.25 -0.9 -28.25 0.75 -26 2.3 -23.5 2.4 -20.95 2.5 -18.8 1.25 -16.6 0.1 -16.4 -1.65 -15.95 -3.5 -15.75 -4.9 -15.25 -5.9 -15.15 -6.6
L -12.95 -11.25
Q -12.3 -19.6 -18.25 -21.35
L -19.65 -21.45
Q -21.4 -21.55 -24.3 -20.5 -27.3 -19.4 -28.7 -16.9 -30.25 -14.35 -31.1 -12.55
M 21.6 -16.3
Q 18.7 -17.3 16.95 -17.1
L 15.6 -16.9
Q 9.65 -15 10.45 -6.7
L 12.8 -2.15
Q 13 -1.55 13.4 -0.45 13.75 0.95 14.1 2.7 14.35 4.4 16.65 5.5 18.9 6.65 21.45 6.5 23.95 6.3 26 4.7 28.1 3 28.8 0.85 29.5 -1.45 29.5 -4.2 29.35 -6.85 28.6 -8.7 27.75 -10.55 26.2 -12.95 24.65 -15.3 21.6 -16.3 Z"/>
</g>

<g id="Duplicate_Items_Folder_eye_copy_11_0_Layer0_0_FILL">
<path fill="url(#Gradient_1)" stroke="none" d="
M 6.6 -3
Q 5.8 -4.75 3.85 -5.7 1.9 -6.75 0.6 -6.85
L -0.3 -6.85
Q -4.85 -6.35 -5.4 -1
L -4.35 2.1
Q -4.3 2.6 -4.15 3.25 -4.1 4.2 -4.15 5.35 -4.1 6.5 -2.65 7.5 -1.25 8.4 0.55 8.65 2.4 8.9 4.05 8.05 5.7 7.3 6.5 5.9 7.35 4.6 7.65 2.9 7.95 1.2 7.7 -0.1 7.45 -1.35 6.6 -3
M 1.9 -3.6
Q 2.95 -4.1 4.1 -3.75 5.35 -3.4 5.95 -2.45 6.55 -1.45 6.25 -0.4 5.95 0.7 4.9 1.2 3.85 1.65 2.85 1.15 1.9 0.65 1.3 -0.4 0.8 -1.4 0.85 -2.25 0.85 -3.1 1.9 -3.6 Z"/>

<path fill="#C567ED" stroke="none" d="
M 4.1 -3.75
Q 2.95 -4.1 1.9 -3.6 0.85 -3.1 0.85 -2.25 0.8 -1.4 1.3 -0.4 1.9 0.65 2.85 1.15 3.85 1.65 4.9 1.2 5.95 0.7 6.25 -0.4 6.55 -1.45 5.95 -2.45 5.35 -3.4 4.1 -3.75 Z"/>
</g>

<path id="Duplicate_Items_Folder_body_front_copy_4_0_Layer2_0_1_STROKES" stroke="#000000" stroke-width="2" stroke-linejoin="round" stroke-linecap="round" fill="none" d="
M 7.7 -31
Q -1.25 -36.75 -3.35 -26.1 -5.2958984375 -15.55 -5.025 0.2 -4.7626953125 15.95 -1.825 23.125 1.1125 30.3 10.1 29.325 19.095703125 28.35 22.45 20 25.65 11.35 25.15 0.25 24.75 -11.05 20.75 -18.1 17.85 -23.5 12.1 -28 10.05 -29.55 7.7 -31 Z
M -22.5 -27.2
Q -20.4 -28.7 -18.05 -30.25 -9.1 -35.95 -7.05 -25.25 -5.105859375 -14.7046875 -5.225 0.7 -5.3328125 16.1138671875 -8.175 23.175 -11.0173828125 30.2359375 -20.25 29.725 -29.4943359375 29.2044921875 -32.8 20.8 -36.05 12.2 -35.55 1.1 -35.1 -10.25 -31.15 -17.3 -28.25 -22.7 -22.5 -27.2 Z"/>

<path id="Duplicate_Items_Folder_foot_copy_12_0_Layer3_0_1_STROKES" stroke="#000000" stroke-width="1" stroke-linejoin="round" stroke-linecap="round" fill="none" d="
M -14.45 17.075
Q -15.605859375 16.4453125 -15.85 16.2 -16.1 16.1 -16.15 15.95 -16.2 15.9 -16.2 15.8 -16.1 15.45 -14.45 15.5 -13.6 15.6 -12.6 15.75 -11.7 15.9 -10.55 16.15 -8.35 16.65 -6.8 17.35 -5.3 18.05 -5.35 18.35 -5.35 18.4 -5.6 18.55 -5.9943359375 18.7046875 -7.425 18.825 -8.867578125 18.9359375 -11.075 18.325 -13.2826171875 17.7140625 -14.45 17.075 Z"/>

<path id="Duplicate_Items_Folder_foot_copy_12_0_Layer3_0_2_STROKES" stroke="#2E2BB4" stroke-width="1" stroke-linejoin="round" stroke-linecap="round" fill="none" d="
M -6.95 22.8
L -5.4 19.65
Q -4.65 20 -3.55 18.8 -5.05 16.25 -7.3 15.6
L -14.25 14.45
Q -15.65 13.75 -17.1 15.05 -17.8 15.4 -16.8 16.7 -16.65 17 -16.4 17.25 -17.5 20.7 -17.25 23.9 -18.7 24.55 -18.65 26.55 -18.95 28.2 -16.6 28.35 -14.95 31.35 -13.3 32.85
L -8.75 34.15
Q -4.2 34.9 -1.45 32.8 -0.1 29.2 -0.9 27.05 -1.15 26.3 -1.65 25.55 -2.25 24.6 -3.3 23.75
L -6.95 22.8 -10.2 22.95"/>

<path id="Duplicate_Items_Folder_foot_copy_12_0_Layer1_0_1_STROKES" stroke="#000000" stroke-width="0.5" stroke-linejoin="round" stroke-linecap="round" fill="none" d="
M -3.1 2.65
L -0.65 3
M -3.65 5.05
L -1.85 5.8
M -3.3 2.95
L -1.7 4.8
M -7.6 6.05
L -6.1 5.55
M -7.95 9.05
L -6.75 10.95
M -4.45 7
L -2.05 7.25
M -6.65 6.75
L -4.9 8.4
M -5.9 0.95
L -4.7 2.85
M -5.9 3.15
L -4.45 4.85
M -5.15 10.75
L -2.7 11.1
M -9.65 14.15
L -8.15 13.65
M -8.7 14.85
L -6.95 16.5
M -5.7 13.15
L -3.9 13.9
M -6.5 15.1
L -4.1 15.35
M -7.95 11.25
L -6.5 12.95
M -5.35 11.05
L -3.75 12.9"/>

<path id="Duplicate_Items_Folder_arm__copy_7_0_Layer1_0_1_STROKES" stroke="#000000" stroke-width="0.5" stroke-linejoin="round" stroke-linecap="round" fill="none" d="
M 13.6 -0.775
L 17.15 -3.3
M 18.35 -0.1
L 14.275 -0.25 12.95 -0.3 13.6 -0.775
M 16.25 2.225
L 17.45 1.8
M 15.775 4.7
L 18.85 4.55
M 17.9 8.4
L 13.925 6.5
M 13.375 7.175
L 13.25 11.25
M 10.6 12.4
L 10.5 9.125 10.2 6.65
M 7.9 9.3
L 5.95 12.3
M 13.925 6.5
L 13.7 5.95 13.375 7.175
M 14.35 2.9
L 16.25 2.225
M 14.85 4.75
L 15.775 4.7
M 8.3 6.75
L 7.9 9.3"/>

<path id="Duplicate_Items_Folder_arm__copy_7_0_Layer0_0_1_STROKES" stroke="#000000" stroke-width="0.5" stroke-linejoin="round" stroke-linecap="round" fill="none" d="
M 1.2585220336914062 19.982817077636717
L 1.6083206176757816 17.75285110473633
M 6.243151855468749 11.172265243530273
L 5.67472915649414 11.587651062011718 6.833436965942383 11.631375885009765 10.397010040283204 11.762550354003906
M 9.347614288330076 8.964161682128907
L 6.243151855468749 11.172265243530273
M 8.560567474365234 13.795754623413085
L 9.609963226318358 13.424093627929688
M 8.145181655883789 15.960133361816407
L 10.834258270263673 15.828958892822264
M 6.899024200439452 14.386039733886719
L 8.560567474365234 13.795754623413085
M 6.527363204956055 17.534226989746095
L 6.330601501464843 17.05325393676758 6.046390151977539 18.124512100219725 5.9370780944824215 21.68808517456055
M 3.2698638916015614 17.665401458740234
L 3.5322128295898434 19.829780197143556 3.619662475585937 22.693756103515625
M 10.00348663330078 19.195770263671875
L 6.527363204956055 17.534226989746095
M 7.336272430419921 16.003858184814455
L 8.145181655883789 15.960133361816407
M -0.44674606323242205 22.60630645751953
L 1.2585220336914062 19.982817077636717"/>

<path id="Duplicate_Items_Folder_head_copy_43_0_Layer5_0_1_STROKES" stroke="#000000" stroke-width="1.5" stroke-linejoin="round" stroke-linecap="round" fill="none" d="
M 14.125 16.675
Q 14.709375 13.696875 13.05 12.8 11.3 11.9 10.2 13.3 10.1 13.35 10.05 13.45
L 9.35 13.55
Q 8.75 13.8 9.55 14.9 10.276171875 15.7970703125 10.675 17.975
M 14.125 16.675
Q 14.0478515625 17.0291015625 13.95 17.4 12.9 21.05 11.1 21.25 11 20.15 10.8 18.75 10.741796875 18.3419921875 10.675 17.975
M 4.275 21.85
Q 5.7140625 18.5724609375 4.05 17.3 2.45 16.1 1.2 17.35 1.05 17.35 1.05 17.5
L 0.25 17.45
Q -0.4 17.6 0.3 18.8 0.9130859375 19.884765625 0.95 22.475
M 4.275 21.85
Q 4.2328125 21.9279296875 4.2 22 2.65 25.45 0.85 25.4 0.9 24.25 0.95 22.8 0.95 22.6384765625 0.95 22.475
M -22.175 13.75
Q -22.33984375 11.469921875 -20.9 10.75 -19.15 9.9 -18.05 11.3 -18 11.35 -17.95 11.5
L -17.2 11.6
Q -16.65 11.85 -17.5 12.95 -18.1333984375 13.7416015625 -18.575 15.65 -18.6958984375 16.166796875 -18.8 16.75 -19.05 18.15 -19.2 19.3 -21 19 -21.9 15.35 -22.11796875 14.466015625 -22.175 13.75 Z
M -11.525 20.525
Q -12.890625 17.093359375 -11.15 15.85 -9.55 14.7 -8.35 15.95 -8.2 16 -8.15 16.1
L -7.4 16.1
Q -6.75 16.3 -7.45 17.5 -8.14375 18.5900390625 -8.2 21.4
L -8.2 21.45
Q -8.2 22.85 -8.15 24.05 -10 24.05 -11.5 20.55
L -11.525 20.525 Z"/>

<path id="Duplicate_Items_Folder_head_copy_43_0_Layer4_0_1_STROKES" stroke="#000000" stroke-width="2" stroke-linejoin="round" stroke-linecap="round" fill="none" d="
M 9.45 -23.9
L 19 -40.5
M 19 -40.8
L 36.85 -32.375
Q 37.2435546875 -32.871875 37.8 -33.15 38.2 -33.35 38.65 -33.5 40 -33.7 41.2 -33.05 42.4 -32.45 42.85 -31.3 43.35 -30.15 42.75 -29.15 42.1 -28.2 40.85 -27.95 39.55 -27.65 38.35 -28.3 37.15 -28.95 36.65 -30.15 36.2 -31.25 36.8 -32.3 36.8291015625 -32.3400390625 36.85 -32.375
M -11.7 -39.4
L -16.65 -35.9 -15.55 -44.65 -34 -45.5
Q -34.0646484375 -45.127734375 -34.225 -44.8 -34.5236328125 -44.091015625 -35.2 -43.55 -36.3 -42.75 -37.65 -42.9 -39 -43.05 -39.9 -44.05 -40.8 -45.05 -40.7 -46.3 -40.5529296875 -47.555078125 -38.125 -48.05 -35.691796875 -48.53515625 -34.225 -44.8
M -7.3 -27.25
L -11.25 -39.4"/>

<path id="Duplicate_Items_Folder_head_copy_43_0_Layer3_0_1_STROKES" stroke="#000000" stroke-width="2" stroke-linejoin="round" stroke-linecap="round" fill="none" d="
M 3.775 -27.975
Q 5.8974609375 -27.514453125 7.6 -26.65 14.1 -23.35 15.65 -20.3 15.6890625 -20.24609375 15.725 -20.2 25.216796875 -6.974609375 17.1 11.45 15.332421875 12.3708984375 13.55 13.275 9.337890625 15.4263671875 5.05 17.5 1.55 20.3 -1.3 21.05 -4.2 21.8 -10.55 17.7 -11.5466796875 17.0564453125 -12.55 16.4
M 3.775 -27.975
Q 1.86171875 -28.4046875 -0.4 -28.5
L -0.7 -28.65
Q -3.4 -28.9 -5.7 -28.6
M -17.4 -23.15
Q -18.55 -22.3 -19.15 -21.45 -30.25 -10.05 -24.3 7.3
L -24.25 7.35
M -17.4 -23.15
Q -15.25 -25.75 -8.9 -27.9 -7.45 -28.45 -5.7 -28.6
M -12.55 16.4
Q -18.0064453125 12.799609375 -23.95 8.5 -24.1 7.95 -24.25 7.35"/>

<path id="Duplicate_Items_Folder_head_copy_43_0_Layer3_0_2_STROKES" stroke="#000000" stroke-width="0.5" stroke-linejoin="round" stroke-linecap="round" fill="none" d="
M -12.55 16.4
L -12.7 17.35
M 3.75 -28.25
L 3.775 -27.975 4.45 -22.55 7.4 -23.4 8 -21.2 10.2 -21.45 11.35 -19.05 15.725 -20.2
M -14.775 10.45
Q -13.81796875 6.8033203125 -11.1 4.05
L -10.65 7.85
Q -8.9271484375 5.0203125 -6.35 3.1 -9.3408203125 6.8984375 -9.65 12.4
L -11.7 10.45
Q -12.129296875 11.5640625 -12.35 12.7 -12.7083984375 14.5169921875 -12.55 16.4
M -15.525 13.775
L -15.225 13.175
Q -15.11171875 11.7501953125 -14.775 10.45"/>

<path id="Duplicate_Items_Folder_eye_copy_11_0_Layer0_0_1_STROKES" stroke="#000000" stroke-width="1" stroke-linejoin="round" stroke-linecap="round" fill="none" d="
M 3.85 -5.7
Q 1.9 -6.75 0.6 -6.85
L -0.3 -6.85
Q -4.85 -6.35 -5.4 -1
L -4.35 2.1
Q -4.3 2.6 -4.15 3.25 -4.1 4.2 -4.15 5.35 -4.1 6.5 -2.65 7.5 -1.25 8.4 0.55 8.65 2.4 8.9 4.05 8.05 5.7 7.3 6.5 5.9 7.35 4.6 7.65 2.9 7.95 1.2 7.7 -0.1 7.45 -1.35 6.6 -3 5.8 -4.75 3.85 -5.7 Z"/>
</defs>

<g filter="url(#Filter_1)" transform="matrix( 1, 0, 0, 1, 0,0) ">
<g transform="matrix( 1, 0, 0, 1, 52.9,-14.5) ">
<g transform="matrix( 3.1856689453125, 0, 0, 3.1856689453125, 237.7,399.05) ">
<g transform="matrix( 1, 0, 0, 1, 0,0) ">
<use xlink:href="#Duplicate_Items_Folder_body_front_copy_4_0_Layer2_0_FILL"/>

<use xlink:href="#Duplicate_Items_Folder_body_front_copy_4_0_Layer2_0_1_STROKES"/>
</g>

<g transform="matrix( -0.714752197265625, 0.2491302490234375, 0.16876220703125, 1.0551605224609375, 30.45,-52.6) "/>

<g transform="matrix( 1, 0, 0, 1, 0,0) ">
<use xlink:href="#Duplicate_Items_Folder_body_front_copy_4_0_Layer1_0_FILL"/>
</g>

<g transform="matrix( 1, 0, 0, 1, 0,0) ">
<use xlink:href="#Duplicate_Items_Folder_body_front_copy_4_0_Layer0_0_FILL"/>
</g>
</g>

<g transform="matrix( 5.425048828125, 0, 0, 5.425048828125, 210.9,440.55) ">
<g transform="matrix( -0.53900146484375, -0.14788818359375, -0.14117431640625, 0.514434814453125, -7.9,1.4) ">
<g transform="matrix( 1, 0, 0, 1, 0,0) ">
<use xlink:href="#Duplicate_Items_Folder_foot_copy_12_0_Layer3_0_FILL"/>

<use xlink:href="#Duplicate_Items_Folder_foot_copy_12_0_Layer3_0_1_STROKES"/>

<use xlink:href="#Duplicate_Items_Folder_foot_copy_12_0_Layer3_0_2_STROKES"/>
</g>

<g transform="matrix( 1, 0, 0, 1, 0,0) ">
<use xlink:href="#Duplicate_Items_Folder_foot_copy_12_0_Layer2_0_FILL"/>
</g>

<g transform="matrix( 1, 0, 0, 1, 0,0) ">
<use xlink:href="#Duplicate_Items_Folder_foot_copy_12_0_Layer1_0_1_STROKES"/>
</g>

<g transform="matrix( 1, 0, 0, 1, 0,0) ">
<use xlink:href="#Duplicate_Items_Folder_foot_copy_12_0_Layer0_0_FILL"/>
</g>
</g>
</g>

<g transform="matrix( 2.924072265625, -0.8022918701171875, 0.7658538818359375, 2.79083251953125, 287.35,448.15) ">
<g transform="matrix( 1, 0, 0, 1, 0,0) ">
<use xlink:href="#Duplicate_Items_Folder_foot_copy_12_0_Layer3_0_FILL"/>

<use xlink:href="#Duplicate_Items_Folder_foot_copy_12_0_Layer3_0_1_STROKES"/>

<use xlink:href="#Duplicate_Items_Folder_foot_copy_12_0_Layer3_0_2_STROKES"/>
</g>

<g transform="matrix( 1, 0, 0, 1, 0,0) ">
<use xlink:href="#Duplicate_Items_Folder_foot_copy_12_0_Layer2_0_FILL"/>
</g>

<g transform="matrix( 1, 0, 0, 1, 0,0) ">
<use xlink:href="#Duplicate_Items_Folder_foot_copy_12_0_Layer1_0_1_STROKES"/>
</g>

<g transform="matrix( 1, 0, 0, 1, 0,0) ">
<use xlink:href="#Duplicate_Items_Folder_foot_copy_12_0_Layer0_0_FILL"/>
</g>
</g>

<g transform="matrix( -2.98651123046875, -0.8966522216796875, -0.954193115234375, 3.1783905029296875, 156.1,380.6) ">
<g transform="matrix( 1, 0, 0, 1, 0,0) ">
<use xlink:href="#Duplicate_Items_Folder_arm__copy_7_0_Layer1_0_FILL"/>

<use xlink:href="#Duplicate_Items_Folder_arm__copy_7_0_Layer1_0_1_STROKES"/>
</g>

<g transform="matrix( 0.8744964599609375, 0, 0, 0.8744964599609375, -5.65,11.85) ">
<use xlink:href="#Duplicate_Items_Folder_arm__copy_7_0_Layer0_0_FILL"/>

<use xlink:href="#Duplicate_Items_Folder_arm__copy_7_0_Layer0_0_1_STROKES" transform="matrix( 1.1435089111328125, 0, 0, 1.1435089111328125, 6.45,-13.55) "/>
</g>
</g>

<g transform="matrix( 2.93817138671875, -0.88226318359375, 0.9387054443359375, 3.12689208984375, 292.8,380.05) ">
<g transform="matrix( 1, 0, 0, 1, 0,0) ">
<use xlink:href="#Duplicate_Items_Folder_arm__copy_7_0_Layer1_0_FILL"/>

<use xlink:href="#Duplicate_Items_Folder_arm__copy_7_0_Layer1_0_1_STROKES"/>
</g>

<g transform="matrix( 0.8744964599609375, 0, 0, 0.8744964599609375, -5.65,11.85) ">
<use xlink:href="#Duplicate_Items_Folder_arm__copy_7_0_Layer0_0_FILL"/>

<use xlink:href="#Duplicate_Items_Folder_arm__copy_7_0_Layer0_0_1_STROKES" transform="matrix( 1.1435089111328125, 0, 0, 1.1435089111328125, 6.45,-13.55) "/>
</g>
</g>

<g transform="matrix( 5.07452392578125, -0.5001220703125, 0.502044677734375, 4.85443115234375, 230.7,255.05) ">
<g transform="matrix( 1, 0, 0, 1, 0,0) ">
<use xlink:href="#Duplicate_Items_Folder_head_copy_43_0_Layer5_0_FILL"/>

<use xlink:href="#Duplicate_Items_Folder_head_copy_43_0_Layer5_0_1_STROKES"/>
</g>

<g transform="matrix( 1, 0, 0, 1, 0,0) ">
<use xlink:href="#Duplicate_Items_Folder_head_copy_43_0_Layer4_0_FILL"/>

<use xlink:href="#Duplicate_Items_Folder_head_copy_43_0_Layer4_0_1_STROKES"/>
</g>

<g transform="matrix( 1, 0, 0, 1, 0,0) ">
<use xlink:href="#Duplicate_Items_Folder_head_copy_43_0_Layer3_0_FILL"/>

<use xlink:href="#Duplicate_Items_Folder_head_copy_43_0_Layer3_0_1_STROKES"/>

<use xlink:href="#Duplicate_Items_Folder_head_copy_43_0_Layer3_0_2_STROKES"/>
</g>

<g transform="matrix( 1, 0, 0, 1, 0,0) ">
<use xlink:href="#Duplicate_Items_Folder_head_copy_43_0_Layer2_0_FILL"/>
</g>

<g transform="matrix( 1.244873046875, 0, 0, 1.2696533203125, 20.65,-7.3) ">
<g transform="matrix( 1, 0, 0, 1, 0,0) ">
<use xlink:href="#Duplicate_Items_Folder_eye_copy_11_0_Layer0_0_FILL"/>

<use xlink:href="#Duplicate_Items_Folder_eye_copy_11_0_Layer0_0_1_STROKES"/>
</g>
</g>

<g transform="matrix( -1.244873046875, 0, 0, 1.2696533203125, -23.75,-11.75) ">
<g transform="matrix( 1, 0, 0, 1, 0,0) ">
<use xlink:href="#Duplicate_Items_Folder_eye_copy_11_0_Layer0_0_FILL"/>

<use xlink:href="#Duplicate_Items_Folder_eye_copy_11_0_Layer0_0_1_STROKES"/>
</g>
</g>
</g>

<g transform="matrix( 3.1856689453125, 0, 0, 3.1856689453125, 223.6,401.75) "/>
</g>
</g>
</svg>
