
<svg xmlns="http://www.w3.org/2000/svg" version="1.1" xmlns:xlink="http://www.w3.org/1999/xlink" preserveAspectRatio="none" x="0px" y="0px" width="560px" height="544px" viewBox="0 0 560 544">
<defs>
<g id="Duplicate_Items_Folder_leg_suit_copy_11_0_Layer1_0_FILL">
<path fill="#FFFFFF" stroke="none" d="
M 15.75 9
Q 15.948828125 8.7017578125 16.75 6.15
L 16.75 6.15
Q 17.3962890625 3.909375 17.75 1.95 10.1255859375 2.2603515625 5 1.1
L 1 0.6
Q 1.0298828125 1.553515625 0.85 3.1 0.6966796875 4.7251953125 0.35 7 2.6 6.5 4.7 6.4 9.7 6.15 13.45 7.9 13.85 8.05 14.25 8.25 15.05 8.65 15.75 9 Z"/>

<path fill="#DDDDDD" stroke="none" d="
M -5.9 1.85
Q -5.8046875 4.7115234375 -5.25 6.3 -4.8 7.65 -4.95 8.35 -4.1 8.1 -2.7 7.7 -1.15 7.25 0.35 7 0.6966796875 4.7251953125 0.85 3.1 1.0298828125 1.553515625 1 0.6
L -5.75 -2.6
Q -5.90546875 -0.0814453125 -5.9 1.85 Z"/>

<path fill="#000000" stroke="none" d="
M -5.75 -2.6
L -7.4 -5.9
Q -8.7765625 4.7482421875 -9.5 9.95 -9.65 11.1 -9.85 12.25 -10.2 13.85 -6 14.5
L 14.75 13.65
Q 19.3 11.5 19.35 10.35 19.4 9.2 20.05 8.75 21.55 7.7 23.05 2.3 23.2666015625 1.4953125 23.4 1
L 17.75 1.8
Q 17.7701171875 1.8685546875 17.75 1.95 17.3962890625 3.909375 16.75 6.15
L 16.75 6.15
Q 15.948828125 8.7017578125 15.75 9 15.05 8.65 14.25 8.25 13.85 8.05 13.45 7.9 9.7 6.15 4.7 6.4 2.6 6.5 0.35 7 -1.15 7.25 -2.7 7.7 -4.1 8.1 -4.95 8.35 -4.8 7.65 -5.25 6.3 -5.8046875 4.7115234375 -5.9 1.85 -5.90546875 -0.0814453125 -5.75 -2.6 Z"/>
</g>

<g id="Duplicate_Items_Folder_right_shoe_copy_7_0_Layer0_0_FILL">
<path fill="#000000" stroke="none" d="
M 12.5 -4.65
Q 9.255859375 -7.140234375 1.15 -7.9
L -5 -7.5
Q -4.9068359375 -7.4609375 -4.85 -7.45 -5.233203125 -7.36953125 -5.6 -7.3 -9.202734375 -6.387109375 -12.1 -4.35 -16.95 -0.95 -16.75 4.1 -16.75 4.45 -16.7 4.85 -16.75 4.85 -16.8 4.85 -17.75 6.85 -17.7 9 -17.65 9.5 -17.6 9.95 0.5 15.1 17.5 8.7 17.55 8.25 17.5 7.75 17.45 5.35 16.15 3.35 16.05 3.35 15.95 3.4 15.95 3.2 15.95 2.95 15.748046875 -2.1033203125 12.5 -4.65
M 0.8 -1.4
L 1.1 -4.1 1.3 -6.25
Q 2.12265625 -6.199609375 2.9 -6.1 5.95 -5.75 8.5 -4.25 8.8384765625 -4.0494140625 9.15 -3.85
L 8.5 -2.15 7.8 -0.35
Q 4.78203125 -1.3638671875 0.8 -1.4
M -2.4 -6.05
L -2.05 -3.65 -1.7 -1.25
Q -4.1900390625 -1.013671875 -7.4 0.45
L -8.45 -1.45 -9.75 -3.8
Q -5.74609375 -5.6109375 -2.4 -6.05
M 3.2 -8.05
L 3.05 -8.05
Q 3.1626953125 -8.030859375 3.25 -8.05
L 3.2 -8.05 Z"/>

<path fill="#DDDDDD" stroke="none" d="
M -1.7 -1.25
L -2.05 -3.65
Q -5.89375 -3.28828125 -8.45 -1.45
L -7.4 0.45
Q -4.1900390625 -1.013671875 -1.7 -1.25
M 1.1 -4.1
L 0.8 -1.4
Q 4.78203125 -1.3638671875 7.8 -0.35
L 8.5 -2.15
Q 4.8 -4.3796875 1.1 -4.1 Z"/>

<path fill="#FFFFFF" stroke="none" d="
M -2.05 -3.65
L -2.4 -6.05
Q -5.74609375 -5.6109375 -9.75 -3.8
L -8.45 -1.45
Q -5.89375 -3.28828125 -2.05 -3.65
M 8.5 -2.15
L 9.15 -3.85
Q 8.8384765625 -4.0494140625 8.5 -4.25 5.95 -5.75 2.9 -6.1 2.12265625 -6.199609375 1.3 -6.25
L 1.1 -4.1
Q 4.8 -4.3796875 8.5 -2.15 Z"/>
</g>

<g id="arm_trowl_0_Layer3_0_FILL">
<path fill="#000000" stroke="none" d="
M 31.25 -48.7
Q 29.55 -48.4 27.15 -47.85 20.55 -46.55 15.8 -40.55 10.85 -34.35 9.8 -33.15 9.25 -32.5 6 -27.75 4 -24.8 0.95 -20.25 0 -16.6 4.25 -16.4 4.4 -16.1 4.55 -15.75 0.1 -8.4 0.15 -8.2
L -8.45 9 -8.4 9
Q -8.5 9.15 -8.6 9.3
L -12.2 16.45
Q -12.15 16.55 -12.1 16.6
L -12.7 17.55 -13 18.15
Q -13 18 -12.95 17.9
L -16.9 23.9
Q -22.15 36.8 -21.55 42.05 -21.5 42.4 -21.45 42.7 -21.2 43.9 -20.75 44.75
L -7.55 52.2
Q -4.85 52.95 -3.6 51.35 -2.25 49.75 -1.6 48.1 -1 46.65 -1.2 45.8 -1.5 44.8 -1.85 43.1 -2.25 41.5 -4.55 38.75 -4.65 38.7 -4.75 38.6
L -7.55 36.75
Q -8.1 35.1 -6.75 33.95
L -4.9 36.05
Q -3.95 37.15 -2.3 37.6 -1.55 37.8 -0.65 37.85 -0.25 37.95 0.05 37.95
L 0.05 37.9
Q 0.5 37.85 1 37.8 2.05 37.55 3.65 37.25 4.65 36.95 5.55 36.3 6.1 35.9 6.7 35.25 8.1 33.7 6.9 31.75 5.3 29.75 4.9 28.95 4.25 27.65 5.05 26.95 5.25 26.75 5.65 24.2 5.85 23.2 6.2 13.25 6.2451171875 13.06953125 6.25 12.85 6.25 13.0125 6.25 13.1
L 17.9 -10.6
Q 19.35 -10.75 20.5 -11.3
L 20.55 -11.3
Q 21.4 -10.9 22.35 -10.85 24.4 -10.55 26 -11.75 27.65 -12.85 27.85 -14.75 27.9 -14.95 27.85 -15.25 30.5 -21.6 31.4 -25.55 32.15 -29.65 32.55 -32
L 32.5 -36.65 31.8 -41.95
Q 31.75 -42.15 31.75 -42.3
L 31.2 -47.6
Q 31.25 -47.6 31.3 -47.6
L 31.25 -48.7
M 5.95 -13.7
Q 6.05 -13.8 6.15 -13.85 7.5 -12.85 9.3 -12.65 10.1 -12.55 10.9 -12.7 11.15 -12.5 11.35 -12.3 13 -10.95 15.6 -10.6
L 4.4 11.95
Q 4.15 11.6 3.95 11.3 2.35 8.95 3.15 14.75 3.8 19.6 3.45 20.25 3.3 19.5 3.2 18.5
L 3.45 22.45 3.55 22.45 3.55 23.1
Q 3.6 23.15 3.55 23.2
L 3.55 23.3
Q 3.4 23.65 3 24.75 2.8 26 2.65 26.95 2.45 27.8 4.1 30.4 5.45 33.1 4.45 34.2 3.35 35.35 0.95 35.7 -1.55 36.1 -3.25 35.1
L -3.25 34.8
Q -4.15 29.4 -3.65 25.85 -3.05 22.3 -6.75 28.85 -10.45 35.4 -10.05 38.35 -10 39 -10.15 39.45 -10.3 40 -10.9 40.25 -9.7 40.35 -8.7 40.35 -4 41.95 -3.55 45.05 -3.35 46.05 -3.4 46.95 -3.55 47.9 -4 48.75 -5.1 50.25 -7.15 50.2 -14.2 45 -19.4 42.2 -19.5 41.9 -19.6 41.6 -20.2 39.85 -19.9 38.95 -20 38.9 -20.1 38.8 -20 38.75 -19.8 38.85 -18.95 36.15 -17.15 30
L -17.2 29.95
Q -17.35 29.5 -16.25 26.95 -16.2 26.85 -16.2 26.75
L -16.15 26.7
Q -15.75 25.2 -15.2 23.5
L -12.6 20
Q -12.15 19.15 -5.6 8.7 -5.55 8.7 -5.45 8.75
L -4.75 7.3
Q -4.4 6.8 -4.05 6.25 -4.25 6.5 -4.45 6.75
L 5.95 -13.7 Z"/>

<path fill="#D6CFC2" stroke="none" d="
M -15.3 24.65
Q -15.15 24.45 -12.6 20
L -15.2 23.5
Q -15.75 25.2 -16.15 26.7 -16.1 26.65 -16.1 26.6 -16.0517578125 26.455078125 -16 26.3 -15.77890625 25.8533203125 -15.55 25.35 -15.45 25 -15.3 24.65
M -15.9 25.85
Q -15.866015625 25.8142578125 -15.85 25.75
L -15.65 25.15 -15.9 25.85 Z"/>

<path fill="#E2BAB6" stroke="none" d="
M -15.85 25.75
Q -15.866015625 25.8142578125 -15.9 25.85
L -15.65 25.15 -15.85 25.75
M 6.15 -13.85
Q 6.05 -13.8 5.95 -13.7
L -4.45 6.75
Q -4.25 6.5 -4.05 6.25 -4.4 6.8 -4.75 7.3
L -5.45 8.75
Q -5.55 8.7 -5.6 8.7 -12.15 19.15 -12.6 20 -15.15 24.45 -15.3 24.65 -15.45 25 -15.55 25.35 -15.77890625 25.8533203125 -16 26.3 -16.0517578125 26.455078125 -16.1 26.6 -16.1 26.65 -16.15 26.7
L -16.2 26.75
Q -16.2 26.85 -16.25 26.95 -17.35 29.5 -17.2 29.95
L -17.15 30
Q -18.95 36.15 -19.8 38.85 -20 38.75 -20.1 38.8 -20 38.9 -19.9 38.95 -20.2 39.85 -19.6 41.6 -19.5 41.9 -19.4 42.2 -14.2 45 -7.15 50.2 -5.1 50.25 -4 48.75 -3.55 47.9 -3.4 46.95 -3.35 46.05 -3.55 45.05 -4 41.95 -8.7 40.35 -9.7 40.35 -10.9 40.25 -10.3 40 -10.15 39.45 -10 39 -10.05 38.35 -10.45 35.4 -6.75 28.85 -3.05 22.3 -3.65 25.85 -4.15 29.4 -3.25 34.8
L -3.25 35.1
Q -1.55 36.1 0.95 35.7 3.35 35.35 4.45 34.2 5.45 33.1 4.1 30.4 2.45 27.8 2.65 26.95 2.8 26 3 24.75 3.4 23.65 3.55 23.3
L 3.55 23.2
Q 3.6 23.15 3.55 23.1
L 3.55 22.45 3.45 22.45 3.2 18.5
Q 3.3 19.5 3.45 20.25 3.8 19.6 3.15 14.75 2.35 8.95 3.95 11.3 4.15 11.6 4.4 11.95
L 15.6 -10.6
Q 13 -10.95 11.35 -12.3 11.15 -12.5 10.9 -12.7 10.1 -12.55 9.3 -12.65 7.5 -12.85 6.15 -13.85
M 14.3 -8.95
L 14.4 -8.95 14.25 -8.8 14.3 -8.95
M 0.55 19.3
Q 0.35 19.2 0.15 19.05
L 0.15 18.85 0.3 18.9
Q 0.3 19.05 0.6 19.2 0.55 19.25 0.55 19.3
M -2.45 15.4
Q -2.35 15.35 -2.25 15.2 -2.15 15.05 -2 14.85
L -1.95 14.85
Q -2.05 15 -2.15 15.2 -2.3 15.35 -2.45 15.4 Z"/>

<path fill="#E8E6CE" stroke="none" d="
M -2.25 15.2
Q -2.35 15.35 -2.45 15.4 -2.3 15.35 -2.15 15.2 -2.05 15 -1.95 14.85
L -2 14.85
Q -2.15 15.05 -2.25 15.2
M 0.15 19.05
L 0.3 18.9 0.15 18.85 0.15 19.05
M 14.4 -8.95
L 14.3 -8.95 14.25 -8.8 14.4 -8.95 Z"/>

<path fill="#B1A96B" stroke="none" d="
M 0.3 18.9
L 0.15 19.05
Q 0.35 19.2 0.55 19.3 0.55 19.25 0.6 19.2 0.3 19.05 0.3 18.9 Z"/>
</g>

<g id="arm_trowl_0_Layer2_0_FILL">
<path fill="#A7C7EE" stroke="none" d="
M 29.5 -28.45
L 28 -44.15
Q 19.6 -40.95 16.65 -37.25 15.3 -35.45 11.3 -30.9 7.25 -26.4 5.45 -22.7 3.6 -18.95 8.05 -18.05 8 -18 8.75 -18.15 8.75 -14.45 14.05 -15.1 17.25 -11.05 21.15 -14.3 24.6 -13.1 25.2 -16.3 25.8 -19.6 26.95 -21.85 28.1 -24.15 28.8 -26.25 29.25 -27.4 29.5 -28.45 Z"/>
</g>

<g id="arm_trowl_0_Layer1_0_FILL">
<path fill="#CDE2F5" stroke="none" d="
M 20.15 -17.95
Q 19.7 -17.6 19.65 -16.95 19.55 -16.4 19.95 -15.9 20.35 -15.4 20.95 -15.35 21.5 -15.3 21.9 -15.5 22.35 -15.1 22.9 -15 23.65 -14.9 24.2 -15.5 24.75 -16.05 24.8 -16.9 24.95 -17.75 24.45 -18.35 24.05 -19 23.4 -19.1
L 23.35 -19.1
Q 23.25 -19.3 23.1 -19.5 22.8 -19.95 22.2 -20 21.65 -20.1 21.2 -19.65 20.8 -19.25 20.65 -18.65 20.65 -18.45 20.65 -18.25 20.4 -18.15 20.15 -17.95
M 15.95 -19.55
Q 16.1 -20.4 15.65 -21 15.2 -21.65 14.55 -21.75
L 14.5 -21.75
Q 14.4 -21.95 14.25 -22.1 13.95 -22.65 13.35 -22.7 12.85 -22.8 12.35 -22.35 11.95 -21.95 11.8 -21.3 11.8 -21.1 11.8 -20.85 11.55 -20.8 11.35 -20.65 10.85 -20.3 10.8 -19.65 10.7 -19.05 11.1 -18.6 11.5 -18.1 12.15 -18.05 12.65 -17.95 13.05 -18.2 13.5 -17.75 14.1 -17.65 14.8 -17.6 15.35 -18.15 15.9 -18.7 15.95 -19.55
M 18.35 -31.75
Q 17.95 -32.4 17.25 -32.5
L 17.2 -32.5
Q 17.1 -32.7 16.95 -32.85 16.6 -33.35 16.1 -33.4 15.55 -33.5 15.05 -33.1 14.6 -32.7 14.55 -32.05 14.55 -31.8 14.55 -31.6 14.3 -31.55 14.05 -31.35 13.55 -30.95 13.45 -30.35 13.4 -29.8 13.75 -29.3 14.2 -28.85 14.85 -28.8 15.4 -28.7 15.75 -28.95 16.15 -28.45 16.75 -28.4 17.5 -28.3 18 -28.9 18.65 -29.45 18.7 -30.25 18.8 -31.15 18.35 -31.75
M 6.95 -25.5
L 6.95 -25.45
Q 7.4 -24.95 8.05 -24.9 8.6 -24.8 8.95 -25.05 9.4 -24.55 9.95 -24.5 10.75 -24.4 11.25 -25 11.85 -25.55 11.9 -26.4 12.05 -27.25 11.55 -27.85 11.15 -28.5 10.45 -28.6
L 10.4 -28.6
Q 10.3 -28.8 10.15 -28.95 10 -29.25 9.75 -29.35
L 6.95 -25.5
M 26.7 -31.15
Q 26.45 -31.65 25.85 -31.7 25.3 -31.75 24.85 -31.35 24.45 -30.95 24.35 -30.3 24.35 -30.1 24.3 -29.9 24.05 -29.8 23.8 -29.6 23.3 -29.3 23.3 -28.65 23.2 -28.05 23.55 -27.55 23.95 -27.1 24.6 -27.05 25.15 -26.95 25.6 -27.2 25.95 -26.75 26.55 -26.65 27.3 -26.55 27.8 -27.15 28.4 -27.7 28.5 -28.5 28.6 -29.4 28.15 -30 27.7 -30.65 27 -30.75
L 26.95 -30.75
Q 26.85 -30.95 26.7 -31.15
M 23.95 -40.7
Q 23.6 -41.15 23 -41.2 22.45 -41.3 22.05 -40.9 21.6 -40.45 21.5 -39.85 21.5 -39.65 21.5 -39.45 21.25 -39.4 20.95 -39.15 20.5 -38.8 20.45 -38.2 20.4 -37.6 20.75 -37.1 21.15 -36.65 21.75 -36.6 22.3 -36.55 22.75 -36.8 23.15 -36.3 23.7 -36.2 24.45 -36.15 25 -36.7 25.55 -37.3 25.65 -38.1 25.75 -38.95 25.3 -39.55 24.9 -40.25 24.2 -40.35
L 24.15 -40.3
Q 24.05 -40.5 23.95 -40.7 Z"/>
</g>

<g id="arm_trowl_0_Layer0_0_FILL">
<path fill="#000000" stroke="none" d="
M -5.15 49.4
Q -5.6 47.95 -7.3 46.95 -8.6 46.05 -10.15 45.45 -10.35 48.15 -12 49.35
L -6.2 53.4
Q -5.45 52.55 -4.9 51.6 -4.3 50.8 -5.15 49.4
M -10.6 49.35
Q -9.65 48.5 -9.5 46.6 -8.45 47.05 -7.45 47.75 -6.15 48.45 -5.65 49.6 -5.1 50.55 -5.55 51.35 -5.95 51.9 -6.2 52.45 -8.45 50.35 -10.6 49.35
M 4.85 28.2
Q 3.7 29.75 1.35 30.05 1.75 31.4 2.4 32.9 2.8 33.7 3.3 34.3 3.8 34.75 4.3 35 4.7 35.25 5.05 35.4 5.75 35.55 6.3 35.2 7.1 34.7 7.9 34
L 4.85 28.2
M 2.3 30.55
Q 4 30.4 4.75 29.6 5.45 31.7 7.05 33.9 6.6 34.15 6 34.55 5.45 34.8 4.9 34.6 4.75 34.55 4.5 34.35 4.3 34.3 4.05 34.1 3.5 33.65 3 32.75 2.55 31.65 2.3 30.55 Z"/>

<path fill="#9297C2" stroke="none" d="
M -9.5 46.6
Q -9.65 48.5 -10.6 49.35 -8.45 50.35 -6.2 52.45 -5.95 51.9 -5.55 51.35 -5.1 50.55 -5.65 49.6 -6.15 48.45 -7.45 47.75 -8.45 47.05 -9.5 46.6
M 4.75 29.6
Q 4 30.4 2.3 30.55 2.55 31.65 3 32.75 3.5 33.65 4.05 34.1 4.3 34.3 4.5 34.35 4.75 34.55 4.9 34.6 5.45 34.8 6 34.55 6.6 34.15 7.05 33.9 5.45 31.7 4.75 29.6 Z"/>
</g>

<g id="Duplicate_Items_Folder_arm_suit_copy_16_0_Layer3_0_FILL">
<path fill="#000000" stroke="none" d="
M 31.25 -48.7
Q 29.55 -48.4 27.15 -47.85 20.55 -46.55 15.8 -40.55 10.85 -34.35 9.8 -33.15 9.25 -32.5 6 -27.75 4 -24.8 0.95 -20.25 0 -16.6 4.25 -16.4 4.4 -16.1 4.55 -15.75 0.1 -8.4 0.15 -8.2
L -8.45 9 -8.4 9
Q -8.5 9.15 -8.6 9.3
L -12.2 16.45
Q -12.15 16.55 -12.1 16.6
L -12.7 17.55 -13 18.15
Q -13 18 -12.95 17.9
L -16.9 23.9
Q -22.15 36.8 -21.55 42.05 -21.5 42.4 -21.45 42.7 -21.2 43.9 -20.75 44.75
L -7.55 52.2
Q -4.85 52.95 -3.6 51.35 -2.25 49.75 -1.6 48.1 -1 46.65 -1.2 45.8 -1.5 44.8 -1.85 43.1 -2.25 41.5 -4.55 38.75 -4.65 38.7 -4.75 38.6
L -7.55 36.75
Q -8.1 35.1 -6.75 33.95
L -4.9 36.05
Q -3.95 37.15 -2.3 37.6 -1.55 37.8 -0.65 37.85 -0.25 37.95 0.05 37.95
L 0.05 37.9
Q 0.5 37.85 1 37.8 2.05 37.55 3.65 37.25 4.65 36.95 5.55 36.3 6.1 35.9 6.7 35.25 8.1 33.7 6.9 31.75 5.3 29.75 4.9 28.95 4.25 27.65 5.05 26.95 5.25 26.75 5.65 24.2 5.85 23.2 6.2 13.25 6.2451171875 13.06953125 6.25 12.85 6.25 13.0125 6.25 13.1
L 17.9 -10.6
Q 19.35 -10.75 20.5 -11.3
L 20.55 -11.3
Q 21.4 -10.9 22.35 -10.85 24.4 -10.55 26 -11.75 27.65 -12.85 27.85 -14.75 27.9 -14.95 27.85 -15.25 30.5 -21.6 31.4 -25.55 32.15 -29.65 32.55 -32
L 32.5 -36.65 31.8 -41.95
Q 31.75 -42.15 31.75 -42.3
L 31.2 -47.6
Q 31.25 -47.6 31.3 -47.6
L 31.25 -48.7
M 5.95 -13.7
Q 6.05 -13.8 6.15 -13.85 7.5 -12.85 9.3 -12.65 10.1 -12.55 10.9 -12.7 11.15 -12.5 11.35 -12.3 13 -10.95 15.6 -10.6
L 4.4 11.95
Q 4.15 11.6 3.95 11.3 2.35 8.95 3.15 14.75 3.8 19.6 3.45 20.25 3.3 19.5 3.2 18.5
L 3.45 22.45 3.55 22.45 3.55 23.1
Q 3.6 23.15 3.55 23.2
L 3.55 23.3
Q 3.4 23.65 3 24.75 2.8 26 2.65 26.95 2.45 27.8 4.1 30.4 5.45 33.1 4.45 34.2 3.35 35.35 0.95 35.7 -1.55 36.1 -3.25 35.1
L -3.25 34.8
Q -4.15 29.4 -3.65 25.85 -3.05 22.3 -6.75 28.85 -10.45 35.4 -10.05 38.35 -10 39 -10.15 39.45 -10.3 40 -10.9 40.25 -9.7 40.35 -8.7 40.35 -4 41.95 -3.55 45.05 -3.35 46.05 -3.4 46.95 -3.55 47.9 -4 48.75 -5.1 50.25 -7.15 50.2 -14.2 45 -19.4 42.2 -19.5 41.9 -19.6 41.6 -20.2 39.85 -19.9 38.95 -20 38.9 -20.1 38.8 -20 38.75 -19.8 38.85 -18.95 36.15 -17.15 30
L -17.2 29.95
Q -17.35 29.5 -16.25 26.95 -16.2 26.85 -16.2 26.75
L -16.15 26.7
Q -15.75 25.2 -15.2 23.5
L -12.6 20
Q -12.15 19.15 -5.6 8.7 -5.55 8.7 -5.45 8.75
L -4.75 7.3
Q -4.4 6.8 -4.05 6.25 -4.25 6.5 -4.45 6.75
L 5.95 -13.7 Z"/>

<path fill="#D6CFC2" stroke="none" d="
M -15.3 24.65
Q -15.15 24.45 -12.6 20
L -15.2 23.5
Q -15.75 25.2 -16.15 26.7 -16.1 26.65 -16.1 26.6 -16.0517578125 26.455078125 -16 26.3 -15.77890625 25.8533203125 -15.55 25.35 -15.45 25 -15.3 24.65
M -15.9 25.85
Q -15.866015625 25.8142578125 -15.85 25.75
L -15.65 25.15 -15.9 25.85 Z"/>

<path fill="#E2BAB6" stroke="none" d="
M -15.85 25.75
Q -15.866015625 25.8142578125 -15.9 25.85
L -15.65 25.15 -15.85 25.75
M 6.15 -13.85
Q 6.05 -13.8 5.95 -13.7
L -4.45 6.75
Q -4.25 6.5 -4.05 6.25 -4.4 6.8 -4.75 7.3
L -5.45 8.75
Q -5.55 8.7 -5.6 8.7 -12.15 19.15 -12.6 20 -15.15 24.45 -15.3 24.65 -15.45 25 -15.55 25.35 -15.77890625 25.8533203125 -16 26.3 -16.0517578125 26.455078125 -16.1 26.6 -16.1 26.65 -16.15 26.7
L -16.2 26.75
Q -16.2 26.85 -16.25 26.95 -17.35 29.5 -17.2 29.95
L -17.15 30
Q -18.95 36.15 -19.8 38.85 -20 38.75 -20.1 38.8 -20 38.9 -19.9 38.95 -20.2 39.85 -19.6 41.6 -19.5 41.9 -19.4 42.2 -14.2 45 -7.15 50.2 -5.1 50.25 -4 48.75 -3.55 47.9 -3.4 46.95 -3.35 46.05 -3.55 45.05 -4 41.95 -8.7 40.35 -9.7 40.35 -10.9 40.25 -10.3 40 -10.15 39.45 -10 39 -10.05 38.35 -10.45 35.4 -6.75 28.85 -3.05 22.3 -3.65 25.85 -4.15 29.4 -3.25 34.8
L -3.25 35.1
Q -1.55 36.1 0.95 35.7 3.35 35.35 4.45 34.2 5.45 33.1 4.1 30.4 2.45 27.8 2.65 26.95 2.8 26 3 24.75 3.4 23.65 3.55 23.3
L 3.55 23.2
Q 3.6 23.15 3.55 23.1
L 3.55 22.45 3.45 22.45 3.2 18.5
Q 3.3 19.5 3.45 20.25 3.8 19.6 3.15 14.75 2.35 8.95 3.95 11.3 4.15 11.6 4.4 11.95
L 15.6 -10.6
Q 13 -10.95 11.35 -12.3 11.15 -12.5 10.9 -12.7 10.1 -12.55 9.3 -12.65 7.5 -12.85 6.15 -13.85
M 14.3 -8.95
L 14.4 -8.95 14.25 -8.8 14.3 -8.95
M 0.3 18.9
Q 0.3 19.05 0.6 19.2 0.55 19.25 0.55 19.3 0.35 19.2 0.15 19.05
L 0.15 18.85 0.3 18.9
M -2.45 15.4
Q -2.35 15.35 -2.25 15.2 -2.15 15.05 -2 14.85
L -1.95 14.85
Q -2.05 15 -2.15 15.2 -2.3 15.35 -2.45 15.4 Z"/>

<path fill="#E8E6CE" stroke="none" d="
M -2.25 15.2
Q -2.35 15.35 -2.45 15.4 -2.3 15.35 -2.15 15.2 -2.05 15 -1.95 14.85
L -2 14.85
Q -2.15 15.05 -2.25 15.2
M 0.15 19.05
L 0.3 18.9 0.15 18.85 0.15 19.05
M 14.4 -8.95
L 14.3 -8.95 14.25 -8.8 14.4 -8.95 Z"/>

<path fill="#B1A96B" stroke="none" d="
M 0.6 19.2
Q 0.3 19.05 0.3 18.9
L 0.15 19.05
Q 0.35 19.2 0.55 19.3 0.55 19.25 0.6 19.2 Z"/>
</g>

<g id="Duplicate_Items_Folder_arm_suit_copy_16_0_Layer2_0_FILL">
<path fill="#A7C7EE" stroke="none" d="
M 29.5 -28.45
L 28 -44.15
Q 19.6 -40.95 16.65 -37.25 15.3 -35.45 11.3 -30.9 7.25 -26.4 5.45 -22.7 3.6 -18.95 8.05 -18.05 8 -18 8.75 -18.15 8.75 -14.45 14.05 -15.1 17.25 -11.05 21.15 -14.3 24.6 -13.1 25.2 -16.3 25.8 -19.6 26.95 -21.85 28.1 -24.15 28.8 -26.25 29.25 -27.4 29.5 -28.45 Z"/>
</g>

<g id="Duplicate_Items_Folder_arm_suit_copy_16_0_Layer1_0_FILL">
<path fill="#CDE2F5" stroke="none" d="
M 20.15 -17.95
Q 19.7 -17.6 19.65 -16.95 19.55 -16.4 19.95 -15.9 20.35 -15.4 20.95 -15.35 21.5 -15.3 21.9 -15.5 22.35 -15.1 22.9 -15 23.65 -14.9 24.2 -15.5 24.75 -16.05 24.8 -16.9 24.95 -17.75 24.45 -18.35 24.05 -19 23.4 -19.1
L 23.35 -19.1
Q 23.25 -19.3 23.1 -19.5 22.8 -19.95 22.2 -20 21.65 -20.1 21.2 -19.65 20.8 -19.25 20.65 -18.65 20.65 -18.45 20.65 -18.25 20.4 -18.15 20.15 -17.95
M 15.95 -19.55
Q 16.1 -20.4 15.65 -21 15.2 -21.65 14.55 -21.75
L 14.5 -21.75
Q 14.4 -21.95 14.25 -22.1 13.95 -22.65 13.35 -22.7 12.85 -22.8 12.35 -22.35 11.95 -21.95 11.8 -21.3 11.8 -21.1 11.8 -20.85 11.55 -20.8 11.35 -20.65 10.85 -20.3 10.8 -19.65 10.7 -19.05 11.1 -18.6 11.5 -18.1 12.15 -18.05 12.65 -17.95 13.05 -18.2 13.5 -17.75 14.1 -17.65 14.8 -17.6 15.35 -18.15 15.9 -18.7 15.95 -19.55
M 18.35 -31.75
Q 17.95 -32.4 17.25 -32.5
L 17.2 -32.5
Q 17.1 -32.7 16.95 -32.85 16.6 -33.35 16.1 -33.4 15.55 -33.5 15.05 -33.1 14.6 -32.7 14.55 -32.05 14.55 -31.8 14.55 -31.6 14.3 -31.55 14.05 -31.35 13.55 -30.95 13.45 -30.35 13.4 -29.8 13.75 -29.3 14.2 -28.85 14.85 -28.8 15.4 -28.7 15.75 -28.95 16.15 -28.45 16.75 -28.4 17.5 -28.3 18 -28.9 18.65 -29.45 18.7 -30.25 18.8 -31.15 18.35 -31.75
M 6.95 -25.5
L 6.95 -25.45
Q 7.4 -24.95 8.05 -24.9 8.6 -24.8 8.95 -25.05 9.4 -24.55 9.95 -24.5 10.75 -24.4 11.25 -25 11.85 -25.55 11.9 -26.4 12.05 -27.25 11.55 -27.85 11.15 -28.5 10.45 -28.6
L 10.4 -28.6
Q 10.3 -28.8 10.15 -28.95 10 -29.25 9.75 -29.35
L 6.95 -25.5
M 26.7 -31.15
Q 26.45 -31.65 25.85 -31.7 25.3 -31.75 24.85 -31.35 24.45 -30.95 24.35 -30.3 24.35 -30.1 24.3 -29.9 24.05 -29.8 23.8 -29.6 23.3 -29.3 23.3 -28.65 23.2 -28.05 23.55 -27.55 23.95 -27.1 24.6 -27.05 25.15 -26.95 25.6 -27.2 25.95 -26.75 26.55 -26.65 27.3 -26.55 27.8 -27.15 28.4 -27.7 28.5 -28.5 28.6 -29.4 28.15 -30 27.7 -30.65 27 -30.75
L 26.95 -30.75
Q 26.85 -30.95 26.7 -31.15
M 24.15 -40.3
Q 24.05 -40.5 23.95 -40.7 23.6 -41.15 23 -41.2 22.45 -41.3 22.05 -40.9 21.6 -40.45 21.5 -39.85 21.5 -39.65 21.5 -39.45 21.25 -39.4 20.95 -39.15 20.5 -38.8 20.45 -38.2 20.4 -37.6 20.75 -37.1 21.15 -36.65 21.75 -36.6 22.3 -36.55 22.75 -36.8 23.15 -36.3 23.7 -36.2 24.45 -36.15 25 -36.7 25.55 -37.3 25.65 -38.1 25.75 -38.95 25.3 -39.55 24.9 -40.25 24.2 -40.35
L 24.15 -40.3 Z"/>
</g>

<g id="Duplicate_Items_Folder_arm_suit_copy_16_0_Layer0_0_FILL">
<path fill="#000000" stroke="none" d="
M -5.15 49.4
Q -5.6 47.95 -7.3 46.95 -8.6 46.05 -10.15 45.45 -10.35 48.15 -12 49.35
L -6.2 53.4
Q -5.45 52.55 -4.9 51.6 -4.3 50.8 -5.15 49.4
M -10.6 49.35
Q -9.65 48.5 -9.5 46.6 -8.45 47.05 -7.45 47.75 -6.15 48.45 -5.65 49.6 -5.1 50.55 -5.55 51.35 -5.95 51.9 -6.2 52.45 -8.45 50.35 -10.6 49.35
M 4.85 28.2
Q 3.7 29.75 1.35 30.05 1.75 31.4 2.4 32.9 2.8 33.7 3.3 34.3 3.8 34.75 4.3 35 4.7 35.25 5.05 35.4 5.75 35.55 6.3 35.2 7.1 34.7 7.9 34
L 4.85 28.2
M 2.3 30.55
Q 4 30.4 4.75 29.6 5.45 31.7 7.05 33.9 6.6 34.15 6 34.55 5.45 34.8 4.9 34.6 4.75 34.55 4.5 34.35 4.3 34.3 4.05 34.1 3.5 33.65 3 32.75 2.55 31.65 2.3 30.55 Z"/>

<path fill="#9297C2" stroke="none" d="
M -9.5 46.6
Q -9.65 48.5 -10.6 49.35 -8.45 50.35 -6.2 52.45 -5.95 51.9 -5.55 51.35 -5.1 50.55 -5.65 49.6 -6.15 48.45 -7.45 47.75 -8.45 47.05 -9.5 46.6
M 4.75 29.6
Q 4 30.4 2.3 30.55 2.55 31.65 3 32.75 3.5 33.65 4.05 34.1 4.3 34.3 4.5 34.35 4.75 34.55 4.9 34.6 5.45 34.8 6 34.55 6.6 34.15 7.05 33.9 5.45 31.7 4.75 29.6 Z"/>
</g>

<g id="Duplicate_Items_Folder_body_suit_copy_15_0_Layer4_0_FILL">
<path fill="#000000" stroke="none" d="
M 30.65 -12.7
L 32.25 -68.2 -30.25 -70.8 -31.85 -15.3 30.65 -12.7 Z"/>
</g>

<g id="Duplicate_Items_Folder_body_suit_copy_15_0_Layer3_0_FILL">
<path fill="#000000" stroke="none" d="
M 31.6 -25.7
Q 26.95 -39.8 18.1 -39.9
L -17.1 -41.35
Q -20.759375 -41.5115234375 -24.65 -37.7 -27.98984375 -34.4388671875 -31.5 -28.25 -33.246875 0.853125 -36.6 25.7
L -36.25 24.85
Q -37.95 34.75 -39.1 43.3 -41.271484375 60.8015625 -27.5 63 -25.4013671875 63.3197265625 -22.95 63.3 -5.5818359375 67.9951171875 10.6 65.75 13.90546875 65.33515625 17.15 64.6 32.05 64.75 35.3 50.5
L 34.45 29.55 34.35 29.55 31.6 -25.7
M 16.35 -37.15
Q 24.35 -37.05 28.6 -23.85 25.0171875 3.415234375 31.1 29.35
L 31.25 29.35 31.9 47.05
Q 30.84609375 51.801953125 28.45 54.85 26.4228515625 57.4267578125 23.4 58.75 20.59765625 60.0466796875 19.55 59.45 16.2244140625 60.25546875 15.5 60.25 14.2580078125 60.53984375 13 60.75 11.8822265625 60.9978515625 10.75 61.15 3.8470703125 62.2716796875 -3.3 61.9 -5.4466796875 61.8328125 -7.65 61.6 -10.3638671875 61.298828125 -13.15 60.8 -15.2849609375 60.4103515625 -17.5 59.9 -19.10234375 59.5076171875 -20.75 59.05
L -20.8 59.05
Q -22.883984375 59.0587890625 -24.7 58.75 -25.0078125 58.723828125 -25.35 58.65 -26.297265625 58.4779296875 -27.2 58.2 -32.00546875 56.6568359375 -34.05 52.35 -35.62109375 49.09609375 -35.6 44.2 -35.555859375 42.353125 -35.3 40.25 -34.562109375 34.511328125 -33.9 28.5 -33.744140625 27.22421875 -33.05 25.65
L -33.25 25.9
Q -25.5322265625 2.1216796875 -28.5 -26.25 -24.98046875 -32.6515625 -22.2 -35.65 -19.4576171875 -38.468359375 -17.4 -38.15 -0.0099609375 -24.4861328125 16.35 -37.15 Z"/>

<path fill="#A7C7EE" stroke="none" d="
M -22.2 -35.65
Q -24.98046875 -32.6515625 -28.5 -26.25 -25.5322265625 2.1216796875 -33.25 25.9
L -33.05 25.65
Q -33.744140625 27.22421875 -33.9 28.5 -34.562109375 34.511328125 -35.3 40.25 -35.555859375 42.353125 -35.6 44.2 -35.62109375 49.09609375 -34.05 52.35 -32.00546875 56.6568359375 -27.2 58.2 -26.297265625 58.4779296875 -25.35 58.65 -25.0078125 58.723828125 -24.7 58.75 -22.883984375 59.0587890625 -20.8 59.05
L -20.75 59.05
Q -19.10234375 59.5076171875 -17.5 59.9 -15.2849609375 60.4103515625 -13.15 60.8 -10.3638671875 61.298828125 -7.65 61.6 -5.4466796875 61.8328125 -3.3 61.9 3.8470703125 62.2716796875 10.75 61.15 31.9083984375 35.9662109375 12.75 -6.3 6.7478515625 -19.7080078125 -22.2 -35.65 Z"/>

<path fill="#87B7E7" stroke="none" d="
M 28.6 -23.85
Q 24.35 -37.05 16.35 -37.15 -0.0099609375 -24.4861328125 -17.4 -38.15 -19.4576171875 -38.468359375 -22.2 -35.65 6.7478515625 -19.7080078125 12.75 -6.3 31.9083984375 35.9662109375 10.75 61.15 11.8822265625 60.9978515625 13 60.75 14.2580078125 60.53984375 15.5 60.25 16.2244140625 60.25546875 19.55 59.45 20.59765625 60.0466796875 23.4 58.75 26.4228515625 57.4267578125 28.45 54.85 30.84609375 51.801953125 31.9 47.05
L 31.25 29.35 31.1 29.35
Q 25.0171875 3.415234375 28.6 -23.85 Z"/>
</g>

<g id="Duplicate_Items_Folder_body_suit_copy_15_0_Layer2_0_FILL">
<path fill="#000000" stroke="none" d="
M 17.85 -38.85
Q 17.7 -38.95 17.5 -38.95 17.4 -38.9 17.25 -38.75 10.79140625 -31.7296875 1.25 -31.85 1.2095703125 -31.976953125 1.1 -32.05 0.95 -32.15 0.8 -32.15 -10.45 -32.05 -17.5 -40.05 -17.65 -40.2 -17.8 -40.25 -18 -40.25 -18.15 -40.15 -18.3 -40.1 -18.35 -39.9 -18.45 -39.75 -18.45 -39.65 -19.7 -36.55 -18.85 -32.4 -18 -28.05 -13.4 -26.55 -8.95 -25.1 -4.55 -26.55
L -4.5 -26.55
Q -1.3748046875 -27.6509765625 0.15 -29.55 1.5236328125 -27.436328125 4.55 -26.15
L 4.6 -26.15
Q 8.6 -24.5 12.75 -25.7 17.1 -26.95 18.1 -31.2 19.1 -35.2 18.1 -38.3 18.1 -38.4 18.05 -38.6 18 -38.8 17.85 -38.85
M 0.65 -30.85
Q 0.8337890625 -30.8443359375 1 -30.85 10.6771484375 -30.67890625 17.4 -37.5 18.05 -34.8 17.15 -31.45 16.35 -27.8 12.55 -26.7 8.65 -25.6 4.9 -27.1 1.94765625 -28.3455078125 0.8 -30.5 0.73125 -30.6642578125 0.65 -30.85
M -13.1 -27.5
Q -17.1 -28.85 -17.85 -32.6 -18.6 -36.1 -17.7 -38.8 -10.9294921875 -31.5423828125 -0.55 -31.2
L -0.55 -31.15
Q -0.5 -31.05 -0.45 -30.95
L -0.5 -31
Q -0.4298828125 -30.78984375 -0.35 -30.6 -1.7294921875 -28.598828125 -4.85 -27.5 -8.95 -26.2 -13.1 -27.5 Z"/>

<path fill="#FFFFFF" stroke="none" d="
M -17.85 -32.6
Q -17.1 -28.85 -13.1 -27.5 -8.95 -26.2 -4.85 -27.5 -1.7294921875 -28.598828125 -0.35 -30.6 -0.4298828125 -30.78984375 -0.5 -31
L -0.45 -30.95
Q -0.5 -31.05 -0.55 -31.15
L -0.55 -31.2
Q -10.9294921875 -31.5423828125 -17.7 -38.8 -18.6 -36.1 -17.85 -32.6
M 1 -30.85
Q 0.8337890625 -30.8443359375 0.65 -30.85 0.73125 -30.6642578125 0.8 -30.5 1.94765625 -28.3455078125 4.9 -27.1 8.65 -25.6 12.55 -26.7 16.35 -27.8 17.15 -31.45 18.05 -34.8 17.4 -37.5 10.6771484375 -30.67890625 1 -30.85 Z"/>
</g>

<g id="Duplicate_Items_Folder_body_suit_copy_15_0_Layer1_0_FILL">
<path fill="#CDE2F5" stroke="none" d="
M -2 52.4
Q -2.15 52.35 -2.4 52.25 -2.4 52 -2.55 51.8 -2.7 51.15 -3.35 50.95 -3.9 50.75 -4.4 51.05 -5.05 51.25 -5.2 51.85 -5.4 52.4 -5.25 52.85 -5.75 53.15 -6 53.6 -6.3 54.35 -5.85 55 -5.45 55.7 -4.7 56 -3.85 56.3 -3.2 56 -2.45 55.75 -2.15 55.1
L -2.2 55
Q -1.9 55.05 -1.75 54.95 -1.2 54.75 -0.95 54.2 -0.8 53.7 -1.1 53.15 -1.35 52.65 -2 52.4
M -10.95 38.55
Q -11.5 38.95 -11.75 39.45 -11.95 40.1 -11.5 40.8 -11.2 41.5 -10.4 41.7 -9.6 42.05 -8.85 41.75 -8.1 41.55 -7.9 40.85
L -7.85 40.85
Q -7.65 40.85 -7.4 40.65 -6.9 40.5 -6.7 39.95 -6.45 39.45 -6.7 38.9 -7.1 38.4 -7.6 38.15 -7.8 38.05 -8.05 38.05 -8.1 37.8 -8.15 37.5 -8.45 36.95 -9 36.75 -9.55 36.55 -10.15 36.75 -10.65 37.05 -10.85 37.6 -11.1 38.2 -10.95 38.55
M -20.4 47.25
Q -20.95 47.4 -21.15 48 -21.35 48.5 -21.15 49.2 -21.1 49.35 -20.95 49.55 -21.15 49.7 -21.3 50 -21.55 50.55 -21.35 51.1 -21.2 51.7 -20.65 51.95 -20.05 52.2 -19.45 51.95 -18.95 51.8 -18.7 51.4 -18.15 51.6 -17.55 51.45 -16.85 51.2 -16.65 50.4 -16.35 49.7 -16.7 48.9 -16.95 48.1 -17.65 47.7 -18.25 47.35 -18.9 47.55
L -18.95 47.55
Q -19.15 47.45 -19.35 47.35 -19.85 47.05 -20.4 47.25
M -26.7 49.25
Q -27.4 48.85 -28.05 49.05
L -28.1 49.1
Q -28.2 48.95 -28.45 48.9 -28.95 48.55 -29.5 48.75 -30 48.9 -30.25 49.5 -30.45 50.05 -30.25 50.7 -30.15 50.9 -30.1 51.05 -30.3 51.2 -30.4 51.5 -30.65 52.05 -30.45 52.65 -30.25 53.2 -29.7 53.45 -29.15 53.7 -28.5 53.5 -28.05 53.3 -27.8 52.95 -27.2 53.15 -26.65 52.95 -25.95 52.7 -25.75 51.95 -25.45 51.2 -25.75 50.45 -26 49.6 -26.7 49.25
M -35.65 44.4
L -35.5 49.35
Q -35.4330078125 49.25 -35.25 49.2 -34.7 49 -34.45 48.6 -33.9 48.85 -33.35 48.65 -32.65 48.4 -32.45 47.65 -32.15 46.9 -32.45 46.1 -32.7 45.3 -33.4 44.95 -34.1 44.55 -34.75 44.75
L -34.8 44.8
Q -34.9 44.65 -35.15 44.6 -35.4 44.4 -35.65 44.4
M -30.8 38.1
Q -31.25 37.75 -31.85 37.95 -32.35 38.1 -32.6 38.7 -32.8 39.25 -32.55 39.9 -32.5 40.1 -32.4 40.25 -32.6 40.4 -32.7 40.7 -33 41.25 -32.8 41.85 -32.6 42.4 -32.05 42.65 -31.5 42.9 -30.85 42.7 -30.4 42.5 -30.15 42.15 -29.55 42.35 -29 42.15 -28.3 41.9 -28.1 41.15 -27.8 40.4 -28.1 39.65 -28.35 38.8 -29.05 38.45 -29.7 38.05 -30.35 38.25
L -30.4 38.3
Q -30.6 38.15 -30.8 38.1
M -23.05 35.95
Q -23.25 36.5 -23.05 37.1 -22.95 37.3 -22.9 37.45 -23.1 37.65 -23.2 37.9 -23.5 38.45 -23.25 39.05 -23.05 39.6 -22.5 39.85 -21.9 40.1 -21.35 39.9 -20.8 39.7 -20.55 39.35 -20 39.55 -19.45 39.35 -18.75 39.1 -18.5 38.35 -18.25 37.6 -18.55 36.85 -18.85 36 -19.5 35.7 -20.2 35.25 -20.85 35.45
L -20.85 35.5
Q -21.05 35.4 -21.25 35.3 -21.75 35 -22.3 35.15 -22.8 35.35 -23.05 35.95
M -29.1 27.9
Q -29.55 28.05 -29.8 28.6 -30.05 29.2 -29.8 29.8 -29.7 29.95 -29.65 30.15 -29.85 30.3 -29.95 30.65 -30.25 31.2 -30 31.75 -29.8 32.3 -29.25 32.6 -28.7 32.8 -28.1 32.55 -27.6 32.45 -27.35 32 -26.75 32.3 -26.25 32.1 -25.5 31.85 -25.3 31.05 -25 30.35 -25.3 29.5 -25.6 28.75 -26.25 28.35 -26.95 27.95 -27.6 28.2
L -27.65 28.2
Q -27.85 28.05 -28 27.95 -28.5 27.7 -29.1 27.9
M -24.3 12.95
L -24.35 12.95
Q -24.5 12.85 -24.7 12.75 -25.1 12.3 -25.65 12.35 -26.25 12.4 -26.55 12.95 -26.9 13.4 -26.85 14.1 -26.75 14.25 -26.75 14.45 -26.95 14.6 -27.2 14.8 -27.6 15.3 -27.45 15.95 -27.45 16.5 -26.9 16.9 -26.4 17.25 -25.75 17.2 -25.25 17.1 -24.95 16.75 -24.45 17.1 -23.85 17.1 -23.15 17 -22.75 16.25 -22.25 15.6 -22.4 14.75 -22.45 13.95 -23.1 13.45 -23.6 12.9 -24.3 12.95
M -8.1 21.25
Q -8.15 21.8 -7.85 22.4 -7.7 22.55 -7.6 22.7 -7.75 22.9 -7.85 23.25 -7.95 23.8 -7.6 24.35 -7.3 24.9 -6.7 25 -6.1 25.1 -5.55 24.75 -5.1 24.5 -4.95 24.05 -4.35 24.15 -3.85 23.8 -3.2 23.4 -3.15 22.65 -3.05 21.85 -3.55 21.15 -3.95 20.4 -4.7 20.25 -5.45 19.95 -6.05 20.3
L -6.05 20.35
Q -6.25 20.3 -6.45 20.2 -7.05 20.05 -7.5 20.35 -8 20.65 -8.1 21.25
M -16.05 23.85
Q -16.55 24.1 -16.65 24.7 -16.7 25.3 -16.4 25.85 -16.3 26 -16.1 26.2 -16.25 26.4 -16.35 26.7 -16.5 27.3 -16.15 27.8 -15.85 28.3 -15.25 28.45 -14.65 28.55 -14.15 28.2 -13.6 27.9 -13.5 27.5 -12.85 27.55 -12.35 27.3 -11.75 26.9 -11.7 26.1 -11.55 25.3 -12.05 24.65 -12.5 23.9 -13.25 23.7 -13.95 23.45 -14.55 23.8
L -14.6 23.85
Q -14.75 23.7 -15.05 23.7 -15.55 23.5 -16.05 23.85
M -17.55 5.55
Q -17.6 4.7 -18.2 4.2 -18.75 3.65 -19.45 3.75
L -19.45 3.8
Q -19.65 3.65 -19.8 3.45 -20.25 3.05 -20.8 3.15 -21.35 3.15 -21.65 3.75 -22.05 4.2 -21.95 4.8 -21.9 5.05 -21.85 5.25 -22.1 5.35 -22.35 5.6 -22.7 6.1 -22.55 6.7 -22.5 7.3 -22.05 7.7 -21.55 8.05 -20.9 7.95 -20.4 7.95 -20.05 7.6 -19.6 7.9 -19 7.8 -18.2 7.75 -17.85 7.05 -17.4 6.4 -17.55 5.55
M -7.95 9.8
Q -8.45 9.05 -9.15 8.9 -9.9 8.65 -10.5 9
L -10.55 9.05
Q -10.75 8.9 -10.95 8.9 -11.5 8.7 -12 9 -12.45 9.3 -12.55 9.9 -12.65 10.45 -12.3 11.05 -12.2 11.2 -12.05 11.4 -12.25 11.6 -12.25 11.85 -12.45 12.5 -12.05 13 -11.75 13.5 -11.2 13.6 -10.55 13.75 -10.05 13.4 -9.6 13.1 -9.4 12.65 -8.8 12.75 -8.35 12.5 -7.7 12.1 -7.65 11.3 -7.5 10.5 -7.95 9.8
M -10.3 -4.2
Q -10.8 -4.55 -11.35 -4.35 -11.85 -4.2 -12.1 -3.6 -12.3 -3.05 -12.1 -2.4 -12 -2.2 -11.95 -2.05 -12.15 -1.9 -12.25 -1.6 -12.5 -1.05 -12.3 -0.45 -12.1 0.1 -11.55 0.35 -11 0.6 -10.35 0.4 -9.9 0.2 -9.65 -0.15 -9.05 0.05 -8.5 -0.15 -7.8 -0.4 -7.6 -1.15 -7.3 -1.9 -7.6 -2.65 -7.85 -3.5 -8.55 -3.85 -9.25 -4.25 -9.9 -4.05
L -9.95 -4
Q -10.05 -4.15 -10.3 -4.2
M -8.35 -13.75
Q -8.75 -14.5 -9.5 -14.65 -10.25 -14.95 -10.85 -14.6
L -10.85 -14.55
Q -11.05 -14.6 -11.25 -14.7 -11.85 -14.85 -12.3 -14.55 -12.8 -14.25 -12.9 -13.65 -12.95 -13.1 -12.65 -12.5 -12.5 -12.35 -12.4 -12.2 -12.55 -12 -12.65 -11.65 -12.75 -11.1 -12.4 -10.55 -12.1 -10 -11.5 -9.9 -10.9 -9.8 -10.35 -10.15 -9.9 -10.4 -9.75 -10.85 -9.15 -10.75 -8.65 -11.1 -8 -11.5 -7.95 -12.25 -7.85 -13.05 -8.35 -13.75
M -21.6 -8.7
Q -22.1 -8.9 -22.6 -8.55 -23.1 -8.3 -23.2 -7.7 -23.25 -7.1 -22.95 -6.55 -22.85 -6.4 -22.65 -6.2 -22.8 -6 -22.9 -5.7 -23.05 -5.1 -22.7 -4.6 -22.4 -4.1 -21.8 -3.95 -21.2 -3.85 -20.7 -4.2 -20.15 -4.5 -20.05 -4.9 -19.4 -4.85 -18.9 -5.1 -18.3 -5.5 -18.25 -6.3 -18.1 -7.1 -18.6 -7.75 -19.05 -8.5 -19.8 -8.7 -20.5 -8.95 -21.1 -8.6
L -21.15 -8.55
Q -21.3 -8.7 -21.6 -8.7
M -25.5 -13.95
Q -26.25 -14.25 -26.85 -13.9
L -26.9 -13.85
Q -27.1 -13.9 -27.3 -14 -27.6 -14.05 -27.85 -14
L -27.6 -9.2 -27.55 -9.2
Q -26.9 -9.1 -26.4 -9.45 -25.95 -9.7 -25.75 -10.15 -25.15 -10.05 -24.65 -10.4 -24 -10.8 -24 -11.55 -23.85 -12.35 -24.3 -13.05 -24.8 -13.8 -25.5 -13.95
M -21.15 -18.85
Q -21 -19.65 -21.5 -20.35 -21.9 -21.05 -22.65 -21.25 -23.4 -21.5 -24 -21.15
L -24.05 -21.15
Q -24.2 -21.2 -24.4 -21.2 -25 -21.4 -25.5 -21.15 -25.95 -20.85 -26.05 -20.2 -26.15 -19.65 -25.8 -19.05 -25.65 -18.9 -25.55 -18.75 -25.7 -18.55 -25.8 -18.25 -25.95 -17.65 -25.55 -17.1 -25.3 -16.6 -24.65 -16.5 -24.05 -16.4 -23.5 -16.7 -23.05 -17 -22.95 -17.45 -22.3 -17.35 -21.8 -17.6 -21.2 -18 -21.15 -18.85
M -22.15 -31.7
Q -22.9 -31.95 -23.5 -31.6
L -23.5 -31.55
Q -23.7 -31.6 -23.9 -31.7 -24.5 -31.85 -24.95 -31.55 -25.45 -31.3 -25.5 -30.65 -25.65 -30.05 -25.3 -29.55 -25.15 -29.35 -25.05 -29.2 -25.2 -29 -25.3 -28.65 -25.4 -28.1 -25.05 -27.6 -24.75 -27.05 -24.15 -26.9 -23.55 -26.8 -23 -27.15 -22.55 -27.4 -22.4 -27.85 -21.8 -27.75 -21.3 -28.1 -20.65 -28.5 -20.6 -29.25 -20.5 -30.05 -21 -30.75 -21.4 -31.5 -22.15 -31.7
M -12.75 -25.1
Q -13.25 -25.85 -13.95 -26 -14.7 -26.25 -15.3 -25.9
L -15.35 -25.85
Q -15.55 -26 -15.75 -26 -16.3 -26.2 -16.8 -25.9 -17.25 -25.6 -17.35 -25 -17.45 -24.45 -17.1 -23.85 -17 -23.7 -16.85 -23.5 -17.05 -23.3 -17.05 -23.05 -17.25 -22.4 -16.85 -21.9 -16.55 -21.4 -16 -21.3 -15.35 -21.15 -14.85 -21.5 -14.4 -21.8 -14.2 -22.25 -13.6 -22.15 -13.15 -22.4 -12.5 -22.8 -12.45 -23.6 -12.3 -24.4 -12.75 -25.1
M 7.45 51.3
Q 7.15 50.75 6.6 50.6 6.05 50.3 5.5 50.55 4.95 50.85 4.7 51.45 4.5 51.95 4.65 52.4 4.1 52.7 3.9 53.25 3.65 54 4.05 54.6 4.45 55.25 5.25 55.5 6.05 55.9 6.8 55.65 7.55 55.4 7.75 54.7
L 7.75 54.65
Q 7.9 54.6 8.2 54.55 8.7 54.3 8.9 53.8 9.15 53.3 8.8 52.75 8.55 52.15 8 52 7.75 51.9 7.55 51.9 7.55 51.65 7.45 51.3
M 28.35 51.65
Q 28.5 51.45 28.6 51.1 28.7 50.55 28.35 50.05 28.05 49.5 27.45 49.35 26.85 49.25 26.3 49.6 25.85 49.85 25.7 50.3 25.1 50.2 24.6 50.55 23.95 50.95 23.9 51.7 23.8 52.5 24.3 53.2 24.7 53.95 25.45 54.15 26.2 54.4 26.8 54.05
L 26.8 54
Q 27 54.05 27.2 54.15 27.8 54.3 28.25 54 28.75 53.75 28.8 53.1 28.95 52.5 28.6 52 28.45 51.8 28.35 51.65
M 29.1 41.5
Q 28.95 41.35 28.85 41.2 29 41 29.1 40.7 29.25 40.1 28.85 39.55 28.6 39.05 27.95 38.95 27.35 38.85 26.8 39.15 26.35 39.45 26.25 39.9 25.6 39.8 25.1 40.05 24.5 40.45 24.45 41.3 24.3 42.1 24.8 42.8 25.2 43.5 25.95 43.7 26.7 43.95 27.3 43.6
L 27.35 43.6
Q 27.5 43.65 27.7 43.65 28.3 43.85 28.8 43.6 29.25 43.3 29.35 42.65 29.45 42.1 29.1 41.5
M 30.9 31.65
L 30.85 31.65
Q 30.2 31.55 29.7 31.9 29.25 32.15 29.05 32.6 28.45 32.5 27.95 32.85 27.3 33.25 27.3 34 27.15 34.8 27.6 35.5 28.1 36.25 28.8 36.4 29.55 36.7 30.15 36.35
L 30.2 36.3
Q 30.4 36.35 30.6 36.45 30.9 36.5 31.15 36.45
L 30.9 31.65
M 19.3 43.75
Q 18.65 43.6 18.15 43.95 17.7 44.25 17.5 44.7 16.9 44.6 16.45 44.85 15.8 45.25 15.75 46.05 15.6 46.85 16.05 47.55 16.55 48.3 17.25 48.45 18 48.7 18.6 48.35
L 18.65 48.3
Q 18.85 48.45 19.05 48.45 19.6 48.65 20.1 48.35 20.55 48.05 20.65 47.45 20.75 46.9 20.4 46.3 20.3 46.15 20.15 45.95 20.35 45.75 20.35 45.5 20.55 44.85 20.15 44.35 19.85 43.85 19.3 43.75
M 1.7 43.25
Q 1.65 43 1.6 42.7 1.3 42.15 0.7 41.95 0.2 41.7 -0.4 41.95 -0.95 42.3 -1.2 42.85 -1.35 43.35 -1.2 43.8 -1.75 44.1 -2 44.6 -2.2 45.25 -1.75 46 -1.45 46.7 -0.6 46.95 0.15 47.3 0.9 47 1.65 46.75 1.85 46.05
L 1.9 46.05
Q 2.05 46 2.25 45.85 2.8 45.65 3.05 45.15 3.25 44.7 2.95 44.1 2.65 43.6 2.05 43.35 1.8 43.3 1.7 43.25
M 1.95 30
Q 1.5 30.25 1.35 30.7 0.75 30.6 0.25 30.95 -0.4 31.35 -0.45 32.1 -0.55 32.9 -0.05 33.6 0.35 34.35 1.1 34.5 1.85 34.8 2.45 34.45
L 2.45 34.4
Q 2.65 34.45 2.85 34.55 3.45 34.7 3.9 34.4 4.4 34.1 4.5 33.5 4.55 32.95 4.25 32.35 4.1 32.2 4 32.05 4.15 31.85 4.25 31.5 4.35 30.95 4 30.4 3.7 29.85 3.1 29.75 2.5 29.65 1.95 30
M 19.8 31.25
Q 19.65 32.05 20.15 32.7 20.6 33.45 21.35 33.65 22.05 33.9 22.65 33.55
L 22.7 33.5
Q 22.85 33.65 23.15 33.65 23.65 33.85 24.15 33.5 24.65 33.25 24.75 32.65 24.8 32.05 24.5 31.5 24.4 31.35 24.2 31.15 24.35 30.95 24.45 30.65 24.6 30.05 24.25 29.55 23.95 29.05 23.35 28.9 22.75 28.8 22.25 29.15 21.7 29.45 21.6 29.85 20.95 29.8 20.45 30.05 19.85 30.45 19.8 31.25
M 13.65 32.6
Q 13.2 32.85 13.05 33.3 12.596484375 33.2244140625 12.2 33.4 12.0720703125 33.4646484375 11.95 33.55 11.3 33.95 11.25 34.7 11.15 35.5 11.65 36.2 11.8712890625 36.6150390625 12.2 36.85 12.4650390625 37.0330078125 12.8 37.1 13.55 37.4 14.15 37.05
L 14.15 37
Q 14.35 37.05 14.55 37.15 15.15 37.3 15.6 37 16.1 36.7 16.2 36.1 16.25 35.55 15.95 34.95 15.8 34.8 15.7 34.65 15.85 34.45 15.95 34.1 16.05 33.55 15.7 33 15.4 32.45 14.8 32.35 14.2 32.25 13.65 32.6
M 9.55 20.85
Q 9.05 20.95 8.8 21.4 8.2 21.1 7.7 21.3 6.95 21.55 6.75 22.35 6.45 23.05 6.75 23.9 7.05 24.65 7.7 25.05 8.4 25.45 9.05 25.2
L 9.1 25.2
Q 9.3 25.35 9.45 25.45 9.95 25.7 10.55 25.5 11 25.35 11.25 24.8 11.5 24.2 11.25 23.6 11.15 23.45 11.1 23.25 11.3 23.1 11.4 22.75 11.7 22.2 11.45 21.65 11.25 21.1 10.7 20.8 10.15 20.6 9.55 20.85
M 1.5 12.3
Q 0.95 12.1 0.4 12.3 -0.3 12.55 -0.55 13.3 -0.8 14.05 -0.5 14.8 -0.2 15.65 0.45 15.95 1.15 16.4 1.8 16.2
L 1.8 16.15
Q 2 16.25 2.2 16.35 2.7 16.65 3.25 16.5 3.75 16.3 4 15.7 4.2 15.15 4 14.55 3.9 14.35 3.85 14.2 4.05 14 4.15 13.75 4.45 13.2 4.2 12.6 4 12.05 3.45 11.8 2.85 11.55 2.3 11.75 1.75 11.95 1.5 12.3
M 13 9
Q 12.6234375 8.82890625 12.2 8.85 12.0048828125 8.8869140625 11.8 8.95 11.35 9.15 11.1 9.5 10.5 9.3 9.95 9.5 9.25 9.75 9.05 10.5 8.75 11.25 9.05 12 9.3 12.85 10 13.2 10.65 13.6 11.3 13.4
L 11.35 13.35
Q 11.55 13.5 11.75 13.55 11.958984375 13.7125 12.2 13.75 12.478515625 13.8072265625 12.8 13.7 13.3 13.55 13.55 12.95 13.75 12.4 13.5 11.75 13.45 11.55 13.35 11.4 13.55 11.25 13.65 10.95 13.95 10.4 13.75 9.8 13.55 9.25 13 9
M 21.7 18.05
Q 21.55 18.2 21.3 18.4 21.25 18.55 21.15 18.7 20.5 18.6 20 18.9 19.35 19.3 19.3 20.05 19.15 20.85 19.55 21.5 19.95 22.3 20.7 22.55 21.4 22.85 22.05 22.5
L 22.1 22.45
Q 22.3 22.6 22.45 22.6 22.95 22.85 23.55 22.55 24 22.3 24.15 21.7 24.25 21.1 23.9 20.5 23.8 20.3 23.7 20.15 23.85 20.05 23.9 19.7 24.1 19.1 23.8 18.55 23.65 18.2 23.3 18.05 23.15 17.95 22.9 17.85 22.35 17.7 21.7 18.05
M 21.4 5.3
Q 20.85 5.45 20.65 6.05 20.45 6.55 20.65 7.25 20.7 7.4 20.85 7.6 20.65 7.75 20.5 8.05 20.25 8.6 20.45 9.15 20.6 9.75 21.15 10 21.75 10.25 22.35 10 22.85 9.85 23.1 9.45 23.65 9.65 24.25 9.5 24.95 9.25 25.15 8.45 25.45 7.75 25.1 6.95 24.85 6.15 24.15 5.75 23.55 5.4 22.9 5.6
L 22.85 5.6
Q 22.65 5.5 22.45 5.4 21.95 5.1 21.4 5.3
M 27.55 -20.95
Q 27.55 -20.8 27.35 -20.75 26.8 -20.55 26.55 -20.15 26 -20.4 25.45 -20.2 24.75 -19.95 24.55 -19.2 24.25 -18.45 24.55 -17.65 24.8 -16.85 25.5 -16.5 26.2 -16.1 26.85 -16.3
L 26.9 -16.35
Q 27 -16.2 27.25 -16.15 27.5 -15.95 27.75 -15.95
L 27.55 -20.95
M 20.2 -12.7
Q 19.9 -11.95 20.2 -11.2 20.45 -10.35 21.15 -10 21.8 -9.6 22.45 -9.8
L 22.5 -9.85
Q 22.7 -9.7 22.9 -9.65 23.35 -9.3 23.95 -9.5 24.45 -9.65 24.7 -10.25 24.9 -10.8 24.65 -11.45 24.6 -11.65 24.5 -11.8 24.7 -11.95 24.8 -12.25 25.1 -12.8 24.9 -13.4 24.7 -13.95 24.15 -14.2 23.6 -14.45 22.95 -14.25 22.5 -14.05 22.25 -13.7 21.65 -13.9 21.1 -13.7 20.4 -13.45 20.2 -12.7
M 18.35 -3.65
Q 17.6 -3.4 17.4 -2.6 17.1 -1.9 17.4 -1.05 17.7 -0.3 18.35 0.1 19.05 0.5 19.7 0.25
L 19.75 0.25
Q 19.95 0.4 20.1 0.5 20.6 0.75 21.2 0.55 21.65 0.4 21.9 -0.15 22.15 -0.75 21.9 -1.35 21.8 -1.5 21.75 -1.7 21.95 -1.85 22.05 -2.2 22.35 -2.75 22.1 -3.3 21.9 -3.85 21.35 -4.15 20.8 -4.35 20.2 -4.1 19.7 -4 19.45 -3.55 18.85 -3.85 18.35 -3.65
M 15.3 -9.45
Q 15.6 -10 15.35 -10.6 15.15 -11.15 14.6 -11.4 14 -11.65 13.45 -11.45 12.9 -11.25 12.65 -10.9 12.425 -10.9818359375 10.95 -10.5 11.875 -11.0181640625 11.55 -10.9 10.85 -10.65 10.6 -9.9 10.35 -9.15 10.65 -8.4 10.95 -7.55 11.6 -7.25 11.9046875 -7.0541015625 12.2 -7 12.5830078125 -6.887109375 12.95 -7
L 12.95 -7.05
Q 13.15 -6.95 13.35 -6.85 13.85 -6.55 14.4 -6.7 14.9 -6.9 15.15 -7.5 15.35 -8.05 15.15 -8.65 15.05 -8.85 15 -9 15.2 -9.2 15.3 -9.45
M 7.6 -1.3
Q 6.9 -1.05 6.7 -0.3 6.4 0.45 6.7 1.2 6.95 2.05 7.65 2.4 8.35 2.8 9 2.6
L 9.05 2.55
Q 9.15 2.7 9.4 2.75 9.9 3.1 10.45 2.9 10.95 2.75 11.2 2.15 11.4 1.6 11.2 0.95 11.1 0.75 11.05 0.6 11.25 0.45 11.35 0.15 11.6 -0.4 11.4 -1 11.2 -1.55 10.65 -1.8 10.1 -2.05 9.45 -1.85 9 -1.65 8.75 -1.3 8.15 -1.5 7.6 -1.3
M 1.6 -0.3
Q 1 -0.55 0.4 -0.3 -0.1 -0.15 -0.35 0.25 -0.9 0.05 -1.5 0.2 -2.2 0.45 -2.4 1.25 -2.7 1.95 -2.35 2.75 -2.1 3.55 -1.4 3.95 -0.8 4.3 -0.15 4.1
L -0.1 4.1
Q 0.1 4.2 0.3 4.3 0.8 4.6 1.35 4.4 1.9 4.25 2.1 3.65 2.3 3.15 2.1 2.45 2.05 2.3 1.9 2.1 2.1 1.95 2.25 1.65 2.5 1.1 2.3 0.55 2.15 -0.05 1.6 -0.3
M 3.1 -9.45
Q 3.3 -10.05 2.95 -10.6 2.65 -11.1 2.05 -11.25 1.45 -11.4 0.95 -11.1 0.45 -10.8 0.25 -10.45 -0.35 -10.55 -0.8 -10.25 -1.45 -9.85 -1.6 -9.05 -1.7 -8.3 -1.25 -7.65 -0.8 -6.85 -0.1 -6.65 0.6 -6.3 1.2 -6.65
L 1.2 -6.7
Q 1.45 -6.6 1.65 -6.55 2.2 -6.35 2.7 -6.6 3.15 -6.85 3.3 -7.5 3.4 -8.1 3.1 -8.65 2.95 -8.85 2.85 -9 3.05 -9.15 3.1 -9.45
M 1.65 -21.55
Q 1.35 -22.05 0.75 -22.25 0.2 -22.35 -0.35 -22 -0.5767578125 -21.89921875 -0.75 -21.75 -0.90078125 -21.5732421875 -1 -21.35 -1.65 -21.5 -2.1 -21.25 -2.8 -20.9 -2.85 -20.05 -3 -19.3 -2.6 -18.5 -2.15 -17.85 -1.45 -17.55 -0.65 -17.3 -0.05 -17.65
L 0 -17.65
Q 0.2 -17.55 0.35 -17.45 0.85 -17.3 1.45 -17.6 1.85 -17.85 2 -18.45 2.121875 -18.978125 1.9 -19.4 1.865625 -19.50625 1.8 -19.6 1.7767578125 -19.6232421875 1.75 -19.65 1.67890625 -19.7392578125 1.6 -19.9
L 1.6 -19.9
Q 1.75 -20.1 1.8 -20.45 2 -21.05 1.65 -21.55
M 13.45 -22.65
Q 13.3 -23.25 12.75 -23.5 12.475 -23.6146484375 12.2 -23.65 11.875 -23.6353515625 11.55 -23.5 11.05 -23.35 10.8 -22.95 10.25 -23.15 9.65 -23 8.95 -22.75 8.75 -21.95 8.45 -21.25 8.8 -20.45 9.05 -19.65 9.75 -19.25 10.35 -18.9 11 -19.1
L 11.05 -19.1
Q 11.25 -19 11.45 -18.9 11.8119140625 -18.6828125 12.2 -18.75 12.348046875 -18.7447265625 12.5 -18.8 13.05 -18.95 13.25 -19.55 13.45 -20.05 13.25 -20.75 13.2 -20.9 13.05 -21.1 13.25 -21.25 13.4 -21.55 13.65 -22.1 13.45 -22.65
M 21.8 -25
Q 21.25 -25.25 20.6 -25.05 20.15 -24.85 19.9 -24.5 19.3 -24.7 18.75 -24.5 18.05 -24.25 17.85 -23.5 17.55 -22.75 17.85 -22 18.1 -21.15 18.8 -20.8 19.5 -20.4 20.15 -20.6
L 20.2 -20.65
Q 20.3 -20.5 20.55 -20.45 21.05 -20.1 21.6 -20.3 22.1 -20.45 22.35 -21.05 22.55 -21.6 22.35 -22.25 22.25 -22.45 22.2 -22.6 22.4 -22.75 22.5 -23.05 22.75 -23.6 22.55 -24.2 22.35 -24.75 21.8 -25 Z"/>
</g>

<g id="Duplicate_Items_Folder_body_suit_copy_15_0_Layer0_0_FILL">
<path fill="#FFFFFF" stroke="none" d="
M 29.35 14.1
L 29.6 3.75
Q -0.75 8.8 -30.75 1
L -31 11.35
Q -0.2 20.1 29.35 14.1 Z"/>
</g>

<g id="Duplicate_Items_Folder_head_copy_27_7_Layer9_0_FILL">
<path fill="#735650" stroke="none" d="
M -81.55 57.85
L -82.9 59.35
Q -82.35 59.65 -81.8 59.85
L -81.55 57.85
M -70.75 63.05
Q -70.6931640625 62.715625 -70.65 62.5 -70.687890625 61.0240234375 -72.45 61.75 -72.970703125 62.0259765625 -73.7 62.5 -72.25 62.8 -70.75 63.2 -70.7431640625 63.1380859375 -70.75 63.05
M -80.3 45.3
Q -77.7484375 43.806640625 -75.8 42.2 -67.8845703125 35.6236328125 -69.85 27
L -73.75 5.95 -74 -10.95
Q -75.85 -3.2 -78.3 4.4
L -94.6 32.55
Q -101.9 44.6 -92.75 53.15 -92.45 53.4 -92.2 53.6 -87.919921875 48.9705078125 -82.05 46.1 -81.185546875 45.6794921875 -80.3 45.3
M -17.7 -89.9
L -18 -90.35
Q -30.3 -91.5 -41.45 -86.4 -45.5 -84.55 -48.95 -82.05
L -51.55 -79.85
Q -52.85 -79.1 -54.15 -78 -37.05 -88 -17.7 -89.9 Z"/>

<path fill="#594240" stroke="none" d="
M -65.4 63.95
Q -67.8708984375 63.7263671875 -70.4 63.25 -68.1533203125 64.4798828125 -65.4 63.95
M -38.2 -68.25
Q -40.2583984375 -67.1611328125 -40.5 -67.2 -47.1099609375 -62.5720703125 -40.75 -66.75
L -52.7 -50.1
Q -53.38203125 -46.6314453125 -53.5 -43.15
L -53.35 -34.45 -47.95 -10.05 -50.45 -35.9
Q -51.1 -50.6 -41.2 -64.85 -39.843359375 -66.6912109375 -38.2 -68.25
M -13.05 -89.7
L -13.55 -89.8
Q -15.6 -90.15 -17.6 -90.3 -17.8 -90.35 -18 -90.35
L -17.7 -89.9 -13 -82.45
Q -14.397265625 -82.3384765625 -15.8 -82.2 -26.1314453125 -81.084375 -35.4 -77.95 -45.115625 -74.581640625 -53.65 -69 -54.7697265625 -68.2025390625 -55.9 -67.4 -63.35 -57.5 -63 -48
L -52.95 -2.8 -45.5 14.65
Q -41.7923828125 22.4140625 -50.1 28.25 -51.3259765625 29.0896484375 -52.8 29.9 -57.048828125 31.4859375 -60.2 33.85 -62.29375 35.482421875 -63.9 37.45 -66.8427734375 42.7259765625 -65.2 45.35 -64.3171875 46.734765625 -62.25 47.4 -60.7392578125 47.881640625 -58.6 48
L -57.9 47.2
Q -57.55 45.25 -56.15 42.7 -52.15 37.8 -45 35.1 -42.7185546875 33.868359375 -41.05 32.5 -38.5828125 30.5560546875 -37.45 28.35
L -37.45 28.25
Q -35.55 24.35 -37.7 19.85
L -45.2 2.35 -47.95 -10.05 -53.35 -34.45 -55.2 -42.75 -52.7 -50.1 -40.75 -66.75
Q -47.1099609375 -62.5720703125 -40.5 -67.2 -40.7685546875 -67.202734375 -36.95 -69.6 -40.7685546875 -67.202734375 -40.5 -67.2 -40.2583984375 -67.1611328125 -38.2 -68.25 -23.3693359375 -75.80390625 -5.2 -77.25
L -13.05 -89.7 Z"/>

<path fill="#000000" stroke="none" d="
M -36.95 42.8
L -36.55 42.85
Q -27.1935546875 44.9306640625 -37.45 28.35 -38.5828125 30.5560546875 -41.05 32.5 -42.7185546875 33.868359375 -45 35.1 -52.15 37.8 -56.15 42.7 -57.55 45.25 -57.9 47.2 -58.9 52.8 -50.8 53.25
L -44.2 45.55 -36.95 42.8 Z"/>

<path fill="#977A68" stroke="none" d="
M -53.35 -34.45
L -53.5 -43.15
Q -53.38203125 -46.6314453125 -52.7 -50.1
L -55.2 -42.75 -53.35 -34.45
M -13 -82.45
L -17.7 -89.9
Q -37.05 -88 -54.15 -78 -59.9 -72.8 -64.6 -59.65 -66.4 -54.65 -67.8 -49.05 -69.4 -29.45 -74 -10.95
L -73.75 5.95 -69.85 27
Q -67.8845703125 35.6236328125 -75.8 42.2 -77.7484375 43.806640625 -80.3 45.3 -81.185546875 45.6794921875 -82.05 46.1 -87.919921875 48.9705078125 -92.2 53.6 -88.6 56.75 -82.9 59.35
L -81.55 57.85 -81.8 59.85
Q -81.4 60.05 -81 60.2 -77.35 61.55 -73.7 62.5 -72.970703125 62.0259765625 -72.45 61.75 -70.687890625 61.0240234375 -70.65 62.5 -70.6931640625 62.715625 -70.75 63.05 -70.7431640625 63.1380859375 -70.75 63.2 -70.571484375 63.2337890625 -70.4 63.25 -67.8708984375 63.7263671875 -65.4 63.95 -52.8912109375 65.07890625 -41.15 60.3 -26.65 52.8 -36.25 43.5 -36.35 43.35 -36.6 43.2 -36.75 43 -36.95 42.8
L -44.2 45.55 -50.8 53.25
Q -58.9 52.8 -57.9 47.2
L -58.6 48
Q -60.7392578125 47.881640625 -62.25 47.4 -64.3171875 46.734765625 -65.2 45.35 -66.8427734375 42.7259765625 -63.9 37.45 -62.29375 35.482421875 -60.2 33.85 -57.048828125 31.4859375 -52.8 29.9 -51.3259765625 29.0896484375 -50.1 28.25 -41.7923828125 22.4140625 -45.5 14.65
L -52.95 -2.8 -63 -48
Q -63.35 -57.5 -55.9 -67.4 -54.7697265625 -68.2025390625 -53.65 -69 -45.115625 -74.581640625 -35.4 -77.95 -26.1314453125 -81.084375 -15.8 -82.2 -14.397265625 -82.3384765625 -13 -82.45 Z"/>
</g>

<g id="Duplicate_Items_Folder_head_copy_27_7_Layer8_0_FILL">
<path fill="#ECD0CE" stroke="none" d="
M 29.4 -61.4
Q 29.05 -61.9 28.75 -62.2 28.25 -62.85 27.8 -63.4 -2.75 -80.9 -32.2 -70.45 -33.8 -69.25 -35.7 -67.9 -44.05 -62.05 -48.9 -50 -53.8 -38.05 -52.25 -27 -51.6 -22.1 -51.25 -14 -50.75 -0.65 -50.65 -0.3 -49.7 15.95 -45.3 23.5 -39.4 33.75 -27.6 42.65 -16.65 51 -8.55 51.35 -7.5 50.9 -7.3 50.95 -6.45 51.05 -5.65 51.1 -5.45 51.1 -5.2 51.1 3 51.05 14.35 42.45 26.15 33.55 32.05 23.25 36.45 15.75 37.45 -0.45 37.5 -0.85 38 -14.15 38.35 -22.3 39.05 -27.2 40.55 -38.25 35.65 -50.2 33 -56.8 29.4 -61.4 Z"/>
</g>

<g id="Duplicate_Items_Folder_head_copy_27_7_Layer7_0_FILL">
<path fill="#A79B94" stroke="none" d="
M -25.7 -33.55
Q -33.75 -33.25 -39.25 -29.75 -44.744921875 -26.3021484375 -43.7 -17.2 -42.6154296875 -8.09375 -38.8 -6.3 -36.5947265625 -5.244921875 -33.8 -4.45 -28.7830078125 -4.3271484375 -26.35 -4.1 -26.2671875 -4.1 -26.2 -4.1 -25.980859375 -4.0861328125 -25.8 -4.05 -24.25 -4.25 -22.6 -4.7 -21 -5.15 -19.55 -5.7 -18.85 -5.9 -18.25 -6.2 -16.7 -6.95 -15.4 -7.8 -14.2 -8.6 -13.25 -9.5 -12.49453125 -10.4197265625 -11.9 -11.6 -11.5744140625 -12.2138671875 -11.3 -12.9 -9.15 -18.65 -7.95 -23.45 -6.7 -28.3 -12.2 -31.1 -17.65 -33.85 -25.7 -33.55
M 16.3 -30.35
Q 8.3 -31.5 2.7 -29.25 -2.9 -26.95 -1.9 -22 -1.65 -20.75 -1.15 -19.45 -0.65 -18.05 0.1 -16.55 1.3015625 -14.3466796875 3.5 -10.45 5.686328125 -6.5541015625 10.45 -4.65 15.249609375 -2.691015625 15.6 -2.55 15.957421875 -2.416796875 17.3 -2.15 18.64453125 -1.8384765625 19.75 -1.8 20.8455078125 -1.698046875 23.65 -1.45
L 29.05 -1
Q 33 -2.1 33.95 -11.2 35 -21.35 29.7 -25.3 24.35 -29.3 16.3 -30.35 Z"/>
</g>

<g id="Duplicate_Items_Folder_head_copy_27_7_Layer6_0_FILL">
<path fill="#F3E0E0" stroke="none" d="
M 6.95 1.25
Q 6.9 1.05 6.85 0.85 4.7 -6.9 0 -10.4
L -2.1 -18.6 -6.85 -18.6 -9.05 -10.7 -12.3 -7.25
Q -15.55 -3.25 -15.7 -0.5 -15.75 0.65 -15.4 2.35
L -3.95 -2.75
Q 4.1 3.2 6.95 1.25 Z"/>

<path fill="#E4BCBC" stroke="none" d="
M 1.35 10.25
Q 7.1 10.5 6.95 1.25 4.1 3.2 -3.95 -2.75
L -15.4 2.35
Q -14.95 4.6 -13.75 7.85
L -11.15 9.4 -8.35 10.05
Q -4.45 10.05 1.35 10.25
M 3.25 5.05
Q 3.25 6.05 2.45 6.75 1.65 7.4 0.6 7.3 -0.45 7.25 -1.2 6.5 -1.95 5.8 -1.95 4.75 -1.95 3.7 -1.15 3 -0.35 2.35 0.65 2.4 1.75 2.5 2.5 3.25 3.25 4 3.25 5.05
M -7.45 3
Q -6.65 3.75 -6.65 4.85 -6.65 5.9 -7.5 6.55 -8.3 7.2 -9.35 7.15 -10.4 7.1 -11.2 6.35 -11.95 5.6 -11.95 4.5 -11.95 3.5 -11.15 2.85 -10.3 2.2 -9.25 2.25 -8.2 2.3 -7.45 3 Z"/>

<path fill="#675454" stroke="none" d="
M -6.65 4.85
Q -6.65 3.75 -7.45 3 -8.2 2.3 -9.25 2.25 -10.3 2.2 -11.15 2.85 -11.95 3.5 -11.95 4.5 -11.95 5.6 -11.2 6.35 -10.4 7.1 -9.35 7.15 -8.3 7.2 -7.5 6.55 -6.65 5.9 -6.65 4.85
M 2.45 6.75
Q 3.25 6.05 3.25 5.05 3.25 4 2.5 3.25 1.75 2.5 0.65 2.4 -0.35 2.35 -1.15 3 -1.95 3.7 -1.95 4.75 -1.95 5.8 -1.2 6.5 -0.45 7.25 0.6 7.3 1.65 7.4 2.45 6.75 Z"/>
</g>

<g id="Duplicate_Items_Folder_head_copy_27_7_Layer5_0_FILL">
<path fill="#F5E7E7" stroke="none" d="
M -17.2 37.05
Q -17.2 38.65 -14.25 39.8 -11.3 41.05 -7.1 41.3 -2.9 41.5 0.05 40.6 3.05 39.7 3.05 38.15 3.1 36.55 0.15 35.35 -2.75 34.15 -6.95 33.95 -11.15 33.7 -14.15 34.6 -17.15 35.5 -17.2 37.05
M 11.85 -58.9
Q 17.5 -58.55 9.85 -61.7 2.2 -64.8 -8.75 -65.5 -19.7 -66.15 -27.45 -64 -35.25 -61.85 -35.25 -58.2 -35.3 -54.55 -32.35 -54.2 -29.55 -53.9 -24 -56.95 -18.5 -60.05 -6.2 -59.65 6.1 -59.35 11.85 -58.9 Z"/>

<path fill="#5F3A2A" stroke="none" d="
M -11.55 -27.9
Q -8.45 -28.15 -10.35 -31.3 -28.7 -39.05 -43.25 -28.85 -42.55 -26.95 -39.8 -27.9 -29 -35.4 -11.55 -27.9
M 29.4 -23.35
Q 31.95 -22.15 32.95 -24 19.75 -35.85 0.55 -30.45 -1.7 -27.55 1.35 -26.9 19.55 -32.2 29.4 -23.35 Z"/>
</g>

<g id="Duplicate_Items_Folder_head_copy_27_7_Layer4_0_FILL">
<path fill="#FFFFFF" stroke="none" d="
M -14 -20.7
Q -26.95 -29.45 -35.55 -18.35 -24.5 -9.35 -14 -20.7
M -25.55 -24.3
Q -23.8 -24.4 -22.65 -23.5 -21.55 -22.55 -21.5 -21.3 -21.5 -20.1 -22.6 -19.1 -23.7 -18.1 -25.45 -18 -27.2 -17.95 -28.3 -18.8 -29.5 -19.65 -29.5 -20.9 -29.55 -22.1 -28.4 -23.15 -27.3 -24.2 -25.55 -24.3
M 24.6 -15.7
Q 15.95 -26.8 3 -18.05 13.5 -6.75 24.6 -15.7
M 10.5 -18.7
Q 10.55 -19.9 11.7 -20.85 12.8 -21.75 14.55 -21.65 16.3 -21.55 17.45 -20.5 18.55 -19.5 18.5 -18.25 18.5 -17.05 17.35 -16.2 16.2 -15.3 14.45 -15.4 12.7 -15.5 11.6 -16.45 10.5 -17.45 10.5 -18.7 Z"/>

<path fill="#423024" stroke="none" d="
M -22.65 -23.5
Q -23.8 -24.4 -25.55 -24.3 -27.3 -24.2 -28.4 -23.15 -29.55 -22.1 -29.5 -20.9 -29.5 -19.65 -28.3 -18.8 -27.2 -17.95 -25.45 -18 -23.7 -18.1 -22.6 -19.1 -21.5 -20.1 -21.5 -21.3 -21.55 -22.55 -22.65 -23.5
M 11.7 -20.85
Q 10.55 -19.9 10.5 -18.7 10.5 -17.45 11.6 -16.45 12.7 -15.5 14.45 -15.4 16.2 -15.3 17.35 -16.2 18.5 -17.05 18.5 -18.25 18.55 -19.5 17.45 -20.5 16.3 -21.55 14.55 -21.65 12.8 -21.75 11.7 -20.85 Z"/>
</g>

<g id="Duplicate_Items_Folder_head_copy_27_7_Layer3_0_FILL">
<path fill="#C84537" stroke="none" d="
M 7.9 21.45
L 8.25 20.7 -4.45 15.05
Q -8.25 16.65 -11.3 14.7
L -11.8 14.85 -23.2 19.1 -23.15 19.65
Q -7.9 17.8 7.9 21.45 Z"/>

<path fill="#8A4139" stroke="none" d="
M 3.45 26
L 8.35 22 7.9 21.45
Q -7.9 17.8 -23.15 19.65
L -23.25 19.75 -23.65 20.35 -17.7 24.85
Q -6 22.05 3.45 26 Z"/>
</g>

<g id="Duplicate_Items_Folder_head_copy_27_7_Layer2_0_FILL">
<path fill="#735650" stroke="none" d="
M 75.95 70.9
Q 76.5 70.7 77 70.4
L 75.5 68.8 75.95 70.9
M 68.2 73.75
Q 64.95 71.65 65.15 73.7 65.2 74 65.3 74.45 66.75 74.05 68.2 73.75
M 85.6 64.25
Q 85.85 64.05 86.1 63.8 94.25 54.7 85.5 41.9
L 65.8 11.95
Q 62.45 3.9 59.65 -4.35
L 61.45 13.6 60.05 36
Q 58.9 47.4 72.7 55.45 80.1 58.65 85.6 64.25
M 26.05 -79.9
Q 22.3 -82.55 18.05 -84.55 6.3 -89.95 -5.9 -88.75
L -6.15 -88.25
Q 13.45 -86.25 31.75 -75.6 30.3 -76.8 28.9 -77.6
L 26.05 -79.9 Z"/>

<path fill="#000000" stroke="none" d="
M 36.2 44.6
Q 30.18046875 41.35859375 27.85 37.4 32.9423828125 46.459765625 28.7 52.8
L 29.05 52.8 36.65 55.7 44.2 63.9
Q 52.2 63.4 50.55 57.45 49.95 55.4 48.25 52.7 43.65 47.45 36.2 44.6 Z"/>

<path fill="#594240" stroke="none" d="
M 44.2 -43.75
Q 43.4 -53.8 34.75 -64.35 14.75 -78.25 -9.95 -80.35
L -6.15 -88.25 -5.9 -88.75
Q -6.1 -88.75 -6.3 -88.7 -8.25 -88.55 -10.25 -88.15
L -10.75 -88.05 -17.1 -74.8
Q -11.6451171875 -62.4162109375 27.6 -58.8 36.25 -48.3 37.05 -38.15
L 32.45 9.8 27.05 28.4
Q 25.4345703125 33.2212890625 27.75 37.3
L 27.85 37.4
Q 30.18046875 41.35859375 36.2 44.6 43.65 47.45 48.25 52.7 49.95 55.4 50.55 57.45
L 51.35 58.3
Q 62.1 57.65 55.4 47.1 50.8 41.9 43.35 39.05 31.05 32.35 34.25 22.85
L 39.6 4.3 44.2 -43.75 Z"/>

<path fill="#977A68" stroke="none" d="
M 59.65 -4.35
Q 52.85 -24 48.9 -44.85 46.8 -50.8 44.4 -56.1 38.1 -70.1 31.75 -75.6 13.45 -86.25 -6.15 -88.25
L -9.95 -80.35
Q 14.75 -78.25 34.75 -64.35 43.4 -53.8 44.2 -43.75
L 39.6 4.3 34.25 22.85
Q 31.05 32.35 43.35 39.05 50.8 41.9 55.4 47.1 62.1 57.65 51.35 58.3
L 50.55 57.45
Q 52.2 63.4 44.2 63.9
L 36.65 55.7 29.05 52.8
Q 28.8771484375 52.9845703125 28.7 53.15 28.569921875 53.3478515625 28.4 53.5 19.9546875 63.3884765625 35.35 71.4 50.3 77.55 65.3 74.45 65.2 74 65.15 73.7 64.95 71.65 68.2 73.75 71.7 72.7 75.2 71.3 75.6 71.1 75.95 70.9
L 75.5 68.8 77 70.4
Q 82.4 67.6 85.6 64.25 80.1 58.65 72.7 55.45 58.9 47.4 60.05 36
L 61.45 13.6 59.65 -4.35 Z"/>
</g>

<g id="Duplicate_Items_Folder_head_copy_27_7_Layer1_0_FILL">
<path fill="#E6E6E6" stroke="none" d="
M 45.8 -55.95
Q 43.85 -59.75 40.55 -61.7 37.25 -63.65 34.6 -62.65 32 -61.7 31.5 -58.25 31.05 -54.8 33.1 -50.95 35.1 -47.05 38.35 -45.1 41.65 -43.15 44.25 -44.2 46.85 -45.25 47.35 -48.65 47.85 -52.05 45.8 -55.95 Z"/>
</g>

<g id="Duplicate_Items_Folder_head_copy_28_7_Layer9_0_FILL">
<path fill="#735650" stroke="none" d="
M -83.3 36
Q -83.45 36.4 -83.5 36.65 -83.65 37 -83.65 37.15 -83.7 37.2 -83.65 37.25 -83.7 41.5 -82 46.2 -81.65 47.3 -81.15 48.4 -78 47 -74.15 43.85 -82.9 34.95 -83.3 36
M -61.05 -50.6
Q -61.05 -50.95 -61 -51.2 -61.65 -49 -62.2 -46.55 -64.2 -37.45 -65.2 -32.75 -67.15 -24.5 -69.2 -19.1 -73.7 -7.6 -69.7 9.1 -67.1 20.15 -61.65 30.9
L -60.4 29.4
Q -53.15 12.4 -60.25 -2.1
L -61.05 -50.6 Z"/>

<path fill="#977A68" stroke="none" d="
M -19.35 -82.7
L -16.3 -87.55 -32.7 -85.8
Q -46.55 -78.8 -52.45 -70.65 -57.55 -63.75 -61 -51.2 -61.05 -50.95 -61.05 -50.6
L -60.25 -2.1
Q -53.15 12.4 -60.4 29.4
L -61.65 30.9
Q -61.2 31.8 -60.75 32.7 -57.1 39.55 -63.2 44.1 -69.3 48.65 -72.95 44.25
L -73.35 44.65
Q -73.8 44.2 -74.15 43.85 -78 47 -81.15 48.4 -79.25 53.15 -76.8 56.75 -71.6 55.95 -64.05 49.1 -60.2 45.6 -56.15 40.9
L -52.9 36.85
Q -45.65 19.85 -52.7 5.35
L -53.5 -43.15
Q -53 -57.9 -41.95 -72.15 -36.55 -78.75 -27.45 -81.4 -24.65 -82.25 -21.8 -82.55
L -19.35 -82.7 Z"/>

<path fill="#594240" stroke="none" d="
M -13.6 -87.85
L -16.3 -87.55 -19.35 -82.7 -21.8 -82.55
Q -24.65 -82.25 -27.45 -81.4 -36.55 -78.75 -41.95 -72.15 -53 -57.9 -53.5 -43.15
L -52.7 5.35
Q -45.65 19.85 -52.9 36.85
L -56.15 40.9
Q -60.2 45.6 -64.05 49.1 -71.6 55.95 -76.8 56.75 -74.4 60.25 -71.5 62.55 -65.05 67.6 -53.6 56.35 -50 52.9 -46.35 48.15
L -43.45 44.1
Q -37.55 27.1 -45.75 12.65
L -50.45 -35.9
Q -51.1 -50.6 -41.2 -64.85 -36.3 -71.5 -27.45 -74.15 -24.7 -75 -21.85 -75.3
L -19.4 -75.45 -12.9 -87.55 -13.6 -87.85 Z"/>
</g>

<g id="Duplicate_Items_Folder_head_copy_28_7_Layer8_0_FILL">
<path fill="#ECD0CE" stroke="none" d="
M 29.4 -61.4
Q 29.05 -61.9 28.75 -62.2 28.25 -62.85 27.8 -63.4 -2.75 -80.9 -32.2 -70.45 -33.8 -69.25 -35.7 -67.9 -44.05 -62.05 -48.9 -50 -53.8 -38.05 -52.25 -27 -51.6 -22.1 -51.25 -14 -50.75 -0.65 -50.65 -0.3 -49.7 15.95 -45.3 23.5 -39.4 33.75 -27.6 42.65 -16.65 51 -8.55 51.35 -7.5 50.9 -7.3 50.95 -6.45 51.05 -5.65 51.1 -5.45 51.1 -5.2 51.1 3 51.05 14.35 42.45 26.15 33.55 32.05 23.25 36.45 15.75 37.45 -0.45 37.5 -0.85 38 -14.15 38.35 -22.3 39.05 -27.2 40.55 -38.25 35.65 -50.2 33 -56.8 29.4 -61.4 Z"/>
</g>

<g id="Duplicate_Items_Folder_head_copy_28_7_Layer7_0_FILL">
<path fill="#A79B94" stroke="none" d="
M -44.4 -15.6
Q -44.05 -5.5 -42.6 -2.95 -41.15 -0.5 -31.8 0.7 -28.35 0.7 -27.05 0.5 -25.8 0.3 -24.65 -0.1 -23.55 -0.55 -22.7 -0.8 -21.85 -1.05 -20.9 -1.9 -19.95 -2.7 -18.5 -3.4 -17.05 -4.15 -16.75 -4.75 -16.45 -5.4 -15.3 -6.25 -14.2 -7.15 -13.25 -8.1 -12.5 -9.1 -11.9 -10.35 -11.55 -11 -11.3 -11.75 -9.15 -17.8 -7.95 -22.9 -6.7 -28 -12.2 -31 -17.65 -33.85 -25.7 -33.45 -33.75 -33.1 -39.25 -29.35 -44.75 -25.7 -44.4 -15.6
M 28.1 -22.8
Q 23 -27.45 15.35 -29.1 7.8 -30.85 2.45 -28.8 -2.85 -26.8 -1.9 -21.5 -1.65 -20.15 -1.2 -18.8 -0.7 -17.25 0 -15.6 1.15 -13.2 3.2 -8.95 5.3 -4.65 9.85 -2.3 14.35 0.05 14.7 0.2 15.05 0.4 16.3 0.85 17.6 1.15 18.65 1.35 19.7 1.45 22.35 1.9
L 27.45 2.8
Q 31.2 1.9 32.1 -7.65 33.1 -18.3 28.1 -22.8 Z"/>
</g>

<g id="Duplicate_Items_Folder_head_copy_28_7_Layer6_0_FILL">
<path fill="#F3E0E0" stroke="none" d="
M 6.95 1.25
Q 6.9 1.05 6.85 0.85 4.7 -6.9 0 -10.4
L -2.1 -18.6 -6.85 -18.6 -9.05 -10.7 -12.3 -7.25
Q -15.55 -3.25 -15.7 -0.5 -15.75 0.65 -15.4 2.35
L -3.95 -2.75
Q 4.1 3.2 6.95 1.25 Z"/>

<path fill="#E4BCBC" stroke="none" d="
M 1.35 10.25
Q 7.1 10.5 6.95 1.25 4.1 3.2 -3.95 -2.75
L -15.4 2.35
Q -14.95 4.6 -13.75 7.85
L -11.15 9.4 -8.35 10.05
Q -4.45 10.05 1.35 10.25
M 2.45 6.75
Q 1.65 7.4 0.6 7.3 -0.45 7.25 -1.2 6.5 -1.95 5.8 -1.95 4.75 -1.95 3.7 -1.15 3 -0.35 2.35 0.65 2.4 1.75 2.5 2.5 3.25 3.25 4 3.25 5.05 3.25 6.05 2.45 6.75
M -6.65 4.85
Q -6.65 5.9 -7.5 6.55 -8.3 7.2 -9.35 7.15 -10.4 7.1 -11.2 6.35 -11.95 5.6 -11.95 4.5 -11.95 3.5 -11.15 2.85 -10.3 2.2 -9.25 2.25 -8.2 2.3 -7.45 3 -6.65 3.75 -6.65 4.85 Z"/>

<path fill="#675454" stroke="none" d="
M -7.5 6.55
Q -6.65 5.9 -6.65 4.85 -6.65 3.75 -7.45 3 -8.2 2.3 -9.25 2.25 -10.3 2.2 -11.15 2.85 -11.95 3.5 -11.95 4.5 -11.95 5.6 -11.2 6.35 -10.4 7.1 -9.35 7.15 -8.3 7.2 -7.5 6.55
M 0.6 7.3
Q 1.65 7.4 2.45 6.75 3.25 6.05 3.25 5.05 3.25 4 2.5 3.25 1.75 2.5 0.65 2.4 -0.35 2.35 -1.15 3 -1.95 3.7 -1.95 4.75 -1.95 5.8 -1.2 6.5 -0.45 7.25 0.6 7.3 Z"/>
</g>

<g id="Duplicate_Items_Folder_head_copy_28_7_Layer5_0_FILL">
<path fill="#F5E7E7" stroke="none" d="
M -14.15 42.2
Q -11.2 43.35 -6.95 43.5 -2.75 43.6 0.15 42.6 3.15 41.6 3.1 40.05 3.1 38.45 0.1 37.35 -2.8 36.2 -7 36.15 -11.25 36 -14.2 37 -17.2 37.95 -17.2 39.5 -17.15 41.1 -14.15 42.2
M 11.85 -58.9
Q 17.5 -58.55 9.85 -61.7 2.2 -64.8 -8.75 -65.5 -19.7 -66.15 -27.45 -64 -35.25 -61.85 -35.25 -58.2 -35.3 -54.55 -32.35 -54.2 -29.55 -53.9 -24 -56.95 -18.5 -60.05 -6.2 -59.65 6.1 -59.35 11.85 -58.9 Z"/>

<path fill="#5F3A2A" stroke="none" d="
M -39.4 -26.55
Q -29.4 -35.1 -11.3 -29.4 -8.25 -29.95 -10.45 -32.9 -29.5 -38.75 -42.9 -27.15 -42 -25.3 -39.4 -26.55
M 32.3 -21.75
Q 20.8 -35.25 1.1 -32.55 -1.55 -30 1.4 -28.9 20.1 -31.7 28.65 -21.55 31.05 -20.05 32.3 -21.75 Z"/>
</g>

<g id="Duplicate_Items_Folder_head_copy_28_7_Layer4_0_FILL">
<path fill="#FFFFFF" stroke="none" d="
M -35.55 -18.35
Q -24.5 -9.35 -14 -20.7 -26.95 -29.45 -35.55 -18.35
M -22.6 -19.1
Q -23.7 -18.1 -25.45 -18 -27.2 -17.95 -28.3 -18.8 -29.5 -19.65 -29.5 -20.9 -29.55 -22.1 -28.4 -23.15 -27.3 -24.2 -25.55 -24.3 -23.8 -24.4 -22.65 -23.5 -21.55 -22.55 -21.5 -21.3 -21.5 -20.1 -22.6 -19.1
M 3 -18.05
Q 13.5 -6.75 24.6 -15.7 15.95 -26.8 3 -18.05
M 10.5 -18.7
Q 10.55 -19.9 11.7 -20.85 12.8 -21.75 14.55 -21.65 16.3 -21.55 17.45 -20.5 18.55 -19.5 18.5 -18.25 18.5 -17.05 17.35 -16.2 16.2 -15.3 14.45 -15.4 12.7 -15.5 11.6 -16.45 10.5 -17.45 10.5 -18.7 Z"/>

<path fill="#423024" stroke="none" d="
M -25.45 -18
Q -23.7 -18.1 -22.6 -19.1 -21.5 -20.1 -21.5 -21.3 -21.55 -22.55 -22.65 -23.5 -23.8 -24.4 -25.55 -24.3 -27.3 -24.2 -28.4 -23.15 -29.55 -22.1 -29.5 -20.9 -29.5 -19.65 -28.3 -18.8 -27.2 -17.95 -25.45 -18
M 11.7 -20.85
Q 10.55 -19.9 10.5 -18.7 10.5 -17.45 11.6 -16.45 12.7 -15.5 14.45 -15.4 16.2 -15.3 17.35 -16.2 18.5 -17.05 18.5 -18.25 18.55 -19.5 17.45 -20.5 16.3 -21.55 14.55 -21.65 12.8 -21.75 11.7 -20.85 Z"/>
</g>

<g id="Duplicate_Items_Folder_head_copy_28_7_Layer3_0_FILL">
<path fill="#C84537" stroke="none" d="
M 8.15 25.1
L 8.5 24.35 -2.75 18.15
Q -6.3 19.5 -9 17.45
L -9.45 17.6 -20.05 21.2 -20.05 21.75
Q -6.05 20.65 8.15 25.1 Z"/>

<path fill="#8A4139" stroke="none" d="
M 3.85 29.4
L 8.55 25.65 8.15 25.1
Q -6.05 20.65 -20.05 21.75
L -20.15 21.85 -20.55 22.45 -15.4 27.25
Q -4.55 25 3.85 29.4 Z"/>
</g>

<g id="Duplicate_Items_Folder_head_copy_28_7_Layer2_0_FILL">
<path fill="#735650" stroke="none" d="
M 75.95 70.9
Q 76.5 70.7 77 70.4
L 75.5 68.8 75.95 70.9
M 68.2 73.75
Q 64.95 71.65 65.15 73.7 65.2 74 65.3 74.45 66.75 74.05 68.2 73.75
M 85.6 64.25
Q 85.85 64.05 86.1 63.8 94.25 54.7 85.5 41.9
L 65.8 11.95
Q 62.45 3.9 59.65 -4.35
L 61.45 13.6 60.05 36
Q 58.9 47.4 72.7 55.45 80.1 58.65 85.6 64.25
M 26.05 -79.9
Q 22.3 -82.55 18.05 -84.55 6.3 -89.95 -5.9 -88.75
L -6.15 -88.25
Q 13.45 -86.25 31.75 -75.6 30.3 -76.8 28.9 -77.6
L 26.05 -79.9 Z"/>

<path fill="#000000" stroke="none" d="
M 36.2 44.6
Q 30.18046875 41.35859375 27.85 37.4 21.7845703125 45.854296875 28.7 52.8
L 29.05 52.8 36.65 55.7 44.2 63.9
Q 52.2 63.4 50.55 57.45 49.95 55.4 48.25 52.7 43.65 47.45 36.2 44.6 Z"/>

<path fill="#594240" stroke="none" d="
M 44.2 -43.75
Q 43.4 -53.8 34.75 -64.35 14.75 -78.25 -9.95 -80.35
L -6.15 -88.25 -5.9 -88.75
Q -6.1 -88.75 -6.3 -88.7 -8.25 -88.55 -10.25 -88.15
L -10.75 -88.05 -17.1 -74.8
Q 7.6 -72.75 27.6 -58.8 36.25 -48.3 37.05 -38.15
L 32.45 9.8 27.05 28.4
Q 25.4345703125 33.2212890625 27.75 37.3
L 27.85 37.4
Q 30.18046875 41.35859375 36.2 44.6 43.65 47.45 48.25 52.7 49.95 55.4 50.55 57.45
L 51.35 58.3
Q 62.1 57.65 55.4 47.1 50.8 41.9 43.35 39.05 31.05 32.35 34.25 22.85
L 39.6 4.3 44.2 -43.75 Z"/>

<path fill="#977A68" stroke="none" d="
M 59.65 -4.35
Q 52.85 -24 48.9 -44.85 46.8 -50.8 44.4 -56.1 38.1 -70.1 31.75 -75.6 13.45 -86.25 -6.15 -88.25
L -9.95 -80.35
Q 14.75 -78.25 34.75 -64.35 43.4 -53.8 44.2 -43.75
L 39.6 4.3 34.25 22.85
Q 31.05 32.35 43.35 39.05 50.8 41.9 55.4 47.1 62.1 57.65 51.35 58.3
L 50.55 57.45
Q 52.2 63.4 44.2 63.9
L 36.65 55.7 29.05 52.8
Q 28.8771484375 52.9845703125 28.7 53.15 28.569921875 53.3478515625 28.4 53.5 19.9546875 63.3884765625 35.35 71.4 50.3 77.55 65.3 74.45 65.2 74 65.15 73.7 64.95 71.65 68.2 73.75 71.7 72.7 75.2 71.3 75.6 71.1 75.95 70.9
L 75.5 68.8 77 70.4
Q 82.4 67.6 85.6 64.25 80.1 58.65 72.7 55.45 58.9 47.4 60.05 36
L 61.45 13.6 59.65 -4.35 Z"/>
</g>

<g id="Duplicate_Items_Folder_head_copy_28_7_Layer1_0_FILL">
<path fill="#E6E6E6" stroke="none" d="
M 45.8 -55.95
Q 43.85 -59.75 40.55 -61.7 37.25 -63.65 34.6 -62.65 32 -61.7 31.5 -58.25 31.05 -54.8 33.1 -50.95 35.1 -47.05 38.35 -45.1 41.65 -43.15 44.25 -44.2 46.85 -45.25 47.35 -48.65 47.85 -52.05 45.8 -55.95 Z"/>
</g>

<path id="Duplicate_Items_Folder_body_suit_copy_15_0_Layer0_0_1_STROKES" stroke="#000000" stroke-width="2" stroke-linejoin="round" stroke-linecap="round" fill="none" d="
M 29.35 14.1
Q -0.2 20.1 -31 11.35
L -30.75 1
Q -0.75 8.8 29.6 3.75
L 29.35 14.1 Z"/>

<path id="Duplicate_Items_Folder_head_copy_27_7_Layer9_0_1_STROKES" stroke="#000000" stroke-width="4" stroke-linejoin="round" stroke-linecap="round" fill="none" d="
M -13.05 -89.7
L -5.2 -77.25
Q -23.3693359375 -75.80390625 -38.175 -68.225 -39.843359375 -66.6912109375 -41.2 -64.85 -51.1 -50.6 -50.45 -35.9
L -47.95 -10.05 -45.2 2.35 -37.7 19.85
Q -35.55 24.35 -37.45 28.25
L -37.45 28.35
M -36.55 42.85
L -36.6 43.2
Q -36.35 43.35 -36.25 43.5 -26.65 52.8 -41.15 60.3 -52.8912109375 65.07890625 -65.375 63.95 -68.1533203125 64.4798828125 -70.4 63.275 -70.571484375 63.2337890625 -70.75 63.2 -72.25 62.8 -73.7 62.5 -77.35 61.55 -81 60.2 -81.4 60.05 -81.8 59.85 -82.35 59.65 -82.9 59.35 -88.6 56.75 -92.2 53.6 -92.45 53.4 -92.75 53.15 -101.9 44.6 -94.6 32.55
L -78.3 4.4
Q -75.85 -3.2 -74 -10.95 -69.4 -29.45 -67.8 -49.05 -66.4 -54.65 -64.6 -59.65 -59.9 -72.8 -54.15 -78 -52.85 -79.1 -51.55 -79.85
L -48.95 -82.05
Q -45.5 -84.55 -41.45 -86.4 -30.3 -91.5 -18 -90.35 -17.8 -90.35 -17.6 -90.3 -15.6 -90.15 -13.55 -89.8
M -57.9 47.2
Q -57.55 45.25 -56.15 42.7 -52.15 37.8 -45 35.1 -42.7185546875 33.868359375 -41.05 32.525 -38.5828125 30.5560546875 -37.45 28.35
M -52.675 -50.075
L -40.725 -66.725
Q -47.1099609375 -62.5720703125 -40.475 -67.175 -40.7685546875 -67.202734375 -36.95 -69.6
M -38.175 -68.225
Q -40.2583984375 -67.1611328125 -40.475 -67.175
M -53.35 -34.425
L -47.95 -10.05
M -52.675 -50.075
L -55.2 -42.75 -53.35 -34.425
M -36.95 42.8
Q -36.75 43 -36.6 43.2
M -65.375 63.95
Q -67.8708984375 63.7263671875 -70.4 63.275
M -57.9 47.2
Q -58.9 52.8 -50.8 53.25
L -44.2 45.55 -36.95 42.8"/>

<path id="Duplicate_Items_Folder_head_copy_27_7_Layer8_0_1_STROKES" stroke="#000000" stroke-width="4" stroke-linejoin="round" stroke-linecap="round" fill="none" d="
M 29.4 -61.4
Q 33 -56.8 35.65 -50.2 40.55 -38.25 39.05 -27.2 38.35 -22.3 38 -14.15 37.5 -0.85 37.45 -0.45 36.45 15.75 32.05 23.25 26.15 33.55 14.35 42.45 3 51.05 -5.2 51.1 -5.45 51.1 -5.65 51.1 -6.45 51.05 -7.3 50.95 -7.5 50.9 -8.55 51.35 -16.65 51 -27.6 42.65 -39.4 33.75 -45.3 23.5 -49.7 15.95 -50.65 -0.3 -50.75 -0.65 -51.25 -14 -51.6 -22.1 -52.25 -27 -53.8 -38.05 -48.9 -50 -44.05 -62.05 -35.7 -67.9 -33.8 -69.25 -32.2 -70.45 -2.75 -80.9 27.8 -63.4 28.25 -62.85 28.75 -62.2 29.05 -61.9 29.4 -61.4 Z"/>

<path id="Duplicate_Items_Folder_head_copy_27_7_Layer4_0_1_STROKES" stroke="#AA8677" stroke-width="3" stroke-linejoin="round" stroke-linecap="round" fill="none" d="
M 24.6 -15.7
Q 24.65 -15.6 24.75 -15.5
M -35.55 -18.35
Q -35.65 -18.25 -35.75 -18.1"/>

<path id="Duplicate_Items_Folder_head_copy_27_7_Layer4_0_2_STROKES" stroke="#F3E0E0" stroke-width="3" stroke-linejoin="round" stroke-linecap="round" fill="none" d="
M 3 -18.05
Q 13.5 -6.75 24.6 -15.7
M -14 -20.7
Q -24.5 -9.35 -35.55 -18.35"/>

<path id="Duplicate_Items_Folder_head_copy_27_7_Layer4_0_3_STROKES" stroke="#172224" stroke-width="3" stroke-linejoin="round" stroke-linecap="round" fill="none" d="
M 24.6 -15.7
Q 15.95 -26.8 3 -18.05
M -35.55 -18.35
Q -26.95 -29.45 -14 -20.7"/>

<path id="Duplicate_Items_Folder_head_copy_27_7_Layer3_0_1_STROKES" stroke="#AA8677" stroke-width="3" stroke-linejoin="round" stroke-linecap="round" fill="none" d="
M -23.25 19.75
L -23.15 19.65
M -16.6 34.9
Q -7.75 32.4 2.4 35.85"/>

<path id="Duplicate_Items_Folder_head_copy_27_7_Layer3_0_2_STROKES" stroke="#674E43" stroke-width="3" stroke-linejoin="round" stroke-linecap="round" fill="none" d="
M 8.35 22
L 9 21.45
M -23.65 20.35
L -17.7 24.85
Q -6 22.05 3.45 26
L 8.35 22"/>

<path id="Duplicate_Items_Folder_head_copy_27_7_Layer3_0_3_STROKES" stroke="#F3E0E0" stroke-width="3" stroke-linejoin="round" stroke-linecap="round" fill="none" d="
M -11.3 14.7
Q -8.25 16.65 -4.45 15.05
L 8.25 20.7
M -23.2 19.1
L -11.8 14.85"/>

<path id="Duplicate_Items_Folder_head_copy_27_7_Layer2_0_1_STROKES" stroke="#000000" stroke-width="4" stroke-linejoin="round" stroke-linecap="round" fill="none" d="
M 31.75 -75.6
Q 30.3 -76.8 28.9 -77.6
L 26.05 -79.9
Q 22.3 -82.55 18.05 -84.55 6.3 -89.95 -5.9 -88.75
M 31.75 -75.6
Q 38.1 -70.1 44.4 -56.1 46.8 -50.8 48.9 -44.85 52.85 -24 59.65 -4.35 62.45 3.9 65.8 11.95
L 85.5 41.9
Q 94.25 54.7 86.1 63.8 85.85 64.05 85.6 64.25 82.4 67.6 77 70.4 76.5 70.7 75.95 70.9 75.6 71.1 75.2 71.3 71.7 72.7 68.2 73.75 66.75 74.05 65.3 74.45 50.3 77.55 35.35 71.4 19.9546875 63.3884765625 28.425 53.525 28.569921875 53.3478515625 28.725 53.175
L 28.7 52.825
M 27.85 37.425
L 27.775 37.3
Q 25.4345703125 33.2212890625 27.05 28.4
L 32.45 9.8 37.05 -38.15
Q 36.25 -48.3 27.6 -58.8 -11.6451171875 -62.4162109375 -17.1 -74.8
L -10.75 -88.05
M -10.25 -88.15
Q -8.25 -88.55 -6.3 -88.7 -6.1 -88.75 -5.9 -88.75
M 27.85 37.425
Q 30.18046875 41.35859375 36.2 44.6 43.65 47.45 48.25 52.7 49.95 55.4 50.55 57.45 52.2 63.4 44.2 63.9
L 36.65 55.7 29.05 52.8
Q 28.8771484375 52.9845703125 28.725 53.175"/>

<path id="Duplicate_Items_Folder_head_copy_27_7_Layer1_0_1_STROKES" stroke="#000000" stroke-width="4" stroke-linejoin="round" stroke-linecap="round" fill="none" d="
M 45.8 -55.95
Q 47.85 -52.05 47.35 -48.65 46.85 -45.25 44.25 -44.2 41.65 -43.15 38.35 -45.1 35.1 -47.05 33.1 -50.95 31.05 -54.8 31.5 -58.25 32 -61.7 34.6 -62.65 37.25 -63.65 40.55 -61.7 43.85 -59.75 45.8 -55.95 Z"/>

<path id="Duplicate_Items_Folder_head_copy_28_7_Layer9_0_1_STROKES" stroke="#000000" stroke-width="4" stroke-linejoin="round" stroke-linecap="round" fill="none" d="
M -16.3 -87.55
L -13.6 -87.85
M -12.9 -87.55
L -12.45 -88.4
M -76.8 56.75
Q -74.4 60.25 -71.5 62.55 -65.05 67.6 -53.6 56.35 -50 52.9 -46.35 48.15
L -43.45 44.1
Q -37.55 27.1 -45.75 12.65
L -50.45 -35.9
Q -51.1 -50.6 -41.2 -64.85 -36.3 -71.5 -27.45 -74.15 -24.7 -75 -21.85 -75.3
L -19.4 -75.45 -12.9 -87.55
M -76.8 56.75
Q -79.25 53.15 -81.15 48.4 -81.65 47.3 -82 46.2 -83.7 41.5 -83.65 37.25 -84.25 36.7 -83.95 36.2 -83.85 36 -83.6 35.8 -83.65 36.1 -83.65 36.55 -83.7 36.8 -83.65 37.15 -83.65 37 -83.5 36.65 -83.45 36.4 -83.3 36 -82.9 34.95 -74.15 43.85 -73.8 44.2 -73.35 44.65
M -72.95 44.25
Q -69.3 48.65 -63.2 44.1 -57.1 39.55 -60.75 32.7 -61.2 31.8 -61.65 30.9 -67.1 20.15 -69.7 9.1 -73.7 -7.6 -69.2 -19.1 -67.15 -24.5 -65.2 -32.75 -64.2 -37.45 -62.2 -46.55 -61.65 -49 -61 -51.2 -57.55 -63.75 -52.45 -70.65 -46.55 -78.8 -32.7 -85.8
L -16.3 -87.55
M -83.65 37.25
Q -83.7 37.2 -83.65 37.15"/>

<path id="Duplicate_Items_Folder_head_copy_28_7_Layer8_0_1_STROKES" stroke="#000000" stroke-width="4" stroke-linejoin="round" stroke-linecap="round" fill="none" d="
M 29.4 -61.4
Q 33 -56.8 35.65 -50.2 40.55 -38.25 39.05 -27.2 38.35 -22.3 38 -14.15 37.5 -0.85 37.45 -0.45 36.45 15.75 32.05 23.25 26.15 33.55 14.35 42.45 3 51.05 -5.2 51.1 -5.45 51.1 -5.65 51.1 -6.45 51.05 -7.3 50.95 -7.5 50.9 -8.55 51.35 -16.65 51 -27.6 42.65 -39.4 33.75 -45.3 23.5 -49.7 15.95 -50.65 -0.3 -50.75 -0.65 -51.25 -14 -51.6 -22.1 -52.25 -27 -53.8 -38.05 -48.9 -50 -44.05 -62.05 -35.7 -67.9 -33.8 -69.25 -32.2 -70.45 -2.75 -80.9 27.8 -63.4 28.25 -62.85 28.75 -62.2 29.05 -61.9 29.4 -61.4 Z"/>

<path id="Duplicate_Items_Folder_head_copy_28_7_Layer4_0_1_STROKES" stroke="#AA8677" stroke-width="3" stroke-linejoin="round" stroke-linecap="round" fill="none" d="
M 24.6 -15.7
Q 24.65 -15.6 24.75 -15.5
M -35.55 -18.35
Q -35.65 -18.25 -35.75 -18.1"/>

<path id="Duplicate_Items_Folder_head_copy_28_7_Layer4_0_2_STROKES" stroke="#F3E0E0" stroke-width="3" stroke-linejoin="round" stroke-linecap="round" fill="none" d="
M 3 -18.05
Q 13.5 -6.75 24.6 -15.7
M -14 -20.7
Q -24.5 -9.35 -35.55 -18.35"/>

<path id="Duplicate_Items_Folder_head_copy_28_7_Layer4_0_3_STROKES" stroke="#172224" stroke-width="3" stroke-linejoin="round" stroke-linecap="round" fill="none" d="
M 3 -18.05
Q 15.95 -26.8 24.6 -15.7
M -35.55 -18.35
Q -26.95 -29.45 -14 -20.7"/>

<path id="Duplicate_Items_Folder_head_copy_28_7_Layer3_0_1_STROKES" stroke="#AA8677" stroke-width="3" stroke-linejoin="round" stroke-linecap="round" fill="none" d="
M -20.15 21.85
L -20.05 21.75
M -14.9 36.85
Q -6.75 34.55 2.45 38.25"/>

<path id="Duplicate_Items_Folder_head_copy_28_7_Layer3_0_2_STROKES" stroke="#674E43" stroke-width="3" stroke-linejoin="round" stroke-linecap="round" fill="none" d="
M 8.55 25.65
L 9.15 25.15
M -20.55 22.45
L -15.4 27.25
Q -4.55 25 3.85 29.4
L 8.55 25.65"/>

<path id="Duplicate_Items_Folder_head_copy_28_7_Layer3_0_3_STROKES" stroke="#F3E0E0" stroke-width="3" stroke-linejoin="round" stroke-linecap="round" fill="none" d="
M -20.05 21.2
L -9.45 17.6
M -9 17.45
Q -6.3 19.5 -2.75 18.15
L 8.5 24.35"/>

<path id="Duplicate_Items_Folder_head_copy_28_7_Layer2_0_1_STROKES" stroke="#000000" stroke-width="4" stroke-linejoin="round" stroke-linecap="round" fill="none" d="
M 31.75 -75.6
Q 30.3 -76.8 28.9 -77.6
L 26.05 -79.9
Q 22.3 -82.55 18.05 -84.55 6.3 -89.95 -5.9 -88.75
M 31.75 -75.6
Q 38.1 -70.1 44.4 -56.1 46.8 -50.8 48.9 -44.85 52.85 -24 59.65 -4.35 62.45 3.9 65.8 11.95
L 85.5 41.9
Q 94.25 54.7 86.1 63.8 85.85 64.05 85.6 64.25 82.4 67.6 77 70.4 76.5 70.7 75.95 70.9 75.6 71.1 75.2 71.3 71.7 72.7 68.2 73.75 66.75 74.05 65.3 74.45 50.3 77.55 35.35 71.4 19.9546875 63.3884765625 28.425 53.525 28.569921875 53.3478515625 28.725 53.175
L 28.7 52.825
M 27.85 37.425
L 27.775 37.3
Q 25.4345703125 33.2212890625 27.05 28.4
L 32.45 9.8 37.05 -38.15
Q 36.25 -48.3 27.6 -58.8 7.6 -72.75 -17.1 -74.8
L -10.75 -88.05
M -10.25 -88.15
Q -8.25 -88.55 -6.3 -88.7 -6.1 -88.75 -5.9 -88.75
M 27.85 37.425
Q 30.18046875 41.35859375 36.2 44.6 43.65 47.45 48.25 52.7 49.95 55.4 50.55 57.45 52.2 63.4 44.2 63.9
L 36.65 55.7 29.05 52.8
Q 28.8771484375 52.9845703125 28.725 53.175"/>

<path id="Duplicate_Items_Folder_head_copy_28_7_Layer1_0_1_STROKES" stroke="#000000" stroke-width="4" stroke-linejoin="round" stroke-linecap="round" fill="none" d="
M 45.8 -55.95
Q 47.85 -52.05 47.35 -48.65 46.85 -45.25 44.25 -44.2 41.65 -43.15 38.35 -45.1 35.1 -47.05 33.1 -50.95 31.05 -54.8 31.5 -58.25 32 -61.7 34.6 -62.65 37.25 -63.65 40.55 -61.7 43.85 -59.75 45.8 -55.95 Z"/>
</defs>

<g transform="matrix( 4.9942626953125, 0, 0, 4.9942626953125, 62.5,522.95) ">
<g transform="matrix( 0.30657958984375, 0.0216217041015625, -0.0216522216796875, 0.30633544921875, 16.9,-10.65) ">
<g transform="matrix( 1, 0, 0, 1, 0,0) ">
<use xlink:href="#Duplicate_Items_Folder_leg_suit_copy_11_0_Layer1_0_FILL"/>
</g>

<g transform="matrix( 1.15313720703125, 0.0055694580078125, -0.0055694580078125, 1.15313720703125, 5.35,17.55) ">
<g transform="matrix( 1, 0, 0, 1, 0,0) ">
<use xlink:href="#Duplicate_Items_Folder_right_shoe_copy_7_0_Layer0_0_FILL"/>
</g>
</g>
</g>

<g transform="matrix( 0.30657958984375, 0.0216217041015625, -0.0216522216796875, 0.30633544921875, 53.7,-10.65) ">
<g transform="matrix( 1, 0, 0, 1, 0,0) ">
<use xlink:href="#Duplicate_Items_Folder_leg_suit_copy_11_0_Layer1_0_FILL"/>
</g>

<g transform="matrix( 1.15313720703125, 0.0055694580078125, -0.0055694580078125, 1.15313720703125, 5.35,17.55) ">
<g transform="matrix( 1, 0, 0, 1, 0,0) ">
<use xlink:href="#Duplicate_Items_Folder_right_shoe_copy_7_0_Layer0_0_FILL"/>
</g>
</g>
</g>

<g transform="matrix( 0.2760009765625, -0.1103363037109375, 0.11041259765625, 0.2757568359375, 11.65,-25.75) ">
<g transform="matrix( 1, 0, 0, 1, 0,0) ">
<use xlink:href="#arm_trowl_0_Layer3_0_FILL"/>
</g>

<g transform="matrix( 1, 0, 0, 1, 0,0) ">
<use xlink:href="#arm_trowl_0_Layer2_0_FILL"/>
</g>

<g transform="matrix( 1, 0, 0, 1, 0,0) ">
<use xlink:href="#arm_trowl_0_Layer1_0_FILL"/>
</g>

<g transform="matrix( 1, 0, 0, 1, 0,0) ">
<use xlink:href="#arm_trowl_0_Layer0_0_FILL"/>
</g>
</g>

<g transform="matrix( 0.295379638671875, -0.030914306640625, 0.03106689453125, 0.295166015625, 45.7,-28.15) ">
<g transform="matrix( 1, 0, 0, 1, 0,0) ">
<use xlink:href="#arm_trowl_0_Layer3_0_FILL"/>
</g>

<g transform="matrix( 1, 0, 0, 1, 0,0) ">
<use xlink:href="#arm_trowl_0_Layer2_0_FILL"/>
</g>

<g transform="matrix( 1, 0, 0, 1, 0,0) ">
<use xlink:href="#arm_trowl_0_Layer1_0_FILL"/>
</g>

<g transform="matrix( 1, 0, 0, 1, 0,0) ">
<use xlink:href="#arm_trowl_0_Layer0_0_FILL"/>
</g>
</g>

<g transform="matrix( -0.32916259765625, 0.02142333984375, 0.021453857421875, 0.32891845703125, 33.95,-11.5) ">
<g transform="matrix( 1, 0, 0, 1, 0,0) ">
<use xlink:href="#Duplicate_Items_Folder_leg_suit_copy_11_0_Layer1_0_FILL"/>
</g>

<g transform="matrix( 1.15313720703125, 0.0055694580078125, -0.0055694580078125, 1.15313720703125, 5.35,17.55) ">
<g transform="matrix( 1, 0, 0, 1, 0,0) ">
<use xlink:href="#Duplicate_Items_Folder_right_shoe_copy_7_0_Layer0_0_FILL"/>
</g>
</g>
</g>

<g transform="matrix( -0.32916259765625, 0.02142333984375, 0.021453857421875, 0.32891845703125, 70.7,-11.5) ">
<g transform="matrix( 1, 0, 0, 1, 0,0) ">
<use xlink:href="#Duplicate_Items_Folder_leg_suit_copy_11_0_Layer1_0_FILL"/>
</g>

<g transform="matrix( 1.15313720703125, 0.0055694580078125, -0.0055694580078125, 1.15313720703125, 5.35,17.55) ">
<g transform="matrix( 1, 0, 0, 1, 0,0) ">
<use xlink:href="#Duplicate_Items_Folder_right_shoe_copy_7_0_Layer0_0_FILL"/>
</g>
</g>
</g>

<g transform="matrix( -0.29541015625, -0.0309906005859375, -0.031097412109375, 0.295196533203125, 42.25,-28.25) ">
<g transform="matrix( 1, 0, 0, 1, 0,0) ">
<use xlink:href="#Duplicate_Items_Folder_arm_suit_copy_16_0_Layer3_0_FILL"/>
</g>

<g transform="matrix( 1, 0, 0, 1, 0,0) ">
<use xlink:href="#Duplicate_Items_Folder_arm_suit_copy_16_0_Layer2_0_FILL"/>
</g>

<g transform="matrix( 1, 0, 0, 1, 0,0) ">
<use xlink:href="#Duplicate_Items_Folder_arm_suit_copy_16_0_Layer1_0_FILL"/>
</g>

<g transform="matrix( 1, 0, 0, 1, 0,0) ">
<use xlink:href="#Duplicate_Items_Folder_arm_suit_copy_16_0_Layer0_0_FILL"/>
</g>
</g>

<g transform="matrix( -0.280548095703125, -0.0982666015625, -0.0983428955078125, 0.2803192138671875, 76.2,-26.65) ">
<g transform="matrix( 1, 0, 0, 1, 0,0) ">
<use xlink:href="#Duplicate_Items_Folder_arm_suit_copy_16_0_Layer3_0_FILL"/>
</g>

<g transform="matrix( 1, 0, 0, 1, 0,0) ">
<use xlink:href="#Duplicate_Items_Folder_arm_suit_copy_16_0_Layer2_0_FILL"/>
</g>

<g transform="matrix( 1, 0, 0, 1, 0,0) ">
<use xlink:href="#Duplicate_Items_Folder_arm_suit_copy_16_0_Layer1_0_FILL"/>
</g>

<g transform="matrix( 1, 0, 0, 1, 0,0) ">
<use xlink:href="#Duplicate_Items_Folder_arm_suit_copy_16_0_Layer0_0_FILL"/>
</g>
</g>

<g transform="matrix( 0.3300628662109375, -0.0137481689453125, 0.0096893310546875, 0.32940673828125, 25.95,-31.3) ">
<g transform="matrix( 1, 0, 0, 1, 0,0) ">
<use xlink:href="#Duplicate_Items_Folder_body_suit_copy_15_0_Layer4_0_FILL"/>
</g>

<g transform="matrix( 1, 0, 0, 1, 0,0) ">
<use xlink:href="#Duplicate_Items_Folder_body_suit_copy_15_0_Layer3_0_FILL"/>
</g>

<g transform="matrix( 1, 0, 0, 1, 0,0) ">
<use xlink:href="#Duplicate_Items_Folder_body_suit_copy_15_0_Layer2_0_FILL"/>
</g>

<g transform="matrix( 1, 0, 0, 1, 0,0) ">
<use xlink:href="#Duplicate_Items_Folder_body_suit_copy_15_0_Layer1_0_FILL"/>
</g>

<g transform="matrix( 1, 0, 0, 1, 0,0) ">
<use xlink:href="#Duplicate_Items_Folder_body_suit_copy_15_0_Layer0_0_FILL"/>

<use xlink:href="#Duplicate_Items_Folder_body_suit_copy_15_0_Layer0_0_1_STROKES"/>
</g>
</g>

<g transform="matrix( 0.3300628662109375, -0.0137481689453125, 0.0086822509765625, 0.29541015625, 62.25,-29.1) ">
<g transform="matrix( 1, 0, 0, 1, 0,0) ">
<use xlink:href="#Duplicate_Items_Folder_body_suit_copy_15_0_Layer4_0_FILL"/>
</g>

<g transform="matrix( 1, 0, 0, 1, 0,0) ">
<use xlink:href="#Duplicate_Items_Folder_body_suit_copy_15_0_Layer3_0_FILL"/>
</g>

<g transform="matrix( 1, 0, 0, 1, 0,0) ">
<use xlink:href="#Duplicate_Items_Folder_body_suit_copy_15_0_Layer2_0_FILL"/>
</g>

<g transform="matrix( 1, 0, 0, 1, 0,0) ">
<use xlink:href="#Duplicate_Items_Folder_body_suit_copy_15_0_Layer1_0_FILL"/>
</g>

<g transform="matrix( 1, 0, 0, 1, 0,0) ">
<use xlink:href="#Duplicate_Items_Folder_body_suit_copy_15_0_Layer0_0_FILL"/>

<use xlink:href="#Duplicate_Items_Folder_body_suit_copy_15_0_Layer0_0_1_STROKES"/>
</g>
</g>

<g transform="matrix( 0.2691497802734375, -0.0144195556640625, 0.0038604736328125, 0.2690887451171875, 27.45,-55.2) ">
<g transform="matrix( 1, 0, 0, 1, 0,0) ">
<use xlink:href="#Duplicate_Items_Folder_head_copy_27_7_Layer9_0_FILL"/>

<use xlink:href="#Duplicate_Items_Folder_head_copy_27_7_Layer9_0_1_STROKES"/>
</g>

<g transform="matrix( 1, 0, 0, 1, 0,0) ">
<use xlink:href="#Duplicate_Items_Folder_head_copy_27_7_Layer8_0_FILL"/>

<use xlink:href="#Duplicate_Items_Folder_head_copy_27_7_Layer8_0_1_STROKES"/>
</g>

<g transform="matrix( 1, 0, 0, 1, 0,0) ">
<use xlink:href="#Duplicate_Items_Folder_head_copy_27_7_Layer7_0_FILL"/>
</g>

<g transform="matrix( 1, 0, 0, 1, 0,0) ">
<use xlink:href="#Duplicate_Items_Folder_head_copy_27_7_Layer6_0_FILL"/>
</g>

<g transform="matrix( 1, 0, 0, 1, 0,0) ">
<use xlink:href="#Duplicate_Items_Folder_head_copy_27_7_Layer5_0_FILL"/>
</g>

<g transform="matrix( 1, 0, 0, 1, 0,0) ">
<use xlink:href="#Duplicate_Items_Folder_head_copy_27_7_Layer4_0_FILL"/>

<use xlink:href="#Duplicate_Items_Folder_head_copy_27_7_Layer4_0_1_STROKES"/>

<use xlink:href="#Duplicate_Items_Folder_head_copy_27_7_Layer4_0_2_STROKES"/>

<use xlink:href="#Duplicate_Items_Folder_head_copy_27_7_Layer4_0_3_STROKES"/>
</g>

<g transform="matrix( 1, 0, 0, 1, 0,0) ">
<use xlink:href="#Duplicate_Items_Folder_head_copy_27_7_Layer3_0_FILL"/>

<use xlink:href="#Duplicate_Items_Folder_head_copy_27_7_Layer3_0_1_STROKES"/>

<use xlink:href="#Duplicate_Items_Folder_head_copy_27_7_Layer3_0_2_STROKES"/>

<use xlink:href="#Duplicate_Items_Folder_head_copy_27_7_Layer3_0_3_STROKES"/>
</g>

<g transform="matrix( 1, 0, 0, 1, 0,0) ">
<use xlink:href="#Duplicate_Items_Folder_head_copy_27_7_Layer2_0_FILL"/>

<use xlink:href="#Duplicate_Items_Folder_head_copy_27_7_Layer2_0_1_STROKES"/>
</g>

<g transform="matrix( 1, 0, 0, 1, 0,0) ">
<use xlink:href="#Duplicate_Items_Folder_head_copy_27_7_Layer1_0_FILL"/>

<use xlink:href="#Duplicate_Items_Folder_head_copy_27_7_Layer1_0_1_STROKES"/>
</g>
</g>

<g transform="matrix( 0.2691497802734375, -0.0144195556640625, 0.0038604736328125, 0.2690887451171875, 63.75,-52.95) ">
<g transform="matrix( 1, 0, 0, 1, 0,0) ">
<use xlink:href="#Duplicate_Items_Folder_head_copy_28_7_Layer9_0_FILL"/>

<use xlink:href="#Duplicate_Items_Folder_head_copy_28_7_Layer9_0_1_STROKES"/>
</g>

<g transform="matrix( 1, 0, 0, 1, 0,0) ">
<use xlink:href="#Duplicate_Items_Folder_head_copy_28_7_Layer8_0_FILL"/>

<use xlink:href="#Duplicate_Items_Folder_head_copy_28_7_Layer8_0_1_STROKES"/>
</g>

<g transform="matrix( 1, 0, 0, 1, 0,0) ">
<use xlink:href="#Duplicate_Items_Folder_head_copy_28_7_Layer7_0_FILL"/>
</g>

<g transform="matrix( 1, 0, 0, 1, 0,0) ">
<use xlink:href="#Duplicate_Items_Folder_head_copy_28_7_Layer6_0_FILL"/>
</g>

<g transform="matrix( 1, 0, 0, 1, 0,0) ">
<use xlink:href="#Duplicate_Items_Folder_head_copy_28_7_Layer5_0_FILL"/>
</g>

<g transform="matrix( 1, 0, 0, 1, 0,0) ">
<use xlink:href="#Duplicate_Items_Folder_head_copy_28_7_Layer4_0_FILL"/>

<use xlink:href="#Duplicate_Items_Folder_head_copy_28_7_Layer4_0_1_STROKES"/>

<use xlink:href="#Duplicate_Items_Folder_head_copy_28_7_Layer4_0_2_STROKES"/>

<use xlink:href="#Duplicate_Items_Folder_head_copy_28_7_Layer4_0_3_STROKES"/>
</g>

<g transform="matrix( 1, 0, 0, 1, 0,0) ">
<use xlink:href="#Duplicate_Items_Folder_head_copy_28_7_Layer3_0_FILL"/>

<use xlink:href="#Duplicate_Items_Folder_head_copy_28_7_Layer3_0_1_STROKES"/>

<use xlink:href="#Duplicate_Items_Folder_head_copy_28_7_Layer3_0_2_STROKES"/>

<use xlink:href="#Duplicate_Items_Folder_head_copy_28_7_Layer3_0_3_STROKES"/>
</g>

<g transform="matrix( 1, 0, 0, 1, 0,0) ">
<use xlink:href="#Duplicate_Items_Folder_head_copy_28_7_Layer2_0_FILL"/>

<use xlink:href="#Duplicate_Items_Folder_head_copy_28_7_Layer2_0_1_STROKES"/>
</g>

<g transform="matrix( 1, 0, 0, 1, 0,0) ">
<use xlink:href="#Duplicate_Items_Folder_head_copy_28_7_Layer1_0_FILL"/>

<use xlink:href="#Duplicate_Items_Folder_head_copy_28_7_Layer1_0_1_STROKES"/>
</g>
</g>
</g>
</svg>
