
<svg xmlns="http://www.w3.org/2000/svg" version="1.1" xmlns:xlink="http://www.w3.org/1999/xlink" preserveAspectRatio="none" x="0px" y="0px" width="560px" height="544px" viewBox="0 0 560 544">
<defs>
<filter id="Filter_1" x="-20%" y="-20%" width="140%" height="140%" color-interpolation-filters="sRGB">
<feColorMatrix in="SourceGraphic" type="matrix" values="1 0 0 0 -0.1803921568627451 0 1 0 0 -0.1803921568627451 0 0 1 0 -0.1803921568627451 0 0 0 1 0 " result="result1"/>
</filter>

<filter id="Filter_2" x="-20%" y="-20%" width="140%" height="140%" color-interpolation-filters="sRGB">
<feColorMatrix in="SourceGraphic" type="matrix" values="1 0 0 0 -0.1803921568627451 0 1 0 0 -0.1803921568627451 0 0 1 0 -0.1803921568627451 0 0 0 1 0 " result="result1"/>
</filter>

<filter id="Filter_3" x="-20%" y="-20%" width="140%" height="140%" color-interpolation-filters="sRGB">
<feColorMatrix in="SourceGraphic" type="matrix" values="1 0 0 0 -0.1803921568627451 0 1 0 0 -0.1803921568627451 0 0 1 0 -0.1803921568627451 0 0 0 1 0 " result="result1"/>
</filter>

<filter id="Filter_4" x="-20%" y="-20%" width="140%" height="140%" color-interpolation-filters="sRGB">
<feColorMatrix in="SourceGraphic" type="matrix" values="1 0 0 0 -0.1803921568627451 0 1 0 0 -0.1803921568627451 0 0 1 0 -0.1803921568627451 0 0 0 1 0 " result="result1"/>
</filter>

<filter id="Filter_5" x="-20%" y="-20%" width="140%" height="140%" color-interpolation-filters="sRGB">
<feColorMatrix in="SourceGraphic" type="matrix" values="1 0 0 0 -0.1803921568627451 0 1 0 0 -0.1803921568627451 0 0 1 0 -0.1803921568627451 0 0 0 1 0 " result="result1"/>
</filter>

<filter id="Filter_6" x="-20%" y="-20%" width="140%" height="140%" color-interpolation-filters="sRGB">
<feColorMatrix in="SourceGraphic" type="matrix" values="1 0 0 0 -0.1803921568627451 0 1 0 0 -0.1803921568627451 0 0 1 0 -0.1803921568627451 0 0 0 1 0 " result="result1"/>
</filter>

<filter id="Filter_7" x="-20%" y="-20%" width="140%" height="140%" color-interpolation-filters="sRGB">
<feColorMatrix in="SourceGraphic" type="matrix" values="1 0 0 0 -0.1803921568627451 0 1 0 0 -0.1803921568627451 0 0 1 0 -0.1803921568627451 0 0 0 1 0 " result="result1"/>
</filter>

<filter id="Filter_8" x="-20%" y="-20%" width="140%" height="140%" color-interpolation-filters="sRGB">
<feColorMatrix in="SourceGraphic" type="matrix" values="1 0 0 0 -0.1803921568627451 0 1 0 0 -0.1803921568627451 0 0 1 0 -0.1803921568627451 0 0 0 1 0 " result="result1"/>
</filter>

<filter id="Filter_9" x="-20%" y="-20%" width="140%" height="140%" color-interpolation-filters="sRGB">
<feColorMatrix in="SourceGraphic" type="matrix" values="1 0 0 0 -0.1803921568627451 0 1 0 0 -0.1803921568627451 0 0 1 0 -0.1803921568627451 0 0 0 1 0 " result="result1"/>
</filter>

<filter id="Filter_10" x="-20%" y="-20%" width="140%" height="140%" color-interpolation-filters="sRGB">
<feColorMatrix in="SourceGraphic" type="matrix" values="1 0 0 0 -0.1803921568627451 0 1 0 0 -0.1803921568627451 0 0 1 0 -0.1803921568627451 0 0 0 1 0 " result="result1"/>
</filter>

<filter id="Filter_11" x="-20%" y="-20%" width="140%" height="140%" color-interpolation-filters="sRGB">
<feColorMatrix in="SourceGraphic" type="matrix" values="1 0 0 0 -0.1803921568627451 0 1 0 0 -0.1803921568627451 0 0 1 0 -0.1803921568627451 0 0 0 1 0 " result="result1"/>
</filter>

<g id="Layer0_0_FILL">
<path fill="#AD7A57" stroke="none" d="
M 197.6 415.15
L 198.4 408.65
Q 190.820703125 408.91796875 183.6 408.4
L 172.45 494.05 174.35 494.3 188.35 492.7 189.2 485.65 197.6 415.15
M 104 362.05
L 103.95 362.05 92.6 449.85 106.6 449.05 114.7 379.05
Q 107.5693359375 371.2716796875 104 362.05
M 440.95 213.9
L 426.4 222.65 425.9 222.65
Q 432.23359375 226.7673828125 436.85 231.2
L 437 230.05 439.4 227.65 440.95 213.9
M 520.85 258.35
L 506.3 267.35 505 267.35 493.6 354.65 495.45 354.9 508.4 346.45 520.85 258.35
M 162.7 510.15
L 162.7 510.45 164.55 510.45 162.7 510.15 Z"/>

<path fill="#462F1E" stroke="none" d="
M 213.75 407.5
Q 209.34375 408.051171875 204.75 408.35 201.5412109375 408.5755859375 198.4 408.65
L 197.6 415.15 213.75 407.5
M 56.9 317.1
Q 50.62578125 315.0466796875 45.5 314.95
L 36 324.75 80.7 348.8 89.7 353.6 103.75 361.4
Q 101.4111328125 354.93125 100.8 347.75 100.5447265625 344.2875 100.75 340.9 99.6642578125 340.4125 98.05 339.55 97.815625 339.4205078125 97.55 339.25 91.6599609375 336.053515625 79.65 328.45 73.4212890625 324.5009765625 67.85 321.7 62.0060546875 318.7578125 56.9 317.1
M 119.85 291.7
L 119.85 291.15 56.9 317.1
Q 62.0060546875 318.7578125 67.85 321.7
L 118.8 300.15 118.8 300.65 129.5 296.2
Q 149.8265625 281.486328125 177.4 276.25
L 197.6 267.85 197.6 268.15 225 256.65
Q 228.0525390625 250.226953125 233.05 244.2
L 197.6 259.15 197.6 259.4 196.3 259.65 119.85 291.7
M 353.2 342.8
Q 351.5705078125 343.1912109375 349.95 343.5 323.8 348.8 305 347.25 303.1619140625 346.95703125 301.3 346.65
L 297.7 348.35
Q 294.9412109375 362.4587890625 283.8 374.45
L 324.3 354.9 322.45 357.8 353.2 342.8
M 473.5 263.65
L 445.1 277.4
Q 436.8470703125 295.7767578125 414 312.85 413.29609375 313.3861328125 412.6 313.9
L 495.2 273.7 473.5 263.65
M 400.75 189.05
Q 379.85 175.8 366.65 175.55
L 357.1 185.35 407.55 212.6
Q 412.0517578125 214.6931640625 416.35 217.1 420.90234375 219.47109375 424.8 221.95
L 425.1 222.1 426.4 222.65 440.95 213.9 424.05 202.25
Q 421.65 202.25 400.75 189.05
M 355.8 196.3
L 346.8 196.2 338.05 199.9
Q 346.93984375 199.597265625 355.35 200.1
L 355.8 196.3
M 480.65 233.75
Q 459.75 220.25 446.5 220.25
L 439.4 227.65 437 230.05 481.7 253.85
Q 483.55 254.9 485.4 255.95 486.45 256.5 487.25 257.05
L 505 266.8 506.3 267.35 520.85 258.35 503.9 246.95
Q 501.55 246.95 480.65 233.75 Z"/>

<path fill="#191009" stroke="none" d="
M 297.7 348.35
L 301.3 346.65
Q 299.7119140625 346.40703125 298.1 346.15 297.9330078125 347.2734375 297.7 348.35
M 104 362.05
Q 103.9873046875 361.9515625 103.95 361.85
L 103.95 362.05 104 362.05
M 100.75 340.9
Q 100.8345703125 339.6259765625 101 338.35
L 98.05 339.55
Q 99.6642578125 340.4125 100.75 340.9 Z"/>

<path fill="#795338" stroke="none" d="
M 177.4 276.25
Q 185.83046875 274.66171875 194.95 273.95 208.2 273.45 220.35 274.2 221.001171875 265.0830078125 225 256.65
L 197.6 268.15 197.6 267.85 177.4 276.25
M 116.15 380.55
Q 115.4248046875 379.8115234375 114.7 379.05
L 106.6 449.05 105.8 455.15 171.7 494.05 172.45 494.05 183.6 408.4
Q 155.4837890625 406.5384765625 133.3 393.5 123.25 387.45 116.15 380.55
M 80.7 348.8
L 36 324.75 25.95 410.45 92.3 449.85 92.6 449.85 103.95 362.05 103.95 361.85
Q 103.8669921875 361.630078125 103.75 361.4
L 89.7 353.6 83.35 367.85 80.7 348.8
M 67.85 321.7
Q 73.4212890625 324.5009765625 79.65 328.45 91.6599609375 336.053515625 97.55 339.25
L 101.05 337.8
Q 103.158203125 321.8583984375 116.15 308.1 120.65 303.05 126.7 298.3 128.0912109375 297.2201171875 129.5 296.2
L 118.8 300.65 118.8 300.15 67.85 321.7
M 485.15 327.1
L 480.1 321.3 492.3 304.4 495.2 273.7 412.6 313.9
Q 382.65625 336.3466796875 353.2 342.8
L 322.45 357.8 324.3 354.9 283.8 374.45
Q 279.225 379.4154296875 273.25 384 248.6283203125 403.2537109375 213.75 407.5
L 197.6 415.15 189.2 485.65 245.5 459.9 248.65 459.1 325.1 425.25 326.15 424.45 330.15 423.4 484.85 352 484.85 349.95 485.15 327.1
M 437 230.05
L 436.85 231.2
Q 451.330078125 245.0638671875 449.45 262.05 448.5169921875 269.834765625 445.1 277.4
L 473.5 263.65 495.2 273.7 492.3 304.4 480.1 321.3 485.15 327.1 484.85 349.95 492.8 354.65 493.6 354.65 505 267.35 505 266.8 487.25 257.05
Q 486.45 256.5 485.4 255.95 483.55 254.9 481.7 253.85
L 437 230.05
M 424.8 221.95
Q 424.9666015625 222.0400390625 425.1 222.1
L 425.1 222.1 424.8 221.95
M 357.1 185.35
L 355.8 196.3 355.35 200.1
Q 384.0806640625 201.77890625 407.55 212.6
L 357.1 185.35
M 92.6 449.85
L 92.3 449.85 92.6 450.15 92.6 449.85
M 162.4 510.45
L 162.7 510.7 162.7 510.45 162.7 510.15 161.9 510.15 162.4 510.45 Z"/>

<path fill="#000800" stroke="none" d="
M 416.35 217.1
Q 412.0517578125 214.6931640625 407.55 212.6 384.0806640625 201.77890625 355.35 200.1 346.93984375 199.597265625 338.05 199.9 335.2974609375 199.982421875 332.5 200.15 317.95 201.2 305 204.4 274.05 211 251.05 227.95 240.0978515625 235.675390625 233.05 244.2 228.0525390625 250.226953125 225 256.65 221.001171875 265.0830078125 220.35 274.2 208.2 273.45 194.95 273.95 185.83046875 274.66171875 177.4 276.25 149.8265625 281.486328125 129.5 296.2 128.0912109375 297.2201171875 126.7 298.3 120.65 303.05 116.15 308.1 103.158203125 321.8583984375 101.05 337.8 101.0310546875 338.090625 101 338.35 100.8345703125 339.6259765625 100.75 340.9 100.5447265625 344.2875 100.8 347.75 101.4111328125 354.93125 103.75 361.4 103.8669921875 361.630078125 103.95 361.85 103.9873046875 361.9515625 104 362.05 107.5693359375 371.2716796875 114.7 379.05 115.4248046875 379.8115234375 116.15 380.55 123.25 387.45 133.3 393.5 155.4837890625 406.5384765625 183.6 408.4 190.820703125 408.91796875 198.4 408.65 201.5412109375 408.5755859375 204.75 408.35 209.34375 408.051171875 213.75 407.5 248.6283203125 403.2537109375 273.25 384 279.225 379.4154296875 283.8 374.45 294.9412109375 362.4587890625 297.7 348.35 297.9330078125 347.2734375 298.1 346.15 299.7119140625 346.40703125 301.3 346.65 303.1619140625 346.95703125 305 347.25 323.8 348.8 349.95 343.5 351.5705078125 343.1912109375 353.2 342.8 382.65625 336.3466796875 412.6 313.9 413.29609375 313.3861328125 414 312.85 436.8470703125 295.7767578125 445.1 277.4 448.5169921875 269.834765625 449.45 262.05 451.330078125 245.0638671875 436.85 231.2 432.23359375 226.7673828125 425.9 222.65 425.5103515625 222.3869140625 425.1 222.1 424.9666015625 222.0400390625 424.8 221.95 420.90234375 219.47109375 416.35 217.1 Z"/>

<path fill="#0B0602" stroke="none" d="
M 83.35 367.85
L 89.7 353.6 80.7 348.8 83.35 367.85 Z"/>
</g>

<g id="leaf_0_Layer0_0_FILL">
<path fill="#03C248" stroke="none" d="
M 9.65 2.65
L 9.55 2.75 9.6 2.8 9.65 2.65
M 9.8 2.5
L 9.65 2.65 9.6 2.8
Q 9.869921875 3.672265625 9.55 4.55
L 9.35 5.5
Q 8.7822265625 7.633203125 6.25 9.5 -0.401953125 13.21640625 0.3 10.1 0.3544921875 9.958984375 0.4 9.8 -1.0310546875 11.8908203125 -4.05 11.9
L -4.6 11.85 -3.95 11.95
Q 2.24375 15.3958984375 8.6 12 14.9515625 8.6580078125 16.45 4.3 17.9509765625 -0.01328125 9.8 2.5 Z"/>

<path fill="#0DEC5D" stroke="none" d="
M 9.55 2.75
L 9.65 2.65 9.75 2.45 9.7 2.45 9.7 2.4
Q 10.573046875 -3.6486328125 6 -2.35 1.87734375 -1.131640625 1.4 7.25 1.3109375 7.6837890625 1.2 8.05
L 1.1 8.3
Q 0.830078125 9.1580078125 0.4 9.8 0.3544921875 9.958984375 0.3 10.1 -0.401953125 13.21640625 6.25 9.5 8.7822265625 7.633203125 9.35 5.5
L 9.55 4.55
Q 9.869921875 3.672265625 9.6 2.8
L 8.7 4.8 9.6 2.8 9.55 2.75
M 9.65 2.65
L 9.8 2.5
Q 9.7748046875 2.4748046875 9.75 2.45
L 9.65 2.65 Z"/>
</g>

<g id="leaf_flower_0_Layer0_0_MEMBER_0_FILL">
<path fill="#FF9900" stroke="none" d="
M -16.3 -43.8
L -13.6 -23.7 -1.4 -25.3 -4.05 -45.4 -11.1 -51.65 -16.3 -43.8 Z"/>
</g>

<g id="leaf_flower_0_Layer0_0_MEMBER_1_FILL">
<path fill="#000000" stroke="none" d="
M 8.5 0
L 0 25.3 20.75 75.85 53.15 62.6 32.35 12 8.5 0
M 10.25 4.2
L 30 14.15 49.2 60.95 22.4 71.95 3.2 25.2 10.25 4.2 Z"/>
</g>

<g id="leaf_flower_0_Layer0_0_MEMBER_2_FILL">
<path fill="#FFFF00" stroke="none" d="
M -9.45 -39.55
L -7.2 -22.55 -1.7 -23.3 -4.6 -45.1 -6 -46.3 -9.45 -39.55 Z"/>
</g>

<g id="leaf_flower_0_Layer0_0_MEMBER_3_FILL">
<path fill="#FFFF99" stroke="none" d="
M -9.45 -39.55
L -4.6 -45.1 -11 -50.8 -15.65 -43.65 -9.45 -39.55 Z"/>
</g>

<g id="leaf_flower_0_Layer0_0_MEMBER_4_FILL">
<path fill="#049A3A" stroke="none" d="
M -17.05 -31.25
Q -16.35 -29.55 -14.1 -28.05 -14.9 -26.15 -14.85 -24.7 -14.7 -22.7 -13.05 -21.1 -12.3 -20.4 -10.25 -19.1
L -9.35 -18.55
Q -10.15 -17.35 -10.7 -16.3 -11.2 -15.1 -10.8 -14.05 -10.2 -12.45 -7.8 -11.4 -8.6 -9.35 -8.55 -7.9 -8.5 -7.1 -8.35 -5.85 -8.15 -4.35 -8.15 -3.65 -8.1 -2.35 -8.3 -1.25 -8.5 0.1 -8.35 1.2 -8.25 1.85 -7.85 2.85 -7.45 3.8 -7.4 4.3 -7.1 5.6 -7 7.3 -6.9 8.75 -6.95 10.05 -7.05 10.75 -6.65 11.85 -6.4 12.5 -5.7 13.8 -5.05 15 -4.95 15.45 -4.45 16.6 -4.35 17.45 -4.25 18.35 -4.45 19.4 -4.65 20.4 -4.35 22.05 -4.2 23 -3.7 24.85
L -3.55 25.3
Q -3.46171875 25.6970703125 -3.6 26.75
L -0.7 26.3
Q -0.7388671875 25.8052734375 -0.85 25.25 -1.4 22.65 -1.3 20.5 -1.25 19.3 -1.85 16.65 -2.4 14.05 -3.2 12.3 -3.6 11.35 -3.85 9.65 -3.95 8.85 -4.15 7 -4.2 5.65 -4.25 5.25
L -4.45 4.2
Q -5.5 -0.5 -5.2 -1.4 -4.85 -2.55 -5.4 -8.15
L -5.45 -9.1
Q -5.5 -9.7 -4.85 -11 -4.5 -11.7 -3.4 -13.45
L -2.75 -14.55
Q -2.05 -15.75 -1.9 -17.1 -0.7 -18.45 -0.3 -20.2 0.05 -21.95 -0.5 -23.8 -1.3 -26.5 -3.6 -28.7 -5.95 -30.85 -8.8 -31.6 -10.65 -32.1 -12.5 -31.9 -12.9 -31.85 -13.35 -31.95 -15.25 -32.45 -15.8 -36.6
L -16.15 -39.05 -16.9 -36.75
Q -18.05 -33.45 -17.05 -31.25
M -12.75 -27.2
Q -11.35 -26.35 -10.75 -25.9 -9.85 -25.15 -9.65 -24.35 -9.5 -24 -9.45 -23.6 -11.35 -24.2 -12 -24.85 -12.8 -25.6 -12.75 -27.2 Z"/>
</g>

<g id="leaf_flower_0_Layer0_0_MEMBER_5_MEMBER_0_FILL">
<path fill="#000000" stroke="none" d="
M 27.15 64.75
Q 25.95 64.25 19.65 62.4 20.45 69.2 24.05 71.25 26.6 72.7 34.15 72.95 33.65 70.85 32.45 68.85 30.95 66.35 27.15 64.75
M 25.8 68.8
Q 24.45 68.15 23.75 66.75 27.85 68.05 29.35 69.65 27.05 69.4 25.8 68.8 Z"/>
</g>

<g id="leaf_flower_0_Layer0_0_MEMBER_5_MEMBER_1_FILL">
<path fill="#000000" stroke="none" d="
M -12.55 -32.45
Q -12.9 -32.45 -13.2 -32.5 -13.8 -32.65 -14.25 -33.45 -14.9 -34.5 -15.25 -36.75
L -15.85 -41.5 -17.5 -36.95
Q -18.65 -33.6 -17.7 -31.2 -16.95 -29.35 -14.8 -27.8 -16.4 -23.55 -13.4 -20.7 -12.65 -19.95 -10.55 -18.6
L -10.15 -18.35
Q -10.8 -17.35 -11.15 -16.5 -11.8 -15.2 -11.3 -13.85 -10.7 -12.25 -8.5 -11.1 -9.15 -9.3 -9.1 -7.9 -9.1 -7.2 -8.9 -5.75 -8.75 -4.4 -8.7 -3.65 -8.65 -2.4 -8.9 -1.3 -9.1 0.1 -8.95 1.3 -8.8 2 -8.4 3.1 -8.05 3.95 -7.95 4.45 -7.7 5.65 -7.55 7.3 -7.45 8.85 -7.55 10 -7.6 10.85 -7.2 12 -6.9 12.7 -6.25 14 -5.75 15 -5.5 15.65 -5.05 16.75 -4.9 17.5 -4.85 18.3 -5.05 19.3 -5.25 20.4 -4.95 22.1 -4.8 23.05 -4.25 25
L -4.1 25.4
Q -4.05 25.7 -4.25 26.95 -4.288671875 27.2109375 -4.35 27.45
L -3.1 27.25
Q -2.909375 25.558203125 -3 25.15 -3.6 23.1 -3.7 22.25 -4.1 20.5 -3.9 19.5 -3.7 18.4 -3.8 17.45 -3.9 16.45 -4.4 15.2 -5.3 13.4 -5.7 12.55 -6.45 10.95 -6.4 10.05 -6.3 8.8 -6.4 7.3 -6.5 5.5 -6.8 4.2 -7.35 2.6 -7.6 1.85 -8.05 0.5 -7.7 -1.15 -7.45 -2.7 -7.65 -4.75 -7.9 -6.9 -7.95 -7.9 -8 -9.55 -7.05 -11.7 -8.5 -12.3 -9.4 -13.05 -10.9 -14.45 -10.1 -16.05 -9.6 -17.05 -8.55 -18.7 -10.05 -19.65 -10.8 -20.15 -12.05 -21 -12.6 -21.5 -14.1 -22.95 -14.25 -24.7 -14.3 -26.2 -13.4 -28.3 -15.65 -29.7 -16.45 -31.15 -17.5 -33.3 -16.35 -36.55 -15.8 -32 -13.5 -31.4 -13 -31.25 -12.45 -31.3 -10.75 -31.55 -8.95 -31.05 -4.1 -29.8 -1.8 -25.35 0.65 -20.75 -2.45 -17.3 -2.6 -15.9 -3.25 -14.8 -3.9 -13.75 -5.15 -11.65 -6.1 -9.9 -6 -9 -5.95 -8.35 -5.7 -5.25 -5.5 -2.3 -5.75 -1.5 -6 -0.8 -5.5 1.9 -5.3 3.3 -4.8 5.35 -4.7 5.95 -4.6 8.55 -4.3 11.15 -3.7 12.6 -2.95 14.3 -2.4 16.85 -1.8 19.35 -1.9 20.5 -2 22.7 -1.45 25.4 -1.2140625 26.255078125 -1.15 27
L -0.05 26.85
Q -0.071484375 26.0263671875 -0.3 25.15 -0.85 22.6 -0.75 20.55 -0.6 19.25 -1.25 16.55 -1.85 13.95 -2.65 12.1 -3.1 11.15 -3.25 9.55 -3.4 8.65 -3.55 6.95 -3.65 5.35 -3.7 5.1
L -3.9 4.1
Q -4.35 1.85 -4.45 1.3 -4.75 -0.75 -4.65 -1.25 -4.45 -1.95 -4.45 -3.75 -4.5 -5.25 -4.8 -8.2
L -4.85 -9.15
Q -4.9 -9.65 -4.25 -10.9 -3.9 -11.6 -2.95 -13.2
L -2.3 -14.25
Q -1.55 -15.5 -1.35 -16.8 -0.1 -18.3 0.25 -20.15 0.6 -22.05 0.05 -24 -0.8 -26.85 -3.2 -29.1 -5.6 -31.35 -8.65 -32.15 -10.65 -32.7 -12.55 -32.45 Z"/>
</g>

<g id="leaf_flower_0_Layer0_0_MEMBER_6_FILL">
<path fill="#0BE158" stroke="none" d="
M 32.45 68.85
Q 33.65 70.85 34.15 72.95 37.45 73.25 43.85 73.25 49.2 73.6 52.1 75.75 50.75 64.15 36.5 61.15 32.45 60.3 24.85 59.8 17.65 59.3 15.4 58.75 9.55 57.3 6.75 51.7 8.35 57.5 14.1 60.3
L 18.65 62.1 18.9 62.15 19.65 62.4
Q 25.95 64.25 27.15 64.75 30.95 66.35 32.45 68.85 Z"/>
</g>

<g id="leaf_flower_0_Layer0_0_MEMBER_7_FILL">
<path fill="#0BE158" stroke="none" d="
M 25.45 78.7
Q 29.1 80.75 40.45 84.1 49.5 87.9 47.2 94.25 46.75 95.6 46.55 96.5 52.7 86.55 43.95 81.55 39.05 78.75 28.65 77.5 24.4 77 19.85 73 21.5 76.45 25.45 78.7 Z"/>
</g>

<g id="leaf_flower_0_Layer0_0_MEMBER_8_FILL">
<path fill="#0BE158" stroke="none" d="
M -3.4 -15.25
Q -4.75 -13.4 -5.3 -12.5 -6.45 -10.6 -6.7 -9.15 -6.8 -8.3 -6.55 -6.65 -6.5 -6.15 -6.6 -2.9 -6.75 0 -6.35 1.4 -5.85 3.25 -5.55 5.8 -5.2 8.4 -5.3 9.7 -5.4 10.7 -4.45 12.35 -3.35 14.25 -3.2 15.1 -2.95 16.3 -2.8 18.8 -2.7 20.1 -2.7 21.85 -2.7 22.25 -2 24.95 -1.784375 25.9744140625 -1.7 26.8
L -1.2 26.75
Q -1.253515625 26.1119140625 -1.45 25.4 -2 22.7 -1.9 20.5 -1.8 19.35 -2.4 16.85 -2.95 14.3 -3.7 12.6 -4.3 11.15 -4.6 8.55 -4.7 5.95 -4.8 5.35 -5.3 3.3 -5.5 1.9 -6 -0.8 -5.75 -1.5 -5.5 -2.3 -5.7 -5.25 -5.95 -8.35 -6 -9 -6.1 -9.9 -5.15 -11.65 -3.9 -13.75 -3.25 -14.8 -2.6 -15.9 -2.45 -17.3 -2.75 -16.25 -3.4 -15.25 Z"/>
</g>

<g id="leaf_flower_0_Layer0_0_MEMBER_9_FILL">
<path fill="#0BE158" stroke="none" d="
M 39.1 84.55
L 39.8 82.55 36.55 79.9 35.05 82.2 37.6 83
Q 35.95 87.85 35.35 90.8 34.45 95.25 39.15 97.7 41.85 99.1 45.9 99.65 38.65 96.75 38.5 89.35 38.45 87.05 39.1 84.55 Z"/>
</g>

<path id="Layer0_0_1_STROKES" stroke="#000000" stroke-width="1" stroke-linejoin="round" stroke-linecap="round" fill="none" d="
M 355.825 196.3
L 357.1 185.35 366.65 175.55
Q 379.85 175.8 400.75 189.05 421.65 202.25 424.05 202.25
L 440.95 213.9 439.4 227.65 446.5 220.25
Q 459.75 220.25 480.65 233.75 501.55 246.95 503.9 246.95
L 520.85 258.35 508.4 346.45 495.45 354.9
M 492.8 354.65
L 484.875 349.975 484.85 352 330.15 423.4 325.1 425.25 248.65 459.1
M 245.5 459.9
L 189.2 485.65 188.35 492.7 174.35 494.3
M 171.7 494.05
L 105.8 455.15 106.6 449.05 92.6 449.85 92.6 450.15 92.3 449.85 25.95 410.45 36 324.75 45.5 314.95
Q 50.62578125 315.0466796875 56.9 317.1
L 119.85 291.15
M 119.85 291.7
L 196.3 259.65
M 197.6 259.15
L 233.05 244.2
M 338.05 199.9
L 346.8 196.2 355.825 196.3 355.375 200.1
M 407.575 212.625
L 357.1 185.35
M 440.95 213.9
L 426.4 222.65
M 436.875 231.2
L 437 230.05 439.4 227.65
M 424.825 221.95
L 425.1 222.1 426.4 222.65
M 425.1 222.125
L 425.1 222.1
M 505 266.8
L 487.25 257.05
Q 486.45 256.5 485.4 255.95 483.55 254.9 481.7 253.85
L 437 230.05
M 445.125 277.4
L 473.5 263.65 495.2 273.7 492.3 304.4 480.1 321.3 485.15 327.1 484.875 349.975
M 520.85 258.35
L 506.3 267.35
M 493.6 354.65
L 505 267.35
M 506.3 267.35
L 505 266.8 505 267.35
M 412.6 313.925
L 495.2 273.7
M 56.9 317.1
Q 62.0060546875 318.7578125 67.875 321.7
L 118.8 300.15
M 118.8 300.65
L 129.525 296.2
M 177.4 276.25
L 197.6 267.85
M 197.6 268.15
L 225 256.65
M 67.875 321.7
Q 73.4212890625 324.5009765625 79.65 328.45 91.6599609375 336.053515625 97.55 339.275
L 101.075 337.825
M 80.7 348.8
L 36 324.75
M 297.725 348.375
L 301.325 346.675
M 100.75 340.925
Q 99.6642578125 340.4125 98.075 339.55 97.815625 339.4205078125 97.55 339.275
M 103.95 362.05
L 92.6 449.85 92.3 449.85
M 103.95 362.05
L 103.95 361.85
M 89.7 353.6
L 83.35 367.85 80.7 348.8 89.7 353.6 103.775 361.4
M 198.4 408.675
L 197.625 415.175 213.775 407.5
M 172.45 494.05
L 183.625 408.425
M 197.625 415.175
L 189.2 485.65
M 326.15 424.45
L 325.1 425.25
M 283.8 374.475
L 324.3 354.9
M 322.45 357.8
L 353.2 342.825
M 106.6 449.05
L 114.725 379.05"/>

<path id="leaf_0_Layer0_0_1_STROKES" stroke="#000000" stroke-width="1" stroke-linejoin="round" stroke-linecap="round" fill="none" d="
M 9.8 2.5
Q 9.7748046875 2.4748046875 9.75 2.45
L 9.65 2.65 9.6 2.8
M 0.4 9.8
Q -1.0310546875 11.8908203125 -4.05 11.9
M -3.95 11.95
Q 2.24375 15.3958984375 8.6 12.025 14.9515625 8.6580078125 16.45 4.325 17.9509765625 -0.01328125 9.8 2.5
M 9.75 2.45
L 9.7 2.45 9.7 2.4
Q 10.573046875 -3.6486328125 6 -2.325 1.87734375 -1.131640625 1.4 7.25 1.3109375 7.6837890625 1.2 8.075
L 1.125 8.325
Q 0.830078125 9.1580078125 0.4 9.8
M 9.6 2.8
L 8.7 4.8"/>
</defs>

<g transform="matrix( 1, 0, 0, 1, 0,0) ">
<use xlink:href="#Layer0_0_FILL"/>

<use xlink:href="#Layer0_0_1_STROKES"/>
</g>

<g filter="url(#Filter_1)" transform="matrix( 1, 0, 0, 1, 0,0) ">
<g transform="matrix( 3.1654815673828125, 7.000213623046875, -7.5033111572265625, 3.09564208984375, 158.15,251.2) ">
<g transform="matrix( 1, 0, 0, 1, 0,0) ">
<use xlink:href="#leaf_0_Layer0_0_FILL"/>

<use xlink:href="#leaf_0_Layer0_0_1_STROKES"/>
</g>
</g>
</g>

<g filter="url(#Filter_2)" transform="matrix( 1, 0, 0, 1, 0,0) ">
<g transform="matrix( 6.0197906494140625, 0.525909423828125, 1.1889801025390625, -7.865936279296875, 291.75,295.65) ">
<g transform="matrix( 1, 0, 0, 1, 0,0) ">
<use xlink:href="#leaf_0_Layer0_0_FILL"/>

<use xlink:href="#leaf_0_Layer0_0_1_STROKES"/>
</g>
</g>
</g>

<g filter="url(#Filter_3)" transform="matrix( 1, 0, 0, 1, 0,0) ">
<g transform="matrix( -4.4002838134765625, 4.2335052490234375, -4.4295196533203125, -4.063812255859375, 353.1,277.6) ">
<g transform="matrix( 1, 0, 0, 1, 0,0) ">
<use xlink:href="#leaf_0_Layer0_0_FILL"/>

<use xlink:href="#leaf_0_Layer0_0_1_STROKES"/>
</g>
</g>
</g>

<g filter="url(#Filter_4)" transform="matrix( 1, 0, 0, 1, 0,0) ">
<g transform="matrix( 5.0084686279296875, 1.8683013916015625, 2.0740814208984375, -4.739776611328125, 180.65,271.05) ">
<g transform="matrix( 1, 0, 0, 1, 0,0) ">
<use xlink:href="#leaf_0_Layer0_0_FILL"/>

<use xlink:href="#leaf_0_Layer0_0_1_STROKES"/>
</g>
</g>
</g>

<g filter="url(#Filter_5)" transform="matrix( 1, 0, 0, 1, 0,0) ">
<g transform="matrix( 2.905792236328125, 2.7677459716796875, -3.8905792236328125, 3.6099395751953125, 165.6,344.6) ">
<g transform="matrix( 1, 0, 0, 1, 0,0) ">
<use xlink:href="#leaf_0_Layer0_0_FILL"/>

<use xlink:href="#leaf_0_Layer0_0_1_STROKES"/>
</g>
</g>
</g>

<g filter="url(#Filter_6)" transform="matrix( 1, 0, 0, 1, 0,0) ">
<g transform="matrix( 2.9288787841796875, -2.8179473876953125, -2.9485015869140625, -2.7049407958984375, 202.35,392.7) ">
<g transform="matrix( 1, 0, 0, 1, 0,0) ">
<use xlink:href="#leaf_0_Layer0_0_FILL"/>

<use xlink:href="#leaf_0_Layer0_0_1_STROKES"/>
</g>
</g>
</g>

<g filter="url(#Filter_7)" transform="matrix( 1, 0, 0, 1, 0,0) ">
<g transform="matrix( -3.7576141357421875, -5.015960693359375, 5.4020843505859375, -3.6180267333984375, 444.45,321.85) ">
<g transform="matrix( 1, 0, 0, 1, 0,0) ">
<use xlink:href="#leaf_0_Layer0_0_FILL"/>

<use xlink:href="#leaf_0_Layer0_0_1_STROKES"/>
</g>
</g>
</g>

<g filter="url(#Filter_8)" transform="matrix( 1, 0, 0, 1, 0,0) ">
<g transform="matrix( -4.304840087890625, -2.4395751953125, -3.468292236328125, 5.3111114501953125, 355.5,358.6) ">
<g transform="matrix( 1, 0, 0, 1, 0,0) ">
<use xlink:href="#leaf_0_Layer0_0_FILL"/>

<use xlink:href="#leaf_0_Layer0_0_1_STROKES"/>
</g>
</g>
</g>

<g filter="url(#Filter_9)" transform="matrix( 1, 0, 0, 1, 0,0) ">
<g transform="matrix( 2.7375640869140625, -4.026763916015625, 4.237762451171875, 2.504241943359375, 285.15,332.4) ">
<g transform="matrix( 1, 0, 0, 1, 0,0) ">
<use xlink:href="#leaf_0_Layer0_0_FILL"/>

<use xlink:href="#leaf_0_Layer0_0_1_STROKES"/>
</g>
</g>
</g>

<g filter="url(#Filter_10)" transform="matrix( 1, 0, 0, 1, 0,0) ">
<g transform="matrix( -4.306304931640625, -0.6839447021484375, -0.8016510009765625, 4.059600830078125, 414.45,300.95) ">
<g transform="matrix( 1, 0, 0, 1, 0,0) ">
<use xlink:href="#leaf_0_Layer0_0_FILL"/>

<use xlink:href="#leaf_0_Layer0_0_1_STROKES"/>
</g>
</g>
</g>

<g filter="url(#Filter_11)" transform="matrix( 1, 0, 0, 1, 0,0) ">
<g transform="matrix( -2.798095703125, -1.722991943359375, 2.4439544677734375, -3.4552154541015625, 400.7,248.8) ">
<g transform="matrix( 1, 0, 0, 1, 0,0) ">
<use xlink:href="#leaf_0_Layer0_0_FILL"/>

<use xlink:href="#leaf_0_Layer0_0_1_STROKES"/>
</g>
</g>
</g>

<g transform="matrix( 0.2845001220703125, 5.4864349365234375, -7.586944580078125, 0.374603271484375, 214.55,251.95) ">
<g transform="matrix( 1, 0, 0, 1, 0,0) ">
<use xlink:href="#leaf_0_Layer0_0_FILL"/>

<use xlink:href="#leaf_0_Layer0_0_1_STROKES"/>
</g>
</g>

<g transform="matrix( 5.810638427734375, -0.387847900390625, -0.390594482421875, -5.4580078125, 204.7,334.5) ">
<g transform="matrix( 1, 0, 0, 1, 0,0) ">
<use xlink:href="#leaf_0_Layer0_0_FILL"/>

<use xlink:href="#leaf_0_Layer0_0_1_STROKES"/>
</g>
</g>

<g transform="matrix( -1.60174560546875, 4.5117645263671875, -4.7957305908203125, -1.487762451171875, 303.65,214.65) ">
<g transform="matrix( 1, 0, 0, 1, 0,0) ">
<use xlink:href="#leaf_0_Layer0_0_FILL"/>

<use xlink:href="#leaf_0_Layer0_0_1_STROKES"/>
</g>
</g>

<g transform="matrix( 0.3325042724609375, 3.642486572265625, 5.0377655029296875, -0.4239349365234375, 367.45,249.1) ">
<g transform="matrix( 1, 0, 0, 1, 0,0) ">
<use xlink:href="#leaf_0_Layer0_0_FILL"/>

<use xlink:href="#leaf_0_Layer0_0_1_STROKES"/>
</g>
</g>

<g transform="matrix( 3.8529510498046875, -0.4247589111328125, 0.401092529296875, 3.4853057861328125, 315.6,264.7) ">
<g transform="matrix( 1, 0, 0, 1, 0,0) ">
<use xlink:href="#leaf_0_Layer0_0_FILL"/>

<use xlink:href="#leaf_0_Layer0_0_1_STROKES"/>
</g>
</g>

<g transform="matrix( -1.0483551025390625, -3.8851318359375, -4.1390533447265625, 0.9999237060546875, 172.2,402.3) ">
<g transform="matrix( 1, 0, 0, 1, 0,0) ">
<use xlink:href="#leaf_0_Layer0_0_FILL"/>

<use xlink:href="#leaf_0_Layer0_0_1_STROKES"/>
</g>
</g>

<g transform="matrix( 0.7519378662109375, -4.3854827880859375, 6.0595855712890625, 0.8961029052734375, 264,385.85) ">
<g transform="matrix( 1, 0, 0, 1, 0,0) ">
<use xlink:href="#leaf_0_Layer0_0_FILL"/>

<use xlink:href="#leaf_0_Layer0_0_1_STROKES"/>
</g>
</g>

<g transform="matrix( -4.658782958984375, -0.606475830078125, -0.663299560546875, 4.3797454833984375, 286.7,321.85) ">
<g transform="matrix( 1, 0, 0, 1, 0,0) ">
<use xlink:href="#leaf_0_Layer0_0_FILL"/>

<use xlink:href="#leaf_0_Layer0_0_1_STROKES"/>
</g>
</g>

<g transform="matrix( 2.06866455078125, -3.31781005859375, 3.52325439453125, 1.930938720703125, 187.3,401.15) ">
<g transform="matrix( 1, 0, 0, 1, 0,0) ">
<use xlink:href="#leaf_0_Layer0_0_FILL"/>

<use xlink:href="#leaf_0_Layer0_0_1_STROKES"/>
</g>
</g>

<g transform="matrix( 0.385833740234375, -2.9342193603515625, -4.054840087890625, -0.4560699462890625, 142.3,363.9) ">
<g transform="matrix( 1, 0, 0, 1, 0,0) ">
<use xlink:href="#leaf_0_Layer0_0_FILL"/>

<use xlink:href="#leaf_0_Layer0_0_1_STROKES"/>
</g>
</g>

<g filter="url(#Filter_10)" transform="matrix( 1, 0, 0, 1, 0,0) ">
<g transform="matrix( -4.306304931640625, -0.6839447021484375, -0.8016510009765625, 4.059600830078125, 425.1,311.55) ">
<g transform="matrix( 1, 0, 0, 1, 0,0) ">
<use xlink:href="#leaf_0_Layer0_0_FILL"/>

<use xlink:href="#leaf_0_Layer0_0_1_STROKES"/>
</g>
</g>
</g>

<g transform="matrix( 1.7076263427734375, 0.8718109130859375, -0.8718109130859375, 1.7076263427734375, 385.1,222.35) ">
<g transform="matrix( 1, 0, 0, 1, 0,0) ">
<use xlink:href="#leaf_flower_0_Layer0_0_MEMBER_0_FILL"/>
</g>

<g transform="matrix( 0.37286376953125, 0.0980682373046875, -0.0980682373046875, 0.37286376953125, -14.4,-53.35) ">
<use xlink:href="#leaf_flower_0_Layer0_0_MEMBER_1_FILL"/>
</g>

<g transform="matrix( 1, 0, 0, 1, 0,0) ">
<use xlink:href="#leaf_flower_0_Layer0_0_MEMBER_2_FILL"/>
</g>

<g transform="matrix( 1, 0, 0, 1, 0,0) ">
<use xlink:href="#leaf_flower_0_Layer0_0_MEMBER_3_FILL"/>
</g>

<g transform="matrix( 1, 0, 0, 1, 0,0) ">
<use xlink:href="#leaf_flower_0_Layer0_0_MEMBER_4_FILL"/>
</g>

<g transform="matrix( 0.37286376953125, 0.0980682373046875, -0.0980682373046875, 0.37286376953125, -14.4,-53.35) ">
<use xlink:href="#leaf_flower_0_Layer0_0_MEMBER_5_MEMBER_0_FILL"/>
</g>

<g transform="matrix( 1, 0, 0, 1, 0,0) ">
<use xlink:href="#leaf_flower_0_Layer0_0_MEMBER_5_MEMBER_1_FILL"/>
</g>

<g transform="matrix( 0.37286376953125, 0.0980682373046875, -0.0980682373046875, 0.37286376953125, -14.4,-53.35) ">
<use xlink:href="#leaf_flower_0_Layer0_0_MEMBER_6_FILL"/>
</g>

<g transform="matrix( 0.37286376953125, 0.0980682373046875, -0.0980682373046875, 0.37286376953125, -14.4,-53.35) ">
<use xlink:href="#leaf_flower_0_Layer0_0_MEMBER_7_FILL"/>
</g>

<g transform="matrix( 1, 0, 0, 1, 0,0) ">
<use xlink:href="#leaf_flower_0_Layer0_0_MEMBER_8_FILL"/>
</g>

<g transform="matrix( 0.37286376953125, 0.0980682373046875, -0.0980682373046875, 0.37286376953125, -14.4,-53.35) ">
<use xlink:href="#leaf_flower_0_Layer0_0_MEMBER_9_FILL"/>
</g>
</g>

<g transform="matrix( 2.2539215087890625, -0.145355224609375, 0.145355224609375, 2.2539215087890625, 359.45,205.2) ">
<g transform="matrix( 1, 0, 0, 1, 0,0) ">
<use xlink:href="#leaf_flower_0_Layer0_0_MEMBER_0_FILL"/>
</g>

<g transform="matrix( 0.37286376953125, 0.0980682373046875, -0.0980682373046875, 0.37286376953125, -14.4,-53.35) ">
<use xlink:href="#leaf_flower_0_Layer0_0_MEMBER_1_FILL"/>
</g>

<g transform="matrix( 1, 0, 0, 1, 0,0) ">
<use xlink:href="#leaf_flower_0_Layer0_0_MEMBER_2_FILL"/>
</g>

<g transform="matrix( 1, 0, 0, 1, 0,0) ">
<use xlink:href="#leaf_flower_0_Layer0_0_MEMBER_3_FILL"/>
</g>

<g transform="matrix( 1, 0, 0, 1, 0,0) ">
<use xlink:href="#leaf_flower_0_Layer0_0_MEMBER_4_FILL"/>
</g>

<g transform="matrix( 0.37286376953125, 0.0980682373046875, -0.0980682373046875, 0.37286376953125, -14.4,-53.35) ">
<use xlink:href="#leaf_flower_0_Layer0_0_MEMBER_5_MEMBER_0_FILL"/>
</g>

<g transform="matrix( 1, 0, 0, 1, 0,0) ">
<use xlink:href="#leaf_flower_0_Layer0_0_MEMBER_5_MEMBER_1_FILL"/>
</g>

<g transform="matrix( 0.37286376953125, 0.0980682373046875, -0.0980682373046875, 0.37286376953125, -14.4,-53.35) ">
<use xlink:href="#leaf_flower_0_Layer0_0_MEMBER_6_FILL"/>
</g>

<g transform="matrix( 0.37286376953125, 0.0980682373046875, -0.0980682373046875, 0.37286376953125, -14.4,-53.35) ">
<use xlink:href="#leaf_flower_0_Layer0_0_MEMBER_7_FILL"/>
</g>

<g transform="matrix( 1, 0, 0, 1, 0,0) ">
<use xlink:href="#leaf_flower_0_Layer0_0_MEMBER_8_FILL"/>
</g>

<g transform="matrix( 0.37286376953125, 0.0980682373046875, -0.0980682373046875, 0.37286376953125, -14.4,-53.35) ">
<use xlink:href="#leaf_flower_0_Layer0_0_MEMBER_9_FILL"/>
</g>
</g>

<g transform="matrix( -2.9664154052734375, 0.5790863037109375, 0.1748199462890625, 2.7106781005859375, 349.4,194.9) ">
<g transform="matrix( 1, 0, 0, 1, 0,0) ">
<use xlink:href="#leaf_flower_0_Layer0_0_MEMBER_0_FILL"/>
</g>

<g transform="matrix( 0.37286376953125, 0.0980682373046875, -0.0980682373046875, 0.37286376953125, -14.4,-53.35) ">
<use xlink:href="#leaf_flower_0_Layer0_0_MEMBER_1_FILL"/>
</g>

<g transform="matrix( 1, 0, 0, 1, 0,0) ">
<use xlink:href="#leaf_flower_0_Layer0_0_MEMBER_2_FILL"/>
</g>

<g transform="matrix( 1, 0, 0, 1, 0,0) ">
<use xlink:href="#leaf_flower_0_Layer0_0_MEMBER_3_FILL"/>
</g>

<g transform="matrix( 1, 0, 0, 1, 0,0) ">
<use xlink:href="#leaf_flower_0_Layer0_0_MEMBER_4_FILL"/>
</g>

<g transform="matrix( 0.37286376953125, 0.0980682373046875, -0.0980682373046875, 0.37286376953125, -14.4,-53.35) ">
<use xlink:href="#leaf_flower_0_Layer0_0_MEMBER_5_MEMBER_0_FILL"/>
</g>

<g transform="matrix( 1, 0, 0, 1, 0,0) ">
<use xlink:href="#leaf_flower_0_Layer0_0_MEMBER_5_MEMBER_1_FILL"/>
</g>

<g transform="matrix( 0.37286376953125, 0.0980682373046875, -0.0980682373046875, 0.37286376953125, -14.4,-53.35) ">
<use xlink:href="#leaf_flower_0_Layer0_0_MEMBER_6_FILL"/>
</g>

<g transform="matrix( 0.37286376953125, 0.0980682373046875, -0.0980682373046875, 0.37286376953125, -14.4,-53.35) ">
<use xlink:href="#leaf_flower_0_Layer0_0_MEMBER_7_FILL"/>
</g>

<g transform="matrix( 1, 0, 0, 1, 0,0) ">
<use xlink:href="#leaf_flower_0_Layer0_0_MEMBER_8_FILL"/>
</g>

<g transform="matrix( 0.37286376953125, 0.0980682373046875, -0.0980682373046875, 0.37286376953125, -14.4,-53.35) ">
<use xlink:href="#leaf_flower_0_Layer0_0_MEMBER_9_FILL"/>
</g>
</g>

<g transform="matrix( 1.8649139404296875, 0.9520721435546875, -0.9520721435546875, 1.8649139404296875, 219,304.65) ">
<g transform="matrix( 1, 0, 0, 1, 0,0) ">
<use xlink:href="#leaf_flower_0_Layer0_0_MEMBER_0_FILL"/>
</g>

<g transform="matrix( 0.37286376953125, 0.0980682373046875, -0.0980682373046875, 0.37286376953125, -14.4,-53.35) ">
<use xlink:href="#leaf_flower_0_Layer0_0_MEMBER_1_FILL"/>
</g>

<g transform="matrix( 1, 0, 0, 1, 0,0) ">
<use xlink:href="#leaf_flower_0_Layer0_0_MEMBER_2_FILL"/>
</g>

<g transform="matrix( 1, 0, 0, 1, 0,0) ">
<use xlink:href="#leaf_flower_0_Layer0_0_MEMBER_3_FILL"/>
</g>

<g transform="matrix( 1, 0, 0, 1, 0,0) ">
<use xlink:href="#leaf_flower_0_Layer0_0_MEMBER_4_FILL"/>
</g>

<g transform="matrix( 0.37286376953125, 0.0980682373046875, -0.0980682373046875, 0.37286376953125, -14.4,-53.35) ">
<use xlink:href="#leaf_flower_0_Layer0_0_MEMBER_5_MEMBER_0_FILL"/>
</g>

<g transform="matrix( 1, 0, 0, 1, 0,0) ">
<use xlink:href="#leaf_flower_0_Layer0_0_MEMBER_5_MEMBER_1_FILL"/>
</g>

<g transform="matrix( 0.37286376953125, 0.0980682373046875, -0.0980682373046875, 0.37286376953125, -14.4,-53.35) ">
<use xlink:href="#leaf_flower_0_Layer0_0_MEMBER_6_FILL"/>
</g>

<g transform="matrix( 0.37286376953125, 0.0980682373046875, -0.0980682373046875, 0.37286376953125, -14.4,-53.35) ">
<use xlink:href="#leaf_flower_0_Layer0_0_MEMBER_7_FILL"/>
</g>

<g transform="matrix( 1, 0, 0, 1, 0,0) ">
<use xlink:href="#leaf_flower_0_Layer0_0_MEMBER_8_FILL"/>
</g>

<g transform="matrix( 0.37286376953125, 0.0980682373046875, -0.0980682373046875, 0.37286376953125, -14.4,-53.35) ">
<use xlink:href="#leaf_flower_0_Layer0_0_MEMBER_9_FILL"/>
</g>
</g>

<g transform="matrix( 2.461456298828125, -0.15875244140625, 0.15875244140625, 2.461456298828125, 190.7,285.6) ">
<g transform="matrix( 1, 0, 0, 1, 0,0) ">
<use xlink:href="#leaf_flower_0_Layer0_0_MEMBER_0_FILL"/>
</g>

<g transform="matrix( 0.37286376953125, 0.0980682373046875, -0.0980682373046875, 0.37286376953125, -14.4,-53.35) ">
<use xlink:href="#leaf_flower_0_Layer0_0_MEMBER_1_FILL"/>
</g>

<g transform="matrix( 1, 0, 0, 1, 0,0) ">
<use xlink:href="#leaf_flower_0_Layer0_0_MEMBER_2_FILL"/>
</g>

<g transform="matrix( 1, 0, 0, 1, 0,0) ">
<use xlink:href="#leaf_flower_0_Layer0_0_MEMBER_3_FILL"/>
</g>

<g transform="matrix( 1, 0, 0, 1, 0,0) ">
<use xlink:href="#leaf_flower_0_Layer0_0_MEMBER_4_FILL"/>
</g>

<g transform="matrix( 0.37286376953125, 0.0980682373046875, -0.0980682373046875, 0.37286376953125, -14.4,-53.35) ">
<use xlink:href="#leaf_flower_0_Layer0_0_MEMBER_5_MEMBER_0_FILL"/>
</g>

<g transform="matrix( 1, 0, 0, 1, 0,0) ">
<use xlink:href="#leaf_flower_0_Layer0_0_MEMBER_5_MEMBER_1_FILL"/>
</g>

<g transform="matrix( 0.37286376953125, 0.0980682373046875, -0.0980682373046875, 0.37286376953125, -14.4,-53.35) ">
<use xlink:href="#leaf_flower_0_Layer0_0_MEMBER_6_FILL"/>
</g>

<g transform="matrix( 0.37286376953125, 0.0980682373046875, -0.0980682373046875, 0.37286376953125, -14.4,-53.35) ">
<use xlink:href="#leaf_flower_0_Layer0_0_MEMBER_7_FILL"/>
</g>

<g transform="matrix( 1, 0, 0, 1, 0,0) ">
<use xlink:href="#leaf_flower_0_Layer0_0_MEMBER_8_FILL"/>
</g>

<g transform="matrix( 0.37286376953125, 0.0980682373046875, -0.0980682373046875, 0.37286376953125, -14.4,-53.35) ">
<use xlink:href="#leaf_flower_0_Layer0_0_MEMBER_9_FILL"/>
</g>
</g>

<g transform="matrix( -3.239593505859375, 0.63238525390625, 0.19097900390625, 2.96026611328125, 179.65,274.7) ">
<g transform="matrix( 1, 0, 0, 1, 0,0) ">
<use xlink:href="#leaf_flower_0_Layer0_0_MEMBER_0_FILL"/>
</g>

<g transform="matrix( 0.37286376953125, 0.0980682373046875, -0.0980682373046875, 0.37286376953125, -14.4,-53.35) ">
<use xlink:href="#leaf_flower_0_Layer0_0_MEMBER_1_FILL"/>
</g>

<g transform="matrix( 1, 0, 0, 1, 0,0) ">
<use xlink:href="#leaf_flower_0_Layer0_0_MEMBER_2_FILL"/>
</g>

<g transform="matrix( 1, 0, 0, 1, 0,0) ">
<use xlink:href="#leaf_flower_0_Layer0_0_MEMBER_3_FILL"/>
</g>

<g transform="matrix( 1, 0, 0, 1, 0,0) ">
<use xlink:href="#leaf_flower_0_Layer0_0_MEMBER_4_FILL"/>
</g>

<g transform="matrix( 0.37286376953125, 0.0980682373046875, -0.0980682373046875, 0.37286376953125, -14.4,-53.35) ">
<use xlink:href="#leaf_flower_0_Layer0_0_MEMBER_5_MEMBER_0_FILL"/>
</g>

<g transform="matrix( 1, 0, 0, 1, 0,0) ">
<use xlink:href="#leaf_flower_0_Layer0_0_MEMBER_5_MEMBER_1_FILL"/>
</g>

<g transform="matrix( 0.37286376953125, 0.0980682373046875, -0.0980682373046875, 0.37286376953125, -14.4,-53.35) ">
<use xlink:href="#leaf_flower_0_Layer0_0_MEMBER_6_FILL"/>
</g>

<g transform="matrix( 0.37286376953125, 0.0980682373046875, -0.0980682373046875, 0.37286376953125, -14.4,-53.35) ">
<use xlink:href="#leaf_flower_0_Layer0_0_MEMBER_7_FILL"/>
</g>

<g transform="matrix( 1, 0, 0, 1, 0,0) ">
<use xlink:href="#leaf_flower_0_Layer0_0_MEMBER_8_FILL"/>
</g>

<g transform="matrix( 0.37286376953125, 0.0980682373046875, -0.0980682373046875, 0.37286376953125, -14.4,-53.35) ">
<use xlink:href="#leaf_flower_0_Layer0_0_MEMBER_9_FILL"/>
</g>
</g>
</svg>
