
<svg xmlns="http://www.w3.org/2000/svg" version="1.1" xmlns:xlink="http://www.w3.org/1999/xlink" preserveAspectRatio="none" x="0px" y="0px" width="560px" height="544px" viewBox="0 0 560 544">
<defs>
<g id="Layer2_0_FILL">
<path fill="#669933" stroke="none" d="
M -4.6 -29.4
L -5.9 -29.75 -3.05 -5.05 -1.1 -5.35 -1.6 -8.65 -1.95 -7.6 -1.65 -8.95 -1.85 -10.25 -2.2 -10.3 -2 -11.4 -4.6 -29.4
M 0.35 -8.75
L 7.35 -32 6.35 -32.9 -1.4 -9.3 -1.2 -9.25 0.35 -8.75 Z"/>
</g>

<g id="Duplicate_Items_Folder_leaf_0_Layer0_0_FILL">
<path fill="#669933" stroke="none" d="
M 5.65 7.35
Q 5.7611328125 7.0623046875 5.85 6.75
L 2.65 3 5.65 7.35
M 2.65 3
L 0.45 0.4
Q -1.570703125 6.9611328125 5.4 7.3
L 5.6 7.4
Q 5.6 7.35 5.65 7.35
L 2.65 3 Z"/>

<path fill="#89C44D" stroke="none" d="
M 0.6 0
Q 0.5236328125 0.2212890625 0.45 0.4
L 2.65 3 5.85 6.75
Q 7.494140625 1.566796875 0.8 0
L 0.6 0 Z"/>
</g>

<g id="Duplicate_Items_Folder_flower_copy_0_Layer3_0_FILL">
<path fill="#261E8C" stroke="none" d="
M -6.05 -4.3
Q -8.3 -5.1 -10.15 -4.2 -12.15 -3.05 -12.55 0.95 -12.7 4.6 -11.7 6.7 -10.8 8.85 -10.2 11.2 -9.7 13.5 -9.05 12.6 -8.45 11.75 -8.85 9.2 -9.25 6.7 -6.3 5 -3.4 3.2 -2.55 0.85 -1.7 -1.5 -2.45 -2.55 -3.25 -3.65 -4.1 -3.85 -4.85 -4.05 -6.05 -4.3 Z"/>

<path fill="#231F4E" stroke="none" d="
M 5.1 -5.4
Q 3.35 -4.45 2.75 -2.15 2.3 -0.95 2.05 -0.2 1.7 0.65 2.1 1.95 2.5 3.25 4.85 4.1 7.1 4.9 10.1 3.7 13.1 2.35 14.85 4.35 16.55 6.25 17.55 6.35 18.6 6.4 17.1 4.5 15.65 2.45 14.5 0.35 13.35 -1.85 10.4 -4.1 7.1 -6.35 5.1 -5.4 Z"/>
</g>

<g id="Duplicate_Items_Folder_flower_copy_0_Layer2_0_FILL">
<path fill="#231F4E" stroke="none" d="
M 0.65 13.8
Q 1.6484375 16.606640625 1.65 16.75 1.700390625 16.9427734375 2.25 14.5 2.7994140625 12.10703125 4.4 10.05 6.05 7.9974609375 6.45 4.6 6.85 0.9 4.5 0.05 2.4 -0.75 -0.55 0.05 -2 0.4 -3.05 1.15 -3.85 1.9 -4.55 2.9 -5.948828125 4.9951171875 -5.65 6.05 -5.30390625 7.1646484375 -2.85 9.1 -0.3462890625 11.034765625 0.65 13.8 Z"/>

<path fill="#261E8C" stroke="none" d="
M 6.2 -4.6
Q 7.1 -4.35 9.65 -5 12.05 -5.55 14.8 -4.95 17.3 -4.35 17.5 -4.3 17.65 -4.25 15.85 -5.55 14.1 -6.9 12.95 -8.75 11.9 -10.5 9.35 -12.25 6.4 -13.95 4.8 -12.95 3.4 -12.1 3.05 -10.1 2.8 -9.05 3.05 -8.2 3.4 -7.4 4 -6.6 5.15 -4.9 6.2 -4.6 Z"/>
</g>

<g id="Duplicate_Items_Folder_flower_copy_0_Layer1_0_FILL">
<path fill="#990000" stroke="none" d="
M 7.1 -2.85
Q 6.4583984375 -5.762109375 4.3 -7.55 2.131640625 -9.2771484375 0.4 -8.75 -1.333203125 -8.2330078125 -2.95 -6.8 -4.50546875 -5.3060546875 -5 -2.95 -5.5 -0.6 -3.7 1.15 -1.9515625 2.8994140625 0.85 3.05 3.704296875 3.251171875 5.75 1.65 7.7955078125 0.1009765625 7.1 -2.85
M 2.75 -6.5
Q 4.2 -5.35 2.25 -5.55 0.3 -5.75 -1.1 -4.65 -2.45 -3.6 -1.95 -1.6 -1.45 0.45 -2.6 -0.7 -3.8 -1.9 -3.5 -3.45 -3.15 -5.05 -2.05 -6 -1.05 -7 0.15 -7.35 1.3 -7.7 2.75 -6.5 Z"/>

<path fill="#CC0000" stroke="none" d="
M 2.25 -5.55
Q 4.2 -5.35 2.75 -6.5 1.3 -7.7 0.15 -7.35 -1.05 -7 -2.05 -6 -3.15 -5.05 -3.5 -3.45 -3.8 -1.9 -2.6 -0.7 -1.45 0.45 -1.95 -1.6 -2.45 -3.6 -1.1 -4.65 0.3 -5.75 2.25 -5.55 Z"/>
</g>

<g id="Duplicate_Items_Folder_flower_copy_0_Layer0_0_FILL">
<path fill="#362B9B" stroke="none" d="
M 2.75 -12.35
Q 2.05 -13.25 1.2 -13.8 0 -14.4 -1.6 -14.45 -4.95 -14.9 -7.45 -13.85 -10.3 -12.8 -10.15 -9.35 -9.95 -6.25 -8.2 -4.55 -6.55 -2.85 -6.05 -0.55 -5.65 1.6 -5.55 1.4 -5.5 1.25 -4.2 -1.45 -2.75 -4.2 0.25 -6.35 3.25 -8.4 3.75 -9.5 4.25 -10.6 2.75 -12.35 Z"/>
</g>

<path id="Layer2_0_1_STROKES" stroke="#000000" stroke-width="1" stroke-linejoin="round" stroke-linecap="round" fill="none" d="
M -1.4 -9.3
L 6.35 -32.9 7.35 -32 0.35 -8.75 -1.2 -9.25
M -1.4 -9.3
L -1.6 -8.65 -1.1 -5.35 -3.05 -5.05 -5.9 -29.75 -4.6 -29.4 -2 -11.4 -2.2 -10.3 -1.85 -10.25 -1.65 -8.925 -1.6 -8.65 -1.95 -7.6"/>

<path id="Duplicate_Items_Folder_leaf_0_Layer0_0_1_STROKES" stroke="#000000" stroke-width="0.5" stroke-linejoin="round" stroke-linecap="round" fill="none" d="
M 0.45 0.425
Q 0.5236328125 0.2212890625 0.6 0
L 0.8 0
Q 7.494140625 1.566796875 5.85 6.775 5.7611328125 7.0623046875 5.65 7.35 5.6 7.35 5.6 7.4
L 5.4 7.3
Q -1.570703125 6.9611328125 0.45 0.425 Z
M 2.65 3.025
L 5.65 7.35"/>

<path id="Duplicate_Items_Folder_flower_copy_0_Layer3_0_1_STROKES" stroke="#000000" stroke-width="2" stroke-linejoin="round" stroke-linecap="round" fill="none" d="
M 2.75 -2.15
Q 2.3 -0.95 2.05 -0.2 1.7 0.65 2.1 1.95 2.5 3.25 4.85 4.1 7.1 4.9 10.1 3.7 13.1 2.35 14.85 4.35 16.55 6.25 17.55 6.35 18.6 6.4 17.1 4.5 15.65 2.45 14.5 0.35 13.35 -1.85 10.4 -4.1 7.1 -6.35 5.1 -5.4 3.35 -4.45 2.75 -2.15 Z
M -6.05 -4.3
Q -4.85 -4.05 -4.1 -3.85 -3.25 -3.65 -2.45 -2.55 -1.7 -1.5 -2.55 0.85 -3.4 3.2 -6.3 5 -9.25 6.7 -8.85 9.2 -8.45 11.75 -9.05 12.6 -9.7 13.5 -10.2 11.2 -10.8 8.85 -11.7 6.7 -12.7 4.6 -12.55 0.95 -12.15 -3.05 -10.15 -4.2 -8.3 -5.1 -6.05 -4.3 Z"/>

<path id="Duplicate_Items_Folder_flower_copy_0_Layer2_0_1_STROKES" stroke="#000000" stroke-width="2" stroke-linejoin="round" stroke-linecap="round" fill="none" d="
M 9.65 -5
Q 12.05 -5.55 14.8 -4.95 17.3 -4.35 17.5 -4.3 17.65 -4.25 15.85 -5.55 14.1 -6.9 12.95 -8.75 11.9 -10.5 9.35 -12.25 6.4 -13.95 4.8 -12.95 3.4 -12.1 3.05 -10.1 2.8 -9.05 3.05 -8.2 3.4 -7.4 4 -6.6 5.15 -4.9 6.2 -4.6 7.1 -4.35 9.65 -5 Z
M 1.675 16.775
Q 1.700390625 16.9427734375 2.25 14.525 2.7994140625 12.10703125 4.425 10.05 6.05 7.9974609375 6.45 4.6 6.85 0.9 4.5 0.05 2.4 -0.75 -0.55 0.05 -2 0.4 -3.05 1.15 -3.85 1.9 -4.55 2.9 -5.948828125 4.9951171875 -5.625 6.075 -5.30390625 7.1646484375 -2.825 9.1 -0.3462890625 11.034765625 0.65 13.825 1.6484375 16.606640625 1.675 16.775 Z"/>

<path id="Duplicate_Items_Folder_flower_copy_0_Layer1_0_1_STROKES" stroke="#000000" stroke-width="2" stroke-linejoin="round" stroke-linecap="round" fill="none" d="
M 7.125 -2.825
Q 7.7955078125 0.1009765625 5.75 1.675 3.704296875 3.251171875 0.875 3.075 -1.9515625 2.8994140625 -3.7 1.15 -5.5 -0.6 -5 -2.95 -4.50546875 -5.3060546875 -2.925 -6.775 -1.333203125 -8.2330078125 0.4 -8.75 2.131640625 -9.2771484375 4.3 -7.525 6.4583984375 -5.762109375 7.125 -2.825 Z"/>

<path id="Duplicate_Items_Folder_flower_copy_0_Layer0_0_1_STROKES" stroke="#000000" stroke-width="2" stroke-linejoin="round" stroke-linecap="round" fill="none" d="
M 0.25 -6.35
Q -2.75 -4.2 -4.2 -1.45 -5.5 1.25 -5.55 1.4 -5.65 1.6 -6.05 -0.55 -6.55 -2.85 -8.2 -4.55 -9.95 -6.25 -10.15 -9.35 -10.3 -12.8 -7.45 -13.85 -4.95 -14.9 -1.6 -14.45 0 -14.4 1.2 -13.8 2.05 -13.25 2.75 -12.35 4.25 -10.6 3.75 -9.5 3.25 -8.4 0.25 -6.35 Z"/>
</defs>

<g transform="matrix( 11.470443725585938, 0, 0, 10.829605102539062, 284.65,473.45) ">
<g transform="matrix( 1, 0, 0, 1, 0,0) ">
<use xlink:href="#Layer2_0_FILL"/>

<use xlink:href="#Layer2_0_1_STROKES"/>
</g>

<g transform="matrix( 2.0651702880859375, 0, 0, 2.220458984375, -14.75,-14.1) ">
<g transform="matrix( 1, 0, 0, 1, 0,0) ">
<use xlink:href="#Duplicate_Items_Folder_leaf_0_Layer0_0_FILL"/>

<use xlink:href="#Duplicate_Items_Folder_leaf_0_Layer0_0_1_STROKES"/>
</g>
</g>

<g transform="matrix( -1.7933349609375, 0, 0, 1.8261566162109375, 7.6,-11.55) ">
<g transform="matrix( 1, 0, 0, 1, 0,0) ">
<use xlink:href="#Duplicate_Items_Folder_leaf_0_Layer0_0_FILL"/>

<use xlink:href="#Duplicate_Items_Folder_leaf_0_Layer0_0_1_STROKES"/>
</g>
</g>

<g transform="matrix( -0.0540313720703125, -1.3304901123046875, 1.3304901123046875, -0.0540313720703125, -14.2,-16.6) ">
<g transform="matrix( 1, 0, 0, 1, 0,0) ">
<use xlink:href="#Duplicate_Items_Folder_leaf_0_Layer0_0_FILL"/>

<use xlink:href="#Duplicate_Items_Folder_leaf_0_Layer0_0_1_STROKES"/>
</g>
</g>

<g transform="matrix( -0.282958984375, 1.3021240234375, 1.3021240234375, 0.282958984375, 6.95,-27.2) ">
<g transform="matrix( 1, 0, 0, 1, 0,0) ">
<use xlink:href="#Duplicate_Items_Folder_leaf_0_Layer0_0_FILL"/>

<use xlink:href="#Duplicate_Items_Folder_leaf_0_Layer0_0_1_STROKES"/>
</g>
</g>

<g transform="matrix( 1.31024169921875, -0.8798828125, 0.8798828125, 1.31024169921875, -17.45,-38.4) ">
<g transform="matrix( 1, 0, 0, 1, 0,0) ">
<use xlink:href="#Duplicate_Items_Folder_leaf_0_Layer0_0_FILL"/>

<use xlink:href="#Duplicate_Items_Folder_leaf_0_Layer0_0_1_STROKES"/>
</g>
</g>

<g transform="matrix( 0.404266357421875, 0.245849609375, -0.245849609375, 0.404266357421875, -7,-33) ">
<g transform="matrix( 1, 0, 0, 1, 0,0) ">
<use xlink:href="#Duplicate_Items_Folder_flower_copy_0_Layer3_0_FILL"/>

<use xlink:href="#Duplicate_Items_Folder_flower_copy_0_Layer3_0_1_STROKES"/>
</g>

<g transform="matrix( 1, 0, 0, 1, 0,0) ">
<use xlink:href="#Duplicate_Items_Folder_flower_copy_0_Layer2_0_FILL"/>

<use xlink:href="#Duplicate_Items_Folder_flower_copy_0_Layer2_0_1_STROKES"/>
</g>

<g transform="matrix( 1, 0, 0, 1, 0,0) ">
<use xlink:href="#Duplicate_Items_Folder_flower_copy_0_Layer1_0_FILL"/>

<use xlink:href="#Duplicate_Items_Folder_flower_copy_0_Layer1_0_1_STROKES"/>
</g>

<g transform="matrix( 1, 0, 0, 1, 0,0) ">
<use xlink:href="#Duplicate_Items_Folder_flower_copy_0_Layer0_0_FILL"/>

<use xlink:href="#Duplicate_Items_Folder_flower_copy_0_Layer0_0_1_STROKES"/>
</g>
</g>

<g transform="matrix( 0.340576171875, 0.207122802734375, -0.207122802734375, 0.340576171875, -5.25,-19.9) ">
<g transform="matrix( 1, 0, 0, 1, 0,0) ">
<use xlink:href="#Duplicate_Items_Folder_flower_copy_0_Layer3_0_FILL"/>

<use xlink:href="#Duplicate_Items_Folder_flower_copy_0_Layer3_0_1_STROKES"/>
</g>

<g transform="matrix( 1, 0, 0, 1, 0,0) ">
<use xlink:href="#Duplicate_Items_Folder_flower_copy_0_Layer2_0_FILL"/>

<use xlink:href="#Duplicate_Items_Folder_flower_copy_0_Layer2_0_1_STROKES"/>
</g>

<g transform="matrix( 1, 0, 0, 1, 0,0) ">
<use xlink:href="#Duplicate_Items_Folder_flower_copy_0_Layer1_0_FILL"/>

<use xlink:href="#Duplicate_Items_Folder_flower_copy_0_Layer1_0_1_STROKES"/>
</g>

<g transform="matrix( 1, 0, 0, 1, 0,0) ">
<use xlink:href="#Duplicate_Items_Folder_flower_copy_0_Layer0_0_FILL"/>

<use xlink:href="#Duplicate_Items_Folder_flower_copy_0_Layer0_0_1_STROKES"/>
</g>
</g>

<g transform="matrix( 0.3302001953125, 0.2232513427734375, -0.2232513427734375, 0.3302001953125, 6.25,-27) ">
<g transform="matrix( 1, 0, 0, 1, 0,0) ">
<use xlink:href="#Duplicate_Items_Folder_flower_copy_0_Layer3_0_FILL"/>

<use xlink:href="#Duplicate_Items_Folder_flower_copy_0_Layer3_0_1_STROKES"/>
</g>

<g transform="matrix( 1, 0, 0, 1, 0,0) ">
<use xlink:href="#Duplicate_Items_Folder_flower_copy_0_Layer2_0_FILL"/>

<use xlink:href="#Duplicate_Items_Folder_flower_copy_0_Layer2_0_1_STROKES"/>
</g>

<g transform="matrix( 1, 0, 0, 1, 0,0) ">
<use xlink:href="#Duplicate_Items_Folder_flower_copy_0_Layer1_0_FILL"/>

<use xlink:href="#Duplicate_Items_Folder_flower_copy_0_Layer1_0_1_STROKES"/>
</g>

<g transform="matrix( 1, 0, 0, 1, 0,0) ">
<use xlink:href="#Duplicate_Items_Folder_flower_copy_0_Layer0_0_FILL"/>

<use xlink:href="#Duplicate_Items_Folder_flower_copy_0_Layer0_0_1_STROKES"/>
</g>
</g>
</g>
</svg>
