
<svg xmlns="http://www.w3.org/2000/svg" version="1.1" xmlns:xlink="http://www.w3.org/1999/xlink" preserveAspectRatio="none" x="0px" y="0px" width="560px" height="544px" viewBox="0 0 560 544">
<defs>
<filter id="Filter_1" x="-20%" y="-20%" width="140%" height="140%" color-interpolation-filters="sRGB">
<feColorMatrix in="SourceGraphic" type="matrix" values="0.58 0 0 0 0 0 0.58 0 0 0 0 0 0.58 0 0 0 0 0 1 0" result="result1"/>
</filter>

<filter id="Filter_2" x="-20%" y="-20%" width="140%" height="140%" color-interpolation-filters="sRGB">
<feColorMatrix in="SourceGraphic" type="matrix" values="0.87 0 0 0 0 0 0.87 0 0 0 0 0 0.87 0 0 0 0 0 1 0" result="result1"/>
</filter>

<g id="Duplicate_Items_Folder_foot_copy_10_0_Layer4_0_FILL">
<path fill="#E1E1E1" stroke="none" d="
M -30.35 -3
L -30.2 -3
Q -27.4 -6.35 -22.5 -9.1 -22.9 -9.45 -23.2 -9.9 -27.95 -7.35 -30.35 -3 Z"/>
</g>

<g id="Duplicate_Items_Folder_foot_copy_10_0_Layer3_0_FILL">
<path fill="#E1E1E1" stroke="none" d="
M -20.75 -6.6
Q -24.7677734375 -4.1755859375 -27.25 -0.75 -28.31640625 0.7791015625 -29.1 2.5
L -28.85 2.5
Q -27.7384765625 0.978125 -26.3 -0.5 -23.5650390625 -3.249609375 -19.65 -5.75 -20.1 -6.15 -20.75 -6.6 Z"/>
</g>

<g id="Duplicate_Items_Folder_foot_copy_10_0_Layer2_0_FILL">
<path fill="#E1E1E1" stroke="none" d="
M -24.2 4
Q -24.0748046875 3.823828125 -23.95 3.65 -24.1732421875 3.7126953125 -24.4 3.75 -24.4759765625 3.9345703125 -24.55 4.1
L -24.2 4
M -14.9 -6.55
Q -15.4900390625 -6.193359375 -16.05 -5.85 -15.9453125 -4.9560546875 -15.95 -4.05 -14.8046875 -4.8466796875 -13.55 -5.65 -14.2 -6 -14.9 -6.55 Z"/>

<path fill="#000000" stroke="none" d="
M -23.45 -10.8
Q -30.1115234375 -7.0529296875 -33 -2.4 -34.917578125 0.763671875 -35.1 4.35 -29.0369140625 4.963671875 -24.4 3.75 -24.1732421875 3.7126953125 -23.95 3.65 -21.3443359375 2.919140625 -19.2 1.6 -17.6255859375 0.6345703125 -16.3 -0.65 -15.9658203125 -2.432421875 -15.95 -4.05 -15.9453125 -4.9560546875 -16.05 -5.85 -16.4859375 -9.40546875 -18.85 -11.8
L -23.45 -10.8
M -21.1 -7.85
Q -25.930859375 -4.7568359375 -29.2 -1.3 -30.621875 0.214453125 -31.75 1.8
L -32.1 1.9
Q -31.277734375 0.060546875 -30.2 -1.6 -27.2826171875 -5.8287109375 -22.45 -8.75 -21.75 -8.2 -21.1 -7.85 Z"/>
</g>

<g id="Duplicate_Items_Folder_foot_copy_10_0_Layer1_0_FILL">
<path fill="#526F33" stroke="none" d="
M 39.4 9.5
Q 13.098828125 10.1880859375 1.8 1.85 -0.5982421875 2.741796875 -2.7 3.35 -5.6529296875 4.2111328125 -8 4.5 -8.462890625 4.5638671875 -8.9 4.6 -13.893359375 4.998828125 -15.85 2.55 -17.367578125 0.7146484375 -17.1 -2.8
L -21.4 2.5 -28.1 3.35 -13.95 9.55
Q -11.8017578125 10.060546875 -9.8 10.35 -1.3453125 11.5833984375 4.75 9
L 29.6 15
Q 39.8783203125 20.2474609375 39.4 9.5 Z"/>

<path fill="#5E893E" stroke="none" d="
M 14.2 -5.6
Q 14.2 -5.4353515625 14.2 -5.3 14.2412109375 -5.2765625 14.25 -5.25
L 14.25 -5.3
Q 14.258984375 -5.4177734375 14.3 -5.5 14.25 -5.6 14.2 -5.6
M 18.9 -50.1
L 17.95 -50.8
Q 11.6 -47.25 8.3 -43.2 7.2 -41.85 6.45 -40.45 5.05 -37.9 4.85 -35.1 3.5 -29.05 6.1 -22.8 6.45 -22.05 6.8 -21.3 7.65 -19.5 8.85 -17.7 9.65 -16.45 10.65 -15.25 9.85 -14.5 9.4 -13.7 8.3 -11.95 8.8 -10.35 9.1 -8.3 11.9 -6.65 12.6 -6.25 13.4 -5.9 13.8 -5.75 14.2 -5.6 14.25 -5.6 14.3 -5.5 14.258984375 -5.4177734375 14.25 -5.3
L 14.25 -5.25
Q 14.2412109375 -5.2765625 14.2 -5.3 14.2 -5.4353515625 14.2 -5.6 13.8 -5.75 13.4 -5.9 12.6 -6.25 11.9 -6.65 11.9388671875 -6.3005859375 12 -5.95
L 11.9 -6
Q 12.0072265625 -5.5306640625 12.1 -5.1 12.3134765625 -4.2837890625 12.6 -3.5 12.74453125 -3.083984375 12.9 -2.7
L 0.1 -6.65
Q -0.5412109375 -7.9142578125 -1.35 -9 -2.2033203125 -10.15234375 -3.25 -11.1 -6.511328125 -14.062109375 -11.6 -14.9 -15.6681640625 -14.510546875 -18.15 -13.9 -25.1984375 -12.089453125 -19.1 -8.35
L -17.1 -2.8
Q -17.367578125 0.7146484375 -15.85 2.55 -13.893359375 4.998828125 -8.9 4.6 -8.462890625 4.5638671875 -8 4.5 -5.6529296875 4.2111328125 -2.7 3.35 -0.5982421875 2.741796875 1.8 1.85 13.098828125 10.1880859375 39.4 9.5 39.4505859375 6.039453125 34.5 2.45
L 28.3 -1.2 28.1 -1.25
Q 28.1361328125 -0.8525390625 28.15 -0.45 28.1361328125 -0.8525390625 28.1 -1.25 28.1138671875 -2.2748046875 28.15 -3.25
L 27.8 -3.35
Q 27.55 -2.6 27.45 -1.65 27.55 -2.6 27.8 -3.35 27.9 -3.9 28.15 -4.35 31.5 -4.6 34.35 -5.35 40.1 -6.85 43.7 -10.2 45.1 -11.45 46.15 -13 52.1 -19.4 52.9 -27.55
L 47.8 -30.9
Q 46.45 -26.3 42.6 -22.45 38.3 -16.75 28.1 -16
L 28.1 -15.95 19.2 -17.6
Q 18.8 -18.1 18.4 -18.65 17.55 -19.8 16.8 -20.9 8.2 -33.1 9.7 -39.2
L 9.65 -39.2 9.75 -39.45
Q 10.7 -45.4 18.9 -50.1 Z"/>

<path fill="#B69769" stroke="none" d="
M 9.75 -39.45
L 9.65 -39.2 9.7 -39.2
Q 9.7 -39.3 9.75 -39.45 Z"/>

<path fill="#89B45C" stroke="none" d="
M 20.35 -50.95
Q 19.65 -50.5 18.9 -50.1 10.7 -45.4 9.75 -39.45 9.7 -39.3 9.7 -39.2 8.2 -33.1 16.8 -20.9 17.55 -19.8 18.4 -18.65 18.8 -18.1 19.2 -17.6
L 28.1 -15.95 28.1 -16
Q 38.3 -16.75 42.6 -22.45 46.45 -26.3 47.8 -30.9 48.1 -32.1 44.6 -36.25 39.477734375 -35.5544921875 38.65 -41.05 37.8255859375 -46.5357421875 33.6 -47 29.422265625 -47.4216796875 28.5 -48.8 27.62578125 -50.1203125 20.35 -50.95
M 19.5 -40.6
Q 20.25 -39.05 19.95 -37.25 19.75 -35.35 18.55 -34.3 17.5 -33.1 16.25 -33.35 14.95 -33.6 14.2 -35.05 13.6 -36.6 13.8 -38.5 14.1 -40.35 15.15 -41.45 16.25 -42.5 17.5 -42.35 18.8 -42.1 19.5 -40.6 Z"/>

<path fill="#B4CE97" stroke="none" d="
M 19.95 -37.25
Q 20.25 -39.05 19.5 -40.6 18.8 -42.1 17.5 -42.35 16.25 -42.5 15.15 -41.45 14.1 -40.35 13.8 -38.5 13.6 -36.6 14.2 -35.05 14.95 -33.6 16.25 -33.35 17.5 -33.1 18.55 -34.3 19.75 -35.35 19.95 -37.25 Z"/>
</g>

<g id="Duplicate_Items_Folder_foot_copy_10_0_Layer0_0_FILL">
<path fill="#6C6CCE" stroke="none" d="
M 25.45 -8.35
Q 26.45 -8.45 27 -9.05 27.5 -9.5 27.25 -10.05 27.15 -10.65 26.2 -11 25.45 -11.15 24.65 -11.1 24.5 -11.1 24.3 -11.1 23.4 -10.8 22.7 -10.45 22.15 -9.95 22.45 -9.3 22.7 -8.7 23.5 -8.5 23.8 -8.35 24.15 -8.3 24.75 -8.15 25.4 -8.35
L 25.45 -8.35
M 20.6 -25.65
Q 20.45 -25.65 20.35 -25.6 19.5 -25.1 19.35 -24.15 19.4 -23.3 20 -22.45 20.15 -22.15 20.4 -22.05 21 -21.65 21.75 -21.5 22.85 -21.3 23.5 -21.85 24.35 -22.4 24.4 -23.25 24.6 -24.2 23.85 -24.95 23.1 -25.7 22.1 -25.8 21.15 -26.05 20.6 -25.65 Z"/>

<path fill="#89B45C" stroke="none" d="
M 26.45 -21.1
Q 26.35 -21.1 26.25 -21.1 25.5 -21.1 24.6 -20.65 23.85 -20.1 23.5 -19.4 23.25 -18.75 23.75 -18.25 24.2 -17.6 25 -17.6 25.45 -17.6 25.9 -17.7 26.3 -17.95 26.7 -18.25 27.4 -18.75 27.7 -19.45 28.1 -20.1 27.7 -20.75 27.25 -21.05 26.45 -21.1
M 31.85 -13.35
Q 31.35 -13.5 30.8 -13.45 30.4 -13.25 30.05 -13.05 29.8 -12.65 29.95 -12.25 30.2 -11.8 30.65 -11.6 31.15 -11.35 31.6 -11.45 32.15 -11.45 32.4 -11.8 32.6 -12.25 32.45 -12.7 32.4 -13.05 31.85 -13.35
M 32.65 -15.55
Q 32.9 -14.8 33.6 -14.4 34.45 -13.85 35.35 -14.15 35.55 -14.15 35.7 -14.1 36.35 -14.3 36.8 -14.9 37.3 -15.55 37 -16.3 36.8 -17.1 35.8 -17.5 35.05 -17.9 34.1 -17.6
L 34 -17.6
Q 33.15 -17.5 32.8 -16.95 32.3 -16.3 32.65 -15.55 Z"/>

<path fill="#5E893E" stroke="none" d="
M 31.4 -29.7
Q 31.55 -29.05 32.4 -28.6 32.95 -28.15 33.75 -28.15 34.5 -28.15 35 -28.75 35.35 -29.35 35.25 -29.9 35.1 -30.55 34.4 -31.05 33.6 -31.45 32.95 -31.3 32.1 -31.25 31.7 -30.85 31.3 -30.4 31.4 -29.7 Z"/>

<path fill="#3C3CB3" stroke="none" d="
M 28.15 -27
Q 27.7 -26.7 27.4 -26.35 27.05 -25.9 27 -25.25 27 -24.8 27.05 -24.45 27.2 -23.95 27.6 -23.55 28.4 -22.6 29.55 -22.5 30.8 -22.2 31.7 -22.85 32.7 -23.55 32.9 -24.5 33 -25.55 32.2 -26.35 31.5 -27.15 30.3 -27.35 29.15 -27.55 28.15 -27 Z"/>
</g>

<g id="Duplicate_Items_Folder_arm__copy_5_0_Layer0_0_FILL">
<path fill="#709339" stroke="none" d="
M -3.55 -20.3
L -1.1 -19.95
Q -3.2119140625 -22.7396484375 -6 -24.45
L -7.75 -24.5
Q -7.55 -22.45 -5.8 -20.85 -5.4 -20.8 -5.05 -20.8 -4.1564453125 -20.6404296875 -3.55 -20.3
M -24.9 -39.3
Q -26 -38.35 -27.1 -37
L -24.8 -29.7
Q -25.25 -28.35 -25.5 -26.8 -26 -23.75 -23.75 -21.3 -21.5 -18.9 -17.5 -19.35 -13.5 -19.85 -11.65 -21.1
L -6.95 -20.9
Q -9.45 -21.8 -9.95 -23.5 -9.45 -21.8 -6.95 -20.9
L -6.25 -20.85
Q -6.05 -20.9 -5.8 -20.85 -7.55 -22.45 -7.75 -24.5
L -17 -22.7
Q -24.15 -21.25 -23.3 -29.7
L -24.9 -39.3 Z"/>

<path fill="#C10202" stroke="none" d="
M -1.1 -19.95
L -3.55 -20.3
Q -3.1712890625 -20.0712890625 -2.9 -19.8 -2.1 -19.05 -1.15 -17.15
L -0.3 -15.45
Q -0.15 -15.45 0 -15.55 -0.0265625 -18.33984375 -1.1 -19.95 Z"/>

<path fill="#F40202" stroke="none" d="
M 1.95 -30.7
Q 4.362109375 -27.430078125 3.35 -25 0.2140625 -25.51875 -0.25 -23.9
L -0.5 -20.95 -1.1 -19.95
Q -0.0265625 -18.33984375 0 -15.55 2.4 -16.7 1.65 -22.5 5.05 -22.65 8.25 -20.55 7.4 -24.3 5.1 -27.3
L 3.8 -28.8 5.1 -27.3
Q 7.1 -29.4 9.75 -29.55 9.34296875 -31.2888671875 7.05 -33 2.348046875 -33.0486328125 1.95 -30.7
M 1.6 -28
Q 1.6 -28.6 1.35 -29 1.1 -29.4 0.8 -29.4 0.55 -29.4 0.3 -29 0.05 -28.6 0.05 -28 0.1 -27.35 0.35 -26.95 0.6 -26.55 0.85 -26.55 0.9115234375 -26.55 0.95 -26.6 1.014453125 -26.385546875 1.15 -26.25 1.35 -26 1.65 -26 1.95 -26 2.15 -26.25 2.35 -26.45 2.35 -26.8 2.35 -27.1 2.15 -27.35 1.95 -27.55 1.65 -27.55
L 1.6 -27.55
Q 1.61875 -27.7564453125 1.6 -28 Z"/>

<path fill="#7DAC42" stroke="none" d="
M 7.05 -33
Q 6.27734375 -33.56484375 5.25 -34.15 1.35 -36.35 -3.65 -34.8 -8.5 -33.3 -13.55 -31.15 -15.05 -28.85 -14.25 -26.4 -15.05 -28.85 -13.55 -31.15 -13.75 -31.15 -13.8 -31.1 -17.25 -29.45 -17.35 -27.05 -17.25 -29.45 -13.8 -31.1
L -12.9 -35.55 -11.7 -37.5
Q -10.65 -39.95 -11.35 -42.2 -11.4 -42.4 -11.45 -42.5 -19.05 -44.55 -24.9 -39.3
L -23.3 -29.7
Q -24.15 -21.25 -17 -22.7
L -7.75 -24.5
Q -7.85 -24.9 -7.8 -25.3 -7.85 -24.9 -7.75 -24.5
L -6 -24.45
Q -3.2119140625 -22.7396484375 -1.1 -19.95
L -0.5 -20.95 -0.25 -23.9
Q 0.2140625 -25.51875 3.35 -25 4.362109375 -27.430078125 1.95 -30.7 2.348046875 -33.0486328125 7.05 -33
M 1.35 -29
Q 1.6 -28.6 1.6 -28 1.61875 -27.7564453125 1.6 -27.55
L 1.65 -27.55
Q 1.95 -27.55 2.15 -27.35 2.35 -27.1 2.35 -26.8 2.35 -26.45 2.15 -26.25 1.95 -26 1.65 -26 1.35 -26 1.15 -26.25 1.014453125 -26.385546875 0.95 -26.6 0.9115234375 -26.55 0.85 -26.55 0.6 -26.55 0.35 -26.95 0.1 -27.35 0.05 -28 0.05 -28.6 0.3 -29 0.55 -29.4 0.8 -29.4 1.1 -29.4 1.35 -29 Z"/>
</g>

<g id="body_side_0_Layer6_0_FILL">
<path fill="#5E803C" stroke="none" d="
M 24.85 -89.45
L 21.05 -93.4
Q 21.3 -92.2 21.4 -91.15
L 18.55 -90.2 19.05 -87.2 24.85 -89.45
M 20.4 -102.8
L 18.75 -105.7
Q 19.45 -103.05 20.15 -93.8
L 20.4 -102.8
M 42.35 -170.95
L 45 -171.35 46.15 -173.6
Q 44.1 -180.5 37.35 -188.15 36.4 -184.95 35.35 -181.9 34.95 -180.9 34.65 -179.95 23.8 -149.4 2.8 -129.65 2.1 -128.9 1.35 -128.3 5.8 -118 8.35 -107 9.8 -100.95 10.75 -94.6 11.65 -88.35 11.95 -81.85
L 11.9 -81.2 17.5 -80.55 18.55 -87.05 14.3 -85.45 14.4 -86.15
Q 14.15 -90.6 13.6 -94.95 12.7 -102 11.15 -108.65 9.4 -115.8 6.9 -122.6 5.95 -125.15 4.9 -127.65 24.65 -145.55 34.7 -173.95 36 -177.55 37.05 -181.3 40.4 -177.55 40 -165.1 41.25 -168 42.25 -170.95
L 42.35 -170.95 Z"/>

<path fill="#AAC98B" stroke="none" d="
M 12.55 -124.65
L 6.9 -122.6
Q 9.4 -115.8 11.15 -108.65 12.7 -102 13.6 -94.95 14.15 -90.6 14.4 -86.15
L 14.3 -85.45 18.55 -87.05 19.3 -84.95 19.05 -87.2 18.55 -90.2 21.4 -91.15
Q 21.3 -92.2 21.05 -93.4 20.65 -97.1 20.15 -93.8 19.45 -103.05 18.75 -105.7 16.55 -115.5 12.55 -124.65 Z"/>

<path fill="#93BC54" stroke="none" d="
M 40 -165.1
Q 40.4 -177.55 37.05 -181.3 36 -177.55 34.7 -173.95 24.65 -145.55 4.9 -127.65 5.95 -125.15 6.9 -122.6
L 12.55 -124.65
Q 30.15 -140.8 40 -165.1 Z"/>

<path fill="#7DAC42" stroke="none" d="
M 42.35 -170.95
L 42.25 -170.95
Q 41.25 -168 40 -165.1 40 -163.5 39.85 -161.65 42.1 -170.15 42.35 -170.95
M 46.6 -171.6
Q 46.45 -172.55 46.15 -173.6
L 45 -171.35 46.6 -171.6 Z"/>

<path fill="#789E3F" stroke="none" d="
M 46.45 -163.8
Q 47.35 -167.6 46.6 -171.6
L 45 -171.35 42.35 -170.95
Q 42.1 -170.15 39.85 -161.65 40 -163.5 40 -165.1 30.15 -140.8 12.55 -124.65 16.55 -115.5 18.75 -105.7
L 20.4 -102.8
Q 27.5 -94.35 45.15 -96.45 37.85 -99.75 36.95 -106.2 40.35 -102.55 55.95 -107.85 44.5 -110.1 41.65 -116.85 56.9 -108.6 63.5 -125.95 51.1 -121.2 44.3 -125.15 52.4 -127.3 56.75 -131.4 59.05 -133.75 60.3 -136.5 62.1 -140.8 61 -146.5 59.4 -143.95 57.3 -142.35 53.3 -139.15 47.1 -139.3 52.55 -142.85 54.35 -148.3 56.25 -154.5 52.8 -164.3 48.7 -156.25 41.4 -155.35 45.35 -158.9 46.45 -163.8 Z"/>
</g>

<g id="body_side_0_Layer5_0_FILL">
<path fill="#5E893E" stroke="none" d="
M 31.65 -116.4
Q 31.35 -116.7 31 -116.7 29.1 -117.35 27.15 -116.45 26.85 -116.3 26.45 -116.3 24.9 -115.65 23.95 -114.05 23.65 -113.55 23.45 -113.1 23.45 -112.85 23.25 -112.75
L 34.65 -108.75
Q 34.7 -108.9 34.9 -109.15 35.6 -111.55 34.55 -113.5 33.6 -115.6 31.65 -116.4
M 31 -116.7
Q 31.35 -116.7 31.65 -116.4 31.9 -118.3 31.1 -120 30.05 -122.35 27.55 -123.15 25.3 -123.7 23.05 -122.6 21.8 -122.25 21.2 -121.3 22.65 -120.5 23.45 -118.65 23.7 -118.15 23.95 -117.65
L 27.15 -116.45
Q 29.1 -117.35 31 -116.7
M 12.4 -118.3
Q 12.4 -118 12.2 -117.85
L 23.55 -113.8
Q 23.7 -114.15 23.8 -114.3 24.0625 -115.0875 24.1 -115.85
L 24.1 -116.4 24.2 -116.65 23.95 -117.65
Q 23.7 -118.15 23.45 -118.65 22.65 -120.5 21.2 -121.3 20.55 -121.6 19.95 -121.75 17.5 -122.65 15.25 -121.45 13.25 -120.65 12.4 -118.3
M 34.95 -126.5
Q 33.6 -125.8 32.85 -124.65 32.7 -124.1 32.3 -123.6 32.3 -123.55 32.25 -123.4
L 42.05 -119.9
Q 42.2 -120.25 42.1 -120.3 42.85 -122.25 41.7 -124 41.05 -125.95 39.4 -126.6 39.05 -126.85 38.9 -126.75 37.2 -127.4 35.7 -126.6 35.1 -126.6 34.95 -126.5
M 32 -131.9
Q 31 -131.5 30.45 -130.75 31.75 -129.95 32.45 -128.5 32.65 -128.1 32.8 -127.7
L 35.7 -126.6
Q 37.2 -127.4 38.9 -126.75 39.05 -126.85 39.4 -126.6 39.6 -128.1 38.8 -129.55 37.85 -131.65 35.85 -132.15 33.85 -132.85 32 -131.9
M 22.9 -128.5
Q 23.2751953125 -129.109765625 23.65 -129.45 23.275 -129.125 22.9 -128.75
L 22.9 -128.5
M 25.55 -130.95
L 25.5 -130.85
Q 25.15 -130.85 25.05 -130.7
L 23.8 -129.75 23.7 -129.55 23.7 -129.5 23.65 -129.45
Q 23.2751953125 -129.109765625 22.9 -128.5 22.75 -128.45 22.65 -128.2 22.6 -128.05 22.4 -127.7 22.35 -127.55 22.25 -127.5
L 32.3 -123.95
Q 32.45 -124 32.45 -124.1 32.65 -124.35 32.65 -124.6
L 32.65 -124.65
Q 33.025 -126.009375 32.8 -127.15
L 32.8 -127.3 32.85 -127.55 32.8 -127.7
Q 32.65 -128.1 32.45 -128.5 31.75 -129.95 30.45 -130.75 30.05 -130.85 29.9 -130.95 29.6 -131.15 29.35 -131.15 27.5 -131.9 25.55 -130.95
M 32.45 -148.55
Q 31.85 -148.85 31.2 -149.1 28.95 -149.8 26.6 -148.7 24.5 -147.9 23.65 -145.5 23.65 -145.25 23.45 -145
L 34.9 -141.05
Q 35.05 -141.3 35.05 -141.55 35.284375 -142.159375 35.4 -142.8
L 35.45 -142.85
Q 35.45 -143 35.45 -143.05
L 35.45 -143.45 35.3 -144.85
Q 34.95 -145.3 34.7 -145.9 33.9 -147.65 32.45 -148.55 Z"/>

<path fill="#7979D2" stroke="none" d="
M 22.5 -132.7
Q 21.8 -134.15 20.5 -135.2 19.95 -135.2 19.15 -135.6 17.3 -136.15 15.2 -134.95 13.35 -134.3 12.6 -132.2
L 12.55 -131.9 22.6 -128.35
Q 22.65 -128.6 22.6 -128.85 23.05 -130.15 23 -131.15
L 23.05 -131.65 23 -131.8
Q 22.75 -132.3 22.5 -132.7 Z"/>

<path fill="#93BC54" stroke="none" d="
M 26.1 -136.65
Q 23.95 -137.3 22 -136.3 20.9 -135.9 20.5 -135.2 21.8 -134.15 22.5 -132.7 22.75 -132.3 23 -131.8
L 25.55 -130.95
Q 27.5 -131.9 29.35 -131.15 29.6 -131.15 29.9 -130.95 29.8 -132.45 29.1 -133.85 28.3 -135.85 26.1 -136.65
M 38.8 -150.4
Q 36.55 -151.05 34.3 -149.9 33.05 -149.4 32.45 -148.55 33.9 -147.65 34.7 -145.9 34.95 -145.3 35.3 -144.85
L 38.4 -143.8
Q 40.35 -144.5 42.25 -143.95 42.7 -143.85 42.85 -143.65 43.25 -145.5 42.35 -147.15 41.3 -149.6 38.8 -150.4 Z"/>
</g>

<g id="body_side_0_Layer4_0_FILL">
<path fill="#3C3CB3" stroke="none" d="
M -10.65 -3.2
Q -7.6423828125 -2.7158203125 -5.05 -3.35 -6.8421875 -7.112109375 -8.05 -11.2 -8.9484375 -14.29453125 -9.05 -18.3 -12.1248046875 -16.8490234375 -15.2 -18.65 -15.3603515625 -14.73671875 -14.65 -11.8 -13.5220703125 -7.0830078125 -11.5 -2.8 -9.8521484375 0.7673828125 -7.6 4.05 -5.199609375 7.5513671875 -1.75 9.3 -1.6689453125 9.3779296875 -1.6 9.4
L 2.35 7.6
Q 1.073828125 6.45546875 -0.05 4.95 -2.94140625 1.014453125 -5.05 -3.35 -7.6423828125 -2.7158203125 -10.65 -3.2
M -7.35 -33.5
Q -11.7849609375 -31.365625 -12.55 -32.95 -14.9333984375 -24.6640625 -15.2 -18.65 -12.1248046875 -16.8490234375 -9.05 -18.3
L -9.05 -18.3
Q -9.1990234375 -24.704296875 -7.35 -33.5
M -6.5 -37.4
Q -5.087890625 -43.2197265625 -4.15 -47.35
L -8.15 -47.05
Q -9.4119140625 -42.8599609375 -11.45 -36.55 -12.0498046875 -34.69375 -12.55 -32.95 -11.7849609375 -31.365625 -7.35 -33.5 -7.3134765625 -33.537109375 -7.3 -33.6 -6.95 -35.45 -6.5 -37.4
M -9.7 -78.5
L -9.6 -78.4 -8.7 -77.25
Q -9 -77.6 -9.3 -77.9 -5.83125 -72.6275390625 -5.6 -63.65 -5.4447265625 -59.685546875 -5.95 -55 -6.104296875 -53.6529296875 -8.15 -47.05
L -4.15 -47.35
Q -3.9513671875 -48.0083984375 -3.8 -48.65 -2.25 -55.7 -2.2 -57.15 -2.028125 -61.11484375 -2.25 -64.6
L -5 -63.6 -2.25 -64.6
Q -2.2279296875 -64.62578125 -2.25 -64.7 -2.6818359375 -72.1013671875 -4.9 -77.15 -7.58671875 -78.752734375 -9.7 -78.5
M 6.15 10.15
Q 4.10546875 9.1998046875 2.35 7.6
L -1.6 9.4
Q 2.0634765625 11.2412109375 5.45 11.9
L 8.55 12.45
Q 7.444140625 10.737890625 6.35 10.25 6.25 10.2 6.15 10.15 Z"/>

<path fill="#5E893E" stroke="none" d="
M -9.6 -78.4
Q -9.45 -78.2 -9.3 -77.9 -9 -77.6 -8.7 -77.25
L -9.6 -78.4
M 76.2 -82.4
Q 75.85 -82.5 75.4 -82.7 91.5669921875 -68.8669921875 86.5 -50 84.65625 -38.79453125 75.2 -26.75
L 76.3 -28.05
Q 75.7068359375 -27.226171875 75.05 -26.45
L 73.05 -23.1 74.3 -25.5
Q 66.863671875 -12.0671875 53.95 -9.9 36.996484375 -11.6734375 27 -24.15
L 12.5 -73.4
Q 1.646484375 -82.99453125 -11.45 -88.4
L -19.35 -85.7
Q -12.05 -81 -9.3 -77.9 -9.45 -78.2 -9.6 -78.4
L -9.7 -78.5
Q -7.58671875 -78.752734375 -4.9 -77.15 -1.835546875 -75.3548828125 1.95 -71.25 2.1365234375 -67.81640625 2.15 -64.65 2.149609375 -60.5392578125 1.85 -56.85 1.13671875 -48.147265625 -1.25 -41.65 -2.035546875 -37.9876953125 -2.15 -34.3 -2.5775390625 -16.9818359375 12.2 0.9
L 27.05 11.7
Q 27.3529296875 11.9751953125 27.1 12.05 27.36953125 12.1125 27.65 12.15 27.905859375 12.1748046875 28.15 12.2
L 27.7 12.15
Q 34.0671875 13.93515625 39.6 12.75 45.1896484375 11.574609375 52.5 7.1 59.8044921875 2.660546875 70.15 -6.15 72.6884765625 -8.339453125 73 -8.9 73.3228515625 -9.399609375 81.15 -18.95 88.9646484375 -28.458984375 90.1 -40.8 91.2955078125 -53.1455078125 91.3 -53.55 91.4 -57.1 91.25 -60.4 90.75 -65.35 89.45 -69.9 87.75 -76.3 85.6 -78.4 85.55 -78.4 85.5 -78.5 83.1 -80.7 76.2 -82.4 Z"/>

<path fill="#6666CC" stroke="none" d="
M 27.45 12.35
L 27.55 12.4 27.4 12.35 27.45 12.35
M 27.5 12.4
L 27.45 12.35 27.35 12.35 27.4 12.35 27.5 12.4
M 27.4 12.35
L 27.5 12.4 27.55 12.4 27.5 12.4 27.4 12.35
M 27.45 12.4
L 27.5 12.4 27.4 12.35 27.05 12.3 27.35 12.4
Q 27.4294921875 12.410546875 27.45 12.4
M 27.55 12.4
L 27.7 12.4 27.4 12.35 27.55 12.4
M 27.65 12.4
L 27.7 12.4 27.55 12.4 27.65 12.4
M 27.35 12.35
L 27.05 12.3 27.4 12.35 27.35 12.35
M 27.65 12.15
Q 27.40625 12.140234375 27.15 12.2
L 27.7 12.15 28.15 12.2
Q 27.905859375 12.1748046875 27.65 12.15
M 27.4 12.35
L 27.35 12.3 27.2 12.25 27.3 12.3 27.45 12.35 27.4 12.35
M 27.3 12.3
L 27.35 12.35 27.45 12.35 27.3 12.3
M 26.85 12.2
L 27.05 12.3 27.35 12.35 27.3 12.3 26.85 12.2
M 27.15 12.2
L 27.1 12.2 27.35 12.3 27.4 12.35 27.7 12.4 28.35 12.4 27.15 12.2
M 27.2 12.25
L 27.05 12.25 27.3 12.3 27.2 12.25
M 27.05 12.2
L 27.1 12.2 27.15 12.2
Q 27.40625 12.140234375 27.65 12.15 27.36953125 12.1125 27.1 12.05 27.05078125 12.108984375 26.95 12.1 27.0154296875 12.126953125 27.05 12.2
M 27.1 12.2
L 27.05 12.2 27.05 12.2 27.1 12.2
M 26.6 12.1
L 26.65 12.1 26.35 12 26.6 12.1
M 26.8 12.15
L 26.6 12.1 26.5 12.1 26.8 12.15
M 26.85 12.25
L 26.7 12.2 26.55 12.2 26.85 12.25
M 26.65 12.05
L 26.8 12.1
Q 26.886328125 12.121875 26.95 12.1
L 26.95 12.1
Q 27.05078125 12.108984375 27.1 12.05 26.68046875 12.0279296875 26.35 11.95
L 26.75 12.1 26.65 12.05
M 26.35 11.95
L 26.35 12 26.65 12.1 26.75 12.1 26.35 11.95
M 26.55 12.15
L 26.35 12.1
Q 26.5529296875 12.2458984375 27.1 12.55
L 27.3 12.4
Q 27.05625 12.3404296875 26.85 12.25
L 26.55 12.2 26.7 12.2 26.75 12.2
Q 26.6482421875 12.1892578125 26.55 12.15
M 26.4 12.1
L 26.45 12.1 26.3 12.05 26.4 12.1
M 26.45 12.1
L 26.5 12.1 26.3 12.05 26.45 12.1
M 26.5 12.1
L 26.45 12.1 26.85 12.2 27.3 12.3 27.05 12.25 26.8 12.15 26.5 12.1
M 26.35 12
L 26.3 12.05 26.5 12.1 26.6 12.1 26.35 12
M 1.85 -56.85
Q 2.149609375 -60.5392578125 2.15 -64.65 2.1365234375 -67.81640625 1.95 -71.25 -1.835546875 -75.3548828125 -4.9 -77.15 -2.6818359375 -72.1013671875 -2.25 -64.7 -2.2279296875 -64.62578125 -2.25 -64.6 -2.028125 -61.11484375 -2.2 -57.15 -2.25 -55.7 -3.8 -48.65 -3.9513671875 -48.0083984375 -4.15 -47.35 -5.087890625 -43.2197265625 -6.5 -37.4 -6.95 -35.45 -7.3 -33.6 -7.3134765625 -33.537109375 -7.35 -33.5 -6.5669921875 -33.8333984375 -5.7 -34.3 -6.5669921875 -33.8333984375 -7.35 -33.5 -9.1990234375 -24.704296875 -9.05 -18.3
L -9.05 -18.3
Q -7.5248046875 -18.9978515625 -6 -20.5 -7.5248046875 -18.9978515625 -9.05 -18.3 -8.9484375 -14.29453125 -8.05 -11.2 -6.8421875 -7.112109375 -5.05 -3.35 -1.9080078125 -4.079296875 0.65 -6.4 -1.9080078125 -4.079296875 -5.05 -3.35 -2.94140625 1.014453125 -0.05 4.95 1.073828125 6.45546875 2.35 7.6
L 6.65 5.65 2.35 7.6
Q 4.10546875 9.1998046875 6.15 10.15 6.25 10.2 6.35 10.25 7.444140625 10.737890625 8.55 12.45
L 10.35 12.65
Q 18.21015625 14.0205078125 29.85 12.8
L 27.1 12.55
Q 26.5529296875 12.2458984375 26.35 12.1
L 26.3 12.1 26.4 12.1 26.3 12.05 26.35 12 26.35 11.95
Q 26.60546875 11.6935546875 27.05 11.7
L 12.2 0.9
Q -2.5775390625 -16.9818359375 -2.15 -34.3 -2.035546875 -37.9876953125 -1.25 -41.65 1.13671875 -48.147265625 1.85 -56.85 Z"/>

<path fill="#000000" stroke="none" d="
M 63.6 -50.35
L 66.1 -52.1 58.65 -59.4 61.45 -50.35 60.35 -50.2 61.2 -50.3 60.45 -50.1 60.8 -50 59.9 -50.2 60.9 -49.7 54.95 -44.7 53.15 -42.9 64.15 -45.2
Q 60.2658203125 -45.1759765625 63.6 -50.35 Z"/>

<path fill="#F40202" stroke="none" d="
M 66.1 -52.1
L 63.6 -50.35
Q 60.2658203125 -45.1759765625 64.15 -45.2
L 71.5 -46.75 66.1 -52.1 Z"/>

<path fill="#7DAC42" stroke="none" d="
M 60.35 -50.2
L 60.45 -50.1 61.2 -50.3 60.35 -50.2
M 75.4 -82.7
Q 73.7544921875 -83.048046875 67.9 -83.85 62.0359375 -84.6560546875 59.15 -83.6 56.2685546875 -82.5419921875 49.45 -77.8 47 -74.35 44.9 -70.1 42.2 -65.6 43.45 -60.6 44.2 -57.1 47 -53.25 51.25 -48.5 60.9 -49.7
L 59.9 -50.2 60.8 -50 60.45 -50.1 60.35 -50.2 61.45 -50.35
Q 50.55 -52.95 50.5 -57.3 50.2 -62.15 51.85 -66.15 52.05 -66.7 52.35 -67.2 53.6 -68.6 54.9 -69.55 57.7 -72.15 60.45 -73.25 61.95 -74 63.95 -74.3 67.5 -74.7 71.5 -72.75
L 76.9 -69.05
Q 84.55 -51.85 73.25 -38 68.165625 -33.465625 59.8 -29.05 56.463671875 -27.3416015625 52.05 -29.8 47.68984375 -32.2099609375 45.65 -34.4 43.6490234375 -36.591015625 43.65 -36.85 37.306640625 -56.9173828125 17 -83.9
L 2.15 -97 -6.2 -97.85 -11.45 -88.4
Q 1.646484375 -82.99453125 12.5 -73.4
L 27 -24.15
Q 36.996484375 -11.6734375 53.95 -9.9 66.863671875 -12.0671875 74.3 -25.5
L 73.05 -23.1 75.05 -26.45
Q 75.7068359375 -27.226171875 76.3 -28.05
L 75.2 -26.75
Q 84.65625 -38.79453125 86.5 -50 91.5669921875 -68.8669921875 75.4 -82.7 Z"/>
</g>

<g id="body_side_0_Layer3_0_FILL">
<path fill="#000000" stroke="none" d="
M 22.6 -79.15
Q 23.2 -80.3 22.25 -81.9 22 -82.25 21.75 -82.55 20.75 -83.75 19.25 -84.6 17.45 -85.5 15.85 -85.5 15.75 -85.5 15.7 -85.5
L 15.65 -85.5
Q 15.6 -85.55 15.6 -85.5 15.45 -85.55 15.4 -85.55 13.5 -85.45 12.9 -84.3 12.2 -83.05 13.2 -81.45 14.2 -79.8 16.1 -78.75 18.15 -77.7 20.1 -77.8 21.95 -77.9 22.6 -79.15 Z"/>

<path fill="#5E893E" stroke="none" d="
M 22.25 -81.9
Q 23.2 -80.3 22.6 -79.15 21.95 -77.9 20.1 -77.8 18.15 -77.7 16.1 -78.75 14.2 -79.8 13.2 -81.45 12.2 -83.05 12.9 -84.3 13.5 -85.45 15.4 -85.55 14.8 -85.65 14.15 -85.65 11.7 -85.55 10.9 -83.9 10 -82.35 11.25 -80.25 12.65 -78.15 15.15 -76.8 17.8 -75.35 20.3 -75.55 22.75 -75.7 23.6 -77.25 24.4 -78.9 23.15 -80.95 22.6 -81.85 21.75 -82.55 22 -82.25 22.25 -81.9 Z"/>
</g>

<g id="body_side_0_Layer2_0_FILL">
<path fill="#96BC6D" stroke="none" d="
M 57.8 -10.15
Q 57.7 -9.45 57.95 -8.5 58.35 -7.65 58.8 -6.9 59.35 -6.4 59.9 -6.55 60.45 -6.8 60.65 -7.45 60.95 -8.4 60.65 -9.3 60.3 -10.25 59.65 -10.85 59.05 -11.4 58.55 -11.25 57.95 -11.05 57.8 -10.15
M 36.85 -19.8
Q 37.8 -18.85 38.95 -18.95 39.65 -18.85 40.15 -19.1 40.7 -19.25 41.15 -19.8 42.05 -20.7 41.9 -21.95 41.95 -23.3 41 -24.1 40.05 -24.95 38.75 -25 37.55 -24.95 36.65 -24.05 35.75 -23.2 35.85 -21.9 35.8 -20.65 36.85 -19.8
M 19.35 -19.8
Q 18.5 -19.45 18.55 -18.45 18.3 -17.3 18.8 -16.1 19.35 -14.95 20.2 -14.3 21 -13.75 21.75 -14.05 22.5 -14.35 22.75 -15.5 22.75 -16.5 22.35 -17.65 21.75 -18.8 20.95 -19.5 20.15 -20.1 19.35 -19.8
M 14.95 -55.95
Q 14.75 -55.35 14.6 -54.8 13.65 -51.8 14.45 -48.45 15.4 -44.4 18.25 -42.25 20.95 -39.9 24.05 -40.65 27.1 -41.25 28 -44.15 28.65 -47.1 27.7 -51.1 26.7 -55.15 24.75 -57.9 22.65 -60.6 19.5 -59.95 16.45 -59.2 14.95 -55.95 Z"/>

<path fill="#9F9FDF" stroke="none" d="
M 48.4 -8.3
Q 48.7 -7.35 49.55 -6.9 50.5 -6.5 51.25 -6.65 52.1 -6.9 52.5 -7.85 52.9 -8.75 52.5 -9.6 52.25 -10.5 51.55 -10.9 50.75 -11.45 49.9 -11.2 49 -11.05 48.6 -10 48.1 -9.2 48.4 -8.3
M 5.95 -55.9
Q 6.3 -54.7 7.15 -53.95 8.1 -53.35 9.25 -53.65 10.3 -53.9 10.85 -54.85 11.2 -55.35 11.3 -55.9 11.4 -56.5 11.2 -57.1 10.85 -58.4 9.9 -59.05 8.9 -59.75 7.85 -59.4 6.8 -59.2 6.1 -58.15 5.65 -57.15 5.95 -55.9 Z"/>

<path fill="#49632E" stroke="none" d="
M 56.5 -18.75
Q 56.8 -17.7 57.85 -17.25 58.9 -16.7 60.1 -17.1 61.35 -17.45 61.8 -18.45 62.35 -19.4 61.95 -20.4 61.8 -21.5 60.8 -21.9 59.7 -22.35 58.55 -22.1 57.4 -21.7 56.85 -20.7 56.3 -19.8 56.5 -18.75
M 27.4 -10.15
Q 27.05 -10.65 26.6 -11.05 25.95 -11.25 25.55 -11.1 25 -10.8 24.8 -10.2 24.65 -9.6 24.9 -9.15 25.05 -8.4 25.7 -8.2 26.35 -7.9 26.75 -8.15 27.3 -8.3 27.5 -8.9 27.65 -9.5 27.4 -10.15
M 33.5 -19.6
Q 32.5 -19.75 31.95 -19.2 31.25 -18.6 31.6 -17.5 31.8 -16.5 32.8 -15.6 33.7 -14.85 34.8 -14.6 35.75 -14.2 36.4 -14.75 36.65 -15 36.75 -15.25 36.9 -15.75 36.7 -16.45 36.35 -17.45 35.45 -18.4 34.5 -19.2 33.5 -19.6
M 20.95 -33.75
Q 21.1 -34.2 20.95 -34.7 20.7 -35.6 19.5 -36.2 18.45 -36.6 16.85 -36.25 15.4 -35.95 14.5 -34.95 13.85 -34 14.1 -33.05 14.3 -32.05 15.5 -31.55 16.6 -31.15 18.05 -31.5 19.5 -31.75 20.35 -32.8 20.8 -33.2 20.95 -33.75
M 16.6 -66.55
Q 17.25 -67.45 16.95 -68.45 16.75 -69.45 15.7 -69.95 14.9 -70.5 13.7 -70.25 12.7 -69.95 11.95 -69.1 11.35 -68.1 11.6 -67.15 11.75 -66.15 12.75 -65.65 13.75 -65.15 14.9 -65.4 15.9 -65.55 16.6 -66.55 Z"/>

<path fill="#6061CA" stroke="none" d="
M 29.5 -7
L 29.5 -6.95
Q 29.05 -5.8 29.7 -4.75 29.75 -4.55 29.8 -4.4 30.25 -3.6 31.1 -3.2 32.1 -2.7 32.95 -3.05 34 -3.45 34.35 -4.6 34.6 -5.6 34.15 -6.7 34.05 -6.75 34.05 -6.8 33.6 -7.75 32.65 -8.25 31.65 -8.7 30.8 -8.25 29.85 -7.8 29.5 -7 Z"/>

<path fill="#5E893E" stroke="none" d="
M 39.5 -13.9
Q 39.35 -13.4 39.4 -12.7 39.5 -11.25 40.55 -10.1 41.7 -9.05 43.1 -8.95 44.55 -8.85 45.55 -9.85 45.95 -10.4 46.15 -11 46.35 -11.6 46.25 -12.3 46.25 -13.75 45.2 -14.9 44.05 -16 42.55 -16 41.85 -16.05 41.25 -15.85 40.65 -15.6 40.2 -15.1 39.7 -14.55 39.5 -13.9 Z"/>

<path fill="#3C3CB3" stroke="none" d="
M 28.7 -36.85
Q 26.75 -36.35 25.65 -34.65 25.25 -33.7 25.1 -32.8 24.95 -31.9 25.15 -30.95 25.65 -28.9 27.2 -27.95 29.1 -26.85 31 -27.4 33.05 -27.75 34.15 -29.45 35.25 -31.25 34.7 -33.15 34.3 -35.15 32.5 -36.15 30.75 -37.2 28.7 -36.85 Z"/>
</g>

<g id="body_side_0_Layer1_0_FILL">
<path fill="#5E803C" stroke="none" d="
M 30.05 -87.95
L 25.95 -92.65 25.65 -85.1 32.85 -84.3 31 -90.5
Q 30.6 -89.15 30.05 -87.95
M 35.2 -100.65
L 35.05 -104.5
Q 34.8 -103.35 34.1 -101.1 32.85 -97.6 30.3 -91.3
L 35.2 -100.65
M 90.1 -156.5
Q 85.65 -152.65 81.1 -149.1
L 84.95 -144.35
Q 90.8 -145.95 94.6 -150.45 97.65 -154.1 98.95 -158.9 101.35 -167.75 97.95 -180.7 95.3 -177.8 92.6 -175.15 91.7 -174.35 90.8 -173.55 63.35 -147.4 31.1 -137.85 30 -137.5 28.85 -137.2 28.45 -130.7 27.5 -124.2 26.5 -117.75 24.9 -111.3 22 -99.1 17.05 -86.9 16.25 -85.05 15.45 -83.2
L 15.05 -82.55 20.5 -78.85 25.05 -85.1 19.75 -85.75 20.15 -86.5
Q 25.65 -99.05 28.7 -111.65 30.15 -117.75 31.1 -123.8 31.85 -129.25 32.25 -134.7 62.3 -143 87.7 -167.2 90.1 -169.5 92.4 -171.9 93.25 -172.8 94.05 -173.7 95.55 -168.05 90.1 -156.5 Z"/>

<path fill="#789E3F" stroke="none" d="
M 101.4 -147.55
Q 92.9 -141.4 84.95 -144.35
L 81.1 -149.1
Q 61.15 -133.9 36.1 -132 37.95 -116 35.05 -104.5
L 35.2 -100.65
Q 38.15 -88.1 57.8 -80.95 51.85 -88.25 54.25 -95.4 56 -89.85 75 -87.15 64.3 -95.5 64.85 -104 76.35 -87.35 92.4 -102 77 -103.6 72 -111.3 81.55 -109.3 88.25 -111.3 91.85 -112.45 94.6 -114.7 98.75 -118.25 100.6 -124.75 97.65 -123 94.6 -122.35 88.65 -121.2 82.4 -124.6 89.85 -125.4 94.6 -130.15 99.8 -135.6 101.4 -147.55 Z"/>

<path fill="#93BC54" stroke="none" d="
M 81.1 -149.1
Q 85.65 -152.65 90.1 -156.5 95.55 -168.05 94.05 -173.7 93.25 -172.8 92.4 -171.9 90.1 -169.5 87.7 -167.2 62.3 -143 32.25 -134.7 31.85 -129.25 31.1 -123.8 30.15 -117.75 28.7 -111.65 25.65 -99.05 20.15 -86.5
L 19.75 -85.75 25.05 -85.1 24.65 -82.55 25.65 -85.1 25.95 -92.65 30.05 -87.95
Q 30.6 -89.15 31 -90.5 32.45 -94.6 30.3 -91.3 32.85 -97.6 34.1 -101.1 34.8 -103.35 35.05 -104.5 37.95 -116 36.1 -132 61.15 -133.9 81.1 -149.1 Z"/>
</g>

<g id="body_side_0_Layer0_0_FILL">
<path fill="#93BC54" stroke="none" d="
M 68.65 -118.8
Q 68.7 -121.55 66.85 -123.15 65.1 -124.9 62.7 -124.9 61.4 -125 60.5 -124.5 61.4 -123 61.4 -121.05 61.3 -120.55 61.3 -120
L 63.75 -117.45
Q 65.75 -117.45 67.1 -115.8 67.35 -115.8 67.5 -115.4 68.65 -116.85 68.65 -118.8
M 42.7 -135.45
L 42.35 -135.1 51.05 -126.2
Q 51.2 -126.35 51.25 -126.6 52.5 -127.7 52.9 -128.9
L 53.2 -129.35 53.2 -129.5
Q 53.2 -130.15 53.2 -130.7 53.3 -132.55 52.4 -134.3 51.85 -134.7 51.25 -135.45 49.5 -137.05 46.85 -136.9 44.5 -137.2 42.7 -135.45
M 79.55 -140.4
Q 77.55 -142.35 74.6 -142.35 73.05 -142.6 72 -141.95 73.05 -140.25 72.9 -138 72.9 -137.3 72.9 -136.65
L 75.65 -133.85
Q 78.05 -133.65 79.7 -132.05 80.15 -131.75 80.2 -131.35 81.55 -133.1 81.55 -135.25 81.75 -138.4 79.55 -140.4
M 55.45 -112.85
Q 55.6 -116 53.45 -118 51.45 -119.85 48.45 -119.85 46.95 -120.15 45.9 -119.45 46.95 -117.85 46.85 -115.5 46.85 -114.85 46.85 -114.2
L 49.5 -111.3
Q 52 -111.25 53.6 -109.55 54 -109.3 54.15 -108.9 55.45 -110.7 55.45 -112.85 Z"/>

<path fill="#7979D2" stroke="none" d="
M 58.75 -116.05
Q 58.6 -116 58.35 -115.8
L 66.85 -107.15
Q 67.1 -107.3 67.1 -107.45 68.9 -109.15 68.7 -111.5 69.05 -113.8 67.5 -115.4 67.35 -115.8 67.1 -115.8 65.75 -117.45 63.75 -117.45 63.15 -117.6 62.95 -117.6 61.15 -117.65 59.8 -116.8 59.3 -116.4 58.75 -116.05
M 52.4 -134.3
Q 53.3 -132.55 53.2 -130.7 53.2 -130.15 53.2 -129.5
L 55.45 -127.15
Q 57.95 -127.15 59.55 -125.55 59.8 -125.3 59.95 -125 60.75 -126.6 60.75 -128.35 60.9 -130.95 59 -132.85 57.15 -134.65 54.65 -134.7 53.3 -134.85 52.4 -134.3
M 39.8 -122.75
Q 37.2 -123 35.05 -120.95 34.95 -120.65 34.65 -120.55
L 44.35 -110.45
Q 44.7 -110.7 44.75 -110.85 45.75 -111.75 46.3 -112.75
L 46.85 -114.2
Q 46.85 -114.85 46.85 -115.5 46.95 -117.85 45.9 -119.45 45.35 -120.15 44.75 -120.65 42.75 -122.75 39.8 -122.75 Z"/>

<path fill="#5E893E" stroke="none" d="
M 51.45 -126.2
Q 52.0638671875 -126.55078125 52.65 -126.7 52.08125 -126.56875 51.6 -126.35
L 51.45 -126.2
M 50.45 -125.55
Q 50.3 -125.4 50.25 -125.3
L 58.85 -116.4
Q 59 -116.4 59.15 -116.45 59.3 -116.65 59.4 -116.85
L 59.55 -117.05
Q 60.75 -118.25 61.15 -119.6
L 61.3 -119.85 61.3 -120
Q 61.3 -120.55 61.4 -121.05 61.4 -123 60.5 -124.5 60.1 -124.75 59.95 -125 59.8 -125.3 59.55 -125.55 57.95 -127.15 55.45 -127.15
L 55.35 -127.15
Q 55.05 -127.3 54.8 -127.15
L 53.7 -127.1 52.95 -126.85 52.8 -126.75 52.65 -126.7
Q 52.0638671875 -126.55078125 51.45 -126.2 51.2 -126.1 51.05 -125.95 50.8 -125.8 50.45 -125.55
M 72 -141.95
Q 71.45 -142.6 70.9 -143.15 68.9 -145.15 65.9 -145.15 63.35 -145.4 61.15 -143.4 61 -143.15 60.75 -143
L 70.5 -132.85
Q 70.8 -133.1 70.9 -133.25 71.6 -134 72.15 -134.7
L 72.25 -134.8 72.4 -135.1 72.9 -136.65
Q 72.9 -137.3 72.9 -138 73.05 -140.25 72 -141.95
M 44.95 -110.5
Q 44.3 -110.1 43.9 -109.7 43.7 -109.55 43.5 -109.5
L 53.2 -99.35
Q 53.45 -99.45 53.6 -99.6 55.8 -101.75 55.6 -104.35 55.8 -107 54.15 -108.9 54 -109.3 53.6 -109.55 52 -111.25 49.5 -111.3 49.1 -111.3 48.7 -111.5 46.7 -111.65 44.95 -110.5 Z"/>
</g>

<g id="head_2_0_Layer6_0_FILL">
<path fill="#C9841D" stroke="none" d="
M -17.55 -43.2
Q -17.8 -43.8 -18.05 -44.2 -19.8 -46.3 -21.2 -45.4 -20.85 -44.3 -20.35 -42.95 -20.35 -42.7 -20.3 -42.55
L -17.55 -43.2
M -19.55 -38.6
L -16.65 -39.3
Q -16.75 -40.65 -17.4 -42.55 -17.45 -42.75 -17.55 -43.2
L -20.3 -42.55
Q -19.5 -38.95 -20.15 -35.65
L -18 -35.5
Q -17.4 -35.5 -16.75 -35.6 -16.2 -37.1 -16.65 -39.3
L -19.55 -38.6 Z"/>

<path fill="#E0A420" stroke="none" d="
M -14 -39.65
L -16.65 -39.3
Q -16.2 -37.1 -16.75 -35.6 -14.85 -35.9 -13.3 -36.95 -13.65 -38.35 -14 -39.65
M -17.4 -42.55
Q -16.75 -40.65 -16.65 -39.3
L -14 -39.65
Q -14.65 -41.75 -15.45 -43.85
L -17.55 -43.2
Q -17.45 -42.75 -17.4 -42.55
M -15.45 -43.85
Q -15.7 -44.95 -16.2 -46.2 -16.25 -46.5 -16.5 -46.65 -16.3 -44 -18.15 -44.4 -18.15 -44.35 -18.05 -44.2 -17.8 -43.8 -17.55 -43.2
L -15.45 -43.85 Z"/>

<path fill="#980101" stroke="none" d="
M -18.15 -44.4
Q -18.6 -46 -19.5 -47.6
L -21.5 -46.4
Q -21.3 -46.15 -21.2 -45.4 -19.8 -46.3 -18.05 -44.2 -18.15 -44.35 -18.15 -44.4
M -21.55 -51.15
L -22.7 -50.3
Q -22.15 -48.65 -21.5 -46.4
L -19.5 -47.6
Q -20.45 -49.55 -21.55 -51.15
M -24.3 -54.65
Q -23.8 -53.6 -22.7 -50.3
L -21.55 -51.15
Q -22.85 -53.15 -24.3 -54.65 Z"/>

<path fill="#F40202" stroke="none" d="
M -19.5 -47.6
Q -18.6 -46 -18.15 -44.4 -16.3 -44 -16.5 -46.65 -17 -47.65 -17.5 -48.4
L -19.5 -47.6
M -20.35 -52.2
L -21.55 -51.15
Q -20.45 -49.55 -19.5 -47.6
L -17.5 -48.4
Q -18.8 -50.7 -20.35 -52.2
M -24.35 -54.7
L -24.3 -54.65
Q -22.85 -53.15 -21.55 -51.15
L -20.35 -52.2
Q -22.2 -53.95 -24.35 -54.7 Z"/>
</g>

<g id="head_2_0_Layer5_0_FILL">
<path fill="#F40202" stroke="none" d="
M -39.75 14.45
L -39.2 13.75 -39.2 8.4
Q -41.1740234375 7.9783203125 -42.4 11.4 -41.4009765625 13.107421875 -39.75 14.45
M -28.45 14.5
L -28.1 13.65 -28.55 11.3
Q -30.9123046875 12.145703125 -33.3 9.85 -31.9732421875 13.1875 -28.45 14.5 Z"/>

<path fill="#FFFFFF" stroke="none" d="
M -39.2 8.4
L -39.2 4.55 -43.7 4.55
Q -44.0822265625 8.500390625 -42.4 11.4 -41.1740234375 7.9783203125 -39.2 8.4
M -28.55 11.3
L -29.7 4.8 -34.05 6.5
Q -33.8955078125 8.3859375 -33.3 9.85 -30.9123046875 12.145703125 -28.55 11.3 Z"/>
</g>

<g id="head_2_0_Layer4_0_FILL">
<path fill="#7DAC42" stroke="none" d="
M -12.9 16.2
L -11.65 16 -9.55 15.7
Q -10.42421875 15.7373046875 -11.35 15.8
L -12.6 16
Q -17.3779296875 13.85 -19.25 10.75 -20.1119140625 9.30078125 -20.35 7.65 -21.0181640625 6.6125 -20 5.55
L -20.9 6.15 -20.75 6.35
Q -20.805859375 8.678515625 -19.75 10.65 -17.91953125 13.9412109375 -12.9 16.2
M -15.7 3.55
L -16.4 3.4 -16.55 3.5 -19.3 5.15 -15.7 3.55
M -3.3 -24.45
L -3.45 -24.7
Q -3.2958984375 -24.3796875 -3.25 -24.2 -3.263671875 -24.3126953125 -3.3 -24.45
M -28.1 -15.55
L -27.45 -15.45 -27.95 -15.15
Q -25.6490234375 -15.369140625 -23.8 -15.15
L -26.2 -15.65
Q -27.37109375 -15.8109375 -28.1 -15.55
M -26.7 -35
Q -26.8193359375 -34.933203125 -26.95 -34.9 -31.40234375 -32.2486328125 -28.7 -29.25
L -28.35 -15.55 -28.15 -15.55 -28.4 -29.45
Q -30.94453125 -32.2732421875 -26.9 -34.9 -26.80234375 -34.9369140625 -26.7 -35
M -3.7 -25.4
L -3.55 -24.85 -3.45 -24.7 -3.3 -24.45
Q -3.467578125 -24.90859375 -3.7 -25.4
M -42 -3
L -41.7 -3.15
Q -42.140234375 -6.3576171875 -38.85 -8.95 -38.494140625 -9.2501953125 -38.1 -9.55 -38.6626953125 -9.1537109375 -39.15 -8.75 -42.415234375 -6.17734375 -42 -3
M 7.25 19.1
Q 3.6 18.3 0.55 16.75 -2.180859375 15.362109375 -9.55 15.7
L -11.65 16
Q -2.8 15.4 0.25 16.95 3.3 18.5 6.95 19.3
L 7.25 19.1
M 5.15 -38.65
L 0.7 -39.55
Q -5.1 -41.6 -9.85 -38.55 -10.1 -38.65 -10.35 -38.75
L -10.35 -38.55
Q -7.1 -36.8 -5.35 -34.55 -5.2 -34.45 -5.05 -34.35 -5 -34.35 -5 -34.3 -1.25 -31.75 -0.7 -27.8
L -0.7 -27.75
Q -0.65 -27.65 -0.65 -27.55 -0.6 -27 -0.6 -26.45 -0.6 -27 -0.65 -27.55
L -2.7 -27.4 -4.2 -26.55
Q -3.9103515625 -25.970703125 -3.7 -25.4 -3.467578125 -24.90859375 -3.3 -24.45 -3.263671875 -24.3126953125 -3.25 -24.2 -3.2015625 -24.112890625 -3.2 -24.05 -3.16171875 -23.987890625 -3.15 -23.95 -3.15 -23.88515625 -3.15 -23.85 -3.127734375 -23.735546875 -3.1 -23.65 -1.1 -20 -1.65 -17.1 -1.1 -20 -3.1 -23.65 -2.9517578125 -22.3158203125 -4.05 -20.65
L -4.85 -18.2 -4.05 -20.65
Q -5.06640625 -18.96640625 -7.25 -17 -7.3681640625 -16.8677734375 -7.5 -16.75 -7.3681640625 -16.8677734375 -7.25 -17
L -18.7 -19.35
Q -22.981640625 -17.37421875 -19.95 -15.5
L -18.3 -13.3 -19.45 -13.7
Q -18.9841796875 -13.3900390625 -18.6 -13.05 -18.9841796875 -13.3900390625 -19.45 -13.7
L -23.8 -15.15
Q -25.6490234375 -15.369140625 -27.95 -15.15 -22.95 -14.1 -20.15 -11.3 -22.95 -14.1 -27.95 -15.15
L -28.45 -15.15 -28.45 -14.95 -32.45 -12.2
Q -33.55 -11.8 -34.5 -11.4 -34.5802734375 -11.366796875 -34.65 -11.35 -36.49453125 -9.260546875 -36.15 -6.8 -40.95 -2.4 -38.95 2 -38.8 2 -38.7 2 -42.75 3.75 -40.85 5.5 -41.5 5.8 -44.5 5.7 -46.5 1.3 -41.7 -3.1
L -41.7 -3.15 -42 -3
Q -42.0046875 -2.9341796875 -42 -2.9 -46.8 1.5 -44.8 5.9 -41.7279296875 6.5294921875 -38.65 6.9 -39.69765625 3.123046875 -34.55 4.85
L -29.95 4.05
Q -28.38984375 2.0470703125 -26.35 2.1
L -26.2 1.65 -26.35 2.1 -25.95 1.9
Q -23.609375 1.1369140625 -21.1 3.5 -18.3583984375 3.9544921875 -17.1 2.05
L -17.35 1.35 -17.1 2.05 -17 2.35 -15.1 2.55
Q -14.4556640625 1.28125 -11.1 0.4
L -8.15 1.35 -8.1 1.35 -6.85 1.1 -6.4 3.55 -6.5 5.45
Q -7.4978515625 5.9015625 -8.1 5.75 -6.1869140625 8.737890625 -9.75 8.75 -10.668359375 6.237890625 -12.5 8.3 -11.2529296875 10.653515625 -13.3 11.1 -10.9841796875 12.04140625 -7.05 12.3
L -5.8 12.1
Q 3.05 11.5 6.1 13.05 8.9544921875 14.5005859375 11 16.6 11.273046875 16.4416015625 11.5 16.25 11.882421875 16.039453125 12.25 15.8
L 12.85 15.4 12.95 15.3 22.8 8.8 18.75 4.85 20 -1.65 16.25 -11.95
Q 14.15 -14.2 14.5 -17.2
L 12.5 -20.75
Q 13.1 -25.65 10.7 -30.55 14.6 -33.7 9.2 -37.8
L 8.65 -37.95
Q 13.9826171875 -33.8359375 10.1 -30.7 12.5 -25.8 11.9 -20.9
L 13.9 -17.35
Q 13.55 -14.35 15.65 -12.1
L 19.4 -1.8 18.15 4.7 18.7 5.2 18.6 5.2 16.9 3.8
Q 18.686328125 4.601953125 15.9 -4.55
L 11.5 -14.85
Q 9.25 -17.1 9.4 -20.1
L 7.2 -23.65
Q 10.4869140625 -30.0837890625 1.7 -33.1 7.55 -35.8 5.15 -38.65
M 3.55 -38.45
Q 5.2 -37.9 5.2 -37.15 5.2 -36.4 3.55 -35.9 1.95 -35.35 -0.35 -35.35 -2.7 -35.35 -4.35 -35.9 -5.95 -36.4 -5.95 -37.15 -5.95 -37.9 -4.35 -38.45 -2.7 -38.95 -0.35 -38.95 1.95 -38.95 3.55 -38.45
M -32.45 -9.75
Q -32 -10.25 -31.65 -10.4 -31.6 -10.45 -31.55 -10.5 -30.75 -10.9 -30.35 -11.15 -29.9 -11.5 -28.65 -11.2 -28.15 -11.05 -27.65 -10.85
L -27.4 -11.4
Q -27.25 -11.35 -27.15 -11.3 -26.05 -10.85 -25.2 -10.3 -20.1 -7.4 -21.3 -3.75 -20.1 -7.4 -25.2 -10.3
L -25.65 -9.6
Q -25.6 -9.55 -25.6 -9.45 -23.15 -3.85 -25.2 -2.45 -23.15 -3.85 -25.6 -9.45
L -25.65 -9.45
Q -25.3 -8.55 -25.7 -6.9 -26.25 -4.45 -29.65 -2.05
L -29.35 -1.25 -29.65 -2.05
Q -34.0873046875 -3.950390625 -34.1 -7.45 -33.8484375 -7.83984375 -33.65 -8.2 -32.9365234375 -9.188671875 -32.45 -9.75
M -7.3 0.45
L -12.4 -2.9 -7.3 0.45 Z"/>

<path fill="#5E893E" stroke="none" d="
M -15.65 3.35
L -15.7 3.55 -15.5 3.6
Q -15.5798828125 3.46953125 -15.65 3.35
M -19.95 5.45
L -20 5.55 -19.3 5.15 -19.95 5.45
M -19.45 -13.7
Q -21.1822265625 -14.8388671875 -23.8 -15.15
L -19.45 -13.7
M -22.1 -31.25
Q -22.3587890625 -31.794140625 -22.8 -32.35 -23.9 -33.45 -25.95 -34.1
L -26.25 -34.95 -26.25 -35.05
Q -26.6716796875 -34.9322265625 -26.9 -34.9 -30.94453125 -32.2732421875 -28.4 -29.45
L -28.15 -15.55 -28.15 -15.5
Q -28.1228515625 -15.5109375 -28.1 -15.55 -27.37109375 -15.8109375 -26.2 -15.65
L -23.8 -15.15
Q -21.1822265625 -14.8388671875 -19.45 -13.7
L -18.3 -13.3 -19.95 -15.5
Q -22.981640625 -17.37421875 -18.7 -19.35
L -22.1 -31.25
M 12.95 15.3
L 12.85 15.4 13.1 15.25 12.95 15.3
M 0.55 16.75
Q 3.6 18.3 7.25 19.1 9.1369140625 17.8541015625 11 16.6 8.9544921875 14.5005859375 6.1 13.05 3.05 11.5 -5.8 12.1
L -7.05 12.3
Q -10.9841796875 12.04140625 -13.3 11.1
L -13.55 12
Q -16.120703125 13.7048828125 -19.25 10.75 -17.3779296875 13.85 -12.6 16
L -11.35 15.8
Q -10.42421875 15.7373046875 -9.55 15.7 -2.180859375 15.362109375 0.55 16.75 Z"/>

<path fill="#990000" stroke="none" d="
M -19.3 5.15
L -20 5.55
Q -21.0181640625 6.6125 -20.35 7.65 -20.1119140625 9.30078125 -19.25 10.75 -16.120703125 13.7048828125 -13.55 12
L -13.3 11.1
Q -18.5556640625 9.05078125 -15.5 3.6
L -15.7 3.55 -19.3 5.15 Z"/>

<path fill="#F40202" stroke="none" d="
M -17 2.35
L -17.1 2.05
Q -18.3583984375 3.9544921875 -21.1 3.5 -23.609375 1.1369140625 -25.95 1.9
L -26.35 2.1 -27.25 5.2 -26.35 2.1
Q -28.38984375 2.0470703125 -29.95 4.05
L -34.55 4.85
Q -39.69765625 3.123046875 -38.65 6.9 -34.801171875 7.3564453125 -30.95 7.4
L -26.95 5.4 -20.75 6.35 -20.9 6.15 -20 5.55 -19.95 5.45 -19.3 5.15 -16.55 3.5 -17 2.35
M -11.1 0.4
Q -14.4556640625 1.28125 -15.1 2.55
L -17 2.35 -16.55 3.5 -16.4 3.4 -15.7 3.55 -15.65 3.35
Q -15.5798828125 3.46953125 -15.5 3.6
L -11.3 4.3 -8.15 1.35 -11.1 0.4 Z"/>

<path fill="#C10202" stroke="none" d="
M -6.4 3.55
L -6.85 1.1 -8.1 1.35 -8.15 1.35 -11.3 4.3 -15.5 3.6
Q -18.5556640625 9.05078125 -13.3 11.1 -11.2529296875 10.653515625 -12.5 8.3 -10.668359375 6.237890625 -9.75 8.75 -6.1869140625 8.737890625 -8.1 5.75 -7.4978515625 5.9015625 -6.5 5.45
L -6.4 3.55 Z"/>

<path fill="#B3CF85" stroke="none" d="
M -3.2 -24.05
Q -3.2015625 -24.112890625 -3.25 -24.2 -3.2958984375 -24.3796875 -3.45 -24.7 -3.39921875 -22.3244140625 -4.05 -20.65 -2.9517578125 -22.3158203125 -3.1 -23.65 -3.127734375 -23.735546875 -3.15 -23.85 -3.1552734375 -23.8935546875 -3.2 -24
L -3.2 -24.05 Z"/>

<path fill="#97BE5A" stroke="none" d="
M -3.7 -25.4
Q -3.9103515625 -25.970703125 -4.2 -26.55 -5.6 -29.25 -8.15 -31.95 -13.25 -34.65 -18.1 -35.15 -21.3869140625 -33.59296875 -22.1 -31.25
L -18.7 -19.35 -7.25 -17
Q -5.06640625 -18.96640625 -4.05 -20.65 -3.39921875 -22.3244140625 -3.45 -24.7
L -3.55 -24.85 -3.7 -25.4 Z"/>

<path fill="#94A747" stroke="none" d="
M -13 -36.15
Q -15.6 -36.95 -18.1 -36.8 -18.15 -36.8 -18.2 -36.8 -18.6 -36.75 -18.95 -36.7 -21.35 -35.7 -22.8 -34.55
L -25.85 -35
Q -26 -35 -26.15 -34.95 -26.181640625 -34.9419921875 -26.25 -34.95
L -25.95 -34.1
Q -23.9 -33.45 -22.8 -32.35 -22.3587890625 -31.794140625 -22.1 -31.25 -21.3869140625 -33.59296875 -18.1 -35.15 -13.25 -34.65 -8.15 -31.95 -5.6 -29.25 -4.2 -26.55
L -2.7 -27.4
Q -3.65 -30 -6.1 -32.55 -6.7 -33.05 -7.25 -33.4 -9.95 -35 -13 -36.15 Z"/>

<path fill="#B7D19C" stroke="none" d="
M -19.75 -37.35
L -19.15 -37.8
Q -23.15 -38.1 -25.45 -35.8
L -25.85 -35 -22.8 -34.55
Q -21.35 -35.7 -18.95 -36.7
L -19.05 -37.1 -18.1 -36.8
Q -15.6 -36.95 -13 -36.15 -9.95 -35 -7.25 -33.4 -6.7 -33.05 -6.1 -32.55 -3.65 -30 -2.7 -27.4
L -0.65 -27.55
Q -0.65 -27.65 -0.7 -27.75
L -0.7 -27.8
Q -1.25 -31.75 -5 -34.3 -5 -34.35 -5.05 -34.35 -5.2 -34.45 -5.35 -34.55 -7.1 -36.8 -10.35 -38.55
L -10.35 -38.75
Q -15.0486328125 -40.28515625 -19.15 -37.75 -19.447265625 -37.5623046875 -19.75 -37.35 Z"/>

<path fill="#A3C480" stroke="none" d="
M -41.7 -3.15
L -41.7 -3.1
Q -46.5 1.3 -44.5 5.7 -41.5 5.8 -40.85 5.5 -42.75 3.75 -38.7 2 -38.8 2 -38.95 2 -40.95 -2.4 -36.15 -6.8 -36.49453125 -9.260546875 -34.65 -11.35 -34.5802734375 -11.366796875 -34.5 -11.4
L -34.6 -11.65
Q -34.5 -12.1 -34.5 -12.95 -34.55 -13.8 -35.5 -13.8 -36.5 -13.8 -37.9 -13.25 -39.2470703125 -12.7 -39.5 -12.3 -39.708984375 -11.9 -40 -11.45 -40.2880859375 -11 -39.15 -8.75 -38.6626953125 -9.1537109375 -38.1 -9.55 -38.494140625 -9.2501953125 -38.85 -8.95 -42.140234375 -6.3576171875 -41.7 -3.15
L -40.4 -3.75 -41.7 -3.15 Z"/>

<path fill="#6B8C37" stroke="none" d="
M 8.6 -37.95
L 5.15 -38.65
Q 7.55 -35.8 1.7 -33.1 10.4869140625 -30.0837890625 7.2 -23.65
L 9.4 -20.1
Q 9.25 -17.1 11.5 -14.85
L 15.9 -4.55
Q 18.686328125 4.601953125 16.9 3.8
L 18.6 5.2 18.7 5.2 18.15 4.7 19.4 -1.8 15.65 -12.1
Q 13.55 -14.35 13.9 -17.35
L 11.9 -20.9
Q 12.5 -25.8 10.1 -30.7 13.9826171875 -33.8359375 8.65 -37.95 8.6240234375 -37.9318359375 8.6 -37.95 Z"/>

<path fill="#9BC061" stroke="none" d="
M -31.65 -10.4
Q -32 -10.25 -32.45 -9.75 -32.9365234375 -9.188671875 -33.65 -8.2 -33.8484375 -7.83984375 -34.1 -7.45 -34.0873046875 -3.950390625 -29.65 -2.05 -26.25 -4.45 -25.7 -6.9 -25.3 -8.55 -25.65 -9.45 -25.7 -9.5 -25.75 -9.55 -25.9 -9.9 -26.25 -10.15 -26.8 -10.5 -27.45 -10.75 -27.55 -10.8 -27.65 -10.85 -28.15 -11.05 -28.65 -11.2 -29.9 -11.5 -30.35 -11.15 -30.75 -10.9 -31.55 -10.5 -31.6 -10.45 -31.65 -10.4
M -32.55 -6.2
Q -32.55 -6.8 -32.25 -7.6 -31.9 -8.4 -31.55 -8.9 -31.15 -9.35 -29.65 -9.35 -28.85 -9.35 -28.4 -9.15 -27.95 -8.95 -27.75 -8.55 -27.65 -8.3 -27.75 -8.05 -27.95 -7.6 -28.9 -7.4 -30.4 -7.05 -30.75 -7.05 -31.1 -7.1 -31.8 -6.35 -32.55 -5.6 -32.55 -6.2 Z"/>

<path fill="#000000" stroke="none" d="
M -32.25 -7.6
Q -32.55 -6.8 -32.55 -6.2 -32.55 -5.6 -31.8 -6.35 -31.1 -7.1 -30.75 -7.05 -30.4 -7.05 -28.9 -7.4 -27.95 -7.6 -27.75 -8.05 -27.65 -8.3 -27.75 -8.55 -27.95 -8.95 -28.4 -9.15 -28.85 -9.35 -29.65 -9.35 -31.15 -9.35 -31.55 -8.9 -31.9 -8.4 -32.25 -7.6
M 5.2 -37.15
Q 5.2 -37.9 3.55 -38.45 1.95 -38.95 -0.35 -38.95 -2.7 -38.95 -4.35 -38.45 -5.95 -37.9 -5.95 -37.15 -5.95 -36.4 -4.35 -35.9 -2.7 -35.35 -0.35 -35.35 1.95 -35.35 3.55 -35.9 5.2 -36.4 5.2 -37.15 Z"/>
</g>

<g id="head_2_0_Layer3_0_FILL">
<path fill="#FFFFFF" stroke="none" d="
M -23.75 -21.7
Q -23.65 -22.2 -23.8 -22.95 -26.334375 -21.1703125 -29.2 -20.55
L -28.55 -18.25 -28.45 -18.25
Q -28 -18.15 -27.6 -18.2 -26.4 -18.25 -25.4 -19.25 -24.1 -20.55 -23.75 -21.7
M -27.65 -20.65
L -26.1 -21.35
Q -26.05 -21.3 -26.05 -21.25 -25.9 -20.65 -26 -20.15 -26.15 -19.65 -26.45 -19.5 -26.8 -19.35 -27.15 -19.65 -27.5 -19.95 -27.65 -20.55 -27.65 -20.6 -27.65 -20.65
M -8.7 -14.5
Q -8.35 -15 -8.1 -15.55 -14.3078125 -16.7671875 -18.9 -19.6 -18.15 -16.15 -16.5 -13.85 -14.65 -11.3 -12.55 -11.6 -12.15 -11.65 -11.75 -11.8 -10.15 -12.45 -8.7 -14.5
M -11.55 -16.3
Q -11.55 -16.25 -11.6 -16.2 -11.9 -15.3 -12.55 -14.8 -13.25 -14.35 -13.9 -14.55 -14.55 -14.8 -14.8 -15.6 -15.05 -16.35 -14.75 -17.3 -14.75 -17.35 -14.7 -17.4
L -11.55 -16.3 Z"/>

<path fill="#CC0000" stroke="none" d="
M -26.1 -21.35
L -27.65 -20.65
Q -27.65 -20.6 -27.65 -20.55 -27.5 -19.95 -27.15 -19.65 -26.8 -19.35 -26.45 -19.5 -26.15 -19.65 -26 -20.15 -25.9 -20.65 -26.05 -21.25 -26.05 -21.3 -26.1 -21.35
M -11.6 -16.2
Q -11.55 -16.25 -11.55 -16.3
L -14.7 -17.4
Q -14.75 -17.35 -14.75 -17.3 -15.05 -16.35 -14.8 -15.6 -14.55 -14.8 -13.9 -14.55 -13.25 -14.35 -12.55 -14.8 -11.9 -15.3 -11.6 -16.2 Z"/>

<path fill="#6666CC" stroke="none" d="
M -28.45 -28.75
L -28.6 -28.6
Q -30.49140625 -24.6744140625 -29.2 -20.55 -26.334375 -21.1703125 -23.8 -22.95 -24.1 -24.05 -25.05 -25.75 -26.65 -28.65 -28.45 -28.75
M -18.75 -25.9
Q -18.883203125 -25.5087890625 -19 -25.1 -19.6 -23.05 -19.1 -20.45 -19 -20 -18.9 -19.6 -14.3078125 -16.7671875 -8.1 -15.55 -8 -15.85 -7.85 -16.15 -7.15 -18.25 -7.75 -20.85 -8.55 -24.6 -11.2 -26.9 -13.85 -29.25 -15.05 -29.4 -16.3 -29.6 -18.1 -27 -18.46640625 -26.480859375 -18.75 -25.9 Z"/>
</g>

<g id="head_2_0_Layer2_0_FILL">
<path fill="#980101" stroke="none" d="
M -0.45 -46.4
L -0.4 -46.35
Q -0.4 -46.3 -0.35 -46.2 -0.35 -46.25 -0.35 -46.35
L -0.4 -46.4 -0.45 -46.4
M -3.75 -49.25
Q -3.8 -48.75 -3.7 -48.05 -2.2 -48.9 -0.45 -46.4 -1 -48.35 -1.5 -49.9
L -3.75 -49.25
M -3.25 -54.15
L -4.5 -53.45
Q -4.25 -51.65 -3.75 -49.25
L -1.5 -49.9
Q -2.2 -52.15 -3.25 -54.15
M -4.5 -53.45
L -3.25 -54.15
Q -4.25 -56.4 -5.7 -58.4 -5.3 -57.25 -4.5 -53.45 Z"/>

<path fill="#C9841D" stroke="none" d="
M -3.2 -45.05
Q -3.25 -44.85 -3.25 -44.55
L -0.1 -44.95
Q -0.25 -45.6 -0.35 -46.2 -0.4 -46.3 -0.4 -46.35
L -0.45 -46.4
Q -2.2 -48.9 -3.7 -48.05 -3.45 -46.7 -3.2 -45.05
M 0.2 -40.45
Q 0.2 -42.15 0 -44.05 -0.05 -44.55 -0.1 -44.95
L -3.25 -44.55
Q -3 -40.7 -4.15 -37.3
L -1.85 -36.7
Q -1.2 -36.55 -0.45 -36.5 0.25 -38.15 0.2 -40.45
L -2.95 -40.3 0.2 -40.45 Z"/>

<path fill="#F40202" stroke="none" d="
M -1.7 -54.95
L -3.25 -54.15
Q -2.2 -52.15 -1.5 -49.9
L 0.8 -50.6
Q -0.3 -53.3 -1.7 -54.95
M -3.25 -54.15
L -1.7 -54.95
Q -3.55 -57.4 -5.65 -58.5
L -5.7 -58.4
Q -4.25 -56.4 -3.25 -54.15
M 1.5 -48.65
Q 1.1 -49.7 0.8 -50.6
L -1.5 -49.9
Q -1 -48.35 -0.45 -46.4
L -0.4 -46.4 -0.35 -46.35
Q 1.3 -45.6 1.5 -48.65 Z"/>

<path fill="#E0A420" stroke="none" d="
M 1.7 -47.95
Q 1.5 -48.3 1.5 -48.65 1.3 -45.6 -0.35 -46.35 -0.35 -46.25 -0.35 -46.2 -0.25 -45.6 -0.1 -44.95
L 2.25 -45.25
Q 2 -46.55 1.7 -47.95
M 0 -44.05
Q 0.2 -42.15 0.2 -40.45
L 2.85 -40.7 0.2 -40.45
Q 0.25 -38.15 -0.45 -36.5 1.5 -36.55 3.5 -37.6 3.15 -41.3 2.25 -45.25
L -0.1 -44.95
Q -0.05 -44.55 0 -44.05 Z"/>
</g>

<g id="head_2_0_Layer1_0_FILL">
<path fill="#3C3CB3" stroke="none" d="
M 12.75 1.65
Q 12.4 1.35 11.9 1.25 10.75 1 9.7 1.45 8.55 1.9 8.05 2.8 7.55 3.85 7.75 4.65 8.15 5.5 9.2 5.7 10.15 5.95 11.2 5.5 12.35 5.05 12.9 4.1 13.2 3.65 13.3 3.25 13.35 2.75 13.15 2.2 13 1.9 12.75 1.65 Z"/>

<path fill="#5E893E" stroke="none" d="
M 10.7 9.7
Q 11.4 9.25 11.55 8.8 11.75 8.25 11.3 7.75 10.9 7.35 10 7.45 9.25 7.45 8.6 7.85 7.95 8.2 7.85 8.9 7.8 9.55 8.1 9.9 8.5 10.25 9.35 10.35 10.25 10.2 10.7 9.7 Z"/>

<path fill="#89B45C" stroke="none" d="
M 11.95 -1.2
Q 12.6 -1.6 13.15 -2.45 13.55 -3.25 13.6 -3.95 13.45 -4.55 12.85 -4.65 12.2 -4.9 11.55 -4.5 11.15 -4.25 10.8 -3.95 10.5 -3.6 10.35 -3.15 9.9 -2.45 10 -1.75 9.9 -1.05 10.55 -0.8 11.1 -0.75 11.75 -1.1 11.85 -1.15 11.95 -1.2
M 1.1 -1.8
Q 0.9 -1.7 0.75 -1.65 0.25 -1.2 0.15 -0.5 0 0.2 0.6 0.6 1.1 1.1 2.15 0.95 3 0.8 3.7 0.1
L 3.8 0.05
Q 4.45 -0.4 4.5 -1.05 4.65 -1.8 4 -2.2 3.5 -2.6 2.7 -2.55 1.7 -2.5 1.1 -1.8
M 2.6 -5.1
Q 2.6 -4.65 2.9 -4.35 3.1 -4.15 3.75 -4.25 4.2 -4.3 4.7 -4.65 4.95 -5 5.15 -5.35 5.2 -5.75 4.85 -6 4.45 -6.2 3.95 -6.15 3.45 -6.05 3.1 -5.7 2.65 -5.45 2.6 -5.1 Z"/>

<path fill="#6C6CCE" stroke="none" d="
M 8.9 -9.55
Q 9.05 -9.6 9.2 -9.7 9.85 -10.4 10.35 -10.95 10.55 -11.65 10 -12 9.55 -12.3 8.75 -12.05 8.45 -12 8.1 -11.9 7.55 -11.7 7.05 -11.2 6.25 -10.65 6.05 -9.9 5.8 -9.3 6.25 -9 6.6 -8.6 7.55 -8.85 8.3 -9.05 8.9 -9.55 Z"/>
</g>

<path id="Duplicate_Items_Folder_foot_copy_10_0_Layer1_0_1_STROKES" stroke="#000000" stroke-width="2" stroke-linejoin="round" stroke-linecap="round" fill="none" d="
M 52.9 -27.55
Q 52.1 -19.4 46.15 -13 45.1 -11.45 43.7 -10.2 40.1 -6.85 34.35 -5.35 31.5 -4.6 28.15 -4.35 27.9 -3.9 27.8 -3.35
M 28.15 -3.25
Q 28.1138671875 -2.2748046875 28.125 -1.25
L 28.3 -1.2 34.5 2.45
Q 39.4505859375 6.039453125 39.4 9.5 39.8783203125 20.2474609375 29.6 15
L 4.75 9
Q -1.3453125 11.5833984375 -9.775 10.35 -11.8017578125 10.060546875 -13.95 9.55
L -28.1 3.35 -21.4 2.5 -17.1 -2.8 -19.1 -8.35
Q -25.1984375 -12.089453125 -18.125 -13.875 -15.6681640625 -14.510546875 -11.6 -14.9 -6.511328125 -14.062109375 -3.25 -11.1 -2.2033203125 -10.15234375 -1.35 -9 -0.5412109375 -7.9142578125 0.1 -6.65
L 12.9 -2.7
Q 12.74453125 -3.083984375 12.6 -3.475 12.3134765625 -4.2837890625 12.125 -5.075 12.0072265625 -5.5306640625 11.925 -5.975
M 12 -5.95
Q 11.9388671875 -6.3005859375 11.9 -6.65 9.1 -8.3 8.8 -10.35 8.3 -11.95 9.4 -13.7 9.85 -14.5 10.65 -15.25 9.65 -16.45 8.85 -17.7 7.65 -19.5 6.8 -21.3 6.45 -22.05 6.1 -22.8 3.5 -29.05 4.85 -35.1 5.05 -37.9 6.45 -40.45 7.2 -41.85 8.3 -43.2 11.6 -47.25 17.95 -50.8 18.75 -51.2 19.65 -51.75
M 11.9 -6.65
Q 12.6 -6.25 13.4 -5.9 13.8 -5.75 14.2 -5.6 14.25 -5.6 14.3 -5.5 14.258984375 -5.4177734375 14.25 -5.3
L 14.25 -5.25
Q 14.2412109375 -5.2765625 14.225 -5.3 14.2 -5.4353515625 14.2 -5.6
M 27.8 -3.35
Q 27.55 -2.6 27.45 -1.65
M 28.125 -1.25
Q 28.1361328125 -0.8525390625 28.15 -0.45"/>

<path id="Duplicate_Items_Folder_foot_copy_10_0_Layer0_0_1_STROKES" stroke="#000000" stroke-width="0.75" stroke-linejoin="round" stroke-linecap="round" fill="none" d="
M 30.3 -27.35
Q 31.5 -27.15 32.2 -26.35 33 -25.55 32.9 -24.5 32.7 -23.55 31.7 -22.85 30.8 -22.2 29.55 -22.5 28.4 -22.6 27.6 -23.55 27.2 -23.95 27.05 -24.45 27 -24.8 27 -25.25 27.05 -25.9 27.4 -26.35 27.7 -26.7 28.15 -27 29.15 -27.55 30.3 -27.35 Z
M 23.85 -24.95
Q 24.6 -24.2 24.4 -23.25 24.35 -22.4 23.5 -21.85 22.85 -21.3 21.75 -21.5 21 -21.65 20.4 -22.05 20.15 -22.15 20 -22.45 19.4 -23.3 19.35 -24.15 19.5 -25.1 20.35 -25.6 20.45 -25.65 20.6 -25.65 21.15 -26.05 22.1 -25.8 23.1 -25.7 23.85 -24.95 Z
M 31.4 -29.7
Q 31.3 -30.4 31.7 -30.85 32.1 -31.25 32.95 -31.3 33.6 -31.45 34.4 -31.05 35.1 -30.55 35.25 -29.9 35.35 -29.35 35 -28.75 34.5 -28.15 33.75 -28.15 32.95 -28.15 32.4 -28.6 31.55 -29.05 31.4 -29.7 Z
M 32.65 -15.55
Q 32.3 -16.3 32.8 -16.95 33.15 -17.5 34 -17.6
L 34.1 -17.6
Q 35.05 -17.9 35.8 -17.5 36.8 -17.1 37 -16.3 37.3 -15.55 36.8 -14.9 36.35 -14.3 35.7 -14.1 35.55 -14.15 35.35 -14.15 34.45 -13.85 33.6 -14.4 32.9 -14.8 32.65 -15.55 Z
M 32.45 -12.7
Q 32.6 -12.25 32.4 -11.8 32.15 -11.45 31.6 -11.45 31.15 -11.35 30.65 -11.6 30.2 -11.8 29.95 -12.25 29.8 -12.65 30.05 -13.05 30.4 -13.25 30.8 -13.45 31.35 -13.5 31.85 -13.35 32.4 -13.05 32.45 -12.7 Z
M 26.45 -21.1
Q 27.25 -21.05 27.7 -20.75 28.1 -20.1 27.7 -19.45 27.4 -18.75 26.7 -18.25 26.3 -17.95 25.9 -17.7 25.45 -17.6 25 -17.6 24.2 -17.6 23.75 -18.25 23.25 -18.75 23.5 -19.4 23.85 -20.1 24.6 -20.65 25.5 -21.1 26.25 -21.1 26.35 -21.1 26.45 -21.1 Z
M 25.45 -8.35
L 25.4 -8.35
Q 24.75 -8.15 24.15 -8.3 23.8 -8.35 23.5 -8.5 22.7 -8.7 22.45 -9.3 22.15 -9.95 22.7 -10.45 23.4 -10.8 24.3 -11.1 24.5 -11.1 24.65 -11.1 25.45 -11.15 26.2 -11 27.15 -10.65 27.25 -10.05 27.5 -9.5 27 -9.05 26.45 -8.45 25.45 -8.35 Z"/>

<path id="Duplicate_Items_Folder_arm__copy_5_0_Layer0_0_1_STROKES" stroke="#000000" stroke-width="1" stroke-linejoin="round" stroke-linecap="round" fill="none" d="
M 7.075 -32.975
Q 6.27734375 -33.56484375 5.25 -34.15 1.35 -36.35 -3.65 -34.8 -8.5 -33.3 -13.55 -31.15 -15.05 -28.85 -14.25 -26.4
M 0 -15.55
Q 2.4 -16.7 1.65 -22.5 5.05 -22.65 8.25 -20.55 7.4 -24.3 5.1 -27.3
L 3.8 -28.8
M 5.1 -27.3
Q 7.1 -29.4 9.75 -29.55 9.34296875 -31.2888671875 7.075 -32.975
M -13.8 -31.1
L -12.9 -35.55 -11.7 -37.5
Q -10.65 -39.95 -11.35 -42.2 -11.4 -42.4 -11.45 -42.5
M -7.75 -24.5
Q -7.85 -24.9 -7.8 -25.3
M -17.35 -27.05
Q -17.25 -29.45 -13.8 -31.1 -13.75 -31.15 -13.55 -31.15
M -13.45 -31.5
L -13.8 -31.1
M -27.1 -37
L -24.8 -29.7
Q -25.25 -28.35 -25.5 -26.8 -26 -23.75 -23.75 -21.3 -21.5 -18.9 -17.5 -19.35 -13.5 -19.85 -11.65 -21.1
L -6.95 -20.9
Q -9.45 -21.8 -9.95 -23.5
M -3.525 -20.275
Q -3.1712890625 -20.0712890625 -2.9 -19.8 -2.1 -19.05 -1.15 -17.15
L -0.3 -15.45
Q -0.15 -15.45 0 -15.55
M -5.8 -20.85
Q -5.4 -20.8 -5.05 -20.8 -4.1564453125 -20.6404296875 -3.525 -20.275
M -6.95 -20.9
L -6.25 -20.85
Q -6.05 -20.9 -5.8 -20.85 -7.55 -22.45 -7.75 -24.5"/>

<path id="body_side_0_Layer6_0_1_STROKES" stroke="#000000" stroke-width="2" stroke-linejoin="round" stroke-linecap="round" fill="none" d="
M 46.15 -173.6
Q 46.45 -172.55 46.6 -171.6 47.35 -167.6 46.45 -163.8 45.35 -158.9 41.4 -155.35 48.7 -156.25 52.8 -164.3 56.25 -154.5 54.35 -148.3 52.55 -142.85 47.1 -139.3 53.3 -139.15 57.3 -142.35 59.4 -143.95 61 -146.5 62.1 -140.8 60.3 -136.5 59.05 -133.75 56.75 -131.4 52.4 -127.3 44.3 -125.15 51.1 -121.2 63.5 -125.95 56.9 -108.6 41.65 -116.85 44.5 -110.1 55.95 -107.85 40.35 -102.55 36.95 -106.2 37.85 -99.75 45.15 -96.45 27.5 -94.35 20.4 -102.8
L 20.15 -93.8
M 21.05 -93.4
L 24.85 -89.45 19.05 -87.2
M 18.55 -87.05
L 17.5 -80.55 11.9 -81.2
M 11.95 -81.85
Q 11.65 -88.35 10.75 -94.6 9.8 -100.95 8.35 -107 5.8 -118 1.35 -128.3 2.1 -128.9 2.8 -129.65 23.8 -149.4 34.65 -179.95 34.95 -180.9 35.35 -181.9 36.4 -184.95 37.35 -188.15 44.1 -180.5 46.15 -173.6"/>

<path id="body_side_0_Layer5_0_1_STROKES" stroke="#000000" stroke-width="2" stroke-linejoin="round" stroke-linecap="round" fill="none" d="
M 32.45 -148.55
Q 33.05 -149.4 34.3 -149.9 36.55 -151.05 38.8 -150.4 41.3 -149.6 42.35 -147.15 43.25 -145.5 42.85 -143.65 42.7 -143.85 42.25 -143.95 40.35 -144.5 38.4 -143.8 38.1 -143.65 37.75 -143.55 36.15 -142.85 35.2 -141.4 34.8 -140.75 34.7 -140.25
M 23.65 -145.5
Q 24.5 -147.9 26.6 -148.7 28.95 -149.8 31.2 -149.1 31.85 -148.85 32.45 -148.55 33.9 -147.65 34.7 -145.9 34.95 -145.3 35.3 -144.85
L 35.45 -143.45 35.45 -143.05
Q 35.45 -143 35.45 -142.85
L 35.425 -142.775
Q 35.29375 -142.1501953125 35.2 -141.4
M 20.5 -135.2
Q 20.9 -135.9 22 -136.3 23.95 -137.3 26.1 -136.65 28.3 -135.85 29.1 -133.85 29.8 -132.45 29.9 -130.95 30.05 -130.85 30.45 -130.75 31 -131.5 32 -131.9 33.85 -132.85 35.85 -132.15 37.85 -131.65 38.8 -129.55 39.6 -128.1 39.4 -126.6 41.05 -125.95 41.7 -124 42.85 -122.25 42.1 -120.3
M 32.3 -123.6
Q 32.7 -124.1 32.85 -124.65 33.0861328125 -125.8775390625 32.825 -127.15
M 32.65 -124.65
L 32.65 -124.6
Q 32.65 -124.35 32.45 -124.1
M 22.4 -127.7
Q 22.6 -128.05 22.65 -128.2 22.75 -128.45 22.9 -128.5
L 22.9 -128.75
Q 23.15 -129.95 23 -131.15
M 12.6 -132.2
Q 13.35 -134.3 15.2 -134.95 17.3 -136.15 19.15 -135.6 19.95 -135.2 20.5 -135.2 21.8 -134.15 22.5 -132.7 22.75 -132.3 23 -131.8
M 25.55 -130.95
Q 27.5 -131.9 29.35 -131.15 29.6 -131.15 29.9 -130.95
M 22.9 -128.75
Q 23.275 -129.125 23.65 -129.45
L 23.7 -129.5 23.7 -129.55 23.8 -129.75 25.05 -130.7
Q 25.15 -130.85 25.5 -130.85
L 25.55 -130.95
M 23 -131.15
L 23.05 -131.65 23 -131.8
M 22.9 -128.5
Q 23.2751953125 -129.109765625 23.65 -129.45
M 32.825 -127.15
L 32.8 -127.3 32.85 -127.55 32.8 -127.7
Q 32.65 -128.1 32.45 -128.5 31.75 -129.95 30.45 -130.75
M 32.85 -124.65
Q 33.6 -125.8 34.95 -126.5 35.1 -126.6 35.7 -126.6 37.2 -127.4 38.9 -126.75 39.05 -126.85 39.4 -126.6
M 12.4 -118.3
Q 13.25 -120.65 15.25 -121.45 17.5 -122.65 19.95 -121.75 20.55 -121.6 21.2 -121.3 21.8 -122.25 23.05 -122.6 25.3 -123.7 27.55 -123.15 30.05 -122.35 31.1 -120 31.9 -118.3 31.65 -116.4 33.6 -115.6 34.55 -113.5 35.6 -111.55 34.9 -109.15
M 23.45 -113.1
Q 23.65 -113.55 23.95 -114.05 24.081640625 -115.0587890625 24.1 -115.825
L 24.1 -116.4 24.2 -116.65 23.95 -117.65
Q 23.7 -118.15 23.45 -118.65 22.65 -120.5 21.2 -121.3
M 27.15 -116.45
Q 29.1 -117.35 31 -116.7 31.35 -116.7 31.65 -116.4
M 23.95 -114.05
Q 24.9 -115.65 26.45 -116.3 26.85 -116.3 27.15 -116.45"/>

<path id="body_side_0_Layer4_0_1_STROKES" stroke="#000000" stroke-width="1.5" stroke-linejoin="round" stroke-linecap="round" fill="none" d="
M 60.9 -49.7
Q 51.25 -48.5 47 -53.25 44.2 -57.1 43.45 -60.6 42.2 -65.6 44.9 -70.1 47 -74.35 49.45 -77.8 56.2685546875 -82.5419921875 59.15 -83.6 62.0359375 -84.6560546875 67.9 -83.85 73.7544921875 -83.048046875 75.4 -82.7 75.85 -82.5 76.2 -82.4 83.1 -80.7 85.5 -78.5 85.55 -78.4 85.6 -78.4 87.75 -76.3 89.45 -69.9 90.75 -65.35 91.25 -60.4 91.4 -57.1 91.3 -53.55 91.2955078125 -53.1455078125 90.125 -40.8 88.9646484375 -28.458984375 81.15 -18.925 73.3228515625 -9.399609375 73 -8.875 72.6884765625 -8.339453125 70.15 -6.15 59.8044921875 2.660546875 52.5 7.125 45.1896484375 11.574609375 39.625 12.75 34.0671875 13.93515625 27.725 12.175
L 27.15 12.225
M 28.375 12.4
L 27.725 12.425 27.65 12.425 27.575 12.425 27.5 12.425 27.475 12.425 27.45 12.425 27.3 12.425 27.125 12.575 29.85 12.825
Q 18.21015625 14.0205078125 10.35 12.65
L 8.575 12.45 5.45 11.9
Q 2.0634765625 11.2412109375 -1.575 9.425 -1.6689453125 9.3779296875 -1.75 9.325 -5.199609375 7.5513671875 -7.6 4.05 -9.8521484375 0.7673828125 -11.5 -2.775 -13.5220703125 -7.0830078125 -14.65 -11.775 -15.3603515625 -14.73671875 -15.2 -18.625 -14.9333984375 -24.6640625 -12.55 -32.95 -12.0498046875 -34.69375 -11.45 -36.55 -9.4119140625 -42.8599609375 -8.125 -47.05 -6.104296875 -53.6529296875 -5.95 -55 -5.4447265625 -59.685546875 -5.575 -63.65 -5.83125 -72.6275390625 -9.3 -77.9 -12.05 -81 -19.35 -85.7
M 2.15 -97
L 17 -83.9
Q 37.306640625 -56.9173828125 43.65 -36.85 43.6490234375 -36.591015625 45.675 -34.4 47.68984375 -32.2099609375 52.075 -29.775 56.463671875 -27.3416015625 59.825 -29.025 68.165625 -33.465625 73.25 -38 84.55 -51.85 76.9 -69.05
L 71.5 -72.75
Q 67.5 -74.7 63.95 -74.3 61.95 -74 60.45 -73.25 57.7 -72.15 54.9 -69.55 53.6 -68.6 52.35 -67.2 52.05 -66.7 51.85 -66.15 50.2 -62.15 50.5 -57.3 50.55 -52.95 61.45 -50.35
L 58.65 -59.4 66.1 -52.075 71.5 -46.75 64.15 -45.2 53.15 -42.9 54.5 -44.4 54.95 -44.7 60.9 -49.7
M 60.8 -50
L 60.45 -50.1 60.35 -50.2 61.45 -50.35
M -4.875 -77.15
Q -1.835546875 -75.3548828125 1.95 -71.25 2.1365234375 -67.81640625 2.15 -64.625 2.149609375 -60.5392578125 1.85 -56.85 1.13671875 -48.147265625 -1.25 -41.65 -2.035546875 -37.9876953125 -2.125 -34.3 -2.5775390625 -16.9818359375 12.2 0.9
L 27.075 11.7
Q 27.3529296875 11.9751953125 27.1 12.075 27.36953125 12.1125 27.675 12.15
M 54.95 -44.7
L 53.15 -42.9
M 26.3 12.05
L 26.5 12.1 26.625 12.1 26.35 12 26.3 12.05 26.45 12.1 26.5 12.1 26.825 12.175 26.625 12.1
M 26.675 12.1
L 26.35 12 26.375 11.975
Q 26.60546875 11.6935546875 27.075 11.7
M 26.55 12.15
Q 26.50625 12.1375 26.475 12.125 26.431640625 12.1123046875 26.4 12.1
M 26.3 12.1
L 26.375 12.125
M 26.55 12.15
L 26.85 12.225 26.45 12.1
M 26.4 12.1
L 26.3 12.05
M 26.725 12.225
L 26.775 12.225
Q 26.6482421875 12.1892578125 26.55 12.15
M 26.825 12.1
Q 26.886328125 12.121875 26.95 12.125
L 26.975 12.125
Q 27.05078125 12.108984375 27.1 12.075 26.68046875 12.0279296875 26.375 11.975
L 26.775 12.1
Q 26.8005859375 12.10625 26.825 12.1
L 27.05 12.2
Q 27.0154296875 12.126953125 26.975 12.125
M 26.875 12.275
L 26.85 12.25
Q 26.7869140625 12.2427734375 26.725 12.225
L 26.875 12.275 26.575 12.2 26.725 12.225
M 26.775 12.225
Q 26.8076171875 12.2390625 26.85 12.25 26.9546875 12.2806640625 27.05 12.3
L 27.075 12.3 26.775 12.225 Z
M 26.675 12.1
L 26.775 12.1 27.05 12.2 27.1 12.225 27.15 12.225
Q 27.40625 12.140234375 27.675 12.15
M 26.825 12.175
L 27.05 12.25 27.2 12.275 27.075 12.225 27 12.2 26.675 12.1
M 27.05 12.2
L 27.075 12.225 27.1 12.225 27.35 12.325 27.425 12.35 27.725 12.425 27.575 12.4 27.65 12.425 27.525 12.4 27.575 12.425
M 26.85 12.225
L 27.075 12.3 27.35 12.35 27.3 12.325 26.85 12.225 Z
M 27 12.2
L 26.775 12.1
M 27.05 12.3
L 26.875 12.275 27.375 12.4
Q 27.2228515625 12.3578125 27.05 12.3 Z
M 27.2 12.275
L 27.35 12.325
M 27.05 12.25
L 27.3 12.325 27.2 12.275
M 27.525 12.4
L 27.4 12.375 27.5 12.425
M 27.525 12.4
L 27.475 12.375 27.35 12.35 27.4 12.375 27.075 12.3 27.375 12.4
Q 27.4294921875 12.410546875 27.475 12.425
M 27.45 12.425
Q 27.4126953125 12.4142578125 27.375 12.4
M 27.475 12.375
L 27.575 12.4 27.425 12.35 27.475 12.375 27.3 12.325
M 26.875 12.275
Q 27.05625 12.3404296875 27.3 12.425
M 26.375 12.125
Q 26.5529296875 12.2458984375 27.125 12.575
M 6.65 5.65
L 2.35 7.625
M -9.6 -78.4
L -9.7 -78.5
Q -7.58671875 -78.752734375 -4.875 -77.15
M -2.225 -64.675
Q -2.2279296875 -64.62578125 -2.225 -64.575
M -7.325 -33.475
Q -6.5669921875 -33.8333984375 -5.7 -34.3
M -9.3 -77.9
Q -9.45 -78.2 -9.6 -78.4
L -8.7 -77.25
Q -9 -77.6 -9.3 -77.9 Z
M -2.225 -64.575
L -5 -63.6
M -4.125 -47.325
L -8.125 -47.05
M -12.55 -32.95
Q -11.7849609375 -31.365625 -7.325 -33.475
M -9.05 -18.275
Q -7.5248046875 -18.9978515625 -6 -20.5
M -10.65 -3.2
Q -7.6423828125 -2.7158203125 -5.025 -3.325
M -15.2 -18.625
Q -12.1248046875 -16.8490234375 -9.05 -18.275
M -5.025 -3.325
Q -1.9080078125 -4.079296875 0.65 -6.4
M 2.35 7.625
L -1.575 9.425"/>

<path id="body_side_0_Layer3_0_1_STROKES" stroke="#000000" stroke-width="1" stroke-linejoin="round" stroke-linecap="round" fill="none" d="
M 15.4 -85.55
Q 14.8 -85.65 14.15 -85.65 11.7 -85.55 10.9 -83.9 10 -82.35 11.25 -80.25 12.65 -78.15 15.15 -76.8 17.8 -75.35 20.3 -75.55 22.75 -75.7 23.6 -77.25 24.4 -78.9 23.15 -80.95 22.6 -81.85 21.75 -82.55
M 15.85 -85.5
Q 15.75 -85.5 15.7 -85.5
L 15.65 -85.5
Q 15.6 -85.55 15.6 -85.5 15.45 -85.55 15.4 -85.55"/>

<path id="body_side_0_Layer2_0_1_STROKES" stroke="#000000" stroke-width="1" stroke-linejoin="round" stroke-linecap="round" fill="none" d="
M 16.6 -66.55
Q 15.9 -65.55 14.9 -65.4 13.75 -65.15 12.75 -65.65 11.75 -66.15 11.6 -67.15 11.35 -68.1 11.95 -69.1 12.7 -69.95 13.7 -70.25 14.9 -70.5 15.7 -69.95 16.75 -69.45 16.95 -68.45 17.25 -67.45 16.6 -66.55 Z
M 5.95 -55.9
Q 5.65 -57.15 6.1 -58.15 6.8 -59.2 7.85 -59.4 8.9 -59.75 9.9 -59.05 10.85 -58.4 11.2 -57.1 11.4 -56.5 11.3 -55.9 11.2 -55.35 10.85 -54.85 10.3 -53.9 9.25 -53.65 8.1 -53.35 7.15 -53.95 6.3 -54.7 5.95 -55.9 Z
M 14.95 -55.95
Q 16.45 -59.2 19.5 -59.95 22.65 -60.6 24.75 -57.9 26.7 -55.15 27.7 -51.1 28.65 -47.1 28 -44.15 27.1 -41.25 24.05 -40.65 20.95 -39.9 18.25 -42.25 15.4 -44.4 14.45 -48.45 13.65 -51.8 14.6 -54.8 14.75 -55.35 14.95 -55.95 Z
M 20.95 -33.75
Q 20.8 -33.2 20.35 -32.8 19.5 -31.75 18.05 -31.5 16.6 -31.15 15.5 -31.55 14.3 -32.05 14.1 -33.05 13.85 -34 14.5 -34.95 15.4 -35.95 16.85 -36.25 18.45 -36.6 19.5 -36.2 20.7 -35.6 20.95 -34.7 21.1 -34.2 20.95 -33.75 Z
M 28.7 -36.85
Q 30.75 -37.2 32.5 -36.15 34.3 -35.15 34.7 -33.15 35.25 -31.25 34.15 -29.45 33.05 -27.75 31 -27.4 29.1 -26.85 27.2 -27.95 25.65 -28.9 25.15 -30.95 24.95 -31.9 25.1 -32.8 25.25 -33.7 25.65 -34.65 26.75 -36.35 28.7 -36.85 Z
M 19.35 -19.8
Q 20.15 -20.1 20.95 -19.5 21.75 -18.8 22.35 -17.65 22.75 -16.5 22.75 -15.5 22.5 -14.35 21.75 -14.05 21 -13.75 20.2 -14.3 19.35 -14.95 18.8 -16.1 18.3 -17.3 18.55 -18.45 18.5 -19.45 19.35 -19.8 Z
M 36.85 -19.8
Q 35.8 -20.65 35.85 -21.9 35.75 -23.2 36.65 -24.05 37.55 -24.95 38.75 -25 40.05 -24.95 41 -24.1 41.95 -23.3 41.9 -21.95 42.05 -20.7 41.15 -19.8 40.7 -19.25 40.15 -19.1 39.65 -18.85 38.95 -18.95 37.8 -18.85 36.85 -19.8 Z
M 33.5 -19.6
Q 34.5 -19.2 35.45 -18.4 36.35 -17.45 36.7 -16.45 36.9 -15.75 36.75 -15.25 36.65 -15 36.4 -14.75 35.75 -14.2 34.8 -14.6 33.7 -14.85 32.8 -15.6 31.8 -16.5 31.6 -17.5 31.25 -18.6 31.95 -19.2 32.5 -19.75 33.5 -19.6 Z
M 39.5 -13.9
Q 39.7 -14.55 40.2 -15.1 40.65 -15.6 41.25 -15.85 41.85 -16.05 42.55 -16 44.05 -16 45.2 -14.9 46.25 -13.75 46.25 -12.3 46.35 -11.6 46.15 -11 45.95 -10.4 45.55 -9.85 44.55 -8.85 43.1 -8.95 41.7 -9.05 40.55 -10.1 39.5 -11.25 39.4 -12.7 39.35 -13.4 39.5 -13.9 Z
M 29.5 -7
Q 29.85 -7.8 30.8 -8.25 31.65 -8.7 32.65 -8.25 33.6 -7.75 34.05 -6.8 34.05 -6.75 34.15 -6.7 34.6 -5.6 34.35 -4.6 34 -3.45 32.95 -3.05 32.1 -2.7 31.1 -3.2 30.25 -3.6 29.8 -4.4 29.75 -4.55 29.7 -4.75 29.05 -5.8 29.5 -6.95
L 29.5 -7 Z
M 26.6 -11.05
Q 27.05 -10.65 27.4 -10.15 27.65 -9.5 27.5 -8.9 27.3 -8.3 26.75 -8.15 26.35 -7.9 25.7 -8.2 25.05 -8.4 24.9 -9.15 24.65 -9.6 24.8 -10.2 25 -10.8 25.55 -11.1 25.95 -11.25 26.6 -11.05 Z
M 56.5 -18.75
Q 56.3 -19.8 56.85 -20.7 57.4 -21.7 58.55 -22.1 59.7 -22.35 60.8 -21.9 61.8 -21.5 61.95 -20.4 62.35 -19.4 61.8 -18.45 61.35 -17.45 60.1 -17.1 58.9 -16.7 57.85 -17.25 56.8 -17.7 56.5 -18.75 Z
M 48.4 -8.3
Q 48.1 -9.2 48.6 -10 49 -11.05 49.9 -11.2 50.75 -11.45 51.55 -10.9 52.25 -10.5 52.5 -9.6 52.9 -8.75 52.5 -7.85 52.1 -6.9 51.25 -6.65 50.5 -6.5 49.55 -6.9 48.7 -7.35 48.4 -8.3 Z
M 57.8 -10.15
Q 57.95 -11.05 58.55 -11.25 59.05 -11.4 59.65 -10.85 60.3 -10.25 60.65 -9.3 60.95 -8.4 60.65 -7.45 60.45 -6.8 59.9 -6.55 59.35 -6.4 58.8 -6.9 58.35 -7.65 57.95 -8.5 57.7 -9.45 57.8 -10.15 Z"/>

<path id="body_side_0_Layer1_0_1_STROKES" stroke="#000000" stroke-width="2" stroke-linejoin="round" stroke-linecap="round" fill="none" d="
M 84.95 -144.35
Q 90.8 -145.95 94.6 -150.45 97.65 -154.1 98.95 -158.9 101.35 -167.75 97.95 -180.7 95.3 -177.8 92.6 -175.15 91.7 -174.35 90.8 -173.55 63.35 -147.4 31.1 -137.85 30 -137.5 28.85 -137.2 28.45 -130.7 27.5 -124.2 26.5 -117.75 24.9 -111.3 22 -99.1 17.05 -86.9 16.25 -85.05 15.45 -83.2
M 15.05 -82.55
L 20.5 -78.85 25.05 -85.1
M 35.2 -100.65
Q 38.15 -88.1 57.8 -80.95 51.85 -88.25 54.25 -95.4 56 -89.85 75 -87.15 64.3 -95.5 64.85 -104 76.35 -87.35 92.4 -102 77 -103.6 72 -111.3 81.55 -109.3 88.25 -111.3 91.85 -112.45 94.6 -114.7 98.75 -118.25 100.6 -124.75 97.65 -123 94.6 -122.35 88.65 -121.2 82.4 -124.6 89.85 -125.4 94.6 -130.15 99.8 -135.6 101.4 -147.55 92.9 -141.4 84.95 -144.35
M 30.3 -91.3
L 35.2 -100.65
M 31 -90.5
L 32.85 -84.3 25.65 -85.1"/>

<path id="body_side_0_Layer0_0_1_STROKES" stroke="#000000" stroke-width="2" stroke-linejoin="round" stroke-linecap="round" fill="none" d="
M 35.05 -120.95
Q 37.2 -123 39.8 -122.75 42.75 -122.75 44.75 -120.65 45.35 -120.15 45.9 -119.45 46.95 -120.15 48.45 -119.85 51.45 -119.85 53.45 -118 55.6 -116 55.45 -112.85 55.45 -110.7 54.15 -108.9 55.8 -107 55.6 -104.35 55.8 -101.75 53.6 -99.6
M 43.9 -109.7
Q 44.3 -110.1 44.95 -110.5 45.8 -111.75 46.3 -112.75
M 61.15 -143.4
Q 63.35 -145.4 65.9 -145.15 68.9 -145.15 70.9 -143.15 71.45 -142.6 72 -141.95 73.05 -142.6 74.6 -142.35 77.55 -142.35 79.55 -140.4 81.75 -138.4 81.55 -135.25 81.55 -133.1 80.2 -131.35 80.15 -131.75 79.7 -132.05 78.05 -133.65 75.65 -133.85 75.2 -133.85 74.8 -133.9 72.8 -134.05 71.05 -133 70.3 -132.55 69.9 -132.15
M 72 -141.95
Q 73.05 -140.25 72.9 -138 72.9 -137.3 72.9 -136.65
M 72.15 -134.7
Q 71.7 -134 71.05 -133
M 72.9 -136.65
L 72.4 -135.1 72.25 -134.8 72.15 -134.7
M 50.45 -125.55
Q 50.8 -125.8 51.05 -125.95 51.2 -126.1 51.45 -126.2
L 51.6 -126.35
Q 52.5 -127.55 52.9 -128.9
M 42.7 -135.45
Q 44.5 -137.2 46.85 -136.9 49.5 -137.05 51.25 -135.45 51.85 -134.7 52.4 -134.3 53.3 -134.85 54.65 -134.7 57.15 -134.65 59 -132.85 60.9 -130.95 60.75 -128.35 60.75 -126.6 59.95 -125 60.1 -124.75 60.5 -124.5 61.4 -125 62.7 -124.9 65.1 -124.9 66.85 -123.15 68.7 -121.55 68.65 -118.8 68.65 -116.85 67.5 -115.4 69.05 -113.8 68.7 -111.5 68.9 -109.15 67.1 -107.45
M 58.75 -116.05
Q 59.3 -116.4 59.8 -116.8 60.75 -118.05 61.15 -119.6
M 59.55 -117.05
L 59.4 -116.85
Q 59.3 -116.65 59.15 -116.45
M 53.2 -129.5
Q 53.2 -130.15 53.2 -130.7 53.3 -132.55 52.4 -134.3
M 51.6 -126.35
Q 52.08125 -126.56875 52.65 -126.7
L 52.8 -126.75 52.95 -126.85 53.7 -127.1 54.8 -127.15
Q 55.05 -127.3 55.35 -127.15
L 55.45 -127.15
M 53.2 -129.5
L 53.2 -129.35 52.9 -128.9
M 51.45 -126.2
Q 52.0638671875 -126.55078125 52.65 -126.7
M 55.45 -127.15
Q 57.95 -127.15 59.55 -125.55 59.8 -125.3 59.95 -125
M 46.85 -114.2
Q 46.85 -114.85 46.85 -115.5 46.95 -117.85 45.9 -119.45
M 46.3 -112.75
L 46.85 -114.2
M 49.5 -111.3
Q 52 -111.25 53.6 -109.55 54 -109.3 54.15 -108.9
M 44.95 -110.5
Q 46.7 -111.65 48.7 -111.5 49.1 -111.3 49.5 -111.3
M 61.3 -120
Q 61.3 -120.55 61.4 -121.05 61.4 -123 60.5 -124.5
M 61.15 -119.6
L 61.3 -119.85 61.3 -120
M 63.75 -117.45
Q 65.75 -117.45 67.1 -115.8 67.35 -115.8 67.5 -115.4
M 59.8 -116.8
Q 61.15 -117.65 62.95 -117.6 63.15 -117.6 63.75 -117.45"/>

<path id="head_2_0_Layer6_0_1_STROKES" stroke="#000000" stroke-width="1" stroke-linejoin="round" stroke-linecap="round" fill="none" d="
M -24.3 -54.65
Q -23.8 -53.6 -22.7 -50.3
L -21.55 -51.15
M -24.3 -54.65
L -24.35 -54.7
Q -22.2 -53.95 -20.35 -52.2 -18.8 -50.7 -17.5 -48.4 -17 -47.65 -16.5 -46.65 -16.25 -46.5 -16.2 -46.2 -15.7 -44.95 -15.45 -43.85 -14.65 -41.75 -14 -39.65 -13.65 -38.35 -13.3 -36.95 -14.85 -35.9 -16.75 -35.6 -17.4 -35.5 -18 -35.5
L -20.15 -35.65
Q -19.5 -38.95 -20.3 -42.55 -20.35 -42.7 -20.35 -42.95 -20.85 -44.3 -21.2 -45.4 -21.3 -46.15 -21.5 -46.4 -22.15 -48.65 -22.7 -50.3
M -21.55 -51.15
L -20.35 -52.2
M -17.55 -43.2
L -15.45 -43.85
M -19.5 -47.6
L -17.5 -48.4
M -19.55 -38.6
L -16.65 -39.3
M -20.3 -42.55
L -17.55 -43.2
M -16.65 -39.3
L -14 -39.65
M -21.5 -46.4
L -19.5 -47.6"/>

<path id="head_2_0_Layer5_0_1_STROKES" stroke="#000000" stroke-width="1" stroke-linejoin="round" stroke-linecap="round" fill="none" d="
M -33.3 9.875
Q -33.8955078125 8.3859375 -34.05 6.5
L -29.7 4.8 -28.525 11.325 -28.1 13.65 -28.45 14.5
Q -31.9732421875 13.1875 -33.3 9.875 Z
M -42.375 11.425
Q -44.0822265625 8.500390625 -43.7 4.55
L -39.2 4.55 -39.2 8.4 -39.2 13.75 -39.75 14.45
Q -41.4009765625 13.107421875 -42.375 11.425 Z"/>

<path id="head_2_0_Layer4_0_1_STROKES" stroke="#000000" stroke-width="1" stroke-linejoin="round" stroke-linecap="round" fill="none" d="
M 5.15 -38.65
L 0.7 -39.55
Q -5.1 -41.6 -9.85 -38.55 -10.1 -38.65 -10.35 -38.75
M -10.35 -38.55
Q -7.1 -36.8 -5.35 -34.55 -5.2 -34.45 -5.05 -34.35 -5 -34.35 -5 -34.3 -1.25 -31.75 -0.7 -27.8
L -0.7 -27.75
Q -0.65 -27.65 -0.65 -27.55 -0.6 -27 -0.6 -26.45
M 8.65 -37.925
Q 8.6240234375 -37.9318359375 8.6 -37.95
L 5.15 -38.65
M 8.65 -37.925
L 9.2 -37.8
Q 14.6 -33.7 10.7 -30.55 13.1 -25.65 12.5 -20.75
L 14.5 -17.2
Q 14.15 -14.2 16.25 -11.95
L 20 -1.65 18.75 4.85 22.8 8.8
M 6.95 19.3
Q 3.3 18.5 0.25 16.95 -2.8 15.4 -11.65 16
L -12.9 16.2
Q -17.91953125 13.9412109375 -19.725 10.65 -20.805859375 8.678515625 -20.75 6.35
L -26.95 5.4 -30.95 7.4
Q -34.801171875 7.3564453125 -38.65 6.9 -41.7279296875 6.5294921875 -44.8 5.9 -46.8 1.5 -42 -2.9 -42.0046875 -2.9341796875 -42 -2.975 -42.415234375 -6.17734375 -39.15 -8.75 -40.2880859375 -11 -40 -11.45 -39.708984375 -11.9 -39.475 -12.3 -39.2470703125 -12.7 -37.875 -13.25 -36.5 -13.8 -35.5 -13.8 -34.55 -13.8 -34.5 -12.95 -34.5 -12.1 -34.6 -11.65
M -34.5 -11.4
Q -33.55 -11.8 -32.45 -12.2
L -28.45 -14.95 -28.45 -15.15 -28.35 -15.55 -28.7 -29.25
Q -31.40234375 -32.2486328125 -26.925 -34.875 -26.8193359375 -34.933203125 -26.7 -35
M -26.225 -34.925
Q -26.181640625 -34.9419921875 -26.15 -34.95 -26 -35 -25.85 -35
L -25.45 -35.8
Q -23.15 -38.1 -19.15 -37.8 -19.0826171875 -37.8673828125 -19.025 -37.9
L -18.9 -38 -18.95 -37.95
Q -18.978515625 -37.935546875 -19.025 -37.9
M -9.55 15.7
L -11.65 16
M -41.7 -3.125
L -42 -2.975
M -38.075 -9.55
Q -38.6626953125 -9.1537109375 -39.15 -8.75
M -10.35 -38.75
Q -15.0486328125 -40.28515625 -19.15 -37.75 -19.447265625 -37.5623046875 -19.75 -37.35
L -19.15 -37.8
M -18.1 -36.8
Q -15.6 -36.95 -13 -36.15 -9.95 -35 -7.25 -33.4 -6.7 -33.05 -6.1 -32.55 -3.65 -30 -2.7 -27.4
M -18.95 -36.7
Q -18.6 -36.75 -18.2 -36.8 -18.15 -36.8 -18.1 -36.8
M -18.95 -36.7
Q -21.35 -35.7 -22.8 -34.55
L -25.85 -35
M -4.2 -26.55
Q -3.9103515625 -25.970703125 -3.675 -25.4 -3.467578125 -24.90859375 -3.3 -24.425 -3.263671875 -24.3126953125 -3.225 -24.2 -3.2015625 -24.112890625 -3.175 -24.025 -3.16171875 -23.987890625 -3.15 -23.95 -3.15 -23.88515625 -3.15 -23.825 -3.127734375 -23.735546875 -3.1 -23.65 -1.1 -20 -1.65 -17.1
M -3.675 -25.4
L -3.525 -24.85 -3.45 -24.7 -3.3 -24.425
M -22.075 -31.25
Q -21.3869140625 -33.59296875 -18.1 -35.15 -13.25 -34.65 -8.15 -31.95 -5.6 -29.25 -4.2 -26.55
M -4.025 -20.625
Q -3.39921875 -22.3244140625 -3.45 -24.7 -3.2958984375 -24.3796875 -3.225 -24.2
M -19.425 -13.675
Q -21.1822265625 -14.8388671875 -23.775 -15.15 -25.6490234375 -15.369140625 -27.95 -15.15
M -19.425 -13.675
Q -18.9841796875 -13.3900390625 -18.6 -13.05
M -34.1 -7.45
Q -33.8484375 -7.83984375 -33.625 -8.175 -32.9365234375 -9.188671875 -32.45 -9.75 -32 -10.25 -31.65 -10.4 -31.6 -10.45 -31.55 -10.5 -30.75 -10.9 -30.35 -11.15 -29.9 -11.5 -28.65 -11.2 -28.15 -11.05 -27.65 -10.85
M -27.4 -11.4
Q -27.25 -11.35 -27.15 -11.3 -26.05 -10.85 -25.2 -10.3 -20.1 -7.4 -21.3 -3.75
M -34.5 -11.4
Q -34.5802734375 -11.366796875 -34.65 -11.325
M -25.65 -9.6
Q -25.6 -9.55 -25.6 -9.45 -23.15 -3.85 -25.2 -2.45
M -27.65 -10.85
Q -27.55 -10.8 -27.45 -10.75 -26.8 -10.5 -26.25 -10.15 -25.9 -9.9 -25.75 -9.55 -25.7 -9.5 -25.65 -9.45 -25.3 -8.55 -25.7 -6.9 -26.25 -4.45 -29.625 -2.05
L -29.35 -1.25
M -3.175 -24.025
L -3.175 -24
Q -3.1552734375 -23.8935546875 -3.15 -23.825
M -7.25 -16.975
Q -7.3681640625 -16.8677734375 -7.5 -16.75
M -4.025 -20.625
L -4.85 -18.2
M -20.15 -11.3
Q -22.95 -14.1 -27.95 -15.15
M -40.4 -3.75
L -41.7 -3.125
M -8.125 1.375
L -8.1 1.35 -6.85 1.1 -6.375 3.575
M -15.675 3.575
L -15.5 3.6
M -19.975 5.575
L -19.3 5.175
M -8.125 1.375
L -11.3 4.325 -15.5 3.6
M -15.675 3.575
L -16.4 3.4 -16.55 3.5 -19.3 5.175
M -19.975 5.575
L -20.9 6.15 -20.75 6.35
M -16.975 2.375
L -17.075 2.075
M -27.25 5.2
L -26.35 2.125
M -17.075 2.075
L -17.35 1.35
M -16.55 3.5
L -16.975 2.375
M -26.35 2.125
L -26.2 1.65
M -7.275 0.475
L -12.4 -2.9"/>

<path id="head_2_0_Layer3_0_1_STROKES" stroke="#000000" stroke-width="1" stroke-linejoin="round" stroke-linecap="round" fill="none" d="
M -18.9 -19.6
Q -19 -20 -19.1 -20.45 -19.6 -23.05 -19 -25.1 -18.883203125 -25.5087890625 -18.725 -25.875 -22.25 -20.2 -20.1 -15.6
M -18.725 -25.875
Q -18.46640625 -26.480859375 -18.1 -27 -16.3 -29.6 -15.05 -29.4 -13.85 -29.25 -11.2 -26.9 -8.55 -24.6 -7.75 -20.85 -7.15 -18.25 -7.85 -16.15 -8 -15.85 -8.1 -15.55 -8.35 -15 -8.7 -14.5 -10.15 -12.45 -11.75 -11.8 -12.15 -11.65 -12.55 -11.6 -14.65 -11.3 -16.5 -13.85 -18.15 -16.15 -18.9 -19.6 -14.3078125 -16.7671875 -8.1 -15.55
M -28.45 -28.75
Q -26.65 -28.65 -25.05 -25.75 -24.1 -24.05 -23.8 -22.95 -23.65 -22.2 -23.75 -21.7 -24.1 -20.55 -25.4 -19.25 -26.4 -18.25 -27.6 -18.2 -28 -18.15 -28.45 -18.25
M -28.55 -18.25
L -29.2 -20.55
Q -30.49140625 -24.6744140625 -28.6 -28.6
M -29.2 -20.55
Q -26.334375 -21.1703125 -23.8 -22.95
M -2.05 -13.15
L -7.3 -15.325 -2.85 -11.25
M -3.3 -15.85
L -7.2 -15.95
M -7.3 -15.325
L -7.6 -15.6
M -6.1 -11.2
Q -7.45 -9.8 -11.65 -11.5"/>

<path id="head_2_0_Layer2_0_1_STROKES" stroke="#000000" stroke-width="1" stroke-linejoin="round" stroke-linecap="round" fill="none" d="
M 0.2 -40.45
L 2.85 -40.7
M -0.45 -36.5
Q 1.5 -36.55 3.5 -37.6 3.15 -41.3 2.25 -45.25
L -0.1 -44.95
M -3.7 -48.05
Q -3.45 -46.7 -3.2 -45.05 -3.25 -44.85 -3.25 -44.55
L -0.1 -44.95
M 2.25 -45.25
Q 2 -46.55 1.7 -47.95 1.5 -48.3 1.5 -48.65 1.1 -49.7 0.8 -50.6
L -1.5 -49.9
M -3.25 -54.15
L -1.7 -54.95
Q -3.55 -57.4 -5.65 -58.5
L -5.7 -58.4
M -1.5 -49.9
L -3.75 -49.25
Q -3.8 -48.75 -3.7 -48.05
M -3.25 -54.15
L -4.5 -53.45
Q -5.3 -57.25 -5.7 -58.4
M -4.5 -53.45
Q -4.25 -51.65 -3.75 -49.25
M -3.25 -44.55
Q -3 -40.7 -4.15 -37.3
L -1.85 -36.7
Q -1.2 -36.55 -0.45 -36.5
M -2.95 -40.3
L 0.2 -40.45
M 0.8 -50.6
Q -0.3 -53.3 -1.7 -54.95"/>

<path id="head_2_0_Layer1_0_1_STROKES" stroke="#000000" stroke-width="0.75" stroke-linejoin="round" stroke-linecap="round" fill="none" d="
M 10 -12
Q 10.55 -11.65 10.35 -10.95 9.85 -10.4 9.2 -9.7 9.05 -9.6 8.9 -9.55 8.3 -9.05 7.55 -8.85 6.6 -8.6 6.25 -9 5.8 -9.3 6.05 -9.9 6.25 -10.65 7.05 -11.2 7.55 -11.7 8.1 -11.9 8.45 -12 8.75 -12.05 9.55 -12.3 10 -12 Z
M 2.9 -4.35
Q 2.6 -4.65 2.6 -5.1 2.65 -5.45 3.1 -5.7 3.45 -6.05 3.95 -6.15 4.45 -6.2 4.85 -6 5.2 -5.75 5.15 -5.35 4.95 -5 4.7 -4.65 4.2 -4.3 3.75 -4.25 3.1 -4.15 2.9 -4.35 Z
M 1.1 -1.8
Q 1.7 -2.5 2.7 -2.55 3.5 -2.6 4 -2.2 4.65 -1.8 4.5 -1.05 4.45 -0.4 3.8 0.05
L 3.7 0.1
Q 3 0.8 2.15 0.95 1.1 1.1 0.6 0.6 0 0.2 0.15 -0.5 0.25 -1.2 0.75 -1.65 0.9 -1.7 1.1 -1.8 Z
M 11.95 -1.2
Q 11.85 -1.15 11.75 -1.1 11.1 -0.75 10.55 -0.8 9.9 -1.05 10 -1.75 9.9 -2.45 10.35 -3.15 10.5 -3.6 10.8 -3.95 11.15 -4.25 11.55 -4.5 12.2 -4.9 12.85 -4.65 13.45 -4.55 13.6 -3.95 13.55 -3.25 13.15 -2.45 12.6 -1.6 11.95 -1.2 Z
M 10.7 9.7
Q 10.25 10.2 9.35 10.35 8.5 10.25 8.1 9.9 7.8 9.55 7.85 8.9 7.95 8.2 8.6 7.85 9.25 7.45 10 7.45 10.9 7.35 11.3 7.75 11.75 8.25 11.55 8.8 11.4 9.25 10.7 9.7 Z
M 12.75 1.65
Q 13 1.9 13.15 2.2 13.35 2.75 13.3 3.25 13.2 3.65 12.9 4.1 12.35 5.05 11.2 5.5 10.15 5.95 9.2 5.7 8.15 5.5 7.75 4.65 7.55 3.85 8.05 2.8 8.55 1.9 9.7 1.45 10.75 1 11.9 1.25 12.4 1.35 12.75 1.65 Z"/>
</defs>

<g transform="matrix( 1.763519287109375, -0.549560546875, 0.519805908203125, 1.6678314208984375, 241.9,494.8) ">
<g transform="matrix( 1, 0, 0, 1, 0,0) ">
<use filter="url(#Filter_1)" xlink:href="#Duplicate_Items_Folder_foot_copy_10_0_Layer4_0_FILL"/>
</g>

<g transform="matrix( 1, 0, 0, 1, 0,0) ">
<use filter="url(#Filter_1)" xlink:href="#Duplicate_Items_Folder_foot_copy_10_0_Layer3_0_FILL"/>
</g>

<g transform="matrix( 1, 0, 0, 1, 0,0) ">
<use filter="url(#Filter_1)" xlink:href="#Duplicate_Items_Folder_foot_copy_10_0_Layer2_0_FILL"/>
</g>

<g transform="matrix( 1, 0, 0, 1, 0,0) ">
<use filter="url(#Filter_1)" xlink:href="#Duplicate_Items_Folder_foot_copy_10_0_Layer1_0_FILL"/>

<use filter="url(#Filter_1)" xlink:href="#Duplicate_Items_Folder_foot_copy_10_0_Layer1_0_1_STROKES"/>
</g>

<g transform="matrix( 1, 0, 0, 1, 0,0) ">
<use filter="url(#Filter_1)" xlink:href="#Duplicate_Items_Folder_foot_copy_10_0_Layer0_0_FILL"/>

<use filter="url(#Filter_1)" xlink:href="#Duplicate_Items_Folder_foot_copy_10_0_Layer0_0_1_STROKES"/>
</g>
</g>

<g transform="matrix( -1.82037353515625, -0.2398681640625, -0.2552947998046875, 1.9373016357421875, 188.55,367.3) ">
<g transform="matrix( 1, 0, 0, 1, 0,0) ">
<use filter="url(#Filter_2)" xlink:href="#Duplicate_Items_Folder_arm__copy_5_0_Layer0_0_FILL"/>

<use filter="url(#Filter_2)" xlink:href="#Duplicate_Items_Folder_arm__copy_5_0_Layer0_0_1_STROKES"/>
</g>
</g>

<g transform="matrix( 2.4521942138671875, 0.3131103515625, -0.3131103515625, 2.4521942138671875, 208.75,457) ">
<g transform="matrix( 1, 0, 0, 1, 0,0) ">
<use xlink:href="#body_side_0_Layer6_0_FILL"/>

<use xlink:href="#body_side_0_Layer6_0_1_STROKES"/>
</g>

<g transform="matrix( 1, 0, 0, 1, 0,0) ">
<use xlink:href="#body_side_0_Layer5_0_FILL"/>

<use xlink:href="#body_side_0_Layer5_0_1_STROKES"/>
</g>

<g transform="matrix( 1, 0, 0, 1, 0,0) ">
<use xlink:href="#body_side_0_Layer4_0_FILL"/>

<use xlink:href="#body_side_0_Layer4_0_1_STROKES"/>
</g>

<g transform="matrix( 1, 0, 0, 1, 0,0) ">
<use xlink:href="#body_side_0_Layer3_0_FILL"/>

<use xlink:href="#body_side_0_Layer3_0_1_STROKES"/>
</g>

<g transform="matrix( 1, 0, 0, 1, 0,0) ">
<use xlink:href="#body_side_0_Layer2_0_FILL"/>

<use xlink:href="#body_side_0_Layer2_0_1_STROKES"/>
</g>

<g transform="matrix( 1, 0, 0, 1, 0,0) ">
<use xlink:href="#body_side_0_Layer1_0_FILL"/>

<use xlink:href="#body_side_0_Layer1_0_1_STROKES"/>
</g>

<g transform="matrix( 1, 0, 0, 1, 0,0) ">
<use xlink:href="#body_side_0_Layer0_0_FILL"/>

<use xlink:href="#body_side_0_Layer0_0_1_STROKES"/>
</g>
</g>

<g transform="matrix( 2.27008056640625, -0.6229248046875, 0.694915771484375, 2.1391448974609375, 267.25,510.1) ">
<g transform="matrix( 1, 0, 0, 1, 0,0) ">
<use xlink:href="#Duplicate_Items_Folder_foot_copy_10_0_Layer4_0_FILL"/>
</g>

<g transform="matrix( 1, 0, 0, 1, 0,0) ">
<use xlink:href="#Duplicate_Items_Folder_foot_copy_10_0_Layer3_0_FILL"/>
</g>

<g transform="matrix( 1, 0, 0, 1, 0,0) ">
<use xlink:href="#Duplicate_Items_Folder_foot_copy_10_0_Layer2_0_FILL"/>
</g>

<g transform="matrix( 1, 0, 0, 1, 0,0) ">
<use xlink:href="#Duplicate_Items_Folder_foot_copy_10_0_Layer1_0_FILL"/>

<use xlink:href="#Duplicate_Items_Folder_foot_copy_10_0_Layer1_0_1_STROKES"/>
</g>

<g transform="matrix( 1, 0, 0, 1, 0,0) ">
<use xlink:href="#Duplicate_Items_Folder_foot_copy_10_0_Layer0_0_FILL"/>

<use xlink:href="#Duplicate_Items_Folder_foot_copy_10_0_Layer0_0_1_STROKES"/>
</g>
</g>

<g transform="matrix( 2.7752532958984375, 0.3543701171875, -0.3543701171875, 2.7752532958984375, 188.15,191.15) ">
<g transform="matrix( 1, 0, 0, 1, 0,0) ">
<use xlink:href="#head_2_0_Layer6_0_FILL"/>

<use xlink:href="#head_2_0_Layer6_0_1_STROKES"/>
</g>

<g transform="matrix( 1, 0, 0, 1, 0,0) ">
<use xlink:href="#head_2_0_Layer5_0_FILL"/>

<use xlink:href="#head_2_0_Layer5_0_1_STROKES"/>
</g>

<g transform="matrix( 1, 0, 0, 1, 0,0) ">
<use xlink:href="#head_2_0_Layer4_0_FILL"/>

<use xlink:href="#head_2_0_Layer4_0_1_STROKES"/>
</g>

<g transform="matrix( 1, 0, 0, 1, 0,0) ">
<use xlink:href="#head_2_0_Layer3_0_FILL"/>

<use xlink:href="#head_2_0_Layer3_0_1_STROKES"/>
</g>

<g transform="matrix( 1, 0, 0, 1, 0,0) ">
<use xlink:href="#head_2_0_Layer2_0_FILL"/>

<use xlink:href="#head_2_0_Layer2_0_1_STROKES"/>
</g>

<g transform="matrix( 1, 0, 0, 1, 0,0) ">
<use xlink:href="#head_2_0_Layer1_0_FILL"/>

<use xlink:href="#head_2_0_Layer1_0_1_STROKES"/>
</g>
</g>

<g transform="matrix( -2.373046875, 0.0328216552734375, 0.0350494384765625, 2.52545166015625, 211.4,403.2) ">
<g transform="matrix( 1, 0, 0, 1, 0,0) ">
<use xlink:href="#Duplicate_Items_Folder_arm__copy_5_0_Layer0_0_FILL"/>

<use xlink:href="#Duplicate_Items_Folder_arm__copy_5_0_Layer0_0_1_STROKES"/>
</g>
</g>

<g transform="matrix( 2.4731597900390625, 0, 0, 2.4731597900390625, 224.95,466.3) "/>
</svg>
