
<svg xmlns="http://www.w3.org/2000/svg" version="1.1" xmlns:xlink="http://www.w3.org/1999/xlink" preserveAspectRatio="none" x="0px" y="0px" width="560px" height="544px" viewBox="0 0 560 544">
<defs>
<g id="Duplicate_Items_Folder_feet_bones_copy_0_Layer0_0_FILL">
<path fill="#00FF00" stroke="none" d="
M 2.7 5.2
Q 1 5.45 0.1 5.45 -1.05 5.45 -1.8 6.15 -2.6 6.8 -2.6 7.75 -2.6 8.75 -1.8 9.4 -1.05 10.1 0.1 10.1 1.15 10.1 1.65 9.65
L 1.75 9.65 1.25 8.45 1.75 9.65
Q 2.05 9.8 2.35 10.1 2.7 10.4 4.25 10.5 5.8 10.6 6.6 10.15 6.8 10 7.05 9.9
L 8.2 8.2 7.05 9.9
Q 7.65 9.65 8.35 9.6 8.05 9.75 8.7 9.75 9.4 9.75 9.85 9.25 10.4 8.75 10.4 8.05 10.4 7.4 9.85 6.85 9.4 6.35 8.7 6.35 8.6 6.35 8.55 6.35 8.4 6.25 8.35 6.15 6.05 4.65 4.65 4.65 3.5 4.65 2.7 5.2 Z"/>
</g>

<g id="Duplicate_Items_Folder_body_copy_6_0_Layer5_0_FILL">
<path fill="#EA04BC" stroke="none" d="
M -25.5 14.45
Q -26.3158203125 14.7736328125 -27.15 15.05 -26.908203125 15.359375 -26.65 15.65
L -25.5 14.45 Z"/>

<path fill="#FFCCFF" stroke="none" d="
M -18.95 23.25
L -16.75 21.65 -18.4 12.15
Q -21.194140625 13.0095703125 -24 13.95
L -23.4 20.25 -20.4 17.4 -18.95 23.25
M 29.45 8.75
Q 29.5 8.35 29.55 7.95
L 26.65 4.85 28.05 4.85 27.35 3.9
Q 25.3146484375 4.046875 23.25 4.2
L 25.4 8.55 21.2 7.15 19.75 20.25 23.45 22.35 22.7 17.25 27.4 18.15 25.75 13.65 29.45 14 26.95 8.55 29.45 8.75 Z"/>

<path fill="#FF66CC" stroke="none" d="
M -15.55 11.3
Q -16.9615234375 11.71640625 -18.4 12.15
L -16.75 21.65 -15.75 20.85 -14.85 24.35 -9 21.85
Q -8.3 22.35 -5.8 22.75 -8.6 21.6 -10.9 19.55 -14.2501953125 16.57578125 -15.55 11.3
M 21.2 7.15
L 25.4 8.55 23.25 4.2
Q 20.837890625 4.4005859375 18.4 4.65 18.4357421875 5.04921875 18.45 5.45 18.75 15.2 14.2 18.8 11.05 21.25 8.2 22.5 7.6 22.75 7 23 8.9 22.65 10.45 21.7
L 14.85 24.65 14.75 21.25 18.6 23.6 18.7 19.65 19.75 20.25 21.2 7.15 Z"/>

<path fill="#FF00CC" stroke="none" d="
M -16.95 -25.45
Q -22 -25.65 -22.25 -24.85
L -16.95 -25.45
M -19.05 -22.55
L -20.05 -23.15
Q -21.05 -22.35 -22 -21.45
L -19.05 -22.55
M -24.45 -17.3
L -25.3 -17.65
Q -25.6 -17.3 -25.85 -16.85
L -24.45 -17.3
M -8.75 -28.25
L -9.1 -28.9
Q -10.1 -28.65 -11.05 -28.3
L -8.75 -28.25
M -5.5 -29.65
Q -8.05 -30.95 -8.95 -30.8
L -5.5 -29.65
M 31.3 4.75
L 30.5 3.75
Q 28.9240234375 3.8421875 27.35 3.9
L 28.05 4.85 31.3 4.75
M 3.35 -29.9
Q 4.1 -32.35 3.5 -32.75
L 3.35 -29.9
M 3.4 -32.8
Q 2.9 -32.95 1.9 -32.2 0.8 -31.4 0.05 -30.9
L 3.4 -32.8 Z"/>

<path fill="#CA02A3" stroke="none" d="
M -28 -4.3
L -29.05 -4
Q -29.8 -2.15 -30.3 0.1
L -28 -4.3
M 27.65 -8.55
Q 27.1 -9.35 26.5 -10.05
L 25.3 -10.05 27.65 -8.55 Z"/>

<path fill="#00FFFF" stroke="none" d="
M -27.8 -0.25
L -20.75 -9.5 -21.4 -9.65
Q -26.812890625 -6.8212890625 -32.05 -3.3
L -29.05 -4 -28 -4.3 -30.3 0.1 -32.65 4.5 -28.15 2.85 -28.5 4.2 -24.9 0.6 -27.8 -0.25
M 22.45 -20.9
Q 22.375 -20.988671875 22.3 -21.1 13.55546875 -20.741796875 5.25 -19.1
L 22.35 -11.45 19.5 -10.95 26.55 -1.5 23.6 -1 27.35 3.9
Q 28.9240234375 3.8421875 30.5 3.75
L 27.4 0 31.15 -0.5 26.05 -5.95 31.95 -5.8 27.65 -8.55 25.3 -10.05 26.5 -10.05 30.65 -10.05 22.85 -15.3 27.15 -16.65 19.85 -20.5 22.45 -20.9 Z"/>

<path fill="#FFFF66" stroke="none" d="
M -25.2 -10.6
L -21.4 -9.65
Q -8.699609375 -16.2578125 5.25 -19.1
L -0.85 -21.8 -25.2 -10.6 Z"/>

<path fill="#000000" stroke="none" d="
M 18.45 5.45
Q 18.4357421875 5.04921875 18.4 4.65 17.7708984375 -4.4951171875 10.05 -7.9 2 -11.55 -1.95 -10.2 -5.9 -8.85 -11.3 -6.1 -16.75 -3.4 -16.25 5.9 -16.1076171875 8.84140625 -15.55 11.3 -14.2501953125 16.57578125 -10.9 19.55 -8.6 21.6 -5.8 22.75 -4.605078125 23.20390625 -2.95 23.5 -1.2849609375 23.8376953125 -0.2 23.95 0.9298828125 24.0662109375 6.05 23.2 6.25 23.25 7 23 7.6 22.75 8.2 22.5 11.05 21.25 14.2 18.8 18.75 15.2 18.45 5.45 Z"/>

<path fill="#00A4FB" stroke="none" d="
M 14 -9
L 18.25 -9.55 -0.05 -16.85 -17.05 -11.25 -12.05 -10.95 -24.6 -2 -18.95 -3.4 -23.3 9.4 -19.45 6.05 -18.4 12.15
Q -16.9615234375 11.71640625 -15.55 11.3 -16.1076171875 8.84140625 -16.25 5.9 -16.75 -3.4 -11.3 -6.1 -5.9 -8.85 -1.95 -10.2 2 -11.55 10.05 -7.9 17.7708984375 -4.4951171875 18.4 4.65 20.837890625 4.4005859375 23.25 4.2
L 19.95 -2.65 23 -2.65 14 -9 Z"/>

<path fill="#00CCFF" stroke="none" d="
M 18.25 -9.55
L 14 -9 23 -2.65 19.95 -2.65 23.25 4.2
Q 25.3146484375 4.046875 27.35 3.9
L 23.6 -1 26.55 -1.5 19.5 -10.95 22.35 -11.45 5.25 -19.1
Q -8.699609375 -16.2578125 -21.4 -9.65
L -20.75 -9.5 -27.8 -0.25 -24.9 0.6 -28.5 4.2 -30 9.45
Q -29.8 10.15 -29.55 10.8
L -27.4 9.35 -27.4 14.75
Q -27.2759765625 14.909375 -27.15 15.05 -26.3158203125 14.7736328125 -25.5 14.45
L -24.05 13.05 -24 13.95
Q -21.194140625 13.0095703125 -18.4 12.15
L -19.45 6.05 -23.3 9.4 -18.95 -3.4 -24.6 -2 -12.05 -10.95 -17.05 -11.25 -0.05 -16.85 18.25 -9.55 Z"/>

<path fill="#FFFF99" stroke="none" d="
M 3.5 -32.75
Q 3.45 -32.8 3.4 -32.8
L 0.05 -30.9 -3.3 -28.95 -5.5 -29.65 -8.95 -30.8
Q -10 -30.7 -9.1 -28.9
L -8.75 -28.25 -11.05 -28.3 -18.65 -28.5 -13.15 -25.95 -16.95 -25.45 -22.25 -24.85
Q -22.45 -24.4 -20.85 -23.55
L -20.05 -23.15 -19.05 -22.55 -22 -21.45 -28.5 -19 -25.3 -17.65 -24.45 -17.3 -24.2 -17.4 -24.45 -17.3 -25.85 -16.85 -31.75 -15.05 -25.5 -13.65 -33.1 -8.95 -27.4 -9.4 -33.25 -3 -32.05 -3.3
Q -26.812890625 -6.8212890625 -21.4 -9.65
L -25.2 -10.6 -0.85 -21.8 5.25 -19.1
Q 13.55546875 -20.741796875 22.3 -21.1 21.8181640625 -21.6318359375 21.3 -22.15
L 15.75 -24.2 17.9 -26.8
Q 18.1 -27.6 16.45 -27.7
L 9.4 -27.35 10.05 -29.85
Q 9.9 -30.5 8.65 -30.3
L 3.3 -28.6 3.35 -29.9 3.5 -32.75 Z"/>
</g>

<g id="Duplicate_Items_Folder_body_copy_6_0_Layer3_0_FILL">
<path fill="#9900FF" stroke="none" d="
M -12.05 -7.95
Q -12 -7.85 -10.4 -7.1 -8.9 -6.3 -5.7 -7.85
L -1.55 -10.8
Q -8.7 -12.15 -12.05 -7.95
M -9.7 -15.7
Q -8.7 -15.7 -8.1 -16.05 -7.4 -16.35 -7.4 -16.8 -7.4 -17.3 -8.1 -17.65 -8.7 -18 -9.7 -18 -10.65 -18 -11.35 -17.65 -12 -17.3 -12 -16.85 -12 -16.35 -11.35 -16.05 -10.65 -15.7 -9.7 -15.7
M 2.1 -10.9
L 6.5 -8.2
Q 9.65 -6.8 11.2 -7.7 12.8 -8.65 12.8 -8.75 9.2 -12.65 2.1 -10.9
M 11.3 -16.1
Q 12.1 -16.5 12.1 -17.05 12.1 -17.65 11.3 -18.1 10.45 -18.5 9.35 -18.5 8.25 -18.5 7.45 -18.1 6.65 -17.65 6.65 -17.05 6.65 -16.5 7.45 -16.1 8.25 -15.7 9.35 -15.7 10.45 -15.7 11.3 -16.1 Z"/>

<path fill="#CC99FF" stroke="none" d="
M -1.4 -14.4
L -5.65 -19.7
Q -9.85 -21.05 -12.95 -18.95 -16.85 -12.35 -12.05 -7.95 -8.7 -12.15 -1.55 -10.8
L -1.45 -11.1 -1.4 -14.4
M -8.1 -16.05
Q -8.7 -15.7 -9.7 -15.7 -10.65 -15.7 -11.35 -16.05 -12 -16.35 -12 -16.85 -12 -17.3 -11.35 -17.65 -10.65 -18 -9.7 -18 -8.7 -18 -8.1 -17.65 -7.4 -17.3 -7.4 -16.8 -7.4 -16.35 -8.1 -16.05
M 5.35 -19.95
L 1.55 -14.3 1.9 -11.1 2.1 -10.9
Q 9.2 -12.65 12.8 -8.75 17.25 -13.25 12.6 -19.65 9.35 -21.5 5.35 -19.95
M 12.1 -17.05
Q 12.1 -16.5 11.3 -16.1 10.45 -15.7 9.35 -15.7 8.25 -15.7 7.45 -16.1 6.65 -16.5 6.65 -17.05 6.65 -17.65 7.45 -18.1 8.25 -18.5 9.35 -18.5 10.45 -18.5 11.3 -18.1 12.1 -17.65 12.1 -17.05 Z"/>
</g>

<g id="Duplicate_Items_Folder_body_copy_6_0_Layer2_0_FILL">
<path fill="#000000" stroke="none" d="
M -1.15 -10.1
L -2.35 -9.95 -1.95 -8.7
Q -1.95 -8.75 -1.55 -8.55 -1.45 -8.5 -1.1 -8.4
L -1.15 -10.1
M 0.65 -8.35
L 0.75 -10.05
Q 0.1 -10.5 -0.3 -10.1
L -0.25 -8.2
Q 0 -8.2 0.65 -8.35
M 2.7 -9.2
L 2.65 -10.15
Q 1.75 -10.65 1.5 -10
L 1.4 -8.5
Q 2 -8.65 2.7 -9.2
M -2.8 -14.85
Q -3.4 -14.05 -2.8 -13.35 -2.45 -12.85 -1.7 -12.65 -1 -12.65 -0.4 -13.2 0.1 -13.8 0.3 -14.6 0.3 -15.35 -0.15 -16.1 -0.55 -16.7 -1.15 -16.7 -1.75 -16.75 -2.15 -16.25 -2.3 -15.7 -2.8 -14.85
M 0 -11.7
Q 0.05 -11.8 0 -12 -0.1 -12.15 -0.2 -12.2 -0.35 -12.35 -0.55 -12.3 -0.7 -12.25 -0.8 -12.1 -0.85 -11.9 -0.8 -11.8 -0.85 -11.6 -0.65 -11.55 -0.5 -11.5 -0.3 -11.55 -0.05 -11.55 0 -11.7
M 0.7 -12.55
Q 0.6 -12.75 0.35 -12.55 0.3 -12.55 0.1 -12.45 -0.05 -12.25 0 -12.1 0.2 -12 0.3 -11.7 0.5 -11.5 0.65 -11.45 0.9 -11.55 1 -11.8 1 -12.15 1 -12.3 1 -12.5 0.7 -12.55
M 2.3 -16.55
Q 1.8 -16.45 1.25 -15.85 0.9 -15.2 0.95 -14.35 1 -13.6 1.65 -13 2.2 -12.45 2.95 -12.55 3.65 -12.65 4.1 -13.25 4.55 -13.9 4 -14.7 3.5 -15.5 3.25 -16.05 2.85 -16.6 2.3 -16.55 Z"/>

<path fill="#FFFFFF" stroke="none" d="
M 6 -14.5
Q 5.75 -17.55 3.25 -18.6 0.65 -19.75 -2 -18.7 -4.7 -17.6 -5.5 -14.7 -6.15 -11.75 -4.6 -11.8 -3.1 -12.05 -2.35 -9.95
L -1.15 -10.1 -1.1 -8.4
Q -0.95 -8.4 -0.25 -8.2
L -0.3 -10.1
Q 0.1 -10.5 0.75 -10.05
L 0.65 -8.35
Q 0.9 -8.35 1.15 -8.35 1.35 -8.4 1.4 -8.5
L 1.5 -10
Q 1.75 -10.65 2.65 -10.15
L 2.7 -9.2
Q 2.7 -11.65 4.55 -11.5 6.3 -11.4 6 -14.5
M 1.25 -15.85
Q 1.8 -16.45 2.3 -16.55 2.85 -16.6 3.25 -16.05 3.5 -15.5 4 -14.7 4.55 -13.9 4.1 -13.25 3.65 -12.65 2.95 -12.55 2.2 -12.45 1.65 -13 1 -13.6 0.95 -14.35 0.9 -15.2 1.25 -15.85
M 0.35 -12.55
Q 0.6 -12.75 0.7 -12.55 1 -12.5 1 -12.3 1 -12.15 1 -11.8 0.9 -11.55 0.65 -11.45 0.5 -11.5 0.3 -11.7 0.2 -12 0 -12.1 -0.05 -12.25 0.1 -12.45 0.3 -12.55 0.35 -12.55
M 0 -12
Q 0.05 -11.8 0 -11.7 -0.05 -11.55 -0.3 -11.55 -0.5 -11.5 -0.65 -11.55 -0.85 -11.6 -0.8 -11.8 -0.85 -11.9 -0.8 -12.1 -0.7 -12.25 -0.55 -12.3 -0.35 -12.35 -0.2 -12.2 -0.1 -12.15 0 -12
M -2.8 -13.35
Q -3.4 -14.05 -2.8 -14.85 -2.3 -15.7 -2.15 -16.25 -1.75 -16.75 -1.15 -16.7 -0.55 -16.7 -0.15 -16.1 0.3 -15.35 0.3 -14.6 0.1 -13.8 -0.4 -13.2 -1 -12.65 -1.7 -12.65 -2.45 -12.85 -2.8 -13.35 Z"/>
</g>

<g id="Duplicate_Items_Folder_body_copy_6_0_Layer1_0_FILL">
<path fill="#000000" stroke="none" d="
M 6.75 -2.8
Q 5.55 -2.2 4.9 -1.45 4.15 -0.75 3 1.25 2.4 3 2.5 4.65 2.55 6.3 3.85 7.85 5.15 9.4 6.75 10.2 8.3 10.95 10.2 11.15 12.05 11.35 13.1 8.85 14.15 6.35 14.1 3.9 14 1.4 12.65 -0.35 11.25 -2.15 9.6 -2.8 7.95 -3.45 6.75 -2.8
M 12.2 3.35
Q 12.2 5.05 11.55 6.9 10.85 8.75 8.65 8.1 6.45 7.4 5.3 6.2 4.1 5 4.1 3.35 4.1 1.65 5.15 0.3 6.2 -1.1 7.8 -1.25 9.35 -1.4 10.75 0.15 12.15 1.65 12.2 3.35
M -4.2 -0.65
Q -4.85 -1.4 -6.05 -2 -7.25 -2.65 -8.9 -2 -10.55 -1.35 -11.95 0.45 -13.3 2.2 -13.4 4.7 -13.45 7.15 -12.4 9.65 -11.35 12.15 -9.5 11.95 -7.6 11.75 -6.05 11 -4.45 10.2 -3.15 8.65 -1.85 7.1 -1.8 5.45 -1.7 3.8 -2.3 2.05 -3.45 0.05 -4.2 -0.65
M -4.45 1.1
Q -3.4 2.45 -3.4 4.15 -3.4 5.8 -4.6 7 -5.75 8.2 -7.95 8.9 -10.15 9.55 -10.85 7.7 -11.5 5.85 -11.5 4.15 -11.45 2.45 -10.05 0.95 -8.65 -0.6 -7.1 -0.45 -5.5 -0.3 -4.45 1.1 Z"/>

<path fill="#FFFFFF" stroke="none" d="
M 11.55 6.9
Q 12.2 5.05 12.2 3.35 12.15 1.65 10.75 0.15 9.35 -1.4 7.8 -1.25 6.2 -1.1 5.15 0.3 4.1 1.65 4.1 3.35 4.1 5 5.3 6.2 6.45 7.4 8.65 8.1 10.85 8.75 11.55 6.9
M 6.85 4.35
Q 6.4 3.85 6.4 3.15 6.4 2.45 6.85 1.95 7.3 1.45 7.95 1.45 8.6 1.45 9.05 1.95 9.5 2.45 9.5 3.15 9.5 3.85 9.05 4.35 8.6 4.85 7.95 4.85 7.3 4.85 6.85 4.35
M -3.4 4.15
Q -3.4 2.45 -4.45 1.1 -5.5 -0.3 -7.1 -0.45 -8.65 -0.6 -10.05 0.95 -11.45 2.45 -11.5 4.15 -11.5 5.85 -10.85 7.7 -10.15 9.55 -7.95 8.9 -5.75 8.2 -4.6 7 -3.4 5.8 -3.4 4.15
M -7.25 5.65
Q -7.9 5.65 -8.35 5.15 -8.8 4.65 -8.8 3.95 -8.8 3.25 -8.35 2.75 -7.9 2.25 -7.25 2.25 -6.6 2.25 -6.15 2.75 -5.7 3.25 -5.7 3.95 -5.7 4.65 -6.15 5.15 -6.6 5.65 -7.25 5.65 Z"/>

<path fill="#00FF00" stroke="none" d="
M 6.4 3.15
Q 6.4 3.85 6.85 4.35 7.3 4.85 7.95 4.85 8.6 4.85 9.05 4.35 9.5 3.85 9.5 3.15 9.5 2.45 9.05 1.95 8.6 1.45 7.95 1.45 7.3 1.45 6.85 1.95 6.4 2.45 6.4 3.15
M -8.35 5.15
Q -7.9 5.65 -7.25 5.65 -6.6 5.65 -6.15 5.15 -5.7 4.65 -5.7 3.95 -5.7 3.25 -6.15 2.75 -6.6 2.25 -7.25 2.25 -7.9 2.25 -8.35 2.75 -8.8 3.25 -8.8 3.95 -8.8 4.65 -8.35 5.15 Z"/>
</g>

<path id="Duplicate_Items_Folder_feet_bones_copy_0_Layer0_0_1_STROKES" stroke="#000000" stroke-width="1" stroke-linejoin="round" stroke-linecap="round" fill="none" d="
M 1.75 9.65
L 1.65 9.65
Q 1.15 10.1 0.1 10.1 -1.05 10.1 -1.8 9.4 -2.6 8.75 -2.6 7.75 -2.6 6.8 -1.8 6.15 -1.05 5.45 0.1 5.45 1 5.45 2.7 5.2 3.5 4.65 4.65 4.65 6.05 4.65 8.35 6.15 8.4 6.25 8.55 6.35 8.6 6.35 8.7 6.35 9.4 6.35 9.85 6.85 10.4 7.4 10.4 8.05 10.4 8.75 9.85 9.25 9.4 9.75 8.7 9.75 8.05 9.75 8.35 9.6 7.65 9.65 7.05 9.9 6.8 10 6.6 10.15 5.8 10.6 4.25 10.5 2.7 10.4 2.35 10.1 2.05 9.8 1.75 9.65
L 1.25 8.45
M 7.05 9.9
L 8.2 8.2"/>

<path id="Duplicate_Items_Folder_body_copy_6_0_Layer5_0_1_STROKES" stroke="#000000" stroke-width="1" stroke-linejoin="round" stroke-linecap="round" fill="none" d="
M 3.5 -32.75
L 3.5 -32.9 3.4 -32.8 0.05 -30.9
M 8.65 -30.3
L 3.3 -28.6 3.35 -29.9 3.5 -32.75
M 10.05 -29.85
L 10.25 -30.8 8.65 -30.3
M 16.45 -27.7
L 9.4 -27.35 10.05 -29.85
M 17.9 -26.8
L 18.7 -27.8 16.45 -27.7
M -30 9.45
L -28.5 4.2
M -29.55 10.8
L -27.4 9.35 -27.4 14.75
M -25.475 14.475
L -24.05 13.05 -23.975 13.95
M -15.525 11.3
Q -16.1076171875 8.84140625 -16.25 5.9 -16.75 -3.4 -11.3 -6.1 -5.9 -8.85 -1.95 -10.2 2 -11.55 10.05 -7.9 17.7708984375 -4.4951171875 18.4 4.65
M 19.75 20.25
L 23.45 22.35 22.7 17.25 27.4 18.15 25.75 13.65 29.45 14 26.95 8.55 29.45 8.75
Q 29.5 8.35 29.55 7.95
L 26.65 4.85 28.05 4.85
M 30.5 3.775
L 27.4 0 31.15 -0.5 26.05 -5.95 31.95 -5.8 27.65 -8.55 25.3 -10.05 26.5 -10.05 30.65 -10.05 22.85 -15.3 27.15 -16.65 19.85 -20.5 22.45 -20.9
M -32.025 -3.3
L -29.05 -4 -28 -4.3 -30.3 0.1 -32.65 4.5 -28.15 2.85 -28.5 4.2
M 22.45 -20.9
L 24.15 -21.15 21.3 -22.15 15.75 -24.2 17.9 -26.8
M 28.05 4.85
L 31.3 4.75 30.5 3.775
M 29.55 7.95
L 30.4 8.8 29.45 8.75
M 18.4 4.65
Q 18.4357421875 5.04921875 18.45 5.45 18.75 15.2 14.2 18.8 11.05 21.25 8.2 22.5 7.6 22.75 7 23 8.9 22.65 10.45 21.7
L 14.85 24.65 14.75 21.25 18.6 23.6 18.7 19.65 19.75 20.25
M 7 23
Q 6.25 23.25 6.05 23.2 0.9298828125 24.0662109375 -0.175 23.95 -1.2849609375 23.8376953125 -2.95 23.525 -4.605078125 23.20390625 -5.8 22.75 -8.3 22.35 -9 21.85
L -14.85 24.35 -15.75 20.85 -16.75 21.65 -18.95 23.25 -20.4 17.4 -23.4 20.25 -23.975 13.95
M -11.05 -28.3
L -18.65 -28.5 -13.15 -25.95 -16.95 -25.45 -22.25 -24.85
M -20.85 -23.55
L -20.05 -23.15 -19.05 -22.55 -22 -21.45 -28.5 -19 -25.3 -17.65 -24.45 -17.3 -24.2 -17.4
M -5.5 -29.65
L -3.3 -28.95 0.05 -30.9
M -8.95 -30.8
L -10.4 -31.3 -9.1 -28.9 -8.75 -28.25 -11.05 -28.3
M -5.5 -29.65
L -8.95 -30.8
M -22.25 -24.85
L -22.8 -24.8
M -24.45 -17.3
L -25.85 -16.85
Q -25.6 -17.3 -25.3 -17.65
M -32.025 -3.3
L -33.25 -3 -27.4 -9.4 -33.1 -8.95 -25.5 -13.65 -31.75 -15.05 -25.85 -16.85
M -20.85 -23.55
L -23.4 -24.8
M -5.8 22.75
Q -8.6 21.6 -10.9 19.55 -14.2501953125 16.57578125 -15.525 11.3
M -26.65 15.65
L -27.4 16.4 -27.4 14.75
M -25.475 14.475
L -26.65 15.65
M -29.55 10.8
L -30.6 11.45 -30 9.45"/>

<path id="Duplicate_Items_Folder_body_copy_6_0_Layer4_0_1_STROKES" stroke="#FFFFFF" stroke-width="1" stroke-linejoin="round" stroke-linecap="round" fill="none" d="
M 8.3 16.6
L 8.1 18.5 8.5 18.75
Q 10.8 17.45 13.05 15.3
L 14.45 16.65
M 6.35 17.45
L 8.1 18.5 8.05 19
Q 8.25 18.85 8.5 18.75
L 9.6 19.4
M 3.7 21.8
L 2.9 20.6
Q -0.65 21 -4.35 19.6
L -5.45 20.5
M 8.05 19
L 7.85 20.5
M 1.5 18.5
L 2.9 20.6
Q 5.5 20.3 8.05 19
M -6.55 15.95
L -7.95 17.75
Q -6.15 18.9 -4.35 19.6
L -2.25 17.85
M -11.3 17.7
L -9.9 16.4
Q -8.95 17.15 -7.95 17.75
L -9.2 19.4"/>

<path id="Duplicate_Items_Folder_body_copy_6_0_Layer3_0_1_STROKES" stroke="#000000" stroke-width="1" stroke-linejoin="round" stroke-linecap="round" fill="none" d="
M 2.1 -10.9
L 1.9 -11.1 1.55 -14.3 5.35 -19.95
Q 9.35 -21.5 12.6 -19.65 17.25 -13.25 12.8 -8.75 12.8 -8.65 11.2 -7.7 9.65 -6.8 6.5 -8.2
L 2.1 -10.9
Q 9.2 -12.65 12.8 -8.75
M -1.55 -10.8
L -1.45 -11.1 -1.4 -14.4 -5.65 -19.7
Q -9.85 -21.05 -12.95 -18.95 -16.85 -12.35 -12.05 -7.95 -8.7 -12.15 -1.55 -10.8
L -5.7 -7.85
Q -8.9 -6.3 -10.4 -7.1 -12 -7.85 -12.05 -7.95"/>

<path id="Duplicate_Items_Folder_body_copy_6_0_Layer2_0_1_STROKES" stroke="#000000" stroke-width="1" stroke-linejoin="round" stroke-linecap="round" fill="none" d="
M -2.35 -9.95
Q -3.1 -12.05 -4.6 -11.8 -6.15 -11.75 -5.5 -14.7 -4.7 -17.6 -2 -18.7 0.65 -19.75 3.25 -18.6 5.75 -17.55 6 -14.5 6.3 -11.4 4.55 -11.5 2.7 -11.65 2.7 -9.2 2 -8.65 1.4 -8.5 1.35 -8.4 1.15 -8.35 0.9 -8.35 0.65 -8.35 0 -8.2 -0.25 -8.2 -0.95 -8.4 -1.1 -8.4 -1.45 -8.5 -1.55 -8.55 -1.95 -8.75 -1.95 -8.7
L -2.35 -9.95 -1.15 -10.1 -1.1 -8.4"/>

<path id="Duplicate_Items_Folder_body_copy_6_0_Layer1_0_1_STROKES" stroke="#FFCCFF" stroke-width="1" stroke-linejoin="round" stroke-linecap="round" fill="none" d="
M -2.3 2.05
Q -1.7 3.8 -1.8 5.45 -1.85 7.1 -3.15 8.65 -4.45 10.2 -6.05 11 -7.6 11.75 -9.5 11.95 -11.35 12.15 -12.4 9.65 -13.45 7.15 -13.4 4.7 -13.3 2.2 -11.95 0.45 -10.55 -1.35 -8.9 -2 -7.25 -2.65 -6.05 -2 -4.85 -1.4 -4.2 -0.65 -3.45 0.05 -2.3 2.05 -0.95 4.35 -0.95 6.5 -0.95 8.85 -2.6 10.5 -3.3 11.25 -4.15 11.65
M 3 1.25
Q 2.4 3 2.5 4.65 2.55 6.3 3.85 7.85 5.15 9.4 6.75 10.2 8.3 10.95 10.2 11.15 12.05 11.35 13.1 8.85 14.15 6.35 14.1 3.9 14 1.4 12.65 -0.35 11.25 -2.15 9.6 -2.8 7.95 -3.45 6.75 -2.8 5.55 -2.2 4.9 -1.45 4.15 -0.75 3 1.25 1.65 3.55 1.65 5.7 1.65 8.05 3.3 9.7 4 10.45 4.85 10.85"/>
</defs>

<g transform="matrix( -7.972076416015625, 0, 0, 7.9764556884765625, 375.25,437.45) ">
<g transform="matrix( 1, 0, 0, 1, 0,0) ">
<use xlink:href="#Duplicate_Items_Folder_feet_bones_copy_0_Layer0_0_FILL"/>

<use xlink:href="#Duplicate_Items_Folder_feet_bones_copy_0_Layer0_0_1_STROKES"/>
</g>
</g>

<g transform="matrix( 7.972076416015625, 0, 0, 7.9764556884765625, 203.1,436.05) ">
<g transform="matrix( 1, 0, 0, 1, 0,0) ">
<use xlink:href="#Duplicate_Items_Folder_feet_bones_copy_0_Layer0_0_FILL"/>

<use xlink:href="#Duplicate_Items_Folder_feet_bones_copy_0_Layer0_0_1_STROKES"/>
</g>
</g>

<g transform="matrix( 7.972076416015625, 0, 0, 7.9764556884765625, 285.35,305.55) ">
<g transform="matrix( 1, 0, 0, 1, 0,0) ">
<use xlink:href="#Duplicate_Items_Folder_body_copy_6_0_Layer5_0_FILL"/>

<use xlink:href="#Duplicate_Items_Folder_body_copy_6_0_Layer5_0_1_STROKES"/>
</g>

<g transform="matrix( 1, 0, 0, 1, 0,0) ">
<use xlink:href="#Duplicate_Items_Folder_body_copy_6_0_Layer4_0_1_STROKES"/>
</g>

<g transform="matrix( 1, 0, 0, 1, 0,0) ">
<use xlink:href="#Duplicate_Items_Folder_body_copy_6_0_Layer3_0_FILL"/>

<use xlink:href="#Duplicate_Items_Folder_body_copy_6_0_Layer3_0_1_STROKES"/>
</g>

<g transform="matrix( 1, 0, 0, 1, 0,0) ">
<use xlink:href="#Duplicate_Items_Folder_body_copy_6_0_Layer2_0_FILL"/>

<use xlink:href="#Duplicate_Items_Folder_body_copy_6_0_Layer2_0_1_STROKES"/>
</g>

<g transform="matrix( 1, 0, 0, 1, 0,0) ">
<use xlink:href="#Duplicate_Items_Folder_body_copy_6_0_Layer1_0_FILL"/>

<use xlink:href="#Duplicate_Items_Folder_body_copy_6_0_Layer1_0_1_STROKES"/>
</g>
</g>
</svg>
