
<svg xmlns="http://www.w3.org/2000/svg" version="1.1" xmlns:xlink="http://www.w3.org/1999/xlink" preserveAspectRatio="none" x="0px" y="0px" width="560px" height="544px" viewBox="0 0 560 544">
<defs>
<g id="leg_0_Layer1_0_FILL">
<path fill="#798486" stroke="none" d="
M -25.05 -22.25
L -25.15 -21.2 -27.5 6.9
Q -30.4 7.25 -30.15 11.25 -19.9 13.3 -7.65 11.85 -5.55 12.6 -4.55 7.4 -3.55 2.2 -3.55 -5.5 -3.6 -13.1 -4.15 -17.75 -4.75 -22.4 -12.75 -24.05 -20.75 -25.7 -25.05 -22.25 Z"/>
</g>

<g id="leg_0_Layer0_0_FILL">
<path fill="#EFEBDC" stroke="none" d="
M -26.6 3.65
Q -28.35 3.5 -29.7 5.7 -31.05 7.8 -31.4 11 -31.4 11.4 -31.4 11.7
L -23.25 12.45
Q -23.25 12.2 -23.2 12 -23.2 11.9 -23.2 11.75 -22.9 8.55 -23.9 6.15 -24.95 3.85 -26.6 3.65 Z"/>

<path fill="#BBCCAA" stroke="none" d="
M -16.3 12.6
Q -16.1 10.25 -16.9 8.55 -17.75 6.75 -19.15 6.65 -20.5 6.55 -21.65 8.1 -22.75 9.65 -23 12 -22.95 12.25 -23.05 12.45
L -16.3 13.05
Q -16.35 12.8 -16.3 12.6 Z"/>
</g>

<g id="back_leg_0_Layer1_0_FILL">
<path fill="#990000" stroke="none" d="
M -4.35 -17.3
L -5.35 -8.95
Q -4.45390625 -8.2455078125 -3.25 -7.3 -2.0076171875 -6.313671875 -0.9 -7.75 0.2599609375 -9.1865234375 0.4 -12 0.5466796875 -14.7546875 -0.6 -16.1 -1.7 -17.45 -3.3 -17.45 -3.85703125 -17.45 -4.35 -17.3 Z"/>

<path fill="#798486" stroke="none" d="
M 16.75 -13.2
Q 17.55 -20.85 18.5 -28.05 7.02421875 -11.0998046875 -3.15 -27.25
L -4.35 -17.3
Q -3.85703125 -17.45 -3.3 -17.45 -1.7 -17.45 -0.6 -16.1 0.5466796875 -14.7546875 0.4 -12 0.2599609375 -9.1865234375 -0.9 -7.75 -2.0076171875 -6.313671875 -3.25 -7.3 -4.45390625 -8.2455078125 -5.35 -8.95
L -7.1 5.45
Q -10.85 6.15 -10.4 9.25 1.35 12.85 14 9.1
L 15.9 8.3
Q 17.65 6.95 16.5 4.55 15.3 2.15 16.75 -13.2
M 4.3 -12.8
Q 4.75 -13.45 5.25 -13.45 5.8 -13.45 6.2 -12.8 6.65 -12.1 6.65 -11.15 6.65 -10.25 6.2 -9.55 5.8 -8.85 5.25 -8.85 4.75 -8.85 4.3 -9.55 3.9 -10.25 3.9 -11.2 3.9 -12.1 4.3 -12.8
M 8.8 -3.6
Q 8.8 -3.6455078125 8.8 -3.7 8.8 -5.35 9.3 -6.5 9.8 -7.65 10.5 -7.65 11.2 -7.65 11.65 -6.5 12.15 -5.35 12.15 -3.65 12.15 -2 11.65 -0.85 11.2 0.3 10.5 0.3 10.2876953125 0.3 10.1 0.2 9.9580078125 0.4900390625 9.75 0.75 9.2 1.55 8.35 1.55 7.5 1.55 6.9 0.75 6.35 0 6.35 -1.1 6.35 -2.15 6.9 -2.9 7.5 -3.65 8.35 -3.65 8.5869140625 -3.65 8.8 -3.6 Z"/>

<path fill="#6C936C" stroke="none" d="
M 8.8 -3.7
Q 8.8 -3.6455078125 8.8 -3.6 8.5869140625 -3.65 8.35 -3.65 7.5 -3.65 6.9 -2.9 6.35 -2.15 6.35 -1.1 6.35 0 6.9 0.75 7.5 1.55 8.35 1.55 9.2 1.55 9.75 0.75 9.9580078125 0.4900390625 10.1 0.2 10.2876953125 0.3 10.5 0.3 11.2 0.3 11.65 -0.85 12.15 -2 12.15 -3.65 12.15 -5.35 11.65 -6.5 11.2 -7.65 10.5 -7.65 9.8 -7.65 9.3 -6.5 8.8 -5.35 8.8 -3.7
M 5.25 -13.45
Q 4.75 -13.45 4.3 -12.8 3.9 -12.1 3.9 -11.2 3.9 -10.25 4.3 -9.55 4.75 -8.85 5.25 -8.85 5.8 -8.85 6.2 -9.55 6.65 -10.25 6.65 -11.15 6.65 -12.1 6.2 -12.8 5.8 -13.45 5.25 -13.45 Z"/>
</g>

<g id="back_leg_0_Layer0_0_FILL">
<path fill="#EFEBDC" stroke="none" d="
M -6.5 3.45
Q -8.35 3.4 -9.75 5.35 -11.15 7.3 -11.25 10.1 -11.25 10.4 -11.25 10.7
L -2.4 10.95
Q -2.35 10.75 -2.35 10.55 -2.35 10.5 -2.35 10.4 -2.2 7.55 -3.45 5.55 -4.65 3.55 -6.5 3.45
M 5.1 11.2
Q 5.15 11 5.15 10.75 5.2 8.7 4.25 7.25 3.2 5.8 1.75 5.75 0.25 5.7 -0.85 7.1 -2 8.45 -2.1 10.55 -2.1 10.75 -2.1 10.95
L 5.1 11.2 Z"/>
</g>

<g id="Duplicate_Items_Folder_stand_body_copy_2_0_Layer1_0_FILL">
<path fill="#6C936C" stroke="none" d="
M 18.55 -21.85
Q 18.55 -20.7 19.2 -19.9 19.85 -19.05 20.75 -19.05 21.65 -19.05 22.25 -19.9 22.9 -20.7 22.9 -21.85 22.9 -23 22.25 -23.85 21.65 -24.65 20.75 -24.65 19.85 -24.65 19.2 -23.85 18.55 -23 18.55 -21.85 Z"/>

<path fill="#949D9E" stroke="none" d="
M 39.45 -28.5
L 38.15 -21.3
Q 47.75 -11.7 58.4 -10.4
L 58.6 -10.9 58.4 -11.2 58.6 -10.9 58.75 -11.25 59.3 -12.5 59.55 -13.05
Q 60.15 -15.7 56.55 -14.45 53 -13.2 45.35 -21.05
L 39.45 -28.5 Z"/>
</g>

<g id="Duplicate_Items_Folder_stand_body_copy_2_0_Layer0_0_FILL">
<path fill="#798486" stroke="none" d="
M -38.85 -22.3
Q -38.940625 -22.2546875 -39.05 -22.2
L -39.05 -22.15 -40.25 -20.65
Q -38.95 -22.05 -38.85 -22.3
M -41.6 -19.15
Q -41.70546875 -19.01875 -41.8 -18.9 -41.7 -18.95 -41.6 -19.05 -41.15 -19.65 -40.75 -20.15 -40.65 -20.3 -40.55 -20.45 -40.75 -20.2 -40.95 -19.95 -41.35 -19.5 -41.6 -19.15
M 14.95 -45.65
Q 6.95 -45.15 5.9 -42.5 2.05 -35.75 -4.95 -38.45 -15.05 -44.1 -23.3 -38.5 -23.5 -38.15 -24.3 -37.55 -25.15 -36.65 -26 -35.8
L -1.8 -17.65
Q 6.3 -13.35 -9.65 -4.15 -19.75 1.7 -24.9 0.2 -30.05 -1.3 -38.85 -14.1
L -41.6 -19.05
Q -41.7 -18.95 -41.8 -18.9 -43.8453125 -16.3078125 -43.75 -15.45 -43.5 -11.1 -43.2 -7.95 -42.7 -2.2 -41.55 4.5 -41.2 6.5 -39.75 8.55 -27.05 17.75 -5.5 19.95 11.1 18.3 32.85 12.5 33 12.4 33.15 12.3 37.9 8.85 40.55 -3.05 43 -14 42.4 -25.1 42.25 -28.15 40.9 -31 30.6 -44.6 14.95 -45.65
M 21 -34
Q 21.5 -35.7 25.05 -36.05 32.1 -35.35 36.75 -26.3 37.35 -24.4 37.4 -22.4 37.65 -15 36.55 -7.7 35.69921875 -2.098828125 34.4 0.65 35.06640625 -1.7599609375 34.5 -5.4 31.984765625 -21.4564453125 25.5 -26.7 19.0048828125 -31.898046875 16.15 -31.7 16.75 -41.15 21 -34
M 19.05 -14.35
Q 19.6 -13.7 19.6 -12.8 19.6 -11.9 19.05 -11.3 18.55 -10.65 17.8 -10.65 17.05 -10.65 16.5 -11.3 16 -11.9 16 -12.8 16 -13.7 16.5 -14.35 17.05 -14.95 17.8 -14.95 18.55 -14.95 19.05 -14.35
M 20.2 -15.5
Q 19.35 -16.5 19.35 -17.9 19.35 -19.3 20.2 -20.35 21.05 -21.35 22.25 -21.35 23.5 -21.35 24.35 -20.35 24.9056640625 -19.6634765625 25.1 -18.85 25.1234375 -18.8638671875 25.15 -18.9 25.9 -19.8 26.95 -19.8 28.05 -19.8 28.8 -18.9 29.55 -17.95 29.55 -16.65 29.55 -15.429296875 28.9 -14.6 29.05 -14.040234375 29.05 -13.45 29.05 -11.65 28 -10.4 27 -9.1 25.6 -9.1 24.2 -9.1 23.15 -10.4 22.15 -11.65 22.15 -13.45 22.15 -13.97109375 22.2 -14.45 21.0443359375 -14.45703125 20.2 -15.5
M 21.5 6.45
Q 22.5330078125 5.5783203125 24.2 5.7 22.8228515625 6.12890625 21.5 6.45
M -37.05 -1.95
Q -36.78359375 -1.95 -36.55 -1.9 -36.4857421875 -2.6998046875 -36.1 -3.3 -35.65 -4 -35.05 -4 -34.4 -4 -33.95 -3.3 -33.5 -2.6 -33.5 -1.6 -33.5 -0.55 -33.95 0.15 -34.295703125 0.687890625 -34.75 0.8 -34.75 0.9537109375 -34.75 1.1 -34.75 2.4 -35.45 3.25 -36.1 4.15 -37.05 4.15 -38 4.15 -38.7 3.25 -39.35 2.4 -39.35 1.1 -39.35 -0.15 -38.7 -1.05 -38 -1.95 -37.05 -1.95
M -34.65 2.7
Q -34 1.6 -33.1 1.6 -32.2 1.6 -31.6 2.7 -30.95 3.85 -30.95 5.45 -30.95 7.05 -31.6 8.15 -32.2 9.25 -33.1 9.25 -34 9.25 -34.65 8.15 -35.25 7.05 -35.25 5.45 -35.25 3.85 -34.65 2.7
M -37.9 5.25
Q -37.45 4.7 -36.8 4.7 -36.15 4.7 -35.7 5.25 -35.25 5.8 -35.25 6.6 -35.25 7.35 -35.7 7.9 -36.15 8.5 -36.8 8.5 -37.45 8.5 -37.9 7.9 -38.35 7.35 -38.35 6.55 -38.35 5.8 -37.9 5.25 Z"/>

<path fill="#6D7878" stroke="none" d="
M -38.5 -23
Q -38.7701171875 -22.6599609375 -39.1 -22.25 -38.8 -22.6 -38.85 -22.35
L -38.5 -23
M -34.3 -27.5
Q -35.7 -26.1 -36.95 -24.85 -37.35 -24.4099609375 -38.5 -23
L -38.85 -22.35 -38.85 -22.3
Q -38.95 -22.05 -40.25 -20.65
L -41.6 -19.05 -38.85 -14.1
Q -30.05 -1.3 -24.9 0.2 -19.75 1.7 -9.65 -4.15 6.3 -13.35 -1.8 -17.65
L -26 -35.8
Q -28.95 -32.8 -31.75 -30 -33.05 -28.75 -34.3 -27.5
M -40.75 -20.15
Q -41.15 -19.65 -41.6 -19.05
L -40.25 -20.65
Q -40.5 -20.4 -40.75 -20.15
M -41.6 -19.15
Q -41.35 -19.5 -40.95 -19.95 -41.3 -19.6 -41.7 -19.2
L -41.6 -19.15
M 24.2 5.7
Q 22.5330078125 5.5783203125 21.5 6.45 22.8228515625 6.12890625 24.2 5.7
M 25.05 -36.05
Q 21.5 -35.7 21 -34 16.75 -41.15 16.15 -31.7 19.0048828125 -31.898046875 25.5 -26.7 31.984765625 -21.4564453125 34.5 -5.4 35.06640625 -1.7599609375 34.4 0.65 35.69921875 -2.098828125 36.55 -7.7 37.65 -15 37.4 -22.4 37.35 -24.4 36.75 -26.3 32.1 -35.35 25.05 -36.05 Z"/>

<path fill="#5C6667" stroke="none" d="
M 15.8 19.9
Q 28.1 15.75 32.85 12.5 11.1 18.3 -5.5 19.95 -27.05 17.75 -39.75 8.55 -38.45 10.35 -36.3 12.25 -32.3 15.7 -26 18.85 -20.5 21.6 -14.1 22.6 -7.7 23.55 -2.3 23.85 3.1 24.15 15.8 19.9 Z"/>

<path fill="#8D9AB6" stroke="none" d="
M -36.8 4.7
Q -37.45 4.7 -37.9 5.25 -38.35 5.8 -38.35 6.55 -38.35 7.35 -37.9 7.9 -37.45 8.5 -36.8 8.5 -36.15 8.5 -35.7 7.9 -35.25 7.35 -35.25 6.6 -35.25 5.8 -35.7 5.25 -36.15 4.7 -36.8 4.7
M -36.55 -1.9
Q -36.55 -1.7427734375 -36.55 -1.6 -36.55 -0.55 -36.1 0.15 -35.65 0.85 -35.05 0.85 -34.8994140625 0.85 -34.75 0.8 -34.295703125 0.687890625 -33.95 0.15 -33.5 -0.55 -33.5 -1.6 -33.5 -2.6 -33.95 -3.3 -34.4 -4 -35.05 -4 -35.65 -4 -36.1 -3.3 -36.4857421875 -2.6998046875 -36.55 -1.9
M 28.8 -18.9
Q 28.05 -19.8 26.95 -19.8 25.9 -19.8 25.15 -18.9 25.1234375 -18.8638671875 25.1 -18.85 24.45 -17.90078125 24.45 -16.65 24.45 -15.3 25.15 -14.4 25.9 -13.45 26.95 -13.45 28.05 -13.45 28.8 -14.4 28.871875 -14.4861328125 28.9 -14.6 29.55 -15.429296875 29.55 -16.65 29.55 -17.95 28.8 -18.9 Z"/>

<path fill="#6C936C" stroke="none" d="
M -33.1 1.6
Q -34 1.6 -34.65 2.7 -35.25 3.85 -35.25 5.45 -35.25 7.05 -34.65 8.15 -34 9.25 -33.1 9.25 -32.2 9.25 -31.6 8.15 -30.95 7.05 -30.95 5.45 -30.95 3.85 -31.6 2.7 -32.2 1.6 -33.1 1.6
M -36.55 -1.6
Q -36.55 -1.7427734375 -36.55 -1.9 -36.78359375 -1.95 -37.05 -1.95 -38 -1.95 -38.7 -1.05 -39.35 -0.15 -39.35 1.1 -39.35 2.4 -38.7 3.25 -38 4.15 -37.05 4.15 -36.1 4.15 -35.45 3.25 -34.75 2.4 -34.75 1.1 -34.75 0.9537109375 -34.75 0.8 -34.8994140625 0.85 -35.05 0.85 -35.65 0.85 -36.1 0.15 -36.55 -0.55 -36.55 -1.6
M 19.35 -17.9
Q 19.35 -16.5 20.2 -15.5 21.0443359375 -14.45703125 22.2 -14.45 22.15 -13.97109375 22.15 -13.45 22.15 -11.65 23.15 -10.4 24.2 -9.1 25.6 -9.1 27 -9.1 28 -10.4 29.05 -11.65 29.05 -13.45 29.05 -14.040234375 28.9 -14.6 28.871875 -14.4861328125 28.8 -14.4 28.05 -13.45 26.95 -13.45 25.9 -13.45 25.15 -14.4 24.45 -15.3 24.45 -16.65 24.45 -17.90078125 25.1 -18.85 24.9056640625 -19.6634765625 24.35 -20.35 23.5 -21.35 22.25 -21.35 21.05 -21.35 20.2 -20.35 19.35 -19.3 19.35 -17.9
M 19.6 -12.8
Q 19.6 -13.7 19.05 -14.35 18.55 -14.95 17.8 -14.95 17.05 -14.95 16.5 -14.35 16 -13.7 16 -12.8 16 -11.9 16.5 -11.3 17.05 -10.65 17.8 -10.65 18.55 -10.65 19.05 -11.3 19.6 -11.9 19.6 -12.8 Z"/>

<path fill="#9DA6A6" stroke="none" d="
M 32.1 -40.9
Q 28.9 -43.25 24.35 -45.55 22 -46.8 20.2 -47.3 14.45 -50 7.75 -46.6 1.1 -43.2 -0.45 -42.45 -1.95 -41.65 -7.05 -42.9 -12.15 -44.1 -16 -43.65 -19.85 -43.15 -21.5 -41.1 -23.15 -39.05 -23.2 -38.7 -23.25 -38.6 -23.3 -38.5 -15.05 -44.1 -4.95 -38.45 2.05 -35.75 5.9 -42.5 6.95 -45.15 14.95 -45.65 30.6 -44.6 40.9 -31 38.45 -36.3 32.1 -40.9 Z"/>
</g>

<g id="Duplicate_Items_Folder_head_copy_42_0_Layer4_0_FILL">
<path fill="#798486" stroke="none" d="
M -68.15 12.6
Q -68 12.9 -67.8 13.15 -67.55 12.55 -67.3 11.95 -67.75 12.25 -68.15 12.6
M -24.85 23.15
Q -24.75 23.101953125 -24.7 23.05
L -24.85 23.15 -24.85 23.15
M 4.25 -26.35
Q 4.025390625 -26.4203125 3.75 -26.55 3.869921875 -26.3791015625 3.95 -26.25 4.0990234375 -26.2939453125 4.25 -26.35
M 1.4 -25.5
Q 1.622265625 -25.5318359375 1.8 -25.5 1.78359375 -26.123828125 2 -26.6 2.0576171875 -26.70546875 2.1 -26.8 -0.7224609375 -27.5798828125 -1.05 -30.8
L -2.25 -29.9
Q -2.196484375 -29.8896484375 -2.15 -29.9 -1.7 -29.95 -1.35 -29.4 -1 -28.85 -0.9 -28.1 -0.8 -27.35 -1 -26.75 -1.2 -26.15 -1.65 -26.1 -1.7380859375 -26.08046875 -1.85 -26.1
L -1.85 -26.05
Q -2.2 -25.5 -2.85 -25.4 -3.45 -25.3 -4 -25.75 -4.5 -26.15 -4.6 -26.85 -4.6205078125 -26.994140625 -4.65 -27.15 -4.8134765625 -27.1880859375 -5 -27.3 -5.45 -27.55 -5.55 -28 -5.6 -28.4 -5.25 -28.85 -4.85 -29.25 -4.3 -29.35 -3.75 -29.4 -3.3 -29.1 -3.0521484375 -28.9513671875 -2.9 -28.8 -2.8693359375 -28.991796875 -2.8 -29.2 -2.726171875 -29.421484375 -2.65 -29.6
L -2.65 -29.55
Q -6.31484375 -29.925390625 -6.6 -33.35 -10.5205078125 -32.9279296875 -13.4 -31.8 -13.7982421875 -31.6341796875 -14.2 -31.45 -15.45 -30.9 -16.35 -30.2 -19.55 -27.95 -21.05 -23.8 -23.75 -15.15 -26 -9.15 -30.25 2.2 -33.6 4.05 -39.5 7.35 -40.85 7.75 -44.1 8.65 -44.9 5.45 -45.35 3.65 -45.5 -2.65 -45.6 -7.45 -46.9 -8.7 -48.65 -10.45 -53.65 -9.8 -58.7 -9.2 -60.25 -6.85 -61.5 -4.8 -64.85 3.9 -66.6 8.25 -67.8 10.4 -68.3 12.65 -68.15 12.6 -67.75 12.25 -67.3 11.95 -65.9 8.3 -64.5 4.8 -61.15 -3.9 -59.85 -5.9 -58.4 -8.25 -53.7 -8.85 -56.1 -8.1 -57.05 -6.55 -58.35 -4.5 -61.7 4.2 -62.9 7.3 -63.65 10.25 -61.4 10.1 -60.6 14.35
L -60 11.05
Q -59.2 7.15 -58.05 5.35 -55.55 1.45 -55.3 1.15 -53.8 -0.55 -52.65 0.95 -49.5 5.15 -50.65 12.1 -51.4 16.55 -50.9 19.05 -50.3 22.15 -47.6 24.55 -44.7 27.15 -41.45 27.85 -38.25 28.5 -34.55 27.75 -30.9 26.9 -26.95 24.45 -25.7998046875 23.72578125 -24.85 23.15
L -24.85 23.15 -24.7 23.05
Q -24.6349609375 23.041796875 -24.6 23
L -24.6 23 -24.5 22.95
Q -22.65 21.65 -22.3 19.9 -21.9 18.2 -19.35 16.65 -16.8 15.1 -11.6 14.85 -16.8 15.1 -19.35 16.65 -21.9 18.2 -22.3 19.9 -22.65 21.65 -24.5 22.95
L -24.6 23 -24.6 23
Q -24.6349609375 23.041796875 -24.7 23.05 -24.75 23.101953125 -24.85 23.15 -19.294140625 22.2521484375 -15.8 22.65 -12.3095703125 23.039453125 -9.15 19.15 -5.938671875 15.314453125 -3.25 12.35 -3.15 12.5 -2.95 12.65 -0.9 11.55 -1.85 13.55 -1 14.3 4.3 19 6.2080078125 20.6583984375 8.2 22.05
L 15.35 21.3 18.25 25.3 24.55 22.35 28.8 23.35
Q 31.6021484375 21.726171875 34.8 19.35 47.45 9.95 51.1 -0.7 48.4498046875 -2.3708984375 46.45 -4
L 40.45 -3.9 41.9 -9.15
Q 40.413671875 -11.777734375 40.95 -14.3 42.3 -20.65 32.05 -20.85 21.9 -21.1 22 -28 22.05 -34.9 17.85 -30.45 13.65 -26 10.3 -26.65 9.9619140625 -27.1109375 8.6 -28.3 7.336328125 -26.574609375 5.85 -26.3 6.0544921875 -26.1896484375 6.25 -26.05 6.95 -25.5 7.1 -24.6 7.2 -23.75 6.65 -23 6.15 -22.25 5.25 -22.15 4.35 -22 3.6 -22.6 3.4791015625 -22.694921875 3.35 -22.8 3.32265625 -22.3619140625 3.1 -22 2.7 -21.3 2 -21.2 1.3 -21.1 0.75 -21.65 0.2 -22.2 0.05 -23.1 -0.05 -24 0.3 -24.7 0.7 -25.4 1.4 -25.5
M 8.05 -25.15
Q 8.3 -25.7 8.7 -25.75 9.15 -25.8 9.5 -25.35 9.9 -24.9 10 -24.15 10.1 -23.35 9.85 -22.8 9.65 -22.25 9.2 -22.2 8.8 -22.15 8.4 -22.6 8.05 -23.05 7.95 -23.85 7.85 -24.6 8.05 -25.15
M 5.45 -5.15
L 7.2 -5.2 6.95 -7.2 7.2 -5.2 9.55 -5.2 7.2 -5.2 7.35 -4.15 7.2 -5.2 5.45 -5.15 3.15 -8.7 1.7 -6.2 -1.25 -6.15 -1.5 -4.95 -1.25 -6.15 -2.45 -6.1 -1.25 -6.15 -0.7 -8.65 -1.25 -6.15 1.7 -6.2 3.15 -8.7 5.45 -5.15
M 39.1 2.9
Q 38.85 3.35 39.8 3.9 37.4 10.8 27.9 16.5 21.75 20.2 18.25 20.6 16.3 20.9 15.2 20.15 12.2 18.3 7 14.6
L 3.8 10.85
Q 10.05 14.6 12.05 15.9 14.1 17.25 17.9 17.85 21.7 18.45 28.45 13.95 35.15 9.5 39.1 2.9
M -11 -31.15
Q -12.2 -30.6 -13.15 -29.9 -16.3 -27.7 -17.85 -23.5 -20.55 -14.85 -22.8 -8.9 -26.95 2.15 -27.9 3.6 -28.9 5.1 -31.55 6.9 -34.25 8.75 -36.4 8.5 -38.6 8.3 -39.4 8.15 -37.5 7.35 -33.25 4.95 -33.15 4.95 -33 4.85 -29.75 2.75 -25.6 -8.25 -23.35 -14.25 -20.65 -22.9 -19.1 -27.05 -16 -29.35 -15 -30 -13.85 -30.55 -11.5 -31.6 -8.35 -32.15 -9.8 -31.7 -11 -31.15
M -39.3 17.95
L -39.55 15.9 -37.05 17.6 -35.1 16.55 -36.4 20.1 -35.5 23.75 -38.75 21.7 -42.05 22.15 -38.85 19.3 -39.2 18.45 -39.3 17.95 Z"/>

<path fill="#3D4343" stroke="none" d="
M -63.65 10.25
Q -65.15 9.9 -66.35 11.2 -66.9 11.1 -67.65 13.4 -64.5 18.05 -60.6 14.35 -61.4 10.1 -63.65 10.25 Z"/>

<path fill="#FF0000" stroke="none" d="
M -5.25 -28.85
Q -5.6 -28.4 -5.55 -28 -5.45 -27.55 -5 -27.3 -4.8134765625 -27.1880859375 -4.65 -27.15 -4.6205078125 -26.994140625 -4.6 -26.85 -4.5 -26.15 -4 -25.75 -3.45 -25.3 -2.85 -25.4 -2.2 -25.5 -1.85 -26.05
L -1.85 -26.1
Q -1.7380859375 -26.08046875 -1.65 -26.1 -1.2 -26.15 -1 -26.75 -0.8 -27.35 -0.9 -28.1 -1 -28.85 -1.35 -29.4 -1.7 -29.95 -2.15 -29.9 -2.196484375 -29.8896484375 -2.25 -29.9
L -2.65 -29.6
Q -2.726171875 -29.421484375 -2.8 -29.2 -2.8693359375 -28.991796875 -2.9 -28.8 -3.0521484375 -28.9513671875 -3.3 -29.1 -3.75 -29.4 -4.3 -29.35 -4.85 -29.25 -5.25 -28.85
M 1.8 -25.5
Q 1.622265625 -25.5318359375 1.4 -25.5 0.7 -25.4 0.3 -24.7 -0.05 -24 0.05 -23.1 0.2 -22.2 0.75 -21.65 1.3 -21.1 2 -21.2 2.7 -21.3 3.1 -22 3.32265625 -22.3619140625 3.35 -22.8 3.4791015625 -22.694921875 3.6 -22.6 4.35 -22 5.25 -22.15 6.15 -22.25 6.65 -23 7.2 -23.75 7.1 -24.6 6.95 -25.5 6.25 -26.05 6.0544921875 -26.1896484375 5.85 -26.3 5.2986328125 -26.5220703125 4.65 -26.45 4.4486328125 -26.41640625 4.25 -26.35 4.0990234375 -26.2939453125 3.95 -26.25 3.869921875 -26.3791015625 3.75 -26.55 3.6787109375 -26.6712890625 3.55 -26.8 3.15 -27.25 2.7 -27.2 2.3767578125 -27.1595703125 2.1 -26.8 2.0576171875 -26.70546875 2 -26.6 1.78359375 -26.123828125 1.8 -25.5
M 8.7 -25.75
Q 8.3 -25.7 8.05 -25.15 7.85 -24.6 7.95 -23.85 8.05 -23.05 8.4 -22.6 8.8 -22.15 9.2 -22.2 9.65 -22.25 9.85 -22.8 10.1 -23.35 10 -24.15 9.9 -24.9 9.5 -25.35 9.15 -25.8 8.7 -25.75 Z"/>

<path fill="#A2AAAA" stroke="none" d="
M -57.05 -6.55
Q -56.1 -8.1 -53.7 -8.85 -58.4 -8.25 -59.85 -5.9 -61.15 -3.9 -64.5 4.8 -65.9 8.3 -67.3 11.95 -67.55 12.55 -67.8 13.15 -67.95 13.4 -68.05 13.7 -67.9 13.55 -67.75 13.5 -67.65 13.45 -67.65 13.4 -66.9 11.1 -66.35 11.2 -65.15 9.9 -63.65 10.25 -62.9 7.3 -61.7 4.2 -58.35 -4.5 -57.05 -6.55
M -13.15 -29.9
Q -12.2 -30.6 -11 -31.15 -9.8 -31.7 -8.35 -32.15 -11.5 -31.6 -13.85 -30.55 -15 -30 -16 -29.35 -19.1 -27.05 -20.65 -22.9 -23.35 -14.25 -25.6 -8.25 -29.75 2.75 -33 4.85 -33.15 4.95 -33.25 4.95 -37.5 7.35 -39.4 8.15 -38.6 8.3 -36.4 8.5 -34.25 8.75 -31.55 6.9 -28.9 5.1 -27.9 3.6 -26.95 2.15 -22.8 -8.9 -20.55 -14.85 -17.85 -23.5 -16.3 -27.7 -13.15 -29.9 Z"/>

<path fill="#999900" stroke="none" d="
M 46.45 -4
Q 43.30078125 -6.6203125 41.9 -9.15
L 40.45 -3.9 46.45 -4 Z"/>

<path fill="#FF6699" stroke="none" d="
M 3.75 -26.55
Q 4.025390625 -26.4203125 4.25 -26.35 4.4486328125 -26.41640625 4.65 -26.45 5.2986328125 -26.5220703125 5.85 -26.3 7.336328125 -26.574609375 8.6 -28.3 7.75625 -29.0265625 4.95 -32.55 2.1408203125 -36.0779296875 -1.8 -35.2 -5.697265625 -34.2703125 -6.6 -33.35 -6.31484375 -29.925390625 -2.65 -29.55
L -2.65 -29.6 -2.25 -29.9 -1.05 -30.8
Q -0.7224609375 -27.5798828125 2.1 -26.8 2.3767578125 -27.1595703125 2.7 -27.2 3.15 -27.25 3.55 -26.8 3.6787109375 -26.6712890625 3.75 -26.55 Z"/>

<path fill="#8059A6" stroke="none" d="
M -39.3 17.95
L -39.2 18.45 -38.85 19.3 -39.3 17.95
M -39.55 15.9
L -39.3 17.95 -38.85 19.3 -42.05 22.15 -38.75 21.7 -35.5 23.75 -36.4 20.1 -35.1 16.55 -37.05 17.6 -39.55 15.9 Z"/>

<path fill="#5F6564" stroke="none" d="
M 39.8 3.9
Q 38.85 3.35 39.1 2.9 35.15 9.5 28.45 13.95 21.7 18.45 17.9 17.85 14.1 17.25 12.05 15.9 10.05 14.6 3.8 10.85
L 7 14.6
Q 12.2 18.3 15.2 20.15 16.3 20.9 18.25 20.6 21.75 20.2 27.9 16.5 37.4 10.8 39.8 3.9 Z"/>
</g>

<g id="Duplicate_Items_Folder_head_copy_42_0_Layer2_0_FILL">
<path fill="#FF0000" stroke="none" d="
M -21.45 -9.85
Q -22.15 -7.95 -21.95 -6.35 -21.7 -4.7 -20.55 -4.25 -19.55 -3.9 -18.45 -4.6 -18.3 -4.7 -18.1 -4.8 -18.05 -4.8 -18.05 -4.85 -16.55 -6.7 -16.15 -7.9 -15.4 -9.8 -16.05 -11.45 -16.65 -13.2 -17.75 -13.55 -18.9 -14 -19.85 -12.85 -20.8 -11.75 -21.45 -9.85
M -20.6 -7.85
Q -20.65 -8.45 -20.4 -8.95 -20.15 -9.45 -19.65 -9.55 -19.1 -9.6 -18.7 -9.2 -18.25 -8.8 -18.2 -8.15 -18.1 -7.55 -18.4 -7.05 -18.65 -6.55 -19.2 -6.5 -19.7 -6.4 -20.1 -6.8 -20.5 -7.2 -20.6 -7.85
M -23.85 -13.85
Q -24.65 -14.3 -25.6 -13.45 -26.6 -12.6 -26.95 -11.5 -27.25 -10.35 -27.3 -8.9 -27.4 -7.4 -26.85 -6.8 -26.3 -6.15 -25.45 -6.9 -24.6 -7.45 -23.9 -8.95 -23.75 -9.4 -23.65 -9.8 -23.3 -10.85 -23.25 -11.9 -23.2 -13.4 -23.85 -13.85
M -25 -10.4
Q -24.85625 -9.655859375 -25 -9.3 -25.1 -8.9 -25.45 -8.85 -25.75 -8.8 -26 -9.15 -26.25 -9.45 -26.35 -10 -26.4 -10.5 -26.25 -10.85 -26.0939453125 -11.1943359375 -25.8 -11.3 -25.468359375 -11.4171875 -25.3 -11.25 -25.0818359375 -11.0830078125 -25 -10.4 Z"/>

<path fill="#FFFFFF" stroke="none" d="
M -20.4 -8.95
Q -20.65 -8.45 -20.6 -7.85 -20.5 -7.2 -20.1 -6.8 -19.7 -6.4 -19.2 -6.5 -18.65 -6.55 -18.4 -7.05 -18.1 -7.55 -18.2 -8.15 -18.25 -8.8 -18.7 -9.2 -19.1 -9.6 -19.65 -9.55 -20.15 -9.45 -20.4 -8.95
M -25 -9.3
Q -24.85625 -9.655859375 -25 -10.4 -25.0818359375 -11.0830078125 -25.3 -11.25 -25.468359375 -11.4171875 -25.8 -11.3 -26.0939453125 -11.1943359375 -26.25 -10.85 -26.4 -10.5 -26.35 -10 -26.25 -9.45 -26 -9.15 -25.75 -8.8 -25.45 -8.85 -25.1 -8.9 -25 -9.3 Z"/>
</g>

<path id="leg_0_Layer1_0_1_STROKES" stroke="#000000" stroke-width="1" stroke-linejoin="round" stroke-linecap="round" fill="none" d="
M -25.15 -21.2
L -27.5 6.9
Q -30.4 7.25 -30.15 11.25 -19.9 13.3 -7.65 11.85 -5.55 12.6 -4.55 7.4 -3.55 2.2 -3.55 -5.5 -3.6 -13.1 -4.15 -17.75"/>

<path id="leg_0_Layer0_0_1_STROKES" stroke="#000000" stroke-width="1" stroke-linejoin="round" stroke-linecap="round" fill="none" d="
M -16.3 12.6
Q -16.1 10.25 -16.9 8.55 -17.75 6.75 -19.15 6.65 -20.5 6.55 -21.65 8.1 -22.75 9.65 -23 12 -22.95 12.25 -23.05 12.45
L -16.3 13.05
Q -16.35 12.8 -16.3 12.6 Z
M -26.6 3.65
Q -24.95 3.85 -23.9 6.15 -22.9 8.55 -23.2 11.75 -23.2 11.9 -23.2 12 -23.25 12.2 -23.25 12.45
L -31.4 11.7
Q -31.4 11.4 -31.4 11 -31.05 7.8 -29.7 5.7 -28.35 3.5 -26.6 3.65 Z"/>

<path id="back_leg_0_Layer1_0_1_STROKES" stroke="#000000" stroke-width="1" stroke-linejoin="round" stroke-linecap="round" fill="none" d="
M -5.35 -8.95
L -7.1 5.45
Q -10.85 6.15 -10.4 9.25 1.35 12.85 14 9.1
L 15.9 8.3
Q 17.65 6.95 16.5 4.55 15.3 2.15 16.75 -13.2 17.55 -20.85 18.5 -28.05
M -3.15 -27.25
L -4.35 -17.275
Q -3.85703125 -17.45 -3.3 -17.45 -1.7 -17.45 -0.6 -16.1 0.5466796875 -14.7546875 0.4 -11.975 0.2599609375 -9.1865234375 -0.875 -7.75 -2.0076171875 -6.313671875 -3.225 -7.275 -4.45390625 -8.2455078125 -5.35 -8.95
L -4.35 -17.275"/>

<path id="back_leg_0_Layer0_0_1_STROKES" stroke="#000000" stroke-width="1" stroke-linejoin="round" stroke-linecap="round" fill="none" d="
M 5.15 10.75
Q 5.2 8.7 4.25 7.25 3.2 5.8 1.75 5.75 0.25 5.7 -0.85 7.1 -2 8.45 -2.1 10.55 -2.1 10.75 -2.1 10.95
L 5.1 11.2
Q 5.15 11 5.15 10.75 Z
M -6.5 3.45
Q -4.65 3.55 -3.45 5.55 -2.2 7.55 -2.35 10.4 -2.35 10.5 -2.35 10.55 -2.35 10.75 -2.4 10.95
L -11.25 10.7
Q -11.25 10.4 -11.25 10.1 -11.15 7.3 -9.75 5.35 -8.35 3.4 -6.5 3.45 Z"/>

<path id="Duplicate_Items_Folder_stand_body_copy_2_0_Layer1_0_1_STROKES" stroke="#000000" stroke-width="1" stroke-linejoin="round" stroke-linecap="round" fill="none" d="
M 39.45 -28.5
L 39.5 -28.8
M 58.6 -10.9
L 58.4 -10.4
Q 47.75 -11.7 38.15 -21.3
L 39.45 -28.5 45.35 -21.05
Q 53 -13.2 56.55 -14.45 60.15 -15.7 59.55 -13.05
L 59.3 -12.5 64.75 -11.45
M 58.4 -11.2
L 58.6 -10.9 58.75 -11.25 59.3 -12.5
M 58.75 -11.25
L 63.75 -8.8
M 58.6 -10.9
L 60.8 -6.7
M 60 -14.4
L 63.75 -15.45"/>

<path id="Duplicate_Items_Folder_stand_body_copy_2_0_Layer0_0_1_STROKES" stroke="#000000" stroke-width="1" stroke-linejoin="round" stroke-linecap="round" fill="none" d="
M -23.3 -38.5
Q -23.25 -38.6 -23.2 -38.7 -23.15 -39.05 -21.5 -41.1 -19.85 -43.15 -16 -43.65 -12.15 -44.1 -7.05 -42.9 -1.95 -41.65 -0.45 -42.45 1.1 -43.2 7.75 -46.6 14.45 -50 20.2 -47.3 22 -46.8 24.35 -45.55 28.9 -43.25 32.1 -40.9 38.45 -36.3 40.9 -31 42.25 -28.15 42.4 -25.1 43 -14 40.55 -3.05 37.9 8.85 33.15 12.3 33 12.4 32.85 12.5 28.1 15.75 15.8 19.9 3.1 24.15 -2.3 23.85 -7.7 23.55 -14.1 22.6 -20.5 21.6 -26 18.85 -32.3 15.7 -36.3 12.25 -38.45 10.35 -39.75 8.55 -41.2 6.5 -41.55 4.5 -42.7 -2.2 -43.2 -7.95 -43.5 -11.1 -43.75 -15.45 -43.8453125 -16.3078125 -41.8 -18.9 -41.70546875 -19.01875 -41.6 -19.15
M -40.95 -19.95
Q -40.75 -20.2 -40.55 -20.45 -39.35 -21.95 -39.1 -22.25 -38.7701171875 -22.6599609375 -38.475 -23 -37.35 -24.4099609375 -36.95 -24.85 -35.7 -26.1 -34.3 -27.5 -33.05 -28.75 -31.75 -30 -28.95 -32.8 -26 -35.8 -25.15 -36.65 -24.3 -37.55 -23.5 -38.15 -23.3 -38.5
M -41.6 -19.15
Q -41.35 -19.5 -40.95 -19.95
M -41.8 -18.9
Q -41.7 -18.95 -41.6 -19.05 -41.15 -19.65 -40.75 -20.15 -40.65 -20.3 -40.55 -20.45 -39.85 -21.25 -39.05 -22.15
L -39.025 -22.175 -38.85 -22.35
Q -38.8 -22.6 -39.1 -22.25
M -38.475 -23
L -38.85 -22.35 -38.85 -22.3
M -40.25 -20.65
L -41.6 -19.05
M -38.85 -22.3
Q -38.940625 -22.2546875 -39.025 -22.175
M -39.05 -22.15
L -40.25 -20.65"/>

<path id="Duplicate_Items_Folder_head_copy_42_0_Layer4_0_1_STROKES" stroke="#000000" stroke-width="1" stroke-linejoin="round" stroke-linecap="round" fill="none" d="
M 2.125 -26.8
Q -0.7224609375 -27.5798828125 -1.05 -30.8
L -2.25 -29.875
M -2.625 -29.575
L -2.65 -29.55
Q -6.31484375 -29.925390625 -6.6 -33.325 -10.5205078125 -32.9279296875 -13.375 -31.8 -13.7982421875 -31.6341796875 -14.2 -31.45 -15.45 -30.9 -16.35 -30.2 -19.55 -27.95 -21.05 -23.8 -23.75 -15.15 -26 -9.15 -30.25 2.2 -33.6 4.05 -39.5 7.35 -40.85 7.75 -44.1 8.65 -44.9 5.45 -45.35 3.65 -45.5 -2.65 -45.6 -7.45 -46.9 -8.7 -48.65 -10.45 -53.65 -9.8 -58.7 -9.2 -60.25 -6.85 -61.5 -4.8 -64.85 3.9 -66.6 8.25 -67.8 10.4 -68.3 12.65 -68.15 12.6 -67.75 12.25 -67.3 11.95
M -63.65 10.25
Q -61.4 10.1 -60.6 14.35
L -60 11.05
Q -59.2 7.15 -58.05 5.35 -55.55 1.45 -55.3 1.15 -53.8 -0.55 -52.65 0.95 -49.5 5.15 -50.65 12.1 -51.4 16.55 -50.9 19.05 -50.3 22.15 -47.6 24.55 -44.7 27.15 -41.45 27.85 -38.25 28.5 -34.55 27.75 -30.9 26.9 -26.95 24.45 -25.7998046875 23.72578125 -24.825 23.15
L -24.85 23.15 -24.675 23.05
Q -24.6349609375 23.041796875 -24.6 23.025
L -24.575 23 -24.5 22.95
Q -22.65 21.65 -22.275 19.925 -21.9 18.2 -19.35 16.65 -16.8 15.1 -11.6 14.85
M 3.775 -26.525
Q 4.025390625 -26.4203125 4.275 -26.35
M 5.85 -26.275
Q 7.336328125 -26.574609375 8.6 -28.3 7.75625 -29.0265625 4.95 -32.55 2.1408203125 -36.0779296875 -1.775 -35.175 -5.697265625 -34.2703125 -6.6 -33.325
M 8.6 -28.3
Q 9.9619140625 -27.1109375 10.3 -26.65 13.65 -26 17.85 -30.45 22.05 -34.9 22 -28 21.9 -21.1 32.05 -20.85 42.3 -20.65 40.95 -14.3 40.413671875 -11.777734375 41.9 -9.125 43.30078125 -6.6203125 46.475 -4 48.4498046875 -2.3708984375 51.1 -0.7 47.45 9.95 34.8 19.35 31.6021484375 21.726171875 28.825 23.35
L 24.55 22.35 18.25 25.3 15.35 21.3 8.225 22.05
Q 6.2080078125 20.6583984375 4.3 19 -1 14.3 -1.85 13.55 -2.45 13.1 -2.95 12.65 -3.15 12.5 -3.25 12.35
M -9.125 19.175
Q -12.3095703125 23.039453125 -15.8 22.65 -19.294140625 22.2521484375 -24.825 23.15 -24.75 23.101953125 -24.675 23.05
M -0.7 -8.65
L -1.25 -6.125 1.7 -6.2 3.15 -8.7 5.45 -5.15 7.225 -5.175 6.95 -7.2
M 9.55 -5.2
L 7.225 -5.175 7.35 -4.15
M 41.9 -9.125
L 40.45 -3.9 46.475 -4
M -13.375 -31.8
L -13.45 -36.65
M -12.95 -32.35
L -10.35 -35.75
M -14.2 -31.45
L -16.2 -34.35
M -2.25 -29.875
L -2.625 -29.575
M -2.45 -6.1
L -1.25 -6.125 -1.5 -4.95
M -39.275 17.95
L -39.55 15.9 -37.05 17.6 -35.1 16.55 -36.4 20.1 -35.475 23.75 -38.75 21.7 -42.05 22.15 -38.825 19.3 -39.2 18.45 -39.275 17.95 -38.825 19.3
M -66.35 11.2
Q -65.15 9.9 -63.65 10.25
M -67.8 13.15
Q -68 12.9 -68.15 12.6
M -67.65 13.4
Q -64.5 18.05 -60.6 14.35"/>

<path id="Duplicate_Items_Folder_head_copy_42_0_Layer3_0_1_STROKES" stroke="#000000" stroke-width="1" stroke-linejoin="round" stroke-linecap="round" fill="none" d="
M -46.5 -6.55
L -48.6 -4.65
M -54.05 -9.7
L -53.25 -6.6
M -61.1 -4.4
L -58.85 -3.85
M -32.8 4.2
L -31.2 5.45
M -37.15 6.65
L -36.05 9.9
M -45.45 3.95
L -47.25 5.5
M -42.05 7.85
L -42.3 12.3
M -66.3 7
L -62.95 6.2
M -63.75 1.75
L -61.4 1.45"/>

<path id="Duplicate_Items_Folder_head_copy_42_0_Layer2_0_1_STROKES" stroke="#000000" stroke-width="1" stroke-linejoin="round" stroke-linecap="round" fill="none" d="
M -21.95 -17.45
Q -24.2 -19.8 -25.9 -20.25
M -23.85 -13.85
Q -23.2 -13.4 -23.25 -11.9 -23.3 -10.85 -23.65 -9.8 -23.75 -9.4 -23.9 -8.95 -24.6 -7.45 -25.45 -6.9 -26.3 -6.15 -26.85 -6.8 -27.4 -7.4 -27.3 -8.9 -27.25 -10.35 -26.95 -11.5 -26.6 -12.6 -25.6 -13.45 -24.65 -14.3 -23.85 -13.85 Z
M -18.1 -4.8
Q -18.05 -4.8 -18.05 -4.85 -16.55 -6.7 -16.15 -7.9 -15.4 -9.8 -16.05 -11.45 -16.65 -13.2 -17.75 -13.55 -18.9 -14 -19.85 -12.85 -20.8 -11.75 -21.45 -9.85 -22.15 -7.95 -21.95 -6.35 -21.7 -4.7 -20.55 -4.25 -19.55 -3.9 -18.45 -4.6
M -18.85 -17.1
Q -16.05 -18.35 -13.7 -18"/>
</defs>

<g transform="matrix( 2.739837646484375, 0, 0, 2.739837646484375, 301.1,425.45) ">
<g transform="matrix( 1, 0, 0, 1, 0,0) ">
<use xlink:href="#leg_0_Layer1_0_FILL"/>

<use xlink:href="#leg_0_Layer1_0_1_STROKES"/>
</g>

<g transform="matrix( 1, 0, 0, 1, 0,0) ">
<use xlink:href="#leg_0_Layer0_0_FILL"/>

<use xlink:href="#leg_0_Layer0_0_1_STROKES"/>
</g>
</g>

<g transform="matrix( 2.763275146484375, 0, 0, 2.763275146484375, 381.2,398.35) ">
<g transform="matrix( 1, 0, 0, 1, 0,0) ">
<use xlink:href="#back_leg_0_Layer1_0_FILL"/>

<use xlink:href="#back_leg_0_Layer1_0_1_STROKES"/>
</g>

<g transform="matrix( 1, 0, 0, 1, 0,0) ">
<use xlink:href="#back_leg_0_Layer0_0_FILL"/>

<use xlink:href="#back_leg_0_Layer0_0_1_STROKES"/>
</g>
</g>

<g transform="matrix( 3.31597900390625, 0, 0, 3.31597900390625, 450.2,392.35) "/>

<g transform="matrix( 3.31597900390625, 0, 0, 3.31597900390625, 338.7,367.1) ">
<g transform="matrix( 1, 0, 0, 1, 0,0) ">
<use xlink:href="#Duplicate_Items_Folder_stand_body_copy_2_0_Layer1_0_FILL"/>

<use xlink:href="#Duplicate_Items_Folder_stand_body_copy_2_0_Layer1_0_1_STROKES"/>
</g>

<g transform="matrix( 1, 0, 0, 1, 0,0) ">
<use xlink:href="#Duplicate_Items_Folder_stand_body_copy_2_0_Layer0_0_FILL"/>

<use xlink:href="#Duplicate_Items_Folder_stand_body_copy_2_0_Layer0_0_1_STROKES"/>
</g>
</g>

<g transform="matrix( 3.31597900390625, 0, 0, 3.31597900390625, 330.55,451.25) ">
<g transform="matrix( 1, 0, 0, 1, 0,0) ">
<use xlink:href="#leg_0_Layer1_0_FILL"/>

<use xlink:href="#leg_0_Layer1_0_1_STROKES"/>
</g>

<g transform="matrix( 1, 0, 0, 1, 0,0) ">
<use xlink:href="#leg_0_Layer0_0_FILL"/>

<use xlink:href="#leg_0_Layer0_0_1_STROKES"/>
</g>
</g>

<g transform="matrix( 2.763275146484375, 0, 0, 2.763275146484375, 420,440.15) ">
<g transform="matrix( 1, 0, 0, 1, 0,0) ">
<use xlink:href="#back_leg_0_Layer1_0_FILL"/>

<use xlink:href="#back_leg_0_Layer1_0_1_STROKES"/>
</g>

<g transform="matrix( 1, 0, 0, 1, 0,0) ">
<use xlink:href="#back_leg_0_Layer0_0_FILL"/>

<use xlink:href="#back_leg_0_Layer0_0_1_STROKES"/>
</g>
</g>

<g transform="matrix( 3.2795257568359375, 0.461669921875, -0.461669921875, 3.2795257568359375, 235.3,275.25) ">
<g transform="matrix( 1, 0, 0, 1, 0,0) ">
<use xlink:href="#Duplicate_Items_Folder_head_copy_42_0_Layer4_0_FILL"/>

<use xlink:href="#Duplicate_Items_Folder_head_copy_42_0_Layer4_0_1_STROKES"/>
</g>

<g transform="matrix( 1, 0, 0, 1, 0,0) ">
<use xlink:href="#Duplicate_Items_Folder_head_copy_42_0_Layer3_0_1_STROKES"/>
</g>

<g transform="matrix( 1, 0, 0, 1, 0,0) ">
<use xlink:href="#Duplicate_Items_Folder_head_copy_42_0_Layer2_0_FILL"/>

<use xlink:href="#Duplicate_Items_Folder_head_copy_42_0_Layer2_0_1_STROKES"/>
</g>
</g>

<g transform="matrix( 2.9678955078125, 0, 0, 2.9678955078125, 228.8,437.6) "/>
</svg>
