
<svg xmlns="http://www.w3.org/2000/svg" version="1.1" xmlns:xlink="http://www.w3.org/1999/xlink" preserveAspectRatio="none" x="0px" y="0px" width="560px" height="544px" viewBox="0 0 560 544">
<defs>
<filter id="Filter_1" x="-20%" y="-20%" width="140%" height="140%" color-interpolation-filters="sRGB">
<feColorMatrix in="SourceGraphic" type="matrix" values="2.1910368620348226 -0.5568109300457299 -0.6342259319890925 0 0 -0.5656332441472893 1.5401928052759788 0.0254404388713107 0 0 -0.05903561830073689 -1.3357728708635468 2.3948084891642836 0 0 0 0 0 1 0 " result="result1"/>
</filter>

<filter id="Filter_2" x="-20%" y="-20%" width="140%" height="140%" color-interpolation-filters="sRGB">
<feColorMatrix in="SourceGraphic" type="matrix" values="0.3086 0.6094 0.082 0 -0.27450980392156865 0.3086 0.6094 0.082 0 -0.27450980392156865 0.3086 0.6094 0.082 0 -0.27450980392156865 0 0 0 1 0 " result="result1"/>
</filter>

<filter id="Filter_3" x="-20%" y="-20%" width="140%" height="140%" color-interpolation-filters="sRGB">
<feColorMatrix in="SourceGraphic" type="matrix" values="0.3086 0.6094 0.082 0 -0.27450980392156865 0.3086 0.6094 0.082 0 -0.27450980392156865 0.3086 0.6094 0.082 0 -0.27450980392156865 0 0 0 1 0 " result="result1"/>
</filter>

<filter id="Filter_4" x="-20%" y="-20%" width="140%" height="140%" color-interpolation-filters="sRGB">
<feColorMatrix in="SourceGraphic" type="matrix" values="0.3086 0.6094 0.082 0 -0.27450980392156865 0.3086 0.6094 0.082 0 -0.27450980392156865 0.3086 0.6094 0.082 0 -0.27450980392156865 0 0 0 1 0 " result="result1"/>
</filter>

<filter id="Filter_5" x="-20%" y="-20%" width="140%" height="140%" color-interpolation-filters="sRGB">
<feColorMatrix in="SourceGraphic" type="matrix" values="2.1910368620348226 -0.5568109300457299 -0.6342259319890925 0 0 -0.5656332441472893 1.5401928052759788 0.0254404388713107 0 0 -0.05903561830073689 -1.3357728708635468 2.3948084891642836 0 0 0 0 0 1 0 " result="result1"/>
</filter>

<filter id="Filter_6" x="-20%" y="-20%" width="140%" height="140%" color-interpolation-filters="sRGB">
<feColorMatrix in="SourceGraphic" type="matrix" values="2.1910368620348226 -0.5568109300457299 -0.6342259319890925 0 0 -0.5656332441472893 1.5401928052759788 0.0254404388713107 0 0 -0.05903561830073689 -1.3357728708635468 2.3948084891642836 0 0 0 0 0 1 0 " result="result1"/>
</filter>

<filter id="Filter_7" x="-20%" y="-20%" width="140%" height="140%" color-interpolation-filters="sRGB">
<feColorMatrix in="SourceGraphic" type="matrix" values="0.3086 0.6094 0.082 0 -0.27450980392156865 0.3086 0.6094 0.082 0 -0.27450980392156865 0.3086 0.6094 0.082 0 -0.27450980392156865 0 0 0 1 0 " result="result1"/>
</filter>

<filter id="Filter_8" x="-20%" y="-20%" width="140%" height="140%" color-interpolation-filters="sRGB">
<feColorMatrix in="SourceGraphic" type="matrix" values="0.3086 0.6094 0.082 0 -0.27450980392156865 0.3086 0.6094 0.082 0 -0.27450980392156865 0.3086 0.6094 0.082 0 -0.27450980392156865 0 0 0 1 0 " result="result1"/>
</filter>

<filter id="Filter_9" x="-20%" y="-20%" width="140%" height="140%" color-interpolation-filters="sRGB">
<feColorMatrix in="SourceGraphic" type="matrix" values="0.3086 0.6094 0.082 0 -0.27450980392156865 0.3086 0.6094 0.082 0 -0.27450980392156865 0.3086 0.6094 0.082 0 -0.27450980392156865 0 0 0 1 0 " result="result1"/>
</filter>

<filter id="Filter_10" x="-20%" y="-20%" width="140%" height="140%" color-interpolation-filters="sRGB">
<feColorMatrix in="SourceGraphic" type="matrix" values="0.3086 0.6094 0.082 0 -0.27450980392156865 0.3086 0.6094 0.082 0 -0.27450980392156865 0.3086 0.6094 0.082 0 -0.27450980392156865 0 0 0 1 0 " result="result1"/>
</filter>

<filter id="Filter_11" x="-20%" y="-20%" width="140%" height="140%" color-interpolation-filters="sRGB">
<feColorMatrix in="SourceGraphic" type="matrix" values="0.3086 0.6094 0.082 0 -0.27450980392156865 0.3086 0.6094 0.082 0 -0.27450980392156865 0.3086 0.6094 0.082 0 -0.27450980392156865 0 0 0 1 0 " result="result1"/>
</filter>

<g id="full_tree_0_Layer4_0_FILL">
<path fill="#F14935" stroke="none" d="
M 5.05 -175
L 10.55 -194 -1.75 -220.35 -2.6 -217.15 -44.45 -198.5 -59.95 -178.5
Q -64.15 -164.45 -52.15 -156.75 -27.95 -158.85 -16.15 -177.15
L -20.05 -164.7 5.05 -175
M -35.5 -199.6
L -5.2 -213.1
Q -8.2 -196.75 -14.85 -184 -23.45 -170.7 -41.1 -169.15 -49.85 -174.75 -46.8 -185
L -35.5 -199.6
M -209.45 -25.1
L -210.95 -24 -209.45 -25.1 -211.2 -24.35 -234.9 2.4 -183 -20.95 -139 -71.95 -137.95 -111.05
Q -146.323046875 -82.29375 -164.95 -58
L -209.45 -25.1
M 95.25 -46.9
L 111.6 -25.75 144.55 -16.7 171 7 183.6 12.55 161.35 -17.25 139.5 -32 95.25 -46.9
M 37.55 -60.5
Q 36.9 -65 18.55 -89.5
L -7.95 -94 -24.95 -81
Q -57.55 -35.95 -35 6.15
L -18.1 -0.05
Q -21.85 0.55 -26 -0.35 -32.05 -19.8 -28.9 -47.55
L -18.6 -70.3 -0.55 -80.75 13.75 -72.25
Q 33.5 -37.15 27.5 -5.6 27.95 -5.65 28.4 -5.7 28.1 -5.1 27.85 -4.65 28.7 -4.4 36.55 -0.1 36.75 -0.35 36.95 -0.55 51.75 -18.45 37.55 -60.5
M 36.05 -201.05
Q 19.9 -207 8.7 -219.5
L 29.05 -177 28.5 -176.6
Q 35.65 -169.1 42.3 -173.55 41.65 -175.25 41 -177 39.65 -180.75 38.6 -184.75 37.383984375 -189.583203125 36.7 -194.75 36.27578125 -197.83203125 36.05 -201.05
M 30.7 -178.6
L 31.1 -178.9 16.25 -209.9
Q 24.45 -200.8 36.2 -196.45 36.2583984375 -195.639453125 36.3 -194.85 36.831640625 -189.4671875 38.05 -184.55 38.85 -181.65 39.8 -178.9 40.3 -177.65 40.75 -176.4 35.9 -173.15 30.7 -178.6
M 19.75 -322.15
L 6 -329
Q -18.5 -357.75 -65.95 -334
L -82.95 -319 -151.95 -370 -187.95 -373 -214.95 -384 -238.95 -378 -266.95 -364.45 -214 -378.95 -173 -360.95 -147 -355.95 -90 -307.95 -75.4 -312.8 -76.3 -313.5 -84.2 -319.6 -76.3 -313.5 -49 -332.95
Q -29.5 -342.6423828125 -6 -336.95
L 8.9 -321.15 19.75 -322.15
M 110.55 -310.85
L 113 -312 128.4 -312.7 101 -324.95 45 -306.95 -26 -296.95 -62 -267.95 -93 -261.95 -122 -194.95 -113 -135.95 -107 -74.95 -128.85 -6.3
Q -127.3822265625 -6.105078125 -126.1 -5.8 -120.2720703125 -4.4162109375 -115.85 -3.4
L -97.1 -71.65 -111 -181.95 -71.4 -248.3 -4 -262.95 24 -289.95 76 -309.95 110.55 -310.85
M 186.2 -304.05
L 192 -302 161 -324 138 -328 110 -343 64 -325 49 -325 20.4 -322.05 20 -322 19.75 -322.15 8.9 -321.15 15.9 -315.25 65 -315.95 107 -334.95 133 -322.95 160 -317.95 186.2 -304.05 Z"/>

<path fill="#000000" stroke="none" d="
M -5.2 -213.1
L -35.5 -199.6 -46.8 -185
Q -49.85 -174.75 -41.1 -169.15 -23.45 -170.7 -14.85 -184 -8.2 -196.75 -5.2 -213.1
M 48.05 -81
L 19.05 -118.5 -12.95 -119.5 -23.95 -115.5 -35.95 -81.9 -15.95 -111 16.05 -113 48.05 -81
M 31.1 -178.9
L 30.7 -178.6
Q 35.9 -173.15 40.75 -176.4 40.3 -177.65 39.8 -178.9 38.85 -181.65 38.05 -184.55 36.831640625 -189.4671875 36.3 -194.85 36.2583984375 -195.639453125 36.2 -196.45 24.45 -200.8 16.25 -209.9
L 31.1 -178.9 Z"/>

<path fill="#6F0000" stroke="none" d="
M 35.8 -214.5
Q 35.9134765625 -216.9470703125 36.1 -219.5
L 2 -241.95 -52 -219.95 -87 -173.95 -83 -118.95 -61.35 -123.9 -76 -79.95 -60 -31.95 -69.45 6.6 -88.35 37.5 -77.95 44.95 -72.95 36.95 -60.95 24.95 -56.45 17.95
Q -46.35 11.45 -35 6.15 -57.55 -35.95 -24.95 -81
L -7.95 -94 18.55 -89.5
Q 36.9 -65 37.55 -60.5 51.75 -18.45 36.95 -0.55 38.3 -0.75 44 2
L 87 18.95
Q 128.1 39.5 172.35 30.05 182.0697265625 26.228125 190.65 22
L 183.6 12.55 171 7 144.55 -16.7 111.6 -25.75 95.25 -46.9 92.8 -47.7
Q 82.15 -60.3 74.5 -71.05 66.8 -81.85 63 -88.05 53.1 -107.1 60 -122.8 57.9 -128.7 56.25 -133.75 52.05 -146.75 42.3 -173.55 35.65 -169.1 28.5 -176.6
L 23.05 -159 3.75 -153.3 -20.5 -162.35 -20.95 -162 -20.05 -164.7 -16.15 -177.15
Q -27.95 -158.85 -52.15 -156.75 -64.15 -164.45 -59.95 -178.5
L -44.45 -198.5 -2.6 -217.15 -1.75 -220.35 -1.8 -220.45 -1.45 -221.5 6.95 -223.15 8.7 -219.5
Q 19.9 -207 36.05 -201.05 35.5599609375 -207.5177734375 35.8 -214.5
M 24.2 -124.15
L 53.4 -77.2 13.75 -105.05 -12 -103.65 -44 -68.15 -41.7 -80.25 -29.35 -119.3 -8.15 -126.95 24.2 -124.15
M -174.2 -69.3
Q -183.4 -61.15 -196.9 -52.8 -210.45 -44.5 -216.95 -42
L -208.95 -37 -220.95 -26 -209.45 -25.1 -164.95 -58
Q -146.323046875 -82.29375 -137.95 -111.05
L -139 -71.95 -183 -20.95 -234.9 2.4 -254.9 26.25
Q -248.4861328125 34.9478515625 -213.05 21.05 -179.7654296875 5.109375 -155.55 -2.2
L -128 -69.95 -131.9 -127.4
Q -133.35234375 -122.6466796875 -136.45 -117.55
L -137.7 -111.9
Q -137.85 -111.6966796875 -138 -111.5 -148.123828125 -97.8005859375 -156.5 -87.7 -165 -77.45 -174.2 -69.3
M -188 -45.95
Q -188 -45.1 -189.05 -44.55 -190.05 -43.95 -191.5 -43.95 -191.591015625 -43.95 -191.7 -43.95 -191 -42.84296875 -191 -41.45 -191 -39.6 -192.2 -38.3 -193.35 -36.95 -195 -36.95 -196.65 -36.95 -197.85 -38.3 -199 -39.6 -199 -41.45 -199 -43.3 -197.85 -44.65 -196.65 -45.95 -195 -45.95 -195 -46.8 -194 -47.4 -192.95 -47.95 -191.5 -47.95 -190.05 -47.95 -189.05 -47.4 -188 -46.8 -188 -45.95
M -142 -297.95
L -132 -315.95 -151 -342.95 -209.65 -365.6 -170.95 -345 -147.95 -310
Q -147.4 -302.15 -157.95 -298 -178.75 -296.6 -187.95 -301 -185.769921875 -295.01640625 -168.7 -290.7
L -142 -297.95
M 35.8 -214.5
Q 35.5599609375 -207.5177734375 36.05 -201.05 36.27578125 -197.83203125 36.7 -194.75
L 62.05 -186.25
Q 62.360546875 -187.604296875 63.6 -188.65 65.2 -189.95 67.5 -189.95 69.8 -189.95 71.4 -188.65 73 -187.3 73 -185.45 73 -184.0376953125 72.05 -182.95
L 89 -181.95 112 -197.1 103.5 -196.5 81.5 -188 76.8 -192.35
Q 71.55 -197.6 69.05 -202 67.8609375 -204.069140625 67.85 -207.3
L 57 -198.95 35.8 -214.5
M 47.7 -198.1
Q 48.45 -198.95 49.5 -198.95 50.55 -198.95 51.25 -198.1 52 -197.2 52 -195.95 52 -194.7 51.25 -193.85 50.55 -192.95 49.5 -192.95 48.45 -192.95 47.7 -193.85 47 -194.7 47 -195.95 47 -197.2 47.7 -198.1
M 38.15 -235.45
Q 38.3017578125 -236.3482421875 38.45 -237.3
L 12 -255.95 9.15 -245.5 38.15 -235.45
M -65.85 -225.35
L -18 -244.95 -23 -252.95 -65.85 -225.35
M 54.55 -278
L 51.5 -269.6 78 -259 94 -259 105 -250 138 -258 116 -258 100.8 -266.55 82 -260.95 54.55 -278 Z"/>

<path fill="#360000" stroke="none" d="
M 53.4 -77.2
L 24.2 -124.15 -8.15 -126.95 -29.35 -119.3 -41.7 -80.25 -44 -68.15 -12 -103.65 13.75 -105.05 53.4 -77.2
M 19.05 -118.5
L 48.05 -81 16.05 -113 -15.95 -111 -35.95 -81.9 -23.95 -115.5 -12.95 -119.5 19.05 -118.5
M 18.55 -165
L 6.05 -166.5 -20.5 -162.35 3.75 -153.3 23.05 -159 28.5 -176.6 18.55 -165
M 112 -197.1
L 89 -181.95 72.05 -182.95
Q 71.778515625 -182.6076171875 71.4 -182.3 69.8 -180.95 67.5 -180.95 65.2 -180.95 63.6 -182.3 62 -183.6 62 -185.45 62 -185.8669921875 62.05 -186.25
L 36.7 -194.75
Q 37.383984375 -189.583203125 38.6 -184.75 47 -181.4 59.65 -174.5 72.25 -167.65 79.05 -169.45 85.85 -171.3 92.85 -176.6
L 97 -179 107.5 -176 118 -177.5 108 -179.5 100.5 -184.5 124.5 -198 112 -197.1 Z"/>

<path fill="#272625" stroke="none" d="
M -11.95 -2.35
L -18.1 -0.05
Q -14.85 -0.6 -11.95 -2.35
M 27.5 -5.6
Q 33.5 -37.15 13.75 -72.25
L -0.55 -80.75 -18.6 -70.3 -28.9 -47.55
Q -32.05 -19.8 -26 -0.35 -21.85 0.55 -18.1 -0.05
L -11.95 -2.35
Q -9.05 -4.1 -6.5 -7 -3.7 -6.75 -0.95 -6.4 13.15 -4.65 27.5 -5.6 Z"/>

<path fill="#494847" stroke="none" d="
M -11.95 -2.35
L -0.95 -6.4
Q -3.7 -6.75 -6.5 -7 -9.05 -4.1 -11.95 -2.35 Z"/>

<path fill="#1F0000" stroke="none" d="
M -189.05 -44.55
Q -188 -45.1 -188 -45.95 -188 -46.8 -189.05 -47.4 -190.05 -47.95 -191.5 -47.95 -192.95 -47.95 -194 -47.4 -195 -46.8 -195 -45.95 -196.65 -45.95 -197.85 -44.65 -199 -43.3 -199 -41.45 -199 -39.6 -197.85 -38.3 -196.65 -36.95 -195 -36.95 -193.35 -36.95 -192.2 -38.3 -191 -39.6 -191 -41.45 -191 -42.84296875 -191.7 -43.95 -191.591015625 -43.95 -191.5 -43.95 -190.05 -43.95 -189.05 -44.55
M 110 -54.1
Q 109 -53.2 109 -51.95 109 -50.7 110 -49.85 111.05 -48.95 112.5 -48.95 113.95 -48.95 114.95 -49.85 116 -50.7 116 -51.95 116 -53.2 114.95 -54.1 113.95 -54.95 112.5 -54.95 111.05 -54.95 110 -54.1
M 99.45 -60.95
Q 98 -59.9 98 -58.45 98 -57 99.45 -56 100.95 -54.95 103 -54.95 105.05 -54.95 106.5 -56 108 -57 108 -58.45 108 -59.9 106.5 -60.95 105.05 -61.95 103 -61.95 100.95 -61.95 99.45 -60.95
M 67.5 -189.95
Q 65.2 -189.95 63.6 -188.65 62.360546875 -187.604296875 62.05 -186.25 62 -185.8669921875 62 -185.45 62 -183.6 63.6 -182.3 65.2 -180.95 67.5 -180.95 69.8 -180.95 71.4 -182.3 71.778515625 -182.6076171875 72.05 -182.95 73 -184.0376953125 73 -185.45 73 -187.3 71.4 -188.65 69.8 -189.95 67.5 -189.95
M 49.5 -198.95
Q 48.45 -198.95 47.7 -198.1 47 -197.2 47 -195.95 47 -194.7 47.7 -193.85 48.45 -192.95 49.5 -192.95 50.55 -192.95 51.25 -193.85 52 -194.7 52 -195.95 52 -197.2 51.25 -198.1 50.55 -198.95 49.5 -198.95 Z"/>

<path fill="#701D13" stroke="none" d="
M -266.75 -257.05
L -250.95 -236 -226.95 -222 -204.95 -201 -170.95 -197
Q -163.2 -189 -154.45 -178.25 -138.8318359375 -159.0619140625 -133.2 -146.05
L -135 -172.95 -159 -204.95 -208.05 -210.85 -218.35 -225.75 -266.75 -257.05
M 36.1 -219.5
Q 35.9134765625 -216.9470703125 35.8 -214.5
L 57 -198.95 67.85 -207.3
Q 67.8580078125 -210.8685546875 69.3 -215.85 70.7 -220.6 72.55 -224.5
L 80.5 -231.5 85 -244 75.55 -233.5 63.55 -226.5 54.05 -216.5 37.2 -229.5
Q 36.4765625 -224.3681640625 36.1 -219.5 Z"/>

<path fill="#530000" stroke="none" d="
M 61 -116
Q 60.55 -119.25 60 -122.8 53.1 -107.1 63 -88.05 66.8 -81.85 74.5 -71.05 82.15 -60.3 92.8 -47.7
L 95.25 -46.9 139.5 -32 161.35 -17.25 161.6 -17.1 181 -19 159 -36 131 -54 92 -73 76.9 -91.85
Q 61.65 -111.6 61 -116
M 98 -58.45
Q 98 -59.9 99.45 -60.95 100.95 -61.95 103 -61.95 105.05 -61.95 106.5 -60.95 108 -59.9 108 -58.45 108 -57 106.5 -56 105.05 -54.95 103 -54.95 100.95 -54.95 99.45 -56 98 -57 98 -58.45
M 109 -51.95
Q 109 -53.2 110 -54.1 111.05 -54.95 112.5 -54.95 113.95 -54.95 114.95 -54.1 116 -53.2 116 -51.95 116 -50.7 114.95 -49.85 113.95 -48.95 112.5 -48.95 111.05 -48.95 110 -49.85 109 -50.7 109 -51.95 Z"/>

<path fill="#CE3D2C" stroke="none" d="
M 8.7 -219.5
L 6.95 -223.15 -1.45 -221.5 -1.8 -220.45 -1.75 -220.35 10.55 -194 5.05 -175 -20.05 -164.7 -20.95 -162 -20.5 -162.35 6.05 -166.5 18.55 -165 28.5 -176.6 29.05 -177 8.7 -219.5
M 51.5 -269.6
L 54.55 -278 82 -260.95 100.8 -266.55 100 -267 82 -267 71 -292 110.55 -310.85 76 -309.95 24 -289.95 -4 -262.95 -71.4 -248.3 -111 -181.95 -97.1 -71.65 -115.85 -3.4
Q -103.6544921875 -0.5333984375 -102.15 -0.35 -100.1 -0.1 -99.2 0.45 -98.4 0.95 -94.05 3.55 -92.8 4.35 -89.95 6.3
L -90.85 4.85
Q -90.7 5 -90.55 5.2 -90 5.85 -89.95 6.3
L -91.95 16.95 -86.95 22.95 -91.95 34.95 -88.35 37.5 -69.45 6.6 -60 -31.95 -76 -79.95 -61.35 -123.9 -83 -118.95 -87 -173.95 -52 -219.95 2 -241.95 36.1 -219.5
Q 36.4765625 -224.3681640625 37.2 -229.5 37.6158203125 -232.451171875 38.15 -235.45
L 9.15 -245.5 12 -255.95 38.45 -237.3
Q 40.4599609375 -248.0259765625 43.8 -259 46.1 -266.45 48 -271
L 51.5 -269.6
M -18 -244.95
L -65.85 -225.35 -23 -252.95 -18 -244.95
M 160 -317.95
L 133 -322.95 107 -334.95 65 -315.95 15.9 -315.25 8.9 -321.15 3.8 -320.65 8.9 -321.15 -6 -336.95
Q -29.5 -342.6423828125 -49 -332.95
L -76.3 -313.5 -75.4 -312.8 -72.8 -310.8 -75.4 -312.8 -90 -307.95 -147 -355.95 -173 -360.95 -214 -378.95 -266.95 -364.45 -271.95 -362 -242.95 -368 -221 -369.8 -220.6 -369.8 -217.95 -370 -209.65 -365.6 -151 -342.95 -132 -315.95 -142 -297.95 -168.7 -290.7
Q -167.370703125 -290.32890625 -165.95 -290
L -142.95 -290 -126.95 -296
Q -113.65 -281.25 -111.45 -266.5 -99 -242.95 -121.95 -223
L -137.95 -218
Q -153.35 -217 -164.95 -237
L -184.95 -265
Q -196.45 -271.45 -207.95 -268
L -190.95 -260
Q -189.2 -256.25 -187.2 -251.1 -183.2 -240.85 -181.95 -234 -180.7 -227.1 -189.7 -226.35 -194.2 -226 -198.95 -227
L -219.95 -238 -241.95 -246
Q -256.95 -250.35 -271.95 -264
L -266.75 -257.05 -218.35 -225.75 -208.05 -210.85 -159 -204.95 -135 -172.95 -133.2 -146.05
Q -132.4876953125 -144.478515625 -131.95 -143 -129.3267578125 -135.7701171875 -131.9 -127.4
L -128 -69.95 -155.55 -2.2
Q -138.465625 -7.353515625 -128.85 -6.3
L -107 -74.95 -113 -135.95 -122 -194.95 -93 -261.95 -62 -267.95 -26 -296.95 45 -306.95 101 -324.95 128.4 -312.7 158 -314 186.2 -304.05 160 -317.95 Z"/>
</g>

<g id="full_tree_0_Layer3_0_FILL">
<path fill="#F14935" stroke="none" d="
M -253.85 27.8
Q -252.8431640625 27.9888671875 -252.05 27.35 -253.93515625 27.8056640625 -253.85 27.8
M -212.65 6.75
Q -215.25 5 -219 5 -222.75 5 -225.4 6.75 -225.683203125 6.940625 -225.95 7.15 -226.9166015625 7 -228 7 -231.3 7 -233.65 8.3 -236 9.65 -236 11.5 -236 12.3998046875 -235.45 13.15 -236 14.2138671875 -236 15.5 -236 17.35 -234.85 18.65 -233.65 20 -232 20 -230.35 20 -229.2 18.65 -228.165625 17.529296875 -228.05 16
L -228 16
Q -226.2599609375 16 -224.8 15.6 -222.3244140625 17 -219 17 -215.25 17 -212.65 15.25 -210 13.5 -210 11 -210 8.5 -212.65 6.75
M -150.7 -53.5
Q -152 -52 -152 -49.95 -152 -47.9 -150.7 -46.45 -149.35 -44.95 -147.5 -44.95 -145.65 -44.95 -144.35 -46.45 -143 -47.9 -143 -49.95 -143 -52 -144.35 -53.5 -145.65 -54.95 -147.5 -54.95 -149.35 -54.95 -150.7 -53.5
M -184.5 -23
Q -185.95 -23 -187 -22 -188 -20.95 -188 -19.5 -188 -18.05 -187 -17.05 -185.95 -16 -184.5 -16 -183.05 -16 -182.05 -17.05 -181 -18.05 -181 -19.5 -181 -20.95 -182.05 -22 -183.05 -23 -184.5 -23
M -165.8 -48.35
Q -168 -46.75 -168 -44.45 -168 -42.15 -165.8 -40.55 -163.6 -38.95 -160.5 -38.95 -157.4 -38.95 -155.2 -40.55 -153 -42.15 -153 -44.45 -153 -46.75 -155.2 -48.35 -157.4 -49.95 -160.5 -49.95 -163.6 -49.95 -165.8 -48.35
M -159.05 -216.55
Q -157 -218.15 -157 -220.45 -157 -222.75 -159.05 -224.35 -161.1 -225.95 -164 -225.95 -164.54453125 -225.95 -165.05 -225.9 -165 -226.162890625 -165 -226.45 -165 -227.9 -166.5 -228.95 -167.95 -229.95 -170 -229.95 -172.05 -229.95 -173.55 -228.95 -175 -227.9 -175 -226.45 -175 -225 -173.55 -224 -172.1474609375 -223.018359375 -170.3 -222.95 -171 -221.827734375 -171 -220.45 -171 -218.15 -168.95 -216.55 -166.9 -214.95 -164 -214.95 -161.1 -214.95 -159.05 -216.55
M -108.05 -308
Q -107 -309 -107 -310.45 -107 -311.9 -108.05 -312.95 -109.05 -313.95 -110.5 -313.95 -111.95 -313.95 -113 -312.95 -114 -311.9 -114 -310.45 -114 -309 -113 -308 -111.95 -306.95 -110.5 -306.95 -109.05 -306.95 -108.05 -308
M -133.75 -324.85
Q -133 -325.7 -133 -326.95 -133 -328.2 -133.75 -329.1 -134.45 -329.95 -135.5 -329.95 -136.55 -329.95 -137.3 -329.1 -138 -328.2 -138 -326.95 -138 -325.7 -137.3 -324.85 -136.55 -323.95 -135.5 -323.95 -134.45 -323.95 -133.75 -324.85
M -138.05 -337.15
Q -137 -338.3 -137 -339.95 -137 -341.6 -138.05 -342.8 -139.05 -343.95 -140.5 -343.95 -141.95 -343.95 -143 -342.8 -144 -341.6 -144 -339.95 -144 -338.3 -143 -337.15 -141.95 -335.95 -140.5 -335.95 -139.05 -335.95 -138.05 -337.15 Z"/>

<path fill="#360000" stroke="none" d="
M -53.35 8.65
Q -52 7.35 -52 5.5 -52 3.65 -53.35 2.3 -54.65 1 -56.5 1 -58.35 1 -59.7 2.3 -61 3.65 -61 5.5 -61 7.35 -59.7 8.65 -58.35 10 -56.5 10 -54.65 10 -53.35 8.65
M -53.05 -12.05
Q -52 -13.05 -52 -14.5 -52 -15.95 -53.05 -17 -54.05 -18 -55.5 -18 -56.95 -18 -58 -17 -59 -15.95 -59 -14.5 -59 -13.05 -58 -12.05 -56.95 -11 -55.5 -11 -54.05 -11 -53.05 -12.05
M -37.5 -152.95
Q -38.95 -152.95 -40 -151.95 -41 -150.9 -41 -149.45 -41 -148 -40 -147 -38.95 -145.95 -37.5 -145.95 -36.05 -145.95 -35.05 -147 -34 -148 -34 -149.45 -34 -150.9 -35.05 -151.95 -36.05 -152.95 -37.5 -152.95
M 166.15 17.15
Q 164.9015625 17 163.5 17 160 17 157.5 18 155 19.05 155 20.5 155 21.95 157.5 22.95 160 24 163.5 24 167 24 169.5 22.95 170.696484375 22.471484375 171.3 21.9 172.12109375 22 173 22 175.9 22 177.95 20.8 180 19.65 180 18 180 16.35 177.95 15.15 175.9 14 173 14 170.1 14 168.05 15.15 166.541015625 16.033203125 166.15 17.15
M 57.5 -11
Q 58.95 -11 59.95 -11.9 61 -12.75 61 -14 61 -15.25 59.95 -16.15 58.95 -17 57.5 -17 56.05 -17 55 -16.15 54 -15.25 54 -14 54 -12.75 55 -11.9 56.05 -11 57.5 -11
M 75.5 -35
Q 71.15 -35 68.05 -31.35 65 -27.7 65 -22.5 65 -17.3 68.05 -13.65 71.15 -10 75.5 -10 77.4818359375 -10 79.2 -10.75 79.908203125 -9.6234375 81.05 -8.65 84.15 -6 88.5 -6 92.85 -6 95.9 -8.65 99 -11.25 99 -15 99 -18.75 95.9 -21.4 92.85 -24 88.5 -24 87.16796875 -24 85.95 -23.75 85.6185546875 -28.1490234375 82.9 -31.35 79.85 -35 75.5 -35
M 38 -143.45
Q 38 -140.75 39.3 -138.85 40.65 -136.95 42.5 -136.95 44.35 -136.95 45.65 -138.85 47 -140.75 47 -143.45 47 -146.15 45.65 -148.05 44.35 -149.95 42.5 -149.95 40.65 -149.95 39.3 -148.05 38 -146.15 38 -143.45
M 35.5 -136.95
Q 34.45 -136.95 33.7 -136.25 33 -135.5 33 -134.45 33 -133.4 33.7 -132.7 34.45 -131.95 35.5 -131.95 36.55 -131.95 37.25 -132.7 38 -133.4 38 -134.45 38 -135.5 37.25 -136.25 36.55 -136.95 35.5 -136.95 Z"/>

<path fill="#6F0000" stroke="none" d="
M -92 -131.45
Q -92 -136.65 -94.5 -140.3 -97 -143.95 -100.5 -143.95 -104 -143.95 -106.5 -140.3 -109 -136.65 -109 -131.45 -109 -126.25 -106.5 -122.6 -106.2001953125 -122.1623046875 -105.9 -121.8 -106 -120.8947265625 -106 -119.95 -106 -115.8 -103.8 -112.9 -101.6 -109.95 -98.5 -109.95 -95.4 -109.95 -93.2 -112.9 -91 -115.8 -91 -119.95 -91 -123.61171875 -92.75 -126.35 -92 -128.6736328125 -92 -131.45
M -87 -235.95
Q -89.5 -235.95 -91.25 -233.9 -93 -231.85 -93 -228.95 -93 -226.05 -91.25 -224 -89.5 -221.95 -87 -221.95 -84.5 -221.95 -82.75 -224 -81 -226.05 -81 -228.95 -81 -229.0126953125 -81 -229.1 -78.9484375 -227.95 -76.5 -227.95 -72.15 -227.95 -69.1 -231.5 -66 -235 -66 -239.95 -66 -244.9 -69.1 -248.45 -72.15 -251.95 -76.5 -251.95 -80.85 -251.95 -83.95 -248.45 -87 -244.9 -87 -239.95 -87 -237.798828125 -86.45 -235.95 -86.706640625 -235.95 -87 -235.95
M 25.85 -301.1
Q 25 -300.2 25 -298.95 25 -297.7 25.85 -296.85 26.75 -295.95 28 -295.95 29.25 -295.95 30.1 -296.85 31 -297.7 31 -298.95 31 -300.2 30.1 -301.1 29.25 -301.95 28 -301.95 26.75 -301.95 25.85 -301.1
M 18.5 -300.55
Q 20 -302.15 20 -304.45 20 -306.75 18.5 -308.35 17.05 -309.95 15 -309.95 12.95 -309.95 11.45 -308.35 10 -306.75 10 -304.45 10 -302.15 11.45 -300.55 12.95 -298.95 15 -298.95 17.05 -298.95 18.5 -300.55
M 3 -299.95
Q 3 -303.25 1.1 -305.6 -0.8 -307.95 -3.5 -307.95 -6.2 -307.95 -8.1 -305.6 -10 -303.25 -10 -299.95 -10 -296.65 -8.1 -294.3 -6.2 -291.95 -3.5 -291.95 -0.8 -291.95 1.1 -294.3 3 -296.65 3 -299.95 Z"/>
</g>

<g id="full_tree_0_Layer2_0_FILL">
<path fill="#775F53" stroke="none" d="
M -4.7 -2.25
L -4.7 -2.4 -11.75 -0.65 -4.7 -2.25
M -7.6 -44.6
Q -10.15 -42.5 -12.35 -39.85 -9.95 -37.55 -9.8 -35.45 -12 -29.85 -16.05 -28.5 -17.75 -29.9 -16.85 -32.75
L -17.65 -32.6
Q -21.2 -26.8 -23.9 -19.5 -23.3 -17.25 -22.5 -15.1 -22.55 -16.8 -22.75 -18
L -15.55 -19.8
Q -17.45 -19.95 -15.8 -23.1 -10.2 -20.7 -10.55 -17.7 -11.8 -11.9 -15.25 -12.55 -16.45 -13.5 -15.8 -15.6
L -22.35 -14.75
Q -19.6 -7.35 -15.45 0.55
L -11.75 -0.65 -4.7 -2.4 -7.6 -44.6
M 9.75 -3.25
L 9.75 -3.65 -4.7 -2.4 -4.7 -2.25 9.75 -3.25
M 9.75 -3.65
L 9.75 -3.25 14.2 -4.2 9.75 -3.65
M 5.2 -38.35
Q 6.6 -39.6 8.35 -40.1
L 7.9 -52.85
Q -0.8 -50.45 -7.6 -44.6
L -4.7 -2.4 9.75 -3.65 8.8 -27.9
Q 6.8 -28.2 5.2 -29.5 3.1 -31.2 3.1 -33.8 3.1 -36.4 5.2 -38.35
M 17.65 -54.4
Q 12.5 -54.15 7.9 -52.85
L 8.35 -40.1
Q 9.3 -40.35 10.35 -40.4 13.3 -40.55 15.45 -38.85 17.55 -37.1 17.55 -34.5 17.55 -31.9 15.45 -30 13.3 -28 10.35 -27.85 9.55 -27.8 8.8 -27.9
L 9.75 -3.65 14.2 -4.2 16.1 -4.65 21.9 -5.15
Q 22.9 -14 22.9 -31.2 22.9 -46.1 17.65 -54.4 Z"/>

<path fill="#C0B872" stroke="none" d="
M -22.5 -15.1
Q -22.5 -14.95 -22.5 -14.75
L -22.35 -14.75 -15.8 -15.6
Q -16.45 -13.5 -15.25 -12.55 -11.8 -11.9 -10.55 -17.7 -10.2 -20.7 -15.8 -23.1 -17.45 -19.95 -15.55 -19.8
L -22.75 -18
Q -22.55 -16.8 -22.5 -15.1
M -16.85 -43.35
Q -19.25 -38.9 -16.45 -38.65
L -26.15 -36.75
Q -26.4 -34.2 -26.25 -31.6
L -17.65 -32.6 -16.85 -32.75
Q -17.75 -29.9 -16.05 -28.5 -12 -29.85 -9.8 -35.45 -9.95 -37.55 -12.35 -39.85 -14.05 -41.55 -16.85 -43.35
M 15.45 -38.85
Q 13.3 -40.55 10.35 -40.4 9.3 -40.35 8.35 -40.1 6.6 -39.6 5.2 -38.35 3.1 -36.4 3.1 -33.8 3.1 -31.2 5.2 -29.5 6.8 -28.2 8.8 -27.9 9.55 -27.8 10.35 -27.85 13.3 -28 15.45 -30 17.55 -31.9 17.55 -34.5 17.55 -37.1 15.45 -38.85
M 7 -34.95
Q 7 -35.85 8.1 -36.55 9.2 -37.2 10.7 -37.25 12.25 -37.35 13.3 -36.8 14.4 -36.2 14.4 -35.3 14.4 -34.45 13.3 -33.75 12.25 -33.05 10.7 -32.95 9.2 -32.9 8.1 -33.5 7 -34.1 7 -34.95 Z"/>

<path fill="#4A3C35" stroke="none" d="
M -26.25 -31.6
Q -26.1 -28.65 -25.4 -25.55 -24.8 -22.4 -23.9 -19.5 -21.2 -26.8 -17.65 -32.6
L -26.25 -31.6
M -8.95 -64.05
Q -15.7 -61.1 -20.95 -52.35 -25.4 -44.8 -26.15 -36.75
L -16.45 -38.65
Q -19.25 -38.9 -16.85 -43.35 -14.05 -41.55 -12.35 -39.85 -10.15 -42.5 -7.6 -44.6
L -8.95 -64.05
M 17.65 -54.4
Q 16.6 -56.05 15.4 -57.45 11.8 -61.5 7.45 -63.5
L 7.9 -52.85
Q 12.5 -54.15 17.65 -54.4
M 7.45 -63.5
Q 6.15 -64.15 4.8 -64.55 2.1 -62.65 -1.35 -62.45 -5.15 -62.25 -8.1 -64.35 -8.55 -64.2 -8.95 -64.05
L -7.6 -44.6
Q -0.8 -50.45 7.9 -52.85
L 7.45 -63.5 Z"/>

<path fill="#76527A" stroke="none" d="
M -8.95 -64.05
L -9 -65.1
Q -9.2 -65.2 -9.4 -65.4 -12.2 -68.1 -12.65 -71.85 -20.35 -68.1 -26.5 -59.2 -36.4 -44.7 -34.3 -28.3 -32.8 -16.65 -27.6 -7.6 -25.5 -3.95 -22.75 2.2
L -15.45 0.55
Q -19.6 -7.35 -22.35 -14.75
L -22.5 -14.75
Q -22.5 -14.95 -22.5 -15.1 -23.3 -17.25 -23.9 -19.5 -24.8 -22.4 -25.4 -25.55 -26.1 -28.65 -26.25 -31.6 -26.4 -34.2 -26.15 -36.75 -25.4 -44.8 -20.95 -52.35 -15.7 -61.1 -8.95 -64.05
M 10 -73
Q 9.55 -69.2 6.7 -66.2 5.8 -65.25 4.8 -64.55 6.15 -64.15 7.45 -63.5 11.8 -61.5 15.4 -57.45 16.6 -56.05 17.65 -54.4 22.9 -46.1 22.9 -31.2 22.9 -14 21.9 -5.15
L 23.45 -4.9
Q 31.2 -15.2 32.5 -36.25 33.15 -46.35 30.9 -53.7 28.5 -61.6 22.7 -66.2 16.75 -71 10 -73 Z"/>

<path fill="#EFEDDC" stroke="none" d="
M 8.1 -36.55
Q 7 -35.85 7 -34.95 7 -34.1 8.1 -33.5 9.2 -32.9 10.7 -32.95 12.25 -33.05 13.3 -33.75 14.4 -34.45 14.4 -35.3 14.4 -36.2 13.3 -36.8 12.25 -37.35 10.7 -37.25 9.2 -37.2 8.1 -36.55 Z"/>

<path fill="#F14935" stroke="none" d="
M 10.1 -74.55
Q 10.1 -79.3 6.7 -82.45 3.4 -85.7 -1.35 -85.45 -6.05 -85.25 -9.4 -81.65 -12.75 -78.15 -12.75 -73.4 -12.75 -72.6 -12.65 -71.85 -12.2 -68.1 -9.4 -65.4 -9.2 -65.2 -9 -65.1 -8.6 -64.65 -8.1 -64.35 -5.15 -62.25 -1.35 -62.45 2.1 -62.65 4.8 -64.55 5.8 -65.25 6.7 -66.2 9.55 -69.2 10 -73 10.1 -73.8 10.1 -74.55
M 4.2 -78.65
L 4.2 -78.6
Q 6.5 -76.5 6.5 -73.3 6.5 -72 6.1 -70.9 5.55 -69.2 4.2 -67.85 1.9 -65.45 -1.35 -65.25 -1.45 -65.25 -1.6 -65.25 -4.65 -65.2 -6.9 -67.3 -8.05 -68.4 -8.6 -69.75 -9.15 -71 -9.15 -72.5 -9.15 -75.7 -6.9 -78.1 -6.25 -78.75 -5.5 -79.2 -3.7 -80.5 -1.35 -80.6 1.9 -80.8 4.2 -78.65 Z"/>

<path fill="#2D55F4" stroke="none" d="
M -2.95 -71.8
Q -3.35 -72.2 -3.5 -72.75
L -8.6 -69.75
Q -8.05 -68.4 -6.9 -67.3 -4.65 -65.2 -1.6 -65.25
L -1.4 -71.05
Q -2.25 -71.05 -2.95 -71.8 Z"/>

<path fill="#5E7CF7" stroke="none" d="
M -5.5 -79.2
Q -6.25 -78.75 -6.9 -78.1 -9.15 -75.7 -9.15 -72.5 -9.15 -71 -8.6 -69.75
L -3.5 -72.75
Q -3.65 -73.15 -3.65 -73.6 -3.65 -74.7 -2.95 -75.55 -2.7 -75.75 -2.5 -75.85
L -5.5 -79.2
M 4.2 -78.6
L 0.8 -75.4
Q 1.3 -74.75 1.3 -73.85 1.3 -73.2 1.05 -72.65
L 6.1 -70.9
Q 6.5 -72 6.5 -73.3 6.5 -76.5 4.2 -78.6
M 0.8 -75.4
Q 0.7 -75.55 0.55 -75.7 -0.15 -76.4 -1.15 -76.35 -1.9 -76.35 -2.5 -75.85 -2.7 -75.75 -2.95 -75.55 -3.65 -74.7 -3.65 -73.6 -3.65 -73.15 -3.5 -72.75 -3.35 -72.2 -2.95 -71.8 -2.25 -71.05 -1.4 -71.05 -1.25 -71.05 -1.15 -71.05 -0.15 -71.1 0.55 -71.95 0.85 -72.25 1.05 -72.65 1.3 -73.2 1.3 -73.85 1.3 -74.75 0.8 -75.4 Z"/>

<path fill="#0B33D2" stroke="none" d="
M 4.2 -67.85
Q 5.55 -69.2 6.1 -70.9
L 1.05 -72.65
Q 0.85 -72.25 0.55 -71.95 -0.15 -71.1 -1.15 -71.05 -1.25 -71.05 -1.4 -71.05
L -1.6 -65.25
Q -1.45 -65.25 -1.35 -65.25 1.9 -65.45 4.2 -67.85 Z"/>

<path fill="#AEBEFB" stroke="none" d="
M 4.2 -78.6
L 4.2 -78.65
Q 1.9 -80.8 -1.35 -80.6 -3.7 -80.5 -5.5 -79.2
L -2.5 -75.85
Q -1.9 -76.35 -1.15 -76.35 -0.15 -76.4 0.55 -75.7 0.7 -75.55 0.8 -75.4
L 4.2 -78.6 Z"/>
</g>

<g id="full_tree_0_Layer1_0_FILL">
<path fill="#F14935" stroke="none" d="
M -159.15 -130.4
Q -157.15 -127.35 -155.2 -124.7 -146.9 -120.1 -138.2 -125.45 -146.9 -120.1 -155.2 -124.7 -143.15 -108.85 -128.25 -107.5 -128.05 -119.1 -124.65 -131.2 -156.2 -126.75 -159.15 -130.4
M -139.05 -117.6
Q -141.65 -113.6 -147.8 -117.15 -141.65 -113.6 -139.05 -117.6 Z"/>

<path fill="#A7A6A5" stroke="none" d="
M -124.65 -131.2
Q -129.4 -136.4 -131.05 -142.2 -131.9 -141.7 -132.8 -141.15 -135.75 -139.35 -138.8 -137.9 -148.35 -133.2 -158.4 -131.5
L -159.15 -130.4
Q -156.2 -126.75 -124.65 -131.2
M -150.9 -150.6
L -151.3 -149.95
Q -149.6 -147.8 -130.95 -150.4 -133.85 -153.5 -134.75 -156.95 -142.6 -152.05 -150.9 -150.6 Z"/>

<path fill="#6C6B68" stroke="none" d="
M -130.95 -150.4
Q -149.6 -147.8 -151.3 -149.95 -150.15 -148.15 -149 -146.6 -144.15 -143.85 -139 -147.05 -144.15 -143.85 -149 -146.6 -144.25 -140.35 -138.8 -137.9 -135.75 -139.35 -132.8 -141.15 -132.25 -145.75 -130.95 -150.4
M -139.5 -142.4
Q -141 -140.05 -144.65 -142.15 -141 -140.05 -139.5 -142.4 Z"/>
</g>

<g id="skull_0_Layer0_0_FILL">
<path fill="#000000" stroke="none" d="
M 18.5 23.65
L 18.25 27.5
Q 19.8 27.15 21.6 25.7
L 21.45 23.3
Q 19.15 22 18.5 23.65
M 11.7 23.4
L 8.6 23.8 9.65 27
Q 9.65 26.85 10.65 27.4 10.95 27.5 11.8 27.75
L 11.7 23.4
M 16.6 23.55
Q 14.9 22.4 13.9 23.4
L 14 28.3
Q 14.65 28.3 16.3 27.9
L 16.6 23.55
M 14.65 18.55
Q 14.4 18.15 14.15 18 13.75 17.65 13.25 17.75 12.85 17.9 12.6 18.25 12.45 18.8 12.6 19.05 12.45 19.55 13 19.7 13.35 19.8 13.9 19.7 14.5 19.7 14.65 19.3 14.8 19.05 14.65 18.55
M 17.2 17.75
Q 17.2 17.25 16.45 17.1 16.2 16.6 15.55 17.1 15.4 17.1 14.9 17.35 14.5 17.9 14.65 18.25 15.15 18.55 15.4 19.3 15.95 19.8 16.3 19.95 16.95 19.7 17.2 19.05 17.2 18.15 17.2 17.75
M 15.4 11.85
Q 15.4 9.9 14.25 8 13.25 6.45 11.7 6.45 10.15 6.35 9.15 7.6 8.75 9 7.45 11.2 5.9 13.25 7.45 15.05 8.35 16.35 10.3 16.85 12.1 16.85 13.6 15.45 14.9 13.9 15.4 11.85
M 24.9 11.6
Q 23.65 9.55 23 8.1 21.95 6.7 20.55 6.85 19.25 7.1 17.85 8.65 16.95 10.3 17.1 12.5 17.2 14.4 18.9 15.95 20.3 17.35 22.25 17.1 24.05 16.85 25.2 15.3 26.35 13.65 24.9 11.6 Z"/>

<path fill="#FFFFFF" stroke="none" d="
M 30.05 12.1
Q 29.4 4.25 23 1.55 16.3 -1.4 9.5 1.3 2.6 4.15 0.5 11.6 -1.15 19.15 2.85 19.05 6.7 18.4 8.6 23.8
L 11.7 23.4 11.8 27.75
Q 12.2 27.75 14 28.3
L 13.9 23.4
Q 14.9 22.4 16.6 23.55
L 16.3 27.9
Q 16.95 27.9 17.6 27.9 18.1 27.75 18.25 27.5
L 18.5 23.65
Q 19.15 22 21.45 23.3
L 21.6 25.7
Q 21.6 19.45 26.35 19.8 30.85 20.05 30.05 12.1
M 23 8.1
Q 23.65 9.55 24.9 11.6 26.35 13.65 25.2 15.3 24.05 16.85 22.25 17.1 20.3 17.35 18.9 15.95 17.2 14.4 17.1 12.5 16.95 10.3 17.85 8.65 19.25 7.1 20.55 6.85 21.95 6.7 23 8.1
M 14.25 8
Q 15.4 9.9 15.4 11.85 14.9 13.9 13.6 15.45 12.1 16.85 10.3 16.85 8.35 16.35 7.45 15.05 5.9 13.25 7.45 11.2 8.75 9 9.15 7.6 10.15 6.35 11.7 6.45 13.25 6.45 14.25 8
M 16.45 17.1
Q 17.2 17.25 17.2 17.75 17.2 18.15 17.2 19.05 16.95 19.7 16.3 19.95 15.95 19.8 15.4 19.3 15.15 18.55 14.65 18.25 14.5 17.9 14.9 17.35 15.4 17.1 15.55 17.1 16.2 16.6 16.45 17.1
M 14.15 18
Q 14.4 18.15 14.65 18.55 14.8 19.05 14.65 19.3 14.5 19.7 13.9 19.7 13.35 19.8 13 19.7 12.45 19.55 12.6 19.05 12.45 18.8 12.6 18.25 12.85 17.9 13.25 17.75 13.75 17.65 14.15 18 Z"/>
</g>

<g id="Duplicate_Items_Folder_blue_flower_copy_2_0_Layer1_0_FILL">
<path fill="#00CCFF" stroke="none" d="
M 10.8 -2.1
Q 12.8 -7.85 8.7 -12.25 4.05 -16.7 -1.6 -15.15 -6.7 -14.05 -10.25 -9.3 -13.1 -5.45 -9.7 -1.5 -8.15 0.5 -6.2 2.05 -6.05 1.9 -6 5 -5.9 6.9 -6 7.35 -5.05 7.65 -3.6 8.15
L -2.55 3.5 -3.6 8.15
Q -1.85 8.55 1.05 8.85
L 1.05 4.35 1.05 8.85
Q 1.8 8.85 2.75 8.95 3.75 7.55 4.2 5.5 4.75 3.2 6.05 3.25 7.1 3.5 8.4 1.9 10.05 0.2 10.8 -2.1
M 2.95 -8.05
Q 3.95 -9 5.05 -8.35 6.2 -8.05 7.5 -7.05 9.05 -6.15 8.75 -4.2 8.45 -2.15 7.15 -1 5.9 0.2 4.55 -0.65 3 -1.3 2.3 -2.45 1.4 -3.6 1.95 -5.3 2.2 -7.25 2.95 -8.05
M 0.25 -8.35
Q 1 -7.2 0.75 -5.2 0.5 -3.6 -0.85 -2.3 -2.35 -1.45 -3.85 -1.65 -4.95 -1.9 -5.7 -3.2 -6.4 -4.4 -6.2 -6.25 -5.75 -7.95 -4.9 -8.35 -3.8 -8.75 -2.05 -9.3 -0.55 -9.65 0.25 -8.35 Z"/>

<path fill="#000000" stroke="none" d="
M 0.75 -5.2
Q 1 -7.2 0.25 -8.35 -0.55 -9.65 -2.05 -9.3 -3.8 -8.75 -4.9 -8.35 -5.75 -7.95 -6.2 -6.25 -6.4 -4.4 -5.7 -3.2 -4.95 -1.9 -3.85 -1.65 -2.35 -1.45 -0.85 -2.3 0.5 -3.6 0.75 -5.2
M 5.05 -8.35
Q 3.95 -9 2.95 -8.05 2.2 -7.25 1.95 -5.3 1.4 -3.6 2.3 -2.45 3 -1.3 4.55 -0.65 5.9 0.2 7.15 -1 8.45 -2.15 8.75 -4.2 9.05 -6.15 7.5 -7.05 6.2 -8.05 5.05 -8.35 Z"/>
</g>

<g id="Duplicate_Items_Folder_blue_flower_copy_3_0_Layer1_0_FILL">
<path fill="#00FFFF" stroke="none" d="
M 4.3 -0.55
Q 5.05 -0.55 6 -0.45 7 -1.85 7.45 -3.9 8 -6.2 9.3 -6.15 10.35 -5.9 11.65 -7.5 13.3 -9.2 14.05 -11.5 16.05 -17.25 11.95 -21.65 7.3 -26.1 1.65 -24.55 -3.45 -23.45 -7 -18.7 -9.85 -14.85 -6.45 -10.9 -4.9 -8.9 -2.95 -7.35 -2.8 -7.5 -2.75 -4.4 -2.65 -2.5 -2.75 -2.05 -1.8 -1.75 -0.35 -1.25
L 0.7 -5.9 -0.35 -1.25
Q 1.4 -0.85 4.3 -0.55
L 4.3 -5.05 4.3 -0.55
M 10.75 -16.45
Q 12.3 -15.55 12 -13.6 11.7 -11.55 10.4 -10.4 9.15 -9.2 7.8 -10.05 6.25 -10.7 5.55 -11.85 4.65 -13 5.2 -14.7 5.45 -16.65 6.2 -17.45 7.2 -18.4 8.3 -17.75 9.45 -17.45 10.75 -16.45
M 3.5 -17.75
Q 4.25 -16.6 4 -14.6 3.75 -13 2.4 -11.7 0.9 -10.85 -0.6 -11.05 -1.7 -11.3 -2.45 -12.6 -3.15 -13.8 -2.95 -15.65 -2.5 -17.35 -1.65 -17.75 -0.55 -18.15 1.2 -18.7 2.7 -19.05 3.5 -17.75 Z"/>

<path fill="#000000" stroke="none" d="
M 4 -14.6
Q 4.25 -16.6 3.5 -17.75 2.7 -19.05 1.2 -18.7 -0.55 -18.15 -1.65 -17.75 -2.5 -17.35 -2.95 -15.65 -3.15 -13.8 -2.45 -12.6 -1.7 -11.3 -0.6 -11.05 0.9 -10.85 2.4 -11.7 3.75 -13 4 -14.6
M 12 -13.6
Q 12.3 -15.55 10.75 -16.45 9.45 -17.45 8.3 -17.75 7.2 -18.4 6.2 -17.45 5.45 -16.65 5.2 -14.7 4.65 -13 5.55 -11.85 6.25 -10.7 7.8 -10.05 9.15 -9.2 10.4 -10.4 11.7 -11.55 12 -13.6 Z"/>
</g>

<g id="Duplicate_Items_Folder_lily_leaf_copy_0_Layer0_0_FILL">
<path fill="#00CCFF" stroke="none" d="
M 14.15 0.8
Q 7.25 4.85 3.7 9.4 6.35 16.05 18.55 8.85 20.7 6.45 22.65 3.55 22.75 -1.7 14.15 0.8
M 20.95 1.05
Q 12.05 4.5 9.35 10.1 12.05 4.5 20.95 1.05 Z"/>

<path fill="#00FFFF" stroke="none" d="
M 0 19.45
Q 10.5 17.85 18.55 8.85 6.35 16.05 3.7 9.4 -0.05 14.15 0 19.45 Z"/>
</g>

<g id="Duplicate_Items_Folder_full_tree_copy_0_Layer4_0_FILL">
<path fill="#CC0000" stroke="none" d="
M -245.2 33.85
Q -243.95 33.85 -243.1 33.1 -242.2 32.4 -242.2 31.35 -242.2 30.3 -243.1 29.55 -243.95 28.85 -245.2 28.85 -246.45 28.85 -247.35 29.55 -248.2 30.3 -248.2 31.35 -248.2 32.4 -247.35 33.1 -246.45 33.85 -245.2 33.85
M -212.65 6.75
Q -215.25 5 -219 5 -222.75 5 -225.4 6.75 -225.683203125 6.940625 -225.95 7.15 -226.9166015625 7 -228 7 -231.3 7 -233.65 8.3 -236 9.65 -236 11.5 -236 12.3998046875 -235.45 13.15 -236 14.2138671875 -236 15.5 -236 17.35 -234.85 18.65 -233.65 20 -232 20 -230.35 20 -229.2 18.65 -228.165625 17.529296875 -228.05 16
L -228 16
Q -226.2599609375 16 -224.8 15.6 -222.3244140625 17 -219 17 -215.25 17 -212.65 15.25 -210 13.5 -210 11 -210 8.5 -212.65 6.75
M -53.35 8.65
Q -52 7.35 -52 5.5 -52 3.65 -53.35 2.3 -54.65 1 -56.5 1 -58.35 1 -59.7 2.3 -61 3.65 -61 5.5 -61 7.35 -59.7 8.65 -58.35 10 -56.5 10 -54.65 10 -53.35 8.65
M -53.05 -12.05
Q -52 -13.05 -52 -14.5 -52 -15.95 -53.05 -17 -54.05 -18 -55.5 -18 -56.95 -18 -58 -17 -59 -15.95 -59 -14.5 -59 -13.05 -58 -12.05 -56.95 -11 -55.5 -11 -54.05 -11 -53.05 -12.05
M -150.7 -53.5
Q -152 -52 -152 -49.95 -152 -47.9 -150.7 -46.45 -149.35 -44.95 -147.5 -44.95 -145.65 -44.95 -144.35 -46.45 -143 -47.9 -143 -49.95 -143 -52 -144.35 -53.5 -145.65 -54.95 -147.5 -54.95 -149.35 -54.95 -150.7 -53.5
M -37.5 -152.95
Q -38.95 -152.95 -40 -151.95 -41 -150.9 -41 -149.45 -41 -148 -40 -147 -38.95 -145.95 -37.5 -145.95 -36.05 -145.95 -35.05 -147 -34 -148 -34 -149.45 -34 -150.9 -35.05 -151.95 -36.05 -152.95 -37.5 -152.95
M -184.5 -23
Q -185.95 -23 -187 -22 -188 -20.95 -188 -19.5 -188 -18.05 -187 -17.05 -185.95 -16 -184.5 -16 -183.05 -16 -182.05 -17.05 -181 -18.05 -181 -19.5 -181 -20.95 -182.05 -22 -183.05 -23 -184.5 -23
M -168 -44.45
Q -168 -42.15 -165.8 -40.55 -163.6 -38.95 -160.5 -38.95 -157.4 -38.95 -155.2 -40.55 -153 -42.15 -153 -44.45 -153 -46.75 -155.2 -48.35 -157.4 -49.95 -160.5 -49.95 -163.6 -49.95 -165.8 -48.35 -168 -46.75 -168 -44.45
M -159.05 -216.55
Q -157 -218.15 -157 -220.45 -157 -222.75 -159.05 -224.35 -161.1 -225.95 -164 -225.95 -164.54453125 -225.95 -165.05 -225.9 -165 -226.162890625 -165 -226.45 -165 -227.9 -166.5 -228.95 -167.95 -229.95 -170 -229.95 -172.05 -229.95 -173.55 -228.95 -175 -227.9 -175 -226.45 -175 -225 -173.55 -224 -172.1474609375 -223.018359375 -170.3 -222.95 -171 -221.827734375 -171 -220.45 -171 -218.15 -168.95 -216.55 -166.9 -214.95 -164 -214.95 -161.1 -214.95 -159.05 -216.55
M -108.05 -308
Q -107 -309 -107 -310.45 -107 -311.9 -108.05 -312.95 -109.05 -313.95 -110.5 -313.95 -111.95 -313.95 -113 -312.95 -114 -311.9 -114 -310.45 -114 -309 -113 -308 -111.95 -306.95 -110.5 -306.95 -109.05 -306.95 -108.05 -308
M -133.75 -324.85
Q -133 -325.7 -133 -326.95 -133 -328.2 -133.75 -329.1 -134.45 -329.95 -135.5 -329.95 -136.55 -329.95 -137.3 -329.1 -138 -328.2 -138 -326.95 -138 -325.7 -137.3 -324.85 -136.55 -323.95 -135.5 -323.95 -134.45 -323.95 -133.75 -324.85
M -138.05 -337.15
Q -137 -338.3 -137 -339.95 -137 -341.6 -138.05 -342.8 -139.05 -343.95 -140.5 -343.95 -141.95 -343.95 -143 -342.8 -144 -341.6 -144 -339.95 -144 -338.3 -143 -337.15 -141.95 -335.95 -140.5 -335.95 -139.05 -335.95 -138.05 -337.15
M 166.15 17.15
Q 164.9015625 17 163.5 17 160 17 157.5 18 155 19.05 155 20.5 155 21.95 157.5 22.95 160 24 163.5 24 167 24 169.5 22.95 170.696484375 22.471484375 171.3 21.9 172.12109375 22 173 22 175.9 22 177.95 20.8 180 19.65 180 18 180 16.35 177.95 15.15 175.9 14 173 14 170.1 14 168.05 15.15 166.541015625 16.033203125 166.15 17.15
M 57.5 -11
Q 58.95 -11 59.95 -11.9 61 -12.75 61 -14 61 -15.25 59.95 -16.15 58.95 -17 57.5 -17 56.05 -17 55 -16.15 54 -15.25 54 -14 54 -12.75 55 -11.9 56.05 -11 57.5 -11
M 75.5 -35
Q 71.15 -35 68.05 -31.35 65 -27.7 65 -22.5 65 -17.3 68.05 -13.65 71.15 -10 75.5 -10 77.4818359375 -10 79.2 -10.75 79.908203125 -9.6234375 81.05 -8.65 84.15 -6 88.5 -6 92.85 -6 95.9 -8.65 99 -11.25 99 -15 99 -18.75 95.9 -21.4 92.85 -24 88.5 -24 87.16796875 -24 85.95 -23.75 85.6185546875 -28.1490234375 82.9 -31.35 79.85 -35 75.5 -35
M 35.5 -136.95
Q 34.45 -136.95 33.7 -136.25 33 -135.5 33 -134.45 33 -133.4 33.7 -132.7 34.45 -131.95 35.5 -131.95 36.55 -131.95 37.25 -132.7 38 -133.4 38 -134.45 38 -135.5 37.25 -136.25 36.55 -136.95 35.5 -136.95
M 38 -143.45
Q 38 -140.75 39.3 -138.85 40.65 -136.95 42.5 -136.95 44.35 -136.95 45.65 -138.85 47 -140.75 47 -143.45 47 -146.15 45.65 -148.05 44.35 -149.95 42.5 -149.95 40.65 -149.95 39.3 -148.05 38 -146.15 38 -143.45 Z"/>

<path fill="#6F0000" stroke="none" d="
M -92 -131.45
Q -92 -136.65 -94.5 -140.3 -97 -143.95 -100.5 -143.95 -104 -143.95 -106.5 -140.3 -109 -136.65 -109 -131.45 -109 -126.25 -106.5 -122.6 -106.2001953125 -122.1623046875 -105.9 -121.8 -106 -120.8947265625 -106 -119.95 -106 -115.8 -103.8 -112.9 -101.6 -109.95 -98.5 -109.95 -95.4 -109.95 -93.2 -112.9 -91 -115.8 -91 -119.95 -91 -123.61171875 -92.75 -126.35 -92 -128.6736328125 -92 -131.45
M -87 -235.95
Q -89.5 -235.95 -91.25 -233.9 -93 -231.85 -93 -228.95 -93 -226.05 -91.25 -224 -89.5 -221.95 -87 -221.95 -84.5 -221.95 -82.75 -224 -81 -226.05 -81 -228.95 -81 -229.0126953125 -81 -229.1 -78.9484375 -227.95 -76.5 -227.95 -72.15 -227.95 -69.1 -231.5 -66 -235 -66 -239.95 -66 -244.9 -69.1 -248.45 -72.15 -251.95 -76.5 -251.95 -80.85 -251.95 -83.95 -248.45 -87 -244.9 -87 -239.95 -87 -237.798828125 -86.45 -235.95 -86.706640625 -235.95 -87 -235.95
M 25.85 -301.1
Q 25 -300.2 25 -298.95 25 -297.7 25.85 -296.85 26.75 -295.95 28 -295.95 29.25 -295.95 30.1 -296.85 31 -297.7 31 -298.95 31 -300.2 30.1 -301.1 29.25 -301.95 28 -301.95 26.75 -301.95 25.85 -301.1
M 18.5 -300.55
Q 20 -302.15 20 -304.45 20 -306.75 18.5 -308.35 17.05 -309.95 15 -309.95 12.95 -309.95 11.45 -308.35 10 -306.75 10 -304.45 10 -302.15 11.45 -300.55 12.95 -298.95 15 -298.95 17.05 -298.95 18.5 -300.55
M 3 -299.95
Q 3 -303.25 1.1 -305.6 -0.8 -307.95 -3.5 -307.95 -6.2 -307.95 -8.1 -305.6 -10 -303.25 -10 -299.95 -10 -296.65 -8.1 -294.3 -6.2 -291.95 -3.5 -291.95 -0.8 -291.95 1.1 -294.3 3 -296.65 3 -299.95 Z"/>
</g>

<g id="Duplicate_Items_Folder_full_tree_copy_0_Layer3_0_FILL">
<path fill="#775F53" stroke="none" d="
M -4.7 -2.4
L -11.75 -0.65 -4.7 -2.25 -4.7 -2.4
M -7.6 -44.6
Q -10.15 -42.5 -12.35 -39.85 -9.95 -37.55 -9.8 -35.45 -12 -29.85 -16.05 -28.5 -17.75 -29.9 -16.85 -32.75
L -17.65 -32.6
Q -21.2 -26.8 -23.9 -19.5 -23.3 -17.25 -22.5 -15.1 -22.55 -16.8 -22.75 -18
L -15.55 -19.8
Q -17.45 -19.95 -15.8 -23.1 -10.2 -20.7 -10.55 -17.7 -11.8 -11.9 -15.25 -12.55 -16.45 -13.5 -15.8 -15.6
L -22.35 -14.75
Q -19.6 -7.35 -15.45 0.55
L -11.75 -0.65 -4.7 -2.4 -7.6 -44.6
M 9.75 -3.25
L 9.75 -3.65 -4.7 -2.4 -4.7 -2.25 9.75 -3.25
M 9.75 -3.65
L 9.75 -3.25 14.2 -4.2 9.75 -3.65
M 5.2 -38.35
Q 6.6 -39.6 8.35 -40.1
L 7.9 -52.85
Q -0.8 -50.45 -7.6 -44.6
L -4.7 -2.4 9.75 -3.65 8.8 -27.9
Q 6.8 -28.2 5.2 -29.5 3.1 -31.2 3.1 -33.8 3.1 -36.4 5.2 -38.35
M 17.65 -54.4
Q 12.5 -54.15 7.9 -52.85
L 8.35 -40.1
Q 9.3 -40.35 10.35 -40.4 13.3 -40.55 15.45 -38.85 17.55 -37.1 17.55 -34.5 17.55 -31.9 15.45 -30 13.3 -28 10.35 -27.85 9.55 -27.8 8.8 -27.9
L 9.75 -3.65 14.2 -4.2 16.1 -4.65 21.9 -5.15
Q 22.9 -14 22.9 -31.2 22.9 -46.1 17.65 -54.4 Z"/>

<path fill="#CC0000" stroke="none" d="
M -22.5 -15.1
Q -22.5 -14.95 -22.5 -14.75
L -22.35 -14.75 -15.8 -15.6
Q -16.45 -13.5 -15.25 -12.55 -11.8 -11.9 -10.55 -17.7 -10.2 -20.7 -15.8 -23.1 -17.45 -19.95 -15.55 -19.8
L -22.75 -18
Q -22.55 -16.8 -22.5 -15.1
M -16.85 -43.35
Q -19.25 -38.9 -16.45 -38.65
L -26.15 -36.75
Q -26.4 -34.2 -26.25 -31.6
L -17.65 -32.6 -16.85 -32.75
Q -17.75 -29.9 -16.05 -28.5 -12 -29.85 -9.8 -35.45 -9.95 -37.55 -12.35 -39.85 -14.05 -41.55 -16.85 -43.35
M 15.45 -38.85
Q 13.3 -40.55 10.35 -40.4 9.3 -40.35 8.35 -40.1 6.6 -39.6 5.2 -38.35 3.1 -36.4 3.1 -33.8 3.1 -31.2 5.2 -29.5 6.8 -28.2 8.8 -27.9 9.55 -27.8 10.35 -27.85 13.3 -28 15.45 -30 17.55 -31.9 17.55 -34.5 17.55 -37.1 15.45 -38.85
M 7 -34.95
Q 7 -35.85 8.1 -36.55 9.2 -37.2 10.7 -37.25 12.25 -37.35 13.3 -36.8 14.4 -36.2 14.4 -35.3 14.4 -34.45 13.3 -33.75 12.25 -33.05 10.7 -32.95 9.2 -32.9 8.1 -33.5 7 -34.1 7 -34.95 Z"/>

<path fill="#4A3C35" stroke="none" d="
M -26.25 -31.6
Q -26.1 -28.65 -25.4 -25.55 -24.8 -22.4 -23.9 -19.5 -21.2 -26.8 -17.65 -32.6
L -26.25 -31.6
M -8.95 -64.05
Q -15.7 -61.1 -20.95 -52.35 -25.4 -44.8 -26.15 -36.75
L -16.45 -38.65
Q -19.25 -38.9 -16.85 -43.35 -14.05 -41.55 -12.35 -39.85 -10.15 -42.5 -7.6 -44.6
L -8.95 -64.05
M 17.65 -54.4
Q 16.6 -56.05 15.4 -57.45 11.8 -61.5 7.45 -63.5
L 7.9 -52.85
Q 12.5 -54.15 17.65 -54.4
M 7.45 -63.5
Q 6.15 -64.15 4.8 -64.55 2.1 -62.65 -1.35 -62.45 -5.15 -62.25 -8.1 -64.35 -8.55 -64.2 -8.95 -64.05
L -7.6 -44.6
Q -0.8 -50.45 7.9 -52.85
L 7.45 -63.5 Z"/>

<path fill="#00CCFF" stroke="none" d="
M -8.95 -64.05
L -9 -65.1
Q -9.2 -65.2 -9.4 -65.4 -12.2 -68.1 -12.65 -71.85 -20.35 -68.1 -26.5 -59.2 -36.4 -44.7 -34.3 -28.3 -32.8 -16.65 -27.6 -7.6 -25.5 -3.95 -22.75 2.2
L -15.45 0.55
Q -19.6 -7.35 -22.35 -14.75
L -22.5 -14.75
Q -22.5 -14.95 -22.5 -15.1 -23.3 -17.25 -23.9 -19.5 -24.8 -22.4 -25.4 -25.55 -26.1 -28.65 -26.25 -31.6 -26.4 -34.2 -26.15 -36.75 -25.4 -44.8 -20.95 -52.35 -15.7 -61.1 -8.95 -64.05
M 10 -73
Q 9.55 -69.2 6.7 -66.2 5.8 -65.25 4.8 -64.55 6.15 -64.15 7.45 -63.5 11.8 -61.5 15.4 -57.45 16.6 -56.05 17.65 -54.4 22.9 -46.1 22.9 -31.2 22.9 -14 21.9 -5.15
L 23.45 -4.9
Q 31.2 -15.2 32.5 -36.25 33.15 -46.35 30.9 -53.7 28.5 -61.6 22.7 -66.2 16.75 -71 10 -73
M -2.95 -75.55
Q -2.7 -75.75 -2.5 -75.85
L -5.5 -79.2
Q -6.25 -78.75 -6.9 -78.1 -9.15 -75.7 -9.15 -72.5 -9.15 -71 -8.6 -69.75
L -3.5 -72.75
Q -3.65 -73.15 -3.65 -73.6 -3.65 -74.7 -2.95 -75.55
M 4.2 -78.6
L 0.8 -75.4
Q 1.3 -74.75 1.3 -73.85 1.3 -73.2 1.05 -72.65
L 6.1 -70.9
Q 6.5 -72 6.5 -73.3 6.5 -76.5 4.2 -78.6
M 4.2 -78.6
L 4.2 -78.65
Q 1.9 -80.8 -1.35 -80.6 -3.7 -80.5 -5.5 -79.2
L -2.5 -75.85
Q -1.9 -76.35 -1.15 -76.35 -0.15 -76.4 0.55 -75.7 0.7 -75.55 0.8 -75.4
L 4.2 -78.6 Z"/>

<path fill="#FF0000" stroke="none" d="
M 8.1 -36.55
Q 7 -35.85 7 -34.95 7 -34.1 8.1 -33.5 9.2 -32.9 10.7 -32.95 12.25 -33.05 13.3 -33.75 14.4 -34.45 14.4 -35.3 14.4 -36.2 13.3 -36.8 12.25 -37.35 10.7 -37.25 9.2 -37.2 8.1 -36.55
M 10.1 -74.55
Q 10.1 -79.3 6.7 -82.45 3.4 -85.7 -1.35 -85.45 -6.05 -85.25 -9.4 -81.65 -12.75 -78.15 -12.75 -73.4 -12.75 -72.6 -12.65 -71.85 -12.2 -68.1 -9.4 -65.4 -9.2 -65.2 -9 -65.1 -8.6 -64.65 -8.1 -64.35 -5.15 -62.25 -1.35 -62.45 2.1 -62.65 4.8 -64.55 5.8 -65.25 6.7 -66.2 9.55 -69.2 10 -73 10.1 -73.8 10.1 -74.55
M 4.2 -78.65
L 4.2 -78.6
Q 6.5 -76.5 6.5 -73.3 6.5 -72 6.1 -70.9 5.55 -69.2 4.2 -67.85 1.9 -65.45 -1.35 -65.25 -1.45 -65.25 -1.6 -65.25 -4.65 -65.2 -6.9 -67.3 -8.05 -68.4 -8.6 -69.75 -9.15 -71 -9.15 -72.5 -9.15 -75.7 -6.9 -78.1 -6.25 -78.75 -5.5 -79.2 -3.7 -80.5 -1.35 -80.6 1.9 -80.8 4.2 -78.65 Z"/>

<path fill="#00A0C9" stroke="none" d="
M -2.95 -71.8
Q -3.35 -72.2 -3.5 -72.75
L -8.6 -69.75
Q -8.05 -68.4 -6.9 -67.3 -4.65 -65.2 -1.6 -65.25
L -1.4 -71.05
Q -2.25 -71.05 -2.95 -71.8 Z"/>

<path fill="#0183A3" stroke="none" d="
M 1.05 -72.65
Q 0.85 -72.25 0.55 -71.95 -0.15 -71.1 -1.15 -71.05 -1.25 -71.05 -1.4 -71.05
L -1.6 -65.25
Q -1.45 -65.25 -1.35 -65.25 1.9 -65.45 4.2 -67.85 5.55 -69.2 6.1 -70.9
L 1.05 -72.65 Z"/>

<path fill="#00FFFF" stroke="none" d="
M 0.8 -75.4
Q 0.7 -75.55 0.55 -75.7 -0.15 -76.4 -1.15 -76.35 -1.9 -76.35 -2.5 -75.85 -2.7 -75.75 -2.95 -75.55 -3.65 -74.7 -3.65 -73.6 -3.65 -73.15 -3.5 -72.75 -3.35 -72.2 -2.95 -71.8 -2.25 -71.05 -1.4 -71.05 -1.25 -71.05 -1.15 -71.05 -0.15 -71.1 0.55 -71.95 0.85 -72.25 1.05 -72.65 1.3 -73.2 1.3 -73.85 1.3 -74.75 0.8 -75.4 Z"/>
</g>

<g id="Duplicate_Items_Folder_full_tree_copy_0_Layer2_0_FILL">
<path fill="#0099FF" stroke="none" d="
M -159.15 -130.4
Q -157.15 -127.35 -155.2 -124.7 -146.9 -120.1 -138.2 -125.45 -146.9 -120.1 -155.2 -124.7 -143.15 -108.85 -128.25 -107.5 -128.05 -119.1 -124.65 -131.2 -156.2 -126.75 -159.15 -130.4
M -139.05 -117.6
Q -141.65 -113.6 -147.8 -117.15 -141.65 -113.6 -139.05 -117.6 Z"/>

<path fill="#00FFFF" stroke="none" d="
M -124.65 -131.2
Q -129.4 -136.4 -131.05 -142.2 -131.9 -141.7 -132.8 -141.15 -135.75 -139.35 -138.8 -137.9 -148.35 -133.2 -158.4 -131.5
L -159.15 -130.4
Q -156.2 -126.75 -124.65 -131.2
M -151.3 -149.95
Q -149.6 -147.8 -130.95 -150.4 -133.85 -153.5 -134.75 -156.95 -142.6 -152.05 -150.9 -150.6
L -151.3 -149.95 Z"/>

<path fill="#00CCFF" stroke="none" d="
M -130.95 -150.4
Q -149.6 -147.8 -151.3 -149.95 -150.15 -148.15 -149 -146.6 -144.15 -143.85 -139 -147.05 -144.15 -143.85 -149 -146.6 -144.25 -140.35 -138.8 -137.9 -135.75 -139.35 -132.8 -141.15 -132.25 -145.75 -130.95 -150.4
M -139.5 -142.4
Q -141 -140.05 -144.65 -142.15 -141 -140.05 -139.5 -142.4 Z"/>
</g>

<g id="Duplicate_Items_Folder_skull_copy_0_Layer0_0_FILL">
<path fill="#000000" stroke="none" d="
M 18.5 23.65
L 18.25 27.5
Q 19.8 27.15 21.6 25.7
L 21.45 23.3
Q 19.15 22 18.5 23.65
M 11.7 23.4
L 8.6 23.8 9.65 27
Q 9.65 26.85 10.65 27.4 10.95 27.5 11.8 27.75
L 11.7 23.4
M 16.6 23.55
Q 14.9 22.4 13.9 23.4
L 14 28.3
Q 14.65 28.3 16.3 27.9
L 16.6 23.55
M 14.65 18.55
Q 14.4 18.15 14.15 18 13.75 17.65 13.25 17.75 12.85 17.9 12.6 18.25 12.45 18.8 12.6 19.05 12.45 19.55 13 19.7 13.35 19.8 13.9 19.7 14.5 19.7 14.65 19.3 14.8 19.05 14.65 18.55
M 17.2 17.75
Q 17.2 17.25 16.45 17.1 16.2 16.6 15.55 17.1 15.4 17.1 14.9 17.35 14.5 17.9 14.65 18.25 15.15 18.55 15.4 19.3 15.95 19.8 16.3 19.95 16.95 19.7 17.2 19.05 17.2 18.15 17.2 17.75
M 15.4 11.85
Q 15.4 9.9 14.25 8 13.25 6.45 11.7 6.45 10.15 6.35 9.15 7.6 8.75 9 7.45 11.2 5.9 13.25 7.45 15.05 8.35 16.35 10.3 16.85 12.1 16.85 13.6 15.45 14.9 13.9 15.4 11.85
M 23 8.1
Q 21.95 6.7 20.55 6.85 19.25 7.1 17.85 8.65 16.95 10.3 17.1 12.5 17.2 14.4 18.9 15.95 20.3 17.35 22.25 17.1 24.05 16.85 25.2 15.3 26.35 13.65 24.9 11.6 23.65 9.55 23 8.1 Z"/>

<path fill="#FFFFFF" stroke="none" d="
M 26.35 19.8
Q 30.85 20.05 30.05 12.1 29.4 4.25 23 1.55 16.3 -1.4 9.5 1.3 2.6 4.15 0.5 11.6 -1.15 19.15 2.85 19.05 6.7 18.4 8.6 23.8
L 11.7 23.4 11.8 27.75
Q 12.2 27.75 14 28.3
L 13.9 23.4
Q 14.9 22.4 16.6 23.55
L 16.3 27.9
Q 16.95 27.9 17.6 27.9 18.1 27.75 18.25 27.5
L 18.5 23.65
Q 19.15 22 21.45 23.3
L 21.6 25.7
Q 21.6 19.45 26.35 19.8
M 20.55 6.85
Q 21.95 6.7 23 8.1 23.65 9.55 24.9 11.6 26.35 13.65 25.2 15.3 24.05 16.85 22.25 17.1 20.3 17.35 18.9 15.95 17.2 14.4 17.1 12.5 16.95 10.3 17.85 8.65 19.25 7.1 20.55 6.85
M 14.25 8
Q 15.4 9.9 15.4 11.85 14.9 13.9 13.6 15.45 12.1 16.85 10.3 16.85 8.35 16.35 7.45 15.05 5.9 13.25 7.45 11.2 8.75 9 9.15 7.6 10.15 6.35 11.7 6.45 13.25 6.45 14.25 8
M 16.45 17.1
Q 17.2 17.25 17.2 17.75 17.2 18.15 17.2 19.05 16.95 19.7 16.3 19.95 15.95 19.8 15.4 19.3 15.15 18.55 14.65 18.25 14.5 17.9 14.9 17.35 15.4 17.1 15.55 17.1 16.2 16.6 16.45 17.1
M 14.15 18
Q 14.4 18.15 14.65 18.55 14.8 19.05 14.65 19.3 14.5 19.7 13.9 19.7 13.35 19.8 13 19.7 12.45 19.55 12.6 19.05 12.45 18.8 12.6 18.25 12.85 17.9 13.25 17.75 13.75 17.65 14.15 18 Z"/>
</g>

<path id="full_tree_0_Layer4_0_1_STROKES" stroke="#000000" stroke-width="3" stroke-linejoin="round" stroke-linecap="round" fill="none" d="
M 20.4 -322.05
L 49 -325 64 -325 110 -343 138 -328 161 -324 192 -302 186.2 -304.05 158 -314 128.425 -312.675 113 -312 110.55 -310.825 71 -292 82 -267 100 -267 100.825 -266.525 116 -258 138 -258 105 -250 94 -259 78 -259 51.5 -269.6 48 -271
Q 46.1 -266.45 43.8 -259 40.4599609375 -248.0259765625 38.475 -237.275 38.3017578125 -236.3482421875 38.15 -235.425 37.6158203125 -232.451171875 37.2 -229.5
L 54.05 -216.5 63.55 -226.5 75.55 -233.5 85 -244 80.5 -231.5 72.55 -224.5
Q 70.7 -220.6 69.3 -215.85 67.8580078125 -210.8685546875 67.85 -207.3 67.8609375 -204.069140625 69.05 -202 71.55 -197.6 76.8 -192.35
L 81.5 -188 103.5 -196.5 112 -197.1 124.5 -198 100.5 -184.5 108 -179.5 118 -177.5 107.5 -176 97 -179 92.85 -176.6
Q 85.85 -171.3 79.05 -169.45 72.25 -167.65 59.65 -174.5 47 -181.4 38.6 -184.75 39.65 -180.75 41 -177 41.65 -175.25 42.3 -173.55 52.05 -146.75 56.25 -133.75 57.9 -128.7 60 -122.8 60.55 -119.25 61 -116 61.65 -111.6 76.9 -91.85
L 92 -73 131 -54 159 -36 181 -19 161.6 -17.1 161.35 -17.25 183.625 12.575 190.675 22
Q 182.0697265625 26.228125 172.35 30.05 128.1 39.5 87 18.95
L 44 2
Q 38.3 -0.75 36.95 -0.55 36.75 -0.35 36.55 -0.1 28.7 -4.4 27.85 -4.65 27.6 -4.75 27.35 -4.85
M -128.825 -6.275
Q -127.3822265625 -6.105078125 -126.1 -5.8 -120.2720703125 -4.4162109375 -115.85 -3.375
M -266.925 -364.45
L -238.95 -378 -214.95 -384 -187.95 -373 -151.95 -370 -82.95 -319 -65.95 -334
Q -18.5 -357.75 6 -329
L 19.75 -322.15 20.4 -322.05 20 -322 19.75 -322.15 8.9 -321.125
M -76.275 -313.475
L -75.4 -312.8 -72.8 -310.8
M 8.9 -321.125
L 3.8 -320.65
M 36.1 -219.475
Q 35.9134765625 -216.9470703125 35.825 -214.475 35.5599609375 -207.5177734375 36.05 -201.05 36.27578125 -197.83203125 36.7 -194.725
M 37.2 -229.5
Q 36.4765625 -224.3681640625 36.1 -219.475
M -88.35 37.525
L -77.95 44.95 -72.95 36.95 -60.95 24.95 -56.45 17.95
Q -46.35 11.45 -35 6.15
M 36.7 -194.725
Q 37.383984375 -189.583203125 38.6 -184.75
M 27.5 -5.6
Q 13.15 -4.65 -0.95 -6.4
L -11.95 -2.35
M -35 6.15
L -18.1 -0.05
M 95.25 -46.875
L 92.8 -47.7
M 161.35 -17.25
L 139.5 -32 95.25 -46.875
M -168.7 -290.675
Q -167.370703125 -290.32890625 -165.95 -290
L -142.95 -290 -126.95 -296
Q -113.65 -281.25 -111.45 -266.5 -99 -242.95 -121.95 -223
L -137.95 -218
Q -153.35 -217 -164.95 -237
L -184.95 -265
Q -196.45 -271.45 -207.95 -268
L -190.95 -260
Q -189.2 -256.25 -187.2 -251.1 -183.2 -240.85 -181.95 -234 -180.7 -227.1 -189.7 -226.35 -194.2 -226 -198.95 -227
L -219.95 -238 -241.95 -246
Q -256.95 -250.35 -271.95 -264
L -266.75 -257.05
M -133.175 -146.05
Q -132.4876953125 -144.478515625 -131.95 -143 -129.3267578125 -135.7701171875 -131.9 -127.375
M -155.55 -2.2
Q -138.465625 -7.353515625 -128.825 -6.275
M -168.7 -290.675
Q -185.769921875 -295.01640625 -187.95 -301 -178.75 -296.6 -157.95 -298 -147.4 -302.15 -147.95 -310
L -170.95 -345 -209.65 -365.575 -217.95 -370 -220.575 -369.8
M -220.975 -369.775
L -242.95 -368 -271.95 -362 -266.925 -364.45
M -84.2 -319.6
L -76.275 -313.475
M -133.175 -146.05
Q -138.8318359375 -159.0619140625 -154.45 -178.25 -163.2 -189 -170.95 -197
L -204.95 -201 -226.95 -222 -250.95 -236 -266.75 -257.05
M -209.45 -25.1
L -220.95 -26 -208.95 -37 -216.95 -42
Q -210.45 -44.5 -196.9 -52.8 -183.4 -61.15 -174.2 -69.3 -165 -77.45 -156.5 -87.7 -148.123828125 -97.8005859375 -138 -111.5 -137.85 -111.6966796875 -137.7 -111.9
L -136.45 -117.55
Q -133.35234375 -122.6466796875 -131.9 -127.375
M -210.95 -24
L -209.45 -25.1 -211.2 -24.35 -234.875 2.425
M -209.45 -25.1
L -164.95 -58
M -115.85 -3.375
Q -103.6544921875 -0.5333984375 -102.15 -0.35 -100.1 -0.1 -99.2 0.45 -98.4 0.95 -94.05 3.55 -92.8 4.35 -89.95 6.3
L -90.85 4.85
Q -90.7 5 -90.55 5.2 -90 5.85 -89.95 6.3
L -91.95 16.95 -86.95 22.95 -91.95 34.95 -88.35 37.525
M -18.1 -0.05
L -11.95 -2.35
M -234.875 2.425
L -254.875 26.25
Q -248.4861328125 34.9478515625 -213.05 21.05 -179.7654296875 5.109375 -155.55 -2.2"/>

<path id="full_tree_0_Layer2_0_1_STROKES" stroke="#000000" stroke-width="1.5" stroke-linejoin="round" stroke-linecap="round" fill="none" d="
M 4.2 -78.6
L 4.2 -78.65
Q 1.9 -80.8 -1.35 -80.6 -3.7 -80.5 -5.5 -79.2
L -2.5 -75.85
Q -1.9 -76.35 -1.15 -76.35 -0.15 -76.4 0.55 -75.7 0.7 -75.55 0.8 -75.4
L 4.2 -78.6
Q 6.5 -76.5 6.5 -73.3 6.5 -72 6.1 -70.9 5.55 -69.2 4.2 -67.85 1.9 -65.45 -1.35 -65.25 -1.45 -65.25 -1.6 -65.25 -4.65 -65.2 -6.9 -67.3 -8.05 -68.4 -8.6 -69.75 -9.15 -71 -9.15 -72.5 -9.15 -75.7 -6.9 -78.1 -6.25 -78.75 -5.5 -79.2
M -12.65 -71.85
Q -12.75 -72.6 -12.75 -73.4 -12.75 -78.15 -9.4 -81.65 -6.05 -85.25 -1.35 -85.45 3.4 -85.7 6.7 -82.45 10.1 -79.3 10.1 -74.55 10.1 -73.8 10 -73 16.75 -71 22.7 -66.2 28.5 -61.6 30.9 -53.7 33.15 -46.35 32.5 -36.25 31.2 -15.2 23.45 -4.9
L 21.9 -5.15 14.2 -4.2 9.75 -3.25 -4.7 -2.25 -11.75 -0.65 -15.45 0.55 -22.75 2.2
Q -25.5 -3.95 -27.6 -7.6 -32.8 -16.65 -34.3 -28.3 -36.4 -44.7 -26.5 -59.2 -20.35 -68.1 -12.65 -71.85 -12.2 -68.1 -9.4 -65.4 -9.2 -65.2 -9 -65.1 -8.6 -64.65 -8.1 -64.35 -5.15 -62.25 -1.35 -62.45 2.1 -62.65 4.8 -64.55 5.8 -65.25 6.7 -66.2 9.55 -69.2 10 -73
M 0.8 -75.4
Q 1.3 -74.75 1.3 -73.85 1.3 -73.2 1.05 -72.65
L 6.1 -70.9
M 4.8 -64.55
Q 6.15 -64.15 7.45 -63.5 11.8 -61.5 15.4 -57.45 16.6 -56.05 17.65 -54.4 22.9 -46.1 22.9 -31.2 22.9 -14 21.9 -5.15
L 16.1 -4.65 14.2 -4.2 9.75 -3.65 9.75 -3.25
M 1.05 -72.65
Q 0.85 -72.25 0.55 -71.95 -0.15 -71.1 -1.15 -71.05 -1.25 -71.05 -1.4 -71.05
L -1.6 -65.25
M 7.45 -63.5
L 7.9 -52.85
M 8.35 -40.1
Q 9.3 -40.35 10.35 -40.4 13.3 -40.55 15.45 -38.85 17.55 -37.1 17.55 -34.5 17.55 -31.9 15.45 -30 13.3 -28 10.35 -27.85 9.55 -27.8 8.8 -27.9
L 9.75 -3.65 -4.7 -2.4 -4.7 -2.25
M 8.8 -27.9
Q 6.8 -28.2 5.2 -29.5 3.1 -31.2 3.1 -33.8 3.1 -36.4 5.2 -38.35 6.6 -39.6 8.35 -40.1
L 7.9 -52.85
M -7.6 -44.6
L -4.7 -2.4 -11.75 -0.65
M -3.5 -72.75
Q -3.65 -73.15 -3.65 -73.6 -3.65 -74.7 -2.95 -75.55 -2.7 -75.75 -2.5 -75.85
M -1.4 -71.05
Q -2.25 -71.05 -2.95 -71.8 -3.35 -72.2 -3.5 -72.75
L -8.6 -69.75
M -9 -65.1
L -8.95 -64.05
Q -8.55 -64.2 -8.1 -64.35
M -26.15 -36.75
Q -25.4 -44.8 -20.95 -52.35 -15.7 -61.1 -8.95 -64.05
L -7.6 -44.6
M -12.35 -39.85
Q -9.95 -37.55 -9.8 -35.45 -12 -29.85 -16.05 -28.5 -17.75 -29.9 -16.85 -32.75
L -17.65 -32.6
M -23.9 -19.5
Q -23.3 -17.25 -22.5 -15.1 -22.55 -16.8 -22.75 -18
L -15.55 -19.8
Q -17.45 -19.95 -15.8 -23.1 -10.2 -20.7 -10.55 -17.7 -11.8 -11.9 -15.25 -12.55 -16.45 -13.5 -15.8 -15.6
L -22.35 -14.75
Q -19.6 -7.35 -15.45 0.55
M -26.15 -36.75
L -16.45 -38.65
Q -19.25 -38.9 -16.85 -43.35 -14.05 -41.55 -12.35 -39.85
M -26.25 -31.6
Q -26.1 -28.65 -25.4 -25.55 -24.8 -22.4 -23.9 -19.5
M -26.25 -31.6
Q -26.4 -34.2 -26.15 -36.75
M -22.35 -14.75
L -22.5 -14.75
Q -22.5 -14.95 -22.5 -15.1
M -17.65 -32.6
L -26.25 -31.6"/>

<path id="full_tree_0_Layer1_0_1_STROKES" stroke="#000000" stroke-width="2" stroke-linejoin="round" stroke-linecap="round" fill="none" d="
M -130.95 -150.4
Q -133.85 -153.5 -134.75 -156.95 -142.6 -152.05 -150.9 -150.6
L -151.3 -149.95
Q -149.6 -147.8 -130.95 -150.4 -132.25 -145.75 -132.8 -141.15 -131.9 -141.7 -131.05 -142.2 -129.4 -136.4 -124.65 -131.2 -128.05 -119.1 -128.25 -107.5 -143.15 -108.85 -155.2 -124.7 -157.15 -127.35 -159.15 -130.4
L -158.4 -131.5
Q -148.35 -133.2 -138.8 -137.9 -144.25 -140.35 -149 -146.6 -150.15 -148.15 -151.3 -149.95
M -132.8 -141.15
Q -135.75 -139.35 -138.8 -137.9
M -139.05 -117.6
Q -141.65 -113.6 -147.8 -117.15
M -139 -147.05
Q -144.15 -143.85 -149 -146.6
M -139.5 -142.4
Q -141 -140.05 -144.65 -142.15
M -155.2 -124.7
Q -146.9 -120.1 -138.2 -125.45
M -159.15 -130.4
Q -156.2 -126.75 -124.65 -131.2"/>

<path id="skull_0_Layer0_0_1_STROKES" stroke="#000000" stroke-width="2" stroke-linejoin="round" stroke-linecap="round" fill="none" d="
M 8.6 23.8
Q 6.7 18.4 2.85 19.05 -1.15 19.15 0.5 11.6 2.6 4.15 9.5 1.3 16.3 -1.4 23 1.55 29.4 4.25 30.05 12.1 30.85 20.05 26.35 19.8 21.6 19.45 21.6 25.7 19.8 27.15 18.25 27.5 18.1 27.75 17.6 27.9 16.95 27.9 16.3 27.9 14.65 28.3 14 28.3 12.2 27.75 11.8 27.75 10.95 27.5 10.65 27.4 9.65 26.85 9.65 27
L 8.6 23.8 11.7 23.4 11.8 27.75"/>

<path id="Duplicate_Items_Folder_blue_flower_copy_2_0_Layer2_0_1_STROKES" stroke="#666666" stroke-width="1.5" stroke-linejoin="round" stroke-linecap="round" fill="none" d="
M 1.65 -7
L 10.7 -47.4"/>

<path id="Duplicate_Items_Folder_blue_flower_copy_2_0_Layer1_0_1_STROKES" stroke="#000000" stroke-width="1.4" stroke-linejoin="round" stroke-linecap="round" fill="none" d="
M -3.6 8.15
Q -5.05 7.65 -6 7.35 -5.9 6.9 -6 5 -6.05 1.9 -6.2 2.05 -8.15 0.5 -9.7 -1.5 -13.1 -5.45 -10.25 -9.3 -6.7 -14.05 -1.6 -15.15 4.05 -16.7 8.7 -12.25 12.8 -7.85 10.8 -2.1 10.05 0.2 8.4 1.9 7.1 3.5 6.05 3.25 4.75 3.2 4.2 5.5 3.75 7.55 2.75 8.95 1.8 8.85 1.05 8.85 -1.85 8.55 -3.6 8.15
L -2.55 3.5
M 1.05 4.35
L 1.05 8.85"/>

<path id="Duplicate_Items_Folder_blue_flower_copy_3_0_Layer2_0_1_STROKES" stroke="#666666" stroke-width="1.5" stroke-linejoin="round" stroke-linecap="round" fill="none" d="
M 4.45 -18.9
L 10.45 -45.65"/>

<path id="Duplicate_Items_Folder_blue_flower_copy_3_0_Layer1_0_1_STROKES" stroke="#000000" stroke-width="1.4" stroke-linejoin="round" stroke-linecap="round" fill="none" d="
M -0.35 -1.25
Q -1.8 -1.75 -2.75 -2.05 -2.65 -2.5 -2.75 -4.4 -2.8 -7.5 -2.95 -7.35 -4.9 -8.9 -6.45 -10.9 -9.85 -14.85 -7 -18.7 -3.45 -23.45 1.65 -24.55 7.3 -26.1 11.95 -21.65 16.05 -17.25 14.05 -11.5 13.3 -9.2 11.65 -7.5 10.35 -5.9 9.3 -6.15 8 -6.2 7.45 -3.9 7 -1.85 6 -0.45 5.05 -0.55 4.3 -0.55 1.4 -0.85 -0.35 -1.25
L 0.7 -5.9
M 4.3 -5.05
L 4.3 -0.55"/>

<path id="Duplicate_Items_Folder_lily_leaf_copy_0_Layer0_0_1_STROKES" stroke="#000000" stroke-width="1.5" stroke-linejoin="round" stroke-linecap="round" fill="none" d="
M 3.7 9.4
Q -0.05 14.15 0 19.45 10.5 17.85 18.55 8.85
M 3.7 9.4
Q 7.25 4.85 14.15 0.8 22.75 -1.7 22.65 3.55 20.7 6.45 18.55 8.85
M 20.95 1.05
Q 12.05 4.5 9.35 10.1"/>

<path id="Duplicate_Items_Folder_full_tree_copy_0_Layer3_0_1_STROKES" stroke="#000000" stroke-width="1.5" stroke-linejoin="round" stroke-linecap="round" fill="none" d="
M 4.2 -78.6
L 4.2 -78.65
Q 1.9 -80.8 -1.35 -80.6 -3.7 -80.5 -5.5 -79.2
L -2.5 -75.85
Q -1.9 -76.35 -1.15 -76.35 -0.15 -76.4 0.55 -75.7 0.7 -75.55 0.8 -75.4
L 4.2 -78.6
Q 6.5 -76.5 6.5 -73.3 6.5 -72 6.1 -70.9 5.55 -69.2 4.2 -67.85 1.9 -65.45 -1.35 -65.25 -1.45 -65.25 -1.6 -65.25 -4.65 -65.2 -6.9 -67.3 -8.05 -68.4 -8.6 -69.75 -9.15 -71 -9.15 -72.5 -9.15 -75.7 -6.9 -78.1 -6.25 -78.75 -5.5 -79.2
M -12.65 -71.85
Q -12.75 -72.6 -12.75 -73.4 -12.75 -78.15 -9.4 -81.65 -6.05 -85.25 -1.35 -85.45 3.4 -85.7 6.7 -82.45 10.1 -79.3 10.1 -74.55 10.1 -73.8 10 -73 16.75 -71 22.7 -66.2 28.5 -61.6 30.9 -53.7 33.15 -46.35 32.5 -36.25 31.2 -15.2 23.45 -4.9
L 21.9 -5.15 14.2 -4.2 9.75 -3.25 -4.7 -2.25 -11.75 -0.65 -15.45 0.55 -22.75 2.2
Q -25.5 -3.95 -27.6 -7.6 -32.8 -16.65 -34.3 -28.3 -36.4 -44.7 -26.5 -59.2 -20.35 -68.1 -12.65 -71.85 -12.2 -68.1 -9.4 -65.4 -9.2 -65.2 -9 -65.1 -8.6 -64.65 -8.1 -64.35 -5.15 -62.25 -1.35 -62.45 2.1 -62.65 4.8 -64.55 5.8 -65.25 6.7 -66.2 9.55 -69.2 10 -73
M 1.05 -72.65
Q 0.85 -72.25 0.55 -71.95 -0.15 -71.1 -1.15 -71.05 -1.25 -71.05 -1.4 -71.05
L -1.6 -65.25
M 0.8 -75.4
Q 1.3 -74.75 1.3 -73.85 1.3 -73.2 1.05 -72.65
L 6.1 -70.9
M 4.8 -64.55
Q 6.15 -64.15 7.45 -63.5 11.8 -61.5 15.4 -57.45 16.6 -56.05 17.65 -54.4 22.9 -46.1 22.9 -31.2 22.9 -14 21.9 -5.15
L 16.1 -4.65 14.2 -4.2 9.75 -3.65 9.75 -3.25
M 7.45 -63.5
L 7.9 -52.85 8.35 -40.1
Q 9.3 -40.35 10.35 -40.4 13.3 -40.55 15.45 -38.85 17.55 -37.1 17.55 -34.5 17.55 -31.9 15.45 -30 13.3 -28 10.35 -27.85 9.55 -27.8 8.8 -27.9
L 9.75 -3.65 -4.7 -2.4 -4.7 -2.25
M 8.8 -27.9
Q 6.8 -28.2 5.2 -29.5 3.1 -31.2 3.1 -33.8 3.1 -36.4 5.2 -38.35 6.6 -39.6 8.35 -40.1
M -3.5 -72.75
Q -3.65 -73.15 -3.65 -73.6 -3.65 -74.7 -2.95 -75.55 -2.7 -75.75 -2.5 -75.85
M -1.4 -71.05
Q -2.25 -71.05 -2.95 -71.8 -3.35 -72.2 -3.5 -72.75
L -8.6 -69.75
M -9 -65.1
L -8.95 -64.05
Q -8.55 -64.2 -8.1 -64.35
M -26.15 -36.75
Q -25.4 -44.8 -20.95 -52.35 -15.7 -61.1 -8.95 -64.05
L -7.6 -44.6 -4.7 -2.4 -11.75 -0.65
M -26.15 -36.75
L -16.45 -38.65
Q -19.25 -38.9 -16.85 -43.35 -14.05 -41.55 -12.35 -39.85 -9.95 -37.55 -9.8 -35.45 -12 -29.85 -16.05 -28.5 -17.75 -29.9 -16.85 -32.75
L -17.65 -32.6
M -23.9 -19.5
Q -23.3 -17.25 -22.5 -15.1 -22.55 -16.8 -22.75 -18
L -15.55 -19.8
Q -17.45 -19.95 -15.8 -23.1 -10.2 -20.7 -10.55 -17.7 -11.8 -11.9 -15.25 -12.55 -16.45 -13.5 -15.8 -15.6
L -22.35 -14.75
Q -19.6 -7.35 -15.45 0.55
M -26.15 -36.75
Q -26.4 -34.2 -26.25 -31.6 -26.1 -28.65 -25.4 -25.55 -24.8 -22.4 -23.9 -19.5
M -22.35 -14.75
L -22.5 -14.75
Q -22.5 -14.95 -22.5 -15.1
M -17.65 -32.6
L -26.25 -31.6"/>

<path id="Duplicate_Items_Folder_full_tree_copy_0_Layer2_0_1_STROKES" stroke="#000000" stroke-width="2" stroke-linejoin="round" stroke-linecap="round" fill="none" d="
M -151.3 -149.95
Q -149.6 -147.8 -130.95 -150.4 -133.85 -153.5 -134.75 -156.95 -142.6 -152.05 -150.9 -150.6
L -151.3 -149.95
Q -150.15 -148.15 -149 -146.6 -144.15 -143.85 -139 -147.05
M -124.65 -131.2
Q -129.4 -136.4 -131.05 -142.2 -131.9 -141.7 -132.8 -141.15 -135.75 -139.35 -138.8 -137.9 -148.35 -133.2 -158.4 -131.5
L -159.15 -130.4
Q -156.2 -126.75 -124.65 -131.2 -128.05 -119.1 -128.25 -107.5 -143.15 -108.85 -155.2 -124.7 -157.15 -127.35 -159.15 -130.4
M -149 -146.6
Q -144.25 -140.35 -138.8 -137.9
M -139.5 -142.4
Q -141 -140.05 -144.65 -142.15
M -139.05 -117.6
Q -141.65 -113.6 -147.8 -117.15
M -155.2 -124.7
Q -146.9 -120.1 -138.2 -125.45
M -132.8 -141.15
Q -132.25 -145.75 -130.95 -150.4"/>

<path id="Duplicate_Items_Folder_skull_copy_0_Layer0_0_1_STROKES" stroke="#000000" stroke-width="2" stroke-linejoin="round" stroke-linecap="round" fill="none" d="
M 8.6 23.8
Q 6.7 18.4 2.85 19.05 -1.15 19.15 0.5 11.6 2.6 4.15 9.5 1.3 16.3 -1.4 23 1.55 29.4 4.25 30.05 12.1 30.85 20.05 26.35 19.8 21.6 19.45 21.6 25.7 19.8 27.15 18.25 27.5 18.1 27.75 17.6 27.9 16.95 27.9 16.3 27.9 14.65 28.3 14 28.3 12.2 27.75 11.8 27.75 10.95 27.5 10.65 27.4 9.65 26.85 9.65 27
L 8.6 23.8 11.7 23.4 11.8 27.75"/>
</defs>

<g transform="matrix( 1.0615234375, 0, 0, 1.0615234375, 324.05,464) ">
<g transform="matrix( 1, 0, 0, 1, 0,0) ">
<use xlink:href="#full_tree_0_Layer4_0_FILL"/>

<use xlink:href="#full_tree_0_Layer4_0_1_STROKES"/>
</g>

<g transform="matrix( 1, 0, 0, 1, 0,0) ">
<use xlink:href="#full_tree_0_Layer3_0_FILL"/>
</g>

<g transform="matrix( 1, 0, 0, 1, 0,0) ">
<use xlink:href="#full_tree_0_Layer2_0_FILL"/>

<use xlink:href="#full_tree_0_Layer2_0_1_STROKES"/>
</g>

<g transform="matrix( 1, 0, 0, 1, 0,0) ">
<use xlink:href="#full_tree_0_Layer1_0_FILL"/>

<use xlink:href="#full_tree_0_Layer1_0_1_STROKES"/>
</g>

<g transform="matrix( 0.781280517578125, 0.3957366943359375, -0.3518524169921875, 0.69464111328125, 25.75,-20.65) ">
<g transform="matrix( 1, 0, 0, 1, 0,0) ">
<use xlink:href="#skull_0_Layer0_0_FILL"/>

<use xlink:href="#skull_0_Layer0_0_1_STROKES"/>
</g>
</g>

<g transform="matrix( 0.6878662109375, -0.539794921875, 0.479949951171875, 0.611602783203125, -48.65,0.45) ">
<g transform="matrix( 1, 0, 0, 1, 0,0) ">
<use xlink:href="#skull_0_Layer0_0_FILL"/>

<use xlink:href="#skull_0_Layer0_0_1_STROKES"/>
</g>
</g>
</g>

<g transform="matrix( 1.056854248046875, 0, 0, 1.056854248046875, 324.1,461.7) ">
<g transform="matrix( -1.2858123779296875, -0.288726806640625, -0.288726806640625, 1.2858123779296875, 183.35,-241.25) ">
<g transform="matrix( 1, 0, 0, 1, 0,0) ">
<use xlink:href="#Duplicate_Items_Folder_blue_flower_copy_2_0_Layer2_0_1_STROKES"/>
</g>

<g transform="matrix( 1, 0, 0, 1, 0,0) ">
<use xlink:href="#Duplicate_Items_Folder_blue_flower_copy_2_0_Layer1_0_FILL"/>

<use xlink:href="#Duplicate_Items_Folder_blue_flower_copy_2_0_Layer1_0_1_STROKES"/>
</g>
</g>

<g transform="matrix( 1.0640869140625, -0.24407958984375, 0.24407958984375, 1.0640869140625, 107.3,-126.3) ">
<g transform="matrix( 1, 0, 0, 1, 0,0) ">
<use xlink:href="#Duplicate_Items_Folder_blue_flower_copy_3_0_Layer2_0_1_STROKES"/>
</g>

<g transform="matrix( 1, 0, 0, 1, 0,0) ">
<use xlink:href="#Duplicate_Items_Folder_blue_flower_copy_3_0_Layer1_0_FILL"/>

<use xlink:href="#Duplicate_Items_Folder_blue_flower_copy_3_0_Layer1_0_1_STROKES"/>
</g>
</g>

<g transform="matrix( -0.8834686279296875, -0.1983795166015625, -0.1983795166015625, 0.8834686279296875, -242.65,-191.45) ">
<g transform="matrix( 1, 0, 0, 1, 0,0) ">
<use xlink:href="#Duplicate_Items_Folder_blue_flower_copy_2_0_Layer2_0_1_STROKES"/>
</g>

<g transform="matrix( 1, 0, 0, 1, 0,0) ">
<use xlink:href="#Duplicate_Items_Folder_blue_flower_copy_2_0_Layer1_0_FILL"/>

<use xlink:href="#Duplicate_Items_Folder_blue_flower_copy_2_0_Layer1_0_1_STROKES"/>
</g>
</g>

<g transform="matrix( 1.194122314453125, -0.2739105224609375, 0.2739105224609375, 1.194122314453125, -260.5,-305.3) ">
<g transform="matrix( 1, 0, 0, 1, 0,0) ">
<use xlink:href="#Duplicate_Items_Folder_blue_flower_copy_3_0_Layer2_0_1_STROKES"/>
</g>

<g transform="matrix( 1, 0, 0, 1, 0,0) ">
<use xlink:href="#Duplicate_Items_Folder_blue_flower_copy_3_0_Layer1_0_FILL"/>

<use xlink:href="#Duplicate_Items_Folder_blue_flower_copy_3_0_Layer1_0_1_STROKES"/>
</g>
</g>

<g transform="matrix( -0.9353179931640625, -0.21002197265625, -0.21002197265625, 0.9353179931640625, -142.1,-258.85) ">
<g transform="matrix( 1, 0, 0, 1, 0,0) ">
<use xlink:href="#Duplicate_Items_Folder_blue_flower_copy_2_0_Layer2_0_1_STROKES"/>
</g>

<g transform="matrix( 1, 0, 0, 1, 0,0) ">
<use xlink:href="#Duplicate_Items_Folder_blue_flower_copy_2_0_Layer1_0_FILL"/>

<use xlink:href="#Duplicate_Items_Folder_blue_flower_copy_2_0_Layer1_0_1_STROKES"/>
</g>
</g>

<g transform="matrix( 0.8361663818359375, -0.191802978515625, 0.191802978515625, 0.8361663818359375, 121.75,-279.05) ">
<g transform="matrix( 1, 0, 0, 1, 0,0) ">
<use xlink:href="#Duplicate_Items_Folder_blue_flower_copy_3_0_Layer2_0_1_STROKES"/>
</g>

<g transform="matrix( 1, 0, 0, 1, 0,0) ">
<use xlink:href="#Duplicate_Items_Folder_blue_flower_copy_3_0_Layer1_0_FILL"/>

<use xlink:href="#Duplicate_Items_Folder_blue_flower_copy_3_0_Layer1_0_1_STROKES"/>
</g>
</g>

<g transform="matrix( 1.2234954833984375, -0.2806396484375, 0.2806396484375, 1.2234954833984375, -192.65,-147.85) ">
<g transform="matrix( 1, 0, 0, 1, 0,0) ">
<use xlink:href="#Duplicate_Items_Folder_blue_flower_copy_3_0_Layer2_0_1_STROKES"/>
</g>

<g transform="matrix( 1, 0, 0, 1, 0,0) ">
<use xlink:href="#Duplicate_Items_Folder_blue_flower_copy_3_0_Layer1_0_FILL"/>

<use xlink:href="#Duplicate_Items_Folder_blue_flower_copy_3_0_Layer1_0_1_STROKES"/>
</g>
</g>

<g transform="matrix( -0.281585693359375, 1.854339599609375, 0.9986114501953125, 0.006378173828125, 179.55,-34) ">
<g transform="matrix( 1, 0, 0, 1, 0,0) ">
<use xlink:href="#Duplicate_Items_Folder_lily_leaf_copy_0_Layer0_0_FILL"/>

<use xlink:href="#Duplicate_Items_Folder_lily_leaf_copy_0_Layer0_0_1_STROKES"/>
</g>
</g>

<g transform="matrix( -0.48406982421875, 1.812042236328125, -0.9177093505859375, -0.393798828125, 117.75,-80.85) ">
<g transform="matrix( 1, 0, 0, 1, 0,0) ">
<use xlink:href="#Duplicate_Items_Folder_lily_leaf_copy_0_Layer0_0_FILL"/>

<use xlink:href="#Duplicate_Items_Folder_lily_leaf_copy_0_Layer0_0_1_STROKES"/>
</g>
</g>

<g filter="url(#Filter_1)" transform="matrix( 0.946197509765625, 0, 0, 0.946197509765625, -306.65,-436.85) ">
<g transform="matrix( 0.211181640625, 1.8674163818359375, -1.0451507568359375, 0.264923095703125, 449.7,387.7) ">
<g transform="matrix( 1, 0, 0, 1, 0,0) ">
<use xlink:href="#Duplicate_Items_Folder_lily_leaf_copy_0_Layer0_0_FILL"/>

<use xlink:href="#Duplicate_Items_Folder_lily_leaf_copy_0_Layer0_0_1_STROKES"/>
</g>
</g>
</g>

<g filter="url(#Filter_2)" transform="matrix( 0.946197509765625, 0, 0, 0.946197509765625, -306.65,-436.85) ">
<g transform="matrix( 0.4249725341796875, 1.7708282470703125, 0.977935791015625, -0.649383544921875, 429.6,386.75) ">
<g transform="matrix( 1, 0, 0, 1, 0,0) ">
<use xlink:href="#Duplicate_Items_Folder_lily_leaf_copy_0_Layer0_0_FILL"/>

<use xlink:href="#Duplicate_Items_Folder_lily_leaf_copy_0_Layer0_0_1_STROKES"/>
</g>
</g>
</g>

<g transform="matrix( -0.6060333251953125, 2.26861572265625, -1.148956298828125, -0.4930419921875, 150.8,-75.8) ">
<g transform="matrix( 1, 0, 0, 1, 0,0) ">
<use xlink:href="#Duplicate_Items_Folder_lily_leaf_copy_0_Layer0_0_FILL"/>

<use xlink:href="#Duplicate_Items_Folder_lily_leaf_copy_0_Layer0_0_1_STROKES"/>
</g>
</g>

<g filter="url(#Filter_3)" transform="matrix( 0.946197509765625, 0, 0, 0.946197509765625, -306.65,-436.85) ">
<g transform="matrix( -0.43505859375, 2.439483642578125, 1.3186798095703125, 0.0424652099609375, 471.7,374.05) ">
<g transform="matrix( 1, 0, 0, 1, 0,0) ">
<use xlink:href="#Duplicate_Items_Folder_lily_leaf_copy_0_Layer0_0_FILL"/>

<use xlink:href="#Duplicate_Items_Folder_lily_leaf_copy_0_Layer0_0_1_STROKES"/>
</g>
</g>
</g>

<g transform="matrix( 0.6826629638671875, 1.2294921875, -0.6179962158203125, 0.4996337890625, -262.3,-10.8) ">
<g transform="matrix( 1, 0, 0, 1, 0,0) ">
<use xlink:href="#Duplicate_Items_Folder_lily_leaf_copy_0_Layer0_0_FILL"/>

<use xlink:href="#Duplicate_Items_Folder_lily_leaf_copy_0_Layer0_0_1_STROKES"/>
</g>
</g>

<g filter="url(#Filter_4)" transform="matrix( 0.946197509765625, 0, 0, 0.946197509765625, -306.65,-436.85) ">
<g transform="matrix( 0.036468505859375, 1.6642303466796875, -0.84588623046875, -0.098724365234375, 57.1,447.9) ">
<g transform="matrix( 1, 0, 0, 1, 0,0) ">
<use xlink:href="#Duplicate_Items_Folder_lily_leaf_copy_0_Layer0_0_FILL"/>

<use xlink:href="#Duplicate_Items_Folder_lily_leaf_copy_0_Layer0_0_1_STROKES"/>
</g>
</g>
</g>

<g filter="url(#Filter_5)" transform="matrix( 0.946197509765625, 0, 0, 0.946197509765625, -306.65,-436.85) ">
<g transform="matrix( 0.4911346435546875, 1.9150543212890625, 0.9311065673828125, -0.4161834716796875, 99.7,414.4) ">
<g transform="matrix( 1, 0, 0, 1, 0,0) ">
<use xlink:href="#Duplicate_Items_Folder_lily_leaf_copy_0_Layer0_0_FILL"/>

<use xlink:href="#Duplicate_Items_Folder_lily_leaf_copy_0_Layer0_0_1_STROKES"/>
</g>
</g>
</g>

<g filter="url(#Filter_6)" transform="matrix( 0.946197509765625, 0, 0, 0.946197509765625, -306.65,-436.85) ">
<g transform="matrix( -0.202728271484375, 1.8674163818359375, 1.0033721923828125, 0.264923095703125, 98.6,425.85) ">
<g transform="matrix( 1, 0, 0, 1, 0,0) ">
<use xlink:href="#Duplicate_Items_Folder_lily_leaf_copy_0_Layer0_0_FILL"/>

<use xlink:href="#Duplicate_Items_Folder_lily_leaf_copy_0_Layer0_0_1_STROKES"/>
</g>
</g>
</g>

<g transform="matrix( -0.494598388671875, 1.35797119140625, -0.6777801513671875, -0.60406494140625, -236.7,-4.15) ">
<g transform="matrix( 1, 0, 0, 1, 0,0) ">
<use xlink:href="#Duplicate_Items_Folder_lily_leaf_copy_0_Layer0_0_FILL"/>

<use xlink:href="#Duplicate_Items_Folder_lily_leaf_copy_0_Layer0_0_1_STROKES"/>
</g>
</g>

<g transform="matrix( 0.251678466796875, 1.952392578125, 0.970916748046875, -0.297698974609375, -248.3,-28) ">
<g transform="matrix( 1, 0, 0, 1, 0,0) ">
<use xlink:href="#Duplicate_Items_Folder_lily_leaf_copy_0_Layer0_0_FILL"/>

<use xlink:href="#Duplicate_Items_Folder_lily_leaf_copy_0_Layer0_0_1_STROKES"/>
</g>
</g>

<g filter="url(#Filter_7)" transform="matrix( 0.946197509765625, 0, 0, 0.946197509765625, -306.65,-436.85) ">
<g transform="matrix( -0.399688720703125, 2.045318603515625, -1.0032196044921875, -0.364990234375, 77.05,429.95) ">
<g transform="matrix( 1, 0, 0, 1, 0,0) ">
<use xlink:href="#Duplicate_Items_Folder_lily_leaf_copy_0_Layer0_0_FILL"/>

<use xlink:href="#Duplicate_Items_Folder_lily_leaf_copy_0_Layer0_0_1_STROKES"/>
</g>
</g>
</g>

<g transform="matrix( 0.074066162109375, 1.3777313232421875, -0.72332763671875, 0.2237091064453125, 171.05,-23.05) ">
<g transform="matrix( 1, 0, 0, 1, 0,0) ">
<use xlink:href="#Duplicate_Items_Folder_lily_leaf_copy_0_Layer0_0_FILL"/>

<use xlink:href="#Duplicate_Items_Folder_lily_leaf_copy_0_Layer0_0_1_STROKES"/>
</g>
</g>

<g filter="url(#Filter_8)" transform="matrix( 0.946197509765625, 0, 0, 0.946197509765625, -306.65,-436.85) ">
<g transform="matrix( -0.55712890625, 1.894775390625, -0.855255126953125, -0.3742218017578125, 520.8,432.4) ">
<g transform="matrix( 1, 0, 0, 1, 0,0) ">
<use xlink:href="#Duplicate_Items_Folder_lily_leaf_copy_0_Layer0_0_FILL"/>

<use xlink:href="#Duplicate_Items_Folder_lily_leaf_copy_0_Layer0_0_1_STROKES"/>
</g>
</g>
</g>

<g transform="matrix( 1, 0, 0, 1, 0,0) ">
<use xlink:href="#Duplicate_Items_Folder_full_tree_copy_0_Layer4_0_FILL"/>
</g>

<g transform="matrix( 1, 0, 0, 1, 0,0) ">
<use xlink:href="#Duplicate_Items_Folder_full_tree_copy_0_Layer3_0_FILL"/>

<use xlink:href="#Duplicate_Items_Folder_full_tree_copy_0_Layer3_0_1_STROKES"/>
</g>

<g transform="matrix( 1, 0, 0, 1, 0,0) ">
<use xlink:href="#Duplicate_Items_Folder_full_tree_copy_0_Layer2_0_FILL"/>

<use xlink:href="#Duplicate_Items_Folder_full_tree_copy_0_Layer2_0_1_STROKES"/>
</g>

<g filter="url(#Filter_9)" transform="matrix( 0.946197509765625, 0, 0, 0.946197509765625, -306.65,-436.85) ">
<g transform="matrix( 0.46038818359375, 1.21856689453125, -0.758026123046875, 0.32293701171875, 153.9,441) ">
<g transform="matrix( 1, 0, 0, 1, 0,0) ">
<use xlink:href="#Duplicate_Items_Folder_lily_leaf_copy_0_Layer0_0_FILL"/>

<use xlink:href="#Duplicate_Items_Folder_lily_leaf_copy_0_Layer0_0_1_STROKES"/>
</g>
</g>
</g>

<g transform="matrix( 0.5759124755859375, 1.0637054443359375, 0.6103668212890625, -0.539794921875, -165.8,-19.3) ">
<g transform="matrix( 1, 0, 0, 1, 0,0) ">
<use xlink:href="#Duplicate_Items_Folder_lily_leaf_copy_0_Layer0_0_FILL"/>

<use xlink:href="#Duplicate_Items_Folder_lily_leaf_copy_0_Layer0_0_1_STROKES"/>
</g>
</g>

<g transform="matrix( -0.1013031005859375, 1.60076904296875, -0.958740234375, -0.1691436767578125, -137.5,-27.9) ">
<g transform="matrix( 1, 0, 0, 1, 0,0) ">
<use xlink:href="#Duplicate_Items_Folder_lily_leaf_copy_0_Layer0_0_FILL"/>

<use xlink:href="#Duplicate_Items_Folder_lily_leaf_copy_0_Layer0_0_1_STROKES"/>
</g>
</g>

<g transform="matrix( 0.1013031005859375, 1.60076904296875, 0.958740234375, -0.1691436767578125, -107.8,-31.8) ">
<g transform="matrix( 1, 0, 0, 1, 0,0) ">
<use xlink:href="#Duplicate_Items_Folder_lily_leaf_copy_0_Layer0_0_FILL"/>

<use xlink:href="#Duplicate_Items_Folder_lily_leaf_copy_0_Layer0_0_1_STROKES"/>
</g>
</g>

<g transform="matrix( -0.5453948974609375, 1.443572998046875, 0.8979949951171875, 0.3825531005859375, -99.9,-23.5) ">
<g transform="matrix( 1, 0, 0, 1, 0,0) ">
<use xlink:href="#Duplicate_Items_Folder_lily_leaf_copy_0_Layer0_0_FILL"/>

<use xlink:href="#Duplicate_Items_Folder_lily_leaf_copy_0_Layer0_0_1_STROKES"/>
</g>
</g>

<g filter="url(#Filter_10)" transform="matrix( 0.946197509765625, 0, 0, 0.946197509765625, -306.65,-436.85) ">
<g transform="matrix( -0.7620086669921875, 1.407440185546875, -0.8076171875, -0.7142486572265625, 224.8,437.15) ">
<g transform="matrix( 1, 0, 0, 1, 0,0) ">
<use xlink:href="#Duplicate_Items_Folder_lily_leaf_copy_0_Layer0_0_FILL"/>

<use xlink:href="#Duplicate_Items_Folder_lily_leaf_copy_0_Layer0_0_1_STROKES"/>
</g>
</g>
</g>

<g transform="matrix( 0.1268310546875, 2.004150390625, 1.2003173828125, -0.2117767333984375, -129.35,-33.95) ">
<g transform="matrix( 1, 0, 0, 1, 0,0) ">
<use xlink:href="#Duplicate_Items_Folder_lily_leaf_copy_0_Layer0_0_FILL"/>

<use xlink:href="#Duplicate_Items_Folder_lily_leaf_copy_0_Layer0_0_1_STROKES"/>
</g>
</g>

<g filter="url(#Filter_11)" transform="matrix( 0.946197509765625, 0, 0, 0.946197509765625, -306.65,-436.85) ">
<g transform="matrix( -0.134033203125, 2.1180877685546875, -1.2685546875, -0.22381591796875, 194.55,421.65) ">
<g transform="matrix( 1, 0, 0, 1, 0,0) ">
<use xlink:href="#Duplicate_Items_Folder_lily_leaf_copy_0_Layer0_0_FILL"/>

<use xlink:href="#Duplicate_Items_Folder_lily_leaf_copy_0_Layer0_0_1_STROKES"/>
</g>
</g>
</g>

<g transform="matrix( 0.781280517578125, 0.3957366943359375, -0.3518524169921875, 0.6946563720703125, 25.75,-20.65) ">
<g transform="matrix( 1, 0, 0, 1, 0,0) ">
<use xlink:href="#Duplicate_Items_Folder_skull_copy_0_Layer0_0_FILL"/>

<use xlink:href="#Duplicate_Items_Folder_skull_copy_0_Layer0_0_1_STROKES"/>
</g>
</g>

<g transform="matrix( 0.6878814697265625, -0.5398101806640625, 0.479949951171875, 0.611602783203125, -48.65,0.45) ">
<g transform="matrix( 1, 0, 0, 1, 0,0) ">
<use xlink:href="#Duplicate_Items_Folder_skull_copy_0_Layer0_0_FILL"/>

<use xlink:href="#Duplicate_Items_Folder_skull_copy_0_Layer0_0_1_STROKES"/>
</g>
</g>
</g>
</svg>
