
<svg xmlns="http://www.w3.org/2000/svg" version="1.1" xmlns:xlink="http://www.w3.org/1999/xlink" preserveAspectRatio="none" x="0px" y="0px" width="560px" height="544px" viewBox="0 0 560 544">
<defs>
<radialGradient id="Gradient_1" gradientUnits="userSpaceOnUse" cx="0" cy="0" r="5.5500000000000025" fx="0" fy="0" gradientTransform="matrix( 0.9999999999999996, 0, 0, 0.9999999999999996, 11.15,-38.5) " spreadMethod="pad">
<stop  offset="0%" stop-color="#BAC6CD"/>

<stop  offset="100%" stop-color="#97A9B5"/>
</radialGradient>

<radialGradient id="Gradient_2" gradientUnits="userSpaceOnUse" cx="0" cy="0" r="17.40028735394907" fx="0" fy="0" gradientTransform="matrix( 0.9999834856779531, -0.005747031526884788, 0.005747031526884788, 0.9999834856779531, -1.85,-41) " spreadMethod="pad">
<stop  offset="40%" stop-color="#556A77"/>

<stop  offset="100%" stop-color="#74899C"/>
</radialGradient>

<radialGradient id="Gradient_3" gradientUnits="userSpaceOnUse" cx="0" cy="0" r="29.900000000000006" fx="0" fy="0" gradientTransform="matrix( 0.9999999999999999, 0, 0, 0.9999999999999999, -8.35,-25.2) " spreadMethod="pad">
<stop  offset="0%" stop-color="#89DCFE"/>

<stop  offset="100%" stop-color="#2DBFFD"/>
</radialGradient>

<radialGradient id="Gradient_4" gradientUnits="userSpaceOnUse" cx="0" cy="0" r="5.300000000000001" fx="0" fy="0" gradientTransform="matrix( 1, 0, 0, 1, -12.45,-38.35) " spreadMethod="pad">
<stop  offset="0%" stop-color="#BAC6CD"/>

<stop  offset="100%" stop-color="#97A9B5"/>
</radialGradient>

<radialGradient id="Gradient_5" gradientUnits="userSpaceOnUse" cx="0" cy="0" r="9.8125" fx="0" fy="0" gradientTransform="matrix( 1.0000000000000002, 0, 0, 0.8713375796178345, -0.1,-46.95) " spreadMethod="pad">
<stop  offset="0%" stop-color="#6C8493"/>

<stop  offset="100%" stop-color="#97A9B5"/>
</radialGradient>

<radialGradient id="Gradient_6" gradientUnits="userSpaceOnUse" cx="0" cy="0" r="9.8125" fx="0" fy="0" gradientTransform="matrix( 1.0000000000000002, 0, 0, 0.8713375796178345, -0.1,-46.95) " spreadMethod="pad">
<stop  offset="0%" stop-color="#BAC6CD"/>

<stop  offset="100%" stop-color="#97A9B5"/>
</radialGradient>

<g id="Duplicate_Items_Folder_tail_copy_0_Layer0_0_FILL">
<path fill="#4A5C68" stroke="none" d="
M 2.75 -13.9
Q 1.1 -14.3 0.65 -13.95 -8.15 -15.4 -7.6 -10.35 -7.55 -9.7 -7.45 -8.95 -6.05 0.6 -1.75 1.75 -0.95 1.9 0 2.05 4.65 2.05 -0.3 -1.7 -3.8 -4.05 -4.05 -7.2 -4.1 -8.35 -4.1 -9.2 -4.15 -9.45 -4.25 -9.7
L -4.1 -9.65
Q -4 -11.65 -2.3 -11.3 -0.1 -10.9 5 -10.8 10.1 -10.7 13.2 -14.4 16.3 -18.1 13.05 -24.7 9.8 -31.3 3.95 -21.75 2.05 -16.85 5.6 -20.4 8.45 -26.15 10.7 -23.3 12.95 -20.5 10.85 -16.95 8.7 -13.45 2.75 -13.9 Z"/>
</g>

<g id="wing_0_Layer1_0_FILL">
<path fill="#9DAFB7" stroke="none" d="
M 6.95 14.3
L 6.9 13.75 7.45 14.9
Q 9 17.4 10.7 16.7
L 10.75 11.15
Q 10.5 4.95 8.2 2.7 5.85 0.45 0.05 -4.65 -2.4 2.7 -2.65 7.3 -2.75 10.2 -1.9 11.65
L -1 12.5 1.1 11.75
Q 0.6 13.95 2.05 14.25
L 3.8 13.65
Q 4.95 17.15 6.95 14.3 Z"/>
</g>

<g id="feather_1_0_Layer0_0_FILL">
<path fill="#FFFFFF" stroke="none" d="
M 0.15 26.85
Q 0.187890625 26.8001953125 0.2 26.75
L 0.1 26.8 0.15 26.85 Z"/>

<path fill="#4E616D" stroke="none" d="
M 1.5 14.55
Q 0.5767578125 18.1099609375 0.2 21.75 0.0162109375 23.820703125 0 25.9
L 1.8 21.9 3.05 14.8 4.1 13.95 4.9 5.75
Q 2.787109375 9.9828125 1.55 14.35 1.551171875 14.462890625 1.5 14.55 Z"/>

<path fill="#768F9A" stroke="none" d="
M 8.1 0.2
Q 6.2935546875 2.942578125 4.9 5.75
L 4.1 13.95 3.05 14.8 1.8 21.9 0 25.9
Q -0.0025390625 26.249609375 0 26.6
L 0.1 26.8 0.2 26.75
Q 4.998828125 20.432421875 7.3 13.05 9.1578125 7.1041015625 9.4 0.45 9.3955078125 0.2998046875 9.4 0.15 9.398046875 0.075 9.4 0
L 9.15 -1.4 8.1 0.2 Z"/>
</g>

<g id="body_fly_0_Layer2_0_FILL">
<path fill="#6F8499" stroke="none" d="
M 14 25.8
Q 14.10078125 25.750390625 14.2 25.7 16.65 20.1 14.2 14.5 0.45 18.05 -13.3 14.5 -16.164453125 19.351171875 -13.75 24.8 -13.535546875 25.248046875 -13.3 25.7 -8.1919921875 28.661328125 -2.8 29.25 0.3029296875 29.621875 3.5 29.2 8.6296875 28.4974609375 14 25.8 Z"/>
</g>

<g id="body_fly_0_Layer1_0_FILL">
<path fill="#C02E2E" stroke="none" d="
M -7.15 19.6
Q -7.253125 19.596875 -7.35 19.5
L -7.5 19.6
Q -7.257421875 19.6 -7.15 19.6
M -6.45 -7.2
L -4.7 -2.25 -11.4 1.25 -5 1.65 -7.35 4.2 -5.5 6.9 -7.4 8.9 -5.4 11.5 -7.4 13.65 -5.6 16.15 -7.1 18.15 -7.35 19.5
Q -7.253125 19.596875 -7.15 19.6 -5 19.1 -3.3 20
L -3.15 19.4 -3.15 18.9 -3.1 15.6
Q -4.2 5.05 -2.7 -4.9
L -2.8 -4.9 -6.45 -7.2
M 7.25 -2.2
L 9.35 -6.9 5.5 -4.85
Q 5.95 7.35 3.9 19.4
L 4 19.95
Q 5.85 19.1 8 18.7
L 7.9 18.3 6.6 16.2 8.65 13.85 6.75 11.55 9 9.1 7.25 6.95 9.3 4.4 7.3 1.75 13.6 1.65 7.25 -2.2 Z"/>

<path fill="#4680B6" stroke="none" d="
M -4.7 -2.25
L -6.45 -7.2 -2.8 -4.9 -2.75 -10.5
Q -11.05 -10.2 -16.75 -7.4 -14.8 6.7 -14.6 19.75 -10.7 19.25 -7.35 19.5
L -7.1 18.15 -5.6 16.15 -7.4 13.65 -5.4 11.5 -7.4 8.9 -5.5 6.9 -7.35 4.2 -5 1.65 -11.4 1.25 -4.7 -2.25
M 17.35 -6.9
Q 13.3 -9 5.75 -10.15
L 5.5 -4.85 9.35 -6.9 7.25 -2.2 13.6 1.65 7.3 1.75 9.3 4.4 7.25 6.95 9 9.1 6.75 11.55 8.65 13.85 6.6 16.2 7.9 18.3 8 18.7
Q 10.95 18.05 15.35 18.65 15 6.05 17.35 -6.9 Z"/>

<path fill="#4A5C68" stroke="none" d="
M 5.75 -10.15
Q 3.3 -10.25 0.8 -10.5 -0.95 -10.55 -2.75 -10.5
L -2.8 -4.9 -2.7 -4.9
Q -4.2 5.05 -3.1 15.6
L -3.15 18.9 -3.1 20.4
Q -1.25 20.95 0.85 24.5 2.05 20.75 4 19.95
L 3.9 19.4
Q 5.95 7.35 5.5 -4.85
L 5.75 -10.15
M 0.25 13.75
Q 0.6 13.75 0.9 13.95 1.15 14.2 1.15 14.55 1.15 14.9 0.85 15.15 0.5 15.4 0.15 15.4 -0.2 15.4 -0.45 15.15 -0.75 14.9 -0.75 14.55 -0.75 14.2 -0.4 13.95 -0.1 13.75 0.25 13.75 Z"/>

<path fill="#181F23" stroke="none" d="
M 0.9 13.95
Q 0.6 13.75 0.25 13.75 -0.1 13.75 -0.4 13.95 -0.75 14.2 -0.75 14.55 -0.75 14.9 -0.45 15.15 -0.2 15.4 0.15 15.4 0.5 15.4 0.85 15.15 1.15 14.9 1.15 14.55 1.15 14.2 0.9 13.95 Z"/>
</g>

<g id="body_fly_0_Layer0_0_FILL">
<path fill="#C02E2E" stroke="none" d="
M -3.05 5
L -4.05 6.85 -1.7 7.9 1 6.75 -3.05 5
M 3.65 7.9
L 1 9.05 5.1 10.85 6.1 8.95 3.65 7.9
M 1 9.05
L 3.65 7.9 5.75 7 4.75 5.1 1 6.75 -1.7 7.9 -4.35 9.05 -3.4 10.95 1 9.05 Z"/>
</g>

<g id="Duplicate_Items_Folder_foot_copy_0_Layer0_0_FILL">
<path fill="#74899C" stroke="none" d="
M 5.75 14.8
Q 5.7451171875 14.7609375 5.75 14.7 5.43671875 14.7951171875 4.45 15.05 3.44765625 15.3140625 -0.15 14.95 -3.7357421875 14.6240234375 -8.25 12.55
L -8.45 12.55
Q -11.158984375 14.58828125 -11.75 17.1 -10.5 18.85 -7.55 18.85
L -7.5 18.85 -6.9 17.35 -7.5 18.85
Q -5 20.6 -1.55 20.45 -0.1 18.9 -0.75 16.85 -0.1 18.9 -1.55 20.45 0.95 21.5 2.9 21
L 3.1 20.8
Q 5.15 18.65 3.95 16.25 5.15 18.65 3.1 20.8
L 2.95 21
Q 5.2 22.4 6.9 21.4 9.9 18.25 5.75 14.85
L 5.75 14.8
M 2.65 9.25
Q 3.7 8.95 3.9 8.15 4.1 7.35 3.4 6.5 2.7 5.7 1.5 5.35 0.35 5.05 -0.7 5.35 -1.75 5.7 -1.95 6.5 -2.15 7.3 -1.45 8.1 -0.7 8.95 0.45 9.25 1.65 9.6 2.65 9.25 Z"/>

<path fill="#63778B" stroke="none" d="
M 3.05 1.2
L 3.15 0.95
Q -6.258984375 1.1234375 -7.85 2.85 -8.090234375 3.101171875 -8.15 3.4 -8.15 3.65 -8.1 3.9 -8.05 4.45 -7.75 4.9 -6.7 6.4 -7.3 9.6 -7.6 11.15 -8.1 12.4
L -8.2 12.55 -8.25 12.55
Q -3.7357421875 14.6240234375 -0.15 14.95 3.44765625 15.3140625 4.45 15.05 5.43671875 14.7951171875 5.75 14.7 5.3990234375 10.1376953125 5.35 6.7 5.3 4.5 4.2 2.65
L 3.05 1.2
M 3.9 8.15
Q 3.7 8.95 2.65 9.25 1.65 9.6 0.45 9.25 -0.7 8.95 -1.45 8.1 -2.15 7.3 -1.95 6.5 -1.75 5.7 -0.7 5.35 0.35 5.05 1.5 5.35 2.7 5.7 3.4 6.5 4.1 7.35 3.9 8.15 Z"/>
</g>

<g id="Duplicate_Items_Folder_arm__copy_2_0_Layer0_0_FILL">
<path fill="#5C7081" stroke="none" d="
M -7.5 -12.35
L -7.5 -12.4 -7.5 -12.4 -7.5 -12.35
M 0.7 -8.45
L 0.65 -8.45 -2.25 -9.85 -2.3 -9.9 -7.5 -12.4 -7.5 -12.35 -7.5 -12.2 -10.5 -12.6
Q -8.934765625 -11.3193359375 -8.6 -10 -7.6060546875 -9.283203125 -7.8 -8.75 -7.946484375 -8.31015625 -8.7 -8.2 -9.0283203125 -7.241796875 -9.95 -6.3
L -9.7 -4.3 -9.75 -3.9
Q -9.65 -4.05 -9.65 -4.25 -9.7 -4.4 -9.65 -4.55
L -9.65 -4.6
Q -9.308203125 -4.440625 -8.9 -4.35 -7.2 -3.75 -5.35 -3.3 -1.55 -2.4 -0.5 -3.15 0.5439453125 -3.9455078125 0.7 -8.45 Z"/>

<path fill="#C02E2E" stroke="none" d="
M -2.3 -9.9
L -1.85 -9.85 -2.65 -12.35 -4.8 -11.55 -5.85 -13.8 -7.5 -12.4 -2.3 -9.9
M -1.1 -10.55
L -1.75 -10.2 -1.7 -10.1 -1.1 -10.55
M 0.7 -8.5
L 0.6 -11.3 0.3 -11.15 -1.1 -10.55 -1.7 -10.1 -1.75 -10.2 -1.85 -9.85 -2.25 -9.85 0.65 -8.45 0.7 -8.5 Z"/>

<path fill="#4680B6" stroke="none" d="
M -2.25 -9.85
L -1.85 -9.85 -2.3 -9.9 -2.25 -9.85
M -5.85 -13.95
L -7.5 -12.5 -7.5 -12.4 -7.5 -12.4 -5.85 -13.8 -4.8 -11.55 -2.65 -12.35 -1.85 -9.85 -1.75 -10.2 -2.65 -12.5 -4.8 -11.7 -5.85 -13.95
M 0.7 -8.45
Q 0.69921875 -8.4740234375 0.7 -8.5
L 0.65 -8.45 0.7 -8.45
M 0.6 -11.3
L 0.6 -12.9
Q -1.9 -19.45 -7.65 -15.85
L -7.5 -12.5 -5.85 -13.95 -4.8 -11.7 -2.65 -12.5 -1.75 -10.2 -1.1 -10.55 0.3 -11.15 0.6 -11.3 Z"/>

<path fill="#74899C" stroke="none" d="
M -14.1 -10.5
Q -12.3017578125 -10.6349609375 -11.35 -9.4 -10.3978515625 -8.1744140625 -9.7 -8.15 -8.952734375 -8.117578125 -8.7 -8.2 -7.946484375 -8.31015625 -7.8 -8.75 -7.6060546875 -9.283203125 -8.6 -10 -8.6177734375 -10.026953125 -8.65 -10.05 -9.65 -10.75 -11.3 -11.2 -12.95 -11.65 -14.25 -11.6 -15.5 -11.5 -15.7 -10.95 -15.899609375 -10.355078125 -14.1 -10.5 Z"/>

<path fill="#63778B" stroke="none" d="
M -22.35 -5.25
Q -23.7 -1.9 -22.65 -0.9 -21.65 0.1 -20.45 0.2
L -19.7 0.1 -19.65 -1.7 -19.7 0.1
Q -18.05 1.55 -15.85 0.5 -15.8 0.5 -15.75 0.5
L -15.4 -1.15 -15.75 0.5
Q -13.4 1.2 -11.5 0 -11.05 -0.35 -10.65 -1.1 -10.3 -1.7 -10.1 -2.2 -9.85 -3.05 -9.75 -3.9
L -9.7 -4.3 -9.95 -6.3
Q -9.0283203125 -7.241796875 -8.7 -8.2 -8.952734375 -8.117578125 -9.7 -8.15 -10.3978515625 -8.1744140625 -11.35 -9.4 -12.3017578125 -10.6349609375 -14.1 -10.5 -15.899609375 -10.355078125 -15.7 -10.95 -15.5 -11.5 -14.25 -11.6 -12.95 -11.65 -11.3 -11.2 -9.65 -10.75 -8.65 -10.05 -8.6177734375 -10.026953125 -8.6 -10 -8.934765625 -11.3193359375 -10.5 -12.6
L -14.75 -13.05 -17 -12.6
Q -19.25 -11.25 -20 -10
L -20 -9.95 -20.05 -9.9
Q -21.4 -7.4 -22.05 -5.95 -22.2 -5.6 -22.35 -5.25 Z"/>
</g>

<g id="Duplicate_Items_Folder_ear_copy_0_Layer2_0_FILL">
<path fill="#000000" stroke="none" d="
M 2.05 -6.6
L 0.9 -5.5
Q 0 -5.3 -0.9 -4.8 -2.85 -3.7 -3.2 -2.4 -4 0.65 -4.05 1 -4.3 2.95 -3.2 4.1 -2.05 5.35 -1.4 5.7 -0.9 5.95 0.35 6.1
L 2.9 6.3 4.4 4.6 4.25 4.4 4.25 -4.9 2.05 -6.6 Z"/>
</g>

<g id="Duplicate_Items_Folder_ear_copy_0_Layer1_0_FILL">
<path fill="#76D3FF" stroke="none" d="
M 1.9 -4.9
L 1.05 -4.05
Q 0.45 -3.85 -0.2 -3.45 -1.6 -2.6 -1.85 -1.55 -2.4 0.85 -2.4 1.15 -2.6 2.7 -1.85 3.6 -1 4.6 -0.55 4.9 -0.2 5.1 0.65 5.2
L 2.5 5.35 3.6 4 3.45 3.85 3.45 -3.55 1.9 -4.9 Z"/>
</g>

<g id="Duplicate_Items_Folder_ear_copy_0_Layer0_0_FILL">
<path fill="#000000" stroke="none" d="
M 1 -1.95
Q 0.55 -1.85 0.05 -1.6 -1 -1 -1.15 -0.3 -1.6 1.35 -1.65 1.55 -1.75 2.6 -1.15 3.15 -0.6 3.85 -0.2 4.05 0.05 4.15 0.7 4.25
L 2.1 4.35 2.9 3.45 2.85 3.4 2.85 -1.6 1.65 -2.55 1 -1.95
M 0.4 -0.85
Q 0.8 -1.05 1.05 -1.15
L 1.55 -1.6 2.35 -0.9 2.35 3.05 2.45 3.15 1.85 3.85 0.9 3.75
Q 0.4 3.7 0.25 3.6 0 3.45 -0.45 2.9 -0.9 2.45 -0.75 1.65 -0.75 1.45 -0.45 0.2 -0.3 -0.4 0.4 -0.85 Z"/>

<path fill="#74899C" stroke="none" d="
M 1.05 -1.15
Q 0.8 -1.05 0.4 -0.85 -0.3 -0.4 -0.45 0.2 -0.75 1.45 -0.75 1.65 -0.9 2.45 -0.45 2.9 0 3.45 0.25 3.6 0.4 3.7 0.9 3.75
L 1.85 3.85 2.45 3.15 2.35 3.05 2.35 -0.9 1.55 -1.6 1.05 -1.15 Z"/>
</g>

<g id="Duplicate_Items_Folder_head_copy_6_0_Layer7_0_FILL">
<path fill="url(#Gradient_1)" stroke="none" d="
M 15.35 -38.2
Q 14.65 -39.75 13.35 -40.3 11.65 -41.05 10.15 -39.65
L 9.1 -38.15 9.1 -38.1
Q 8.35 -35.55 10.75 -34.1 13.65 -32.8 14.35 -34.95
L 12.8 -35.95
Q 13.25 -38.55 15.1 -38.1
L 15.35 -38.2 Z"/>

<path fill="url(#Gradient_2)" stroke="none" d="
M 15.35 -38.15
L 15.35 -38.2 15.1 -38.1
Q 13.25 -38.55 12.8 -35.95
L 14.35 -34.95
Q 13.65 -32.8 10.75 -34.1 8.35 -35.55 9.1 -38.1
L 9.1 -38.15 9.05 -38.1 7.15 -39.45 4.05 -42.3
Q 3.55 -43.3 3.85 -47.4 0.4 -42.95 0.15 -38.5 -0.15 -42.95 -3.55 -47.45 -3.3 -43.35 -3.8 -42.35
L -10.15 -38.15 -10.2 -38.2
Q -9.4 -35.6 -11.9 -34.15 -14.75 -32.85 -15.5 -35
L -13.9 -36
Q -14.35 -38.6 -16.2 -38.15
L -16.45 -38.2
Q -16.65 -37.75 -16.8 -37.15
L -17.05 -34.85
Q -18.45 -26.95 -18.35 -25.45 -18.2 -24.05 -18.35 -20.15 -18.45 -16.25 -18.75 -14.95 -19.1 -13.7 -17.6 -8.95 -16.2 -4.15 -14.15 -1.9 -12.2 0.35 -7.95 2.3 -3.8 4.25 -0.4 3.85
L -0.35 3.85
Q 2.7 4.3 6.85 2.35 11.05 0.4 13.05 -1.85 14.6 -3.55 15.8 -6.65 16.15 -7.7 16.5 -8.9 17.95 -13.65 17.6 -14.9 17.3 -16.2 17.2 -20.1 17.1 -24 17.2 -25.4 17.25 -25.85 17.15 -26.95 16.9 -29.35 15.95 -34.8
L 15.7 -37.1
Q 15.55 -37.7 15.35 -38.15
M 9.65 -31.6
Q 11.8 -31.65 13.9 -29.7
L 14.95 -20.2 14.05 -17.45
Q 14.9 -16.85 15.2 -15.3 15.4 -14.1 15.25 -12.35 15.15 -10.9 14.85 -9.55 14.15 -6.35 12.2 -3.55 7.95 0.8 0.05 2.25 -8.05 2.05 -13.3 -3.6 -16.05 -7.55 -16.35 -12.4 -16.65 -16.45 -15.2 -17.5
L -16.05 -20.25 -15.05 -29.75
Q -14.2 -31.45 -10.75 -31.65 -5.45 -31.85 -0.7 -28.6 3.05 -31.5 9.65 -31.6 Z"/>

<path fill="#4AB9E8" stroke="none" d="
M 13.9 -29.7
Q 11.8 -31.65 9.65 -31.6 3.05 -31.5 -0.7 -28.6 -5.45 -31.85 -10.75 -31.65 -14.2 -31.45 -15.05 -29.75
L -16.05 -20.25 -15.2 -17.5
Q -16.65 -16.45 -16.35 -12.4 -16.05 -7.55 -13.3 -3.6 -8.05 2.05 0.05 2.25 7.95 0.8 12.2 -3.55 14.15 -6.35 14.85 -9.55 15.15 -10.9 15.25 -12.35 15.4 -14.1 15.2 -15.3 14.9 -16.85 14.05 -17.45
L 14.95 -20.2 13.9 -29.7
M 8.7 -28.05
Q 10.6 -28.1 12.5 -26.5
L 13.45 -18.7 12.6 -16.45
Q 13.95 -15.55 13.65 -12.25 13.45 -8.25 10.95 -5 7.9 -2.2 2.9 -0.85 1.55 -0.5 0.1 -0.25 -1.15 -0.3 -2.35 -0.45 -8 -1.2 -11.85 -5.05 -12.7 -6.2 -13.25 -7.4 -14 -8.8 -14.3 -10.3 -14.55 -11.3 -14.6 -12.3 -14.8 -15 -13.95 -16.05 -13.75 -16.3 -13.55 -16.45
L -14.3 -18.7 -13.45 -26.5
Q -13 -27.3 -11.75 -27.7 -10.9 -28 -9.55 -28.1 -4.8 -28.25 -0.6 -25.6 2.75 -27.95 8.7 -28.05 Z"/>

<path fill="url(#Gradient_3)" stroke="none" d="
M 12.5 -26.5
Q 10.6 -28.1 8.7 -28.05 2.75 -27.95 -0.6 -25.6 -4.8 -28.25 -9.55 -28.1 -10.9 -28 -11.75 -27.7 -13 -27.3 -13.45 -26.5
L -14.3 -18.7 -13.55 -16.45
Q -13.75 -16.3 -13.95 -16.05 -14.8 -15 -14.6 -12.3 -14.55 -11.3 -14.3 -10.3 -14 -8.8 -13.25 -7.4 -12.7 -6.2 -11.85 -5.05 -8 -1.2 -2.35 -0.45 -1.15 -0.3 0.1 -0.25 1.55 -0.5 2.9 -0.85 7.9 -2.2 10.95 -5 13.45 -8.25 13.65 -12.25 13.95 -15.55 12.6 -16.45
L 13.45 -18.7 12.5 -26.5 Z"/>
</g>

<g id="Duplicate_Items_Folder_head_copy_6_0_Layer6_0_FILL">
<path fill="#79A2CA" stroke="none" d="
M -16.2 -46.15
Q -9.2 -44.65 -7.65 -50.3 -13 -50.1 -16.2 -46.15 Z"/>

<path fill="#4680B6" stroke="none" d="
M -7.65 -50.35
L -7.65 -50.3
Q -9.2 -44.65 -16.2 -46.15
L -16.2 -37.7
Q -6.1 -38.1 -1.6 -45.2
L -7.65 -50.35
M -6.2 -43.05
L -6.3 -42.85 -8.8 -43.15 -9.3 -40.25 -12.6 -41.55 -13.75 -39.2 -13.5 -44.15 -10.7 -42.9 -10.45 -45.15 -7.5 -44.5 -7.05 -46.45 -4.3 -45.6 -6.15 -44.95 -6.2 -43.05 Z"/>

<path fill="#C02E2E" stroke="none" d="
M -6.3 -42.85
L -6.2 -43.05 -6.15 -44.95 -4.3 -45.6 -7.05 -46.45 -7.5 -44.5 -10.45 -45.15 -10.7 -42.9 -13.5 -44.15 -13.75 -39.2 -12.6 -41.55 -9.3 -40.25 -8.8 -43.15 -6.3 -42.85 Z"/>
</g>

<g id="Duplicate_Items_Folder_head_copy_6_0_Layer5_0_FILL">
<path fill="url(#Gradient_4)" stroke="none" d="
M -16.45 -38.2
L -16.2 -38.15
Q -14.35 -38.6 -13.9 -36
L -15.5 -35
Q -14.75 -32.85 -11.9 -34.15 -9.4 -35.6 -10.2 -38.2
L -11.25 -39.7
Q -12.75 -41.1 -14.45 -40.35 -15.8 -39.8 -16.45 -38.2 Z"/>

<path fill="url(#Gradient_5)" stroke="none" d="
M -0.9 -51.95
L -0.95 -52.15 -2.8 -47.6 -0.9 -51.95
M 1.5 -52
L 1.5 -51.85 2.85 -48.2 1.5 -51.85 -0.05 -48.4 -0.15 -48.5 -0.9 -51.95 -2.8 -47.6 -3.35 -46.25
Q -0.35 -42.35 -0.05 -38.5 0.25 -42.8 3.95 -47.05
L 1.5 -52 Z"/>

<path fill="url(#Gradient_6)" stroke="none" d="
M 1.5 -51.85
L 1.4 -52.25 -0.15 -48.5 -0.05 -48.4 1.5 -51.85
M 1.05 -55.35
Q 0.65 -55.35 0.2 -55.3 -0.35 -55.4 -0.75 -55.4 -2.9 -55.45 -5.1 -54.25 -6.6 -51.95 -5.95 -50.1 -5.25 -48.25 -4.3 -47.45 -3.8 -46.85 -3.35 -46.25
L -2.8 -47.6 -0.95 -52.15 -0.9 -51.95 -0.15 -48.5 1.4 -52.25 1.5 -51.85 1.5 -52 3.95 -47.05
Q 4.05 -47.25 4.2 -47.4 5.1 -48.2 5.75 -50.05 6.4 -51.9 4.95 -54.2 3 -55.25 1.05 -55.35 Z"/>
</g>

<g id="Duplicate_Items_Folder_head_copy_6_0_Layer4_0_FILL">
<path fill="#FFFFFF" stroke="none" d="
M -10.95 -19.45
Q -7.65 -16.2 -3.8 -18.95 -7.2 -22.2 -10.95 -19.45
M 2.45 -18.7
Q 6.3 -15.95 9.6 -19.2 5.85 -21.95 2.45 -18.7 Z"/>
</g>

<g id="Duplicate_Items_Folder_head_copy_6_0_Layer3_0_FILL">
<path fill="#B10101" stroke="none" d="
M -8.95 -20.05
Q -8.95 -19.35 -8.55 -18.9 -8.1 -18.35 -7.55 -18.35 -6.95 -18.35 -6.5 -18.9 -6.1 -19.35 -6.1 -20.05 -6.1 -20.15 -6.15 -20.2 -7.55 -20.7 -8.95 -20.2 -8.95 -20.15 -8.95 -20.05
M -7.65 -18.85
Q -8 -18.85 -8.2 -19.1 -8.4 -19.35 -8.4 -19.7 -8.4 -19.75 -8.4 -19.8 -7.85 -20.55 -7.85 -20.05 -7.85 -19.6 -7.85 -19.4 -7.85 -19.2 -7.6 -19 -7.35 -18.85 -7.65 -18.85
M 7.6 -19.85
Q 7.6 -19.95 7.6 -20 6.2 -20.5 4.8 -20 4.75 -19.95 4.75 -19.85 4.75 -19.15 5.15 -18.7 5.6 -18.15 6.2 -18.15 6.75 -18.15 7.2 -18.7 7.6 -19.15 7.6 -19.85
M 6.3 -18.65
Q 6 -18.65 6.25 -18.8 6.5 -19 6.5 -19.2 6.5 -19.4 6.5 -19.85 6.5 -20.35 7.05 -19.6 7.05 -19.55 7.05 -19.5 7.05 -19.15 6.85 -18.9 6.65 -18.65 6.3 -18.65 Z"/>

<path fill="#FFFFFF" stroke="none" d="
M -8.2 -19.1
Q -8 -18.85 -7.65 -18.85 -7.35 -18.85 -7.6 -19 -7.85 -19.2 -7.85 -19.4 -7.85 -19.6 -7.85 -20.05 -7.85 -20.55 -8.4 -19.8 -8.4 -19.75 -8.4 -19.7 -8.4 -19.35 -8.2 -19.1
M 6.25 -18.8
Q 6 -18.65 6.3 -18.65 6.65 -18.65 6.85 -18.9 7.05 -19.15 7.05 -19.5 7.05 -19.55 7.05 -19.6 6.5 -20.35 6.5 -19.85 6.5 -19.4 6.5 -19.2 6.5 -19 6.25 -18.8 Z"/>
</g>

<g id="Duplicate_Items_Folder_head_copy_6_0_Layer1_0_FILL">
<path fill="#B10101" stroke="none" d="
M 3.5 -2.1
L 4.15 -2.85
Q -0.9 -1.05 -5.6 -2.75
L -5.75 -2.45
Q -4.95 -0.5 -1.55 -0.15 1.85 0.15 3.5 -2.1 Z"/>
</g>

<g id="Duplicate_Items_Folder_head_copy_6_0_Layer0_0_FILL">
<path fill="#0382B8" stroke="none" d="
M 3.2 -10.2
L 3.2 -10.25
Q 0.15 -12.55 -4.75 -10.9
L -4.8 -10.75
Q -3.4 -8.75 -1.55 -8.1 -1.15 -7.95 -0.65 -8 0.95 -8 3.25 -9.85
L 3.2 -10.2
M 0.95 -10.1
Q 1.25 -10.1 1.5 -9.9 1.75 -9.7 1.75 -9.5 1.75 -9.25 1.5 -9.05 1.25 -8.9 0.9 -8.8 0.5 -8.75 0.3 -9.05 0.1 -9.35 0.1 -9.55 0.1 -9.8 0.35 -9.95 0.6 -10.15 0.95 -10.1
M -2.5 -10.25
Q -2.25 -10.35 -1.85 -10.1 -1.45 -9.85 -1.45 -9.65 -1.45 -9.45 -1.75 -8.95 -2 -8.5 -2.35 -8.85 -2.75 -9.25 -3 -9.4 -3.3 -9.55 -3.3 -9.75 -3.3 -9.95 -3 -10.05 -2.75 -10.2 -2.5 -10.25 Z"/>

<path fill="#1B0B07" stroke="none" d="
M -1.85 -10.1
Q -2.25 -10.35 -2.5 -10.25 -2.75 -10.2 -3 -10.05 -3.3 -9.95 -3.3 -9.75 -3.3 -9.55 -3 -9.4 -2.75 -9.25 -2.35 -8.85 -2 -8.5 -1.75 -8.95 -1.45 -9.45 -1.45 -9.65 -1.45 -9.85 -1.85 -10.1
M 1.5 -9.9
Q 1.25 -10.1 0.95 -10.1 0.6 -10.15 0.35 -9.95 0.1 -9.8 0.1 -9.55 0.1 -9.35 0.3 -9.05 0.5 -8.75 0.9 -8.8 1.25 -8.9 1.5 -9.05 1.75 -9.25 1.75 -9.5 1.75 -9.7 1.5 -9.9 Z"/>

<path fill="#ABE6FE" stroke="none" d="
M 1.55 -13.65
L 0.65 -19.15
Q -0.75 -21.5 -2.75 -19.3
L -3.5 -13.8
Q -5.2 -12.15 -4.75 -10.9 0.15 -12.55 3.2 -10.25 3.5 -11.85 1.55 -13.65 Z"/>
</g>

<path id="Duplicate_Items_Folder_tail_copy_0_Layer0_0_1_STROKES" stroke="#000000" stroke-width="1" stroke-linejoin="round" stroke-linecap="round" fill="none" d="
M -4.1 -9.65
Q -4 -11.65 -2.3 -11.3 -0.1 -10.9 5 -10.8 10.1 -10.7 13.2 -14.4 16.3 -18.1 13.05 -24.7 9.8 -31.3 3.95 -21.75 2.05 -16.85 5.6 -20.4 8.45 -26.15 10.7 -23.3 12.95 -20.5 10.85 -16.95 8.7 -13.45 2.75 -13.9 1.1 -14.3 0.65 -13.95 -8.15 -15.4 -7.6 -10.35 -7.55 -9.7 -7.45 -8.95 -6.05 0.6 -1.75 1.75 -0.95 1.9 0 2.05 4.65 2.05 -0.3 -1.7 -3.8 -4.05 -4.05 -7.2 -4.1 -8.35 -4.1 -9.2"/>

<path id="wing_0_Layer1_0_1_STROKES" stroke="#000000" stroke-width="1" stroke-linejoin="round" stroke-linecap="round" fill="none" d="
M 6.95 14.3
L 7.45 14.9
Q 9 17.4 10.7 16.7
L 10.75 11.15
Q 10.5 4.95 8.2 2.7 5.85 0.45 0.05 -4.65 -2.4 2.7 -2.65 7.3 -2.75 10.2 -1.9 11.65
L -1 12.5 1.1 11.75
Q 0.6 13.95 2.05 14.25
L 3.8 13.65
Q 4.95 17.15 6.95 14.3 Z"/>

<path id="body_fly_0_Layer2_0_1_STROKES" stroke="#000000" stroke-width="1" stroke-linejoin="round" stroke-linecap="round" fill="none" d="
M 14 25.8
Q 8.6296875 28.4974609375 3.5 29.2 0.3029296875 29.621875 -2.8 29.275 -8.1919921875 28.661328125 -13.3 25.7 -13.535546875 25.248046875 -13.725 24.8 -16.164453125 19.351171875 -13.3 14.5 0.45 18.05 14.2 14.5 16.65 20.1 14.2 25.7 14.10078125 25.750390625 14 25.8 Z"/>

<path id="body_fly_0_Layer1_0_1_STROKES" stroke="#000000" stroke-width="1" stroke-linejoin="round" stroke-linecap="round" fill="none" d="
M -2.75 -10.5
Q -0.95 -10.55 0.8 -10.5 3.3 -10.25 5.75 -10.15 13.3 -9 17.35 -6.9 15 6.05 15.35 18.65 10.95 18.05 8 18.7 5.85 19.1 4 19.95 2.05 20.75 0.85 24.5 -1.25 20.95 -3.1 20.4 -4.95 19.75 -7.15 19.6 -7.257421875 19.6 -7.5 19.6
M -7.35 19.5
Q -10.7 19.25 -14.6 19.75 -14.8 6.7 -16.75 -7.4 -11.05 -10.2 -2.75 -10.5
L -2.8 -4.9
M -2.7 -4.9
Q -4.2 5.05 -3.1 15.6
L -3.15 18.9 -3.1 20.4
M 5.75 -10.15
L 5.5 -4.85
Q 5.95 7.35 3.9 19.4
M -7.35 19.5
Q -7.253125 19.596875 -7.15 19.6 -5 19.1 -3.3 20
M -3.15 19.4
L -3.15 18.9"/>

<path id="body_fly_0_Layer1_0_2_STROKES" stroke="#FFFFFF" stroke-width="0.5" stroke-linejoin="round" stroke-linecap="round" fill="none" d="
M 5.5 -4.85
L 9.35 -6.9 7.25 -2.2 13.6 1.65 7.3 1.75 9.3 4.4 7.25 6.95 9 9.1 6.75 11.55 8.65 13.85 6.6 16.2 7.9 18.3
M -2.8 -4.9
L -6.45 -7.2 -4.7 -2.25 -11.4 1.25 -5 1.65 -7.35 4.2 -5.5 6.9 -7.4 8.9 -5.4 11.5 -7.4 13.65 -5.6 16.15 -7.1 18.15"/>

<path id="body_fly_0_Layer0_0_1_STROKES" stroke="#FFFFFF" stroke-width="0.5" stroke-linejoin="round" stroke-linecap="round" fill="none" d="
M 1 9.05
L 3.65 7.9 5.75 7 4.75 5.1 1 6.75 -1.7 7.9 -4.35 9.05 -3.4 10.95 1 9.05 5.1 10.85 6.1 8.95 3.65 7.9
M -1.7 7.9
L -4.05 6.85 -3.05 5 1 6.75"/>

<path id="Duplicate_Items_Folder_foot_copy_0_Layer0_0_1_STROKES" stroke="#000000" stroke-width="1" stroke-linejoin="round" stroke-linecap="round" fill="none" d="
M 3.05 1.2
L 4.2 2.65
Q 5.3 4.5 5.35 6.7 5.3990234375 10.1376953125 5.75 14.7 5.7451171875 14.7609375 5.75 14.825
L 5.75 14.85
Q 9.9 18.25 6.9 21.4 5.2 22.4 2.95 21
L 2.9 21
Q 0.95 21.5 -1.55 20.45 -5 20.6 -7.5 18.85
L -7.55 18.85
Q -10.5 18.85 -11.75 17.1 -11.158984375 14.58828125 -8.45 12.55
L -8.25 12.55 -8.2 12.55 -8.1 12.4
Q -7.6 11.15 -7.3 9.6 -6.7 6.4 -7.75 4.9 -8.05 4.45 -8.1 3.9 -8.15 3.65 -8.15 3.4 -8.090234375 3.101171875 -7.85 2.85
M 3.1 20.8
Q 5.15 18.65 3.95 16.25
M -7.5 18.85
L -6.9 17.35
M -1.55 20.45
Q -0.1 18.9 -0.75 16.85"/>

<path id="Duplicate_Items_Folder_foot_copy_0_Layer0_0_2_STROKES" stroke="#35404A" stroke-width="1" stroke-linejoin="round" stroke-linecap="round" fill="none" d="
M 4.45 15.05
Q 3.44765625 15.3140625 -0.15 14.975"/>

<path id="Duplicate_Items_Folder_arm__copy_2_0_Layer0_0_1_STROKES" stroke="#000000" stroke-width="1" stroke-linejoin="round" stroke-linecap="round" fill="none" d="
M 0.625 -11.3
L 0.6 -12.9
Q -1.9 -19.45 -7.65 -15.85
L -7.5 -12.5
M 0.625 -11.3
L 0.7 -8.5
Q 0.69921875 -8.4740234375 0.7 -8.45 0.5439453125 -3.9455078125 -0.5 -3.15 -1.55 -2.4 -5.35 -3.3 -7.2 -3.75 -8.9 -4.35 -9.308203125 -4.440625 -9.625 -4.575
L -9.65 -4.55
Q -9.7 -4.4 -9.65 -4.25 -9.65 -4.05 -9.75 -3.9 -9.85 -3.05 -10.1 -2.2 -10.3 -1.7 -10.65 -1.1 -11.05 -0.35 -11.5 0 -13.4 1.2 -15.75 0.5 -15.8 0.5 -15.85 0.5 -18.05 1.55 -19.7 0.1
L -20.45 0.2
Q -21.65 0.1 -22.65 -0.9 -23.7 -1.9 -22.35 -5.25 -22.2 -5.6 -22.05 -5.95 -21.4 -7.4 -20.05 -9.9
L -20 -9.95 -20 -10
Q -19.25 -11.25 -17 -12.6
L -14.75 -13.05 -10.5 -12.6 -7.5 -12.2 -7.5 -12.35 -7.5 -12.4 -7.5 -12.5
M 0.7 -8.45
L 0.675 -8.45 -2.225 -9.85 -2.3 -9.875 -7.475 -12.375 -7.5 -12.35
M -1.85 -9.825
L -2.225 -9.85
M -9.7 -4.3
L -9.95 -6.3
M -7.5 -12.4
L -7.475 -12.375
M -15.75 0.5
L -15.4 -1.15
M -19.7 0.1
L -19.65 -1.7"/>

<path id="Duplicate_Items_Folder_arm__copy_2_0_Layer0_0_2_STROKES" stroke="#FFFFFF" stroke-width="0.5" stroke-linejoin="round" stroke-linecap="round" fill="none" d="
M -7.5 -12.5
L -5.85 -13.95 -4.8 -11.7 -2.65 -12.5 -1.75 -10.2
M -1.075 -10.525
L 0.3 -11.15
M -1.75 -10.2
L -1.7 -10.1 -1.075 -10.525"/>

<path id="Duplicate_Items_Folder_head_copy_6_0_Layer7_0_1_STROKES" stroke="#000000" stroke-width="1" stroke-linejoin="round" stroke-linecap="round" fill="none" d="
M 15.35 -38.2
L 15.35 -38.15
Q 15.55 -37.7 15.7 -37.1
L 15.95 -34.8
Q 16.9 -29.35 17.15 -26.95 17.25 -25.85 17.2 -25.4 17.1 -24 17.2 -20.1 17.3 -16.2 17.6 -14.9 17.95 -13.65 16.5 -8.9 16.15 -7.7 15.8 -6.65 14.6 -3.55 13.05 -1.85 11.05 0.4 6.85 2.35 2.7 4.3 -0.35 3.85
L -0.4 3.85
Q -3.8 4.25 -7.95 2.3 -12.2 0.35 -14.15 -1.9 -16.2 -4.15 -17.6 -8.95 -19.1 -13.7 -18.75 -14.95 -18.45 -16.25 -18.35 -20.15 -18.2 -24.05 -18.35 -25.45 -18.45 -26.95 -17.05 -34.85
L -16.8 -37.15
Q -16.65 -37.75 -16.45 -38.2
M -10.2 -38.2
L -10.15 -38.15 -3.8 -42.35
Q -3.3 -43.35 -3.55 -47.45
M 3.85 -47.4
Q 3.55 -43.3 4.05 -42.3
L 7.15 -39.45 9.05 -38.1 9.1 -38.15 10.15 -39.65
Q 11.65 -41.05 13.35 -40.3 14.65 -39.75 15.35 -38.2
M 15.1 -38.1
Q 13.25 -38.55 12.8 -35.95
L 14.35 -34.95
Q 13.65 -32.8 10.75 -34.1 8.35 -35.55 9.1 -38.1
L 9.1 -38.15
M 13.9 -29.7
L 14.95 -20.2 14.05 -17.45
Q 14.9 -16.85 15.2 -15.3 15.4 -14.1 15.25 -12.35 15.15 -10.9 14.85 -9.55 14.15 -6.35 12.2 -3.55 7.95 0.8 0.05 2.25 -8.05 2.05 -13.3 -3.6 -16.05 -7.55 -16.35 -12.4 -16.65 -16.45 -15.2 -17.5
L -16.05 -20.25 -15.05 -29.75
Q -14.2 -31.45 -10.75 -31.65 -5.45 -31.85 -0.7 -28.6 3.05 -31.5 9.65 -31.6 11.8 -31.65 13.9 -29.7 Z"/>

<path id="Duplicate_Items_Folder_head_copy_6_0_Layer6_0_1_STROKES" stroke="#000000" stroke-width="1" stroke-linejoin="round" stroke-linecap="round" fill="none" d="
M -7.65 -50.3
L -7.65 -50.35 -1.6 -45.2
Q -6.1 -38.1 -16.2 -37.7
L -16.2 -46.15
Q -13 -50.1 -7.65 -50.3 -9.2 -44.65 -16.2 -46.15"/>

<path id="Duplicate_Items_Folder_head_copy_6_0_Layer6_0_2_STROKES" stroke="#FFFFFF" stroke-width="0.5" stroke-linejoin="round" stroke-linecap="round" fill="none" d="
M -6.3 -42.85
L -8.8 -43.15 -9.3 -40.25 -12.6 -41.55 -13.75 -39.2 -13.5 -44.15 -10.7 -42.9 -10.45 -45.15 -7.5 -44.5 -7.05 -46.45 -4.3 -45.6 -6.15 -44.95 -6.2 -43.05"/>

<path id="Duplicate_Items_Folder_head_copy_6_0_Layer5_0_1_STROKES" stroke="#000000" stroke-width="1" stroke-linejoin="round" stroke-linecap="round" fill="none" d="
M 3.95 -47.05
Q 4.05 -47.25 4.2 -47.4 5.1 -48.2 5.75 -50.05 6.4 -51.9 4.95 -54.2 3 -55.25 1.05 -55.35 0.65 -55.35 0.2 -55.3 -0.35 -55.4 -0.75 -55.4 -2.9 -55.45 -5.1 -54.25 -6.6 -51.95 -5.95 -50.1 -5.25 -48.25 -4.3 -47.45 -3.8 -46.85 -3.35 -46.25
M 3.95 -47.05
Q 0.25 -42.8 -0.05 -38.5 -0.35 -42.35 -3.35 -46.25
M -16.2 -38.15
Q -14.35 -38.6 -13.9 -36
L -15.5 -35
Q -14.75 -32.85 -11.9 -34.15 -9.4 -35.6 -10.2 -38.2
L -11.25 -39.7
Q -12.75 -41.1 -14.45 -40.35 -15.8 -39.8 -16.45 -38.2"/>

<path id="Duplicate_Items_Folder_head_copy_6_0_Layer5_0_2_STROKES" stroke="#576975" stroke-width="0.5" stroke-linejoin="round" stroke-linecap="round" fill="none" d="
M -0.9 -51.95
L -0.15 -48.5 1.4 -52.25 1.5 -51.85 2.85 -48.2
M -2.8 -47.6
L -0.9 -51.95"/>

<path id="Duplicate_Items_Folder_head_copy_6_0_Layer4_0_1_STROKES" stroke="#333333" stroke-width="0.5" stroke-linejoin="round" stroke-linecap="round" fill="none" d="
M 2.45 -18.7
Q 5.85 -21.95 9.6 -19.2 6.3 -15.95 2.45 -18.7 Z
M -10.95 -19.45
Q -7.2 -22.2 -3.8 -18.95 -7.65 -16.2 -10.95 -19.45 Z"/>

<path id="Duplicate_Items_Folder_head_copy_6_0_Layer2_0_1_STROKES" stroke="#333333" stroke-width="0.8" stroke-linejoin="round" stroke-linecap="round" fill="none" d="
M 7.35 -37.65
Q 4.8 -35.3 6.25 -33
M 4.55 -40.35
Q 1.3 -36.3 2.55 -31.75
M -3.65 -40.6
Q -0.4 -36.55 -1.65 -32
M -6.45 -37.9
Q -3.9 -35.55 -5.35 -33.25"/>

<path id="Duplicate_Items_Folder_head_copy_6_0_Layer1_0_1_STROKES" stroke="#333333" stroke-width="0.8" stroke-linejoin="round" stroke-linecap="round" fill="none" d="
M 10.45 -18.85
L 12.9 -18.55
M 10.5 -19.4
L 12.75 -19.95
M 2.75 -17.3
Q 5 -14.4 9.35 -16.45
M 2.15 -16.7
Q 3.9 -13.1 8.8 -14.45
M 6.1 -10.65
L 9.65 -7.25 7.4 -2.85
M 1.6 -20.65
Q 5.95 -23 10.9 -21.95
M -9.7 -28.3
Q -4.8 -28.1 -0.25 -25.9 3.65 -27.65 8.5 -28.15
M -2.35 -20.55
Q -6.15 -22.6 -10 -22.95
M -11.4 -19
L -13.95 -19
M -11.7 -19.95
L -13.95 -20.8
M -7.05 -11.5
L -11.7 -7.95 -10.4 -5
M -4.2 -17.4
Q -7.45 -16 -10.7 -17.7
M -3.8 -16.75
Q -7 -14.15 -10.7 -15.6"/>

<path id="Duplicate_Items_Folder_head_copy_6_0_Layer1_0_2_STROKES" stroke="#1A1A1A" stroke-width="0.8" stroke-linejoin="round" stroke-linecap="round" fill="none" d="
M 4.15 -2.85
L 7.95 -6.4 4.15 -11.05
M 4.15 -2.85
L 3.5 -2.1
Q 1.85 0.15 -1.55 -0.15 -4.95 -0.5 -5.75 -2.45
L -9.35 -6.6 -5.5 -10.9
M -5.6 -2.75
Q -5.8 -2.85 -5.95 -2.9 -5.85 -2.65 -5.75 -2.45
M 4.15 -2.85
Q -0.9 -1.05 -5.6 -2.75"/>

<path id="Duplicate_Items_Folder_head_copy_6_0_Layer0_0_1_STROKES" stroke="#333333" stroke-width="0.75" stroke-linejoin="round" stroke-linecap="round" fill="none" d="
M 3.2 -10.25
Q 3.5 -11.85 1.55 -13.65
L 0.65 -19.15
M -2.75 -19.3
L -3.5 -13.8
Q -5.2 -12.15 -4.75 -10.9 0.15 -12.55 3.2 -10.25
L 3.2 -10.2 3.25 -9.85
Q 0.95 -8 -0.65 -8
L -0.65 -6.3
M -4.75 -10.9
L -4.8 -10.75
Q -3.4 -8.75 -1.55 -8.1 -1.15 -7.95 -0.65 -8"/>
</defs>

<g transform="matrix( 5.7176971435546875, 0, 0, 5.7176971435546875, 118.5,9.9) ">
<g transform="matrix( 0.33428955078125, -0.93927001953125, 0.93927001953125, 0.33428955078125, 28.3,74.5) ">
<g transform="matrix( 1, 0, 0, 1, 0,0) ">
<use xlink:href="#Duplicate_Items_Folder_tail_copy_0_Layer0_0_FILL"/>

<use xlink:href="#Duplicate_Items_Folder_tail_copy_0_Layer0_0_1_STROKES"/>
</g>
</g>

<g transform="matrix( 0.69415283203125, 0, 0, 0.71356201171875, 29.85,62.6) ">
<g transform="matrix( 0.34930419921875, -0.94244384765625, 1.181884765625, 0.43804931640625, 16.25,-6) ">
<g transform="matrix( 1, 0, 0, 1, 0,0) ">
<use xlink:href="#wing_0_Layer1_0_FILL"/>

<use xlink:href="#wing_0_Layer1_0_1_STROKES"/>
</g>

<g transform="matrix( 0.6216278076171875, -0.28106689453125, 0.1584930419921875, 0.35052490234375, -4.05,1.25) ">
<g transform="matrix( 1, 0, 0, 1, 0,0) ">
<use xlink:href="#feather_1_0_Layer0_0_FILL"/>
</g>
</g>

<g transform="matrix( 0.6216278076171875, -0.28106689453125, 0.1584930419921875, 0.35052490234375, -1.6,3.15) ">
<g transform="matrix( 1, 0, 0, 1, 0,0) ">
<use xlink:href="#feather_1_0_Layer0_0_FILL"/>
</g>
</g>

<g transform="matrix( 0.516082763671875, -0.2960052490234375, 0.16339111328125, 0.28485107421875, 1.35,5.35) ">
<g transform="matrix( 1, 0, 0, 1, 0,0) ">
<use xlink:href="#feather_1_0_Layer0_0_FILL"/>
</g>
</g>

<g transform="matrix( 0.3575286865234375, -0.24005126953125, 0.166168212890625, 0.24749755859375, 4.3,6.9) ">
<g transform="matrix( 1, 0, 0, 1, 0,0) ">
<use xlink:href="#feather_1_0_Layer0_0_FILL"/>
</g>
</g>
</g>

<g transform="matrix( -0.34930419921875, -0.94244384765625, -1.181884765625, 0.43804931640625, -16.05,-6.25) ">
<g transform="matrix( 1, 0, 0, 1, 0,0) ">
<use xlink:href="#wing_0_Layer1_0_FILL"/>

<use xlink:href="#wing_0_Layer1_0_1_STROKES"/>
</g>

<g transform="matrix( 0.6216278076171875, -0.28106689453125, 0.1584930419921875, 0.35052490234375, -4.05,1.25) ">
<g transform="matrix( 1, 0, 0, 1, 0,0) ">
<use xlink:href="#feather_1_0_Layer0_0_FILL"/>
</g>
</g>

<g transform="matrix( 0.6216278076171875, -0.28106689453125, 0.1584930419921875, 0.35052490234375, -1.6,3.15) ">
<g transform="matrix( 1, 0, 0, 1, 0,0) ">
<use xlink:href="#feather_1_0_Layer0_0_FILL"/>
</g>
</g>

<g transform="matrix( 0.516082763671875, -0.2960052490234375, 0.16339111328125, 0.28485107421875, 1.35,5.35) ">
<g transform="matrix( 1, 0, 0, 1, 0,0) ">
<use xlink:href="#feather_1_0_Layer0_0_FILL"/>
</g>
</g>

<g transform="matrix( 0.3575286865234375, -0.24005126953125, 0.166168212890625, 0.24749755859375, 4.3,6.9) ">
<g transform="matrix( 1, 0, 0, 1, 0,0) ">
<use xlink:href="#feather_1_0_Layer0_0_FILL"/>
</g>
</g>
</g>

<g transform="matrix( 1, 0, 0, 1, 0,0) ">
<use xlink:href="#body_fly_0_Layer2_0_FILL"/>

<use xlink:href="#body_fly_0_Layer2_0_1_STROKES"/>
</g>

<g transform="matrix( 1, 0, 0, 1, 0,0) ">
<use xlink:href="#body_fly_0_Layer1_0_FILL"/>

<use xlink:href="#body_fly_0_Layer1_0_1_STROKES"/>

<use xlink:href="#body_fly_0_Layer1_0_2_STROKES"/>
</g>

<g transform="matrix( 1, 0, 0, 1, 0,0) ">
<use xlink:href="#body_fly_0_Layer0_0_FILL"/>

<use xlink:href="#body_fly_0_Layer0_0_1_STROKES"/>
</g>
</g>

<g transform="matrix( -0.792816162109375, 0.1252288818359375, 0.118408203125, 0.74981689453125, 20.9,74.35) ">
<g transform="matrix( 1, 0, 0, 1, 0,0) ">
<use xlink:href="#Duplicate_Items_Folder_foot_copy_0_Layer0_0_FILL"/>

<use xlink:href="#Duplicate_Items_Folder_foot_copy_0_Layer0_0_1_STROKES"/>

<use xlink:href="#Duplicate_Items_Folder_foot_copy_0_Layer0_0_2_STROKES"/>
</g>
</g>

<g transform="matrix( 0.7620849609375, 0.14404296875, -0.1374969482421875, 0.727386474609375, 40.1,74.6) ">
<g transform="matrix( 1, 0, 0, 1, 0,0) ">
<use xlink:href="#Duplicate_Items_Folder_foot_copy_0_Layer0_0_FILL"/>

<use xlink:href="#Duplicate_Items_Folder_foot_copy_0_Layer0_0_1_STROKES"/>

<use xlink:href="#Duplicate_Items_Folder_foot_copy_0_Layer0_0_2_STROKES"/>
</g>
</g>

<g transform="matrix( 0.752532958984375, -0.2259521484375, 0.24041748046875, 0.80084228515625, 49.2,66.9) ">
<g transform="matrix( 1, 0, 0, 1, 0,0) ">
<use xlink:href="#Duplicate_Items_Folder_arm__copy_2_0_Layer0_0_FILL"/>

<use xlink:href="#Duplicate_Items_Folder_arm__copy_2_0_Layer0_0_1_STROKES"/>

<use xlink:href="#Duplicate_Items_Folder_arm__copy_2_0_Layer0_0_2_STROKES"/>
</g>
</g>

<g transform="matrix( -0.752532958984375, -0.2259521484375, -0.24041748046875, 0.80084228515625, 11.85,67.1) ">
<g transform="matrix( 1, 0, 0, 1, 0,0) ">
<use xlink:href="#Duplicate_Items_Folder_arm__copy_2_0_Layer0_0_FILL"/>

<use xlink:href="#Duplicate_Items_Folder_arm__copy_2_0_Layer0_0_1_STROKES"/>

<use xlink:href="#Duplicate_Items_Folder_arm__copy_2_0_Layer0_0_2_STROKES"/>
</g>
</g>

<g transform="matrix( 1.0030364990234375, -0.0477294921875, 0.0467681884765625, 0.9828948974609375, 31,55.65) ">
<g transform="matrix( 1.2235107421875, 0, 0, -1, -20.9,-18.1) ">
<g transform="matrix( 1, 0, 0, 1, 0,0) ">
<use xlink:href="#Duplicate_Items_Folder_ear_copy_0_Layer2_0_FILL"/>
</g>

<g transform="matrix( 1, 0, 0, 1, 0,0) ">
<use xlink:href="#Duplicate_Items_Folder_ear_copy_0_Layer1_0_FILL"/>
</g>

<g transform="matrix( 1, 0, 0, 1, 0,0) ">
<use xlink:href="#Duplicate_Items_Folder_ear_copy_0_Layer0_0_FILL"/>
</g>
</g>

<g transform="matrix( -1.2235107421875, 0, 0, -1, 19.8,-18.6) ">
<g transform="matrix( 1, 0, 0, 1, 0,0) ">
<use xlink:href="#Duplicate_Items_Folder_ear_copy_0_Layer2_0_FILL"/>
</g>

<g transform="matrix( 1, 0, 0, 1, 0,0) ">
<use xlink:href="#Duplicate_Items_Folder_ear_copy_0_Layer1_0_FILL"/>
</g>

<g transform="matrix( 1, 0, 0, 1, 0,0) ">
<use xlink:href="#Duplicate_Items_Folder_ear_copy_0_Layer0_0_FILL"/>
</g>
</g>

<g transform="matrix( 1, 0, 0, 1, 0,0) ">
<use xlink:href="#Duplicate_Items_Folder_head_copy_6_0_Layer7_0_FILL"/>

<use xlink:href="#Duplicate_Items_Folder_head_copy_6_0_Layer7_0_1_STROKES"/>
</g>

<g transform="matrix( 1, 0, 0, 1, 0,0) ">
<use xlink:href="#Duplicate_Items_Folder_head_copy_6_0_Layer6_0_FILL"/>

<use xlink:href="#Duplicate_Items_Folder_head_copy_6_0_Layer6_0_1_STROKES"/>

<use xlink:href="#Duplicate_Items_Folder_head_copy_6_0_Layer6_0_2_STROKES"/>
</g>

<g transform="matrix( 1, 0, 0, 1, 0,0) ">
<use xlink:href="#Duplicate_Items_Folder_head_copy_6_0_Layer5_0_FILL"/>

<use xlink:href="#Duplicate_Items_Folder_head_copy_6_0_Layer5_0_1_STROKES"/>

<use xlink:href="#Duplicate_Items_Folder_head_copy_6_0_Layer5_0_2_STROKES"/>
</g>

<g transform="matrix( 1, 0, 0, 1, 0,0) ">
<use xlink:href="#Duplicate_Items_Folder_head_copy_6_0_Layer4_0_FILL"/>

<use xlink:href="#Duplicate_Items_Folder_head_copy_6_0_Layer4_0_1_STROKES"/>
</g>

<g transform="matrix( 1, 0, 0, 1, 0,0) ">
<use xlink:href="#Duplicate_Items_Folder_head_copy_6_0_Layer3_0_FILL"/>
</g>

<g transform="matrix( 1, 0, 0, 1, 0,0) ">
<use xlink:href="#Duplicate_Items_Folder_head_copy_6_0_Layer2_0_1_STROKES"/>
</g>

<g transform="matrix( 1, 0, 0, 1, 0,0) ">
<use xlink:href="#Duplicate_Items_Folder_head_copy_6_0_Layer1_0_FILL"/>

<use xlink:href="#Duplicate_Items_Folder_head_copy_6_0_Layer1_0_1_STROKES"/>

<use xlink:href="#Duplicate_Items_Folder_head_copy_6_0_Layer1_0_2_STROKES"/>
</g>

<g transform="matrix( 1, 0, 0, 1, 0,0) ">
<use xlink:href="#Duplicate_Items_Folder_head_copy_6_0_Layer0_0_FILL"/>

<use xlink:href="#Duplicate_Items_Folder_head_copy_6_0_Layer0_0_1_STROKES"/>
</g>
</g>

<g transform="matrix( 0.4681243896484375, -0.66558837890625, 0.66558837890625, 0.4681243896484375, 6.3,39.95) ">
<g transform="matrix( 1, 0, 0, 1, -5.5,11.9) ">
<g transform="matrix( 1, 0, 0, 1, -71.15,-5.65) ">
<clipPath id="Mask_Mask_1">
<rect x="66.85" y="-2" width="10.3" height="14" fill="#FFFFFF" stroke="none"/>
</clipPath>

<text clip-path="url(#Mask_Mask_1)" writing-mode="lr"><tspan x="68.95" y="7.7" baseline-shift="0%" font-family="KristenITC-Regular" font-size="10" fill="#ffffff" fill-opacity="0" xml:space="preserve">Z</tspan></text>
</g>
</g>
</g>
</g>
</svg>
