
<svg xmlns="http://www.w3.org/2000/svg" version="1.1" xmlns:xlink="http://www.w3.org/1999/xlink" preserveAspectRatio="none" x="0px" y="0px" width="560px" height="544px" viewBox="0 0 560 544">
<defs>
<radialGradient id="Gradient_1" gradientUnits="userSpaceOnUse" cx="0" cy="0" r="13.850000000000001" fx="0" fy="0" gradientTransform="matrix( 0.9999999999999999, 0, 0, 0.9999999999999999, 8.2,9.05) " spreadMethod="pad">
<stop  offset="29.019607843137255%" stop-color="#FFFFFF"/>

<stop  offset="98.82352941176471%" stop-color="#A49CEB"/>
</radialGradient>

<filter id="Filter_1" x="-20%" y="-20%" width="140%" height="140%" color-interpolation-filters="sRGB">
<feColorMatrix in="SourceGraphic" type="matrix" values="1 0 0 0 0 0 1 0 0 0 0 0 1 0 0 0 0 0 0.7 0" result="result1"/>
</filter>

<g id="top_fin_0_Layer0_0_FILL">
<path fill="#C1C4AA" stroke="none" d="
M 0.05 3.1
L 0 3.05
Q 0 3.1 0.05 3.15
L 0.05 3.1 Z"/>

<path fill="#8E9768" stroke="none" d="
M 11.35 1.75
L 11.15 1.2
Q 9.85 7.75 13.45 16.95 6.95 14.45 0.05 3.15 4.4 15.2 13.65 22.75 13.85 23.25 13.85 23.95
L 20.1 23.05 19.6 17.15 19.55 16.9
Q 13.3 10.6 11.35 1.75 Z"/>

<path fill="#767953" stroke="none" d="
M 41.65 6.35
L 41.45 6.2
Q 31.95 15.4 24.85 18.15 28.45 8.9 29.05 1.15
L 28.1 1.1 27.85 1.95 27.7 1.95
Q 24.35 11.2 20.1 16.55 19.7 17.2 19.6 17.15
L 20.1 23.05 23.75 22.6
Q 23.25 21.5 26.15 22.5 33.7 18.75 41.65 6.35 Z"/>
</g>

<g id="top_fin_seethrough_0_Layer0_0_FILL">
<path fill="#C1C4AA" stroke="none" d="
M 9.8 0.35
L 6.5 0
Q 6.65 8.65 0 3.1
L 0 3.15
Q 6.9 14.45 13.4 16.95 9.8 7.75 11.1 1.2
L 9.8 0.35
M 7.1 7.85
Q 7.1 7.1 7.35 6.55 7.6 6.05 7.95 6.05 8.35 6.05 8.55 6.55 8.8 7.1 8.8 7.85 8.8 8.6 8.55 9.1 8.35 9.65 7.95 9.65 7.6 9.65 7.35 9.1 7.1 8.6 7.1 7.85
M 29 1.15
Q 28.4 8.9 24.8 18.15 31.9 15.4 41.4 6.2 35 8 29 1.15
M 30.55 10.8
Q 31.05 10.8 31.4 11.15 31.75 11.55 31.75 12.05 31.75 12.55 31.4 12.9 31.05 13.3 30.55 13.3 30.05 13.3 29.7 12.9 29.4 12.55 29.4 12.05 29.4 11.55 29.7 11.15 30.05 10.8 30.55 10.8
M 25.45 3
L 20.65 10.45 20.35 4.2
Q 16.45 7.1 11.3 1.75 13.25 10.6 19.5 16.9
L 19.55 17.15
Q 19.65 17.2 20.05 16.55 24.3 11.2 27.65 1.95
L 25.45 3 Z"/>
</g>

<g id="Duplicate_Items_Folder_body_copy_0_Layer6_0_FILL">
<path fill="#767953" stroke="none" d="
M 42.75 17.5
Q 42.8 17.4 42.9 17.25
L 40.55 18.15 40.55 18.3 38.6 18.75 15.1 29.5 5.2 24.6 -2.8 17.6 -8.95 17.75
Q -8.95 17.8 -8.95 17.9 -4.55 23.4 -5 28.15 -4.85 30.45 0 31.85
L 9.5 32.65
Q 12.05 35.45 18.7 35.8 27.05 27.25 39.65 21.3 40.0931640625 21.0916015625 40.55 20.9
L 40.55 20.85
Q 40.6 20.8 40.65 20.8 40.9 20.55 41.2 20.4 41.2 29.05 47.1 34.45
L 47.15 34.3
Q 43.05 27.35 42.4 19.95 46.7 23.95 50.75 23.7
L 50.8 22.95 50.35 22.8 50.4 22.7
Q 45.85 20.8 42.75 17.5 Z"/>

<path fill="#8E9768" stroke="none" d="
M 26.85 -0.4
L 21.35 -1.55
Q 17.2 -3.85 12.1 -3 4.1 -2.55 2.15 2.45 -0.55 5.85 -1.6 8.3 -3.3 10.75 -6.25 12.25 -8.95 14.6 -8.95 17.75
L -2.8 17.6 5.2 24.6 15.1 29.5 38.6 18.75 40.55 18.3 40.55 18.15 42.9 17.25
Q 46.9 11.75 51.65 9.45
L 51.95 9.15
Q 48.6 8.75 42.5 14.1 45.3 6.9 51.85 0.2 45.15 4.85 40.65 13 40.6 13.05 40.55 13.1
L 40.55 13.45
Q 40.1 13.65 39.65 13.7 37.35 13.95 36.15 10.5 33.05 3.85 26.85 -0.4
M 12.1 -1.25
Q 16.7 -1.8 20.4 -0.3
L 23.4 0.65
Q 27 3.8 28.5 5.75 27 4.7 25.25 3.8
L 20.3 3.05
Q 16.6 -1.0400390625 10.7 1
L 5.65 3.25
Q 2.85 7 2.6 4.7 5.7 1.1 12.1 -1.25 Z"/>

<path fill="#BBBD9F" stroke="none" d="
M 20.4 -0.3
Q 16.7 -1.8 12.1 -1.25 5.7 1.1 2.6 4.7 2.85 7 5.65 3.25
L 10.7 1
Q 16.6 -1.0400390625 20.3 3.05
L 25.25 3.8
Q 27 4.7 28.5 5.75 27 3.8 23.4 0.65
L 20.4 -0.3 Z"/>
</g>

<g id="back_fin_seethrough_0_Layer0_0_FILL">
<path fill="#C1C4AA" stroke="none" d="
M 11.45 22.55
Q 5.9 22.65 0 18.65 0.9 25.8 6.55 32.6 2.8 25.1 11.45 22.55
M 0.65 16.1
Q 0.55 16.2 0.45 16.3 4.7 19.6 11 21.6
L 11.45 18.8 10.25 16.4 12.35 12.7 12.75 8.9
Q 6.2 10.95 0.65 16.1
M 9.55 14.05
Q 9.05 14.05 8.65 13.8 8.3 13.55 8.3 13.2 8.3 12.85 8.65 12.6 9.05 12.35 9.55 12.35 10.05 12.35 10.4 12.6 10.75 12.85 10.75 13.2 10.75 13.55 10.4 13.8 10.05 14.05 9.55 14.05
M 14.45 5
L 13.05 0
Q 13 0 13 0.05 4 6.25 0.15 13.05 8.55 8.1 13.15 8.65
L 13.85 7.65 14.45 5 Z"/>
</g>

<g id="side_fin_0_Layer0_0_FILL">
<path fill="#8E9768" stroke="none" d="
M 4.75 4.1
L 4.85 4.15
Q 4.8 3.9 4.8 3.7 4.75 4 4.75 4.1
M 4.75 4.1
L 2.3 1.9 1.2 2.1
Q -0.85 6.2 0.55 12.6
L 0.7 12.65
Q 0.95 7.2 3.45 4.55 4.4 9.2 6.95 12.45
L 7.25 12.3 7.05 11.9 7.15 11.95
Q 5.25 7.8 4.85 4.15
L 4.75 4.1 Z"/>

<path fill="#6B6F4D" stroke="none" d="
M 13.05 9.05
L 13.35 9.25
Q 11.55 6.35 6.15 2.15 10.3 3.1 16.75 6.5 11.6 0.55 3.7 0
L 3.45 0.55 2.6 2 2.3 1.9 4.75 4.1
Q 4.75 4 4.8 3.7 4.8 3.9 4.85 4.15 9.35 5.85 13.05 9.05 Z"/>
</g>

<g id="side_fin_seethrough_0_Layer0_0_FILL">
<path fill="#C1C4AA" stroke="none" d="
M 6.25 10.3
Q 3.7 7.05 2.75 2.4 0.25 5.05 0 10.5 1.4 6 6.25 10.3
M 14.7 6.75
L 16.15 4.4
Q 16.1 4.35 16.05 4.35 9.6 0.95 5.45 0 10.85 4.2 12.65 7.1
L 13.35 7.2 14.7 6.75
M 10.6 7.85
L 12.35 6.9
Q 8.65 3.7 4.15 2 4.55 5.65 6.45 9.8
L 7.8 9.2 8.2 7.75 10.6 7.85
M 9.05 5.65
Q 9.3 5.8 9.55 6.05 9.75 6.35 9.8 6.7 9.85 6.95 9.7 7.1 9.55 7.2 9.3 7.05 9.05 6.9 8.85 6.6 8.6 6.35 8.55 6 8.5 5.75 8.65 5.65 8.8 5.5 9.05 5.65 Z"/>
</g>

<g id="Duplicate_Items_Folder_body_copy_0_Layer4_0_FILL">
<path fill="#000000" stroke="none" d="
M 30.3 7.8
Q 27 6.2 22.2 8
L 24.6 13.6 27.25 11 28.45 15.75 30.95 13.25 31.65 15.25 35.4 13.85
Q 33.6 9.4 30.3 7.8
M 31.5 10.2
L 31.55 10.2
Q 31.65 10.3 31.7 10.35 33.3 11.35 33.5 12 33.6 12.7 33.8 13.2
L 32.9 13.55 32.35 13.8 31.9 14 31.15 12 29.6 13.55 28.65 14.55 28.55 14.2 27.7 10.1 27 10.35 24.85 12.4 24.75 12.25 23.45 8.95
Q 24 8.7 24.7 8.6 24.85 8.55 25.05 8.55
L 26.4 8.4 27.7 8.45
Q 28.3 8.55 28.9 8.7 29.45 8.95 31.35 10.15
L 31.45 10.2
Q 31.5 10.15 31.5 10.2 Z"/>

<path fill="#F9E8C6" stroke="none" d="
M 28.55 14.2
L 28.65 14.55 29.6 13.55
Q 30.25 12.45 29.4 11.35 29.6 13.25 28.55 14.2
M 27 10.35
Q 26.6 9.3 25.75 8.9 25.95 11.1 24.75 12.25
L 24.85 12.4 27 10.35
M 31.7 10.35
Q 31.65 10.3 31.55 10.2
L 32.35 13.8 32.9 13.55
Q 32.85 11.95 31.7 10.35 Z"/>

<path fill="#FF6699" stroke="none" d="
M 29.4 11.35
Q 28.75 10.7 27.7 10.1
L 28.55 14.2
Q 29.6 13.25 29.4 11.35
M 23.45 8.95
L 24.75 12.25
Q 25.95 11.1 25.75 8.9 25.3 8.7 24.7 8.6 24 8.7 23.45 8.95
M 33.5 12
Q 33.3 11.35 31.7 10.35 32.85 11.95 32.9 13.55
L 33.8 13.2
Q 33.6 12.7 33.5 12 Z"/>

<path fill="#CC0000" stroke="none" d="
M 31.55 10.2
L 31.5 10.2
Q 31.5 10.15 31.45 10.2
L 31.35 10.15
Q 29.45 8.95 28.9 8.7 28.3 8.55 27.7 8.45
L 26.4 8.4 25.05 8.55
Q 24.85 8.55 24.7 8.6 25.3 8.7 25.75 8.9 26.6 9.3 27 10.35
L 27.7 10.1
Q 28.75 10.7 29.4 11.35 30.25 12.45 29.6 13.55
L 31.15 12 31.9 14 32.35 13.8 31.55 10.2 Z"/>
</g>

<g id="Duplicate_Items_Folder_body_copy_0_Layer3_0_FILL">
<path fill="#767953" stroke="none" d="
M 4.95 6.25
Q 1.5 8.25 1.35 12.1 1.2 15.95 4.4 19.55 7.6 23 12 23.05 16.4 23.05 19.5 19.6 22.5 16.1 22.6 12 22.75 7.95 19.8 5.25 16.85 2.5 12.6 3.35 8.35 4.1 4.95 6.25 Z"/>
</g>

<g id="Duplicate_Items_Folder_body_copy_0_Layer2_0_FILL">
<path fill="#BBBD9F" stroke="none" d="
M 6.05 25.75
L 4.4 24.3
Q -0.2 14.2 -7.75 14.7
L -12.25 14.5
Q -15.4 14.35 -15.05 17.95 -14.8 20.35 -12.35 20.5
L -7.85 19.2
Q -2.6 19.3 -0.05 20.75 2.25 22.6 6.05 25.75
M -13.4 15.55
Q -12.7095703125 15.2357421875 -10.35 15.35 -8.0017578125 15.505859375 -7.15 15.75 -6.2435546875 16.049609375 -6.3 16.2 -6.3029296875 16.3505859375 -7.35 16.35 -8.398828125 16.3951171875 -9.95 16.4 -11.5 16.40625 -12.6 16.35 -13.7033203125 16.3439453125 -13.9 16.1 -14.0357421875 15.917578125 -13.4 15.55
M 8.4 27.65
L 8.5 27.4 8.2 27.85 8.4 27.65
M 8.5 27.4
L 8.4 27.65 8.55 27.35 8.5 27.4 Z"/>

<path fill="#E7E6DC" stroke="none" d="
M -10.35 15.35
Q -12.7095703125 15.2357421875 -13.4 15.55 -14.0357421875 15.917578125 -13.9 16.1 -13.7033203125 16.3439453125 -12.6 16.35 -11.5 16.40625 -9.95 16.4 -8.398828125 16.3951171875 -7.35 16.35 -6.3029296875 16.3505859375 -6.3 16.2 -6.2435546875 16.049609375 -7.15 15.75 -8.0017578125 15.505859375 -10.35 15.35 Z"/>

<path fill="#FFFFFF" stroke="none" d="
M 8.05 28.2
L 8.2 27.85 8.5 27.4 6.5 26.2
Q 5.5 33.75 8.05 28.2 Z"/>
</g>

<g id="Duplicate_Items_Folder_eye_copy_7_0_Layer2_0_FILL">
<path fill="url(#Gradient_1)" stroke="none" d="
M 2.95 11.65
Q 2.8 14.9 5.4 17.9 8 20.85 11.6 20.85 15.15 20.85 17.65 17.9 20.1 14.9 20.2 11.45 20.3 8 17.9 5.75 15.5 3.45 12.05 4.15 8.6 4.85 5.85 6.65 3.05 8.4 2.95 11.65 Z"/>
</g>

<g id="Duplicate_Items_Folder_eye_copy_7_0_Layer1_0_FILL">
<path fill="#CC0000" stroke="none" d="
M 11.8 12.65
Q 11.45 11.55 10.8 10.55 10.05 9.55 8.85 9.65 7.7 9.6 6.9 10.5 6.1 11.45 6 12.85 5.95 14.15 6.95 15.05 7.85 15.85 9.25 15.7 10.65 15.55 11.35 14.75 12.15 13.8 11.8 12.65 Z"/>
</g>

<g id="Duplicate_Items_Folder_eye_copy_7_0_Layer0_0_FILL">
<path fill="#FFFFFF" stroke="none" d="
M 7.9 11.75
Q 7.7 12.1 7.75 12.75 7.75 13.2 8.05 13.55 8.3 14 8.75 13.95 9.35 14 9.65 13.6 10.05 13.25 10 12.65 9.95 12.15 9.6 11.75 9.2 11.45 8.65 11.4 8.1 11.5 7.9 11.75 Z"/>
</g>

<path id="top_fin_0_Layer0_0_1_STROKES" stroke="#000000" stroke-width="1" stroke-linejoin="round" stroke-linecap="round" fill="none" d="
M 28.1 1.1
L 29.05 1.15
Q 28.45 8.9 24.85 18.15 31.95 15.4 41.45 6.2
L 41.65 6.35
Q 33.7 18.75 26.15 22.5 23.25 21.5 23.75 22.6
M 13.85 23.95
Q 13.85 23.25 13.65 22.75 4.4 15.2 0.05 3.15 0 3.1 0 3.05
L 0 3
Q 0.001171875 3.0482421875 0.05 3.1
L 0.05 3.15
Q 6.95 14.45 13.45 16.95 9.85 7.75 11.15 1.2
L 11.35 1.75
Q 13.3 10.6 19.55 16.9
L 19.6 17.15
Q 19.7 17.2 20.1 16.55 24.35 11.2 27.7 1.95
L 28.1 1.1"/>

<path id="Duplicate_Items_Folder_body_copy_0_Layer6_0_1_STROKES" stroke="#000000" stroke-width="1" stroke-linejoin="round" stroke-linecap="round" fill="none" d="
M -8.95 17.75
Q -8.95 14.6 -6.25 12.25 -3.3 10.75 -1.6 8.3 -0.55 5.85 2.15 2.45 4.1 -2.55 12.1 -3 17.2 -3.85 21.35 -1.55
L 26.85 -0.4
Q 33.05 3.85 36.15 10.5 37.35 13.95 39.65 13.7 40.1 13.65 40.55 13.45
M 40.55 13.1
Q 40.6 13.05 40.65 13 45.15 4.85 51.85 0.2 45.3 6.9 42.5 14.1 48.6 8.75 51.95 9.15
L 51.65 9.45
Q 46.9 11.75 42.9 17.25 42.8 17.4 42.75 17.5 45.85 20.8 50.4 22.7
L 50.8 22.95 50.75 23.7
Q 46.7 23.95 42.4 19.95 43.05 27.35 47.15 34.3
L 47.1 34.45
Q 41.2 29.05 41.2 20.4 40.9 20.55 40.65 20.8 40.6 20.8 40.55 20.85
M 40.55 20.9
Q 40.0931640625 21.0916015625 39.65 21.3 27.05 27.25 18.7 35.8 12.05 35.45 9.5 32.65
L 0 31.85
Q -4.85 30.45 -5 28.15 -4.55 23.4 -8.95 17.9 -8.95 17.8 -8.95 17.75"/>

<path id="side_fin_0_Layer0_0_1_STROKES" stroke="#000000" stroke-width="0.7" stroke-linejoin="round" stroke-linecap="round" fill="none" d="
M 3.7 0
Q 11.6 0.55 16.75 6.5 10.3 3.1 6.15 2.15 11.55 6.35 13.35 9.25
L 13.05 9.05
Q 9.35 5.85 4.85 4.15 5.25 7.8 7.15 11.95
L 7.25 12.3 6.95 12.45
Q 4.4 9.2 3.45 4.55 0.95 7.2 0.7 12.65
L 0.55 12.6
Q -0.85 6.2 1.2 2.1
M 4.75 4.1
Q 4.75 4 4.8 3.7 4.8 3.9 4.85 4.15
L 4.75 4.1 Z"/>

<path id="Duplicate_Items_Folder_body_copy_0_Layer2_0_1_STROKES" stroke="#000000" stroke-width="0.8" stroke-linejoin="round" stroke-linecap="round" fill="none" d="
M 8.55 27.35
L 12.15 27.6
Q 14.55 28.1 14.25 29.65
L 14.2 29.7 16.6 28.95
M 12.5 30.95
L 14.2 29.7
M 8.5 27.4
L 8.4 27.65 8.55 27.35 8.5 27.4 6.5 26.2
Q 5.5 33.75 8.05 28.2
L 8.2 27.85 8.5 27.4 Z
M 6.05 25.75
L 6.15 25.85
Q 6.325 26.01875 6.5 26.15
L 6.5 26.2 6.15 25.85
M 8.4 27.65
L 8.2 27.85
M 6.05 25.75
Q 2.25 22.6 -0.05 20.75 -2.6 19.3 -7.85 19.2
L -12.35 20.5
Q -14.8 20.35 -15.05 17.95 -15.4 14.35 -12.25 14.5
L -7.75 14.7
Q -0.2 14.2 4.4 24.3
L 6.05 25.75 Z"/>

<path id="Duplicate_Items_Folder_eye_copy_7_0_Layer2_0_1_STROKES" stroke="#000000" stroke-width="1" stroke-linejoin="round" stroke-linecap="round" fill="none" d="
M 2.95 11.65
Q 3.05 8.4 5.85 6.65 8.6 4.85 12.05 4.15 15.5 3.45 17.9 5.75 20.3 8 20.2 11.45 20.1 14.9 17.65 17.9 15.15 20.85 11.6 20.85 8 20.85 5.4 17.9 2.8 14.9 2.95 11.65 Z"/>

<path id="Duplicate_Items_Folder_eye_copy_7_0_Layer1_0_1_STROKES" stroke="#000000" stroke-width="0.8" stroke-linejoin="round" stroke-linecap="round" fill="none" d="
M 10.8 10.55
Q 10.05 9.55 8.85 9.65 7.7 9.6 6.9 10.5 6.1 11.45 6 12.85 5.95 14.15 6.95 15.05 7.85 15.85 9.25 15.7 10.65 15.55 11.35 14.75 12.15 13.8 11.8 12.65 11.45 11.55 10.8 10.55 Z"/>
</defs>

<g transform="matrix( 6.4969482421875, 0, 0, 6.4969482421875, 160.15,206.65) ">
<g transform="matrix( 1, 0, 0, 1, -2.1,-22.4) ">
<g transform="matrix( 1, 0, 0, 1, 0,0) ">
<use xlink:href="#top_fin_0_Layer0_0_FILL"/>

<use xlink:href="#top_fin_0_Layer0_0_1_STROKES"/>
</g>

<g transform="matrix( 1, 0, 0, 1, 0.05,0) ">
<g transform="matrix( 1, 0, 0, 1, 0,0) ">
<use filter="url(#Filter_1)" xlink:href="#top_fin_seethrough_0_Layer0_0_FILL"/>
</g>
</g>
</g>

<g transform="matrix( 1, 0, 0, 1, 0,0) ">
<use xlink:href="#Duplicate_Items_Folder_body_copy_0_Layer6_0_FILL"/>

<use xlink:href="#Duplicate_Items_Folder_body_copy_0_Layer6_0_1_STROKES"/>
</g>

<g transform="matrix( 0.726470947265625, -0.027557373046875, 0, 1.04119873046875, 42.4,0.5) ">
<g transform="matrix( 1, 0, 0, 1, 0,0) ">
<use filter="url(#Filter_1)" xlink:href="#back_fin_seethrough_0_Layer0_0_FILL"/>
</g>
</g>

<g transform="matrix( 1, 0, 0, 1, 21.7,22.8) ">
<g transform="matrix( 1, 0, 0, 1, 0,0) ">
<use xlink:href="#side_fin_0_Layer0_0_FILL"/>

<use xlink:href="#side_fin_0_Layer0_0_1_STROKES"/>
</g>

<g transform="matrix( 1, 0, 0, 1, 0.7,2.15) ">
<g transform="matrix( 1, 0, 0, 1, 0,0) ">
<use filter="url(#Filter_1)" xlink:href="#side_fin_seethrough_0_Layer0_0_FILL"/>
</g>
</g>
</g>

<g transform="matrix( 1, 0, 0, 1, 0,0) ">
<use xlink:href="#Duplicate_Items_Folder_body_copy_0_Layer4_0_FILL"/>
</g>

<g transform="matrix( 1, 0, 0, 1, 0,0) ">
<use xlink:href="#Duplicate_Items_Folder_body_copy_0_Layer3_0_FILL"/>
</g>

<g transform="matrix( 1, 0, 0, 1, 0,0) ">
<use xlink:href="#Duplicate_Items_Folder_body_copy_0_Layer2_0_FILL"/>

<use xlink:href="#Duplicate_Items_Folder_body_copy_0_Layer2_0_1_STROKES"/>
</g>

<g transform="matrix( 1, 0, 0, 1, 0.25,-0.05) ">
<g transform="matrix( 1, 0, 0, 1, 0,0) ">
<use xlink:href="#Duplicate_Items_Folder_eye_copy_7_0_Layer2_0_FILL"/>

<use xlink:href="#Duplicate_Items_Folder_eye_copy_7_0_Layer2_0_1_STROKES"/>
</g>

<g transform="matrix( 1, 0, 0, 1, 0,0) ">
<use xlink:href="#Duplicate_Items_Folder_eye_copy_7_0_Layer1_0_FILL"/>

<use xlink:href="#Duplicate_Items_Folder_eye_copy_7_0_Layer1_0_1_STROKES"/>
</g>

<g transform="matrix( 1, 0, 0, 1, 0,0) ">
<use xlink:href="#Duplicate_Items_Folder_eye_copy_7_0_Layer0_0_FILL"/>
</g>
</g>
</g>

<g transform="matrix( 8.026382446289062, 0, 0, 8.026382446289062, 250.9,467.1) "/>
</svg>
