
<svg xmlns="http://www.w3.org/2000/svg" version="1.1" xmlns:xlink="http://www.w3.org/1999/xlink" preserveAspectRatio="none" x="0px" y="0px" width="560px" height="544px" viewBox="0 0 560 544">
<defs>
<filter id="Filter_1" x="-20%" y="-20%" width="140%" height="140%" color-interpolation-filters="sRGB">
<feColorMatrix in="SourceGraphic" type="matrix" values="0.84 0 0 0 0 0 0.84 0 0 0 0 0 0.84 0 0 0 0 0 1 0" result="result1"/>
</filter>

<filter id="Filter_2" x="-20%" y="-20%" width="140%" height="140%" color-interpolation-filters="sRGB">
<feColorMatrix in="SourceGraphic" type="matrix" values="0.74 0 0 0 0 0 0.74 0 0 0 0 0 0.74 0 0 0 0 0 1 0" result="result1"/>
</filter>

<filter id="Filter_3" x="-20%" y="-20%" width="140%" height="140%" color-interpolation-filters="sRGB">
<feColorMatrix in="SourceGraphic" type="matrix" values="0.72 0 0 0 0 0 0.72 0 0 0 0 0 0.72 0 0 0 0 0 1 0" result="result1"/>
</filter>

<filter id="Filter_4" x="-20%" y="-20%" width="140%" height="140%" color-interpolation-filters="sRGB">
<feColorMatrix in="SourceGraphic" type="matrix" values="0.85 0 0 0 0 0 0.85 0 0 0 0 0 0.85 0 0 0 0 0 1 0" result="result1"/>
</filter>

<filter id="Filter_5" x="-20%" y="-20%" width="140%" height="140%" color-interpolation-filters="sRGB">
<feColorMatrix in="SourceGraphic" type="matrix" values="0.96 0 0 0 0 0 0.96 0 0 0 0 0 0.96 0 0 0 0 0 1 0" result="result1"/>
</filter>

<filter id="Filter_6" x="-20%" y="-20%" width="140%" height="140%" color-interpolation-filters="sRGB">
<feColorMatrix in="SourceGraphic" type="matrix" values="0.9 0 0 0 0 0 0.9 0 0 0 0 0 0.9 0 0 0 0 0 1 0" result="result1"/>
</filter>

<g id="finished_beanstalk_0_Layer16_0_FILL">
<path fill="#A81AE6" stroke="none" d="
M -18.25 -94.6
Q -15.05 -97.4 -10.75 -97
L -10.3 -97.15 -10.55 -99.3
Q -15.45 -99.35 -19.15 -96.5
L -18.8 -94.4 -18.25 -94.6
M 13.45 -94.45
L 14 -94.2 14.4 -96.35
Q 10.65 -99.2 5.75 -99.15
L 5.5 -97 5.95 -96.85
Q 10.3 -97.25 13.45 -94.45 Z"/>

<path fill="#666666" stroke="none" d="
M -10.6 -96.95
Q -10.7 -96.95 -10.75 -97 -15.05 -97.4 -18.25 -94.6 -18.35 -94.45 -18.4 -94.2
L -10.75 -76.3 -9.3 -84.4 -9 -84.3 -10.6 -96.95
M 13.65 -94.05
Q 13.55 -94.25 13.45 -94.45 10.3 -97.25 5.95 -96.85 5.9 -96.8 5.8 -96.8
L 4.3 -84.15 4.5 -84.25 5.95 -76.15 13.65 -94.05 Z"/>

<path fill="#FD1313" stroke="none" d="
M -10.55 -99.3
Q -15.2 -100.4 -17 -105.5 -16.1 -101.05 -19.15 -96.5 -15.45 -99.35 -10.55 -99.3
M 12.2 -105.35
Q 10.4 -100.25 5.75 -99.15 10.65 -99.2 14.4 -96.35 11.3 -100.9 12.2 -105.35 Z"/>
</g>

<g id="Duplicate_Items_Folder_vine_1_0_Layer2_0_FILL">
<path fill="#B7B7B7" stroke="none" d="
M 24.8 -27.05
L 25.45 -29.35
Q 24.6123046875 -29.725 23.8 -29.85 16.25 -31.05 12.15 -30.15 5.85 -28.8 5.3 -22.65 4.75 -12.3 4.25 -7.65 3.3 0.55 1.6 1 1.15 1.1 1 1.1 0.9 1.1 0.85 0.75 0.8 0.4 0.7 0.15
L -1 -5.65
Q -2.45 -10.5 -6 -10.15 -10.8 -9.7 -12.55 -5.9 -14.55 -1.75 -10.7 0.65 -6.85 3.05 -4.15 3.85
L -2 4.05
Q -2 5.4 -2.4 7.15 -3.25 10.55 -5.25 12.35 -8.55 15.25 -10.55 16.5 -13.85 18.5 -16.5 18.4 -19.85 18.3 -23.35 17 -26.9 15.65 -26.65 13.05 -26.4 10.45 -25.3 10.55 -24.15 10.65 -23.55 10.1
L -23.2 9.5 -26.85 9.9
Q -28.5 10.85 -28.7 13.7 -28.95 16.2 -27.4 18.05 -24.5 20.55 -21.5 20.7 -20.65 20.95 -19.5 21.05 -17.1 21.3 -15.2 20.75 -13.3 20.2 -11.35 19.45 -9.5 18.7 -7.35 17.85 -5.3 17 -2.25 12.2 0.8 7.4 0.4 5.9 0 4.35 2.95 2.4 5.95 0.35 5.9 -1.7 5.85 -3.8 6.5 -12.55 7.15 -21.25 7.45 -22.7 7.75 -24.2 9.85 -26.3 11.9 -28.4 14.6 -28 19.35 -28.9 21.9 -28.2 23.49453125 -27.74453125 24.8 -27.05
M -4.1 -6.85
Q -2.2 -5.3 -1.85 -3.35 -1.55 -1.4 -1.15 1.55
L -5.95 0.65
Q -9.9 -0.85 -10.45 -2.15 -11.1 -3.7 -10.5 -5.2 -9.85 -6.7 -7.95 -7.55 -6 -8.4 -4.1 -6.85 Z"/>
</g>

<g id="Duplicate_Items_Folder_vine_1_0_Layer1_0_FILL">
<path fill="#333333" stroke="none" d="
M 24.55 -26.35
L 25.15 -28.45
Q 25.1390625 -28.4439453125 25.1 -28.45 17.6 -29.65 13.55 -28.75 7.3 -27.4 6.75 -21.25 6.2 -10.9 5.7 -6.25 4.8 1.95 3.1 2.4 2.65 2.5 2.5 2.5 2.4 2.5 2.35 2.15 2.3 1.8 2.2 1.55
L 0.5 -4.25
Q -0.9 -9.1 -4.45 -8.75 -9.2 -8.3 -10.95 -4.5 -12.9 -0.35 -9.1 2.05 -5.3 4.45 -2.6 5.25
L -0.45 5.45
Q -0.45 6.8 -0.85 8.55 -1.7 11.95 -3.7 13.75 -6.95 16.65 -8.95 17.9 -12.2 19.9 -14.85 19.8 -18.15 19.7 -21.65 18.4 -25.15 17.05 -24.9 14.45 -24.65 11.85 -23.55 11.95 -22.45 12.05 -21.85 11.5
L -21.5 10.9 -25.1 11.3
Q -26.75 12.25 -26.95 15.1 -27.2 17.6 -25.65 19.45 -22.75 21.95 -19.8 22.1 -18.95 22.35 -17.8 22.45 -15.45 22.7 -13.55 22.15 -11.65 21.6 -9.75 20.85 -7.9 20.1 -5.8 19.25 -3.75 18.4 -0.7 13.6 2.3 8.8 1.9 7.3 1.5 5.75 4.45 3.8 7.4 1.75 7.35 -0.3 7.3 -2.4 7.95 -11.15 8.6 -19.85 8.9 -21.3 9.2 -22.8 11.25 -24.9 13.3 -27 16 -26.6 20.7 -27.5 23.2 -26.8 23.9232421875 -26.593359375 24.55 -26.35
M -2.55 -5.45
Q -0.65 -3.9 -0.35 -1.95 -0.05 0 0.35 2.95
L -4.4 2.05
Q -8.3 0.55 -8.85 -0.75 -9.5 -2.3 -8.9 -3.8 -8.25 -5.3 -6.35 -6.15 -4.45 -7 -2.55 -5.45 Z"/>
</g>

<g id="Duplicate_Items_Folder_vine_1_0_Layer0_0_FILL">
<path fill="#666666" stroke="none" d="
M 24.6 -26.5
L 25.25 -28.75
Q 24.6509765625 -28.9564453125 24.05 -29.05 16.55 -30.25 12.5 -29.35 6.25 -28 5.7 -21.85 5.15 -11.5 4.65 -6.85 3.75 1.35 2.05 1.8 1.6 1.9 1.45 1.9 1.35 1.9 1.3 1.55 1.25 1.2 1.15 0.95
L -0.55 -4.85
Q -1.95 -9.7 -5.5 -9.35 -10.25 -8.9 -12 -5.1 -13.95 -0.95 -10.15 1.45 -6.35 3.85 -3.65 4.65
L -1.5 4.85
Q -1.5 6.2 -1.9 7.95 -2.75 11.35 -4.75 13.15 -8 16.05 -10 17.3 -13.25 19.3 -15.9 19.2 -19.2 19.1 -22.7 17.8 -26.2 16.45 -25.95 13.85 -25.7 11.25 -24.6 11.35 -23.5 11.45 -22.9 10.9
L -22.55 10.3 -26.15 10.7
Q -27.8 11.65 -28 14.5 -28.25 17 -26.7 18.85 -23.8 21.35 -20.85 21.5 -20 21.75 -18.85 21.85 -16.5 22.1 -14.6 21.55 -12.7 21 -10.8 20.25 -8.95 19.5 -6.85 18.65 -4.8 17.8 -1.75 13 1.25 8.2 0.85 6.7 0.45 5.15 3.4 3.2 6.35 1.15 6.3 -0.9 6.25 -3 6.9 -11.75 7.55 -20.45 7.85 -21.9 8.15 -23.4 10.2 -25.5 12.25 -27.6 14.95 -27.2 19.65 -28.1 22.15 -27.4 23.49140625 -27.016796875 24.6 -26.5
M -3.6 -6.05
Q -1.7 -4.5 -1.4 -2.55 -1.1 -0.6 -0.7 2.35
L -5.45 1.45
Q -9.35 -0.05 -9.9 -1.35 -10.55 -2.9 -9.95 -4.4 -9.3 -5.9 -7.4 -6.75 -5.5 -7.6 -3.6 -6.05 Z"/>
</g>

<g id="Duplicate_Items_Folder_vine_2_0_Layer2_0_FILL">
<path fill="#B7B7B7" stroke="none" d="
M -37.8 -57.75
Q -38 -60.55 -38.4 -62.1 -38.8 -63.7 -40.4 -64.75 -41.3 -65.3 -41.9 -65.75 -43.25 -66.7 -43.4 -66.8 -44.6 -68.1 -47.25 -67.7 -49.6 -67.4 -50.55 -66.35 -51.55 -65.1 -52.1 -64.5 -52.25 -64.35 -52.3 -64.25 -52.95 -63.75 -53.25 -63.85 -53.55 -64 -53.65 -64.4 -54 -65.45 -56.35 -65.65 -57.55 -65.7 -58.75 -65.55
L -61.25 -62.9 -63.3 -59.35 -65.95 -57.3 -68.5 -58.05 -67.85 -60.4 -68.2 -61.45
Q -68.65 -62 -69.35 -59.55 -69.55 -58.75 -69.5 -58.05 -69.5 -56.45 -68.45 -55.6 -67.4 -54.8 -65.85 -54.9 -65.35 -54.95 -64.8 -55.05 -63.35 -55.45 -62.15 -57.75 -61.4 -59.3 -60.8 -60.3 -60.15 -61.35 -59.6 -61.9 -58 -63.6 -56.35 -63.1
L -55.1 -62.35
Q -55.5 -59.95 -56.25 -56.75 -56.85 -54.3 -54.25 -53.9 -51.65 -53.55 -49.5 -55.65 -47.8 -57.3 -49.7 -60.15 -51.65 -63.1 -51.1 -63.6 -49.95 -64.7 -47.65 -64.95 -45.15 -65.15 -43.05 -64.05 -40 -62.55 -42.55 -51.35 -44.35 -46.15 -45.65 -42 -47.1 -37.5 -47.65 -34.15 -48.30625 -23.323828125 -45.45 -22.45 -45.419921875 -39.0900390625 -42.3 -45.75 -39.1916015625 -52.4064453125 -38.4 -53.65 -37.65 -55 -37.8 -57.75
M -54.7 -58.35
Q -54.65 -59.9 -52.3 -61.6 -49.95 -57.25 -51.55 -55.85 -52.65 -54.95 -53.75 -56 -54.8 -57.1 -54.7 -58.35
M 4.05 -13.1
Q 3.85 -14.95 1.35 -18.7 0.85 -19.45 0.4 -20.1 0.35 -20.15 0.3 -20.2 -1.3 -22.4 -2.8 -24.05 -4.3 -25.75 -11.6 -26.95 -18.85 -28.15 -19.6 -28 -20.4 -27.85 -20.9 -27.85 -38.2328125 -28.3796875 -41.6 -28.4
L -38.8 -24.45
Q -36.53203125 -24.4634765625 -33.9 -24.5 -19.55 -24.75 -17.15 -24.45 -14.8 -24.15 -9.65 -23.3 -4.55 -22.45 -1.6 -18.7 0.6 -15.9 1.4 -11.75 3.5 -0.9 -8.3 6.25 -12.15 8.6 -18.65 7.95
L -24.4 7.3 -23.6 10.55 -21.55 10.75
Q -19.15 11 -17.15 11.35 -15.4 11.65 -11.85 10.6 -7.7 9.3 -6.15 9.2 -3.8 9.05 -0.9 5.4 0.65 3.45 2.7 0.35 4.25 -1.45 11.85 -6.65 17.05 -10.2 26.9 -9.6 29.25 -9.45 32.25 -7.5 36.05 -5.05 36.6 -4.35 37.15 -3.7 37.9 -2.25 38.65 -0.85 39.6 2.1 40.55 5 40.7 6.4 40.85 7.8 40.6 7.6 40.3 7.35 35.5 6.55 30.7 5.75 29.05 6.65 27.35 7.55 26.85 8.35 26.3 9.1 25.75 11.65 25.15 14.2 28.2 15.55 30.9 16.7 34.15 16.7 36.5 16.7 38.5 14.3 39.5 13.1 40.05 11.9
L 40.1 11.85
Q 41.4 10.8 41.75 10.85 42.05 10.9 42.4 11.4 43.55 12.9 44.75 18.2 46.25 25.6 46.5 26.4 46.85 27.4 46 31.05 45.75 32.15 45.6 33 44.95 35.8 44.9 36.05
L 43.55 44.65 45.95 51.35 49.45 54.55 52.65 59.4
Q 55 62.5 59.1 62.9 60.55 63.7 63.05 63.4 64.2 63.25 66.05 63 66.1 63 66.15 63 66.4 62.95 66.65 62.9 68.55 62.9 73.9 60.5
L 78.45 57.25
Q 81.65 56.5 82.75 57.8
L 82.45 62.9
Q 84.6 58.6 84.1 56.45 83.8 55.1 81.55 55.1 79.6 54.45 77.3 55.45 76.15 55.7 74.35 56.7 73.3 57.3 68.8 60.2 67.55 61.05 66.15 61.4 66 61.45 65.9 61.5 64.35 61.8 62.7 61.55 59.25 60.65 57.75 60.5 56.85 60.45 56 59.95 55.15 59.45 54.35 58.5
L 53.2 56.7
Q 52.75 55.4 52.4 54.9 53.1 55 54.7 55.15 58.2 55.4 62.05 50 63 48.7 60.95 47.55 59.1 46.5 56.95 46.5 55.4 46.5 53.65 49.45
L 52.15 52.4 48.65 50.55
Q 47.5 50 46.85 46.8 46.2 43.85 46.2 39.8 46.2 39.6 46.3 39.1 46.65 37.6 47.9 33.5 49.35 28.85 48.35 20.75 47.45 13.25 44.45 11.25 43.65 10.75 43.25 10.45 42.9 10.15 42.8 10 42.3 9.1 42.75 6.8 42.8 6.6 42.85 6.45 42.85 6.4 42.85 6.35
L 42.85 6.3
Q 42.85 6.15 42.9 6.05 43.45 2.1 41.65 -1.25 40.9 -2.7 39.25 -5.05
L 39.2 -5.1
Q 38.4 -6.3 37.35 -7.7 35.35 -11.05 27.6 -12.15 20.8 -13.2 15.9 -12 12.4 -11.15 8.05 -8.25
L 4.35 -5.55 4.3 -8.3
Q 4.25 -11.4 4.05 -13.1
M 56.35 49.25
Q 57.3 48.35 58.6 48.55 59.8 48.75 59.45 50.1 58.95 52.2 54.6 52.9 55.15 50.1 56.35 49.25
M 31.95 8.25
Q 34.35 7.8 38.25 10 33.2 15.8 30.35 14 27.5 12.15 28.6 10.3 29.85 8.45 31.95 8.25 Z"/>
</g>

<g id="Duplicate_Items_Folder_vine_2_0_Layer1_0_FILL">
<path fill="#333333" stroke="none" d="
M -36.35 -60.15
Q -36.75 -61.7 -38.35 -62.75 -39.25 -63.35 -39.9 -63.75 -41.2 -64.7 -41.35 -64.8 -42.55 -66.1 -45.2 -65.75 -47.55 -65.4 -48.55 -64.3 -49.5 -63.1 -50.05 -62.55 -50.2 -62.35 -50.3 -62.25 -50.9 -61.7 -51.2 -61.85 -51.5 -61.95 -51.65 -62.45 -51.95 -63.45 -54.3 -63.65 -55.5 -63.7 -56.7 -63.6
L -59.25 -60.9 -61.25 -57.4 -63.9 -55.3 -66.45 -56.1 -65.8 -58.4 -66.15 -59.5
Q -66.6 -60.05 -67.3 -57.55 -67.5 -56.7 -67.5 -56 -67.5 -54.5 -66.4 -53.6 -65.35 -52.8 -63.8 -52.95 -63.3 -52.9 -62.75 -53.1 -61.3 -53.45 -60.15 -55.7 -59.35 -57.35 -58.75 -58.35 -58.1 -59.35 -57.55 -59.95 -56 -61.6 -54.3 -61.15
L -53.05 -60.4
Q -53.5 -57.95 -54.2 -54.7 -54.8 -52.3 -52.2 -51.95 -49.6 -51.55 -47.45 -53.7 -45.75 -55.25 -47.7 -58.15 -49.6 -61.05 -49.05 -61.6 -47.9 -62.75 -45.6 -62.9 -43.1 -63.15 -41 -62.05 -37.95 -60.5 -40.5 -49.35 -42.3 -44.15 -43.6 -40.05 -44.55 -37.2 -45.1 -34.75 -45.512890625 -25.4001953125 -40.05 -27.2 -41.35 -37.2 -41.1 -37.95 -37.15 -50.4 -36.35 -51.7 -35.6 -53 -35.8 -55.8 -35.95 -58.55 -36.35 -60.15
M -51.7 -54.05
Q -52.75 -55.1 -52.65 -56.4 -52.6 -57.95 -50.25 -59.65 -47.9 -55.3 -49.6 -53.9 -50.65 -53 -51.7 -54.05
M 3 -10.45
Q 2.8 -12.3 0.3 -16.05 -0.2 -16.8 -0.65 -17.45 -0.7 -17.5 -0.75 -17.55 -2.35 -19.75 -3.85 -21.4 -5.35 -23.1 -12.65 -24.3 -19.9 -25.5 -20.65 -25.35 -21.45 -25.2 -21.95 -25.2 -34.423046875 -25.5810546875 -39.7 -25.7
L -46.35 -24.75
Q -45.5447265625 -19.606640625 -33.1 -20.85 -20.6013671875 -22.0939453125 -18.2 -21.8 -15.85 -21.5 -10.7 -20.65 -5.6 -19.8 -2.65 -16.05 -0.45 -13.25 0.35 -9.1 2.45 1.75 -9.35 8.9 -13.2 11.25 -19.7 10.6
L -25.45 9.95 -24.65 13.2 -22.6 13.4
Q -20.2 13.65 -18.2 14 -16.45 14.3 -12.9 13.25 -8.75 11.95 -7.2 11.85 -4.85 11.7 -1.95 8.05 -0.4 6.1 1.65 3 3.2 1.2 10.8 -4 16 -7.55 25.85 -6.95 28.2 -6.8 31.2 -4.85 35 -2.4 35.55 -1.7 36.1 -1.05 36.85 0.4 37.6 1.8 38.55 4.75 39.5 7.65 39.65 9.05 39.8 10.45 39.55 10.25 39.25 10 34.45 9.2 29.65 8.4 28 9.3 26.3 10.2 25.8 11 25.25 11.75 24.7 14.3 24.1 16.85 27.15 18.2 29.85 19.35 33.1 19.35 35.45 19.35 37.45 16.95 38.45 15.75 39 14.55
L 39.05 14.5
Q 40.35 13.45 40.7 13.5 41 13.55 41.35 14.05 42.5 15.55 43.7 20.85 45.2 28.25 45.45 29.05 45.8 30.05 44.95 33.7 44.7 34.8 44.55 35.65 43.9 38.45 43.85 38.7
L 42.5 47.3 44.9 54 48.4 57.2 51.6 62.05
Q 53.95 65.15 58.05 65.55 59.5 66.35 62 66.05 63.15 65.9 65 65.65 65.05 65.65 65.1 65.65 65.35 65.6 65.6 65.55 67.5 65.55 72.85 63.15
L 77.4 59.9
Q 80.6 59.15 81.7 60.45
L 81.4 65.55
Q 83.55 61.25 83.05 59.1 82.75 57.75 80.5 57.75 78.55 57.1 76.25 58.1 75.1 58.35 73.3 59.35 72.25 59.95 67.75 62.85 66.5 63.7 65.1 64.05 64.95 64.1 64.85 64.15 63.3 64.45 61.65 64.2 58.2 63.3 56.7 63.15 55.8 63.1 54.95 62.6 54.1 62.1 53.3 61.15
L 52.15 59.35
Q 51.7 58.05 51.35 57.55 52.05 57.65 53.65 57.8 57.15 58.05 61 52.65 61.95 51.35 59.9 50.2 58.05 49.15 55.9 49.15 54.35 49.15 52.6 52.1
L 51.1 55.05 47.6 53.2
Q 46.45 52.65 45.8 49.45 45.15 46.5 45.15 42.45 45.15 42.25 45.25 41.75 45.6 40.25 46.85 36.15 48.3 31.5 47.3 23.4 46.4 15.9 43.4 13.9 42.6 13.4 42.2 13.1 41.85 12.8 41.75 12.65 41.25 11.75 41.7 9.45 41.75 9.25 41.8 9.1 41.8 9.05 41.8 9
L 41.8 8.95
Q 41.8 8.8 41.85 8.7 42.4 4.75 40.6 1.4 39.85 -0.05 38.2 -2.4
L 38.15 -2.45
Q 37.35 -3.65 36.3 -5.05 34.3 -8.4 26.55 -9.5 19.75 -10.55 14.85 -9.35 11.35 -8.5 7 -5.6
L 3.3 -2.9 3.25 -5.65
Q 3.2 -8.75 3 -10.45
M 29.3 16.65
Q 26.45 14.8 27.55 12.95 28.8 11.1 30.9 10.9 33.3 10.45 37.2 12.65 32.15 18.45 29.3 16.65
M 53.55 55.55
Q 54.1 52.75 55.3 51.9 56.25 51 57.55 51.2 58.75 51.4 58.4 52.75 57.9 54.85 53.55 55.55 Z"/>
</g>

<g id="Duplicate_Items_Folder_vine_2_0_Layer0_0_FILL">
<path fill="#666666" stroke="none" d="
M 3.25 -7.25
Q 3.2 -10.35 3 -12.05 2.8 -13.9 0.3 -17.65 -0.2 -18.4 -0.65 -19.05 -0.7 -19.1 -0.75 -19.15 -2.35 -21.35 -3.85 -23 -5.35 -24.7 -12.65 -25.9 -19.9 -27.1 -20.65 -26.95 -21.45 -26.8 -21.95 -26.8 -35.92890625 -27.2271484375 -40.85 -27.35
L -40.9 -27.3
Q -43.0177734375 -25.35625 -42.9 -33.9 -42.9 -37.6 -42.6 -38.6 -38.65 -51 -37.8 -52.3 -37.1 -53.65 -37.3 -56.4 -37.45 -59.2 -37.8 -60.75 -38.25 -62.35 -39.85 -63.35 -40.7 -63.95 -41.35 -64.4 -42.7 -65.3 -42.8 -65.4 -44.05 -66.75 -46.65 -66.35 -49 -66.05 -50 -64.9 -51 -63.7 -51.5 -63.15 -51.65 -63 -51.75 -62.85 -52.4 -62.35 -52.7 -62.45 -53 -62.6 -53.1 -63.05 -53.45 -64.05 -55.75 -64.3 -57 -64.3 -58.15 -64.2
L -60.7 -61.5 -62.7 -58 -65.4 -55.9 -67.95 -56.7 -67.25 -59 -67.65 -60.1
Q -68.1 -60.65 -68.8 -58.2 -69 -57.35 -68.95 -56.6 -68.95 -55.1 -67.85 -54.25 -66.8 -53.45 -65.25 -53.55 -64.8 -53.55 -64.25 -53.7 -62.8 -54.05 -61.65 -56.35 -60.85 -57.95 -60.2 -58.95 -59.6 -60 -59.05 -60.55 -57.45 -62.2 -55.8 -61.75
L -54.5 -61
Q -54.95 -58.55 -55.7 -55.35 -56.3 -52.95 -53.65 -52.55 -51.05 -52.2 -48.9 -54.3 -47.25 -55.9 -49.15 -58.75 -51.1 -61.7 -50.5 -62.2 -49.35 -63.35 -47.05 -63.55 -44.6 -63.8 -42.45 -62.7 -39.45 -61.15 -42 -50 -43.75390625 -44.74375 -45.1 -33.3 -46.4388671875 -21.81875 -44.55 -23.3 -43.49296875 -25.744921875 -43 -22.6 -42.1462890625 -26.2974609375 -40.9 -24.05 -37.996484375 -22.7869140625 -30.15 -23.2 -20.9494140625 -23.690625 -18.4 -23.4 -15.8501953125 -23.1033203125 -10.7 -22.25 -5.6 -21.4 -2.65 -17.65 -0.45 -14.85 0.35 -10.7 2.45 0.15 -9.35 7.3 -13.2 9.65 -19.7 9
L -25.45 8.35 -24.65 11.6 -22.6 11.8
Q -20.2 12.05 -18.2 12.4 -16.45 12.7 -12.9 11.65 -8.75 10.35 -7.2 10.25 -4.85 10.1 -1.95 6.45 -0.4 4.5 1.65 1.4 3.2 -0.4 10.8 -5.6 16 -9.15 25.85 -8.55 28.2 -8.4 31.2 -6.45 35 -4 35.55 -3.3 36.1 -2.65 36.85 -1.2 37.6 0.2 38.55 3.15 39.5 6.05 39.65 7.45 39.8 8.85 39.55 8.65 39.25 8.4 34.45 7.6 29.65 6.8 28 7.7 26.3 8.6 25.8 9.4 25.25 10.15 24.7 12.7 24.1 15.25 27.15 16.6 29.85 17.75 33.1 17.75 35.45 17.75 37.45 15.35 38.45 14.15 39 12.95
L 39.05 12.9
Q 40.35 11.85 40.7 11.9 41 11.95 41.35 12.45 42.5 13.95 43.7 19.25 45.2 26.65 45.45 27.45 45.8 28.45 44.95 32.1 44.7 33.2 44.55 34.05 43.9 36.85 43.85 37.1
L 42.5 45.7 44.9 52.4 48.4 55.6 51.6 60.45
Q 53.95 63.55 58.05 63.95 59.5 64.75 62 64.45 63.15 64.3 65 64.05 65.05 64.05 65.1 64.05 65.35 64 65.6 63.95 67.5 63.95 72.85 61.55
L 77.4 58.3
Q 80.6 57.55 81.7 58.85
L 81.4 63.95
Q 83.55 59.65 83.05 57.5 82.75 56.15 80.5 56.15 78.55 55.5 76.25 56.5 75.1 56.75 73.3 57.75 72.25 58.35 67.75 61.25 66.5 62.1 65.1 62.45 64.95 62.5 64.85 62.55 63.3 62.85 61.65 62.6 58.2 61.7 56.7 61.55 55.8 61.5 54.95 61 54.1 60.5 53.3 59.55
L 52.15 57.75
Q 51.7 56.45 51.35 55.95 52.05 56.05 53.65 56.2 57.15 56.45 61 51.05 61.95 49.75 59.9 48.6 58.05 47.55 55.9 47.55 54.35 47.55 52.6 50.5
L 51.1 53.45 47.6 51.6
Q 46.45 51.05 45.8 47.85 45.15 44.9 45.15 40.85 45.15 40.65 45.25 40.15 45.6 38.65 46.85 34.55 48.3 29.9 47.3 21.8 46.4 14.3 43.4 12.3 42.6 11.8 42.2 11.5 41.85 11.2 41.75 11.05 41.25 10.15 41.7 7.85 41.75 7.65 41.8 7.5 41.8 7.45 41.8 7.4
L 41.8 7.35
Q 41.8 7.2 41.85 7.1 42.4 3.15 40.6 -0.2 39.85 -1.65 38.2 -4
L 38.15 -4.05
Q 37.35 -5.25 36.3 -6.65 34.3 -10 26.55 -11.1 19.75 -12.15 14.85 -10.95 11.35 -10.1 7 -7.2
L 3.3 -4.5 3.25 -7.25
M 30.9 9.3
Q 33.3 8.85 37.2 11.05 32.15 16.85 29.3 15.05 26.45 13.2 27.55 11.35 28.8 9.5 30.9 9.3
M 57.55 49.6
Q 58.75 49.8 58.4 51.15 57.9 53.25 53.55 53.95 54.1 51.15 55.3 50.3 56.25 49.4 57.55 49.6
M -54.1 -57
Q -54.05 -58.55 -51.75 -60.25 -49.4 -55.9 -51.05 -54.5 -52.1 -53.6 -53.2 -54.65 -54.25 -55.75 -54.1 -57 Z"/>
</g>

<g id="castle_0_Layer1_0_FILL">
<path fill="#000000" stroke="none" d="
M 19.85 63.05
Q 25.1 65.05 32.5 65.05 40 65.05 45.2 63.05 50.5 61.05 50.5 58.25 50.5 55.4 45.2 53.4 40 51.35 32.5 51.35 25.1 51.35 19.85 53.4 14.6 55.4 14.6 58.2 14.6 61.05 19.85 63.05 Z"/>
</g>

<g id="castle_0_Layer0_0_FILL">
<path fill="#B7B7B7" stroke="none" d="
M 42.8 58.8
L 43.3 58.25 42.9 58.2 42.8 58.8
M 23.25 58.1
L 23.2 58 23.15 58 23.25 58.1 Z"/>

<path fill="#CC0000" stroke="none" d="
M 17.75 32.45
L 19.55 31.6 18.85 26.7
Q 18.7 26.7 18.65 26.6 12.05 25.55 6.8 28.8 6.6 28.95 6.4 29.25
L 11.55 41.7 11.6 41.8 16.45 53.5 23.15 58 23.2 58 19.05 38.45 17.75 32.45
M 60.05 29.5
Q 59.85 29.2 59.65 29.05 54.4 25.8 47.8 26.85 47.75 26.95 47.6 26.95
L 46.95 31.05 48.6 32 47.2 38.8 43.2 56.15 42.9 58.2 43.3 58.25 50 53.75 60.05 29.5 Z"/>

<path fill="#99FF00" stroke="none" d="
M 18.65 26.6
L 19.35 26.5 19.15 23.55
Q 11.65 22.9 5.45 26.15
L 5.95 29 6.8 28.8
Q 12.05 25.55 18.65 26.6
M 41 29.15
L 40.65 29.05 35 27.95 34.7 30.95 31.95 31.2 32.15 28.4 25.85 28.85 25.85 32 25.75 32 23.6 32.6 22.55 30.2 19.55 31.6 17.75 32.45 19.05 38.45
Q 19.7828125 38.1150390625 20.5 37.8 33.5953125 32.436328125 45.9 38.15 46.553515625 38.4671875 47.2 38.8
L 48.6 32 46.95 31.05 44.55 29.6 43.35 32 40.25 31.25 41 29.15
M 59.65 29.05
L 60.5 29.25 61 26.4
Q 54.8 23.15 47.3 23.8
L 47.1 26.75 47.8 26.85
Q 54.4 25.8 59.65 29.05
M 42.45 15.55
L 43.8 15.55 43.7 12.25
Q 33.3 9.8 21.7 12.1
L 22.15 15.55 23.4 15.55
Q 28.4 14.25 33.15 14.25 37.9 14.2 42.45 15.55 Z"/>

<path fill="#666666" stroke="none" d="
M 19.15 23.55
Q 12.1 21.5 9.9 14.75 10.75 20.55 5.45 26.15 11.65 22.9 19.15 23.55
M 33.65 0
Q 32.05 8.35 21.7 12.1 33.3 9.8 43.7 12.25 33.9 6.9 33.65 0
M 56.55 15
Q 54.35 21.75 47.3 23.8 54.8 23.15 61 26.4 55.7 20.8 56.55 15 Z"/>

<path fill="#FD1313" stroke="none" d="
M 47.2 38.8
Q 46.553515625 38.4671875 45.9 38.15 33.5953125 32.436328125 20.5 37.8 19.7828125 38.1150390625 19.05 38.45
L 23.2 58 23.25 58.1 23.75 60.4 24.05 60.3 42.15 60.75 43.2 56.15 47.2 38.8
M 44.05 44.15
L 41.2 44.15 41.2 40.4
Q 42.95 38.5 44.05 40.4
L 44.05 44.15
M 22.4 44.6
L 22.4 40.85
Q 24.15 38.95 25.25 40.85
L 25.25 44.6 22.4 44.6
M 39.35 45
L 39.25 49 38.15 57.45 29 57.35 27.8 44.25
Q 34 34.85 39.35 45 Z"/>

<path fill="#A81AE6" stroke="none" d="
M 39.25 49
L 39.35 45
Q 34 34.85 27.8 44.25
L 29 57.35 38.15 57.45 39.25 49 33.65 45.9 39.25 49
M 33.35 40.25
L 33.35 45.75 33.35 54.75 33.35 45.75 29.3 48.3 33.35 45.75 33.35 40.25 Z"/>

<path fill="#000000" stroke="none" d="
M 22.4 40.85
L 22.4 44.6 25.25 44.6 25.25 40.85
Q 24.15 38.95 22.4 40.85
M 41.2 44.15
L 44.05 44.15 44.05 40.4
Q 42.95 38.5 41.2 40.4
L 41.2 44.15
M 31.15 18.3
L 31.15 22.2 34.7 22.2 34.7 18.3
Q 34 16.7 33.15 16.7 32.25 16.7 31.15 18.3 Z"/>

<path fill="#DB0202" stroke="none" d="
M 43.1 15.95
Q 42.75 15.75 42.45 15.55 37.9 14.2 33.15 14.25 28.4 14.25 23.4 15.55 23.3 15.6 23.2 15.65
L 24.65 24.95 29.55 24.8 24.65 24.95 25.75 32 25.85 32 25.85 28.85 32.15 28.4 31.95 31.2 34.7 30.95 35 27.95 40.65 29.05 43.1 15.95
M 27.75 23.45
L 27.6 20.9 27.75 23.45
M 31.15 22.2
L 31.15 18.3
Q 32.25 16.7 33.15 16.7 34 16.7 34.7 18.3
L 34.7 22.2 31.15 22.2
M 38.5 18.65
L 38.35 21.05 38.5 18.65
M 41.95 18.8
L 38.8 18.5 41.95 18.8 Z"/>
</g>

<g id="castle_0_Layer0_0_STROKES_1_FILL">
<path fill="#25251F" stroke="none" d="
M 24.55 24.25
Q 24.2677734375 24.2837890625 24.05 24.5 23.873046875 24.768359375 23.9 25.05 23.93359375 25.38203125 24.15 25.55 24.4185546875 25.7767578125 24.7 25.75 25.946875 25.6078125 26.7 25.65 27.5279296875 25.705078125 29.6 25.55 29.9158203125 25.530859375 30.1 25.3 30.3255859375 25.061328125 30.3 24.75 30.28125 24.4345703125 30.05 24.2 29.8107421875 24.024609375 29.5 24.05 28.6716796875 24.1123046875 28.05 24.15 28.1677734375 24.0796875 28.25 23.95 28.497265625 23.7578125 28.5 23.45 28.49921875 23.3583984375 28.45 23.25
L 28.45 23.2
Q 28.4513671875 23.0896484375 28.4 22.8 28.39375 22.166015625 28.35 20.85 28.3330078125 20.5640625 28.1 20.35 27.8779296875 20.1384765625 27.55 20.15 27.263671875 20.166796875 27.05 20.4 26.838671875 20.621484375 26.85 20.9 26.90625 22.2337890625 26.95 22.85 26.9640625 23.2134765625 26.95 23.35 26.9873046875 23.5087890625 27 23.55 27.021875 23.703515625 27.05 23.75 27.1814453125 24.0302734375 27.35 24.05
L 27.3 24.05
Q 27.4052734375 24.1279296875 27.45 24.15 27.071484375 24.1658203125 26.8 24.15 25.953125 24.0921875 24.55 24.25
M 28.25 22.9
Q 28.216796875 22.8654296875 28.15 22.8
L 28.15 22.8
Q 28.2966796875 22.9076171875 28.3 22.95
L 28.25 22.9
M 20.6 16.7
L 20.65 16.7
Q 20.4611328125 16.4736328125 20.2 15.35 20.1734375 15.0466796875 19.9 14.85 19.659765625 14.7080078125 19.35 14.75 19.0470703125 14.8263671875 18.85 15.05 18.7083984375 15.340625 18.75 15.65 19.1396484375 17.5296875 19.65 17.85 19.676171875 17.8880859375 19.7 17.9 19.8677734375 18.1 19.95 18.6 20.01171875 18.9240234375 20.25 19.1 20.523828125 19.291015625 20.8 19.25 21.1244140625 19.1884765625 21.3 18.9 21.4908203125 18.6765625 21.45 18.35 21.2318359375 17.097265625 20.6 16.7
M 44.3 18.8
Q 43.719921875 19.3111328125 44.85 20.25 45.3416015625 20.6578125 46.3 21.35 46.5748046875 21.5408203125 46.85 21.5 47.1748046875 21.4380859375 47.35 21.15 47.5412109375 20.92578125 47.5 20.6 47.4375 20.325390625 47.15 20.15 46.2583984375 19.4921875 45.8 19.1 45.7259765625 19.0427734375 45.65 19 45.5919921875 18.775 45.35 18.6 45.109765625 18.4580078125 44.8 18.5 44.497265625 18.5771484375 44.3 18.8
M 42.65 18.55
Q 42.5498046875 18.2578125 42.25 18.1 41.9916015625 17.9935546875 41.7 18.1 40.4625 18.555859375 39.85 18.45 39.823046875 18.46171875 39.8 18.45 39.58046875 18.4287109375 39.5 18.25 39.401953125 17.9732421875 39.1 17.8 38.8578125 17.693359375 38.55 17.8 38.4572265625 17.8380859375 38.35 17.9 37.6619140625 18.0537109375 37.6 21 37.5892578125 21.3427734375 37.8 21.55 38.015625 21.796484375 38.3 21.8 38.642578125 21.8109375 38.85 21.6 39.0962890625 21.383984375 39.1 21.05 39.1185546875 20.1779296875 38.95 19.75 39.241796875 19.895703125 39.6 19.95
L 39.55 19.9
Q 40.4369140625 20.1443359375 42.2 19.5 42.4921875 19.399609375 42.6 19.1 42.756640625 18.841796875 42.65 18.55 Z"/>
</g>

<g id="finished_beanstalk_0_Layer10_0_FILL">
<path fill="#999999" stroke="none" d="
M -14.5 -34.15
L -14.7 -31.95
Q -9.3 -35.2 -5.1 -30.35
L -4.2 -34.45
Q -8.65 -36.8 -14.5 -34.15
M -14.1 -17.5
L -14.3 -15.3
Q -8.9 -18.55 -4.7 -13.7
L -3.8 -17.8
Q -8.25 -20.15 -14.1 -17.5
M 1.6 -42.65
L 2.5 -38.35
Q 6.7 -43.45 12.1 -40.05
L 11.9 -42.35
Q 6.05 -45.15 1.6 -42.65
M 3 -23.8
L 3.9 -17.85
Q 8.1 -24.85 13.5 -20.2
L 13.3 -23.35
Q 7.45 -27.2 3 -23.8 Z"/>
</g>

<g id="green_leaf_0_Layer1_0_FILL">
<path fill="#666666" stroke="none" d="
M 7.5 -1.55
Q 5.539453125 -2.6984375 3.4 -3.9 -4.4470703125 -8.19375 -17.45 -12.1 -17.437109375 -12.0513671875 -17.45 -12.05 -17.3525390625 -12.0146484375 -17.2 -12 -17.3662109375 -11.9734375 -17.5 -11.95 -17.544921875 -11.8373046875 -17.6 -11.75 -17.6826171875 -11.786328125 -17.8 -11.85 -28.3861328125 0.210546875 -21.55 9.55 -16.65 16.3 -6.05 19.55 -1.621484375 20.9244140625 7.5 20.4 10.325 20.24296875 13.6 19.9 15.5611328125 19.7025390625 17.85 19.65 23.231640625 19.5251953125 30.4 20.2 29.5140625 17.7638671875 27.8 14.95 23.063671875 9.9126953125 17.85 5.65 17.5259765625 5.3869140625 17.2 5.1 13.0716796875 1.8111328125 7.5 -1.55 Z"/>

<path fill="#999999" stroke="none" d="
M 26.8 -5.1
Q 24.1765625 -9.544140625 20.8 -12.9 15.5775390625 -18.1140625 8.55 -20.7 8.0265625 -20.892578125 7.5 -21.05 -1.130859375 -23.7365234375 -10.65 -18.6 -15.0345703125 -16.255859375 -17.2 -12.55
L -17.15 -12.55
Q -17.1765625 -12.49375 -17.25 -12.45 -17.3291015625 -12.2576171875 -17.45 -12.1 -4.4470703125 -8.19375 3.4 -3.9 5.539453125 -2.6984375 7.5 -1.55 13.0716796875 1.8111328125 17.2 5.1 17.5259765625 5.3869140625 17.85 5.65 23.063671875 9.9126953125 27.8 14.95 29.5140625 17.7638671875 30.4 20.2 30.651953125 20.771875 30.8 21.3 30.8646484375 20.6908203125 30.95 20.05 30.994921875 19.6671875 31.05 19.25 31.235546875 18.08671875 31.55 16.85 34.000390625 7.201953125 26.8 -5.1 Z"/>
</g>

<g id="finished_beanstalk_0_Layer8_0_FILL">
<path fill="#BDA788" stroke="none" d="
M -12.8 -1.9
Q -13.6 -1.55 -13.6 -1.1 -13.6 -1.05 -13.6 -0.85 -14.5 -0.85 -15.15 -0.5 -16.1 -0.2 -16.1 0.35 -16.1 0.7 -15.85 0.95 -15.8 1 -15.5 1.15
L -15.4 1.15
Q -14.2 -0.7 -11.25 -1.85 -9.2 -2.65 -6.25 -3.1 -7.25 -3.4 -8.6 -3.4 -9.9 -3.4 -10.85 -3.1 -11.05 -3.05 -11.25 -2.9 -11.7 -2.65 -11.7 -2.25
L -11.65 -2.1
Q -12.35 -1.95 -12.8 -1.9
M -5.6 -3.4
Q -5.8 -3.3 -5.85 -3.1 -4.35 -3.4 -2.4 -3.45 -2.95 -3.6 -3.8 -3.6 -4.95 -3.6 -5.6 -3.4 Z"/>

<path fill="#635036" stroke="none" d="
M 3.6 -3.1
Q 3.6 -3.4 2.8 -3.6 2 -3.75 0.9 -3.75
L 0.85 -3.75
Q -0.25 -3.75 -1.05 -3.6 -1.9 -3.4 -1.9 -3.1
L -1.95 -3.1
Q -2 -3.4 -2.55 -3.6 -3.2 -3.9 -4.2 -3.9 -5.15 -3.9 -5.85 -3.6 -6.25 -3.4 -6.4 -3.2 -6.45 -3.3 -6.5 -3.3 -7.55 -3.6 -8.85 -3.6 -10.25 -3.6 -11.1 -3.3 -11.15 -3.3 -11.25 -3.2 -12.1 -2.95 -12.1 -2.55 -12.1 -2.45 -12.05 -2.3 -12.65 -2.25 -13.05 -2.1 -13.9 -1.75 -13.9 -1.35 -13.9 -1.2 -13.9 -1.1 -14.75 -1.05 -15.4 -0.75 -16.45 -0.35 -16.45 0.2 -16.45 0.6 -15.85 0.95 -16.1 0.7 -16.1 0.35 -16.1 -0.2 -15.15 -0.5 -14.5 -0.85 -13.6 -0.85 -13.6 -1.05 -13.6 -1.1 -13.6 -1.55 -12.8 -1.9 -12.35 -1.95 -11.65 -2.1
L -11.7 -2.25
Q -11.7 -2.65 -11.25 -2.9 -11.05 -3.05 -10.85 -3.1 -9.9 -3.4 -8.6 -3.4 -7.25 -3.4 -6.25 -3.1 -9.2 -2.65 -11.25 -1.85 -14.2 -0.7 -15.4 1.15 -14.4 1.5 -12.95 1.5 -11.9 1.5 -11.1 1.35
L -11.05 1.35
Q -11 1.95 -10.45 2.4 -9.95 2.95 -9.2 2.95 -8.5 2.95 -7.95 2.4 -7.85 2.35 -7.7 2.25 -6.8 2.5 -5.65 2.5 -4.35 2.5 -3.35 2.25 -3.15 2.4 -2.9 2.5 -1.9 3.15 -0.35 3.15 1.05 3.15 2.3 1.65 3.45 2.75 5.1 2.75 7.25 2.75 8.8 2.4 10.45 2 10.45 1.55 10.45 1.5 10.5 0.9 11.15 0.2 11.15 -0.25 11.15 -0.3 11.15 -0.35 11.1 -0.5 11.05 -0.7 10.95 -0.75 10.9 -0.75 10.5 -1.15 9.6 -1.45 9.35 -1.55 9.05 -1.65 8.4 -1.85 7.6 -1.9 9.3 -1.95 7.2 -2.55 5.1 -3.05 4.4 -3.05 3.7 -3.1 3.75 -3.05
L 3.6 -3.05 3.6 -3.1
M -5.85 -3.1
Q -5.8 -3.3 -5.6 -3.4 -4.95 -3.6 -3.8 -3.6 -2.95 -3.6 -2.4 -3.45 -4.35 -3.4 -5.85 -3.1 Z"/>

<path fill="#3C3020" stroke="none" d="
M 2.8 -3.6
Q 3.6 -3.4 3.6 -3.1
L 3.6 -3.05 3.75 -3.05
Q 3.7 -3.1 4.4 -3.05 5.1 -3.05 7.2 -2.55 9.3 -1.95 7.6 -1.9 8.4 -1.85 9.05 -1.65 9.35 -1.55 9.6 -1.45 10.5 -1.15 10.9 -0.75 10.95 -0.75 11.05 -0.7 11.1 -0.5 11.15 -0.35 11.15 -0.3 11.15 -0.25 11.15 0.2 10.5 0.9 10.45 1.5 10.45 1.55 10.45 2 8.8 2.4 7.25 2.75 5.1 2.75 3.45 2.75 2.3 1.65 1.05 3.15 -0.35 3.15 -1.9 3.15 -2.9 2.5 -3.15 2.4 -3.35 2.25 -4.35 2.5 -5.65 2.5 -6.8 2.5 -7.7 2.25 -7.85 2.35 -7.95 2.4 -8.5 2.95 -9.2 2.95 -9.95 2.95 -10.45 2.4 -11 1.95 -11.05 1.35
L -11.1 1.35
Q -11.9 1.5 -12.95 1.5 -14.4 1.5 -15.4 1.15
L -15.5 1.15
Q -15.8 1 -15.85 0.95 -16.45 0.6 -16.45 0.2 -16.45 -0.35 -15.4 -0.75 -14.75 -1.05 -13.9 -1.1 -13.9 -1.2 -13.9 -1.35 -13.9 -1.75 -13.05 -2.1 -12.65 -2.25 -12.05 -2.3 -12.1 -2.45 -12.1 -2.55 -12.1 -2.95 -11.25 -3.2 -11.15 -3.3 -11.1 -3.3 -10.25 -3.6 -8.85 -3.6 -7.55 -3.6 -6.5 -3.3 -6.45 -3.3 -6.4 -3.2 -6.25 -3.4 -5.85 -3.6 -5.15 -3.9 -4.2 -3.9 -3.2 -3.9 -2.55 -3.6 -2 -3.4 -1.95 -3.1
L -1.9 -3.1
Q -1.9 -3.4 -1.05 -3.6 -0.25 -3.75 0.85 -3.75 0.6 -4.15 -0.1 -4.5 -0.95 -4.85 -2.3 -4.85 -3.7 -4.85 -4.6 -4.5 -5.1 -4.2 -5.4 -3.95 -5.45 -4 -5.6 -4.1 -6.85 -4.5 -8.7 -4.5 -10.15 -4.5 -11.25 -4.15 -11.55 -4.1 -11.75 -4.1 -13.05 -3.6 -13.05 -2.95 -13.05 -2.85 -13 -2.75 -13.9 -2.6 -14.55 -2.45 -15.65 -1.95 -15.65 -1.35 -15.65 -1.2 -15.6 -1.1 -16.8 -0.95 -17.75 -0.6 -19.05 -0.05 -19.05 0.7 -19.05 1.5 -17.75 2 -16.35 2.5 -14.15 2.6 -12.05 2.7 -10.9 3.8 -10.25 4.5 -9.2 4.5 -8.15 4.5 -7.4 3.75 -7.35 3.65 -7.25 3.55 -5.85 3.9 -4.35 3.9 -2.95 3.9 -0.5 3.95 0.95 4.75 2.85 4.75 4.95 4.75 6.3 3.95 8.1 4.25 10.5 4.25 13.5 4.25 15.45 3.75 17.65 3.2 17.65 2.55 17.65 2.45 17.85 1.65 18.85 0.75 18.85 0.15 18.85 0 18.85 -0.05 18.7 -0.3 18.5 -0.5 18.45 -0.5 18.4 -0.6 17.85 -1.1 16.65 -1.5 15.35 -1.95 13.8 -2.1 16.15 -2.25 13.2 -2.95 10.45 -3.6 9.45 -3.7 9.25 -3.7 9.05 -3.7 8.45 -3.75 8.55 -3.7
L 8.4 -3.7
Q 8.4 -3.75 8.4 -3.8 8.4 -4.15 7.25 -4.5 6.2 -4.75 4.6 -4.75 3.15 -4.75 2 -4.5 0.9 -4.15 0.9 -3.8
L 0.9 -3.75
Q 2 -3.75 2.8 -3.6 Z"/>
</g>

<g id="finished_beanstalk_0_Layer6_0_FILL">
<path fill="#999999" stroke="none" d="
M 8.95 -1.3
L 8.6 -1.9 -5.5 -11.25
Q -8.891796875 -8.18359375 -7.95 -4.05
L 0.6 0.15 8.95 -1.3
M 3.7 -23.8
L 3.1 -23.8 -4.75 -30.25
Q -8.0365234375 -25.648046875 -4.05 -19.6
L 6.65 -12
Q 9.279296875 -17.7375 3.7 -23.8
M 3.35 -31.5
Q 4.4333984375 -36.915234375 0.75 -42.95 0.80390625 -43.002734375 0.85 -43.05
L -5.85 -48.05 -5.85 -47.9
Q -7.6048828125 -44.041796875 -6.1 -40.2
L 3.35 -31.5 Z"/>

<path fill="#333333" stroke="none" d="
M 8.6 -1.9
Q 10.0439453125 -5.8421875 7 -10.9
L 6.65 -12 -4.05 -19.6
Q -7.5423828125 -16.8267578125 -5.25 -11.95
L -5.5 -11.25 8.6 -1.9
M 3.4 -31.3
L 3.35 -31.5 -6.1 -40.2
Q -5.942578125 -39.829296875 -5.8 -39.5 -7.5841796875 -36.023046875 -5.75 -32 -5.3060546875 -31.1267578125 -4.75 -30.25
L 3.1 -23.8
Q 6.1947265625 -25.7833984375 3.4 -31.3 Z"/>

<path fill="#829B17" stroke="none" d="
M 0.85 -43.05
Q 2.5390625 -44.7984375 1.95 -47.45
L -5.1 -50.6
Q -6.923046875 -49.896875 -5.85 -48.05
L 0.85 -43.05 Z"/>
</g>

<path id="finished_beanstalk_0_Layer16_0_1_STROKES" stroke="#000000" stroke-width="1.5" stroke-linejoin="round" stroke-linecap="round" fill="none" d="
M 5.75 -99.15
Q 10.4 -100.25 12.2 -105.35 11.3 -100.9 14.4 -96.35
L 14 -94.2 13.45 -94.45
Q 13.55 -94.25 13.65 -94.05
L 5.95 -76.15 4.5 -84.25
M 4.3 -84.15
L 5.8 -96.8
Q 5.9 -96.8 5.95 -96.85
L 5.5 -97 5.75 -99.15
M 13.45 -94.45
Q 10.3 -97.25 5.95 -96.85
M -10.55 -99.3
Q -15.2 -100.4 -17 -105.5 -16.1 -101.05 -19.15 -96.5
M -10.55 -99.3
L -10.3 -97.15 -10.75 -97
Q -10.7 -96.95 -10.6 -96.95
L -9 -84.3
M -9.3 -84.4
L -10.75 -76.3 -18.4 -94.2
Q -18.35 -94.45 -18.25 -94.6
L -18.8 -94.4 -19.15 -96.5
M -18.25 -94.6
Q -15.05 -97.4 -10.75 -97"/>

<path id="castle_0_Layer0_0_1_STROKES" stroke="#000000" stroke-width="2" stroke-linejoin="round" stroke-linecap="round" fill="none" d="
M 43.7 12.25
L 43.8 15.55 42.45 15.55
Q 42.75 15.75 43.1 15.95
L 40.65 29.075 41 29.15 40.25 31.25 43.35 32 44.55 29.6 46.975 31.05 47.6 26.95
Q 47.75 26.95 47.8 26.85
L 47.1 26.75 47.3 23.8
Q 54.35 21.75 56.55 15 55.7 20.8 61 26.4
L 60.5 29.25 59.65 29.05
Q 59.85 29.2 60.05 29.5
L 50 53.75 43.3 58.25
M 42.8 58.8
L 42.9 58.2 43.2 56.15 42.15 60.75 24.05 60.3
M 23.75 60.4
L 23.25 58.1
M 23.15 58
L 16.45 53.5 11.6 41.8 11.55 41.7 6.4 29.25
Q 6.6 28.95 6.8 28.8
L 5.95 29 5.45 26.15
Q 10.75 20.55 9.9 14.75 12.1 21.5 19.15 23.55
L 19.35 26.5 18.65 26.6
Q 18.7 26.7 18.85 26.7
L 19.575 31.6 22.55 30.2 23.6 32.6 25.75 32.025 24.65 24.975 23.2 15.65
Q 23.3 15.6 23.4 15.55
L 22.15 15.55 21.7 12.1
Q 32.05 8.35 33.65 0 33.9 6.9 43.7 12.25
M 46.975 31.05
L 48.6 32 47.2 38.8 43.2 56.15
M 19.05 38.45
Q 19.7828125 38.1150390625 20.525 37.825 33.5953125 32.436328125 45.9 38.175 46.553515625 38.4671875 47.2 38.8
M 59.65 29.05
Q 54.4 25.8 47.8 26.85
M 42.45 15.55
Q 37.9 14.2 33.15 14.25 28.4 14.25 23.4 15.55
M 19.05 38.45
L 17.75 32.45 19.575 31.6
M 6.8 28.8
Q 12.05 25.55 18.65 26.6
M 25.75 32.025
L 25.85 32 25.85 28.85 32.15 28.4 31.95 31.2 34.7 30.95 35 27.95 40.65 29.075
M 33.35 40.25
L 33.35 45.75 33.35 54.75
M 39.25 49
L 39.35 45
Q 34 34.85 27.8 44.25
L 29 57.35 38.15 57.45 39.25 49 33.65 45.9
M 33.35 45.75
L 29.3 48.3
M 23.25 58.1
L 23.225 58 19.05 38.45"/>

<path id="finished_beanstalk_0_Layer10_0_1_STROKES" stroke="#000000" stroke-width="1" stroke-linejoin="round" stroke-linecap="round" fill="none" d="
M 3.9 -17.85
Q 8.1 -24.85 13.5 -20.2
L 13.3 -23.35
Q 7.45 -27.2 3 -23.8
L 3.9 -17.85 Z
M 2.5 -38.35
Q 6.7 -43.45 12.1 -40.05
L 11.9 -42.35
Q 6.05 -45.15 1.6 -42.65
L 2.5 -38.35 Z
M -14.1 -17.5
Q -8.25 -20.15 -3.8 -17.8
L -4.7 -13.7
Q -8.9 -18.55 -14.3 -15.3
L -14.1 -17.5 Z
M -14.5 -34.15
Q -8.65 -36.8 -4.2 -34.45
L -5.1 -30.35
Q -9.3 -35.2 -14.7 -31.95
L -14.5 -34.15 Z"/>

<path id="green_leaf_0_Layer1_0_1_STROKES" stroke="#000000" stroke-width="3.9" stroke-linejoin="round" stroke-linecap="round" fill="none" d="
M -17.175 -12.525
Q -15.0345703125 -16.255859375 -10.65 -18.6 -1.130859375 -23.7365234375 7.5 -21.05 8.0265625 -20.892578125 8.55 -20.7 15.5775390625 -18.1140625 20.8 -12.9 24.1765625 -9.544140625 26.8 -5.1 34.000390625 7.201953125 31.55 16.85 31.235546875 18.08671875 31.05 19.275
M 30.425 20.2
Q 23.231640625 19.5251953125 17.85 19.65 15.5611328125 19.7025390625 13.6 19.9 10.325 20.24296875 7.5 20.4 -1.621484375 20.9244140625 -6.05 19.55 -16.65 16.3 -21.55 9.55 -28.3861328125 0.210546875 -17.775 -11.825 -17.73984375 -11.8638671875 -17.7 -11.9 -17.6408203125 -11.974609375 -17.575 -12.05
L -17.55 -12.075
Q -17.3908203125 -12.2578125 -17.225 -12.425 -17.1958984375 -12.4767578125 -17.175 -12.525
L -17.125 -12.55
Q -17.1765625 -12.49375 -17.225 -12.425 -17.3291015625 -12.2576171875 -17.425 -12.075 -4.4470703125 -8.19375 3.4 -3.875 5.539453125 -2.6984375 7.5 -1.525 13.0716796875 1.8111328125 17.2 5.125 17.5259765625 5.3869140625 17.85 5.65
M -17.425 -12.075
Q -17.437109375 -12.0513671875 -17.45 -12.025 -17.3525390625 -12.0146484375 -17.2 -12 -17.3662109375 -11.9734375 -17.5 -11.95 -17.544921875 -11.8373046875 -17.6 -11.725 -17.6826171875 -11.786328125 -17.775 -11.825
M -17.425 -12.075
Q -17.4767578125 -12.089453125 -17.55 -12.075
M -17.575 -12.05
Q -17.53359375 -12.039453125 -17.45 -12.025 -17.4689453125 -11.9876953125 -17.5 -11.95 -17.6275390625 -11.9251953125 -17.7 -11.9"/>

<path id="finished_beanstalk_0_Layer6_0_1_STROKES" stroke="#000000" stroke-width="1" stroke-linejoin="round" stroke-linecap="round" fill="none" d="
M 3.35 -31.475
Q 4.4333984375 -36.915234375 0.75 -42.95 0.80390625 -43.002734375 0.85 -43.05
L -5.825 -48.025 -5.85 -47.9
Q -7.6048828125 -44.041796875 -6.075 -40.175
L 3.35 -31.475 3.4 -31.3
Q 6.1947265625 -25.7833984375 3.1 -23.8
L 3.7 -23.8
Q 9.279296875 -17.7375 6.675 -11.975
L 7 -10.9
Q 10.0439453125 -5.8421875 8.625 -1.9
L 8.95 -1.275 0.6 0.15 -7.95 -4.05
Q -8.891796875 -8.18359375 -5.5 -11.225
L -5.25 -11.95
Q -7.5423828125 -16.8267578125 -4.05 -19.6 -8.0365234375 -25.648046875 -4.725 -30.225 -5.3060546875 -31.1267578125 -5.725 -32 -7.5841796875 -36.023046875 -5.775 -39.475 -5.942578125 -39.829296875 -6.075 -40.175
M 0.85 -43.05
Q 2.5390625 -44.7984375 1.95 -47.45
L -5.1 -50.6
Q -6.923046875 -49.896875 -5.825 -48.025
M 8.625 -1.9
L -5.5 -11.225
M -4.05 -19.6
L 6.675 -11.975
M 3.1 -23.8
L -4.725 -30.225"/>
</defs>

<g transform="matrix( 4.379302978515625, 0, 0, 4.379302978515625, 275.2,515.6) ">
<g transform="matrix( 1, 0, 0, 1, 0,0) ">
<use xlink:href="#finished_beanstalk_0_Layer16_0_FILL"/>

<use xlink:href="#finished_beanstalk_0_Layer16_0_1_STROKES"/>
</g>

<g transform="matrix( 0.0182037353515625, 0.46307373046875, -0.46307373046875, 0.0182037353515625, -17.6,-62.7) ">
<g transform="matrix( 1, 0, 0, 1, 0,0) ">
<use xlink:href="#Duplicate_Items_Folder_vine_1_0_Layer2_0_FILL"/>
</g>

<g transform="matrix( 1, 0, 0, 1, 0,0) ">
<use xlink:href="#Duplicate_Items_Folder_vine_1_0_Layer1_0_FILL"/>
</g>

<g transform="matrix( 1, 0, 0, 1, 0,0) ">
<use xlink:href="#Duplicate_Items_Folder_vine_1_0_Layer0_0_FILL"/>
</g>
</g>

<g transform="matrix( -0.171600341796875, 0.5594482421875, 0.55767822265625, 0.1710662841796875, 13.6,-69.8) ">
<g transform="matrix( 1, 0, 0, 1, 0,0) ">
<use xlink:href="#Duplicate_Items_Folder_vine_1_0_Layer2_0_FILL"/>
</g>

<g transform="matrix( 1, 0, 0, 1, 0,0) ">
<use xlink:href="#Duplicate_Items_Folder_vine_1_0_Layer1_0_FILL"/>
</g>

<g transform="matrix( 1, 0, 0, 1, 0,0) ">
<use xlink:href="#Duplicate_Items_Folder_vine_1_0_Layer0_0_FILL"/>
</g>
</g>

<g transform="matrix( 0.2320404052734375, -0.3240966796875, 0.3240966796875, 0.2320404052734375, -0.4,-54.3) ">
<g transform="matrix( 1, 0, 0, 1, 0,0) ">
<use xlink:href="#Duplicate_Items_Folder_vine_2_0_Layer2_0_FILL"/>
</g>

<g transform="matrix( 1, 0, 0, 1, 0,0) ">
<use xlink:href="#Duplicate_Items_Folder_vine_2_0_Layer1_0_FILL"/>
</g>

<g transform="matrix( 1, 0, 0, 1, 0,0) ">
<use xlink:href="#Duplicate_Items_Folder_vine_2_0_Layer0_0_FILL"/>
</g>
</g>

<g transform="matrix( 1, 0, 0, 1, -34.7,-113) ">
<g transform="matrix( 1, 0, 0, 1, 0,0) ">
<use xlink:href="#castle_0_Layer1_0_FILL"/>
</g>

<g transform="matrix( 1, 0, 0, 1, 0,0) ">
<use xlink:href="#castle_0_Layer0_0_FILL"/>

<use xlink:href="#castle_0_Layer0_0_1_STROKES"/>

<use xlink:href="#castle_0_Layer0_0_STROKES_1_FILL"/>
</g>

<g transform="matrix( 0.0176239013671875, 0.5792083740234375, 0.461517333984375, -0.0140228271484375, 50.15,51.65) ">
<g transform="matrix( 1, 0, 0, 1, 0,0) ">
<use xlink:href="#Duplicate_Items_Folder_vine_1_0_Layer2_0_FILL"/>
</g>

<g transform="matrix( 1, 0, 0, 1, 0,0) ">
<use xlink:href="#Duplicate_Items_Folder_vine_1_0_Layer1_0_FILL"/>
</g>

<g transform="matrix( 1, 0, 0, 1, 0,0) ">
<use xlink:href="#Duplicate_Items_Folder_vine_1_0_Layer0_0_FILL"/>
</g>
</g>

<g transform="matrix( 0.066162109375, 0.57574462890625, -0.458740234375, 0.0527191162109375, 12.25,48.85) ">
<g transform="matrix( 1, 0, 0, 1, 0,0) ">
<use xlink:href="#Duplicate_Items_Folder_vine_1_0_Layer2_0_FILL"/>
</g>

<g transform="matrix( 1, 0, 0, 1, 0,0) ">
<use xlink:href="#Duplicate_Items_Folder_vine_1_0_Layer1_0_FILL"/>
</g>

<g transform="matrix( 1, 0, 0, 1, 0,0) ">
<use xlink:href="#Duplicate_Items_Folder_vine_1_0_Layer0_0_FILL"/>
</g>
</g>
</g>

<g transform="matrix( 1, 0, 0, 1, 0,0) ">
<use xlink:href="#finished_beanstalk_0_Layer10_0_FILL"/>

<use xlink:href="#finished_beanstalk_0_Layer10_0_1_STROKES"/>
</g>

<g transform="matrix( -0.7339324951171875, -0.06732177734375, -0.06732177734375, 0.7339324951171875, -6.9,-25.25) ">
<g transform="matrix( 0.2470550537109375, 0, 0, 0.2470550537109375, -0.95,-0.45) ">
<g transform="matrix( 1, 0, 0, 1, 0,0) ">
<use xlink:href="#green_leaf_0_Layer1_0_FILL"/>

<use xlink:href="#green_leaf_0_Layer1_0_1_STROKES"/>
</g>
</g>
</g>

<g transform="matrix( 0.7339324951171875, -0.06732177734375, 0.06732177734375, 0.7339324951171875, 9.75,-10.2) ">
<g transform="matrix( 0.2470550537109375, 0, 0, 0.2470550537109375, -0.95,-0.45) ">
<g transform="matrix( 1, 0, 0, 1, 0,0) ">
<use xlink:href="#green_leaf_0_Layer1_0_FILL"/>

<use xlink:href="#green_leaf_0_Layer1_0_1_STROKES"/>
</g>
</g>
</g>

<g transform="matrix( 1, 0, 0, 1, 0,0) ">
<use xlink:href="#finished_beanstalk_0_Layer8_0_FILL"/>
</g>

<g transform="matrix( 0.98565673828125, 0.16552734375, -0.16552734375, 0.98565673828125, 14,-38.15) ">
<g transform="matrix( 0.2470550537109375, 0, 0, 0.2470550537109375, -0.95,-0.45) ">
<g transform="matrix( 1, 0, 0, 1, 0,0) ">
<use xlink:href="#green_leaf_0_Layer1_0_FILL"/>

<use xlink:href="#green_leaf_0_Layer1_0_1_STROKES"/>
</g>
</g>
</g>

<g transform="matrix( 1.1909027099609375, 0.48223876953125, -0.48223876953125, 1.1909027099609375, 17.95,-19.8) ">
<g transform="matrix( 0.2470550537109375, 0, 0, 0.2470550537109375, -0.95,-0.45) ">
<g transform="matrix( 1, 0, 0, 1, 0,0) ">
<use filter="url(#Filter_1)" xlink:href="#green_leaf_0_Layer1_0_FILL"/>

<use filter="url(#Filter_1)" xlink:href="#green_leaf_0_Layer1_0_1_STROKES"/>
</g>
</g>
</g>

<g transform="matrix( -0.9161834716796875, 0.2379150390625, 0.2379150390625, 0.9161834716796875, -16.1,-33.65) ">
<g transform="matrix( 0.2470550537109375, 0, 0, 0.2470550537109375, -0.95,-0.45) ">
<g transform="matrix( 1, 0, 0, 1, 0,0) ">
<use filter="url(#Filter_2)" xlink:href="#green_leaf_0_Layer1_0_FILL"/>

<use filter="url(#Filter_2)" xlink:href="#green_leaf_0_Layer1_0_1_STROKES"/>
</g>
</g>
</g>

<g transform="matrix( -1.08355712890625, 0.5537567138671875, 0.5537567138671875, 1.08355712890625, -18.3,-16.1) ">
<g transform="matrix( 0.2470550537109375, 0, 0, 0.2470550537109375, -0.95,-0.45) ">
<g transform="matrix( 1, 0, 0, 1, 0,0) ">
<use xlink:href="#green_leaf_0_Layer1_0_FILL"/>

<use xlink:href="#green_leaf_0_Layer1_0_1_STROKES"/>
</g>
</g>
</g>

<g transform="matrix( 1, 0, 0, 1, 0,0) ">
<use xlink:href="#finished_beanstalk_0_Layer6_0_FILL"/>

<use xlink:href="#finished_beanstalk_0_Layer6_0_1_STROKES"/>
</g>

<g transform="matrix( -0.81378173828125, 0.211334228515625, 0.211334228515625, 0.81378173828125, -37.95,-43.55) ">
<g transform="matrix( 0.2470550537109375, 0, 0, 0.2470550537109375, -0.95,-0.45) ">
<g transform="matrix( 1, 0, 0, 1, 0,0) ">
<use xlink:href="#green_leaf_0_Layer1_0_FILL"/>

<use xlink:href="#green_leaf_0_Layer1_0_1_STROKES"/>
</g>
</g>
</g>

<g transform="matrix( -0.5526123046875, 0.3072509765625, 0.34149169921875, 0.6142425537109375, -9.4,-47.25) ">
<g transform="matrix( 0.2470550537109375, 0, 0, 0.2470550537109375, -0.95,-0.45) ">
<g transform="matrix( 1, 0, 0, 1, 0,0) ">
<use xlink:href="#green_leaf_0_Layer1_0_FILL"/>

<use xlink:href="#green_leaf_0_Layer1_0_1_STROKES"/>
</g>
</g>
</g>

<g transform="matrix( -0.48626708984375, 0.12628173828125, 0.12628173828125, 0.48626708984375, 22.25,-79.55) ">
<g transform="matrix( 0.2470550537109375, 0, 0, 0.2470550537109375, -0.95,-0.45) ">
<g transform="matrix( 1, 0, 0, 1, 0,0) ">
<use xlink:href="#green_leaf_0_Layer1_0_FILL"/>

<use xlink:href="#green_leaf_0_Layer1_0_1_STROKES"/>
</g>
</g>
</g>

<g transform="matrix( 0.5526123046875, 0.3072509765625, -0.34149169921875, 0.6142425537109375, 40.9,-62.9) ">
<g transform="matrix( 0.2470550537109375, 0, 0, 0.2470550537109375, -0.95,-0.45) ">
<g transform="matrix( 1, 0, 0, 1, 0,0) ">
<use xlink:href="#green_leaf_0_Layer1_0_FILL"/>

<use xlink:href="#green_leaf_0_Layer1_0_1_STROKES"/>
</g>
</g>
</g>

<g transform="matrix( -0.48626708984375, 0.12628173828125, 0.12628173828125, 0.48626708984375, 25.7,-54.7) ">
<g transform="matrix( 0.2470550537109375, 0, 0, 0.2470550537109375, -0.95,-0.45) ">
<g transform="matrix( 1, 0, 0, 1, 0,0) ">
<use xlink:href="#green_leaf_0_Layer1_0_FILL"/>

<use xlink:href="#green_leaf_0_Layer1_0_1_STROKES"/>
</g>
</g>
</g>

<g transform="matrix( 0.75634765625, 0.10333251953125, -0.114837646484375, 0.8406829833984375, 3.75,-49.75) ">
<g transform="matrix( 0.2470550537109375, 0, 0, 0.2470550537109375, -0.95,-0.45) ">
<g transform="matrix( 1, 0, 0, 1, 0,0) ">
<use xlink:href="#green_leaf_0_Layer1_0_FILL"/>

<use xlink:href="#green_leaf_0_Layer1_0_1_STROKES"/>
</g>
</g>
</g>

<g transform="matrix( 0.8052978515625, 0.7415008544921875, -0.693389892578125, 0.753082275390625, -1.7,-45.7) ">
<g transform="matrix( 0.2470550537109375, 0, 0, 0.2470550537109375, -0.95,-0.45) ">
<g transform="matrix( 1, 0, 0, 1, 0,0) ">
<use filter="url(#Filter_3)" xlink:href="#green_leaf_0_Layer1_0_FILL"/>

<use filter="url(#Filter_3)" xlink:href="#green_leaf_0_Layer1_0_1_STROKES"/>
</g>
</g>
</g>

<g transform="matrix( 0.48626708984375, 0.12628173828125, -0.12628173828125, 0.48626708984375, -27.9,-47.55) ">
<g transform="matrix( 0.2470550537109375, 0, 0, 0.2470550537109375, -0.95,-0.45) ">
<g transform="matrix( 1, 0, 0, 1, 0,0) ">
<use xlink:href="#green_leaf_0_Layer1_0_FILL"/>

<use xlink:href="#green_leaf_0_Layer1_0_1_STROKES"/>
</g>
</g>
</g>

<g transform="matrix( -0.61285400390625, 0.159149169921875, 0.159149169921875, 0.61285400390625, -16.25,-54.35) ">
<g transform="matrix( 0.2470550537109375, 0, 0, 0.2470550537109375, -0.95,-0.45) ">
<g transform="matrix( 1, 0, 0, 1, 0,0) ">
<use filter="url(#Filter_2)" xlink:href="#green_leaf_0_Layer1_0_FILL"/>

<use filter="url(#Filter_2)" xlink:href="#green_leaf_0_Layer1_0_1_STROKES"/>
</g>
</g>
</g>

<g transform="matrix( 0.445709228515625, 0.44769287109375, -0.4976043701171875, 0.4954071044921875, 10.9,-53.6) ">
<g transform="matrix( 0.2470550537109375, 0, 0, 0.2470550537109375, -0.95,-0.45) ">
<g transform="matrix( 1, 0, 0, 1, 0,0) ">
<use filter="url(#Filter_4)" xlink:href="#green_leaf_0_Layer1_0_FILL"/>

<use filter="url(#Filter_4)" xlink:href="#green_leaf_0_Layer1_0_1_STROKES"/>
</g>
</g>
</g>

<g transform="matrix( -0.6429290771484375, 0.166961669921875, 0.166961669921875, 0.6429290771484375, -2.9,-52.65) ">
<g transform="matrix( 0.2470550537109375, 0, 0, 0.2470550537109375, -0.95,-0.45) ">
<g transform="matrix( 1, 0, 0, 1, 0,0) ">
<use filter="url(#Filter_5)" xlink:href="#green_leaf_0_Layer1_0_FILL"/>

<use filter="url(#Filter_5)" xlink:href="#green_leaf_0_Layer1_0_1_STROKES"/>
</g>
</g>
</g>

<g transform="matrix( -0.449462890625, 0.30743408203125, 0.341705322265625, 0.499603271484375, -10.75,-51.5) ">
<g transform="matrix( 0.2470550537109375, 0, 0, 0.2470550537109375, -0.95,-0.45) ">
<g transform="matrix( 1, 0, 0, 1, 0,0) ">
<use filter="url(#Filter_6)" xlink:href="#green_leaf_0_Layer1_0_FILL"/>

<use filter="url(#Filter_6)" xlink:href="#green_leaf_0_Layer1_0_1_STROKES"/>
</g>
</g>
</g>

<g transform="matrix( 0.65948486328125, 0.1712646484375, -0.1712646484375, 0.65948486328125, -26.6,-73) ">
<g transform="matrix( 0.2470550537109375, 0, 0, 0.2470550537109375, -0.95,-0.45) ">
<g transform="matrix( 1, 0, 0, 1, 0,0) ">
<use xlink:href="#green_leaf_0_Layer1_0_FILL"/>

<use xlink:href="#green_leaf_0_Layer1_0_1_STROKES"/>
</g>
</g>
</g>

<g transform="matrix( -0.7153778076171875, -0.162353515625, -0.162353515625, 0.7153778076171875, 16,-69.15) ">
<g transform="matrix( 0.2470550537109375, 0, 0, 0.2470550537109375, -0.95,-0.45) ">
<g transform="matrix( 1, 0, 0, 1, 0,0) ">
<use xlink:href="#green_leaf_0_Layer1_0_FILL"/>

<use xlink:href="#green_leaf_0_Layer1_0_1_STROKES"/>
</g>
</g>
</g>
</g>
</svg>
