
<svg xmlns="http://www.w3.org/2000/svg" version="1.1" xmlns:xlink="http://www.w3.org/1999/xlink" preserveAspectRatio="none" x="0px" y="0px" width="560px" height="544px" viewBox="0 0 560 544">
<defs>
<g id="jelly_donut_0_Layer3_0_FILL">
<path fill="#F1E1D1" stroke="none" d="
M -0.4 -3.9
L -0.35 -3.85 0.95 -3.95
Q -0.2162109375 -3.8853515625 -0.4 -3.9
M 11.85 -14.1
Q 11.55 -14.4 11.25 -14.6 10.65 -14.95 9.9 -14.95 8.8 -14.95 8 -14.2 7.95 -14.15 7.9 -14.1 7.15 -13.3 7.05 -12.25 6.55 -12.45 5.95 -12.45 5.25 -12.45 4.65 -12.15 4.25 -12 3.95 -11.7 3.85 -11.6 3.75 -11.5 3.5203125 -11.2568359375 3.35 -11 3.0962890625 -10.55546875 2.95 -10.05 2.86640625 -9.6568359375 2.85 -9.2 2.81640625 -8.863671875 4.05 -8.55 4.6501953125 -8.397265625 4.05 -7.9 2.8333984375 -6.399609375 3.05 -4.6 3.0857421875 -4.3296875 3.15 -4.1 3.2677734375 -3.8341796875 3.4 -3.6 3.6 -3.65 3.9 -3.65
L 4.3 -3.65
Q 6 -2.65 6.95 -2.85 6.57890625 -3.0419921875 6.3 -3.2 5.551171875 -3.6 5.7 -3.6 5.8033203125 -3.6140625 5.9 -3.65 6.2193359375 -3.6615234375 6.5 -3.7 7.2 -3.7119140625 7.85 -3.65 7.95 -3.85 8 -4.1 8.2 -3.8 8.45 -3.5 8.8736328125 -3.415234375 9.25 -3.25 9.33125 -3.1880859375 9.4 -3.15 8.720703125 -3.687109375 8.25 -4.3 7.281640625 -5.62421875 7.35 -7.3 7.4 -9.7 9.65 -11.4
L 9.65 -11.4
Q 11.9115234375 -13.1 15 -13.1 15.6 -13.1 16.2 -13 17 -13.35 18 -13.35 19.20390625 -13.35 20.15 -12.9 20.6958984375 -12.666796875 21.15 -12.3 22.4 -11.3 22.4 -9.85 22.7 -9.7 23 -9.4 23.95 -8.5 23.95 -7.2 23.9 -5.9 22.85 -5 22.1 -4.3 21.1 -4.15 20.6 -3.65 20 -3.15 17.75 -1.45 14.65 -1.45 12.84296875 -1.45 11.35 -2.1 10.99453125 -2.212890625 10.65 -2.4 11.05 -2 11.45 -1.55 11.4740234375 -1.523828125 11.5 -1.5 12.017578125 -0.9302734375 12.4 -0.5 12.7109375 -0.3099609375 12.95 -0.15 14.1220703125 0.5474609375 14.3 0.65
L 14.35 0.65
Q 14.4201171875 0.65 14.45 0.65 14.856640625 0.657421875 15.05 0.7 15.6275390625 0.8248046875 15.15 1.2 14.4 1.75 15.25 4.2 12.5 4 10.15 4.2 7.2 4.4 4.9 5.15
L 5 5.25
Q 9.1 5.15 13.25 4.85 18 4.2 20.2 2.85 22.3 1.4 23.2 1.25 23.95 1.05 24.95 -1.15 24.9884765625 -1.2654296875 25.3 -2.2 25.3845703125 -2.453515625 25.5 -2.8 25.95 -4.3 25.7 -7.15 25.5341796875 -7.452734375 25.35 -7.75 24.4490234375 -9.5455078125 23.85 -11.3
L 23.85 -11.35 24.15 -11.7
Q 23.9 -11.85 23.65 -11.95
L 23.55 -13
Q 23.5998046875 -13.13125 23.65 -13.25 23.701953125 -13.4142578125 23.75 -13.6 23.98515625 -14.59609375 23.55 -15.15 23.37421875 -15.3736328125 23.2 -15.55 22.872265625 -15.9619140625 22.6 -16.2 22.2 -16.55 21.8 -16.55 21.05 -16.55 20.55 -15.8 20.45 -15.7 20.3 -15.5 20.25 -15.4 20.2 -15.3 20.1 -15.5 20.05 -15.7 19.95 -15.75 19.9 -15.85 19.3 -16.65 18.5 -16.65 17.65 -16.65 17.1 -15.85 16.55 -15.3 16.5 -14.6 16.45 -14.45 16.3 -14.45 16.4 -14.5 16.35 -14.6 16.2 -15.15 15.85 -15.7 15.2 -16.55 14.25 -16.55 13.3 -16.55 12.65 -15.7 12.55 -15.65 12.55 -15.6 12.05 -14.9 11.9 -13.95 11.9 -14.05 11.85 -14.1 Z"/>

<path fill="#FFFFCC" stroke="none" d="
M -29.1 -5.75
Q -29.753515625 -2.76875 -27.9 -1 -26.0021484375 0.763671875 -26.05 0.3 -29.4490234375 -1.4265625 -29 -6.15 -29.024609375 -5.9421875 -29.1 -5.75
M 13.75 0.6
Q 14.0798828125 0.6234375 14.3 0.65 14.1220703125 0.5474609375 12.95 -0.15 13.6548828125 0.622265625 13.75 0.6
M 14.45 0.65
Q 14.8662109375 0.6875 15 0.75 15.0419921875 0.7388671875 15.05 0.7 14.856640625 0.657421875 14.45 0.65 Z"/>

<path fill="#DDB788" stroke="none" d="
M -28.2 -10.65
L -28.2 -10.05
Q -28.2 -9.8900390625 -28.2 -9.75 -27.836328125 -11.7990234375 -27.7 -13.85 -28.2 -12.0833984375 -28.2 -10.65
M -27.6 -14.3
Q -26.9294921875 -14.4318359375 -27.4 -14.75 -27.4880859375 -14.51328125 -27.6 -14.3
M 9.4 -3.15
Q 9.33125 -3.1880859375 9.25 -3.25 10.208984375 -2.3689453125 11.5 -1.5 11.4740234375 -1.523828125 11.45 -1.55 11.05 -2 10.65 -2.4 10.05 -2.85 9.4 -3.15 Z"/>

<path fill="#FFFFFF" stroke="none" d="
M -23.3 -12.95
Q -23.3140625 -13.590234375 -23.65 -13.85 -24.2814453125 -14.3400390625 -25 -13.3 -25.0669921875 -13.14609375 -25.15 -13 -25.95 -11.55 -25.95 -9.55 -25.94921875 -7.5515625 -26.25 -5.95 -26.55078125 -4.296875 -26.2 -4.15 -25.8474609375 -4.008203125 -25.3 -3.8 -24.7552734375 -3.5931640625 -24.6 -6.2 -24.449609375 -8.802734375 -23.7 -11.05 -23.3013671875 -12.233984375 -23.3 -12.95
M -20.8 -18.05
Q -21.05 -18.5 -21.65 -18.55 -22.25 -18.65 -22.85 -18.3 -23.4 -17.95 -23.6 -17.35 -23.8 -16.8 -23.55 -16.35 -23.25 -15.9 -22.65 -15.85 -22.1 -15.8 -21.55 -16.15 -20.95 -16.5 -20.7 -17.05 -20.5 -17.6 -20.8 -18.05
M 13.05 -21.25
Q 14.954296875 -20.94609375 14.95 -21.75 14.95 -22.55 12.95 -23.15 10.95 -23.7 8.1 -23.7 5.25 -23.7 3.25 -23.15 1.25 -22.55 1.25 -21.75 1.2455078125 -20.9541015625 3.35 -21.4 5.5130859375 -21.837890625 8.35 -21.7 11.18671875 -21.5623046875 13.05 -21.25 Z"/>

<path fill="#CCA680" stroke="none" d="
M 25.35 -7.75
Q 25.5341796875 -7.452734375 25.7 -7.15 26.3 -10.3 24.15 -11.7
L 23.85 -11.35
Q 24.4875 -9.8576171875 25.3 -8.35 25.3546875 -8.033203125 25.35 -7.75
M 23.85 -13.6
L 23.65 -13.25
Q 23.5998046875 -13.13125 23.55 -13
L 23.65 -11.95
Q 23.9 -11.85 24.15 -11.7 26.3 -10.3 25.7 -7.15 25.95 -4.3 25.5 -2.8 25.3845703125 -2.453515625 25.3 -2.2 28.05 -5.729296875 28.05 -10.05
L 28.05 -10.1
Q 28.05 -10.2 28.05 -10.3 28 -13.05 26.95 -15.45 26.6 -15.2 26.2 -14.9 25.56953125 -14.4400390625 23.85 -13.6
M 7.5 -3.15
L 6.3 -3.2
Q 6.57890625 -3.0419921875 6.95 -2.85 7.2630859375 -2.9283203125 7.5 -3.15
M 6.65 -3.6
Q 7.0509765625 -3.407421875 7.5 -3.2 7.71484375 -3.3572265625 7.85 -3.65 7.2 -3.7119140625 6.5 -3.7 6.6009765625 -3.63984375 6.65 -3.6
M 9.25 -3.25
Q 8.8736328125 -3.415234375 8.45 -3.5 9.6 -2.25 11.7 -0.9 12.1 -0.7 12.4 -0.5 12.017578125 -0.9302734375 11.5 -1.5 10.208984375 -2.3689453125 9.25 -3.25
M 3.15 -4.1
L 0.95 -3.95 -0.35 -3.85 -0.4 -3.9
Q -5.6423828125 -3.5576171875 -7.25 -4.15 -13.087890625 -6.31171875 -15 -6.6 -16.86171875 -6.83515625 -17.75 -5.15 -18.649609375 -3.4654296875 -21.35 -1.45 -22.5375 -0.501171875 -23.65 0.15 -19.0248046875 4.402734375 -12.25 5.15 -6.0408203125 5.6177734375 2.4 5.35 6.0462890625 4.3205078125 10.1 4.05 12.4279296875 3.9029296875 15.2 4.1 14.301953125 1.3828125 15 0.75 14.8662109375 0.6875 14.45 0.65 14.4201171875 0.65 14.35 0.65
L 14.3 0.65
Q 14.0798828125 0.6234375 13.75 0.6 13.6548828125 0.622265625 12.95 -0.15 12.7109375 -0.3099609375 12.4 -0.5 12.1 -0.7 11.7 -0.9 9.6 -2.25 8.45 -3.5 8.2 -3.8 8 -4.1 7.95 -3.85 7.85 -3.65 7.71484375 -3.3572265625 7.5 -3.2
L 7.55 -3.15 7.5 -3.15
Q 7.2630859375 -2.9283203125 6.95 -2.85 6 -2.65 4.3 -3.65
L 3.9 -3.65
Q 3.6 -3.65 3.4 -3.6 3.2677734375 -3.8341796875 3.15 -4.1 Z"/>

<path fill="#F5EDA3" stroke="none" d="
M 7.5 -3.2
L 7.5 -3.15 7.55 -3.15 7.5 -3.2
M 5.7 -3.6
Q 5.551171875 -3.6 6.3 -3.2
L 7.5 -3.15 7.5 -3.2
Q 7.0509765625 -3.407421875 6.65 -3.6 6.343359375 -3.5267578125 5.9 -3.65 5.8033203125 -3.6140625 5.7 -3.6
M 11.25 -14.6
Q 11.55 -14.4 11.85 -14.1 11.9 -14.05 11.9 -13.95 12.05 -14.9 12.55 -15.6 12.55 -15.65 12.65 -15.7 13.3 -16.55 14.25 -16.55 15.2 -16.55 15.85 -15.7 16.2 -15.15 16.35 -14.6 16.4 -14.5 16.3 -14.45 16.45 -14.45 16.5 -14.6 16.55 -15.3 17.1 -15.85 17.65 -16.65 18.5 -16.65 19.3 -16.65 19.9 -15.85 19.95 -15.75 20.05 -15.7 20.1 -15.5 20.2 -15.3 20.25 -15.4 20.3 -15.5 20.45 -15.7 20.55 -15.8 21.05 -16.55 21.8 -16.55 22.2 -16.55 22.6 -16.2 22.872265625 -15.9619140625 23.2 -15.55 23.37421875 -15.3736328125 23.55 -15.15 23.98515625 -14.59609375 23.75 -13.6 23.701953125 -13.4142578125 23.65 -13.25
L 23.85 -13.6
Q 25.56953125 -14.4400390625 26.2 -14.9 26.6 -15.2 26.95 -15.45 26.590625 -16.2880859375 26.1 -17.15 26.05 -17.2162109375 26 -17.3 25.9296875 -17.4212890625 25.85 -17.55 24.9 -19 23.45 -20.35 18.85 -24.55 15.35 -25.1 1.7 -28.85 -12.55 -25.65 -19.05 -24.55 -23.65 -20.35 -25 -19.05 -25.95 -17.65 -26.85 -16.3 -27.4 -14.75 -26.9294921875 -14.4318359375 -27.6 -14.3 -27.67109375 -14.2462890625 -27.8 -14.25 -27.7408203125 -14.0515625 -27.7 -13.9
L -27.7 -13.85
Q -25.5953125 -13.396484375 -25 -13.3 -24.2814453125 -14.3400390625 -23.65 -13.85 -23.3140625 -13.590234375 -23.3 -12.95 -14.7076171875 -10.8111328125 -8.85 -10.85 -2.9498046875 -10.8490234375 -0.9 -10.9 1.1591796875 -10.8888671875 3.35 -11 3.5203125 -11.2568359375 3.75 -11.5 3.85 -11.6 3.95 -11.7 4.25 -12 4.65 -12.15 5.25 -12.45 5.95 -12.45 6.55 -12.45 7.05 -12.25 7.15 -13.3 7.9 -14.1 7.95 -14.15 8 -14.2 8.8 -14.95 9.9 -14.95 10.65 -14.95 11.25 -14.6
M 14.95 -21.75
Q 14.954296875 -20.94609375 13.05 -21.25 11.18671875 -21.5623046875 8.35 -21.7 5.5130859375 -21.837890625 3.35 -21.4 1.2455078125 -20.9541015625 1.25 -21.75 1.25 -22.55 3.25 -23.15 5.25 -23.7 8.1 -23.7 10.95 -23.7 12.95 -23.15 14.95 -22.55 14.95 -21.75
M -21.65 -18.55
Q -21.05 -18.5 -20.8 -18.05 -20.5 -17.6 -20.7 -17.05 -20.95 -16.5 -21.55 -16.15 -22.1 -15.8 -22.65 -15.85 -23.25 -15.9 -23.55 -16.35 -23.8 -16.8 -23.6 -17.35 -23.4 -17.95 -22.85 -18.3 -22.25 -18.65 -21.65 -18.55 Z"/>

<path fill="#E7D387" stroke="none" d="
M 2.95 -10.05
Q 3.0962890625 -10.55546875 3.35 -11 1.1591796875 -10.8888671875 -0.9 -10.9 -2.9498046875 -10.8490234375 -8.85 -10.85 -14.7076171875 -10.8111328125 -23.3 -12.95 -23.3013671875 -12.233984375 -23.7 -11.05 -24.449609375 -8.802734375 -24.6 -6.2 -24.7552734375 -3.5931640625 -25.3 -3.8 -25.8474609375 -4.008203125 -26.2 -4.15 -26.55078125 -4.296875 -26.25 -5.95 -25.94921875 -7.5515625 -25.95 -9.55 -25.95 -11.55 -25.15 -13 -25.0669921875 -13.14609375 -25 -13.3 -25.5953125 -13.396484375 -27.7 -13.85 -27.836328125 -11.7990234375 -28.2 -9.75 -28.8158203125 -7.7623046875 -29 -6.15 -29.4490234375 -1.4265625 -26.05 0.3
L -24.2 0.5
Q -24.0345703125 -0.2091796875 -23.65 0.15
L -23.65 0.15
Q -22.5375 -0.501171875 -21.35 -1.45 -18.649609375 -3.4654296875 -17.75 -5.15 -16.86171875 -6.83515625 -15 -6.6 -13.087890625 -6.31171875 -7.25 -4.15 -5.6423828125 -3.5576171875 -0.4 -3.9 -0.2162109375 -3.8853515625 0.95 -3.95
L 3.15 -4.1
Q 3.0857421875 -4.3296875 3.05 -4.6 2.1017578125 -6.567578125 4.05 -8.55 2.81640625 -8.863671875 2.85 -9.2 2.86640625 -9.6568359375 2.95 -10.05 Z"/>

<path fill="#DABFA5" stroke="none" d="
M 20.15 -12.9
Q 19.20390625 -13.35 18 -13.35 17 -13.35 16.2 -13 15.6 -13.1 15 -13.1 11.9115234375 -13.1 9.65 -11.4
L 9.65 -11.4
Q 7.4 -9.7 7.35 -7.3 7.281640625 -5.62421875 8.25 -4.3 8.720703125 -3.687109375 9.4 -3.15 10.05 -2.85 10.65 -2.4 10.99453125 -2.212890625 11.35 -2.1 12.84296875 -1.45 14.65 -1.45 17.75 -1.45 20 -3.15 20.6 -3.65 21.1 -4.15 22.1 -4.3 22.85 -5 23.9 -5.9 23.95 -7.2 23.95 -8.5 23 -9.4 22.7 -9.7 22.4 -9.85 22.4 -11.3 21.15 -12.3 20.6958984375 -12.666796875 20.15 -12.9 Z"/>
</g>

<g id="jelly_donut_0_Layer2_0_FILL">
<path fill="#7E0101" stroke="none" d="
M -6.65 -23.05
Q -9.25 -23.5 -11 -22.2 -2.3 -20.3 -3.25 -12.5 -1.1 -14.1 -0.7 -16.45 -0.35 -18.85 -2.2 -20.75 -4.1 -22.65 -6.65 -23.05 Z"/>
</g>

<g id="jelly_donut_0_Layer1_0_FILL">
<path fill="#C10202" stroke="none" d="
M 12.45 -10.75
Q 12 -10.25 11.55 -9.5
L 10.4 -7.15 12.65 -5.4 13.1 -2.3
Q 15.8 -1.85 15.1 -1 13.95 0.2 13.4 0.9 12.4 2.2 13.1 2.55 14.25 3.1 20.35 3.55 19.55 4.45 19 5.4 17.85 7.4 18.95 7.85 20.2 8.4 26.95 8.35 33.45 8.3 36.45 7.85 38.45 7.55 40.05 7.2 40.75 7.05 41.4 6.85 41.65 6.65 41.85 6.4 43.15 4.95 40.9 4.1 40.8 4.1 36.7 3.1 36.1 2.95 35.3 2.85 32 2.4 25 2.4 23.3 2.4 23.05 1.1 22.95 0.35 23.15 -1.6 23.15 -3.5 22.75 -5.55 22.15 -8.3 21 -10 19.4 -12.3 12.45 -10.75
M 18.9 -8.35
Q 18.9 -8.05 18.25 -7.85 17.6 -7.6 16.65 -7.6 15.7 -7.6 15.05 -7.85 14.4 -8.05 14.4 -8.35 14.4 -8.65 15.05 -8.9 15.7 -9.1 16.65 -9.1 17.6 -9.1 18.25 -8.9 18.9 -8.65 18.9 -8.35
M 19.05 -7.2
Q 19.05 -7.65 19.25 -7.95 19.5 -8.25 19.8 -8.25 20.1 -8.25 20.3 -7.95 20.55 -7.65 20.55 -7.2 20.55 -6.75 20.3 -6.45 20.1 -6.15 19.8 -6.15 19.5 -6.15 19.25 -6.45 19.05 -6.75 19.05 -7.2
M 36.3 5.45
Q 37.4 5.45 38.2 5.65 39 5.9 39 6.2 39 6.5 38.2 6.7 37.4 6.95 36.3 6.95 35.2 6.95 34.4 6.7 33.6 6.5 33.6 6.2 33.6 5.9 34.4 5.65 35.2 5.45 36.3 5.45
M 33.5 7.1
Q 33.5 7.3 32.55 7.4 31.65 7.55 30.3 7.55 28.95 7.55 28 7.4 27.1 7.3 27.1 7.1 27.1 6.9 28 6.75 28.95 6.65 30.3 6.65 31.65 6.65 32.55 6.75 33.5 6.9 33.5 7.1
M 21.3 1.9
Q 21.3 2.15 20.65 2.3 20 2.45 19.1 2.45 18.2 2.45 17.55 2.3 16.9 2.15 16.9 1.9 16.9 1.65 17.55 1.5 18.2 1.35 19.1 1.35 20 1.35 20.65 1.5 21.3 1.65 21.3 1.9 Z"/>

<path fill="#FC6161" stroke="none" d="
M 20.65 2.3
Q 21.3 2.15 21.3 1.9 21.3 1.65 20.65 1.5 20 1.35 19.1 1.35 18.2 1.35 17.55 1.5 16.9 1.65 16.9 1.9 16.9 2.15 17.55 2.3 18.2 2.45 19.1 2.45 20 2.45 20.65 2.3
M 32.55 7.4
Q 33.5 7.3 33.5 7.1 33.5 6.9 32.55 6.75 31.65 6.65 30.3 6.65 28.95 6.65 28 6.75 27.1 6.9 27.1 7.1 27.1 7.3 28 7.4 28.95 7.55 30.3 7.55 31.65 7.55 32.55 7.4
M 38.2 5.65
Q 37.4 5.45 36.3 5.45 35.2 5.45 34.4 5.65 33.6 5.9 33.6 6.2 33.6 6.5 34.4 6.7 35.2 6.95 36.3 6.95 37.4 6.95 38.2 6.7 39 6.5 39 6.2 39 5.9 38.2 5.65
M 19.25 -7.95
Q 19.05 -7.65 19.05 -7.2 19.05 -6.75 19.25 -6.45 19.5 -6.15 19.8 -6.15 20.1 -6.15 20.3 -6.45 20.55 -6.75 20.55 -7.2 20.55 -7.65 20.3 -7.95 20.1 -8.25 19.8 -8.25 19.5 -8.25 19.25 -7.95
M 18.25 -7.85
Q 18.9 -8.05 18.9 -8.35 18.9 -8.65 18.25 -8.9 17.6 -9.1 16.65 -9.1 15.7 -9.1 15.05 -8.9 14.4 -8.65 14.4 -8.35 14.4 -8.05 15.05 -7.85 15.7 -7.6 16.65 -7.6 17.6 -7.6 18.25 -7.85 Z"/>

<path fill="#990000" stroke="none" d="
M 9.9 -10.15
Q 8.3 -9.7 6.8 -7.25
L 6.3 -4.35 7.9 -3.15 8.35 -0.05
Q 11.05 0.4 10.35 1.25 9.2 2.45 8.65 3.15 7.65 4.45 8.35 4.8 9.5 5.35 15.6 5.8 14.8 6.7 14.25 7.65 13.1 9.65 14.2 10.1 15.45 10.65 22.2 10.6 28.7 10.55 31.7 10.1 33.7 9.8 35.3 9.45 39.55 8.45 41.4 6.85 40.75 7.05 40.05 7.2 38.45 7.55 36.45 7.85 33.45 8.3 26.95 8.35 20.2 8.4 18.95 7.85 17.85 7.4 19 5.4 19.55 4.45 20.35 3.55 14.25 3.1 13.1 2.55 12.4 2.2 13.4 0.9 13.95 0.2 15.1 -1 15.8 -1.85 13.1 -2.3
L 12.65 -5.4 10.4 -7.15 11.55 -9.5
Q 12 -10.25 12.45 -10.75 11.25 -10.5 9.9 -10.15 Z"/>
</g>

<g id="jelly_donut_0_Layer0_0_FILL">
<path fill="#C10202" stroke="none" d="
M -1.85 -14.2
Q -2.2865234375 -15.2 -2.9 -15.2 -3.2724609375 -15.2 -3.6 -14.85 -3.8505859375 -14.548828125 -4.1 -14.05 -4.193359375 -13.801953125 -4.3 -13.5 -4.6666015625 -12.3669921875 -4.8 -10.95 -4.85 -10.2005859375 -4.85 -9.4 -4.85 -7 -4.3 -5.3 -4.000390625 -4.4513671875 -3.65 -4.05 -3.75 -3.267578125 -3.75 -2.4 -3.75 -0.45 -3.25 0.95 -2.7 2.35 -2 2.35 -1.3 2.35 -0.8 0.95 -0.25 -0.45 -0.25 -2.4 -0.25 -4.35 -0.8 -5.75 -0.9857421875 -6.2703125 -1.2 -6.6 -0.95 -7.853125 -0.95 -9.4 -0.95 -10.1755859375 -1.05 -10.9 -1.1439453125 -12.3494140625 -1.55 -13.5 -1.64765625 -13.8017578125 -1.75 -14.05 -1.783203125 -14.127734375 -1.85 -14.2 Z"/>
</g>

<path id="jelly_donut_0_Layer3_0_1_STROKES" stroke="#000000" stroke-width="2" stroke-linejoin="round" stroke-linecap="round" fill="none" d="
M 23.85 -13.575
Q 25.56953125 -14.4400390625 26.2 -14.9 26.6 -15.2 26.95 -15.45 26.590625 -16.2880859375 26.1 -17.125 26.05 -17.2162109375 26 -17.3 25.9296875 -17.4212890625 25.85 -17.55 24.9 -19 23.45 -20.35 18.85 -24.55 15.35 -25.1 1.7 -28.85 -12.55 -25.65 -19.05 -24.55 -23.65 -20.35 -25 -19.05 -25.95 -17.65 -26.85 -16.3 -27.4 -14.75
M -27.7 -13.875
L -27.7 -13.825
M 3.175 -4.075
L 0.95 -3.95 -0.35 -3.85 -0.375 -3.875
Q -5.6423828125 -3.5576171875 -7.25 -4.15 -13.087890625 -6.31171875 -14.975 -6.575 -16.86171875 -6.83515625 -17.75 -5.15 -18.649609375 -3.4654296875 -21.325 -1.425 -22.5375 -0.501171875 -23.625 0.175 -19.0248046875 4.402734375 -12.25 5.15 -6.0408203125 5.6177734375 2.425 5.35
M 7.55 -3.15
L 7.5 -3.15 6.325 -3.175
M 25.3 -2.175
Q 28.05 -5.729296875 28.05 -10.05
L 28.05 -10.1
Q 28.05 -10.2 28.05 -10.3 28 -13.05 26.95 -15.45
M 2.425 5.35
Q 3.489453125 5.3203125 4.6 5.275
M -27.7 -13.825
Q -28.2 -12.0833984375 -28.2 -10.65
L -28.2 -10.05
Q -28.2 -9.8900390625 -28.2 -9.725 -27.836328125 -11.7990234375 -27.7 -13.825 Z
M -26.025 0.3
Q -26.0021484375 0.763671875 -27.875 -1 -29.753515625 -2.76875 -29.075 -5.725 -29.024609375 -5.9421875 -28.975 -6.15 -28.8158203125 -7.7623046875 -28.2 -9.725
M -26.025 0.3
L -24.175 0.525
Q -24.0345703125 -0.2091796875 -23.65 0.15
L -23.625 0.175
M -28.975 -6.15
Q -29.4490234375 -1.4265625 -26.025 0.3"/>

<path id="jelly_donut_0_Layer3_0_2_STROKES" stroke="#000000" stroke-width="1.5" stroke-linejoin="round" stroke-linecap="round" fill="none" d="
M 3.35 -10.975
Q 3.5203125 -11.2568359375 3.75 -11.5 3.85 -11.6 3.95 -11.7 4.25 -12 4.65 -12.15 5.25 -12.45 5.95 -12.45 6.55 -12.45 7.05 -12.25 7.15 -13.3 7.9 -14.1 7.95 -14.15 8 -14.2 8.8 -14.95 9.9 -14.95 10.65 -14.95 11.25 -14.6 11.55 -14.4 11.85 -14.1 11.9 -14.05 11.9 -13.95 12.05 -14.9 12.55 -15.6 12.55 -15.65 12.65 -15.7 13.3 -16.55 14.25 -16.55 15.2 -16.55 15.85 -15.7 16.2 -15.15 16.35 -14.6 16.4 -14.5 16.3 -14.45 16.45 -14.45 16.5 -14.6 16.55 -15.3 17.1 -15.85 17.65 -16.65 18.5 -16.65 19.3 -16.65 19.9 -15.85 19.95 -15.75 20.05 -15.7 20.1 -15.5 20.2 -15.3 20.25 -15.4 20.3 -15.5 20.45 -15.7 20.55 -15.8 21.05 -16.55 21.8 -16.55 22.2 -16.55 22.6 -16.2 22.872265625 -15.9619140625 23.225 -15.55 23.37421875 -15.3736328125 23.55 -15.15 23.98515625 -14.59609375 23.75 -13.575 23.701953125 -13.4142578125 23.65 -13.25
M 3.35 -10.975
Q 3.0962890625 -10.55546875 2.975 -10.05 2.86640625 -9.6568359375 2.85 -9.2 2.81640625 -8.863671875 4.05 -8.55 4.6501953125 -8.397265625 4.05 -7.9 2.8333984375 -6.399609375 3.05 -4.575 3.0857421875 -4.3296875 3.175 -4.075 3.2677734375 -3.8341796875 3.4 -3.6 3.6 -3.65 3.9 -3.65
L 4.3 -3.65
Q 6 -2.65 6.95 -2.85
M 7.85 -3.65
Q 7.95 -3.85 8 -4.1 8.2 -3.8 8.45 -3.5
M 12.4 -0.5
Q 12.7109375 -0.3099609375 12.975 -0.15 14.1220703125 0.5474609375 14.325 0.65
L 14.35 0.65
M 4.9 5.15
L 5 5.25
Q 9.1 5.15 13.25 4.85 18 4.2 20.2 2.85 22.3 1.4 23.2 1.25 23.95 1.05 24.95 -1.15 24.9884765625 -1.2654296875 25.3 -2.175 25.3845703125 -2.453515625 25.5 -2.8 25.95 -4.3 25.7 -7.15
M 24.15 -11.7
Q 23.9 -11.85 23.65 -11.95
L 23.55 -13
Q 23.5998046875 -13.13125 23.65 -13.25
M 7.525 -3.175
L 7.5 -3.15
Q 7.2630859375 -2.9283203125 6.95 -2.85
M 7.85 -3.65
Q 7.71484375 -3.3572265625 7.525 -3.175
M 12.4 -0.5
Q 12.1 -0.7 11.7 -0.9 9.6 -2.25 8.45 -3.5
M 24.15 -11.7
Q 26.3 -10.3 25.7 -7.15"/>

<path id="jelly_donut_0_Layer2_0_1_STROKES" stroke="#000000" stroke-width="1" stroke-linejoin="round" stroke-linecap="round" fill="none" d="
M -6.65 -23.05
Q -4.1 -22.65 -2.2 -20.75 -0.35 -18.85 -0.7 -16.45 -1.1 -14.1 -3.25 -12.5 -2.3 -20.3 -11 -22.2 -9.25 -23.5 -6.65 -23.05 Z"/>

<path id="jelly_donut_0_Layer1_0_1_STROKES" stroke="#000000" stroke-width="2" stroke-linejoin="round" stroke-linecap="round" fill="none" d="
M 41.4 6.85
Q 39.55 8.45 35.3 9.45 33.7 9.8 31.7 10.1 28.7 10.55 22.2 10.6 15.45 10.65 14.2 10.1 13.1 9.65 14.25 7.65 14.8 6.7 15.6 5.8 9.5 5.35 8.35 4.8 7.65 4.45 8.65 3.15 9.2 2.45 10.35 1.25 11.05 0.4 8.35 -0.05
L 7.9 -3.15 6.3 -4.35 6.8 -7.25
Q 8.3 -9.7 9.9 -10.15 11.25 -10.5 12.45 -10.75 19.4 -12.3 21 -10 22.15 -8.3 22.75 -5.55 23.15 -3.5 23.15 -1.6 22.95 0.35 23.05 1.1 23.3 2.4 25 2.4 32 2.4 35.3 2.85 36.1 2.95 36.7 3.1 40.8 4.1 40.9 4.1 43.15 4.95 41.85 6.4 41.65 6.65 41.4 6.85 Z"/>

<path id="jelly_donut_0_Layer0_0_1_STROKES" stroke="#000000" stroke-width="1" stroke-linejoin="round" stroke-linecap="round" fill="none" d="
M -1.825 -14.2
Q -1.783203125 -14.127734375 -1.75 -14.05 -1.64765625 -13.8017578125 -1.55 -13.5 -1.1439453125 -12.3494140625 -1.025 -10.875 -0.95 -10.1755859375 -0.95 -9.4 -0.95 -7.853125 -1.2 -6.6 -0.9857421875 -6.2703125 -0.8 -5.75 -0.25 -4.35 -0.25 -2.4 -0.25 -0.45 -0.8 0.95 -1.3 2.35 -2 2.35 -2.7 2.35 -3.25 0.95 -3.75 -0.45 -3.75 -2.4 -3.75 -3.267578125 -3.65 -4.025 -4.000390625 -4.4513671875 -4.3 -5.3 -4.85 -7 -4.85 -9.4 -4.85 -10.2005859375 -4.8 -10.925 -4.6666015625 -12.3669921875 -4.3 -13.5 -4.193359375 -13.801953125 -4.075 -14.05 -3.8505859375 -14.548828125 -3.6 -14.825"/>

<path id="jelly_donut_0_Layer0_0_2_STROKES" stroke="#000000" stroke-width="1.5" stroke-linejoin="round" stroke-linecap="round" fill="none" d="
M 1.75 -24.1
L 3.15 -23.55 4.15 -24.75
M 5.05 -22.85
L 3.15 -23.55 2.4 -21.7
M 7.45 -17.45
L 5.65 -18.2 4.25 -17
M 3.75 -19.1
L 5.65 -18.2 6.7 -19.45"/>
</defs>

<g transform="matrix( 6.97314453125, 0, 0, 6.97314453125, 233.95,415.7) ">
<g transform="matrix( 1, 0, 0, 1, 0,0) ">
<use xlink:href="#jelly_donut_0_Layer3_0_FILL"/>

<use xlink:href="#jelly_donut_0_Layer3_0_1_STROKES"/>

<use xlink:href="#jelly_donut_0_Layer3_0_2_STROKES"/>
</g>

<g transform="matrix( 1, 0, 0, 1, 0,0) ">
<use xlink:href="#jelly_donut_0_Layer2_0_FILL"/>

<use xlink:href="#jelly_donut_0_Layer2_0_1_STROKES"/>
</g>

<g transform="matrix( 1, 0, 0, 1, 0,0) ">
<use xlink:href="#jelly_donut_0_Layer1_0_FILL"/>

<use xlink:href="#jelly_donut_0_Layer1_0_1_STROKES"/>
</g>

<g transform="matrix( 1, 0, 0, 1, 0,0) ">
<use xlink:href="#jelly_donut_0_Layer0_0_FILL"/>

<use xlink:href="#jelly_donut_0_Layer0_0_1_STROKES"/>

<use xlink:href="#jelly_donut_0_Layer0_0_2_STROKES"/>
</g>
</g>
</svg>
