
<svg xmlns="http://www.w3.org/2000/svg" version="1.1" xmlns:xlink="http://www.w3.org/1999/xlink" preserveAspectRatio="none" x="0px" y="0px" width="560px" height="544px" viewBox="0 0 560 544">
<defs>
<radialGradient id="Gradient_1" gradientUnits="userSpaceOnUse" cx="0" cy="0" r="35.19376942372045" fx="0" fy="0" gradientTransform="matrix( 0.9831285641338479, -0.182915899757562, 0.17403648714797162, 0.7412533646486057, 15.75,57.2) " spreadMethod="pad">
<stop  offset="64.31372549019608%" stop-color="#EAF4EE"/>

<stop  offset="90.98039215686275%" stop-color="#99FF00"/>
</radialGradient>

<g id="Duplicate_Items_Folder_leg_suit_copy_14_0_Layer2_0_FILL">
<path fill="#FEE4AB" stroke="none" d="
M -6.75 -4.95
L -6.65 -4.9 -3.15 -5.8 -6.75 -4.95 Z"/>

<path fill="#F7DFAA" stroke="none" d="
M -3.5 -45.9
Q -7.7482421875 -47.4515625 -11.3 -46.65 -27.8 -27.55 -13.9 -5.25
L -12.55 -4.05 -12.45 -4.05 -12.6 -4.8 -7.25 -5.65 -7.35 -6.5
Q -14.2029296875 -22.730078125 -3.5 -45.9 Z"/>

<path fill="#A5B9C0" stroke="none" d="
M 3.3 14.2
L 0.95 14.65 0.6 14.75 0.65 15.1 3.35 14.85 3.3 14.2 Z"/>

<path fill="#EDBD41" stroke="none" d="
M 6.85 -8.1
L 18.3 -27.7
Q 5.751953125 -42.4421875 -3.5 -45.9 -14.2029296875 -22.730078125 -7.35 -6.5
L -7.25 -5.65 -7 -5.7
Q -6.9033203125 -5.4861328125 -6.8 -5.3
L -6.75 -4.95 -3.15 -5.8 2.65 -7.2 3.85 -7.5 4.45 -7.65 4.45 -7.5 6.85 -8.1 Z"/>

<path fill="#000000" stroke="none" d="
M 3.9 -7.2
L 3.9 -7.4 2.65 -7.2 -3.15 -5.8 -6.65 -4.9 -6.75 -4.95 -6.8 -5.3
Q -6.9033203125 -5.4861328125 -7 -5.7
L -7.25 -5.65 -12.6 -4.8 -12.45 -4.05 -8.1 16 -6.55 15.8 -6.4 16.9 -1.4 16 -1.55 15.15 0.95 14.65 3.3 14.2 5.85 13.75 3.9 -7.2 Z"/>
</g>

<g id="Duplicate_Items_Folder_right_shoe_copy_10_0_Layer1_0_FILL">
<path fill="#CCCCCC" stroke="none" d="
M 4.45 18.05
L 3.3 7.05 -2 7.35 -0.8 18.35 4.45 18.05 Z"/>
</g>

<g id="Duplicate_Items_Folder_right_shoe_copy_10_0_Layer0_0_FILL">
<path fill="#000000" stroke="none" d="
M 6.4 -7.2
Q 6.2302734375 -7.252734375 3.8 -8 1.3595703125 -8.6939453125 -5.15 -7.5 -4.99921875 -7.47890625 -4.85 -7.45 -9.26328125 -6.5482421875 -13.1 -3.75 -16.945703125 -0.95078125 -16.75 4.1 -16.75 4.45 -16.7 4.85 -16.75 4.85 -16.8 4.85 -17.75 6.85 -17.7 9 -17.65 9.5 -17.6 9.95 0.5 15.1 17.5 8.7 17.55 8.25 17.5 7.75 17.45 5.35 16.15 3.35 16.05 3.35 15.95 3.4 15.95 3.2 15.95 2.95 15.75 -2.1 11.1 -5.05 9.025390625 -6.4931640625 6.4 -7.2
M 0.45 -5.3
L 1.9 -3.75 0.45 -5.3 -1.95 -3.3 0.45 -5.3 -1.05 -7 0.45 -5.3 2.2 -6.8 0.45 -5.3
M 10.5 5.65
Q 11.95 5.2 13.45 4.75
L 14.55 8.8
Q 12.65 9.35 11.3 9.65
L 10.5 5.65
M 16.75 6.9
Q 16.8 7.95 16.85 8.35 16.1 8.55 15.2 8.6
L 14.3 4.45
Q 14.9 4.25 15.45 4.1 16.65 5.85 16.75 6.9
M 6.55 3.05
L 6.55 3.1
Q 6.55 3.2 5.8 3.35 5.1 3.55 1.1 3.9 -2.9 4.3 -4.85 3.95 -6.8 3.6 -6.8 3.5 -6.85 2.15 -5.25 1.55 -3.7 0.9 -0.75 0.65 2.15 0.4 4.3 1.05 6.5 1.7 6.55 3.05
M 1.05 7.3
L 1.2 10.9
Q -0.4 10.95 -2.5 11.05
L -2.4 7.4
Q -0.7 7.4 1.05 7.3
M 2.4 10.8
L 1.95 7.2
Q 3.7 7.05 5.5 6.75
L 6.25 10.45
Q 3.95 10.7 2.4 10.8
M 7.25 10.3
L 6.35 6.6
Q 7.95 6.25 9.65 5.9
L 10.45 9.75
Q 8.4 10.15 7.25 10.3
M -7 10.95
L -6.7 7.15
Q -5.05 7.3 -3.35 7.4
L -3.8 11.1
Q -4.85 10.9 -7 10.95
M -7.55 7.05
L -7.95 10.85
Q -9.1 10.6 -10.5 10.5
L -10.25 6.65
Q -8.95 6.85 -7.55 7.05
M -15.45 9.85
Q -16.2 9.65 -16.85 9.55 -16.9 9.55 -16.95 8.45 -16.95 7.35 -15.8 5.4 -15.35 5.5 -14.85 5.6
L -15.45 9.85
M -11.75 10.35
Q -13 10.2 -14.3 10
L -14.25 5.8
Q -12.75 6.15 -11.15 6.45
L -11.75 10.35 Z"/>

<path fill="#CCCCCC" stroke="none" d="
M -14.3 10
Q -13 10.2 -11.75 10.35
L -11.15 6.45
Q -12.75 6.15 -14.25 5.8
L -14.3 10
M -16.85 9.55
Q -16.2 9.65 -15.45 9.85
L -14.85 5.6
Q -15.35 5.5 -15.8 5.4 -16.95 7.35 -16.95 8.45 -16.9 9.55 -16.85 9.55
M -7.95 10.85
L -7.55 7.05
Q -8.95 6.85 -10.25 6.65
L -10.5 10.5
Q -9.1 10.6 -7.95 10.85
M -6.7 7.15
L -7 10.95
Q -4.85 10.9 -3.8 11.1
L -3.35 7.4
Q -5.05 7.3 -6.7 7.15
M 6.35 6.6
L 7.25 10.3
Q 8.4 10.15 10.45 9.75
L 9.65 5.9
Q 7.95 6.25 6.35 6.6
M 1.95 7.2
L 2.4 10.8
Q 3.95 10.7 6.25 10.45
L 5.5 6.75
Q 3.7 7.05 1.95 7.2
M 1.2 10.9
L 1.05 7.3
Q -0.7 7.4 -2.4 7.4
L -2.5 11.05
Q -0.4 10.95 1.2 10.9
M 16.85 8.35
Q 16.8 7.95 16.75 6.9 16.65 5.85 15.45 4.1 14.9 4.25 14.3 4.45
L 15.2 8.6
Q 16.1 8.55 16.85 8.35
M 13.45 4.75
Q 11.95 5.2 10.5 5.65
L 11.3 9.65
Q 12.65 9.35 14.55 8.8
L 13.45 4.75 Z"/>

<path fill="#666666" stroke="none" d="
M 6.55 3.1
L 6.55 3.05
Q 6.5 1.7 4.3 1.05 2.15 0.4 -0.75 0.65 -3.7 0.9 -5.25 1.55 -6.85 2.15 -6.8 3.5 -6.8 3.6 -4.85 3.95 -2.9 4.3 1.1 3.9 5.1 3.55 5.8 3.35 6.55 3.2 6.55 3.1 Z"/>
</g>

<g id="leg_suit_ripped_0_Layer3_0_FILL">
<path fill="#FEE4AB" stroke="none" d="
M -7.25 -5.8
L -7.4 -6.9 -7.4 -5.8 -7.25 -5.8 Z"/>

<path fill="#F7DFAA" stroke="none" d="
M -3.5 -45.9
Q -7.7482421875 -47.4515625 -11.3 -46.65 -27.8 -27.55 -13.9 -5.25
L -12.55 -4.05 -10.8 -3.75 -11.15 -5.35 -7.6 -5.75
Q -14.5697265625 -21.9369140625 -3.5 -45.9 Z"/>

<path fill="#A5B9C0" stroke="none" d="
M 1.15 14.25
L 0.55 14.3 0.65 15.1 1.35 15.05 1.15 14.25
M 3.35 14.85
L 3.35 14.8 2.3 14.95 3.35 14.85 Z"/>

<path fill="#000000" stroke="none" d="
M 5.4 -7.75
L 5.35 -8.15 -7.4 -5.25 -7.4 -5.8 -7.6 -5.75 -11.15 -5.35 -10.8 -3.75 -6.3 15.25 -3.05 14.8 -2.95 15.5 0.65 15.1 0.55 14.3 1.15 14.25 1.35 15.05 1.35 15.1 2.3 14.95 3.35 14.8 6.3 14.35 6.1 13.25 7.65 13 5.4 -7.75 Z"/>

<path fill="#EDBB40" stroke="none" d="
M 5.35 -8.15
L 5.4 -7.75 5.55 -8.2 18.3 -27.7
Q 5.751953125 -42.4421875 -3.5 -45.9 -14.5697265625 -21.9369140625 -7.6 -5.75
L -7.4 -5.8 -7.4 -6.9 -7.25 -5.8 -7.4 -5.8 -7.4 -5.25 5.35 -8.15 Z"/>
</g>

<g id="leg_suit_ripped_0_Layer0_0_FILL">
<path fill="#000000" stroke="none" d="
M -13.2 -33.8
Q -13.3 -33.85 -13.5 -33.75 -13.7 -33.65 -13.8 -33.4
L -15.8 -28.5 -19.4 -30.25
Q -19.7 -30.4 -19.95 -30.3 -20.15 -30.25 -20.2 -30 -20.4 -29.8 -20.3 -29.55
L -19.55 -25.75 -21.8 -22.9
Q -22.381640625 -22.990625 -21.4 -22.25 -20.3638671875 -21.45703125 -21.65 -21.95 -22.8955078125 -22.39765625 -20.8 -21.5
L -18.95 -20 -20.55 -14.75
Q -20.3 -15.05 -19.7 -15.5 -18.1 -16.65 -13.85 -18.8
L -10.05 -18.9
Q -10 -19.65 -10.05 -19.8
L -10.05 -23.4 -5.3 -25.5
Q -5.15 -25.6 -5.05 -25.8 -4.85 -26 -4.95 -26.2 -4.95 -26.35 -5.1 -26.5 -5.25 -26.7 -5.45 -26.75
L -11.35 -27.9 -12.55 -33.3
Q -12.6 -33.5 -12.8 -33.65 -12.95 -33.8 -13.2 -33.8
M -18.5 -25
Q -18.3 -25.05 -18.25 -25.2 -18.15 -25.45 -18.2 -25.6
L -18.85 -28.6 -15.75 -27.1
Q -15.6 -27.05 -15.4 -27.1 -15.3 -27.15 -15.15 -27.2 -15 -27.3 -14.9 -27.45
L -13.4 -31.1 -12.85 -28.9 -12.5 -27.2
Q -12.45 -27 -12.3 -26.9 -12.15 -26.75 -11.95 -26.7
L -9.75 -26.2 -7.65 -25.85 -10.95 -24.45
Q -11.1 -24.35 -11.2 -24.15 -11.3 -24.05 -11.3 -23.8
L -11.3 -20.05 -14.95 -19.9 -19.1 -16.9 -17.8 -19.4 -17.7 -19.7
Q -17.55 -19.95 -17.6 -20.15 -17.65 -20.25 -17.65 -20.35 -17.7 -20.45 -17.7 -20.5 -17.75 -20.75 -17.95 -20.9
L -20.2 -22.25 -21.2 -22.9 -18.5 -25
M -16 -21.2
Q -16.2 -21.3 -16.4 -21.25 -16.65 -21.2 -16.75 -21 -16.85 -20.8 -16.8 -20.55 -16.75 -20.4 -16.7 -20.3 -16.6 -20.3 -16.55 -20.25 -16.35 -20.15 -16.1 -20.2 -15.9 -20.25 -15.8 -20.45 -15.7 -20.6 -15.75 -20.85 -15.8 -21 -15.85 -21.05 -15.95 -21.2 -16 -21.2
M -17.15 -24.05
Q -17.35 -24.2 -17.6 -24.15 -17.85 -24.1 -18 -23.85 -18.1 -23.65 -18.05 -23.4 -17.95 -23.15 -17.75 -23 -17.5 -22.85 -17.25 -22.9 -17 -22.95 -16.9 -23.2 -16.8 -23.45 -16.9 -23.7 -16.95 -23.85 -16.95 -23.95 -17.05 -24.05 -17.15 -24.05
M -13 -21.45
Q -13.25 -21.35 -13.35 -21.2 -13.45 -21.05 -13.4 -20.85 -13.35 -20.65 -13.15 -20.5 -12.95 -20.4 -12.7 -20.5 -12.45 -20.55 -12.35 -20.75 -12.3 -20.85 -12.25 -20.95 -12.25 -21.05 -12.3 -21.1
L -12.3 -21.15
Q -12.35 -21.35 -12.55 -21.45 -12.75 -21.5 -13 -21.45
M -14 -23.25
Q -13.75 -23.3 -13.65 -23.5 -13.55 -23.7 -13.6 -23.85 -13.65 -24.05 -13.85 -24.15 -14 -24.25 -14.25 -24.2 -14.45 -24.15 -14.6 -23.95 -14.7 -23.75 -14.65 -23.55 -14.6 -23.4 -14.4 -23.3 -14.2 -23.2 -14 -23.25
M -12.2 -26.25
Q -12.4 -26.2 -12.55 -26 -12.65 -25.8 -12.6 -25.55 -12.55 -25.35 -12.35 -25.25 -12.1 -25.15 -11.9 -25.2 -11.65 -25.3 -11.55 -25.45 -11.4 -25.7 -11.45 -25.9 -11.5 -26.15 -11.75 -26.2 -11.95 -26.35 -12.2 -26.25
M -13.1 -28.7
Q -13.1 -28.75 -13.1 -28.85 -13.15 -29 -13.3 -29.1 -13.45 -29.15 -13.6 -29.1 -13.75 -29.05 -13.85 -28.9 -13.9 -28.8 -13.85 -28.65 -13.85 -28.5 -13.7 -28.4 -13.55 -28.35 -13.45 -28.35 -13.4 -28.35 -13.35 -28.35 -13.2 -28.4 -13.15 -28.6 -13.1 -28.65 -13.1 -28.7
M -15.8 -26.65
Q -15.85 -26.9 -16.05 -27 -16.25 -27.05 -16.5 -27 -16.7 -26.9 -16.8 -26.75 -16.9 -26.6 -16.85 -26.35 -16.75 -26.1 -16.55 -25.95 -16.4 -25.85 -16.2 -25.95 -15.95 -26 -15.8 -26.2 -15.7 -26.4 -15.8 -26.65 Z"/>

<path fill="#FF66CC" stroke="none" d="
M -7.65 -25.85
L -9.75 -26.2
Q -11.9 -23.45 -15.85 -21.05 -15.8 -21 -15.75 -20.85 -15.7 -20.6 -15.8 -20.45 -15.9 -20.25 -16.1 -20.2 -16.35 -20.15 -16.55 -20.25 -16.6 -20.3 -16.7 -20.3
L -17.8 -19.4 -19.1 -16.9 -14.95 -19.9 -11.3 -20.05 -11.3 -23.8
Q -11.3 -24.05 -11.2 -24.15 -11.1 -24.35 -10.95 -24.45
L -7.65 -25.85
M -13.35 -21.2
Q -13.25 -21.35 -13 -21.45 -12.75 -21.5 -12.55 -21.45 -12.35 -21.35 -12.3 -21.15
L -12.3 -21.1
Q -12.25 -21.05 -12.25 -20.95 -12.3 -20.85 -12.35 -20.75 -12.45 -20.55 -12.7 -20.5 -12.95 -20.4 -13.15 -20.5 -13.35 -20.65 -13.4 -20.85 -13.45 -21.05 -13.35 -21.2 Z"/>

<path fill="#99CC00" stroke="none" d="
M -12.85 -28.9
Q -13 -28.8 -13.1 -28.7 -13.1 -28.65 -13.15 -28.6 -13.2 -28.4 -13.35 -28.35 -13.4 -28.35 -13.45 -28.35 -14.95 -26.9 -15.6 -24.65
L -16.95 -23.95
Q -16.95 -23.85 -16.9 -23.7 -16.8 -23.45 -16.9 -23.2 -17 -22.95 -17.25 -22.9 -17.5 -22.85 -17.75 -23 -17.95 -23.15 -18.05 -23.4
L -20.2 -22.25 -17.95 -20.9
Q -17.75 -20.75 -17.7 -20.5 -17.7 -20.45 -17.65 -20.35 -17.65 -20.25 -17.6 -20.15 -17.55 -19.95 -17.7 -19.7
L -17.8 -19.4 -16.7 -20.3
Q -16.75 -20.4 -16.8 -20.55 -16.85 -20.8 -16.75 -21 -16.65 -21.2 -16.4 -21.25 -16.2 -21.3 -16 -21.2 -15.95 -21.2 -15.85 -21.05 -11.9 -23.45 -9.75 -26.2
L -11.95 -26.7
Q -12.15 -26.75 -12.3 -26.9 -12.45 -27 -12.5 -27.2
L -12.85 -28.9
M -12.55 -26
Q -12.4 -26.2 -12.2 -26.25 -11.95 -26.35 -11.75 -26.2 -11.5 -26.15 -11.45 -25.9 -11.4 -25.7 -11.55 -25.45 -11.65 -25.3 -11.9 -25.2 -12.1 -25.15 -12.35 -25.25 -12.55 -25.35 -12.6 -25.55 -12.65 -25.8 -12.55 -26
M -13.65 -23.5
Q -13.75 -23.3 -14 -23.25 -14.2 -23.2 -14.4 -23.3 -14.6 -23.4 -14.65 -23.55 -14.7 -23.75 -14.6 -23.95 -14.45 -24.15 -14.25 -24.2 -14 -24.25 -13.85 -24.15 -13.65 -24.05 -13.6 -23.85 -13.55 -23.7 -13.65 -23.5 Z"/>

<path fill="#6699FF" stroke="none" d="
M -18.25 -25.2
Q -18.3 -25.05 -18.5 -25
L -21.2 -22.9 -20.2 -22.25 -18.05 -23.4
Q -18.1 -23.65 -18 -23.85 -17.85 -24.1 -17.6 -24.15 -17.35 -24.2 -17.15 -24.05 -17.05 -24.05 -16.95 -23.95
L -15.6 -24.65
Q -14.95 -26.9 -13.45 -28.35 -13.55 -28.35 -13.7 -28.4 -13.85 -28.5 -13.85 -28.65 -13.9 -28.8 -13.85 -28.9 -13.75 -29.05 -13.6 -29.1 -13.45 -29.15 -13.3 -29.1 -13.15 -29 -13.1 -28.85 -13.1 -28.75 -13.1 -28.7 -13 -28.8 -12.85 -28.9
L -13.4 -31.1 -14.9 -27.45
Q -15 -27.3 -15.15 -27.2 -15.3 -27.15 -15.4 -27.1 -15.6 -27.05 -15.75 -27.1
L -18.85 -28.6 -18.2 -25.6
Q -18.15 -25.45 -18.25 -25.2
M -16.05 -27
Q -15.85 -26.9 -15.8 -26.65 -15.7 -26.4 -15.8 -26.2 -15.95 -26 -16.2 -25.95 -16.4 -25.85 -16.55 -25.95 -16.75 -26.1 -16.85 -26.35 -16.9 -26.6 -16.8 -26.75 -16.7 -26.9 -16.5 -27 -16.25 -27.05 -16.05 -27 Z"/>
</g>

<g id="Duplicate_Items_Folder_body_suit_copy_19_0_Layer1_0_FILL">
<path fill="#000000" stroke="none" d="
M 60.25 68.6
L 60.25 67.95 52.7 5.35 46.35 -22.6
Q -1.6 -42.35 -48.3 -21.55
L -59.9 58.65
Q -50.8 63.5 -41.35 67 5.3 84.25 60.25 68.6
M 47.9 31.5
L 48.35 36.05 49 42.45 50.9 51.85 51.8 56.4
Q -0.4228515625 67.2685546875 -51.9 52.1
L -51.25 47.6 -49 32 -48.35 27.5
Q 5.2517578125 44.6267578125 47.9 31.5 Z"/>

<path fill="#F1BF44" stroke="none" d="
M 51.8 56.4
L 50.9 51.85
Q 1.0224609375 61.725 -51.25 47.6
L -51.9 52.1
Q -0.4228515625 67.2685546875 51.8 56.4
M 48.35 36.05
L 47.9 31.5
Q 5.2517578125 44.6267578125 -48.35 27.5
L -49 32
Q 3.5365234375 49.7037109375 48.35 36.05 Z"/>

<path fill="#FFFFFF" stroke="none" d="
M 49 42.45
L 48.35 36.05
Q 3.5365234375 49.7037109375 -49 32
L -51.25 47.6
Q 1.0224609375 61.725 50.9 51.85
L 49 42.45 Z"/>
</g>

<g id="Duplicate_Items_Folder_head_copy_36_0_Layer15_0_FILL">
<path fill="#000000" stroke="none" d="
M -73.65 96.45
L -74.7 96.5 -79.65 101.75 -81.4 94.6 -81.85 94.6 -81.85 95.05 -88.75 100.6 -89.05 121.75 -81.45 119.1 -81 112.4 -70.3 110.2 -73.7 97.35 -73.65 96.45 Z"/>

<path fill="#E1E1E1" stroke="none" d="
M -63.3 38.1
L -48.65 34.5 -48.8 33.15 -45.15 23.5 -65.65 29.45 -66.25 30.75 -84.9 50.1 -81.85 94.6 -81.4 94.6 -79.65 101.75 -74.7 96.5 -73.65 96.45 -75.8 55.2 -64.3 38.85 -63.3 38.1 Z"/>
</g>

<g id="Duplicate_Items_Folder_head_copy_36_0_Layer13_0_FILL">
<path fill="#000000" stroke="none" d="
M 57.45 -26.45
Q 36.35 -51.7 1.15 -57.4 -34.05 -63.1 -59.85 -39.35 -85.65 -15.65 -81.45 23.95 -77.3 63.55 -56.05 86.8 -34.8 110.05 -3.85 111.15 27.1 112.25 45.8 93.15 64.5 74 71.5 36.4 78.5 -1.25 57.45 -26.45 Z"/>
</g>

<g id="Duplicate_Items_Folder_head_copy_36_0_Layer12_0_FILL">
<path fill="#000000" stroke="none" d="
M 24.1 -29.85
Q 7.45 -36.5 2.55 -36.75 0.7 -36.8 -0.45 -36.95 -0.55 -36.9 -0.7 -36.9 -2.6 -37 -2.8 -37
L -2.8 -36.95
Q -4.25 -36.8 -7.35 -36.35 -13 -35.5 -23.75 -33.55 -23.85 -33.55 -23.9 -33.6 -24.25 -33.45 -24.55 -33.45 -27.7 -32.9 -30.65 -32.15 -34 -31.3 -37.2 -29.9 -47.05 -25.95 -54.85 -18.8 -67.65 -7.3 -71.75 30.9 -75.7 68.85 -58.75 88.8 -41.85 108.6 -30.95 114.35 -20.1 120.05 -12.8 120.3 -5.55 120.55 -5.85 120.4
L -2.25 117.7
Q -2.5 120.7 -2.35 120.7 -2.1 120.7 -2.15 117.75
L 0.05 117.95
Q 12.5 122.45 20.65 117.35 28.7 112.35 35.9 106.75 43.15 101.2 54.15 86.85 65.25 72.5 64.35 34.85 63.5 -2.85 52.05 -13.05 46.6 -17.85 40.2 -21.8 32.8 -26.35 24.1 -29.85
M 21.2 -23.45
Q 30.45 -19.7 37.95 -14.8 42.45 -11.7 46.35 -8.3 56.55 0.9 57.6 37.05 58.75 72.9 48.65 85.45 38.7 97.95 29.8 104.6 23.2 109.45 15.95 113.2 8.65 116.9 -2.05 111.8
L -2.1 111.85
Q -2.25 111.8 -2.5 111.85 -2.75 111.8 -2.95 111.85
L -2.95 111.8
Q -3.55 112.6 -11.2 114.5 -18.95 116.45 -27.9 111.2 -36.9 105.9 -54.1 85.7 -71.35 65.55 -67.15 31.3 -62.75 -3 -53.1 -11 -43.45 -19.1 -35.85 -22.6 -35.4 -22.75 -34.85 -23 -31.85 -24.3 -28.45 -25.2 -28.45 -25.25 -28.4 -25.25 -25.55 -26.05 -22.45 -26.6 -18.6 -27.3 -15.3 -27.95 -11.1 -28.65 -8.05 -29.05 -7.95 -29.1 -7.75 -29.05 -4.35 -29.65 -2.9 -29.7
L -2.9 -29.75
Q -2.65 -29.75 1.85 -29.5 6.3 -29.4 21.2 -23.45 Z"/>

<path fill="#E9AA8A" stroke="none" d="
M -28.4 -25.25
Q -28.45 -25.25 -28.45 -25.2 -31.85 -24.3 -34.85 -23 -37.15 -17.6 -38.85 -12.4 -39.05 -11.9 -39.15 -11.5
L -35.95 -11.4 -28.4 -25.25 Z"/>

<path fill="#949CAF" stroke="none" d="
M 46.35 -8.3
Q 42.45 -11.7 37.95 -14.8 51 65.9 -1.45 106.6 -68.65 73.75 -39.15 -11.5 -39.05 -11.9 -38.85 -12.4 -37.15 -17.6 -34.85 -23 -35.4 -22.75 -35.85 -22.6 -43.45 -19.1 -53.1 -11 -62.75 -3 -67.15 31.3 -71.35 65.55 -54.1 85.7 -36.9 105.9 -27.9 111.2 -18.95 116.45 -11.2 114.5 -3.55 112.6 -2.95 111.8
L -2.95 111.85
Q -2.75 111.8 -2.5 111.85 -2.25 111.8 -2.1 111.85
L -2.05 111.8
Q 8.65 116.9 15.95 113.2 23.2 109.45 29.8 104.6 38.7 97.95 48.65 85.45 58.75 72.9 57.6 37.05 56.55 0.9 46.35 -8.3 Z"/>

<path fill="#A7ACBE" stroke="none" d="
M 37.95 -14.8
Q 30.45 -19.7 21.2 -23.45 6.3 -29.4 1.85 -29.5 -2.65 -29.75 -2.9 -29.75
L -2.9 -29.7
Q -4.35 -29.65 -7.75 -29.05 -7.95 -29.1 -8.05 -29.05 -11.1 -28.65 -15.3 -27.95 -18.6 -27.3 -22.45 -26.6 -25.55 -26.05 -28.4 -25.25
L -35.95 -11.4 -39.15 -11.5
Q -68.65 73.75 -1.45 106.6 51 65.9 37.95 -14.8 Z"/>
</g>

<g id="Duplicate_Items_Folder_head_copy_36_0_Layer11_0_FILL">
<path fill="#CC0000" stroke="none" d="
M 12.75 -14.7
L 14.35 -14.25
Q 16.7 -13.6 16.2 -10.9
L 15.45 -7.4 15.5 -5.8
Q 21.7 -2.15 24.3 -6.75 25 -9.3 23.1 -10.65 22.2 -12.75 26.25 -14.65 29.75 -16.15 31.35 -13.65 32.95 -10.85 30.05 -7.55 30.2 -5 32.45 -3.2 37.2 -1.4 38.2 -5.1
L 37.35 -9.85
Q 36.9 -14.35 39.3 -19.25
L 44.15 -33.65 -4.9 -52.15
Q -4.7 -53.4 -4.45 -54.7
L -30.15 -51.65 -24.95 -30.1 -24.9 -28.25
Q -25.35 -28.45 -25.8 -28.75 -27.6 -24.95 -20.7 -21.55
L -19.15 -19.75
Q -14.75 -16.95 -8.7 -17.1 -6.9 -17.05 -5.9 -14.45 -5.85 -11.2 -4.45 -8.8
L -5 -9.45
Q -4.55 -8.6 -6.95 -2.9
L -7 -2.9
Q -5.6 2.75 1.9 1.15 3.75 2.25 5.25 2.4 7.15 2.15 7.35 -1.65
L 4.9 -5.7
Q 3 -8.95 5.5 -12.25
L 7.45 -14.8
Q 10.2 -14.65 12.75 -14.7 Z"/>
</g>

<g id="Duplicate_Items_Folder_mouth_open_copy_4_0_Layer2_0_FILL">
<path fill="#000000" stroke="none" d="
M 2.8 -2.8
Q 2.2 -2.85 1.6 -2.9 -6.45 -3.5 -8.45 -5.2
L -8.8 -7.15
Q -11.6 -4.6 -11.15 -3.15 -10.8 -1.9 -10.45 -0.75 -8.65 5.35 -7.75 5.85 -6.85 6.4 -5.95 6.65 -4 7.3 -0.4 7.75
L 1.7 7.65 3.6 8.1
Q 7.3 8.3 9.25 8 10.3 7.95 11.3 7.5 11.65 7.4 12.4 6.3 13.35 4.9 14.85 1.95 15.1 1.35 15.4 0.75 15.75 0 16.15 -0.75 16.85 -2.1 14.15 -3.9
L 13.9 -3.25
Q 11.6 -1.9 3.5 -2.75 3.15 -2.75 2.8 -2.8 Z"/>
</g>

<g id="Duplicate_Items_Folder_mouth_open_copy_4_0_Layer1_0_FILL">
<path fill="#000000" stroke="none" d="
M -2.55 2.85
L -3.6 2.7 -3.7 3.45 -3.8 2.8 -5.4 2.8
Q -6.45 2.95 -6.45 3.05 -6.4 3.15 -6.45 4.8 -6.5 5.95 -5.9 6.25 -5.55 6.5 -5.05 6.4
L -3.5 6.2
Q -2.65 4.55 -2.55 2.85
M -3.5 3.15
L -2.85 3.15 -3.7 5.9 -4.6 6 -4.8 6.1
Q -5.9 6.15 -5.85 4.8 -5.85 3.45 -5.95 3.35 -5.9 3.3 -5.1 3.15
L -3.9 3.15 -3.8 3.9 -3.5 3.15
M 1.35 2.75
L 0.35 2.45 0.3 3.2 0.25 2.45 -1.3 2.35
Q -2.25 2.35 -2.35 2.45 -2.35 2.5 -2.35 2.75
L -2.35 2.85
Q -2.35 3.4 -2.45 4.75 -2.5 6.95 -1.2 7
L 0.2 6.9
Q 1.1 5 1.4 3.05
L 1.35 2.75
M 0.45 2.9
L 1.1 3.1 0.15 6.45 -0.65 6.5 -1.05 6.65
Q -2 6.65 -1.9 4.7 -1.8 2.95 -1.8 2.9
L -0.95 2.85 0.1 2.95 0.1 3.8 0.45 2.9
M 10.2 4.6
Q 10.2 4.3 10.25 4
L 9.15 3.85 9.1 4.5 9 3.9 7.4 3.7
Q 6.971484375 3.7388671875 6.75 3.75 6.4146484375 5.20390625 6.45 5.7 6.5 7.4 7.8 7.4
L 9.35 7.35
Q 10.05 6.05 10.2 4.6
M 7.1 5.75
Q 7 4.3 6.95 4.2 6.95 4.15 7.7 4.1
L 8.85 4.25 9 5 9.25 4.2 9.95 4.35 9.25 7.05 8.35 7.05 8.05 7.1
Q 7.15 7.1 7.1 5.75
M 10.35 4.8
L 10.4 4.6 10.35 4.6
Q 10.3 4.7 10.35 4.8 Z"/>

<path fill="#7F814F" stroke="none" d="
M -4.8 6.1
L -4.6 6
Q -5.55 4.65 -5.1 3.15 -5.9 3.3 -5.95 3.35 -5.85 3.45 -5.85 4.8 -5.9 6.15 -4.8 6.1
M -0.95 2.85
L -1.8 2.9
Q -1.8 2.95 -1.9 4.7 -2 6.65 -1.05 6.65
L -0.65 6.5
Q -1.55 4.55 -0.95 2.85
M 6.95 4.2
Q 7 4.3 7.1 5.75 7.15 7.1 8.05 7.1
L 8.35 7.05
Q 7.3 5.5 7.7 4.1 6.95 4.15 6.95 4.2 Z"/>

<path fill="#F2E9C2" stroke="none" d="
M -2.85 3.15
L -3.5 3.15 -3.8 3.9 -3.9 3.15 -5.1 3.15
Q -5.55 4.65 -4.6 6
L -3.7 5.9 -2.85 3.15
M -3.45 3.7
Q -3.45 3.5 -3.4 3.55 -3.35 3.5 -3.35 3.65 -3.3 3.7 -3.35 3.85 -3.45 4.1 -3.4 4.2 -3.5 4.25 -3.55 4.25
L -3.55 4.15
Q -3.6 4.05 -3.55 3.9 -3.5 3.7 -3.45 3.7
M -4.05 5.4
Q -4 5.25 -3.95 5.3 -3.85 5.3 -3.8 5.4 -3.8 5.45 -3.8 5.55 -3.8 5.6 -3.95 5.7 -3.95 5.8 -4 5.8 -4.1 5.75 -4.2 5.65 -4.2 5.6 -4.15 5.5 -4.2 5.4 -4.05 5.4
M -4.4 5.1
Q -4.4 5.15 -4.35 5.3 -4.4 5.35 -4.5 5.45 -4.5 5.6 -4.55 5.55 -4.65 5.5 -4.65 5.45 -4.65 5.35 -4.6 5.25 -4.65 5.15 -4.55 5 -4.55 4.95 -4.5 4.95 -4.35 5 -4.4 5.1
M 1.1 3.1
L 0.45 2.9 0.1 3.8 0.1 2.95 -0.95 2.85
Q -1.55 4.55 -0.65 6.5
L 0.15 6.45 1.1 3.1
M 0.35 4.2
Q 0.4 4.05 0.4 3.95 0.5 3.75 0.55 3.5
L 0.6 3.35
Q 0.7 3.4 0.65 3.5 0.7 3.75 0.6 3.9 0.6 4.1 0.55 4.25 0.4 4.35 0.4 4.3
L 0.35 4.2
M 0.1 5.85
Q 0.15 5.9 0.1 6 0.05 6.15 0.05 6.25 -0.1 6.2 -0.15 6.3 -0.25 6.3 -0.25 6.2 -0.35 6 -0.3 5.9 -0.25 5.85 -0.25 5.7 -0.15 5.6 -0.1 5.6 0.05 5.75 0.1 5.85
M -0.55 5.15
Q -0.4 5.3 -0.35 5.3 -0.45 5.5 -0.45 5.65 -0.45 5.7 -0.45 5.85 -0.55 5.85 -0.7 5.95 -0.75 5.9 -0.75 5.8 -0.8 5.65 -0.8 5.55 -0.7 5.35 -0.65 5.25
L -0.55 5.15
M 9.95 4.35
L 9.25 4.2 9 5 8.85 4.25 7.7 4.1
Q 7.3 5.5 8.35 7.05
L 9.25 7.05 9.95 4.35
M 8.4 6
Q 8.55 6 8.55 6.05 8.5 6.2 8.55 6.35 8.55 6.45 8.5 6.45 8.45 6.55 8.35 6.55 8.25 6.55 8.2 6.5 8.2 6.4 8.2 6.3 8.2 6.2 8.3 6.05 8.35 5.95 8.4 6
M 9.4 5.3
Q 9.4 5.35 9.35 5.35
L 9.3 5.3
Q 9.25 5.2 9.3 5.05 9.3 4.9 9.35 4.8
L 9.4 4.65
Q 9.5 4.65 9.5 4.75 9.5 4.85 9.5 5.05 9.45 5.2 9.4 5.3
M 8.95 6.35
Q 9.05 6.35 9.1 6.5 9.1 6.55 9.1 6.65 9.1 6.7 9.1 6.8 8.9 6.8 8.85 6.8 8.75 6.8 8.75 6.75 8.7 6.65 8.65 6.6 8.75 6.5 8.75 6.45 8.9 6.35 8.95 6.35 Z"/>

<path fill="#B3BF8D" stroke="none" d="
M -4.35 5.3
Q -4.4 5.15 -4.4 5.1 -4.35 5 -4.5 4.95 -4.55 4.95 -4.55 5 -4.65 5.15 -4.6 5.25 -4.65 5.35 -4.65 5.45 -4.65 5.5 -4.55 5.55 -4.5 5.6 -4.5 5.45 -4.4 5.35 -4.35 5.3
M -3.4 3.55
Q -3.45 3.5 -3.45 3.7 -3.5 3.7 -3.55 3.9 -3.6 4.05 -3.55 4.15
L -3.55 4.25
Q -3.5 4.25 -3.4 4.2 -3.45 4.1 -3.35 3.85 -3.3 3.7 -3.35 3.65 -3.35 3.5 -3.4 3.55
M -0.35 5.3
Q -0.4 5.3 -0.55 5.15
L -0.65 5.25
Q -0.7 5.35 -0.8 5.55 -0.8 5.65 -0.75 5.8 -0.75 5.9 -0.7 5.95 -0.55 5.85 -0.45 5.85 -0.45 5.7 -0.45 5.65 -0.45 5.5 -0.35 5.3
M 0.4 3.95
Q 0.4 4.05 0.35 4.2
L 0.4 4.3
Q 0.4 4.35 0.55 4.25 0.6 4.1 0.6 3.9 0.7 3.75 0.65 3.5 0.7 3.4 0.6 3.35
L 0.55 3.5
Q 0.5 3.75 0.4 3.95
M 9.35 5.35
Q 9.4 5.35 9.4 5.3 9.45 5.2 9.5 5.05 9.5 4.85 9.5 4.75 9.5 4.65 9.4 4.65
L 9.35 4.8
Q 9.3 4.9 9.3 5.05 9.25 5.2 9.3 5.3
L 9.35 5.35
M 8.55 6.05
Q 8.55 6 8.4 6 8.35 5.95 8.3 6.05 8.2 6.2 8.2 6.3 8.2 6.4 8.2 6.5 8.25 6.55 8.35 6.55 8.45 6.55 8.5 6.45 8.55 6.45 8.55 6.35 8.5 6.2 8.55 6.05 Z"/>

<path fill="#69703A" stroke="none" d="
M -3.95 5.3
Q -4 5.25 -4.05 5.4 -4.2 5.4 -4.15 5.5 -4.2 5.6 -4.2 5.65 -4.1 5.75 -4 5.8 -3.95 5.8 -3.95 5.7 -3.8 5.6 -3.8 5.55 -3.8 5.45 -3.8 5.4 -3.85 5.3 -3.95 5.3
M 0.1 6
Q 0.15 5.9 0.1 5.85 0.05 5.75 -0.1 5.6 -0.15 5.6 -0.25 5.7 -0.25 5.85 -0.3 5.9 -0.35 6 -0.25 6.2 -0.25 6.3 -0.15 6.3 -0.1 6.2 0.05 6.25 0.05 6.15 0.1 6
M 9.1 6.5
Q 9.05 6.35 8.95 6.35 8.9 6.35 8.75 6.45 8.75 6.5 8.65 6.6 8.7 6.65 8.75 6.75 8.75 6.8 8.85 6.8 8.9 6.8 9.1 6.8 9.1 6.7 9.1 6.65 9.1 6.55 9.1 6.5 Z"/>
</g>

<g id="Duplicate_Items_Folder_mouth_open_copy_4_0_Layer0_0_FILL">
<path fill="#000000" stroke="none" d="
M -3.1 -0.15
Q -2.85 -1.7095703125 -2.85 -2.7 -2.85 -5.6 -4.25 -5.6
L -5.9 -5.4
Q -6.85 -2.65 -7 0.35
L -5.85 0.55 -5.75 -0.55 -5.7 0.5 -3.95 0.7
Q -3.5298828125 0.6580078125 -3.1 -0.15
M -5.6 -1.4
L -5.95 -0.05 -6.7 -0.2 -5.75 -4.85 -4.8 -5 -4.5 -5
Q -3.5 -5.1 -3.55 -2.75 -3.5 -0.35 -3.45 -0.15 -3.45 -0.1 -4.3 0.05
L -5.55 -0.1 -5.6 -1.4
M 9.3 -3.9
Q 7.95 -4.35 7.55 -1.95 7.15 0.45 7.15 0.65 7.15 0.75 8.1 1.15
L 9.9 1.45 10.15 0.7 10.05 1.55 11.25 1.7
Q 11.5 -0.75 10.85 -3.3
L 9.3 -3.9
M 9.45 -3.4
L 9.75 -3.25 10.7 -2.9 11 1.15 10.25 1.15 10.15 -0.1 9.85 1 8.6 0.7
Q 7.85 0.35 7.85 0.3 7.85 0.2 8.15 -1.8 8.45 -3.8 9.45 -3.4
M 4.9 -4.1
Q 4.35 -4.15 3.9 -3.9 3.1037109375 -3.39453125 2.8 -0.9 2.5384765625 1.1875 2.4 1.9 2.68046875 2.0369140625 3.35 2.25
L 5.25 2.4 5.45 1.35 5.35 2.55 6.7 2.5
Q 7.05 -0.55 6.6 -3.55
L 4.9 -4.1
M 3.5 -1.35
Q 3.9 -3.75 5 -3.55
L 5.35 -3.45 6.35 -3.05 6.4 1.8 5.65 1.9 5.55 0.5 5.2 1.75 3.8 1.65
Q 3 1.35 2.95 1.3 3 1.15 3.5 -1.35 Z"/>

<path fill="#7F814F" stroke="none" d="
M -4.5 -5
L -4.8 -5
Q -3.8 -2.4 -4.3 0.05 -3.45 -0.1 -3.45 -0.15 -3.5 -0.35 -3.55 -2.75 -3.5 -5.1 -4.5 -5
M 9.75 -3.25
L 9.45 -3.4
Q 8.45 -3.8 8.15 -1.8 7.85 0.2 7.85 0.3 7.85 0.35 8.6 0.7 8.4 -1.45 9.75 -3.25
M 5 -3.55
Q 3.9 -3.75 3.5 -1.35 3 1.15 2.95 1.3 3 1.35 3.8 1.65 3.7 -0.95 5.35 -3.45
L 5 -3.55 Z"/>

<path fill="#F2E9C2" stroke="none" d="
M -5.95 -0.05
L -5.6 -1.4 -5.55 -0.1 -4.3 0.05
Q -3.8 -2.4 -4.8 -5
L -5.75 -4.85 -6.7 -0.2 -5.95 -0.05
M -5.3 -3.85
Q -5.45 -3.8 -5.5 -3.75 -5.6 -3.8 -5.65 -3.9 -5.65 -4 -5.65 -4.15 -5.6 -4.3 -5.6 -4.45 -5.45 -4.55 -5.4 -4.55 -5.3 -4.5 -5.25 -4.4 -5.2 -4.25 -5.2 -4.1 -5.3 -3.95 -5.3 -3.85
M -6.05 -1.85
Q -6 -2 -5.95 -2
L -5.95 -1.85
Q -5.9 -1.7 -5.9 -1.4 -5.95 -1.15 -6 -1
L -6.1 -0.75
Q -6.2 -0.75 -6.15 -0.95 -6.2 -1.15 -6.1 -1.45 -6.1 -1.7 -6.05 -1.85
M -4.7 -4
Q -4.7 -3.8 -4.7 -3.65 -4.75 -3.45 -4.8 -3.25 -4.85 -3.1 -4.9 -3.2 -5.05 -3.2 -5.05 -3.3 -5.05 -3.5 -5.05 -3.7 -5.05 -3.85 -5 -4 -4.95 -4.1 -4.85 -4.15 -4.75 -4.1 -4.7 -4
M 10.7 -2.9
L 9.75 -3.25
Q 8.4 -1.45 8.6 0.7
L 9.85 1 10.15 -0.1 10.25 1.15 11 1.15 10.7 -2.9
M 9.55 -2.5
Q 9.55 -2.6 9.65 -2.6 9.75 -2.6 9.85 -2.45 9.8 -2.3 9.8 -2.2 9.8 -2 9.85 -1.85 9.8 -1.8 9.65 -1.8
L 9.5 -1.9
Q 9.45 -2 9.45 -2.25 9.5 -2.35 9.55 -2.5
M 10.1 -2.2
Q 10.15 -2.35 10.05 -2.5 10.05 -2.6 10.2 -2.75 10.2 -2.8 10.3 -2.7 10.35 -2.7 10.5 -2.6 10.55 -2.55 10.5 -2.4 10.55 -2.25 10.4 -2.2 10.4 -2.1 10.25 -2.1 10.2 -2.1 10.1 -2.2
M 10.5 -0.5
Q 10.55 -0.5 10.6 -0.4 10.65 -0.3 10.65 0 10.6 0.3 10.6 0.4 10.6 0.6 10.5 0.6
L 10.5 0.35
Q 10.4 0.2 10.45 -0.05 10.45 -0.2 10.4 -0.4
L 10.5 -0.5
M 6.35 -3.05
L 5.35 -3.45
Q 3.7 -0.95 3.8 1.65
L 5.2 1.75 5.55 0.5 5.65 1.9 6.4 1.8 6.35 -3.05
M 4.95 -2.05
Q 5 -2.2 5 -2.35 5 -2.5 5.2 -2.5 5.3 -2.5 5.3 -2.35 5.4 -2.15 5.35 -1.95 5.35 -1.75 5.3 -1.6 5.25 -1.45 5.1 -1.55 5.05 -1.5 5 -1.6 4.95 -1.85 4.95 -2.05
M 5.75 -2.7
Q 5.8 -2.85 5.9 -2.85 5.95 -2.8 6.05 -2.65 6.05 -2.5 6.05 -2.4 6.05 -2.25 6.05 -2.1 5.95 -1.95 5.85 -1.95 5.75 -2 5.75 -2.2 5.6 -2.2 5.65 -2.4 5.6 -2.6 5.75 -2.7
M 5.8 0.5
Q 5.85 0.25 5.95 0.1
L 5.95 -0.1
Q 6 -0.15 6.1 0.05 6.1 0.15 6.05 0.5 6.05 0.8 6 0.95 6 1.2 5.95 1.1 5.9 1.15 5.85 0.95 5.8 0.8 5.8 0.5 Z"/>

<path fill="#B3BF8D" stroke="none" d="
M -4.7 -3.65
Q -4.7 -3.8 -4.7 -4 -4.75 -4.1 -4.85 -4.15 -4.95 -4.1 -5 -4 -5.05 -3.85 -5.05 -3.7 -5.05 -3.5 -5.05 -3.3 -5.05 -3.2 -4.9 -3.2 -4.85 -3.1 -4.8 -3.25 -4.75 -3.45 -4.7 -3.65
M -5.95 -2
Q -6 -2 -6.05 -1.85 -6.1 -1.7 -6.1 -1.45 -6.2 -1.15 -6.15 -0.95 -6.2 -0.75 -6.1 -0.75
L -6 -1
Q -5.95 -1.15 -5.9 -1.4 -5.9 -1.7 -5.95 -1.85
L -5.95 -2
M 10.6 -0.4
Q 10.55 -0.5 10.5 -0.5
L 10.4 -0.4
Q 10.45 -0.2 10.45 -0.05 10.4 0.2 10.5 0.35
L 10.5 0.6
Q 10.6 0.6 10.6 0.4 10.6 0.3 10.65 0 10.65 -0.3 10.6 -0.4
M 9.65 -2.6
Q 9.55 -2.6 9.55 -2.5 9.5 -2.35 9.45 -2.25 9.45 -2 9.5 -1.9
L 9.65 -1.8
Q 9.8 -1.8 9.85 -1.85 9.8 -2 9.8 -2.2 9.8 -2.3 9.85 -2.45 9.75 -2.6 9.65 -2.6
M 5.95 0.1
Q 5.85 0.25 5.8 0.5 5.8 0.8 5.85 0.95 5.9 1.15 5.95 1.1 6 1.2 6 0.95 6.05 0.8 6.05 0.5 6.1 0.15 6.1 0.05 6 -0.15 5.95 -0.1
L 5.95 0.1
M 5 -2.35
Q 5 -2.2 4.95 -2.05 4.95 -1.85 5 -1.6 5.05 -1.5 5.1 -1.55 5.25 -1.45 5.3 -1.6 5.35 -1.75 5.35 -1.95 5.4 -2.15 5.3 -2.35 5.3 -2.5 5.2 -2.5 5 -2.5 5 -2.35 Z"/>

<path fill="#69703A" stroke="none" d="
M -5.5 -3.75
Q -5.45 -3.8 -5.3 -3.85 -5.3 -3.95 -5.2 -4.1 -5.2 -4.25 -5.25 -4.4 -5.3 -4.5 -5.4 -4.55 -5.45 -4.55 -5.6 -4.45 -5.6 -4.3 -5.65 -4.15 -5.65 -4 -5.65 -3.9 -5.6 -3.8 -5.5 -3.75
M 10.05 -2.5
Q 10.15 -2.35 10.1 -2.2 10.2 -2.1 10.25 -2.1 10.4 -2.1 10.4 -2.2 10.55 -2.25 10.5 -2.4 10.55 -2.55 10.5 -2.6 10.35 -2.7 10.3 -2.7 10.2 -2.8 10.2 -2.75 10.05 -2.6 10.05 -2.5
M 5.9 -2.85
Q 5.8 -2.85 5.75 -2.7 5.6 -2.6 5.65 -2.4 5.6 -2.2 5.75 -2.2 5.75 -2 5.85 -1.95 5.95 -1.95 6.05 -2.1 6.05 -2.25 6.05 -2.4 6.05 -2.5 6.05 -2.65 5.95 -2.8 5.9 -2.85 Z"/>
</g>

<g id="Duplicate_Items_Folder_head_copy_36_0_Layer9_0_FILL">
<path fill="#000000" stroke="none" d="
M -55.5 15.6
L -55.9 15.25 -55.9 15.9
Q -55.75 15.85 -55.5 15.6
M -53.4 10.1
Q -54.35 11.1 -55.2 11.9
L -55.9 15.25 -55.5 15.6
Q -54.4 14.7 -53.25 13.4
L -53.4 10.1
M -48 8
L -49.65 6.4
Q -51.5 8.4 -53.4 10.1
L -53.25 13.4
Q -50.7 11.1 -48 8
M -49.65 6.4
L -48 8
Q -46.85 6.7 -45.5 5.15
L -46.1 2.75
Q -47.95 4.8 -49.65 6.4
M -13.55 1.15
Q -13.55 0.55 -14.05 0.55 -16.1 -0.05 -18.1 -0.45
L -17.1 4.15
Q -16.5 4.1 -16.15 4.3 -15.85 4.45 -13.75 4.35 -13.6 4.45 -13.25 4.25 -12.9 3.95 -12.75 3.7 -12.65 3.25 -12.9 3.1
L -13.55 1.15
M -37.95 -2.1
Q -39.85 -1.85 -41.65 -1.9
L -42.7 1.8
Q -42.45 1.5 -42.2 1.15 -39.75 1.1 -37.7 1.2
L -37.95 -2.1
M -18.1 -0.45
Q -19.75 -0.65 -21.25 -1.1
L -22.95 2.8
Q -18.7 3.55 -17.1 4.15
L -18.1 -0.45
M -21.25 -1.1
Q -24.3 -1.45 -27.45 -1.85
L -26.8 1.85
Q -26.75 1.8 -26.6 1.95 -25.2 2.05 -23.85 2.3 -23.5 2.5 -22.95 2.8
L -21.25 -1.1
M -27.45 -1.85
Q -28.85 -2 -30.3 -2.1
L -32.4 1.3
Q -29.3 1.7 -26.8 1.85
L -27.45 -1.85
M -30.3 -2.1
Q -34.1 -2.1 -37.95 -2.1
L -37.7 1.2
Q -34.85 1.25 -32.4 1.3
L -30.3 -2.1
M -47.25 -0.95
Q -47.6 -0.7 -47.55 -0.45
L -47.85 0.45 -47.95 0.55
Q -47.9 0.7 -47.8 0.9 -47.7 1.05 -47.6 1.25 -47.45 1.45 -47.35 1.35 -45.95 1.3 -44.75 1.15 -45.45 2.2 -46.1 2.75
L -45.5 5.15
Q -44.1 3.7 -42.7 1.8
L -41.65 -1.9
Q -44.2 -1.8 -46.75 -1.2
L -46.85 -1.2
Q -47.05 -1.15 -47.2 -1.15
L -47.25 -0.95 Z"/>
</g>

<g id="Duplicate_Items_Folder_head_copy_36_0_Layer8_0_FILL">
<path fill="#CC0000" stroke="none" d="
M -42.7 70.05
Q -43.55 70.7 -43.4 73.5 -43.3 76.35 -43 78.6 -42.7 80.95 -42.1 83.8 -41.5 86.65 -38.55 86.3 -35.7 85.9 -35.1 83.3 -34.65 80.8 -36.45 78.15 -38.4 75.65 -40.15 72.55 -41.95 69.4 -42.7 70.05
M -46.6 61
Q -45.7 58.25 -48 59.3 -50.35 60.55 -51.5 60.7 -52.55 60.9 -53.25 62 -53.4 62.2 -57.75 61.8 -56.2 62 -58.65 62.75 -61.2 63.4 -59.05 65.85 -56.9 68.25 -53.1 70.35 -49.55 72.55 -48.8 73.9 -48.1 75.3 -46.4 74.7 -44.7 74.05 -45.2 71.1 -45.75 68.1 -46.75 66.35 -47.75 64.9 -47.7 64.6 -47.35 63.45 -46.6 61 Z"/>
</g>

<g id="Duplicate_Items_Folder_ear_copy_8_0_Layer1_0_FILL">
<path fill="#949CAF" stroke="none" d="
M 21.45 24.6
Q 22.7 20.3 23.8 19.1 24.9 17.85 25.15 20.6 26.15 18.6 24.25 14.6 19.1203125 5.6099609375 13.15 3.2 13.3212890625 2.9748046875 13.45 2.75 12.83046875 3.3193359375 10.9 2.65 7.15 1.3 4.8 5.55 2.45 9.75 2.85 12.9 3.25 16.05 5.95 17.95 7.7 19.2 12.2 22.65 16.25 25.45 18.45 25.45 20.6 25.45 21.45 24.6 Z"/>

<path fill="#000000" stroke="none" d="
M 23.8 19.1
Q 22.7 20.3 21.45 24.6 20.6 25.45 18.45 25.45 16.25 25.45 12.2 22.65 7.7 19.2 5.95 17.95 3.25 16.05 2.85 12.9 2.45 9.75 4.8 5.55 7.15 1.3 10.9 2.65 12.83046875 3.3193359375 13.45 2.75 13.6330078125 2.6330078125 13.7 2.4 13.7537109375 2.2482421875 13.75 2.05 13.80078125 1.51328125 13.5 0.65 11.35 0.05 9 0 2.45 -0.25 1.1 4.5 -0.5 10.1 0.25 13.7 0.9 17.15 3.85 19.25 5.75 20.6 10.65 24.35 15.05 27.4 17.45 27.4 19.8 27.4 20.75 26.5 22.1 24.7 24 23.05 25.05 22.15 25.15 20.6 24.9 17.85 23.8 19.1 Z"/>
</g>

<g id="Duplicate_Items_Folder_ear_copy_8_0_Layer0_0_FILL">
<path fill="#000000" stroke="none" d="
M 8.85 8.3
L 12.05 13 12.25 16.75 12.55 16.85 18.6 16.65 21.05 20.05 20.1 15.3 14.7 13.15
Q 15.7 10 10.75 7.45
L 10.35 7.1 8.85 8.3 Z"/>
</g>

<g id="eye_blink_blood_0_Layer1_0_FILL">
<path fill="#000000" stroke="none" d="
M 19.1 84.85
Q 18.5 84.55 17.9 85
L 4.45 91.85 -0.15 77.65
Q -0.35 76.45 -1.05 76 -1.65 75.6 -2.2 76.1 -2.9 76 -3.2 77
L -8.65 88.7 -19.95 86.2
Q -20.6 86.05 -21.15 86.55 -21.75 86.75 -21.8 87.5 -22.05 88.05 -21.8 89
L -18.05 105 -31.3 114.1
Q -27.35 113.8 -9.35 121.95
L -0.9 132.15
Q 0.35 130.35 0.65 129.8
L 7.45 120.75 21.35 128.2
Q 21.9 128.35 22.55 128.1 23.35 128.15 23.4 127.5 23.75 126.9 23.75 126 23.85 125.2 23.3 124.45
L 13.05 105.6 20.3 88.5
Q 20.6 87.8 20.6 87.05 20.35 86.3 19.95 85.75 19.7 85.15 19.1 84.85
M 2.05 95.55
Q 2.25 96.25 2.8 96.6 3.2 96.9 3.55 97.2 4.05 97.15 4.55 97.15
L 14.55 91.9 11.55 99.05 9.3 104.3
Q 9 105 9.1 105.55 9 106.45 9.35 107.05
L 13.2 114.2 17.1 120.85 7.35 115.6
Q 6.75 115.4 6.2 115.45 5.85 115.6 5.5 116.2
L -1.55 125.7 -9.7 116.15 -24.25 112.6 -16.75 109.8 -16 109.5
Q -15.25 109 -15 108.2 -14.75 107.95 -14.65 107.55 -14.6 107.25 -14.6 107.2 -14.2 106.35 -14.4 105.45
L -16.65 96 -17.55 91.6 -7.9 93.7
Q -7.3 93.95 -6.85 93.7 -6.25 93.35 -6.05 92.8
L -1.9 83.45 2.05 95.55
M -9.55 111
Q -9.45 110.35 -9.55 110 -9.75 109.3 -10.25 108.75 -11 108.3 -11.6 108.45 -12.15 108.65 -12.45 109.5 -12.6 109.9 -12.55 110.35 -12.65 110.85 -12.55 111.05 -12.3 111.75 -11.6 112.35 -10.95 112.85 -10.45 112.65 -9.95 112.4 -9.6 111.7 -9.5 111.15 -9.55 111
M -7.55 98.1
Q -8.2 97.6 -8.85 97.85 -9.5 98.15 -9.8 98.95 -10.2 99.8 -10 100.7 -9.7 101.7 -9.05 102.2 -8.35 102.65 -7.8 102.3 -7.05 102 -6.75 101.25 -6.6 100.75 -6.6 100.4 -6.55 99.95 -6.75 99.35 -6.9 98.5 -7.55 98.1
M -2.65 117.55
Q -3.25 117.05 -3.8 117.3 -4.4 117.55 -4.65 118.2 -4.9 118.7 -4.7 119.55 -4.5 120.3 -3.8 120.9 -3.15 121.25 -2.65 121.1 -2.25 120.9 -2.05 120.8 -1.9 120.6 -1.85 120.4
L -1.85 120.1
Q -1.55 119.55 -1.75 118.7 -2 118 -2.65 117.55
M 6.7 107.15
Q 6.05 107.45 5.9 108.15 5.6 109 5.8 109.8 6.15 110.55 6.65 111.1 7.35 111.45 7.95 111.35 8.6 111.3 9 110.5 9.2 109.6 8.9 108.75 8.75 108.1 8.05 107.6 7.4 107.1 6.7 107.15
M 0.6 109.8
Q 0.8 109.1 0.6 108.35 0.45 107.6 -0.15 107.1 -0.9 106.6 -1.45 106.85 -2.05 107.05 -2.2 107.75 -2.45 108.3 -2.25 109.05 -2.05 109.85 -1.35 110.3 -0.8 110.85 -0.15 110.55 0.4 110.4 0.6 109.8
M 9.5 96.15
Q 9.1 96.45 8.85 96.9 8.65 97.4 8.85 97.85 9.05 98.45 9.1 98.6 9.35 98.9 9.35 98.95 9.8 99.2 10.25 98.85 10.5 98.8 10.65 98.7 10.8 98.75 10.95 98.45 11.15 98 10.95 97.2 10.75 96.65 10.3 96.3 10.05 96.05 9.5 96.15
M 0.15 97.85
Q 0.8 97.6 1.05 96.85 1.3 96.05 1.1 95.35 1 94.5 0.3 93.95 -0.4 93.6 -0.95 93.75 -1.5 93.95 -1.8 94.65 -2.1 95.4 -1.9 96.3 -1.7 97.05 -1.1 97.55 -0.35 98.05 0.15 97.85 Z"/>

<path fill="#FF0000" stroke="none" d="
M 5.5 116.2
Q 5.85 115.6 6.2 115.45 6.75 115.4 7.35 115.6
L 17.1 120.85 13.2 114.2
Q 3.45 115.3 -9.55 111 -9.5 111.15 -9.6 111.7 -9.95 112.4 -10.45 112.65 -10.95 112.85 -11.6 112.35 -12.3 111.75 -12.55 111.05 -12.65 110.85 -12.55 110.35
L -16.75 109.8 -24.25 112.6 -9.7 116.15 -1.55 125.7 5.5 116.2
M -3.8 117.3
Q -3.25 117.05 -2.65 117.55 -2 118 -1.75 118.7 -1.55 119.55 -1.85 120.1
L -1.85 120.4
Q -1.9 120.6 -2.05 120.8 -2.25 120.9 -2.65 121.1 -3.15 121.25 -3.8 120.9 -4.5 120.3 -4.7 119.55 -4.9 118.7 -4.65 118.2 -4.4 117.55 -3.8 117.3 Z"/>

<path fill="#FF6699" stroke="none" d="
M 9.35 98.95
Q 9.35 98.9 9.1 98.6 3.35 98.5 -2.1 102.35
L -6.6 100.4
Q -6.6 100.75 -6.75 101.25 -7.05 102 -7.8 102.3 -8.35 102.65 -9.05 102.2 -9.7 101.7 -10 100.7 -10.2 99.8 -9.8 98.95
L -16.65 96 -14.4 105.45
Q -14.2 106.35 -14.6 107.2 -14.6 107.25 -14.65 107.55 -14.75 107.95 -15 108.2 -15.25 109 -16 109.5
L -16.75 109.8 -12.55 110.35
Q -12.6 109.9 -12.45 109.5 -12.15 108.65 -11.6 108.45 -11 108.3 -10.25 108.75 -9.75 109.3 -9.55 110 -9.45 110.35 -9.55 111 3.45 115.3 13.2 114.2
L 9.35 107.05
Q 9 106.45 9.1 105.55 9 105 9.3 104.3
L 11.55 99.05
Q 11.15 98.9 10.65 98.7 10.5 98.8 10.25 98.85 9.8 99.2 9.35 98.95
M 0.6 108.35
Q 0.8 109.1 0.6 109.8 0.4 110.4 -0.15 110.55 -0.8 110.85 -1.35 110.3 -2.05 109.85 -2.25 109.05 -2.45 108.3 -2.2 107.75 -2.05 107.05 -1.45 106.85 -0.9 106.6 -0.15 107.1 0.45 107.6 0.6 108.35
M 5.9 108.15
Q 6.05 107.45 6.7 107.15 7.4 107.1 8.05 107.6 8.75 108.1 8.9 108.75 9.2 109.6 9 110.5 8.6 111.3 7.95 111.35 7.35 111.45 6.65 111.1 6.15 110.55 5.8 109.8 5.6 109 5.9 108.15 Z"/>

<path fill="#CC0000" stroke="none" d="
M 2.8 96.6
Q 2.25 96.25 2.05 95.55
L -1.9 83.45 -6.05 92.8
Q -6.25 93.35 -6.85 93.7 -7.3 93.95 -7.9 93.7
L -17.55 91.6 -16.65 96 -9.8 98.95
Q -9.5 98.15 -8.85 97.85 -8.2 97.6 -7.55 98.1 -6.9 98.5 -6.75 99.35 -6.55 99.95 -6.6 100.4
L -2.1 102.35
Q 3.35 98.5 9.1 98.6 9.05 98.45 8.85 97.85 8.65 97.4 8.85 96.9 9.1 96.45 9.5 96.15 10.05 96.05 10.3 96.3 10.75 96.65 10.95 97.2 11.15 98 10.95 98.45 10.8 98.75 10.65 98.7 11.15 98.9 11.55 99.05
L 14.55 91.9 4.55 97.15
Q 4.05 97.15 3.55 97.2 3.2 96.9 2.8 96.6
M 1.05 96.85
Q 0.8 97.6 0.15 97.85 -0.35 98.05 -1.1 97.55 -1.7 97.05 -1.9 96.3 -2.1 95.4 -1.8 94.65 -1.5 93.95 -0.95 93.75 -0.4 93.6 0.3 93.95 1 94.5 1.1 95.35 1.3 96.05 1.05 96.85 Z"/>
</g>

<g id="eye_blink_blood_0_Layer0_0_FILL">
<path fill="#000000" stroke="none" d="
M 36.65 32.35
Q 26.05 24.1 15.35 27.45 4.75 30.5 -8.25 42.5 -20.95 54.15 -19.95 76.3 -19.8 76.5 -19.75 76.8 -19.6 79.95 -19.2 82.85 -19.05 84.15 -18.7 85.6 -15.7 100.15 -5.55 103.65 7.4 107.7 25.1 99.6 32.45 96 37.35 91.9 44 86.35 46.25 79.9 49.1 70.45 48.55 59.4 48.4 57.85 48.4 56.55 48.3 55.4 48.3 54.3 48 52.1 47.6 50.3 45.45 39.25 36.65 32.35
M 1.1 44.35
Q 8.4 38.85 16 35.15 16.05 35.1 16.15 35.1 25.6 30.75 30.6 34.3 33.1 36.5 34.5 37.85 26.45 40.65 19.55 44.5 12.85 48.2 7.4 52.7 -2.45 60.75 -8.95 71.95 -10.3 67.5 -10.55 66.35 -10.9 64.6 -11.05 62.9 -11.8 54.8 -2.6 47.1 -0.75 45.7 1.1 44.35
M 20.8 47.8
Q 28.45 43.35 37.15 40.4 40.65 44.25 42.05 49.3 32.55 49.4 22.85 53.45 18.7 55.05 14.7 57.4 13.5 58.25 12.15 58.95 0.95 65.95 -7.05 72.3 0.4 62.65 9.45 55.45 14.85 51.15 20.8 47.8
M 31.35 76
Q 28.85 77 26.2 77.8 14.45 81.4 -0.7 80.9 -1.75 80.05 -2.7 79.2 7.25 72.25 18.7 67.75 22.85 66.15 27.2 64.85 35.25 62.4 43.9 61.1 44 65.3 43.2 69.1 38 73.3 31.35 76
M 14.6 62.35
Q 19.3 59.6 24.4 57.55 33.1 53.95 43 52.15 43.35 53.65 43.4 55.2 43.55 56.75 43.75 58.35 34.45 59.5 26.05 61.9 21.1 63.25 16.7 65.1 6.05 69.25 -3 75.7 5 67.75 14.6 62.35 Z"/>

<path fill="#CC0000" stroke="none" d="
M 16.7 65.1
L 14.6 62.35
Q 5 67.75 -3 75.7 6.05 69.25 16.7 65.1
M 24.4 57.55
L 26.05 61.9
Q 34.45 59.5 43.75 58.35 43.55 56.75 43.4 55.2 43.35 53.65 43 52.15 33.1 53.95 24.4 57.55 Z"/>

<path fill="#FD2D2D" stroke="none" d="
M 26.05 61.9
L 24.4 57.55
Q 19.3 59.6 14.6 62.35
L 16.7 65.1
Q 21.1 63.25 26.05 61.9 Z"/>

<path fill="url(#Gradient_1)" stroke="none" d="
M 26.2 77.8
Q 28.85 77 31.35 76 38 73.3 43.2 69.1 44 65.3 43.9 61.1 35.25 62.4 27.2 64.85 22.85 66.15 18.7 67.75 7.25 72.25 -2.7 79.2 -1.75 80.05 -0.7 80.9 14.45 81.4 26.2 77.8 Z"/>

<path fill="#FFCCCC" stroke="none" d="
M 12.15 58.95
L 9.45 55.45
Q 0.4 62.65 -7.05 72.3 0.95 65.95 12.15 58.95
M 37.15 40.4
Q 28.45 43.35 20.8 47.8
L 22.85 53.45
Q 32.55 49.4 42.05 49.3 40.65 44.25 37.15 40.4 Z"/>

<path fill="#FFEEEE" stroke="none" d="
M 12.15 58.95
Q 13.5 58.25 14.7 57.4 18.7 55.05 22.85 53.45
L 20.8 47.8
Q 14.85 51.15 9.45 55.45
L 12.15 58.95 Z"/>

<path fill="#3333EE" stroke="none" d="
M 7.4 52.7
L 1.1 44.35
Q -0.75 45.7 -2.6 47.1 -11.8 54.8 -11.05 62.9 -10.9 64.6 -10.55 66.35 -10.3 67.5 -8.95 71.95 -2.45 60.75 7.4 52.7
M 16 35.15
L 19.55 44.5
Q 26.45 40.65 34.5 37.85 33.1 36.5 30.6 34.3 25.6 30.75 16.15 35.1 16.05 35.1 16 35.15 Z"/>

<path fill="#7B7BF2" stroke="none" d="
M 16 35.15
Q 8.4 38.85 1.1 44.35
L 7.4 52.7
Q 12.85 48.2 19.55 44.5
L 16 35.15 Z"/>
</g>

<g id="Duplicate_Items_Folder_eye_blink_copy_8_0_Layer3_0_FILL">
<path fill="#000000" stroke="none" d="
M 35 31.8
Q 26.3 23.35 8.4 26.65 -9.55 30 -20.95 39 -32.3 48.05 -30.1 62.55 -27.95 77 -18.65 84.2 -9.4 91.3 8.85 89.1 27.1 87 33.5 76.75 39.9 66.45 41.8 53.35 43.65 40.25 35 31.8
M 9.3 29.55
Q 25.05 26.35 32.9 33.95 40.65 41.45 39.05 53.3 37.3 65.1 31.5 74.4 25.7 83.6 9.9 83.8 -6.05 83.9 -15.25 77.1 -24.65 70.3 -24.65 59.7 -24.65 49.1 -15.6 40.85 -6.55 32.55 9.3 29.55 Z"/>

<path fill="#990000" stroke="none" d="
M 32.9 33.95
Q 25.05 26.35 9.3 29.55 -6.55 32.55 -15.6 40.85 -24.65 49.1 -24.65 59.7 -24.65 70.3 -15.25 77.1 -6.05 83.9 9.9 83.8 25.7 83.6 31.5 74.4 37.3 65.1 39.05 53.3 40.65 41.45 32.9 33.95
M 9.9 32.15
Q 24.15 29.35 31.1 36.2 32.1 37.15 32.9 38.2 37.95 44.5 36.7 53.8 35.65 60.7 33.1 66.7 31.7 69.8 29.9 72.85 24.7 81.1 10.35 81.25 -3.95 81.35 -12.4 75.15 -13.35 74.5 -14.1 73.75 -20.7 68 -20.7 59.5 -20.7 57.8 -20.5 56.2 -19.35 48.65 -12.6 42.55 -4.4 35.1 9.9 32.15 Z"/>

<path fill="#FFFFFF" stroke="none" d="
M 31.1 36.2
Q 24.15 29.35 9.9 32.15 -4.4 35.1 -12.6 42.55 -19.35 48.65 -20.5 56.2 -20.7 57.8 -20.7 59.5 -20.7 68 -14.1 73.75 -13.35 74.5 -12.4 75.15 -3.95 81.35 10.35 81.25 24.7 81.1 29.9 72.85 31.7 69.8 33.1 66.7 35.65 60.7 36.7 53.8 37.95 44.5 32.9 38.2 32.1 37.15 31.1 36.2 Z"/>
</g>

<g id="Duplicate_Items_Folder_eye_blink_copy_8_0_Layer2_0_FILL">
<path fill="#CC0000" stroke="none" d="
M 7 60.75
Q 6.25 59.95 4.9 60.25
L 1.95 62.05
Q -1 63.7 -1.3 64.3 -1.7 64.85 -1.9 65.55
L -3.35 70.8 -9.75 78.85
Q -10.55 79.9 -10.8 80.85
L -0.95 72.75
Q -0.35 71.95 0.05 71.05
L 1.2 66.5 5.8 62.75
Q 6.35 62.15 6.8 61.2 6.75 61 7 60.75
M 1.55 50.6
Q 1.45 50.4 1.35 50.25 0.85 49.7 0.1 49.65
L -4.65 49.1 -6.35 46.05
Q -6.75 45.45 -7.35 45.2
L -16.05 44.7
Q -15.7 45.35 -15 45.6
L -9.2 48.3 -7.2 51.55
Q -7.1 52 -6.65 52.25 -6.2 52.5 -3.45 52.3
L -0.5 52.2
Q 1 51.75 1.55 50.6
M 28.9 57.95
Q 28 57.7 26.9 57.65
L 21.35 58.2 17.45 54.25
Q 16.7 53.6 15.5 53.55 15.25 53.55 14.95 53.55 13.7 54.95 13.85 56.55
L 15.75 59.35
Q 17.35 62 18 62.15 18.65 62.35 19.4 62.3
L 25.55 61.7 33.4 65.35
Q 34.3 65.75 35.4 65.65
L 28.9 57.95
M 16.2 37.9
Q 15.7 38.45 15.05 41
L 14.05 43.95
Q 13.9 44.25 14.05 44.45 14.15 45.35 14.95 45.55 15.2 45.35 15.3 45.2 16.15 44.6 16.4 43.8
L 18.65 39.15 21.85 37.1
Q 22.35 36.7 22.8 36.25
L 25.4 29.2 25.35 29.3
Q 24.85 29.5 24.45 30
L 20.7 35.1 17.05 37.3
Q 16.55 37.5 16.2 37.9 Z"/>
</g>

<g id="Duplicate_Items_Folder_pupil_copy_4_0_Layer0_0_FILL">
<path fill="#CC0000" stroke="none" d="
M -6.6 -4.25
Q -7.45 -4.4 -8.3 -4.3 -10.25 -3.95 -11.8 -2.8 -14.2 -0.95 -14.65 1.85 -15.1 4.7 -13.4 6.9 -11.7 9.15 -8.85 9.5 -6 9.85 -3.6 8 -1.25 6.25 -0.8 3.4
L -0.8 3.2
Q -0.4 0.4 -2 -1.75 -3.7 -3.95 -6.6 -4.25
M -5.7 -1.95
L -5.65 -2
Q -3.7 -1.75 -2.5 -0.2 -1.7 0.85 -1.6 2.15 -1.55 2.8 -1.65 3.4 -2.1 5.45 -3.75 6.7 -5.4 7.95 -7.35 7.75 -9.4 7.55 -10.6 5.95 -11.8 4.35 -11.4 2.4 -11.15 0.35 -9.5 -0.9 -7.85 -2.15 -5.7 -1.95 Z"/>

<path fill="#000000" stroke="none" d="
M -5.65 -2
L -5.7 -1.95
Q -7.85 -2.15 -9.5 -0.9 -11.15 0.35 -11.4 2.4 -11.8 4.35 -10.6 5.95 -9.4 7.55 -7.35 7.75 -5.4 7.95 -3.75 6.7 -2.1 5.45 -1.65 3.4 -1.55 2.8 -1.6 2.15 -1.7 0.85 -2.5 -0.2 -3.7 -1.75 -5.65 -2
M -7.5 -0.05
Q -7.6 -0.2 -7.65 -0.45 -7.6 -0.8 -7.4 -0.95 -7.15 -1.15 -6.9 -1.05 -6.55 -1 -6.45 -0.85 -6.25 -0.6 -6.35 -0.3 -6.3 0 -6.55 0.2 -6.75 0.35 -7.1 0.3 -7.3 0.2 -7.5 -0.05 Z"/>

<path fill="#FFFFFF" stroke="none" d="
M -7.65 -0.45
Q -7.6 -0.2 -7.5 -0.05 -7.3 0.2 -7.1 0.3 -6.75 0.35 -6.55 0.2 -6.3 0 -6.35 -0.3 -6.25 -0.6 -6.45 -0.85 -6.55 -1 -6.9 -1.05 -7.15 -1.15 -7.4 -0.95 -7.6 -0.8 -7.65 -0.45 Z"/>
</g>

<g id="Duplicate_Items_Folder_head_copy_36_0_Layer4_0_FILL">
<path fill="#000000" stroke="none" d="
M -6 56.35
Q -6 52.95 -6.9 50.55 -7.75 48.15 -9 48 -10.3 47.95 -11.3 50.25 -12.2 52.5 -14 57.8 -15.75 63.05 -14 64.55 -12.2 65.95 -10.55 65.7 -8.95 65.4 -7.5 62.55 -6.05 59.65 -6 56.35
M 6.85 64.55
Q 8.6 63.05 6.85 57.8 5.1 52.5 4.15 50.25 3.2 47.95 1.9 48 0.6 48.15 -0.25 50.55 -1.1 52.95 -1.1 56.35 -1.05 59.65 0.4 62.55 1.85 65.4 3.45 65.7 5.1 65.95 6.85 64.55 Z"/>
</g>

<g id="Duplicate_Items_Folder_head_copy_36_0_Layer3_0_FILL">
<path fill="#333333" stroke="none" d="
M 32.9 93.85
Q 35.95 92.1 38.65 90.15
L 34.7 88.95
Q 33.95 91.6 32.9 93.85
M -75.95 39.2
Q -75.8 40.65 -75.7 42.15 -75.15 41 -74.65 39.9
L -75.95 39.2
M -54.85 -28.55
Q -54.75 -28.6 -54.7 -28.65 -54.7 -28.8 -54.65 -28.9 -54.75 -28.75 -54.85 -28.55 Z"/>

<path fill="#CCCCCC" stroke="none" d="
M -2.55 39.25
L -5.65 43.05
Q -0.85 53.75 22.1 55.3
L 16.45 62.15 24.55 67.2 28 55.95 42.05 65.5 31.6 82.95 19.85 83 17.35 88.6 29.9 87.65
Q 28.6 91.95 26.25 94.7
L 26.3 94.7
Q 25.4 95.8 24.25 96.65 21.85 97.2 19.05 97.4
L 19.1 97.45
Q 11.4 97.85 1 95.15
L 6.05 86.95 0.95 85.45 -4.5 94.2
Q -13.4 94.25 -20.15 91.75
L -21.5 96.6
Q -13.5 99.55 -2.95 99.25
L -2.9 99.3
Q -2.85 99.3 -2.8 99.35 10.45 103.1 19.75 102.55
L 19.75 102.5
Q 23.3 102.3 26.2 101.5 26.6 101.4 26.9 101.15 28.7 99.9 30.1 98.3
L 30.1 98.25
Q 31.7 96.4 32.9 93.85 33.95 91.6 34.7 88.95
L 38.65 90.15 43.4 91.55
Q 44.05 91.75 44.65 91.65
L 51.1 90.2
Q 52.1 89.95 52.55 89.05 53 88.2 52.7 87.1 52.45 86.1 51.6 85.55 50.7 84.95 49.7 85.2
L 43.85 86.55 36.7 84.3 45.2 69.35
Q 45.55 69.6 45.95 69.75
L 53.75 72.1
Q 54.7 72.4 55.55 71.9 56.45 71.4 56.65 70.4 56.85 69.45 56.3 68.5 55.8 67.55 54.8 67.25
L 53.55 66.8
Q 65.2 52.15 68.9 35.1 69.05 34.55 69.1 34.05 69.3 33.2 69.45 32.4 69.8 30.6 69.95 28.7 70.15 27.4 70.25 26.1 70.3 25.8 70.35 25.45 70.4 24.65 70.05 23.95 69.9 23.55 69.6 23.3 69.45 22.95 69 22.65 67.5 20.35 65.75 18.25 55.5630859375 5.6310546875 45.95 2.5 45.98125 6.665234375 38.9 4.5 52.1724609375 10.021484375 60.8 19.9 62.85 22.1 64.55 24.65 62.2 49.65 46.9 63.85
L 27.6 50.55 27.45 50.5
Q 27.15 50.4 26.85 50.45 26.8 50.45 26.75 50.45 1.85 49.65 -2.55 39.25
M 49.05 64.2
L 49.1 62.45
Q 50.15 62.1 51.05 61.55 50.1 62.85 49.05 64.2
M -51.1 -31.9
Q -52.9 -30.55 -54.7 -28.65 -65.55 -2.35 -66.05 8.5
L -67.65 14.2 -68.8 13.5 -68.85 13.45
Q -68.85 13.8 -68.95 14.15
L -73.55 10.9
Q -73.65 10.85 -73.85 10.8 -74.6 10.5 -75.45 10.75 -76.4 11.05 -76.95 11.95 -77.45 12.85 -77.1 13.9 -76.8 14.8 -75.95 15.3
L -68.5 19.4
Q -67.8 19.75 -67.1 19.65 -66.85 19.65 -66.6 19.6
L -72.6 35.35 -79.3 31.55 -81.15 27
Q -81.5 26.05 -82.5 25.6 -83.4 25.2 -84.4 25.6 -85.3 25.95 -85.75 26.9 -86.15 27.8 -85.8 28.8
L -83.7 34.2
Q -83.4 35.05 -82.55 35.5
L -75.95 39.2 -74.65 39.9
Q -75.15 41 -75.7 42.15 -76.65 44.45 -77.3 46.75 -78.2 50 -78.45 53.35 -78.75 53.9 -78.8 54.6 -78.8 55.6 -78.1 56.4 -75.8 60.9 -70.65 65.35 -65.35 69.85 -56.95 74.15 -54.35 77.55 -50.7 80.3 -49.6 81.1 -48.4 81.8
L -45.7 77.55
Q -46.9 76.8 -47.95 76.05 -50.5 74.15 -52.4 71.8
L -52.9 56.15
Q -48.25 58.8 -47.4 56.45
L -46.65 50.75
Q -47.1462890625 53.7263671875 -53.35 50.55
L -44.15 33.25 -48.75 30.8 -57.25 46.5 -68.3 38.05 -59.7 15.4 -50.15 15.9 -47.35 12.25 -60.7 10.8
Q -61.3 2.1 -53.95 -16.95 -51.7 -23.75 -46.7 -27.25 -44.5541015625 -27.2431640625 -42.35 -27.05
L -42.25 -32.15
Q -45.0904296875 -32.3470703125 -47.8 -32.3
L -48.2 -32.4
Q -48.9 -32.6 -49.6 -32.4 -50.45 -32.45 -51.1 -31.9
M -72.5 48.1
Q -71.7 45.4 -70.45 42.75
L -58.25 52.6 -56.85 68.55
Q -63.2 65.15 -67.45 61.55 -71.6 58 -73.5 54.35 -73.4 51.2 -72.5 48.1 Z"/>
</g>

<g id="Duplicate_Items_Folder_head_copy_36_0_Layer2_0_FILL">
<path fill="#E6E6E6" stroke="none" d="
M -56.8 -31.2
L -51.7 -17.9 -23.9 -24.75 -26.85 -36.3
Q -47.45 -33.15 -56.8 -31.2 Z"/>

<path fill="#000000" stroke="none" d="
M -76.9 -28.8
L -76.4 -27.1 -71.45 -11.15 -63.3 -12.75 -68.55 -29.65 -68.75 -30.4 -76.9 -28.8
M -34.75 -85.05
Q -34.4 -83.5 -33.7 -81.85 -32.3 -78.6 -29.65 -75.2
L -19.6 -87.3 -32.95 -86 -34.65 -86.1
Q -34.7 -86.05 -34.8 -85.95 -34.7 -85.55 -34.75 -85.05
M -83.95 -24.4
L -84.35 -25.35 -95.65 -21.65 -96.5 -21.45 -95.55 -19.25
Q -95.3 -13.75 -93.95 -8.8 -91.8 -3.35 -88.45 1.35
L -74.8 -3 -83.95 -24.4
M 127.3 44.75
L 127.45 45.7 133.15 50.35 126.2 52.6 126.3 53.05 126.65 53 133.05 59.6 154.1 58.55 150.65 51.1 144 51.15 140.7 40.5 128.15 44.7 127.3 44.75
M 43.45 -1.7
L 48.55 -9.25 37.05 -18.85
Q 45.034375 3.3259765625 44.2 18.65
L 45.7 19.1 51.55 6.65 43.45 -1.7
M 3.55 -42.55
L 2.15 -49.35 -10.65 -48 -9.4 -41.5 -6.15 -24.35 6.8 -25.75 3.55 -42.55
M 68.95 -1.75
L 60.9 -0.8 62.95 10.55 71.1 9.65 68.95 -1.75
M 22.55 -50.65
L 9.75 -49.85 10.6 -47.45 13.1 -25.95 26.1 -26.8 23.65 -43.2 22.55 -50.65
M 29.7 -51.35
L 30.2 -49.6 31.6 -27.4 44.55 -27.45 43.2 -48.35 42.75 -51.25 29.7 -51.35
M 28.1 -99.85
Q 24.15 -100.2 24.4 -99.85
L 29.2 -89.2 39.9 -92.85 44.8 -84.85 52.55 -93.25
Q 52.05 -93.1 51.15 -94
L 47.3 -91.2 43.7 -97.1
Q 41.6 -97.7 39.4 -98.2
L 31.7 -95.55 28.1 -99.85 Z"/>

<path fill="#B7B7B7" stroke="none" d="
M -57.4 -32.85
L -56.8 -31.2
Q -47.45 -33.15 -26.85 -36.3
L -23.9 -24.75 -19.8 -25.75 -22.2 -39.95 -22.8 -43.45 -58.35 -35.25 -57.4 -32.85 Z"/>

<path fill="#BBBBBB" stroke="none" d="
M -35.2 -79.5
Q -35.8 -81.85 -36.45 -84.45 -50.35 -71.3 -52.95 -57.1 -39.8 -54.9 -25.4 -62.2
L -23.15 -67.15
Q -41.25 -61.85 -45.45 -63.25 -43.45 -71.85 -35.2 -79.5 Z"/>

<path fill="#FFFFFF" stroke="none" d="
M -35.8 -82.95
Q -36.05 -83.95 -36.25 -84.65
L -36.25 -84.6
Q -36.3 -84.6 -36.3 -84.55 -36.35 -84.55 -36.4 -84.5
L -35.8 -82.4 -35.8 -82.95
M -36.95 -86.7
L -36.8 -86.65 -38.3 -91.8 -36.95 -86.7
M -14.4 -87.8
L -19.05 -87.35 -20.4 -83.55 -32.2 -67.55
Q -33.4 -72.4 -35.2 -79.5 -43.45 -71.85 -45.45 -63.25 -41.25 -61.85 -23.15 -67.15
L -14.25 -86.65 -14.4 -87.8
M 3.55 -42.55
L 6.8 -25.75 -6.15 -24.35 -9.4 -41.5
Q -15.9 -40.85 -22.2 -39.95
L -19.8 -25.75 -23.9 -24.75 -51.7 -17.9 -56.8 -31.2 -57.4 -32.85
Q -63.05 -31.4 -68.55 -29.65
L -63.3 -12.75 -71.45 -11.15 -76.4 -27.1
Q -80.2 -25.8 -83.95 -24.4
L -74.8 -3 -88.45 1.35 -89.5 2.2
Q -86.35 7.75 -77.2 16.35 -31.2 -20.2 36.65 -20.65 51.95 -20.75 68.2 -19.15 69.75 -19.05 71.35 -18.85 80.7 -26.35 75.25 -41.35 62.45 -50.2 43.2 -48.35
L 44.55 -27.45 31.6 -27.4 30.2 -49.6
Q 26.95 -43.25 23.65 -43.2
L 26.1 -26.8 13.1 -25.95 10.6 -47.45
Q 7.1 -42.75 3.55 -42.55 Z"/>

<path fill="#CC0000" stroke="none" d="
M -19.05 -87.35
L -19.6 -87.3 -29.65 -75.2
Q -32.3 -78.6 -33.7 -81.85 -34.4 -83.5 -34.75 -85.05 -34.7 -85.55 -34.8 -85.95 -34.85 -85.9 -34.95 -85.85 -35.6 -85.25 -36.25 -84.65 -36.05 -83.95 -35.8 -82.95
L -35.8 -82.4 -36.4 -84.5 -36.45 -84.45
Q -35.8 -81.85 -35.2 -79.5 -33.4 -72.4 -32.2 -67.55
L -20.4 -83.55 -19.05 -87.35 Z"/>

<path fill="#D5D5D5" stroke="none" d="
M 38.35 -18.4
L 37.05 -18.85 48.55 -9.25 43.45 -1.7 51.55 6.65 45.7 19.1 51.6 20.85 59.55 40.8 60.85 41.35 82.1 58.8 126.3 53.05 126.2 52.6 133.15 50.35 127.45 45.7 127.3 44.75 86.35 49.4 68.75 38.95 67.9 37.95 62.85 23.45 61.5 23.75 84.45 17.65
Q 87.25 1.55 82.9 -17.45 77.05 -18.25 71.35 -18.85 69.75 -19.05 68.2 -19.15 51.95 -20.75 36.65 -20.65 36.45 -18.35 37.05 -18.85
L 38.35 -18.4
M 60.9 -0.8
L 68.95 -1.75 71.1 9.65 62.95 10.55 60.9 -0.8 Z"/>

<path fill="#D9D9D9" stroke="none" d="
M 30.2 -49.6
L 29.7 -51.35 42.75 -51.25 43.2 -48.35
Q 62.45 -50.2 75.25 -41.35 80.7 -26.35 71.35 -18.85 77.05 -18.25 82.9 -17.45 89.95 -29.25 83.6 -46.55
L 83.25 -47.45 75.7 -52.9
Q 1.1 -67.6 -81.7 -40
L -81.7 -39.5 -95.5 -27.25
Q -95.7 -24.45 -95.65 -21.65
L -84.35 -25.35 -83.95 -24.4
Q -80.2 -25.8 -76.4 -27.1
L -76.9 -28.8 -68.75 -30.4 -68.55 -29.65
Q -63.05 -31.4 -57.4 -32.85
L -58.35 -35.25 -22.8 -43.45 -22.2 -39.95
Q -15.9 -40.85 -9.4 -41.5
L -10.65 -48 2.15 -49.35 3.55 -42.55
Q 7.1 -42.75 10.6 -47.45
L 9.75 -49.85 22.55 -50.65 23.65 -43.2
Q 26.95 -43.25 30.2 -49.6 Z"/>

<path fill="#F2F2F2" stroke="none" d="
M 75.7 -52.9
Q 72 -73.05 52.85 -93.6 52.7 -93.35 52.55 -93.25
L 44.8 -84.85 39.9 -92.85 29.2 -89.2 24.4 -99.85
Q 7 -99.95 -7.6 -96.1
L -14.05 -87.85 -14.25 -86.65 -23.15 -67.15 -25.4 -62.2
Q -39.8 -54.9 -52.95 -57.1 -50.35 -71.3 -36.45 -84.45
L -36.4 -84.5
Q -36.35 -84.55 -36.3 -84.55 -36.3 -84.6 -36.25 -84.6
L -36.25 -84.65
Q -35.6 -85.25 -34.95 -85.85 -34.85 -85.9 -34.8 -85.95 -34.7 -86.05 -34.65 -86.1
L -36.8 -86.65 -36.95 -86.7 -49.55 -90 -81.75 -56.05 -81.7 -40
Q 1.1 -67.6 75.7 -52.9
M -45.05 -87.4
Q -56.1 -78.3 -58.2 -65.45 -56.1 -78.3 -45.05 -87.4 Z"/>
</g>

<g id="Duplicate_Items_Folder_head_copy_36_0_Layer1_0_FILL">
<path fill="#999966" stroke="none" d="
M 64.4 -53.4
L 66.9 -62
Q 64.3 -64.5 62.35 -66.95
L 56.25 -62.45
Q 62.15 -56.05 64.4 -53.4
M 53.15 -75.15
Q 50.8 -76.9 48.35 -78.55
L 42 -75
Q 46.8 -71.35 45.75 -64.55
L 53.15 -75.15 Z"/>

<path fill="#99CC00" stroke="none" d="
M 50.8 -67.65
Q 53 -65.85 55 -63.95 55.55 -63.2 56.25 -62.45
L 62.35 -66.95
Q 57.9 -70.9 53.15 -75.15
L 45.75 -64.55
Q 50.6 -68.1 50.8 -67.65
M 48.35 -78.55
Q 45.7 -80.55 43 -82.65
L 28.7 -84.25 42 -75 48.35 -78.55 Z"/>
</g>

<g id="Duplicate_Items_Folder_head_copy_36_0_Layer0_0_FILL">
<path fill="#CC0000" stroke="none" d="
M 14.5 -83.3
Q 14.6 -80.45 14.9 -78.2 15.2 -75.85 15.8 -73 16.4 -70.15 19.35 -70.5 22.2 -70.9 22.8 -73.5 23.25 -76 21.45 -78.65 19.5 -81.15 17.75 -84.25 15.95 -87.4 15.2 -86.75 14.35 -86.1 14.5 -83.3
M 9.6 -96.7
Q 10.5 -99.45 8.2 -98.4 5.85 -97.15 4.7 -97 3.65 -96.8 2.95 -95.7 2.8 -95.5 -1.55 -95.9 0 -95.7 -2.45 -94.95 -5 -94.3 -2.85 -91.85 -0.7 -89.45 3.1 -87.35 6.65 -85.15 7.4 -83.8 8.1 -82.4 9.8 -83 11.5 -83.65 11 -86.6 10.45 -89.6 9.45 -91.35 8.45 -92.8 8.5 -93.1 8.85 -94.25 9.6 -96.7 Z"/>
</g>

<g id="Duplicate_Items_Folder_arm_suit_copy_21_0_Layer6_0_FILL">
<path fill="#000000" stroke="none" d="
M 27.35 -24.75
Q 23.5123046875 -32.05 18.1 -39.35 1.2552734375 -36.34921875 -3.65 -28.95 -8.178125 -22.439453125 -8.65 -19.2 -8.725 -18.7875 -8.7 -18.4
L -10.95 15.45
Q -0.6052734375 18.19921875 8.6 18.2 24.2 18.2029296875 36.3 10.15 36.315625 -7.308984375 27.35 -24.75
M 15.85 -32.9
Q 19.8650390625 -27.3697265625 22.75 -21.9
L -5.4 -10.85 -5 -16.5
Q -5.003125 -18.989453125 -1.1 -24.7 2.7689453125 -30.50546875 15.85 -32.9 Z"/>

<path fill="#F4C247" stroke="none" d="
M 22.75 -21.9
Q 19.8650390625 -27.3697265625 15.85 -32.9 2.7689453125 -30.50546875 -1.1 -24.7 -5.003125 -18.989453125 -5 -16.5
L -5.4 -10.85 22.75 -21.9 Z"/>
</g>

<g id="Duplicate_Items_Folder_arm_suit_copy_21_0_Layer4_0_FILL">
<path fill="#999999" stroke="none" d="
M -2.6 45.15
L -3.85 45.4 -7.45 47.95 -4 53.2 0.5 48.45 -2.55 45.1 -2.6 45.15 Z"/>

<path fill="#C8C8C8" stroke="none" d="
M -7.45 47.95
L -8.65 48.8 -8.65 48.75 -14.35 51.9 -5.95 57.15 -4.05 53.5 -4 53.2 -7.45 47.95 Z"/>

<path fill="#B7B7B7" stroke="none" d="
M -4.5 42.3
L -4.85 41.75 -9.95 41.75 -7.6 48 -7.45 47.95 -3.85 45.4 -2.9 44.7 -4.5 42.3 Z"/>

<path fill="#E6E6E6" stroke="none" d="
M -10.3 41.7
L -15.4 46.5 -14.75 51.65 -14.35 51.9 -8.65 48.75 -7.6 48 -9.95 41.75 -10.05 41.75 -10.3 41.7 Z"/>

<path fill="#F3DDBE" stroke="none" d="
M 11.55 35.9
L 11.65 35.8 6.6 34.25 -4.85 41.7 -4.85 41.75 -4.5 42.3 -2.9 44.7 -2.55 45.1 -1.95 44.7 11.55 35.9
M 48.2 6.9
L 48.45 7.1
Q 52.8806640625 3.968359375 57.35 0.9
L 48.2 6.9
M 85.1 -16.7
L 87.7 -18.65 76.4 -11.45
Q 80.7396484375 -14.07265625 85.1 -16.7
M 76.4 -11.45
Q 73.81953125 -9.823828125 71.25 -8.2
L 62.35 -2.4
Q 64.41015625 -1.999609375 61.75 2.4
L 62.5 2.75 88.7 -14.35 88.7 -14.35 119.35 -34.35 117.85 -33.6 119.25 -34.65 172.45 -69.35 183.65 -76.6 200.1 -87.3 196.25 -93.5
Q 196.8599609375 -90.683984375 194 -87.95
L 115.55 -36.95 115.8 -37.25 84.45 -16.15 85.1 -16.7
Q 80.7396484375 -14.07265625 76.4 -11.45 Z"/>

<path fill="#EACC8B" stroke="none" d="
M 11.65 35.8
L 11.55 35.9 -1.95 44.7 0.5 48.45 0.85 48.85 15.85 39.3
Q 11.8037109375 40.5197265625 11.65 35.8
M 57.1 13.05
L 57.2 13.15 62.05 10 57.1 13.05
M 180.6 -144.25
L 184.25 -135.25 209.4 -148.45
Q 204.541015625 -156.1435546875 198.05 -156.1 185.2 -155.85 180.6 -144.25
M 119.25 -34.65
L 117.85 -33.6 119.35 -34.35 88.7 -14.35 88.7 -14.35 62.5 2.75
Q 70.2470703125 1.988671875 68.6 5.8
L 94.45 -10.65 93.8 -10.3 124.95 -30.6 125.15 -30.65 211.35 -85.5
Q 218.05 -89.75 217.7 -98.95
L 217.65 -99.3 216.6 -99.15 196.3 -94.4 196.1 -94.35 196.25 -93.5 200.1 -87.3 183.65 -76.6 172.45 -69.35 119.25 -34.65 Z"/>

<path fill="#CC0000" stroke="none" d="
M 62.5 2.75
L 61.75 2.4
Q 64.41015625 -1.999609375 62.35 -2.4
L 57.35 0.9
Q 52.8806640625 3.968359375 48.45 7.1
L 6.6 34.25 11.65 35.8 62.5 2.75 Z"/>

<path fill="#B10101" stroke="none" d="
M 62.05 10
L 68.6 5.8
Q 70.2470703125 1.988671875 62.5 2.75
L 11.65 35.8
Q 11.8037109375 40.5197265625 15.85 39.3
L 57.1 13.05 62.05 10 Z"/>

<path fill="#000000" stroke="none" d="
M 184.25 -135.25
L 184.55 -134.5
Q 195.25 -114.55 196.2 -94.75
L 196.3 -94.4 216.6 -99.15 217.65 -99.3
Q 220.4 -124.45 210.6 -145.6
L 209.4 -148.45 184.25 -135.25 Z"/>
</g>

<g id="Duplicate_Items_Folder_arm_suit_copy_21_0_Layer3_0_FILL">
<path fill="#CC0000" stroke="none" d="
M 207.95 -88.6
Q 210.9466796875 -90.2474609375 207.95 -91.1 204.9509765625 -91.9009765625 203.85 -91.85 202.8 -91.85 201.8 -90.6 200.8 -89.45 200.5 -87.6 200.15 -85.8 200.75 -84.55 201.25 -83.35 202.25 -83.35 203.148828125 -83.44921875 204.05 -85.2 204.953125 -86.902734375 207.95 -88.6
M 212.4 -100.75
Q 210.9037109375 -100.8056640625 212.55 -99.4 214.238671875 -97.93359375 212.75 -96.3 211.2611328125 -94.6166015625 210.4 -93.45 209.54609375 -92.24453125 211 -92.2 212.45 -92.2 213.7 -93.45 214.95 -94.65 215.2 -96.4 215.5 -98.2 214.75 -99.45 213.95 -100.75 212.4 -100.75
M 185.65 -141.15
Q 185.65 -140.3 186.4 -139.95 187.15 -139.5 188.15 -139.95 189.2 -140.35 189.85 -141.3 190.5 -142.25 190.45 -143.15 190.4 -144.1 189.6 -144.5 188.9 -144.85 188.2 -143.3 187.45 -141.8 186.5 -141.85 185.65 -141.9 185.65 -141.15
M 195.1 -151.2
Q 195.05 -152.45 194.3 -153.1 193.55 -153.65 192.5 -153.25 191.5 -152.9 190.85 -151.75 190.25 -150.55 190.3 -149.3 190.35 -148.1 191 -148.75 191.7 -149.4 192.85 -148.5 193.9 -147.65 194.6 -148.75 195.2 -149.9 195.1 -151.2
M 95.6 -14.2
Q 97.5 -14.55 98.7 -15.4 99.95 -16.25 99.85 -17.05 99.75 -17.9 98.3 -18.25 96.95 -18.55 95.65 -17.2 94.25 -15.85 92.55 -15.9 90.9 -15.95 90.9 -15.25 90.95 -14.5 92.3 -14.2 93.7 -13.8 95.6 -14.2
M 107 -25.9
Q 105.6 -26.4 103.65 -26.05 101.8 -25.75 100.65 -24.7 99.45 -23.65 99.55 -22.55 99.7 -21.45 100.9 -22.05 102.2 -22.6 104.3 -21.8 106.3 -21.05 107.55 -22.05 108.75 -23.05 108.55 -24.2 108.45 -25.35 107 -25.9 Z"/>
</g>

<g id="Duplicate_Items_Folder_arm_suit_copy_21_0_Layer2_0_FILL">
<path fill="#CC0000" stroke="none" d="
M 190.9 -133.55
L 187.3 -132.8
Q 195.428125 -118.3712890625 196.85 -99.1 203.8 -102.25 200.6 -109.1 210.1 -111.95 208.45 -115.8 209.2 -116.15 211.85 -116.5
L 211.85 -116.45
Q 219.0431640625 -120.85234375 211.3 -121.75 211.3 -122.9 211 -123.65 210.7931640625 -126.59453125 208.45 -123.5
L 207.15 -121.25
Q 206.15 -119.5 203.8 -119.75
L 202.05 -119.9
Q 201.35 -121.25 200.6 -122.4
L 200.35 -123.3
Q 200 -124.6 201.45 -125.1
L 203.35 -125.7 204.1 -126.2
Q 204.1 -130.05 201.15 -130 199.75 -129.65 199.6 -128.4 198.85 -127.4 196.75 -128.75 195.1 -129.95 195.85 -131.4 196.75 -132.95 199.15 -132.45 200.35 -133.25 200.6 -134.75 200.1 -137.5 198 -137
L 195.95 -135.25
Q 193.9 -133.75 190.9 -133.55 Z"/>
</g>

<g id="Duplicate_Items_Folder_arm_suit_copy_21_0_Layer1_0_FILL">
<path fill="#9D9D9D" stroke="none" d="
M 14.6 29.6
L 12.2 21.8 -3.6 19.8
Q -4.9 25.35 -4.2 31.8
L -4.15 31.8
Q 5.8 33.6 14.6 29.6
M 12.2 21.8
Q 14.45 16.65 15.95 13.1
L 15.25 12.8 2.45 7.85
Q -2 13.15 -3.6 19.8
L 12.2 21.8
M 19.35 5.35
L 19.6 5.25 12.05 -0.15
Q 6.2 3.35 2.45 7.85
L 15.25 12.8 16.05 13
Q 18.7 6.8 19.25 5.6
L 19.35 5.35
M 25.65 -1.65
L 21.6 -3.85 21.1 -4.5
Q 16.15 -2.6 12.05 -0.15
L 19.6 5.25 25.65 -1.65 Z"/>

<path fill="#C8C8C8" stroke="none" d="
M 18.35 32.15
L 18.85 32.5 30.8 40.75 39.45 40.55 43.85 34.5
Q 33.2 30 25.4 22.55 24 31 18.35 32.15
M 43.85 34.5
L 44.15 34.1 51.65 32.45 55.8 25.65
Q 42.15 20.9 32.7 12.2 32.1 20.05 25.4 22.55 33.2 30 43.85 34.5
M 61.15 23.6
L 65.15 10.9 48.9 4.8 48.4 4.45 48.7 4.4
Q 43.5 3.05 39.75 -1.7 39.35 7.45 32.7 12.2 42.15 20.9 55.8 25.65
L 56.2 25.05 61.15 23.6 Z"/>

<path fill="#EEEEEE" stroke="none" d="
M 21.1 -4.5
L 16.85 -11.1
Q -13.5 0.15 -18.1 25.4 -12.7 34.5 -4.2 32.2 -4.2 31.95 -4.2 31.8 -4.9 25.35 -3.6 19.8 -2 13.15 2.45 7.85 6.2 3.35 12.05 -0.15 16.15 -2.6 21.1 -4.5
M 39.75 -1.7
Q 39.35 -2.95 39.2 -3.2
L 25.65 -1.65 19.6 5.25 19.35 5.35 19.25 5.6
Q 18.7 6.8 16.05 13 15.95 13.05 15.95 13.1 14.45 16.65 12.2 21.8
L 14.6 29.6 18.1 32.5 18.35 32.15
Q 24 31 25.4 22.55 32.1 20.05 32.7 12.2 39.35 7.45 39.75 -1.7 Z"/>

<path fill="#760101" stroke="none" d="
M 39.55 -3.2
L 39.75 -1.7
Q 43.5 3.05 48.7 4.4
L 48.7 4.35 56.7 0.55 50.4 -4.55 39.55 -3.2 Z"/>
</g>

<g id="Duplicate_Items_Folder_arm_suit_copy_21_0_Layer0_0_FILL">
<path fill="#CC0000" stroke="none" d="
M 18.1 22.3
Q 16.4 28.6 19.9 21.95 23.4 15.35 23.7 13.05 24 10.75 26.2 9 28.3 7.2 27.5 6.65 26.75 6.15 25.15 7.15 23.65 8.3 22.15 10.3 20.7 12.45 20.2 14.2 19.75 16.1 18.1 22.3
M 52.2 17.1
Q 52.85 16.2 52.1 15.05 51.3 13.75 49.45 13.6 47.55 13.4 46.05 11.8 44.5 10.25 43.8 11.1 43.2 12.05 44 13.55 44.75 15.05 46.5 16.35 48.3 17.55 49.9 17.8 51.6 18.05 52.2 17.1 Z"/>
</g>

<g id="arm_ripped_0_Layer2_0_FILL">
<path fill="#F4C247" stroke="none" d="
M 33.55 22.95
L 16.1 36.2 33.35 63.25 45.2 54.25
Q 46.75 37.95 33.55 22.95 Z"/>
</g>

<g id="arm_ripped_0_Layer1_0_FILL">
<path fill="#000000" stroke="none" d="
M 22.85 3.05
Q 22.55 2.75 22.25 2.6 19.55 0.7 11.7 -0.15 2.9 -1.45 -10.5 9.1 -8.65 18 -5.8 25.75 -4.622265625 28.7689453125 -3.3 31.6 3.4646484375 45.87421875 14.35 55.55 28.4 51.8 38.75 40.15 44.85 33.3 49.65 23.8
L 22.85 3.05
M 21.35 6.65
Q 18.190625 22.8091796875 0.75 27.5 0.1662109375 26.0751953125 -0.4 24.6 -2.65 18.6 -4.2 11.75 6.3 3.5 13.15 4.5 19.169921875 5.2525390625 21.35 6.65 Z"/>

<path fill="#F4C247" stroke="none" d="
M 0.75 27.5
Q 18.190625 22.8091796875 21.35 6.65 19.169921875 5.2525390625 13.15 4.5 6.3 3.5 -4.2 11.75 -2.65 18.6 -0.4 24.6 0.1662109375 26.0751953125 0.75 27.5 Z"/>
</g>

<g id="arm_ripped_0_Layer0_0_FILL">
<path fill="#C8C8C8" stroke="none" d="
M 50.35 86.2
Q 50.34765625 86.095703125 50.35 86 50.2431640625 85.2708984375 50.2 84.95
L 50.35 86.8
Q 50.355859375 86.4201171875 50.35 86.2
M 57.95 70.25
Q 58.75 71 59.5 72.45 62.05 77.05 64.05 81.85 64.608984375 83.0724609375 64.9 84.25 65.0052734375 84.70234375 65.05 85.15 65.0921875 85.198828125 65.1 85.25
L 65.1 85.3
Q 65.45 87.85 64.3 90 62.4 93.35 59.2 94.1 57.5 94.4 55.9 93.75 54.6 93.2 53.4 92 51.0501953125 89.6501953125 50.35 86.2 50.3666015625 86.1177734375 50.35 86 50.34765625 86.095703125 50.35 86.2 50.355859375 86.4201171875 50.35 86.8
L 50.4 87.05
Q 49.865234375 86.7048828125 49.3 86.45 45.265625 84.4884765625 41.05 87.45
L 41.55 87.25 44.8 107.7 41.55 87.25 41.05 87.45
Q 36.8484375 84.8638671875 32.45 87.95
L 34.35 105.95
Q 38.7060546875 109.069140625 41.35 108.9 43.9884765625 108.78515625 44.1 108.75 44.2724609375 108.7060546875 44.4 108.9 44.580078125 109.1541015625 48.05 110.75 51.5072265625 112.34140625 55.4 109.45 59.2966796875 106.6087890625 59.4 106.6
L 59.45 106.6
Q 59.55 106.5 59.8 106.45 67.6 107.2 73.35 98.9
L 65.75 84.95 70.8 81.25
Q 71.2859375 73.9095703125 65.25 68.15
L 59.9 68.05 57.95 70.25
M 47.35 94.75
Q 48 94.25 49.05 94.8 50.1 95.4 50.9 96.7 51.75 98 51.85 99.25 52 100.55 51.35 101.05 50.7 101.55 49.65 100.95 48.6 100.4 47.75 99.1 46.95 97.8 46.8 96.5 46.7 95.25 47.35 94.75
M 55.8 94.55
L 59.1 105.95 55.8 94.55
M 37.05 60.2
L 37.05 60.15 37.05 60.15
Q 37 60.15 37 60.25 31.65 62.45 27.1 67.1
L 29.95 75.55 35.65 73.75 57.1 65 57.95 64.6 56.05 61.45 56.75 60.5 55.15 59.25
Q 51.75 58.4 48.6 58.3
L 50.95 66.15 48.6 58.3
Q 42.4 58 37.1 60.15
L 37.05 60.15 37.05 60.15 37.05 60.2 41.2 69.95 37.05 60.2
M 42.5 69.95
Q 41.6 69.75 41.1 68.95 40.55 68.1 40.7 67.15 40.9 66.2 41.65 65.6 42.45 65 43.3 65.2 44.15 65.4 44.65 66.2 45.2 67.05 45.05 68 44.95 68.95 44.15 69.55 43.4 70.15 42.5 69.95 Z"/>

<path fill="#CC0000" stroke="none" d="
M 58.85 81.3
Q 56.2955078125 81.9673828125 55.6 85 53.6763671875 89.4240234375 50.35 86.2 51.0501953125 89.6501953125 53.4 92 54.6 93.2 55.9 93.75 57.5 94.4 59.2 94.1 62.4 93.35 64.3 90 65.45 87.85 65.1 85.3
L 65.1 85.25
Q 65.0921875 85.198828125 65.05 85.15 65.0052734375 84.70234375 64.9 84.25 62.9578125 79.346875 58.85 81.3
M 49.05 94.8
Q 48 94.25 47.35 94.75 46.7 95.25 46.8 96.5 46.95 97.8 47.75 99.1 48.6 100.4 49.65 100.95 50.7 101.55 51.35 101.05 52 100.55 51.85 99.25 51.75 98 50.9 96.7 50.1 95.4 49.05 94.8
M 32.1 84.6
L 32.45 87.95
Q 36.8484375 84.8638671875 41.05 87.45 45.265625 84.4884765625 49.3 86.45 49.865234375 86.7048828125 50.4 87.05
L 50.35 86.8 50.2 84.95
Q 50.2431640625 85.2708984375 50.35 86 50.1337890625 82.9955078125 50.15 81.4 44.203125 83.128515625 40.2 80.75 35.44609375 76.67578125 32 83.65
L 32.1 84.6
M 41.1 68.95
Q 41.6 69.75 42.5 69.95 43.4 70.15 44.15 69.55 44.95 68.95 45.05 68 45.2 67.05 44.65 66.2 44.15 65.4 43.3 65.2 42.45 65 41.65 65.6 40.9 66.2 40.7 67.15 40.55 68.1 41.1 68.95 Z"/>

<path fill="#999999" stroke="none" d="
M 54.6 69.8
Q 55.2 69.25 55.85 69.25 56.85 69.05 57.95 70.25
L 59.9 68.05 57.95 64.6 57.1 65 35.65 73.75 50.25 79.95
Q 50.2728515625 79.785546875 50.3 79.6
L 50.3 79.5
Q 50.6 77.75 51.05 75.9 52.2 71.7 54.6 69.8
M 32 83.65
Q 35.44609375 76.67578125 40.2 80.75 44.203125 83.128515625 50.15 81.4 50.1748046875 80.540625 50.25 79.95
L 35.65 73.75 29.95 75.55 31.7 80.65 32 83.65
M 32.3 88.1
Q 32.3875 88.03671875 32.45 87.95
L 32.1 84.6 32.3 88.1 Z"/>

<path fill="#EEEEEE" stroke="none" d="
M 55.85 69.25
Q 55.2 69.25 54.6 69.8 52.2 71.7 51.05 75.9 50.6 77.75 50.3 79.5
L 50.3 79.6
Q 50.2728515625 79.785546875 50.25 79.95 50.1748046875 80.540625 50.15 81.4 50.1337890625 82.9955078125 50.35 86 50.3666015625 86.1177734375 50.35 86.2 53.6763671875 89.4240234375 55.6 85 56.2955078125 81.9673828125 58.85 81.3 62.9578125 79.346875 64.9 84.25 64.608984375 83.0724609375 64.05 81.85 62.05 77.05 59.5 72.45 58.75 71 57.95 70.25 56.85 69.05 55.85 69.25
M 37 60.25
Q 37 60.15 37.05 60.15
L 37.1 60.15
Q 42.4 58 48.6 58.3 51.75 58.4 55.15 59.25
L 56.75 60.5 58.3 58.6 55.8 53.15
Q 39.2 43.95 23.9 57.95
L 27.1 67.1
Q 31.65 62.45 37 60.25 Z"/>
</g>

<path id="Duplicate_Items_Folder_leg_suit_copy_14_0_Layer2_0_1_STROKES" stroke="#000000" stroke-width="4.05" stroke-linejoin="round" stroke-linecap="round" fill="none" d="
M 0.65 15.125
L 1.05 18.35
M 4.45 -7.475
L 6.85 -8.1 18.3 -27.7
M 3.85 -7.5
L 4.45 -7.475
M -11.3 -46.65
Q -27.8 -27.55 -13.9 -5.25
L -12.55 -4.05 -12.425 -4.025"/>

<path id="Duplicate_Items_Folder_leg_suit_copy_14_0_Layer1_0_1_STROKES" stroke="#FFFFFF" stroke-width="1.3" stroke-linejoin="round" stroke-linecap="round" fill="none" d="
M -0.85 1.8
L -2.55 0.25 -4.65 2.25
M -4.25 7.25
L -2.15 5.25 -3.95 3.55
M -0.65 3.75
L -2.15 5.25 -0.45 6.8
M -1.05 -1.25
L -2.55 0.25 -4.35 -1.45"/>

<path id="Duplicate_Items_Folder_right_shoe_copy_10_0_Layer1_0_1_STROKES" stroke="#000000" stroke-width="2" stroke-linejoin="round" stroke-linecap="round" fill="none" d="
M 4.45 18.05
L -0.8 18.35 -2 7.35 3.3 7.05 4.45 18.05 Z"/>

<path id="Duplicate_Items_Folder_right_shoe_copy_10_0_Layer0_0_1_STROKES" stroke="#FFFFFF" stroke-width="1.3" stroke-linejoin="round" stroke-linecap="round" fill="none" d="
M 2.2 -6.8
L 0.45 -5.3 1.9 -3.75
M -1.95 -3.3
L 0.45 -5.3 -1.05 -7"/>

<path id="leg_suit_ripped_0_Layer3_0_1_STROKES" stroke="#000000" stroke-width="4.05" stroke-linejoin="round" stroke-linecap="round" fill="none" d="
M 5.55 -8.2
L 18.3 -27.7
M 0.65 15.125
L 1.05 18.35
M -11.3 -46.65
Q -27.8 -27.55 -13.9 -5.25
L -12.55 -4.05 -10.775 -3.725"/>

<path id="leg_suit_ripped_0_Layer2_0_1_STROKES" stroke="#FFFFFF" stroke-width="1.3" stroke-linejoin="round" stroke-linecap="round" fill="none" d="
M -0.95 -1.6
L -2.5 -0.1 -0.9 1.45
M -4.7 1.9
L -2.5 -0.1 -4.2 -1.8
M -0.4 3.45
L -2 4.95 -0.35 6.5
M -4.15 6.95
L -2 4.95 -3.7 3.25"/>

<path id="Duplicate_Items_Folder_head_copy_36_0_Layer15_0_1_STROKES" stroke="#000000" stroke-width="4" stroke-linejoin="round" stroke-linecap="round" fill="none" d="
M -48.65 34.5
L -63.3 38.1
M -64.3 38.85
L -75.8 55.2 -73.65 96.45 -73.7 97.35 -70.3 110.2 -81 112.4 -81.45 119.1 -89.05 121.75 -88.75 100.6 -81.85 95.05
M -81.85 94.6
L -84.9 50.1 -66.25 30.75
M -65.65 29.45
L -45.15 23.5
M -74.7 96.5
L -79.65 101.75"/>

<path id="Duplicate_Items_Folder_head_copy_36_0_Layer9_0_1_STROKES" stroke="#000000" stroke-width="1" stroke-linejoin="round" stroke-linecap="round" fill="none" d="
M -41.65 -1.9
L -41.45 -2.75
M -46.1 2.75
L -45.5 5.15
M -42.7 1.8
L -41.65 -1.9
M -37.95 -2.1
L -38 -3.25
M -18.1 -0.45
L -18.4 -1.1
M -27.45 -1.85
L -27.6 -3.15
M -21.25 -1.1
L -20.85 -1.8
M -37.7 1.2
L -37.95 -2.1
M -30.3 -2.1
L -32.4 1.3
M -16.3 7.05
L -17.1 4.15
M -32.4 1.3
L -33.5 3.3
M -26.6 1.95
Q -26.75 1.8 -26.8 1.85
M -24.2 5.3
L -22.95 2.8
M -37.25 3.05
L -37.7 1.2
M -42.95 2.65
L -42.7 1.8
M -17.1 4.15
L -18.1 -0.45
M -45.5 5.15
L -45.25 5.85
M -46.4 1.7
L -46.1 2.75
M -49.65 6.4
L -48 8 -47.45 8.6
M -53.35 8.2
L -53.4 10.1
M -50.65 5.5
L -49.65 6.4
M -55.9 15.25
L -55.5 15.6
M -53.4 10.1
L -53.25 13.4
M -55.5 15.6
L -54.8 16.1
M -26.8 1.85
L -27.45 -1.85
M -22.95 2.8
L -21.25 -1.1"/>

<path id="Duplicate_Items_Folder_head_copy_36_0_Layer3_0_1_STROKES" stroke="#000000" stroke-width="2" stroke-linejoin="round" stroke-linecap="round" fill="none" d="
M -54.7 -28.65
Q -54.7 -28.8 -54.65 -28.9 -54.75 -28.75 -54.85 -28.55 -54.75 -28.6 -54.7 -28.65 -52.9 -30.55 -51.1 -31.9 -50.45 -32.45 -49.6 -32.4 -48.9 -32.6 -48.2 -32.4
L -47.8 -32.3
Q -45.0904296875 -32.3470703125 -42.25 -32.125
M -42.325 -27.05
Q -44.5541015625 -27.2431640625 -46.7 -27.25 -51.7 -23.75 -53.95 -16.95 -61.3 2.1 -60.7 10.8
L -47.35 12.25 -50.15 15.9 -59.7 15.4 -68.3 38.05 -57.25 46.5 -48.75 30.8 -44.15 33.25 -53.35 50.55
Q -47.1462890625 53.7263671875 -46.65 50.75
L -46.65 50.6
Q -46.6 50.3 -46.65 50
M -20.15 91.75
Q -13.4 94.25 -4.5 94.2
L 0.95 85.45 6.05 86.95 1 95.15
Q 11.4 97.85 19.1 97.45
L 19.05 97.4
Q 21.85 97.2 24.25 96.65 25.4 95.8 26.3 94.7
L 26.25 94.7
Q 28.6 91.95 29.9 87.65
L 17.35 88.6 19.85 83 31.6 82.95 42.05 65.5 28 55.95 24.55 67.2 16.45 62.15 22.1 55.3
Q -0.85 53.75 -5.65 43.05
L -2.55 39.25
Q 1.85 49.65 26.75 50.45 26.8 50.45 26.85 50.45 27.15 50.4 27.45 50.5
L 27.6 50.55 46.9 63.85
Q 62.2 49.65 64.55 24.65 62.85 22.1 60.8 19.9 52.1724609375 10.021484375 38.9 4.525
M 69 22.65
Q 69.45 22.95 69.6 23.3 69.9 23.55 70.05 23.95 70.4 24.65 70.35 25.45 70.3 25.8 70.25 26.1 70.15 27.4 69.95 28.7 69.8 30.6 69.45 32.4 69.3 33.2 69.1 34.05 69.05 34.55 68.9 35.1 65.2 52.15 53.55 66.8
L 54.8 67.25
Q 55.8 67.55 56.3 68.5 56.85 69.45 56.65 70.4 56.45 71.4 55.55 71.9 54.7 72.4 53.75 72.1
L 45.95 69.75
Q 45.55 69.6 45.2 69.35
L 36.7 84.3 43.85 86.55 49.7 85.2
Q 50.7 84.95 51.6 85.55 52.45 86.1 52.7 87.1 53 88.2 52.55 89.05 52.1 89.95 51.1 90.2
L 44.65 91.65
Q 44.05 91.75 43.4 91.55
L 38.65 90.15
M 32.9 93.85
Q 31.7 96.4 30.1 98.25
L 30.1 98.3
Q 28.7 99.9 26.9 101.15 26.6 101.4 26.2 101.5 23.3 102.3 19.75 102.5
L 19.75 102.55
Q 10.45 103.1 -2.8 99.35 -2.85 99.3 -2.9 99.3
L -2.95 99.25
Q -13.5 99.55 -21.5 96.6
M -68.95 14.15
L -73.55 10.9
Q -73.65 10.85 -73.85 10.8 -74.6 10.5 -75.45 10.75 -76.4 11.05 -76.95 11.95 -77.45 12.85 -77.1 13.9 -76.8 14.8 -75.95 15.3
L -68.5 19.4
Q -67.8 19.75 -67.1 19.65 -66.85 19.65 -66.6 19.6
L -72.6 35.35 -79.3 31.55 -81.15 27
Q -81.5 26.05 -82.5 25.6 -83.4 25.2 -84.4 25.6 -85.3 25.95 -85.75 26.9 -86.15 27.8 -85.8 28.8
L -83.7 34.2
Q -83.4 35.05 -82.55 35.5
L -75.95 39.2 -74.65 39.9
Q -75.15 41 -75.7 42.15 -76.65 44.45 -77.3 46.75 -78.2 50 -78.45 53.35 -78.75 53.9 -78.8 54.6 -78.8 55.6 -78.1 56.4 -75.8 60.9 -70.65 65.35 -65.35 69.85 -56.95 74.15 -54.35 77.55 -50.7 80.3 -49.6 81.1 -48.4 81.8
M -45.7 77.55
Q -46.9 76.8 -47.95 76.05 -50.5 74.15 -52.4 71.8
L -52.9 56.15
Q -48.25 58.8 -47.4 56.45
L -46.65 50.75
M -68.8 13.5
L -67.65 14.2 -66.05 8.5
Q -65.55 -2.35 -54.7 -28.65
M -72.5 48.1
Q -73.4 51.2 -73.5 54.35 -71.6 58 -67.45 61.55 -63.2 65.15 -56.85 68.55
L -58.25 52.6 -70.45 42.75
Q -71.7 45.4 -72.5 48.1 Z
M 38.65 90.15
L 34.7 88.95
Q 33.95 91.6 32.9 93.85"/>

<path id="Duplicate_Items_Folder_head_copy_36_0_Layer2_0_1_STROKES" stroke="#000000" stroke-width="4" stroke-linejoin="round" stroke-linecap="round" fill="none" d="
M 52.85 -93.6
Q 72 -73.05 75.7 -52.9
L 83.25 -47.45
M 83.6 -46.55
Q 89.95 -29.25 82.9 -17.45 87.25 1.55 84.45 17.65
L 61.5 23.75
M 62.85 23.45
L 67.9 37.95
M 68.75 38.95
L 86.35 49.4 127.3 44.75 128.15 44.7 140.7 40.5 144 51.15 150.65 51.1 154.1 58.55 133.05 59.6 126.65 53 126.3 53.05 82.1 58.8 60.85 41.35
M 59.55 40.8
L 51.6 20.85 45.7 19.1 44.2 18.65
Q 45.034375 3.3259765625 37.05 -18.85 36.45 -18.35 36.65 -20.65 -31.2 -20.2 -77.2 16.35 -86.35 7.75 -89.5 2.2 -92.35 -2.95 -93.95 -8.8 -95.3 -13.75 -95.55 -19.25
M -95.65 -21.65
Q -95.7 -24.45 -95.5 -27.25
L -81.7 -39.5 -81.7 -40 -81.75 -56.05 -49.55 -90 -36.95 -86.7
M -36.8 -86.65
L -34.65 -86.1 -32.95 -86 -19.6 -87.3 -19.05 -87.35 -14.4 -87.8 -14.05 -87.85 -7.6 -96.1
Q 7 -99.95 24.4 -99.85
M 82.9 -17.45
Q 77.05 -18.25 71.35 -18.85
M 38.35 -18.4
L 37.05 -18.85 48.55 -9.25 43.45 -1.7 51.55 6.65 45.7 19.1
M -22.2 -39.95
L -19.8 -25.75 -23.9 -24.75 -51.7 -17.9 -56.8 -31.2 -57.4 -32.85
M 36.65 -20.65
Q 51.95 -20.75 68.2 -19.15 69.75 -19.05 71.35 -18.85
M 127.45 45.7
L 133.15 50.35 126.2 52.6
M -14.25 -86.65
L -23.15 -67.15 -25.4 -62.2
Q -39.8 -54.9 -52.95 -57.1 -50.35 -71.3 -36.45 -84.45
L -36.4 -84.5
Q -36.35 -84.55 -36.3 -84.55 -36.3 -84.6 -36.25 -84.6
L -36.25 -84.65
Q -35.6 -85.25 -34.95 -85.85 -34.85 -85.9 -34.8 -85.95 -34.7 -86.05 -34.65 -86.1
M -36.95 -86.7
L -36.8 -86.65
M -45.05 -87.4
Q -56.1 -78.3 -58.2 -65.45
M -57.4 -32.85
L -58.35 -35.25 -22.8 -43.45 -22.2 -39.95
M -81.7 -40
Q 1.1 -67.6 75.7 -52.9"/>

<path id="Duplicate_Items_Folder_head_copy_36_0_Layer1_0_1_STROKES" stroke="#000000" stroke-width="3" stroke-linejoin="round" stroke-linecap="round" fill="none" d="
M 53.15 -75.15
L 54 -77.6
M 42 -75
L 48.35 -78.55
M 50.8 -67.65
Q 50.6 -68.1 45.75 -64.55
M 38.6 -73.15
L 42 -75
M 56.25 -62.45
L 51.85 -59.35
M 67.25 -63.8
L 66.9 -62 64.4 -53.4
M 62.35 -66.95
L 56.25 -62.45
M 62.7 -47.05
L 64.4 -53.4
M 63.55 -67.85
L 62.35 -66.95
M 45.75 -64.55
L 53.15 -75.15"/>

<path id="Duplicate_Items_Folder_arm_suit_copy_21_0_Layer4_0_1_STROKES" stroke="#000000" stroke-width="2" stroke-linejoin="round" stroke-linecap="round" fill="none" d="
M 62.375 -2.375
L 71.25 -8.2
Q 73.81953125 -9.823828125 76.4 -11.425
M 84.45 -16.15
L 115.8 -37.25
M 115.55 -36.95
L 194 -87.95
Q 196.8599609375 -90.683984375 196.25 -93.5
L 196.1 -94.35 196.2 -94.75
Q 195.25 -114.55 184.55 -134.5
L 184.25 -135.25 180.6 -144.25
Q 185.2 -155.85 198.05 -156.1 204.541015625 -156.1435546875 209.4 -148.45
L 210.6 -145.6
Q 220.4 -124.45 217.65 -99.3
L 217.7 -98.95
Q 218.05 -89.75 211.35 -85.5
L 125.15 -30.65
M 124.95 -30.6
L 93.8 -10.3
M 94.45 -10.625
L 68.6 5.825 62.05 10 57.2 13.15
M 57.1 13.05
L 15.875 39.3 0.85 48.85 0.5 48.45 -4 53.2 -4.05 53.5 -5.95 57.15 -14.35 51.9 -14.75 51.65 -15.4 46.5 -10.3 41.7 -10.05 41.75 -9.95 41.75 -4.85 41.75
M -4.85 41.7
L 6.6 34.275 48.45 7.1
M 48.2 6.9
L 57.375 0.9 62.375 -2.375
M 88.725 -14.325
L 62.5 2.75
M 172.475 -69.325
L 119.25 -34.65
M 200.1 -87.3
L 183.65 -76.6
M 76.4 -11.425
Q 80.7396484375 -14.07265625 85.125 -16.675
M 216.6 -99.15
L 196.3 -94.4 196.1 -94.35
M 209.4 -148.45
L 184.25 -135.25
M 48.45 7.1
Q 52.8806640625 3.968359375 57.375 0.9
M 62.05 10
L 57.1 13.05
M 11.675 35.825
L 11.575 35.9 -1.95 44.7
M 0.5 48.45
L -2.55 45.1 -2.6 45.15
M -3.85 45.4
L -7.45 47.95 -4 53.2
M 62.5 2.75
L 11.675 35.825
M -8.65 48.75
L -7.6 48 -9.95 41.75
M -7.45 47.95
L -8.65 48.8 -8.65 48.75 -14.35 51.9
M -7.6 48
L -7.45 47.95
M -2.55 45.1
L -2.9 44.7 -3.85 45.4
M -1.95 44.7
L -2.55 45.1
M -2.9 44.7
L -4.5 42.3"/>

<path id="Duplicate_Items_Folder_arm_suit_copy_21_0_Layer1_0_1_STROKES" stroke="#000000" stroke-width="3" stroke-linejoin="round" stroke-linecap="round" fill="none" d="
M 39.75 -1.7
Q 39.35 -2.95 39.2 -3.2
L 39.55 -3.2
M 39.2 -3.2
L 25.65 -1.65 19.6 5.25 19.35 5.35 19.25 5.6
Q 18.7 6.8 16.05 13 15.95 13.05 15.95 13.1 14.45 16.65 12.2 21.8
L 14.6 29.6 18.1 32.5 18.35 32.15
Q 24 31 25.4 22.55 32.1 20.05 32.7 12.2 39.35 7.45 39.75 -1.7 43.5 3.05 48.7 4.4
L 48.7 4.35 56.7 0.55 50.4 -4.55 39.55 -3.2
M 21.6 -3.85
L 25.65 -1.65
M 21.1 -4.5
L 16.85 -11.1
Q -13.5 0.15 -18.1 25.4 -12.7 34.5 -4.2 32.2 -4.2 31.95 -4.2 31.8 -4.9 25.35 -3.6 19.8 -2 13.15 2.45 7.85 6.2 3.35 12.05 -0.15 16.15 -2.6 21.1 -4.5 Z
M 48.9 4.8
L 65.15 10.9 61.15 23.6 56.2 25.05 55.8 25.65 51.65 32.45 44.15 34.1 43.85 34.5 39.45 40.55 30.8 40.75 18.85 32.5 18.1 32.5
M 48.9 4.8
L 48.4 4.45 48.7 4.4 48.9 4.8 Z
M 15.25 12.8
L 2.45 7.85
M 43.85 34.5
Q 33.2 30 25.4 22.55
M 32.7 12.2
Q 42.15 20.9 55.8 25.65
M 19.6 5.25
L 12.05 -0.15
M 14.6 29.6
Q 5.8 33.6 -4.15 31.8
L -4.2 31.8
M -3.6 19.8
L 12.2 21.8"/>

<path id="arm_ripped_0_Layer2_0_1_STROKES" stroke="#000000" stroke-width="3" stroke-linejoin="round" stroke-linecap="round" fill="none" d="
M 16.1 36.2
L 33.35 63.25 45.2 54.25
Q 46.75 37.95 33.55 22.95
L 16.1 36.2 Z"/>

<path id="arm_ripped_0_Layer0_0_1_STROKES" stroke="#000000" stroke-width="3" stroke-linejoin="round" stroke-linecap="round" fill="none" d="
M 41.2 69.95
L 37.075 60.225 37.05 60.175 37.05 60.15
Q 37 60.15 37 60.25 31.65 62.45 27.1 67.1
L 29.975 75.55 35.65 73.75 57.1 65
M 57.95 64.6
L 56.05 61.45 56.775 60.525
M 55.15 59.25
Q 51.75 58.4 48.6 58.3
L 50.95 66.15
M 56.775 60.525
L 58.3 58.6 55.8 53.15
Q 39.2 43.95 23.9 57.95
L 27.1 67.1
M 48.6 58.3
Q 42.4 58 37.1 60.15
L 37.05 60.15
M 32.3 88.1
Q 32.3875 88.03671875 32.475 87.975
L 32.125 84.6 32.025 83.65 31.7 80.65 29.975 75.55
M 57.95 70.25
Q 56.85 69.05 55.85 69.25 55.2 69.25 54.6 69.8 52.2 71.7 51.05 75.9 50.6 77.75 50.3 79.5
L 50.3 79.6
Q 50.2728515625 79.785546875 50.25 79.975 50.1748046875 80.540625 50.15 81.425 50.1337890625 82.9955078125 50.35 86.025 50.3666015625 86.1177734375 50.375 86.2
M 64.9 84.25
Q 64.608984375 83.0724609375 64.05 81.85 62.05 77.05 59.5 72.45 58.75 71 57.95 70.25
M 59.9 68.05
L 57.95 64.6
M 50.35 86.025
Q 50.34765625 86.095703125 50.35 86.2 50.355859375 86.4201171875 50.375 86.8
L 50.4 87.05
Q 49.865234375 86.7048828125 49.325 86.45 45.265625 84.4884765625 41.05 87.45
L 41.55 87.25 44.8 107.7
M 50.375 86.8
L 50.2 84.95
Q 50.2431640625 85.2708984375 50.35 86.025
M 50.375 86.2
Q 51.0501953125 89.6501953125 53.4 92 54.6 93.2 55.9 93.75 57.5 94.4 59.2 94.1 62.4 93.35 64.3 90 65.45 87.85 65.1 85.3
L 65.1 85.25
Q 65.0921875 85.198828125 65.075 85.15 65.0052734375 84.70234375 64.9 84.25
M 32.475 87.975
L 34.35 105.95
Q 38.7060546875 109.069140625 41.35 108.925 43.9884765625 108.78515625 44.125 108.75 44.2724609375 108.7060546875 44.425 108.925 44.580078125 109.1541015625 48.05 110.75 51.5072265625 112.34140625 55.4 109.475 59.2966796875 106.6087890625 59.425 106.6
L 59.45 106.6
Q 59.55 106.5 59.8 106.45 67.6 107.2 73.35 98.9
L 65.75 84.95 70.8 81.25
Q 71.2859375 73.9095703125 65.25 68.15
L 59.9 68.05
M 50.25 79.975
L 35.65 73.75
M 32.475 87.975
Q 36.8484375 84.8638671875 41.05 87.45
M 55.8 94.55
L 59.1 105.95"/>
</defs>

<g transform="matrix( 3.9632568359375, 0, 0, 3.9632568359375, 120.1,502.15) ">
<g transform="matrix( 0.3929290771484375, 0.0277557373046875, -0.0277557373046875, 0.3929290771484375, 33.4,-11.65) ">
<g transform="matrix( 1, 0, 0, 1, 0,0) ">
<use xlink:href="#Duplicate_Items_Folder_leg_suit_copy_14_0_Layer2_0_FILL"/>

<use xlink:href="#Duplicate_Items_Folder_leg_suit_copy_14_0_Layer2_0_1_STROKES"/>
</g>

<g transform="matrix( 1, 0, 0, 1, 0,0) ">
<use xlink:href="#Duplicate_Items_Folder_leg_suit_copy_14_0_Layer1_0_1_STROKES"/>
</g>

<g transform="matrix( 1.15313720703125, 0.0055694580078125, -0.0055694580078125, 1.15313720703125, -2.5,17.55) ">
<g transform="matrix( 1, 0, 0, 1, 0,0) ">
<use xlink:href="#Duplicate_Items_Folder_right_shoe_copy_10_0_Layer1_0_FILL"/>

<use xlink:href="#Duplicate_Items_Folder_right_shoe_copy_10_0_Layer1_0_1_STROKES"/>
</g>

<g transform="matrix( 1, 0, 0, 1, 0,0) ">
<use xlink:href="#Duplicate_Items_Folder_right_shoe_copy_10_0_Layer0_0_FILL"/>

<use xlink:href="#Duplicate_Items_Folder_right_shoe_copy_10_0_Layer0_0_1_STROKES"/>
</g>
</g>
</g>

<g transform="matrix( -0.3914642333984375, 0.0255126953125, 0.0255126953125, 0.3914642333984375, 50.2,-11.05) ">
<g transform="matrix( 1, 0, 0, 1, 0,0) ">
<use xlink:href="#leg_suit_ripped_0_Layer3_0_FILL"/>

<use xlink:href="#leg_suit_ripped_0_Layer3_0_1_STROKES"/>
</g>

<g transform="matrix( 1, 0, 0, 1, 0,0) ">
<use xlink:href="#leg_suit_ripped_0_Layer2_0_1_STROKES"/>
</g>

<g transform="matrix( 1.15313720703125, 0.0055694580078125, -0.0055694580078125, 1.15313720703125, -2.5,17.55) ">
<g transform="matrix( 1, 0, 0, 1, 0,0) ">
<use xlink:href="#Duplicate_Items_Folder_right_shoe_copy_10_0_Layer1_0_FILL"/>

<use xlink:href="#Duplicate_Items_Folder_right_shoe_copy_10_0_Layer1_0_1_STROKES"/>
</g>

<g transform="matrix( 1, 0, 0, 1, 0,0) ">
<use xlink:href="#Duplicate_Items_Folder_right_shoe_copy_10_0_Layer0_0_FILL"/>

<use xlink:href="#Duplicate_Items_Folder_right_shoe_copy_10_0_Layer0_0_1_STROKES"/>
</g>
</g>

<g transform="matrix( 1, 0, 0, 1, 0,0) ">
<use xlink:href="#leg_suit_ripped_0_Layer0_0_FILL"/>
</g>
</g>

<g transform="matrix( 0.39251708984375, -0.016357421875, 0.0115203857421875, 0.3920135498046875, 41.4,-46.55) ">
<g transform="matrix( 1, 0, 0, 1, 0,0) ">
<use xlink:href="#Duplicate_Items_Folder_body_suit_copy_19_0_Layer1_0_FILL"/>
</g>

<g transform="matrix( 1.01593017578125, 0, 0, 0.6573944091796875, -71.4,-26.1) ">
<clipPath id="Mask_Mask_1">
<rect x="41.6" y="-2" width="60.8" height="89" fill="#FFFFFF" stroke="none"/>
</clipPath>

<text clip-path="url(#Mask_Mask_1)" writing-mode="lr"><tspan x="43.65" y="65.45" baseline-shift="0%" font-family="GhoulishFrightAOE" font-size="85" fill="#FFFFFF" xml:space="preserve">B</tspan></text>
</g>
</g>

<g transform="matrix( 0.3200531005859375, -0.0171356201171875, 0.00457763671875, 0.3202362060546875, 42.55,-84.6) ">
<g transform="matrix( 1, 0, 0, 1, 0,0) ">
<use xlink:href="#Duplicate_Items_Folder_head_copy_36_0_Layer15_0_FILL"/>

<use xlink:href="#Duplicate_Items_Folder_head_copy_36_0_Layer15_0_1_STROKES"/>
</g>

<g transform="matrix( 1, 0, 0, 1, 0,0) ">
<use xlink:href="#Duplicate_Items_Folder_head_copy_36_0_Layer13_0_FILL"/>
</g>

<g transform="matrix( 1, 0, 0, 1, 0,0) ">
<use xlink:href="#Duplicate_Items_Folder_head_copy_36_0_Layer12_0_FILL"/>
</g>

<g transform="matrix( 1, 0, 0, 1, 0,0) ">
<use xlink:href="#Duplicate_Items_Folder_head_copy_36_0_Layer11_0_FILL"/>
</g>

<g transform="matrix( -2.1583251953125, 0.104461669921875, -0.151611328125, -3.13201904296875, 1,93.65) ">
<g transform="matrix( 1, 0, 0, 1, 0,0) ">
<use xlink:href="#Duplicate_Items_Folder_mouth_open_copy_4_0_Layer2_0_FILL"/>
</g>

<g transform="matrix( 1, 0, 0, 1, 0,0) ">
<use xlink:href="#Duplicate_Items_Folder_mouth_open_copy_4_0_Layer1_0_FILL"/>
</g>

<g transform="matrix( 1, 0, 0, 1, 0,0) ">
<use xlink:href="#Duplicate_Items_Folder_mouth_open_copy_4_0_Layer0_0_FILL"/>
</g>
</g>

<g transform="matrix( 1, 0, 0, 1, 0,0) ">
<use xlink:href="#Duplicate_Items_Folder_head_copy_36_0_Layer9_0_FILL"/>

<use xlink:href="#Duplicate_Items_Folder_head_copy_36_0_Layer9_0_1_STROKES"/>
</g>

<g transform="matrix( 1, 0, 0, 1, 0,0) ">
<use xlink:href="#Duplicate_Items_Folder_head_copy_36_0_Layer8_0_FILL"/>
</g>

<g transform="matrix( 1.3024139404296875, -0.1575164794921875, -0.21270751953125, 1.7716064453125, -94.55,22.4) ">
<g transform="matrix( 1, 0, 0, 1, 0,0) ">
<use xlink:href="#Duplicate_Items_Folder_ear_copy_8_0_Layer1_0_FILL"/>
</g>

<g transform="matrix( 1, 0, 0, 1, 0,0) ">
<use xlink:href="#Duplicate_Items_Folder_ear_copy_8_0_Layer0_0_FILL"/>
</g>
</g>

<g transform="matrix( -1.37774658203125, -0.189239501953125, 0.183563232421875, 1.777587890625, 82.1,26.85) ">
<g transform="matrix( 1, 0, 0, 1, 0,0) ">
<use xlink:href="#Duplicate_Items_Folder_ear_copy_8_0_Layer1_0_FILL"/>
</g>

<g transform="matrix( 1, 0, 0, 1, 0,0) ">
<use xlink:href="#Duplicate_Items_Folder_ear_copy_8_0_Layer0_0_FILL"/>
</g>
</g>

<g transform="matrix( -0.82958984375, 0, 0, 0.82958984375, 40.75,-23.45) ">
<g transform="matrix( 1, 0, 0, 1, 0,0) ">
<use xlink:href="#eye_blink_blood_0_Layer1_0_FILL"/>
</g>

<g transform="matrix( 1, 0, 0, 1, 0,0) ">
<use xlink:href="#eye_blink_blood_0_Layer0_0_FILL"/>
</g>
</g>

<g transform="matrix( 0.815185546875, 0, 0, 0.815185546875, -36.6,-14.5) ">
<g transform="matrix( 1, 0, 0, 1, 0,0) ">
<use xlink:href="#Duplicate_Items_Folder_eye_blink_copy_8_0_Layer3_0_FILL"/>
</g>

<g transform="matrix( 1, 0, 0, 1, 0,0) ">
<use xlink:href="#Duplicate_Items_Folder_eye_blink_copy_8_0_Layer2_0_FILL"/>
</g>

<g transform="matrix( 1.9821624755859375, 0.15484619140625, 0.15484619140625, -1.9821624755859375, 22.8,60.35) ">
<g transform="matrix( 1, 0, 0, 1, 0,0) ">
<use xlink:href="#Duplicate_Items_Folder_pupil_copy_4_0_Layer0_0_FILL"/>
</g>
</g>
</g>

<g transform="matrix( 1, 0, 0, 1, 0,0) ">
<use xlink:href="#Duplicate_Items_Folder_head_copy_36_0_Layer4_0_FILL"/>
</g>

<g transform="matrix( 1, 0, 0, 1, 0,0) ">
<use xlink:href="#Duplicate_Items_Folder_head_copy_36_0_Layer3_0_FILL"/>

<use xlink:href="#Duplicate_Items_Folder_head_copy_36_0_Layer3_0_1_STROKES"/>
</g>

<g transform="matrix( 1, 0, 0, 1, 0,0) ">
<use xlink:href="#Duplicate_Items_Folder_head_copy_36_0_Layer2_0_FILL"/>

<use xlink:href="#Duplicate_Items_Folder_head_copy_36_0_Layer2_0_1_STROKES"/>
</g>

<g transform="matrix( 1, 0, 0, 1, 0,0) ">
<use xlink:href="#Duplicate_Items_Folder_head_copy_36_0_Layer1_0_FILL"/>

<use xlink:href="#Duplicate_Items_Folder_head_copy_36_0_Layer1_0_1_STROKES"/>
</g>

<g transform="matrix( 1, 0, 0, 1, 0,0) ">
<use xlink:href="#Duplicate_Items_Folder_head_copy_36_0_Layer0_0_FILL"/>
</g>
</g>

<g transform="matrix( -0.228424072265625, 0.33038330078125, 0.33038330078125, 0.228424072265625, 71.1,-54.7) ">
<g transform="matrix( 1, 0, 0, 1, 0,0) ">
<use xlink:href="#Duplicate_Items_Folder_arm_suit_copy_21_0_Layer6_0_FILL"/>
</g>

<g transform="matrix( -0.3018035888671875, 0.05340576171875, 0.039398193359375, 0.222686767578125, 19.15,-19.55) ">
<clipPath id="Mask_Mask_2">
<rect x="41.6" y="-2" width="60.8" height="89" fill="#FFFFFF" stroke="none"/>
</clipPath>

<text clip-path="url(#Mask_Mask_2)" writing-mode="lr"><tspan x="43.65" y="65.45" baseline-shift="0%" font-family="GhoulishFrightAOE" font-size="85" fill="#FFFFFF" xml:space="preserve">B</tspan></text>
</g>

<g transform="matrix( 1, 0, 0, 1, 0,0) ">
<use xlink:href="#Duplicate_Items_Folder_arm_suit_copy_21_0_Layer4_0_FILL"/>

<use xlink:href="#Duplicate_Items_Folder_arm_suit_copy_21_0_Layer4_0_1_STROKES"/>
</g>

<g transform="matrix( 1, 0, 0, 1, 0,0) ">
<use xlink:href="#Duplicate_Items_Folder_arm_suit_copy_21_0_Layer3_0_FILL"/>
</g>

<g transform="matrix( 1, 0, 0, 1, 0,0) ">
<use xlink:href="#Duplicate_Items_Folder_arm_suit_copy_21_0_Layer2_0_FILL"/>
</g>

<g transform="matrix( 1, 0, 0, 1, 0,0) ">
<use xlink:href="#Duplicate_Items_Folder_arm_suit_copy_21_0_Layer1_0_FILL"/>

<use xlink:href="#Duplicate_Items_Folder_arm_suit_copy_21_0_Layer1_0_1_STROKES"/>
</g>

<g transform="matrix( 1, 0, 0, 1, 0,0) ">
<use xlink:href="#Duplicate_Items_Folder_arm_suit_copy_21_0_Layer0_0_FILL"/>
</g>
</g>

<g transform="matrix( -0.3513641357421875, 0.2447357177734375, 0.2241058349609375, 0.3217620849609375, 18.2,-59.95) ">
<g transform="matrix( 1, 0, 0, 1, 0,0) ">
<use xlink:href="#arm_ripped_0_Layer2_0_FILL"/>

<use xlink:href="#arm_ripped_0_Layer2_0_1_STROKES"/>
</g>

<g transform="matrix( 1, 0, 0, 1, 0,0) ">
<use xlink:href="#arm_ripped_0_Layer1_0_FILL"/>
</g>

<g transform="matrix( -0.1857147216796875, 0.243194580078125, 0.179443359375, 0.13702392578125, 30.95,-7.2) ">
<clipPath id="Mask_Mask_3">
<rect x="41.6" y="-2" width="60.8" height="89" fill="#FFFFFF" stroke="none"/>
</clipPath>

<text clip-path="url(#Mask_Mask_3)" writing-mode="lr"><tspan x="43.65" y="65.45" baseline-shift="0%" font-family="GhoulishFrightAOE" font-size="85" fill="#FFFFFF" xml:space="preserve">B</tspan></text>
</g>

<g transform="matrix( 1, 0, 0, 1, 0,0) ">
<use xlink:href="#arm_ripped_0_Layer0_0_FILL"/>

<use xlink:href="#arm_ripped_0_Layer0_0_1_STROKES"/>
</g>
</g>
</g>
</svg>
