
<svg xmlns="http://www.w3.org/2000/svg" version="1.1" xmlns:xlink="http://www.w3.org/1999/xlink" preserveAspectRatio="none" x="0px" y="0px" width="560px" height="544px" viewBox="0 0 560 544">
<defs>
<filter id="Filter_1" x="-20%" y="-20%" width="140%" height="140%" color-interpolation-filters="sRGB">
<feColorMatrix in="SourceGraphic" type="matrix" values="1 0 0 0 0 0 1 0 0 0 0 0 1 0 0 0 0 0 0.55 0" result="result1"/>
</filter>

<filter id="Filter_2" x="-20%" y="-20%" width="140%" height="140%" color-interpolation-filters="sRGB">
<feColorMatrix in="SourceGraphic" type="matrix" values="1 0 0 0 0 0 1 0 0 0 0 0 1 0 0 0 0 0 0.42 0" result="result1"/>
</filter>

<g id="Duplicate_Items_Folder_leg_suit_copy_13_0_Layer1_0_FILL">
<path fill="#3E2B17" stroke="none" d="
M 7.3 -30.45
L 4.55 -30.3
Q 6.4 -30.5 6.15 -30.65 1.45 -30.25 0.15 -28.95
L -5.45 -27.45
Q -8.65 -22.55 -12.4 -14 -18.4 -0.25 -20.55 8.85 -22.5 17.25 -25.45 23.25 -23.3 25.85 -18.8 27.85 -17.05 28.6 -14.95 29.3 -8.8 31.2 -3.75 31.2 -0.85 31.2 6.05 29.5 5.8 29.85 9.5 28.6 18.4 25.6 17.5 22.25 16.8 20.05 16 15.05 15.25 10.95 14.45 9.3 13.7 7.7 15.2 2.3 16.95 -4.2 16.95 -6.6 17.2 -14.65 17.15 -19.8 17.1 -24.45 16.7 -27.45
L 10.6 -29.55
Q 9.3115234375 -30.7908203125 7.35 -30.35 7.293359375 -30.325 7.2 -30.3 7.05 -30.25 6.9 -30.2
L 7 -30.25 7.3 -30.45
M 3.05 -27.8
Q 3.216796875 -27.8556640625 3.35 -27.95 -2.429296875 -10.766796875 -3.2 6.4 -5.2359375 6.5216796875 -7.55 6.95 -4.5845703125 -11.2033203125 3.05 -27.8 Z"/>

<path fill="#563A21" stroke="none" d="
M 3.35 -27.95
Q 3.216796875 -27.8556640625 3.05 -27.8 -4.5845703125 -11.2033203125 -7.55 6.95 -5.2359375 6.5216796875 -3.2 6.4 -2.429296875 -10.766796875 3.35 -27.95 Z"/>
</g>

<g id="Duplicate_Items_Folder_right_shoe_copy_8_0_Layer0_0_FILL">
<path fill="#000000" stroke="none" d="
M 11.1 -5.05
Q 8.923828125 -6.5638671875 6.15 -7.3 1.024609375 -8.9490234375 -5.85 -7.25 -9.2861328125 -6.328515625 -12.1 -4.35 -16.95 -0.95 -16.75 4.1 -16.75 4.45 -16.7 4.85 -16.75 4.85 -16.8 4.85 -17.75 6.85 -17.7 9 -17.65 9.5 -17.6 9.95 -13.8404296875 11.0197265625 -10.15 11.6 -2.2580078125 12.802734375 5.4 11.75 11.5166015625 10.9525390625 17.5 8.7 17.55 8.25 17.5 7.75 17.45 5.35 16.15 3.35 16.05 3.35 15.95 3.4 15.95 3.2 15.95 2.95 15.75 -2.1 11.1 -5.05
M 2.9 -6.1
Q 5.95 -5.75 8.5 -4.25 12.55 -1.85 12.7 2.1 12.7 2.45 12.7 2.8 12.45 2.9 12.2 3 11.5 1.25 8.65 0 6.4373046875 -0.909375 3.7 -1.2 1.908203125 -1.408984375 -0.1 -1.35 -0.4826171875 -1.3349609375 -1.5 -1.25 -5.4625 -1.0150390625 -8.7 0.65 -9.7 1.15 -10.4 1.75 -11.7 2.8 -11.95 4.05 -12.5 3.85 -13 3.7 -13.05 3.35 -13.05 3 -13.2 -0.95 -9.95 -3.35 -7 -5.5 -2.1 -6.1 -1.65 -6.15 -1.2 -6.2 0.95 -6.35 2.9 -6.1
M -7.1 4.9
Q -8.38359375 4.7484375 -9.65 4.5 -9.65 4.35 -9.65 4.15 -9.7 2.25 -7.3 1.25 -5.4328125 0.471875 -2.35 0.1 -1.4767578125 -0.022265625 -0.5 -0.1 2.075 -0.333984375 4.25 -0.1 5.83125 0.08515625 7.2 0.5 10.45 1.55 10.5 3.45 10.5 3.5 10.5 3.55 10.5 3.7 10.45 3.8 8.5 4.35 6.55 4.65 4.9427734375 4.92109375 3.35 5.05 -1.96015625 5.61796875 -7.1 4.9
M -7 10.95
L -6.7 7.15
Q -5.05 7.3 -3.35 7.4
L -3.8 11.1
Q -4.85 10.9 -7 10.95
M -8.3 6.95
Q -7.9203125 6.9970703125 -7.55 7.05
L -7.95 10.85
Q -8.7724609375 10.6712890625 -9.75 10.55 -10.1013671875 10.528515625 -10.5 10.5
L -10.25 6.65
Q -9.2939453125 6.7970703125 -8.3 6.95
M -2.5 11.05
L -2.4 7.4
Q -0.7 7.4 1.05 7.3
L 1.2 10.9
Q -0.4 10.95 -2.5 11.05
M -16.85 9.55
Q -16.9 9.55 -16.95 8.45 -16.95 7.35 -15.8 5.4 -15.35 5.5 -14.85 5.6
L -15.45 9.85
Q -16.2 9.65 -16.85 9.55
M -11.15 6.45
L -11.75 10.35
Q -13 10.2 -14.3 10
L -14.25 5.8
Q -12.75 6.15 -11.15 6.45
M 10.5 5.65
Q 11.95 5.2 13.45 4.75
L 14.55 8.8
Q 12.65 9.35 11.3 9.65
L 10.5 5.65
M 16.85 8.35
Q 16.1 8.55 15.2 8.6
L 14.3 4.45
Q 14.9 4.25 15.45 4.1 16.65 5.85 16.75 6.9 16.8 7.95 16.85 8.35
M 2.4 10.8
L 1.95 7.2
Q 3.220703125 7.091015625 4.5 6.9 5.00703125 6.8322265625 5.5 6.75
L 6.25 10.45
Q 5.6927734375 10.510546875 5.15 10.55 3.5744140625 10.72421875 2.4 10.8
M 7.25 10.3
L 6.35 6.6
Q 7.95 6.25 9.65 5.9
L 10.45 9.75
Q 8.4 10.15 7.25 10.3 Z"/>

<path fill="#CC0000" stroke="none" d="
M 6.35 6.6
L 7.25 10.3
Q 8.4 10.15 10.45 9.75
L 9.65 5.9
Q 7.95 6.25 6.35 6.6
M 1.95 7.2
L 2.4 10.8
Q 3.5744140625 10.72421875 5.15 10.55
L 4.5 6.9
Q 3.220703125 7.091015625 1.95 7.2
M -11.75 10.35
L -11.15 6.45
Q -12.75 6.15 -14.25 5.8
L -14.3 10
Q -13 10.2 -11.75 10.35
M -2.4 7.4
L -2.5 11.05
Q -0.4 10.95 1.2 10.9
L 1.05 7.3
Q -0.7 7.4 -2.4 7.4
M -6.7 7.15
L -7 10.95
Q -4.85 10.9 -3.8 11.1
L -3.35 7.4
Q -5.05 7.3 -6.7 7.15
M -2.35 0.1
L -3.35 1 -4.4 1.25
Q -5.5654296875 1.612109375 -6.3 2.15 -6.8294921875 2.7041015625 -6.8 3.5 -6.8 3.565234375 -7.4 4.05
L -7.1 4.9
Q -1.96015625 5.61796875 3.35 5.05 4.9427734375 4.92109375 6.55 4.65 8.5 4.35 10.45 3.8 10.5 3.7 10.5 3.55 10.5 3.5 10.5 3.45 10.45 1.55 7.2 0.5 5.83125 0.08515625 4.25 -0.1 2.075 -0.333984375 -0.5 -0.1 -1.4767578125 -0.022265625 -2.35 0.1
M 6.55 3.05
L 6.55 3.1
Q 6.55 3.2 5.8 3.35 5.2033203125 3.5205078125 2.2 3.8
L 1.85 3.4 3.75 0.9
Q 4.041015625 0.9716796875 4.3 1.05 6.5 1.7 6.55 3.05
M 3.7 -1.2
Q 4.4541015625 -2.7599609375 2.15 -4.15 2.6283203125 -3.3525390625 -1.5 -1.25 -0.4826171875 -1.3349609375 -0.1 -1.35 1.908203125 -1.408984375 3.7 -1.2 Z"/>

<path fill="#666666" stroke="none" d="
M 6.25 10.45
L 5.5 6.75
Q 5.00703125 6.8322265625 4.5 6.9
L 5.15 10.55
Q 5.6927734375 10.510546875 6.25 10.45
M 15.2 8.6
Q 16.1 8.55 16.85 8.35 16.8 7.95 16.75 6.9 16.65 5.85 15.45 4.1 14.9 4.25 14.3 4.45
L 15.2 8.6
M 13.45 4.75
Q 11.95 5.2 10.5 5.65
L 11.3 9.65
Q 12.65 9.35 14.55 8.8
L 13.45 4.75
M -16.95 8.45
Q -16.9 9.55 -16.85 9.55 -16.2 9.65 -15.45 9.85
L -14.85 5.6
Q -15.35 5.5 -15.8 5.4 -16.95 7.35 -16.95 8.45
M -7.55 7.05
Q -7.9203125 6.9970703125 -8.3 6.95 -9.2939453125 6.7970703125 -10.25 6.65
L -10.5 10.5
Q -10.1013671875 10.528515625 -9.75 10.55 -8.7724609375 10.6712890625 -7.95 10.85
L -7.55 7.05 Z"/>

<path fill="#CCCCCC" stroke="none" d="
M -5.25 1.55
Q -5.9068359375 1.7962890625 -6.3 2.15 -5.5654296875 1.612109375 -4.4 1.25 -4.8564453125 1.3849609375 -5.25 1.55
M 6.55 3.1
L 6.55 3.05
Q 6.5 1.7 4.3 1.05 4.041015625 0.9716796875 3.75 0.9
L 1.85 3.4 2.2 3.8
Q 5.2033203125 3.5205078125 5.8 3.35 6.55 3.2 6.55 3.1 Z"/>

<path fill="#999999" stroke="none" d="
M -3.35 1
L -2.35 0.1
Q -5.4328125 0.471875 -7.3 1.25 -9.7 2.25 -9.65 4.15 -9.65 4.35 -9.65 4.5 -8.38359375 4.7484375 -7.1 4.9
L -7.4 4.05
Q -6.8 3.565234375 -6.8 3.5 -6.8294921875 2.7041015625 -6.3 2.15 -5.9068359375 1.7962890625 -5.25 1.55 -4.8564453125 1.3849609375 -4.4 1.25
L -3.35 1 Z"/>

<path fill="#151515" stroke="none" d="
M 8.5 -4.25
Q 5.95 -5.75 2.9 -6.1 0.95 -6.35 -1.2 -6.2 -1.65 -6.15 -2.1 -6.1 -7 -5.5 -9.95 -3.35 -13.2 -0.95 -13.05 3 -13.05 3.35 -13 3.7 -12.5 3.85 -11.95 4.05 -11.7 2.8 -10.4 1.75 -9.7 1.15 -8.7 0.65 -5.4625 -1.0150390625 -1.5 -1.25 2.6283203125 -3.3525390625 2.15 -4.15 4.4541015625 -2.7599609375 3.7 -1.2 6.4373046875 -0.909375 8.65 0 11.5 1.25 12.2 3 12.45 2.9 12.7 2.8 12.7 2.45 12.7 2.1 12.55 -1.85 8.5 -4.25 Z"/>
</g>

<g id="Duplicate_Items_Folder_arm_knives_copy_6_0_Layer0_0_FILL">
<path fill="#090909" stroke="none" d="
M -26 34.25
L -22.1 33.9 -12.25 18.55 7.75 1.15
Q 5.8 -3.9 0.05 -10.75
L -22.95 18
Q -23 18.05 -26.8 24.85 -31 32.15 -31.55 31.85
L -31.65 31.9
Q -31.7 32.5 -31.65 33.3 -30.05 34.2 -28.6 34.7
L -26.3 34.35
Q -26.2 34.35 -26 34.25 Z"/>

<path fill="#111111" stroke="none" d="
M 7.35 10
Q 9.85 6.8 7.75 1.15
L -12.25 18.55 -22.1 33.9 -20 33.5
Q -14.95 29.7 -10.1 21.2
L 7.35 10 Z"/>

<path fill="#000000" stroke="none" d="
M -2.05 -13.9
Q -3.5 -12.45 -6.15 -8.1 -8.9 -3.7 -10.65 -1.7 -15.9 4.15 -18.9 7.5 -22.5 11.5 -23 12.25 -23.9 13.45 -28.4 19.35 -32.8 25.1 -32.5 31.45 -32.45 33.75 -32.35 35.35
L -31.35 35.15
Q -31.35 35.1 -31.35 35.05
L -28.6 34.7
Q -30.05 34.2 -31.65 33.3 -31.7 32.5 -31.65 31.9
L -31.55 31.85
Q -31 32.15 -26.8 24.85 -23 18.05 -22.95 18
L 0.05 -10.75
Q 5.8 -3.9 7.75 1.15 9.85 6.8 7.35 10
L -10.1 21.2
Q -14.95 29.7 -20 33.5
L -16.7 32.7
Q -14.85 30.05 -11.35 26.85 -9.95 25.55 -8.15 23.95 -4.75 21.05 0.15 17.2 1.95 16.3 3.35 15.65 5.15 14.75 6.35 14.5 7.8 14.05 8.55 13.5 8.9 13.25 11.15 9.75 11.85 9.3 15.1 7.75 16.7861328125 6.9359375 17.55 6.5 18.1162109375 6.1755859375 18.2 6.05 18.7 4.95 20.4 5.1 21.5 5.2 24.45 6.15 27.1 6.55 28.5 4.55 29.85 2.5 29.7 0.65 29.5 -1.05 29.4 -2.2 28.1 -6.55 25.15 -7.5
L 22.05 -8.7
Q 22.85 -10.4 24.95 -10.4
L 28.1 -8.35
Q 31.45 -6.7 33 -6.95 34.7 -7.15 35.55 -7.2 36.4 -7.25 37.6 -8.4 38.7 -9.7 39.8 -11.5 40.8 -13.4 39.3 -15.85
L 28.75 -26.8
Q 25.25 -28.3 22.45 -25.4 22 -27.75 18.95 -29.1 17.3 -29.1 15 -27.15 14.9 -27.25 10.05 -22.55 3.35 -16.1 1.75 -14.65 0.55 -13.55 0.1 -14.7 -0.25 -15.75 -2.05 -13.9
M 7.95 -17.85
Q 8.95 -18.75 9.95 -19.6 13.65 -22.55 17.8 -25.1 19.65 -25 21.4 -23.95 21.75 -23.6 22.05 -23.45 24.3 -25.3 27.9 -25.65
L 37.6 -14.85
Q 37.6326171875 -14.7447265625 37.65 -14.65 38.2048828125 -12.6673828125 37.35 -11.1 36.65 -10.3 35.9 -9.85 35.2 -9.4 34.3 -9.4 31.4 -8.75 28.5 -10.7 26.75 -13.2 23.85 -12.1 22.85 -11.7 21.6 -10.8 16.95 -7.4 19.95 -7.15 20.25 -7.15 23.9 -6.3
L 24.65 -5.45
Q 26.35 -4.1 26.85 -1.4 27.35 1.1 26.45 2.7 25.5 4.15 21.85 3.65 18.25 3.05 17.3 3.55 16.9125 3.7345703125 16.45 3.95 15.733203125 4.326953125 14.85 4.8 13.5 5.6 13.15 6
L 13 6.15
Q 12.2 6.9 11 7.8
L 11.4 1.45 11.15 2.4 11 1.3 9.1 -4.35 5.05 -7.8 3.85 -10.1 2.1 -12.4
Q 4.85 -15.3 7.95 -17.85 Z"/>

<path fill="#D9A07B" stroke="none" d="
M 13 6.15
L 13.15 6
Q 13.5 5.6 14.85 4.8 15.733203125 4.326953125 16.45 3.95
L 14.5 -0.65
Q 12.997265625 0.37734375 11.4 1.45
L 11 7.8
Q 12.2 6.9 13 6.15 Z"/>

<path fill="#9592A9" stroke="none" d="
M 11.4 1.45
L 11 1.3 11.15 2.4 11.4 1.45 Z"/>

<path fill="#990000" stroke="none" d="
M 24.65 -5.45
L 23.9 -6.3
Q 19.5673828125 -3.8845703125 14.5 -0.65
L 16.45 3.95
Q 16.9125 3.7345703125 17.3 3.55 18.25 3.05 21.85 3.65 25.5 4.15 26.45 2.7 27.35 1.1 26.85 -1.4 26.35 -4.1 24.65 -5.45 Z"/>

<path fill="#CC0000" stroke="none" d="
M 12.15 -6.2
L 14.5 -0.65
Q 19.5673828125 -3.8845703125 23.9 -6.3 20.25 -7.15 19.95 -7.15 16.95 -7.4 21.6 -10.8 22.85 -11.7 23.85 -12.1 26.75 -13.2 28.5 -10.7 31.4 -8.75 34.3 -9.4 35.2 -9.4 35.9 -9.85 36.65 -10.3 37.35 -11.1 38.2048828125 -12.6673828125 37.65 -14.65 31.8095703125 -18.6078125 26.55 -20.05 19.7103515625 -18.1587890625 13.6 -13.25
L 12.15 -6.2 Z"/>

<path fill="#E9AA8A" stroke="none" d="
M 10 -15.35
Q 9 -14.6 8.05 -13.7 5.7 -11.85 3.85 -10.1
L 5.05 -7.8 9.1 -4.35 11 1.3 11.4 1.45
Q 12.997265625 0.37734375 14.5 -0.65
L 12.15 -6.2 13.6 -13.25
Q 19.7103515625 -18.1587890625 26.55 -20.05 31.8095703125 -18.6078125 37.65 -14.65 37.6326171875 -14.7447265625 37.6 -14.85
L 27.9 -25.65
Q 24.3 -25.3 22.05 -23.45 21.75 -23.6 21.4 -23.95 15.7 -20.05 10 -15.35 Z"/>

<path fill="#F1C9B8" stroke="none" d="
M 9.95 -19.6
Q 8.95 -18.75 7.95 -17.85 4.85 -15.3 2.1 -12.4
L 3.85 -10.1
Q 5.7 -11.85 8.05 -13.7 9 -14.6 10 -15.35 15.7 -20.05 21.4 -23.95 19.65 -25 17.8 -25.1 13.65 -22.55 9.95 -19.6 Z"/>
</g>

<g id="Duplicate_Items_Folder_body_suit_copy_17_0_Layer2_0_FILL">
<path fill="#FFFFFF" stroke="none" d="
M -31.45 27.05
Q -31.396875 27.2654296875 -31.35 27.5
L -31.3 27.5
Q -31.35 27.3 -31.45 27.05
L -31.45 27.05
M 30.15 27.4
Q 30.1658203125 27.4865234375 30.15 27.55
L 30.2 27.55 30.15 27.4
M 0.4 -1.4
L 0.15 -2.95 0.45 4.3 0.4 -1.4 Z"/>

<path fill="#000000" stroke="none" d="
M -0.75 -46.9
Q -1.1423828125 -46.85078125 -1.55 -46.85 -1.5998046875 -46.828125 -1.65 -46.85 -1.7931640625 -46.810546875 -1.95 -46.8 -4.55 -46.65 -7.55 -46.4 -8.1208984375 -46.35 -8.7 -46.3 -11.0611328125 -46.08984375 -13.7 -45.85 -14.6 -45.85 -18.25 -44.55 -21.8 -43.25 -28.25 -32.95 -30.0236328125 -22.57109375 -30.55 -14.95 -31.162109375 -5.7255859375 -30.45 -2.55 -29.690234375 0.6326171875 -30.1 5.4 -30.45703125 10.2064453125 -30.3 14.4 -30.15 18.603125 -30.4 20.15 -30.7220703125 22.578125 -30.8 23.55 -30.840234375 24.033984375 -30.95 24.55 -31.090234375 25.71796875 -31.45 27.05 -31.35 27.3 -31.3 27.5
L -31.35 27.5
Q -31.396875 27.2654296875 -31.45 27.05 -32.7291015625 31.9294921875 -32.25 33.25 -31.7185546875 34.5826171875 -26.3 38.5 -20.8841796875 42.41328125 -12.45 43.85 -3.964453125 45.27734375 -2.25 45.75 -2.1001953125 45.8109375 -2 45.85 -1.4861328125 45.9853515625 -1.05 46.1 2.6921875 46.2501953125 5.7 45.8 8.9423828125 45.3375 13.45 44.15 22.490625 41.8611328125 25.95 37.65 26.5982421875 36.896875 27.15 36.25 29.682421875 33.2970703125 30.7 32.6 30.84453125 32.5498046875 30.9 32.25 30.997265625 31.7560546875 30.9 30.6 30.80703125 29.4802734375 30.5 27.75 30.5171875 27.655859375 30.5 27.55
L 30 24.35 30 24.4
Q 30.232421875 25.9318359375 29.95 24.55 30.0302734375 23.4375 29.5 20.15 29.3505859375 19.203125 29.15 18.05 28.203125 12.755078125 28.3 7.25 28.441796875 1.7505859375 28.65 0.85 29.6013671875 -2.937109375 29.6 -8.75 29.6009765625 -9.255078125 29.6 -9.8 29.58828125 -10.33046875 29.55 -10.9 29.455078125 -15.3857421875 29.35 -20.95 29.3083984375 -23.715625 29.05 -26.1
L 29.05 -26.15
Q 28.8498046875 -28.401953125 28.45 -30.3 28.490234375 -32.990625 25.35 -36.3 23.66484375 -38.1189453125 21 -40.15 16.2982421875 -43.6734375 14 -44.7 12.73984375 -45.3697265625 9.9 -45.8 5.966796875 -46.3904296875 5.5 -46.45 3.421484375 -46.5904296875 1.5 -46.7 1.1546875 -46.7294921875 0.8 -46.75 0.675 -46.75 0.55 -46.75
L 0.55 -46.95
Q -0.083203125 -46.9056640625 -0.75 -46.9
M -0.3 -41.75
Q -0.3 -41.8 -0.25 -41.75 -0.05 -41.8 0.2 -41.8 0.55 -41.8 0.9 -41.8
L 0.9 -41.75
Q 0.95 -41.75 1 -41.75 1.2 -41.75 1.4 -41.7 2.4 -41.65 3.5 -41.55 3.6 -41.55 4.05 -41.45 4.5 -41.4 5.4 -41.25
L 9.85 -40.5
Q -0.5744140625 -26.7818359375 -9.95 -41.5 -4.7369140625 -41.4509765625 -4.05 -41.5 -3.7 -41.5 -3.45 -41.55 -1.85 -41.7 -0.45 -41.75 -0.4 -41.75 -0.3 -41.75
M -15.75 -41.4
Q -15.5150390625 -41.44609375 -15.3 -41.5 -14.61796875 -41.6189453125 -14.1 -41.75 -11.6947265625 -35.4294921875 -7.3 -32.15 0.6162109375 -29.2115234375 9.95 -31.15
L 13.2 -40.85 12.6 -41.9
Q 13.3529296875 -41.8013671875 18.7 -38.4 24.0412109375 -34.9958984375 23.8 -29.5 24.1 -25.75 25 -17.55 24.75 -17.6 24.6 -10.7 24.6 -9.55 24.55 -8.1 25.4 8.55 25.75 17.4 27 24.75 27 24.85
L 26.95 24.8
Q 27.0029296875 24.8560546875 27.05 24.95 28.7 28.6 28.25 29.6 27.4 31.9 21.9 35.75 16.4 39.55 9.45 40.6 3.75 41.4 1.6 41.85
L -1.95 41.45
Q -5.8798828125 41.5046875 -10.9 40.75 -17.809765625 39.759765625 -23.3 35.9 -28.7974609375 32.0947265625 -29.65 29.8 -30.1 28.8 -28.45 25.15 -28.411328125 25.07265625 -28.4 25 -28.398828125 25.0259765625 -28.45 25.05 -28.3953125 24.9513671875 -27.2 17.6 -26.78671875 8.7466796875 -25.95 -7.95 -25.977734375 -9.3263671875 -26 -10.55 -26.156640625 -17.425 -26.45 -17.35 -25.501171875 -25.546875 -25.2 -29.3 -18.5 -40.9 -15.75 -41.4
M -14 -41.65
L -14.05 -41.75 -14 -41.75 -14 -41.65
M 11.8 -41.75
Q 11.789453125 -41.7541015625 11.75 -41.75 11.2171875 -41.9751953125 10.35 -42.3 9.8955078125 -42.4828125 9.3 -42.7 10.37734375 -42.3625 11.4 -41.95 11.6125 -41.838671875 11.8 -41.75
M 30.15 27.55
Q 30.1658203125 27.4865234375 30.15 27.4
L 30.2 27.55 30.15 27.55
M -14.9 -2.1
L -12.55 0.45
Q -13.0572265625 -1.1435546875 -14.9 -2.1
M -28.25 24.9
L -28.15 24.9
Q -28.15 24.8712890625 -28.2 24.8 -28.2125 24.858203125 -28.25 24.9
M 26.75 24.65
L 26.75 24.7 26.85 24.7
Q 26.8 24.65 26.75 24.65 Z"/>

<path fill="#006699" stroke="none" d="
M 11.75 -41.75
Q 11.789453125 -41.7541015625 11.8 -41.75 11.6125 -41.838671875 11.4 -41.95 10.37734375 -42.3625 9.3 -42.7 9.8955078125 -42.4828125 10.35 -42.3 11.2171875 -41.9751953125 11.75 -41.75 Z"/>

<path fill="#0F0D0B" stroke="none" d="
M -14.05 -41.75
L -14 -41.65 -14 -41.75 -14.05 -41.75 Z"/>

<path fill="#090909" stroke="none" d="
M -15.3 -41.5
Q -15.5150390625 -41.44609375 -15.75 -41.4 -18.5 -40.9 -25.2 -29.3 -25.501171875 -25.546875 -26.45 -17.35 -26.156640625 -17.425 -26 -10.55 -25.977734375 -9.3263671875 -25.95 -7.95 -26.78671875 8.7466796875 -27.2 17.6 -28.3953125 24.9513671875 -28.45 25.05 -28.398828125 25.0259765625 -28.4 25 -28.411328125 25.07265625 -28.45 25.15 -30.1 28.8 -29.65 29.8 -28.7974609375 32.0947265625 -23.3 35.9 -17.809765625 39.759765625 -10.9 40.75 -5.8798828125 41.5046875 -1.95 41.45
L 1.6 41.85
Q 3.75 41.4 9.45 40.6 16.4 39.55 21.9 35.75 27.4 31.9 28.25 29.6 28.7 28.6 27.05 24.95 27.0029296875 24.8560546875 26.95 24.8
L 27 24.85
Q 27 24.75 25.75 17.4 25.4 8.55 24.55 -8.1 24.6 -9.55 24.6 -10.7 24.75 -17.6 25 -17.55 24.1 -25.75 23.8 -29.5 24.0412109375 -34.9958984375 18.7 -38.4 13.3529296875 -41.8013671875 12.6 -41.9
L 13.2 -40.85 9.95 -31.15
Q 0.6162109375 -29.2115234375 -7.3 -32.15 -11.6947265625 -35.4294921875 -14.1 -41.75 -14.61796875 -41.6189453125 -15.3 -41.5
M 0.15 -2.95
L 0.4 -1.4 0.45 4.3 0.15 -2.95
M 26.75 24.7
L 26.75 24.65
Q 26.8 24.65 26.85 24.7
L 26.75 24.7
M -28.15 24.9
L -28.25 24.9
Q -28.2125 24.858203125 -28.2 24.8 -28.15 24.8712890625 -28.15 24.9
M -12.55 0.45
L -14.9 -2.1
Q -13.0572265625 -1.1435546875 -12.55 0.45
M -0.25 -41.75
Q -0.3 -41.8 -0.3 -41.75 -0.4 -41.75 -0.45 -41.75 -1.85 -41.7 -3.45 -41.55 -3.7 -41.5 -4.05 -41.5 -4.7369140625 -41.4509765625 -9.95 -41.5 -0.5744140625 -26.7818359375 9.85 -40.5
L 5.4 -41.25
Q 4.5 -41.4 4.05 -41.45 3.6 -41.55 3.5 -41.55 2.4 -41.65 1.4 -41.7 1.2 -41.75 1 -41.75 0.95 -41.75 0.9 -41.75
L 0.9 -41.8
Q 0.55 -41.8 0.2 -41.8 -0.05 -41.8 -0.25 -41.75 Z"/>
</g>

<g id="Duplicate_Items_Folder_body_suit_copy_17_0_Layer1_0_FILL">
<path fill="#4B0101" stroke="none" d="
M -18.05 22.7
Q -18.7 21.45 -19.75 19.7 -20.8 17.9 -21.6 18.5 -22.4 19.05 -23.85 23.85 -25.35 28.6 -23.95 29.65 -22.6 30.65 -20.75 30.5 -18.95 30.35 -18.25 30.25 -17.6 30.1 -17.5 27.05 -17.4 24 -18.05 22.7
M -6.2 -6.8
Q -7.25 -10.85 -8.3 -11.1 -9.35 -11.4 -9.35 -7.65 -9.4 -3.9 -13.05 -0.85 -10.35 -3.25 -11.35 -3.3 -12.75 -3.35 -13.8 -1.95 -14.8 -0.5 -14.85 1.6 -14.9 3.7 -14 5.2 -13.05 6.7 -11.65 6.75 -10.3 6.8 -9.4 8.9 -6.55 14.85 -5.9 13.7 -5.3 12.5 -5.35 7.95 -5.4 3.4 -5.3 0.3 -5.2 -2.75 -6.2 -6.8
M 16.45 31.35
Q 15.7 33.4 15.65 34.65 15.6 35.9 16.2 36.75 16.85 37.6 17.8 37.65 18.8 37.7 19.45 36.9 20.1 36.1 20.15 34.85 20.2 33.6 19.65 31.95 19.1 30.3 18.15 29.8 17.15 29.3 16.45 31.35
M 23.65 20.15
Q 23.7 17.5 22.4 13.7 21.1 9.9 19.2 8.8 17.3 7.65 16 12.1 14.65 16.5 14.3 18.1 14.15 18.3 13.95 18.55 12.75 20.25 12.65 22.75 12.6 25.25 13.7 27.05 14.85 28.85 16.5 28.9 18.2 29 19.4 27.3 19.8 26.75 20.1 26.15 21.2 25.75 22.1 24.6 23.55 22.8 23.65 20.15
M 12.45 -6.1
Q 13.1 -8.8 13.1 -10.2 13.15 -11.6 12.6 -12.55 12.05 -13.5 11.2 -13.55 10.4 -13.55 9.8 -12.65 9.25 -11.75 9.2 -10.35 9.2 -8.95 9.7 -7.75 10.2 -6.6 11 -5 11.75 -3.45 12.45 -6.1 Z"/>
</g>

<g id="Duplicate_Items_Folder_body_suit_copy_17_0_Layer0_0_FILL">
<path fill="#CC0000" stroke="none" d="
M -22.35 16.85
Q -23.140234375 17.4560546875 -24.65 22.2 -26.10078125 27.0041015625 -24.75 28 -23.3517578125 29.037109375 -21.55 28.9 -19.704296875 28.765234375 -19.05 28.6 -18.342578125 28.484375 -18.25 25.45 -18.1525390625 22.405078125 -18.8 21.1 -19.4453125 19.8533203125 -20.5 18.05 -21.564453125 16.2896484375 -22.35 16.85
M -13.8 -2.5
Q -11.089453125 -4.8638671875 -12.1 -4.9 -13.5 -4.95 -14.55 -3.55 -15.55 -2.1 -15.6 0 -15.65 2.1 -14.75 3.6 -13.8 5.1 -12.4 5.15 -11.0423828125 5.1984375 -10.15 7.25 -7.32109375 13.230078125 -6.7 12.05 -6.0400390625 10.91484375 -6.1 6.35 -6.151953125 1.794921875 -6.05 -1.3 -5.95234375 -4.3515625 -7 -8.4 -7.99296875 -12.4453125 -9.05 -12.75 -10.107421875 -13.0115234375 -10.15 -9.25 -10.146875 -5.478125 -13.8 -2.5
M 17.35 28.2
Q 16.416015625 27.7169921875 15.65 29.75 14.94453125 31.794140625 14.9 33.05 14.85 34.3 15.45 35.15 16.1 36 17.05 36.05 18.05 36.1 18.7 35.3 19.35 34.5 19.4 33.25 19.4552734375 32.0056640625 18.9 30.35 18.3337890625 28.6828125 17.35 28.2
M 22.9 18.55
Q 22.945703125 15.902734375 21.65 12.1 20.362890625 8.291796875 18.45 7.15 16.5314453125 6.058984375 15.2 10.45 13.9212890625 14.894921875 13.55 16.5 13.375390625 16.7115234375 13.2 16.95 12 18.65 11.9 21.15 11.85 23.65 12.95 25.45 14.1 27.25 15.75 27.3 17.45 27.4 18.65 25.7 19.0408203125 25.1685546875 19.3 24.55 20.434375 24.1681640625 21.35 23 22.8 21.2 22.9 18.55
M 11.65 -7.75
Q 12.3470703125 -10.40078125 12.35 -11.8 12.4 -13.2 11.85 -14.15 11.3 -15.1 10.45 -15.15 9.65 -15.15 9.05 -14.25 8.5 -13.35 8.45 -11.95 8.4529296875 -10.5494140625 8.95 -9.4 9.4412109375 -8.201953125 10.2 -6.65 11.0087890625 -5.0482421875 11.65 -7.75 Z"/>
</g>

<g id="Duplicate_Items_Folder_head_copy_32_7_Layer19_0_FILL">
<path fill="#1E1715" stroke="none" d="
M -47.55 -57.35
L -57.5 -58.25 -59.05 -46.85 -54 -34.85 -57.05 -10.9 -71.25 0 -71.85 11.95 -57.7 22.6 -49.85 -18.55 -51.45 -29.65 -51.4 -43.35 -49 -51.8
Q -48.2 -54.85 -47.55 -57.35
M 53.45 -44.6
Q 52.5 -46.45 51.7 -48.25
L 35.75 -49.7 35 -45.4 43.15 -18.15 36.65 -3.9 36.55 29.5 42.2 37.8 48.55 25.75 57.5 19.5 51.4 -3.1 50.4 -27.4 56.45 -24.15 58.3 -36.55 53.45 -44.6 Z"/>
</g>

<g id="Duplicate_Items_Folder_head_copy_32_7_Layer18_0_FILL">
<path fill="#E4DBD6" stroke="none" d="
M -57.15 35.85
L -55.4 35.05
Q -56.7759765625 33.478515625 -57.95 31.65 -57.5884765625 33.724609375 -57.15 35.85 Z"/>

<path fill="#D0A284" stroke="none" d="
M -62.5 19.05
Q -61.7859375 21.812109375 -61.1 24.05
L -59.25 24.5 -62.5 19.05
M -55.85 -4
Q -55.9046875 -3.9392578125 -55.95 -3.9 -55.969921875 -3.84296875 -56 -3.8
L -56.05 -3.7 -55.25 -4.9 -55.6 -4.4
Q -55.70546875 -4.20625 -55.85 -4 Z"/>

<path fill="#8D8C47" stroke="none" d="
M -39.65 43.55
Q -38.1439453125 43.83671875 -36.65 44.1
L -40.55 34.3 -48.65 33 -50.85 26.55 -59.15 24.5
Q -59.028515625 24.7751953125 -58.9 25
L -59.25 24.5 -61.1 24.05
Q -59.4763671875 29.1931640625 -57.95 31.65 -56.7759765625 33.478515625 -55.4 35.05 -49.552734375 41.7119140625 -39.65 43.55 Z"/>

<path fill="#BB9F77" stroke="none" d="
M 37.65 -4.45
Q 28.611328125 -7.85625 17.55 -9.75 14.9 -10.25 12.15 -10.65 8 -11.25 3.75 -11.55
L -10.55 -12.45 -10.7 -12.45 -11.3 -12.5
Q -12.72578125 -12.567578125 -14.2 -12.6
L -16.15 -12.55
Q -17.3755859375 -12.5169921875 -18.65 -12.45
L -26.75 -11.65
Q -30.5 -11.3 -34.5 -10.65 -43.3931640625 -9.1677734375 -54.6 -5.55 -54.836328125 -5.1408203125 -56.3 -3.25
L -57.8 -0.2 -57.5 -1.65
Q -57.5224609375 -1.59375 -57.6 -1.55
L -57.5 -1.7 -56.55 -6.1
Q -57.45 -2.3 -58.85 1.7 -59.05 2.3 -59.25 2.9
L -59.3 4.7
Q -59.15 4.65 -58.95 4.65 -58.9 4.65 -58.85 4.65 -59.05 5.35 -59.25 6.05 -59.8 8.6 -60.05 9.1
L -60.1 9.15
Q -60.5 9.95 -60.8 10.65 -61.2 12.1 -61.5 13.8 -61.55 13.9 -61.55 14.05 -61.7 15.9 -61.6 17.85
L -61.6 18.1
Q -61.6 18.55 -61.5 19.1 -61.5 19.15 -61.5 19.25 -61.5 19.6 -61.4 20.05 -60.95 21.3 -60 22.35 -59.6361328125 23.487109375 -59.15 24.5
L -50.85 26.55 -48.65 33 -40.55 34.3 -36.65 44.1
Q -21.562109375 46.663671875 -6.2 46.3 10.5 45.9 15.95 45.6 21.35 45.25 34.6 41.9 46.6 38.8 45.5 22.35 45.35 21.2 45.2 19.95 45.15 19.35 45.05 18.65
L 44.55 15.6 45.05 18.65
Q 45.15 19.35 45.2 19.95 45.35 21.2 45.5 22.35 45.6 21.25 45.6 19.95 45.55 17.35 45.05 14.4
L 45.05 14.35 44.55 11.7 43.7 11.8 43.95 13.45 43.7 11.8 40.85 -3.2
Q 40.65 -3.25 40.55 -3.3 39.1373046875 -3.8916015625 37.65 -4.45
M 33.25 7.55
Q 33.45 7.25 33.65 7 37.4 1.65 30.75 -3.05 37.4 1.65 33.65 7 35 5.4 36.8 5.8
L 33.6 8.35 33.75 8.95 33.6 8.35 31.75 9.85
Q -11.9 29.8 -49.35 9.55 -8.15 -2.75 33.25 7.55
M -56.9 4.25
Q -56.86796875 4.2392578125 -56.85 4.2 -56.7072265625 4.2 -56.55 4.2 -56.712890625 4.2814453125 -56.9 4.35 -57.012890625 4.4314453125 -57.15 4.5 -57.8 5.35 -58.25 4.55 -57.6 4.4 -56.9 4.25
M -50.7 8.3
Q -55.25 3.3 -51.2 -1.1 -55.25 3.3 -50.7 8.3 Z"/>

<path fill="#E9AA8A" stroke="none" d="
M -56.85 4.2
Q -56.854296875 4.3029296875 -56.9 4.35 -56.712890625 4.2814453125 -56.55 4.2 -56.7072265625 4.2 -56.85 4.2 Z"/>

<path fill="#BC9C87" stroke="none" d="
M 33.6 8.35
L 33.25 7.55
Q -8.15 -2.75 -49.35 9.55 -11.9 29.8 31.75 9.85
L 33.6 8.35
M 33.65 7
Q 33.45 7.25 33.25 7.55
L 33.6 8.35 36.8 5.8
Q 35 5.4 33.65 7 Z"/>

<path fill="#E7CBB1" stroke="none" d="
M 20.2 -75.8
Q 15.1888671875 -81.56953125 12.25 -86.05 10.897265625 -87.4833984375 10.35 -89.3 6.0796875 -97.3375 10.7 -99.85
L -39.85 -100.15
Q -53.1 -72.65 -54.25 -44.45
L -53.7 -44.3 -52.9 -20.6 -52.75 -21.35
Q -52.7 -20.2 -52.7 -19.1
L -56.4 -14
Q -55.680859375 -13.11796875 -55.2 -12.25 -54.9896484375 -11.90625 -55.65 -9.9 -56.3009765625 -7.8328125 -56.65 -5.1 -57.0068359375 -2.330859375 -57.2 -1.85 -57.3400390625 -1.3140625 -57.8 -0.2
L -56.3 -3.25 -56.05 -3.7 -56 -3.8
Q -55.969921875 -3.84296875 -55.95 -3.9 -55.9046875 -3.9392578125 -55.85 -4 -55.70546875 -4.20625 -55.6 -4.4
L -55.25 -4.9 -55 -5.25
Q -54.5876953125 -5.719140625 -54.65 -5.55 -54.608203125 -5.5384765625 -54.6 -5.55 -43.3931640625 -9.1677734375 -34.5 -10.65 -30.5 -11.3 -26.75 -11.65
L -18.65 -12.45
Q -17.3755859375 -12.5169921875 -16.15 -12.55
L -14.2 -12.6
Q -12.72578125 -12.567578125 -11.3 -12.5 -11.2248046875 -12.5033203125 -11.15 -12.5
L -10.7 -12.45 -10.55 -12.45 3.75 -11.55
Q 8 -11.25 12.15 -10.65 14.9 -10.25 17.55 -9.75 28.611328125 -7.85625 37.65 -4.45
L 36.9 -9.4 36.9 -10.5 37.55 -48.35 38.55 -48.5 37.2 -75.9
Q 24.0876953125 -72.4400390625 20.2 -75.8 Z"/>

<path fill="#676732" stroke="none" d="
M 27 -90.95
Q 27.05 -94.4 24.55 -96.95 23.662109375 -97.855859375 22.6 -98.45 20.831640625 -99.5224609375 18.6 -99.65 15.1 -99.85 12.55 -97.6 10.05 -95.3 10 -91.85 9.9802734375 -90.4849609375 10.35 -89.3 10.897265625 -87.4833984375 12.25 -86.05 12.3423828125 -85.9587890625 12.4 -85.9 14.85 -83.35 18.35 -83.15 20.4451171875 -83.0302734375 22.2 -83.8 23.3763671875 -84.3267578125 24.4 -85.25 26.95 -87.5 27 -90.95 Z"/>

<path fill="#999933" stroke="none" d="
M 44.55 -99.6
L 36.4 -99.65
Q 37.2234375 -98.9974609375 37.95 -98.15 41 -94.65 40.9 -90 40.85 -85.35 37.7 -82.2 34.6 -79.05 30.25 -79.3 25.9 -79.5 22.85 -83 22.505078125 -83.3958984375 22.2 -83.8 20.4451171875 -83.0302734375 18.35 -83.15 14.85 -83.35 12.4 -85.9 12.3423828125 -85.9587890625 12.25 -86.05 15.1888671875 -81.56953125 20.2 -75.8 24.0876953125 -72.4400390625 37.2 -75.9
L 37.15 -76.85 44.8 -98.85 44.55 -99.6
M 23.95 -99.75
L 10.7 -99.85
Q 6.0796875 -97.3375 10.35 -89.3 9.9802734375 -90.4849609375 10 -91.85 10.05 -95.3 12.55 -97.6 15.1 -99.85 18.6 -99.65 20.831640625 -99.5224609375 22.6 -98.45 22.8591796875 -98.7091796875 23.1 -98.95 23.5224609375 -99.3724609375 23.95 -99.75 Z"/>

<path fill="#6B804D" stroke="none" d="
M 36.4 -99.65
Q 33.8966796875 -101.710546875 30.6 -101.9 26.83359375 -102.0732421875 23.95 -99.75 23.5224609375 -99.3724609375 23.1 -98.95 22.8591796875 -98.7091796875 22.6 -98.45 23.662109375 -97.855859375 24.55 -96.95 27.05 -94.4 27 -90.95 26.95 -87.5 24.4 -85.25 23.3763671875 -84.3267578125 22.2 -83.8 22.505078125 -83.3958984375 22.85 -83 25.9 -79.5 30.25 -79.3 34.6 -79.05 37.7 -82.2 40.85 -85.35 40.9 -90 41 -94.65 37.95 -98.15 37.2234375 -98.9974609375 36.4 -99.65 Z"/>
</g>

<g id="Duplicate_Items_Folder_head_copy_32_7_Layer17_0_FILL">
<path fill="#DCAE92" stroke="none" d="
M 15.4 -7.75
Q 19.648046875 -11.8060546875 15.95 -22.65 12.2505859375 -33.498046875 8.85 -38.65 5.5 -43.75 0.65 -44.05 -2.151953125 -44.1943359375 -0.75 -59.45 -25.9578125 -57.0451171875 -18.2 -51.35 -10.4474609375 -45.6017578125 -12.35 -40.8 -14.2560546875 -36.000390625 -23.5 -21.8 -32.732421875 -7.5994140625 -23.35 -8.65 -13.9759765625 -9.7060546875 -10.55 -10.85 -7.1193359375 -11.933984375 -6.05 -13 -3.3181640625 -10.273828125 3.95 -6.95 11.2076171875 -3.63671875 15.4 -7.75 Z"/>
</g>

<g id="Duplicate_Items_Folder_head_copy_32_7_Layer16_0_FILL">
<path fill="#000000" stroke="none" d="
M -9 -14.75
Q -8.3 -16.4 -8.35 -18.65 -8.45 -21.05 -9.25 -22.7 -10.05 -24.35 -10.85 -23.1 -11.6 -21.9 -12.2 -20.25 -12.85 -18.6 -12.95 -17.5 -13.1 -16.4 -12.35 -14.75 -11.6 -13.1 -10.6 -13.1 -9.6 -13.1 -9 -14.75
M 1.85 -14.05
Q 2.3 -15.8 2.2 -19.45 2 -23.1 0.65 -25.55 -0.75 -28.25 -2.3 -27.8 -3.85 -27.35 -4.85 -24.6 -5.85 -21.75 -6.3 -18.8 -6.75 -15.85 -5.25 -13.4 -3.7 -10.9 -1.2 -11.7 1.35 -12.5 1.85 -14.05 Z"/>
</g>

<g id="Duplicate_Items_Folder_ear_copy_7_0_Layer0_0_FILL">
<path fill="#D0A284" stroke="none" d="
M 6.05 -8.55
L -5.35 -3.8 -7.75 7.9 -6.7 9.65
Q -5.3 11.65 -3.5 13 2.3 17.3 10.15 13.5
L 13.55 12.95 9.65 1.9 8.25 5.7 10.2 8.3 8.25 5.7 9.65 1.9 9.5 1.4 6.05 -8.55
M -1.2 -4.2
Q -0.75 -4.15 -0.25 -4.05
L 2.75 -0.9 -1.1 2.85 2.3 5.7 0.5 9.8
Q 0.5 9.45 0.5 9.15
L -1.25 6.95
Q -1.3 6.9 -1.35 6.85 -1.6 6.6 -1.85 6.35
L -5.25 9.7
Q -8.15 5.95 -5.7 4.05 -5.5 3.85 -5.35 3.7 -5.1 3.5 -4.8 3.35
L -4.85 3.3
Q -5.15 2.95 -5.4 2.65
L -1.7 -1 -4.5 -3.9
Q -3.25 -4.35 -1.2 -4.2 Z"/>

<path fill="#663399" stroke="none" d="
M -4.35 3.15
Q -4.6 3.25 -4.8 3.35 -5.1 3.5 -5.35 3.7 -5.5 3.85 -5.7 4.05 -8.15 5.95 -5.25 9.7
L -1.85 6.35 -1.55 6.05 -4.35 3.15 Z"/>

<path fill="#CC0000" stroke="none" d="
M -0.25 -4.05
Q -0.75 -4.15 -1.2 -4.2 -3.25 -4.35 -4.5 -3.9
L -1.7 -1 -5.4 2.65
Q -5.15 2.95 -4.85 3.3
L -4.8 3.35
Q -4.6 3.25 -4.35 3.15
L -1.55 6.05 -1.85 6.35
Q -1.6 6.6 -1.35 6.85 -1.3 6.9 -1.25 6.95
L 0.5 9.15
Q 0.5 9.45 0.5 9.8
L 2.3 5.7 -1.1 2.85 2.75 -0.9 -0.25 -4.05 Z"/>
</g>

<g id="Duplicate_Items_Folder_head_copy_32_7_Layer14_0_FILL">
<path fill="#281F1C" stroke="none" d="
M -48.8 -114.4
Q -57.75 -110.25 -60.7 -100.65 -63.05 -93.6 -59.45 -88.05 -58.35 -86.35 -56.75 -84.95
L -55.4 -83.95 -54.5 -68.4 -58.5 -65.45 -59.4 -56.1
Q -59 -52.7 -55.65 -52.25
L -53.05 -58.55 -55.65 -52.25
Q -52.9 -51.85 -48.35 -53.35 -48.25 -60.75 -48.55 -64.9 -48.9 -69.05 -47.15 -77.2 -45.35 -85.35 -41.45 -89.75 -37.6 -94.1 -31.55 -93.5
L -31.35 -93.4
Q -31.35 -93.45 -31.3 -93.5 -31 -94.95 -33.6 -100 -35.9 -104.55 -28.9 -114.65 -38.95 -118.95 -48.8 -114.4
M -52.9 -64.35
L -55.7 -58.7 -52.9 -64.35
M -40.95 -96.95
Q -45.2 -101.2 -47.55 -97.85 -45.2 -101.2 -40.95 -96.95 Z"/>

<path fill="#3D2F29" stroke="none" d="
M 27.85 -115.25
Q 17.5 -121.4 0.45 -121.15 -16.65 -120.85 -23.65 -117.6 -25.8 -115.3 -27.2 -114.65 -27.65 -114.3 -27.75 -114.3 -27.9 -114.3 -28.25 -114.4 -28.65 -114.45 -28.9 -114.65 -35.9 -104.55 -33.6 -100 -31 -94.95 -31.3 -93.5 -31.35 -93.45 -31.35 -93.4
L -29.2 -91.9 -28.05 -91.2
Q -27 -88.5 -24.45 -85.65 -19.35 -80 -11.85 -79.35 -4.7 -78.75 5.25 -83.5 5.95 -83.85 12.35 -87.15 16.05 -89.1 17.75 -89.5 23.45 -94.2 29.05 -94.65 34.6 -95 37 -91.2 37.25 -88.3 37.3 -84.4 37.55 -76.5 36.75 -71.45 39.15 -61.15 34.15 -51.25 62.55 -21.7 50.15 -50.45 47 -56.65 47.25 -60.4 47.7 -64.25 50.5 -78.2 52.6 -90.85 50.6 -93.7 47.4 -98.35 43.45 -102.4
L 39.65 -105.55
Q 38.15 -109.15 27.85 -115.25
M 44.15 -88.2
L 46.4 -79.65 44.15 -88.2
M 40.85 -89
L 42.65 -72.65 40.85 -89 Z"/>
</g>

<g id="Duplicate_Items_Folder_head_copy_32_7_Layer11_0_FILL">
<path fill="#990000" stroke="none" d="
M 15.1 31.55
Q 15.75 32.95 16.8 33.05 17.85 33.15 18.7 31.9 19.6 30.7 19.65 28.85 19.8 27 19.1 25.6 18.4 24.25 17.35 24.1 16.35 24 15.55 25.25 14.7 26.5 14.6 28.35 14.5 30.2 15.1 31.55
M -28.1 31.65
Q -27.9 29.3 -28.95 27.45 -29.95 25.65 -31.5 25.5 -32.55 25.4 -33.5 26.2 -34.55 25.25 -36.1 25.05 -37.8 24.95 -39.1 25.95 -40.35 26.85 -40.5 28.4 -40.6 29.95 -39.45 31.15 -38.3 32.45 -36.55 32.55 -36.05 32.65 -35.55 32.55 -35.4 33.95 -34.75 35.05 -33.75 36.85 -32.25 37 -30.7 37.15 -29.55 35.6 -28.25 34.1 -28.1 31.65
M 18.25 -1.95
Q 14.65 -5.9 9.1 -6.45 4.05 -6.95 7.7 -3.6 -0.45 -5.95 -1.65 -7.45 -4.15 -10.4 -8.05 -10.85 -11.4 -11.15 -14 -9.4 -19.25 -9.55 -21.65 -9.8 -24.95 -10.1 -27.45 -8.25 -29.15 -6.9 -29.75 -5.15 -30 -5.45 -30.15 -5.75 -31.75 -8.05 -35.7 -5.55 -39.6 -3.1 -40.2 -3.6 -40.7 -4.05 -40.75 -1.85 -40.8 0.3 -39.85 2.15 -42.85 2.4 -45.3 4.25 -48.65 6.9 -48.95 12.25 -49.3 17.6 -46.35 21.75 -43.45 25.85 -40.55 21.6 -37.7 17.25 -34.5 17.85 -31.35 18.35 -30 19.35 -27.35 19.35 -25.15 17.6 -24.2 16.9 -23.55 16 -23.1 16.15 -22.55 16.15 -22.1 16.25 -21.55 16.2 -21.55 16.7 -21.4 17.1 -20.75 19.5 -19.7 19.6 -18.7 19.7 -17.8 17.45 -17.1 15.7 -16.8 13.4 -15.95 11.95 -15.85 10.2 -15.7 7.65 -17.2 5.65 -17.6 4.45 -18 4 -17.35 3.7 -16.75 3.2 -16.7 3.2 -16.7 3.15 -16.25 3.95 -15.65 4.6 -13.15 7.7 -9.25 8.1 -8.2 8.2 -7.2 8.1 -7.75 9.35 -7.8 10.85 -8 14.15 -6.1 16.65 -4.15 19.2 -1.15 19.5 1.75 19.8 4 17.7 4.25 17.4 4.45 17.15 5.95 17.6 7.55 17.75 9.45 17.95 11.2 17.7 13.4 15.65 16.25 16.05 18.95 16.5 20.95 19.8 22.95 23.1 26.1 20.2 29.3 17.4 29.55 12.8 29.85 8.3 27.1 4.85 24.35 1.5 20.4 1 19.55 -0.55 18.25 -1.95
M -26.7 4.9
Q -28.2 4.05 -29.95 3.85 -30.25 3.85 -30.6 3.85 -29.4 2.6 -29 0.9 -28.55 1.5 -28.1 2 -26.95 3.2 -25.55 3.9 -26 4.1 -26.4 4.5 -26.6 4.7 -26.7 4.9 Z"/>
</g>

<g id="Duplicate_Items_Folder_head_copy_32_7_Layer10_0_FILL">
<path fill="#506974" stroke="none" d="
M 25.7 7.75
L 5.05 4.2 -28.85 2.1 -49.45 7.2 -30.95 7.5
Q -19.7 12.85 -6.95 11.8 12.75 13.8 25.7 7.75 Z"/>
</g>

<g id="Duplicate_Items_Folder_head_copy_32_7_Layer9_0_FILL">
<path fill="#669999" stroke="none" d="
M -6.6 -4.7
L -12 -1.95 -19.35 -5.6 -49.7 4.05 -49.85 7.05 -29.1 1.75 -11.35 4.65 5.05 3.6 35.7 9.3 25.9 4.5 -6.6 -4.7 Z"/>
</g>

<g id="Duplicate_Items_Folder_head_copy_32_7_Layer8_0_FILL">
<path fill="#AE7E6A" stroke="none" d="
M -19.2 -50.85
L -36.55 -54.15 -42.6 -49.3 -50.6 -47.55 -47.2 -39.8 -40.05 -32.05 -30.65 -27.85 -19.85 -32.3 -13.3 -38.7 -13.65 -43.8 -19.2 -50.85
M 28.9 -49.7
L 22.7 -54.8 4.85 -51.35 -0.85 -44.05 -1.2 -38.75 5.5 -32.15 16.6 -27.6 26.25 -31.9 33.6 -39.9 37.05 -47.9 28.9 -49.7 Z"/>
</g>

<g id="Duplicate_Items_Folder_head_copy_32_7_Layer7_0_FILL">
<path fill="#000000" stroke="none" d="
M 11.45 -45.85
Q 11.85 -46.5 11.9 -47.35 11.9 -48.2 11.3 -48.85
L 11.2 -48.95 11.15 -49.05 8.65 -48.05 7.75 -47.55
Q 7.75 -47.2 7.85 -46.85 7.85 -46.1 8.3 -45.45 8.7 -44.85 9.85 -45.05 11 -45.25 11.45 -45.85 Z"/>

<path fill="#FFFFFF" stroke="none" d="
M 14.25 -50.2
L 12.75 -49.55
Q 13.55 -49.2 14.25 -48.5 15.55 -47.1 15.55 -45.25 15.5 -43.45 14.15 -42.25 12.9 -40.95 11.1 -40.9 9.3 -40.85 7.9 -42.7 6.5 -44.6 6.55 -45.85 6.55 -46.5373046875 7.45 -47.25
L 7.5 -47.25 6.7 -47.2 4.2 -46.25
Q 2.8 -42.3 5.45 -38.6 7 -36.6 11.6 -37.2
L 15.85 -38.25 25.5 -41.95 25.3 -42.2 24.85 -42.35 25.3 -42.2 25.1 -42.55 20.75 -48.5 14.25 -50.2 Z"/>

<path fill="#3366CC" stroke="none" d="
M 12.75 -49.55
Q 12.7 -49.55 12.65 -49.65
L 11.15 -49.05 11.2 -48.95 11.3 -48.85
Q 11.9 -48.2 11.9 -47.35 11.85 -46.5 11.45 -45.85 11 -45.25 9.85 -45.05 8.7 -44.85 8.3 -45.45 7.85 -46.1 7.85 -46.85 7.2416015625 -47.0373046875 7.45 -47.25 6.55 -46.5373046875 6.55 -45.85 6.5 -44.6 7.9 -42.7 9.3 -40.85 11.1 -40.9 12.9 -40.95 14.15 -42.25 15.5 -43.45 15.55 -45.25 15.55 -47.1 14.25 -48.5 13.55 -49.2 12.75 -49.55
M 12.9 -46.1
L 13.85 -45.45 12.9 -46.1
M 11 -44.65
L 11.5 -43.5 11 -44.65
M 9.9 -44.05
L 9.65 -42.8 9.9 -44.05 Z"/>
</g>

<g id="Duplicate_Items_Folder_head_copy_32_7_Layer6_0_FILL">
<path fill="#000000" stroke="none" d="
M -24.3 -47.2
Q -24.2 -47.55 -24.2 -47.9
L -27.6 -49.4 -27.65 -49.3 -27.75 -49.2
Q -28.35 -48.55 -28.35 -47.7 -28.3 -46.85 -27.9 -46.2 -27.45 -45.6 -26.3 -45.4 -25.15 -45.2 -24.75 -45.8 -24.3 -46.45 -24.3 -47.2 Z"/>

<path fill="#FF0000" stroke="none" d="
M -29.1 -50
Q -29.15 -49.9 -29.2 -49.9 -30 -49.55 -30.7 -48.85 -32 -47.45 -32 -45.6 -31.95 -43.8 -30.6 -42.6 -29.35 -41.3 -27.55 -41.25 -25.75 -41.2 -24.35 -43.05 -22.95 -44.95 -23 -46.2 -23 -46.8884765625 -23.95 -47.55 -23.7421875 -47.3859375 -24.3 -47.2 -24.3 -46.45 -24.75 -45.8 -25.15 -45.2 -26.3 -45.4 -27.45 -45.6 -27.9 -46.2 -28.3 -46.85 -28.35 -47.7 -28.35 -48.55 -27.75 -49.2
L -27.65 -49.3 -27.6 -49.4 -29.1 -50
M -29.35 -46.45
L -30.3 -45.8 -29.35 -46.45
M -27.45 -45
L -27.95 -43.85 -27.45 -45
M -26.35 -44.4
L -26.1 -43.15 -26.35 -44.4 Z"/>

<path fill="#FFFFFF" stroke="none" d="
M -29.2 -49.9
L -30.7 -50.55 -37.2 -48.85 -41.55 -42.9 -41.75 -42.55 -41.3 -42.7 -41.75 -42.55 -41.95 -42.3 -32.3 -38.6 -28.05 -37.55
Q -23.45 -36.95 -21.9 -38.95 -19.25 -42.65 -20.65 -46.6
L -23.15 -47.55 -23.95 -47.6 -23.95 -47.55 -23.95 -47.55
Q -23 -46.8884765625 -23 -46.2 -22.95 -44.95 -24.35 -43.05 -25.75 -41.2 -27.55 -41.25 -29.35 -41.3 -30.6 -42.6 -31.95 -43.8 -32 -45.6 -32 -47.45 -30.7 -48.85 -30 -49.55 -29.2 -49.9 Z"/>
</g>

<g id="Duplicate_Items_Folder_head_copy_32_7_Layer4_0_FILL">
<path fill="#E7CBB1" stroke="none" d="
M -8.8 22.25
L -21.5 27.6 -21.45 28.05 -8.5 30.15 4.5 26.8 -8.8 22.25 Z"/>
</g>

<g id="Duplicate_Items_Folder_head_copy_32_7_Layer2_0_FILL">
<path fill="#281F1C" stroke="none" d="
M -23.5 -54.9
L -15.2 -50 -11.1 -60.45 -19 -65.75 -28.8 -64.45 -40.7 -65.05 -52.25 -58.25 -51.8 -53.25 -37.6 -57.25 -23.5 -54.9
M 9.85 -58.3
L 24.65 -56.55 38.9 -51.65 39.35 -57.1 30.8 -65.75 15.8 -64.8 6 -66.6 -1.95 -61.05 -0.4 -47.75 -0.3 -47.35
Q 0.4 -48.15 1.1 -48.9 5.1 -53.35 9.85 -58.3 Z"/>
</g>

<g id="eyeglass_copy_0_Layer0_0_FILL">
<path fill="#CCCCCC" stroke="none" d="
M 29 2.05
Q 27.302734375 1.0490234375 22.55 0.35
L 17.95 4.55 26.15 5.6 15.95 16.6 18.85 7.7 12.85 7.7 15.7 0.1
Q 10.525 0.5560546875 3 2.5 1.9 5.35 0.65 10.2 -0.6 15 0.5 18.8 0.554296875 18.9939453125 0.6 19.15
L 6.35 15.3 2.6 23.95
Q 3.063671875 24.8390625 3.6 25.65 5.6 28.7 10.05 28.65 16.4 28.55 21.2 27.5 27.25 26.2 29.3 24.15 29.387109375 24.05859375 29.45 23.95
L 25.3 24 21.95 25.6 21.65 22 19.4 19.6 23.55 19.85 24.3 17.05 26.4 19.35 30 19.25 28.3 22.15 29.85 23.45
Q 31.5583984375 21.24609375 33.1 16.45 34.8 10.8 32.95 4.65 30.9 3.15 29 2.05 Z"/>
</g>

<g id="eyeglass_0_Layer0_0_FILL">
<path fill="#CCCCCC" stroke="none" d="
M 29 2.05
Q 27.05 0.9 21.05 0.15 15 -0.6 3 2.5 2.379296875 4.108203125 1.7 6.35
L 9.6 13.3 0.05 13.55
Q -0.196875 16.3927734375 0.5 18.8 1.55 22.55 3.6 25.65 5.6 28.7 10.05 28.65 16.4 28.55 21.2 27.5 27.25 26.2 29.3 24.15 31.3 22.05 33.1 16.45 34.8 10.8 32.95 4.65 30.9 3.15 29 2.05
M 21.45 5.45
Q 22.15 4.35 23.05 4.35 23.95 4.35 24.6 5.45 24.9958984375 6.119921875 25.1 6.95 25.8611328125 6.55 26.7 6.55 28.25 6.55 29.25 7.85 30.3 9.15 30.25 11 30.2 12.9 29.55 15.9 28.9 18.9 27.35 18.9 25.8498046875 18.9060546875 24.45 16.05 23.100390625 13.2318359375 22.95 11.95 22.87109375 11.95 22.8 11.95 21.9 11.95 21.3 10.8 20.7 9.7 20.75 8.15 20.8 6.55 21.45 5.45
M 13.05 10.85
L 19.65 24.4 13.05 10.85
M 16.6 12.7
L 20.3 19.2 16.6 12.7 Z"/>
</g>

<g id="Duplicate_Items_Folder_arm_suit_copy_18_0_Layer0_0_FILL">
<path fill="#111111" stroke="none" d="
M 35.2 -33.25
L 35.3 -35.4 21.45 -23.55 6.95 -1.4
Q 12.85 -0.05 15.65 -2.95
L 24.4 -21.8
Q 32.1 -27.75 35.2 -33.25 Z"/>

<path fill="#0F0D0B" stroke="none" d="
M 32.05 -44.6
L 32 -44.5
Q 32.4 -43.95 25.7 -38.85 19.5 -34.15 19.5 -34.1
L -5.9 -7.4
Q 1.7 -2.6 6.95 -1.4
L 21.45 -23.55 35.3 -35.4 35.1 -39.3
Q 35.2 -39.5 35.2 -39.6
L 35.2 -41.9
Q 34.5 -43.3 33.45 -44.75 32.65 -44.7 32.05 -44.6 Z"/>

<path fill="#000000" stroke="none" d="
M 32 -44.5
L 32.05 -44.6
Q 32.65 -44.7 33.45 -44.75 34.5 -43.3 35.2 -41.9
L 35.2 -44.7
Q 35.25 -44.7 35.3 -44.75
L 35.35 -45.75
Q 33.75 -45.65 31.5 -45.35 25.15 -44.8 20.05 -39.65 14.8 -34.4 13.8 -33.35 13.1 -32.75 9.65 -28.6 6.7 -25.2 1.6 -19.2 -0.1 -17.2 -4.1 -13.9 -8.1 -10.65 -9.3 -9.05 -10.9 -7 -9.8 -6.8 -8.6 -6.5 -9.5 -5.15 -10.75 -3.4 -16.25 4.1 -20.25 9.55 -20.1 9.65 -21.7 12.2 -21.5 13.8 -19.75 16.65 -17.35 16.8 -19.8 19.95 -17.9 23.2
L -5.6 32.15
Q -2.95 33.3 -1.25 32.05 0.4 30.7 1.55 29.5 2.5 28.15 2.45 27.3 2.35 26.4 2.35 24.75 2.35 23.15 0.3 20.1
L -2.15 17.2
Q -2.45 15.15 -0.85 14.15
L 0.7 17
Q 2.05 19.85 6.55 20.5 7.7 20.45 9.45 20.4 11.3 20.3 13.1 18.7 14.95 17.05 14.15 14.45 12.8 11.7 12.55 10.6 12.2 8.95 13.2 8.3 13.35 8.15 13.6 7.6 13.95 6.8 14.45 5 15.55 1.6 15.9 0.85 19.05 -1.9 19.25 -2.3 19.7 -3.1 19.95 -4.55 20.05 -5.8 20.7 -7.75 21.15 -9.15 21.8 -11.1 24.95 -16.45 27.35 -20.2 28.7 -22.2 29.8 -23.8 32.5 -27.7 34.9 -29.9
L 35.2 -33.25
Q 32.1 -27.75 24.4 -21.8
L 15.65 -2.95
Q 12.85 -0.05 6.95 -1.4 1.7 -2.6 -5.9 -7.4
L 19.5 -34.1
Q 19.5 -34.15 25.7 -38.85 32.4 -43.95 32 -44.5
M -4.75 -3.75
L -2.25 -2.85 1.7 0.7 7.55 1.8 8.65 1.8 7.75 2.2 13.95 0.95
Q 13.25 2.25 12.6 3.1
L 12.5 3.3
Q 12.15 3.7 11.5 5.15 11.2 6.1 10.9 6.9 10.75 7.35 10.6 7.75 10.25 8.75 11.3 12.25 12.3 15.8 11 16.95 9.55 18.05 7 17.9 4.3 17.75 2.7 16.25
L 1.75 15.6
Q 0.4 12.1 0.35 11.8 -0.3 8.9 -3 13.95 -3.75 15.35 -4 16.35 -4.65 19.4 -2 20.75 0.35 23.4 0.1 26.35 0.25 27.25 -0.1 28 -0.45 28.8 -1.2 29.6 -2.6 30.65 -4.65 30.4 -4.75 30.4 -4.85 30.35
L -16.85 22.25
Q -17 18.6 -15.45 16.15 -15.65 15.85 -16.05 15.55 -17.35 13.95 -17.7 12.15 -15.75 7.65 -13.3 3.6 -12.6 2.5 -11.85 1.4 -9.75 -2 -7.25 -5.1
L -4.75 -3.75 Z"/>

<path fill="#9592A9" stroke="none" d="
M 7.55 1.8
L 7.75 2.2 8.65 1.8 7.55 1.8 Z"/>

<path fill="#990000" stroke="none" d="
M 11.3 12.25
Q 10.25 8.75 10.6 7.75 10.75 7.35 10.9 6.9
L 6.15 5.6
Q 3.55 11 1.75 15.6
L 2.7 16.25
Q 4.3 17.75 7 17.9 9.55 18.05 11 16.95 12.3 15.8 11.3 12.25 Z"/>

<path fill="#D9A07B" stroke="none" d="
M 12.6 3.1
Q 13.25 2.25 13.95 0.95
L 7.75 2.2
Q 6.9 3.9 6.15 5.6
L 10.9 6.9
Q 11.2 6.1 11.5 5.15 12.15 3.7 12.5 3.3
L 12.6 3.1 Z"/>

<path fill="#CC0000" stroke="none" d="
M -2 20.75
Q -4.65 19.4 -4 16.35 -3.75 15.35 -3 13.95 -0.3 8.9 0.35 11.8 0.4 12.1 1.75 15.6 3.55 11 6.15 5.6
L 0.25 4 -6.5 6.4
Q -10.5 13.05 -11.5 20.1 -9.35 25.15 -4.65 30.4 -2.6 30.65 -1.2 29.6 -0.45 28.8 -0.1 28 0.25 27.25 0.1 26.35 0.35 23.4 -2 20.75 Z"/>

<path fill="#F1C9B8" stroke="none" d="
M -4.75 -3.75
L -7.25 -5.1
Q -9.75 -2 -11.85 1.4 -12.6 2.5 -13.3 3.6 -15.75 7.65 -17.7 12.15 -17.35 13.95 -16.05 15.55 -12.95 9.35 -9.1 3.1 -8.5 2 -7.7 0.9 -6.25 -1.65 -4.75 -3.75 Z"/>

<path fill="#E9AA8A" stroke="none" d="
M -2.25 -2.85
L -4.75 -3.75
Q -6.25 -1.65 -7.7 0.9 -8.5 2 -9.1 3.1 -12.95 9.35 -16.05 15.55 -15.65 15.85 -15.45 16.15 -17 18.6 -16.85 22.25
L -4.85 30.35
Q -4.75 30.4 -4.65 30.4 -9.35 25.15 -11.5 20.1 -10.5 13.05 -6.5 6.4
L 0.25 4 6.15 5.6
Q 6.9 3.9 7.75 2.2
L 7.55 1.8 1.7 0.7 -2.25 -2.85 Z"/>
</g>

<path id="Duplicate_Items_Folder_leg_suit_copy_13_0_Layer1_0_1_STROKES" stroke="#000000" stroke-width="3" stroke-linejoin="round" stroke-linecap="round" fill="none" d="
M 4.55 -30.3
Q 6.4 -30.5 6.15 -30.65 1.45 -30.25 0.15 -28.95
L -5.45 -27.45
Q -8.65 -22.55 -12.4 -14 -18.4 -0.25 -20.55 8.85 -22.5 17.25 -25.45 23.25 -23.3 25.85 -18.8 27.85 -17.05 28.6 -14.95 29.3 -8.8 31.2 -3.75 31.2 -0.85 31.2 6.05 29.5 5.8 29.85 9.5 28.6 18.4 25.6 17.5 22.25 16.8 20.05 16 15.05 15.25 10.95 14.45 9.3 13.7 7.7 15.2 2.3 16.95 -4.2 16.95 -6.6 17.2 -14.65 17.15 -19.8 17.1 -24.45 16.7 -27.45
L 10.6 -29.55
Q 9.3115234375 -30.7908203125 7.375 -30.35 7.293359375 -30.325 7.2 -30.3 7.05 -30.25 6.9 -30.2
L 7 -30.25 7.3 -30.45 4.55 -30.3 Z"/>

<path id="Duplicate_Items_Folder_head_copy_32_7_Layer19_0_1_STROKES" stroke="#000000" stroke-width="4" stroke-linejoin="round" stroke-linecap="round" fill="none" d="
M 35.75 -49.7
L 35 -45.4 43.15 -18.15 36.65 -3.9 36.55 29.5 42.2 37.8 48.55 25.75 57.5 19.5 51.4 -3.1 50.4 -27.4 56.45 -24.15 58.3 -36.55 53.45 -44.6
Q 52.5 -46.45 51.7 -48.25
M -47.55 -57.35
Q -48.2 -54.85 -49 -51.8
L -51.4 -43.35 -51.45 -29.65 -49.85 -18.55 -57.7 22.6 -57.8 23.15
M -57.7 22.6
L -71.85 11.95 -71.25 0 -57.05 -10.9 -54 -34.85 -59.05 -46.85 -57.5 -58.25"/>

<path id="Duplicate_Items_Folder_head_copy_32_7_Layer18_0_1_STROKES" stroke="#000000" stroke-width="4" stroke-linejoin="round" stroke-linecap="round" fill="none" d="
M 23.975 -99.725
L 10.7 -99.825
M 36.425 -99.65
L 44.55 -99.6
M 44.8 -98.85
L 37.15 -76.85 37.2 -75.875 38.55 -48.5
M 37.55 -48.35
L 36.9 -10.5
M 36.9 -9.4
L 37.675 -4.45
M 40.85 -3.2
L 43.7 11.8
M 45.5 22.35
Q 46.6 38.8 34.6 41.9 21.35 45.25 15.95 45.6 10.5 45.9 -6.2 46.3 -21.562109375 46.663671875 -36.625 44.1
M 44.55 15.6
L 45.05 18.65
Q 45.15 19.35 45.2 19.95 45.35 21.2 45.5 22.35
M 43.7 11.8
L 43.95 13.45
M -53.7 -44.3
L -52.9 -20.6
M -52.75 -21.35
Q -52.7 -20.2 -52.7 -19.1
L -56.4 -14
Q -55.680859375 -13.11796875 -55.175 -12.25 -54.9896484375 -11.90625 -55.65 -9.875 -56.3009765625 -7.8328125 -56.65 -5.075 -57.0068359375 -2.330859375 -57.175 -1.825 -57.3400390625 -1.3140625 -57.775 -0.2
L -56.275 -3.225 -56.05 -3.7 -56 -3.8
Q -55.969921875 -3.84296875 -55.95 -3.875 -55.9046875 -3.9392578125 -55.85 -4 -55.70546875 -4.20625 -55.575 -4.4
L -55.225 -4.875 -54.975 -5.225
Q -54.5876953125 -5.719140625 -54.65 -5.525
M 10.7 -99.825
L -39.85 -100.15
Q -53.1 -72.65 -54.25 -44.45
M -36.625 44.1
Q -38.1439453125 43.83671875 -39.65 43.55 -49.552734375 41.7119140625 -55.4 35.05
M -57.925 31.65
Q -59.4763671875 29.1931640625 -61.075 24.05 -61.7859375 21.812109375 -62.5 19.05
M -59.25 2.9
Q -59.05 2.3 -58.85 1.7 -57.45 -2.3 -56.55 -6.1
M -55.4 35.05
Q -56.7759765625 33.478515625 -57.925 31.65"/>

<path id="Duplicate_Items_Folder_head_copy_32_7_Layer18_0_2_STROKES" stroke="#000000" stroke-width="2" stroke-linejoin="round" stroke-linecap="round" fill="none" d="
M 10.7 -99.825
Q 6.0796875 -97.3375 10.35 -89.275
M -36.625 44.1
L -36.35 44.8
M 12.275 -86.025
Q 15.1888671875 -81.56953125 20.2 -75.8 24.0876953125 -72.4400390625 37.2 -75.875
M 10.35 -89.275
Q 10.897265625 -87.4833984375 12.275 -86.025
M 33.65 7
Q 33.45 7.25 33.25 7.55
L 33.6 8.35 33.75 8.95
M -59.225 24.5
L -59.15 24.525 -50.85 26.55 -48.65 33 -40.55 34.3 -36.625 44.1
M -61.075 24.05
L -59.225 24.5"/>

<path id="Duplicate_Items_Folder_head_copy_32_7_Layer18_0_3_STROKES" stroke="#AA8166" stroke-width="2" stroke-linejoin="round" stroke-linecap="round" fill="none" d="
M 33.65 7
Q 37.4 1.65 30.75 -3.05
M -50.7 8.3
Q -55.25 3.3 -51.2 -1.1"/>

<path id="Duplicate_Items_Folder_ear_copy_7_0_Layer0_0_1_STROKES" stroke="#000000" stroke-width="3" stroke-linejoin="round" stroke-linecap="round" fill="none" d="
M 6.05 -8.55
L -5.35 -3.8 -7.75 7.9 -6.7 9.65
Q -5.3 11.65 -3.5 13 2.3 17.3 10.15 13.5"/>

<path id="Duplicate_Items_Folder_ear_copy_7_0_Layer0_0_2_STROKES" stroke="#DF7C53" stroke-width="3" stroke-linejoin="round" stroke-linecap="round" fill="none" d="
M 9.675 1.9
L 8.25 5.7 10.2 8.3
M 9.675 1.9
L 9.525 1.425 8.05 -4.45"/>

<path id="Duplicate_Items_Folder_head_copy_32_7_Layer14_0_1_STROKES" stroke="#000000" stroke-width="4" stroke-linejoin="round" stroke-linecap="round" fill="none" d="
M 50.15 -50.45
Q 47 -56.65 47.25 -60.4 47.7 -64.25 50.5 -78.2 52.6 -90.85 50.6 -93.7 47.4 -98.35 43.45 -102.4
L 39.65 -105.55
Q 38.15 -109.15 27.85 -115.25 17.5 -121.4 0.45 -121.15 -16.65 -120.85 -23.65 -117.6 -25.8 -115.3 -27.2 -114.65
M -28.25 -114.4
Q -28.65 -114.45 -28.9 -114.65 -35.9 -104.55 -33.6 -100 -31 -94.95 -31.3 -93.5 -31.35 -93.45 -31.35 -93.4
L -29.2 -91.9 -28.05 -91.2
Q -27 -88.5 -24.45 -85.65 -19.35 -80 -11.85 -79.35 -4.7 -78.75 5.25 -83.5 5.95 -83.85 12.35 -87.15 16.05 -89.1 17.75 -89.5 23.45 -94.2 29.05 -94.65 34.6 -95 37 -91.2 37.25 -88.3 37.3 -84.4 37.55 -76.5 36.75 -71.45 39.15 -61.15 34.15 -51.25
M -59.4 -56.1
L -58.5 -65.45 -54.5 -68.4 -55.4 -83.95 -56.75 -84.95
Q -58.35 -86.35 -59.45 -88.05 -63.05 -93.6 -60.7 -100.65 -57.75 -110.25 -48.8 -114.4 -38.95 -118.95 -28.9 -114.65
M -27.2 -114.65
Q -27.8 -114.35 -28.25 -114.4
M -31.35 -93.4
L -31.55 -93.5
Q -37.6 -94.1 -41.45 -89.75 -45.35 -85.35 -47.15 -77.2 -48.9 -69.05 -48.55 -64.9 -48.25 -60.75 -48.35 -53.35
M -31.35 -93.4
Q -31.4 -92.25 -29.2 -91.9"/>

<path id="Duplicate_Items_Folder_head_copy_32_7_Layer14_0_2_STROKES" stroke="#5E5E5E" stroke-width="2" stroke-linejoin="round" stroke-linecap="round" fill="none" d="
M 44.15 -88.2
L 46.4 -79.65
M 40.85 -89
L 42.65 -72.65
M 47 -0.65
L 51.85 12.45
M 41.9 -3.6
L 47.25 19.15
M -55.8 -51.85
L -55.65 -52.25 -53.05 -58.55
M -52.9 -64.35
L -55.7 -58.7
M -40.95 -96.95
Q -45.2 -101.2 -47.55 -97.85
M -58.4 -0.4
L -62.6 9.25"/>

<path id="Duplicate_Items_Folder_head_copy_32_7_Layer12_0_1_STROKES" stroke="#666666" stroke-width="3" stroke-linejoin="round" stroke-linecap="round" fill="none" d="
M -24.15 -93.8
Q -8.5 -106.45 7.2 -108.65
L 26.35 -107.65
M -16 -89.6
Q -1.65 -88.2 5.3 -99.95 17.9 -102.35 24.6 -101.65
M -41.6 -111.5
L -49.35 -109.45
M -44.25 -105.4
L -52.15 -104.25
M -26.4 -100.5
Q -20.3 -108.75 -10.2 -112.7 -9.95 -112.8 -9.75 -112.9
L 4.3 -114.3
M -35.9 -107.1
L -41.2 -111.55
M -52.85 -103.3
L -53.25 -95
M -35.65 -98.05
L -43.6 -104.95"/>

<path id="Duplicate_Items_Folder_head_copy_32_7_Layer10_0_1_STROKES" stroke="#000000" stroke-width="2" stroke-linejoin="round" stroke-linecap="round" fill="none" d="
M 25.7 7.75
Q 12.75 13.8 -6.95 11.8 -19.7 12.85 -30.95 7.5
L -49.45 7.2 -28.85 2.1 5.05 4.2 25.7 7.75 Z
M -49.8 6.6
L -55.35 11.95"/>

<path id="Duplicate_Items_Folder_head_copy_32_7_Layer9_0_1_STROKES" stroke="#000000" stroke-width="2" stroke-linejoin="round" stroke-linecap="round" fill="none" d="
M 35.7 9.3
L 5.05 3.6 -11.35 4.65 -29.1 1.75 -49.85 7.05 -49.7 4.05 -19.35 -5.6 -12 -1.95 -6.6 -4.7 25.9 4.5 35.7 9.3 34.25 14.75"/>

<path id="Duplicate_Items_Folder_head_copy_32_7_Layer7_0_1_STROKES" stroke="#FFFFFF" stroke-width="1" stroke-linejoin="round" stroke-linecap="round" fill="none" d="
M 12.9 -46.1
L 13.85 -45.45
M 11 -44.65
L 11.5 -43.5
M 9.9 -44.05
L 9.65 -42.8"/>

<path id="Duplicate_Items_Folder_head_copy_32_7_Layer7_0_2_STROKES" stroke="#000000" stroke-width="2" stroke-linejoin="round" stroke-linecap="round" fill="none" d="
M 12.75 -49.55
L 14.25 -50.2 20.75 -48.5 25.1 -42.55 31 -43.35
M 25.1 -42.55
L 25.3 -42.2 28.25 -41.4
M 24.85 -42.35
L 25.3 -42.2 25.5 -41.95 15.85 -38.25 11.6 -37.2
Q 7 -36.6 5.45 -38.6 2.8 -42.3 4.2 -46.25
L 6.7 -47.2 12.15 -49.85"/>

<path id="Duplicate_Items_Folder_head_copy_32_7_Layer6_0_1_STROKES" stroke="#000000" stroke-width="2" stroke-linejoin="round" stroke-linecap="round" fill="none" d="
M -29.2 -49.9
L -30.7 -50.55 -37.2 -48.85 -41.55 -42.9 -41.75 -42.55 -41.3 -42.7
M -41.55 -42.9
L -47.45 -43.7
M -44.7 -41.75
L -41.75 -42.55 -41.95 -42.3 -32.3 -38.6 -28.05 -37.55
Q -23.45 -36.95 -21.9 -38.95 -19.25 -42.65 -20.65 -46.6
L -23.15 -47.55 -28.6 -50.2"/>

<path id="Duplicate_Items_Folder_head_copy_32_7_Layer6_0_2_STROKES" stroke="#FFFFFF" stroke-width="1" stroke-linejoin="round" stroke-linecap="round" fill="none" d="
M -29.35 -46.45
L -30.3 -45.8
M -27.45 -45
L -27.95 -43.85
M -26.35 -44.4
L -26.1 -43.15"/>

<path id="Duplicate_Items_Folder_head_copy_32_7_Layer5_0_1_STROKES" stroke="#000000" stroke-width="2" stroke-linejoin="round" stroke-linecap="round" fill="none" d="
M 0.5 0.7
L 3 6.6
M 5.95 6.45
L 8.65 2.05
M -14.05 0.35
L -15.05 6.85
M -23.05 -0.3
L -20.1 6.25
M -27.85 -1.15
L -27.75 5.4"/>

<path id="Duplicate_Items_Folder_head_copy_32_7_Layer4_0_1_STROKES" stroke="#AA8166" stroke-width="2" stroke-linejoin="round" stroke-linecap="round" fill="none" d="
M -21.5 27.6
L -8.8 22.25 4.5 26.8"/>

<path id="Duplicate_Items_Folder_head_copy_32_7_Layer3_0_1_STROKES" stroke="#000000" stroke-width="2" stroke-linejoin="round" stroke-linecap="round" fill="none" d="
M -34.35 -80.8
L -30.95 -77.675 -28.65 -79.35
M -28.9 -75.8
L -30.95 -77.675 -35.775 -74.175 -35.8 -72.25
M -40.05 -73.8
L -39.2 -71.7 -35.775 -74.175 -35.7 -78.1
M -38.25 -69.4
L -39.2 -71.7 -42.1 -69.6
M 13.35 37.8
L 14.8 37.3 13.4 35.85
M 15.85 38.4
L 14.8 37.3 21.325 35.025 21.8 32.85
M 33.1 24.9
L 30.925 27.525 32.2 29.55
M 21.325 35.025
L 26.1 33.35 27.95 31.1 24.65 30.45
M 30.65 31.65
L 27.95 31.1 30.925 27.525 29.45 25.15
M 21.325 35.025
L 20.6 38.35"/>

<path id="Duplicate_Items_Folder_head_copy_32_7_Layer2_0_1_STROKES" stroke="#000000" stroke-width="1" stroke-linejoin="round" stroke-linecap="round" fill="none" d="
M -0.4 -47.75
L -1.95 -61.05 6 -66.6 15.8 -64.8 30.8 -65.75 39.35 -57.1 38.9 -51.65 24.65 -56.55 9.85 -58.3
Q 5.1 -53.35 1.1 -48.9 0.4 -48.15 -0.3 -47.35
M -15.2 -50
L -11.1 -60.45 -19 -65.75 -28.8 -64.45 -40.7 -65.05 -52.25 -58.25 -51.8 -53.25 -37.6 -57.25 -23.5 -54.9 -15.2 -50 -15.6 -49.05"/>

<path id="Duplicate_Items_Folder_head_copy_32_7_Layer2_0_2_STROKES" stroke="#AA8166" stroke-width="2" stroke-linejoin="round" stroke-linecap="round" fill="none" d="
M -4.4 -73
L -4.55 -60.45
M -7.1 -78.1
L -8.9 -63.6"/>

<path id="Duplicate_Items_Folder_head_copy_32_7_Layer1_0_1_STROKES" stroke="#D6BD72" stroke-width="1" stroke-linejoin="round" stroke-linecap="round" fill="none" d="
M -18.85 -56.3
Q -12.55 -57.5984375 -6.25 -57.65 -6 -57.6521484375 -5.75 -57.65 -5.6251953125 -57.6501953125 -5.5 -57.65 -5.0134765625 -57.62890625 -4.525 -57.6 -3.8634765625 -57.57890625 -3.2 -57.55
M -30.8 -58.5
Q -37.25 -58.65 -47.65 -56.3"/>

<path id="Duplicate_Items_Folder_head_copy_32_7_Layer1_0_2_STROKES" stroke="#6A582D" stroke-width="3" stroke-linejoin="round" stroke-linecap="round" fill="none" d="
M -12.45 -45.5
L -0.05 -45.3
Q 0.15 -48.85 1.3 -52.45 3.75 -54.25 5.95 -55.5 6.1 -55.55 6.2 -55.6 0.837109375 -56.7458984375 -4.525 -57.125 -5.012890625 -57.1478515625 -5.5 -57.175 -5.62421875 -57.171484375 -5.75 -57.175 -6 -57.181640625 -6.25 -57.175 -12.55 -57.3099609375 -18.85 -56.3 -19.55 -56.2 -20.25 -56.05 -18.95 -55.6 -18.15 -55.05 -16.1 -53.55 -13.85 -51.6 -12.1 -43.8 -14.3 -36.8 -16.65 -30 -19.05 -27.45 -21.45 -25.1 -28.45 -23.85 -33.9 -22.8 -41.15 -23.05 -46.2 -23.2 -48.3 -27.2 -50.45 -31.15 -51.45 -35.85 -52.5 -40.7 -50.8 -46.55 -49.15 -52.5 -47.75 -56 -33.9 -59.15 -27.1 -57.85 -22.7 -57.05 -20.25 -56.05
M 6.2 -55.6
Q 8.6 -56.85 15.15 -57.4 22.05 -57.95 35.5 -53.4 36.6 -49.75 37.8 -43.7 38.9 -37.55 37.5 -32.9 36.05 -28.3 33.5 -24.6 31.1 -20.95 26 -21.2 18.85 -21.75 13.4 -23.35 6.65 -25.3 4.4 -28.05 2.25 -30.75 0.55 -37.8 -0.3 -41.5 -0.05 -45.3"/>

<path id="eyeglass_0_Layer0_0_1_STROKES" stroke="#515151" stroke-width="1" stroke-linejoin="round" stroke-linecap="round" fill="none" d="
M 13.05 10.85
L 19.65 24.4
M 16.6 12.7
L 20.3 19.2"/>
</defs>

<g transform="matrix( 5.3564453125, 0, 0, 5.3564453125, 65.55,521.65) ">
<g transform="matrix( 0.3326416015625, 0.02349853515625, -0.02349853515625, 0.3326416015625, 32.2,-10.1) ">
<g transform="matrix( 1, 0, 0, 1, 0,0) ">
<use xlink:href="#Duplicate_Items_Folder_leg_suit_copy_13_0_Layer1_0_FILL"/>

<use xlink:href="#Duplicate_Items_Folder_leg_suit_copy_13_0_Layer1_0_1_STROKES"/>
</g>

<g transform="matrix( 1.15313720703125, 0.0055694580078125, -0.0055694580078125, 1.15313720703125, -2.5,17.55) ">
<g transform="matrix( 1, 0, 0, 1, 0,0) ">
<use xlink:href="#Duplicate_Items_Folder_right_shoe_copy_8_0_Layer0_0_FILL"/>
</g>
</g>
</g>

<g transform="matrix( 0.13299560546875, 0.3077392578125, 0.3260955810546875, -0.14093017578125, 26.5,-29) ">
<g transform="matrix( 1, 0, 0, 1, 0,0) ">
<use xlink:href="#Duplicate_Items_Folder_arm_knives_copy_6_0_Layer0_0_FILL"/>
</g>
</g>

<g transform="matrix( 0.358154296875, -0.014923095703125, 0.0105133056640625, 0.357696533203125, 42.05,-31.95) ">
<g transform="matrix( 1, 0, 0, 1, 0,0) ">
<use xlink:href="#Duplicate_Items_Folder_body_suit_copy_17_0_Layer2_0_FILL"/>
</g>

<g transform="matrix( 1, 0, 0, 1, 0,0) ">
<use xlink:href="#Duplicate_Items_Folder_body_suit_copy_17_0_Layer1_0_FILL"/>
</g>

<g transform="matrix( 1, 0, 0, 1, 0,0) ">
<use xlink:href="#Duplicate_Items_Folder_body_suit_copy_17_0_Layer0_0_FILL"/>
</g>
</g>

<g transform="matrix( -0.357177734375, 0.023284912109375, 0.023284912109375, 0.357177734375, 51.45,-9.8) ">
<g transform="matrix( 1, 0, 0, 1, 0,0) ">
<use xlink:href="#Duplicate_Items_Folder_leg_suit_copy_13_0_Layer1_0_FILL"/>

<use xlink:href="#Duplicate_Items_Folder_leg_suit_copy_13_0_Layer1_0_1_STROKES"/>
</g>

<g transform="matrix( 1.15313720703125, 0.0055694580078125, -0.0055694580078125, 1.15313720703125, -2.5,17.55) ">
<g transform="matrix( 1, 0, 0, 1, 0,0) ">
<use xlink:href="#Duplicate_Items_Folder_right_shoe_copy_8_0_Layer0_0_FILL"/>
</g>
</g>
</g>

<g transform="matrix( 0.2920379638671875, -0.0156402587890625, 0.004180908203125, 0.292205810546875, 43.1,-57.25) ">
<g transform="matrix( 1, 0, 0, 1, 0,0) ">
<use xlink:href="#Duplicate_Items_Folder_head_copy_32_7_Layer19_0_FILL"/>

<use xlink:href="#Duplicate_Items_Folder_head_copy_32_7_Layer19_0_1_STROKES"/>
</g>

<g transform="matrix( 1, 0, 0, 1, 0,0) ">
<use xlink:href="#Duplicate_Items_Folder_head_copy_32_7_Layer18_0_FILL"/>

<use xlink:href="#Duplicate_Items_Folder_head_copy_32_7_Layer18_0_1_STROKES"/>

<use xlink:href="#Duplicate_Items_Folder_head_copy_32_7_Layer18_0_2_STROKES"/>

<use xlink:href="#Duplicate_Items_Folder_head_copy_32_7_Layer18_0_3_STROKES"/>
</g>

<g transform="matrix( 1, 0, 0, 1, 0,0) ">
<use xlink:href="#Duplicate_Items_Folder_head_copy_32_7_Layer17_0_FILL"/>
</g>

<g transform="matrix( 1, 0, 0, 1, 0,0) ">
<use xlink:href="#Duplicate_Items_Folder_head_copy_32_7_Layer16_0_FILL"/>
</g>

<g transform="matrix( 1.21466064453125, -0.0021209716796875, -0.4017333984375, 1.65673828125, -60.1,-38.7) ">
<g transform="matrix( 1, 0, 0, 1, 0,0) ">
<use xlink:href="#Duplicate_Items_Folder_ear_copy_7_0_Layer0_0_FILL"/>

<use xlink:href="#Duplicate_Items_Folder_ear_copy_7_0_Layer0_0_1_STROKES"/>

<use xlink:href="#Duplicate_Items_Folder_ear_copy_7_0_Layer0_0_2_STROKES"/>
</g>
</g>

<g transform="matrix( 1, 0, 0, 1, 0,0) ">
<use xlink:href="#Duplicate_Items_Folder_head_copy_32_7_Layer14_0_FILL"/>

<use xlink:href="#Duplicate_Items_Folder_head_copy_32_7_Layer14_0_1_STROKES"/>

<use xlink:href="#Duplicate_Items_Folder_head_copy_32_7_Layer14_0_2_STROKES"/>
</g>

<g transform="matrix( -1.088470458984375, 0.0464324951171875, 0.3331298828125, 1.64239501953125, 44.2,-35.1) ">
<g transform="matrix( 1, 0, 0, 1, 0,0) ">
<use xlink:href="#Duplicate_Items_Folder_ear_copy_7_0_Layer0_0_FILL"/>

<use xlink:href="#Duplicate_Items_Folder_ear_copy_7_0_Layer0_0_1_STROKES"/>

<use xlink:href="#Duplicate_Items_Folder_ear_copy_7_0_Layer0_0_2_STROKES"/>
</g>
</g>

<g transform="matrix( 1, 0, 0, 1, 0,0) ">
<use xlink:href="#Duplicate_Items_Folder_head_copy_32_7_Layer12_0_1_STROKES"/>
</g>

<g transform="matrix( 1, 0, 0, 1, 0,0) ">
<use xlink:href="#Duplicate_Items_Folder_head_copy_32_7_Layer11_0_FILL"/>
</g>

<g transform="matrix( 1, 0, 0, 1, 0,0) ">
<use xlink:href="#Duplicate_Items_Folder_head_copy_32_7_Layer10_0_FILL"/>

<use xlink:href="#Duplicate_Items_Folder_head_copy_32_7_Layer10_0_1_STROKES"/>
</g>

<g transform="matrix( 1, 0, 0, 1, 0,0) ">
<use xlink:href="#Duplicate_Items_Folder_head_copy_32_7_Layer9_0_FILL"/>

<use xlink:href="#Duplicate_Items_Folder_head_copy_32_7_Layer9_0_1_STROKES"/>
</g>

<g transform="matrix( 1, 0, 0, 1, 0,0) ">
<use xlink:href="#Duplicate_Items_Folder_head_copy_32_7_Layer8_0_FILL"/>
</g>

<g transform="matrix( 1, 0, 0, 1, 0,0) ">
<use xlink:href="#Duplicate_Items_Folder_head_copy_32_7_Layer7_0_FILL"/>

<use xlink:href="#Duplicate_Items_Folder_head_copy_32_7_Layer7_0_1_STROKES"/>

<use xlink:href="#Duplicate_Items_Folder_head_copy_32_7_Layer7_0_2_STROKES"/>
</g>

<g transform="matrix( 1, 0, 0, 1, 0,0) ">
<use xlink:href="#Duplicate_Items_Folder_head_copy_32_7_Layer6_0_FILL"/>

<use xlink:href="#Duplicate_Items_Folder_head_copy_32_7_Layer6_0_1_STROKES"/>

<use xlink:href="#Duplicate_Items_Folder_head_copy_32_7_Layer6_0_2_STROKES"/>
</g>

<g transform="matrix( 1, 0, 0, 1, 0,0) ">
<use xlink:href="#Duplicate_Items_Folder_head_copy_32_7_Layer5_0_1_STROKES"/>
</g>

<g transform="matrix( 1, 0, 0, 1, 0,0) ">
<use xlink:href="#Duplicate_Items_Folder_head_copy_32_7_Layer4_0_FILL"/>

<use xlink:href="#Duplicate_Items_Folder_head_copy_32_7_Layer4_0_1_STROKES"/>
</g>

<g transform="matrix( 1, 0, 0, 1, 0,0) ">
<use xlink:href="#Duplicate_Items_Folder_head_copy_32_7_Layer3_0_1_STROKES"/>
</g>

<g transform="matrix( 1, 0, 0, 1, 0,0) ">
<use xlink:href="#Duplicate_Items_Folder_head_copy_32_7_Layer2_0_FILL"/>

<use xlink:href="#Duplicate_Items_Folder_head_copy_32_7_Layer2_0_1_STROKES"/>

<use xlink:href="#Duplicate_Items_Folder_head_copy_32_7_Layer2_0_2_STROKES"/>
</g>

<g transform="matrix( 1, 0, 0, 1, 0,0) ">
<use xlink:href="#Duplicate_Items_Folder_head_copy_32_7_Layer1_0_1_STROKES"/>

<use xlink:href="#Duplicate_Items_Folder_head_copy_32_7_Layer1_0_2_STROKES"/>
</g>

<g transform="matrix( 1.1361541748046875, 0.059844970703125, -0.0546112060546875, 1.2447509765625, -51,-59.4) ">
<g transform="matrix( 1, 0, 0, 1, 0,0) ">
<use filter="url(#Filter_1)" xlink:href="#eyeglass_copy_0_Layer0_0_FILL"/>
</g>
</g>

<g transform="matrix( -1.1361541748046875, -0.059844970703125, -0.0546112060546875, 1.2447509765625, 39.1,-56.35) ">
<g transform="matrix( 1, 0, 0, 1, 0,0) ">
<use filter="url(#Filter_2)" xlink:href="#eyeglass_0_Layer0_0_FILL"/>

<use filter="url(#Filter_2)" xlink:href="#eyeglass_0_Layer0_0_1_STROKES"/>
</g>
</g>
</g>

<g transform="matrix( -0.304412841796875, -0.106719970703125, -0.106719970703125, 0.304412841796875, 56.25,-26.95) ">
<g transform="matrix( 1, 0, 0, 1, 0,0) ">
<use xlink:href="#Duplicate_Items_Folder_arm_suit_copy_18_0_Layer0_0_FILL"/>
</g>
</g>
</g>
</svg>
