
<svg xmlns="http://www.w3.org/2000/svg" version="1.1" xmlns:xlink="http://www.w3.org/1999/xlink" preserveAspectRatio="none" x="0px" y="0px" width="560px" height="544px" viewBox="0 0 560 544">
<defs>
<g id="leg_3_0_Layer2_0_FILL">
<path fill="#CDCDCD" stroke="none" d="
M -1.25 -7.75
Q -2.4 -8.45 -3.3 -8.35 -3.445703125 -8.346875 -2.85 -3.05 -2.21328125 2.240625 -5 7.1 -4.3 9.45 -2.25 9 -0.45 3.2 -1.25 -7.75 Z"/>

<path fill="#F7F7F7" stroke="none" d="
M -0.55 -7.2
Q -0.9 -7.5 -1.25 -7.75 -0.45 3.2 -2.25 9
L -1.15 9.05
Q -0.2 9.3 0.05 9.4 0.3 9.5 0.95 9.45 1.6 9.4 1.9 8.8 2.2 8.15 2.05 7.2 1.85 6.2 1.3 5.5 1.2 5.4 1.05 5.35 -0.35 1.6 -0.25 -2.2
L -0.35 -7
Q -0.45 -7.1 -0.55 -7.2 Z"/>

<path fill="#000000" stroke="none" d="
M 0.45 -1.95
L 0.4 -6.8 -0.55 -7.2
Q -0.45 -7.1 -0.35 -7
L -0.25 -2.2
Q -0.35 1.6 1.05 5.35 1.2 5.4 1.3 5.5 1.85 6.2 2.05 7.2 2.2 8.15 1.9 8.8 1.6 9.4 0.95 9.45 0.3 9.5 0.05 9.4 -0.2 9.3 -1.15 9.05
L -2.25 9
Q -4.3 9.45 -5 7.1 -2.21328125 2.240625 -2.85 -3.05 -3.445703125 -8.346875 -3.3 -8.35
L -4.3 -8.75
Q -2.23984375 1.73984375 -6.25 7.3 -5.25 11.15 -0.2 9.95
L 0.75 10.2
Q 1.25 10.35 1.8 10.2 2.3 10.15 2.7 9.35 3.05 8.6 2.9 7.4 2.7 6.25 2.35 5.9 2 5.4 1.4 3.4 0.9 1.4 0.45 -1.95 Z"/>
</g>

<g id="leg_3_0_Layer1_0_FILL">
<path fill="#F7F7F7" stroke="none" d="
M -5.1 9.35
Q -6.7 9.25 -7.5 8 -7.45 9.1 -6.9 9.6 -6.4 10.05 -5.8 10.2 -5.3 10.35 -5 10.05 -5 10 -5 9.95 -5.1 9.65 -5.1 9.35 Z"/>

<path fill="#000000" stroke="none" d="
M -4.7 5.25
L -4.5 4.7
Q -5 4.15 -5.6 4.1 -6.25 4 -6.8 4.9 -7.05 5.1 -7.2 5.4 -7.85 6.6 -7.9 7.85 -7.9 7.95 -7.9 8.1 -7.85 9.45 -7.2 10.05 -6.55 10.55 -5.8 10.75 -5.2 10.95 -4.85 10.7
L -5 10.05
Q -5.3 10.35 -5.8 10.2 -6.4 10.05 -6.9 9.6 -7.45 9.1 -7.5 8
L -7.55 7.95
Q -7.45 6.9 -6.95 5.75 -6.7 5.3 -6.4 5.1 -5.95 4.65 -5.6 4.7 -5.15 4.7 -4.7 5.25 Z"/>

<path fill="#CDCDCD" stroke="none" d="
M -4.85 5.9
L -4.9 5.9
Q -5.25 5.3 -6.4 5.1 -6.7 5.3 -6.95 5.75 -7.45 6.9 -7.55 7.95
L -7.5 8
Q -6.7 9.25 -5.1 9.35 -5.15 8.8 -5.2 8.1 -5.1 6.9 -4.85 5.9 Z"/>

<path fill="#FFF7F7" stroke="none" d="
M -4.9 5.9
L -4.85 5.9
Q -4.8 5.5 -4.7 5.25 -5.15 4.7 -5.6 4.7 -5.95 4.65 -6.4 5.1 -5.25 5.3 -4.9 5.9 Z"/>
</g>

<g id="leg_3_0_Layer0_0_FILL">
<path fill="#F7F7F7" stroke="none" d="
M -5.2 9.35
Q -5.2 9.4 -5.15 9.4 -4.95 9.75 -4.8 9.95 -4.25 10.75 -3.3 10.7 -2.4 10.55 -1.65 10.2 -1.6 10.1 -1.4 10 -1.3 9.85 -1.15 9.55 -1 9.4 -1 9.2
L -1 9.1
Q -0.95 9 -0.9 8.95 -3 10.45 -5.2 9.35 Z"/>

<path fill="#CDCDCD" stroke="none" d="
M -1.4 6.15
Q -1.45 6.1 -2.25 5.4 -3.05 4.7 -5.1 6.2 -5.3 6.9 -5.35 7.8 -5.4 8.4 -5.2 8.95 -5.2 9.2 -5.2 9.35 -3 10.45 -0.9 8.95 -0.9 8.9 -0.9 8.85
L -0.35 8.75 -0.4 6.65
Q -0.75 6.55 -1.15 6.4
L -1.2 6.4
Q -1.35 6.25 -1.4 6.15 Z"/>

<path fill="#FFF7F7" stroke="none" d="
M -1.4 5.9
Q -2.25 4.45 -3.1 4.4 -4.05 4.35 -4.65 5.4 -4.75 5.55 -4.85 5.8 -5 6 -5.1 6.2 -3.05 4.7 -2.25 5.4 -1.45 6.1 -1.4 6.15 -1.35 6.25 -1.2 6.4
L -1.2 6.35
Q -1.25 6.25 -1.3 6.2 -1.35 6.05 -1.4 5.9 Z"/>

<path fill="#000000" stroke="none" d="
M -3.1 4.4
Q -2.25 4.45 -1.4 5.9 -1.35 6.05 -1.3 6.2
L -0.65 6.3 -0.65 6.25 -1.1 5.4
Q -1.15 5.4 -1.15 5.3 -2 3.75 -3.05 3.7 -4.1 3.65 -5 4.9 -5.05 4.9 -5.1 5 -5.15 5.1 -5.2 5.2 -5.2 5.25 -5.2 5.3
L -5.45 5.7 -5.4 5.7
Q -5.5 5.9 -5.55 6.15 -5.8 6.9 -5.9 7.85 -5.85 8.3 -5.85 8.75 -5.8 9 -5.75 9.2
L -5.7 9.25 -5.6 9.75
Q -5.55 9.85 -5.55 9.95 -5.5 9.95 -5.5 10.05 -5.3 10.3 -5.15 10.55 -4.6 11.25 -3.95 11.35 -3.65 11.45 -3.3 11.45 -2.25 11.25 -1.4 10.75 -1.15 10.6 -0.95 10.45 -0.9 10.45 -0.45 9.45 -0.35 9.2 -0.35 9.05 -0.35 8.95 -0.3 8.9 -0.3 8.8 -0.3 8.7
L -0.35 8.75 -0.9 8.85
Q -0.9 8.9 -0.9 8.95 -0.95 9 -1 9.1
L -1 9.2
Q -1 9.4 -1.15 9.55 -1.3 9.85 -1.4 10 -1.6 10.1 -1.65 10.2 -2.4 10.55 -3.3 10.7 -4.25 10.75 -4.8 9.95 -4.95 9.75 -5.15 9.4 -5.2 9.4 -5.2 9.35 -5.2 9.2 -5.2 8.95 -5.4 8.4 -5.35 7.8 -5.3 6.9 -5.1 6.2 -5 6 -4.85 5.8 -4.75 5.55 -4.65 5.4 -4.05 4.35 -3.1 4.4 Z"/>
</g>

<g id="tail_0_Layer0_0_FILL">
<path fill="#CCCCCC" stroke="none" d="
M 0.15 0.9
Q 1.85 1.5 2.35 2.5 3.55 -1.9 0.65 -4.15 1.3 -2.25 0.7 0.5 0.25 -0.55 -1.35 -1.05 -0.5 2 -2.3 4.2 -2.6 3.25 -4.05 2.05 -4.2 4.25 -5.85 5.3
L -5.1 6.95
Q -3.15 6.1 -2.95 3.9 -1.35 5 -1 5.95 1 3.85 0.15 0.9 Z"/>

<path fill="#F0F0F0" stroke="none" d="
M -0.05 -4.65
Q -0.2 -3.75 -0.5 -3.15 -0.95 -2 -2.75 0.3 -4.4 2.3 -6.5 3.3 -7.65 3.9 -8.35 3.95
L -7.95 6 -5.85 5.25 -5.85 5.3
Q -4.2 4.25 -4.05 2.05 -2.6 3.25 -2.3 4.2 -0.5 2 -1.35 -1.05 0.25 -0.55 0.7 0.5 1.3 -2.25 0.65 -4.15 0.25 -4.4 -0.05 -4.65 Z"/>
</g>

<g id="stand_body_0_Layer1_0_FILL">
<path fill="#CDCDCD" stroke="none" d="
M 5.85 -2.45
Q 2.6119140625 -2.8794921875 0.55 -2.85 -2.82265625 -2.98203125 -3.6 -5.4 -6.573828125 -9.4171875 -11.15 -6.6 -11.01640625 -6.268359375 -10.9 -5.9 -10.05 -3.45 -8.2 0.1 -5.9517578125 4.5525390625 3 4.3 3.3880859375 4.2904296875 3.6 4.2
L 3.55 4.2 4.9 3.9
Q 9.1328125 -1.9693359375 5.85 -2.45 Z"/>

<path fill="#F7F7F7" stroke="none" d="
M 4.3 -10.85
Q 2.4390625 -10.8017578125 0.6 -10.85 -1.1890625 -10.849609375 -1.65 -10.85 -2.058203125 -10.8484375 -3.55 -10.85 -4.9916015625 -10.8115234375 -5.45 -10.9 -5.85703125 -10.93828125 -7.7 -10.65 -9.49765625 -10.30390625 -11.4 -7.6 -11.2775390625 -7.1408203125 -11.15 -6.6 -6.573828125 -9.4171875 -3.6 -5.4 -2.82265625 -2.98203125 0.55 -2.85 2.6119140625 -2.8794921875 5.85 -2.45 9.1328125 -1.9693359375 4.9 3.9 7.723046875 3.126953125 9.2 1.65 11.6 -0.75 11.9 -1.05 12.05 -1.4 12.8 -2.5 12.95 -2.65 13.1 -2.9 13.5 -3.75 13.65 -4.45 13.65 -5.4 13.5 -5.3
L 13.3 -6.2
Q 13.2 -7.1 11.4 -8.9 9.6 -10.65 7.9 -10.8 6.1572265625 -10.848828125 4.3 -10.85 Z"/>
</g>

<g id="stand_body_0_Layer0_0_FILL">
<path fill="#FF0000" stroke="none" d="
M 4.4 1.2
Q 4.25 0.6 3.95 0.25 3.65 -0.15 3.35 -0.05 3.1 0.05 3.05 0.55 2.95 1.05 3.1 1.65 3.25 2.2 3.55 2.55 3.85 2.95 4.15 2.85 4.4 2.75 4.5 2.3 4.55 1.85 4.4 1.2
M 3.55 -5.1
Q 3 -4.95 2.7 -4.55 2.3 -4.1 2.3 -3.5 2.25 -2.9 2.6 -2.5 2.95 -2.1 3.5 -2.25 4.1 -2.3 4.25 -2.3 4.35 -2.05 4.85 -1.25 5.4 -0.45 5.8 -0.3 6.3 -0.15 6.5 -0.95 6.7 -1.75 6.75 -2.05 6.8 -2.3 7 -2.3 7.25 -2.2 7.5 -2.5 7.7 -2.8 7.7 -3.15 7.55 -3.6 7.7 -3.65 8.1 -3.8 8.35 -4.1 8.7 -4.4 8.7 -4.75 8.6 -5.15 8.25 -5.35 7.9 -5.55 7.4 -5.5 7.2 -5.5 7.05 -5.45 6.85 -5.5 6.7 -5.55 6.05 -5.8 5.2 -5.7 4.3 -5.6 3.65 -5.15 3.6 -5.1 3.55 -5.1 Z"/>
</g>

<g id="Duplicate_Items_Folder_head_copy_2_0_Layer4_0_FILL">
<path fill="#F0F0F0" stroke="none" d="
M 11.95 -1.2
Q 10.55 -6.35 4.7 -7.55 -0.55 -3.2 -1.25 3 -3.65 3.2 -4.1 5.4 -3.8 8.5 -2.35 10.35
L -1.4 8.1 -2.35 10.35 -2.45 12.1 -2.35 12.15
Q -2.45 12.85 -2.5 13.55 -2.65 19.05 2.45 20.6 5.4 22.3 10.85 19.15 10.95 19.2 11.25 18.9
L 12.45 17.95 14.3 15.45 12.45 17.95
Q 15.9 18.4 18.6 15.8 19.55 13.1 17.1 12.35 22.45 6.2 20.7 0.2 17.5 -3.4 11.95 -1.2 Z"/>

<path fill="#FA32D7" stroke="none" d="
M 8.65 -14.2
L 9.75 -12.65 9.2 -11.35 11.25 -11.1
Q 10.9314453125 -13.92265625 9.55 -16.95
L 8.65 -14.2 Z"/>

<path fill="#CCCCCC" stroke="none" d="
M 9.55 -16.95
Q 9.0447265625 -18.125390625 8.35 -19.35 3.1 -13.95 0.45 -6.85
L 2 -7.75 0.45 -6.85
Q -0.7927734375 -5.6923828125 -1.85 -3.75
L -2.9 -5.9 -4.15 -2.9
Q -5.0341796875 -1.3083984375 -4.5 0.9
L -5.6 0.75
Q -8.95 4.7 -5.2 9.8
L -2.45 12.1 -2.35 10.35
Q -3.8 8.5 -4.1 5.4 -3.65 3.2 -1.25 3 -0.55 -3.2 4.7 -7.55 10.55 -6.35 11.95 -1.2 17.5 -3.4 20.7 0.2 22.45 6.2 17.1 12.35 19.55 13.1 18.6 15.8 15.9 18.4 12.45 17.95
L 11.25 18.9
Q 12.25 19.5 14.9 19.15 17.55 18.85 20.05 17.15 22.5 15.4 22.5 14.4 22.5 13.4 21.3 13.35 23.4080078125 11.4994140625 24.9 7.8
L 22.65 7.95
Q 23.86328125 5.543359375 23.7 3
L 23.15 0.85 23.7 3
Q 27.2 -2.6 27.45 -9.7 22.05 -10.05 18.3 -5.9
L 15.6 -8.95 11.4 -9.5 11.35 -9.55 9.5 -9.35 11.35 -9.55 11.4 -9.5
Q 11.3828125 -10.2970703125 11.25 -11.1
L 9.2 -11.35 9.75 -12.65 8.65 -14.2 9.55 -16.95 Z"/>
</g>

<g id="Duplicate_Items_Folder_head_copy_2_0_Layer3_0_FILL">
<path fill="#CC0000" stroke="none" d="
M 14.65 9.95
Q 13.8255859375 9.8529296875 13.1 10.6 12.703125 9.943359375 12.05 9.85 11.35 9.8 10.75 10.4 10.15 11.05 10 12.05 9.9 13.05 10.3 13.85 10.75 14.65 11.45 14.7 11.916796875 14.7666015625 12.3 14.5 12.3908203125 14.7572265625 12.5 15 13 16 13.85 16.1 14.75 16.2 15.5 15.35 16.25 14.5 16.4 13.25 16.55 12 16.05 11 15.55 10.05 14.65 9.95 Z"/>
</g>

<g id="Duplicate_Items_Folder_head_copy_2_0_Layer2_0_FILL">
<path fill="#1E1815" stroke="none" d="
M 1.35 21.3
L 1.8 20.1 1.35 21.3 1.95 21.55
Q 4.85 21.5 6.45 18.7 3.7 16 -0.1 16 -1.45 18.55 0.9 21.15
L 1.35 21.3
M 2.05 17.85
Q 2.25 18.15 2 18.1 1.75 18.25 1.3 18.35 0.95 18.4 0.75 18.35 0.5 18.35 0.35 18 0.2 17.65 0.4 17.45 0.45 17.3 0.75 17.1 1.2 17.25 1.5 17.3 1.9 17.5 2.05 17.85
M 3.25 18.4
Q 3.65 18.35 4.05 18.5 4.5 18.55 4.55 18.85 4.8 19.35 4.75 19.65 4.6 19.85 4.25 19.9 4.15 19.9 4.1 19.9 4.1 19.85 3.5 19.45 2.75 18.95 2.8 18.65 3 18.3 3.25 18.4 Z"/>

<path fill="#000000" stroke="none" d="
M 4.05 18.5
Q 3.65 18.35 3.25 18.4 3 18.3 2.8 18.65 2.75 18.95 3.5 19.45 4.1 19.85 4.1 19.9 4.15 19.9 4.25 19.9 4.6 19.85 4.75 19.65 4.8 19.35 4.55 18.85 4.5 18.55 4.05 18.5
M 2 18.1
Q 2.25 18.15 2.05 17.85 1.9 17.5 1.5 17.3 1.2 17.25 0.75 17.1 0.45 17.3 0.4 17.45 0.2 17.65 0.35 18 0.5 18.35 0.75 18.35 0.95 18.4 1.3 18.35 1.75 18.25 2 18.1 Z"/>
</g>

<g id="Duplicate_Items_Folder_head_copy_2_0_Layer1_0_FILL">
<path fill="#FFCCCC" stroke="none" d="
M 7.95 -10
L 7.3 -15.25 4.15 -9.85 7.95 -10
M 25.55 -7.3
L 21 -4.6 23.25 -1.45 25.55 -7.3 Z"/>
</g>

<g id="Duplicate_Items_Folder_head_copy_2_0_Layer0_0_FILL">
<path fill="#FFFFFF" stroke="none" d="
M 6.05 5.05
Q 6.35 3.65 5.95 3.05 5.75 2.45 4.7 2.3 4.55 2.25 4.3 2.3 3 2.2 1.45 2.6 0.5 2.75 0 3.5 -0.3 3.9 -0.35 4.45 -0.65 5.95 0.15 7.1 0.95 8.3 2.25 8.45 3.55 8.55 4.7 7.65 5.8 6.6 6.05 5.05
M 1.75 5.65
Q 1.7 5.25 1.85 4.8 1.95 4.5 2.05 4.3 2.4 3.7 3.05 3.5 3.55 3.45 3.95 3.6 4.15 3.65 4.3 3.75 4.85 4.2 5.05 4.85 5.1 5.55 4.75 6.2 4.35 6.85 3.65 7 2.95 7.15 2.4 6.75 1.85 6.35 1.75 5.65
M 14.55 7.15
Q 14.5 6.95 14.35 6.8 13.8 5.95 13.2 6 12.4 5.9 11.3 6.85 10.1 7.9 9.9 9.45 9.7 10.9 10.45 12.05 11.15 13.1 12.55 13.25 13.85 13.25 14.95 12.3 15.45 12 15.6 11.6 16 10.8 15.75 9.85 15.3 8.25 14.55 7.15
M 13.3 7.8
Q 13.55 7.9 13.7 8.05 14 8.45 14.1 8.8 14.3 9.5 14 10.15 13.85 10.4 13.7 10.6 13.4 10.9 13.05 11.05 12.35 11.25 11.75 10.95 11.1 10.7 10.95 10 10.75 9.3 11.05 8.7 11.35 8 12.1 7.7 12.7 7.5 13.3 7.8 Z"/>

<path fill="#00CCFF" stroke="none" d="
M 1.85 4.8
Q 1.7 5.25 1.75 5.65 1.85 6.35 2.4 6.75 2.95 7.15 3.65 7 4.35 6.85 4.75 6.2 5.1 5.55 5.05 4.85 4.85 4.2 4.3 3.75 4.15 3.65 3.95 3.6 3.55 3.45 3.05 3.5 2.4 3.7 2.05 4.3 1.95 4.5 1.85 4.8
M 3.45 5.7
Q 3.3 5.6 3.2 5.3 3.15 5.05 3.35 4.85 3.45 4.6 3.65 4.55 3.9 4.5 4.1 4.6 4.3 4.7 4.3 5 4.3 5.25 4.2 5.5 4.05 5.7 3.8 5.8 3.65 5.85 3.45 5.7 Z"/>

<path fill="#000000" stroke="none" d="
M 3.2 5.3
Q 3.3 5.6 3.45 5.7 3.65 5.85 3.8 5.8 4.05 5.7 4.2 5.5 4.3 5.25 4.3 5 4.3 4.7 4.1 4.6 3.9 4.5 3.65 4.55 3.45 4.6 3.35 4.85 3.15 5.05 3.2 5.3
M 12.9 9.25
Q 13.1 9.05 12.95 8.8 12.85 8.55 12.65 8.45 12.5 8.35 12.25 8.45 12.05 8.55 11.9 8.8 11.8 9.1 11.85 9.2 12 9.45 12.15 9.55 12.3 9.65 12.5 9.6 12.75 9.45 12.9 9.25 Z"/>

<path fill="#99CC00" stroke="none" d="
M 13.7 8.05
Q 13.55 7.9 13.3 7.8 12.7 7.5 12.1 7.7 11.35 8 11.05 8.7 10.75 9.3 10.95 10 11.1 10.7 11.75 10.95 12.35 11.25 13.05 11.05 13.4 10.9 13.7 10.6 13.85 10.4 14 10.15 14.3 9.5 14.1 8.8 14 8.45 13.7 8.05
M 12.95 8.8
Q 13.1 9.05 12.9 9.25 12.75 9.45 12.5 9.6 12.3 9.65 12.15 9.55 12 9.45 11.85 9.2 11.8 9.1 11.9 8.8 12.05 8.55 12.25 8.45 12.5 8.35 12.65 8.45 12.85 8.55 12.95 8.8 Z"/>
</g>

<path id="tail_0_Layer0_0_1_STROKES" stroke="#000000" stroke-width="0.8" stroke-linejoin="round" stroke-linecap="round" fill="none" d="
M -5.85 5.3
L -5.85 5.25 -7.95 6 -8.35 3.95
Q -7.65 3.9 -6.5 3.3 -4.4 2.3 -2.75 0.3 -0.95 -2 -0.5 -3.15 -0.2 -3.75 -0.05 -4.65 0.25 -4.4 0.65 -4.15 3.55 -1.9 2.35 2.5 1.85 1.5 0.15 0.9 1 3.85 -1 5.95 -1.35 5 -2.95 3.9 -3.15 6.1 -5.1 6.95
L -5.85 5.3 Z"/>

<path id="stand_body_0_Layer1_0_1_STROKES" stroke="#000000" stroke-width="1" stroke-linejoin="round" stroke-linecap="round" fill="none" d="
M 4.9 3.9
Q 7.723046875 3.126953125 9.2 1.65 11.6 -0.75 11.9 -1.05 12.05 -1.4 12.8 -2.5 12.95 -2.65 13.1 -2.9 13.5 -3.75 13.65 -4.45 13.65 -5.4 13.5 -5.3
L 13.3 -6.2
Q 13.2 -7.1 11.4 -8.9 9.6 -10.65 7.9 -10.8 6.1572265625 -10.848828125 4.3 -10.825 2.4390625 -10.8017578125 0.625 -10.825 -1.1890625 -10.849609375 -1.625 -10.85 -2.058203125 -10.8484375 -3.525 -10.825 -4.9916015625 -10.8115234375 -5.425 -10.875 -5.85703125 -10.93828125 -7.675 -10.625 -9.49765625 -10.30390625 -11.4 -7.6 -11.2775390625 -7.1408203125 -11.125 -6.6
M 3.575 4.225
L 4.9 3.9
M 3.6 4.2
Q 3.3880859375 4.2904296875 3.025 4.3 -5.9517578125 4.5525390625 -8.2 0.1 -10.05 -3.45 -10.9 -5.9 -11.01640625 -6.268359375 -11.125 -6.6"/>

<path id="Duplicate_Items_Folder_head_copy_2_0_Layer4_0_1_STROKES" stroke="#000000" stroke-width="0.75" stroke-linejoin="round" stroke-linecap="round" fill="none" d="
M -2.45 12.1
L -5.2 9.8
Q -8.95 4.7 -5.6 0.75
L -4.5 0.9
Q -5.0341796875 -1.3083984375 -4.125 -2.9
L -2.9 -5.9 -1.85 -3.725
Q -0.7927734375 -5.6923828125 0.45 -6.85 3.1 -13.95 8.35 -19.35 9.0447265625 -18.125390625 9.575 -16.925 10.9314453125 -13.92265625 11.275 -11.1 11.3828125 -10.2970703125 11.4 -9.5
L 15.6 -8.95 18.3 -5.9
Q 22.05 -10.05 27.45 -9.7 27.2 -2.6 23.7 3 23.86328125 5.543359375 22.65 7.975
L 24.9 7.8
Q 23.4080078125 11.4994140625 21.3 13.35 22.5 13.4 22.5 14.4 22.5 15.4 20.05 17.15 17.55 18.85 14.9 19.15 12.25 19.5 11.25 18.9 10.95 19.2 10.85 19.15 5.4 22.3 2.45 20.6 -2.65 19.05 -2.5 13.55
L -2.45 12.1 -2.35 10.35
M 12.45 17.95
L 11.25 18.9
M 9.575 -16.925
L 8.65 -14.2 9.75 -12.65 9.2 -11.35 11.275 -11.1
M 0.45 -6.85
L 2 -7.75
M 11.4 -9.5
L 11.35 -9.55 9.5 -9.35
M 23.15 0.85
L 23.7 3
M 14.3 15.45
L 12.45 17.95
M -2.35 10.35
L -1.4 8.1
M -2.5 13.55
Q -2.45 12.85 -2.35 12.15
L -2.45 12.1"/>

<path id="Duplicate_Items_Folder_head_copy_2_0_Layer2_0_1_STROKES" stroke="#000000" stroke-width="0.8" stroke-linejoin="round" stroke-linecap="round" fill="none" d="
M 1.8 20.1
L 1.35 21.3 0.9 21.15
Q -1.45 18.55 -0.1 16 3.7 16 6.45 18.7 4.85 21.5 1.95 21.55
L 1.35 21.3"/>

<path id="Duplicate_Items_Folder_head_copy_2_0_Layer1_0_1_STROKES" stroke="#000000" stroke-width="0.75" stroke-linejoin="round" stroke-linecap="round" fill="none" d="
M 26.15 -7.65
L 25.55 -7.3 23.25 -1.45 21 -4.6 25.55 -7.3
M 7.2 -15.95
L 7.3 -15.25 4.15 -9.85 7.95 -10 7.3 -15.25"/>

<path id="Duplicate_Items_Folder_head_copy_2_0_Layer0_0_1_STROKES" stroke="#000000" stroke-width="0.8" stroke-linejoin="round" stroke-linecap="round" fill="none" d="
M 14.4 4.7
Q 12.55 4.35 10.95 5.2
M 13.3 7.8
Q 12.7 7.5 12.1 7.7 11.35 8 11.05 8.7 10.75 9.3 10.95 10 11.1 10.7 11.75 10.95 12.35 11.25 13.05 11.05 13.4 10.9 13.7 10.6 13.85 10.4 14 10.15 14.3 9.5 14.1 8.8 14 8.45 13.7 8.05 13.55 7.9 13.3 7.8 Z
M 14.35 6.8
Q 13.8 5.95 13.2 6 12.4 5.9 11.3 6.85 10.1 7.9 9.9 9.45 9.7 10.9 10.45 12.05 11.15 13.1 12.55 13.25 13.85 13.25 14.95 12.3 15.45 12 15.6 11.6 16 10.8 15.75 9.85 15.3 8.25 14.55 7.15 14.5 6.95 14.35 6.8 Z
M 5.75 0.65
Q 7.05 1.35 7.4 3.3
M 6.05 5.05
Q 5.8 6.6 4.7 7.65 3.55 8.55 2.25 8.45 0.95 8.3 0.15 7.1 -0.65 5.95 -0.35 4.45 -0.3 3.9 0 3.5 0.5 2.75 1.45 2.6 3 2.2 4.3 2.3 4.55 2.25 4.7 2.3 5.75 2.45 5.95 3.05 6.35 3.65 6.05 5.05 Z
M 2.05 4.3
Q 2.4 3.7 3.05 3.5 3.55 3.45 3.95 3.6 4.15 3.65 4.3 3.75 4.85 4.2 5.05 4.85 5.1 5.55 4.75 6.2 4.35 6.85 3.65 7 2.95 7.15 2.4 6.75 1.85 6.35 1.75 5.65 1.7 5.25 1.85 4.8 1.95 4.5 2.05 4.3 Z"/>
</defs>

<g transform="matrix( 6.9209136962890625, 0, 0, 6.6043548583984375, 236.95,421.65) ">
<g transform="matrix( 1, 0, 0, 1, 0,0) ">
<use xlink:href="#leg_3_0_Layer2_0_FILL"/>
</g>

<g transform="matrix( 1, 0, 0, 1, 0,0) ">
<use xlink:href="#leg_3_0_Layer1_0_FILL"/>
</g>

<g transform="matrix( 1, 0, 0, 1, 0,0) ">
<use xlink:href="#leg_3_0_Layer0_0_FILL"/>
</g>
</g>

<g transform="matrix( 6.9209136962890625, 0, 0, 6.9209136962890625, 351.25,401.55) ">
<g transform="matrix( 1, 0, 0, 1, 0,0) ">
<use xlink:href="#leg_3_0_Layer2_0_FILL"/>
</g>

<g transform="matrix( 1, 0, 0, 1, 0,0) ">
<use xlink:href="#leg_3_0_Layer1_0_FILL"/>
</g>

<g transform="matrix( 1, 0, 0, 1, 0,0) ">
<use xlink:href="#leg_3_0_Layer0_0_FILL"/>
</g>
</g>

<g transform="matrix( 8.375946044921875, 0, 0, 8.375946044921875, 461.5,300.9) ">
<g transform="matrix( 1, 0, 0, 1, 0,0) ">
<use xlink:href="#tail_0_Layer0_0_FILL"/>

<use xlink:href="#tail_0_Layer0_0_1_STROKES"/>
</g>
</g>

<g transform="matrix( 8.338027954101562, 0.7703094482421875, -0.7703094482421875, 8.338027954101562, 304.65,399.55) ">
<g transform="matrix( 1, 0, 0, 1, 0,0) ">
<use xlink:href="#stand_body_0_Layer1_0_FILL"/>

<use xlink:href="#stand_body_0_Layer1_0_1_STROKES"/>
</g>

<g transform="matrix( 1, 0, 0, 1, 0,0) ">
<use xlink:href="#stand_body_0_Layer0_0_FILL"/>
</g>
</g>

<g transform="matrix( 8.375946044921875, 0, 0, 7.6352996826171875, 281.2,445.5) ">
<g transform="matrix( 1, 0, 0, 1, 0,0) ">
<use xlink:href="#leg_3_0_Layer2_0_FILL"/>
</g>

<g transform="matrix( 1, 0, 0, 1, 0,0) ">
<use xlink:href="#leg_3_0_Layer1_0_FILL"/>
</g>

<g transform="matrix( 1, 0, 0, 1, 0,0) ">
<use xlink:href="#leg_3_0_Layer0_0_FILL"/>
</g>
</g>

<g transform="matrix( 8.147506713867188, 0, 0, 7.08050537109375, 423.1,431.9) ">
<g transform="matrix( 1, 0, 0, 1, 0,0) ">
<use xlink:href="#leg_3_0_Layer2_0_FILL"/>
</g>

<g transform="matrix( 1, 0, 0, 1, 0,0) ">
<use xlink:href="#leg_3_0_Layer1_0_FILL"/>
</g>

<g transform="matrix( 1, 0, 0, 1, 0,0) ">
<use xlink:href="#leg_3_0_Layer0_0_FILL"/>
</g>
</g>

<g transform="matrix( 8.309494018554688, -1.02606201171875, 1.02606201171875, 8.309494018554688, 155.95,208.65) ">
<g transform="matrix( 1, 0, 0, 1, 0,0) ">
<use xlink:href="#Duplicate_Items_Folder_head_copy_2_0_Layer4_0_FILL"/>

<use xlink:href="#Duplicate_Items_Folder_head_copy_2_0_Layer4_0_1_STROKES"/>
</g>

<g transform="matrix( 1, 0, 0, 1, 0,0) ">
<use xlink:href="#Duplicate_Items_Folder_head_copy_2_0_Layer3_0_FILL"/>
</g>

<g transform="matrix( 1, 0, 0, 1, 0,0) ">
<use xlink:href="#Duplicate_Items_Folder_head_copy_2_0_Layer2_0_FILL"/>

<use xlink:href="#Duplicate_Items_Folder_head_copy_2_0_Layer2_0_1_STROKES"/>
</g>

<g transform="matrix( 1, 0, 0, 1, 0,0) ">
<use xlink:href="#Duplicate_Items_Folder_head_copy_2_0_Layer1_0_FILL"/>

<use xlink:href="#Duplicate_Items_Folder_head_copy_2_0_Layer1_0_1_STROKES"/>
</g>

<g transform="matrix( 1, 0, 0, 1, 0,0) ">
<use xlink:href="#Duplicate_Items_Folder_head_copy_2_0_Layer0_0_FILL"/>

<use xlink:href="#Duplicate_Items_Folder_head_copy_2_0_Layer0_0_1_STROKES"/>
</g>
</g>
</svg>
