
<svg xmlns="http://www.w3.org/2000/svg" version="1.1" xmlns:xlink="http://www.w3.org/1999/xlink" preserveAspectRatio="none" x="0px" y="0px" width="560px" height="544px" viewBox="0 0 560 544">
<defs>
<g id="Duplicate_Items_Folder_foot_copy_3_0_Layer0_0_FILL">
<path fill="#9F8C77" stroke="none" d="
M -10.35 8.2
Q -11.7232421875 5.69453125 -13.3 4.5 -13.45 4.4 -13.6 4.35 -15.3 3.25 -17.6 2.6 -22.55 1.05 -26.3 2.55 -28.798046875 3.54921875 -29.1 4.7 -25.8525390625 2.840234375 -18.75 4.55
L -10.35 8.2
M 4.1 -15.35
Q 2.74375 -16.3037109375 0.75 -16.35 -3.6 -16.45 -7.3 -11.5 -11.05 -6.45 -12.55 -0.5
L -13.3 4.5
Q -11.7232421875 5.69453125 -10.35 8.2 -10.264453125 8.3060546875 -10.2 8.4
L -9.05 8.75 -7.3 9.5
Q -9.751953125 4.5775390625 -7.05 0 -2.722265625 -11.84765625 4.1 -15.35 Z"/>

<path fill="#897661" stroke="none" d="
M 4.35 -15.2
Q 4.2447265625 -15.2798828125 4.1 -15.35 -2.722265625 -11.84765625 -7.05 0 -9.751953125 4.5775390625 -7.3 9.5
L -9.05 8.75 -10.2 8.4
Q -10.264453125 8.3060546875 -10.35 8.2
L -18.75 4.55
Q -25.8525390625 2.840234375 -29.1 4.7 -29.2173828125 5.282421875 -28.8 5.9 -25.55 4.9 -21.4 6.35 -25.55 4.9 -28.8 5.9 -29.15 6.55 -29.05 6.9 -28.85 7.8 -28.05 8.4 -25.1 7.35 -21.55 8.45 -25.1 7.35 -28.05 8.4 -27.95 8.5 -27.8 8.6 -27.1 12.15 -20.85 13.25
L -18.7 13.05
Q -15.6 13.1 -10.75 14.5 3.75 18.3 4.85 8.85
L 4.15 5.8
Q 1.75 8.4 -0.4 9.3 1.75 8.4 4.15 5.8 5.95 3.7 6.9 -0.8 8.15 -11.3 4.35 -15.2 Z"/>
</g>

<g id="Duplicate_Items_Folder_arm__copy_4_0_Layer0_0_FILL">
<path fill="#9F8C77" stroke="none" d="
M -11.75 -11.05
Q -12.568359375 -10.4673828125 -13.4 -9.6 -13.85 -0.95 -9.95 2.35
L -10.3 2.8
Q -14.25 6.25 -15.9 9.75
L -19.9 9.7
Q -24.65 10.4 -25.8 13.1 -26.9201171875 15.68125 -24.45 15.95
L -21.85 11.6
Q -17.8287109375 10.153515625 -14.8 11.85 -12.198046875 6.9046875 -7.45 3.2 -10.7453125 -3.9125 -11.75 -11.05 Z"/>

<path fill="#897661" stroke="none" d="
M -3.8 -9.8
Q -7.86484375 -13.618359375 -11.75 -11.05 -10.7453125 -3.9125 -7.45 3.2 -12.198046875 6.9046875 -14.8 11.85 -17.8287109375 10.153515625 -21.85 11.6
L -24.45 15.95
Q -24.36875 15.9447265625 -24.3 15.95
L -23.1 16.2
Q -23.1 13.35 -20.8 12.8 -23.1 13.35 -23.1 16.2 -23.1 16.25 -23.1 16.3
L -23.05 16.3 -23.05 16.4
Q -23.05 16.45 -23.05 16.55
L -23.05 16.9
Q -22 19.7 -19.25 17.1 -19.2 17.35 -19.15 17.65 -19.15 15.95 -17.45 14.7 -19.15 15.95 -19.15 17.65 -18.5 19.45 -16.25 19.35 -13.8 19.05 -13.95 17.15 -14.15 15.15 -12.2 13.3
L -10.3 11.85
Q -8.95 11.7 -7.25 11.4 -4.7 10.85 -3.05 9.85 3 7.45 -3.8 -9.8 Z"/>
</g>

<g id="Duplicate_Items_Folder_body_front_copy_4_0_Layer2_0_FILL">
<path fill="#202020" stroke="none" d="
M 7.75 14.65
Q 3.15 15.9 3.25 21.5 4.7 22.7 6.6 23.6 11.65 26.35 15.9 26.9
L 15.95 26.9
Q 14.05 22.05 16.3 17.7 13.2 17.4 9.85 15.9 8.65 15.35 7.75 14.65
M 26.7 13.4
Q 25.9 14.8 24.75 15.7 24.95 21.3 28.8 23.3 31.45 21.55 33.65 19 35.5 16.6 36.85 14.9 36.277734375 14.7427734375 35.75 14.55
L 33.25 16.7 32.9 14.35 30.35 14.8 31.05 11.2
Q 30.4904296875 10.503125 30 9.65 28.6 11.4 26.7 13.4
M 38.8 -19.15
Q 36.75 -21.15 34.1 -22.9 31.45 -24.7 29.2 -23.85 27.65 -23.3 25.75 -21.25 24.45 -19.9 25.55 -18.35 25.65 -18.15 29.65 -13.9 30.65 -12.9 31.3 -12.05 37.3 -13.25 38.8 -19.15
M 3.55 -2.85
Q 1.05 -1.7 0.35 -1.35 -1.95 0.25 -2.95 3.2 -3.8 5.8 -3.6 8.5 1.05 6.6 5 8.3 4.95 7.25 5.25 6.1 5.75 4.1 7.8 2.9 7.2 -1.3 3.55 -2.85 Z"/>

<path fill="#9F8C77" stroke="none" d="
M 5.45 11.5
Q 4.95 9.95 5 8.3 1.05 6.6 -3.6 8.5 -3.55 9.2 -3.45 10 -2.8 13.45 -0.65 17.25 0.7 19.6 3.25 21.5 3.15 15.9 7.75 14.65 6.05 13.35 5.45 11.5
M 28.8 23.3
Q 24.95 21.3 24.75 15.7 22.55 17.6 19.05 17.8 17.7 17.85 16.3 17.7 14.05 22.05 15.95 26.9 20.15 27.5 25.1 25.25 27.05 24.55 28.8 23.3
M 35.7 3.05
Q 34.6734375 2.593359375 33.65 1.85 33.35 3.85 32.65 5.4 31.85 7.25 30 9.65 30.4904296875 10.503125 31.05 11.2 32.9193359375 13.486328125 35.75 14.55 36.277734375 14.7427734375 36.85 14.9 38.55 12.85 39.45 11.65 41.75 8.7 43.2 3.3 41.0478515625 4.1966796875 38.9 4
L 38.75 5.5 38.9 4
Q 37.3 3.84375 35.7 3.05
L 35.65 4.8 35.7 3.05
M 31.3 -12.05
Q 32.75 -10.3 33.15 -9.1 33.55 -8.15 33.75 -6.25 35.611328125 -5.5681640625 37.55 -5.75
L 37.35 -7.1 37.55 -5.75
Q 38.9234375 -5.8296875 40.3 -6.35
L 40.1 -7.25 40.3 -6.35
Q 41.128125 -6.6263671875 41.95 -7.05
L 42.25 -9.65 41.95 -7.05
Q 43.225390625 -7.709375 44.55 -8.7 44.2 -12.9 40.75 -17 39.85 -18.15 38.8 -19.15 37.3 -13.25 31.3 -12.05
M 4.75 -3.35
Q 4.05 -3.05 3.55 -2.85 7.2 -1.3 7.8 2.9 8.5 2.5 9.45 2.2
L 12.6 1.1
Q 14 -0.15 11.8 -4.1
L 9.4 -4.15
Q 6.65 -4.05 4.75 -3.35 Z"/>

<path fill="#FF3366" stroke="none" d="
M 33.25 16.7
L 35.75 14.55
Q 32.9193359375 13.486328125 31.05 11.2
L 30.35 14.8 32.9 14.35 33.25 16.7 Z"/>

<path fill="#FF0000" stroke="none" d="
M 33.75 -6.25
Q 33.85 -4.7 34 -2.6 34.05 -0.15 33.65 1.85 34.6734375 2.593359375 35.7 3.05
L 35.75 1.3 35.7 3.05
Q 37.3 3.84375 38.9 4
L 39.05 2.6 38.9 4
Q 41.0478515625 4.1966796875 43.2 3.3 43.3 3 43.3 2.75 44.7 -2.7 44.6 -8.05 44.55 -8.4 44.55 -8.7 43.225390625 -7.709375 41.95 -7.05
L 41.7 -5.05 41.95 -7.05
Q 41.128125 -6.6263671875 40.3 -6.35
L 40.6 -5.2 40.3 -6.35
Q 38.9234375 -5.8296875 37.55 -5.75
L 37.8 -4.25 37.55 -5.75
Q 35.611328125 -5.5681640625 33.75 -6.25 Z"/>
</g>

<g id="Duplicate_Items_Folder_body_front_copy_4_0_Layer1_0_FILL">
<path fill="#706150" stroke="none" d="
M 13.3 -2.6
Q 10.6 -9.35 6.15 -14.2 0.75 -16.15 -5.2 -15.95 -5.85 -15.95 -6.55 -15.9 -8.3 -15.8 -10.05 -15.55 -12.75 -15.2 -15.6 -14.4 -18.5 -13.4 -19.9 -9.35 -20.76796875 -8.299609375 -24.15 -0.7 -27.527734375 6.897265625 -27 12.9 -26.4294921875 18.9607421875 -25.45 20.55 -24.478125 22.17890625 -22.25 24.8 -20.0154296875 27.4185546875 -16.05 28.05 -12.0943359375 28.694140625 -11.15 28.8 -9.65 28.95 -8.3 29.05 -7.6 29.1 -6.9 29.15 -2.05 29.4 -0.1 29.05 2.6 28.55 3.75 28 4.85 27.45 5.85 27 6.85 26.6 8.8 25.75 10.75 24.85 12.3 23.85 13.8 22.85 16.25 19.5 18.7 16.05 17.4 10.05 16 4.1 13.3 -2.6
M -9.25 -13.55
Q -9.4 -13.55 -9.6 -13.5 -9.75 -13.5 -9.9 -13.5 -9.45 -13.6 -9.1 -13.55
L -9.25 -13.55 Z"/>

<path fill="#928943" stroke="none" d="
M -9.6 -13.5
Q -9.4 -13.55 -9.25 -13.55
L -9.1 -13.55
Q -9.45 -13.6 -9.9 -13.5 -9.75 -13.5 -9.6 -13.5 Z"/>
</g>

<g id="Duplicate_Items_Folder_body_front_copy_4_0_Layer0_0_FILL">
<path fill="#202020" stroke="none" d="
M -8.45 -3.35
Q -8.6685546875 -3.33984375 -8.9 -3.35 -13.50234375 -3.5458984375 -16.05 0.25
L -14.85 1.3 -16.05 0.25
Q -16.0970703125 0.3669921875 -16.15 0.45 -16.5990234375 1.1193359375 -17 1.8
L -15.8 2.4 -17 1.8
Q -18.1923828125 3.8865234375 -19.1 6.3
L -18.3 6.5 -19.1 6.3
Q -19.716015625 8.063671875 -20.2 10 -20.4634765625 11.0353515625 -20.65 12
L -19.5 11.8 -20.65 12
Q -21.2646484375 16.0900390625 -20 19
L -18.95 18.4 -20 19
Q -19.93203125 19.08125 -19.9 19.15 -19.401171875 20.2208984375 -18.35 21
L -17.85 20.2 -18.35 21
Q -15.8498046875 22.948046875 -10.25 23.4
L -10.25 22 -10.25 23.4
Q -10.12578125 23.4400390625 -10 23.45 -1.8 24.05 0.35 20.15 0.46796875 19.938671875 0.55 19.7
L -0.25 19 0.55 19.7
Q 2.1546875 16.594921875 1.95 12.25
L 0.8 12.5 1.95 12.25
Q 1.9505859375 11.398046875 1.85 10.5 1.6859375 9.035546875 1.4 7.7
L 0.35 7.3 1.4 7.7
Q 0.5056640625 3.702734375 -1.55 0.75 -1.598828125 0.6806640625 -1.65 0.6
L -2.3 1.65 -1.65 0.6
Q -4.241796875 -2.9599609375 -8.45 -3.35
M -10 0.1
Q -6.55 0.25 -4.5 3 -2.45 5.8 -1.95 9.95 -1.5 14.05 -3.1 16.8 -4.7 19.55 -10.8 19.15 -16.95 18.65 -18.2 16.1 -19.45 13.5 -18.45 9.6 -17.4 5.6 -15.4 2.8 -13.5 -0.05 -10 0.1 Z"/>

<path fill="#3A3A3A" stroke="none" d="
M -4.5 3
Q -6.55 0.25 -10 0.1 -13.5 -0.05 -15.4 2.8 -17.4 5.6 -18.45 9.6 -19.45 13.5 -18.2 16.1 -16.95 18.65 -10.8 19.15 -4.7 19.55 -3.1 16.8 -1.5 14.05 -1.95 9.95 -2.45 5.8 -4.5 3 Z"/>
</g>

<g id="Duplicate_Items_Folder_head_copy_5_0_Layer4_0_FILL">
<path fill="#C7BCAF" stroke="none" d="
M -33.3 -2.05
Q -38.25 -5.6 -43.55 -7.15 -37.7 -3.65 -38.35 2.2 -36.75 2.8 -34.9 3.35 -34.1 0.65 -33.3 -2.05
M 31.6 -6.45
Q 25.8 -5.6 20.1 -2.3 20.65 0.45 21.2 3.3 24.35 2.65 27.1 1.7 26.6 -2.5 31.6 -6.45 Z"/>

<path fill="#9F8C77" stroke="none" d="
M -51.6 -8.3
Q -47.45 -8.25 -43.55 -7.15 -38.25 -5.6 -33.3 -2.05 -33.15 -2.55 -33.05 -2.95 -31.25 -9.35 -31.3 -9.5
L -38.25 -10.4
Q -42.8 -10.8 -45.45 -10.65 -47.2 -10.5 -48.1 -10.1 -50.6 -9.2 -51.3 -8.65 -51.55 -8.4 -51.6 -8.3
M 19.95 -3.25
Q 20.05 -2.8 20.1 -2.3 25.8 -5.6 31.6 -6.45 35.2 -7.05 38.95 -6.65 38.9 -6.8 38.7 -7.1 38.05 -7.7 35.65 -8.85 34.8 -9.3 33.35 -9.6 30.65 -10.1 25.85 -10.15
L 18.85 -9.85
Q 18.75 -9.7 19.95 -3.25 Z"/>

<path fill="#DCD5CD" stroke="none" d="
M -51.6 -8.2
L -51.55 -8.15
Q -47.85 -1.45 -38.35 2.2 -37.7 -3.65 -43.55 -7.15 -47.45 -8.25 -51.6 -8.3 -51.65 -8.25 -51.6 -8.2
M 38.95 -6.55
L 38.9 -6.6
Q 39 -6.6 38.95 -6.65 35.2 -7.05 31.6 -6.45 26.6 -2.5 27.1 1.7 35.1 -1 38.95 -6.55 Z"/>
</g>

<g id="Duplicate_Items_Folder_head_copy_5_0_Layer3_0_FILL">
<path fill="#FF3366" stroke="none" d="
M -4.3 -24.9
Q -6.0361328125 -26.558203125 -7.35 -26.3 -8.619921875 -26.0451171875 -9.85 -24.7 -10.326171875 -22.615234375 -8.05 -21.2
L -8.65 -18.45
Q -8.0626953125 -15.3748046875 -5.55 -13.3
L -5.5 -19.25 -5.2 -19.8 -4 -22.05 -3.65 -22.55
Q -3.0689453125 -23.6244140625 -4.3 -24.9
M -6.65 -24.85
Q -6.3 -25.15 -5.9 -25.1 -5.5 -25.05 -5.25 -24.7 -5 -24.3 -5.05 -23.8 -5.1 -23.3 -5.4 -23 -5.703515625 -22.651171875 -5.9 -22.8 -6.039453125 -22.946484375 -5.85 -23.55 -5.610546875 -24.103515625 -6.3 -24.3 -6.946484375 -24.498828125 -6.65 -24.85
M -8 -24.85
Q -7.75 -25.05 -7.5 -25.05 -7.2 -25 -7.05 -24.75 -6.85 -24.5 -6.9 -24.15 -6.8263671875 -24.15 -6.75 -24.15 -6.4 -24.1 -6.2 -23.8 -6 -23.5 -6 -23.15 -6.05 -22.8 -6.3 -22.55 -6.55 -22.25 -6.9 -22.3 -7.25 -22.3 -7.5 -22.65 -7.7 -22.95 -7.7 -23.3 -7.6849609375 -23.4048828125 -7.65 -23.5 -7.9 -23.5 -8.1 -23.75 -8.3 -23.95 -8.3 -24.3 -8.25 -24.65 -8 -24.85
M -7.45 -18.9
Q -7.4 -19.15 -7.2 -19.35 -7 -19.5 -6.8 -19.5 -6.6 -19.45 -6.45 -19.25 -6.3 -19.05 -6.3 -18.75 -6.35 -18.5 -6.55 -18.3 -6.7 -18.05 -6.9 -18.1 -7.1 -18.1 -7.3 -18.35 -7.45 -18.6 -7.45 -18.9 Z"/>

<path fill="#DE0808" stroke="none" d="
M -7.2 -19.35
Q -7.4 -19.15 -7.45 -18.9 -7.45 -18.6 -7.3 -18.35 -7.1 -18.1 -6.9 -18.1 -6.7 -18.05 -6.55 -18.3 -6.35 -18.5 -6.3 -18.75 -6.3 -19.05 -6.45 -19.25 -6.6 -19.45 -6.8 -19.5 -7 -19.5 -7.2 -19.35
M -7.5 -25.05
Q -7.75 -25.05 -8 -24.85 -8.25 -24.65 -8.3 -24.3 -8.3 -23.95 -8.1 -23.75 -7.9 -23.5 -7.65 -23.5 -7.6849609375 -23.4048828125 -7.7 -23.3 -7.7 -22.95 -7.5 -22.65 -7.25 -22.3 -6.9 -22.3 -6.55 -22.25 -6.3 -22.55 -6.05 -22.8 -6 -23.15 -6 -23.5 -6.2 -23.8 -6.4 -24.1 -6.75 -24.15 -6.8263671875 -24.15 -6.9 -24.15 -6.85 -24.5 -7.05 -24.75 -7.2 -25 -7.5 -25.05 Z"/>

<path fill="#FF9CB5" stroke="none" d="
M -5.9 -25.1
Q -6.3 -25.15 -6.65 -24.85 -6.946484375 -24.498828125 -6.3 -24.3 -5.610546875 -24.103515625 -5.85 -23.55 -6.039453125 -22.946484375 -5.9 -22.8 -5.703515625 -22.651171875 -5.4 -23 -5.1 -23.3 -5.05 -23.8 -5 -24.3 -5.25 -24.7 -5.5 -25.05 -5.9 -25.1 Z"/>

<path fill="#8E7A64" stroke="none" d="
M 9.95 -19.1
Q 6.7 -21 1 -21.75 -2.28046875 -22.2142578125 -4 -22.05
L -5.2 -19.8
Q -4.73125 -16.3056640625 -4.5 -13.2 -3.155078125 2.944921875 -7.4 9.55 -8.679296875 11.5666015625 -10.5 12.7 -16.355078125 16.438671875 -27.75 10.8 -20.85 19.15 -10.1 20 0.7 20.9 6.15 19.75 11.5 18.55 18.5 13.4 21.55 11.6 23.6 7 22.1 -0.3 21.85 -3.25 21.8 -3.3 21.85 -4.35 21.75 -5.4 21.55 -6.65 21.3 -7.85 20.95 -9.3 20.65 -10.75 16.95 -14.05 13.2 -17.3 9.95 -19.1 Z"/>

<path fill="#9F8C77" stroke="none" d="
M 1 -21.75
Q 6.7 -21 9.95 -19.1 13.2 -17.3 16.95 -14.05 20.65 -10.75 20.95 -9.3 21.3 -7.85 21.55 -6.65 21.75 -5.4 21.85 -4.35 21.8 -3.3 21.85 -3.25 22.1 -0.3 23.6 7 21.55 11.6 18.5 13.4 11.5 18.55 6.15 19.75 0.7 20.9 -10.1 20 -20.85 19.15 -27.75 10.8 -16.355078125 16.438671875 -10.5 12.7 -10.7 12.3263671875 -10.7 11.9 -10.7 10.9 -9.45 10.2 -8.547265625 9.7138671875 -7.4 9.55 -3.155078125 2.944921875 -4.5 -13.2 -4.73125 -16.3056640625 -5.2 -19.8
L -5.5 -19.25 -5.55 -13.3
Q -8.0626953125 -15.3748046875 -8.65 -18.45
L -8.05 -21.2
Q -10.326171875 -22.615234375 -9.85 -24.7 -12.8662109375 -24.16640625 -16.4 -22.85 -21.45 -20.95 -25.3 -18.55 -28.15 -16.7 -30.8 -13.5 -33.5 -10.4 -34.35 -8.75 -35.2 -7.1 -35.4 -6.5 -35.6 -5.9 -35.85 -3.9 -36.1 -2 -37.4 2.15 -38.6 6.2 -39.3 7.25 -40.05 8.25 -39.25 8.3 -37.9 7.75 -36.45 5.4 -37.9 7.75 -39.25 8.3 -40.3 9.1 -40.9 9.55 -41.55 10.05 -42.8 10.4 -43.5 10.55 -44.55 10.35 -44.5 10.45 -44.4 10.55 -43.2 12 -38.15 11.55
L -36 10.55 -38.15 11.55
Q -38 11.5 -37.8 11.5 -34.2 13.75 -29.6 16.3 -20.6 21.35 -16.2 22.3 -11.9 23.3 -4.2 22.8 1.35 22.9 7.3 21.6 13.2 20.25 20.85 14.4
L 26.65 9.15
Q 25 8.5 23.95 7.25 25 8.5 26.65 9.15
L 27.15 8.7 27.1 9.3
Q 29.6 9.55 30.6 7.75
L 27.9 5.6
Q 25.9 3.45 26.35 3.75 25.2 2.4 25 0.75 24.8 -1 24.5 -4.45 24.45 -4.5 24.4 -5.7 24.4 -6.9 24.1 -8.3 23.85 -9.6 23.2 -10.9 22.5 -12.15 18.35 -15.8 14.25 -19.45 11.5 -20.95 8.75 -22.5 2.8 -23.8 -1.144140625 -24.694921875 -4.3 -24.9 -3.0689453125 -23.6244140625 -3.65 -22.55
L -4 -22.05
Q -2.28046875 -22.2142578125 1 -21.75 Z"/>
</g>

<g id="Duplicate_Items_Folder_head_copy_5_0_Layer2_0_FILL">
<path fill="#000000" stroke="none" d="
M -6.35 9.5
Q -8.15 9.5 -9.45 10.2 -10.7 10.9 -10.7 11.9 -10.7 12.9 -9.4 13.6 -8.05 14.3 -6.25 14.3 -4.45 14.3 -3.25 13.55 -1.95 12.8 -1.95 11.85 -1.95 10.85 -3.25 10.1 -4.55 9.5 -6.35 9.5
M -8.7 12
Q -9.3 11.8 -9.35 11.5 -9.35 11.2 -8.85 10.85 -8.25 10.6 -7.45 10.4 -6.65 10.3 -6 10.4 -5.45 10.5 -5.4 10.8 -5.4 11.1 -5.9 11.5 -6.45 11.85 -7.25 11.95 -8.05 12.1 -8.7 12 Z"/>

<path fill="#FFFFFF" stroke="none" d="
M -9.35 11.5
Q -9.3 11.8 -8.7 12 -8.05 12.1 -7.25 11.95 -6.45 11.85 -5.9 11.5 -5.4 11.1 -5.4 10.8 -5.45 10.5 -6 10.4 -6.65 10.3 -7.45 10.4 -8.25 10.6 -8.85 10.85 -9.35 11.2 -9.35 11.5 Z"/>
</g>

<g id="Duplicate_Items_Folder_head_copy_5_0_Layer1_0_FILL">
<path fill="#333333" stroke="none" d="
M -22.35 -15.25
Q -26.5 -12.6 -29.1 -7.35 -31.7 -2.1 -32.15 2.45
L -32.9 9.85
Q -22.55 14.4 -12.05 10.55 -7.65 -3.4 -10.15 -17.25 -11.8 -18.2 -13.9 -17.85 -18.15 -17.9 -22.35 -15.25
M -30.35 -1.35
Q -29.8 -6.3 -26.45 -9.95 -23.1 -13.45 -18.85 -13.55 -14.65 -13.55 -12.05 -10.1 -9.45 -6.55 -10 -1.6 -10.55 3.4 -13.9 6.95 -17.3 10.6 -21.5 10.6 -25.75 10.7 -28.35 7.2 -30.85 3.7 -30.35 -1.35
M 11.05 -15.65
Q 6.95 -18.35 2.65 -18.3 0.5 -18.65 -1.05 -17.8 -3.8 -4 0.4 10 10.85 14.05 21.25 9.6
L 20.65 2.25
Q 20.3 -2.3 17.65 -7.65 15.2 -12.95 11.05 -15.65
M 15.15 -10.25
Q 18.35 -6.6 18.8 -1.55 19.3 3.45 16.8 6.95 14.15 10.35 9.95 10.2 5.7 10.1 2.35 6.5 -0.95 2.9 -1.4 -2.15 -1.95 -7.1 0.65 -10.65 3.3 -14.05 7.65 -13.95 11.75 -13.8 15.15 -10.25 Z"/>

<path fill="#000000" stroke="none" d="
M -26.45 -9.95
Q -29.8 -6.3 -30.35 -1.35 -30.85 3.7 -28.35 7.2 -25.75 10.7 -21.5 10.6 -17.3 10.6 -13.9 6.95 -10.55 3.4 -10 -1.6 -9.45 -6.55 -12.05 -10.1 -14.65 -13.55 -18.85 -13.55 -23.1 -13.45 -26.45 -9.95
M -28.55 -1.45
Q -28.1 -5.55 -25.3 -8.55 -22.5 -11.45 -19.05 -11.55 -15.55 -11.55 -13.4 -8.7 -11.25 -5.75 -11.75 -1.7 -12.2 2.45 -14.95 5.35 -17.75 8.35 -21.25 8.35 -24.75 8.45 -26.9 5.55 -28.95 2.7 -28.55 -1.45
M -24.35 -6.95
Q -26.4 -4.65 -26.65 -1.45 -26.85 1.75 -25.25 4 -23.45 6.2 -20.8 6.1 -18.1 6.15 -16.05 3.8 -13.95 1.55 -13.75 -1.65 -13.5 -4.8 -15.2 -7.05 -16.9 -9.25 -19.65 -9.25 -22.3 -9.2 -24.35 -6.95
M -25.2 -1.85
Q -25 -4.05 -23.5 -5.6 -22 -7.2 -20.05 -7.2 -18.05 -7.25 -16.8 -5.75 -15.6 -4.25 -15.8 -2.05 -15.95 0.2 -17.5 1.8 -19 3.4 -20.95 3.35 -22.9 3.5 -24.2 1.95 -25.35 0.35 -25.2 -1.85
M 18.8 -1.55
Q 18.35 -6.6 15.15 -10.25 11.75 -13.8 7.65 -13.95 3.3 -14.05 0.65 -10.65 -1.95 -7.1 -1.4 -2.15 -0.95 2.9 2.35 6.5 5.7 10.1 9.95 10.2 14.15 10.35 16.8 6.95 19.3 3.45 18.8 -1.55
M 0.3 -2.15
Q -0.15 -6.3 2 -9.1 4.15 -12 7.7 -11.9 11.15 -11.75 13.95 -8.85 16.65 -5.85 17 -1.75 17.45 2.4 15.3 5.25 13.1 8.1 9.65 8 6.15 7.95 3.45 4.9 0.65 1.95 0.3 -2.15
M 3.75 -7.5
Q 2.1 -5.3 2.3 -2.1 2.4 1.05 4.5 3.4 6.55 5.75 9.2 5.7 11.9 5.85 13.7 3.65 15.35 1.45 15.2 -1.75 15.05 -4.95 12.95 -7.3 10.9 -9.55 8.25 -9.6 5.55 -9.65 3.75 -7.5
M 5.4 -6.25
Q 6.7 -7.65 8.65 -7.65 10.55 -7.6 12.1 -5.95 13.5 -4.4 13.75 -2.15 13.85 0 12.75 1.55 11.4 3.1 9.4 2.9 7.45 2.95 5.95 1.35 4.4 -0.2 4.35 -2.5 4.15 -4.7 5.4 -6.25 Z"/>

<path fill="#FF0000" stroke="none" d="
M -25.3 -8.55
Q -28.1 -5.55 -28.55 -1.45 -28.95 2.7 -26.9 5.55 -24.75 8.45 -21.25 8.35 -17.75 8.35 -14.95 5.35 -12.2 2.45 -11.75 -1.7 -11.25 -5.75 -13.4 -8.7 -15.55 -11.55 -19.05 -11.55 -22.5 -11.45 -25.3 -8.55
M -26.65 -1.45
Q -26.4 -4.65 -24.35 -6.95 -22.3 -9.2 -19.65 -9.25 -16.9 -9.25 -15.2 -7.05 -13.5 -4.8 -13.75 -1.65 -13.95 1.55 -16.05 3.8 -18.1 6.15 -20.8 6.1 -23.45 6.2 -25.25 4 -26.85 1.75 -26.65 -1.45
M 2 -9.1
Q -0.15 -6.3 0.3 -2.15 0.65 1.95 3.45 4.9 6.15 7.95 9.65 8 13.1 8.1 15.3 5.25 17.45 2.4 17 -1.75 16.65 -5.85 13.95 -8.85 11.15 -11.75 7.7 -11.9 4.15 -12 2 -9.1
M 2.3 -2.1
Q 2.1 -5.3 3.75 -7.5 5.55 -9.65 8.25 -9.6 10.9 -9.55 12.95 -7.3 15.05 -4.95 15.2 -1.75 15.35 1.45 13.7 3.65 11.9 5.85 9.2 5.7 6.55 5.75 4.5 3.4 2.4 1.05 2.3 -2.1 Z"/>

<path fill="#270707" stroke="none" d="
M -23.5 -5.6
Q -25 -4.05 -25.2 -1.85 -25.35 0.35 -24.2 1.95 -22.9 3.5 -20.95 3.35 -19 3.4 -17.5 1.8 -15.95 0.2 -15.8 -2.05 -15.6 -4.25 -16.8 -5.75 -18.05 -7.25 -20.05 -7.2 -22 -7.2 -23.5 -5.6
M 8.65 -7.65
Q 6.7 -7.65 5.4 -6.25 4.15 -4.7 4.35 -2.5 4.4 -0.2 5.95 1.35 7.45 2.95 9.4 2.9 11.4 3.1 12.75 1.55 13.85 0 13.75 -2.15 13.5 -4.4 12.1 -5.95 10.55 -7.6 8.65 -7.65 Z"/>
</g>

<g id="Duplicate_Items_Folder_head_copy_5_0_Layer0_0_FILL">
<path fill="#FFFFFF" stroke="none" d="
M -22.5 -5.5
Q -21.5 -5.5 -20.85 -6.15 -20.2 -6.8 -20.25 -7.8 -20.25 -8.8 -20.95 -9.5 -21.55 -10.2 -22.6 -10.2 -23.55 -10.15 -24.15 -9.5 -24.8 -8.75 -24.8 -7.75 -24.8 -6.75 -24.1 -6.1 -23.4 -5.45 -22.5 -5.5
M -22.45 -1.15
Q -22.85 -1.15 -23.2 -0.75 -23.5 -0.35 -23.5 0.15 -23.5 0.65 -23.2 1.05 -22.85 1.4 -22.4 1.4 -21.95 1.4 -21.6 1 -21.25 0.65 -21.25 0.15 -21.25 -0.35 -21.6 -0.75 -21.95 -1.15 -22.45 -1.15
M 14.95 -5.3
Q 15.45 -6.2 15.25 -7.15 14.95 -8.1 14.05 -8.45 13.2 -8.95 12.35 -8.6 11.4 -8.35 10.9 -7.5 10.45 -6.6 10.7 -5.75 10.95 -4.85 11.85 -4.4 12.7 -3.95 13.6 -4.2 14.5 -4.4 14.95 -5.3
M 9.75 -0.45
Q 9.3 -0.8 8.9 -0.6 8.4 -0.35 8.15 0.05 7.95 0.5 8.1 0.95 8.15 1.45 8.65 1.7 9 1.9 9.45 1.75 9.9 1.55 10.1 1.05 10.35 0.7 10.25 0.15 10.2 -0.25 9.75 -0.45 Z"/>
</g>

<path id="Duplicate_Items_Folder_foot_copy_3_0_Layer0_0_1_STROKES" stroke="#000000" stroke-width="1.5" stroke-linejoin="round" stroke-linecap="round" fill="none" d="
M 4.125 -15.35
Q 2.74375 -16.3037109375 0.75 -16.35 -3.6 -16.45 -7.3 -11.5 -11.05 -6.45 -12.55 -0.5
L -13.3 4.5
Q -11.7232421875 5.69453125 -10.325 8.2 -10.264453125 8.3060546875 -10.2 8.425
M 4.125 -15.35
Q 4.2447265625 -15.2798828125 4.35 -15.2 8.15 -11.3 6.9 -0.8 5.95 3.7 4.15 5.8
L 4.85 8.85
Q 3.75 18.3 -10.75 14.5 -15.6 13.1 -18.7 13.05
L -20.85 13.25
Q -27.1 12.15 -27.8 8.6 -27.95 8.5 -28.05 8.4 -28.85 7.8 -29.05 6.9 -29.15 6.55 -28.8 5.9 -29.2173828125 5.282421875 -29.075 4.7 -28.798046875 3.54921875 -26.3 2.55 -22.55 1.05 -17.6 2.6 -15.3 3.25 -13.6 4.35 -13.45 4.4 -13.3 4.5
M -28.8 5.9
Q -25.55 4.9 -21.4 6.35
M -28.05 8.4
Q -25.1 7.35 -21.55 8.45
M 4.15 5.8
Q 1.75 8.4 -0.4 9.3"/>

<path id="Duplicate_Items_Folder_arm__copy_4_0_Layer0_0_1_STROKES" stroke="#000000" stroke-width="1" stroke-linejoin="round" stroke-linecap="round" fill="none" d="
M -11.725 -11.025
Q -7.86484375 -13.618359375 -3.8 -9.8 3 7.45 -3.05 9.85 -4.7 10.85 -7.25 11.4 -8.95 11.7 -10.3 11.85
L -12.2 13.3
Q -14.15 15.15 -13.95 17.15 -13.8 19.05 -16.25 19.35 -18.5 19.45 -19.15 17.65 -19.2 17.35 -19.25 17.1 -22 19.7 -23.05 16.9 -23.25 16.4 -23.1 16.3 -23.1 16.25 -23.1 16.2
L -24.3 15.95
Q -24.36875 15.9447265625 -24.425 15.95 -26.9201171875 15.68125 -25.8 13.1 -24.65 10.4 -19.9 9.7
L -15.9 9.75
Q -14.25 6.25 -10.3 2.8
L -9.95 2.35
Q -13.85 -0.95 -13.4 -9.6 -12.568359375 -10.4673828125 -11.725 -11.025 Z
M -19.15 17.65
Q -19.15 15.95 -17.45 14.7
M -23.1 16.3
L -23.05 16.3 -23.05 16.4
Q -23.05 16.45 -23.05 16.55
L -23.05 16.9 -23.1 16.65
Q -23.1 16.55 -23.05 16.55
M -23.1 16.2
Q -23.1 13.35 -20.8 12.8"/>

<path id="Duplicate_Items_Folder_body_front_copy_4_0_Layer2_0_1_STROKES" stroke="#000000" stroke-width="1" stroke-linejoin="round" stroke-linecap="round" fill="none" d="
M -3.6 8.5
Q -3.8 5.8 -2.95 3.2 -1.95 0.25 0.35 -1.35 1.05 -1.7 3.55 -2.85 4.05 -3.05 4.75 -3.35 6.65 -4.05 9.4 -4.15
L 11.8 -4.1
Q 14 -0.15 12.6 1.1
L 9.45 2.2
Q 8.5 2.5 7.8 2.9 5.75 4.1 5.25 6.1 4.95 7.25 5 8.3 4.95 9.95 5.45 11.5 6.05 13.35 7.75 14.65 8.65 15.35 9.85 15.9 13.2 17.4 16.3 17.7 17.7 17.85 19.05 17.8 22.55 17.6 24.75 15.7 25.9 14.8 26.7 13.4 28.6 11.4 30 9.65 31.85 7.25 32.65 5.4 33.35 3.85 33.65 1.85 34.05 -0.15 34 -2.6 33.85 -4.7 33.75 -6.25 33.55 -8.15 33.15 -9.1 32.75 -10.3 31.3 -12.05 30.65 -12.9 29.65 -13.9 25.65 -18.15 25.55 -18.35 24.45 -19.9 25.75 -21.25 27.65 -23.3 29.2 -23.85 31.45 -24.7 34.1 -22.9 36.75 -21.15 38.8 -19.15 39.85 -18.15 40.75 -17 44.2 -12.9 44.55 -8.7 44.55 -8.4 44.6 -8.05 44.7 -2.7 43.3 2.75 43.3 3 43.2 3.3 41.75 8.7 39.45 11.65 38.55 12.85 36.85 14.9 35.5 16.6 33.65 19 31.45 21.55 28.8 23.3 27.05 24.55 25.1 25.25 20.15 27.5 15.95 26.9
L 15.9 26.9
Q 11.65 26.35 6.6 23.6 4.7 22.7 3.25 21.5 0.7 19.6 -0.65 17.25 -2.8 13.45 -3.45 10 -3.55 9.2 -3.6 8.5 1.05 6.6 5 8.3
M 33.75 -6.25
Q 35.611328125 -5.5681640625 37.575 -5.725
L 37.35 -7.1
M 40.1 -7.25
L 40.325 -6.325
Q 38.9234375 -5.8296875 37.575 -5.725
M 40.325 -6.325
Q 41.128125 -6.6263671875 41.95 -7.05
L 42.25 -9.65
M 37.575 -5.725
L 37.8 -4.25
M 31.3 -12.05
Q 37.3 -13.25 38.8 -19.15
M 44.55 -8.7
Q 43.225390625 -7.709375 41.95 -7.05
L 41.7 -5.05
M 40.325 -6.325
L 40.6 -5.2
M 33.65 1.85
Q 34.6734375 2.593359375 35.7 3.075
L 35.75 1.3
M 35.65 4.8
L 35.7 3.075
Q 37.3 3.84375 38.9 4
L 39.05 2.6
M 38.9 4
L 38.75 5.5
M 24.75 15.7
Q 24.95 21.3 28.8 23.3
M 35.75 14.55
Q 36.277734375 14.7427734375 36.85 14.9
M 31.075 11.225
L 30.35 14.8 32.9 14.35 33.25 16.7 35.75 14.55
Q 32.9193359375 13.486328125 31.075 11.225 30.4904296875 10.503125 30 9.65
M 7.75 14.65
Q 3.15 15.9 3.25 21.5
M 16.3 17.7
Q 14.05 22.05 15.95 26.9
M 38.9 4
Q 41.0478515625 4.1966796875 43.2 3.3
M 7.8 2.9
Q 7.2 -1.3 3.55 -2.85"/>

<path id="Duplicate_Items_Folder_body_front_copy_4_0_Layer1_0_1_STROKES" stroke="#000000" stroke-width="1.5" stroke-linejoin="round" stroke-linecap="round" fill="none" d="
M 6.15 -14.2
Q 0.75 -16.15 -5.2 -15.95 -5.85 -15.95 -6.55 -15.9 -8.3 -15.8 -10.05 -15.55 -12.75 -15.2 -15.6 -14.4 -18.5 -13.4 -19.9 -9.35 -20.76796875 -8.299609375 -24.15 -0.7 -27.527734375 6.897265625 -26.975 12.925 -26.4294921875 18.9607421875 -25.45 20.575 -24.478125 22.17890625 -22.25 24.8 -20.0154296875 27.4185546875 -16.05 28.05 -12.0943359375 28.694140625 -11.15 28.8 -9.65 28.95 -8.3 29.05 -7.6 29.1 -6.9 29.15 -2.05 29.4 -0.1 29.05 2.6 28.55 3.75 28 4.85 27.45 5.85 27 6.85 26.6 8.8 25.75 10.75 24.85 12.3 23.85 13.8 22.85 16.25 19.5 18.7 16.05 17.4 10.05 16 4.1 13.3 -2.6 10.6 -9.35 6.15 -14.2 Z"/>

<path id="Duplicate_Items_Folder_body_front_copy_4_0_Layer0_0_1_STROKES" stroke="#000000" stroke-width="1" stroke-linejoin="round" stroke-linecap="round" fill="none" d="
M -16.05 0.275
Q -13.50234375 -3.5458984375 -8.9 -3.35 -8.6685546875 -3.33984375 -8.45 -3.325
L -8.35 -5.3
M 1.4 7.7
Q 0.5056640625 3.702734375 -1.55 0.75 -1.598828125 0.6806640625 -1.65 0.625
L -2.3 1.65
M -17 1.825
Q -16.5990234375 1.1193359375 -16.15 0.45 -16.0970703125 0.3669921875 -16.05 0.275
L -17.85 -1.25
M -18.7 1.05
L -17 1.825 -15.8 2.4
M -20.625 12
Q -20.4634765625 11.0353515625 -20.2 10 -19.716015625 8.063671875 -19.075 6.325
L -21.2 5.85
M -19.075 6.325
L -18.3 6.5
M -16.05 0.275
L -14.85 1.3
M -19.075 6.325
Q -18.1923828125 3.8865234375 -17 1.825
M -18.35 21.025
Q -19.401171875 20.2208984375 -19.9 19.15 -19.93203125 19.08125 -19.975 19
L -21.6 20
M -17.85 20.2
L -18.35 21.025
Q -15.8498046875 22.948046875 -10.25 23.425
L -10.25 22
M -18.35 21.025
L -19.3 22.65
M -10.25 23.425
L -10.25 24.65
M -18.95 18.4
L -19.975 19
Q -21.2646484375 16.0900390625 -20.625 12
L -21.95 12.25
M 0.575 19.725
Q 0.46796875 19.938671875 0.35 20.15 -1.8 24.05 -10 23.45 -10.12578125 23.4400390625 -10.25 23.425
M -20.625 12
L -19.5 11.8
M 1.975 12.25
L 4.1 11.8
M 1.4 7.7
Q 1.6859375 9.035546875 1.85 10.5 1.9505859375 11.398046875 1.975 12.25 2.1546875 16.594921875 0.575 19.725
L 1.7 20.7
M 0.35 7.3
L 1.4 7.7 2.75 8.2
M 0.8 12.5
L 1.975 12.25
M -0.25 19
L 0.575 19.725
M -0.95 -0.5
L -1.65 0.625
Q -4.241796875 -2.9599609375 -8.45 -3.325"/>

<path id="Duplicate_Items_Folder_head_copy_5_0_Layer4_0_1_STROKES" stroke="#000000" stroke-width="1" stroke-linejoin="round" stroke-linecap="round" fill="none" d="
M 20.1 -2.3
Q 20.05 -2.8 19.95 -3.25 18.75 -9.7 18.85 -9.85
L 25.85 -10.15
Q 30.65 -10.1 33.35 -9.6 34.8 -9.3 35.65 -8.85 38.05 -7.7 38.7 -7.1 38.9 -6.8 38.95 -6.65 39 -6.6 38.9 -6.6
L 38.95 -6.55
Q 35.1 -1 27.1 1.7 24.35 2.65 21.2 3.3 20.65 0.45 20.1 -2.3 25.8 -5.6 31.6 -6.45 35.2 -7.05 38.95 -6.65
M -51.6 -8.3
Q -51.65 -8.25 -51.6 -8.2
L -51.55 -8.15
Q -47.85 -1.45 -38.35 2.2
M -43.55 -7.15
Q -47.45 -8.25 -51.6 -8.3 -51.55 -8.4 -51.3 -8.65 -50.6 -9.2 -48.1 -10.1 -47.2 -10.5 -45.45 -10.65 -42.8 -10.8 -38.25 -10.4
L -31.3 -9.5
Q -31.25 -9.35 -33.05 -2.95 -33.15 -2.55 -33.3 -2.05 -34.1 0.65 -34.9 3.35 -36.75 2.8 -38.35 2.2
M -33.3 -2.05
Q -38.25 -5.6 -43.55 -7.15"/>

<path id="Duplicate_Items_Folder_head_copy_5_0_Layer3_0_1_STROKES" stroke="#000000" stroke-width="1" stroke-linejoin="round" stroke-linecap="round" fill="none" d="
M -5.2 -19.8
L -5.5 -19.25 -5.525 -13.275
Q -8.0626953125 -15.3748046875 -8.65 -18.45
L -8.05 -21.175
Q -10.326171875 -22.615234375 -9.825 -24.675 -12.8662109375 -24.16640625 -16.4 -22.85 -21.45 -20.95 -25.3 -18.55 -28.15 -16.7 -30.8 -13.5 -33.5 -10.4 -34.35 -8.75
M -35.85 -3.9
Q -36.1 -2 -37.4 2.15 -38.6 6.2 -39.3 7.25 -40.05 8.25 -39.25 8.3 -37.9 7.75 -36.45 5.4
M -4.275 -24.9
Q -1.144140625 -24.694921875 2.8 -23.8 8.75 -22.5 11.5 -20.95 14.25 -19.45 18.35 -15.8 22.5 -12.15 23.2 -10.9 23.85 -9.6 24.1 -8.3
M 24.4 -5.7
Q 24.45 -4.5 24.5 -4.45 24.8 -1 25 0.75 25.2 2.4 26.35 3.75 25.9 3.45 27.9 5.6
L 30.6 7.75
Q 29.6 9.55 27.1 9.3
M 26.65 9.15
L 20.85 14.4
Q 13.2 20.25 7.3 21.6 1.35 22.9 -4.2 22.8 -11.9 23.3 -16.2 22.3 -20.6 21.35 -29.6 16.3 -34.2 13.75 -37.8 11.5 -38 11.5 -38.15 11.55 -43.2 12 -44.4 10.55 -44.5 10.45 -44.55 10.35 -43.5 10.55 -42.8 10.4 -41.55 10.05 -40.9 9.55 -40.3 9.1 -39.25 8.3
M -9.825 -24.675
Q -8.619921875 -26.0451171875 -7.325 -26.3 -6.0361328125 -26.558203125 -4.275 -24.9 -3.0689453125 -23.6244140625 -3.625 -22.525
L -3.975 -22.05 -5.2 -19.8
M -38.15 11.55
L -36 10.55
M 23.95 7.25
Q 25 8.5 26.65 9.15"/>

<path id="Duplicate_Items_Folder_head_copy_5_0_Layer2_0_1_STROKES" stroke="#000000" stroke-width="1" stroke-linejoin="round" stroke-linecap="round" fill="none" d="
M 26.65 9.15
Q 26.8 9.25 27.1 9.3
M -0.7 16.35
L -0.15 17.6
Q 0.6 17.45 1.55 17.45
M 0.5 19.15
L -0.15 17.6
Q -3.05 17.85 -4.95 18.95
L -4.45 20.15
M -6.5 20
Q -5.8 19.4 -4.95 18.95
L -5.5 17.55"/>

<path id="Duplicate_Items_Folder_head_copy_5_0_Layer1_0_1_STROKES" stroke="#000000" stroke-width="1" stroke-linejoin="round" stroke-linecap="round" fill="none" d="
M 11.05 -15.65
Q 15.2 -12.95 17.65 -7.65 20.3 -2.3 20.65 2.25
L 21.25 9.6
Q 10.85 14.05 0.4 10 -3.8 -4 -1.05 -17.8 0.5 -18.65 2.65 -18.3 6.95 -18.35 11.05 -15.65 Z
M -29.1 -7.35
Q -31.7 -2.1 -32.15 2.45
L -32.9 9.85
Q -22.55 14.4 -12.05 10.55 -7.65 -3.4 -10.15 -17.25 -11.8 -18.2 -13.9 -17.85 -18.15 -17.9 -22.35 -15.25 -26.5 -12.6 -29.1 -7.35 Z"/>
</defs>

<g transform="matrix( 3.771270751953125, -1.1754608154296875, 1.1117706298828125, 3.5668182373046875, 288.15,415.45) ">
<g transform="matrix( 1, 0, 0, 1, 0,0) ">
<use xlink:href="#Duplicate_Items_Folder_foot_copy_3_0_Layer0_0_FILL"/>

<use xlink:href="#Duplicate_Items_Folder_foot_copy_3_0_Layer0_0_1_STROKES"/>
</g>
</g>

<g transform="matrix( 3.6493682861328125, 1.2706756591796875, -1.3525238037109375, 3.8834686279296875, 251.7,354.4) ">
<g transform="matrix( 1, 0, 0, 1, 0,0) ">
<use xlink:href="#Duplicate_Items_Folder_arm__copy_4_0_Layer0_0_FILL"/>

<use xlink:href="#Duplicate_Items_Folder_arm__copy_4_0_Layer0_0_1_STROKES"/>
</g>
</g>

<g transform="matrix( 4.489471435546875, 0, 0, 4.489471435546875, 330.35,347.15) ">
<g transform="matrix( 1, 0, 0, 1, 0,0) ">
<use xlink:href="#Duplicate_Items_Folder_body_front_copy_4_0_Layer2_0_FILL"/>

<use xlink:href="#Duplicate_Items_Folder_body_front_copy_4_0_Layer2_0_1_STROKES"/>
</g>

<g transform="matrix( 1, 0, 0, 1, 0,0) ">
<use xlink:href="#Duplicate_Items_Folder_body_front_copy_4_0_Layer1_0_FILL"/>

<use xlink:href="#Duplicate_Items_Folder_body_front_copy_4_0_Layer1_0_1_STROKES"/>
</g>

<g transform="matrix( 1, 0, 0, 1, 0,0) ">
<use xlink:href="#Duplicate_Items_Folder_body_front_copy_4_0_Layer0_0_FILL"/>

<use xlink:href="#Duplicate_Items_Folder_body_front_copy_4_0_Layer0_0_1_STROKES"/>
</g>
</g>

<g transform="matrix( 4.1208343505859375, -1.1308441162109375, 1.079315185546875, 3.9331207275390625, 400.6,435.75) ">
<g transform="matrix( 1, 0, 0, 1, 0,0) ">
<use xlink:href="#Duplicate_Items_Folder_foot_copy_3_0_Layer0_0_FILL"/>

<use xlink:href="#Duplicate_Items_Folder_foot_copy_3_0_Layer0_0_1_STROKES"/>
</g>
</g>

<g transform="matrix( 4.1407318115234375, -1.243255615234375, 1.3228912353515625, 4.40667724609375, 413.25,319.45) ">
<g transform="matrix( 1, 0, 0, 1, 0,0) ">
<use xlink:href="#Duplicate_Items_Folder_arm__copy_4_0_Layer0_0_FILL"/>

<use xlink:href="#Duplicate_Items_Folder_arm__copy_4_0_Layer0_0_1_STROKES"/>
</g>
</g>

<g transform="matrix( 5.4984283447265625, -0.55517578125, 0.544036865234375, 5.38812255859375, 315.8,185.95) ">
<g transform="matrix( 1, 0, 0, 1, 0,0) ">
<use xlink:href="#Duplicate_Items_Folder_head_copy_5_0_Layer4_0_FILL"/>

<use xlink:href="#Duplicate_Items_Folder_head_copy_5_0_Layer4_0_1_STROKES"/>
</g>

<g transform="matrix( 1, 0, 0, 1, 0,0) ">
<use xlink:href="#Duplicate_Items_Folder_head_copy_5_0_Layer3_0_FILL"/>

<use xlink:href="#Duplicate_Items_Folder_head_copy_5_0_Layer3_0_1_STROKES"/>
</g>

<g transform="matrix( 1, 0, 0, 1, 0,0) ">
<use xlink:href="#Duplicate_Items_Folder_head_copy_5_0_Layer2_0_FILL"/>

<use xlink:href="#Duplicate_Items_Folder_head_copy_5_0_Layer2_0_1_STROKES"/>
</g>

<g transform="matrix( 1, 0, 0, 1, 0,0) ">
<use xlink:href="#Duplicate_Items_Folder_head_copy_5_0_Layer1_0_FILL"/>

<use xlink:href="#Duplicate_Items_Folder_head_copy_5_0_Layer1_0_1_STROKES"/>
</g>

<g transform="matrix( 1, 0, 0, 1, 0,0) ">
<use xlink:href="#Duplicate_Items_Folder_head_copy_5_0_Layer0_0_FILL"/>
</g>
</g>
</svg>
