
<svg xmlns="http://www.w3.org/2000/svg" version="1.1" xmlns:xlink="http://www.w3.org/1999/xlink" preserveAspectRatio="none" x="0px" y="0px" width="560px" height="544px" viewBox="0 0 560 544">
<defs>
<g id="Duplicate_Items_Folder_foot_copy_0_Layer0_0_FILL">
<path fill="#C7BCBE" stroke="none" d="
M 5.05 10.1
Q 2.75 9.2 1.2 10.85 4.25 14.65 3.45 18.3 3.5 18.25 3.55 18.25 7.55 19.85 10.05 17.95 9.4 12.65 5.1 10.2 5.05 10.15 5.05 10.1
M 5.1 11.7
Q 5.35 11.2 5.75 11.5 6.5 12.25 6.6 13.8 6.15 14.4 5.5 13.9 4.45 14.35 3.7 12.85
L 3.65 12.75
Q 4 11.2 5.1 11.7
M 1.2 10.85
L 1.1 10.85
Q -5.45 9.15 -7.4 14.35
L -7 14.7
Q -2.5 19.75 3.45 18.3 4.25 14.65 1.2 10.85
M -1.6 12.05
Q -1.15 11.55 -0.45 11.85 0.8 12.6 1 14.15 0.25 14.75 -0.9 14.25
L -0.95 14.25
Q -2.7 14.7 -4.05 13.2
L -4.2 13.1
Q -3.6 11.55 -1.65 12.05
L -1.6 12.05 Z"/>

<path fill="#F0E8E9" stroke="none" d="
M 5.75 11.5
Q 5.35 11.2 5.1 11.7 4 11.2 3.65 12.75
L 3.7 12.85
Q 4.45 14.35 5.5 13.9 6.15 14.4 6.6 13.8 6.5 12.25 5.75 11.5
M -0.45 11.85
Q -1.15 11.55 -1.6 12.05
L -1.65 12.05
Q -3.6 11.55 -4.2 13.1
L -4.05 13.2
Q -2.7 14.7 -0.95 14.25
L -0.9 14.25
Q 0.25 14.75 1 14.15 0.8 12.6 -0.45 11.85 Z"/>

<path fill="#F5EDE7" stroke="none" d="
M 2.3 -15.6
Q 2.25 -16.1 0.85 -17.4
L -0.5 -17.6
Q -7.65 -18.4 -11.15 -11.2 -11.25 -5.05 -8.1 -0.3 -9.35 3.4 -7.15 6.55 -10.25 8.95 -10.25 12.15
L -7.4 14.35
Q -5.45 9.15 1.1 10.85
L 1.2 10.85
Q 2.75 9.2 5.05 10.1 2.8 6.4 4.3 2.15 1.1 5.8 -4.35 2.1 1.1 5.8 4.3 2.15 8.2318359375 -2.5537109375 2.45 -14.5 2.4 -15.05 2.3 -15.6 Z"/>
</g>

<g id="Duplicate_Items_Folder_arm__0_Layer0_0_FILL">
<path fill="#CC0000" stroke="none" d="
M -3.6 2.05
Q -3.70078125 2.5138671875 -3.95 3 -3.746484375 2.8857421875 -3.65 2.7 -3.423828125 2.356640625 -3.6 2.05
M -3.95 3
Q -3.70078125 2.5138671875 -3.6 2.05 -3.7103515625 1.7333984375 -4.2 1.45 -5.1984375 0.95 -6.15 0.8 -7.1 0.7 -8.25 1.15 -9.4 1.6 -10 2.3 -10.171875 2.5150390625 -10.3 2.7 -10.8197265625 2.5427734375 -11.4 2.75 -12.05 3 -12.35 3.7 -12.5958984375 4.38828125 -10.7 5.55 -12.5111328125 6.0625 -11.05 8.75 -9.592578125 11.478125 -9.95 13.35 -10.3 15.28125 -9.6 14.8 -8.9052734375 14.306640625 -8.1 13.95 -7.25 13.65 -7.25 12.1 -7.25 10.6 -8.1 8.75 -8.7576171875 7.2294921875 -9.65 6.2 -9.1126953125 5.945703125 -8.9 5.35 -8.710546875 4.8193359375 -8.9 4.2 -8.024609375 4.2876953125 -6.05 3.85 -4.5205078125 3.546875 -3.95 3 Z"/>

<path fill="#F5EDE7" stroke="none" d="
M -3.45 -21.15
Q -11.05 -30.95 -20.95 -25.2 -23.75 -12.65 -17.5 0.75 -19.25 4.8 -19.45 7.55 -19.7 10.25 -17.75 12.75
L -14.7 15
Q -13.6 15.4 -13 14.95 -16 11.1 -14.45 9.1 -16 11.1 -13 14.95
L -13 15.05
Q -13.25 15.7 -12.05 16.2 -11.1076171875 16.29921875 -11 16.15 -5.45 14.3 -6.75 11.1 -8.25 7.7 -8.65 4.9
L -4.15 3.55
Q -4.0228515625 3.284375 -3.95 3 -4.5205078125 3.546875 -6.05 3.85 -8.024609375 4.2876953125 -8.9 4.2 -8.710546875 4.8193359375 -8.9 5.35 -9.1126953125 5.945703125 -9.65 6.2 -8.7576171875 7.2294921875 -8.1 8.75 -7.25 10.6 -7.25 12.1 -7.25 13.65 -8.1 13.95 -8.9052734375 14.306640625 -9.6 14.8 -10.3 15.28125 -9.95 13.35 -9.592578125 11.478125 -11.05 8.75 -12.5111328125 6.0625 -10.7 5.55 -12.5958984375 4.38828125 -12.35 3.7 -12.05 3 -11.4 2.75 -10.8197265625 2.5427734375 -10.3 2.7 -10.171875 2.5150390625 -10 2.3 -9.4 1.6 -8.25 1.15 -7.1 0.7 -6.15 0.8 -5.1984375 0.95 -4.2 1.45 -3.7103515625 1.7333984375 -3.6 2.05 -2.9173828125 -0.3306640625 -4.5 -1.45 -4.55 -1.5 -4.55 -1.6
L -8.5 -1.1 -7.05 -6.15
Q -5.7 -11.75 -4.25 -14.35 -2.9 -17 -3.05 -19.3 -3.1 -20.4 -3.45 -21.15 Z"/>
</g>

<g id="Duplicate_Items_Folder_body_front_copy_2_0_Layer3_0_FILL">
<path fill="#F5EDE7" stroke="none" d="
M 43.25 17.1
Q 47.4 15.65 48.8 13.1 50.1 10.6 50.9 10
L 48.75 9.1
Q 48.7 10.35 45.5 12.8 42.05 15.6 36.35 15.4 31.7 15.35 25.4 13.85 19.05 12.25 14.25 7.4 11.8 5 10.35 2.6
L 10 8.45
Q 12.45 10.15 17.4 13.1 22.4 16.1 26.65 17.65 30.85 19.1 35 18.85 39.1 18.6 43.25 17.1 Z"/>

<path fill="#ECB5A9" stroke="none" d="
M 51.05 -1.8
Q 49.75 -8.6 44.9 -10.2
L 45.75 -6.2
Q 42.9 -9.75 38.8 -8.65
L 40.95 -7.5
Q 43.15 -5.95 43.35 -3.75 43.55 -1.9 42.8 0.45 44.1 2.25 42.8 4.5 41.45 6.75 43.95 8.25 46.45 9.75 47.65 8.15
L 48.7 8.85
Q 48.75 8.95 48.75 9.1
L 50.9 10
Q 51.4 9.6 51.9 9.45 54.05 9.1 53.65 3.8 53.5 1.1 52.9 -1.55 51.5 2.5 51.05 -1.8 Z"/>
</g>

<g id="Duplicate_Items_Folder_body_front_copy_2_0_Layer2_0_FILL">
<path fill="#F5EDE7" stroke="none" d="
M 7.7 10.85
Q 8.4 9.65 11.65 1.55 14.45 -5.9 14.1 -11.55 -5 -5.15 -26.35 -5.6 -25.75 -2 -24.85 1.85 -23.05 10.2 -17.15 15.75 -13.2 18.8 -6.9 18.55 -6.15 18.45 -5.45 18.45 -3.75 18.3 -1.95 18.1 0.7 17.55 3.55 16.6 6.25 15.45 7.7 10.85 Z"/>

<path fill="#EDDED3" stroke="none" d="
M 5.65 -26.5
Q 2.3 -27.7 1.7 -27.85 0.3 -28.2 -0.8 -28.4 -1.35 -28.55 -1.95 -28.65 -6.2 -29.65 -7.95 -29.45 -10.35 -29.45 -11.4 -29.1 -12.55 -28.8 -13.4 -28.45 -14.45 -28.3 -16.35 -27.65 -18.35 -27.2 -19.9 -26.35 -21.55 -25.65 -23.75 -23.25 -26.05 -20.85 -26.6 -18.25 -27.2 -15.7 -27.05 -12.5 -27 -9.4 -26.35 -5.6 -5 -5.15 14.1 -11.55 14.05 -11.65 14.05 -11.75 13.65 -17.4 12.9 -18.85 12.15 -20.55 10.5 -23 8.7 -25.6 5.65 -26.5 Z"/>
</g>

<g id="Duplicate_Items_Folder_body_front_copy_2_0_Layer1_0_FILL">
<path fill="#E0C7B4" stroke="none" d="
M -1.2 -13.55
Q -2.016015625 -14.033984375 -3.75 -16.05 -5.54140625 -18.04609375 -10 -18 -10.1349609375 -18.0283203125 -10.35 -17.95 -11.1333984375 -17.922265625 -13.6 -17.25 -16.947265625 -16.8521484375 -18.3 -13.9 -18.388671875 -13.7 -18.45 -13.5
L -18.55 -13.7
Q -22.0494140625 -9.041015625 -21.1 -4.8
L -18.7 -7.45
Q -19.0638671875 -6.38828125 -19.3 -4.95 -19.2853515625 -4.8626953125 -19.3 -4.8 -7.669921875 -1.4935546875 2 -8.95 -0.5455078125 -13.1119140625 -1.2 -13.55 Z"/>

<path fill="#EDDED3" stroke="none" d="
M 1.75 -3.1
Q 1.5689453125 -4.1994140625 1.35 -4.95 1.3021484375 -5.1505859375 1.3 -5.2
L 4.65 -2.95 2.05 -8.85
Q 2.0205078125 -8.8986328125 2 -8.95 -7.669921875 -1.4935546875 -19.3 -4.8 -19.598828125 -2.9830078125 -19.75 -2.25 -20.07109375 -1.550390625 -19.9 -1.55 -19.7732421875 -1.5951171875 -20.25 1 -20.868359375 3.372265625 -20.15 8.05
L -19.3 5.45
Q -18.9525390625 7.0890625 -18.1 8.55 -18.1509765625 8.6984375 -18.1 8.75 -17.5521484375 9.723046875 -16.45 10.5 -14.0689453125 12.2763671875 -9 12.7 -8.9240234375 12.6521484375 -8.8 12.7 -7.7744140625 12.7009765625 -6.85 12.75 -0.8734375 12.608203125 0.85 9.15 0.8998046875 8.95 1.05 8.75 1.7681640625 6.9630859375 2.1 4.8
L 3.35 8.15
Q 3.9361328125 5.5025390625 3.9 3.35 3.7689453125 -0.5521484375 1.75 -3.1 Z"/>
</g>

<g id="Duplicate_Items_Folder_body_front_copy_2_0_Layer0_0_FILL">
<path fill="#CC0000" stroke="none" d="
M -8.65 3.65
Q -8.4453125 3.1515625 -8.45 2.7 -8.45 2.3 -8.7 2 -8.95 1.7 -9.3 1.7 -9.65 1.7 -9.9 2 -10.15 2.3 -10.15 2.7 -10.1546875 3.1484375 -9.85 3.7 -9.4859375 4.2546875 -9.15 4.2 -8.8140625 4.1453125 -8.65 3.65
M -4.45 -0.25
Q -3.5681640625 -2.7400390625 -3.6 -5.25 -3.594140625 -7.703515625 -4.6 -9.4 -5.5478515625 -11.0943359375 -6.9 -11.1 -8.25703125 -11.1171875 -8.2 -9.55 -8.1431640625 -7.9830078125 -9.3 -5.45 -10.45234375 -2.905859375 -9.45 -1.2 -8.4560546875 0.5033203125 -6.9 1.35 -5.28203125 2.23984375 -4.45 -0.25
M -13.95 -7.35
Q -13.7828125 -6.3685546875 -14.25 -5.45 -14.6611328125 -4.5201171875 -13.15 -4.55 -11.59375 -4.594921875 -11.8 -5.6 -12.013671875 -6.6017578125 -12.35 -7.45 -12.687109375 -8.3001953125 -12.6 -8.85 -12.504296875 -9.4 -13.2 -9.4 -13.844921875 -9.403125 -14 -8.85 -14.1146484375 -8.291796875 -13.95 -7.35 Z"/>
</g>

<g id="Duplicate_Items_Folder_head_copy_3_0_Layer8_0_FILL">
<path fill="#F8CAC4" stroke="none" d="
M -26.7 -1.3
Q -25.8 -0.35 -24.25 -0.1 -22.75 0.2 -21.6 -0.2 -20.4 -0.65 -20.25 -1.55 -20.1 -2.4 -21.05 -3.35 -21.9 -4.25 -23.4 -4.55 -24.9 -4.85 -26.1 -4.4 -27.25 -3.9 -27.4 -3 -27.55 -2.1 -26.7 -1.3 Z"/>

<path fill="#797979" stroke="none" d="
M -6.15 -29.1
Q -6.7 -29.5 -7.25 -29.8 -6.7 -19.75 -11.55 -18.15 -10.9 -17.65 -10.3 -17.25
L -8.5 -16.75
Q -6.45 -16.55 -5.1 -17.75 -3.8 -18.8 -3.55 -21.6 -3.4 -24.3 -3.8 -25.75 -3.7 -26.1 -3.8 -26.65 -4.15 -27.6 -6.15 -29.1 Z"/>

<path fill="#999999" stroke="none" d="
M -9.4 -39.9
Q -8.55 -41.25 -7.75 -42.1 -9.25 -41.8 -10.95 -41.05 -14.15 -39.5 -15.55 -36.65 -17.55 -32.05 -18.15 -30.2 -19.05 -26.8 -17.55 -24.35
L -17.55 -24.25
Q -15.8 -21.75 -13 -19.35 -12.1 -18.7 -11.55 -18.15 -6.7 -19.75 -7.25 -29.8 -9.5 -31.5 -9.95 -32.2 -11.45 -33.65 -11.1 -35.65 -10.95 -37.5 -9.4 -39.9 Z"/>
</g>

<g id="Duplicate_Items_Folder_head_copy_3_0_Layer7_0_FILL">
<path fill="#ECB5A9" stroke="none" d="
M -13.4 -13.95
Q -12.35 -15.6 -10.45 -16.3 -10.8 -17.95 -14.25 -19.95
L -16.85 -20.75
Q -15.8 -18.25 -16.75 -16.55 -15.25 -15.2 -13.4 -13.95
M -16.9 -20.9
L -15.85 -21.75
Q -16.65 -22.4 -17.45 -22.85 -16.85 -21.7 -16.9 -20.9 Z"/>

<path fill="#F5EDE7" stroke="none" d="
M -20.45 -25.7
Q -20.6068359375 -25.7203125 -20.75 -25.75 -19.0197265625 -23.79921875 -17.45 -22.85 -16.65 -22.4 -15.85 -21.75
L -16.9 -20.9 -17.05 -20.8 -16.85 -20.75 -14.25 -19.95
Q -10.8 -17.95 -10.45 -16.3 -10.15 -16.7 -8.95 -18.5 -7.65 -20.35 -8.55 -21.65
L -12.85 -23.75
Q -15.9 -24.9 -17.75 -25.35 -18.8 -25.55 -20.45 -25.7 Z"/>

<path fill="#D09C91" stroke="none" d="
M -22.1 -25.7
Q -22.0783203125 -24.8783203125 -22.05 -24.85
L -21.85 -24.15
Q -21.15 -20.35 -16.75 -16.55 -15.8 -18.25 -16.85 -20.75
L -17.05 -20.8 -16.9 -20.9
Q -16.85 -21.7 -17.45 -22.85 -19.0197265625 -23.79921875 -20.75 -25.75 -21.3888671875 -26.45 -22.05 -27.3 -22.0716796875 -26.26171875 -22.1 -25.7 Z"/>
</g>

<g id="Duplicate_Items_Folder_head_copy_3_0_Layer6_0_FILL">
<path fill="#F5EDE7" stroke="none" d="
M 18.8 -24.45
Q 14.948828125 -29.0546875 7.85 -30.8 0.75234375 -32.5076171875 -2.6 -31.95 -5.950390625 -31.3953125 -9.6 -29.25 -13.4 -27.1 -14.9 -21.4 -16.4 -15.75 -20.3 -13.45 -24.2 -11.2 -25.45 -7.6 -22.95 3.85 -14 4.75 -5.35 13.15 12.1 3.75 20.2 -2.55 21 -8.45
L 21.9 -13.95
Q 22.69921875 -19.83671875 18.8 -24.45
M 2.35 -29.15
Q 6.7431640625 -29.3341796875 9.6 -27.2 12.5021484375 -25.05546875 12.3 -23.15 12.1 -21.25 8.6 -24.65 5 -28.1 0.9 -27.2 -3.25 -26.35 -5.85 -24.9 -8.5 -23.4 -8.3 -25.3 -8.15234375 -27.1947265625 -5.1 -28.1 -1.993359375 -28.966015625 2.35 -29.15 Z"/>

<path fill="#FFFFFF" stroke="none" d="
M 9.6 -27.2
Q 6.7431640625 -29.3341796875 2.35 -29.15 -1.993359375 -28.966015625 -5.1 -28.1 -8.15234375 -27.1947265625 -8.3 -25.3 -8.5 -23.4 -5.85 -24.9 -3.25 -26.35 0.9 -27.2 5 -28.1 8.6 -24.65 12.1 -21.25 12.3 -23.15 12.5021484375 -25.05546875 9.6 -27.2 Z"/>
</g>

<g id="Duplicate_Items_Folder_head_copy_3_0_Layer5_0_FILL">
<path fill="#ECB5A9" stroke="none" d="
M -22.95 5.5
Q -23.4677734375 5.5400390625 -24.6 4.95 -26.3462890625 4.0984375 -26.7 4 -27.0541015625 3.971875 -27.45 3.85 -27.4826171875 3.865625 -27.55 3.85 -26.85 4.25859375 -26.1 4.6 -25.9 4.7 -25.6 4.85
L -25.65 4.9 -23 5.9
Q -23.0052734375 5.853515625 -23 5.8 -22.984765625 5.646875 -22.95 5.5
M -2.5 -3.15
Q -2.6 -3.15 -2.75 -3.05 -2.6 -3.05 -2.5 -3 -2.5 -3.05 -2.5 -3.15
M -32.2 -8.85
Q -33.55 -8.3 -33.2 -6.35 -32.8595703125 0.374609375 -27.95 3.55 -28.2689453125 3.346875 -28.7 2.9 -29.5458984375 2.09140625 -30.25 1.2 -30.953515625 0.3595703125 -29.25 -0.05 -27.5576171875 -0.458984375 -27.85 0.65 -28.139453125 1.754296875 -26.65 1.35 -25.1580078125 0.99921875 -25 1.55 -24.4931640625 1.7025390625 -25.1 2.7 -25.6974609375 3.6873046875 -24.2 4.15 -22.7068359375 4.62265625 -22.45 4.95 -22.1154296875 4.8126953125 -21.95 4.95 -21.79375 5.1294921875 -21.8 5.55 -21.7513671875 6.0181640625 -21.25 6.25 -20.699609375 6.5439453125 -21.1 6.85 -21.45 7.15 -21.95 7.1 -22.3763671875 7.0525390625 -22.75 6.7 -23.0119140625 6.7640625 -23.9 6.9 -24.7869140625 7.030078125 -25.55 7.05 -26.3103515625 7.1169921875 -26.55 6.75 -26.7466796875 6.4443359375 -26.75 6.2 -26.7060546875 6.001953125 -26.3 5.45 -25.8818359375 4.9435546875 -25.25 5.25 -24.615234375 5.605078125 -23.4 5.9 -23.169921875 5.9494140625 -23 6 -23.001953125 5.94921875 -23 5.9
L -25.65 4.9 -27.15 5.7
Q -28.4 6.7 -26.7 7.8
L -19.8 8.4
Q -17 10.3 -13.15 9.7
L -14.15 9.05
Q -10.95 2.55 -12.6 1.9
L -12.65 1.85
Q -14.7521484375 -4.609375 -18.4 -7 -23.15 -12.3 -24.4 -11.4 -26.95 -9.4 -27.7 -9.6 -28.65 -9.95 -29.85 -9.8 -30.9 -9.55 -32.2 -8.85
M -30.2 -7.65
Q -29.1 -8.15 -27.65 -7.6 -26.4 -7.2 -25.45 -6.5 -25.3 -6.45 -25.15 -6.3 -24.15 -5.6 -24.25 -4.7
L -24.25 -4.65
Q -24.65 -4.8 -24.95 -4.65 -25.05 -4.6 -25.05 -4.45 -25.35 -3.55 -24.6 -2.95 -24.3 -3.25 -23.8 -3.2 -23.6 -3.25 -23.4 -3.15 -22.6 -3.15 -21.75 -2.35 -21.3 -2.1 -21 -1.7 -20.75 -1.45 -20.5 -1.15 -20.3 -0.85 -20.25 -0.7 -20.2 -0.25 -20.55 0 -21 0.3 -21.35 0.3 -22.1 0.45 -22.6 0.1 -22.8 -0.05 -22.9 -0.1 -23.55 -0.55 -24.1 -1.2 -24.8 -2.25 -25.25 -3.3
L -25.25 -3.35
Q -25.85 -3.1 -26.2 -3.65 -26.6 -4.2 -27.95 -5.45 -29.35 -6.65 -30.35 -6.9 -31.4 -7.1 -30.2 -7.65
M -22.6 1.45
Q -21.55 2.4 -20.45 1.85 -20.3 1.9 -20.1 1.7 -20.3 1.9 -20.45 1.85 -21.55 2.4 -22.6 1.45 Z"/>

<path fill="#CC0000" stroke="none" d="
M -25.1 2.7
Q -24.4931640625 1.7025390625 -25 1.55 -25.1580078125 0.99921875 -26.65 1.35 -28.139453125 1.754296875 -27.85 0.65 -27.5576171875 -0.458984375 -29.25 -0.05 -30.953515625 0.3595703125 -30.25 1.2 -29.5458984375 2.09140625 -28.7 2.9 -28.2689453125 3.346875 -27.95 3.55 -27.738671875 3.71640625 -27.55 3.85 -27.4826171875 3.865625 -27.45 3.85 -27.0541015625 3.971875 -26.7 4 -26.3462890625 4.0984375 -24.6 4.95 -23.4677734375 5.5400390625 -22.95 5.5 -22.984765625 5.646875 -23 5.8 -23.0052734375 5.853515625 -23 5.9 -23.001953125 5.94921875 -23 6 -23.169921875 5.9494140625 -23.4 5.9 -24.615234375 5.605078125 -25.25 5.25 -25.8818359375 4.9435546875 -26.3 5.45 -26.7060546875 6.001953125 -26.75 6.2 -26.7466796875 6.4443359375 -26.55 6.75 -26.3103515625 7.1169921875 -25.55 7.05 -24.7869140625 7.030078125 -23.9 6.9 -23.0119140625 6.7640625 -22.75 6.7 -22.3763671875 7.0525390625 -21.95 7.1 -21.45 7.15 -21.1 6.85 -20.699609375 6.5439453125 -21.25 6.25 -21.7513671875 6.0181640625 -21.8 5.55 -21.79375 5.1294921875 -21.95 4.95 -22.1154296875 4.8126953125 -22.45 4.95 -22.7068359375 4.62265625 -24.2 4.15 -25.6974609375 3.6873046875 -25.1 2.7 Z"/>

<path fill="#E0C7B4" stroke="none" d="
M -2.5 -3
Q -2.6 -3.05 -2.75 -3.05 -2.8 -3.05 -5.3 0.15 -7.85 3.3 -12.6 1.9 -10.95 2.55 -14.15 9.05 -7.4 12.5 0.1 8.25 5.8 10.4 12.1 6.35
L 14.1 10.9 15.5 5.9 21.1 5.5
Q 17.55 3.15 18.6 -3.05 8.2 6.9 -2.5 -3 Z"/>

<path fill="#A8422C" stroke="none" d="
M -23.4 -3.15
Q -23.6 -3.25 -23.8 -3.2 -24.3 -3.25 -24.6 -2.95
L -24.6 -2.85 -24.45 -2.05
Q -24.35 -2.05 -24.3 -2.05
L -24.3 -2
Q -23.8 -1.3 -23.1 -0.45 -22.55 -0.15 -22.05 0.15 -21.9 0.2 -21.75 0.2 -21.55 0.25 -21.35 0.3 -21 0.3 -20.55 0 -20.2 -0.25 -20.25 -0.7 -20.3 -0.85 -20.5 -1.15 -20.75 -1.45 -21 -1.7 -21.3 -2.1 -21.75 -2.35 -22.6 -3.15 -23.4 -3.15 Z"/>

<path fill="#F8CAC4" stroke="none" d="
M -27.65 -7.6
Q -29.1 -8.15 -30.2 -7.65 -31.4 -7.1 -30.35 -6.9 -29.35 -6.65 -27.95 -5.45 -26.6 -4.2 -26.2 -3.65 -25.85 -3.1 -25.25 -3.35 -25.3 -3.35 -25.35 -3.4
L -25.4 -4.4 -25.35 -4.45
Q -25.15 -4.65 -24.95 -4.65 -24.65 -4.8 -24.25 -4.65
L -24.25 -4.7
Q -24.15 -5.6 -25.15 -6.3 -25.3 -6.45 -25.45 -6.5 -26.4 -7.2 -27.65 -7.6 Z"/>
</g>

<g id="Duplicate_Items_Folder_head_copy_3_0_Layer4_0_FILL">
<path fill="#CC0000" stroke="none" d="
M 5.8 -0.45
Q 5.2953125 -2.6869140625 4.65 -3.8 4.0578125 -4.91328125 3.7 -4.7 3.333984375 -4.4955078125 2.75 -4.3 1.3634765625 -6.0703125 -0.75 -6.3 -1.444140625 -6.36171875 -2.1 -6.25 -3.1203125 -7.3943359375 -4.6 -7.55 -6.45 -7.75 -7.95 -6.15 -9.401953125 -4.5 -9.7 -2 -9.9423828125 0.548046875 -9.25 3.8 -8.5634765625 7.0556640625 -6 4.25 -5.873046875 4.4654296875 -5.75 4.65 -4.3 6.75 -2.05 6.95 0.25 7.2 2.05 5.45 3.0294921875 4.5234375 3.55 3.3 4.1533203125 5.4791015625 5.25 3.65 6.3537109375 1.8310546875 5.8 -0.45 Z"/>
</g>

<g id="Duplicate_Items_Folder_head_copy_3_0_Layer3_0_FILL">
<path fill="#999999" stroke="none" d="
M 40.25 -16.75
Q 35.553125 -10.596875 35.65 -15.9 32.3 -13.603125 34.6 -19.1 33.274609375 -18.115625 31.45 -18.15 30.4 -18.05 26.95 -18.85 17.2 -10.1 19.8 -3.75 20.8 -3.6 21.95 -3.4 26.7 -2.85 30.4 -3.3
L 30.4 -3.35
Q 34.2 -3.9 36.5 -8.15 37.8 -10.5 40.25 -16.7
L 40.25 -16.75 Z"/>

<path fill="#797979" stroke="none" d="
M 17.45 -15.3
Q 16.3 -13.05 15.75 -10.4 15.2 -7.8 15.95 -5.55
L 18 -4.25
Q 18.85 -3.9 19.8 -3.75 17.2 -10.1 26.95 -18.85 26.3 -19 25.4 -19.2 22.4 -19.75 21.1 -19.25 20.5 -18.9 20.4 -18.5 18.6 -17.55 17.45 -15.3 Z"/>

<path fill="#CC0000" stroke="none" d="
M 38.9 -29.25
Q 38.65 -27.8 38.25 -25.85 37.2 -21.9 35.7 -20.15 35.2015625 -19.5115234375 34.6 -19.1 32.3 -13.603125 35.65 -15.9 35.553125 -10.596875 40.25 -16.75 41.894921875 -20.4677734375 40.55 -25.25 39.85 -27.75 38.9 -29.25 Z"/>
</g>

<g id="Duplicate_Items_Folder_head_copy_3_0_Layer2_0_FILL">
<path fill="#ECB5A9" stroke="none" d="
M 20.5 -3.05
Q 21 -3.7 22.25 -4.1 21.3 -4.25 20.25 -4.35
L 20.5 -3.05
M 11.9 -4.2
Q 13.55 -2.3 14.65 -0.2 15.45 0 17.45 0.05 17.9 -1.85 20.35 -2.95
L 18 -4.2
Q 14.05 -5.1 11.9 -4.2 Z"/>

<path fill="#D09C91" stroke="none" d="
M 22.25 -4.1
Q 21 -3.7 20.5 -3.05
L 20.55 -2.85 20.35 -2.95
Q 17.9 -1.85 17.45 0.05 23.2 0.3 26.35 -2
L 27 -2.4
Q 27.026953125 -2.373046875 27.55 -3 28.02109375 -3.4830078125 28.85 -4.45 27.592578125 -4.1740234375 26.45 -4.05 23.983203125 -3.71875 22.25 -4.1 Z"/>

<path fill="#F5EDE7" stroke="none" d="
M 19.45 -8.55
L 14.95 -9.4
Q 13.346875 -9.062890625 12.65 -6.9 11.953125 -4.687109375 11.9 -4.2 14.05 -5.1 18 -4.2
L 20.35 -2.95 20.55 -2.85 20.5 -3.05 20.25 -4.35
Q 21.3 -4.25 22.25 -4.1 23.983203125 -3.71875 26.45 -4.05 26.4435546875 -4.066796875 26.4 -4.1 25.05 -5.15 23.8 -6.15 22.55 -7.2 19.45 -8.55 Z"/>
</g>

<g id="Duplicate_Items_Folder_head_copy_3_0_Layer1_0_FILL">
<path fill="#FFFDF0" stroke="none" d="
M 4.85 -13.5
Q 1.65 -15.75 1.25 -15.75
L -5.45 -12.95
Q -8.05 -11.25 -9.3 -8.3 -11.25 -3.3 -6.45 -1.4 -6.45 -0.4 -0.7 -0.45 0.65 0.15 2.4 0.1
L 3.75 -0.15 2 -1.5 6.25 -1.8
Q 3.75 -3.9 3.8 -3.9 8 -6.45 7.3 -11.2
L 4.85 -13.5
M -0.65 -3.4
Q -8.4 -2.2 -6.95 -6.7 -5.45 -11.25 2.05 -10.25 3.05 -6.95 -0.65 -3.4 Z"/>

<path fill="#0099FF" stroke="none" d="
M -6.95 -6.7
Q -8.4 -2.2 -0.65 -3.4 3.05 -6.95 2.05 -10.25 -5.45 -11.25 -6.95 -6.7
M 0.3 -8.05
Q 0.4 -7.25 0 -6.7 -0.45 -6.15 -1.25 -6.1 -1.9 -5.85 -2.45 -6.25 -2.85 -6.7 -2.9 -7.35 -2.9 -8.15 -2.5 -8.75 -2.1 -9.2 -1.45 -9.45 -0.7 -9.45 -0.25 -9.15 0.3 -8.75 0.3 -8.05 Z"/>

<path fill="#FFFFFF" stroke="none" d="
M 0 -6.7
Q 0.4 -7.25 0.3 -8.05 0.3 -8.75 -0.25 -9.15 -0.7 -9.45 -1.45 -9.45 -2.1 -9.2 -2.5 -8.75 -2.9 -8.15 -2.9 -7.35 -2.85 -6.7 -2.45 -6.25 -1.9 -5.85 -1.25 -6.1 -0.45 -6.15 0 -6.7 Z"/>
</g>

<g id="Duplicate_Items_Folder_head_copy_3_0_Layer0_0_FILL">
<path fill="#FF3366" stroke="none" d="
M 4.9 -34.2
Q 3.06171875 -35.7294921875 0.8 -33.3 -0.094140625 -31.6072265625 1.45 -29.75
L -0.25 -24.65 0.55 -21.1 2.85 -25.2 8 -26.75
Q 10.195703125 -29.26328125 9.8 -32.2 8.5037109375 -36.0849609375 4.9 -34.2
M 5.25 -32.4
Q 5.2669921875 -32.3755859375 5.25 -32.35
L 5.3 -32.35
Q 5.456640625 -32.331640625 5.6 -32.3 5.6244140625 -32.3216796875 5.65 -32.35 6.2 -32.9 6.85 -32.85 7.55 -32.75 7.9 -32.1 8.3 -31.45 8.25 -30.6 8.15 -29.75 7.65 -29.2 7.221875 -28.7291015625 6.65 -28.75 6.484375 -28.46640625 6.25 -28.25 5.995703125 -27.9744140625 5.7 -27.85 5.7 -27.7923828125 5.7 -27.75 5.65 -27.4 5.35 -27.2 5.05 -26.95 4.6 -27 4.2 -27.05 3.95 -27.35 3.7 -27.6 3.7 -27.95 3.7169921875 -28.068359375 3.75 -28.2 3.622265625 -28.3166015625 3.5 -28.5 3 -29.25 3.1 -30.25 3.1203125 -30.4541015625 3.15 -30.65 2.9611328125 -30.9953125 3 -31.5 3.1 -32.15 3.5 -32.55 3.95 -32.95 4.4 -32.9 4.9 -32.85 5.25 -32.4 Z"/>

<path fill="#FF9999" stroke="none" d="
M 3.75 -28.2
Q 3.7169921875 -28.068359375 3.7 -27.95 3.7 -27.6 3.95 -27.35 4.2 -27.05 4.6 -27 5.05 -26.95 5.35 -27.2 5.65 -27.4 5.7 -27.75 5.7 -27.7923828125 5.7 -27.85 5.6697265625 -28.136328125 5.45 -28.4 5.2 -28.65 4.75 -28.7 4.35 -28.75 4.05 -28.55 3.8513671875 -28.3845703125 3.75 -28.2
M 5.25 -32.35
Q 5.2669921875 -32.3755859375 5.25 -32.4 4.9 -32.85 4.4 -32.9 3.95 -32.95 3.5 -32.55 3.1 -32.15 3 -31.5 2.9611328125 -30.9953125 3.15 -30.65 3.2216796875 -30.539453125 3.3 -30.45 3.65 -30 4.1 -29.95 4.6 -29.9 5 -30.25 5.45 -30.6 5.5 -31.25 5.5951171875 -31.868359375 5.25 -32.35 Z"/>

<path fill="#FF6699" stroke="none" d="
M 7.9 -32.1
Q 7.55 -32.75 6.85 -32.85 6.2 -32.9 5.65 -32.35 5.6244140625 -32.3216796875 5.6 -32.3 5.456640625 -32.331640625 5.3 -32.35
L 5.25 -32.35
Q 5.5951171875 -31.868359375 5.5 -31.25 5.45 -30.6 5 -30.25 4.6 -29.9 4.1 -29.95 3.65 -30 3.3 -30.45 3.2216796875 -30.539453125 3.15 -30.65 3.1203125 -30.4541015625 3.1 -30.25 3 -29.25 3.5 -28.5 3.622265625 -28.3166015625 3.75 -28.2 3.8513671875 -28.3845703125 4.05 -28.55 4.35 -28.75 4.75 -28.7 5.2 -28.65 5.45 -28.4 5.6697265625 -28.136328125 5.7 -27.85 5.995703125 -27.9744140625 6.25 -28.25 6.484375 -28.46640625 6.65 -28.75 7.221875 -28.7291015625 7.65 -29.2 8.15 -29.75 8.25 -30.6 8.3 -31.45 7.9 -32.1 Z"/>
</g>

<path id="Duplicate_Items_Folder_foot_copy_0_Layer0_0_1_STROKES" stroke="#000000" stroke-width="1" stroke-linejoin="round" stroke-linecap="round" fill="none" d="
M 4.3 2.15
Q 8.2318359375 -2.5537109375 2.45 -14.5 2.4 -15.05 2.325 -15.575 2.25 -16.1 0.85 -17.4
L -0.5 -17.6
Q -7.65 -18.4 -11.15 -11.2 -11.25 -5.05 -8.1 -0.3 -9.35 3.4 -7.15 6.55 -10.25 8.95 -10.25 12.15
L -7.4 14.35
Q -5.45 9.15 1.1 10.85
L 1.2 10.85
Q 2.75 9.2 5.05 10.1 2.8 6.4 4.3 2.15 1.1 5.8 -4.35 2.1
M 5.05 10.1
Q 5.05 10.15 5.1 10.2 9.4 12.65 10.05 17.95 7.55 19.85 3.55 18.25 3.5 18.25 3.45 18.3 -2.5 19.75 -7 14.7
L -7.4 14.35
M 3.45 18.3
Q 4.25 14.65 1.2 10.85"/>

<path id="Duplicate_Items_Folder_arm__0_Layer0_0_1_STROKES" stroke="#000000" stroke-width="1" stroke-linejoin="round" stroke-linecap="round" fill="none" d="
M -20.95 -25.2
Q -23.75 -12.65 -17.5 0.75 -19.25 4.8 -19.45 7.55 -19.7 10.25 -17.75 12.75
L -14.7 15
Q -13.6 15.4 -13 14.95 -16 11.1 -14.45 9.1
M -3.575 2.05
Q -2.9173828125 -0.3306640625 -4.5 -1.45 -4.55 -1.5 -4.55 -1.6
L -8.5 -1.1 -7.05 -6.15
Q -5.7 -11.75 -4.25 -14.35 -2.9 -17 -3.05 -19.3 -3.1 -20.4 -3.45 -21.15
M -13 14.95
L -13 15.05
Q -13.25 15.7 -12.05 16.2 -11.1076171875 16.29921875 -11 16.15 -5.45 14.3 -6.75 11.1 -8.25 7.7 -8.65 4.9
L -4.15 3.55
Q -4.0228515625 3.284375 -3.925 3.025 -3.70078125 2.5138671875 -3.575 2.05
M -11 16.15
Q -11.1015625 16.3 -11.3 16.3 -11.3 16.35 -12.05 16.2"/>

<path id="Duplicate_Items_Folder_body_front_copy_2_0_Layer3_0_1_STROKES" stroke="#000000" stroke-width="1" stroke-linejoin="round" stroke-linecap="round" fill="none" d="
M 48.75 9.1
Q 48.75 8.95 48.7 8.85
L 47.65 8.15
Q 46.45 9.75 43.95 8.25 41.45 6.75 42.8 4.5 44.1 2.25 42.8 0.45 43.55 -1.9 43.35 -3.75 43.15 -5.95 40.95 -7.5
L 38.8 -8.65
Q 42.9 -9.75 45.75 -6.2
L 44.9 -10.2
Q 49.75 -8.6 51.05 -1.8 51.5 2.5 52.9 -1.55 53.5 1.1 53.65 3.8 54.05 9.1 51.9 9.45 51.4 9.6 50.9 10 50.1 10.6 48.8 13.1 47.4 15.65 43.25 17.1 39.1 18.6 35 18.85 30.85 19.1 26.65 17.65 22.4 16.1 17.4 13.1 12.45 10.15 10 8.45
L 10.35 2.6
Q 11.8 5 14.25 7.4 19.05 12.25 25.4 13.85 31.7 15.35 36.35 15.4 42.05 15.6 45.5 12.8 48.7 10.35 48.75 9.1
L 47.9 8.8"/>

<path id="Duplicate_Items_Folder_body_front_copy_2_0_Layer2_0_1_STROKES" stroke="#000000" stroke-width="1.5" stroke-linejoin="round" stroke-linecap="round" fill="none" d="
M 14.1 -11.55
Q 14.05 -11.65 14.05 -11.75 13.65 -17.4 12.9 -18.85 12.15 -20.55 10.5 -23 8.7 -25.6 5.65 -26.5 2.3 -27.7 1.7 -27.85 0.3 -28.2 -0.8 -28.4 -1.35 -28.55 -1.95 -28.65 -6.2 -29.65 -7.95 -29.45 -10.35 -29.45 -11.4 -29.1 -12.55 -28.8 -13.4 -28.45 -14.45 -28.3 -16.35 -27.65 -18.35 -27.2 -19.9 -26.35 -21.55 -25.65 -23.75 -23.25 -26.05 -20.85 -26.6 -18.25 -27.2 -15.7 -27.05 -12.5 -27 -9.4 -26.35 -5.6
M 14.1 -11.55
Q 14.45 -5.9 11.65 1.55 8.4 9.65 7.7 10.85 6.25 15.45 3.55 16.6 0.7 17.55 -1.95 18.1 -3.75 18.3 -5.45 18.45 -6.15 18.45 -6.9 18.55 -13.2 18.8 -17.15 15.75 -23.05 10.2 -24.85 1.85 -25.75 -2 -26.35 -5.6"/>

<path id="Duplicate_Items_Folder_head_copy_3_0_Layer8_0_1_STROKES" stroke="#000000" stroke-width="1" stroke-linejoin="round" stroke-linecap="round" fill="none" d="
M -7.25 -29.8
Q -9.5 -31.5 -9.95 -32.2 -11.45 -33.65 -11.1 -35.65 -10.95 -37.5 -9.4 -39.9 -8.55 -41.25 -7.75 -42.1 -9.25 -41.8 -10.95 -41.05 -14.15 -39.5 -15.55 -36.65 -17.55 -32.05 -18.15 -30.2 -19.05 -26.8 -17.55 -24.35
L -17.55 -24.25
Q -15.8 -21.75 -13 -19.35 -12.1 -18.7 -11.55 -18.15
M -7.25 -29.8
Q -6.7 -29.5 -6.15 -29.1 -4.15 -27.6 -3.8 -26.65 -3.7 -26.1 -3.8 -25.75 -3.4 -24.3 -3.55 -21.6 -3.8 -18.8 -5.1 -17.75 -6.45 -16.55 -8.5 -16.75
L -10.3 -17.25
Q -10.9 -17.65 -11.55 -18.15"/>

<path id="Duplicate_Items_Folder_head_copy_3_0_Layer7_0_1_STROKES" stroke="#000000" stroke-width="1" stroke-linejoin="round" stroke-linecap="round" fill="none" d="
M -20.75 -25.725
Q -21.3888671875 -26.45 -22.05 -27.3 -22.0716796875 -26.26171875 -22.075 -25.675 -22.0783203125 -24.8783203125 -22.05 -24.85
L -21.85 -24.15
Q -21.15 -20.35 -16.75 -16.55
M -16.85 -20.75
L -17.05 -20.8 -16.9 -20.9
M -17.45 -22.85
Q -19.0197265625 -23.79921875 -20.75 -25.725 -20.6068359375 -25.7203125 -20.45 -25.7 -18.8 -25.55 -17.75 -25.35 -15.9 -24.9 -12.85 -23.75
L -8.55 -21.65
Q -7.65 -20.35 -8.95 -18.5 -10.15 -16.7 -10.45 -16.3 -12.35 -15.6 -13.4 -13.95 -15.25 -15.2 -16.75 -16.55
M -22.075 -25.675
Q -22.1619140625 -25.616796875 -22.2 -25.55 -22.35 -25.3 -22.05 -27.3
M -16.9 -20.9
L -15.85 -21.75
Q -16.65 -22.4 -17.45 -22.85
M -10.45 -16.3
Q -10.8 -17.95 -14.25 -19.95
L -16.85 -20.75"/>

<path id="Duplicate_Items_Folder_head_copy_3_0_Layer6_0_1_STROKES" stroke="#000000" stroke-width="1" stroke-linejoin="round" stroke-linecap="round" fill="none" d="
M 7.85 -30.775
Q 0.75234375 -32.5076171875 -2.6 -31.95 -5.950390625 -31.3953125 -9.6 -29.25 -13.4 -27.1 -14.9 -21.4 -16.4 -15.75 -20.3 -13.45 -24.2 -11.2 -25.45 -7.6 -22.95 3.85 -14 4.75 -5.35 13.15 12.1 3.75 20.2 -2.55 21 -8.45
L 21.9 -13.95
Q 22.69921875 -19.83671875 18.825 -24.45 14.948828125 -29.0546875 7.85 -30.775 Z"/>

<path id="Duplicate_Items_Folder_head_copy_3_0_Layer5_0_1_STROKES" stroke="#000000" stroke-width="1" stroke-linejoin="round" stroke-linecap="round" fill="none" d="
M -18.4 -7
Q -23.15 -12.3 -24.4 -11.4 -26.95 -9.4 -27.7 -9.6 -28.65 -9.95 -29.85 -9.8 -30.9 -9.55 -32.2 -8.85 -33.55 -8.3 -33.2 -6.35 -32.8595703125 0.374609375 -27.95 3.575
M -23 5.9
L -25.65 4.9 -27.15 5.7
Q -28.4 6.7 -26.7 7.8
L -19.8 8.4
Q -17 10.3 -13.15 9.7
L -14.15 9.05
M -24.95 -4.65
Q -25.05 -4.6 -25.05 -4.45 -25.35 -3.55 -24.6 -2.95 -24.3 -3.25 -23.8 -3.2 -23.6 -3.25 -23.4 -3.15 -22.6 -3.15 -21.75 -2.35 -21.3 -2.1 -21 -1.7 -20.75 -1.45 -20.5 -1.15 -20.3 -0.85 -20.25 -0.7 -20.2 -0.25 -20.55 0 -21 0.3 -21.35 0.3 -21.55 0.25 -21.75 0.2 -21.9 0.2 -22.05 0.15 -22.55 -0.15 -23.1 -0.45 -23.8 -1.3 -24.3 -2
L -24.3 -2.05
Q -24.35 -2.05 -24.45 -2.05
L -24.6 -2.85 -24.6 -2.95
M 18.6 -3.05
Q 17.55 3.15 21.1 5.5
L 15.5 5.9 14.1 10.9 12.1 6.35
Q 5.8 10.4 0.1 8.25 -7.4 12.5 -14.15 9.05
M -22.6 1.45
Q -21.55 2.4 -20.45 1.85 -20.3 1.9 -20.1 1.7
M -27.525 3.85
Q -26.85 4.25859375 -26.1 4.6 -25.9 4.7 -25.6 4.85
L -25.65 4.9 -26.1 4.6
M -27.95 3.575
Q -27.738671875 3.71640625 -27.525 3.85"/>

<path id="Duplicate_Items_Folder_head_copy_3_0_Layer3_0_1_STROKES" stroke="#000000" stroke-width="1" stroke-linejoin="round" stroke-linecap="round" fill="none" d="
M 34.6 -19.075
Q 35.2015625 -19.5115234375 35.7 -20.15 37.2 -21.9 38.25 -25.85 38.65 -27.8 38.9 -29.25 39.85 -27.75 40.55 -25.25 41.894921875 -20.4677734375 40.25 -16.725
L 40.25 -16.7
Q 37.8 -10.5 36.5 -8.15 34.2 -3.9 30.4 -3.35
L 30.4 -3.3
Q 26.7 -2.85 21.95 -3.4 20.8 -3.6 19.8 -3.75 18.85 -3.9 18 -4.25
L 15.95 -5.55
Q 15.2 -7.8 15.75 -10.4 16.3 -13.05 17.45 -15.3 18.6 -17.55 20.4 -18.5 20.5 -18.9 21.1 -19.25 22.4 -19.75 25.4 -19.2 26.3 -19 26.95 -18.85 30.4 -18.05 31.45 -18.15 33.274609375 -18.115625 34.6 -19.075 Z"/>

<path id="Duplicate_Items_Folder_head_copy_3_0_Layer2_0_1_STROKES" stroke="#000000" stroke-width="1" stroke-linejoin="round" stroke-linecap="round" fill="none" d="
M 14.95 -9.4
L 19.45 -8.55
Q 22.55 -7.2 23.8 -6.15 25.05 -5.15 26.4 -4.1 26.4435546875 -4.066796875 26.475 -4.025 27.592578125 -4.1740234375 28.85 -4.45 27.5 -2.45 27.6 -2.8 27.6103515625 -2.873046875 27.575 -2.975 27.026953125 -2.373046875 27 -2.4
L 26.35 -2
Q 23.2 0.3 17.45 0.05 15.45 0 14.65 -0.2
M 20.35 -2.95
L 18 -4.2
Q 14.05 -5.1 11.9 -4.2
M 20.5 -3.05
L 20.55 -2.85 20.35 -2.95
M 22.25 -4.1
Q 21.3 -4.25 20.25 -4.35
L 20.5 -3.05
M 28.85 -4.45
Q 28.02109375 -3.4830078125 27.575 -2.975
M 26.475 -4.025
Q 23.983203125 -3.71875 22.25 -4.1"/>

<path id="Duplicate_Items_Folder_head_copy_3_0_Layer1_0_1_STROKES" stroke="#000000" stroke-width="1" stroke-linejoin="round" stroke-linecap="round" fill="none" d="
M 4.85 -13.5
L 7.3 -11.2
Q 8 -6.45 3.8 -3.9 3.75 -3.9 6.25 -1.8
L 2 -1.5 3.75 -0.15 2.4 0.1
Q 0.65 0.15 -0.7 -0.45 -6.45 -0.4 -6.45 -1.4 -11.25 -3.3 -9.3 -8.3 -8.05 -11.25 -5.45 -12.95
L 1.25 -15.75
Q 1.65 -15.75 4.85 -13.5 Z
M -6.95 -6.7
Q -5.45 -11.25 2.05 -10.25 3.05 -6.95 -0.65 -3.4 -8.4 -2.2 -6.95 -6.7 Z"/>

<path id="Duplicate_Items_Folder_head_copy_3_0_Layer0_0_1_STROKES" stroke="#000000" stroke-width="1" stroke-linejoin="round" stroke-linecap="round" fill="none" d="
M 0.825 -33.275
Q -0.094140625 -31.6072265625 1.45 -29.75
L -0.25 -24.65 0.55 -21.1 2.85 -25.2 8 -26.725
Q 10.195703125 -29.26328125 9.8 -32.2 8.5037109375 -36.0849609375 4.9 -34.2 3.06171875 -35.7294921875 0.825 -33.275 Z"/>
</defs>

<g transform="matrix( -3.5539093017578125, -1.1077117919921875, -1.0476837158203125, 3.361236572265625, 171.95,458) ">
<g transform="matrix( 1, 0, 0, 1, 0,0) ">
<use xlink:href="#Duplicate_Items_Folder_foot_copy_0_Layer0_0_FILL"/>

<use xlink:href="#Duplicate_Items_Folder_foot_copy_0_Layer0_0_1_STROKES"/>
</g>
</g>

<g transform="matrix( 2.393768310546875, 2.7440338134765625, -2.9204864501953125, 2.547149658203125, 160.7,390.8) ">
<g transform="matrix( 1, 0, 0, 1, 0,0) ">
<use xlink:href="#Duplicate_Items_Folder_arm__0_Layer0_0_FILL"/>

<use xlink:href="#Duplicate_Items_Folder_arm__0_Layer0_0_1_STROKES"/>
</g>
</g>

<g transform="matrix( 4.230712890625, 0, 0, 4.230712890625, 272.1,386.75) ">
<g transform="matrix( 1, 0, 0, 1, 0,0) ">
<use xlink:href="#Duplicate_Items_Folder_body_front_copy_2_0_Layer3_0_FILL"/>

<use xlink:href="#Duplicate_Items_Folder_body_front_copy_2_0_Layer3_0_1_STROKES"/>
</g>

<g transform="matrix( 1, 0, 0, 1, 0,0) ">
<use xlink:href="#Duplicate_Items_Folder_body_front_copy_2_0_Layer2_0_FILL"/>

<use xlink:href="#Duplicate_Items_Folder_body_front_copy_2_0_Layer2_0_1_STROKES"/>
</g>

<g transform="matrix( 1, 0, 0, 1, 0,0) ">
<use xlink:href="#Duplicate_Items_Folder_body_front_copy_2_0_Layer1_0_FILL"/>
</g>

<g transform="matrix( 1, 0, 0, 1, 0,0) ">
<use xlink:href="#Duplicate_Items_Folder_body_front_copy_2_0_Layer0_0_FILL"/>
</g>
</g>

<g transform="matrix( 3.8833160400390625, -1.0656585693359375, 1.0171051025390625, 3.7064208984375, 338.25,470.3) ">
<g transform="matrix( 1, 0, 0, 1, 0,0) ">
<use xlink:href="#Duplicate_Items_Folder_foot_copy_0_Layer0_0_FILL"/>

<use xlink:href="#Duplicate_Items_Folder_foot_copy_0_Layer0_0_1_STROKES"/>
</g>
</g>

<g transform="matrix( -3.7640228271484375, 1.5591583251953125, 1.6593780517578125, 4.005584716796875, 300.3,392.2) ">
<g transform="matrix( 1, 0, 0, 1, 0,0) ">
<use xlink:href="#Duplicate_Items_Folder_arm__0_Layer0_0_FILL"/>

<use xlink:href="#Duplicate_Items_Folder_arm__0_Layer0_0_1_STROKES"/>
</g>
</g>

<g transform="matrix( 5.1815185546875, -0.523162841796875, 0.5126800537109375, 5.0775604248046875, 258.4,234.9) ">
<g transform="matrix( 1, 0, 0, 1, 0,0) ">
<use xlink:href="#Duplicate_Items_Folder_head_copy_3_0_Layer8_0_FILL"/>

<use xlink:href="#Duplicate_Items_Folder_head_copy_3_0_Layer8_0_1_STROKES"/>
</g>

<g transform="matrix( 1, 0, 0, 1, 0,0) ">
<use xlink:href="#Duplicate_Items_Folder_head_copy_3_0_Layer7_0_FILL"/>

<use xlink:href="#Duplicate_Items_Folder_head_copy_3_0_Layer7_0_1_STROKES"/>
</g>

<g transform="matrix( 1, 0, 0, 1, 0,0) ">
<use xlink:href="#Duplicate_Items_Folder_head_copy_3_0_Layer6_0_FILL"/>

<use xlink:href="#Duplicate_Items_Folder_head_copy_3_0_Layer6_0_1_STROKES"/>
</g>

<g transform="matrix( 1, 0, 0, 1, 0,0) ">
<use xlink:href="#Duplicate_Items_Folder_head_copy_3_0_Layer5_0_FILL"/>

<use xlink:href="#Duplicate_Items_Folder_head_copy_3_0_Layer5_0_1_STROKES"/>
</g>

<g transform="matrix( 1, 0, 0, 1, 0,0) ">
<use xlink:href="#Duplicate_Items_Folder_head_copy_3_0_Layer4_0_FILL"/>
</g>

<g transform="matrix( 1, 0, 0, 1, 0,0) ">
<use xlink:href="#Duplicate_Items_Folder_head_copy_3_0_Layer3_0_FILL"/>

<use xlink:href="#Duplicate_Items_Folder_head_copy_3_0_Layer3_0_1_STROKES"/>
</g>

<g transform="matrix( 1, 0, 0, 1, 0,0) ">
<use xlink:href="#Duplicate_Items_Folder_head_copy_3_0_Layer2_0_FILL"/>

<use xlink:href="#Duplicate_Items_Folder_head_copy_3_0_Layer2_0_1_STROKES"/>
</g>

<g transform="matrix( 1, 0, 0, 1, 0,0) ">
<use xlink:href="#Duplicate_Items_Folder_head_copy_3_0_Layer1_0_FILL"/>

<use xlink:href="#Duplicate_Items_Folder_head_copy_3_0_Layer1_0_1_STROKES"/>
</g>

<g transform="matrix( 1, 0, 0, 1, 0,0) ">
<use xlink:href="#Duplicate_Items_Folder_head_copy_3_0_Layer0_0_FILL"/>

<use xlink:href="#Duplicate_Items_Folder_head_copy_3_0_Layer0_0_1_STROKES"/>
</g>
</g>
</svg>
