
<svg xmlns="http://www.w3.org/2000/svg" version="1.1" xmlns:xlink="http://www.w3.org/1999/xlink" preserveAspectRatio="none" x="0px" y="0px" width="560px" height="544px" viewBox="0 0 560 544">
<defs>
<filter id="Filter_1" x="-20%" y="-20%" width="140%" height="140%" color-interpolation-filters="sRGB">
<feColorMatrix in="SourceGraphic" type="matrix" values="1 0 0 0 0 0 1 0 0 0 0 0 1 0 0 0 0 0 0.25 0" result="result1"/>
</filter>

<g id="Layer0_0_MEMBER_0_MEMBER_0_FILL">
<path fill="#FCFCF5" stroke="none" d="
M 146.65 200.8
Q 133.7 209.5 121.9 218.8 188.9 248.1 198.05 289.95 204.25 318.55 182.65 353.85
L 209.6 377.6
Q 211.2 364.5 219.05 350.85 222.1 345.5 234.7 327.75 244.7 313.65 248.8 303.7 254.7 289.4 253.55 274.1 251.2 242.25 218.05 213.3 201.7 199.05 178.4 186.5 172.6 183.4 146.65 200.8 Z"/>
</g>

<g id="Layer0_0_MEMBER_0_MEMBER_1_MEMBER_0_FILL">
<path fill="#A7A8B5" stroke="none" d="
M 376.05 731.4
Q 372.55 733.05 367.95 734.05 358.75 736.15 353.45 733.2
L 356.15 738.95
Q 360.35 745.95 367.95 751.95 392.1 771.15 440.65 773.6 409.3 750.7 392.75 713.85
L 389.55 713.4
Q 380.45 715.3 371.3 715.65 358.8 716.1 347.65 713.55
L 349.5 716.3
Q 351.95 719.55 354.95 722.3 364.6 731.1 376.05 731.4 Z"/>
</g>

<g id="Layer0_0_MEMBER_0_MEMBER_1_MEMBER_1_FILL">
<path fill="#A7A8B5" stroke="none" d="
M 714.15 717.05
Q 707.05 716.1 691.65 712.85 690 715.55 686.9 721.55 669.2 756.15 637.05 777.25 692.6 776.95 720.05 756.75 728.65 750.4 733.4 742.85 735.8 739.05 736.45 736.55 731.15 739.5 722 737.4
L 713.9 734.75
Q 725.35 734.45 734.95 725.65 739.75 721.25 742.25 716.9 731.45 719.35 714.15 717.05 Z"/>
</g>

<g id="Layer0_0_MEMBER_0_MEMBER_1_MEMBER_2_MEMBER_0_FILL">
<path fill="#E6E7ED" stroke="none" d="
M 652.05 545.65
Q 664.9 521.9 656.2 489.05 612.55 502.4 575.15 465.1 568.7 458.6 551.85 437.95 541.35 425 537.05 425.35 534.25 425.55 523 435.35 507.15 449.1 498.15 455.45 459.25 483 424.75 474.5 420.9 480.65 418.05 485.65 415.5 507.15 418.95 525.45 422.75 545.65 432.8 554.2 443.95 563.7 457.6 555.65 464.4 551.65 469 545.7
L 470.05 550.35
Q 471.6 556 474.1 560.9 482 576.55 496.25 578.8 510.5 581 522.15 568.5 527.95 562.25 530.9 555.55
L 532.3 559.45
Q 534.25 564.15 536.9 568.05 545.5 580.5 558.35 580.1 573.45 579.7 584.5 565.9 590.05 559 592.55 552.2
L 594.7 554.55
Q 597.6 557.35 601.05 559.65 612.1 566.95 624.95 566.5 631.9 566.25 639.1 560.9 646.85 555.2 652.05 545.65 Z"/>
</g>

<g id="Layer0_0_MEMBER_0_MEMBER_1_MEMBER_2_MEMBER_1_FILL">
<path fill="#D7D8E0" stroke="none" d="
M 660.4 487.65
Q 657.6 488.65 656.2 489.05 664.9 521.9 652.05 545.65 646.85 555.2 639.1 560.9 631.9 566.25 624.95 566.5 612.1 566.95 601.05 559.65 597.6 557.35 594.7 554.55
L 592.55 552.2
Q 590.05 559 584.5 565.9 573.45 579.7 558.35 580.1 545.5 580.5 536.9 568.05 534.25 564.15 532.3 559.45
L 530.9 555.55
Q 527.95 562.25 522.15 568.5 510.5 581 496.25 578.8 482 576.55 474.1 560.9 471.6 556 470.05 550.35
L 469 545.7
Q 464.4 551.65 457.6 555.65 443.95 563.7 432.8 554.2 422.75 545.65 418.95 525.45 415.5 507.15 418.05 485.65 399.35 518.35 388.6 553.2 376.3 593 376.3 629.9 376.3 671.7 389.25 705.45 401.55 737.35 424.6 760 446.8 781.75 477 793.05 506.7 804.2 541.2 804.2 575.75 804.2 605.7 793.05 636.25 781.7 658.6 760 681.95 737.3 694.05 705.45 706.9 671.65 706.15 629.9 705.5 594.6 692.25 555.75 680.65 521.7 660.4 487.65 Z"/>
</g>

<g id="Layer0_0_MEMBER_0_MEMBER_1_MEMBER_3_MEMBER_0_FILL">
<path fill="#000000" stroke="none" d="
M 669.55 637.05
Q 672.9 620.7 672.6 601.75 671.4 620.85 667.3 636.5 664.95 645.35 661.7 653 658 661.6 653.4 668.15 648.1 675.65 641.7 680.25 634.45 685.5 626.65 686.3 624.65 686.55 622.6 686.45
L 620.6 686.3
Q 619.65 686.25 618.75 686 615.2 685.2 612.05 682.6 609.2 680.4 606.75 676.7 605.65 675.15 604.65 673.2
L 603.15 670 600.3 662.4 596.9 670.55 595.3 673.75
Q 594 676.1 592.85 677.75 590.2 681.65 586.8 684.85 583.25 688.15 579.35 689.9 575.25 691.8 570.8 692.1
L 569.75 692.15 566.35 692
Q 564.25 691.8 562 691.15 557.7 689.85 554.3 687.1 551.05 684.5 548.4 680.4 547.1 678.3 546.2 676.35
L 544.9 673.2 542.25 664.3 535.9 675.75
Q 534.25 678.1 532.9 679.7 529.55 683.8 525.95 686.6 521.85 689.85 517.7 691.4 513.2 693.15 508.5 693.15 503.6 693.15 499.4 691.45 495.1 689.75 491.45 686.4 488.15 683.4 485.3 678.9 483.9 676.6 482.95 674.55 482.7 674.1 481.9 672.25
L 479.55 665.45 476.35 668.85
Q 470.85 674.7 464.85 677.2 461.4 678.6 458.1 678.9 454.7 679.25 451.15 678.5 447.95 677.8 444.45 676.1 441.3 674.6 438.25 672.25 432.6 668.05 427.6 661.75 418.3 650 412.85 635.25 410.1 628.15 408.5 620.6 406.75 612.65 406.55 605.3 406.35 608.75 406.6 613.05 406.75 616.9 407.35 620.8 408.45 628.3 410.85 635.95 413.2 643.45 416.65 650.5 420.3 657.9 424.75 663.95 429.75 670.8 435.6 675.6 438.95 678.3 442.35 680.15 446.2 682.2 450.1 683.15 454.4 684.2 458.5 683.9 462.65 683.7 466.75 682.1 470.5 680.6 474.15 678.15 475.7091796875 677.0396484375 477.2 675.8
L 477.7 677
Q 478.9 679.7 480.3 681.95 483.4 687.15 487.3 690.85 491.75 695.05 497 697.25 502.4 699.45 508.5 699.55 514.25 699.65 520 697.5 525.15 695.6 530 691.8 534.05 688.7 538.05 683.95 539.378125 682.340234375 540.75 680.4 541.58515625 682.070703125 542.75 684 546.05 689.05 550.15 692.3 554.7 695.95 560.15 697.5 562.8 698.3 565.7 698.55 567.05 698.7 568.45 698.7
L 571.25 698.65
Q 577.05 698.2 582.1 695.8 586.85 693.55 591.15 689.5 594.9 685.95 598 681.2 599.0455078125 679.69453125 600.25 677.5 601.02421875 678.767578125 601.9 680.05 605 684.45 608.55 687.1 612.8 690.35 617.6 691.3 618.7 691.55 620.1 691.65
L 622.5 691.75
Q 624.4 691.8 627.3 691.45 632.05 690.75 636.45 688.8 640.6 686.95 644.45 684 647.85 681.45 651.2 677.65 654.25 674.15 656.7 670.35 661.3 663.2 664.7 654.2 667.6 646.45 669.55 637.05 Z"/>
</g>

<g id="Layer0_0_MEMBER_0_MEMBER_1_MEMBER_4_MEMBER_0_FILL">
<path fill="#B9BAC6" stroke="none" d="
M 485.85 225.85
Q 461.45 230.4 440 239.15 467.45 233.95 491.2 243.55 523 256.35 539.75 293.65
L 544.45 283.6
Q 551 271.75 560.25 262.6 589.85 233.25 635.3 241.85 613.5 231.9 589 226.65 563.6 221.25 536.85 221.25 510.55 221.25 485.85 225.85 Z"/>
</g>

<g id="Layer0_0_MEMBER_0_MEMBER_1_MEMBER_4_MEMBER_1_FILL">
<path fill="#B9BAC6" stroke="none" d="
M 724.55 399.7
Q 714 422.95 691.7 435.8 667.15 449.85 636.15 446.05 600.55 441.7 566.9 412.55 556.35 403.4 547.3 392.9
L 540.35 384.25
Q 530.2 396.6 513.05 409.65 478.7 435.75 443.5 439.35 411.95 442.6 388.35 432.65 364.7 422.65 353.45 401.25 364.4 437.05 393.8 459.25 437.3 492 487.2 462.55 500.9 454.5 519.35 438.5 528.05 430.95 530.2 429.25 535 425.5 537.05 425.35 541.4 425 552.8 439.1 569.6 459.9 578 467.9 618.6 506.3 667.25 484.95 691.15 474.45 705.25 454.3 720.2 432.8 724.55 399.7 Z"/>
</g>

<g id="Layer0_0_MEMBER_0_MEMBER_1_MEMBER_4_MEMBER_2_FILL">
<path fill="#D7D8E0" stroke="none" d="
M 734.35 264.75
Q 752.05 248.45 758.35 225.3 744.45 233.4 722.15 239.5 677.55 251.75 635.4 241.9
L 635.3 241.85 633.2 241.35 633.35 241.5
Q 588.85 233.8 559.85 262.95 550.8 272.05 544.35 283.75
L 539.75 293.65
Q 523 256.35 491.2 243.55 467.45 233.95 440 239.15
L 434.45 241.5 434.55 241.35
Q 391.85 252 346.35 239.7 332.15 235.85 319.4 230.2
L 309.45 225.3
Q 315.75 248.45 333.45 264.75 342.3 272.95 349.9 276.45 336.9 283.7 315.85 286.75 309.2 287.65 302.65 288.1
L 297.35 288.3
Q 316.95 303.7 334 310.2 345.15 314.4 356.2 314.95 347.1 336.55 347.4 360.7 347.75 382.55 353.45 401.25 364.7 422.65 388.35 432.65 411.95 442.6 443.5 439.35 478.7 435.75 513.05 409.65 530.2 396.6 540.35 384.25
L 547.3 392.9
Q 556.35 403.4 566.9 412.55 600.55 441.7 636.15 446.05 667.15 449.85 691.7 435.8 714 422.95 724.55 399.7 726.9 381.85 726.25 360.7 725.45 336.85 714.8 314.9 724.65 314.4 736.6 309.25 752.35 302.55 770.45 288.3 762.5 288.25 752 286.75 730.9 283.7 717.9 276.45
L 722.8 273.65
Q 728.85 269.85 734.35 264.75 Z"/>
</g>

<g id="Layer0_0_MEMBER_0_MEMBER_1_MEMBER_5_MEMBER_0_FILL">
<path fill="#C9CBD3" stroke="none" d="
M 465.4 275.1
Q 451.85 275.1 436.5 281.85 422.2 288.1 409.55 298.7 397 309.2 389.7 320.85 382.05 333.05 382.3 343.25 382.3 345.55 382.7 348.05 410.9 341.25 439.45 338.4 492.55 333.05 519.3 345.35 519.7 341.35 519.8 336.75 520.05 308.1 506.8 292.1 492.75 275.1 465.4 275.1 Z"/>
</g>

<g id="Layer0_0_MEMBER_0_MEMBER_1_MEMBER_5_MEMBER_1_FILL">
<path fill="#FFFFFF" stroke="none" d="
M 439.45 338.4
Q 410.9 341.25 382.7 348.05 385.95 370.2 411.55 385 435.3 398.75 463.75 398.75 488.35 398.75 503.2 383.25 516.8 369 519.3 345.35 492.55 333.05 439.45 338.4 Z"/>
</g>

<g id="Layer0_0_MEMBER_0_MEMBER_1_MEMBER_6_MEMBER_0_FILL">
<path fill="#FFFFFF" stroke="none" d="
M 655.95 397.4
Q 671.6 388.25 678.9 372.5 650.4 348.2 606.9 344.35 581.65 342.1 558 346.7 559.4 371.8 577.55 389.15 595.8 406.55 620.95 406.55 640.4 406.55 655.95 397.4 Z"/>
</g>

<g id="Layer0_0_MEMBER_0_MEMBER_1_MEMBER_6_MEMBER_1_FILL">
<path fill="#C9CBD3" stroke="none" d="
M 678.85 322.15
Q 673.7 309.7 664.6 299.6 655.35 289.35 643.8 283.6 631.6 277.55 618.9 277.55 593.15 277.55 575.35 297.2 557.9 316.4 557.9 343.1
L 558 346.7
Q 581.65 342.1 606.9 344.35 650.4 348.2 678.9 372.5 684.15 361.25 684.15 347.95 684.15 335 678.85 322.15 Z"/>
</g>

<g id="Layer0_0_MEMBER_0_MEMBER_1_MEMBER_7_FILL">
<path fill="#000000" stroke="none" d="
M 630.95 366.1
Q 639.7 360.75 641.55 351.5 617.2 343.15 587.65 343.7 586.85 353.05 593.65 360.65 600.5 368.25 611.3 369.85 622.15 371.4 630.95 366.1 Z"/>
</g>

<g id="Layer0_0_MEMBER_0_MEMBER_1_MEMBER_8_FILL">
<path fill="#000000" stroke="none" d="
M 458.8 357.85
Q 469.1 357.85 476.5 351.9 483.9 345.9 484.3 337.35 462.45 335.65 433.4 339.05 434.55 347.05 441.75 352.45 449 357.85 458.8 357.85 Z"/>
</g>

<g id="Layer0_0_MEMBER_0_MEMBER_1_MEMBER_9_MEMBER_0_FILL">
<path fill="#000000" stroke="none" d="
M 716.85 318.15
L 716.4 311.45 711.2 312.2
Q 708.1 312.4 705.8 312.25 699.8 311.9 695.15 309.6 697.25 311.55 699.8 313.05 702.4 314.55 705.1 315.5 707.7 316.5 710.8 317.2
L 716.85 318.15 Z"/>
</g>

<g id="Layer0_0_MEMBER_0_MEMBER_1_MEMBER_10_MEMBER_0_FILL">
<path fill="#000000" stroke="none" d="
M 366.9 314.25
Q 369 313.1 370.25 311.8 368.65 312.45 366.4 312.7 364.65 312.85 362.5 312.75 360.75 312.7 358.7 312.35 356.85 312.05 355.15 311.5
L 354.7 318.2
Q 356.3 318.05 359.05 317.35 360.85 316.9 363.1 316.05 365.2 315.25 366.9 314.25 Z"/>
</g>

<g id="flash0_ai_Assets_8_Layer_1__Path__4_0_Layer0_0_FILL">
<path fill="#000000" stroke="none" d="
M 272.05 13.25
L 268.95 15
Q 265.05 16.75 261.3 18 261.15 40.8 249.3 56.2 238.85 69.8 226.65 70.2 213.8 70.65 202.75 63.35 199.3 61.05 196.4 58.25
L 194.25 55.9
Q 191.75 62.7 186.2 69.6 175.15 83.4 160.05 83.8 147.2 84.2 138.6 71.75 135.95 67.85 134 63.15
L 132.6 59.25
Q 129.65 65.95 123.85 72.2 112.2 84.7 97.95 82.5 83.7 80.25 75.8 64.6 73.3 59.7 71.75 54.05
L 70.7 49.4
Q 66.1 55.35 59.3 59.35 45.65 67.4 34.5 57.9 27.1 51.6 23 38.7 19.3 26.95 18.8 11.4
L 16.15 0
Q 15.5 1.7 8.4 15.85 2.45 27.65 0 36.45 2.45 46.35 7.6 56.15 13.75 67.85 21.25 74.2 33.9 84.8 49.2 75.8 56.9 71.3 62 64.65
L 63.2 69.9
Q 64.95 76.25 67.75 81.75 76.65 99.3 92.7 101.85 108.75 104.35 121.8 90.3 128.35 83.25 131.65 75.7
L 133.25 80.1
Q 135.4 85.4 138.45 89.75 148.15 103.75 162.6 103.35 179.55 102.9 192 87.35 198.25 79.6 201.05 71.9
L 203.5 74.55
Q 206.7 77.7 210.6 80.25 223.05 88.55 237.5 88 243.05 87.8 249.85 83.4 256.65 78.9 262.85 71.35 277.3 53.8 279.9 31.9 278.3 26.65 275.8 21.55 272.85 15.5 272.05 13.25 Z"/>
</g>

<g id="Layer0_0_MEMBER_0_MEMBER_1_MEMBER_12_MEMBER_0_FILL">
<path fill="#000000" stroke="none" d="
M 463.7 735.95
Q 461.75 733.8 459.15 731.45 456.55 729.1 454.15 727.45 448.6 723.5 442.85 721.4 439.45 720.1 436.7 719.6 433.55 718.95 430.4 718.7 424.05 718.25 417.8 719.55 424.65 719.3 430.2 720.2 433.3 720.75 436.2 721.55 439.6 722.6 441.95 723.65 447.55 726.15 452.4 729.8 454.95 731.8 457.05 733.75 459.15 735.65 461.4 738.05 467.9 745.05 476.05 757.9 481.3 766.35 482.7 768.5 485 772 486.4 773.65 487.55 775.05 488.65 775.9 489.3 776.45 490 776.75 490.8 777.1 491.55 777 490.35 776.95 488.95 775.55 488 774.55 487.05 773.1 485.8 771.2 484 767.75
L 478.1 756.65
Q 471.25 744.15 463.7 735.95 Z"/>
</g>

<g id="Layer0_0_MEMBER_0_MEMBER_1_MEMBER_13_MEMBER_0_FILL">
<path fill="#000000" stroke="none" d="
M 620.85 733.4
Q 631.05 729.6 643.3 730.05 631.45 727.55 620.05 731.1 608.85 734.5 599.8 743.15 591.25 751.25 586.2 762.35 583.8 767.5 582.4 773.45 581 779.65 581.15 785.05 581.95 779.65 583.85 773.85 585.05 770.5 585.95 768.55 587.15 765.8 588.4 763.4 593.9 753 601.95 745.4 610.45 737.3 620.85 733.4 Z"/>
</g>

<g id="flash0_ai_Assets_8_Layer_1__Path__3_0_Layer0_0_FILL">
<path fill="#000000" stroke="none" d="
M 27.65 13.75
Q 25.6 14.25 20.85 9.9 20.15 9.25 11.1 0
L 9.25 1.9 9.2 2 3.3 7.55 3.3 7.6 1.3 9.3 1 9.6 0.85 9.7 0 10.45
Q 1.25 15.4 1.7 20.4 15.1 19.55 26.85 17.25
L 27.65 13.75 Z"/>
</g>

<g id="flash0_ai_Assets_8_Layer_1__Path__2_0_Layer0_0_FILL">
<path fill="#000000" stroke="none" d="
M 14.1 14.35
Q 25.45 28.9 26.7 46.15 27.55 58.65 30.6 57.5
L 30.5 50.5
Q 29.7 26.65 19.05 4.7
L 19.75 4.65
Q 15.6 4.7 11.45 4 4.8 2.9 0.3 0
L 0 0
Q 8.15 6.75 14.1 14.35 Z"/>
</g>

<g id="flash0_ai_Assets_8_Layer_1__Path__1_0_Layer0_0_FILL">
<path fill="#000000" stroke="none" d="
M 9.9 2.45
Q 9.4 3 8.2 4 -0.3 25 0 48.25 0.15 57.2 1.2 65.6 3.9 63.4 3.5 55.15 2.6 36.2 7.6 21.65 11.45 10.35 15.9 7.55 19.65 5.2 21.75 0 19.5 1.15 16.05 1.85 13 2.4 9.9 2.45 Z"/>
</g>

<g id="flash0_ai_Assets_8_Layer_1__Path__0_Layer0_0_FILL">
<path fill="#000000" stroke="none" d="
M 259.8 74
Q 255.3 67.7 252.6 61 249.5 57.35 246.95 53.05
L 243.95 54
Q 208.7 64.8 178.15 43.05 167.25 35.3 155.85 22.5 153.7 20.1 139.3 2.5 134.85 8.95 131.05 13.3 127.35 17.55 126.15 17.7 124.75 17.85 120.35 12.8 115.85 7.55 111.1 0 99.1 10.4 93.35 14.85 81.4 24.2 70.4 30.1 40.25 46.25 12.5 39.45
L 12.4 39.4
Q 8.3 51.9 0 61.55 2.1 62.45 4.85 63.5 34.7 74.4 67.4 58.05 79.25 52.1 92.15 42.15 98.5 37.3 111.1 26.35 115.9 33.95 120.35 39.15 124.75 44.25 126.15 44.05 127.3 43.95 131.05 39.65 134.8 35.3 139.3 28.85 153.6 46.35 156.25 49.35 167.95 62.35 179.25 70.2 210.75 92 247.35 79.25 251.1 78 255 76.25 257 75.4 259.8 74 Z"/>
</g>

<g id="Layer0_0_MEMBER_0_MEMBER_2_FILL">
<path fill="#C16A23" stroke="none" d="
M 436.9 755.95
Q 432 767.1 432.35 778.25 432.7 788.9 439.85 799.1 446.75 808.9 452.6 808.65 458.4 808.4 461.55 801.5 464.95 794.1 464.5 780.8 464.05 766.95 458.8 755.9 453.5 744.75 447.25 744.75 441.8 744.75 436.9 755.95 Z"/>
</g>

<g id="Layer0_0_MEMBER_0_MEMBER_3_FILL">
<path fill="#C16A23" stroke="none" d="
M 433.35 767.15
Q 434.5 761.55 436.6 756.55 435 755.35 428.15 748.7 422.85 743.55 420.25 742.8 415 741.25 408.55 749.3 401.35 758.3 400.6 771.55 399.85 785 405.65 795.05 410.95 804.15 416.85 803.9 422.1 803.65 427.7 797.65 430.45 794.55 431.7 793.3 433.75 791.2 435.3 790.85 432.5 784.15 432.35 778.25 432.15 773.05 433.35 767.15 Z"/>
</g>

<g id="Layer0_0_MEMBER_0_MEMBER_4_FILL">
<path fill="#C16A23" stroke="none" d="
M 596.95 761.65
Q 591.45 769.7 591.45 780.65 591.45 792.35 598.2 803.15 604.7 813.6 611.1 813.7 617.35 813.8 621.4 804.95 625.15 796.85 625.25 785.7 625.4 774.2 621.25 764.4 616.65 753.45 609.75 753.55 602.35 753.65 596.95 761.65 Z"/>
</g>

<g id="Layer0_0_MEMBER_0_MEMBER_5_FILL">
<path fill="#C16A23" stroke="none" d="
M 652.95 784.5
Q 653.55 772.6 649.85 762.8 645.85 752.15 639.4 752.35 635.45 752.5 630.4 758.05 627.55 761.15 622.45 767.55 625.35 776.2 625.25 785.7 625.2 793.75 623 800.8 625.75 804.45 628.9 806.65 632.35 809 635.55 809.1 642 809.35 647.1 802.45 652.4 795.3 652.95 784.5 Z"/>
</g>

<g id="flash0_ai_Assets_8_Layer_1__Path__24_0_Layer0_0_FILL">
<path fill="#000000" stroke="none" d="
M 14.35 3.6
L 14.25 3.4 12.95 1.5 12.9 1.45 12 0
Q 5.15 6.25 2.15 15.85 0 22.65 0 30.35 4 31.85 9.15 33.25 10.2 26 13.35 20 16.2 14.65 20.1 11.4
L 20.05 11.4 20 11.25 18.75 9.65
Q 17.05 7.45 15.75 5.55
L 14.35 3.6 Z"/>
</g>

<g id="flash0_ai_Assets_8_Layer_1__Path__23_0_Layer0_0_FILL">
<path fill="#000000" stroke="none" d="
M 90.7 66.6
L 92.7 63.7
Q 86.85 62.5 80.5 58.35 67.85 50.15 65.65 35.75 63.2 20.1 54.6 9.85 47.3 1.2 40.85 1.05 36.4 0.95 31.8 6.45 29.55 9.2 28.15 11.95 25.75 5.6 17.75 2.05 8.95 -1.8 0 1.45 1.5 4.3 2.95 6.25 5.6 9.8 6.35 10.85 12.35 7.45 20.35 14.15 24.65 17.75 30.45 24.05
L 30.45 24.1
Q 32.7 18.75 35.45 15.6 38.35 12.25 41.1 12.25 47.35 12.25 52.65 23.4 57.9 34.45 58.35 48.3 58.45 50.6 58.35 54.65
L 59.9 55.95
Q 74.45 62.75 90.7 66.6 Z"/>
</g>

<g id="flash0_ai_Assets_8_Layer_1__Path__22_0_Layer0_0_FILL">
<path fill="#000000" stroke="none" d="
M 99.15 12.25
Q 94.85 6.9 89.1 3.3 83.7 -0.05 80.35 0 72.25 0.1 66.75 6.3 65.05 8.25 63.8 10.55
L 62.9 12.5
Q 60.45 8.95 56.4 6.1 48.25 0.45 40.1 4.15 34.3 6.8 29.45 15.6 26.8 20.45 21.9 33.05 17.45 44.6 14.5 49.15 9.95 56.3 4.35 56.6 -2.65 57 1.65 60.35 18.35 58.55 33.5 54 30.1 46 30.1 38 30.1 27.05 35.6 19 41 11 48.4 10.9 52.45 10.85 55.9 14.9 58.95 18.55 61.1 24.9 63.55 22.25 69.05 15.4 74.1 9.85 78.05 9.7 80.4 9.6 84.15 14.1 87.05 17.6 89.3 21.65 90.45 20.25 94.3 16.95 97.95 13.85 99.15 12.25 Z"/>
</g>

<g id="Layer0_0_MEMBER_0_MEMBER_9_FILL">
<path fill="#B9BAC6" stroke="none" d="
M 121.25 296.7
Q 103.9 284.2 93.1 280.7 81.85 277.1 75.2 282.35 68.2 287.9 69.5 308.3 70.85 329.65 80.8 355.85 92.15 385.6 111.2 411.7 133.35 441.95 162.8 462.45 154.1 459.95 144.95 460.45 126.6 461.35 124.3 476.1 120.9 497.5 136.15 519.8 155.65 548.25 202.55 572.35 198.2 571.9 193.6 573.25 184.4 575.9 183.3 584.75 182.05 594.75 192.65 608.25 204.6 623.45 226.75 635.85 252.85 650.45 288 657.9 329 666.65 378.75 664.75 376.3 647.9 376.3 629.9 376.3 593.4 388.35 554 398.95 519.5 417.3 487 376.55 478.55 328.3 454 269.55 424.1 218.05 378.6 177.75 342.95 162.1 329.55 136.6 307.7 121.25 296.7 Z"/>
</g>

<g id="Layer0_0_MEMBER_0_MEMBER_10_FILL">
<path fill="#B9BAC6" stroke="none" d="
M 1014.75 282.35
Q 1008.1 277.1 996.9 280.7 986.1 284.2 968.7 296.7 953.35 307.75 927.85 329.55 912.1 343.05 871.9 378.6 816.25 427.8 752.7 458.5 700.9 483.45 661.2 489 681.1 522.75 692.5 556.5 705.5 594.95 706.15 629.9 706.45 647.95 704.25 664.45 755.75 667.15 798.25 658.7 834.6 651.45 861.65 636.75 884.6 624.25 897 608.7 908 594.95 906.7 584.75 905.6 575.9 896.4 573.25 893.5 572.4 890.2 572.3
L 887.45 572.35
Q 934.35 548.25 953.8 519.8 969.05 497.5 965.7 476.1 963.35 461.35 945.05 460.45 939.35 460.15 932.7 461.25
L 927.2 462.45
Q 956.65 441.95 978.8 411.7 997.85 385.6 1009.15 355.85 1019.1 329.65 1020.45 308.3 1021.75 287.9 1014.75 282.35 Z"/>
</g>

<g id="Layer0_0_MEMBER_0_MEMBER_11_MEMBER_0_FILL">
<path fill="#000000" stroke="none" d="
M 162.3 465.05
Q 166.7 467.6 173.7 471.3 184.55 477.1 196.8 483.05 221.45 495.05 244.2 503.95 270.05 514.15 293.3 520.5 320.8 528 344.05 530.25 321.1 527.3 293.75 518.9 270.7 511.75 245.5 500.85 222 490.7 199.05 478.55 187.65 472.5 176.5 466.15
L 165.45 459.65
Q 159.6 456.15 154.55 452.9
L 151 458.55
Q 155.2 461.15 162.3 465.05 Z"/>
</g>

<g id="Layer0_0_MEMBER_0_MEMBER_12_MEMBER_0_FILL">
<path fill="#000000" stroke="none" d="
M 197.8 567.3
L 195.5 573.55
Q 203.65 576.35 213.1 579.3 222.5 582.3 230.75 584.65 249.95 590.25 266.4 594.3 285.4 599 302.5 602.1 312.3 603.8 320.75 604.9 330.5 606.1 339.1 606.45 330.8 605.8 320.85 604.05 311.9 602.5 302.8 600.45 286.95 596.85 267.3 591.1 249.3 585.75 232.3 579.85 224.15 577.1 214.95 573.75 205.3 570.2 197.8 567.3 Z"/>
</g>

<g id="Layer0_0_MEMBER_0_MEMBER_13_MEMBER_0_FILL">
<path fill="#000000" stroke="none" d="
M 922.2 460.8
Q 917.15 463.65 909.7 467.65 898.75 473.5 884.3 480.5 858 493.1 832 503 803.7 513.75 777.75 520.5 748.05 528.25 721.65 531.1 748.65 528.95 778.15 522.15 804.6 516.05 833.15 506.15 859.05 497.2 886.45 485.05 900.05 478.95 912.4 472.85 916.7 470.75 925.2 466.35 933 462.2 937.85 459.45
L 934.45 453.7
Q 928.6 457.2 922.2 460.8 Z"/>
</g>

<g id="Layer0_0_MEMBER_0_MEMBER_14_MEMBER_0_FILL">
<path fill="#000000" stroke="none" d="
M 890.3 568.5
L 871.55 575
Q 862.3 578 852.55 580.85 832.45 586.75 814 590.75 792.6 595.45 774.75 597.4 764.3 598.6 754.85 598.8 744.15 599.1 734.9 598.15 744.2 599.5 754.85 599.65 763.95 599.8 774.9 599.05 793.1 597.8 814.65 594.05 833.15 590.8 853.85 585.7 863.4 583.35 873.25 580.6
L 882.9 577.8
Q 888.35 576.2 892.55 574.85
L 890.3 568.5 Z"/>
</g>

<g id="flash0_ai_Assets_8_Layer_1__Path__19_0_Layer0_0_FILL">
<path fill="#000000" stroke="none" d="
M 61.6 5.3
Q 51.7 3.2 40.75 0 20.85 32.3 9.85 69.6 -8.3 131.15 6.75 183.4 15.65 183.3 23.05 183.05 20.6 166.2 20.6 148.2 20.6 111.7 32.65 72.3 43.25 37.8 61.6 5.3 Z"/>
</g>

<g id="flash0_ai_Assets_8_Layer_1__Path__18_0_Layer0_0_FILL">
<path fill="#000000" stroke="none" d="
M 26.2 0
Q 12.2 3.8 0 5.55 19.9 39.3 31.3 73.05 44.3 111.5 44.95 146.45 45.25 164.5 43.05 181 52.05 181.4 58.95 181.55 70.25 119.95 52.3 59.3 42.05 24.65 26.2 0 Z"/>
</g>

<g id="flash0_ai_Assets_8_Layer_1__Path__17_0_Layer0_0_FILL">
<path fill="#000000" stroke="none" d="
M 33.95 2.1
Q 28.05 0.4 20.9 0.05 6.5 -0.6 0 6.1 55.3 42.45 125.95 58.4 167.85 67.85 204.85 68.5 160.15 61.5 104.15 37 68.5 21.4 34.6 1.75
L 33.1 1.5 33.95 2.1 Z"/>
</g>

<g id="flash0_ai_Assets_8_Layer_1__Path__16_0_Layer0_0_FILL">
<path fill="#000000" stroke="none" d="
M 97.7 30.95
Q 126.6 34.15 149.25 33.55 119.65 30.9 73.65 17.85 45.85 9.95 17.75 0
L 12.65 0
Q 8.75 0.45 5.75 2 1.85 4 0 7.6 43.5 24.95 97.7 30.95 Z"/>
</g>

<g id="flash0_ai_Assets_8_Layer_1__Path__15_0_Layer0_0_FILL">
<path fill="#000000" stroke="none" d="
M 225.15 4.9
Q 218.2 -0.3 204.9 0.6 200.75 0.9 196.5 1.75
L 193.05 2.55 196.6 0 196.2 0
Q 162.2 19.15 122.55 35.35 56.5 62.4 0 69.8 34.75 71.55 78.7 62.8 154.85 47.55 225.15 4.9 Z"/>
</g>

<g id="flash0_ai_Assets_8_Layer_1__Path__14_0_Layer0_0_FILL">
<path fill="#000000" stroke="none" d="
M 163.25 12.2
L 163.2 11.85
Q 162.05 2.45 151.6 0 147.4 0.45 142.9 0.45 113.85 10.1 83.6 16.85 33.35 28.05 0 26.05 20.6 31.85 50.95 31.7 103.1 31.45 163.25 12.2 Z"/>
</g>

<g id="Layer0_0_MEMBER_0_MEMBER_21_FILL">
<path fill="#FCFCF5" stroke="none" d="
M 710.15 367.05
Q 723.5 372.35 724.45 372.35 728.75 372.35 732.75 350.6 736.05 332.35 736.05 322.65 736.05 319.2 723.2 313.6 708.7 307.3 684.85 301.65 621.6 286.6 532.75 284.95 448.65 283.4 383.1 296.25 362.6 300.25 346.45 305.25
L 334.4 309.4
Q 330 313 335.85 338.75 338.05 348.5 340.8 357 343.5 365.3 344.75 366.55 345.6 367.4 358.2 363.65 378.6 357.65 394.2 354.05 459.25 339.05 536.45 338.8 615.05 338.55 675.6 355.45 693.15 360.3 710.15 367.05 Z"/>
</g>

<g id="Layer0_0_MEMBER_0_MEMBER_22_FILL">
<path fill="#FCFCF5" stroke="none" d="
M 428.7 241.15
Q 425.6 239.35 423.65 239.65 402.15 242.9 362.05 234.85 343.8 231.15 341.2 230.85 334.2 230.05 337.65 233.6 363.2 260.2 405.95 294.75 429 313.4 463.85 340.55 494.5 338.75 495.65 338.7 514.95 337.8 531.2 338.1 542.3 338.3 563.3 338.4 581.35 338.6 592.7 339.55 543.2 304.95 527.55 295.15 500.55 278.3 467.7 263.85 450.95 256.5 436.4 246.35 429.9 241.85 428.7 241.15 Z"/>
</g>

<g id="Layer0_0_MEMBER_0_MEMBER_23_FILL">
<path fill="#FCFCF5" stroke="none" d="
M 722.8 389.6
Q 722.15 386.6 706.05 393.1 681.45 403.6 664.1 410.3 591.7 438.3 535.6 438.1 476.35 437.9 405.8 410.35 383.75 401.7 363.2 391.4
L 347.1 382.8
Q 350 408.5 351.05 413.05 353.55 423.95 360.5 429.6 367.35 435.1 385.35 441 388.8 442.15 435.55 455.95 497.6 474.3 592.95 465.2 623.9 462.25 661.65 456 681.5 452.7 708 448.1 719.1 446.45 722.6 421.6 723.85 412.55 723.8 402.5 723.7 393.8 722.8 389.6 Z"/>
</g>

<g id="Layer0_0_MEMBER_0_MEMBER_24_FILL">
<path fill="#FCFCF5" stroke="none" d="
M 888.6 381.25
Q 891.3 362.85 884.25 364.05 870.6 366.35 840.7 391.3 828.6 401.4 820.2 410.2 811.5 419.35 811.25 422.5
L 806.8 440.4
Q 800.45 463.1 790.7 486.9 759.6 563 706.8 621.6
L 706.65 631.45
Q 706.6 643.05 707.3 652.3 709.5 681.7 718.1 675.25 738.9 659.7 763.05 629.6 788.8 597.55 820.5 546.25 836.2 520.85 851.55 487.6 865.8 456.75 876 427.5 886.1 398.45 888.6 381.25 Z"/>
</g>

<g id="Layer0_0_MEMBER_0_MEMBER_25_FILL">
<path fill="#FCFCF5" stroke="none" d="
M 753.5 456.65
Q 753.5 451.05 735.95 459.25 719.4 466.95 710 475.3 703.05 481.5 702.7 571.9 702.55 617.05 703.8 661
L 707.25 664.4
Q 711.65 668 716.15 669.05 730.6 672.5 741.05 649.2 751.5 625.9 753.55 538.95 754.2 511.85 753.9 481.5
L 753.5 456.65 Z"/>
</g>

<g id="Layer0_0_MEMBER_0_MEMBER_26_FILL">
<path fill="#FCFCF5" stroke="none" d="
M 184.5 342.5
Q 176.3 334.9 186.45 368.35 196.7 402.1 222.6 467.55 244.8 523.55 255.85 589.35 262.35 628.05 263.45 657.2 263.65 662 281.15 669.4 297.25 676.25 302.95 676.25 306.35 676.25 303.45 638.15 297.85 564.05 297.15 550.4 295.1 509 281.85 457.6 277.7 441.5 273 426.4
L 269.05 414.45
Q 267.8 410.3 261.2 404.45 256.8 400.5 243.85 390.9 208.55 364.65 184.5 342.5 Z"/>
</g>

<g id="Layer0_0_MEMBER_0_MEMBER_27_FILL">
<path fill="#FCFCF5" stroke="none" d="
M 950.85 669.35
Q 950.2 658.2 945.45 646.55 933.55 617.35 904.25 601.85 899.55 613.6 886 625.65 903.55 639.15 900.5 660.65 897.05 684.7 867.75 708.8
L 879.15 707.75
Q 892.9 706.25 904.85 704.1 943.05 697.1 948.5 685.85 951.5 679.65 950.85 669.35 Z"/>
</g>

<g id="Layer0_0_MEMBER_0_MEMBER_28_FILL">
<path fill="#FCFCF5" stroke="none" d="
M 414.4 492.2
Q 411.35 486.4 405.05 482.75 397.6 478.4 380.15 472.65 369 468.95 362.2 467.2 359.15 466.45 355.05 480.2 351.15 493.1 347.5 514.6 339.15 563.9 339.8 600.45 340.65 648.2 344.9 663.35 346.85 670.2 349.9 672.75 352.2 674.7 356.55 675 361.4 675.3 369.25 674.8 373.5 674.5 381.4 673.75 378.4 661.35 377.4 652.95 376.3 643.8 376.3 629.9 376.3 594.95 387.4 557.15 397.2 523.95 414.4 492.2 Z"/>
</g>

<g id="Layer0_0_MEMBER_0_MEMBER_29_FILL">
<path fill="#FCFCF5" stroke="none" d="
M 312.9 442.3
L 307.55 470.4
Q 300.85 501.85 294.1 518.6 296.35 534.75 297.15 550.4 298.25 573.15 301.05 607.85 308.95 593.7 316.3 576.5 327 551.35 334.4 523.9 339.1 506.65 344.15 489.9 349.6 471.8 349.8 471.15 351.55 464.75 351.4 462.1 351.25 459.55 349.05 457.2 344.55 452.4 328.8 445.7 312.9 439 312.9 442.3 Z"/>
</g>

<g id="flash0_ai_Assets_8_Layer_1__Path__1_0_0_Layer0_0_FILL">
<path fill="#000000" stroke="none" d="
M 76 17.9
Q 76.1 7.9 60.15 3.25 50.45 0.45 37.1 0 24.95 -0.35 15 3.4 1.65 8.45 0.15 19.25 -0.75 25.8 3.2 37.25 7.65 50.4 15.45 62.2
L 21.7 56.8
Q 13.55 43.9 9.8 32.55 7.4 25.1 7.4 19.4 7.45 10.5 17.05 6.2 25.35 2.5 38.4 3 51.25 3.5 59.2 7 68.05 10.95 68.35 17.75 68.55 23.8 64.45 33.6 59.55 45.35 49.9 59.3
L 55 65.65
Q 63.7 54.1 70.3 38.5 75.95 25.05 76 17.9 Z"/>
</g>

<g id="Layer0_0_MEMBER_0_MEMBER_30_MEMBER_1_FILL">
<path fill="#FFCB4A" stroke="none" d="
M 560.85 385.25
Q 552.9 381.75 540.05 381.25 527 380.75 518.7 384.45 509.1 388.75 509.05 397.65 508.95 411.6 522.25 433.25 527.25 441.4 532.15 447.3 536.9 452.95 538.4 452.75 539.9 452.6 545.1 446.2 550.5 439.55 555.95 430.9 570.5 407.85 570 396 569.7 389.2 560.85 385.25 Z"/>
</g>

<g id="Layer0_0_MEMBER_0_MEMBER_30_MEMBER_2_MEMBER_0_FILL">
<path fill="#000000" stroke="none" d="
M 543.4 381.05
L 536.7 381.45
Q 537.35 385.5 537.9 390.05 538.3 392.9 538.9 398.7 539.85 408.75 540.05 416.1 541.35 408.25 542.25 398.65
L 542.95 389.9
Q 543.25 385.4 543.4 381.05 Z"/>
</g>

<g id="Layer0_0_MEMBER_0_MEMBER_31_FILL">
<path fill="#FCFCF5" stroke="none" d="
M 711.85 592.65
Q 716.15 584.55 707.3 562.65 704.55 555.8 700.8 548.4
L 697.6 542.35 680.55 544.6
Q 597.7 608.4 478.8 628.3 443.2 634.25 403.3 636.2 385.55 636.9 379.65 637.15 370.1 637.55 368.35 638.15 360.95 640.8 369.4 682.05 374.9 709.1 381.6 730.9 382.85 735 395.35 735.7 408.2 736.4 429.5 733.25 479.85 725.85 546.4 702.75 608.3 681.2 662.3 640.15 681.85 625.3 696.5 610.7 708.8 598.45 711.85 592.65 Z"/>
</g>

<g id="Layer0_0_MEMBER_0_MEMBER_32_FILL">
<path fill="#FCFCF5" stroke="none" d="
M 359.45 495.1
Q 361.35 508.35 377.9 529.25 404.65 563.1 413.65 572.8 430.55 590.95 450.35 602.95 467.95 613.6 484.55 627.35 538.75 617.7 586 598.45 553.9 588.3 526.05 574.8 481.4 553.15 464.1 529.85 448.4 525.4 435.85 520.55 395 504.95 387.4 501.55 369.05 493.35 361.55 484.7 358.4 487.85 359.45 495.1 Z"/>
</g>

<g id="Layer0_0_MEMBER_0_MEMBER_33_FILL">
<path fill="#FCFCF5" stroke="none" d="
M 710 664.1
Q 709.1 661.25 707.35 661.2 705.8 661.15 702.55 663.45 692.2 672.15 682.65 679.25 640.15 710.65 575.15 726.55 524.6 738.9 460.05 738.9 439.9 738.9 420.7 737.7
L 405.6 736.45
Q 405.3 738.65 401.95 748.8 399.35 758 402.05 758.5 446.7 766.95 497.1 768.65 543.95 770.3 587.85 765.95 630.4 761.75 660.25 752.95 690.85 743.9 700.4 732.25 708.25 722.7 711.15 699 713.95 676.4 710 664.1 Z"/>
</g>

<g id="Layer0_0_MEMBER_0_MEMBER_34_FILL">
<path fill="#FCFCF5" stroke="none" d="
M 722.6 481.9
Q 723.85 470.35 723.2 465.1 722.8 462.05 706.2 467.05 680.7 475.2 662.85 480.3 588.2 501.5 532.3 496.15 473.35 490.5 405.65 456.55 384.55 445.95 365 433.75
L 349.75 423.7
Q 349.75 451.2 352.1 463.4 354.85 477.95 363.15 486.4 370.9 494.35 389.05 502.3 396 505.35 435.85 520.55 489.15 540.95 571.15 548.7 603.65 551.75 634.05 552.1 661.75 552.4 678.5 550.4 705.2 547.2 717 509.6 721.05 496.75 722.6 481.9 Z"/>
</g>

<path id="Layer0_0_MEMBER_0_MEMBER_0_1_STROKES" stroke="#000000" stroke-width="6.7" stroke-linejoin="miter" stroke-linecap="butt" stroke-miterlimit="10" fill="none" d="
M 119.48324737548829 226.3341278076172
Q 118.173779296875 208.58665618896484 99.70192108154298 192.4551239013672 90.59136657714843 184.51473236083984 77.6081298828125 177.52161560058593 74.37625122070312 175.7942321777344 59.9163803100586 185.4898681640625 52.700375366210935 190.33768615722656 46.12517395019532 195.51983642578125 83.45894470214844 211.84639587402341 88.55751190185548 235.16607208251952 92.0122787475586 251.10257720947266 79.9763168334961 270.77245941162107
L 94.993408203125 284.0064453125
Q 95.8849609375 276.7068572998047 100.25914154052735 269.10079803466795 101.95866394042969 266.1196685791016 108.97964172363281 256.22900543212893 114.55184631347656 248.3721969604492 116.83645019531251 242.82785339355468 120.12405090332031 234.8596008300781 119.48324737548829 226.3341278076172 Z"/>

<path id="Layer0_0_MEMBER_0_MEMBER_1_MEMBER_0_1_STROKES" stroke="#000000" stroke-width="6.7" stroke-linejoin="miter" stroke-linecap="butt" stroke-miterlimit="10" fill="none" d="
M 197.04833526611327 471.37182464599607
L 195.26522979736328 471.1210754394531
Q 190.19452362060545 472.17979431152344 185.09595642089843 472.3748214721679 178.13070068359374 472.6255706787109 171.91769256591795 471.2046585083008
L 172.94855041503905 472.7370147705078
Q 174.31374053955076 474.54798126220703 175.9854019165039 476.08033752441406 181.36257934570312 480.98387756347654 187.7427536010742 481.15104370117183 185.7924819946289 482.0704574584961 183.22926788330076 482.62767791748047 178.10283966064452 483.7978408813476 175.14957122802733 482.1540405273438
L 176.65406646728513 485.35805816650395
Q 178.99439239501953 489.2586013793946 183.22926788330076 492.6019241333008 196.68614196777344 503.30055694580074 223.73919525146482 504.6657470703125 206.27033386230468 491.90539855957036 197.04833526611327 471.37182464599607 Z"/>

<path id="Layer0_0_MEMBER_0_MEMBER_1_MEMBER_1_1_STROKES" stroke="#000000" stroke-width="6.7" stroke-linejoin="miter" stroke-linecap="butt" stroke-miterlimit="10" fill="none" d="
M 360.95473327636716 475.6624221801758
Q 351.09193115234376 494.9422500610351 333.17729339599606 506.6996017456055 364.1308898925781 506.5324356079102 379.4265914916992 495.2765823364258 384.2186874389648 491.73823242187495 386.8654846191406 487.53121795654295 388.2028137207031 485.41378021240234 388.565007019043 484.0207290649414 385.61173858642576 485.66452941894534 380.51317138671874 484.4943664550781
L 375.9996856689453 483.01773223876955
Q 382.3798599243164 482.85056610107426 387.7291763305664 477.9470260620117 390.4038345336914 475.4952560424805 391.79688568115233 473.0713470458984 385.7789047241211 474.43653717041013 376.1389907836914 473.1549301147461 372.1827255249023 472.6255706787109 363.60153045654295 470.8146041870117 362.68211669921874 472.31909942626953 360.95473327636716 475.6624221801758 Z"/>

<path id="Layer0_0_MEMBER_0_MEMBER_1_MEMBER_2_MEMBER_0_1_STROKES" stroke="#000000" stroke-width="6.7" stroke-linejoin="miter" stroke-linecap="butt" stroke-miterlimit="10" fill="none" d="
M 219.3650146484375 382.41157836914067
Q 225.57802276611326 387.70517272949223 233.18408203125 383.2195480346679 236.97318115234373 380.9906661987304 239.53639526367186 377.6752044677735
L 240.1214767456055 380.26627960205076
Q 240.98516845703125 383.4145751953125 242.3782196044922 386.1449554443359 246.78026123046874 394.8654556274414 254.72065277099608 396.11920166015625 262.6610443115234 397.3450866699219 269.1526626586914 390.3798309326172 272.3845413208008 386.89720306396487 274.02834167480466 383.16382598876953
L 274.8084503173828 385.33698577880864
Q 275.89503021240233 387.9559219360351 277.3716644287109 390.1290817260742 282.16376037597655 397.0664764404297 289.3240432739258 396.8435882568359 297.73807220458986 396.62070007324223 303.8953582763672 388.93105773925777 306.98793182373043 385.08623657226565 308.3809829711914 381.2971374511719
L 309.5790069580078 382.60660552978516
Q 311.1949462890625 384.1668228149414 313.11735687255856 385.4484298706054 319.27464294433594 389.51613922119145 326.43492584228517 389.26539001464846 330.30760803222654 389.12608489990237 334.31959533691406 386.1449554443359 338.63805389404297 382.96879882812505 341.5356002807617 377.6473434448242 348.6958831787109 364.41335754394527 343.8480651855469 346.1086654663086 319.5253921508789 353.54755859374995 298.68534698486326 332.7632354736328 295.0912750244141 329.14130249023435 285.70211029052734 317.634700012207 279.8512954711914 310.4186950683594 277.45524749755856 310.6137222290039 275.89503021240233 310.7251663208008 269.6263000488281 316.18592681884763 260.79435577392576 323.8477081298828 255.77937164306638 327.3860580444336 234.1034957885742 342.73748168945315 214.87938995361327 338.00110778808596 212.73409118652341 341.4280136108398 211.14601287841796 344.2141159057617 209.7251007080078 356.19435577392574 211.6475112915039 366.3914901733399 213.76494903564452 377.6473434448242 219.3650146484375 382.41157836914067 Z"/>

<path id="Layer0_0_MEMBER_0_MEMBER_1_MEMBER_2_MEMBER_1_1_STROKES" stroke="#000000" stroke-width="6.7" stroke-linejoin="miter" stroke-linecap="butt" stroke-miterlimit="10" fill="none" d="
M 371.6812271118164 424.59316711425777
Q 371.31903381347655 404.92328491210935 363.9358627319336 383.27527008056643 357.4721054077148 364.3019134521485 346.1883911132812 345.3285568237304 344.628173828125 345.8857772827148 343.8480651855469 346.1086654663086 348.6958831787109 364.41335754394527 341.5356002807617 377.6473434448242 338.63805389404297 382.96879882812505 334.31959533691406 386.1449554443359 330.30760803222654 389.12608489990237 326.43492584228517 389.26539001464846 319.27464294433594 389.51613922119145 313.11735687255856 385.4484298706054 311.1949462890625 384.1668228149414 309.5790069580078 382.60660552978516
L 308.3809829711914 381.2971374511719
Q 306.98793182373043 385.08623657226565 303.8953582763672 388.93105773925777 297.73807220458986 396.62070007324223 289.3240432739258 396.8435882568359 282.16376037597655 397.0664764404297 277.3716644287109 390.1290817260742 275.89503021240233 387.9559219360351 274.8084503173828 385.33698577880864
L 274.02834167480466 383.16382598876953
Q 272.3845413208008 386.89720306396487 269.1526626586914 390.3798309326172 262.6610443115234 397.3450866699219 254.72065277099608 396.11920166015625 246.78026123046874 394.8654556274414 242.3782196044922 386.1449554443359 240.98516845703125 383.4145751953125 240.1214767456055 380.26627960205076
L 239.53639526367186 377.6752044677735
Q 236.97318115234373 380.9906661987304 233.18408203125 383.2195480346679 225.57802276611326 387.70517272949223 219.3650146484375 382.41157836914067 213.76494903564452 377.6473434448242 211.6475112915039 366.3914901733399 209.7251007080078 356.19435577392574 211.14601287841796 344.2141159057617 200.72599029541016 362.43522491455076 194.73587036132812 381.8543579101563 187.8820587158203 404.0317321777344 187.8820587158203 424.59316711425777 187.8820587158203 447.88498229980473 195.09806365966796 466.6911727905274 201.95187530517578 484.4665054321289 214.79580688476562 497.087548828125 227.16610107421874 509.2070938110352 243.99415893554686 515.5036849975586 260.54360656738277 521.7166931152344 279.76771240234376 521.7166931152344 299.0196792602539 521.7166931152344 315.70843200683595 515.5036849975586 332.7315170288086 509.179232788086 345.1853942871094 497.087548828125 358.19649200439454 484.4386444091797 364.93885955810543 466.6911727905274 372.09914245605466 447.8571212768554 371.6812271118164 424.59316711425777 Z"/>

<path id="Layer0_0_MEMBER_0_MEMBER_1_MEMBER_4_MEMBER_0_1_STROKES" stroke="#000000" stroke-width="6.7" stroke-linejoin="miter" stroke-linecap="butt" stroke-miterlimit="10" fill="none" d="
M 278.9597427368164 237.2277877807617
L 281.578678894043 231.62772216796876
Q 285.2284729003906 225.0246597290039 290.3827621459961 219.92609252929688 306.8764877319336 203.57167205810546 332.2021575927734 208.36376800537107 320.05475158691405 202.81942443847657 306.40285034179686 199.8940170288086 292.24945068359375 196.88502655029296 277.3438034057617 196.88502655029296 262.6889053344727 196.88502655029296 248.9255599975586 199.44824066162107 235.3293807983398 201.98359375 223.377001953125 206.8592727661133 238.67270355224605 203.96172637939452 251.90668945312495 209.31104278564453 269.6263000488281 216.44346466064454 278.9597427368164 237.2277877807617 Z"/>

<path id="Layer0_0_MEMBER_0_MEMBER_1_MEMBER_4_MEMBER_1_1_STROKES" stroke="#000000" stroke-width="6.7" stroke-linejoin="round" stroke-linecap="butt" fill="none" d="
M 332.67579498291013 322.14818572998047
Q 312.8387466430664 319.7242767333984 294.08827819824216 303.4813003540039 288.20960235595703 298.38273315429683 283.1667572021484 292.5319183349609
L 279.29407501220703 287.7119613647461
Q 273.63828735351564 294.5936340332031 264.08195648193356 301.8653610229492 244.94143371582027 316.40881500244143 225.3272735595703 318.41480865478513 207.74696807861326 320.22577514648435 194.59656524658203 314.6814315795898 181.41830139160155 309.10922698974605 175.14957122802733 297.1847091674805 181.25113525390623 317.1332015991211 197.63341674804687 329.50349578857424 221.87250671386718 347.7524658203125 249.67780761718745 331.34232330322266 257.3117279052734 326.85669860839846 267.59244537353516 317.94117126464846 272.4402633666992 313.7341567993164 273.63828735351564 312.786882019043 276.3129455566406 310.6973052978516 277.45524749755856 310.6137222290039 279.8791564941406 310.4186950683594 286.23146972656247 318.27550354003904 295.5927734375 329.865689086914 300.27342529296874 334.323452758789 322.8965759277344 355.72071838378906 350.0053512573242 343.8240615844726 363.32292022705076 337.97324676513665 371.17972869873046 326.74525451660156 379.5101745605469 314.7650146484375 381.9340835571289 296.3210174560547 376.05540771484374 309.2763931274414 363.6293914794922 316.4366760253906 349.94962921142576 324.26562347412107 332.67579498291013 322.14818572998047 Z"/>

<path id="Layer0_0_MEMBER_0_MEMBER_1_MEMBER_4_MEMBER_2_1_STROKES" stroke="#000000" stroke-width="6.7" stroke-linejoin="round" stroke-linecap="butt" fill="none" d="
M 376.5011840820312 249.06872253417967
Q 381.9898056030273 248.79011230468748 388.6485900878906 245.92042694091796 397.42481231689453 242.18704986572266 407.51050262451173 234.2466583251953 403.0805999755859 234.2187973022461 397.22978515625 233.38296661376953 385.47243347167966 231.68344421386718 378.2285675048828 227.64359588623046
L 380.9589477539062 226.0833786010742
Q 384.3301315307617 223.9659408569336 387.3948440551758 221.12411651611328 397.2576461791992 212.04142303466796 400.7681350708008 199.1417694091797 393.022770690918 203.65525512695314 380.5967544555664 207.0542999267578 355.74472198486325 213.8802505493164 332.25787963867185 208.39162902832032
L 332.2021575927734 208.36376800537107 331.03199462890626 208.08515777587888 331.1155776977539 208.16874084472656
Q 306.3192672729492 203.87814331054688 290.15987396240234 220.1211196899414 285.1170288085937 225.19182586669922 281.52295684814453 231.7113052368164
L 278.9597427368164 237.2277877807617
Q 269.6263000488281 216.44346466064454 251.90668945312495 209.31104278564453 238.67270355224605 203.96172637939452 223.377001953125 206.8592727661133
L 220.2844284057617 208.16874084472656 220.34015045166015 208.08515777587888
Q 196.54683685302734 214.0195556640625 171.19330596923828 207.16574401855468 163.28077545166013 205.02044525146482 156.17621459960935 201.8721496582031
L 150.63187103271483 199.1417694091797
Q 154.1423599243164 212.04142303466796 164.00516204833983 221.12411651611328 168.93656311035156 225.69332427978514 173.1714385986328 227.64359588623046 165.92757263183591 231.68344421386718 154.19808197021484 233.38296661376953 150.49256591796873 233.88446502685545 146.84277191162107 234.13521423339844
L 143.8895034790039 234.2466583251953
Q 154.81102447509764 242.82785339355468 164.31163330078124 246.4497863769531 170.524641418457 248.79011230468748 176.68192749023436 249.0965835571289 171.61122131347656 261.1325454711914 171.77838745117185 274.58941955566405 171.9734146118164 286.76468658447266 175.14957122802733 297.1847091674805 181.41830139160155 309.10922698974605 194.59656524658203 314.6814315795898 207.74696807861326 320.22577514648435 225.3272735595703 318.41480865478513 244.94143371582027 316.40881500244143 264.08195648193356 301.8653610229492 273.63828735351564 294.5936340332031 279.29407501220703 287.7119613647461
L 283.1667572021484 292.5319183349609
Q 288.20960235595703 298.38273315429683 294.08827819824216 303.4813003540039 312.8387466430664 319.7242767333984 332.67579498291013 322.14818572998047 349.94962921142576 324.26562347412107 363.6293914794922 316.4366760253906 376.05540771484374 309.2763931274414 381.9340835571289 296.3210174560547 383.24355163574216 286.37463226318357 382.88135833740233 274.58941955566405 382.43558197021486 261.2997116088867 376.5011840820312 249.06872253417967 Z"/>

<path id="Layer0_0_MEMBER_0_MEMBER_1_MEMBER_5_MEMBER_0_1_STROKES" stroke="#000000" stroke-width="6.7" stroke-linejoin="round" stroke-linecap="butt" fill="none" d="
M 267.5645843505859 266.0360855102539
Q 267.7874725341797 263.8072036743164 267.8431945800781 261.2439895629883 267.9824996948242 245.27962341308594 260.5993286132813 236.36409606933594 252.77038116455077 226.89134826660157 237.5304016113281 226.89134826660157 229.98006439208984 226.89134826660157 221.42673034667968 230.6525863647461 213.4584777832031 234.13521423339844 206.40963897705078 240.0417510986328 199.41652221679686 245.89256591796874 195.34881286621092 252.38418426513672 191.08607635498046 259.1822738647461 191.22538146972656 264.86592254638674 191.22538146972656 266.1475296020508 191.4482696533203 267.5405807495117 207.16188659667966 263.751481628418 223.07053070068358 262.16340332031245 252.65893707275393 259.1822738647461 267.5645843505859 266.0360855102539 Z"/>

<path id="Layer0_0_MEMBER_0_MEMBER_1_MEMBER_5_MEMBER_1_1_STROKES" stroke="#000000" stroke-width="6.7" stroke-linejoin="round" stroke-linecap="butt" fill="none" d="
M 191.4482696533203 267.5405807495117
Q 193.2592361450195 279.8830139160156 207.52407989501953 288.1298767089844 220.75806579589843 295.79165802001955 236.6109878540039 295.79165802001955 250.31861114501953 295.79165802001955 258.59333496093745 287.15474090576174 266.17153320312497 279.2143493652344 267.5645843505859 266.0360855102539 252.65893707275393 259.1822738647461 223.07053070068358 262.16340332031245 207.16188659667966 263.751481628418 191.4482696533203 267.5405807495117 Z"/>

<path id="Layer0_0_MEMBER_0_MEMBER_1_MEMBER_6_MEMBER_0_1_STROKES" stroke="#000000" stroke-width="6.7" stroke-linejoin="round" stroke-linecap="butt" fill="none" d="
M 289.12901611328124 266.7883331298828
Q 289.90912475585935 280.7745666503906 300.02267608642575 290.4423416137695 310.1919494628906 300.13797760009766 324.20604400634767 300.13797760009766 335.0439819335937 300.13797760009766 343.7087600708008 295.0394104003906 352.42926025390625 289.9408432006836 356.49696960449216 281.1646209716797 340.6161865234375 267.62416381835936 316.37709655761716 265.4788650512695 302.3072799682617 264.22511901855466 289.12901611328124 266.7883331298828 Z"/>

<path id="Layer0_0_MEMBER_0_MEMBER_1_MEMBER_6_MEMBER_1_1_STROKES" stroke="#000000" stroke-width="6.7" stroke-linejoin="round" stroke-linecap="butt" fill="none" d="
M 323.06374206542966 228.25653839111328
Q 308.715315246582 228.25653839111328 298.79679107666016 239.20592041015624 289.0732940673828 249.90455322265623 289.0732940673828 264.78233947753904
L 289.12901611328124 266.7883331298828
Q 302.3072799682617 264.22511901855466 316.37709655761716 265.4788650512695 340.6161865234375 267.62416381835936 356.49696960449216 281.1646209716797 359.42237701416013 274.8958908081055 359.42237701416013 267.48485870361327 359.42237701416013 260.26885375976565 356.46910858154297 253.1085708618164 353.59942321777345 246.17117614746093 348.5287170410156 240.54324951171876 343.37442779541016 234.8317398071289 336.9385314941406 231.62772216796876 330.14044189453125 228.25653839111328 323.06374206542966 228.25653839111328 Z"/>

<path id="Layer0_0_MEMBER_0_MEMBER_2_1_STROKES" stroke="#000000" stroke-width="6.7" stroke-linejoin="miter" stroke-linecap="butt" stroke-miterlimit="10" fill="none" d="
M 227.4168502807617 488.5899368286133
Q 230.89947814941405 488.5899368286133 233.85274658203124 494.802944946289 236.77815399169924 500.96023101806645 237.02890319824218 508.677734375 237.2796524047851 516.0887664794922 235.3851028442383 520.2121978759766 233.62985839843748 524.0570190429687 230.39797973632812 524.1963241577148 227.13824005126952 524.3356292724609 223.29341888427734 518.874868774414 219.30929260253905 513.1912200927734 219.11426544189453 507.25682220458987 218.91923828125 501.04381408691404 221.64961853027341 494.8308059692383 224.37999877929687 488.5899368286133 227.4168502807617 488.5899368286133 Z"/>

<path id="Layer0_0_MEMBER_0_MEMBER_3_1_STROKES" stroke="#000000" stroke-width="6.7" stroke-linejoin="miter" stroke-linecap="butt" stroke-miterlimit="10" fill="none" d="
M 221.48245239257812 495.1651382446289
Q 220.5908996582031 494.49647369384763 216.77393951416013 490.7909576416016 213.82067108154297 487.92127227783203 212.37189788818358 487.50335693359375 209.4464904785156 486.639665222168 205.8524185180664 491.1252899169922 201.8404312133789 496.14027404785156 201.42251586914062 503.52344512939453 201.00460052490234 511.0180603027344 204.2364791870117 516.6181259155273 207.1897476196289 521.6888320922851 210.47734832763672 521.549526977539 213.4027557373047 521.4102218627929 216.52319030761717 518.0668991088867 218.0555465698242 516.3395156860352 218.75207214355467 515.6429901123047 219.89437408447264 514.4728271484375 220.75806579589843 514.277799987793 219.19784851074218 510.5444229125976 219.11426544189453 507.25682220458987 219.00282135009763 504.3592758178711 219.6714859008789 501.07167510986324 220.31228942871093 497.9512405395508 221.48245239257812 495.1651382446289 Z"/>

<path id="Layer0_0_MEMBER_0_MEMBER_4_1_STROKES" stroke="#000000" stroke-width="6.7" stroke-linejoin="miter" stroke-linecap="butt" stroke-miterlimit="10" fill="none" d="
M 307.7680404663086 508.5941513061523
Q 307.7680404663086 515.1136306762695 311.52927856445314 521.1316116333007 315.1512115478516 526.9545654296875 318.71742248535156 527.010287475586 322.2000503540039 527.0660095214844 324.4567932128906 522.1346084594727 326.546369934082 517.6211227416992 326.60209197998046 511.4081146240235 326.6856750488281 505.00007934570317 324.37321014404296 499.5393188476562 321.8099960327148 493.4377548217774 317.96517486572264 493.4934768676758 313.8417434692383 493.5491989135742 310.83275299072267 498.0069625854492 307.7680404663086 502.4925872802735 307.7680404663086 508.5941513061523 Z"/>

<path id="Layer0_0_MEMBER_0_MEMBER_5_1_STROKES" stroke="#000000" stroke-width="6.7" stroke-linejoin="miter" stroke-linecap="butt" stroke-miterlimit="10" fill="none" d="
M 334.48676147460935 492.8248123168945
Q 332.2857406616211 492.9083953857422 329.47177734375 496.00096893310547 327.8836990356445 497.728352355957 325.04187469482423 501.29456329345703 326.6578140258789 506.1145202636719 326.60209197998046 511.4081146240235 326.57423095703126 515.8937393188477 325.3483459472656 519.8221435546875 326.88070220947264 521.8559982299805 328.6359466552734 523.081883239746 330.55835723876953 524.3913513183594 332.3414627075195 524.4470733642578 335.93553466796874 524.5863784790039 338.77735900878906 520.7415573120118 341.7306274414062 516.7574310302734 342.03709869384767 510.7394500732422 342.37143096923825 504.1085266113281 340.3097152709961 498.64776611328125 338.0808334350586 492.7133682250976 334.48676147460935 492.8248123168945 Z"/>

<path id="Layer0_0_MEMBER_0_MEMBER_9_1_STROKES" stroke="#000000" stroke-width="6.7" stroke-linejoin="miter" stroke-linecap="butt" stroke-miterlimit="10" fill="none" d="
M 210.72809753417968 344.96636352539065
Q 188.0213638305664 340.25785064697266 161.1354766845703 326.5780883789063 128.39877471923828 309.9171966552734 99.70192108154298 284.56366577148435 77.24593658447266 264.6987564086914 68.52543640136719 257.2320022583008 54.316314697265625 245.05673522949218 45.76298065185547 238.92731018066405 36.09520568847657 231.96205444335936 30.07722473144531 230.01178283691405 23.80849456787109 228.00578918457032 20.102978515625 230.9311965942383 16.202435302734376 234.02377014160155 16.926821899414062 245.3910675048828 17.679069519042965 257.2877243041992 23.223413085937498 271.8869003295898 29.54786529541016 288.464208984375 40.1629150390625 303.0076629638672 52.505348205566406 319.8635818481445 68.91549072265626 331.28660125732415 64.06767272949219 329.8935501098632 58.96910552978515 330.1721603393554 48.744110107421875 330.6736587524414 47.46250305175781 338.8926605224609 45.56795349121094 350.8171783447266 54.06556549072266 363.2431945800781 64.93136444091797 379.0961166381836 91.06500396728516 392.525129699707 88.64109497070312 392.274380493164 86.077880859375 393.026628112793 80.95145263671876 394.5032623291015 80.33851013183595 399.4346633911133 79.64198455810548 405.00686798095705 85.54852142333985 412.5293441772461 92.20730590820312 420.99909515380864 104.54973907470703 427.9086288452148 119.0931930541992 436.04404754638676 138.6794921875 440.19533996582027 161.52553100585936 445.07101898193355 189.24724884033202 444.0123001098633 187.8820587158203 434.6231353759765 187.8820587158203 424.59316711425777 187.8820587158203 404.2546203613281 194.59656524658203 382.3001342773438 200.5031021118164 363.07602844238284 210.72809753417968 344.96636352539065 Z"/>

<path id="Layer0_0_MEMBER_0_MEMBER_10_1_STROKES" stroke="#000000" stroke-width="6.7" stroke-linejoin="miter" stroke-linecap="butt" stroke-miterlimit="10" fill="none" d="
M 494.8548095703125 331.28660125732415
Q 511.26495208740226 319.8635818481445 523.6073852539063 303.0076629638672 534.2224349975587 288.464208984375 540.519026184082 271.8869003295898 546.0633697509767 257.2877243041992 546.8156173706055 245.3910675048828 547.5400039672852 234.02377014160155 543.6394607543946 230.9311965942383 539.9339447021486 228.00578918457032 533.6930755615234 230.01178283691405 527.6750946044923 231.96205444335936 517.9794586181641 238.92731018066405 509.42612457275396 245.0845962524414 495.2170028686524 257.2320022583008 486.44078063964844 264.75447845458984 464.04051818847654 284.56366577148435 433.0311996459961 311.9789123535156 397.6198394775391 329.08558044433596 368.7558197021484 342.988230895996 346.63416748046876 346.0808044433594 357.7228546142578 364.88699493408205 364.0751678466797 383.6931854248047 371.31903381347655 405.11831207275395 371.6812271118164 424.59316711425777 371.84839324951173 434.6509963989258 370.6225082397461 443.845133972168 399.3193618774414 445.34962921142574 423.00123138427733 440.64111633300786 443.2561950683594 436.60126800537114 458.3290084838867 428.4101272583008 471.1172180175781 421.4448715209961 478.02675170898436 412.7800933837891 484.1561767578125 405.11831207275395 483.4317901611328 399.4346633911133 482.81884765625 394.5032623291015 477.6924194335937 393.026628112793 476.07648010253905 392.5529907226562 474.23765258789064 392.4972686767578
L 472.7052963256836 392.525129699707
Q 498.83893585205084 379.0961166381836 509.67687377929684 363.2431945800781 518.1744857788086 350.8171783447266 516.307797241211 338.8926605224609 514.9983291625978 330.6736587524414 504.80119476318356 330.1721603393554 501.6250381469727 330.0049942016601 497.9195220947266 330.617936706543
L 494.8548095703125 331.28660125732415 Z"/>

<path id="Layer0_0_MEMBER_0_MEMBER_21_1_STROKES" stroke="#000000" stroke-width="6.7" stroke-linejoin="miter" stroke-linecap="butt" stroke-miterlimit="10" fill="none" d="
M 164.53452148437498 246.0040100097656
L 171.2490280151367 243.69154510498046
Q 180.24813842773438 240.9054428100586 191.67115783691406 238.6765609741211 228.19695892333982 231.51627807617186 275.05919952392577 232.37996978759764 324.5682373046875 233.29938354492188 359.8124313354492 241.6855514526367 373.1021392822266 244.83384704589844 381.1818359375 248.3443359375 388.3421188354492 251.4647705078125 388.3421188354492 253.38718109130858 388.3421188354492 258.792219543457 386.50329132080077 268.96149291992185 384.27440948486327 281.081037902832 381.8783615112305 281.081037902832 381.3490020751953 281.081037902832 373.9101089477539 278.12776947021484 364.4373611450195 274.3665313720703 354.65814208984375 271.6640121459961 320.9184432983398 262.24698638916016 277.120915222168 262.38629150390625 234.1034957885742 262.52559661865234 197.8563049316406 270.88390350341797 189.16366577148438 272.8898971557617 177.7963684082031 276.2332199096679 170.775390625 278.32279663085933 170.30175323486327 277.84915924072266 169.6052276611328 277.1526336669922 168.100732421875 272.5277038574219 166.56837615966796 267.7913299560547 165.34249114990234 262.35843048095705 162.08275146484374 248.01000366210937 164.53452148437498 246.0040100097656 Z"/>

<path id="Layer0_0_MEMBER_0_MEMBER_22_1_STROKES" stroke="#000000" stroke-width="6.7" stroke-linejoin="miter" stroke-linecap="butt" stroke-miterlimit="10" fill="none" d="
M 274.1955078125 261.99623718261716
Q 280.3806549072265 262.10768127441406 292.0822845458984 262.16340332031245 302.1401138305664 262.27484741210935 308.4645660400391 262.80420684814453 280.8821533203125 243.52437896728514 272.161653137207 238.06361846923826 257.11670074462893 228.67445373535156 238.81200866699214 220.62261810302735 229.4785659790039 216.52704772949218 221.37100830078123 210.87126007080076 217.7490753173828 208.36376800537107 217.08041076660155 207.97371368408204 215.35302734375 206.97071685791013 214.26644744873045 207.13788299560548 202.28620758056638 208.9488494873047 179.94166717529296 204.46322479248045 169.77239379882812 202.4015090942383 168.32362060546873 202.23434295654295 164.4230773925781 201.78856658935547 166.3454879760742 203.76669921874998 180.58247070312498 218.58876342773436 204.403645324707 237.84073028564453 217.24757690429686 248.2328918457031 236.66670989990234 263.3614273071289 253.74551696777343 262.35843048095705 254.38632049560545 262.3305694580078 265.1406753540039 261.8290710449219 274.1955078125 261.99623718261716 Z"/>

<path id="Layer0_0_MEMBER_0_MEMBER_23_1_STROKES" stroke="#000000" stroke-width="6.7" stroke-linejoin="round" stroke-linecap="round" fill="none" d="
M 171.61122131347656 286.90399169921875
L 180.58247070312498 291.69608764648433
Q 192.0333511352539 297.4354583740234 204.32006225585937 302.25541534423826 243.63196563720703 317.60683898925777 276.64727783203125 317.71828308105466 307.9073455810547 317.82972717285156 348.25010681152344 302.22755432128906 357.91788177490236 298.4941772460937 371.62550506591793 292.6433624267578 380.5967544555664 289.02142944335935 380.9589477539062 290.6930908203125 381.4604461669922 293.0334167480469 381.5161682128906 297.88123474121096 381.54402923583984 303.4813003540039 380.8475036621094 308.5241455078125 378.89723205566406 322.3710739135742 372.7120849609375 323.2904876708984 357.94574279785155 325.85370178222655 346.8849166870117 327.692529296875 325.84984436035154 331.17515716552737 308.60387115478517 332.8189575195312 255.472900390625 337.88966369628906 220.89737091064453 327.66466827392577 194.847314453125 319.97502593994136 192.9249038696289 319.3342224121094 182.89493560791016 316.04662170410154 179.07797546386718 312.9819091796875 175.20529327392578 309.83361358642577 173.81224212646484 303.7599105834961 173.22716064453124 301.2245574951172 171.61122131347656 286.90399169921875 Z"/>

<path id="Layer0_0_MEMBER_0_MEMBER_24_1_STROKES" stroke="#000000" stroke-width="6.7" stroke-linejoin="miter" stroke-linecap="butt" stroke-miterlimit="10" fill="none" d="
M 430.2450973510742 309.02564392089846
L 427.7654663085937 318.9998901367187
Q 424.227116394043 331.64879455566404 418.7942169189453 344.91064147949214 401.46466064453125 387.31511840820315 372.0434204101562 419.9682373046875
L 371.95983734130857 425.45685882568364
Q 371.9319763183594 431.92061614990234 372.3220306396484 437.0749053955078 373.54791564941405 453.4571868896485 378.3400115966797 449.86311492919924 389.93019714355466 441.19833679199223 403.3870712280273 424.4260009765625 417.73549804687497 406.5670852661133 435.3993865966797 377.98167572021487 444.1477478027344 363.8282760620117 452.7010818481445 345.3006958007812 460.64147338867184 328.1104446411133 466.3251220703125 311.81174621582034 471.9530487060547 295.6244918823242 473.3460998535156 286.040299987793 474.8505950927734 275.78744354248045 470.9221908569336 276.4561080932617 463.3161315917969 277.73771514892576 446.6552398681641 291.64036560058594 439.9128723144531 297.2682922363281 435.2322204589844 302.1718322753906 430.3844024658203 307.27039947509763 430.2450973510742 309.02564392089846 Z"/>

<path id="Layer0_0_MEMBER_0_MEMBER_25_1_STROKES" stroke="#000000" stroke-width="6.7" stroke-linejoin="miter" stroke-linecap="butt" stroke-miterlimit="10" fill="none" d="
M 398.06561584472655 328.0547225952148
L 398.2885040283203 341.9016510009766
Q 398.45567016601564 358.8132919311523 398.09347686767575 373.91396636962895 396.9511749267578 422.36428527832027 391.12822113037106 435.3475219726563 385.3052673339844 448.3307586669922 377.25343170166013 446.4083480834961 374.74593963623045 445.8232666015625 372.2941696166992 443.8172729492187
L 370.3717590332031 441.9227233886719
Q 369.6752334594726 417.4328842163086 369.7588165283203 392.274380493164 369.9538436889648 341.9016510009766 373.82652587890624 338.44688415527344 379.06439819335935 333.79409332275384 388.2863967895508 329.50349578857424 398.06561584472655 324.93428802490234 398.06561584472655 328.0547225952148 Z"/>

<path id="Layer0_0_MEMBER_0_MEMBER_26_1_STROKES" stroke="#000000" stroke-width="6.7" stroke-linejoin="miter" stroke-linecap="butt" stroke-miterlimit="10" fill="none" d="
M 128.1201644897461 304.5400192260742
L 130.32118530273436 311.19880371093745
Q 132.94012145996092 319.6128326416016 135.2525863647461 328.58408203125 142.63575744628906 357.2252136230469 143.778059387207 380.29414062499995 144.1681137084961 387.9001998901367 147.28854827880858 429.19023590087886 148.90448760986328 450.4203353881836 147.0099380493164 450.4203353881836 143.83378143310546 450.4203353881836 134.862532043457 446.6033752441406 125.11117401123046 442.4799438476563 124.99972991943359 439.8052856445313 124.3867874145508 423.5623092651367 120.76485443115233 401.9978775024414 114.60756835937501 365.33277130126953 102.23727416992188 334.12842559814453 87.80526428222656 297.65834655761716 82.09375457763672 278.8521560668945 76.43796691894532 260.21313171386714 81.00717468261719 264.44800720214846 94.40832672119141 276.7904403686523 114.07820892333983 291.41747741699214 121.29421386718751 296.7667938232422 123.74598388671875 298.96781463623046 127.42363891601563 302.22755432128906 128.1201644897461 304.5400192260742 Z"/>

<path id="Layer0_0_MEMBER_0_MEMBER_27_1_STROKES" stroke="#000000" stroke-width="6.7" stroke-linejoin="miter" stroke-linecap="butt" stroke-miterlimit="10" fill="none" d="
M 471.89732666015624 422.2249801635742
Q 481.676545715332 429.74745635986324 479.9770233154297 441.7276962280273 478.05461273193356 455.1288482666016 461.7280532836914 468.557861328125
L 468.08036651611326 467.97277984619143
Q 475.7421478271484 467.13694915771487 482.4009323120117 465.9389251708984 503.6867538452148 462.0383819580078 506.7236053466797 455.76965179443357 508.3952667236328 452.3148849487304 508.033073425293 446.5755142211914 507.67088012695314 440.36250610351567 505.02408294677736 433.87088775634766 498.39315948486325 417.6000503540039 482.0666000366211 408.96313323974607 479.4476638793945 415.5104736328125 471.89732666015624 422.2249801635742 Z"/>

<path id="Layer0_0_MEMBER_0_MEMBER_28_1_STROKES" stroke="#000000" stroke-width="6.7" stroke-linejoin="miter" stroke-linecap="butt" stroke-miterlimit="10" fill="none" d="
M 209.11215820312498 347.8639099121093
Q 207.41263580322266 344.63203124999995 203.9021469116211 342.59817657470705 199.7508544921875 340.17426757812495 190.02735748291013 336.9702499389648 183.81434936523436 334.9085342407226 180.0252502441406 333.93339843749993 178.32572784423826 333.51548309326165 176.04112396240234 341.1772644042968 173.86796417236326 348.3654083251953 171.8341094970703 360.34564819335935 167.18131866455076 387.816616821289 167.54351196289062 408.183024597168 168.01714935302732 434.7903015136719 170.38533630371091 443.23219146728513 171.47191619873047 447.04915161132817 173.1714385986328 448.4700637817383 174.45304565429686 449.55664367675786 176.8769546508789 449.72380981445315 179.5794738769531 449.89097595214844 183.95365447998046 449.61236572265625 186.32184143066405 449.44519958496096 190.7238830566406 449.0272842407227 189.05222167968748 442.1177505493164 188.4950012207031 437.4370986938477 187.8820587158203 432.3385314941406 187.8820587158203 424.59316711425777 187.8820587158203 405.11831207275395 194.06720581054685 384.0553787231445 199.52796630859373 365.5556594848633 209.11215820312498 347.8639099121093 Z"/>

<path id="Layer0_0_MEMBER_0_MEMBER_29_1_STROKES" stroke="#000000" stroke-width="6.7" stroke-linejoin="miter" stroke-linecap="butt" stroke-miterlimit="10" fill="none" d="
M 172.6978012084961 328.36119384765624
Q 170.1903091430664 325.6865356445312 161.4140869140625 321.9531585693359 152.55428161621091 318.21978149414065 152.55428161621091 320.05860900878906
L 149.57315216064453 335.71650390624995
Q 145.83977508544922 353.24108734130857 142.0785369873047 362.57453002929685 143.33228302001953 371.57364044189455 143.778059387207 380.29414062499995 144.39100189208983 392.9709060668945 145.9512191772461 412.3064559936523 150.35326080322264 404.4217864990235 154.4488311767578 394.8375946044922 160.4110900878906 380.82350006103513 164.53452148437498 365.527798461914 167.15345764160156 355.91574554443355 169.96742095947263 346.58230285644527 173.0042724609375 336.4966125488281 173.11571655273437 336.13441925048824 174.09085235595703 332.5682083129883 174.00726928710935 331.09157409667966 173.9236862182617 329.67066192626953 172.6978012084961 328.36119384765624 Z"/>

<path id="Layer0_0_MEMBER_0_MEMBER_30_MEMBER_1_1_STROKES" stroke="#000000" stroke-width="6.7" stroke-linejoin="miter" stroke-linecap="butt" stroke-miterlimit="10" fill="none" d="
M 279.1269088745117 286.040299987793
Q 286.2871917724609 286.3189102172852 290.7170944213867 288.2691818237305 295.64849548339845 290.47020263671874 295.81566162109374 294.2593017578125 296.0942718505859 300.8623641967773 287.9867141723633 313.70629577636714 284.9498626708984 318.52625274658203 281.9408721923828 322.2317687988281 279.04332580566404 325.7979797363281 278.2074951171875 325.8815628051758 277.3716644287109 325.99300689697264 274.72486724853513 322.84471130371094 271.9944869995117 319.5571105957031 269.20838470458983 315.0157638549805 261.7973526000976 302.9519409179687 261.8530746459961 295.1787155151367 261.8809356689453 290.2194534301758 267.2302520751953 287.82340545654296 271.8551818847656 285.7616897583008 279.1269088745117 286.040299987793 Z"/>

<path id="Layer0_0_MEMBER_0_MEMBER_31_1_STROKES" stroke="#000000" stroke-width="6.7" stroke-linejoin="miter" stroke-linecap="butt" stroke-miterlimit="10" fill="none" d="
M 366.9169921875 375.80851593017576
L 368.70009765624997 379.1796997070312
Q 370.7896743774414 383.3031311035156 372.3220306396484 387.12009124755855 377.25343170166013 399.3232192993164 374.85738372802734 403.8367050170898 373.15786132812497 407.06858367919926 366.3040496826172 413.89453430175786 358.1407699584961 422.0299530029297 347.2471099853515 430.3046768188476 317.1572052001953 453.1785766601563 282.6652587890625 465.18667755126955 245.58223724365234 478.05847015380857 217.52618713378905 482.181901550293 205.65739135742186 483.9371459960937 198.49710845947266 483.54709167480473 191.53185272216797 483.15703735351565 190.8353271484375 480.87243347167964 187.10195007324216 468.7250274658203 184.0372375488281 453.65221405029297 179.32872467041014 430.6668701171875 183.45215606689453 429.19023590087886 184.4272918701172 428.8559036254883 189.74874725341795 428.6330154418945 193.03634796142578 428.4937103271484 202.92701110839843 428.1036560058594 225.16010742187498 427.01707611083987 244.99715576171877 423.7016143798828 311.25066833496095 412.6129272460937 357.4163833618164 377.0622619628906
L 366.9169921875 375.80851593017576 Z"/>

<path id="Layer0_0_MEMBER_0_MEMBER_32_1_STROKES" stroke="#000000" stroke-width="6.7" stroke-linejoin="miter" stroke-linecap="butt" stroke-miterlimit="10" fill="none" d="
M 179.66305694580078 343.6847564697265
Q 177.90781249999998 345.4400009155273 178.49289398193358 349.47984924316404 179.5516128540039 356.863020324707 188.7736114501953 368.5089279174805 203.67925872802732 387.37084045410154 208.6942428588867 392.77587890625 218.11126861572265 402.88943023681645 229.14423370361328 409.57607574462895 238.95131378173824 415.5104736328125 248.20117340087893 423.17225494384763 278.402522277832 417.7950775146485 304.73118896484374 407.06858367919926 286.8444122314453 401.4127960205078 271.32582244873043 393.89031982421875 246.4459289550781 381.826496887207 236.80601501464844 368.84326019287107 228.05765380859373 366.3636291503906 221.06453704833984 363.6611099243164 198.3020812988281 354.9684707641601 194.06720581054685 353.0739212036133 183.8422103881836 348.5047134399414 179.66305694580078 343.6847564697265 Z"/>

<path id="Layer0_0_MEMBER_0_MEMBER_33_1_STROKES" stroke="#000000" stroke-width="6.7" stroke-linejoin="miter" stroke-linecap="butt" stroke-miterlimit="10" fill="none" d="
M 204.2086181640625 483.965007019043
L 212.62264709472655 484.6615325927735
Q 223.32127990722654 485.33019714355464 234.54927215576174 485.33019714355464 270.5178527832031 485.33019714355464 298.68534698486326 478.44852447509766 334.90467681884763 469.58871917724605 358.58654632568357 452.09199676513674 363.9080017089844 448.1357315063476 369.6752334594726 443.28791351318364 371.48619995117184 442.0063064575195 372.34989166259766 442.0341674804688 373.3250274658203 442.062028503418 373.82652587890624 443.6501068115234 376.02754669189454 450.5039184570312 374.46732940673826 463.09710083007815 372.8513900756836 476.30322570800786 368.4772094726562 481.6246810913086 363.15575408935547 488.1162994384765 346.1048080444336 493.1591445922852 329.47177734375 498.0626846313477 305.76204681396484 500.4030105590821 281.3000686645508 502.82691955566406 255.1942901611328 501.9075057983398 227.1103790283203 500.96023101806645 202.23048553466796 496.25171813964846 200.72599029541016 495.9731079101563 202.1747634887695 490.8466796875 204.04145202636718 485.19089202880855 204.2086181640625 483.965007019043 Z"/>

<path id="Layer0_0_MEMBER_0_MEMBER_34_1_STROKES" stroke="#000000" stroke-width="6.7" stroke-linejoin="miter" stroke-linecap="butt" stroke-miterlimit="10" fill="none" d="
M 173.08785552978514 309.6943084716797
L 181.58546752929686 315.2943740844727
Q 192.4791275024414 322.092463684082 204.2364791870117 327.9990005493164 241.9603042602539 346.91663513183596 274.8084503173828 350.0649307250976 305.9570739746094 353.0460601806641 347.55358123779297 341.2329864501953 357.4999664306641 338.39116210937493 371.70908813476564 333.84981536865234 380.9589477539062 331.06371307373047 381.1818359375 332.7632354736328 381.54402923583984 335.68864288330076 380.8475036621094 342.12453918457027 379.98381195068356 350.3992630004883 377.72706909179686 357.5595458984375 371.15186767578126 378.51103515625005 356.2740814208984 380.29414062499995 346.94063873291014 381.4085815429687 331.50563201904293 381.2414154052734 314.56613006591795 381.04638824462893 296.45646514892576 379.3468658447266 250.764387512207 375.0284072875977 221.06453704833984 363.6611099243164 198.8593017578125 355.1913589477539 194.9866195678711 353.49183654785156 184.87306823730466 349.06193389892576 180.55460968017576 344.63203124999995 175.92967987060547 339.92351837158196 174.39732360839844 331.81596069335933 173.08785552978514 325.01787109375 173.08785552978514 309.6943084716797 Z"/>
</defs>

<g transform="matrix( 0.557220458984375, 0, 0, 0.557220458984375, -21.8,73.6) ">
<use xlink:href="#Layer0_0_MEMBER_0_MEMBER_0_FILL"/>

<use xlink:href="#Layer0_0_MEMBER_0_MEMBER_0_1_STROKES" transform="matrix( 1.79461669921875, 0, 0, 1.79461669921875, 39.1,-132.05) "/>
</g>

<g transform="matrix( 0.557220458984375, 0, 0, 0.557220458984375, -21.8,73.6) ">
<use xlink:href="#Layer0_0_MEMBER_0_MEMBER_1_MEMBER_0_FILL"/>

<use xlink:href="#Layer0_0_MEMBER_0_MEMBER_1_MEMBER_0_1_STROKES" transform="matrix( 1.79461669921875, 0, 0, 1.79461669921875, 39.1,-132.05) "/>
</g>

<g transform="matrix( 0.557220458984375, 0, 0, 0.557220458984375, -21.8,73.6) ">
<use xlink:href="#Layer0_0_MEMBER_0_MEMBER_1_MEMBER_1_FILL"/>

<use xlink:href="#Layer0_0_MEMBER_0_MEMBER_1_MEMBER_1_1_STROKES" transform="matrix( 1.79461669921875, 0, 0, 1.79461669921875, 39.1,-132.05) "/>
</g>

<g transform="matrix( 0.557220458984375, 0, 0, 0.557220458984375, -21.8,73.6) ">
<use xlink:href="#Layer0_0_MEMBER_0_MEMBER_1_MEMBER_2_MEMBER_0_FILL"/>

<use xlink:href="#Layer0_0_MEMBER_0_MEMBER_1_MEMBER_2_MEMBER_0_1_STROKES" transform="matrix( 1.79461669921875, 0, 0, 1.79461669921875, 39.1,-132.05) "/>
</g>

<g transform="matrix( 0.557220458984375, 0, 0, 0.557220458984375, -21.8,73.6) ">
<use xlink:href="#Layer0_0_MEMBER_0_MEMBER_1_MEMBER_2_MEMBER_1_FILL"/>

<use xlink:href="#Layer0_0_MEMBER_0_MEMBER_1_MEMBER_2_MEMBER_1_1_STROKES" transform="matrix( 1.79461669921875, 0, 0, 1.79461669921875, 39.1,-132.05) "/>
</g>

<g transform="matrix( 0.557220458984375, 0, 0, 0.557220458984375, -21.8,73.6) ">
<use xlink:href="#Layer0_0_MEMBER_0_MEMBER_1_MEMBER_3_MEMBER_0_FILL"/>
</g>

<g transform="matrix( 0.557220458984375, 0, 0, 0.557220458984375, -21.8,73.6) ">
<use xlink:href="#Layer0_0_MEMBER_0_MEMBER_1_MEMBER_4_MEMBER_0_FILL"/>

<use xlink:href="#Layer0_0_MEMBER_0_MEMBER_1_MEMBER_4_MEMBER_0_1_STROKES" transform="matrix( 1.79461669921875, 0, 0, 1.79461669921875, 39.1,-132.05) "/>
</g>

<g transform="matrix( 0.557220458984375, 0, 0, 0.557220458984375, -21.8,73.6) ">
<use xlink:href="#Layer0_0_MEMBER_0_MEMBER_1_MEMBER_4_MEMBER_1_FILL"/>

<use xlink:href="#Layer0_0_MEMBER_0_MEMBER_1_MEMBER_4_MEMBER_1_1_STROKES" transform="matrix( 1.79461669921875, 0, 0, 1.79461669921875, 39.1,-132.05) "/>
</g>

<g transform="matrix( 0.557220458984375, 0, 0, 0.557220458984375, -21.8,73.6) ">
<use xlink:href="#Layer0_0_MEMBER_0_MEMBER_1_MEMBER_4_MEMBER_2_FILL"/>

<use xlink:href="#Layer0_0_MEMBER_0_MEMBER_1_MEMBER_4_MEMBER_2_1_STROKES" transform="matrix( 1.79461669921875, 0, 0, 1.79461669921875, 39.1,-132.05) "/>
</g>

<g transform="matrix( 0.557220458984375, 0, 0, 0.557220458984375, -21.8,73.6) ">
<use xlink:href="#Layer0_0_MEMBER_0_MEMBER_1_MEMBER_5_MEMBER_0_FILL"/>

<use xlink:href="#Layer0_0_MEMBER_0_MEMBER_1_MEMBER_5_MEMBER_0_1_STROKES" transform="matrix( 1.79461669921875, 0, 0, 1.79461669921875, 39.1,-132.05) "/>
</g>

<g transform="matrix( 0.557220458984375, 0, 0, 0.557220458984375, -21.8,73.6) ">
<use xlink:href="#Layer0_0_MEMBER_0_MEMBER_1_MEMBER_5_MEMBER_1_FILL"/>

<use xlink:href="#Layer0_0_MEMBER_0_MEMBER_1_MEMBER_5_MEMBER_1_1_STROKES" transform="matrix( 1.79461669921875, 0, 0, 1.79461669921875, 39.1,-132.05) "/>
</g>

<g transform="matrix( 0.557220458984375, 0, 0, 0.557220458984375, -21.8,73.6) ">
<use xlink:href="#Layer0_0_MEMBER_0_MEMBER_1_MEMBER_6_MEMBER_0_FILL"/>

<use xlink:href="#Layer0_0_MEMBER_0_MEMBER_1_MEMBER_6_MEMBER_0_1_STROKES" transform="matrix( 1.79461669921875, 0, 0, 1.79461669921875, 39.1,-132.05) "/>
</g>

<g transform="matrix( 0.557220458984375, 0, 0, 0.557220458984375, -21.8,73.6) ">
<use xlink:href="#Layer0_0_MEMBER_0_MEMBER_1_MEMBER_6_MEMBER_1_FILL"/>

<use xlink:href="#Layer0_0_MEMBER_0_MEMBER_1_MEMBER_6_MEMBER_1_1_STROKES" transform="matrix( 1.79461669921875, 0, 0, 1.79461669921875, 39.1,-132.05) "/>
</g>

<g transform="matrix( 0.557220458984375, 0, 0, 0.557220458984375, -21.8,73.6) ">
<use xlink:href="#Layer0_0_MEMBER_0_MEMBER_1_MEMBER_7_FILL"/>
</g>

<g transform="matrix( 0.557220458984375, 0, 0, 0.557220458984375, -21.8,73.6) ">
<use xlink:href="#Layer0_0_MEMBER_0_MEMBER_1_MEMBER_8_FILL"/>
</g>

<g transform="matrix( 0.557220458984375, 0, 0, 0.557220458984375, -21.8,73.6) ">
<use xlink:href="#Layer0_0_MEMBER_0_MEMBER_1_MEMBER_9_MEMBER_0_FILL"/>
</g>

<g transform="matrix( 0.557220458984375, 0, 0, 0.557220458984375, -21.8,73.6) ">
<use xlink:href="#Layer0_0_MEMBER_0_MEMBER_1_MEMBER_10_MEMBER_0_FILL"/>
</g>

<g transform="matrix( 0.557220458984375, 0, 0, 0.557220458984375, 200.1,350.2) ">
<g transform="matrix( 1, 0, 0, 1, 0,0) ">
<use filter="url(#Filter_1)" xlink:href="#flash0_ai_Assets_8_Layer_1__Path__4_0_Layer0_0_FILL"/>
</g>
</g>

<g transform="matrix( 0.557220458984375, 0, 0, 0.557220458984375, -21.8,73.6) ">
<use xlink:href="#Layer0_0_MEMBER_0_MEMBER_1_MEMBER_12_MEMBER_0_FILL"/>
</g>

<g transform="matrix( 0.557220458984375, 0, 0, 0.557220458984375, -21.8,73.6) ">
<use xlink:href="#Layer0_0_MEMBER_0_MEMBER_1_MEMBER_13_MEMBER_0_FILL"/>
</g>

<g transform="matrix( 0.557220458984375, 0, 0, 0.557220458984375, 341.05,495.05) ">
<g transform="matrix( 1, 0, 0, 1, 0,0) ">
<use filter="url(#Filter_1)" xlink:href="#flash0_ai_Assets_8_Layer_1__Path__3_0_Layer0_0_FILL"/>
</g>
</g>

<g transform="matrix( 0.557220458984375, 0, 0, 0.557220458984375, 365.85,246.5) ">
<g transform="matrix( 1, 0, 0, 1, 0,0) ">
<use filter="url(#Filter_1)" xlink:href="#flash0_ai_Assets_8_Layer_1__Path__2_0_Layer0_0_FILL"/>
</g>
</g>

<g transform="matrix( 0.557220458984375, 0, 0, 0.557220458984375, 171.75,247.75) ">
<g transform="matrix( 1, 0, 0, 1, 0,0) ">
<use filter="url(#Filter_1)" xlink:href="#flash0_ai_Assets_8_Layer_1__Path__1_0_Layer0_0_FILL"/>
</g>
</g>

<g transform="matrix( 0.557220458984375, 0, 0, 0.557220458984375, 207.85,316.05) ">
<g transform="matrix( 1, 0, 0, 1, 0,0) ">
<use filter="url(#Filter_1)" xlink:href="#flash0_ai_Assets_8_Layer_1__Path__0_Layer0_0_FILL"/>
</g>
</g>

<g transform="matrix( 0.557220458984375, 0, 0, 0.557220458984375, -21.8,73.6) ">
<use xlink:href="#Layer0_0_MEMBER_0_MEMBER_2_FILL"/>

<use xlink:href="#Layer0_0_MEMBER_0_MEMBER_2_1_STROKES" transform="matrix( 1.79461669921875, 0, 0, 1.79461669921875, 39.1,-132.05) "/>
</g>

<g transform="matrix( 0.557220458984375, 0, 0, 0.557220458984375, -21.8,73.6) ">
<use xlink:href="#Layer0_0_MEMBER_0_MEMBER_3_FILL"/>

<use xlink:href="#Layer0_0_MEMBER_0_MEMBER_3_1_STROKES" transform="matrix( 1.79461669921875, 0, 0, 1.79461669921875, 39.1,-132.05) "/>
</g>

<g transform="matrix( 0.557220458984375, 0, 0, 0.557220458984375, -21.8,73.6) ">
<use xlink:href="#Layer0_0_MEMBER_0_MEMBER_4_FILL"/>

<use xlink:href="#Layer0_0_MEMBER_0_MEMBER_4_1_STROKES" transform="matrix( 1.79461669921875, 0, 0, 1.79461669921875, 39.1,-132.05) "/>
</g>

<g transform="matrix( 0.557220458984375, 0, 0, 0.557220458984375, -21.8,73.6) ">
<use xlink:href="#Layer0_0_MEMBER_0_MEMBER_5_FILL"/>

<use xlink:href="#Layer0_0_MEMBER_0_MEMBER_5_1_STROKES" transform="matrix( 1.79461669921875, 0, 0, 1.79461669921875, 39.1,-132.05) "/>
</g>

<g transform="matrix( 0.557220458984375, 0, 0, 0.557220458984375, 196.55,482.85) ">
<g transform="matrix( 1, 0, 0, 1, 0,0) ">
<use filter="url(#Filter_1)" xlink:href="#flash0_ai_Assets_8_Layer_1__Path__24_0_Layer0_0_FILL"/>
</g>
</g>

<g transform="matrix( 0.557220458984375, 0, 0, 0.557220458984375, 204.5,481.85) ">
<g transform="matrix( 1, 0, 0, 1, 0,0) ">
<use filter="url(#Filter_1)" xlink:href="#flash0_ai_Assets_8_Layer_1__Path__23_0_Layer0_0_FILL"/>
</g>
</g>

<g transform="matrix( 0.557220458984375, 0, 0, 0.557220458984375, 290.95,487.45) ">
<g transform="matrix( 1, 0, 0, 1, 0,0) ">
<use filter="url(#Filter_1)" xlink:href="#flash0_ai_Assets_8_Layer_1__Path__22_0_Layer0_0_FILL"/>
</g>
</g>

<g transform="matrix( 0.557220458984375, 0, 0, 0.557220458984375, -21.8,73.6) ">
<use xlink:href="#Layer0_0_MEMBER_0_MEMBER_9_FILL"/>

<use xlink:href="#Layer0_0_MEMBER_0_MEMBER_9_1_STROKES" transform="matrix( 1.79461669921875, 0, 0, 1.79461669921875, 39.1,-132.05) "/>
</g>

<g transform="matrix( 0.557220458984375, 0, 0, 0.557220458984375, -21.8,73.6) ">
<use xlink:href="#Layer0_0_MEMBER_0_MEMBER_10_FILL"/>

<use xlink:href="#Layer0_0_MEMBER_0_MEMBER_10_1_STROKES" transform="matrix( 1.79461669921875, 0, 0, 1.79461669921875, 39.1,-132.05) "/>
</g>

<g transform="matrix( 0.557220458984375, 0, 0, 0.557220458984375, -21.8,73.6) ">
<use xlink:href="#Layer0_0_MEMBER_0_MEMBER_11_MEMBER_0_FILL"/>
</g>

<g transform="matrix( 0.557220458984375, 0, 0, 0.557220458984375, -21.8,73.6) ">
<use xlink:href="#Layer0_0_MEMBER_0_MEMBER_12_MEMBER_0_FILL"/>
</g>

<g transform="matrix( 0.557220458984375, 0, 0, 0.557220458984375, -21.8,73.6) ">
<use xlink:href="#Layer0_0_MEMBER_0_MEMBER_13_MEMBER_0_FILL"/>
</g>

<g transform="matrix( 0.557220458984375, 0, 0, 0.557220458984375, -21.8,73.6) ">
<use xlink:href="#Layer0_0_MEMBER_0_MEMBER_14_MEMBER_0_FILL"/>
</g>

<g transform="matrix( 0.557220458984375, 0, 0, 0.557220458984375, 176.4,342) ">
<g transform="matrix( 1, 0, 0, 1, 0,0) ">
<use filter="url(#Filter_1)" xlink:href="#flash0_ai_Assets_8_Layer_1__Path__19_0_Layer0_0_FILL"/>
</g>
</g>

<g transform="matrix( 0.557220458984375, 0, 0, 0.557220458984375, 346.6,343.05) ">
<g transform="matrix( 1, 0, 0, 1, 0,0) ">
<use filter="url(#Filter_1)" xlink:href="#flash0_ai_Assets_8_Layer_1__Path__18_0_Layer0_0_FILL"/>
</g>
</g>

<g transform="matrix( 0.557220458984375, 0, 0, 0.557220458984375, 49.95,330.15) ">
<g transform="matrix( 1, 0, 0, 1, 0,0) ">
<use filter="url(#Filter_1)" xlink:href="#flash0_ai_Assets_8_Layer_1__Path__17_0_Layer0_0_FILL"/>
</g>
</g>

<g transform="matrix( 0.557220458984375, 0, 0, 0.557220458984375, 81.05,392.65) ">
<g transform="matrix( 1, 0, 0, 1, 0,0) ">
<use filter="url(#Filter_1)" xlink:href="#flash0_ai_Assets_8_Layer_1__Path__16_0_Layer0_0_FILL"/>
</g>
</g>

<g transform="matrix( 0.557220458984375, 0, 0, 0.557220458984375, 387.3,329.9) ">
<g transform="matrix( 1, 0, 0, 1, 0,0) ">
<use filter="url(#Filter_1)" xlink:href="#flash0_ai_Assets_8_Layer_1__Path__15_0_Layer0_0_FILL"/>
</g>
</g>

<g transform="matrix( 0.557220458984375, 0, 0, 0.557220458984375, 392.45,392.85) ">
<g transform="matrix( 1, 0, 0, 1, 0,0) ">
<use filter="url(#Filter_1)" xlink:href="#flash0_ai_Assets_8_Layer_1__Path__14_0_Layer0_0_FILL"/>
</g>
</g>

<g transform="matrix( 0.557220458984375, 0, 0, 0.557220458984375, -21.8,73.6) ">
<use xlink:href="#Layer0_0_MEMBER_0_MEMBER_21_FILL"/>

<use xlink:href="#Layer0_0_MEMBER_0_MEMBER_21_1_STROKES" transform="matrix( 1.79461669921875, 0, 0, 1.79461669921875, 39.1,-132.05) "/>
</g>

<g transform="matrix( 0.557220458984375, 0, 0, 0.557220458984375, -21.8,73.6) ">
<use xlink:href="#Layer0_0_MEMBER_0_MEMBER_22_FILL"/>

<use xlink:href="#Layer0_0_MEMBER_0_MEMBER_22_1_STROKES" transform="matrix( 1.79461669921875, 0, 0, 1.79461669921875, 39.1,-132.05) "/>
</g>

<g transform="matrix( 0.557220458984375, 0, 0, 0.557220458984375, -21.8,73.6) ">
<use xlink:href="#Layer0_0_MEMBER_0_MEMBER_23_FILL"/>

<use xlink:href="#Layer0_0_MEMBER_0_MEMBER_23_1_STROKES" transform="matrix( 1.79461669921875, 0, 0, 1.79461669921875, 39.1,-132.05) "/>
</g>

<g transform="matrix( 0.557220458984375, 0, 0, 0.557220458984375, -21.8,73.6) ">
<use xlink:href="#Layer0_0_MEMBER_0_MEMBER_24_FILL"/>

<use xlink:href="#Layer0_0_MEMBER_0_MEMBER_24_1_STROKES" transform="matrix( 1.79461669921875, 0, 0, 1.79461669921875, 39.1,-132.05) "/>
</g>

<g transform="matrix( 0.557220458984375, 0, 0, 0.557220458984375, -21.8,73.6) ">
<use xlink:href="#Layer0_0_MEMBER_0_MEMBER_25_FILL"/>

<use xlink:href="#Layer0_0_MEMBER_0_MEMBER_25_1_STROKES" transform="matrix( 1.79461669921875, 0, 0, 1.79461669921875, 39.1,-132.05) "/>
</g>

<g transform="matrix( 0.557220458984375, 0, 0, 0.557220458984375, -21.8,73.6) ">
<use xlink:href="#Layer0_0_MEMBER_0_MEMBER_26_FILL"/>

<use xlink:href="#Layer0_0_MEMBER_0_MEMBER_26_1_STROKES" transform="matrix( 1.79461669921875, 0, 0, 1.79461669921875, 39.1,-132.05) "/>
</g>

<g transform="matrix( 0.557220458984375, 0, 0, 0.557220458984375, -21.8,73.6) ">
<use xlink:href="#Layer0_0_MEMBER_0_MEMBER_27_FILL"/>

<use xlink:href="#Layer0_0_MEMBER_0_MEMBER_27_1_STROKES" transform="matrix( 1.79461669921875, 0, 0, 1.79461669921875, 39.1,-132.05) "/>
</g>

<g transform="matrix( 0.557220458984375, 0, 0, 0.557220458984375, -21.8,73.6) ">
<use xlink:href="#Layer0_0_MEMBER_0_MEMBER_28_FILL"/>

<use xlink:href="#Layer0_0_MEMBER_0_MEMBER_28_1_STROKES" transform="matrix( 1.79461669921875, 0, 0, 1.79461669921875, 39.1,-132.05) "/>
</g>

<g transform="matrix( 0.557220458984375, 0, 0, 0.557220458984375, -21.8,73.6) ">
<use xlink:href="#Layer0_0_MEMBER_0_MEMBER_29_FILL"/>

<use xlink:href="#Layer0_0_MEMBER_0_MEMBER_29_1_STROKES" transform="matrix( 1.79461669921875, 0, 0, 1.79461669921875, 39.1,-132.05) "/>
</g>

<g transform="matrix( 0.557220458984375, 0, 0, 0.557220458984375, 257.7,284.4) ">
<g transform="matrix( 1, 0, 0, 1, 0,0) ">
<use filter="url(#Filter_1)" xlink:href="#flash0_ai_Assets_8_Layer_1__Path__1_0_0_Layer0_0_FILL"/>
</g>
</g>

<g transform="matrix( 0.557220458984375, 0, 0, 0.557220458984375, -21.8,73.6) ">
<use xlink:href="#Layer0_0_MEMBER_0_MEMBER_30_MEMBER_1_FILL"/>

<use xlink:href="#Layer0_0_MEMBER_0_MEMBER_30_MEMBER_1_1_STROKES" transform="matrix( 1.79461669921875, 0, 0, 1.79461669921875, 39.1,-132.05) "/>
</g>

<g transform="matrix( 0.557220458984375, 0, 0, 0.557220458984375, -21.8,73.6) ">
<use xlink:href="#Layer0_0_MEMBER_0_MEMBER_30_MEMBER_2_MEMBER_0_FILL"/>
</g>

<g transform="matrix( 0.557220458984375, 0, 0, 0.557220458984375, -21.8,73.6) ">
<use xlink:href="#Layer0_0_MEMBER_0_MEMBER_31_FILL"/>

<use xlink:href="#Layer0_0_MEMBER_0_MEMBER_31_1_STROKES" transform="matrix( 1.79461669921875, 0, 0, 1.79461669921875, 39.1,-132.05) "/>
</g>

<g transform="matrix( 0.557220458984375, 0, 0, 0.557220458984375, -21.8,73.6) ">
<use xlink:href="#Layer0_0_MEMBER_0_MEMBER_32_FILL"/>

<use xlink:href="#Layer0_0_MEMBER_0_MEMBER_32_1_STROKES" transform="matrix( 1.79461669921875, 0, 0, 1.79461669921875, 39.1,-132.05) "/>
</g>

<g transform="matrix( 0.557220458984375, 0, 0, 0.557220458984375, -21.8,73.6) ">
<use xlink:href="#Layer0_0_MEMBER_0_MEMBER_33_FILL"/>

<use xlink:href="#Layer0_0_MEMBER_0_MEMBER_33_1_STROKES" transform="matrix( 1.79461669921875, 0, 0, 1.79461669921875, 39.1,-132.05) "/>
</g>

<g transform="matrix( 0.557220458984375, 0, 0, 0.557220458984375, -21.8,73.6) ">
<use xlink:href="#Layer0_0_MEMBER_0_MEMBER_34_FILL"/>

<use xlink:href="#Layer0_0_MEMBER_0_MEMBER_34_1_STROKES" transform="matrix( 1.79461669921875, 0, 0, 1.79461669921875, 39.1,-132.05) "/>
</g>
</svg>
