
<svg xmlns="http://www.w3.org/2000/svg" version="1.1" xmlns:xlink="http://www.w3.org/1999/xlink" preserveAspectRatio="none" x="0px" y="0px" width="560px" height="544px" viewBox="0 0 560 544">
<defs>
<filter id="Filter_1" x="-20%" y="-20%" width="140%" height="140%" color-interpolation-filters="sRGB">
<feColorMatrix in="SourceGraphic" type="matrix" values="1 0 0 0 0 0 1 0 0 0 0 0 1 0 0 0 0 0 0.58 0" result="result1"/>
</filter>

<g id="Duplicate_Items_Folder_leg_suit_copy_3_0_Layer2_0_FILL">
<path fill="#000000" stroke="none" d="
M 9.25 -8.35
Q 8.85 -8.65 8.3 -8.7
L -12.55 -10.7
Q -13.1 -10.8 -13.6 -10.45 -14.2 -10.25 -14.4 -9.7 -16.5962890625 -5.27890625 -15.2 -1.55 -13.3001953125 5.5599609375 -11.05 5.65
L -10.95 16.55
Q -10.95 17.2 -10.45 17.6 -10 18 -9.35 17.95 -8.65 17.85 -8.15 17.4 -7.7 16.9 -7.65 16.3
L 3.9 15.55
Q 3.9 16.05 4.25 16.5 4.65 16.95 5.3 17 6 17 6.6 16.55 7.1 16.1 7.2 15.45
L 10.05 -6.9
Q 10.1 -7.55 9.7 -8 9.45 -8.25 9.25 -8.35
M -11.9 -7.5
L -4.85 -6.8 6.6 -5.7 5.05 5.95
Q 1.66484375 7.6068359375 -2.8 7.45 -5.1228515625 7.3759765625 -7.75 6.8
L -7.75 3.45
Q -7.8 2.95 -8.1 2.55 -8.55 2.2 -9.1 2.1 -9.6390625 2.001953125 -11.05 0.95 -11.1861328125 0.5640625 -11.9 -1.1 -13.0814453125 -3.7875 -11.9 -7.5 Z"/>

<path fill="#FDD194" stroke="none" d="
M -2.8 7.45
Q 1.66484375 7.6068359375 5.05 5.95
L 6.6 -5.7 -4.85 -6.8 -2.8 7.45 Z"/>

<path fill="#FCC87A" stroke="none" d="
M -4.85 -6.8
L -11.9 -7.5
Q -13.0814453125 -3.7875 -11.9 -1.1 -11.1861328125 0.5640625 -11.05 0.95 -9.6390625 2.001953125 -9.1 2.1 -8.55 2.2 -8.1 2.55 -7.8 2.95 -7.75 3.45
L -7.75 6.8
Q -5.1228515625 7.3759765625 -2.8 7.45
L -4.85 -6.8 Z"/>
</g>

<g id="Duplicate_Items_Folder_leg_suit_copy_3_0_Layer1_0_FILL">
<path fill="#000000" stroke="none" d="
M -11.35 -8.35
Q -11.45 -8.35 -11.55 -8.25 -11.6 -8.1 -11.65 -7.85
L -11.95 -3.35 -15.25 -1.85
Q -15.3958984375 -0.774609375 -14.1 -0.2
L -11.95 0.1 -12.65 3.05
Q -12.75 3.25 -12.75 3.4 -12.6 3.6 -12.55 3.65 -12.3 3.75 -12.1 3.75
L -9.6 2.55 -7.7 4.85
Q -7.55 4.8 -7.45 4.85 -7.3 4.85 -7.15 4.75 -7.05 4.75 -6.95 4.65
L -5.65 1.55 -2.45 1.6
Q -2.85 1.55 -5.35 -2.45
L -5.95 -5.4
Q -6.3 -5.3 -6.5 -5.2
L -8.95 -4.8 -10.8 -8.1
Q -10.9 -8.25 -11.05 -8.35 -11.15 -8.45 -11.35 -8.35
M -11.15 -2.7
Q -11 -2.85 -11.05 -2.95
L -10.9 -4.8 -10.9 -6.4 -9.55 -3.95
Q -9.45 -4 -9.35 -3.85 -9.25 -3.85 -9.05 -3.85
L -6.5 -4.35 -6.1 -1.5 -3.6 1.2 -5.4 0.55 -5.65 0.45
Q -5.8 0.45 -6 0.6
L -6.1 0.6
Q -6.15 0.65 -6.2 0.7 -6.3 0.75 -6.45 0.8
L -7.5 3.6 -9.2 1.7
Q -9.3 1.65 -9.45 1.6 -9.6 1.55 -9.65 1.65
L -11.7 2.5 -10.95 0.05
Q -10.9 -0.2 -10.95 -0.4 -11 -0.4 -11.05 -0.5 -11.15 -0.6 -11.25 -0.7
L -13.85 -1.35 -11.25 -2.55
Q -11.2 -2.6 -11.15 -2.7
M -6.85 -0.3
Q -6.8 -0.15 -6.6 -0.05 -6.5 0.05 -6.4 -0.05 -6.3 -0.05 -6.25 -0.2 -6.15 -0.25 -6.1 -0.3 -6.1 -0.4 -6.1 -0.65 -6.25 -0.75 -6.3 -0.8 -6.45 -0.9 -6.65 -0.9 -6.8 -0.75 -6.85 -0.7 -6.85 -0.65 -6.9 -0.55 -6.95 -0.4 -6.85 -0.3
M -6.85 -3.4
Q -7 -3.45 -7.05 -3.5
L -7.05 -3.4 -7.15 -3.35
Q -7.35 -3.25 -7.35 -3.1 -7.4 -3 -7.35 -2.85 -7.25 -2.6 -7.1 -2.6 -7.05 -2.55 -6.95 -2.65 -6.75 -2.7 -6.6 -2.85 -6.65 -3 -6.7 -3.2 -6.75 -3.35 -6.85 -3.4
M -7.95 0.55
Q -7.95 0.35 -8.2 0.3 -8.3 0.35 -8.55 0.3 -8.55 0.35 -8.65 0.45 -8.7 0.55 -8.7 0.6 -8.8 0.75 -8.8 0.95 -8.7 1.1 -8.55 1.2 -8.3 1.3 -8.2 1.15 -8 1.05 -8 0.95 -7.9 0.7 -7.95 0.55
M -8.95 -2.1
Q -9.05 -2.05 -9.15 -1.9 -9.1 -1.7 -9.1 -1.5 -9.05 -1.35 -8.9 -1.3 -8.75 -1.25 -8.6 -1.3 -8.55 -1.45 -8.35 -1.6 -8.4 -1.7 -8.5 -1.9 -8.55 -2.05 -8.65 -2.1 -8.85 -2.15 -8.95 -2.1
M -10.25 -0.15
Q -10.4 -0.2 -10.6 -0.15 -10.75 -0.1 -10.85 0.2 -10.85 0.3 -10.8 0.35 -10.75 0.65 -10.55 0.7 -10.45 0.75 -10.3 0.6 -10.15 0.55 -10 0.4 -10 0.3 -10.05 0.05 -10.15 -0.05 -10.25 -0.15
M -10.5 -3.45
Q -10.65 -3.4 -10.7 -3.2 -10.8 -3.05 -10.75 -2.9 -10.6 -2.75 -10.45 -2.55 -10.4 -2.55 -10.2 -2.65 -10.05 -2.75 -10 -2.85 -9.95 -3.1 -10 -3.25 -10.05 -3.45 -10.25 -3.4 -10.35 -3.55 -10.5 -3.45 Z"/>

<path fill="#FF6699" stroke="none" d="
M -10.9 -6.4
L -10.9 -4.8
Q -8.8 -3.35 -6.85 -0.7 -6.8 -0.75 -6.65 -0.9 -6.45 -0.9 -6.3 -0.8 -6.25 -0.75 -6.1 -0.65 -6.1 -0.4 -6.1 -0.3 -6.15 -0.25 -6.25 -0.2
L -5.4 0.55 -3.6 1.2 -6.1 -1.5 -6.5 -4.35 -9.05 -3.85
Q -9.25 -3.85 -9.35 -3.85 -9.45 -4 -9.55 -3.95
L -10.9 -6.4
M -7.05 -3.5
Q -7 -3.45 -6.85 -3.4 -6.75 -3.35 -6.7 -3.2 -6.65 -3 -6.6 -2.85 -6.75 -2.7 -6.95 -2.65 -7.05 -2.55 -7.1 -2.6 -7.25 -2.6 -7.35 -2.85 -7.4 -3 -7.35 -3.1 -7.35 -3.25 -7.15 -3.35
L -7.05 -3.4 -7.05 -3.5 Z"/>

<path fill="#CC0000" stroke="none" d="
M -11.05 -2.95
Q -11 -2.85 -11.15 -2.7 -11.2 -2.6 -11.25 -2.55
L -13.85 -1.35 -11.25 -0.7
Q -11.15 -0.6 -11.05 -0.5 -11 -0.4 -10.95 -0.4 -10.9 -0.2 -10.95 0.05
L -11.7 2.5 -9.65 1.65
Q -9.6 1.55 -9.45 1.6 -9.3 1.65 -9.2 1.7
L -7.5 3.6 -6.45 0.8
Q -6.3 0.75 -6.2 0.7 -6.15 0.65 -6.1 0.6
L -6 0.6
Q -5.8 0.45 -5.65 0.45
L -5.4 0.55 -6.25 -0.2
Q -6.3 -0.05 -6.4 -0.05 -6.5 0.05 -6.6 -0.05 -6.8 -0.15 -6.85 -0.3 -6.95 -0.4 -6.9 -0.55 -6.85 -0.65 -6.85 -0.7 -8.8 -3.35 -10.9 -4.8
L -11.05 -2.95
M -10.7 -3.2
Q -10.65 -3.4 -10.5 -3.45 -10.35 -3.55 -10.25 -3.4 -10.05 -3.45 -10 -3.25 -9.95 -3.1 -10 -2.85 -10.05 -2.75 -10.2 -2.65 -10.4 -2.55 -10.45 -2.55 -10.6 -2.75 -10.75 -2.9 -10.8 -3.05 -10.7 -3.2
M -10.6 -0.15
Q -10.4 -0.2 -10.25 -0.15 -10.15 -0.05 -10.05 0.05 -10 0.3 -10 0.4 -10.15 0.55 -10.3 0.6 -10.45 0.75 -10.55 0.7 -10.75 0.65 -10.8 0.35 -10.85 0.3 -10.85 0.2 -10.75 -0.1 -10.6 -0.15
M -9.15 -1.9
Q -9.05 -2.05 -8.95 -2.1 -8.85 -2.15 -8.65 -2.1 -8.55 -2.05 -8.5 -1.9 -8.4 -1.7 -8.35 -1.6 -8.55 -1.45 -8.6 -1.3 -8.75 -1.25 -8.9 -1.3 -9.05 -1.35 -9.1 -1.5 -9.1 -1.7 -9.15 -1.9
M -8.2 0.3
Q -7.95 0.35 -7.95 0.55 -7.9 0.7 -8 0.95 -8 1.05 -8.2 1.15 -8.3 1.3 -8.55 1.2 -8.7 1.1 -8.8 0.95 -8.8 0.75 -8.7 0.6 -8.7 0.55 -8.65 0.45 -8.55 0.35 -8.55 0.3 -8.3 0.35 -8.2 0.3 Z"/>
</g>

<g id="Duplicate_Items_Folder_right_shoe_0_Layer0_0_FILL">
<path fill="#000000" stroke="none" d="
M 11.1 -2.7
Q 8.9 -4 6.2 -4.6 1 -6.1 -5.8 -4.6 -9.3 -3.85 -12.1 -2.1 -16.95 0.85 -16.75 5.2 -16.75 5.5 -16.7 5.85 -16.75 5.85 -16.8 5.85 -17.75 7.55 -17.7 9.45 -17.65 9.85 -17.6 10.25 -13.85 11.15 -10.1 11.7 -2.25 12.7 5.4 11.85 11.5 11.1 17.5 9.15 17.55 8.8 17.5 8.35 17.45 6.3 16.15 4.55 16.05 4.55 15.95 4.6 15.95 4.4 15.95 4.2 15.75 -0.15 11.1 -2.7
M 2.9 -3.65
Q 5.95 -3.3 8.5 -2.05 12.55 0.05 12.7 3.45 12.7 3.75 12.7 4.05 12.45 4.15 12.2 4.25 11.5 2.75 8.65 1.65 6.45 0.85 3.7 0.6 1.9 0.45 -0.1 0.5 -0.5 0.5 -1.5 0.55 -5.45 0.8 -8.7 2.2 -9.7 2.65 -10.4 3.15 -11.7 4.05 -11.95 5.15 -12.5 5 -13 4.85 -13.05 4.55 -13.05 4.25 -13.2 0.85 -9.95 -1.25 -7 -3.1 -2.1 -3.65 -1.65 -3.65 -1.2 -3.7 0.95 -3.85 2.9 -3.65
M 10.5 4.65
L 10.5 4.7
Q 10.5 4.85 10.45 4.95 8.5 5.4 6.55 5.65 4.95 5.9 3.35 6.05 -1.95 6.5 -7.1 5.95 -8.4 5.75 -9.65 5.55 -9.65 5.4 -9.65 5.25 -9.7 3.6 -7.3 2.75 -5.45 2.05 -2.35 1.75 -1.5 1.65 -0.5 1.55 2.1 1.35 4.3 1.55 5.85 1.75 7.2 2.1 10.45 3 10.5 4.65
M 2.4 11
L 1.95 7.9
Q 3.2 7.8 4.55 7.6
L 5.2 10.75
Q 3.55 10.9 2.4 11
M 6.35 7.35
Q 7.95 7.05 9.65 6.75
L 10.45 10.1
Q 8.4 10.45 7.25 10.55
L 6.35 7.35
M -7 11.1
L -6.7 7.85
Q -5.05 7.95 -3.35 8.05
L -3.8 11.25
Q -4.85 11.1 -7 11.1
M -14.3 10.3
L -14.25 6.65
Q -12.75 6.95 -11.15 7.25
L -11.75 10.6
Q -13 10.45 -14.3 10.3 Z"/>

<path fill="#CC0000" stroke="none" d="
M -14.25 6.65
L -14.3 10.3
Q -13 10.45 -11.75 10.6
L -11.15 7.25
Q -12.75 6.95 -14.25 6.65
M -6.7 7.85
L -7 11.1
Q -4.85 11.1 -3.8 11.25
L -3.35 8.05
Q -5.05 7.95 -6.7 7.85
M 9.65 6.75
Q 7.95 7.05 6.35 7.35
L 7.25 10.55
Q 8.4 10.45 10.45 10.1
L 9.65 6.75
M 1.95 7.9
L 2.4 11
Q 3.55 10.9 5.2 10.75
L 4.55 7.6
Q 3.2 7.8 1.95 7.9
M 10.5 4.7
L 10.5 4.65
Q 10.45 3 7.2 2.1 5.85 1.75 4.3 1.55 2.1 1.35 -0.5 1.55 -1.5 1.65 -2.35 1.75
L -3.3 2.5 -4.35 2.75
Q -5.55 3.05 -6.25 3.55 -6.85 4 -6.8 4.7
L -7.35 5.2 -7.1 5.95
Q -1.95 6.5 3.35 6.05 4.95 5.9 6.55 5.65 8.5 5.4 10.45 4.95 10.5 4.85 10.5 4.7
M 6.55 4.3
L 6.55 4.35
Q 6.55 4.4 5.8 4.55 5.2 4.7 2.2 4.95
L 1.85 4.6 3.8 2.45
Q 4.05 2.45 4.3 2.55 6.5 3.1 6.55 4.3
M 3.7 0.6
Q 4.45 -0.75 2.15 -1.95 2.65 -1.25 -1.5 0.55 -0.5 0.5 -0.1 0.5 1.9 0.45 3.7 0.6 Z"/>

<path fill="#CCCCCC" stroke="none" d="
M -5.25 3
Q -5.9 3.2 -6.25 3.55 -5.55 3.05 -4.35 2.75 -4.85 2.85 -5.25 3 Z"/>

<path fill="#824620" stroke="none" d="
M -3.3 2.5
L -2.35 1.75
Q -5.45 2.05 -7.3 2.75 -9.7 3.6 -9.65 5.25 -9.65 5.4 -9.65 5.55 -8.4 5.75 -7.1 5.95
L -7.35 5.2 -6.8 4.7
Q -6.85 4 -6.25 3.55 -5.9 3.2 -5.25 3 -4.85 2.85 -4.35 2.75
L -3.3 2.5 Z"/>

<path fill="#FD3535" stroke="none" d="
M 6.55 4.35
L 6.55 4.3
Q 6.5 3.1 4.3 2.55 4.05 2.45 3.8 2.45
L 1.85 4.6 2.2 4.95
Q 5.2 4.7 5.8 4.55 6.55 4.4 6.55 4.35 Z"/>

<path fill="#5F3817" stroke="none" d="
M 8.5 -2.05
Q 5.95 -3.3 2.9 -3.65 0.95 -3.85 -1.2 -3.7 -1.65 -3.65 -2.1 -3.65 -7 -3.1 -9.95 -1.25 -13.2 0.85 -13.05 4.25 -13.05 4.55 -13 4.85 -12.5 5 -11.95 5.15 -11.7 4.05 -10.4 3.15 -9.7 2.65 -8.7 2.2 -5.45 0.8 -1.5 0.55 2.65 -1.25 2.15 -1.95 4.45 -0.75 3.7 0.6 6.45 0.85 8.65 1.65 11.5 2.75 12.2 4.25 12.45 4.15 12.7 4.05 12.7 3.75 12.7 3.45 12.55 0.05 8.5 -2.05 Z"/>
</g>

<g id="Duplicate_Items_Folder_arm_knives_copy_0_Layer2_0_FILL">
<path fill="#FDD194" stroke="none" d="
M -14.95 10.2
L -14.2 2.45 -20.55 8.6 -20.7 8.9
Q -21.3267578125 9.9744140625 -24.2 14.5
L -14.95 10.2
M 29.25 -33.4
Q 27.45 -34.6 25.45 -34.8 20.85 -32.3 16.7 -29.35 15.6 -28.55 14.45 -27.65 11 -25.15 7.9 -22.2
L 9.7 -19.65 10.85 -17.25 15.05 -13.5 16.95 -7.45 17.4 -7.3
Q 25 -11.85 31.2 -14.9 27.35 -15.95 27 -15.95 23.75 -16.25 28.95 -19.65 30.25 -20.5 31.4 -20.95 34.6 -21.95 36.4 -19.3 39.4 -17.1 42.6 -17.65 43.55 -17.7 44.4 -18.05 45.2 -18.55 46 -19.4 46.8712890625 -20.6673828125 46.65 -22.4
L 37.5 -24 31.75 -34
Q 30.78515625 -33.534765625 29.95 -32.9 29.65 -33.15 29.25 -33.4 Z"/>

<path fill="#CADCE6" stroke="none" d="
M -9 9.6
L -0.7 2.25 -5.7 -5.75 -14.2 2.45 -14.95 10.2 -24.2 14.5
Q -24.5333984375 15.0240234375 -24.9 15.6 -26.1 17.35 -26.95 18.7 -29.9 23 -30.35 22.8
L -30.45 22.75
Q -30.6 23.45 -30.55 24.25 -28.85 25.25 -27.35 25.8
L -24.85 25.6
Q -24.7 25.55 -24.55 25.55
L -20.3 25.25 -9 9.6
M 3.05 6.95
L 12.6 1.5
Q 15.45 -1.85 13.4 -7.75
L 1.15 1.7 3.05 6.95 Z"/>

<path fill="#744F36" stroke="none" d="
M -0.6 2.15
L -0.55 2.4 -0.5 2.4 -0.6 2.15 Z"/>

<path fill="#9DC1D0" stroke="none" d="
M -0.55 2.4
L -0.7 2.25 -9 9.6 -20.3 25.25 -17.95 24.9
Q -16.1 23.65 -14.1 21.8 -11.55 19.25 -8.9 15.7 -7.85 14.2 -6.7 12.5
L 1.65 7.75 -0.5 2.4 -0.55 2.4 Z"/>

<path fill="#97A0C6" stroke="none" d="
M -0.7 2.25
L -0.55 2.4 -0.6 2.15 -0.7 2.25 Z"/>

<path fill="#000000" stroke="none" d="
M -5.35 -8.55
L -6.2 -9.85 -3.65 -11.6 4.35 -21.9
Q 11.55 -13.05 13.4 -7.75 15.45 -1.85 12.6 1.5
L 3.05 6.95 3.65 8.55 3.05 6.95 1.15 1.7 -5.35 -8.55 -5.7 -5.75 -0.7 2.25 -0.6 2.15 -0.5 2.4 1.65 7.75 2.05 8.85 1.65 7.75 -6.7 12.5
Q -7.85 14.2 -8.9 15.7 -11.55 19.25 -14.1 21.8 -16.1 23.65 -17.95 24.9
L -14.4 24.25
Q -13.6 23.25 -12.55 22.2 -10.8 20.35 -8.3 18.3 -6.75 17.05 -4.75 15.5 -0.95 12.6 4.5 8.75 6.5 7.9 8.05 7.25 10.05 6.35 11.35 6.15 12.95 5.7 13.8 5.2 14.05 5 16.8 1.45 17.55 0.9 21.15 -0.6 24.35 -1.95 24.55 -2.25 25.15 -3.3 26.95 -3.1 28.1 -2.95 31.3 -1.85 34.1 -1.3 35.7 -3.35 37.2 -5.45 37.15 -7.35 37 -9.2 36.95 -10.35 35.8 -15 32.6 -16.05
L 29.3 -17.45
Q 30.25 -19.15 32.55 -19.1
L 35.85 -16.85
Q 39.35 -14.95 41.15 -15.15 42.9 -15.3 43.85 -15.25 44.75 -15.3 46.1 -16.55 47.35 -17.75 48.65 -19.65 49.9 -21.6 48.25 -24.3
L 37.3 -36.1
Q 33.6 -37.85 30.45 -34.9 30.05 -37.4 26.9 -38.95 25.15 -39 22.55 -37.1 22.4 -37.15 16.95 -32.45 9.35 -26 7.6 -24.55 6.3 -23.45 5.85 -24.65 5.5 -25.8 3.5 -23.95 1.85 -22.45 -1.2 -18 -4.3 -13.5 -6.35 -11.55 -12.3 -5.65 -15.7 -2.25 -19.75 1.85 -20.3 2.55 -21.35 3.8 -26.4 9.8 -31.45 15.6 -31.4 22.3 -31.4 24.7 -31.4 26.4
L -30.25 26.2
Q -30.25 26.15 -30.25 26.1
L -27.35 25.8
Q -28.85 25.25 -30.55 24.25 -30.6 23.45 -30.45 22.75
L -30.35 22.8
Q -29.9 23 -26.95 18.7 -26.1 17.35 -24.9 15.6 -24.5333984375 15.0240234375 -24.2 14.5
L -25.5 15.1 -24.2 14.5
Q -21.3267578125 9.9744140625 -20.7 8.9
L -20.55 8.6 -14.2 2.45 -13.95 0.2 -14.2 2.45 -5.7 -5.75 -5.35 -8.55
M 25.45 -34.8
Q 27.45 -34.6 29.25 -33.4 29.65 -33.15 29.95 -32.9 30.78515625 -33.534765625 31.75 -34 33.76953125 -34.8501953125 36.4 -34.95
L 46.45 -23.3
Q 46.58515625 -22.821875 46.65 -22.4
L 47.45 -21.75 46.65 -22.4
Q 46.8712890625 -20.6673828125 46 -19.4 45.2 -18.55 44.4 -18.05 43.55 -17.7 42.6 -17.65 39.4 -17.1 36.4 -19.3 34.6 -21.95 31.4 -20.95 30.25 -20.5 28.95 -19.65 23.75 -16.25 27 -15.95 27.35 -15.95 31.2 -14.9
L 31.95 -14
Q 33.8 -12.45 34.2 -9.65 34.65 -6.95 33.55 -5.4 32.55 -3.85 28.6 -4.55 24.7 -5.3 23.65 -4.8 22.5 -4.4 20.95 -3.65 19.5 -2.85 19.1 -2.5
L 18.95 -2.3
Q 18.05 -1.6 16.7 -0.7
L 17.4 -7.3 17.1 -6.3 16.95 -7.45 15.05 -13.5 10.85 -17.25 9.7 -19.65 7.9 -22.2
Q 11 -25.15 14.45 -27.65 15.6 -28.55 16.7 -29.35 20.85 -32.3 25.45 -34.8 Z"/>

<path fill="#FCC87A" stroke="none" d="
M 17.4 -7.3
L 16.7 -0.7
Q 18.05 -1.6 18.95 -2.3
L 19.1 -2.5
Q 19.5 -2.85 20.95 -3.65 22.5 -4.4 23.65 -4.8 24.7 -5.3 28.6 -4.55 32.55 -3.85 33.55 -5.4 34.65 -6.95 34.2 -9.65 33.8 -12.45 31.95 -14
L 31.2 -14.9
Q 25 -11.85 17.4 -7.3 Z"/>

<path fill="#9592A9" stroke="none" d="
M 17.1 -6.3
L 17.4 -7.3 16.95 -7.45 17.1 -6.3 Z"/>

<path fill="#FF3399" stroke="none" d="
M 36.4 -34.95
Q 33.76953125 -34.8501953125 31.75 -34
L 37.5 -24 46.65 -22.4
Q 46.58515625 -22.821875 46.45 -23.3
L 36.4 -34.95 Z"/>

<path fill="#DDEAEE" stroke="none" d="
M -6.2 -9.85
L -5.35 -8.55 -5.25 -9.2 -5.35 -8.55 1.15 1.7 13.4 -7.75
Q 11.55 -13.05 4.35 -21.9
L -3.65 -11.6 -6.2 -9.85 Z"/>
</g>

<g id="Duplicate_Items_Folder_arm_knives_copy_0_Layer1_0_FILL">
<path fill="#990000" stroke="none" d="
M 2.15 -7.25
Q 1.5 -7.65 0.7 -7.8 -0.55 -8 -1.35 -7.45 -2.1 -6.9 -2.15 -6 -2.1 -5 -1.2 -4.15 -0.3 -3.35 0.95 -3.15 2.2 -2.85 2.95 -3.45 3.05 -3.5 3.15 -3.55 3.85 -3.25 4.65 -3.1 6.2 -2.8 7.2 -3.25 8.3 -3.65 8.2 -4.6 8.2 -5.45 7.1 -6.3 6 -7.1 4.5 -7.45 3.1 -7.6 2.15 -7.25
M 9.95 -10.6
Q 8.8 -11.45 7.35 -11.75 5.9 -12 4.8 -11.6 3.75 -11.15 3.8 -10.25 3.85 -9.35 4.95 -8.6 6.05 -7.7 7.5 -7.45 9.05 -7.15 10.05 -7.6 11.15 -8.05 11.1 -8.95 11.05 -9.8 9.95 -10.6 Z"/>
</g>

<g id="Duplicate_Items_Folder_arm_knives_copy_0_Layer0_0_FILL">
<path fill="#000000" stroke="none" d="
M 3.55 -12.65
Q 3.95 -13.2 3.7 -13.85 3.55 -14.45 2.85 -14.7 2.2 -14.9 1.45 -14.75 0.8 -14.5 0.4 -13.9 0.05 -13.3 0.2 -12.7 0.45 -12.05 1.05 -11.9 1.75 -11.65 2.45 -11.85 3.2 -12.05 3.55 -12.65 Z"/>
</g>

<g id="Duplicate_Items_Folder_body_suit_copy_3_0_Layer7_0_FILL">
<path fill="#000000" stroke="none" d="
M 35.2 23.25
Q 34.75 23 34.2 23.05
L -3.95 23.55
Q -4.2 23.55 -4.35 23.6
L -43.35 20.15
Q -44 20.1 -44.45 20.4 -44.95 20.65 -45.05 21.1
L -54.25 54.15
Q -54.4 54.55 -54.05 54.9 -53.75 55.25 -53.15 55.4 -31.6 59.9 -8.25 58 -7.75 57.95 -7.35 57.75 -7 57.5 -6.9 57.15
L -2.95 44.35 -1.6 44.45 2.3 57.35
Q 2.35 57.7 2.7 57.9 3.05 58.1 3.5 58.25 27.05 62.2 47.05 55.7 47.6 55.5 47.85 55.2 48.05 54.8 47.9 54.4
L 35.75 23.85
Q 35.6 23.45 35.2 23.25
M 5.25 42.65
Q 3.85 42.25 0.1 42.5 -0.45 42.7 -1.25 43.05 -2.75 43.6 -10.25 41.35 -11.35 42.35 -6.8 44.9
L -9.75 55.95
Q -31.1 57.5 -50.9 53.6
L -44.55 30.8 -42.25 22.55 -4.35 25.85 -3.15 25.7
Q 12.8 27.2 33.1 25.25
L 42.45 48.9 44.55 54.05
Q 26.4 59.65 5.2 56.25
L 1.7 44.75
Q 3.6 44.35 4.45 43.95 5.1 43.55 5.45 42.9 6.85 43.1 5.25 42.65 Z"/>

<path fill="#0285DB" stroke="none" d="
M 42.45 48.9
L 33.1 25.25
Q 12.8 27.2 -3.15 25.7
L -4.35 25.85 -42.25 22.55 -44.55 30.8 42.45 48.9 Z"/>

<path fill="#0099FF" stroke="none" d="
M 0.1 42.5
Q 3.85 42.25 5.25 42.65 6.85 43.1 5.45 42.9 5.1 43.55 4.45 43.95 3.6 44.35 1.7 44.75
L 5.2 56.25
Q 26.4 59.65 44.55 54.05
L 42.45 48.9 -44.55 30.8 -50.9 53.6
Q -31.1 57.5 -9.75 55.95
L -6.8 44.9
Q -11.35 42.35 -10.25 41.35 -2.75 43.6 -1.25 43.05 -0.45 42.7 0.1 42.5 Z"/>
</g>

<g id="Duplicate_Items_Folder_body_suit_copy_3_0_Layer6_0_FILL">
<path fill="#FFFFFF" stroke="none" d="
M -32.2 54.55
Q -31.2 54.85 -30.15 54.75 -28.95 54.55 -28.45 54 -27.85 53.35 -28.1 52.6 -28.3 51.9 -29.3 51.55 -30.2 51.15 -31.3 51.35 -32.35 51.55 -32.95 52.15 -33.5 52.75 -33.35 53.45 -33.05 54.15 -32.2 54.55
M -49.5 50.9
Q -50.5 51.1 -51.1 51.7 -51.7 52.3 -51.45 53.05 -51.3 53.85 -50.45 54.25 -49.6 54.75 -48.6 54.7 -47.55 54.55 -46.9 53.85 -46.4 53.3 -46.6 52.5 -46.8 51.8 -47.6 51.25 -48.45 50.85 -49.5 50.9
M -14.6 48.5
Q -14.95 47.5 -16 47 -17.05 46.45 -18.35 46.7 -19.6 46.9 -20.25 47.7 -20.9 48.4 -20.5 49.45 -20.2 50.35 -19.15 50.9 -18.05 51.35 -16.85 51.25 -15.5 50.95 -14.95 50.2 -14.3 49.45 -14.6 48.5
M -11.85 35.7
Q -12.75 35.05 -14.05 35 -15.4 34.9 -16.4 35.55 -17.35 36.25 -17.4 37.15 -17.45 38.15 -16.55 38.9 -15.6 39.55 -14.3 39.65 -13 39.7 -12 39 -11.05 38.45 -11 37.5 -10.95 36.55 -11.85 35.7
M -11.4 27.45
Q -12.15 26.95 -13.3 26.9 -14.4 26.9 -15.25 27.3 -16 27.8 -16.05 28.5 -16.05 29.25 -15.35 29.8 -14.55 30.35 -13.45 30.4 -12.3 30.4 -11.5 29.95 -10.65 29.5 -10.6 28.8 -10.6 28.05 -11.4 27.45
M -38.15 45.7
Q -38.5 44.75 -39.55 44.15 -40.65 43.65 -41.95 43.9 -43.15 44.05 -43.8 44.85 -44.4 45.65 -44.1 46.6 -43.75 47.5 -42.75 48.05 -41.55 48.6 -40.4 48.4 -39.1 48.15 -38.5 47.4 -37.85 46.6 -38.15 45.7
M -32.5 41.7
Q -32.25 42.6 -31.05 43.15 -29.85 43.7 -28.6 43.5 -27.4 43.2 -26.7 42.5 -26 41.6 -26.35 40.65 -26.6 39.7 -27.85 39.2 -28.9 38.75 -30.2 38.9 -31.4 39.15 -32.2 39.9 -32.85 40.7 -32.5 41.7
M -37.7 35.5
Q -37.65 34.55 -38.6 33.8 -39.45 33.1 -40.8 33 -42.1 33 -43.1 33.6 -44.05 34.25 -44.1 35.2 -44.15 36.15 -43.25 36.9 -42.3 37.6 -41 37.65 -39.7 37.7 -38.75 37.1 -37.75 36.45 -37.7 35.5
M -38.1 25.5
Q -38.85 25.05 -40 24.95 -41.1 24.95 -41.95 25.4 -42.75 25.8 -42.8 26.5 -42.8 27.3 -42.05 27.9 -41.25 28.4 -40.15 28.4 -39 28.5 -38.2 28 -37.35 27.55 -37.3 26.8 -37.3 26.05 -38.1 25.5
M -29.1 32.8
Q -27.75 32.85 -26.85 32.25 -25.95 31.55 -25.9 30.6 -25.85 29.65 -26.7 28.95 -27.55 28.2 -28.85 28.1 -30.15 28.1 -31.05 28.7 -31.95 29.4 -32 30.3 -32.05 31.3 -31.25 32 -30.35 32.7 -29.1 32.8
M 8.3 56.25
Q 9.65 56.5 10.75 55.95 11.85 55.45 12.05 54.6 12.3 53.7 11.55 52.9 10.75 52.15 9.4 51.9 8.05 51.75 6.9 52.2 5.75 52.7 5.5 53.65 5.3 54.55 6.05 55.3 6.95 56.05 8.3 56.25
M 35.9 54.65
Q 37.25 54.45 38 53.7 38.85 53.05 38.65 52.05 38.4 51.25 37.35 50.7 36.2 50.3 34.9 50.35 33.45 50.55 32.7 51.25 31.9 51.95 32.1 52.8 32.25 53.75 33.4 54.2 34.45 54.75 35.9 54.65
M 37.8 43.5
Q 38.35 42.9 38.1 42.1 37.9 41.35 37.15 40.85 36.3 40.45 35.25 40.5 34.25 40.65 33.6 41.25 33.05 41.95 33.3 42.65 33.45 43.45 34.3 43.85 35.15 44.4 36.15 44.25 37.2 44.1 37.8 43.5
M 27.75 29.7
Q 27.45 29 26.75 28.45 25.9 27.95 24.85 28.1 23.85 28.3 23.2 28.9 22.65 29.45 22.85 30.25 23.05 31 23.85 31.5 24.7 31.95 25.75 31.8 26.8 31.75 27.4 31.05 27.95 30.5 27.75 29.7
M 19.95 37
Q 19.15 37.7 19.35 38.55 19.55 39.5 20.65 40 21.75 40.5 23.15 40.4 24.5 40.25 25.3 39.5 26.05 38.75 25.9 37.8 25.7 37 24.6 36.5 23.45 36.05 22.15 36.1 20.7 36.3 19.95 37
M 20.1 45.6
Q 18.65 45.7 17.9 46.5 17.15 47.25 17.35 48.15 17.65 49.05 18.65 49.55 19.8 50.1 21.15 50 22.5 49.8 23.35 49.1 24.15 48.3 23.9 47.45 23.7 46.5 22.55 45.9 21.4 45.4 20.1 45.6
M 5.05 42.2
Q 6.05 42.35 6.9 41.85 7.7 41.5 7.9 40.7 8.1 39.95 7.55 39.3 6.9 38.65 5.9 38.45 4.85 38.35 4 38.7 3.3 39.2 3.05 39.95 2.85 40.75 3.35 41.35 3.95 42 5.05 42.2
M 0.85 32.5
Q 0.9 31.55 0 30.9 -0.85 30.2 -2.15 30.05 -3.4 30 -4.35 30.7 -5.25 31.3 -5.3 32.25 -5.35 33.25 -4.55 33.95 -3.65 34.7 -2.4 34.75 -1.05 34.8 -0.2 34.2 0.8 33.5 0.85 32.5
M 11.05 32.9
Q 12.15 33.45 13.5 33.25 14.85 33.1 15.75 32.35 16.5 31.6 16.3 30.7 16.05 29.75 14.9 29.25 13.75 28.75 12.4 28.85 11.05 29.05 10.25 29.75 9.5 30.55 9.75 31.45 9.95 32.3 11.05 32.9 Z"/>
</g>

<g id="Duplicate_Items_Folder_body_suit_copy_3_0_Layer5_0_FILL">
<path fill="#000000" stroke="none" d="
M 32.45 -24.85
Q 32.75 -30.05 21.5 -31.15 20.05 -31.25 18.35 -31.3
L -0.55 -31
Q -11.1 -33.8 -18.9 -32.3
L -24.6 -32.1
Q -27.45 -32.1 -29.2 -31.3 -32.45 -29.95 -33.75 -25.65 -34.95 -21.6 -35.05 -22
L -34.95 -14
Q -36.9 -10.9 -38.1 -6.3 -39.3 -1.9 -40.2 0.9 -43.25 4.8 -43.95 9.75 -44.05 10.4 -44.15 11.05 -44.55 13.6 -45.25 16.85 -45.8 19.4 -48.55 24.7 -51.35 29.95 -48.3 31.05 -45.3 32.1 -44.1 32.55
L -41.5 32.3
Q -41.05 32.25 -40.7 31.9 -40.3 31.7 -40.15 31.25 -39.2 27.5 -35.65 27.05
L -23.5 35.4
Q -15.65 42 -6.05 43.15 -5.65 42.35 -4.2 40.95 -0.5 37.4 0.5 33.05 0.7 32.15 1 31.25 1.65 29.2 2.8 27.1
L 11.25 42.95
Q 11.35 43.2 11.65 43.35 11.85 43.55 12.2 43.6 22 46.5 29.9 36.25
L 39.85 30.45
Q 40.25 30.15 40.4 29.75 40.55 29.3 40.3 28.9
L 35.5 20.5
Q 39.15 13.25 35.4 5.2
L 30.25 -5.95 31.05 -15.35 31.05 -15.4 31.3 -13.9
Q 32.1 -18.95 32.45 -24.85
M 20.9 -28.25
Q 22.55 -27.9 25.4 -27.15 32.15 -25.45 27.9 -19
L 27.15 -5.9
Q 27.15 -5.65 25.35 -4.6
L 32.55 6.1
Q 35.9 13.35 32.45 20 32.3 20.2 32.3 20.55 32.3 20.75 32.45 21.05
L 37.05 29 27.9 34.3
Q 27.65 34.4 27.5 34.65 21.25 42.95 13.75 41.35
L 7.7 30 4.4 23.85 0.65 -28.5 18.55 -28.85
Q 18.6 -28.85 20.9 -28.25
M -2.5 -28.85
Q -2.5 -28.8 -2.5 -28.75
L -0.2 25.95
Q -0.45 26.7 -1.5 29.45 -1.85 30.4 -2.2 31.4 -3.5 36.05 -8.65 40.6 -13.25 40.55 -21.45 33.6 -21.5 33.55 -21.55 33.5
L -34.15 24.8
Q -34.65 24.45 -35.25 24.5 -41.15 24.65 -42.9 29.9
L -47.1 29.15
Q -47.3 28 -45.15 23.6 -43 19.2 -42.1 16.35 -41.55 13.4 -41.2 11.15 -41.2 10.8 -41.15 10.5 -40.6 5.75 -39.05 4.45 -37.55 3.05 -36.55 1.25 -35.55 -0.55 -31.5 -10.4
L -32.5 -9.1
Q -31.85 -10.1 -31.55 -10.85 -30.95 -12.65 -31.95 -13.45
L -32 -21.1
Q -32.05 -26.95 -27.9 -29.1
L -27.85 -29.1
Q -26.55 -29.6 -24.55 -29.6 -24.5 -29.6 -24.45 -29.6
L -18.65 -29.8
Q -18.5 -29.8 -18.35 -29.85 -11.6 -31.15 -2.5 -28.85 Z"/>

<path fill="#B5D0DB" stroke="none" d="
M -2.2 31.4
Q -1.85 30.4 -1.5 29.45
L -25 11.95 -41.2 11.15
Q -41.55 13.4 -42.1 16.35
L -30 14.55 -2.2 31.4
M 25.4 -27.15
Q 22.55 -27.9 20.9 -28.25
L 7.7 30 13.75 41.35
Q 21.25 42.95 27.5 34.65 27.65 34.4 27.9 34.3
L 37.05 29 32.45 21.05
Q 32.3 20.75 32.3 20.55 32.3 20.2 32.45 20 35.9 13.35 32.55 6.1
L 25.35 -4.6
Q 27.15 -5.65 27.15 -5.9
L 27.9 -19
Q 32.15 -25.45 25.4 -27.15 Z"/>

<path fill="#CADCE6" stroke="none" d="
M -34.15 24.8
L -21.55 33.5
Q -21.5 33.55 -21.45 33.6 -13.25 40.55 -8.65 40.6 -3.5 36.05 -2.2 31.4
L -30 14.55 -42.1 16.35
Q -43 19.2 -45.15 23.6 -47.3 28 -47.1 29.15
L -42.9 29.9
Q -41.15 24.65 -35.25 24.5 -34.65 24.45 -34.15 24.8
M -2.5 -28.75
Q -2.5 -28.8 -2.5 -28.85 -11.6 -31.15 -18.35 -29.85 -18.5 -29.8 -18.65 -29.8
L -24.45 -29.6
Q -24.5 -29.6 -24.55 -29.6 -26.55 -29.6 -27.85 -29.1
L -27.9 -29.1
Q -32.05 -26.95 -32 -21.1
L -31.95 -13.45
Q -30.95 -12.65 -31.55 -10.85 -31.85 -10.1 -32.5 -9.1
L -31.5 -10.4
Q -35.55 -0.55 -36.55 1.25 -37.55 3.05 -39.05 4.45 -40.6 5.75 -41.15 10.5 -41.2 10.8 -41.2 11.15
L -25 11.95 -1.5 29.45
Q -0.45 26.7 -0.2 25.95
L -2.5 -28.75
M 18.55 -28.85
L 0.65 -28.5 4.4 23.85 7.7 30 20.9 -28.25
Q 18.6 -28.85 18.55 -28.85 Z"/>
</g>

<g id="Duplicate_Items_Folder_body_suit_copy_3_0_Layer4_0_FILL">
<path fill="#9DC1D0" stroke="none" d="
M -7 -10.55
L -25.7 -11.25 -25.5 5.4
Q -16.9 7.9 -6.8 6.15
L -7 -10.55
M -25.15 -11
Q -17.2 -7.5 -7.9 -10.35
L -7.75 4.95
Q -18.05 7.55 -24.9 4.3
L -25.15 -11
M 25.75 -9
L 7.05 -10.65 6.3 5.95
Q 14.8 8.85 25 7.55
L 25.75 -9
M 7.65 -10.35
Q 15.4 -6.45 24.85 -8.9
L 24.1 6.35
Q 13.65 8.45 6.95 4.9
L 7.65 -10.35 Z"/>

<path fill="#D7E6EC" stroke="none" d="
M -7.9 -10.35
Q -17.2 -7.5 -25.15 -11
L -24.9 4.3
Q -18.05 7.55 -7.75 4.95
L -7.9 -10.35
M 24.85 -8.9
Q 15.4 -6.45 7.65 -10.35
L 6.95 4.9
Q 13.65 8.45 24.1 6.35
L 24.85 -8.9 Z"/>
</g>

<g id="Duplicate_Items_Folder_body_suit_copy_3_0_Layer3_0_FILL">
<path fill="#01016D" stroke="none" d="
M -25.85 1.4
L -22.15 9.65
Q -14.95 9.1 -7.8 5.25
L -6.3 -2.75
Q -15.5 2.05 -25.85 1.4
M -8.5 8.9
L -8.55 8.7
Q -15.55 11.4 -21.85 12.4
L -21.1 19.5 -8.5 8.9
M -28.3 -2.05
L -27.1 -1.2
Q -15.8 -0.3 -5.65 -5.4
L -4.45 -10.9
Q -10.5 -8.4 -15.75 -9.2
L -28.3 -2.05
M -9.7 -30.3
L -13.1 -30.5 -6.7 -20.2 -12.95 -12.7
Q -8.75 -11.75 -3.95 -14.3
L -2.65 -19.9 -2.35 -20
Q -9.2 -27.5 -9.7 -30.3
M 3.7 -28.1
L 0.15 -29.45 -0.25 -29.6 -1.85 -29.75 -3.8 -29.8
Q -3.85 -26.2 0.55 -21.2
L 4 -23.05
Q 2.1 -26 3.7 -28.1
M 9.95 -25.85
L 7.15 -26.95
Q 6.6 -25.35 8.25 -24.95
L 9.95 -25.85 Z"/>

<path fill="#CC0000" stroke="none" d="
M -8.55 8.7
L -7.8 5.25
Q -14.95 9.1 -22.15 9.65
L -21.85 12.4
Q -15.55 11.4 -8.55 8.7
M -12.95 -12.7
L -15.75 -9.2
Q -10.5 -8.4 -4.45 -10.9
L -3.95 -14.3
Q -8.75 -11.75 -12.95 -12.7
M -6.3 -2.75
L -5.65 -5.4
Q -15.8 -0.3 -27.1 -1.2
L -25.85 1.4
Q -15.5 2.05 -6.3 -2.75
M -3.8 -29.8
L -9.7 -30.3
Q -9.2 -27.5 -2.35 -20
L 0.55 -21.2
Q -3.85 -26.2 -3.8 -29.8
M 7.15 -26.95
L 3.7 -28.1
Q 2.1 -26 4 -23.05
L 8.25 -24.95
Q 6.6 -25.35 7.15 -26.95 Z"/>

<path fill="#000000" stroke="none" d="
M 7.15 -26.95
L 9.95 -25.85 8.25 -24.95 4 -23.05 0.55 -21.2 -2.35 -20 -2.65 -19.9 -3.95 -14.3 -4.45 -10.9 -5.65 -5.4 -6.3 -2.75 -7.8 5.25 -8.55 8.7 -8.5 8.9 -21.1 19.5 -21.85 12.4 -22.15 9.65 -25.85 1.4 -27.1 -1.2 -28.3 -2.05 -15.75 -9.2 -12.95 -12.7 -6.7 -20.2 -13.1 -30.5 -9.7 -30.3 -3.8 -29.8 -1.85 -29.75 -18.15 -31.55 -8.7 -20.2 -33.25 -1.05 -22.45 21.6 -6.2 11.25 -0.15 -19.05 15.2 -24.55 0.15 -29.45 3.7 -28.1 7.15 -26.95 Z"/>
</g>

<g id="Duplicate_Items_Folder_body_suit_copy_3_0_Layer2_0_FILL">
<path fill="#CC0000" stroke="none" d="
M 31.25 21.1
Q 30.7330078125 18.4068359375 28.3 18.25 25.9056640625 18.14765625 24.15 19.65 23.15 19.2 22.1 19.15 20.25 19.05 18.8 20.4 16.65 17.9 13.5 17.75 10.35 17.7 8 20.05 5.7021484375 22.4033203125 6.9 25.9 8.1435546875 29.4396484375 9.55 31.85 10.9564453125 34.26015625 12.55 34.3 14.1478515625 34.346484375 15.3 33.95 15.7 35.75 16.55 37.25 18.4447265625 40.398046875 20.75 40.3 23.115234375 40.2556640625 24.9 37.6 26.6794921875 34.9923828125 28.15 32.4 30.45 32.3 32.2 30.5 34.1443359375 28.4521484375 32.95 26.15 31.8169921875 23.84296875 31.25 21.1 Z"/>
</g>

<g id="Duplicate_Items_Folder_body_suit_copy_3_0_Layer1_0_FILL">
<path fill="#000000" stroke="none" d="
M 25.95 10.2
Q 25.2 10.3 24.8 10.5
L 20.15 11.2 16.55 5.3
Q 16.4 5 16.05 4.85 15.9 4.65 15.5 4.9 15.35 4.9 15.1 5.05 15 5.35 14.95 5.75
L 14.35 13.85 7.35 16.8
Q 7.15 16.85 7.15 17.05 7 17.4 7.05 17.65 7 17.95 7.15 18.2 7.4 18.35 7.7 18.35
L 14.4 20.1 13 25.4
Q 12.85 25.7 12.85 26 13.15 26.3 13.2 26.5 13.65 26.65 14.1 26.65
L 18.85 24.5 22.5 28.6
Q 22.85 28.5 23 28.6 23.3 28.6 23.55 28.45 23.75 28.4 24 28.3
L 26.45 22.65 33.5 23.7
Q 31.9 22.65 27.05 15.45
L 25.95 10.2
M 25.65 21
Q 25.5 21.05 25.45 21.1 25.2 21.2 24.95 21.35
L 22.9 26.3 19.7 22.95
Q 19.45 22.8 19.15 22.75 18.9 22.65 18.75 22.8
L 14.8 24.4 16.3 19.9
Q 16.35 19.5 16.25 19.15 16.2 19.2 16.1 18.95 15.95 18.8 15.75 18.6
L 10.7 17.45 15.7 15.3
Q 15.8 15.25 15.95 15.05 16.2 14.8 16.1 14.55
L 16.35 11.2 16.4 8.4 19 12.75
Q 19.2 12.7 19.4 12.9 19.6 12.9 19.95 12.9
L 24.8 12 25.6 17.15 30.4 22 26.95 20.8 26.5 20.65
Q 26.15 20.65 25.85 20.95
L 25.65 21
M 18.1 20.6
Q 18.1 20.45 18.05 20 17.8 19.75 17.6 19.6 17.3 19.5 17 19.6 16.7 19.7 16.5 20.2 16.45 20.45 16.6 20.55 16.65 21.05 17.05 21.1 17.25 21.2 17.55 20.95 17.8 20.9 18.1 20.6
M 18.1 14.8
Q 18.2 14.25 18.15 14 18.05 13.7 17.65 13.75 17.45 13.5 17.2 13.65 16.9 13.75 16.8 14.15 16.6 14.4 16.65 14.65 16.95 14.95 17.25 15.3 17.35 15.3 17.75 15.1 18 14.95 18.1 14.8
M 22.05 20.9
Q 22.05 20.55 21.6 20.45 21.35 20.5 20.9 20.45 20.9 20.55 20.75 20.65 20.65 20.9 20.6 20.95 20.45 21.2 20.4 21.6 20.6 21.85 20.95 22 21.4 22.2 21.55 21.95 22 21.8 22 21.55 22.2 21.15 22.05 20.9
M 20.8 17.5
Q 20.95 17.25 21.25 17 21.15 16.8 21 16.4 20.95 16.2 20.7 16.1 20.3 16 20.15 16.1 19.95 16.2 19.75 16.4 19.8 16.8 19.8 17.15 19.95 17.45 20.2 17.5 20.5 17.65 20.8 17.5
M 23.8 13.6
L 23.75 13.75 23.55 13.8
Q 23.25 14 23.2 14.25 23.1 14.45 23.25 14.7 23.45 15.25 23.7 15.25 23.8 15.3 23.95 15.1 24.35 15 24.65 14.8 24.6 14.5 24.5 14.15 24.35 13.85 24.15 13.75 23.9 13.65 23.8 13.6
M 25.2 18.4
Q 24.9 18.2 24.55 18.3 24.3 18.5 24.2 18.6 24.15 18.7 24.1 18.9 23.95 19.2 24.2 19.3 24.25 19.6 24.65 19.75 24.8 19.9 25 19.75 25.25 19.75 25.35 19.5 25.55 19.4 25.65 19.3 25.6 19.2 25.6 18.75 25.35 18.5 25.2 18.4 Z"/>

<path fill="#D9BDB7" stroke="none" d="
M 24.1 18.9
Q 24.15 18.7 24.2 18.6 20.45 13.8 16.35 11.2
L 16.1 14.55
Q 16.2 14.8 15.95 15.05 15.8 15.25 15.7 15.3
L 10.7 17.45 15.75 18.6
Q 15.95 18.8 16.1 18.95 16.2 19.2 16.25 19.15 16.35 19.5 16.3 19.9
L 14.8 24.4 18.75 22.8
Q 18.9 22.65 19.15 22.75 19.45 22.8 19.7 22.95
L 22.9 26.3 24.95 21.35
Q 25.2 21.2 25.45 21.1 25.5 21.05 25.65 21
L 25.85 20.95
Q 26.15 20.65 26.5 20.65
L 26.95 20.8 25.35 19.5
Q 25.25 19.75 25 19.75 24.8 19.9 24.65 19.75 24.25 19.6 24.2 19.3 23.95 19.2 24.1 18.9
M 21.25 17
Q 20.95 17.25 20.8 17.5 20.5 17.65 20.2 17.5 19.95 17.45 19.8 17.15 19.8 16.8 19.75 16.4 19.95 16.2 20.15 16.1 20.3 16 20.7 16.1 20.95 16.2 21 16.4 21.15 16.8 21.25 17
M 21.6 20.45
Q 22.05 20.55 22.05 20.9 22.2 21.15 22 21.55 22 21.8 21.55 21.95 21.4 22.2 20.95 22 20.6 21.85 20.4 21.6 20.45 21.2 20.6 20.95 20.65 20.9 20.75 20.65 20.9 20.55 20.9 20.45 21.35 20.5 21.6 20.45
M 18.15 14
Q 18.2 14.25 18.1 14.8 18 14.95 17.75 15.1 17.35 15.3 17.25 15.3 16.95 14.95 16.65 14.65 16.6 14.4 16.8 14.15 16.9 13.75 17.2 13.65 17.45 13.5 17.65 13.75 18.05 13.7 18.15 14
M 18.05 20
Q 18.1 20.45 18.1 20.6 17.8 20.9 17.55 20.95 17.25 21.2 17.05 21.1 16.65 21.05 16.6 20.55 16.45 20.45 16.5 20.2 16.7 19.7 17 19.6 17.3 19.5 17.6 19.6 17.8 19.75 18.05 20 Z"/>

<path fill="#FF6699" stroke="none" d="
M 24.55 18.3
Q 24.9 18.2 25.2 18.4 25.35 18.5 25.6 18.75 25.6 19.2 25.65 19.3 25.55 19.4 25.35 19.5
L 26.95 20.8 30.4 22 25.6 17.15 24.8 12 19.95 12.9
Q 19.6 12.9 19.4 12.9 19.2 12.7 19 12.75
L 16.4 8.4 16.35 11.2
Q 20.45 13.8 24.2 18.6 24.3 18.5 24.55 18.3
M 23.75 13.75
L 23.8 13.6
Q 23.9 13.65 24.15 13.75 24.35 13.85 24.5 14.15 24.6 14.5 24.65 14.8 24.35 15 23.95 15.1 23.8 15.3 23.7 15.25 23.45 15.25 23.25 14.7 23.1 14.45 23.2 14.25 23.25 14 23.55 13.8
L 23.75 13.75 Z"/>
</g>

<g id="Duplicate_Items_Folder_body_suit_copy_3_0_Layer0_0_FILL">
<path fill="#000000" stroke="none" d="
M 21.95 -15.35
L 16.8 -32.2 -1.2 -29.2 -20.3 -33.35 -24.7 -15.45 -1.45 -27.2 8 -22.05 21.95 -15.35
M 15.15 -29.45
L 19.65 -17.55 -0.6 -27.95 15.15 -29.45
M -2.6 -27.75
L -22.4 -17.7 -17.9 -30.65 -3.65 -28.45 -3.8 -28.45 -2.6 -27.75 Z"/>

<path fill="#B4D0DC" stroke="none" d="
M -22.4 -17.7
L -2.6 -27.75 -3.8 -28.45 -3.65 -28.45 -17.9 -30.65 -22.4 -17.7
M 19.65 -17.55
L 15.15 -29.45 -0.6 -27.95 19.65 -17.55 Z"/>
</g>

<g id="Duplicate_Items_Folder_head_copy_3_0_Layer7_0_FILL">
<path fill="#000000" stroke="none" d="
M 1.35 -101.95
Q 1.2 -101.95 1.05 -101.95 -0.8 -102.3 -1 -102.3
L -1 -102.25
Q -2.5 -102.3 -5.65 -102.2 -11.35 -102 -22.35 -101.25 -22.45 -101.25 -22.5 -101.3 -22.85 -101.25 -23.15 -101.25 -26.3 -101 -29.35 -100.55 -32.85 -100.05 -36.25 -99.05 -46.45 -96.2 -55.15 -89.8 -69.3 -79.55 -77.75 -41.2 -86.254296875 -2.9978515625 -71.65 19.15 -56.987109375 41.29453125 -46.85 48.35 -36.6634765625 55.4515625 -29.4 56.55 -22.095703125 57.655859375 -22.5 57.4
L -18.55 55.1
Q -19.1 58.15 -18.95 58.15 -18.75 58.2 -18.45 55.2
L -16.25 55.6
Q -4.2818359375 61.6361328125 4.35 57.4 13.0357421875 53.2181640625 20.9 48.35 28.75546875 43.489453125 41.45 30.2 54.2005859375 16.9072265625 57.7 -21.55 61.1990234375 -59.9533203125 51 -71.65 46.15 -77.1 40.15 -81.95 33.3 -87.4 25 -92 9.2 -100.6 4.3 -101.45 2.45 -101.75 1.35 -101.95
M 21.35 -85.75
Q 30.15 -80.95 37.1 -75 41.2 -71.4 44.75 -67.45 53.85 -56.9 50.75 -20.1 47.6 16.55 36.1 28.15 24.7 39.75 15 45.45 7.846484375 49.64453125 0.15 52.6 -7.53984375 55.566015625 -17.7 49.15
L -17.75 49.2
Q -17.9 49.15 -18.1 49.15 -18.35 49.1 -18.55 49.1
L -18.5 49.05
Q -19.2341796875 49.7529296875 -27.15 50.8 -35.0119140625 51.89765625 -43.4 45.5 -51.74609375 39.1505859375 -66.6 16.65 -81.5 -5.9 -73.2 -40.2 -64.85 -74.6 -54.3 -81.65 -43.7 -88.75 -35.7 -91.4 -35.25 -91.55 -34.7 -91.75 -31.5 -92.75 -28.05 -93.25 -28 -93.3 -27.9 -93.3 -25 -93.8 -21.85 -94.05 -17.9 -94.25 -14.55 -94.5 -10.25 -94.75 -7.15 -94.8 -7.05 -94.85 -6.9 -94.8 -3.45 -95 -1.95 -94.9
L -1.95 -94.95
Q -1.65 -94.95 2.75 -94.15 7.2 -93.5 21.35 -85.75 Z"/>

<path fill="#E9AA8A" stroke="none" d="
M -27.9 -93.3
Q -28 -93.3 -28.05 -93.25 -31.5 -92.75 -34.7 -91.75 -37.55 -86.55 -39.9 -81.45 -40.15 -81 -40.35 -80.55
L -37.1 -80.05 -27.9 -93.3 Z"/>

<path fill="#D1DF53" stroke="none" d="
M 50.75 -20.1
Q 53.85 -56.9 44.75 -67.45 41.2 -71.4 37.1 -75 40.7 8.55 -16.45 43.9 -79.7 2.75 -40.35 -80.55 -40.15 -81 -39.9 -81.45 -37.55 -86.55 -34.7 -91.75 -35.25 -91.55 -35.7 -91.4 -43.7 -88.75 -54.3 -81.65 -64.85 -74.6 -73.2 -40.2 -81.5 -5.9 -66.6 16.65 -51.74609375 39.1505859375 -43.4 45.5 -35.0119140625 51.89765625 -27.15 50.8 -19.2341796875 49.7529296875 -18.5 49.05
L -18.55 49.1
Q -18.35 49.1 -18.1 49.15 -17.9 49.15 -17.75 49.2
L -17.7 49.15
Q -7.53984375 55.566015625 0.15 52.6 7.846484375 49.64453125 15 45.45 24.7 39.75 36.1 28.15 47.6 16.55 50.75 -20.1 Z"/>

<path fill="#DDE77E" stroke="none" d="
M 37.1 -75
Q 30.15 -80.95 21.35 -85.75 7.2 -93.5 2.75 -94.15 -1.65 -94.95 -1.95 -94.95
L -1.95 -94.9
Q -3.45 -95 -6.9 -94.8 -7.05 -94.85 -7.15 -94.8 -10.25 -94.75 -14.55 -94.5 -17.9 -94.25 -21.85 -94.05 -25 -93.8 -27.9 -93.3
L -37.1 -80.05 -40.35 -80.55
Q -79.7 2.75 -16.45 43.9 40.7 8.55 37.1 -75 Z"/>
</g>

<g id="Duplicate_Items_Folder_head_copy_3_0_Layer6_0_FILL">
<path fill="#000000" stroke="none" d="
M -56.35 -59.25
L -54.7 -57.3
Q -53.3 -58.6 -51.65 -60.1
L -52 -62.8
Q -54.3 -60.8 -56.35 -59.25
M -48.15 -63.45
L -46.55 -67.35
Q -49.35 -67.6 -52.2 -67.25
L -52.3 -67.25
Q -52.55 -67.2 -52.7 -67.25
L -52.8 -67.05
Q -53.15 -66.75 -53.2 -66.55
L -53.6 -65.55 -53.75 -65.45
Q -53.7 -65.3 -53.6 -65.05 -53.5 -64.85 -53.45 -64.65 -53.3 -64.45 -53.15 -64.5 -51.65 -64.35 -50.3 -64.4 -51.25 -63.35 -52 -62.8
L -51.65 -60.1
Q -49.9 -61.55 -48.15 -63.45
M -46.55 -67.35
L -48.15 -63.45
Q -47.85 -63.7 -47.55 -64.1 -44.85 -63.8 -42.6 -63.5
L -42.5 -67.1
Q -44.6 -67.1 -46.55 -67.35
M -60.85 -55.65
L -61.15 -52.05
Q -58.05 -54.3 -54.7 -57.3
L -56.35 -59.25
Q -58.6 -57.3 -60.85 -55.65
M -63.85 -49.95
L -64.25 -50.4 -64.35 -49.65
Q -64.2 -49.65 -63.85 -49.95
M -64.25 -50.4
L -63.85 -49.95
Q -62.6 -50.8 -61.15 -52.05
L -60.85 -55.65
Q -62.05 -54.7 -63.1 -53.95
L -64.25 -50.4
M -21 -62.8
L -20.45 -57.65
Q -19.8 -57.6 -19.45 -57.4 -19.1 -57.15 -16.85 -57 -16.65 -56.9 -16.3 -57.05 -15.85 -57.35 -15.65 -57.6 -15.45 -58.05 -15.75 -58.25
L -16.2 -60.5
Q -16.15 -61.15 -16.65 -61.2 -18.85 -62.1 -21 -62.8
M -30.8 -61.4
Q -30.7 -61.45 -30.6 -61.25 -29 -60.95 -27.6 -60.5 -27.25 -60.25 -26.7 -59.9
L -24.3 -63.95
Q -27.65 -64.7 -31 -65.55
L -30.8 -61.4
M -34.15 -66.15
L -36.85 -62.7
Q -33.5 -61.9 -30.8 -61.4
L -31 -65.55
Q -32.5 -65.85 -34.15 -66.15
M -36.85 -62.7
L -34.15 -66.15
Q -38.25 -66.65 -42.5 -67.1
L -42.6 -63.5
Q -39.5 -63.05 -36.85 -62.7
M -21 -62.8
Q -22.75 -63.2 -24.3 -63.95
L -26.7 -59.9
Q -22.15 -58.5 -20.45 -57.65
L -21 -62.8 Z"/>
</g>

<g id="Duplicate_Items_Folder_head_copy_3_0_Layer5_0_FILL">
<path fill="#CC0000" stroke="none" d="
M -53.4 7.9
Q -55 4.25 -55.9 4.9 -56.9 5.5 -57.1 8.55 -57.35 11.7 -57.25 14.2 -57.25 16.8 -56.95 20 -56.65 23.15 -53.4 23.15 -50.25 23.1 -49.25 20.35 -48.4 17.65 -50.1 14.5 -51.9 11.5 -53.4 7.9
M -60.3 -7.55
Q -63.05 -6.5 -64.3 -6.5 -65.55 -6.4 -66.4 -5.25 -66.55 -5.05 -71.3 -6.05 -69.6 -5.65 -72.4 -5.1 -75.25 -4.7 -73.25 -1.8 -71.15 1.1 -67.3 3.9 -63.7 6.75 -63.05 8.3 -62.4 9.9 -60.5 9.45 -58.55 8.95 -58.75 5.7 -59 2.3 -59.85 0.35 -60.75 -1.4 -60.65 -1.75 -60.15 -2.95 -59 -5.55 -57.65 -8.45 -60.3 -7.55 Z"/>
</g>

<g id="Duplicate_Items_Folder_head_copy_3_0_Layer4_0_FILL">
<path fill="#000000" stroke="none" d="
M 51.25 -88.65
Q 50.95 -89.75 50.4 -90.75 45.25 -102.45 27.4 -111.55 14.05 -120.9 -4.8 -120.6 -7.8 -120.55 -11.25 -120.25 -12.25 -120.15 -12.9 -119.35
L -19.45 -111.1 -20.7 -115.35
Q -20.85 -116.2 -21.5 -116.8 -22 -117.4 -22.75 -117.6 -23.5 -117.8 -24.3 -117.65
L -40.95 -113
Q -41.45 -112.9 -41.75 -112.5 -62.1 -97.75 -73.45 -81.3 -90.35 -56.4 -90.65 -31.65 -90.65 -30.8 -90.2 -30 -89.6 -29.2 -88.85 -28.8 -88.05 -28.4 -87.2 -28.55 -86.3 -28.65 -85.8 -29.35 -83.1 -32.15 -81.7 -29.6 -80.35 -30.25 -79.5 -23.3 -79.3 -22.15 -78.45 -21.35 -77.65 -20.6 -76.7 -20.65 -75.8 -20.7 -76.5 -22.65 -77.15 -24.65 -75.15 -40.7 -73.25 -56.9 -53.55 -70.9 -53.25 -71.1 -53 -71.5 -45 -83.5 -27.4 -88 -27.75 -84.5 -27.5 -81.4 -26.8 -70 -18.5 -65.8 -13.65 -63 -5.95 -63.15 2.8 -63.3 15.2 -67.25 15.85 -67.5 16.55 -67.7 16.7 -67.75 16.8 -67.8
L 32.55 -75.65 43.9 -66.95
Q 56.55 -39.5 55.35 -22.7 55.35 -22.3 55.4 -21.85
L 58.75 -6.15
Q 58.95 -5.3 59.6 -4.6 60.3 -4 61.1 -3.75 62 -3.6 62.75 -3.95 63.55 -4.3 63.95 -5
L 72.9 -22.05
Q 73.45 -22.85 73.15 -23.75
L 65.75 -58.55
Q 65.2 -75.15 51.25 -88.65
M 24.65 -107.05
Q 24.85 -106.95 25.05 -106.8 37.35 -100.6 42.85 -93.05 45.2 -90 46.3 -86.7 46.5 -86 46.9 -85.45 47.05 -85.35 47.1 -85.25 49.85 -82.8 51.9 -80.1 55.2 -76.1 57.2 -71.75 60 -65.55 60.2 -58.6 60.25 -58.35 60.25 -58.05
L 64.75 -37.45 67.55 -24.15 62.45 -14.6 60.85 -22.15
Q 61.55 -31.25 58.45 -43.05 55.4 -54.9 48.55 -69.5 48.25 -70.2 47.65 -70.65
L 34.2 -81
Q 33.55 -81.5 32.75 -81.6 31.9 -81.65 31.2 -81.25
L 14.05 -72.95
Q 7.2 -70.6 1.55 -69.6 -10.1 -67.55 -16.2 -70.6 -16.3 -70.7 -16.45 -70.75 -21.5 -74.05 -21.95 -82.1 -22.15 -85.95 -21.25 -90.9 -21.1 -91.9 -21.55 -92.75 -22.05 -93.7 -22.95 -94.1 -23.15 -94.2 -23.35 -94.3 -24.05 -94.5 -24.75 -94.4 -42.05 -91 -51.8 -81.9 -55.05 -79 -57.45 -75.25 -60.45 -73.2 -63 -70.7 -69.3 -64.5 -73.2 -55.9 -77.1 -47.3 -78.65 -36.2 -78.6 -36.05 -78.65 -35.9 -78.95 -36.2 -79.25 -36.4 -80.8 -37.7 -82.65 -37.7 -83.55 -37.75 -84.8 -37.3 -84.75 -37.8 -84.65 -38.3
L -85.35 -36.85
Q -82.35 -57.3 -69.8 -76.35 -69.7 -76.4 -69.65 -76.5 -69.2 -77.2 -68.75 -77.85 -68.6 -78.1 -68.4 -78.4 -57.55 -93.8 -38.6 -107.7
L -25.15 -111.5 -23.2 -104.6
Q -22.95 -103.45 -22 -102.85 -21.35 -102.4 -20.8 -102.3 -20.4 -102.3 -20.1 -102.25 -19 -102.35 -18.3 -103.2
L -14.75 -107.75 -9.1 -114.85
Q 11 -116.5 24.65 -107.05 Z"/>

<path fill="#73371F" stroke="none" d="
M -28.7 -99.6
L -21.55 -99.7 -20.8 -102.3
Q -21.35 -102.4 -22 -102.85 -22.95 -103.45 -23.2 -104.6
L -25.15 -111.5 -38.6 -107.7
Q -57.55 -93.8 -68.4 -78.4 -68.6 -78.1 -68.75 -77.85 -69.2 -77.2 -69.65 -76.5 -69.7 -76.4 -69.8 -76.35 -82.35 -57.3 -85.35 -36.85
L -84.65 -38.3
Q -84.75 -37.8 -84.8 -37.3 -83.55 -37.75 -82.65 -37.7 -80.2 -48.5 -76.5 -57.4 -76.4 -57.55 -76.35 -57.7 -72.3 -67.1 -66.7 -74.4 -66.05 -75.3 -65.35 -76.05
L -48.7 -92.05 -28.7 -99.6
M 25.05 -106.8
Q 24.85 -106.95 24.65 -107.05 11 -116.5 -9.1 -114.85
L -14.75 -107.75 12.05 -105.8
Q 23 -101.45 28.75 -96.2
L 1.8 -97 -21.95 -82.1
Q -21.5 -74.05 -16.45 -70.75
L 5.8 -88.4 29.2 -90.7 37 -89.6 40.1 -86.1 54.05 -70.5 62.65 -37.15 64.75 -37.45 60.25 -58.05
Q 60.25 -58.35 60.2 -58.6 60 -65.55 57.2 -71.75 55.2 -76.1 51.9 -80.1 49.85 -82.8 47.1 -85.25 47.05 -85.35 46.9 -85.45 46.5 -86 46.3 -86.7 45.2 -90 42.85 -93.05 37.35 -100.6 25.05 -106.8 Z"/>

<path fill="#CA673E" stroke="none" d="
M 1.8 -97
L 28.75 -96.2
Q 23 -101.45 12.05 -105.8
L -14.75 -107.75 -18.3 -103.2
Q -19 -102.35 -20.1 -102.25 -20.4 -102.3 -20.8 -102.3
L -21.55 -99.7 -28.7 -99.6 -48.7 -92.05 -65.35 -76.05
Q -66.05 -75.3 -66.7 -74.4 -72.3 -67.1 -76.35 -57.7 -76.4 -57.55 -76.5 -57.4 -80.2 -48.5 -82.65 -37.7 -80.8 -37.7 -79.25 -36.4 -78.95 -36.2 -78.65 -35.9 -78.6 -36.05 -78.65 -36.2 -77.1 -47.3 -73.2 -55.9 -69.3 -64.5 -63 -70.7 -60.45 -73.2 -57.45 -75.25 -55.05 -79 -51.8 -81.9 -42.05 -91 -24.75 -94.4 -24.05 -94.5 -23.35 -94.3 -23.15 -94.2 -22.95 -94.1 -22.05 -93.7 -21.55 -92.75 -21.1 -91.9 -21.25 -90.9 -22.15 -85.95 -21.95 -82.1
L 1.8 -97
M 40.1 -86.1
L 37 -89.6 29.2 -90.7 5.8 -88.4 -16.45 -70.75
Q -16.3 -70.7 -16.2 -70.6 -10.1 -67.55 1.55 -69.6
L 17.1 -82.95 40.1 -86.1 Z"/>

<path fill="#9F4F2D" stroke="none" d="
M 47.65 -70.65
Q 48.25 -70.2 48.55 -69.5 55.4 -54.9 58.45 -43.05 61.55 -31.25 60.85 -22.15
L 62.45 -14.6 67.55 -24.15 64.75 -37.45 62.65 -37.15 54.05 -70.5 40.1 -86.1 17.1 -82.95 1.55 -69.6
Q 7.2 -70.6 14.05 -72.95
L 31.2 -81.25
Q 31.9 -81.65 32.75 -81.6 33.55 -81.5 34.2 -81
L 47.65 -70.65 Z"/>
</g>

<g id="Duplicate_Items_Folder_ear_0_Layer1_0_FILL">
<path fill="#FBC06A" stroke="none" d="
M 25.15 20.6
Q 26.15 18.6 24.25 14.6 19.1203125 5.6099609375 13.15 3.2 13.3212890625 2.9748046875 13.45 2.75 12.83046875 3.3193359375 10.9 2.65 7.15 1.3 4.8 5.55 2.45 9.75 2.85 12.9 3.25 16.05 5.95 17.95 7.7 19.2 12.2 22.65 16.25 25.45 18.45 25.45 20.6 25.45 21.45 24.6 22.7 20.3 23.8 19.1 24.9 17.85 25.15 20.6 Z"/>

<path fill="#000000" stroke="none" d="
M 24 23.05
Q 25.05 22.15 25.15 20.6 24.9 17.85 23.8 19.1 22.7 20.3 21.45 24.6 20.6 25.45 18.45 25.45 16.25 25.45 12.2 22.65 7.7 19.2 5.95 17.95 3.25 16.05 2.85 12.9 2.45 9.75 4.8 5.55 7.15 1.3 10.9 2.65 12.83046875 3.3193359375 13.45 2.75 13.6330078125 2.6330078125 13.7 2.4 13.7537109375 2.2482421875 13.75 2.05 13.80078125 1.51328125 13.5 0.65 11.35 0.05 9 0 2.45 -0.25 1.1 4.5 -0.5 10.1 0.25 13.7 0.9 17.15 3.85 19.25 5.75 20.6 10.65 24.35 15.05 27.4 17.45 27.4 19.8 27.4 20.75 26.5 22.1 24.7 24 23.05 Z"/>
</g>

<g id="Duplicate_Items_Folder_ear_0_Layer0_0_FILL">
<path fill="#000000" stroke="none" d="
M 8.85 8.3
L 12.05 13 12.25 16.75 12.55 16.85 18.6 16.65 21.05 20.05 20.1 15.3 14.7 13.15
Q 15.7 10 10.75 7.45
L 10.35 7.1 8.85 8.3 Z"/>
</g>

<g id="Duplicate_Items_Folder_head_copy_3_0_Layer1_0_FILL">
<path fill="#000000" stroke="none" d="
M -81.85 -67.7
Q -69 -77.25 -54.9 -84.5 -17.45 -104 28.7 -107.5
L -72.85 -220.4 -81.85 -67.7
M 8.15 -122.65
L 18.75 -111.3
Q -22.4 -108.25 -55.65 -91.05 -66.35 -85.45 -76.3 -78.35
L -75.45 -92.35 -75 -100.05 -74.1 -114.5 -72.95 -133.3 -71.55 -156.25 -70.7 -170.8 -68.6 -204.85 -67.6 -203.8 -53.45 -188.65 -45.1 -179.65 -25.95 -159.15 -17.85 -150.5 -1.85 -133.3 8.15 -122.65
M -37.35 -152.9
Q -37.8517578125 -153.1361328125 -38.25 -153.25
L -45.1 -156.55 -44.2 -167.95
Q -44.1 -168.5 -44.4 -169 -44.45 -169.4 -45.2 -169.45 -45.4 -169.6 -45.9 -169.6 -46.3 -169.35 -46.75 -168.85
L -55.3 -158.3 -63 -159.9 -66.65 -160.65 -67.4 -160.8
Q -67.7 -160.95 -67.85 -160.7 -68.4 -160.4 -68.6 -159.95 -68.95 -159.65 -69 -159.1 -68.8828125 -158.9125 -68.75 -158.75 -68.5625 -158.5828125 -68.35 -158.45
L -62 -150.75 -61.2 -149.8 -61.85 -149.25 -68.1 -143.9
Q -68.6 -143.65 -68.9 -143.2 -68.8 -142.5 -68.9 -142.25 -68.45 -141.6 -67.85 -141.2
L -61 -139.95 -60.85 -139.9 -59.5 -139.65 -57.55 -130 -57.5 -130 -49.05 -135.25 -45.45 -132.85 -39.75 -129.5 -40.85 -135.9
Q -42.187890625 -139.7037109375 -42.7 -144.3
L -36.45 -152.5
Q -36.92421875 -152.737109375 -37.35 -152.9
M -54.35 -155.2
Q -53.7 -155.35 -53.65 -155.75
L -47.35 -163.9 -48.05 -155.5
Q -47.75 -155.45 -47.75 -154.95 -47.45 -154.75 -47 -154.45
L -39.7 -151.15 -45.6 -145.3 -41.9 -132.3 -48.55 -138.25 -55.9 -133.45 -56.95 -140.95
Q -57.1 -141.4 -57.45 -141.8 -57.4650390625 -141.8263671875 -57.5 -141.85 -57.680078125 -142.1423828125 -58.05 -142.05
L -64.75 -143.55 -58.55 -148.3
Q -58.05 -148.8 -57.8 -149.4 -57.95 -149.35 -57.85 -149.75 -57.9 -150.15 -58 -150.55
L -63.55 -156.9 -54.9 -155.15
Q -54.7 -155.15 -54.35 -155.2 Z"/>

<path fill="#BB0986" stroke="none" d="
M -75.45 -92.35
L -76.3 -78.35
Q -66.35 -85.45 -55.65 -91.05
L -56.5 -96.5 -75.45 -92.35
M -74.1 -114.5
L -75 -100.05 -57.4 -108.05 -59.15 -124.1 -74.1 -114.5
M -66.65 -160.65
L -63 -159.9 -63.35 -163.55 -66.65 -160.65
M -68.35 -158.45
Q -68.5625 -158.5828125 -68.75 -158.75
L -71.55 -156.25 -72.95 -133.3 -61 -139.95 -67.85 -141.2
Q -68.45 -141.6 -68.9 -142.25 -68.8 -142.5 -68.9 -143.2 -68.6 -143.65 -68.1 -143.9
L -61.85 -149.25 -62 -150.75 -68.35 -158.45
M -67.6 -203.8
L -68.6 -204.85 -70.7 -170.8 -64.75 -176.9 -67.6 -203.8 Z"/>

<path fill="#33CCFF" stroke="none" d="
M -1.85 -133.3
L -57.4 -108.05 -56.5 -96.5 8.15 -122.65 -1.85 -133.3
M -57.5 -130
L -57.55 -130 -59.5 -139.65 -60.85 -139.9 -59.15 -124.1 -45.45 -132.85 -49.05 -135.25 -57.5 -130
M -45.1 -179.65
L -53.45 -188.65 -64.75 -176.9 -63.35 -163.55 -45.1 -179.65
M -17.85 -150.5
L -25.95 -159.15 -37.35 -152.9
Q -36.92421875 -152.737109375 -36.45 -152.5
L -42.7 -144.3
Q -42.187890625 -139.7037109375 -40.85 -135.9
L -17.85 -150.5 Z"/>

<path fill="#02B7E3" stroke="none" d="
M -57.4 -108.05
L -75 -100.05 -75.45 -92.35 -56.5 -96.5 -57.4 -108.05
M -60.85 -139.9
L -61 -139.95 -72.95 -133.3 -74.1 -114.5 -59.15 -124.1 -60.85 -139.9
M -68.75 -158.75
Q -68.8828125 -158.9125 -69 -159.1 -68.95 -159.65 -68.6 -159.95 -68.4 -160.4 -67.85 -160.7 -67.7 -160.95 -67.4 -160.8
L -66.65 -160.65 -63.35 -163.55 -64.75 -176.9 -70.7 -170.8 -71.55 -156.25 -68.75 -158.75 Z"/>

<path fill="#E80A9F" stroke="none" d="
M -45.45 -132.85
L -59.15 -124.1 -57.4 -108.05 -1.85 -133.3 -17.85 -150.5 -40.85 -135.9 -39.75 -129.5 -45.45 -132.85
M -64.75 -176.9
L -53.45 -188.65 -67.6 -203.8 -64.75 -176.9
M -61.85 -149.25
L -61.2 -149.8 -62 -150.75 -61.85 -149.25
M -38.25 -153.25
Q -37.8517578125 -153.1361328125 -37.35 -152.9
L -25.95 -159.15 -45.1 -179.65 -63.35 -163.55 -63 -159.9 -55.3 -158.3 -46.75 -168.85
Q -46.3 -169.35 -45.9 -169.6 -45.4 -169.6 -45.2 -169.45 -44.45 -169.4 -44.4 -169 -44.1 -168.5 -44.2 -167.95
L -45.1 -156.55 -38.25 -153.25
M 18.75 -111.3
L 8.15 -122.65 -56.5 -96.5 -55.65 -91.05
Q -22.4 -108.25 18.75 -111.3 Z"/>
</g>

<g id="Duplicate_Items_Folder_head_copy_3_0_Layer0_0_FILL">
<path fill="#000000" stroke="none" d="
M -96.25 -228.9
Q -96.8 -229.1 -97.25 -228.85 -97.55 -228.65 -97.75 -228.25 -97.85 -228.2 -97.9 -228.1 -98.25 -227.65 -98.1 -227.1 -98.05 -226.5 -97.5 -226.05
L -82.05 -213.05 -104.2 -204.05
Q -104.65 -203.8 -104.8 -203.3 -104.9 -203.05 -104.9 -202.8 -105.15 -202.65 -105.3 -202.45 -105.7 -202 -105.55 -201.45 -105.45 -200.8 -104.95 -200.4 -104.55 -200.05 -104 -200.1
L -78.15 -201.45 -87.8 -183.65 -89.2 -182.25
Q -89.6 -181.9 -89.5 -181.25 -89.55 -180.7 -89.15 -180.25 -88.75 -179.85 -88.15 -179.75 -87.65 -179.7 -87.25 -180.05
L -85.85 -181.45
Q -85.7 -181.55 -85.6 -181.7
L -66.2 -200.4 -46.7 -199.75
Q -46.2 -199.75 -45.8 -200.1 -45.75 -200.25 -45.7 -200.4 -45.4 -200.35 -45.05 -200.5 -44.55 -200.7 -44.5 -201.25 -44.35 -201.8 -44.6 -202.4 -44.85 -202.9 -45.4 -203.15
L -59.55 -209.05 -46.25 -222.6 -45.4 -222.9
Q -44.95 -223.1 -44.75 -223.6 -44.5 -224.1 -44.75 -224.75 -44.95 -225.2 -45.45 -225.55 -46 -225.9 -46.5 -225.65
L -47.45 -225.3 -47.55 -225.25
Q -47.75 -225.2 -47.85 -225.15
L -65.3 -219.25 -66.05 -235.7
Q -66.1 -236.25 -66.5 -236.8 -66.9 -237.2 -67.45 -237.25 -67.65 -237.25 -67.8 -237.2 -68.1 -237.3 -68.45 -237.2 -68.95 -237.05 -69.15 -236.6
L -76.05 -221.4 -96.25 -228.9
M -67.4 -216.55
Q -67.05 -216.1 -66.45 -216.05 -66.35 -216.05 -66.25 -216.05 -65.9 -215.95 -65.5 -216.05
L -52.3 -220.5 -62.95 -209.6
Q -63.35 -209.3 -63.35 -208.8 -63.35 -208.4357421875 -63.15 -208.05
L -61.6 -207.4 -62.65 -207.45
Q -62.49140625 -207.33828125 -62.3 -207.3
L -51.5 -202.8 -66.65 -203.25
Q -67.15 -203.3 -67.5 -203 -67.75 -202.9 -68 -202.65
L -80.95 -190.25 -74.2 -202.75
Q -74.1388671875 -202.93359375 -74.15 -203.15
L -76.2 -201.15 -74.45 -204.4
Q -74.5939453125 -204.5763671875 -74.8 -204.7 -75.35 -205 -75.85 -204.95 -76.4 -204.9 -76.6 -204.4 -76.7 -204.4 -76.75 -204.4
L -98.1 -203.2 -79.45 -210.9
Q -79 -211.05 -78.75 -211.6 -78.6 -211.7 -78.55 -211.8 -78.3 -212.25 -78.35 -212.85 -78.45 -213.4 -78.95 -213.8
L -91.2 -224.2 -75.55 -218.3
Q -75.15 -218.2 -74.7 -218.3 -74.25 -218.5 -74 -218.9
L -68.55 -231.2 -67.9 -217.6
Q -67.85 -217.05 -67.4 -216.55 Z"/>

<path fill="#C0D41A" stroke="none" d="
M -74.15 -203.15
Q -74.1388671875 -202.93359375 -74.2 -202.75
L -80.95 -190.25 -68 -202.65
Q -67.75 -202.9 -67.5 -203 -67.15 -203.3 -66.65 -203.25
L -51.5 -202.8 -62.3 -207.3
Q -62.49140625 -207.33828125 -62.65 -207.45
L -69.1 -207.6
Q -69.35 -207.65 -69.5 -207.5 -69.65 -207.45 -69.75 -207.3
L -74.15 -203.15
M -66.45 -216.05
Q -67.05 -216.1 -67.4 -216.55 -67.85 -217.05 -67.9 -217.6
L -68.55 -231.2 -74 -218.9
Q -74.25 -218.5 -74.7 -218.3 -75.15 -218.2 -75.55 -218.3
L -91.2 -224.2 -78.95 -213.8
Q -78.45 -213.4 -78.35 -212.85 -78.3 -212.25 -78.55 -211.8 -78.6 -211.7 -78.75 -211.6 -79 -211.05 -79.45 -210.9
L -98.1 -203.2 -76.75 -204.4
Q -76.7 -204.4 -76.6 -204.4 -76.4 -204.9 -75.85 -204.95 -75.35 -205 -74.8 -204.7 -74.5939453125 -204.5763671875 -74.45 -204.4
L -72.85 -207.35
Q -72.75 -207.6 -72.8 -207.85 -72.9 -208.15 -73.15 -208.3 -73.4 -208.45 -73.65 -208.45 -73.9 -208.4 -74 -208.15 -74.05 -208.15 -74.1 -208.15
L -84.7 -207.6 -75.45 -211.4
Q -75.2 -211.45 -75.1 -211.75 -75 -211.8 -75 -211.85 -74.85 -212.05 -74.9 -212.35 -74.95 -212.65 -75.2 -212.85
L -81.25 -218 -73.5 -215.05
Q -73.3 -215 -73.1 -215.05 -72.85 -215.15 -72.75 -215.35
L -70.05 -221.45 -69.7 -214.7
Q -69.7 -214.45 -69.45 -214.2 -69.3 -213.95 -69 -213.95 -68.95 -213.95 -68.9 -213.95 -68.7 -213.9 -68.5 -213.95
L -62 -216.15 -67.25 -210.75
Q -67.45 -210.6 -67.45 -210.35 -67.45 -210.15 -67.3 -209.9 -67.2 -209.65 -66.95 -209.6
L -63.15 -208.05
Q -63.35 -208.4357421875 -63.35 -208.8 -63.35 -209.3 -62.95 -209.6
L -52.3 -220.5 -65.5 -216.05
Q -65.9 -215.95 -66.25 -216.05 -66.35 -216.05 -66.45 -216.05 Z"/>

<path fill="#FFFFFF" stroke="none" d="
M -69.45 -214.2
Q -69.7 -214.45 -69.7 -214.7
L -70.05 -221.45 -72.75 -215.35
Q -72.85 -215.15 -73.1 -215.05 -73.3 -215 -73.5 -215.05
L -81.25 -218 -75.2 -212.85
Q -74.95 -212.65 -74.9 -212.35 -74.85 -212.05 -75 -211.85 -75 -211.8 -75.1 -211.75 -75.2 -211.45 -75.45 -211.4
L -84.7 -207.6 -74.1 -208.15
Q -74.05 -208.15 -74 -208.15 -73.9 -208.4 -73.65 -208.45 -73.4 -208.45 -73.15 -208.3 -72.9 -208.15 -72.8 -207.85 -72.75 -207.6 -72.85 -207.35
L -74.45 -204.4 -76.2 -201.15 -74.15 -203.15 -69.75 -207.3
Q -69.65 -207.45 -69.5 -207.5 -69.35 -207.65 -69.1 -207.6
L -62.65 -207.45 -61.6 -207.4 -63.15 -208.05 -66.95 -209.6
Q -67.2 -209.65 -67.3 -209.9 -67.45 -210.15 -67.45 -210.35 -67.45 -210.6 -67.25 -210.75
L -62 -216.15 -68.5 -213.95
Q -68.7 -213.9 -68.9 -213.95 -68.95 -213.95 -69 -213.95 -69.3 -213.95 -69.45 -214.2 Z"/>
</g>

<g id="Duplicate_Items_Folder_mouth_open_0_Layer0_0_FILL">
<path fill="#000000" stroke="none" d="
M 22.15 -5.55
Q 19.29765625 -3.99453125 19.25 -3.9 18.1 -1.05 13.9 0.75
L 7.6 0.45
Q 7.4 0.45 7.2 0.5 6.95 0.6 6.85 0.8 5.75 2.15 3.7 3.25 3.6 3.25 3.55 3.3 2.45 4.15 0.65 3.85 -1.2 1.1 -5.5 -1 -5.7 -1.15 -5.95 -1.15 -6.2 -1.1 -6.4 -0.95 -9.5 1.15 -15.4 1.15 -16.08515625 0.7693359375 -16.7 0.35
L -16.45 0.25
Q -21.546484375 -3.3375 -19.35 0.75 -17.9802734375 2.033984375 -16.05 3.05 -15.9 3.15 -15.65 3.15 -9.25 3.25 -5.85 1 -2.2 2.95 -0.65 5.35 -0.5 5.65 -0.1 5.75 2.9 6.4 4.7 5.05 4.7 5 4.75 5 6.7 3.85 8 2.5
L 13.95 2.75
Q 14.15 2.75 14.35 2.7 19.65 0.5 21 -3.1 21.6685546875 -4.3142578125 22.15 -5.55 Z"/>
</g>

<g id="Duplicate_Items_Folder_eye_missing_7_Layer2_0_FILL">
<path fill="#000000" stroke="none" d="
M 24.15 -13.6
L 0.8 -10
Q -8.1 -8.7 -18.3 -4.9 -19.75 -4.35 -20.7 -3.2 -21.6 -1.95 -21.6 -0.45 -22.15 10.5 -20.75 19.35
L -19.15 29.85
Q -17.5 40.3 -8.9 46.55 -0.2 52.95 10.3 51.35
L 40.5 46.65
Q 42.5 46.3 43.65 44.8
L 62.25 20.85
Q 62.85 20.1 63.1 19.1 63.25 18.9 63.3 18.55 65.65 17.6 67.35 15.3 69.6 12.25 68.95 8.3
L 68.65 6.25
Q 68.05 2.4 64.95 -0.1 62.1 -2.05 58.85 -1.85 56.1 -6.7 51.2 -10.3 47.387109375 -13.06484375 43.2 -14.3
L 24.15 -13.6
M 47.1 1.2
Q 48.5296875 4.3666015625 48.65 11.5 48.65 19 46.95 25.75 45.95 29.25 44.55 32.75 40.45 42.3 25.25 44.75 10.25 47.25 0.4 42.1 -0.85 41.6 -1.75 40.85 -7.9611328125 36.958203125 -10.15 30.6 11.7224609375 -4.0845703125 47.1 1.2 Z"/>
</g>

<g id="Duplicate_Items_Folder_eye_missing_7_Layer1_0_FILL">
<path fill="#000000" stroke="none" d="
M 24.15 -13.6
L 0.8 -10
Q -8.1 -8.7 -18.3 -4.9 -19.75 -4.35 -20.7 -3.2 -21.6 -1.95 -21.6 -0.45 -22.15 10.5 -20.75 19.35
L -19.15 29.85
Q -17.5 40.3 -8.9 46.55 -0.2 52.95 10.3 51.35
L 40.5 46.65
Q 42.5 46.3 43.65 44.8
L 62.25 20.85
Q 62.85 20.1 63.1 19.1 63.25 18.9 63.3 18.55 65.65 17.6 67.35 15.3 69.6 12.25 68.95 8.3
L 68.65 6.25
Q 68.05 2.4 64.95 -0.1 62.1 -2.05 58.85 -1.85 56.1 -6.7 51.2 -10.3 47.387109375 -13.06484375 43.2 -14.3
L 24.15 -13.6
M 18.2 -5.35
Q 34.2 -9.15 38.75 -6 43.15 -2.9 45.8 -0.7 48.45 1.5 48.65 11.5 48.65 19 46.95 25.75 45.95 29.25 44.55 32.75 40.45 42.3 25.25 44.75 10.25 47.25 0.4 42.1 -0.85 41.6 -1.75 40.85 -9.65 35.9 -11.05 26.95 -11.3 25.1 -11.35 23.4 -11.35 15.25 -5.2 7.65 2.2 -1.55 18.2 -5.35 Z"/>
</g>

<g id="eye_glass_0_Layer0_0_FILL">
<path fill="#DDFFFF" stroke="none" d="
M 60.45 9.15
Q 58.15 6.55 54.25 2.8 50.25 -1 33.85 0.35 17.45 1.65 8.7 9.6 1.45 16.15 0.25 24.2 0 25.9 0 27.75 0 36.8 7.05 42.95 7.85 43.8 8.95 44.5 17.9 51.1 33.15 50.95 48.55 50.85 54.05 42 56 38.75 57.5 35.45 60.25 29.05 61.35 21.65 62.7 11.7 60.45 9.15 Z"/>
</g>

<g id="Duplicate_Items_Folder_pupil_0_Layer0_0_FILL">
<path fill="#CC0000" stroke="none" d="
M 4.1 -0.3
Q 6.5 -2.75 6.5 -6.25 6.5 -9.7 4.1 -12.15 4 -12.25 4 -12.3 1.55 -14.6 -1.7 -14.6 -5.05 -14.6 -7.45 -12.15 -8.2 -11.4 -8.75 -10.6 -9.85 -8.55 -9.85 -6.25 -9.85 -2.75 -7.45 -0.3 -5.05 2.1 -1.7 2.1 1.7 2.1 4.1 -0.3
M 5.2 -7.1
Q 5.2 -4.6 3.5 -2.95 1.8 -1.2 -0.6 -1.2 -3 -1.2 -4.6 -2.95 -6.35 -4.6 -6.35 -7.1 -6.35 -9.55 -4.6 -11.35
L -4.6 -11.4
Q -2.95 -13.1 -0.6 -13.1 1.05 -13.1 2.35 -12.25 3 -11.85 3.5 -11.35 5.2 -9.55 5.2 -7.1 Z"/>

<path fill="#000000" stroke="none" d="
M 3.5 -2.95
Q 5.2 -4.6 5.2 -7.1 5.2 -9.55 3.5 -11.35 3 -11.85 2.35 -12.25 1.05 -13.1 -0.6 -13.1 -2.95 -13.1 -4.6 -11.4
L -4.6 -11.35
Q -6.35 -9.55 -6.35 -7.1 -6.35 -4.6 -4.6 -2.95 -3 -1.2 -0.6 -1.2 1.8 -1.2 3.5 -2.95
M -4 -9.9
Q -3.65 -9.9 -3.4 -9.6 -3.15 -9.4 -3.15 -9.05 -3.15 -8.75 -3.4 -8.5 -3.65 -8.3 -4 -8.3 -4.3 -8.3 -4.6 -8.5 -4.85 -8.75 -4.85 -9.05 -4.85 -9.4 -4.6 -9.6 -4.3 -9.9 -4 -9.9 Z"/>

<path fill="#FFFFFF" stroke="none" d="
M -3.4 -9.6
Q -3.65 -9.9 -4 -9.9 -4.3 -9.9 -4.6 -9.6 -4.85 -9.4 -4.85 -9.05 -4.85 -8.75 -4.6 -8.5 -4.3 -8.3 -4 -8.3 -3.65 -8.3 -3.4 -8.5 -3.15 -8.75 -3.15 -9.05 -3.15 -9.4 -3.4 -9.6 Z"/>
</g>

<g id="Duplicate_Items_Folder_eye_7_Layer2_0_FILL">
<path fill="#000000" stroke="none" d="
M 35.8 -17.25
L 8 -15.45
Q 0.15 -15 -9.1 -12.2 -10.4 -11.8 -11.35 -10.8 -12.3 -9.7 -12.45 -8.25 -14 2.35 -13.75 11.1
L -13.4 21.45
Q -13 31.75 -6.2 38.6 0.75 45.6 10 45
L 36.75 43.2
Q 38.5 43.05 39.65 41.7
L 58.3 20.15
Q 58.9 19.45 59.2 18.5 59.35 18.35 59.45 18 61.6 17.3 63.3 15.2 65.55 12.45 65.4 8.55
L 65.35 6.55
Q 65.2 2.8 62.8 0.05 60.5 -2.1 57.65 -2.2 55.8 -7.15 51.85 -11.1 45.1 -17.9 35.8 -17.25
M 52.35 11
Q 51.403125 18.84765625 48.75 24.2 46.083984375 29.5998046875 42.45 35.25 38.8703125 40.90078125 22.95 42.2 7.086328125 43.4986328125 2.8 40 -1.4375 36.5521484375 -1.6 36.25 -8.9908203125 30.712890625 -10.4 25.35 13.410546875 -18.6162109375 50.05 -0.7 53.3462890625 3.21015625 52.35 11 Z"/>
</g>

<g id="Duplicate_Items_Folder_eye_7_Layer1_0_FILL">
<path fill="#000000" stroke="none" d="
M 38.45 -20.95
L 6.7 -21.8
Q -2.3 -22.1 -13.1 -20.05 -14.6 -19.75 -15.7 -18.65 -16.8 -17.5 -17.15 -15.9 -19.55 -4.3 -19.8 5.4
L -20.1 16.95
Q -20.4 28.4 -13.15 36.75 -5.7 45.3 4.9 45.6
L 35.45 46.4
Q 37.45 46.4 38.9 45.05
L 61.5 23
Q 62.2 22.3 62.65 21.25 62.8 21.05 62.9 20.75 65.4 20.15 67.45 18 70.25 15.25 70.35 10.9
L 70.4 8.6
Q 70.55 4.4 67.9 1.15 65.5 -1.5 62.25 -1.95 60.45 -7.65 56.3 -12.4 49.05 -20.7 38.45 -20.95
M 43.25 -10.25
Q 47.05 -6.1 49.25 -3.15 51.45 -0.35 49.8 10.4 48.5 18.35 45.55 25.25 43.95 28.8 41.95 32.3 36.2 41.75 20.75 41.45 5.55 41.2 -3.2 33.8 -4.25 33.05 -5.05 32.05 -11.9 25.25 -11.65 15.4 -11.6 13.4 -11.3 11.55 -9.9 2.85 -2.45 -4.1 6.55 -12.45 22.9 -13.45 39.35 -14.5 43.25 -10.25 Z"/>
</g>

<g id="nose_0_Layer1_0_FILL">
<path fill="#000000" stroke="none" d="
M 1.95 -5.65
L 1.1 -7.1 -1.55 -6.55
Q -1.8 -5.65 -2 -4.8 -2.8 -2 -3.55 -0.65 -3.95 0 -5.4 1.4 -6.3 2.3 -5.9 3 -5.1 4.3 -2.55 4.8
L -2.45 4.85
Q -1.85 6.9 0.55 6.7 3.25 6.9 3.95 4.8
L 6.55 4.8 7.8 3.4
Q 8.8 1.95 7.55 1.45 6.4 1.05 5.55 -0.7 4.55 -2.65 3.95 -3.2 3.4 -3.7 2.9 -4.35 2.4 -4.95 1.95 -5.65
M 2.65 -3.2
Q 3.1 -2.65 3.55 -2.25 4 -1.85 4.85 -0.2 5.55 1.2 6.45 1.55 7.5 1.95 6.65 3.2
L 5.65 4.3 3.65 4.3 3.55 4.3 1.85 5.55
Q -1.25 5.55 -1.7 4.3
L -1.8 4.3
Q -3.95 3.9 -4.55 2.85 -4.9 2.25 -4.15 1.5 -2.9 0.4 -2.6 -0.15 -2 -1.3 -1.35 -3.55 -1.2 -4.3 -0.95 -5
L 1.2 -5.5 1.85 -4.3
Q 2.3 -3.7 2.65 -3.2 Z"/>

<path fill="#F38C61" stroke="none" d="
M -1.35 -3.55
Q -2 -1.3 -2.6 -0.15 -2.9 0.4 -4.15 1.5 -4.9 2.25 -4.55 2.85 -3.95 3.9 -1.8 4.3
L -1.7 4.3
Q -0.1 0.1 -1.35 -3.55
M 3.55 -2.25
Q 3.1 -2.65 2.65 -3.2 2.05 0.8 3.65 4.3
L 5.65 4.3 6.65 3.2
Q 7.5 1.95 6.45 1.55 5.55 1.2 4.85 -0.2 4 -1.85 3.55 -2.25 Z"/>

<path fill="#F8C0A9" stroke="none" d="
M 1.85 -4.3
L 1.2 -5.5 -0.95 -5
Q -1.2 -4.3 -1.35 -3.55 -0.1 0.1 -1.7 4.3 -1.25 5.55 1.85 5.55
L 3.55 4.3 3.65 4.3
Q 2.05 0.8 2.65 -3.2 2.3 -3.7 1.85 -4.3 Z"/>
</g>

<g id="nose_0_Layer0_0_FILL">
<path fill="#ED713D" stroke="none" d="
M 0.9 5.7
Q 2.1 5.7 2.95 4.9 3.85 4.2 3.85 3.1 3.85 2.05 3.05 0.8 2.25 -0.45 1.05 -0.5 -0.15 -0.6 -1.05 0.75 -2 2.05 -2 3.1 -2 4.2 -1.2 4.9 -0.3 5.7 0.9 5.7 Z"/>
</g>

<g id="Duplicate_Items_Folder_arm_suit_copy_3_0_Layer4_0_FILL">
<path fill="#DDEAEE" stroke="none" d="
M -8 -12.9
L -19 -5
Q -9.9 2.5 -4.35 4.55
L 5.9 -7.7 -4.75 -14.55 -5.4 -14.5 -4.75 -14.55 -6.1 -15.45 -8 -12.9 Z"/>

<path fill="#CADCE6" stroke="none" d="
M 11.35 -5.65
L 5.9 -7.7 -4.35 4.55
Q 1.85 6.8 5.4 3.95
L 11.35 -5.65
M 30.3 -39.45
Q 29.45 -39.5 28.75 -39.4
L 28.8 -39.3
Q 29 -38.8 24.4 -35.9 22.95 -35.05 21.1 -33.9 15.2 -30.45 13.95 -29.75
L 13.65 -29.6 -1.8 -14.85 6.45 -9.55 14.4 -17.85 31.15 -29 31.5 -33.25
Q 31.55 -33.45 31.6 -33.6
L 31.9 -36.1
Q 31.3 -37.7 30.3 -39.45 Z"/>

<path fill="#744F36" stroke="none" d="
M 6.65 -9.4
L 6.35 -9.45 6.65 -9.35 6.65 -9.4 Z"/>

<path fill="#97A0C6" stroke="none" d="
M 6.65 -9.4
L 6.45 -9.55 6.35 -9.45 6.65 -9.4 Z"/>

<path fill="#9DC1D0" stroke="none" d="
M 30.75 -26.6
L 31.15 -29 14.4 -17.85 6.45 -9.55 6.65 -9.4 6.65 -9.35 12.2 -7.05 17.4 -15.45
Q 19.2 -16.55 20.85 -17.6 24.65 -20.2 27.35 -22.75 29.35 -24.7 30.75 -26.6 Z"/>

<path fill="#000000" stroke="none" d="
M 32.35 -39.1
L 32.55 -40.25
Q 30.8 -40.3 28.25 -40.35 21.25 -40.55 15 -35.55 8.6 -30.5 7.25 -29.5 6.5 -28.95 2.1 -24.9 -1.55 -21.55 -7.9 -15.65 -10 -13.6 -14.8 -10.55 -19.5 -7.55 -21.15 -5.9 -23.15 -3.9 -21.95 -3.55 -20.7 -3.05 -21.9 -1.75 -23.45 0.05 -30.4 7.55 -35.45 13 -35.4 13.15 -37.45 15.75 -37.45 17.55 -35.9 20.8 -33.3 21.25 -36.45 24.4 -34.75 28.25
L -22.5 39.65
Q -19.75 41.35 -17.7 40.15 -15.65 38.9 -14.3 37.6 -13 36.3 -12.95 35.35 -12.95 34.4 -12.75 32.6 -12.55 30.8 -14.4 27.15
L -16.75 23.75
Q -16.75 21.4 -14.9 20.5
L -13.55 23.9
Q -12.45 27.15 -7.65 28.45 -6.4 28.55 -4.45 28.75 -2.45 28.85 -0.2 27.35 1.95 25.8 1.45 22.9 0.35 19.65 0.25 18.45 0.05 16.6 1.2 16 1.55 15.8 3 12.6 4.7 9 5.25 8.2 9.05 5.55 9.25 5.25 9.85 4.4 10.3 2.75 10.6 1.45 11.55 -0.55 12.25 -2.1 13.2 -4.1 17.35 -9.6 20.5 -13.35 22.2 -15.4 23.55 -16.95 25.8 -19.4 27.75 -21.15 28.9 -22.2 29.95 -23
L 30.75 -26.6
Q 29.35 -24.7 27.35 -22.75 24.65 -20.2 20.85 -17.6 19.2 -16.55 17.4 -15.45
L 12.2 -7.05 13.35 -6.6 12.2 -7.05 6.65 -9.35 6.35 -9.45 6.45 -9.55 -1.8 -14.85 -4.75 -14.55 5.9 -7.7 11.35 -5.65 13.05 -5 11.35 -5.65 5.4 3.95
Q 1.85 6.8 -4.35 4.55 -9.9 2.5 -19 -5
L -8 -12.9 -6.1 -15.45 -4.75 -14.55 -1.8 -14.85 13.65 -29.6 13.95 -29.75
Q 15.2 -30.45 21.1 -33.9 22.95 -35.05 24.4 -35.9 29 -38.8 28.8 -39.3
L 28.75 -39.4
Q 29.45 -39.5 30.3 -39.45 31.3 -37.7 31.9 -36.1
L 32.25 -39.1
Q 32.3 -39.1 32.35 -39.1
M 1.25 10.3
L 1.05 10.45
Q 0.7 10.85 -0.2 12.35 -1 13.9 -1.5 15.05 -2 16.1 -1.3 20.1 -0.7 24.1 -2.3 25.15 -4 26.2 -6.8 25.7 -9.75 25.2 -11.3 23.3
L -12.25 22.5
Q -13.25 18.55 -13.25 18.2 -13.55 14.9 -17.2 20.1 -18.15 21.4 -18.65 22.6 -19.8 25.8 -17 27.65 -14.8 30.8 -15.4 34.05 -15.45 35 -15.9 35.85 -16.4 36.7 -17.3 37.45 -19.05 38.5 -21.45 37.8
L -33.45 27.3
Q -33.2 23.3 -31.15 20.8 -31.4 20.5 -31.7 20.1 -32.9 18.2 -33.05 16.15 -30.3 11.6 -27.15 7.4 -26.25 6.3 -25.3 5.15 -22.55 1.7 -19.4 -1.4
L -16.8 0.5 -14.25 1.75 -10.4 6.1 -4.1 8.15 -2.9 8.35 -3.95 8.65 3 8.05
Q 2 9.45 1.25 10.3 Z"/>

<path fill="#FDD194" stroke="none" d="
M -3.95 8.65
L -4.1 8.15 -10.4 6.1 -14.25 1.75 -16.8 0.5 -19.4 -1.4
Q -22.55 1.7 -25.3 5.15 -26.25 6.3 -27.15 7.4 -30.3 11.6 -33.05 16.15 -32.9 18.2 -31.7 20.1 -31.4 20.5 -31.15 20.8 -33.2 23.3 -33.45 27.3
L -21.45 37.8
Q -19.05 38.5 -17.3 37.45 -16.4 36.7 -15.9 35.85 -15.45 35 -15.4 34.05 -14.8 30.8 -17 27.65 -19.8 25.8 -18.65 22.6 -18.15 21.4 -17.2 20.1 -13.55 14.9 -13.25 18.2 -13.25 18.55 -12.25 22.5 -8.9 16.25 -3.95 8.65 Z"/>

<path fill="#9592A9" stroke="none" d="
M -4.1 8.15
L -3.95 8.65 -2.9 8.35 -4.1 8.15 Z"/>

<path fill="#FCC87A" stroke="none" d="
M 1.05 10.45
L 1.25 10.3
Q 2 9.45 3 8.05
L -3.95 8.65
Q -8.9 16.25 -12.25 22.5
L -11.3 23.3
Q -9.75 25.2 -6.8 25.7 -4 26.2 -2.3 25.15 -0.7 24.1 -1.3 20.1 -2 16.1 -1.5 15.05 -1 13.9 -0.2 12.35 0.7 10.85 1.05 10.45 Z"/>
</g>

<g id="Duplicate_Items_Folder_arm_suit_copy_3_0_Layer3_0_FILL">
<path fill="#990000" stroke="none" d="
M 11.85 -18.5
Q 12.45 -20.15 11.9 -21.65 11.4 -23.1 10.1 -23.6 8.8 -24.05 7.45 -23.2 6.15 -22.35 5.55 -20.7 5 -19.05 5.5 -17.55 6 -16.05 7.3 -15.6 8.6 -15.1 9.95 -16 11.3 -16.85 11.85 -18.5
M 22.45 -25.8
Q 21.8 -27.1 20.35 -27.6 18.95 -28.05 17.6 -27.5 16.3 -26.9 15.8 -25.55 15.5 -24.7 15.7 -23.85 14.5 -23.05 13.95 -21.55 13.4 -19.9 13.9 -18.4 14.4 -16.9 15.7 -16.45 17 -16 18.35 -16.85 19.7 -17.7 20.25 -19.35 20.6 -20.25 20.55 -21.1 20.7 -21.2 20.85 -21.25 22.2 -21.8 22.65 -23.15 23.15 -24.5 22.45 -25.8 Z"/>
</g>

<g id="Duplicate_Items_Folder_arm_suit_copy_3_0_Layer2_0_FILL">
<path fill="#000000" stroke="none" d="
M -11.4 -7.75
Q -11.65 -7 -11.4 -6.35 -11.15 -5.65 -10.5 -5.45 -9.85 -5.2 -9.25 -5.6 -8.65 -5.95 -8.4 -6.7 -8.15 -7.4 -8.4 -8.1 -8.6 -8.75 -9.25 -9 -9.9 -9.2 -10.55 -8.85 -11.15 -8.45 -11.4 -7.75 Z"/>
</g>

<g id="Duplicate_Items_Folder_arm_suit_copy_3_0_Layer1_0_FILL">
<path fill="#000000" stroke="none" d="
M 8.8 -30.1
Q 8.7 -29.5 8.75 -29.2
L 8.75 -25.65 4.8 -24.3
Q 4.55 -24.25 4.45 -24.05 4.35 -23.95 4.45 -23.65 4.45 -23.6 4.5 -23.35 4.65 -23.15 4.8 -23.05
L 9.6 -21 10.55 -15.4
Q 10.6 -15.25 10.7 -15.1 10.85 -14.95 11.1 -14.9 11.2 -14.9 11.35 -14.95 11.45 -15.05 11.5 -15.3
L 13.3 -19.7 16.3 -17.55
Q 16.4 -17.4 16.65 -17.35 16.85 -17.5 16.95 -17.5 17.1 -17.8 17.1 -18.15
L 16.45 -22 19.3 -23.75
Q 19.25 -23.95 19.4 -24.1 19.45 -24.3 19.35 -24.45 19.25 -24.65 19.2 -24.8
L 16.1 -27.75 17.65 -32.6
Q 16.8 -31.7 11.95 -29.65
L 8.8 -30.1
M 9.75 -25.15
L 9.75 -28.8 12.85 -28.35 16.3 -30.8 15.15 -28.55 15.1 -28.2
Q 15 -28 15.1 -27.7
L 15.1 -27.55
Q 15.1 -27.4 15.15 -27.3 15.2 -27.2 15.25 -26.95
L 17.95 -24.45 15.6 -22.9
Q 15.5 -22.75 15.35 -22.6 15.3 -22.4 15.35 -22.25
L 15.85 -19.1 13.45 -21.1
Q 13.2 -21.25 13 -21.3 13 -21.15 12.85 -21.1 12.7 -21.05 12.6 -21
L 11.35 -17.6 10.6 -21.55
Q 10.55 -21.7 10.5 -21.85 10.35 -22.15 10.25 -22.1
L 8.3 -22.95 6.65 -23.6 9.5 -24.5
Q 9.5 -24.65 9.6 -24.75 9.65 -24.9 9.75 -25.15
M 14.1 -27.85
Q 14 -27.9 13.8 -28 13.6 -27.85 13.5 -27.75 13.4 -27.6 13.45 -27.3 13.5 -27.1 13.55 -27.05 13.6 -27 13.75 -26.85 13.85 -26.8 13.9 -26.85 14.2 -26.9 14.3 -27.05 14.4 -27.2 14.35 -27.4 14.35 -27.55 14.25 -27.7 14.1 -27.8 14.1 -27.85
M 10.8 -22.7
Q 10.8 -22.85 10.75 -23.1 10.7 -23.35 10.6 -23.45 10.35 -23.6 10.1 -23.6 9.95 -23.65 9.9 -23.35 9.75 -23.25 9.8 -23.05 9.8 -22.8 10.1 -22.65 10.2 -22.45 10.35 -22.4 10.6 -22.6 10.8 -22.7
M 13.65 -22.3
Q 13.5 -22.2 13.4 -22.1 13.3 -21.9 13.35 -21.65 13.4 -21.45 13.6 -21.2 13.75 -21.15 13.85 -21.15 14.15 -21.1 14.2 -21.4 14.3 -21.55 14.2 -21.8 14.2 -21.95 14 -22.2 13.9 -22.25 13.65 -22.3
M 15 -24.8
Q 14.85 -25.05 14.7 -25 14.45 -25 14.4 -24.75 14.3 -24.55 14.25 -24.35 14.3 -24.25 14.35 -24.15 14.5 -24 14.55 -23.9 14.7 -23.75 14.9 -23.65 15.05 -23.8 15.2 -23.95 15.35 -24.3 15.2 -24.45 15.2 -24.8 15 -24.8
M 11.9 -25.25
Q 11.75 -25.25 11.65 -25.05 11.55 -24.8 11.6 -24.65 11.65 -24.5 11.75 -24.3 12 -24.3 12.2 -24.2 12.35 -24.25 12.45 -24.45 12.55 -24.6 12.45 -24.85 12.45 -24.95 12.25 -25.2 12.2 -25.2 11.9 -25.25
M 11.35 -28.15
Q 11.2 -28.2 10.95 -28.2 10.75 -28.1 10.65 -27.9 10.55 -27.85 10.55 -27.7
L 10.6 -27.7 10.6 -27.5
Q 10.7 -27.3 10.85 -27.2 10.95 -27.05 11.15 -27.15 11.4 -27.15 11.5 -27.35 11.55 -27.4 11.5 -27.55 11.45 -27.9 11.35 -28.15 Z"/>

<path fill="#D9BDB7" stroke="none" d="
M 15.1 -28.2
L 15.15 -28.55 14.25 -27.7
Q 14.35 -27.55 14.35 -27.4 14.4 -27.2 14.3 -27.05 14.2 -26.9 13.9 -26.85 13.85 -26.8 13.75 -26.85 13.6 -27 13.55 -27.05 10.25 -25.35 8.3 -22.95
L 10.25 -22.1
Q 10.35 -22.15 10.5 -21.85 10.55 -21.7 10.6 -21.55
L 11.35 -17.6 12.6 -21
Q 12.7 -21.05 12.85 -21.1 13 -21.15 13 -21.3 13.2 -21.25 13.45 -21.1
L 15.85 -19.1 15.35 -22.25
Q 15.3 -22.4 15.35 -22.6 15.5 -22.75 15.6 -22.9
L 17.95 -24.45 15.25 -26.95
Q 15.2 -27.2 15.15 -27.3 15.1 -27.4 15.1 -27.55
L 15.1 -27.7
Q 15 -28 15.1 -28.2
M 11.65 -25.05
Q 11.75 -25.25 11.9 -25.25 12.2 -25.2 12.25 -25.2 12.45 -24.95 12.45 -24.85 12.55 -24.6 12.45 -24.45 12.35 -24.25 12.2 -24.2 12 -24.3 11.75 -24.3 11.65 -24.5 11.6 -24.65 11.55 -24.8 11.65 -25.05
M 14.7 -25
Q 14.85 -25.05 15 -24.8 15.2 -24.8 15.2 -24.45 15.35 -24.3 15.2 -23.95 15.05 -23.8 14.9 -23.65 14.7 -23.75 14.55 -23.9 14.5 -24 14.35 -24.15 14.3 -24.25 14.25 -24.35 14.3 -24.55 14.4 -24.75 14.45 -25 14.7 -25
M 13.4 -22.1
Q 13.5 -22.2 13.65 -22.3 13.9 -22.25 14 -22.2 14.2 -21.95 14.2 -21.8 14.3 -21.55 14.2 -21.4 14.15 -21.1 13.85 -21.15 13.75 -21.15 13.6 -21.2 13.4 -21.45 13.35 -21.65 13.3 -21.9 13.4 -22.1
M 10.75 -23.1
Q 10.8 -22.85 10.8 -22.7 10.6 -22.6 10.35 -22.4 10.2 -22.45 10.1 -22.65 9.8 -22.8 9.8 -23.05 9.75 -23.25 9.9 -23.35 9.95 -23.65 10.1 -23.6 10.35 -23.6 10.6 -23.45 10.7 -23.35 10.75 -23.1 Z"/>

<path fill="#FF6699" stroke="none" d="
M 9.75 -28.8
L 9.75 -25.15
Q 9.65 -24.9 9.6 -24.75 9.5 -24.65 9.5 -24.5
L 6.65 -23.6 8.3 -22.95
Q 10.25 -25.35 13.55 -27.05 13.5 -27.1 13.45 -27.3 13.4 -27.6 13.5 -27.75 13.6 -27.85 13.8 -28 14 -27.9 14.1 -27.85 14.1 -27.8 14.25 -27.7
L 15.15 -28.55 16.3 -30.8 12.85 -28.35 9.75 -28.8
M 10.95 -28.2
Q 11.2 -28.2 11.35 -28.15 11.45 -27.9 11.5 -27.55 11.55 -27.4 11.5 -27.35 11.4 -27.15 11.15 -27.15 10.95 -27.05 10.85 -27.2 10.7 -27.3 10.6 -27.5
L 10.6 -27.7 10.55 -27.7
Q 10.55 -27.85 10.65 -27.9 10.75 -28.1 10.95 -28.2 Z"/>
</g>

<g id="Duplicate_Items_Folder_arm_suit_copy_3_0_Layer0_0_FILL">
<path fill="#CC0000" stroke="none" d="
M -22.95 21.6
Q -23.55 22.35 -24 23.55 -24.45 24.7 -24.35 25.7 -24.2 26.75 -23.65 26.95 -23.05 27.1 -22.4 26.3 -21.8 25.6 -21.35 24.35 -20.9 23.2 -21 22.25 -21.1 21.25 -21.7 21.1 -22.25 20.9 -22.95 21.6
M -26.2 24.2
Q -27.2 23.85 -28.15 24.2 -29.15 24.65 -29.5 25.6 -29.85 26.6 -29.3 27.45 -28.8 28.45 -27.8 28.8 -26.75 29.15 -25.75 28.7 -24.8 28.35 -24.45 27.4 -24.1 26.4 -24.6 25.45 -25.15 24.55 -26.2 24.2 Z"/>

<path fill="#669933" stroke="none" d="
M -17.2 5.5
Q -18.05 5.2 -19.15 6.2 -20.2 7.15 -20.7 8.85 -20.8 9.1 -20.9 9.45 -21 9.3 -21.1 9.3 -21.45 9.2 -22.25 10.35 -22.95 11.5 -23.55 13.2 -23.9 14.15 -24.1 15.05 -24.55 14.9 -25.25 15.5 -25.85 16.2 -26.2 17.35 -26.65 18.5 -26.55 19.4 -26.5 20.4 -26.05 20.55 -25.5 20.75 -24.9 20 -24.2 19.4 -23.8 18.25 -23.65 17.8 -23.55 17.45 -23.3 17.2 -22.85 16.55 -22.15 15.5 -21.6 13.8 -21.35 13 -21.1 12.3 -20.9 13.45 -20.1 13.75 -19.15 14.1 -18.05 13 -17 12.05 -16.45 10.35 -15.85 8.7 -16 7.25 -16.2 5.85 -17.2 5.5 Z"/>
</g>

<path id="Duplicate_Items_Folder_arm_knives_copy_0_Layer2_0_1_STROKES" stroke="#000000" stroke-width="0.1" stroke-linejoin="round" stroke-linecap="round" fill="none" d="
M -3.65 -11.6
L -6.2 -9.85 -5.35 -8.55 -5.25 -9.2
M -5.35 -8.55
L -5.7 -5.75 -0.7 2.25
M -0.6 2.15
L -0.5 2.4 1.65 7.75 2.05 8.85
M 1.15 1.7
L 3.05 6.95 3.65 8.55
M -0.7 2.25
L -0.55 2.4 -0.6 2.15
M -5.35 -8.55
L 1.15 1.7"/>

<path id="Duplicate_Items_Folder_arm_knives_copy_0_Layer2_0_2_STROKES" stroke="#000000" stroke-width="3.85" stroke-linejoin="round" stroke-linecap="round" fill="none" d="
M 46.65 -22.375
L 37.5 -24 31.775 -33.975
M 47.45 -21.75
L 46.65 -22.375"/>

<path id="Duplicate_Items_Folder_arm_knives_copy_0_Layer2_0_3_STROKES" stroke="#000000" stroke-width="1" stroke-linejoin="round" stroke-linecap="round" fill="none" d="
M -24.2 14.5
L -25.5 15.1
M -14.175 2.45
L -14.95 10.2 -24.2 14.5
M -13.95 0.2
L -14.175 2.45"/>

<path id="Duplicate_Items_Folder_body_suit_copy_3_0_Layer6_0_1_STROKES" stroke="#000000" stroke-width="1.1" stroke-linejoin="round" stroke-linecap="round" fill="none" d="
M 11.05 32.9
Q 9.95 32.3 9.75 31.45 9.5 30.55 10.25 29.75 11.05 29.05 12.4 28.85 13.75 28.75 14.9 29.25 16.05 29.75 16.3 30.7 16.5 31.6 15.75 32.35 14.85 33.1 13.5 33.25 12.15 33.45 11.05 32.9 Z
M 0.85 32.5
Q 0.8 33.5 -0.2 34.2 -1.05 34.8 -2.4 34.75 -3.65 34.7 -4.55 33.95 -5.35 33.25 -5.3 32.25 -5.25 31.3 -4.35 30.7 -3.4 30 -2.15 30.05 -0.85 30.2 0 30.9 0.9 31.55 0.85 32.5 Z
M 6.9 41.85
Q 7.7 41.5 7.9 40.7 8.1 39.95 7.55 39.3 6.9 38.65 5.9 38.45 4.85 38.35 4 38.7 3.3 39.2 3.05 39.95 2.85 40.75 3.35 41.35 3.95 42 5.05 42.2 6.05 42.35 6.9 41.85 Z
M 20.1 45.6
Q 21.4 45.4 22.55 45.9 23.7 46.5 23.9 47.45 24.15 48.3 23.35 49.1 22.5 49.8 21.15 50 19.8 50.1 18.65 49.55 17.65 49.05 17.35 48.15 17.15 47.25 17.9 46.5 18.65 45.7 20.1 45.6 Z
M 19.95 37
Q 20.7 36.3 22.15 36.1 23.45 36.05 24.6 36.5 25.7 37 25.9 37.8 26.05 38.75 25.3 39.5 24.5 40.25 23.15 40.4 21.75 40.5 20.65 40 19.55 39.5 19.35 38.55 19.15 37.7 19.95 37 Z
M 27.75 29.7
Q 27.95 30.5 27.4 31.05 26.8 31.75 25.75 31.8 24.7 31.95 23.85 31.5 23.05 31 22.85 30.25 22.65 29.45 23.2 28.9 23.85 28.3 24.85 28.1 25.9 27.95 26.75 28.45 27.45 29 27.75 29.7 Z
M 37.8 43.5
Q 37.2 44.1 36.15 44.25 35.15 44.4 34.3 43.85 33.45 43.45 33.3 42.65 33.05 41.95 33.6 41.25 34.25 40.65 35.25 40.5 36.3 40.45 37.15 40.85 37.9 41.35 38.1 42.1 38.35 42.9 37.8 43.5 Z
M 38 53.7
Q 37.25 54.45 35.9 54.65 34.45 54.75 33.4 54.2 32.25 53.75 32.1 52.8 31.9 51.95 32.7 51.25 33.45 50.55 34.9 50.35 36.2 50.3 37.35 50.7 38.4 51.25 38.65 52.05 38.85 53.05 38 53.7 Z
M 10.75 55.95
Q 11.85 55.45 12.05 54.6 12.3 53.7 11.55 52.9 10.75 52.15 9.4 51.9 8.05 51.75 6.9 52.2 5.75 52.7 5.5 53.65 5.3 54.55 6.05 55.3 6.95 56.05 8.3 56.25 9.65 56.5 10.75 55.95 Z
M -25.9 30.6
Q -25.95 31.55 -26.85 32.25 -27.75 32.85 -29.1 32.8 -30.35 32.7 -31.25 32 -32.05 31.3 -32 30.3 -31.95 29.4 -31.05 28.7 -30.15 28.1 -28.85 28.1 -27.55 28.2 -26.7 28.95 -25.85 29.65 -25.9 30.6 Z
M -38.1 25.5
Q -37.3 26.05 -37.3 26.8 -37.35 27.55 -38.2 28 -39 28.5 -40.15 28.4 -41.25 28.4 -42.05 27.9 -42.8 27.3 -42.8 26.5 -42.75 25.8 -41.95 25.4 -41.1 24.95 -40 24.95 -38.85 25.05 -38.1 25.5 Z
M -37.7 35.5
Q -37.75 36.45 -38.75 37.1 -39.7 37.7 -41 37.65 -42.3 37.6 -43.25 36.9 -44.15 36.15 -44.1 35.2 -44.05 34.25 -43.1 33.6 -42.1 33 -40.8 33 -39.45 33.1 -38.6 33.8 -37.65 34.55 -37.7 35.5 Z
M -31.05 43.15
Q -29.85 43.7 -28.6 43.5 -27.4 43.2 -26.7 42.5 -26 41.6 -26.35 40.65 -26.6 39.7 -27.85 39.2 -28.9 38.75 -30.2 38.9 -31.4 39.15 -32.2 39.9 -32.85 40.7 -32.5 41.7 -32.25 42.6 -31.05 43.15 Z
M -39.55 44.15
Q -40.65 43.65 -41.95 43.9 -43.15 44.05 -43.8 44.85 -44.4 45.65 -44.1 46.6 -43.75 47.5 -42.75 48.05 -41.55 48.6 -40.4 48.4 -39.1 48.15 -38.5 47.4 -37.85 46.6 -38.15 45.7 -38.5 44.75 -39.55 44.15 Z
M -13.45 30.4
Q -14.55 30.35 -15.35 29.8 -16.05 29.25 -16.05 28.5 -16 27.8 -15.25 27.3 -14.4 26.9 -13.3 26.9 -12.15 26.95 -11.4 27.45 -10.6 28.05 -10.6 28.8 -10.65 29.5 -11.5 29.95 -12.3 30.4 -13.45 30.4 Z
M -11.85 35.7
Q -10.95 36.55 -11 37.5 -11.05 38.45 -12 39 -13 39.7 -14.3 39.65 -15.6 39.55 -16.55 38.9 -17.45 38.15 -17.4 37.15 -17.35 36.25 -16.4 35.55 -15.4 34.9 -14.05 35 -12.75 35.05 -11.85 35.7 Z
M -16 47
Q -17.05 46.45 -18.35 46.7 -19.6 46.9 -20.25 47.7 -20.9 48.4 -20.5 49.45 -20.2 50.35 -19.15 50.9 -18.05 51.35 -16.85 51.25 -15.5 50.95 -14.95 50.2 -14.3 49.45 -14.6 48.5 -14.95 47.5 -16 47 Z
M -49.5 50.9
Q -48.45 50.85 -47.6 51.25 -46.8 51.8 -46.6 52.5 -46.4 53.3 -46.9 53.85 -47.55 54.55 -48.6 54.7 -49.6 54.75 -50.45 54.25 -51.3 53.85 -51.45 53.05 -51.7 52.3 -51.1 51.7 -50.5 51.1 -49.5 50.9 Z
M -30.15 54.75
Q -28.95 54.55 -28.45 54 -27.85 53.35 -28.1 52.6 -28.3 51.9 -29.3 51.55 -30.2 51.15 -31.3 51.35 -32.35 51.55 -32.95 52.15 -33.5 52.75 -33.35 53.45 -33.05 54.15 -32.2 54.55 -31.2 54.85 -30.15 54.75 Z"/>

<path id="Duplicate_Items_Folder_head_copy_3_0_Layer6_0_1_STROKES" stroke="#000000" stroke-width="1" stroke-linejoin="round" stroke-linecap="round" fill="none" d="
M -21 -62.8
L -21.2 -63.55
M -19.95 -54.4
L -20.45 -57.65
M -23.8 -64.65
L -24.3 -63.95
M -31 -65.55
L -30.8 -61.4
Q -30.7 -61.45 -30.6 -61.25
M -24.3 -63.95
L -26.7 -59.9
M -36.85 -62.7
L -34.15 -66.15
M -42.5 -67.1
L -42.6 -63.5
M -31 -65.55
L -31 -67
M -26.7 -59.9
L -28.35 -57.25
M -38.3 -60.65
L -36.85 -62.7
M -20.45 -57.65
L -21 -62.8
M -64.25 -50.4
L -63.85 -49.95
M -61.15 -52.05
L -60.85 -55.65
M -63.85 -49.95
L -63.2 -49.3
M -48.5 -62.55
L -48.15 -63.45 -46.55 -67.35
M -42.6 -63.5
L -42.4 -61.4
M -46.2 -68.25
L -46.55 -67.35
M -42.35 -68.35
L -42.5 -67.1
M -52.2 -64.05
L -52 -62.8 -51.65 -60.1
M -57.35 -60.35
L -56.35 -59.25 -54.7 -57.3
M -60.85 -55.65
L -60.6 -57.75
M -54.25 -56.6
L -54.7 -57.3
M -51.65 -60.1
L -51.45 -59.35"/>

<path id="Duplicate_Items_Folder_arm_suit_copy_3_0_Layer4_0_1_STROKES" stroke="#000000" stroke-width="0.1" stroke-linejoin="round" stroke-linecap="round" fill="none" d="
M 12.2 -7.05
L 13.35 -6.6
M -1.8 -14.85
L 6.45 -9.55 6.65 -9.4
M 6.65 -9.35
L 12.2 -7.05
M 6.65 -9.4
L 6.35 -9.45 6.65 -9.35
M 13.05 -5
L 11.35 -5.65
M -8 -12.9
L -6.1 -15.45 -4.75 -14.55 -1.8 -14.85
M 11.35 -5.65
L 5.9 -7.7
M -5.4 -14.5
L -4.75 -14.55 5.9 -7.7"/>
</defs>

<g transform="matrix( 4.123504638671875, 0, 0, 4.123504638671875, 114.15,530) ">
<g transform="matrix( 0.3326416015625, 0.02349853515625, -0.02349853515625, 0.3326416015625, 32.2,-10.1) ">
<g transform="matrix( 1, 0, 0, 1, 0,0) ">
<use xlink:href="#Duplicate_Items_Folder_leg_suit_copy_3_0_Layer2_0_FILL"/>
</g>

<g transform="matrix( 1, 0, 0, 1, 0,0) ">
<use xlink:href="#Duplicate_Items_Folder_leg_suit_copy_3_0_Layer1_0_FILL"/>
</g>

<g transform="matrix( 1.34735107421875, -0.0647430419921875, 0.0534515380859375, 1.112030029296875, -2.3,17.35) ">
<g transform="matrix( 1, 0, 0, 1, 0,0) ">
<use xlink:href="#Duplicate_Items_Folder_right_shoe_0_Layer0_0_FILL"/>
</g>
</g>
</g>

<g transform="matrix( 0.13299560546875, 0.3077392578125, 0.3260955810546875, -0.14093017578125, 26.5,-29) ">
<g transform="matrix( 1, 0, 0, 1, 0,0) ">
<use xlink:href="#Duplicate_Items_Folder_arm_knives_copy_0_Layer2_0_FILL"/>

<use xlink:href="#Duplicate_Items_Folder_arm_knives_copy_0_Layer2_0_1_STROKES"/>

<use xlink:href="#Duplicate_Items_Folder_arm_knives_copy_0_Layer2_0_2_STROKES"/>

<use xlink:href="#Duplicate_Items_Folder_arm_knives_copy_0_Layer2_0_3_STROKES"/>
</g>

<g transform="matrix( 1, 0, 0, 1, 0,0) ">
<use xlink:href="#Duplicate_Items_Folder_arm_knives_copy_0_Layer1_0_FILL"/>
</g>

<g transform="matrix( 1, 0, 0, 1, 0,0) ">
<use xlink:href="#Duplicate_Items_Folder_arm_knives_copy_0_Layer0_0_FILL"/>
</g>
</g>

<g transform="matrix( 0.358154296875, -0.014923095703125, 0.0105133056640625, 0.357696533203125, 42.05,-31.95) ">
<g transform="matrix( 1, 0, 0, 1, 0,0) ">
<use xlink:href="#Duplicate_Items_Folder_body_suit_copy_3_0_Layer7_0_FILL"/>
</g>

<g transform="matrix( 1, 0, 0, 1, 0,0) ">
<use xlink:href="#Duplicate_Items_Folder_body_suit_copy_3_0_Layer6_0_FILL"/>

<use xlink:href="#Duplicate_Items_Folder_body_suit_copy_3_0_Layer6_0_1_STROKES"/>
</g>

<g transform="matrix( 1, 0, 0, 1, 0,0) ">
<use xlink:href="#Duplicate_Items_Folder_body_suit_copy_3_0_Layer5_0_FILL"/>
</g>

<g transform="matrix( 1, 0, 0, 1, 0,0) ">
<use xlink:href="#Duplicate_Items_Folder_body_suit_copy_3_0_Layer4_0_FILL"/>
</g>

<g transform="matrix( 1, 0, 0, 1, 0,0) ">
<use xlink:href="#Duplicate_Items_Folder_body_suit_copy_3_0_Layer3_0_FILL"/>
</g>

<g transform="matrix( 1, 0, 0, 1, 0,0) ">
<use xlink:href="#Duplicate_Items_Folder_body_suit_copy_3_0_Layer2_0_FILL"/>
</g>

<g transform="matrix( 1, 0, 0, 1, 0,0) ">
<use xlink:href="#Duplicate_Items_Folder_body_suit_copy_3_0_Layer1_0_FILL"/>
</g>

<g transform="matrix( 1, 0, 0, 1, 0,0) ">
<use xlink:href="#Duplicate_Items_Folder_body_suit_copy_3_0_Layer0_0_FILL"/>
</g>
</g>

<g transform="matrix( -0.357177734375, 0.023284912109375, 0.023284912109375, 0.357177734375, 51.45,-9.8) ">
<g transform="matrix( 1, 0, 0, 1, 0,0) ">
<use xlink:href="#Duplicate_Items_Folder_leg_suit_copy_3_0_Layer2_0_FILL"/>
</g>

<g transform="matrix( 1, 0, 0, 1, 0,0) ">
<use xlink:href="#Duplicate_Items_Folder_leg_suit_copy_3_0_Layer1_0_FILL"/>
</g>

<g transform="matrix( 1.34735107421875, -0.0647430419921875, 0.0534515380859375, 1.112030029296875, -2.3,17.35) ">
<g transform="matrix( 1, 0, 0, 1, 0,0) ">
<use xlink:href="#Duplicate_Items_Folder_right_shoe_0_Layer0_0_FILL"/>
</g>
</g>
</g>

<g transform="matrix( 0.2920379638671875, -0.0156402587890625, 0.004180908203125, 0.292205810546875, 43.1,-57.25) ">
<g transform="matrix( 1, 0, 0, 1, 0,0) ">
<use xlink:href="#Duplicate_Items_Folder_head_copy_3_0_Layer7_0_FILL"/>
</g>

<g transform="matrix( 1, 0, 0, 1, 0,0) ">
<use xlink:href="#Duplicate_Items_Folder_head_copy_3_0_Layer6_0_FILL"/>

<use xlink:href="#Duplicate_Items_Folder_head_copy_3_0_Layer6_0_1_STROKES"/>
</g>

<g transform="matrix( 1, 0, 0, 1, 0,0) ">
<use xlink:href="#Duplicate_Items_Folder_head_copy_3_0_Layer5_0_FILL"/>
</g>

<g transform="matrix( 1, 0, 0, 1, 0,0) ">
<use xlink:href="#Duplicate_Items_Folder_head_copy_3_0_Layer4_0_FILL"/>
</g>

<g transform="matrix( 1.2699127197265625, -0.0075531005859375, -0.40032958984375, 1.681884765625, -95.2,-44.85) ">
<g transform="matrix( 1, 0, 0, 1, 0,0) ">
<use xlink:href="#Duplicate_Items_Folder_ear_0_Layer1_0_FILL"/>
</g>

<g transform="matrix( 1, 0, 0, 1, 0,0) ">
<use xlink:href="#Duplicate_Items_Folder_ear_0_Layer0_0_FILL"/>
</g>
</g>

<g transform="matrix( -1.3040618896484375, -0.3345794677734375, -0.0199127197265625, 1.7314605712890625, 78.1,-16.8) ">
<g transform="matrix( 1, 0, 0, 1, 0,0) ">
<use xlink:href="#Duplicate_Items_Folder_ear_0_Layer1_0_FILL"/>
</g>

<g transform="matrix( 1, 0, 0, 1, 0,0) ">
<use xlink:href="#Duplicate_Items_Folder_ear_0_Layer0_0_FILL"/>
</g>
</g>

<g transform="matrix( 1, 0, 0, 1, 0,0) ">
<use xlink:href="#Duplicate_Items_Folder_head_copy_3_0_Layer1_0_FILL"/>
</g>

<g transform="matrix( 1, 0, 0, 1, 0,0) ">
<use xlink:href="#Duplicate_Items_Folder_head_copy_3_0_Layer0_0_FILL"/>
</g>
</g>

<g transform="matrix( 0.4915618896484375, -0.01593017578125, 0.0142822265625, 0.4400634765625, 39.95,-47.8) ">
<g transform="matrix( 0.990966796875, -0.1309051513671875, 0.1309051513671875, 0.990966796875, -0.05,0.15) ">
<use xlink:href="#Duplicate_Items_Folder_mouth_open_0_Layer0_0_FILL"/>
</g>
</g>

<g transform="matrix( -0.27288818359375, 0.0095367431640625, 0.0095367431640625, 0.27288818359375, 55.7,-68.8) ">
<g transform="matrix( 1, 0, 0, 1, 0,0) ">
<use xlink:href="#Duplicate_Items_Folder_eye_missing_7_Layer2_0_FILL"/>
</g>

<g transform="matrix( 1, 0, 0, 1, 0,0) ">
<use xlink:href="#Duplicate_Items_Folder_eye_missing_7_Layer1_0_FILL"/>
</g>

<g transform="matrix( 0.98773193359375, -0.152923583984375, 0.152923583984375, 0.98773193359375, -15.3,-0.45) ">
<g transform="matrix( 1, 0, 0, 1, 0,0) ">
<use filter="url(#Filter_1)" xlink:href="#eye_glass_0_Layer0_0_FILL"/>
</g>
</g>

<g transform="matrix( -2.22515869140625, -0.6069183349609375, 0.5900726318359375, -2.16339111328125, 26.25,3.2) ">
<g transform="matrix( 1, 0, 0, 1, 0,0) ">
<use xlink:href="#Duplicate_Items_Folder_pupil_0_Layer0_0_FILL"/>
</g>
</g>
</g>

<g transform="matrix( 0.2755126953125, -0.0144805908203125, 0.0130157470703125, 0.2472991943359375, 22,-67.3) ">
<g transform="matrix( 1, 0, 0, 1, 0,0) ">
<use xlink:href="#Duplicate_Items_Folder_eye_7_Layer2_0_FILL"/>
</g>

<g transform="matrix( 1, 0, 0, 1, 0,0) ">
<use xlink:href="#Duplicate_Items_Folder_eye_7_Layer1_0_FILL"/>
</g>

<g transform="matrix( 0.99871826171875, 0.0263671875, -0.028656005859375, 1.0849609375, -10.85,-14.7) ">
<g transform="matrix( 1, 0, 0, 1, 0,0) ">
<use filter="url(#Filter_1)" xlink:href="#eye_glass_0_Layer0_0_FILL"/>
</g>
</g>

<g transform="matrix( 0.0786590576171875, -2.55279541015625, 2.3215484619140625, 0.07159423828125, 42,8.3) ">
<g transform="matrix( 1, 0, 0, 1, 0,0) ">
<use xlink:href="#Duplicate_Items_Folder_pupil_0_Layer0_0_FILL"/>
</g>
</g>
</g>

<g transform="matrix( 0.9979248046875, 0.026397705078125, -0.026397705078125, 0.9979248046875, 38.8,-57.65) ">
<g transform="matrix( 1, 0, 0, 1, 0,0) ">
<use xlink:href="#nose_0_Layer1_0_FILL"/>
</g>

<g transform="matrix( 1, 0, 0, 1, 0,0) ">
<use xlink:href="#nose_0_Layer0_0_FILL"/>
</g>
</g>

<g transform="matrix( -0.304412841796875, -0.106719970703125, -0.106719970703125, 0.304412841796875, 56.25,-26.95) ">
<g transform="matrix( 1, 0, 0, 1, 0,0) ">
<use xlink:href="#Duplicate_Items_Folder_arm_suit_copy_3_0_Layer4_0_FILL"/>

<use xlink:href="#Duplicate_Items_Folder_arm_suit_copy_3_0_Layer4_0_1_STROKES"/>
</g>

<g transform="matrix( 1, 0, 0, 1, 0,0) ">
<use xlink:href="#Duplicate_Items_Folder_arm_suit_copy_3_0_Layer3_0_FILL"/>
</g>

<g transform="matrix( 1, 0, 0, 1, 0,0) ">
<use xlink:href="#Duplicate_Items_Folder_arm_suit_copy_3_0_Layer2_0_FILL"/>
</g>

<g transform="matrix( 1, 0, 0, 1, 0,0) ">
<use xlink:href="#Duplicate_Items_Folder_arm_suit_copy_3_0_Layer1_0_FILL"/>
</g>

<g transform="matrix( 1, 0, 0, 1, 0,0) ">
<use xlink:href="#Duplicate_Items_Folder_arm_suit_copy_3_0_Layer0_0_FILL"/>
</g>
</g>
</g>
</svg>
