
<svg xmlns="http://www.w3.org/2000/svg" version="1.1" xmlns:xlink="http://www.w3.org/1999/xlink" preserveAspectRatio="none" x="0px" y="0px" width="560px" height="544px" viewBox="0 0 560 544">
<defs>
<filter id="Filter_1" x="-20%" y="-20%" width="140%" height="140%" color-interpolation-filters="sRGB">
<feFlood flood-color="#000000" flood-opacity="1" in="SourceGraphic" result="result1"/>

<feComposite in2="SourceGraphic" in="result1" operator="in" result="result2"/>

<feGaussianBlur in="result2" stdDeviation="0.6666666666666666,0.6666666666666666" result="result3"/>

<feOffset dx="0.7071067811865476" dy="0.7071067811865475" in="result3" result="result4"/>

<feComposite in2="result4" in="SourceGraphic" operator="over" result="result5"/>
</filter>

<g id="_pie_0_Layer4_0_FILL">
<path fill="#FF0000" stroke="none" d="
M 29.7 5.5
Q 29.7 4.9 28.8 4.5 27.95 4.1 26.65 4.1 25.4 4.1 24.55 4.5 23.65 4.9 23.65 5.5 23.65 6.1 24.55 6.5 25.4 6.9 26.65 6.9 27.95 6.9 28.8 6.5 29.7 6.1 29.7 5.5
M 40.8 3.55
Q 42.8 3 42.8 2.25 42.8 1.5 40.8 0.95 38.8 0.4 35.95 0.4 33.1 0.4 31.1 0.95 29.1 1.5 29.1 2.25 29.1 3 31.1 3.55 33.1 4.1 35.95 4.1 38.8 4.1 40.8 3.55
M -14.65 -2.1
Q -18.35 -3 -23.55 -3 -28.8 -3 -32.5 -2.1 -36.15 -1.15 -36.15 0.15 -36.15 1.45 -32.5 2.35 -28.8 3.3 -23.55 3.3 -22.8 3.3 -22.1 3.3 -21.65 4 -19.8 4.55 -17.3 5.3 -13.7 5.3 -10.15 5.3 -7.65 4.55 -5.15 3.8 -5.15 2.75 -5.15 1.7 -7.65 0.95 -9.15 0.5 -10.95 0.35 -10.95 0.25 -10.95 0.15 -10.95 -1.15 -14.65 -2.1 Z"/>
</g>

<g id="_pie_0_Layer2_0_FILL">
<path fill="#000000" stroke="none" d="
M 33.6 -25.75
Q 34 -27.3 34.3 -28.95
L -31.95 -28.95
Q -31.7 -27.3 -31.4 -25.75 -29.75 -18.7 -26.95 -11.8 -24.6 -6.1 -21.45 -0.5 -17.65 0.9 -13.9 1.9 -9.45 3 -5.1 3.5 -1.95 3.85 1.15 3.9 5.3 3.95 9.35 3.4 13.1 2.9 16.8 1.9 20.3 0.9 23.75 -0.5 25.95 -4.4 27.75 -8.35 31.65 -16.9 33.6 -25.75
M 23.25 -25.75
L 32.05 -25.75
Q 30 -16.95 25.4 -8.5 23.95 -5.9 22.25 -3.3
L 18.55 -2.55
Q 18.15 -2.35 17.75 -2.2 14.15 -0.8 9.9 -0.1 5.85 0.5 2.3 0.65 -2.1 0.5 -4.65 0.15 -6.8 0.05 -7.9 -0.1
L -14.65 -1.9 -19.8 -3.3
Q -22.5 -7.45 -24.5 -11.65 -27.85 -18.6 -29.5 -25.75
L -19.3 -25.75 -10.05 -25.75 1.8 -25.75 13.75 -25.75 23.25 -25.75 Z"/>

<path fill="#510000" stroke="none" d="
M -24.5 -11.65
L -18.9 -11.3
Q -21.55 -19.45 -19.3 -25.75
L -29.5 -25.75
Q -27.85 -18.6 -24.5 -11.65
M 12.25 -9.3
L 20.55 -8.8
Q 23.5 -17.3 23.25 -25.75
L 13.75 -25.75
Q 13.75 -17.45 12.25 -9.3
M 2.1 -9.95
L 1.8 -25.75 -10.05 -25.75
Q -11.6 -18.1 -9.6 -10.7
L 2.1 -9.95 Z"/>

<path fill="#990000" stroke="none" d="
M -19.8 -3.3
L -14.65 -1.9
Q -17.5 -6.9 -18.9 -11.3
L -24.5 -11.65
Q -22.5 -7.45 -19.8 -3.3
M 2.3 0.65
L 2.1 -9.95 -9.6 -10.7
Q -8.15 -5.2 -4.65 0.15 -2.1 0.5 2.3 0.65
M 9.9 -0.1
Q 14.15 -0.8 17.75 -2.2 19.35 -5.5 20.55 -8.8
L 12.25 -9.3
Q 11.35 -4.7 9.9 -0.1 Z"/>

<path fill="#313131" stroke="none" d="
M -14.65 -1.9
L -7.9 -0.1
Q -6.8 0.05 -4.65 0.15 -8.15 -5.2 -9.6 -10.7
L -18.9 -11.3
Q -17.5 -6.9 -14.65 -1.9
M 9.9 -0.1
Q 11.35 -4.7 12.25 -9.3
L 2.1 -9.95 2.3 0.65
Q 5.85 0.5 9.9 -0.1
M 17.75 -2.2
Q 18.15 -2.35 18.55 -2.55
L 22.25 -3.3
Q 23.95 -5.9 25.4 -8.5
L 20.55 -8.8
Q 19.35 -5.5 17.75 -2.2 Z"/>

<path fill="#0E0D0E" stroke="none" d="
M -10.05 -25.75
L -19.3 -25.75
Q -21.55 -19.45 -18.9 -11.3
L -9.6 -10.7
Q -11.6 -18.1 -10.05 -25.75
M 13.75 -25.75
L 1.8 -25.75 2.1 -9.95 12.25 -9.3
Q 13.75 -17.45 13.75 -25.75
M 32.05 -25.75
L 23.25 -25.75
Q 23.5 -17.3 20.55 -8.8
L 25.4 -8.5
Q 30 -16.95 32.05 -25.75 Z"/>
</g>

<g id="_pie_0_Layer1_0_FILL">
<path fill="#FF0000" stroke="none" d="
M 39.15 -30.25
Q 39.3927734375 -33.1724609375 33.45 -38 20.1 -26.25 0.95 -26.1
L -31.7 -35.3
Q -37.3498046875 -33.86875 -36.4 -27.4 -36.4 -26.9 -36.35 -26.45 -36.15 -24.25 -34.95 -22.65 -33.35 -20.8 -31.25 -20.8 -29.55 -20.85 -28.4 -21.95 -26.1 -20.05 -23.3 -20.15 -20.6 -20.5 -18.65 -22.15 -18.45 -21.95 -18.25 -21.95 -16.352734375 -19.5 -13.9 -19.65 -11.441796875 -19.75 -10.4 -20.95 -9.3068359375 -22.15 -8.5 -21.7 -7.6966796875 -21.25 -6.75 -19.9 -5.75078125 -18.5 -3.45 -19 -1.15 -19.5 0.65 -21.5 2.45 -19.4 4.95 -19.35 7.7 -19.1 9.45 -21.65 9.65 -21.95 9.8 -22.1
L 10.05 -22.1
Q 12.05 -19.75 14.8 -19.5 17.75 -19.5 19.55 -21.9 19.85 -21.9 19.95 -22.1 21.9 -20.4 24.6 -20.05 27.5 -20.05 29.65 -21.9 30.899609375 -20.8533203125 33.45 -21.2 36.001171875 -21.54140625 36.75 -22.95 37.54765625 -24.3150390625 38.25 -25.8 38.9529296875 -27.274609375 39.15 -30.25 Z"/>
</g>

<g id="cup_0_Layer1_0_FILL">
<path fill="#FFFFFF" stroke="none" d="
M 10.95 24.9
L 11.4 25.85 11.35 24.55 10.95 24.9 Z"/>

<path fill="#383838" stroke="none" d="
M 11.55 29.9
L 11.45 27.25 11.4 25.85 10.95 24.9 9.75 26 11.55 29.9
M 13 26.65
L 11.45 27.25 11.55 29.9 11.6 32.8 13.2 32.55 13 26.65
M 12.75 20.6
L 11.15 21.3 11.35 24.55 11.4 25.85 11.45 27.25 13 26.65 12.75 20.6
M 12.5 14.85
L 10.85 15.25 10.9 15.9 10.95 16.7 11.15 20.8 11.15 21.3 12.75 20.6 12.5 14.85
M 8.35 19.35
L 7.2 20.65 8.65 23.7 9.75 26 10.95 24.9 8.35 19.35
M 7.2 20.65
L 8.35 19.35 6 14.15 4.7 15.15 7.2 20.65
M 4.1 10.1
L 2.9 11.25 4.7 15.15 6 14.15 4.1 10.1
M 1.1 3.75
Q 0.55 4.35 0.1 5.25
L 2.9 11.25 4.1 10.1 1.1 3.75
M 12.25 10.4
L 10.7 10.95 10.85 15.25 12.5 14.85 12.25 10.4
M 11.95 3.3
Q 11.15 3.65 10.45 4.35
L 10.7 10.95 12.25 10.4 11.95 3.3 Z"/>

<path fill="#6D6D6D" stroke="none" d="
M 14.8 25.9
L 13 26.65 13.2 32.55 15.05 33.35 14.8 25.9
M 14.5 19.75
L 12.75 20.6 13 26.65 14.8 25.9 14.5 19.75
M 14.2 14.3
L 12.5 14.85 12.75 20.6 14.5 19.75 14.2 14.3
M 9.8 17.9
L 9.65 18.1
Q 8.75 18.65 8.35 19.35
L 10.95 24.9 11.35 24.55 11.15 21.3 11.15 20.8 9.8 17.9
M 9.8 17.9
L 7.45 13.05 6 14.15 8.35 19.35
Q 8.75 18.65 9.65 18.1
L 9.8 17.9
M 5.45 8.7
L 4.1 10.1 6 14.15 7.45 13.05 5.45 8.7
M 2.7 2.7
Q 1.8 2.9 1.1 3.75
L 4.1 10.1 5.45 8.7 2.7 2.7
M 14.05 9.6
L 12.25 10.4 12.5 14.85 14.2 14.3 14.05 9.6
M 13.8 3.05
Q 12.9 2.9 11.95 3.3
L 12.25 10.4 14.05 9.6 13.8 3.05 Z"/>

<path fill="#1C1C1C" stroke="none" d="
M 16.6 25.9
L 16.55 25.15 14.8 25.9 15.05 33.35 16.85 31.95 16.9 31.95 16.9 31.75 16.6 25.9
M 11.15 20.8
L 10.95 16.7 9.8 17.9 11.15 20.8
M 16.35 18.95
L 14.5 19.75 14.8 25.9 16.55 25.15 16.35 18.95
M 16.25 16.35
L 16.15 13.8 14.2 14.3 14.5 19.75 16.35 18.95 16.25 16.35
M 7.45 13.05
L 9.8 17.9 10.95 16.7 10.9 15.9 9 11.8 7.45 13.05
M 6.9 7.3
L 5.45 8.7 7.45 13.05 9 11.8 6.9 7.3
M 5.05 3.2
Q 3.7 2.45 2.7 2.7
L 5.45 8.7 6.9 7.3 5.05 3.2
M 13.8 3.05
L 14.05 9.6 15.95 8.8 15.75 4.3
Q 14.85 3.25 13.8 3.05
M 16.1 11.95
L 15.95 8.8 14.05 9.6 14.2 14.3 16.15 13.8 16.1 11.95 Z"/>

<path fill="#00FFFF" stroke="none" d="
M 30.3 24.6
Q 33.15 22.4 30.85 20.2 25.35 20.15 21.35 18.85 18.4 17.95 16.25 16.35
L 16.35 18.95 16.55 25.15 16.6 25.9
Q 20.65 24.05 30.3 24.6
M 42.75 35.35
Q 44.5 31.45 41.85 28.5 39.2 25.7 37.95 24.6 38.5 28.3 35.25 32 34.85 32.15 34.55 32.3 26.7 35.35 16.9 31.75
L 16.9 31.95 16.85 31.95 15.05 33.35 13.2 32.55 11.6 32.8 11.55 29.9 9.75 26 8.65 23.7
Q 8.95 25.45 7.65 25.9 5.95 26.4 3.9 27.85 1.85 29.3 3 35.05 3.1 36.1 4.45 37.85 5.4 39.05 6.95 40.6 10.7 44.25 21.05 44.55 24.05 44.65 26.6 44.45 32.75 44 36.2 42 39.2 40.2 41 38.05 42.1 36.75 42.75 35.35
M 15.3 34.85
Q 16 34.7 16.75 36.45 17.45 38.1 19.55 37.6 21.6 37.05 21.65 38.55 21.65 39.95 20.2 41.05 18.8 42.15 16.75 42.15
L 16.7 42.15
Q 15.05 41.75 13.4 41.2 13.3 41.15 13.2 41.05 12.5 40.45 12.15 39.85 11.5 40.05 10.75 40.05 10.6 40.05 10.5 40.05 8.75 39.95 7.5 38.7 7.4 38.6 7.3 38.45 6.2 37.15 6.2 35.4 6.2 33.45 7.5 32.1 8.85 30.7 9.3 32.95 9.7 35.05 11.45 35.65 13.1 36.25 15.3 34.85 Z"/>

<path fill="#BFFFFF" stroke="none" d="
M 23.05 0.4
L 23.95 7.35
Q 24.8 9.95 20.1 12.6 17.6 16.6 21.35 18.85 25.35 20.15 30.85 20.2 33.15 22.4 30.3 24.6 20.65 24.05 16.6 25.9
L 16.9 31.75
Q 26.7 35.35 34.55 32.3 34.85 32.15 35.25 32 38.5 28.3 37.95 24.6 37.9 24.6 37.85 24.55
L 37.45 20.15
Q 36.45 15.55 33.45 14.9 30.45 14.25 27.7 7.2 26.4 3.7 23.05 0.4
M 33.5 21.35
Q 34.65 20 35.35 20.9 35.95 21.85 35.95 23.95 35.95 26.05 35.8 27.05 35.65 28.05 34.4 28.25 33.2 28.5 32.2 27.8 31.15 27.05 33.2 26.5 35.2 25.85 33.7 24.2 32.35 22.65 33.5 21.35
M 16.75 36.45
Q 16 34.7 15.3 34.85 13.1 36.25 11.45 35.65 9.7 35.05 9.3 32.95 8.85 30.7 7.5 32.1 6.2 33.45 6.2 35.4 6.2 37.15 7.3 38.45 7.4 38.6 7.5 38.7 8.75 39.95 10.5 40.05 10.6 40.05 10.75 40.05 11.5 40.05 12.15 39.85 12.5 40.45 13.2 41.05 13.3 41.15 13.4 41.2 15.05 41.75 16.7 42.15
L 16.75 42.15
Q 18.8 42.15 20.2 41.05 21.65 39.95 21.65 38.55 21.6 37.05 19.55 37.6 17.45 38.1 16.75 36.45 Z"/>

<path fill="#00CBCB" stroke="none" d="
M 35.35 20.9
Q 34.65 20 33.5 21.35 32.35 22.65 33.7 24.2 35.2 25.85 33.2 26.5 31.15 27.05 32.2 27.8 33.2 28.5 34.4 28.25 35.65 28.05 35.8 27.05 35.95 26.05 35.95 23.95 35.95 21.85 35.35 20.9 Z"/>

<path fill="#FFF1DE" stroke="none" d="
M 22.95 0.4
Q 23.65 5.75 21.3 7.75 19 9.65 16.1 11.95
L 16.15 13.8 16.25 16.35
Q 18.4 17.95 21.35 18.85 17.6 16.6 20.1 12.6 24.8 9.95 23.95 7.35
L 23.05 0.4 22.95 0.4 Z"/>
</g>

<g id="cup_0_Layer1_1_FILL">
<path fill="#FFFFFF" stroke="none" d="
M 24.6 36.45
Q 24.7 36.5 24.8 36.45 24.9 36.4 24.9 36.3 24.95 36.2 24.9 36.1 24.85 36 24.75 35.95 24.65 35.95 24.55 36 24.45 36.05 24.45 36.1 24.35 36.25 24.4 36.35 24.45 36.45 24.6 36.45
M 20.65 24.8
Q 20.55 24.85 20.55 25 20.5 25.05 20.55 25.15 20.6 25.25 20.7 25.3 20.8 25.3 20.9 25.25 21 25.2 21.05 25.1 21.05 25.05 21 24.95 20.95 24.85 20.9 24.8 20.75 24.75 20.65 24.8
M 24.85 27.55
Q 24.9 27.65 25 27.7 25.1 27.7 25.2 27.65 25.3 27.6 25.35 27.5 25.35 27.45 25.3 27.35 25.25 27.25 25.2 27.2 25.05 27.15 24.95 27.2 24.85 27.25 24.85 27.4 24.8 27.45 24.85 27.55
M 23.35 26.25
Q 23.4 26.1 23.35 26.05 23.3 25.95 23.2 25.9 23.1 25.9 23 25.9 22.9 25.95 22.9 26.05 22.8 26.2 22.85 26.3 22.9 26.35 23.05 26.4 23.15 26.4 23.25 26.35 23.35 26.35 23.35 26.25
M 19.9 34.05
Q 19.8 34.1 19.8 34.2 19.8 34.25 19.85 34.35 19.9 34.45 20 34.55 20.05 34.55 20.15 34.5 20.25 34.45 20.35 34.35 20.35 34.25 20.3 34.15 20.25 34.05 20.15 34 20 34 19.9 34.05
M 18.2 33.95
Q 18.35 33.95 18.4 33.9 18.5 33.85 18.55 33.75 18.55 33.65 18.5 33.55 18.45 33.45 18.4 33.4 18.25 33.4 18.15 33.45 18.1 33.5 18.05 33.6 18 33.65 18.05 33.75 18.1 33.85 18.2 33.95
M 13.35 32.35
Q 13.3 32.4 13.35 32.5 13.4 32.6 13.55 32.65 13.6 32.65 13.7 32.6 13.8 32.55 13.85 32.45 13.85 32.4 13.8 32.3 13.75 32.2 13.65 32.15 13.55 32.1 13.45 32.15 13.35 32.2 13.35 32.35
M 15.15 28.95
Q 15.15 28.85 15.05 28.8 14.95 28.8 14.85 28.85 14.75 28.9 14.75 28.95 14.7 29.1 14.7 29.2 14.75 29.25 14.9 29.3 15 29.35 15.1 29.3 15.2 29.25 15.2 29.15 15.2 29 15.15 28.95
M 18.95 23.25
Q 19 23.25 19.1 23.2 19.2 23.15 19.25 23.05 19.25 22.95 19.2 22.9 19.15 22.8 19.05 22.7 18.95 22.7 18.85 22.75 18.75 22.8 18.75 22.9 18.7 23 18.75 23.1 18.8 23.15 18.95 23.25 Z"/>
</g>

<g id="cup_0_Layer1_2_FILL">
<path fill="#FFFFFF" stroke="none" d="
M 20.8 34.15
Q 20.65 34.1 20.6 34.15 20.5 34.2 20.45 34.3 20.4 34.45 20.45 34.5 20.5 34.6 20.6 34.65 20.75 34.65 20.85 34.6 20.9 34.55 20.95 34.5 20.95 34.35 20.9 34.25 20.85 34.2 20.8 34.15
M 23.1 31.85
Q 22.95 31.8 22.85 31.85 22.8 31.9 22.75 32 22.75 32.1 22.75 32.2 22.8 32.3 22.9 32.3 23.05 32.4 23.1 32.35 23.2 32.3 23.25 32.15 23.25 32.05 23.2 31.95 23.2 31.85 23.1 31.85
M 23.75 27.45
Q 23.65 27.55 23.7 27.65
L 23.75 27.7
Q 23.65 27.65 23.55 27.7 23.45 27.75 23.45 27.85 23.35 27.95 23.4 28.05 23.45 28.15 23.6 28.15 23.7 28.25 23.8 28.2 23.9 28.15 23.9 28 23.9 27.9 23.85 27.8
L 23.85 27.75
Q 23.9 27.75 23.9 27.8 24 27.8 24.1 27.8 24.2 27.75 24.2 27.65 24.25 27.5 24.2 27.4 24.15 27.3 24.05 27.3 23.95 27.3 23.85 27.35 23.75 27.35 23.75 27.45
M 17.15 34.05
Q 17.05 34.1 17 34.2 16.95 34.35 17 34.45 17.05 34.5 17.2 34.55 17.25 34.55 17.35 34.5 17.45 34.45 17.5 34.35 17.55 34.25 17.5 34.2 17.45 34.1 17.3 34 17.25 34 17.15 34.05
M 16.1 34
Q 16 33.95 15.9 34 15.8 34.05 15.8 34.2 15.75 34.3 15.8 34.4 15.8 34.5 15.95 34.5 16.05 34.55 16.15 34.5 16.25 34.45 16.25 34.3 16.25 34.25 16.25 34.15 16.2 34.05 16.1 34
M 17.05 32.4
Q 17 32.3 16.9 32.3 16.75 32.2 16.65 32.25 16.55 32.3 16.55 32.45 16.55 32.55 16.6 32.65 16.65 32.75 16.7 32.75 16.8 32.8 16.9 32.75 17 32.7 17.05 32.6 17.1 32.5 17.05 32.4
M 13.7 35.95
Q 13.7 36.1 13.75 36.2 13.75 36.25 13.85 36.3 13.95 36.35 14.05 36.3 14.15 36.25 14.15 36.15 14.2 36 14.2 35.95 14.15 35.85 14 35.8 13.9 35.8 13.8 35.85 13.7 35.9 13.7 35.95
M 11.6 26.85
Q 11.65 26.95 11.75 26.95 11.85 26.95 11.9 26.9 12 26.85 12.1 26.8 12.1 26.7 12.05 26.6 12 26.5 11.9 26.5 11.75 26.4 11.65 26.45 11.6 26.5 11.55 26.65 11.55 26.75 11.6 26.85 Z"/>
</g>

<g id="cup_0_Layer1_3_FILL">
<path fill="#FFFFFF" stroke="none" d="
M 24.2 32.35
Q 24.25 32.2 24.2 32.15 24.15 32.05 24 32 23.9 32 23.8 32.05 23.7 32.1 23.7 32.15 23.65 32.3 23.7 32.4 23.75 32.45 23.9 32.5 23.95 32.55 24.05 32.5 24.15 32.45 24.2 32.35
M 21.2 27.15
Q 21.3 27.15 21.4 27.15 21.5 27.1 21.55 27 21.6 26.85 21.55 26.75 21.5 26.65 21.4 26.65 21.25 26.65 21.15 26.7 21.05 26.7 21.05 26.8 21.05 26.9 21.1 27 21.15 27.1 21.2 27.15
M 30.25 30.85
Q 30.2 30.75 30.1 30.75 30 30.75 29.9 30.8 29.8 30.85 29.8 30.9 29.7 31 29.75 31.1 29.8 31.2 29.95 31.25 30.05 31.3 30.15 31.25 30.25 31.2 30.25 31.1 30.3 30.95 30.25 30.85
M 27.75 30.25
Q 27.65 30.25 27.55 30.3 27.45 30.35 27.45 30.45 27.35 30.55 27.4 30.6 27.45 30.7 27.6 30.8 27.7 30.8 27.8 30.75 27.9 30.7 27.9 30.6 27.95 30.45 27.9 30.35 27.85 30.3 27.75 30.25
M 28.1 25.6
Q 28.2 25.6 28.25 25.5 28.25 25.35 28.2 25.25 28.15 25.15 28.05 25.15 27.95 25.15 27.85 25.15 27.75 25.2 27.75 25.3 27.7 25.4 27.75 25.5 27.8 25.6 27.95 25.65 28 25.65 28.1 25.6
M 31.3 21.75
Q 31.4 21.7 31.4 21.6 31.45 21.5 31.4 21.4 31.35 21.35 31.25 21.25 31.15 21.25 31.05 21.3 30.95 21.35 30.95 21.45 30.9 21.55 30.95 21.6 31 21.7 31.1 21.8 31.2 21.8 31.3 21.75
M 26.4 24.15
Q 26.25 24.15 26.2 24.2 26.1 24.25 26.05 24.35 26.05 24.45 26.1 24.55 26.15 24.6 26.25 24.7 26.35 24.7 26.45 24.65 26.5 24.6 26.6 24.5 26.6 24.4 26.55 24.35 26.5 24.25 26.4 24.15
M 26.1 22.4
Q 26 22.45 25.95 22.6 25.9 22.7 25.95 22.8 26 22.9 26.15 22.9 26.2 22.9 26.3 22.85 26.4 22.85 26.45 22.75 26.5 22.65 26.45 22.55 26.4 22.45 26.25 22.45 26.2 22.4 26.1 22.4
M 28.1 21.45
Q 28.1 21.35 28.05 21.25 28.05 21.15 27.95 21.15 27.85 21.05 27.75 21.1 27.65 21.15 27.65 21.3 27.6 21.4 27.6 21.5 27.65 21.6 27.8 21.6 27.9 21.65 28 21.6 28.1 21.55 28.1 21.45 Z"/>
</g>

<g id="cup_0_Layer0_0_FILL">
<path fill="#00FFFF" stroke="none" d="
M 29.15 3.75
Q 25.65 4.7 23.2 8.95 21.25 12.35 23.6 15.8 24.65 17.6 26 18.95 26.1 18.85 26.15 21.6 26.2 23.25 26.15 23.65 26.8 23.9 27.8 24.35
L 28.5 20.25 27.8 24.35
Q 29 24.75 31 25
L 31 21 31 25
Q 31.5 25 32.15 25.05 32.85 23.85 33.15 22.05 33.55 20 34.45 20.05 35.15 20.25 36.05 18.85 37.2 17.35 37.7 15.3 39.1 10.25 36.25 6.3 33.05 2.4 29.15 3.75
M 33.75 9.8
Q 34.55 10.05 35.45 10.95 36.5 11.7 36.3 13.45 36.1 15.25 35.2 16.25 34.35 17.35 33.4 16.6 32.35 16 31.85 15 31.25 13.95 31.6 12.5 31.8 10.75 32.3 10.05 33 9.2 33.75 9.8
M 26.9 9.8
Q 27.65 9.4 28.85 8.95 29.9 8.65 30.45 9.8 30.95 10.8 30.8 12.55 30.6 13.95 29.7 15.1 28.65 15.9 27.6 15.7 26.85 15.5 26.35 14.35 25.85 13.25 26 11.65 26.3 10.1 26.9 9.8 Z"/>

<path fill="#000000" stroke="none" d="
M 28.85 8.95
Q 27.65 9.4 26.9 9.8 26.3 10.1 26 11.65 25.85 13.25 26.35 14.35 26.85 15.5 27.6 15.7 28.65 15.9 29.7 15.1 30.6 13.95 30.8 12.55 30.95 10.8 30.45 9.8 29.9 8.65 28.85 8.95
M 35.45 10.95
Q 34.55 10.05 33.75 9.8 33 9.2 32.3 10.05 31.8 10.75 31.6 12.5 31.25 13.95 31.85 15 32.35 16 33.4 16.6 34.35 17.35 35.2 16.25 36.1 15.25 36.3 13.45 36.5 11.7 35.45 10.95 Z"/>
</g>

<path id="_pie_0_Layer1_0_1_STROKES" stroke="#000000" stroke-width="1.5" stroke-linejoin="round" stroke-linecap="round" fill="none" d="
M 19.55 -21.9
Q 17.75 -19.5 14.8 -19.5 12.05 -19.75 10.05 -22.1
L 9.8 -22.1
Q 9.65 -21.95 9.45 -21.65 7.7 -19.1 4.95 -19.35 2.45 -19.4 0.65 -21.5 -1.15 -19.5 -3.45 -19 -5.75078125 -18.5 -6.725 -19.875 -7.6966796875 -21.25 -8.5 -21.7 -9.3068359375 -22.15 -10.375 -20.95 -11.441796875 -19.75 -13.9 -19.625 -16.352734375 -19.5 -18.25 -21.95 -18.45 -21.95 -18.65 -22.15 -20.6 -20.5 -23.3 -20.15 -26.1 -20.05 -28.4 -21.95 -29.55 -20.85 -31.25 -20.8 -33.35 -20.8 -34.95 -22.65 -36.15 -24.25 -36.35 -26.45 -36.4 -26.9 -36.4 -27.4 -37.3498046875 -33.86875 -31.7 -35.3
L 0.95 -26.1
Q 20.1 -26.25 33.45 -38 39.3927734375 -33.1724609375 39.175 -30.225 38.9529296875 -27.274609375 38.25 -25.8 37.54765625 -24.3150390625 36.775 -22.925 36.001171875 -21.54140625 33.45 -21.2 30.899609375 -20.8533203125 29.65 -21.9 27.5 -20.05 24.6 -20.05 21.9 -20.4 19.95 -22.1 19.85 -21.9 19.55 -21.9 Z"/>

<path id="cup_0_Layer1_0_1_STROKES" stroke="#340000" stroke-width="1.25" stroke-linejoin="round" stroke-linecap="round" fill="none" d="
M 16.1 11.95
Q 19 9.65 21.3 7.75 23.65 5.75 22.95 0.4"/>

<path id="cup_0_Layer1_0_2_STROKES" stroke="#000000" stroke-width="1.25" stroke-linejoin="round" stroke-linecap="round" fill="none" d="
M 8.65 23.7
Q 8.95 25.45 7.65 25.9 5.95 26.4 3.9 27.85 1.85 29.3 3 35.05 3.1 36.1 4.45 37.85 5.4 39.05 6.95 40.6 10.7 44.25 21.05 44.55 24.05 44.65 26.6 44.45 32.75 44 36.2 42 39.2 40.2 41 38.05 42.1 36.75 42.75 35.35 44.5 31.45 41.85 28.5 39.2 25.7 37.95 24.6 38.5 28.3 35.25 32 34.85 32.15 34.55 32.3
M 16.9 31.75
L 16.9 31.95 16.85 31.95 15.05 33.35 13.2 32.55 11.6 32.8 11.55 29.9 9.75 26 8.65 23.7 7.2 20.65 4.7 15.15 2.9 11.25 0.1 5.25
Q 0.55 4.35 1.1 3.75 1.8 2.9 2.7 2.7 3.7 2.45 5.05 3.2
L 6.9 7.3 9 11.8 10.9 15.9 10.85 15.25 10.7 10.95 10.45 4.35
Q 11.15 3.65 11.95 3.3 12.9 2.9 13.8 3.05 14.85 3.25 15.75 4.3
L 15.95 8.8 16.1 11.95
M 22.95 0.4
Q 22.9 0.35 22.9 0.25 22.95 0.3 23.05 0.4 26.4 3.7 27.7 7.2 30.45 14.25 33.45 14.9 36.45 15.55 37.45 20.15
L 37.85 24.55
Q 37.9 24.6 37.95 24.6
M 16.6 25.9
L 16.9 31.75
M 14.05 9.6
L 12.25 10.4 10.7 10.95
M 14.05 9.6
L 15.95 8.8
M 2.9 11.25
L 4.1 10.1
M 5.45 8.7
L 6.9 7.3
M 9 11.8
L 7.45 13.05
M 4.1 10.1
L 5.45 8.7
M 9.8 17.9
L 10.95 16.7 10.9 15.9
M 8.35 19.35
Q 8.75 18.65 9.65 18.1
L 9.8 17.9
M 10.95 16.7
L 11.15 20.8
M 7.45 13.05
L 6 14.15
M 10.95 24.9
L 11.35 24.55 11.15 21.3 11.15 20.8
M 7.2 20.65
L 8.35 19.35
M 6 14.15
L 4.7 15.15
M 16.1 11.95
L 16.15 13.8 16.25 16.35
M 10.85 15.25
L 12.5 14.85 14.2 14.3
M 12.75 20.6
L 14.5 19.75
M 14.2 14.3
L 16.15 13.8
M 11.15 21.3
L 12.75 20.6
M 14.5 19.75
L 16.35 18.95 16.25 16.35
M 16.35 18.95
L 16.55 25.15 16.6 25.9
M 13 26.65
L 14.8 25.9
M 11.4 25.85
L 11.45 27.25 13 26.65
M 11.45 27.25
L 11.55 29.9
M 10.95 24.9
L 9.75 26
M 14.8 25.9
L 16.55 25.15
M 11.35 24.55
L 11.4 25.85"/>

<path id="cup_0_Layer0_0_1_STROKES" stroke="#000000" stroke-width="0.75" stroke-linejoin="round" stroke-linecap="round" fill="none" d="
M 27.8 24.35
Q 26.8 23.9 26.15 23.65 26.2 23.25 26.15 21.6 26.1 18.85 26 18.95 24.65 17.6 23.6 15.8 21.25 12.35 23.2 8.95 25.65 4.7 29.15 3.75 33.05 2.4 36.25 6.3 39.1 10.25 37.7 15.3 37.2 17.35 36.05 18.85 35.15 20.25 34.45 20.05 33.55 20 33.15 22.05 32.85 23.85 32.15 25.05 31.5 25 31 25 29 24.75 27.8 24.35
L 28.5 20.25
M 31 21
L 31 25"/>
</defs>

<g transform="matrix( 7.22625732421875, 0, 0, 7.22625732421875, 263.1,630.8) ">
<g transform="matrix( 0.7765350341796875, 0, 0, 0.7765350341796875, 0.05,-20.65) ">
<g transform="matrix( 1, 0, 0, 1, 0,0) ">
<use xlink:href="#_pie_0_Layer4_0_FILL"/>
</g>

<g transform="matrix( 1, 0, 0, 1, 0,0) ">
<use xlink:href="#_pie_0_Layer2_0_FILL"/>
</g>

<g transform="matrix( 1, 0, 0, 1, 0,0) ">
<use xlink:href="#_pie_0_Layer1_0_FILL"/>

<use xlink:href="#_pie_0_Layer1_0_1_STROKES"/>
</g>

<g filter="url(#Filter_1)" transform="matrix( 0.1782073974609375, 0, 0, 0.1782073974609375, -46.9,-85.8) ">
<g transform="matrix( -20.074127197265625, 0.8154754638671875, 0.6797637939453125, 16.73394775390625, 285.85,379.4) ">
<g transform="matrix( 0.4647369384765625, 0, 0, 0.3829803466796875, -9.95,-19.4) ">
<g transform="matrix( 1, 0, 0, 1, 0,0) ">
<use xlink:href="#cup_0_Layer1_0_FILL"/>

<use xlink:href="#cup_0_Layer1_0_1_STROKES"/>

<use xlink:href="#cup_0_Layer1_0_2_STROKES"/>
</g>

<g transform="matrix( 1, 0, 0, 1, 0,0) ">
<use xlink:href="#cup_0_Layer1_1_FILL"/>
</g>

<g transform="matrix( 1, 0, 0, 1, 0,0) ">
<use xlink:href="#cup_0_Layer1_2_FILL"/>
</g>

<g transform="matrix( 1, 0, 0, 1, 0,0) ">
<use xlink:href="#cup_0_Layer1_3_FILL"/>
</g>

<g transform="matrix( 1, 0, 0, 1, 0,0) ">
<use xlink:href="#cup_0_Layer0_0_FILL"/>

<use xlink:href="#cup_0_Layer0_0_1_STROKES"/>
</g>
</g>
</g>
</g>
</g>
</g>
</svg>
