
<svg xmlns="http://www.w3.org/2000/svg" version="1.1" xmlns:xlink="http://www.w3.org/1999/xlink" preserveAspectRatio="none" x="0px" y="0px" width="560px" height="544px" viewBox="0 0 560 544">
<defs>
<g id="Duplicate_Items_Folder_head_copy_22_0_Layer4_0_FILL">
<path fill="#1AD1FF" stroke="none" d="
M 21.25 37.4
Q 19.211328125 43.60625 13.1 48.3 19.5544921875 44.933203125 21.25 37.4
M 27.05 40.25
Q 29.3294921875 35.0984375 25.65 27.8 29.028515625 35.54375 27.05 40.25
M 12.25 -16.15
L 7.45 -12.95
Q 1.31484375 -5.2654296875 -14.8 -11.3
L -26.55 -1.7
Q -26.9041015625 0.3123046875 -27.2 2.5 -27.45 6.45 -29.5 12.65 -31.6 18.75 -35.55 19.5 -38.95 20.2 -42.8 17.75 -38.85 26.6 -29.35 19.65 -32.94609375 31.5513671875 -42.5 30.15 -43.4013671875 32.2052734375 -35.6 33.9 -26.0302734375 32.566796875 -24.8 18.4 -22.3919921875 8.440625 -14.95 6.7
L 9.8 8.25
Q 15.8275390625 3.8880859375 20.9 22.15 23.016015625 29.135546875 21.9 34.9 26.075 39.672265625 22.9 44.85 25.9294921875 43.091015625 27.05 40.25 29.028515625 35.54375 25.65 27.8 24.9072265625 26.0435546875 23.85 24.1 24.6333984375 24.33046875 25.3 24.65 27.9537109375 22.0705078125 24.4 16.3 17.6888671875 7.4212890625 22.65 1.4 15.4521484375 -1.3271484375 12.25 -16.15 Z"/>

<path fill="#0099FF" stroke="none" d="
M -14.95 6.7
Q -22.3919921875 8.440625 -24.8 18.4 -26.0302734375 32.566796875 -35.6 33.9 -43.4013671875 32.2052734375 -42.5 30.15 -44.0814453125 29.95390625 -45.85 29.35 -42.3 40.2 -27.15 33.3 -28.55 41.6 -39.3 41 -33.15 46.65 -22.35 44.7 -21.75 46.1 -24.45 47.25 1.7248046875 54.251953125 13.1 48.3 19.211328125 43.60625 21.25 37.4 21.548046875 36.11484375 21.7 34.7 21.8025390625 34.8119140625 21.9 34.9 23.016015625 29.135546875 20.9 22.15 15.8275390625 3.8880859375 9.8 8.25
L -14.95 6.7 Z"/>

<path fill="#02F4F4" stroke="none" d="
M 20.1 -21.3
Q 19.3330078125 -22.1861328125 18.45 -23.1 6.4 -27.9 -7.75 -26.6 -22.088671875 -26.692578125 -26.55 -1.7
L -14.8 -11.3
Q 1.31484375 -5.2654296875 7.45 -12.95
L 12.25 -16.15
Q 15.4521484375 -1.3271484375 22.65 1.4 17.6888671875 7.4212890625 24.4 16.3 27.9537109375 22.0705078125 25.3 24.65 28.4134765625 26.0044921875 29.8 28.9 31.6 35.3 29.7 36.35 37.55 32.45 32.3 26.05 23.7 17.5 26.6 3.75 31.0248046875 -8.8259765625 20.1 -21.3 Z"/>
</g>

<g id="Duplicate_Items_Folder_head_copy_22_0_Layer3_0_FILL">
<path fill="#FFFFFF" fill-opacity="0.8313725490196079" stroke="none" d="
M 0.85 -20.95
Q 2.6 -22.65 0.25 -23.2 -2.15 -23.8 -6.1 -23.25 -10.1 -22.8 -12.15 -21.9 -14.15 -21 -14.25 -19.85 -14.25 -19.4 -15.8 -18.65 -16.05 -18.85 -17.7 -18.05 -19.4 -17.2 -19.5 -16.1 -19.55 -14.95 -17.9 -14.3 -16.2 -13.6 -14.35 -13.9 -12.6 -14.2 -12.55 -15.75 -12.55 -17.25 -10.25 -17.1 -7.95 -17 -8.1 -17.35 -7.9 -17.3 -7.65 -17.35 -4.8 -17.45 -2.85 -18.35 -0.85 -19.3 0.85 -20.95 Z"/>
</g>

<g id="Duplicate_Items_Folder_head_copy_22_0_Layer2_0_FILL">
<path fill="#FFFFFF" stroke="none" d="
M -18.3 2.7
Q -17.9298828125 6.1150390625 -16.35 9.35 -13.6087890625 15.03125 -7.55 16.8 -1.440625 18.637109375 2.85 18.15 7.1392578125 17.6990234375 11.8 14.05 15.356640625 11.2720703125 16.75 6.85 12.202734375 5.8732421875 10.2 0.8 3.9197265625 5.269140625 -3.8 3.55
L -11.15 -1.05
Q -17.5072265625 -2.6431640625 -18.3 2.7
M -6.25 9.55
Q -6.35 10.5 -7.55 11.05 -8.75 11.65 -10.4 11.5 -12.05 11.35 -13.1 10.5 -14.15 9.7 -14.05 8.7 -13.95 7.75 -12.75 7.15 -11.55 6.6 -9.9 6.75 -8.25 6.9 -7.2 7.7 -6.15 8.55 -6.25 9.55
M 10.15 9.3
Q 11.5 10.2 11.4 11.35 11.3 12.45 9.8 13.05 8.35 13.65 6.35 13.45 4.35 13.25 3 12.35 1.7 11.45 1.8 10.3 1.9 9.2 3.35 8.6 4.85 8 6.85 8.2 8.85 8.4 10.15 9.3 Z"/>

<path fill="#FFCCCC" stroke="none" d="
M 11.4 11.35
Q 11.5 10.2 10.15 9.3 8.85 8.4 6.85 8.2 4.85 8 3.35 8.6 1.9 9.2 1.8 10.3 1.7 11.45 3 12.35 4.35 13.25 6.35 13.45 8.35 13.65 9.8 13.05 11.3 12.45 11.4 11.35
M -7.55 11.05
Q -6.35 10.5 -6.25 9.55 -6.15 8.55 -7.2 7.7 -8.25 6.9 -9.9 6.75 -11.55 6.6 -12.75 7.15 -13.95 7.75 -14.05 8.7 -14.15 9.7 -13.1 10.5 -12.05 11.35 -10.4 11.5 -8.75 11.65 -7.55 11.05 Z"/>

<path fill="#FFE6E6" stroke="none" d="
M -5.6 -2.4
Q -14.4 -5.4 -18.1 -2.4 -18.523828125 0.1947265625 -18.3 2.7 -17.5072265625 -2.6431640625 -11.15 -1.05
L -3.8 3.55
Q 3.9197265625 5.269140625 10.2 0.8 12.202734375 5.8732421875 16.75 6.85 17.17734375 5.5177734375 17.4 4 9.5 -1.05 13.7 -12.6 8.25 -2.3 -1.35 -2.05 -3.4 -2.05 -5.6 -2.4 Z"/>
</g>

<g id="Duplicate_Items_Folder_head_copy_22_0_Layer1_0_FILL">
<path fill="#000000" stroke="none" d="
M -6.25 4.65
Q -7.45 3.45 -8.45 3.5 -9.7 3.55 -11.3 3.85 -12.9 4.15 -13.35 4.05 -14.25 3.75 -14.75 4.3 -14.15 9.75 -7.9 9.55 -6.65 8.6 -5.9 7.3 -5.1 5.8 -6.25 4.65
M -9.25 5.1
Q -8.9 4.75 -8.4 4.8 -8 4.8 -7.65 5.25 -7.35 5.65 -7.45 6.2 -7.45 6.7 -7.9 7 -8.2 7.4 -8.65 7.35 -9.1 7.3 -9.4 6.85 -9.65 6.5 -9.6 5.95 -9.55 5.45 -9.25 5.1
M 12.2 6.6
Q 11.85 6 10.9 6.1 10.5 6.25 8.9 5.75 7.35 5.35 6.15 5.15 5.1 4.9 3.8 6 2.55 7.05 3.15 8.6 3.8 10.05 4.9 11 11.15 12 12.2 6.6
M 4.35 8.7
Q 4.15 8.25 4.2 7.75 4.25 7.2 4.6 6.9 4.9 6.55 5.25 6.6 5.6 6.65 5.85 7.05 6.1 7.5 6.1 8 6 8.55 5.7 8.85 5.35 9.2 5 9.15 4.65 9.1 4.35 8.7 Z"/>

<path fill="#FF0000" stroke="none" d="
M -8.4 4.8
Q -8.9 4.75 -9.25 5.1 -9.55 5.45 -9.6 5.95 -9.65 6.5 -9.4 6.85 -9.1 7.3 -8.65 7.35 -8.2 7.4 -7.9 7 -7.45 6.7 -7.45 6.2 -7.35 5.65 -7.65 5.25 -8 4.8 -8.4 4.8
M 4.2 7.75
Q 4.15 8.25 4.35 8.7 4.65 9.1 5 9.15 5.35 9.2 5.7 8.85 6 8.55 6.1 8 6.1 7.5 5.85 7.05 5.6 6.65 5.25 6.6 4.9 6.55 4.6 6.9 4.25 7.2 4.2 7.75 Z"/>
</g>

<g id="Duplicate_Items_Folder_head_copy_22_0_Layer0_0_FILL">
<path fill="#FFFFFF" stroke="none" d="
M 7.6 -1.85
Q 14.25 -6.7 17.4 -14.05 8.4 -12.05 0.75 -1.6
L 0.3 1.85 6.85 -1.3
Q 7.25 -1.6 7.6 -1.85 Z"/>

<path fill="#45FEFE" stroke="none" d="
M 17.4 -14.05
Q 18.25 -16.15 18.85 -18.45 9.7 -15.15 -1.4 -4.35 -2.6 -1.5 -3.1 1.85
L 0.95 -2.75 0.75 -1.6
Q 8.4 -12.05 17.4 -14.05 Z"/>

<path fill="#029CC1" stroke="none" d="
M 18.85 -18.45
Q 19.15 -19.45 19.35 -20.45 3.45 -15.8 -1.4 -4.35 9.7 -15.15 18.85 -18.45 Z"/>
</g>

<g id="Duplicate_Items_Folder_foot_copy_8_0_Layer0_0_FILL">
<path fill="#000000" stroke="none" d="
M -7.4 3.75
Q -7.2 6.95 -5.9 9.2 2.3 15.3 4.25 7.75 -3.35 9.2 -7.4 3.75 Z"/>

<path fill="#FFFFFF" stroke="none" d="
M 0.6 -10.3
L -5.1 -10.35
Q -7.75 -1.9 -7.4 3.75 -3.35 9.2 4.25 7.75 4.55 6.5 4.75 4.9 3.85 -5.85 0.6 -10.3 Z"/>
</g>

<g id="Duplicate_Items_Folder_arm__copy_3_0_Layer1_0_FILL">
<path fill="#FFFFFF" stroke="none" d="
M 3.45 7.45
Q 3.55 6.15 3.55 4.55 2.3 -6.05 0.05 -10.15
L -3.45 -9.6
Q -4.55 -0.9 -3.95 4.65 -0.25 0.4 3.45 7.45 Z"/>

<path fill="#FFD5D5" stroke="none" d="
M -3.95 4.65
Q -3.65 7.85 -2.7 9.95 2.75 15.15 3.45 7.45 -0.25 0.4 -3.95 4.65 Z"/>
</g>

<g id="Duplicate_Items_Folder_arm__copy_3_0_Layer0_0_FILL">
<path fill="#00FFFF" stroke="none" d="
M -7.65 -14.05
Q -8.95 -7.35 -5.35 -2.55 -1.85 -0.35 3.55 -3.15 3.8 -9.05 -2.25 -14.3 -5.15 -16.3 -7.65 -14.05 Z"/>
</g>

<g id="Duplicate_Items_Folder_body_front_copy_2_0_Layer1_0_FILL">
<path fill="#000000" stroke="none" d="
M 22.7 14.05
Q 20.8 6.45 15.8 -1.25 -5.05 5.95 -25.65 -1.9 -30.75 4.7 -32.6 13.75 -25.3 18.5 -17.85 20.65 1.8 26.3 22.7 14.05
M 11.4 10.2
L 12.95 11.3 11.4 10.2 9.5 13.4 11.55 14.4 9.5 13.4 8.35 15.3 9.5 13.4 5.55 11.65 4.65 13.15 5.55 11.65 2.95 10.4 5.55 11.65 7.9 7.6 5.8 6.05 7.9 7.6 8.95 5.8 7.9 7.6 11.4 10.2 12.95 7.6 11.4 10.2
M 7.9 7.6
L 5.55 11.65 9.5 13.4 11.4 10.2 7.9 7.6
M 12.2 -6.6
L 5.7 -16.45
Q -3.25 -12.7 -15.45 -15.8
L -22.3 -6.2
Q -5.05 -0.45 12.2 -6.6 Z"/>

<path fill="#00FFFF" stroke="none" d="
M 15.8 -1.25
L 12.2 -6.6
Q -5.05 -0.45 -22.3 -6.2
L -25.65 -1.9
Q -5.05 5.95 15.8 -1.25 Z"/>
</g>

<g id="Duplicate_Items_Folder_bone_copy_0_Layer1_0_FILL">
<path fill="#EAEAEA" stroke="none" d="
M -10.7 -5.7
Q -11.18828125 -5.4619140625 -12.05 -4.9 -12.8541015625 -4.34609375 -12.9 -3.15 -12.9 -1.9 -11.85 -1 -10.8 -0.1 -9.6 -0.1 -8.35 -0.15 -7.5 -1 -7.3 -1.2 -7.2 -1.45
L -2.65 3
Q -3.4916015625 3.058984375 -3.75 4.35 -3.9630859375 5.6923828125 -3.15 6.75 -2.2890625 7.8453125 -0.7 7.5 0.8876953125 7.2115234375 1.15 6.05 1.4638671875 4.9326171875 1.85 4.6 0.55 5.4513671875 -0.75 4.5
L -1.15 1.55 -4.95 -2.85 -9.75 -2.55
Q -11.194140625 -4.125 -10.7 -5.7 Z"/>

<path fill="#FFFFFF" stroke="none" d="
M 4 -1.35
Q 2.7423828125 -1.6515625 1.95 -1 1.153515625 -0.3021484375 0.65 -0.05
L -4.05 -4.65
Q -3.5 -5.35 -3.5 -6.3 -3.55 -7.4 -4.35 -8.25 -5.2 -9.05 -6.25 -9.3 -7.25 -9.55 -8.05 -8.8 -8.8 -8 -8.9 -7.05 -8.95 -6.1 -8.9 -5.85 -9.25 -5.9 -9.55 -5.95 -10.162890625 -5.9244140625 -10.7 -5.7 -11.194140625 -4.125 -9.75 -2.55
L -4.95 -2.85 -1.15 1.55 -0.75 4.5
Q 0.55 5.4513671875 1.85 4.6 1.8591796875 4.4333984375 1.85 4.25 1.85 4.05 1.8 3.9 2.69375 4.39296875 4.2 3.45 5.7064453125 2.558203125 5.45 0.75 5.24765625 -1.00546875 4 -1.35 Z"/>
</g>

<path id="Duplicate_Items_Folder_head_copy_22_0_Layer4_0_1_STROKES" stroke="#000000" stroke-width="1" stroke-linejoin="round" stroke-linecap="round" fill="none" d="
M 25.325 24.65
Q 28.4134765625 26.0044921875 29.8 28.9 31.6 35.3 29.7 36.35 37.55 32.45 32.3 26.05 23.7 17.5 26.6 3.75 31.0248046875 -8.8259765625 20.125 -21.275 19.3330078125 -22.1861328125 18.45 -23.1 6.4 -27.9 -7.75 -26.6 -22.088671875 -26.692578125 -26.55 -1.7
M 25.325 24.65
Q 24.6333984375 24.33046875 23.85 24.1 24.9072265625 26.0435546875 25.675 27.825
M 27.075 40.275
Q 25.9294921875 43.091015625 22.9 44.85 26.075 39.672265625 21.9 34.925 21.8025390625 34.8119140625 21.7 34.7 21.548046875 36.11484375 21.25 37.4 19.5544921875 44.933203125 13.1 48.3 1.7248046875 54.251953125 -24.45 47.25 -21.75 46.1 -22.35 44.7 -33.15 46.65 -39.3 41 -28.55 41.6 -27.15 33.3 -42.3 40.2 -45.85 29.35 -44.0814453125 29.95390625 -42.475 30.175 -32.94609375 31.5513671875 -29.35 19.65 -38.85 26.6 -42.8 17.75 -38.95 20.2 -35.55 19.5 -31.6 18.75 -29.5 12.65 -27.45 6.45 -27.2 2.5 -26.9041015625 0.3123046875 -26.55 -1.7
M 27.075 40.275
Q 29.028515625 35.54375 25.675 27.825"/>

<path id="Duplicate_Items_Folder_head_copy_22_0_Layer2_0_1_STROKES" stroke="#000000" stroke-width="1" stroke-linejoin="round" stroke-linecap="round" fill="none" d="
M 16.75 6.875
Q 17.17734375 5.5177734375 17.4 4 9.5 -1.05 13.7 -12.6 8.25 -2.3 -1.35 -2.05 -3.4 -2.05 -5.6 -2.4 -14.4 -5.4 -18.1 -2.4 -18.523828125 0.1947265625 -18.275 2.7
M 16.75 6.875
Q 15.356640625 11.2720703125 11.8 14.05 7.1392578125 17.6990234375 2.85 18.175 -1.440625 18.637109375 -7.525 16.825 -13.6087890625 15.03125 -16.35 9.375 -17.9298828125 6.1150390625 -18.275 2.7
M 18.45 4.6
Q 17.85 4.3 17.4 4
M -18.1 -2.4
Q -19.85 -1.55 -21.2 1.75"/>

<path id="Duplicate_Items_Folder_head_copy_22_0_Layer1_0_1_STROKES" stroke="#000000" stroke-width="1" stroke-linejoin="round" stroke-linecap="round" fill="none" d="
M 10.9 6.1
L 11.8 4.8
M 12.2 6.6
L 13.2 6
M -14.75 4.3
L -15.55 3.6
M -13.35 4.05
L -14.05 2.6
M -3.35 13.3
L -0.2 14.35"/>

<path id="Duplicate_Items_Folder_head_copy_22_0_Layer0_0_1_STROKES" stroke="#000000" stroke-width="1" stroke-linejoin="round" stroke-linecap="round" fill="none" d="
M 19.35 -20.45
Q 19.15 -19.45 18.85 -18.45 18.25 -16.15 17.4 -14.05 14.25 -6.7 7.6 -1.85 7.25 -1.6 6.85 -1.3
L 0.3 1.85 0.75 -1.6 0.95 -2.75 -3.1 1.85
Q -2.6 -1.5 -1.4 -4.35"/>

<path id="Duplicate_Items_Folder_foot_copy_8_0_Layer0_0_1_STROKES" stroke="#000000" stroke-width="1" stroke-linejoin="round" stroke-linecap="round" fill="none" d="
M -7.4 3.75
Q -7.75 -1.9 -5.1 -10.35
L 0.6 -10.3
Q 3.85 -5.85 4.75 4.9 4.55 6.5 4.25 7.75 2.3 15.3 -5.9 9.2 -7.2 6.95 -7.4 3.75 Z"/>

<path id="Duplicate_Items_Folder_arm__copy_3_0_Layer1_0_1_STROKES" stroke="#000000" stroke-width="1" stroke-linejoin="round" stroke-linecap="round" fill="none" d="
M 3.45 7.45
Q 2.75 15.15 -2.7 9.95 -3.65 7.85 -3.95 4.65 -4.55 -0.9 -3.45 -9.6
L 0.05 -10.15
Q 2.3 -6.05 3.55 4.55 3.55 6.15 3.45 7.45 Z"/>

<path id="Duplicate_Items_Folder_arm__copy_3_0_Layer0_0_1_STROKES" stroke="#000000" stroke-width="1" stroke-linejoin="round" stroke-linecap="round" fill="none" d="
M -7.65 -14.05
Q -5.15 -16.3 -2.25 -14.3 3.8 -9.05 3.55 -3.15 -1.85 -0.35 -5.35 -2.55 -8.95 -7.35 -7.65 -14.05 Z"/>

<path id="Duplicate_Items_Folder_body_front_copy_2_0_Layer1_0_1_STROKES" stroke="#000000" stroke-width="1" stroke-linejoin="round" stroke-linecap="round" fill="none" d="
M 15.8 -1.25
L 12.2 -6.6
Q -5.05 -0.45 -22.3 -6.2
L -25.65 -1.9
Q -5.05 5.95 15.8 -1.25 20.8 6.45 22.7 14.05 1.8 26.3 -17.85 20.65 -25.3 18.5 -32.6 13.75 -30.75 4.7 -25.65 -1.9
M 12.2 -6.6
L 5.7 -16.45
Q -3.25 -12.7 -15.45 -15.8
L -22.3 -6.2
M 12.95 7.6
L 11.4 10.2 12.95 11.3
M 5.8 6.05
L 7.9 7.6 8.95 5.8
M 2.95 10.4
L 5.55 11.65 7.9 7.6 11.4 10.2 9.5 13.4 11.55 14.4
M 8.35 15.3
L 9.5 13.4 5.55 11.65 4.65 13.15"/>

<path id="Duplicate_Items_Folder_bone_copy_0_Layer1_0_1_STROKES" stroke="#000000" stroke-width="1" stroke-linejoin="round" stroke-linecap="round" fill="none" d="
M -10.675 -5.7
Q -10.162890625 -5.9244140625 -9.55 -5.95 -9.25 -5.9 -8.9 -5.85 -8.95 -6.1 -8.875 -7.05 -8.8 -8 -8.025 -8.775 -7.25 -9.55 -6.225 -9.3 -5.2 -9.05 -4.35 -8.25 -3.55 -7.4 -3.5 -6.3 -3.5 -5.35 -4.05 -4.65
L 0.65 -0.05
Q 1.153515625 -0.3021484375 1.95 -0.975 2.7423828125 -1.6515625 4 -1.325 5.24765625 -1.00546875 5.475 0.775 5.7064453125 2.558203125 4.2 3.475 2.69375 4.39296875 1.8 3.9 1.85 4.05 1.85 4.25 1.8591796875 4.4333984375 1.85 4.6 1.4638671875 4.9326171875 1.175 6.075 0.8876953125 7.2115234375 -0.7 7.525 -2.2890625 7.8453125 -3.125 6.775 -3.9630859375 5.6923828125 -3.725 4.375 -3.4916015625 3.058984375 -2.65 3
L -7.2 -1.45
Q -7.3 -1.2 -7.5 -1 -8.35 -0.15 -9.6 -0.1 -10.8 -0.1 -11.85 -1 -12.9 -1.9 -12.875 -3.125 -12.8541015625 -4.34609375 -12.025 -4.9 -11.18828125 -5.4619140625 -10.675 -5.7 Z"/>
</defs>

<g transform="matrix( 5.2999267578125, -0.5350799560546875, 0.5244140625, 5.1936492919921875, 293.05,232.5) ">
<g transform="matrix( 1, 0, 0, 1, 0,0) ">
<use xlink:href="#Duplicate_Items_Folder_head_copy_22_0_Layer4_0_FILL"/>

<use xlink:href="#Duplicate_Items_Folder_head_copy_22_0_Layer4_0_1_STROKES"/>
</g>

<g transform="matrix( 1, 0, 0, 1, 0,0) ">
<use xlink:href="#Duplicate_Items_Folder_head_copy_22_0_Layer3_0_FILL"/>
</g>

<g transform="matrix( 1, 0, 0, 1, 0,0) ">
<use xlink:href="#Duplicate_Items_Folder_head_copy_22_0_Layer2_0_FILL"/>

<use xlink:href="#Duplicate_Items_Folder_head_copy_22_0_Layer2_0_1_STROKES"/>
</g>

<g transform="matrix( 1, 0, 0, 1, 0,0) ">
<use xlink:href="#Duplicate_Items_Folder_head_copy_22_0_Layer1_0_FILL"/>

<use xlink:href="#Duplicate_Items_Folder_head_copy_22_0_Layer1_0_1_STROKES"/>
</g>

<g transform="matrix( 1, 0, 0, 1, 0,0) ">
<use xlink:href="#Duplicate_Items_Folder_head_copy_22_0_Layer0_0_FILL"/>

<use xlink:href="#Duplicate_Items_Folder_head_copy_22_0_Layer0_0_1_STROKES"/>
</g>
</g>

<g transform="matrix( -3.63519287109375, -1.13299560546875, -1.07147216796875, 3.43804931640625, 258.05,478.35) ">
<g transform="matrix( 1, 0, 0, 1, 0,0) ">
<use xlink:href="#Duplicate_Items_Folder_foot_copy_8_0_Layer0_0_FILL"/>

<use xlink:href="#Duplicate_Items_Folder_foot_copy_8_0_Layer0_0_1_STROKES"/>
</g>
</g>

<g transform="matrix( -3.5672760009765625, -1.0710906982421875, -1.1397857666015625, 3.79638671875, 201.55,366.2) ">
<g transform="matrix( 1, 0, 0, 1, 0,0) ">
<use xlink:href="#Duplicate_Items_Folder_arm__copy_3_0_Layer1_0_FILL"/>

<use xlink:href="#Duplicate_Items_Folder_arm__copy_3_0_Layer1_0_1_STROKES"/>
</g>

<g transform="matrix( 1, 0, 0, 1, 0,0) ">
<use xlink:href="#Duplicate_Items_Folder_arm__copy_3_0_Layer0_0_FILL"/>

<use xlink:href="#Duplicate_Items_Folder_arm__copy_3_0_Layer0_0_1_STROKES"/>
</g>
</g>

<g transform="matrix( 3.9720306396484375, -1.0899505615234375, 1.0403289794921875, 3.7910614013671875, 320.4,480.2) ">
<g transform="matrix( 1, 0, 0, 1, 0,0) ">
<use xlink:href="#Duplicate_Items_Folder_foot_copy_8_0_Layer0_0_FILL"/>

<use xlink:href="#Duplicate_Items_Folder_foot_copy_8_0_Layer0_0_1_STROKES"/>
</g>
</g>

<g transform="matrix( 4.32745361328125, 0, 0, 4.32745361328125, 307.1,387.95) ">
<g transform="matrix( 1, 0, 0, 1, 0,0) ">
<use xlink:href="#Duplicate_Items_Folder_body_front_copy_2_0_Layer1_0_FILL"/>

<use xlink:href="#Duplicate_Items_Folder_body_front_copy_2_0_Layer1_0_1_STROKES"/>
</g>

<g transform="matrix( 0.736572265625, -0.673736572265625, 0.673736572265625, 0.736572265625, -2.5,-2.45) ">
<g transform="matrix( 1, 0, 0, 1, 0,0) ">
<use xlink:href="#Duplicate_Items_Folder_bone_copy_0_Layer1_0_FILL"/>

<use xlink:href="#Duplicate_Items_Folder_bone_copy_0_Layer1_0_1_STROKES"/>
</g>
</g>
</g>

<g transform="matrix( 3.99127197265625, -1.1983795166015625, 1.275115966796875, 4.24749755859375, 379.5,373.35) ">
<g transform="matrix( 1, 0, 0, 1, 0,0) ">
<use xlink:href="#Duplicate_Items_Folder_arm__copy_3_0_Layer1_0_FILL"/>

<use xlink:href="#Duplicate_Items_Folder_arm__copy_3_0_Layer1_0_1_STROKES"/>
</g>

<g transform="matrix( 1, 0, 0, 1, 0,0) ">
<use xlink:href="#Duplicate_Items_Folder_arm__copy_3_0_Layer0_0_FILL"/>

<use xlink:href="#Duplicate_Items_Folder_arm__copy_3_0_Layer0_0_1_STROKES"/>
</g>
</g>

<g transform="matrix( 4.32745361328125, 0, 0, 4.32745361328125, 288.05,402.8) "/>
</svg>
