
<svg xmlns="http://www.w3.org/2000/svg" version="1.1" xmlns:xlink="http://www.w3.org/1999/xlink" preserveAspectRatio="none" x="0px" y="0px" width="560px" height="544px" viewBox="0 0 560 544">
<defs>
<radialGradient id="Gradient_1" gradientUnits="userSpaceOnUse" cx="0" cy="0" r="74.5" fx="0" fy="0" gradientTransform="matrix( 1, 0, 0, 1, -17.55,-100.05) " spreadMethod="pad">
<stop  offset="9.019607843137255%" stop-color="#F2C4FF"/>

<stop  offset="36.470588235294116%" stop-color="#D700FF"/>

<stop  offset="53.72549019607843%" stop-color="#BB01FF"/>

<stop  offset="65.49019607843137%" stop-color="#C902FF"/>

<stop  offset="74.50980392156863%" stop-color="#E500FF"/>

<stop  offset="82.74509803921569%" stop-color="#A000EC"/>

<stop  offset="89.80392156862744%" stop-color="#8900CA"/>

<stop  offset="100%" stop-color="#3F0066"/>
</radialGradient>

<g id="full_size_0_Layer1_0_FILL">
<path fill="#00CBDC" stroke="none" d="
M -1.5 2.6
Q -1.2853515625 2.6236328125 -1.1 2.65 5.183203125 3.4318359375 8.25 0.7
L 6.7 -6.15
Q 2.946484375 -4.3134765625 -0.85 -3.45
L -1.5 2.6
M 6.45 -24.25
Q 3.98671875 -22.0779296875 1.1 -21.65
L 0.15 -12.95
Q 2.7505859375 -13.403125 5.3 -14.75 6.145703125 -19.6919921875 6.45 -24.25
M 6.25 -40.5
Q 4.533984375 -38.695703125 2.8 -37.75
L 2.05 -30.45
Q 4.44296875 -31.2529296875 6.6 -33 6.676953125 -36.7265625 6.25 -40.5 Z"/>

<path fill="#4DFEFF" stroke="none" d="
M -0.85 -3.45
Q -3.391015625 -2.8791015625 -5.95 -2.75 -5.9830078125 -0.7830078125 -6 1.4 -7.2884765625 1.85234375 -1.5 2.6
L -0.85 -3.45
M 0.15 -12.95
L 1.1 -21.65
Q -0.4822265625 -21.40703125 -2.2 -21.7 -1.9396484375 -20.133203125 -2.1 -18.35 -3.103515625 -15.66484375 -4.1 -12.8 -1.9494140625 -12.5791015625 0.15 -12.95
M 2.05 -30.45
L 2.8 -37.75
Q 0.096484375 -36.270703125 -2.65 -36.9 -2.9751953125 -33.276171875 -2.9 -29.75 -0.32265625 -29.6537109375 2.05 -30.45
M 4.2 -50.7
Q 3.7673828125 -52.151953125 3.25 -53.6
L -0.25 -52
Q -0.621875 -48.3861328125 -1.4 -44.85 1.164453125 -44.0109375 3.7 -46.05 4.389453125 -46.5919921875 5.05 -47.35 4.6794921875 -49.0265625 4.2 -50.7 Z"/>

<path fill="#000000" stroke="none" d="
M 5.3 -14.75
Q 2.7505859375 -13.403125 0.15 -12.95 -1.9494140625 -12.5791015625 -4.1 -12.8 -5.85078125 -7.6607421875 -5.95 -2.75 -3.391015625 -2.8791015625 -0.85 -3.45 2.946484375 -4.3134765625 6.7 -6.15
L 5.1 -13.35
Q 5.2212890625 -14.0404296875 5.3 -14.75
M 6.6 -33
Q 4.44296875 -31.2529296875 2.05 -30.45 -0.32265625 -29.6537109375 -2.9 -29.75 -2.8314453125 -25.6486328125 -2.2 -21.7 -0.4822265625 -21.40703125 1.1 -21.65 3.98671875 -22.0779296875 6.45 -24.25 6.737890625 -28.39453125 6.6 -32.2 6.6115234375 -32.591796875 6.6 -33
M 2.8 -37.75
Q 4.533984375 -38.695703125 6.25 -40.5 5.8681640625 -43.9095703125 5.05 -47.35 4.389453125 -46.5919921875 3.7 -46.05 1.164453125 -44.0109375 -1.4 -44.85 -1.489453125 -44.376171875 -1.6 -43.9 -2.3072265625 -40.346484375 -2.65 -36.9 0.096484375 -36.270703125 2.8 -37.75
M 3.25 -53.6
Q 1.926171875 -57.5189453125 0.05 -61.45 0.2267578125 -56.6578125 -0.25 -52
L 3.25 -53.6 Z"/>
</g>

<g id="full_size_0_Layer0_0_FILL">
<path fill="#89AD00" stroke="none" d="
M -7.75 -48.75
Q -4.4841796875 -40.1951171875 -5.2 -34.5 -2.4400390625 -37.9642578125 1.4 -51.4 -6.1123046875 -48.9162109375 -16.45 -49.4 -16.80859375 -41.9896484375 -13.85 -39.55
L -11.55 -48.5 -10.55 -42.35 -7.75 -48.75
M 20.15 -69.3
Q 20.3001953125 -67.5529296875 19.5 -65.8 19.3361328125 -67.105859375 18.9 -68.25 14.4541015625 -56.46484375 3.05 -52 4.558203125 -49.404296875 3.45 -43.65
L 7.3 -52.8 9.05 -45.95
Q 11.64609375 -47.0404296875 12.35 -53.05 14.4259765625 -41.92109375 13.9 -32.7 16.914453125 -36.281640625 17.55 -51.9 17.6552734375 -53.5568359375 17.7 -55.35
L 20 -51.8
Q 21.4 -52.2923828125 22.8 -57.9
L 23.85 -49.5
Q 27.408984375 -55.3732421875 25.85 -67.85 25.498828125 -70.5119140625 24.75 -73.2 25.2982421875 -70.8201171875 20.15 -69.3 Z"/>

<path fill="#AEDC00" stroke="none" d="
M 14.05 -92.5
Q 12.6373046875 -97.0197265625 7.3 -98.4 10.7724609375 -100.680859375 15.15 -97.35 13.1654296875 -100.5369140625 9 -102.4 -3.60234375 -82.4185546875 -28.2 -87.5 -33.0650390625 -81.459375 -35.65 -73.25 -36.8083984375 -69.50078125 -37.5 -65.3
L -33.2 -71.15
Q -22.8177734375 -62.6310546875 -10.7 -73.05 10.1642578125 -70.4638671875 20.9 -86.1 18.8599609375 -90.0884765625 14.05 -92.5
M 4.25 -85.2
Q 6.7435546875 -87.1201171875 5 -90.75 6.7435546875 -87.1201171875 4.25 -85.2
L 4.25 -84.9 4.25 -85.2
Q 4.5607421875 -88.0828125 0.4 -91 4.5607421875 -88.0828125 4.25 -85.2
M -15.4 -74.9
L -15.35 -74.95 -15.35 -74.9 -15.4 -74.9
M -12 -79.1
Q -11.85 -80.75 -11.95 -82.55 -11.85 -80.75 -12 -79.1 -12.35 -75.55 -14 -72.85
L -16.5 -78.45 -16.5 -78.35 -17.8 -71.6
Q -20.45 -74.55 -21.2 -77.75 -21.9 -80.55 -21.1 -83.55 -21.9 -80.55 -21.2 -77.75 -20.45 -74.55 -17.8 -71.6
L -16.5 -78.35 -16.5 -78.45 -14 -72.85
Q -12.35 -75.55 -12 -79.1 Z"/>

<path fill="url(#Gradient_1)" stroke="none" d="
M -15.35 -74.95
L -15.4 -74.9 -15.35 -74.9 -15.35 -74.95 Z"/>

<path fill="#9AC200" stroke="none" d="
M 22.45 -79.8
Q 22.33046875 -83.3115234375 20.9 -86.1 10.1642578125 -70.4638671875 -10.7 -73.05 -22.8177734375 -62.6310546875 -33.2 -71.15 -34.9162109375 -57.447265625 -30.9 -54.1 -29.64296875 -62.003515625 -26.55 -66.05 -29.1578125 -54.13671875 -27.4 -47.35 -26.0001953125 -42.06328125 -22 -39.85
L -21.75 -51.55 -19.7 -46.7 -16.4 -49.75
Q -16.412109375 -49.5572265625 -16.45 -49.4 -6.1123046875 -48.9162109375 1.4 -51.4 1.6794921875 -52.3275390625 1.95 -53.3 2.6341796875 -52.799609375 3.05 -52 14.4541015625 -56.46484375 18.9 -68.25 17.910546875 -70.93046875 15.45 -72.65 17.910546875 -70.93046875 18.9 -68.25 19.3361328125 -67.105859375 19.5 -65.8 20.3001953125 -67.5529296875 20.15 -69.3 20.0330078125 -70.9779296875 19.05 -72.65 20.0330078125 -70.9779296875 20.15 -69.3 25.2982421875 -70.8201171875 24.75 -73.2 24.7548828125 -73.290234375 24.7 -73.4 23.8501953125 -76.5962890625 22.45 -79.8
M 7.8 -67.55
Q 9.32890625 -70.625 7.55 -73.7 9.32890625 -70.625 7.8 -67.55
L 4.75 -69.85
Q 5.825390625 -64.8501953125 4.25 -62.5
L 1.15 -68.6 0.15 -64.5
Q -3.3150390625 -65.7876953125 -3.55 -70 -3.3150390625 -65.7876953125 0.15 -64.5
L 1.15 -68.6 4.25 -62.5
Q 5.825390625 -64.8501953125 4.75 -69.85
L 7.8 -67.55
M -22.75 -56.9
L -20.7 -58.9 -19.45 -54.6
Q -16.5984375 -58.20390625 -17.9 -62.5 -16.5984375 -58.20390625 -19.45 -54.6
L -20.7 -58.9 -22.75 -56.9 -22.75 -61.45 -22.75 -56.9 Z"/>

<path fill="#B8EB00" stroke="none" d="
M 0.9 -104.5
Q 2.7240234375 -108.45 7.8 -112.4 1.5943359375 -112.9171875 -2.65 -107.55
L -5.95 -112.9 -5.95 -106.5 -9.5 -110.1 -9 -104.5
Q -13.1146484375 -106.7587890625 -14.6 -113.4
L -15.35 -104.5
Q -20.7712890625 -108.113671875 -29.1 -104.75 -21.1828125 -104.394921875 -18.45 -102.2 -28.8939453125 -102.49375 -31.5 -95 -28.225 -98.2873046875 -23 -97.6 -33.6693359375 -91.2080078125 -33.35 -86.3 -29.236328125 -91.01953125 -24.3 -91.65 -26.401953125 -89.704296875 -28.2 -87.5 -3.60234375 -82.4185546875 9 -102.4 5.6484375 -103.8728515625 0.9 -104.5 Z"/>
</g>

<path id="full_size_0_Layer1_0_1_STROKES" stroke="#000000" stroke-width="1" stroke-linejoin="round" stroke-linecap="round" fill="none" d="
M 3.275 -53.6
Q 3.7673828125 -52.151953125 4.2 -50.7 4.6794921875 -49.0265625 5.075 -47.35 5.8681640625 -43.9095703125 6.25 -40.475 6.676953125 -36.7265625 6.625 -32.975 6.6115234375 -32.591796875 6.6 -32.2 6.737890625 -28.39453125 6.45 -24.25 6.145703125 -19.6919921875 5.325 -14.725 5.2212890625 -14.0404296875 5.1 -13.35
L 6.725 -6.15 8.25 0.7
Q 5.183203125 3.4318359375 -1.075 2.65 -1.2853515625 2.6236328125 -1.475 2.6 -7.2884765625 1.85234375 -6 1.4 -5.9830078125 -0.7830078125 -5.95 -2.75 -5.85078125 -7.6607421875 -4.075 -12.8 -3.103515625 -15.66484375 -2.1 -18.35 -1.9396484375 -20.133203125 -2.2 -21.7 -2.8314453125 -25.6486328125 -2.9 -29.75 -2.9751953125 -33.276171875 -2.625 -36.9 -2.3072265625 -40.346484375 -1.6 -43.9 -1.489453125 -44.376171875 -1.375 -44.85 -0.621875 -48.3861328125 -0.25 -52 0.2267578125 -56.6578125 0.05 -61.45 1.926171875 -57.5189453125 3.275 -53.6 Z
M 2.825 -37.75
Q 4.533984375 -38.695703125 6.25 -40.475
M -1.375 -44.85
Q 1.164453125 -44.0109375 3.7 -46.05 4.389453125 -46.5919921875 5.075 -47.35
M -2.625 -36.9
Q 0.096484375 -36.270703125 2.825 -37.75"/>

<path id="full_size_0_Layer0_0_1_STROKES" stroke="#000000" stroke-width="1" stroke-linejoin="round" stroke-linecap="round" fill="none" d="
M 9 -102.4
Q 5.6484375 -103.8728515625 0.9 -104.5 2.7240234375 -108.45 7.8 -112.4 1.5943359375 -112.9171875 -2.65 -107.55
L -5.95 -112.9 -5.95 -106.5 -9.5 -110.1 -9 -104.5
Q -13.1146484375 -106.7587890625 -14.6 -113.4
L -15.35 -104.5
Q -20.7712890625 -108.113671875 -29.1 -104.75 -21.1828125 -104.394921875 -18.45 -102.2 -28.8939453125 -102.49375 -31.5 -95 -28.225 -98.2873046875 -23 -97.6 -33.6693359375 -91.2080078125 -33.35 -86.3 -29.236328125 -91.01953125 -24.3 -91.625 -26.401953125 -89.704296875 -28.2 -87.5
M 9 -102.4
Q 13.1654296875 -100.5369140625 15.15 -97.35 10.7724609375 -100.680859375 7.3 -98.4 12.6373046875 -97.0197265625 14.05 -92.5 18.8599609375 -90.0884765625 20.925 -86.075 22.33046875 -83.3115234375 22.45 -79.8 23.8501953125 -76.5962890625 24.725 -73.4 24.7548828125 -73.290234375 24.775 -73.175 25.498828125 -70.5119140625 25.85 -67.85 27.408984375 -55.3732421875 23.85 -49.5
L 22.8 -57.9
Q 21.4 -52.2923828125 20 -51.8
L 17.7 -55.35
Q 17.6552734375 -53.5568359375 17.575 -51.9 16.914453125 -36.281640625 13.9 -32.7 14.4259765625 -41.92109375 12.35 -53.05 11.64609375 -47.0404296875 9.05 -45.95
L 7.3 -52.8 3.45 -43.65
Q 4.558203125 -49.404296875 3.075 -52 2.6341796875 -52.799609375 1.95 -53.3 1.6794921875 -52.3275390625 1.425 -51.4 -2.4400390625 -37.9642578125 -5.2 -34.5 -4.4841796875 -40.1951171875 -7.75 -48.75
L -10.55 -42.35 -11.55 -48.5 -13.85 -39.55
Q -16.80859375 -41.9896484375 -16.425 -49.375 -16.412109375 -49.5572265625 -16.4 -49.75
L -19.7 -46.7 -21.75 -51.55 -22 -39.85
Q -26.0001953125 -42.06328125 -27.375 -47.325 -29.1578125 -54.13671875 -26.55 -66.05 -29.64296875 -62.003515625 -30.9 -54.1 -34.9162109375 -57.447265625 -33.2 -71.15
L -37.5 -65.3
Q -36.8083984375 -69.50078125 -35.625 -73.25 -33.0650390625 -81.459375 -28.2 -87.5
M 0.4 -91
Q 4.5607421875 -88.0828125 4.275 -85.175 6.7435546875 -87.1201171875 5 -90.75
M 4.25 -84.9
L 4.275 -85.175
M 19.05 -72.65
Q 20.0330078125 -70.9779296875 20.175 -69.3 20.3001953125 -67.5529296875 19.5 -65.8 19.3361328125 -67.105859375 18.925 -68.25 17.910546875 -70.93046875 15.45 -72.65
M -3.55 -70
Q -3.3150390625 -65.7876953125 0.15 -64.5
L 1.15 -68.6 4.25 -62.5
Q 5.825390625 -64.8501953125 4.75 -69.85
L 7.8 -67.55
Q 9.32890625 -70.625 7.55 -73.7
M -21.1 -83.55
Q -21.9 -80.55 -21.2 -77.75 -20.45 -74.55 -17.8 -71.6
L -16.5 -78.35 -16.5 -78.45 -14 -72.85
Q -12.35 -75.55 -12 -79.1 -11.85 -80.75 -11.95 -82.55
M -22.75 -61.45
L -22.75 -56.9 -20.7 -58.9 -19.45 -54.6
Q -16.5984375 -58.20390625 -17.9 -62.5"/>
</defs>

<g transform="matrix( 4.537628173828125, 0, 0, 4.537628173828125, 304.35,525.75) ">
<g transform="matrix( 1, 0, 0, 1, 0,0) ">
<use xlink:href="#full_size_0_Layer1_0_FILL"/>

<use xlink:href="#full_size_0_Layer1_0_1_STROKES"/>
</g>

<g transform="matrix( 1, 0, 0, 1, 0,0) ">
<use xlink:href="#full_size_0_Layer0_0_FILL"/>

<use xlink:href="#full_size_0_Layer0_0_1_STROKES"/>
</g>
</g>
</svg>
