
<svg xmlns="http://www.w3.org/2000/svg" version="1.1" xmlns:xlink="http://www.w3.org/1999/xlink" preserveAspectRatio="none" x="0px" y="0px" width="560px" height="544px" viewBox="0 0 560 544">
<defs>
<linearGradient id="Gradient_1" gradientUnits="userSpaceOnUse" x1="2.6625000000000005" y1="25.925" x2="-5.7625" y2="-17.425" spreadMethod="pad">
<stop  offset="0%" stop-color="#932D07"/>

<stop  offset="100%" stop-color="#D27213"/>
</linearGradient>

<linearGradient id="Gradient_2" gradientUnits="userSpaceOnUse" x1="-11.2" y1="-8.087500000000002" x2="-12.7" y2="15.4875" spreadMethod="pad">
<stop  offset="0%" stop-color="#F8A348"/>

<stop  offset="100%" stop-color="#C75B2C"/>
</linearGradient>

<linearGradient id="Gradient_3" gradientUnits="userSpaceOnUse" x1="-19.9625" y1="-4.950000000000001" x2="-23.4375" y2="8.65" spreadMethod="pad">
<stop  offset="0%" stop-color="#F8A348"/>

<stop  offset="100%" stop-color="#C75B2C"/>
</linearGradient>

<linearGradient id="Gradient_4" gradientUnits="userSpaceOnUse" x1="18.875" y1="-2.0250000000000004" x2="20.424999999999997" y2="10.625" spreadMethod="pad">
<stop  offset="0%" stop-color="#F8A348"/>

<stop  offset="100%" stop-color="#C75B2C"/>
</linearGradient>

<linearGradient id="Gradient_5" gradientUnits="userSpaceOnUse" x1="11.325000000000001" y1="-5.825000000000001" x2="9.975" y2="15.625000000000002" spreadMethod="pad">
<stop  offset="0%" stop-color="#F8A348"/>

<stop  offset="100%" stop-color="#C75B2C"/>
</linearGradient>

<linearGradient id="Gradient_6" gradientUnits="userSpaceOnUse" x1="4.3374999999999995" y1="20.65" x2="-5.1375" y2="-18.85" spreadMethod="pad">
<stop  offset="0%" stop-color="#932D07"/>

<stop  offset="100%" stop-color="#EC8621"/>
</linearGradient>

<linearGradient id="Gradient_7" gradientUnits="userSpaceOnUse" x1="-16.5" y1="-6.612500000000001" x2="-18.700000000000003" y2="6.112500000000001" spreadMethod="pad">
<stop  offset="0%" stop-color="#F8A348"/>

<stop  offset="100%" stop-color="#C75B2C"/>
</linearGradient>

<linearGradient id="Gradient_8" gradientUnits="userSpaceOnUse" x1="-9.25" y1="-9.962500000000002" x2="-9.25" y2="11.8625" spreadMethod="pad">
<stop  offset="0%" stop-color="#F8A348"/>

<stop  offset="100%" stop-color="#C75B2C"/>
</linearGradient>

<linearGradient id="Gradient_9" gradientUnits="userSpaceOnUse" x1="10.05" y1="-9.075000000000001" x2="10.05" y2="10.775" spreadMethod="pad">
<stop  offset="0%" stop-color="#F8A348"/>

<stop  offset="100%" stop-color="#C75B2C"/>
</linearGradient>

<linearGradient id="Gradient_10" gradientUnits="userSpaceOnUse" x1="16.65" y1="-6.0375000000000005" x2="18.65" y2="5.5375000000000005" spreadMethod="pad">
<stop  offset="0%" stop-color="#F8A348"/>

<stop  offset="100%" stop-color="#C75B2C"/>
</linearGradient>

<linearGradient id="Gradient_11" gradientUnits="userSpaceOnUse" x1="-5.300000000000001" y1="4.5875" x2="4.9" y2="-9.7875" spreadMethod="pad">
<stop  offset="23.92156862745098%" stop-color="#CA5202"/>

<stop  offset="100%" stop-color="#FE9956"/>
</linearGradient>

<linearGradient id="Gradient_12" gradientUnits="userSpaceOnUse" x1="-9.25" y1="-1.7125" x2="8.350000000000001" y2="-3.0875" spreadMethod="pad">
<stop  offset="0%" stop-color="#FE9956"/>

<stop  offset="100%" stop-color="#FC8536"/>
</linearGradient>

<linearGradient id="Gradient_13" gradientUnits="userSpaceOnUse" x1="-9.975000000000001" y1="-10.675" x2="-6.825" y2="-0.8249999999999993" spreadMethod="pad">
<stop  offset="0%" stop-color="#FE9956"/>

<stop  offset="100%" stop-color="#CA5202"/>
</linearGradient>

<linearGradient id="Gradient_14" gradientUnits="userSpaceOnUse" x1="-6.9625" y1="-6.9" x2="3.1625" y2="-9.200000000000001" spreadMethod="pad">
<stop  offset="0%" stop-color="#FE9956"/>

<stop  offset="100%" stop-color="#FC8536"/>
</linearGradient>

<filter id="Filter_1" x="-20%" y="-20%" width="140%" height="140%" color-interpolation-filters="sRGB">
<feColorMatrix in="SourceGraphic" type="matrix" values="0.98 0 0 0 0 0 1 0 0 0 0 0 1 0 0 0 0 0 1 0" result="result1"/>
</filter>

<g id="Duplicate_Items_Folder_vine_2_copy_2_0_Layer3_0_FILL">
<path fill="#000000" stroke="none" d="
M -18 -27.85
Q -17.678515625 -27.8376953125 -17.35 -27.85 -19.2365234375 -28.0728515625 -19.6 -28 -19.891015625 -27.9455078125 -20.15 -27.9 -19.14140625 -27.8830078125 -18 -27.85
M 0.35 -9.1
Q 0.5849609375 -7.885546875 0.65 -6.75 0.3720703125 -1.498046875 -3.6 2.75 -5.572265625 4.5970703125 -8.3 6.25 -12.15 8.6 -18.65 7.95
L -24.4 7.3 -24.1 8.5 -25.45 8.35 -25.05 10 -25.45 9.95 -24.65 13.2 -22.6 13.4
Q -20.2 13.65 -18.2 14 -16.45 14.3 -12.9 13.25 -8.75 11.95 -7.2 11.85 -4.85 11.7 -1.95 8.05 -0.4 6.1 1.65 3 3.2 1.2 10.8 -4 16 -7.55 25.85 -6.95 28.2 -6.8 31.2 -4.85 35 -2.4 35.55 -1.7 36.1 -1.05 36.85 0.4 37.6 1.8 38.55 4.75 39.0166015625 6.1740234375 39.3 7.2 38.0109375 6.9685546875 35.5 6.55 30.7 5.75 29.05 6.65 27.35 7.55 26.85 8.35 26.821875 8.38828125 26.8 8.4 26.0919921875 8.9328125 25.8 9.4 25.25 10.15 24.7 12.7 24.499609375 13.551953125 24.7 14.25
L 24.7 14.3
Q 24.1 16.85 27.15 18.2 29.85 19.35 33.1 19.35 35.45 19.35 37.45 16.95 38.45 15.75 39 14.55
L 39.05 14.5
Q 40.35 13.45 40.7 13.5 41 13.55 41.35 14.05 42.5 15.55 43.7 20.85 45.2 28.25 45.45 29.05 45.473046875 29.116015625 45.5 29.2 45.3603515625 30.3380859375 44.95 32.1 44.7 33.2 44.55 34.05 43.9 36.85 43.85 37.1
L 42.5 45.7 42.65 46.2 42.5 47.3 44.9 54 48.4 57.2 51.6 62.05
Q 53.95 65.15 58.05 65.55 59.5 66.35 62 66.05 63.15 65.9 65 65.65 65.05 65.65 65.1 65.65 65.35 65.6 65.6 65.55 67.5 65.55 72.85 63.15
L 77.4 59.9
Q 80.4763671875 59.17890625 81.6 60.35
L 81.4 63.95
Q 81.4544921875 63.8412109375 81.5 63.7
L 81.4 65.55
Q 82.31171875 63.7267578125 82.75 62.3 84.5638671875 58.4447265625 84.1 56.45 83.8 55.1 81.55 55.1 79.6 54.45 77.3 55.45 76.15 55.7 74.35 56.7 73.3 57.3 68.8 60.2 67.55 61.05 66.15 61.4 66 61.45 65.9 61.5 64.35 61.8 62.7 61.55 59.25 60.65 57.75 60.5 56.85 60.45 56 59.95 55.15 59.45 54.35 58.5
L 53.9 57.8
Q 57.2923828125 57.8501953125 61 52.65 61.5357421875 51.916796875 61.1 51.2 61.5810546875 50.6576171875 62.05 50 63 48.7 60.95 47.55 59.1 46.5 56.95 46.5 55.831640625 46.5 54.6 48 53.6400390625 48.746875 52.6 50.5
L 51.75 52.15 48.65 50.55
Q 47.5 50 46.85 46.8 46.2 43.85 46.2 39.8 46.2 39.6 46.3 39.1 46.65 37.6 47.9 33.5 49.35 28.85 48.35 20.75 47.45 13.25 44.45 11.25 43.65 10.75 43.25 10.45 42.9 10.15 42.8 10 42.3 9.1 42.75 6.8 42.8 6.6 42.85 6.45 42.85 6.4 42.85 6.35
L 42.85 6.3
Q 42.85 6.15 42.9 6.05 43.45 2.1 41.65 -1.25 40.9 -2.7 39.25 -5.05
L 39.2 -5.1
Q 38.4 -6.3 37.35 -7.7 35.35 -11.05 27.6 -12.15 20.8 -13.2 15.9 -12 12.4 -11.15 8.05 -8.25
L 4.35 -5.55 4.3 -8.3
Q 4.25 -11.4 4.05 -13.1 3.85 -14.95 1.35 -18.7 0.85 -19.45 0.4 -20.1 0.35 -20.15 0.3 -20.2 -1.3 -22.4 -2.8 -24.05 -4.3 -25.75 -11.6 -26.95 -13.8130859375 -27.3162109375 -15.45 -27.55
L -14.3 -27.1
Q -16.34140625 -27.7876953125 -17.35 -27.85 -17.678515625 -27.8376953125 -18 -27.85 -19.14140625 -27.8830078125 -20.15 -27.9 -25.189453125 -28.05 -26.65 -28.05 -28.65 -28.05 -34.9 -28.5 -40.55 -28.85 -42.75 -29.1 -44.3 -29.25 -47.5 -31 -47.7 -31.15 -49.65 -32.8 -51.65 -34.45 -52.35 -35.35 -53.1 -36.3 -53.4 -37.1 -53.7 -37.95 -53.55 -38.95 -53.25 -41.1 -52.45 -44.95 -52.4 -45.65 -52.25 -46.25 -51.55 -47.2 -50.25 -48.2 -49.55 -48.7 -48.25 -49 -46.95 -49.35 -45.05 -49.5 -40.7 -49.65 -39.25 -49.8 -26.25 -50.9 -24.75 -50.65 -23.25 -50.45 -20.75 -51.7 -18.25 -52.95 -16.95 -53.9 -15.65 -54.9 -15.3 -56.75 -15.25 -57 -15.2 -57.2 -14.5 -58.1 -14.25 -59.4 -14.05 -60.45 -13.9 -61.2 -13.55 -62.8 -13.5 -62.95 -12.75 -64.6 -14.1 -66.85 -15.3 -68.9 -16.7 -69.4 -18.2 -69.85 -18.95 -70.1 -19.15 -70.2 -19.3 -70.25 -20 -70.6 -20 -70.95 -20 -71.25 -19.65 -71.55 -18.8 -72.25 -19.55 -74.5 -19.95 -75.65 -20.5 -76.65
L -23.95 -78 -28 -78.5 -30.95 -80.15 -30.95 -80.3 -29.85 -80.45 -29 -81.2
Q -28.65 -81.85 -31.05 -81.5
L -31.1 -81.9 -29.85 -82.05 -29 -82.8
Q -28.9 -82.95 -29 -83.05
L -28.8 -83.1 -27.95 -83.85
Q -27.6 -84.5 -30.15 -84.15 -31 -84.05 -31.65 -83.75 -32.7 -83.3 -33.2 -82.45 -34.2 -81.85 -34.5 -80.75 -34.7 -79.9 -34.5 -79.05 -34.85 -77.8 -34.15 -76.5 -33.95 -76.05 -33.6 -75.6 -32.7 -74.4 -30.15 -74.2 -28.4 -74.1 -27.2 -73.9 -26 -73.7 -25.3 -73.45 -23.75 -72.85 -23.2 -71.8 -25.2 -71.45 -27.75 -71 -29.25 -70.75 -29.55 -69.7 -31.1 -69.1 -30.6 -67.1 -30.85 -66.4 -30.6 -65.4 -29.95 -62.85 -27.15 -61.65 -25.05 -60.75 -23.1 -63.6 -21.15 -66.5 -20.45 -66.2 -18.95 -65.55 -17.9 -63.5 -17.1 -62 -16.95 -60.4 -17 -59.95 -17.3 -59.5 -19.95 -57.55 -27.45 -56.25 -32.95 -55.9 -37.25 -55.55 -43.95 -55 -47.8 -53.65 -47.9 -53.65 -48 -53.6 -48.8 -53.3 -49.5 -53 -49.85 -52.85 -50.15 -52.65 -50.2 -52.65 -50.25 -52.6 -51.85 -51.7 -53 -50.35 -55.35 -48.35 -56.3 -44.9 -57.1 -42 -57 -36.9 -57.05 -35.8 -57 -34.5 -57 -34 -56.95 -33.45 -56.95 -32.95 -56.8 -32.45 -55.8 -28.7 -48.7 -25.55 -43.7 -23.4 -36.85 -21.9 -34.55 -21.4 -23.65 -21.45 -22.3 -21.45 -18.65 -21.75
L -19.7 -22.15
Q -18.8515625 -21.8814453125 -18.2 -21.8 -15.85 -21.5 -10.7 -20.65 -5.6 -19.8 -2.65 -16.05 -0.45 -13.25 0.35 -9.1
M -27.2 -68.85
Q -26.95 -69 -26.65 -69.1 -25.85 -69.4 -24.75 -69.05 -25.95 -68.85 -27.35 -68.6 -27.3 -68.75 -27.2 -68.85
M -28.45 -65.85
L -28.4 -65.9
Q -28.15 -65.6 -27.8 -65.3 -28.25 -65.55 -28.45 -65.85
M -26.75 -66.35
Q -27.3 -66.65 -27.5 -67.05 -27.15 -67.35 -26.65 -67.5 -25.5 -67.95 -23.75 -67.1 -25.5 -65.7 -26.75 -66.35
M -20.7 -67.8
Q -20.55 -67.85 -20.45 -67.8 -20.05 -67.6 -19.65 -67.35 -19.85 -67.4 -20 -67.45 -20.2 -67.55 -20.35 -67.6 -20.55 -67.7 -20.7 -67.8
M 41.75 11.05
Q 41.69921875 10.95859375 41.65 10.85 41.7103515625 10.8443359375 41.75 10.85 42.05 10.9 42.4 11.4 42.5470703125 11.591796875 42.7 11.85 42.398046875 11.6484375 42.2 11.5 41.85 11.2 41.75 11.05
M 30.9 10.9
Q 32.9859375 10.5087890625 36.2 12.1 32.5951171875 15.41796875 30.35 14 28.7787109375 12.980078125 28.4 11.95 29.4521484375 11.037890625 30.9 10.9
M 65.1 64.05
Q 64.95 64.1 64.85 64.15 63.9607421875 64.3220703125 63.05 64.3 63.894140625 64.1994140625 65 64.05 65.05 64.05 65.1 64.05
M 58.25 51.55
Q 58.23671875 51.6345703125 58.2 51.7 56.968359375 52.51875 54.6 52.9 54.6373046875 52.7103515625 54.65 52.5 54.963671875 52.13828125 55.3 51.9 56.25 51 57.55 51.2 58.0373046875 51.28125 58.25 51.55 Z"/>
</g>

<g id="Duplicate_Items_Folder_vine_2_copy_2_0_Layer2_0_FILL">
<path fill="#D2E0AF" stroke="none" d="
M 4.05 -13.1
Q 3.85 -14.95 1.35 -18.7 0.85 -19.45 0.4 -20.1 0.35 -20.15 0.3 -20.2 -1.3 -22.4 -2.8 -24.05 -4.3 -25.75 -11.6 -26.95 -13.78515625 -27.31171875 -15.4 -27.55
L -14.75 -27.4
Q -16.3884765625 -27.7892578125 -17.25 -27.85 -19.2263671875 -28.0748046875 -19.6 -28 -19.8970703125 -27.9443359375 -20.15 -27.9 -25.2123046875 -28.05 -26.65 -28.05 -28.65 -28.05 -34.9 -28.5 -40.55 -28.85 -42.75 -29.1 -44.3 -29.25 -47.5 -31 -47.7 -31.15 -49.65 -32.8 -51.65 -34.45 -52.35 -35.35 -53.1 -36.3 -53.4 -37.1 -53.7 -37.95 -53.55 -38.95 -53.25 -41.1 -52.45 -44.95 -52.25 -47.1 -51.55 -48.4 -50.85 -49.6 -49.2 -50.85 -48.5 -51.35 -47.2 -51.65 -45.9 -52 -44 -52.15 -39.65 -52.3 -38.2 -52.45 -25.2 -53.55 -23.7 -53.3 -22.2 -53.1 -19.7 -54.35 -17.2 -55.6 -15.9 -56.55 -14.6 -57.55 -14.25 -59.4 -14.05 -60.45 -13.9 -61.2 -13.55 -62.8 -13.5 -62.95 -12.75 -64.6 -14.1 -66.85 -15.3 -68.9 -16.7 -69.4 -18.2 -69.85 -18.95 -70.1 -19.15 -70.2 -19.3 -70.25 -20 -70.6 -20 -70.95 -20 -71.25 -19.65 -71.55 -18.8 -72.25 -19.55 -74.5 -19.95 -75.65 -20.5 -76.65
L -23.95 -78 -28 -78.5 -30.95 -80.15 -31.2 -82.8 -28.8 -83.1 -27.95 -83.85
Q -27.6 -84.5 -30.15 -84.15 -31 -84.05 -31.65 -83.75 -33.1 -83.15 -33.45 -81.8 -33.8 -80.5 -33.1 -79.15 -32.9 -78.7 -32.55 -78.25 -31.65 -77.05 -29.1 -76.85 -27.35 -76.75 -26.15 -76.55 -24.95 -76.35 -24.25 -76.1 -22.05 -75.25 -21.85 -73.55
L -22.1 -72.05
Q -24.5 -71.55 -27.75 -71 -30.2 -70.6 -29.55 -68.05 -28.9 -65.5 -26.1 -64.3 -24 -63.4 -22.05 -66.25 -20.1 -69.15 -19.4 -68.85 -17.9 -68.2 -16.85 -66.15 -15.7 -63.95 -15.9 -61.6 -16.15 -58.2 -27.45 -56.25 -32.95 -55.9 -37.25 -55.55 -43.95 -55 -47.8 -53.65 -47.9 -53.65 -48 -53.6 -48.8 -53.3 -49.5 -53 -49.85 -52.85 -50.15 -52.65 -50.2 -52.65 -50.25 -52.6 -54 -50.55 -55.25 -45.95 -56.1 -42.8 -55.95 -37.15 -55.95 -36.65 -55.9 -36.1 -55.9 -35.6 -55.75 -35.1 -54.75 -31.35 -47.65 -28.2 -42.65 -26.05 -35.8 -24.55 -33.1 -23.95 -18.7 -24.15 -18.6 -24.15 -18.45 -24.15
L -18.1 -24.55
Q -17.5015625 -24.4939453125 -17.15 -24.45 -14.8 -24.15 -9.65 -23.3 -4.55 -22.45 -1.6 -18.7 0.6 -15.9 1.4 -11.75 3.5 -0.9 -8.3 6.25 -12.15 8.6 -18.65 7.95
L -24.4 7.3 -23.6 10.55 -21.55 10.75
Q -19.15 11 -17.15 11.35 -15.4 11.65 -11.85 10.6 -7.7 9.3 -6.15 9.2 -3.8 9.05 -0.9 5.4 0.65 3.45 2.7 0.35 4.25 -1.45 11.85 -6.65 17.05 -10.2 26.9 -9.6 29.25 -9.45 32.25 -7.5 36.05 -5.05 36.6 -4.35 37.15 -3.7 37.9 -2.25 38.65 -0.85 39.6 2.1 40.55 5 40.7 6.4 40.85 7.8 40.6 7.6 40.3 7.35 35.5 6.55 30.7 5.75 29.05 6.65 27.35 7.55 26.85 8.35 26.3 9.1 25.75 11.65 25.15 14.2 28.2 15.55 30.9 16.7 34.15 16.7 36.5 16.7 38.5 14.3 39.5 13.1 40.05 11.9
L 40.1 11.85
Q 41.4 10.8 41.75 10.85 42.05 10.9 42.4 11.4 43.55 12.9 44.75 18.2 46.25 25.6 46.5 26.4 46.85 27.4 46 31.05 45.75 32.15 45.6 33 44.95 35.8 44.9 36.05
L 43.55 44.65 45.95 51.35 49.45 54.55 52.65 59.4
Q 55 62.5 59.1 62.9 60.55 63.7 63.05 63.4 64.2 63.25 66.05 63 66.1 63 66.15 63 66.4 62.95 66.65 62.9 68.55 62.9 73.9 60.5
L 78.45 57.25
Q 81.65 56.5 82.75 57.8
L 82.45 62.9
Q 84.6 58.6 84.1 56.45 83.8 55.1 81.55 55.1 79.6 54.45 77.3 55.45 76.15 55.7 74.35 56.7 73.3 57.3 68.8 60.2 67.55 61.05 66.15 61.4 66 61.45 65.9 61.5 64.35 61.8 62.7 61.55 59.25 60.65 57.75 60.5 56.85 60.45 56 59.95 55.15 59.45 54.35 58.5
L 53.2 56.7
Q 52.75 55.4 52.4 54.9 53.1 55 54.7 55.15 58.2 55.4 62.05 50 63 48.7 60.95 47.55 59.1 46.5 56.95 46.5 55.4 46.5 53.65 49.45
L 52.15 52.4 48.65 50.55
Q 47.5 50 46.85 46.8 46.2 43.85 46.2 39.8 46.2 39.6 46.3 39.1 46.65 37.6 47.9 33.5 49.35 28.85 48.35 20.75 47.45 13.25 44.45 11.25 43.65 10.75 43.25 10.45 42.9 10.15 42.8 10 42.3 9.1 42.75 6.8 42.8 6.6 42.85 6.45 42.85 6.4 42.85 6.35
L 42.85 6.3
Q 42.85 6.15 42.9 6.05 43.45 2.1 41.65 -1.25 40.9 -2.7 39.25 -5.05
L 39.2 -5.1
Q 38.4 -6.3 37.35 -7.7 35.35 -11.05 27.6 -12.15 20.8 -13.2 15.9 -12 12.4 -11.15 8.05 -8.25
L 4.35 -5.55 4.3 -8.3
Q 4.25 -11.4 4.05 -13.1
M 56.35 49.25
Q 57.3 48.35 58.6 48.55 59.8 48.75 59.45 50.1 58.95 52.2 54.6 52.9 55.15 50.1 56.35 49.25
M 31.95 8.25
Q 34.35 7.8 38.25 10 33.2 15.8 30.35 14 27.5 12.15 28.6 10.3 29.85 8.45 31.95 8.25
M -27.45 -68.4
Q -26.85 -69.8 -25.6 -70.15 -24.15 -70.7 -21.7 -69.2 -24.8 -65.35 -26.75 -66.35 -28 -67 -27.45 -68.4 Z"/>
</g>

<g id="Duplicate_Items_Folder_vine_2_copy_2_0_Layer1_0_FILL">
<path fill="#283113" stroke="none" d="
M 3 -10.45
Q 2.8 -12.3 0.3 -16.05 -0.2 -16.8 -0.65 -17.45 -0.7 -17.5 -0.75 -17.55 -2.35 -19.75 -3.85 -21.4 -5.35 -23.1 -12.65 -24.3 -15.7138671875 -24.80703125 -17.65 -25.1
L -17.55 -25.15
Q -17.962890625 -25.1625 -18.35 -25.2 -20.2826171875 -25.4234375 -20.65 -25.35 -20.95390625 -25.29296875 -21.25 -25.25 -26.266015625 -25.4 -27.7 -25.4 -29.7 -25.4 -35.95 -25.85 -41.6 -26.2 -43.8 -26.45 -45.35 -26.6 -48.55 -28.35 -48.75 -28.5 -50.7 -30.15 -52.7 -31.8 -53.4 -32.7 -54.15 -33.65 -54.45 -34.45 -54.752734375 -35.300390625 -55.25 -37.35 -55.691796875 -39.34921875 -54.25 -43.15 -53.3 -44.45 -52.6 -45.75 -51.9 -46.95 -50.25 -48.2 -49.55 -48.7 -48.25 -49 -46.95 -49.35 -45.05 -49.5 -40.7 -49.65 -39.25 -49.8 -26.25 -50.9 -24.75 -50.65 -23.25 -50.45 -20.75 -51.7 -18.25 -52.95 -16.95 -53.9 -15.65 -54.9 -15.3 -56.75 -15.1 -57.8 -14.95 -58.55 -14.6 -60.15 -14.55 -60.3 -13.8 -61.95 -15.15 -64.2 -16.35 -66.25 -17.75 -66.75 -19.25 -67.2 -20 -67.45 -20.2 -67.55 -20.35 -67.6 -21.05 -67.95 -21.05 -68.3 -21.05 -68.6 -20.7 -68.9 -19.85 -69.6 -20.6 -71.85 -21 -73 -21.55 -74
L -25 -75.35 -29.05 -75.85 -32 -77.5 -32.25 -80.15 -29.85 -80.45 -29 -81.2
Q -28.65 -81.85 -31.2 -81.5 -32.05 -81.4 -32.7 -81.1 -34.15 -80.5 -34.5 -79.15 -34.85 -77.85 -34.15 -76.5 -33.95 -76.05 -33.6 -75.6 -32.7 -74.4 -30.15 -74.2 -28.4 -74.1 -27.2 -73.9 -26 -73.7 -25.3 -73.45 -23.1 -72.6 -22.9 -70.9
L -23.15 -69.4
Q -25.55 -68.9 -28.8 -68.35 -31.25 -67.95 -30.6 -65.4 -29.95 -62.85 -27.15 -61.65 -25.05 -60.75 -23.1 -63.6 -21.15 -66.5 -20.45 -66.2 -18.95 -65.55 -17.9 -63.5 -16.75 -61.3 -16.95 -58.95 -17.2 -55.55 -28.5 -53.6 -34 -53.25 -38.3 -52.9 -45 -52.35 -48.85 -51 -48.95 -51 -49.05 -50.95 -49.85 -50.65 -50.55 -50.35 -50.9 -50.2 -51.2 -50 -51.25 -50 -51.3 -49.95 -55.05 -47.9 -56.3 -43.3 -57.15 -40.15 -57 -34.5 -57 -34 -56.95 -33.45 -56.95 -32.95 -56.8 -32.45 -55.8 -28.7 -48.7 -25.55 -43.7 -23.4 -36.85 -21.9 -34.25 -21.3 -20.8 -21.45
L -20.9 -21.35
Q -18.8517578125 -21.8814453125 -18.2 -21.8 -15.85 -21.5 -10.7 -20.65 -5.6 -19.8 -2.65 -16.05 -0.45 -13.25 0.35 -9.1 2.45 1.75 -9.35 8.9 -13.2 11.25 -19.7 10.6
L -25.45 9.95 -24.65 13.2 -22.6 13.4
Q -20.2 13.65 -18.2 14 -16.45 14.3 -12.9 13.25 -8.75 11.95 -7.2 11.85 -4.85 11.7 -1.95 8.05 -0.4 6.1 1.65 3 3.2 1.2 10.8 -4 16 -7.55 25.85 -6.95 28.2 -6.8 31.2 -4.85 35 -2.4 35.55 -1.7 36.1 -1.05 36.85 0.4 37.6 1.8 38.55 4.75 39.5 7.65 39.65 9.05 39.8 10.45 39.55 10.25 39.25 10 34.45 9.2 29.65 8.4 28 9.3 26.3 10.2 25.8 11 25.25 11.75 24.7 14.3 24.1 16.85 27.15 18.2 29.85 19.35 33.1 19.35 35.45 19.35 37.45 16.95 38.45 15.75 39 14.55
L 39.05 14.5
Q 40.35 13.45 40.7 13.5 41 13.55 41.35 14.05 42.5 15.55 43.7 20.85 45.2 28.25 45.45 29.05 45.8 30.05 44.95 33.7 44.7 34.8 44.55 35.65 43.9 38.45 43.85 38.7
L 42.5 47.3 44.9 54 48.4 57.2 51.6 62.05
Q 53.95 65.15 58.05 65.55 59.5 66.35 62 66.05 63.15 65.9 65 65.65 65.05 65.65 65.1 65.65 65.35 65.6 65.6 65.55 67.5 65.55 72.85 63.15
L 77.4 59.9
Q 80.6 59.15 81.7 60.45
L 81.4 65.55
Q 83.55 61.25 83.05 59.1 82.75 57.75 80.5 57.75 78.55 57.1 76.25 58.1 75.1 58.35 73.3 59.35 72.25 59.95 67.75 62.85 66.5 63.7 65.1 64.05 64.95 64.1 64.85 64.15 63.3 64.45 61.65 64.2 58.2 63.3 56.7 63.15 55.8 63.1 54.95 62.6 54.1 62.1 53.3 61.15
L 52.15 59.35
Q 51.7 58.05 51.35 57.55 52.05 57.65 53.65 57.8 57.15 58.05 61 52.65 61.95 51.35 59.9 50.2 58.05 49.15 55.9 49.15 54.35 49.15 52.6 52.1
L 51.1 55.05 47.6 53.2
Q 46.45 52.65 45.8 49.45 45.15 46.5 45.15 42.45 45.15 42.25 45.25 41.75 45.6 40.25 46.85 36.15 48.3 31.5 47.3 23.4 46.4 15.9 43.4 13.9 42.6 13.4 42.2 13.1 41.85 12.8 41.75 12.65 41.25 11.75 41.7 9.45 41.75 9.25 41.8 9.1 41.8 9.05 41.8 9
L 41.8 8.95
Q 41.8 8.8 41.85 8.7 42.4 4.75 40.6 1.4 39.85 -0.05 38.2 -2.4
L 38.15 -2.45
Q 37.35 -3.65 36.3 -5.05 34.3 -8.4 26.55 -9.5 19.75 -10.55 14.85 -9.35 11.35 -8.5 7 -5.6
L 3.3 -2.9 3.25 -5.65
Q 3.2 -8.75 3 -10.45
M 29.3 16.65
Q 26.45 14.8 27.55 12.95 28.8 11.1 30.9 10.9 33.3 10.45 37.2 12.65 32.15 18.45 29.3 16.65
M 53.55 55.55
Q 54.1 52.75 55.3 51.9 56.25 51 57.55 51.2 58.75 51.4 58.4 52.75 57.9 54.85 53.55 55.55
M -27.8 -63.7
Q -29.05 -64.35 -28.5 -65.75 -27.9 -67.15 -26.65 -67.5 -25.2 -68.05 -22.75 -66.55 -25.85 -62.7 -27.8 -63.7 Z"/>
</g>

<g id="Duplicate_Items_Folder_vine_2_copy_2_0_Layer0_0_FILL">
<path fill="#809E3A" stroke="none" d="
M 3.25 -7.25
Q 3.2 -10.35 3 -12.05 2.8 -13.9 0.3 -17.65 -0.2 -18.4 -0.65 -19.05 -0.7 -19.1 -0.75 -19.15 -2.35 -21.35 -3.85 -23 -5.35 -24.7 -12.65 -25.9 -14.7732421875 -26.2513671875 -16.35 -26.5
L -17.5 -26.55
Q -17.3181640625 -26.7369140625 -18.4 -26.8 -20.2837890625 -27.0232421875 -20.65 -26.95 -20.9671875 -26.8904296875 -21.25 -26.85 -26.273046875 -27 -27.7 -27 -29.7 -27 -35.95 -27.45 -41.6 -27.8 -43.8 -28.05 -45.35 -28.2 -48.55 -29.95 -48.75 -30.1 -50.7 -31.75 -52.7 -33.4 -53.4 -34.3 -54.1576171875 -35.2423828125 -54.45 -36.1 -54.6912109375 -36.9630859375 -54.4 -40.15 -54.1087890625 -43.280078125 -53.5 -43.9 -53.3 -46.05 -52.6 -47.35 -51.9 -48.55 -50.25 -49.8 -49.55 -50.3 -48.25 -50.6 -46.95 -50.95 -45.05 -51.1 -40.7 -51.25 -39.25 -51.4 -26.25 -52.5 -24.75 -52.25 -23.25 -52.05 -20.75 -53.3 -18.25 -54.55 -16.95 -55.5 -15.65 -56.5 -15.3 -58.35 -15.1 -59.4 -14.95 -60.15 -14.6 -61.75 -14.55 -61.9 -13.8 -63.55 -15.15 -65.8 -16.35 -67.85 -17.75 -68.35 -19.25 -68.8 -20 -69.05 -20.2 -69.15 -20.35 -69.2 -21.05 -69.55 -21.05 -69.9 -21.05 -70.2 -20.7 -70.5 -19.85 -71.2 -20.6 -73.45 -21 -74.6 -21.55 -75.6
L -25 -76.95 -29.05 -77.45 -32 -79.1 -32.25 -81.75 -29.85 -82.05 -29 -82.8
Q -28.65 -83.45 -31.2 -83.1 -32.05 -83 -32.7 -82.7 -34.15 -82.1 -34.5 -80.75 -34.85 -79.45 -34.15 -78.1 -33.95 -77.65 -33.6 -77.2 -32.7 -76 -30.15 -75.8 -28.4 -75.7 -27.2 -75.5 -26 -75.3 -25.3 -75.05 -23.1 -74.2 -22.9 -72.5
L -23.15 -71
Q -25.55 -70.5 -28.8 -69.95 -31.25 -69.55 -30.6 -67 -29.95 -64.45 -27.15 -63.25 -25.05 -62.35 -23.1 -65.2 -21.15 -68.1 -20.45 -67.8 -18.95 -67.15 -17.9 -65.1 -16.75 -62.9 -16.95 -60.55 -17.2 -57.15 -28.5 -55.2 -34 -54.85 -38.3 -54.5 -45 -53.95 -48.85 -52.6 -48.95 -52.6 -49.05 -52.55 -49.85 -52.25 -50.55 -51.95 -50.9 -51.8 -51.2 -51.6 -51.25 -51.6 -51.3 -51.55 -55.05 -49.5 -56.3 -44.9 -57.15 -41.75 -57 -36.1 -57 -35.6 -56.95 -35.05 -56.95 -34.55 -56.8 -34.05 -55.8 -30.3 -48.7 -27.15 -43.7 -25 -36.85 -23.5 -34.15 -22.9 -19.75 -23.1 -19.6498046875 -23.1 -17.15 -23.05 -17.23515625 -23.07578125 -17.35 -23.1 -16.7453125 -23.1 -16.05 -23.1 -13.9244140625 -22.7822265625 -10.7 -22.25 -5.6 -21.4 -2.65 -17.65 -0.45 -14.85 0.35 -10.7 2.45 0.15 -9.35 7.3 -13.2 9.65 -19.7 9
L -25.45 8.35 -24.65 11.6 -22.6 11.8
Q -20.2 12.05 -18.2 12.4 -16.45 12.7 -12.9 11.65 -8.75 10.35 -7.2 10.25 -4.85 10.1 -1.95 6.45 -0.4 4.5 1.65 1.4 3.2 -0.4 10.8 -5.6 16 -9.15 25.85 -8.55 28.2 -8.4 31.2 -6.45 35 -4 35.55 -3.3 36.1 -2.65 36.85 -1.2 37.6 0.2 38.55 3.15 39.5 6.05 39.65 7.45 39.8 8.85 39.55 8.65 39.25 8.4 34.45 7.6 29.65 6.8 28 7.7 26.3 8.6 25.8 9.4 25.25 10.15 24.7 12.7 24.1 15.25 27.15 16.6 29.85 17.75 33.1 17.75 35.45 17.75 37.45 15.35 38.45 14.15 39 12.95
L 39.05 12.9
Q 40.35 11.85 40.7 11.9 41 11.95 41.35 12.45 42.5 13.95 43.7 19.25 45.2 26.65 45.45 27.45 45.8 28.45 44.95 32.1 44.7 33.2 44.55 34.05 43.9 36.85 43.85 37.1
L 42.5 45.7 44.9 52.4 48.4 55.6 51.6 60.45
Q 53.95 63.55 58.05 63.95 59.5 64.75 62 64.45 63.15 64.3 65 64.05 65.05 64.05 65.1 64.05 65.35 64 65.6 63.95 67.5 63.95 72.85 61.55
L 77.4 58.3
Q 80.6 57.55 81.7 58.85
L 81.4 63.95
Q 83.55 59.65 83.05 57.5 82.75 56.15 80.5 56.15 78.55 55.5 76.25 56.5 75.1 56.75 73.3 57.75 72.25 58.35 67.75 61.25 66.5 62.1 65.1 62.45 64.95 62.5 64.85 62.55 63.3 62.85 61.65 62.6 58.2 61.7 56.7 61.55 55.8 61.5 54.95 61 54.1 60.5 53.3 59.55
L 52.15 57.75
Q 51.7 56.45 51.35 55.95 52.05 56.05 53.65 56.2 57.15 56.45 61 51.05 61.95 49.75 59.9 48.6 58.05 47.55 55.9 47.55 54.35 47.55 52.6 50.5
L 51.1 53.45 47.6 51.6
Q 46.45 51.05 45.8 47.85 45.15 44.9 45.15 40.85 45.15 40.65 45.25 40.15 45.6 38.65 46.85 34.55 48.3 29.9 47.3 21.8 46.4 14.3 43.4 12.3 42.6 11.8 42.2 11.5 41.85 11.2 41.75 11.05 41.25 10.15 41.7 7.85 41.75 7.65 41.8 7.5 41.8 7.45 41.8 7.4
L 41.8 7.35
Q 41.8 7.2 41.85 7.1 42.4 3.15 40.6 -0.2 39.85 -1.65 38.2 -4
L 38.15 -4.05
Q 37.35 -5.25 36.3 -6.65 34.3 -10 26.55 -11.1 19.75 -12.15 14.85 -10.95 11.35 -10.1 7 -7.2
L 3.3 -4.5 3.25 -7.25
M 30.9 9.3
Q 33.3 8.85 37.2 11.05 32.15 16.85 29.3 15.05 26.45 13.2 27.55 11.35 28.8 9.5 30.9 9.3
M 57.55 49.6
Q 58.75 49.8 58.4 51.15 57.9 53.25 53.55 53.95 54.1 51.15 55.3 50.3 56.25 49.4 57.55 49.6
M -27.8 -65.3
Q -29.05 -65.95 -28.5 -67.35 -27.9 -68.75 -26.65 -69.1 -25.2 -69.65 -22.75 -68.15 -25.85 -64.3 -27.8 -65.3
M -18.2 -23.4
Q -17.9275390625 -23.365234375 -17.65 -23.35
L -17.75 -23.25 -18.2 -23.4 Z"/>
</g>

<g id="Duplicate_Items_Folder_pumpkin_3_copy_5_0_Layer4_0_FILL">
<path fill="#000000" stroke="none" d="
M 16.95 -12.55
Q 16.2005859375 -12.7880859375 14.7 -14 14.5525390625 -14.115625 14.35 -14.2 12.5322265625 -14.915234375 9.55 -15.9 10.1904296875 -16.759375 10.35 -17.4 11.8486328125 -20.46015625 6.55 -22.45 6.2466796875 -22.5953125 5.8 -22.75 5.78828125 -22.738671875 5.75 -22.75 5.4560546875 -22.844140625 5.25 -22.9 3.2255859375 -23.46015625 1.65 -23.45 -1.126953125 -23.4517578125 -2.3 -21.95
L -2.2 -22
Q -3.0041015625 -21.246875 -3.05 -20.05 -3.1421875 -19.0677734375 -2.65 -17.85
L -2.7 -17.95
Q -2.5302734375 -17.500390625 -2.45 -17.15 -3.4919921875 -17.2001953125 -4.75 -17.2
L -4.8 -17.2
Q -6.618359375 -17.2419921875 -8.7 -16.8 -9.4240234375 -16.9583984375 -10.85 -17 -14.96953125 -17.206640625 -18.4 -15.2 -22.336328125 -14.2962890625 -25.65 -10.9 -30.0859375 -6.3080078125 -31.45 1.05 -31.4333984375 1.122265625 -31.45 1.15 -31.6421875 1.9505859375 -31.75 2.85
L -31.75 2.9
Q -32.3841796875 9.09375 -29.65 14.4
L -29.65 14.4
Q -27.7560546875 18.15078125 -24.4 19.8 -20.9763671875 23.1203125 -15.3 23.95 -15.1630859375 23.995703125 -15.05 24 -14.5087890625 23.9994140625 -13.85 24.15 -13.712109375 24.1876953125 -13.6 24.2 -11.1576171875 24.307421875 -8.95 24.1 -8.5689453125 24.064453125 -8.25 23.85 -5.3529296875 21.8765625 -3 23.05
L -2.95 23.05
Q 0.0796875 24.63671875 1.7 26.05 2.0400390625 26.3130859375 2.45 26.35 4.0212890625 26.64140625 5.75 26.75 12.5943359375 27.17109375 17.9 24.85 19.73828125 24.2642578125 21.6 22.9 21.793359375 22.7984375 21.9 22.6 21.9986328125 22.5841796875 22.05 22.5 28.742578125 17.3818359375 29.55 9.2 29.5578125 9.0859375 29.55 8.95 29.50078125 7.8673828125 29.5 7.05
L 29.5 7
Q 29.39375 4.0099609375 28.45 1.4 27.7708984375 -2.8275390625 25.8 -6.2
L 25.8 -6.2
Q 22.428515625 -12.320703125 16.95 -12.55 Z"/>
</g>

<g id="Duplicate_Items_Folder_pumpkin_3_copy_5_0_Layer3_0_FILL">
<path fill="url(#Gradient_1)" stroke="none" d="
M 16.85 -11.05
Q 15.8 -11.2 13.8 -12.8 11.65 -13.65 7.85 -14.85 7.1 -15.15 6.45 -15.1 3.55 -15.3 2 -11.85 -0.115625 -15.484375 -1.55 -15.6 -2.93828125 -15.71171875 -4.8 -15.75 -6.65390625 -15.74609375 -8.8 -15.25 -9.15 -15.45 -10.9 -15.5 -14.7 -15.7 -17.85 -13.75 -21.5 -13 -24.55 -9.85 -28.7 -5.55 -29.95 1.35
L -29.95 1.4
Q -30.15 2.15 -30.25 3.05 -30.85 8.8 -28.3 13.75 -26.6 17.1 -23.55 18.55 -20.4 21.7 -15.05 22.5 -14.35 22.5 -13.5 22.7 -11.2 22.8 -9.1 22.6 -5.35 20.05 -2.25 21.75 0.95 23.4 2.7 24.9 4.2 25.15 5.85 25.25 12.3 25.65 17.3 23.5 19 22.95 20.75 21.7 20.9 21.45 21.15 21.35 27.3 16.6 28.05 9.05 28 7.9 28 7.05 27.9 4.3 27.05 1.9 26.4 -2.2 24.5 -5.45 21.55 -10.8 16.85 -11.05 Z"/>
</g>

<g id="Duplicate_Items_Folder_pumpkin_3_copy_5_0_Layer2_0_FILL">
<path fill="url(#Gradient_2)" stroke="none" d="
M -2.85 -6.95
Q -4.25 -6.55 -8.8 -10.1 -13.35 -13.05 -21.15 -5.55 -22.85 -2.95 -23.7 0.55 -23.95 1.2 -24 1.95 -25.35 7.75 -23.35 12.9 -21.15 18.7 -16 20.2 -10.8 21.8 -7.45 17.95 -4.2 13.8 -2.6 6.7 -2.3 5.3 -2.1 4.05 -1.2 -1.55 -1.35 -4.35 -1.75 -7.3 -2.85 -6.95 Z"/>

<path fill="#FCBA6E" stroke="none" d="
M -15.1 -11.6
Q -16.3 -10.8 -17.15 -9.95 -19.65 -8.2 -21.15 -5.55 -13.35 -13.05 -8.8 -10.1 -8.4 -11.8 -11.15 -12.2 -14 -12.6 -15.1 -11.6
M -13 -13.6
Q -13.45 -13.65 -14.4 -13.75 -16 -13.85 -18.8 -12.1 -19.55 -11.7 -20.3 -11.15 -16.405859375 -12.69765625 -16.95 -11.6 -16.89765625 -11.69921875 -16.75 -11.65 -15.2 -12.6 -13 -13.6
M 16.6 -7.95
Q 15.4 -9.3 18.65 -8.15 15.85 -10.45 14.25 -10.4 13.15 -10.6 12.7 -10.5 14.9 -9.3 16.6 -7.95
M 11.35 -8.95
Q 12.3 -9.35 15.05 -7.8 14.2 -10.05 12.2 -9.25 11.7 -9.15 11.35 -8.95 Z"/>

<path fill="url(#Gradient_3)" stroke="none" d="
M -21.7 -9.95
Q -26.55 -6.3 -27.8 -0.25 -28.05 0.55 -28.1 1.55 -28.95 6.4 -27.9 10.75 -26.75 15.75 -23.6 17 -22.85 17.15 -22.1 17.3 -24.2 15.55 -25.1 11.75 -26.25 7.15 -25.25 1.85 -25.1 1.25 -24.9 0.7 -23.7 -5.35 -20.55 -8.85 -19.35 -10.2 -16.95 -11.6 -16.405859375 -12.69765625 -20.3 -11.15 -21 -10.65 -21.7 -9.95 Z"/>

<path fill="url(#Gradient_4)" stroke="none" d="
M 18.65 -8.15
Q 15.4 -9.3 16.6 -7.95 18.7 -6.45 19.7 -4.9 22.35 -0.95 22.6 5.3 22.6 5.9 22.65 6.55 22.65 11.95 20.55 16.35 18.75 19.75 16.15 20.9 16.85 21.05 17.75 20.9 21.4 20.7 23.9 16 25.85 11.9 26.1 6.9 26 5.9 25.95 4.95 25.7 -1.35 21.15 -5.95 19.75 -7.3 18.65 -8.15 Z"/>

<path fill="url(#Gradient_5)" stroke="none" d="
M 0.5 -5.4
Q 0.35 -5.35 0.45 -5.15 -0.7 -1.15 -0.8 4.2 -0.9 5.35 -0.75 6.65 -0.7 13.3 1.65 17.75 3.95 22.05 9.4 22.1 14.85 22 18.35 16.9 21.5 12.3 21.4 6.4 21.4 5.55 21.4 4.9 20.7 -2.05 16.4 -6.55 15.7 -7.35 15.05 -7.8 12.3 -9.35 11.35 -8.95 11 -8.95 11 -8.65 7.05 -5.2 4.25 -5.1 1.4 -5.15 1.15 -5.1 0.9 -5.2 0.5 -5.4 Z"/>
</g>

<g id="Duplicate_Items_Folder_pumpkin_3_copy_5_0_Layer1_0_FILL">
<path fill="#000000" stroke="none" d="
M 5 -13.05
Q 5.5 -13.8 7.15 -15.45 7.65 -15.95 8 -16.3 8.75 -17.25 8.95 -17.85 9.65 -19.7 5.95 -21.05 5.7 -21.2 5.35 -21.3 5.05 -21.4 4.85 -21.45 3.05 -21.95 1.65 -21.95 -0.3 -21.95 -1.15 -20.95 -1.55 -20.55 -1.55 -19.9 -1.6 -19.25 -1.25 -18.4 -0.45 -16.05 -0.45 -15.7 -0.45 -14.75 -1.35 -12.55
L -2.25 -10.6 0.55 -9.1 3.6 -10.45 3.95 -11.1
Q 4.45 -12 5 -13.05 Z"/>
</g>

<g id="Duplicate_Items_Folder_pumpkin_3_copy_5_0_Layer0_0_FILL">
<path fill="#809E3A" stroke="none" d="
M -1.55 -19.9
Q -1.6 -19.25 -1.25 -18.4 -0.45 -16.05 -0.45 -15.7 -0.45 -14.75 -1.35 -12.55
L -2.25 -10.6 -0.5 -9.65 2.85 -16.8
Q -0.1 -17.65 -1.55 -19.9 Z"/>

<path fill="#5A6F2B" stroke="none" d="
M 5.95 -21.05
Q 5.7 -21.2 5.35 -21.3 5.05 -21.4 4.85 -21.45 3.05 -21.95 1.65 -21.95 -0.3 -21.95 -1.15 -20.95 -1.55 -20.55 -1.55 -19.9 -0.1 -17.65 2.85 -16.8
L -0.5 -9.65 0.55 -9.1 3.6 -10.45 3.95 -11.1
Q 4.45 -12 5 -13.05 5.5 -13.8 7.15 -15.45 7.65 -15.95 8 -16.3 8.75 -17.25 8.95 -17.85 9.65 -19.7 5.95 -21.05
M 5.55 -20.5
Q 6.75 -20.05 7.45 -19.4 8.4 -18.6 8.05 -17.9 7.7 -17.25 6.3 -17.15 4.85 -17.05 3.2 -17.5 1.45 -18.1 0.45 -18.9 -0.5 -19.8 -0.25 -20.45 0.1 -21.05 1.6 -21.25 3 -21.35 4.7 -20.8 5.15 -20.7 5.55 -20.5 Z"/>

<path fill="#516325" stroke="none" d="
M 7.45 -19.4
Q 6.75 -20.05 5.55 -20.5 5.15 -20.7 4.7 -20.8 3 -21.35 1.6 -21.25 0.1 -21.05 -0.25 -20.45 -0.5 -19.8 0.45 -18.9 1.45 -18.1 3.2 -17.5 4.85 -17.05 6.3 -17.15 7.7 -17.25 8.05 -17.9 8.4 -18.6 7.45 -19.4 Z"/>
</g>

<g id="Duplicate_Items_Folder_vine_1_copy_2_0_Layer3_0_FILL">
<path fill="#000000" stroke="none" d="
M 25.9 -25.75
Q 26.1271484375 -25.6091796875 26.35 -25.45 32.5 -19.7 35 -14.5
L 36.9 -9.2 37.5 -9.9 37.95 -8.6 40 -10.95 35.3 -19.2
Q 33.177734375 -22.3833984375 31.2 -24.5 27.1798828125 -29.330078125 23.8 -29.85 16.25 -31.05 12.15 -30.15 5.85 -28.8 5.3 -22.65 4.75 -12.3 4.25 -7.65 3.40859375 -0.387890625 1.95 0.8
L 0.5 -4.25
Q -0.41328125 -7.4134765625 -2.25 -8.4 -3.6671875 -10.380078125 -6 -10.15 -10.8 -9.7 -12.55 -5.9 -14.082421875 -2.7203125 -12.2 -0.6 -11.5603515625 0.5591796875 -10.15 1.45 -8.974609375 2.1923828125 -7.9 2.75 -4.865234375 4.57890625 -2.6 5.25
L -2.1 5.3
Q -2.173828125 6.1603515625 -2.4 7.15 -3.25 10.55 -5.25 12.35 -8.55 15.25 -10.55 16.5 -13.85 18.5 -16.5 18.4 -19.85 18.3 -23.35 17 -23.89609375 16.7923828125 -24.35 16.55 -25.013671875 15.631640625 -24.9 14.45 -24.65 11.85 -23.55 11.95 -22.45 12.05 -21.85 11.5
L -21.5 10.9 -23.15 11.05
Q -23.01171875 11.0025390625 -22.9 10.9
L -22.55 10.3 -24.35 10.5
Q -23.8646484375 10.38828125 -23.55 10.1
L -23.2 9.5 -26.85 9.9
Q -28.5 10.85 -28.7 13.7 -28.95 16.2 -27.4 18.05 -27.2609375 18.169921875 -27.15 18.25 -26.9310546875 18.5744140625 -26.7 18.85 -25.4119140625 19.960546875 -24.15 20.6 -21.9705078125 21.9896484375 -19.8 22.1 -18.95 22.35 -17.8 22.45 -15.45 22.7 -13.55 22.15 -11.65 21.6 -9.75 20.85 -7.9 20.1 -5.8 19.25 -3.75 18.4 -0.7 13.6 2.3 8.8 1.9 7.3 1.5 5.75 4.45 3.8 7.4 1.75 7.35 -0.3 7.3 -2.4 7.95 -11.15 8.6 -19.85 8.9 -21.3 9.2 -22.8 11.25 -24.9 13.3 -27 16 -26.6 20.7 -27.5 23.2 -26.8 24.673046875 -26.3791015625 25.9 -25.75
M -8.8 -0.65
Q -8.8294921875 -0.7013671875 -8.85 -0.75 -9.5 -2.3 -8.9 -3.8 -8.25 -5.3 -6.35 -6.15 -5.080859375 -6.7177734375 -3.8 -6.2 -3.7037109375 -6.1345703125 -3.6 -6.05 -2.808984375 -5.4046875 -2.3 -4.7 -1.975 -4.04609375 -1.85 -3.35 -1.55 -1.4 -1.15 1.55
L -5.95 0.65
Q -7.7171875 -0.02109375 -8.8 -0.65
M -25.3 10.55
Q -25.10234375 10.5671875 -24.95 10.55
L -25.8 10.65
Q -25.5693359375 10.5255859375 -25.3 10.55 Z"/>
</g>

<g id="Duplicate_Items_Folder_vine_1_copy_2_0_Layer2_0_FILL">
<path fill="#D2E0AF" stroke="none" d="
M 21.9 -28.2
Q 24.35 -27.5 26.1 -26.25 32.35 -20.5 34.85 -15.3
L 36.75 -10 38.85 -12.35 34.1 -20.6
Q 28.35 -29.15 23.8 -29.85 16.25 -31.05 12.15 -30.15 5.85 -28.8 5.3 -22.65 4.75 -12.3 4.25 -7.65 3.3 0.55 1.6 1 1.15 1.1 1 1.1 0.9 1.1 0.85 0.75 0.8 0.4 0.7 0.15
L -1 -5.65
Q -2.45 -10.5 -6 -10.15 -10.8 -9.7 -12.55 -5.9 -14.55 -1.75 -10.7 0.65 -6.85 3.05 -4.15 3.85
L -2 4.05
Q -2 5.4 -2.4 7.15 -3.25 10.55 -5.25 12.35 -8.55 15.25 -10.55 16.5 -13.85 18.5 -16.5 18.4 -19.85 18.3 -23.35 17 -26.9 15.65 -26.65 13.05 -26.4 10.45 -25.3 10.55 -24.15 10.65 -23.55 10.1
L -23.2 9.5 -26.85 9.9
Q -28.5 10.85 -28.7 13.7 -28.95 16.2 -27.4 18.05 -24.5 20.55 -21.5 20.7 -20.65 20.95 -19.5 21.05 -17.1 21.3 -15.2 20.75 -13.3 20.2 -11.35 19.45 -9.5 18.7 -7.35 17.85 -5.3 17 -2.25 12.2 0.8 7.4 0.4 5.9 0 4.35 2.95 2.4 5.95 0.35 5.9 -1.7 5.85 -3.8 6.5 -12.55 7.15 -21.25 7.45 -22.7 7.75 -24.2 9.85 -26.3 11.9 -28.4 14.6 -28 19.35 -28.9 21.9 -28.2
M -4.1 -6.85
Q -2.2 -5.3 -1.85 -3.35 -1.55 -1.4 -1.15 1.55
L -5.95 0.65
Q -9.9 -0.85 -10.45 -2.15 -11.1 -3.7 -10.5 -5.2 -9.85 -6.7 -7.95 -7.55 -6 -8.4 -4.1 -6.85 Z"/>
</g>

<g id="Duplicate_Items_Folder_vine_1_copy_2_0_Layer1_0_FILL">
<path fill="#283113" stroke="none" d="
M 23.2 -26.8
Q 25.65 -26.1 27.4 -24.85 33.55 -19.1 36.05 -13.9
L 37.95 -8.6 40 -10.95 35.3 -19.2
Q 29.6 -27.75 25.1 -28.45 17.6 -29.65 13.55 -28.75 7.3 -27.4 6.75 -21.25 6.2 -10.9 5.7 -6.25 4.8 1.95 3.1 2.4 2.65 2.5 2.5 2.5 2.4 2.5 2.35 2.15 2.3 1.8 2.2 1.55
L 0.5 -4.25
Q -0.9 -9.1 -4.45 -8.75 -9.2 -8.3 -10.95 -4.5 -12.9 -0.35 -9.1 2.05 -5.3 4.45 -2.6 5.25
L -0.45 5.45
Q -0.45 6.8 -0.85 8.55 -1.7 11.95 -3.7 13.75 -6.95 16.65 -8.95 17.9 -12.2 19.9 -14.85 19.8 -18.15 19.7 -21.65 18.4 -25.15 17.05 -24.9 14.45 -24.65 11.85 -23.55 11.95 -22.45 12.05 -21.85 11.5
L -21.5 10.9 -25.1 11.3
Q -26.75 12.25 -26.95 15.1 -27.2 17.6 -25.65 19.45 -22.75 21.95 -19.8 22.1 -18.95 22.35 -17.8 22.45 -15.45 22.7 -13.55 22.15 -11.65 21.6 -9.75 20.85 -7.9 20.1 -5.8 19.25 -3.75 18.4 -0.7 13.6 2.3 8.8 1.9 7.3 1.5 5.75 4.45 3.8 7.4 1.75 7.35 -0.3 7.3 -2.4 7.95 -11.15 8.6 -19.85 8.9 -21.3 9.2 -22.8 11.25 -24.9 13.3 -27 16 -26.6 20.7 -27.5 23.2 -26.8
M -2.55 -5.45
Q -0.65 -3.9 -0.35 -1.95 -0.05 0 0.35 2.95
L -4.4 2.05
Q -8.3 0.55 -8.85 -0.75 -9.5 -2.3 -8.9 -3.8 -8.25 -5.3 -6.35 -6.15 -4.45 -7 -2.55 -5.45 Z"/>
</g>

<g id="Duplicate_Items_Folder_vine_1_copy_2_0_Layer0_0_FILL">
<path fill="#809E3A" stroke="none" d="
M 22.15 -27.4
Q 24.6 -26.7 26.35 -25.45 32.5 -19.7 35 -14.5
L 36.9 -9.2 38.95 -11.55 34.25 -19.8
Q 28.55 -28.35 24.05 -29.05 16.55 -30.25 12.5 -29.35 6.25 -28 5.7 -21.85 5.15 -11.5 4.65 -6.85 3.75 1.35 2.05 1.8 1.6 1.9 1.45 1.9 1.35 1.9 1.3 1.55 1.25 1.2 1.15 0.95
L -0.55 -4.85
Q -1.95 -9.7 -5.5 -9.35 -10.25 -8.9 -12 -5.1 -13.95 -0.95 -10.15 1.45 -6.35 3.85 -3.65 4.65
L -1.5 4.85
Q -1.5 6.2 -1.9 7.95 -2.75 11.35 -4.75 13.15 -8 16.05 -10 17.3 -13.25 19.3 -15.9 19.2 -19.2 19.1 -22.7 17.8 -26.2 16.45 -25.95 13.85 -25.7 11.25 -24.6 11.35 -23.5 11.45 -22.9 10.9
L -22.55 10.3 -26.15 10.7
Q -27.8 11.65 -28 14.5 -28.25 17 -26.7 18.85 -23.8 21.35 -20.85 21.5 -20 21.75 -18.85 21.85 -16.5 22.1 -14.6 21.55 -12.7 21 -10.8 20.25 -8.95 19.5 -6.85 18.65 -4.8 17.8 -1.75 13 1.25 8.2 0.85 6.7 0.45 5.15 3.4 3.2 6.35 1.15 6.3 -0.9 6.25 -3 6.9 -11.75 7.55 -20.45 7.85 -21.9 8.15 -23.4 10.2 -25.5 12.25 -27.6 14.95 -27.2 19.65 -28.1 22.15 -27.4
M -3.6 -6.05
Q -1.7 -4.5 -1.4 -2.55 -1.1 -0.6 -0.7 2.35
L -5.45 1.45
Q -9.35 -0.05 -9.9 -1.35 -10.55 -2.9 -9.95 -4.4 -9.3 -5.9 -7.4 -6.75 -5.5 -7.6 -3.6 -6.05 Z"/>
</g>

<g id="Duplicate_Items_Folder_leaf_2_copy_2_0_Layer3_0_FILL">
<path fill="#000000" stroke="none" d="
M 13.7 -0.75
Q 12.95 -3.15 8.9 -5.9 6.6 -7.5 1.9 -10.35 -0.65 -12.15 -4.2 -11.4 -6 -11.05 -7.25 -10.35
L -6.25 -9.6
Q -6.7841796875 -9.3607421875 -7.25 -9.1
L -6.05 -8.15
Q -6.6875 -7.91484375 -7.25 -7.6
L -6.8 -7.25
Q -7.22109375 -7.25 -7.7 -7.25 -11 -7.25 -14.5 -3.25 -16.25 -1.3 -17.35 0.7 -17.065234375 0.8095703125 -16.7 0.85 -17.0509765625 1.4060546875 -17.35 1.95 -17.0052734375 2.0826171875 -16.55 2.15 -16.9876953125 2.7912109375 -17.35 3.45 -16.05 3.95 -13.2 3.35
L -10.85 2.8 -11.1 6.5 -11 6.4 -11.1 7.75 -11 7.65 -11.1 9.25 -4.85 4.15 -2.15 11.4 2.4 3.95
Q 7.6 8.7 7.7 15
L 10.8 13.1 15.15 19.6
Q 15.1380859375 18.81328125 15.1 18.05
L 15.15 18.1
Q 15.1380859375 17.4439453125 15.1 16.8
L 15.15 16.85
Q 15.05 10.25 14.7 5.95 14.35 1.25 13.7 -0.75 Z"/>
</g>

<g id="Duplicate_Items_Folder_leaf_2_copy_2_0_Layer2_0_FILL">
<path fill="#484F39" stroke="none" d="
M 8.9 -3.15
Q 6.6 -4.75 1.9 -7.6 -0.65 -9.4 -4.2 -8.65 -6 -8.3 -7.25 -7.6
L -3.85 -5 -3.8 -4.75
Q -4.4 -4.5 -7.7 -4.5 -11 -4.5 -14.5 -0.5 -16.25 1.45 -17.35 3.45 -16.05 3.95 -13.2 3.35
L -10.6 2.75 -11.1 9.25 -4.85 4.15 -2.15 11.4 2.4 3.95
Q 7.6 8.7 7.7 15
L 10.8 13.1 15.15 19.6
Q 15.05 13 14.7 8.7 14.35 4 13.7 2 12.95 -0.4 8.9 -3.15 Z"/>
</g>

<g id="Duplicate_Items_Folder_leaf_2_copy_2_0_Layer1_0_FILL">
<path fill="#D2E0AF" stroke="none" d="
M 13.7 -0.75
Q 12.95 -3.15 8.9 -5.9 6.6 -7.5 1.9 -10.35 -0.65 -12.15 -4.2 -11.4 -6 -11.05 -7.25 -10.35
L -3.85 -7.75 -3.8 -7.5
Q -4.4 -7.25 -7.7 -7.25 -11 -7.25 -14.5 -3.25 -16.25 -1.3 -17.35 0.7 -16.05 1.2 -13.2 0.6
L -10.6 0 -11.1 6.5 -4.85 1.4 -2.15 8.65 2.4 1.2
Q 7.6 5.95 7.7 12.25
L 10.8 10.35 15.15 16.85
Q 15.05 10.25 14.7 5.95 14.35 1.25 13.7 -0.75 Z"/>
</g>

<g id="Duplicate_Items_Folder_leaf_2_copy_2_0_Layer0_0_FILL">
<path fill="#6F8833" stroke="none" d="
M 14.7 7.2
L 11.55 0.5
Q 4.8 -3.1369140625 -1.95 -2.4 -7.2318359375 -2.351171875 -10.65 1.45
L -11.1 7.75 -4.85 2.65 -2.15 9.9 2.4 2.45
Q 7.5841796875 7.1884765625 7.7 13.5
L 10.8 11.6 15.15 18.1
Q 15.0302734375 11.5142578125 14.7 7.2 Z"/>

<path fill="#88A73F" stroke="none" d="
M -4.2 -10.15
Q -6 -9.8 -7.25 -9.1
L -3.85 -6.5 -3.8 -6.25
Q -4.4 -6 -7.7 -6 -11 -6 -14.5 -2 -16.25 -0.05 -17.35 1.95 -16.05 2.45 -13.2 1.85
L -10.6 1.25 -10.65 1.45
Q -7.2318359375 -2.351171875 -1.95 -2.4 4.8 -3.1369140625 11.55 0.5
L 14.7 7.2
Q 14.3251953125 2.5060546875 13.7 0.5 12.95 -1.9 8.9 -4.65 6.6 -6.25 1.9 -9.1 -0.65 -10.9 -4.2 -10.15 Z"/>
</g>

<g id="Duplicate_Items_Folder_leaf_1_copy_2_0_Layer3_0_FILL">
<path fill="#000000" stroke="none" d="
M 5.25 -25.8
L 5.15 -25.75 4.25 -27.05 -2.75 -20.1 -2.85 -20.2 -2.9 -19.95 -2.95 -19.85 -5.35 -22.7 -6.15 -13.95 -6.25 -14.2 -7 -13.75 -7.75 -15.45 -8.1 -15.25 -8.75 -16.7 -10.9 -15.25 -17.15 -16 -17.9 -8.05 -23.65 -3.95 -21.6 -3.45 -22.65 -2.7 -20.25 -2.1 -21.15 -1.45 -18.2 -0.7 -17.9 0.15 -17.3 0.25 -16.9 1.4 -15.75 1.55 -15.4 2.65 -13.25 3 -13.05 4.25 -12.25 4.05 -12.05 5.5 -10.8 5.2 -10.55 6.75 -4.75 5.5 -7.7 16.9 -7.3 17 -5.85 20.15 -5.75 19.5 -4.85 21.4 -4.55 20 -3.35 22.65 0.5 4.6 0.55 4.6 1.05 4.75 2.8 12.45 3.6 12.75 3.8 13.7 5.1 14.2 5.3 14.95 14.95 18.55 16.15 11.3 24.35 6.75 21.75 4.3 21.85 4.25 19.3 1.8 19.3 -1.45 17.8 -1.4 17.8 -2.7 16.8 -2.7 16.8 -3.95 16.35 -3.95 20 -5.55 19.75 -16.6 18.25 -17.05 18.25 -17.85 17.25 -18.15 17.25 -19.1 17.15 -19.15 17.6 -28.4 15.95 -27.1 16.1 -29.65 15 -28.8 15.1 -30.9 6.9 -24.3 6.75 -24.55 6.35 -24.2 5.25 -25.8 Z"/>
</g>

<g id="Duplicate_Items_Folder_leaf_1_copy_2_0_Layer2_0_FILL">
<path fill="#50573F" stroke="none" d="
M 20 -5.55
L 19.75 -16.6 17.1 -17.35 17.6 -28.4 8.95 -21.4 6.75 -24.55 -0.45 -17.35 -2.85 -20.2 -3.85 -8.9 -6.25 -14.2 -8.4 -12.75 -14.65 -13.5 -15.4 -5.55 -21.15 -1.45 -16.35 -0.25 -15.4 2.65 -11.05 3.35 -10.55 6.75 -1.4 4.8 -5.2 19.4 -4.8 19.5 -3.35 22.65 0.5 4.6 0.55 4.6 3.15 5.3 5.3 14.95 14.95 18.55 16.15 11.3 24.35 6.75 19.3 1.95 19.3 -1.45 10.15 -1.2 20 -5.55 Z"/>
</g>

<g id="Duplicate_Items_Folder_leaf_1_copy_2_0_Layer1_0_FILL">
<path fill="#D2E0AF" stroke="none" d="
M 15.1 -30.9
L 6.45 -23.9 4.25 -27.05 -2.95 -19.85 -5.35 -22.7 -6.35 -11.4 -8.75 -16.7 -10.9 -15.25 -17.15 -16 -17.9 -8.05 -23.65 -3.95 -18.85 -2.75 -17.9 0.15 -13.55 0.85 -13.05 4.25 -3.9 2.3 -7.7 16.9 -7.3 17 -5.85 20.15 -2 2.1 -1.95 2.1 0.65 2.8 2.8 12.45 12.45 16.05 13.65 8.8 21.85 4.25 16.8 -0.55 16.8 -3.95 7.65 -3.7 17.5 -8.05 17.25 -19.1 14.6 -19.85 15.1 -30.9 Z"/>
</g>

<g id="Duplicate_Items_Folder_leaf_1_copy_2_0_Layer0_0_FILL">
<path fill="#6F8833" stroke="none" d="
M 17.8 -2.7
L 8.65 -2.45 18.5 -6.8 18.25 -17.85 15.6 -18.6 16.1 -29.65 15.1 -28.8 -3.65 6.55 -6.7 18.15 -6.3 18.25 -4.85 21.4 -1 3.35 -0.95 3.35 1.65 4.05 3.8 13.7 13.45 17.3 14.65 10.05 22.85 5.5 17.8 0.7 17.8 -2.7 Z"/>

<path fill="#92B344" stroke="none" d="
M -1.95 -18.6
L -4.35 -21.45 -5.35 -10.15 -7.75 -15.45 -9.9 -14 -16.15 -14.75 -16.9 -6.8 -22.65 -2.7 -17.85 -1.5 -16.9 1.4 -12.55 2.1 -12.05 5.5 -2.9 3.55 -3.65 6.55 15.1 -28.8 7.45 -22.65 5.25 -25.8 -1.95 -18.6 Z"/>
</g>

<g id="Duplicate_Items_Folder_pumpkin_1_copy_2_0_Layer4_0_FILL">
<path fill="#000000" stroke="none" d="
M 5.75 -26.5
Q 4.16953125 -27.016796875 2.95 -27 0.7607421875 -26.9966796875 -0.2 -25.6 -0.821875 -24.9119140625 -0.85 -23.8 -0.9341796875 -22.937109375 -0.6 -21.9 -0.5875 -21.8625 -0.6 -21.85 -0.092578125 -20.087890625 -0.05 -19.85 -0.0791015625 -19.1662109375 -0.6 -17.55 -2.33046875 -18.0958984375 -4.25 -18.1 -5.2013671875 -18.096875 -6.1 -18 -7.6640625 -18.3923828125 -9.4 -18.4 -13.221484375 -18.3939453125 -16.3 -16.25 -20.00859375 -15.1482421875 -22.9 -11.65
L -22.95 -11.65
Q -26.8689453125 -6.810546875 -27.35 0.35 -27.3517578125 0.403515625 -27.35 0.45
L -27.35 0.5
Q -27.8056640625 7.6923828125 -24.25 12.85 -21.9392578125 16.1564453125 -18.5 17.2 -14.42265625 20.2712890625 -8.15 19.85
L -8.1 19.85
Q -6.115625 19.65859375 -4.4 19.25 -1.2423828125 20.405859375 2.8 20.1
L 2.8 20.1
Q 4.5205078125 19.9998046875 6.1 19.65 7.3923828125 19.74921875 8.8 19.6 14.4806640625 19.1650390625 18.55 16.55 20.0576171875 15.8251953125 21.4 14.35
L 21.35 14.4
Q 21.5 14.25 21.65 14.1
L 21.65 14.1
Q 26.6041015625 9.1140625 26.6 2.1 26.6013671875 1.1984375 26.55 0.35 26.5509765625 0.31640625 26.55 0.25 26.278125 -2.0849609375 25.4 -4.2 24.6904296875 -7.8126953125 22.85 -10.75
L 22.85 -10.75
Q 19.6767578125 -15.9447265625 15.05 -15.85 14.330078125 -15.8478515625 13.65 -15.75 11.0015625 -17.140625 7.85 -17.15 7.3669921875 -17.1501953125 6.9 -17.15 7.273046875 -17.7142578125 8.05 -18.75 8.4099609375 -19.15859375 8.65 -19.45 8.702734375 -19.5111328125 8.75 -19.6 9.467578125 -20.6771484375 9.65 -21.4
L 9.6 -21.4
Q 10.7560546875 -24.140234375 6.7 -26.05
L 6.7 -26.05
Q 6.5203125 -26.15 6.25 -26.25 5.9615234375 -26.402734375 5.7 -26.5
L 5.75 -26.5 Z"/>
</g>

<g id="Duplicate_Items_Folder_pumpkin_1_copy_2_0_Layer3_0_FILL">
<path fill="url(#Gradient_6)" stroke="none" d="
M 21.6 -9.95
Q 18.9 -14.35 15.05 -14.35 14.2 -14.35 13.4 -14.15 10.9 -15.65 7.85 -15.65 4.95 -15.65 2.55 -14.2 -0.45 -16.6 -4.25 -16.6 -5.25 -16.6 -6.2 -16.45 -7.7 -16.9 -9.4 -16.9 -12.9 -16.9 -15.7 -14.85 -19.1 -13.9 -21.75 -10.7 -25.386328125 -6.216796875 -25.85 0.45
L -25.85 0.5
Q -26.3 7.2 -23 12 -20.95 14.95 -17.85 15.85 -14.1 18.75 -8.25 18.35 -6.1 18.15 -4.25 17.7 -1.25 18.9 2.7 18.6 4.4 18.5 6 18.15 7.25 18.25 8.65 18.1 13.95 17.7 17.75 15.3 19.1 14.65 20.3 13.35 20.45 13.2 20.6 13.05 25.1 8.5 25.1 2.1 25.1 1.2576171875 25 0.45 24.797265625 -1.8107421875 23.95 -3.8 23.3 -7.2 21.6 -9.95 Z"/>
</g>

<g id="Duplicate_Items_Folder_pumpkin_1_copy_2_0_Layer2_0_FILL">
<path fill="url(#Gradient_7)" stroke="none" d="
M -17.75 -12.15
Q -18.3 -11.65 -18.95 -11.05 -23.25 -7.1 -23.9 -1.25 -23.9974609375 -0.3875 -24.05 0.45 -24.294921875 5.1974609375 -22.85 9.15 -21.1 13.75 -18 14.45 -17.25 14.6 -16.6 14.5 -18.7 13.25 -20 9.8 -21.5900390625 5.6203125 -21.15 0.45 -21.1140625 -0.069921875 -21.05 -0.6 -20.4 -6.4 -17.75 -10.05 -16.75 -11.35 -14.65 -12.85 -14.15 -13.9 -17.75 -12.15 Z"/>

<path fill="#FCBA6E" stroke="none" d="
M -12.5 -15
Q -13.95 -15 -16.4 -13.2 -17.05 -12.75 -17.75 -12.15 -14.15 -13.9 -14.65 -12.85 -14.55 -12.9 -14.5 -12.95 -13.1 -13.9 -11.15 -14.95 -11.55 -14.95 -12.5 -15
M -4.35 -14.2
Q -5 -14.45 -5.75 -14.55 -9.65 -15.15 -13.1 -12.75 -13.9 -12.1 -14.7 -11.35 -16.75 -9.4 -18 -6.85 -11.4 -14.4 -4.35 -14.2
M 2.45 -10.4
Q 2.25 -9.95 2.05 -9.45 8.7 -13.75 13.8 -11.4 10.5 -13.85 6.85 -13.3 3.75 -12.8 2.45 -10.4
M 12.95 -13.65
Q 12.15 -13.65 11.75 -13.65 13.7 -12.6 15.05 -11.65 14.05 -12.7 16.75 -11.9 14.35 -13.7 12.95 -13.65 Z"/>

<path fill="url(#Gradient_8)" stroke="none" d="
M 0.05 2.8
Q 0.1783203125 1.5990234375 0.25 0.45 0.594140625 -4.666796875 -0.1 -8.75 -0.25 -9.95 -0.65 -10.85 -1.75 -13.35 -4.35 -14.2 -11.4 -14.4 -18 -6.85 -19.35 -4.2 -19.85 -0.9 -19.9611328125 -0.2169921875 -20.05 0.45 -20.6193359375 6.084765625 -18.25 10.6 -15.5 15.7 -10.7 16.45 -5.85 17.25 -3.25 13.3 -0.7 9.35 0.05 2.8 Z"/>

<path fill="url(#Gradient_9)" stroke="none" d="
M 2.05 -9.45
Q 1.8 -8.8 1.7 -8 1.0841796875 -4.2638671875 1.4 0.45 1.4837890625 1.4767578125 1.6 2.55 2.25 8.5 4.6 12.1 6.9 15.65 11.35 14.95 15.75 14.25 18.15 9.6 20.3244140625 5.5173828125 19.85 0.45 19.801171875 -0.1919921875 19.7 -0.85 18.8 -6.7 15 -10.35 14.4 -10.95 13.8 -11.4 8.7 -13.75 2.05 -9.45 Z"/>

<path fill="url(#Gradient_10)" stroke="none" d="
M 18.85 -10.1
Q 17.7 -11.15 16.75 -11.9 14.05 -12.7 15.05 -11.65 16.9 -10.35 17.75 -9.15 20.2 -5.85 20.75 -0.6 20.8150390625 -0.0693359375 20.85 0.45 21.23984375 5.1205078125 19.8 8.9 18.6 12 16.7 13.2 17.3 13.25 17.95 13.1 20.8 12.45 22.4 8.25 23.7044921875 4.7572265625 23.45 0.45 23.4451171875 -0.360546875 23.35 -1.2 22.8 -6.45 18.85 -10.1 Z"/>
</g>

<g id="Duplicate_Items_Folder_pumpkin_1_copy_2_0_Layer1_0_FILL">
<path fill="#000000" stroke="none" d="
M 5.2 -25.05
Q 3.9537109375 -25.5 2.95 -25.5 1.55 -25.5 0.95 -24.6 0.65 -24.25 0.65 -23.65 0.6 -23.05 0.85 -22.3 1.45 -20.15 1.45 -19.85 1.45 -19 0.8 -17
L 0.15 -15.25 2.15 -13.9 4.35 -15.1 4.6 -15.7
Q 4.95 -16.5 5.35 -17.45 5.7 -18.15 6.9 -19.65 7.25 -20.1 7.5 -20.4 8.05 -21.25 8.2 -21.8 8.7087890625 -23.4650390625 6.05 -24.7 5.8361328125 -24.8025390625 5.6 -24.9 5.4091796875 -24.9763671875 5.2 -25.05 Z"/>
</g>

<g id="Duplicate_Items_Folder_pumpkin_1_copy_2_0_Layer0_0_FILL">
<path fill="#809E3A" stroke="none" d="
M 3.8 -20.85
Q 1.7 -21.6 0.65 -23.65 0.6 -23.05 0.85 -22.3 1.45 -20.15 1.45 -19.85 1.45 -19 0.8 -17
L 0.15 -15.25 1.4 -14.4 3.8 -20.85 Z"/>

<path fill="#5A6F2B" stroke="none" d="
M 5.2 -25.05
Q 3.9537109375 -25.5 2.95 -25.5 1.55 -25.5 0.95 -24.6 0.65 -24.25 0.65 -23.65 1.7 -21.6 3.8 -20.85
L 1.4 -14.4 2.15 -13.9 4.35 -15.1 4.6 -15.7
Q 4.95 -16.5 5.35 -17.45 5.7 -18.15 6.9 -19.65 7.25 -20.1 7.5 -20.4 8.05 -21.25 8.2 -21.8 8.7087890625 -23.4650390625 6.05 -24.7 5.8361328125 -24.8025390625 5.6 -24.9 5.4091796875 -24.9763671875 5.2 -25.05
M 5.75 -24.2
Q 6.577734375 -23.796875 7.1 -23.2 7.8 -22.45 7.55 -21.85 7.3 -21.25 6.3 -21.15 5.25 -21.05 4.05 -21.5 2.8 -22 2.1 -22.75 1.4 -23.55 1.6 -24.15 1.85 -24.7 2.9 -24.85 3.9 -24.95 5.15 -24.45 5.4673828125 -24.3357421875 5.75 -24.2 Z"/>

<path fill="#516325" stroke="none" d="
M 7.1 -23.2
Q 6.577734375 -23.796875 5.75 -24.2 5.4673828125 -24.3357421875 5.15 -24.45 3.9 -24.95 2.9 -24.85 1.85 -24.7 1.6 -24.15 1.4 -23.55 2.1 -22.75 2.8 -22 4.05 -21.5 5.25 -21.05 6.3 -21.15 7.3 -21.25 7.55 -21.85 7.8 -22.45 7.1 -23.2 Z"/>
</g>

<g id="Duplicate_Items_Folder_pumpkin_2_copy_0_Layer3_0_FILL">
<path fill="#000000" stroke="none" d="
M 10.85 -12.25
Q 10.7681640625 -12.2982421875 10.65 -12.35 10.6150390625 -12.390234375 10.55 -12.45 5.8990234375 -15.7421875 -0.4 -15.25 -1.175 -15.2375 -1.9 -15.15
L -1.9 -15.15
Q -4.07578125 -14.7599609375 -5.9 -13.9 -9.0607421875 -13.17265625 -11.55 -11.6
L -11.55 -11.6
Q -16.2017578125 -8.7140625 -15.8 -5 -15.791015625 -4.9287109375 -15.8 -4.85 -15.7103515625 -4.465234375 -15.6 -4.1 -16.535546875 -2.2689453125 -16.5 -0.1 -16.79921875 0.0615234375 -17.15 0.2 -17.5439453125 0.3234375 -18.4 0.45 -18.6005859375 0.5021484375 -18.75 0.5 -18.9896484375 0.4990234375 -19.25 0.55 -19.958984375 0.8158203125 -20.35 1 -20.3984375 1.04609375 -20.5 1.1 -21.6625 1.818359375 -21.55 3.3 -21.497265625 4.13125 -20.75 5.35
L -20.7 5.35
Q -20.64140625 5.462890625 -20.6 5.55 -20.50234375 5.8046875 -20.35 6 -19.5873046875 6.9521484375 -18.9 7.45
L -18.9 7.45
Q -17.4296875 8.5390625 -16.25 8.15 -16.1126953125 8.133203125 -16 8.1 -15.3986328125 7.869921875 -14.95 7.25 -14.5244140625 6.8513671875 -14.3 6.1 -14.262890625 6.0982421875 -14.25 6.05 -14.212890625 5.9443359375 -14.2 5.8 -13.91484375 6.0349609375 -13.5 6.2 -12.6896484375 6.607421875 -10.8 6.95 -10.624609375 7.0033203125 -10.5 7
L 11.2 6.7
Q 11.4546875 6.699609375 11.65 6.6 14.1580078125 5.7908203125 15.4 3.3
L 15.4 3.3
Q 16.507421875 1.0380859375 16.6 -0.5 16.6021484375 -0.54140625 16.6 -0.6 16.595703125 -1.7126953125 16.4 -2.85
L 16.4 -2.9
Q 15.5896484375 -7.2478515625 13 -10.2
L 13.1 -10.1
Q 12.2859375 -11.2248046875 10.85 -12.25 Z"/>
</g>

<g id="Duplicate_Items_Folder_pumpkin_2_copy_0_Layer2_0_FILL">
<path fill="#AF4703" stroke="none" d="
M 14.95 -2.6
Q 14.2 -6.55 11.9 -9.2 11.2 -10.15 10 -11 9.85 -11.05 9.7 -11.2 5.45 -14.2 -0.25 -13.75 -1 -13.75 -1.65 -13.65 -3.7 -13.3 -5.4 -12.45 -8.4 -11.8 -10.75 -10.3 -14.5 -8 -14.3 -5.1 -14.2 -4.5 -14 -3.85 -15.15 -2 -14.95 0.35 -14.8 2.45 -13.35 4.2 -13.85 4.85 -10.5 5.5
L 11.2 5.2
Q 13.105078125 4.5572265625 14.05 2.6 14.994921875 0.6927734375 15.1 -0.6 15.1 -1.6 14.95 -2.6 Z"/>
</g>

<g id="Duplicate_Items_Folder_pumpkin_2_copy_0_Layer1_0_FILL">
<path fill="#9D5104" stroke="none" d="
M -9.95 4
Q -9.55 4.15 -9.15 4.3 -13.35 -0.4 -11.6 -4.4 -13.5 -1.8 -12.85 0.95 -12.2 3.2 -9.95 4 Z"/>

<path fill="url(#Gradient_11)" stroke="none" d="
M 13.1 -1.1
Q 10.0193359375 -7.286328125 1.8 -10 0.2775390625 -10.008984375 -1.35 -9.75 -2 -9.65 -2.55 -9.5 -7.7 -8.45 -10.7 -5.4 -11.2 -4.9 -11.6 -4.4 -13.35 -0.4 -9.15 4.3 -8.55 4.35 -7.8 4.45 -4.45 4.6 -0.3 4.05 0.65 3.95 4.25 3.85 7.8 3.7 11 1.9 12.9439453125 0.776171875 13.1 -1.1 Z"/>

<path fill="url(#Gradient_12)" stroke="none" d="
M 6.85 -9.1
Q 4.4556640625 -9.9505859375 1.8 -10 10.0193359375 -7.286328125 13.1 -1.1 13.2583984375 -2.2583984375 12.65 -3.75 11.1 -7.6 6.85 -9.1 Z"/>

<path fill="#7C4003" stroke="none" d="
M -13.5 -2.7
Q -12.65 -4.25 -11.9 -5.35 -12.75 -4.5 -12.15 -6.5 -13.6 -4.65 -13.5 -3.6 -13.45 -2.95 -13.5 -2.7 Z"/>

<path fill="url(#Gradient_13)" stroke="none" d="
M -1.3 -12.5
Q -1.4517578125 -12.46953125 -1.6 -12.45 -2.35 -12.4 -3.05 -12.2 -7.7 -11.45 -10.65 -8.3 -11.55 -7.3 -12.15 -6.5 -12.75 -4.5 -11.9 -5.35 -10.8 -6.8 -9.8 -7.55 -7 -9.55 -2.4 -10.35 -1.95 -10.45 -1.45 -10.45 -0.2443359375 -10.6412109375 3.1 -10.9
L -1.3 -12.5 Z"/>

<path fill="url(#Gradient_14)" stroke="none" d="
M 9.95 -9.15
Q 9.2 -11.25 5.4 -12.25 2.3248046875 -12.92265625 -1.3 -12.5
L 3.1 -10.9
Q 3.6498046875 -10.8646484375 6.05 -10.3 8.95 -9.7 10.1 -8.25 10.1 -8.75 9.95 -9.15 Z"/>
</g>

<g id="Duplicate_Items_Folder_pumpkin_2_copy_0_Layer0_0_FILL">
<path fill="#809E3A" stroke="none" d="
M -12.9 2.7
L -13.35 1.85 -16.9 3.8
Q -15.9 4.95 -16.1 6.35 -15.85 6.1 -15.7 5.65 -15.35 4.45 -15.25 4.3 -14.9 3.9 -13.9 3.3
L -12.9 2.7 Z"/>

<path fill="#556729" stroke="none" d="
M -13.35 1.85
L -13.55 1.35 -15.25 0.95 -15.5 1.05
Q -16 1.35 -16.55 1.6 -17 1.75 -18.15 1.95 -18.5 2 -18.75 2 -19.35 2.2 -19.65 2.35 -20.5 2.9 -19.45 4.55 -19.35 4.7 -19.25 4.85 -19.15 5 -19.15 5.1 -18.55 5.85 -18 6.25 -17.2 6.85 -16.55 6.7 -16.3 6.6 -16.1 6.35 -15.9 4.95 -16.9 3.8
L -13.35 1.85
M -19.3 2.65
Q -18.95 2.45 -18.35 2.9 -17.75 3.3 -17.2 4 -16.7 4.7 -16.55 5.3 -16.45 6.05 -16.8 6.2 -17.1 6.35 -17.75 5.95 -18.3 5.6 -18.85 4.85 -19 4.7 -19.1 4.45 -19.4 3.95 -19.5 3.5 -19.65 2.8 -19.3 2.65 Z"/>

<path fill="#3D4A1C" stroke="none" d="
M -18.35 2.9
Q -18.95 2.45 -19.3 2.65 -19.65 2.8 -19.5 3.5 -19.4 3.95 -19.1 4.45 -19 4.7 -18.85 4.85 -18.3 5.6 -17.75 5.95 -17.1 6.35 -16.8 6.2 -16.45 6.05 -16.55 5.3 -16.7 4.7 -17.2 4 -17.75 3.3 -18.35 2.9 Z"/>
</g>

<g id="Duplicate_Items_Folder_pumpkin_3_copy_6_0_Layer4_0_FILL">
<path fill="#000000" stroke="none" d="
M 14.7 -14
Q 14.5525390625 -14.115625 14.35 -14.2 12.5322265625 -14.915234375 9.55 -15.9 10.1904296875 -16.759375 10.35 -17.4 11.8486328125 -20.46015625 6.55 -22.45 6.2466796875 -22.5953125 5.8 -22.75 5.78828125 -22.738671875 5.75 -22.75 5.4560546875 -22.844140625 5.25 -22.9 3.2255859375 -23.46015625 1.65 -23.45 -1.126953125 -23.4517578125 -2.3 -21.95
L -2.2 -22
Q -3.0041015625 -21.246875 -3.05 -20.05 -3.1421875 -19.0677734375 -2.65 -17.85
L -2.7 -17.95
Q -2.5302734375 -17.500390625 -2.45 -17.15 -3.4919921875 -17.2001953125 -4.75 -17.2
L -4.8 -17.2
Q -6.618359375 -17.2419921875 -8.7 -16.8 -9.4240234375 -16.9583984375 -10.85 -17 -14.96953125 -17.206640625 -18.4 -15.2 -22.336328125 -14.2962890625 -25.65 -10.9 -30.0859375 -6.3080078125 -31.45 1.05 -31.4333984375 1.122265625 -31.45 1.15 -31.6421875 1.9505859375 -31.75 2.85
L -31.75 2.9
Q -32.3841796875 9.09375 -29.65 14.4
L -29.65 14.4
Q -27.7560546875 18.15078125 -24.4 19.8 -20.9763671875 23.1203125 -15.3 23.95 -15.1630859375 23.995703125 -15.05 24 -14.5087890625 23.9994140625 -13.85 24.15 -13.712109375 24.1876953125 -13.6 24.2 -11.1576171875 24.307421875 -8.95 24.1 -8.5689453125 24.064453125 -8.25 23.85 -5.3529296875 21.8765625 -3 23.05
L -2.95 23.05
Q 0.0796875 24.63671875 1.7 26.05 2.0400390625 26.3130859375 2.45 26.35 4.0212890625 26.64140625 5.75 26.75 12.5943359375 27.17109375 17.9 24.85 19.73828125 24.2642578125 21.6 22.9 21.793359375 22.7984375 21.9 22.6 21.9986328125 22.5841796875 22.05 22.5 28.742578125 17.3818359375 29.55 9.2 29.5578125 9.0859375 29.55 8.95 29.50078125 7.8673828125 29.5 7.05
L 29.5 7
Q 29.39375 4.0099609375 28.45 1.4 27.7708984375 -2.8275390625 25.8 -6.2
L 25.8 -6.2
Q 22.428515625 -12.320703125 16.95 -12.55 16.2005859375 -12.7880859375 14.7 -14 Z"/>
</g>

<g id="Duplicate_Items_Folder_pumpkin_3_copy_6_0_Layer3_0_FILL">
<path fill="url(#Gradient_1)" stroke="none" d="
M 16.85 -11.05
Q 15.8 -11.2 13.8 -12.8 11.65 -13.65 7.85 -14.85 7.1 -15.15 6.45 -15.1 3.55 -15.3 2 -11.85 -0.115625 -15.484375 -1.55 -15.6 -2.93828125 -15.71171875 -4.8 -15.75 -6.65390625 -15.74609375 -8.8 -15.25 -9.15 -15.45 -10.9 -15.5 -14.7 -15.7 -17.85 -13.75 -21.5 -13 -24.55 -9.85 -28.7 -5.55 -29.95 1.35
L -29.95 1.4
Q -30.15 2.15 -30.25 3.05 -30.85 8.8 -28.3 13.75 -26.6 17.1 -23.55 18.55 -20.4 21.7 -15.05 22.5 -14.35 22.5 -13.5 22.7 -11.2 22.8 -9.1 22.6 -5.35 20.05 -2.25 21.75 0.95 23.4 2.7 24.9 4.2 25.15 5.85 25.25 12.3 25.65 17.3 23.5 19 22.95 20.75 21.7 20.9 21.45 21.15 21.35 27.3 16.6 28.05 9.05 28 7.9 28 7.05 27.9 4.3 27.05 1.9 26.4 -2.2 24.5 -5.45 21.55 -10.8 16.85 -11.05 Z"/>
</g>

<g id="Duplicate_Items_Folder_pumpkin_3_copy_6_0_Layer2_0_FILL">
<path fill="url(#Gradient_2)" stroke="none" d="
M -2.85 -6.95
Q -4.25 -6.55 -8.8 -10.1 -13.35 -13.05 -21.15 -5.55 -22.85 -2.95 -23.7 0.55 -23.95 1.2 -24 1.95 -25.35 7.75 -23.35 12.9 -21.15 18.7 -16 20.2 -10.8 21.8 -7.45 17.95 -4.2 13.8 -2.6 6.7 -2.3 5.3 -2.1 4.05 -1.2 -1.55 -1.35 -4.35 -1.75 -7.3 -2.85 -6.95 Z"/>

<path fill="#FCBA6E" stroke="none" d="
M -15.1 -11.6
Q -16.3 -10.8 -17.15 -9.95 -19.65 -8.2 -21.15 -5.55 -13.35 -13.05 -8.8 -10.1 -8.4 -11.8 -11.15 -12.2 -14 -12.6 -15.1 -11.6
M -13 -13.6
Q -13.45 -13.65 -14.4 -13.75 -16 -13.85 -18.8 -12.1 -19.55 -11.7 -20.3 -11.15 -16.405859375 -12.69765625 -16.95 -11.6 -16.89765625 -11.69921875 -16.75 -11.65 -15.2 -12.6 -13 -13.6
M 16.6 -7.95
Q 15.4 -9.3 18.65 -8.15 15.85 -10.45 14.25 -10.4 13.15 -10.6 12.7 -10.5 14.9 -9.3 16.6 -7.95
M 11.35 -8.95
Q 12.3 -9.35 15.05 -7.8 14.2 -10.05 12.2 -9.25 11.7 -9.15 11.35 -8.95 Z"/>

<path fill="url(#Gradient_3)" stroke="none" d="
M -21.7 -9.95
Q -26.55 -6.3 -27.8 -0.25 -28.05 0.55 -28.1 1.55 -28.95 6.4 -27.9 10.75 -26.75 15.75 -23.6 17 -22.85 17.15 -22.1 17.3 -24.2 15.55 -25.1 11.75 -26.25 7.15 -25.25 1.85 -25.1 1.25 -24.9 0.7 -23.7 -5.35 -20.55 -8.85 -19.35 -10.2 -16.95 -11.6 -16.405859375 -12.69765625 -20.3 -11.15 -21 -10.65 -21.7 -9.95 Z"/>

<path fill="url(#Gradient_4)" stroke="none" d="
M 18.65 -8.15
Q 15.4 -9.3 16.6 -7.95 18.7 -6.45 19.7 -4.9 22.35 -0.95 22.6 5.3 22.6 5.9 22.65 6.55 22.65 11.95 20.55 16.35 18.75 19.75 16.15 20.9 16.85 21.05 17.75 20.9 21.4 20.7 23.9 16 25.85 11.9 26.1 6.9 26 5.9 25.95 4.95 25.7 -1.35 21.15 -5.95 19.75 -7.3 18.65 -8.15 Z"/>

<path fill="url(#Gradient_5)" stroke="none" d="
M 0.5 -5.4
Q 0.35 -5.35 0.45 -5.15 -0.7 -1.15 -0.8 4.2 -0.9 5.35 -0.75 6.65 -0.7 13.3 1.65 17.75 3.95 22.05 9.4 22.1 14.85 22 18.35 16.9 21.5 12.3 21.4 6.4 21.4 5.55 21.4 4.9 20.7 -2.05 16.4 -6.55 15.7 -7.35 15.05 -7.8 12.3 -9.35 11.35 -8.95 11 -8.95 11 -8.65 7.05 -5.2 4.25 -5.1 1.4 -5.15 1.15 -5.1 0.9 -5.2 0.5 -5.4 Z"/>
</g>

<g id="Duplicate_Items_Folder_pumpkin_3_copy_6_0_Layer1_0_FILL">
<path fill="#000000" stroke="none" d="
M 5 -13.05
Q 5.5 -13.8 7.15 -15.45 7.65 -15.95 8 -16.3 8.75 -17.25 8.95 -17.85 9.65 -19.7 5.95 -21.05 5.7 -21.2 5.35 -21.3 5.05 -21.4 4.85 -21.45 3.05 -21.95 1.65 -21.95 -0.3 -21.95 -1.15 -20.95 -1.55 -20.55 -1.55 -19.9 -1.6 -19.25 -1.25 -18.4 -0.45 -16.05 -0.45 -15.7 -0.45 -14.75 -1.35 -12.55
L -2.25 -10.6 0.55 -9.1 3.6 -10.45 3.95 -11.1
Q 4.45 -12 5 -13.05 Z"/>
</g>

<g id="Duplicate_Items_Folder_pumpkin_3_copy_6_0_Layer0_0_FILL">
<path fill="#809E3A" stroke="none" d="
M -1.55 -19.9
Q -1.6 -19.25 -1.25 -18.4 -0.45 -16.05 -0.45 -15.7 -0.45 -14.75 -1.35 -12.55
L -2.25 -10.6 -0.5 -9.65 2.85 -16.8
Q -0.1 -17.65 -1.55 -19.9 Z"/>

<path fill="#5A6F2B" stroke="none" d="
M 5.95 -21.05
Q 5.7 -21.2 5.35 -21.3 5.05 -21.4 4.85 -21.45 3.05 -21.95 1.65 -21.95 -0.3 -21.95 -1.15 -20.95 -1.55 -20.55 -1.55 -19.9 -0.1 -17.65 2.85 -16.8
L -0.5 -9.65 0.55 -9.1 3.6 -10.45 3.95 -11.1
Q 4.45 -12 5 -13.05 5.5 -13.8 7.15 -15.45 7.65 -15.95 8 -16.3 8.75 -17.25 8.95 -17.85 9.65 -19.7 5.95 -21.05
M 5.55 -20.5
Q 6.75 -20.05 7.45 -19.4 8.4 -18.6 8.05 -17.9 7.7 -17.25 6.3 -17.15 4.85 -17.05 3.2 -17.5 1.45 -18.1 0.45 -18.9 -0.5 -19.8 -0.25 -20.45 0.1 -21.05 1.6 -21.25 3 -21.35 4.7 -20.8 5.15 -20.7 5.55 -20.5 Z"/>

<path fill="#516325" stroke="none" d="
M 7.45 -19.4
Q 6.75 -20.05 5.55 -20.5 5.15 -20.7 4.7 -20.8 3 -21.35 1.6 -21.25 0.1 -21.05 -0.25 -20.45 -0.5 -19.8 0.45 -18.9 1.45 -18.1 3.2 -17.5 4.85 -17.05 6.3 -17.15 7.7 -17.25 8.05 -17.9 8.4 -18.6 7.45 -19.4 Z"/>
</g>

<path id="Duplicate_Items_Folder_vine_2_copy_2_0_Layer3_0_1_STROKES" stroke="#000000" stroke-width="4" stroke-linejoin="round" stroke-linecap="round" fill="none" d="
M -27.2 -68.85
Q -27.3 -68.75 -27.35 -68.6 -25.95 -68.85 -24.75 -69.05 -25.85 -69.4 -26.65 -69.1 -26.95 -69 -27.2 -68.85 Z
M -28.45 -65.85
Q -28.25 -65.55 -27.8 -65.3 -28.15 -65.6 -28.4 -65.9
L -28.45 -65.85 Z
M -26.75 -66.35
Q -25.5 -65.7 -23.75 -67.1 -25.5 -67.95 -26.65 -67.5 -27.15 -67.35 -27.5 -67.05 -27.3 -66.65 -26.75 -66.35 Z
M -20.7 -67.8
Q -20.55 -67.7 -20.35 -67.6 -20.2 -67.55 -20 -67.45 -19.85 -67.4 -19.65 -67.35 -20.05 -67.6 -20.45 -67.8 -20.55 -67.85 -20.7 -67.8 Z
M 41.75 11.05
Q 41.85 11.2 42.2 11.5 42.398046875 11.6484375 42.7 11.85 42.5470703125 11.591796875 42.4 11.4 42.05 10.9 41.75 10.85 41.7103515625 10.8443359375 41.65 10.85 41.69921875 10.95859375 41.75 11.05 Z
M 30.9 10.9
Q 29.4521484375 11.037890625 28.4 11.95 28.7787109375 12.980078125 30.35 14 32.5951171875 15.41796875 36.2 12.125 32.9859375 10.5087890625 30.9 10.9 Z
M 65.1 64.05
Q 65.05 64.05 65 64.05 63.894140625 64.1994140625 63.05 64.325 63.9607421875 64.3220703125 64.85 64.15 64.95 64.1 65.1 64.05 Z
M 58.2 51.725
Q 56.968359375 52.51875 54.6 52.9 54.6373046875 52.7103515625 54.675 52.525 54.963671875 52.13828125 55.3 51.9 56.25 51 57.55 51.2 58.0373046875 51.28125 58.275 51.55 58.23671875 51.6345703125 58.2 51.725 Z"/>

<path id="Duplicate_Items_Folder_vine_2_copy_2_0_Layer3_0_2_STROKES" stroke="#000000" stroke-width="3" stroke-linejoin="round" stroke-linecap="round" fill="none" d="
M -15.425 -27.55
Q -13.8130859375 -27.3162109375 -11.6 -26.95 -4.3 -25.75 -2.8 -24.05 -1.3 -22.4 0.3 -20.2 0.35 -20.15 0.4 -20.1 0.85 -19.45 1.35 -18.7 3.85 -14.95 4.05 -13.1 4.25 -11.4 4.3 -8.3
L 4.35 -5.55 8.05 -8.25
Q 12.4 -11.15 15.9 -12 20.8 -13.2 27.6 -12.15 35.35 -11.05 37.35 -7.7 38.4 -6.3 39.2 -5.1
L 39.25 -5.05
Q 40.9 -2.7 41.65 -1.25 43.45 2.1 42.9 6.05 42.85 6.15 42.85 6.3
L 42.85 6.35
Q 42.85 6.4 42.85 6.45 42.8 6.6 42.75 6.8 42.3 9.1 42.8 10 42.9 10.15 43.25 10.45 43.65 10.75 44.45 11.25 47.45 13.25 48.35 20.75 49.35 28.85 47.9 33.5 46.65 37.6 46.3 39.1 46.2 39.6 46.2 39.8 46.2 43.85 46.85 46.8 47.5 50 48.65 50.55
L 51.75 52.175 52.6 50.5
Q 53.6400390625 48.746875 54.6 48.025 55.831640625 46.5 56.95 46.5 59.1 46.5 60.95 47.55 63 48.7 62.05 50 61.5810546875 50.6576171875 61.125 51.225 61.5357421875 51.916796875 61 52.65 57.2923828125 57.8501953125 53.9 57.8
L 54.35 58.5
Q 55.15 59.45 56 59.95 56.85 60.45 57.75 60.5 59.25 60.65 62.7 61.55 64.35 61.8 65.9 61.5 66 61.45 66.15 61.4 67.55 61.05 68.8 60.2 73.3 57.3 74.35 56.7 76.15 55.7 77.3 55.45 79.6 54.45 81.55 55.1 83.8 55.1 84.1 56.45 84.5638671875 58.4447265625 82.75 62.3 82.31171875 63.7267578125 81.4 65.55
L 81.5 63.725
Q 81.4544921875 63.8412109375 81.4 63.95
L 81.6 60.35
Q 80.4763671875 59.17890625 77.4 59.9
L 72.85 63.15
Q 67.5 65.55 65.6 65.55 65.35 65.6 65.1 65.65 65.05 65.65 65 65.65 63.15 65.9 62 66.05 59.5 66.35 58.05 65.55 53.95 65.15 51.6 62.05
L 48.4 57.2 44.9 54 42.5 47.3 42.675 46.2 42.5 45.7 43.85 37.1
Q 43.9 36.85 44.55 34.05 44.7 33.2 44.95 32.1 45.3603515625 30.3380859375 45.5 29.2 45.473046875 29.116015625 45.45 29.05 45.2 28.25 43.7 20.85 42.5 15.55 41.35 14.05 41 13.55 40.7 13.5 40.35 13.45 39.05 14.5
L 39 14.55
Q 38.45 15.75 37.45 16.95 35.45 19.35 33.1 19.35 29.85 19.35 27.15 18.2 24.1 16.85 24.7 14.3
L 24.7 14.275
Q 24.499609375 13.551953125 24.7 12.7 25.25 10.15 25.8 9.4 26.0919921875 8.9328125 26.8 8.425 26.821875 8.38828125 26.85 8.35 27.35 7.55 29.05 6.65 30.7 5.75 35.5 6.55 38.0109375 6.9685546875 39.3 7.225 39.0166015625 6.1740234375 38.55 4.75 37.6 1.8 36.85 0.4 36.1 -1.05 35.55 -1.7 35 -2.4 31.2 -4.85 28.2 -6.8 25.85 -6.95 16 -7.55 10.8 -4 3.2 1.2 1.65 3 -0.4 6.1 -1.95 8.05 -4.85 11.7 -7.2 11.85 -8.75 11.95 -12.9 13.25 -16.45 14.3 -18.2 14 -20.2 13.65 -22.6 13.4
L -24.65 13.2 -25.45 9.95 -25.05 10 -25.45 8.35 -24.1 8.5 -24.4 7.3 -18.65 7.95
Q -12.15 8.6 -8.3 6.25 -5.572265625 4.5970703125 -3.575 2.75 0.3720703125 -1.498046875 0.65 -6.725 0.5849609375 -7.885546875 0.35 -9.1 -0.45 -13.25 -2.65 -16.05 -5.6 -19.8 -10.7 -20.65 -15.85 -21.5 -18.2 -21.8 -18.8515625 -21.8814453125 -19.675 -22.125
M -18.65 -21.75
Q -22.3 -21.45 -23.65 -21.45 -34.55 -21.4 -36.85 -21.9 -43.7 -23.4 -48.7 -25.55 -55.8 -28.7 -56.8 -32.45 -56.95 -32.95 -56.95 -33.45 -57 -34 -57 -34.5 -57.05 -35.8 -57 -36.9 -57.1 -42 -56.3 -44.9 -55.35 -48.35 -53 -50.35 -51.85 -51.7 -50.25 -52.6 -50.2 -52.65 -50.15 -52.65 -49.85 -52.85 -49.5 -53 -48.8 -53.3 -48 -53.6 -47.9 -53.65 -47.8 -53.65 -43.95 -55 -37.25 -55.55 -32.95 -55.9 -27.45 -56.25 -19.95 -57.55 -17.3 -59.5 -17 -59.95 -16.95 -60.4 -17.1 -62 -17.9 -63.5 -18.95 -65.55 -20.45 -66.2 -21.15 -66.5 -23.1 -63.6 -25.05 -60.75 -27.15 -61.65 -29.95 -62.85 -30.6 -65.4 -30.85 -66.4 -30.6 -67.1 -31.1 -69.1 -29.55 -69.7 -29.25 -70.75 -27.75 -71 -25.2 -71.45 -23.2 -71.8 -23.75 -72.85 -25.3 -73.45 -26 -73.7 -27.2 -73.9 -28.4 -74.1 -30.15 -74.2 -32.7 -74.4 -33.6 -75.6 -33.95 -76.05 -34.15 -76.5 -34.85 -77.8 -34.5 -79.05 -34.7 -79.9 -34.5 -80.75 -34.2 -81.85 -33.2 -82.45 -32.7 -83.3 -31.65 -83.75 -31 -84.05 -30.15 -84.15 -27.6 -84.5 -27.95 -83.85
L -28.8 -83.1 -29 -83.05
Q -28.9 -82.95 -29 -82.8
L -29.85 -82.05 -31.1 -81.9 -31.05 -81.5
Q -28.65 -81.85 -29 -81.2
L -29.85 -80.45 -30.95 -80.3 -30.95 -80.15 -28 -78.5 -23.95 -78 -20.5 -76.65
Q -19.95 -75.65 -19.55 -74.5 -18.8 -72.25 -19.65 -71.55 -20 -71.25 -20 -70.95 -20 -70.6 -19.3 -70.25 -19.15 -70.2 -18.95 -70.1 -18.2 -69.85 -16.7 -69.4 -15.3 -68.9 -14.1 -66.85 -12.75 -64.6 -13.5 -62.95 -13.55 -62.8 -13.9 -61.2 -14.05 -60.45 -14.25 -59.4 -14.5 -58.1 -15.2 -57.2 -15.25 -57 -15.3 -56.75 -15.65 -54.9 -16.95 -53.9 -18.25 -52.95 -20.75 -51.7 -23.25 -50.45 -24.75 -50.65 -26.25 -50.9 -39.25 -49.8 -40.7 -49.65 -45.05 -49.5 -46.95 -49.35 -48.25 -49 -49.55 -48.7 -50.25 -48.2 -51.55 -47.2 -52.25 -46.25 -52.4 -45.65 -52.45 -44.95 -53.25 -41.1 -53.55 -38.95 -53.7 -37.95 -53.4 -37.1 -53.1 -36.3 -52.35 -35.35 -51.65 -34.45 -49.65 -32.8 -47.7 -31.15 -47.5 -31 -44.3 -29.25 -42.75 -29.1 -40.55 -28.85 -34.9 -28.5 -28.65 -28.05 -26.65 -28.05 -25.189453125 -28.05 -20.15 -27.9 -19.891015625 -27.9455078125 -19.6 -28 -19.2365234375 -28.0728515625 -17.35 -27.825 -16.34140625 -27.7876953125 -14.3 -27.1
M -20.15 -27.9
Q -19.14140625 -27.8830078125 -18 -27.85 -17.678515625 -27.8376953125 -17.35 -27.825"/>

<path id="Duplicate_Items_Folder_pumpkin_3_copy_5_0_Layer1_0_1_STROKES" stroke="#000000" stroke-width="3" stroke-linejoin="round" stroke-linecap="round" fill="none" d="
M 5 -13.05
Q 4.45 -12 3.95 -11.1
L 3.6 -10.45 0.55 -9.1 -2.25 -10.6 -1.35 -12.55
Q -0.45 -14.75 -0.45 -15.7 -0.45 -16.05 -1.25 -18.4 -1.6 -19.25 -1.55 -19.9 -1.55 -20.55 -1.15 -20.95 -0.3 -21.95 1.65 -21.95 3.05 -21.95 4.85 -21.45 5.05 -21.4 5.35 -21.3 5.7 -21.2 5.95 -21.05 9.65 -19.7 8.95 -17.85 8.75 -17.25 8 -16.3 7.65 -15.95 7.15 -15.45 5.5 -13.8 5 -13.05 Z"/>

<path id="Duplicate_Items_Folder_vine_1_copy_2_0_Layer3_0_1_STROKES" stroke="#000000" stroke-width="3" stroke-linejoin="round" stroke-linecap="round" fill="none" d="
M 26.35 -25.45
Q 32.5 -19.7 35 -14.5
L 36.9 -9.2 37.5 -9.875 37.95 -8.6 40 -10.95 35.3 -19.2
Q 33.177734375 -22.3833984375 31.225 -24.475 27.1798828125 -29.330078125 23.8 -29.85 16.25 -31.05 12.15 -30.15 5.85 -28.8 5.3 -22.65 4.75 -12.3 4.25 -7.65 3.40859375 -0.387890625 1.975 0.8
L 0.5 -4.25
Q -0.41328125 -7.4134765625 -2.25 -8.375 -3.6671875 -10.380078125 -6 -10.15 -10.8 -9.7 -12.55 -5.9 -14.082421875 -2.7203125 -12.175 -0.575 -11.5603515625 0.5591796875 -10.15 1.45 -8.974609375 2.1923828125 -7.9 2.775 -4.865234375 4.57890625 -2.6 5.25
L -2.075 5.3
Q -2.173828125 6.1603515625 -2.4 7.15 -3.25 10.55 -5.25 12.35 -8.55 15.25 -10.55 16.5 -13.85 18.5 -16.5 18.4 -19.85 18.3 -23.35 17 -23.89609375 16.7923828125 -24.35 16.55 -25.013671875 15.631640625 -24.9 14.45 -24.65 11.85 -23.55 11.95 -22.45 12.05 -21.85 11.5
L -21.5 10.9 -23.15 11.075
Q -23.01171875 11.0025390625 -22.9 10.9
L -22.55 10.3 -24.325 10.5
Q -23.8646484375 10.38828125 -23.55 10.1
L -23.2 9.5 -26.85 9.9
Q -28.5 10.85 -28.7 13.7 -28.95 16.2 -27.4 18.05 -27.2609375 18.169921875 -27.125 18.275 -26.9310546875 18.5744140625 -26.7 18.85 -25.4119140625 19.960546875 -24.125 20.6 -21.9705078125 21.9896484375 -19.8 22.1 -18.95 22.35 -17.8 22.45 -15.45 22.7 -13.55 22.15 -11.65 21.6 -9.75 20.85 -7.9 20.1 -5.8 19.25 -3.75 18.4 -0.7 13.6 2.3 8.8 1.9 7.3 1.5 5.75 4.45 3.8 7.4 1.75 7.35 -0.3 7.3 -2.4 7.95 -11.15 8.6 -19.85 8.9 -21.3 9.2 -22.8 11.25 -24.9 13.3 -27 16 -26.6 20.7 -27.5 23.2 -26.8 24.673046875 -26.3791015625 25.9 -25.75 26.1271484375 -25.6091796875 26.35 -25.45 Z
M -8.85 -0.75
Q -9.5 -2.3 -8.9 -3.8 -8.25 -5.3 -6.35 -6.15 -5.080859375 -6.7177734375 -3.8 -6.2 -3.7037109375 -6.1345703125 -3.6 -6.05 -2.808984375 -5.4046875 -2.3 -4.7 -1.975 -4.04609375 -1.85 -3.35 -1.55 -1.4 -1.15 1.55
L -5.95 0.65
Q -7.7171875 -0.02109375 -8.8 -0.65 -8.8294921875 -0.7013671875 -8.85 -0.75 Z
M -24.925 10.575
L -25.8 10.675
Q -25.5693359375 10.5255859375 -25.3 10.55 -25.10234375 10.5671875 -24.925 10.575 Z"/>

<path id="Duplicate_Items_Folder_leaf_2_copy_2_0_Layer3_0_1_STROKES" stroke="#000000" stroke-width="4" stroke-linejoin="round" stroke-linecap="round" fill="none" d="
M 13.7 -0.75
Q 14.35 1.25 14.7 5.95 15.05 10.25 15.15 16.85
L 15.125 16.8
Q 15.1380859375 17.4439453125 15.15 18.1
L 15.125 18.05
Q 15.1380859375 18.81328125 15.15 19.6
L 10.8 13.1 7.7 15
Q 7.6 8.7 2.4 3.95
L -2.15 11.4 -4.85 4.15 -11.1 9.25 -10.975 7.65 -11.1 7.75 -11 6.425 -11.1 6.5 -10.825 2.8 -13.2 3.35
Q -16.05 3.95 -17.35 3.45 -16.9876953125 2.7912109375 -16.55 2.15 -17.0052734375 2.0826171875 -17.35 1.95 -17.0509765625 1.4060546875 -16.7 0.875 -17.065234375 0.8095703125 -17.35 0.7 -16.25 -1.3 -14.5 -3.25 -11 -7.25 -7.7 -7.25 -7.22109375 -7.25 -6.8 -7.25
L -7.25 -7.6
Q -6.6875 -7.91484375 -6.025 -8.15
L -7.25 -9.1
Q -6.7841796875 -9.3607421875 -6.25 -9.575
L -7.25 -10.35
Q -6 -11.05 -4.2 -11.4 -0.65 -12.15 1.9 -10.35 6.6 -7.5 8.9 -5.9 12.95 -3.15 13.7 -0.75 Z"/>

<path id="Duplicate_Items_Folder_leaf_1_copy_2_0_Layer3_0_1_STROKES" stroke="#000000" stroke-width="4" stroke-linejoin="round" stroke-linecap="round" fill="none" d="
M 5.25 -25.8
L 6.375 -24.175 6.75 -24.55 6.925 -24.3 15.1 -30.9 15 -28.775 16.1 -29.65 15.975 -27.075 17.6 -28.4 17.175 -19.125 17.25 -19.1 17.275 -18.125 18.25 -17.85 18.275 -17.025 19.75 -16.6 20 -5.55 16.35 -3.95 16.8 -3.95 16.8 -2.675 17.8 -2.7 17.8 -1.4 19.3 -1.45 19.3 1.825 21.85 4.25 21.775 4.3 24.35 6.75 16.15 11.3 14.95 18.55 5.3 14.95 5.125 14.2 3.8 13.7 3.6 12.75 2.8 12.45 1.075 4.75 0.55 4.6 0.5 4.6 -3.35 22.65 -4.55 20.025 -4.85 21.4 -5.725 19.525 -5.85 20.15 -7.3 17 -7.7 16.9 -4.725 5.5 -10.55 6.75 -10.775 5.225 -12.05 5.5 -12.25 4.075 -13.05 4.25 -13.225 3 -15.4 2.65 -15.75 1.575 -16.9 1.4 -17.275 0.25 -17.9 0.15 -18.175 -0.7 -21.15 -1.45 -20.25 -2.1 -22.65 -2.7 -21.6 -3.45 -23.65 -3.95 -17.9 -8.05 -17.15 -16 -10.9 -15.25 -8.75 -16.7 -8.075 -15.225 -7.75 -15.45 -6.975 -13.725 -6.25 -14.2 -6.125 -13.925 -5.35 -22.7 -2.95 -19.85 -2.875 -19.925 -2.85 -20.2 -2.725 -20.075 4.25 -27.05 5.175 -25.725 5.25 -25.8 Z"/>

<path id="Duplicate_Items_Folder_pumpkin_1_copy_2_0_Layer1_0_1_STROKES" stroke="#000000" stroke-width="3" stroke-linejoin="round" stroke-linecap="round" fill="none" d="
M 5.225 -25.05
Q 5.4091796875 -24.9763671875 5.6 -24.9 5.8361328125 -24.8025390625 6.05 -24.7 8.7087890625 -23.4650390625 8.2 -21.8 8.05 -21.25 7.5 -20.4 7.25 -20.1 6.9 -19.65 5.7 -18.15 5.35 -17.45 4.95 -16.5 4.6 -15.7
L 4.35 -15.1 2.15 -13.9 0.15 -15.25 0.8 -17
Q 1.45 -19 1.45 -19.85 1.45 -20.15 0.85 -22.3 0.6 -23.05 0.65 -23.65 0.65 -24.25 0.95 -24.6 1.55 -25.5 2.95 -25.5 3.9537109375 -25.5 5.225 -25.05 Z"/>

<path id="Duplicate_Items_Folder_pumpkin_3_copy_6_0_Layer4_0_1_STROKES" stroke="#000000" stroke-width="3" stroke-linejoin="round" stroke-linecap="round" fill="none" d="
M 14.725 -13.975
Q 14.5525390625 -14.115625 14.35 -14.2 12.5322265625 -14.915234375 9.55 -15.875 10.1904296875 -16.759375 10.375 -17.375 11.8486328125 -20.46015625 6.575 -22.425 6.2466796875 -22.5953125 5.825 -22.725 5.78828125 -22.738671875 5.75 -22.75 5.4560546875 -22.844140625 5.25 -22.9 3.2255859375 -23.46015625 1.65 -23.45 -1.126953125 -23.4517578125 -2.3 -21.925
L -2.2 -22
Q -3.0041015625 -21.246875 -3.05 -20.025 -3.1421875 -19.0677734375 -2.625 -17.825
L -2.675 -17.925
Q -2.5302734375 -17.500390625 -2.425 -17.15 -3.4919921875 -17.2001953125 -4.75 -17.2
L -4.8 -17.2
Q -6.618359375 -17.2419921875 -8.7 -16.8 -9.4240234375 -16.9583984375 -10.85 -17 -14.96953125 -17.206640625 -18.4 -15.175 -22.336328125 -14.2962890625 -25.625 -10.9 -30.0859375 -6.3080078125 -31.425 1.075 -31.4333984375 1.122265625 -31.45 1.175 -31.6421875 1.9505859375 -31.75 2.875
L -31.75 2.9
Q -32.3841796875 9.09375 -29.625 14.425
L -29.65 14.425
Q -27.7560546875 18.15078125 -24.4 19.8 -20.9763671875 23.1203125 -15.275 23.975 -15.1630859375 23.995703125 -15.05 24 -14.5087890625 23.9994140625 -13.85 24.15 -13.712109375 24.1876953125 -13.575 24.2 -11.1576171875 24.307421875 -8.95 24.1 -8.5689453125 24.064453125 -8.25 23.85 -5.3529296875 21.8765625 -2.975 23.075
L -2.925 23.075
Q 0.0796875 24.63671875 1.725 26.05 2.0400390625 26.3130859375 2.45 26.375 4.0212890625 26.64140625 5.75 26.75 12.5943359375 27.17109375 17.9 24.875 19.73828125 24.2642578125 21.625 22.925 21.793359375 22.7984375 21.925 22.625 21.9986328125 22.5841796875 22.075 22.525 28.742578125 17.3818359375 29.55 9.2 29.5578125 9.0859375 29.55 8.975 29.50078125 7.8673828125 29.5 7.05
L 29.5 7
Q 29.39375 4.0099609375 28.475 1.4 27.7708984375 -2.8275390625 25.8 -6.2
L 25.825 -6.175
Q 22.428515625 -12.320703125 16.975 -12.55 16.2005859375 -12.7880859375 14.725 -13.975 Z"/>

<path id="Duplicate_Items_Folder_pumpkin_3_copy_6_0_Layer1_0_1_STROKES" stroke="#000000" stroke-width="3" stroke-linejoin="round" stroke-linecap="round" fill="none" d="
M 5 -13.05
Q 4.45 -12 3.95 -11.1
L 3.6 -10.45 0.55 -9.1 -2.25 -10.6 -1.35 -12.55
Q -0.45 -14.75 -0.45 -15.7 -0.45 -16.05 -1.25 -18.4 -1.6 -19.25 -1.55 -19.9 -1.55 -20.55 -1.15 -20.95 -0.3 -21.95 1.65 -21.95 3.05 -21.95 4.85 -21.45 5.05 -21.4 5.35 -21.3 5.7 -21.2 5.95 -21.05 9.65 -19.7 8.95 -17.85 8.75 -17.25 8 -16.3 7.65 -15.95 7.15 -15.45 5.5 -13.8 5 -13.05 Z"/>
</defs>

<g transform="matrix( 1.27239990234375, -1.1270751953125, 1.1270751953125, 1.27239990234375, 325.95,252.2) ">
<g transform="matrix( 1, 0, 0, 1, 0,0) ">
<use xlink:href="#Duplicate_Items_Folder_vine_2_copy_2_0_Layer3_0_FILL"/>

<use xlink:href="#Duplicate_Items_Folder_vine_2_copy_2_0_Layer3_0_1_STROKES"/>

<use xlink:href="#Duplicate_Items_Folder_vine_2_copy_2_0_Layer3_0_2_STROKES"/>
</g>

<g transform="matrix( 1, 0, 0, 1, 0,0) ">
<use xlink:href="#Duplicate_Items_Folder_vine_2_copy_2_0_Layer2_0_FILL"/>
</g>

<g transform="matrix( 1, 0, 0, 1, 0,0) ">
<use xlink:href="#Duplicate_Items_Folder_vine_2_copy_2_0_Layer1_0_FILL"/>
</g>

<g transform="matrix( 1, 0, 0, 1, 0,0) ">
<use xlink:href="#Duplicate_Items_Folder_vine_2_copy_2_0_Layer0_0_FILL"/>
</g>
</g>

<g transform="matrix( 4.328033447265625, 0, 0, 4.328033447265625, 352.9,356) ">
<g transform="matrix( 1, 0, 0, 1, 0,0) ">
<use xlink:href="#Duplicate_Items_Folder_pumpkin_3_copy_5_0_Layer4_0_FILL"/>
</g>

<g transform="matrix( 1, 0, 0, 1, 0,0) ">
<use xlink:href="#Duplicate_Items_Folder_pumpkin_3_copy_5_0_Layer3_0_FILL"/>
</g>

<g transform="matrix( 1, 0, 0, 1, 0,0) ">
<use xlink:href="#Duplicate_Items_Folder_pumpkin_3_copy_5_0_Layer2_0_FILL"/>
</g>

<g transform="matrix( 1, 0, 0, 1, 0,0) ">
<use xlink:href="#Duplicate_Items_Folder_pumpkin_3_copy_5_0_Layer1_0_FILL"/>

<use xlink:href="#Duplicate_Items_Folder_pumpkin_3_copy_5_0_Layer1_0_1_STROKES"/>
</g>

<g transform="matrix( 1, 0, 0, 1, 0,0) ">
<use xlink:href="#Duplicate_Items_Folder_pumpkin_3_copy_5_0_Layer0_0_FILL"/>
</g>
</g>

<g transform="matrix( 1.55438232421875, 0.38629150390625, -0.38629150390625, 1.55438232421875, 64.45,324.85) ">
<g transform="matrix( 1, 0, 0, 1, 0,0) ">
<use xlink:href="#Duplicate_Items_Folder_vine_1_copy_2_0_Layer3_0_FILL"/>

<use xlink:href="#Duplicate_Items_Folder_vine_1_copy_2_0_Layer3_0_1_STROKES"/>
</g>

<g transform="matrix( 1, 0, 0, 1, 0,0) ">
<use xlink:href="#Duplicate_Items_Folder_vine_1_copy_2_0_Layer2_0_FILL"/>
</g>

<g transform="matrix( 1, 0, 0, 1, 0,0) ">
<use xlink:href="#Duplicate_Items_Folder_vine_1_copy_2_0_Layer1_0_FILL"/>
</g>

<g transform="matrix( 1, 0, 0, 1, 0,0) ">
<use xlink:href="#Duplicate_Items_Folder_vine_1_copy_2_0_Layer0_0_FILL"/>
</g>
</g>

<g transform="matrix( -1.505706787109375, 0.2773590087890625, 0.5093994140625, 1.422607421875, 511.7,225.25) ">
<g transform="matrix( 1, 0, 0, 1, 0,0) ">
<use xlink:href="#Duplicate_Items_Folder_leaf_2_copy_2_0_Layer3_0_FILL"/>

<use xlink:href="#Duplicate_Items_Folder_leaf_2_copy_2_0_Layer3_0_1_STROKES"/>
</g>

<g transform="matrix( 1, 0, 0, 1, 0,0) ">
<use xlink:href="#Duplicate_Items_Folder_leaf_2_copy_2_0_Layer2_0_FILL"/>
</g>

<g transform="matrix( 1, 0, 0, 1, 0,0) ">
<use xlink:href="#Duplicate_Items_Folder_leaf_2_copy_2_0_Layer1_0_FILL"/>
</g>

<g transform="matrix( 1, 0, 0, 1, 0,0) ">
<use xlink:href="#Duplicate_Items_Folder_leaf_2_copy_2_0_Layer0_0_FILL"/>
</g>
</g>

<g transform="matrix( -0.739593505859375, -0.255523681640625, -0.255523681640625, 0.739593505859375, 102.25,267.35) ">
<g transform="matrix( 1, 0, 0, 1, 0,0) ">
<use xlink:href="#Duplicate_Items_Folder_leaf_1_copy_2_0_Layer3_0_FILL"/>

<use xlink:href="#Duplicate_Items_Folder_leaf_1_copy_2_0_Layer3_0_1_STROKES"/>
</g>

<g transform="matrix( 1, 0, 0, 1, 0,0) ">
<use xlink:href="#Duplicate_Items_Folder_leaf_1_copy_2_0_Layer2_0_FILL"/>
</g>

<g transform="matrix( 1, 0, 0, 1, 0,0) ">
<use xlink:href="#Duplicate_Items_Folder_leaf_1_copy_2_0_Layer1_0_FILL"/>
</g>

<g transform="matrix( 1, 0, 0, 1, 0,0) ">
<use xlink:href="#Duplicate_Items_Folder_leaf_1_copy_2_0_Layer0_0_FILL"/>
</g>
</g>

<g transform="matrix( 3.4806365966796875, 0, 0, 3.860443115234375, 153.1,383.85) ">
<g transform="matrix( 1, 0, 0, 1, 0,0) ">
<use xlink:href="#Duplicate_Items_Folder_pumpkin_1_copy_2_0_Layer4_0_FILL"/>
</g>

<g transform="matrix( 1, 0, 0, 1, 0,0) ">
<use xlink:href="#Duplicate_Items_Folder_pumpkin_1_copy_2_0_Layer3_0_FILL"/>
</g>

<g transform="matrix( 1, 0, 0, 1, 0,0) ">
<use xlink:href="#Duplicate_Items_Folder_pumpkin_1_copy_2_0_Layer2_0_FILL"/>
</g>

<g transform="matrix( 1, 0, 0, 1, 0,0) ">
<use xlink:href="#Duplicate_Items_Folder_pumpkin_1_copy_2_0_Layer1_0_FILL"/>

<use xlink:href="#Duplicate_Items_Folder_pumpkin_1_copy_2_0_Layer1_0_1_STROKES"/>
</g>

<g transform="matrix( 1, 0, 0, 1, 0,0) ">
<use xlink:href="#Duplicate_Items_Folder_pumpkin_1_copy_2_0_Layer0_0_FILL"/>
</g>
</g>

<g transform="matrix( -1.597259521484375, 0.9522247314453125, 0.8697662353515625, 1.459075927734375, 437.55,412.85) ">
<g transform="matrix( 1, 0, 0, 1, 0,0) ">
<use xlink:href="#Duplicate_Items_Folder_vine_1_copy_2_0_Layer3_0_FILL"/>

<use xlink:href="#Duplicate_Items_Folder_vine_1_copy_2_0_Layer3_0_1_STROKES"/>
</g>

<g transform="matrix( 1, 0, 0, 1, 0,0) ">
<use xlink:href="#Duplicate_Items_Folder_vine_1_copy_2_0_Layer2_0_FILL"/>
</g>

<g transform="matrix( 1, 0, 0, 1, 0,0) ">
<use xlink:href="#Duplicate_Items_Folder_vine_1_copy_2_0_Layer1_0_FILL"/>
</g>

<g transform="matrix( 1, 0, 0, 1, 0,0) ">
<use xlink:href="#Duplicate_Items_Folder_vine_1_copy_2_0_Layer0_0_FILL"/>
</g>
</g>

<g transform="matrix( -1.0972900390625, -0.5196075439453125, -0.5196075439453125, 1.0973663330078125, 207.9,420.65) ">
<g transform="matrix( 1, 0, 0, 1, 0,0) ">
<use xlink:href="#Duplicate_Items_Folder_vine_2_copy_2_0_Layer3_0_FILL"/>

<use xlink:href="#Duplicate_Items_Folder_vine_2_copy_2_0_Layer3_0_1_STROKES"/>

<use xlink:href="#Duplicate_Items_Folder_vine_2_copy_2_0_Layer3_0_2_STROKES"/>
</g>

<g transform="matrix( 1, 0, 0, 1, 0,0) ">
<use xlink:href="#Duplicate_Items_Folder_vine_2_copy_2_0_Layer2_0_FILL"/>
</g>

<g transform="matrix( 1, 0, 0, 1, 0,0) ">
<use xlink:href="#Duplicate_Items_Folder_vine_2_copy_2_0_Layer1_0_FILL"/>
</g>

<g transform="matrix( 1, 0, 0, 1, 0,0) ">
<use xlink:href="#Duplicate_Items_Folder_vine_2_copy_2_0_Layer0_0_FILL"/>
</g>
</g>

<g transform="matrix( -3.3521575927734375, 0, 0, 3.3521575927734375, 384.55,458.25) ">
<g transform="matrix( 1, 0, 0, 1, 0,0) ">
<use xlink:href="#Duplicate_Items_Folder_pumpkin_2_copy_0_Layer3_0_FILL"/>
</g>

<g transform="matrix( 1, 0, 0, 1, 0,0) ">
<use xlink:href="#Duplicate_Items_Folder_pumpkin_2_copy_0_Layer2_0_FILL"/>
</g>

<g transform="matrix( 1, 0, 0, 1, 0,0) ">
<use xlink:href="#Duplicate_Items_Folder_pumpkin_2_copy_0_Layer1_0_FILL"/>
</g>

<g transform="matrix( 1, 0, 0, 1, 0,0) ">
<use xlink:href="#Duplicate_Items_Folder_pumpkin_2_copy_0_Layer0_0_FILL"/>
</g>
</g>

<g transform="matrix( -1.8090362548828125, 0, 0, 1.8090362548828125, 212.3,437.55) ">
<g transform="matrix( 1, 0, 0, 1, 0,0) ">
<use filter="url(#Filter_1)" xlink:href="#Duplicate_Items_Folder_pumpkin_3_copy_6_0_Layer4_0_FILL"/>

<use filter="url(#Filter_1)" xlink:href="#Duplicate_Items_Folder_pumpkin_3_copy_6_0_Layer4_0_1_STROKES"/>
</g>

<g transform="matrix( 1, 0, 0, 1, 0,0) ">
<use filter="url(#Filter_1)" xlink:href="#Duplicate_Items_Folder_pumpkin_3_copy_6_0_Layer3_0_FILL"/>
</g>

<g transform="matrix( 1, 0, 0, 1, 0,0) ">
<use filter="url(#Filter_1)" xlink:href="#Duplicate_Items_Folder_pumpkin_3_copy_6_0_Layer2_0_FILL"/>
</g>

<g transform="matrix( 1, 0, 0, 1, 0,0) ">
<use filter="url(#Filter_1)" xlink:href="#Duplicate_Items_Folder_pumpkin_3_copy_6_0_Layer1_0_FILL"/>

<use filter="url(#Filter_1)" xlink:href="#Duplicate_Items_Folder_pumpkin_3_copy_6_0_Layer1_0_1_STROKES"/>
</g>

<g transform="matrix( 1, 0, 0, 1, 0,0) ">
<use filter="url(#Filter_1)" xlink:href="#Duplicate_Items_Folder_pumpkin_3_copy_6_0_Layer0_0_FILL"/>
</g>
</g>

<g transform="matrix( 1.0525360107421875, -0.171600341796875, 0, 1.0525360107421875, 130,426.3) ">
<g transform="matrix( 1, 0, 0, 1, 0,0) ">
<use xlink:href="#Duplicate_Items_Folder_leaf_2_copy_2_0_Layer3_0_FILL"/>

<use xlink:href="#Duplicate_Items_Folder_leaf_2_copy_2_0_Layer3_0_1_STROKES"/>
</g>

<g transform="matrix( 1, 0, 0, 1, 0,0) ">
<use xlink:href="#Duplicate_Items_Folder_leaf_2_copy_2_0_Layer2_0_FILL"/>
</g>

<g transform="matrix( 1, 0, 0, 1, 0,0) ">
<use xlink:href="#Duplicate_Items_Folder_leaf_2_copy_2_0_Layer1_0_FILL"/>
</g>

<g transform="matrix( 1, 0, 0, 1, 0,0) ">
<use xlink:href="#Duplicate_Items_Folder_leaf_2_copy_2_0_Layer0_0_FILL"/>
</g>
</g>

<g transform="matrix( 0.96038818359375, -1.189453125, 1.006134033203125, 1.12445068359375, 357.55,414.25) ">
<g transform="matrix( 1, 0, 0, 1, 0,0) ">
<use xlink:href="#Duplicate_Items_Folder_leaf_2_copy_2_0_Layer3_0_FILL"/>

<use xlink:href="#Duplicate_Items_Folder_leaf_2_copy_2_0_Layer3_0_1_STROKES"/>
</g>

<g transform="matrix( 1, 0, 0, 1, 0,0) ">
<use xlink:href="#Duplicate_Items_Folder_leaf_2_copy_2_0_Layer2_0_FILL"/>
</g>

<g transform="matrix( 1, 0, 0, 1, 0,0) ">
<use xlink:href="#Duplicate_Items_Folder_leaf_2_copy_2_0_Layer1_0_FILL"/>
</g>

<g transform="matrix( 1, 0, 0, 1, 0,0) ">
<use xlink:href="#Duplicate_Items_Folder_leaf_2_copy_2_0_Layer0_0_FILL"/>
</g>
</g>
</svg>
