
<svg xmlns="http://www.w3.org/2000/svg" version="1.1" xmlns:xlink="http://www.w3.org/1999/xlink" preserveAspectRatio="none" x="0px" y="0px" width="560px" height="544px" viewBox="0 0 560 544">
<defs>
<filter id="Filter_1" x="-20%" y="-20%" width="140%" height="140%" color-interpolation-filters="sRGB">
<feColorMatrix in="SourceGraphic" type="matrix" values="1.4568981623851691 1.8916331486178188 -2.348531311002988 0 0 -0.5486690208454226 0.8659286070261908 0.6827404138192317 0 0 1.779227514319453 -1.6878206635174202 0.908593149197967 0 0 0 0 0 1 0 " result="result1"/>

<feFlood flood-color="#99FF00" flood-opacity="1" in="result1" result="result2"/>

<feGaussianBlur in="result1" stdDeviation="4.666666666666667,4.666666666666667" result="result3"/>

<feComposite in2="result3" in="result2" operator="in" result="result4"/>

<feComposite in2="result4" in="result1" operator="over" result="result5"/>
</filter>

<g id="Layer0_0_FILL">
<path fill="#BDA788" stroke="none" d="
M 269.4 516.3
Q 265.95 516.3 263.6 517.05 261.1 518 261.1 519.4
L 261.3 519.75
Q 259.55 519.95 258.2 520.35 256.25 521.1 256.25 522.5 256.25 522.65 256.25 523.05 253.75 523.05 252.2 523.85 249.65 524.8 249.65 526.35 249.65 527.15 250.25 527.7 250.45 528.1 251.2 528.3
L 251.4 528.3
Q 256.85 519.95 275.6 517.05 272.9 516.3 269.4 516.3
M 282 515.7
Q 279.1 515.7 277.35 516.3 276.6 516.65 276.6 517.05 280.65 516.3 285.7 516.1 284.15 515.7 282 515.7 Z"/>

<path fill="#635036" stroke="none" d="
M 289.4 515.7
Q 287.05 516.3 287.05 517.05
L 286.85 517.05
Q 286.85 516.3 285.3 515.7 283.55 515.1 281.05 515.1 278.55 515.1 276.6 515.7 275.6 516.3 275.25 516.85 275.05 516.65 274.85 516.65 272.15 515.7 268.65 515.7 264.95 515.7 262.65 516.65 260.1 517.45 260.1 518.6 260.1 519 260.3 519.2 258.75 519.4 257.6 519.75 255.3 520.75 255.3 521.7 255.3 522.1 255.3 522.5 253.15 522.65 251.4 523.25 248.7 524.4 248.7 525.75 248.7 526.95 250.25 527.7 249.65 527.15 249.65 526.35 249.65 524.8 252.2 523.85 253.75 523.05 256.25 523.05 256.25 522.65 256.25 522.5 256.25 521.1 258.2 520.35 259.55 519.95 261.3 519.75
L 261.1 519.4
Q 261.1 518 263.6 517.05 265.95 516.3 269.4 516.3 272.9 516.3 275.6 517.05 256.85 519.95 251.4 528.3 254.1 529.05 258 529.05 260.7 529.05 262.65 528.85
L 262.85 528.85
Q 263.05 530.4 264.6 531.6 265.75 532.95 267.85 532.95 269.6 532.95 270.95 531.6 271.35 531.4 271.75 531.2 274.05 531.95 277.15 531.95 280.45 531.95 283.2 531.2 283.75 531.6 284.55 531.95 287.05 533.5 291.15 533.5 294.8 533.5 298.1 529.65 301.2 532.55 305.45 532.55 311.1 532.55 315.35 531.6 319.6 530.6 319.6 529.25 319.6 529.05 319.8 527.5 321.55 525.75 321.55 524.6
L 321.55 524.4
Q 321.35 523.85 321.35 523.45 321.15 523.25 320.75 523.25 319.8 522.3 317.5 521.5 315.15 520.75 312.05 520.35 316.7 519.95 311.1 518.6 305.45 517.25 303.7 517.25 301.8 517.05 302 517.25
L 301.6 517.25 301.6 517.05
Q 301.6 516.3 299.45 515.7 297.35 515.3 294.4 515.3 291.5 515.3 289.4 515.7
M 277.35 516.3
Q 279.1 515.7 282 515.7 284.15 515.7 285.7 516.1 280.65 516.3 276.6 517.05 276.6 516.65 277.35 516.3 Z"/>

<path fill="#3C3020" stroke="none" d="
M 314.2 515.5
Q 314.2 515.3 314.2 515.1 314.2 514.35 311.1 513.35 308.35 512.8 304.3 512.8 300.45 512.8 297.35 513.35 294.4 514.35 294.4 515.1
L 294.4 515.3
Q 297.35 515.3 299.45 515.7 301.6 516.3 301.6 517.05
L 301.6 517.25 302 517.25
Q 301.8 517.05 303.7 517.25 305.45 517.25 311.1 518.6 316.7 519.95 312.05 520.35 315.15 520.75 317.5 521.5 319.8 522.3 320.75 523.25 321.15 523.25 321.35 523.45 321.35 523.85 321.55 524.4
L 321.55 524.6
Q 321.55 525.75 319.8 527.5 319.6 529.05 319.6 529.25 319.6 530.6 315.35 531.6 311.1 532.55 305.45 532.55 301.2 532.55 298.1 529.65 294.8 533.5 291.15 533.5 287.05 533.5 284.55 531.95 283.75 531.6 283.2 531.2 280.45 531.95 277.15 531.95 274.05 531.95 271.75 531.2 271.35 531.4 270.95 531.6 269.6 532.95 267.85 532.95 265.75 532.95 264.6 531.6 263.05 530.4 262.85 528.85
L 262.65 528.85
Q 260.7 529.05 258 529.05 254.1 529.05 251.4 528.3
L 251.2 528.3
Q 250.45 528.1 250.25 527.7 248.7 526.95 248.7 525.75 248.7 524.4 251.4 523.25 253.15 522.65 255.3 522.5 255.3 522.1 255.3 521.7 255.3 520.75 257.6 519.75 258.75 519.4 260.3 519.2 260.1 519 260.1 518.6 260.1 517.45 262.65 516.65 264.95 515.7 268.65 515.7 272.15 515.7 274.85 516.65 275.05 516.65 275.25 516.85 275.6 516.3 276.6 515.7 278.55 515.1 281.05 515.1 283.55 515.1 285.3 515.7 286.85 516.3 286.85 517.05
L 287.05 517.05
Q 287.05 516.3 289.4 515.7 291.5 515.3 294.4 515.3 293.65 514.35 291.7 513.35 289.6 512.4 285.9 512.4 282.2 512.4 279.9 513.35 278.55 514.15 277.75 514.9 277.55 514.75 277.35 514.55 273.9 513.35 269.25 513.35 264.2 513.35 260.9 514.55 257.6 515.7 257.6 517.45 257.6 517.85 257.8 518 255.3 518.4 253.55 519 250.65 519.95 250.65 521.7 250.65 522.1 250.8 522.5 247.7 522.65 245.2 523.65 241.7 525.2 241.7 527.15 241.7 529.05 245.2 530.6 248.9 531.95 254.7 532.15 260.3 532.35 263.2 535.25 264.95 537.2 267.85 537.2 270.6 537.2 272.5 535.05 272.7 534.9 272.9 534.7 276.6 535.65 280.65 535.65 284.15 535.65 290.75 535.65 294.6 537.8 299.65 537.8 305.1 537.8 308.75 535.65 313.6 536.6 319.8 536.6 327.75 536.6 333 535.05 338.8 533.9 338.8 531.95 338.8 531.8 339.2 529.65 341.9 527.3 341.9 525.6 341.9 525.4 341.9 525.2 341.5 524.4 340.95 523.85
L 340.75 523.65
Q 339.2 522.5 336.1 521.3 332.6 520.15 328.55 519.75 334.75 519.4 326.95 517.45 319.6 515.7 316.9 515.5 314.4 515.3 314.75 515.5
L 314.2 515.5 Z"/>
</g>

<g id="Duplicate_Items_Folder_final_0_Layer3_0_FILL">
<path fill="#94AB5C" stroke="none" d="
M -0.75 -176.15
Q -3.1208984375 -119.58828125 -8.15 -150.5
L -7 -136 -6 -92 -7.8 -77.9
Q -3.3966796875 -37.014453125 3.6 -116.4
L -0.75 -176.15
M -7.3 -215.6
L -7.6 -206.1 -3.35 -215.3 -3.35 -215.6 -7.3 -215.6
M 6 -14
L 4.25 -29.7
Q -2.1744140625 -26.923046875 -1.4 18.5
L 7 21 6 -14 Z"/>

<path fill="#BCC95F" stroke="none" d="
M -3.35 -215.3
L -7.6 -206.1 -9 -162 -8.15 -150.5
Q -3.1208984375 -119.58828125 -0.75 -176.15
L -3.35 -215.3
M 4 -111
L 3.6 -116.4
Q -3.3966796875 -37.014453125 -7.8 -77.9
L -11 -53 -5 -36 -4 18 -3 18 -1.4 18.5
Q -2.1744140625 -26.923046875 4.25 -29.7
L 3 -41 3 -76 4 -111 Z"/>
</g>

<g id="Duplicate_Items_Folder_leaf_2_copy_2_0_Layer2_0_FILL">
<path fill="#74BB44" stroke="none" d="
M 21.9 -19.6
L 22.45 -14.2
Q 105.6 -15.1 189.3 31.9
L 193.05 14.45
Q 103.1 -28.75 21.9 -19.6 Z"/>
</g>

<g id="Duplicate_Items_Folder_leaf_2_copy_2_0_Layer1_0_FILL">
<path fill="#FFCC00" stroke="none" d="
M -157.8 39.95
L -155.7 8.35
Q -183.465234375 16.68515625 -195.55 20.65 -183.465234375 16.68515625 -155.7 8.35
L -181.95 -7.5
Q -233.863671875 9.173046875 -276.3 40.65 -217.05234375 48.16796875 -157.8 39.95
M -70.65 -78.3
Q -48.9830078125 -72.63203125 -37.8 -78.4 -57.309375 -92.70625 -83.3 -105.15
L -70.65 -78.3
M -125.9 -51.7
Q -149.278125 -53.7 -159.35 -54.65 -188.15 -57.35 -218.45 -58.75 -193.8609375 -45.9873046875 -160.35 -37.7
L -159.8 -38.1 -125.9 -51.7
M 5.7 -78.6
Q 15.7958984375 -72.535546875 28.45 -78.7 26.515625 -88.4232421875 21.2 -98.85 11.45625 -88.715234375 5.7 -78.6 Z"/>

<path fill="#FF6600" stroke="none" d="
M -155.7 8.35
L -157.8 39.95
Q -140.939453125 37.654296875 -124.1 34.05
L -126.3 1.6
Q -155.2861328125 8.278125 -155.7 8.35
M -149.65 -16.2
Q -154.5271484375 -15.1021484375 -159.35 -13.9 -170.8689453125 -11.0224609375 -181.95 -7.5
L -155.7 8.35
Q -155.2861328125 8.278125 -126.3 1.6
L -149.65 -16.2
M -159.8 -38.1
L -159.35 -37.45
Q -145.9078125 -34.1814453125 -131.05 -31.65
L -92.25 -46.25
Q -97.1548828125 -47.0904296875 -91.6 -46.5 -123.110546875 -50.766015625 -125.9 -51.7
L -159.8 -38.1 Z"/>

<path fill="#91AA55" stroke="none" d="
M -86.7 24.7
L -87.1 24.05 -89.7 25.6
Q -88.167578125 25.167578125 -86.7 24.7
M -56.8 14.15
Q -58.278125 14.5466796875 -59.25 14.45
L -59 15.05
Q -57.8705078125 14.605078125 -56.8 14.15
M -28.6 -15.2
L -25.95 -15.45
Q -26.16875 -15.45 -26.35 -15.45
L -26.4 -15.45
Q -27.45 -15.35 -28.6 -15.2
M -58.7 -12.05
Q -59.197265625 -11.884765625 -56.75 -12
L -55.5 -12.55 -58.7 -12.05
M -55.95 -12.05
L -56.75 -12
Q -59.197265625 -11.884765625 -58.7 -12.05
L -74.6 -9.6
Q -69.5638671875 -10.27734375 -55.95 -12.05
M -87.1 -7.95
L -89.6 -6.95
Q -83.7 -8.1 -77.85 -9.1 -82.3 -8.55 -87.1 -7.95
M -114.35 -21.75
L -113.2 -22.5
Q -113.8138671875 -22.394140625 -114.45 -22.3
L -114.35 -21.75
M -84.45 -25.1
Q -84.5 -25.15 -84.5 -25.1
L -84.55 -25.1 -84.15 -23.9
Q -82.606640625 -24.5638671875 -78.15 -25.35
L -80.85 -25.35
Q -82.65 -25.25 -84.45 -25.1
M -159.8 -38.1
L -160.35 -37.7
Q -159.8439453125 -37.570703125 -159.35 -37.45
L -159.8 -38.1
M 28 -12.9
L 32.65 -12.9
Q 30.35 -14.3 28 -15.5
L 28 -12.9 Z"/>

<path fill="#798D47" stroke="none" d="
M -86.65 25.4
L -86.7 24.7
Q -88.167578125 25.167578125 -89.7 25.6
L -86.65 25.4
M -24.9 24.5
L -23.95 21.85 -28.5 30.65
Q -27.85 29.45 -27.25 28.25
L -25.85 26.2 -24.9 24.5
M -37.65 7.2
L -39 6.2
Q -43.6763671875 8.4318359375 -48.4 10.55
L -37.65 7.2
M -3.25 -12.9
L -2.2 -14.7
Q -3.75 -13.8 -5.25 -12.9
L -3.25 -12.9 Z"/>

<path fill="#ECBD02" stroke="none" d="
M -63.4 68
Q -58.0416015625 63.8919921875 -53.35 59.8 -85.6212890625 52.576171875 -123.55 64.6
L -138.15 91.6
Q -100.75 91.4 -63.4 68
M 50.8 31.75
Q 36.7029296875 35.078515625 39.5 43.7
L 56.15 53.1
Q 55.8724609375 42.4376953125 50.8 31.75
M 11.35 60.55
L 12.2 55.35
Q -4.7349609375 46.744921875 -24.9 57.85
L -24.9 73.45
Q -22 90.05 -14.85 106.65 8 88.5 11.35 60.55 Z"/>

<path fill="#F46302" stroke="none" d="
M -53.35 59.8
Q -52.80078125 59.3365234375 -52.25 58.85 -43.7685546875 51.3078125 -37.6 43.75 -70.7603515625 38.7501953125 -115.15 49.05
L -123.55 64.6
Q -85.6212890625 52.576171875 -53.35 59.8
M 12.2 55.35
L 14.65 40.2
Q -2.942578125 32.9689453125 -24.9 42.9
L -24.9 57.85
Q -4.7349609375 46.744921875 12.2 55.35
M 50.8 31.75
Q 47.5314453125 24.8998046875 42.25 18 24.5203125 23.5396484375 25.45 35.8
L 39.5 43.7
Q 36.7029296875 35.078515625 50.8 31.75 Z"/>

<path fill="#3E3EB9" stroke="none" d="
M -23.95 21.85
L -12.45 1.8 -37.65 7.2 -48.4 10.55
Q -50.31171875 11.4046875 -52.25 12.25 -54.5033203125 13.21875 -56.8 14.15 -57.8705078125 14.605078125 -59 15.05 -72.6017578125 20.5388671875 -86.7 24.7
L -86.65 25.4
Q -54.5935546875 15.5076171875 -23.95 21.85
M 14.95 19.55
L 13.7 7.4 -12.45 1.8 -23.95 21.85
Q -7.45078125 12.5970703125 14.95 19.55
M 31.9 6.35
Q 31.6 6 31.25 5.7
L 30.9 5.35 23.5 8.85 23.1 9.25 13.7 7.4 14.95 19.55 15.95 22.25
Q 24.4888671875 12.6072265625 36.5 11.1 34.610546875 9.0650390625 32.55 7
L 31.9 6.35 Z"/>

<path fill="#93AC58" stroke="none" d="
M -25.85 26.2
L -24.9 26.85 -24.9 24.5 -25.85 26.2
M -24.9 27.45
Q -25 28 -25.1 28.6 -26.30703125 35.809765625 -26.75 43 -27.1373046875 50.5095703125 -26.7 58 -26.259765625 65.721484375 -24.9 73.45
L -24.9 57.85 -24.9 42.9 -24.9 27.45
M -25.95 -15.45
L -25.85 -15.55
Q -25.8896484375 -15.5068359375 -25.95 -15.5 -26.16875 -15.45625 -26.35 -15.45 -26.16875 -15.45 -25.95 -15.45
M -77.85 -9.1
Q -77.55 -9.15 -77.25 -9.2 -77.16796875 -9.2103515625 -77 -9.25 -74.7140625 -9.5150390625 -56.7 -11.75 -59.212890625 -11.47578125 -52.25 -12.35 -38.3 -14.1 -28.6 -15.2 -27.45 -15.35 -26.4 -15.45 -27.5 -15.4 -28.6 -15.3 -39.85 -14.55 -52.25 -13 -54.19609375 -12.7578125 -55.6 -12.6
L -55.5 -12.55 -56.75 -12 -55.95 -12.05
Q -69.5638671875 -10.27734375 -74.6 -9.6 -76.98125 -9.2734375 -77.4 -9.2 -77.65 -9.15 -77.85 -9.1
M -5.6 -17.15
Q -5.528515625 -16.917578125 -5.5 -16.7 -2.00234375 -16.8810546875 -1.7 -16.9 -0.9845703125 -16.9447265625 -5.6 -17.15 Z"/>

<path fill="#31C6C6" stroke="none" d="
M -28.6 30.75
Q -28.55 30.7 -28.5 30.65
L -23.95 21.85
Q -54.5935546875 15.5076171875 -86.65 25.4
L -89.7 25.6
Q -97.0197265625 27.6982421875 -104.5 29.45
L -115.15 49.05
Q -70.7603515625 38.7501953125 -37.6 43.75 -32.2361328125 37.2578125 -28.6 30.75
M 14.65 40.2
L 16.15 31.1 14.95 19.55
Q -7.45078125 12.5970703125 -23.95 21.85
L -24.9 24.5 -24.9 26.85 -24.8 26.9
Q -24.85 27.2 -24.9 27.45
L -24.9 42.9
Q -2.942578125 32.9689453125 14.65 40.2
M 15.95 22.25
L 14.95 19.55 16.15 31.1 16.2 30.6 25.45 35.8
Q 24.5203125 23.5396484375 42.25 18 39.6330078125 14.5775390625 36.5 11.1 24.4888671875 12.6072265625 15.95 22.25 Z"/>

<path fill="#9ECF7C" stroke="none" d="
M -31.25 -35.05
L -32.5 -34.8
Q -30.9794921875 -34.4076171875 -28.6 -33.85
L -31.25 -35.05
M -33.05 -49.2
L -32.1 -48.8 -31.95 -49.45 -35.25 -50.15 -33.05 -49.2
M -29.4 -47.7
Q -29.4994140625 -47.72734375 -29.65 -47.8
L -31.45 -48.55
Q -31.758984375 -48.6501953125 -32.1 -48.8 -30.2564453125 -47.9724609375 -28.65 -47.25 -28.985546875 -47.5146484375 -29.4 -47.7
M -1.75 -43.9
Q -2.0697265625 -44.3666015625 -2.25 -44.5 -2.3767578125 -44.56796875 -2.4 -44.4 -2.115625 -44.1255859375 -1.5 -43.5 -1.635546875 -43.7263671875 -1.75 -43.9
M -35.25 -50.15
L -34.45 -49.7
Q -33.21796875 -49.2248046875 -32.1 -48.8 -32.54296875 -48.98125 -33.05 -49.2
L -35.25 -50.15 Z"/>

<path fill="#8C8CD9" stroke="none" d="
M -33.05 -49.2
Q -32.54296875 -48.98125 -32.1 -48.8 -31.758984375 -48.6501953125 -31.45 -48.55
L -32.1 -48.8 -33.05 -49.2
M -34.45 -49.7
Q -35.3810546875 -50.0384765625 -36.4 -50.4 -42.201953125 -52.490234375 -49.4 -54.7
L -51.5 -55.3
Q -54.682421875 -56.208203125 -58.15 -57.15
L -58.7 -55.6 -60.5 -41.25 -60.85 -41.15
Q -58.6416015625 -40.3865234375 -31.25 -35.05
L -33.1 -48.35 -34.45 -49.7
M -34.45 -49.7
L -35.25 -50.15 -31.95 -49.45 -1.25 -43.05
Q -1.3720703125 -43.298828125 -1.5 -43.5 -2.115625 -44.1255859375 -2.4 -44.4 -2.414453125 -44.294140625 -2.4 -44.15 -2.90234375 -44.821875 -2.4 -44.4 -2.3767578125 -44.56796875 -2.25 -44.5 -8.1158203125 -51.433203125 -11.8 -55.4 -23.9056640625 -47.8134765625 -49.4 -54.7 -42.201953125 -52.490234375 -36.4 -50.4 -35.3810546875 -50.0384765625 -34.45 -49.7
M 24.8 -46.5
Q 26.90078125 -50.928125 28.05 -55.55 11.5716796875 -49.4134765625 -2.3 -55.45 -2.8021484375 -51.1142578125 -1.05 -43.05
L -1.05 -43.05
Q -0.980859375 -42.774609375 -0.95 -42.55
L 24.8 -46.5 Z"/>

<path fill="#74BB44" stroke="none" d="
M -52.45 -12.25
L -52.25 -12.35
Q -59.212890625 -11.47578125 -56.7 -11.75
L -52.45 -12.25 Z"/>

<path fill="#6666CC" stroke="none" d="
M -55.5 -12.55
L -55.6 -12.6
Q -58.2744140625 -12.2048828125 -58.7 -12.05
L -55.5 -12.55
M -89.6 -6.95
Q -90.466796875 -6.7849609375 -91.15 -6.7
L -87.1 24.05 -86.7 24.7
Q -72.6017578125 20.5388671875 -59 15.05
L -59.25 14.45 -57.15 9.4 -52.45 -12.25 -56.7 -11.75
Q -74.7140625 -9.5150390625 -77 -9.25 -77.16796875 -9.2103515625 -77.25 -9.2 -77.55 -9.15 -77.85 -9.1 -83.7 -8.1 -89.6 -6.95
M -84.55 -25.1
Q -87.1 -24.95 -89.6 -24.8 -101.5728515625 -23.934375 -113.2 -22.5
L -114.35 -21.75 -91.25 -7.45
Q -96.0361328125 -5.823828125 -91.15 -6.7 -90.466796875 -6.7849609375 -89.6 -6.95
L -87.1 -7.95
Q -82.3 -8.55 -77.85 -9.1 -77.65 -9.15 -77.4 -9.2 -76.98125 -9.2734375 -74.6 -9.6
L -58.7 -12.05
Q -58.2744140625 -12.2048828125 -55.6 -12.6
L -81.1 -23.95
Q -85.9451171875 -23.0921875 -84.15 -23.9
L -84.55 -25.1
M -89.6 -26.15
Q -87.1 -25.9 -84.55 -25.65
L -84.4 -25.65
Q -82.65 -25.5 -80.85 -25.35
L -78.15 -25.35 -32.5 -34.8 -31.25 -35.05
Q -58.6416015625 -40.3865234375 -60.85 -41.15
L -104.5 -27.8
Q -97.182421875 -26.884765625 -89.6 -26.15 Z"/>

<path fill="#77DDDD" stroke="none" d="
M -21.55 -65.15
Q -21.7310546875 -65.315234375 -21.95 -65.5 -38.076953125 -58.5689453125 -64.55 -65.35
L -61.05 -57.95
Q -59.5638671875 -57.5513671875 -58.15 -57.15 -54.682421875 -56.208203125 -51.5 -55.3
L -49.4 -54.7
Q -23.9056640625 -47.8134765625 -11.8 -55.4 -16.3376953125 -60.3640625 -21.55 -65.15
M -85.2 -64.3
L -87.7 -62.5 -91.6 -46.5
Q -97.1548828125 -47.0904296875 -92.25 -46.25 -91.18203125 -46.055859375 -89.6 -45.8 -83.75859375 -44.8650390625 -60.5 -41.25
L -58.7 -55.6 -58.15 -57.15
Q -59.5638671875 -57.5513671875 -61.05 -57.95
L -60.95 -57.75
Q -62.45 -58.25 -63.9 -58.7 -64.35 -58.8 -64.7 -58.95 -74.8673828125 -62.0373046875 -85.2 -64.3
M 29.55 -65.15
Q 29.5625 -65.4146484375 29.55 -65.7 16.1369140625 -60.7583984375 -0.1 -65.55 -0.13671875 -65.3548828125 -0.2 -65.15 -1.704296875 -60.28984375 -2.3 -55.45 11.5716796875 -49.4134765625 28.05 -55.55 29.2880859375 -60.2390625 29.55 -65.15 Z"/>

<path fill="#FE8E45" stroke="none" d="
M -21.95 -65.5
Q -29.232421875 -72.1234375 -37.8 -78.4 -48.9830078125 -72.63203125 -70.65 -78.3
L -64.55 -65.35
Q -38.076953125 -58.5689453125 -21.95 -65.5
M -87.7 -62.5
L -89.6 -65.2
Q -102.8029296875 -67.8294921875 -116.3 -69.05
L -125.9 -51.7
Q -123.110546875 -50.766015625 -91.6 -46.5
L -87.7 -62.5
M 28.45 -78.7
Q 15.7958984375 -72.535546875 5.7 -78.6 1.9890625 -72.069921875 -0.1 -65.55 16.1369140625 -60.7583984375 29.55 -65.7 29.80625 -72.019921875 28.45 -78.7 Z"/>

<path fill="#33CCCC" stroke="none" d="
M -91.15 -6.7
Q -96.0361328125 -5.823828125 -91.25 -7.45 -121.4470703125 -0.4056640625 -126.3 1.6
L -124.1 34.05
Q -114.2888671875 31.968359375 -104.5 29.45 -97.0197265625 27.6982421875 -89.7 25.6
L -87.1 24.05 -91.15 -6.7
M -114.35 -21.75
L -114.45 -22.3
Q -132.4958984375 -19.96953125 -149.65 -16.2
L -126.3 1.6
Q -121.4470703125 -0.4056640625 -91.25 -7.45
L -114.35 -21.75
M -89.6 -45.8
Q -91.18203125 -46.055859375 -92.25 -46.25
L -131.05 -31.65
Q -118.2759765625 -29.4333984375 -104.5 -27.8
L -60.85 -41.15 -60.5 -41.25
Q -83.75859375 -44.8650390625 -89.6 -45.8 Z"/>

<path fill="#AABC7E" stroke="none" d="
M -87.7 -62.5
L -85.2 -64.3
Q -87.38203125 -64.758203125 -89.6 -65.2
L -87.7 -62.5
M -218.45 -58.75
L -218.55 -59.2
Q -218.8013671875 -59.1177734375 -219.05 -59.05 -218.75 -58.9 -218.45 -58.75 Z"/>

<path fill="#FEE481" stroke="none" d="
M -218.55 -59.2
L -218.45 -58.75
Q -188.15 -57.35 -159.35 -54.65 -149.278125 -53.7 -125.9 -51.7
L -116.3 -69.05
Q -126.878515625 -70.0119140625 -137.65 -70.1 -148.45 -70.2 -159.35 -69.4 -188.3611328125 -67.366796875 -218.55 -59.2 Z"/>

<path fill="#5E9636" stroke="none" d="
M 30.9 5.35
L 32.4 4.65 32.2 4.2 30.9 5.35 Z"/>

<path fill="#980101" stroke="none" d="
M 32.65 -12.9
L 28 -12.9 -3.25 -12.9 -5.25 -12.9 -17.45 -7.95 -24.9 -1.35
Q -26.85 -0.25 -28.6 0.7 -33.7 3.55 -37.05 5.2
L -39 6.2 -37.65 7.2 -12.45 1.8 -12.45 -0.45 -12.45 1.8 13.7 7.4 12.5 -4.2 13.7 7.4 23.1 9.25 23.5 8.85 30.9 5.35 16.2 -9.2 30.9 5.35 32.2 4.2 32.4 4.65 30.9 5.35 31.25 5.7 48.7 0.85
Q 48.5154296875 0.6373046875 48.3 0.4 46.827734375 -1.2779296875 45.25 -2.85 43.9314453125 -4.1982421875 42.55 -5.45 40.35 -7.45 38.05 -9.2 37.3125 -9.756640625 36.55 -10.3 34.634765625 -11.673046875 32.65 -12.9 Z"/>

<path fill="#CC0000" stroke="none" d="
M 18.8 -19.25
L 18.3 -20.3
Q 10.3 -22.8 -1.85 -19.6 -13.6 -30.35 -28.6 -33.85 -30.9794921875 -34.4076171875 -32.5 -34.8
L -78.15 -25.35
Q -82.606640625 -24.5638671875 -84.15 -23.9 -85.9451171875 -23.0921875 -81.1 -23.95
L -55.6 -12.6
Q -54.19609375 -12.7578125 -52.25 -13 -39.85 -14.55 -28.6 -15.3 -27.5 -15.4 -26.4 -15.45
L -26.35 -15.45
Q -26.16875 -15.45625 -25.95 -15.5 -25.8896484375 -15.5068359375 -25.85 -15.55
L -25.95 -15.45 -28.6 -15.2
Q -38.3 -14.1 -52.25 -12.35
L -52.45 -12.25 -57.15 9.4 -59.25 14.45
Q -58.278125 14.5466796875 -56.8 14.15 -54.5033203125 13.21875 -52.25 12.25 -50.31171875 11.4046875 -48.4 10.55 -43.6763671875 8.4318359375 -39 6.2
L -37.05 5.2
Q -33.7 3.55 -28.6 0.7 -26.85 -0.25 -24.9 -1.35
L -17.45 -7.95 -5.25 -12.9
Q -3.75 -13.8 -2.2 -14.7
L -3.25 -12.9 28 -12.9 28 -15.5
Q 23.55 -17.7 18.8 -19.25
M -5.5 -16.7
Q -5.528515625 -16.917578125 -5.6 -17.15 -0.9845703125 -16.9447265625 -1.7 -16.9 -2.00234375 -16.8810546875 -5.5 -16.7
M 17.85 -21.3
Q 18.3052734375 -20.7974609375 18.8 -20.35 33.25 -23.95 38.7 -36.55
L 13.75 -30.4
Q 14.606640625 -24.8087890625 17.85 -21.3 Z"/>

<path fill="#FD2424" stroke="none" d="
M 18.3 -20.3
L 17.85 -21.3
Q 14.606640625 -24.8087890625 13.75 -30.4 20.9025390625 -38.132421875 24.8 -46.5
L -0.95 -42.55
Q -1.0845703125 -42.8068359375 -1.25 -43.05
L -31.95 -49.45 -32.1 -48.8 -31.45 -48.55 -29.65 -47.8
Q -29.4994140625 -47.72734375 -29.4 -47.7 -28.985546875 -47.5146484375 -28.65 -47.25 -30.2564453125 -47.9724609375 -32.1 -48.8 -33.21796875 -49.2248046875 -34.45 -49.7
L -33.1 -48.35 -31.25 -35.05 -28.6 -33.85
Q -13.6 -30.35 -1.85 -19.6 10.3 -22.8 18.3 -20.3 Z"/>
</g>

<g id="Duplicate_Items_Folder_leaf_2_copy_2_0_Layer0_0_FILL">
<path fill="#5E9636" stroke="none" d="
M 191.9 39.35
L 190.2 33.5 184.95 33.65
Q 181.15 30.05 178.4 26 162.95 35.55 157.8 55.6 186.7 55.1 191.9 39.35 Z"/>

<path fill="#9ECF7C" stroke="none" d="
M 190.2 33.5
Q 197.75 38.4 197.9 21.05 198.15 4.45 178.45 -6.65 169.5 12.85 178.4 26 181.15 30.05 184.95 33.65
L 190.2 33.5 Z"/>
</g>

<g id="leaf_2_copy_0_Layer2_0_FILL">
<path fill="#93AC58" stroke="none" d="
M 21.9 -19.6
L 22.45 -14.2
Q 105.6 -15.1 189.3 31.9
L 193.05 14.45
Q 103.1 -28.75 21.9 -19.6 Z"/>
</g>

<g id="leaf_2_copy_0_Layer1_0_FILL">
<path fill="#FFCC00" stroke="none" d="
M -90.95 25.85
L -120.5 10.75
Q -168.5 28.8 -203.9 61.45 -143.4 67.3 -86.25 57.55
L -90.95 25.85
Q -116.8 34.95 -128 39.25 -116.8 34.95 -90.95 25.85
M -43.55 -89.65
L -25.15 -63.1
Q -2.45 -58.1 7.4 -64.15 -15.05 -77.9 -43.55 -89.65
M -105.55 -20.1
L -105.1 -20.45 -74.35 -35.05
Q -98.05 -36.4 -108.25 -37.05 -137.5 -38.95 -167.9 -39.55 -140.7 -27.45 -105.55 -20.1
M 50.65 -65.5
Q 61.95 -59.8 73.3 -66.25 69.2 -75.95 61.65 -86.25 54.2 -75.8 50.65 -65.5 Z"/>

<path fill="#FF6600" stroke="none" d="
M -120.5 10.75
L -90.95 25.85
Q -90.65 25.75 -63.2 18.3
L -90.25 1.15
Q -94.95 2.35 -99.45 3.7 -110.3 6.9 -120.5 10.75
M -54 50.65
L -63.2 18.3
Q -90.65 25.75 -90.95 25.85
L -86.25 57.55
Q -70 54.75 -54 50.65
M -105.1 -20.45
L -104.55 -19.85
Q -90.5 -17 -75.1 -14.8
L -39.75 -30.5
Q -44.8 -31.25 -39.1 -30.8 -71.35 -34.15 -74.35 -35.05
L -105.1 -20.45 Z"/>

<path fill="#798D47" stroke="none" d="
M -18.65 41.05
L -18.85 40.35
Q -20.25 40.8 -21.6 41.25
L -18.65 41.05
M 26.05 21.5
L 24.55 20.45
Q 20.35 22.85 16.2 25.1
L 26.05 21.5
M 41.9 40.1
L 42.5 38.4 42.85 35.7 40.2 44.65
Q 40.6 43.4 40.95 42.2
L 41.9 40.1
M 53.95 0.45
L 55.9 0.4 56.55 -1.45
Q 55.2 -0.5 53.95 0.45 Z"/>

<path fill="#91AA55" stroke="none" d="
M -18.85 40.35
L -19.4 39.65 -21.6 41.25
Q -20.25 40.8 -18.85 40.35
M -26.35 7.65
L -28.6 8.7
Q -23 7.4 -17.4 6.25 -21.7 6.9 -26.35 7.65
M -21.2 -10
L -23.9 -9.95
Q -25.65 -9.8 -27.4 -9.6
L -27.45 -9.6 -27.5 -9.55 -26.85 -8.4
Q -25.45 -9.1 -21.2 -10
M -56.4 -5.4
L -55.4 -6.15
Q -56 -6.05 -56.6 -5.95
L -56.4 -5.4
M -105.1 -20.45
L -105.55 -20.1
Q -105.05 -19.95 -104.55 -19.85
L -105.1 -20.45
M 8.6 28.9
Q 7.15 29.35 6.2 29.3
L 6.6 29.85
Q 7.6 29.4 8.6 28.9
M 2.95 2.75
Q 0.55 2.95 1 2.75
L -12.3 5.3
Q -7.15 4.435546875 3.8 2.7
L 2.95 2.75
M 2.95 2.75
L 4.1 2.2 1 2.75
Q 0.55 2.95 2.95 2.75
M 86.45 -3.05
L 87 -0.45 91.6 -0.6
Q 89 -1.95 86.45 -3.05
M 32.4 -1.55
L 32.35 -1.5
Q 31.35 -1.4 30.2 -1.2
L 32.8 -1.55
Q 32.61875 -1.55 32.45 -1.55
L 32.4 -1.55 Z"/>

<path fill="#33CCCC" stroke="none" d="
M -30.1 9.05
Q -34.8 10.05 -30.35 8.25 -58.9 16.15 -63.2 18.3
L -54 50.65
Q -44.75 48.3 -35.6 45.5 -28.45 43.55 -21.6 41.25
L -19.4 39.65 -30.1 9.05
M -75.1 -14.8
Q -62 -13 -47.9 -11.7
L -7.4 -26.25 -7.1 -26.35
Q -31 -29.35 -37 -30.15 -38.65 -30.35 -39.75 -30.5
L -75.1 -14.8
M -56.4 -5.4
L -56.6 -5.95
Q -74.05 -3.1 -90.25 1.15
L -63.2 18.3
Q -58.9 16.15 -30.35 8.25
L -56.4 -5.4 Z"/>

<path fill="#AABC7E" stroke="none" d="
M -38.7 -46.9
L -36.6 -48.7
Q -38.95 -49.15 -41.2 -49.55
L -38.7 -46.9
M -168.55 -39.8
Q -168.25 -39.7 -167.9 -39.55
L -168.1 -39.95
Q -168.3 -39.9 -168.55 -39.8 Z"/>

<path fill="#77DDDD" stroke="none" d="
M -8.35 -40.8
L -8.15 -42.35
Q -9.7 -42.7 -11.25 -43.05
L -11.15 -42.85
Q -12.75 -43.35 -14.25 -43.75 -14.7 -43.85 -15.1 -43.95 -25.85 -46.8 -36.6 -48.7
L -38.7 -46.9 -39.1 -30.8
Q -44.8 -31.25 -39.75 -30.5 -38.65 -30.35 -37 -30.15 -31 -29.35 -7.1 -26.35
L -8.35 -40.8
M 26.45 -51.35
Q 26.25 -51.5 26.05 -51.65 11.45 -44.3 -16.25 -50.35
L -11.25 -43.05
Q -9.7 -42.7 -8.15 -42.35 -4.55 -41.5 -1.2 -40.65
L 1.05 -40.1
Q 27.85 -33.95 38.3 -41.9 32.65 -46.7 26.45 -51.35
M 77.15 -53.25
Q 64.85 -48 47.75 -52.35 47.7 -52.15 47.65 -51.95 47.2 -47.05 47.75 -42.15 62.75 -36.5 77.9 -43.05 78.1 -47.85 77.2 -52.75 77.15 -53 77.15 -53.25 Z"/>

<path fill="#FE8E45" stroke="none" d="
M -41.2 -49.55
Q -54.9 -51.8 -68.5 -52.65
L -74.35 -35.05
Q -71.35 -34.15 -39.1 -30.8
L -38.7 -46.9 -41.2 -49.55
M 26.05 -51.65
Q 17.25 -58.1 7.4 -64.15 -2.45 -58.1 -25.15 -63.1
L -16.25 -50.35
Q 11.45 -44.3 26.05 -51.65
M 47.75 -52.35
Q 64.85 -48 77.15 -53.25 76 -59.6 73.3 -66.25 61.95 -59.8 50.65 -65.5 48.4 -58.9 47.75 -52.35 Z"/>

<path fill="#FEE481" stroke="none" d="
M -168.1 -39.95
L -167.9 -39.55
Q -137.5 -38.95 -108.25 -37.05 -98.05 -36.4 -74.35 -35.05
L -68.5 -52.65
Q -79.35 -53.3 -90.05 -53.1 -100.75 -52.9 -111.45 -51.8 -139.85 -48.95 -168.1 -39.95 Z"/>

<path fill="#ECBD02" stroke="none" d="
M 13.65 82.95
Q 18.05 78.7 21.85 74.5 -11.8 68.15 -46.9 81.25
L -55.6 108.6
Q -18.45 107.35 13.65 82.95
M 119.3 43.6
Q 106.05 47.3 110.7 55.85
L 129.2 64.75
Q 126.6 54.1 119.3 43.6
M 86.35 73.45
L 86.05 68.2
Q 67.35 60.1 49.7 71.8
L 53.05 87.35
Q 59.55 103.85 70.25 120.25 89 101.5 86.35 73.45 Z"/>

<path fill="#F46302" stroke="none" d="
M 22.7 73.5
Q 29.55 65.7 34.05 58.05 -0.05 53.9 -41.85 65.45
L -46.9 81.25
Q -11.8 68.15 21.85 74.5 22.3 74 22.7 73.5
M 86.05 68.2
L 85.25 53
Q 66.1 46.25 46.45 56.8
L 49.7 71.8
Q 67.35 60.1 86.05 68.2
M 119.3 43.6
Q 114.6 36.8 107.9 30.1 91.4 36.1 95.05 48.35
L 110.7 55.85
Q 106.05 47.3 119.3 43.6 Z"/>

<path fill="#31C6C6" stroke="none" d="
M 40.15 44.75
Q 40.2 44.7 40.2 44.65
L 42.85 35.7
Q 11 30.2 -18.65 41.05
L -21.6 41.25
Q -28.45 43.55 -35.6 45.5
L -41.85 65.45
Q -0.05 53.9 34.05 58.05 37.95 51.35 40.15 44.75
M 84.7 43.85
L 81.05 32.4
Q 57.25 26 42.85 35.7
L 42.5 38.4 43 40.75 43.1 40.8
Q 43.15 41.1 43.15 41.35
L 46.45 56.8
Q 66.1 46.25 85.25 53
L 84.7 43.85
M 82.6 35
L 81.05 32.4 84.7 43.85 84.65 43.35 95.05 48.35
Q 91.4 36.1 107.9 30.1 104.5 26.7 100.65 23.35 89 25.15 82.6 35 Z"/>

<path fill="#6666CC" stroke="none" d="
M 7.2 2.45
L 3.1 3.05
Q -14.35 5.75 -16.6 6.1 -16.75 6.1 -16.85 6.15 -17.15 6.2 -17.4 6.25 -23 7.4 -28.6 8.7 -29.4 8.9 -30.1 9.05
L -19.4 39.65 -18.85 40.35
Q -5.75 35.75 6.6 29.85
L 6.2 29.3 7.2 24.15 7.2 2.45
M 1 2.75
Q 1.4 2.6 4.05 2.2
L -23.85 -8.5
Q -28.5 -7.55 -26.85 -8.4
L -27.5 -9.55
Q -30.05 -9.35 -32.45 -9.15 -44.2 -7.95 -55.4 -6.15
L -56.4 -5.4 -30.35 8.25
Q -34.8 10.05 -30.1 9.05 -29.4 8.9 -28.6 8.7
L -26.35 7.65
Q -21.7 6.9 -17.4 6.25 -17.25 6.2 -17 6.15 -16.6 6.05 -14.2 5.65
L -12.3 5.3 1 2.75
M 1 2.75
L 4.1 2.2 4.05 2.2
Q 1.4 2.6 1 2.75
M 22.15 -20.65
L 23.4 -21
Q -5.1 -25.6 -7.4 -26.25
L -47.9 -11.7
Q -40.45 -11.05 -32.75 -10.5 -30.25 -10.3 -27.65 -10.1
L -27.5 -10.15
Q -25.7 -10.05 -23.9 -9.95
L -21.2 -10 22.15 -20.65 Z"/>

<path fill="#74BB44" stroke="none" d="
M 7.2 2.45
L 7.35 2.3
Q 0.6 3.35 3.1 3.05
L 7.2 2.45 Z"/>

<path fill="#3E3EB9" stroke="none" d="
M 42.85 35.7
L 49.95 15.4 26.05 21.5 16.2 25.1
Q 14.4 26 12.65 26.9 10.6 27.9 8.6 28.9 7.6 29.4 6.6 29.85 -5.75 35.75 -18.85 40.35
L -18.65 41.05
Q 11 30.2 42.85 35.7
M 77.15 20.2
L 49.95 15.4 42.85 35.7
Q 57.25 26 81.05 32.4
L 77.15 20.2
M 87.2 21.4
L 86.9 21.8 77.15 20.2 81.05 32.4 82.6 35
Q 89 25.15 100.65 23.35 98.3 21.3 95.8 19.3
L 95 18.65
Q 94.65 18.35 94.25 18.05
L 93.85 17.75 87.2 21.4 Z"/>

<path fill="#93AC58" stroke="none" d="
M 41.9 40.1
L 43 40.75 42.5 38.4 41.9 40.1
M 43.15 41.35
Q 43.15 41.9 43.2 42.5 43.55 49.7 44.7 57 45.85 64.45 47.95 71.95 50.05 79.6 53.05 87.35
L 49.7 71.8 46.45 56.8 43.15 41.35
M 30.2 -1.2
Q 31.35 -1.4 32.35 -1.5 31.25 -1.45 30.2 -1.3 19.2 -0.25 7.2 1.65 5.3 1.95 4.05 2.2
L 4.1 2.2 2.95 2.75 3.8 2.7
Q -7.15 4.435546875 -12.3 5.3
L -14.2 5.65
Q -16.6 6.05 -17 6.15 -17.25 6.2 -17.4 6.25 -17.15 6.2 -16.85 6.15 -16.75 6.1 -16.6 6.1 -14.35 5.75 3.1 3.05 0.6 3.35 7.35 2.3 20.85 0.15 30.2 -1.2
M 32.45 -1.55
Q 32.61875 -1.55 32.8 -1.55
L 32.95 -1.6
Q 32.85 -1.6 32.8 -1.6 32.61875 -1.5546875 32.45 -1.55
M 56.6 -3.65
Q 57.3 -3.7 52.75 -3.8 52.8 -3.55 52.95 -3.3 56.3 -3.65 56.6 -3.65 Z"/>

<path fill="#5E9636" stroke="none" d="
M 94.85 16.5
L 93.85 17.75 95.2 17 94.85 16.5 Z"/>

<path fill="#980101" stroke="none" d="
M 91.6 -0.6
L 87 -0.45 55.9 0.4 53.95 0.45 42.9 5.75 36.9 12.55
Q 35.2 13.7 33.65 14.7 29.2 17.7 26.2 19.4
L 24.55 20.45 26.05 21.5 49.95 15.4 49.45 13.1 49.95 15.4 77.15 20.2 73.5 8.65 77.15 20.2 86.9 21.8 87.2 21.4 93.85 17.75 76.05 3.55 93.85 17.75 94.85 16.5 95.2 17 93.85 17.75 94.25 18.05 110.55 12.7
Q 110.3 12.5 110.1 12.3 108.2 10.6 106.4 9.1 104.75 7.8 103.05 6.6 100.45 4.65 97.75 2.95 96.95 2.4 96.1 1.9 93.9 0.6 91.6 -0.6 Z"/>

<path fill="#CC0000" stroke="none" d="
M 69.05 -17.6
Q 71.1 -12 75.1 -8.55 75.65 -8.1 76.25 -7.65 89.8 -11.65 92.5 -24.4
L 69.05 -17.6
M 26.2 -19.85
Q 23.7 -20.35 22.15 -20.65
L -21.2 -10
Q -25.45 -9.1 -26.85 -8.4 -28.5 -7.55 -23.85 -8.5
L 4.05 2.2
Q 5.3 1.95 7.2 1.65 19.2 -0.25 30.2 -1.3 31.25 -1.45 32.35 -1.5
L 32.4 -1.55 32.45 -1.55
Q 32.61875 -1.5546875 32.8 -1.6 32.85 -1.6 32.95 -1.6
L 32.8 -1.55 30.2 -1.2
Q 20.85 0.15 7.35 2.3
L 7.2 2.45 7.2 24.15 6.2 29.3
Q 7.15 29.35 8.6 28.9 10.6 27.9 12.65 26.9 14.4 26 16.2 25.1 20.35 22.85 24.55 20.45
L 26.2 19.4
Q 29.2 17.7 33.65 14.7 35.2 13.7 36.9 12.55
L 42.9 5.75 53.95 0.45
Q 55.2 -0.5 56.55 -1.45
L 55.9 0.4 87 -0.45 86.45 -3.05
Q 81.55 -5.15 76.5 -6.55
L 75.75 -7.6
Q 67.25 -9.9 55.85 -6.35 41.9 -16.8 26.2 -19.85
M 52.75 -3.8
Q 57.3 -3.7 56.6 -3.65 56.3 -3.65 52.95 -3.3 52.8 -3.55 52.75 -3.8 Z"/>

<path fill="#9ECF7C" stroke="none" d="
M 50.15 -31.2
Q 49.9 -31.3 49.95 -31.1 50.3 -30.9 51.05 -30.25 50.875 -30.46875 50.75 -30.6
L 50.7 -30.65
Q 50.3 -31.1 50.15 -31.2
M 26.2 -19.85
L 23.4 -21 22.15 -20.65
Q 23.7 -20.35 26.2 -19.85
M 18.6 -35.05
L 19.55 -34.7 19.55 -35.35 16.1 -36 18.6 -35.05
M 19.55 -34.65
Q 19.0712890625 -34.867578125 18.6 -35.05
L 16.1 -36 17 -35.5
Q 18.3 -35.1 19.55 -34.65
M 22.45 -33.65
Q 22.35 -33.75 22.25 -33.75
L 19.8 -34.6
Q 19.697265625 -34.62890625 19.55 -34.65 21.55 -33.9 23.25 -33.25 22.85 -33.5 22.45 -33.65 Z"/>

<path fill="#8C8CD9" stroke="none" d="
M 76.6 -34
Q 77.7 -38.5 77.9 -43.05 62.75 -36.5 47.75 -42.15 48.1 -37.8 51.6 -29.8
L 51.6 -29.75
Q 51.7 -29.5 51.85 -29.3
L 76.6 -34
M 18.6 -34.25
L 17 -35.5
Q 15.95 -35.9 14.9 -36.2 8.65 -38.15 1.05 -40.1
L -1.2 -40.65
Q -4.55 -41.5 -8.15 -42.35
L -8.35 -40.8 -7.1 -26.35 -7.4 -26.25
Q -5.1 -25.6 23.4 -21
L 18.6 -34.25
M 17 -35.5
L 16.1 -36 19.55 -35.35 51.45 -29.8
Q 51.25 -30.05 51.05 -30.25 50.3 -30.9 49.95 -31.1 50 -31.05 50 -30.9 49.35 -31.5 49.95 -31.1 49.9 -31.3 50.15 -31.2 42.8 -38.05 38.3 -41.9 27.85 -33.95 1.05 -40.1 8.65 -38.15 14.9 -36.2 15.95 -35.9 17 -35.5
M 19.55 -34.65
Q 19.697265625 -34.62890625 19.8 -34.6
L 19.55 -34.7 18.6 -35.05
Q 19.0712890625 -34.867578125 19.55 -34.65 Z"/>

<path fill="#FD2424" stroke="none" d="
M 22.25 -33.75
Q 22.35 -33.75 22.45 -33.65 22.85 -33.5 23.25 -33.25 21.55 -33.9 19.55 -34.65 18.3 -35.1 17 -35.5
L 18.6 -34.25 23.4 -21 26.2 -19.85
Q 41.9 -16.8 55.85 -6.35 67.25 -9.9 75.75 -7.6
L 75.1 -8.55
Q 71.1 -12 69.05 -17.6 74.5 -25.5 76.6 -34
L 51.85 -29.3
Q 51.6 -29.55 51.45 -29.8
L 19.55 -35.35 19.55 -34.7 19.8 -34.6 22.25 -33.75 Z"/>
</g>

<g id="leaf_2_copy_0_Layer0_0_FILL">
<path fill="#AABC7E" stroke="none" d="
M 178.4 26
Q 181.15 30.05 184.95 33.65
L 190.2 33.5
Q 197.75 38.4 197.9 21.05 198.15 4.45 178.45 -6.65 169.5 12.85 178.4 26
M 184.95 33.65
Q 181.15 30.05 178.4 26 162.95 35.55 157.8 55.6 186.7 55.1 191.9 39.35
L 190.2 33.5 184.95 33.65 Z"/>
</g>

<g id="Duplicate_Items_Folder_Symbol_1_copy_0_Layer0_0_FILL">
<path fill="#669487" stroke="none" d="
M 14.5 34.95
Q 13.7 35 12.85 35 12.6 35 12.4 35
L 12.1 35.1
Q 13.4 35.1 14.5 34.95 Z"/>

<path fill="#FE8181" stroke="none" d="
M 7.25 8.9
Q 6.85 8.9 6.45 9 5.55 9.25 4.8 10 5.15 10.2 5.45 10.55 6.5 11.7 6.5 13.3 6.5 13.9 6.35 14.45 8.15 14.7 9.55 15.8 11.4 17.25 11.4 19.3 11.4 19.95 11.25 20.55 12.15 20.9 12.95 21.55 14.9 23.1 14.9 25.3 14.9 27.2 13.5 28.6 13.75 28.7 14 28.85 16.3 30 16.3 31.6 16.3 33.2 14 34.35 13.25 34.75 12.4 35 12.6 35 12.85 35 13.7 35 14.5 34.95 16.65 34.7 18.3 33.85 20.6 32.7 20.6 31.1 20.6 29.5 18.3 28.35 18.05 28.2 17.8 28.1 19.2 26.7 19.2 24.8 19.2 22.6 17.25 21.05 16.45 20.4 15.6 20.1
L 13.3 19.45 15.6 20.1
Q 15.6 20.05 15.55 20.05 15.7 19.45 15.7 18.8 15.7 16.75 13.85 15.3 12.45 14.2 10.65 13.95 10.8 13.4 10.8 12.8 10.8 11.2 9.75 10.05 8.7 8.9 7.25 8.9 Z"/>

<path fill="#CC0000" stroke="none" d="
M 6.45 9
Q 5.85 9 5.35 9.2 4.6 9.5 4 10.15 2.95 11.3 2.95 12.9 2.95 14.45 3.95 15.55 3.2689453125 16.1109375 2.85 16.75 2.25 17.73125 2.25 18.9 2.25 20.95 4.1 22.4 4.7 22.85 5.4 23.2 5.05 24 5.05 24.9 5.05 26.95 6.7 28.4 6.65 28.4 6.6 28.45 4.35 29.6 4.35 31.2 4.35 32.8 6.6 33.95 8.9 35.1 12.1 35.1
L 12.4 35
Q 13.25 34.75 14 34.35 16.3 33.2 16.3 31.6 16.3 30 14 28.85 13.75 28.7 13.5 28.6 14.9 27.2 14.9 25.3 14.9 23.1 12.95 21.55 12.15 20.9 11.25 20.55 11.4 19.95 11.4 19.3 11.4 17.25 9.55 15.8 8.15 14.7 6.35 14.45 6.5 13.9 6.5 13.3 6.5 11.7 5.45 10.55 5.15 10.2 4.8 10 5.55 9.25 6.45 9
M 7.85 17.95
L 9.2 19.3 7.85 17.95
M 13.1 24.9
L 12.15 26.6 13.1 24.9
M 10.1 30.7
L 12.35 31.05 10.1 30.7 Z"/>
</g>

<g id="leaf_2_copy_2_0_Layer0_0_FILL">
<path fill="#FFCC00" stroke="none" d="
M -184.95 8.85
L -133.45 3.95
Q -120.95 -9.65 -130.6 -17.8 -159.2 -6.75 -184.95 8.85
M -66.4 68.45
L -67 68.05 -89.25 43.9
Q -95.15 59.15 -97.95 65.6 -105.75 84.3 -111.25 104.2 -85.1 89.55 -66.4 68.45
M -126.7 -46.55
Q -114.55 -52.45 -124.7 -61.6 -143.1 -61.6 -163.1 -59.4 -145.1 -51.65 -126.7 -46.55
M 78.95 76.8
L 20.05 71.3
Q 33 90.75 39.2 99.25 33 90.75 20.05 71.3
L -11.95 86.65
Q 14.05 123.1 68.8 155.2 88.5 117 78.95 76.8 Z"/>

<path fill="#AABC7E" stroke="none" d="
M -111.25 104.2
L -112 104.2
Q -111.95 104.4 -111.85 104.55 -111.6 104.35 -111.25 104.2
M -110.95 18.15
L -105.7 17.2 -108.7 15.35
Q -109.9 16.75 -110.95 18.15 Z"/>

<path fill="#FEE481" stroke="none" d="
M -89.25 43.9
L -120.7 35.3
Q -123.45 42.2 -124.7 49.35 -125.95 56.4 -125.5 63.7 -124.4 83.2 -112 104.2
L -111.25 104.2
Q -105.75 84.3 -97.95 65.6 -95.15 59.15 -89.25 43.9 Z"/>

<path fill="#FE8E45" stroke="none" d="
M -105.7 17.2
L -110.95 18.15
Q -117.15 26.55 -120.7 35.3
L -89.25 43.9
Q -87.15 42.15 -76.25 21.85
L -105.7 17.2
M -104.9 -26.65
Q -118.05 -22.65 -130.6 -17.8 -120.95 -9.65 -133.45 3.95
L -108.75 1.55
Q -93.6 -15.05 -104.9 -26.65
M -103 -41.1
Q -92.5 -51.15 -100.35 -60.7 -112.2 -61.65 -124.7 -61.6 -114.55 -52.45 -126.7 -46.55 -114.95 -43.3 -103 -41.1 Z"/>

<path fill="#91AA55" stroke="none" d="
M -65.85 67.8
L -67 68.05 -66.4 68.45
Q -66.05 68.15 -65.85 67.8
M -32.15 40.1
L -33.35 39.25
Q -33.35 39.65 -33.25 40.1
L -32.15 40.1
M -35.45 15.7
L -35.7 17.55
Q -35.7 18.7 -35.55 19.9 -35.65 19.95 -35.55 19.95
L -33.3 19.85
Q -34.35 18.8 -35.45 15.7
M -5.05 17.6
Q -4.45 20.65 -3.8 23.85
L -2.2 25.65
Q -3.8 21.6 -5.05 17.6
M -8.75 4.6
Q -8.5 4.9 -8.45 3.3
L -9.35 2.4 -8.75 4.6
M -8.45 3.3
Q -8.5 4.9 -8.75 4.6
L -6.3 12.65
Q -7.1 9.1 -8.45 2.75
L -8.45 3.3
M -11.75 -15.7
L -11.95 -17.5
Q -11.95 -17.403125 -11.95 -17.3
L -12 -17.2
Q -11.9 -16.55 -11.75 -15.7
M -2 -52.85
L -1.55 -55.9
Q -4.4 -54.6 -6.85 -53.2
L -2 -52.85
M 55.95 28
L 58.6 29.9
Q 57.9 28.8 57.3 27.75
L 55.95 28
M 40.7 8.3
L 41.85 8.25
Q 41.1 7.4 40.35 6.65 40.95 7.7 40.7 8.3 Z"/>

<path fill="#FF6600" stroke="none" d="
M -75.8 22.35
Q -77.85 25.5 -76.25 21.85 -87.15 42.15 -89.25 43.9
L -67 68.05 -65.85 67.8
Q -58.45 59.4 -52.15 49.9
L -75.8 22.35
M 10.4 51
Q 20 71.05 20.05 71.3
L 78.95 76.8
Q 76.2 65.35 71.1 53.7
L 10.4 51
M 20.05 71.3
Q 20 71.05 10.4 51
L -25.1 64.15
Q -23.65 67.55 -21.85 70.85 -17.55 78.9 -11.95 86.65
L 20.05 71.3 Z"/>

<path fill="#33CCCC" stroke="none" d="
M -42.4 32.8
L -63.2 2.2 -63.35 2
Q -72.4 16.9 -74.7 20.65 -75.35 21.65 -75.8 22.35
L -52.15 49.9
Q -46.95 41.75 -42.4 32.8
M -32.15 40.1
L -33.25 40.1
Q -30.55 52.3 -25.1 64.15
L 10.4 51
Q 7 47.55 -3.25 26.7
L -32.15 40.1
M 58.6 29.9
L 55.95 28 -1.75 26.75
Q -0.65 30.1 -3.25 26.7 7 47.55 10.4 51
L 71.1 53.7
Q 68.1 47 64.4 40.2 61.8 35 58.6 29.9 Z"/>

<path fill="#6666CC" stroke="none" d="
M -8.75 4.6
Q -9 4.25 -9.4 2.45
L -33.1 17.85
Q -32 21.15 -33.3 19.85
L -35.55 19.95
Q -35.55 21.7 -35.5 23.35 -35.05 31.35 -33.35 39.25
L -32.15 40.1 -3.25 26.7
Q -0.65 30.1 -1.75 26.75 -1.95 26.2 -2.2 25.65
L -3.8 23.85
Q -4.45 20.65 -5.05 17.6 -5.15 17.45 -5.2 17.3 -5.25 17.05 -5.7 15.35
L -6.3 12.65 -8.75 4.6
M -9.35 2.4
L -9.4 2.45
Q -9 4.25 -8.75 4.6
L -9.35 2.4
M -48.6 -15.7
L -49.05 -16.55
Q -61.65 0.9 -63.2 2.2
L -42.4 32.8
Q -40.15 28.15 -38.05 23.2 -37.3 21.55 -36.6 19.9
L -36.6 19.8
Q -36.15 18.65 -35.7 17.55
L -35.45 15.7 -48.6 -15.7
M 41.85 8.25
L 40.7 8.3 31.45 6.3 -8.4 0.35 -7.9 3.3
Q -5.5 15.45 -5.2 17.05 -5.2 17.15 -5.2 17.2 -5.15 17.4 -5.05 17.6 -3.8 21.6 -2.2 25.65 -1.95 26.2 -1.75 26.75
L 55.95 28 57.3 27.75
Q 50.8 17.95 41.85 8.25 Z"/>

<path fill="#74BB44" stroke="none" d="
M -8.4 0.35
L -8.65 0.25
Q -7.75 4.95 -7.9 3.3
L -8.4 0.35 Z"/>

<path fill="#93AC58" stroke="none" d="
M -12 -17.2
Q -12 -16.5 -11.9 -15.75 -11.55 -8.25 -9.85 0.15 -9.6 1.5 -9.4 2.45
L -9.35 2.4 -8.45 3.3 -8.45 2.75
Q -7.1 9.1 -6.3 12.65
L -5.7 15.35
Q -5.25 17.05 -5.2 17.3 -5.15 17.45 -5.05 17.6 -5.15 17.4 -5.2 17.2 -5.2 17.15 -5.2 17.05 -5.5 15.45 -7.9 3.3 -7.75 4.95 -8.65 0.25 -10.6 -9.15 -11.75 -15.7 -11.9 -16.55 -12 -17.2
M -11.95 -17.5
L -12 -17.6
Q -12.05 -17.55 -12.05 -17.5 -11.953125 -17.403125 -11.95 -17.3 -11.95 -17.403125 -11.95 -17.5
M 68.25 -12.7
Q 69.3 -12.55 70.4 -12.45 83.75 -10.7 97.25 -9.45 111.1 -8.25 125.15 -7.55 139.55 -6.85 154.15 -6.75
L 125.1 -8.75 97.1 -10.7 68.25 -12.7
M 67.15 -12.75
L 62.75 -13.05 65.8 -12.25 67.15 -12.75
M -12.2 -31.2
Q -12.269921875 -32.2966796875 -12.3 -32.95 -12.3267578125 -33.643359375 -12.3 -33.75 -12.35 -34.2 -13.15 -31.2 -12.7 -31.2 -12.2 -31.2 Z"/>

<path fill="#798D47" stroke="none" d="
M -5.2 -30.85
L -5 -32.2 -8.25 -33.1
Q -6.7 -32 -5.2 -30.85
M 58.6 29.9
L 58.6 27.85 57.3 27.75
Q 57.9 28.8 58.6 29.9
M 69.55 -11.05
L 65.8 -12.25 62.75 -13.05 57.9 -14.05 70.15 -10.9
Q 69.86640625 -10.963671875 69.55 -11.05
M 29.35 -6.9
L 27.25 -6.1
Q 31 -2.7 34.45 0.65
L 29.35 -6.9 Z"/>

<path fill="#7D3EA8" stroke="none" d="
M -18.6 -47.25
Q -17.7 -47.45 -16.8 -47.75 -22.1 -57.75 -45.15 -62.95
L -36.05 -45.65
Q -25.5 -45.55 -18.6 -47.25
M 14.5 -16.4
L 2.9 -22.2 -5.2 -30.85
Q -6.7 -32 -8.25 -33.1
L -5 -32.2 -2 -52.85 -6.85 -53.2
Q -11.4 -50.55 -14.75 -47.6
L -16.75 -47.35
Q -22.15 -42.45 -17.35 -34 -38.55 -27.6 -46.55 -18.1 -47.8 -16.65 -48.6 -15.7
L -35.45 15.7
Q -34.35 18.8 -33.3 19.85 -32 21.15 -33.1 17.85
L -9.4 2.45
Q -9.6 1.5 -9.85 0.15 -11.55 -8.25 -11.9 -15.75 -12 -16.5 -12 -17.2
L -11.95 -17.3
Q -11.953125 -17.403125 -12.05 -17.5 -12.05 -17.55 -12 -17.6
L -11.95 -17.5 -11.75 -15.7
Q -10.6 -9.15 -8.65 0.25
L -8.4 0.35 31.45 6.3 40.7 8.3
Q 40.95 7.7 40.35 6.65 38.85 5.05 37.25 3.4 35.9 2.05 34.45 0.65 31 -2.7 27.25 -6.1
L 25.55 -7.55
Q 22.8 -9.95 17.95 -13.65 16.4 -14.95 14.5 -16.4
M -12.3 -32.95
Q -12.269921875 -32.2966796875 -12.2 -31.2 -12.7 -31.2 -13.15 -31.2 -12.35 -34.2 -12.3 -33.75 -12.3267578125 -33.643359375 -12.3 -32.95 Z"/>

<path fill="#9ECF7C" stroke="none" d="
M -46.55 -18.1
L -49.05 -16.55 -48.6 -15.7
Q -47.8 -16.65 -46.55 -18.1
M -76 -17.95
L -77.6 -15.85 -75.6 -17.2 -74.75 -17.8 -76 -17.95
M -77.6 -15.85
L -76.6 -16.35
Q -75.65 -17.1 -74.7 -17.8 -75.2 -17.45 -75.6 -17.2
L -77.6 -15.85
M -71.6 -19.85
Q -72.1 -19.6 -72.35 -19.4 -72.6 -19.3 -72.6 -19.25
L -74.3 -18.05
Q -72.85 -18.95 -71.6 -19.85
M -62.25 -37.25
Q -62.478125 -37.20546875 -62.7 -37.15 -63.6 -37 -63.8 -36.95 -64 -36.85 -63.6 -36.8 -63.25 -37 -61.95 -37.3 -62.1173828125 -37.283203125 -62.25 -37.25 Z"/>

<path fill="#8C8CD9" stroke="none" d="
M -74.7 -17.8
Q -74.5 -17.9 -74.3 -18.05
L -74.75 -17.8 -75.6 -17.2
Q -75.2 -17.45 -74.7 -17.8
M -61.1 -37.55
L -61 -37.55
Q -60.5 -37.5 -60.05 -37.6
L -65.05 -55.1
Q -73.15 -57 -81.55 -58.4 -71.75 -46.65 -84.25 -38.35 -76.25 -37.4 -61.1 -37.55
M -61.1 -37.45
Q -61.49375 -37.40625 -61.85 -37.35
L -61.95 -37.3
Q -63.25 -37 -63.6 -36.8 -63.5 -36.8 -63.25 -36.8 -64.5 -36.5 -63.6 -36.8 -64 -36.85 -63.8 -36.95 -77.4 -33.95 -85.15 -32.05 -72.15 -23 -87.4 -7.05 -82.7 -11.55 -78.2 -15.15 -77.45 -15.7 -76.6 -16.35
L -77.6 -15.85 -76 -17.95 -61.1 -37.45
M -87.4 -7.05
L -88.7 -5.75
Q -90.8 -3.75 -92.85 -1.6
L -90 -1.05 -63.35 2 -63.2 2.2
Q -61.65 0.9 -49.05 -16.55
L -74.05 -17.05 -76.6 -16.35
Q -77.45 -15.7 -78.2 -15.15 -82.7 -11.55 -87.4 -7.05 Z"/>

<path fill="#9757C1" stroke="none" d="
M -72.35 -19.4
Q -72.1 -19.6 -71.6 -19.85 -72.85 -18.95 -74.3 -18.05 -74.5 -17.9 -74.7 -17.8 -75.65 -17.1 -76.6 -16.35
L -74.05 -17.05 -49.05 -16.55 -46.55 -18.1
Q -38.55 -27.6 -17.35 -34 -22.15 -42.45 -16.75 -47.35
L -18.6 -47.25
Q -25.5 -45.55 -36.05 -45.65 -49.85 -51.4 -65.05 -55.1
L -60.05 -37.6
Q -60.6 -37.45 -61.1 -37.45
L -76 -17.95 -74.75 -17.8 -74.3 -18.05 -72.6 -19.25
Q -72.6 -19.3 -72.35 -19.4 Z"/>

<path fill="#77DDDD" stroke="none" d="
M -90 -1.05
L -92.85 -1.6
Q -93.75 -0.7 -94.65 0.25
L -94.3 0.15
Q -95.35 1.1 -96.35 2 -96.55 2.3 -96.85 2.5 -103.65 8.8 -108.7 15.35
L -105.7 17.2 -76.25 21.85
Q -77.85 25.5 -75.8 22.35 -75.35 21.65 -74.7 20.65 -72.4 16.9 -63.35 2
L -90 -1.05
M -88.7 -5.75
L -87.4 -7.05
Q -72.15 -23 -85.15 -32.05 -94.85 -29.6 -104.3 -26.85 -104.65 -26.7 -104.9 -26.65 -93.6 -15.05 -108.75 1.55
L -94.65 0.25
Q -93.75 -0.7 -92.85 -1.6 -90.8 -3.75 -88.7 -5.75
M -99.4 -60.6
Q -99.85 -60.6 -100.35 -60.7 -92.5 -51.15 -103 -41.1 -102.6 -41 -102.25 -40.95 -93.35 -39.3 -84.25 -38.35 -71.75 -46.65 -81.55 -58.4 -90.3 -59.8 -99.4 -60.6 Z"/>

<path fill="#ECBD02" stroke="none" d="
M 140.25 18
Q 133.15 13.9 126.05 10.3 109.4 30.65 128.25 57.3
L 177.2 70.4
Q 180.4 45.7 140.25 18
M 125.1 -8.75
L 154.15 -6.75
Q 185.45 -6.6 217.15 -9.15 185.4 -26.6 133.55 -32.4
L 123.95 -33.65
Q 106.25 -23.55 125.1 -8.75
M 83.7 -62.15
Q 88.5 -52.45 104.9 -53.2
L 123.95 -63
Q 104 -64.15 83.7 -62.15 Z"/>

<path fill="#F46302" stroke="none" d="
M 126.05 10.3
Q 125.15 9.85 124.3 9.4 111 2.85 97.6 -2.25 84.95 19.05 100.05 49.7
L 128.25 57.3
Q 109.4 30.65 126.05 10.3
M 95.85 -37.25
Q 80.6 -26.45 97.1 -10.7
L 125.1 -8.75
Q 106.25 -23.55 123.95 -33.65
L 95.85 -37.25
M 104.9 -53.2
Q 88.5 -52.45 83.7 -62.15 70.45 -60.9 57.15 -58.35 65.7 -45.85 88.8 -44.95
L 104.9 -53.2 Z"/>

<path fill="#31C6C6" stroke="none" d="
M 74.05 -9.8
Q 73.95 -9.85 73.9 -9.9
L 70.15 -10.9 57.9 -14.05
Q 43.1 5.4 58.6 27.85
L 58.6 29.9
Q 61.8 35 64.4 40.2
L 100.05 49.7
Q 84.95 19.05 97.6 -2.25 85.85 -6.55 74.05 -9.8
M 62.75 -13.05
L 67.15 -12.75 67.3 -12.85
Q 67.8 -12.75 68.25 -12.7
L 97.1 -10.7
Q 80.6 -26.45 95.85 -37.25
L 79 -39.35 57.45 -40.05
Q 42.25 -26.15 57.9 -14.05
L 62.75 -13.05
M 57.15 -58.35
Q 50.45 -57.05 43.7 -55.4 45.3 -47.25 62.5 -40.35
L 57.45 -40.05 79 -39.35 78.1 -39.45 88.8 -44.95
Q 65.7 -45.85 57.15 -58.35 Z"/>

<path fill="#3E3EB9" stroke="none" d="
M 34.5 -40.8
L 21.65 -24.2 57.9 -14.05
Q 42.25 -26.15 57.45 -40.05
L 34.5 -40.8
M 21.65 -24.2
L 29.35 -6.9 34.45 0.65
Q 35.9 2.05 37.25 3.4 38.85 5.05 40.35 6.65 41.1 7.4 41.85 8.25 50.8 17.95 57.3 27.75
L 58.6 27.85
Q 43.1 5.4 57.9 -14.05
L 21.65 -24.2
M 33.05 -52.65
L 32.5 -52.45 38.15 -47.05 38.85 -46.75 34.5 -40.8 57.45 -40.05 62.5 -40.35
Q 45.3 -47.25 43.7 -55.4 39.65 -54.4 35.6 -53.3
L 34.3 -52.95
Q 33.65 -52.8 33.05 -52.65 Z"/>

<path fill="#313193" stroke="none" d="
M 32.1 -40.9
L 34.5 -40.8 38.85 -46.75 38.15 -47.05 32.5 -52.45 32.1 -40.9 Z"/>

<path fill="#5E9636" stroke="none" d="
M 30.35 -53.4
L 32.5 -52.45 31.25 -53.55 30.35 -53.4 Z"/>

<path fill="#5C2E7C" stroke="none" d="
M 18.45 -63
Q 15.75 -62.3 13.3 -61.5 9.4 -60.3 5.85 -59.05 4.8 -58.6 3.65 -58.2 1 -57.1 -1.55 -55.9
L -2 -52.85 -5 -32.2 -5.2 -30.85 2.9 -22.2 14.5 -16.4
Q 16.4 -14.95 17.95 -13.65 22.8 -9.95 25.55 -7.55
L 27.25 -6.1 29.35 -6.9 21.65 -24.2 17.35 -24.5 21.65 -24.2 34.5 -40.8 32.1 -40.9 12.75 -41.5 32.1 -40.9 32.5 -52.45 3.75 -44.6 32.5 -52.45 30.35 -53.4 31.25 -53.55 32.5 -52.45 33.05 -52.65 25.7 -64.75
Q 25.25 -64.7 24.9 -64.6 21.45 -63.85 18.45 -63 Z"/>
</g>

<path id="Duplicate_Items_Folder_final_0_Layer3_0_1_STROKES" stroke="#000000" stroke-width="2" stroke-linejoin="round" stroke-linecap="round" fill="none" d="
M 3.6 -116.375
L 4 -111 3 -76 3 -41 4.25 -29.675 6 -14 7 21 -1.375 18.5 -3 18
M -4 18
L -5 -36 -11 -53 -7.8 -77.875 -6 -92 -7 -136 -8.125 -150.5 -9 -162 -7.6 -206.1 -7.3 -215.6
M -3.35 -215.6
L -3.325 -215.3 -0.75 -176.125 3.6 -116.375"/>

<path id="Duplicate_Items_Folder_leaf_2_copy_2_0_Layer2_0_1_STROKES" stroke="#000000" stroke-width="2" stroke-linejoin="round" stroke-linecap="round" fill="none" d="
M 21.9 -19.6
Q 20.35 -19.45 18.8 -19.25
M 22.45 -14.2
Q 105.6 -15.1 189.3 31.9
L 193.05 14.45
Q 103.1 -28.75 21.9 -19.6"/>

<path id="Duplicate_Items_Folder_leaf_2_copy_2_0_Layer1_0_1_STROKES" stroke="#000000" stroke-width="2" stroke-linejoin="round" stroke-linecap="round" fill="none" d="
M 28.475 -78.675
Q 26.515625 -88.4232421875 21.2 -98.85 11.45625 -88.715234375 5.7 -78.575 1.9890625 -72.069921875 -0.075 -65.55
M 29.575 -65.675
Q 29.80625 -72.019921875 28.475 -78.675
M 28.075 -55.525
Q 29.2880859375 -60.2390625 29.55 -65.15 29.5625 -65.4146484375 29.575 -65.675
M 18.8 -20.35
Q 33.25 -23.95 38.7 -36.55
L 13.75 -30.4
M 26.2 -17.85
Q 22.25 -19.1 18.3 -20.3
M -55.575 -12.575
Q -54.19609375 -12.7578125 -52.25 -13 -39.85 -14.55 -28.6 -15.3 -27.5 -15.4 -26.4 -15.45
L -26.35 -15.45
M -28.6 -15.2
Q -38.3 -14.1 -52.25 -12.35
M -56.775 14.15
Q -54.5033203125 13.21875 -52.25 12.25 -50.31171875 11.4046875 -48.375 10.55 -43.6763671875 8.4318359375 -39 6.2
L -37.05 5.2
M 28 -15.5
Q 23.55 -17.7 18.8 -19.25
M 31.25 5.7
L 48.7 0.85
Q 48.5154296875 0.6373046875 48.325 0.425 46.827734375 -1.2779296875 45.275 -2.85 43.9314453125 -4.1982421875 42.55 -5.45 40.35 -7.45 38.05 -9.2 37.3125 -9.756640625 36.575 -10.3 34.634765625 -11.673046875 32.65 -12.9 30.35 -14.3 28 -15.5
M 13.75 -30.4
Q 20.9025390625 -38.132421875 24.825 -46.5
M -0.925 -42.525
Q -1.0845703125 -42.8068359375 -1.225 -43.05
M -32.075 -48.8
L -31.45 -48.525 -29.625 -47.775
Q -29.4994140625 -47.72734375 -29.375 -47.675 -28.985546875 -47.5146484375 -28.65 -47.25 -30.2564453125 -47.9724609375 -32.075 -48.775 -33.21796875 -49.2248046875 -34.425 -49.675
M 24.825 -46.5
Q 26.90078125 -50.928125 28.075 -55.525
M -2.275 -55.425
Q -2.8021484375 -51.1142578125 -1.05 -43.05
L -1.05 -43.025
Q -0.980859375 -42.774609375 -0.925 -42.525
M 50.8 31.775
Q 47.5314453125 24.8998046875 42.275 18.025
M 25.475 35.825
L 39.525 43.725
M 50.8 31.775
Q 55.8724609375 42.4376953125 56.15 53.1
L 39.525 43.725
M 30.925 5.375
L 31.25 5.7
Q 31.6 6 31.9 6.35
L 32.55 7
Q 34.610546875 9.0650390625 36.5 11.125 39.6330078125 14.5775390625 42.275 18.025
M 16.2 -9.2
L 30.925 5.375
M 14.95 19.575
L 13.7 7.4
M -23.95 21.85
L -12.45 1.825
M 14.675 40.2
L 16.15 31.1 14.95 19.575
M 16.15 31.1
L 16.2 30.6 25.475 35.825
M -24.9 73.45
Q -22 90.05 -14.85 106.65 8 88.5 11.35 60.55
L 12.2 55.35
M -24.9 73.45
Q -26.259765625 65.721484375 -26.7 58 -27.1373046875 50.5095703125 -26.725 43.025 -26.30703125 35.809765625 -25.1 28.6 -25 28 -24.9 27.45 -24.85 27.2 -24.8 26.9
L -27.25 28.25
Q -27.85 29.45 -28.5 30.65 -28.55 30.7 -28.6 30.75 -32.2361328125 37.2578125 -37.575 43.775 -43.7685546875 51.3078125 -52.25 58.85 -52.80078125 59.3365234375 -53.35 59.825 -58.0416015625 63.8919921875 -63.4 68 -100.75 91.4 -138.15 91.6
L -123.55 64.625 -115.125 49.075 -104.5 29.45
Q -114.2888671875 31.968359375 -124.075 34.05 -140.939453125 37.654296875 -157.8 39.975 -217.05234375 48.16796875 -276.3 40.65 -233.863671875 9.173046875 -181.95 -7.475 -170.8689453125 -11.0224609375 -159.35 -13.9 -154.5271484375 -15.1021484375 -149.625 -16.175 -132.4958984375 -19.96953125 -114.45 -22.3 -113.8138671875 -22.394140625 -113.175 -22.475 -101.5728515625 -23.934375 -89.6 -24.8 -87.1 -24.95 -84.55 -25.1
L -84.5 -25.1
Q -84.5 -25.15 -84.45 -25.1 -82.65 -25.25 -80.85 -25.35 -82.65 -25.5 -84.4 -25.65
L -84.55 -25.65
Q -87.1 -25.9 -89.6 -26.15 -97.182421875 -26.884765625 -104.475 -27.775 -118.2759765625 -29.4333984375 -131.025 -31.625 -145.9078125 -34.1814453125 -159.35 -37.45 -159.8439453125 -37.570703125 -160.325 -37.7 -193.8609375 -45.9873046875 -218.45 -58.75 -218.75 -58.9 -219.05 -59.05 -218.8013671875 -59.1177734375 -218.55 -59.175 -188.3611328125 -67.366796875 -159.35 -69.4 -148.45 -70.2 -137.65 -70.1 -126.878515625 -70.0119140625 -116.275 -69.05 -102.8029296875 -67.8294921875 -89.6 -65.2 -87.38203125 -64.758203125 -85.175 -64.275 -74.8673828125 -62.0373046875 -64.7 -58.95 -64.35 -58.8 -63.9 -58.7 -62.45 -58.35 -61.05 -57.95
L -64.525 -65.325 -70.625 -78.275 -83.3 -105.15
Q -57.309375 -92.70625 -37.8 -78.4 -29.232421875 -72.1234375 -21.925 -65.475 -21.7310546875 -65.315234375 -21.55 -65.15 -16.3376953125 -60.3640625 -11.775 -55.4 -8.1158203125 -51.433203125 -2.225 -44.475 -2.0697265625 -44.3666015625 -1.75 -43.9 -1.3998046875 -43.4716796875 -1.05 -43.05 -1.29375 -43.29921875 -1.5 -43.5 -1.3720703125 -43.298828125 -1.225 -43.05
M 12.2 55.35
L 14.675 40.2
M 13.7 7.4
L 12.5 -4.2
M -58.125 -57.15
Q -59.5638671875 -57.5513671875 -61.05 -57.95
L -60.95 -57.75
Q -62.45 -58.25 -63.9 -58.7
M -91.25 -7.45
Q -96.0361328125 -5.823828125 -91.15 -6.675 -90.466796875 -6.7849609375 -89.6 -6.95
M -87.1 -7.95
Q -82.3 -8.55 -77.85 -9.1 -77.65 -9.15 -77.4 -9.2 -76.98125 -9.2734375 -74.575 -9.6
M -58.7 -12.05
Q -58.2744140625 -12.2048828125 -55.575 -12.575
M -56.75 -12
L -55.925 -12.05
Q -69.5638671875 -10.27734375 -74.575 -9.6
M -34.425 -49.675
Q -35.3810546875 -50.0384765625 -36.375 -50.4 -42.201953125 -52.490234375 -49.4 -54.675
L -51.5 -55.275
Q -54.682421875 -56.208203125 -58.125 -57.15
M -0.075 -65.55
Q -0.13671875 -65.3548828125 -0.2 -65.15 -1.704296875 -60.28984375 -2.275 -55.425
M -80.85 -25.35
L -78.125 -25.35
M -77.85 -9.1
Q -77.55 -9.15 -77.25 -9.2 -77.16796875 -9.2103515625 -77 -9.225 -74.7140625 -9.5150390625 -56.675 -11.725 -59.212890625 -11.47578125 -52.25 -12.35
M -56.75 -12
Q -59.197265625 -11.884765625 -58.7 -12.05
M -52.425 -12.225
L -56.675 -11.725
M -2.4 -44.15
Q -2.414453125 -44.294140625 -2.4 -44.375 -2.90234375 -44.821875 -2.4 -44.15 Z
M -2.225 -44.475
Q -2.3767578125 -44.56796875 -2.4 -44.375
M -1.75 -43.9
Q -1.635546875 -43.7263671875 -1.5 -43.5 -2.115625 -44.1255859375 -2.4 -44.375
M -32.075 -48.8
L -33.025 -49.2
Q -32.54296875 -48.98125 -32.075 -48.775 -31.758984375 -48.6501953125 -31.45 -48.525
M -26.35 -15.45
Q -26.16875 -15.45 -25.95 -15.45
M -26.4 -15.45
Q -27.45 -15.35 -28.6 -15.2
M -35.225 -50.15
L -33.025 -49.2
M -89.6 -6.95
Q -83.7 -8.1 -77.85 -9.1
M -12.45 1.825
L -12.45 -0.45
M -27.25 28.25
L -25.85 26.2
M -28.5 30.65
L -23.95 21.85
M -104.5 29.45
Q -97.0197265625 27.6982421875 -89.675 25.6
M -56.775 14.15
Q -57.8705078125 14.605078125 -58.975 15.05 -72.6017578125 20.5388671875 -86.675 24.725 -88.167578125 25.167578125 -89.675 25.6
M -126.275 1.625
Q -155.2861328125 8.278125 -155.675 8.35 -183.465234375 16.68515625 -195.55 20.65
M -126.275 1.625
Q -121.4470703125 -0.4056640625 -91.25 -7.45"/>

<path id="Duplicate_Items_Folder_leaf_2_copy_2_0_Layer0_0_1_STROKES" stroke="#000000" stroke-width="2" stroke-linejoin="round" stroke-linecap="round" fill="none" d="
M 178.4 26
Q 169.5 12.85 178.45 -6.65 198.15 4.45 197.9 21.05 197.75 38.4 190.2 33.5
L 191.9 39.35
Q 186.7 55.1 157.8 55.6 162.95 35.55 178.4 26 181.15 30.05 184.95 33.65
L 190.2 33.5"/>

<path id="leaf_2_copy_0_Layer2_0_1_STROKES" stroke="#000000" stroke-width="2" stroke-linejoin="round" stroke-linecap="round" fill="none" d="
M 18.8 -19.25
Q 20.35 -19.45 21.9 -19.6 103.1 -28.75 193.05 14.45
L 189.3 31.9
Q 105.6 -15.1 22.45 -14.2"/>

<path id="leaf_2_copy_0_Layer1_0_1_STROKES" stroke="#000000" stroke-width="2" stroke-linejoin="round" stroke-linecap="round" fill="none" d="
M 47.75 -52.35
Q 47.7 -52.15 47.65 -51.95 47.2 -47.05 47.75 -42.15
M 77.9 -43.05
Q 78.1 -47.85 77.2 -52.75 77.15 -53 77.15 -53.25 76 -59.6 73.3 -66.25
M 50.65 -65.5
Q 48.4 -58.9 47.75 -52.35
M 73.3 -66.25
Q 69.2 -75.95 61.65 -86.25 54.2 -75.8 50.65 -65.5
M 26.05 -51.65
Q 17.25 -58.1 7.4 -64.15
M -25.15 -63.1
L -16.25 -50.35
M 26.05 -51.65
Q 26.25 -51.5 26.45 -51.35 32.65 -46.7 38.3 -41.9 42.8 -38.05 50.15 -31.2 50.3 -31.1 50.7 -30.65
L 50.75 -30.6
Q 51.1693359375 -30.1828125 51.6 -29.8 48.1 -37.8 47.75 -42.15
M 19.825 -34.6
L 22.25 -33.75
Q 22.35 -33.75 22.45 -33.65 22.85 -33.5 23.25 -33.25 21.55 -33.9 19.55 -34.65 18.3 -35.1 17 -35.5
M 69.05 -17.6
Q 74.5 -25.5 76.6 -34
M 51.85 -29.3
Q 51.6 -29.55 51.45 -29.8
M 19.55 -34.7
L 19.825 -34.6
Q 19.697265625 -34.62890625 19.55 -34.65 19.0712890625 -34.867578125 18.625 -35.05
L 16.1 -36
M 17 -35.5
Q 15.95 -35.9 14.9 -36.2 8.65 -38.15 1.05 -40.1
L -1.2 -40.65
Q -4.55 -41.5 -8.15 -42.35
M 18.625 -35.05
L 19.55 -34.7
M 32.35 -1.5
L 32.4 -1.55 32.45 -1.55
M 30.2 -1.2
Q 20.85 0.15 7.35 2.3
M 8.6 28.9
Q 10.6 27.9 12.65 26.9 14.4 26 16.2 25.1 20.35 22.85 24.55 20.45
L 26.2 19.4
M 86.45 -3.05
Q 81.55 -5.15 76.5 -6.55
M 84.15 -5.35
Q 79.9 -6.5 75.75 -7.6
M 32.45 -1.55
Q 32.61875 -1.55 32.8 -1.55
M 30.2 -1.2
Q 31.35 -1.4 32.35 -1.5 31.25 -1.45 30.2 -1.3 19.2 -0.25 7.2 1.65 5.3 1.95 4.05 2.2
M 2.95 2.75
L 3.8 2.7
Q -7.15 4.435546875 -12.3 5.3
L -14.2 5.65
Q -16.6 6.05 -17 6.15 -17.25 6.2 -17.4 6.25 -17.15 6.2 -16.85 6.15 -16.75 6.1 -16.6 6.1 -14.35 5.75 3.1 3.05 0.6 3.35 7.35 2.3
M 76.6 -34
Q 77.7 -38.5 77.9 -43.05
M 50 -30.9
Q 50 -31.05 49.95 -31.1 49.35 -31.5 50 -30.9 Z
M 50.15 -31.2
Q 49.9 -31.3 49.95 -31.1
M 50.75 -30.6
Q 50.875 -30.46875 51.05 -30.25 51.25 -30.05 51.45 -29.8
M 49.95 -31.1
Q 50.3 -30.9 51.05 -30.25
M 51.6 -29.8
L 51.6 -29.75
Q 51.7 -29.5 51.85 -29.3
M 51.05 -30.25
Q 51.3 -30.05 51.6 -29.8
M 76.25 -7.65
Q 89.8 -11.65 92.5 -24.4
L 69.05 -17.6
M 91.6 -0.6
Q 89 -1.95 86.45 -3.05
M 94.25 18.05
L 110.55 12.7
Q 110.3 12.5 110.1 12.3 108.2 10.6 106.4 9.1 104.75 7.8 103.05 6.6 100.45 4.65 97.75 2.95 96.95 2.4 96.1 1.9 93.9 0.6 91.6 -0.6
M 77.15 20.2
L 81.05 32.4
M 100.65 23.35
Q 98.3 21.3 95.8 19.3
L 95 18.65
Q 94.65 18.35 94.25 18.05
L 93.85 17.75 76.05 3.55
M 81.05 32.4
L 84.7 43.85 84.65 43.35 95.05 48.35
M 100.65 23.35
Q 104.5 26.7 107.9 30.1 114.6 36.8 119.3 43.6
M 85.25 53
L 86.05 68.2 86.35 73.45
Q 89 101.5 70.25 120.25 59.55 103.85 53.05 87.35 50.05 79.6 47.95 71.95 45.85 64.45 44.7 57 43.55 49.7 43.2 42.5 43.15 41.9 43.15 41.35 43.15 41.1 43.1 40.8
L 40.95 42.2
Q 40.6 43.4 40.2 44.65 40.2 44.7 40.15 44.75 37.95 51.35 34.05 58.05 29.55 65.7 22.7 73.5 22.3 74 21.85 74.5 18.05 78.7 13.65 82.95 -18.45 107.35 -55.6 108.6
L -46.9 81.25 -41.85 65.45 -35.6 45.5
Q -44.75 48.3 -54 50.65 -70 54.75 -86.25 57.55 -143.4 67.3 -203.9 61.45 -168.5 28.8 -120.5 10.75 -110.3 6.9 -99.45 3.7 -94.95 2.35 -90.25 1.15 -74.05 -3.1 -56.6 -5.95 -56 -6.05 -55.4 -6.15 -44.2 -7.95 -32.45 -9.15 -30.05 -9.35 -27.5 -9.55
L -27.45 -9.6 -27.4 -9.6
Q -25.65 -9.8 -23.9 -9.95 -25.7 -10.05 -27.5 -10.15
L -27.65 -10.1
Q -30.25 -10.3 -32.75 -10.5 -40.45 -11.05 -47.9 -11.7 -62 -13 -75.1 -14.8 -90.5 -17 -104.55 -19.85 -105.05 -19.95 -105.55 -20.1 -140.7 -27.45 -167.9 -39.55 -168.25 -39.7 -168.55 -39.8 -168.3 -39.9 -168.1 -39.95 -139.85 -48.95 -111.45 -51.8 -100.75 -52.9 -90.05 -53.1 -79.35 -53.3 -68.5 -52.65 -54.9 -51.8 -41.2 -49.55 -38.95 -49.15 -36.6 -48.7 -25.85 -46.8 -15.1 -43.95 -14.7 -43.85 -14.25 -43.75 -12.75 -43.45 -11.25 -43.05
L -16.25 -50.35
M 119.3 43.6
Q 126.6 54.1 129.2 64.75
L 110.7 55.85 95.05 48.35
M 85.25 53
L 84.7 43.85
M 73.5 8.65
L 77.15 20.2
M 42.85 35.7
L 49.95 15.4 49.45 13.1
M 40.95 42.2
L 41.9 40.1
M 40.2 44.65
L 42.85 35.7
M 4.05 2.2
Q 1.4 2.6 1 2.75 0.55 2.95 2.95 2.75
M 7.2 2.45
L 3.1 3.05
M 6.6 29.85
Q 7.6 29.4 8.6 28.9
M -30.35 8.25
Q -34.8 10.05 -30.1 9.05 -29.4 8.9 -28.6 8.7
M -26.35 7.65
Q -21.7 6.9 -17.4 6.25 -23 7.4 -28.6 8.7
M -11.25 -43.05
L -11.15 -42.85
Q -12.75 -43.35 -14.25 -43.75
M -11.25 -43.05
Q -9.7 -42.7 -8.15 -42.35
M -23.9 -9.95
L -21.2 -10
M 7.4 -64.15
Q -15.05 -77.9 -43.55 -89.65
L -25.15 -63.1
M -35.6 45.5
Q -28.45 43.55 -21.6 41.25 -20.25 40.8 -18.85 40.35
M -30.35 8.25
Q -58.9 16.15 -63.2 18.3 -90.65 25.75 -90.95 25.85 -116.8 34.95 -128 39.25
M -18.85 40.35
Q -5.75 35.75 6.6 29.85"/>

<path id="leaf_2_copy_0_Layer0_0_1_STROKES" stroke="#000000" stroke-width="2" stroke-linejoin="round" stroke-linecap="round" fill="none" d="
M 190.2 33.5
L 184.95 33.65
Q 181.15 30.05 178.4 26 162.95 35.55 157.8 55.6 186.7 55.1 191.9 39.35
L 190.2 33.5
Q 197.75 38.4 197.9 21.05 198.15 4.45 178.45 -6.65 169.5 12.85 178.4 26"/>

<path id="Duplicate_Items_Folder_Symbol_1_copy_0_Layer0_0_1_STROKES" stroke="#000000" stroke-width="1" stroke-linejoin="round" stroke-linecap="round" fill="none" d="
M 5.35 9.2
Q 5.85 9 6.45 9 6.85 8.9 7.25 8.9 8.7 8.9 9.75 10.05 10.8 11.2 10.8 12.8 10.8 13.4 10.65 13.95 12.45 14.2 13.85 15.3 15.7 16.75 15.7 18.8 15.7 19.45 15.55 20.05 15.6 20.05 15.6 20.1 16.45 20.4 17.25 21.05 19.2 22.6 19.2 24.8 19.2 26.7 17.8 28.1 18.05 28.2 18.3 28.35 20.6 29.5 20.6 31.1 20.6 32.7 18.3 33.85 16.65 34.7 14.5 34.95 13.4 35.1 12.1 35.1 8.9 35.1 6.6 33.95 4.35 32.8 4.35 31.2 4.35 29.6 6.6 28.45 6.65 28.4 6.7 28.4 5.05 26.95 5.05 24.9 5.05 24 5.4 23.2 4.7 22.85 4.1 22.4 2.25 20.95 2.25 18.9 2.25 17.73125 2.85 16.75
L 0.2 15.35
M 4.8 10
Q 5.55 9.25 6.45 9
M 5.35 9.2
L 5.05 4.3 6.95 0
M 2.85 16.75
Q 3.2689453125 16.1109375 3.95 15.55 2.95 14.45 2.95 12.9 2.95 11.3 4 10.15 4.6 9.5 5.35 9.2
M 12.4 35
Q 12.6 35 12.85 35 13.7 35 14.5 34.95
M 7.85 8.05
L 9.35 5.8
M 7.85 17.95
L 9.2 19.3
M 16.1 16.85
L 17.05 14.25
M 13.3 19.45
L 15.6 20.1
M 13.1 24.9
L 12.15 26.6
M 4.3 26.4
L 1.9 26.4 0 28.65
M 10.1 30.7
L 12.35 31.05"/>

<path id="leaf_2_copy_2_0_Layer0_0_1_STROKES" stroke="#000000" stroke-width="2" stroke-linejoin="round" stroke-linecap="round" fill="none" d="
M 57.15 -58.35
Q 50.45 -57.05 43.7 -55.4
M 57.45 -40.05
L 79 -39.35 78.1 -39.45 88.8 -44.95
M 57.15 -58.35
Q 70.45 -60.9 83.7 -62.15 104 -64.15 123.95 -63
L 104.9 -53.2 88.8 -44.95
M 33.05 -52.65
L 25.7 -64.75
Q 25.25 -64.7 24.9 -64.6 21.45 -63.85 18.45 -63 15.75 -62.3 13.3 -61.5 9.4 -60.3 5.85 -59.05 4.8 -58.6 3.65 -58.2 1 -57.1 -1.55 -55.9
M 25.55 -7.55
L 27.25 -6.1
M 21.65 -24.2
L 17.35 -24.5
M 33.05 -52.65
L 32.5 -52.45
M 34.5 -40.8
L 57.45 -40.05
M 67.3 -12.85
Q 67.8 -12.75 68.25 -12.7
M 95.85 -37.25
L 79 -39.35
M 32.125 -40.875
L 34.5 -40.8
M 21.65 -24.2
L 57.9 -14.05 70.175 -10.875
Q 69.86640625 -10.963671875 69.55 -11.05
L 65.8 -12.25
M 43.7 -55.4
Q 39.65 -54.4 35.6 -53.3
L 34.3 -52.95
Q 33.65 -52.8 33.05 -52.65
M 12.75 -41.5
L 32.125 -40.875
M 68.25 -12.7
Q 69.3 -12.55 70.4 -12.45 83.75 -10.7 97.25 -9.45 111.1 -8.25 125.15 -7.55 139.55 -6.85 154.15 -6.75
M 97.6 -2.25
Q 85.85 -6.55 74.05 -9.8 73.95 -9.85 73.9 -9.9
L 70.175 -10.875
M 69.55 -11.05
L 67.3 -12.85
M 32.5 -52.45
L 3.75 -44.6
M 154.15 -6.75
Q 185.45 -6.6 217.15 -9.15 185.4 -26.6 133.55 -32.4
L 123.95 -33.65 95.85 -37.25
M 126.05 10.3
Q 125.15 9.85 124.3 9.4 111 2.85 97.6 -2.25
M 100.05 49.7
L 128.25 57.3
M 126.05 10.3
Q 133.15 13.9 140.25 18 180.4 45.7 177.2 70.4
L 128.25 57.3
M -8.4 0.35
L -7.9 3.3
Q -5.5 15.45 -5.2 17.05 -5.2 17.15 -5.2 17.2 -5.15 17.4 -5.05 17.6 -3.8 21.6 -2.2 25.65 -1.95 26.2 -1.75 26.75
M 57.3 27.75
Q 50.8 17.95 41.85 8.25 41.1 7.4 40.35 6.65
M 57.3 27.75
Q 57.9 28.8 58.6 29.9 61.8 35 64.4 40.2
L 100.05 49.7
M 34.45 0.65
Q 35.9 2.05 37.25 3.4 38.85 5.05 40.35 6.65
M 20.05 71.3
Q 20 71.05 10.4 51
M -25.1 64.15
Q -23.65 67.55 -21.85 70.85 -17.55 78.9 -11.95 86.65
M 78.95 76.8
Q 76.2 65.35 71.1 53.7
M 10.4 51
Q 7 47.55 -3.25 26.7
M -33.25 40.1
Q -30.55 52.3 -25.1 64.15
M 71.1 53.7
Q 68.1 47 64.4 40.2
M -11.95 86.65
Q 14.05 123.1 68.8 155.2 88.5 117 78.95 76.8
M 39.2 99.25
Q 33 90.75 20.05 71.3
M 27.25 -6.1
Q 31 -2.7 34.45 0.65
M -81.55 -58.4
Q -90.3 -59.8 -99.4 -60.6 -99.85 -60.6 -100.35 -60.7
M -103 -41.1
Q -102.6 -41 -102.25 -40.95 -93.35 -39.3 -84.25 -38.35
M -81.55 -58.4
Q -73.15 -57 -65.05 -55.1 -49.85 -51.4 -36.05 -45.65
L -45.15 -62.95
Q -22.1 -57.75 -16.8 -47.75
M -11.45 -52.3
Q -14.1 -49.85 -16.75 -47.35
M -92.85 -1.6
Q -90.8 -3.75 -88.7 -5.75
L -87.4 -7.05
M -85.15 -32.05
Q -94.85 -29.6 -104.3 -26.85 -104.65 -26.7 -104.9 -26.65
M -108.75 1.55
L -94.65 0.25
Q -93.75 -0.7 -92.85 -1.6
M -76.6 -16.35
Q -77.45 -15.7 -78.2 -15.15 -82.7 -11.55 -87.4 -7.05
M -126.7 -46.55
Q -114.95 -43.3 -103 -41.1
M -104.9 -26.65
Q -118.05 -22.65 -130.6 -17.8
M -133.45 3.95
L -108.75 1.55
M -100.35 -60.7
Q -112.2 -61.65 -124.7 -61.6 -143.1 -61.6 -163.1 -59.4 -145.1 -51.65 -126.7 -46.55
M -1.55 -55.9
Q -4.4 -54.6 -6.85 -53.2 -11.4 -50.55 -14.75 -47.6
M -9.4 2.45
Q -9.6 1.5 -9.85 0.15 -11.55 -8.25 -11.9 -15.75 -12 -16.5 -12 -17.2
L -11.95 -17.3
M -11.75 -15.7
Q -10.6 -9.15 -8.65 0.25
M -61.85 -37.325
Q -61.4939453125 -37.41875 -61.1 -37.55 -61.678125 -37.40546875 -62.25 -37.25 -62.1173828125 -37.283203125 -61.95 -37.3
L -61.85 -37.325
Q -61.49375 -37.40625 -61.1 -37.45 -60.6 -37.45 -60.05 -37.6 -60.5 -37.5 -61 -37.55
L -61.1 -37.55
Q -76.25 -37.4 -84.25 -38.35
M -62.25 -37.25
Q -62.478125 -37.20546875 -62.7 -37.15 -63.6 -37 -63.8 -36.95 -64 -36.85 -63.6 -36.8 -63.25 -37 -61.95 -37.3
M -63.25 -36.8
Q -63.5 -36.8 -63.6 -36.8 -64.5 -36.5 -63.25 -36.8 Z
M -74.3 -18.05
L -72.6 -19.25
Q -72.6 -19.3 -72.35 -19.4 -72.1 -19.6 -71.6 -19.85 -72.85 -18.95 -74.3 -18.05 -74.5 -17.9 -74.7 -17.8 -75.65 -17.1 -76.6 -16.35
M -74.3 -18.05
L -74.75 -17.8 -75.6 -17.2
Q -75.2 -17.45 -74.7 -17.8
M -77.6 -15.85
L -75.6 -17.2
M -12 -17.2
Q -11.9 -16.55 -11.75 -15.7
M -11.95 -17.3
Q -11.95 -17.403125 -11.95 -17.5
M -63.8 -36.95
Q -77.4 -33.95 -85.15 -32.05
M -8.45 3.3
L -8.45 2.75
Q -7.1 9.1 -6.3 12.65
L -5.7 15.35
Q -5.25 17.05 -5.2 17.3 -5.15 17.45 -5.05 17.6 -4.45 20.65 -3.8 23.85
M -8.45 3.3
Q -8.5 4.9 -8.75 4.6
M -8.65 0.25
Q -7.75 4.95 -7.9 3.3
M -8.75 4.6
Q -9 4.25 -9.4 2.45
M -35.7 17.55
L -35.45 15.7
M -42.4 32.8
Q -40.15 28.15 -38.05 23.2 -37.3 21.55 -36.6 19.9
L -36.6 19.8
Q -36.15 18.65 -35.7 17.55 -35.7 18.7 -35.55 19.9 -35.65 19.95 -35.55 19.95 -35.55 21.7 -35.5 23.35 -35.05 31.35 -33.35 39.25 -33.35 39.65 -33.25 40.1
M -3.25 26.7
Q -0.65 30.1 -1.75 26.75
M -42.4 32.8
Q -46.95 41.75 -52.15 49.9 -58.45 59.4 -65.85 67.8 -66.05 68.15 -66.4 68.45
M -94.65 0.25
L -94.3 0.15
Q -95.35 1.1 -96.35 2 -96.55 2.3 -96.85 2.5 -103.65 8.8 -108.7 15.35
M -96.35 2
Q -95.55 1.1 -94.65 0.25
M -108.7 15.35
Q -109.9 16.75 -110.95 18.15 -117.15 26.55 -120.7 35.3
M -111.25 104.2
Q -85.1 89.55 -66.4 68.45
M -120.7 35.3
Q -123.45 42.2 -124.7 49.35 -125.95 56.4 -125.5 63.7 -124.4 83.2 -112 104.2
M -111.25 104.2
Q -111.6 104.35 -111.85 104.55 -111.95 104.4 -112 104.2
M -130.6 -17.8
Q -159.2 -6.75 -184.95 8.85
L -133.45 3.95"/>
</defs>

<g transform="matrix( 1, 0, 0, 1, 0,0) ">
<use xlink:href="#Layer0_0_FILL"/>
</g>

<g filter="url(#Filter_1)" transform="matrix( 1, 0, 0, 1, 0,0) ">
<g transform="matrix( 1.336700439453125, 0, 0, 1.560577392578125, 289.6,490.65) ">
<g transform="matrix( 1, 0, 0, 1, 0,0) ">
<use xlink:href="#Duplicate_Items_Folder_final_0_Layer3_0_FILL"/>

<use xlink:href="#Duplicate_Items_Folder_final_0_Layer3_0_1_STROKES"/>
</g>

<g transform="matrix( 0.334228515625, 0, 0, 0.359771728515625, -49.15,-111.05) ">
<g transform="matrix( 1, 0, 0, 1, 0,0) ">
<use xlink:href="#Duplicate_Items_Folder_leaf_2_copy_2_0_Layer2_0_FILL"/>

<use xlink:href="#Duplicate_Items_Folder_leaf_2_copy_2_0_Layer2_0_1_STROKES"/>
</g>

<g transform="matrix( 1, 0, 0, 1, 0,0) ">
<use xlink:href="#Duplicate_Items_Folder_leaf_2_copy_2_0_Layer1_0_FILL"/>

<use xlink:href="#Duplicate_Items_Folder_leaf_2_copy_2_0_Layer1_0_1_STROKES"/>
</g>

<g transform="matrix( 1, 0, 0, 1, 0,0) ">
<use xlink:href="#Duplicate_Items_Folder_leaf_2_copy_2_0_Layer0_0_FILL"/>

<use xlink:href="#Duplicate_Items_Folder_leaf_2_copy_2_0_Layer0_0_1_STROKES"/>
</g>
</g>

<g transform="matrix( -0.329559326171875, 0.03973388671875, 0.025421142578125, 0.2779541015625, 60.5,-116.5) ">
<g transform="matrix( 1, 0, 0, 1, 0,0) ">
<use xlink:href="#leaf_2_copy_0_Layer2_0_FILL"/>

<use xlink:href="#leaf_2_copy_0_Layer2_0_1_STROKES"/>
</g>

<g transform="matrix( 1, 0, 0, 1, 0,0) ">
<use xlink:href="#leaf_2_copy_0_Layer1_0_FILL"/>

<use xlink:href="#leaf_2_copy_0_Layer1_0_1_STROKES"/>
</g>

<g transform="matrix( 1, 0, 0, 1, 0,0) ">
<use xlink:href="#leaf_2_copy_0_Layer0_0_FILL"/>

<use xlink:href="#leaf_2_copy_0_Layer0_0_1_STROKES"/>
</g>
</g>

<g transform="matrix( 0.2062225341796875, 0, 0, 0.221221923828125, -45.45,-51.7) ">
<g transform="matrix( 1, 0, 0, 1, 0,0) ">
<use xlink:href="#Duplicate_Items_Folder_leaf_2_copy_2_0_Layer2_0_FILL"/>

<use xlink:href="#Duplicate_Items_Folder_leaf_2_copy_2_0_Layer2_0_1_STROKES"/>
</g>

<g transform="matrix( 1, 0, 0, 1, 0,0) ">
<use xlink:href="#Duplicate_Items_Folder_leaf_2_copy_2_0_Layer1_0_FILL"/>

<use xlink:href="#Duplicate_Items_Folder_leaf_2_copy_2_0_Layer1_0_1_STROKES"/>
</g>

<g transform="matrix( 1, 0, 0, 1, 0,0) ">
<use xlink:href="#Duplicate_Items_Folder_leaf_2_copy_2_0_Layer0_0_FILL"/>

<use xlink:href="#Duplicate_Items_Folder_leaf_2_copy_2_0_Layer0_0_1_STROKES"/>
</g>
</g>

<g transform="matrix( -0.260345458984375, 0.0074920654296875, 0, 0.3365478515625, 53.55,-58.4) ">
<g transform="matrix( 1, 0, 0, 1, 0,0) ">
<use xlink:href="#leaf_2_copy_0_Layer2_0_FILL"/>

<use xlink:href="#leaf_2_copy_0_Layer2_0_1_STROKES"/>
</g>

<g transform="matrix( 1, 0, 0, 1, 0,0) ">
<use xlink:href="#leaf_2_copy_0_Layer1_0_FILL"/>

<use xlink:href="#leaf_2_copy_0_Layer1_0_1_STROKES"/>
</g>

<g transform="matrix( 1, 0, 0, 1, 0,0) ">
<use xlink:href="#leaf_2_copy_0_Layer0_0_FILL"/>

<use xlink:href="#leaf_2_copy_0_Layer0_0_1_STROKES"/>
</g>
</g>

<g transform="matrix( -0.2062225341796875, 0.013671875, 0, 0.27276611328125, 38.85,-172.75) ">
<g transform="matrix( 1, 0, 0, 1, 0,0) ">
<use xlink:href="#Duplicate_Items_Folder_leaf_2_copy_2_0_Layer2_0_FILL"/>

<use xlink:href="#Duplicate_Items_Folder_leaf_2_copy_2_0_Layer2_0_1_STROKES"/>
</g>

<g transform="matrix( 1, 0, 0, 1, 0,0) ">
<use xlink:href="#Duplicate_Items_Folder_leaf_2_copy_2_0_Layer1_0_FILL"/>

<use xlink:href="#Duplicate_Items_Folder_leaf_2_copy_2_0_Layer1_0_1_STROKES"/>
</g>

<g transform="matrix( 1, 0, 0, 1, 0,0) ">
<use xlink:href="#Duplicate_Items_Folder_leaf_2_copy_2_0_Layer0_0_FILL"/>

<use xlink:href="#Duplicate_Items_Folder_leaf_2_copy_2_0_Layer0_0_1_STROKES"/>
</g>
</g>

<g transform="matrix( 0.189208984375, 0.0054473876953125, 0, 0.2073822021484375, -35.4,-174.95) ">
<g transform="matrix( 1, 0, 0, 1, 0,0) ">
<use xlink:href="#Duplicate_Items_Folder_leaf_2_copy_2_0_Layer2_0_FILL"/>

<use xlink:href="#Duplicate_Items_Folder_leaf_2_copy_2_0_Layer2_0_1_STROKES"/>
</g>

<g transform="matrix( 1, 0, 0, 1, 0,0) ">
<use xlink:href="#Duplicate_Items_Folder_leaf_2_copy_2_0_Layer1_0_FILL"/>

<use xlink:href="#Duplicate_Items_Folder_leaf_2_copy_2_0_Layer1_0_1_STROKES"/>
</g>

<g transform="matrix( 1, 0, 0, 1, 0,0) ">
<use xlink:href="#Duplicate_Items_Folder_leaf_2_copy_2_0_Layer0_0_FILL"/>

<use xlink:href="#Duplicate_Items_Folder_leaf_2_copy_2_0_Layer0_0_1_STROKES"/>
</g>
</g>

<g transform="matrix( -0.1591796875, -0.0146636962890625, -0.01702880859375, 0.18511962890625, 15.35,-214.6) ">
<g transform="matrix( 1, 0, 0, 1, 0,0) ">
<use xlink:href="#Duplicate_Items_Folder_leaf_2_copy_2_0_Layer2_0_FILL"/>

<use xlink:href="#Duplicate_Items_Folder_leaf_2_copy_2_0_Layer2_0_1_STROKES"/>
</g>

<g transform="matrix( 1, 0, 0, 1, 0,0) ">
<use xlink:href="#Duplicate_Items_Folder_leaf_2_copy_2_0_Layer1_0_FILL"/>

<use xlink:href="#Duplicate_Items_Folder_leaf_2_copy_2_0_Layer1_0_1_STROKES"/>
</g>

<g transform="matrix( 1, 0, 0, 1, 0,0) ">
<use xlink:href="#Duplicate_Items_Folder_leaf_2_copy_2_0_Layer0_0_FILL"/>

<use xlink:href="#Duplicate_Items_Folder_leaf_2_copy_2_0_Layer0_0_1_STROKES"/>
</g>
</g>

<g transform="matrix( 0.1722412109375, 0.0049591064453125, 0, 0.22259521484375, -36.15,-220.75) ">
<g transform="matrix( 1, 0, 0, 1, 0,0) ">
<use xlink:href="#leaf_2_copy_0_Layer2_0_FILL"/>

<use xlink:href="#leaf_2_copy_0_Layer2_0_1_STROKES"/>
</g>

<g transform="matrix( 1, 0, 0, 1, 0,0) ">
<use xlink:href="#leaf_2_copy_0_Layer1_0_FILL"/>

<use xlink:href="#leaf_2_copy_0_Layer1_0_1_STROKES"/>
</g>

<g transform="matrix( 1, 0, 0, 1, 0,0) ">
<use xlink:href="#leaf_2_copy_0_Layer0_0_FILL"/>

<use xlink:href="#leaf_2_copy_0_Layer0_0_1_STROKES"/>
</g>
</g>

<g transform="matrix( -0.049407958984375, 0.17413330078125, 0.32525634765625, 0.0706787109375, 6.1,-249.6) ">
<g transform="matrix( 1, 0, 0, 1, 0,0) ">
<use xlink:href="#Duplicate_Items_Folder_leaf_2_copy_2_0_Layer2_0_FILL"/>

<use xlink:href="#Duplicate_Items_Folder_leaf_2_copy_2_0_Layer2_0_1_STROKES"/>
</g>

<g transform="matrix( 1, 0, 0, 1, 0,0) ">
<use xlink:href="#Duplicate_Items_Folder_leaf_2_copy_2_0_Layer1_0_FILL"/>

<use xlink:href="#Duplicate_Items_Folder_leaf_2_copy_2_0_Layer1_0_1_STROKES"/>
</g>

<g transform="matrix( 1, 0, 0, 1, 0,0) ">
<use xlink:href="#Duplicate_Items_Folder_leaf_2_copy_2_0_Layer0_0_FILL"/>

<use xlink:href="#Duplicate_Items_Folder_leaf_2_copy_2_0_Layer0_0_1_STROKES"/>
</g>
</g>

<g transform="matrix( 1.2050933837890625, 0, 0, 0.7958984375, -19.7,-117.8) ">
<g transform="matrix( 1, 0, 0, 1, 0,0) ">
<use xlink:href="#Duplicate_Items_Folder_Symbol_1_copy_0_Layer0_0_FILL"/>

<use xlink:href="#Duplicate_Items_Folder_Symbol_1_copy_0_Layer0_0_1_STROKES"/>
</g>
</g>

<g transform="matrix( -1.392303466796875, 0, 0, 1.1224365234375, 21.2,-115.9) ">
<g transform="matrix( 1, 0, 0, 1, 0,0) ">
<use xlink:href="#Duplicate_Items_Folder_Symbol_1_copy_0_Layer0_0_FILL"/>

<use xlink:href="#Duplicate_Items_Folder_Symbol_1_copy_0_Layer0_0_1_STROKES"/>
</g>
</g>

<g transform="matrix( 1.1821136474609375, -0.191192626953125, 0.22564697265625, 0.960906982421875, -24.35,-246.75) ">
<g transform="matrix( 1, 0, 0, 1, 0,0) ">
<use xlink:href="#Duplicate_Items_Folder_Symbol_1_copy_0_Layer0_0_FILL"/>

<use xlink:href="#Duplicate_Items_Folder_Symbol_1_copy_0_Layer0_0_1_STROKES"/>
</g>
</g>

<g transform="matrix( -1.0627899169921875, -0.311248779296875, -0.20867919921875, 1.107421875, 20.5,-245.95) ">
<g transform="matrix( 1, 0, 0, 1, 0,0) ">
<use xlink:href="#Duplicate_Items_Folder_Symbol_1_copy_0_Layer0_0_FILL"/>

<use xlink:href="#Duplicate_Items_Folder_Symbol_1_copy_0_Layer0_0_1_STROKES"/>
</g>
</g>

<g transform="matrix( 1.18646240234375, -0.172637939453125, 0.22564697265625, 0.960906982421875, -29.75,-198) ">
<g transform="matrix( 1, 0, 0, 1, 0,0) ">
<use xlink:href="#Duplicate_Items_Folder_Symbol_1_copy_0_Layer0_0_FILL"/>

<use xlink:href="#Duplicate_Items_Folder_Symbol_1_copy_0_Layer0_0_1_STROKES"/>
</g>
</g>

<g transform="matrix( -1.392303466796875, 0, 0, 1.1224365234375, 15.9,-197.65) ">
<g transform="matrix( 1, 0, 0, 1, 0,0) ">
<use xlink:href="#Duplicate_Items_Folder_Symbol_1_copy_0_Layer0_0_FILL"/>

<use xlink:href="#Duplicate_Items_Folder_Symbol_1_copy_0_Layer0_0_1_STROKES"/>
</g>
</g>

<g transform="matrix( 0.2061614990234375, 0, 0, 0.32684326171875, -1.9,-153.1) ">
<g transform="matrix( 1, 0, 0, 1, 0,0) ">
<use xlink:href="#leaf_2_copy_2_0_Layer0_0_FILL"/>

<use xlink:href="#leaf_2_copy_2_0_Layer0_0_1_STROKES"/>
</g>
</g>

<g transform="matrix( 0.2315521240234375, 0, 0, 0.307708740234375, -1.35,-67.7) ">
<g transform="matrix( 1, 0, 0, 1, 0,0) ">
<use xlink:href="#leaf_2_copy_2_0_Layer0_0_FILL"/>

<use xlink:href="#leaf_2_copy_2_0_Layer0_0_1_STROKES"/>
</g>
</g>
</g>
</g>
</svg>
