
<svg xmlns="http://www.w3.org/2000/svg" version="1.1" xmlns:xlink="http://www.w3.org/1999/xlink" preserveAspectRatio="none" x="0px" y="0px" width="560px" height="544px" viewBox="0 0 560 544">
<defs>
<g id="Duplicate_Items_Folder_full_size_0_Layer2_0_FILL">
<path fill="#00FF00" stroke="none" d="
M -32.65 3.3
Q -32.6 3.3 -32.55 3.3
L -32.25 3.25
Q -32.4 3.25 -32.65 3.3
M -3.05 -0.95
Q -3.25 -1.05 -3.45 -1.15 -4.85 -1.5 -9.45 0.3 -14.1 2.05 -16.1 5.85 -16.1 5.95 -16.05 6 -13.55 4.2 -7.95 3.6 -3.35 2.6 -1.7 0.9 -1.6 0.75 -1.35 -0.35
L -1.4 -0.4
Q -2.3 -0.55 -3.05 -0.95
M -5.35 -2.9
Q -6.75 -3.35 -8.35 -3.75
L -8.95 -3.9
Q -10.75 -4.3 -12.8 -4.7 -17.55 -5.5 -21.05 -5 -27.25 -2.55 -28.15 0.9 -28.8 2.45 -31.5 3.05 -30.1 3.7 -27.9 2.3
L -24.35 -2.2
Q -21.65 -3.55 -16.4 -3.75 -10 -3.15 -5.05 -2.15 -4.75 -2.1 -3.45 -1.95 -4.45 -2.1 -4.05 -2.2 -3.8 -2.25 -3.4 -2.3 -3.8 -2.45 -4.2 -2.55 -4.65 -2.7 -5.05 -2.85 -5.2 -2.9 -5.35 -2.9
M -10.4 -8.65
Q -12.75 -9 -15 -8.65
L -9.6 -7.7 -3.55 -3.2
Q -3.2 -3.5 -3.25 -3.7 -3.3 -3.9 -3.35 -4
L -6.25 -7.15
Q -7 -8.35 -10.4 -8.65
M 2.6 -1.3
L 2.55 -1.35 2.55 -1.3 2.6 -1.3
M 2.55 -1.3
L 2.55 -1.25 2.65 -1.3 2.6 -1.3 2.55 -1.3
M 1.95 -0.5
Q 2.05 -0.5 2.2 -0.35 5.7 2.6 12.1 5.25 15 6.85 15.5 8.7
L 15.55 8.7
Q 15.4 6.25 14.05 4.6
L 6.3 0.45
Q 4.1 -0.45 3.4 -1.05 3.3 -1.1 3.25 -1.15
L 3.15 -1.1
Q 3.1 -1 2.5 -1 2.35 -0.6 1.95 -0.5
M 2.5 -1.35
Q 2.45 -1.35 2.4 -1.35
L 2.55 -1.3 2.55 -1.35 2.5 -1.35
M 0.55 -0.3
Q 0.3 -0.3 0.05 -0.3 -0.65 -0.3 -1.4 -0.4
L -1.35 -0.35
Q -1.6 0.75 -1.7 0.9 -2.2 1.55 -2.45 2.25 -3.4 4.75 -1.1 7.2 -1.15 6.8 -0.95 6.5
L -1.35 4.55
Q -1.25 3.4 0.55 2.55 1.5 1.3 0.6 -0.05 0.6 -0.15 0.55 -0.3
M 2.25 -2.05
L 2.3 -1.95
Q 3.2 -1.7 2.6 -1.4
L 3 -1.3 3.3 -1.2 15.15 0.65
Q 18.5 1.35 22.85 0.05
L 26 -2.7
Q 22.9 -1 17.6 -1.05
L 5.7 -1.4
Q 12.7 -1.6 17.35 -7.5 15.85 -6.75 8.55 -5.85 5.6 -4.7 2.8 -2.7 2.9 -2.65 2.2 -2.25 3.2 -2.4 2.25 -2.05
M -12.95 -39.5
Q -12.85 -39.75 -12.75 -39.95 -13.35 -40.3 -13.8 -40.8
L -25.55 -27.05
Q -26.85 -22.85 -26.6 -16.75
L -26.55 -16.75
Q -26.3 -21.35 -23.3 -25.45 -16.5 -32.15 -12.95 -39.5
M -15.3 -44.65
Q -15.3 -45.05 -15.25 -45.4
L -28.55 -49.2
Q -25.8 -43 -17.15 -42.1
L -30.7 -41.2
Q -36.65 -41.1 -40.55 -45.35
L -36.4 -38.5
Q -31.25 -35.25 -27.55 -37.05
L -14.5 -41.25 -14.3 -41.4
Q -15.3 -42.8 -15.3 -44.65
M -8.95 -39.5
Q -8.95 -39.55 -8.95 -39.6 -9.7 -39.35 -10.5 -39.35 -10.8 -39.35 -11.05 -39.35 -11.95 -35.6 -10.6 -32.2 -8.45 -30 -8.05 -27.25
L -8.2 -22.3
Q -7.95 -21.45 -7.9 -20.55 -5.15 -28.2 -8.25 -36.3 -8.5 -36.8 -8.95 -39.5
M -0.2 -60.3
Q -4 -59.55 -4.6 -56.6
L -7.35 -48.65
Q -7.25 -48.55 -7.1 -48.4 -6.75 -48 -6.45 -47.55
L -0.9 -57.9 5.05 -60.25
Q 2.45 -61.15 -0.2 -60.3
M 8.95 -23.65
Q 8.95 -23.75 8.95 -23.9 5.85 -33.35 -5.05 -40.4 -5.85 -40.9 -6.7 -41.4 -6.9 -41.15 -7.1 -40.9 -7.95 -40 -8.95 -39.6 -8.95 -39.55 -8.95 -39.5 -8.5 -36.8 -8.25 -36.3 -6.1 -32.05 -0.75 -29.5 5.7 -28.05 8.95 -23.65
M 27.2 -30.3
Q 27.25 -30.35 27.35 -30.35 26.9 -30.5 26.45 -30.65
L 27.2 -30.3
M 12.65 -51.05
Q 8.55 -52.35 3.25 -50.35
L -5.7 -45
Q -5.7 -44.85 -5.7 -44.65 -5.7 -44.15 -5.75 -43.65 -5.4 -43.85 -5.05 -44 0.4 -46.5 7.6 -47.9 13.6 -47.45 16.95 -44.05
L 21.75 -32.85
Q 24.5 -29.35 26 -30.9 22.75 -32.45 21.8 -36.35 20.15 -45 12.65 -51.05 Z"/>

<path fill="#00C100" stroke="none" d="
M -3.35 -1.95
L -3.45 -1.95
Q -4.75 -2.1 -5.05 -2.15 -10 -3.15 -16.4 -3.75 -21.65 -3.55 -24.35 -2.2
L -27.9 2.3
Q -30.1 3.7 -31.5 3.05 -31.65 3.1 -31.8 3.15 -31.85 3.15 -31.9 3.15
L -32.25 3.25 -32.55 3.3
Q -27.95 3.7 -26.4 1.75 -24.9 -0.45 -21.4 -0.8 -12.65 -0.5 -5.8 -1.1 -16.05 0.9 -16.1 5.85 -14.1 2.05 -9.45 0.3 -4.85 -1.5 -3.45 -1.15 -4.15 -1.5 -3.35 -1.95
M -15.2 -8.6
L -10.65 -7.15
Q -11.35 -5.75 -9.55 -4.05
L -8.95 -3.9 -8.35 -3.75
Q -6.75 -3.35 -5.35 -2.9 -5.2 -2.9 -5.05 -2.85 -4.65 -2.7 -4.2 -2.55
L -4.15 -2.55
Q -4.1 -2.55 -4.05 -2.55
L -3.95 -2.55 -3.55 -3.2 -9.6 -7.7 -15 -8.65
Q -15.1 -8.6 -15.2 -8.6
M 2.8 -2.7
Q 5.6 -4.7 8.55 -5.85 15.85 -6.75 17.35 -7.5 17.5 -7.6 17.5 -7.7 5.05 -8.95 2.8 -2.7
M 3.3 -1.2
Q 3.35 -1.15 3.4 -1.05 4.1 -0.45 6.3 0.45 8.95 1.15 14.3 2.15 17.95 2.95 21.8 2.3 26.85 0.4 26 -2.7
L 22.85 0.05
Q 18.5 1.35 15.15 0.65
L 3.3 -1.2
M 2.2 -0.35
Q 2.05 -0.5 1.95 -0.5
L 1.9 -0.5 6.35 5.3
Q 10.7 8.45 15.5 8.7 15 6.85 12.1 5.25 5.7 2.6 2.2 -0.35
M 1.05 -0.35
Q 0.8 -0.3 0.55 -0.3 0.6 -0.15 0.6 -0.05 1.5 1.3 0.55 2.55 -1.25 3.4 -1.35 4.55
L -0.95 6.5
Q -0.4 5.3 2.2 4.35 3.6 3.15 1.65 -0.35 1.6 -0.4 1.6 -0.45 1.3 -0.4 1.05 -0.35
M -27.55 -37.05
Q -31.25 -35.25 -36.4 -38.5
L -40.55 -45.35
Q -40.9 -37.6 -34.85 -32.8 -30.35 -31.2 -26.3 -33.2
L -14.5 -41.25 -27.55 -37.05
M -11.05 -39.35
Q -11.75 -39.45 -12.35 -39.7 -12.4 -39.6 -12.4 -39.5 -13.95 -30.7 -12.15 -27.65 -9.1 -25.3 -8.2 -22.3
L -8.05 -27.25
Q -8.45 -30 -10.6 -32.2 -11.95 -35.6 -11.05 -39.35
M -12.75 -39.95
Q -12.85 -39.75 -12.95 -39.5 -16.5 -32.15 -23.3 -25.45 -26.3 -21.35 -26.55 -16.75 -21.15 -17.45 -16.75 -25.4
L -12.65 -39.85
Q -12.7 -39.9 -12.75 -39.95
M 26 -30.9
Q 24.5 -29.35 21.75 -32.85
L 16.95 -44.05
Q 13.6 -47.45 7.6 -47.9 0.4 -46.5 -5.05 -44 -5.4 -43.85 -5.75 -43.65 -6 -42.4 -6.7 -41.4 -5.85 -40.9 -5.05 -40.4 5.85 -33.35 8.95 -23.9 8 -36.3 -4.05 -41.35 3.85 -39.8 13.8 -40.65 17.8 -39.65 19.95 -34.2 22.05 -29.25 27.2 -30.3
L 26.45 -30.65
Q 26.4 -30.7 26.35 -30.7 26.15 -30.8 26 -30.9
M 5.4 -60.15
Q 5.25 -60.2 5.05 -60.25
L -0.9 -57.9 -6.45 -47.55
Q -5.95 -46.7 -5.75 -45.7
L -0.3 -49.6
Q 1.5 -52.9 0.4 -56.6
L 5.4 -60.15 Z"/>
</g>

<g id="Duplicate_Items_Folder_full_size_0_Layer1_0_FILL">
<path fill="#008200" stroke="none" d="
M -8.75 -38.2
Q 1.85 -18.25 -4.5 -0.8 -0.9 1.6 3.35 -0.75 3.65 -21.2 -6.9 -39.2 -8.75 -38.35 -8.75 -38.2 Z"/>
</g>

<g id="Duplicate_Items_Folder_full_size_0_Layer0_0_FILL">
<path fill="#FF003A" stroke="none" d="
M -23 -60.8
Q -22.3 -60.05 -22 -58.9 -21.4 -56.45 -19.3 -46.95 -17.3 -37.5 -10.25 -39.2 -3.45 -40.95 -1.15 -45.35 -0.8 -47.8 -2 -50.1 -3.95 -53.85 -7.5 -57.65 -11.1 -61.5 -11.9 -62.95 -12.75 -64.4 -12.05 -66.75 -11.35 -69.1 -11.1 -70.25
L -11.15 -70.25
Q -11.5 -68.2 -15.55 -65.05 -19.6 -61.9 -23 -60.8
M -8.8 -56.2
Q -8.3 -56.2 -7.95 -55.9 -7.6 -55.6 -7.6 -55.15 -7.6 -54.7 -7.95 -54.4 -8.3 -54.1 -8.8 -54.1 -9.3 -54.1 -9.65 -54.4 -10 -54.7 -10 -55.15 -10 -55.6 -9.65 -55.9 -9.3 -56.2 -8.8 -56.2
M -7.65 -50.65
Q -7.9 -51.1 -7.9 -51.75 -7.9 -52.35 -7.65 -52.8 -7.35 -53.25 -6.95 -53.25 -6.55 -53.25 -5.9 -52.2 -5.5 -51.55 -5.3 -51.05 -4.55 -51.05 -4 -50.25 -3.45 -49.45 -3.45 -48.35 -3.45 -47.2 -4 -46.45 -4.55 -45.6 -5.15 -45.7 -5.75 -45.85 -5.4 -47.15 -5 -48.45 -6.2 -49.25 -7.35 -50.05 -7.35 -50.35 -7.5 -50.45 -7.65 -50.65 Z"/>

<path fill="#FF7C9A" stroke="none" d="
M -7.9 -51.75
Q -7.9 -51.1 -7.65 -50.65 -7.5 -50.45 -7.35 -50.35 -7.35 -50.05 -6.2 -49.25 -5 -48.45 -5.4 -47.15 -5.75 -45.85 -5.15 -45.7 -4.55 -45.6 -4 -46.45 -3.45 -47.2 -3.45 -48.35 -3.45 -49.45 -4 -50.25 -4.55 -51.05 -5.3 -51.05 -5.5 -51.55 -5.9 -52.2 -6.55 -53.25 -6.95 -53.25 -7.35 -53.25 -7.65 -52.8 -7.9 -52.35 -7.9 -51.75
M -7.95 -55.9
Q -8.3 -56.2 -8.8 -56.2 -9.3 -56.2 -9.65 -55.9 -10 -55.6 -10 -55.15 -10 -54.7 -9.65 -54.4 -9.3 -54.1 -8.8 -54.1 -8.3 -54.1 -7.95 -54.4 -7.6 -54.7 -7.6 -55.15 -7.6 -55.6 -7.95 -55.9
M -25.95 -65.4
L -26.25 -66.2 -29.9 -64.15
Q -30.2 -63.95 -30.4 -63.7 -33.4 -61.2 -31.8 -59.65 -31.15 -59.25 -30.05 -59.15
L -28.7 -59.15
Q -26.75 -59.55 -25.25 -59.95 -23.75 -60.35 -23 -60.8 -19.6 -61.9 -15.55 -65.05 -11.5 -68.2 -11.15 -70.25 -11.3 -71.65 -12.7 -71.95 -14.1 -72.3 -16.75 -71.5
L -22.05 -68.6 -21.85 -67.65 -18.9 -69.3
Q -16.55 -70 -15.7 -69.4 -15.25 -69.1 -15.2 -68.5 -19.65 -63.9 -24.65 -61.85 -25.7 -61.4 -26.8 -61.1 -26.85 -61.15 -26.85 -61.1
L -27.75 -61.1
Q -28.45 -61.2 -28.9 -61.45 -29.65 -62.2 -28.9 -63.2 -28.5 -63.8 -27.65 -64.45
L -25.95 -65.4 Z"/>

<path fill="#C40430" stroke="none" d="
M -23 -60.8
Q -23.75 -60.35 -25.25 -59.95 -26.75 -59.55 -28.7 -59.15
L -28.65 -59.1
Q -23.95 -57.2 -23.3 -54.95 -22.7 -52.6 -20.6 -43.4 -18.55 -34.25 -11.5 -35.95 -4.45 -37.7 -2.25 -42 -1.4 -43.75 -1.15 -45.35 -3.45 -40.95 -10.25 -39.2 -17.3 -37.5 -19.3 -46.95 -21.4 -56.45 -22 -58.9 -22.3 -60.05 -23 -60.8 Z"/>

<path fill="#FF9900" stroke="none" d="
M -24.15 -67.35
L -23.85 -66.5 -22.95 -64.3 -23.8 -66.55 -21.85 -67.65 -22.05 -68.6 -24.15 -67.35
M -26.25 -66.2
L -25.95 -65.4 -23.85 -66.5 -24.15 -67.35 -26.25 -66.2 Z"/>

<path fill="#840220" stroke="none" d="
M -25.95 -65.4
L -27.65 -64.45
Q -28.5 -63.8 -28.9 -63.2 -29.65 -62.2 -28.9 -61.45 -28.45 -61.2 -27.75 -61.1
L -26.85 -61.1
Q -26.85 -61.15 -26.8 -61.1 -25.7 -61.4 -24.65 -61.85 -19.65 -63.9 -15.2 -68.5 -15.25 -69.1 -15.7 -69.4 -16.55 -70 -18.9 -69.3
L -21.85 -67.65 -21.4 -65.35 -21.85 -67.65 -23.8 -66.55 -22.95 -64.3 -22.85 -63.95 -22.95 -64.3 -23.85 -66.5 -25.95 -65.4 -25.25 -63.6 -25.95 -65.4 Z"/>

<path fill="#A57CFF" stroke="none" d="
M -26.4 -77.9
Q -26.4 -78.7 -27.05 -79.3 -27.65 -79.85 -28.55 -79.85 -29.15 -79.85 -29.4 -79.7 -29.7 -79.55 -30 -79.15 -30.35 -78.75 -30.35 -77.95 -30.4 -77.2 -29.9 -76.55 -29.45 -75.95 -28.55 -75.95 -27.75 -75.95 -27.15 -76.4 -27.1 -76.5 -27.05 -76.55 -26.7 -76.85 -26.5 -77.2 -26.4 -77.55 -26.4 -77.9
M -31.9 -78.05
Q -32.3 -78.45 -32.8 -78.55 -32.95 -78.6 -33.15 -78.6 -33.9 -78.6 -34.45 -78.05 -34.95 -77.45 -34.95 -76.65 -34.95 -76.45 -34.9 -76.3 -34.85 -75.7 -34.45 -75.3 -33.9 -74.7 -33.15 -74.7 -32.4 -74.7 -31.9 -75.3 -31.8 -75.4 -31.75 -75.45 -31.5 -75.8 -31.4 -76.2 -31.35 -76.4 -31.35 -76.65 -31.35 -77.45 -31.9 -78.05
M -35.75 -75.1
Q -36.45 -75.1 -36.95 -74.6 -37.4 -74.1 -37.4 -73.4 -37.4 -72.7 -36.95 -72.2 -36.45 -71.7 -35.75 -71.7 -35.05 -71.7 -34.6 -72.2 -34.5 -72.3 -34.45 -72.35 -34.1 -72.8 -34.1 -73.4 -34.1 -74.1 -34.6 -74.6 -35.05 -75.1 -35.75 -75.1 Z"/>
</g>

<path id="Duplicate_Items_Folder_full_size_0_Layer2_0_1_STROKES" stroke="#17020D" stroke-width="1" stroke-linejoin="round" stroke-linecap="round" fill="none" d="
M -6.45 -47.55
Q -5.95 -46.7 -5.75 -45.7
L -0.3 -49.6
Q 1.5 -52.9 0.4 -56.6
L 5.4 -60.15
Q 5.25 -60.2 5.05 -60.25
L -0.9 -57.9 -6.45 -47.55
Q -6.75 -48 -7.1 -48.4 -7.25 -48.55 -7.35 -48.65
L -4.6 -56.6
Q -4 -59.55 -0.2 -60.3 2.45 -61.15 5.05 -60.25
M 26 -30.9
Q 22.75 -32.45 21.8 -36.35 20.15 -45 12.65 -51.05 8.55 -52.35 3.25 -50.35
L -5.7 -45
M 26 -30.9
Q 26.15 -30.8 26.35 -30.7 26.4 -30.7 26.45 -30.65 26.9 -30.5 27.35 -30.35 27.25 -30.35 27.2 -30.3 22.05 -29.25 19.95 -34.2 17.8 -39.65 13.8 -40.65 3.85 -39.8 -4.05 -41.35 8 -36.3 8.95 -23.9 8.95 -23.75 8.95 -23.65 5.7 -28.05 -0.75 -29.5 -6.1 -32.05 -8.25 -36.3 -5.15 -28.2 -7.9 -20.55 -7.95 -21.45 -8.2 -22.3 -9.1 -25.3 -12.15 -27.65 -13.95 -30.7 -12.4 -39.5 -12.4 -39.6 -12.35 -39.7 -12.4 -39.75 -12.45 -39.75
L -13.45 -35.5
M 2.6 -1.4
Q 3.2 -1.7 2.3 -1.95
L 2.25 -2.05
Q 3.2 -2.4 2.2 -2.25 2.9 -2.65 2.8 -2.7 5.05 -8.95 17.5 -7.7 17.5 -7.6 17.35 -7.5 12.7 -1.6 5.7 -1.4
L 17.6 -1.05
Q 22.9 -1 26 -2.7 26.85 0.4 21.8 2.3 17.95 2.95 14.3 2.15 8.95 1.15 6.3 0.45
L 14.05 4.6
Q 15.4 6.25 15.55 8.7
L 15.5 8.7
Q 10.7 8.45 6.35 5.3
L 1.9 -0.5
Q 1.75 -0.5 1.7 -0.5 1.6 -0.5 1.6 -0.45 1.6 -0.4 1.65 -0.35 3.6 3.15 2.2 4.35 -0.4 5.3 -0.95 6.5 -1.15 6.8 -1.1 7.2 -3.4 4.75 -2.45 2.25 -2.2 1.55 -1.7 0.9 -3.35 2.6 -7.95 3.6 -13.55 4.2 -16.05 6 -16.1 5.95 -16.1 5.85 -16.05 0.9 -5.8 -1.1 -12.65 -0.5 -21.4 -0.8 -24.9 -0.45 -26.4 1.75 -27.95 3.7 -32.55 3.3 -32.6 3.3 -32.65 3.3 -32.4 3.25 -32.25 3.25
L -31.9 3.15
Q -31.85 3.15 -31.8 3.15 -31.65 3.1 -31.5 3.05 -28.8 2.45 -28.15 0.9 -27.25 -2.55 -21.05 -5 -17.55 -5.5 -12.8 -4.7 -10.75 -4.3 -8.95 -3.9
L -9.55 -4.05
Q -11.35 -5.75 -10.65 -7.15
L -15.2 -8.6
Q -15.1 -8.6 -15 -8.65 -12.75 -9 -10.4 -8.65 -7 -8.35 -6.25 -7.15
L -3.35 -4
Q -3.3 -3.9 -3.25 -3.7 -3.2 -3.5 -3.55 -3.2
L -3.95 -2.55 -4.05 -2.55
Q -4.1 -2.55 -4.15 -2.55
L -4.2 -2.55
Q -3.8 -2.45 -3.4 -2.3
L -4 -2.15 -4.05 -2.2
M -3.35 -1.95
Q -4.15 -1.5 -3.45 -1.15 -3.25 -1.05 -3.05 -0.95 -2.3 -0.55 -1.4 -0.4 -0.65 -0.3 0.05 -0.3 0.3 -0.3 0.55 -0.3 0.8 -0.3 1.05 -0.35 1.3 -0.4 1.6 -0.45
M 2.4 -1.35
Q 2.45 -1.35 2.5 -1.35
L 2.15 -1.55 2.55 -1.45 2.6 -1.4 3 -1.3 3.3 -1.2
M 2.5 -1
Q 2.3 -1.05 2.05 -1.05
L 2.55 -1.25 2.55 -1.3
M 1.9 -0.5
L 1.95 -0.5
Q 2.35 -0.6 2.5 -1 2.5 -1.15 2.55 -1.25
L 2.65 -1.3 2.6 -1.3 2.55 -1.3 2.55 -1.35 2.5 -1.35
Q 2.5 -1.4 2.55 -1.4
L 2.55 -1.45
M 3.25 -1.15
Q 3.3 -1.1 3.4 -1.05 3.35 -1.15 3.3 -1.2 3.25 -1.2 3.25 -1.15 3.05 -1.25 2.9 -1.3 2.8 -1.3 2.7 -1.3
L 2.65 -1.3
Q 2.6 -1.35 2.6 -1.4
L 2.55 -1.4 2.55 -1.35 2.6 -1.3
M 3 -1.3
Q 2.95 -1.3 2.9 -1.3 2.75 -1.35 2.6 -1.4
M 3.15 -1.1
L 3.25 -1.15
M -5.7 -45
Q -5.75 -45.35 -5.75 -45.7
M -6.7 -41.4
Q -6.9 -41.15 -7.1 -40.9 -7.95 -40 -8.95 -39.6 -8.95 -39.55 -8.95 -39.5 -8.5 -36.8 -8.25 -36.3
M -5.75 -43.65
Q -6 -42.4 -6.7 -41.4
M -14.3 -41.4
Q -15.3 -42.8 -15.3 -44.65 -15.3 -45.05 -15.25 -45.4
L -28.55 -49.2
Q -25.8 -43 -17.15 -42.1
L -30.7 -41.2
Q -36.65 -41.1 -40.55 -45.35
M -14.3 -41.4
Q -14.25 -41.35 -14.25 -41.3 -14.1 -41.1 -13.9 -40.9 -13.85 -40.85 -13.8 -40.8 -13.35 -40.3 -12.75 -39.95 -12.7 -39.9 -12.65 -39.85 -12.55 -39.8 -12.45 -39.75
M -14.5 -41.25
L -14.25 -41.3
M -11.05 -39.35
Q -11.75 -39.45 -12.35 -39.7
M -8.95 -39.6
Q -9.7 -39.35 -10.5 -39.35 -10.8 -39.35 -11.05 -39.35
M -26.55 -16.75
Q -21.15 -17.45 -16.75 -25.4
L -12.65 -39.85
M -40.55 -45.35
Q -40.9 -37.6 -34.85 -32.8 -30.35 -31.2 -26.3 -33.2
L -14.5 -41.25
M -13.8 -40.8
L -25.55 -27.05
Q -26.85 -22.85 -26.6 -16.75
L -26.55 -16.75
M -8.95 -3.9
L -8.35 -3.75
Q -6.75 -3.35 -5.35 -2.9 -5.2 -2.9 -5.05 -2.85 -4.65 -2.7 -4.2 -2.55
M -1.7 0.9
Q -1.6 0.75 -1.35 -0.35
L -1.4 -0.4
M 3.4 -1.05
Q 4.1 -0.45 6.3 0.45"/>

<path id="Duplicate_Items_Folder_full_size_0_Layer1_0_1_STROKES" stroke="#17020D" stroke-width="1" stroke-linejoin="round" stroke-linecap="round" fill="none" d="
M -4.5 -0.8
Q -0.9 1.6 3.35 -0.75 3.65 -21.2 -6.9 -39.2 -8.75 -38.35 -8.75 -38.2 1.85 -18.25 -4.5 -0.8 Z"/>

<path id="Duplicate_Items_Folder_full_size_0_Layer0_0_1_STROKES" stroke="#000000" stroke-width="1" stroke-linejoin="round" stroke-linecap="round" fill="none" d="
M -34.45 -72.35
Q -34.5 -72.3 -34.6 -72.2 -35.05 -71.7 -35.75 -71.7 -36.45 -71.7 -36.95 -72.2 -37.4 -72.7 -37.4 -73.4 -37.4 -74.1 -36.95 -74.6 -36.45 -75.1 -35.75 -75.1 -35.05 -75.1 -34.6 -74.6 -34.1 -74.1 -34.1 -73.4 -34.1 -72.8 -34.45 -72.35 -33.2 -71.95 -32.15 -71.45 -31.2 -71.05 -30.4 -70.6 -28.95 -69.75 -27.95 -68.75 -27.85 -68.7 -27.75 -68.6 -26.7 -67.5 -26.25 -66.2
L -24.15 -67.35
Q -24.7 -68.8 -25.6 -70.1 -26.9 -71.95 -28.85 -73.5 -29.15 -73.75 -29.45 -74 -30.5 -74.75 -31.75 -75.45 -31.8 -75.4 -31.9 -75.3 -32.4 -74.7 -33.15 -74.7 -33.9 -74.7 -34.45 -75.3 -34.85 -75.7 -34.9 -76.3 -34.95 -76.45 -34.95 -76.65 -34.95 -77.45 -34.45 -78.05 -33.9 -78.6 -33.15 -78.6 -32.95 -78.6 -32.8 -78.55 -32.3 -78.45 -31.9 -78.05 -31.35 -77.45 -31.35 -76.65 -31.35 -76.4 -31.4 -76.2 -31.5 -75.8 -31.75 -75.45
M -27.15 -76.4
Q -27.75 -75.95 -28.55 -75.95 -29.45 -75.95 -29.9 -76.55 -30.4 -77.2 -30.35 -77.95 -30.35 -78.75 -30 -79.15 -29.7 -79.55 -29.4 -79.7 -29.15 -79.85 -28.55 -79.85 -27.65 -79.85 -27.05 -79.3 -26.4 -78.7 -26.4 -77.9 -26.4 -77.55 -26.5 -77.2 -26.7 -76.85 -27.05 -76.55 -27.1 -76.5 -27.15 -76.4 -24.25 -74.1 -22.95 -71.6 -22.2 -70.15 -22.05 -68.6
L -16.75 -71.5
Q -14.1 -72.3 -12.7 -71.95 -11.3 -71.65 -11.15 -70.25
L -11.1 -70.25
Q -11.35 -69.1 -12.05 -66.75 -12.75 -64.4 -11.9 -62.95 -11.1 -61.5 -7.5 -57.65 -3.95 -53.85 -2 -50.1 -0.8 -47.8 -1.15 -45.35 -1.4 -43.75 -2.25 -42 -4.45 -37.7 -11.5 -35.95 -18.55 -34.25 -20.6 -43.4 -22.7 -52.6 -23.3 -54.95 -23.95 -57.2 -28.65 -59.1
M -28.7 -59.15
L -30.05 -59.15
Q -31.15 -59.25 -31.8 -59.65 -33.4 -61.2 -30.4 -63.7 -30.2 -63.95 -29.9 -64.15
L -26.25 -66.2 -25.95 -65.4
M -23.85 -66.5
L -24.15 -67.35 -22.05 -68.6 -21.85 -67.65
M -25.95 -65.4
L -25.25 -63.6
M -21.85 -67.65
L -21.4 -65.35
M -23.85 -66.5
L -22.95 -64.3 -22.85 -63.95
M -23 -60.8
Q -23.75 -60.35 -25.25 -59.95 -26.75 -59.55 -28.7 -59.15
M -11.15 -70.25
Q -11.5 -68.2 -15.55 -65.05 -19.6 -61.9 -23 -60.8"/>
</defs>

<g transform="matrix( 5.81011962890625, 0, 0, 5.81011962890625, 321.35,483.6) ">
<g transform="matrix( 1, 0, 0, 1, 0,0) ">
<use xlink:href="#Duplicate_Items_Folder_full_size_0_Layer2_0_FILL"/>

<use xlink:href="#Duplicate_Items_Folder_full_size_0_Layer2_0_1_STROKES"/>
</g>

<g transform="matrix( 1, 0, 0, 1, 0,0) ">
<use xlink:href="#Duplicate_Items_Folder_full_size_0_Layer1_0_FILL"/>

<use xlink:href="#Duplicate_Items_Folder_full_size_0_Layer1_0_1_STROKES"/>
</g>

<g transform="matrix( 1, 0, 0, 1, 0,0) ">
<use xlink:href="#Duplicate_Items_Folder_full_size_0_Layer0_0_FILL"/>

<use xlink:href="#Duplicate_Items_Folder_full_size_0_Layer0_0_1_STROKES"/>
</g>
</g>
</svg>
