
<svg xmlns="http://www.w3.org/2000/svg" version="1.1" xmlns:xlink="http://www.w3.org/1999/xlink" preserveAspectRatio="none" x="0px" y="0px" width="560px" height="544px" viewBox="0 0 560 544">
<defs>
<radialGradient id="Gradient_1" gradientUnits="userSpaceOnUse" cx="0" cy="0" r="14.103113574668543" fx="0" fy="0" gradientTransform="matrix( -0.9652123928470829, -0.2614670852983374, -0.40859771634757136, 0.9855979622093262, -20.1,-15.75) " spreadMethod="pad">
<stop  offset="0%" stop-color="#FFFFFF"/>

<stop  offset="100%" stop-color="#99FFFF"/>
</radialGradient>

<radialGradient id="Gradient_2" gradientUnits="userSpaceOnUse" cx="0" cy="0" r="14.103113574668539" fx="0" fy="0" gradientTransform="matrix( 0.9652123928470832, -0.2614670852983375, 0.40859771634757147, 0.9855979622093264, 12,-16.65) " spreadMethod="pad">
<stop  offset="0%" stop-color="#FFFFFF"/>

<stop  offset="100%" stop-color="#9999FF"/>
</radialGradient>

<g id="Duplicate_Items_Folder_foot_copy_9_0_Layer0_0_FILL">
<path fill="#000000" stroke="none" d="
M -10.2 -0.65
Q -10.2568359375 -0.465234375 -10.35 -0.3
L -10.85 0.5 -10.9 0.45 -12.4 2.7
Q -13.6447265625 6.473046875 -8.9 9.7 -7.5041015625 10.6619140625 -5.65 11.55 -5.45 11.6 -5.2 11.75 2.9 15.45 5.85 13.4 8.9 11.1 9.4 10.3 9.6 9.9 9.7 8.95
L 9.75 9
Q 9.75 8.7 9.8 8.35 9.85 7.9 9.8 7.55 9.78046875 6.48984375 9.8 5.3 9.7984375 5.216015625 9.8 5.1 9.809765625 3.8279296875 9.85 2.35 -2.0001953125 10.5248046875 -10.2 -0.65 Z"/>

<path fill="#69B1E4" stroke="none" d="
M 8.8 -5.9
Q 8 -10.05 7.3 -11.6 6.5 -13.1 5.9 -15.05 5.6349609375 -16.0306640625 4.45 -16.8 3.4119140625 -17.456640625 1.65 -17.95 0.4 -18.35 -0.65 -18.25 -2.9 -18.4 -4.35 -17.05 -6.8 -14.4 -7.25 -12.6 -7.65 -10.75 -8.2 -7
L -8.1 -5
Q -8.2 -4.5 -8.6 -3.5 -9.194921875 -2.3560546875 -10.2 -0.65 -2.0001953125 10.5248046875 9.85 2.35 9.8767578125 1.8521484375 9.9 1.3 9.55 -1.65 8.8 -5.9 Z"/>
</g>

<g id="Duplicate_Items_Folder_arm__copy_4_0_Layer0_0_FILL">
<path fill="#000000" stroke="none" d="
M 10 9.05
Q 9.9732421875 8.4341796875 9.65 7.3 -3.1388671875 20.566796875 -8.25 2.25 -8.1462890625 3.8478515625 -7.6 7.05 -7.5328125 7.2220703125 -7.5 7.4
L -7.8 7.15 -8.45 10.6
Q -7.5955078125 17.201171875 -3.85 16.8 -1.943359375 16.5982421875 -0.15 16.15 1.6689453125 15.760546875 3.4 15.1 6.8634765625 13.853515625 8.4 12.05 9.9955078125 10.248828125 10 9.05 Z"/>

<path fill="#569ACA" stroke="none" d="
M 6.65 -1.85
Q 5.271484375 -4.91328125 3.1 -9.1 0.9337890625 -13.2900390625 -0.2 -14.6 -1.2947265625 -15.9033203125 -2.4 -17.7 -3.5 -19.45 -6.5 -18.8 -7.55 -18.6 -8.25 -18.05 -8.587109375 -17.8392578125 -8.9 -17.6 -9.9658203125 -16.5970703125 -10.4 -14.9 -11.103125 -10.924609375 -10.7 -8.7 -10.296875 -6.475390625 -9.25 -2.15
L -8.4 -0.05
Q -8.31328125 0.6 -8.3 1.85 -8.2689453125 2.0369140625 -8.25 2.25 -3.1388671875 20.566796875 9.65 7.3 9.5064453125 6.659375 9.25 5.85 9.1103515625 5.423046875 8.95 4.95 8.8701171875 4.729296875 8.8 4.5 8.60859375 3.991796875 8.4 3.45 7.5904296875 1.084375 6.65 -1.85 Z"/>
</g>

<g id="Duplicate_Items_Folder_body_front_copy_3_0_Layer0_0_FILL">
<path fill="#000000" stroke="none" d="
M 14.7 -9.95
Q 12 -16.7 7.55 -21.55 2.15 -23.5 -3.8 -23.3 -4.46953125 -23.2931640625 -5.15 -23.25 -6.8771484375 -23.1677734375 -8.7 -22.9 -11.3580078125 -22.5251953125 -14.2 -21.75 -17.1 -20.75 -18.5 -16.7 -19.65 -15.65 -24.35 -5.75 -26.95 -0.45 -26.7 4.2 -26.45 8.5 -22.25 14.6 -18.1 20.6 -9.75 21.45 -1.45 22.2 1.3 21.7 4 21.2 5.15 20.65 6.25 20.1 7.25 19.65 8.25 19.25 10.2 18.4 12.15 17.5 13.7 16.5 15.2 15.5 17.65 12.15 20.1 8.7 18.8 2.7 17.4 -3.25 14.7 -9.95
M -8.55 -20.9
Q -8.058984375 -20.9302734375 -7.7 -20.9
L -5 -20.85
Q 9.15 10.8 3.95 16.2 3.9142578125 16.2318359375 3.85 16.25 3.790625 16.33515625 3.7 16.4
L 3.65 16.4
Q 3.4818359375 16.613671875 3.3 16.75 3.25 16.75 3.25 16.8
L 3.1 16.85 3.1 16.8
Q 2.45 17.2 2.3 17.25
L 2.35 17.25
Q -0.6025390625 18.824609375 -4.05 19 -6.69609375 19.1220703125 -9.65 18.4 -12.2 18.6 -18.05 14.85 -19.3 12.9 -19.9 11.9 -20.1330078125 11.6669921875 -20.4 11.25 -20.86640625 10.4173828125 -21.4 8.85 -22.7 5.45 -22.55 4.75 -21.8 1.65 -18.5 -3.25 -14.545703125 -9.2513671875 -13.35 -14.2 -12.1068359375 -19.08984375 -10.7 -20.05 -10.0833984375 -20.443359375 -9.55 -20.65 -8.9779296875 -20.7998046875 -8.55 -20.9 Z"/>

<path fill="#6BB2E5" stroke="none" d="
M -5 -20.85
L -7.7 -20.9 -7.85 -20.9
Q -8 -20.9 -8.2 -20.85 -8.362890625 -20.868359375 -8.55 -20.9 -8.9779296875 -20.7998046875 -9.55 -20.65 -10.0833984375 -20.443359375 -10.7 -20.05 -12.1068359375 -19.08984375 -13.35 -14.2 -14.545703125 -9.2513671875 -18.5 -3.25 -21.8 1.65 -22.55 4.75 -22.7 5.45 -21.4 8.85 -20.86640625 10.4173828125 -20.4 11.25 -20.1330078125 11.6669921875 -19.9 11.9 -19.3 12.9 -18.05 14.85 -12.2 18.6 -9.65 18.4 -6.69609375 19.1220703125 -4.05 19 -0.6025390625 18.824609375 2.35 17.25
L 2.3 17.25
Q 2.45 17.2 3.1 16.8
L 3.1 16.85 3.25 16.8
Q 3.25 16.75 3.3 16.75 3.4818359375 16.613671875 3.65 16.4
L 3.7 16.4
Q 3.790625 16.33515625 3.85 16.25 3.9142578125 16.2318359375 3.95 16.2 9.15 10.8 -5 -20.85 Z"/>

<path fill="#928943" stroke="none" d="
M -7.7 -20.9
Q -8.058984375 -20.9302734375 -8.55 -20.9 -8.362890625 -20.868359375 -8.2 -20.85 -8 -20.9 -7.85 -20.9
L -7.7 -20.9 Z"/>
</g>

<g id="Duplicate_Items_Folder_head_copy_37_0_Layer5_0_FILL">
<path fill="#000000" stroke="none" d="
M -34 -62.45
L -34.1 -62.45
Q -37.1 -64.75 -41.2 -60.7 -42.5 -59.45 -43.75 -57.7
L -44.7 -56.2
Q -44.7 -56.15 -40.6 -58.5 -36.5 -60.9 -36.5 -60.85 -36.45 -60.85 -31.15 -45.45 -25.85 -30 -25.85 -29.95 -25.85 -29.9 -22.4 -28.65 -22.1 -28.5 -21.8 -28.4 -19.05 -27.35 -19.2 -27.45 -19.15 -27.4 -20.8 -32.35 -21.35 -34 -21.9 -35.6 -23.3 -39.75 -24.7 -43.5 -30.85 -60.05 -34 -62.45
M 26.5 -61.05
Q 26.5 -61.1 30.6 -58.7 34.7 -56.35 34.7 -56.4
L 33.75 -57.9
Q 32.5 -59.65 31.25 -60.9 27.15 -64.95 24.15 -62.6
L 24 -62.6
Q 20.85 -60.25 14.7 -43.7 13.3 -39.9 11.9 -35.8 11.35 -34.2 10.8 -32.55 9.15 -27.6 9.25 -27.65
L 11.8 -28.6
Q 12.1 -28.7 12.45 -28.8 15.85 -30.1 15.85 -30.15 15.9 -30.2 21.2 -45.6
L 26.5 -61.05 Z"/>
</g>

<g id="Duplicate_Items_Folder_head_copy_37_0_Layer4_0_FILL">
<path fill="#6BB2E5" stroke="none" d="
M -13.25 -45.95
Q -14.9890625 -45.3576171875 -16.1 -44.55 -6.2216796875 -47.111328125 -5.45 -48 -4.97421875 -48.3607421875 -4.55 -48.7 -8.9107421875 -47.4927734375 -13.25 -45.95
M 6.85 -48
Q 5.9490234375 -48.2794921875 4.95 -48.45
L 4.7 -48.5
Q 2.7373046875 -49.0455078125 0.6 -50.05 -1.2423828125 -50.878515625 -4.55 -48.7 -4.97421875 -48.3607421875 -5.45 -48 -6.2216796875 -47.111328125 -16.1 -44.55 -15.75625 -43.9451171875 -17.45 -42.95 -17.8 -42.1314453125 -17.8 -41.2 -17.7 -38.05 -13.5 -39.4 -9.3 -40.75 -4.95 -42.3 -0.55 -43.85 3 -42.4 6.55 -40.95 9.9 -43.45 13.25 -46 6.85 -48 Z"/>

<path fill="#569ACA" stroke="none" d="
M 4.95 -48.45
Q 5.9490234375 -48.2794921875 6.85 -48 13.25 -46 9.9 -43.45 6.55 -40.95 3 -42.4 -0.55 -43.85 -4.95 -42.3 -9.3 -40.75 -13.5 -39.4 -17.7 -38.05 -17.8 -41.2 -17.8 -42.1314453125 -17.45 -42.95 -18.5533203125 -42.2302734375 -20.6 -40.9 -22.6431640625 -39.5634765625 -27.1 -42.2 -31.5576171875 -44.8431640625 -36.2 -41.45 -40.8453125 -38.0537109375 -40.75 -37.95 -40.7 -37.85 -30 10.6
L -16.3 15.75
Q -3.8 20.35 -2.6 20.85
L -2.55 20.85
Q -1.3 20.35 11.15 14.55 24.75 8.2 25.05 8 33.95 -39.7 33.9 -40.05 26.5474609375 -42.9533203125 19.15 -45.65 11.7525390625 -48.286328125 4.95 -48.45 Z"/>
</g>

<g id="Duplicate_Items_Folder_head_copy_37_0_Layer3_0_FILL">
<path fill="url(#Gradient_1)" stroke="none" d="
M -33.75 -20.95
Q -38.15 -14.55 -37.9 -7.75 -37.7 -1 -33.2 3.6 -28.8 8.1 -22.95 6
L -23.35 3.8 -22.95 6
Q -22.8 5.95 -22.65 5.85 -20.1 4.9 -17.85 3.75
L -19.1 2.1 -17.85 3.75
Q -16 2.8 -14.35 1.75
L -16.5 -0.35 -14.35 1.75
Q -13.25 1 -12.25 0.3 -7.95 -3 -7.85 -10.5 -7.7 -18 -9.6 -24.1 -11.5 -30.25 -20.4 -28.8 -29.35 -27.4 -33.75 -20.95 Z"/>

<path fill="url(#Gradient_2)" stroke="none" d="
M 4.55 -27.35
L 3.75 -28.4
Q 2.2 -27.2 1.5 -25 1.35 -24.45 1.15 -23.85
L 2.95 -22.7 1.15 -23.85
Q -0.4 -18.15 -0.25 -11.35 -0.1 -3.85 4.15 -0.6 8.45 2.65 14.55 5 20.6 7.3 25.1 2.75 29.6 -1.85 29.85 -8.6 30.05 -15.4 25.65 -21.85 23.25 -25.35 19.45 -27.4
L 18.4 -26.2 19.45 -27.4
Q 17.45 -28.5 15.05 -29.1
L 14.2 -27.15 15.05 -29.1
Q 13.75 -29.45 12.35 -29.7 10.85 -29.95 9.6 -30
L 10.2 -27.65 9.6 -30
Q 5.85 -30.05 3.75 -28.4
L 4.55 -27.35 Z"/>
</g>

<g id="Duplicate_Items_Folder_head_copy_37_0_Layer1_0_FILL">
<path fill="#FF99CC" stroke="none" d="
M -9.6 -50.3
Q -10.4 -50.4 -11.15 -50.2 -11.45 -51.25 -12.2 -52.2 -13.55 -53.9 -15.7 -54.15 -17.85 -54.35 -19.6 -52.95 -21.3 -51.55 -21.5 -49.4 -21.55 -48.95 -21.5 -48.5 -19.15 -48.7 -17.5 -47.5 -19.15 -48.7 -21.5 -48.5 -21.5 -48.45 -21.5 -48.4 -23.35 -48.2 -24.85 -47.2 -27 -45.75 -27.25 -43.4 -27.5 -41 -25.65 -39.1 -23.8 -37.2 -21 -36.95 -18.15 -36.65 -16 -38.1 -13.85 -39.55 -13.6 -41.9 -13.55 -42.15 -13.55 -42.4 -12.3 -41.2 -10.5 -41 -8.4 -40.8 -6.8 -42 -5.15 -43.2 -4.95 -45.1 -4.75 -47 -6.15 -48.55 -7.5 -50.1 -9.6 -50.3
M -9.4 -47.2
Q -8.8 -46.6 -8.85 -45.85 -8.95 -45.05 -9.65 -44.6 -10.35 -44.15 -11.35 -44.25 -12.3 -44.35 -12.9 -44.95 -13.5 -45.55 -13.45 -46.35 -13.35 -47.1 -12.65 -47.55 -11.95 -48 -11 -47.9 -10 -47.8 -9.4 -47.2
M -19.65 -45.8
Q -18.5 -45.7 -17.8 -44.9 -17.1 -44.1 -17.2 -43.1 -17.3 -42.1 -18.15 -41.45 -18.95 -40.8 -20.1 -40.9 -21.2 -41 -21.95 -41.85 -22.65 -42.65 -22.55 -43.65 -22.45 -44.65 -21.6 -45.3 -20.75 -45.9 -19.65 -45.8 Z"/>

<path fill="#FF3399" stroke="none" d="
M -17.8 -44.9
Q -18.5 -45.7 -19.65 -45.8 -20.75 -45.9 -21.6 -45.3 -22.45 -44.65 -22.55 -43.65 -22.65 -42.65 -21.95 -41.85 -21.2 -41 -20.1 -40.9 -18.95 -40.8 -18.15 -41.45 -17.3 -42.1 -17.2 -43.1 -17.1 -44.1 -17.8 -44.9
M -8.85 -45.85
Q -8.8 -46.6 -9.4 -47.2 -10 -47.8 -11 -47.9 -11.95 -48 -12.65 -47.55 -13.35 -47.1 -13.45 -46.35 -13.5 -45.55 -12.9 -44.95 -12.3 -44.35 -11.35 -44.25 -10.35 -44.15 -9.65 -44.6 -8.95 -45.05 -8.85 -45.85 Z"/>
</g>

<path id="Duplicate_Items_Folder_foot_copy_9_0_Layer0_0_1_STROKES" stroke="#000000" stroke-width="2" stroke-linejoin="round" stroke-linecap="round" fill="none" d="
M -10.175 -0.625
Q -9.194921875 -2.3560546875 -8.6 -3.5 -8.2 -4.5 -8.1 -5
L -8.2 -7
Q -7.65 -10.75 -7.25 -12.6 -6.8 -14.4 -4.35 -17.05 -2.9 -18.4 -0.65 -18.25 0.4 -18.35 1.65 -17.95 3.4119140625 -17.456640625 4.45 -16.775 5.6349609375 -16.0306640625 5.9 -15.05 6.5 -13.1 7.3 -11.6 8 -10.05 8.8 -5.9 9.55 -1.65 9.9 1.3 9.8767578125 1.8521484375 9.85 2.375 9.809765625 3.8279296875 9.8 5.125 9.7984375 5.216015625 9.8 5.3 9.78046875 6.48984375 9.8 7.55 9.85 7.9 9.8 8.35 9.75 8.7 9.75 9
L 9.7 8.95
Q 9.6 9.9 9.4 10.3 8.9 11.1 5.85 13.4 2.9 15.45 -5.2 11.75 -5.45 11.6 -5.65 11.55 -7.5041015625 10.6619140625 -8.875 9.725 -13.6447265625 6.473046875 -12.4 2.7
L -10.9 0.45 -10.85 0.5 -10.35 -0.3
Q -10.2568359375 -0.465234375 -10.175 -0.625 Z"/>

<path id="Duplicate_Items_Folder_arm__copy_4_0_Layer0_0_1_STROKES" stroke="#000000" stroke-width="2" stroke-linejoin="round" stroke-linecap="round" fill="none" d="
M 9.675 7.3
Q 9.5064453125 6.659375 9.25 5.85 9.1103515625 5.423046875 8.95 4.95 8.8701171875 4.729296875 8.8 4.5 8.60859375 3.991796875 8.425 3.45 7.5904296875 1.084375 6.65 -1.85 5.271484375 -4.91328125 3.1 -9.1 0.9337890625 -13.2900390625 -0.175 -14.6 -1.2947265625 -15.9033203125 -2.4 -17.7 -3.5 -19.45 -6.5 -18.8 -7.55 -18.6 -8.25 -18.05 -8.587109375 -17.8392578125 -8.875 -17.575 -9.9658203125 -16.5970703125 -10.4 -14.9 -11.103125 -10.924609375 -10.7 -8.7 -10.296875 -6.475390625 -9.25 -2.15
L -8.4 -0.05
Q -8.31328125 0.6 -8.275 1.85 -8.2689453125 2.0369140625 -8.25 2.25
M 9.675 7.3
Q 9.9732421875 8.4341796875 10 9.05 9.9955078125 10.248828125 8.425 12.05 6.8634765625 13.853515625 3.4 15.125 1.6689453125 15.760546875 -0.125 16.175 -1.943359375 16.5982421875 -3.825 16.8 -7.5955078125 17.201171875 -8.45 10.6
L -7.775 7.15 -7.5 7.4
Q -7.5328125 7.2220703125 -7.575 7.05 -8.1462890625 3.8478515625 -8.25 2.25"/>

<path id="Duplicate_Items_Folder_body_front_copy_3_0_Layer0_0_1_STROKES" stroke="#000000" stroke-width="1.5" stroke-linejoin="round" stroke-linecap="round" fill="none" d="
M 7.55 -21.55
Q 2.15 -23.5 -3.8 -23.3 -4.46953125 -23.2931640625 -5.15 -23.25 -6.8771484375 -23.1677734375 -8.675 -22.9 -11.3580078125 -22.5251953125 -14.2 -21.75 -17.1 -20.75 -18.5 -16.7 -19.65 -15.65 -24.35 -5.75 -26.95 -0.45 -26.7 4.2 -26.45 8.5 -22.25 14.6 -18.1 20.6 -9.75 21.45 -1.45 22.2 1.3 21.7 4 21.2 5.15 20.65 6.25 20.1 7.25 19.65 8.25 19.25 10.2 18.4 12.15 17.5 13.7 16.5 15.2 15.5 17.65 12.15 20.1 8.7 18.8 2.7 17.4 -3.25 14.7 -9.95 12 -16.7 7.55 -21.55 Z"/>

<path id="Duplicate_Items_Folder_head_copy_37_0_Layer5_0_1_STROKES" stroke="#000000" stroke-width="2" stroke-linejoin="round" stroke-linecap="round" fill="none" d="
M 9.25 -27.65
Q 9.15 -27.6 10.8 -32.55 11.35 -34.2 11.9 -35.8 13.3 -39.9 14.7 -43.7 20.85 -60.25 24 -62.6
L 24.15 -62.6
Q 27.15 -64.95 31.25 -60.9 32.5 -59.65 33.75 -57.9
L 34.7 -56.4
Q 34.7 -56.35 30.6 -58.7 26.5 -61.1 26.5 -61.05
L 21.2 -45.6
Q 15.9 -30.2 15.85 -30.15 15.85 -30.1 12.45 -28.8 12.1 -28.7 11.8 -28.6
L 9.25 -27.65 Z
M -19.2 -27.45
Q -19.15 -27.4 -20.8 -32.35 -21.35 -34 -21.9 -35.6 -23.3 -39.75 -24.7 -43.5 -30.85 -60.05 -34 -62.45
L -34.1 -62.45
Q -37.1 -64.75 -41.2 -60.7 -42.5 -59.45 -43.75 -57.7
L -44.7 -56.2
Q -44.7 -56.15 -40.6 -58.5 -36.5 -60.9 -36.5 -60.85 -36.45 -60.85 -31.15 -45.45 -25.85 -30 -25.85 -29.95 -25.85 -29.9 -22.4 -28.65 -22.1 -28.5 -21.8 -28.4 -19.05 -27.35 -19.2 -27.45 Z"/>

<path id="Duplicate_Items_Folder_head_copy_37_0_Layer4_0_1_STROKES" stroke="#000000" stroke-width="2" stroke-linejoin="round" stroke-linecap="round" fill="none" d="
M 4.975 -48.45
L 4.7 -48.5
Q 2.7373046875 -49.0455078125 0.625 -50.025 -1.2423828125 -50.878515625 -4.525 -48.675 -4.97421875 -48.3607421875 -5.45 -48 -6.2216796875 -47.111328125 -16.075 -44.525 -15.75625 -43.9451171875 -17.425 -42.925 -18.5533203125 -42.2302734375 -20.6 -40.9 -22.6431640625 -39.5634765625 -27.1 -42.2 -31.5576171875 -44.8431640625 -36.2 -41.45 -40.8453125 -38.0537109375 -40.75 -37.95 -40.7 -37.85 -30 10.6
L -16.3 15.75
Q -3.8 20.35 -2.6 20.85
L -2.55 20.85
Q -1.3 20.35 11.15 14.55 24.75 8.2 25.05 8 33.95 -39.7 33.9 -40.05 26.5474609375 -42.9533203125 19.15 -45.625 11.7525390625 -48.286328125 4.975 -48.45 Z"/>

<path id="Duplicate_Items_Folder_head_copy_37_0_Layer3_0_1_STROKES" stroke="#000000" stroke-width="2" stroke-linejoin="round" stroke-linecap="round" fill="none" d="
M 8.9 -32.65
L 9.6 -30
Q 10.85 -29.95 12.35 -29.7 13.75 -29.45 15.05 -29.1
L 16 -31.25
M 4.55 -27.35
L 3.75 -28.4
Q 2.2 -27.2 1.5 -25 1.35 -24.45 1.15 -23.85
L 2.95 -22.7
M 2.45 -30
L 3.75 -28.4
Q 5.85 -30.05 9.6 -30
L 10.2 -27.65
M 15.05 -29.1
Q 17.45 -28.5 19.45 -27.4
L 21.25 -29.45
M 15.05 -29.1
L 14.2 -27.15
M 18.4 -26.2
L 19.45 -27.4
Q 23.25 -25.35 25.65 -21.85 30.05 -15.4 29.85 -8.6 29.6 -1.85 25.1 2.75 20.6 7.3 14.55 5 8.45 2.65 4.15 -0.6 -0.1 -3.85 -0.25 -11.35 -0.4 -18.15 1.15 -23.85
L -1.75 -25.7
M -14.35 1.75
Q -13.25 1 -12.25 0.3 -7.95 -3 -7.85 -10.5 -7.7 -18 -9.6 -24.1 -11.5 -30.25 -20.4 -28.8 -29.35 -27.4 -33.75 -20.95 -38.15 -14.55 -37.9 -7.75 -37.7 -1 -33.2 3.6 -28.8 8.1 -22.95 6
L -23.35 3.8
M -12.75 3.25
L -14.35 1.75
Q -16 2.8 -17.85 3.75
M -16.5 -0.35
L -14.35 1.75
M -19.1 2.1
L -17.85 3.75 -16.75 5.25
M -22.7 7.25
L -22.95 6
Q -22.8 5.95 -22.65 5.85 -20.1 4.9 -17.85 3.75"/>

<path id="Duplicate_Items_Folder_head_copy_37_0_Layer2_0_1_STROKES" stroke="#000000" stroke-width="2" stroke-linejoin="round" stroke-linecap="round" fill="none" d="
M -6.5 11.7
Q -2.373828125 8.010546875 1.65 13.35"/>

<path id="Duplicate_Items_Folder_head_copy_37_0_Layer1_0_1_STROKES" stroke="#000000" stroke-width="2" stroke-linejoin="round" stroke-linecap="round" fill="none" d="
M -21.5 -48.5
Q -21.55 -48.95 -21.5 -49.4 -21.3 -51.55 -19.6 -52.95 -17.85 -54.35 -15.7 -54.15 -13.55 -53.9 -12.2 -52.2 -11.45 -51.25 -11.15 -50.2 -10.4 -50.4 -9.6 -50.3 -7.5 -50.1 -6.15 -48.55 -4.75 -47 -4.95 -45.1 -5.15 -43.2 -6.8 -42 -8.4 -40.8 -10.5 -41 -12.3 -41.2 -13.55 -42.4 -13.55 -42.15 -13.6 -41.9 -13.85 -39.55 -16 -38.1 -18.15 -36.65 -21 -36.95 -23.8 -37.2 -25.65 -39.1 -27.5 -41 -27.25 -43.4 -27 -45.75 -24.85 -47.2 -23.35 -48.2 -21.5 -48.4 -21.5 -48.45 -21.5 -48.5 -19.15 -48.7 -17.5 -47.5"/>
</defs>

<g transform="matrix( -2.9517059326171875, -0.91998291015625, -0.8701171875, 2.7916412353515625, 243.65,486.55) ">
<g transform="matrix( 1, 0, 0, 1, 0,0) ">
<use xlink:href="#Duplicate_Items_Folder_foot_copy_9_0_Layer0_0_FILL"/>

<use xlink:href="#Duplicate_Items_Folder_foot_copy_9_0_Layer0_0_1_STROKES"/>
</g>
</g>

<g transform="matrix( -2.8966064453125, -0.86968994140625, -0.925506591796875, 3.0826568603515625, 233.15,400.6) ">
<g transform="matrix( 1, 0, 0, 1, 0,0) ">
<use xlink:href="#Duplicate_Items_Folder_arm__copy_4_0_Layer0_0_FILL"/>

<use xlink:href="#Duplicate_Items_Folder_arm__copy_4_0_Layer0_0_1_STROKES"/>
</g>
</g>

<g transform="matrix( 3.5137939453125, 0, 0, 3.5137939453125, 318.75,418.05) ">
<g transform="matrix( 1, 0, 0, 1, 0,0) ">
<use xlink:href="#Duplicate_Items_Folder_body_front_copy_3_0_Layer0_0_FILL"/>

<use xlink:href="#Duplicate_Items_Folder_body_front_copy_3_0_Layer0_0_1_STROKES"/>
</g>
</g>

<g transform="matrix( 3.22528076171875, -0.88507080078125, 0.844757080078125, 3.078369140625, 363.8,492.25) ">
<g transform="matrix( 1, 0, 0, 1, 0,0) ">
<use xlink:href="#Duplicate_Items_Folder_foot_copy_9_0_Layer0_0_FILL"/>

<use xlink:href="#Duplicate_Items_Folder_foot_copy_9_0_Layer0_0_1_STROKES"/>
</g>
</g>

<g transform="matrix( 3.2408447265625, -0.97308349609375, 1.035400390625, 3.4489898681640625, 377.6,406.3) ">
<g transform="matrix( 1, 0, 0, 1, 0,0) ">
<use xlink:href="#Duplicate_Items_Folder_arm__copy_4_0_Layer0_0_FILL"/>

<use xlink:href="#Duplicate_Items_Folder_arm__copy_4_0_Layer0_0_1_STROKES"/>
</g>
</g>

<g transform="matrix( 4.3034820556640625, -0.43450927734375, 0.425811767578125, 4.2171478271484375, 307.35,291.9) ">
<g transform="matrix( 1, 0, 0, 1, 0,0) ">
<use xlink:href="#Duplicate_Items_Folder_head_copy_37_0_Layer5_0_FILL"/>

<use xlink:href="#Duplicate_Items_Folder_head_copy_37_0_Layer5_0_1_STROKES"/>
</g>

<g transform="matrix( 1, 0, 0, 1, 0,0) ">
<use xlink:href="#Duplicate_Items_Folder_head_copy_37_0_Layer4_0_FILL"/>

<use xlink:href="#Duplicate_Items_Folder_head_copy_37_0_Layer4_0_1_STROKES"/>
</g>

<g transform="matrix( 1, 0, 0, 1, 0,0) ">
<use xlink:href="#Duplicate_Items_Folder_head_copy_37_0_Layer3_0_FILL"/>

<use xlink:href="#Duplicate_Items_Folder_head_copy_37_0_Layer3_0_1_STROKES"/>
</g>

<g transform="matrix( 1, 0, 0, 1, 0,0) ">
<use xlink:href="#Duplicate_Items_Folder_head_copy_37_0_Layer2_0_1_STROKES"/>
</g>

<g transform="matrix( 1, 0, 0, 1, 0,0) ">
<use xlink:href="#Duplicate_Items_Folder_head_copy_37_0_Layer1_0_FILL"/>

<use xlink:href="#Duplicate_Items_Folder_head_copy_37_0_Layer1_0_1_STROKES"/>
</g>
</g>
</svg>
