
<svg xmlns="http://www.w3.org/2000/svg" version="1.1" xmlns:xlink="http://www.w3.org/1999/xlink" preserveAspectRatio="none" x="0px" y="0px" width="560px" height="544px" viewBox="0 0 560 544">
<defs>
<radialGradient id="Gradient_1" gradientUnits="userSpaceOnUse" cx="0" cy="0" r="51.99979717508522" fx="0" fy="0" gradientTransform="matrix( -0.9480806210455994, -0.31803008662356186, -0.4016842590687618, 1.1966392828511647, -74,-185.45) " spreadMethod="pad">
<stop  offset="0%" stop-color="#FFFFFF"/>

<stop  offset="100%" stop-color="#99FF00"/>
</radialGradient>

<radialGradient id="Gradient_2" gradientUnits="userSpaceOnUse" cx="0" cy="0" r="51.999797175085206" fx="0" fy="0" gradientTransform="matrix( 0.9480806210455998, -0.31803008662356197, 0.40168425906876193, 1.1966392828511652, 42.45,-181.55) " spreadMethod="pad">
<stop  offset="0%" stop-color="#FFFFFF"/>

<stop  offset="100%" stop-color="#99FF00"/>
</radialGradient>

<g id="arm_knives_0_Layer0_0_FILL">
<path fill="#9A769A" stroke="none" d="
M -68.8 49.3
L -68.85 49.3
Q -74.45 49.15 -78.4 48.95 -87.45 48.65 -87.5 48.7 -87.7 48.75 -88.1 54.65 -88.45 60.7 -88.5 60.8 -89.1 61 -60.3 61.45 -60.45 61.35 -59.7 55.35 -58.95 49.35 -59.15 49.45 -59.35 49.65 -68.8 49.3
M -49.05 10.8
Q -49.5 12.25 -49.6 10.55 -73.15 29.15 -78.4 48.95 -74.45 49.15 -68.85 49.3
L -68.8 49.3
Q -64.8 42.6 -59.65 35.3 -49.65 21.35 -43.95 18.2
L -49.05 10.8
M -48.75 9.9
Q -49.05 10.2 -49.35 10.35
L -49.05 10.8
Q -48.95 10.5 -48.75 9.9 Z"/>

<path fill="#000000" stroke="none" d="
M -4.35 -13.15
Q -4.7 -6.9 -4.45 -6.95 -4.1 -7.1 -51.45 5.85 -49.6 7.9 -49.6 10
L -49.35 10.35
Q -49.05 10.2 -48.75 9.9 -48.95 10.5 -49.05 10.8
L -43.95 18.2
Q -43.7 18 -43.55 18 -39.75 23.3 -39.55 23.1 -39.2 22.95 -17.6 10.5 4 -1.8 10.2 -8.65 16.5 -15.45 15.05 -17.75 13.651171875 -20.0060546875 6.2 -24.15 -0.4736328125 -27.87578125 -0.9 -28.15 -0.908203125 -27.7505859375 -10.25 -19.55
L -19.8 -11.15
Q -19.45 -11.25 -4.35 -19.4 -4.15 -19.5 -4.35 -13.15 Z"/>
</g>

<g id="arm_suit_0_Layer1_0_FILL">
<path fill="#000000" stroke="none" d="
M 13.65 -58.35
Q 13.9 -58.7 14.1 -59.05
L 13.7 -59.3
Q 11.2 -59.4 8.65 -61.55 0.3 -7.4 0.4 -7.75 0.45 -8 -6.7 -7.9 -13.85 -7.85 -13.8 -8 -6.6 -25.25 -6.45 -25.6 -6.4 -25.85 -17.3 -16.95 -27.611328125 -8.452734375 -28 -8.25 -27.6716796875 -8.0783203125 -20.05 2.1 -12.1 12.7 -9.3 14.4 -6.45 16.1 0.4 9.1 7.35 2.1 18.6 -22.45 29.85 -46.9 30.05 -47.35 30.15 -47.6 23.65 -52.05 23.7 -52.3 23.75 -52.55
L 14.65 -58.6
Q 14.25 -58.55 13.65 -58.35 Z"/>

<path fill="#9A769A" stroke="none" d="
M 14.65 -58.6
L 14.1 -59.05
Q 13.9 -58.7 13.65 -58.35 14.25 -58.55 14.65 -58.6
M 56 -80.2
L 55.95 -80.3
Q 55 -86.8 54.25 -91.35 32.35 -85.85 14.3 -59.3 16.2 -59.1 14.65 -58.6
L 23.75 -52.55
Q 26.6 -59.05 41.25 -70.1 48.85 -75.85 56 -80.2
M 59.5 -102.3
Q 52.8 -102.05 52.7 -101.8
L 54.25 -91.35
Q 55 -86.8 55.95 -80.3
L 56 -80.2
Q 57.6 -69.35 57.45 -69.15 57.3 -68.95 64.15 -69.6 71.05 -70.25 70.95 -70.1 66.6 -103.25 66.45 -102.65 66.35 -102.55 59.5 -102.3 Z"/>
</g>

<g id="leg_suit_0_Layer1_0_FILL">
<path fill="#000000" stroke="none" d="
M 8.7 -44.5
Q 1.55 -44.3 1.5 -43.6 -0.1 -43.4 -0.45 -28.3 -0.8 -15.3 -0.3 -11.7 -1.15 -11.25 -2.7 -11.7
L -9.4 -12.3
Q -10.25 -10.9 0.2 6.1 10.65 23.1 8.3 22.25 5.9 21.35 -1.2 26.7 -8.95 28.75 -14.45 35.4
L 12.3 30.45
Q 13.5 33.45 22.75 33.15 26.1 34.2 22.85 27.8 19.6 21.35 18.55 21.05 17.5 20.75 17.2 8.5 16.9 -3.25 17.1 -10.45 15.2 -10.55 13 -10.7 10.75 -10.85 10.65 -10.65 11.7 -43.95 15.5 -44.3 14.65 -44.65 8.7 -44.5 Z"/>
</g>

<g id="body_suit_0_Layer1_0_FILL">
<path fill="#660066" stroke="none" d="
M -34.35 17.75
Q -3.7 26.65 27.55 19.8 25.55 10.4 22.65 -3.7 -3.1 5.25 -28.2 -5.3 -31.1 5.5 -34.35 17.75
M -39.85 38.35
Q -39.2 43.9 -3.55 44.5 32.1 45.05 31.75 41.95 31.45 38.75 27.55 19.8 -3.7 26.65 -34.35 17.75 -37 27.6 -39.85 38.35
M 16.85 -29.35
Q 17.1 -29.45 17.3 -29.5 5.2 -87.65 5.25 -87.7 5.3 -87.8 -0.5 -87.65 -6.35 -87.45 -6.35 -87.6 -6.3 -87.55 -21.6 -30.1 -2.65 -22.7 16.85 -29.35
M 22.65 -3.7
Q 20.7 -13.05 18.35 -24.45
L 16.85 -29.35
Q -2.65 -22.7 -21.6 -30.1 -24.6 -18.8 -28.2 -5.3 -3.1 5.25 22.65 -3.7 Z"/>
</g>

<g id="body_suit_0_Layer0_0_FILL">
<path fill="#9A769A" stroke="none" d="
M 20.35 -93.2
L 20.35 -93.45
Q 20.3 -93.45 -0.7 -94.5 -20.45 -95.45 -21.55 -95.4 -20.25 -95.1 -0.4 -65.5 -0.5 -65.3 20.35 -93.2 Z"/>
</g>

<g id="head_7_Layer4_0_FILL">
<path fill="#000000" stroke="none" d="
M -27.5 -356.85
L -31.05 -362.3
Q -35.5 -368.65 -40.15 -373.25 -55 -387.9 -65.9 -379.45
L -66.35 -379.45
Q -77.8 -370.85 -100.05 -310.9 -105.1 -297.2 -110.2 -282.3 -112.15 -276.5 -114.15 -270.55 -120.15 -252.55 -119.85 -252.75 -120.5 -252.4 -110.55 -256.1 -109.5 -256.55 -108.25 -257 -95.9 -261.65 -95.9 -261.8 -95.75 -261.95 -76.55 -317.85 -57.35 -373.75 -57.3 -373.8 -57.25 -373.85 -42.4 -365.25 -27.55 -356.7 -27.5 -356.85
M 13 -360.15
Q 27.85 -368.75 27.9 -368.7 27.95 -368.65 47.15 -312.75 66.35 -256.85 66.5 -256.7 66.5 -256.55 78.85 -251.9 80.1 -251.45 81.15 -251 91.1 -247.3 90.45 -247.65 90.75 -247.45 84.75 -265.45 82.75 -271.4 80.8 -277.2 75.7 -292.1 70.65 -305.8 48.4 -365.75 36.95 -374.35
L 36.5 -374.35
Q 25.6 -382.8 10.75 -368.15 6.1 -363.55 1.65 -357.2
L -1.9 -351.75
Q -1.85 -351.6 13 -360.15 Z"/>
</g>

<g id="head_7_Layer3_0_FILL">
<path fill="#AFC4D2" stroke="none" d="
M 77.65 -261.9
Q 61.85 -269.65 25.85 -281.65 -11.25 -294.05 -22.4 -294.85 -31.85 -295.55 -82.9 -274.45 -108.35 -263.9 -131.95 -253.4 -132 -252.1 -103.55 -79.4 -102.7 -78.65 -59.15 -55.65 -19.4 -34.65 -15.45 -32.8 -15.4 -32.75 -15.3 -32.7 -15.25 -32.75 -15.15 -32.8 -11.35 -34.55 28.4 -51.3 72.3 -69.85 72.35 -69.95 106.55 -245.45 106.65 -245.9 106.95 -246.2 99.9 -250.3 90.95 -255.45 77.65 -261.9
M 18.9 -274.9
Q 33.4 -269.15 33.25 -257.65 33.05 -246.15 19.6 -251.05 6.15 -255.95 -7.75 -261.55 -21.65 -267.15 -33.15 -261.9 -44.65 -256.65 -55.3 -265.8 -66 -274.95 -45.4 -282.2 -24.8 -289.45 -10.2 -285.05 4.4 -280.65 18.9 -274.9 Z"/>

<path fill="#C1D6E5" stroke="none" d="
M 33.25 -257.65
Q 33.4 -269.15 18.9 -274.9 4.4 -280.65 -10.2 -285.05 -24.8 -289.45 -45.4 -282.2 -66 -274.95 -55.3 -265.8 -44.65 -256.65 -33.15 -261.9 -21.65 -267.15 -7.75 -261.55 6.15 -255.95 19.6 -251.05 33.05 -246.15 33.25 -257.65 Z"/>
</g>

<g id="head_7_Layer2_0_FILL">
<path fill="url(#Gradient_1)" stroke="none" d="
M -85.05 -241.35
L -81.95 -232.65 -85.05 -241.35
Q -93.65 -238.5 -100.85 -233.7
L -97.1 -228.45 -100.85 -233.7
Q -114.6 -224.65 -123.35 -208.8 -139.3 -180 -138.5 -149.65 -137.65 -119.35 -121.4 -98.75 -105.1 -78.2 -83.1 -88.65 -61.05 -99.15 -45.55 -113.7 -30 -128.3 -29.5 -161.95 -29.05 -192.4 -34.65 -217.7
L -41.05 -212.6 -34.65 -217.7
Q -35.25 -220.4 -35.9 -223 -38.35 -232.7 -43.95 -238.15
L -46.9 -233.6 -43.95 -238.15
Q -51.65 -245.6 -65.15 -245.2
L -67.4 -234.7 -65.15 -245.2
Q -69.8 -245.05 -75.1 -244 -80.3 -243 -85.05 -241.35 Z"/>

<path fill="url(#Gradient_2)" stroke="none" d="
M 43.55 -240.1
Q 11.25 -246.5 4.35 -219.1 -2.55 -191.75 -2.05 -158.05 -1.55 -124.4 14 -109.8 17.55 -106.45 21.5 -103.3
L 29.4 -112.65 21.5 -103.3
Q 27.5 -98.5 34.3 -94.2
L 38.75 -101.55 34.3 -94.2
Q 42.35 -89.15 51.55 -84.75 52.1 -84.5 52.7 -84.25
L 54.25 -94.05 52.7 -84.25
Q 74 -74.85 89.85 -94.85 106.1 -115.45 106.95 -145.75 107.75 -176.1 91.8 -204.9 75.85 -233.75 43.55 -240.1 Z"/>
</g>

<g id="head_7_Layer1_0_FILL">
<path fill="#CC0000" stroke="none" d="
M 1.35 -67.25
Q 1.6 -71 1.4 -72.6 -5.1 -75.15 -8.8 -75.75
L -9.55 -69.95 -8.8 -75.75
Q -17.15 -77.35 -24.05 -73.8
L -21.1 -63.95 -24.05 -73.8
Q -28 -71.85 -30.2 -69.05 -31.7 -67.3 -31.6 -64.8 -31.5 -62.3 -29.55 -53.3 -27.6 -44.35 -21.55 -45.5 -15.5 -46.65 -13.6 -50.55 -11.7 -54.45 -11 -55.8 -9.55 -53.55 -6.95 -52.35 -4.4 -51.15 -1.65 -57.35 1.1 -63.6 1.35 -67.25 Z"/>
</g>

<path id="arm_knives_0_Layer0_0_1_STROKES" stroke="#000000" stroke-width="6" stroke-linejoin="round" stroke-linecap="round" fill="none" d="
M -43.95 18.2
Q -43.7 18 -43.55 18 -39.75 23.3 -39.55 23.1 -39.2 22.95 -17.6 10.5 4 -1.8 10.2 -8.65 16.5 -15.45 15.05 -17.75 13.651171875 -20.0060546875 6.225 -24.15 -0.4736328125 -27.87578125 -0.875 -28.15 -0.908203125 -27.7505859375 -10.25 -19.55
L -19.8 -11.15
Q -19.45 -11.25 -4.35 -19.4 -4.15 -19.5 -4.35 -13.15 -4.7 -6.9 -4.45 -6.95 -4.1 -7.1 -51.45 5.85 -49.6 7.9 -49.6 10
L -49.35 10.35
Q -49.05 10.2 -48.75 9.9 -48.95 10.5 -49.05 10.8
L -43.95 18.2 -40.3 23.5
M -49.6 10.55
Q -49.5 12.25 -49.05 10.8
L -49.35 10.35
Q -49.45 10.5 -49.6 10.55 -49.55 10.3 -49.6 10
L -52.25 6.2
M -78.4 48.95
Q -74.45 49.15 -68.85 49.3
L -68.8 49.3
Q -64.8 42.6 -59.65 35.3 -49.65 21.35 -43.95 18.2
M -49.6 10.55
Q -73.15 29.15 -78.4 48.95 -87.45 48.65 -87.5 48.7 -87.7 48.75 -88.1 54.65 -88.45 60.7 -88.5 60.8 -89.1 61 -60.3 61.45 -60.45 61.35 -59.7 55.35 -58.95 49.35 -59.15 49.45 -59.35 49.65 -68.8 49.3"/>

<path id="arm_suit_0_Layer1_0_1_STROKES" stroke="#000000" stroke-width="6" stroke-linejoin="round" stroke-linecap="round" fill="none" d="
M 56 -80.2
Q 57.6 -69.35 57.45 -69.15 57.3 -68.95 64.15 -69.6 71.05 -70.25 70.95 -70.1 66.6 -103.25 66.45 -102.65 66.35 -102.55 59.5 -102.3 52.8 -102.05 52.7 -101.8
L 54.25 -91.35
Q 55 -86.8 55.95 -80.3
L 56 -80.2
Q 48.85 -75.85 41.25 -70.1 26.6 -59.05 23.75 -52.55
L 30.4 -48.2
M 14.65 -58.6
L 14.1 -59.05
Q 13.9 -58.7 13.65 -58.35 14.25 -58.55 14.65 -58.6 16.2 -59.1 14.3 -59.3 14.2 -59.15 14.1 -59.05
L 13.7 -59.3
Q 11.2 -59.4 8.65 -61.55 0.3 -7.4 0.4 -7.75 0.45 -8 -6.7 -7.9 -13.85 -7.85 -13.8 -8 -6.6 -25.25 -6.45 -25.6 -6.4 -25.85 -17.3 -16.95 -27.611328125 -8.452734375 -27.975 -8.25 -27.6716796875 -8.0783203125 -20.05 2.1 -12.1 12.7 -9.3 14.4 -6.45 16.1 0.4 9.1 7.35 2.1 18.6 -22.45 29.85 -46.9 30.05 -47.35 30.15 -47.6 23.65 -52.05 23.7 -52.3 23.75 -52.55
L 14.65 -58.6 Z
M 8.95 -62.45
L 13.7 -59.3
Q 14 -59.25 14.3 -59.3 32.35 -85.85 54.25 -91.35"/>

<path id="body_suit_0_Layer1_0_1_STROKES" stroke="#000000" stroke-width="6" stroke-linejoin="round" stroke-linecap="round" fill="none" d="
M 18.35 -24.45
Q 17.8 -27.05 17.3 -29.5 17.1 -29.45 16.85 -29.35
M 18.35 -24.45
Q 20.7 -13.05 22.65 -3.7 25.55 10.4 27.55 19.8 31.45 38.75 31.75 41.95 32.1 45.05 -3.55 44.5 -39.2 43.9 -39.85 38.35 -37 27.6 -34.35 17.75 -31.1 5.5 -28.2 -5.3 -24.6 -18.8 -21.6 -30.1 -6.3 -87.55 -6.35 -87.6 -6.35 -87.45 -0.5 -87.65 5.3 -87.8 5.25 -87.7 5.2 -87.65 17.3 -29.5
M -34.35 17.75
Q -3.7 26.65 27.55 19.8
M -28.2 -5.3
Q -3.1 5.25 22.65 -3.7
M -21.6 -30.1
Q -2.65 -22.7 16.85 -29.35"/>

<path id="body_suit_0_Layer0_0_1_STROKES" stroke="#000000" stroke-width="6" stroke-linejoin="round" stroke-linecap="round" fill="none" d="
M 20.35 -93.2
Q -0.5 -65.3 -0.4 -65.5 -20.25 -95.1 -21.55 -95.4 -20.45 -95.45 -0.7 -94.5 20.3 -93.45 20.35 -93.45"/>

<path id="head_7_Layer3_0_1_STROKES" stroke="#000000" stroke-width="6" stroke-linejoin="round" stroke-linecap="round" fill="none" d="
M -131.95 -253.4
Q -108.35 -263.9 -82.9 -274.45 -31.85 -295.55 -22.4 -294.85 -11.25 -294.05 25.85 -281.65 61.85 -269.65 77.65 -261.9 90.95 -255.45 99.9 -250.3 106.95 -246.2 106.65 -245.9 106.55 -245.45 72.35 -69.95 72.3 -69.85 28.4 -51.3 -11.35 -34.55 -15.15 -32.8 -15.25 -32.75 -15.3 -32.7 -15.4 -32.75 -15.45 -32.8 -19.4 -34.65 -59.15 -55.65 -102.7 -78.65 -103.55 -79.4 -132 -252.1 -131.95 -253.4 Z"/>

<path id="head_7_Layer2_0_1_STROKES" stroke="#000000" stroke-width="6" stroke-linejoin="round" stroke-linecap="round" fill="none" d="
M 21.5 -103.3
Q 17.55 -106.45 14 -109.8 -1.55 -124.4 -2.05 -158.05 -2.55 -191.75 4.35 -219.1 11.25 -246.5 43.55 -240.1 75.85 -233.75 91.8 -204.9 107.75 -176.1 106.95 -145.75 106.1 -115.45 89.85 -94.85 74 -74.85 52.7 -84.25
L 51.8 -78.55
M 29.4 -112.65
L 21.5 -103.3
Q 27.5 -98.5 34.3 -94.2
L 38.75 -101.55
M 52.7 -84.25
Q 52.1 -84.5 51.55 -84.75 42.35 -89.15 34.3 -94.2
L 30.2 -87.45
M 54.25 -94.05
L 52.7 -84.25
M 21.5 -103.3
L 15.75 -96.6
M -81.95 -232.65
L -85.05 -241.35
Q -93.65 -238.5 -100.85 -233.7
L -97.1 -228.45
M -107.45 -242.95
L -100.85 -233.7
Q -114.6 -224.65 -123.35 -208.8 -139.3 -180 -138.5 -149.65 -137.65 -119.35 -121.4 -98.75 -105.1 -78.2 -83.1 -88.65 -61.05 -99.15 -45.55 -113.7 -30 -128.3 -29.5 -161.95 -29.05 -192.4 -34.65 -217.7
L -41.05 -212.6
M -88.4 -250.85
L -85.05 -241.35
Q -80.3 -243 -75.1 -244 -69.8 -245.05 -65.15 -245.2
L -62.6 -257.2
M -67.4 -234.7
L -65.15 -245.2
Q -51.65 -245.6 -43.95 -238.15
L -46.9 -233.6
M -43.95 -238.15
L -39.4 -245.4
M -24.05 -226.15
L -34.65 -217.7
Q -35.25 -220.4 -35.9 -223 -38.35 -232.7 -43.95 -238.15"/>

<path id="head_7_Layer1_0_1_STROKES" stroke="#000000" stroke-width="6" stroke-linejoin="round" stroke-linecap="round" fill="none" d="
M -35.9 -66.7
Q -32.2 -67.75 -30.2 -69.05
M 1.4 -72.6
Q 1.85 -72.45 2.35 -72.25
M -7.65 -85.6
L -8.8 -75.75
Q -5.1 -75.15 1.4 -72.6
M -30.2 -69.05
Q -28 -71.85 -24.05 -73.8
L -26.6 -82
M -21.1 -63.95
L -24.05 -73.8
Q -17.15 -77.35 -8.8 -75.75
L -9.55 -69.95"/>
</defs>

<g transform="matrix( 3.776123046875, 0, 0, 3.776123046875, 137.05,527.1) ">
<g transform="matrix( 0.117462158203125, 0.265655517578125, 0.2815093994140625, -0.12445068359375, 26.35,-24.95) ">
<g transform="matrix( 1, 0, 0, 1, 0,0) ">
<use xlink:href="#arm_knives_0_Layer0_0_FILL"/>

<use xlink:href="#arm_knives_0_Layer0_0_1_STROKES"/>
</g>
</g>

<g transform="matrix( -0.2501220703125, -0.0876922607421875, -0.0876922607421875, 0.2501220703125, 50.95,-23.95) ">
<g transform="matrix( 1, 0, 0, 1, 0,0) ">
<use xlink:href="#arm_suit_0_Layer1_0_FILL"/>

<use xlink:href="#arm_suit_0_Layer1_0_1_STROKES"/>
</g>
</g>

<g transform="matrix( 0.286407470703125, 0.020233154296875, -0.020233154296875, 0.286407470703125, 31.1,-9.7) ">
<g transform="matrix( 1, 0, 0, 1, 0,0) ">
<use xlink:href="#leg_suit_0_Layer1_0_FILL"/>
</g>
</g>

<g transform="matrix( -0.293487548828125, 0.019134521484375, 0.019134521484375, 0.293487548828125, 46.7,-9.55) ">
<g transform="matrix( 1, 0, 0, 1, 0,0) ">
<use xlink:href="#leg_suit_0_Layer1_0_FILL"/>
</g>
</g>

<g transform="matrix( 0.294281005859375, -0.01226806640625, 0.008636474609375, 0.2938995361328125, 39.3,-28.05) ">
<g transform="matrix( 1, 0, 0, 1, 0,0) ">
<use xlink:href="#body_suit_0_Layer1_0_FILL"/>

<use xlink:href="#body_suit_0_Layer1_0_1_STROKES"/>
</g>

<g transform="matrix( 1, 0, 0, 1, 0,0) ">
<use xlink:href="#body_suit_0_Layer0_0_FILL"/>

<use xlink:href="#body_suit_0_Layer0_0_1_STROKES"/>
</g>
</g>

<g transform="matrix( 0.239959716796875, -0.012847900390625, 0.0034332275390625, 0.2400970458984375, 41.95,-45.4) ">
<g transform="matrix( 1, 0, 0, 1, 0,0) ">
<use xlink:href="#head_7_Layer4_0_FILL"/>
</g>

<g transform="matrix( 1, 0, 0, 1, 0,0) ">
<use xlink:href="#head_7_Layer3_0_FILL"/>

<use xlink:href="#head_7_Layer3_0_1_STROKES"/>
</g>

<g transform="matrix( 1, 0, 0, 1, 0,0) ">
<use xlink:href="#head_7_Layer2_0_FILL"/>

<use xlink:href="#head_7_Layer2_0_1_STROKES"/>
</g>

<g transform="matrix( 1, 0, 0, 1, 0,0) ">
<use xlink:href="#head_7_Layer1_0_FILL"/>

<use xlink:href="#head_7_Layer1_0_1_STROKES"/>
</g>
</g>
</g>
</svg>
