
<svg xmlns="http://www.w3.org/2000/svg" version="1.1" xmlns:xlink="http://www.w3.org/1999/xlink" preserveAspectRatio="none" x="0px" y="0px" width="560px" height="544px" viewBox="0 0 560 544">
<defs>
<radialGradient id="Gradient_1" gradientUnits="userSpaceOnUse" cx="0" cy="0" r="6.802412255957441" fx="0" fy="0" gradientTransform="matrix( 0.990457465158688, -0.13781875674749833, 0.1249556727843985, 1.0694735523605872, -23.25,-45.5) " spreadMethod="pad">
<stop  offset="0%" stop-color="#FFFFFF"/>

<stop  offset="100%" stop-color="#C7D09D"/>
</radialGradient>

<radialGradient id="Gradient_2" gradientUnits="userSpaceOnUse" cx="0" cy="0" r="11.025000000000002" fx="0" fy="0" gradientTransform="matrix( 0.9999999999999999, 0, 0, 1.0907029478458048, 20.3,-44.95) " spreadMethod="pad">
<stop  offset="0%" stop-color="#FFFFFF"/>

<stop  offset="100%" stop-color="#B9C587"/>
</radialGradient>

<g id="Duplicate_Items_Folder_leg_suit_copy_0_Layer4_0_FILL">
<path fill="#762D1B" stroke="none" d="
M -7.55 6.95
Q -5.2359375 6.5216796875 -3.2 6.4 -2.608984375 -6.6294921875 0.85 -19.7 -5.5072265625 -5.4990234375 -7.55 6.95 Z"/>

<path fill="#31120B" stroke="none" d="
M 13 -22.65
L 13.15 -23.75
Q 12.314453125 -23.865234375 11.4 -24 12.294140625 -7.0654296875 6.35 8.25 11.907421875 10.833984375 12.8 11.5 12.35 9.35 11.9 8.35 11.3 6.9 12.5 2.05 12.85 0.6 13.15 -0.65 13.95 -4.35 13.95 -5.95 14.05 -9.75 14.1 -12.8 14.1 -15.6 14.1 -17.8 14.05 -20.9 13.9 -23.15 13.881640625 -23.401171875 13.8 -23.65 13.4943359375 -23.708203125 13.15 -23.75
L 13 -22.65 Z"/>

<path fill="#000000" stroke="none" d="
M 19.95 -24.6
L 19.9 -24.25 20.3 -24.5
Q 20.15 -24.6 19.95 -24.6
M 11.15 -25.8
Q 9.9 -25.95 8.4 -25.9
L 6.1 -24.7
Q 6.95 -23.2 8 -21.8
L 8.05 -21.75
Q 8.2 -21.6 8.3 -21.5
L 8.4 -21.6
Q 8.65 -21.5 8.8 -21.6
L 9.4 -22
Q 9.5 -22 9.6 -22.25 9.6 -22.35 9.7 -22.55 9.7 -22.6 9.65 -22.7 9.15 -23.65 8.75 -24.3 9.45 -24.3 10.05 -24.2
L 11.15 -25.8
M 18.15 -24.95
Q 15.95 -25.4 13.5 -25.6
L 13.15 -23.75
Q 13.4943359375 -23.708203125 13.8 -23.65 13.881640625 -23.401171875 13.9 -23.15 14.05 -20.9 14.1 -17.8 14.1 -15.6 14.1 -12.8 14.05 -9.75 13.95 -5.95 13.95 -4.35 13.15 -0.65 12.85 0.6 12.5 2.05 11.3 6.9 11.9 8.35 12.35 9.35 12.8 11.5 11.907421875 10.833984375 6.35 8.25 5.9876953125 8.0666015625 5.55 7.85 1.844921875 6.141015625 -3.2 6.4 -5.2359375 6.5216796875 -7.55 6.95 -8.9994140625 7.262890625 -10.6 7.7 -16.126171875 9.241796875 -17.3 10.3 -17.003515625 9.1755859375 -16.75 7.95 -15.7 2.95 -13.45 -3.55 -12 -7.75 -10.05 -12.6 -8.9 -15.45 -7.85 -17.8 -6.3943359375 -21.0751953125 -2.4 -31.35
L -7.9 -23.3
Q -10.0419921875 -19.376171875 -12.4 -14 -18.4 -0.25 -20.55 8.85 -22.4208984375 16.908984375 -25.2 22.75
L 16.85 19.8
Q 16.4509765625 17.86875 16 15.05 15.25 10.95 14.45 9.3 13.7 7.7 15.2 2.3 16.95 -4.2 16.95 -6.6 17.2 -14.65 17.15 -19.8 17.13125 -21.55546875 17.05 -23.1 17.4896484375 -22.98203125 17.9 -22.9
L 19.9 -24.25 19.95 -24.6
Q 19.1 -24.8 18.15 -24.95
L 15.3 -22.3 18.15 -24.95
M 12.3 -25.75
Q 11.8150390625 -25.769140625 11.3 -25.8 11.2212890625 -25.7970703125 11.15 -25.8
L 10.05 -24.2
Q 10.74921875 -24.094140625 11.4 -24 12.314453125 -23.865234375 13.15 -23.75
L 13.5 -25.6
Q 12.9208984375 -25.6755859375 12.3 -25.75
M 7.9 -25.95
Q 7.15 -27.5 6.45 -28.85
L 4.8 -27.05
Q 5.45 -25.9 6.1 -24.7
L 8.4 -25.9
Q 8.25 -25.95 7.9 -25.95
M 2.4 -31.95
Q 2.603125 -31.50859375 2.8 -31.1 3.770703125 -29.026171875 4.8 -27.05
L 6.45 -28.85
Q 5.9828125 -29.9306640625 5.5 -30.95 5.2119140625 -31.6345703125 4.9 -32.3
L 2.4 -31.95
M 1.55 -33.9
Q 1.95 -32.9 2.4 -31.95
L 4.9 -32.3
Q 4.05 -34.45 3.45 -36.15
L 1.55 -33.9
M 0.6 -45.7
Q 0.55 -46 0.35 -46.1 0.05 -46.15 -0.1 -46.1 -0.3 -45.95 -0.4 -45.8
L -1.25 -44.3
Q -1.45 -44.1 -1.4 -43.75 -1.1 -42.15 -0.65 -40.65
L 1.5 -43.55
Q 1.3 -43.95 1.3 -44.2 1.25 -44.55 0.6 -45.7
M 2.65 -39.1
L 0 -38.25
Q 0.8 -36.15 1.55 -33.9
L 3.45 -36.15
Q 3.4 -36.2 3.4 -36.35 2.95 -37.35 2.75 -38.3 2.75 -38.7 2.65 -39.1
M 0 -38.25
L 2.65 -39.1
Q 1.7 -42.2 1.5 -43.55
L -0.65 -40.65
Q -0.2 -39.45 0 -38.25 Z"/>

<path fill="#70A3D3" stroke="none" d="
M 11.25 -26.05
L 11.15 -25.8
Q 11.2212890625 -25.7970703125 11.3 -25.8 11.2837890625 -25.909375 11.25 -26.05
M 5.5 -30.95
Q 5.9828125 -29.9306640625 6.45 -28.85
L 7.35 -30.05 6.45 -28.85
Q 7.15 -27.5 7.9 -25.95 8.25 -25.95 8.4 -25.9
L 9 -26.25 8.4 -25.9
Q 9.9 -25.95 11.15 -25.8
L 11.25 -26.05
Q 11.2646484375 -26.1298828125 11.25 -26.25 11.2392578125 -26.4037109375 11.2 -26.6
L 7.35 -30.85 5.5 -30.95 Z"/>

<path fill="#5792CA" stroke="none" d="
M 11.3 -25.8
Q 11.8150390625 -25.769140625 12.3 -25.75
L 11.2 -26.6
Q 11.2392578125 -26.4037109375 11.25 -26.25 11.2646484375 -26.1298828125 11.25 -26.05 11.2837890625 -25.909375 11.3 -25.8 Z"/>

<path fill="#542312" stroke="none" d="
M 4.2 -26.35
L 4.8 -27.05
Q 3.770703125 -29.026171875 2.8 -31.1
L -2.4 -31.35
Q -6.3943359375 -21.0751953125 -7.85 -17.8 -8.9 -15.45 -10.05 -12.6 -12 -7.75 -13.45 -3.55 -15.7 2.95 -16.75 7.95 -17.003515625 9.1755859375 -17.3 10.3 -16.126171875 9.241796875 -10.6 7.7 -8.9994140625 7.262890625 -7.55 6.95 -5.5072265625 -5.4990234375 0.85 -19.7 -2.608984375 -6.6294921875 -3.2 6.4 1.844921875 6.141015625 5.55 7.85 5.9876953125 8.0666015625 6.35 8.25 12.294140625 -7.0654296875 11.4 -24 10.74921875 -24.094140625 10.05 -24.2
L 9.6 -23.45 10.05 -24.2
Q 9.45 -24.3 8.75 -24.3 9.15 -23.65 9.65 -22.7 9.7 -22.6 9.7 -22.55 9.6 -22.35 9.6 -22.25 9.5 -22 9.4 -22
L 8.8 -21.6
Q 8.65 -21.5 8.4 -21.6
L 8.3 -21.5
Q 8.2 -21.6 8.05 -21.75
L 8 -21.8
Q 6.95 -23.2 6.1 -24.7
L 5.6 -24.45 6.1 -24.7
Q 5.45 -25.9 4.8 -27.05
L 4.2 -26.35 Z"/>
</g>

<g id="Duplicate_Items_Folder_leg_suit_copy_0_Layer3_0_FILL">
<path fill="#E0BE38" stroke="none" d="
M -12.65 5.45
Q -14.45 7.25 -15.75 11.15 -17.05 15.1 -20.8 17.25 -25.3 22.9 -26.6 23.45 -28.2 24.15 -24.35 23.95 -20.55 23.7 -17.9 22.95 -15.65 22.25 -11.05 19.9
L -7.1 17.75
Q -11.3 19.9 -13.4 20.55 -16 21.3 -19.85 21.55 -20.55 21.55 -21 21.55 -23.4 21.6 -22.1 21.05 -20.75 20.45 -16.3 14.8 -12.55 12.65 -11.25 8.7 -10.05 5.2 -8.5 3.45 -10.9 3.8 -12.65 5.45
M 13.7 11.5
L 10.15 6.3
Q 7 3.35 5.25 2.4 3.25 1.3 1.4 1.75 1.35 1.8 1.3 1.8 1.65 1.95 2 2.1 3.7 3.05 6.85 6.05
L 10.4 11.25
Q 16.25 14.6 17.4 14.75 18.7 15 16 15.95 15.95 15.95 15.9 15.95
L 8.5 13.95 4.15 8.1 2.45 7.4 2.05 9.2 3.65 10 0.2 13 5.1 15.6 8.7 16.4
Q 12.65 17.25 14.45 17.2 16.5 17.15 19.25 16.2 22 15.3 20.65 15.1 19.55 14.95 13.7 11.5 Z"/>

<path fill="#E8D666" stroke="none" d="
M 3.65 10
L 2.05 9.2 2.45 7.4 4.15 8.1 8.5 13.95 15.9 15.95
Q 15.95 15.95 16 15.95 18.7 15 17.4 14.75 16.25 14.6 10.4 11.25
L 6.85 6.05
Q 3.7 3.05 2 2.1 1.65 1.95 1.3 1.8 -0.3 1.15 -1.75 1.45 -2.55 1 -3.25 0.95 -3.55 0.95 -3.85 1 -6.35 1.3 -8.15 3.05 -8.3 3.25 -8.5 3.45 -10.05 5.2 -11.25 8.7 -12.55 12.65 -16.3 14.8 -20.75 20.45 -22.1 21.05 -23.4 21.6 -21 21.55 -20.55 21.55 -19.85 21.55 -16 21.3 -13.4 20.55 -11.3 19.9 -7.1 17.75
L -6.95 17.7
Q -6.75 17.6 -6.6 17.5
L -2.5 15.3 0.2 13 3.65 10 Z"/>
</g>

<g id="Duplicate_Items_Folder_leg_suit_copy_0_Layer2_0_FILL">
<path fill="#555555" stroke="none" d="
M 6.35 -5.8
L 6 -6.05 6.05 -5.55
Q 6.19609375 -5.66171875 6.35 -5.8
M 6.95 -17.65
Q 4.6 -19.7 1.45 -19.5 -1.0734375 -19.337109375 -2.9 -17.75
L -0.45 -17.55 -2.9 -17.75
Q -2.9755859375 -17.6927734375 -3.05 -17.65
L -2.65 -16.2 -3.05 -17.65
Q -3.3876953125 -17.3078125 -3.7 -16.95 -5.230078125 -15.1587890625 -5.5 -13
L -3.8 -13.5 -5.5 -13
Q -5.60078125 -12.236328125 -5.55 -11.45 -5.361328125 -8.52421875 -3.25 -6.55
L -2.5 -8.95 -3.25 -6.55
Q -3.13203125 -6.415234375 -3 -6.3 -0.65 -4.2 2.45 -4.4 4.471484375 -4.5283203125 6.05 -5.55
L 6 -6.05 4.9 -6.85 6 -6.05 5.95 -8.05 6 -6.05 6.35 -5.8
Q 7.0486328125 -6.2958984375 7.65 -7 9.7 -9.35 9.5 -12.45 9.4296875 -13.5384765625 9.1 -14.5
L 6.65 -14.3 9.1 -14.5
Q 8.4748046875 -16.2873046875 6.95 -17.65 Z"/>
</g>

<g id="Duplicate_Items_Folder_leg_suit_copy_0_Layer1_0_FILL">
<path fill="#555555" stroke="none" d="
M 10.85 11.8
Q 6.35 9.5 0.15 10 -6.1 10.55 -10.4 13.6 -14.05 16.25 -14.4 19.45 0.55 21.5 15.5 16.9 14.8 13.8 10.85 11.8 Z"/>

<path fill="#000000" stroke="none" d="
M 16.1 16.85
L 15.5 16.9
Q 0.55 21.5 -14.4 19.45
L -14.6 19.45 -14.6 24.85
Q 0.35 25.3 16.3 22.05
L 16.1 16.85 Z"/>
</g>

<g id="Duplicate_Items_Folder_leg_suit_copy_0_Layer0_0_FILL">
<path fill="#E0BE38" stroke="none" d="
M -6.95 1.8
Q -8.35 3.3 -8.95 5.25 -9.45 6.9 -8.35 10.55 -9.35 13.15 -9.65 15.45 -9.95 20.65 -10.65 21.6 -11.35 22.85 -8.95 20.7 -6.65 18.45 -5.25 16.7 -4.1 15.25 -2.15 11.6
L -0.4 8.3
Q 4.2 6.55 1.85 0.75
L -1.75 -0.75
Q -5.05 0.45 -6.55 1.45 -6.75 1.6 -6.95 1.8
M -2.75 3.35
L -0.4 3.5 -1.85 8.45 -3 10.6
Q -4.25 13 -5.05 13.95 -5.95 15.15 -7.5 16.6 -9 18 -8.55 17.2 -8.15 16.55 -7.95 13.15 -7.65 11.7 -7 9.95 -7.85 7.6 -7.45 6.45 -7.05 5.15 -6.05 4.15 -6 4.1 -5.9 4 -4.95 3.35 -2.75 3.35 Z"/>

<path fill="#E8D666" stroke="none" d="
M -0.4 3.5
L -2.75 3.35
Q -4.95 3.35 -5.9 4 -6 4.1 -6.05 4.15 -7.05 5.15 -7.45 6.45 -7.85 7.6 -7 9.95 -7.65 11.7 -7.95 13.15 -8.15 16.55 -8.55 17.2 -9 18 -7.5 16.6 -5.95 15.15 -5.05 13.95 -4.25 13 -3 10.6
L -1.85 8.45 -0.4 3.5 Z"/>
</g>

<g id="hand_1_0_Layer3_0_FILL">
<path fill="#E8D666" stroke="none" d="
M 25.95 -9.3
L 18.25 -4.9 28.45 -1.55
Q 31.35 -2.2 38.65 -2.15 39.55 -1.8 42 -1.35 43.6 -1 44.75 -0.1 46.6 1.4 49.65 1.9 52.8 2.4 49.3 -0.5 47.1 -2.2 42.3 -8.5 38.6 -13.45 36.5 -13.55 34.2 -13.65 25.95 -9.3 Z"/>
</g>

<g id="hand_1_0_Layer2_0_FILL">
<path fill="#E0BE38" stroke="none" d="
M 21.65 -16.45
L 21.9 -12.45 27.65 -8.9 36.5 -7.7 43.3 -3.2 43.5 -3.35 38.05 -10.5 30.4 -11.4 21.65 -16.45 Z"/>
</g>

<g id="hand_1_0_Layer1_0_FILL">
<path fill="#E8D666" stroke="none" d="
M 16.6 6.45
Q 17 6.05 17.25 5.55
L 16.5 6.5 16.6 6.45
M 15.05 -14.65
L 12.5 -14.55
Q 13 -12.3 9.9 -11.15 13 -12.3 12.5 -14.55
L 9.35 -15.8 12.5 -14.55 15.05 -14.65
Q 22.45 -15.9 23.9 -19.25
L 27.95 -19.95
Q 29.15 -20.15 34.35 -20.4 39.45 -20.6 37.8 -21.25 36.55 -21.7 32.1 -23.75 27.6 -25.85 24.15 -26.2 20.65 -26.6 16 -25.55
L 11.5 -24.7 13.55 -29.05 2.35 -22 3.2 -21.1 -4.35 -2.45 -4.55 -2.35
Q -6.85 3.1 -18.3 10.5 -23.6 13.75 -25.15 14.85 -27.7 16.6 -26.75 16.95 -24.85 17.6 -17.45 15.85 -13.8 15 -10.95 12.85 -9.3 14.65 -11.85 16.1 -14.4 17.6 -11.85 17.7 -11.55 17.7 -11.4 17.7 -11.3 17.65 -11.25 17.7 -8.7 17.35 -4.55 14.1 0 10.45 2.35 8.05 4.5 8.7 10.85 8.35 14.9 8.05 16.55 6.5
L 16.6 6.45 16.5 6.5 20.2 0.6 16.5 6.5 17.25 5.55
Q 17 6.05 16.6 6.45 20.45 4.75 24.2 5.55
L 28.55 3.15 28.6 3.15
Q 30.25 4.1 36.5 7.6 42.8 11.15 42.2 10 41.65 8.8 39.55 6.8 37.35 4.7 33.65 -1.55
L 31 -6.15
Q 33.35 -4.05 34.95 -2.55 37 -0.65 40.5 0 36.45 -1.65 34.3 -8.9
L 32.3 -16.5 27.65 -18.8 27.65 -19.8
Q 27.8 -19.85 27.95 -19.95
L 23.9 -19.25
Q 22.45 -15.9 15.05 -14.65
M 18.2 -8.5
L 19.65 -4.75 21.05 -3.75
Q 22.7 -2.25 24.95 -1.05 25.6 -0.7 26.3 -0.45 26.35 -0.25 26.45 -0.05 26.65 0.55 27.15 1.4 27.6 2 28.25 2.7 27.6 2 27.15 1.4
L 28 2.85 25.35 4.15 23.2 0.9 17.45 -3.1 15.05 -7.35 18.2 -8.5
M 24.95 -1.05
L 26.45 -0.05
Q 26.35 -0.25 26.3 -0.45 25.6 -0.7 24.95 -1.05 Z"/>

<path fill="#E0BE38" stroke="none" d="
M 19.65 -4.75
L 18.2 -8.5 15.05 -7.35 17.45 -3.1 23.2 0.9 25.35 4.15 28 2.85 27.15 1.4
Q 26.65 0.55 26.45 -0.05
L 24.95 -1.05
Q 22.7 -2.25 21.05 -3.75
L 19.65 -4.75 Z"/>
</g>

<g id="hand_1_0_Layer0_0_FILL">
<path fill="#E0BE38" stroke="none" d="
M -8.55 13.15
L -0.65 7.7 -0.45 4.8 -8.05 9.85 -10.1 8.95 -14.7 10.65
Q -11.2 9.8 -8.55 13.15
M 30.6 -12.5
L 29.7 -15.15 24.4 -18.55
Q 23.55 -14.25 16.45 -13.7
L 20.8 -8.5 34 3.75
Q 29.55 -2.05 26.6 -9.5
L 31.85 -8.6
Q 29 -10.3 27.6 -13.65
L 30.6 -12.5
M 2.8 -10.55
L 0.35 -6.75 -4.15 4.05
Q -1.2 -0.05 3.85 -3.6
L 5.5 -0.45
Q 5.65 -2.5 8 -4.15
L 8.35 -2.1 10.25 -3.25 10.65 -7.2
Q 6.55 -6.65 2.8 -10.55
M 12.5 -16.85
L 17.85 -17.5 22.9 -21.25 29.55 -21.85 29.5 -22.05 21.55 -23.8 17.3 -20.55 9.5 -19.25 12.5 -16.85 Z"/>
</g>

<g id="Duplicate_Items_Folder_arm_knives_0_Layer0_0_FILL">
<path fill="#000000" stroke="none" d="
M 18.7 45.7
Q 17.15 44.15 12.95 41.7 8.75 39.15 6.9 37.4 1.25 32.4 -2 29.65 -3.45 28.25 -4.4 27.45 -5.05 26.9 -5.55 26.6 -6.35 25.9 -6.7 25.65 -6.95 25.45 -7.85 24.85 -8.65 24.15 -10.15 23.1 -11.55 22.05 -13.5 20.55 -13.55 20.5 -13.75 20.4 -16.5 18.35 -22.7 13.55
L -23.1 13.2
Q -23.8 12.85 -24.75 12.8 -25.65 12.8 -26.6 13.25 -27.6 13.6 -30.1 15.05 -32.55 16.55 -33.9 19.5 -35.15 22.35 -34.65 23.45 -34.3 24.15 -33.5 24.65
L -26.2 31.9
Q -26.05 32 -25.95 32.05 -25.15 32.65 -24.25 33.45 -23.4 34.1 -22.6 34.95 -21.6 35.9 -20.55 37.05 -19.7 37.95 -18.65 39.1 -18.3 39.5 -17.8 40.05 -17.75 40.1 -17.65 40.2 -14.85 43.35 -11.2 47.95 -10.4 49.7 -9.7 51 -8.8 52.7 -8.6 53.85 -8.1 55.3 -7.65 56 -7.4 56.25 -4 58.45 -3.95 58.65 -3.8 58.75
L 2.25 58.35 3.05 58.4 4.1 58.25 9.6 56.25 12.75 52.35 15 51.2 18.9 48.65
Q 18.65 47.95 19.35 47.6 20.4 47.2 18.7 45.7
M 15.6 47.65
Q 14.6 48.45 13.65 49.2 8.3 53.5 4.3 55.1 -1.1 57.2 -4.25 54.8
L -11.3 43.95
Q -15.3 39.9 -15.55 39.3 -15.8 39 -16 38.7 -16.35 38.25 -16.75 37.7 -17.45 36.85 -18.2 36.4 -18.7 36.05 -19.2 35.75 -20.4 34.85 -21.5 34 -22.8 33 -23.95 31.95 -24.45 31.55 -28.85 27.4 -31.85 24.45 -32.85 23.5
L -32.75 22.45
Q -31.9 17.35 -26.85 15.5
L -26.55 15
Q -25.2 16.1 -23.9 17.1 -22.3 18.3 -20.65 19.45 1.05 35.1 15.6 47.65
M -21.15 20
Q -21.25 20.05 -21.1 20.1 -20.7 20.4 -21.15 20 Z"/>

<path fill="#141F1D" stroke="none" d="
M -32.75 22.45
L -32.85 23.5
Q -31.85 24.45 -28.85 27.4 -24.45 31.55 -23.95 31.95 -22.8 33 -21.5 34 -20.4 34.85 -19.2 35.75 -18.7 36.05 -18.2 36.4 -17.45 36.85 -16.75 37.7 -16.35 38.25 -16 38.7 -15.8 39 -15.55 39.3 -15.3 39.9 -11.3 43.95
L -4.25 54.8
Q -1.1 57.2 4.3 55.1
L -12.55 36 -32.75 22.45 Z"/>

<path fill="#283E39" stroke="none" d="
M 4.3 55.1
Q 8.3 53.5 13.65 49.2 3.3 39.6 -7.95 30.35 -14.3 25 -21.05 19.9
L -21.1 19.9
Q -24 17.65 -26.85 15.5 -31.9 17.35 -32.75 22.45
L -12.55 36 4.3 55.1
M -21.1 20.1
Q -21.25 20.05 -21.15 20 -20.7 20.4 -21.1 20.1 Z"/>

<path fill="#3E5B55" stroke="none" d="
M 13.65 49.2
Q 14.6 48.45 15.6 47.65 1.05 35.1 -20.65 19.45 -22.3 18.3 -23.9 17.1 -25.2 16.1 -26.55 15
L -26.85 15.5
Q -24 17.65 -21.1 19.9
L -21.05 19.9
Q -14.3 25 -7.95 30.35 3.3 39.6 13.65 49.2 Z"/>
</g>

<g id="Duplicate_Items_Folder_body_suit_copy_0_Layer10_0_FILL">
<path fill="#000000" stroke="none" d="
M -9.95 -11.7
L -7.7 -9.15
Q -6.3 -9.8 -4.85 -10.3
L -6.3 -13.15
Q -8.15 -12.45 -9.95 -11.7
M -13 -10.55
L -13.65 -6.75
Q -11 -7.8 -7.7 -9.15
L -9.95 -11.7
Q -11.5 -11.15 -13 -10.55
M -13.8 -6.6
L -13.65 -6.75 -13 -10.55
Q -16.35 -9 -19.5 -7.5
L -17.75 -4.5
Q -17.25 -4.85 -16.75 -5.15 -15.3 -5.95 -13.8 -6.6
M -22.9 -5.7
L -23.95 -1.05
Q -22.15 -2.1 -17.75 -4.5
L -19.5 -7.5
Q -21.1 -6.6 -22.9 -5.7
M -23.95 -1.05
L -22.9 -5.7
Q -25 -4.55 -27.15 -3.2 -27.55 -3 -27.6 -2.75
L -28.3 -0.45
Q -28.45 -0.25 -28.4 0.25 -28.25 0.35 -27.95 0.55 -27.6 0.55 -27.25 0.5 -25.3 -0.2 -24.8 -0.5 -24.65 -0.8 -23.95 -1.05 Z"/>
</g>

<g id="Duplicate_Items_Folder_body_suit_copy_0_Layer9_0_FILL">
<path fill="#283E39" stroke="none" d="
M 29.65 -17.65
L 18.9 -25.2 -14.2 -26.2 -27.05 -22.8 -28.65 7.4 -24.05 17.2
Q -34.6640625 31.9544921875 -34.95 40.75 -34.65 46.45 -24.4 47
L -24.35 47
Q 28.923046875 54.0853515625 32.1 42 33.42734375 31.21640625 23.75 22.95
L 23.55 16 28.5 9.7 29.65 -17.65 Z"/>
</g>

<g id="Duplicate_Items_Folder_body_suit_copy_0_Layer8_0_FILL">
<path fill="#BE965A" stroke="none" d="
M 19.35 -25.5
L 18.9 -26.1
Q 2.9 -24.5 -13.25 -26.9
L -13.3 -26.75 -13.85 -26.7
Q -23.551171875 -29.6845703125 -28.6 -25.4 -26.838671875 -5.898046875 0.15 -10.2 23.8849609375 -0.3875 33.35 -21.9 30.669921875 -26.3783203125 19.35 -25.5 Z"/>

<path fill="#866535" stroke="none" d="
M 18.9 -26.15
L 17.9 -33.85
Q 3.7673828125 -32.737109375 -11.5 -34.65
L -13.25 -26.9
Q 2.9 -24.5 18.9 -26.1
L 18.9 -26.15 Z"/>
</g>

<g id="Duplicate_Items_Folder_body_suit_copy_0_Layer7_0_FILL">
<path fill="#527A72" stroke="none" d="
M -16.2 -9.6
Q -16.5 -9.55 -16.8 -9.45
L -18.4 -8.8
Q -18.6 -8.75 -19 -8.4
L -19 -8.35
Q -19.3 -8.15 -19.35 -7.85
L -19.4 -7.85
Q -19.7 -6.5 -19.7 -5.3 -19.7 -4.75 -19.8 -4.4 -19.8 -3.8 -19.8 -3.3 -19.8 -2.7 -19.85 -2.1 -19.8 -1.45 -19.9 -0.85 -19.85 -0.45 -19.85 0 -19.85 1.5 -19.7 3 -19.7 3.3 -19.65 3.6 -19.55 4.25 -19.4 4.95 -19.35 5.75 -19.2 6.4 -19 7.6 -18.7 8.8 -17.95 11.35 -17 13.75 -16.55 15 -15.85 16.2 -15 17.9 -14 19.45 -13.9 19.6 -13.45 19.5
L -10.4 19.4
Q -10.2 19.4 -9.8 19.3 -9.6 19.25 -9.45 19.15 -9.15 18.9 -8.9 18.7 -8.6 18.45 -8.75 18.15 -8.8 16.55 -9.2 16.3 -9.25 16.05 -9.45 15.55 -10.15 14.2 -11.9 11 -12 10.65 -12.2 10.25 -12.7 9.25 -13.2 7.9 -13.85 5.95 -14.4 3.45 -14.45 3.2 -14.5 2.95 -14.6 2.3 -14.8 1.6 -14.75 1.3 -14.8 1.05 -14.9 0.15 -15.15 -0.95 -15.2 -1.8 -15.25 -2.8 -15.4 -3.25 -15.4 -3.85 -15.4 -4.5 -15.5 -5.2 -15.5 -5.65 -15.55 -6.1 -15.5 -6.55 -15.6 -6.95 -15.65 -8.05 -15.6 -9.15 -15.65 -9.35 -15.75 -9.4 -15.85 -9.6 -16.2 -9.6
M -16.75 -8.75
Q -16.8 -7.55 -16.75 -6.45 -16.65 -6 -16.65 -5.7 -16.65 -5.15 -16.6 -4.7 -16.55 -4.05 -16.4 -3.5 -16.4 -2.9 -16.4 -2.35 -16.25 -1.55 -16.25 -0.75 -16.1 0.4 -15.95 1.55 -15.85 1.75 -15.9 2.05 -15.7 2.7 -15.6 3.35 -15.55 3.75 -15.5 4.05 -15.05 6.35 -14.4 8.1 -14 9.65 -13.35 10.9 -13.1 11.25 -12.9 11.65 -11.5 14.35 -10.8 15.6 -10.3 16.7 -10.2 16.9
L -10.1 16.95
Q -9.9 17.1 -9.8 18.55
L -12.95 18.75
Q -13.8 17.45 -14.5 16.1 -15.3 14.65 -15.95 13.2 -16.8 11 -17.55 8.65 -17.85 7.25 -18.1 5.7 -18.2 5.05 -18.35 4.5 -18.4 3.85 -18.55 3.15 -18.5 2.85 -18.55 2.55 -18.7 1.15 -18.65 -0.3 -18.7 -0.9 -18.7 -1.45 -18.75 -1.85 -18.75 -2.5 -18.65 -3.15 -18.65 -3.75 -18.65 -4.3 -18.55 -4.9 -18.55 -5.3 -18.5 -5.7 -18.4 -6.9 -18.25 -8.2
L -16.85 -8.8 -16.75 -8.75 Z"/>

<path fill="#000000" stroke="none" d="
M -16.75 -6.45
Q -16.8 -7.55 -16.75 -8.75
L -16.85 -8.8 -18.25 -8.2
Q -18.4 -6.9 -18.5 -5.7 -18.55 -5.3 -18.55 -4.9 -18.65 -4.3 -18.65 -3.75 -18.65 -3.15 -18.75 -2.5 -18.75 -1.85 -18.7 -1.45 -18.7 -0.9 -18.65 -0.3 -18.7 1.15 -18.55 2.55 -18.5 2.85 -18.55 3.15 -18.4 3.85 -18.35 4.5 -18.2 5.05 -18.1 5.7 -17.85 7.25 -17.55 8.65 -16.8 11 -15.95 13.2 -15.3 14.65 -14.5 16.1 -13.8 17.45 -12.95 18.75
L -9.8 18.55
Q -9.9 17.1 -10.1 16.95
L -10.2 16.9
Q -10.3 16.7 -10.8 15.6 -11.5 14.35 -12.9 11.65 -13.1 11.25 -13.35 10.9 -14 9.65 -14.4 8.1 -15.05 6.35 -15.5 4.05 -15.55 3.75 -15.6 3.35 -15.7 2.7 -15.9 2.05 -15.85 1.75 -15.95 1.55 -16.1 0.4 -16.25 -0.75 -16.25 -1.55 -16.4 -2.35 -16.4 -2.9 -16.4 -3.5 -16.55 -4.05 -16.6 -4.7 -16.65 -5.15 -16.65 -5.7 -16.65 -6 -16.75 -6.45
M -17.35 -8.3
Q -17.3 -7.2 -17.2 -6.35 -17.2 -5.85 -17.2 -5.4 -17.2 -4.95 -17.15 -4.4 -17.15 -3.8 -17.05 -3.15 -16.95 -2.55 -16.95 -2.1 -16.90078125 -1.36171875 -16.85 -0.6
L -16.85 -0.55
Q -16.6 0.6 -16.55 1.7 -16.45 2 -16.4 2.3 -16.25 2.95 -16.15 3.6 -16.15 4.05 -16 4.45 -15.7 6.5 -15.1 8.2 -14.4 9.9 -13.8 11.1 -13.7 11.45 -13.5 11.9 -12.15 14.45 -11.45 15.75 -10.85 17.05 -10.75 17.15
L -10.75 17.25
Q -10.55 17.35 -10.5 18.25
L -12.5 18.35
Q -13.25 17.25 -13.95 16 -14.7 14.5 -15.45 12.9 -16.35 10.8 -16.9 8.5 -17.3 7.1 -17.5 5.3 -17.65 4.75 -17.7 4.2 -17.8 3.6 -17.9 2.85 -17.9 2.6 -17.95 2.3 -18.1 1 -18.05 -0.4 -18.05 -0.4498046875 -18.05 -0.5 -18.0541015625 -1.05390625 -18.1 -1.65 -18.1 -2.15 -18.1 -2.8 -18.15 -3.4 -18.15 -4.05 -18.108203125 -4.2798828125 -18.1 -4.5 -18.05 -4.808984375 -18.05 -5.1 -17.9 -5.6 -17.95 -6.05 -17.8 -7 -17.7 -8.1
L -17.35 -8.3 Z"/>

<path fill="#CC0000" stroke="none" d="
M -17.2 -6.35
Q -17.3 -7.2 -17.35 -8.3
L -17.7 -8.1
Q -17.8 -7 -17.95 -6.05 -17.9 -5.6 -18.05 -5.1 -18.05 -4.808984375 -18.1 -4.5 -18.108203125 -4.2798828125 -18.15 -4.05 -18.15 -3.4 -18.1 -2.8 -18.1 -2.15 -18.1 -1.65 -18.0541015625 -1.05390625 -18.05 -0.5 -18.05 -0.4498046875 -18.05 -0.4 -18.1 1 -17.95 2.3 -17.9 2.6 -17.9 2.85 -17.8 3.6 -17.7 4.2 -17.65 4.75 -17.5 5.3 -17.3 7.1 -16.9 8.5 -16.35 10.8 -15.45 12.9 -14.7 14.5 -13.95 16 -13.25 17.25 -12.5 18.35
L -10.5 18.25
Q -10.55 17.35 -10.75 17.25
L -10.75 17.15
Q -10.85 17.05 -11.45 15.75 -12.15 14.45 -13.5 11.9 -13.7 11.45 -13.8 11.1 -14.4 9.9 -15.1 8.2 -15.7 6.5 -16 4.45 -16.15 4.05 -16.15 3.6 -16.25 2.95 -16.4 2.3 -16.45 2 -16.55 1.7 -16.6 0.6 -16.85 -0.55
L -16.85 -0.6
Q -16.90078125 -1.36171875 -16.95 -2.1 -16.95 -2.55 -17.05 -3.15 -17.15 -3.8 -17.15 -4.4 -17.2 -4.95 -17.2 -5.4 -17.2 -5.85 -17.2 -6.35 Z"/>
</g>

<g id="Duplicate_Items_Folder_body_suit_copy_0_Layer6_0_FILL">
<path fill="#E8D666" stroke="none" d="
M -22.3 11
L -22.3 11.05 -22.05 11.15 -22.3 11 Z"/>

<path fill="#DEB929" stroke="none" d="
M -9.85 7.25
L -7.95 6.25
Q -10.1 4.5 -11.85 6.25
L -12.2 6.75
Q -13.35 6.6 -15.8 7.95 -14 4.45 -16.2 2.9
L -15.9 2.2
Q -16.2 -0.45 -19.55 -1.15
L -18.9 1.35 -20.45 1.3
Q -21.95 1.1 -23.2 1.75 -24.25 2.3 -25.9 4.1 -27.4 5.95 -27.8 6.3 -28.35 6.9 -26.7 6.55 -24.95 6.2 -24.5 6.15
L -23.15 6.2
Q -22.85 7.9 -21 8.2 -20.7 8.2 -20.4 8.2 -20.7 8.2 -21 8.2 -24.2 8 -26.05 10.35
L -22.3 11.05 -22.3 11 -22.05 11.15 -22.3 11.05
Q -22.9 12 -22.85 12.85 -22.75 13.75 -21.95 15.15 -21.1 16.45 -20.95 16.8 -20.75 17.25 -20.45 16.05 -20.15 14.85 -20.05 14.55
L -19.55 13.65
Q -17.95 13.65 -17.15 12.05
L -17.05 11.4
Q -16.4 11.7 -15.6 10.45 -14.5 11.45 -13.85 10.85
L -13.6 11.45
Q -12.4 12.5 -10.9 11.65
L -10.2 12.3
Q -10 12.5 -9.4 13.5 -8.85 14.6 -8.7 14 -8.6 13.55 -8.25 11.95 -7.85 10.25 -8.1 9.45 -8.25 8.6 -9.1 7.95
L -9.85 7.25
M -9.25 11.6
Q -9.1 11.9 -9.95 11.3 -10.85 10.7 -10.95 10.65
L -11.4 10.25
Q -12.3 10.75 -13.1 10.1
L -13.3 9.75
Q -13.75 10.3 -15.05 9.2
L -15.05 9.15
Q -15 9.1 -14.9 9.15 -14.85 8.95 -14.75 8.8
L -12.55 7.5 -12.35 7.2 -9.9 7.15 -11.05 7.8 -10.55 8.1
Q -9.95 8.5 -9.8 8.95 -9.65 9.4 -9.45 10.35 -9.35 11.3 -9.25 11.6
M -18.95 1.45
L -16.8 3.55 -17 3.95
Q -16.25 5.55 -17 7.4 -17.05 7.5 -17.1 7.6 -19.05 7.4 -18.9 6.6
L -19.45 6.8
Q -20.95 6.6 -21.2 5.45
L -22.1 5.4
Q -22.3 5.3 -23.8 5.15 -25.3 4.95 -24.95 4.75
L -24.85 4.8
Q -24.35 4.6 -23.2 3.9
L -23.1 3.9
Q -22.55 3.55 -22.05 3.25 -21.55 3 -21.15 2.85 -20.55 2.7 -19.6 2.85
L -19.55 2.85 -18.65 2.95 -19 1.45 -18.95 1.45
M -19.5 8.8
L -19.25 8.95 -18.6 9
Q -17.9 9.25 -16.4 9.2 -16.5 9.35 -16.55 9.5 -17.3 10.95 -17.85 10.7
L -17.95 11.05
Q -18.6 12.05 -19.45 12.05
L -19.85 12.65
Q -19.95 12.7 -20.55 13.7 -21.2 14.75 -21.15 14.45 -21.1 14.05 -21.25 13.15 -21.35 12.15 -21.45 11.65 -21.3 11.1 -20.9 10.55
L -20.55 9.95 -21.8 9.95 -19.5 8.8 Z"/>

<path fill="#EEDB91" stroke="none" d="
M -19.25 8.95
L -19.5 8.8 -21.8 9.95 -20.55 9.95 -20.9 10.55
Q -21.3 11.1 -21.45 11.65 -21.35 12.15 -21.25 13.15 -21.1 14.05 -21.15 14.45 -21.2 14.75 -20.55 13.7 -19.95 12.7 -19.85 12.65
L -19.45 12.05
Q -18.6 12.05 -17.95 11.05
L -17.85 10.7
Q -17.3 10.95 -16.55 9.5 -16.5 9.35 -16.4 9.2 -17.9 9.25 -18.6 9
L -19.25 8.95
M -16.8 3.55
L -18.95 1.45 -19 1.45 -18.65 2.95 -19.55 2.85 -19.6 2.85
Q -20.55 2.7 -21.15 2.85 -21.55 3 -22.05 3.25 -22.55 3.55 -23.1 3.9
L -23.2 3.9
Q -24.35 4.6 -24.85 4.8
L -24.95 4.75
Q -25.3 4.95 -23.8 5.15 -22.3 5.3 -22.1 5.4
L -21.2 5.45
Q -20.95 6.6 -19.45 6.8
L -18.9 6.6
Q -19.05 7.4 -17.1 7.6 -17.05 7.5 -17 7.4 -16.25 5.55 -17 3.95
L -16.8 3.55
M -9.95 11.3
Q -9.1 11.9 -9.25 11.6 -9.35 11.3 -9.45 10.35 -9.65 9.4 -9.8 8.95 -9.95 8.5 -10.55 8.1
L -11.05 7.8 -9.9 7.15 -12.35 7.2 -12.55 7.5 -14.75 8.8
Q -14.85 8.95 -14.9 9.15 -15 9.1 -15.05 9.15
L -15.05 9.2
Q -13.75 10.3 -13.3 9.75
L -13.1 10.1
Q -12.3 10.75 -11.4 10.25
L -10.95 10.65
Q -10.85 10.7 -9.95 11.3 Z"/>
</g>

<g id="Duplicate_Items_Folder_body_suit_copy_0_Layer5_0_FILL">
<path fill="#E8D666" stroke="none" d="
M -10.1 -25.25
L -10.5 -25.95 -15.75 -22.15 -13.1 -22.05 -14.05 -19.95
Q -15.15 -17.95 -15.3 -16.05 -15.45 -14.2 -14.75 -11.35 -14.05 -8.55 -13.95 -7.85 -13.75 -6.8 -13.1 -9.3 -12.4 -11.9 -12.15 -12.45
L -11.3 -14.35
Q -9.2 -14.15 -7.7 -17.55
L -7.35 -18.9
Q -6.1 -17.95 -3.6 -24.7 -6.25 -28.6 -10.1 -25.25
M -9.55 -24.1
L -5.75 -23.8
Q -7.55 -19.8 -8.25 -20.4
L -8.45 -19.55
Q -9.55 -17.6 -10.75 -17.65
L -11.35 -16.5
Q -11.5 -16.2 -12.55 -14.2 -13.65 -12.15 -13.55 -12.8 -13.4 -13.45 -13.3 -15.5 -13.2 -17.5 -13.1 -18.65 -12.85 -19.65 -12.15 -20.9
L -11.45 -22.2 -13.05 -22.25 -9.8 -24.5 -9.55 -24.1
M 16.25 -22.25
L 18.9 -22.1 13.65 -24.9 13.2 -24.55
Q 9.4 -27 6.75 -24.65 9.25 -20.15 10.45 -20.65
L 10.85 -19.8
Q 12.35 -17.5 14.45 -17.4
L 15.25 -16.15
Q 15.5 -15.75 16.25 -14.05 16.9 -12.4 17.1 -13.05 17.2 -13.55 17.9 -15.25 18.6 -17.05 18.45 -18.2 18.3 -19.4 17.2 -20.8
L 16.25 -22.25
M 15.25 -21.55
Q 16 -20.7 16.25 -20.05 16.35 -19.35 16.45 -18.05 16.55 -16.7 16.7 -16.25 16.8 -15.85 15.7 -17.25 14.65 -18.65 14.5 -18.8
L 13.9 -19.6
Q 12.7 -19.65 11.6 -21
L 11.4 -21.55
Q 10.7 -21.25 8.9 -23.9
L 12.7 -23.8 12.95 -24.05 16.2 -22.35 14.6 -22.45 15.25 -21.55 Z"/>

<path fill="#E0BE38" stroke="none" d="
M -5.75 -23.8
L -9.55 -24.1 -9.8 -24.5 -13.05 -22.25 -11.45 -22.2 -12.15 -20.9
Q -12.85 -19.65 -13.1 -18.65 -13.2 -17.5 -13.3 -15.5 -13.4 -13.45 -13.55 -12.8 -13.65 -12.15 -12.55 -14.2 -11.5 -16.2 -11.35 -16.5
L -10.75 -17.65
Q -9.55 -17.6 -8.45 -19.55
L -8.25 -20.4
Q -7.55 -19.8 -5.75 -23.8
M 16.25 -20.05
Q 16 -20.7 15.25 -21.55
L 14.6 -22.45 16.2 -22.35 12.95 -24.05 12.7 -23.8 8.9 -23.9
Q 10.7 -21.25 11.4 -21.55
L 11.6 -21
Q 12.7 -19.65 13.9 -19.6
L 14.5 -18.8
Q 14.65 -18.65 15.7 -17.25 16.8 -15.85 16.7 -16.25 16.55 -16.7 16.45 -18.05 16.35 -19.35 16.25 -20.05 Z"/>
</g>

<g id="Duplicate_Items_Folder_body_suit_copy_0_Layer4_0_FILL">
<path fill="#E8D666" stroke="none" d="
M 4.15 -25.45
L 3.65 -26.25 -2.75 -22.1 0.45 -21.95 -0.7 -19.6
Q -2.05 -17.35 -2.2 -15.25 -2.4 -13.3 -1.55 -10.1 -0.7 -7 -0.6 -6.2 -0.35 -5.05 0.45 -7.85 1.35 -10.7 1.65 -11.3
L 2.7 -13.35
Q 5.2 -13.15 7 -16.95
L 7.45 -18.4
Q 8.95 -17.35 11.95 -24.8 8.75 -29.2 4.15 -25.45
M 6.35 -20.05
L 6.1 -19.2
Q 4.75 -16.95 3.3 -17.05
L 2.6 -15.75
Q 2.4 -15.5 1.15 -13.2 -0.25 -11 -0.1 -11.7 0.1 -12.45 0.2 -14.7 0.35 -16.9 0.45 -18.15 0.8 -19.25 1.65 -20.65
L 2.45 -22.1 0.55 -22.15 4.45 -24.65 4.75 -24.15 9.4 -23.85
Q 7.2 -19.45 6.35 -20.05 Z"/>

<path fill="#E0BE38" stroke="none" d="
M 6.1 -19.2
L 6.35 -20.05
Q 7.2 -19.45 9.4 -23.85
L 4.75 -24.15 4.45 -24.65 0.55 -22.15 2.45 -22.1 1.65 -20.65
Q 0.8 -19.25 0.45 -18.15 0.35 -16.9 0.2 -14.7 0.1 -12.45 -0.1 -11.7 -0.25 -11 1.15 -13.2 2.4 -15.5 2.6 -15.75
L 3.3 -17.05
Q 4.75 -16.95 6.1 -19.2 Z"/>
</g>

<g id="Duplicate_Items_Folder_body_suit_copy_0_Layer3_0_FILL">
<path fill="#D28B14" stroke="none" d="
M 24 17
Q 22.1 17.25 20.3 17.45
L 18.8 22.95 20.3 17.45
Q 17.1 17.75 13.95 18.05
L 12 23.65 13.95 18.05
Q 10.5 18.35 7.15 18.5
L 4.2 24.4 7.15 18.5
Q 3.95 18.65 0.75 18.7
L -1.15 24.05 0.75 18.7
Q -12.85 18.85 -25.55 17.15 -30.3 20.75 -26.45 23.95 -22.5 24.35 -18.6 24.55
L -14.3 19.3 -18.6 24.55
Q 2.9 25.9 24.15 23.05 27 19.85 24 17
M -24.55 23.45
L -19.75 18.5 -24.55 23.45
M -3.7 19
L -7 24.7 -3.7 19
M -12.8 24.2
L -7.95 19 -12.8 24.2 Z"/>
</g>

<g id="Duplicate_Items_Folder_body_suit_copy_0_Layer2_0_FILL">
<path fill="#E8D666" stroke="none" d="
M 2.45 -22.25
L 1.5 -23.7 4.2 -23.55 -1.1 -26.35 -1.5 -25.95
Q -5.35 -28.4 -7.95 -26.1 -5.45 -21.55 -4.25 -22.1
L -3.85 -21.2
Q -2.35 -18.9 -0.3 -18.85
L 0.55 -17.6
Q 0.8 -17.2 1.5 -15.5 2.15 -13.85 2.4 -14.45 2.45 -14.95 3.2 -16.65 3.9 -18.5 3.7 -19.65 3.6 -20.85 2.45 -22.25
M 1.5 -21.5
Q 1.65 -20.75 1.7 -19.45 1.85 -18.15 1.95 -17.7 2.1 -17.3 0.95 -18.65 -0.1 -20.1 -0.25 -20.25
L -0.85 -21.05
Q -2.05 -21.1 -3.1 -22.4
L -3.35 -23
Q -4.05 -22.7 -5.85 -25.35
L -2.05 -25.25 -1.8 -25.5 1.45 -23.8 -0.1 -23.9 0.55 -23
Q 1.25 -22.15 1.5 -21.5 Z"/>

<path fill="#E0BE38" stroke="none" d="
M 1.7 -19.45
Q 1.65 -20.75 1.5 -21.5 1.25 -22.15 0.55 -23
L -0.1 -23.9 1.45 -23.8 -1.8 -25.5 -2.05 -25.25 -5.85 -25.35
Q -4.05 -22.7 -3.35 -23
L -3.1 -22.4
Q -2.05 -21.1 -0.85 -21.05
L -0.25 -20.25
Q -0.1 -20.1 0.95 -18.65 2.1 -17.3 1.95 -17.7 1.85 -18.15 1.7 -19.45 Z"/>
</g>

<g id="Duplicate_Items_Folder_body_suit_copy_0_Layer1_0_FILL">
<path fill="#D28B14" stroke="none" d="
M 8.85 30.4
Q 8.95 30.2 9 29.95
L 3 30.4 9 29.95
Q 9.5 28.3 10 26.65 7.4 27.5 5.05 26.55
L 3.6 26.7 5.05 26.55
Q 4.1 26.1 3.2 25.4 1.6 32.4 -1.4 39.25
L 4.05 40.45 -1.4 39.25
Q -1.7 39.85 -1.95 40.6 -0.25 44.35 3.75 43.4 5.1 40.5 6.3 37.55 7.05 35.65 7.75 33.8 8.3 32.1 8.85 30.4
M 7.2 33.4
L 1.05 34.1 7.2 33.4
M 0 36.7
L 6.2 37.1 0 36.7
M 12.1 22.75
Q 11.95 22.7 11.85 22.65 11.7 24.25 11.55 25.95 10.75 26.35 10.05 26.6
L 11.4 27.05 10.05 26.6
Q 10 26.6 10 26.65 9.5 28.3 9 29.95 8.95 30.2 8.85 30.4
L 11.2 31.05 8.85 30.4
Q 8.3 32.1 7.75 33.8
L 12.3 35.2 7.75 33.8
Q 7.05 35.65 6.3 37.55 6.85 40.95 7.65 44.35 11.5 46.15 14 42.55 13.85 41.85 13.65 41.1
L 8.05 41.15 13.65 41.1
Q 11.9 31.9 12.1 22.75
M 12.8 38.15
L 6.65 37.35 12.8 38.15
M 3.35 23.65
Q 7.05 25.45 10.6 22.85 7.05 25.45 3.35 23.65 3.25 24.4 3.1 25.3 3.15 25.35 3.2 25.4 4.1 26.1 5.05 26.55 7.4 27.5 10 26.65 10 26.6 10.05 26.6 10.75 26.35 11.55 25.95 11.7 24.25 11.85 22.65 11.85 22.15 11.9 21.75 7.5 16.85 3.35 22.15 3.4 22.9 3.35 23.65 Z"/>
</g>

<g id="Duplicate_Items_Folder_head_copy_3_7_Layer11_0_FILL">
<path fill="#484848" stroke="none" d="
M 28.65 -86.45
Q 20.9 -107.5 1.5 -129.15 -4.2 -134.3 -8.55 -129.2 -28.75 -112.5 -36.55 -90.3
L 28.65 -86.45 Z"/>
</g>

<g id="Duplicate_Items_Folder_head_copy_3_7_Layer10_0_FILL">
<path fill="#333333" stroke="none" d="
M 63.6 -68.25
Q 56.15 -81.55 48.9 -85.35 41.6 -89.2 35.75 -91.2 29.9 -93.25 26.1 -93.5 20.45 -94.25 -12.95 -100 -28.65 -101.15 -34.15 -100.25 -39.65 -99.4 -46.75 -97.25 -53.9 -95.15 -66.35 -83.15 -72.6 -71.35 -78.35 -53.4 -84.1 -35.45 -82.7 -25.35 -83.15 -18 -74.05 -2.3 -64.95 13.4 -52.9 18.35 -40.9 23.25 -40.65 23.3 -26.05 25.2 8.7 23.25 40.7 21.4 47.85 18.4 50.95 16.75 56.55 13.8 62.05 10.85 64.15 6.75 66.2 2.6 66.95 -6.45 67 -6.95 67 -7.4 67.8 -21.55 67.1 -42.7 66.45 -62.75 63.6 -68.25 Z"/>
</g>

<g id="Duplicate_Items_Folder_head_copy_3_7_Layer9_0_FILL">
<path fill="#E0BE38" stroke="none" d="
M -47 -29.6
Q -45 -30 -42.25 -30.8
L -45.5 -35
Q -46.25 -31.7 -47 -29.6
M -53.1 -25.15
Q -52.8 -25.85 -52.45 -26.85
L -52.3 -28.35
Q -51.7 -28.1 -50.9 -29.15 -49.85 -30.8 -48.6 -35.5
L -56 -34.35 -56.6 -35.05 -62.05 -29.55 -59 -30.2 -59.85 -27.55
Q -60.65 -25.55 -60.9 -23.85 -60.95 -23.45 -61 -23.1 -60.8 -21.1 -60.3 -17.45 -59.85 -13.85 -59.85 -12.55 -59.95 -11.4 -58.45 -15.45 -57.2 -19.55 -56.95 -20.1
L -56.15 -22.4
Q -54.4 -22.7 -53.1 -25.15
M -55.55 -38.2
L -57.9 -37.65
Q -61.25 -36.95 -63.55 -35.9 -65.8 -34.35 -69.65 -31.45 -73.55 -28.5 -75 -27.65 -76.45 -27 -70.85 -28.1 -67.8 -28.8 -66.2 -29.15
L -58.35 -37.3 -57.4 -36.2
Q -56.45 -37.35 -55.55 -38.2
M -56.75 -41.3
L -54.7 -38.85
Q -53.45 -39.8 -52.25 -40.25
L -56.75 -41.3
M 38.5 -0.65
Q 36.45 -1.4 33.45 -3
L 34.55 2.2
Q 36.9 0.65 38.5 -0.65
M 36.5 -12.45
L 36 -15.6 33.9 -11.5
Q 34.95 -12.1 36.5 -12.45
M 45.85 -2.35
Q 48.6 -1.75 49.9 -2.85
L 52.2 -1.95
Q 52.75 -1.8 56.7 -0.1 60.75 1.4 59.75 0.75 58.8 -0.1 56.35 -2.8 53.95 -5.55 52.55 -7 52.25 -7.2 51.9 -7.4 50.45 -8.3 48.4 -9
L 45.85 -10.05 48.35 -12 40.6 -11.45 40.75 -10.5 35.1 -5.65
Q 39.45 -3.55 41.4 -3.3 42.7 -3.2 42.9 -3.8
L 44.15 -2.95
Q 45.15 -2.55 45.85 -2.35
M 40.3 -12.75
L 40.05 -14.25 51.35 -14.9
Q 52.65 -15.85 55.15 -17.7 59.6 -21.25 58.2 -20.55 56.65 -20 51.85 -19 47.15 -17.9 44.55 -17.25 42.25 -16.2 39.5 -14.1
L 37.6 -12.7
Q 38.8 -12.8 40.3 -12.75 Z"/>

<path fill="#E8D666" stroke="none" d="
M -54.7 -38.85
Q -55.15 -38.55 -55.55 -38.2 -56.45 -37.35 -57.4 -36.2
L -58.35 -37.3 -66.2 -29.15 -67.2 -28.2 -62.15 -29.15 -63.25 -25.05
Q -63.45 -24.4 -63.65 -23.75 -64.65 -20.4 -64.3 -17.5 -64.05 -14.2 -61.65 -9.45 -59.45 -4.85 -59 -3.55 -58.3 -1.8 -57.9 -6.55 -57.35 -11.45 -57.1 -12.6
L -56.05 -16.25
Q -52.1 -16.9 -50.3 -23.65
L -50.1 -24.85 -50.05 -26.1
Q -48.5 -25.45 -47 -29.6 -46.25 -31.7 -45.5 -35 -45.2 -36.45 -44.85 -38.05 -48.6 -41.5 -52.25 -40.25 -53.45 -39.8 -54.7 -38.85
M -52.45 -26.85
Q -52.8 -25.85 -53.1 -25.15 -54.4 -22.7 -56.15 -22.4
L -56.95 -20.1
Q -57.2 -19.55 -58.45 -15.45 -59.95 -11.4 -59.85 -12.55 -59.85 -13.85 -60.3 -17.45 -60.8 -21.1 -61 -23.1 -60.95 -23.45 -60.9 -23.85 -60.65 -25.55 -59.85 -27.55
L -59 -30.2 -62.05 -29.55 -56.6 -35.05 -56 -34.35 -48.6 -35.5
Q -49.85 -30.8 -50.9 -29.15 -51.7 -28.1 -52.3 -28.35
L -52.45 -26.85
M -46.55 -40.7
L -45.9 -42.5 -61.35 -45.9 -57.35 -41.05 -62.65 -39.55
Q -68.2 -38.45 -71.95 -35.7 -75.6 -33.25 -79.6 -27.6 -83.6 -22.05 -84.8 -20.75 -86.4 -18.8 -80.75 -21.55 -74.8 -24.2 -73.35 -24.7
L -68.55 -26.05
Q -66.95 -24 -63.65 -23.75 -63.45 -24.4 -63.25 -25.05
L -62.15 -29.15 -67.2 -28.2 -66.2 -29.15
Q -67.8 -28.8 -70.85 -28.1 -76.45 -27 -75 -27.65 -73.55 -28.5 -69.65 -31.45 -65.8 -34.35 -63.55 -35.9 -61.25 -36.95 -57.9 -37.65
L -55.55 -38.2
Q -55.15 -38.55 -54.7 -38.85
L -56.75 -41.3 -52.25 -40.25
Q -48.6 -41.5 -44.85 -38.05 -45.2 -36.45 -45.5 -35
L -42.25 -30.8
Q -45 -30 -47 -29.6 -48.5 -25.45 -50.05 -26.1
L -50.1 -24.85
Q -46.05 -25.3 -37.05 -28.5 -34.15 -39.25 -46.55 -40.7
M 36.5 -12.45
Q 37 -12.6 37.6 -12.7
L 39.5 -14.1
Q 42.25 -16.2 44.55 -17.25 47.15 -17.9 51.85 -19 56.65 -20 58.2 -20.55 59.6 -21.25 55.15 -17.7 52.65 -15.85 51.35 -14.9
L 52.7 -15 48.7 -11.8 52.55 -10
Q 53.15 -9.7 53.8 -9.45 55.75 -12.1 55.25 -14.65
L 59.35 -17.4
Q 60.7 -18.15 66.55 -20.95 72.35 -23.45 69.8 -23.5 68 -23.45 61.2 -24.05 54.35 -24.65 50.15 -23.5 45.6 -22.45 41.15 -18.95
L 36.6 -15.9 35.5 -22.1 28.05 -8.15 29.85 -7.5
Q 22.85 2.85 32.9 7.65 41.15 2.9 44.15 0.1
L 43.15 -0.65
Q 42.65 0.95 38.5 -0.65 36.9 0.65 34.55 2.2
L 33.45 -3
Q 32.15 -3.7 30.7 -4.5 30.55 -9.55 33.9 -11.5
L 36 -15.6 36.5 -12.45
M 40.05 -14.25
L 40.3 -12.75
Q 38.8 -12.8 37.6 -12.7 37 -12.6 36.5 -12.45 34.95 -12.1 33.9 -11.5 30.55 -9.55 30.7 -4.5 32.15 -3.7 33.45 -3 36.45 -1.4 38.5 -0.65 42.65 0.95 43.15 -0.65
L 44.15 0.1 45.15 0.75
Q 51.5 3.75 54.5 1.2
L 58 2.75
Q 59 3.35 63.05 6.1 66.9 8.9 66.05 7.25 65.35 6.05 63.3 1.35 61.25 -3.5 58.9 -5.85 56.95 -8 53.8 -9.45 53.15 -9.7 52.55 -10
L 48.7 -11.8 52.7 -15 51.35 -14.9 40.05 -14.25
M 49.9 -2.85
Q 48.6 -1.75 45.85 -2.35 45.15 -2.55 44.15 -2.95
L 42.9 -3.8
Q 42.7 -3.2 41.4 -3.3 39.45 -3.55 35.1 -5.65
L 40.75 -10.5 40.6 -11.45 48.35 -12 45.85 -10.05 48.4 -9
Q 50.45 -8.3 51.9 -7.4 52.25 -7.2 52.55 -7 53.95 -5.55 56.35 -2.8 58.8 -0.1 59.75 0.75 60.75 1.4 56.7 -0.1 52.75 -1.8 52.2 -1.95
L 49.9 -2.85 Z"/>
</g>

<g id="Duplicate_Items_Folder_head_copy_3_7_Layer8_0_FILL">
<path fill="#DFBB86" stroke="none" d="
M -42.6 15.8
Q -38.85 28.4 -33.65 43.15 -7.35 55.55 27.05 47.95
L 32.5 23.45
Q 32.5 23.4 32.55 23.35
L 32.6 23.05
Q 41.95 -17.1 29.5 -57 1.35 -78.4 -35.9 -62.8 -51.6 -27.05 -42.6 15.8
M 6 -23.4
Q 17.6 -15.85 22.2 -5.1 17.2 15.55 4.2 25.15 -4.35 30.15 -14.5 22.75 -23.55 7.85 -24.4 -8.05 -24.15 -15.75 -9 -24.25 -8.7 -24.45 -8.4 -24.6
L 5.25 -23.9
Q 5.6 -23.65 6 -23.4 Z"/>

<path fill="#D7A864" stroke="none" d="
M 22.2 -5.1
Q 17.6 -15.85 6 -23.4 5.6 -23.65 5.25 -23.9
L -8.4 -24.6
Q -8.7 -24.45 -9 -24.25 -24.15 -15.75 -24.4 -8.05 -23.55 7.85 -14.5 22.75 -4.35 30.15 4.2 25.15 17.2 15.55 22.2 -5.1 Z"/>

<path fill="#C1A479" stroke="none" d="
M 34.85 -67.85
Q 31 -71.85 17.05 -75.5 3 -79.2 -5.05 -79.9
L -5.8 -80.15 -16.85 -79.85
Q -28.85 -78.85 -36.05 -75.4 -43.25 -72 -48.15 -56.6 -53.05 -41.25 -52.75 -31.75 -49.45 -7.1 -42.6 15.8 -51.6 -27.05 -35.9 -62.8 1.35 -78.4 29.5 -57 41.95 -17.1 32.6 23.05 32.7 22.7 32.8 22.35 35.25 13.25 37.95 4.7 43.6 -13.45 43.7 -21.4 44.25 -32.7 41.45 -48.15 38.65 -63.85 34.85 -67.85 Z"/>
</g>

<g id="Duplicate_Items_Folder_head_copy_3_7_Layer7_0_FILL">
<path fill="#3D3329" stroke="none" d="
M -26.55 -64.2
Q -29.45 -64.25 -35.05 -57 -20.6 -60.9 -8.65 -51.25 -15.2 -62.7 -26.55 -64.2
M 22.85 -61.2
Q 9.45 -58.4 6.15 -49.9 18.9 -57.8 33.05 -51.85 23.6 -61 22.85 -61.2 Z"/>
</g>

<g id="Duplicate_Items_Folder_head_copy_3_7_Layer6_0_FILL">
<path fill="#786243" stroke="none" d="
M -16.8 -30.3
Q -7.65 -43.85 -7.65 -44.1 -21.2 -67.2 -42.2 -41.4 -26 -16.8 -16.8 -30.3
M 12.8 -28.1
Q 22 -13.85 38.2 -37.25 17.2 -64.6 3.65 -42.6 3.65 -42.3 12.8 -28.1 Z"/>
</g>

<g id="Duplicate_Items_Folder_head_copy_3_7_Layer5_0_FILL">
<path fill="url(#Gradient_1)" stroke="none" d="
M -35.75 -44.65
Q -21.3 -25.75 -12.55 -43.65 -12.5 -43.7 -12.5 -43.9 -21.6 -59.9 -35.75 -44.65 Z"/>

<path fill="url(#Gradient_2)" stroke="none" d="
M 9.4 -45.15
Q 14.85 -25.4 32.25 -40.15 21.1 -58.65 9.4 -45.45 9.35 -45.3 9.4 -45.15 Z"/>
</g>

<g id="Duplicate_Items_Folder_head_copy_3_7_Layer3_0_FILL">
<path fill="#C7734E" stroke="none" d="
M -16.05 -5.65
Q -16.8 -5.9 -17.55 -6.15 -8.15 9.65 -1.9 8.95 5.2 10.5 10.05 15.9 8.8 3.35 -2.15 2.1 -9.9 1.35 -16.25 -5.25
L -16.05 -5.65 Z"/>

<path fill="#A74E29" stroke="none" d="
M -1.4 -2.05
Q -4.55 -1.85 -16.05 -5.65
L -16.25 -5.25
Q -9.9 1.35 -2.15 2.1 8.8 3.35 10.05 15.9 12.25 8.5 11.65 12.25
L 12.1 9.9 12.65 10.2
Q 10.6 0.5 -1.4 -2.05 Z"/>
</g>

<g id="Duplicate_Items_Folder_head_copy_3_7_Layer2_0_FILL">
<path fill="#7A3727" stroke="none" d="
M 7.4 -27.25
L 2.05 -39.9
Q -2.7 -43.8 -5.1 -39.95
L -5.5 -39.95 -10.95 -27.75
Q -15.5 -23.6 -13.9 -17.85 -13.35 -15.8 -6.9 -14.9
L -2.6 -13.9 -2.6 -13.85 -2.4 -13.85 -2.4 -13.9 2.25 -14.9
Q 9.5 -12.95 10.05 -17 11.3 -22.6 7.4 -27.25
M 2.4 -27.75
Q 4.2 -24.2 3.65 -19.9 3.4 -16.8 0.05 -18.3
L -2.1 -17.6 -2.1 -17.5 -2.25 -17.55 -2.35 -17.55 -2.35 -17.6 -4.15 -18.3
Q -7.15 -19 -7.4 -20.55 -8.1 -24.95 -6.05 -28.1
L -3.5 -37.45 -3.35 -37.45
Q -2.25 -40.4 -0.05 -37.4
L 2.4 -27.75 Z"/>

<path fill="#9F4B31" stroke="none" d="
M 3.65 -19.9
Q 4.2 -24.2 2.4 -27.75
L -0.05 -37.4
Q -2.25 -40.4 -3.35 -37.45
L -3.5 -37.45 -6.05 -28.1
Q -8.1 -24.95 -7.4 -20.55 -7.15 -19 -4.15 -18.3
L -2.35 -17.6 -2.35 -17.55 -2.25 -17.55 -2.1 -17.5 -2.1 -17.6 0.05 -18.3
Q 3.4 -16.8 3.65 -19.9 Z"/>
</g>

<g id="Duplicate_Items_Folder_head_copy_3_7_Layer1_0_FILL">
<path fill="#000000" stroke="none" d="
M -28.1 34.6
L -30 32.95
Q -30.95 33.6 -32 34.2
L -30.6 36.15
Q -29.3 35.4 -28.1 34.6
M -30 32.95
L -28.1 34.6
Q -27 34 -25.95 33.35
L -25.95 30.45
Q -27.75 31.6 -30 32.95
M -23.2 28.3
L -21.5 30.35
Q -20.45 29.45 -19.15 28.55
L -19 24.9
Q -20.1 26 -23.2 28.3
M -23.2 28.3
Q -23.5 28.65 -23.8 28.9 -24.75 29.65 -25.8 30.35
L -25.95 30.45 -25.95 33.35
Q -23.65 31.85 -21.5 30.35
L -23.2 28.3
M -16.7 23.45
Q -18.05 24.15 -18.35 24.45 -18.5 24.65 -19 24.9
L -19.15 28.55
Q -17.75 27.5 -16.35 26.25 -16.05 26 -16.05 25.8
L -15.8 24
Q -15.65 23.85 -15.8 23.5 -15.9 23.45 -16.15 23.3 -16.45 23.35 -16.7 23.45
M 39.2 -4.6
Q 39.7 -4.45 39.75 -4.3 39.95 -4.15 41.2 -3.8 41.4 -3.6 41.65 -3.65 41.9 -3.8 42.05 -3.9 42.2 -4.15 42.2 -4.3
L 42.3 -5.7
Q 42.4 -6 42.2 -6.15 41.1 -6.95 39.9 -7.65
L 39.2 -4.6
M 33.7 -8.1
L 34.45 -10.55
Q 33.55 -11 32.65 -11.3
L 30.3 -9.6
Q 32.25 -8.75 33.7 -8.1
M 35.95 -6.7
L 38.15 -8.75
Q 36.25 -9.6 34.45 -10.55
L 33.7 -8.1
Q 33.75 -8.1 33.8 -8 34.7 -7.6 35.45 -7.1 35.65 -6.9 35.95 -6.7
M 38.15 -8.75
L 35.95 -6.7
Q 38.35 -5.3 39.2 -4.6
L 39.9 -7.65
Q 38.9 -8.15 38.15 -8.75
M 27.15 -10.9
Q 28.85 -10.2 30.3 -9.6
L 32.65 -11.3
Q 30.3 -12.15 27.9 -12.95
L 27.15 -10.9
M 27.9 -12.95
Q 26.6 -13.25 25.4 -13.65
L 23.75 -11.55
Q 23.9 -11.6 24.25 -11.8 25.8 -11.25 27.15 -10.9
L 27.9 -12.95
M 21.7 -14.35
L 21.6 -14.25
Q 21.4 -14.15 21.25 -14
L 20.9 -13.4 20.85 -13.4
Q 20.75 -13.3 20.8 -13.15 20.85 -13.05 20.85 -12.85 20.85 -12.8 20.95 -12.8 21.85 -12.5 22.65 -12.35 21.9 -11.9 21.3 -11.65
L 21 -10
Q 22.3 -10.65 23.75 -11.55
L 25.4 -13.65
Q 23.85 -14.1 22.1 -14.3
L 22.05 -14.3
Q 21.8 -14.35 21.7 -14.35
M 11.75 -5.6
L 11.6 -5.85 11.35 -5.45
Q 11.5 -5.45 11.75 -5.6
M 14.6 -8.55
Q 13.75 -8.2 12.95 -7.9
L 11.6 -5.85 11.75 -5.6
Q 12.7 -6 13.7 -6.45
L 14.6 -8.55
M 18.55 -8.75
L 18 -10.1
Q 16.3 -9.25 14.6 -8.55
L 13.7 -6.45
Q 16.05 -7.45 18.55 -8.75
M 18 -10.1
L 18.55 -8.75
Q 19.8 -9.35 21 -10
L 21.3 -11.65
Q 19.55 -10.85 18 -10.1 Z"/>
</g>

<g id="Duplicate_Items_Folder_head_copy_3_7_Layer0_0_FILL">
<path fill="#774E11" stroke="none" d="
M -18.2 37.1
Q -18.5 36.8 -19 36.4 -19.3 35.95 -19.75 35.55
L -20.85 36.15
Q -20.3 36.45 -19.9 36.9 -19.45 37.2 -19 37.65 -18.1 38.25 -17.1 39.05
L -16.7 38.85
Q -17.5 37.95 -18.2 37.1
M -21.45 33.45
Q -22 32.75 -22.6 32.1
L -23.8 33.05
Q -23.3 33.55 -22.8 34.2 -22.3 34.6 -21.8 35.05 -21.35 35.6 -20.85 36.15
L -19.75 35.55
Q -20.15 34.95 -20.6 34.4 -21.05 33.9 -21.45 33.45
M -24.3 29.9
Q -24.5 29.55 -24.65 29.3 -25.1 28.6 -25.55 28.05 -25.85 27.6 -26.1 27.15
L -28.1 27.8
Q -27.75 28.4 -27.3 28.95 -26.9 29.55 -26.4 30.25 -26.15 30.5 -25.95 30.75 -25 31.9 -23.8 33.05
L -22.6 32.1
Q -23.45 30.9 -24.3 29.9
M -28.5 23.25
L -30.2 24.65
Q -29.35 26.25 -28.1 27.8
L -26.1 27.15
Q -27.5 25.1 -28.5 23.25
M -30.2 24.65
L -28.5 23.25
Q -29.3 21.25 -29.85 19.6 -29.95 19.25 -30.2 18.75
L -32.65 19.7
Q -31.65 22.2 -30.2 24.65
M -31.75 13.65
L -34 15.7
Q -33.4 17.65 -32.65 19.7
L -30.2 18.75
Q -31.25 15.35 -31.75 13.65
M -32.25 11.8
Q -32.25 11.75 -32.3 11.7 -32.25 11.4 -33 10.65
L -34.7 12.45
Q -34.4 14.1 -34 15.7
L -31.75 13.65
Q -32.3 11.9 -32.25 11.8 Z"/>

<path fill="#BE9D1F" stroke="none" d="
M -30.9 25.15
L -31.95 26.1
Q -31.25 27.35 -30.4 28.5
L -28.9 28.05
Q -29.95 26.6 -30.9 25.15
M -21.5 36.4
L -22.85 37.05
Q -22.4 37.55 -21.95 38 -21.5 38.2 -21.1 38.65 -20.05 39.6 -18.75 40.45
L -18.65 40.4
Q -18.35 40.55 -18.05 40.55
L -17.95 40.55
Q -17.35 40.45 -17 40.3
L -15.35 39.35
Q -14.9 39.2 -14.65 38.9 -14.3 38.6 -14.4 38.4 -14.45 38.25 -14.5 38.05 -15.45 37.15 -16.35 36.15 -16.6 35.8 -17 35.45 -17.4 35 -17.75 34.65
L -19.05 35.25
Q -18.65 35.7 -18.3 36.1 -18 36.4 -17.65 36.85 -16.8 37.8 -15.8 38.75
L -15.85 38.85 -17.45 39.7 -17.5 39.75 -17.45 39.65
Q -18.6 38.75 -19.75 37.9 -20.1 37.55 -20.5 37.25 -21 36.85 -21.5 36.4
M -23.9 36.15
Q -23.35 36.55 -22.85 37.05
L -21.5 36.4
Q -22 35.9 -22.6 35.45 -23.15 34.9 -23.45 34.5 -23.95 34.05 -24.4 33.55
L -25.6 34.45
Q -25.25 34.8 -24.95 35.2 -24.35 35.6 -23.9 36.15
M -22 31.7
Q -21.35 32.35 -20.8 33.15 -20.35 33.55 -19.9 34.1 -19.55 34.65 -19.05 35.25
L -17.75 34.65
Q -18.2 34 -18.75 33.45 -19.2 32.95 -19.45 32.45 -20.25 31.6 -20.9 30.75
L -22 31.7
M -28.1 29.3
Q -28.45 28.7 -28.9 28.05
L -30.4 28.5
Q -29.95 29.25 -29.35 29.95 -28.9 30.65 -28.4 31.25 -28.2 31.55 -27.95 31.8 -26.85 33.2 -25.6 34.45
L -24.4 33.55
Q -25.65 32.4 -26.65 31.1 -26.85 30.8 -27.1 30.65 -27.6 29.9 -28.1 29.3
M -24.9 27.7
Q -24.45 28.3 -24.05 29 -23.8 29.2 -23.6 29.5 -22.85 30.6 -22 31.7
L -20.9 30.75
Q -21.65 29.75 -22.3 28.8 -22.45 28.6 -22.75 28.35 -23.1 27.6 -23.6 27 -23.75 26.75 -23.95 26.5
L -25.35 27.05
Q -25.15 27.3 -24.9 27.7
M -26.65 21.7
L -27.85 22.7
Q -26.85 24.75 -25.35 27.05
L -23.95 26.5
Q -25.55 23.9 -26.65 21.7
M -29.5 18.45
L -28.15 18
Q -29.35 13.7 -29.9 11.95
L -31 13.1
Q -30.6 14.8 -29.5 18.45
M -28.15 18
L -29.5 18.45
Q -29.3 18.85 -29.25 19.45 -28.75 21.05 -27.85 22.7
L -26.65 21.7
Q -27.35 20.15 -27.75 18.85 -27.9 18.35 -28.15 18
M -34.6 20.45
L -33.3 19.9
Q -33.95 18.15 -34.5 16.25
L -35.75 17.35
Q -35.3 18.95 -34.6 20.45
M -33.3 19.9
L -34.6 20.45
Q -33.5 23.3 -31.95 26.1
L -30.9 25.15
Q -32.25 22.5 -33.3 19.9
M -29.9 11.95
Q -30.2 11.3 -30.3 11.1 -30.2 10.55 -31.4 9.1 -31.55 8.7 -32.05 8.85 -32.4 8.8 -32.85 9 -33.6 9.25 -33.9 9.65
L -36.45 12.45
Q -36.9 12.75 -36.8 12.95 -36.4 15.2 -35.75 17.35
L -34.5 16.25
Q -35.05 14.4 -35.45 12.5
L -32.75 9.8
Q -31.6 11.1 -31.6 11.45 -31.65 11.55 -31.65 11.6 -31.45 11.8 -31 13.1
L -29.9 11.95 Z"/>

<path fill="#000000" stroke="none" d="
M -20.85 36.15
L -21.5 36.4
Q -21 36.85 -20.5 37.25 -20.1 37.55 -19.75 37.9 -18.6 38.75 -17.45 39.65
L -17.5 39.75 -17.45 39.7 -15.85 38.85 -15.8 38.75
Q -16.8 37.8 -17.65 36.85 -18 36.4 -18.3 36.1 -18.65 35.7 -19.05 35.25
L -19.75 35.55
Q -19.3 35.95 -19 36.4 -18.5 36.8 -18.2 37.1 -17.5 37.95 -16.7 38.85
L -17.1 39.05
Q -18.1 38.25 -19 37.65 -19.45 37.2 -19.9 36.9 -20.3 36.45 -20.85 36.15
M -23.8 33.05
L -24.4 33.55
Q -23.95 34.05 -23.45 34.5 -23.15 34.9 -22.6 35.45 -22 35.9 -21.5 36.4
L -20.85 36.15
Q -21.35 35.6 -21.8 35.05 -22.3 34.6 -22.8 34.2 -23.3 33.55 -23.8 33.05
M -22 31.7
L -22.6 32.1
Q -22 32.75 -21.45 33.45 -21.05 33.9 -20.6 34.4 -20.15 34.95 -19.75 35.55
L -19.05 35.25
Q -19.55 34.65 -19.9 34.1 -20.35 33.55 -20.8 33.15 -21.35 32.35 -22 31.7
M -28.9 28.05
L -28.1 27.8
Q -29.35 26.25 -30.2 24.65
L -30.9 25.15
Q -29.95 26.6 -28.9 28.05
M -28.9 28.05
Q -28.45 28.7 -28.1 29.3 -27.6 29.9 -27.1 30.65 -26.85 30.8 -26.65 31.1 -25.65 32.4 -24.4 33.55
L -23.8 33.05
Q -25 31.9 -25.95 30.75 -26.15 30.5 -26.4 30.25 -26.9 29.55 -27.3 28.95 -27.75 28.4 -28.1 27.8
L -28.9 28.05
M -24.65 29.3
Q -24.5 29.55 -24.3 29.9 -23.45 30.9 -22.6 32.1
L -22 31.7
Q -22.85 30.6 -23.6 29.5 -23.8 29.2 -24.05 29 -24.45 28.3 -24.9 27.7 -25.15 27.3 -25.35 27.05
L -26.1 27.15
Q -25.85 27.6 -25.55 28.05 -25.1 28.6 -24.65 29.3
M -27.85 22.7
L -28.5 23.25
Q -27.5 25.1 -26.1 27.15
L -25.35 27.05
Q -26.85 24.75 -27.85 22.7
M -28.5 23.25
L -27.85 22.7
Q -28.75 21.05 -29.25 19.45 -29.3 18.85 -29.5 18.45
L -30.2 18.75
Q -29.95 19.25 -29.85 19.6 -29.3 21.25 -28.5 23.25
M -32.65 19.7
L -33.3 19.9
Q -32.25 22.5 -30.9 25.15
L -30.2 24.65
Q -31.65 22.2 -32.65 19.7
M -31 13.1
L -31.75 13.65
Q -31.25 15.35 -30.2 18.75
L -29.5 18.45
Q -30.6 14.8 -31 13.1
M -34 15.7
L -34.5 16.25
Q -33.95 18.15 -33.3 19.9
L -32.65 19.7
Q -33.4 17.65 -34 15.7
M -32.3 11.7
Q -32.25 11.75 -32.25 11.8 -32.3 11.9 -31.75 13.65
L -31 13.1
Q -31.45 11.8 -31.65 11.6 -31.65 11.55 -31.6 11.45 -31.6 11.1 -32.75 9.8
L -35.45 12.5
Q -35.05 14.4 -34.5 16.25
L -34 15.7
Q -34.4 14.1 -34.7 12.45
L -33 10.65
Q -32.25 11.4 -32.3 11.7 Z"/>
</g>

<g id="Duplicate_Items_Folder_arm_suit_copy_0_Layer0_0_FILL">
<path fill="#000000" stroke="none" d="
M 34.75 -41.1
Q 33.6 -41.8 30.4 -40.95 27.05 -40.1 25.05 -37.75 23.1 -35.3 22.55 -34.35 21.9 -33.4 21.8 -32.5 21.75 -31.4 21.95 -30.65
L 22.25 -30.15
Q 26.25 -22.8 27.95 -19.5 28.05 -19.3 28.1 -19.25 29.3 -16.95 30.2 -15.3 31.1 -13.5 31.65 -12.5 32.15 -11.55 32.4 -11.15 32.55 -10.75 33.1 -9.8 33.4 -9.25 33.8 -8.45 34.55 -7.25 35.7 -5.55 38.15 -1.65 42.45 5.15 44 7.45 45.95 12.35 47.9 17.15 49.25 19.05 50.6 21.1 51.2 20.05 51.65 19.4 52.4 19.8
L 55.75 16.1 57.3 13.9 61.95 11.2 64.95 5.75 65.35 4.65 65.45 3.75 66.9 -2.55
Q 66.75 -2.7 66.6 -2.85 64.8 -6.75 64.6 -7.05 63.9 -7.7 62.45 -8.45 61.3 -8.9 59.65 -10.05 58.35 -11.05 56.65 -12.2 52.4 -16.85 49.6 -20.35 49.5 -20.45 49.5 -20.5 48.95 -21.1 48.6 -21.55 47.5 -22.85 46.75 -23.95 45.65 -25.2 44.9 -26.45 44.1 -27.45 43.55 -28.5 42.85 -29.5 42.35 -30.45 42.3 -30.6 42.25 -30.8
L 35.8 -39.7
Q 35.35 -40.65 34.75 -41.1
M 33.35 -39.3
L 34.45 -39.2
Q 35.35 -38 37.9 -34.3 41.55 -28.95 41.9 -28.4 42.8 -27.05 43.7 -25.45 44.4 -24.15 45.05 -22.7 45.35 -22.15 45.65 -21.6 46 -20.7 46.75 -19.85 47.3 -19.25 47.7 -18.85 48 -18.6 48.25 -18.3 48.85 -17.85 52.4 -13
L 62.7 -3.7
Q 64.75 0.1 61.6 5.4 59.3 9.35 53.85 14.3 52.85 15.15 51.8 16.1 41 -1.35 28.1 -26.95 27.2 -28.9 26.15 -30.85 25.35 -32.35 24.4 -34
L 25 -34.25
Q 27.85 -39.2 33.35 -39.3
M 28.8 -27.45
Q 29.1 -26.85 28.9 -27.4 28.85 -27.55 28.8 -27.45 Z"/>

<path fill="#283E39" stroke="none" d="
M 28.65 -27.4
L 28.65 -27.35
Q 32.9 -19.3 37.5 -11.75 45.35 1.75 53.85 14.3 59.3 9.35 61.6 5.4
L 44.3 -15.6 33.35 -39.3
Q 27.85 -39.2 25 -34.25 26.8 -30.85 28.65 -27.4
M 28.9 -27.4
Q 29.1 -26.85 28.8 -27.45 28.85 -27.55 28.9 -27.4 Z"/>

<path fill="#3E5B55" stroke="none" d="
M 25 -34.25
L 24.4 -34
Q 25.35 -32.35 26.15 -30.85 27.2 -28.9 28.1 -26.95 41 -1.35 51.8 16.1 52.85 15.15 53.85 14.3 45.35 1.75 37.5 -11.75 32.9 -19.3 28.65 -27.35
L 28.65 -27.4
Q 26.8 -30.85 25 -34.25 Z"/>

<path fill="#141F1D" stroke="none" d="
M 34.45 -39.2
L 33.35 -39.3 44.3 -15.6 61.6 5.4
Q 64.75 0.1 62.7 -3.7
L 52.4 -13
Q 48.85 -17.85 48.25 -18.3 48 -18.6 47.7 -18.85 47.3 -19.25 46.75 -19.85 46 -20.7 45.65 -21.6 45.35 -22.15 45.05 -22.7 44.4 -24.15 43.7 -25.45 42.8 -27.05 41.9 -28.4 41.55 -28.95 37.9 -34.3 35.35 -38 34.45 -39.2 Z"/>
</g>

<path id="Duplicate_Items_Folder_leg_suit_copy_0_Layer4_0_1_STROKES" stroke="#000000" stroke-width="1" stroke-linejoin="round" stroke-linecap="round" fill="none" d="
M 2.85 -45.55
L 1.5 -43.55
M 4.4 -39.6
L 2.65 -39.1 0 -38.25
M 3.4 -36.35
Q 3.4 -36.2 3.45 -36.15
M 4.9 -32.3
L 6.3 -32.6
M 1.5 -43.55
L -0.65 -40.65
M 2.4 -31.95
L 4.9 -32.3
M 13.5 -25.6
L 13.65 -26.25
M 4.8 -27.05
L 6.45 -28.85
M 3.45 -36.15
L 1.55 -33.9
M -0.5 -38.15
L 0 -38.25
M 1.55 -33.9
L 0.95 -33.15
M 4.2 -26.35
L 4.8 -27.05
M 6.1 -24.7
L 8.4 -25.9
M 6.45 -28.85
L 7.35 -30.05
M 8.4 -25.9
L 9 -26.25
M 11.25 -26.225
Q 11.2646484375 -26.1298828125 11.275 -26.025
M 11.15 -25.8
L 10.05 -24.2
M 13.15 -23.75
L 13.5 -25.6
M 19.95 -24.6
L 20 -25.25
M 11.275 -26.025
L 11.15 -25.8
M 19.9 -24.25
L 19.95 -24.6
M 13 -22.65
L 13.15 -23.75
M 10.05 -24.2
L 9.6 -23.45
M 5.6 -24.45
L 6.1 -24.7
M 18.15 -24.95
L 15.3 -22.3
M -0.65 -40.65
L -0.9 -40.2"/>

<path id="Duplicate_Items_Folder_leg_suit_copy_0_Layer3_0_1_STROKES" stroke="#000000" stroke-width="1.5" stroke-linejoin="round" stroke-linecap="round" fill="none" d="
M 0.2 13
L 5.1 15.6 8.7 16.4
Q 12.65 17.25 14.45 17.2 16.5 17.15 19.25 16.2 22 15.3 20.65 15.1 19.55 14.95 13.7 11.5
L 10.15 6.3
Q 7 3.35 5.25 2.4 3.25 1.3 1.4 1.75 1.35 1.8 1.3 1.8
M -6.95 17.7
L -7.1 17.75 -11.05 19.9
Q -15.65 22.25 -17.9 22.95 -20.55 23.7 -24.35 23.95 -28.2 24.15 -26.6 23.45 -25.3 22.9 -20.8 17.25 -17.05 15.1 -15.75 11.15 -14.45 7.25 -12.65 5.45 -10.9 3.8 -8.5 3.45"/>

<path id="Duplicate_Items_Folder_leg_suit_copy_0_Layer2_0_1_STROKES" stroke="#000000" stroke-width="1" stroke-linejoin="round" stroke-linecap="round" fill="none" d="
M 9.1 -14.5
Q 8.4748046875 -16.2873046875 6.95 -17.65 4.6 -19.7 1.45 -19.5 -1.0734375 -19.337109375 -2.9 -17.75
L -0.45 -17.55
M 6.35 -5.775
Q 7.0486328125 -6.2958984375 7.65 -7 9.7 -9.35 9.5 -12.45 9.4296875 -13.5384765625 9.1 -14.5
L 6.65 -14.3
M 7.55 -4.9
L 6.35 -5.775 6.025 -6.025 6.05 -5.55
Q 6.19609375 -5.66171875 6.35 -5.775
M 6.05 -5.55
L 6.1 -3.2
M -3.25 -6.525
Q -3.13203125 -6.415234375 -3 -6.3 -0.65 -4.2 2.45 -4.4 4.471484375 -4.5283203125 6.05 -5.55
M 5.95 -8.05
L 6.025 -6.025 4.9 -6.85
M 10.25 -14.6
L 9.1 -14.5
M -5.5 -12.975
L -6.25 -12.75
M -2.9 -17.75
Q -2.9755859375 -17.6927734375 -3.05 -17.625
L -2.65 -16.2
M -2.9 -17.75
L -3.1 -17.775 -3.05 -17.625
Q -3.3876953125 -17.3078125 -3.7 -16.95 -5.230078125 -15.1587890625 -5.5 -12.975
L -3.8 -13.5
M -3.5 -19.2
L -3.1 -17.775 -5.65 -18
M -5.5 -12.975
Q -5.60078125 -12.236328125 -5.55 -11.45 -5.361328125 -8.52421875 -3.25 -6.525
L -2.5 -8.95
M -3.25 -6.525
L -3.55 -5.6"/>

<path id="Duplicate_Items_Folder_leg_suit_copy_0_Layer1_0_1_STROKES" stroke="#000000" stroke-width="1" stroke-linejoin="round" stroke-linecap="round" fill="none" d="
M -14.4 19.45
L -14.6 19.45 -14.6 24.85
Q 0.35 25.3 16.3 22.05
L 16.1 16.85 15.5 16.9
Q 0.55 21.5 -14.4 19.45 -14.05 16.25 -10.4 13.6 -6.1 10.55 0.15 10 6.35 9.5 10.85 11.8 14.8 13.8 15.5 16.9"/>

<path id="Duplicate_Items_Folder_leg_suit_copy_0_Layer0_0_1_STROKES" stroke="#000000" stroke-width="1.5" stroke-linejoin="round" stroke-linecap="round" fill="none" d="
M -8.95 5.25
Q -9.45 6.9 -8.35 10.55 -9.35 13.15 -9.65 15.45 -9.95 20.65 -10.65 21.6 -11.35 22.85 -8.95 20.7 -6.65 18.45 -5.25 16.7 -4.1 15.25 -2.15 11.6
L -0.4 8.3
Q 4.2 6.55 1.85 0.75
L -1.75 -0.75
Q -5.05 0.45 -6.55 1.45 -6.75 1.6 -6.95 1.8 -8.35 3.3 -8.95 5.25 Z"/>

<path id="hand_1_0_Layer3_0_1_STROKES" stroke="#000000" stroke-width="1.5" stroke-linejoin="round" stroke-linecap="round" fill="none" d="
M 25.95 -9.3
Q 34.2 -13.65 36.5 -13.55 38.6 -13.45 42.3 -8.5 47.1 -2.2 49.3 -0.5 52.8 2.4 49.65 1.9 46.6 1.4 44.75 -0.1 43.6 -1 42 -1.35 39.55 -1.8 38.65 -2.15 31.35 -2.2 28.45 -1.55"/>

<path id="hand_1_0_Layer1_0_1_STROKES" stroke="#000000" stroke-width="1.5" stroke-linejoin="round" stroke-linecap="round" fill="none" d="
M 27.95 -19.95
L 23.9 -19.25
Q 22.45 -15.9 15.05 -14.65
L 12.5 -14.55
Q 13 -12.3 9.9 -11.15
M 2.35 -22
L 0.6 -20.95 3.2 -21.1
M 2.35 -22
L 13.55 -29.05 11.5 -24.7 16 -25.55
Q 20.65 -26.6 24.15 -26.2 27.6 -25.85 32.1 -23.75 36.55 -21.7 37.8 -21.25 39.45 -20.6 34.35 -20.4 29.15 -20.15 27.95 -19.95 27.8 -19.85 27.65 -19.8
L 27.65 -18.8 32.3 -16.5 34.3 -8.9
Q 36.45 -1.65 40.5 0 37 -0.65 34.95 -2.55 33.35 -4.05 31 -6.15
L 33.65 -1.55
Q 37.35 4.7 39.55 6.8 41.65 8.8 42.2 10 42.8 11.15 36.5 7.6 30.25 4.1 28.6 3.15
L 28.55 3.15 24.2 5.55
Q 20.45 4.75 16.6 6.45
L 16.55 6.5
Q 14.9 8.05 10.85 8.35 4.5 8.7 2.35 8.05 0 10.45 -4.55 14.1 -8.7 17.35 -11.25 17.7 -11.3 17.65 -11.4 17.7 -11.55 17.7 -11.85 17.7 -14.4 17.6 -11.85 16.1 -9.3 14.65 -10.95 12.85 -13.8 15 -17.45 15.85 -24.85 17.6 -26.75 16.95 -27.7 16.6 -25.15 14.85 -23.6 13.75 -18.3 10.5 -6.85 3.1 -4.55 -2.35
M 3.2 -21.1
L -4.35 -2.45
M 24.95 -1.05
Q 22.7 -2.25 21.05 -3.75
L 19.65 -4.75 18.2 -8.5
M 27.15 1.4
Q 26.65 0.55 26.45 -0.05
M 24.95 -1.05
Q 25.6 -0.7 26.3 -0.45 26.35 -0.25 26.45 -0.05
M 12.5 -14.55
L 9.35 -15.8
M 28.25 2.7
Q 27.6 2 27.15 1.4
M 20.2 0.6
L 16.5 6.5 17.25 5.55
Q 17 6.05 16.6 6.45
L 16.5 6.5"/>

<path id="Duplicate_Items_Folder_body_suit_copy_0_Layer10_0_1_STROKES" stroke="#000000" stroke-width="1" stroke-linejoin="round" stroke-linecap="round" fill="none" d="
M -23.95 -1.05
L -22.9 -5.7
M -17.75 -4.5
L -19.5 -7.5
M -22.9 -5.7
L -22.6 -6.55
M -13.8 -6.6
L -13.65 -6.75 -13 -10.55
M -19.5 -7.5
L -19.9 -8.15
M -13 -10.55
L -12.85 -11.9
M -16.4 -2.4
L -17.75 -4.5
M -6.65 -7.7
L -7.7 -9.15 -9.95 -11.7
M -24.8 2.35
L -23.95 -1.05"/>

<path id="Duplicate_Items_Folder_body_suit_copy_0_Layer9_0_1_STROKES" stroke="#000000" stroke-width="1.5" stroke-linejoin="round" stroke-linecap="round" fill="none" d="
M 18.9 -25.2
L -14.2 -26.2 -27.05 -22.8 -28.65 7.4 -24.05 17.2
Q -34.6640625 31.9544921875 -34.95 40.75 -34.65 46.45 -24.4 47
L -24.35 47
Q 28.923046875 54.0853515625 32.1 42 33.42734375 31.21640625 23.75 22.95
L 23.55 16 28.5 9.7 29.65 -17.65 18.9 -25.2 Z"/>

<path id="Duplicate_Items_Folder_body_suit_copy_0_Layer8_0_1_STROKES" stroke="#000000" stroke-width="1.5" stroke-linejoin="round" stroke-linecap="round" fill="none" d="
M 18.9 -26.15
L 17.9 -33.85
Q 3.7673828125 -32.737109375 -11.5 -34.65
L -13.25 -26.9
Q 2.9 -24.5 18.9 -26.1
M -13.25 -26.9
L -13.3 -26.75 -13.85 -26.7
Q -23.551171875 -29.6845703125 -28.6 -25.4 -26.838671875 -5.898046875 0.15 -10.2 23.8849609375 -0.3875 33.35 -21.9 30.669921875 -26.3783203125 19.35 -25.5
M -13.85 -26.7
L -13.25 -26.9"/>

<path id="Duplicate_Items_Folder_body_suit_copy_0_Layer6_0_1_STROKES" stroke="#000000" stroke-width="1.5" stroke-linejoin="round" stroke-linecap="round" fill="none" d="
M -22.3 11.05
Q -22.9 12 -22.85 12.85 -22.75 13.75 -21.95 15.15 -21.1 16.45 -20.95 16.8 -20.75 17.25 -20.45 16.05 -20.15 14.85 -20.05 14.55
L -19.55 13.65
Q -17.95 13.65 -17.15 12.05
L -17.05 11.4
Q -16.4 11.7 -15.6 10.45 -14.5 11.45 -13.85 10.85
L -13.6 11.45
Q -12.4 12.5 -10.9 11.65
L -10.2 12.3
Q -10 12.5 -9.4 13.5 -8.85 14.6 -8.7 14 -8.6 13.55 -8.25 11.95 -7.85 10.25 -8.1 9.45 -8.25 8.6 -9.1 7.95
L -9.85 7.25 -7.95 6.25
Q -10.1 4.5 -11.85 6.25
L -12.2 6.75
Q -13.35 6.6 -15.8 7.95 -14 4.45 -16.2 2.9
L -15.9 2.2
Q -16.2 -0.45 -19.55 -1.15
L -18.9 1.35 -20.45 1.3
Q -21.95 1.1 -23.2 1.75 -24.25 2.3 -25.9 4.1 -27.4 5.95 -27.8 6.3 -28.35 6.9 -26.7 6.55 -24.95 6.2 -24.5 6.15
L -23.15 6.2
Q -22.85 7.9 -21 8.2 -20.7 8.2 -20.4 8.2
M -22.3 11.05
L -22.05 11.15 -22.3 11 -22.3 11.05 -26.05 10.35
Q -24.2 8 -21 8.2"/>

<path id="Duplicate_Items_Folder_body_suit_copy_0_Layer5_0_1_STROKES" stroke="#000000" stroke-width="1.5" stroke-linejoin="round" stroke-linecap="round" fill="none" d="
M 16.25 -22.25
L 17.2 -20.8
Q 18.3 -19.4 18.45 -18.2 18.6 -17.05 17.9 -15.25 17.2 -13.55 17.1 -13.05 16.9 -12.4 16.25 -14.05 15.5 -15.75 15.25 -16.15
L 14.45 -17.4
Q 12.35 -17.5 10.85 -19.8
L 10.45 -20.65
Q 9.25 -20.15 6.75 -24.65 9.4 -27 13.2 -24.55
L 13.65 -24.9 18.9 -22.1 16.25 -22.25 Z
M -10.5 -25.95
L -15.75 -22.15 -13.1 -22.05 -14.05 -19.95
Q -15.15 -17.95 -15.3 -16.05 -15.45 -14.2 -14.75 -11.35 -14.05 -8.55 -13.95 -7.85 -13.75 -6.8 -13.1 -9.3 -12.4 -11.9 -12.15 -12.45
L -11.3 -14.35
Q -9.2 -14.15 -7.7 -17.55
L -7.35 -18.9
Q -6.1 -17.95 -3.6 -24.7 -6.25 -28.6 -10.1 -25.25
L -10.5 -25.95 Z"/>

<path id="Duplicate_Items_Folder_body_suit_copy_0_Layer4_0_1_STROKES" stroke="#000000" stroke-width="1.5" stroke-linejoin="round" stroke-linecap="round" fill="none" d="
M 4.15 -25.45
L 3.65 -26.25 -2.75 -22.1 0.45 -21.95 -0.7 -19.6
Q -2.05 -17.35 -2.2 -15.25 -2.4 -13.3 -1.55 -10.1 -0.7 -7 -0.6 -6.2 -0.35 -5.05 0.45 -7.85 1.35 -10.7 1.65 -11.3
L 2.7 -13.35
Q 5.2 -13.15 7 -16.95
L 7.45 -18.4
Q 8.95 -17.35 11.95 -24.8 8.75 -29.2 4.15 -25.45 Z"/>

<path id="Duplicate_Items_Folder_body_suit_copy_0_Layer3_0_1_STROKES" stroke="#000000" stroke-width="1.5" stroke-linejoin="round" stroke-linecap="round" fill="none" d="
M 7.15 18.5
Q 10.5 18.35 13.95 18.05 17.1 17.75 20.3 17.45 22.1 17.25 24 17 27 19.85 24.15 23.05 2.9 25.9 -18.6 24.55 -22.5 24.35 -26.45 23.95 -30.3 20.75 -25.55 17.15 -12.85 18.85 0.75 18.7 3.95 18.65 7.15 18.5 Z"/>

<path id="Duplicate_Items_Folder_body_suit_copy_0_Layer3_0_2_STROKES" stroke="#9F6A1C" stroke-width="1.5" stroke-linejoin="round" stroke-linecap="round" fill="none" d="
M 7.15 18.5
L 7.4 17.95
M 4.2 24.4
L 7.15 18.5
M 13.95 18.05
L 12 23.65
M 20.3 17.45
L 18.8 22.95
M -24.55 23.45
L -19.75 18.5
M -3.7 19
L -7 24.7
M -12.8 24.2
L -7.95 19
M -18.6 24.55
L -14.3 19.3
M 0.75 18.7
L -1.15 24.05"/>

<path id="Duplicate_Items_Folder_body_suit_copy_0_Layer2_0_1_STROKES" stroke="#000000" stroke-width="1.5" stroke-linejoin="round" stroke-linecap="round" fill="none" d="
M 2.45 -22.25
Q 3.6 -20.85 3.7 -19.65 3.9 -18.5 3.2 -16.65 2.45 -14.95 2.4 -14.45 2.15 -13.85 1.5 -15.5 0.8 -17.2 0.55 -17.6
L -0.3 -18.85
Q -2.35 -18.9 -3.85 -21.2
L -4.25 -22.1
Q -5.45 -21.55 -7.95 -26.1 -5.35 -28.4 -1.5 -25.95
L -1.1 -26.35 4.2 -23.55 1.5 -23.7 2.45 -22.25 Z"/>

<path id="Duplicate_Items_Folder_body_suit_copy_0_Layer1_0_1_STROKES" stroke="#9F6A1C" stroke-width="1.5" stroke-linejoin="round" stroke-linecap="round" fill="none" d="
M 3.35 23.65
Q 7.05 25.45 10.6 22.85
M 9 29.95
L 3 30.4
M 5.05 26.55
L 3.6 26.7
M 7.2 33.4
L 1.05 34.1
M 0 36.7
L 6.2 37.1
M 12.8 38.15
L 6.65 37.35
M 13.65 41.1
L 8.05 41.15
M 7.75 33.8
L 12.3 35.2
M 8.85 30.4
L 11.2 31.05
M 10.05 26.6
L 11.4 27.05
M -1.4 39.25
L 4.05 40.45"/>

<path id="Duplicate_Items_Folder_body_suit_copy_0_Layer1_0_2_STROKES" stroke="#000000" stroke-width="1.5" stroke-linejoin="round" stroke-linecap="round" fill="none" d="
M 3.2 25.4
Q 3.15 25.35 3.1 25.3 3.25 24.4 3.35 23.65 3.4 22.9 3.35 22.15 7.5 16.85 11.9 21.75 11.85 22.15 11.85 22.65 11.95 22.7 12.1 22.75 11.9 31.9 13.65 41.1 13.85 41.85 14 42.55 11.5 46.15 7.65 44.35 6.85 40.95 6.3 37.55 5.1 40.5 3.75 43.4 -0.25 44.35 -1.95 40.6 -1.7 39.85 -1.4 39.25 1.6 32.4 3.2 25.4 4.1 26.1 5.05 26.55 7.4 27.5 10 26.65 10 26.6 10.05 26.6 10.75 26.35 11.55 25.95 11.7 24.25 11.85 22.65
M 6.3 37.55
Q 7.05 35.65 7.75 33.8 8.3 32.1 8.85 30.4 8.95 30.2 9 29.95 9.5 28.3 10 26.65"/>

<path id="Duplicate_Items_Folder_body_suit_copy_0_Layer0_0_1_STROKES" stroke="#000000" stroke-width="1" stroke-linejoin="round" stroke-linecap="round" fill="none" d="
M -20.3 -1.8
L -16.05 -2.7
M -23.3 -3.5
L -21 -4.5 -20.55 -4.8 -19.6 -5.1 -16.1 -6.65
M -18.35 16
L -13.1 15.35 -12.45 15.15 -6.95 14.5
M -17.35 2.45
L -13.8 0.25
M -15.55 9.95
L -15.05 9.75"/>

<path id="Duplicate_Items_Folder_head_copy_3_7_Layer11_0_1_STROKES" stroke="#000000" stroke-width="2" stroke-linejoin="round" stroke-linecap="round" fill="none" d="
M 28.65 -86.45
L -36.55 -90.3
Q -28.75 -112.5 -8.55 -129.2 -4.2 -134.3 1.5 -129.15 20.9 -107.5 28.65 -86.45 Z"/>

<path id="Duplicate_Items_Folder_head_copy_3_7_Layer10_0_1_STROKES" stroke="#000000" stroke-width="2" stroke-linejoin="round" stroke-linecap="round" fill="none" d="
M 48.9 -85.35
Q 41.6 -89.2 35.75 -91.2 29.9 -93.25 26.1 -93.5 20.45 -94.25 -12.95 -100 -28.65 -101.15 -34.15 -100.25 -39.65 -99.4 -46.75 -97.25 -53.9 -95.15 -66.35 -83.15 -72.6 -71.35 -78.35 -53.4 -84.1 -35.45 -82.7 -25.35 -83.15 -18 -74.05 -2.3 -64.95 13.4 -52.9 18.35 -40.9 23.25 -40.65 23.3 -26.05 25.2 8.7 23.25 40.7 21.4 47.85 18.4 50.95 16.75 56.55 13.8 62.05 10.85 64.15 6.75 66.2 2.6 66.95 -6.45 67 -6.95 67 -7.4 67.8 -21.55 67.1 -42.7 66.45 -62.75 63.6 -68.25 56.15 -81.55 48.9 -85.35 Z"/>

<path id="Duplicate_Items_Folder_head_copy_3_7_Layer9_0_1_STROKES" stroke="#000000" stroke-width="1.5" stroke-linejoin="round" stroke-linecap="round" fill="none" d="
M 37.6 -12.7
Q 38.8 -12.8 40.3 -12.75
L 40.05 -14.25 51.35 -14.9
M 37.6 -12.7
Q 37 -12.6 36.5 -12.45 34.95 -12.1 33.9 -11.5 30.55 -9.55 30.7 -4.5 32.15 -3.7 33.45 -3 36.45 -1.4 38.5 -0.65 42.65 0.95 43.15 -0.65
L 44.15 0.1 45.15 0.75
Q 51.5 3.75 54.5 1.2
L 58 2.75
Q 59 3.35 63.05 6.1 66.9 8.9 66.05 7.25 65.35 6.05 63.3 1.35 61.25 -3.5 58.9 -5.85 56.95 -8 53.8 -9.45 53.15 -9.7 52.55 -10
L 48.7 -11.8 52.7 -15 51.35 -14.9
M 53.8 -9.45
Q 55.75 -12.1 55.25 -14.65
L 59.35 -17.4
Q 60.7 -18.15 66.55 -20.95 72.35 -23.45 69.8 -23.5 68 -23.45 61.2 -24.05 54.35 -24.65 50.15 -23.5 45.6 -22.45 41.15 -18.95
L 36.6 -15.9 35.5 -22.1 28.05 -8.15 29.85 -7.5
Q 22.85 2.85 32.9 7.65 41.15 2.9 44.15 0.1
M -50.1 -24.85
Q -46.05 -25.3 -37.05 -28.5 -34.15 -39.25 -46.55 -40.7
L -45.9 -42.5 -61.35 -45.9 -57.35 -41.05 -62.65 -39.55
Q -68.2 -38.45 -71.95 -35.7 -75.6 -33.25 -79.6 -27.6 -83.6 -22.05 -84.8 -20.75 -86.4 -18.8 -80.75 -21.55 -74.8 -24.2 -73.35 -24.7
L -68.55 -26.05
Q -66.95 -24 -63.65 -23.75 -63.45 -24.4 -63.25 -25.05
L -62.15 -29.15 -67.2 -28.2 -66.2 -29.15
M -55.55 -38.2
Q -55.15 -38.55 -54.7 -38.85
M -52.25 -40.25
Q -48.6 -41.5 -44.85 -38.05 -45.2 -36.45 -45.5 -35
M -47 -29.6
Q -48.5 -25.45 -50.05 -26.1
L -50.1 -24.85 -50.3 -23.65
Q -52.1 -16.9 -56.05 -16.25
L -57.1 -12.6
Q -57.35 -11.45 -57.9 -6.55 -58.3 -1.8 -59 -3.55 -59.45 -4.85 -61.65 -9.45 -64.05 -14.2 -64.3 -17.5 -64.65 -20.4 -63.65 -23.75
M -54.7 -38.85
Q -53.45 -39.8 -52.25 -40.25
M -45.5 -35
Q -46.25 -31.7 -47 -29.6
M -66.2 -29.15
L -58.35 -37.3 -57.4 -36.2
Q -56.45 -37.35 -55.55 -38.2"/>

<path id="Duplicate_Items_Folder_head_copy_3_7_Layer8_0_1_STROKES" stroke="#000000" stroke-width="2" stroke-linejoin="round" stroke-linecap="round" fill="none" d="
M 32.6 23.05
Q 32.7 22.7 32.8 22.35 35.25 13.25 37.95 4.7 43.6 -13.45 43.7 -21.4 44.25 -32.7 41.45 -48.15 38.65 -63.85 34.85 -67.85 31 -71.85 17.05 -75.5 3 -79.2 -5.05 -79.9
M -5.8 -80.15
L -16.85 -79.85
Q -28.85 -78.85 -36.05 -75.4 -43.25 -72 -48.15 -56.6 -53.05 -41.25 -52.75 -31.75 -49.45 -7.1 -42.6 15.8
M 32.6 23.05
L 32.55 23.35
Q 32.5 23.4 32.5 23.45
L 27.05 47.95
Q -7.35 55.55 -33.65 43.15 -38.85 28.4 -42.6 15.8"/>

<path id="Duplicate_Items_Folder_head_copy_3_7_Layer8_0_2_STROKES" stroke="#B08646" stroke-width="2" stroke-linejoin="round" stroke-linecap="round" fill="none" d="
M 6 -23.4
Q 5.6 -23.65 5.25 -23.9
L -8.4 -24.6
Q -8.7 -24.45 -9 -24.25 -24.15 -15.75 -24.4 -8.05 -23.55 7.85 -14.5 22.75 -4.35 30.15 4.2 25.15 17.2 15.55 22.2 -5.1 17.6 -15.85 6 -23.4 Z"/>

<path id="Duplicate_Items_Folder_head_copy_3_7_Layer5_0_1_STROKES" stroke="#000000" stroke-width="2" stroke-linejoin="round" stroke-linecap="round" fill="none" d="
M 9.4 -45.15
Q 9.35 -45.3 9.4 -45.45 21.1 -58.65 32.25 -40.15 14.85 -25.4 9.4 -45.15 Z
M -12.55 -43.65
Q -12.5 -43.7 -12.5 -43.9 -21.6 -59.9 -35.75 -44.65 -21.3 -25.75 -12.55 -43.65 Z"/>

<path id="Duplicate_Items_Folder_head_copy_3_7_Layer4_0_1_STROKES" stroke="#B08646" stroke-width="2" stroke-linejoin="round" stroke-linecap="round" fill="none" d="
M 28.2 -30.85
L 34.4 -27
M 31.35 -33.75
L 36.7 -26.9
M 26.25 27.3
L 11.35 39.35
M 27.75 1.8
L 21.85 13.45
M -36.45 -40.85
L -43.5 -35.05
M -37.9 -44.05
L -47.3 -39.1
M -33.45 20.6
L -18.9 36.9
M -31.4 -6.85
L -23.65 15.7
M -5.55 -55.9
L 1.85 -55.5
M -13.6 -62.9
L 10.5 -60.85
M -18.9 37.3
Q -3.5 43.65 10.6 39.65"/>

<path id="Duplicate_Items_Folder_head_copy_3_7_Layer3_0_1_STROKES" stroke="#000000" stroke-width="2" stroke-linejoin="round" stroke-linecap="round" fill="none" d="
M -16.05 -5.65
Q -4.55 -1.85 -1.4 -2.05 10.6 0.5 12.65 10.2
L 12.1 9.9 11.65 12.25 11.6 12.6
M 10.05 15.9
Q 5.2 10.5 -1.9 8.95 -8.15 9.65 -17.55 -6.15 -16.8 -5.9 -16.05 -5.65
M -16.25 -5.25
Q -9.9 1.35 -2.15 2.1 8.8 3.35 10.05 15.9 12.25 8.5 11.65 12.25"/>

<path id="Duplicate_Items_Folder_head_copy_3_7_Layer1_0_1_STROKES" stroke="#000000" stroke-width="1" stroke-linejoin="round" stroke-linecap="round" fill="none" d="
M 17.6 -10.9
L 18 -10.1
M 21.3 -11.65
L 21.35 -12.4
M 18 -10.1
L 18.55 -8.75
M 21 -10
L 21.3 -11.65
M 25.4 -13.65
L 25.8 -14.05
M 18.55 -8.75
L 18.7 -8.25
M 15.15 -9.75
L 14.6 -8.55 13.7 -6.45
M 12.05 -5.2
L 11.75 -5.6 11.6 -5.85
M 27.9 -12.95
L 28.1 -13.7
M 34.45 -10.55
L 34.7 -11.4
M 26.8 -9.6
L 27.15 -10.9
M 29.1 -8.55
L 30.3 -9.6 32.65 -11.3
M 21 -9.55
L 21 -10
M 23.35 -11
L 23.75 -11.55
M 38.15 -8.75
L 35.95 -6.7
M 39.2 -4.6
L 39.9 -7.65
M 34.45 -10.55
L 33.7 -8.1
Q 33.75 -8.1 33.8 -8
M 35.95 -6.7
L 34.45 -5.4
M 38.6 -9.1
L 38.15 -8.75
M 39.9 -7.65
L 39.95 -8.1
M 38.9 -2.55
L 39.2 -4.6
M 23.75 -11.55
L 25.4 -13.65
M 27.15 -10.9
L 27.9 -12.95
M -19.15 28.55
L -19.3 29.3
M -21.15 30.8
L -21.5 30.35
M -25.95 33.35
L -25.95 34.4
M -24.35 26.9
L -23.2 28.3 -21.5 30.35
M -18.7 22.35
L -19 24.9
M -25.8 30.35
L -25.95 30.45 -25.95 33.35
M -30.95 32.05
L -30 32.95 -28.1 34.6
M -19 24.9
L -19.15 28.55"/>

<path id="Duplicate_Items_Folder_head_copy_3_7_Layer0_0_1_STROKES" stroke="#000000" stroke-width="1" stroke-linejoin="round" stroke-linecap="round" fill="none" d="
M -29.9 11.95
L -25.7 8.15
M -31.75 13.65
L -31 13.1
M -34.5 16.25
L -34 15.7 -31.75 13.65
M -29.5 18.45
L -30.2 18.75
M -31 13.1
L -29.9 11.95
M -23.3 16.1
L -28.15 18
M -36.85 18.25
L -35.75 17.35 -34.5 16.25
M -32.65 19.7
L -33.3 19.9 -34.6 20.45
M -31.95 26.1
L -30.9 25.15
M -34.6 20.45
L -36.25 21
M -28.15 18
L -29.5 18.45
M -27.85 22.7
L -26.65 21.7 -26.1 21.2
M -28.5 23.25
L -27.85 22.7
M -25.35 27.05
L -23.95 26.5
M -30.2 24.65
L -28.5 23.25
M -30.2 18.75
L -32.65 19.7
M -28.1 27.8
L -26.1 27.15
M -23.95 26.5
L -20.35 25.35
M -22.6 32.1
L -22 31.7
M -26.1 27.15
L -25.35 27.05
M -20.9 30.75
L -18.15 28.5
M -24.4 33.55
L -23.8 33.05
M -28.9 28.05
L -28.1 27.8
M -30.9 25.15
L -30.2 24.65
M -27.15 35.8
L -25.6 34.45
M -33.85 27.65
L -31.95 26.1
M -22 31.7
L -20.9 30.75
M -17.75 34.65
L -15.25 33.35
M -19.75 35.55
L -19.05 35.25 -17.75 34.65
M -24.3 37.8
L -22.85 37.05
M -25.6 34.45
L -24.4 33.55
M -21.5 36.4
L -20.85 36.15
M -23.8 33.05
L -22.6 32.1
M -22.85 37.05
L -21.5 36.4
M -30.4 28.5
L -28.9 28.05
M -20.85 36.15
L -19.75 35.55"/>
</defs>

<g transform="matrix( 5.50567626953125, 0, 0, 5.50567626953125, 51.55,533.6) ">
<g transform="matrix( 0.3326416015625, 0.02349853515625, -0.02349853515625, 0.3326416015625, 32.5,-8.4) ">
<g transform="matrix( 1, 0, 0, 1, 0,0) ">
<use xlink:href="#Duplicate_Items_Folder_leg_suit_copy_0_Layer4_0_FILL"/>

<use xlink:href="#Duplicate_Items_Folder_leg_suit_copy_0_Layer4_0_1_STROKES"/>
</g>

<g transform="matrix( 1, 0, 0, 1, 0,0) ">
<use xlink:href="#Duplicate_Items_Folder_leg_suit_copy_0_Layer3_0_FILL"/>

<use xlink:href="#Duplicate_Items_Folder_leg_suit_copy_0_Layer3_0_1_STROKES"/>
</g>

<g transform="matrix( 1, 0, 0, 1, 0,0) ">
<use xlink:href="#Duplicate_Items_Folder_leg_suit_copy_0_Layer2_0_FILL"/>

<use xlink:href="#Duplicate_Items_Folder_leg_suit_copy_0_Layer2_0_1_STROKES"/>
</g>

<g transform="matrix( 1, 0, 0, 1, 0,0) ">
<use xlink:href="#Duplicate_Items_Folder_leg_suit_copy_0_Layer1_0_FILL"/>

<use xlink:href="#Duplicate_Items_Folder_leg_suit_copy_0_Layer1_0_1_STROKES"/>
</g>

<g transform="matrix( 1, 0, 0, 1, 0,0) ">
<use xlink:href="#Duplicate_Items_Folder_leg_suit_copy_0_Layer0_0_FILL"/>

<use xlink:href="#Duplicate_Items_Folder_leg_suit_copy_0_Layer0_0_1_STROKES"/>
</g>
</g>

<g transform="matrix( -0.2983856201171875, 0.2538909912109375, 0.23248291015625, 0.27325439453125, 17.6,-36.2) ">
<g transform="matrix( 0.0620574951171875, 0.6162567138671875, -0.7274627685546875, 0.0732421875, 7.15,53) ">
<g transform="matrix( 1, 0, 0, 1, 0,0) ">
<use xlink:href="#hand_1_0_Layer3_0_FILL"/>

<use xlink:href="#hand_1_0_Layer3_0_1_STROKES"/>
</g>

<g transform="matrix( 1, 0, 0, 1, 0,0) ">
<use xlink:href="#hand_1_0_Layer2_0_FILL"/>
</g>

<g transform="matrix( 1, 0, 0, 1, 0,0) ">
<use xlink:href="#hand_1_0_Layer1_0_FILL"/>

<use xlink:href="#hand_1_0_Layer1_0_1_STROKES"/>
</g>

<g transform="matrix( 1, 0, 0, 1, 0,0) ">
<use xlink:href="#hand_1_0_Layer0_0_FILL"/>
</g>
</g>

<g transform="matrix( 1, 0, 0, 1, 0,0) ">
<use xlink:href="#Duplicate_Items_Folder_arm_knives_0_Layer0_0_FILL"/>
</g>
</g>

<g transform="matrix( 0.358154296875, -0.014923095703125, 0.0105133056640625, 0.357696533203125, 42.35,-30.85) ">
<g transform="matrix( 1, 0, 0, 1, 0,0) ">
<use xlink:href="#Duplicate_Items_Folder_body_suit_copy_0_Layer10_0_FILL"/>

<use xlink:href="#Duplicate_Items_Folder_body_suit_copy_0_Layer10_0_1_STROKES"/>
</g>

<g transform="matrix( 1, 0, 0, 1, 0,0) ">
<use xlink:href="#Duplicate_Items_Folder_body_suit_copy_0_Layer9_0_FILL"/>

<use xlink:href="#Duplicate_Items_Folder_body_suit_copy_0_Layer9_0_1_STROKES"/>
</g>

<g transform="matrix( 1, 0, 0, 1, 0,0) ">
<use xlink:href="#Duplicate_Items_Folder_body_suit_copy_0_Layer8_0_FILL"/>

<use xlink:href="#Duplicate_Items_Folder_body_suit_copy_0_Layer8_0_1_STROKES"/>
</g>

<g transform="matrix( 1, 0, 0, 1, 0,0) ">
<use xlink:href="#Duplicate_Items_Folder_body_suit_copy_0_Layer7_0_FILL"/>
</g>

<g transform="matrix( 1, 0, 0, 1, 0,0) ">
<use xlink:href="#Duplicate_Items_Folder_body_suit_copy_0_Layer6_0_FILL"/>

<use xlink:href="#Duplicate_Items_Folder_body_suit_copy_0_Layer6_0_1_STROKES"/>
</g>

<g transform="matrix( 1, 0, 0, 1, 0,0) ">
<use xlink:href="#Duplicate_Items_Folder_body_suit_copy_0_Layer5_0_FILL"/>

<use xlink:href="#Duplicate_Items_Folder_body_suit_copy_0_Layer5_0_1_STROKES"/>
</g>

<g transform="matrix( 1, 0, 0, 1, 0,0) ">
<use xlink:href="#Duplicate_Items_Folder_body_suit_copy_0_Layer4_0_FILL"/>

<use xlink:href="#Duplicate_Items_Folder_body_suit_copy_0_Layer4_0_1_STROKES"/>
</g>

<g transform="matrix( 1, 0, 0, 1, 0,0) ">
<use xlink:href="#Duplicate_Items_Folder_body_suit_copy_0_Layer3_0_FILL"/>

<use xlink:href="#Duplicate_Items_Folder_body_suit_copy_0_Layer3_0_1_STROKES"/>

<use xlink:href="#Duplicate_Items_Folder_body_suit_copy_0_Layer3_0_2_STROKES"/>
</g>

<g transform="matrix( 1, 0, 0, 1, 0,0) ">
<use xlink:href="#Duplicate_Items_Folder_body_suit_copy_0_Layer2_0_FILL"/>

<use xlink:href="#Duplicate_Items_Folder_body_suit_copy_0_Layer2_0_1_STROKES"/>
</g>

<g transform="matrix( 1, 0, 0, 1, 0,0) ">
<use xlink:href="#Duplicate_Items_Folder_body_suit_copy_0_Layer1_0_FILL"/>

<use xlink:href="#Duplicate_Items_Folder_body_suit_copy_0_Layer1_0_1_STROKES"/>

<use xlink:href="#Duplicate_Items_Folder_body_suit_copy_0_Layer1_0_2_STROKES"/>
</g>

<g transform="matrix( 1, 0, 0, 1, 0,0) ">
<use xlink:href="#Duplicate_Items_Folder_body_suit_copy_0_Layer0_0_1_STROKES"/>
</g>
</g>

<g transform="matrix( -0.357177734375, 0.023284912109375, 0.023284912109375, 0.357177734375, 51.75,-8.7) ">
<g transform="matrix( 1, 0, 0, 1, 0,0) ">
<use xlink:href="#Duplicate_Items_Folder_leg_suit_copy_0_Layer4_0_FILL"/>

<use xlink:href="#Duplicate_Items_Folder_leg_suit_copy_0_Layer4_0_1_STROKES"/>
</g>

<g transform="matrix( 1, 0, 0, 1, 0,0) ">
<use xlink:href="#Duplicate_Items_Folder_leg_suit_copy_0_Layer3_0_FILL"/>

<use xlink:href="#Duplicate_Items_Folder_leg_suit_copy_0_Layer3_0_1_STROKES"/>
</g>

<g transform="matrix( 1, 0, 0, 1, 0,0) ">
<use xlink:href="#Duplicate_Items_Folder_leg_suit_copy_0_Layer2_0_FILL"/>

<use xlink:href="#Duplicate_Items_Folder_leg_suit_copy_0_Layer2_0_1_STROKES"/>
</g>

<g transform="matrix( 1, 0, 0, 1, 0,0) ">
<use xlink:href="#Duplicate_Items_Folder_leg_suit_copy_0_Layer1_0_FILL"/>

<use xlink:href="#Duplicate_Items_Folder_leg_suit_copy_0_Layer1_0_1_STROKES"/>
</g>

<g transform="matrix( 1, 0, 0, 1, 0,0) ">
<use xlink:href="#Duplicate_Items_Folder_leg_suit_copy_0_Layer0_0_FILL"/>

<use xlink:href="#Duplicate_Items_Folder_leg_suit_copy_0_Layer0_0_1_STROKES"/>
</g>
</g>

<g transform="matrix( 0.2920379638671875, -0.0156402587890625, 0.004180908203125, 0.292205810546875, 43.4,-56.15) ">
<g transform="matrix( 1, 0, 0, 1, 0,0) ">
<use xlink:href="#Duplicate_Items_Folder_head_copy_3_7_Layer11_0_FILL"/>

<use xlink:href="#Duplicate_Items_Folder_head_copy_3_7_Layer11_0_1_STROKES"/>
</g>

<g transform="matrix( 1, 0, 0, 1, 0,0) ">
<use xlink:href="#Duplicate_Items_Folder_head_copy_3_7_Layer10_0_FILL"/>

<use xlink:href="#Duplicate_Items_Folder_head_copy_3_7_Layer10_0_1_STROKES"/>
</g>

<g transform="matrix( 1, 0, 0, 1, 0,0) ">
<use xlink:href="#Duplicate_Items_Folder_head_copy_3_7_Layer9_0_FILL"/>

<use xlink:href="#Duplicate_Items_Folder_head_copy_3_7_Layer9_0_1_STROKES"/>
</g>

<g transform="matrix( 1, 0, 0, 1, 0,0) ">
<use xlink:href="#Duplicate_Items_Folder_head_copy_3_7_Layer8_0_FILL"/>

<use xlink:href="#Duplicate_Items_Folder_head_copy_3_7_Layer8_0_1_STROKES"/>

<use xlink:href="#Duplicate_Items_Folder_head_copy_3_7_Layer8_0_2_STROKES"/>
</g>

<g transform="matrix( 1, 0, 0, 1, 0,0) ">
<use xlink:href="#Duplicate_Items_Folder_head_copy_3_7_Layer7_0_FILL"/>
</g>

<g transform="matrix( 1, 0, 0, 1, 0,0) ">
<use xlink:href="#Duplicate_Items_Folder_head_copy_3_7_Layer6_0_FILL"/>
</g>

<g transform="matrix( 1, 0, 0, 1, 0,0) ">
<use xlink:href="#Duplicate_Items_Folder_head_copy_3_7_Layer5_0_FILL"/>

<use xlink:href="#Duplicate_Items_Folder_head_copy_3_7_Layer5_0_1_STROKES"/>
</g>

<g transform="matrix( 1, 0, 0, 1, 0,0) ">
<use xlink:href="#Duplicate_Items_Folder_head_copy_3_7_Layer4_0_1_STROKES"/>
</g>

<g transform="matrix( 1, 0, 0, 1, 0,0) ">
<use xlink:href="#Duplicate_Items_Folder_head_copy_3_7_Layer3_0_FILL"/>

<use xlink:href="#Duplicate_Items_Folder_head_copy_3_7_Layer3_0_1_STROKES"/>
</g>

<g transform="matrix( 1, 0, 0, 1, 0,0) ">
<use xlink:href="#Duplicate_Items_Folder_head_copy_3_7_Layer2_0_FILL"/>
</g>

<g transform="matrix( 1, 0, 0, 1, 0,0) ">
<use xlink:href="#Duplicate_Items_Folder_head_copy_3_7_Layer1_0_FILL"/>

<use xlink:href="#Duplicate_Items_Folder_head_copy_3_7_Layer1_0_1_STROKES"/>
</g>

<g transform="matrix( 1, 0, 0, 1, 0,0) ">
<use xlink:href="#Duplicate_Items_Folder_head_copy_3_7_Layer0_0_FILL"/>

<use xlink:href="#Duplicate_Items_Folder_head_copy_3_7_Layer0_0_1_STROKES"/>
</g>
</g>

<g transform="matrix( -0.234588623046875, 0.2459716796875, 0.2459716796875, 0.234588623046875, 69.5,-37.3) ">
<g transform="matrix( 0.641448974609375, 0.16943359375, 0.20001220703125, -0.7572021484375, 58.95,8.05) ">
<g transform="matrix( 1, 0, 0, 1, 0,0) ">
<use xlink:href="#hand_1_0_Layer3_0_FILL"/>

<use xlink:href="#hand_1_0_Layer3_0_1_STROKES"/>
</g>

<g transform="matrix( 1, 0, 0, 1, 0,0) ">
<use xlink:href="#hand_1_0_Layer2_0_FILL"/>
</g>

<g transform="matrix( 1, 0, 0, 1, 0,0) ">
<use xlink:href="#hand_1_0_Layer1_0_FILL"/>

<use xlink:href="#hand_1_0_Layer1_0_1_STROKES"/>
</g>

<g transform="matrix( 1, 0, 0, 1, 0,0) ">
<use xlink:href="#hand_1_0_Layer0_0_FILL"/>
</g>
</g>

<g transform="matrix( 1, 0, 0, 1, 0,0) ">
<use xlink:href="#Duplicate_Items_Folder_arm_suit_copy_0_Layer0_0_FILL"/>
</g>
</g>
</g>
</svg>
