
<svg xmlns="http://www.w3.org/2000/svg" version="1.1" xmlns:xlink="http://www.w3.org/1999/xlink" preserveAspectRatio="none" x="0px" y="0px" width="560px" height="544px" viewBox="0 0 560 544">
<defs>
<radialGradient id="Gradient_1" gradientUnits="userSpaceOnUse" cx="0" cy="0" r="23.450333153283772" fx="0" fy="0" gradientTransform="matrix( 0.8848488362347364, -0.4658782426922648, 0.3320848343218318, 0.9248269463055829, 35.5,14.8) " spreadMethod="pad">
<stop  offset="16.470588235294116%" stop-color="#FCFDF9"/>

<stop  offset="100%" stop-color="#CC0000"/>
</radialGradient>

<radialGradient id="Gradient_2" gradientUnits="userSpaceOnUse" cx="0" cy="0" r="6.600000000000001" fx="0" fy="0" gradientTransform="matrix( 0.9999999999999998, 0, 0, 0.9734848484848483, -38.9,-4.5) " spreadMethod="pad">
<stop  offset="0%" stop-color="#FFFFFF"/>

<stop  offset="100%" stop-color="#336699"/>
</radialGradient>

<radialGradient id="Gradient_3" gradientUnits="userSpaceOnUse" cx="0" cy="0" r="8.325000000000003" fx="0" fy="0" gradientTransform="matrix( 0.9999999999999997, 0, 0, 0.9759759759759757, -39.2,-1.6) " spreadMethod="pad">
<stop  offset="0%" stop-color="#FFFFFF"/>

<stop  offset="100%" stop-color="#336699"/>
</radialGradient>

<radialGradient id="Gradient_4" gradientUnits="userSpaceOnUse" cx="0" cy="0" r="7.825000000000003" fx="0" fy="0" gradientTransform="matrix( 0.9999999999999997, 0, 0, 0.9744408945686898, -47.3,-49.5) " spreadMethod="pad">
<stop  offset="0%" stop-color="#FFFFFF"/>

<stop  offset="100%" stop-color="#336699"/>
</radialGradient>

<radialGradient id="Gradient_5" gradientUnits="userSpaceOnUse" cx="0" cy="0" r="7.037500000000001" fx="0" fy="0" gradientTransform="matrix( 0.9999999999999998, 0, 0, 0.9751332149200709, -22.85,-79.45) " spreadMethod="pad">
<stop  offset="0%" stop-color="#FFFFFF"/>

<stop  offset="100%" stop-color="#336699"/>
</radialGradient>

<radialGradient id="Gradient_6" gradientUnits="userSpaceOnUse" cx="0" cy="0" r="6.6000000000000005" fx="0" fy="0" gradientTransform="matrix( 1, 0, 0, 0.9734848484848485, -3.6,21.1) " spreadMethod="pad">
<stop  offset="0%" stop-color="#FFFFFF"/>

<stop  offset="100%" stop-color="#336699"/>
</radialGradient>

<radialGradient id="Gradient_7" gradientUnits="userSpaceOnUse" cx="0" cy="0" r="8.625" fx="0" fy="0" gradientTransform="matrix( 1, 0, 0, 0.9739130434782609, 40.9,17.65) " spreadMethod="pad">
<stop  offset="0%" stop-color="#FFFFFF"/>

<stop  offset="100%" stop-color="#336699"/>
</radialGradient>

<radialGradient id="Gradient_8" gradientUnits="userSpaceOnUse" cx="0" cy="0" r="8.037499999999994" fx="0" fy="0" gradientTransform="matrix( 1.0000000000000007, 0, 0, 0.9751166407465015, 67.1,-18.7) " spreadMethod="pad">
<stop  offset="0%" stop-color="#FFFFFF"/>

<stop  offset="100%" stop-color="#336699"/>
</radialGradient>

<radialGradient id="Gradient_9" gradientUnits="userSpaceOnUse" cx="0" cy="0" r="7.100000000000001" fx="0" fy="0" gradientTransform="matrix( 0.9999999999999999, 0, 0, 0.9753521126760563, 21.35,-84.65) " spreadMethod="pad">
<stop  offset="0%" stop-color="#FFFFFF"/>

<stop  offset="100%" stop-color="#336699"/>
</radialGradient>

<radialGradient id="Gradient_10" gradientUnits="userSpaceOnUse" cx="0" cy="0" r="7.825000000000003" fx="0" fy="0" gradientTransform="matrix( 0.9999999999999997, 0, 0, 0.9744408945686898, 54.3,-60.7) " spreadMethod="pad">
<stop  offset="0%" stop-color="#FFFFFF"/>

<stop  offset="100%" stop-color="#336699"/>
</radialGradient>

<filter id="Filter_1" x="-20%" y="-20%" width="140%" height="140%" color-interpolation-filters="sRGB">
<feColorMatrix in="SourceGraphic" type="matrix" values="1 0 0 0 0 0 1 0 0 0 0 0 1 0 0 0 0 0 0.59 0" result="result1"/>
</filter>

<g id="Duplicate_Items_Folder_bone_copy_2_0_Layer0_0_FILL">
<path fill="#000000" stroke="none" d="
M -0.85 -6.65
Q -1.05 -7.6 -1.95 -7.85 -2.75 -8.05 -3.7 -7.75 -4.6 -7.3 -5 -6.55 -5.5 -5.7 -5.25 -5.05 -6 -5.25 -6.65 -5.1 -7.55 -4.85 -8 -4.1 -8.35 -3.3 -7.9 -2.4 -7.55 -1.6 -6.55 -1.05 -5.6 -0.6 -4.65 -0.8 -4.1 -0.95 -3.8 -1.2
L -0.9 1.2 1.5 3.75
Q 1.25 4.1 1.15 4.6 1 5.65 1.55 6.55 2.1 7.4 2.95 7.75 3.9 8.15 4.65 7.7 5.35 7.3 5.6 6.35 5.65 5.65 5.45 5.05 6.1 5.15 6.9 4.65 7.6 4.15 8 3.25 8.3 2.3 8 1.45 7.6 0.6 6.8 0.45 5.85 0.25 4.6 0.6
L -0.9 -4.5
Q -0.6 -5.75 -0.85 -6.65
M -3.6 -6.55
Q -3.05 -6.6 -2.5 -6.35 -1.85 -6.1 -1.7 -5.45 -1.55 -5 -1.7 -4.35
L 3.45 0.55 3.45 0.5 4.5 1.45
Q 5.05 1.3 5.6 1.35 5.6970703125 1.3984375 5.75 1.4
L 5.8 1.45
Q 5.85 1.45 5.9 1.45 6.3 1.65 6.6 2.1 6.85 2.65 6.8 3.25 6.65 3.85 6.05 4.2 5.65 4.45 5.15 4.2
L 4.95 4.15
Q 4.8 4.1 4.7 4 4.7 3.95 4.65 3.95 5.1 5.15 5.05 5.7 5.1 5.8 5.05 5.9
L 5 5.9
Q 4.9 6.45 4.4 6.7 3.9 7.05 3.2 6.7 2.6 6.35 2.3 5.75 2 5 2.05 4.45 2.15 3.95 2.5 3.3
L -3.45 -2.2
Q -4 -1.85 -4.55 -1.75 -5.05 -1.55 -5.8 -1.85 -6.5 -2.1 -6.85 -2.75 -7.25 -3.35 -6.95 -3.9 -6.7 -4.45 -6.15 -4.6 -6.1 -4.65 -6 -4.6 -5.45 -4.65 -4.1 -4.25 -4.85 -5.05 -4.55 -5.7 -4.2 -6.3 -3.6 -6.55 Z"/>

<path fill="#E8E6CE" stroke="none" d="
M 2.65 4.1
Q 2.8 3.9 3.05 3.8 2.8 3.85 2.6 4.05 2.509375 4.2314453125 2.5 4.4 2.5140625 4.2359375 2.65 4.1
M 5.75 1.4
Q 5.6970703125 1.3984375 5.6 1.35 5.05 1.3 4.5 1.45
L 4.55 1.5
Q 5.1 1.3 5.6 1.4 5.696875 1.4 5.75 1.4
M -2.5 -6.35
Q -3.05 -6.6 -3.6 -6.55 -4.2 -6.3 -4.55 -5.7 -4.85 -5.05 -4.1 -4.25 -5.45 -4.65 -6 -4.6 -6.1 -4.65 -6.15 -4.6
L -6.1 -4.5
Q -6.2 -4.55 -6.4 -4.35 -6.55 -4.2 -6.55 -3.6 -6.55 -2.95 -5.95 -2.6 -5.45 -2.25 -5 -2.2 -4.45 -2 -4.2 -2.3 -3.95 -2.55 -3.85 -3
L 2.55 2.85 1.75 2 1.65 0.55 3.45 1.7 3.45 0.55 -1.7 -4.35
Q -1.55 -5 -1.7 -5.45 -1.85 -6.1 -2.5 -6.35 Z"/>

<path fill="#990000" stroke="none" d="
M 5.75 1.4
Q 5.696875 1.4 5.6 1.4 5.1 1.3 4.55 1.5
L 4.5 1.45 3.45 0.5 3.45 0.55 3.45 1.7 1.65 0.55 1.75 2 2.55 2.85 3.35 3.7
Q 3.2 3.7 3.1 3.75
L 3.05 3.8
Q 2.8 3.9 2.65 4.1 2.5140625 4.2359375 2.5 4.4
L 2.5 4.5 2.45 4.55 2.45 4.6
Q 2.45 4.7 2.5 4.9 2.6 5.45 2.95 5.8 3.3 6.2 3.55 6.3 3.8 6.35 4.05 6.35 4.65 6.35 4.85 6.15 4.99765625 5.953125 5 5.85
L 5 5.9 5.05 5.9
Q 5.1 5.8 5.05 5.7 5.1 5.15 4.65 3.95 4.7 3.95 4.7 4 4.8 4.1 4.95 4.15
L 5.15 4.2
Q 5.65 4.45 6.05 4.2 6.65 3.85 6.8 3.25 6.85 2.65 6.6 2.1 6.3 1.65 5.9 1.45 5.85 1.45 5.8 1.45
L 5.75 1.4 Z"/>

<path fill="#CFCDAF" stroke="none" d="
M -6.1 -4.5
L -6.15 -4.6
Q -6.7 -4.45 -6.95 -3.9 -7.25 -3.35 -6.85 -2.75 -6.5 -2.1 -5.8 -1.85 -5.05 -1.55 -4.55 -1.75 -4 -1.85 -3.45 -2.2
L 2.5 3.3
Q 2.15 3.95 2.05 4.45 2 5 2.3 5.75 2.6 6.35 3.2 6.7 3.9 7.05 4.4 6.7 4.9 6.45 5 5.9
L 5 5.85
Q 4.99765625 5.953125 4.85 6.15 4.65 6.35 4.05 6.35 3.8 6.35 3.55 6.3 3.3 6.2 2.95 5.8 2.6 5.45 2.5 4.9 2.45 4.7 2.45 4.6
L 2.45 4.55 2.5 4.5 2.5 4.4
Q 2.509375 4.2314453125 2.6 4.05 2.8 3.85 3.05 3.8
L 3.1 3.75
Q 3.2 3.7 3.35 3.7
L 2.55 2.85 -3.85 -3
Q -3.95 -2.55 -4.2 -2.3 -4.45 -2 -5 -2.2 -5.45 -2.25 -5.95 -2.6 -6.55 -2.95 -6.55 -3.6 -6.55 -4.2 -6.4 -4.35 -6.2 -4.55 -6.1 -4.5 Z"/>
</g>

<g id="Duplicate_Items_Folder_leg_suit_copy_8_0_Layer1_0_FILL">
<path fill="#B3B4A0" stroke="none" d="
M 1.25 11.05
L 1.3 11.05 6.2 -3.5 -9.95 -4.75 -10.3 12.55
Q -10.05 11.95 -9.65 11.45 -8.5 10.3 -7.1 10.35 -6.55 10.4 -6.15 10.55 -6 10.35 -5.8 10.1 -4.6 8.65 -3 8.8 -1.4 8.95 -0.2 10.55 -0.1 10.75 0.1 11 0.45 10.9 0.8 10.95 1 11 1.25 11.05 Z"/>

<path fill="#FF6699" stroke="none" d="
M 2.7 12.15
Q 2.1 11.3 1.3 11.05
L 1.25 11.05
Q 1 11 0.8 10.95 0.45 10.9 0.1 11 -0.1 10.75 -0.2 10.55 -1.4 8.95 -3 8.8 -4.6 8.65 -5.8 10.1 -6 10.35 -6.15 10.55 -6.55 10.4 -7.1 10.35 -8.5 10.3 -9.65 11.45 -10.05 11.95 -10.3 12.55 -12.2 13.6 -12.4 14.95 -12.55 16.35 -10.65 17.55 -8.75 18.65 -7.3 18.8 -6.2 18.9 -5.35 18.2 -4.4 19.25 -3.15 19.25 -1.6 19.4 -0.45 18.05 0.05 18.3 0.6 18.35 1.1 18.35 1.6 18.25 1.75 18.85 2.1 19.3 2.95 20.35 4.2 20.5 5.45 20.6 6.35 19.65 6.75 19.2 6.95 18.7 7 18.65 7.05 18.65 8.1 18.75 8.75 17.9 9.55 17 9.6 15.85 9.55 14.65 8.9 13.65 8.25 12.75 7.45 12.6 7.35 12.6 7.25 12.55 6.3 12.55 5.45 13.35 5.4 13.55 5.4 13.65 4.95 13.45 4.35 13.4 3.85 13.35 3.4 13.55 3.15 12.8 2.7 12.15 Z"/>

<path fill="#919474" stroke="none" d="
M 7.75 -3.45
L 6.2 -3.5 1.3 11.05
Q 2.1 11.3 2.7 12.15 3.15 12.8 3.4 13.55 3.85 13.35 4.35 13.4 4.95 13.45 5.4 13.65 5.4 13.55 5.45 13.35 6.3 12.55 7.25 12.55 7.35 12.6 7.45 12.6
L 7.75 -3.45 Z"/>
</g>

<g id="Duplicate_Items_Folder_leg_suit_copy_8_0_Layer0_0_FILL">
<path fill="#000000" stroke="none" d="
M 10.7 -31.15
L 3.25 -32.85
Q 2.05 -32.15 0.05 -31.05 -8.1 -26.7 -10.45 -17 -12.9 -7.35 -12.75 -5.75 -12.65 -4.2 -14.15 1.7
L -5.55 3.6 1.95 2.25 10.6 6.15
Q 12.65 4 12.75 1.75 12.75 -0.55 13.65 -3.55 14.45 -6.45 16.5 -15.4 18.55 -24.3 10.7 -31.15
M 10.05 -27.4
L 10.05 -27.3 12.5 -24.5 13.65 -22.6
Q 14.05 -14.35 13.45 -11.15 12.65 -7.15 10.85 -2.5 10.6 -1.9 10.35 -1.25 9.6 0.25 8.95 1.95
L 4.15 -0.4 2.55 -1.25 -4.85 0.1 -9.5 -0.8 -8.7 -4.95 -8.25 -11.55
Q -8.198046875 -12.1205078125 -8.05 -12.95 -7.492578125 -15.2150390625 -5.9 -19.4 -3.85 -25.05 -2.2 -26.4 -0.65 -27.8 1.4 -28.65 4.9 -29.6 6.7 -29.2 7.3 -29 7.65 -28.75
L 10.05 -27.4 Z"/>

<path fill="#172F46" stroke="none" d="
M 10.85 -2.5
Q 12.65 -7.15 13.45 -11.15 14.05 -14.35 13.65 -22.6
L 7.05 -3.4 10.85 -2.5 Z"/>

<path fill="#980101" stroke="none" d="
M 7.05 -3.4
L 4.15 -0.4 8.95 1.95
Q 9.6 0.25 10.35 -1.25 10.6 -1.9 10.85 -2.5
L 7.05 -3.4 Z"/>

<path fill="#CC0000" stroke="none" d="
M 7.05 -3.4
L 5.5 -11.55 -2.85 -3.7 -8.05 -12.95
Q -8.198046875 -12.1205078125 -8.25 -11.55
L -8.7 -4.95 -9.5 -0.8 -4.85 0.1 2.55 -1.25 4.15 -0.4 7.05 -3.4 Z"/>

<path fill="#336699" stroke="none" d="
M 10.05 -27.3
L 10.05 -27.4 7.65 -28.75
Q 7.3 -29 6.7 -29.2 4.9 -29.6 1.4 -28.65 -0.65 -27.8 -2.2 -26.4 -3.85 -25.05 -5.9 -19.4 -7.492578125 -15.2150390625 -8.05 -12.95
L -2.85 -3.7 5.5 -11.55 7.05 -3.4 13.65 -22.6 12.5 -24.5 10.05 -27.3 Z"/>
</g>

<g id="Duplicate_Items_Folder_arm_chainsaw_copy_0_Layer1_0_FILL">
<path fill="#919474" stroke="none" d="
M 1 20.15
L 0.95 20.15 1.3 20.2 1 20.15
M -33.75 24.65
L -33.25 24.55 -33.8 24.55 -33.75 24.65
M -26.2 17.6
Q -23.5 17.35 -21.55 17.15
L -21.4 17.1
Q -23.6 17.35 -26.2 17.5
L -26.2 17.6 Z"/>

<path fill="#000000" stroke="none" d="
M -0.45 -3.65
Q -1.8013671875 -2.877734375 -4.1 -2.1 -5.9888671875 -1.42265625 -8.5 -0.75
L -8.3 -0.85 -16 1.35
Q -17.55 1.75 -19.1 2.2 -32.75 6 -38.7 7.8 -40.3 8.25 -41.35 8.6 -41.4 8.6 -41.45 8.65 -50.05 20.05 -36.3 26.45 -34.95 26.2 -33.4 25.9 -21.95 23.85 -2.1 20.45
L -0.15 20.45
Q -0.3 20.4 0.95 20.15
L 1 20.15
Q 1.45 20 1.95 19.9 2.8 19.55 6.6 18.95 9.9 18.5 10.2 18.2 11.05 17.35 12.65 18 13.75 18.45 16.45 20.3 19 21.55 21 20.05 23 18.3 23.45 16.5 23.75 14.65 24 13.45 24.1 8.7 21.45 6.8
L 18.65 4.7
Q 20 3.2 22.15 3.8
L 24.6 6.9
Q 27.5 9.55 29.2 9.85 30.9 10.15 31.75 10.45 32.65 10.65 34.2 9.75 35.75 8.9 37.45 7.35 39.1 5.8 38.3 2.8
L 31.1 -11.5
Q 28.45 -13.8 23.35 -16.2 22.8 -16.05 18.3 -15.3
L 14.3 -14.3
Q 10.4 -11.95 -0.45 -3.65
M -4.15 0.6
Q 0.0076171875 5.6978515625 -1.45 15.45
L -4.85 18.95 -33.85 24.4
Q -38 24.05 -39.25 20.6 -42.15 15.2 -37.95 10.35
L -18.35 5.55 -9.55 2.55
Q -8.6 2.1 -7.55 1.7 -6.65 1.3 -4.4 0.65 -4.2705078125 0.6212890625 -4.15 0.6
M -33.25 24.55
L -33.75 24.65 -33.8 24.55 -33.25 24.55 Z"/>

<path fill="#132639" stroke="none" d="
M -4.85 18.95
L -1.45 15.45
Q -16.64609375 17.987109375 -24.2 18.8 -28.4119140625 21.9650390625 -39.25 20.6 -38 24.05 -33.85 24.4
L -4.85 18.95 Z"/>

<path fill="#336699" stroke="none" d="
M -1.45 15.45
Q 0.0076171875 5.6978515625 -4.15 0.6 -4.2705078125 0.6212890625 -4.4 0.65 -6.65 1.3 -7.55 1.7 -8.6 2.1 -9.55 2.55
L -18.35 5.55 -37.95 10.35
Q -42.15 15.2 -39.25 20.6 -28.4119140625 21.9650390625 -24.2 18.8 -16.64609375 17.987109375 -1.45 15.45
M -21.55 17.15
Q -23.5 17.35 -26.2 17.6
L -26.2 17.5
Q -23.6 17.35 -21.4 17.1
L -21.55 17.15 Z"/>
</g>

<g id="Duplicate_Items_Folder_arm_chainsaw_copy_0_Layer0_0_FILL">
<path fill="#000000" stroke="none" d="
M -19.7 4.35
L -20 4.6 -20.05 4.7
Q -20.25 4.95 -20 5 -20 5.15 -19.8 5.15 -19.45 5.2 -19.35 5.15 -19.2 5.05 -19.2 4.95 -19.1 4.75 -19.1 4.5 -19.25 4.45 -19.4 4.4 -19.6 4.35 -19.7 4.35
M -22.4 7.7
Q -22.35 7.55 -22.45 7.4 -22.55 7.2 -22.8 7.2 -23.1 7 -23.2 7.2 -23.5 7.2 -23.45 7.3 -23.5 7.5 -23.45 7.75 -23.35 7.9 -23.2 7.9 -22.95 8 -22.6 8 -22.45 7.95 -22.4 7.7
M -19.25 9.7
Q -19.45 9.65 -19.65 9.5 -19.85 9.55 -20 9.55 -20.2 9.7 -20.3 9.8 -20.45 9.95 -20.3 10.25 -20.15 10.3 -20.05 10.3 -19.75 10.5 -19.5 10.35 -19.4 10.3 -19.45 10.1 -19.3 9.95 -19.25 9.7
M -20.2 7.65
Q -20 7.7 -19.8 7.6 -19.65 7.5 -19.5 7.35 -19.6 7.2 -19.6 6.85 -19.75 6.85 -20.05 6.9 -20.3 6.8 -20.4 6.85 -20.6 7 -20.6 7.1 -20.7 7.15 -20.65 7.4 -20.4 7.45 -20.2 7.65
M -17.7 8.75
Q -17.65 8.95 -17.5 9.05 -17.3 9.15 -16.95 9 -16.65 8.9 -16.7 8.75 -16.65 8.4 -16.7 8.4 -16.8 8.1 -17.1 8.15 -17.3 7.95 -17.55 8.15 -17.7 8.2 -17.9 8.45
L -17.85 8.5 -17.7 8.75
M -12.2 4.8
L -15 6.1
Q -15.05 6.2 -15.15 6.55
L -15.2 6.6 -15.15 6.7
Q -15.25 6.8 -15.4 7
L -13.7 9.9 -17.25 9.9
Q -17.35 10 -17.5 10.1
L -17.7 10.25 -18.9 12.55 -20.5 10.3
Q -20.6 10.1 -20.9 9.95 -21 9.95 -21.15 9.95 -21.3 10 -21.45 9.9
L -24.75 11.7 -23.25 8.6 -23.35 8.45
Q -23.3 8.15 -23.45 8.15
L -24.55 7.3 -25.6 8 -24.8 8.65 -26.6 12.5
Q -25.7 13.4 -23.85 12.75
L -21.3 11.1 -21.25 12.3
Q -19.2 14 -19.05 14.05 -18.7 14.15 -18.55 14.15 -18.25 14.05 -18.05 13.85
L -16.65 10.9 -12.65 10.85
Q -12.55 10.7 -12.5 10.65 -12.3 10.5 -12.2 10.3 -12.1 10.15 -12.15 10.1
L -13.9 6.9 -10.7 4.2
Q -11.15 4.55 -17.45 3.85
L -18.25 3.5 -19.25 4.1 -17.25 5.15 -12.2 4.8 Z"/>

<path fill="#CC0000" stroke="none" d="
M -15 6.1
L -12.2 4.8 -17.25 5.15 -19.25 4.1 -19.7 4.35
Q -19.6 4.35 -19.4 4.4 -19.25 4.45 -19.1 4.5 -19.1 4.75 -19.2 4.95 -19.2 5.05 -19.35 5.15 -19.45 5.2 -19.8 5.15 -20 5.15 -20 5 -20.25 4.95 -20.05 4.7
L -20 4.6 -24.55 7.3 -23.45 8.15
Q -23.3 8.15 -23.35 8.45
L -23.25 8.6 -24.75 11.7 -21.45 9.9
Q -21.3 10 -21.15 9.95 -21 9.95 -20.9 9.95 -20.6 10.1 -20.5 10.3
L -18.9 12.55 -17.7 10.25 -17.5 10.1
Q -17.35 10 -17.25 9.9
L -13.7 9.9 -15.4 7
Q -15.25 6.8 -15.15 6.7
L -15.2 6.6 -15.15 6.55
Q -15.05 6.2 -15 6.1
M -17.5 9.05
Q -17.65 8.95 -17.7 8.75
L -17.85 8.5 -17.9 8.45
Q -17.7 8.2 -17.55 8.15 -17.3 7.95 -17.1 8.15 -16.8 8.1 -16.7 8.4 -16.65 8.4 -16.7 8.75 -16.65 8.9 -16.95 9 -17.3 9.15 -17.5 9.05
M -19.8 7.6
Q -20 7.7 -20.2 7.65 -20.4 7.45 -20.65 7.4 -20.7 7.15 -20.6 7.1 -20.6 7 -20.4 6.85 -20.3 6.8 -20.05 6.9 -19.75 6.85 -19.6 6.85 -19.6 7.2 -19.5 7.35 -19.65 7.5 -19.8 7.6
M -19.65 9.5
Q -19.45 9.65 -19.25 9.7 -19.3 9.95 -19.45 10.1 -19.4 10.3 -19.5 10.35 -19.75 10.5 -20.05 10.3 -20.15 10.3 -20.3 10.25 -20.45 9.95 -20.3 9.8 -20.2 9.7 -20 9.55 -19.85 9.55 -19.65 9.5
M -22.45 7.4
Q -22.35 7.55 -22.4 7.7 -22.45 7.95 -22.6 8 -22.95 8 -23.2 7.9 -23.35 7.9 -23.45 7.75 -23.5 7.5 -23.45 7.3 -23.5 7.2 -23.2 7.2 -23.1 7 -22.8 7.2 -22.55 7.2 -22.45 7.4 Z"/>
</g>

<g id="Duplicate_Items_Folder_leg_suit_copy_9_0_Layer1_0_FILL">
<path fill="#204060" stroke="none" d="
M 14.75 -1
Q 15.4 -4.7 15.4 -6.3 15.5 -10.1 15.55 -13.15 15.55 -15.95 15.55 -18.15 15.5 -21.25 15.35 -23.5 15.25 -25.5 13.7 -28.05 13.85 -25.8 13.9 -23.5 14.2 -7.8 6.8 22.7 13.75 10.5 14.5 11.15 14.1 9 13.75 8 13.25 6.55 14.25 1.7 14.5 0.25 14.75 -1 Z"/>

<path fill="#000000" stroke="none" d="
M 1.65 -27.15
Q 1.85 -27.5 4.2 -29.3
L -0.3 -27.8
Q -2.9 -22.9 -5.95 -14.35 -10.8 -0.6 -12.55 8.5 -14.15 16.9 -16.55 22.9 -14.8 25.5 -11.15 27.5 -9.7 28.25 -8 28.95 -3.05 30.85 1.05 30.85 3.4 30.85 9 29.15 8.8 29.5 11.8 28.25 19 25.25 18.3 21.9 17.7 19.7 17.05 14.7 16.45 10.6 15.8 8.95 15.2 7.35 16.4 1.95 17.85 -4.55 17.85 -6.95 18.05 -15 18 -20.15 17.95 -24.8 17.65 -27.8
L 12.7 -29.9 12.4 -30.05
Q 13.1 -29.1 13.65 -28.2 13.65 -28.15 13.7 -28.05 15.25 -25.5 15.35 -23.5 15.5 -21.25 15.55 -18.15 15.55 -15.95 15.55 -13.15 15.5 -10.1 15.4 -6.3 15.4 -4.7 14.75 -1 14.5 0.25 14.25 1.7 13.25 6.55 13.75 8 14.1 9 14.5 11.15 13.75 10.5 6.8 22.7 -1 18.5 -4.4 19.4 -7.85 20.3 -7.45 16.05 -7.05 11.8 -9.05 12.55 -11.05 13.3 -10 11.1 -8.95 8.9 -9.9 10 -9.7 8.85 -9.5 7.6 -8.65 2.6 -6.8 -3.9 -5.65 -8.1 -4.05 -12.95 -3.1 -15.8 -2.25 -18.15 -0.15 -24 1.65 -27.15 Z"/>

<path fill="#336699" stroke="none" d="
M 4.2 -29.3
Q 1.85 -27.5 1.65 -27.15 -0.15 -24 -2.25 -18.15 -3.1 -15.8 -4.05 -12.95 -5.65 -8.1 -6.8 -3.9 -8.65 2.6 -9.5 7.6 -9.7 8.85 -9.9 10 -8.95 8.9 -10 11.1 -11.05 13.3 -9.05 12.55 -7.05 11.8 -7.45 16.05 -7.85 20.3 -4.4 19.4 -1 18.5 6.8 22.7 14.2 -7.8 13.9 -23.5 13.85 -25.8 13.7 -28.05 13.65 -28.15 13.65 -28.2 13.1 -29.1 12.4 -30.05
L 12.7 -29.9
Q 11.6 -31.2 9.95 -30.65 9.8 -30.6 9.7 -30.55
L 9.75 -30.6 10 -30.8 7.8 -30.65
Q 9.3 -30.85 9.1 -31 7.4 -30.85 6.35 -30.45 6.3 -30.45 6.25 -30.45
L 6.2 -30.45
Q 6.15 -30.45 6.15 -30.4 6.05 -30.4 6 -30.35 4.75 -29.95 4.2 -29.3
M 6.55 -28.15
L 6.6 -28.2
Q 6.5 -27.95 6.4 -27.6
L 6.05 -27.8 6.55 -28.15 Z"/>

<path fill="#574331" stroke="none" d="
M 6.6 -28.2
L 6.55 -28.15 6.05 -27.8 6.4 -27.6
Q 6.5 -27.95 6.6 -28.2 Z"/>
</g>

<g id="Duplicate_Items_Folder_right_shoe_copy_5_0_Layer0_0_FILL">
<path fill="#333333" stroke="none" d="
M 13.5 -3.55
L 13.25 -3.6
Q 7.95 -1.9 -0.7 -4.45
L -8.15 -7.3 -8.2 -7.05 -36.85 7.5 -23.35 9.55 -25.6 16.55 -14.75 15.95 -7.15 5.9 -14.75 15.95 -12.3 24.25 2.6 10.05 13.1 7.15
Q 19.205078125 1.550390625 13.5 -3.55
M -11 2.25
L -23.6 8.95 -11 2.25 Z"/>
</g>

<g id="Duplicate_Items_Folder_body_suit_copy_13_0_Layer0_0_FILL">
<path fill="#FFFFFF" stroke="none" d="
M -30 27.1
Q -29.95 27.25 -29.9 27.5
L -29.85 27.5
Q -29.9 27.3 -30 27.05
L -30 27.1
M 27.2 27.55
L 27.2 27.45
Q 27.15 27.5 27.15 27.55
L 27.2 27.55 Z"/>

<path fill="#000000" stroke="none" d="
M -0.05 -46.75
Q -0.15 -46.75 -0.3 -46.75
L -0.3 -46.9
Q -0.9 -46.9 -1.5 -46.85 -1.85 -46.85 -2.25 -46.8 -2.3 -46.85 -2.35 -46.8 -2.45 -46.8 -2.6 -46.8 -5 -46.65 -7.8 -46.4 -8.3 -46.35 -8.85 -46.3 -11.05 -46.1 -13.5 -45.85 -14.35 -45.85 -17.75 -44.55 -21 -43.25 -27 -32.95 -28.65 -22.55 -29.15 -14.95 -29.7 -5.75 -29 -2.55 -28.35 0.65 -28.7 5.45 -29.05 10.2 -28.9 14.4 -28.75 18.6 -28.95 20.15 -29.3 22.6 -29.35 23.55 -29.35 23.85 -29.4 24.15 -29.45 24.35 -29.45 24.55 -29.65 25.7 -30 27.05 -29.9 27.3 -29.85 27.5
L -29.9 27.5
Q -29.95 27.25 -30 27.1 -31.2 31.95 -30.65 33.25 -30.2 34.6 -25.2 38.5 -20.2 42.4 -12.3 43.85 -4.45 45.3 -2.85 45.8 -2.3 45.95 -1.75 46.1 1.7 46.25 4.5 45.8 7.5 45.35 11.7 44.2 18.8 42.2 22.2 38.9 22.8 38.3 23.3 37.65 23.9 36.9 24.4 36.25 26.75 33.3 27.75 32.65 27.8 32.55 27.85 32.25 27.95 31.75 27.85 30.6 27.85 30.35 27.8 30.1 27.75 29.1 27.55 27.75 27.5 27.65 27.5 27.55
L 27.5 27.5 27.05 24.4
Q 27.06484375 23.2390625 26.55 20.15 26.45 19.2 26.25 18.1 25.35 12.75 25.5 7.25 25.6 1.75 25.8 0.9 26.65 -2.95 26.65 -8.7 26.65 -9.25 26.65 -9.8 26.65 -10.35 26.65 -10.85 26.55 -14.6 26.5 -19.05 26.45 -20 26.45 -20.95 26.4 -23.7 26.2 -26.05
L 26.2 -26.1
Q 25.95 -28.4 25.6 -30.3 25.65 -33 22.75 -36.3 21.15 -38.1 18.7 -40.1 14.3 -43.65 12.2 -44.65 11.05 -45.35 8.4 -45.8 4.7 -46.4 4.35 -46.4 2.35 -46.6 0.65 -46.7 0.25 -46.75 -0.05 -46.75
M -18.25 -38.95
Q -17.05 -40.5 -16.15 -41.05
L -3.3 -41
Q 5.25 -38.45 9 -42.15 9 -42.2 9.05 -42.2 8.95 -42.25 8.85 -42.3
L 9.15 -43.6 8.85 -42.3
Q 8.95 -42.3 9.05 -42.25 9.4 -42.1 9.8 -41.9 9.4662109375 -42.03984375 9.05 -42.2 9.1 -42.1 9.15 -41.9 9.25 -41.9 9.35 -41.9 9.4 -41.9 10.1 -41.65
L 10.15 -41.65
Q 10.45 -41.55 10.85 -41.4 10.9 -41.4 11 -41.35 11.15 -41.25 11.35 -41.15 13.1 -40.2 14.85 -38.95 16.4 -37.75 18.05 -36.3 18.3 -36 18.65 -35.7
L 18.8 -35.7 18.8 -35.55
Q 19.85 -34.5 20.7 -33.6 21.4 -32.8 22 -32.05 22.4 -31.5 22.7 -31 23.55 -29.7 23.4 -28.95
L 23.4 -28.9
Q 23.4 -28.6 23.4 -28 23.3 -26.9 23.2 -24.7 23.15 -24.5 23.15 -24.25 23.1 -24 23.1 -23.7 22.85 -21.45 22.6 -18.3 22.55 -17.9 22.55 -17.5 22.5 -17.15 22.45 -16.8 22.45 -16.55 22.4 -16.25 22.35 -16.05 22.35 -15.55 22.35 -15.3 22.4 -14.9 22.4 -14.05 22 -11.75 22 -10.75 22 -9.8 21.95 -7.55 21.9 -5.7 21.85 -2.7 23.2 -0.75
L 22.85 -0.7
Q 22.6 -0.55 22.4 -0.4 22.25 -0.35 22.15 -0.25 21.7 0.1 21.7 0.25 21.75 0.2 21.8 0.2 21.75 0.4 21.7 0.6 21.7 0.7 21.7 0.8
L 21.65 0.8
Q 21.7 1.75 22.25 5.95 22.7 9.6 23.55 15.7 24 19.3 24.6 23.75 24.65 23.95 24.75 24.2 24.95 25 25.05 25.55 25.25 26.75 25.05 26.8 25.75 29.7 25.65 29.85 25.55 30.05 25.5 30.3 25.1 31.15 24.4 32.1 23.3 33.45 21.55 34.95 21.5 35 21.45 35.05 19.5 36.65 16.45 38.15 14.2 39.2 11.3 40.25 7 41.75 4.5 42.35 2.85 42.65 2 42.65 -0.35 42.6 -0.45 42.6
L -0.45 42.7
Q -0.65 42.65 -0.95 42.65 -1.75 42.5 -2.9 42.2 -4.45 41.8 -10.85 40.8 -17.3 39.75 -22.4 35.95 -27.5 32.1 -28.3 29.8 -28.4 29.6 -28.4 29.35 -28.35 29.35 -27.2 26.75
L -27.2 26.6
Q -27.25 26.55 -27.35 26.55 -27.5 26.55 -27.7 26.5 -27.5 25.9 -27.2 25.2
L -26.95 24.9
Q -26.8 23.1 -26.55 21.65 -26.25 19.15 -26 17.6 -26 16.7 -25.95 15.7 -25.75 11.55 -25.5 5.95 -25.3 0.75 -24.95 -5.7 -24.9 -6.8 -24.9 -7.9 -24.9 -9.35 -24.9 -10.5 -25 -15.4 -25.15 -16.8 -25.25 -17.35 -25.3 -17.35 -24.6 -24.25 -24.25 -28 -24.25 -28.7 -24.2 -29.3 -20.6 -35.95 -18.25 -38.95
M 8.15 -42.6
Q 8.38046875 -42.4876953125 8.6 -42.4 8.55 -42.4 8.5 -42.4 8.36875 -42.4875 8.15 -42.6
M 8.25 -42
L 8.2 -42.05
Q 8.3 -42.05 8.4 -42.05 8.25 -41.85 8.2 -42
L 8.25 -42
M 27.05 24.55
Q 27.0521484375 24.5021484375 27.05 24.45
L 27.05 24.7
Q 27.064453125 24.630078125 27.05 24.55
M 27.2 27.45
L 27.2 27.55 27.15 27.55
Q 27.15 27.5 27.2 27.45
M 22 -0.65
L 22.1 -0.55 22.75 -0.7 22 -0.65 Z"/>

<path fill="#828DBB" stroke="none" d="
M 8.2 -42.05
L 8.25 -42 8.2 -42
Q 8.25 -41.85 8.4 -42.05 8.3 -42.05 8.2 -42.05 Z"/>

<path fill="#006699" stroke="none" d="
M 8.6 -42.4
Q 8.38046875 -42.4876953125 8.15 -42.6 8.36875 -42.4875 8.5 -42.4 8.55 -42.4 8.6 -42.4
M 9.8 -41.9
Q 9.4 -42.1 9.05 -42.25 8.95 -42.3 8.85 -42.3 8.95 -42.25 9.05 -42.2 9.4662109375 -42.03984375 9.8 -41.9 Z"/>

<path fill="#97A0C6" stroke="none" d="
M -27.2 25.2
Q -27.5 25.9 -27.7 26.5 -27.5 26.55 -27.35 26.55
L -27.2 25.2 Z"/>

<path fill="#574331" stroke="none" d="
M -27.2 26.9
L -27.2 26.75
Q -28.35 29.35 -28.4 29.35 -28.4 29.6 -28.3 29.8
L -27.2 26.9 Z"/>

<path fill="#2B5580" stroke="none" d="
M 8.35 13.4
L 8.1 21.15
Q 10.3 22.2 12.6 22.45
L 14.95 17.3
Q 12.05 15.6 9.15 13.85
L 8.35 13.4
M -9.65 20.75
L -9.35 10.35
Q -14.75 12.55 -20.05 9.9
L -20.35 20.3
Q -15.35 22.75 -9.65 20.75 Z"/>

<path fill="#B3B4A0" stroke="none" d="
M 21.8 0.2
Q 21.75 0.2 21.7 0.25 21.7 0.1 22.15 -0.25
L 9.75 8.9 21.5 15.8 18.65 24.4 25.05 25.55
Q 24.95 25 24.75 24.2 24.65 23.95 24.6 23.75 24 19.3 23.55 15.7 22.7 9.6 22.25 5.95 21.7 1.75 21.65 0.8
L 21.7 0.8
Q 21.7 0.7 21.7 0.6 21.75 0.4 21.8 0.2
M 22.85 -0.7
L 22.9 -0.75 22.75 -0.7 22.85 -0.7
M 22.4 -14.9
Q 22.35 -15.3 22.35 -15.55
L 12.25 -7.05 23.2 -0.75
Q 21.85 -2.7 21.9 -5.7 21.95 -7.55 22 -9.8 22 -10.75 22 -11.75 22.4 -14.05 22.4 -14.9 Z"/>

<path fill="#336699" stroke="none" d="
M 22.8 -24
L 23.1 -23.7
Q 23.1 -24 23.15 -24.25
L 22.8 -24
M -16.15 -41.05
Q -17.05 -40.5 -18.25 -38.95 -20.6 -35.95 -24.2 -29.3 -24.25 -28.7 -24.25 -28 -24.6 -24.25 -25.3 -17.35 -25.25 -17.35 -25.15 -16.8 -25 -15.4 -24.9 -10.5 -24.9 -9.35 -24.9 -7.9 -24.9 -6.8 -24.95 -5.7 -25.3 0.75 -25.5 5.95 -25.75 11.55 -25.95 15.7 -26 16.7 -26 17.6 -26.25 19.15 -26.55 21.65 -26.8 23.1 -26.95 24.9
L -27.2 25.2 -27.35 26.55
Q -27.25 26.55 -27.2 26.6
L -27.2 26.75 -27.2 26.9 -28.3 29.8
Q -27.5 32.1 -22.4 35.95 -17.3 39.75 -10.85 40.8 -4.45 41.8 -2.9 42.2 -1.75 42.5 -0.95 42.65 -0.65 42.65 -0.45 42.7
L -0.45 42.6
Q -0.35 42.6 2 42.65 2.85 42.65 4.5 42.35 7 41.75 11.3 40.25 14.2 39.2 16.45 38.15 19.5 36.65 21.45 35.05 21.5 35 21.55 34.95 23.3 33.45 24.4 32.1 25.1 31.15 25.5 30.3
L 10.55 27.2 10.45 27.45 10.55 27.2 12.6 22.45
Q 10.3 22.2 8.1 21.15
L 8.35 13.4 2.05 9.65 15.3 -0.35 5.4 -7.6 22.8 -24 23.15 -24.25
Q 23.15 -24.5 23.2 -24.7 23.3 -26.9 23.4 -28 23.4 -28.6 23.4 -28.9
L 23.4 -28.95
Q 23.55 -29.7 22.7 -31 22.4 -31.5 22 -32.05 21.4 -32.8 20.7 -33.6 19.85 -34.5 18.8 -35.55
L 18.8 -35.7 18.65 -35.7
Q 18.3 -36 18.05 -36.3 16.4 -37.75 14.85 -38.95 13.1 -40.2 11.35 -41.15 11.15 -41.25 11 -41.35 10.9 -41.4 10.85 -41.4 10.45 -41.55 10.15 -41.65
L 10.1 -41.65
Q 9.4 -41.9 9.35 -41.9
L 9.15 -41.85 9.15 -41.9 9 -42.15
Q 5.25 -38.45 -3.3 -41
L -16.15 -41.05
M -9.35 10.35
L -9.65 20.75
Q -15.35 22.75 -20.35 20.3
L -20.05 9.9
Q -14.75 12.55 -9.35 10.35
M -1.1 -37.7
L -0.8 36.3 -1.1 -37.7 Z"/>

<path fill="#FF6699" stroke="none" d="
M 5.4 -7.6
L 15.3 -0.35 2.05 9.65 8.35 13.4 9.15 13.85
Q 12.05 15.6 14.95 17.3
L 12.6 22.45 10.55 27.2 25.5 30.3
Q 25.55 30.05 25.65 29.85 25.75 29.7 25.05 26.8 25.25 26.75 25.05 25.55
L 18.65 24.4 21.5 15.8 9.75 8.9 22.15 -0.25
Q 22.25 -0.35 22.4 -0.4 22.6 -0.55 22.85 -0.7
L 22.75 -0.7 22.1 -0.55 22 -0.65 22.75 -0.7 22.9 -0.75 22.85 -0.7 23.2 -0.75 12.25 -7.05 22.35 -15.55
Q 22.35 -16.05 22.4 -16.25 22.45 -16.55 22.45 -16.8 22.5 -17.15 22.55 -17.5 22.55 -17.9 22.6 -18.3 22.85 -21.45 23.1 -23.7
L 22.8 -24 5.4 -7.6 Z"/>

<path fill="#D1D8D7" stroke="none" d="
M 9.15 -41.85
L 9.35 -41.9
Q 9.25 -41.9 9.15 -41.9
L 9.15 -41.85 Z"/>

<path fill="#F1F3F3" stroke="none" d="
M 9 -42.15
L 9.15 -41.9
Q 9.1 -42.1 9.05 -42.2 9 -42.2 9 -42.15 Z"/>
</g>

<g id="Duplicate_Items_Folder_arm_suit_copy_15_0_Layer1_0_FILL">
<path fill="#919474" stroke="none" d="
M 28.05 -7.5
L 28 -7.85 28 -7.8 28.05 -7.5
M 24.6 -34.9
L 24.5 -34.9
Q 24.4 -32.3 24.25 -30.1
L 24.3 -30.25
Q 24.4 -32.2 24.6 -34.9
M 31.4 -42.65
L 31.3 -42.7 31.3 -42.15 31.4 -42.65 Z"/>

<path fill="#000000" stroke="none" d="
M 15.15 -49.85
Q 15.1 -49.8 15.1 -49.75 14.8 -48.7 14.4 -47.1 12.8 -41.1 9.4 -27.3 9 -25.75 8.65 -24.2
L 6.7 -16.4 6.8 -16.65
Q 6.2 -14.1 5.6 -12.2 4.85 -9.85 4.15 -8.5 -3.85 2.6 -6.05 6.6
L -6.95 10.65
Q -7.55 15.15 -7.65 15.7 -5.1 20.75 -2.75 23.3
L 11.8 30.05
Q 14.8 30.75 16.3 29.05 17.8 27.3 18.6 25.75 19.45 24.15 19.25 23.25 18.9 22.45 18.55 20.75 18.2 19.05 15.45 16.25
L 12.3 13.9
Q 11.6 11.75 13.1 10.35
L 15.25 13.1
Q 17.25 15.7 22 15.45 23.2 15.15 25.05 14.8 26.8 14.3 28.5 12.25 29.95 10.2 28.6 7.65 26.7 5.05 26.2 3.95 25.5 2.35 26.3 1.5 26.6 1.15 26.95 -2.15 27.45 -5.95 27.75 -6.8 27.85 -7.3 28 -7.8
L 28 -7.85
Q 28.2 -9.1 28.25 -8.95
L 28.2 -10.9
Q 30.95 -30.85 32.65 -42.35 32.9 -43.9 33.1 -45.25 26.3 -58.75 15.15 -49.85
M 31.3 -42.7
L 31.4 -42.65 31.3 -42.15 31.3 -42.7
M 27.2 -48.05
Q 30.65 -46.9 31.15 -42.75
L 26.65 -13.55 23.25 -10.1
Q 12.3978515625 -6.952734375 8.25 -12.3 8.25 -12.4 8.3 -12.55 8.9 -14.85 9.25 -15.75 9.65 -16.8 10.05 -17.8
L 12.8 -26.65 16.95 -46.4
Q 21.7 -50.7 27.2 -48.05
M 19.5 -3.7
L 19.9 -4.15 20.35 -4.3 19.5 -3.7 Z"/>

<path fill="#9592A9" stroke="none" d="
M 19.9 -4.15
L 19.5 -3.7 20.35 -4.3 19.9 -4.15 Z"/>

<path fill="#336699" stroke="none" d="
M 25.85 -32.95
Q 28.85 -37.25 27.2 -48.05 21.7 -50.7 16.95 -46.4
L 12.8 -26.65 10.05 -17.8
Q 9.65 -16.8 9.25 -15.75 8.9 -14.85 8.3 -12.55 8.25 -12.4 8.25 -12.3 12.3978515625 -6.952734375 23.25 -10.1 25.3 -25.35 25.85 -32.95
M 24.5 -34.9
L 24.6 -34.9
Q 24.4 -32.2 24.3 -30.25
L 24.25 -30.1
Q 24.4 -32.3 24.5 -34.9 Z"/>

<path fill="#132639" stroke="none" d="
M 27.2 -48.05
Q 28.85 -37.25 25.85 -32.95 25.3 -25.35 23.25 -10.1
L 26.65 -13.55 31.15 -42.75
Q 30.65 -46.9 27.2 -48.05 Z"/>
</g>

<g id="Duplicate_Items_Folder_arm_suit_copy_15_0_Layer0_0_FILL">
<path fill="#000000" stroke="none" d="
M -6 10.05
L -6.1 10.1 -6.35 10.4
Q -6.35 10.5 -6.3 10.7 -6.25 10.85 -6.2 11 -5.95 11.05 -5.75 10.95 -5.65 10.95 -5.55 10.75 -5.5 10.65 -5.5 10.3 -5.55 10.1 -5.7 10.15 -5.75 9.9 -6 10.05
M -2.25 12.35
L -2.3 12.3
Q -2.55 12.5 -2.55 12.65 -2.75 12.9 -2.6 13.1 -2.65 13.4 -2.35 13.5 -2.35 13.55 -2 13.5 -1.85 13.55 -1.75 13.25 -1.55 12.9 -1.65 12.7 -1.8 12.55 -2 12.5
L -2.25 12.35
M -1.15 10.2
Q -1.1 10.35 -1.15 10.55 -1.05 10.8 -1 10.95 -0.75 10.9 -0.6 10.75 -0.4 10.8 -0.3 10.7 -0.15 10.5 -0.4 10.15 -0.4 10.05 -0.4 9.9 -0.7 9.75 -0.85 9.9 -1 10 -1.15 10.2
M -3.05 9.95
Q -3.2 9.75 -3.25 9.5 -3.5 9.45 -3.55 9.55 -3.65 9.55 -3.85 9.75 -3.9 9.85 -3.8 10.1 -3.8 10.4 -3.85 10.55 -3.5 10.6 -3.35 10.7 -3.15 10.5 -3.05 10.35 -3 10.15 -3.05 9.95
M -3.45 7.4
Q -3.45 7.65 -3.25 7.75 -3.1 7.8 -2.95 7.75 -2.7 7.75 -2.65 7.6 -2.6 7.3 -2.7 7.05 -2.75 6.9 -2.9 6.8 -3.15 6.75 -3.35 6.8 -3.45 6.75 -3.4 7.05 -3.6 7.15 -3.45 7.4
M 0.05 17.55
L 0.15 13.55 3.15 12.25
Q 3.35 12.05 3.5 11.75 3.5 11.6 3.35 11.25 3.3 11.1 1.65 9
L 0.45 8.9 2.15 6.5
Q 2.8 4.65 1.95 3.75
L -1.95 5.45 -2.55 4.65 -3.3 5.7 -2.5 6.8
Q -2.45 7 -2.2 6.95
L -2 7 1.1 5.6 -0.75 8.75
Q -0.65 8.9 -0.7 9.05 -0.7 9.2 -0.7 9.3 -0.55 9.6 -0.35 9.7
L 1.85 11.35 -0.5 12.5 -0.6 12.7
Q -0.7 12.85 -0.8 12.95
L -0.9 16.5 -3.8 14.75
Q -3.95 14.9 -4.05 15
L -4.15 14.95 -4.2 15
Q -4.55 15.15 -4.65 15.15
L -6.05 17.95 -5.6 12.85 -6.6 10.85 -7.2 11.85 -6.85 12.7
Q -6.3 19 -6.65 19.4
L -3.9 16.25 -0.75 18.1
Q -0.7 18.15 -0.55 18.05 -0.3 17.95 -0.15 17.75 -0.1 17.7 0.05 17.55 Z"/>

<path fill="#FF6699" stroke="none" d="
M -6.1 10.1
L -6 10.05
Q -5.75 9.9 -5.7 10.15 -5.55 10.1 -5.5 10.3 -5.5 10.65 -5.55 10.75 -5.65 10.95 -5.75 10.95 -5.95 11.05 -6.2 11 -6.25 10.85 -6.3 10.7 -6.35 10.5 -6.35 10.4
L -6.6 10.85 -5.6 12.85 -6.05 17.95 -4.65 15.15
Q -4.55 15.15 -4.2 15
L -4.15 14.95 -4.05 15
Q -3.95 14.9 -3.8 14.75
L -0.9 16.5 -0.8 12.95
Q -0.7 12.85 -0.6 12.7
L -0.5 12.5 1.85 11.35 -0.35 9.7
Q -0.55 9.6 -0.7 9.3 -0.7 9.2 -0.7 9.05 -0.65 8.9 -0.75 8.75
L 1.1 5.6 -2 7 -2.2 6.95
Q -2.45 7 -2.5 6.8
L -3.3 5.7 -6.1 10.1
M -3.25 7.75
Q -3.45 7.65 -3.45 7.4 -3.6 7.15 -3.4 7.05 -3.45 6.75 -3.35 6.8 -3.15 6.75 -2.9 6.8 -2.75 6.9 -2.7 7.05 -2.6 7.3 -2.65 7.6 -2.7 7.75 -2.95 7.75 -3.1 7.8 -3.25 7.75
M -3.25 9.5
Q -3.2 9.75 -3.05 9.95 -3 10.15 -3.05 10.35 -3.15 10.5 -3.35 10.7 -3.5 10.6 -3.85 10.55 -3.8 10.4 -3.8 10.1 -3.9 9.85 -3.85 9.75 -3.65 9.55 -3.55 9.55 -3.5 9.45 -3.25 9.5
M -1.15 10.55
Q -1.1 10.35 -1.15 10.2 -1 10 -0.85 9.9 -0.7 9.75 -0.4 9.9 -0.4 10.05 -0.4 10.15 -0.15 10.5 -0.3 10.7 -0.4 10.8 -0.6 10.75 -0.75 10.9 -1 10.95 -1.05 10.8 -1.15 10.55
M -2.3 12.3
L -2.25 12.35 -2 12.5
Q -1.8 12.55 -1.65 12.7 -1.55 12.9 -1.75 13.25 -1.85 13.55 -2 13.5 -2.35 13.55 -2.35 13.5 -2.65 13.4 -2.6 13.1 -2.75 12.9 -2.55 12.65 -2.55 12.5 -2.3 12.3 Z"/>
</g>

<g id="Duplicate_Items_Folder_head_copy_25_7_Layer10_0_FILL">
<path fill="#000000" stroke="none" d="
M 62.25 -65.6
Q 48.8 -85.95 24.45 -92.45 0.15 -98.95 -20.65 -87.75 -41.4 -76.5 -46.6 -54 -51.75 -31.5 -38.25 -11.15 -24.75 9.25 -0.45 15.75 23.9 22.25 44.6 11 65.35 -0.2 70.55 -22.7 75.7 -45.2 62.25 -65.6 Z"/>
</g>

<g id="Duplicate_Items_Folder_head_copy_25_7_Layer9_0_FILL">
<path fill="#000000" stroke="none" d="
M 56.6 -51
Q 54.7 -65.55 54.2 -67.1 53.65 -68.55 50.45 -73.8 44 -81.45 37.7 -86.8 4.7 -114.5 -27 -79.55 -30.55 -75.15 -30.55 -74.8 -30.6 -74.55 -35.1 -60.35 -36.4 -56.45 -36.7 -51.35 -37.5 -38.4 -32 -18.55 -28.75 -12.6 -23.9 -6.85 -23.75 -6.65 -23.55 -6.4 -22.95 -5.7 -22.45 -5.05 -20.1 -2.55 -17.65 0.1 -15.25 2.75 -12.85 5.7 -10.6 8.7 -7.2 15.4 10.65 22.4 24.5 16 31.15 5.6 37.75 -0.35 39.75 -2.1 41.85 -4.2 48 -10.4 51.85 -17.1 58.4 -36.45 56.6 -51
M 39.85 -7.25
Q 37.85 -5.3 36 -3.6 29.8 1.9 21.9 12.15 6.95 16.85 -3.1 11.35
L -8.95 2.8
Q -9.6 2.25 -10.25 1.85 -13.6 -0.75 -15.8 -3.2 -18.05 -5.65 -20.25 -8.05 -20.75 -8.65 -21.3 -9.3 -21.5 -9.5 -21.7 -9.75 -26.2 -15.1 -29.25 -20.6 -33.6 -37.3 -31.8 -53.6 -30.75 -64.35 -26.9 -74.9 2.95 -110.85 34.4 -85.2 42.5 -78.6 50.8 -67.8 57.95 -43.65 49.2 -19.35 45.5 -13 39.85 -7.25 Z"/>

<path fill="#C6C5B9" stroke="none" d="
M -26.9 -74.9
Q -30.75 -64.35 -31.8 -53.6 -6.15 -89.5 34.4 -85.2 2.95 -110.85 -26.9 -74.9 Z"/>

<path fill="#D8E4D6" stroke="none" d="
M 36 -3.6
Q 37.85 -5.3 39.85 -7.25 45.5 -13 49.2 -19.35 57.95 -43.65 50.8 -67.8 42.5 -78.6 34.4 -85.2 -6.15 -89.5 -31.8 -53.6 -33.6 -37.3 -29.25 -20.6 -26.2 -15.1 -21.7 -9.75 -21.5 -9.5 -21.3 -9.3 -20.75 -8.65 -20.25 -8.05 -18.05 -5.65 -15.8 -3.2 -13.6 -0.75 -10.25 1.85 -9.6 2.25 -8.95 2.8
L -3.1 11.35
Q 6.95 16.85 21.9 12.15 29.8 1.9 36 -3.6 Z"/>
</g>

<g id="Duplicate_Items_Folder_head_copy_25_7_Layer8_0_FILL">
<path fill="#75775E" stroke="none" d="
M 23.45 -61.1
Q 16.4 -60.5 13.65 -55.8 10.9 -51.1 9.55 -46.85 8.25 -51.7 4.95 -55.85 -0.55 -62.6 -5.1 -63.65 -9.6 -64.6 -16.95 -59.4 -24.3 -54.3 -25.25 -45.35 -26.15 -36.5 -20.95 -29.85 -15.75 -23.2 -10.05 -23.7 -4.45 -24.2 0.1 -28.8 4.7 -33.3 9.6 -35.3 15.55 -31.5 21.25 -26.7 26.9 -21.9 31.05 -20.6 35.25 -19.2 40.85 -23.9 46.45 -28.5 49.8 -36.65 53.1 -44.8 41.8 -53.2 30.5 -61.7 23.45 -61.1 Z"/>
</g>

<g id="Duplicate_Items_Folder_head_copy_25_7_Layer7_0_FILL">
<path fill="#000000" stroke="none" d="
M 10.85 -29.65
Q 10.1 -29.7 9.55 -28.55 9 -27.4 9 -25.7 9 -24 9.5 -22.8 9.95 -21.6 10.75 -21.6 11.55 -21.55 12 -22.65 12.35 -23.75 11.7 -25.35 11 -26.95 11.35 -28.3 11.65 -29.65 10.85 -29.65
M 6.85 -30.25
Q 5.85 -32.15 4.4 -32.2 2.95 -32.3 3.2 -29.75 3.45 -27.2 2.15 -25.45 0.85 -23.75 1.8 -21.9 2.75 -20.05 4.2 -20 5.65 -19.9 6.7 -21.7 7.8 -23.4 7.8 -25.9 7.85 -28.35 6.85 -30.25 Z"/>
</g>

<g id="Duplicate_Items_Folder_eye_blink_copy_4_14_Layer2_0_FILL">
<path fill="#000000" stroke="none" d="
M 42.6 45.1
Q 54.45 37.05 55.8 27.6 56.95 18.1 54.25 8.3 51.5 -1.55 43 -4.25 34.4 -7.05 23.15 1.7 11.8 10.5 6.7 20.95 1.7 31.35 7.7 40.6 13.55 49.9 22.2 51.55 30.75 53.1 42.6 45.1
M 53.7 26.65
Q 52.5 35.2 41.7 41.05 30.8 46.8 22.3 45.35 13.8 44.05 10.55 36.7 7.25 29.3 11 20.2 14.65 11.25 24.6 3.4 34.4 -4.55 42.2 -2.05 49.75 0.45 52.25 9.25 54.8 18.15 53.7 26.65 Z"/>

<path fill="#00FFFF" stroke="none" d="
M 41.7 41.05
Q 52.5 35.2 53.7 26.65 54.8 18.15 52.25 9.25 49.75 0.45 42.2 -2.05 34.4 -4.55 24.6 3.4 14.65 11.25 11 20.2 7.25 29.3 10.55 36.7 13.8 44.05 22.3 45.35 30.8 46.8 41.7 41.05
M 41.65 0.1
Q 42.6 0.45 43.55 0.9 48.9 3.5 50.9 10.4 52.3 15.65 52.4 20.65 52.35 23.4 52.05 26.2 51.05 33.8 41.25 39 31.45 44.3 23.7 42.95 22.9 42.95 22.05 42.65 15.8 41.05 13.2 35.15 12.75 33.95 12.3 32.75 10.8 27.05 13.6 20.4 16.9 12.25 25.85 5.05 34.7 -2.1 41.65 0.1 Z"/>

<path fill="url(#Gradient_1)" stroke="none" d="
M 43.55 0.9
Q 42.6 0.45 41.65 0.1 34.7 -2.1 25.85 5.05 16.9 12.25 13.6 20.4 10.8 27.05 12.3 32.75 12.75 33.95 13.2 35.15 15.8 41.05 22.05 42.65 22.9 42.95 23.7 42.95 31.45 44.3 41.25 39 51.05 33.8 52.05 26.2 52.35 23.4 52.4 20.65 52.3 15.65 50.9 10.4 48.9 3.5 43.55 0.9 Z"/>
</g>

<g id="Duplicate_Items_Folder_mouth_open_copy_3_0_Layer4_0_FILL">
<path fill="#000000" stroke="none" d="
M 12.2 -2.8
Q 1.9912109375 -10.7689453125 -7.8 -6.8
L -10.15 5.7
Q 1.97265625 19.21953125 13 8.35
L 12.2 -2.8 Z"/>
</g>

<g id="Duplicate_Items_Folder_mouth_open_copy_3_0_Layer3_0_FILL">
<path fill="#EEEFE4" stroke="none" d="
M -5.3 2.95
L -7.05 7.45
Q -5.2 7.75 -3.05 8.85
L -1.55 5.4
Q -2.3 1.45 -5.3 2.95 Z"/>

<path fill="#BFBC9D" stroke="none" d="
M 10.75 9
L 10.2 5.25
Q 7.4 2.35 5.7 5.3
L 6.6 10
Q 8.35 9.2 10.75 9 Z"/>
</g>

<g id="Duplicate_Items_Folder_mouth_open_copy_3_0_Layer2_0_FILL">
<path fill="#838E71" stroke="none" d="
M 1.65 10.1
L 2.35 6
Q 0.8619140625 2.809375 -1.65 4.8
L -2.5 9.55
Q -0.567578125 9.4013671875 1.65 10.1 Z"/>

<path fill="#EEEFE4" stroke="none" d="
M 2.35 6
L 1.65 10.1 1.55 10.7
Q 3.5 10.65 5.8 11.25
L 6.55 7.6
Q 5 3.85 2.4 5.95
L 2.35 6 Z"/>
</g>

<g id="Duplicate_Items_Folder_mouth_open_copy_3_0_Layer1_0_FILL">
<path fill="#E0DED1" stroke="none" d="
M -1.45 -0.55
L -1.15 -5.6
Q -4.35 -5.5 -6.7 -6.25
L -7.3 0.1
Q -4.6 3.65 -1.45 -0.55 Z"/>

<path fill="#D7D5C1" stroke="none" d="
M 9.9 -3.95
Q 7.05 -2.55 4.55 -2.3
L 6.6 3.75
Q 10.45 5.9 11.7 0.8
L 9.9 -3.95 Z"/>
</g>

<g id="Duplicate_Items_Folder_mouth_open_copy_3_0_Layer0_0_FILL">
<path fill="#EEEFE4" stroke="none" d="
M 3.85 4.05
L 6.85 -3.25
Q 3.65 -7.2 -0.9 -5.8
L -2.5 1.05
Q -0.2 4.85 3.85 4.05 Z"/>
</g>

<g id="glass_0_Layer0_0_FILL">
<path fill="#EDF8F8" stroke="none" d="
M 39.15 54.6
L 28.95 61.25 26.2 51.8 2.7 45.15
Q 3.4 52.95 7.55 60.3 14.35 72.5 26.55 76.55 38.75 80.6 49.1 74.05 54.55 70.6 57.85 65.2
L 39.15 54.6
M 50.5 -6.45
Q 40.6 -9.25 31.8 -6.45
L 40.6 17.05 50.25 14.05 53.25 21.9 75.7 20.35
Q 74.7 14 70.7 8 63.45 -2.85 50.5 -6.45 Z"/>
</g>

<g id="Duplicate_Items_Folder_head_copy_25_7_Layer2_0_FILL">
<path fill="#336699" stroke="none" d="
M 38.95 51.95
Q 42 51.5 45.05 50.95
L 50.05 29.7
Q -11.15 43.25 -53.1 2.8
L -58.1 24
Q -55.4 26.1 -52.65 28.05 -9.95 58.55 38.95 51.95 Z"/>
</g>

<g id="Duplicate_Items_Folder_head_copy_25_7_Layer1_0_FILL">
<path fill="url(#Gradient_2)" stroke="none" d="
M -35.2 -1.65
Q -34.8 -3.75 -36.15 -5.65 -37.35 -7.9 -39.45 -8.4 -41 -9.05 -42.35 -8.5 -41.05 -6 -39.4 -3.65 -37.85 -1.4 -36.2 0.75 -35.45 -0.25 -35.2 -1.65 Z"/>

<path fill="url(#Gradient_3)" stroke="none" d="
M -42.35 -8.5
Q -42.6 -8.4 -42.75 -8.35 -42.8 -8.35 -42.8 -8.3 -42.95 -8.3 -43 -8.2 -44.6 -7.2 -44.9 -5.1 -45.3 -3 -44 -0.85 -42.8 1.1 -40.75 1.75 -40.25 1.95 -39.6 1.95 -38.25 2.15 -37.05 1.45 -36.7 1.2 -36.35 0.9 -36.3 0.8 -36.2 0.75 -37.85 -1.4 -39.4 -3.65 -41.05 -6 -42.35 -8.5 Z"/>

<path fill="url(#Gradient_4)" stroke="none" d="
M -45.75 -53.4
Q -46.05 -53.6 -46.3 -53.65 -48.15 -54.05 -50.1 -52.95 -51.85 -51.75 -52.6 -49.5 -53.2 -47.25 -52.2 -45.35 -51.2 -43.55 -49.4 -43 -48.95 -42.9 -48.55 -42.85 -47.15 -42.85 -45.7 -43.7 -43.95 -44.8 -43.35 -47.1 -42.6 -49.4 -43.7 -51.25 -44.45 -52.8 -45.75 -53.4 Z"/>

<path fill="#336699" stroke="none" d="
M -52.2 -81.05
L -57.3 -85.55
Q -69.25 -88.35 -77.85 -80.15 -92.1 -60.35 -84.15 -34.85 -78.85 -29.25 -69.9 -28.1
L -63.3 -26.8
Q -62.85 -54.9 -52.2 -81.05
M 93.5 -51.1
L 87.3 -49.3
Q 87.05 -20.7 77 5.25
L 83.45 6.9
Q 92.1 9.8 99 7 116.1 -12.25 110.35 -37.25 105.6 -48.45 93.5 -51.1
M 74.85 -86.05
Q 74.4 -85.1 74 -84 85.45 -73.05 87.75 -57.6 89.8 -57.3 91.7 -57.15 101.95 -56.95 107 -66.75 107.4 -70.55 106.95 -73.85 105.85 -83.5 98.95 -89.35 96.5 -91.45 93.25 -93.1 79.9 -97.65 74.85 -86.05 Z"/>

<path fill="url(#Gradient_5)" stroke="none" d="
M -18.05 -81
Q -18.2 -81.1 -18.2 -81.3 -18.9 -82.85 -20.75 -83.7 -22.8 -84.5 -25.15 -83.9 -27.45 -83.15 -28.55 -81.45 -28.8 -80.9 -28.95 -80.35 -29.4 -79.1 -28.95 -77.8 -28.4 -76.85 -27.6 -76.1 -27 -75.65 -26.3 -75.25 -24.25 -74.35 -22 -75.1 -19.6 -75.75 -18.55 -77.6 -17.5 -79.15 -18 -80.7 -18 -80.85 -18.05 -81 Z"/>

<path fill="url(#Gradient_6)" stroke="none" d="
M 2.65 22.1
Q 3.05 20.3 1.7 18.5 0.5 16.7 -2 16.05 -4.3 15.55 -6.1 16.5 -8 17.5 -8.45 19.3 -8.55 19.9 -8.45 20.55 -8.3 21.65 -7.45 22.8 -6.15 24.55 -3.85 25.15 -1.45 25.8 0.4 24.75 1.55 24.25 2.15 23.4 2.6 22.8 2.65 22.1 Z"/>

<path fill="url(#Gradient_7)" stroke="none" d="
M 43.45 15.8
Q 42.8 14.15 40.7 13.1 38.7 12.25 36.35 12.9 34.1 13.6 33.05 15.4 32.05 17.15 32.6 18.95 32.9 19.55 33.3 20.05 33.6 20.4 34 20.7 34.45 21.2 35.25 21.45 37.3 22.4 39.6 21.75 41.9 21.05 42.95 19.2 43.65 18.15 43.75 17.15 43.65 16.45 43.45 15.8 Z"/>

<path fill="url(#Gradient_8)" stroke="none" d="
M 60.05 -19.05
Q 59.3 -16.75 60.4 -14.9 61.4 -13.05 63.15 -12.55 63.85 -12.4 64.5 -12.45 64.6 -12.45 64.7 -12.45 65.75 -12.6 66.85 -13.25 68.6 -14.35 69.25 -16.65 70 -18.95 68.95 -20.75 68.4 -22 67.55 -22.55 67.1 -22.9 66.6 -23.05 66.35 -23.15 66.2 -23.2 64.4 -23.6 62.5 -22.5 60.7 -21.3 60.05 -19.05 Z"/>

<path fill="#5EBCEA" stroke="none" d="
M 32.7 -79.1
Q 29.4 -80.65 25.85 -81.95 25.4 -80.2 23.55 -79.3 21.7 -78.35 19.35 -78.9 17 -79.5 15.7 -81.3 14.35 -83.05 14.75 -84.85 14.75 -84.9 14.8 -84.9 11.1 -85.55 7.6 -85.75 1.9 -86.15 -3.35 -85.35 -11.05 -84.4 -18.2 -81.3 -18.2 -81.1 -18.05 -81 -18 -80.85 -18 -80.7 -17.5 -79.15 -18.55 -77.6 -19.6 -75.75 -22 -75.1 -24.25 -74.35 -26.3 -75.25 -27 -75.65 -27.6 -76.1 -40.45 -67.45 -45.75 -53.4 -44.45 -52.8 -43.7 -51.25 -42.6 -49.4 -43.35 -47.1 -43.95 -44.8 -45.7 -43.7 -47.15 -42.85 -48.55 -42.85 -49.65 -36.35 -49 -30 -44.2462890625 -29.7109375 -40.1 -33.15 -40.05234375 -36.215234375 -39.55 -39.4 -39.55 -39.65 -39.5 -39.85 -36.45 -58.15 -20.4 -68.7 -4.15 -79.45 16.15 -75.8 17.3 -75.6 18.45 -75.3 23.2294921875 -74.275 27.55 -72.55 31.444140625 -75.071875 32.7 -79.1
M 156.65 -150.15
Q 149.15 -157.1 137.1 -154.25
L 132.2 -123.5 131.95 -123.1 131.95 -123.05
Q 126.75 -96.75 98.95 -89.35 105.85 -83.5 106.95 -73.85 121.15 -77.9 129 -82.7 131.3 -84.25 133.45 -86 145.95 -96.5 151.05 -118 151.35 -119.3 151.65 -120.6
L 151.75 -119.8 156.65 -150.15 Z"/>

<path fill="url(#Gradient_9)" stroke="none" d="
M 24.9 -85.6
Q 23.55 -87.35 21.2 -88 18.9 -88.55 17 -87.55 15.2 -86.65 14.8 -84.9 14.75 -84.9 14.75 -84.85 14.35 -83.05 15.7 -81.3 17 -79.5 19.35 -78.9 21.7 -78.35 23.55 -79.3 25.4 -80.2 25.85 -81.95
L 25.85 -82
Q 26.1 -83.75 24.9 -85.6 Z"/>

<path fill="#1B97CB" stroke="none" d="
M 58.6 -54.95
Q 57.65 -54.2 56.1 -54.25 53.95 -54.15 52.15 -55.7 50.1 -57.05 49.65 -59.2 49.35 -61.35 50.3 -62.75 51 -63.65 52.15 -64 43.95 -73.55 32.7 -79.1 31.444140625 -75.071875 27.55 -72.55 40.085546875 -67.4943359375 48.75 -56.45 60.95 -40.55 58.2 -21.9 55.35 -3.15 39 7.4 22.75 18.05 2.45 14.4 -15.65 11.35 -27.25 -1.35 -28.8 -3.05 -30.2 -4.9 -32.75 -8.15 -34.55 -11.45 -40.32890625 -21.710546875 -40.1 -33.15 -44.2462890625 -29.7109375 -49 -30 -48.15 -18.95 -42.35 -8.5 -41 -9.05 -39.45 -8.4 -37.35 -7.9 -36.15 -5.65 -34.8 -3.75 -35.2 -1.65 -35.45 -0.25 -36.2 0.75 -25.25 14.5 -8.45 20.55 -8.55 19.9 -8.45 19.3 -8 17.5 -6.1 16.5 -4.3 15.55 -2 16.05 0.5 16.7 1.7 18.5 3.05 20.3 2.65 22.1 2.6 22.8 2.15 23.4 19.05 26.6 34 20.7 33.6 20.4 33.3 20.05 32.9 19.55 32.6 18.95 32.05 17.15 33.05 15.4 34.1 13.6 36.35 12.9 38.7 12.25 40.7 13.1 42.8 14.15 43.45 15.8 59.6 5.65 64.7 -12.45 64.6 -12.45 64.5 -12.45 63.85 -12.4 63.15 -12.55 61.4 -13.05 60.4 -14.9 59.3 -16.75 60.05 -19.05 60.7 -21.3 62.5 -22.5 64.4 -23.6 66.2 -23.2 66.35 -23.15 66.6 -23.05 67.85 -39.6 58.6 -54.95 Z"/>

<path fill="url(#Gradient_10)" stroke="none" d="
M 57.65 -62.95
Q 55.8 -64.35 53.6 -64.3 53.1 -64.3 52.5 -64.1 52.3 -64.05 52.15 -64 51 -63.65 50.3 -62.75 49.35 -61.35 49.65 -59.2 50.1 -57.05 52.15 -55.7 53.95 -54.15 56.1 -54.25 57.65 -54.2 58.6 -54.95 58.85 -55.2 59.1 -55.5 59.25 -55.55 59.3 -55.7 60.4 -57.3 60.05 -59.3 59.6 -61.4 57.65 -62.95 Z"/>

<path fill="#9ED2D8" stroke="none" d="
M 74.85 -86.05
Q 69.6 -92.45 63.65 -97.65 61.3 -73.3 32.7 -79.1 43.95 -73.55 52.15 -64 52.3 -64.05 52.5 -64.1 53.1 -64.3 53.6 -64.3 55.8 -64.35 57.65 -62.95 59.6 -61.4 60.05 -59.3 60.4 -57.3 59.3 -55.7 59.25 -55.55 59.1 -55.5 58.85 -55.2 58.6 -54.95 67.85 -39.6 66.6 -23.05 67.1 -22.9 67.55 -22.55 68.4 -22 68.95 -20.75 70 -18.95 69.25 -16.65 68.6 -14.35 66.85 -13.25 65.75 -12.6 64.7 -12.45 59.6 5.65 43.45 15.8 43.65 16.45 43.75 17.15 43.65 18.15 42.95 19.2 41.9 21.05 39.6 21.75 37.3 22.4 35.25 21.45 34.45 21.2 34 20.7 19.05 26.6 2.15 23.4 1.55 24.25 0.4 24.75 -1.45 25.8 -3.85 25.15 -6.15 24.55 -7.45 22.8 -8.3 21.65 -8.45 20.55 -25.25 14.5 -36.2 0.75 -36.3 0.8 -36.35 0.9 -36.7 1.2 -37.05 1.45 -38.25 2.15 -39.6 1.95 -40.25 1.95 -40.75 1.75 -42.8 1.1 -44 -0.85 -45.3 -3 -44.9 -5.1 -44.6 -7.2 -43 -8.2 -42.95 -8.3 -42.8 -8.3 -42.8 -8.35 -42.75 -8.35 -42.6 -8.4 -42.35 -8.5 -48.15 -18.95 -49 -30 -56.2 -12.9 -67.6 -18.9 -63.85 -7.35 -56.05 3.5 -36.8 30.3 -3.55 37.7 -2.85 37.9 -2.05 38 31.05 45.95 58.8 29.8 74.55 20.7 83.45 6.9
L 77 5.25
Q 87.05 -20.7 87.3 -49.3
L 93.5 -51.1
Q 92.8 -54.05 91.7 -57.15 89.8 -57.3 87.75 -57.6 85.45 -73.05 74 -84 74.4 -85.1 74.85 -86.05 Z"/>

<path fill="#C2E2E7" stroke="none" d="
M 29.2 -116.35
Q 27.5 -116.65 25.95 -116.9 -6.55 -122.2 -33.95 -105.45 -49.5 -96 -57.3 -85.55
L -52.2 -81.05
Q -62.85 -54.9 -63.3 -26.8
L -69.9 -28.1
Q -69 -23.45 -67.6 -18.9 -56.2 -12.9 -49 -30 -49.65 -36.35 -48.55 -42.85 -48.95 -42.9 -49.4 -43 -51.2 -43.55 -52.2 -45.35 -53.2 -47.25 -52.6 -49.5 -51.85 -51.75 -50.1 -52.95 -48.15 -54.05 -46.3 -53.65 -46.05 -53.6 -45.75 -53.4 -40.45 -67.45 -27.6 -76.1 -28.4 -76.85 -28.95 -77.8 -29.4 -79.1 -28.95 -80.35 -28.8 -80.9 -28.55 -81.45 -27.45 -83.15 -25.15 -83.9 -22.8 -84.5 -20.75 -83.7 -18.9 -82.85 -18.2 -81.3 -11.05 -84.4 -3.35 -85.35 1.9 -86.15 7.6 -85.75 11.1 -85.55 14.8 -84.9 15.2 -86.65 17 -87.55 18.9 -88.55 21.2 -88 23.55 -87.35 24.9 -85.6 26.1 -83.75 25.85 -82
L 25.85 -81.95
Q 29.4 -80.65 32.7 -79.1 61.3 -73.3 63.65 -97.65 48.9 -110.45 29.2 -116.35
M 12.35 -109.1
Q 12.75 -107.65 5.3 -107.2 -2.35 -106.8 -12.25 -103.3 -22.1 -99.85 -28.8 -97.35 -35.65 -94.85 -36.2 -96.25 -36.55 -97.75 -30.4 -101.5 -24.3 -105.3 -14.3 -108.3 -4.4 -111.25 3.75 -110.85 11.8 -110.55 12.35 -109.1 Z"/>

<path fill="#FFFFFF" stroke="none" d="
M 5.3 -107.2
Q 12.75 -107.65 12.35 -109.1 11.8 -110.55 3.75 -110.85 -4.4 -111.25 -14.3 -108.3 -24.3 -105.3 -30.4 -101.5 -36.55 -97.75 -36.2 -96.25 -35.65 -94.85 -28.8 -97.35 -22.1 -99.85 -12.25 -103.3 -2.35 -106.8 5.3 -107.2 Z"/>
</g>

<g id="Duplicate_Items_Folder_head_copy_25_7_Layer0_0_FILL">
<path fill="#ECEC02" stroke="none" d="
M -70.8 -83.15
Q -77.9470703125 -82.045703125 -78.15 -76.8
L -68.5 -68.5 -70.8 -83.15 Z"/>

<path fill="#FF6699" stroke="none" d="
M 30.9 -109.95
L 33.95 -100.7 27.25 -93.75 36.55 -81.75 37.5 -94.3 39.75 -95.95 44.05 -99.05 42 -107.45 45.75 -109.3
Q 38.181640625 -114.323046875 28.9 -115.95
L 30.9 -109.95 Z"/>
</g>

<path id="Duplicate_Items_Folder_leg_suit_copy_8_0_Layer1_0_1_STROKES" stroke="#000000" stroke-width="1.5" stroke-linejoin="round" stroke-linecap="round" fill="none" d="
M 7.45 12.6
L 7.75 -3.45 6.2 -3.5
M 1.3 11.05
Q 2.1 11.3 2.7 12.15 3.15 12.8 3.4 13.55 3.85 13.35 4.35 13.4 4.95 13.45 5.4 13.65 5.4 13.55 5.45 13.35 6.3 12.55 7.25 12.55 7.35 12.6 7.45 12.6 8.25 12.75 8.9 13.65 9.55 14.65 9.6 15.85 9.55 17 8.75 17.9 8.1 18.75 7.05 18.65 7 18.65 6.95 18.7 6.75 19.2 6.35 19.65 5.45 20.6 4.2 20.5 2.95 20.35 2.1 19.3 1.75 18.85 1.6 18.25 1.1 18.35 0.6 18.35 0.05 18.3 -0.45 18.05 -1.6 19.4 -3.15 19.25 -4.4 19.25 -5.35 18.2 -6.2 18.9 -7.3 18.8 -8.75 18.65 -10.65 17.55 -12.55 16.35 -12.4 14.95 -12.2 13.6 -10.3 12.55
L -9.95 -4.75 6.2 -3.5
M -10.3 12.55
Q -10.05 11.95 -9.65 11.45 -8.5 10.3 -7.1 10.35 -6.55 10.4 -6.15 10.55 -6 10.35 -5.8 10.1 -4.6 8.65 -3 8.8 -1.4 8.95 -0.2 10.55 -0.1 10.75 0.1 11 0.45 10.9 0.8 10.95 1 11 1.25 11.05
L 1.3 11.05"/>

<path id="Duplicate_Items_Folder_right_shoe_copy_5_0_Layer0_0_1_STROKES" stroke="#000000" stroke-width="3" stroke-linejoin="round" stroke-linecap="round" fill="none" d="
M 13.25 -3.6
Q 7.95 -1.9 -0.7 -4.45
L -8.15 -7.3
M -8.2 -7.05
L -36.85 7.5 -23.35 9.55 -25.6 16.55 -14.75 15.95 -7.15 5.9
M 13.5 -3.55
Q 19.205078125 1.550390625 13.1 7.15
L 2.6 10.05 -12.3 24.25 -14.75 15.95
M -11 2.25
L -23.6 8.95"/>

<path id="Duplicate_Items_Folder_body_suit_copy_13_0_Layer0_0_1_STROKES" stroke="#000000" stroke-width="1" stroke-linejoin="round" stroke-linecap="round" fill="none" d="
M 8.85 -42.3
L 9.15 -43.6"/>

<path id="Duplicate_Items_Folder_body_suit_copy_13_0_Layer0_0_2_STROKES" stroke="#0A3243" stroke-width="3" stroke-linejoin="round" stroke-linecap="round" fill="none" d="
M -1.1 -37.7
L -0.8 36.3"/>

<path id="Duplicate_Items_Folder_body_suit_copy_13_0_Layer0_0_3_STROKES" stroke="#0A3243" stroke-width="2" stroke-linejoin="round" stroke-linecap="round" fill="none" d="
M 12.6 22.45
Q 10.3 22.2 8.1 21.15
L 8.35 13.4
M -9.65 20.75
Q -15.35 22.75 -20.35 20.3
L -20.05 9.9
Q -14.75 12.55 -9.35 10.35
L -9.65 20.75 Z"/>

<path id="Duplicate_Items_Folder_body_suit_copy_13_0_Layer0_0_4_STROKES" stroke="#CC0000" stroke-width="2" stroke-linejoin="round" stroke-linecap="round" fill="none" d="
M 25.5 30.3
L 10.55 27.2 10.45 27.45
M 22.8 -24
L 5.4 -7.6 15.3 -0.35 2.05 9.65 8.35 13.4 9.15 13.85
Q 12.05 15.6 14.95 17.3
L 12.6 22.45 10.55 27.2
M 22.8 -24
L 23.15 -24.25
Q 23.15 -24.5 23.2 -24.7"/>

<path id="Duplicate_Items_Folder_mouth_open_copy_3_0_Layer4_0_1_STROKES" stroke="#CC0000" stroke-width="2" stroke-linejoin="round" stroke-linecap="round" fill="none" d="
M 13 8.35
Q 1.97265625 19.21953125 -10.15 5.7
L -7.8 -6.8
Q 1.9912109375 -10.7689453125 12.2 -2.8
L 13 8.35 Z"/>

<path id="Duplicate_Items_Folder_mouth_open_copy_3_0_Layer3_0_1_STROKES" stroke="#000000" stroke-width="1" stroke-linejoin="round" stroke-linecap="round" fill="none" d="
M 10.2 5.25
Q 7.4 2.35 5.7 5.3
L 6.6 10
Q 8.35 9.2 10.75 9
L 10.2 5.25 Z
M -7.05 7.45
Q -5.2 7.75 -3.05 8.85
L -1.55 5.4
Q -2.3 1.45 -5.3 2.95
L -7.05 7.45 Z"/>

<path id="Duplicate_Items_Folder_mouth_open_copy_3_0_Layer2_0_1_STROKES" stroke="#000000" stroke-width="1" stroke-linejoin="round" stroke-linecap="round" fill="none" d="
M 2.375 6.025
L 1.65 10.1 1.55 10.7
Q 3.5 10.65 5.8 11.25
L 6.55 7.6
Q 5 3.85 2.4 5.95
L 2.375 6.025
Q 0.8619140625 2.809375 -1.65 4.8
L -2.5 9.55
Q -0.567578125 9.4013671875 1.65 10.1"/>

<path id="Duplicate_Items_Folder_mouth_open_copy_3_0_Layer1_0_1_STROKES" stroke="#000000" stroke-width="1" stroke-linejoin="round" stroke-linecap="round" fill="none" d="
M 9.9 -3.95
L 11.7 0.8
Q 10.45 5.9 6.6 3.75
L 4.55 -2.3
Q 7.05 -2.55 9.9 -3.95 Z
M -1.45 -0.55
Q -4.6 3.65 -7.3 0.1
L -6.7 -6.25
Q -4.35 -5.5 -1.15 -5.6
L -1.45 -0.55 Z"/>

<path id="Duplicate_Items_Folder_mouth_open_copy_3_0_Layer0_0_1_STROKES" stroke="#000000" stroke-width="1" stroke-linejoin="round" stroke-linecap="round" fill="none" d="
M 6.85 -3.25
L 3.85 4.05
Q -0.2 4.85 -2.5 1.05
L -0.9 -5.8
Q 3.65 -7.2 6.85 -3.25 Z"/>

<path id="glass_0_Layer0_0_1_STROKES" stroke="#00FFFF" stroke-width="2" stroke-linejoin="round" stroke-linecap="round" fill="none" d="
M 31.8 -6.45
L 40.6 17.05 50.25 14.05 53.25 21.9 75.7 20.35
Q 74.7 14 70.7 8 63.45 -2.85 50.5 -6.45 40.6 -9.25 31.8 -6.45 Z
M 39.15 54.6
L 57.85 65.2
Q 54.55 70.6 49.1 74.05 38.75 80.6 26.55 76.55 14.35 72.5 7.55 60.3 3.4 52.95 2.7 45.15
L 26.2 51.8 28.95 61.25 39.15 54.6 Z"/>

<path id="Duplicate_Items_Folder_head_copy_25_7_Layer2_0_1_STROKES" stroke="#000000" stroke-width="3" stroke-linejoin="round" stroke-linecap="round" fill="none" d="
M 38.95 51.95
Q -9.95 58.55 -52.65 28.05 -55.4 26.1 -58.1 24
L -53.1 2.8
Q -11.15 43.25 50.05 29.7
L 45.05 50.95
Q 42 51.5 38.95 51.95 Z"/>

<path id="Duplicate_Items_Folder_head_copy_25_7_Layer1_0_1_STROKES" stroke="#000000" stroke-width="3" stroke-linejoin="round" stroke-linecap="round" fill="none" d="
M 132.2 -123.5
L 137.1 -154.25
Q 149.15 -157.1 156.65 -150.15
L 151.75 -119.8 151.65 -120.6
Q 151.35 -119.3 151.05 -118 145.95 -96.5 133.45 -86 131.3 -84.25 129 -82.7 121.15 -77.9 106.95 -73.85 107.4 -70.55 107 -66.75 101.95 -56.95 91.7 -57.15 92.8 -54.05 93.5 -51.1 105.6 -48.45 110.35 -37.25 116.1 -12.25 99 7 92.1 9.8 83.45 6.9 74.55 20.7 58.8 29.8 31.05 45.95 -2.05 38 -2.85 37.9 -3.55 37.7 -36.8 30.3 -56.05 3.5 -63.85 -7.35 -67.6 -18.9 -69 -23.45 -69.9 -28.1 -78.85 -29.25 -84.15 -34.85 -92.1 -60.35 -77.85 -80.15 -69.25 -88.35 -57.3 -85.55 -49.5 -96 -33.95 -105.45 -6.55 -122.2 25.95 -116.9 27.5 -116.65 29.2 -116.35 48.9 -110.45 63.65 -97.65 69.6 -92.45 74.85 -86.05 79.9 -97.65 93.25 -93.1 96.5 -91.45 98.95 -89.35 126.75 -96.75 131.95 -123.05
L 131.95 -123.1
Q 132 -123.35 132.05 -123.5
L 132.2 -123.5 131.95 -123.1
M 91.7 -57.15
Q 89.8 -57.3 87.75 -57.6 85.45 -73.05 74 -84 74.4 -85.1 74.85 -86.05
M 52.15 -64
Q 52.3 -64.05 52.5 -64.1 53.1 -64.3 53.6 -64.3 55.8 -64.35 57.65 -62.95 59.6 -61.4 60.05 -59.3 60.4 -57.3 59.3 -55.7 59.25 -55.55 59.1 -55.5 58.85 -55.2 58.6 -54.95 67.85 -39.6 66.6 -23.05 67.1 -22.9 67.55 -22.55 68.4 -22 68.95 -20.75 70 -18.95 69.25 -16.65 68.6 -14.35 66.85 -13.25 65.75 -12.6 64.7 -12.45 59.6 5.65 43.45 15.8 43.65 16.45 43.75 17.15 43.65 18.15 42.95 19.2 41.9 21.05 39.6 21.75 37.3 22.4 35.25 21.45 34.45 21.2 34 20.7 19.05 26.6 2.15 23.4 1.55 24.25 0.4 24.75 -1.45 25.8 -3.85 25.15 -6.15 24.55 -7.45 22.8 -8.3 21.65 -8.45 20.55 -25.25 14.5 -36.2 0.75 -36.3 0.8 -36.35 0.9 -36.7 1.2 -37.05 1.45 -38.25 2.15 -39.6 1.95 -40.25 1.95 -40.75 1.75 -42.8 1.1 -44 -0.85 -45.3 -3 -44.9 -5.1 -44.6 -7.2 -43 -8.2 -42.95 -8.3 -42.8 -8.3 -42.8 -8.35 -42.75 -8.35 -42.6 -8.4 -42.35 -8.5 -48.15 -18.95 -49 -30
M 58.6 -54.95
Q 57.65 -54.2 56.1 -54.25 53.95 -54.15 52.15 -55.7 50.1 -57.05 49.65 -59.2 49.35 -61.35 50.3 -62.75 51 -63.65 52.15 -64 43.95 -73.55 32.7 -79.1
M 27.55 -72.525
Q 40.085546875 -67.4943359375 48.75 -56.45 60.95 -40.55 58.2 -21.9 55.35 -3.15 39 7.4 22.75 18.05 2.45 14.4 -15.65 11.35 -27.25 -1.35 -28.8 -3.05 -30.2 -4.9 -32.75 -8.15 -34.55 -11.45 -40.32890625 -21.710546875 -40.1 -33.125
M -49 -30
Q -49.65 -36.35 -48.55 -42.85 -48.95 -42.9 -49.4 -43 -51.2 -43.55 -52.2 -45.35 -53.2 -47.25 -52.6 -49.5 -51.85 -51.75 -50.1 -52.95 -48.15 -54.05 -46.3 -53.65 -46.05 -53.6 -45.75 -53.4 -40.45 -67.45 -27.6 -76.1 -28.4 -76.85 -28.95 -77.8 -29.4 -79.1 -28.95 -80.35 -28.8 -80.9 -28.55 -81.45 -27.45 -83.15 -25.15 -83.9 -22.8 -84.5 -20.75 -83.7 -18.9 -82.85 -18.2 -81.3 -11.05 -84.4 -3.35 -85.35 1.9 -86.15 7.6 -85.75 11.1 -85.55 14.8 -84.9 15.2 -86.65 17 -87.55 18.9 -88.55 21.2 -88 23.55 -87.35 24.9 -85.6 26.1 -83.75 25.85 -82
L 25.85 -81.95
Q 29.4 -80.65 32.7 -79.1
M 25.85 -81.95
Q 25.4 -80.2 23.55 -79.3 21.7 -78.35 19.35 -78.9 17 -79.5 15.7 -81.3 14.35 -83.05 14.75 -84.85 14.75 -84.9 14.8 -84.9
M -40.1 -33.125
Q -40.05234375 -36.215234375 -39.55 -39.4 -39.55 -39.65 -39.5 -39.85 -36.45 -58.15 -20.4 -68.7 -4.15 -79.45 16.15 -75.8 17.3 -75.6 18.45 -75.3 23.2294921875 -74.275 27.55 -72.525
M 64.7 -12.45
Q 64.6 -12.45 64.5 -12.45 63.85 -12.4 63.15 -12.55 61.4 -13.05 60.4 -14.9 59.3 -16.75 60.05 -19.05 60.7 -21.3 62.5 -22.5 64.4 -23.6 66.2 -23.2 66.35 -23.15 66.6 -23.05
M 98.95 -89.35
Q 105.85 -83.5 106.95 -73.85
M 83.45 6.9
L 77 5.25
Q 87.05 -20.7 87.3 -49.3
L 93.5 -51.1
M 34 20.7
Q 33.6 20.4 33.3 20.05 32.9 19.55 32.6 18.95 32.05 17.15 33.05 15.4 34.1 13.6 36.35 12.9 38.7 12.25 40.7 13.1 42.8 14.15 43.45 15.8
M -8.45 20.55
Q -8.55 19.9 -8.45 19.3 -8 17.5 -6.1 16.5 -4.3 15.55 -2 16.05 0.5 16.7 1.7 18.5 3.05 20.3 2.65 22.1 2.6 22.8 2.15 23.4
M -18.2 -81.3
Q -18.2 -81.1 -18.05 -81 -18 -80.85 -18 -80.7 -17.5 -79.15 -18.55 -77.6 -19.6 -75.75 -22 -75.1 -24.25 -74.35 -26.3 -75.25 -27 -75.65 -27.6 -76.1
M -69.9 -28.1
L -63.3 -26.8
Q -62.85 -54.9 -52.2 -81.05
L -57.3 -85.55
M -45.75 -53.4
Q -44.45 -52.8 -43.7 -51.25 -42.6 -49.4 -43.35 -47.1 -43.95 -44.8 -45.7 -43.7 -47.15 -42.85 -48.55 -42.85
M -42.35 -8.5
Q -41 -9.05 -39.45 -8.4 -37.35 -7.9 -36.15 -5.65 -34.8 -3.75 -35.2 -1.65 -35.45 -0.25 -36.2 0.75"/>

<path id="Duplicate_Items_Folder_head_copy_25_7_Layer0_0_1_STROKES" stroke="#000000" stroke-width="2" stroke-linejoin="round" stroke-linecap="round" fill="none" d="
M 23.25 -112.65
L 16.5 -106.2
M 23.5 -112.6
L 30.9 -109.925 28.9 -115.95
M 30.9 -109.925
L 33.975 -100.675 27.25 -93.75 36.55 -81.75 37.5 -94.3 39.75 -95.925 44.05 -99.05 42 -107.45 45.75 -109.3
M 23.35 -116.75
L 28.9 -115.95
M 16.2 -105.85
L 8.55 -109.65 3.25 -105.8
M 45.75 -109.3
L 51.85 -106.1
M 50 -90.425
L 49.75 -84.95
M 39.75 -95.925
L 49.5 -90.45
M 64.35 -43.4
L 71.65 -51.25
M 72.3 -51.05
L 76.6 -40.35
M -71 -84.35
L -70.8 -83.15
M -78.15 -76.775
L -79.85 -78.25
M -70.8 -83.15
L -68.5 -68.5 -78.15 -76.775
M -57.75 -8.4
L -56.95 -16.975 -59.6 -16.55
M -56.45 -22.45
L -56.95 -16.975 -47.5 -18.55"/>
</defs>

<g transform="matrix( 5.1452178955078125, 0, 0, 5.1452178955078125, 43,509.85) ">
<g transform="matrix( 0.32159423828125, 0.022705078125, -0.022705078125, 0.32159423828125, 34.5,-10.95) ">
<g transform="matrix( 0.0681304931640625, 1.7183837890625, -1.7183837890625, 0.0681304931640625, -5.45,19.1) ">
<g transform="matrix( 1, 0, 0, 1, 0,0) ">
<use xlink:href="#Duplicate_Items_Folder_bone_copy_2_0_Layer0_0_FILL"/>
</g>
</g>

<g transform="matrix( 1, 0, 0, 1, 0,0) ">
<use xlink:href="#Duplicate_Items_Folder_leg_suit_copy_8_0_Layer1_0_FILL"/>

<use xlink:href="#Duplicate_Items_Folder_leg_suit_copy_8_0_Layer1_0_1_STROKES"/>
</g>

<g transform="matrix( 1, 0, 0, 1, 0,0) ">
<use xlink:href="#Duplicate_Items_Folder_leg_suit_copy_8_0_Layer0_0_FILL"/>
</g>
</g>

<g transform="matrix( 0.0232696533203125, 0.30950927734375, 0.3279266357421875, -0.0246429443359375, 27.6,-29.75) ">
<g transform="matrix( 1, 0, 0, 1, 0,0) ">
<use xlink:href="#Duplicate_Items_Folder_arm_chainsaw_copy_0_Layer1_0_FILL"/>
</g>

<g transform="matrix( 1, 0, 0, 1, 0,0) ">
<use xlink:href="#Duplicate_Items_Folder_arm_chainsaw_copy_0_Layer0_0_FILL"/>
</g>
</g>

<g transform="matrix( -0.33135986328125, 0.014373779296875, 0.014373779296875, 0.33135986328125, 50.8,-10.7) ">
<g transform="matrix( 1, 0, 0, 1, 0,0) ">
<use xlink:href="#Duplicate_Items_Folder_leg_suit_copy_9_0_Layer1_0_FILL"/>
</g>

<g transform="matrix( 1.15313720703125, 0.0055694580078125, -0.0055694580078125, 1.15313720703125, -4.05,17.25) ">
<g transform="matrix( 1, 0, 0, 1, 0,0) ">
<use xlink:href="#Duplicate_Items_Folder_right_shoe_copy_5_0_Layer0_0_FILL"/>

<use xlink:href="#Duplicate_Items_Folder_right_shoe_copy_5_0_Layer0_0_1_STROKES"/>
</g>
</g>
</g>

<g transform="matrix( 0.3319091796875, -0.013824462890625, 0.0097503662109375, 0.3315277099609375, 42.15,-31.25) ">
<g transform="matrix( 1, 0, 0, 1, 0,0) ">
<use xlink:href="#Duplicate_Items_Folder_body_suit_copy_13_0_Layer0_0_FILL"/>

<use xlink:href="#Duplicate_Items_Folder_body_suit_copy_13_0_Layer0_0_1_STROKES"/>

<use xlink:href="#Duplicate_Items_Folder_body_suit_copy_13_0_Layer0_0_2_STROKES"/>

<use xlink:href="#Duplicate_Items_Folder_body_suit_copy_13_0_Layer0_0_3_STROKES"/>

<use xlink:href="#Duplicate_Items_Folder_body_suit_copy_13_0_Layer0_0_4_STROKES"/>
</g>
</g>

<g transform="matrix( -0.298370361328125, -0.012969970703125, -0.012969970703125, 0.298370361328125, 58.25,-28.6) ">
<g transform="matrix( 1, 0, 0, 1, 0,0) ">
<use xlink:href="#Duplicate_Items_Folder_arm_suit_copy_15_0_Layer1_0_FILL"/>
</g>

<g transform="matrix( 1, 0, 0, 1, 0,0) ">
<use xlink:href="#Duplicate_Items_Folder_arm_suit_copy_15_0_Layer0_0_FILL"/>
</g>
</g>

<g transform="matrix( 0.22796630859375, -0.06146240234375, 0.0524444580078125, 0.23004150390625, 40.85,-51.55) ">
<g transform="matrix( 1, 0, 0, 1, 0,0) ">
<use xlink:href="#Duplicate_Items_Folder_head_copy_25_7_Layer10_0_FILL"/>
</g>

<g transform="matrix( 1, 0, 0, 1, 0,0) ">
<use xlink:href="#Duplicate_Items_Folder_head_copy_25_7_Layer9_0_FILL"/>
</g>

<g transform="matrix( 1, 0, 0, 1, 0,0) ">
<use xlink:href="#Duplicate_Items_Folder_head_copy_25_7_Layer8_0_FILL"/>
</g>

<g transform="matrix( 1, 0, 0, 1, 0,0) ">
<use xlink:href="#Duplicate_Items_Folder_head_copy_25_7_Layer7_0_FILL"/>
</g>

<g transform="matrix( -0.7572479248046875, -0.11053466796875, -0.11053466796875, 0.7572479248046875, 54.8,-61.75) ">
<g transform="matrix( 1, 0, 0, 1, 0,0) ">
<use xlink:href="#Duplicate_Items_Folder_eye_blink_copy_4_14_Layer2_0_FILL"/>
</g>
</g>

<g transform="matrix( 0.67547607421875, -0.1597747802734375, 0.143402099609375, 0.606201171875, -32.75,-57.3) ">
<g transform="matrix( 1, 0, 0, 1, 0,0) ">
<use xlink:href="#Duplicate_Items_Folder_eye_blink_copy_4_14_Layer2_0_FILL"/>
</g>
</g>

<g transform="matrix( 1.223876953125, -0.229400634765625, 0.2053680419921875, 1.0956878662109375, 6.75,-8.95) ">
<g transform="matrix( 1, 0, 0, 1, 0,0) ">
<use xlink:href="#Duplicate_Items_Folder_mouth_open_copy_3_0_Layer4_0_FILL"/>

<use xlink:href="#Duplicate_Items_Folder_mouth_open_copy_3_0_Layer4_0_1_STROKES"/>
</g>

<g transform="matrix( 1, 0, 0, 1, 0,0) ">
<use xlink:href="#Duplicate_Items_Folder_mouth_open_copy_3_0_Layer3_0_FILL"/>

<use xlink:href="#Duplicate_Items_Folder_mouth_open_copy_3_0_Layer3_0_1_STROKES"/>
</g>

<g transform="matrix( 1, 0, 0, 1, 0,0) ">
<use xlink:href="#Duplicate_Items_Folder_mouth_open_copy_3_0_Layer2_0_FILL"/>

<use xlink:href="#Duplicate_Items_Folder_mouth_open_copy_3_0_Layer2_0_1_STROKES"/>
</g>

<g transform="matrix( 1, 0, 0, 1, 0,0) ">
<use xlink:href="#Duplicate_Items_Folder_mouth_open_copy_3_0_Layer1_0_FILL"/>

<use xlink:href="#Duplicate_Items_Folder_mouth_open_copy_3_0_Layer1_0_1_STROKES"/>
</g>

<g transform="matrix( 1, 0, 0, 1, 0,0) ">
<use xlink:href="#Duplicate_Items_Folder_mouth_open_copy_3_0_Layer0_0_FILL"/>

<use xlink:href="#Duplicate_Items_Folder_mouth_open_copy_3_0_Layer0_0_1_STROKES"/>
</g>
</g>

<g transform="matrix( 1.4495086669921875, 0, 0, 1.413330078125, -45.7,-79.25) ">
<g transform="matrix( 1, 0, 0, 1, 0,0) ">
<use filter="url(#Filter_1)" xlink:href="#glass_0_Layer0_0_FILL"/>

<use filter="url(#Filter_1)" xlink:href="#glass_0_Layer0_0_1_STROKES"/>
</g>
</g>

<g transform="matrix( 1.4495086669921875, 0, 0, 1.413330078125, 148.4,-159.2) "/>

<g transform="matrix( 1, 0, 0, 1, 0,0) ">
<use xlink:href="#Duplicate_Items_Folder_head_copy_25_7_Layer2_0_FILL"/>

<use xlink:href="#Duplicate_Items_Folder_head_copy_25_7_Layer2_0_1_STROKES"/>
</g>

<g transform="matrix( 1, 0, 0, 1, 0,0) ">
<use xlink:href="#Duplicate_Items_Folder_head_copy_25_7_Layer1_0_FILL"/>

<use xlink:href="#Duplicate_Items_Folder_head_copy_25_7_Layer1_0_1_STROKES"/>
</g>

<g transform="matrix( 1, 0, 0, 1, 0,0) ">
<use xlink:href="#Duplicate_Items_Folder_head_copy_25_7_Layer0_0_FILL"/>

<use xlink:href="#Duplicate_Items_Folder_head_copy_25_7_Layer0_0_1_STROKES"/>
</g>
</g>
</g>
</svg>
