
<svg xmlns="http://www.w3.org/2000/svg" version="1.1" xmlns:xlink="http://www.w3.org/1999/xlink" preserveAspectRatio="none" x="0px" y="0px" width="560px" height="544px" viewBox="0 0 560 544">
<defs>
<g id="Duplicate_Items_Folder_full_size_copy_0_Layer4_0_FILL">
<path fill="#A50303" stroke="none" d="
M 92.15 -40.35
Q 92.089453125 -40.16875 92 -40 91.45 -39.05 90.65 -38.5 89.05 -37.4 82.6 -37.4 81.9 -37.4 81.15 -37.35 79.97578125 -37.266796875 78.8 -37.05 88.3068359375 -28.51796875 90.05 -18.95 93.912109375 -23.2626953125 95.05 -29.4 96.4236328125 -36.81875 96.4 -41.45 94.1759765625 -40.403125 92.15 -40.35
M 80.35 -12.6
Q 74.3798828125 -20.786328125 63.15 -24.6 62.963671875 -24.2455078125 62.8 -23.9 62.75 -23.8 62.7 -23.65 60.848828125 -19.6392578125 58.85 -10 65.926171875 -8.380078125 72 -3.75 72.055078125 -4.0458984375 72.1 -4.35 72.2783203125 -5.53359375 72.9 -6.65 74.2876953125 -9.0052734375 77.7 -11.1 78.820703125 -11.78046875 80.35 -12.6
M 13.8 -24.9
Q 9.0103515625 -25.1962890625 5 -26 3.80546875 -24.340625 3 -22.9 2.4 -21.75 1.85 -20.55 0.1 -16.4 -0.35 -11.55 -0.6427734375 -8.671875 -0.45 -5.6 6.0953125 -5.83125 12.65 -8.4 12.5796875 -8.781640625 12.5 -9.2 12.06484375 -12.4734375 12.1 -15.5 12.228515625 -20.598828125 13.8 -24.9
M 38.9 -53.75
Q 37.968359375 -55.944921875 36.45 -57.65 32.2298828125 -53.0330078125 27.15 -48.2 24.3 -45.5 21.2 -42.75 20.105859375 -41.773828125 19.05 -40.85 21.29375 -39.939453125 23.95 -39.3 27.778515625 -43.2984375 32.95 -48.05 36.075 -50.9212890625 38.9 -53.75
M 62.65 -86.55
Q 62.9236328125 -87.482421875 63.15 -88.45 58.4943359375 -90.5296875 53.85 -90.95 53.3923828125 -86.0595703125 51.95 -81.5 51.7 -80.65 51.4 -79.7 49.8765625 -75.4283203125 47.5 -71.5 49.9240234375 -69.8181640625 51.65 -67.5 53.8271484375 -70.09296875 55.7 -72.65 60.5078125 -79.0927734375 62.65 -86.55
M 51.25 -112.7
Q 51.05 -113.5 50.8 -114.25 50.369140625 -115.72421875 49.7 -117.05 46.0765625 -114.334765625 43.35 -109.75 44.5384765625 -107.610546875 45.55 -104.7 45.7349609375 -104.20390625 45.9 -103.7 46.2294921875 -102.711328125 46.35 -101.65 49.4908203125 -103.6931640625 53.15 -105 52.49921875 -108.3607421875 51.25 -112.7
M 19.7 -109.6
Q 11.3251953125 -115.477734375 8.95 -123.05 6.412890625 -121.6576171875 3.85 -119.85 2.4 -118.85 1 -117.75 -0.0138671875 -116.9423828125 -1 -116.1
L 6.25 -101.65
Q 12.480078125 -105.6302734375 19.7 -109.6
M 27.2 -128.1
Q 26.3330078125 -128.0580078125 25.45 -128 26.5640625 -121.33046875 32.05 -115.3 33.7421875 -115.6833984375 35.2 -115.65 36.734375 -115.59296875 38 -115.1 37.033984375 -120.643359375 39.25 -126.2 38.9099609375 -126.3228515625 38.55 -126.45 33.5 -128.35 27.2 -128.1 Z"/>

<path fill="#000000" stroke="none" d="
M 88.35 -60.75
Q 87.9724609375 -57.9099609375 87.1 -57 86.5400390625 -56.3541015625 85.7 -56.65 87.9080078125 -53.479296875 88.05 -49.7 88.2294921875 -44.815234375 86.6 -42.45 89.1171875 -40.2677734375 92.15 -40.35 94.1759765625 -40.403125 96.4 -41.45 96.410546875 -42.372265625 96.35 -43.2 96.1283203125 -46.25703125 94.25 -50.5 93.1642578125 -52.9333984375 91.5 -55.8 89.8369140625 -58.68671875 88.35 -60.75
M 58.85 -10
Q 54.0583984375 -11.08515625 48.8 -10.8 48.7263671875 -10.49921875 48.6 -10.2 48.4654296875 -9.70390625 48.3 -9.2 46.15 -2.65 44.7 3.05 44.6658203125 3.5138671875 49.85 4.55 53.126953125 5.210546875 56.15 5.35 57.9193359375 5.45625 59.6 5.35 64.1578125 5.144921875 71.25 4.25 71.25 1.55078125 72 -3.75 65.926171875 -8.380078125 58.85 -10
M 78.8 -37.05
Q 77.2513671875 -38.455078125 75.45 -39.85 69.769140625 -39.4271484375 64.35 -35.7 58.30078125 -31.45 55.45 -26.9 55.3646484375 -26.737890625 55.25 -26.6 59.487890625 -25.8267578125 63.15 -24.6 74.3798828125 -20.786328125 80.35 -12.6 82.7015625 -13.820703125 86 -15.35 88.3173828125 -16.951953125 90.05 -18.95 88.3068359375 -28.51796875 78.8 -37.05
M 7.05 4.1
Q 11.269921875 3.73671875 18.5 3.85 14.160546875 1.4509765625 12.65 -8.4 6.0953125 -5.83125 -0.45 -5.6 -8.2921875 -5.33046875 -16.15 -8.4 -15.96015625 -7.56015625 -15.75 -6.7 -14.4 -1.3 -12.15 2.6 -12.08515625 2.6896484375 -10.2 3.55 -8.2974609375 4.392578125 -2.7 4.4 -0.3453125 4.4412109375 1.75 4.35 4.6517578125 4.3103515625 7.05 4.1
M 5 -26
Q 9.0103515625 -25.1962890625 13.8 -24.9 14.2990234375 -26.1546875 14.9 -27.35 17.344921875 -32.213671875 23.95 -39.3 21.29375 -39.939453125 19.05 -40.85 11.8533203125 -43.71015625 9.45 -48.95 7.136328125 -46.8779296875 4.5 -44.55 -3.851171875 -37.1693359375 -8.7 -31.8 -3.7759765625 -27.7044921875 5 -26
M 51.65 -67.5
Q 49.9240234375 -69.8181640625 47.5 -71.5 42.43046875 -75.0748046875 34.3 -75.65 30.4369140625 -70.6283203125 24.65 -63.65 24.288671875 -63.2099609375 23.8 -62.7 32.2716796875 -62.2732421875 36.45 -57.65 37.968359375 -55.944921875 38.9 -53.75 46.1681640625 -60.8267578125 51.65 -67.5
M 53.15 -105
Q 49.4908203125 -103.6931640625 46.35 -101.65 46.966796875 -96.69140625 43.55 -89.7 48.6943359375 -91.3564453125 53.85 -90.95 58.4943359375 -90.5296875 63.15 -88.45 64.3623046875 -93.480859375 64.4 -99 64.4033203125 -103.037890625 63.8 -107 57.9990234375 -106.65625 53.15 -105
M 38 -115.1
Q 38.47109375 -114.9306640625 38.9 -114.7 41.353125 -113.3404296875 43.35 -109.75 46.0765625 -114.334765625 49.7 -117.05 54.134765625 -120.3650390625 59.9 -120.95 59.5998046875 -121.7287109375 59.25 -122.6 56.2123046875 -130.5552734375 46.9 -134.55 46.0115234375 -134.9435546875 45.05 -135.3 41.08671875 -130.730859375 39.25 -126.2 37.033984375 -120.643359375 38 -115.1
M 25.45 -128
Q 24.766796875 -131.93984375 25.65 -136.15 25.3486328125 -136.0603515625 25.05 -136 21.4966796875 -135.2859375 18 -133.9 12.973828125 -131.8486328125 8.05 -128.4 8.177734375 -125.6130859375 8.95 -123.05 11.3251953125 -115.477734375 19.7 -109.6 22.89921875 -111.345703125 26.3 -113.1 27.1576171875 -113.5421875 27.95 -113.9 30.147265625 -114.8744140625 32.05 -115.3 26.5640625 -121.33046875 25.45 -128 Z"/>

<path fill="#FF0000" stroke="none" d="
M 48.8 -10.8
Q 54.0583984375 -11.08515625 58.85 -10 60.848828125 -19.6392578125 62.7 -23.65 62.75 -23.8 62.8 -23.9 62.963671875 -24.2455078125 63.15 -24.6 59.487890625 -25.8267578125 55.25 -26.6 52.6517578125 -22.209765625 48.8 -10.8
M 75.45 -39.85
Q 77.2513671875 -38.455078125 78.8 -37.05 79.97578125 -37.266796875 81.15 -37.35 81.9 -37.4 82.6 -37.4 89.05 -37.4 90.65 -38.5 91.45 -39.05 92 -40 92.089453125 -40.16875 92.15 -40.35 89.1171875 -40.2677734375 86.6 -42.45 86.0013671875 -41.49921875 85.1 -40.95 83.3501953125 -39.9 76.9 -39.9 76.1779296875 -39.9 75.45 -39.85
M 75.95 -65.95
Q 68.95 -64.85 72.9 -64.85 74.453515625 -64.85 76.4 -64 78.400390625 -63.1390625 80.8 -61.45 81.019140625 -61.2697265625 81.25 -61.1 84.0775390625 -59.0494140625 85.7 -56.65 86.5400390625 -56.3541015625 87.1 -57 87.9724609375 -57.9099609375 88.35 -60.75 86.9208984375 -62.71171875 85.65 -63.95 84.7609375 -64.7685546875 83.95 -65.25 83.083203125 -65.75703125 81.9 -66 79.5501953125 -66.5220703125 75.95 -65.95
M 1.85 -20.55
Q 2.4 -21.75 3 -22.9 3.80546875 -24.340625 5 -26 -3.7759765625 -27.7044921875 -8.7 -31.8 -12.1111328125 -28.0009765625 -13.8 -25.2 -18.0353515625 -18.1564453125 -16.15 -8.4 -8.2921875 -5.33046875 -0.45 -5.6 -0.6427734375 -8.671875 -0.35 -11.55 0.1 -16.4 1.85 -20.55
M 36.45 -57.65
Q 32.2716796875 -62.2732421875 23.8 -62.7 21.3705078125 -59.9412109375 16 -54.95 13.138671875 -52.2640625 9.45 -48.95 11.8533203125 -43.71015625 19.05 -40.85 20.105859375 -41.773828125 21.2 -42.75 24.3 -45.5 27.15 -48.2 32.2298828125 -53.0330078125 36.45 -57.65
M 51.95 -81.5
Q 53.3923828125 -86.0595703125 53.85 -90.95 48.6943359375 -91.3564453125 43.55 -89.7 42.228515625 -86.975390625 40.3 -83.95 38.3736328125 -80.8935546875 34.3 -75.65 42.43046875 -75.0748046875 47.5 -71.5 49.8765625 -75.4283203125 51.4 -79.7 51.7 -80.65 51.95 -81.5
M 50.8 -114.25
Q 51.05 -113.5 51.25 -112.7 52.49921875 -108.3607421875 53.15 -105 57.9990234375 -106.65625 63.8 -107 63.6203125 -108.22265625 63.35 -109.45 62.4474609375 -114.04921875 59.9 -120.95 54.134765625 -120.3650390625 49.7 -117.05 50.369140625 -115.72421875 50.8 -114.25
M 8.05 -128.4
Q 6.6357421875 -127.3529296875 5.2 -126.2 2.2 -123.75 -0.35 -121.05
L -2.35 -118.85 -1 -116.1
Q -0.0138671875 -116.9423828125 1 -117.75 2.4 -118.85 3.85 -119.85 6.412890625 -121.6576171875 8.95 -123.05 8.177734375 -125.6130859375 8.05 -128.4
M 25.65 -136.15
Q 24.766796875 -131.93984375 25.45 -128 26.3330078125 -128.0580078125 27.2 -128.1 33.5 -128.35 38.55 -126.45 38.9099609375 -126.3228515625 39.25 -126.2 41.08671875 -130.730859375 45.05 -135.3 39.434765625 -137.2416015625 32.65 -136.95 29.2947265625 -136.81953125 25.65 -136.15 Z"/>
</g>

<g id="Duplicate_Items_Folder_full_size_copy_0_Layer3_0_FILL">
<path fill="#4DFEFF" stroke="none" d="
M 0.9 -125.55
L 0.65 -130.9
Q -1.6779296875 -132.65 -2.65 -120.75
L -5.95 -125.1
Q -7.9744140625 -121.275 -5.95 -117.45
L -10.15 -124.6
Q -10.959765625 -116.75 -7.9 -111.7
L -15.05 -115.9
Q -13.8556640625 -110.0755859375 -8.75 -106.3
L -14.15 -104.7
Q -13.8560546875 -103.6705078125 -11.75 -102.25 -9.5955078125 -100.784765625 -8.85 -100.45 -8.0515625 -100.1052734375 -10.9 -99.4 -12.35 -99.05 -13.8 -98.8 -12.409765625 -97.704296875 -7.55 -97.6
L -12.95 -95.15 -6.65 -93.4 -8.4 -89.2
Q -3.1 -87.6974609375 6.05 -91.1 12.245703125 -87.1974609375 19.5 -90.1
L 16.5 -92 21.75 -92 17.9 -96
Q 21.9896484375 -92.5580078125 25.05 -94.1 20.5525390625 -96.775 19.15 -100 23.362109375 -95.6873046875 30.45 -96
L 19.85 -102.65
Q 24.9748046875 -100.107421875 30.1 -100.35 25.48671875 -103.6263671875 20.4 -104.85 23.78359375 -104.1546875 27.15 -105.4
L 20.55 -107.5
Q 25.8333984375 -107.0146484375 29.3 -109.8 21.8298828125 -108.930859375 19.15 -111.65 21.6353515625 -112.169140625 25.05 -115.9 18.3818359375 -114.7544921875 15.15 -115.9
L 22.1 -119.55 13.55 -118.65
Q 18.3328125 -122.0083984375 25.6 -122.35 16.8302734375 -124.7634765625 10.95 -122.85 12.725390625 -127.115234375 20.55 -130.7 12.6220703125 -130.9162109375 8.1 -127.25 6.70703125 -130.821875 13.2 -134.55 8.02890625 -135.5828125 4.2 -131.3 1.1275390625 -127.8140625 0.9 -125.55
L 1 -123.75 0.9 -125.55
M 0 -118.6
Q 0.1 -120.05 2.1 -122.35 4.5 -125.15 7.95 -124.65 3.75 -122.1 4.7 -119.9 7.65 -122.35 12.9 -122.45 7.8 -119.95 6.7 -117.25 10.6 -118.6 16.45 -117.4 11.65 -116.9 8.5 -114.65
L 14.15 -115.55 9.65 -113
Q 11.8 -112.4 16.2 -113.35 14 -110.85 12.4 -110.5 14.25 -108.9 19.1 -109.65 16.95 -107.75 13.4 -107.95
L 17.8 -106.8
Q 15.65 -105.95 13.4 -106.3 16.75 -105.7 19.9 -103.75 16.5 -103.4 13.1 -104.85
L 20.25 -101.05
Q 15.55 -100.6 12.65 -103.2 13.65 -101.2 16.7 -99.7 14.7 -98.6 11.95 -100.65
L 14.6 -98.3 11.1 -98.1 13.15 -97
Q 8.4 -94.95 4.2 -97.2 -1.75 -94.8 -5.3 -95.55
L -4.25 -98.25 -8.45 -99.15 -4.95 -100.85
Q -8.15 -100.75 -9.1 -101.4 -8.15 -101.6 -7.2 -101.85 -5.3 -102.4 -5.8 -102.6 -6.35 -102.8 -7.8 -103.6 -9.25 -104.45 -9.45 -105.1
L -5.95 -106.3
Q -9.4 -108.45 -10.3 -112.1
L -5.45 -109.65
Q -7.65 -112.75 -7.25 -117.7
L -4.35 -113.3
Q -5.75 -115.65 -4.55 -118.1
L -2.25 -115.5
Q -1.85 -123 -0.25 -121.95
L 0 -118.6 Z"/>

<path fill="#008EB3" stroke="none" d="
M 2.1 -122.35
Q 0.1 -120.05 0 -118.6
L -0.25 -121.95
Q -1.85 -123 -2.25 -115.5
L -4.55 -118.1
Q -5.75 -115.65 -4.35 -113.3
L -7.25 -117.7
Q -7.65 -112.75 -5.45 -109.65
L -10.3 -112.1
Q -9.4 -108.45 -5.95 -106.3
L -9.45 -105.1
Q -9.25 -104.45 -7.8 -103.6 -6.35 -102.8 -5.8 -102.6 -5.3 -102.4 -7.2 -101.85 -8.15 -101.6 -9.1 -101.4 -8.15 -100.75 -4.95 -100.85
L -8.45 -99.15 -4.25 -98.25 -5.3 -95.55
Q -1.75 -94.8 4.2 -97.2 8.4 -94.95 13.15 -97
L 11.1 -98.1 14.6 -98.3 11.95 -100.65
Q 14.7 -98.6 16.7 -99.7 13.65 -101.2 12.65 -103.2 15.55 -100.6 20.25 -101.05
L 13.1 -104.85
Q 16.5 -103.4 19.9 -103.75 16.75 -105.7 13.4 -106.3 15.65 -105.95 17.8 -106.8
L 13.4 -107.95
Q 16.95 -107.75 19.1 -109.65 14.25 -108.9 12.4 -110.5 14 -110.85 16.2 -113.35 11.8 -112.4 9.65 -113
L 14.15 -115.55 8.5 -114.65
Q 11.65 -116.9 16.45 -117.4 10.6 -118.6 6.7 -117.25 7.8 -119.95 12.9 -122.45 7.65 -122.35 4.7 -119.9 3.75 -122.1 7.95 -124.65 4.5 -125.15 2.1 -122.35 Z"/>
</g>

<g id="Duplicate_Items_Folder_full_size_copy_0_Layer2_0_FILL">
<path fill="#C6C6C6" stroke="none" d="
M 5.95 -90.35
L 5.95 -91.2
Q 5.4392578125 -90.76953125 4.95 -90.45
L 5.95 -90.35
M 0.9 -88.35
L 1 -88.45
Q -0.7927734375 -88.258984375 -0.95 -90.7 -1.05 -89 -0.1 -88.5
L 0.9 -88.35
M 13.7 -89.35
L 15.25 -92.95
Q 16.75 -96.7 16.75 -97.45 16.75 -97.5083984375 16.75 -97.6
L 15.05 -99.9
Q 14.0783203125 -94.0517578125 5.95 -91.2
L 5.95 -90.35 4.95 -90.45 3.3 -90.55 1 -88.45 0.9 -88.35 -0.1 -88.5
Q -1.05 -89 -0.95 -90.7 -0.946484375 -90.74609375 -0.95 -90.8
L -0.95 -90.85
Q -0.8662109375 -91.8361328125 -0.85 -92.75
L -4.5 -91.1
Q -3.462109375 -89.5341796875 -1.55 -87.55
L 0.9 -85.15
Q 1.8861328125 -83.6169921875 3.4 -81.2 4.9103515625 -78.7873046875 7.3 -79.8 9.746484375 -80.804296875 11.85 -85.1 12.9 -87.25 13.7 -89.35 Z"/>

<path fill="#AAA79B" stroke="none" d="
M 1.95 -104.5
Q 8.85 -105.2017578125 9.4 -105.8 10 -106.3494140625 9.4 -107.3 8.8 -108.3 7.85 -108.9 6.95 -109.5 5 -109 3.2 -108.55 2.1 -107.7 1.8 -107.5 0.45 -106.1 -0.45 -105.2 -1.25 -105 -2.05 -104.8 -2.75 -105.3 -4.1 -106.35 -4.45 -106.55 -5.65 -107.15 -5.75 -105.2 -5.85 -103.25 -4.8 -102.85 -3.6 -102.4 -2.65 -101.45 -1.45 -100.25 -1.1 -98.6 -1.0888671875 -98.547265625 -1.1 -98.5 -1.327734375 -101.23515625 1.95 -104.5 Z"/>

<path fill="#D9D7D1" stroke="none" d="
M 9.4 -105.8
Q 8.85 -105.2017578125 1.95 -104.5 -1.327734375 -101.23515625 -1.1 -98.5 -0.66484375 -96.43046875 -0.85 -92.75 -0.8662109375 -91.8361328125 -0.95 -90.85
L -0.95 -90.8
Q -0.946484375 -90.74609375 -0.95 -90.7 -0.7927734375 -88.258984375 1 -88.45
L 3.3 -90.55 4.95 -90.45
Q 5.4392578125 -90.76953125 5.95 -91.2
L 5.95 -92.9 5.95 -91.2
Q 14.0783203125 -94.0517578125 15.05 -99.9
L 12.35 -103.55
Q 14.0763671875 -108.05 9.05 -112.4 3.4908203125 -118.84140625 -0.55 -113.1 -5.4109375 -111.2650390625 -7.9 -106.55 -7.9556640625 -106.3005859375 -8 -106.05 -8.35 -104 -7.3 -99.2 -6.35 -94.6 -5.15 -92.2 -4.885546875 -91.6708984375 -4.5 -91.1
L -0.85 -92.75
Q -0.66484375 -96.43046875 -1.1 -98.5 -1.0888671875 -98.547265625 -1.1 -98.6 -1.45 -100.25 -2.65 -101.45 -3.6 -102.4 -4.8 -102.85 -5.85 -103.25 -5.75 -105.2 -5.65 -107.15 -4.45 -106.55 -4.1 -106.35 -2.75 -105.3 -2.05 -104.8 -1.25 -105 -0.45 -105.2 0.45 -106.1 1.8 -107.5 2.1 -107.7 3.2 -108.55 5 -109 6.95 -109.5 7.85 -108.9 8.8 -108.3 9.4 -107.3 10 -106.3494140625 9.4 -105.8
M 0.4 -93.65
Q 0.7 -94.3 1.1 -94.3 1.498828125 -94.3 1.3 -93.65 1.103515625 -93 1.2 -92.1 1.296484375 -91.2 1.4 -90.55 1.501171875 -89.9 1.1 -89.9 0.7 -89.9 0.4 -90.55 0.15 -91.2 0.15 -92.1 0.15 -93 0.4 -93.65 Z"/>

<path fill="#F7F7F7" stroke="none" d="
M 1.1 -94.3
Q 0.7 -94.3 0.4 -93.65 0.15 -93 0.15 -92.1 0.15 -91.2 0.4 -90.55 0.7 -89.9 1.1 -89.9 1.501171875 -89.9 1.4 -90.55 1.296484375 -91.2 1.2 -92.1 1.103515625 -93 1.3 -93.65 1.498828125 -94.3 1.1 -94.3
M 9.15 -116.8
Q 8.1 -117.85 4.3 -117.85 2.45 -117.85 0.75 -117.65 -5.850390625 -117.356640625 -7.9 -106.55 -5.4109375 -111.2650390625 -0.55 -113.1 3.4908203125 -118.84140625 9.05 -112.4 14.0763671875 -108.05 12.35 -103.55
L 15.05 -99.9 16.75 -97.6
Q 16.6603515625 -98.230078125 15.75 -99.55 15.562890625 -99.813671875 15.4 -100.05 14.6330078125 -101.1935546875 14.55 -101.65 14.45 -102.15 14.3 -105.65 14.1 -109.2 13.9 -110.4 13.65 -111.85 12.05 -113.8 11.2 -114.85 9.15 -116.8 Z"/>
</g>

<g id="Duplicate_Items_Folder_full_size_copy_0_Layer1_0_FILL">
<path fill="#FF0000" stroke="none" d="
M 2.9 -86.5
L 3.95 -85.7 5.3 -86.1 4.85 -87.65 2.9 -86.5
M 7.65 -89.3
L 8.85 -88.15 9.75 -89.3 9.6 -90.6 7.65 -89.3
M 7.15 -89.05
L 5.2 -87.85 6.55 -86.65 7.6 -87.05 7.15 -89.05 Z"/>

<path fill="#4DFEFF" stroke="none" d="
M 5.85 -84.25
L 5.3 -86.1 3.95 -85.7 5.85 -84.25
M 6.55 -86.65
L 8.05 -85.25 7.6 -87.05 6.55 -86.65
M 9.75 -89.3
L 8.85 -88.15 9.95 -87.1 9.75 -89.3 Z"/>

<path fill="#000000" stroke="none" d="
M 8.85 -88.15
L 7.65 -89.3 7.15 -89.05 7.6 -87.05 8.05 -85.25 6.55 -86.65 5.2 -87.85 4.85 -87.65 5.3 -86.1 5.85 -84.25 3.95 -85.7 2.9 -86.5 1.75 -86.3
Q 4.35 -82.575 5 -82 5.65 -81.41875 6.95 -81.9 8.3 -82.39375 9.35 -84.45 10.55 -86.45 12.65 -93.65
L 9.6 -90.6 9.75 -89.3 9.95 -87.1 8.85 -88.15 Z"/>
</g>

<g id="Duplicate_Items_Folder_full_size_copy_0_Layer0_0_FILL">
<path fill="#4DFEFF" stroke="none" d="
M -3.25 -97.9
Q -3.060546875 -96.41953125 -3.7 -95.1 -3.060546875 -96.41953125 -3.25 -97.9 -4.48203125 -98.5712890625 -4.6 -98.65 -6.00546875 -99.5443359375 -7.3 -97.75 -8.5337890625 -95.9669921875 -4.45 -90.85 -2.95 -90.65 -1.9 -90.75 -1.25 -90.8 -1.25 -93.45 -1.25 -94.8 -1.4 -96.55 -1.4 -96.95 -2.45 -97.5 -2.8775390625 -97.7244140625 -3.25 -97.9
M 11.05 -101.85
Q 10.65 -103.2 8.05 -103.55
L 6.6 -102.25
Q 6.86484375 -99.4150390625 8.1 -97.6 6.86484375 -99.4150390625 6.6 -102.25 3.71796875 -100.794140625 1.2 -97.2 3.65 -94.8 5.15 -93.95 6.15 -93.4 8.1 -94.15 9.7 -94.8 10.85 -95.8 11.65 -96.5 11.55 -98.7 11.5 -100.4 11.05 -101.85 Z"/>
</g>

<path id="Duplicate_Items_Folder_full_size_copy_0_Layer4_0_1_STROKES" stroke="#000000" stroke-width="1" stroke-linejoin="round" stroke-linecap="round" fill="none" d="
M 45.075 -135.275
Q 39.434765625 -137.2416015625 32.65 -136.95 29.2947265625 -136.81953125 25.65 -136.125 25.3486328125 -136.0603515625 25.05 -136 21.4966796875 -135.2859375 18 -133.875 12.973828125 -131.8486328125 8.075 -128.375
M 19.7 -109.575
Q 22.89921875 -111.345703125 26.3 -113.1 27.1576171875 -113.5421875 27.975 -113.9 30.147265625 -114.8744140625 32.05 -115.3
M 8.075 -128.375
Q 6.6357421875 -127.3529296875 5.2 -126.2 2.2 -123.75 -0.35 -121.05
L -2.35 -118.85 -0.975 -116.1 6.25 -101.65
Q 12.480078125 -105.6302734375 19.7 -109.575
M 38.025 -115.1
Q 38.47109375 -114.9306640625 38.9 -114.7 41.353125 -113.3404296875 43.35 -109.75
M 59.9 -120.925
Q 59.5998046875 -121.7287109375 59.275 -122.575 56.2123046875 -130.5552734375 46.925 -134.55 46.0115234375 -134.9435546875 45.075 -135.275
M 32.05 -115.3
Q 33.7421875 -115.6833984375 35.225 -115.65 36.734375 -115.59296875 38.025 -115.1
M 63.8 -106.975
Q 63.6203125 -108.22265625 63.375 -109.45 62.4474609375 -114.04921875 59.9 -120.925
M 43.35 -109.75
Q 44.5384765625 -107.610546875 45.575 -104.675 45.7349609375 -104.20390625 45.9 -103.7 46.2294921875 -102.711328125 46.375 -101.625
M 51.65 -67.475
Q 53.8271484375 -70.09296875 55.725 -72.65 60.5078125 -79.0927734375 62.65 -86.55 62.9236328125 -87.482421875 63.15 -88.425
M 51.65 -67.475
Q 46.1681640625 -60.8267578125 38.925 -53.725 36.075 -50.9212890625 32.95 -48.05 27.778515625 -43.2984375 23.975 -39.275 17.344921875 -32.213671875 14.9 -27.35 14.2990234375 -26.1546875 13.825 -24.9 12.228515625 -20.598828125 12.125 -15.5 12.06484375 -12.4734375 12.525 -9.175 12.5796875 -8.781640625 12.65 -8.4 14.160546875 1.4509765625 18.5 3.85 11.269921875 3.73671875 7.075 4.1 4.6517578125 4.3103515625 1.75 4.375 -0.3453125 4.4412109375 -2.7 4.425 -8.2974609375 4.392578125 -10.2 3.55 -12.08515625 2.6896484375 -12.15 2.6 -14.4 -1.3 -15.75 -6.7 -15.96015625 -7.56015625 -16.125 -8.4 -18.0353515625 -18.1564453125 -13.8 -25.2 -12.1111328125 -28.0009765625 -8.7 -31.775 -3.851171875 -37.1693359375 4.5 -44.55 7.136328125 -46.8779296875 9.45 -48.95 13.138671875 -52.2640625 16 -54.925 21.3705078125 -59.9412109375 23.825 -62.675 24.288671875 -63.2099609375 24.65 -63.65 30.4369140625 -70.6283203125 34.3 -75.625 38.3736328125 -80.8935546875 40.3 -83.95 42.228515625 -86.975390625 43.55 -89.7 46.966796875 -96.69140625 46.375 -101.625
M 63.15 -88.425
Q 64.3623046875 -93.480859375 64.4 -99 64.4033203125 -103.037890625 63.8 -106.975
M 85.725 -56.65
Q 84.0775390625 -59.0494140625 81.25 -61.1 81.019140625 -61.2697265625 80.8 -61.425 78.400390625 -63.1390625 76.425 -64 74.453515625 -64.85 72.9 -64.85 68.95 -64.85 75.95 -65.95 79.5501953125 -66.5220703125 81.925 -66 83.083203125 -65.75703125 83.95 -65.25 84.7609375 -64.7685546875 85.65 -63.925 86.9208984375 -62.71171875 88.35 -60.75 89.8369140625 -58.68671875 91.5 -55.8 93.1642578125 -52.9333984375 94.25 -50.475 96.1283203125 -46.25703125 96.35 -43.2 96.410546875 -42.372265625 96.425 -41.425 96.4236328125 -36.81875 95.05 -29.4 93.912109375 -23.2626953125 90.075 -18.925 88.3173828125 -16.951953125 86 -15.35 82.7015625 -13.820703125 80.375 -12.6 78.820703125 -11.78046875 77.7 -11.1 74.2876953125 -9.0052734375 72.925 -6.65 72.2783203125 -5.53359375 72.1 -4.35 72.055078125 -4.0458984375 72.025 -3.75 71.25 1.55078125 71.25 4.25 64.1578125 5.144921875 59.6 5.375 57.9193359375 5.45625 56.15 5.375 53.126953125 5.210546875 49.85 4.55 44.6658203125 3.5138671875 44.7 3.05 46.15 -2.65 48.3 -9.2 48.4654296875 -9.70390625 48.625 -10.2 48.7263671875 -10.49921875 48.825 -10.8 52.6517578125 -22.209765625 55.275 -26.6 55.3646484375 -26.737890625 55.45 -26.875 58.30078125 -31.45 64.375 -35.675 69.769140625 -39.4271484375 75.45 -39.85 76.1779296875 -39.9 76.9 -39.9 83.3501953125 -39.9 85.1 -40.95 86.0013671875 -41.49921875 86.625 -42.425 88.2294921875 -44.815234375 88.05 -49.7 87.9080078125 -53.479296875 85.725 -56.65 Z"/>

<path id="Duplicate_Items_Folder_full_size_copy_0_Layer3_0_1_STROKES" stroke="#000000" stroke-width="1" stroke-linejoin="round" stroke-linecap="round" fill="none" d="
M 0.9 -125.525
Q 1.1275390625 -127.8140625 4.225 -131.3 8.02890625 -135.5828125 13.2 -134.55 6.70703125 -130.821875 8.1 -127.25 12.6220703125 -130.9162109375 20.55 -130.7 12.725390625 -127.115234375 10.95 -122.85 16.8302734375 -124.7634765625 25.6 -122.35 18.3328125 -122.0083984375 13.55 -118.65
L 22.1 -119.55 15.15 -115.9
Q 18.3818359375 -114.7544921875 25.05 -115.9 21.6353515625 -112.169140625 19.15 -111.65 21.8298828125 -108.930859375 29.3 -109.8 25.8333984375 -107.0146484375 20.55 -107.5
L 27.15 -105.4
Q 23.78359375 -104.1546875 20.425 -104.85 25.48671875 -103.6263671875 30.1 -100.35 24.9748046875 -100.107421875 19.85 -102.65
L 30.45 -96
Q 23.362109375 -95.6873046875 19.15 -100 20.5525390625 -96.775 25.05 -94.1 21.9896484375 -92.5580078125 17.9 -96
L 21.75 -92 16.5 -92 19.5 -90.1
Q 12.245703125 -87.1974609375 6.05 -91.1 -3.1 -87.6974609375 -8.4 -89.2
L -6.65 -93.4 -12.95 -95.15 -7.55 -97.6
Q -12.409765625 -97.704296875 -13.8 -98.8 -12.35 -99.05 -10.9 -99.4 -8.0515625 -100.1052734375 -8.825 -100.45 -9.5955078125 -100.784765625 -11.725 -102.225 -13.8560546875 -103.6705078125 -14.15 -104.7
L -8.75 -106.3
Q -13.8556640625 -110.0755859375 -15.05 -115.9
L -7.9 -111.7
Q -10.959765625 -116.75 -10.15 -124.6
L -5.95 -117.45
Q -7.9744140625 -121.275 -5.95 -125.1
L -2.65 -120.75
Q -1.6779296875 -132.65 0.65 -130.9
L 0.9 -125.525 1 -123.75"/>

<path id="Duplicate_Items_Folder_full_size_copy_0_Layer2_0_1_STROKES" stroke="#000000" stroke-width="1" stroke-linejoin="round" stroke-linecap="round" fill="none" d="
M -7.9 -106.55
Q -5.850390625 -117.356640625 0.75 -117.65 2.45 -117.85 4.3 -117.85 8.1 -117.85 9.15 -116.8 11.2 -114.85 12.05 -113.8 13.65 -111.85 13.9 -110.4 14.1 -109.2 14.3 -105.65 14.45 -102.15 14.55 -101.65 14.6330078125 -101.1935546875 15.4 -100.05 15.562890625 -99.813671875 15.75 -99.55 16.6603515625 -98.230078125 16.75 -97.575 16.75 -97.5083984375 16.75 -97.45 16.75 -96.7 15.25 -92.95
L 13.7 -89.35
Q 12.9 -87.25 11.85 -85.1 9.746484375 -80.804296875 7.325 -79.8 4.9103515625 -78.7873046875 3.4 -81.2 1.8861328125 -83.6169921875 0.9 -85.15
L -1.55 -87.55
Q -3.462109375 -89.5341796875 -4.5 -91.075 -4.885546875 -91.6708984375 -5.15 -92.2 -6.35 -94.6 -7.3 -99.2 -8.35 -104 -8 -106.05 -7.9556640625 -106.3005859375 -7.9 -106.55 Z
M -1.075 -98.5
Q -0.66484375 -96.43046875 -0.825 -92.725 -0.8662109375 -91.8361328125 -0.95 -90.85
L -0.95 -90.8
Q -0.946484375 -90.74609375 -0.95 -90.7
M 1 -88.425
L 3.3 -90.55 4.975 -90.425
M 5.95 -91.175
L 5.95 -92.9
M -0.95 -90.7
Q -1.05 -89 -0.1 -88.5
L 0.9 -88.35 1 -88.425
M 4.975 -90.425
L 5.95 -90.35 5.95 -91.175"/>

<path id="Duplicate_Items_Folder_full_size_copy_0_Layer1_0_1_STROKES" stroke="#000000" stroke-width="1" stroke-linejoin="round" stroke-linecap="round" fill="none" d="
M 5.225 -87.825
L 7.175 -89.025 7.675 -89.275 9.625 -90.6 12.65 -93.65
Q 10.55 -86.45 9.35 -84.45 8.3 -82.39375 6.975 -81.9 5.65 -81.41875 5 -82 4.35 -82.575 1.75 -86.3
L 2.9 -86.475 4.875 -87.65 5.225 -87.825 Z"/>

<path id="Duplicate_Items_Folder_full_size_copy_0_Layer0_0_1_STROKES" stroke="#000000" stroke-width="1" stroke-linejoin="round" stroke-linecap="round" fill="none" d="
M 6.625 -102.225
L 8.05 -103.55
Q 10.65 -103.2 11.05 -101.85 11.5 -100.4 11.55 -98.7 11.65 -96.5 10.85 -95.8 9.7 -94.8 8.1 -94.15 6.15 -93.4 5.15 -93.95 3.65 -94.8 1.2 -97.2 3.71796875 -100.794140625 6.625 -102.225 6.86484375 -99.4150390625 8.1 -97.6
M -3.7 -95.1
Q -3.060546875 -96.41953125 -3.225 -97.9 -2.8775390625 -97.7244140625 -2.45 -97.5 -1.4 -96.95 -1.4 -96.55 -1.25 -94.8 -1.25 -93.45 -1.25 -90.8 -1.9 -90.75 -2.95 -90.65 -4.45 -90.85 -8.5337890625 -95.9669921875 -7.275 -97.75 -6.00546875 -99.5443359375 -4.6 -98.65 -4.48203125 -98.5712890625 -3.225 -97.9"/>
</defs>

<g transform="matrix( 3.60198974609375, 0, 0, 3.60198974609375, 144.4,513.9) ">
<g transform="matrix( 1, 0, 0, 1, 0,0) ">
<use xlink:href="#Duplicate_Items_Folder_full_size_copy_0_Layer4_0_FILL"/>

<use xlink:href="#Duplicate_Items_Folder_full_size_copy_0_Layer4_0_1_STROKES"/>
</g>

<g transform="matrix( 1, 0, 0, 1, 0,0) ">
<use xlink:href="#Duplicate_Items_Folder_full_size_copy_0_Layer3_0_FILL"/>

<use xlink:href="#Duplicate_Items_Folder_full_size_copy_0_Layer3_0_1_STROKES"/>
</g>

<g transform="matrix( 1, 0, 0, 1, 0,0) ">
<use xlink:href="#Duplicate_Items_Folder_full_size_copy_0_Layer2_0_FILL"/>

<use xlink:href="#Duplicate_Items_Folder_full_size_copy_0_Layer2_0_1_STROKES"/>
</g>

<g transform="matrix( 1, 0, 0, 1, 0,0) ">
<use xlink:href="#Duplicate_Items_Folder_full_size_copy_0_Layer1_0_FILL"/>

<use xlink:href="#Duplicate_Items_Folder_full_size_copy_0_Layer1_0_1_STROKES"/>
</g>

<g transform="matrix( 1, 0, 0, 1, 0,0) ">
<use xlink:href="#Duplicate_Items_Folder_full_size_copy_0_Layer0_0_FILL"/>

<use xlink:href="#Duplicate_Items_Folder_full_size_copy_0_Layer0_0_1_STROKES"/>
</g>
</g>
</svg>
