
<svg xmlns="http://www.w3.org/2000/svg" version="1.1" xmlns:xlink="http://www.w3.org/1999/xlink" preserveAspectRatio="none" x="0px" y="0px" width="560px" height="544px" viewBox="0 0 560 544">
<defs>
<g id="full_0_Layer7_0_FILL">
<path fill="#55802B" stroke="none" d="
M -9.7 -53.95
L -6.3 -61.6 -6.55 -61.9
Q -7.7 -60.8 -9.55 -59.4 -13.65 -56.25 -17.9 -54.4 -24.15 -51.65 -28.35 -47.95 -32.55 -44.25 -31.75 -40.75 -31.55 -39.7 -25.35 -34.4
L -24.65 -37.1
Q -23.05 -37.9 -23.55 -38.85 -24.1 -39.8 -24.95 -42.7 -25.75 -45.6 -19.35 -48.85 -12.95 -52.1 -9.7 -53.95
M 0.5 -57.8
L 0.05 -57.8 -2.9 -53.95
Q -2.65 -52 -1.05 -49.45 2.15 -44.4 8.75 -41.35 16.2 -37.9 23.45 -41.1 29.95 -43.95 31.95 -49.6 33.45 -53.8 31.4 -54.75
L 29 -54.85
Q 28.75 -53.05 27.75 -51.05 25.7 -47.05 21.8 -46.2 16.1 -44.9 10.8 -47.1 4.15 -49.9 0.5 -57.8 Z"/>
</g>

<g id="full_0_Layer6_0_FILL">
<path fill="#91C859" stroke="none" d="
M -36.75 -58.65
L -36.9 -58.6 -34.85 -51.75
Q -32.3 -48.35 -29.2 -48.05
L -29 -48.65
Q -28.75 -49.45 -28.75 -50.25 -28.65 -52.8 -30.5 -53.9 -31.95 -54.85 -34.8 -56.15 -36.85 -57.3 -36.75 -58.65
M 27.45 -41.05
Q 25.65 -43.1 22.5 -42.5 21.5 -42.3 20.55 -41.85
L 19.85 -41.5
Q 20.8 -37.7 25.65 -35.15
L 34.65 -34 34.55 -34.25
Q 33 -33.8 31.05 -36.15 28.9 -39.4 27.45 -41.05
M 56.65 -151.65
Q 55.4 -149.05 48.85 -148.7 40.25 -148.75 35.45 -148.35 29.5 -147.85 26.7 -143.05 25.8 -141.55 25.35 -139.8
L 25.15 -138.5
Q 33.1 -136.25 43.75 -140.4
L 57.2 -151.5 56.65 -151.65 Z"/>

<path fill="#7BB93E" stroke="none" d="
M -37.5 -58.75
Q -38.35 -58.05 -39.1 -56.65 -41.2 -52.75 -38.35 -49.65 -35.55 -46.55 -31.8 -46.8
L -29.3 -47.8 -29.2 -48 -29.2 -48.05
Q -32.3 -48.35 -34.85 -51.75
L -36.9 -58.6 -37.5 -58.75
M 34.9 -33.3
L 34.65 -34 25.65 -35.15
Q 20.8 -37.7 19.85 -41.5
L 19.75 -41.45 19.55 -41.25 18.85 -38
Q 19.3 -33.25 23.7 -30.35 28.2 -27.45 32.65 -30.85 34.2 -32.05 34.9 -33.3
M 58.75 -151.2
L 57.2 -151.5 43.75 -140.4
Q 33.1 -136.25 25.15 -138.5
L 25.1 -138.35 25.1 -137.9 30.1 -133.85
Q 39.1 -130 49.9 -133.3 60.7 -136.65 60.25 -145.85 60.1 -149.1 58.75 -151.2 Z"/>
</g>

<g id="full_0_Layer5_0_FILL">
<path fill="#8DC653" stroke="none" d="
M -30.5 -10.25
Q -30.7 -8.55 -24.6 -8.55
L -14.6 -8.35
Q -10.85 -9.85 -12.35 -11.35 -15.35 -10.85 -20.2 -11.05 -27.15 -11.35 -30.5 -10.25
M -1.2 -133.45
Q -1.85 -133.15 -2.45 -132.8 -12 -127.9 -11.6 -119.9 -11.2 -111.95 -8.95 -108 -8.5 -107.25 -8.15 -106.55 -11.75 -116 -6.3 -125.5
L -1.2 -133.45
M 4.1 -23.9
Q 3.65 -23.95 3.2 -23.95 0.9 -23.95 -0.75 -22.4 -2.4 -20.85 -2.4 -18.65 -2.4 -16.4 -0.75 -14.85 0.9 -13.25 3.2 -13.25 4.1 -13.25 4.95 -13.5 5.1 -12.55 5.8 -11.85 6.8 -10.85 8.2 -10.85 9.65 -10.85 10.6 -11.85 10.8 -12.05 11 -12.3 13.9 -0.25 -4.4 1.9 -2.4 2 -0.2 2.1 16.2 2.55 16.6 -6.7 17.05 -16 10.6 -23.6 4.15 -31.2 0.75 -36.65 -2.7 -42.15 -3.6 -46.45 -3.85 -47.7 -3.65 -49.65 -6.3 -48.05 -5.2 -39.45
L 4.1 -23.9
M -4.65 -2.7
Q -4 -2.1 -3.1 -2.1 -2.2 -2.1 -1.55 -2.7 -0.85 -3.3 -0.85 -4.1 -0.85 -4.9 -1.55 -5.5 -2.2 -6.05 -3.1 -6.05 -4 -6.05 -4.65 -5.5 -5.3 -4.9 -5.3 -4.1 -5.3 -3.3 -4.65 -2.7
M -3.65 -28.1
Q -2.9 -28.9 -2.9 -29.95 -2.9 -31 -3.65 -31.85 -4.35 -32.65 -5.35 -32.65 -6.3 -32.65 -7.05 -31.85 -7.75 -31 -7.75 -29.95 -7.75 -28.9 -7.05 -28.1 -6.3 -27.25 -5.35 -27.25 -4.35 -27.25 -3.65 -28.1
M -4.75 -111.5
Q -4.35 -112.5 -4.35 -113.9 -4.35 -115.35 -4.75 -116.35 -5.15 -117.3 -5.8 -117.3 -6.4 -117.3 -6.8 -116.35 -7.2 -115.35 -7.2 -113.95 -7.2 -112.5 -6.8 -111.5 -6.4 -110.5 -5.8 -110.5 -5.15 -110.5 -4.75 -111.5
M -2.4 -125.05
Q -1.6 -125.05 -1 -125.45 -0.4 -125.85 -0.4 -126.5 -0.4 -127.1 -1 -127.5 -1.6 -127.9 -2.4 -127.9 -3.2 -127.9 -3.8 -127.5 -4.35 -127.1 -4.35 -126.5 -4.35 -125.85 -3.8 -125.45 -3.2 -125.05 -2.4 -125.05
M 17.95 -149.3
Q 14.3 -150.45 10.3 -150 5.95 -149.5 2.9 -147.2 -2.4 -143.1 3.3 -140.8 5.25 -140.05 7.65 -139.65 1.75 -142.75 5.85 -145.85 7.9 -149.15 16.95 -147.25 23.7 -142.1 22.7 -136.9 23.45 -138.25 23.85 -139.75 24.85 -143.4 23.15 -145.85 21.6 -148.1 17.95 -149.3 Z"/>

<path fill="#669933" stroke="none" d="
M 5.85 -145.85
Q 1.75 -142.75 7.65 -139.65 8.8 -139.45 10.1 -139.35 9.95 -139.2 9.8 -139.05
L 13.3 -140.3
Q 16.75 -144.75 9.65 -145.2 16.75 -144.75 13.3 -140.3
L 9.8 -139.05
Q 7.25 -137.8 -1.2 -133.45
L -6.3 -125.5
Q -11.75 -116 -8.15 -106.55 -6.65 -103.8 -6.3 -102.55 -2.85 -94.3 -1.95 -88 -0.3 -76.4 -6.95 -65.2 -13.8 -53.55 -13 -40.6 -12.45 -32.25 -8.25 -21.85 -5.5 -15 -8.95 -12.6 -10.1 -11.8 -12.35 -11.35 -10.85 -9.85 -14.6 -8.35
L -24.6 -8.55
Q -30.7 -8.55 -30.5 -10.25 -31.35 -10 -31.9 -9.65 -35.05 -7.95 -35.4 -3.3 -22.8 -8.05 -20.4 -3.5 -17.1 0.9 -4.4 1.9 13.9 -0.25 11 -12.3 10.8 -12.05 10.6 -11.85 9.65 -10.85 8.2 -10.85 6.8 -10.85 5.8 -11.85 5.1 -12.55 4.95 -13.5 4.1 -13.25 3.2 -13.25 0.9 -13.25 -0.75 -14.85 -2.4 -16.4 -2.4 -18.65 -2.4 -20.85 -0.75 -22.4 0.9 -23.95 3.2 -23.95 3.65 -23.95 4.1 -23.9
L -5.2 -39.45
Q -6.3 -48.05 -3.65 -49.65 -3.1 -54.5 0.4 -63.7 6.5 -79.65 6.8 -81.5 7.6 -86.3 3 -99.7 -1.6 -113.15 -1.15 -118.05 -0.7 -122.95 8.35 -126.9 17.35 -130.95 20.1 -133.55 21.7 -135.05 22.7 -136.9 23.7 -142.1 16.95 -147.25 7.9 -149.15 5.85 -145.85
M -1 -125.45
Q -1.6 -125.05 -2.4 -125.05 -3.2 -125.05 -3.8 -125.45 -4.35 -125.85 -4.35 -126.5 -4.35 -127.1 -3.8 -127.5 -3.2 -127.9 -2.4 -127.9 -1.6 -127.9 -1 -127.5 -0.4 -127.1 -0.4 -126.5 -0.4 -125.85 -1 -125.45
M -4.35 -113.9
Q -4.35 -112.5 -4.75 -111.5 -5.15 -110.5 -5.8 -110.5 -6.4 -110.5 -6.8 -111.5 -7.2 -112.5 -7.2 -113.95 -7.2 -115.35 -6.8 -116.35 -6.4 -117.3 -5.8 -117.3 -5.15 -117.3 -4.75 -116.35 -4.35 -115.35 -4.35 -113.9
M -2.9 -29.95
Q -2.9 -28.9 -3.65 -28.1 -4.35 -27.25 -5.35 -27.25 -6.3 -27.25 -7.05 -28.1 -7.75 -28.9 -7.75 -29.95 -7.75 -31 -7.05 -31.85 -6.3 -32.65 -5.35 -32.65 -4.35 -32.65 -3.65 -31.85 -2.9 -31 -2.9 -29.95
M -3.1 -2.1
Q -4 -2.1 -4.65 -2.7 -5.3 -3.3 -5.3 -4.1 -5.3 -4.9 -4.65 -5.5 -4 -6.05 -3.1 -6.05 -2.2 -6.05 -1.55 -5.5 -0.85 -4.9 -0.85 -4.1 -0.85 -3.3 -1.55 -2.7 -2.2 -2.1 -3.1 -2.1 Z"/>
</g>

<g id="full_0_Layer4_0_FILL">
<path fill="#EAEAEA" stroke="none" d="
M -26.25 -68.45
L -26.35 -66.9
Q -26 -65.9 -25.5 -65.15 -25.95 -66.85 -26.25 -68.45
M 7.65 -115.45
L 7.55 -115.6
Q 8.65 -116.15 9.8 -116.55
L 10.35 -119.15 5.9 -119.6 -0.55 -117.8 -0.7 -117.55
Q -1.1 -117.2 -1.5 -116.9 -2.9 -115.9 -4.25 -115.25 -7.3 -113.85 -10.4 -114.3
L -8.6 -113.45 -11.1 -113.45 -13.95 -107.55 -11.1 -113.45 -18.6 -113.45 -11.1 -113.45 -10.6 -114.4 -18.2 -118.35
Q -20.85 -125.05 -13.5 -130.55 -18.45 -129 -25.7 -124.55 -35.65 -118.5 -40.35 -107.2 -45.1 -95.9 -40.6 -83.65 -39.2 -79.8 -37.05 -76.1
L -35.2 -73.15 -34.85 -67.7
Q -31 -64.45 -27.35 -67.25
L -26.35 -66.9 -26.25 -68.45
Q -27.65 -75.2 -27.4 -80.6 -27.45 -80.6 -27.5 -80.6 -31.7 -80.2 -34.7 -81.7 -37.7 -83.2 -37.7 -90.8 -37.7 -98.4 -34.7 -102 -31.7 -105.6 -27.85 -105.5 -24.05 -105.4 -22 -101.55 -20.8 -99.3 -19.85 -96.7 -15.75 -99.75 -9.4 -100.95 -2.55 -110.9 7.2 -115.45
L 7.65 -115.45
M -23.6 -119.8
Q -22.3 -119.3 -22.1 -116 -21.9 -112.75 -23.15 -111.7 -24.4 -110.65 -25.7 -110.5 -25.95 -109.3 -27.55 -110.45 -29.15 -111.6 -31.1 -110.9 -33.05 -110.25 -33.95 -108.2 -34.85 -106.2 -35.6 -107.95 -36.35 -109.75 -34.6 -112.2 -32.9 -114.65 -30.9 -115.05 -30.65 -116.1 -29.6 -116.9 -28.15 -118 -26.5 -119.15 -24.9 -120.3 -23.6 -119.8
M -23.15 -107.2
L -19.4 -102.55 -23.15 -107.2
M 11.85 -127.55
Q 10.95 -128.15 5.05 -125.85
L 0.1 -123 -0.55 -118.45 -0.25 -118.3 -0.55 -117.8 5.9 -119.6 10.35 -119.15 10.9 -121.75 10.35 -119.15 13.85 -118.8 10.35 -119.15 9.8 -116.55
Q 17.25 -119.4 26.25 -119.35 24.75 -120.6 23.1 -121.75 17.3 -125.7 11.85 -127.55 Z"/>

<path fill="#000000" stroke="none" d="
M -22 -101.55
Q -24.05 -105.4 -27.85 -105.5 -31.7 -105.6 -34.7 -102 -37.7 -98.4 -37.7 -90.8 -37.7 -83.2 -34.7 -81.7 -31.7 -80.2 -27.5 -80.6 -27.45 -80.6 -27.4 -80.6 -23.3 -81.05 -20.35 -84.6 -17.35 -88.2 -18.65 -92.95 -19.2 -94.9 -19.85 -96.7 -20.8 -99.3 -22 -101.55
M -10.25 -131.3
Q -11.7 -131.1 -13.5 -130.55 -20.85 -125.05 -18.2 -118.35
L -10.6 -114.4
Q -12.2 -121.85 -8.15 -129.65
L -10.25 -131.3
M 16.2 -77.8
Q 20.2 -81.6 19.8 -87.2 19.4 -92.3 15.15 -96.3 14.7 -96.75 14.2 -97.15 9 -101.5 5 -100.8 1 -100.15 -3 -96.35 -6.95 -92.5 -7.8 -85.65 -8.65 -78.8 -4.2 -75.7 -0.7 -73.25 3.85 -73.15 5 -73.15 6.25 -73.3 12.25 -73.95 16.2 -77.8
M -12 -81.85
Q -12.55 -83.1 -13.35 -83.1 -14.1 -83.1 -14.65 -81.95 -14.9 -82.25 -15.25 -82.25 -15.95 -82.25 -16.65 -80.9 -17.35 -79.55 -18.55 -77.65 -19.75 -75.8 -17.85 -74.45 -15.95 -73.15 -15.25 -73.15 -14.5 -73.15 -14.05 -74.5 -14 -74.55 -14 -74.65 -13.7 -74.4 -12.65 -73.95 -11.65 -73.5 -10.3 -74 -8.95 -74.55 -10.2 -77.55 -11.45 -80.55 -12 -81.85 Z"/>

<path fill="#AEAEAE" stroke="none" d="
M 26.95 -74.75
Q 38 -81.3 36.9 -97.2 36.2 -106.65 31.45 -113.55 9.8 -111.65 15.15 -96.3 19.4 -92.3 19.8 -87.2 20.2 -81.6 16.2 -77.8 12.25 -73.95 6.25 -73.3 5 -73.15 3.85 -73.15 5.1 -69.35 5.5 -66.45
L 8.7 -68.85
Q 15.85 -68.25 26.95 -74.75
M 30.45 -89.75
Q 24.2 -89.3 24.2 -85.6 20.15 -80.25 24.2 -77.65 20.15 -80.25 24.2 -85.6 24.2 -89.3 30.45 -89.75 Z"/>

<path fill="#CCCCCC" stroke="none" d="
M 7.55 -115.6
L 7.65 -115.45 7.2 -115.45
Q -2.55 -110.9 -9.4 -100.95 -15.75 -99.75 -19.85 -96.7 -19.2 -94.9 -18.65 -92.95 -17.35 -88.2 -20.35 -84.6 -23.3 -81.05 -27.4 -80.6 -27.65 -75.2 -26.25 -68.45
L -26.1 -71.9 -26.25 -68.45
Q -25.95 -66.85 -25.5 -65.15 -23.2 -61.4 -18.65 -64.4
L -18.55 -66.85 -18.65 -64.4 -18.6 -64.4
Q -14.55 -57.85 -8.6 -62.3
L -7.9 -62.8 -6.1 -66.85 -7.9 -62.8
Q -6.15 -58.4 -2.2 -58.15 -0.25 -58.05 2.25 -58.95
L 3.85 -65.2 5.5 -66.45
Q 5.1 -69.35 3.85 -73.15 -0.7 -73.25 -4.2 -75.7 -8.65 -78.8 -7.8 -85.65 -6.95 -92.5 -3 -96.35 1 -100.15 5 -100.8 9 -101.5 14.2 -97.15 14.7 -96.75 15.15 -96.3 9.8 -111.65 31.45 -113.55 29.25 -116.75 26.25 -119.35 17.25 -119.4 9.8 -116.55
L 9.65 -115.85 9.8 -116.55
Q 8.65 -116.15 7.55 -115.6
M 8.65 -105.1
L 10.1 -102.55 8.65 -105.1 0.1 -104.25 -6.1 -100.95 0.1 -104.25 8.65 -105.1 6.8 -108.45 8.65 -105.1 12.15 -105.5 8.65 -105.1
M -13.35 -83.1
Q -12.55 -83.1 -12 -81.85 -11.45 -80.55 -10.2 -77.55 -8.95 -74.55 -10.3 -74 -11.65 -73.5 -12.65 -73.95 -13.7 -74.4 -14 -74.65 -14 -74.55 -14.05 -74.5 -14.5 -73.15 -15.25 -73.15 -15.95 -73.15 -17.85 -74.45 -19.75 -75.8 -18.55 -77.65 -17.35 -79.55 -16.65 -80.9 -15.95 -82.25 -15.25 -82.25 -14.9 -82.25 -14.65 -81.95 -14.1 -83.1 -13.35 -83.1 Z"/>

<path fill="#FFFFFF" stroke="none" d="
M -22.1 -116
Q -22.3 -119.3 -23.6 -119.8 -24.9 -120.3 -26.5 -119.15 -28.15 -118 -29.6 -116.9 -30.65 -116.1 -30.9 -115.05 -32.9 -114.65 -34.6 -112.2 -36.35 -109.75 -35.6 -107.95 -34.85 -106.2 -33.95 -108.2 -33.05 -110.25 -31.1 -110.9 -29.15 -111.6 -27.55 -110.45 -25.95 -109.3 -25.7 -110.5 -24.4 -110.65 -23.15 -111.7 -21.9 -112.75 -22.1 -116 Z"/>
</g>

<g id="full_0_Layer3_0_FILL">
<path fill="#B7B7B7" stroke="none" d="
M 76.5 -67.55
Q 64.55 -86.05 43.2 -86.95 71.85 -61.6 59.15 -22
L 64.5 -25.2
Q 68.5 -27.2 75.1 -35.1
L 76.5 -67.55 Z"/>

<path fill="#CCCCCC" stroke="none" d="
M 41.1 -88.7
Q 42.15 -87.85 43.2 -86.95 64.55 -86.05 76.5 -67.55
L 75.1 -35.1
Q 76.6 -36.95 78.3 -39.1 87.15 -50.6 85.85 -64.95 84.55 -79.35 62.9 -85.1 56.1 -86.85 48 -88.05
L 41.1 -88.7 Z"/>
</g>

<g id="full_0_Layer2_0_FILL">
<path fill="#403026" stroke="none" d="
M 77.8 -81.8
Q 73.05 -90.3 62 -89.3 4.15 -48.25 -52.7 -17
L -46 -17 -44.75 -12.8 66.2 -83.5 75.3 -78.95 77.8 -81.8 Z"/>
</g>

<g id="full_0_Layer1_0_FILL">
<path fill="#6A9F35" stroke="none" d="
M -2.55 -30.85
Q -3.35 -39.75 -11.1 -44.75
L -13.25 -41.9 -16.85 -42.1 -19.3 -39.85
Q -20.2 -39.75 -21.5 -39.2 -24.1 -38.15 -25.9 -36.1 -27.7 -34.05 -23.65 -29.95 -21.65 -27.9 -19.25 -26.3
L -21.9 -34.75 -13.1 -27 -16.85 -37.35 -8.6 -28.35 -11.1 -38.6 -2.55 -30.85
M 42.95 -58.55
Q 44.75 -59.6 45.85 -63.5 46.9 -67.4 42.85 -71.8 39.2 -75.8 38.75 -74.8 38.7 -74.7 38.7 -74.5 43.35 -64.6 40.9 -62.3
L 32.25 -71.7 36.25 -59.05 26.9 -66.9 30.7 -57.1 20 -60.45
Q 23.2 -54.9 32.5 -50.35 34.8 -51.6 33.3 -54.05
L 36.85 -54.35 39.1 -57.55
Q 41.1 -57.5 42.95 -58.55 Z"/>
</g>

<path id="full_0_Layer7_0_1_STROKES" stroke="#000000" stroke-width="2" stroke-linejoin="round" stroke-linecap="round" fill="none" d="
M 0.05 -57.8
L -2.9 -53.95
Q -2.65 -52 -1.05 -49.45 2.15 -44.4 8.75 -41.35 16.2 -37.9 23.45 -41.1 29.95 -43.95 31.95 -49.6 33.45 -53.8 31.4 -54.75
L 29 -54.85
Q 28.75 -53.05 27.75 -51.05 25.7 -47.05 21.8 -46.2 16.1 -44.9 10.8 -47.1 4.15 -49.9 0.5 -57.8
M -23.55 -38.85
Q -24.1 -39.8 -24.95 -42.7 -25.75 -45.6 -19.35 -48.85 -12.95 -52.1 -9.7 -53.95
L -6.3 -61.6
M -6.55 -61.9
Q -7.7 -60.8 -9.55 -59.4 -13.65 -56.25 -17.9 -54.4 -24.15 -51.65 -28.35 -47.95 -32.55 -44.25 -31.75 -40.75 -31.55 -39.7 -25.35 -34.4"/>

<path id="full_0_Layer6_0_1_STROKES" stroke="#000000" stroke-width="2" stroke-linejoin="round" stroke-linecap="round" fill="none" d="
M 43.75 -140.4
Q 33.1 -136.25 25.15 -138.5
L 25.1 -138.35
M 25.1 -137.9
L 30.1 -133.85
Q 39.1 -130 49.9 -133.3 60.7 -136.65 60.25 -145.85 60.1 -149.1 58.75 -151.2 58.35 -151.85 58 -152.1
L 57.2 -151.5
M 56.65 -151.65
Q 55.4 -149.05 48.85 -148.7 40.25 -148.75 35.45 -148.35 29.5 -147.85 26.7 -143.05 25.8 -141.55 25.35 -139.8
L 25.15 -138.5
M 58 -152.1
Q 57.2 -152.75 56.65 -151.65
M 19.85 -41.5
L 20.55 -41.85
Q 21.5 -42.3 22.5 -42.5 25.65 -43.1 27.45 -41.05 28.9 -39.4 31.05 -36.15 33 -33.8 34.55 -34.25 35.25 -34.45 35.15 -33.9 35.1 -33.65 34.9 -33.3 34.2 -32.05 32.65 -30.85 28.2 -27.45 23.7 -30.35 19.3 -33.25 18.85 -38
L 19.55 -41.25
M 19.75 -41.45
L 19.85 -41.5
Q 20.8 -37.7 25.65 -35.15
M 34.65 -34
L 35.15 -33.9
M -36.9 -58.6
L -37.05 -59
Q -37.25 -58.95 -37.5 -58.75
M -37.05 -59
Q -36.65 -59.15 -36.75 -58.65
M -37.5 -58.75
Q -38.35 -58.05 -39.1 -56.65 -41.2 -52.75 -38.35 -49.65 -35.55 -46.55 -31.8 -46.8
L -29.3 -47.8
M -29.2 -48
L -29.2 -48.05
Q -32.3 -48.35 -34.85 -51.75
M -36.75 -58.65
Q -36.85 -57.3 -34.8 -56.15 -31.95 -54.85 -30.5 -53.9 -28.65 -52.8 -28.75 -50.25 -28.75 -49.45 -29 -48.65
L -29.2 -48.05"/>

<path id="full_0_Layer5_0_1_STROKES" stroke="#000000" stroke-width="2" stroke-linejoin="round" stroke-linecap="round" fill="none" d="
M 7.65 -139.65
Q 5.25 -140.05 3.3 -140.8 -2.4 -143.1 2.9 -147.2 5.95 -149.5 10.3 -150 14.3 -150.45 17.95 -149.3 21.6 -148.1 23.15 -145.85 24.85 -143.4 23.85 -139.75 23.45 -138.25 22.7 -136.9 21.7 -135.05 20.1 -133.55 17.35 -130.95 8.35 -126.9 -0.7 -122.95 -1.15 -118.05 -1.6 -113.15 3 -99.7 7.6 -86.3 6.8 -81.5 6.5 -79.65 0.4 -63.7 -3.1 -54.5 -3.65 -49.65 -3.85 -47.7 -3.6 -46.45 -2.7 -42.15 0.75 -36.65 4.15 -31.2 10.6 -23.6 17.05 -16 16.6 -6.7 16.2 2.55 -0.2 2.1 -2.4 2 -4.4 1.9 -17.1 0.9 -20.4 -3.5 -22.8 -8.05 -35.4 -3.3 -35.05 -7.95 -31.9 -9.65 -31.35 -10 -30.5 -10.25 -27.15 -11.35 -20.2 -11.05 -15.35 -10.85 -12.35 -11.35 -10.1 -11.8 -8.95 -12.6 -5.5 -15 -8.25 -21.85 -12.45 -32.25 -13 -40.6 -13.8 -53.55 -6.95 -65.2 -0.3 -76.4 -1.95 -88 -2.85 -94.3 -6.3 -102.55 -6.65 -103.8 -8.15 -106.55 -8.5 -107.25 -8.95 -108 -11.2 -111.95 -11.6 -119.9 -12 -127.9 -2.45 -132.8 -1.85 -133.15 -1.2 -133.45 7.25 -137.8 9.8 -139.05 9.95 -139.2 10.1 -139.35 8.8 -139.45 7.65 -139.65 Z
M 9.8 -139.05
L 13.3 -140.3
Q 16.75 -144.75 9.65 -145.2"/>

<path id="full_0_Layer4_0_1_STROKES" stroke="#000000" stroke-width="2" stroke-linejoin="round" stroke-linecap="round" fill="none" d="
M -0.55 -118.45
L 0.1 -123 5.05 -125.85
Q 10.95 -128.15 11.85 -127.55 17.3 -125.7 23.1 -121.75 24.75 -120.6 26.25 -119.35 29.25 -116.75 31.45 -113.55 36.2 -106.65 36.9 -97.2 38 -81.3 26.95 -74.75 15.85 -68.25 8.7 -68.85
L 5.5 -66.45 3.85 -65.2 2.25 -58.95
Q -0.25 -58.05 -2.2 -58.15 -6.15 -58.4 -7.9 -62.8
L -7.8 -61.9
M 10.9 -121.75
L 10.35 -119.15 13.85 -118.8
M 9.8 -116.55
L 10.35 -119.15 5.9 -119.6 -0.55 -117.8
M -0.7 -117.55
Q -1.1 -117.2 -1.5 -116.9 -2.9 -115.9 -4.25 -115.25 -7.3 -113.85 -10.4 -114.3
M -11.1 -113.45
L -13.95 -107.55
M 9.8 -116.55
L 9.65 -115.85
M 12.15 -105.5
L 8.65 -105.1 10.1 -102.55
M 6.8 -108.45
L 8.65 -105.1 0.1 -104.25 -6.1 -100.95
M -13.5 -130.55
Q -11.7 -131.1 -10.25 -131.3
L -8.15 -129.65
Q -12.2 -121.85 -10.6 -114.4
L -10.4 -114.3 -10.65 -114.25 -10.6 -114.4
M -18.6 -113.45
L -11.1 -113.45
M -26.25 -68.45
L -26.1 -71.9
M -1.2 -117.65
L -0.65 -117.8 -0.6 -118.05 -1.2 -117.65 -4.65 -115.35
M -0.55 -117.8
L -0.65 -117.8 -0.7 -117.55
M -0.25 -118.3
L -0.6 -118.05 -0.55 -118.45 -1.15 -118.8
M -0.55 -118.45
L -0.25 -118.3
M -13.5 -130.55
Q -20.85 -125.05 -18.2 -118.35
L -10.6 -114.4
M -23.15 -107.2
L -19.4 -102.55
M -25.5 -65.15
Q -26 -65.9 -26.35 -66.9
L -27.35 -67.25
Q -31 -64.45 -34.85 -67.7
L -35.2 -73.15 -37.05 -76.1
Q -39.2 -79.8 -40.6 -83.65 -45.1 -95.9 -40.35 -107.2 -35.65 -118.5 -25.7 -124.55 -18.45 -129 -13.5 -130.55
M -26.35 -66.9
L -26.25 -68.45
M -25.5 -65.15
Q -23.2 -61.4 -18.65 -64.4
L -18.55 -66.85
M -6.1 -66.85
L -7.9 -62.8 -8.6 -62.3
Q -14.55 -57.85 -18.6 -64.4
L -18.65 -64.4"/>

<path id="full_0_Layer4_0_2_STROKES" stroke="#737373" stroke-width="2" stroke-linejoin="round" stroke-linecap="round" fill="none" d="
M 30.45 -89.75
Q 24.2 -89.3 24.2 -85.6 20.15 -80.25 24.2 -77.65"/>

<path id="full_0_Layer3_0_1_STROKES" stroke="#000000" stroke-width="2" stroke-linejoin="round" stroke-linecap="round" fill="none" d="
M 75.1 -35.1
Q 76.6 -36.95 78.3 -39.1 87.15 -50.6 85.85 -64.95 84.55 -79.35 62.9 -85.1 56.1 -86.85 48 -88.05
L 41.1 -88.7
Q 42.15 -87.85 43.2 -86.95
M 75.1 -35.1
Q 68.5 -27.2 64.5 -25.2
L 59.15 -22
Q 71.85 -61.6 43.2 -86.95"/>

<path id="full_0_Layer2_0_1_STROKES" stroke="#000000" stroke-width="2" stroke-linejoin="round" stroke-linecap="round" fill="none" d="
M 77.8 -81.8
L 75.3 -78.95 66.2 -83.5 -44.75 -12.8 -46 -17 -52.7 -17
Q 4.15 -48.25 62 -89.3 73.05 -90.3 77.8 -81.8 Z"/>

<path id="full_0_Layer1_0_1_STROKES" stroke="#000000" stroke-width="2" stroke-linejoin="round" stroke-linecap="round" fill="none" d="
M 42.95 -58.55
Q 41.1 -57.5 39.1 -57.55
L 36.85 -54.35 33.3 -54.05
Q 34.8 -51.6 32.5 -50.35 23.2 -54.9 20 -60.45
L 30.7 -57.1 26.9 -66.9 36.25 -59.05 32.25 -71.7 40.9 -62.3
Q 43.35 -64.6 38.7 -74.5 38.7 -74.7 38.75 -74.8 39.2 -75.8 42.85 -71.8 46.9 -67.4 45.85 -63.5 44.75 -59.6 42.95 -58.55 Z
M -2.55 -30.85
L -11.1 -38.6 -8.6 -28.35 -16.85 -37.35 -13.1 -27 -21.9 -34.75 -19.25 -26.3
Q -21.65 -27.9 -23.65 -29.95 -27.7 -34.05 -25.9 -36.1 -24.1 -38.15 -21.5 -39.2 -20.2 -39.75 -19.3 -39.85
L -16.85 -42.1 -13.25 -41.9 -11.1 -44.75
Q -3.35 -39.75 -2.55 -30.85 Z"/>
</defs>

<g transform="matrix( 3.4176788330078125, 0, 0, 3.4163665771484375, 223.5,528.35) ">
<g transform="matrix( 1, 0, 0, 1, 0,0) ">
<use xlink:href="#full_0_Layer7_0_FILL"/>

<use xlink:href="#full_0_Layer7_0_1_STROKES"/>
</g>

<g transform="matrix( 1, 0, 0, 1, 0,0) ">
<use xlink:href="#full_0_Layer6_0_FILL"/>

<use xlink:href="#full_0_Layer6_0_1_STROKES"/>
</g>

<g transform="matrix( 1, 0, 0, 1, 0,0) ">
<use xlink:href="#full_0_Layer5_0_FILL"/>

<use xlink:href="#full_0_Layer5_0_1_STROKES"/>
</g>

<g transform="matrix( 1, 0, 0, 1, 0,0) ">
<use xlink:href="#full_0_Layer4_0_FILL"/>

<use xlink:href="#full_0_Layer4_0_1_STROKES"/>

<use xlink:href="#full_0_Layer4_0_2_STROKES"/>
</g>

<g transform="matrix( 1, 0, 0, 1, 0,0) ">
<use xlink:href="#full_0_Layer3_0_FILL"/>

<use xlink:href="#full_0_Layer3_0_1_STROKES"/>
</g>

<g transform="matrix( 1, 0, 0, 1, 0,0) ">
<use xlink:href="#full_0_Layer2_0_FILL"/>

<use xlink:href="#full_0_Layer2_0_1_STROKES"/>
</g>

<g transform="matrix( 1, 0, 0, 1, 0,0) ">
<use xlink:href="#full_0_Layer1_0_FILL"/>

<use xlink:href="#full_0_Layer1_0_1_STROKES"/>
</g>
</g>
</svg>
