
<svg xmlns="http://www.w3.org/2000/svg" version="1.1" xmlns:xlink="http://www.w3.org/1999/xlink" preserveAspectRatio="none" x="0px" y="0px" width="560px" height="544px" viewBox="0 0 560 544">
<defs>
<g id="Duplicate_Items_Folder_arm_suit_copy_14_0_Layer3_0_FILL">
<path fill="#D6CFC2" stroke="none" d="
M -25.2 -21.55
Q -25.2015625 -21.50078125 -25.25 -21.45
L -25.2 -21.5 -25.2 -21.55
M -25.1 -21.75
Q -24.8818359375 -22.186328125 -24.7 -22.55 -24.5 -22.8 -24.4 -23.1 -24.25 -23.25 -21.95 -26.85
L -24.3 -24.1
Q -24.7248046875 -22.919921875 -25.1 -21.75 Z"/>

<path fill="#CCCCCC" stroke="none" d="
M -8.25 -32.7
Q -8.1 -32.4 -7.9 -32.1
L -7.8 -32.4 -8.25 -32.7 Z"/>

<path fill="#E8E6CE" stroke="none" d="
M 1.7 -49.25
L 1.65 -49.1 1.75 -49.25 1.7 -49.25
M -11.95 -26.3
L -11.85 -26.4 -11.9 -26.45 -11.95 -26.3
M -13.2 -30.25
Q -13.3 -30.15 -13.45 -29.95 -13.5 -29.85 -13.6 -29.8 -13.45 -29.85 -13.35 -29.95 -13.2 -30.15 -13.15 -30.25
L -13.2 -30.25 Z"/>

<path fill="#BCC2B4" stroke="none" d="
M 21.4 -89.9
L 16.05 -95.8 -14.35 -37.55
Q -14.25 -37.6 -14.15 -37.65 -14.4 -37.4 -14.6 -37.05
L -15.3 -35.85 -15.35 -36
Q -21.5 -27.55 -21.95 -26.85 -24.25 -23.25 -24.4 -23.1 -24.5 -22.8 -24.7 -22.55 -24.8818359375 -22.186328125 -25.1 -21.75 -25.12734375 -21.6953125 -25.15 -21.65
L -25.15 -21.6
Q -25.2 -21.6 -25.2 -21.55
L -25.2 -21.5 -25.25 -21.45 -25.25 -21.35
Q -25.35 -21.3 -25.35 -21.25 -26.45 -19.1 -26.3 -18.7 -28.4 -13.45 -29.25 -11.15 -29.4 -11.2 -29.45 -11.35 -29.4 -11.15 -29.35 -11.1 -29.7 -10.3 -29.35 -8.85 -29.35 -8.55 -29.25 -8.3 -25.5 -5.25 -20.5 0 -18.95 0.25 -18 -0.85 -17.5 -1.55 -17.2 -2.45 -17.15 -3.1 -17.2 -4 -17.3 -6.75 -20.75 -8.7 -21.55 -8.85 -22.45 -9.15 -22.05 -9.2 -21.8 -9.65 -21.65 -10 -21.65 -10.6 -21.65 -13.2 -18.15 -18.55 -14.65 -23.85 -15.45 -20.85 -16.2 -17.8 -16 -12.95
L -16 -12.7
Q -14.85 -11.65 -12.8 -11.75 -10.95 -11.75 -10 -12.65 -9.1 -13.55 -9.95 -16 -10.9 -18.4 -10.65 -19.15 -10.45 -20 -10.15 -21.05 -9.75 -21.95 -9.65 -22.3
L -9.65 -22.45 -9.6 -23.05 -9.65 -23.05 -9.5 -26.45
Q -9.5 -25.65 -9.5 -24.95 -9.15 -25.5 -9.15 -29.8 -9.2 -34.9 -8.25 -32.7
L -7.8 -32.4 1.05 -49.3 1.7 -49.25 1.75 -49.25 17.75 -81.95 21.4 -89.9
M -13.45 -29.95
Q -13.3 -30.15 -13.2 -30.25
L -13.15 -30.25
Q -13.2 -30.15 -13.35 -29.95 -13.45 -29.85 -13.6 -29.8 -13.5 -29.85 -13.45 -29.95
M -11.9 -26.45
L -11.85 -26.4
Q -11.8 -26.3 -11.55 -26.2 -11.65 -26.15 -11.7 -26 -11.8 -26.2 -11.95 -26.3
L -11.9 -26.45 Z"/>

<path fill="#B1A96B" stroke="none" d="
M -11.85 -26.4
L -11.95 -26.3
Q -11.8 -26.2 -11.7 -26 -11.65 -26.15 -11.55 -26.2 -11.8 -26.3 -11.85 -26.4 Z"/>

<path fill="#000000" stroke="none" d="
M 21.5 -89.75
L 17.75 -81.95 1.75 -49.25 1.65 -49.1 1.7 -49.25 1.05 -49.3 -7.8 -32.4 -7.9 -32.1
Q -8.1 -32.4 -8.25 -32.7 -9.2 -34.9 -9.15 -29.8 -9.15 -25.5 -9.5 -24.95 -9.5 -25.65 -9.5 -26.45
L -9.65 -23.05 -9.6 -23.05 -9.65 -22.45 -9.65 -22.3
Q -9.75 -21.95 -10.15 -21.05 -10.45 -20 -10.65 -19.15 -10.9 -18.4 -9.95 -16 -9.1 -13.55 -10 -12.65 -10.95 -11.75 -12.8 -11.75 -14.85 -11.65 -16 -12.7
L -16 -12.95
Q -16.2 -17.8 -15.45 -20.85 -14.65 -23.85 -18.15 -18.55 -21.65 -13.2 -21.65 -10.6 -21.65 -10 -21.8 -9.65 -22.05 -9.2 -22.45 -9.15 -21.55 -8.85 -20.75 -8.7 -17.3 -6.75 -17.2 -4 -17.15 -3.1 -17.2 -2.45 -17.5 -1.55 -18 -0.85 -18.95 0.25 -20.5 0 -25.5 -5.25 -29.25 -8.3 -29.35 -8.55 -29.35 -8.85 -29.7 -10.3 -29.35 -11.1 -29.4 -11.15 -29.45 -11.35 -29.4 -11.2 -29.25 -11.15 -28.4 -13.45 -26.3 -18.7 -26.45 -19.1 -25.35 -21.25 -25.35 -21.3 -25.25 -21.35
L -25.25 -21.45
Q -25.2015625 -21.50078125 -25.2 -21.55 -25.2 -21.6 -25.15 -21.6
L -25.15 -21.65
Q -25.12734375 -21.6953125 -25.1 -21.75 -24.7248046875 -22.919921875 -24.3 -24.1
L -21.95 -26.85
Q -21.5 -27.55 -15.35 -36
L -15.3 -35.85 -14.6 -37.05
Q -14.4 -37.4 -14.15 -37.65 -14.25 -37.6 -14.35 -37.55
L 16.05 -95.8 12.55 -91.45
Q -9.3 -50.2 -9.3 -50.05
L -17.65 -36.05 -17.55 -36.05
Q -17.7 -35.85 -17.75 -35.75
L -21.25 -29.95 -21.2 -29.85 -25.7 -24
Q -30.9 -13.3 -30.95 -8.65 -30.95 -8.35 -30.9 -8.05 -30.9 -7 -30.6 -6.15
L -21.05 1.8
Q -19 2.75 -17.8 1.45 -16.7 0.1 -16 -1.2 -15.45 -2.45 -15.5 -3.1 -15.65 -4 -15.7 -5.6 -15.85 -7.05 -17.45 -9.65 -17.5 -9.75 -17.55 -9.8
L -19.5 -11.75
Q -19.8 -13.2 -18.65 -14.1
L -17.45 -12
Q -16.8 -11 -15.55 -10.45 -14.95 -10.15 -14.25 -10.1 -14 -9.95 -13.7 -9.85
L -13.7 -9.95
Q -13.35 -9.85 -13.05 -9.85 -12.15 -10 -10.95 -10.1 -10.1 -10.2 -9.4 -10.7 -8.8 -11.05 -8.3 -11.5 -7.15 -12.7 -7.8 -14.55 -8.9 -16.45 -9.1 -17.25 -9.5 -18.4 -8.8 -19 -8.6 -19.05 -8.1 -21.25 -7.8 -22.1 -6.7 -30.8 -6.6 -30.9 -6.55 -31.05
L 29 -98.4 24.05 -95.65 21.4 -89.9 21.5 -89.75 Z"/>
</g>

<g id="Duplicate_Items_Folder_arm_suit_copy_14_0_Layer2_0_FILL">
<path fill="#000000" stroke="none" d="
M -11.05 -11.6
Q -10.85 -10.85 -10.4 -10.45 -10 -10 -9.6 -9.75 -9.2 -9.45 -8.9 -9.3 -8.3 -9.2 -7.85 -9.35 -7 -9.65 -6.3 -10.15
L -8.4 -14.8
Q -9.65 -13.8 -11.65 -13.85 -11.45 -12.7 -11.05 -11.6
M -9 -9.95
Q -9.15 -10.1 -9.3 -10.2 -9.5 -10.25 -9.7 -10.5 -10.15 -10.85 -10.45 -11.6 -10.85 -12.4 -11 -13.3 -9.45 -13.25 -8.7 -13.8 -8.2 -12.05 -6.95 -10.25 -7.45 -10.15 -8 -9.85 -8.5 -9.75 -9 -9.95
M -21.35 -5.15
Q -22.25 -3.5 -23.95 -3.45
L -20.15 1.95
Q -19.25 1.65 -18.55 1.45 -17.75 1.1 -18.05 -0.2 -18.15 -1.3 -19.35 -2.85 -20.25 -4 -21.35 -5.15
M -22.85 -2.85
Q -21.8 -2.9 -21.15 -4.2 -20.3 -3.35 -19.6 -2.45 -18.85 -1.3 -18.65 -0.35 -18.45 0.6 -19 0.9 -19.5 1.1 -19.95 1.3 -21.2 -1.15 -22.85 -2.85 Z"/>

<path fill="#E7E8E3" stroke="none" d="
M -9.3 -10.2
Q -9.15 -10.1 -9 -9.95 -8.5 -9.75 -8 -9.85 -7.45 -10.15 -6.95 -10.25 -8.2 -12.05 -8.7 -13.8 -9.45 -13.25 -11 -13.3 -10.85 -12.4 -10.45 -11.6 -10.15 -10.85 -9.7 -10.5 -9.5 -10.25 -9.3 -10.2
M -21.15 -4.2
Q -21.8 -2.9 -22.85 -2.85 -21.2 -1.15 -19.95 1.3 -19.5 1.1 -19 0.9 -18.45 0.6 -18.65 -0.35 -18.85 -1.3 -19.6 -2.45 -20.3 -3.35 -21.15 -4.2 Z"/>
</g>

<g id="Duplicate_Items_Folder_arm_suit_copy_14_0_Layer1_0_FILL">
<path fill="#7893FE" stroke="none" d="
M 35 -130.6
Q 30.25 -130.55 25.1 -127.85 19.25 -124.95 11.15 -118
L 2.7 -110.3
Q 1.75 -109.4 1.4 -108.3 -1.45 -102.1 7.7 -93.85 14.75 -87.45 24.8 -82.4 36.65 -78.5 44.25 -95.1 47.45 -102.15 49.75 -112.6 49.7 -112.85 49.75 -112.8
L 49.85 -113.05
Q 52.45 -116.35 50.9 -121.95 49.55 -126.55 45.75 -128.2
L 44.9 -128.5
Q 39.65 -130.8 35 -130.6 Z"/>
</g>

<g id="Duplicate_Items_Folder_arm_suit_copy_14_0_Layer0_0_FILL">
<path fill="#990000" stroke="none" d="
M 27.5 -92.2
L 27.4 -91.9
Q 48.25 -102.8 41.35 -119.65 28.1 -109.75 27.5 -92.2
M 9.7 -105.05
L 9.9 -105.2
Q 23.05 -110.75 30.9 -123.95 18.65 -124.55 9.7 -105.05 Z"/>
</g>

<g id="Duplicate_Items_Folder_body_suit_copy_11_0_Layer3_0_FILL">
<path fill="#CC0000" stroke="none" d="
M -24.85 -86
Q -28.95 -67.9 -31.9 -61.75 -34.9 -55.55 -46.6 -37.7 -58.4 -19.8 -59.55 0.9 -80.9 24.25 -83.55 52.25
L -83.6 53.05
Q -86.95 61.35 -82.45 64.2 -58.1 79.7 3.7 69.05 0.3 68.4 -3.2 67.8
L -2.3 -111.6
Q -20.9220703125 -103.5548828125 -24.85 -86
M -2.3 -112.65
L -2.15 -135.35 -11.85 -117.1 -2.3 -112.65
M 9.5 -143.45
L 3.7 -139.4 9.55 -135.35 9.5 -143.45
M 13.75 -117.85
L 9.55 -135.35 3.7 -139.4 -2.1 -143.45 -2.15 -135.35 -2.3 -112.65 -1.1 -112.1
Q -1.693359375 -111.858984375 -2.3 -111.6
L -3.2 67.8
Q 0.3 68.4 3.7 69.05 65.5 79.7 89.85 64.2 94.35 61.35 91 53.05
L 90.95 52.25
Q 88.3 24.25 66.9 0.9 65.8 -19.8 54 -37.7 42.2978515625 -55.55390625 41.35 -64 40.4060546875 -72.3888671875 28.8 -96.2 17.241796875 -120.0150390625 13.75 -117.85 Z"/>
</g>

<g id="Duplicate_Items_Folder_body_suit_copy_11_0_Layer2_0_FILL">
<path fill="#FFFFFF" stroke="none" d="
M 38 -134.4
Q 38.35 -139.6 32.95 -141.15
L 32.55 -141.25
Q 32.45 -141.3 32.2 -141.35 19.05 -145.05 4.65 -143.55
L 4.45 -143.55
Q -9.9 -145.05 -23.1 -141.35 -23.3 -141.3 -23.5 -141.25
L -23.8 -141.15
Q -29.25 -139.6 -28.85 -134.4 -28.45 -130.1 -24.2 -123.75 -21.3 -119.15 -19 -116.4
L -17.3 -114.65 -17.35 -114.45 -17.4 -114.35 4.1 -110.2 5.05 -110.2 26.6 -114.35 26.45 -114.65 28.1 -116.4
Q 30.4 -119.15 33.25 -123.75 37.5 -130.1 38 -134.4 Z"/>
</g>

<g id="Duplicate_Items_Folder_body_suit_copy_11_0_Layer1_0_FILL">
<path fill="#FFFFFF" stroke="none" d="
M -26.85 -90.3
L -27 -90.05 -26.85 -90.1 -26.85 -90.3 Z"/>

<path fill="#CBBEAD" stroke="none" d="
M 23.05 -122.2
Q 22.7 -122.2 22.45 -122.2
L 23.15 -121.75
Q 23.1 -122 23.05 -122.2 Z"/>

<path fill="#FFB300" stroke="none" d="
M -32.5 80.45
Q -28.35 81.25 -24.05 81.9 -12.4 65.4 -14.45 41.8 -17.75 66.7 -32.5 80.45
M -65.75 42.05
L -68.7 43.5
Q -70.8 51.25 -70.55 55.65 -68.2 48.55 -65.75 42.05
M -26.1 22.85
Q -25 16.35 -24.25 9.4 -26.85 17.35 -29.65 24.55 -42.15 56.95 -58.45 74.1 -52.2 76.05 -45.8 77.6 -31.7 57 -26.1 22.85
M 23.05 10.1
Q 14.25 47.85 29.6 83.55 35.75 83 41.95 82.2 23.95 54.35 23.05 10.1
M 57.05 79.8
Q 61.25 79 65.55 78.05 55.9 70.65 54.35 48.1 48.2 64.6 57.05 79.8
M 57.6 -3.1
Q 51.85 -17 44.2 -24.65
L 37.3 -18.4
Q 56.05 2.95 76.5 61.05 76.8 60.3 77.05 59.65
L 77.9 58.6
Q 79.1 54.5 76.85 45.5 72.75 29.2 57.6 -3.1 Z"/>

<path fill="#FFCC00" stroke="none" d="
M -70.55 55.65
Q -70.5 57 -70.2 58.1
L -69.35 59.35
Q -68 63.05 -65.8 67.05 -64.1 70 -61.85 73 -60.15 73.55 -58.45 74.1 -42.15 56.95 -29.65 24.55 -45.6 46.35 -65.75 42.05 -68.2 48.55 -70.55 55.65
M 41.95 82.2
Q 49.45 81.2 57.05 79.8 48.2 64.6 54.35 48.1 55.9 70.65 65.55 78.05 65.75 78 65.95 77.95 71 72.05 74.05 66.35 75.5 63.7 76.5 61.05 56.05 2.95 37.3 -18.4 29.5 -0.15 11 4.9 0.5 31.2 -26.1 22.85 -31.7 57 -45.8 77.6 -39.2 79.25 -32.5 80.45 -17.75 66.7 -14.45 41.8 -12.4 65.4 -24.05 81.9 2.25 85.75 29.6 83.55 14.25 47.85 23.05 10.1 23.95 54.35 41.95 82.2
M 59.75 32.85
L 59.2 31.6 59.8 32.05 59.75 32.85 Z"/>

<path fill="#ECA602" stroke="none" d="
M -24.7 -32.15
Q -24.45 -32.15 -25.2 -32.55 -40.3 -26.8 -49.95 -3.5 -59.2 16.3 -64.3 30.05 -67.15 37.7 -68.7 43.5
L -65.75 42.05
Q -46.05 -10.4 -19.75 -28.95 -22.25 -29.9 -26 -31 -23.8 -31.2 -25.15 -32.25 -24.85 -32.15 -24.7 -32.15
M 29.05 -26.55
Q 28.75 -26.5 28.55 -26.45 32.85 -23.45 37.3 -18.4
L 44.2 -24.65
Q 41.9 -26.95 39.4 -28.7 34.1 -27.45 29.05 -26.55 Z"/>

<path fill="#011D87" stroke="none" d="
M -13.9 -55.25
L -13.7 -56.25
Q -13.95 -55.6 -14.15 -54.95
L -13.9 -55.25
M -13.5 -57.1
Q -13.3 -57.5 -13.05 -57.9
L -13.25 -58
Q -13.35 -57.55 -13.5 -57.1
M 21.65 -121.65
L 21.8 -121.2
Q 21.85 -121 21.9 -120.75 21.95 -120.6 22.1 -120.35
L 22.9 -117.65
Q 26.9 -103.35 22.65 -95.8 25.5 -96.9 25.5 -96.6 25.5 -96.25 25.15 -96.05 24 -95.65 22.95 -95.3 12.75 -91.15 7 -82.85 6.65 -82.2 6.3 -81.55 6.25 -81.5 6.25 -81.4 6.2 -81.4 6.2 -81.35 6.1 -81.25 6 -81.05
L 5.7 -81.8
Q 6.1 -82.35 1.05 -87.45 -3.95 -92.65 -17.05 -96.85 -14.7 -96.45 -14.7 -96.85 -14.75 -97.2 -14.65 -97.55
L -12.45 -119.75 -12.45 -120 -17.9 -119.65
Q -17.35 -104.85 -18.5 -101.05 -19.6 -97.25 -19.8 -96.65
L -20 -96.6 -21.65 -94.25
Q -21.9 -94.05 -22.3 -93.75 -23.2 -93 -23.95 -92.2 -24.65 -91.55 -26.8 -87.75 -30.5 -80.5 -24.65 -74.35 -19.55 -69.25 -14.7 -68.65 -14.7 -68.7 -14.5 -68.65
L -13.25 -68.85 -13.05 -57.9
Q -13.3 -57.5 -13.5 -57.1 -13.55 -56.9 -13.6 -56.7 -13.65 -56.5 -13.7 -56.25
L -13.9 -55.25 -14.15 -54.95
Q -17.1 -38.15 -24.6 -33.25 -23.35 -31.95 -24.7 -32.15 -24.85 -32.15 -25.15 -32.25 -23.8 -31.2 -26 -31 -22.25 -29.9 -19.75 -28.95 -18.8 -28.55 -17.8 -28.2 1.2 -21.8 28.55 -26.45 28.75 -26.5 29.05 -26.55 34.1 -27.45 39.4 -28.7 39.6 -28.75 39.75 -28.8
L 39.75 -28.95
Q 39.15 -29.25 38.65 -29.45 34.75 -30.05 29.95 -49.35
L 30.1 -48.65
Q 25.1 -61.65 26.1 -68.5 30.6 -69.35 35.35 -74.2 39.2 -78.25 38.95 -82.75 38.85 -85.05 37.55 -87.5 36.8 -88.8 36.2 -89.8 36.2302734375 -89.7091796875 36.25 -89.65
L 36.1 -89.95 36.05 -90 35.3 -91.3 30.7 -96.4 30.6 -96.45 30.6 -96.55 30.55 -96.6
Q 29.75 -98.6 29.1 -100 28.4 -101.55 28.6 -120.35
L 22.25 -121.3 21.65 -121.65
M 8.4 -66.3
Q 8.7 -66.5 8.7 -66.3 8 -66.05 8 -66.1 8.1 -66.25 8.2 -66.3 8.35 -66.3 8.4 -66.3
M 11.45 -34.65
L 11.35 -34.7 11.35 -34.85 11.45 -34.65 Z"/>

<path fill="#BACEDD" stroke="none" d="
M 59.2 31.6
L 59.75 32.85 59.8 32.05 59.2 31.6 Z"/>

<path fill="#FED945" stroke="none" d="
M 37.3 -18.4
Q 32.85 -23.45 28.55 -26.45 1.2 -21.8 -17.8 -28.2 -18.8 -28.55 -19.75 -28.95 -46.05 -10.4 -65.75 42.05 -45.6 46.35 -29.65 24.55 -26.85 17.35 -24.25 9.4 -25 16.35 -26.1 22.85 0.5 31.2 11 4.9 29.5 -0.15 37.3 -18.4 Z"/>

<path fill="#BCC2B4" stroke="none" d="
M 21.8 -121.2
L 21.65 -121.65 6.5 -123.2
Q -5.3 -123.6 -12.45 -119.75
L -14.65 -97.55
Q -14.75 -97.2 -14.7 -96.85 -14.7 -96.45 -17.05 -96.85 -3.95 -92.65 1.05 -87.45 6.1 -82.35 5.7 -81.8
L 6 -81.05
Q 6.1 -81.25 6.2 -81.35 6.2 -81.4 6.25 -81.4 6.25 -81.5 6.3 -81.55 6.65 -82.2 7 -82.85 12.75 -91.15 22.95 -95.3
L 22.65 -95.8
Q 26.9 -103.35 22.9 -117.65
L 22.1 -120.35
Q 21.95 -120.6 21.9 -120.75 21.85 -121 21.8 -121.2 Z"/>

<path fill="#FFFFCC" stroke="none" d="
M 8.7 -66.3
Q 8.7 -66.5 8.4 -66.3 8.35 -66.3 8.2 -66.3 8.1 -66.25 8 -66.1 8 -66.05 8.7 -66.3 Z"/>
</g>

<g id="Duplicate_Items_Folder_head_copy_23_7_Layer7_0_FILL">
<path fill="#FF0000" stroke="none" d="
M 12.5 -3.6
Q 13.3 -3.55 13.85 -4.25 14.5 -4.85 14.5 -5.85 14.5 -6.9 13.9 -7.6 13.4 -8.3 12.6 -8.35 11.85 -8.4 11.2 -7.8 10.65 -7.1 10.65 -6.1 10.65 -5.1 11.15 -4.4 11.7 -3.65 12.5 -3.6
M 9.45 -15.8
Q 8.6 -17.15 7.2 -17.25 5.85 -17.3 4.9 -16 3.95 -14.75 3.85 -12.85 3.85 -11 4.75 -9.65 5.75 -8.3 7.1 -8.25 8.5 -8.1 9.4 -9.4 10.3 -10.65 10.35 -12.5 10.35 -14.4 9.45 -15.8
M 35.85 -33.25
Q 35.9 -36.45 34.1 -38.8 32.35 -41.15 29.75 -41.3 27.45 -41.4 25.75 -39.65 23.15 -42.55 19.75 -42.7 15.65 -42.95 12.75 -39.4 12.6 -39.2 12.5 -39.1 12.3 -39.7 12.05 -40.35 10.95 -43.15 9.2 -43.3 7.75 -43.35 6.7 -41.55 5.1 -43.5 3.1 -43.6 0.45 -43.75 -1.5 -40.7 -3.4 -37.65 -3.45 -33.25 -3.5 -28.8 -1.7 -25.55 0.15 -22.3 2.8 -22.15 5.45 -22 7.35 -25.05 7.35 -25.1 7.45 -25.1 8.1 -24.45 8.95 -24.45 9.85 -24.35 10.6 -25 11.25 -23.15 12.45 -21.5 15.35 -17.65 19.4 -17.45 23.45 -17.2 26.4 -20.75 28.25 -23 29 -25.95 29.25 -25.9 29.55 -25.9 32.15 -25.75 34 -27.85 35.85 -30 35.85 -33.25 Z"/>
</g>

<g id="Duplicate_Items_Folder_head_copy_23_7_Layer6_0_FILL">
<path fill="#838C73" stroke="none" d="
M 55.6 -104.95
Q 54.45 -99.75 54.6 -95.2
L 55.6 -104.95 Z"/>

<path fill="#EBECE8" stroke="none" d="
M 13.85 -98.4
Q 10.3 -96.05 4.45 -94.55 -1.5 -93.25 -4.8 -93.45 -8.25 -93.8 -8.8 -94 -12.65 -93.2 -13.5 -89.25 -14.3 -85.45 -6.9 -78.05 0.35 -70.65 5.95 -71.3 11.6 -72.05 5.45 -78.55 -0.8 -85.05 17.7 -88.35 17.2 -89.3 17 -90.5 17 -90.8 17 -90.9 16.9 -90.5 16.9 -90.2 16.05 -95.75 13.85 -98.4
M 53.45 -89.05
Q 53.35 -89.95 53.15 -90.75 49.95 -88.35 46.75 -87.75 43.5 -87.1 37.85 -93.9 35.4 -91.05 38.35 -87.5 41.25 -83.95 42.5 -79.6 43.9 -75.25 46.85 -75.4 49.85 -75.55 51.95 -79.6 54.05 -83.7 53.45 -89.05
M 16.95 -58.1
Q 15.1 -57.7 15.35 -55.95 15.55 -54.15 17.85 -53.2 20.25 -52.2 23.3 -52.65 26.25 -53 28.25 -54.5 30.4 -56.05 30.1 -57.85 29.9 -59.6 27.05 -58.05 24.15 -56.6 21.4 -57.6 18.65 -58.55 16.95 -58.1 Z"/>

<path fill="#A6AB98" stroke="none" d="
M 32.95 -91.75
Q 32.15 -94.45 30.85 -97.3 29.5 -100.05 27.55 -100.65 25.65 -101.3 21.55 -97.8 17.4 -94.35 17 -90.9 17 -90.8 17 -90.5 17.2 -89.3 17.7 -88.35 18.7 -86.85 23 -85.3 27.2 -83.8 28.65 -84.3 30 -84.85 31.8 -86.95 33.65 -89.15 32.95 -91.75
M 37.4 -111.45
Q 33.65 -108.6 33.5 -103.95 33.35 -99.3 34.9 -96.95 36.6 -94.5 37.85 -93.9 43.5 -87.1 46.75 -87.75 49.95 -88.35 53.15 -90.75 53.6 -91.15 54.1 -91.45 54.15 -91.5 54.2 -91.5
L 54.6 -95.2
Q 54.45 -99.75 55.6 -104.95
L 56 -108.9
Q 49.35 -112.75 46.35 -113.3 41.3 -114.2 37.4 -111.45
M 18.55 -109.85
Q 17.6 -114.3 11.4 -116.45 5.1 -118.55 -2.4 -116.9 -5.85 -116.1 -12.3 -112.75 -12.7 -112.55 -13.1 -112.35 -14.35 -111.7 -12.55 -111.8 -13.9 -106.4 -12.25 -111.4 -11.4 -101.6 -13.95 -97.2
L -9.5 -94.15
Q -9.4 -94.15 -9.2 -94.05 -9.05 -94.05 -8.8 -94 -8.25 -93.8 -4.8 -93.45 -1.5 -93.25 4.45 -94.55 10.3 -96.05 13.85 -98.4 14.2 -98.8 14.4 -99.05 16.25 -99.95 17.85 -102.75 19.4 -105.65 18.55 -109.85 Z"/>

<path fill="#1A1E2B" stroke="none" d="
M 61.45 -132.35
Q 65.65 -126.55 66.35 -121.75 69.15 -134.05 57.85 -144.6 51.25 -150.15 42.25 -155.75 38.95 -157.7 35.8 -159.4 37.65 -149.7 46.2 -140.8 48.65 -135.95 61.45 -132.35
M 66.45 -119.4
Q 66.35 -115.6 63.8 -112.7 71.7 -115.05 71.75 -105.75
L 66 -85.35 67.3 -71
Q 48 -57.8 47.5 -68.75 44.2 -63.4 40.2 -59.45 50.2 -49.8 57.35 -59.55 64.85 -57.85 70.8 -66.8 76.65 -75.85 74 -81.8 71.4 -87.75 75.15 -95.2 77.25 -99.55 78.9 -104.65 80.9 -112.7 75.8 -115.65 71.1 -118.45 66.45 -119.4 Z"/>

<path fill="#BCC2B4" stroke="none" d="
M 34.25 -145.95
Q 33.65 -145.6 33.2 -145.2 23.85 -138.25 11 -139.15 -5.95 -140.45 -13.1 -124.45 -13 -117.75 -13.1 -112.35 -12.7 -112.55 -12.3 -112.75 -5.85 -116.1 -2.4 -116.9 5.1 -118.55 11.4 -116.45 17.6 -114.3 18.55 -109.85 19.4 -105.65 17.85 -102.75 16.25 -99.95 14.4 -99.05 14.2 -98.8 13.85 -98.4 16.05 -95.75 16.9 -90.2 16.9 -90.5 17 -90.9 17.4 -94.35 21.55 -97.8 25.65 -101.3 27.55 -100.65 29.5 -100.05 30.85 -97.3 32.15 -94.45 32.95 -91.75 33.65 -89.15 31.8 -86.95 30 -84.85 28.65 -84.3 27.2 -83.8 23 -85.3 18.7 -86.85 17.7 -88.35 -0.8 -85.05 5.45 -78.55 11.6 -72.05 5.95 -71.3 0.35 -70.65 -6.9 -78.05 -14.3 -85.45 -13.5 -89.25 -12.65 -93.2 -8.8 -94 -9.05 -94.05 -9.2 -94.05 -9.4 -94.15 -9.5 -94.15
L -13.95 -97.2
Q -11.4 -101.6 -12.25 -111.4 -14.8 -94.35 -18.7 -93.05 -10.55 -80.8 -13.35 -69.1 -13.35 -68.85 -13.5 -68.45 -11.25 -65.7 -9.55 -63.4 -4.1 -55.7 -4.95 -53.1 -4.25 -46.15 -3.9 -44.25 -3.9 -44.35 -3.65 -43.55 -3.1 -42.35 -2 -38.95
L 4.3 -35.55 5.75 -41.35 4.3 -35.55 12.9 -33.7 13.05 -39.95 12.9 -33.7 20.25 -35.45 19.65 -39.55 20.25 -35.45 29 -37.8 27.9 -43.35 29 -37.8 35.25 -36.35
Q 33.7 -43.05 35.25 -47 36.75 -50.95 39.55 -58.8 36.3 -55.7 32.6 -53.4 24.2 -49.55 16.3 -51.35 2.65 -56.25 -2 -62.45 2.65 -56.25 16.3 -51.35 24.2 -49.55 32.6 -53.4 36.3 -55.7 39.55 -58.8 39.65 -59.3 39.8 -59.75 40.05 -59.55 40.2 -59.45 44.2 -63.4 47.5 -68.75 49 -71.2 50.5 -74.05 56.9 -82 55 -91.5 54.7 -93.25 54.6 -95.2
L 54.2 -91.5
Q 54.15 -91.5 54.1 -91.45 53.6 -91.15 53.15 -90.75 53.35 -89.95 53.45 -89.05 54.05 -83.7 51.95 -79.6 49.85 -75.55 46.85 -75.4 43.9 -75.25 42.5 -79.6 41.25 -83.95 38.35 -87.5 35.4 -91.05 37.85 -93.9 36.6 -94.5 34.9 -96.95 33.35 -99.3 33.5 -103.95 33.65 -108.6 37.4 -111.45 41.3 -114.2 46.35 -113.3 49.35 -112.75 56 -108.9
L 55.6 -104.95
Q 56 -106.55 56.45 -108.2
L 57.25 -111.2
Q 58.5 -126.75 39.7 -117.15 58.5 -126.75 57.25 -111.2
L 59.15 -120.35
Q 59.3 -120.7 59.4 -120.85 61.05 -126.35 52.95 -130.55 36.35 -136 34.25 -145.95
M 8.55 -130.25
L 7.1 -126.45
Q 9.65 -124.95 12 -121.8
L 14.1 -124.2 12 -121.8
Q 12.95 -120.6 13.9 -119.05 12.95 -120.6 12 -121.8
L 9.55 -118.9 12 -121.8
Q 9.65 -124.95 7.1 -126.45
L 5.55 -122.35 7.1 -126.45
Q 1.6 -129.9 -4.65 -125.75 1.6 -129.9 7.1 -126.45
L 8.55 -130.25
M 15.35 -55.95
Q 15.1 -57.7 16.95 -58.1 18.65 -58.55 21.4 -57.6 24.15 -56.6 27.05 -58.05 29.9 -59.6 30.1 -57.85 30.4 -56.05 28.25 -54.5 26.25 -53 23.3 -52.65 20.25 -52.2 17.85 -53.2 15.55 -54.15 15.35 -55.95 Z"/>

<path fill="#000000" stroke="none" d="
M 35.8 -159.4
Q 35.3 -159.65 34.75 -159.95
L 33.2 -145.2
Q 33.65 -145.6 34.25 -145.95 36.35 -136 52.95 -130.55 61.05 -126.35 59.4 -120.85 59.3 -120.7 59.15 -120.35
L 57.25 -111.2 56.45 -108.2
Q 56 -106.55 55.6 -104.95
L 54.6 -95.2
Q 54.7 -93.25 55 -91.5 56.9 -82 50.5 -74.05 49 -71.2 47.5 -68.75 48 -57.8 67.3 -71
L 66 -85.35 71.75 -105.75
Q 71.7 -115.05 63.8 -112.7 66.35 -115.6 66.45 -119.4 66.1 -119.45 65.7 -119.5 66.15 -120.7 66.35 -121.75 65.65 -126.55 61.45 -132.35 48.65 -135.95 46.2 -140.8 37.65 -149.7 35.8 -159.4
M 25.05 -164.25
L 9.9 -158.65 0 -155.1 9.9 -158.65 10.85 -162.4
Q -19.5 -155.1 -20.8 -142.4 -22.1 -129.7 -21 -124.75 -20.05 -119.85 -27.45 -99.85 -40.15 -98.45 -34.5 -86.75 -41.15 -68.15 -24.8 -65.55 -15.75 -52.85 -9.55 -63.4 -11.25 -65.7 -13.5 -68.45 -13.35 -68.85 -13.35 -69.1 -10.55 -80.8 -18.7 -93.05 -14.8 -94.35 -12.25 -111.4 -13.9 -106.4 -12.55 -111.8 -14.35 -111.7 -13.1 -112.35 -13 -117.75 -13.1 -124.45 -5.95 -140.45 11 -139.15 23.85 -138.25 33.2 -145.2
L 34.75 -159.95
Q 34.6 -160 34.45 -160.1 29.55 -162.6 25.05 -164.25
M -20.2 -137.7
L -19.15 -134.75 -20.2 -137.7 Z"/>

<path fill="#10121B" stroke="none" d="
M 9.9 -158.65
L 25.05 -164.25
Q 17.4 -167 11.15 -167.15 -2.9 -167.25 -12.65 -160.55 -19.85 -155.6 -28.05 -143.75 -33.55 -136 -34.7 -120 -35.1 -112.55 -35.3 -110.05 -35.55 -105.75 -37.85 -106.2 -40.1 -106.7 -44.3 -99.4 -48.7 -92.25 -46.1 -85 -43.6 -77.85 -42.15 -72.45 -41.55 -67.7 -37 -64.8 -32.4 -61.75 -30.65 -60.7 -29 -59.75 -25.05 -54.9 -21.05 -50.1 -4.95 -53.1 -4.1 -55.7 -9.55 -63.4 -15.75 -52.85 -24.8 -65.55 -41.15 -68.15 -34.5 -86.75 -40.15 -98.45 -27.45 -99.85 -20.05 -119.85 -21 -124.75 -22.1 -129.7 -20.8 -142.4 -19.5 -155.1 10.85 -162.4
L 9.9 -158.65 Z"/>
</g>

<g id="Duplicate_Items_Folder_head_copy_23_7_Layer5_0_FILL">
<path fill="#000000" stroke="none" d="
M 25.25 -94.85
Q 24.8 -97.3 23.45 -96.05 22.05 -94.9 20.95 -94.05 20 -93.25 19.6 -91.9 19.35 -90.55 20 -89.5 20.65 -88.35 21.8 -88.1 22.95 -87.85 24 -88.6 25.05 -89.3 25.35 -90.8 25.7 -92.35 25.25 -94.85
M 30.5 -88.35
Q 30.75 -89.55 30.55 -90.5 30.15 -91.4 29.1 -92.8 28 -94.15 27.85 -92.65 27.7 -91.15 27.05 -90.3 26.5 -89.4 26.2 -88.6 25.9 -87.75 26.8 -86.8 27.75 -85.95 28.3 -85.8 28.95 -85.65 29.65 -86.5 30.15 -87.2 30.5 -88.35 Z"/>
</g>

<g id="Duplicate_Items_Folder_head_copy_23_7_Layer4_0_FILL">
<path fill="#FF0000" stroke="none" d="
M 29.2 -166.7
Q 26.1 -161.05 30.55 -156.35 33.7 -152.45 37.75 -156.4 39.1 -161.15 37.3 -165.4 33.45 -170.45 29.2 -166.7
M 11.3 -162.05
L 11.4 -161.65 11.2 -161.45 14.75 -152.95 15.8 -151.5 17.35 -151.05 17.85 -151 17.9 -150.95 18.15 -150.95 18.65 -150.85
Q 19.05 -150.75 19.45 -150.7 25.1 -150.2 29.25 -156.4
L 30.55 -156.35
Q 26.1 -161.05 29.2 -166.7
L 28 -166.85
Q 20.45 -174.15 15.65 -173.45 10.8 -172.8 10.85 -167.25
L 11.3 -162.05
M 53.15 -157.9
Q 51.45 -165.8 48.2 -168.55 46.1 -170.5 41.85 -168.1
L 38.05 -165.35 37.3 -165.4
Q 39.1 -161.15 37.75 -156.4
L 39.2 -156.4
Q 41.15 -153.85 45 -150.55 48.85 -147.15 51.95 -148.4 55 -149.6 53.15 -157.9 Z"/>

<path fill="#E30202" stroke="none" d="
M 14.75 -152.95
L 11.2 -161.45
Q -3.6 -157.05 -7.4 -147.9 5.7 -155.3 14.75 -152.95 Z"/>
</g>

<g id="Duplicate_Items_Folder_head_copy_23_7_Layer3_0_FILL">
<path fill="#FFFFFF" stroke="none" d="
M 38.05 -106.8
Q 36.8 -105.4 36.8 -103.65 36.65 -100.8 40.55 -97.35 41.45 -97.05 42.35 -96.85 51.05 -94.6 55.4 -100 55.2 -100 55.2 -100.25
L 55.2 -100.3
Q 54.15 -101.85 53.4 -103.35 50.25 -108.1 46.6 -108.5 44.4 -109.65 42.5 -109.45 40.05 -109.2 38.05 -106.8
M 40.1 -103.55
Q 40.1 -103.75 40.1 -104.05 40.65 -105.75 42.15 -106.3 42.3 -106.4 42.45 -106.45 43.6 -107.15 44.55 -106.95 44.95 -106.95 45.35 -106.8 45.45 -106.8 45.55 -106.75 47.15 -106.3 48.05 -104.95 49.05 -103.15 48.35 -101.7 48 -99.85 46.3 -99.05 46.1 -98.95 45.9 -98.85 44.4 -98.45 43 -98.85 42.65 -99.05 42.6 -98.9 42.45 -98.95 42.35 -98.95 40.95 -99.6 40.5 -101 40.1 -101.5 40.2 -102.3 40.05 -102.8 40.1 -103.35
L 40.1 -103.55
M 14.4 -106.6
Q 14.55 -108.45 13.4 -110.2 9.95 -115.75 3.75 -114.3 -0.6 -115.05 -4.85 -111.2 -5.95 -110.05 -7.4 -108.6
L -7.35 -108.5
Q -7.35 -108.15 -7.7 -108.4 -3 -100.9 9.2 -101.3 14.15 -103.65 14.4 -106.6
M 6 -112.75
Q 6.45 -112.8 6.85 -112.6 8.1 -112.55 9.05 -111.55 10.35 -110.55 10.6 -108.45 10.45 -107.3 10.2 -106.55 10.15 -105.65 9.8 -105.1 9.65 -104.9 9.5 -104.75 8.6 -103.55 7.5 -103.25 7.15 -103.25 7.1 -103.1 5.6 -103.1 4.25 -103.8 4.1 -103.95 3.85 -104.1 2.8 -105.05 2.55 -106.6 2.45 -107.05 2.4 -107.45 2.1 -109.35 3.3 -111.15 4.4 -112.5 6 -112.75 Z"/>

<path fill="#FF0000" stroke="none" d="
M 40.1 -104.05
Q 40.1 -103.75 40.1 -103.55
L 40.1 -103.35
Q 40.05 -102.8 40.2 -102.3 40.1 -101.5 40.5 -101 40.95 -99.6 42.35 -98.95 42.45 -98.95 42.6 -98.9 42.65 -99.05 43 -98.85 44.4 -98.45 45.9 -98.85 46.1 -98.95 46.3 -99.05 48 -99.85 48.35 -101.7 49.05 -103.15 48.05 -104.95 47.15 -106.3 45.55 -106.75 45.45 -106.8 45.35 -106.8 44.95 -106.95 44.55 -106.95 43.6 -107.15 42.45 -106.45 42.3 -106.4 42.15 -106.3 40.65 -105.75 40.1 -104.05
M 45.2 -103.7
Q 45.3 -103.3 45.35 -102.9 45.4 -102.45 45.25 -102 45.056640625 -101.178515625 44.1 -100.9 44.08359375 -100.86015625 44.05 -100.85 43.35 -100.4 42.6 -100.7 42.4 -100.5 42.4 -100.55
L 42.75 -100.95
Q 42.5 -101.15 42.4 -101.3 42.2 -101.5 42.05 -101.7 41.9 -102 41.9 -102.4 41.8 -102.85 42.15 -103.2 42.2 -103.65 42.4 -103.95 42.65 -104.2 42.9 -104.45 43.2 -104.55 43.5 -104.6 43.65 -104.65 43.75 -104.65
L 44.1 -104.55
Q 44.9 -104.45 45.2 -103.7
M 6.85 -112.6
Q 6.45 -112.8 6 -112.75 4.4 -112.5 3.3 -111.15 2.1 -109.35 2.4 -107.45 2.45 -107.05 2.55 -106.6 2.8 -105.05 3.85 -104.1 4.1 -103.95 4.25 -103.8 5.6 -103.1 7.1 -103.1 7.15 -103.25 7.5 -103.25 8.6 -103.55 9.5 -104.75 9.65 -104.9 9.8 -105.1 10.15 -105.65 10.2 -106.55 10.45 -107.3 10.6 -108.45 10.35 -110.55 9.05 -111.55 8.1 -112.55 6.85 -112.6
M 7.65 -109.8
Q 8.15 -109.65 8.65 -109.35 9.3 -108.45 9.35 -107.75 9.55 -107.2 9.4 -106.8 9.25 -106.25 9.05 -105.95 8.7 -105.45 7.9 -105.05 7.8 -105.05 7.7 -105.2 6.8 -105.05 6.3 -105.55 5.5 -106.25 5.4 -107.2 5.35 -108.2 5.9 -109 6.4 -109.8 7.25 -109.8 7.25 -109.85 7.65 -109.8 Z"/>

<path fill="#000000" stroke="none" d="
M 45.35 -102.9
Q 45.3 -103.3 45.2 -103.7 44.9 -104.45 44.1 -104.55
L 43.75 -104.65
Q 43.65 -104.65 43.5 -104.6 43.2 -104.55 42.9 -104.45 42.65 -104.2 42.4 -103.95 42.2 -103.65 42.15 -103.2 41.8 -102.85 41.9 -102.4 41.9 -102 42.05 -101.7 42.2 -101.5 42.4 -101.3 42.5 -101.15 42.75 -100.95 42.85 -100.85 43.05 -100.7
L 43.15 -100.9
Q 43.5970703125 -100.6763671875 44.05 -100.85 44.08359375 -100.86015625 44.1 -100.9 44.2330078125 -100.9220703125 44.35 -101 45.1 -101.35 45.25 -102.15 45.35 -102.5 45.35 -102.9
M 8.65 -109.35
Q 8.15 -109.65 7.65 -109.8 7.25 -109.85 7.25 -109.8 6.4 -109.8 5.9 -109 5.35 -108.2 5.4 -107.2 5.5 -106.25 6.3 -105.55 6.8 -105.05 7.7 -105.2 7.8 -105.05 7.9 -105.05 8.7 -105.45 9.05 -105.95 9.25 -106.25 9.4 -106.8 9.55 -107.2 9.35 -107.75 9.3 -108.45 8.65 -109.35 Z"/>
</g>

<g id="Duplicate_Items_Folder_head_copy_23_7_Layer2_0_FILL">
<path fill="#EBECE8" stroke="none" d="
M 27.75 -118
Q 31.196484375 -120.1453125 37.75 -125.1 44.3080078125 -129.9982421875 43.3 -131.25 42.330859375 -132.4625 36.4 -133.35 30.5142578125 -134.19453125 25.1 -135.2 19.68359375 -136.1970703125 16.1 -134.1 12.56640625 -132.003125 16.45 -126.8 20.39453125 -121.5490234375 22.35 -118.7 24.3515625 -115.8525390625 27.75 -118 Z"/>
</g>

<g id="Duplicate_Items_Folder_head_copy_23_7_Layer1_0_FILL">
<path fill="#DF464B" stroke="none" d="
M 30.1 -70.3
Q 30 -70.55 29.9 -70.8
L 29.7 -70.3 30.1 -70.3
M 29.5 -69.9
L 29.55 -69.95 29.5 -69.95 29.5 -69.9 Z"/>

<path fill="#650101" stroke="none" d="
M 12.45 -73.65
Q 12.3984375 -73.6515625 12.35 -73.7 12.303125 -73.653125 12.2 -73.65
L 12.45 -73.65
M 13.85 -72.85
Q 13.3 -70.4 15.55 -66.5 17.75 -62.55 22.2 -63.1 26.6 -63.5 28.15 -66.25 29.4 -68.65 29.45 -69.9
L 29.15 -69.9
Q 22.05 -68.45 13.85 -72.85 Z"/>

<path fill="#990000" stroke="none" d="
M 12.35 -73.7
Q 12.3984375 -73.6515625 12.45 -73.65
L 12.65 -73.65
Q 12.4 -73.8 12.35 -73.7
M 29.5 -69.95
L 29.55 -69.95 29.55 -70 29.5 -69.95
M 14.4 -72.6
Q 14.35 -72.7 14.3 -72.8 14.2 -72.85 14.1 -72.9 14.1 -72.95 13.95 -73
L 13.9 -73
Q 13.85 -72.9 13.85 -72.85 22.05 -68.45 29.15 -69.9
L 29.05 -69.9
Q 28.6 -74.7 26.1 -75.55
L 22.9 -73.9 19.5 -76.8
Q 14.5 -76.05 14.4 -72.6 Z"/>
</g>

<path id="Duplicate_Items_Folder_arm_suit_copy_14_0_Layer3_0_1_STROKES" stroke="#000000" stroke-width="2" stroke-linejoin="round" stroke-linecap="round" fill="none" d="
M 37.95 -109
L 27.8 -94.7"/>

<path id="Duplicate_Items_Folder_arm_suit_copy_14_0_Layer1_0_1_STROKES" stroke="#000000" stroke-width="2" stroke-linejoin="round" stroke-linecap="round" fill="none" d="
M 45.75 -128.2
Q 49.55 -126.55 50.9 -121.95 52.45 -116.35 49.85 -113.05
L 49.75 -112.8
Q 49.7 -112.85 49.75 -112.6 47.45 -102.15 44.25 -95.1 36.65 -78.5 24.8 -82.4 14.75 -87.45 7.7 -93.85 -1.45 -102.1 1.4 -108.3 1.75 -109.4 2.7 -110.3
L 11.15 -118
Q 19.25 -124.95 25.1 -127.85 30.25 -130.55 35 -130.6 39.65 -130.8 44.9 -128.5"/>

<path id="Duplicate_Items_Folder_arm_suit_copy_14_0_Layer0_0_1_STROKES" stroke="#000000" stroke-width="2.5" stroke-linejoin="round" stroke-linecap="round" fill="none" d="
M 9.9 -105.2
Q 23.05 -110.75 30.9 -123.95 18.65 -124.55 9.7 -105.05
M 27.5 -92.2
Q 28.1 -109.75 41.35 -119.65 48.25 -102.8 27.4 -91.9"/>

<path id="Duplicate_Items_Folder_body_suit_copy_11_0_Layer3_0_1_STROKES" stroke="#000000" stroke-width="2.5" stroke-linejoin="round" stroke-linecap="round" fill="none" d="
M 9.55 -135.35
L 3.7 -139.4 -2.1 -143.45 -2.15 -135.35 -2.275 -112.65
M -1.1 -112.1
Q -1.693359375 -111.858984375 -2.275 -111.6
L -3.2 67.8
Q 0.3 68.4 3.7 69.05 65.5 79.7 89.85 64.2 94.35 61.35 91 53.05
M 90.95 52.25
Q 88.3 24.25 66.9 0.9 65.8 -19.8 54 -37.7 42.2978515625 -55.55390625 41.35 -63.975 40.4060546875 -72.3888671875 28.825 -96.2 17.241796875 -120.0150390625 13.75 -117.85
M 9.55 -135.35
L 9.5 -143.45 3.7 -139.4
M -2.275 -112.65
L -2.275 -111.6
Q -20.9220703125 -103.5548828125 -24.85 -86 -28.95 -67.9 -31.9 -61.75 -34.9 -55.55 -46.6 -37.7 -58.4 -19.8 -59.55 0.9 -80.9 24.25 -83.55 52.25
M -83.6 53.05
Q -86.95 61.35 -82.45 64.2 -58.1 79.7 3.7 69.05
M -11.85 -117.1
L -2.15 -135.35"/>

<path id="Duplicate_Items_Folder_body_suit_copy_11_0_Layer2_0_1_STROKES" stroke="#000000" stroke-width="2.5" stroke-linejoin="round" stroke-linecap="round" fill="none" d="
M 26.45 -114.65
L 28.1 -116.4
Q 30.4 -119.15 33.25 -123.75 37.5 -130.1 38 -134.4 38.35 -139.6 32.95 -141.15
L 32.55 -141.25
Q 32.45 -141.3 32.2 -141.35 19.05 -145.05 4.65 -143.55
M 4.45 -143.55
Q -9.9 -145.05 -23.1 -141.35 -23.3 -141.3 -23.5 -141.25
L -23.8 -141.15
Q -29.25 -139.6 -28.85 -134.4 -28.45 -130.1 -24.2 -123.75 -21.3 -119.15 -19 -116.4
L -17.3 -114.65
M -17.4 -114.35
L 4.1 -110.2
M 5.05 -110.2
L 26.6 -114.35
M -17.35 -114.45
L -18.45 -114.65"/>

<path id="Duplicate_Items_Folder_body_suit_copy_11_0_Layer1_0_1_STROKES" stroke="#000000" stroke-width="2.5" stroke-linejoin="round" stroke-linecap="round" fill="none" d="
M 21.65 -121.65
L 21.8 -121.2
Q 21.85 -121 21.9 -120.75 21.95 -120.6 22.1 -120.35
L 22.9 -117.65
Q 26.9 -103.35 22.65 -95.8 25.5 -96.9 25.5 -96.6 25.5 -96.25 25.15 -96.05 24 -95.65 22.95 -95.3 12.75 -91.15 7 -82.85 6.65 -82.2 6.3 -81.55 6.25 -81.5 6.25 -81.4 6.2 -81.4 6.2 -81.35 6.1 -81.25 6 -81.05
L 5.7 -81.8
Q 6.1 -82.35 1.05 -87.45 -3.95 -92.65 -17.05 -96.85 -14.7 -96.45 -14.7 -96.85 -14.75 -97.2 -14.65 -97.55
L -12.45 -119.75 -12.45 -120 -17.9 -119.65
Q -17.35 -104.85 -18.5 -101.05 -19.6 -97.25 -19.8 -96.65
L -20 -96.6 -21.65 -94.25
Q -21.9 -94.05 -22.3 -93.75 -23.2 -93 -23.95 -92.2 -24.65 -91.55 -26.8 -87.75 -30.5 -80.5 -24.65 -74.35 -19.55 -69.25 -14.7 -68.65 -14.7 -68.7 -14.5 -68.65
L -13.25 -68.85 -13.05 -57.9
Q -13.3 -57.5 -13.5 -57.1 -13.55 -56.9 -13.6 -56.7 -13.65 -56.5 -13.7 -56.25
L -13.9 -55.25 -14.15 -54.95
Q -17.1 -38.15 -24.6 -33.25
M -26 -31
Q -22.25 -29.9 -19.75 -28.95 -18.8 -28.55 -17.8 -28.2 1.2 -21.8 28.55 -26.45 28.75 -26.5 29.05 -26.55 34.1 -27.45 39.4 -28.7 39.6 -28.75 39.75 -28.8
L 39.75 -28.95
Q 39.15 -29.25 38.65 -29.45 34.75 -30.05 29.95 -49.35
M 30.1 -48.65
Q 25.1 -61.65 26.1 -68.5 30.6 -69.35 35.35 -74.2 39.2 -78.25 38.95 -82.75 38.85 -85.05 37.55 -87.5 36.8 -88.8 36.2 -89.8
M 36.275 -89.625
L 36.1 -89.925 36.05 -90 35.3 -91.3 30.7 -96.4 30.6 -96.45 30.6 -96.55 30.55 -96.6
Q 29.75 -98.6 29.1 -100 28.4 -101.55 28.6 -120.35
L 22.25 -121.3 21.65 -121.65 6.5 -123.2
Q -5.3 -123.6 -12.45 -119.75
M 36.2 -89.8
Q 36.139453125 -89.860546875 36.1 -89.925
M 39.6 -81.65
Q 39.25 -82.25 38.95 -82.75
M 44.2 -24.65
Q 51.85 -17 57.6 -3.1 72.75 29.2 76.85 45.5 79.1 54.5 77.9 58.6
L 77.05 59.65
Q 76.8 60.3 76.5 61.05 75.5 63.7 74.05 66.35 71 72.05 65.95 77.95 65.75 78 65.55 78.05 61.25 79 57.05 79.8 49.45 81.2 41.95 82.2 35.75 83 29.6 83.55 2.25 85.75 -24.05 81.9 -28.35 81.25 -32.5 80.45 -39.2 79.25 -45.8 77.6 -52.2 76.05 -58.45 74.1 -60.15 73.55 -61.85 73 -64.1 70 -65.8 67.05 -68 63.05 -69.35 59.35
L -70.2 58.1
Q -70.5 57 -70.55 55.65 -70.8 51.25 -68.7 43.5 -67.15 37.7 -64.3 30.05 -59.2 16.3 -49.95 -3.5 -40.3 -26.8 -25.2 -32.55
M 39.4 -28.7
Q 41.9 -26.95 44.2 -24.65
M -13.25 -58
Q -13.35 -57.55 -13.5 -57.1
M -13.7 -56.25
Q -13.95 -55.6 -14.15 -54.95"/>

<path id="Duplicate_Items_Folder_body_suit_copy_11_0_Layer0_0_1_STROKES" stroke="#000000" stroke-width="2.5" stroke-linejoin="round" stroke-linecap="round" fill="none" d="
M 7.05 -68.05
L 3.6 -62.9 8.15 -56.75
M 0.6 -66.95
L 3.6 -62.9 -0.45 -57.05
M 7.05 -52.55
L 3.6 -47.4 8.15 -41.25
M 0.6 -51.45
L 3.6 -47.4 -0.45 -41.55"/>

<path id="Duplicate_Items_Folder_head_copy_23_7_Layer6_0_1_STROKES" stroke="#000000" stroke-width="2.5" stroke-linejoin="round" stroke-linecap="round" fill="none" d="
M 9.9 -158.65
L 25.05 -164.25
Q 17.4 -167 11.15 -167.15 -2.9 -167.25 -12.65 -160.55 -19.85 -155.6 -28.05 -143.75 -33.55 -136 -34.7 -120 -35.1 -112.55 -35.3 -110.05 -35.55 -105.75 -37.85 -106.2 -40.1 -106.7 -44.3 -99.4 -48.7 -92.25 -46.1 -85 -43.6 -77.85 -42.15 -72.45 -41.55 -67.7 -37 -64.8 -32.4 -61.75 -30.65 -60.7 -29 -59.75 -25.05 -54.9 -21.05 -50.1 -4.95 -53.1 -4.1 -55.7 -9.55 -63.4
M 0 -155.1
L 9.9 -158.65
M 25.05 -164.25
Q 29.55 -162.6 34.45 -160.1 34.6 -160 34.75 -159.95 35.3 -159.65 35.8 -159.4 38.95 -157.7 42.25 -155.75 51.25 -150.15 57.85 -144.6 69.15 -134.05 66.35 -121.75 66.15 -120.7 65.7 -119.5 66.1 -119.45 66.45 -119.4 71.1 -118.45 75.8 -115.65 80.9 -112.7 78.9 -104.65 77.25 -99.55 75.15 -95.2 71.4 -87.75 74 -81.8 76.65 -75.85 70.8 -66.8 64.85 -57.85 57.35 -59.55 50.2 -49.8 40.2 -59.45 40 -59.25 39.8 -59 39.65 -58.9 39.55 -58.8 36.75 -50.95 35.25 -47 33.7 -43.05 35.25 -36.35
L 29 -37.8 26.2 -31.7
M 33.2 -145.2
Q 33.65 -145.6 34.25 -145.95 36.35 -136 52.95 -130.55 61.05 -126.35 59.4 -120.85 59.3 -120.7 59.15 -120.35
L 57.25 -111.2 56.45 -108.2
Q 56 -106.55 55.6 -104.95
M 54.6 -95.2
Q 54.7 -93.25 55 -91.5 56.9 -82 50.5 -74.05 49 -71.2 47.5 -68.75
M 8.55 -130.25
L 7.1 -126.45
Q 9.65 -124.95 12 -121.8
L 14.1 -124.2
M 13.9 -119.05
Q 12.95 -120.6 12 -121.8
L 9.55 -118.9
M -12.25 -111.4
Q -14.8 -94.35 -18.7 -93.05 -10.55 -80.8 -13.35 -69.1 -13.35 -68.85 -13.5 -68.45 -11.25 -65.7 -9.55 -63.4
M 55.6 -104.95
Q 54.45 -99.75 54.6 -95.2
M -13.1 -112.35
Q -13 -117.75 -13.1 -124.45 -5.95 -140.45 11 -139.15 23.85 -138.25 33.2 -145.2
L 34.75 -159.95
M 7.1 -126.45
L 5.55 -122.35
M 39.7 -117.15
Q 58.5 -126.75 57.25 -111.2
M 39.55 -58.8
Q 36.3 -55.7 32.6 -53.4 24.2 -49.55 16.3 -51.35 2.65 -56.25 -2 -62.45
M 27.9 -43.35
L 29 -37.8 20.25 -35.45 20.5 -32.6
M 4.3 -35.55
L 12.9 -33.7 13.05 -39.95
M 4.3 -35.55
L 5.75 -41.35
M 12.9 -33.7
L 15.5 -29.15
M 4.3 -35.55
L 6.5 -28.55
M 12.9 -33.7
L 20.25 -35.45 19.65 -39.55
M 47.5 -68.75
Q 44.2 -63.4 40.2 -59.45
M -20.2 -137.7
L -19.15 -134.75
M -2 -38.95
Q -3.1 -42.35 -3.65 -43.55 -3.9 -44.35 -3.9 -44.25 -4.25 -46.15 -4.95 -53.1
M -3.95 -40
L -2 -38.95 4.3 -35.55
M -4.65 -125.75
Q 1.6 -129.9 7.1 -126.45"/>

<path id="Duplicate_Items_Folder_head_copy_23_7_Layer4_0_1_STROKES" stroke="#000000" stroke-width="2.5" stroke-linejoin="round" stroke-linecap="round" fill="none" d="
M 11.3 -162.05
L 10.85 -167.25
Q 10.8 -172.8 15.65 -173.45 20.45 -174.15 28 -166.85
L 29.2 -166.7
Q 33.45 -170.45 37.3 -165.4
L 38.05 -165.35 41.85 -168.1
Q 46.1 -170.5 48.2 -168.55 51.45 -165.8 53.15 -157.9 55 -149.6 51.95 -148.4 48.85 -147.15 45 -150.55 41.15 -153.85 39.2 -156.4
L 37.75 -156.4
Q 33.7 -152.45 30.55 -156.35
L 29.25 -156.4
Q 25.1 -150.2 19.45 -150.7 19.05 -150.75 18.65 -150.85
L 18.15 -150.95 17.9 -150.95 17.35 -151.05 15.8 -151.5 14.75 -152.95
Q 5.7 -155.3 -7.4 -147.9 -3.6 -157.05 11.2 -161.45
L 11.3 -162.05 11.4 -161.65 11.2 -161.45 14.75 -152.95
M 17.9 -150.95
L 17.85 -151
M 29.2 -166.7
Q 26.1 -161.05 30.55 -156.35
M 37.3 -165.4
Q 39.1 -161.15 37.75 -156.4"/>

<path id="Duplicate_Items_Folder_head_copy_23_7_Layer3_0_1_STROKES" stroke="#000000" stroke-width="2" stroke-linejoin="round" stroke-linecap="round" fill="none" d="
M -4.85 -111.2
Q -0.6 -115.05 3.75 -114.3 9.95 -115.75 13.4 -110.2 14.55 -108.45 14.4 -106.6 14.15 -103.65 9.2 -101.3 -3 -100.9 -7.7 -108.4 -7.35 -108.15 -7.35 -108.5 -8.1 -108.95 -8.35 -108.6
L -11.2 -107
M 53.4 -103.35
Q 50.25 -108.1 46.6 -108.5 44.4 -109.65 42.5 -109.45 40.05 -109.2 38.05 -106.8 36.8 -105.4 36.8 -103.65 36.65 -100.8 40.55 -97.35 41.45 -97.05 42.35 -96.85 51.05 -94.6 55.4 -100 55.2 -100 55.2 -100.25
L 55.2 -100.3
Q 54.15 -101.85 53.4 -103.35 57.4 -102.65 58.05 -105.8
M 55.2 -100.25
Q 55.75 -100.55 56.2 -100.25 58.7 -99.8 59.9 -102.3
M 58.2 -97.95
L 56.2 -100.25
M -4.85 -111.2
Q -9.6 -111.45 -9.9 -115
M -7.35 -108.5
L -7.4 -108.6
Q -5.95 -110.05 -4.85 -111.2
M -8.35 -108.6
Q -11.4 -109.05 -12.65 -111.9"/>

<path id="Duplicate_Items_Folder_head_copy_23_7_Layer1_0_1_STROKES" stroke="#A6AB98" stroke-width="2.5" stroke-linejoin="round" stroke-linecap="round" fill="none" d="
M 31.65 -112.15
Q 26 -104.25 30.1 -95.1"/>

<path id="Duplicate_Items_Folder_head_copy_23_7_Layer1_0_2_STROKES" stroke="#000000" stroke-width="1.5" stroke-linejoin="round" stroke-linecap="round" fill="none" d="
M 13.9 -73
L 13.95 -73
Q 14.1 -72.95 14.1 -72.9 14.2 -72.85 14.3 -72.8 14.35 -72.7 14.4 -72.6 14.5 -76.05 19.5 -76.8
L 22.9 -73.9 26.1 -75.55
Q 28.6 -74.7 29.05 -69.9
L 29.15 -69.9 29.45 -69.9
Q 29.45 -70.1 29.4 -70.3
M 13.85 -72.85
Q 13.85 -72.9 13.9 -73 13.95 -73.25 14.05 -73.5
M 29.45 -69.9
Q 29.4 -68.65 28.15 -66.25 26.6 -63.5 22.2 -63.1 17.75 -62.55 15.55 -66.5 13.3 -70.4 13.85 -72.85
M 29.5 -69.95
L 29.5 -69.9 29.55 -69.95
M 29.5 -69.95
L 29.55 -70 29.55 -69.95
M 29.5 -69.95
L 29.45 -69.9 29.5 -69.9"/>

<path id="Duplicate_Items_Folder_head_copy_23_7_Layer0_0_1_STROKES" stroke="#000000" stroke-width="1.5" stroke-linejoin="round" stroke-linecap="round" fill="none" d="
M 10.65 -66.8
L 9.8 -70.1
Q 7.65 -69.75 5.5 -69.1
L 5.95 -65.1
M 5.1 -72.05
L 5.5 -69.1
Q 4.7 -68.95 4 -68.75
M 8.8 -73.75
L 9.8 -70.1
Q 22.5 -72.4 33.95 -67.6
L 35.2 -71.3
M 36.05 -62.9
L 38 -65.6
Q 36 -66.75 33.95 -67.6
L 32.8 -64.45
M 39.75 -68.1
L 38 -65.6
Q 38.35 -65.45 38.7 -65.3"/>
</defs>

<g transform="matrix( 1.3412322998046875, -0.6492919921875, 0.6492919921875, 1.3412322998046875, 248.25,401.9) ">
<g transform="matrix( 1, 0, 0, 1, 0,0) ">
<use xlink:href="#Duplicate_Items_Folder_arm_suit_copy_14_0_Layer3_0_FILL"/>

<use xlink:href="#Duplicate_Items_Folder_arm_suit_copy_14_0_Layer3_0_1_STROKES"/>
</g>

<g transform="matrix( 1, 0, 0, 1, 0,0) ">
<use xlink:href="#Duplicate_Items_Folder_arm_suit_copy_14_0_Layer2_0_FILL"/>
</g>

<g transform="matrix( 1, 0, 0, 1, 0,0) ">
<use xlink:href="#Duplicate_Items_Folder_arm_suit_copy_14_0_Layer1_0_FILL"/>

<use xlink:href="#Duplicate_Items_Folder_arm_suit_copy_14_0_Layer1_0_1_STROKES"/>
</g>

<g transform="matrix( 1, 0, 0, 1, 0,0) ">
<use xlink:href="#Duplicate_Items_Folder_arm_suit_copy_14_0_Layer0_0_FILL"/>

<use xlink:href="#Duplicate_Items_Folder_arm_suit_copy_14_0_Layer0_0_1_STROKES"/>
</g>
</g>

<g transform="matrix( -1.406494140625, -0.4930419921875, -0.4930419921875, 1.406494140625, 324.55,391.25) ">
<g transform="matrix( 1, 0, 0, 1, 0,0) ">
<use xlink:href="#Duplicate_Items_Folder_arm_suit_copy_14_0_Layer3_0_FILL"/>

<use xlink:href="#Duplicate_Items_Folder_arm_suit_copy_14_0_Layer3_0_1_STROKES"/>
</g>

<g transform="matrix( 1, 0, 0, 1, 0,0) ">
<use xlink:href="#Duplicate_Items_Folder_arm_suit_copy_14_0_Layer2_0_FILL"/>
</g>

<g transform="matrix( 1, 0, 0, 1, 0,0) ">
<use xlink:href="#Duplicate_Items_Folder_arm_suit_copy_14_0_Layer1_0_FILL"/>

<use xlink:href="#Duplicate_Items_Folder_arm_suit_copy_14_0_Layer1_0_1_STROKES"/>
</g>

<g transform="matrix( 1, 0, 0, 1, 0,0) ">
<use xlink:href="#Duplicate_Items_Folder_arm_suit_copy_14_0_Layer0_0_FILL"/>

<use xlink:href="#Duplicate_Items_Folder_arm_suit_copy_14_0_Layer0_0_1_STROKES"/>
</g>
</g>

<g transform="matrix( 1.65484619140625, -0.0689697265625, 0.048614501953125, 1.6528472900390625, 269.3,397.2) ">
<g transform="matrix( 1, 0, 0, 1, 0,0) ">
<use xlink:href="#Duplicate_Items_Folder_body_suit_copy_11_0_Layer3_0_FILL"/>

<use xlink:href="#Duplicate_Items_Folder_body_suit_copy_11_0_Layer3_0_1_STROKES"/>
</g>

<g transform="matrix( 1, 0, 0, 1, 0,0) ">
<use xlink:href="#Duplicate_Items_Folder_body_suit_copy_11_0_Layer2_0_FILL"/>

<use xlink:href="#Duplicate_Items_Folder_body_suit_copy_11_0_Layer2_0_1_STROKES"/>
</g>

<g transform="matrix( 1, 0, 0, 1, 0,0) ">
<use xlink:href="#Duplicate_Items_Folder_body_suit_copy_11_0_Layer1_0_FILL"/>

<use xlink:href="#Duplicate_Items_Folder_body_suit_copy_11_0_Layer1_0_1_STROKES"/>
</g>

<g transform="matrix( 1, 0, 0, 1, 0,0) ">
<use xlink:href="#Duplicate_Items_Folder_body_suit_copy_11_0_Layer0_0_1_STROKES"/>
</g>
</g>

<g transform="matrix( 1.348358154296875, -0.0711822509765625, 0.0183563232421875, 1.3491668701171875, 253.7,257.1) ">
<g transform="matrix( 1, 0, 0, 1, 0,0) ">
<use xlink:href="#Duplicate_Items_Folder_head_copy_23_7_Layer7_0_FILL"/>
</g>

<g transform="matrix( 1, 0, 0, 1, 0,0) ">
<use xlink:href="#Duplicate_Items_Folder_head_copy_23_7_Layer6_0_FILL"/>

<use xlink:href="#Duplicate_Items_Folder_head_copy_23_7_Layer6_0_1_STROKES"/>
</g>

<g transform="matrix( 1, 0, 0, 1, 0,0) ">
<use xlink:href="#Duplicate_Items_Folder_head_copy_23_7_Layer5_0_FILL"/>
</g>

<g transform="matrix( 1, 0, 0, 1, 0,0) ">
<use xlink:href="#Duplicate_Items_Folder_head_copy_23_7_Layer4_0_FILL"/>

<use xlink:href="#Duplicate_Items_Folder_head_copy_23_7_Layer4_0_1_STROKES"/>
</g>

<g transform="matrix( 1, 0, 0, 1, 0,0) ">
<use xlink:href="#Duplicate_Items_Folder_head_copy_23_7_Layer3_0_FILL"/>

<use xlink:href="#Duplicate_Items_Folder_head_copy_23_7_Layer3_0_1_STROKES"/>
</g>

<g transform="matrix( 1, 0, 0, 1, 0,0) ">
<use xlink:href="#Duplicate_Items_Folder_head_copy_23_7_Layer2_0_FILL"/>
</g>

<g transform="matrix( 1, 0, 0, 1, 0,0) ">
<use xlink:href="#Duplicate_Items_Folder_head_copy_23_7_Layer1_0_FILL"/>

<use xlink:href="#Duplicate_Items_Folder_head_copy_23_7_Layer1_0_1_STROKES"/>

<use xlink:href="#Duplicate_Items_Folder_head_copy_23_7_Layer1_0_2_STROKES"/>
</g>

<g transform="matrix( 1, 0, 0, 1, 0,0) ">
<use xlink:href="#Duplicate_Items_Folder_head_copy_23_7_Layer0_0_1_STROKES"/>
</g>
</g>
</svg>
