
<svg xmlns="http://www.w3.org/2000/svg" version="1.1" xmlns:xlink="http://www.w3.org/1999/xlink" preserveAspectRatio="none" x="0px" y="0px" width="560px" height="544px" viewBox="0 0 560 544">
<defs>
<g id="Duplicate_Items_Folder_full_grown_0_Layer4_0_FILL">
<path fill="#CBA3AB" stroke="none" d="
M -7.25 -59.15
Q -4.6 -64.45 -2.25 -67.4 -6.15 -74.8 -10.7 -79.55 -15.1 -72.4 -17.55 -63.2 -14 -60 -7.25 -59.15
M -20 -101.45
Q -20.45 -101.1 -20.85 -100.75 -16.5 -99.1 -12.65 -97.15 -11.5 -104.8 -2.65 -105.7 -13.226953125 -107.7078125 -18.25 -102.85
L -20.1 -101.3
Q -20.05 -101.4 -20 -101.45
M 3.45 -59
Q 8.65 -60.1 13.5 -63.2 16.1091796875 -73.8646484375 6.45 -79.6 -1.6 -77.6 -2.25 -67.4 0.45 -64.25 3.45 -59
M 6.7 -82.65
Q 7.85 -87.6 15.35 -86.95 17.1 -93.4 8.25 -97.35 -0.15 -96.85 -2.2 -90 6.05 -87.95 6.7 -82.65
M 20.45 -99.1
Q 17.15 -100.9 16.75 -100.9 12.25 -99.4 8.25 -97.35 17.1 -93.4 15.35 -86.95 19.35 -89.5 23.8 -90.9 23.65 -97.3 20.45 -99.1 Z"/>

<path fill="#FE5F5F" stroke="none" d="
M -7.25 -59.15
Q -4.8 -58.85 -1.95 -58.85 0.5 -58.85 3.45 -59 0.45 -64.25 -2.25 -67.4 -4.6 -64.45 -7.25 -59.15 Z"/>

<path fill="#8D505C" stroke="none" d="
M -10.85 -80.3
Q -11.75 -88.55 -2.2 -90 -6.9 -94.2 -12.65 -97.15 -22.8 -98 -28 -88.85 -12.4 -89.45 -10.85 -80.3
M 6.7 -82.65
Q 6.35 -81.35 6.45 -79.6 16.1091796875 -73.8646484375 13.5 -63.2 15.35 -64.45 17.1 -66 19.35 -68 21 -70.3 24.15 -80.8 15.35 -86.95 7.85 -87.6 6.7 -82.65 Z"/>

<path fill="#AF727E" stroke="none" d="
M -20.85 -100.75
Q -19.022265625 -103.5634765625 -24.4 -101.25 -29.777734375 -98.8865234375 -27.75 -90.55 -31.05 -87.15 -31.05 -80.15 -31.05 -73.15 -25.85 -69.4 -20.65 -65.7 -17.55 -63.2 -15.1 -72.4 -10.7 -79.55 -10.75 -79.9 -10.85 -80.3 -12.4 -89.45 -28 -88.85 -22.8 -98 -12.65 -97.15 -16.5 -99.1 -20.85 -100.75
M 6.45 -79.6
Q 6.35 -81.35 6.7 -82.65 6.05 -87.95 -2.2 -90 -11.75 -88.55 -10.85 -80.3 -10.75 -79.9 -10.7 -79.55 -6.15 -74.8 -2.25 -67.4 -1.6 -77.6 6.45 -79.6
M 27.65 -81.65
Q 28.2 -87.4 23.8 -90.9 19.35 -89.5 15.35 -86.95 24.15 -80.8 21 -70.3 27.1 -76.05 27.65 -81.65
M 14.3 -102.85
L 15.1 -102.4
Q 6.1962890625 -110.521484375 -2.65 -105.7 -11.5 -104.8 -12.65 -97.15 -6.9 -94.2 -2.2 -90 -0.15 -96.85 8.25 -97.35 12.25 -99.4 16.75 -100.9 16.45 -101.2 16.15 -101.45 15.6 -101.9 15.1 -102.25 14.75 -102.55 14.3 -102.85 Z"/>

<path fill="#663333" stroke="none" d="
M 15.1 -102.4
L 16.75 -101.55
Q 11.5 -109.95 17.3 -117.15
L -20.1 -117.15
Q -16.1 -109.1 -20 -101.45 -19.15 -102.2 -18.25 -102.85 -13.226953125 -107.7078125 -2.65 -105.7 6.1962890625 -110.521484375 15.1 -102.4 Z"/>
</g>

<g id="Duplicate_Items_Folder_full_grown_0_Layer2_0_FILL">
<path fill="#474885" stroke="none" d="
M -5.35 -143.4
Q -5.8 -143.35 -6 -143.2 -4.95 -142.35 -4.3 -141.35 -4.2 -141.3 -4.15 -141.15 -4.15 -141.6 -4.1 -142.1 -3.95 -143.65 -5.35 -143.4 Z"/>

<path fill="#5A617A" stroke="none" d="
M 21.05 -124.35
Q 31.55 -133.35 37.45 -128 34.05 -141.1 21.55 -136.25 16.05 -138.55 22.2 -146.1 13.5 -145.55 11.5 -141.85 9.45 -138.15 8.1 -139.95 6.7 -141.85 9.35 -149.5 -1.1 -149.75 -3.55 -141.5
L -3.9 -140.95
Q -3.85 -140.85 -3.75 -140.75
L -3.9 -140.85 -4.2 -140.45
Q -4.2 -140.5 -4.15 -141.1
L -4.35 -141.1
Q -4.45 -141.25 -4.5 -141.35 -5.15 -142.25 -6.05 -143.1 -7.7 -144.5 -10.15 -145.65
L -20.85 -148.5
Q -20.95 -148.6 -21.1 -148.6 -13.65 -142.85 -19.15 -135.7 -22.45 -145.1 -34.65 -145.6 -29.65 -140.55 -29.15 -134.6 -38.6 -136.55 -41.55 -127.4 -25.4 -129.2 -21.75 -117.85 -0.1 -122.55 10.65 -122.3
L 13.9 -123.2
Q 20.05 -124.7 21.05 -124.35 Z"/>
</g>

<g id="Duplicate_Items_Folder_full_grown_0_Layer1_0_FILL">
<path fill="#393E4F" stroke="none" d="
M 14.2 -111.05
Q 17.4 -120.1 29.9 -122.55
L 18.45 -123.3
Q 21.15 -129.1 25.1 -132.85 18.8 -131.5 12.85 -124.3 13.45 -131.1 15.15 -135.95 8.7 -133.3 6.05 -125.45
L 4.65 -134.55 -0.55 -124.5 -3.85 -136.85 -8.85 -125.85 -8.95 -125.45 -8.85 -125.85
Q -9.15 -126.65 -10.15 -128.6 -12.3 -132.35 -14.15 -135 -13.15 -129.7 -15.15 -124.5 -18.1 -130.05 -26.8 -131.45 -22.6 -126.55 -22.85 -120 -28.5 -122.85 -34.4 -120.25
L -18.85 -110.1
Q -1.85 -116 14.2 -111.05 Z"/>
</g>

<g id="Duplicate_Items_Folder_full_grown_0_Layer0_0_FILL">
<path fill="#636D56" stroke="none" d="
M 5.2 -50.5
Q 7.5 -56.3 9.7 -60.8 15 -59.15 17.95 -51.85 19.9158203125 -57.700390625 17.15 -62.1 12.9982421875 -64.623828125 8.15 -63.35 -0.2384765625 -53.2939453125 -3.9 -36.45 -6.016015625 -23.1 -3.8 -9.75
L -3.85 -9.75
Q -3.65 -7.05 -3 -4.35
L 0.8 9.4 6.95 6.15 6.3 2.7
Q 4.8 -2.3 3.5 -8.2 3.35 -9 3.2 -9.75
L 3.3 -9.75
Q -0.5142578125 -25.641015625 0 -32 0.55 -38.8 5.2 -50.5 Z"/>

<path fill="#7B8A6C" stroke="none" d="
M 17.15 -62.1
Q 16.9609375 -62.405859375 16.75 -62.7 17.5 -63.45 17.2 -62.1 23.7 -65.9 22.65 -72.95 17.15 -66.8 13.3 -65.85 10.1 -68.4 12.4 -72.45 5.85 -69.25 6.4 -65.9 2.35 -68.4 5.2 -72.5 -0.15 -67.9 1.25 -62.95 -4.25 -67.25 -3.95 -77.6 -9.8 -70.5 -7.55 -65.3 -16.9 -65.25 -16.85 -73.9 -20.75 -71.25 -20.15 -66.4 -27.05 -67.95 -28.9 -73.75 -28.1 -64.85 -22.45 -62.55 -17.45 -61.3 -13.45 -62.15 -15.4 -61.45 -16.4 -58.7 -17.6 -53.55 -12.45 -50.4 -14.55 -57.15 -8.55 -59.35 -2.55 -59 -3 -54.85 -8.95 -40.7 -9.85 -26.55 -10.1703125 -17.9759765625 -9.55 -9.75
L -9.6 -9.75
Q -10.05 -0.6 -7.75 7.85
L 0.8 9.4 -3 -4.35
Q -3.65 -7.05 -3.85 -9.75
L -3.8 -9.75
Q -6.016015625 -23.1 -3.9 -36.45 -0.2384765625 -53.2939453125 8.15 -63.35 12.9982421875 -64.623828125 17.15 -62.1 Z"/>
</g>

<path id="Duplicate_Items_Folder_full_grown_0_Layer4_0_1_STROKES" stroke="#000000" stroke-width="2" stroke-linejoin="round" stroke-linecap="round" fill="none" d="
M 15.125 -102.4
L 14.3 -102.85
Q 14.75 -102.55 15.1 -102.25 15.3669921875 -102.0857421875 15.725 -101.85 15.4228515625 -102.13828125 15.125 -102.4 6.1962890625 -110.521484375 -2.65 -105.7
M 16.75 -100.9
Q 16.45 -101.2 16.15 -101.45 15.6 -101.9 15.1 -102.25
M 16.15 -101.45
Q 15.934765625 -101.6599609375 15.725 -101.85 16.222265625 -101.5419921875 16.9 -101.1
L 16.75 -100.9
Q 17.15 -100.9 20.45 -99.1 23.65 -97.3 23.8 -90.9 28.2 -87.4 27.65 -81.65 27.1 -76.05 21 -70.3 21 -70 21.05 -69.7
M 16.9 -101.1
Q 16.5 -101.3 16.15 -101.45
M -20 -101.45
Q -16.1 -109.1 -20.1 -117.15
L 17.3 -117.15
Q 11.5 -109.95 16.75 -101.55
L 15.125 -102.4
M 13.5 -63.2
Q 15.35 -64.45 17.1 -66 19.35 -68 21 -70.3
M 13.6 -62.85
Q 13.5 -63.05 13.5 -63.2 8.65 -60.1 3.45 -59 0.5 -58.85 -1.95 -58.85 -4.8 -58.85 -7.25 -59.15 -14 -60 -17.55 -63.2 -20.65 -65.7 -25.85 -69.4 -31.05 -73.15 -31.05 -80.15 -31.05 -87.15 -27.75 -90.55 -29.777734375 -98.8865234375 -24.4 -101.225 -19.022265625 -103.5634765625 -20.85 -100.75 -20.45 -101.1 -20 -101.45 -19.15 -102.2 -18.25 -102.85 -13.226953125 -107.7078125 -2.65 -105.7
M -18.25 -102.85
L -20.1 -101.3
Q -20.05 -101.4 -20 -101.45
M -7.25 -59.15
Q -4.6 -64.45 -2.25 -67.4 0.45 -64.25 3.45 -59"/>

<path id="Duplicate_Items_Folder_full_grown_0_Layer4_0_2_STROKES" stroke="#623741" stroke-width="2" stroke-linejoin="round" stroke-linecap="round" fill="none" d="
M -12.65 -97.15
Q -11.5 -104.8 -2.65 -105.7
M -2.2 -90
Q -11.75 -88.55 -10.85 -80.3 -10.75 -79.9 -10.7 -79.55
M 6.45 -79.6
Q 16.1091796875 -73.8646484375 13.5 -63.2
M 15.35 -86.95
Q 17.1 -93.4 8.25 -97.35"/>

<path id="Duplicate_Items_Folder_full_grown_0_Layer2_0_1_STROKES" stroke="#000000" stroke-width="2" stroke-linejoin="round" stroke-linecap="round" fill="none" d="
M 21.05 -124.35
Q 20.4 -123.65 19.7 -122.85
M -3.55 -141.5
Q -1.1 -149.75 9.35 -149.5 6.7 -141.85 8.1 -139.95 9.45 -138.15 11.5 -141.85 13.5 -145.55 22.2 -146.1 16.05 -138.55 21.55 -136.25 34.05 -141.1 37.45 -128 31.55 -133.35 21.05 -124.35
M -21.75 -117.85
Q -25.4 -129.2 -41.55 -127.4 -38.6 -136.55 -29.15 -134.6 -29.65 -140.55 -34.65 -145.6 -22.45 -145.1 -19.15 -135.7 -13.65 -142.85 -21.1 -148.6 -20.95 -148.6 -20.85 -148.5
L -10.15 -145.65
Q -7.6 -144.6 -6 -143.2
M -4.15 -141.15
L -3.9 -140.95
M -4.35 -141.1
L -4.15 -141.1 -3.9 -140.85 -3.75 -140.75
Q -3.85 -140.85 -3.9 -140.95
M -6 -143.2
Q -4.95 -142.35 -4.3 -141.35 -4.2 -141.3 -4.15 -141.15"/>

<path id="Duplicate_Items_Folder_full_grown_0_Layer1_0_1_STROKES" stroke="#000000" stroke-width="2" stroke-linejoin="round" stroke-linecap="round" fill="none" d="
M -8.85 -125.85
L -3.85 -136.85 -0.55 -124.5 4.65 -134.55 6.05 -125.45
Q 8.7 -133.3 15.15 -135.95 13.45 -131.1 12.85 -124.3 18.8 -131.5 25.1 -132.85 21.15 -129.1 18.45 -123.3
L 29.9 -122.55
Q 17.4 -120.1 14.2 -111.05 -1.85 -116 -18.85 -110.1
L -34.4 -120.25
Q -28.5 -122.85 -22.85 -120 -22.6 -126.55 -26.8 -131.45 -18.1 -130.05 -15.15 -124.5 -13.15 -129.7 -14.15 -135 -12.3 -132.35 -10.15 -128.6 -9.15 -126.65 -8.85 -125.85
L -8.95 -125.45"/>

<path id="Duplicate_Items_Folder_full_grown_0_Layer0_0_1_STROKES" stroke="#000000" stroke-width="2" stroke-linejoin="round" stroke-linecap="round" fill="none" d="
M -9.525 -9.75
Q -10.1703125 -17.9759765625 -9.85 -26.55 -8.95 -40.7 -3 -54.85 -2.55 -59 -8.55 -59.35 -14.55 -57.15 -12.45 -50.4 -17.6 -53.55 -16.4 -58.7 -15.4 -61.45 -13.45 -62.15 -17.45 -61.3 -22.45 -62.55 -28.1 -64.85 -28.9 -73.75 -27.05 -67.95 -20.15 -66.4 -20.75 -71.25 -16.85 -73.9 -16.9 -65.25 -7.55 -65.3 -9.8 -70.5 -3.95 -77.6 -4.25 -67.25 1.25 -62.95 -0.15 -67.9 5.2 -72.5 2.35 -68.4 6.4 -65.9 5.85 -69.25 12.4 -72.45 10.1 -68.4 13.3 -65.85 17.15 -66.8 22.65 -72.95 23.7 -65.9 17.2 -62.1 17.5 -63.45 16.75 -62.7 16.9609375 -62.405859375 17.15 -62.1 19.9158203125 -57.700390625 17.95 -51.85 15 -59.15 9.7 -60.8 7.5 -56.3 5.2 -50.5 0.55 -38.8 0 -32 -0.5142578125 -25.641015625 3.3 -9.75
M 3.2 -9.75
Q 3.35 -9 3.5 -8.2 4.8 -2.3 6.3 2.7
L 6.95 6.15 0.8 9.4 -7.75 7.85
Q -10.05 -0.6 -9.6 -9.75"/>
</defs>

<g transform="matrix( 3.2574310302734375, 0, 0, 3.2574310302734375, 285.55,505.65) ">
<g transform="matrix( 1, 0, 0, 1, 0,0) ">
<use xlink:href="#Duplicate_Items_Folder_full_grown_0_Layer4_0_FILL"/>

<use xlink:href="#Duplicate_Items_Folder_full_grown_0_Layer4_0_1_STROKES"/>

<use xlink:href="#Duplicate_Items_Folder_full_grown_0_Layer4_0_2_STROKES"/>
</g>

<g transform="matrix( 1, 0, 0, 1, 0,0) ">
<use xlink:href="#Duplicate_Items_Folder_full_grown_0_Layer2_0_FILL"/>

<use xlink:href="#Duplicate_Items_Folder_full_grown_0_Layer2_0_1_STROKES"/>
</g>

<g transform="matrix( 1, 0, 0, 1, 0,0) ">
<use xlink:href="#Duplicate_Items_Folder_full_grown_0_Layer1_0_FILL"/>

<use xlink:href="#Duplicate_Items_Folder_full_grown_0_Layer1_0_1_STROKES"/>
</g>

<g transform="matrix( 1, 0, 0, 1, 0,0) ">
<use xlink:href="#Duplicate_Items_Folder_full_grown_0_Layer0_0_FILL"/>

<use xlink:href="#Duplicate_Items_Folder_full_grown_0_Layer0_0_1_STROKES"/>
</g>
</g>
</svg>
