
<svg xmlns="http://www.w3.org/2000/svg" version="1.1" xmlns:xlink="http://www.w3.org/1999/xlink" preserveAspectRatio="none" x="0px" y="0px" width="560px" height="544px" viewBox="0 0 560 544">
<defs>
<g id="Duplicate_Items_Folder_full_0_Layer8_0_FILL">
<path fill="#2F656A" stroke="none" d="
M -20.05 -53.15
Q -20.6 -53.25 -21 -53.35 -17.65 -48.4 -15.1 -45.05 -13.45 -43.1 -13.5 -35.45 -13.7 -26 -13.7 -20.8 -13.55 -14.7 -7.55 -9.15 -4.6 -6.4 -1.45 -4.8
L -1.3 -4.9 -0.4 -5.05 5.5 -6.45
Q 5.9 -22.4 -3.55 -39.05
L -20.05 -53.15 Z"/>

<path fill="#5AADB6" stroke="none" d="
M 5.5 -6.45
L 6.9 -5.45
Q 9.1 -11.55 10.7 -18.45 10.75 -18.6 10.7 -18.75 12.35 -25.9 8.65 -35.05 6.55 -40.4 3.35 -43.45 1.1 -45.7 -1.55 -46.75 -3.15 -47.35 -6.5 -48.05 -9.25 -48.6 -10.45 -49.25 -11.35 -50 -12.45 -50.5 -14.6 -51.45 -17.3 -52.35 -18.8 -52.8 -20.05 -53.15
L -3.55 -39.05
Q 5.9 -22.4 5.5 -6.45 Z"/>
</g>

<g id="Duplicate_Items_Folder_full_0_Layer7_0_FILL">
<path fill="#72B9C0" stroke="none" d="
M -10.3 -24.95
Q -13.3 -28.7 -17.05 -30.5 -19.65 -31.9 -22.55 -32.2 -24.3 -32.45 -27.9 -32.55 -30.8 -32.5 -32.15 -32.85 -33.15 -33.3 -34.35 -33.55 -36.75 -33.85 -39.65 -34.2 -41.25 -34.3 -42.6 -34.4
L -23.5 -26.25
Q -11.25 -15.1 -9.25 -3.1
L -7.7 -2.6
Q -6.3 -7.45 -5.65 -12.85 -5.65 -12.95 -5.7 -13.05 -5.15 -18.65 -10.3 -24.95 Z"/>

<path fill="#3F868D" stroke="none" d="
M -42.6 -34.4
Q -43.15 -34.4 -43.65 -34.45 -39.4 -31.2 -36.3 -29.05 -34.3 -27.8 -33.2 -22.1 -32.05 -14.95 -31.2 -11.1 -30.1 -6.55 -23.1 -3.25 -19.65 -1.65 -16.2 -0.9
L -16.05 -1 -15.15 -1.2 -9.25 -3.1
Q -11.25 -15.1 -23.5 -26.25
L -42.6 -34.4 Z"/>

<path fill="#2F656A" stroke="none" d="
M 28.55 -2.05
L 28.7 -1.95
Q 32.35 -3.2 35.8 -5.65 42.9 -10.55 43.4 -16.6 43.7 -21.75 43.95 -31.2 44.3 -38.8 46.3 -40.6 49.3 -43.65 53.4 -48.25 52.9 -48.2 52.25 -48.15
L 32.9 -35.8
Q 21.3 -20.2 20.9 -4.3
L 27.5 -2.3 28.55 -2.05 Z"/>

<path fill="#5AADB6" stroke="none" d="
M 36.75 -44.45
Q 32.9 -44.1 31.05 -43.65 27.95 -42.9 25.3 -40.9 21.55 -38.2 18.85 -33.1 14.25 -24.35 15.7 -17.05 15.65 -16.9 15.65 -16.75 17.1 -9.75 19.3 -3.45
L 20.9 -4.3
Q 21.3 -20.2 32.9 -35.8
L 52.25 -48.15
Q 50.85 -47.9 49.15 -47.6 46.05 -47 43.55 -46.3 42.25 -45.9 41.25 -45.25 39.85 -44.7 36.75 -44.45 Z"/>
</g>

<g id="Duplicate_Items_Folder_full_0_Layer6_0_FILL">
<path fill="#72B9C0" stroke="none" d="
M -34.6 -22.75
Q -36.65 -22.95 -39.05 -23.25 -40.35 -23.3 -41.5 -23.4
L -26.3 -17
Q -17.4 -8.25 -17.2 1.15
L -15.95 1.55
Q -14.15 -2.25 -12.85 -6.5 -12.85 -6.55 -12.9 -6.65 -11.7 -11.05 -15.25 -16 -17.3 -18.9 -20.25 -20.35 -22.35 -21.45 -24.75 -21.65 -26.2 -21.85 -29.25 -21.95 -31.7 -21.9 -32.8 -22.2 -33.6 -22.55 -34.6 -22.75 Z"/>

<path fill="#3F868D" stroke="none" d="
M -41.5 -23.4
Q -42 -23.4 -42.4 -23.45 -39.25 -20.9 -36.85 -19.2 -35.3 -18.2 -35.1 -13.75 -35.1 -8.15 -34.85 -5.1 -34.5 -1.55 -29 1.05 -26.3 2.3 -23.45 2.9
L -23.25 2.8 -22.5 2.65 -17.2 1.15
Q -17.4 -8.25 -26.3 -17
L -41.5 -23.4 Z"/>
</g>

<g id="Duplicate_Items_Folder_full_0_Layer5_0_FILL">
<path fill="#E6DDDD" stroke="none" d="
M -43.2 -65.05
L -49.6 -67.45 -49.6 -56.85 -41.55 -56.85 -43.2 -65.05
M -47.9 -59.8
Q -48 -60.7 -47.65 -60.7 -47.35 -60.7 -47.1 -59.9 -46.85 -59.1 -46.85 -58 -46.85 -57.65 -46.85 -57.3
L -48 -57.3
Q -48 -57.6 -47.95 -57.9 -47.8 -58.95 -47.9 -59.8
M -12.7 -66.6
L -19.35 -66.65 -19.9 -58.15 -15.75 -58.3
Q -15.804296875 -58.2828125 -15.9 -58.3 -17.634765625 -58.4748046875 -17.6 -59 -17.5033203125 -59.47734375 -17.2 -60.55 -16.9021484375 -61.61640625 -17.1 -62.5 -17.2994140625 -63.3447265625 -16.65 -63.35 -16 -63.35 -15.55 -62.55 -15.05 -61.75 -15.05 -60.65 -15.05 -59.55 -15.55 -58.75 -15.67734375 -58.5234375 -15.85 -58.35
L -12.3 -58.55 -12.7 -66.6
M -30.5 -65.2
L -36.45 -65.75 -37.3 -55.15 -27.95 -56.85 -30.5 -65.2
M -33.1 -61.95
Q -33.1 -62.35 -32.9 -62.65 -32.65 -62.9 -32.35 -62.9 -32.05 -62.9 -31.85 -62.65 -31.6 -62.35 -31.6 -61.95 -31.6 -61.55 -31.85 -61.3 -32.05 -61 -32.35 -61 -32.65 -61 -32.9 -61.3 -33.1 -61.55 -33.1 -61.95
M -33.5 -56.9
Q -33.5 -56.55 -33.55 -56.2
L -35.8 -56.2
Q -35.75 -56.5 -35.65 -56.8 -35.35 -57.85 -35.55 -58.7 -35.75 -59.6 -35.1 -59.6 -34.45 -59.6 -34 -58.8 -33.5 -58 -33.5 -56.9 Z"/>

<path fill="#376243" stroke="none" d="
M -47.65 -60.7
Q -48 -60.7 -47.9 -59.8 -47.8 -58.95 -47.95 -57.9 -48 -57.6 -48 -57.3
L -46.85 -57.3
Q -46.85 -57.65 -46.85 -58 -46.85 -59.1 -47.1 -59.9 -47.35 -60.7 -47.65 -60.7
M -16.65 -63.35
Q -17.2994140625 -63.3447265625 -17.1 -62.5 -16.9021484375 -61.61640625 -17.2 -60.55 -17.5033203125 -59.47734375 -17.6 -59 -17.634765625 -58.4748046875 -15.9 -58.3 -15.85234375 -58.31953125 -15.85 -58.35 -15.67734375 -58.5234375 -15.55 -58.75 -15.05 -59.55 -15.05 -60.65 -15.05 -61.75 -15.55 -62.55 -16 -63.35 -16.65 -63.35
M -33.55 -56.2
Q -33.5 -56.55 -33.5 -56.9 -33.5 -58 -34 -58.8 -34.45 -59.6 -35.1 -59.6 -35.75 -59.6 -35.55 -58.7 -35.35 -57.85 -35.65 -56.8 -35.75 -56.5 -35.8 -56.2
L -33.55 -56.2
M -32.9 -62.65
Q -33.1 -62.35 -33.1 -61.95 -33.1 -61.55 -32.9 -61.3 -32.65 -61 -32.35 -61 -32.05 -61 -31.85 -61.3 -31.6 -61.55 -31.6 -61.95 -31.6 -62.35 -31.85 -62.65 -32.05 -62.9 -32.35 -62.9 -32.65 -62.9 -32.9 -62.65 Z"/>

<path fill="#CB5245" stroke="none" d="
M -36.45 -65.75
L -30.5 -65.2 -30.5 -65.3 -19.9 -66.45 -19.35 -66.65 -12.7 -66.6 -7.35 -69.85
Q -44.2025390625 -71.1904296875 -54.85 -88.2 -57.203515625 -84.9283203125 -57.25 -78.95 -57.25234375 -71.60234375 -53.55 -68.85 -52.4 -67.95 -50.9 -67.6
L -49.6 -67.45 -43.2 -65.05 -43.25 -65.35 -36.45 -65.75 Z"/>

<path fill="#AB5C5C" stroke="none" d="
M 28.8 -30.1
Q 27.80390625 -24.5078125 23.3 -31.85 3.91640625 -10.0775390625 -20.65 -11.9 -21.6580078125 -8.0470703125 -20.5 -3.9 -19.45 -0.05 -17.35 2.5 -9.199609375 8.0572265625 6.6 6.75 22.4498046875 5.4974609375 25.9 3.35 29.45 1.15 29.8 -6.85 29.9484375 -9.7 30.55 -16 31.074609375 -20.9537109375 28.8 -30.1 Z"/>

<path fill="#DA7B72" stroke="none" d="
M 27.05 -36.35
Q 25.2263671875 -33.990625 23.3 -31.85 27.80390625 -24.5078125 28.8 -30.1 28.2255859375 -32.4455078125 27.45 -35.1 27.2662109375 -35.7291015625 27.05 -36.35 Z"/>

<path fill="#E7A7A0" stroke="none" d="
M 19.55 -61.5
Q 15.4041015625 -75.05 16.1 -81.35 16.7966796875 -87.65 14.1 -94.05 11.4009765625 -100.45 2.55 -110.3 -2.25 -116.1 -9.2 -117.15 -11.2 -117.45 -15.2 -117.75 -18.9 -118.2 -21.6 -119.2 -27.5 -121.4 -33.6 -117.15 -36.09921875 -115.3484375 -42 -110.4 -42.3931640625 -110.0439453125 -42.8 -109.7 -25.1107421875 -116.503125 -11.45 -108.2 4.5890625 -111.4048828125 10 -84.75
L 22.1 -33.95
Q 22.73515625 -32.7921875 23.3 -31.85 25.2263671875 -33.990625 27.05 -36.35 23.4912109375 -48.61328125 19.55 -61.5 Z"/>

<path fill="#D8766B" stroke="none" d="
M 0 -74.25
Q 1.5 -70.55 3.05 -65.45 6.1 -55.25 6.4 -48.4 6.65 -41.8 -2.15 -33.15 -7.35 -28.35 -10 -25.9 -14.8 -21.45 -17.35 -18.25 -19.7955078125 -15.181640625 -20.65 -11.9 3.91640625 -10.0775390625 23.3 -31.85 22.73515625 -32.7921875 22.1 -33.95
L 10 -84.75
Q 4.5890625 -111.4048828125 -11.45 -108.2 -25.1107421875 -116.503125 -42.8 -109.7 -47.95625 -104.595703125 -49.65 -92.6 -47.3607421875 -97.2205078125 -43.65 -94.2 -47.3607421875 -97.2205078125 -49.65 -92.6
L -49.9 -92.55
Q -50.686328125 -92.139453125 -53.6 -89.55 -54.2685546875 -88.9244140625 -54.85 -88.2 -44.2025390625 -71.1904296875 -7.35 -69.85
L 0 -74.25
M -20.3 -105.35
Q -11.8 -104.6 -7.8 -98.75 -11.8 -104.6 -20.3 -105.35 Z"/>
</g>

<g id="Duplicate_Items_Folder_full_0_Layer4_0_FILL">
<path fill="#000000" stroke="none" d="
M -51.2 -86.9
Q -53 -85.2 -53.35 -80 -53.75 -74.75 -52.05 -72.95 -50.35 -71.15 -48.15 -71.7 -45.95 -72.3 -44.45 -75.1 -42.95 -77.9 -42.95 -81.85 -42.95 -85.8 -44.45 -88.6 -45.95 -91.4 -47.65 -90 -49.4 -88.6 -51.2 -86.9
M -37.5 -75.75
Q -36.25 -80.7 -40.1 -82.65 -41.85 -78.95 -40.6 -75.3 -39.55 -73.2 -37.5 -75.75
M -17.15 -88.25
Q -18.1 -88.25 -18.8 -87.35 -19.5 -86.4 -19.5 -85.05 -19.5 -83.7 -18.8 -82.8 -18.1 -81.85 -17.15 -81.85 -16.2 -81.85 -15.5 -82.8 -14.8 -83.7 -14.8 -85.05 -14.8 -86.4 -15.5 -87.35 -16.2 -88.25 -17.15 -88.25 Z"/>

<path fill="#FFFFFF" stroke="none" d="
M -13.95 -75.95
Q -13.4650390625 -75.9056640625 -13 -75.9 -8.5009765625 -75.8482421875 -6.95 -78.05 -5.3990234375 -80.2021484375 -5 -84.95 -4.6005859375 -89.6490234375 -7.8 -92.6 -10.95 -95.5001953125 -15.05 -96.6 -19.1 -97.65 -22.3 -94.75 -25.45 -91.8 -25.45 -87.65 -25.4501953125 -83.4998046875 -21.45 -79.75 -17.8876953125 -76.3642578125 -13.95 -75.95
M -18.8 -87.35
Q -18.1 -88.25 -17.15 -88.25 -16.2 -88.25 -15.5 -87.35 -14.8 -86.4 -14.8 -85.05 -14.8 -83.7 -15.5 -82.8 -16.2 -81.85 -17.15 -81.85 -18.1 -81.85 -18.8 -82.8 -19.5 -83.7 -19.5 -85.05 -19.5 -86.4 -18.8 -87.35 Z"/>
</g>

<g id="Duplicate_Items_Folder_full_0_Layer3_0_FILL">
<path fill="#C14335" stroke="none" d="
M -6.8 -13.95
Q -5.75 -13.95 -5.05 -14.8 -4.3 -15.6 -4.3 -16.8 -4.3 -18 -5.05 -18.85 -5.75 -19.65 -6.8 -19.65 -7.85 -19.65 -8.6 -18.85 -9.3 -18 -9.3 -16.8 -9.3 -15.6 -8.6 -14.8 -7.85 -13.95 -6.8 -13.95
M -36.1 -106.25
Q -36.9580078125 -104.9 -38.15 -102.95 -39.3421875 -101 -37.3 -99.65 -35.252734375 -98.3 -34.35 -98.3 -33.45 -98.3 -32.85 -99.65 -32.2 -101 -32.2 -102.95 -32.2 -104.9 -32.85 -106.25 -33.45 -107.6 -34.35 -107.6 -35.2474609375 -107.6 -36.1 -106.25
M -43.15 -104.6
Q -43.15 -103.75 -42.55 -103.2 -41.9 -102.6 -41 -102.6 -40.1 -102.6 -39.5 -103.2 -38.85 -103.75 -38.85 -104.6 -38.85 -105.45 -39.5 -106.05 -40.1 -106.6 -41 -106.6 -41.9 -106.6 -42.55 -106.05 -43.15 -105.45 -43.15 -104.6
M 11.5 -36.95
Q 10.3 -36.95 9.45 -36.15 8.65 -35.35 8.65 -34.25 8.65 -33.15 9.45 -32.35 10.3 -31.55 11.5 -31.55 12.7 -31.55 13.5 -32.35 14.35 -33.15 14.35 -34.25 14.35 -35.35 13.5 -36.15 12.7 -36.95 11.5 -36.95 Z"/>

<path fill="#6A3737" stroke="none" d="
M 13.65 -11.5
Q 13.65 -8.8 15.35 -6.9 17.05 -5 19.45 -5 21.85 -5 23.55 -6.9 25.25 -8.8 25.25 -11.5 25.25 -14.2 23.55 -16.1 21.85 -18 19.45 -18 17.05 -18 15.35 -16.1 13.65 -14.2 13.65 -11.5 Z"/>
</g>

<g id="Duplicate_Items_Folder_full_0_Layer2_0_FILL">
<path fill="#3F868D" stroke="none" d="
M -15.15 6.4
Q -14.45 4.85 -13.35 3.5 -11.9 1.7 -9.55 0.35 -17.4 -1.7 -28.25 1.3
L -40.45 9
Q -40.65 9.3 -40.9 9.55 -37.3 8.25 -34.85 7.25 -33.3 6.55 -29.3 7.6 -24.45 9.1 -21.8 9.85 -19.35 10.4 -16 8.95 -15.5 7.3 -15.15 6.4
M 39.85 -9.5
Q 26.75 -7.7 20.45 -1.55 23.75 -1.15 26.6 0.2 28.7 1.15 30.55 2.55 31.6 3.4 33.35 5.05 37.7 5.15 39.75 3.3 41.85 1.15 45.6 -2.9 48.75 -6 50.8 -6.05 54 -6.05 58.6 -6.35 58.2 -6.5 57.75 -6.75
L 39.85 -9.5 Z"/>

<path fill="#72B9C0" stroke="none" d="
M -8 -0.35
Q -10.4 -2.45 -13.3 -4.15 -13.35 -4.2 -13.45 -4.2 -16.7 -6.2 -22.55 -5.4 -26 -4.85 -28.5 -3.45 -30.3 -2.4 -31.7 -0.95 -32.45 -0.1 -33.8 1.8 -34.9 3.25 -35.6 3.95 -36.25 4.3 -36.9 4.9 -37.95 6.05 -39.25 7.5 -39.9 8.3 -40.45 9
L -28.25 1.3
Q -17.4 -1.7 -9.55 0.35 -9.4 0.3 -9.35 0.2 -9 0 -8.65 -0.15 -8.3 -0.25 -8 -0.35
M 20.45 -1.55
Q 26.75 -7.7 39.85 -9.5
L 57.75 -6.75
Q 56.65 -7.25 55.4 -7.85 53 -8.85 51.15 -9.65 50 -9.95 49.15 -10.1 47.9 -10.6 45.7 -11.7 42.9 -13.2 41.55 -13.75 39.1 -14.75 36.5 -15.05 32.95 -15.35 29.1 -14.35 22.65 -12.4 20.9 -8.65 20.8 -8.55 20.8 -8.5 19.2 -5.1 18.35 -1.65 18.75 -1.65 19.15 -1.65 19.6 -1.65 20.15 -1.6 20.25 -1.6 20.45 -1.55 Z"/>

<path fill="#5AADB6" stroke="none" d="
M 2.6 1.6
L 3.1 0.7
Q 0.7 -0.45 -2.1 -1.3 -2.15 -1.3 -2.2 -1.25 -4.65 -1.95 -8 -0.35 -8.3 -0.25 -8.65 -0.15 -9 0 -9.35 0.2 -9.4 0.3 -9.55 0.35 -11.9 1.7 -13.35 3.5 -14.45 4.85 -15.15 6.4 -15.5 7.3 -16 8.95 -16.05 9.15 -16.1 9.35 -16.6 10.9 -17 11.7 -17.35 12.2 -17.7 12.9 -18.25 14.1 -18.85 15.75 -19.15 16.55 -19.35 17.35
L -12.1 7.45
Q -9.8 5.85 -7.8 4.7 -2.3 1.6 2.6 1.6
M 20.45 -1.55
Q 20.25 -1.6 20.15 -1.6 19.6 -1.65 19.15 -1.65 18.75 -1.65 18.35 -1.65 13.85 -1.75 11.9 0.2 11.8 0.15 11.75 0.2 9.6 2.5 8.05 4.95
L 9.2 5.7
Q 14.1 3.4 21.9 4.2 24.8 4.5 28.3 5.3
L 42.95 12.95
Q 42.15 12.15 41.2 11.35 39.4 9.85 37.95 8.7 37.1 8.1 36.35 7.7 35.4 7 33.75 5.45 33.55 5.25 33.35 5.05 31.6 3.4 30.55 2.55 28.7 1.15 26.6 0.2 23.75 -1.15 20.45 -1.55 Z"/>

<path fill="#2F656A" stroke="none" d="
M 2.75 5.55
L 2.75 5 2.6 1.6
Q -2.3 1.6 -7.8 4.7 -9.8 5.85 -12.1 7.45
L -19.35 17.35
Q -19.4 17.7 -19.55 17.95 -17.2 15.85 -15.6 14.35 -14.6 13.3 -11.35 13.15 -7.25 13.2 -5.15 13.05 -3.2 12.9 -1.3 11.05 -0.4 10.3 0.4 9.25 1.8 7.45 2.75 5.55
M 43.6 13.55
Q 43.25 13.25 42.95 12.95
L 28.3 5.3
Q 24.8 4.5 21.9 4.2 14.1 3.4 9.2 5.7
L 11.65 9.65 12.1 10.3
Q 14.4 11.95 17.15 13.35 18.75 14.15 20.15 14.6 23.5 15.75 25.55 14.95 27.75 14.1 31.8 12.05 35.15 10.65 36.95 11.4 39.65 12.3 43.6 13.55 Z"/>
</g>

<g id="Duplicate_Items_Folder_full_0_Layer1_0_FILL">
<path fill="#3F868D" stroke="none" d="
M 17.65 -16.5
Q 17.45 -16.2 17 -16
L 7.25 -3.8
Q 6.25 -0.6 5.65 2.05 4.45 9.4 7.15 14.65
L 11.9 13.35 12.65 13.15
Q 14.7 11.35 16.45 9 17.4 7.65 18 6.3 19.55 3.5 18.75 1.25 17.85 -1.1 15.4 -5.5 14 -9.1 14.85 -10.6 16.05 -13 17.65 -16.5 Z"/>

<path fill="#72B9C0" stroke="none" d="
M 17 -16
Q 15.95 -15.45 15.1 -14.8 13.05 -13.45 11.75 -12.25 10.95 -11.65 10.4 -11.05 9.65 -10.2 7.65 -9.05 7.45 -8.9 7.15 -8.7 5.2 -7.5 4.05 -6.75 2.35 -5.3 1.05 -3.55 -0.65 -1.1 -1.2 2.05 -1.25 2.25 -1.35 2.3 -1.45 2.8 -1.45 3.2 -1.4 3.65 -1.4 4 -1.8 8.35 0.55 10.65 0.45 10.75 0.5 10.8 3.2 13.55 6.1 15.7
L 7.15 14.65
Q 4.45 9.4 5.65 2.05 6.25 -0.6 7.25 -3.8
L 17 -16 Z"/>
</g>

<path id="Duplicate_Items_Folder_full_0_Layer8_0_1_STROKES" stroke="#000000" stroke-width="2" stroke-linejoin="round" stroke-linecap="round" fill="none" d="
M -20.05 -53.15
Q -18.8 -52.8 -17.3 -52.35 -14.6 -51.45 -12.45 -50.5 -11.35 -50 -10.45 -49.25 -9.25 -48.6 -6.5 -48.05 -3.15 -47.35 -1.55 -46.75 1.1 -45.7 3.35 -43.45 6.55 -40.4 8.65 -35.05 12.35 -25.9 10.7 -18.75 10.75 -18.6 10.7 -18.45 9.1 -11.55 6.9 -5.45
L 5.5 -6.45 -0.4 -5.05
M -1.45 -4.8
Q -4.6 -6.4 -7.55 -9.15 -13.55 -14.7 -13.7 -20.8 -13.7 -26 -13.5 -35.45 -13.45 -43.1 -15.1 -45.05 -17.65 -48.4 -21 -53.35 -20.6 -53.25 -20.05 -53.15"/>

<path id="Duplicate_Items_Folder_full_0_Layer7_0_1_STROKES" stroke="#000000" stroke-width="2" stroke-linejoin="round" stroke-linecap="round" fill="none" d="
M 52.25 -48.15
Q 50.85 -47.9 49.15 -47.6 46.05 -47 43.55 -46.3 42.25 -45.9 41.25 -45.25 39.85 -44.7 36.75 -44.45 32.9 -44.1 31.05 -43.65 27.95 -42.9 25.3 -40.9 21.55 -38.2 18.85 -33.1 14.25 -24.35 15.7 -17.05 15.65 -16.9 15.65 -16.75 17.1 -9.75 19.3 -3.45
L 20.9 -4.3
M 52.25 -48.15
Q 52.9 -48.2 53.4 -48.25 49.3 -43.65 46.3 -40.6 44.3 -38.8 43.95 -31.2 43.7 -21.75 43.4 -16.6 42.9 -10.55 35.8 -5.65 32.35 -3.2 28.7 -1.95
M 20.9 -4.3
L 27.5 -2.3
M -16.2 -0.9
Q -19.65 -1.65 -23.1 -3.25 -30.1 -6.55 -31.2 -11.1 -32.05 -14.95 -33.2 -22.1 -34.3 -27.8 -36.3 -29.05 -39.4 -31.2 -43.65 -34.45 -43.15 -34.4 -42.6 -34.4 -41.25 -34.3 -39.65 -34.2 -36.75 -33.85 -34.35 -33.55 -33.15 -33.3 -32.15 -32.85 -30.8 -32.5 -27.9 -32.55 -24.3 -32.45 -22.55 -32.2 -19.65 -31.9 -17.05 -30.5 -13.3 -28.7 -10.3 -24.95 -5.15 -18.65 -5.7 -13.05 -5.65 -12.95 -5.65 -12.85 -6.3 -7.45 -7.7 -2.6
L -9.25 -3.1 -15.15 -1.2"/>

<path id="Duplicate_Items_Folder_full_0_Layer6_0_1_STROKES" stroke="#000000" stroke-width="2" stroke-linejoin="round" stroke-linecap="round" fill="none" d="
M -23.45 2.9
Q -26.3 2.3 -29 1.05 -34.5 -1.55 -34.85 -5.1 -35.1 -8.15 -35.1 -13.75 -35.3 -18.2 -36.85 -19.2 -39.25 -20.9 -42.4 -23.45 -42 -23.4 -41.5 -23.4 -40.35 -23.3 -39.05 -23.25 -36.65 -22.95 -34.6 -22.75 -33.6 -22.55 -32.8 -22.2 -31.7 -21.9 -29.25 -21.95 -26.2 -21.85 -24.75 -21.65 -22.35 -21.45 -20.25 -20.35 -17.3 -18.9 -15.25 -16 -11.7 -11.05 -12.9 -6.65 -12.85 -6.55 -12.85 -6.5 -14.15 -2.25 -15.95 1.55
L -17.2 1.15 -22.5 2.65"/>

<path id="Duplicate_Items_Folder_full_0_Layer5_0_1_STROKES" stroke="#000000" stroke-width="2" stroke-linejoin="round" stroke-linecap="round" fill="none" d="
M -20.65 -11.9
Q -19.7955078125 -15.181640625 -17.35 -18.25 -14.8 -21.45 -10 -25.9 -7.35 -28.35 -2.15 -33.15 6.65 -41.8 6.4 -48.4 6.1 -55.25 3.05 -65.45 1.5 -70.55 0 -74.25
L -7.35 -69.825 -12.7 -66.6 -12.3 -58.55 -15.825 -58.35
M -15.725 -58.275
L -19.9 -58.15 -19.35 -66.65 -19.9 -66.45 -30.5 -65.3 -30.475 -65.2 -27.95 -56.85 -37.3 -55.15 -36.45 -65.75 -43.25 -65.35 -43.175 -65.025 -41.55 -56.85 -49.6 -56.85 -49.6 -67.45 -50.9 -67.6
Q -52.4 -67.95 -53.55 -68.85 -57.25234375 -71.60234375 -57.225 -78.95 -57.203515625 -84.9283203125 -54.825 -88.175 -54.2685546875 -88.9244140625 -53.6 -89.525 -50.686328125 -92.139453125 -49.9 -92.525
L -49.65 -92.6
Q -47.95625 -104.595703125 -42.775 -109.675 -42.3931640625 -110.0439453125 -42 -110.375 -36.09921875 -115.3484375 -33.6 -117.15 -27.5 -121.4 -21.6 -119.2 -18.9 -118.2 -15.2 -117.75 -11.2 -117.45 -9.2 -117.15 -2.25 -116.1 2.55 -110.3 11.4009765625 -100.45 14.1 -94.05 16.7966796875 -87.65 16.1 -81.35 15.4041015625 -75.05 19.55 -61.5 23.4912109375 -48.61328125 27.075 -36.35 27.2662109375 -35.7291015625 27.45 -35.1 28.2255859375 -32.4455078125 28.825 -30.075 31.074609375 -20.9537109375 30.575 -15.975 29.9484375 -9.7 29.8 -6.85 29.45 1.15 25.9 3.35 22.4498046875 5.4974609375 6.625 6.775 -9.199609375 8.0572265625 -17.35 2.5 -19.45 -0.05 -20.5 -3.9 -21.6580078125 -8.0470703125 -20.65 -11.9
M -36.45 -65.75
L -30.475 -65.2
M -19.35 -66.65
L -12.7 -66.6
M -49.65 -92.6
Q -47.3607421875 -97.2205078125 -43.65 -94.2
M -49.6 -67.45
L -43.175 -65.025
M -20.3 -105.35
Q -11.8 -104.6 -7.8 -98.75"/>

<path id="Duplicate_Items_Folder_full_0_Layer4_0_1_STROKES" stroke="#000000" stroke-width="2" stroke-linejoin="round" stroke-linecap="round" fill="none" d="
M 1.7 -69.6
Q 4.05 -73.5302734375 7.7 -72.1
M 5.1 -61.55
Q 7.3400390625 -65.14296875 12.35 -64.5
M 5.95 -53.45
Q 8.925 -56.5044921875 11.9 -54.75
M 5.95 -47.1
Q 10.4646484375 -51.2875 16.55 -48.8
M -40.25 -112
Q -34.8462890625 -115.7734375 -27.95 -115.4
M -13.95 -75.95
Q -17.8876953125 -76.3642578125 -21.45 -79.725 -25.4501953125 -83.4998046875 -25.45 -87.65 -25.45 -91.8 -22.3 -94.75 -19.1 -97.65 -15.025 -96.575 -10.95 -95.5001953125 -7.775 -92.575 -4.6005859375 -89.6490234375 -5 -84.925 -5.3990234375 -80.2021484375 -6.95 -78.025 -8.5009765625 -75.8482421875 -12.975 -75.9 -13.4650390625 -75.9056640625 -13.95 -75.95 -6.55 -72.2091796875 -0.8 -79.75
M -25.85 -87.45
Q -28.6712890625 -91.9380859375 -25 -98
M -23.35 -77.2
Q -19.9 -73.6 -13.6 -72.95
M -9.75 -26.3
Q -3.1431640625 -31.0166015625 2.15 -30.15"/>

<path id="Duplicate_Items_Folder_full_0_Layer2_0_1_STROKES" stroke="#000000" stroke-width="2" stroke-linejoin="round" stroke-linecap="round" fill="none" d="
M 20.45 -1.55
Q 23.75 -1.15 26.6 0.2 28.7 1.15 30.55 2.55 31.6 3.4 33.35 5.05 37.7 5.15 39.75 3.3 41.85 1.15 45.6 -2.9 48.75 -6 50.8 -6.05 54 -6.05 58.6 -6.35 58.2 -6.5 57.75 -6.75 56.65 -7.25 55.4 -7.85 53 -8.85 51.15 -9.65 50 -9.95 49.15 -10.1 47.9 -10.6 45.7 -11.7 42.9 -13.2 41.55 -13.75 39.1 -14.75 36.5 -15.05 32.95 -15.35 29.1 -14.35 22.65 -12.4 20.9 -8.65 20.8 -8.55 20.8 -8.5 19.2 -5.1 18.35 -1.65 18.75 -1.65 19.15 -1.65 19.6 -1.65 20.15 -1.6 20.25 -1.6 20.45 -1.55 Z
M 42.95 12.95
Q 42.15 12.15 41.2 11.35 39.4 9.85 37.95 8.7 37.1 8.1 36.35 7.7 35.4 7 33.75 5.45 33.55 5.25 33.35 5.05
M 12.1 10.3
Q 14.4 11.95 17.15 13.35 18.75 14.15 20.15 14.6 23.5 15.75 25.55 14.95 27.75 14.1 31.8 12.05 35.15 10.65 36.95 11.4 39.65 12.3 43.6 13.55 43.25 13.25 42.95 12.95
M 9.2 5.7
L 11.65 9.65
M 18.35 -1.65
Q 13.85 -1.75 11.9 0.2 11.8 0.15 11.75 0.2 9.6 2.5 8.05 4.95
L 9.2 5.7
M 2.75 5.55
Q 1.8 7.45 0.4 9.25 -0.4 10.3 -1.3 11.05 -3.2 12.9 -5.15 13.05 -7.25 13.2 -11.35 13.15 -14.6 13.3 -15.6 14.35 -17.2 15.85 -19.55 17.95 -19.4 17.7 -19.35 17.35 -19.15 16.55 -18.85 15.75 -18.25 14.1 -17.7 12.9 -17.35 12.2 -17 11.7 -16.6 10.9 -16.1 9.35 -16.05 9.15 -16 8.95 -19.35 10.4 -21.8 9.85 -24.45 9.1 -29.3 7.6 -33.3 6.55 -34.85 7.25 -37.3 8.25 -40.9 9.55 -40.65 9.3 -40.45 9 -39.9 8.3 -39.25 7.5 -37.95 6.05 -36.9 4.9 -36.25 4.3 -35.6 3.95 -34.9 3.25 -33.8 1.8 -32.45 -0.1 -31.7 -0.95 -30.3 -2.4 -28.5 -3.45 -26 -4.85 -22.55 -5.4 -16.7 -6.2 -13.45 -4.2 -13.35 -4.2 -13.3 -4.15 -10.4 -2.45 -8 -0.35 -4.65 -1.95 -2.2 -1.25 -2.15 -1.3 -2.1 -1.3 0.7 -0.45 3.1 0.7
L 2.6 1.6 2.75 5
M -9.55 0.35
Q -9.4 0.3 -9.35 0.2 -9 0 -8.65 -0.15 -8.3 -0.25 -8 -0.35
M -16 8.95
Q -15.5 7.3 -15.15 6.4 -14.45 4.85 -13.35 3.5 -11.9 1.7 -9.55 0.35"/>

<path id="Duplicate_Items_Folder_full_0_Layer1_0_1_STROKES" stroke="#000000" stroke-width="2" stroke-linejoin="round" stroke-linecap="round" fill="none" d="
M 17 -16
Q 15.95 -15.45 15.1 -14.8 13.05 -13.45 11.75 -12.25 10.95 -11.65 10.4 -11.05 9.65 -10.2 7.65 -9.05 7.45 -8.9 7.15 -8.7 5.2 -7.5 4.05 -6.75 2.35 -5.3 1.05 -3.55 -0.65 -1.1 -1.2 2.05 -1.25 2.25 -1.35 2.3 -1.45 2.8 -1.45 3.2 -1.4 3.65 -1.4 4 -1.8 8.35 0.55 10.65 0.45 10.75 0.5 10.8 3.2 13.55 6.1 15.7
L 7.15 14.65
M 17 -16
Q 17.45 -16.2 17.65 -16.5 16.05 -13 14.85 -10.6 14 -9.1 15.4 -5.5 17.85 -1.1 18.75 1.25 19.55 3.5 18 6.3 17.4 7.65 16.45 9 14.7 11.35 12.65 13.15
M 7.15 14.65
L 11.9 13.35"/>
</defs>

<g transform="matrix( 3.6963958740234375, 0, 0, 3.6963958740234375, 279.45,463.4) ">
<g transform="matrix( 1, 0, 0, 1, 0,0) ">
<use xlink:href="#Duplicate_Items_Folder_full_0_Layer8_0_FILL"/>

<use xlink:href="#Duplicate_Items_Folder_full_0_Layer8_0_1_STROKES"/>
</g>

<g transform="matrix( 1, 0, 0, 1, 0,0) ">
<use xlink:href="#Duplicate_Items_Folder_full_0_Layer7_0_FILL"/>

<use xlink:href="#Duplicate_Items_Folder_full_0_Layer7_0_1_STROKES"/>
</g>

<g transform="matrix( 1, 0, 0, 1, 0,0) ">
<use xlink:href="#Duplicate_Items_Folder_full_0_Layer6_0_FILL"/>

<use xlink:href="#Duplicate_Items_Folder_full_0_Layer6_0_1_STROKES"/>
</g>

<g transform="matrix( 1, 0, 0, 1, 0,0) ">
<use xlink:href="#Duplicate_Items_Folder_full_0_Layer5_0_FILL"/>

<use xlink:href="#Duplicate_Items_Folder_full_0_Layer5_0_1_STROKES"/>
</g>

<g transform="matrix( 1, 0, 0, 1, 0,0) ">
<use xlink:href="#Duplicate_Items_Folder_full_0_Layer4_0_FILL"/>

<use xlink:href="#Duplicate_Items_Folder_full_0_Layer4_0_1_STROKES"/>
</g>

<g transform="matrix( 1, 0, 0, 1, 0,0) ">
<use xlink:href="#Duplicate_Items_Folder_full_0_Layer3_0_FILL"/>
</g>

<g transform="matrix( 1, 0, 0, 1, 0,0) ">
<use xlink:href="#Duplicate_Items_Folder_full_0_Layer2_0_FILL"/>

<use xlink:href="#Duplicate_Items_Folder_full_0_Layer2_0_1_STROKES"/>
</g>

<g transform="matrix( 1, 0, 0, 1, 0,0) ">
<use xlink:href="#Duplicate_Items_Folder_full_0_Layer1_0_FILL"/>

<use xlink:href="#Duplicate_Items_Folder_full_0_Layer1_0_1_STROKES"/>
</g>
</g>
</svg>
