
<svg xmlns="http://www.w3.org/2000/svg" version="1.1" xmlns:xlink="http://www.w3.org/1999/xlink" preserveAspectRatio="none" x="0px" y="0px" width="560px" height="544px" viewBox="0 0 560 544">
<defs>
<filter id="Filter_1" x="-20%" y="-20%" width="140%" height="140%" color-interpolation-filters="sRGB">
<feColorMatrix in="SourceGraphic" type="matrix" values="1.145194 -0.12797399999999998 -0.01722 0 0 -0.06480599999999999 1.082026 -0.01722 0 0 -0.06480599999999999 -0.12797399999999998 1.19278 0 0 0 0 0 1 0 " result="result1"/>
</filter>

<g id="fully_grown_0_Layer4_0_FILL">
<path fill="#146972" stroke="none" d="
M 266 28.35
Q 258.85 27 247.35 27.05 240.45 27.05 234.7 29.25 234.65 23.6 232.45 17.85 230.35 12.25 227.05 8.7 223.55 5 217.7 3.15 212.15 1.4 206.85 2 202.05 2.55 196.75 5.55 190.7 8.95 189.5 12.9 186.7 10.95 182.85 9.7 180.05 8.8 175.6 8 168.7 6.75 163.35 7.95 156.6 9.55 154.25 14.9 145.85 5.45 135 1.9 123.3 -2 111.5 2.05 101.5 5.5 94.7 13.2 88.4 20.35 85.6 30.3
L 85.55 30.3
Q 73.65 33.8 65.15 44.4 56.75 54.85 55.4 67.4
L 55.15 67.35
Q 45.2 65.4 35.2 72.5 25.95 79.05 22.25 88.85 19.8 95.4 19.85 102.1 19.9 105.45 20.45 107.5 13.8 106.95 8.7 110.45 4.05 113.7 1.75 119.5 -0.5 125.15 0.1 131.3 0.8 137.7 4.4 142.45 9.5 149.05 15.75 152.1
L 15.75 152.2
Q 15.7 158.7 21.6 165.15 19.45 165.1 16.4 168.45 12.3 172.85 12 178.6 11.85 181.8 13.9 184.85 15.65 187.45 18.6 189.45 20.55 190.8 22.55 191.4 20.6 195.65 23.2 200.9 25.55 205.55 29.75 208.1 34.2 210.8 40.3 210.55 47.1 210.3 49.65 206.1 52.7 213.1 58.45 219.35 63.95 225.25 70.55 229.1 82.35 236.05 94.45 238.05 108.2 240.4 119 235.6 123.5 243 134.6 256.9 143.6 269.65 144.1 280.9 144.75 295.25 143.95 304.05 143.6 308.05 143.8 314.7 143.95 322.7 143.9 325.3 135.85 319 123.25 323.95 111.35 328.65 106.75 338.05 104.7 338.55 98.65 339.4 93.5 340.1 90.55 341.1 87.7 342.05 85.9 344 84 346.05 83.7 348.9 83.45 351.35 85.75 353.55 87.45 355.2 90.15 356.35 94.95 358.45 101.5 355.45 101.15 357.5 104.45 359.3 107.2 360.8 110.8 360.3 113.5 359.9 117.1 358.3 118.7 363.25 125.85 367 131.85 370.15 137.4 370.65 146.15 371.35 152.95 365.4
L 153 365.5
Q 156.5 368.55 162.7 368.5 168.4 368.45 172.7 366 175.2 364.6 176.9 361.25 179.15 362.5 183.5 365.15 187.45 367.5 190.3 368.55 198.9 371.75 208 370.75 213.8 370.15 218.1 366.15 222.9 361.7 221.25 356.25 221.05 355.55 220.55 354.7 227.95 351.05 224.75 344.75 223 341.35 217.95 339.75 213.6 338.3 209.2 338.75 206.3 335.3 199 332.1 194.8 330.25 189.8 329.75 184.75 329.2 180.25 330.25 179.45 327.2 179.15 322.95 179 321.1 178.9 315.7 178.6 302.2 178.85 297.1 179.4 286.45 181.95 278.9 184.05 272.8 189.25 265.65 195.55 257.65 198.55 253.7 206.15 243.65 212.4 228.95
L 213.5 228.7
Q 216.1 228 220.55 223.4 225.4 227.8 233.45 228.5 240.7 229.1 247.4 226.6 254.65 223.9 258.75 216.35 260.45 213.3 261 210.5 261.7 207 260.45 204.5 269.7 206.55 277.45 204.1 286.1 201.4 290.3 193.7 293.15 188.4 292.8 182.75 292.5 177.5 289.55 172.7 294.9 171.05 298.9 167.4 303.35 163.35 304.3 158.25 304.8 155.8 303.6 153.25 302.55 150.95 300.35 149
L 300.45 148.85
Q 301.35 146.8 301.45 144.9 301.5 143.1 300.8 140.85 299.85 137.75 296.45 135.4 296.8 133.65 297.05 131.7 298 123.15 293.7 114.05 289.4 105 281.95 99.7 288.75 93.5 292.55 83 296 73.4 296.05 63.1 296.15 54.75 292.85 47.7 289.5 40.55 283 35.5 276.3 30.25 266 28.35
M 149.5 237.1
Q 151 248.65 146.65 245.5 145.5 244.65 142.75 241.45 140 238.15 134.7 231.45 137.5 233.2 142.15 234.25 145 235 148.15 235.15
L 149.5 237.05 149.5 237.1
M 182.7 246
Q 187.65 242.4 188.85 237.8 191.8 237.8 194.55 236.9 188.6 245.3 181.8 253.45 177.9 258.05 175.3 260.1 173.65 261.4 173.3 259.3 173.2 258.8 173.2 255.65 173.25 253.1 172.95 250.25 178.15 249.35 182.7 246 Z"/>
</g>

<g id="fully_grown_0_Layer3_0_MEMBER_0_FILL">
<path fill="#36ABC6" stroke="none" d="
M 36.25 74.4
Q 27.4 80.65 23.95 89.6 21.85 95.1 21.55 100.5 21.15 106.7 23.2 111.45 24.8 115.15 27.9 118.8 29.25 120.35 33.95 125.05 34.25 125.4 34 125.7 33.8 126.05 33.4 125.8 28.55 122.55 25.3 118 22.05 113.5 20.65 108.25 15.2 107.6 10.45 110.95 6.05 114.1 3.5 119.6 1 125.15 1.4 130.9 1.85 137.1 5.7 141.45 13.2 149.95 19.5 151.75 25.6 153.45 30.45 150.75 35.6 147.9 35.6 141.75 35.6 139.35 33.65 136.45 30.4 131.6 26.1 130.4 22.6 129.4 20.15 129.95 17.25 130.65 15.7 133.1 14.05 135.7 15.4 138.3 17.5 142.2 20.6 142.95 22.25 143.3 23.6 142.1 23.7 142 25.5 139.75 25.85 139.35 26.25 139.7 26.65 140 26.45 140.45 24.85 144.05 21.6 143.85 18.7 143.7 16.25 140.95 13.7 138.2 13.8 135.05 13.9 131.4 17.7 129.3 21.7 127.1 26.8 128.95 31.5 130.65 34.2 134.5 37.05 138.5 36.9 144.25 36.8 147.65 33.6 150.5 30.65 153.15 27 153.85 22.5 154.75 17.6 152.9 17.85 159.15 23.6 165.45 28.9 171.2 35.25 173.5 35.4 173.55 35.35 173.7 35.3 173.85 35.2 173.85 32.35 174.25 28.55 171.6 26.2 169.95 22.95 166.6 19.05 166.2 15.9 171.2 12.95 175.9 13.7 179.75 15 186.45 21.15 188.85 26.4 190.85 33.35 189.2 33.55 189.15 33.65 189.35 33.7 189.55 33.55 189.65 28.5 192.6 23.65 191.65 23.1 193.05 23.6 196.6 24.05 199.5 25.55 201.9 27.1 204.4 29.5 205.85 33.7 208.35 39.85 208.3 47.05 208.2 48.65 203.6 44.45 191.75 49.1 181.3 49.2 181 49.55 181.1 49.85 181.15 49.8 181.5 47.1 195.2 52.6 207.4 58.15 219.55 70.25 226.7 83.1 234.2 95.4 236.4 110.75 239.2 121.25 232.6 133.9 224.65 139.85 210.8 146.25 195.85 140.5 182.65 137.25 175.25 131.4 169.25 125.25 162.9 118.05 160.1 109.45 156.8 101.35 159.3 94.85 161.3 86.7 167.9 81.9 172.25 79.35 177.45 76.55 183.15 76.75 189.25 77.1 199.55 84.45 206.1 91.6 212.45 102.05 212.35 112.25 212.2 118.8 206.4 126.15 199.9 122.9 190.2 121.45 185.8 118 183.3 114.2 180.55 109.85 181.8 106.35 182.8 104.4 185.55 102.35 188.5 103.15 191.95 103.85 195.05 105.55 197.35 107.8 200.3 110.65 199.75 111.05 199.7 111.1 200.1 111.2 200.5 110.8 200.6 106.25 202.15 103.25 196.45 100.45 191.05 102 186.9 103.9 181.95 108.95 180.3 113.85 178.75 118.55 181.25 127.05 185.85 125.55 196.75 124.95 201.4 122.35 205.3 119.65 209.35 115.75 211.15 104.6 216.35 92.6 212.7 79.8 208.8 76.25 197.15 74.25 190.4 75.6 183.7 76.9 177.3 81.2 171.35 83.7 167.95 86.45 165.4 80.6 165.3 72.65 158.9 70.6 157.2 69.65 154.85 62.65 155.35 58.25 154.2 52.3 152.7 48.95 147.95 45.7 143.4 44.6 138.55 43.25 132.7 45.75 128.55 42.15 127.25 38.7 123.9 35.5 120.8 33.75 117.35 31.6 112.95 30.95 108.15 30.25 103.1 31.4 98.55 33.5 90.1 40.2 83.9 47.7 77 55.85 78.6 54.95 74.2 55.2 69.5 55 69.55 54.7 69.5 45.75 67.6 36.25 74.4 Z"/>
</g>

<g id="fully_grown_0_Layer3_0_MEMBER_1_FILL">
<path fill="#527382" stroke="none" d="
M 130.6 227.35
L 128.1 229.7
Q 124.1 233.3 119.45 235.4 134.65 253.4 135.65 254.75 144.5 266.9 145.7 277.4 147.05 289.55 145.95 302.25 145.45 307.55 145.35 309.4 145.1 313.35 145.35 316.55 145.9 324.45 145.6 328.95 145.55 329.8 144.6 329.8 143.7 329.8 143.75 328.9 143.9 327.5 143.9 326.05
L 143.85 326
Q 135.8 320.7 124.05 324.85 112.75 328.85 108 337.7 110.1 337.1 112.2 336.05 112.3 336.8 109.75 337.9 104.6 340.15 92.75 341.45 90.25 341.7 87.85 343.4 85.1 345.3 84.85 347.7 84.55 350.15 86 352.15 87.25 354 89.5 354.95 93.1 356.5 97.05 355.65 99.35 355.2 104.15 353 104.55 352.8 104.75 353.2 104.95 353.6 104.55 353.85
L 102.6 354.95
Q 101.9 356.8 105.05 358 107.7 358.9 109.75 358.75 112.6 358.45 116.7 356.65
L 116.65 355.35
Q 116.9 350.35 120.55 347 124.35 343.5 129.25 344.35 133.7 345.1 133.95 350.35 134.15 355.6 129.3 355.55 128.65 355.55 128.7 354.9 128.75 354.25 129.4 354.3 131.7 354.5 132.55 352.55 133.25 350.7 132.4 348.4 131.55 346 129.55 345.05 127.25 344 124.45 345.65 122.3 346.9 120.7 348.8 118.85 350.9 118.45 353.1 117.55 357.55 121.55 361.75 124.65 365.1 129.6 367.2 139.45 371.3 147.3 367.65 151.4 365.75 154.6 361.75 158 356.85 160.05 354.2 160.15 354.1 160.25 354.15 160.35 354.2 160.3 354.3 158.1 360.4 153.7 364.7 157.75 368.25 165.1 367.35 172.6 366.4 175.2 361.55 177 358.15 176.1 354.65 175.05 350.7 170.95 350.95 168.55 351.1 166.85 352.85 165.35 354.35 165.1 356.3 164.8 358.25 166 359.05 167.3 359.95 169.9 358.8 170.15 358.7 170.3 358.95 170.4 359.25 170.15 359.35 167.3 360.8 165.1 359.05 162.9 357.3 163.7 354.2 164.7 350.35 169.55 350.1 174.1 349.85 176.6 352.45 178.05 353.95 178.15 356.2 178.2 358.2 177.25 360.45 180.4 362.05 186.65 365.5 192.25 368.25 196.65 368.95 202.45 369.85 206.5 369.45 212 368.95 215.6 366.15 218.6 363.8 219.65 361.2 221 357.9 218.75 355.05 215.35 350.75 209.7 349.2 205.85 348.05 203.05 348.5 194.35 349.7 195.3 353.95 196.7 356.85 200.25 358 203.7 359.15 206.7 357.8 208.3 357.05 209.1 355.8 210.05 354.2 208.35 353 207.3 352.2 205.85 351.95 203.45 351.65 202.3 353.25 201.15 354.9 204.1 355.35 204.35 355.3 204.4 355.55 204.5 355.8 204.25 355.85 202.35 356.5 201.5 354.7 200.65 352.85 202.05 351.55 203.95 349.85 207.65 351.1 211.5 352.35 211.05 355.1 210.55 358.15 207.75 359.35 205.2 360.45 201.85 359.65 198.5 358.9 196.3 356.7 193.85 354.3 194.05 351.2 194.25 348.15 202.95 347.25 207.2 346.8 212.05 348.5 217.4 350.35 219.9 353.7 222.5 352.95 223.85 351.15 225.45 349.05 224.45 346.6 223.2 343.5 220.6 342.2 214.4 339.25 209.7 339.35 211.6 341.9 211.45 344.8 211.45 345.15 211.1 345.2 210.7 345.25 210.6 344.95 207.15 336.8 198.1 333.4 190.9 330.65 180.5 331 181 332.65 181.6 333.85 182.95 336.6 185.6 339.05 188.7 341.9 191.35 341.95 193.55 341.95 194.4 340.4 195.05 339.2 194.7 338.3 193.95 336.15 191.2 336.2 190.15 336.25 186.8 337.1 186.7 337.15 186.7 337.05 186.65 336.95 186.7 336.9 187.9 336 189.65 335.6 191.35 335.2 192.85 335.5 194.05 335.7 195 336.65 196.1 337.65 195.95 338.8 195.7 341.55 193.15 342.45 191.05 343.25 188.8 342.5 182.6 340.4 180.15 334.35 177.1 326.65 176.95 314.95 176.9 310.15 177.85 295.05 178.45 285.85 181.3 278.2 184.15 270.45 189.75 263.2 197.3 253.4 201.65 246.85 207.55 237.85 211.4 229.15 206 230.15 203.05 228.7 201.9 233.25 197.2 235.8 190.35 245.7 188 248.8 182.3 256.3 177.4 260.4 173 264.1 172 259.5 171.5 257.05 172 250.35
L 171.3 250.45
Q 164.25 250.8 160.25 247.6 155.45 243.9 151.3 239.25 151.6 243.9 150.8 246.25 149.6 249.65 146.25 247.25 143.35 245.2 140.2 240.55 137.4 236.6 130.6 227.35
M 121.55 332.6
Q 128.6 329.85 133.1 329.55 138.9 329.15 144.9 331.35 146.65 332 149.6 332.7 153.05 333.5 154.25 333.85 154.5 333.9 154.5 334.2 154.5 334.4 154.25 334.5 152 335.05 149.3 334.5 147.55 334.15 144.45 332.95 137.85 330.4 131.75 331.5 124.15 332.85 119.7 335.5 118.15 336.45 115.15 338.25 112.55 339.7 110.35 340.55 110.15 340.65 110.05 340.4 109.95 340.2 110.15 340.1 111.75 339.2 115.75 336.15 119.2 333.55 121.55 332.6 Z"/>
</g>

<g id="fully_grown_0_Layer3_0_MEMBER_2_FILL">
<path fill="#36ABC6" stroke="none" d="
M 293.1 145.5
Q 296.2 145.9 299.1 148 299.65 145.8 299.75 145.15 299.95 143.6 299.6 142.15 298.9 139.1 297.75 137.85 296.75 136.75 296.35 136.1 295.3 141.1 293.1 145.5 Z"/>
</g>

<g id="fully_grown_0_Layer3_0_MEMBER_3_FILL">
<path fill="#42C6EA" stroke="none" d="
M 264.6 29.35
Q 256 28.1 249.55 28.1 241.25 28.15 234.7 30.25 234.55 35.85 232.2 39.9 229.6 44.35 224.55 46.25 218.85 48.35 213.5 46.8 208.15 45.3 204.5 40.45 202.05 37.15 202.45 32.75 202.8 28.25 205.9 25.65 209.45 22.7 214.1 23.15 218.6 23.6 221.8 27.1 224.9 30.5 223.65 33.85 222.5 36.85 218.3 38.95 217.85 39.15 217.6 38.75 217.35 38.35 217.7 38 221.05 34.95 221.7 32.25 222.55 28.8 218.85 26.5 214.8 24 212.15 24.35 206.35 25.1 204.35 30.7 202.4 36.3 206.45 40.6 213.2 47.75 222.3 45.05 231.4 42.3 232.7 32.55 233.8 24.55 230.6 17.05 227.05 8.9 220.05 5.9 210 1.65 202.55 4.8 192.75 8.8 190.05 13.2
L 190.05 13.25 190.3 13.4
Q 194.8 16.75 198.9 25.25 199.2 25.85 198.55 26.25 197.95 26.6 197.55 26.05 195.35 22.5 194.25 20.75 192.2 17.65 190.3 15.9 187.95 13.75 184.7 12.35 182.15 11.25 178.3 10.4 169 8.3 163.7 9.7 160.8 10.45 158.7 11.9 156.8 13.2 154.8 15.55 158.95 20.3 161.85 25.9 169.4 40.45 168.95 52.95 168.4 69.1 153.1 73.05 146.4 74.75 140 73.35 132.55 71.75 129.3 66.4 126.1 61.2 126.6 54.1 126.95 49.3 129.4 41.5 129.5 41.3 129.75 41.35 130 41.4 129.95 41.6 127.75 51.95 127.7 55.7 127.55 64.2 132.85 68.25 138.55 72.65 146.55 72.55 154.55 72.45 160.15 67.8 169.2 60.35 167.45 46.7 166.15 36.2 159.1 24.45 151.3 11.4 139.05 5.3 125.45 -1.55 111.95 3.65 104.3 6.6 98.25 12.05 91.95 17.75 88.7 24.95 83.6 36.4 84.85 52.05 84.9 52.3 84.6 52.35 84.3 52.4 84.25 52.1 82.8 41.45 85.3 31.45 74.1 35.6 66.45 45.1 58.8 54.6 57.15 66.5 55.25 80.55 63.6 92.1 68.05 98.3 73.55 101.5 80.2 105.35 86.7 103.55 92.85 101.85 97.3 97.55 102.15 92.85 102.85 86.9 103.5 80.6 100.65 74.4 97.6 67.85 92.1 65 85.45 61.5 80.7 63.8 76.1 66.05 73.3 71.1 70.25 76.55 71.95 81.2 73.45 85.3 77.75 87.05 82.3 88.85 85.9 86.25 89.4 83.75 88.15 79.6 87.85 78.65 84.75 73.05 84.65 72.85 84.9 72.65 85.1 72.5 85.3 72.7 89.15 77.2 89.5 81.8 89.95 87.45 83.7 88.6 77.65 89.7 73.45 85.95 69.15 82.05 70.3 75.95 71.8 68.45 77.2 64.45 82.95 60.2 90.05 62.5 97 64.8 101.1 72.4 105.1 79.85 103.7 87.05 102.2 94.9 95.65 100.1 88.95 105.4 80.95 104.75 74.45 104.2 68.55 99.4 63.5 95.3 59.75 88.9 57.1 84.35 55.95 79.2 46.4 79.45 39.4 86.3 32.3 93.3 32.1 102.95 31.95 112.05 36.6 118.65 41.25 125.25 49.8 128 50.35 128.15 50.35 128.75 50.3 129.35 49.7 129.35 48.2 129.35 46.75 128.9 44.95 133.3 46.35 138.9 47.7 144.3 51.15 147.8 54.05 150.8 58.35 152.45 63.65 154.45 69.1 153.3 68.7 151.65 68.55 149.25 68.55 148.9 68.85 148.8 69.2 148.7 69.25 149.05 69.5 149.75 69.65 151.55 70.05 153.4 71.5 155.25 73.15 157.35 76.7 159.55 79.35 161.2 82.45 162.15 84.65 162.85 88.55 163.55 93.65 159.55 101.85 157.3 105.05 156.65 108 156.75 110.85 156.85 114.1 157.65 122.1 159.65 128.95 164.9 135.75 170.15 139.8 177.4 146.55 189.55 143.8 203.35 144.55 209.55 152.55 213.35 159.85 216.85 165.8 215.7 172 214.5 175.85 210.1 178.4 207.2 181.75 200.1 182 199.55 182.55 199.8 183.1 200.05 183 200.6 182.65 203.15 181.7 205.5 185.5 209.25 192.45 207.2 197.4 205.75 199.25 203.75 200.8 202.2 200.95 199.7 200.85 196.7 200.8 195.15 200.75 194.65 201.25 194.55 201.75 194.5 202 194.9 203.35 197.45 203.1 199.95 207.35 200.7 212.45 198.55 217.5 196.45 219.85 192.95 223.1 188.05 223.15 182.55 223.2 177.15 220.25 172.1 217.55 174.6 214.1 175.65 208.25 177.45 202.55 176.8 196.4 176.05 191.9 172.4 187.3 168.7 184.8 163.5 181.9 157.4 183.65 152.35 185.75 146.1 191.75 143.1 197.75 140.1 203.95 142.2 211.6 144.75 214.15 149.15 216.35 152.8 214.6 156.9 213.05 160.55 209.4 162.55 205.7 164.6 202.75 163.2 202.5 163.1 202.7 162.75 202.9 162.45 203.15 162.6 205.05 163.75 207.65 162.7 210.1 161.75 211.95 159.35 216.5 153.45 212.15 148.9 207.8 144.4 201.3 143.4 194.4 142.35 189.9 146.2 185.05 150.3 184.85 155.75 184.6 160.65 188.05 165.45 191.3 170.05 196.5 172.75 201.9 175.6 207.1 175.15 217.15 174.35 222.55 166.05 227.25 158.85 227.4 148.05 227.5 142.9 225.65 138.25 223.75 133.35 220.1 129.95 216.5 126.55 211.85 124.9 208.9 123.8 202.4 122.65 202.05 122.6 202.1 122.25 202.15 121.85 202.5 121.85 209.35 121.7 214.95 124.65 220.15 127.35 223.65 132.4 225.7 134.05 229.8 134.45 233.1 134.75 236.05 134.25 244.5 132.85 247.65 129.25 252.3 124.05 252.35 115.55 252.4 107 247.65 101.85 236.9 94.85 234.5 83.55 231.9 71.2 242 62.5 248.75 56.7 255.8 55.45 263.6 54.1 270.6 58.75 278.85 64.3 279.7 70.35 280.2 73.95 278.75 77.55 277.8 80 275.1 84 274.75 84.5 274.1 84.25 273.9 84.25 273.8 84.05 273.5 83.75 273.65 83.3 273.5 80.9 272.5 78.85 271.35 76.55 269.5 75.35 265.7 72.9 263 75.95 260.6 78.75 261 82.95 261.4 86.85 264.55 89.2 267.85 91.7 271.65 90.3 273.7 89.5 276.05 87.35 279.35 84.25 280 83.8 280.2 83.65 280.35 83.85 280.55 84.05 280.4 84.25 278.2 88.3 274.65 90.35 270.75 92.55 266.55 91.6 262.65 90.75 260.75 87.1 258.95 83.7 259.75 79.7 260.45 76.2 262.85 74.15 265.6 71.75 268.8 73.4 271.15 74.6 272.75 76.75 274.45 79 274.75 81.55 277.75 76.65 278.1 72.8 278.55 67.95 275 64 270.75 59.25 265.25 57.2 257.3 54.25 248.25 58.95 239.4 63.55 236.3 71.7 233.5 79.1 236.25 86.85 238.9 94.25 245.5 99.05 252.7 104.35 261.25 104.95 270.1 105.55 277.6 100.85 289.2 93.55 293.05 75.2 294.85 66.75 294.25 59.5 293.6 50.8 289.55 44.65 285.45 38.3 278.8 34.3 272.45 30.5 264.6 29.35 Z"/>
</g>

<g id="fully_grown_0_Layer3_0_MEMBER_4_FILL">
<path fill="#36ABC6" stroke="none" d="
M 300.7 162.4
Q 304.25 156.85 301.35 152.2 298.95 148.2 292.85 146 287.15 157.15 275.55 161.45 283.75 164.5 288.55 171.25
L 288.75 171.1
Q 297.35 167.65 300.7 162.4 Z"/>
</g>

<g id="fully_grown_0_Layer3_0_MEMBER_5_FILL">
<path fill="#36ABC6" stroke="none" d="
M 224.8 134.15
Q 227.75 139.15 228.55 145.25 229.4 151.35 227.95 157.5 225.9 166.05 221.55 170.85 223.35 172.4 224.35 175.65 225.2 178.4 225.25 181.2 225.4 188 221.4 193.9 218.9 197.6 213.15 200.1 206.9 202.8 202.95 200.85 201.45 207.05 192.6 209.3 183.85 211.55 181.15 206.65 178.5 211.95 172.9 214.85 167.6 217.6 161.45 217.4 155.25 217.25 150.5 214.15 145.3 210.75 143.5 204.85 140.65 216.65 131.65 226.25 134.8 231.35 143.55 232.6 147.8 233.25 150.65 233.05 152.6 232.9 155.25 232 158.95 230.8 159.7 230.6 160.2 230.5 160.45 230.9 160.7 231.3 160.3 231.65 156.3 235 149.9 235.15 152.9 237.55 158.45 243.55 163.6 248.35 168.65 248.45 174.1 248.55 179.4 245.7 185.25 242.55 186.8 237.7 180.35 236.9 175.7 234.85 165.9 230.55 166.2 221.95 166.2 221.75 166.4 221.7 166.6 221.65 166.65 221.85 167.75 226.65 170.2 228.95 174 232.5 184.2 235.15 190.55 236.8 195.5 234.3 200.6 231.7 202.5 225.6 202.6 225.25 202.95 225.25 203.35 225.25 203.35 225.65 203.45 226.85 203.2 227.95 206 228.5 209.65 227.9 213.3 227.35 215.65 225.95 220.5 223.15 220.5 218.55 220.5 214.05 216 210.5 213.5 208.55 210.35 208.1 206.85 207.65 204.55 209.6 201.65 212 202.5 215.8 203.35 219.7 207.4 219.65 208.25 219.65 209.7 219.2 211.2 218.8 211.95 218.75 212.1 218.75 212.15 218.9 212.2 219.1 212.1 219.2 209.2 221.8 205 219.9 200.75 218 201.1 214 201.5 209.55 205.6 207.8 209.35 206.2 213.55 207.7 217.65 209.15 220 213.85 222.35 218.6 220.85 222.7 226.25 226.5 234.2 227.15 242.25 227.75 248.1 224.7 254.25 221.4 256.8 216.85 261.4 208.4 258.65 204.6 256 203.4 252.95 201.95 246.9 199.05 244.55 197.2 244.25 196.95 244.5 196.6 244.7 196.25 245.05 196.45 252.95 200.85 259.3 202.55 267.55 204.8 274.8 203.1 285.8 200.5 289.7 190.2 293.65 179.8 286.65 170.65 280.35 162.45 270.4 161.4 260 160.3 253.55 168.4 251.1 171.5 250.15 173.85 248.8 177.35 250.05 180.1 252.1 184.75 256.65 187.3 260.8 189.6 265.05 188.5 269.7 187.35 270.4 182.5 270.9 178.6 269.25 176.05 267.95 174 264.4 171.85 264.15 171.7 264.3 171.45 264.5 171.2 264.75 171.3 269.2 173.6 270.7 177.25 272.25 181.05 270.15 185.6 268.15 190.05 263.15 190.15 258.75 190.3 254.85 187.35 250.25 183.9 249.05 179.6 247.7 174.9 250.9 170.3 254.2 165.5 258.4 162.75 263.35 159.55 268.5 159.95 271.1 160.1 274.1 161
L 274.2 160.95
Q 283.15 157.7 288.95 149.35 294.6 141.3 295.25 131.55 295.9 122.2 292.35 114.5 289 107.35 281.35 100.25 272.8 107.55 261.3 106.65 255.6 106.2 250.4 103.5 254.25 109.4 253.85 117.45 253.45 125.85 248.55 130.2 242.55 135.55 232.95 135.9 231 135.95 228.95 135.55 226.5 135.1 224.8 134.15 Z"/>
</g>

<g id="fully_grown_0_Layer2_0_MEMBER_0_FILL">
<path fill="#42C6EA" stroke="none" d="
M 48.95 190.05
Q 48.95 185.55 49.8 181.5 49.85 181.15 49.55 181.1 49.2 181 49.1 181.3 44.85 190.75 47.95 201.35
L 48.7 200.2
Q 48.25 198.6 48.05 196.5 47.65 192.35 48.95 190.05 Z"/>
</g>

<g id="fully_grown_0_Layer2_0_MEMBER_1_FILL">
<path fill="#75E1F9" stroke="none" d="
M 198.55 26.25
Q 199.2 25.85 198.9 25.25 196.75 23.35 195.1 22.1
L 197.55 26.05
Q 197.95 26.6 198.55 26.25 Z"/>
</g>

<g id="fully_grown_0_Layer2_0_MEMBER_2_FILL">
<path fill="#42C6EA" stroke="none" d="
M 53.7 187.45
Q 50.3 187.45 48.95 190.05 48.9 201.35 54.5 211 60.1 220.75 70.25 226.7 83.1 234.2 95.4 236.4 110.75 239.2 121.25 232.6 131.4 226.3 137.65 215.3 133.05 221.25 126.75 225.7 119.3 230.9 111.45 232.45 99.75 234.7 85.05 227.5 71.95 221.1 64.45 211.7 60.05 206.2 58.9 195.35 58.45 191.1 57.7 189.65 56.6 187.45 53.7 187.45 Z"/>
</g>

<g id="fully_grown_0_Layer2_0_MEMBER_3_FILL">
<path fill="#42C6EA" stroke="none" d="
M 13.6 177.85
Q 13.55 178.75 13.7 179.75 15 186.45 21.15 188.85 26.4 190.85 33.35 189.2 33.55 189.15 33.65 189.35 33.7 189.55 33.55 189.65 28.5 192.6 23.65 191.65 23.1 193.05 23.6 196.6 24.05 199.5 25.55 201.9 27.1 204.4 29.5 205.85 33.7 208.35 39.85 208.3 47.05 208.2 48.65 203.6
L 47.95 201.35
Q 45 205.75 40.7 205.85 37.05 205.95 33.6 203.15 30.4 200.55 29.55 197.5 28.65 194.25 31.45 193.2 36.45 191.35 36.35 188.2 36.3 187.2 35.75 186.25
L 35.2 185.45
Q 16.85 188.2 13.6 177.85 Z"/>
</g>

<g id="fully_grown_0_Layer2_0_MEMBER_4_FILL">
<path fill="#42C6EA" stroke="none" d="
M 108.95 180.3
Q 113.85 178.75 118.55 181.25 127.05 185.85 125.55 196.75 124.95 201.4 122.35 205.3 119.65 209.35 115.75 211.15 107.2 215.15 97.35 213.75 114.6 218.65 123.25 209.6 126.85 205.85 128 200.35 129.15 195.1 127.7 189.7 124.8 178.75 114.95 177.3 105.4 175.85 99.2 184.2 96.35 188 96.6 192.45 96.85 196.4 99.4 199.8 101.9 203.1 105.55 204.5 109.4 205.95 112.95 204.7 119.25 202.45 117.05 199.15 116.25 198 114.95 197.55 113.65 197.1 113.45 197.95 113.15 199.35 110.85 199.75 111.1 199.85 111.1 200.2 111.1 200.5 110.8 200.6 106.25 202.15 103.25 196.45 100.45 191.05 102 186.9 103.9 181.95 108.95 180.3 Z"/>
</g>

<g id="fully_grown_0_Layer2_0_MEMBER_5_FILL">
<path fill="#42C6EA" stroke="none" d="
M 10 123.1
Q 15.85 115.35 28.7 121.95 22.75 116.15 20.65 108.25 15.25 107.6 10.5 110.9 6.15 113.95 3.6 119.45 1.1 124.9 1.45 130.6 1.8 136.75 5.5 141.15 5.75 128.7 10 123.1 Z"/>
</g>

<g id="fully_grown_0_Layer2_0_MEMBER_6_FILL">
<path fill="#42C6EA" stroke="none" d="
M 20.15 129.95
Q 17.25 130.65 15.7 133.1 14.05 135.7 15.4 138.3 17.5 142.2 20.6 142.95 22.25 143.3 23.6 142.1 23.7 142 25.5 139.75 25.7 139.5 26.05 139.6 26.8 137.6 24.95 135.45 23.75 134.05 25.55 133.9 27.35 133.75 29.6 135.1 35.95 138.95 31.95 146.95 30.4 149.95 28.45 151.6 31.7 150.55 33.55 148.1 35.6 145.45 35.6 141.75 35.6 139.35 33.65 136.45 30.4 131.6 26.1 130.4 22.6 129.4 20.15 129.95 Z"/>
</g>

<g id="fully_grown_0_Layer2_0_MEMBER_7_FILL">
<path fill="#466470" stroke="none" d="
M 211.4 229.15
Q 206 230.15 203.05 228.7 201.9 233.25 197.2 235.8
L 191.7 243.75
Q 196.3 242.3 197.95 245.7 198.85 247.6 196.25 250.9 195.35 252 189.25 258.25 177.05 270.8 173.2 282.45 168.2 297.5 170.15 313.15 172.25 330.75 182.65 338.45 181 336.6 180.15 334.35 177.1 326.65 176.95 314.95 176.9 310.15 177.85 295.05 178.45 285.85 181.3 278.2 184.15 270.45 189.75 263.2 197.3 253.4 201.65 246.85 207.55 237.85 211.4 229.15 Z"/>
</g>

<g id="fully_grown_0_Layer2_0_MEMBER_8_FILL">
<path fill="#BBE7FF" stroke="none" d="
M 144.45 332.95
Q 137.85 330.4 131.75 331.5 124.15 332.85 119.7 335.5 114.05 338.9 112.3 339.75 111 342 112.05 343.7 113.15 345.55 116.3 345.05 119.65 344.5 126.25 340.1 133.2 335.4 135.7 334.7 139.3 333.65 147.55 334.05
L 144.45 332.95 Z"/>
</g>

<g id="fully_grown_0_Layer2_0_MEMBER_9_FILL">
<path fill="#76B3CE" stroke="none" d="
M 211.1 345.2
Q 210.7 345.25 210.6 344.95 207.15 336.8 198.1 333.4 190.9 330.65 180.5 331 181.05 332.65 181.5 333.6 185.1 335.95 191.05 334.3 196.3 332.9 200.15 336.1 203.85 339.15 202.3 342.2 201.65 343.55 204.3 344.75 206.75 345.9 210.25 346.3 213.9 346.7 215.85 346 218.1 345.15 216.8 343.05 215.4 340.75 213.45 339.65 211.2 339.3 209.7 339.35 211.6 341.9 211.45 344.8 211.45 345.15 211.1 345.2 Z"/>
</g>

<g id="fully_grown_0_Layer2_0_MEMBER_10_FILL">
<path fill="#76B3CE" stroke="none" d="
M 124.8 344.6
Q 127.1 343.95 129.25 344.35 133.7 345.1 133.95 350.35 134.15 355.6 129.3 355.55 128.65 355.55 128.75 354.9 127.3 355.7 129.1 356.8 130.95 357.85 133.05 357.05 136.1 355.9 136.9 352.95 137.8 349.5 134.7 345.7 131.35 341.55 124.8 344.6 Z"/>
</g>

<g id="fully_grown_0_Layer2_0_MEMBER_11_FILL">
<path fill="#76B3CE" stroke="none" d="
M 186.65 365.5
Q 192.25 368.25 196.65 368.95 202.45 369.85 206.5 369.45 212 368.95 215.6 366.15 217.7 364.55 219 362.5 215.1 366.65 203.95 367.45 194.6 368.05 186.3 363.05 181.45 360.1 178.1 356.1 178.25 358.05 177.25 360.45 180.4 362.05 186.65 365.5 Z"/>
</g>

<g id="fully_grown_0_Layer2_0_MEMBER_12_FILL">
<path fill="#76B3CE" stroke="none" d="
M 170.25 358.9
Q 172.3 357.75 171.95 356.3 171.05 352.75 168.2 354.2 166.9 354.8 167.05 353.8 167.25 352.85 168.45 351.65 164.8 353.55 165.05 357.2 165.35 360.9 169.9 358.8 170.1 358.75 170.25 358.9 Z"/>
</g>

<g id="fully_grown_0_Layer2_0_MEMBER_13_FILL">
<path fill="#76B3CE" stroke="none" d="
M 195.3 353.95
Q 196.7 356.85 200.25 358 203.7 359.15 206.7 357.8 208.3 357.05 209.1 355.8 210.05 354.2 208.35 353 207.3 352.2 205.85 351.95 203.75 351.7 202.5 353.05 201.25 354.4 203.2 355.1 202.6 354.4 203.25 353.75 203.95 353 205.7 352.8 206.7 352.65 207.4 353.65 208.05 354.6 207.8 355.7 207.05 358.6 201.45 356.95 197.45 355.75 197.15 353.35 196.9 351.65 198.4 349.6 194.65 351.15 195.3 353.95 Z"/>
</g>

<g id="fully_grown_0_Layer2_0_MEMBER_14_FILL">
<path fill="#97D3FC" stroke="none" d="
M 135.7 334.7
Q 133.2 335.4 126.25 340.1 119.65 344.5 116.3 345.05 113.15 345.55 112.05 343.7 111 342 112.3 339.75
L 110.35 340.55
Q 110.15 340.6 110.05 340.4 106.85 341.7 101 342.15 93.6 342.75 90.45 343.45 86.9 344.2 86 347.1 85.3 349.25 86.15 352.4 87.35 354.05 89.5 354.95 93.7 356.75 98.5 355.25 100.95 354.1 102.55 352.2 104.55 349.7 106.7 351.45 108.8 353.2 107.05 355.45 106.35 356.35 107.25 356.9 108.15 357.45 109.9 357.4 114.35 357.25 116.8 354.05 117.35 350.7 119.5 348.1 121.7 345.45 124.8 344.6 131.35 341.55 134.7 345.7 137.8 349.5 136.9 352.95 136.1 355.9 133.05 357.05 130.95 357.85 129.1 356.8 127.3 355.7 128.75 354.9 128.75 354.25 129.4 354.3 131.7 354.5 132.55 352.55 133.25 350.7 132.4 348.4 131.55 346 129.55 345.05 127.25 344 124.45 345.65 122.3 346.9 120.7 348.8 118.85 350.9 118.45 353.1 117.6 357.5 121.4 361.65 125.55 364.75 129.75 366.15 135.65 368.05 140.95 366.2 147.5 363.85 152.45 357.5 155.05 354.15 155.4 353.75 156.85 352.3 158.3 352.55 161.35 353.05 161.3 355.05 161.25 356.6 159.3 359.3 157.55 361.75 159 363.95 160.5 366.2 164.3 365.95 166.95 365.75 169.6 364.95 172.55 364.05 174.45 362.7 175 362 175.2 361.55 177 358.15 176.1 354.65 175.05 350.7 170.95 350.95 169.65 351 168.45 351.65 167.25 352.85 167.05 353.8 166.9 354.8 168.2 354.2 171.05 352.75 171.95 356.3 172.3 357.75 170.25 358.9 170.45 359.2 170.15 359.35 167.3 360.8 165.1 359.05 162.9 357.3 163.7 354.2 164.7 350.35 169.55 350.1 174.1 349.85 176.6 352.45 178 354 178.1 356.1 181.45 360.1 186.3 363.05 194.6 368.05 203.95 367.45 215.1 366.65 219 362.5 221.5 358.5 218.75 355.05 215.35 350.75 209.7 349.2 205.85 348.05 203.05 348.5 200.2 348.9 198.4 349.6 196.9 351.65 197.15 353.35 197.45 355.75 201.45 356.95 207.05 358.6 207.8 355.7 208.05 354.6 207.4 353.65 206.7 352.65 205.7 352.8 203.95 353 203.25 353.75 202.6 354.4 203.2 355.1 203.65 355.3 204.1 355.35 204.35 355.3 204.4 355.55 204.5 355.8 204.25 355.85 202.35 356.5 201.5 354.7 200.65 352.85 202.05 351.55 203.95 349.85 207.65 351.1 211.5 352.35 211.05 355.1 210.55 358.15 207.75 359.35 205.2 360.45 201.85 359.65 198.5 358.9 196.3 356.7 193.85 354.3 194.05 351.2 194.25 348.15 202.95 347.25 207.2 346.8 212.05 348.5 217.4 350.35 219.9 353.7 222.5 352.95 223.85 351.15 225.45 349.05 224.45 346.6 223.2 343.5 220.6 342.2 216.8 340.35 213.45 339.65 215.4 340.75 216.8 343.05 218.1 345.15 215.85 346 213.9 346.7 210.25 346.3 206.75 345.9 204.3 344.75 201.65 343.55 202.3 342.2 203.85 339.15 200.15 336.1 196.3 332.9 191.05 334.3 185.1 335.95 181.5 333.6
L 181.6 333.85
Q 182.95 336.6 185.6 339.05 188.7 341.9 191.35 341.95 193.55 341.95 194.4 340.4 195.05 339.2 194.7 338.3 193.95 336.15 191.2 336.2 190.15 336.25 186.8 337.1 186.7 337.15 186.7 337.05 186.65 336.95 186.7 336.9 187.9 336 189.65 335.6 191.35 335.2 192.85 335.5 194.05 335.7 195 336.65 196.1 337.65 195.95 338.8 195.7 341.3 193.45 342.35 191.55 344.1 187.6 344.7 183.15 345.35 173.45 345.05 162.85 344.7 159.55 342.35 156.55 340.2 161.3 338.7 165.15 337.5 163.85 335.45 162.5 333.4 160.2 334.2 158.4 334.75 154.45 334.35
L 154.25 334.5 154 334.55
Q 151.25 335.2 147.55 334.05 139.3 333.65 135.7 334.7
M 92.3 346.7
Q 93.05 347.15 92.55 348.8 92.2 349.8 95.45 349.3 99.6 348.7 100.1 350.8 100.55 352.85 97.2 353.95 93.7 355.05 90.85 353.8 87.7 352.4 87.7 348.8 87.7 345.6 90 345.85 91.15 345.95 92.3 346.7
M 126.8 354.05
Q 122.85 355.45 124.7 358.45 126.05 360.65 129.45 362.7 127 362.25 124.6 360.85 119.85 358.05 120.3 353.2 120.8 348.15 124.7 347.05 127.9 346.1 129.45 347.55 133.75 351.6 126.8 354.05 Z"/>
</g>

<g id="fully_grown_0_Layer2_0_MEMBER_15_FILL">
<path fill="#76B3CE" stroke="none" d="
M 155.4 353.75
Q 155.05 354.15 152.45 357.5 147.5 363.85 140.95 366.2 135.65 368.05 129.75 366.15 125.55 364.75 121.4 361.65 124.45 364.9 129.6 367.2 139.45 371.3 147.3 367.65 151.4 365.75 154.6 361.75 158 356.85 160.05 354.2 160.15 354.1 160.25 354.15 160.35 354.2 160.3 354.3 158.1 360.4 153.7 364.7 157.5 368 164.3 367.4 171.3 366.85 174.45 362.7 172.55 364.05 169.6 364.95 166.95 365.75 164.3 365.95 160.5 366.2 159 363.95 157.55 361.75 159.3 359.3 161.25 356.6 161.3 355.05 161.35 353.05 158.3 352.55 156.85 352.3 155.4 353.75 Z"/>
</g>

<g id="fully_grown_0_Layer2_0_MEMBER_16_FILL">
<path fill="#466470" stroke="none" d="
M 127.4 244.5
Q 127.1 232.65 133.7 238.2 137.45 241.35 139.55 245.15 140.35 246.6 142.1 251.2 143.35 254.4 144.9 255.9 147.1 258 151.45 258.95 156.55 260 162.1 259.55 167.1 259.1 171.75 257.45 171.6 255.4 172 250.35
L 171.3 250.45
Q 164.25 250.8 160.25 247.6 155.45 243.9 151.3 239.25 151.6 243.9 150.8 246.25 149.6 249.65 146.25 247.25 143.35 245.2 140.2 240.55 137.4 236.6 130.6 227.35
L 128.1 229.7
Q 124.1 233.3 119.45 235.4
L 127.4 244.5 Z"/>
</g>

<g id="fully_grown_0_Layer2_0_MEMBER_17_FILL">
<path fill="#76B3CE" stroke="none" d="
M 116.65 355.35
L 116.8 354.05
Q 114.35 357.25 109.9 357.4 108.15 357.45 107.25 356.9 106.35 356.35 107.05 355.45 108.8 353.2 106.7 351.45 104.55 349.7 102.55 352.2 100.95 354.1 98.5 355.25 99.95 354.85 104.15 353 104.55 352.8 104.75 353.2 104.95 353.6 104.55 353.85
L 102.6 354.95
Q 101.9 356.8 105.05 358 107.7 358.9 109.75 358.75 112.6 358.45 116.7 356.65
L 116.65 355.35 Z"/>
</g>

<g id="fully_grown_0_Layer2_0_MEMBER_18_FILL">
<path fill="#BBE7FF" stroke="none" d="
M 143.85 326
Q 135.8 320.7 124.05 324.85 112.75 328.85 108 337.7 110.1 337.1 112.2 336.05 112.3 336.8 109.75 337.9 104.6 340.15 92.75 341.45 90.25 341.7 87.85 343.4 85.1 345.3 84.85 347.7 84.55 350.3 86.15 352.4 85.3 349.25 86 347.1 86.9 344.2 90.45 343.45 93.6 342.75 101 342.15 106.85 341.7 110.05 340.4 110.05 340.15 110.15 340.1 111.75 339.2 115.75 336.15 119.2 333.55 121.55 332.6 128.6 329.85 133.1 329.55 138.35 329.2 143.45 330.85
L 143.85 329.4 143.75 328.9
Q 143.9 327.5 143.9 326.05
L 143.85 326 Z"/>
</g>

<g id="fully_grown_0_Layer2_0_MEMBER_19_FILL">
<path fill="#1C94AB" stroke="none" d="
M 293.1 145.5
Q 296.2 145.9 299.1 148 299.65 145.8 299.75 145.15 299.95 143.6 299.6 142.15 298.9 139.1 297.75 137.85 296.75 136.75 296.35 136.1 295.3 141.1 293.1 145.5 Z"/>
</g>

<g id="fully_grown_0_Layer2_0_MEMBER_20_FILL">
<path fill="#75E1F9" stroke="none" d="
M 159.1 24.45
Q 151.3 11.4 139.05 5.3 125.45 -1.55 111.95 3.65 104.3 6.6 98.25 12.05 91.95 17.75 88.7 24.95 83.6 36.4 84.85 52.05 84.9 52.3 84.6 52.35 84.3 52.4 84.25 52.1 82.8 41.45 85.3 31.45 74.1 35.6 66.45 45.1 58.8 54.6 57.15 66.5 55.25 80.55 63.6 92.1 68.05 98.3 73.55 101.5 80.2 105.35 86.7 103.55 92.85 101.85 97.3 97.55 102.15 92.85 102.85 86.9 103.5 80.6 100.65 74.4 97.6 67.85 92.1 65 85.45 61.5 80.7 63.8 76.1 66.05 73.3 71.1 70.25 76.55 71.95 81.2 73.45 85.3 77.75 87.05 82.3 88.85 85.9 86.25 89.4 83.75 88.15 79.6 87.85 78.65 84.75 73.05 84.65 72.85 84.9 72.65 85.1 72.5 85.3 72.7 85.9 73.4 86.3 74.05 85.5 69.95 89.95 72.95 95.4 76.6 96.3 84.2 97.3 92.75 88.95 95.45 84.65 96.85 80 95.7 75.4 94.6 72.3 91.5 64.7 84 71.05 73.25 73.2 66.85 78.25 63.75 83.65 60.4 90.05 62.5 93.3 63.6 96 66 102.9 66.95 105.7 58.45 106.95 54.65 107.95 47 108.95 39.15 109.9 36.05 113.35 24.65 127.2 25.45 135.3 25.9 143 30 150.3 33.85 154.8 39.55 159.4 45.4 159.25 50.95 159.05 57 152.95 60.95 143.65 66.95 136.55 65.95 130.4 65.1 127.95 59.75 128.95 65.3 132.85 68.25 138.55 72.65 146.55 72.55 154.55 72.45 160.15 67.8 169.2 60.35 167.45 46.7 166.15 36.2 159.1 24.45 Z"/>
</g>

<g id="fully_grown_0_Layer2_0_MEMBER_21_FILL">
<path fill="#36ABC6" stroke="none" d="
M 178.3 10.4
Q 169 8.3 163.7 9.7 160.8 10.45 158.7 11.9 156.8 13.2 154.8 15.55 158.95 20.3 161.85 25.9 169.4 40.45 168.95 52.95 168.4 69.1 153.1 73.05 146.55 74.75 140.15 73.4 132.8 71.8 129.45 66.6 129.75 72.55 132.5 77 137.1 84.4 147.2 84.7 154.05 84.9 161.15 81.8 168.1 78.8 173.3 73.6 185.3 61.6 180.45 48.45 177.95 41.75 177.2 34.95 176.35 27.75 177.75 23.15 181.25 11.75 195.1 22.1 192.45 17.8 190.3 15.9 187.95 13.75 184.7 12.35 182.15 11.25 178.3 10.4 Z"/>
</g>

<g id="fully_grown_0_Layer2_0_MEMBER_22_FILL">
<path fill="#75E1F9" stroke="none" d="
M 206.65 11.5
Q 216.75 7.55 227.45 16.2
L 229.25 18.05
Q 231.25 20.5 232.45 23.55 231.4 17.6 228.4 13 225.05 8 220.05 5.9 210 1.65 202.55 4.8 192.75 8.8 190.05 13.2
L 190.05 13.25 190.3 13.4
Q 193.25 15.6 196 20 200.55 13.85 206.65 11.5 Z"/>
</g>

<g id="fully_grown_0_Layer2_0_MEMBER_23_FILL">
<path fill="#75E1F9" stroke="none" d="
M 201.3 143.4
Q 194.4 142.35 189.9 146.2 185.05 150.3 184.85 155.75 184.6 160.65 188.05 165.45 191.3 170.05 196.5 172.75 201.9 175.6 207.1 175.15 209.5 175 211.7 174.3 205.05 174.45 201.5 169.9 199.15 166.9 198.45 162.45 197.8 158.7 202.8 162.65 202.95 162.5 203.15 162.6 205.05 163.75 207.65 162.7 210.1 161.75 211.95 159.35 216.5 153.45 212.15 148.9 207.8 144.4 201.3 143.4 Z"/>
</g>

<g id="fully_grown_0_Layer2_0_MEMBER_24_FILL">
<path fill="#75E1F9" stroke="none" d="
M 259.45 28.65
Q 274.5 34.6 282.95 47.95 289.7 58.65 287.2 69.55 285.35 77.4 278.95 84.6
L 280 83.8
Q 280.2 83.65 280.35 83.85 280.55 84.05 280.4 84.25 278.2 88.3 274.65 90.35 270.75 92.55 266.55 91.6 262.65 90.75 260.75 87.1 258.95 83.7 259.75 79.7 260.45 76.2 262.85 74.15 265.6 71.75 268.8 73.4 271.15 74.6 272.75 76.75 274.45 79 274.75 81.55 277.75 76.65 278.1 72.8 278.55 67.95 275 64 270.75 59.25 265.25 57.2 257.3 54.25 248.25 58.95 239.4 63.55 236.3 71.7 233.5 79.1 236.25 86.85 238.9 94.25 245.5 99.05 252.7 104.35 261.25 104.95 270.1 105.55 277.6 100.85 289.2 93.55 293.05 75.2 294.85 66.75 294.25 59.5 293.6 50.8 289.55 44.65 285.45 38.3 278.8 34.3 272.45 30.5 264.6 29.35
L 259.45 28.65 Z"/>
</g>

<g id="fully_grown_0_Layer2_0_MEMBER_25_FILL">
<path fill="#75E1F9" stroke="none" d="
M 221.7 32.25
Q 222.55 28.8 218.85 26.5 214.8 24 212.15 24.35 206.35 25.1 204.35 30.7 202.4 36.3 206.45 40.6 212.65 47.2 221.2 45.3 229.65 43.4 232.15 35.1 230.55 38.05 228.1 40 225.3 42.25 221.95 42.7 218.5 43.15 218.25 41.55 218 40.35 219.45 38.3
L 218.3 38.95
Q 217.85 39.15 217.6 38.75 217.35 38.35 217.7 38 221.05 34.95 221.7 32.25 Z"/>
</g>

<g id="fully_grown_0_Layer2_0_MEMBER_26_FILL">
<path fill="#1C94AB" stroke="none" d="
M 300.7 162.4
Q 304.25 156.85 301.35 152.2 298.95 148.2 292.85 146 287.15 157.15 275.55 161.45 283.75 164.5 288.55 171.25
L 288.75 171.1
Q 297.35 167.65 300.7 162.4 Z"/>
</g>

<g id="fully_grown_0_Layer2_0_MEMBER_27_FILL">
<path fill="#42C6EA" stroke="none" d="
M 267.45 169.9
Q 269.05 168.65 273.7 170.2 280.7 172.5 285.7 179.25 291.8 187.45 287.2 194.9 291 189.55 291 183.15 291 176.3 286.65 170.65 280.35 162.45 270.4 161.4 260 160.3 253.55 168.4 251.1 171.5 250.15 173.85 248.8 177.35 250.05 180.1 252.1 184.75 256.65 187.3 260.8 189.6 265.05 188.5 269.7 187.35 270.4 182.5 270.9 178.6 269.25 176.05 267.95 174 264.4 171.85 264.15 171.7 264.3 171.45 264.5 171.2 264.75 171.3
L 266.75 172.5
Q 266.45 170.7 267.45 169.9 Z"/>
</g>

<g id="fully_grown_0_Layer2_0_MEMBER_28_FILL">
<path fill="#BBE7FF" stroke="none" d="
M 124.7 358.45
Q 122.85 355.45 126.8 354.05 133.75 351.6 129.45 347.55 127.9 346.1 124.7 347.05 120.8 348.15 120.3 353.2 119.85 358.05 124.6 360.85 127 362.25 129.45 362.7 126.05 360.65 124.7 358.45 Z"/>
</g>

<g id="fully_grown_0_Layer2_0_MEMBER_29_FILL">
<path fill="#BBE7FF" stroke="none" d="
M 100.1 350.8
Q 99.6 348.7 95.45 349.3 92.2 349.8 92.55 348.8 93.05 347.15 92.3 346.7 91.15 345.95 90 345.85 87.7 345.6 87.7 348.8 87.7 352.4 90.85 353.8 93.7 355.05 97.2 353.95 100.55 352.85 100.1 350.8 Z"/>
</g>

<g id="fully_grown_0_Layer2_0_MEMBER_30_FILL">
<path fill="#628896" stroke="none" d="
M 146.45 266.4
Q 149.5 273.2 150.2 280.2 150.6 284.3 149.35 299.85 148.1 314.7 149.2 322.45 150.45 331.2 155.6 332.2 158.15 332.7 160.45 331.45 155.05 328.2 157.65 322 162.6 313.2 164.95 306.7 168.25 297.65 165.85 292.55 164.95 290.65 163.95 291.5 162.8 292.4 162.45 296.2 161.7 304.3 159.05 303.95 156.4 303.6 156.2 295.2 156.15 292.15 156.7 288.15 157.3 284.1 157.25 282.35 157.15 275.95 150.45 265.95 143.45 255.5 139.9 253.85 138.65 253.25 138.8 254.3 138.95 255.4 140.45 256.95 143.8 260.5 146.45 266.4 Z"/>
</g>

<g id="fully_grown_0_Layer2_0_MEMBER_31_FILL">
<path fill="#75E1F9" stroke="none" d="
M 50.3 88.4
Q 45.35 89.3 41.7 95.95 35.15 108 43.15 117.8 47.15 122.7 52.45 125.2 39.55 116.3 42.6 104.75 43.65 100.75 45.8 99.3 47.95 97.85 47.95 100.95 47.95 107.05 53.2 108.3 58.35 109.55 62.95 104.95 65.15 102.75 63.65 98.3 62.2 94 58.5 91 54.45 87.65 50.3 88.4 Z"/>
</g>

<g id="fully_grown_0_Layer2_0_MEMBER_32_FILL">
<path fill="#42C6EA" stroke="none" d="
M 97.4 163.3
Q 92.3 166.05 88.35 169.6 75.8 180.9 79.7 195.45 83.8 210.6 100.75 210.9 106.9 211.05 112.45 209.05 117.6 207.2 118.2 205.2 114.1 207.1 108.9 208 98.6 209.8 93.45 204.95 90.35 202 88.9 196.7 87.45 191.3 88.2 185.15 89.95 170.5 101.7 161.2
L 97.4 163.3 Z"/>
</g>

<g id="fully_grown_0_Layer2_0_MEMBER_33_FILL">
<path fill="#75E1F9" stroke="none" d="
M 229.4 100.35
Q 237.2 101.05 242.15 105.15 247.4 109.5 246.7 115.7 245.45 126.5 238.45 126.3 236.25 126.25 233.75 125.1
L 231.7 123.95
Q 241.1 122.4 238.35 116.9 237.45 115.15 235.5 113.25
L 233.7 111.7
Q 229.45 109.15 224.2 109.9 219.2 110.6 216.6 113.65 213.8 117 215.8 121.15 218.15 126 226.7 130.45 235.3 134.95 242 131.75 247.9 128.9 249.95 121.55 252 114.3 248.9 107.55 245.5 100.1 237.2 97.45 222.5 92.75 211.15 103.15 207.6 106.4 204.8 110.75
L 204.55 111.15
Q 208.15859375 105.8263671875 214.3 102.95 221.3 99.6 229.4 100.35 Z"/>
</g>

<g id="fully_grown_0_Layer2_0_MEMBER_34_FILL">
<path fill="#75E1F9" stroke="none" d="
M 173.7 191.45
Q 171.5 191.6 167.85 195.6 162.2 201.85 161.5 202.45 157.7 205.8 154.5 204.8 150.5 203.55 146.7 195.45
L 146.9 197.95
Q 147.35 200.95 148.7 203.5 152.95 211.65 164.2 211.95 170.45 212.15 174.35 208.9 177.6 206.15 178.5 201.7 179.35 197.7 177.9 194.5 176.45 191.25 173.7 191.45 Z"/>
</g>

<g id="fully_grown_0_Layer2_0_MEMBER_35_FILL">
<path fill="#42C6EA" stroke="none" d="
M 292.4 133.5
Q 292.75 126.65 288.5 120.25 284.5 114.25 278.75 111.65 272.7 108.95 268.35 111.75 264 114.55 261.85 119.05 259.8 123.3 260.45 127.5 261.1 131.8 264.4 134.2 268.05 136.9 274 136.45 280 135.95 281.1 139.9 282.1 143.65 278.05 147.6 273.6 151.95 266.1 152.55 257 153.25 246.35 147.75
L 249.75 150.15
Q 254.1 152.8 258.75 154.1 273.5 158.25 285.35 147.45 292 141.35 292.4 133.5 Z"/>
</g>

<g id="fully_grown_0_Layer2_0_MEMBER_36_FILL">
<path fill="#75E1F9" stroke="none" d="
M 143.15 125.25
Q 147.85 133 144.95 139.95 142.35 146.1 137 146.75 131.45 147.45 130.2 140.45 128.95 133.6 123.95 129.85 119.55 126.6 113.7 126.7 108.05 126.8 104.2 129.9 100 133.25 100.2 138.45 100.4 143.85 106.65 149.5 112.85 155.1 121.1 157.45 130.15 160.05 137.2 157.15 145.4 153.75 148.7 143.45 154.65 125 138.25 114.65 133.15 111.4 126.4 109.35
L 120.7 107.95
Q 137.25 115.65 143.15 125.25 Z"/>
</g>

<g id="fully_grown_0_Layer2_0_MEMBER_37_FILL">
<path fill="#1C94AB" stroke="none" d="
M 141.35 219
Q 140.45 216 141 212.3
L 141.7 209.2 140.1 212.4
Q 138.35 215.9 137.7 217.45 136.7 219.95 130.7 225.7 130.4 229.15 139.65 232.25 144.25 233.85 148.95 234.7 150.95 238.7 155 242.65 162 249.55 170.2 249.7 178.35 249.85 184.1 243.4 185.85 241.4 187.2 239
L 188.2 236.95 179.7 235.45
Q 179.25 239.8 175.65 241.3 172.65 242.6 168.45 241.6 164.55 240.7 162.55 238.6 160.4 236.3 162.45 234.45 166.05 231.15 163.75 229.1
L 160.7 227.7
Q 144.3 228.65 141.35 219 Z"/>
</g>

<g id="fully_grown_0_Layer2_0_MEMBER_38_FILL">
<path fill="#1C94AB" stroke="none" d="
M 248.45 225.7
Q 258.6 219.3 260.05 210.85 260.5 208.25 260 205.7
L 259.45 203.7 252.7 201.2
Q 256.05 204.65 254.5 208.35 253.05 211.7 248.45 213.9 243.85 216.1 238.85 215.85 233.3 215.55 229.95 212.2 224 206.25 216.15 206.25 213.7 206.25 211.3 206.85
L 209.45 207.45
Q 219.3 209.15 220.75 216 221.45 219.4 220.2 222.45 226.45 228.7 238.1 227.85 243.9 227.4 248.45 225.7 Z"/>
</g>

<g id="fully_grown_0_Layer1_0_MEMBER_0_FILL">
<path fill="#1E4759" stroke="none" d="
M 144.2 325.5
Q 136.15 318.95 123.45 323.9 111.4 328.55 106.75 338.05 104.7 338.55 98.65 339.4 93.5 340.1 90.55 341.1 87.7 342.05 85.9 344 84 346.05 83.7 348.9 83.45 351.35 85.75 353.55 87.45 355.2 90.15 356.35 94.95 358.45 101.5 355.45 101.15 357.5 104.45 359.3 107.2 360.8 110.8 360.3 113.5 359.9 117.1 358.3 118.7 363.25 125.85 367 131.85 370.15 137.4 370.65 146.15 371.35 152.95 365.4
L 153 365.5
Q 156.5 368.55 162.7 368.5 168.4 368.45 172.7 366 175.2 364.6 176.9 361.25 179.15 362.5 183.5 365.15 187.45 367.5 190.3 368.55 198.9 371.75 208 370.75 213.8 370.15 218.1 366.15 222.9 361.7 221.25 356.25 221.05 355.55 220.55 354.7 227.95 351.05 224.75 344.75 223 341.35 217.95 339.75 213.6 338.3 209.2 338.75 206.3 335.3 199 332.1 194.5 330.1 189.25 329.65 183.85 329.2 179.25 330.5 179 330.55 179.05 330.8 179.1 331.05 179.35 331.05 190.1 330.5 197.55 333.2 207.05 336.55 210.6 344.95 210.7 345.25 211.1 345.2 211.45 345.15 211.45 344.8 211.6 341.9 209.7 339.35 214.4 339.25 220.6 342.2 223.2 343.5 224.45 346.6 225.45 349.05 223.85 351.15 222.5 352.95 219.9 353.7 217.4 350.35 212.05 348.5 207.2 346.8 202.95 347.25 194.25 348.15 194.05 351.2 193.85 354.3 196.3 356.7 198.5 358.9 201.85 359.65 205.2 360.45 207.75 359.35 210.55 358.15 211.05 355.1 211.5 352.35 207.65 351.1 203.95 349.85 202.05 351.55 200.65 352.85 201.5 354.7 202.35 356.5 204.25 355.85 204.5 355.8 204.4 355.55 204.35 355.3 204.1 355.35 201.15 354.9 202.3 353.25 203.45 351.65 205.85 351.95 207.3 352.2 208.35 353 210.05 354.2 209.1 355.8 208.3 357.05 206.7 357.8 203.7 359.15 200.25 358 196.7 356.85 195.3 353.95 194.35 349.7 203.05 348.5 205.85 348.05 209.7 349.2 215.35 350.75 218.75 355.05 221 357.9 219.65 361.2 218.6 363.8 215.6 366.15 212 368.95 206.5 369.45 202.45 369.85 196.65 368.95 192.25 368.25 186.65 365.5 180.4 362.05 177.25 360.45 178.2 358.2 178.15 356.2 178.05 353.95 176.6 352.45 174.1 349.85 169.55 350.1 164.7 350.35 163.7 354.2 162.9 357.3 165.1 359.05 167.3 360.8 170.15 359.35 170.4 359.25 170.3 358.95 170.15 358.7 169.9 358.8 167.3 359.95 166 359.05 164.8 358.25 165.1 356.3 165.35 354.35 166.85 352.85 168.55 351.1 170.95 350.95 175.05 350.7 176.1 354.65 177 358.15 175.2 361.55 172.6 366.4 165.1 367.35 157.75 368.25 153.7 364.7 158.1 360.4 160.3 354.3 160.35 354.2 160.25 354.15 160.15 354.1 160.05 354.2 158 356.85 154.6 361.75 151.4 365.75 147.3 367.65 139.45 371.3 129.6 367.2 124.65 365.1 121.55 361.75 117.55 357.55 118.45 353.1 118.85 350.9 120.7 348.8 122.3 346.9 124.45 345.65 127.25 344 129.55 345.05 131.55 346 132.4 348.4 133.25 350.7 132.55 352.55 131.7 354.5 129.4 354.3 128.75 354.25 128.7 354.9 128.65 355.55 129.3 355.55 134.15 355.6 133.95 350.35 133.7 345.1 129.25 344.35 124.35 343.5 120.55 347 116.9 350.35 116.65 355.35
L 116.7 356.65
Q 112.6 358.45 109.75 358.75 107.7 358.9 105.05 358 101.9 356.8 102.6 354.95
L 104.55 353.85
Q 104.95 353.6 104.75 353.2 104.55 352.8 104.15 353 99.35 355.2 97.05 355.65 93.1 356.5 89.5 354.95 87.25 354 86 352.15 84.55 350.15 84.85 347.7 85.1 345.3 87.85 343.4 90.25 341.7 92.75 341.45 104.6 340.15 109.75 337.9 112.3 336.8 112.2 336.05 110.1 337.1 108 337.7 112.75 328.85 124.05 324.85 135.8 320.7 143.85 326 144.1 326.2 144.25 325.95 144.45 325.7 144.2 325.5 Z"/>
</g>

<g id="fully_grown_0_Layer1_0_MEMBER_1_FILL">
<path fill="#193335" stroke="none" d="
M 119 235.25
Q 118.85 235.35 118.95 235.55 123.45 243 134.6 256.9 143.6 269.65 144.1 280.9 144.75 295.25 143.95 304.05 143.55 308.35 143.8 316.5 144.05 324.85 143.75 328.9 143.7 329.8 144.6 329.8 145.55 329.8 145.6 328.95 145.9 324.45 145.35 316.55 145.1 313.35 145.35 309.4 145.45 307.55 145.95 302.25 147.05 289.55 145.7 277.4 144.5 266.85 135.6 254.7 134.95 253.75 119.35 235.25 119.2 235.1 119 235.25 Z"/>
</g>

<g id="fully_grown_0_Layer1_0_MEMBER_2_FILL">
<path fill="#193335" stroke="none" d="
M 130.55 226.2
Q 130.35 225.95 130.1 226.2 129.85 226.4 130.05 226.65 136.15 234.8 140.2 240.55 143.35 245.2 146.25 247.25 150.3 250.15 151.15 244.65 151.65 241.55 151.1 236.75 151 235.95 150.2 236.15 149.4 236.3 149.5 237.1 151 248.65 146.65 245.5 145.5 244.65 142.75 241.45 138.4 236.2 130.55 226.2 Z"/>
</g>

<g id="fully_grown_0_Layer1_0_MEMBER_3_FILL">
<path fill="#193335" stroke="none" d="
M 197.2 234.45
Q 196.15 234.6 195.7 235.25 189.4 244.4 181.8 253.45 177.9 258.05 175.3 260.1 173.65 261.4 173.3 259.3 173.2 258.8 173.2 255.65 173.25 252.7 172.75 248.6 172.7 248.35 172.4 248.35 172.1 248.4 172.1 248.65 171.75 257.8 171.85 258.45 172.6 264.5 177.4 260.4 182.4 256.2 188.35 248.35 190.05 246.1 197.75 235 198.2 234.35 197.2 234.45 Z"/>
</g>

<g id="fully_grown_0_Layer1_0_MEMBER_4_FILL">
<path fill="#193335" stroke="none" d="
M 212.35 228.05
Q 211.95 227.8 211.8 228.2 207.95 237.15 201.9 246.4 197.6 253 189.75 263.2 184.15 270.45 181.3 278.2 178.45 285.85 177.85 295.05 176.9 310.15 176.95 314.95 177.1 326.65 180.15 334.35 182.6 340.4 188.8 342.5 191.05 343.25 193.15 342.45 195.7 341.55 195.95 338.8 196.1 337.65 195 336.65 194.05 335.7 192.85 335.5 191.35 335.2 189.65 335.6 187.9 336 186.7 336.9 186.65 336.95 186.7 337.05 186.7 337.15 186.8 337.1 190.15 336.25 191.2 336.2 193.95 336.15 194.7 338.3 195.05 339.2 194.4 340.4 193.55 341.95 191.35 341.95 188.7 341.9 185.6 339.05 182.95 336.6 181.6 333.85 179.85 330.35 179.3 324.95 179.1 322.7 178.9 315.7 178.6 302.2 178.85 297.1 179.4 286.45 181.95 278.9 184.05 272.8 189.25 265.65 195.55 257.65 198.55 253.7 206.05 243.9 212.55 228.65 212.7 228.25 212.35 228.05 Z"/>
</g>

<g id="fully_grown_0_Layer1_0_MEMBER_5_FILL">
<path fill="#1E4759" stroke="none" d="
M 133.1 329.55
Q 128.6 329.85 121.55 332.6 119.2 333.55 115.75 336.15 111.75 339.2 110.15 340.1 109.95 340.2 110.05 340.4 110.15 340.65 110.35 340.55 112.55 339.7 115.15 338.25 118.15 336.45 119.7 335.5 124.15 332.85 131.75 331.5 137.85 330.4 144.45 332.95 147.55 334.15 149.3 334.5 152 335.05 154.25 334.5 154.5 334.4 154.5 334.2 154.5 333.9 154.25 333.85 153.05 333.5 149.6 332.7 146.65 332 144.9 331.35 138.9 329.15 133.1 329.55 Z"/>
</g>

<g id="fully_grown_0_Layer1_0_MEMBER_6_FILL">
<path fill="#146972" stroke="none" d="
M 266 28.35
Q 258.85 27 247.35 27.05 240.45 27.05 234.7 29.25 234.65 23.6 232.45 17.85 230.35 12.25 227.05 8.7 223.55 5 217.7 3.15 212.15 1.4 206.85 2 202.05 2.55 196.75 5.55 190.7 8.95 189.5 12.9 186.7 10.95 182.85 9.7 180.05 8.8 175.6 8 168.7 6.75 163.35 7.95 156.6 9.55 154.25 14.9 145.85 5.45 135 1.9 123.3 -2 111.5 2.05 101.5 5.5 94.7 13.2 88.4 20.35 85.6 30.3
L 85.55 30.3
Q 73.65 33.8 65.15 44.4 56.75 54.85 55.4 67.4
L 55.15 67.35
Q 45.2 65.4 35.2 72.5 25.95 79.05 22.25 88.85 19.8 95.4 19.85 102.1 19.9 105.45 20.45 107.5 13.8 106.95 8.7 110.45 4.05 113.7 1.75 119.5 -0.5 125.15 0.1 131.3 0.8 137.7 4.4 142.45 9.5 149.05 15.75 152.1
L 15.75 152.2
Q 15.7 158.7 21.6 165.15 19.45 165.1 16.4 168.45 12.3 172.85 12 178.6 11.85 181.8 13.9 184.85 15.65 187.45 18.6 189.45 20.55 190.8 22.55 191.4 20.6 195.65 23.2 200.9 25.55 205.55 29.75 208.1 34.2 210.8 40.3 210.55 47.1 210.3 49.65 206.1 52.7 213.1 58.45 219.35 63.95 225.25 70.55 229.1 85.25 237.75 99.75 238.7 116.7 239.9 128.1 229.7
L 130.9 227.05
Q 132.65 232 142.15 234.25 145 235 148.15 235.15 152.2 241.35 160.25 247.6 164.25 250.8 171.3 250.45 176.75 250.1 181.95 246.55 187.5 242.8 188.85 237.8 193.85 237.75 197.75 235.45 202 232.95 203.05 228.7 205 229.65 208.25 229.5 210.75 229.4 213.5 228.7 216.1 228 220.55 223.4 225.4 227.8 233.45 228.5 240.7 229.1 247.4 226.6 254.65 223.9 258.75 216.35 260.45 213.3 261 210.5 261.7 207 260.45 204.5 269.7 206.55 277.45 204.1 286.1 201.4 290.3 193.7 293.15 188.4 292.8 182.75 292.5 177.5 289.55 172.7 294.9 171.05 298.9 167.4 303.35 163.35 304.3 158.25 304.8 155.8 303.6 153.25 302.55 150.95 300.35 149
L 300.45 148.85
Q 301.35 146.8 301.45 144.9 301.5 143.1 300.8 140.85 299.85 137.75 296.45 135.4 296.8 133.65 297.05 131.7 298 123 293.6 113.8 289.2796875 104.86796875 282 99.75 285.025390625 96.9814453125 287.6 93.1 295.95 80.4 296.05 63.1 296.15 54.75 292.85 47.7 289.5 40.55 283 35.5 276.3 30.25 266 28.35
M 264.6 29.35
Q 272.45 30.5 278.8 34.3 285.45 38.3 289.55 44.65 293.6 50.8 294.25 59.5 294.85 66.75 293.05 75.2 289.2 93.55 277.6 100.85 270.1 105.55 261.25 104.95 252.7 104.35 245.5 99.05 238.9 94.25 236.25 86.85 233.5 79.1 236.3 71.7 239.4 63.55 248.25 58.95 257.3 54.25 265.25 57.2 270.75 59.25 275 64 278.55 67.95 278.1 72.8 277.75 76.65 274.75 81.55 274.45 79 272.75 76.75 271.15 74.6 268.8 73.4 265.6 71.75 262.85 74.15 260.45 76.2 259.75 79.7 258.95 83.7 260.75 87.1 262.65 90.75 266.55 91.6 270.75 92.55 274.65 90.35 278.2 88.3 280.4 84.25 280.55 84.05 280.35 83.85 280.2 83.65 280 83.8 279.35 84.25 276.05 87.35 273.7 89.5 271.65 90.3 267.85 91.7 264.55 89.2 261.4 86.85 261 82.95 260.6 78.75 263 75.95 265.7 72.9 269.5 75.35 271.35 76.55 272.5 78.85 273.5 80.9 273.65 83.3 273.5 83.75 273.8 84.05 273.9 84.25 274.1 84.25 274.75 84.5 275.1 84 277.8 80 278.75 77.55 280.2 73.95 279.7 70.35 278.85 64.3 270.6 58.75 263.6 54.1 255.8 55.45 248.75 56.7 242 62.5 231.9 71.2 234.5 83.55 236.9 94.85 247.65 101.85 252.4 107 252.35 115.55 252.3 124.05 247.65 129.25 244.5 132.85 236.05 134.25 233.1 134.75 229.8 134.45 225.7 134.05 223.65 132.4 220.15 127.35 214.95 124.65 209.35 121.7 202.5 121.85 202.15 121.85 202.1 122.25 202.05 122.6 202.4 122.65 208.9 123.8 211.85 124.9 216.5 126.55 220.1 129.95 223.75 133.35 225.65 138.25 227.5 142.9 227.4 148.05 227.25 158.85 222.55 166.05 217.15 174.35 207.1 175.15 201.9 175.6 196.5 172.75 191.3 170.05 188.05 165.45 184.6 160.65 184.85 155.75 185.05 150.3 189.9 146.2 194.4 142.35 201.3 143.4 207.8 144.4 212.15 148.9 216.5 153.45 211.95 159.35 210.1 161.75 207.65 162.7 205.05 163.75 203.15 162.6 202.9 162.45 202.7 162.75 202.5 163.1 202.75 163.2 205.7 164.6 209.4 162.55 213.05 160.55 214.6 156.9 216.35 152.8 214.15 149.15 211.6 144.75 203.95 142.2 197.75 140.1 191.75 143.1 185.75 146.1 183.65 152.35 181.9 157.4 184.8 163.5 187.3 168.7 191.9 172.4 196.4 176.05 202.55 176.8 208.25 177.45 214.1 175.65 217.55 174.6 220.25 172.1 223.2 177.15 223.15 182.55 223.1 188.05 219.85 192.95 217.5 196.45 212.45 198.55 207.35 200.7 203.1 199.95 203.35 197.45 202 194.9 201.75 194.5 201.25 194.55 200.75 194.65 200.8 195.15 200.85 196.7 200.95 199.7 200.8 202.2 199.25 203.75 197.4 205.75 192.45 207.2 185.5 209.25 181.7 205.5 182.65 203.15 183 200.6 183.1 200.05 182.55 199.8 182 199.55 181.75 200.1 178.4 207.2 175.85 210.1 172 214.5 165.8 215.7 159.85 216.85 152.55 213.35 144.55 209.55 143.8 203.35 146.55 189.55 139.8 177.4 135.75 170.15 128.95 164.9 122.1 159.65 114.1 157.65 110.85 156.85 108 156.75 105.05 156.65 101.85 157.3 93.65 159.55 88.55 163.55 84.65 162.85 82.45 162.15 79.35 161.2 76.7 159.55 73.15 157.35 71.5 155.25 70.05 153.4 69.65 151.55 69.5 149.75 69.25 149.05 69.2 148.7 68.85 148.8 68.55 148.9 68.55 149.25 68.7 151.65 69.1 153.3 63.65 154.45 58.35 152.45 54.05 150.8 51.15 147.8 47.7 144.3 46.35 138.9 44.95 133.3 46.75 128.9 48.2 129.35 49.7 129.35 50.3 129.35 50.35 128.75 50.35 128.15 49.8 128 41.25 125.25 36.6 118.65 31.95 112.05 32.1 102.95 32.3 93.3 39.4 86.3 46.4 79.45 55.95 79.2 57.1 84.35 59.75 88.9 63.5 95.3 68.55 99.4 74.45 104.2 80.95 104.75 88.95 105.4 95.65 100.1 102.2 94.9 103.7 87.05 105.1 79.85 101.1 72.4 97 64.8 90.05 62.5 82.95 60.2 77.2 64.45 71.8 68.45 70.3 75.95 69.15 82.05 73.45 85.95 77.65 89.7 83.7 88.6 89.95 87.45 89.5 81.8 89.15 77.2 85.3 72.7 85.1 72.5 84.9 72.65 84.65 72.85 84.75 73.05 87.85 78.65 88.15 79.6 89.4 83.75 85.9 86.25 82.3 88.85 77.75 87.05 73.45 85.3 71.95 81.2 70.25 76.55 73.3 71.1 76.1 66.05 80.7 63.8 85.45 61.5 92.1 65 97.6 67.85 100.65 74.4 103.5 80.6 102.85 86.9 102.15 92.85 97.3 97.55 92.85 101.85 86.7 103.55 80.2 105.35 73.55 101.5 68.05 98.3 63.6 92.1 55.25 80.55 57.15 66.5 58.8 54.6 66.45 45.1 74.1 35.6 85.3 31.45 82.8 41.45 84.25 52.1 84.3 52.4 84.6 52.35 84.9 52.3 84.85 52.05 83.6 36.4 88.7 24.95 91.95 17.75 98.25 12.05 104.3 6.6 111.95 3.65 125.45 -1.55 139.05 5.3 151.3 11.4 159.1 24.45 166.15 36.2 167.45 46.7 169.2 60.35 160.15 67.8 154.55 72.45 146.55 72.55 138.55 72.65 132.85 68.25 127.55 64.2 127.7 55.7 127.75 51.95 129.95 41.6 130 41.4 129.75 41.35 129.5 41.3 129.4 41.5 126.95 49.3 126.6 54.1 126.1 61.2 129.3 66.4 132.55 71.75 140 73.35 146.4 74.75 153.1 73.05 168.4 69.1 168.95 52.95 169.4 40.45 161.85 25.9 158.95 20.3 154.8 15.55 156.8 13.2 158.7 11.9 160.8 10.45 163.7 9.7 169 8.3 178.3 10.4 182.15 11.25 184.7 12.35 187.95 13.75 190.3 15.9 192.2 17.65 194.25 20.75 195.35 22.5 197.55 26.05 197.95 26.6 198.55 26.25 199.2 25.85 198.9 25.25 194.8 16.75 190.3 13.4
L 190.05 13.25 190.05 13.2
Q 192.75 8.8 202.55 4.8 210 1.65 220.05 5.9 227.05 8.9 230.6 17.05 233.8 24.55 232.7 32.55 231.4 42.3 222.3 45.05 213.2 47.75 206.45 40.6 202.4 36.3 204.35 30.7 206.35 25.1 212.15 24.35 214.8 24 218.85 26.5 222.55 28.8 221.7 32.25 221.05 34.95 217.7 38 217.35 38.35 217.6 38.75 217.85 39.15 218.3 38.95 222.5 36.85 223.65 33.85 224.9 30.5 221.8 27.1 218.6 23.6 214.1 23.15 209.45 22.7 205.9 25.65 202.8 28.25 202.45 32.75 202.05 37.15 204.5 40.45 208.15 45.3 213.5 46.8 218.85 48.35 224.55 46.25 229.6 44.35 232.2 39.9 234.55 35.85 234.7 30.25 241.25 28.15 249.55 28.1 256 28.1 264.6 29.35
M 228.95 135.55
Q 231 135.95 232.95 135.9 242.55 135.55 248.55 130.2 253.45 125.85 253.85 117.45 254.25 109.4 250.4 103.5 255.6 106.2 261.3 106.65 273.0177734375 107.5759765625 281.35 100.3 288.934375 107.328515625 292.25 114.35 295.9 122.1 295.25 131.55 294.6 141.3 288.95 149.35 283.15 157.7 274.2 160.95
L 274.1 161
Q 271.1 160.1 268.5 159.95 263.35 159.55 258.4 162.75 254.2 165.5 250.9 170.3 247.7 174.9 249.05 179.6 250.25 183.9 254.85 187.35 258.75 190.3 263.15 190.15 268.15 190.05 270.15 185.6 272.25 181.05 270.7 177.25 269.2 173.6 264.75 171.3 264.5 171.2 264.3 171.45 264.15 171.7 264.4 171.85 267.95 174 269.25 176.05 270.9 178.6 270.4 182.5 269.7 187.35 265.05 188.5 260.8 189.6 256.65 187.3 252.1 184.75 250.05 180.1 248.8 177.35 250.15 173.85 251.1 171.5 253.55 168.4 260 160.3 270.4 161.4 280.35 162.45 286.65 170.65 293.65 179.8 289.7 190.2 285.8 200.5 274.8 203.1 267.55 204.8 259.3 202.55 252.95 200.85 245.05 196.45 244.7 196.25 244.5 196.6 244.25 196.95 244.55 197.2 246.9 199.05 252.95 201.95 256 203.4 258.65 204.6 261.4 208.4 256.8 216.85 254.25 221.4 248.1 224.7 242.25 227.75 234.2 227.15 226.25 226.5 220.85 222.7 222.35 218.6 220 213.85 217.65 209.15 213.55 207.7 209.35 206.2 205.6 207.8 201.5 209.55 201.1 214 200.75 218 205 219.9 209.2 221.8 212.1 219.2 212.2 219.1 212.15 218.9 212.1 218.75 211.95 218.75 211.2 218.8 209.7 219.2 208.25 219.65 207.4 219.65 203.35 219.7 202.5 215.8 201.65 212 204.55 209.6 206.85 207.65 210.35 208.1 213.5 208.55 216 210.5 220.5 214.05 220.5 218.55 220.5 223.15 215.65 225.95 213.3 227.35 209.65 227.9 206 228.5 203.2 227.95 203.45 226.85 203.35 225.65 203.35 225.25 202.95 225.25 202.6 225.25 202.5 225.6 200.6 231.7 195.5 234.3 190.55 236.8 184.2 235.15 174 232.5 170.2 228.95 167.75 226.65 166.65 221.85 166.6 221.65 166.4 221.7 166.2 221.75 166.2 221.95 165.9 230.55 175.7 234.85 180.35 236.9 186.8 237.7 185.25 242.55 179.4 245.7 174.1 248.55 168.65 248.45 163.6 248.35 158.45 243.55 152.9 237.55 149.9 235.15 156.3 235 160.3 231.65 160.7 231.3 160.45 230.9 160.2 230.5 159.7 230.6 158.95 230.8 155.25 232 152.6 232.9 150.65 233.05 147.8 233.25 143.55 232.6 134.8 231.35 131.65 226.25 140.65 216.65 143.5 204.85 145.3 210.75 150.5 214.15 155.25 217.25 161.45 217.4 167.6 217.6 172.9 214.85 178.5 211.95 181.15 206.65 183.85 211.55 192.6 209.3 201.45 207.05 202.95 200.85 206.9 202.8 213.15 200.1 218.9 197.6 221.4 193.9 225.4 188 225.25 181.2 225.2 178.4 224.35 175.65 223.35 172.4 221.55 170.85 225.9 166.05 227.95 157.5 229.4 151.35 228.55 145.25 227.75 139.15 224.8 134.15 226.5 135.1 228.95 135.55
M 297.75 137.85
Q 298.9 139.1 299.6 142.15 299.95 143.6 299.75 145.15 299.65 145.8 299.1 148 296.2 145.9 293.1 145.5 295.3 141.1 296.35 136.1 296.75 136.75 297.75 137.85
M 300.7 162.4
Q 297.35 167.65 288.75 171.1
L 288.55 171.25
Q 283.75 164.5 275.55 161.45 287.15 157.15 292.85 146 298.95 148.2 301.35 152.2 304.25 156.85 300.7 162.4
M 40.2 83.9
Q 33.5 90.1 31.4 98.55 30.25 103.1 30.95 108.15 31.6 112.95 33.75 117.35 35.5 120.8 38.7 123.9 42.15 127.25 45.75 128.55 43.25 132.7 44.6 138.55 45.7 143.4 48.95 147.95 52.3 152.7 58.25 154.2 62.65 155.35 69.65 154.85 70.6 157.2 72.65 158.9 80.6 165.3 86.45 165.4 83.7 167.95 81.2 171.35 76.9 177.3 75.6 183.7 74.25 190.4 76.25 197.15 79.8 208.8 92.6 212.7 104.6 216.35 115.75 211.15 119.65 209.35 122.35 205.3 124.95 201.4 125.55 196.75 127.05 185.85 118.55 181.25 113.85 178.75 108.95 180.3 103.9 181.95 102 186.9 100.45 191.05 103.25 196.45 106.25 202.15 110.8 200.6 111.2 200.5 111.1 200.1 111.05 199.7 110.65 199.75 107.8 200.3 105.55 197.35 103.85 195.05 103.15 191.95 102.35 188.5 104.4 185.55 106.35 182.8 109.85 181.8 114.2 180.55 118 183.3 121.45 185.8 122.9 190.2 126.15 199.9 118.8 206.4 112.25 212.2 102.05 212.35 91.6 212.45 84.45 206.1 77.1 199.55 76.75 189.25 76.55 183.15 79.35 177.45 81.9 172.25 86.7 167.9 94.85 161.3 101.35 159.3 109.45 156.8 118.05 160.1 125.25 162.9 131.4 169.25 137.25 175.25 140.5 182.65 146.25 195.85 139.85 210.8 133.9 224.65 121.25 232.6 110.75 239.2 95.4 236.4 83.1 234.2 70.25 226.7 58.15 219.55 52.6 207.4 47.1 195.2 49.8 181.5 49.85 181.15 49.55 181.1 49.2 181 49.1 181.3 44.45 191.75 48.65 203.6 47.05 208.2 39.85 208.3 33.7 208.35 29.5 205.85 27.1 204.4 25.55 201.9 24.05 199.5 23.6 196.6 23.1 193.05 23.65 191.65 28.5 192.6 33.55 189.65 33.7 189.55 33.65 189.35 33.55 189.15 33.35 189.2 26.4 190.85 21.15 188.85 15 186.45 13.7 179.75 12.95 175.9 15.9 171.2 19.05 166.2 22.95 166.6 26.2 169.95 28.55 171.6 32.35 174.25 35.2 173.85 35.3 173.85 35.35 173.7 35.4 173.55 35.25 173.5 28.9 171.2 23.6 165.45 17.85 159.15 17.6 152.9 22.5 154.75 27 153.85 30.65 153.15 33.6 150.5 36.8 147.65 36.9 144.25 37.05 138.5 34.2 134.5 31.5 130.65 26.8 128.95 21.7 127.1 17.7 129.3 13.9 131.4 13.8 135.05 13.7 138.2 16.25 140.95 18.7 143.7 21.6 143.85 24.85 144.05 26.45 140.45 26.65 140 26.25 139.7 25.85 139.35 25.5 139.75 23.7 142 23.6 142.1 22.25 143.3 20.6 142.95 17.5 142.2 15.4 138.3 14.05 135.7 15.7 133.1 17.25 130.65 20.15 129.95 22.6 129.4 26.1 130.4 30.4 131.6 33.65 136.45 35.6 139.35 35.6 141.75 35.6 147.9 30.45 150.75 25.6 153.45 19.5 151.75 13.2 149.95 5.7 141.45 1.85 137.1 1.4 130.9 1 125.15 3.5 119.6 6.05 114.1 10.45 110.95 15.2 107.6 20.65 108.25 22.05 113.5 25.3 118 28.55 122.55 33.4 125.8 33.8 126.05 34 125.7 34.25 125.4 33.95 125.05 29.25 120.35 27.9 118.8 24.8 115.15 23.2 111.45 21.15 106.7 21.55 100.5 21.85 95.1 23.95 89.6 27.4 80.65 36.25 74.4 45.75 67.6 54.7 69.5 55 69.55 55.2 69.5 54.95 74.2 55.85 78.6 47.7 77 40.2 83.9 Z"/>
</g>

<g id="Duplicate_Items_Folder_skull_copy_0_Layer0_0_FILL">
<path fill="#FFFFFF" stroke="none" d="
M 8.3 2.7
Q 7.95 1.2 6.6 0.5 5.15 -0.25 3.55 0.1 2.05 0.5 0.9 1.95 -0.35 3.3 0.1 4.85 0.5 6.25 2.1 7.45 3.7 8.65 5.35 8.3 6.95 7.95 7.8 6.1 8.65 4.25 8.3 2.7
M 6.6 5.4
L 6.85 4.65 6.6 5.4 6.8 6.1 6.6 5.4
Q 5.5 5.35 4.75 5.7
L 4.85 5.95 5.1 6.85 4.85 5.95 4.55 5.7
Q 4 5.95 3.65 6.55
L 4.25 6.95 3.65 6.55
Q 3.45 6.8 3.4 6.95 3.45 6.8 3.65 6.55
L 3.05 5.95 3.65 6.55
Q 4 5.95 4.55 5.7
L 4.25 4.75 4.55 5.7
Q 4.65 5.7 4.75 5.7 5.5 5.35 6.6 5.4
M 5.85 1.85
Q 6.45 2.3 6.6 2.9 6.7 3.3 6.45 3.75 6.25 4.3 5.7 4.4 5.35 4.5 4.9 4.05 4.5 3.8 4.4 3.3 4.3 2.7 4.3 2.2 4.25 1.7 4.65 1.6 5.15 1.5 5.85 1.85
M 2.7 2.3
Q 3.2 2.3 3.45 2.7 3.7 3.15 3.8 3.45 3.9 3.9 3.7 4.25 3.45 4.6 2.95 4.75 2.45 4.85 2.2 4.65 1.85 4.5 1.7 4.05 1.7 3.55 1.95 3.05 2.3 2.35 2.7 2.3
M 4.75 5.7
Q 4.65 5.7 4.55 5.7
L 4.85 5.95 4.75 5.7 Z"/>

<path fill="#000000" stroke="none" d="
M 3.45 2.7
Q 3.2 2.3 2.7 2.3 2.3 2.35 1.95 3.05 1.7 3.55 1.7 4.05 1.85 4.5 2.2 4.65 2.45 4.85 2.95 4.75 3.45 4.6 3.7 4.25 3.9 3.9 3.8 3.45 3.7 3.15 3.45 2.7
M 6.6 2.9
Q 6.45 2.3 5.85 1.85 5.15 1.5 4.65 1.6 4.25 1.7 4.3 2.2 4.3 2.7 4.4 3.3 4.5 3.8 4.9 4.05 5.35 4.5 5.7 4.4 6.25 4.3 6.45 3.75 6.7 3.3 6.6 2.9 Z"/>
</g>

<path id="Duplicate_Items_Folder_skull_copy_0_Layer0_0_1_STROKES" stroke="#000000" stroke-width="0.5" stroke-linejoin="round" stroke-linecap="round" fill="none" d="
M 8.3 2.7
Q 8.65 4.25 7.8 6.1 6.95 7.95 5.35 8.3 3.7 8.65 2.1 7.45 0.5 6.25 0.1 4.85 -0.35 3.3 0.9 1.95 2.05 0.5 3.55 0.1 5.15 -0.25 6.6 0.5 7.95 1.2 8.3 2.7 Z
M 4.25 4.75
L 4.55 5.7
Q 4.65 5.7 4.75 5.7 5.5 5.35 6.6 5.4
L 6.85 4.65
M 6.8 6.1
L 6.6 5.4
M 5.1 6.85
L 4.85 5.95 4.55 5.7
Q 4 5.95 3.65 6.55
L 4.25 6.95
M 4.75 5.7
L 4.85 5.95
M 3.4 6.95
Q 3.45 6.8 3.65 6.55
L 3.05 5.95"/>
</defs>

<g filter="url(#Filter_1)" transform="matrix( 1, 0, 0, 1, 0,0) ">
<g transform="matrix( 4.282684326171875, 0, 0, 4.282684326171875, 280.05,491.4) ">
<g transform="matrix( 0.32684326171875, 0, 0, 0.32684326171875, -50.2,-111.8) ">
<use xlink:href="#fully_grown_0_Layer4_0_FILL"/>
</g>

<g transform="matrix( 0.3267822265625, 0, 0, 0.3267822265625, -50.5,-111.9) ">
<use xlink:href="#fully_grown_0_Layer3_0_MEMBER_0_FILL"/>
</g>

<g transform="matrix( 0.3267822265625, 0, 0, 0.3267822265625, -50.5,-111.9) ">
<use xlink:href="#fully_grown_0_Layer3_0_MEMBER_1_FILL"/>
</g>

<g transform="matrix( 0.3267822265625, 0, 0, 0.3267822265625, -50.5,-111.9) ">
<use xlink:href="#fully_grown_0_Layer3_0_MEMBER_2_FILL"/>
</g>

<g transform="matrix( 0.3267822265625, 0, 0, 0.3267822265625, -50.5,-111.9) ">
<use xlink:href="#fully_grown_0_Layer3_0_MEMBER_3_FILL"/>
</g>

<g transform="matrix( 0.3267822265625, 0, 0, 0.3267822265625, -50.5,-111.9) ">
<use xlink:href="#fully_grown_0_Layer3_0_MEMBER_4_FILL"/>
</g>

<g transform="matrix( 0.3267822265625, 0, 0, 0.3267822265625, -50.5,-111.9) ">
<use xlink:href="#fully_grown_0_Layer3_0_MEMBER_5_FILL"/>
</g>

<g transform="matrix( 0.3267822265625, 0, 0, 0.3267822265625, -50.5,-111.55) ">
<use xlink:href="#fully_grown_0_Layer2_0_MEMBER_0_FILL"/>
</g>

<g transform="matrix( 0.3267822265625, 0, 0, 0.3267822265625, -50.5,-111.55) ">
<use xlink:href="#fully_grown_0_Layer2_0_MEMBER_1_FILL"/>
</g>

<g transform="matrix( 0.3267822265625, 0, 0, 0.3267822265625, -50.5,-111.55) ">
<use xlink:href="#fully_grown_0_Layer2_0_MEMBER_2_FILL"/>
</g>

<g transform="matrix( 0.3267822265625, 0, 0, 0.3267822265625, -50.5,-111.55) ">
<use xlink:href="#fully_grown_0_Layer2_0_MEMBER_3_FILL"/>
</g>

<g transform="matrix( 0.3267822265625, 0, 0, 0.3267822265625, -50.5,-111.55) ">
<use xlink:href="#fully_grown_0_Layer2_0_MEMBER_4_FILL"/>
</g>

<g transform="matrix( 0.3267822265625, 0, 0, 0.3267822265625, -50.5,-111.55) ">
<use xlink:href="#fully_grown_0_Layer2_0_MEMBER_5_FILL"/>
</g>

<g transform="matrix( 0.3267822265625, 0, 0, 0.3267822265625, -50.5,-111.55) ">
<use xlink:href="#fully_grown_0_Layer2_0_MEMBER_6_FILL"/>
</g>

<g transform="matrix( 0.3267822265625, 0, 0, 0.3267822265625, -50.5,-111.55) ">
<use xlink:href="#fully_grown_0_Layer2_0_MEMBER_7_FILL"/>
</g>

<g transform="matrix( 0.3267822265625, 0, 0, 0.3267822265625, -50.5,-111.55) ">
<use xlink:href="#fully_grown_0_Layer2_0_MEMBER_8_FILL"/>
</g>

<g transform="matrix( 0.3267822265625, 0, 0, 0.3267822265625, -50.5,-111.55) ">
<use xlink:href="#fully_grown_0_Layer2_0_MEMBER_9_FILL"/>
</g>

<g transform="matrix( 0.3267822265625, 0, 0, 0.3267822265625, -50.5,-111.55) ">
<use xlink:href="#fully_grown_0_Layer2_0_MEMBER_10_FILL"/>
</g>

<g transform="matrix( 0.3267822265625, 0, 0, 0.3267822265625, -50.5,-111.55) ">
<use xlink:href="#fully_grown_0_Layer2_0_MEMBER_11_FILL"/>
</g>

<g transform="matrix( 0.3267822265625, 0, 0, 0.3267822265625, -50.5,-111.55) ">
<use xlink:href="#fully_grown_0_Layer2_0_MEMBER_12_FILL"/>
</g>

<g transform="matrix( 0.3267822265625, 0, 0, 0.3267822265625, -50.5,-111.55) ">
<use xlink:href="#fully_grown_0_Layer2_0_MEMBER_13_FILL"/>
</g>

<g transform="matrix( 0.3267822265625, 0, 0, 0.3267822265625, -50.5,-111.55) ">
<use xlink:href="#fully_grown_0_Layer2_0_MEMBER_14_FILL"/>
</g>

<g transform="matrix( 0.3267822265625, 0, 0, 0.3267822265625, -50.5,-111.55) ">
<use xlink:href="#fully_grown_0_Layer2_0_MEMBER_15_FILL"/>
</g>

<g transform="matrix( 0.3267822265625, 0, 0, 0.3267822265625, -50.5,-111.55) ">
<use xlink:href="#fully_grown_0_Layer2_0_MEMBER_16_FILL"/>
</g>

<g transform="matrix( 0.3267822265625, 0, 0, 0.3267822265625, -50.5,-111.55) ">
<use xlink:href="#fully_grown_0_Layer2_0_MEMBER_17_FILL"/>
</g>

<g transform="matrix( 0.3267822265625, 0, 0, 0.3267822265625, -50.5,-111.55) ">
<use xlink:href="#fully_grown_0_Layer2_0_MEMBER_18_FILL"/>
</g>

<g transform="matrix( 0.3267822265625, 0, 0, 0.3267822265625, -50.5,-111.55) ">
<use xlink:href="#fully_grown_0_Layer2_0_MEMBER_19_FILL"/>
</g>

<g transform="matrix( 0.3267822265625, 0, 0, 0.3267822265625, -50.5,-111.55) ">
<use xlink:href="#fully_grown_0_Layer2_0_MEMBER_20_FILL"/>
</g>

<g transform="matrix( 0.3267822265625, 0, 0, 0.3267822265625, -50.5,-111.55) ">
<use xlink:href="#fully_grown_0_Layer2_0_MEMBER_21_FILL"/>
</g>

<g transform="matrix( 0.3267822265625, 0, 0, 0.3267822265625, -50.5,-111.55) ">
<use xlink:href="#fully_grown_0_Layer2_0_MEMBER_22_FILL"/>
</g>

<g transform="matrix( 0.3267822265625, 0, 0, 0.3267822265625, -50.5,-111.55) ">
<use xlink:href="#fully_grown_0_Layer2_0_MEMBER_23_FILL"/>
</g>

<g transform="matrix( 0.3267822265625, 0, 0, 0.3267822265625, -50.5,-111.55) ">
<use xlink:href="#fully_grown_0_Layer2_0_MEMBER_24_FILL"/>
</g>

<g transform="matrix( 0.3267822265625, 0, 0, 0.3267822265625, -50.5,-111.55) ">
<use xlink:href="#fully_grown_0_Layer2_0_MEMBER_25_FILL"/>
</g>

<g transform="matrix( 0.3267822265625, 0, 0, 0.3267822265625, -50.5,-111.55) ">
<use xlink:href="#fully_grown_0_Layer2_0_MEMBER_26_FILL"/>
</g>

<g transform="matrix( 0.3267822265625, 0, 0, 0.3267822265625, -50.5,-111.55) ">
<use xlink:href="#fully_grown_0_Layer2_0_MEMBER_27_FILL"/>
</g>

<g transform="matrix( 0.3267822265625, 0, 0, 0.3267822265625, -50.5,-111.55) ">
<use xlink:href="#fully_grown_0_Layer2_0_MEMBER_28_FILL"/>
</g>

<g transform="matrix( 0.3267822265625, 0, 0, 0.3267822265625, -50.5,-111.55) ">
<use xlink:href="#fully_grown_0_Layer2_0_MEMBER_29_FILL"/>
</g>

<g transform="matrix( 0.3267822265625, 0, 0, 0.3267822265625, -50.5,-111.55) ">
<use xlink:href="#fully_grown_0_Layer2_0_MEMBER_30_FILL"/>
</g>

<g transform="matrix( 0.3267822265625, 0, 0, 0.3267822265625, -50.5,-111.55) ">
<use xlink:href="#fully_grown_0_Layer2_0_MEMBER_31_FILL"/>
</g>

<g transform="matrix( 0.3267822265625, 0, 0, 0.3267822265625, -50.5,-111.55) ">
<use xlink:href="#fully_grown_0_Layer2_0_MEMBER_32_FILL"/>
</g>

<g transform="matrix( 0.3267822265625, 0, 0, 0.3267822265625, -50.5,-111.55) ">
<use xlink:href="#fully_grown_0_Layer2_0_MEMBER_33_FILL"/>
</g>

<g transform="matrix( 0.3267822265625, 0, 0, 0.3267822265625, -50.5,-111.55) ">
<use xlink:href="#fully_grown_0_Layer2_0_MEMBER_34_FILL"/>
</g>

<g transform="matrix( 0.3267822265625, 0, 0, 0.3267822265625, -50.5,-111.55) ">
<use xlink:href="#fully_grown_0_Layer2_0_MEMBER_35_FILL"/>
</g>

<g transform="matrix( 0.3267822265625, 0, 0, 0.3267822265625, -50.5,-111.55) ">
<use xlink:href="#fully_grown_0_Layer2_0_MEMBER_36_FILL"/>
</g>

<g transform="matrix( 0.3267822265625, 0, 0, 0.3267822265625, -50.5,-111.55) ">
<use xlink:href="#fully_grown_0_Layer2_0_MEMBER_37_FILL"/>
</g>

<g transform="matrix( 0.3267822265625, 0, 0, 0.3267822265625, -50.5,-111.55) ">
<use xlink:href="#fully_grown_0_Layer2_0_MEMBER_38_FILL"/>
</g>

<g transform="matrix( 0.326812744140625, 0, 0, 0.326812744140625, -50.5,-111.9) ">
<use xlink:href="#fully_grown_0_Layer1_0_MEMBER_0_FILL"/>
</g>

<g transform="matrix( 0.326812744140625, 0, 0, 0.326812744140625, -50.5,-111.9) ">
<use xlink:href="#fully_grown_0_Layer1_0_MEMBER_1_FILL"/>
</g>

<g transform="matrix( 0.326812744140625, 0, 0, 0.326812744140625, -50.5,-111.9) ">
<use xlink:href="#fully_grown_0_Layer1_0_MEMBER_2_FILL"/>
</g>

<g transform="matrix( 0.326812744140625, 0, 0, 0.326812744140625, -50.5,-111.9) ">
<use xlink:href="#fully_grown_0_Layer1_0_MEMBER_3_FILL"/>
</g>

<g transform="matrix( 0.326812744140625, 0, 0, 0.326812744140625, -50.5,-111.9) ">
<use xlink:href="#fully_grown_0_Layer1_0_MEMBER_4_FILL"/>
</g>

<g transform="matrix( 0.326812744140625, 0, 0, 0.326812744140625, -50.5,-111.9) ">
<use xlink:href="#fully_grown_0_Layer1_0_MEMBER_5_FILL"/>
</g>

<g transform="matrix( 0.326812744140625, 0, 0, 0.326812744140625, -50.5,-111.9) ">
<use xlink:href="#fully_grown_0_Layer1_0_MEMBER_6_FILL"/>
</g>

<g transform="matrix( 0.990814208984375, 0.830902099609375, -0.830902099609375, 0.990814208984375, 31,-67.4) ">
<g transform="matrix( 1, 0, 0, 1, 0,0) ">
<use xlink:href="#Duplicate_Items_Folder_skull_copy_0_Layer0_0_FILL"/>

<use xlink:href="#Duplicate_Items_Folder_skull_copy_0_Layer0_0_1_STROKES"/>
</g>
</g>

<g transform="matrix( -0.521270751953125, -1.183349609375, 1.183349609375, -0.521270751953125, -37.65,-50.8) ">
<g transform="matrix( 1, 0, 0, 1, 0,0) ">
<use xlink:href="#Duplicate_Items_Folder_skull_copy_0_Layer0_0_FILL"/>

<use xlink:href="#Duplicate_Items_Folder_skull_copy_0_Layer0_0_1_STROKES"/>
</g>
</g>

<g transform="matrix( 0.562286376953125, 1.1644287109375, -1.1644287109375, 0.562286376953125, 22.6,-98.1) ">
<g transform="matrix( 1, 0, 0, 1, 0,0) ">
<use xlink:href="#Duplicate_Items_Folder_skull_copy_0_Layer0_0_FILL"/>

<use xlink:href="#Duplicate_Items_Folder_skull_copy_0_Layer0_0_1_STROKES"/>
</g>
</g>

<g transform="matrix( 1.1223602294921875, 0.6422119140625, -0.6422119140625, 1.1223602294921875, -3.45,-51.8) ">
<g transform="matrix( 1, 0, 0, 1, 0,0) ">
<use xlink:href="#Duplicate_Items_Folder_skull_copy_0_Layer0_0_FILL"/>

<use xlink:href="#Duplicate_Items_Folder_skull_copy_0_Layer0_0_1_STROKES"/>
</g>
</g>

<g transform="matrix( 1.1281890869140625, -0.6318817138671875, 0.6318817138671875, 1.1281890869140625, -21.15,-98.65) ">
<g transform="matrix( 1, 0, 0, 1, 0,0) ">
<use xlink:href="#Duplicate_Items_Folder_skull_copy_0_Layer0_0_FILL"/>

<use xlink:href="#Duplicate_Items_Folder_skull_copy_0_Layer0_0_1_STROKES"/>
</g>
</g>

<g transform="matrix( 1.287078857421875, 0.124755859375, -0.124755859375, 1.287078857421875, -18,-77.7) ">
<g transform="matrix( 1, 0, 0, 1, 0,0) ">
<use xlink:href="#Duplicate_Items_Folder_skull_copy_0_Layer0_0_FILL"/>

<use xlink:href="#Duplicate_Items_Folder_skull_copy_0_Layer0_0_1_STROKES"/>
</g>
</g>

<g transform="matrix( -0.93927001953125, 0.88873291015625, -0.88873291015625, -0.93927001953125, 20.25,-69.9) ">
<g transform="matrix( 1, 0, 0, 1, 0,0) ">
<use xlink:href="#Duplicate_Items_Folder_skull_copy_0_Layer0_0_FILL"/>

<use xlink:href="#Duplicate_Items_Folder_skull_copy_0_Layer0_0_1_STROKES"/>
</g>
</g>
</g>
</g>
</svg>
