
<svg xmlns="http://www.w3.org/2000/svg" version="1.1" xmlns:xlink="http://www.w3.org/1999/xlink" preserveAspectRatio="none" x="0px" y="0px" width="560px" height="544px" viewBox="0 0 560 544">
<defs>
<g id="Duplicate_Items_Folder_leg_3_0_Layer2_0_FILL">
<path fill="#836A5A" stroke="none" d="
M -1.7 -10.3
Q -1.85 -10.3 -2 -10.3 -2.25 -1.75 -3.85 7.45 -3 10.2 -0.3 9.65 2 3 0.95 -9.55 -0.5 -10.4 -1.7 -10.3 Z"/>

<path fill="#000000" stroke="none" d="
M 2.1 -8.75
L 2.25 -3.25
Q 2.15 1.15 3.95 5.45 4.1 5.55 4.25 5.65 4.95 6.45 5.2 7.55 5.4 8.65 5.05 9.4 4.65 10.15 3.8 10.2 2.95 10.25 2.65 10.1 2.3 10 1.1 9.7
L -0.3 9.65
Q -3 10.2 -3.85 7.45 -2.25 -1.75 -2 -10.3 -1.85 -10.3 -1.7 -10.3
L -2.95 -10.75
Q -4.15 -1.65 -5.5 7.7 -4.2 12.1 2.3 10.75
L 3.55 11
Q 4.2 11.2 4.9 11.05 5.55 10.95 6.1 10.05 6.55 9.2 6.35 7.85 6.05 6.5 5.6 6.05 5.15 5.55 4.4 3.25 3.75 0.95 3.15 -2.95
L 3.1 -8.5 1.85 -8.95
Q 2 -8.85 2.1 -8.75 Z"/>

<path fill="#604E42" stroke="none" d="
M 1.85 -8.95
Q 1.4 -9.3 0.95 -9.55 2 3 -0.3 9.65
L 1.1 9.7
Q 2.3 10 2.65 10.1 2.95 10.25 3.8 10.2 4.65 10.15 5.05 9.4 5.4 8.65 5.2 7.55 4.95 6.45 4.25 5.65 4.1 5.55 3.95 5.45 2.15 1.15 2.25 -3.25
L 2.1 -8.75
Q 2 -8.85 1.85 -8.95 Z"/>
</g>

<g id="Duplicate_Items_Folder_leg_3_0_Layer1_0_FILL">
<path fill="#604E42" stroke="none" d="
M -8.35 8.5
Q -8.25 9.75 -7.45 10.35 -6.7 10.85 -5.8 11 -5.1 11.2 -4.65 10.85 -4.65 10.8 -4.65 10.75 -4.75 10.4 -4.8 10.05 -7.1 9.95 -8.35 8.5 Z"/>

<path fill="#000000" stroke="none" d="
M -4.2 5.35
L -3.95 4.7
Q -4.65 4.05 -5.55 4 -6.45 3.9 -7.3 4.9 -7.65 5.15 -7.9 5.5 -8.8 6.9 -8.9 8.3 -8.9 8.45 -8.9 8.6 -8.85 10.2 -7.9 10.85 -6.9 11.45 -5.8 11.65 -5 11.85 -4.45 11.6
L -4.65 10.85
Q -5.1 11.2 -5.8 11 -6.7 10.85 -7.45 10.35 -8.25 9.75 -8.35 8.5
L -8.4 8.45
Q -8.25 7.2 -7.5 5.9 -7.15 5.4 -6.7 5.15 -6.1 4.65 -5.55 4.7 -4.85 4.7 -4.2 5.35 Z"/>

<path fill="#836A5A" stroke="none" d="
M -4.45 6.05
Q -4.3 5.65 -4.2 5.35 -4.85 4.7 -5.55 4.7 -6.1 4.65 -6.7 5.15 -7.15 5.4 -7.5 5.9 -8.25 7.2 -8.4 8.45
L -8.35 8.5
Q -7.1 9.95 -4.8 10.05 -4.85 9.4 -4.9 8.6 -4.8 7.2 -4.45 6.05 Z"/>
</g>

<g id="Duplicate_Items_Folder_leg_3_0_Layer0_0_FILL">
<path fill="#604E42" stroke="none" d="
M 0.6 10.8
Q 0.75 10.6 0.95 10.3 1.15 10.1 1.15 9.85
L 1.15 9.8 1.2 9.8
Q 1.2 9.75 1.25 9.75 1.3 9.65 1.35 9.55 -1.75 11.3 -4.9 10.05 -4.9 10.1 -4.85 10.1 -4.6 10.5 -4.3 10.75 -3.55 11.65 -2.15 11.6 -0.85 11.45 0.25 11 0.3 10.9 0.6 10.8 Z"/>

<path fill="#836A5A" stroke="none" d="
M 0.6 6.05
L 0.55 6.05
Q -0.65 4.45 -1.9 4.4 -3.2 4.3 -4.15 5.5 -4.25 5.7 -4.45 5.95 -4.65 6.2 -4.8 6.45 -5.1 7.25 -5.15 8.25 -5.2 9 -5 9.55 -4.95 9.85 -4.9 10.05 -1.75 11.3 1.35 9.55 1.35 9.5 1.35 9.45
L 2.1 9.35 2.05 6.95
Q 1.55 6.85 0.95 6.7
L 0.9 6.65 0.9 6.6
Q 0.85 6.5 0.8 6.45 0.7 6.25 0.6 6.05 Z"/>

<path fill="#000000" stroke="none" d="
M 0.55 6.05
L 0.6 6.05
Q 0.7 6.25 0.8 6.45
L 1.65 6.55 1.65 6.5 1.05 5.5
Q 0.95 5.5 0.95 5.4 -0.25 3.6 -1.8 3.55 -3.35 3.5 -4.65 4.95 -4.7 4.95 -4.75 5.05 -4.85 5.15 -4.9 5.3 -4.95 5.35 -4.95 5.4
L -5.3 5.85 -5.25 5.85
Q -5.35 6.1 -5.5 6.4 -5.8 7.25 -5.95 8.3 -5.9 8.85 -5.85 9.35 -5.8 9.65 -5.75 9.9
L -5.7 9.95 -5.55 10.5
Q -5.45 10.6 -5.4 10.75 -5.35 10.75 -5.35 10.85 -5.1 11.15 -4.85 11.45 -4.05 12.25 -3.1 12.35 -2.7 12.5 -2.2 12.45 -0.65 12.25 0.65 11.65 1 11.5 1.3 11.3 1.35 11.3 2 10.2 2.1 9.9 2.15 9.7 2.15 9.6 2.2 9.5 2.2 9.4 2.2 9.3
L 2.1 9.35 1.35 9.45
Q 1.35 9.5 1.35 9.55 1.3 9.65 1.25 9.75 1.2 9.75 1.2 9.8
L 1.15 9.8 1.15 9.85
Q 1.15 10.1 0.95 10.3 0.75 10.6 0.6 10.8 0.3 10.9 0.25 11 -0.85 11.45 -2.15 11.6 -3.55 11.65 -4.3 10.75 -4.6 10.5 -4.85 10.1 -4.9 10.1 -4.9 10.05 -4.95 9.85 -5 9.55 -5.2 9 -5.15 8.25 -5.1 7.25 -4.8 6.45 -4.65 6.2 -4.45 5.95 -4.25 5.7 -4.15 5.5 -3.2 4.3 -1.9 4.4 -0.65 4.45 0.55 6.05 Z"/>
</g>

<g id="Duplicate_Items_Folder_tail_0_Layer0_0_FILL">
<path fill="#FF0000" stroke="none" d="
M 4.5 -9.8
Q 1.0103515625 -9.949609375 0.25 -6.65
L -0.75 -2.5
Q -2.475390625 0.3349609375 -7.05 2.6
L -4.75 4.7 -1.7 1.7 0.65 3.15 0.65 -0.2 4.25 0.15 2.5 -2.55 6 -5.1 2.25 -5.35
Q 2.3984375 -7.575 4.5 -9.8 Z"/>
</g>

<g id="Duplicate_Items_Folder_stand_body_0_Layer0_0_FILL">
<path fill="#000000" stroke="none" d="
M 9.5 -11.55
Q 7 -11.7 4.45 -11.7 1.7 -11.6 -0.3 -11.65 -2.4 -11.7 -3.45 -11.65 -4.45 -11.65 -6.25 -11.75 -7.7 -11.95 -8.3 -12.2 -8.5 -12.2 -9.15 -12.05 -14.95 -10.9 -17.7 -7.3 -16.85 -3.6 -13.25 3.15 -9.6 9.85 -0.85 9.15 7.85 8.45 11.25 5.2 14.7 1.9 15.05 1.5 15.3 1.1 16.4 -0.35 16.6 -0.6 16.75 -0.85 17.4 -2 17.45 -3.05 17.45 -4.35 17.4 -4.25 17.3 -4.1 17.1 -5.4 16.85 -6.6 14.4 -9.1 11.85 -11.4 9.5 -11.55
M 3.7 -10.65
Q 5.95 -10.65 8.1 -10.6 10.25 -10.4 12.45 -8.3 14.7 -6.2 14.85 -5.1
L 15.1 -4.05
Q 15.25 -4.15 15.25 -3.05 15.1 -2.2 14.6 -1.2 14.4 -0.9 14.2 -0.7 13.3 0.6 13.1 1 12.75 1.35 9.75 4.2 6.7 7.15 -0.95 7.7 -8.7 8.35 -11.85 2.4 -14.15 -1.85 -15.2 -4.75 -15.6 -5.9 -15.8 -6.75 -13.45 -10 -8.3 -11 -7.7 -11.2 -7.5 -11.2 -7 -10.95 -5.7 -10.75 -4.25 -10.65 -3.3 -10.6 -2.3 -10.65 -0.5 -10.65 1.35 -10.6 3.7 -10.65 Z"/>

<path fill="#836A5A" stroke="none" d="
M 7.25 -4.6
L 7.3 -5.15 4.9 -5.5
Q 5.644921875 -5.22265625 6.35 -4.95 6.82578125 -4.7833984375 7.25 -4.6
M 3.15 -8.25
L 3.7 -9 3.15 -8.25 4.3 -5.7
Q 4.612890625 -5.5734375 4.9 -5.5
L 7.3 -5.15 6.35 -7.8 7.3 -5.15 9.85 -4.85 7.3 -5.15 7.25 -4.6
Q 8.2767578125 -4.217578125 9.3 -3.8 9.916796875 -3.512890625 10.55 -3.25 12.5271484375 -2.306640625 14.6 -1.2 15.1 -2.2 15.25 -3.05 15.25 -4.15 15.1 -4.05
L 14.85 -5.1
Q 14.7 -6.2 12.45 -8.3 10.25 -10.4 8.1 -10.6 5.95 -10.65 3.7 -10.65 1.35 -10.6 -0.5 -10.65 -2.3 -10.65 -3.3 -10.6 -4.25 -10.65 -5.7 -10.75 -7 -10.95 -7.5 -11.2 -7.7 -11.2 -8.3 -11 -13.45 -10 -15.8 -6.75 -15.6 -5.9 -15.2 -4.75 -7.6345703125 -9.5318359375 4.3 -5.7
L 3.15 -8.25 2.4 -7.2 3.15 -8.25 3 -8.6 0.5 -9.2 3 -8.6 3.15 -8.25 Z"/>

<path fill="#655245" stroke="none" d="
M 4.3 -5.55
L 4.3 -5.7
Q -7.6345703125 -9.5318359375 -15.2 -4.75 -14.15 -1.85 -11.85 2.4 -8.7 8.35 -0.95 7.7 6.7 7.15 9.75 4.2 12.75 1.35 13.1 1 13.3 0.6 14.2 -0.7 14.4 -0.9 14.6 -1.2 12.5271484375 -2.306640625 10.55 -3.25 9.916796875 -3.512890625 9.3 -3.8 8.2767578125 -4.217578125 7.25 -4.6
L 6.3 -3.3 7.25 -4.6
Q 6.82578125 -4.7833984375 6.35 -4.95 5.644921875 -5.22265625 4.9 -5.5
L 4.3 -5.55
M 4.3 -5.7
L 4.3 -5.55 4.9 -5.5
Q 4.612890625 -5.5734375 4.3 -5.7 Z"/>
</g>

<g id="Duplicate_Items_Folder_head_copy_4_0_Layer7_0_FILL">
<path fill="#A58C7C" stroke="none" d="
M -13.2 15.05
L -15 20.95 -12.3 19.9 -12.9 23.65 -9.85 21.5
Q -9.25 24.65 -9.2 24.6 -6.85 21.5 -4.9 20.25
L -8.8 17.8 -10.15 18.95 -10.25 17
Q -11.95 16.65 -13.2 15.05
M 4.9 19.85
L 3.55 18.7 -0.35 21.15
Q 1.6 22.4 3.95 25.5 4 25.55 4.6 22.4
L 7.65 24.55 7.05 20.8 9.75 21.85 7.95 15.95
Q 6.7 17.55 5 17.9
L 4.9 19.85 Z"/>
</g>

<g id="Duplicate_Items_Folder_head_copy_4_0_Layer6_0_FILL">
<path fill="#836D5A" stroke="none" d="
M -16.9 4.5
L -14.75 4.4
Q -16.85 6 -18.25 10.25 -16 9.6 -15.5 10.15 -16.65 12.6 -17.05 16.1 -14.85 15.75 -13.75 17.05
L -10.7 -2.2
Q -15.1 0.5 -16.9 4.5
M 9.25 18.55
Q 11.1 17.65 13.25 18.15 13.1 14.65 12.1 12.1 12.7 11.6 14.9 12.4 13.8 8.05 11.85 6.25
L 13.95 6.55
Q 12.45 2.45 8.25 -0.6
L 9.25 18.55 Z"/>
</g>

<g id="Duplicate_Items_Folder_head_copy_4_0_Layer5_0_FILL">
<path fill="#836D5A" stroke="none" d="
M 10.3 10.1
Q 11.1 12.1 9.55 18 9.6 17.9 9.7 17.85 11.25 12.05 10.3 10.1
M -13.25 17.55
Q -13.8 15.35 -13.85 13.55 -13.85 15.3 -13.75 17.2 -13.5 17.4 -13.25 17.55 Z"/>

<path fill="#655245" stroke="none" d="
M 7.8 -1.65
Q 6.2 -2.35 4.65 -2.85 -3.45 -5.5 -10.15 -1.85 -13.9 -0.25 -13.85 12.85 -13.8 10.55 -12.95 8.95 -13.8 10.55 -13.85 12.85 -13.85 13.2 -13.85 13.55 -13.8 15.35 -13.25 17.55 -8.25 21.1 -3.85 22.05 3.45 23.55 9.55 18 11.1 12.1 10.3 10.1 10.6 2.35 7.8 -1.65 Z"/>
</g>

<g id="Duplicate_Items_Folder_head_copy_4_0_Layer4_0_FILL">
<path fill="#655245" stroke="none" d="
M -13.45 5.75
L -11 10.25 -5.35 4.1
Q -6.2650390625 2.861328125 -7.9 2.05 -9.5349609375 1.238671875 -9.05 4.85
L -13.45 1.85 -11.1 5.95 -13.45 5.75
M 1.1 5.1
L 6.75 11.25 9.25 6.75 6.85 6.95 9.25 2.85 4.85 5.85
Q 5.300390625 2.2455078125 4.15 2.5 3.0486328125 2.7634765625 1.1 5.1 Z"/>
</g>

<g id="Duplicate_Items_Folder_head_copy_4_0_Layer3_0_FILL">
<path fill="#BAA99A" stroke="none" d="
M 1 19.7
L 1.5 9.3
Q -0.8 5.4 -4.7 8.5
L -6.85 19 1 19.7 Z"/>
</g>

<g id="Duplicate_Items_Folder_ear_0_Layer0_0_FILL">
<path fill="#000000" stroke="none" d="
M 1.6 -9.9
Q 3.1 -11.2 4.45 -12.15 5.7 -13.15 7 -13.75
L 5.95 -15.7
Q 3.1 -17.6 -2.25 -17.6 -7.6 -17.65 -9.5 -17.35 -9.7 -17.25 -9.9 -17.25 -3.15 -12.8 -1.7 -7.3 -1.35 -7.8 -0.7 -8.25 0 -8.65 1.6 -9.9 Z"/>
</g>

<g id="Duplicate_Items_Folder_head_copy_4_0_Layer1_0_FILL">
<path fill="#A58C7C" stroke="none" d="
M 3.4 -1.15
L 2.3 -6.4 0.75 -4.6 -0.2 -9.4 -1.45 -4.05
Q -3.4 -7.2 -3.4 -7.15 -3.85 -3.8 -4.7 -2.15
L -0.9 -1.65 -0.4 -3.05 0.45 -1.5
Q 1.85 -1.9 3.4 -1.15 Z"/>
</g>

<g id="Duplicate_Items_Folder_eye_copy_2_0_Layer1_0_FILL">
<path fill="#000000" stroke="none" d="
M 45.4 47.9
Q 48.2 42.35 49.1 35.05 49.9 27.75 46.05 22.6 42.2 17.45 37 18.1 31.85 18.7 24.7 23.55 17.644921875 28.3439453125 16.3 39.1 15.01484375 49.86796875 21.15 51.9 27.3349609375 53.9318359375 34.9 53.65 42.5048828125 53.405859375 45.4 47.9 Z"/>
</g>

<g id="pupil_0_Layer0_0_FILL">
<path fill="#FF0000" stroke="none" d="
M 1.5 -1.4
Q 0.95 -2 0.15 -2 -0.65 -2 -1.25 -1.4 -1.8 -0.75 -1.8 0.15 -1.8 1.05 -1.25 1.65 -0.65 2.3 0.15 2.3 0.95 2.3 1.5 1.65 2.1 1.05 2.1 0.15 2.1 -0.75 1.5 -1.4 Z"/>
</g>

<g id="Duplicate_Items_Folder_nose_copy_2_0_Layer0_0_FILL">
<path fill="#000000" stroke="none" d="
M 8.55 -0.2
Q 8.55 -2.9 6.6 -4.8 4.75 -6.65 2.1 -6.65
L -2.6 -6.65
Q -5.3 -6.65 -7.2 -4.8 -9.05 -2.9 -9.05 -0.2 -9.05 2.45 -7.2 4.35 -5.3 6.25 -2.6 6.25
L 2.1 6.25
Q 4.75 6.25 6.6 4.35 8.55 2.45 8.55 -0.2
M 1.7 -5.15
Q 2.75 -5.15 3.55 -4.85 -5.8 -4.35 -6.7 2.05 -7.15 1.1 -7.15 -0.05 -7.15 -2.15 -5.65 -3.65 -4.15 -5.15 -2 -5.15
L 1.7 -5.15 Z"/>

<path fill="#666666" stroke="none" d="
M 3.55 -4.85
Q 2.75 -5.15 1.7 -5.15
L -2 -5.15
Q -4.15 -5.15 -5.65 -3.65 -7.15 -2.15 -7.15 -0.05 -7.15 1.1 -6.7 2.05 -5.8 -4.35 3.55 -4.85 Z"/>
</g>

<path id="Duplicate_Items_Folder_tail_0_Layer0_0_1_STROKES" stroke="#000000" stroke-width="1" stroke-linejoin="round" stroke-linecap="round" fill="none" d="
M 0.25 -6.65
L -0.75 -2.5
Q -2.475390625 0.3349609375 -7.05 2.6
L -4.75 4.7 -1.7 1.7 0.65 3.15 0.65 -0.2 4.25 0.15 2.5 -2.55 6 -5.1 2.25 -5.35
Q 2.3984375 -7.575 4.5 -9.8 1.0103515625 -9.949609375 0.25 -6.65 Z"/>

<path id="Duplicate_Items_Folder_stand_body_0_Layer0_0_1_STROKES" stroke="#000000" stroke-width="1" stroke-linejoin="round" stroke-linecap="round" fill="none" d="
M 0.5 -9.2
L 3 -8.6 3.15 -8.25 3.7 -9
M 2.4 -7.2
L 3.15 -8.25 4.3 -5.675
M 4.925 -5.475
L 7.3 -5.15 6.35 -7.8
M 4.3 -5.675
L 4.3 -5.55 4.925 -5.475
M 7.275 -4.6
L 7.3 -5.15 9.85 -4.85
M 7.275 -4.6
L 6.3 -3.3"/>

<path id="Duplicate_Items_Folder_head_copy_4_0_Layer7_0_1_STROKES" stroke="#000000" stroke-width="1" stroke-linejoin="round" stroke-linecap="round" fill="none" d="
M -0.35 21.15
Q 1.6 22.4 3.95 25.5 4 25.55 4.6 22.4
L 7.65 24.55 7.05 20.8 9.75 21.85 7.95 15.95
M -4.9 20.25
Q -6.85 21.5 -9.2 24.6 -9.25 24.65 -9.85 21.5
L -12.9 23.65 -12.3 19.9 -15 20.95 -13.2 15.05"/>

<path id="Duplicate_Items_Folder_head_copy_4_0_Layer6_0_1_STROKES" stroke="#000000" stroke-width="1" stroke-linejoin="round" stroke-linecap="round" fill="none" d="
M 9.25 18.55
L 8.25 -0.6
Q 12.45 2.45 13.95 6.55
L 11.85 6.25
Q 13.8 8.05 14.9 12.4 12.7 11.6 12.1 12.1 13.1 14.65 13.25 18.15 11.1 17.65 9.25 18.55 Z
M -14.75 4.4
Q -16.85 6 -18.25 10.25 -16 9.6 -15.5 10.15 -16.65 12.6 -17.05 16.1 -14.85 15.75 -13.75 17.05
L -10.7 -2.2
Q -15.1 0.5 -16.9 4.5
L -14.75 4.4 Z"/>

<path id="Duplicate_Items_Folder_head_copy_4_0_Layer5_0_1_STROKES" stroke="#000000" stroke-width="1" stroke-linejoin="round" stroke-linecap="round" fill="none" d="
M -10.15 -1.85
Q -3.45 -5.5 4.65 -2.85 6.2 -2.35 7.8 -1.65
M 9.7 17.85
Q 9.6 17.9 9.55 18 3.45 23.55 -3.85 22.05 -8.25 21.1 -13.25 17.55 -13.5 17.4 -13.75 17.2
M -13.85 13.55
Q -13.85 13.2 -13.85 12.85 -13.8 10.55 -12.95 8.95
M -13.25 17.55
Q -13.8 15.35 -13.85 13.55
M 10.3 10.1
Q 11.1 12.1 9.55 18"/>

<path id="Duplicate_Items_Folder_head_copy_4_0_Layer4_0_1_STROKES" stroke="#000000" stroke-width="1" stroke-linejoin="round" stroke-linecap="round" fill="none" d="
M -5.35 4.1
Q -6.2650390625 2.861328125 -7.9 2.05 -9.5349609375 1.238671875 -9.05 4.85
L -13.45 1.85 -11.1 5.95 -13.45 5.75 -11 10.25"/>

<path id="Duplicate_Items_Folder_head_copy_4_0_Layer4_0_2_STROKES" stroke="#669999" stroke-width="1" stroke-linejoin="round" stroke-linecap="round" fill="none" d="
M 1.1 5.1
Q 3.0486328125 2.7634765625 4.175 2.5 5.300390625 2.2455078125 4.85 5.85
L 9.25 2.85 6.85 6.95 9.25 6.75 6.75 11.25"/>

<path id="Duplicate_Items_Folder_head_copy_4_0_Layer1_0_1_STROKES" stroke="#000000" stroke-width="1" stroke-linejoin="round" stroke-linecap="round" fill="none" d="
M -4.7 -2.15
Q -3.85 -3.8 -3.4 -7.15 -3.4 -7.2 -1.45 -4.05
L -0.2 -9.4 0.75 -4.6 2.3 -6.4 3.4 -1.15"/>
</defs>

<g transform="matrix( 5.4785308837890625, 0, 0, 5.4785308837890625, 235.35,436.85) ">
<g transform="matrix( 1, 0, 0, 1, 0,0) ">
<use xlink:href="#Duplicate_Items_Folder_leg_3_0_Layer2_0_FILL"/>
</g>

<g transform="matrix( 1, 0, 0, 1, 0,0) ">
<use xlink:href="#Duplicate_Items_Folder_leg_3_0_Layer1_0_FILL"/>
</g>

<g transform="matrix( 1, 0, 0, 1, 0,0) ">
<use xlink:href="#Duplicate_Items_Folder_leg_3_0_Layer0_0_FILL"/>
</g>
</g>

<g transform="matrix( 5.4785308837890625, 0, 0, 5.4785308837890625, 352.05,421.9) ">
<g transform="matrix( 1, 0, 0, 1, 0,0) ">
<use xlink:href="#Duplicate_Items_Folder_leg_3_0_Layer2_0_FILL"/>
</g>

<g transform="matrix( 1, 0, 0, 1, 0,0) ">
<use xlink:href="#Duplicate_Items_Folder_leg_3_0_Layer1_0_FILL"/>
</g>

<g transform="matrix( 1, 0, 0, 1, 0,0) ">
<use xlink:href="#Duplicate_Items_Folder_leg_3_0_Layer0_0_FILL"/>
</g>
</g>

<g transform="matrix( 6.6303863525390625, 0, 0, 6.6303863525390625, 439.6,342.35) ">
<g transform="matrix( 1, 0, 0, 1, 0,0) ">
<use xlink:href="#Duplicate_Items_Folder_tail_0_Layer0_0_FILL"/>

<use xlink:href="#Duplicate_Items_Folder_tail_0_Layer0_0_1_STROKES"/>
</g>
</g>

<g transform="matrix( 6.6002349853515625, 0.6097412109375, -0.6097412109375, 6.6002349853515625, 315.25,420.25) ">
<g transform="matrix( 1, 0, 0, 1, 0,0) ">
<use xlink:href="#Duplicate_Items_Folder_stand_body_0_Layer0_0_FILL"/>

<use xlink:href="#Duplicate_Items_Folder_stand_body_0_Layer0_0_1_STROKES"/>
</g>
</g>

<g transform="matrix( 6.6303863525390625, 0, 0, 6.6303863525390625, 296.7,454.4) ">
<g transform="matrix( 1, 0, 0, 1, 0,0) ">
<use xlink:href="#Duplicate_Items_Folder_leg_3_0_Layer2_0_FILL"/>
</g>

<g transform="matrix( 1, 0, 0, 1, 0,0) ">
<use xlink:href="#Duplicate_Items_Folder_leg_3_0_Layer1_0_FILL"/>
</g>

<g transform="matrix( 1, 0, 0, 1, 0,0) ">
<use xlink:href="#Duplicate_Items_Folder_leg_3_0_Layer0_0_FILL"/>
</g>
</g>

<g transform="matrix( 6.44940185546875, 0, 0, 5.60491943359375, 408.75,445.8) ">
<g transform="matrix( 1, 0, 0, 1, 0,0) ">
<use xlink:href="#Duplicate_Items_Folder_leg_3_0_Layer2_0_FILL"/>
</g>

<g transform="matrix( 1, 0, 0, 1, 0,0) ">
<use xlink:href="#Duplicate_Items_Folder_leg_3_0_Layer1_0_FILL"/>
</g>

<g transform="matrix( 1, 0, 0, 1, 0,0) ">
<use xlink:href="#Duplicate_Items_Folder_leg_3_0_Layer0_0_FILL"/>
</g>
</g>

<g transform="matrix( 6.5777740478515625, -0.81219482421875, 0.81219482421875, 6.5777740478515625, 197.9,268.75) ">
<g transform="matrix( 1, 0, 0, 1, 0,0) ">
<use xlink:href="#Duplicate_Items_Folder_head_copy_4_0_Layer7_0_FILL"/>

<use xlink:href="#Duplicate_Items_Folder_head_copy_4_0_Layer7_0_1_STROKES"/>
</g>

<g transform="matrix( 1, 0, 0, 1, 0,0) ">
<use xlink:href="#Duplicate_Items_Folder_head_copy_4_0_Layer6_0_FILL"/>

<use xlink:href="#Duplicate_Items_Folder_head_copy_4_0_Layer6_0_1_STROKES"/>
</g>

<g transform="matrix( 1, 0, 0, 1, 0,0) ">
<use xlink:href="#Duplicate_Items_Folder_head_copy_4_0_Layer5_0_FILL"/>

<use xlink:href="#Duplicate_Items_Folder_head_copy_4_0_Layer5_0_1_STROKES"/>
</g>

<g transform="matrix( 1, 0, 0, 1, 0,0) ">
<use xlink:href="#Duplicate_Items_Folder_head_copy_4_0_Layer4_0_FILL"/>

<use xlink:href="#Duplicate_Items_Folder_head_copy_4_0_Layer4_0_1_STROKES"/>

<use xlink:href="#Duplicate_Items_Folder_head_copy_4_0_Layer4_0_2_STROKES"/>
</g>

<g transform="matrix( 1, 0, 0, 1, 0,0) ">
<use xlink:href="#Duplicate_Items_Folder_head_copy_4_0_Layer3_0_FILL"/>
</g>

<g transform="matrix( 0.572662353515625, -0.370330810546875, 0.405120849609375, 0.71881103515625, 12.45,5.2) ">
<g transform="matrix( 1, 0, 0, 1, 0,0) ">
<use xlink:href="#Duplicate_Items_Folder_ear_0_Layer0_0_FILL"/>
</g>
</g>

<g transform="matrix( -0.53839111328125, -0.4446258544921875, -0.43304443359375, 0.60174560546875, -14.9,2.55) ">
<g transform="matrix( 1, 0, 0, 1, 0,0) ">
<use xlink:href="#Duplicate_Items_Folder_ear_0_Layer0_0_FILL"/>
</g>
</g>

<g transform="matrix( 1, 0, 0, 1, 0,0) ">
<use xlink:href="#Duplicate_Items_Folder_head_copy_4_0_Layer1_0_FILL"/>

<use xlink:href="#Duplicate_Items_Folder_head_copy_4_0_Layer1_0_1_STROKES"/>
</g>

<g transform="matrix( 0.276519775390625, -0.060333251953125, 0.0525970458984375, 0.2305908203125, -17.9,4.15) ">
<g transform="matrix( 1, 0, 0, 1, 0,0) ">
<use xlink:href="#Duplicate_Items_Folder_eye_copy_2_0_Layer1_0_FILL"/>
</g>

<g transform="matrix( 1.96246337890625, -0.242340087890625, 0.243896484375, 1.97503662109375, 36.45,34.7) ">
<g transform="matrix( 1, 0, 0, 1, 0,0) ">
<use xlink:href="#pupil_0_Layer0_0_FILL"/>
</g>
</g>
</g>

<g transform="matrix( -0.270416259765625, -0.0767974853515625, -0.0827178955078125, 0.224212646484375, 14.65,5.6) ">
<g transform="matrix( 1, 0, 0, 1, 0,0) ">
<use xlink:href="#Duplicate_Items_Folder_eye_copy_2_0_Layer1_0_FILL"/>
</g>

<g transform="matrix( 1.96246337890625, -0.242340087890625, 0.243896484375, 1.97503662109375, 36.45,34.7) ">
<g transform="matrix( 1, 0, 0, 1, 0,0) ">
<use xlink:href="#pupil_0_Layer0_0_FILL"/>
</g>
</g>
</g>

<g transform="matrix( 0.4740447998046875, 0.0212860107421875, -0.0228729248046875, 0.509765625, -2.95,20.6) ">
<g transform="matrix( 1, 0, 0, 1, 0,0) ">
<use xlink:href="#Duplicate_Items_Folder_nose_copy_2_0_Layer0_0_FILL"/>
</g>
</g>
</g>

<g transform="matrix( 6.6303863525390625, 0, 0, 6.6303863525390625, 226.75,496.2) "/>
</svg>
