
<svg xmlns="http://www.w3.org/2000/svg" version="1.1" xmlns:xlink="http://www.w3.org/1999/xlink" preserveAspectRatio="none" x="0px" y="0px" width="560px" height="544px" viewBox="0 0 560 544">
<defs>
<g id="feet_0_Layer0_0_FILL">
<path fill="#000000" stroke="none" d="
M 9.1 -1.85
L 9.05 -1.85
Q 8.8 -1.65 8.6 -1.3 8.5 -1.5 8.5 -1.65
L 8.4 -2.85 8.45 -3.05
Q 7.9 -2.7 8 -2.45 7.95 -2.45 7.95 -2.4
L 7.95 -2.35
Q 7.85 -2 8.15 -1.5 8.2 -1.3 8.35 -1.25 8.4 -1.15 8.6 -1.05 8.45 -0.65 8.35 -0.1
L 8.45 0.75
Q 8.55 1.8 9.1 2.55 9.65 3.25 10.45 3.75 10.25 4.05 10.2 4.25 10.1 4.3 10 4.55
L 9.85 4.55
Q 9.15 4.6 8.95 4.6 8.4 4.6 8.05 4.55
L 7.7 4.5
Q 7.5 4.5 7.4 4.45
L 7.2 4.4
Q 6 4.2 5.5 4
L 2.35 3.25 2.4 3.25
Q 1.2 3.05 0.6 2.95 -1.85 2.7 -3.2 3.55 -3.8 3.85 -4 4.35 -4.6 4.25 -5.15 4.3 -5.75 4.4 -6.15 4.55 -7.3 5 -7.4 7 -7.35 6.85 -6.45 6.45 -5.55 5.95 -4.2 6.2
L -3.9 6.3 -3.75 6.5
Q -3.85 6.7 -4 6.95 -4.6 6.9 -5.15 7 -5.5 7.05 -5.9 7.2 -6.75 7.6 -6.95 8.25 -7.3 8.85 -7.05 9.65 -7 9.8 -6.75 9.8 -6.65 9.8 -6.55 9.75 -5.5 8.85 -4.3 8.7 -3.9 8.65 -3.65 8.6 -3.25 9.2 -2.4 9.65 -1.55 10.05 -0.6 10.25 1.05 10.55 2.8 10.4 4.1 10.25 5.9 9.8 7.85 9.15 8.8 8.85 10.7 8.35 12 8.4 12.9 8.45 15.25 8.7 17.2 8.85 18.45 8.85 19.5 8.85 20.3 8.6 21.25 8.3 21.4 7.75 21.75 7.8 21.9 7.8 22.15 7.85 22.3 7.95 22.9 8.25 23.35 8.75 23.35 8.85 23.55 8.85 23.65 8.85 23.7 8.75 24.1 8.35 24.15 7.9 24.1 7.4 23.45 7.1 22.95 6.85 22.25 6.7 21.55 6.55 21.05 6.75
L 21 6.75 20.9 6.65
Q 19.6 5.05 17.45 5.2 16.75 5.2 15.3 5.35 13.95 5.3 13.3 4.65 13.35 4.6 13.25 4.5
L 13.2 4
Q 14.15 3.75 14.95 3.1 15.65 2.55 16.2 1.8 16.4 1.35 16.55 1.1
L 16.75 0.15
Q 16.85 -0.8 16.9 -0.95 16.7 -1.9 16.5 -2.3 16.4 -2.45 16.4 -2.6 16.3 -2.7 16.2 -2.7 16.05 -2.7 16.1 -2.6 16.1 -2.45 16.1 -2.3 16 -2 16.05 -1.55 16.15 -0.8 16.15 -0.5 16.05 -0.3 16.1 -0.2 16.1 0.05 16.05 0.3 15.85 0.7 15.55 1.2 15.25 1.8 14.75 2.25 14 3.05 13 3.3
L 12.8 3.4 12.3 3.55
Q 12 3.55 11.85 3.55
L 11.6 3.55
Q 10.8 3.4 10.05 2.75
L 9.7 2.3
Q 9.15 1.6 8.95 0.65 8.9 0.35 8.95 0
L 8.95 -0.05
Q 8.95 -0.3 9 -0.9 9.1 -1.5 9.1 -1.8
L 9.1 -1.85
M 23 7.25
Q 23.8 7.6 23.5 8.35 23.35 8.15 23.25 8.1 22.9 7.75 22.35 7.55 21.8 7.3 21.35 7.35
L 21.3 7.15
Q 21.25 7.05 21.25 6.95 21.8 7 22.2 7.05 22.65 7.1 23 7.25
M 20.4 6.95
Q 20.75 7.4 20.65 7.6 20.65 7.9 20.3 7.95 19.7 8.25 18.75 8.3 18.25 8.35 17.15 8.3 16.9 8.3 13.9 8 11.95 7.85 10.7 8 9.45 8.2 7.35 8.75 5.05 9.45 4 9.6 2.9 9.8 2.1 9.85 0.95 9.95 0.05 9.8 -1.95 9.45 -2.85 8.65
L -2.65 8.7
Q -2.5 8.7 -2.15 8.85 -1.85 8.9 -1.55 8.95 -1.5 8.95 -1.55 8.85 -1.45 8.85 -1.55 8.75 -2.05 8.3 -3.2 8.2 -3.6 8.15 -3.95 8.15
L -4.2 8.25
Q -5.55 8.35 -6.55 9.05 -6.6 8.75 -6.55 8.5 -6.3 7.7 -5.35 7.45
L -5 7.4
Q -4.5 7.35 -4.05 7.4 -3.8 7.4 -3.35 7.55 -2.65 7.6 -2.65 7.65 -2.6 7.65 -2.55 7.6 -2.75 7.25 -3.3 7.15 -3.1 6.65 -2.55 6.25 -2.05 5.9 -1.4 5.8 -0.7 5.7 0.3 5.75 0.85 5.85 2.05 6.05 4 6.4 5.2 6.45 7.05 6.5 8.4 6.1 8.45 6.1 8.4 6 8.4 5.95 8.35 5.95 7.2 6.25 5.4 6.1 4.4 6.05 2.35 5.7 0.65 5.35 -0.05 5.25 -1.35 5.15 -2.35 5.45 -2.65 5.55 -2.85 5.75 -3.2 5.9 -3.45 6.1
L -3.5 5.9
Q -3.5 5.75 -3.65 5.75 -3.8 5.75 -4.05 5.8
L -4.15 5.75
Q -4.95 5.4 -6.05 5.75 -6.5 5.85 -6.95 6.05 -6.8 5.9 -6.75 5.75 -6.65 5.55 -6.5 5.4 -6.1 5 -5.5 4.85 -5.25 4.75 -4.85 4.75 -4.65 4.75 -4.2 4.75 -4.15 4.75 -4.05 4.75
L -3.6 4.75
Q -3.35 4.75 -3.15 4.75 -3.05 4.75 -3.05 4.7 -3 4.65 -3.05 4.65 -3.35 4.55 -3.5 4.5 -3.3 4.25 -3.1 4 -2.2 3.45 -1.05 3.35 -0.15 3.3 1.05 3.5 1.75 3.55 3 3.9 4.45 4.25 5.15 4.4 6.35 4.7 7.25 4.8 8.1 4.95 8.55 5 9.35 5 9.9 4.9 9.95 5 10.1 5 10.2 4.95 10.5 4.65
L 10.55 4.65
Q 10.55 4.5 10.65 4.25
L 10.75 3.9
Q 11.7 4.25 12.65 4.15
L 12.8 4.1 12.85 4.25
Q 12.65 4.3 12.75 4.4
L 12.9 4.6
Q 12.9 4.65 12.95 4.75
L 12.95 4.85
Q 13.45 5.35 13.95 5.55 14.5 5.8 15.35 5.8 16.65 5.7 17.4 5.7 18.65 5.65 19.35 6.1 20 6.5 20.4 6.95 Z"/>

<path fill="#333333" stroke="none" d="
M 20.65 7.6
Q 20.75 7.4 20.4 6.95 20 6.5 19.35 6.1 18.65 5.65 17.4 5.7 16.65 5.7 15.35 5.8 14.5 5.8 13.95 5.55 13.45 5.35 12.95 4.85
L 12.95 4.75
Q 12.9 4.65 12.9 4.6
L 12.75 4.4
Q 12.65 4.3 12.85 4.25
L 12.8 4.1 12.65 4.15
Q 11.7 4.25 10.75 3.9
L 10.65 4.25
Q 10.55 4.5 10.55 4.65
L 10.5 4.65
Q 10.2 4.95 10.1 5 9.95 5 9.9 4.9 9.35 5 8.55 5 8.1 4.95 7.25 4.8 6.35 4.7 5.15 4.4 4.45 4.25 3 3.9 1.75 3.55 1.05 3.5 -0.15 3.3 -1.05 3.35 -2.2 3.45 -3.1 4 -3.3 4.25 -3.5 4.5 -3.35 4.55 -3.05 4.65 -3 4.65 -3.05 4.7 -3.05 4.75 -3.15 4.75 -3.35 4.75 -3.6 4.75
L -4.05 4.75
Q -4.15 4.75 -4.2 4.75 -4.65 4.75 -4.85 4.75 -5.25 4.75 -5.5 4.85 -6.1 5 -6.5 5.4 -6.65 5.55 -6.75 5.75 -6.8 5.9 -6.95 6.05 -6.5 5.85 -6.05 5.75 -4.95 5.4 -4.15 5.75
L -4.05 5.8
Q -3.8 5.75 -3.65 5.75 -3.5 5.75 -3.5 5.9
L -3.45 6.1
Q -3.2 5.9 -2.85 5.75 -2.65 5.55 -2.35 5.45 -1.35 5.15 -0.05 5.25 0.65 5.35 2.35 5.7 4.4 6.05 5.4 6.1 7.2 6.25 8.35 5.95 8.4 5.95 8.4 6 8.45 6.1 8.4 6.1 7.05 6.5 5.2 6.45 4 6.4 2.05 6.05 0.85 5.85 0.3 5.75 -0.7 5.7 -1.4 5.8 -2.05 5.9 -2.55 6.25 -3.1 6.65 -3.3 7.15 -2.75 7.25 -2.55 7.6 -2.6 7.65 -2.65 7.65 -2.65 7.6 -3.35 7.55 -3.8 7.4 -4.05 7.4 -4.5 7.35 -5 7.4
L -5.35 7.45
Q -6.3 7.7 -6.55 8.5 -6.6 8.75 -6.55 9.05 -5.55 8.35 -4.2 8.25
L -3.95 8.15
Q -3.6 8.15 -3.2 8.2 -2.05 8.3 -1.55 8.75 -1.45 8.85 -1.55 8.85 -1.5 8.95 -1.55 8.95 -1.85 8.9 -2.15 8.85 -2.5 8.7 -2.65 8.7
L -2.85 8.65
Q -1.95 9.45 0.05 9.8 0.95 9.95 2.1 9.85 2.9 9.8 4 9.6 5.05 9.45 7.35 8.75 9.45 8.2 10.7 8 11.95 7.85 13.9 8 16.9 8.3 17.15 8.3 18.25 8.35 18.75 8.3 19.7 8.25 20.3 7.95 20.65 7.9 20.65 7.6
M 23.5 8.35
Q 23.8 7.6 23 7.25 22.65 7.1 22.2 7.05 21.8 7 21.25 6.95 21.25 7.05 21.3 7.15
L 21.35 7.35
Q 21.8 7.3 22.35 7.55 22.9 7.75 23.25 8.1 23.35 8.15 23.5 8.35 Z"/>

<path fill="#3B414C" stroke="none" d="
M 9.05 -1.85
L 9.1 -1.85 9.1 -1.8
Q 9.1 -1.5 9 -0.9 8.95 -0.3 8.95 -0.05
L 8.95 0
Q 8.9 0.35 8.95 0.65 9.15 1.6 9.7 2.3
L 10.05 2.75
Q 10.8 3.4 11.6 3.55
L 11.85 3.55
Q 12 3.55 12.3 3.55
L 12.8 3.4 13 3.3
Q 14 3.05 14.75 2.25 15.25 1.8 15.55 1.2 15.85 0.7 16.05 0.3 16.1 0.05 16.1 -0.2 16.05 -0.3 16.15 -0.5 16.15 -0.8 16.05 -1.55 16 -2 16.1 -2.3 12.25 -4.45 8.4 -2.85
L 8.5 -1.65
Q 8.5 -1.5 8.6 -1.3 8.8 -1.65 9.05 -1.85 Z"/>
</g>

<g id="feet_0_Layer0_1_FILL">
<path fill="#FFB600" stroke="none" d="
M 20.35 7
L 20.4 6.95
Q 20.05 6.5 19.4 6.05 18.75 5.6 17.4 5.65 16.7 5.7 15.3 5.8 14.5 5.8 14 5.55 13.45 5.3 13.05 4.8
L 12.9 4.75
Q 12.85 4.65 12.85 4.55
L 12.85 4.5
Q 12.4 4.65 11.85 4.6 11.35 4.55 10.85 4.3 10.75 4.25 10.7 4.15
L 10.65 4.25
Q 10.6 4.5 10.45 4.6
L 10.45 4.65
Q 10.3 4.9 10.05 4.95 9.95 4.95 9.9 4.85 9.35 4.95 8.6 4.95 8.05 4.9 7.25 4.8 6.35 4.7 5.15 4.4 4.45 4.25 3.05 3.9 1.8 3.6 1 3.45 -0.15 3.3 -1.05 3.35 -2.15 3.4 -3 4 -3.35 4.2 -3.45 4.5 -3.3 4.55 -3.1 4.65
L -3.1 4.7
Q -3.05 4.75 -3.1 4.75 -3.25 4.75 -3.55 4.75
L -4 4.75
Q -4.15 4.75 -4.2 4.75 -4.65 4.75 -4.85 4.75 -5.2 4.75 -5.5 4.85 -6.1 4.95 -6.45 5.35 -6 5 -4.8 5.2 -4 5.35 -3.15 5.65
L -3.1 5.7
Q -2.95 5.65 -2.9 5.7
L -2.85 5.7
Q -2.55 5.55 -2.35 5.45 -1.4 5.15 0 5.25 0.65 5.3 2.4 5.65 4.45 6 5.4 6.1 7.2 6.25 8.3 5.95 8.4 5.9 8.45 6 8.5 6.05 8.4 6.1 7.1 6.5 5.3 6.45 4.1 6.35 2.05 6.05 0.8 5.85 0.3 5.8 -0.65 5.7 -1.4 5.8 -2.05 5.9 -2.6 6.25 -3.1 6.6 -3.3 7.1 -2.8 7.25 -2.55 7.55
L -2.5 7.6
Q -2.55 7.65 -2.6 7.65 -2.7 7.65 -3.35 7.5 -3.8 7.4 -4.1 7.4 -4.55 7.3 -5 7.4
L -5.3 7.45
Q -6.25 7.7 -6.5 8.5 -6.2 8.2 -5.45 8 -4.95 7.85 -4.4 7.8 -3.8 7.75 -3 7.9 -1.95 8.1 -1.65 8.5 -1.35 8.65 -1.15 8.7 -0.45 8.9 0.6 9.05 1.5 9.15 2.45 9.1 3.3 9 4.35 8.8 5 8.65 7.65 7.95 9.65 7.4 11.05 7.25 12.05 7.15 13.4 7.3 15 7.45 15.8 7.55 17.3 7.65 18.45 7.6 19.85 7.55 20.15 7.15 20.2 7.05 20.35 7 Z"/>
</g>

<g id="feet_0_Layer0_2_FILL">
<path fill="#666666" stroke="none" d="
M 129.1 395.05
L 128.55 394.95 128.55 395.2 128.8 395.1 129.1 395.05 Z"/>
</g>

<g id="feet_0_Layer0_3_FILL">
<path fill="#7E5A00" stroke="none" d="
M 216.9 426.65
L 215.95 426.9
Q 215.4 427.05 213.25 427.8 211.6 428.4 210.5 428.55 209.95 428.65 209.7 428.2 209.45 427.75 209.8 427.35 212.45 424.05 218.6 423.4 221.05 423.25 222.65 423.35
L 224.35 423.55
Q 231.65 424.65 237.7 429.6 237.6 427.45 236.95 425.5 234.95 423.55 231.05 422.25 228.05 421.3 224.95 420.95 221.7 420.55 217.2 421.65 211.75 423 210.6 425.75 208.7 426.75 207.7 427.15 204.2 428.55 198.5 429.55 193.8 430.35 188.2 429.7 183.8 429.25 178.05 427.75 174.15 426.8 159.3 421.85 147.8 418 140.3 417.1 134.7 416.4 127.25 417.2 118.65 418.4 114.25 418.9 106.2 419.85 100.1 419.45 92.4 419.05 90.35 416.3 89.85 415.6 89.1 415.35
L 89.2 415.35
Q 89.05 415.05 88.75 414.9 87.3 417.7 87.85 419.65 88.85 421.05 90.1 422 93.45 423.65 98.55 424 101.4 424.2 107.35 424 108.8 423.95 124.9 422.1 135.65 420.9 142.45 422.15 149.5 423.45 161.3 427.45 174.6 431.95 180 433.25 186.3 434.75 190.85 435.2 196.9 435.75 201.8 434.65 212.85 432.15 216.9 426.65 Z"/>
</g>

<g id="feet_0_Layer0_4_FILL">
<path fill="#7E5A00" stroke="none" d="
M 139.85 395.2
L 139.25 393.55 139.25 393.5
Q 134.5 396.25 129.1 395.05
L 128.8 395.1 128.55 395.2 128.55 396.15
Q 129.05 396.5 128.9 397
L 128.6 397.85
Q 130.9 398.9 133.95 398.4 136.7 398 139 396.5 139.75 396.1 139.85 395.2 Z"/>
</g>

<g id="Duplicate_Items_Folder_body_0_Layer4_0_FILL">
<path fill="#494F5E" stroke="none" d="
M 35.8 -27.05
Q 36 -26.85 36.25 -26.9
L 35.6 -27.15 35.8 -27.05
M 67.75 -3.7
L 67.5 -3.15 67.95 -3.8 67.75 -3.7
M 38.4 -4.2
Q 38.2 -3.4 38 -2.8 36.9 0.8 34.55 4.2 34.95 4.3 35.1 4.45
L 36.3 5.4
Q 36.95 5.95 38.3 7.15 40.45 9 42.9 10.45 45.35 11.9 48.05 12.6 48.55 12.75 49.35 12.85 50.2 12.95 50.65 13 51 13.05 51.55 13.05 52.15 13.05 52.45 13.05 51.6 12.65 49.85 11.85 48.35 11.15 47.4 10.5 44.45 9.6 42.2 7.7 42.15 7.65 42.15 7.5 42.2 7.4 42.3 7.35 41.5 6.6 41.1 5.85
L 41.1 5.8
Q 41.15 5.75 41.2 5.8 42.85 6.5 43.7 6.85 45.1 7.4 46.25 7.7 48.1 8.15 49.05 8.3 50.65 8.6 51.95 8.65 54.6 8.8 57 8.3 59.6 7.75 61.65 6.5 59.2 6.5 58.7 6.5 55.75 6.35 54.3 6.2 52 5.95 50 5.35 48.95 5.05 48 4.4 47.25 4.15 46.6 3.75 45.8 3.25 45.55 2.65 45.45 2.45 45.6 2.4 46.05 2.2 46.7 2.25 47.5 2.45 47.85 2.5 50.2 2.95 51.25 3.05 54.4 3.45 57.6 2.6 60.35 1.85 62.85 0.05 63.75 -0.6 64.75 -1.6 65 -1.85 66.35 -3.3
L 64.25 -2.65
Q 62 -2 59.05 -1.55 56.75 -1.25 55.25 -1.2 53 -1.1 51.4 -1.5 50.35 -1.65 48.9 -2.35 48.85 -2.35 48.85 -2.45 48.85 -2.5 48.95 -2.5 49.5 -2.6 50.85 -2.9 52.1 -3.15 52.85 -3.25 55.1 -3.55 57.1 -4.45 58.9 -5.2 60.45 -6.55 61 -7 61.85 -8 59.7 -7.15 59.5 -7.1 58.15 -6.6 57.1 -6.3 53.2 -5.2 48.9 -4.55 45.2 -3.95 42.5 -3.65 39.8 -3.35 38.4 -4.2
M -2.05 -62.9
Q -2.9 -62.65 -3.85 -62.1 -3.95 -62.05 -5.55 -61.1 -5.65 -61.05 -5.7 -61.15 -5.75 -61.2 -5.7 -61.25 -5.4 -62.05 -4.6 -62.65 -5.25 -62.55 -6.4 -62.35 -7.7 -62.15 -9.75 -61.85 -12.55 -61.45 -13.8 -61.45 -13.25 -60.8 -12.75 -59.95 -12 -58.7 -11.6 -56.75 -11.4 -55.6 -11.1 -53.3 -11.05 -53.5 -10.9 -53.65 -10.65 -54.15 -10.15 -54.8 -9.55 -55.5 -9.25 -55.85 -7.5 -58 -4.45 -59.85 -1.75 -61.45 1.05 -61.9 4 -62.35 6.8 -61.45 9.25 -60.6 11.05 -58.85 12.9 -57 13.6 -54.55 14.25 -52.25 13.4 -49.5 13 -48.3 12.15 -47.55 11.6 -47.05 10.25 -46.3 17.6 -38.6 20 -30.1 21.85 -23.45 22.5 -19.95 23.5 -14.1 22.85 -9.55 22.35 -5.85 20.25 -2.35 18.2 0.95 15.1 3.5 12 6.1 8.3 7.5 4.55 8.95 0.8 8.95 -1.65 8.9 -4.35 8.05 -6.5 7.35 -9.1 6 -11.9 4.55 -13.6 3.05 -12.9 4.35 -12.1 5.55 -11.4 6.55 -10.55 7.55 -10.3 7.5 -10.15 7.65 -7.3 10.35 -3.15 11.6 0.35 12.65 4.85 12.75 8.8 12.8 12.65 11.9 16.5 11.05 20.05 9.3 23.3 7.65 26.3 5 28.9 2.7 31.5 -0.55 33.95 -3.55 35.45 -6.55 37.25 -10.1 37.65 -13.35 37.55 -14.4 37.45 -15.15 36.7 -20 34.4 -25.4 32.6 -29.6 29.45 -34.85 27.1 -38.75 23.2 -43.95 18.75 -49.8 16.55 -52.75 15.1 -54.75 12.65 -58.7 12.5 -58.9 12.75 -59.05 13 -59.15 13.15 -58.95 14 -57.65 14.5 -57
L 14.7 -57
Q 16.6 -57.25 18.4 -57.1 20.45 -56.9 22.05 -56.2 20.8 -58.4 17.9 -60 16.85 -60.6 14.9 -61.2 12.75 -61.9 11.9 -62.3 11.85 -62.35 11.85 -62.4 11.9 -62.5 12 -62.5 12.85 -62.55 13.8 -62.4 14.45 -62.6 15.1 -62.75 16.45 -63 18.15 -63 15.75 -64.35 12.95 -64.7 11.65 -64.8 9.8 -64.7 9.5 -64.65 8.3 -64.4 7.35 -64.25 6.75 -64.25 6.6 -64.25 6.6 -64.35 6.55 -64.5 6.65 -64.55 6.85 -64.7 7.2 -64.85
L 7.2 -64.9 7.25 -65.05
Q 7.4 -65.75 7.5 -66.05 7.65 -66.65 7.6 -67.05 7.25 -66.85 6.15 -66.05 5.3 -65.35 4.7 -65.05 3.65 -64.5 1.5 -63.9 -1.1 -63.2 -2.05 -62.9
M 34.7 -18.7
Q 34.75 -18.65 34.75 -18.6 34.7 -17.8 34 -17.2 33.7 -16.75 33.15 -16.45 32.05 -15.9 30.5 -16.2 29.95 -15.35 28.85 -15 27.85 -14.75 26.65 -14.95 25.05 -15 24.35 -15.9
L 24.3 -15.9
Q 24.25 -15.9 24.25 -16 24.2 -16.2 24.3 -16.35 24.35 -16.5 24.55 -16.5 24.9 -16.5 26.1 -16.25 27 -16.05 27.65 -16.1 27.75 -16.1 28.4 -16.4 29 -16.6 29.25 -16.6 29.25 -16.65 29.25 -16.7 29.3 -16.75 29.35 -16.75
L 30.45 -16.65 30.5 -16.7
Q 30.55 -16.75 30.65 -16.75 30.7 -16.7 30.7 -16.65
L 30.85 -16.65
Q 30.45 -16.85 30.2 -17.15 30.1 -17.3 30.15 -17.45 30.2 -17.65 30.45 -17.65 30.7 -17.65 31.5 -17.55 32.1 -17.45 32.55 -17.55 33.05 -17.65 33.9 -18.25
L 33.9 -18.5
Q 33.9 -18.6 34 -18.6 34.1 -18.6 34.15 -18.55
L 34.15 -18.45
Q 34.4 -18.6 34.6 -18.7 34.65 -18.75 34.7 -18.7
M 30 -16.3
L 29.45 -16.45
Q 29.65 -16.2 29.45 -15.9 29.7 -16.05 30.05 -16.3
L 30 -16.3 Z"/>

<path fill="#000000" stroke="none" d="
M -82.45 -44.75
Q -83.05 -41.55 -82.85 -38 -82.75 -36.3 -82.55 -34.6 -81.9 -30.05 -80.05 -24.7 -78.5 -20.35 -76.55 -17.3 -74.25 -13.65 -71.05 -11.4 -70.65 -11.1 -70.1 -10.8
L -70 -10.65
Q -69.85 -10.35 -69.55 -10.55 -69.25 -10.7 -69.4 -11 -70.85 -13.4 -69.7 -17.7 -69.3 -18.6 -68.65 -19.5 -66.6 -22.25 -62.65 -24.1 -59.4 -25.6 -55.45 -26.3 -51.15 -27.1 -44.65 -26.85 -37.35 -26.4 -33.75 -26.4 -29.85 -26.4 -26.6 -26.8 -22.85 -27.25 -19.6 -28.25 -16.3 -29.3 -13.5 -30.85
L -13 -31.1
Q -11.25 -32.15 -9.75 -33.3 -9.971484375 -32.72421875 -10.25 -31.7 -10.2537109375 -31.587890625 -10.3 -31.5 -10.287109375 -31.453515625 -10.3 -31.4 -10.4 -31 -10.65 -30.45 -10.7529296875 -30.205859375 -12.15 -27.3 -13.4923828125 -24.40390625 -12.35 -26.95 -12.1083984375 -27.4625 -12.15 -27.8 -13.1517578125 -25.70625 -13.6 -24.95 -14.7 -23.05 -15.45 -21.3 -16.85 -18.15 -17.5 -14.65
L -17.85 -12.05
Q -18.1076171875 -9.7310546875 -17.7 -4.9
L -17.65 -4.9
Q -16.7 1.3 -13.2 6.35 -9.6 11.6 -4.05 14.45 -2.85 15.05 -1.55 15.55
L -1.05 15.8 -1.05 15.75 0.85 16.3
Q 0.7705078125 16.3220703125 0.7 16.35 6 17.95 11.7 17.45 17.3 16.95 23.1 14.05 22.9896484375 14.145703125 22.9 14.2
L 22.95 14.2
Q 24.25 13.55 26.05 12.35 26.015625 12.4033203125 25.95 12.45 27.001953125 11.8185546875 27.9 11.1 30.9 8.8 33.1 6.1 33.85 6.85 35.25 8.3 36.5 9.6 37.55 10.35 40.7 12.65 43.6 13.9 46.65 15.2 49.3 15.4 52.65 15.6 54.95 14.1 55.2 13.95 55.2 13.65 55.2 13.35 54.95 13.2 53.15 12.15 51 11.2 52.7 11.35 54.4 11.2 57.6 10.9 60.15 9.8 63.05 8.55 64.75 6.25 64.95 6 64.75 5.7 64.55 5.45 64.25 5.4 63.3 5.35 61.65 5.4 59.75 5.45 59 5.4 56 5.3 55 5.2 59.65 4.8 63.5 2.4 67.55 -0.2 69.35 -4.35 69.5 -4.65 69.3 -4.9 69.1 -5.15 68.75 -5.1 67.5 -4.8 64.25 -3.8 61.4 -2.95 59.65 -2.65
L 58.3 -2.45
Q 60 -3.1 61.7 -4.45 63.2 -5.65 63.9 -6.65 64.9 -8.1 64.7 -9.55 64.65 -9.75 64.4 -9.9 64.15 -10 63.95 -9.95 62.9 -9.65 60.6 -8.75 58.45 -7.9 57.25 -7.55 53.45 -6.5 50 -5.9 48.9 -5.7 43.3 -4.85 41.75 -4.6 40.9 -4.6 39.55 -4.6 38.6 -5.1 39.45 -9.4 38.95 -14.05 38.5 -18.4 36.85 -22.8 36.1 -24.7 35.45 -26.2
L 33.85 -29.6
Q 33 -31.25 32.2 -32.7
L 32.35 -32.6
Q 32.376953125 -32.5888671875 32.4 -32.6
L 30.5 -35.55
Q 30.4513671875 -35.510546875 30.4 -35.5 28.25 -39.1 26.7 -41.2 24.9 -43.65 20.7 -48.85 16.75 -53.85 14.75 -56.6 17.5 -56.4 18.85 -56.2 21.2 -55.9 22.7 -54.9 22.9 -54.8 23.15 -54.95 23.4 -55.15 23.3 -55.35 22.65 -57 21.4 -58.35 20.2 -59.6 18.55 -60.5 16.6 -61.55 14.95 -62.1
L 15.15 -62.1
Q 16.55 -62.25 17.25 -62.35 18.45 -62.45 19.35 -62.3 19.65 -62.25 19.8 -62.5 19.9 -62.75 19.65 -62.95 16.7 -64.95 13.35 -65.35 9.8 -65.8 7.75 -65.1 8.6 -66 8.15 -67.7 8.1 -67.9 7.95 -67.95 7.8 -68 7.65 -67.95 7 -67.65 5.8 -66.85 4.6 -66.05 3.95 -65.75 3.15 -65.4 1.95 -65.05 1.3 -64.85 -0.05 -64.5 -1.9 -64 -2.55 -63.75 -3.35 -63.75 -4.35 -63.6 -4.45 -63.55 -6.15 -63.25 -6.9 -63.1 -8.65 -62.7 -10.4 -62.3 -11.6 -62.25 -13.7 -62.25 -14.55 -62.2 -15.4 -62.85 -16.2 -63 -17.1 -63.1 -17.75 -62.7 -18.45 -62.3 -18.55 -61.45
L -18.55 -61.4 -19.9 -61.4
Q -21.5 -61.5 -23.45 -61.95 -24.85 -62.2 -26.9 -62.8 -31.9 -64.2 -36.8 -66 -43.55 -68.5 -46.7 -69.3 -52.35 -70.75 -57 -70.2 -61.35 -69.65 -65.6 -67.25 -69.5 -65.1 -72.9 -61.7 -76.6 -58 -78.95 -53.95 -81.6 -49.4 -82.45 -44.75
M -81.6 -39.95
L -81.55 -40.4
Q -81.3 -41 -80.85 -41.8 -79.55 -44.05 -77.25 -46.25 -75.35 -48.05 -73.05 -49.65 -70.4 -51.4 -67.75 -52.5 -64.95 -53.6 -61.9 -54.05 -55.1 -55 -49.45 -53.65 -42.55 -52 -40.4 -47.65 -39.1 -45 -39.5 -41.7 -39.7 -40 -40.2 -38.55 -40.45 -37.8 -40.65 -37.25 -41.75 -34.8 -43.4 -33.5
L -43.65 -33.3
Q -47.1 -33.3 -49.45 -33.1 -52.6 -32.9 -55.15 -32.35 -59.05 -31.45 -62.1 -29.7 -65.45 -27.7 -67.6 -24.7 -69.9 -21.5 -70.75 -17.65 -71.1 -16.05 -71.15 -14.7 -71.15 -13.2 -70.7 -12 -71.3 -12.45 -71.9 -13 -75.8 -16.7 -78.25 -23.65 -79.9 -28.3 -80.7 -31.65 -81.7 -36.1 -81.6 -39.95
M -38.85 -65.8
Q -35.85 -64.7 -35.8 -64.7 -30.65 -62.9 -25.9 -61.75 -25.3 -61.6 -24.75 -61.5 -22.75 -60.1 -21.2 -57.55 -20.75 -56.75 -20.45 -56.2 -19.15 -53.55 -18.35 -50.35 -17.3 -46 -17.45 -42.4 -17.5 -40.75 -17.75 -39.5 -17.85 -39.05 -17.95 -38.8 -17.95 -38.7 -18.1 -38.2 -18.35 -37.5 -18.75 -36.7 -18.95 -36.35 -19.55 -35.25
L -19.8 -34.75
Q -22.8 -34.1 -27 -33.9 -27.1 -33.9 -32.9 -33.55 -32.05 -34.9 -31.6 -36.8 -31.45 -37.55 -31.4 -38.1 -31 -40.3 -31.15 -43.1 -31.4 -48.4 -33.1 -53.25 -34 -55.8 -35.25 -58.3 -36.3 -60.35 -37.4 -61.95 -39.5 -65.05 -41.9 -66.85 -40.65 -66.45 -38.85 -65.8
M -36.2 -58.55
Q -34.85 -55.95 -33.85 -53.05 -32.1 -47.65 -31.95 -43.1 -31.85 -40.5 -32.2 -38.5
L -32.25 -38.1 -32.5 -36.85
Q -32.85 -34.9 -33.35 -33.75
L -33.45 -33.5
Q -37.2 -33.35 -39.5 -33.3
L -42.95 -33.3
Q -41.05 -34.75 -39.85 -37.2 -39.55 -37.9 -39.3 -38.5 -38.65 -40.4 -38.55 -42.35 -38.5 -44.4 -39 -46.15 -39.7 -48.7 -41.7 -50.65 -43.5 -52.4 -46.15 -53.45 -51.2 -55.45 -57.9 -55.15 -61 -55.05 -63.45 -54.55 -66.4 -54.05 -68.7 -52.95 -72 -51.45 -74.85 -49.3 -77.85 -47 -79.95 -44.3 -80.85 -43.15 -81.45 -42.1 -80.95 -46.8 -78.9 -51.2 -76.9 -55.45 -73.6 -59.15 -70.15 -63.05 -66.25 -65.5 -61.8 -68.35 -57.2 -69.05 -54 -69.5 -50.3 -69 -47.3 -68.55 -43.55 -67.35 -42.85 -66.85 -42.25 -66.3 -40.3 -64.6 -38.6 -62.35 -37.3 -60.6 -36.2 -58.55
M -20.4 -57.5
L -20.6 -57.8
Q -22 -60 -23.7 -61.25 -22.2 -60.95 -20.8 -60.9 -20.4 -60.85 -19.85 -60.9 -19.8 -60.8 -19.7 -60.8 -19.6 -60.8 -19.5 -60.9 -18.25 -60.95 -16.75 -61.3
L -16.45 -61.4
Q -14.9 -60.55 -14.35 -57.75 -14.1 -56.6 -13.85 -54.5 -13.6 -52.2 -13.45 -51.2 -13.1 -49.5 -12.7 -48.45 -12.1 -47 -11.05 -46.15 -10.45 -45.7 -9.8 -45.5 -9.45 -45.4 -9.4 -45.4 -8.3 -45.15 -7.05 -45.4 -5.95 -45.7 -4.85 -46.3 -4.8 -46.35 -4.75 -46.45
L -3.95 -46.65
Q -3.8 -46.35 -3.7 -45.9 -3.7 -45.7 -3.65 -45.1 -3.78359375 -44.33203125 -4 -43.6 -4.0560546875 -43.2681640625 -4.15 -42.95 -4.7658203125 -40.73125 -5.85 -38.8
L -6.8 -37.2
Q -16.0392578125 -35.1982421875 -18.9 -34.95 -17.698828125 -36.4541015625 -17.1 -38.55 -16.95 -39.15 -16.8 -39.9 -16.4 -42.35 -16.65 -45.4 -16.9 -47.9 -17.6 -50.55 -18.5 -53.8 -19.75 -56.3 -20 -56.75 -20.4 -57.5
M -3.85 -62.1
Q -2.9 -62.65 -2.05 -62.9 -1.1 -63.2 1.5 -63.9 3.65 -64.5 4.7 -65.05 5.3 -65.35 6.15 -66.05 7.25 -66.85 7.6 -67.05 7.65 -66.65 7.5 -66.05 7.4 -65.75 7.25 -65.05
L 7.2 -64.9 7.2 -64.85
Q 6.85 -64.7 6.65 -64.55 6.55 -64.5 6.6 -64.35 6.6 -64.25 6.75 -64.25 7.35 -64.25 8.3 -64.4 9.5 -64.65 9.8 -64.7 11.65 -64.8 12.95 -64.7 15.75 -64.35 18.15 -63 16.45 -63 15.1 -62.75 14.45 -62.6 13.8 -62.4 12.85 -62.55 12 -62.5 11.9 -62.5 11.85 -62.4 11.85 -62.35 11.9 -62.3 12.75 -61.9 14.9 -61.2 16.85 -60.6 17.9 -60 20.8 -58.4 22.05 -56.2 20.45 -56.9 18.4 -57.1 16.6 -57.25 14.7 -57
L 14.5 -57
Q 14 -57.65 13.15 -58.95 13 -59.15 12.75 -59.05 12.5 -58.9 12.65 -58.7 15.1 -54.75 16.55 -52.75 18.75 -49.8 23.2 -43.95 27.1 -38.75 29.45 -34.85 32.6 -29.6 34.4 -25.4 36.7 -20 37.45 -15.15 37.55 -14.4 37.65 -13.35 37.85 -10.95 37.65 -8.5 37.3 -5 36.1 -1.8 34.85 1.45 32.75 4.25 30.1 7.8 26.4 10.45 22.7 13.1 18.5 14.55 13.2 16.3 7.65 16.05 2.05 15.8 -2.75 13.45 -7.3 11.3 -10.55 7.55 -11.4 6.55 -12.1 5.55 -12.9 4.35 -13.6 3.05 -11.9 4.55 -9.1 6 -6.5 7.35 -4.35 8.05 -1.65 8.9 0.8 8.95 4.55 8.95 8.3 7.5 12 6.1 15.1 3.5 18.2 0.95 20.25 -2.35 22.35 -5.85 22.85 -9.55 23.5 -14.1 22.5 -19.95 21.85 -23.45 20 -30.1 17.6 -38.6 10.25 -46.3 11.6 -47.05 12.15 -47.55 13 -48.3 13.4 -49.5 14.25 -52.25 13.6 -54.55 12.9 -57 11.05 -58.85 9.25 -60.6 6.8 -61.45 4 -62.35 1.05 -61.9 -1.75 -61.45 -4.45 -59.85 -7.5 -58 -9.25 -55.85 -9.55 -55.5 -10.15 -54.8 -10.65 -54.15 -10.9 -53.65 -11.05 -53.5 -11.1 -53.3 -11.4 -55.6 -11.6 -56.75 -12 -58.7 -12.75 -59.95 -13.25 -60.8 -13.8 -61.45 -12.55 -61.45 -9.75 -61.85 -7.7 -62.15 -6.4 -62.35 -5.25 -62.55 -4.6 -62.65 -5.4 -62.05 -5.7 -61.25 -5.75 -61.2 -5.7 -61.15 -5.65 -61.05 -5.55 -61.1 -3.95 -62.05 -3.85 -62.1
M -17.05 -62.45
Q -16.2 -62.6 -15.4 -62.1 -14.25 -61.3 -13.5 -60.1 -12.8 -59 -12.4 -57.3 -12.2 -56.5 -11.9 -54.35 -11.9 -54.3 -11.6 -51.9 -11.45 -50.4 -11.15 -49.45 -10.6 -47.4 -9.15 -46.75 -8.35 -46.4 -7.25 -46.7 -6.05 -47.2 -5.45 -47.4 -5.2 -47.5 -4.95 -47.55 -3.3 -48 -2.7 -46.85 -2.35 -46.15 -2.6 -45.05 -2.95 -43.7 -3.8 -42.05 -3.45 -43.45 -3.4 -45.05 -3.15 -45.55 -3.2 -46.1 -3.3 -46.65 -3.6 -47.1 -3.75 -47.3 -3.9 -47.25 -4.4 -47.1 -4.7 -46.95 -4.8 -46.9 -5.1 -46.65 -7 -45.95 -8.55 -46.15 -10.45 -46.4 -11.35 -48 -12.05 -49.2 -12.4 -50.95 -12.6 -51.75 -12.9 -54.05 -13.2 -56.5 -13.3 -56.95 -13.6 -58.65 -14.1 -59.75 -14.7 -60.95 -15.5 -61.45 -16.35 -62 -17.6 -61.95 -17.7 -61.95 -17.7 -61.85 -17.7 -61.7 -17.6 -61.7 -17.2 -61.7 -16.8 -61.55 -17.5 -61.45 -18.2 -61.4 -17.95 -62.25 -17.05 -62.45
M -10.55 -49.6
Q -10.65 -49.9 -10.95 -52.35 -10.8 -52.95 -10.4 -53.55 -9.95 -54.2 -9.2 -55 -8.3 -55.85 -7.95 -56.2 -5.9 -58.2 -3.7 -59.35 1.7 -62.2 6.25 -60.7 8.5 -59.95 10.2 -58.4 12.05 -56.75 12.65 -54.6 13.35 -52.15 12.5 -49.75 12.2 -48.75 11.45 -47.9 11.1 -47.5 9.95 -46.5 9.8 -46.5 9.7 -46.4 9.6 -46.3 9.6 -46.2 9.55 -46.05 9.65 -45.9 13 -42.2 15.05 -38.95 17.6 -35 18.75 -31 20.55 -24.95 21.3 -20.3 21.85 -17 21.95 -14.95 22.15 -11.9 21.75 -9.55 21.5 -8.25 21.05 -6.95 19.95 -3.75 17.75 -0.95 15.6 1.8 12.7 3.8 8.45 6.75 3.85 7.55 0.35 8.15 -2.8 7.45 -3.8 7.2 -4.95 6.8 -7.6 5.9 -10.1 4.4 -11.75 3.4 -12.95 2.4 -13.85 1.55 -14.7 0.65 -14.75 0.65 -14.75 0.6 -15.65 -1.6 -16.1 -4.05 -16.7 -7.05 -16.6 -10 -16.5 -12.3 -16 -14.8 -15.65 -16.45 -15.1 -18.15 -13.4 -23.65 -9.65 -29.7 -9.55 -29.9 -9.65 -30.05 -9.65 -30.1 -9.75 -30.15
L -9.75 -30.2
Q -9.55 -30.8 -9.15 -32.5 -9.1 -32.6 -8.85 -33.35 -8.7 -33.9 -8.65 -34.25 -6.31171875 -36.4150390625 -5 -39 -4.960546875 -39.0236328125 -4.95 -39.05 -4.769921875 -39.4162109375 -4.6 -39.8 -3 -41.85 -2.35 -43.7 -2 -44.75 -1.95 -45.65 -1.9 -46.6 -2.35 -47.3 -2.8 -48.15 -3.7 -48.25 -4.3 -48.3 -5.1 -48.05 -5.75 -47.8 -7.1 -47.3 -8.3 -46.95 -9.05 -47.45 -10.15 -48.05 -10.55 -49.6
M -55.5 -31.2
Q -52.1 -32 -47.55 -32.2 -46.25 -32.25 -39.5 -32.35 -37.25 -32.35 -33.55 -32.55 -33.3 -30.75 -33.6 -29.45 -33.75 -29 -34.05 -28.35
L -34.55 -27.35
Q -37.15 -27.35 -40.3 -27.5 -47.05 -27.8 -49.95 -27.7 -55.3 -27.5 -59.35 -26.2 -66.35 -23.85 -69.1 -19.7 -68.15 -22.25 -66.75 -24.2 -64.75 -26.9 -61.75 -28.7 -58.95 -30.45 -55.5 -31.2
M -19.05 -31.45
Q -19.05 -32.7 -19.35 -33.9 -18.581640625 -34.070703125 -7.45 -36.25 -7.56640625 -35.8462890625 -10.1 -33.8 -10.75 -33.25 -11.65 -32.65 -15.2 -30.35 -19.6 -29.05 -19.1 -30.05 -19.05 -31.45
M -19.85 -33.8
Q -19.5 -31.9 -19.9 -30.5 -20.05 -29.9 -20.5 -28.8 -26.15 -27.35 -33.85 -27.35 -33.15 -28.25 -33 -29.85 -32.85 -31.25 -33.15 -32.55 -29.05 -32.8 -27 -32.9 -22.8 -33.15 -19.85 -33.8
M 38 -2.8
Q 38.2 -3.4 38.4 -4.2 39.8 -3.35 42.5 -3.65 45.2 -3.95 48.9 -4.55 53.2 -5.2 57.1 -6.3 58.15 -6.6 59.5 -7.1 59.7 -7.15 61.85 -8
L 63.55 -8.6
Q 63.35 -7.55 62.25 -6.4 61.55 -5.65 60.3 -4.75 58.7 -3.65 57.9 -3.25 57.4 -3.05 56.45 -2.7 55.4 -2.3 55 -2.15
L 54.45 -2.1
Q 54 -2.1 52.25 -2.15 50.85 -2.2 50.05 -2.15 49.95 -2.15 49.95 -2.05 49.9 -1.95 50 -1.95 50.65 -1.65 51.4 -1.5 53 -1.1 55.25 -1.2 56.75 -1.25 59.05 -1.55 62 -2 64.25 -2.65
L 66.35 -3.3 67.75 -3.7 67.95 -3.8 67.5 -3.15
Q 64.95 0.8 60.05 2.8 55.6 4.65 50.45 4.5 49.25 4.15 48.55 3.9 47.45 3.45 46.75 2.95 46.65 2.9 46.55 3 46.5 3.1 46.6 3.2 47.35 3.95 48 4.4 48.95 5.05 50 5.35 52 5.95 54.3 6.2 55.75 6.35 58.7 6.5 59.2 6.5 61.65 6.5
L 63.1 6.45
Q 61.45 8.2 58.8 9.1 56.5 9.95 53.75 10.05 50.65 10.2 48.05 9.55 46.25 9.15 45.15 8.75 43.55 8.15 42.45 7.4 42.4 7.35 42.3 7.35 42.2 7.4 42.15 7.5 42.15 7.65 42.2 7.7 44.45 9.6 47.4 10.5 48.35 11.15 49.85 11.85 51.6 12.65 52.45 13.05
L 53.6 13.65
Q 51.4 14.65 48.35 14.15 45.8 13.75 43.3 12.5 40.3 11 38.15 9.35 37.35 8.75 36.45 7.9 36.15 7.6 34.9 6.35
L 34.6 6.05
Q 33.9 5.4 33.75 5.3 34.1 4.85 34.55 4.2 36.9 0.8 38 -2.8
M -5.55 -14.65
Q -5.65 -14.7 -5.7 -14.7 -5.8 -14.65 -5.75 -14.55
L -5.7 -14.4
Q -4.95 -12.4 -2.5 -11.3 -0.4 -10.35 1.95 -10.4 4.2 -10.4 6.05 -11.2 8.1 -12.05 9.25 -13.7 9.55 -14.15 9.75 -14.5 9.8 -14.6 9.7 -14.65 9.65 -14.7 9.55 -14.65 8.3 -12.95 6.2 -12 4.25 -11.15 2 -11.15 -0.25 -11.15 -2.2 -12 -4.3 -12.9 -5.55 -14.65
M -0.5 -20.45
Q -0.55 -20.4 -0.6 -20.4
L -1.2 -20.2
Q -3.35 -19.75 -5.15 -19.85 -7.5 -20.1 -8.95 -21.05 -9.85 -21.6 -10.4 -22.4 -10.85 -23 -11.35 -24.15 -11.4 -24.2 -11.45 -24.2 -11.5 -24.25 -11.55 -24.2 -11.65 -24.1 -11.65 -24.05 -11.25 -21.75 -9.5 -20.45 -7.9 -19.3 -5.45 -19.1 -3.05 -18.9 -1 -19.5 0.05 -19.85 0.5 -20.05 1.4 -20.45 1.85 -21 3.15 -19.95 4.95 -19.5 6.7 -19.1 8.3 -19.3 10.2 -19.6 11.7 -20.55 13.25 -21.5 14.2 -23 15.15 -24.1 15.15 -25.1 15.146875 -25.2 15.05 -25.2 15 -25.25 14.95 -25.15 14.25 -23.15 12.4 -21.75 10.55 -20.35 8.4 -20.05 5.85 -19.7 3.8 -20.65 2.35 -21.35 1.7 -21.95 1.35 -22.3 0.95 -22.85 0.4 -23.55 0.25 -23.7 0.2 -23.8 0.1 -23.75 0.05 -23.7 0.05 -23.6
L 0.2 -23.15
Q 0.35 -22.75 0.6 -22.35
L 0.8 -22.05 0.8 -22 1.5 -21.25 0 -20.6 -0.5 -20.45
M -0.35 -58.85
Q -1.55 -58.4 -2.55 -57.55 -5.1 -57.15 -7.15 -55.8 -7.45 -55.6 -7.25 -55.3 -6.9 -54.55 -6.3 -54.15 -5.8 -53.8 -4.95 -53.55 -5.05 -53.1 -5.05 -52.75 -5.05 -51.05 -3.75 -49.85
L -3.65 -49.75
Q -1.7 -48.05 2.3 -48.05 3.25 -48.05 4.15 -48.25
L 4.25 -48.3
Q 5.65 -48.6 6.75 -49.25
L 7.2 -49.55
Q 7.65 -49.9 7.9 -50.15
L 8.05 -50.3 8.6 -50.9
Q 9.45 -52 9.55 -53.3 10.2 -53.2 10.6 -53.25 11.05 -53.35 11.45 -53.75 11.55 -53.85 11.75 -54.05 12 -54.3 11.75 -54.55 11.1 -55.35 10.25 -55.9 9.25 -56.6 8.35 -56.9 7.3 -58 5.75 -58.7 4.15 -59.35 2.3 -59.35 0.95 -59.35 -0.35 -58.85
M -2.05 -56.75
Q -1 -56.9 -0.65 -56.95 0.15 -57.1 0.75 -57.3 0.85 -57.3 0.85 -57.45 0.85 -57.55 0.75 -57.6 0.1 -57.7 -0.7 -57.7 0.75 -58.45 2.3 -58.45 3.6 -58.45 4.75 -58.1 5.9 -57.7 6.8 -57.05
L 6.55 -57.05
Q 6.45 -57 6.4 -56.9 6.4 -56.75 6.5 -56.7 6.9 -56.5 7.7 -56.25 8.45 -56 8.95 -55.75
L 9.15 -55.6
Q 10.15 -55.1 10.95 -54.3 10.7 -54.05 10.3 -53.9 10.05 -53.85 9.6 -53.75 9.6 -53.95 9.55 -54.25
L 10.05 -54
Q 10.15 -53.95 10.2 -54.05 10.25 -54.1 10.2 -54.2 9.8 -54.55 9.45 -54.8 8.95 -55.15 8.2 -55.5 6.05 -56.5 2.4 -56.55 -0.7 -56.6 -2.55 -56.25 -3.4 -56.1 -4 -55.85 -5 -55.55 -5.65 -55.1 -5.8 -55 -5.75 -54.8 -5.7 -54.65 -5.5 -54.7
L -4.55 -54.9
Q -4.75 -54.5 -4.85 -54.05 -5.35 -54.25 -5.6 -54.35 -5.95 -54.55 -6.15 -54.85 -6.6 -55.35 -5.6 -55.85 -5.25 -56 -4.1 -56.35
L -3.6 -56.45
Q -3.2 -56.55 -2.05 -56.75
M -3.4 -55.15
Q -1.7 -55.5 -0.55 -55.65 1.05 -55.85 2.4 -55.8 5.6 -55.7 8.55 -54.6 8.7 -54.2 8.7 -53.7 8.7 -51.75 6.8 -50.35 4.95 -48.95 2.3 -48.95 -0.35 -48.95 -2.1 -49.8 -4.15 -50.8 -4.15 -52.75 -4.15 -53.9 -3.4 -55.15
M 1.4 -53.15
Q 1.4 -52.4 2.1 -51.95 2.85 -51.45 3.95 -51.45 5 -51.45 5.75 -51.95 6.5 -52.4 6.5 -53.15 6.5 -53.85 5.75 -54.3 5 -54.8 3.95 -54.8 2.85 -54.8 2.1 -54.3 1.4 -53.85 1.4 -53.15
M 2.55 -52.4
Q 2 -52.7 2 -53.15 2 -53.55 2.55 -53.85 3.15 -54.2 3.95 -54.2 4.75 -54.2 5.3 -53.85 5.9 -53.55 5.9 -53.15 5.9 -52.7 5.3 -52.4 4.75 -52.05 3.95 -52.05 3.15 -52.05 2.55 -52.4
M 34.15 -18.45
L 34.15 -18.55
Q 34.1 -18.6 34 -18.6 33.9 -18.6 33.9 -18.5
L 33.9 -18.25
Q 33.65 -16.6 30.85 -16.65
L 30.7 -16.65
Q 30.7 -16.7 30.65 -16.75 30.55 -16.75 30.5 -16.7
L 30.45 -16.65 29.35 -16.75
Q 29.3 -16.75 29.25 -16.7 29.25 -16.65 29.25 -16.6
L 29.3 -16.5 29.45 -16.45 30 -16.3 30.05 -16.3
Q 29.7 -16.05 29.45 -15.9 28.6 -15.35 27.65 -15.4 26.9 -15.4 26 -15.65 25.5 -15.8 24.45 -16.15 24.25 -16.2 24.25 -16 24.25 -15.9 24.3 -15.9
L 24.35 -15.9
Q 25.05 -15 26.65 -14.95 27.85 -14.75 28.85 -15 29.95 -15.35 30.5 -16.2 32.05 -15.9 33.15 -16.45 33.7 -16.75 34 -17.2 34.3 -17.75 34.15 -18.45
M -4.2 -46.55
L -4.3 -46.5
Q -4.2794921875 -46.442578125 -4.25 -46.2 -4.2189453125 -46.208984375 -4.2 -46.25 -4.15 -46.3 -4.2 -46.35
L -4.1 -46.45
Q -4.05 -46.5 -4.1 -46.55 -4.15 -46.6 -4.2 -46.55 Z"/>

<path fill="#3B414C" stroke="none" d="
M 67.5 -3.15
L 67.75 -3.7 66.35 -3.3
Q 65 -1.85 64.75 -1.6 63.75 -0.6 62.85 0.05 60.35 1.85 57.6 2.6 54.4 3.45 51.25 3.05 50.2 2.95 47.85 2.5 47.5 2.45 46.7 2.25 46.05 2.2 45.6 2.4 45.45 2.45 45.55 2.65 45.8 3.25 46.6 3.75 47.25 4.15 48 4.4 47.35 3.95 46.6 3.2 46.5 3.1 46.55 3 46.65 2.9 46.75 2.95 47.45 3.45 48.55 3.9 49.25 4.15 50.45 4.5 55.6 4.65 60.05 2.8 64.95 0.8 67.5 -3.15
M 48.85 -2.45
Q 48.85 -2.35 48.9 -2.35 50.35 -1.65 51.4 -1.5 50.65 -1.65 50 -1.95 49.9 -1.95 49.95 -2.05 49.95 -2.15 50.05 -2.15 50.85 -2.2 52.25 -2.15 54 -2.1 54.45 -2.1
L 55 -2.15
Q 55.4 -2.3 56.45 -2.7 57.4 -3.05 57.9 -3.25 58.7 -3.65 60.3 -4.75 61.55 -5.65 62.25 -6.4 63.35 -7.55 63.55 -8.6
L 61.85 -8
Q 61 -7 60.45 -6.55 58.9 -5.2 57.1 -4.45 55.1 -3.55 52.85 -3.25 52.1 -3.15 50.85 -2.9 49.5 -2.6 48.95 -2.5 48.85 -2.5 48.85 -2.45
M 35.45 -6.55
Q 33.95 -3.55 31.5 -0.55 28.9 2.7 26.3 5 23.3 7.65 20.05 9.3 16.5 11.05 12.65 11.9 8.8 12.8 4.85 12.75 0.35 12.65 -3.15 11.6 -7.3 10.35 -10.15 7.65 -10.3 7.5 -10.55 7.55 -7.3 11.3 -2.75 13.45 2.05 15.8 7.65 16.05 13.2 16.3 18.5 14.55 22.7 13.1 26.4 10.45 30.1 7.8 32.75 4.25 34.85 1.45 36.1 -1.8 37.3 -5 37.65 -8.5 37.85 -10.95 37.65 -13.35 37.25 -10.1 35.45 -6.55
M 24.3 -16.35
Q 24.2 -16.2 24.25 -16 24.25 -16.2 24.45 -16.15 25.5 -15.8 26 -15.65 26.9 -15.4 27.65 -15.4 28.6 -15.35 29.45 -15.9 29.65 -16.2 29.45 -16.45
L 29.3 -16.5 29.25 -16.6
Q 29 -16.6 28.4 -16.4 27.75 -16.1 27.65 -16.1 27 -16.05 26.1 -16.25 24.9 -16.5 24.55 -16.5 24.35 -16.5 24.3 -16.35
M 31.5 -17.55
Q 30.7 -17.65 30.45 -17.65 30.2 -17.65 30.15 -17.45 30.1 -17.3 30.2 -17.15 30.45 -16.85 30.85 -16.65 33.65 -16.6 33.9 -18.25 33.05 -17.65 32.55 -17.55 32.1 -17.45 31.5 -17.55
M 34.75 -18.6
Q 34.75 -18.65 34.7 -18.7 34.65 -18.75 34.6 -18.7 34.4 -18.6 34.15 -18.45 34.3 -17.75 34 -17.2 34.7 -17.8 34.75 -18.6 Z"/>

<path fill="#7E532C" stroke="none" d="
M -19.9 -30.5
Q -19.5 -31.9 -19.85 -33.8 -22.8 -33.15 -27 -32.9 -29.05 -32.8 -33.15 -32.55 -32.85 -31.25 -33 -29.85 -33.15 -28.25 -33.85 -27.35 -26.15 -27.35 -20.5 -28.8 -20.05 -29.9 -19.9 -30.5
M -18.1 -38.2
Q -17.95 -38.7 -17.95 -38.8 -17.85 -39.05 -17.75 -39.5 -23.6115234375 -35.9865234375 -26 -36.55 -28.3384765625 -37.0634765625 -31.4 -38.1 -31.45 -37.55 -31.6 -36.8 -32.05 -34.9 -32.9 -33.55 -27.1 -33.9 -27 -33.9 -22.8 -34.1 -19.8 -34.75
L -19.55 -35.25
Q -18.95 -36.35 -18.75 -36.7 -18.35 -37.5 -18.1 -38.2 Z"/>

<path fill="#757E32" stroke="none" d="
M -19.35 -33.9
Q -19.05 -32.7 -19.05 -31.45 -19.1 -30.05 -19.6 -29.05 -15.2 -30.35 -11.65 -32.65 -10.75 -33.25 -10.1 -33.8 -7.56640625 -35.8462890625 -7.45 -36.25 -18.581640625 -34.070703125 -19.35 -33.9
M -3.95 -46.65
L -4.75 -46.45
Q -4.8 -46.35 -4.85 -46.3 -5.95 -45.7 -7.05 -45.4 -8.3 -45.15 -9.4 -45.4 -9.45 -45.4 -9.8 -45.5 -8.653125 -40.613671875 -10.45 -39.5 -12.2431640625 -38.3357421875 -14.05 -38.5 -15.8087890625 -38.6126953125 -16.8 -39.9 -16.95 -39.15 -17.1 -38.55 -17.698828125 -36.4541015625 -18.9 -34.95 -16.0392578125 -35.1982421875 -6.8 -37.2
L -5.85 -38.8
Q -4.7658203125 -40.73125 -4.15 -42.95 -4.0560546875 -43.2681640625 -4 -43.6 -3.78359375 -44.33203125 -3.65 -45.1 -3.7 -45.7 -3.7 -45.9 -3.8 -46.35 -3.95 -46.65
M -4.3 -46.5
L -4.2 -46.55
Q -4.15 -46.6 -4.1 -46.55 -4.05 -46.5 -4.1 -46.45
L -4.2 -46.35
Q -4.15 -46.3 -4.2 -46.25 -4.2189453125 -46.208984375 -4.25 -46.2 -4.2794921875 -46.442578125 -4.3 -46.5 Z"/>

<path fill="#332745" stroke="none" d="
M -47.55 -32.2
Q -52.1 -32 -55.5 -31.2 -58.95 -30.45 -61.75 -28.7 -64.75 -26.9 -66.75 -24.2 -68.15 -22.25 -69.1 -19.7 -66.35 -23.85 -59.35 -26.2 -55.3 -27.5 -49.95 -27.7 -47.05 -27.8 -40.3 -27.5 -37.15 -27.35 -34.55 -27.35
L -34.05 -28.35
Q -33.75 -29 -33.6 -29.45 -33.3 -30.75 -33.55 -32.55 -37.25 -32.35 -39.5 -32.35 -46.25 -32.25 -47.55 -32.2
M -39.3 -38.5
Q -39.55 -37.9 -39.85 -37.2 -41.05 -34.75 -42.95 -33.3
L -39.5 -33.3
Q -37.2 -33.35 -33.45 -33.5
L -33.35 -33.75
Q -32.85 -34.9 -32.5 -36.85
L -32.25 -38.1
Q -33.412890625 -37.0671875 -35.7 -37.05 -37.937109375 -36.9828125 -39.3 -38.5 Z"/>

<path fill="#6F788E" stroke="none" d="
M 21.25 -8.55
Q 21.2 -8.6 21.15 -8.5 20.35 -5.8 17.65 -2.8 15.55 -0.5 12.95 1.35 10.3 3.25 8.1 4.25 5.3 5.45 2.6 5.6 -3.1 5.85 -8.25 3.4 -13.75 0.7 -16.1 -4.05 -15.65 -1.6 -14.75 0.6 -14.75 0.65 -14.7 0.65 -13.85 1.55 -12.95 2.4 -11.75 3.4 -10.1 4.4 -7.6 5.9 -4.95 6.8 -1.1 7.95 2.6 7.7 3.05 7.65 3.85 7.55 8.45 6.75 12.7 3.8 15.6 1.8 17.75 -0.95 19.95 -3.75 21.05 -6.95
L 21.35 -8.45
Q 21.35 -8.55 21.25 -8.55
M -3 -40.55
Q -2.6 -41.55 -2.45 -42.1 -2.15 -43.1 -2.35 -43.7 -3 -41.85 -4.6 -39.8 -4.769921875 -39.4162109375 -4.95 -39.05 -4.960546875 -39.0236328125 -5 -39 -6.31171875 -36.4150390625 -8.65 -34.25 -8.7 -33.9 -8.85 -33.35 -9.1 -32.6 -9.15 -32.5 -9.55 -30.8 -9.75 -30.2 -9.5 -30.6 -9.25 -31.2 -8.95 -32 -8.85 -32.2 -8.65 -32.6 -8.2 -33.05 -7.55 -33.7 -7.45 -33.8 -5.95 -35.6 -5.1 -36.85 -3.55 -39.1 -3 -40.55
M -5.7 -14.7
Q -5.65 -14.7 -5.55 -14.65 -4.3 -12.9 -2.2 -12 -0.25 -11.15 2 -11.15 4.25 -11.15 6.2 -12 8.3 -12.95 9.55 -14.65 9.65 -14.7 9.7 -14.65 9.8 -14.6 9.75 -14.5 9.55 -14.15 9.25 -13.7 10.65 -15.1 10.6 -16.4 10.55 -16.55 10.45 -16.6 10.35 -16.65 10.25 -16.6 9.9 -16.45 9.4 -16 8.7 -15.4 8.55 -15.35 7.6 -14.65 6.6 -14.15 4.55 -13.15 2.3 -13.1 -0.05 -13.05 -2.3 -13.85 -3.2 -14.2 -4.4 -15.15 -5.8 -16.25 -6.35 -16.6 -6.45 -16.65 -6.55 -16.55 -6.65 -16.5 -6.6 -16.35 -6.35 -15.25 -5.7 -14.4
L -5.75 -14.55
Q -5.8 -14.65 -5.7 -14.7
M -0.05 -24.35
Q -0.3 -24.1 -0.15 -23.8 0.05 -23.45 0.2 -23.15
L 0.05 -23.6
Q 0.05 -23.7 0.1 -23.75 0.2 -23.8 0.25 -23.7 0.4 -23.55 0.95 -22.85 1.35 -22.3 1.7 -21.95 2.35 -21.35 3.8 -20.65 5.85 -19.7 8.4 -20.05 10.55 -20.35 12.4 -21.75 14.25 -23.15 14.95 -25.15 15 -25.25 15.05 -25.2 15.146875 -25.2 15.15 -25.1 15.15 -25.3029296875 15.15 -25.5 15.1 -25.55 15.1 -25.6 15.1 -25.65 15.05 -25.65
L 15 -25.65
Q 14.8 -25.5 13.5 -23.9 12.65 -22.85 11.75 -22.4 10.2 -21.6 7.85 -21.75 5.9 -21.85 4 -22.6 2.6 -23.2 0.5 -24.45 0.15 -24.65 -0.05 -24.35
M -1 -21.85
Q -2.6 -21.35 -4.5 -21.35 -5.85 -21.35 -6.4 -21.4 -7.5 -21.45 -8.3 -21.75 -9.2 -22.05 -9.9 -22.75 -10.5 -23.3 -11.15 -24.3 -11.2 -24.4 -11.3 -24.35 -11.4 -24.3 -11.45 -24.2 -11.4 -24.2 -11.35 -24.15 -10.85 -23 -10.4 -22.4 -9.85 -21.6 -8.95 -21.05 -7.5 -20.1 -5.15 -19.85 -3.35 -19.75 -1.2 -20.2
L -0.6 -20.4
Q -0.55 -20.4 -0.5 -20.45
L 0 -20.6 1.5 -21.25 0.8 -22 0.8 -22.05 0.6 -22.35
Q 0.25 -22.35 -0.25 -22.15 -0.55 -22.05 -1 -21.85
M -3.65 -49.75
L -3.75 -49.85
Q -3.35 -48.6 -0.6 -47.7 1.4 -47.05 3.35 -47.2 5.65 -47.35 6.95 -48.3 7.4 -48.65 7.7 -49.15 8.05 -49.75 8.05 -50.3
L 7.9 -50.15
Q 7.65 -49.9 7.2 -49.55
L 6.75 -49.25
Q 5.65 -48.6 4.25 -48.3
L 4.15 -48.25
Q 3.25 -48.05 2.3 -48.05 -1.7 -48.05 -3.65 -49.75 Z"/>

<path fill="#8E96A8" stroke="none" d="
M -10.95 -52.35
Q -10.65 -49.9 -10.55 -49.6 -10.15 -48.05 -9.05 -47.45 -8.3 -46.95 -7.1 -47.3 -5.75 -47.8 -5.1 -48.05 -4.3 -48.3 -3.7 -48.25 -2.8 -48.15 -2.35 -47.3 -1.9 -46.6 -1.95 -45.65 -2 -44.75 -2.35 -43.7 -2.15 -43.1 -2.45 -42.1 -2.6 -41.55 -3 -40.55 -3.55 -39.1 -5.1 -36.85 -5.95 -35.6 -7.45 -33.8 -7.55 -33.7 -8.2 -33.05 -8.65 -32.6 -8.85 -32.2 -8.95 -32 -9.25 -31.2 -9.5 -30.6 -9.75 -30.2
L -9.75 -30.15
Q -9.65 -30.1 -9.65 -30.05 -9.55 -29.9 -9.65 -29.7 -13.4 -23.65 -15.1 -18.15 -15.65 -16.45 -16 -14.8 -16.5 -12.3 -16.6 -10 -16.7 -7.05 -16.1 -4.05 -13.75 0.7 -8.25 3.4 -3.1 5.85 2.6 5.6 5.3 5.45 8.1 4.25 10.3 3.25 12.95 1.35 15.55 -0.5 17.65 -2.8 20.35 -5.8 21.15 -8.5 21.2 -8.6 21.25 -8.55 21.35 -8.55 21.35 -8.45
L 21.05 -6.95
Q 21.5 -8.25 21.75 -9.55 22.15 -11.9 21.95 -14.95 21.85 -17 21.3 -20.3 20.55 -24.95 18.75 -31 17.6 -35 15.05 -38.95 13 -42.2 9.65 -45.9 9.55 -46.05 9.6 -46.2 9.6 -46.3 9.7 -46.4 9.8 -46.5 9.95 -46.5 11.1 -47.5 11.45 -47.9 12.2 -48.75 12.5 -49.75 13.35 -52.15 12.65 -54.6 12.05 -56.75 10.2 -58.4 8.5 -59.95 6.25 -60.7 1.7 -62.2 -3.7 -59.35 -5.9 -58.2 -7.95 -56.2 -8.3 -55.85 -9.2 -55 -9.95 -54.2 -10.4 -53.55 -10.8 -52.95 -10.95 -52.35
M -2.55 -57.55
Q -1.55 -58.4 -0.35 -58.85 0.95 -59.35 2.3 -59.35 4.15 -59.35 5.75 -58.7 7.3 -58 8.35 -56.9 9.25 -56.6 10.25 -55.9 11.1 -55.35 11.75 -54.55 12 -54.3 11.75 -54.05 11.55 -53.85 11.45 -53.75 11.05 -53.35 10.6 -53.25 10.2 -53.2 9.55 -53.3 9.45 -52 8.6 -50.9
L 8.05 -50.3
Q 8.05 -49.75 7.7 -49.15 7.4 -48.65 6.95 -48.3 5.65 -47.35 3.35 -47.2 1.4 -47.05 -0.6 -47.7 -3.35 -48.6 -3.75 -49.85 -5.05 -51.05 -5.05 -52.75 -5.05 -53.1 -4.95 -53.55 -5.8 -53.8 -6.3 -54.15 -6.9 -54.55 -7.25 -55.3 -7.45 -55.6 -7.15 -55.8 -5.1 -57.15 -2.55 -57.55
M -4.5 -21.35
Q -2.6 -21.35 -1 -21.85 -0.55 -22.05 -0.25 -22.15 0.25 -22.35 0.6 -22.35 0.35 -22.75 0.2 -23.15 0.05 -23.45 -0.15 -23.8 -0.3 -24.1 -0.05 -24.35 0.15 -24.65 0.5 -24.45 2.6 -23.2 4 -22.6 5.9 -21.85 7.85 -21.75 10.2 -21.6 11.75 -22.4 12.65 -22.85 13.5 -23.9 14.8 -25.5 15 -25.65
L 15.05 -25.65
Q 15.1 -25.65 15.1 -25.6 15.1 -25.55 15.15 -25.5 15.15 -25.3029296875 15.15 -25.1 15.15 -24.1 14.2 -23 13.25 -21.5 11.7 -20.55 10.2 -19.6 8.3 -19.3 6.7 -19.1 4.95 -19.5 3.15 -19.95 1.85 -21 1.4 -20.45 0.5 -20.05 0.05 -19.85 -1 -19.5 -3.05 -18.9 -5.45 -19.1 -7.9 -19.3 -9.5 -20.45 -11.25 -21.75 -11.65 -24.05 -11.65 -24.1 -11.55 -24.2 -11.5 -24.25 -11.45 -24.2 -11.4 -24.3 -11.3 -24.35 -11.2 -24.4 -11.15 -24.3 -10.5 -23.3 -9.9 -22.75 -9.2 -22.05 -8.3 -21.75 -7.5 -21.45 -6.4 -21.4 -5.85 -21.35 -4.5 -21.35
M -6.6 -16.35
Q -6.65 -16.5 -6.55 -16.55 -6.45 -16.65 -6.35 -16.6 -5.8 -16.25 -4.4 -15.15 -3.2 -14.2 -2.3 -13.85 -0.05 -13.05 2.3 -13.1 4.55 -13.15 6.6 -14.15 7.6 -14.65 8.55 -15.35 8.7 -15.4 9.4 -16 9.9 -16.45 10.25 -16.6 10.35 -16.65 10.45 -16.6 10.55 -16.55 10.6 -16.4 10.65 -15.1 9.25 -13.7 8.1 -12.05 6.05 -11.2 4.2 -10.4 1.95 -10.4 -0.4 -10.35 -2.5 -11.3 -4.95 -12.4 -5.7 -14.4 -6.35 -15.25 -6.6 -16.35 Z"/>

<path fill="#FFFFDD" stroke="none" d="
M -0.55 -55.65
Q -1.7 -55.5 -3.4 -55.15 -4.15 -53.9 -4.15 -52.75 -4.15 -50.8 -2.1 -49.8 -0.35 -48.95 2.3 -48.95 4.95 -48.95 6.8 -50.35 8.7 -51.75 8.7 -53.7 8.7 -54.2 8.55 -54.6 5.6 -55.7 2.4 -55.8 1.05 -55.85 -0.55 -55.65
M 2.1 -51.95
Q 1.4 -52.4 1.4 -53.15 1.4 -53.85 2.1 -54.3 2.85 -54.8 3.95 -54.8 5 -54.8 5.75 -54.3 6.5 -53.85 6.5 -53.15 6.5 -52.4 5.75 -51.95 5 -51.45 3.95 -51.45 2.85 -51.45 2.1 -51.95 Z"/>

<path fill="#FF0000" stroke="none" d="
M 2 -53.15
Q 2 -52.7 2.55 -52.4 3.15 -52.05 3.95 -52.05 4.75 -52.05 5.3 -52.4 5.9 -52.7 5.9 -53.15 5.9 -53.55 5.3 -53.85 4.75 -54.2 3.95 -54.2 3.15 -54.2 2.55 -53.85 2 -53.55 2 -53.15 Z"/>

<path fill="#5B467D" stroke="none" d="
M -0.65 -56.95
Q -1 -56.9 -2.05 -56.75 -3.2 -56.55 -3.6 -56.45
L -4.1 -56.35
Q -5.25 -56 -5.6 -55.85 -6.6 -55.35 -6.15 -54.85 -5.95 -54.55 -5.6 -54.35 -5.35 -54.25 -4.85 -54.05 -4.75 -54.5 -4.55 -54.9
L -5.5 -54.7
Q -5.7 -54.65 -5.75 -54.8 -5.8 -55 -5.65 -55.1 -5 -55.55 -4 -55.85 -3.4 -56.1 -2.55 -56.25 -0.7 -56.6 2.4 -56.55 6.05 -56.5 8.2 -55.5 8.95 -55.15 9.45 -54.8 9.8 -54.55 10.2 -54.2 10.25 -54.1 10.2 -54.05 10.15 -53.95 10.05 -54
L 9.55 -54.25
Q 9.6 -53.95 9.6 -53.75 10.05 -53.85 10.3 -53.9 10.7 -54.05 10.95 -54.3 10.15 -55.1 9.15 -55.6
L 8.95 -55.75
Q 8.45 -56 7.7 -56.25 6.9 -56.5 6.5 -56.7 6.4 -56.75 6.4 -56.9 6.45 -57 6.55 -57.05
L 6.8 -57.05
Q 5.9 -57.7 4.75 -58.1 3.6 -58.45 2.3 -58.45 0.75 -58.45 -0.7 -57.7 0.1 -57.7 0.75 -57.6 0.85 -57.55 0.85 -57.45 0.85 -57.3 0.75 -57.3 0.15 -57.1 -0.65 -56.95
M -33.85 -53.05
Q -34.85 -55.95 -36.2 -58.55 -37.9 -59 -41.3 -59.95 -44.2 -60.7 -46.35 -61.2 -56.6 -63.5 -63.35 -61 -65.9 -60.05 -69.1 -58.15 -70.6 -57.25 -71.8 -55.95 -72.15 -55.6 -72.9 -54.9 -73.55 -54.2 -73.9 -53.7 -73.95 -53.65 -74.05 -53.65 -74.1 -53.7 -74.1 -53.8 -73.9 -54.9 -73.85 -55.1 -73.7 -55.75 -73.35 -56.3 -72.95 -56.9 -72.35 -57.55 -72.1 -57.85 -71.25 -58.7 -69.2 -60.65 -65.65 -62.45 -63.55 -63.45 -62.05 -64.05 -60.05 -64.8 -58.3 -65.1 -56.15 -65.45 -53.65 -65.35 -51.65 -65.3 -49.05 -64.9 -44.75 -64.25 -38.6 -62.35 -40.3 -64.6 -42.25 -66.3 -42.85 -66.85 -43.55 -67.35 -47.3 -68.55 -50.3 -69 -54 -69.5 -57.2 -69.05 -61.8 -68.35 -66.25 -65.5 -70.15 -63.05 -73.6 -59.15 -76.9 -55.45 -78.9 -51.2 -80.95 -46.8 -81.45 -42.1 -80.85 -43.15 -79.95 -44.3 -77.85 -47 -74.85 -49.3 -72 -51.45 -68.7 -52.95 -66.4 -54.05 -63.45 -54.55 -61 -55.05 -57.9 -55.15 -51.2 -55.45 -46.15 -53.45 -43.5 -52.4 -41.7 -50.65 -39.7 -48.7 -39 -46.15 -38.5 -44.4 -38.55 -42.35 -38.65 -40.4 -39.3 -38.5 -37.937109375 -36.9828125 -35.7 -37.05 -33.412890625 -37.0671875 -32.25 -38.1
L -32.2 -38.5
Q -31.85 -40.5 -31.95 -43.1 -32.1 -47.65 -33.85 -53.05 Z"/>

<path fill="#352F2A" stroke="none" d="
M -15.4 -62.1
Q -16.2 -62.6 -17.05 -62.45 -17.95 -62.25 -18.2 -61.4 -17.5 -61.45 -16.8 -61.55 -17.2 -61.7 -17.6 -61.7 -17.7 -61.7 -17.7 -61.85 -17.7 -61.95 -17.6 -61.95 -16.35 -62 -15.5 -61.45 -14.7 -60.95 -14.1 -59.75 -13.6 -58.65 -13.3 -56.95 -13.2 -56.5 -12.9 -54.05 -12.6 -51.75 -12.4 -50.95 -12.05 -49.2 -11.35 -48 -10.45 -46.4 -8.55 -46.15 -7 -45.95 -5.1 -46.65 -4.8 -46.9 -4.7 -46.95 -4.4 -47.1 -3.9 -47.25 -3.75 -47.3 -3.6 -47.1 -3.3 -46.65 -3.2 -46.1 -3.15 -45.55 -3.4 -45.05 -3.45 -43.45 -3.8 -42.05 -2.95 -43.7 -2.6 -45.05 -2.35 -46.15 -2.7 -46.85 -3.3 -48 -4.95 -47.55 -5.2 -47.5 -5.45 -47.4 -6.05 -47.2 -7.25 -46.7 -8.35 -46.4 -9.15 -46.75 -10.6 -47.4 -11.15 -49.45 -11.45 -50.4 -11.6 -51.9 -11.9 -54.3 -11.9 -54.35 -12.2 -56.5 -12.4 -57.3 -12.8 -59 -13.5 -60.1 -14.25 -61.3 -15.4 -62.1 Z"/>

<path fill="#CBD392" stroke="none" d="
M -19.15 -56.4
Q -18.55 -56.5 -17.75 -56.9 -16.85 -57.35 -16.35 -57.6 -16.25 -57.6 -16.3 -57.7 -16.35 -57.8 -16.45 -57.75 -16.9 -57.6 -17.7 -57.6 -18.85 -57.6 -18.95 -57.55 -20 -57.5 -20.4 -57.5 -20 -56.75 -19.75 -56.3
L -19.15 -56.4 Z"/>

<path fill="#A8B647" stroke="none" d="
M -20.6 -57.8
L -20.4 -57.5
Q -20 -57.5 -18.95 -57.55 -18.85 -57.6 -17.7 -57.6 -16.9 -57.6 -16.45 -57.75 -16.35 -57.8 -16.3 -57.7 -16.25 -57.6 -16.35 -57.6 -16.85 -57.35 -17.75 -56.9 -18.55 -56.5 -19.15 -56.4
L -19.75 -56.3
Q -18.5 -53.8 -17.6 -50.55 -16.9 -47.9 -16.65 -45.4 -16.4 -42.35 -16.8 -39.9 -15.8087890625 -38.6126953125 -14.05 -38.5 -12.2431640625 -38.3357421875 -10.45 -39.5 -8.653125 -40.613671875 -9.8 -45.5 -10.45 -45.7 -11.05 -46.15 -12.1 -47 -12.7 -48.45 -13.1 -49.5 -13.45 -51.2 -13.6 -52.2 -13.85 -54.5 -14.1 -56.6 -14.35 -57.75 -14.9 -60.55 -16.45 -61.4
L -16.75 -61.3
Q -18.25 -60.95 -19.5 -60.9 -19.6 -60.8 -19.7 -60.8 -19.8 -60.8 -19.85 -60.9 -20.4 -60.85 -20.8 -60.9 -22.2 -60.95 -23.7 -61.25 -22 -60 -20.6 -57.8 Z"/>

<path fill="#8454B8" stroke="none" d="
M -36.2 -58.55
Q -37.3 -60.6 -38.6 -62.35 -44.75 -64.25 -49.05 -64.9 -51.65 -65.3 -53.65 -65.35 -56.15 -65.45 -58.3 -65.1 -60.05 -64.8 -62.05 -64.05 -63.55 -63.45 -65.65 -62.45 -69.2 -60.65 -71.25 -58.7 -72.1 -57.85 -72.35 -57.55 -72.95 -56.9 -73.35 -56.3 -73.7 -55.75 -73.85 -55.1 -73.9 -54.9 -74.1 -53.8 -74.1 -53.7 -74.05 -53.65 -73.95 -53.65 -73.9 -53.7 -73.55 -54.2 -72.9 -54.9 -72.15 -55.6 -71.8 -55.95 -70.6 -57.25 -69.1 -58.15 -65.9 -60.05 -63.35 -61 -56.6 -63.5 -46.35 -61.2 -44.2 -60.7 -41.3 -59.95 -37.9 -59 -36.2 -58.55 Z"/>

<path fill="#D2A67D" stroke="none" d="
M -35.25 -58.3
Q -32.5 -57.55 -30.55 -57.1 -28.25 -56.55 -26.7 -56.35 -24.55 -56 -22.75 -56 -21.55 -56.05 -20.45 -56.2 -20.75 -56.75 -21.2 -57.55 -23.35 -57.8 -24.85 -58.15 -26.5 -58.5 -28.7 -59.2 -29.95 -59.55 -32.5 -60.4
L -37.4 -61.95
Q -36.3 -60.35 -35.25 -58.3 Z"/>

<path fill="#BE7C41" stroke="none" d="
M -35.25 -58.3
Q -34 -55.8 -33.1 -53.25 -31.4 -48.4 -31.15 -43.1 -31 -40.3 -31.4 -38.1 -28.3384765625 -37.0634765625 -26 -36.55 -23.6115234375 -35.9865234375 -17.75 -39.5 -17.5 -40.75 -17.45 -42.4 -17.3 -46 -18.35 -50.35 -19.15 -53.55 -20.45 -56.2 -21.55 -56.05 -22.75 -56 -24.55 -56 -26.7 -56.35 -28.25 -56.55 -30.55 -57.1 -32.5 -57.55 -35.25 -58.3
M -35.8 -64.7
Q -35.85 -64.7 -38.85 -65.8 -40.65 -66.45 -41.9 -66.85 -39.5 -65.05 -37.4 -61.95
L -32.5 -60.4
Q -29.95 -59.55 -28.7 -59.2 -26.5 -58.5 -24.85 -58.15 -23.35 -57.8 -21.2 -57.55 -22.75 -60.1 -24.75 -61.5 -25.3 -61.6 -25.9 -61.75 -30.65 -62.9 -35.8 -64.7 Z"/>

<path fill="#070605" stroke="none" d="
M -49.2 -38.3
Q -53.95 -37.8 -58 -36.45 -62.15 -35.05 -65.25 -32.85 -68.9 -30.3 -70.7 -26.95 -72.7 -23.3 -72.9 -19 -73 -16.7 -72.4 -14.45 -72.2 -13.75 -71.9 -13 -71.3 -12.45 -70.7 -12 -71.15 -13.2 -71.15 -14.7 -71.1 -16.05 -70.75 -17.65 -69.9 -21.5 -67.6 -24.7 -65.45 -27.7 -62.1 -29.7 -59.05 -31.45 -55.15 -32.35 -52.6 -32.9 -49.45 -33.1 -47.1 -33.3 -43.65 -33.3
L -43.4 -33.5
Q -41.75 -34.8 -40.65 -37.25 -40.45 -37.8 -40.2 -38.55 -45.2 -38.7 -49.2 -38.3 Z"/>

<path fill="#171411" stroke="none" d="
M -81.55 -40.4
L -81.6 -39.95
Q -81.7 -36.1 -80.7 -31.65 -79.9 -28.3 -78.25 -23.65 -75.8 -16.7 -71.9 -13 -72.2 -13.75 -72.4 -14.45 -73 -16.7 -72.9 -19 -72.7 -23.3 -70.7 -26.95 -68.9 -30.3 -65.25 -32.85 -62.15 -35.05 -58 -36.45 -53.95 -37.8 -49.2 -38.3 -45.2 -38.7 -40.2 -38.55 -39.7 -40 -39.5 -41.7 -39.1 -45 -40.4 -47.65 -42.55 -52 -49.45 -53.65 -55.1 -55 -61.9 -54.05 -64.95 -53.6 -67.75 -52.5 -70.4 -51.4 -73.05 -49.65 -75.35 -48.05 -77.25 -46.25 -79.55 -44.05 -80.85 -41.8 -81.3 -41 -81.55 -40.4 Z"/>
</g>

<g id="Duplicate_Items_Folder_body_0_Layer4_1_FILL">
<path fill="#8E96A8" stroke="none" d="
M 361.25 763.7
Q 357.9 767.55 353.95 771.2 358.1 767.85 361.15 764.05
L 361.25 763.7 Z"/>
</g>

<g id="Duplicate_Items_Folder_body_0_Layer4_2_FILL">
<path fill="#8E96A8" stroke="none" d="
M 312.5 791.65
Q 316.7 790.65 321.35 789 305.6 793.7 290.6 792.7 288.75 792.6 285.5 792.2 299.65 794.65 312.5 791.65 Z"/>
</g>

<g id="Duplicate_Items_Folder_body_0_Layer4_3_FILL">
<path fill="#494F5E" stroke="none" d="
M 159.75 786.1
L 158.85 787.25 160.05 786.1 159.75 786.1 Z"/>
</g>

<g id="Duplicate_Items_Folder_body_0_Layer4_4_FILL">
<path fill="#3B414C" stroke="none" d="
M 158.85 787.25
L 159.75 786.1 160.05 786.1
Q 162.9 783.4 163.45 782.9 162.05 781.15 160.2 778.4 158.65 778.9 157.95 779.4
L 153.15 783.4
Q 150.4 785.7 145 790.5 136.25 798.05 126.25 803.95 116.15 809.95 105.3 812.7 103.1 813.25 99.95 813.7 96.4 814.2 94.6 814.45 93.15 814.65 90.95 814.65 88.55 814.65 87.3 814.65
L 82.65 816.95
Q 91.55 821.05 104 819.1 114.3 817.5 124.6 812.3 136.85 806.15 145.6 799.4 148.75 797 152.45 793.5 153.8 792.25 158.85 787.25 Z"/>
</g>

<g id="Duplicate_Items_Folder_body_0_Layer4_5_FILL">
<path fill="#3B414C" stroke="none" d="
M 49.75 787.75
L 43.8 787.7
Q 50.6 794.75 61.4 798.55 70.8 801.85 81.95 802.35 94.65 802.9 105.3 800.35 112.45 798.65 117.1 796.95 123.6 794.6 128 791.45 128.3 791.25 128.65 791.4 131.95 788.3 133.45 785.25 133.55 785.15 133.45 785 133.35 784.85 133.15 784.9 126.4 787.9 123.05 789.25 117.25 791.6 112.65 792.7 105.05 794.5 101.05 795.25 94.7 796.45 89.3 796.7 78.5 797.2 68.8 795.2 58.05 792.95 49.75 787.75 Z"/>
</g>

<g id="Duplicate_Items_Folder_body_0_Layer3_0_FILL">
<path fill="#3B414C" stroke="none" d="
M 21.3 -17.25
Q 21.25 -17.2 21.25 -17.15 21.8 -16.45 24.45 -12.85 26.4 -10.2 27.5 -8.45 29.1 -5.7 29.5 -3.6 29.7 -2.45 29.45 -1.45 29.3 -0.5 28.7 0.55
L 29.5 1.75 29.7 1.6
Q 31.05 -0.3 30.65 -3.1 30.35 -5.3 29.1 -7.85 27.85 -10.45 26.3 -12.45
L 25.95 -12.85
Q 25.15 -13.8 24.45 -14.55
L 24.35 -14.7
Q 24.1 -14.9 23.55 -15.55 23.05 -16.05 22.7 -16.3
L 21.35 -17.25 21.3 -17.25
M 26.8 -19.15
Q 26.4 -19.35 25.8 -19.6 25.15 -19.8 24.8 -19.9 24.7 -19.9 24.15 -20.15 23.55 -20.1 22.8 -19.95 22.75 -19.95 22.75 -19.9 22.7 -19.85 22.8 -19.8 23.1 -19.5 23.9 -19.15 24.85 -18.65 25.05 -18.6 25.65 -18.25 26.65 -17.55 27.55 -16.9 28.6 -16.05 29.15 -15.55 30.4 -14.45 32.6 -12.4 33.65 -10.85 34.25 -10 34.45 -9.5 34.75 -8.65 34.45 -7.95 34.2 -7.65 34.4 -7.35
L 34.65 -7.15
Q 36.1 -8.8 35.2 -11.2 34.45 -13 32.6 -14.85 31 -16.5 29.2 -17.65
L 28.65 -18.05
Q 28.4 -18.2 26.8 -19.15
M 30.55 -18.6
Q 31.25 -18.7 31.45 -19.35 31.85 -20.25 30.8 -21.35 30.2 -21.95 28.9 -22.75 28.05 -23.35 26.8 -24 26.5 -24.1 26.05 -24.2
L 25.45 -24.3
Q 25.25 -24.3 24.9 -24.45 24.5 -24.65 24.35 -24.65
L 24.1 -24.75
Q 23.8 -24.75 23.45 -24.6 23.3 -24.55 23.3 -24.45 23.3 -24.3 23.4 -24.25 24.15 -23.6 25.65 -22.8 27.6 -21.75 28 -21.55 29.45 -20.6 29.75 -20.25 30.7 -19.45 30.55 -18.6
M 14.1 -8
Q 14.0244140625 -8.2669921875 13.95 -8.55 13.5416015625 -8.5365234375 13.15 -9 13.005859375 -8.92421875 12.8 -8.9 13.2513671875 -5.486328125 13.45 -3.4 13.55 -0.9 12.95 1.75 12.75 2.55 12.35 3.45 12.2 3.85 11.65 5.05
L 11.55 6.5 11.55 6.85
Q 12.01875 6.475 12.35 6.1
L 12.4 6.05 12.5 5.9
Q 13.35 4.45 13.85 2.95 14.85 0.15 14.95 -3.15 15 -4.3 15 -5.3 14.97421875 -5.5314453125 14.95 -5.75 14.8923828125 -6.7533203125 15.3 -7.65 14.98828125 -7.6783203125 14.75 -7.75 14.1716796875 -7.8208984375 14.1 -8
M 20 -13.25
Q 19.75 -13.6 19.4 -13.6 19.3 -13.65 19.25 -13.5
L 19.25 -13.4 19.2 -13.35
Q 19.1 -13.05 19.1 -12.65 18.8 -11.65 19.2 -10.1 19.8 -8.45 20 -7.65 21.1 -4.45 21.45 -2.05 22 0.6 21.5 3.25 21.35 4.35 20.7 5.7 20.55 6 20.15 6.55 19.8 7.15 19.6 7.45
L 19.65 7.75
Q 23.8 6.6 22.85 -2.15 22.6 -4.75 21.9 -7.6
L 21.6 -8.55
Q 21.6 -8.8 21.35 -9.6 21.15 -10.25 21.05 -10.65
L 20.95 -10.85 20.9 -11 20.9 -11.2
Q 20.75 -11.6 20.5 -12.2 20.35 -12.55 20 -13.25
M 12.15 -13.4
Q 12.2302734375 -13.4099609375 12.3 -13.45 12.269140625 -13.5087890625 12.25 -13.6 12.2203125 -13.545703125 12.2 -13.5 12.1822265625 -13.441015625 12.15 -13.4
M 15.65 -20.35
L 15.3 -20.2
Q 14.9388671875 -20.6384765625 14.55 -20.95 14.4513671875 -20.45234375 14.2 -20.05 14.0349609375 -19.7857421875 13.85 -19.6 13.8919921875 -19.47890625 13.95 -19.35 14.45 -18.2 14.6 -17.6 15.35 -15.4 15.4 -13.9 15.5357421875 -12.5431640625 14.95 -10.85 14.991796875 -10.6880859375 15 -10.55 15.048828125 -9.7689453125 14.75 -9.2
L 14.85 -8.8 15.45 -9.1 15.7 -9.3
Q 16 -9.55 16.15 -9.75 17.55 -11.3 17.2 -14.2 16.95 -16.1 16.35 -18.3
L 16.3 -18.35 16.05 -19.15
Q 15.85 -19.8 15.65 -20.35
M 24.3 -29.25
Q 24.25 -29.1 24.35 -29.05
L 24.5 -28.9
Q 24.25 -28.75 24.25 -28.6 24.1 -28.3 24.3 -28.1 24.7 -27.7 25.4 -27.3 25.8 -27.1 26.6 -26.7 26.85 -26.55 27.5 -26.1 28.05 -25.7 28.5 -25.6
L 29.1 -25.8
Q 28.5 -27 27.45 -27.8 27.15 -27.9 26.75 -28.15 26.3 -28.4 26.15 -28.55 25.65 -28.75 25.25 -29.05
L 25.1 -29.2
Q 25.05 -29.2 24.55 -29.4 24.35 -29.45 24.3 -29.25
M 21.35 -32.1
Q 21 -33.7 20.6 -34.6 20.05 -36 19.3 -36.7
L 18 -36.9
Q 17.7 -36.6 17.9 -36.2 18.85 -34.15 19.4 -31.6 19.75 -29.8 19.95 -28.05 19.9 -27.45 19.95 -26.85 19.95 -23.9 18.85 -22.3 18.3 -21.45 17.35 -21 17.05 -20.8 16.65 -20.7 16.15 -20.5 15.95 -20.5
L 16.45 -19.35
Q 17.6 -19.8 18.2 -20.25 19.1 -20.85 19.75 -21.65 21.3 -23.6 21.65 -26.3 21.9 -27.55 21.85 -28.75 21.85 -29.4 21.8 -30.05 21.7 -31 21.35 -32.1
M 25.95 -32.6
Q 25.8 -32.7 25.6 -32.8
L 24.5 -33.4 24.4 -33.4
Q 24.2 -33.45 24.2 -33.25 24.1 -33.1 24.25 -33
L 24.3 -33
Q 24.05 -32.9 23.8 -32.8 23.7 -32.8 23.7 -32.75 23.6 -32.6 23.7 -32.55 24.05 -32.1 24.75 -31.7 25.1 -31.45 25.95 -31.05 26.2 -30.95 26.65 -30.5 26.7 -30.5 26.75 -30.45 27.2 -30.1 27.4 -29.95 27.95 -30.25 28.35 -30.5 28.2 -30.7 28 -30.9 27.25 -31.85 25.95 -32.6
M 26.85 -34.25
Q 27.1 -34.6 27.2 -34.75 27.35 -35 27.3 -35.2 27.25 -35.45 26.95 -35.55
L 26.8 -35.7
Q 26.55 -35.95 26.4 -36 26.2 -36.15 27.35 -36.2
L 23.8 -36.35
Q 23.95 -36.2 24.15 -35.95 24.35 -35.8 24.45 -35.7 25.8 -34.55 25.95 -34.4 25.7 -34.1 25.7 -33.8
L 25.7 -33.65
Q 25.95 -33.65 26.1 -33.55
L 26.3 -33.7
Q 26.6 -34 26.85 -34.25 Z"/>

<path fill="#CC0000" stroke="none" d="
M 12.3 -13.45
Q 12.2302734375 -13.4099609375 12.15 -13.4 12.0146484375 -13 11.75 -13 11.669140625 -12.9865234375 11.6 -13.05 11.463671875 -12.8767578125 11.35 -12.7 10.9 -12 10.95 -11.05 11.05 -10.1 11.55 -9.5 12.05 -8.85 12.75 -8.9
L 12.8 -8.9
Q 13.005859375 -8.92421875 13.15 -9 13.5416015625 -8.5365234375 13.95 -8.55
L 14 -8.55
Q 14.5 -8.55 14.75 -9.15
L 14.75 -9.2
Q 15.048828125 -9.7689453125 15 -10.55 14.991796875 -10.6880859375 14.95 -10.85 14.8931640625 -11.4892578125 14.6 -11.95 14.296484375 -12.426953125 13.85 -12.5 13.78046875 -12.6802734375 13.65 -12.85 13.611328125 -12.905859375 13.55 -12.95 13.13984375 -13.495703125 12.5 -13.45 12.3984375 -13.4427734375 12.3 -13.45
M 14.6 -21.95
Q 14.55 -23 13.95 -23.7 13.35 -24.4 12.6 -24.35 11.9 -24.3 11.4 -23.55 11.167578125 -23.1779296875 11.05 -22.75 10.978125 -22.7546875 10.9 -22.75 10.05 -22.7 9.5 -21.85 9 -20.95 9.05 -19.75 9.15 -18.55 9.75 -17.7 10.30859375 -16.96953125 11 -16.9 11.13046875 -16.89296875 11.25 -16.9 11.5138671875 -16.9154296875 11.75 -17.05 12.2552734375 -17.244921875 12.6 -17.9 12.961328125 -18.49140625 13.05 -19.2 13.498046875 -19.275390625 13.85 -19.6 14.0349609375 -19.7857421875 14.2 -20.05 14.4513671875 -20.45234375 14.55 -20.95 14.6498046875 -21.403125 14.6 -21.95 Z"/>

<path fill="#000000" stroke="none" d="
M 11.3 -16.1
Q 11.4275390625 -16.1796875 11.55 -16.2 11.85 -16.2 12.05 -15.75 12.3 -15.25 12.35 -14.6 12.394921875 -14.0158203125 12.25 -13.6 12.269140625 -13.5087890625 12.3 -13.45 12.3984375 -13.4427734375 12.5 -13.45 13.13984375 -13.495703125 13.55 -12.95 13.1603515625 -14.076953125 12.75 -15 12.280078125 -16.0806640625 11.75 -17.05 11.5138671875 -16.9154296875 11.25 -16.9 11.13046875 -16.89296875 11 -16.9 11.183203125 -16.471484375 11.3 -16.1
M 28.25 -34.85
Q 28.45 -35.1 28.3 -35.3 28.1 -35.8 27.7 -36.2
L 27.35 -36.2
Q 26.2 -36.15 26.4 -36 26.55 -35.95 26.8 -35.7
L 26.95 -35.55
Q 27.25 -35.45 27.3 -35.2 27.35 -35 27.2 -34.75 27.1 -34.6 26.85 -34.25 26.6 -34 26.3 -33.7
L 26.1 -33.55
Q 25.95 -33.65 25.7 -33.65 25.1 -33.85 24.4 -33.75 24.3 -33.75 24.3 -33.65 24.25 -33.6 24.35 -33.5
L 24.5 -33.4 25.6 -32.8
Q 25.8 -32.7 25.95 -32.6 27.25 -31.85 28 -30.9 28.2 -30.7 28.35 -30.5 27.95 -30.25 27.4 -29.95 26.9 -29.7 26.3 -29.45 25.75 -29.6 25.25 -29.55 25.15 -29.5 25.1 -29.4 25.05 -29.3 25.1 -29.2
L 25.25 -29.05
Q 25.65 -28.75 26.15 -28.55 26.3 -28.4 26.75 -28.15 27.15 -27.9 27.45 -27.8 28.5 -27 29.1 -25.8
L 28.5 -25.6
Q 27.2 -25.1 25.95 -24.95 24.35 -25.05 24.25 -25.05 24.2 -25.05 24.15 -25 24.1 -24.85 24.1 -24.75
L 24.35 -24.65
Q 24.5 -24.65 24.9 -24.45 25.25 -24.3 25.45 -24.3
L 26.05 -24.2
Q 26.5 -24.1 26.8 -24 28.05 -23.35 28.9 -22.75 30.2 -21.95 30.8 -21.35 31.85 -20.25 31.45 -19.35 31.25 -18.7 30.55 -18.6 30.3 -18.55 29.85 -18.55 26.7 -20.55 23.95 -20.4 23.9 -20.45 23.85 -20.35
L 23.9 -20.25 24.15 -20.15
Q 24.7 -19.9 24.8 -19.9 25.15 -19.8 25.8 -19.6 26.4 -19.35 26.8 -19.15 28.4 -18.2 28.65 -18.05
L 29.2 -17.65
Q 31 -16.5 32.6 -14.85 34.45 -13 35.2 -11.2 36.1 -8.8 34.65 -7.15
L 34.4 -7.35
Q 30.6 -11.1 26.9 -13.25 24.85 -15.65 22.35 -17.2 22.2 -17.35 22.05 -17.15 21.9 -17 22.1 -16.9 22.35 -16.7 22.7 -16.3 23.05 -16.05 23.55 -15.55 24.1 -14.9 24.35 -14.7
L 24.45 -14.55
Q 25.15 -13.8 25.95 -12.85
L 26.3 -12.45
Q 27.85 -10.45 29.1 -7.85 30.35 -5.3 30.65 -3.1 31.05 -0.3 29.7 1.6
L 29.55 1.85 29.5 1.75 28.7 0.55
Q 27.4 -1.3 24.95 -4.95
L 22.75 -8.25
Q 22.3 -9.75 21.5 -11.35 20.95 -12.6 19.9 -14.25 19.85 -14.3 19.75 -14.25 19.7 -14.2 19.65 -14.1 19.85 -13.65 20 -13.25 20.35 -12.55 20.5 -12.2 20.75 -11.6 20.9 -11.2
L 20.95 -10.85 21.05 -10.65
Q 21.15 -10.25 21.35 -9.6 21.6 -8.8 21.6 -8.55
L 21.9 -7.6
Q 22.6 -4.75 22.85 -2.15 23.8 6.6 19.65 7.75
L 19.6 7.45
Q 19.25 4.8 18.5 -0.65 17.8 -5.35 16.6 -8.6
L 16.55 -8.75
Q 18.4 -10.2 18.3 -13.15 18.2 -15.55 16.9 -18.45 19.05 -18.95 20.7 -21.25 22.1 -23.25 22.65 -25.55 23.05 -27.3 23 -29.1 22.95 -30.5 22.6 -31.95 21.9 -34.95 20.5 -36.4 19.6 -36.45 19.85 -36.15 20.4 -35.3 20.9 -34.05 21.25 -33.1 21.5 -31.85 21.75 -30.9 21.8 -30.05 21.85 -29.4 21.85 -28.75 21.9 -27.55 21.65 -26.3 21.3 -23.6 19.75 -21.65 19.1 -20.85 18.2 -20.25 17.6 -19.8 16.45 -19.35
L 15.95 -20.5 15.8 -20.65
Q 15.7 -20.8 15.65 -20.75 15.5 -20.7 15.55 -20.55 15.6 -20.4 15.65 -20.35 15.85 -19.8 16.05 -19.15
L 16.3 -18.35 16.35 -18.3
Q 16.95 -16.1 17.2 -14.2 17.55 -11.3 16.15 -9.75 16 -9.55 15.7 -9.3
L 15.45 -9.1 14.85 -8.8 14.75 -9.2 14.75 -9.15
Q 14.5 -8.55 14 -8.55
L 13.95 -8.55
Q 14.0244140625 -8.2669921875 14.1 -8 14.1716796875 -7.8208984375 14.75 -7.75 14.98828125 -7.6783203125 15.3 -7.65 14.8923828125 -6.7533203125 14.95 -5.75 14.97421875 -5.5314453125 15 -5.3 15 -4.3 14.95 -3.15 14.85 0.15 13.85 2.95 13.35 4.45 12.5 5.9
L 12.4 6.05 12.35 6.1
Q 12.0162109375 6.5021484375 11.5 7.3
L 11.55 6.5 11.65 5.05
Q 11.8 0.75 11.65 -1.5 11.45 -5.25 10.65 -9.65 9.95 -13 8.75 -17.3 8.35 -18.75 6.9 -23.5 6.75 -24.15 6.55 -24.8 9.4 -25.9 10.95 -26.65 13.35 -27.8 14.95 -29.25 16.75 -30.85 17.25 -32.9 17.5 -34 17.3 -35.05 17.2 -35.55 17 -36.05 17.1 -32.6 13.65 -29.75 11.3 -27.8 5.55 -25.65 5.4 -25.6 5.3 -25.35 5.2 -25.15 5.25 -24.95 5.55 -24 5.85 -23.15 7.3 -18.35 7.85 -16.2 9.2 -11.25 9.9 -7.3 10.75 -2.15 10.65 2.25 10.5 5.15 10.5 6.65 10.5 7.35 10.55 7.75 10.7 8.4 11.2 8.5 11.75 8.55 12.2 8 12.2 7.95 12.85 6.95 13.7 5.85 14.35 4.3 15.6 1.5 15.85 -2.35 16.1 -5.15 15.6 -8.2 15.8 -8.25 16.05 -8.35 16.95 -5.1 17.65 -0.1 18.4 5.6 18.9 8.35 18.9 8.5 19 8.6 19.15 8.75 19.35 8.7 24.5 7.8 24 -0.95 23.9 -2.95 23.45 -5.2 25.35 -2.5 29.1 2.95 29.2 3.1 29.5 3.1 29.7 3.1 29.9 2.9 31.85 0.9 31.8 -2.3 31.75 -4.7 30.4 -7.75 29.7 -9.3 28.8 -10.75 31.8 -8.6 34.25 -6 34.4 -5.8 34.6 -5.8 34.85 -5.75 35 -5.95 37.05 -7.85 36.5 -10.5 36.05 -12.65 34.05 -14.9 32.6 -16.45 31.05 -17.65 32 -18.05 32.55 -19.15 33.25 -20.85 30.5 -22.95 29.35 -23.8 27.85 -24.5 28.7 -24.7 29.9 -25.15 30.05 -25.2 30.15 -25.4 30.25 -25.6 30.2 -25.7 29.75 -26.6 29.05 -27.5 28.3 -28.4 27.35 -28.95 28.4 -29.4 29.2 -30 29.35 -30.15 29.4 -30.2 29.45 -30.4 29.4 -30.55 29.2 -30.9 29 -31.25 28.05 -32.55 26.8 -33.25 27.6 -33.9 28.25 -34.85 Z"/>

<path fill="#560B0B" stroke="none" d="
M 11.3 -16.1
Q 11.168359375 -15.96640625 11.05 -15.7 10.9 -15.2 10.95 -14.55 11 -13.9 11.2 -13.45 11.3826171875 -13.084765625 11.6 -13.05 11.669140625 -12.9865234375 11.75 -13 12.0146484375 -13 12.15 -13.4 12.1822265625 -13.441015625 12.2 -13.5 12.2203125 -13.545703125 12.25 -13.6 12.394921875 -14.0158203125 12.35 -14.6 12.3 -15.25 12.05 -15.75 11.85 -16.2 11.55 -16.2 11.4275390625 -16.1796875 11.3 -16.1 Z"/>

<path fill="#494F5E" stroke="none" d="
M 13.85 -19.6
Q 13.498046875 -19.275390625 13.05 -19.2 12.961328125 -18.49140625 12.6 -17.9 12.2552734375 -17.244921875 11.75 -17.05 12.280078125 -16.0806640625 12.75 -15 13.1603515625 -14.076953125 13.55 -12.95 13.611328125 -12.905859375 13.65 -12.85 13.78046875 -12.6802734375 13.85 -12.5 14.296484375 -12.426953125 14.6 -11.95 14.8931640625 -11.4892578125 14.95 -10.85 15.5357421875 -12.5431640625 15.4 -13.9 15.35 -15.4 14.6 -17.6 14.45 -18.2 13.95 -19.35 13.8919921875 -19.47890625 13.85 -19.6
M 17 -36.05
Q 17.2 -35.55 17.3 -35.05 17.5 -34 17.25 -32.9 16.75 -30.85 14.95 -29.25 13.35 -27.8 10.95 -26.65 9.4 -25.9 6.55 -24.8 6.75 -24.15 6.9 -23.5 8.35 -18.75 8.75 -17.3 9.95 -13 10.65 -9.65 11.45 -5.25 11.65 -1.5 11.8 0.75 11.65 5.05 12.2 3.85 12.35 3.45 12.75 2.55 12.95 1.75 13.55 -0.9 13.45 -3.4 13.2513671875 -5.486328125 12.8 -8.9
L 12.75 -8.9
Q 12.05 -8.85 11.55 -9.5 11.05 -10.1 10.95 -11.05 10.9 -12 11.35 -12.7 11.463671875 -12.8767578125 11.6 -13.05 11.3826171875 -13.084765625 11.2 -13.45 11 -13.9 10.95 -14.55 10.9 -15.2 11.05 -15.7 11.168359375 -15.96640625 11.3 -16.1 11.183203125 -16.471484375 11 -16.9 10.30859375 -16.96953125 9.75 -17.7 9.15 -18.55 9.05 -19.75 9 -20.95 9.5 -21.85 10.05 -22.7 10.9 -22.75 10.978125 -22.7546875 11.05 -22.75 11.167578125 -23.1779296875 11.4 -23.55 11.9 -24.3 12.6 -24.35 13.35 -24.4 13.95 -23.7 14.55 -23 14.6 -21.95 14.6498046875 -21.403125 14.55 -20.95 14.9388671875 -20.6384765625 15.3 -20.2
L 15.65 -20.35
Q 15.6 -20.4 15.55 -20.55 15.5 -20.7 15.65 -20.75 15.7 -20.8 15.8 -20.65
L 15.95 -20.5
Q 16.15 -20.5 16.65 -20.7 17.05 -20.8 17.35 -21 18.3 -21.45 18.85 -22.3 19.95 -23.9 19.95 -26.85 19.9 -27.45 19.95 -28.05 19.75 -29.8 19.4 -31.6 18.85 -34.15 17.9 -36.2 17.7 -36.6 18 -36.9
L 16.5 -37.15
Q 16.8 -36.55 17 -36.05
M 25.7 -33.65
L 25.7 -33.8
Q 25.7 -34.1 25.95 -34.4 25.8 -34.55 24.45 -35.7 24.35 -35.8 24.15 -35.95 23.95 -36.2 23.8 -36.35 21.9 -36.45 20.2 -36.65
L 20.4 -36.55
Q 20.4 -36.5142578125 20.4 -36.5
L 19.3 -36.7
Q 20.05 -36 20.6 -34.6 21 -33.7 21.35 -32.1 21.7 -31 21.8 -30.05 21.75 -30.9 21.5 -31.85 21.25 -33.1 20.9 -34.05 20.4 -35.3 19.85 -36.15 19.6 -36.45 20.5 -36.4 21.9 -34.95 22.6 -31.95 22.95 -30.5 23 -29.1 23.05 -27.3 22.65 -25.55 22.1 -23.25 20.7 -21.25 19.05 -18.95 16.9 -18.45 18.2 -15.55 18.3 -13.15 18.4 -10.2 16.55 -8.75
L 16.6 -8.6
Q 17.8 -5.35 18.5 -0.65 19.25 4.8 19.6 7.45 19.8 7.15 20.15 6.55 20.55 6 20.7 5.7 21.35 4.35 21.5 3.25 22 0.6 21.45 -2.05 21.1 -4.45 20 -7.65 19.8 -8.45 19.2 -10.1 18.8 -11.65 19.1 -12.65 19.1 -13.05 19.2 -13.35
L 19.25 -13.4 19.25 -13.5
Q 19.3 -13.65 19.4 -13.6 19.75 -13.6 20 -13.25 19.85 -13.65 19.65 -14.1 19.7 -14.2 19.75 -14.25 19.85 -14.3 19.9 -14.25 20.95 -12.6 21.5 -11.35 22.3 -9.75 22.75 -8.25
L 24.95 -4.95
Q 27.4 -1.3 28.7 0.55 29.3 -0.5 29.45 -1.45 29.7 -2.45 29.5 -3.6 29.1 -5.7 27.5 -8.45 26.4 -10.2 24.45 -12.85 21.8 -16.45 21.25 -17.15 21.25 -17.2 21.3 -17.25
L 21.35 -17.25 22.7 -16.3
Q 22.35 -16.7 22.1 -16.9 21.9 -17 22.05 -17.15 22.2 -17.35 22.35 -17.2 24.85 -15.65 26.9 -13.25 30.6 -11.1 34.4 -7.35 34.2 -7.65 34.45 -7.95 34.75 -8.65 34.45 -9.5 34.25 -10 33.65 -10.85 32.6 -12.4 30.4 -14.45 29.15 -15.55 28.6 -16.05 27.55 -16.9 26.65 -17.55 25.65 -18.25 25.05 -18.6 24.85 -18.65 23.9 -19.15 23.1 -19.5 22.8 -19.8 22.7 -19.85 22.75 -19.9 22.75 -19.95 22.8 -19.95 23.55 -20.1 24.15 -20.15
L 23.9 -20.25 23.85 -20.35
Q 23.9 -20.45 23.95 -20.4 26.7 -20.55 29.85 -18.55 30.3 -18.55 30.55 -18.6 30.7 -19.45 29.75 -20.25 29.45 -20.6 28 -21.55 27.6 -21.75 25.65 -22.8 24.15 -23.6 23.4 -24.25 23.3 -24.3 23.3 -24.45 23.3 -24.55 23.45 -24.6 23.8 -24.75 24.1 -24.75 24.1 -24.85 24.15 -25 24.2 -25.05 24.25 -25.05 24.35 -25.05 25.95 -24.95 27.2 -25.1 28.5 -25.6 28.05 -25.7 27.5 -26.1 26.85 -26.55 26.6 -26.7 25.8 -27.1 25.4 -27.3 24.7 -27.7 24.3 -28.1 24.1 -28.3 24.25 -28.6 24.25 -28.75 24.5 -28.9
L 24.35 -29.05
Q 24.25 -29.1 24.3 -29.25 24.35 -29.45 24.55 -29.4 25.05 -29.2 25.1 -29.2 25.05 -29.3 25.1 -29.4 25.15 -29.5 25.25 -29.55 25.75 -29.6 26.3 -29.45 26.9 -29.7 27.4 -29.95 27.2 -30.1 26.75 -30.45 26.7 -30.5 26.65 -30.5 26.2 -30.95 25.95 -31.05 25.1 -31.45 24.75 -31.7 24.05 -32.1 23.7 -32.55 23.6 -32.6 23.7 -32.75 23.7 -32.8 23.8 -32.8 24.05 -32.9 24.3 -33
L 24.25 -33
Q 24.1 -33.1 24.2 -33.25 24.2 -33.45 24.4 -33.4
L 24.5 -33.4 24.35 -33.5
Q 24.25 -33.6 24.3 -33.65 24.3 -33.75 24.4 -33.75 25.1 -33.85 25.7 -33.65 Z"/>
</g>

<g id="Duplicate_Items_Folder_body_0_Layer2_0_FILL">
<path fill="#FFFFFF" stroke="none" d="
M 18.1 -19.4
L 14.95 -19.7
Q 16.1359375 -15.6625 15.15 -11.65
L 17.65 -11.5
Q 18.6685546875 -13.4193359375 18.3 -15.2 19.2662109375 -17.423828125 18.1 -19.4
M 10.35 -18.05
Q 10.4943359375 -18.309765625 10.65 -18.45 10.33515625 -19.3271484375 9.9 -20.2
L 6.35 -20.55
Q 5.6828125 -15.880078125 8.25 -12.1 10.639453125 -11.159375 12.15 -11.8 12.0888671875 -12.5857421875 11.95 -13.35 11.9392578125 -13.35 11.9 -13.35 11.6 -13.3 11.35 -13.75 11.1048828125 -14.1912109375 11.05 -14.85 11.0107421875 -14.6619140625 10.95 -14.5 10.85 -14.1 10.6 -14.1 10.35 -14.1 10.15 -14.45 10 -14.8 9.95 -15.3 9.95 -15.8 10.05 -16.2 10.146484375 -16.425 10.25 -16.5 10.222265625 -16.7326171875 10.2 -17 10.15 -17.6 10.35 -18.05 Z"/>

<path fill="#560B0B" stroke="none" d="
M 11.9 -17.1
Q 11.85 -17.7 11.55 -18.15 11.3 -18.55 10.95 -18.55 10.801953125 -18.52890625 10.65 -18.45 10.4943359375 -18.309765625 10.35 -18.05 10.15 -17.6 10.2 -17 10.222265625 -16.7326171875 10.25 -16.5 10.146484375 -16.425 10.05 -16.2 9.95 -15.8 9.95 -15.3 10 -14.8 10.15 -14.45 10.35 -14.1 10.6 -14.1 10.85 -14.1 10.95 -14.5 11.0107421875 -14.6619140625 11.05 -14.85 11.1048828125 -14.1912109375 11.35 -13.75 11.6 -13.3 11.9 -13.35 11.9392578125 -13.35 11.95 -13.35 12.226171875 -13.4087890625 12.4 -13.8 12.6 -14.25 12.55 -14.9 12.5 -15.55 12.25 -16 12.058203125 -16.30703125 11.8 -16.4 11.9328125 -16.70703125 11.9 -17.1
M 12.8 -16.2
Q 12.9 -16.3 12.9 -16.45 12.9 -16.65 12.8 -16.8 12.7 -16.9 12.6 -16.9 12.5 -16.9 12.45 -16.75 12.4 -16.6 12.4 -16.45 12.4 -16.25 12.45 -16.15 12.55 -16.05 12.65 -16.05 12.75 -16.05 12.8 -16.2 Z"/>

<path fill="#E0DCDC" stroke="none" d="
M 11.55 -18.15
Q 11.85 -17.7 11.9 -17.1 11.9328125 -16.70703125 11.8 -16.4 12.058203125 -16.30703125 12.25 -16 12.5 -15.55 12.55 -14.9 12.6 -14.25 12.4 -13.8 12.226171875 -13.4087890625 11.95 -13.35 12.0888671875 -12.5857421875 12.15 -11.8
L 15.15 -11.65
Q 16.1359375 -15.6625 14.95 -19.7 12.3611328125 -21.1048828125 9.9 -20.2 10.33515625 -19.3271484375 10.65 -18.45 10.801953125 -18.52890625 10.95 -18.55 11.3 -18.55 11.55 -18.15
M 12.9 -16.45
Q 12.9 -16.3 12.8 -16.2 12.75 -16.05 12.65 -16.05 12.55 -16.05 12.45 -16.15 12.4 -16.25 12.4 -16.45 12.4 -16.6 12.45 -16.75 12.5 -16.9 12.6 -16.9 12.7 -16.9 12.8 -16.8 12.9 -16.65 12.9 -16.45 Z"/>
</g>

<g id="Duplicate_Items_Folder_body_0_Layer1_0_FILL">
<path fill="#8F33FF" stroke="none" d="
M 40.8 1.45
L 40.95 2.75 38.25 4.95 40.4 4.65 40.7 7.45 42 5.35 44.25 6.05 43.5 3.7 45.1 1.65 42.4 2.35 40.7 0.25 40.75 0.9
Q 40.85 1.1 40.9 1.25 40.95 1.35 40.9 1.4 40.85 1.45 40.8 1.45
M 42.75 3.65
Q 42.7 3.75 42.6 3.8 42.4 3.75 42.35 3.75 42.3 3.7 42.35 3.55 42.3 3.4 42.35 3.35 42.4 3.25 42.55 3.25 42.65 3.3 42.75 3.25 42.8 3.35 42.8 3.5 42.8 3.6 42.75 3.65
M 42.15 4.6
Q 42.15 4.45 42.25 4.4 42.3 4.3 42.4 4.25 42.5 4.3 42.6 4.35 42.65 4.4 42.7 4.5 42.65 4.6 42.6 4.7 42.55 4.8 42.45 4.8 42.4 4.8 42.3 4.75 42.2 4.7 42.15 4.6
M 41.4 4.25
Q 41.3 4.25 41.15 4.2 41.1 4.15 41.1 4 41.1 3.95 41.15 3.85 41.2 3.75 41.3 3.75 41.45 3.7 41.5 3.8 41.6 3.8 41.6 4 41.6 4.05 41.55 4.2 41.45 4.25 41.4 4.25 Z"/>

<path fill="#000000" stroke="none" d="
M 41.15 4.2
Q 41.3 4.25 41.4 4.25 41.45 4.25 41.55 4.2 41.6 4.05 41.6 4 41.6 3.8 41.5 3.8 41.45 3.7 41.3 3.75 41.2 3.75 41.15 3.85 41.1 3.95 41.1 4 41.1 4.15 41.15 4.2
M 42.25 4.4
Q 42.15 4.45 42.15 4.6 42.2 4.7 42.3 4.75 42.4 4.8 42.45 4.8 42.55 4.8 42.6 4.7 42.65 4.6 42.7 4.5 42.65 4.4 42.6 4.35 42.5 4.3 42.4 4.25 42.3 4.3 42.25 4.4
M 42.6 3.8
Q 42.7 3.75 42.75 3.65 42.8 3.6 42.8 3.5 42.8 3.35 42.75 3.25 42.65 3.3 42.55 3.25 42.4 3.25 42.35 3.35 42.3 3.4 42.35 3.55 42.3 3.7 42.35 3.75 42.4 3.75 42.6 3.8
M -1.1 7.05
Q -0.95 6.9 -0.95 6.75 -1 6.55 -1.05 6.45 -1.25 6.4 -1.4 6.4 -1.5 6.45 -1.6 6.55 -1.8 6.65 -1.8 6.8 -1.75 7.05 -1.55 7.15 -1.45 7.2 -1.3 7.25 -1.2 7.2 -1.1 7.05
M -0.9 4.75
Q -1.05 4.75 -1.2 4.7 -1.35 4.7 -1.45 4.85 -1.55 4.95 -1.5 5.2 -1.55 5.45 -1.55 5.5 -1.4 5.55 -1.05 5.55 -0.9 5.5 -0.85 5.35 -0.75 5.3 -0.7 5.1 -0.75 4.85 -0.9 4.75
M -3.15 5.5
Q -3.3 5.5 -3.4 5.7 -3.5 5.85 -3.5 5.95 -3.5 6.2 -3.4 6.25 -3.2 6.3 -3.05 6.3 -2.9 6.3 -2.8 6.2 -2.65 6 -2.7 5.9 -2.7 5.65 -2.75 5.55 -2.95 5.5 -3.15 5.5
M 16.15 -34.7
Q 16.25 -34.8 16.35 -34.95 16.45 -35.05 16.45 -35.2 16.35 -35.45 16.15 -35.45 15.95 -35.65 15.8 -35.6 15.65 -35.5 15.55 -35.3 15.45 -35.2 15.55 -35 15.65 -34.85 15.75 -34.8 15.9 -34.6 16.15 -34.7
M 18.25 -35.9
Q 18.3 -36.05 18.2 -36.2 18.1 -36.4 17.95 -36.5 17.8 -36.6 17.65 -36.55 17.5 -36.45 17.4 -36.35 17.35 -36.2 17.35 -36.05 17.4 -35.85 17.55 -35.75 17.75 -35.6 17.95 -35.75 18.1 -35.8 18.25 -35.9
M 16.65 -37.75
Q 16.45 -37.85 16.3 -37.8 16.2 -37.6 16.05 -37.55 15.95 -37.35 16 -37.2 16.05 -37.05 16.25 -36.95 16.45 -36.8 16.5 -36.75 16.7 -36.85 16.9 -37.1 16.95 -37.25 16.9 -37.45 16.9 -37.6 16.65 -37.75
M 5.9 -61.5
L 3.05 -63.2 -6.7 -59.3 -6.8 -57.6 5.9 -61.5 Z"/>

<path fill="#FF9999" stroke="none" d="
M -3.85 1.5
Q -3.7 1.7 -3.8 1.8 -3.85 1.85 -3.95 1.9
L -3.65 3.9 -8 7.4 -4.55 6.9 -4.15 11.4 -1.95 8.05 1.55 9.15 0.4 5.4 2.95 2.2 -1.4 3.3 -4.1 0 -4 0.95
Q -3.9 1.25 -3.85 1.5
M -3.4 5.7
Q -3.3 5.5 -3.15 5.5 -2.95 5.5 -2.75 5.55 -2.7 5.65 -2.7 5.9 -2.65 6 -2.8 6.2 -2.9 6.3 -3.05 6.3 -3.2 6.3 -3.4 6.25 -3.5 6.2 -3.5 5.95 -3.5 5.85 -3.4 5.7
M -1.2 4.7
Q -1.05 4.75 -0.9 4.75 -0.75 4.85 -0.7 5.1 -0.75 5.3 -0.85 5.35 -0.9 5.5 -1.05 5.55 -1.4 5.55 -1.55 5.5 -1.55 5.45 -1.5 5.2 -1.55 4.95 -1.45 4.85 -1.35 4.7 -1.2 4.7
M -0.95 6.75
Q -0.95 6.9 -1.1 7.05 -1.2 7.2 -1.3 7.25 -1.45 7.2 -1.55 7.15 -1.75 7.05 -1.8 6.8 -1.8 6.65 -1.6 6.55 -1.5 6.45 -1.4 6.4 -1.25 6.4 -1.05 6.45 -1 6.55 -0.95 6.75 Z"/>

<path fill="#F75454" stroke="none" d="
M 11.05 -37.3
Q 11.35 -37.2 11.6 -37.15 11.85 -37.15 11.9 -37 11.95 -36.95 11.9 -36.85
L 13.8 -35.85 14.25 -29.9 15.95 -33.25 20.2 -30.85 18.55 -34.8 21.6 -37.2 17.65 -38.5 16.35 -42.7 14.7 -38.25 10.1 -37.9 11.05 -37.3
M 16.3 -37.8
Q 16.45 -37.85 16.65 -37.75 16.9 -37.6 16.9 -37.45 16.95 -37.25 16.9 -37.1 16.7 -36.85 16.5 -36.75 16.45 -36.8 16.25 -36.95 16.05 -37.05 16 -37.2 15.95 -37.35 16.05 -37.55 16.2 -37.6 16.3 -37.8
M 18.2 -36.2
Q 18.3 -36.05 18.25 -35.9 18.1 -35.8 17.95 -35.75 17.75 -35.6 17.55 -35.75 17.4 -35.85 17.35 -36.05 17.35 -36.2 17.4 -36.35 17.5 -36.45 17.65 -36.55 17.8 -36.6 17.95 -36.5 18.1 -36.4 18.2 -36.2
M 16.35 -34.95
Q 16.25 -34.8 16.15 -34.7 15.9 -34.6 15.75 -34.8 15.65 -34.85 15.55 -35 15.45 -35.2 15.55 -35.3 15.65 -35.5 15.8 -35.6 15.95 -35.65 16.15 -35.45 16.35 -35.45 16.45 -35.2 16.45 -35.05 16.35 -34.95 Z"/>
</g>

<g id="feet_bones_0_Layer0_0_FILL">
<path fill="#3B414C" stroke="none" d="
M 21.2 -1.35
Q 21.25 -1.05 21.1 -0.45 21.05 0.15 21 0.4
L 21 0.45
Q 21 0.8 21 1.1 21.15 2.05 21.7 2.75
L 22.05 3.2
Q 22.75 3.85 23.6 4
L 23.85 4
Q 24 4 24.3 4
L 25.1 3.75
Q 26 3.5 26.8 2.7 27.3 2.25 27.65 1.65 27.9 1.15 28.15 0.75 28.25 0.5 28.25 0.25 28.2 0.15 28.25 -0.05 28.25 -0.35 28.2 -1.1 28.15 -1.55 28.25 -1.85 24.45 -4 20.5 -2.4
L 20.6 -1.2
Q 20.6 -1.05 20.65 -0.85 20.95 -1.2 21.15 -1.4 21.15 -1.45 21.2 -1.4
L 21.2 -1.35 Z"/>

<path fill="#000000" stroke="none" d="
M 20.15 -2
Q 20.05 -2 20.05 -1.95
L 20.05 -1.9
Q 20 -1.55 20.3 -1.05 20.3 -0.85 20.4 -0.8 20.55 -0.7 20.65 -0.6 20.5 -0.2 20.45 0.35
L 20.5 1.2
Q 20.6 2.25 21.05 3 21.65 3.7 22.4 4.2 22.25 4.5 22.1 4.7 22.1 4.75 21.9 5
L 21.8 5
Q 21.1 5.05 20.9 5.05 20.3 5.05 20 5
L 19.65 4.95
Q 19.5 4.95 19.35 4.9
L 19.15 4.85
Q 17.9 4.65 17.45 4.45
L 14.3 3.7 14.35 3.7
Q 13.15 3.5 12.55 3.4 10.05 3.15 8.7 4 8.1 4.3 7.9 4.8 7.3 4.7 6.75 4.75 6.2 4.85 5.75 5 4.55 5.45 4.4 7.45 4.5 7.3 5.4 6.9 6.35 6.4 7.6 6.65
L 8 6.75 8.1 6.95
Q 8 7.15 7.85 7.4 7.25 7.35 6.7 7.45 6.3 7.5 5.9 7.65 5.05 8.05 4.8 8.7 4.5 9.3 4.7 10.1 4.75 10.25 5 10.25 5.15 10.25 5.15 10.2 6.3 9.3 7.45 9.15 7.85 9.1 8.1 9.05 8.55 9.65 9.35 10.1 10.25 10.5 11.15 10.7 12.8 11 14.6 10.85 15.85 10.7 17.75 10.25 19.7 9.6 20.7 9.3 22.55 8.8 23.9 8.85 24.8 8.9 27.1 9.15 29.15 9.3 30.35 9.3 31.45 9.3 32.15 9.05 33.2 8.75 33.3 8.2 33.7 8.25 33.85 8.25 34.1 8.3 34.2 8.4 34.8 8.7 35.25 9.2 35.3 9.3 35.5 9.3 35.6 9.3 35.6 9.2 36.05 8.8 36.1 8.35 36.05 7.85 35.4 7.55 34.95 7.3 34.2 7.15 33.5 7 33 7.2
L 32.9 7.2 32.85 7.1
Q 31.55 5.5 29.45 5.65 28.75 5.65 27.25 5.8 26 5.75 25.25 5.1 25.3 5.05 25.25 4.95
L 25.2 4.45
Q 26.1 4.2 26.95 3.55 27.65 3 28.25 2.25 28.45 1.8 28.6 1.55
L 28.8 0.6
Q 29 -0.35 29.05 -0.5 28.9 -1.45 28.7 -1.85 28.55 -2 28.55 -2.15 28.45 -2.25 28.4 -2.25 28.2 -2.25 28.25 -2.15 28.25 -2 28.25 -1.85 28.15 -1.55 28.2 -1.1 28.25 -0.35 28.25 -0.05 28.2 0.15 28.25 0.25 28.25 0.5 28.15 0.75 27.9 1.15 27.65 1.65 27.3 2.25 26.8 2.7 26 3.5 25.1 3.75
L 24.3 4
Q 24 4 23.85 4
L 23.6 4
Q 22.75 3.85 22.05 3.2
L 21.7 2.75
Q 21.15 2.05 21 1.1 21 0.8 21 0.45
L 21 0.4
Q 21.05 0.15 21.1 -0.45 21.25 -1.05 21.2 -1.35
L 21.2 -1.4
Q 21.15 -1.45 21.15 -1.4 20.95 -1.2 20.65 -0.85 20.6 -1.05 20.6 -1.2
L 20.5 -2.4 20.6 -2.6
Q 20 -2.25 20.15 -2
M 33.25 7.6
Q 33.15 7.5 33.15 7.4 33.75 7.45 34.1 7.5 34.55 7.55 34.95 7.7 35.75 8.05 35.45 8.8 35.25 8.6 35.2 8.55 34.8 8.2 34.3 8 33.8 7.75 33.3 7.8
L 33.25 7.6
M 31.35 6.55
Q 31.95 6.95 32.35 7.4 32.7 7.85 32.6 8.05 32.55 8.35 32.25 8.4 31.6 8.7 30.7 8.75 30.2 8.8 29.1 8.75 28.85 8.75 25.8 8.45 23.85 8.3 22.6 8.45 21.3 8.65 19.2 9.2 16.85 9.9 15.8 10.05 14.7 10.25 13.9 10.3 12.75 10.4 11.85 10.25 9.8 9.9 8.95 9.1
L 9.15 9.15
Q 9.25 9.15 9.7 9.3 9.95 9.35 10.2 9.4 10.25 9.4 10.25 9.3 10.4 9.3 10.2 9.2 9.8 8.75 8.55 8.65 8.2 8.6 7.8 8.6
L 7.55 8.7
Q 6.25 8.8 5.2 9.5 5.15 9.2 5.25 8.95 5.5 8.15 6.5 7.9
L 6.8 7.85
Q 7.3 7.8 7.75 7.85 8 7.85 8.45 8 9.15 8.05 9.15 8.1 9.25 8.1 9.3 8.05 9.05 7.7 8.55 7.6 8.75 7.1 9.25 6.7 9.85 6.35 10.5 6.25 11.2 6.15 12.15 6.2 12.7 6.3 13.95 6.5 15.9 6.85 17.1 6.9 19 6.95 20.35 6.55 20.4 6.55 20.35 6.45 20.35 6.4 20.25 6.4 19.05 6.7 17.35 6.55 16.3 6.5 14.25 6.15 12.55 5.8 11.85 5.7 10.5 5.6 9.55 5.9 9.2 6 8.95 6.2 8.7 6.35 8.45 6.55
L 8.35 6.35
Q 8.3 6.2 8.2 6.2 8 6.2 7.8 6.25
L 7.7 6.2
Q 6.9 5.85 5.75 6.2 5.35 6.3 4.9 6.5 5.05 6.35 5.05 6.2 5.2 6 5.4 5.85 5.8 5.45 6.4 5.3 6.6 5.2 7 5.2 7.2 5.2 7.65 5.2 7.7 5.2 7.85 5.2
L 8.3 5.2
Q 8.55 5.2 8.75 5.2 8.8 5.2 8.8 5.15 8.85 5.1 8.8 5.1 8.55 5 8.4 4.95 8.55 4.7 8.8 4.45 9.7 3.9 10.85 3.8 11.85 3.75 13 3.95 13.7 4 14.95 4.35 16.35 4.7 17.1 4.85 18.25 5.15 19.2 5.25 20.05 5.4 20.5 5.45 21.25 5.45 21.9 5.35 21.9 5.45 22.05 5.45 22.15 5.4 22.4 5.1
L 22.5 5.1
Q 22.55 4.95 22.55 4.7
L 22.75 4.35
Q 23.65 4.7 24.6 4.6
L 24.8 4.55 24.8 4.7
Q 24.65 4.75 24.75 4.85
L 24.85 5.05
Q 24.85 5.1 24.9 5.2
L 24.95 5.3
Q 25.4 5.8 25.9 6 26.5 6.25 27.3 6.25 28.6 6.15 29.35 6.15 30.65 6.1 31.35 6.55 Z"/>

<path fill="#333333" stroke="none" d="
M 32.35 7.4
Q 31.95 6.95 31.35 6.55 30.65 6.1 29.35 6.15 28.6 6.15 27.3 6.25 26.5 6.25 25.9 6 25.4 5.8 24.95 5.3
L 24.9 5.2
Q 24.85 5.1 24.85 5.05
L 24.75 4.85
Q 24.65 4.75 24.8 4.7
L 24.8 4.55 24.6 4.6
Q 23.65 4.7 22.75 4.35
L 22.55 4.7
Q 22.55 4.95 22.5 5.1
L 22.4 5.1
Q 22.15 5.4 22.05 5.45 21.9 5.45 21.9 5.35 21.25 5.45 20.5 5.45 20.05 5.4 19.2 5.25 18.25 5.15 17.1 4.85 16.35 4.7 14.95 4.35 13.7 4 13 3.95 11.85 3.75 10.85 3.8 9.7 3.9 8.8 4.45 8.55 4.7 8.4 4.95 8.55 5 8.8 5.1 8.85 5.1 8.8 5.15 8.8 5.2 8.75 5.2 8.55 5.2 8.3 5.2
L 7.85 5.2
Q 7.7 5.2 7.65 5.2 7.2 5.2 7 5.2 6.6 5.2 6.4 5.3 5.8 5.45 5.4 5.85 5.2 6 5.05 6.2 5.05 6.35 4.9 6.5 5.35 6.3 5.75 6.2 6.9 5.85 7.7 6.2
L 7.8 6.25
Q 8 6.2 8.2 6.2 8.3 6.2 8.35 6.35
L 8.45 6.55
Q 8.7 6.35 8.95 6.2 9.2 6 9.55 5.9 10.5 5.6 11.85 5.7 12.55 5.8 14.25 6.15 16.3 6.5 17.35 6.55 19.05 6.7 20.25 6.4 20.35 6.4 20.35 6.45 20.4 6.55 20.35 6.55 19 6.95 17.1 6.9 15.9 6.85 13.95 6.5 12.7 6.3 12.15 6.2 11.2 6.15 10.5 6.25 9.85 6.35 9.25 6.7 8.75 7.1 8.55 7.6 9.05 7.7 9.3 8.05 9.25 8.1 9.15 8.1 9.15 8.05 8.45 8 8 7.85 7.75 7.85 7.3 7.8 6.8 7.85
L 6.5 7.9
Q 5.5 8.15 5.25 8.95 5.15 9.2 5.2 9.5 6.25 8.8 7.55 8.7
L 7.8 8.6
Q 8.2 8.6 8.55 8.65 9.8 8.75 10.2 9.2 10.4 9.3 10.25 9.3 10.25 9.4 10.2 9.4 9.95 9.35 9.7 9.3 9.25 9.15 9.15 9.15
L 8.95 9.1
Q 9.8 9.9 11.85 10.25 12.75 10.4 13.9 10.3 14.7 10.25 15.8 10.05 16.85 9.9 19.2 9.2 21.3 8.65 22.6 8.45 23.85 8.3 25.8 8.45 28.85 8.75 29.1 8.75 30.2 8.8 30.7 8.75 31.6 8.7 32.25 8.4 32.55 8.35 32.6 8.05 32.7 7.85 32.35 7.4
M 33.15 7.4
Q 33.15 7.5 33.25 7.6
L 33.3 7.8
Q 33.8 7.75 34.3 8 34.8 8.2 35.2 8.55 35.25 8.6 35.45 8.8 35.75 8.05 34.95 7.7 34.55 7.55 34.1 7.5 33.75 7.45 33.15 7.4 Z"/>
</g>

<g id="feet_bones_0_Layer0_1_FILL">
<path fill="#FFB600" stroke="none" d="
M 30.45 8.05
Q 31.8 8 32.2 7.6 32.25 7.5 32.35 7.45 32.4 7.45 32.45 7.4 32.05 6.95 31.5 6.5 30.85 6.05 29.5 6.1 28.75 6.15 27.35 6.25 26.55 6.25 26 6 25.45 5.75 25.1 5.25
L 25 5.2
Q 24.95 5.1 24.9 5
L 24.85 4.95
Q 24.5 5.1 23.95 5.05 23.4 5 22.95 4.75 22.8 4.7 22.8 4.6
L 22.7 4.7
Q 22.6 4.95 22.55 5.05
L 22.55 5.1
Q 22.3 5.35 22.05 5.4 21.95 5.4 21.95 5.3 21.4 5.4 20.6 5.4 20.1 5.35 19.3 5.25 18.4 5.15 17.15 4.85 16.5 4.7 15.1 4.35 13.85 4.05 13 3.9 11.9 3.75 10.95 3.8 9.85 3.85 8.95 4.45 8.7 4.65 8.5 4.95 8.65 5 8.9 5.1 8.95 5.1 8.9 5.15 8.9 5.2 8.85 5.2 8.7 5.2 8.4 5.2
L 7.95 5.2
Q 7.85 5.2 7.8 5.2 7.35 5.2 7.1 5.2 6.75 5.2 6.45 5.3 5.85 5.4 5.45 5.8 5.95 5.45 7.15 5.65 7.95 5.8 8.8 6.1
L 8.9 6.15
Q 9 6.1 9.1 6.15 9.35 6 9.65 5.9 10.65 5.6 12 5.7 12.6 5.75 14.4 6.1 16.4 6.45 17.4 6.55 19.2 6.7 20.3 6.4 20.4 6.35 20.45 6.45 20.45 6.5 20.4 6.55 19.1 6.95 17.25 6.9 16 6.8 14 6.5 12.8 6.3 12.3 6.25 11.35 6.15 10.55 6.25 9.9 6.35 9.4 6.7 8.9 7.05 8.7 7.55 9.1 7.7 9.4 8
L 9.45 8.05
Q 9.4 8.1 9.35 8.1 9.25 8.1 8.55 7.95 8.1 7.85 7.8 7.85 7.35 7.75 6.9 7.85
L 6.6 7.9
Q 5.65 8.15 5.35 8.95 5.7 8.65 6.4 8.45 6.95 8.3 7.5 8.25 8.1 8.2 8.95 8.35 10 8.55 10.2 8.95 10.6 9.1 10.8 9.15 11.4 9.35 12.45 9.5 13.4 9.6 14.4 9.55 15.15 9.45 16.25 9.25 16.95 9.1 19.55 8.4 21.65 7.85 23 7.7 24.05 7.6 25.4 7.75 27 7.9 27.8 8 29.35 8.1 30.45 8.05 Z"/>
</g>

<g id="feet_bones_0_Layer0_2_FILL">
<path fill="#666666" stroke="none" d="
M 129.1 395.05
L 128.55 394.95 128.55 395.2 128.8 395.1 129.1 395.05 Z"/>
</g>

<g id="feet_bones_0_Layer0_3_FILL">
<path fill="#7E5A00" stroke="none" d="
M 218.6 423.4
Q 221.05 423.25 222.65 423.35
L 224.35 423.55
Q 231.65 424.65 237.7 429.6 237.6 427.45 236.95 425.5 234.95 423.55 231.05 422.25 228.05 421.3 224.95 420.95 221.7 420.55 217.2 421.65 211.75 423 210.6 425.75 208.7 426.75 207.7 427.15 204.2 428.55 198.5 429.55 193.8 430.35 188.2 429.7 183.8 429.25 178.05 427.75 174.15 426.8 159.3 421.85 147.8 418 140.3 417.1 134.7 416.4 127.25 417.2 118.65 418.4 114.25 418.9 106.2 419.85 100.1 419.45 92.4 419.05 90.35 416.3 89.85 415.6 89.1 415.35
L 89.2 415.35
Q 89.05 415.05 88.75 414.9 87.3 417.7 87.85 419.65 88.85 421.05 90.1 422 93.45 423.65 98.55 424 101.4 424.2 107.35 424 108.8 423.95 124.9 422.1 135.65 420.9 142.45 422.15 149.5 423.45 161.3 427.45 174.6 431.95 180 433.25 186.3 434.75 190.85 435.2 196.9 435.75 201.8 434.65 212.85 432.15 216.9 426.65
L 215.95 426.9
Q 215.4 427.05 213.25 427.8 211.6 428.4 210.5 428.55 209.95 428.65 209.7 428.2 209.45 427.75 209.8 427.35 212.45 424.05 218.6 423.4 Z"/>
</g>

<g id="feet_bones_0_Layer0_4_FILL">
<path fill="#7E5A00" stroke="none" d="
M 139.85 395.2
L 139.25 393.55 139.25 393.5
Q 134.5 396.25 129.1 395.05
L 128.8 395.1 128.55 395.2 128.55 396.15
Q 129.05 396.5 128.9 397
L 128.6 397.85
Q 130.9 398.9 133.95 398.4 136.7 398 139 396.5 139.75 396.1 139.85 395.2 Z"/>
</g>

<path id="Duplicate_Items_Folder_body_0_Layer2_0_1_STROKES" stroke="#000000" stroke-width="0.8" stroke-linejoin="round" stroke-linecap="round" fill="none" d="
M 12.15 -11.8
L 15.175 -11.625
M 14.975 -19.7
Q 12.3611328125 -21.1048828125 9.925 -20.2
M 15.175 -11.625
L 17.65 -11.5
Q 18.6685546875 -13.4193359375 18.3 -15.2 19.2662109375 -17.423828125 18.1 -19.4
L 14.975 -19.7
M 9.925 -20.2
L 6.35 -20.55
Q 5.6828125 -15.880078125 8.25 -12.1 10.639453125 -11.159375 12.15 -11.8"/>

<path id="Duplicate_Items_Folder_body_0_Layer1_0_1_STROKES" stroke="#000000" stroke-width="0.8" stroke-linejoin="round" stroke-linecap="round" fill="none" d="
M 11.05 -37.3
L 10.1 -37.9 14.7 -38.25 16.35 -42.7 17.65 -38.5 21.6 -37.2 18.55 -34.8 20.2 -30.85 15.95 -33.25 14.25 -29.9 13.8 -35.85 11.9 -36.85
M -4 0.95
L -4.1 0 -1.4 3.3 2.95 2.2 0.4 5.4 1.55 9.15 -1.95 8.05 -4.15 11.4 -4.55 6.9 -8 7.4 -3.65 3.9 -3.95 1.9
M 40.75 0.9
L 40.7 0.25 42.4 2.35 45.1 1.65 43.5 3.7 44.25 6.05 42 5.35 40.7 7.45 40.4 4.65 38.25 4.95 40.95 2.75 40.8 1.45"/>
</defs>

<g transform="matrix( 2.80169677734375, 0, 0, 2.8032684326171875, 290.45,474.7) ">
<g transform="matrix( 1, 0, 0, 1, 0,0) ">
<use xlink:href="#feet_0_Layer0_0_FILL"/>
</g>

<g transform="matrix( 1, 0, 0, 1, 0,0) ">
<use xlink:href="#feet_0_Layer0_1_FILL"/>
</g>

<g transform="matrix( -0.18292236328125, 0, 0.0179595947265625, 0.1436614990234375, 29.2,-52.65) ">
<use xlink:href="#feet_0_Layer0_2_FILL"/>
</g>

<g transform="matrix( -0.18292236328125, 0, 0.0179595947265625, 0.1436614990234375, 29.2,-52.65) ">
<use xlink:href="#feet_0_Layer0_3_FILL"/>
</g>

<g transform="matrix( -0.18292236328125, 0, 0.0179595947265625, 0.1436614990234375, 29.2,-52.65) ">
<use xlink:href="#feet_0_Layer0_4_FILL"/>
</g>
</g>

<g transform="matrix( 3.53546142578125, 0.217376708984375, -0.217529296875, 3.5373992919921875, 302.25,412.5) ">
<g transform="matrix( 1, 0, 0, 1, 0,0) ">
<use xlink:href="#Duplicate_Items_Folder_body_0_Layer4_0_FILL"/>
</g>

<g transform="matrix( -0.2452239990234375, 0, 0, 0.2452239990234375, 73.85,-186.7) ">
<use xlink:href="#Duplicate_Items_Folder_body_0_Layer4_1_FILL"/>
</g>

<g transform="matrix( -0.2452239990234375, 0, 0, 0.2452239990234375, 73.85,-186.7) ">
<use xlink:href="#Duplicate_Items_Folder_body_0_Layer4_2_FILL"/>
</g>

<g transform="matrix( -0.2452239990234375, 0, 0, 0.2452239990234375, 73.85,-186.7) ">
<use xlink:href="#Duplicate_Items_Folder_body_0_Layer4_3_FILL"/>
</g>

<g transform="matrix( -0.2452239990234375, 0, 0, 0.2452239990234375, 73.85,-186.7) ">
<use xlink:href="#Duplicate_Items_Folder_body_0_Layer4_4_FILL"/>
</g>

<g transform="matrix( -0.2452239990234375, 0, 0, 0.2452239990234375, 73.85,-186.7) ">
<use xlink:href="#Duplicate_Items_Folder_body_0_Layer4_5_FILL"/>
</g>

<g transform="matrix( 1, 0, 0, 1, 0,0) ">
<use xlink:href="#Duplicate_Items_Folder_body_0_Layer3_0_FILL"/>
</g>

<g transform="matrix( 1, 0, 0, 1, 0,0) ">
<use xlink:href="#Duplicate_Items_Folder_body_0_Layer2_0_FILL"/>

<use xlink:href="#Duplicate_Items_Folder_body_0_Layer2_0_1_STROKES"/>
</g>

<g transform="matrix( 1, 0, 0, 1, 0,0) ">
<use xlink:href="#Duplicate_Items_Folder_body_0_Layer1_0_FILL"/>

<use xlink:href="#Duplicate_Items_Folder_body_0_Layer1_0_1_STROKES"/>
</g>
</g>

<g transform="matrix( 3.548797607421875, 0, 0, 3.55072021484375, 256.95,476.3) ">
<g transform="matrix( 1, 0, 0, 1, 0,0) ">
<use xlink:href="#feet_bones_0_Layer0_0_FILL"/>
</g>

<g transform="matrix( 1, 0, 0, 1, 0,0) ">
<use xlink:href="#feet_bones_0_Layer0_1_FILL"/>
</g>

<g transform="matrix( -0.18377685546875, 0, 0.014373779296875, 0.1436614990234375, 42.8,-52.2) ">
<use xlink:href="#feet_bones_0_Layer0_2_FILL"/>
</g>

<g transform="matrix( -0.18377685546875, 0, 0.014373779296875, 0.1436614990234375, 42.8,-52.2) ">
<use xlink:href="#feet_bones_0_Layer0_3_FILL"/>
</g>

<g transform="matrix( -0.18377685546875, 0, 0.014373779296875, 0.1436614990234375, 42.8,-52.2) ">
<use xlink:href="#feet_bones_0_Layer0_4_FILL"/>
</g>
</g>
</svg>
