
<svg xmlns="http://www.w3.org/2000/svg" version="1.1" xmlns:xlink="http://www.w3.org/1999/xlink" preserveAspectRatio="none" x="0px" y="0px" width="560px" height="544px" viewBox="0 0 560 544">
<defs>
<radialGradient id="Gradient_1" gradientUnits="userSpaceOnUse" cx="0" cy="0" r="10.549503839043807" fx="0" fy="0" gradientTransform="matrix( -0.2808188939688103, -0.9597607768554277, 1.1991085261452998, -0.34954250515105084, 0.7,1.8) " spreadMethod="pad">
<stop  offset="36.07843137254902%" stop-color="#FFD202"/>

<stop  offset="52.549019607843135%" stop-color="#FFFF00"/>

<stop  offset="86.27450980392157%" stop-color="#FEFDA0"/>
</radialGradient>

<g id="Duplicate_Items_Folder_right_shoe_copy_0_Layer0_0_FILL">
<path fill="#000000" stroke="none" d="
M 10.95 -2.45
L 5.85 -0.75 7.7 3.15
Q 0.75 4.3 -4.7 7.65 -6.3 7.45 -7.95 5.35 -8.4 6.15 -7.7 9.25 -6.95 12.3 -4.25 13.85 5.45 14.1 7.05 9.3
L 7.4 13 10.7 12.85
Q 14.55 8.2 12.85 3.5 10.85 1 10.95 -2.45 Z"/>
</g>

<g id="Duplicate_Items_Folder_leg_suit_copy_4_0_Layer0_0_FILL">
<path fill="#000000" stroke="none" d="
M 17.8 17.15
Q 18.15 17.15 18.7 17.25
L 5.45 -30.3
Q 2.1 -29.05 -0.1 -25.15
L 15.8 16.85
Q 16.8 17 17.8 17.15
M 22.95 -22.2
Q 19.8 -26 16.55 -28.05
L 21.35 17
Q 23.6 16.5 25.9 15 25.8 14.65 25.8 14.5 25.15 12.05 24.7 11 24.1 9.8 24.45 5.7 24.45 3.95 24.55 2.55 24.65 -1.9 24.45 -4.15
L 24.4 -4.3
Q 23.6 -13.25 22.95 -22.2 Z"/>

<path fill="#FFFFFF" stroke="none" d="
M 7.5 -30.9
Q 6.3 -30.85 5.45 -30.3
L 18.7 17.25
Q 19.95 17.25 21.35 17
L 16.55 -28.05
Q 12.35 -31.2 8.6 -31 7.95 -31.05 7.5 -30.9 Z"/>
</g>

<g id="Duplicate_Items_Folder_arm_suit_copy_4_0_Layer1_0_FILL">
<path fill="#000000" stroke="none" d="
M 5.25 22.65
Q 5.35 22.05 5.5 21.5 5.55 20.8 1.4 20.9 -2.55 20.95 -7.05 17.35 -8.95 18.25 -9.3 18.75 -10.2 20.45 -11.45 21.05 -12.7 21.65 -15.05 27.1 -17.35 32.5 -16.8 33.85 -16.15 35.1 -15.85 36.25 -14.5 37.75 -14.05 37.6 -13.65 38.8 -13.5 39.9 -10.4 44.9 -5.6 38.1 -4.15 33.2 -3.35 32.3
L -2.05 33.95
Q -0.75 35.65 2.05 35.35 2.85 34.95 3.9 34.6 5.05 34.15 6.2 32.55 7 31 6.2 29.35 5.05 27.55 4.75 27 4.4 25.8 4.9 25.1 5 24.9 5.25 22.65
M 3.6 22.45
Q 3.55 22.75 3.4 23.25 3.25 24.35 3.1 25.3 3.1 26.05 4.2 28.4 5.35 30.65 4.5 31.8 3.8 32.9 2 33.35 0.3 33.75 -0.95 33
L -0.85 32.7
Q -1.85 32.4 -1.15 29.3 -0.6 26.2 -1.45 25.65 -2.3 25.2 -3.7 27.6 -5.15 29.95 -6.3 31.9 -7.55 33.85 -7.15 35.15 -6.45 38 -10.35 39.85 -13.15 39.25 -12 36.7 -12.25 36.5 -10.25 31 -10.25 30.95 -10.2 30.95 -9.75 29.5 -9.1 27.7
L -9.5 28.05 -10.1 28.1
Q -13 35.05 -13.95 33.8 -14.85 32.5 -14.15 29.25 -13.6 26.05 -12.55 24.65 -11.5 23.3 -9.65 21.5
L -8.5 19.15
Q -8.3 18.95 -6.5 19.25
L -4.55 20.65 3.6 22.45 Z"/>

<path fill="#ECD8F3" stroke="none" d="
M 3.4 23.25
Q 3.55 22.75 3.6 22.45
L -4.55 20.65 -6.5 19.25
Q -8.3 18.95 -8.5 19.15
L -9.65 21.5
Q -11.5 23.3 -12.55 24.65 -13.6 26.05 -14.15 29.25 -14.85 32.5 -13.95 33.8 -13 35.05 -10.1 28.1
L -9.5 28.05 -9.1 27.7
Q -9.75 29.5 -10.2 30.95 -10.25 30.95 -10.25 31 -12.25 36.5 -12 36.7 -13.15 39.25 -10.35 39.85 -6.45 38 -7.15 35.15 -7.55 33.85 -6.3 31.9 -5.15 29.95 -3.7 27.6 -2.3 25.2 -1.45 25.65 -0.6 26.2 -1.15 29.3 -1.85 32.4 -0.85 32.7
L -0.95 33
Q 0.3 33.75 2 33.35 3.8 32.9 4.5 31.8 5.35 30.65 4.2 28.4 3.1 26.05 3.1 25.3 3.25 24.35 3.4 23.25 Z"/>
</g>

<g id="Duplicate_Items_Folder_arm_suit_copy_4_0_Layer0_0_FILL">
<path fill="#C048B4" stroke="none" d="
M 6.3 21.85
L 8.9 13.85 -4.85 12
Q -8.25 15.9 -11.65 18.8 -0.75 22 6.3 21.85 Z"/>

<path fill="#000000" stroke="none" d="
M 12.55 3
L 1.8 2.15
Q -1.45 7.7 -4.85 12
L 8.9 13.85 12.55 3
M 7.5 -9.05
L 15.95 -7.05 16.65 -9.05 25 -20.9 12.1 -21.4
Q 9.8 -14.65 7.5 -9.05
M 33.05 -32.45
L 40.05 -42.4 18.95 -43.2
Q 18.15 -41 17.35 -38.2 16.5 -35.25 15.7 -32.4
L 33.05 -32.45 Z"/>

<path fill="#FFFFFF" stroke="none" d="
M 33.05 -32.45
L 15.7 -32.4
Q 13.9 -26.55 12.1 -21.4
L 25 -20.9 33.05 -32.45
M 15.95 -7.05
L 7.5 -9.05
Q 7.05 -8.1 6.6 -7.15 4.25 -2.1 1.8 2.15
L 12.55 3 15.95 -7.05
M 25.6 -52.8
Q 24.6 -52.55 24.1 -52.25 21.95 -51.15 18.95 -43.2
L 40.05 -42.4 40.75 -43.45
Q 41.8 -50.2 39.9 -53.6 29.45 -53.75 25.6 -52.8 Z"/>
</g>

<g id="Duplicate_Items_Folder_body_suit_copy_6_0_Layer2_0_FILL">
<path fill="#FFFFFF" stroke="none" d="
M -31.45 27.05
L -31.45 27.05
Q -31.396875 27.2654296875 -31.35 27.5
L -31.3 27.5
Q -31.35 27.3 -31.45 27.05
M -8.65 -46.3
L -8.7 -46.3
Q -11.0611328125 -46.08984375 -13.7 -45.85 -14.0921875 -45.85 -15 -45.6 -25.53203125 -27.8638671875 -25.65 -7.1
L -21.95 41.05
Q -18.0513671875 42.81640625 -13.15 43.7 -15.839453125 39.88984375 -19.05 7.95 -21.820703125 -29.2005859375 -8.65 -46.3
M 1.15 -46.65
L 0.55 -46.75
Q 0.6173828125 -46.75 0.65 -46.75 -0.2564453125 -46.89765625 -0.75 -46.9 -1.1423828125 -46.85078125 -1.55 -46.85 -1.5998046875 -46.828125 -1.65 -46.85 -1.7931640625 -46.810546875 -1.95 -46.8 -2.76875 -46.752734375 -3.65 -46.7 -14.7953125 -3.1125 -7.9 44.75 -7.3962890625 44.841015625 -6.85 44.95 -1.583984375 46.003515625 -1.05 46.15
L -0.9 46.1
Q -0.965234375 46.1033203125 -1.05 46.1 -1.476953125 45.9876953125 -0.25 45.9 7.933203125 6.9341796875 1.15 -46.65
M 1.15 -46.7
L 1.15 -46.65 1.4 -46.65
Q 1.2892578125 -46.6458984375 1.15 -46.7
M 1.15 -46.7
Q 0.9171875 -46.712890625 0.65 -46.75 0.6173828125 -46.75 0.55 -46.75
L 1.15 -46.65 1.15 -46.7
M 1.15 -46.75
Q 0.9904296875 -46.7390625 0.8 -46.75 0.7423828125 -46.75 0.65 -46.75 0.9171875 -46.712890625 1.15 -46.7
L 1.15 -46.75
M 11.75 -41.75
Q 11.2171875 -41.9751953125 10.35 -42.3 9.9703125 -42.454296875 9.5 -42.65 19.562890625 1.025390625 8.8 45.25 10.953515625 44.8216796875 13.45 44.15 17.5068359375 43.140234375 20.4 41.7 23.935546875 29.484765625 23.2 -3.9 22.940234375 -24.580078125 16.9 -43.05 15.1455078125 -44.17578125 14 -44.7 12.73984375 -45.3697265625 9.9 -45.8 9.7107421875 -45.828515625 9.5 -45.85
L 9.5 -42.65
Q 10.4646484375 -42.3259765625 11.4 -41.95 11.6125 -41.838671875 11.8 -41.75 11.789453125 -41.7541015625 11.75 -41.75 Z"/>

<path fill="#000000" stroke="none" d="
M -15 -45.6
Q -16.1904296875 -45.28359375 -18.25 -44.55 -21.8 -43.25 -28.25 -32.95 -30.0236328125 -22.57109375 -30.55 -14.95 -31.162109375 -5.7255859375 -30.45 -2.55 -29.690234375 0.6326171875 -30.1 5.4 -30.45703125 10.2064453125 -30.3 14.4 -30.15 18.603125 -30.4 20.15 -30.7220703125 22.578125 -30.8 23.55 -30.840234375 24.033984375 -30.95 24.55 -31.090234375 25.71796875 -31.45 27.05 -31.35 27.3 -31.3 27.5
L -31.35 27.5
Q -31.396875 27.2654296875 -31.45 27.05 -32.7291015625 31.9294921875 -32.25 33.25 -31.7185546875 34.5826171875 -26.3 38.5 -24.31171875 39.93671875 -21.95 41.05
L -25.65 -7.1
Q -25.53203125 -27.8638671875 -15 -45.6
M -3.65 -46.7
Q -5.497265625 -46.565625 -6.8 -46.45 -8.0978515625 -46.34609375 -8.65 -46.3 -21.820703125 -29.2005859375 -19.05 7.95 -15.839453125 39.88984375 -13.15 43.7 -12.7771484375 43.790234375 -12.45 43.85 -12.1552734375 43.8931640625 -7.9 44.75 -14.7953125 -3.1125 -3.65 -46.7
M 9.5 -45.85
Q 5.9455078125 -46.3921875 5.5 -46.45 3.421484375 -46.5904296875 1.5 -46.7 1.353515625 -46.713671875 1.15 -46.75
L 1.15 -46.7
Q 1.2892578125 -46.6458984375 1.4 -46.65
L 1.15 -46.65
Q 7.933203125 6.9341796875 -0.25 45.9 -1.476953125 45.9876953125 -1.05 46.1 -0.965234375 46.1033203125 -0.9 46.1 2.7603515625 46.2400390625 5.7 45.8 7.138671875 45.5947265625 8.8 45.25 19.562890625 1.025390625 9.5 -42.65 9.4138671875 -42.6662109375 9.3 -42.7 9.4126953125 -42.671875 9.5 -42.65
L 9.5 -45.85
M 25.35 -36.3
Q 23.66484375 -38.1189453125 21 -40.15 18.641796875 -41.9046875 16.9 -43.05 22.940234375 -24.580078125 23.2 -3.9 23.935546875 29.484765625 20.4 41.7 24.048828125 39.9779296875 25.95 37.65 26.5982421875 36.896875 27.15 36.25 29.682421875 33.2970703125 30.7 32.6 30.84453125 32.5498046875 30.9 32.25 30.997265625 31.7560546875 30.9 30.6 30.80703125 29.4802734375 30.5 27.75 30.5171875 27.655859375 30.5 27.55
L 30 24.35 30 24.4
Q 30.232421875 25.9318359375 29.95 24.55 30.0302734375 23.4375 29.5 20.15 29.3505859375 19.203125 29.15 18.05 28.203125 12.755078125 28.3 7.25 28.441796875 1.7505859375 28.65 0.85 29.6013671875 -2.937109375 29.6 -8.75 29.6009765625 -9.255078125 29.6 -9.8 29.58828125 -10.33046875 29.55 -10.9 29.455078125 -15.3857421875 29.35 -20.95 29.3083984375 -23.715625 29.05 -26.1
L 29.05 -26.15
Q 28.8498046875 -28.401953125 28.45 -30.3 28.490234375 -32.990625 25.35 -36.3 Z"/>

<path fill="#006699" stroke="none" d="
M 10.35 -42.3
Q 11.2171875 -41.9751953125 11.75 -41.75 11.789453125 -41.7541015625 11.8 -41.75 11.6125 -41.838671875 11.4 -41.95 10.4646484375 -42.3259765625 9.5 -42.65 9.4126953125 -42.671875 9.3 -42.7 9.4138671875 -42.6662109375 9.5 -42.65 9.9703125 -42.454296875 10.35 -42.3 Z"/>
</g>

<g id="Duplicate_Items_Folder_body_suit_copy_6_0_Layer1_0_FILL">
<path fill="#ECECEC" stroke="none" d="
M -11.35 3.1
L -18.6 11.5
Q -16.561328125 15.20078125 -13.3 17.85
L -5.15 7.95
Q -8.907421875 6.149609375 -11.35 3.1
M -20.55 -16.2
Q -22.3017578125 -7.630859375 -21.9 -0.85
L -14.95 -4.5
Q -16.3041015625 -10.1953125 -15.35 -18.05
L -20.55 -16.2
M -14.15 -25.05
Q -13.15625 -29.435546875 -11.6 -34.35
L -14.75 -35.45
Q -16.8888671875 -29.82109375 -18.4 -24.75
L -14.15 -25.05
M -7.65 -45.35
L -6.95 -47.45
Q -8.735546875 -48.7671875 -10.35 -46.75
L -10.45 -45.75
Q -11.2244140625 -44.012109375 -11.95 -42.35
L -9.15 -41.45
Q -8.437890625 -43.3638671875 -7.65 -45.35
M 2 8.55
L 2.15 21.8
Q 9.7373046875 20.183984375 14.25 15.9
L 7.35 5.45
Q 4.78203125 7.1935546875 2 8.55
M 20 -13.5
L 14.5 -13.9
Q 14.93203125 -6.64921875 13 -1.75
L 21 -0.9
Q 21.2779296875 -6.50703125 20 -13.5
M 12.75 -25.15
L 16.65 -26.45
Q 15.5658203125 -29.77734375 14.2 -33.35
L 10.75 -32.4
Q 11.9359375 -28.58125 12.75 -25.15
M 5.75 -46.5
Q 7.3431640625 -42.2822265625 8.25 -39.75
L 11.15 -41.05
Q 10.2177734375 -43.2259765625 9.2 -46.45 6.850390625 -48.4443359375 5.75 -46.5 Z"/>

<path fill="#000000" stroke="none" d="
M -14.95 -4.5
L -21.9 -0.85
Q -21.4609375 6.33359375 -18.6 11.5
L -11.35 3.1
Q -13.84921875 -0.050390625 -14.95 -4.5
M -14.15 -25.05
L -18.4 -24.75
Q -19.7228515625 -20.2552734375 -20.55 -16.2
L -15.35 -18.05
Q -14.948046875 -21.3455078125 -14.15 -25.05
M -14.75 -35.45
L -11.6 -34.35
Q -10.5169921875 -37.767578125 -9.15 -41.45
L -11.95 -42.35
Q -13.4603515625 -38.779296875 -14.75 -35.45
M 2.15 21.8
L 2 8.55
Q 0.31875 9.3328125 -3.25 8.75 -4.219140625 8.3912109375 -5.15 7.95
L -13.3 17.85
Q -9.5818359375 21.4244140625 -5.5 22.55 -1.357421875 23.7306640625 2.15 21.8
M 21 -0.9
L 13 -1.75
Q 11.1953125 2.85 7.35 5.45
L 14.25 15.9
Q 20.5314453125 10.0123046875 21 -0.9
M 10.75 -32.4
L 14.2 -33.35
Q 12.8267578125 -37.0669921875 11.15 -41.05
L 8.25 -39.75
Q 9.668359375 -35.913671875 10.75 -32.4
M 16.65 -26.45
L 12.75 -25.15
Q 14.2052734375 -18.9318359375 14.5 -13.9
L 20 -13.5
Q 18.88828125 -19.4529296875 16.65 -26.45 Z"/>

<path fill="#C048B4" stroke="none" d="
M 8.25 -39.75
Q 7.3431640625 -42.2822265625 5.75 -46.5 5.8009765625 -45.833203125 5.65 -46.7 0.503125 -49.1421875 -6.95 -47.45
L -7.65 -45.35
Q -8.437890625 -43.3638671875 -9.15 -41.45 -10.5169921875 -37.767578125 -11.6 -34.35 -13.15625 -29.435546875 -14.15 -25.05 -14.948046875 -21.3455078125 -15.35 -18.05 -16.3041015625 -10.1953125 -14.95 -4.5 -13.84921875 -0.050390625 -11.35 3.1 -8.907421875 6.149609375 -5.15 7.95 -4.219140625 8.3912109375 -3.25 8.75 0.31875 9.3328125 2 8.55 4.78203125 7.1935546875 7.35 5.45 11.1953125 2.85 13 -1.75 14.93203125 -6.64921875 14.5 -13.9 14.2052734375 -18.9318359375 12.75 -25.15 11.9359375 -28.58125 10.75 -32.4 9.668359375 -35.913671875 8.25 -39.75 Z"/>
</g>

<g id="Duplicate_Items_Folder_body_suit_copy_6_0_Layer0_0_FILL">
<path fill="#000000" stroke="none" d="
M 6.45 -4.2
Q 6.66796875 -21.1810546875 2.2 -38.3
L 6 -43.6
Q -4.7 -45.95 -3.15 -43.15
L -1.25 -37.85
Q -6.49765625 -22.426171875 -5.85 -6.7
L 0.6 5.65 6.45 -4.2 Z"/>
</g>

<g id="Duplicate_Items_Folder_head_copy_4_0_Layer4_0_FILL">
<path fill="#FFFFBF" stroke="none" d="
M -12.6 -40.6
Q -13.4431640625 -40.108203125 -14.15 -39.6 -16.3990234375 -37.937890625 -17.05 -36.1 -17.8 -34 -18 -29.6 -18.196875 -25.4048828125 -19.55 -24 -20.8599609375 -22.5853515625 -21.05 -17.4
L -19.3 -19.15
Q -17.480078125 -15.425 -17.65 -11.7 -15.7396484375 -13.61796875 -16.15 -16.25 -13.59140625 -13.15 -13.5 -10.05 -12.0828125 -12.0482421875 -11.95 -12.5 -11.8537109375 -12.111328125 -11.3 -10.55 -9.5583984375 -10.6970703125 -8.6 -13.35
L -1.05 -13.4 0.9 -17.15 -10.1 -17.05
Q -10.85 -14.9 -11.15 -13.65 -12.5 -16 -12.55 -16.35 -12.65 -16 -13.25 -14.35 -13.75 -16.9 -15.55 -19.4 -15.35 -17.25 -16.8 -15.7 -16.6 -18.7 -17.8 -21.8
L -19.15 -20.35
Q -18.7845703125 -24.55 -17 -25.1 -15.21171875 -25.65 -15.8 -29.8 -16.3462890625 -33.9 -15.75 -35.6 -15.05 -37.55 -12.4 -39.3
L -9.8 -40.6
Q -10.1517578125 -41.3740234375 -10.35 -41.65
L -12.6 -40.6
M -8.3 -43.5
Q -9.834765625 -43.65859375 -10 -43.7 -9.8 -43.55 -9.15 -42.2
L -10.15 -41.75
Q -9.6841796875 -41.675390625 -8.65 -41.55
L -8.3 -43.5
M 2.4 -39.25
Q 2.2681640625 -39.4228515625 2.1 -39.6 1.40234375 -40.49765625 0.4 -41.5 0.1 -41.75 -0.1 -42.05
L -1.45 -43.05 0.5 -44.65 -4.25 -43.6 -2.9 -46.35 -6 -44.1 -7.1 -45.85 -7.55 -43.4
Q -7.903515625 -43.4392578125 -8.2 -43.5
L -7.45 -42.15 -5.15 -43.95 -6.2 -41.75 -2.7 -42.6
Q -0.3994140625 -40.6978515625 0.2 -39.6 0.9953125 -38.103515625 -1.4 -38.1 -0.4333984375 -36.87578125 1 -34.2 2.9 -30.75 2.95 -29.75 3.05 -28.75 4.35 -26
L 4.9 -25 7.9 -30.95
Q 7.2103515625 -32.272265625 5.85 -34.35 3.65 -37.8 2.4 -39.25 Z"/>

<path fill="#E7E79D" stroke="none" d="
M 8.75 -28.9
Q 8.67421875 -29.531640625 7.9 -30.95
L 4.9 -25 4.35 -26
Q 3.05 -28.75 2.95 -29.75 2.9 -30.75 1 -34.2 -0.4333984375 -36.87578125 -1.4 -38.1 0.9953125 -38.103515625 0.2 -39.6 -0.3994140625 -40.6978515625 -2.7 -42.6
L -6.2 -41.75 -5.15 -43.95 -7.45 -42.15 -8.2 -43.5 -8.25 -43.55 -8.3 -43.5 -8.65 -41.55
Q -9.6841796875 -41.675390625 -10.15 -41.75 -10.3939453125 -41.78125 -10.45 -41.8 -10.40546875 -41.7703125 -10.35 -41.65 -10.1517578125 -41.3740234375 -9.8 -40.6
L -12.4 -39.3
Q -15.05 -37.55 -15.75 -35.6 -16.3462890625 -33.9 -15.8 -29.8 -15.21171875 -25.65 -17 -25.1 -18.7845703125 -24.55 -19.15 -20.35
L -17.8 -21.8
Q -16.6 -18.7 -16.8 -15.7 -15.35 -17.25 -15.55 -19.4 -13.75 -16.9 -13.25 -14.35 -12.65 -16 -12.55 -16.35 -12.5 -16 -11.15 -13.65 -10.85 -14.9 -10.1 -17.05
L 0.9 -17.15 -1.05 -13.4 5.2 -13.45 9.55 -19.8 5.2 -13.45 7.9 -13.5
Q 9.112109375 -16.125 9.25 -15.75 9.4484375 -15.321484375 11.95 -16.1
L 10.65 -18.6
Q 12.0451171875 -19.5439453125 12.7 -21.2
L 10.8 -24.35
Q 8.9 -27.7 8.75 -28.9
M -11.85 -36.5
Q -12.2669921875 -34.059375 -12.85 -32.65 -13.3853515625 -31.2455078125 -13 -30.3 -12.6046875 -29.3509765625 -13.2 -29.35 -13.75 -29.35 -14.2 -30.3 -14.6 -31.25 -14.6 -32.6 -14.6 -33.95 -14.2 -34.9 -13.7517578125 -35.8537109375 -12.6 -37.4 -11.4408203125 -38.9388671875 -11.85 -36.5 Z"/>

<path fill="#D0D08B" stroke="none" d="
M -12.85 -32.65
Q -12.2669921875 -34.059375 -11.85 -36.5 -11.4408203125 -38.9388671875 -12.6 -37.4 -13.7517578125 -35.8537109375 -14.2 -34.9 -14.6 -33.95 -14.6 -32.6 -14.6 -31.25 -14.2 -30.3 -13.75 -29.35 -13.2 -29.35 -12.6046875 -29.3509765625 -13 -30.3 -13.3853515625 -31.2455078125 -12.85 -32.65 Z"/>
</g>

<g id="Duplicate_Items_Folder_head_copy_4_0_Layer3_0_FILL">
<path fill="#E9D3FA" stroke="none" d="
M 6.1 -37.7
Q 4.1736328125 -40.5728515625 0.4 -41.5 -0.6 -41.25 -1.4 -39.3 -3.7 -40.75 -7 -41.15 -9.85 -39.65 -9.75 -36.4
L -9.65 -36 -9.65 -35.95
Q -10.96484375 -32.45703125 -9.1 -29.6 -11.05 -24.85 -11.15 -20.4 -13.6994140625 -22.6447265625 -13.85 -26.55 -15.2830078125 -21.0869140625 -11.8 -17
L -5.55 -10.7
Q -5.2 -10.45 -4.5 -10.1 -3.8 -9.65 -2.75 -9.65 -1.75 -9.65 -0.75 -9.95 0.15 -10.25 5.75 -13.95 7.05 -15.2 8.9 -17.9 10.8 -20.6 10.75 -22.5 10.75 -24.4 9.05 -26.25 8.2 -27.1 7.3 -28 7.3 -28.15 7.55 -30 7.805859375 -32.055859375 7.9 -33.45 8.0322265625 -34.8330078125 6.1 -37.7
M 2.45 -38.65
Q 4.452734375 -37.255078125 4.5 -36.55 4.545703125 -35.8484375 2.75 -36.9 1.0109375 -37.901953125 -0.25 -36.75 -1.5107421875 -35.5986328125 -2.55 -35.75 -3.596484375 -35.8505859375 -3.6 -36.5 -3.6 -37.15 -2.45 -37.65 -1.24921875 -38.1017578125 -0.4 -39.05 0.4470703125 -39.9951171875 2.45 -38.65 Z"/>

<path fill="#F8F0FF" stroke="none" d="
M 4.5 -36.55
Q 4.452734375 -37.255078125 2.45 -38.65 0.4470703125 -39.9951171875 -0.4 -39.05 -1.24921875 -38.1017578125 -2.45 -37.65 -3.6 -37.15 -3.6 -36.5 -3.596484375 -35.8505859375 -2.55 -35.75 -1.5107421875 -35.5986328125 -0.25 -36.75 1.0109375 -37.901953125 2.75 -36.9 4.545703125 -35.8484375 4.5 -36.55 Z"/>
</g>

<g id="Duplicate_Items_Folder_head_copy_4_0_Layer2_0_FILL">
<path fill="#684389" stroke="none" d="
M -6.15 -13.7
L -5.3 -13.15 -4.85 -13.2 -1.8 -13.6
Q -3.55 -17 -8.55 -18.9 -8.55 -16.4 -7.8 -15.3 -7.2 -14.5 -6.15 -13.7 Z"/>

<path fill="#00FF79" stroke="none" d="
M -5.2 -21.75
Q -6.15 -20.1 -6.35 -19.85
L -5.2 -18.75 -5.15 -18.45 -3.6 -20.95
Q -4.1 -21.25 -5.2 -21.75
M 2.3 -18.65
L 2.1 -20.05
Q 1.55 -19.95 1 -19.8
L 1.05 -18.25 1.3 -17.4 2.45 -17.4 2.4 -18.55 2.3 -18.6 2.3 -18.65
M 6.05 -18.75
Q 6.35 -18.5 7.4 -18.6
L 7.1 -20.35
Q 6.95 -20.4 6.8 -20.35 6.25 -20.35 5.85 -20.35
L 6.05 -18.75
M 6.05 -18.6
L 6.05 -18.65 6.05 -18.75
Q 6 -18.7 6.05 -18.6 Z"/>

<path fill="#8ECB8A" stroke="none" d="
M -1.85 -20.2
Q -3 -20.55 -3.6 -20.95
L -5.15 -18.45 -5.15 -18.15 -3.4 -17.2
Q -3.45 -17.35 -2.8 -18.3
L -1.85 -20.2
M 1 -19.8
L 0.95 -19.75
Q 0.4 -19.6 -0.65 -19.9
L -1.05 -17.95
Q -1.1 -17.9 -0.8 -16.55
L 0.75 -16.55
Q 0.9 -16.95 1.2 -17.3
L 1.05 -18.25 1 -19.8
M 6.05 -18.65
L 6.05 -18.6
Q 6 -18.7 6.05 -18.75
L 5.85 -20.35
Q 5.3 -20.4 5 -20.45 4.65 -20.25 4.35 -20.05
L 4.45 -19.4 4.5 -17.3
Q 4.95 -17.35 5.45 -17.45 6.35 -17.65 6.3 -17.7 6.15 -18.4 6.05 -18.65 Z"/>

<path fill="#B9CB8A" stroke="none" d="
M -0.65 -19.9
Q -1 -19.95 -1.4 -20.05 -1.6 -20.15 -1.85 -20.2
L -2.8 -18.3
Q -2.75 -18.3 -1.05 -17.95
L -0.65 -19.9
M 2.3 -18.65
L 2.45 -18.65 2.85 -17.95 3.9 -18.25 4.45 -19.4 4.35 -20.05 4.3 -20.5
Q 3.5 -20.45 2.1 -20.05
L 2.3 -18.65
M 7.1 -20.35
L 7.4 -18.6 7.45 -18.55 8.45 -18.85 8.5 -20.65
Q 8.1 -20.45 7.1 -20.35 Z"/>

<path fill="#000000" stroke="none" d="
M 0.3 -13.9
Q 0.1 -15.25 0.75 -16.55
L -0.8 -16.55
Q -1.1 -17.9 -1.05 -17.95 -2.75 -18.3 -2.8 -18.3 -3.45 -17.35 -3.4 -17.2
L -5.15 -18.15 -5.15 -18.45 -5.2 -18.75 -6.35 -19.85
Q -6.15 -20.1 -5.2 -21.75 -6.05 -22.15 -7.25 -22.6
L -8.4 -20.75
Q -8.55 -20.7 -8.55 -20.55 -8.6 -19.75 -8.55 -18.9 -3.55 -17 -1.8 -13.6
L -0.1 -13.8
Q 0.1 -13.9 0.3 -13.9 Z"/>
</g>

<g id="Duplicate_Items_Folder_eye_copy_0_Layer3_0_FILL">
<path fill="#B2A8BB" stroke="none" d="
M 0.75 18.95
Q 3.7 19.65 5.85 18.05 15.4 10.85 13.1 2.55
L -9.75 7.2
Q -15.8 14.85 0.75 18.95 Z"/>
</g>

<g id="Duplicate_Items_Folder_eye_copy_0_Layer2_0_FILL">
<path fill="#C8A2AA" stroke="none" d="
M 14.15 1
L 14.2 1.15 14.2 1.05 14.15 1 Z"/>

<path fill="#00FF00" stroke="none" d="
M -8.7 7.25
Q -9.25 6.8 -9.7 6.35 -9.95 6.25 -9.9 6.1 -10.7 5.25 -11.35 4.2 -11.45 5.55 -11.15 5.8 -9.9 8 -8.2 9.45 -4.25 12.9 1.95 12.15 4.2 11.7 6 10.6 9.55 8.45 11.15 3.75 8.75 8.65 1.8 10 -4.6 10.8 -8.7 7.25 Z"/>

<path fill="url(#Gradient_1)" stroke="none" d="
M 11.55 -2.75
Q 7.65 -7.4 0.5 -6.7 -8.05 -4.5 -9.05 1.25 -9.65 4.25 -9.75 5.8 -9.75 6.05 -9.75 6.25 -9.75 6.3 -9.7 6.35 -9.25 6.8 -8.7 7.25 -4.6 10.8 1.8 10 8.75 8.65 11.15 3.75
L 11.55 -2.75 Z"/>

<path fill="#FEFE39" stroke="none" d="
M 6.85 -8.45
Q 6.3681640625 -8.775 5.85 -9.05 2.95 -10.55 -0.75 -9.9 -9.3 -6.2 -10.55 -0.65 -10.6 -0.5 -10.65 -0.35 -11.25 2.65 -11.35 4.2 -10.7 5.25 -9.9 6.1 -9.85 6.15 -9.75 6.25 -9.75 6.05 -9.75 5.8 -9.65 4.25 -9.05 1.25 -8.05 -4.5 0.5 -6.7 7.65 -7.4 11.55 -2.75 11.55 -3.35 10.4 -4.45 10.25 -4.65 10.15 -4.85 8.6912109375 -7.13671875 6.85 -8.45 Z"/>

<path fill="#8663A6" stroke="none" d="
M 4.05 -14.55
Q 3.9 -14.75 3.75 -14.9 3.7 -15 3.65 -15.05 -2.2 -22.3 -8.2 -13.7 -8.35 -13.55 -8.4 -13.4 -9.05 -11.6 -9.5 -8.95 -10 -6 -10.55 -0.65 -9.3 -6.2 -0.75 -9.9 2.95 -10.55 5.85 -9.05 6.3681640625 -8.775 6.85 -8.45 8.8302734375 -7.3732421875 7.25 -10
L 6.9 -10.55
Q 5.4 -12.85 4.05 -14.55 Z"/>
</g>

<g id="Duplicate_Items_Folder_eye_copy_0_Layer1_0_FILL">
<path fill="#000000" stroke="none" d="
M 8.55 -11.7
L 12.7 -13.05 11.45 -15.95
Q 11.4 -13.3 7.9 -14.1 -5.8 -26.3 -12.2 -25.35
L -12.45 -25 -16.65 -22.25 -12.5 -22.35 8.55 -11.7 Z"/>
</g>

<g id="Duplicate_Items_Folder_eye_copy_0_Layer0_0_FILL">
<path fill="#00FF00" stroke="none" d="
M 4.55 -5.05
Q 2.6 -6.4 0.15 -6.05 -2.3 -5.7 -3.85 -3.85 -5.35 -1.95 -5.05 0.3 -4.7 2.6 -2.75 3.95 -0.75 5.35 1.7 5 4.15 4.65 5.65 2.75 7.2 0.9 6.9 -1.35 6.55 -3.65 4.55 -5.05
M 0.3 -4.4
Q 1.65 -4.6 2.75 -3.85 3.85 -3.05 4.05 -1.8 4.2 -0.55 3.35 0.5 2.5 1.55 1.15 1.75 -0.2 1.9 -1.3 1.15 -2.4 0.4 -2.6 -0.9 -2.75 -2.1 -1.95 -3.2 -1.05 -4.2 0.3 -4.4 Z"/>

<path fill="#1B1916" stroke="none" d="
M 2.75 -3.85
Q 1.65 -4.6 0.3 -4.4 -1.05 -4.2 -1.95 -3.2 -2.75 -2.1 -2.6 -0.9 -2.4 0.4 -1.3 1.15 -0.2 1.9 1.15 1.75 2.5 1.55 3.35 0.5 4.2 -0.55 4.05 -1.8 3.85 -3.05 2.75 -3.85
M 0.5 -2.35
Q 0.55 -2 0.3 -1.7 0.05 -1.35 -0.35 -1.3 -0.75 -1.25 -1.05 -1.5 -1.35 -1.7 -1.4 -2.1 -1.45 -2.45 -1.25 -2.8 -1 -3.1 -0.6 -3.15 -0.2 -3.2 0.1 -3 0.45 -2.75 0.5 -2.35 Z"/>

<path fill="#FFFFFF" stroke="none" d="
M 0.3 -1.7
Q 0.55 -2 0.5 -2.35 0.45 -2.75 0.1 -3 -0.2 -3.2 -0.6 -3.15 -1 -3.1 -1.25 -2.8 -1.45 -2.45 -1.4 -2.1 -1.35 -1.7 -1.05 -1.5 -0.75 -1.25 -0.35 -1.3 0.05 -1.35 0.3 -1.7 Z"/>
</g>

<g id="Duplicate_Items_Folder_nose_0_Layer0_0_FILL">
<path fill="#000000" stroke="none" d="
M 4.8 -6.15
Q 3.25 -10.35 4 -15.85 4.7 -20.45 3.05 -16.6 2.95 -16.4 2.9 -16.25 2.7 -15.95 2.55 -15.55 3.2 -4.45 4.65 -2.15 6.1 0.1 7.3 1.95 8.5 3.75 10.35 4.9 11.45 5.5 12.15 6.35 12.75 7.15 12.4 8.45 12.05 9.7 10.75 10.6 9.541015625 11.5298828125 7.15 11.7 5.033984375 13.8435546875 3.2 14.65 1.0314453125 15.689453125 -0.55 14.55 -2.1439453125 13.453515625 -2.6 13.3 -0.6 17.85 2.1 16.9 5.25 15.8 5.1 15.2 8.2 12.9 9.65 12.85 11.05 12.8 12.35 11.45 13.55 10.1 14.3 8.6 15 7.15 13.2 5.85 12.35 5.1 11.1 3.95 10.3 2.95 8.85 1.05 6.25 -2.15 4.8 -6.15 Z"/>

<path fill="#D9B9F0" stroke="none" d="
M 2.9 -16.25
Q 2.6 -16.15 1.75 -17.05 0.55 -18.3 -0.9 -2.65 -0.4 9.3 -1.2 11.7 -1.8 13.3 -2.8 12.8 -2.7 13.05 -2.6 13.3 -2.1439453125 13.453515625 -0.55 14.55 1.0314453125 15.689453125 3.2 14.65 5.033984375 13.8435546875 7.15 11.7 9.541015625 11.5298828125 10.75 10.6 12.05 9.7 12.4 8.45 12.75 7.15 12.15 6.35 11.45 5.5 10.35 4.9 8.5 3.75 7.3 1.95 6.1 0.1 4.65 -2.15 3.2 -4.45 2.55 -15.55 2.7 -15.95 2.9 -16.25
M 6.7 4.8
Q 7.15 3.95 7.9 3.95 8.7 3.95 9.25 4.85 9.8 5.7 9.75 6.95 9.7 8.2 9.05 9.1 8.45 9.95 7.65 9.95 6.85 9.95 8.2 8.75 9.45 7.5 7.9 6.6 6.25 5.65 6.7 4.8 Z"/>

<path fill="#F9F3FF" stroke="none" d="
M 7.9 3.95
Q 7.15 3.95 6.7 4.8 6.25 5.65 7.9 6.6 9.45 7.5 8.2 8.75 6.85 9.95 7.65 9.95 8.45 9.95 9.05 9.1 9.7 8.2 9.75 6.95 9.8 5.7 9.25 4.85 8.7 3.95 7.9 3.95 Z"/>
</g>

<path id="Duplicate_Items_Folder_leg_suit_copy_4_0_Layer0_0_1_STROKES" stroke="#000000" stroke-width="1" stroke-linejoin="round" stroke-linecap="round" fill="none" d="
M 21.35 17
Q 23.6 16.5 25.9 15 25.8 14.65 25.8 14.5 25.15 12.05 24.7 11 24.1 9.8 24.45 5.7 24.45 3.95 24.55 2.55 24.65 -1.9 24.45 -4.15
L 24.4 -4.3
Q 23.6 -13.25 22.95 -22.2 19.8 -26 16.55 -28.05
L 21.35 17
Q 19.95 17.25 18.7 17.25 18.15 17.15 17.8 17.15 16.8 17 15.8 16.85
L -0.1 -25.15
Q 2.1 -29.05 5.45 -30.3 6.3 -30.85 7.5 -30.9 7.95 -31.05 8.6 -31 12.35 -31.2 16.55 -28.05
M 5.45 -30.3
L 18.7 17.25"/>

<path id="Duplicate_Items_Folder_arm_suit_copy_4_0_Layer0_0_1_STROKES" stroke="#000000" stroke-width="2" stroke-linejoin="round" stroke-linecap="round" fill="none" d="
M 40.05 -42.4
L 40.75 -43.45
Q 41.8 -50.2 39.9 -53.6 29.45 -53.75 25.6 -52.8 24.6 -52.55 24.1 -52.25 21.95 -51.15 18.95 -43.2
M 40.05 -42.4
L 33.05 -32.45 25 -20.9 16.65 -9.05 15.95 -7.05 12.55 3 8.9 13.85 6.3 21.85
Q -0.75 22 -11.65 18.8 -8.25 15.9 -4.85 12 -1.45 7.7 1.8 2.15 4.25 -2.1 6.6 -7.15 7.05 -8.1 7.5 -9.05 9.8 -14.65 12.1 -21.4 13.9 -26.55 15.7 -32.4 16.5 -35.25 17.35 -38.2 18.15 -41 18.95 -43.2"/>

<path id="Duplicate_Items_Folder_body_suit_copy_6_0_Layer2_0_1_STROKES" stroke="#000000" stroke-width="1" stroke-linejoin="round" stroke-linecap="round" fill="none" d="
M 16.9 -43.05
Q 18.641796875 -41.9046875 21 -40.125 23.66484375 -38.1189453125 25.375 -36.3 28.490234375 -32.990625 28.45 -30.3 28.8498046875 -28.401953125 29.075 -26.125
L 29.075 -26.075
Q 29.3083984375 -23.715625 29.35 -20.95 29.455078125 -15.3857421875 29.575 -10.875 29.58828125 -10.33046875 29.6 -9.8 29.6009765625 -9.255078125 29.6 -8.725 29.6013671875 -2.937109375 28.65 0.875 28.441796875 1.7505859375 28.325 7.25 28.203125 12.755078125 29.15 18.075 29.3505859375 19.203125 29.5 20.15 30.0302734375 23.4375 29.975 24.55 30.232421875 25.9318359375 30 24.425
L 30 24.375 30.5 27.55
Q 30.5171875 27.655859375 30.525 27.75 30.80703125 29.4802734375 30.9 30.6 30.997265625 31.7560546875 30.9 32.25 30.84453125 32.5498046875 30.725 32.625 29.682421875 33.2970703125 27.15 36.25 26.5982421875 36.896875 25.975 37.65 24.048828125 39.9779296875 20.425 41.725 17.5068359375 43.140234375 13.475 44.175 10.953515625 44.8216796875 8.825 45.25 7.138671875 45.5947265625 5.7 45.8 2.7603515625 46.2400390625 -0.875 46.1
L -1.05 46.15
Q -1.583984375 46.003515625 -6.85 44.95 -7.3962890625 44.841015625 -7.9 44.75 -12.1552734375 43.8931640625 -12.425 43.85 -12.7771484375 43.790234375 -13.125 43.725 -18.0513671875 42.81640625 -21.925 41.05 -24.31171875 39.93671875 -26.3 38.5 -31.7185546875 34.5826171875 -32.225 33.25 -32.7291015625 31.9294921875 -31.45 27.075
M -31.45 27.05
Q -31.090234375 25.71796875 -30.925 24.55 -30.840234375 24.033984375 -30.8 23.55 -30.7220703125 22.578125 -30.375 20.15 -30.15 18.603125 -30.3 14.4 -30.45703125 10.2064453125 -30.075 5.425 -29.690234375 0.6326171875 -30.425 -2.55 -31.162109375 -5.7255859375 -30.55 -14.95 -30.0236328125 -22.57109375 -28.25 -32.95 -21.8 -43.25 -18.25 -44.55 -16.1904296875 -45.28359375 -15 -45.6 -14.0921875 -45.85 -13.7 -45.85 -11.0611328125 -46.08984375 -8.7 -46.3
L -8.65 -46.3
Q -8.0978515625 -46.34609375 -6.8 -46.45 -5.497265625 -46.565625 -3.625 -46.7 -2.76875 -46.752734375 -1.95 -46.8 -1.7931640625 -46.810546875 -1.65 -46.825 -1.5998046875 -46.828125 -1.55 -46.825 -1.1423828125 -46.85078125 -0.75 -46.875 -0.2564453125 -46.89765625 0.675 -46.75 0.7423828125 -46.75 0.8 -46.75 0.9904296875 -46.7390625 1.175 -46.725 1.353515625 -46.713671875 1.525 -46.7 3.421484375 -46.5904296875 5.525 -46.425 5.9455078125 -46.3921875 9.525 -45.85 9.7107421875 -45.828515625 9.9 -45.8 12.73984375 -45.3697265625 14 -44.675 15.1455078125 -44.17578125 16.9 -43.05 22.940234375 -24.580078125 23.2 -3.9 23.935546875 29.484765625 20.425 41.725
M 9.5 -42.65
Q 9.4126953125 -42.671875 9.325 -42.7 9.4138671875 -42.6662109375 9.5 -42.625 19.562890625 1.025390625 8.825 45.25
M 1.175 -46.725
L 1.175 -46.675
Q 0.9171875 -46.712890625 0.675 -46.75 0.6173828125 -46.75 0.55 -46.75
L 1.175 -46.65 1.175 -46.675
Q 1.2892578125 -46.6458984375 1.4 -46.625
L 1.175 -46.65
Q 7.933203125 6.9341796875 -0.25 45.9 -1.476953125 45.9876953125 -1.05 46.1 -0.965234375 46.1033203125 -0.875 46.1
M 9.525 -45.85
L 9.5 -42.65
M -15 -45.6
Q -25.53203125 -27.8638671875 -25.65 -7.075
L -21.925 41.05
M -31.45 27.075
Q -31.396875 27.2654296875 -31.35 27.5
L -31.3 27.5
Q -31.35 27.3 -31.45 27.05
M -8.65 -46.3
Q -21.820703125 -29.2005859375 -19.05 7.95 -15.839453125 39.88984375 -13.125 43.725
M -3.625 -46.7
Q -14.7953125 -3.1125 -7.9 44.75"/>

<path id="Duplicate_Items_Folder_body_suit_copy_6_0_Layer1_0_1_STROKES" stroke="#000000" stroke-width="1" stroke-linejoin="round" stroke-linecap="round" fill="none" d="
M 12.75 -25.125
L 16.65 -26.425
Q 15.5658203125 -29.77734375 14.225 -33.35
L 10.75 -32.4
M 11.15 -41.025
Q 12.8267578125 -37.0669921875 14.225 -33.35
M 20 -13.475
L 14.5 -13.875
M 13 -1.725
L 21.025 -0.875
Q 21.2779296875 -6.50703125 20 -13.475 18.88828125 -19.4529296875 16.65 -26.425
M 2.15 21.825
L 2.025 8.55
M 7.375 5.45
L 14.275 15.9
Q 20.5314453125 10.0123046875 21.025 -0.875
M 14.275 15.9
Q 9.7373046875 20.183984375 2.15 21.825 -1.357421875 23.7306640625 -5.475 22.575 -9.5818359375 21.4244140625 -13.3 17.875 -16.561328125 15.20078125 -18.6 11.525 -21.4609375 6.33359375 -21.9 -0.85 -22.3017578125 -7.630859375 -20.55 -16.175 -19.7228515625 -20.2552734375 -18.4 -24.725 -16.8888671875 -29.82109375 -14.75 -35.425 -13.4603515625 -38.779296875 -11.95 -42.325 -11.2244140625 -44.012109375 -10.45 -45.75
L -10.35 -46.75
Q -8.735546875 -48.7671875 -6.925 -47.45
M -11.6 -34.35
L -14.75 -35.425
M -11.95 -42.325
L -9.15 -41.45
M -18.4 -24.725
L -14.125 -25.05
M -15.35 -18.025
L -20.55 -16.175
M -14.925 -4.5
L -21.9 -0.85
M -18.6 11.525
L -11.35 3.1
M -5.125 7.975
L -13.3 17.875"/>

<path id="Duplicate_Items_Folder_body_suit_copy_6_0_Layer1_0_2_STROKES" stroke="#000000" stroke-width="0.8" stroke-linejoin="round" stroke-linecap="round" fill="none" d="
M 5.75 -46.475
Q 7.3431640625 -42.2822265625 8.275 -39.725
L 11.15 -41.025
Q 10.2177734375 -43.2259765625 9.2 -46.45 6.850390625 -48.4443359375 5.75 -46.475 5.8009765625 -45.833203125 5.65 -46.7 0.503125 -49.1421875 -6.925 -47.45
L -7.65 -45.35
Q -8.437890625 -43.3638671875 -9.15 -41.45 -10.5169921875 -37.767578125 -11.6 -34.35 -13.15625 -29.435546875 -14.125 -25.05 -14.948046875 -21.3455078125 -15.35 -18.025 -16.3041015625 -10.1953125 -14.925 -4.5 -13.84921875 -0.050390625 -11.35 3.1 -8.907421875 6.149609375 -5.125 7.975 -4.219140625 8.3912109375 -3.25 8.75 0.31875 9.3328125 2.025 8.55 4.78203125 7.1935546875 7.375 5.45 11.1953125 2.85 13 -1.725 14.93203125 -6.64921875 14.5 -13.875 14.2052734375 -18.9318359375 12.75 -25.125 11.9359375 -28.58125 10.75 -32.4 9.668359375 -35.913671875 8.275 -39.725"/>

<path id="Duplicate_Items_Folder_head_copy_4_0_Layer4_0_1_STROKES" stroke="#000000" stroke-width="0.8" stroke-linejoin="round" stroke-linecap="round" fill="none" d="
M 7.925 -30.925
Q 7.2103515625 -32.272265625 5.85 -34.35 3.65 -37.8 2.4 -39.25 2.2681640625 -39.4228515625 2.125 -39.6 1.40234375 -40.49765625 0.4 -41.5 0.1 -41.75 -0.1 -42.05
L -1.45 -43.05 0.5 -44.65 -4.25 -43.6 -2.9 -46.35 -6 -44.1 -7.1 -45.85 -7.55 -43.4
Q -7.903515625 -43.4392578125 -8.2 -43.475
M 7.925 -30.925
Q 8.67421875 -29.531640625 8.75 -28.9 8.9 -27.7 10.8 -24.35
L 12.7 -21.2
Q 12.0451171875 -19.5439453125 10.65 -18.6
L 11.95 -16.1
Q 9.4484375 -15.321484375 9.275 -15.725 9.112109375 -16.125 7.9 -13.5
L 5.2 -13.45 -1.025 -13.4 -8.6 -13.35
Q -9.5583984375 -10.6970703125 -11.3 -10.55 -11.8537109375 -12.111328125 -11.95 -12.5 -12.0828125 -12.0482421875 -13.5 -10.05 -13.59140625 -13.15 -16.15 -16.25 -15.7396484375 -13.61796875 -17.65 -11.7 -17.480078125 -15.425 -19.3 -19.15
L -21.05 -17.4
Q -20.8599609375 -22.5853515625 -19.525 -24 -18.196875 -25.4048828125 -18 -29.6 -17.8 -34 -17.05 -36.1 -16.3990234375 -37.937890625 -14.125 -39.6 -13.4431640625 -40.108203125 -12.6 -40.6
L -10.325 -41.65
M -10.125 -41.75
L -9.15 -42.2
Q -9.8 -43.55 -10 -43.7 -9.834765625 -43.65859375 -8.275 -43.475
M 5.2 -13.45
L 9.55 -19.8"/>

<path id="Duplicate_Items_Folder_head_copy_4_0_Layer3_0_1_STROKES" stroke="#000000" stroke-width="0.8" stroke-linejoin="round" stroke-linecap="round" fill="none" d="
M -9.65 -36
L -9.75 -36.4
Q -9.85 -39.65 -7 -41.15 -3.7 -40.75 -1.4 -39.3 -0.6 -41.25 0.4 -41.5 4.1736328125 -40.5728515625 6.1 -37.7 8.0322265625 -34.8330078125 7.925 -33.45 7.805859375 -32.055859375 7.55 -30 7.3 -28.15 7.3 -28 8.2 -27.1 9.05 -26.25 10.75 -24.4 10.75 -22.5 10.8 -20.6 8.9 -17.9 7.05 -15.2 5.75 -13.95 0.15 -10.25 -0.75 -9.95 -1.75 -9.65 -2.75 -9.65 -3.8 -9.65 -4.5 -10.1 -5.2 -10.45 -5.55 -10.7
L -11.8 -17
Q -15.2830078125 -21.0869140625 -13.85 -26.55 -13.6994140625 -22.6447265625 -11.15 -20.4 -11.05 -24.85 -9.1 -29.6 -10.96484375 -32.45703125 -9.65 -35.95
L -9.7 -35.85 -9.65 -36 -9.65 -35.95"/>

<path id="Duplicate_Items_Folder_head_copy_4_0_Layer2_0_1_STROKES" stroke="#000000" stroke-width="0.8" stroke-linejoin="round" stroke-linecap="round" fill="none" d="
M 7.9 -24.1
L 8.7 -23.65
Q 8.8880859375 -23.4525390625 9 -23.2 9.231640625 -22.6716796875 9.15 -21.9 9.0283203125 -20.75 8.5 -20.65
L 8.45 -18.85 7.45 -18.55 7.4 -18.6
Q 6.35 -18.5 6.05 -18.75
L 6.05 -18.65
Q 6.15 -18.4 6.3 -17.7 6.35 -17.65 5.45 -17.45 4.95 -17.35 4.5 -17.3
L 4.45 -19.4
M 3.9 -18.25
L 2.85 -17.95
M 2.3 -18.65
L 2.3 -18.6
M 2.4 -18.55
L 2.45 -17.4 1.3 -17.4
Q 1.25 -17.3 1.2 -17.3
L 1.3 -16.5 0.75 -16.55
Q 0.1 -15.25 0.3 -13.9 1.5 -14.15 2.35 -13.4
M 6.05 -18.75
Q 6 -18.7 6.05 -18.6
L 6.05 -18.65
M 5.85 -20.35
L 6.05 -18.75
M 7.1 -20.35
Q 6.95 -20.4 6.8 -20.35 6.25 -20.35 5.85 -20.35 5.3 -20.4 5 -20.45
M 4.45 -19.4
L 4.35 -20.05
M 7.4 -18.6
L 7.1 -20.35
Q 8.1 -20.45 8.5 -20.65
M 2.3 -18.65
L 2.1 -20.05
Q 1.55 -19.95 1 -19.8
L 1.05 -18.25 1.3 -17.4
M 1 -19.8
L 0.95 -19.75
Q 0.4 -19.6 -0.65 -19.9
L -1.05 -17.95
Q -1.1 -17.9 -0.8 -16.55
L 0.75 -16.55
M 1.2 -17.3
L 1.05 -18.25
M 4.35 -20.05
L 4.3 -20.5
Q 3.5 -20.45 2.1 -20.05
M 5 -20.45
Q 4.95 -20.5 4.9 -20.5 4.75 -20.55 4.3 -20.5
M -0.1 -13.8
L 0.3 -13.85 0.3 -13.9
Q 0.1 -13.9 -0.1 -13.8
L -1.8 -13.6 -4.85 -13.2 -5.9 -12.75
M -0.65 -19.9
Q -1 -19.95 -1.4 -20.05 -1.6 -20.15 -1.85 -20.2
L -2.8 -18.3
Q -2.75 -18.3 -1.05 -17.95
M -1.85 -20.2
Q -3 -20.55 -3.6 -20.95
L -5.15 -18.45 -5.15 -18.15 -3.4 -17.2
Q -3.45 -17.35 -2.8 -18.3
M -5.2 -21.75
Q -6.05 -22.15 -7.25 -22.6
L -8.4 -20.75
Q -8.55 -20.7 -8.55 -20.55 -8.6 -19.75 -8.55 -18.9 -3.55 -17 -1.8 -13.6
M -5.2 -21.75
Q -6.15 -20.1 -6.35 -19.85
L -5.2 -18.75 -5.15 -18.45
M -8.55 -18.9
Q -8.55 -16.4 -7.8 -15.3 -7.2 -14.5 -6.15 -13.7
L -5.3 -13.15 -4.85 -13.2
M -3.6 -20.95
Q -4.1 -21.25 -5.2 -21.75
M -8.55 -20.55
Q -9.5587890625 -18.7810546875 -10.95 -18.35"/>

<path id="Duplicate_Items_Folder_eye_copy_0_Layer2_0_1_STROKES" stroke="#000000" stroke-width="1.3" stroke-linejoin="round" stroke-linecap="round" fill="none" d="
M -10.55 -0.65
Q -10 -6 -9.5 -8.95 -9.05 -11.6 -8.4 -13.4 -8.35 -13.55 -8.2 -13.7 -2.2 -22.3 3.65 -15.05 3.7 -15 3.75 -14.9 3.9 -14.75 4.05 -14.55 5.4 -12.85 6.9 -10.55
L 7.275 -9.975
Q 8.9748046875 -7.2908203125 10.15 -4.85 10.25 -4.65 10.4 -4.45 11.55 -3.35 11.55 -2.75
L 11.15 3.75
Q 9.55 8.45 6 10.6 4.2 11.7 1.95 12.15 -4.25 12.9 -8.2 9.45 -9.9 8 -11.15 5.8 -11.45 5.55 -11.35 4.2 -11.25 2.65 -10.65 -0.35 -10.6 -0.5 -10.55 -0.65 -9.3 -6.2 -0.75 -9.9 2.95 -10.55 5.85 -9.05 6.3681640625 -8.775 6.85 -8.425 8.6912109375 -7.13671875 10.15 -4.85"/>

<path id="Duplicate_Items_Folder_eye_copy_0_Layer0_0_1_STROKES" stroke="#000000" stroke-width="1.3" stroke-linejoin="round" stroke-linecap="round" fill="none" d="
M 4.55 -5.05
Q 6.55 -3.65 6.9 -1.35 7.2 0.9 5.65 2.75 4.15 4.65 1.7 5 -0.75 5.35 -2.75 3.95 -4.7 2.6 -5.05 0.3 -5.35 -1.95 -3.85 -3.85 -2.3 -5.7 0.15 -6.05 2.6 -6.4 4.55 -5.05 Z"/>
</defs>

<g transform="matrix( 5.55438232421875, 0, 0, 5.55438232421875, 78.45,532.25) ">
<g transform="matrix( 0.3726348876953125, 0.0263519287109375, -0.0263519287109375, 0.3726348876953125, 25.6,-12.7) ">
<g transform="matrix( 1.06097412109375, -0.040283203125, 0.0462646484375, 1.21844482421875, 11.85,15.75) ">
<g transform="matrix( 1, 0, 0, 1, 0,0) ">
<use xlink:href="#Duplicate_Items_Folder_right_shoe_copy_0_Layer0_0_FILL"/>
</g>
</g>

<g transform="matrix( 1, 0, 0, 1, 0,0) ">
<use xlink:href="#Duplicate_Items_Folder_leg_suit_copy_4_0_Layer0_0_FILL"/>

<use xlink:href="#Duplicate_Items_Folder_leg_suit_copy_4_0_Layer0_0_1_STROKES"/>
</g>
</g>

<g transform="matrix( 0.33544921875, -0.13421630859375, 0.13421630859375, 0.33544921875, 20.85,-31.75) ">
<g transform="matrix( 1, 0, 0, 1, 0,0) ">
<use xlink:href="#Duplicate_Items_Folder_arm_suit_copy_4_0_Layer1_0_FILL"/>
</g>

<g transform="matrix( 1, 0, 0, 1, 0,0) ">
<use xlink:href="#Duplicate_Items_Folder_arm_suit_copy_4_0_Layer0_0_FILL"/>

<use xlink:href="#Duplicate_Items_Folder_arm_suit_copy_4_0_Layer0_0_1_STROKES"/>
</g>
</g>

<g transform="matrix( -0.400115966796875, 0.0260772705078125, 0.0260772705078125, 0.400115966796875, 47.1,-13.05) ">
<g transform="matrix( 1.06097412109375, -0.040283203125, 0.0462646484375, 1.21844482421875, 11.85,15.75) ">
<g transform="matrix( 1, 0, 0, 1, 0,0) ">
<use xlink:href="#Duplicate_Items_Folder_right_shoe_copy_0_Layer0_0_FILL"/>
</g>
</g>

<g transform="matrix( 1, 0, 0, 1, 0,0) ">
<use xlink:href="#Duplicate_Items_Folder_leg_suit_copy_4_0_Layer0_0_FILL"/>

<use xlink:href="#Duplicate_Items_Folder_leg_suit_copy_4_0_Layer0_0_1_STROKES"/>
</g>
</g>

<g transform="matrix( 0.40118408203125, -0.0167236328125, 0.01177978515625, 0.40069580078125, 36.65,-37.9) ">
<g transform="matrix( 1, 0, 0, 1, 0,0) ">
<use xlink:href="#Duplicate_Items_Folder_body_suit_copy_6_0_Layer2_0_FILL"/>

<use xlink:href="#Duplicate_Items_Folder_body_suit_copy_6_0_Layer2_0_1_STROKES"/>
</g>

<g transform="matrix( 1, 0, 0, 1, 0,0) ">
<use xlink:href="#Duplicate_Items_Folder_body_suit_copy_6_0_Layer1_0_FILL"/>

<use xlink:href="#Duplicate_Items_Folder_body_suit_copy_6_0_Layer1_0_1_STROKES"/>

<use xlink:href="#Duplicate_Items_Folder_body_suit_copy_6_0_Layer1_0_2_STROKES"/>
</g>

<g transform="matrix( 1, 0, 0, 1, 0,0) ">
<use xlink:href="#Duplicate_Items_Folder_body_suit_copy_6_0_Layer0_0_FILL"/>
</g>
</g>

<g transform="matrix( 1.1572265625, 0, 0, 1.1572265625, 38.7,-38.9) ">
<g transform="matrix( 1, 0, 0, 1, 0,0) ">
<use xlink:href="#Duplicate_Items_Folder_head_copy_4_0_Layer4_0_FILL"/>

<use xlink:href="#Duplicate_Items_Folder_head_copy_4_0_Layer4_0_1_STROKES"/>
</g>

<g transform="matrix( 1, 0, 0, 1, 0,0) ">
<use xlink:href="#Duplicate_Items_Folder_head_copy_4_0_Layer3_0_FILL"/>

<use xlink:href="#Duplicate_Items_Folder_head_copy_4_0_Layer3_0_1_STROKES"/>
</g>

<g transform="matrix( 1, 0, 0, 1, 0,0) ">
<use xlink:href="#Duplicate_Items_Folder_head_copy_4_0_Layer2_0_FILL"/>

<use xlink:href="#Duplicate_Items_Folder_head_copy_4_0_Layer2_0_1_STROKES"/>
</g>

<g transform="matrix( 0.3204803466796875, -0.00567626953125, 0.00567626953125, 0.3204803466796875, -3.4,-28.6) ">
<g transform="matrix( 1, 0, 0, 1, 0,0) ">
<use xlink:href="#Duplicate_Items_Folder_eye_copy_0_Layer3_0_FILL"/>
</g>

<g transform="matrix( 1, 0, 0, 1, 0,0) ">
<use xlink:href="#Duplicate_Items_Folder_eye_copy_0_Layer2_0_FILL"/>

<use xlink:href="#Duplicate_Items_Folder_eye_copy_0_Layer2_0_1_STROKES"/>
</g>

<g transform="matrix( 1, 0, 0, 1, 0,0) ">
<use xlink:href="#Duplicate_Items_Folder_eye_copy_0_Layer1_0_FILL"/>
</g>

<g transform="matrix( 1, 0, 0, 1, 0,0) ">
<use xlink:href="#Duplicate_Items_Folder_eye_copy_0_Layer0_0_FILL"/>

<use xlink:href="#Duplicate_Items_Folder_eye_copy_0_Layer0_0_1_STROKES"/>
</g>
</g>

<g transform="matrix( -0.2190093994140625, 0.0953521728515625, 0.090087890625, 0.22113037109375, 5.75,-29.6) ">
<g transform="matrix( 1, 0, 0, 1, 0,0) ">
<use xlink:href="#Duplicate_Items_Folder_eye_copy_0_Layer3_0_FILL"/>
</g>

<g transform="matrix( 1, 0, 0, 1, 0,0) ">
<use xlink:href="#Duplicate_Items_Folder_eye_copy_0_Layer2_0_FILL"/>

<use xlink:href="#Duplicate_Items_Folder_eye_copy_0_Layer2_0_1_STROKES"/>
</g>

<g transform="matrix( 1, 0, 0, 1, 0,0) ">
<use xlink:href="#Duplicate_Items_Folder_eye_copy_0_Layer1_0_FILL"/>
</g>

<g transform="matrix( 1, 0, 0, 1, 0,0) ">
<use xlink:href="#Duplicate_Items_Folder_eye_copy_0_Layer0_0_FILL"/>

<use xlink:href="#Duplicate_Items_Folder_eye_copy_0_Layer0_0_1_STROKES"/>
</g>
</g>

<g transform="matrix( 0.285675048828125, -0.0363006591796875, 0.0308074951171875, 0.242401123046875, 1.65,-26) ">
<g transform="matrix( 1, 0, 0, 1, 0,0) ">
<use xlink:href="#Duplicate_Items_Folder_nose_0_Layer0_0_FILL"/>
</g>
</g>
</g>

<g transform="matrix( -0.34100341796875, -0.119537353515625, -0.119537353515625, 0.34100341796875, 52.55,-32.3) ">
<g transform="matrix( 1, 0, 0, 1, 0,0) ">
<use xlink:href="#Duplicate_Items_Folder_arm_suit_copy_4_0_Layer1_0_FILL"/>
</g>

<g transform="matrix( 1, 0, 0, 1, 0,0) ">
<use xlink:href="#Duplicate_Items_Folder_arm_suit_copy_4_0_Layer0_0_FILL"/>

<use xlink:href="#Duplicate_Items_Folder_arm_suit_copy_4_0_Layer0_0_1_STROKES"/>
</g>
</g>
</g>
</svg>
