
<svg xmlns="http://www.w3.org/2000/svg" version="1.1" xmlns:xlink="http://www.w3.org/1999/xlink" preserveAspectRatio="none" x="0px" y="0px" width="560px" height="544px" viewBox="0 0 560 544">
<defs>
<linearGradient id="Gradient_1" gradientUnits="userSpaceOnUse" x1="-27.1" y1="-39.4875" x2="-40.9" y2="-55.212500000000006" spreadMethod="pad">
<stop  offset="0%" stop-color="#233C3F"/>

<stop  offset="100%" stop-color="#2F5256"/>
</linearGradient>

<radialGradient id="Gradient_2" gradientUnits="userSpaceOnUse" cx="0" cy="0" r="24.605223657792667" fx="0" fy="0" gradientTransform="matrix( 0.980482857442323, -0.19660459369439326, 0.004064177647429318, 0.6771936005029101, -66,-53.15) " spreadMethod="pad">
<stop  offset="0%" stop-color="#CDE6F5"/>

<stop  offset="100%" stop-color="#BEDEF3"/>
</radialGradient>

<radialGradient id="Gradient_3" gradientUnits="userSpaceOnUse" cx="0" cy="0" r="24.605223657792667" fx="0" fy="0" gradientTransform="matrix( 0.980482857442323, -0.19660459369439326, 0.004064177647429318, 0.6771936005029101, -91.05,-48.35) " spreadMethod="pad">
<stop  offset="0%" stop-color="#CDE6F5"/>

<stop  offset="100%" stop-color="#BEDEF3"/>
</radialGradient>

<radialGradient id="Gradient_4" gradientUnits="userSpaceOnUse" cx="0" cy="0" r="24.86308759989394" fx="0" fy="0" gradientTransform="matrix( -0.9793634801859392, -0.2021068372868314, -0.004022026612673262, 0.6953078506658901, -11.95,-24.2) " spreadMethod="pad">
<stop  offset="0%" stop-color="#CDE6F5"/>

<stop  offset="100%" stop-color="#BEDEF3"/>
</radialGradient>

<radialGradient id="Gradient_5" gradientUnits="userSpaceOnUse" cx="0" cy="0" r="22.30992282035059" fx="0" fy="0" gradientTransform="matrix( -0.9989949395822143, 0.044823104411989424, 0.019049819375095506, 0.5440404298005217, -4.45,-22.7) " spreadMethod="pad">
<stop  offset="0%" stop-color="#CDE6F5"/>

<stop  offset="100%" stop-color="#BEDEF3"/>
</radialGradient>

<radialGradient id="Gradient_6" gradientUnits="userSpaceOnUse" cx="0" cy="0" r="24.863087599893944" fx="0" fy="0" gradientTransform="matrix( -0.979363480185939, -0.20210683728683135, -0.004022026612673261, 0.69530785066589, 13.35,-19.2) " spreadMethod="pad">
<stop  offset="0%" stop-color="#CDE6F5"/>

<stop  offset="100%" stop-color="#BEDEF3"/>
</radialGradient>

<radialGradient id="Gradient_7" gradientUnits="userSpaceOnUse" cx="0" cy="0" r="22.095973190832762" fx="0" fy="0" gradientTransform="matrix( 0.9990508138903128, 0.043559973199068, -0.019234273880107948, 0.5295082456406188, -5.6,-76.95) " spreadMethod="pad">
<stop  offset="0%" stop-color="#CDE6F5"/>

<stop  offset="100%" stop-color="#BEDEF3"/>
</radialGradient>

<radialGradient id="Gradient_8" gradientUnits="userSpaceOnUse" cx="0" cy="0" r="22.09597319083276" fx="0" fy="0" gradientTransform="matrix( 0.999050813890313, 0.04355997319906801, -0.01923427388010795, 0.5295082456406189, 17.3,-75.9) " spreadMethod="pad">
<stop  offset="0%" stop-color="#CDE6F5"/>

<stop  offset="100%" stop-color="#BEDEF3"/>
</radialGradient>

<g id="walrus_0_Layer2_0_MEMBER_0_MEMBER_0_FILL">
<path fill="#C0EBF5" stroke="none" d="
M 73.75 1159.5
Q 77.25 1169.85 80.75 1177.45
L 106.35 1201.25
Q 133.55 1227.2 141.35 1238
L 156.2 1246.3
Q 174.65 1256.45 192.95 1266.05 251.4 1296.6 285.7 1309.2 339.8 1329.15 370.25 1337.95 416.15 1351.2 436.75 1348.65
L 450 1341.85
Q 466.3 1333.75 482 1326.9 532 1305 556.05 1304.4
L 562.6 1304.6
Q 571.5 1304.7 583.2 1303.95 620.75 1301.55 672.45 1291.9 724.15 1282.3 763.15 1261.6 775.3 1255.15 784.75 1248.35
L 791.75 1242.85
Q 795.25 1237.9 798.75 1229.15 805.75 1211.7 805.75 1192.95
L 798.45 1198.65
Q 788.65 1205.75 776 1212.45 735.5 1233.95 681.75 1243.95 628 1253.95 589 1256.45 576.8 1257.25 567.55 1257.15
L 560.75 1256.95
Q 535.75 1257.6 483.75 1280.35 467.5 1287.45 450.5 1295.9
L 436.75 1302.95
Q 415.4 1305.6 367.65 1291.85 336.2 1282.75 279.75 1261.95 244.15 1248.85 183.4 1217.1 164.4 1207.15 145.15 1196.55
L 129.75 1187.95
Q 121.65 1176.75 93.4 1149.75
L 66.75 1125
Q 66.75 1138.75 73.75 1159.5 Z"/>
</g>

<g id="walrus_0_Layer2_0_MEMBER_0_MEMBER_1_FILL">
<path fill="#EAF8FC" stroke="none" d="
M 555.2 1273.25
L 560.75 1256.95
Q 535.75 1257.6 483.75 1280.35 467.5 1287.45 450.5 1295.9
L 436.75 1302.95 436.75 1348.65 448.7 1342.5
Q 463.55 1335.1 478.05 1328.6 524.45 1307.95 549.65 1304.9 549.65 1292.1 555.2 1273.25 Z"/>
</g>

<g id="walrus_0_Layer2_0_MEMBER_0_MEMBER_2_FILL">
<path fill="#D5F2F8" stroke="none" d="
M 73.75 1159.5
Q 77.25 1169.85 80.75 1177.45
L 106.35 1201.25
Q 133.55 1227.2 141.35 1238 140.45 1230.75 138.55 1220.85 134.75 1201.1 129.75 1187.95 121.65 1176.75 93.4 1149.75
L 66.75 1125
Q 66.75 1138.75 73.75 1159.5 Z"/>
</g>

<g id="walrus_0_Layer2_0_MEMBER_0_MEMBER_3_FILL">
<path fill="#9FE0EF" stroke="none" d="
M 166.8 1227.1
Q 198.65 1234.85 216.75 1242.95 237.5 1252.25 291.25 1274.2 342.65 1295.2 365.75 1303.95 383.9 1310.85 412.15 1318.85 426.25 1322.85 436.75 1325.45
L 436.75 1302.95
Q 415.4 1305.6 367.65 1291.85 336.2 1282.75 279.75 1261.95 244.15 1248.85 183.4 1217.1 164.4 1207.15 145.15 1196.55
L 129.75 1187.95
Q 134.8 1201.1 138.6 1221
L 166.8 1227.1 Z"/>
</g>

<g id="walrus_0_Layer2_0_MEMBER_0_MEMBER_4_FILL">
<path fill="#9FE0EF" stroke="none" d="
M 589 1256.45
Q 576.8 1257.25 567.55 1257.15
L 560.75 1256.95 558.85 1262.1
Q 556.55 1268.5 554.7 1274.95
L 561.75 1272.6
Q 570.55 1269.8 579.5 1267.45 608 1259.95 626.75 1259.95 649.1 1259.95 695.5 1249.45 741.65 1239 759.75 1229.95 771.75 1223.95 788.8 1215.05 800.4 1209.7 803.65 1212.95 805.75 1202.85 805.75 1192.95
L 798.45 1198.65
Q 788.65 1205.75 776 1212.45 735.5 1233.95 681.75 1243.95 628 1253.95 589 1256.45 Z"/>
</g>

<g id="walrus_0_Layer2_0_MEMBER_0_MEMBER_5_FILL">
<path fill="#C7ECF6" stroke="none" d="
M 558.85 1262.1
L 560.75 1256.95
Q 535.75 1257.6 483.75 1280.35 467.5 1287.45 450.5 1295.9
L 436.75 1302.95 436.75 1325.45
Q 444.75 1316.85 456.4 1306.95 479.65 1287.2 497.75 1280.95 515.9 1274.7 537.1 1274.2 547.7 1273.95 554.7 1274.95 556.55 1268.5 558.85 1262.1 Z"/>
</g>

<g id="walrus_0_Layer2_0_MEMBER_0_MEMBER_6_FILL">
<path fill="#B3E7F2" stroke="none" d="
M 66.75 1125
Q 66.75 1134.15 69.95 1146.7
L 81.35 1152.85
Q 94.75 1161 104.75 1171 114.75 1180.95 127.7 1202 134.15 1212.5 138.6 1221 134.8 1201.1 129.75 1187.95 121.65 1176.75 93.4 1149.75
L 66.75 1125 Z"/>
</g>

<g id="walrus_0_Layer2_0_MEMBER_1_FILL">
<path fill="#FFFFFF" stroke="none" d="
M 590.75 1029
Q 518.25 1020.25 398.25 1025.25 360.75 1026.8 323 1029.55
L 292.75 1032
Q 255.5 1042.25 208.65 1059 114.9 1092.5 66.75 1125
L 93.4 1149.75
Q 121.65 1176.75 129.75 1187.95
L 145.15 1196.55
Q 164.4 1207.15 183.4 1217.1 244.15 1248.85 279.75 1261.95 336.2 1282.75 367.65 1291.85 415.4 1305.6 436.75 1302.95
L 450.5 1295.9
Q 467.5 1287.45 483.75 1280.35 535.75 1257.6 560.75 1256.95
L 567.55 1257.15
Q 576.8 1257.25 589 1256.45 628 1253.95 681.75 1243.95 735.5 1233.95 776 1212.45 788.65 1205.75 798.45 1198.65
L 805.75 1192.95
Q 798 1170.7 787.65 1144.35 766.9 1091.65 753.75 1071 742 1064 715.75 1055.25 663.25 1037.75 590.75 1029 Z"/>
</g>

<g id="walrus_0_Layer2_0_MEMBER_2_FILL">
<path fill="#C0EBF5" stroke="none" d="
M 504.9 1154.4
L 488.75 1139 246.75 1122
Q 219 1125 191.25 1130.75 135.75 1142.25 135.75 1156 135.75 1161.6 143.3 1169.3 151.15 1177.3 164.75 1185.05 197.5 1203.75 241.75 1209.95 268.7 1213.75 313.45 1222.7 335.8 1227.2 352.75 1230.95
L 351.95 1234.75
Q 351.3 1239.35 352 1243.7 354.15 1257.5 368.75 1262.95 388.05 1270.1 411.5 1268.45 432.95 1266.95 449.75 1258.95 455 1256.45 475.75 1246.85 496.95 1236.85 511.75 1228.95 526.8 1225.95 576 1216.2 622.85 1206.1 650.75 1195.95 686.4 1183 711.9 1167.1 738.85 1150.35 741.75 1138 743.25 1131.55 739.55 1123.9 735.8 1116.1 728 1109.9 719.55 1103.1 708.55 1100.15 696.25 1096.85 682.75 1099
L 654.25 1124 627.75 1129 504.9 1154.4 Z"/>
</g>

<g id="walrus_0_Layer2_0_MEMBER_3_FILL">
<path fill="#6A8BB1" stroke="none" d="
M 201.4 1178.35
Q 190.15 1180.6 190.75 1184.95 191.15 1187.65 208.2 1193.15 226.85 1199.2 254.2 1204.7 327.3 1219.5 402.75 1219.3 395.8 1222.45 382.85 1225.75
L 371.25 1228.45 433.25 1223.45
Q 433.5 1222.8 433.1 1220.05 432.75 1217.4 432.05 1214.65 447.75 1207 447.75 1204.95
L 212.75 1177
Q 207 1177.25 201.4 1178.35
M 507.25 1183.45
Q 500.5 1184.95 493.4 1186.7 479.15 1190.2 477.25 1191.45
L 456.25 1252.95
Q 462.8 1249.85 471.9 1244 490.1 1232.35 503 1218.8 528.85 1216.35 556.8 1210.8 606.85 1200.9 636.25 1185.45
L 641.7 1183.5
Q 648.55 1181.4 655.75 1180.45 658.65 1180.1 664.65 1179.85 670.6 1179.3 676.95 1177 695.25 1170.3 729.25 1145
L 675.75 1135.5
Q 668 1134.9 658 1134.9 638 1134.9 626.75 1138 614.9 1141.3 589.05 1150.95 566.85 1159.25 560.75 1162 556.4 1163.95 547.15 1168.05 537.55 1172.3 535.75 1173 535.6 1173.05 512.5 1183.6 510.8 1183.3 508.85 1183.35
L 507.25 1183.45 Z"/>
</g>

<g id="walrus_0_Layer2_0_MEMBER_4_MEMBER_0_FILL">
<path fill="#F8FDFF" stroke="none" d="
M 543.75 1298.4
L 542.8 1287.65
Q 534 1286.2 522.55 1285.95 499.6 1285.45 486.2 1291.55 472.8 1297.65 458.65 1314.25 451.6 1322.55 447.2 1329.6 466.7 1320.45 507.2 1308.5 527.4 1302.55 543.75 1298.4 Z"/>
</g>

<g id="walrus_0_Layer2_0_MEMBER_4_MEMBER_1_FILL">
<path fill="#D0F3FC" stroke="none" d="
M 582.5 1273.65
Q 574.7 1275.55 567.75 1277.9
L 562.3 1279.85 559.35 1293.5
Q 658.05 1293.5 732.15 1267.2 755.3 1258.95 773.2 1249.1
L 786.5 1240.85 791.4 1223.3
Q 787.85 1223.6 783.2 1226.8 781.4 1228 773.45 1234.4 757.55 1247.2 741.65 1253.55 720.95 1261.8 689 1265.6 660.7 1268.95 630.5 1268.15 607.35 1267.55 582.5 1273.65 Z"/>
</g>

<g id="walrus_0_Layer2_0_MEMBER_4_MEMBER_2_FILL">
<path fill="#D0F3FC" stroke="none" d="
M 217.1 1253.55
Q 184.8 1240.75 166 1238.05 160.15 1237.25 156.35 1237.5
L 153.7 1237.95 189.3 1257.8
Q 231.75 1280.45 265.85 1294.5 300 1308.5 367.75 1326.3 401.65 1335.2 428.7 1341.3
L 427.7 1331.55
Q 415.5 1326.9 399.65 1321.55 368 1310.8 349.7 1307.15 332.6 1303.75 291.8 1285.85 229.05 1258.3 217.1 1253.55 Z"/>
</g>

<g id="walrus_0_Layer2_0_MEMBER_4_MEMBER_3_FILL">
<path fill="#E6FAFF" stroke="none" d="
M 96.75 1172.75
Q 90.65 1168.2 84.6 1165.65
L 79.75 1164 84.75 1176
Q 87.9 1177.9 108.65 1197.1 119 1206.7 128.75 1215.95 116.25 1187.25 96.75 1172.75 Z"/>
</g>

<g id="walrus_0_Layer2_1_MEMBER_0_MEMBER_0_MEMBER_0_MEMBER_0_FILL">
<path fill="#8C6565" stroke="none" d="
M 637.95 1113.5
Q 634.75 1124.4 632.75 1136
L 641.25 1163.5 653.4 1169.9
Q 666.9 1175.9 673.75 1174 684.45 1171.05 710.75 1156.25 734.35 1142.9 740.25 1138 744 1134.9 736.5 1134.9
L 728.25 1135.5
Q 730.5 1133 732.55 1130.2 736.7 1124.55 735.75 1123 734.8 1121.45 728.7 1122.05
L 722.75 1123
Q 724 1121.15 725.05 1119 727.2 1114.75 726.25 1113.5 725.3 1112.25 720.2 1113.75
L 715.25 1115.5
Q 716.25 1113.5 716.9 1111.3 718.15 1106.95 716.25 1106 714.4 1105.05 709.4 1108.2 706.9 1109.75 704.75 1111.5 705.4 1109.4 705.7 1107.15 706.3 1102.65 704.75 1102 703.2 1101.4 699.05 1105.4 697 1107.4 695.25 1109.5 695.4 1106.9 695.2 1104.2 694.8 1098.8 693.25 1098.5 691.7 1098.2 688.05 1102.05 686.25 1104 684.75 1106 684.65 1103.75 684.2 1101.5 683.3 1097 681.75 1097 680.2 1097 676.3 1109.5 674.4 1115.75 672.75 1122 669.5 1116.9 665.05 1111 656.2 1099.25 650.25 1095.5 644.3 1091.75 637.95 1113.5 Z"/>
</g>

<g id="walrus_0_Layer2_1_MEMBER_0_MEMBER_0_MEMBER_0_MEMBER_1_FILL">
<path fill="#8C6565" stroke="none" d="
M 638.55 1111.4
Q 635 1122.8 632.75 1136
L 641.25 1163.5 653.4 1169.9
Q 666.9 1175.9 673.75 1174 682.35 1171.65 701.9 1161.15 718 1152.45 731.9 1143.65 716.2 1150.8 702.85 1156.45 675.95 1167.9 670.25 1168.5 664.3 1169.15 656.7 1164.65
L 650.25 1160
Q 654.95 1143.75 655.05 1121 655.1 1113.85 654.7 1107
L 654.25 1101.5 638.55 1111.4 Z"/>
</g>

<g id="walrus_0_Layer2_1_MEMBER_0_MEMBER_0_MEMBER_0_MEMBER_2_FILL">
<path fill="#8C6565" stroke="none" d="
M 719.75 1137.5
L 686.75 1157
Q 699.9 1152 711.15 1144.25
L 719.75 1137.5
M 683.75 1110
L 679.25 1127
Q 680.4 1124.75 681.5 1121.5 683.75 1115 683.75 1110
M 692.65 1121.95
L 695.25 1113 683.25 1136.5
Q 688.9 1131.8 692.65 1121.95
M 699.3 1128.3
L 704.75 1117.5
Q 700.25 1125.5 685.25 1144 692.45 1139.95 699.3 1128.3
M 711.65 1128.55
L 713.25 1126
Q 707.95 1131.95 696.55 1141.55 690.9 1146.4 686.25 1150 697.8 1144.7 706.7 1134.8 709.45 1131.7 711.65 1128.55 Z"/>
</g>

<g id="walrus_0_Layer2_1_MEMBER_0_MEMBER_0_MEMBER_1_MEMBER_0_FILL">
<path fill="#8C6565" stroke="none" d="
M 156.45 982.65
L 143.75 977.35
Q 139 980.5 137.75 987.95 136.3 996.45 137.75 1018 139.25 1040.55 145.85 1063.75 152.45 1087 160.45 1098 171.1 1112.65 181.75 1124.65
L 189.25 1122.4
Q 196.25 1119.6 193.75 1116.65 191.25 1113.75 188.25 1100.25
L 185.75 1087.35
Q 184.95 1077.75 181.25 1050.25
L 177.75 1024.65
Q 176.75 1018.85 175.65 1012.75 173.5 1000.6 173.1 999.35 172.45 997.35 156.45 982.65 Z"/>
</g>

<g id="walrus_0_Layer2_1_MEMBER_0_MEMBER_0_MEMBER_1_MEMBER_1_FILL">
<path fill="#8C6565" stroke="none" d="
M 243.75 984
L 229.1 976
Q 223.5 980.3 220.45 990.8 220 992.25 215.75 1012.65 214.6 1018.15 206.1 1049.05 198.8 1075.55 198.45 1082 197.75 1093.35 197.75 1111.35
L 209.75 1120.65
Q 210.25 1120 210.9 1118.35 212.25 1115 213.1 1110 214 1104.55 222.2 1087.75 229.15 1073.4 235.75 1062 240.35 1054.1 247.85 1036.95
L 254.45 1021.35 243.75 984 Z"/>
</g>

<g id="walrus_0_Layer2_1_MEMBER_0_MEMBER_0_MEMBER_1_MEMBER_2_FILL">
<path fill="#8C6565" stroke="none" d="
M 179.25 977.9
Q 171.25 979.1 163.75 978.65 160.75 978.5 150.95 976.6 146.2 975.65 143.1 978
L 146.45 981.5
Q 150.1 986.85 151.75 996 154.65 1011.85 161.2 1020.1 171.35 1032.85 191.1 1030.65 194.6 1029.5 198 1026.25 204.85 1019.75 204.45 1009.35 205.1 1003.35 205.05 995.95 204.85 981.1 201.1 974 199.45 973.85 196.7 974.1 191.2 974.6 185.75 976.65 183.25 977.35 179.25 977.9 Z"/>
</g>

<g id="walrus_0_Layer2_1_MEMBER_0_MEMBER_0_MEMBER_1_MEMBER_3_FILL">
<path fill="#8C6565" stroke="none" d="
M 234.55 975.7
Q 232.3 975.45 230.45 975.7
L 229.1 976
Q 234.4 980.15 241.75 1008 245.75 1022.95 257.15 1027.3 262.85 1029.5 267.75 1028.65 286.5 1029.5 290.35 1005.5 291.55 998 291.1 988.95
L 290.45 981.35
Q 276.25 979.25 261.95 980.1
L 250.45 981.35
Q 241.7 976.35 234.55 975.7 Z"/>
</g>

<g id="walrus_0_Layer2_1_MEMBER_0_MEMBER_0_MEMBER_1_MEMBER_4_FILL">
<path fill="#8C6565" stroke="none" d="
M 151.85 996.5
Q 154.8 1012.15 161.4 1020.35 171.5 1032.85 191.1 1030.65 194.6 1029.5 198 1026.25 204.85 1019.75 204.45 1009.35 204.75 1006.8 204.9 1002.95 205.25 995.3 204.7 988.9 204.7 994.05 202.15 1005.95 199.75 1016.9 198.5 1019.6
L 188.25 995 197.2 1022.2 196.75 1023
Q 188.25 1026.5 185.25 1026.5 184.2 1026.5 182.25 1026.2
L 174.75 988.5 178.5 1025.5
Q 170.85 1023.8 166.55 1021
L 162.25 992 163.4 1018
Q 158.95 1012.3 151.85 996.5 Z"/>
</g>

<g id="walrus_0_Layer2_1_MEMBER_0_MEMBER_0_MEMBER_1_MEMBER_5_FILL">
<path fill="#8C6565" stroke="none" d="
M 287.35 1005.35
Q 285.6 1009.8 284.05 1013.05
L 275.75 995.5 282.2 1016.5
Q 281.4 1017.8 280.75 1018.5 277 1022.85 266.2 1023.1
L 262.25 994.5 262.7 1023.1 260.75 1023
Q 256.75 1022.8 254.1 1021.1 252.1 1019.85 250.45 1017.35
L 251.25 992 248.8 1014.7
Q 247.8 1013.1 247.25 1012.5 245.65 1010.6 242 1002.95 239.4 997.65 237.3 992.65 239.5 999.5 241.75 1008 245.75 1022.95 257.15 1027.3 262.85 1029.5 267.75 1028.65 282.5 1029.3 288.1 1014.3 291.85 1004.35 291.1 989
L 288.75 1001.5 287.35 1005.35 Z"/>
</g>

<g id="walrus_0_Layer2_1_MEMBER_0_MEMBER_0_MEMBER_2_FILL">
<path fill="#8C6565" stroke="none" d="
M 224.45 1130.35
Q 224.45 1120.85 217.7 1114.1 211 1107.35 201.45 1107.35 191.95 1107.35 185.2 1114.1 178.45 1120.85 178.45 1130.35 178.45 1139.9 185.2 1146.6 191.95 1153.35 201.45 1153.35 211 1153.35 217.7 1146.6 224.45 1139.9 224.45 1130.35 Z"/>
</g>

<g id="walrus_0_Layer2_1_MEMBER_0_MEMBER_0_MEMBER_3_FILL">
<path fill="#8C6565" stroke="none" d="
M 178.7 1126.95
Q 178.45 1128.8 178.45 1130.35 178.45 1139.25 184.45 1145.8 190.35 1152.35 199.1 1153.2 202.35 1150.9 204.2 1147.4 206.1 1143.8 206.1 1139.65 206.1 1132.75 201.25 1127.9 196.35 1123 189.45 1123 183.4 1123 178.7 1126.95 Z"/>
</g>

<g id="walrus_0_Layer2_1_MEMBER_0_MEMBER_0_MEMBER_4_MEMBER_0_FILL">
<path fill="#8C6565" stroke="none" d="
M 603.8 971.45
Q 599.85 962.35 595.75 949
L 497.75 937
Q 445.8 935.6 392 964.9 345.2 990.4 308.75 1031.9 288.1 1055.45 269.75 1084
L 263.95 1092.25
Q 256.6 1102.1 248.9 1110.15 224.15 1135.9 204.75 1134
L 189.75 1148 192.65 1153.4
Q 196.35 1159.95 200.25 1165.75 212.75 1184.2 222.75 1187.95 261.45 1202.45 308.4 1208.7 346.6 1213.8 396.6 1214.05 472.5 1214.4 513.8 1210.4 579.7 1203.95 627.7 1183.95 643.9 1177.25 651.3 1134.05 654.2 1117.15 654.8 1099.2 655.4 1082.4 653.8 1072.2 650.5 1050.75 639.8 1029.8 631.35 1013.25 615.55 992.1 609 983.35 603.8 971.45 Z"/>
</g>

<g id="walrus_0_Layer2_1_MEMBER_0_MEMBER_0_MEMBER_4_MEMBER_1_FILL">
<path fill="#8C6565" stroke="none" d="
M 531.8 952
L 527.5 955.85
Q 522.4 960.75 518.4 966.15 505.55 983.5 508.45 999.35 512.95 1023.8 517.7 1043.6 524 1069.75 528.45 1077.35 532.6 1084.4 532.9 1091.45 533.1 1094.95 532.4 1097.05 527.65 1119.1 508.4 1137.9 480.5 1165.15 425.9 1181 384.95 1192.9 340.15 1199.25 310.2 1203.45 283.3 1204.65 309.55 1209.6 339.65 1211.9 365.4 1213.9 396.6 1214.05 472.5 1214.4 513.8 1210.4 579.7 1203.95 627.7 1183.95 643.9 1177.25 651.3 1134.05 654.2 1117.15 654.8 1099.2 655.4 1082.4 653.8 1072.2 650.5 1050.75 639.8 1029.8 631.35 1013.25 615.55 992.1 609 983.35 603.8 971.45 599.85 962.35 595.75 949
L 561.35 944.8 531.8 952 Z"/>
</g>

<g id="walrus_0_Layer2_1_MEMBER_0_MEMBER_0_MEMBER_4_MEMBER_2_FILL">
<path fill="#8C6565" stroke="none" d="
M 492.75 939
L 491.55 936.95
Q 441.05 937.45 389.3 966.4 344 991.75 308.75 1031.9 288.1 1055.45 269.75 1084
L 263.95 1092.25
Q 256.6 1102.1 248.9 1110.15 224.15 1135.9 204.75 1134
L 202.8 1135.85 202.75 1136 210.7 1140.6
Q 220.85 1145.6 231.9 1147.9 267.15 1155.15 297.75 1132 313 1120.5 335.55 1092.3 362.65 1056.9 378 1037.75 405.4 1003.7 429.1 982.1 460.25 953.7 492.75 939 Z"/>
</g>

<g id="walrus_0_Layer2_1_MEMBER_0_MEMBER_0_MEMBER_4_MEMBER_3_FILL">
<path fill="#8C6565" stroke="none" d="
M 309.15 1053.8
Q 306.1 1057.1 305.35 1060.75 304.65 1064.4 306.65 1066.25 308.45 1067.9 311 1065.95 312.1 1065.1 316.4 1060.45 320.7 1055.75 321.45 1054.6 323.2 1051.9 321.4 1050.25 319.4 1048.4 315.8 1049.4 312.25 1050.45 309.15 1053.8
M 279.9 1085.1
Q 279.4 1087.7 280.7 1088.7 281.85 1089.6 283.6 1087.9 284.3 1087.2 287.2 1083.4 290.1 1079.5 290.55 1078.7 291.75 1076.6 290.55 1075.7 289.25 1074.7 286.85 1075.9 284.5 1077.1 282.45 1079.8 280.4 1082.5 279.9 1085.1
M 351.45 1026
Q 347.8 1027.15 344.25 1030.55 340.75 1033.95 339.4 1037.55 338.1 1041.2 339.75 1042.9 341.2 1044.45 344.05 1042.4 345.25 1041.55 350.2 1036.75 355.15 1032 356.1 1030.85 358.25 1028.05 356.75 1026.55 355.1 1024.85 351.45 1026
M 333.8 1027
Q 332.55 1025.35 329.95 1025.5 327.4 1025.6 324.9 1027.4 322.45 1029.2 321.55 1031.65 320.65 1034.1 321.85 1035.75 322.95 1037.2 324.95 1036.25 325.7 1035.9 329.25 1033.3 332.7 1030.8 333.35 1030.1 334.85 1028.45 333.8 1027
M 373.7 994.7
Q 371.95 992.2 366.65 993.25 361.35 994.35 355.65 998.4 349.95 1002.45 347.15 1007.1 344.4 1011.7 346.15 1014.2 347.7 1016.4 352.1 1014.1 354.05 1013.05 362 1007.4 370 1001.7 371.6 1000.25 375.25 996.9 373.7 994.7
M 394.4 1000.85
Q 395.35 1000.35 399.1 997.7 402.9 995.05 403.65 994.35 405.4 992.75 404.55 991.6 403.6 990.25 401.05 990.65 398.5 991.05 395.8 992.95 393.1 994.8 391.8 997.1 390.55 999.4 391.5 1000.7 392.3 1001.9 394.4 1000.85
M 423.95 960.9
Q 419.95 960.85 415.15 962.9 410.35 964.9 407.6 967.85 404.85 970.75 405.7 972.85 406.5 974.7 410.1 973.7 411.55 973.3 418.35 970.4 425.15 967.5 426.45 966.75 429.65 964.9 428.85 963.05 427.95 960.95 423.95 960.9
M 443.7 953.65
Q 442.2 954.6 442.3 955.7 442.45 956.7 444.1 956.7 444.7 956.75 447.95 956.35 451.25 955.9 451.8 955.75 453.35 955.35 453.25 954.35 453.1 953.25 451.4 952.7 449.7 952.1 447.45 952.35 445.2 952.65 443.7 953.65
M 394.15 982.55
Q 395.85 981.15 395 979.55 394 977.8 391.4 977.55 388.8 977.3 386.15 978.8 383.45 980.25 382.25 982.55 381.05 984.85 382.05 986.65 382.9 988.25 385 987.6 386 987.25 389.65 985.2 393.4 983.15 394.15 982.55 Z"/>
</g>

<g id="walrus_0_Layer2_1_MEMBER_0_MEMBER_0_MEMBER_4_MEMBER_4_MEMBER_0_FILL">
<path fill="#8C6565" stroke="none" d="
M 372.7 993.7
Q 370.95 991.2 365.65 992.25 360.35 993.35 354.65 997.4 348.95 1001.45 346.15 1006.1 343.4 1010.7 345.15 1013.2 346.7 1015.4 351.1 1013.1 353.05 1012.05 361 1006.4 369 1000.7 370.6 999.25 374.25 995.9 372.7 993.7 Z"/>
</g>

<g id="walrus_0_Layer2_1_MEMBER_0_MEMBER_0_MEMBER_4_MEMBER_4_MEMBER_1_FILL">
<path fill="#8C6565" stroke="none" d="
M 355.75 1025.55
Q 354.1 1023.85 350.45 1025 346.8 1026.15 343.25 1029.55 339.75 1032.95 338.4 1036.55 337.1 1040.2 338.75 1041.9 340.2 1043.45 343.05 1041.4 344.25 1040.55 349.2 1035.75 354.15 1031 355.1 1029.85 357.25 1027.05 355.75 1025.55 Z"/>
</g>

<g id="walrus_0_Layer2_1_MEMBER_0_MEMBER_0_MEMBER_4_MEMBER_4_MEMBER_2_FILL">
<path fill="#8C6565" stroke="none" d="
M 394.75 991.95
Q 392.05 993.8 390.8 996.1 389.55 998.4 390.5 999.7 391.3 1000.9 393.4 999.85 394.35 999.35 398.1 996.7 401.9 994.05 402.65 993.35 404.4 991.75 403.55 990.6 402.6 989.25 400.05 989.65 397.5 990.05 394.75 991.95 Z"/>
</g>

<g id="walrus_0_Layer2_1_MEMBER_0_MEMBER_0_MEMBER_4_MEMBER_4_MEMBER_3_FILL">
<path fill="#8C6565" stroke="none" d="
M 442.7 952.65
Q 441.2 953.6 441.3 954.7 441.45 955.7 443.1 955.7 443.7 955.75 446.95 955.35 450.25 954.9 450.8 954.75 452.35 954.35 452.25 953.35 452.1 952.25 450.4 951.7 448.7 951.1 446.45 951.35 444.2 951.65 442.7 952.65 Z"/>
</g>

<g id="walrus_0_Layer2_1_MEMBER_0_MEMBER_0_MEMBER_4_MEMBER_4_MEMBER_4_FILL">
<path fill="#8C6565" stroke="none" d="
M 281.45 1078.8
Q 279.4 1081.5 278.9 1084.1 278.4 1086.7 279.7 1087.7 280.85 1088.6 282.6 1086.9 283.3 1086.2 286.2 1082.4 289.1 1078.5 289.55 1077.7 290.75 1075.6 289.55 1074.7 288.25 1073.7 285.85 1074.9 283.5 1076.1 281.45 1078.8 Z"/>
</g>

<g id="walrus_0_Layer2_1_MEMBER_0_MEMBER_0_MEMBER_4_MEMBER_4_MEMBER_5_FILL">
<path fill="#8C6565" stroke="none" d="
M 427.85 962.05
Q 426.95 959.95 422.95 959.9 418.95 959.85 414.15 961.9 409.35 963.9 406.6 966.85 403.85 969.75 404.7 971.85 405.5 973.7 409.1 972.7 410.55 972.3 417.35 969.4 424.15 966.5 425.45 965.75 428.65 963.9 427.85 962.05 Z"/>
</g>

<g id="walrus_0_Layer2_1_MEMBER_0_MEMBER_0_MEMBER_4_MEMBER_4_MEMBER_6_FILL">
<path fill="#8C6565" stroke="none" d="
M 394 978.55
Q 393 976.8 390.4 976.55 387.8 976.3 385.15 977.8 382.45 979.25 381.25 981.55 380.05 983.85 381.05 985.65 381.9 987.25 384 986.6 385 986.25 388.65 984.2 392.4 982.15 393.15 981.55 394.85 980.15 394 978.55 Z"/>
</g>

<g id="walrus_0_Layer2_1_MEMBER_0_MEMBER_0_MEMBER_4_MEMBER_4_MEMBER_7_FILL">
<path fill="#8C6565" stroke="none" d="
M 332.75 1026
Q 331.55 1024.35 328.95 1024.5 326.4 1024.6 323.9 1026.4 321.45 1028.2 320.55 1030.65 319.65 1033.1 320.85 1034.75 321.95 1036.2 323.95 1035.25 324.7 1034.9 328.25 1032.3 331.7 1029.8 332.35 1029.1 333.85 1027.45 332.75 1026 Z"/>
</g>

<g id="walrus_0_Layer2_1_MEMBER_0_MEMBER_0_MEMBER_4_MEMBER_4_MEMBER_8_FILL">
<path fill="#8C6565" stroke="none" d="
M 320.4 1049.25
Q 318.4 1047.4 314.8 1048.4 311.25 1049.45 308.15 1052.8 305.1 1056.1 304.35 1059.75 303.65 1063.4 305.65 1065.25 307.45 1066.9 310 1064.95 311.1 1064.1 315.4 1059.45 319.7 1054.8 320.45 1053.6 322.2 1050.85 320.4 1049.25 Z"/>
</g>

<g id="walrus_0_Layer2_1_MEMBER_0_MEMBER_0_MEMBER_4_MEMBER_5_MEMBER_0_FILL">
<path fill="#8C6565" stroke="none" d="
M 199.1 1161.35
L 197.4 1161.35
Q 203.3 1170.75 209.05 1177.2 216.45 1185.6 222.75 1187.95 251.586328125 1198.7412109375 284.9 1204.95 284.1087890625 1204.8068359375 283.3 1204.65 297.5 1204.05 313.95 1202.4 277.8 1197.9 247.6 1190.85 222.15 1184.95 218.45 1181.95 214.25 1178.65 206.25 1169.65
L 199.1 1161.35 Z"/>
</g>

<g id="walrus_0_Layer2_1_MEMBER_0_MEMBER_0_MEMBER_4_MEMBER_5_MEMBER_1_FILL">
<path fill="#8C6565" stroke="none" d="
M 311.3 1209.1
L 311.4 1209.1
Q 321.85 1210.4 332.4 1211.35
L 332.8 1211.35 339.8 1211.95
Q 346.7 1212.5 353.6 1212.85 354.15 1212.85 354.4 1212.9
L 396.6 1214.05
Q 425.65 1214.15 440.5 1213.95
L 437.75 1207.3 435.1 1207.4
Q 377.05 1210.35 313.95 1202.4 297.5 1204.05 283.3 1204.65 296.45 1207.2 311.3 1209.1
M 645.7 1144.35
Q 640.65 1162.1 635.05 1172 617.15 1183.2 560.65 1193.4 543.05 1196.55 523.6 1199.25
L 507.75 1201.3 481.85 1212.7
Q 523.2 1210.6 556.4 1204.5 595.6 1197.35 627.7 1183.95 643.9 1177.25 651.3 1134.05 654.2 1117.15 654.8 1099.2 655.4 1082.4 653.8 1072.2
L 653.35 1069.45
Q 655.9 1108.8 645.7 1144.35 Z"/>
</g>

<g id="walrus_0_Layer2_1_MEMBER_0_MEMBER_0_MEMBER_4_MEMBER_6_FILL">
<path fill="#8C6565" stroke="none" d="
M 509.75 1143.5
L 497.25 1179.95 490.85 1212.2 505.35 1211.15
Q 511.6 1201.75 514.4 1188.95 519.25 1166.45 509.75 1143.5
M 438.75 1183.95
L 401.8 1187.45
Q 401.85 1187.5 414.25 1193.85 429 1200.7 440.8 1203 435.85 1207.8 428.75 1212.45
L 458.25 1210.45
Q 459.85 1207.35 459.5 1202.4 463.65 1200.35 464.1 1195.95
L 463.75 1191.95
Q 442.25 1184.45 438.75 1183.95 Z"/>
</g>

<g id="walrus_0_Layer2_1_MEMBER_0_MEMBER_0_MEMBER_4_MEMBER_7_MEMBER_0_FILL">
<path fill="#8C6565" stroke="none" d="
M 553.5 983.25
L 553.45 978.9 541.45 982.1 541.95 999.85
Q 543.05 1033.5 544.55 1055.25 546.75 1088 549.45 1088 552.55 1088 553.35 1043.2 553.85 1017.5 553.5 983.25 Z"/>
</g>

<g id="walrus_0_Layer2_1_MEMBER_0_MEMBER_0_MEMBER_4_MEMBER_7_MEMBER_1_FILL">
<path fill="#8C6565" stroke="none" d="
M 602.95 955.9
L 601.85 950.85 601.8 950.75 601.75 950.5 592.15 958.25 601.95 1000.3
Q 612.7 1044.45 617.5 1054.9
L 618.2 1056.3
Q 619.2 1058.15 619.85 1058 622.85 1057.3 614.9 1014.65 610.35 990.3 602.95 955.9 Z"/>
</g>

<g id="walrus_0_Layer2_1_MEMBER_0_MEMBER_0_MEMBER_4_MEMBER_8_FILL">
<path fill="#8C6565" stroke="none" d="
M 431.65 1146.75
Q 407.75 1163.2 386.75 1181.45
L 410.2 1189.8
Q 436.3 1198.5 449.7 1200.15 435.5 1210.2 417 1217.4 387.35 1228.95 355.75 1228.95 352.35 1229.25 351.45 1230.65 350.5 1232.15 353.45 1233.6 357.55 1235.65 362.55 1236.6 366.25 1237.35 371.45 1237.6
L 361.5 1242.65
Q 352 1248.1 354.1 1249.95 356.2 1251.85 366.35 1249.75 371.45 1248.7 376.1 1247.3
L 369 1252.75
Q 362.25 1258.5 364.1 1259.95 366 1261.4 378.75 1258.65 385.1 1257.3 391.1 1255.6
L 387.4 1260.8
Q 384.15 1266.25 386.45 1267.3 388.75 1268.35 399.45 1263.05 404.85 1260.45 409.75 1257.6
L 408.8 1263.1
Q 408.4 1268.6 411.1 1268.6 413.8 1268.6 420.75 1262.95
L 427.1 1257.3 427.95 1260.8
Q 429.4 1264.3 432.1 1264.3 434.8 1264.3 439.55 1258.3
L 443.75 1252.3 443.8 1255.45
Q 444.25 1258.7 446.1 1259.3 447.9 1259.9 455.95 1253.85 464 1247.85 473.9 1238.55 498.9 1215.1 507.15 1198.8 511.5 1190.25 513.3 1179.4 515.1 1168.4 513.75 1157.65 510.7 1132.8 493.75 1122.5 479.4 1113.75 431.65 1146.75 Z"/>
</g>

<g id="walrus_0_Layer2_1_MEMBER_0_MEMBER_0_MEMBER_4_MEMBER_9_FILL">
<path fill="#8C6565" stroke="none" d="
M 447.25 1207.95
Q 439.5 1212.95 426.8 1219 401.45 1231.15 376.75 1236.45
L 382.75 1235.85
Q 390.45 1234.8 398.7 1232.5 425.05 1225.15 447.25 1207.95
M 453.75 1211.45
L 429.75 1224.9
Q 402.5 1239.5 386.25 1245.45
L 393.05 1243.25
Q 401.6 1240.3 410.05 1236.7 437.2 1225.2 453.75 1211.45
M 465.25 1212.45
L 442.95 1227.25
Q 417.3 1243.65 400.75 1251.45 410.4 1247.7 423.25 1240.95 449 1227.45 465.25 1212.45
M 448.75 1246.95
Q 452.65 1244.7 457.7 1240.75 467.8 1232.9 473.75 1224.45
L 448.75 1246.95
M 472.25 1214.95
L 456.25 1227.45
Q 437.75 1241.7 425.25 1250.45 432.9 1246.35 442.55 1239.85 461.95 1226.85 472.25 1214.95 Z"/>
</g>

<g id="walrus_0_Layer2_1_MEMBER_0_MEMBER_0_MEMBER_5_MEMBER_0_FILL">
<path fill="#8C6565" stroke="none" d="
M 489.4 944.1
Q 486.8 951.45 487.25 955 487.9 959.7 505.65 969.3 514.5 974.15 523.25 978 547 987.05 567.75 974.2 574.25 970.15 579.65 964.45
L 583.75 959.5
Q 602.2 961.4 610.55 947.65 613.2 943.35 614.5 938
L 615.25 933.5
Q 617.45 924.15 611.8 916.15 610.05 913.6 607.75 911.55
L 605.75 910 549.75 891
Q 516.85 901.3 499 926.2 492.7 935 489.4 944.1 Z"/>
</g>

<g id="walrus_0_Layer2_1_MEMBER_0_MEMBER_0_MEMBER_5_MEMBER_1_FILL">
<path fill="#8C6565" stroke="none" d="
M 553.95 944.4
Q 555.65 953.45 562.95 959.15 570.25 964.8 579.55 964.5 581.25 962.7 582.7 960.9
L 583.75 959.5
Q 589.8 960.15 594.9 958.95 600.3 954.7 602.8 948.45 605.35 942.05 604.15 935.25 602.3 925.2 593.65 919.45 585 913.7 574.6 915.6 564.2 917.5 558.15 925.95 552.1 934.4 553.95 944.4 Z"/>
</g>

<g id="walrus_0_Layer2_1_MEMBER_0_MEMBER_0_MEMBER_5_MEMBER_2_MEMBER_0_FILL">
<path fill="#8C6565" stroke="none" d="
M 558.75 978
L 546.75 981 548.7 1031
Q 551.3 1081 554.75 1081 558.2 1081 558.8 1029.5
L 558.75 978 Z"/>
</g>

<g id="walrus_0_Layer2_1_MEMBER_0_MEMBER_0_MEMBER_5_MEMBER_2_MEMBER_1_FILL">
<path fill="#8C6565" stroke="none" d="
M 558.75 978
L 546.75 981 548.6 1029.4
Q 551.15 1078.3 554.45 1080.85 553.45 1070.65 552.3 1048.15 550.5 1012.5 551.1 985
L 553.7 984.85
Q 556.7 984.45 558.85 983.2
L 558.75 978 Z"/>
</g>

<g id="walrus_0_Layer2_1_MEMBER_0_MEMBER_0_MEMBER_5_MEMBER_3_MEMBER_0_FILL">
<path fill="#8C6565" stroke="none" d="
M 608.6 951.2
L 599 958.5 610.85 1006.05
Q 623.35 1053.4 626.7 1052.65 630.05 1051.95 619.65 1001.5
L 608.6 951.2 Z"/>
</g>

<g id="walrus_0_Layer2_1_MEMBER_0_MEMBER_0_MEMBER_5_MEMBER_3_MEMBER_1_FILL">
<path fill="#8C6565" stroke="none" d="
M 609.75 956.25
L 608.6 951.2 599 958.5 610.4 1004.5
Q 622.55 1050.8 626.3 1052.6 621.8 1037.9 617.45 1021.85 608.25 988.15 603 961.25 606.85 958.95 609.75 956.25 Z"/>
</g>

<g id="walrus_0_Layer2_1_MEMBER_0_MEMBER_0_MEMBER_5_MEMBER_4_FILL">
<path fill="#8C6565" stroke="none" d="
M 553.5 895.3
L 553.3 895.05
Q 552.25 893.6 550.8 892.05
L 549.75 891
Q 530.8 896.95 516.5 908.1 504.8 917.25 497 929.15 501.55 938.5 510.7 943.6 520.1 948.8 530.7 947.5 538.4 946.6 544.85 942.35 551.05 938.3 554.95 931.9 557.75 936.8 562.75 941.25 570.2 947.95 581 952.2 581.05 956.45 579.7 960 568.1 977.5 544.45 979.5 537.05 980.15 529.35 979.15
L 523.1 978
Q 548.1 988 568.4 975.35 574.75 971.35 579.85 965.6
L 583.7 960.65
Q 592.9 962.1 598.05 960.7 600.65 960 601.4 959 610.15 953.6 613.5 942.6 614.5 939.15 614.9 935.55
L 615.05 932.65
Q 611.6 950 601.05 955.65 596.75 958 591.25 958 587.85 958.05 584.75 957.2 585.4 954.65 585.65 950.9 589.55 947.1 592.85 941.75 597.65 933.9 600.25 924
L 556.45 929.2
Q 560.75 920.4 559.55 910.75 558.9 905.2 556.4 900.15
L 556.35 900 553.5 895.3 Z"/>
</g>

<g id="walrus_0_Layer2_1_MEMBER_0_MEMBER_0_MEMBER_5_MEMBER_5_MEMBER_0_FILL">
<path fill="#8C6565" stroke="none" d="
M 598.75 870.9
Q 588.75 863.05 576.1 864.6 563.5 866.1 555.65 876.15 547.8 886.15 549.35 898.75 550.9 911.4 560.85 919.25 570.85 927.1 583.45 925.55 596.1 924.05 603.95 914.05 611.8 904.05 610.25 891.4 608.75 878.75 598.75 870.9 Z"/>
</g>

<g id="walrus_0_Layer2_1_MEMBER_0_MEMBER_0_MEMBER_5_MEMBER_5_MEMBER_1_FILL">
<path fill="#8C6565" stroke="none" d="
M 596.2 869.15
Q 587 863.25 576.1 864.6 568.15 865.55 561.85 870.15 557.65 874.55 555.65 880.3 553.6 886.25 554.35 892.55 555.75 903.9 564.7 910.9 573.65 917.95 584.95 916.55 596.25 915.2 603.25 906.25 610.3 897.25 608.95 885.95
L 608.8 885.1
Q 605.3 874.9 596.2 869.15 Z"/>
</g>

<g id="walrus_0_Layer2_1_MEMBER_0_MEMBER_0_MEMBER_5_MEMBER_5_MEMBER_2_MEMBER_0_FILL">
<path fill="#8C6565" stroke="none" d="
M 562.4 892.3
Q 560.95 894.2 561.25 896.6 561.5 898.95 563.4 900.45 565.3 901.95 567.65 901.65 570 901.35 571.5 899.45 573 897.55 572.7 895.2 572.4 892.8 570.55 891.3 568.65 889.85 566.25 890.1 563.9 890.4 562.4 892.3 Z"/>
</g>

<g id="walrus_0_Layer2_1_MEMBER_0_MEMBER_0_MEMBER_5_MEMBER_5_MEMBER_2_MEMBER_1_FILL">
<path fill="#8C6565" stroke="none" d="
M 571.05 893.2
Q 570.95 892.3 570.2 891.7 569.5 891.15 568.55 891.25 567.65 891.35 567.1 892.1 566.55 892.8 566.65 893.75 566.75 894.65 567.45 895.25 568.2 895.8 569.1 895.7 570.05 895.6 570.6 894.85 571.15 894.1 571.05 893.2 Z"/>
</g>

<g id="walrus_0_Layer2_1_MEMBER_0_MEMBER_0_MEMBER_5_MEMBER_6_MEMBER_0_FILL">
<path fill="#8C6565" stroke="none" d="
M 551.05 923.7
Q 552.05 931.4 564.45 939.35 573.8 945.35 582.35 947.85
L 582.75 947.9
Q 583.25 947.9 583.55 947.65 589.15 943.6 594.4 938.15 604.8 927.35 605.85 918.45 606.6 912.05 602.3 907.05 600.6 905.15 597.1 904.1 593.6 903.1 588.7 903.1 581.25 903.1 573.3 905.3 565.3 907.5 559.05 911.3 550.15 916.65 551.05 923.7 Z"/>
</g>

<g id="walrus_0_Layer2_1_MEMBER_0_MEMBER_0_MEMBER_5_MEMBER_6_MEMBER_1_FILL">
<path fill="#8C6565" stroke="none" d="
M 560.7 911.85
Q 554.5 915.75 555.25 919.25 556 922.8 563.25 923.85 570.5 924.95 580 922.95 589.55 920.9 595.75 917.05 601.95 913.1 601.2 909.6 600.5 906.05 593.25 905 585.95 903.95 576.45 905.95 566.9 907.95 560.7 911.85 Z"/>
</g>

<g id="walrus_0_Layer2_1_MEMBER_0_MEMBER_0_MEMBER_5_MEMBER_6_MEMBER_2_FILL">
<path fill="#8C6565" stroke="none" d="
M 601 924.4
Q 602.2 921.4 602.2 919.05
L 602 917.25
Q 597.4 925.15 579.35 928.8 573.75 929.95 567.45 930.5
L 562.25 930.85
Q 566.55 937.15 575.15 942.35 579.45 944.95 582.9 946.25 597.15 934.05 601 924.4 Z"/>
</g>

<g id="walrus_0_Layer2_1_MEMBER_0_MEMBER_0_MEMBER_5_MEMBER_7_MEMBER_0_FILL">
<path fill="#8C6565" stroke="none" d="
M 521.75 877.9
Q 508.2 879.55 499.75 890.3 491.3 901.1 492.95 914.65 494.55 928.25 505.35 936.7 516.1 945.15 529.7 943.5 543.3 941.85 551.75 931.1 560.2 920.3 558.55 906.75 556.9 893.15 546.15 884.7 535.35 876.25 521.75 877.9 Z"/>
</g>

<g id="walrus_0_Layer2_1_MEMBER_0_MEMBER_0_MEMBER_5_MEMBER_7_MEMBER_1_FILL">
<path fill="#8C6565" stroke="none" d="
M 521.75 877.9
Q 513.2 878.95 506.4 883.9 501.85 888.65 499.75 894.85 497.55 901.2 498.35 908 499.8 920.15 509.45 927.75 519.1 935.3 531.3 933.8 543.45 932.35 551.05 922.7 558.6 913.05 557.1 900.85
L 557 899.95
Q 553.25 889 543.45 882.8 533.5 876.5 521.75 877.9 Z"/>
</g>

<g id="walrus_0_Layer2_1_MEMBER_0_MEMBER_0_MEMBER_5_MEMBER_7_MEMBER_2_MEMBER_0_FILL">
<path fill="#8C6565" stroke="none" d="
M 531.45 904.45
Q 531.15 901.9 529.1 900.3 527.05 898.7 524.5 899 521.9 899.3 520.35 901.35 518.75 903.35 519.05 905.95 519.35 908.5 521.4 910.1 523.4 911.7 526 911.4 528.55 911.1 530.15 909.05 531.75 907 531.45 904.45 Z"/>
</g>

<g id="walrus_0_Layer2_1_MEMBER_0_MEMBER_0_MEMBER_5_MEMBER_7_MEMBER_2_MEMBER_1_FILL">
<path fill="#8C6565" stroke="none" d="
M 529.65 902.3
Q 529.55 901.35 528.75 900.7 528 900.1 527 900.2 526 900.3 525.4 901.1 524.8 901.9 524.9 902.9 525 903.9 525.8 904.5 526.6 905.1 527.6 904.95 528.6 904.85 529.2 904.05 529.8 903.25 529.65 902.3 Z"/>
</g>

<g id="walrus_0_Layer2_1_MEMBER_1_MEMBER_0_MEMBER_0_MEMBER_0_FILL">
<path fill="#102E33" stroke="none" d="
M 61.5 -29.3
Q 61.4 -30.8 60.95 -30.85 60.55 -30.95 59.55 -29.9 59.05 -29.35 58.6 -28.8 58.6 -29.4 58.45 -30.05 58.2 -31.3 57.8 -31.3 57.35 -31.3 56.3 -27.85 55.75 -26.1 55.3 -24.4 54.4 -25.8 53.2 -27.4 50.75 -30.65 49.1 -31.7 47.45 -32.75 45.7 -26.7 44.8 -23.7 44.25 -20.5
L 46.6 -12.9 49.95 -11.15
Q 53.7 -9.5 55.6 -10 58.55 -10.85 65.8 -14.9 72.3 -18.6 73.95 -19.95 75 -20.8 72.9 -20.8
L 70.65 -20.65
Q 71.25 -21.35 71.8 -22.1 72.95 -23.65 72.7 -24.1 72.45 -24.55 70.75 -24.35
L 69.1 -24.1
Q 69.45 -24.6 69.75 -25.2 70.35 -26.4 70.1 -26.7 69.8 -27.05 68.4 -26.65
L 67.05 -26.15
Q 67.3 -26.7 67.5 -27.35 67.85 -28.55 67.3 -28.8 66.8 -29.05 65.45 -28.2 64.75 -27.75 64.15 -27.25 64.3 -27.85 64.4 -28.45 64.55 -29.7 64.15 -29.9 63.7 -30.05 62.55 -28.95 62 -28.4 61.5 -27.85 61.55 -28.55 61.5 -29.3 Z"/>
</g>

<g id="walrus_0_Layer2_1_MEMBER_1_MEMBER_0_MEMBER_0_MEMBER_1_FILL">
<path fill="#102E33" stroke="none" d="
M 50.35 -28.5
L 50.2 -30.05 45.85 -27.3
Q 44.9 -24.15 44.25 -20.5
L 46.6 -12.9 49.95 -11.15
Q 53.7 -9.5 55.6 -10 57.95 -10.65 63.35 -13.55 67.8 -15.95 71.65 -18.4 67.3 -16.45 63.6 -14.85 56.2 -11.7 54.6 -11.55 53 -11.35 50.9 -12.6
L 49.1 -13.9
Q 50.4 -18.35 50.4 -24.65 50.45 -26.65 50.35 -28.5 Z"/>
</g>

<g id="walrus_0_Layer2_1_MEMBER_1_MEMBER_0_MEMBER_0_MEMBER_2_FILL">
<path fill="#53AEBD" stroke="none" d="
M 60.8 -24.4
L 61.5 -26.85 58.2 -20.35
Q 59.75 -21.65 60.8 -24.4
M 62.65 -22.65
L 64.15 -25.6
Q 62.9 -23.4 58.75 -18.3 60.75 -19.4 62.65 -22.65
M 66.5 -23.25
Q 65.05 -21.65 61.9 -19 60.3 -17.65 59.05 -16.65 62.25 -18.1 64.7 -20.85 65.45 -21.7 66.05 -22.55
L 66.5 -23.25
M 65.9 -18.25
L 68.3 -20.1 59.2 -14.7
Q 62.8 -16.1 65.9 -18.25
M 57.1 -23
Q 57.4 -23.6 57.75 -24.5 58.35 -26.3 58.35 -27.7
L 57.1 -23 Z"/>
</g>

<g id="walrus_0_Layer2_1_MEMBER_1_MEMBER_0_MEMBER_1_MEMBER_0_FILL">
<path fill="#08242A" stroke="none" d="
M -87.2 -62.85
L -90.7 -64.3
Q -92.05 -63.45 -92.35 -61.4 -92.75 -59.05 -92.35 -53.1 -91.95 -46.85 -90.15 -40.45 -88.3 -34.05 -86.1 -31 -83.15 -26.95 -80.25 -23.65
L -78.15 -24.25
Q -76.25 -25.05 -76.9 -25.85 -77.6 -26.65 -78.45 -30.4
L -79.1 -33.95
Q -79.35 -36.6 -80.35 -44.2
L -81.35 -51.25
Q -81.6 -52.85 -81.9 -54.55 -82.5 -57.9 -82.6 -58.25 -82.8 -58.8 -87.2 -62.85 Z"/>
</g>

<g id="walrus_0_Layer2_1_MEMBER_1_MEMBER_0_MEMBER_1_MEMBER_1_FILL">
<path fill="#08242A" stroke="none" d="
M -63.1 -62.45
L -67.15 -64.7
Q -68.7 -63.5 -69.55 -60.6 -69.65 -60.2 -70.85 -54.55 -71.15 -53.05 -73.5 -44.5 -75.5 -37.2 -75.6 -35.4 -75.8 -32.3 -75.8 -27.3
L -72.5 -24.75
Q -72.35 -24.95 -72.2 -25.4 -71.8 -26.3 -71.55 -27.7 -71.35 -29.2 -69.05 -33.85 -67.15 -37.8 -65.3 -40.95 -64.05 -43.1 -62 -47.85
L -60.15 -52.15 -63.1 -62.45 Z"/>
</g>

<g id="walrus_0_Layer2_1_MEMBER_1_MEMBER_0_MEMBER_1_MEMBER_2_FILL">
<path fill="#0C4551" stroke="none" d="
M -90.9 -64.15
L -89.95 -63.15
Q -88.95 -61.7 -88.5 -59.15 -87.7 -54.8 -85.9 -52.5 -83.1 -49 -77.65 -49.6 -76.7 -49.9 -75.75 -50.8 -73.85 -52.6 -73.95 -55.45 -73.8 -57.15 -73.8 -59.15 -73.85 -63.25 -74.9 -65.25 -75.35 -65.25 -76.1 -65.2 -77.6 -65.05 -79.1 -64.5 -79.8 -64.3 -80.9 -64.15 -83.15 -63.8 -85.2 -63.95 -86.05 -64 -88.75 -64.5 -90.05 -64.75 -90.9 -64.15 Z"/>
</g>

<g id="walrus_0_Layer2_1_MEMBER_1_MEMBER_0_MEMBER_1_MEMBER_3_FILL">
<path fill="#AF38DB" stroke="none" d="
M -58.1 -63.55
L -60.35 -63.3 -58.5 -60 -56.8 -62.6 -54.95 -59.05 -52.6 -63.5
Q -54.3140625 -63.6357421875 -56.05 -63.65 -56.678125 -63.6244140625 -57.3 -63.6 -57.701953125 -63.5751953125 -58.1 -63.55 Z"/>

<path fill="#0C4551" stroke="none" d="
M -61.25 -63.2
Q -63.7 -64.6 -65.65 -64.75 -66.25 -64.85 -66.8 -64.75
L -67.15 -64.7
Q -65.7 -63.55 -63.65 -55.85 -62.55 -51.7 -59.4 -50.5 -57.85 -49.9 -56.5 -50.15 -51.3 -49.9 -50.25 -56.55 -49.9 -58.6 -50.05 -61.1
L -50.2 -63.2
Q -51.3833984375 -63.3796875 -52.6 -63.5
L -54.95 -59.05 -56.8 -62.6 -58.5 -60 -60.35 -63.3 -61.25 -63.2 Z"/>
</g>

<g id="walrus_0_Layer2_1_MEMBER_1_MEMBER_0_MEMBER_1_MEMBER_4_FILL">
<path fill="#2A869A" stroke="none" d="
M -88.5 -59
Q -87.65 -54.7 -85.85 -52.45 -83.05 -49 -77.65 -49.6 -76.7 -49.9 -75.75 -50.8 -73.85 -52.6 -73.95 -55.45 -73.9 -56.2 -73.85 -57.25 -73.75 -59.35 -73.9 -61.1 -73.9 -59.7 -74.6 -56.4 -75.25 -53.4 -75.6 -52.65
L -78.45 -59.45 -75.95 -51.95 -76.1 -51.7
Q -78.45 -50.75 -79.25 -50.75 -79.55 -50.75 -80.1 -50.8
L -82.15 -61.25 -81.15 -51
Q -83.25 -51.5 -84.4 -52.25
L -85.6 -60.25 -85.3 -53.1
Q -86.5 -54.65 -88.5 -59 Z"/>
</g>

<g id="walrus_0_Layer2_1_MEMBER_1_MEMBER_0_MEMBER_1_MEMBER_5_FILL">
<path fill="#2A869A" stroke="none" d="
M -61.7 -54
Q -62 -54.45 -62.15 -54.6 -62.6 -55.15 -63.6 -57.25 -64.3 -58.7 -64.9 -60.1 -64.3 -58.2 -63.65 -55.85 -62.55 -51.7 -59.4 -50.5 -57.85 -49.9 -56.5 -50.15 -52.4 -49.95 -50.85 -54.1 -49.85 -56.85 -50.05 -61.1
L -50.7 -57.65 -51.1 -56.6
Q -51.55 -55.35 -52 -54.45
L -54.3 -59.3 -52.5 -53.5
Q -52.7 -53.15 -52.9 -52.95 -53.95 -51.75 -56.9 -51.7
L -58 -59.55 -57.9 -51.7 -58.4 -51.7
Q -59.5 -51.75 -60.25 -52.25 -60.8 -52.55 -61.25 -53.25
L -61.05 -60.25 -61.7 -54 Z"/>
</g>

<g id="walrus_0_Layer2_1_MEMBER_1_MEMBER_0_MEMBER_2_FILL">
<path fill="#123B43" stroke="none" d="
M -68.45 -22.05
Q -68.45 -24.7 -70.3 -26.55 -72.15 -28.4 -74.8 -28.4 -77.4 -28.4 -79.3 -26.55 -81.15 -24.7 -81.15 -22.05 -81.15 -19.45 -79.3 -17.6 -77.4 -15.7 -74.8 -15.7 -72.15 -15.7 -70.3 -17.6 -68.45 -19.45 -68.45 -22.05 Z"/>
</g>

<g id="walrus_0_Layer2_1_MEMBER_1_MEMBER_0_MEMBER_3_FILL">
<path fill="#08242A" stroke="none" d="
M -81.05 -23
Q -81.15 -22.5 -81.15 -22.05 -81.15 -19.6 -79.5 -17.8 -77.85 -16 -75.45 -15.75 -74.55 -16.4 -74.05 -17.35 -73.5 -18.35 -73.5 -19.5 -73.5 -21.4 -74.85 -22.75 -76.2 -24.1 -78.1 -24.1 -79.75 -24.1 -81.05 -23 Z"/>
</g>

<g id="walrus_0_Layer2_1_MEMBER_1_MEMBER_0_MEMBER_4_MEMBER_0_FILL">
<path fill="#314A4D" stroke="none" d="
M 36.3 -65.95
Q 35.2 -68.45 34.05 -72.15
L 7 -75.45
Q -7.35 -75.85 -22.2 -67.75 -35.1 -60.7 -45.15 -49.25 -50.85 -42.75 -55.95 -34.85
L -57.55 -32.6
Q -59.55 -29.85 -61.7 -27.65 -68.5 -20.55 -73.9 -21.05
L -78 -17.2 -77.2 -15.7
Q -76.2 -13.9 -75.1 -12.3 -71.65 -7.2 -68.9 -6.15 -58.25 -2.15 -45.25 -0.45 -34.7 0.95 -20.9 1.05 0.05 1.15 11.45 0.05 29.6 -1.75 42.85 -7.25 47.35 -9.1 49.4 -21.05 50.2 -25.7 50.35 -30.65 50.5 -35.3 50.1 -38.1 49.15 -44.05 46.2 -49.85 43.9 -54.4 39.5 -60.25 37.7 -62.65 36.3 -65.95 Z"/>
</g>

<g id="walrus_0_Layer2_1_MEMBER_1_MEMBER_0_MEMBER_4_MEMBER_1_FILL">
<path fill="#172E31" stroke="none" d="
M 16.4 -71.3
L 15.2 -70.25
Q 13.8 -68.9 12.7 -67.4 9.15 -62.6 9.95 -58.25 11.2 -51.5 12.5 -46 14.25 -38.8 15.5 -36.7 16.6 -34.75 16.7 -32.8 16.75 -31.85 16.55 -31.25 15.25 -25.2 9.95 -20 2.25 -12.45 -12.85 -8.1 -24.15 -4.8 -36.5 -3.05 -44.75 -1.9 -52.2 -1.55 -44.95 -0.2 -36.65 0.45 -29.55 1 -20.9 1.05 0.05 1.15 11.45 0.05 29.6 -1.75 42.85 -7.25 47.35 -9.1 49.4 -21.05 50.2 -25.7 50.35 -30.65 50.5 -35.3 50.1 -38.1 49.15 -44.05 46.2 -49.85 43.9 -54.4 39.5 -60.25 37.7 -62.65 36.3 -65.95 35.2 -68.45 34.05 -72.15
L 24.55 -73.3 16.4 -71.3 Z"/>
</g>

<g id="walrus_0_Layer2_1_MEMBER_1_MEMBER_0_MEMBER_4_MEMBER_2_FILL">
<path fill="url(#Gradient_1)" stroke="none" d="
M 5.6 -74.9
L 5.3 -75.45
Q -8.65 -75.3 -22.95 -67.35 -35.45 -60.35 -45.15 -49.25 -50.85 -42.75 -55.95 -34.85
L -57.55 -32.6
Q -59.55 -29.85 -61.7 -27.65 -68.5 -20.55 -73.9 -21.05
L -74.45 -20.5 -72.25 -19.25
Q -69.45 -17.85 -66.4 -17.25 -56.65 -15.2 -48.2 -21.6 -44 -24.8 -37.75 -32.55 -30.3 -42.35 -26.05 -47.65 -18.5 -57.05 -11.95 -63 -3.35 -70.85 5.6 -74.9 Z"/>
</g>

<g id="walrus_0_Layer2_1_MEMBER_1_MEMBER_0_MEMBER_4_MEMBER_3_FILL">
<path fill="#1B3D41" stroke="none" d="
M -53.15 -34.55
Q -53.25 -33.85 -52.9 -33.55 -52.6 -33.3 -52.1 -33.8 -51.9 -34 -51.1 -35.05 -50.3 -36.1 -50.2 -36.35 -49.85 -36.9 -50.2 -37.15 -50.55 -37.45 -51.2 -37.1 -51.85 -36.75 -52.45 -36 -53 -35.3 -53.15 -34.55
M -41.7 -44.2
Q -42.25 -44.7 -43.2 -44.4 -44.2 -44.15 -45.05 -43.2 -45.9 -42.3 -46.1 -41.3 -46.3 -40.3 -45.75 -39.75 -45.25 -39.3 -44.55 -39.85 -44.25 -40.1 -43.05 -41.35 -41.85 -42.65 -41.65 -43 -41.2 -43.75 -41.7 -44.2
M -13.35 -68.85
Q -14.45 -68.85 -15.8 -68.3 -17.1 -67.75 -17.9 -66.95 -18.65 -66.15 -18.4 -65.55 -18.2 -65.05 -17.2 -65.3 -16.8 -65.4 -14.9 -66.2 -13.05 -67 -12.7 -67.25 -11.8 -67.75 -12 -68.25 -12.25 -68.85 -13.35 -68.85
M -8.3 -70.3
Q -8.25 -70 -7.8 -70 -7.65 -70 -6.75 -70.1 -5.85 -70.25 -5.7 -70.25 -5.25 -70.4 -5.3 -70.65 -5.3 -70.95 -5.8 -71.1 -6.25 -71.3 -6.9 -71.2 -7.5 -71.1 -7.9 -70.85 -8.35 -70.6 -8.3 -70.3
M -22.35 -57.85
Q -22.1 -57.55 -21.55 -57.8 -21.25 -57.95 -20.25 -58.7 -19.2 -59.4 -18.95 -59.6 -18.5 -60.05 -18.75 -60.35 -19 -60.75 -19.7 -60.65 -20.4 -60.5 -21.15 -60 -21.9 -59.5 -22.25 -58.85 -22.6 -58.2 -22.35 -57.85
M -31.9 -50.7
Q -32.4 -51.2 -33.4 -50.9 -34.4 -50.55 -35.35 -49.6 -36.35 -48.7 -36.7 -47.7 -37.05 -46.7 -36.6 -46.2 -36.2 -45.8 -35.45 -46.35 -35.1 -46.6 -33.75 -47.9 -32.35 -49.2 -32.1 -49.55 -31.5 -50.3 -31.9 -50.7
M -38.4 -49.75
Q -37.95 -50.2 -38.25 -50.6 -38.6 -51.05 -39.3 -51 -40 -51 -40.7 -50.5 -41.4 -50 -41.65 -49.3 -41.9 -48.65 -41.55 -48.2 -41.25 -47.8 -40.7 -48.05 -40.5 -48.15 -39.5 -48.85 -38.55 -49.55 -38.4 -49.75
M -32.2 -58.5
Q -33.8 -57.4 -34.55 -56.1 -35.35 -54.8 -34.85 -54.15 -34.4 -53.55 -33.2 -54.15 -32.65 -54.45 -30.45 -56 -28.25 -57.6 -27.8 -58 -26.8 -58.9 -27.25 -59.5 -27.7 -60.2 -29.2 -59.9 -30.65 -59.6 -32.2 -58.5
M -21.6 -62.85
Q -21.15 -63.25 -21.35 -63.7 -21.65 -64.2 -22.35 -64.25 -23.05 -64.3 -23.8 -63.9 -24.55 -63.5 -24.9 -62.85 -25.2 -62.25 -24.95 -61.75 -24.7 -61.3 -24.1 -61.5 -23.85 -61.55 -22.85 -62.15 -21.8 -62.7 -21.6 -62.85 Z"/>
</g>

<g id="walrus_0_Layer2_1_MEMBER_1_MEMBER_0_MEMBER_4_MEMBER_4_FILL">
<path fill="#568E95" stroke="none" d="
M -53.2 -33.85
Q -52.85 -33.6 -52.4 -34.05 -52.2 -34.25 -51.4 -35.3 -50.6 -36.4 -50.45 -36.6 -50.15 -37.2 -50.45 -37.45 -50.85 -37.7 -51.5 -37.4 -52.15 -37.05 -52.7 -36.3 -53.25 -35.55 -53.4 -34.85 -53.55 -34.1 -53.2 -33.85
M -43.5 -44.7
Q -44.5 -44.4 -45.35 -43.5 -46.2 -42.55 -46.4 -41.55 -46.6 -40.55 -46.05 -40.05 -45.55 -39.6 -44.85 -40.1 -44.5 -40.35 -43.35 -41.65 -42.15 -42.95 -41.95 -43.25 -41.45 -44 -41.95 -44.45 -42.5 -44.95 -43.5 -44.7
M -18.15 -67.2
Q -18.9 -66.4 -18.7 -65.8 -18.45 -65.3 -17.45 -65.6 -17.05 -65.7 -15.2 -66.5 -13.3 -67.3 -12.95 -67.5 -12.05 -68 -12.3 -68.55 -12.55 -69.1 -13.65 -69.1 -14.75 -69.15 -16.1 -68.55 -17.4 -68 -18.15 -67.2
M -7.15 -71.5
Q -7.8 -71.4 -8.2 -71.1 -8.6 -70.85 -8.6 -70.55 -8.55 -70.3 -8.1 -70.3 -7.9 -70.25 -7 -70.4 -6.1 -70.5 -5.95 -70.55 -5.55 -70.65 -5.55 -70.95 -5.6 -71.25 -6.05 -71.4 -6.55 -71.55 -7.15 -71.5
M -22.6 -58.15
Q -22.4 -57.8 -21.8 -58.1 -21.55 -58.25 -20.5 -58.95 -19.45 -59.7 -19.25 -59.9 -18.75 -60.35 -19 -60.65 -19.25 -61 -19.95 -60.9 -20.65 -60.8 -21.45 -60.3 -22.2 -59.75 -22.5 -59.15 -22.85 -58.5 -22.6 -58.15
M -32.4 -49.8
Q -31.8 -50.6 -32.2 -51 -32.65 -51.45 -33.65 -51.15 -34.65 -50.85 -35.65 -49.9 -36.6 -48.95 -37 -47.95 -37.35 -46.95 -36.9 -46.5 -36.5 -46.05 -35.7 -46.6 -35.35 -46.85 -34 -48.2 -32.65 -49.5 -32.4 -49.8
M -38.65 -50
Q -38.25 -50.5 -38.55 -50.9 -38.9 -51.35 -39.6 -51.3 -40.3 -51.25 -41 -50.75 -41.65 -50.25 -41.9 -49.6 -42.15 -48.9 -41.85 -48.45 -41.55 -48.05 -40.95 -48.3 -40.75 -48.4 -39.8 -49.15 -38.85 -49.85 -38.65 -50
M -32.5 -58.75
Q -34.05 -57.65 -34.85 -56.35 -35.6 -55.1 -35.1 -54.4 -34.7 -53.8 -33.5 -54.45 -32.95 -54.75 -30.75 -56.3 -28.55 -57.85 -28.1 -58.25 -27.1 -59.2 -27.5 -59.8 -28 -60.5 -29.45 -60.2 -30.95 -59.9 -32.5 -58.75
M -23.1 -62.4
Q -22.1 -63 -21.85 -63.15 -21.4 -63.55 -21.65 -63.95 -21.9 -64.45 -22.65 -64.55 -23.35 -64.6 -24.1 -64.2 -24.85 -63.8 -25.15 -63.15 -25.5 -62.5 -25.2 -62 -25 -61.55 -24.4 -61.75 -24.1 -61.85 -23.1 -62.4 Z"/>
</g>

<g id="walrus_0_Layer2_1_MEMBER_1_MEMBER_0_MEMBER_4_MEMBER_5_MEMBER_0_FILL">
<path fill="#031215" stroke="none" d="
M -75.45 -13.5
L -75.9 -13.5
Q -74.3 -10.9 -72.7 -9.15 -70.65 -6.8 -68.9 -6.15 -61.002734375 -3.21953125 -51.9 -1.5 -52.05 -1.5125 -52.2 -1.55 -48.3 -1.75 -43.75 -2.2 -53.7 -3.4 -62.05 -5.35 -69.1 -7 -70.1 -7.85 -71.25 -8.75 -73.45 -11.2
L -75.45 -13.5 Z"/>
</g>

<g id="walrus_0_Layer2_1_MEMBER_1_MEMBER_0_MEMBER_4_MEMBER_5_MEMBER_1_FILL">
<path fill="#041012" stroke="none" d="
M -52.2 -1.55
Q -48.55 -0.85 -44.45 -0.35 -41.55 0.05 -38.65 0.3
L -38.55 0.3 -36.6 0.45
Q -34.7 0.6 -32.8 0.7 -32.65 0.7 -32.55 0.7
L -20.9 1.05
Q -12.9 1.05 -8.8 1
L -9.55 -0.85 -10.3 -0.8
Q -26.3 0 -43.75 -2.2 -48.3 -1.75 -52.2 -1.55
M 14.15 -3.05
L 9.75 -2.5 2.6 0.65
Q 14.05 0.1 23.2 -1.6 34 -3.6 42.85 -7.25 47.35 -9.1 49.4 -21.05 50.2 -25.7 50.35 -30.65 50.5 -35.3 50.1 -38.1
L 49.95 -38.9
Q 50.65 -28 47.85 -18.2 46.45 -13.3 44.9 -10.55 39.95 -7.5 24.35 -4.65 19.5 -3.8 14.15 -3.05 Z"/>
</g>

<g id="walrus_0_Layer2_1_MEMBER_1_MEMBER_0_MEMBER_4_MEMBER_6_FILL">
<path fill="#163F46" stroke="none" d="
M -9.3 -7.25
L -19.5 -6.3
Q -19.45 -6.3 -16.05 -4.55 -12 -2.65 -8.7 -2 -10.1 -0.7 -12.05 0.6
L -3.9 0.05
Q -3.45 -0.8 -3.55 -2.2 -2.4 -2.75 -2.3 -3.95
L -2.4 -5.05
Q -8.3 -7.15 -9.3 -7.25
M 10.3 -18.45
L 6.85 -8.4 5.1 0.5 9.1 0.25
Q 10.85 -2.35 11.6 -5.9 12.95 -12.1 10.3 -18.45 Z"/>
</g>

<g id="walrus_0_Layer2_1_MEMBER_1_MEMBER_0_MEMBER_4_MEMBER_7_FILL">
<path fill="#07191C" stroke="none" d="
M 35.75 -71.6
L 35.7 -71.65 35.7 -71.7 33.05 -69.6 35.75 -57.95
Q 38.75 -45.8 40.05 -42.9
L 40.25 -42.5
Q 40.55 -42 40.7 -42.05 41.55 -42.25 39.35 -54 38.1 -60.75 36.05 -70.25
L 35.75 -71.6
M 19.05 -63
L 19.2 -58.1
Q 19.5 -48.8 19.9 -42.8 20.55 -33.75 21.25 -33.75 22.15 -33.75 22.35 -46.15 22.5 -53.2 22.4 -62.7
L 22.4 -63.9 19.05 -63 Z"/>
</g>

<g id="walrus_0_Layer2_1_MEMBER_1_MEMBER_0_MEMBER_4_MEMBER_8_FILL">
<path fill="#102E33" stroke="none" d="
M 11.3 -8.55
Q 11.8 -11.55 11.4 -14.55 10.6 -21.4 5.9 -24.25 1.95 -26.65 -11.25 -17.55 -17.85 -13 -23.65 -7.95
L -17.15 -5.65
Q -9.95 -3.25 -6.25 -2.8 -10.2 -0.05 -15.3 1.95 -23.45 5.15 -32.2 5.15 -33.15 5.25 -33.4 5.6 -33.65 6.05 -32.85 6.45 -31.7 7 -30.3 7.25 -29.3 7.45 -27.85 7.55
L -30.6 8.95
Q -33.25 10.45 -32.65 10.95 -32.05 11.45 -29.25 10.9 -27.85 10.6 -26.6 10.2
L -28.55 11.7
Q -30.4 13.3 -29.9 13.7 -29.35 14.1 -25.85 13.35 -24.1 12.95 -22.45 12.5
L -23.45 13.95
Q -24.35 15.45 -23.7 15.75 -23.1 16 -20.15 14.55 -18.65 13.85 -17.3 13.05
L -17.55 14.55
Q -17.65 16.1 -16.9 16.1 -16.15 16.1 -14.25 14.55
L -12.5 12.95 -12.25 13.95
Q -11.85 14.9 -11.1 14.9 -10.35 14.9 -9.05 13.25
L -7.9 11.6 -7.9 12.45
Q -7.75 13.35 -7.25 13.55 -6.75 13.7 -4.55 12 -2.3 10.35 0.4 7.8 7.3 1.3 9.6 -3.2 10.8 -5.55 11.3 -8.55 Z"/>
</g>

<g id="walrus_0_Layer2_1_MEMBER_1_MEMBER_0_MEMBER_4_MEMBER_9_FILL">
<path fill="#53AEBD" stroke="none" d="
M -26.4 7.2
L -24.75 7.05
Q -22.6 6.75 -20.35 6.15 -13.05 4.1 -6.95 -0.65 -9.1 0.75 -12.6 2.4 -19.6 5.75 -26.4 7.2
M -17.2 7.3
Q -9.7 4.1 -5.15 0.3
L -11.75 4.05
Q -19.3 8.05 -23.8 9.7
L -21.9 9.1
Q -19.55 8.3 -17.2 7.3
M -0.05 1.3
L -4.45 4.75
Q -9.55 8.65 -13 11.1 -10.9 9.95 -8.25 8.15 -2.9 4.55 -0.05 1.3
M -1.95 0.6
L -8.15 4.7
Q -15.2 9.2 -19.75 11.35 -17.1 10.3 -13.55 8.45 -6.45 4.75 -1.95 0.6
M -6.5 10.1
Q -5.45 9.5 -4.05 8.4 -1.25 6.25 0.4 3.9
L -6.5 10.1 Z"/>
</g>

<g id="walrus_0_Layer2_1_MEMBER_1_MEMBER_0_MEMBER_5_MEMBER_0_FILL">
<path fill="#1B3D41" stroke="none" d="
M 39.25 -75.15
L 39.45 -76.4
Q 40.05 -79 38.5 -81.2 38 -81.9 37.35 -82.45
L 36.8 -82.9 21.35 -88.15
Q 12.25 -85.3 7.35 -78.45 5.6 -76 4.7 -73.5 4 -71.45 4.1 -70.5 4.3 -69.2 9.2 -66.55 11.65 -65.2 14.05 -64.15 20.6 -61.65 26.35 -65.2 28.1 -66.3 29.6 -67.85
L 30.75 -69.25
Q 35.85 -68.7 38.15 -72.5 38.85 -73.7 39.25 -75.15 Z"/>
</g>

<g id="walrus_0_Layer2_1_MEMBER_1_MEMBER_0_MEMBER_5_MEMBER_1_FILL">
<path fill="#4D858E" stroke="none" d="
M 28.2 -81.35
Q 25.35 -80.85 23.7 -78.5 22 -76.15 22.5 -73.4 23 -70.9 25 -69.35 27 -67.75 29.6 -67.85 30.05 -68.35 30.45 -68.85
L 30.75 -69.25
Q 32.4 -69.05 33.8 -69.4 35.3 -70.55 36 -72.3 36.7 -74.05 36.35 -75.95 35.85 -78.7 33.5 -80.3 31.1 -81.9 28.2 -81.35 Z"/>
</g>

<g id="walrus_0_Layer2_1_MEMBER_1_MEMBER_0_MEMBER_5_MEMBER_2_MEMBER_0_FILL">
<path fill="#FFFFFF" stroke="none" d="
M 558.75 978
L 546.75 981 548.7 1031
Q 551.3 1081 554.75 1081 558.2 1081 558.8 1029.5
L 558.75 978 Z"/>
</g>

<g id="walrus_0_Layer2_1_MEMBER_1_MEMBER_0_MEMBER_5_MEMBER_2_MEMBER_1_FILL">
<path fill="#ABCCD6" stroke="none" d="
M 558.75 978
L 546.75 981 548.6 1029.4
Q 551.15 1078.3 554.45 1080.85 553.45 1070.65 552.3 1048.15 550.5 1012.5 551.1 985
L 553.7 984.85
Q 556.7 984.45 558.85 983.2
L 558.75 978 Z"/>
</g>

<g id="walrus_0_Layer2_1_MEMBER_1_MEMBER_0_MEMBER_5_MEMBER_3_MEMBER_0_FILL">
<path fill="#FFFFFF" stroke="none" d="
M 608.6 951.2
L 599 958.5 610.85 1006.05
Q 623.35 1053.4 626.7 1052.65 630.05 1051.95 619.65 1001.5
L 608.6 951.2 Z"/>
</g>

<g id="walrus_0_Layer2_1_MEMBER_1_MEMBER_0_MEMBER_5_MEMBER_3_MEMBER_1_FILL">
<path fill="#ABCCD6" stroke="none" d="
M 609.75 956.25
L 608.6 951.2 599 958.5 610.4 1004.5
Q 622.55 1050.8 626.3 1052.6 621.8 1037.9 617.45 1021.85 608.25 988.15 603 961.25 606.85 958.95 609.75 956.25 Z"/>
</g>

<g id="walrus_0_Layer2_1_MEMBER_1_MEMBER_0_MEMBER_5_MEMBER_4_FILL">
<path fill="#07191C" stroke="none" d="
M 21.65 -87.85
L 21.35 -88.15
Q 16.15 -86.5 12.2 -83.4 8.95 -80.9 6.8 -77.6 8.05 -75.05 10.6 -73.6 13.15 -72.2 16.1 -72.55 18.2 -72.8 20 -73.95 21.7 -75.1 22.8 -76.85 23.55 -75.5 24.95 -74.25 27 -72.4 30 -71.25 30 -70.1 29.6 -69.1 26.4 -64.25 19.9 -63.7 17.85 -63.55 15.75 -63.8
L 14 -64.15
Q 20.9 -61.35 26.5 -64.85 28.25 -65.95 29.65 -67.55
L 30.75 -68.9
Q 33.25 -68.5 34.7 -68.9 35.4 -69.1 35.6 -69.35 38.05 -70.85 38.95 -73.9 39.25 -74.85 39.35 -75.85
L 39.4 -76.65
Q 38.45 -71.85 35.5 -70.3 34.35 -69.65 32.8 -69.65 31.85 -69.65 31 -69.85 31.2 -70.55 31.25 -71.6 32.35 -72.65 33.25 -74.15 34.6 -76.3 35.3 -79.05
L 23.2 -77.6
Q 24.4 -80.05 24.05 -82.7 23.9 -84.2 23.2 -85.6
L 23.2 -85.65 22.4 -86.95 22.35 -87
Q 22.05 -87.4 21.65 -87.85 Z"/>
</g>

<g id="walrus_0_Layer2_1_MEMBER_1_MEMBER_0_MEMBER_5_MEMBER_5_MEMBER_0_FILL">
<path fill="#ABCCD6" stroke="none" d="
M 34.9 -93.7
Q 32.1 -95.85 28.65 -95.45 25.15 -95 23 -92.25 20.8 -89.5 21.25 -86 21.65 -82.5 24.4 -80.35 27.2 -78.2 30.65 -78.6 34.15 -79 36.3 -81.8 38.5 -84.55 38.05 -88.05 37.65 -91.5 34.9 -93.7 Z"/>
</g>

<g id="walrus_0_Layer2_1_MEMBER_1_MEMBER_0_MEMBER_5_MEMBER_5_MEMBER_1_FILL">
<path fill="#FFFFFF" stroke="none" d="
M 37.7 -89.55
L 37.65 -89.75
Q 36.7 -92.6 34.2 -94.15 31.65 -95.8 28.65 -95.45 26.45 -95.15 24.7 -93.9 23.55 -92.7 23 -91.1 22.4 -89.45 22.65 -87.7 23 -84.6 25.5 -82.65 27.95 -80.7 31.05 -81.1 34.2 -81.45 36.15 -83.95 38.05 -86.4 37.7 -89.55
M 32.5 -90.4
L 33.35 -89.05 32.05 -88.2 33.1 -86.7 31.3 -85.85 30.55 -87.3 29.4 -86.1 28 -87.55 29.7 -88.65 28.85 -90.15 30.25 -90.85 31.2 -89.55 32.5 -90.4 Z"/>

<path fill="#CC0000" stroke="none" d="
M 33.35 -89.05
L 32.5 -90.4 31.2 -89.55 30.25 -90.85 28.85 -90.15 29.7 -88.65 28 -87.55 29.4 -86.1 30.55 -87.3 31.3 -85.85 33.1 -86.7 32.05 -88.2 33.35 -89.05 Z"/>
</g>

<g id="walrus_0_Layer2_1_MEMBER_1_MEMBER_0_MEMBER_5_MEMBER_6_MEMBER_0_FILL">
<path fill="#000000" stroke="none" d="
M 551.05 923.7
Q 552.05 931.4 564.45 939.35 573.8 945.35 582.35 947.85
L 582.75 947.9
Q 583.25 947.9 583.55 947.65 589.15 943.6 594.4 938.15 604.8 927.35 605.85 918.45 606.6 912.05 602.3 907.05 600.6 905.15 597.1 904.1 593.6 903.1 588.7 903.1 581.25 903.1 573.3 905.3 565.3 907.5 559.05 911.3 550.15 916.65 551.05 923.7 Z"/>
</g>

<g id="walrus_0_Layer2_1_MEMBER_1_MEMBER_0_MEMBER_5_MEMBER_6_MEMBER_1_FILL">
<path fill="#738B8B" stroke="none" d="
M 560.7 911.85
Q 554.5 915.75 555.25 919.25 556 922.8 563.25 923.85 570.5 924.95 580 922.95 589.55 920.9 595.75 917.05 601.95 913.1 601.2 909.6 600.5 906.05 593.25 905 585.95 903.95 576.45 905.95 566.9 907.95 560.7 911.85 Z"/>
</g>

<g id="walrus_0_Layer2_1_MEMBER_1_MEMBER_0_MEMBER_5_MEMBER_6_MEMBER_2_FILL">
<path fill="#202828" stroke="none" d="
M 601 924.4
Q 602.2 921.4 602.2 919.05
L 602 917.25
Q 597.4 925.15 579.35 928.8 573.75 929.95 567.45 930.5
L 562.25 930.85
Q 566.55 937.15 575.15 942.35 579.45 944.95 582.9 946.25 597.15 934.05 601 924.4 Z"/>
</g>

<g id="walrus_0_Layer2_1_MEMBER_1_MEMBER_0_MEMBER_5_MEMBER_7_MEMBER_0_FILL">
<path fill="#ABCCD6" stroke="none" d="
M 13.65 -91.75
Q 9.9 -91.3 7.55 -88.35 5.2 -85.35 5.7 -81.6 6.1 -77.85 9.1 -75.55 12.05 -73.2 15.8 -73.65 19.6 -74.1 21.9 -77.05 24.25 -80.05 23.8 -83.8 23.35 -87.55 20.35 -89.9 17.4 -92.2 13.65 -91.75 Z"/>
</g>

<g id="walrus_0_Layer2_1_MEMBER_1_MEMBER_0_MEMBER_5_MEMBER_7_MEMBER_1_FILL">
<path fill="#FFFFFF" stroke="none" d="
M 21.7 -79.7
Q 23.8 -82.35 23.4 -85.7
L 23.35 -85.95
Q 22.3 -89 19.6 -90.7 16.85 -92.45 13.65 -92.05 11.25 -91.75 9.4 -90.4 8.15 -89.1 7.55 -87.4 6.95 -85.65 7.15 -83.75 7.55 -80.4 10.25 -78.3 12.9 -76.2 16.25 -76.65 19.6 -77.05 21.7 -79.7 Z"/>
</g>

<g id="walrus_0_Layer2_1_MEMBER_1_MEMBER_0_MEMBER_5_MEMBER_7_MEMBER_2_FILL">
<path fill="#CC0000" stroke="none" d="
M 16.6 -84
L 17.55 -85.6 15.9 -86.6 14.95 -85 13.25 -85.9 12.15 -84.4 13.9 -83.25 12.65 -81.2 14.85 -80.45 15.55 -82.25 17.05 -81.15 18.45 -83.05 16.6 -84 Z"/>
</g>

<g id="walrus_0_Layer1_0_FILL">
<path fill="#FF9999" stroke="none" d="
M -17.9 -50.4
Q -17.9 -50.75 -18.55 -49.75
L -24.55 -46.7 -16.2 -46.05 -13.25 -42 -12.2 -47.05 -7.5 -51.05 -12.85 -50.75 -15.2 -58.1 -17.9 -50.4
M -15.65 -51.55
Q -15.45 -51.75 -15.2 -51.75 -14.95 -51.75 -14.75 -51.55 -14.55 -51.3 -14.55 -51 -14.55 -50.7 -14.75 -50.5 -14.95 -50.25 -15.2 -50.25 -15.45 -50.25 -15.65 -50.5 -15.85 -50.7 -15.85 -51 -15.85 -51.3 -15.65 -51.55
M -13.45 -47.85
Q -13.45 -47.6 -13.6 -47.45 -13.75 -47.25 -14 -47.25 -14.25 -47.25 -14.4 -47.45 -14.55 -47.6 -14.55 -47.85 -14.55 -48.1 -14.4 -48.3 -14.25 -48.45 -14 -48.45 -13.75 -48.45 -13.6 -48.3 -13.45 -48.1 -13.45 -47.85
M -16.5 -48.25
Q -16.5 -48 -16.7 -47.85 -16.85 -47.65 -17.1 -47.65 -17.35 -47.65 -17.55 -47.85 -17.7 -48 -17.7 -48.25 -17.7 -48.5 -17.55 -48.7 -17.35 -48.85 -17.1 -48.85 -16.85 -48.85 -16.7 -48.7 -16.5 -48.5 -16.5 -48.25 Z"/>

<path fill="#000000" stroke="none" d="
M -16.7 -47.85
Q -16.5 -48 -16.5 -48.25 -16.5 -48.5 -16.7 -48.7 -16.85 -48.85 -17.1 -48.85 -17.35 -48.85 -17.55 -48.7 -17.7 -48.5 -17.7 -48.25 -17.7 -48 -17.55 -47.85 -17.35 -47.65 -17.1 -47.65 -16.85 -47.65 -16.7 -47.85
M -13.6 -47.45
Q -13.45 -47.6 -13.45 -47.85 -13.45 -48.1 -13.6 -48.3 -13.75 -48.45 -14 -48.45 -14.25 -48.45 -14.4 -48.3 -14.55 -48.1 -14.55 -47.85 -14.55 -47.6 -14.4 -47.45 -14.25 -47.25 -14 -47.25 -13.75 -47.25 -13.6 -47.45
M -15.2 -51.75
Q -15.45 -51.75 -15.65 -51.55 -15.85 -51.3 -15.85 -51 -15.85 -50.7 -15.65 -50.5 -15.45 -50.25 -15.2 -50.25 -14.95 -50.25 -14.75 -50.5 -14.55 -50.7 -14.55 -51 -14.55 -51.3 -14.75 -51.55 -14.95 -51.75 -15.2 -51.75
M 42.55 -19.7
Q 42.75 -19.85 42.75 -20.05 42.75 -20.25 42.55 -20.4 42.4 -20.55 42.15 -20.55 41.9 -20.55 41.7 -20.4 41.55 -20.25 41.55 -20.05 41.55 -19.85 41.7 -19.7 41.9 -19.55 42.15 -19.55 42.4 -19.55 42.55 -19.7
M 40 -19.3
Q 40.2 -19.55 40.2 -19.9 40.2 -20.25 40 -20.5 39.85 -20.75 39.6 -20.75 39.35 -20.75 39.15 -20.5 39 -20.25 39 -19.9 39 -19.55 39.15 -19.3 39.35 -19.05 39.6 -19.05 39.85 -19.05 40 -19.3
M 39.45 -22.35
Q 39.45 -21.95 39.7 -21.7 39.95 -21.4 40.3 -21.4 40.65 -21.4 40.9 -21.7 41.15 -21.95 41.15 -22.35 41.15 -22.75 40.9 -23.05 40.65 -23.3 40.3 -23.3 39.95 -23.3 39.7 -23.05 39.45 -22.75 39.45 -22.35 Z"/>

<path fill="#FF3354" stroke="none" d="
M 34.3 -15.9
L 40.1 -18.65 45.1 -16.35 45.05 -21.75
Q 42.6 -21.35 42.4 -22.2
L 43.75 -26.8 39.55 -24.35 35.75 -27.05 37.85 -21.7 34.3 -15.9
M 39.7 -21.7
Q 39.45 -21.95 39.45 -22.35 39.45 -22.75 39.7 -23.05 39.95 -23.3 40.3 -23.3 40.65 -23.3 40.9 -23.05 41.15 -22.75 41.15 -22.35 41.15 -21.95 40.9 -21.7 40.65 -21.4 40.3 -21.4 39.95 -21.4 39.7 -21.7
M 40.2 -19.9
Q 40.2 -19.55 40 -19.3 39.85 -19.05 39.6 -19.05 39.35 -19.05 39.15 -19.3 39 -19.55 39 -19.9 39 -20.25 39.15 -20.5 39.35 -20.75 39.6 -20.75 39.85 -20.75 40 -20.5 40.2 -20.25 40.2 -19.9
M 42.75 -20.05
Q 42.75 -19.85 42.55 -19.7 42.4 -19.55 42.15 -19.55 41.9 -19.55 41.7 -19.7 41.55 -19.85 41.55 -20.05 41.55 -20.25 41.7 -20.4 41.9 -20.55 42.15 -20.55 42.4 -20.55 42.55 -20.4 42.75 -20.25 42.75 -20.05 Z"/>
</g>

<g id="walrus_0_Layer0_0_FILL">
<path fill="url(#Gradient_2)" stroke="none" d="
M -76.6 -51.6
L -76.6 -52.3 -77.45 -51.5 -77.45 -51.45
Q -77 -51.8 -76.6 -51.6 Z"/>

<path fill="url(#Gradient_3)" stroke="none" d="
M -85.45 -54.75
Q -87.6 -50.05 -86.85 -49.7 -86.25 -49.8 -85.95 -49.4 -85.45 -48.9 -85.45 -47.45 -85.45 -45.6 -85.25 -44.95 -85.2 -44.85 -85.2 -44.8 -84.05 -42.65 -83 -45.85
L -83.05 -47.55 -82.6 -48.35 -82.6 -49.5
Q -81.8 -50.1 -81.6 -49.45
L -81.6 -48.05 -81.95 -47.45 -82 -43.55 -81.1 -42.75 -81.1 -42 -81.8 -41.5 -81.7 -40.55
Q -80.25 -39.15 -78.9 -41.1
L -78.95 -41.5 -79 -43.7 -78.55 -45.2 -78.75 -46.7 -78.75 -48.15 -78.45 -50.55 -77.5 -51.45 -77.45 -51.5 -76.6 -52.3 -76.6 -53.1
Q -82.8 -52.75 -85.45 -54.75
M -85 -50.1
L -86.05 -50.45
Q -86.1369140625 -50.45 -86.25 -50.45
L -85.95 -50.55
Q -87 -53.5 -78.35 -52.25
L -78.35 -51.25 -79 -51.2 -79.7 -50.65 -79.8 -49.25 -79.5 -47.95 -80 -47 -79.15 -46.2 -80.2 -45 -79.8 -43.2 -79.8 -41.6 -80.45 -41.15 -80.45 -42.35 -80.65 -43.4 -81.35 -44.6 -80.95 -45.65 -81.3 -46.2 -80.85 -47.05 -81.4 -47.1 -80.95 -48.45 -80.85 -49.8
Q -81.8 -50.3 -82.15 -50.3
L -82.2 -50.25
Q -83 -49.85 -83.25 -49.95 -82.85 -48.8 -83.65 -47.05
L -83.95 -47
Q -84.2 -46.85 -84.4 -46.8
L -84.4 -46.9 -84.5 -46.9
Q -84.05 -48.6 -85 -50.1 Z"/>

<path fill="#F1F4F9" stroke="none" d="
M -86.05 -50.45
L -85 -50.1
Q -84.05 -48.6 -84.5 -46.9
L -84.4 -46.9 -84.4 -46.8
Q -84.2 -46.85 -83.95 -47
L -83.65 -47.05
Q -82.85 -48.8 -83.25 -49.95 -83 -49.85 -82.2 -50.25
L -82.15 -50.3
Q -81.8 -50.3 -80.85 -49.8
L -80.95 -48.45 -81.4 -47.1 -80.85 -47.05 -81.3 -46.2 -80.95 -45.65 -81.35 -44.6 -80.65 -43.4 -80.45 -42.35 -80.45 -41.15 -79.8 -41.6 -79.8 -43.2 -80.2 -45 -79.15 -46.2 -80 -47 -79.5 -47.95 -79.8 -49.25 -79.7 -50.65 -79 -51.2 -78.35 -51.25 -78.35 -52.25
Q -87 -53.5 -85.95 -50.55
L -86.25 -50.45
Q -86.1369140625 -50.45 -86.05 -50.45
M -3.45 -19.35
L -3.8 -19.35 -3.8 -18.2 -3.45 -17.9
Q -3 -18.65 -3.45 -19.35
M -6.4 -24.8
L -6.95 -24.85 -8.3 -23.5
Q -7.45 -23.6 -6.8 -23.4
L -5.85 -23.05
Q -4.55 -21.2 -3.45 -25.3 -4.9 -23.5 -6.4 -24.8
M 8.3 -21.4
L 8.35 -21.4 8.15 -21.5
Q 9.25 -24.55 0.5 -23.25
L 0.5 -22.25 1.2 -22.2 1.85 -21.6 2 -20.15 1.7 -18.85 2.2 -17.85 1.35 -17 2.35 -15.75 2 -13.9 2 -12.25 2.65 -11.75 2.65 -13 2.85 -14.1 3.55 -15.35 3.15 -16.45 3.5 -17 3.05 -17.9 3.6 -17.95 3.15 -19.35 3.05 -20.75
Q 4 -21.25 4.35 -21.25
L 4.4 -21.2
Q 5.2 -20.8 5.45 -20.9 5.05 -19.7 5.9 -17.9
L 6.2 -17.85
Q 6.4 -17.7 6.6 -17.6
L 6.6 -17.75 6.7 -17.75
Q 6.25 -19.5 7.2 -21.05
L 8.3 -21.4
M 19.75 -77.95
L 19.2 -77.9
Q 17.72421875 -76.633203125 16.25 -76.35 17.35 -74.45 18.65 -76.25
L 19.6 -76.6
Q 20.25 -76.75 21.1 -76.65
L 19.75 -77.95
M 9.8 -76.05
L 9.85 -76.2 10.35 -76.2 10.7 -76.2 10.5 -76.65 12.4 -76.75 12.1 -76.9 13.15 -76.85
Q 12.67265625 -77.105078125 12.2 -77.45
L 8.3 -77.2
Q 9 -76.65 8.65 -75
L 9.4 -76 9.8 -76.05
M 9.4 -73.45
L 8.9 -72.9
Q 8.45 -72.55 8.85 -72.15
L 9.35 -71.75 9.4 -73.45
M 16.3 -72.65
Q 15.8 -72 16.25 -71.25
L 16.6 -71.55 16.65 -72.65 16.3 -72.65 Z"/>

<path fill="url(#Gradient_4)" stroke="none" d="
M -0.4 -22.45
L -0.4 -22.5 -1.25 -23.35 -1.25 -22.6
Q -1.2 -22.65 -1.1 -22.65 -0.75 -22.75 -0.4 -22.45 Z"/>

<path fill="url(#Gradient_5)" stroke="none" d="
M -6.95 -24.85
L -6.4 -24.8
Q -6.95 -24.95 -7.45 -25.05
L -8.8 -23.4
Q -8.3 -22.95 -8.15 -22.95 -7.65 -23.05 -7.3 -22.15 -7.1 -21.65 -7.05 -21.25 -7.7 -20.15 -6.95 -19.4
L -7.25 -18.6
Q -7.25 -17.9 -6.6 -17.75
L -6.3 -16.1
Q -5.85 -15.75 -5.7 -16.2
L -5.75 -18.6
Q -5.25 -18.55 -5 -19.4
L -5 -20.5 -4.6 -21.25
Q -3.6 -21.15 -3.8 -20.15 -4.45 -18.85 -3.95 -17.4 -4.7 -17 -4 -15.15 -1.95 -13.9 -1.55 -16.15
L -1.75 -17.05
Q -1.15 -17.65 -1.95 -18.35 -1 -20.8 -1.65 -21.5
L -1.25 -21.9 -1.1 -22.65
Q -1.2 -22.65 -1.25 -22.6
L -1.25 -23.35 -1.25 -23.65 -2 -23.6 -3.45 -25.3
Q -4.55 -21.2 -5.85 -23.05
L -6.8 -23.4
Q -7.45 -23.6 -8.3 -23.5
L -6.95 -24.85
M -2.6 -22.6
L -2.55 -22.15 -2.35 -21.25 -2.6 -21.1 -2.4 -20.5 -2.55 -20.1 -2.35 -19.4 -2.7 -18.45 -2.7 -17.75 -2.4 -17.75 -2.35 -17.5 -2.1 -16.9 -2.5 -16.85 -2.2 -16.45 -2.35 -16.05 -2.2 -15.6 -2.7 -15.65 -2.7 -15.75 -3.2 -16.15 -2.85 -16.65 -3 -17.1 -3 -17.5 -3.05 -17.6 -2.9 -19.55 -3.45 -20.15 -3 -20.95 -3.3 -21.6 -3.15 -22.6 -2.6 -22.6
M -3.8 -19.35
L -3.45 -19.35
Q -3 -18.65 -3.45 -17.9
L -3.8 -18.2 -3.8 -19.35
M -6.65 -22.05
L -6.6 -23.05 -6.25 -23.05 -6 -21.75 -6.2 -21.5 -6 -20.95 -6.1 -20.5 -5.95 -19.85 -6.15 -18.85 -6.15 -17.75 -6.4 -18.1 -6.3 -20 -6.75 -20.65 -6.45 -21.4 -6.65 -22.05 Z"/>

<path fill="#82BAD3" stroke="none" d="
M -6.6 -23.05
L -6.65 -22.05 -6.45 -21.4 -6.75 -20.65 -6.3 -20 -6.4 -18.1 -6.15 -17.75 -6.15 -18.85 -5.95 -19.85 -6.1 -20.5 -6 -20.95 -6.2 -21.5 -6 -21.75 -6.25 -23.05 -6.6 -23.05
M -2.55 -22.15
L -2.6 -22.6 -3.15 -22.6 -3.3 -21.6 -3 -20.95 -3.45 -20.15 -2.9 -19.55 -3.05 -17.6 -3 -17.5 -3 -17.1 -2.85 -16.65 -3.2 -16.15 -2.7 -15.75 -2.7 -15.65 -2.2 -15.6 -2.35 -16.05 -2.2 -16.45 -2.5 -16.85 -2.1 -16.9 -2.35 -17.5 -2.4 -17.75 -2.7 -17.75 -2.7 -18.45 -2.35 -19.4 -2.55 -20.1 -2.4 -20.5 -2.6 -21.1 -2.35 -21.25 -2.55 -22.15
M 9.85 -76.2
L 9.8 -76.05 9.65 -75.25 9.9 -74.6 9.45 -73.9 9.9 -73.2 9.65 -71.45 9.75 -71.35 9.65 -70.9 9.9 -70.45 9.45 -70 9.95 -69.55 9.7 -68.3 10.1 -67.95 10.05 -68.25 10.1 -68.75 10.5 -69.4 10.35 -69.85 10.55 -70.15 10.25 -70.55 10.6 -70.65 10.35 -71.25 10.35 -71.55 10.05 -71.6 10.1 -72.1 10.5 -73.05 10.3 -73.7 10.5 -74.1 10.3 -74.7 10.6 -74.85 10.35 -75.65 10.35 -76.2 9.85 -76.2
M 19.25 -74.65
L 19.45 -75.25 19.4 -76.2 19.05 -76.2 18.8 -74.95 19 -74.75 18.8 -74.2 18.9 -73.8 18.75 -73.15 18.95 -72.2 18.95 -71.1 19.2 -71.5 19.1 -73.3 19.55 -73.9 19.25 -74.65
M 15.4 -75.4
L 15.2 -74.5 15.45 -74.35 15.25 -73.8 15.4 -73.4 15.2 -72.75 15.55 -71.8 15.55 -71.15 15.25 -71.15 15.2 -70.9 14.95 -70.3 15.3 -70.25 15.05 -69.85 15.2 -69.5 15 -69.05 15.55 -69.1 15.55 -69.2 16.05 -69.6 15.65 -70.1 15.85 -70.5 15.85 -70.9 15.9 -71 15.75 -72.9 16.3 -73.45 15.85 -74.2 16.1 -74.8 16 -75.8 15.45 -75.8 15.4 -75.4 Z"/>

<path fill="url(#Gradient_6)" stroke="none" d="
M 8.15 -20.3
Q 8.5 -20.75 9.1 -20.65 9.85 -21 7.7 -25.9 5 -26.8 -1.25 -24.15
L -1.25 -23.65 -1.25 -23.35 -0.4 -22.5 -0.35 -22.45 0.6 -21.5 0.9 -19 0.75 -15.95 1.2 -14.4 1.05 -11.7
Q 2.45 -9.7 3.9 -11.15
L 4 -12.1 3.3 -12.65 3.3 -13.4 4.2 -14.25 4.15 -18.3 3.8 -18.9 3.8 -20.35
Q 4 -21.05 4.8 -20.45
L 4.8 -19.2 5.25 -18.4 5.2 -16.65
Q 6.25 -13.35 7.45 -15.55 7.45 -15.6 7.5 -15.7 7.7 -16.4 7.7 -18.3 7.7 -19.8 8.15 -20.3
M 8.35 -21.4
L 8.3 -21.4 7.2 -21.05
Q 6.25 -19.5 6.7 -17.75
L 6.6 -17.75 6.6 -17.6
Q 6.4 -17.7 6.2 -17.85
L 5.9 -17.9
Q 5.05 -19.7 5.45 -20.9 5.2 -20.8 4.4 -21.2
L 4.35 -21.25
Q 4 -21.25 3.05 -20.75
L 3.15 -19.35 3.6 -17.95 3.05 -17.9 3.5 -17 3.15 -16.45 3.55 -15.35 2.85 -14.1 2.65 -13 2.65 -11.75 2 -12.25 2 -13.9 2.35 -15.75 1.35 -17 2.2 -17.85 1.7 -18.85 2 -20.15 1.85 -21.6 1.2 -22.2 0.5 -22.25 0.5 -23.25
Q 9.25 -24.55 8.15 -21.5
L 8.35 -21.4 Z"/>

<path fill="url(#Gradient_7)" stroke="none" d="
M 8.6 -77.7
L 8.35 -77.7
Q 8.25 -77.7 8.2 -77.7 7.95 -77.7 7.7 -77.75
L 7.7 -77.15 8.6 -77.7 Z"/>

<path fill="url(#Gradient_8)" stroke="none" d="
M 21.6 -76.55
L 20.25 -78.15
Q 19.75 -78.05 19.2 -77.9
L 19.75 -77.95 21.1 -76.65
Q 20.25 -76.75 19.6 -76.6
L 18.65 -76.25
Q 17.35 -74.45 16.25 -76.35
L 14.85 -76.8 13.15 -76.85 12.1 -76.9 12.4 -76.75 10.5 -76.65 10.7 -76.2 10.35 -76.2 10.35 -75.65 10.6 -74.85 10.3 -74.7 10.5 -74.1 10.3 -73.7 10.5 -73.05 10.1 -72.1 10.05 -71.6 10.35 -71.55 10.35 -71.25 10.6 -70.65 10.25 -70.55 10.55 -70.15 10.35 -69.85 10.5 -69.4 10.1 -68.75 10.05 -68.25 10.1 -67.95 9.7 -68.3 9.95 -69.55 9.45 -70 9.9 -70.45 9.65 -70.9 9.75 -71.35 9.65 -71.45 9.9 -73.2 9.45 -73.9 9.9 -74.6 9.65 -75.25 9.8 -76.05 9.4 -76 8.65 -75
Q 9 -76.65 8.3 -77.2
L 12.2 -77.45
Q 10.5 -77.5 8.6 -77.7
L 7.7 -77.15 7.65 -76.65
Q 8.4 -76.15 8.5 -73.65
L 8.4 -73.2
Q 7.6 -72.45 8.6 -71.65 8.2 -70.7 9.15 -69.75 8.6 -68.85 9.45 -67.95
L 9.3 -66.65
Q 9.45 -66.2 10.5 -66.4 11.4 -66.65 11.05 -67.7 12.05 -68.5 11.4 -69.45 12.4 -70.4 10.85 -71.55
L 11.1 -72.15
Q 11.85 -72.85 11.05 -73.45 11.85 -74.35 11.4 -75.25
L 12.5 -75.25 12.75 -76.45
Q 13.35 -76.75 13.9 -76.45
L 14.1 -75.1 14.5 -74.75
Q 13.85 -74.05 14.8 -71.7 14 -71.05 14.6 -70.45
L 14.4 -69.6
Q 14.8 -67.4 16.85 -68.6 17.5 -70.4 16.8 -70.8 17.3 -72.15 16.6 -73.45 16.4 -74.4 17.45 -74.5
L 17.8 -73.75 17.8 -72.75
Q 18.05 -71.9 18.55 -71.95
L 18.5 -69.65
Q 18.65 -69.2 19.1 -69.55
L 19.4 -71.1
Q 20.05 -71.25 20.05 -71.95
L 19.75 -72.75
Q 20.5 -73.45 19.85 -74.5 19.9 -74.9 20.1 -75.35 20.45 -76.2 20.95 -76.15 21.05 -76.15 21.6 -76.55
M 15.2 -74.5
L 15.4 -75.4 15.45 -75.8 16 -75.8 16.1 -74.8 15.85 -74.2 16.3 -73.45 15.75 -72.9 15.9 -71 15.85 -70.9 15.85 -70.5 15.65 -70.1 16.05 -69.6 15.55 -69.2 15.55 -69.1 15 -69.05 15.2 -69.5 15.05 -69.85 15.3 -70.25 14.95 -70.3 15.2 -70.9 15.25 -71.15 15.55 -71.15 15.55 -71.8 15.2 -72.75 15.4 -73.4 15.25 -73.8 15.45 -74.35 15.2 -74.5
M 19.45 -75.25
L 19.25 -74.65 19.55 -73.9 19.1 -73.3 19.2 -71.5 18.95 -71.1 18.95 -72.2 18.75 -73.15 18.9 -73.8 18.8 -74.2 19 -74.75 18.8 -74.95 19.05 -76.2 19.4 -76.2 19.45 -75.25
M 16.25 -71.25
Q 15.8 -72 16.3 -72.65
L 16.65 -72.65 16.6 -71.55 16.25 -71.25
M 8.9 -72.9
L 9.4 -73.45 9.35 -71.75 8.85 -72.15
Q 8.45 -72.55 8.9 -72.9 Z"/>
</g>

<path id="walrus_0_Layer2_1_MEMBER_1_MEMBER_0_MEMBER_5_MEMBER_5_MEMBER_0_1_STROKES" stroke="#00080E" stroke-width="1" stroke-linejoin="round" stroke-linecap="round" fill="none" d="
M 34.9 -93.7
Q 37.65 -91.5 38.05 -88.05 38.5 -84.55 36.3 -81.8 34.15 -79 30.65 -78.6 27.2 -78.2 24.4 -80.35 21.65 -82.5 21.25 -86 20.8 -89.5 23 -92.25 25.15 -95 28.65 -95.45 32.1 -95.85 34.9 -93.7 Z"/>

<path id="walrus_0_Layer2_1_MEMBER_1_MEMBER_0_MEMBER_5_MEMBER_7_MEMBER_0_1_STROKES" stroke="#00080E" stroke-width="1" stroke-linejoin="round" stroke-linecap="round" fill="none" d="
M 13.65 -91.75
Q 17.4 -92.2 20.35 -89.9 23.35 -87.55 23.8 -83.8 24.25 -80.05 21.9 -77.05 19.6 -74.1 15.8 -73.65 12.05 -73.2 9.1 -75.55 6.1 -77.85 5.7 -81.6 5.2 -85.35 7.55 -88.35 9.9 -91.3 13.65 -91.75 Z"/>

<path id="walrus_0_Layer0_0_1_STROKES" stroke="#3D99D7" stroke-width="1" stroke-linejoin="round" stroke-linecap="round" fill="none" d="
M 7.65 -76.65
Q 8.4 -76.15 8.5 -73.65
L 8.4 -73.2
Q 7.6 -72.45 8.6 -71.65 8.2 -70.7 9.15 -69.75 8.6 -68.85 9.45 -67.95
L 9.3 -66.65
Q 9.45 -66.2 10.5 -66.4 11.4 -66.65 11.05 -67.7 12.05 -68.5 11.4 -69.45 12.4 -70.4 10.85 -71.55
L 11.1 -72.15
Q 11.85 -72.85 11.05 -73.45 11.85 -74.35 11.4 -75.25
L 12.5 -75.25 12.75 -76.45
Q 13.35 -76.75 13.9 -76.45
L 14.1 -75.1 14.5 -74.75
Q 13.85 -74.05 14.8 -71.7 14 -71.05 14.6 -70.45
L 14.4 -69.6
Q 14.8 -67.4 16.85 -68.6 17.5 -70.4 16.8 -70.8 17.3 -72.15 16.6 -73.45 16.4 -74.4 17.45 -74.5
L 17.8 -73.75 17.8 -72.75
Q 18.05 -71.9 18.55 -71.95
L 18.5 -69.65
Q 18.65 -69.2 19.1 -69.55
L 19.4 -71.1
Q 20.05 -71.25 20.05 -71.95
L 19.75 -72.75
Q 20.5 -73.45 19.85 -74.5 19.9 -74.9 20.1 -75.35 20.45 -76.2 20.95 -76.15 21.05 -76.15 21.6 -76.55
M 7.7 -25.9
Q 9.85 -21 9.1 -20.65 8.5 -20.75 8.15 -20.3 7.7 -19.8 7.7 -18.3 7.7 -16.4 7.5 -15.7
L 7.6 -15.7 7.45 -15.5 7.45 -15.55
Q 6.25 -13.35 5.2 -16.65
L 5.25 -18.4 4.8 -19.2 4.8 -20.45
Q 4 -21.05 3.8 -20.35
L 3.8 -18.9 4.15 -18.3 4.2 -14.25 3.3 -13.4 3.3 -12.65 4 -12.1 3.9 -11.15
Q 2.45 -9.7 1.05 -11.7
L 1.2 -14.4 0.75 -15.95 0.9 -19 0.6 -21.5 -0.35 -22.45
M -0.4 -22.45
Q -0.75 -22.75 -1.1 -22.65
L -1.25 -21.9 -1.65 -21.5
Q -1 -20.8 -1.95 -18.35 -1.15 -17.65 -1.75 -17.05
L -1.55 -16.15
Q -1.95 -13.9 -4 -15.15 -4.7 -17 -3.95 -17.4 -4.45 -18.85 -3.8 -20.15 -3.6 -21.15 -4.6 -21.25
L -5 -20.5 -5 -19.4
Q -5.25 -18.55 -5.75 -18.6
L -5.7 -16.2
Q -5.85 -15.75 -6.3 -16.1
L -6.6 -17.75
Q -7.25 -17.9 -7.25 -18.6
L -6.95 -19.4
Q -7.7 -20.15 -7.05 -21.25 -7.1 -21.65 -7.3 -22.15 -7.65 -23.05 -8.15 -22.95 -8.3 -22.95 -8.8 -23.4
M 7.5 -15.7
Q 7.45 -15.6 7.45 -15.55
M -85.45 -54.75
Q -87.6 -50.05 -86.85 -49.7 -86.25 -49.8 -85.95 -49.4 -85.45 -48.9 -85.45 -47.45 -85.45 -45.6 -85.25 -44.95 -85.2 -44.85 -85.2 -44.8 -84.05 -42.65 -83 -45.85
L -83.05 -47.55 -82.6 -48.35 -82.6 -49.5
Q -81.8 -50.1 -81.6 -49.45
L -81.6 -48.05 -81.95 -47.45 -82 -43.55 -81.1 -42.75 -81.1 -42 -81.8 -41.5 -81.7 -40.55
Q -80.25 -39.15 -78.9 -41.1
L -78.95 -41.5 -79 -43.7 -78.55 -45.2 -78.75 -46.7 -78.75 -48.15 -78.45 -50.55 -77.5 -51.45
M -1.1 -22.65
Q -1.2 -22.65 -1.25 -22.6"/>

<path id="walrus_0_Layer0_0_2_STROKES" stroke="#125887" stroke-width="1" stroke-linejoin="round" stroke-linecap="round" fill="none" d="
M -77.45 -51.45
Q -77 -51.8 -76.6 -51.6"/>

<path id="walrus_0_Layer0_0_3_STROKES" stroke="#1881C3" stroke-width="1" stroke-linejoin="round" stroke-linecap="round" fill="none" d="
M -85.2 -44.8
L -85.2 -44.75 -85.35 -44.95 -85.25 -44.95"/>
</defs>

<g transform="matrix( 2.6429443359375, 0, 0, 2.6429443359375, 307.9,403.75) ">
<g transform="matrix( 0.2760467529296875, 0, 0, 0.2760467529296875, -130.4,-334.1) ">
<use xlink:href="#walrus_0_Layer2_0_MEMBER_0_MEMBER_0_FILL"/>
</g>

<g transform="matrix( 0.2760467529296875, 0, 0, 0.2760467529296875, -130.4,-334.1) ">
<use xlink:href="#walrus_0_Layer2_0_MEMBER_0_MEMBER_1_FILL"/>
</g>

<g transform="matrix( 0.2760467529296875, 0, 0, 0.2760467529296875, -130.4,-334.1) ">
<use xlink:href="#walrus_0_Layer2_0_MEMBER_0_MEMBER_2_FILL"/>
</g>

<g transform="matrix( 0.2760467529296875, 0, 0, 0.2760467529296875, -130.4,-334.1) ">
<use xlink:href="#walrus_0_Layer2_0_MEMBER_0_MEMBER_3_FILL"/>
</g>

<g transform="matrix( 0.2760467529296875, 0, 0, 0.2760467529296875, -130.4,-334.1) ">
<use xlink:href="#walrus_0_Layer2_0_MEMBER_0_MEMBER_4_FILL"/>
</g>

<g transform="matrix( 0.2760467529296875, 0, 0, 0.2760467529296875, -130.4,-334.1) ">
<use xlink:href="#walrus_0_Layer2_0_MEMBER_0_MEMBER_5_FILL"/>
</g>

<g transform="matrix( 0.2760467529296875, 0, 0, 0.2760467529296875, -130.4,-334.1) ">
<use xlink:href="#walrus_0_Layer2_0_MEMBER_0_MEMBER_6_FILL"/>
</g>

<g transform="matrix( 0.2760467529296875, 0, 0, 0.2760467529296875, -130.4,-334.1) ">
<use xlink:href="#walrus_0_Layer2_0_MEMBER_1_FILL"/>
</g>

<g transform="matrix( 0.2760467529296875, 0, 0, 0.2760467529296875, -130.4,-334.1) ">
<use xlink:href="#walrus_0_Layer2_0_MEMBER_2_FILL"/>
</g>

<g transform="matrix( 0.2760467529296875, 0, 0, 0.2760467529296875, -130.4,-334.1) ">
<use xlink:href="#walrus_0_Layer2_0_MEMBER_3_FILL"/>
</g>

<g transform="matrix( 0.2760467529296875, 0, 0, 0.2760467529296875, -130.4,-334.1) ">
<use xlink:href="#walrus_0_Layer2_0_MEMBER_4_MEMBER_0_FILL"/>
</g>

<g transform="matrix( 0.2760467529296875, 0, 0, 0.2760467529296875, -130.4,-334.1) ">
<use xlink:href="#walrus_0_Layer2_0_MEMBER_4_MEMBER_1_FILL"/>
</g>

<g transform="matrix( 0.2760467529296875, 0, 0, 0.2760467529296875, -130.4,-334.1) ">
<use xlink:href="#walrus_0_Layer2_0_MEMBER_4_MEMBER_2_FILL"/>
</g>

<g transform="matrix( 0.2760467529296875, 0, 0, 0.2760467529296875, -130.4,-334.1) ">
<use xlink:href="#walrus_0_Layer2_0_MEMBER_4_MEMBER_3_FILL"/>
</g>

<g transform="matrix( 0.2760467529296875, 0, 0, 0.2760467529296875, -130.4,-334.1) ">
<use xlink:href="#walrus_0_Layer2_1_MEMBER_0_MEMBER_0_MEMBER_0_MEMBER_0_FILL"/>
</g>

<g transform="matrix( 0.2760467529296875, 0, 0, 0.2760467529296875, -130.4,-334.1) ">
<use xlink:href="#walrus_0_Layer2_1_MEMBER_0_MEMBER_0_MEMBER_0_MEMBER_1_FILL"/>
</g>

<g transform="matrix( 0.2760467529296875, 0, 0, 0.2760467529296875, -130.4,-334.1) ">
<use xlink:href="#walrus_0_Layer2_1_MEMBER_0_MEMBER_0_MEMBER_0_MEMBER_2_FILL"/>
</g>

<g transform="matrix( 0.2760467529296875, 0, 0, 0.2760467529296875, -130.4,-334.1) ">
<use xlink:href="#walrus_0_Layer2_1_MEMBER_0_MEMBER_0_MEMBER_1_MEMBER_0_FILL"/>
</g>

<g transform="matrix( 0.2760467529296875, 0, 0, 0.2760467529296875, -130.4,-334.1) ">
<use xlink:href="#walrus_0_Layer2_1_MEMBER_0_MEMBER_0_MEMBER_1_MEMBER_1_FILL"/>
</g>

<g transform="matrix( 0.2760467529296875, 0, 0, 0.2760467529296875, -130.4,-334.1) ">
<use xlink:href="#walrus_0_Layer2_1_MEMBER_0_MEMBER_0_MEMBER_1_MEMBER_2_FILL"/>
</g>

<g transform="matrix( 0.2760467529296875, 0, 0, 0.2760467529296875, -130.4,-334.1) ">
<use xlink:href="#walrus_0_Layer2_1_MEMBER_0_MEMBER_0_MEMBER_1_MEMBER_3_FILL"/>
</g>

<g transform="matrix( 0.2760467529296875, 0, 0, 0.2760467529296875, -130.4,-334.1) ">
<use xlink:href="#walrus_0_Layer2_1_MEMBER_0_MEMBER_0_MEMBER_1_MEMBER_4_FILL"/>
</g>

<g transform="matrix( 0.2760467529296875, 0, 0, 0.2760467529296875, -130.4,-334.1) ">
<use xlink:href="#walrus_0_Layer2_1_MEMBER_0_MEMBER_0_MEMBER_1_MEMBER_5_FILL"/>
</g>

<g transform="matrix( 0.2760467529296875, 0, 0, 0.2760467529296875, -130.4,-334.1) ">
<use xlink:href="#walrus_0_Layer2_1_MEMBER_0_MEMBER_0_MEMBER_2_FILL"/>
</g>

<g transform="matrix( 0.2760467529296875, 0, 0, 0.2760467529296875, -130.4,-334.1) ">
<use xlink:href="#walrus_0_Layer2_1_MEMBER_0_MEMBER_0_MEMBER_3_FILL"/>
</g>

<g transform="matrix( 0.2760467529296875, 0, 0, 0.2760467529296875, -130.4,-334.1) ">
<use xlink:href="#walrus_0_Layer2_1_MEMBER_0_MEMBER_0_MEMBER_4_MEMBER_0_FILL"/>
</g>

<g transform="matrix( 0.2760467529296875, 0, 0, 0.2760467529296875, -130.4,-334.1) ">
<use xlink:href="#walrus_0_Layer2_1_MEMBER_0_MEMBER_0_MEMBER_4_MEMBER_1_FILL"/>
</g>

<g transform="matrix( 0.2760467529296875, 0, 0, 0.2760467529296875, -130.4,-334.1) ">
<use xlink:href="#walrus_0_Layer2_1_MEMBER_0_MEMBER_0_MEMBER_4_MEMBER_2_FILL"/>
</g>

<g transform="matrix( 0.2760467529296875, 0, 0, 0.2760467529296875, -130.4,-334.1) ">
<use xlink:href="#walrus_0_Layer2_1_MEMBER_0_MEMBER_0_MEMBER_4_MEMBER_3_FILL"/>
</g>

<g transform="matrix( 0.2760467529296875, 0, 0, 0.2760467529296875, -130.4,-334.1) ">
<use xlink:href="#walrus_0_Layer2_1_MEMBER_0_MEMBER_0_MEMBER_4_MEMBER_4_MEMBER_0_FILL"/>
</g>

<g transform="matrix( 0.2760467529296875, 0, 0, 0.2760467529296875, -130.4,-334.1) ">
<use xlink:href="#walrus_0_Layer2_1_MEMBER_0_MEMBER_0_MEMBER_4_MEMBER_4_MEMBER_1_FILL"/>
</g>

<g transform="matrix( 0.2760467529296875, 0, 0, 0.2760467529296875, -130.4,-334.1) ">
<use xlink:href="#walrus_0_Layer2_1_MEMBER_0_MEMBER_0_MEMBER_4_MEMBER_4_MEMBER_2_FILL"/>
</g>

<g transform="matrix( 0.2760467529296875, 0, 0, 0.2760467529296875, -130.4,-334.1) ">
<use xlink:href="#walrus_0_Layer2_1_MEMBER_0_MEMBER_0_MEMBER_4_MEMBER_4_MEMBER_3_FILL"/>
</g>

<g transform="matrix( 0.2760467529296875, 0, 0, 0.2760467529296875, -130.4,-334.1) ">
<use xlink:href="#walrus_0_Layer2_1_MEMBER_0_MEMBER_0_MEMBER_4_MEMBER_4_MEMBER_4_FILL"/>
</g>

<g transform="matrix( 0.2760467529296875, 0, 0, 0.2760467529296875, -130.4,-334.1) ">
<use xlink:href="#walrus_0_Layer2_1_MEMBER_0_MEMBER_0_MEMBER_4_MEMBER_4_MEMBER_5_FILL"/>
</g>

<g transform="matrix( 0.2760467529296875, 0, 0, 0.2760467529296875, -130.4,-334.1) ">
<use xlink:href="#walrus_0_Layer2_1_MEMBER_0_MEMBER_0_MEMBER_4_MEMBER_4_MEMBER_6_FILL"/>
</g>

<g transform="matrix( 0.2760467529296875, 0, 0, 0.2760467529296875, -130.4,-334.1) ">
<use xlink:href="#walrus_0_Layer2_1_MEMBER_0_MEMBER_0_MEMBER_4_MEMBER_4_MEMBER_7_FILL"/>
</g>

<g transform="matrix( 0.2760467529296875, 0, 0, 0.2760467529296875, -130.4,-334.1) ">
<use xlink:href="#walrus_0_Layer2_1_MEMBER_0_MEMBER_0_MEMBER_4_MEMBER_4_MEMBER_8_FILL"/>
</g>

<g transform="matrix( 0.2760467529296875, 0, 0, 0.2760467529296875, -130.4,-334.1) ">
<use xlink:href="#walrus_0_Layer2_1_MEMBER_0_MEMBER_0_MEMBER_4_MEMBER_5_MEMBER_0_FILL"/>
</g>

<g transform="matrix( 0.2760467529296875, 0, 0, 0.2760467529296875, -130.4,-334.1) ">
<use xlink:href="#walrus_0_Layer2_1_MEMBER_0_MEMBER_0_MEMBER_4_MEMBER_5_MEMBER_1_FILL"/>
</g>

<g transform="matrix( 0.2760467529296875, 0, 0, 0.2760467529296875, -130.4,-334.1) ">
<use xlink:href="#walrus_0_Layer2_1_MEMBER_0_MEMBER_0_MEMBER_4_MEMBER_6_FILL"/>
</g>

<g transform="matrix( 0.2760467529296875, 0, 0, 0.2760467529296875, -130.4,-334.1) ">
<use xlink:href="#walrus_0_Layer2_1_MEMBER_0_MEMBER_0_MEMBER_4_MEMBER_7_MEMBER_0_FILL"/>
</g>

<g transform="matrix( 0.2760467529296875, 0, 0, 0.2760467529296875, -130.4,-334.1) ">
<use xlink:href="#walrus_0_Layer2_1_MEMBER_0_MEMBER_0_MEMBER_4_MEMBER_7_MEMBER_1_FILL"/>
</g>

<g transform="matrix( 0.2760467529296875, 0, 0, 0.2760467529296875, -130.4,-334.1) ">
<use xlink:href="#walrus_0_Layer2_1_MEMBER_0_MEMBER_0_MEMBER_4_MEMBER_8_FILL"/>
</g>

<g transform="matrix( 0.2760467529296875, 0, 0, 0.2760467529296875, -130.4,-334.1) ">
<use xlink:href="#walrus_0_Layer2_1_MEMBER_0_MEMBER_0_MEMBER_4_MEMBER_9_FILL"/>
</g>

<g transform="matrix( 0.2760467529296875, 0, 0, 0.2760467529296875, -130.4,-334.1) ">
<use xlink:href="#walrus_0_Layer2_1_MEMBER_0_MEMBER_0_MEMBER_5_MEMBER_0_FILL"/>
</g>

<g transform="matrix( 0.2760467529296875, 0, 0, 0.2760467529296875, -130.4,-334.1) ">
<use xlink:href="#walrus_0_Layer2_1_MEMBER_0_MEMBER_0_MEMBER_5_MEMBER_1_FILL"/>
</g>

<g transform="matrix( 0.2760467529296875, 0, 0, 0.2760467529296875, -130.4,-334.1) ">
<use xlink:href="#walrus_0_Layer2_1_MEMBER_0_MEMBER_0_MEMBER_5_MEMBER_2_MEMBER_0_FILL"/>
</g>

<g transform="matrix( 0.2760467529296875, 0, 0, 0.2760467529296875, -130.4,-334.1) ">
<use xlink:href="#walrus_0_Layer2_1_MEMBER_0_MEMBER_0_MEMBER_5_MEMBER_2_MEMBER_1_FILL"/>
</g>

<g transform="matrix( 0.2760467529296875, 0, 0, 0.2760467529296875, -130.4,-334.1) ">
<use xlink:href="#walrus_0_Layer2_1_MEMBER_0_MEMBER_0_MEMBER_5_MEMBER_3_MEMBER_0_FILL"/>
</g>

<g transform="matrix( 0.2760467529296875, 0, 0, 0.2760467529296875, -130.4,-334.1) ">
<use xlink:href="#walrus_0_Layer2_1_MEMBER_0_MEMBER_0_MEMBER_5_MEMBER_3_MEMBER_1_FILL"/>
</g>

<g transform="matrix( 0.2760467529296875, 0, 0, 0.2760467529296875, -130.4,-334.1) ">
<use xlink:href="#walrus_0_Layer2_1_MEMBER_0_MEMBER_0_MEMBER_5_MEMBER_4_FILL"/>
</g>

<g transform="matrix( 0.2760467529296875, 0, 0, 0.2760467529296875, -130.4,-334.1) ">
<use xlink:href="#walrus_0_Layer2_1_MEMBER_0_MEMBER_0_MEMBER_5_MEMBER_5_MEMBER_0_FILL"/>
</g>

<g transform="matrix( 0.2760467529296875, 0, 0, 0.2760467529296875, -130.4,-334.1) ">
<use xlink:href="#walrus_0_Layer2_1_MEMBER_0_MEMBER_0_MEMBER_5_MEMBER_5_MEMBER_1_FILL"/>
</g>

<g transform="matrix( 0.2760467529296875, 0, 0, 0.2760467529296875, -130.4,-334.1) ">
<use xlink:href="#walrus_0_Layer2_1_MEMBER_0_MEMBER_0_MEMBER_5_MEMBER_5_MEMBER_2_MEMBER_0_FILL"/>
</g>

<g transform="matrix( 0.2760467529296875, 0, 0, 0.2760467529296875, -130.4,-334.1) ">
<use xlink:href="#walrus_0_Layer2_1_MEMBER_0_MEMBER_0_MEMBER_5_MEMBER_5_MEMBER_2_MEMBER_1_FILL"/>
</g>

<g transform="matrix( 0.2760467529296875, 0, 0, 0.2760467529296875, -130.4,-334.1) ">
<use xlink:href="#walrus_0_Layer2_1_MEMBER_0_MEMBER_0_MEMBER_5_MEMBER_6_MEMBER_0_FILL"/>
</g>

<g transform="matrix( 0.2760467529296875, 0, 0, 0.2760467529296875, -130.4,-334.1) ">
<use xlink:href="#walrus_0_Layer2_1_MEMBER_0_MEMBER_0_MEMBER_5_MEMBER_6_MEMBER_1_FILL"/>
</g>

<g transform="matrix( 0.2760467529296875, 0, 0, 0.2760467529296875, -130.4,-334.1) ">
<use xlink:href="#walrus_0_Layer2_1_MEMBER_0_MEMBER_0_MEMBER_5_MEMBER_6_MEMBER_2_FILL"/>
</g>

<g transform="matrix( 0.2760467529296875, 0, 0, 0.2760467529296875, -130.4,-334.1) ">
<use xlink:href="#walrus_0_Layer2_1_MEMBER_0_MEMBER_0_MEMBER_5_MEMBER_7_MEMBER_0_FILL"/>
</g>

<g transform="matrix( 0.2760467529296875, 0, 0, 0.2760467529296875, -130.4,-334.1) ">
<use xlink:href="#walrus_0_Layer2_1_MEMBER_0_MEMBER_0_MEMBER_5_MEMBER_7_MEMBER_1_FILL"/>
</g>

<g transform="matrix( 0.2760467529296875, 0, 0, 0.2760467529296875, -130.4,-334.1) ">
<use xlink:href="#walrus_0_Layer2_1_MEMBER_0_MEMBER_0_MEMBER_5_MEMBER_7_MEMBER_2_MEMBER_0_FILL"/>
</g>

<g transform="matrix( 0.2760467529296875, 0, 0, 0.2760467529296875, -130.4,-334.1) ">
<use xlink:href="#walrus_0_Layer2_1_MEMBER_0_MEMBER_0_MEMBER_5_MEMBER_7_MEMBER_2_MEMBER_1_FILL"/>
</g>

<g transform="matrix( 1, 0, 0, 1, 0,0) ">
<use xlink:href="#walrus_0_Layer2_1_MEMBER_1_MEMBER_0_MEMBER_0_MEMBER_0_FILL"/>
</g>

<g transform="matrix( 1, 0, 0, 1, 0,0) ">
<use xlink:href="#walrus_0_Layer2_1_MEMBER_1_MEMBER_0_MEMBER_0_MEMBER_1_FILL"/>
</g>

<g transform="matrix( 1, 0, 0, 1, 0,0) ">
<use xlink:href="#walrus_0_Layer2_1_MEMBER_1_MEMBER_0_MEMBER_0_MEMBER_2_FILL"/>
</g>

<g transform="matrix( 1, 0, 0, 1, 0,0) ">
<use xlink:href="#walrus_0_Layer2_1_MEMBER_1_MEMBER_0_MEMBER_1_MEMBER_0_FILL"/>
</g>

<g transform="matrix( 1, 0, 0, 1, 0,0) ">
<use xlink:href="#walrus_0_Layer2_1_MEMBER_1_MEMBER_0_MEMBER_1_MEMBER_1_FILL"/>
</g>

<g transform="matrix( 1, 0, 0, 1, 0,0) ">
<use xlink:href="#walrus_0_Layer2_1_MEMBER_1_MEMBER_0_MEMBER_1_MEMBER_2_FILL"/>
</g>

<g transform="matrix( 1, 0, 0, 1, 0,0) ">
<use xlink:href="#walrus_0_Layer2_1_MEMBER_1_MEMBER_0_MEMBER_1_MEMBER_3_FILL"/>
</g>

<g transform="matrix( 1, 0, 0, 1, 0,0) ">
<use xlink:href="#walrus_0_Layer2_1_MEMBER_1_MEMBER_0_MEMBER_1_MEMBER_4_FILL"/>
</g>

<g transform="matrix( 1, 0, 0, 1, 0,0) ">
<use xlink:href="#walrus_0_Layer2_1_MEMBER_1_MEMBER_0_MEMBER_1_MEMBER_5_FILL"/>
</g>

<g transform="matrix( 1, 0, 0, 1, 0,0) ">
<use xlink:href="#walrus_0_Layer2_1_MEMBER_1_MEMBER_0_MEMBER_2_FILL"/>
</g>

<g transform="matrix( 1, 0, 0, 1, 0,0) ">
<use xlink:href="#walrus_0_Layer2_1_MEMBER_1_MEMBER_0_MEMBER_3_FILL"/>
</g>

<g transform="matrix( 1, 0, 0, 1, 0,0) ">
<use xlink:href="#walrus_0_Layer2_1_MEMBER_1_MEMBER_0_MEMBER_4_MEMBER_0_FILL"/>
</g>

<g transform="matrix( 1, 0, 0, 1, 0,0) ">
<use xlink:href="#walrus_0_Layer2_1_MEMBER_1_MEMBER_0_MEMBER_4_MEMBER_1_FILL"/>
</g>

<g transform="matrix( 1, 0, 0, 1, 0,0) ">
<use xlink:href="#walrus_0_Layer2_1_MEMBER_1_MEMBER_0_MEMBER_4_MEMBER_2_FILL"/>
</g>

<g transform="matrix( 1, 0, 0, 1, 0,0) ">
<use xlink:href="#walrus_0_Layer2_1_MEMBER_1_MEMBER_0_MEMBER_4_MEMBER_3_FILL"/>
</g>

<g transform="matrix( 1, 0, 0, 1, 0,0) ">
<use xlink:href="#walrus_0_Layer2_1_MEMBER_1_MEMBER_0_MEMBER_4_MEMBER_4_FILL"/>
</g>

<g transform="matrix( 1, 0, 0, 1, 0,0) ">
<use xlink:href="#walrus_0_Layer2_1_MEMBER_1_MEMBER_0_MEMBER_4_MEMBER_5_MEMBER_0_FILL"/>
</g>

<g transform="matrix( 1, 0, 0, 1, 0,0) ">
<use xlink:href="#walrus_0_Layer2_1_MEMBER_1_MEMBER_0_MEMBER_4_MEMBER_5_MEMBER_1_FILL"/>
</g>

<g transform="matrix( 1, 0, 0, 1, 0,0) ">
<use xlink:href="#walrus_0_Layer2_1_MEMBER_1_MEMBER_0_MEMBER_4_MEMBER_6_FILL"/>
</g>

<g transform="matrix( 1, 0, 0, 1, 0,0) ">
<use xlink:href="#walrus_0_Layer2_1_MEMBER_1_MEMBER_0_MEMBER_4_MEMBER_7_FILL"/>
</g>

<g transform="matrix( 1, 0, 0, 1, 0,0) ">
<use xlink:href="#walrus_0_Layer2_1_MEMBER_1_MEMBER_0_MEMBER_4_MEMBER_8_FILL"/>
</g>

<g transform="matrix( 1, 0, 0, 1, 0,0) ">
<use xlink:href="#walrus_0_Layer2_1_MEMBER_1_MEMBER_0_MEMBER_4_MEMBER_9_FILL"/>
</g>

<g transform="matrix( 1, 0, 0, 1, 0,0) ">
<use xlink:href="#walrus_0_Layer2_1_MEMBER_1_MEMBER_0_MEMBER_5_MEMBER_0_FILL"/>
</g>

<g transform="matrix( 1, 0, 0, 1, 0,0) ">
<use xlink:href="#walrus_0_Layer2_1_MEMBER_1_MEMBER_0_MEMBER_5_MEMBER_1_FILL"/>
</g>

<g transform="matrix( 0.2760467529296875, 0, 0, 0.2760467529296875, -130.4,-334.1) ">
<use xlink:href="#walrus_0_Layer2_1_MEMBER_1_MEMBER_0_MEMBER_5_MEMBER_2_MEMBER_0_FILL"/>
</g>

<g transform="matrix( 0.2760467529296875, 0, 0, 0.2760467529296875, -130.4,-334.1) ">
<use xlink:href="#walrus_0_Layer2_1_MEMBER_1_MEMBER_0_MEMBER_5_MEMBER_2_MEMBER_1_FILL"/>
</g>

<g transform="matrix( 0.2760467529296875, 0, 0, 0.2760467529296875, -130.4,-334.1) ">
<use xlink:href="#walrus_0_Layer2_1_MEMBER_1_MEMBER_0_MEMBER_5_MEMBER_3_MEMBER_0_FILL"/>
</g>

<g transform="matrix( 0.2760467529296875, 0, 0, 0.2760467529296875, -130.4,-334.1) ">
<use xlink:href="#walrus_0_Layer2_1_MEMBER_1_MEMBER_0_MEMBER_5_MEMBER_3_MEMBER_1_FILL"/>
</g>

<g transform="matrix( 1, 0, 0, 1, 0,0) ">
<use xlink:href="#walrus_0_Layer2_1_MEMBER_1_MEMBER_0_MEMBER_5_MEMBER_4_FILL"/>
</g>

<g transform="matrix( 1, 0, 0, 1, 0,0) ">
<use xlink:href="#walrus_0_Layer2_1_MEMBER_1_MEMBER_0_MEMBER_5_MEMBER_5_MEMBER_0_FILL"/>

<use xlink:href="#walrus_0_Layer2_1_MEMBER_1_MEMBER_0_MEMBER_5_MEMBER_5_MEMBER_0_1_STROKES"/>
</g>

<g transform="matrix( 1, 0, 0, 1, -0.1,0.45) ">
<use xlink:href="#walrus_0_Layer2_1_MEMBER_1_MEMBER_0_MEMBER_5_MEMBER_5_MEMBER_1_FILL"/>
</g>

<g transform="matrix( 0.2760467529296875, 0, 0, 0.2760467529296875, -130.4,-334.1) ">
<use xlink:href="#walrus_0_Layer2_1_MEMBER_1_MEMBER_0_MEMBER_5_MEMBER_6_MEMBER_0_FILL"/>
</g>

<g transform="matrix( 0.2760467529296875, 0, 0, 0.2760467529296875, -130.4,-334.1) ">
<use xlink:href="#walrus_0_Layer2_1_MEMBER_1_MEMBER_0_MEMBER_5_MEMBER_6_MEMBER_1_FILL"/>
</g>

<g transform="matrix( 0.2760467529296875, 0, 0, 0.2760467529296875, -130.4,-334.1) ">
<use xlink:href="#walrus_0_Layer2_1_MEMBER_1_MEMBER_0_MEMBER_5_MEMBER_6_MEMBER_2_FILL"/>
</g>

<g transform="matrix( 1, 0, 0, 1, 0,0) ">
<use xlink:href="#walrus_0_Layer2_1_MEMBER_1_MEMBER_0_MEMBER_5_MEMBER_7_MEMBER_0_FILL"/>

<use xlink:href="#walrus_0_Layer2_1_MEMBER_1_MEMBER_0_MEMBER_5_MEMBER_7_MEMBER_0_1_STROKES"/>
</g>

<g transform="matrix( 1, 0, 0, 1, 0.1,0.9) ">
<use xlink:href="#walrus_0_Layer2_1_MEMBER_1_MEMBER_0_MEMBER_5_MEMBER_7_MEMBER_1_FILL"/>
</g>

<g transform="matrix( 1, 0, 0, 1, 0,0) ">
<use xlink:href="#walrus_0_Layer2_1_MEMBER_1_MEMBER_0_MEMBER_5_MEMBER_7_MEMBER_2_FILL"/>
</g>

<g transform="matrix( 1, 0, 0, 1, 0,0) ">
<use xlink:href="#walrus_0_Layer1_0_FILL"/>
</g>

<g transform="matrix( 1, 0, 0, 1, 0,0) ">
<use xlink:href="#walrus_0_Layer0_0_FILL"/>

<use xlink:href="#walrus_0_Layer0_0_1_STROKES"/>

<use xlink:href="#walrus_0_Layer0_0_2_STROKES"/>

<use xlink:href="#walrus_0_Layer0_0_3_STROKES"/>
</g>
</g>
</svg>
