
<svg xmlns="http://www.w3.org/2000/svg" version="1.1" xmlns:xlink="http://www.w3.org/1999/xlink" preserveAspectRatio="none" x="0px" y="0px" width="560px" height="544px" viewBox="0 0 560 544">
<defs>
<radialGradient id="Gradient_1" gradientUnits="userSpaceOnUse" cx="0" cy="0" r="85.9" fx="0" fy="0" gradientTransform="matrix( 1, 0, 0, 1, 8.85,18.65) " spreadMethod="pad">
<stop  offset="0%" stop-color="#FA38AD"/>

<stop  offset="100%" stop-color="#FDACDD"/>
</radialGradient>

<filter id="Filter_1" x="-20%" y="-20%" width="140%" height="140%" color-interpolation-filters="sRGB">
<feColorMatrix in="SourceGraphic" type="matrix" values="-0.023412216470213465 1.7002466626785862 -0.6768344462083727 0 0 0.20460192553130369 0.44524627623163693 0.35015179823705933 0 0 0.99328665495678 0.4875378851748967 -0.48082454013167675 0 0 0 0 0 1 0 " result="result1"/>
</filter>

<g id="Duplicate_Items_Folder_arm_knives_0_Layer0_0_FILL">
<path fill="#000000" stroke="none" d="
M 19.3 -26.7
Q 17.9 -26.85 15.7 -25.5 15.6 -25.65 10.8 -22.2 6.4 -19.05 4.25 -17.55 -2.65 -14.9 -4.9 -13.65 -8.45 -13.15 -12.55 -7.3 -16.85 -1.15 -20.55 1.65 -24.35 4.5 -24.95 5.05 -26.05 5.95 -32.7 11.3 -39.5 16.75 -35.85 22.2 -26.7 27.2 -16.45 20.25 -15.9 19.95 -15.35 19.55 -13.45 18.3 -11.4 17.1 -8.15 15.3 -3.65 13.05 -2.95 12.7 -2.25 12.4 -0.25 11.85 1.1 11.5 1.7 11.35 2.3 11.2 3.45 10.9 4.35 10.85 5.8 10.7 6.65 10.35 7 10.15 9.7 7.45
L 12.5 4.2
Q 13.3 3.95 13.5 3.85 14 3.65 14.1 3.5 14.4 3.1 14.8 3 14.85 2.95 14.95 2.95 15.4 2.8 16.1 3 16.7 3.15 17.75 3.55 18.45 3.9 19.5 4.45 21.75 5.15 23.2 3.6 24.65 2 24.7 0.4 24.75 -1.15 24.85 -2.15 24.35 -6.05 21.85 -7.3
L 19.4 -8.65
Q 20.3 -10.05 22.05 -9.75
L 24.55 -7.6
Q 26.8 -6.05 28.15 -5.8 28.4 -5.75 28.6 -5.75 30.05 -5.75 30.85 -5.6 31.55 -5.55 32.75 -6.4 33.8 -7.4 35 -8.8 36.1 -10.25 35.15 -12.6
L 27.5 -23.4
Q 24.85 -25 22.25 -23.3 22.05 -23.15 21.9 -23 21.9 -23.95 21.35 -24.7 20.7 -25.75 19.3 -26.7
M 10.3 -19.65
Q 13.9 -21.75 17.85 -23.4 19.4 -23.05 20.8 -21.9 21.05 -21.55 21.3 -21.35 21.4 -21.4 21.5 -21.45 22.05 -21.8 22.65 -22 24.4 -22.6 26.65 -22.55
L 33.55 -11.95
Q 33.6 -11.9 33.6 -11.8 33.8 -10 32.9 -8.8 32.15 -8.15 31.45 -7.85 30.8 -7.55 30 -7.7 28.6 -7.6 27.3 -8.1 26.2 -8.65 25.15 -9.6 24.55 -10.75 23.6 -11.2 22.8 -11.6 21.75 -11.45 21.55 -11.45 21.35 -11.4 20.45 -11.15 19.25 -10.55 14.85 -8.25 17.25 -7.65
L 17.35 -7.65
Q 17.65 -7.55 20 -6.6 20.3 -6.5 20.65 -6.35
L 21.2 -5.55
Q 22.45 -4.15 22.6 -1.8 22.65 0.45 21.7 1.7 20.75 2.75 18.1 2.05 17.85 2 17.6 1.9 16.25 1.5 15.35 1.3 15.3 1.3 15.25 1.3 14.15 1.05 13.7 1.25 13.35 1.4 12.95 1.5 12.55 1.7 12.05 1.8 11.7 2.5 10.9 3.6 8.55 6.55 5.85 7.1
L -3.1 10.65 -3.25 10.45 -8.8 12.85 -8.85 12.8 -13.1 14.55
Q -13.9 15.4 -16 17.55
L -15.95 17.55
Q -16.5 18.05 -17.4 18.35
L -17.35 18.35
Q -27.5 23.2 -30.2 21.25 -33.05 21.25 -34.55 18.65 -33.3 13.4 -28.45 11
L -13.45 0.3 -12.05 -2.35 -13.45 0.05 -8.4 -9.25
Q -6.35 -12 4.2 -15.4 7.2 -17.75 8.4 -18.45 9.35 -19.05 10.3 -19.65
M 10.55 0.25
L 10.55 0.1 10.5 0
Q 10.4 0.25 10.55 0.25 Z"/>

<path fill="#748F01" stroke="none" d="
M 10.9 3.6
Q 11.7 2.5 12.05 1.8 11.75 1.9 10.85 -1 10 -3.85 6 1.35 5.25 2.15 4.9 2.4 0.4 6.65 -7.35 5 -14.85 14.55 -30.2 21.25 -27.5 23.2 -17.35 18.35
L -17.4 18.35
Q -16.5 18.05 -15.95 17.55
L -16 17.55
Q -13.9 15.4 -13.1 14.55
L -8.85 12.8 -8.8 12.85 -3.25 10.45 -3.1 10.65 5.85 7.1
Q 8.55 6.55 10.9 3.6
M 9.35 -1.6
L 9.35 -1.55
Q 9 -1.45 8.85 -1.45
L 8.8 -1.45
Q 8.7 -1.5 9.35 -1.6
M 10.55 0.1
L 10.55 0.25
Q 10.4 0.25 10.5 0
L 10.55 0.1
M -19.8 16.5
L -19.85 16.5 -19.5 16.2 -19.8 16.5 Z"/>

<path fill="#1264DC" stroke="none" d="
M -19.85 16.5
L -19.8 16.5 -19.5 16.2 -19.85 16.5 Z"/>

<path fill="#F03C0F" stroke="none" d="
M 9.35 -1.55
L 9.35 -1.6
Q 8.7 -1.5 8.8 -1.45
L 8.85 -1.45
Q 9 -1.45 9.35 -1.55 Z"/>

<path fill="#990000" stroke="none" d="
M 22.6 -1.8
Q 22.45 -4.15 21.2 -5.55
L 20.65 -6.35
Q 20.3 -6.25 19.95 -6.05
L 18.1 2.05
Q 20.75 2.75 21.7 1.7 22.65 0.45 22.6 -1.8 Z"/>

<path fill="#CC0000" stroke="none" d="
M 27.3 -8.1
Q 28.6 -7.6 30 -7.7 30.8 -7.55 31.45 -7.85 32.15 -8.15 32.9 -8.8 33.8 -10 33.6 -11.8 30.35 -14.75 27.9 -14
L 23.6 -11.2
Q 24.55 -10.75 25.15 -9.6 26.2 -8.65 27.3 -8.1 Z"/>

<path fill="#99CC00" stroke="none" d="
M 17.85 -23.4
Q 13.9 -21.75 10.3 -19.65 9.35 -19.05 8.4 -18.45 7.2 -17.75 4.2 -15.4 -6.35 -12 -8.4 -9.25
L -13.45 0.05 -12.05 -2.35 -13.45 0.3 -28.45 11
Q -33.3 13.4 -34.55 18.65 -33.05 21.25 -30.2 21.25 -14.85 14.55 -7.35 5 0.4 6.65 4.9 2.4 5.25 2.15 6 1.35 10 -3.85 10.85 -1 11.75 1.9 12.05 1.8 12.55 1.7 12.95 1.5 13.35 1.4 13.7 1.25 14.15 1.05 15.25 1.3 15.3 1.3 15.35 1.3 16.25 1.5 17.6 1.9 17.85 2 18.1 2.05
L 19.95 -6.05
Q 20.3 -6.25 20.65 -6.35 20.3 -6.5 20 -6.6 17.65 -7.55 17.35 -7.65
L 17.25 -7.65
Q 14.85 -8.25 19.25 -10.55 20.45 -11.15 21.35 -11.4 21.55 -11.45 21.75 -11.45 22.8 -11.6 23.6 -11.2
L 27.9 -14
Q 30.35 -14.75 33.6 -11.8 33.6 -11.9 33.55 -11.95
L 26.65 -22.55
Q 24.4 -22.6 22.65 -22 22.05 -21.8 21.5 -21.45 21.4 -21.4 21.3 -21.35 21.05 -21.55 20.8 -21.9 19.4 -23.05 17.85 -23.4 Z"/>
</g>

<g id="Duplicate_Items_Folder_arm_suit_0_Layer1_0_FILL">
<path fill="#000000" stroke="none" d="
M 27.35 -25.95
Q 35.5 -37.65 29.9 -48.15 23.75 -52.4 17.4 -44.75 11.1 -37.15 10.1 -35.95 9.4 -35.3 6.1 -30.95 2.794140625 -26.7486328125 -4.3 -21.95 -11.0462890625 -17.32421875 -11.75 -13.25 -13.1658203125 -10.6458984375 -16.3 -2.8 -18.05 -0.35 -21.75 4.65 -25.75 10.1 -25.6 10.2 -27.2 12.75 -27 14.35 -26 15.95 -24.8 16.7 -23.9 17.3 -22.85 17.35 -23 17.55 -23.15 17.75 -25.2 20.7 -23.4 23.75
L -11.1 32.7
Q -8.45 33.85 -6.75 32.6 -5.1 31.25 -3.95 30.05 -3 28.7 -3.05 27.85 -3.15 26.95 -3.15 25.3 -3.15 25.05 -3.2 24.75 -3.5 23.2 -5.2 20.65
L -7.65 17.75
Q -7.95 15.7 -6.35 14.7
L -4.8 17.55
Q -3.45 20.4 1.05 21.05 2.2 21 3.95 20.95 5.8 20.85 7.6 19.25 9.45 17.6 8.65 15 8.1 13.85 7.7 13 7.2 11.8 7.05 11.15 6.9 10.35 7.05 9.8 7.05 9.7 7.1 9.65 7.25 9.15 7.7 8.85 7.85 8.7 8.1 8.15 8.2068359375 7.90078125 8.5 6.95
L 12.3 3.85
Q 15.45 0.8 15.65 0.4 16.05 -0.55 16.3 -2.25 16.35 -3.25 16.7 -4.6 16.85 -5.3 17.05 -5.95 17.5 -7.5 18.1 -9.8 18.55 -10.6 18.9 -11.35 21.55 -16.5 23.7 -20.2 25.05 -22.55 26.55 -24.7 27 -25.35 27.35 -25.95
M 25.8 -46.75
Q 28.8 -44.95 28.75 -41.7 30.9 -38.6 25.2 -27
L 25.2 -27.05
Q 24.85 -26.05 24.25 -25.4
L 24.25 -25.45
Q 21.8 -23.1 20.75 -22.2
L 18.7 -17.4 18.75 -17.3 15.95 -10.95 16.15 -10.8 11.95 -0.55
Q 11.2509765625 2.55390625 7.85 5.1 6.5875 6.08203125 5.75 6.45 5.576171875 6.9802734375 5.4 7.45 5.25 7.9 5.1 8.3 4.9 8.85 5.15 10.1 5.15 10.15 5.15 10.2 5.35 11.25 5.8 12.8 5.9 13.1 5.95 13.35 6.7 16.45 5.5 17.5 4.05 18.6 1.5 18.45 -1.2 18.3 -2.8 16.8
L -3.75 16.15
Q -3.9 15.8 -4 15.45 -5.05 12.75 -5.15 12.4
L -5.15 12.3
Q -5.8 9.5 -8.5 14.5 -9.25 15.9 -9.5 16.9 -9.55 17.15 -9.55 17.4 -9.75 18.6 -9.35 19.5 -8.85 20.6 -7.5 21.3 -6.4 22.5 -5.85 23.8 -5.25 25.3 -5.4 26.9 -5.25 27.8 -5.6 28.55 -5.95 29.35 -6.7 30.15 -8.1 31.2 -10.15 30.95 -10.25 30.95 -10.35 30.9
L -22.35 22.8
Q -22.45 20.25 -21.7 18.25 -21.45 17.55 -21.05 16.9 -21 16.8 -20.95 16.7 -21.15 16.4 -21.55 16.1 -22.85 14.5 -23.2 12.7 -21.25 8.2 -18.8 4.15 -18.1 3.05 -17.35 1.95 -16.5470703125 0.621875 -13.85 -2.8 -9.758203125 -14.8294921875 -6.6 -17.2
L 4.15 -22.8 1.35 -21.25 4.4 -22.85 16.45 -39.25 17 -39.85
Q 19.8 -45.35 25.8 -46.75
M 3.85 4.7
L 4 4.7
Q 3.9896484375 4.5623046875 3.75 4.65
L 3.85 4.7
M 1.55 4.2
L 1.6 4.35 1.6 4.3
Q 1.6265625 4.249609375 1.55 4.2 Z"/>

<path fill="#CC0000" stroke="none" d="
M -5.85 23.8
Q -6.4 22.5 -7.5 21.3 -8.85 20.6 -9.35 19.5
L -12.6 24.4
Q -13.5 27.2 -10.15 30.95 -8.1 31.2 -6.7 30.15 -5.95 29.35 -5.6 28.55 -5.25 27.8 -5.4 26.9 -5.25 25.3 -5.85 23.8 Z"/>

<path fill="#990000" stroke="none" d="
M 1.5 18.45
Q 4.05 18.6 5.5 17.5 6.7 16.45 5.95 13.35
L -3.4 15.35
Q -3.6 15.75 -3.75 16.15
L -2.8 16.8
Q -1.2 18.3 1.5 18.45 Z"/>

<path fill="#748F01" stroke="none" d="
M 25.2 -27.05
L 25.2 -27
Q 30.9 -38.6 28.75 -41.7 20.8 -24.2 9.75 -15.8 11.4833984375 -6.824609375 6.55 -1.7 6.248828125 -1.3919921875 5.3 -0.55 -0.6908203125 4.008984375 2.6 5.05 5.8810546875 6.091796875 5.75 6.45 6.5875 6.08203125 7.85 5.1 11.2509765625 2.55390625 11.95 -0.55
L 16.15 -10.8 15.95 -10.95 18.75 -17.3 18.7 -17.4 20.75 -22.2
Q 21.8 -23.1 24.25 -25.45
L 24.25 -25.4
Q 24.85 -26.05 25.2 -27.05
M 22.75 -29.55
L 23.1 -29.9 23.1 -29.85 22.75 -29.55
M 2 2.6
Q 2.0341796875 2.652734375 2 2.7 2.0501953125 2.8619140625 1.95 3.25 1.9228515625 3.237890625 1.9 3.2 2.0068359375 2.5552734375 2 2.6
M 1.6 4.35
L 1.55 4.2
Q 1.6265625 4.249609375 1.6 4.3
L 1.6 4.35
M 4 4.7
L 3.85 4.7 3.75 4.65
Q 3.9896484375 4.5623046875 4 4.7 Z"/>

<path fill="#F03C0F" stroke="none" d="
M 2 2.7
Q 2.0341796875 2.652734375 2 2.6 2.0068359375 2.5552734375 1.9 3.2 1.9228515625 3.237890625 1.95 3.25 2.0501953125 2.8619140625 2 2.7 Z"/>

<path fill="#1264DC" stroke="none" d="
M 23.1 -29.9
L 22.75 -29.55 23.1 -29.85 23.1 -29.9 Z"/>

<path fill="#99CC00" stroke="none" d="
M 28.75 -41.7
Q 28.8 -44.95 25.8 -46.75 19.8 -45.35 17 -39.85
L 16.45 -39.25 4.4 -22.85 1.35 -21.25 4.15 -22.8 -6.6 -17.2
Q -9.758203125 -14.8294921875 -13.85 -2.8 -16.5470703125 0.621875 -17.35 1.95 -18.1 3.05 -18.8 4.15 -21.25 8.2 -23.2 12.7 -22.85 14.5 -21.55 16.1 -21.15 16.4 -20.95 16.7 -21 16.8 -21.05 16.9 -21.45 17.55 -21.7 18.25 -22.45 20.25 -22.35 22.8
L -10.35 30.9
Q -10.25 30.95 -10.15 30.95 -13.5 27.2 -12.6 24.4
L -9.35 19.5
Q -9.75 18.6 -9.55 17.4 -9.55 17.15 -9.5 16.9 -9.25 15.9 -8.5 14.5 -5.8 9.5 -5.15 12.3
L -5.15 12.4
Q -5.05 12.75 -4 15.45 -3.9 15.8 -3.75 16.15 -3.6 15.75 -3.4 15.35
L 5.95 13.35
Q 5.9 13.1 5.8 12.8 5.35 11.25 5.15 10.2 5.15 10.15 5.15 10.1 4.9 8.85 5.1 8.3 5.25 7.9 5.4 7.45 5.576171875 6.9802734375 5.75 6.45 5.8810546875 6.091796875 2.6 5.05 -0.6908203125 4.008984375 5.3 -0.55 6.248828125 -1.3919921875 6.55 -1.7 11.4833984375 -6.824609375 9.75 -15.8 20.8 -24.2 28.75 -41.7 Z"/>
</g>

<g id="Duplicate_Items_Folder_body_suit_0_Layer3_0_FILL">
<path fill="#000000" stroke="none" d="
M 24.5 -31.3
Q 23.81953125 -31.8537109375 23 -32.3 21.28984375 -33.23984375 19 -33.65 18.85 -33.7 18.7 -33.7 18.3 -33.8 17.85 -33.85 14 -35 10.15 -35.75 -6.15 -38.9 -23.35 -34.55 -24.95 -34.15 -26.3 -33.55
L -26.35 -33.55
Q -26.55 -33.5 -26.75 -33.4 -30.4 -31.75 -32.2 -28.9 -32.75 -28.05 -33.1 -27 -33.55 -26.05 -33.75 -24.95 -34.4 -23.7 -35 -22.45 -45.5203125 -1.0142578125 -39.75 20.6 -39.6736328125 20.8833984375 -39.6 21.15 -38.8849609375 23.83125 -37.9 26.5 -37.7720703125 26.83125 -37.65 27.15 -36 31.5 -33.7 35.9 -33.75 45.7 -23.3 45.85 -0.7 58.75 17.85 46.5 28.3 46.7 28.25 36.95 31.359375 30.342578125 33.1 23.65 33.3615234375 22.60625 33.6 21.55 33.6 21.45 33.65 21.35 38.2 0.45 29.4 -21.25 28.85 -22.6 28.25 -23.95 28.1 -24.95 27.9 -25.8 26.9 -29.3 24.5 -31.3
M 21.45 -28.95
Q 21.96328125 -28.3833984375 22.35 -27.65 22.7 -26.9 23 -25.9 23.6 -24 23.75 -21.35 23.8 -20 23.75 -18.4 34.35 1 30.15 20.75 29.8564453125 22.123828125 29.5 23.5 28.1103515625 28.684375 25.7 33.9 25.7 35.2 25.5 36.35 24.3 42.85 16.2 42.7 16 42.85 15.8 42.95 6.7 48.25 -2.6 48 -11.75 47.75 -21.15 42.2 -21.3 42.15 -21.4 42.05 -29.55 41.9 -30.7 35.2 -30.9 34.15 -30.9 32.95 -32.75 29.45 -34.1 26.05 -34.3404296875 25.438671875 -34.6 24.8 -35.3146484375 22.783203125 -35.85 20.75 -35.95703125 20.415625 -36.05 20.05 -41.55 -0.65 -28.05 -19.2 -28.45 -20.9 -28.6 -22.3 -28.9 -25.05 -28.4 -26.9 -28.15 -28 -27.6 -28.8 -26.7 -30.15 -25.2 -30.75 -23.65 -31.4 -21.45 -31.35
L -15.8 -31.25 -15.8 -31.05 -14.8 -31.05
Q -14.65 -31.05 -14.45 -31 -8.35 -30.45 -2.6 -30.3 4.05 -30.15 10.25 -30.55 10.35 -30.55 10.45 -30.55
L 11.35 -30.55 11.35 -30.8 16.15 -30.7
Q 17.25 -30.85 18.15 -30.75 20.1666015625 -30.493359375 21.45 -28.95 Z"/>

<path fill="#B52837" stroke="none" d="
M -14.8 -31.05
L -14.65 -28.5 -14.45 -31
Q -14.65 -31.05 -14.8 -31.05 Z"/>

<path fill="#82A001" stroke="none" d="
M 15.8 42.95
Q 16 42.85 16.2 42.7 24.3 42.85 25.5 36.35 25.7 35.2 25.7 33.9 28.1103515625 28.684375 29.5 23.5 -7.1107421875 45.7529296875 -35.85 20.75 -35.3146484375 22.783203125 -34.6 24.8 -34.3404296875 25.438671875 -34.1 26.05 -32.75 29.45 -30.9 32.95 -30.9 34.15 -30.7 35.2 -29.55 41.9 -21.4 42.05 -21.3 42.15 -21.15 42.2 -11.75 47.75 -2.6 48 6.7 48.25 15.8 42.95 Z"/>

<path fill="#99CC00" stroke="none" d="
M 22.35 -27.65
Q 21.96328125 -28.3833984375 21.45 -28.95 20.1666015625 -30.493359375 18.15 -30.75 17.25 -30.85 16.15 -30.7
L 11.35 -30.8 11.35 -30.55 10.45 -30.55
Q 10.35 -30.55 10.25 -30.55 4.05 -30.15 -2.6 -30.3 -8.35 -30.45 -14.45 -31
L -14.65 -28.5 -14.8 -31.05 -15.8 -31.05 -15.8 -31.25 -21.45 -31.35
Q -23.65 -31.4 -25.2 -30.75 -26.7 -30.15 -27.6 -28.8 -28.15 -28 -28.4 -26.9 -28.9 -25.05 -28.6 -22.3 -28.45 -20.9 -28.05 -19.2 -41.55 -0.65 -36.05 20.05 -35.95703125 20.415625 -35.85 20.75 -7.1107421875 45.7529296875 29.5 23.5 29.8564453125 22.123828125 30.15 20.75 34.35 1 23.75 -18.4 23.8 -20 23.75 -21.35 23.6 -24 23 -25.9 22.7 -26.9 22.35 -27.65 Z"/>
</g>

<g id="Duplicate_Items_Folder_body_suit_0_Layer2_0_FILL">
<path fill="#99CC00" stroke="none" d="
M 1.45 30.1
Q 2.85 29.45 3.05 28.45
L -7.65 27.9
Q -7.5 28.9 -6.15 29.7 -4.6 30.6 -2.35 30.7 -0.1 30.85 1.45 30.1 Z"/>
</g>

<g id="Duplicate_Items_Folder_body_suit_0_Layer1_0_FILL">
<path fill="#FF0000" stroke="none" d="
M 11.6 -8.75
Q 8.5 -14.1 3.85 -14.3 -0.75 -14.45 -4.2 -9.4 -4.6298828125 -8.7552734375 -5 -8.1 -6.3732421875 -8.6306640625 -7.9 -8.7 -12.3 -8.9 -15.55 -4.9 -18.75 -0.9 -18.95 5 -19.1 10.9 -16.1 15.15 -15.1091796875 16.5701171875 -14 17.55 -14.7541015625 19.2501953125 -14.85 21.65 -14.9 24.2 -14.15 25.95 -13.35 27.75 -12.25 27.8 -11.15 27.85 -10.3 26.1 -9.4 24.4 -9.35 21.85 -9.3013671875 20.6333984375 -9.5 19.55 -9.0884765625 19.632421875 -8.7 19.65 -5.805859375 19.781640625 -3.4 18.05 -0.73203125 21.284765625 2.8 21.4 4.296484375 21.464453125 5.65 20.95 6.276171875 21.1701171875 6.95 21.2 7.4119140625 21.2201171875 7.85 21.15 7.803125 23.85625 8.75 25.8 8.84140625 25.992578125 8.95 26.15 8.6044921875 26.449609375 8.3 26.95 7.65 28.1 7.6 29.75 7.55 31.4 8.15 32.6 8.75 33.85 9.6 33.85 10.5 33.9 11.15 32.7 11.8 31.55 11.85 29.9 11.8845703125 28.75859375 11.6 27.8 12.821484375 27.6537109375 13.75 26.05 14.805078125 24.227734375 14.9 21.7 15.2947265625 21.3744140625 15.65 20.85 16.75 19.35 16.8 17.15 16.85 14.95 15.85 13.3 14.9 11.7 13.45 11.65 13.33203125 11.645703125 13.2 11.65 14.358984375 8.2240234375 14.5 4.05 14.7 -3.35 11.6 -8.75 Z"/>
</g>

<g id="Duplicate_Items_Folder_body_suit_0_Layer0_0_FILL">
<path fill="#E6E0D5" stroke="none" d="
M -1.8 -12
Q -2.1546875 -11.986328125 -2.5 -11.9 -2.35 -11.9 -2.15 -11.95 -1.9603515625 -11.987890625 -1.8 -12
M -15.25 -4.45
Q -16.15 -4.45 -17 -3.7 -17.8 -2.9 -17.85 -1.8
L -17.85 -1.7
Q -17.75 -0.45 -16.9 0.35 -16.05 1.35 -15.2 1.3 -12.25 -3.75 -3.7 -4.95
L -3.95 1.3
Q -10.85 1.55 -17.75 6.1 -18.9 6.2 -19.85 6.95 -20.85 7.9 -20.85 9.05
L -20.85 9.1
Q -20.85 10.3 -19.8 11.2 -18.9 12 -17.7 12 -17.4 11.85 -17.15 11.6 -10.15 8 -4.15 5.5
L -3.85 9.95
Q -9.45 10.75 -14.95 15.5 -15.35 15.6 -15.8 15.8 -16.35 16.05 -16.7 16.45 -17.5 17.45 -17.5 18.55
L -17.5 18.6
Q -17.45 19.8 -16.65 20.5 -15.8 21.25 -14.9 21.15 -9.1 17.1 -3.85 15.9
L -3.8 20.15
Q -3.8 21.45 -2.95 22.2 -2.35 22.75 -1.75 22.85
L -1.65 20.35 -1.6 22.85
Q -0.95 22.75 -0.35 22.2 0.5 21.45 0.5 20.15
L 0.55 15.9
Q 5.8 17.1 11.6 21.15 12.45 21.25 13.35 20.5 14.1 19.8 14.2 18.6
L 14.2 18.55
Q 14.2 17.45 13.35 16.45 13.05 16.05 12.45 15.8 12.05 15.6 11.65 15.5 6.1 10.75 0.55 9.95
L 0.85 5.5
Q 6.85 8 13.85 11.6 14.1 11.85 14.4 12 15.6 12 16.5 11.2 17.5 10.3 17.5 9.1
L 17.5 9.05
Q 17.5 7.9 16.55 6.95 15.6 6.2 14.45 6.1 7.55 1.55 0.65 1.3
L 0.4 -4.95
Q 8.95 -3.75 11.9 1.3 12.75 1.35 13.6 0.35 14.45 -0.45 14.55 -1.7
L 14.55 -1.8
Q 14.5 -2.9 13.7 -3.7 12.85 -4.45 11.95 -4.45 6.4 -8.45 0.75 -8.35
L 0.75 -9.4
Q 0.75 -10.7 -0.1 -11.45 -0.75 -12 -1.65 -12
L -1.8 -12
Q -1.9603515625 -11.987890625 -2.15 -11.95 -2.35 -11.9 -2.5 -11.9 -2.85 -11.75 -3.2 -11.45 -4.05 -10.7 -4.05 -9.4
L -4.05 -8.35
Q -9.7 -8.45 -15.25 -4.45 Z"/>
</g>

<g id="Duplicate_Items_Folder_leg_suit_0_Layer1_0_FILL">
<path fill="#FCC87A" stroke="none" d="
M 4.3 5.4
L 4.05 5.4 4.05 5.7 4.05 6.3
Q 4.15 5.8 4.3 5.4 Z"/>

<path fill="#FDD194" stroke="none" d="
M 16.55 4.45
L 16.55 4.45
Q 16.655859375 4.6087890625 16.75 4.75
L 16.85 4.25 16.55 4.2
Q 16.55 4.25 16.55 4.35 16.55 4.4 16.55 4.45 Z"/>

<path fill="#000000" stroke="none" d="
M 4.25 -7.6
Q 4.15 -8.15 3.85 -8.5 3.35 -8.9 2.75 -8.95 2.2 -9.1 0.7 -10.1 0.55 -10.5 -0.2 -12.1 -0.737890625 -13.2833984375 1.25 -24.35
L -3.5 -21.4
Q -4.019921875 -13.4373046875 -3.65 -12.5 -1.8 -5.4 0.65 -5.35
L 0.55 5.7
Q 0.5 6.4 1.05 6.75 1.55 7.2 2.25 7.1 3 7 3.55 6.55 3.95 6.15 4.05 5.7
L 4.05 5.4 4.25 -7.6
M 23.2 -16.35
L 19.65 -16.1 16.85 4.25 16.75 4.75
Q 16.655859375 4.6087890625 16.55 4.45 16.6390625 5.154296875 17.05 7.3 17.1 7.7 17.2 8
L 17.25 8.25
Q 17.59765625 9.78671875 18.2 10.25 18.9 10.8 19.45 7.9 20 4.9 20.1 4.25
L 23.2 -16.35 Z"/>

<path fill="#99CC00" stroke="none" d="
M 19.65 -16.1
Q 15.327734375 -25.6626953125 1.25 -24.35 -0.737890625 -13.2833984375 -0.2 -12.1 0.55 -10.5 0.7 -10.1 2.2 -9.1 2.75 -8.95 3.35 -8.9 3.85 -8.5 4.15 -8.15 4.25 -7.6
L 4.05 5.4 4.3 5.4 17.25 8.25 17.2 8
Q 17.1 7.7 17.05 7.3 16.6390625 5.154296875 16.55 4.45
L 16.55 4.45
Q 16.55 4.4 16.55 4.35 16.55 4.25 16.55 4.2
L 16.85 4.25 19.65 -16.1 Z"/>
</g>

<g id="Duplicate_Items_Folder_leg_suit_0_Layer0_0_FILL">
<path fill="#88A901" stroke="none" d="
M 12.7 2.85
L 2.8 0.35 -1.6 5.05 -0.25 6.1 2.15 3.55 12.7 2.85
M 21.35 24
Q 21.4 23.95 21.5 23.95 21.6 23.95 21.7 23.95 21.75 23.9 21.8 23.9 21.85 23.85 21.9 23.85 22.15 23.75 22.3 23.65
L 23.05 23.55
Q 23.175 23.525 23.3 23.5 23.440625 23.5 23.6 23.5
L 23.65 23.5
Q 23.7 23.45 23.75 23.45
L 23.85 23.45
Q 24.15 23.4 24.35 23.4 29.55 21.15 27.2 13.6 23.6 8.95 20.8 7.45
L 18.8 4.35 17.15 3.95 16.65 11.95
Q 16.7 12.5 17.3 13.05 21.55 16.6 15.45 20.5 9.25 24.5 4.05 22.25
L 0.4 25.55
Q -1.35 24.45 -3.85 25.25 -6.4 26 -10.25 28.05 -14.1 30.1 -14.45 29.25
L -17.9 28
Q -17.45 27.85 -17.15 27.75
L -17.2 27.7
Q -17.4 27.45 -19.05 28.35 -18.25 27.25 -12.5 24.8 -19.7 26.05 -20.6 27.1 -21.2 27.7 -21.6 29.15 -21.2 27.7 -20.6 27.1 -23.5 27.35 -24.25 26.05 -25.4 25.8 -25.35 24.65
L -22.75 23.15
Q -25.2 24 -25.3 23.95 -26.85 24.2 -28 23.9 -29.15 24.05 -30.7 24.7 -29.15 24.05 -28 23.9 -28.45 23.7 -28.9 23.45 -30.4 22.45 -26.3 17.9
L -26.35 17.9
Q -26.85 17.7 -28.55 17.1
L -33.55 17.95
Q -36.15 21.75 -34.35 23.85 -32.55 25.9 -31.15 25.15
L -31.25 26.4
Q -31.35 27.75 -30.65 28.45 -27.3 32.3 -24.65 31.45 -22.15 30.6 -21.9 30.8 -21.55 31 -21.85 31.9 -22.55 33.55 -18.35 35
L -17 35.65
Q -13.65 36.9 -8.1 34.6 -2.65 32.3 -1.4 30.65 -0.8 29.7 0.05 29.2 0.85 28.65 1.8 28.55
L 1.85 28.5 8.1 27.2
Q 13.3 26.1 15.2 24.8
L 18.7 24.25
Q 20.25 24.05 21.35 24 Z"/>

<path fill="#678B30" stroke="none" d="
M 20.1 24.35
L 18.7 24.25 15.2 24.8
Q 16.95 25.25 20.1 24.35
M 18.7 24.25
L 20.1 24.35
Q 20.65 24.15 21.35 24 20.25 24.05 18.7 24.25
M 24.35 23.45
L 24.35 23.4
Q 24.15 23.4 23.85 23.45 24.1 23.45 24.35 23.45
M 23.6 23.5
Q 23.440625 23.5 23.3 23.5 23.1720703125 23.551171875 23 23.6 23.4046875 23.5052734375 23.6 23.5
M 21.55 24.05
L 21.65 24.05 21.65 24
Q 21.596875 24.03671875 21.55 24.05
M 22.05 23.85
Q 21.95 23.85 21.9 23.9 22.0408203125 23.853125 22.15 23.85
L 22.05 23.85
M 21.9 23.9
L 21.85 23.9 21.8 23.95 21.85 23.95 21.9 23.9
M 21.85 23.9
L 21.9 23.9 21.9 23.85
Q 21.85 23.85 21.8 23.9
L 21.85 23.9
M 21.75 23.95
L 21.7 23.95
Q 21.625 23.975 21.5 24
L 21.75 23.95
Q 21.6875 23.9625 21.65 24
L 21.7 24 21.75 24 21.75 23.95 21.5 24 21.3 24.05
Q 21.45 24.05 21.65 24 21.6875 23.9625 21.75 23.95
M 21.75 23.95
L 21.8 23.9
Q 21.75 23.9 21.7 23.95
L 21.75 23.95
M 21.8 23.9
L 21.75 23.95
Q 21.8013671875 23.9015625 21.85 23.9
L 21.8 23.9
M 21.75 23.95
L 21.8 23.95 21.85 23.9
Q 21.8013671875 23.9015625 21.75 23.95
M 21.8 23.95
L 21.75 23.95 21.75 24 21.85 23.95 22.15 23.85
Q 22.0408203125 23.853125 21.9 23.9
L 21.85 23.95 21.8 23.95
M 22.35 23.75
Q 22.56796875 23.7107421875 22.75 23.65 22.9 23.6 23.05 23.55
L 22.3 23.65
Q 22.15 23.75 21.9 23.85
L 21.9 23.9
Q 21.95 23.85 22.05 23.85 22.207421875 23.8107421875 22.35 23.75
M 22.75 23.65
L 22.7 23.7
Q 22.8708984375 23.651171875 23 23.6 23.1720703125 23.551171875 23.3 23.5 23.175 23.525 23.05 23.55 22.9 23.6 22.75 23.65
M 22.7 23.7
Q 22.6515625 23.7080078125 22.6 23.7 22.5533203125 23.7333984375 22.5 23.75
L 22.4 23.8
Q 23.95 23.55 23.85 23.45
L 23.75 23.45
Q 23.7 23.45 23.65 23.5
L 23.6 23.5
Q 23.4046875 23.5052734375 23 23.6 22.8708984375 23.651171875 22.7 23.7
M 21.5 23.95
Q 21.5 24 21.3 24.05
L 21.5 24
Q 21.625 23.975 21.7 23.95 21.6 23.95 21.5 23.95
M 21.25 24.1
L 21.3 24.1 21.55 24.05
Q 21.596875 24.03671875 21.65 24
L 21.65 24
Q 21.45 24.05 21.3 24.05 21.25 24.05 21.25 24.1
M 21.3 24.1
L 21.25 24.1 21.15 24.1
Q 21.0818359375 24.2609375 20.85 24.4 21.2 24.2 21.55 24.05
L 21.3 24.1
M 21.2 24.1
L 21.15 24.1 21.25 24.1 21.2 24.1 Z"/>

<path fill="#99CC00" stroke="none" d="
M 16.65 11.95
L 17.15 3.95 17.25 2.6 12.7 2.85 2.15 3.55 -0.25 6.1 -1.6 5.05 -9.35 10.55
Q -13.45 13.35 -16.4 14.6 -17.5 15 -18.45 15.3 -19.25 15.45 -19.95 15.5
L -26.15 17.9
Q -26.2 17.9 -26.3 17.9 -30.4 22.45 -28.9 23.45 -28.45 23.7 -28 23.9 -26.85 24.2 -25.3 23.95 -25.2 24 -22.75 23.15
L -25.35 24.65
Q -25.4 25.8 -24.25 26.05 -23.5 27.35 -20.6 27.1 -19.7 26.05 -12.5 24.8 -18.25 27.25 -19.05 28.35 -17.4 27.45 -17.2 27.7
L -17.15 27.75
Q -17.45 27.85 -17.9 28
L -14.45 29.25
Q -14.1 30.1 -10.25 28.05 -6.4 26 -3.85 25.25 -1.35 24.45 0.4 25.55
L 4.05 22.25
Q 9.25 24.5 15.45 20.5 21.55 16.6 17.3 13.05 16.7 12.5 16.65 11.95
M 1.85 9.85
L 6.1 10.25 -14.1 18.75 -13.2 16.35
Q -12.05 15.4 -5.15 11.45
L 1.75 7.45 1.85 9.85 Z"/>

<path fill="#D0FD1C" stroke="none" d="
M 6.1 10.25
L 1.85 9.85 1.75 7.45 -5.15 11.45
Q -12.05 15.4 -13.2 16.35
L -14.1 18.75 6.1 10.25 Z"/>
</g>

<g id="Duplicate_Items_Folder_head_7_Layer3_0_FILL">
<path fill="#000000" stroke="none" d="
M -37.7 13.85
Q -37.55 13.7 -37.15 13.7 -37.35 11.2 -37.9 8.9 -41.6671875 -12.578125 -59.8 -15.3 -43.9552734375 -12.2236328125 -38.95 7.65 -38.25 10.65 -37.7 13.85
M -81.7 -13.4
L -81.7 -13.25
Q -80.15 -13.75 -78.55 -14.2 -80.15 -13.9 -81.7 -13.4
M 35.2 -12.2
Q 32.9 -12.45 30.8 -12.15 13 -10.95 8.6 8.6 7.7 11.75 7.35 15.45 8.05 15.6 8.95 16 9.15 16 9.3 16 10.2 10.05 11.75 5.55 17.05 -9.6 30.25 -11.85 32.55 -12.3 35.2 -12.2 Z"/>

<path fill="#4A5C01" stroke="none" d="
M -81.7 -13.25
Q -82.4 -13.1 -83.1 -12.95 -83.1 -12.6 -83.1 -12.25 -79.05 32.75 -38.95 19.8 -38.05 19.45 -37.15 19.15 -37.35 16.3 -37.7 13.85 -38.25 10.65 -38.95 7.65 -43.9552734375 -12.2236328125 -59.8 -15.3 -60.1947265625 -15.3494140625 -60.6 -15.4 -61.0642578125 -15.5326171875 -61.55 -15.6
L -62 -15.65
Q -69.2 -16.35 -78.55 -14.2 -80.15 -13.75 -81.7 -13.25
M 35.2 -12.2
Q 32.55 -12.3 30.25 -11.85 17.05 -9.6 11.75 5.55 10.2 10.05 9.3 16 8.75 18.45 8.6 21.1 9.3 21.3 10.2 21.7 50.5 37.4 54.35 -7.35 54.35 -7.9 54.35 -8.25 43.45 -12.3 35.2 -12.2 Z"/>

<path fill="#99CC00" stroke="none" d="
M -45.9 -109.3
Q -47.8396484375 -109.3978515625 -49.6 -109.85 -57.4859375 -104.762890625 -64.65 -96.65 -87.35 -71.35 -93 -105.65 -96.88203125 -129.6013671875 -87.35 -143.45 -87.4171875 -144.553515625 -87.4 -145.7 -87.3513671875 -148.929296875 -86.5 -151.65 -101.1365234375 -140.3484375 -108.65 -119.35 -109 -118.65 -109.2 -118 -108.65 -68.5 -100.4 -33.55 -98.95 -27.9 -97.4 -22.55
L -70.45 -26.1 -60.6 -15.4
Q -60.1947265625 -15.3494140625 -59.8 -15.3 -41.6671875 -12.578125 -37.9 8.9 -21.438671875 18.2990234375 -20.1 -12 -21.35 -15.9 -22.75 -21.6
L -22.75 -103.95
Q -22.8673828125 -103.961328125 -23 -104 -24.9998046875 -102.85546875 -27.4 -103 -31.55 -103.2 -34.45 -107.1 -35.9248046875 -109.1181640625 -36.65 -111.55 -40.5951171875 -108.9904296875 -45.9 -109.3
M -3.7 -166.25
Q -8.3 -166.75 -12.7 -166.9 -13.75 -167.1 -14.65 -166.95 -15.15 -167.3 -15.85 -167.35 -16.4 -167.35 -17.1 -167.35 -27.3 -167.7 -37.7 -166.6 -48.25 -165.7 -59.2 -163.4 -65.7361328125 -162.2033203125 -71.55 -160 -70.0146484375 -159.171875 -68.7 -157.75 -47.3462890625 -167.3732421875 -12.55 -166.7 -8.15 -166.55 -3.7 -166.25
M 46.75 -153.55
Q 49.275 -152.075 51.55 -150.4 74.25 -135.1 65.65 -100.85 57 -66.8 37.3 -90.15 29.69453125 -99.187890625 20.6 -105.4 20.4458984375 -105.1044921875 20.25 -104.85 19.5560546875 -103.9001953125 18.65 -103.7 18.7166015625 -102.844140625 18.7 -101.95 18.65 -96.55 15.55 -93 12.45 -89.4 8.1 -89.65 6.4740234375 -89.7255859375 5 -90.35 4.4861328125 -87.26484375 2.55 -85 -0.1 -81.85 -3.9 -82.05 -7.185546875 -82.2251953125 -9.55 -84.9
L -9.55 -21.2
Q -10.25 -14.35 -11.1 -10 -5.661328125 13.30703125 8.6 8.6 13 -10.95 30.8 -12.15
L 43.1 -23.9 66.85 -14.35
Q 68.8 -20.8 70.55 -27.8 78.85 -62.25 79.35 -111.7 79.2 -112.4 78.85 -113.1 69.0744140625 -141.395703125 46.75 -153.55 Z"/>

<path fill="#D3FD2D" stroke="none" d="
M -66.7 -123.6
Q -74.1 -124 -79.3 -128.95 -80.3484375 -129.9578125 -81.2 -131.05 -82.778515625 -132.24375 -84.15 -134.2 -86.9224609375 -138.2138671875 -87.35 -143.45 -96.88203125 -129.6013671875 -93 -105.65 -87.35 -71.35 -64.65 -96.65 -57.4859375 -104.762890625 -49.6 -109.85 -52.718359375 -110.687109375 -55.25 -112.7 -56.607421875 -113.5119140625 -57.5 -114.85 -59.070703125 -116.7140625 -59.7 -118.9 -61.0015625 -121.5150390625 -61.75 -123.9 -64.0890625 -123.459765625 -66.7 -123.6
M 1.9 -160.65
Q 4.1806640625 -163.3134765625 6.75 -165.05 1.3666015625 -165.8880859375 -3.7 -166.25 -8.15 -166.55 -12.55 -166.7 -47.3462890625 -167.3732421875 -68.7 -157.75 -67.9646484375 -156.962109375 -67.3 -156 -67.1740234375 -155.8158203125 -67.05 -155.65 -66.6548828125 -155.621875 -66.25 -155.6 -58.8 -155.2 -53.6 -150.25 -50.7609375 -147.547265625 -49.5 -144.35 -46.5923828125 -145.06875 -43.3 -144.9 -39.9318359375 -144.7283203125 -37 -143.7 -35.6896484375 -145.2017578125 -34.05 -146.6 -29.0130859375 -150.83828125 -22.75 -152.25
L -22.75 -165.8 -9.55 -165.4 -9.55 -152.3
Q -6.444140625 -151.6705078125 -3.65 -150.45 -1.908984375 -156.1408203125 1.9 -160.65
M 46.75 -153.55
L 41.5 -156.15
Q 38.150390625 -157.6453125 34.45 -158.85 35.5658203125 -157.3376953125 36.45 -155.75 43.2419921875 -155.0392578125 48.55 -151.55 53.8646484375 -148.0521484375 55.45 -144.7 57.0763671875 -141.2986328125 50.75 -137.05 44.484375 -132.808984375 40.25 -132.25 40.8787109375 -119.9158203125 34.15 -114.75 27.784375 -109.8021484375 20.85 -110.25 21.333984375 -109.2072265625 21.3 -107.95 21.259765625 -106.50234375 20.6 -105.4 29.69453125 -99.187890625 37.3 -90.15 57 -66.8 65.65 -100.85 74.25 -135.1 51.55 -150.4 49.275 -152.075 46.75 -153.55 Z"/>

<path fill="#88A901" stroke="none" d="
M -22.75 -165.8
L -22.75 -152.25
Q -18.816796875 -153.1314453125 -14.4 -152.9 -11.891796875 -152.769140625 -9.55 -152.3
L -9.55 -165.4 -22.75 -165.8
M 30.8 -12.15
Q 32.9 -12.45 35.2 -12.2 43.45 -12.3 54.35 -8.25 54.35 -7.9 54.35 -7.35 50.5 37.4 10.2 21.7 9.3 21.3 8.6 21.1 8.75 18.45 9.3 16 9.15 16 8.95 16 8.05 15.6 7.35 15.45 7.7 11.75 8.6 8.6 -5.661328125 13.30703125 -11.1 -10 -10.25 -14.35 -9.55 -21.2
L -9.55 -84.9
Q -9.8841796875 -85.27265625 -10.2 -85.7 -12.75 -89.1 -12.7 -93.75 -12.668359375 -95.209765625 -12.4 -96.55 -12.46875 -97.0427734375 -12.55 -97.6 -14.06875 -96.0025390625 -15.8 -96.35 -19.229296875 -96.9828125 -22.75 -103.95
L -22.75 -21.6
Q -21.35 -15.9 -20.1 -12 -21.438671875 18.2990234375 -37.9 8.9 -37.35 11.2 -37.15 13.7 -37.55 13.7 -37.7 13.85 -37.35 16.3 -37.15 19.15 -38.05 19.45 -38.95 19.8 -79.05 32.75 -83.1 -12.25 -83.1 -12.6 -83.1 -12.95 -82.4 -13.1 -81.7 -13.25
L -81.7 -13.4
Q -80.15 -13.9 -78.55 -14.2 -69.2 -16.35 -62 -15.65
L -61.55 -15.6
Q -61.0642578125 -15.5326171875 -60.6 -15.4
L -70.45 -26.1 -97.4 -22.55
Q -76.6 47.8 -19.05 50.3 -16.75 50.4 -14.65 51 -12.7 50.85 -10.75 50.95 45.75 52 66.85 -14.35
L 43.1 -23.9 30.8 -12.15 Z"/>

<path fill="#CC0000" stroke="none" d="
M 34.45 -158.85
Q 34.4306640625 -158.859375 34.4 -158.9 27.85 -167.6 18.3 -168.15 11.9296875 -168.48359375 6.75 -165.05 4.1806640625 -163.3134765625 1.9 -160.65 -1.908984375 -156.1408203125 -3.65 -150.45 -6.444140625 -151.6705078125 -9.55 -152.3 -11.891796875 -152.769140625 -14.4 -152.9 -18.816796875 -153.1314453125 -22.75 -152.25 -29.0130859375 -150.83828125 -34.05 -146.6 -35.6896484375 -145.2017578125 -37 -143.7 -39.9318359375 -144.7283203125 -43.3 -144.9 -46.5923828125 -145.06875 -49.5 -144.35 -50.7609375 -147.547265625 -53.6 -150.25 -58.8 -155.2 -66.25 -155.6 -66.6548828125 -155.621875 -67.05 -155.65 -67.1740234375 -155.8158203125 -67.3 -156 -67.9646484375 -156.962109375 -68.7 -157.75 -70.0146484375 -159.171875 -71.55 -160
L -72.3 -160.4
Q -71.2298828125 -159.8041015625 -77.9 -157.1 -84.6046875 -154.371484375 -86.5 -151.65 -87.3513671875 -148.929296875 -87.4 -145.7 -87.4171875 -144.553515625 -87.35 -143.45 -86.9224609375 -138.2138671875 -84.15 -134.2 -82.778515625 -132.24375 -81.2 -131.05 -80.3484375 -129.9578125 -79.3 -128.95 -74.1 -124 -66.7 -123.6 -64.0890625 -123.459765625 -61.75 -123.9 -61.0015625 -121.5150390625 -59.7 -118.9 -59.070703125 -116.7140625 -57.5 -114.85 -56.607421875 -113.5119140625 -55.25 -112.7 -52.718359375 -110.687109375 -49.6 -109.85 -47.8396484375 -109.3978515625 -45.9 -109.3 -40.5951171875 -108.9904296875 -36.65 -111.55 -35.9248046875 -109.1181640625 -34.45 -107.1 -31.55 -103.2 -27.4 -103 -24.9998046875 -102.85546875 -23 -104 -22.8673828125 -103.961328125 -22.75 -103.95 -19.229296875 -96.9828125 -15.8 -96.35 -14.06875 -96.0025390625 -12.55 -97.6 -12.46875 -97.0427734375 -12.4 -96.55 -12.668359375 -95.209765625 -12.7 -93.75 -12.75 -89.1 -10.2 -85.7 -9.8841796875 -85.27265625 -9.55 -84.9 -7.185546875 -82.2251953125 -3.9 -82.05 -0.1 -81.85 2.55 -85 4.4861328125 -87.26484375 5 -90.35 6.4740234375 -89.7255859375 8.1 -89.65 12.45 -89.4 15.55 -93 18.65 -96.55 18.7 -101.95 18.7166015625 -102.844140625 18.65 -103.7 19.5560546875 -103.9001953125 20.25 -104.85 20.4458984375 -105.1044921875 20.6 -105.4 21.259765625 -106.50234375 21.3 -107.95 21.333984375 -109.2072265625 20.85 -110.25 27.784375 -109.8021484375 34.15 -114.75 40.8787109375 -119.9158203125 40.25 -132.25 44.484375 -132.808984375 50.75 -137.05 57.0763671875 -141.2986328125 55.45 -144.7 53.8646484375 -148.0521484375 48.55 -151.55 43.2419921875 -155.0392578125 36.45 -155.75 35.5658203125 -157.3376953125 34.45 -158.85 Z"/>
</g>

<g id="Duplicate_Items_Folder_head_7_Layer2_0_FILL">
<path fill="#000000" stroke="none" d="
M -12.55 14.95
Q -13.95 16.2 -13.95 17.75 -13.95 19.35 -12.55 20.4 -11.1 21.7 -9.2 21.8 -7.25 21.85 -5.85 20.65 -4.45 19.65 -4.45 18.05 -4.45 16.5 -5.85 15.2 -7.25 14.1 -9.2 14.05 -11.1 13.95 -12.55 14.95
M -19.05 19.7
Q -17.65 18.7 -17.65 17.1 -17.65 15.5 -19.05 14.25 -20.45 13.1 -22.4 13.05 -24.3 13 -25.75 14.05 -27.15 15.2 -27.15 16.8 -27.15 18.4 -25.75 19.5 -24.3 20.75 -22.4 20.8 -20.45 20.85 -19.05 19.7
M -81.7 -13.4
Q -81.7 -13.05 -81.7 -12.7 -69.9 15.8 -38.75 14.15 -37.9 13.8 -37.15 13.7 -41.05 -24.15 -81.7 -13.4
M -47.2 -2.65
Q -47.2 -1.4 -49.5 -1 -51.8 -0.5 -55.3 -4.15 -58.85 -7.8 -60.6 -4.85 -62.35 -1.9 -62.35 -3.65 -62.35 -5.45 -60.25 -8.35 -57.95 -11.45 -54.8 -8.7 -51.6 -5.95 -49.3 -5.05 -47.2 -3.85 -47.2 -2.65
M 51.9 -8.15
Q 51.9 -8.5 51.9 -8.85 11.25 -22.15 7.35 15.45 8.05 15.6 8.95 16 40.1 19.65 51.9 -8.15
M 19.5 -2.5
Q 21.8 -3.3 24.95 -5.85 28.15 -8.4 30.45 -5.1 32.55 -2.1 32.55 -0.3 32.55 1.45 30.8 -1.6 29 -4.65 25.5 -1.25 22 2.15 19.7 1.55 17.4 0.95 17.4 -0.3 17.4 -1.5 19.5 -2.5 Z"/>

<path fill="#FF0000" stroke="none" d="
M -81.7 -12.7
Q -77.85 24.9 -38.75 14.15 -69.9 15.8 -81.7 -12.7
M 51.9 -8.15
Q 40.1 19.65 8.95 16 48.05 29.25 51.9 -8.15 Z"/>

<path fill="#CCCCCC" stroke="none" d="
M -49.5 -1
Q -47.2 -1.4 -47.2 -2.65 -47.2 -3.85 -49.3 -5.05 -51.6 -5.95 -54.8 -8.7 -57.95 -11.45 -60.25 -8.35 -62.35 -5.45 -62.35 -3.65 -62.35 -1.9 -60.6 -4.85 -58.85 -7.8 -55.3 -4.15 -51.8 -0.5 -49.5 -1
M 24.95 -5.85
Q 21.8 -3.3 19.5 -2.5 17.4 -1.5 17.4 -0.3 17.4 0.95 19.7 1.55 22 2.15 25.5 -1.25 29 -4.65 30.8 -1.6 32.55 1.45 32.55 -0.3 32.55 -2.1 30.45 -5.1 28.15 -8.4 24.95 -5.85 Z"/>
</g>

<g id="Duplicate_Items_Folder_brain_copy_0_Layer1_0_FILL">
<path fill="url(#Gradient_1)" stroke="none" d="
M 54.3 -25.15
Q 53.940234375 -38.790625 40.2 -39.65 33.9564453125 -55.0728515625 18.05 -52.1 2.893359375 -66.0568359375 -13.05 -54.25 -22.6251953125 -59.7322265625 -33.65 -55.25 -41.0111328125 -49.2265625 -40.6 -39.4 -57.031640625 -39.735546875 -51.35 -24.4
L -44.55 -31.05 -51.35 -24.4
Q -51.3103515625 -24.377734375 -51.3 -24.35 -60.3833984375 -8.9001953125 -51.45 1.8 -50.5564453125 -3.71640625 -46.1 -4.55 -50.5564453125 -3.71640625 -51.45 1.8 -51.378515625 1.9076171875 -51.3 2 -50.5974609375 13.850390625 -37 10.8 -36.8693359375 10.80234375 -36.75 10.75 -32.53671875 9.2123046875 -32.4 5.7 -32.53671875 9.2123046875 -36.75 10.75 -36.60234375 10.7365234375 -36.45 10.7 -25.3421875 27.440234375 -7.9 23 -7.7400390625 23.1150390625 -7.6 23.2 -12.7943359375 18.4375 -13.3 13.65 -12.7943359375 18.4375 -7.6 23.2 8.272265625 34.367578125 23.4 19.95 18.9185546875 15.9625 19.3 11.95 18.9185546875 15.9625 23.4 19.95 23.5146484375 19.8818359375 23.6 19.8 28.65 23.90546875 33.7 19.4 50.537109375 14.840234375 48.35 1 65.61640625 -6.01796875 54.3 -25.15
M 30.9 -33.9
Q 30.9802734375 -33.8033203125 31.05 -33.7 42.66484375 -33.438671875 45.55 -24.15 47.019921875 -19.528125 46.3 -12.65 47.4189453125 -21.3365234375 53.8 -24.65 47.4189453125 -21.3365234375 46.3 -12.65
L 46.25 -12.4 46.3 -12.65
Q 47.019921875 -19.528125 45.55 -24.15
L 38.85 -17.9
Q 38.7333984375 -8.1189453125 32.95 -4.5 30.38515625 -2.869921875 26.7 -2.15 24.6384765625 4.817578125 30.1 11.75 24.6384765625 4.817578125 26.7 -2.15 26.0134765625 -3.132421875 25.2 -4.15 26.0134765625 -3.132421875 26.7 -2.15 30.38515625 -2.869921875 32.95 -4.5
L 29.95 -11.55
Q 26.411328125 -22.0224609375 30.9 -33.9 21.163671875 -48.1505859375 8.15 -36.95 4.584765625 -34.01328125 3.8 -14.95 4.584765625 -34.01328125 8.15 -36.95 -6.79609375 -49.6931640625 -13.4 -33.7 -12.054296875 -28.126953125 -13 -23.4 -12.7435546875 -16.067578125 -8.4 -18.55 -8.1923828125 -26.7486328125 -3.8 -34.3 -8.1923828125 -26.7486328125 -8.4 -18.55 -8.4376953125 -16.3953125 -8.2 -14.2 -4.4548828125 -2.6625 1.15 0 9.2736328125 -10.3119140625 25 -4.55 9.2736328125 -10.3119140625 1.15 0 -0.3220703125 1.9234375 -1.55 4.35
L -1.55 4.5
Q -1.435546875 4.6447265625 -1.35 4.8 1.7951171875 10.0697265625 0.75 15.35 1.7951171875 10.0697265625 -1.35 4.8 -1.435546875 4.6447265625 -1.55 4.5 -12.6044921875 -2.19921875 -24.3 1.35 -24.043359375 4.2046875 -25.2 7.05 -24.043359375 4.2046875 -24.3 1.35 -24.7720703125 -4.6740234375 -31.8 -10.7 -31.6998046875 -10.825 -31.8 -10.95
L -32.35 -16.3 -36.4 -17.05 -32.35 -16.3 -32.3 -16.3 -32.55 -18.15 -32.6 -23.8
Q -45.96171875 -23.916015625 -40.55 -11.15 -35.2060546875 -8.781640625 -39.05 0.35 -35.2060546875 -8.781640625 -40.55 -11.15 -45.96171875 -23.916015625 -32.6 -23.8 -32.451171875 -23.8029296875 -32.3 -23.8 -30.79609375 -44.6798828125 -13.4 -33.7 -6.79609375 -49.6931640625 8.15 -36.95 21.163671875 -48.1505859375 30.9 -33.9
M 40.15 -39.4
L 35.8 -38.85 40.15 -39.4
M 7.8 -48.15
Q 11.1962890625 -46.9630859375 11.55 -45.1 16.35625 -50.16796875 28.05 -47.75 16.35625 -50.16796875 11.55 -45.1 11.1962890625 -46.9630859375 7.8 -48.15
M 19.15 -6.85
Q 16.59375 -18.6658203125 20.1 -28.6 16.59375 -18.6658203125 19.15 -6.85
M 47.75 -3
L 48.5 -6.8 47.75 -3
Q 44.525 0.2986328125 41.3 0.6 44.525 0.2986328125 47.75 -3
M 15.9 13.85
Q 18.35 10.05 22.15 11.4 18.35 10.05 15.9 13.85
M -8.75 -49.65
L -12.7 -53.8 -8.75 -49.65
Q -12.572265625 -43.6994140625 -20.1 -43.6 -12.572265625 -43.6994140625 -8.75 -49.65
M -38.1 -34.5
L -33.95 -35.45
Q -32.1298828125 -37.844140625 -33.55 -40.75 -32.1298828125 -37.844140625 -33.95 -35.45
L -38.1 -34.5 Z"/>

<path fill="#FB62BE" stroke="none" d="
M -32.3 -23.8
Q -32.451171875 -23.8029296875 -32.6 -23.8
L -32.55 -18.15 -32.3 -16.3 -32.35 -16.3 -31.8 -10.95
Q -31.6998046875 -10.825 -31.8 -10.7 -24.7720703125 -4.6740234375 -24.3 1.35 -12.6044921875 -2.19921875 -1.55 4.5
L -1.55 4.35
Q -0.3220703125 1.9234375 1.15 0 -4.4548828125 -2.6625 -8.2 -14.2 -8.4376953125 -16.3953125 -8.4 -18.55 -12.7435546875 -16.067578125 -13 -23.4 -13.7802734375 -19.4578125 -16.3 -16.1 -13.7802734375 -19.4578125 -13 -23.4 -12.054296875 -28.126953125 -13.4 -33.7 -30.79609375 -44.6798828125 -32.3 -23.8
M -25.2 -15.35
Q -23.9900390625 -9.5892578125 -15.95 -5.65 -23.9900390625 -9.5892578125 -25.2 -15.35 -26.4482421875 -23.6984375 -22.95 -29.75 -26.4482421875 -23.6984375 -25.2 -15.35
M 31.05 -33.7
Q 30.9802734375 -33.8033203125 30.9 -33.9 26.411328125 -22.0224609375 29.95 -11.55
L 32.95 -4.5
Q 38.7333984375 -8.1189453125 38.85 -17.9 38.85 -18.09296875 38.85 -18.3 38.85 -18.09296875 38.85 -17.9
L 45.55 -24.15
Q 42.66484375 -33.438671875 31.05 -33.7 Z"/>
</g>

<g id="Duplicate_Items_Folder_brain_copy_0_Layer0_0_FILL">
<path fill="#FED6EE" stroke="none" d="
M -6.8 8.15
Q -5.55 9.2 -5.3 7.8 -5.05 6.45 -6.9 5.05 -8.75 3.7 -11.6 3.15 -14.5 2.55 -16.7 3.15 -19 3.7 -19.25 5.1 -19.5 6.5 -16 5.2 -12.55 3.9 -10.35 5.45 -8.05 7.05 -6.8 8.15
M 11.65 -2.9
Q 7.7 -2.1 5.2 -0.35 2.65 1.4 3 3.05 3.35 4.7 7.1 1.55 10.8 -1.6 14.4 -1 18.1 -0.45 20.2 0.1 22.3 0.65 21.95 -1 21.6 -2.65 18.55 -3.2 15.55 -3.75 11.65 -2.9
M 3.55 -34.65
Q 3.25 -36.8 1.15 -38.4 -0.8 -39.9 -3.4 -40 -6.05 -40.1 -7.65 -38.6 -9.3 -37.15 -9 -34.95 -8.7 -32.75 -6.3 -35.7 -3.9 -38.6 -1.5 -36.85 1 -35 2.4 -33.7 3.85 -32.45 3.55 -34.65 Z"/>

<path fill="#FDBDE3" stroke="none" d="
M -15.9 -30
Q -16.2 -32.15 -18.3 -33.75 -20.25 -35.25 -22.85 -35.35 -25.5 -35.45 -27.1 -33.95 -28.75 -32.5 -28.45 -30.3 -28.15 -28.1 -25.75 -31.05 -23.35 -33.95 -20.95 -32.2 -18.45 -30.35 -17.05 -29.05 -15.6 -27.8 -15.9 -30 Z"/>

<path fill="#FA1FA3" stroke="none" d="
M -52.9 -14.15
Q -53.4 -10.6 -52.2 -8.1 -51.05 -5.6 -48.9 -5.7 -46.75 -5.85 -49.25 -9.55 -51.65 -13.25 -49.65 -16.3 -47.6 -19.4 -46.2 -21.15 -44.75 -22.95 -46.9 -22.85 -49 -22.7 -50.75 -20.1 -52.4 -17.65 -52.9 -14.15
M 42.15 11.45
Q 44.25 9.05 44.4 6.5 44.6 4 42.75 2.95 40.85 1.95 41.2 6.05 41.5 10.1 38.35 11.3 35.2 12.6 33.2 13.15 31.1 13.7 33 14.8 34.8 15.8 37.5 14.8 40.1 13.85 42.15 11.45 Z"/>

<path fill="#FDCEEF" stroke="none" d="
M -26.65 -51.6
Q -22.9 -51.5 -20.65 -51.2 -18.35 -50.95 -19.75 -52.75 -21.15 -54.45 -24.25 -54.55 -27.25 -54.7 -30.3 -53.25 -33.45 -51.75 -34.65 -49.4 -35.95 -47.1 -34.55 -45.3 -33.15 -43.55 -31.75 -47.65 -30.25 -51.7 -26.65 -51.6
M 3.1 -54.25
Q 6.65 -53 8.7 -52.05 10.8 -51.15 9.95 -52.95 9.05 -54.7 6.15 -55.75 3.35 -56.8 0.1 -56.7 -3.3 -56.55 -5 -55.15 -6.85 -53.85 -5.95 -52.05 -5.1 -50.25 -2.7 -52.9 -0.25 -55.45 3.1 -54.25 Z"/>

<path fill="#F90698" stroke="none" d="
M 10.75 20.1
Q 6.2 22.75 2.15 20.95 -1.95 19.1 -4.25 17.9 -6.65 16.55 -6.35 18.7 -6.05 20.75 -2.65 22.3 0.6 23.8 5.1 24.05 9.65 24.3 12.8 22.95 15.95 21.65 15.7 19.5 15.4 17.4 10.75 20.1 Z"/>

<path fill="#FEE7F5" stroke="none" d="
M 20.55 -35.7
Q 23.85 -33.85 25.7 -32.55 27.6 -31.3 27.2 -33.5 26.8 -35.65 24.05 -37.25 21.45 -38.75 18.05 -38.85 14.55 -38.95 12.45 -37.45 10.25 -36 10.65 -33.8 11.05 -31.6 14.2 -34.55 17.4 -37.45 20.55 -35.7 Z"/>

<path fill="#FDB5E0" stroke="none" d="
M 38.4 -28.35
Q 36.85 -30.25 34.3 -30.85 32.75 -31.2 31.4 -30.95
L 30.65 -27.25
Q 33.55 -29.55 35.5 -27.4 37.6 -25.1 38.65 -23.5 39.85 -22 40 -24.2 40.15 -26.35 38.4 -28.35 Z"/>
</g>

<path id="Duplicate_Items_Folder_body_suit_0_Layer2_0_1_STROKES" stroke="#000000" stroke-width="3.6" stroke-linejoin="round" stroke-linecap="round" fill="none" d="
M 3.05 28.45
Q 2.85 29.45 1.45 30.1 -0.1 30.85 -2.35 30.7 -4.6 30.6 -6.15 29.7 -7.5 28.9 -7.65 27.9 -7.7 27.75 -7.7 27.6"/>

<path id="Duplicate_Items_Folder_body_suit_0_Layer0_0_1_STROKES" stroke="#000000" stroke-width="2" stroke-linejoin="round" stroke-linecap="round" fill="none" d="
M -1.75 22.85
Q -2.35 22.75 -2.95 22.2 -3.8 21.45 -3.8 20.15
L -3.85 15.9
Q -9.1 17.1 -14.9 21.15 -15.8 21.25 -16.65 20.5 -17.45 19.8 -17.5 18.6
L -17.5 18.55
Q -17.5 17.45 -16.7 16.45 -16.35 16.05 -15.8 15.8 -15.35 15.6 -14.95 15.5 -9.45 10.75 -3.85 9.95
L -4.15 5.5
Q -10.15 8 -17.15 11.6 -17.4 11.85 -17.7 12 -18.9 12 -19.8 11.2 -20.85 10.3 -20.85 9.1
L -20.85 9.05
Q -20.85 7.9 -19.85 6.95 -18.9 6.2 -17.75 6.1 -10.85 1.55 -3.95 1.3
L -3.7 -4.95
Q -12.25 -3.75 -15.2 1.3 -16.05 1.35 -16.9 0.35 -17.75 -0.45 -17.85 -1.7
L -17.85 -1.8
Q -17.8 -2.9 -17 -3.7 -16.15 -4.45 -15.25 -4.45 -9.7 -8.45 -4.05 -8.35
L -4.05 -9.4
Q -4.05 -10.7 -3.2 -11.45 -2.85 -11.75 -2.5 -11.9 -2.1546875 -11.986328125 -1.775 -12
L -1.65 -12
Q -0.75 -12 -0.1 -11.45 0.75 -10.7 0.75 -9.4
L 0.75 -8.35
Q 6.4 -8.45 11.95 -4.45 12.85 -4.45 13.7 -3.7 14.5 -2.9 14.55 -1.8
L 14.55 -1.7
Q 14.45 -0.45 13.6 0.35 12.75 1.35 11.9 1.3 8.95 -3.75 0.4 -4.95
L 0.65 1.3
Q 7.55 1.55 14.45 6.1 15.6 6.2 16.55 6.95 17.5 7.9 17.5 9.05
L 17.5 9.1
Q 17.5 10.3 16.5 11.2 15.6 12 14.4 12 14.1 11.85 13.85 11.6 6.85 8 0.85 5.5
L 0.55 9.95
Q 6.1 10.75 11.65 15.5 12.05 15.6 12.45 15.8 13.05 16.05 13.35 16.45 14.2 17.45 14.2 18.55
L 14.2 18.6
Q 14.1 19.8 13.35 20.5 12.45 21.25 11.6 21.15 5.8 17.1 0.55 15.9
L 0.5 20.15
Q 0.5 21.45 -0.35 22.2 -0.95 22.75 -1.6 22.85
M -2.5 -11.9
Q -2.35 -11.9 -2.15 -11.95 -1.9603515625 -11.987890625 -1.775 -12"/>

<path id="Duplicate_Items_Folder_leg_suit_0_Layer0_0_1_STROKES" stroke="#000000" stroke-width="3" stroke-linejoin="round" stroke-linecap="round" fill="none" d="
M 21.25 24.1
L 21.2 24.1 21.175 24.125 21.25 24.1
Q 21.25 24.05 21.3 24.05 21.5 24 21.5 23.95 21.4 23.95 21.35 24 20.65 24.15 20.1 24.35
L 20.85 24.4
Q 21.0818359375 24.2609375 21.175 24.125
L 20.875 24.225
Q 21.05390625 24.1583984375 21.2 24.1
M 21.55 24.05
L 21.3 24.1 21.25 24.1
M 22.5 23.75
Q 22.419921875 23.76484375 22.35 23.775 22.2435546875 23.8126953125 22.15 23.85 22.2 23.85 22.3 23.85 22.35 23.85 22.4 23.8
L 22.5 23.75
Q 22.5533203125 23.7333984375 22.6 23.725 22.6515625 23.7080078125 22.7 23.7
L 22.75 23.65
Q 22.56796875 23.7107421875 22.35 23.775 22.207421875 23.8107421875 22.05 23.85
L 22.15 23.85 21.85 23.975
Q 22.063671875 23.9091796875 22.3 23.85
L 20.85 24.4
Q 21.2 24.2 21.55 24.05 21.596875 24.03671875 21.65 24.025
L 21.65 24
Q 21.45 24.05 21.3 24.05
L 21.525 24
Q 21.625 23.975 21.7 23.95 21.6 23.95 21.5 23.95
M 22.15 23.85
Q 22.0408203125 23.853125 21.9 23.9
L 21.85 23.95 21.8 23.95 21.75 23.95 21.75 24 21.85 23.975
M 21.8 23.9
L 21.75 23.95
Q 21.8013671875 23.9015625 21.85 23.9
L 21.8 23.9
Q 21.85 23.85 21.9 23.85 22.15 23.75 22.3 23.65
L 23.05 23.575
Q 23.175 23.525 23.3 23.5 23.440625 23.5 23.625 23.5
L 23.65 23.5
Q 23.7 23.45 23.75 23.45
L 23.85 23.45
Q 24.15 23.4 24.35 23.4 29.55 21.15 27.2 13.6 23.6 8.95 20.8 7.45
L 18.8 4.35
M -12.5 24.8
Q -19.7 26.05 -20.6 27.1 -21.2 27.7 -21.6 29.15
M 21.8 23.9
Q 21.75 23.9 21.7 23.95
L 21.75 23.95 21.525 24
M 21.85 23.9
L 21.9 23.9 21.9 23.85
M 21.9 23.9
Q 21.95 23.85 22.05 23.85
M 21.85 23.9
L 21.8 23.95
M 21.65 24
L 21.7 24 21.75 24
M 21.55 24.05
L 21.65 24.05 21.65 24.025
M 21.65 24.05
L 21.7 24
Q 21.6744140625 24.0095703125 21.65 24.025
M 21.75 23.95
Q 21.6875 23.9625 21.65 24
M 23.3 23.5
Q 23.1720703125 23.551171875 23.025 23.6 23.4046875 23.5052734375 23.625 23.5
M 24.35 23.45
Q 24.1 23.45 23.85 23.45 23.95 23.55 22.4 23.8
M 23.025 23.6
Q 22.8708984375 23.651171875 22.7 23.7
M 22.75 23.65
Q 22.9 23.6 23.05 23.575
M 18.7 24.25
L 20.1 24.35
Q 16.95 25.25 15.2 24.8 13.3 26.1 8.1 27.2
L 1.85 28.5 1.8 28.55
Q 0.85 28.65 0.05 29.2 -0.8 29.7 -1.4 30.65 -2.65 32.3 -8.1 34.6 -13.65 36.9 -17 35.65
L -18.35 35
Q -22.55 33.55 -21.85 31.9 -21.55 31 -21.9 30.8 -22.15 30.6 -24.65 31.45 -27.3 32.3 -30.65 28.45 -31.35 27.75 -31.25 26.4
L -31.15 25.15
Q -32.55 25.9 -34.35 23.85 -36.15 21.75 -33.55 17.95
L -28.55 17.1
Q -26.85 17.7 -26.35 17.9
L -26.3 17.9
Q -26.2 17.9 -26.15 17.9
L -19.95 15.5
Q -19.25 15.45 -18.45 15.3 -17.5 15 -16.4 14.6 -13.45 13.35 -9.35 10.55
L -1.6 5.05 2.8 0.35
M 15.2 24.8
L 18.7 24.25
Q 20.25 24.05 21.35 24
M -28 23.9
Q -26.85 24.2 -25.3 23.95 -25.2 24 -22.75 23.15
M -30.7 24.7
Q -29.15 24.05 -28 23.9"/>

<path id="Duplicate_Items_Folder_head_7_Layer2_0_1_STROKES" stroke="#000000" stroke-width="5" stroke-linejoin="round" stroke-linecap="round" fill="none" d="
M 20.55 -131.7
L 22.35 -147.3 9.85 -162.8
M 29.35 -160.25
Q 65.45 -151.35 78.85 -113.1 79.2 -112.4 79.35 -111.7 78.85 -62.25 70.55 -27.8 51.2 52.2 -10.75 50.95 -12.7 50.85 -14.65 51 -16.75 50.4 -19.05 50.3 -81 47.65 -100.4 -33.55 -108.65 -68.5 -109.2 -118 -109 -118.65 -108.65 -119.35 -95.25 -156.8 -59.2 -163.4 -48.25 -165.7 -37.7 -166.6
L -32.75 -140.75
M -1.95 -89.25
L 21.8 -84.65 41.15 -99.2 65.1 -100.9
M 7.9 -164.85
L 2.95 -139.3
M 7.35 -62.05
L 14.25 -71.15 39.4 -70.35 48.05 -77.65 64.4 -68.35 63.7 -50.2 56.85 -44.8 70.55 -27.8
M 13 -16.75
L 35 -26.65
M 55.6 -13.5
L 43.1 -42.05 48.75 -61.95
M -15.1 -135.25
Q -15.15 -167.3 -14.65 -166.95 -13.75 -167.1 -12.7 -166.9
M -50.4 -134.25
L -52.15 -150 -39.65 -164.75
M -37.15 -63.8
L -44.05 -73.3 -69.2 -74.1 -77.85 -82 -94.2 -73.7 -93.5 -55.55 -86.65 -49.65 -100.4 -33.55
M -41.55 -16.75
L -64.8 -30.2
M -18.25 -25.3
L -28.3 -32.45
M -12.45 -24.75
L -2.4 -31.3
M -85.4 -18.35
L -72.9 -46.1 -78.55 -66.3
M -27.85 -90.4
L -51.6 -87.3 -70.95 -103.05 -94.9 -106.3
M -2.65 40.5
Q -15.85 33 -27.15 39.35"/>

<path id="Duplicate_Items_Folder_brain_copy_0_Layer1_0_1_STROKES" stroke="#000000" stroke-width="3" stroke-linejoin="round" stroke-linecap="round" fill="none" d="
M 30.9 -33.9
Q 26.411328125 -22.0224609375 29.95 -11.55
M 32.95 -4.475
Q 38.7333984375 -8.1189453125 38.85 -17.9 38.85 -18.09296875 38.85 -18.3
M 40.15 -39.4
L 35.8 -38.85
M 7.8 -48.15
Q 11.1962890625 -46.9630859375 11.55 -45.1 16.35625 -50.16796875 28.05 -47.75
M 25.2 -4.15
Q 26.0134765625 -3.132421875 26.7 -2.125 30.38515625 -2.869921875 32.95 -4.475
M -13.4 -33.7
Q -6.79609375 -49.6931640625 8.15 -36.95 21.163671875 -48.1505859375 30.9 -33.9
M 8.15 -36.95
Q 4.584765625 -34.01328125 3.8 -14.95
M 19.15 -6.85
Q 16.59375 -18.6658203125 20.1 -28.6
M 53.8 -24.65
Q 47.4189453125 -21.3365234375 46.3 -12.65
L 46.275 -12.375
M 41.3 0.6
Q 44.525 0.2986328125 47.75 -3
L 48.5 -6.8
M 46.3 -12.65
Q 47.019921875 -19.528125 45.575 -24.15
M -51.325 -24.4
Q -57.031640625 -39.735546875 -40.6 -39.4 -41.0111328125 -49.2265625 -33.65 -55.25 -22.6251953125 -59.7322265625 -13.05 -54.25 2.893359375 -66.0568359375 18.05 -52.1 33.9564453125 -55.0728515625 40.2 -39.65 53.940234375 -38.790625 54.3 -25.15 65.61640625 -6.01796875 48.35 1 50.537109375 14.840234375 33.7 19.4 28.65 23.90546875 23.6 19.8 23.5146484375 19.8818359375 23.425 19.975 8.272265625 34.367578125 -7.575 23.225 -7.7400390625 23.1150390625 -7.9 23 -25.3421875 27.440234375 -36.45 10.7 -36.60234375 10.7365234375 -36.75 10.775 -36.8693359375 10.80234375 -37 10.825 -50.5974609375 13.850390625 -51.3 2 -51.378515625 1.9076171875 -51.45 1.825 -60.3833984375 -8.9001953125 -51.3 -24.35 -51.3103515625 -24.377734375 -51.325 -24.4
L -44.55 -31.05
M 45.575 -24.15
Q 42.66484375 -33.438671875 31.05 -33.7
M 15.9 13.85
Q 18.35 10.05 22.15 11.4
M 19.3 11.95
Q 18.9185546875 15.9625 23.425 19.975
M 25 -4.55
Q 9.2736328125 -10.3119140625 1.15 0.025 -0.3220703125 1.9234375 -1.55 4.35
L -1.525 4.5
Q -1.435546875 4.6447265625 -1.35 4.8 1.7951171875 10.0697265625 0.75 15.35
M 30.1 11.75
Q 24.6384765625 4.817578125 26.7 -2.125
M -20.1 -43.6
Q -12.572265625 -43.6994140625 -8.75 -49.65
L -12.7 -53.8
M -38.1 -34.5
L -33.95 -35.45
Q -32.1298828125 -37.844140625 -33.55 -40.75
M -13 -23.375
Q -12.054296875 -28.126953125 -13.4 -33.7 -30.79609375 -44.6798828125 -32.3 -23.8 -32.451171875 -23.8029296875 -32.6 -23.8
L -32.55 -18.15 -32.3 -16.3 -32.35 -16.3
M -31.775 -10.7
Q -24.7720703125 -4.6740234375 -24.275 1.35 -12.6044921875 -2.19921875 -1.525 4.5
M -32.35 -16.3
L -36.4 -17.05
M -16.3 -16.1
Q -13.7802734375 -19.4578125 -13 -23.375
M -8.375 -18.55
Q -8.1923828125 -26.7486328125 -3.8 -34.3
M 1.15 0.025
Q -4.4548828125 -2.6625 -8.2 -14.2 -8.4376953125 -16.3953125 -8.375 -18.55
M -22.95 -29.75
Q -26.4482421875 -23.6984375 -25.2 -15.35 -23.9900390625 -9.5892578125 -15.95 -5.65
M -32.6 -23.8
Q -45.96171875 -23.916015625 -40.55 -11.15 -35.2060546875 -8.781640625 -39.05 0.35
M -13.3 13.65
Q -12.7943359375 18.4375 -7.575 23.225
M -36.75 10.775
Q -32.53671875 9.2123046875 -32.4 5.7
M -24.275 1.35
Q -24.043359375 4.2046875 -25.2 7.05
M -51.45 1.825
Q -50.5564453125 -3.71640625 -46.1 -4.55"/>
</defs>

<g transform="matrix( 5.072540283203125, 0, 0, 5.072540283203125, 281.5,505.35) ">
<g filter="url(#Filter_1)" transform="matrix( 0.1971282958984375, 0, 0, 0.1971282958984375, -55.45,-99.6) ">
<g id="character" transform="matrix( 5.072540283203125, 0, 0, 5.072540283203125, 84.15,525.6) ">
<g transform="matrix( 0.117462158203125, 0.265655517578125, 0.281494140625, -0.12445068359375, 26.35,-24.95) ">
<g transform="matrix( 1, 0, 0, 1, 0,0) ">
<use xlink:href="#Duplicate_Items_Folder_arm_knives_0_Layer0_0_FILL"/>
</g>
</g>

<g transform="matrix( -0.2501220703125, -0.0876922607421875, -0.0876922607421875, 0.2501220703125, 50.95,-23.95) ">
<g transform="matrix( 1, 0, 0, 1, 0,0) ">
<use xlink:href="#Duplicate_Items_Folder_arm_suit_0_Layer1_0_FILL"/>
</g>
</g>

<g transform="matrix( 0.294281005859375, -0.01226806640625, 0.008636474609375, 0.29388427734375, 39.3,-28.05) ">
<g transform="matrix( 1, 0, 0, 1, 0,0) ">
<use xlink:href="#Duplicate_Items_Folder_body_suit_0_Layer3_0_FILL"/>
</g>

<g transform="matrix( 1, 0, 0, 1, 0,0) ">
<use xlink:href="#Duplicate_Items_Folder_body_suit_0_Layer2_0_FILL"/>

<use xlink:href="#Duplicate_Items_Folder_body_suit_0_Layer2_0_1_STROKES"/>
</g>

<g transform="matrix( 1, 0, 0, 1, 0,0) ">
<use xlink:href="#Duplicate_Items_Folder_body_suit_0_Layer1_0_FILL"/>
</g>

<g transform="matrix( 1, 0, 0, 1, 0,0) ">
<use xlink:href="#Duplicate_Items_Folder_body_suit_0_Layer0_0_FILL"/>

<use xlink:href="#Duplicate_Items_Folder_body_suit_0_Layer0_0_1_STROKES"/>
</g>
</g>

<g transform="matrix( 0.286407470703125, 0.020233154296875, -0.020233154296875, 0.286407470703125, 31.1,-9.7) ">
<g transform="matrix( 1, 0, 0, 1, 0,0) ">
<use xlink:href="#Duplicate_Items_Folder_leg_suit_0_Layer1_0_FILL"/>
</g>

<g transform="matrix( 1, 0, 0, 1, 0,0) ">
<use xlink:href="#Duplicate_Items_Folder_leg_suit_0_Layer0_0_FILL"/>

<use xlink:href="#Duplicate_Items_Folder_leg_suit_0_Layer0_0_1_STROKES"/>
</g>
</g>

<g transform="matrix( -0.293487548828125, 0.019134521484375, 0.019134521484375, 0.293487548828125, 46.7,-9.55) ">
<g transform="matrix( 1, 0, 0, 1, 0,0) ">
<use xlink:href="#Duplicate_Items_Folder_leg_suit_0_Layer1_0_FILL"/>
</g>

<g transform="matrix( 1, 0, 0, 1, 0,0) ">
<use xlink:href="#Duplicate_Items_Folder_leg_suit_0_Layer0_0_FILL"/>

<use xlink:href="#Duplicate_Items_Folder_leg_suit_0_Layer0_0_1_STROKES"/>
</g>
</g>

<g transform="matrix( 0.239959716796875, -0.012847900390625, 0.0034332275390625, 0.2400970458984375, 41.95,-45.4) ">
<g transform="matrix( 1, 0, 0, 1, 0,0) ">
<use xlink:href="#Duplicate_Items_Folder_head_7_Layer3_0_FILL"/>
</g>

<g transform="matrix( 1, 0, 0, 1, 0,0) ">
<use xlink:href="#Duplicate_Items_Folder_head_7_Layer2_0_FILL"/>

<use xlink:href="#Duplicate_Items_Folder_head_7_Layer2_0_1_STROKES"/>
</g>

<g transform="matrix( 1.088836669921875, 0.0430908203125, -0.039886474609375, 1.0074615478515625, -18.6,-139.3) ">
<g transform="matrix( 1, 0, 0, 1, 0,0) ">
<use xlink:href="#Duplicate_Items_Folder_brain_copy_0_Layer1_0_FILL"/>

<use xlink:href="#Duplicate_Items_Folder_brain_copy_0_Layer1_0_1_STROKES"/>
</g>

<g transform="matrix( 1, 0, 0, 1, 0,0) ">
<use xlink:href="#Duplicate_Items_Folder_brain_copy_0_Layer0_0_FILL"/>
</g>
</g>
</g>
</g>
</g>
</g>
</svg>
