
<svg xmlns="http://www.w3.org/2000/svg" version="1.1" xmlns:xlink="http://www.w3.org/1999/xlink" preserveAspectRatio="none" x="0px" y="0px" width="560px" height="544px" viewBox="0 0 560 544">
<defs>
<g id="Duplicate_Items_Folder_leg_suit_copy_0_Layer1_0_FILL">
<path fill="#4D372B" stroke="none" d="
M 13.15 -0.65
Q 13.95 -4.35 13.95 -5.95 14.05 -9.75 14.1 -12.8 14.1 -15.6 14.1 -17.8 14.05 -20.9 13.9 -23.15 13.753125 -25.15625 11.8 -27.75 13.3271484375 -9.7375 6.35 8.25 11.907421875 10.833984375 12.8 11.5 12.35 9.35 11.9 8.35 11.3 6.9 12.5 2.05 12.85 0.6 13.15 -0.65 Z"/>

<path fill="#000000" stroke="none" d="
M 16.7 -27.45
L 10.6 -29.55 10.25 -29.7
Q 11.1 -28.75 11.75 -27.85 11.7927734375 -27.793359375 11.8 -27.75 13.753125 -25.15625 13.9 -23.15 14.05 -20.9 14.1 -17.8 14.1 -15.6 14.1 -12.8 14.05 -9.75 13.95 -5.95 13.95 -4.35 13.15 -0.65 12.85 0.6 12.5 2.05 11.3 6.9 11.9 8.35 12.35 9.35 12.8 11.5 11.907421875 10.833984375 6.35 8.25 5.9876953125 8.0666015625 5.55 7.85 1.844921875 6.141015625 -3.2 6.4 -5.2359375 6.5216796875 -7.55 6.95 -8.9994140625 7.262890625 -10.6 7.7 -16.126171875 9.241796875 -17.3 10.3 -17.003515625 9.1755859375 -16.75 7.95 -15.7 2.95 -13.45 -3.55 -12 -7.75 -10.05 -12.6 -8.9 -15.45 -7.85 -17.8 -5.25 -23.65 -3 -26.8 -2.75 -27.15 0.15 -28.95
L -5.45 -27.45
Q -8.65 -22.55 -12.4 -14 -18.4 -0.25 -20.55 8.85 -22.5 17.25 -25.45 23.25 -23.3 25.85 -18.8 27.85 -17.05 28.6 -14.95 29.3 -8.8 31.2 -3.75 31.2 -0.85 31.2 6.05 29.5 5.8 29.85 9.5 28.6 18.4 25.6 17.5 22.25 16.8 20.05 16 15.05 15.25 10.95 14.45 9.3 13.7 7.7 15.2 2.3 16.95 -4.2 16.95 -6.6 17.2 -14.65 17.15 -19.8 17.1 -24.45 16.7 -27.45 Z"/>

<path fill="#574331" stroke="none" d="
M 7.2 -30.3
Q 7.05 -30.25 6.9 -30.2
L 3.4 -28.1
Q -2.426171875 -10.8375 -3.2 6.4 1.844921875 6.141015625 5.55 7.85 5.9876953125 8.0666015625 6.35 8.25 13.3271484375 -9.7375 11.8 -27.75 11.7927734375 -27.793359375 11.75 -27.85 11.1 -28.75 10.25 -29.7
L 10.6 -29.55
Q 9.25 -30.85 7.2 -30.3
M 3.55 -29.45
Q 3.6271484375 -29.4404296875 3.65 -29.45 4.7837890625 -29.7748046875 6.85 -30.25 6.9 -30.25 6.9 -30.2
L 7 -30.25 7.3 -30.45 4.55 -30.3
Q 6.4 -30.5 6.15 -30.65 1.45 -30.25 0.15 -28.95 -2.75 -27.15 -3 -26.8 -5.25 -23.65 -7.85 -17.8 -8.9 -15.45 -10.05 -12.6 -12 -7.75 -13.45 -3.55 -15.7 2.95 -16.75 7.95 -17.003515625 9.1755859375 -17.3 10.3 -16.126171875 9.241796875 -10.6 7.7 -8.9994140625 7.262890625 -7.55 6.95 -4.574609375 -11.264453125 3.1 -27.9
L 2.4 -27.45
Q 2.35 -28.3 2.45 -28.95 2.475 -29.100390625 3.55 -29.45 Z"/>

<path fill="#836049" stroke="none" d="
M 3.4 -28.1
L 3.1 -27.9
Q -4.574609375 -11.264453125 -7.55 6.95 -5.2359375 6.5216796875 -3.2 6.4 -2.426171875 -10.8375 3.4 -28.1 Z"/>

<path fill="#422F17" stroke="none" d="
M 3.1 -27.9
L 3.4 -28.1 6.9 -30.2
Q 6.9 -30.25 6.85 -30.25 4.7837890625 -29.7748046875 3.65 -29.45 3.6271484375 -29.4404296875 3.55 -29.45 2.475 -29.100390625 2.45 -28.95 2.35 -28.3 2.4 -27.45
L 3.1 -27.9 Z"/>
</g>

<g id="right_shoe_0_Layer0_0_FILL">
<path fill="#000000" stroke="none" d="
M 12.4 -14.45
Q 13.2 -16.75 12.05 -17.85 10.95 -18.95 8.6 -18.2 7.4697265625 -17.8068359375 5.2 -16.25
L 5.2 -16.15
Q 4.65 -15.75 4.1 -15.2 3.1 -14.1 2.3 -13.05 1.3 -14.3 -0.95 -16.9 -1 -16.95 -1.05 -17
L -1.05 -17.05
Q -3.8640625 -19.6064453125 -5.5 -19.7 -7.75 -19.9 -8.65 -18.15 -9.45 -16.3 -8.4 -13.7 -8.1 -12.95 -7.7 -12.25 -10.8 -14.9 -13.4 -18.05 -13.65 -14.5 -16.9 -14.2 -11.3 -8.7 -4.85 -7.45 -8.9 -6.6 -12.1 -4.35 -16.95 -0.95 -16.75 4.1 -16.75 4.45 -16.7 4.85 -16.75 4.85 -16.8 4.85 -17.75 6.85 -17.7 9 -17.65 9.5 -17.6 9.95 0.5 15.1 17.5 8.7 17.55 8.25 17.5 7.75 17.45 5.35 16.15 3.35 16.05 3.35 15.95 3.4 15.95 3.2 15.95 2.95 15.75 -2.1 11.1 -5.05 8.8 -6.65 5.85 -7.35 7.7 -8.2 9.45 -9.9 11.6 -12.15 12.4 -14.45
M 11 -16.55
Q 11.75 -15.45 10.95 -13.45 10.3 -11.5 8.65 -10.1 6.9 -8.75 5.25 -8.2 4.15 -7.8 3.45 -7.95 3.25 -8.05 3.05 -8.15 3.25 -8.1 3.5 -8.1 3.95 -8.15 4.6 -8.4 5.9 -9 7.2 -10.35 8.6 -11.7 9.15 -13 9.8 -14.35 9.65 -15.3 9.45 -16.3 7.95 -15.55 6.5 -14.8 5.2 -13.45 5.1 -13.35 5 -13.25 4.4 -12.7 4 -12.15 3.3 -11.4 3 -10.75 2.95 -11.2 2.8 -11.75 3.35 -13.05 4.6 -14.4 4.65 -14.45 4.7 -14.45 5.25 -15.15 5.9 -15.6 6.95 -16.5 8.25 -16.95 10.25 -17.65 11 -16.55
M 1.2 -10.45
Q 1 -11 0.2 -11.95 -0.5 -12.75 -1.3 -13.95 -1.4 -14.1 -1.55 -14.3 -1.85 -14.7 -2.15 -15 -2.95 -15.75 -3.85 -15.95 -5.15 -16.2 -5.6 -15.35 -6 -14.5 -5.25 -12.95 -4.55 -11.5 -3.2 -10.45 -2.85 -10.15 -2.5 -9.9 -2.1 -9.6 -1.65 -9.4 -1.2 -9.15 -0.75 -9.05 0.35 -8.7 0.65 -8.75 1 -8.85 1.1 -8.95 1 -8.8 0.9 -8.65 0.3 -8.15 -0.9 -8.25 -1.3 -8.25 -1.75 -8.3 -2.2 -8.4 -2.6 -8.55 -3 -8.7 -3.4 -8.9 -4.35 -9.6 -5.3 -10.3 -6.35 -11.35 -7 -12.9 -8 -15.2 -7.45 -16.85 -6.9 -18.5 -4.95 -18.3 -3.35 -18.15 -2.05 -16.6 -1.7 -16.25 -1.4 -15.8 -1.3 -15.65 -1.15 -15.5 0.3 -13.5 0.8 -12.8 1.4 -12.05 1.55 -11.3 1.75 -10.6 1.55 -9.8 1.35 -9.95 1.2 -10.45
M 2.9 -6.1
Q 5.95 -5.75 8.5 -4.25 12.55 -1.85 12.7 2.1 12.7 2.45 12.7 2.8 12.45 2.9 12.2 3 11.5 1.25 8.65 0 5 -1.5 -0.1 -1.35 -5.2 -1.15 -8.7 0.65 -9.7 1.15 -10.4 1.75 -11.7 2.8 -11.95 4.05 -12.5 3.85 -13 3.7 -13.05 3.35 -13.05 3 -13.2 -0.95 -9.95 -3.35 -7 -5.5 -2.1 -6.1 -1.65 -6.15 -1.2 -6.2 0.95 -6.35 2.9 -6.1
M 10.5 3.45
Q 10.5 3.5 10.5 3.55 10.5 3.7 10.45 3.8 8.5 4.35 6.55 4.65 -1.75 6.05 -9.65 4.5 -9.65 4.35 -9.65 4.15 -9.7 2.25 -7.3 1.25 -4.9 0.25 -0.5 -0.1 3.9 -0.5 7.2 0.5 10.45 1.55 10.5 3.45
M 10.5 5.65
Q 11.95 5.2 13.45 4.75
L 14.55 8.8
Q 12.65 9.35 11.3 9.65
L 10.5 5.65
M 16.85 8.35
Q 16.1 8.55 15.2 8.6
L 14.3 4.45
Q 14.9 4.25 15.45 4.1 16.65 5.85 16.75 6.9 16.8 7.95 16.85 8.35
M 1.05 7.3
L 1.2 10.9
Q -0.4 10.95 -2.5 11.05
L -2.4 7.4
Q -0.7 7.4 1.05 7.3
M 2.4 10.8
L 1.95 7.2
Q 3.7 7.05 5.5 6.75
L 6.25 10.45
Q 3.95 10.7 2.4 10.8
M 7.25 10.3
L 6.35 6.6
Q 7.95 6.25 9.65 5.9
L 10.45 9.75
Q 8.4 10.15 7.25 10.3
M -12.65 -15.3
L -12.55 -15.6
Q -9.85 -13.4 -6.7 -10.6 -6.6 -10.5 -6.45 -10.4 -5.45 -9.65 -5 -9.05
L -4.05 -8.45 -3.95 -8.15 -4 -8.15
Q -3.85 -8.05 -3.7 -7.95 -5.4 -8.45 -6.9 -9.05 -11.65 -10.9 -14.85 -13.6 -12.85 -13.7 -12.65 -15.3
M -7 10.95
L -6.7 7.15
Q -5.05 7.3 -3.35 7.4
L -3.8 11.1
Q -4.85 10.9 -7 10.95
M -7.55 7.05
L -7.95 10.85
Q -9.1 10.6 -10.5 10.5
L -10.25 6.65
Q -8.95 6.85 -7.55 7.05
M -16.85 9.55
Q -16.9 9.55 -16.95 8.45 -16.95 7.35 -15.8 5.4 -15.35 5.5 -14.85 5.6
L -15.45 9.85
Q -16.2 9.65 -16.85 9.55
M -11.15 6.45
L -11.75 10.35
Q -13 10.2 -14.3 10
L -14.25 5.8
Q -12.75 6.15 -11.15 6.45 Z"/>

<path fill="#CCCCCC" stroke="none" d="
M -11.75 10.35
L -11.15 6.45
Q -12.75 6.15 -14.25 5.8
L -14.3 10
Q -13 10.2 -11.75 10.35
M -16.95 8.45
Q -16.9 9.55 -16.85 9.55 -16.2 9.65 -15.45 9.85
L -14.85 5.6
Q -15.35 5.5 -15.8 5.4 -16.95 7.35 -16.95 8.45
M -7.95 10.85
L -7.55 7.05
Q -8.95 6.85 -10.25 6.65
L -10.5 10.5
Q -9.1 10.6 -7.95 10.85
M -6.7 7.15
L -7 10.95
Q -4.85 10.9 -3.8 11.1
L -3.35 7.4
Q -5.05 7.3 -6.7 7.15
M 6.35 6.6
L 7.25 10.3
Q 8.4 10.15 10.45 9.75
L 9.65 5.9
Q 7.95 6.25 6.35 6.6
M 1.95 7.2
L 2.4 10.8
Q 3.95 10.7 6.25 10.45
L 5.5 6.75
Q 3.7 7.05 1.95 7.2
M 1.2 10.9
L 1.05 7.3
Q -0.7 7.4 -2.4 7.4
L -2.5 11.05
Q -0.4 10.95 1.2 10.9
M 15.2 8.6
Q 16.1 8.55 16.85 8.35 16.8 7.95 16.75 6.9 16.65 5.85 15.45 4.1 14.9 4.25 14.3 4.45
L 15.2 8.6
M 13.45 4.75
Q 11.95 5.2 10.5 5.65
L 11.3 9.65
Q 12.65 9.35 14.55 8.8
L 13.45 4.75
M 10.5 3.55
Q 10.5 3.5 10.5 3.45 10.45 1.55 7.2 0.5 3.9 -0.5 -0.5 -0.1 -4.9 0.25 -7.3 1.25 -9.7 2.25 -9.65 4.15 -9.65 4.35 -9.65 4.5 -1.75 6.05 6.55 4.65 8.5 4.35 10.45 3.8 10.5 3.7 10.5 3.55
M 6.55 3.1
Q 6.55 3.2 5.8 3.35 5.1 3.55 1.1 3.9 -2.9 4.3 -4.85 3.95 -6.8 3.6 -6.8 3.5 -6.85 2.15 -5.25 1.55 -3.7 0.9 -0.75 0.65 2.15 0.4 4.3 1.05 6.5 1.7 6.55 3.05
L 6.55 3.1 Z"/>

<path fill="#FFFFFF" stroke="none" d="
M -12.65 -15.3
Q -12.85 -13.7 -14.85 -13.6 -11.65 -10.9 -6.9 -9.05 -5.5 -8.55 -4 -8.15
L -3.95 -8.15 -4.05 -8.45 -5 -9.05
Q -5.45 -9.65 -6.45 -10.4 -6.6 -10.5 -6.7 -10.6 -9.9 -12.9 -12.65 -15.3
M 5.8 3.35
Q 6.55 3.2 6.55 3.1
L 6.55 3.05
Q 6.5 1.7 4.3 1.05 2.15 0.4 -0.75 0.65 -3.7 0.9 -5.25 1.55 -6.85 2.15 -6.8 3.5 -6.8 3.6 -4.85 3.95 -2.9 4.3 1.1 3.9 5.1 3.55 5.8 3.35
M 0.2 -11.95
Q 1 -11 1.2 -10.45 1.35 -9.95 1.55 -9.8 1.75 -10.6 1.55 -11.3 1.4 -12.05 0.8 -12.8 0.3 -13.5 -1.15 -15.5 -1.3 -15.65 -1.4 -15.8 -1.7 -16.25 -2.05 -16.6 -3.35 -18.15 -4.95 -18.3 -6.9 -18.5 -7.45 -16.85 -8 -15.2 -7 -12.9 -6.35 -11.35 -5.3 -10.3 -4.35 -9.6 -3.4 -8.9 -3 -8.7 -2.6 -8.55 -2.2 -8.4 -1.75 -8.3 -1.3 -8.25 -0.9 -8.25 0.3 -8.15 0.9 -8.65 1 -8.8 1.1 -8.95 1 -8.85 0.65 -8.75 0.35 -8.7 -0.75 -9.05 -1.2 -9.15 -1.65 -9.4 -2.1 -9.6 -2.5 -9.9 -2.85 -10.15 -3.2 -10.45 -4.55 -11.5 -5.25 -12.95 -6 -14.5 -5.6 -15.35 -5.15 -16.2 -3.85 -15.95 -2.95 -15.75 -2.15 -15 -1.85 -14.7 -1.55 -14.3 -1.4 -14.1 -1.3 -13.95 -0.5 -12.75 0.2 -11.95
M 10.95 -13.45
Q 11.75 -15.45 11 -16.55 10.25 -17.65 8.25 -16.95 6.95 -16.5 5.9 -15.6 5.25 -15.15 4.7 -14.45 4.65 -14.45 4.6 -14.4 3.35 -13.05 2.8 -11.75 2.95 -11.2 3 -10.75 3.3 -11.4 4 -12.15 4.4 -12.7 5 -13.25 5.1 -13.35 5.2 -13.45 6.5 -14.8 7.95 -15.55 9.45 -16.3 9.65 -15.3 9.8 -14.35 9.15 -13 8.6 -11.7 7.2 -10.35 5.9 -9 4.6 -8.4 3.95 -8.15 3.5 -8.1 3.25 -8.1 3.05 -8.15 3.25 -8.05 3.45 -7.95 4.15 -7.8 5.25 -8.2 6.9 -8.75 8.65 -10.1 10.3 -11.5 10.95 -13.45 Z"/>

<path fill="#333333" stroke="none" d="
M 8.5 -4.25
Q 5.95 -5.75 2.9 -6.1 0.95 -6.35 -1.2 -6.2 -1.65 -6.15 -2.1 -6.1 -7 -5.5 -9.95 -3.35 -13.2 -0.95 -13.05 3 -13.05 3.35 -13 3.7 -12.5 3.85 -11.95 4.05 -11.7 2.8 -10.4 1.75 -9.7 1.15 -8.7 0.65 -5.2 -1.15 -0.1 -1.35 5 -1.5 8.65 0 11.5 1.25 12.2 3 12.45 2.9 12.7 2.8 12.7 2.45 12.7 2.1 12.55 -1.85 8.5 -4.25 Z"/>
</g>

<g id="arm_chainsaw_0_Layer2_0_FILL">
<path fill="#FFFFFF" stroke="none" d="
M -12.55 13.15
L -11.05 14.7 5.05 0.3 3.4 -1.35 -12.55 13.15 Z"/>

<path fill="#BFBFBF" stroke="none" d="
M 9.3 4.6
L 5.05 0.3 -11.05 14.7 -6.65 19.15 9.3 4.6 Z"/>

<path fill="#CCCCCC" stroke="none" d="
M 3.4 -1.35
L 2.1 -2.7 -13.8 11.85 -13.4 12.3 -12.55 13.15 3.4 -1.35 Z"/>

<path fill="#000000" stroke="none" d="
M 2.1 -2.7
L 3.4 -1.35 5.05 0.3 9.3 4.6 -6.65 19.15 -5.95 19.85 14.3 1.35 5.15 -7.95 -15.1 10.55 -13.4 12.3 -13.8 11.85 2.1 -2.7 Z"/>
</g>

<g id="arm_chainsaw_0_Layer1_0_FILL">
<path fill="#333333" stroke="none" d="
M -32.75 36.45
L -33.15 35.95
Q -32.92421875 36.267578125 -32.7 36.55 -31.9521484375 37.36015625 -31 38.1
L -32.75 36.45
M -0.3 15.05
Q -0.2384765625 14.9994140625 -0.2 14.95
L -0.35 14.95 -0.3 15.05 Z"/>

<path fill="#97A0C6" stroke="none" d="
M -9.4 23
L -19.85 13.8 -23.8 19.65
Q -23.85 19.75 -24 19.8
L -24.05 19.9
Q -24.1 20 -24.2 20.05
L -24.2 20.1
Q -24.3 20.25 -24.45 20.4 -24.474609375 20.4259765625 -24.5 20.45 -25.286328125 21.2880859375 -26.95 23 -26.9630859375 23.0611328125 -27 23.1 -28.4 24.65 -29 24.35
L -30.45 25.45
Q -33.1546875 27.789453125 -34.2 28.85 -34.4462890625 29.11328125 -34.6 29.3 -35.509765625 32.923046875 -33.15 35.95
L -32.75 36.45
Q -30.510546875 38.3900390625 -30.35 38.4
L -22.9 33.95
Q -21.718359375 33.3287109375 -20.6 32.65 -16.3345703125 30.194140625 -13.1 27.3 -11.801171875 26.1783203125 -10.7 24.95 -10.5265625 24.272265625 -9.4 23
M -29.2 24.95
L -29.15 24.9
Q -29.25 25.05 -29.4 25.15 -29.3 25.05 -29.2 24.95 Z"/>

<path fill="#151D39" stroke="none" d="
M -29.15 24.9
L -29.2 24.95
Q -29.3 25.05 -29.4 25.15 -29.25 25.05 -29.15 24.9 Z"/>

<path fill="#000000" stroke="none" d="
M 5.45 13.75
L 1.3 10.05
Q -2.853125 6.4982421875 -3.9 2.3
L -4.15 0.15
Q -8.624609375 -3.422265625 -12.4 -1.75 -15.25 0.3 -15.4 0.55 -16 1.4 -16.5 3.05 -16.7 3.65 -17.05 4.55 -17.1201171875 4.7486328125 -17.2 4.95 -17.4552734375 5.6220703125 -17.8 6.35 -18.5 7.9 -19.45 9.85 -19.52578125 9.95390625 -19.6 10.05 -23.4072265625 15.2708984375 -26.3 18.85 -27.177734375 19.8923828125 -27.95 20.8 -28.0126953125 20.8703125 -28.1 20.9
L -32.45 24.85
Q -33.7775390625 26.78046875 -34.4 28.55 -34.506640625 28.932421875 -34.6 29.3 -34.4462890625 29.11328125 -34.2 28.85 -33.1546875 27.789453125 -30.45 25.45
L -29 24.35
Q -28.4 24.65 -27 23.1 -26.9630859375 23.0611328125 -26.95 23 -25.286328125 21.2880859375 -24.5 20.45 -24.474609375 20.4259765625 -24.45 20.4 -24.3 20.25 -24.2 20.1
L -24.2 20.05
Q -24.1 20 -24.05 19.9
L -24 19.8
Q -23.85 19.75 -23.8 19.65
L -19.85 13.8 -9.4 23
Q -10.5265625 24.272265625 -10.7 24.95 -11.801171875 26.1783203125 -13.1 27.3 -16.3345703125 30.194140625 -20.6 32.65 -21.718359375 33.3287109375 -22.9 33.95
L -30.35 38.4
Q -30.510546875 38.3900390625 -32.75 36.45
L -31 38.1
Q -31.9521484375 37.36015625 -32.7 36.55
L -30.8 39.2
Q -29.801953125 39.2931640625 -28.6 39.4 -28.00390625 39.4484375 -27.4 39.45 -21.892578125 39.434765625 -16.7 35.1 -12.6232421875 31.78984375 -9.4 30 -6.2412109375 27.042578125 -1.55 22.45 0.45 20.55 4.8 17.65 6.1853515625 16.7423828125 5.45 13.75
M -8.85 0.15
Q -4.6423828125 1.92109375 -5.75 4.95 1.049609375 12.873828125 -0.35 14.9 -0.3314453125 14.95 -0.35 14.95
L -0.2 14.95
Q -0.2384765625 14.9994140625 -0.3 15.05 -3.769921875 17.7587890625 -6.1 19.75 -6.8912109375 20.4923828125 -7.6 21.1
L -18.45 11.05
Q -17.116796875 8.28046875 -16.15 6.35 -14.551171875 3.21875 -13.9 2.35
L -13.45 1.5
Q -13.3 1.15 -8.85 0.15
M -12.8 8.15
Q -12.4 7.8 -12.4 7.3 -12.4 6.8 -12.8 6.4 -13.2 6.05 -13.8 6.05 -14.4 6.05 -14.8 6.4 -15.2 6.8 -15.2 7.3 -15.2 7.8 -14.8 8.15 -14.4 8.55 -13.8 8.55 -13.2 8.55 -12.8 8.15 Z"/>

<path fill="#B3BAD5" stroke="none" d="
M -5.75 4.95
Q -4.6423828125 1.92109375 -8.85 0.15 -13.3 1.15 -13.45 1.5
L -13.9 2.35
Q -14.551171875 3.21875 -16.15 6.35 -17.116796875 8.28046875 -18.45 11.05
L -7.6 21.1
Q -6.8912109375 20.4923828125 -6.1 19.75 -3.769921875 17.7587890625 -0.3 15.05
L -0.35 14.95
Q -0.3314453125 14.95 -0.35 14.9 1.049609375 12.873828125 -5.75 4.95
M -12.4 7.3
Q -12.4 7.8 -12.8 8.15 -13.2 8.55 -13.8 8.55 -14.4 8.55 -14.8 8.15 -15.2 7.8 -15.2 7.3 -15.2 6.8 -14.8 6.4 -14.4 6.05 -13.8 6.05 -13.2 6.05 -12.8 6.4 -12.4 6.8 -12.4 7.3 Z"/>
</g>

<g id="chainsaw_0_Layer3_0_FILL">
<path fill="#000000" stroke="none" d="
M 25.5 10.7
L 27.65 7.4 30.7 9.8 30.05 4.65 24.9 5.25 25.5 10.7
M 38.2 3.55
L 33.05 4.15 33.65 9.6 35.8 6.3 38.85 8.7 38.2 3.55
M 42.3 8.7
L 44.45 5.35 47.5 7.8 46.85 2.65 41.7 3.25 42.3 8.7
M 52.95 4.45
L 56 6.9 55.4 1.7 50.2 2.65 50.8 7.8 52.95 4.45
M 70.4 0.5
L 74.05 1.1 70.75 -2.85 66.8 0.2 70.4 4.45 70.4 0.5
M 61.9 3.55
L 64.95 6 64.35 0.8 59.15 1.4 59.75 6.9 61.9 3.55
M 77.4 -3.15
L 75.3 -6.45 78.95 -8 74.05 -9.8 72.25 -4.95 77.4 -3.15
M 64.35 -20.75
L 68.9 -18 71.95 -22.85 68 -21.35 67.1 -25 64.35 -20.75
M 76.2 -19.55
L 71.35 -17.7 73.15 -12.85 78.3 -14.65 74.35 -15.9 76.2 -19.55
M 45.7 -24.65
L 46.3 -19.5 51.45 -20.1 50.85 -25.6 48.7 -22.25 45.7 -24.65
M 55.1 -20.1
L 60.25 -20.75 59.65 -26.2 57.5 -22.85 54.5 -25.3 55.1 -20.1
M 36.7 -24.05
L 37.35 -18.9 42.5 -19.5 41.9 -24.95 39.75 -21.65 36.7 -24.05
M 31.25 -20.7
L 28.2 -23.15 28.85 -18 34 -18.6 33.4 -24.05 31.25 -20.7 Z"/>
</g>

<g id="chainsaw_0_Layer2_0_FILL">
<path fill="#000000" stroke="none" d="
M 68.3 1.4
Q 82.85 -11.95 66.8 -21.35 30.95 -21.05 -5.2 -15.3
L -3.05 8.1
Q 47.35 5.05 68.3 1.4
M 64.35 -18
Q 78.6 -11.65 65.55 -1.6 46.75 1.4 1.5 4.45
L -0.3 -12.25
Q 32.15 -16.8 64.35 -18 Z"/>

<path fill="#999999" stroke="none" d="
M 65.55 -1.6
Q 78.6 -11.65 64.35 -18 32.15 -16.8 -0.3 -12.25
L 1.5 4.45
Q 46.75 1.4 65.55 -1.6
M 62.55 -15.6
Q 72.55 -11.05 63.45 -4.05 50.1 -1.9 18.5 0.2
L 17 -11.35
Q 40.05 -14.65 62.55 -15.6 Z"/>

<path fill="#CCCCCC" stroke="none" d="
M 63.45 -4.05
Q 72.55 -11.05 62.55 -15.6 40.05 -14.65 17 -11.35
L 18.5 0.2
Q 50.1 -1.9 63.45 -4.05
M 28.65 -9.55
L 28.3 -11.6
Q 45.05 -13.6 61.4 -14.15 63.5 -13.35 64.45 -12.4
L 28.65 -9.55 Z"/>

<path fill="#FFFFFF" stroke="none" d="
M 28.3 -11.6
L 28.65 -9.55 64.45 -12.4
Q 63.5 -13.35 61.4 -14.15 45.05 -13.6 28.3 -11.6 Z"/>
</g>

<g id="chainsaw_0_Layer1_0_FILL">
<path fill="#000000" stroke="none" d="
M 2.7 -25
L 2.7 -25.6
Q -4.25 -32.3 -13.4 -29.85 -19.15 -27.4 -17.65 -21.05 -17.95 -20.75 -17.95 -20.15 -18.1458984375 -20.1779296875 -18.35 -20.2 -23.26328125 -2.522265625 -18.4 14.15
L -18.25 14.15
Q -17.95 15.4 -17.3 16.6 6.95 19.35 20.95 13.65 31.25 -2.2 24.25 -21.65 17 -25.6 5.75 -25.3 4.25 -25.3 2.7 -25
M 20.65 -18.3
Q 20.65 -18 20.95 -18 27.3 -2.85 17.5 10.7 3.65 14.5 -13.4 12.95 -13.4 12.65 -13.7 12.35 -19.45 -2.55 -14.3 -17.4 -14 -18.3 -13.4 -19.25
L -13.4 -19.55
Q -6.1 -21.35 1.2 -21.65 1.2 -21.95 1.8 -21.65 3.65 -21.95 5.75 -21.95 14.85 -22.25 20.65 -18.3
M -14 -22.85
Q -13.7 -25.6 -10.65 -27.1 -4.55 -28.35 0 -25 -7 -24.4 -14 -22.85 Z"/>

<path fill="#666666" stroke="none" d="
M -10.65 -27.1
Q -13.7 -25.6 -14 -22.85 -7 -24.4 0 -25 -4.55 -28.35 -10.65 -27.1 Z"/>

<path fill="#CC0000" stroke="none" d="
M 20.65 -18.3
Q 14.85 -22.25 5.75 -21.95 3.65 -21.95 1.8 -21.65 1.2 -21.95 1.2 -21.65 -6.1 -21.35 -13.4 -19.55
L -13.4 -19.25
Q -14 -18.3 -14.3 -17.4 -19.45 -2.55 -13.7 12.35 17.6 5.65 20.65 -18.3
M 2.4 -17.7
Q 2.4 -16.8 2.4 -16.5 -4.25 -18 -10.05 -14.65 -13.4 -9.2 -11.85 -4.65 -11.55 -4.05 -13.05 -3.75 -14.3 -6.8 -14.3 -9.8 -14.6 -13.45 -13.4 -17.4 -13.05 -17.7 -13.05 -18
L -13.05 -18.3
Q -9.75 -19.25 -6.4 -19.25
L -6.1 -19.25
Q -5.2 -19.25 -4.25 -19.25 -3.35 -19.25 -2.45 -19.25
L -2.15 -19.25
Q 0.6 -18.9 2.4 -17.7 Z"/>

<path fill="#FF9F9F" stroke="none" d="
M 2.4 -16.5
Q 2.4 -16.8 2.4 -17.7 0.6 -18.9 -2.15 -19.25
L -2.45 -19.25
Q -3.35 -19.25 -4.25 -19.25 -5.2 -19.25 -6.1 -19.25
L -6.4 -19.25
Q -9.75 -19.25 -13.05 -18.3
L -13.05 -18
Q -13.05 -17.7 -13.4 -17.4 -14.6 -13.45 -14.3 -9.8 -14.3 -6.8 -13.05 -3.75 -11.55 -4.05 -11.85 -4.65 -13.4 -9.2 -10.05 -14.65 -4.25 -18 2.4 -16.5 Z"/>

<path fill="#990000" stroke="none" d="
M 20.95 -18
Q 20.65 -18 20.65 -18.3 17.6 5.65 -13.7 12.35 -13.4 12.65 -13.4 12.95 3.65 14.5 17.5 10.7 27.3 -2.85 20.95 -18 Z"/>
</g>

<g id="chainsaw_0_Layer0_0_FILL">
<path fill="#000000" stroke="none" d="
M -3.35 -8.3
Q -2.45 -9.2 -2.45 -10.7 -2.45 -12.25 -3.35 -13.15 -4.25 -14.05 -5.8 -14.05 -7.3 -14.05 -8.2 -13.15 -9.1 -12.25 -9.1 -10.7 -9.1 -9.2 -8.2 -8.3 -7.3 -7.4 -5.8 -7.4 -4.25 -7.4 -3.35 -8.3 Z"/>
</g>

<g id="shotgun_0_Layer5_0_FILL">
<path fill="#000000" stroke="none" d="
M 68.9 -8.5
Q 68.7 -8.95 67.35 -9.1 66.05 -9.3 65.5 -8.95 65 -8.75 64.8 -6.6 64.7 -5.5 64.75 -4.75 64.75 -4.3 64.8 -4 64.8 -3.95 64.8 -3.9
L 64.8 -3.85 68.3 -3.55
Q 68.5 -4.65 68.65 -5.8 69 -8.1 68.9 -8.5
M 68.3 -8.2
Q 68.5 -8.15 68.5 -8 68.6 -7.65 68.3 -5.9 68.15 -5 67.9 -4.25
L 65.3 -4.4 65.3 -4.45
Q 65.3 -4.5 65.3 -4.6 65.3 -4.9 65.3 -5.3 65.3 -5.8 65.4 -6.5
L 65.4 -6.55
Q 65.55 -8.2 65.9 -8.4 66.35 -8.6 67.3 -8.45 68.05 -8.4 68.3 -8.2 Z"/>

<path fill="#C5CACB" stroke="none" d="
M 67.3 -8.45
Q 66.35 -8.6 65.9 -8.4 65.55 -8.2 65.4 -6.55
L 65.4 -6.5
Q 65.3 -5.8 65.3 -5.3 65.7 -7.2 68.3 -8.2 68.05 -8.4 67.3 -8.45 Z"/>

<path fill="#677476" stroke="none" d="
M 68.5 -8
Q 68.5 -8.15 68.3 -8.2 65.7 -7.2 65.3 -5.3 65.3 -4.9 65.3 -4.6 65.3 -4.5 65.3 -4.45
L 65.3 -4.4 67.9 -4.25
Q 68.15 -5 68.3 -5.9 68.6 -7.65 68.5 -8 Z"/>

<path fill="#7C5747" stroke="none" d="
M 24.4 -6.35
L 24.2 -6.35 23.25 3.6
Q 26.3 4.25 29.6 4.85 36.2 6 37.35 5.6 38.75 5.05 39.25 1.2 39.7 -2.55 38.95 -4.15 38.4 -5.5 32.2 -6.1 32.15 -6.1 32.1 -6.1 27.3 -6.65 24.75 -6.4 24.55 -6.4 24.4 -6.35
M 26 -4.95
Q 26.15 -4.95 26.25 -4.95 28.2 -5.05 31.95 -4.6
L 32 -4.6
Q 36.75 -3.95 37.2 -2.9 37.75 -1.7 37.4 1.15 37 4.15 35.95 4.5 35.05 4.75 30.05 3.75 27.45 3.2 25.2 2.65
L 25.9 -4.95 26 -4.95 Z"/>

<path fill="#4B342C" stroke="none" d="
M 26.25 -4.95
Q 26.15 -4.95 26 -4.95
L 25.9 -4.95 25.2 2.65
Q 27.45 3.2 30.05 3.75 35.05 4.75 35.95 4.5 37 4.15 37.4 1.15 37.75 -1.7 37.2 -2.9 36.75 -3.95 32 -4.6
L 31.95 -4.6
Q 28.2 -5.05 26.25 -4.95 Z"/>
</g>

<g id="shotgun_0_Layer4_0_FILL">
<path fill="#000000" stroke="none" d="
M -13.45 -8.8
Q -15.6 -6.1 -15.6 -2.3 -15.6 1.45 -13.45 4.15 -11.35 6.85 -8.3 6.85 -5.25 6.85 -3.15 4.15 -1 1.45 -1 -2.3 -1 -6.1 -3.15 -8.8 -5.25 -11.5 -8.3 -11.5 -11.35 -11.5 -13.45 -8.8
M -14.35 -2.25
Q -14.35 -5.4 -12.6 -7.65 -10.8 -9.95 -8.25 -9.95 -5.7 -9.95 -3.9 -7.65 -2.15 -5.4 -2.15 -2.25 -2.15 0.95 -3.9 3.2 -5.7 5.45 -8.25 5.45 -10.8 5.45 -12.6 3.2 -14.35 0.95 -14.35 -2.25
M -12 -6.45
Q -13.45 -4.65 -13.45 -2.05 -13.45 0.55 -12 2.4 -10.5 4.25 -8.45 4.25 -6.35 4.25 -4.9 2.4 -3.45 0.55 -3.45 -2.05 -3.45 -4.65 -4.9 -6.45 -6.35 -8.3 -8.45 -8.3 -10.5 -8.3 -12 -6.45
M -12.15 -2.05
Q -12.15 -4.05 -11 -5.45 -9.9 -6.9 -8.25 -6.9 -6.7 -6.9 -5.55 -5.45 -4.4 -4.05 -4.4 -2.05 -4.4 0 -5.55 1.4 -6.7 2.85 -8.25 2.85 -9.9 2.85 -11 1.4 -12.15 0 -12.15 -2.05 Z"/>

<path fill="#B7BEBF" stroke="none" d="
M -12.6 -7.65
Q -14.35 -5.4 -14.35 -2.25 -14.35 0.95 -12.6 3.2 -10.8 5.45 -8.25 5.45 -5.7 5.45 -3.9 3.2 -2.15 0.95 -2.15 -2.25 -2.15 -5.4 -3.9 -7.65 -5.7 -9.95 -8.25 -9.95 -10.8 -9.95 -12.6 -7.65
M -13.95 -2.15
Q -13.95 -5.05 -12.35 -7.15 -10.65 -9.2 -8.35 -9.2 -6 -9.2 -4.4 -7.15 -2.75 -5.05 -2.75 -2.15 -2.75 0.75 -4.4 2.85 -6 4.9 -8.35 4.9 -10.65 4.9 -12.35 2.85 -13.95 0.75 -13.95 -2.15 Z"/>

<path fill="#818D8F" stroke="none" d="
M -12.35 -7.15
Q -13.95 -5.05 -13.95 -2.15 -13.95 0.75 -12.35 2.85 -10.65 4.9 -8.35 4.9 -6 4.9 -4.4 2.85 -2.75 0.75 -2.75 -2.15 -2.75 -5.05 -4.4 -7.15 -6 -9.2 -8.35 -9.2 -10.65 -9.2 -12.35 -7.15
M -13.45 -2.05
Q -13.45 -4.65 -12 -6.45 -10.5 -8.3 -8.45 -8.3 -6.35 -8.3 -4.9 -6.45 -3.45 -4.65 -3.45 -2.05 -3.45 0.55 -4.9 2.4 -6.35 4.25 -8.45 4.25 -10.5 4.25 -12 2.4 -13.45 0.55 -13.45 -2.05 Z"/>
</g>

<g id="shotgun_0_Layer3_0_FILL">
<path fill="#000000" stroke="none" d="
M 43.1 5.4
Q 43.5 3.8 42.75 2.15
L 11.3 -0.55 10.9 4.4 42.3 7.05
Q 42.8 6.25 43.1 5.4
M 41.55 5.35
Q 41.65 5.8 41.8 6.45
L 11.5 3.8 11.55 2.9 11.7 1.2 11.85 0.05 42.15 2.65
Q 41.9 3.05 41.8 3.45 41.45 4.35 41.55 5.35 Z"/>

<path fill="#A3ABAE" stroke="none" d="
M 41.55 5.35
Q 41.45 4.35 41.8 3.45
L 11.7 1.2 11.55 2.9 41.55 5.35 Z"/>

<path fill="#C5CFCE" stroke="none" d="
M 41.8 3.45
Q 41.9 3.05 42.15 2.65
L 11.85 0.05 11.7 1.2 41.8 3.45 Z"/>

<path fill="#818D8F" stroke="none" d="
M 41.8 6.45
Q 41.65 5.8 41.55 5.35
L 11.55 2.9 11.5 3.8 41.8 6.45 Z"/>
</g>

<g id="shotgun_0_Layer2_0_FILL">
<path fill="#000000" stroke="none" d="
M 54.4 4.3
Q 54.95 2.7 53.95 0.95
L 14 -2.8 13.4 2.25 53.4 5.95
Q 54.1 5.15 54.4 4.3
M 14.45 -0.95
L 14.6 -2.1 53.2 1.5
Q 52.95 1.85 52.8 2.25 52.4 3.2 52.5 4.1 52.55 4.7 52.8 5.25
L 14.15 1.65 14.3 0.7 14.45 -0.95 Z"/>

<path fill="#818D8F" stroke="none" d="
M 52.8 5.25
Q 52.55 4.7 52.5 4.1
L 14.3 0.7 14.15 1.65 52.8 5.25 Z"/>

<path fill="#A3ABAE" stroke="none" d="
M 52.5 4.1
Q 52.4 3.2 52.8 2.25
L 14.45 -0.95 14.3 0.7 52.5 4.1 Z"/>

<path fill="#C5CFCE" stroke="none" d="
M 14.6 -2.1
L 14.45 -0.95 52.8 2.25
Q 52.95 1.85 53.2 1.5
L 14.6 -2.1 Z"/>
</g>

<g id="shotgun_0_Layer1_0_FILL">
<path fill="#000000" stroke="none" d="
M 69 4.9
Q 70.3 3.05 70.9 1.2 71.85 -2.45 70 -6.35
L -4.55 -13.15 -5.55 -1.9 69 4.9
M 68.2 -4.05
Q 68.2 -4 68.15 -3.95 68 -3.65 67.75 -2.9 67.1 -1 67.35 0.9 67.45 2.15 67.85 3.35
L -4.1 -3.2 -3.9 -5.45 -3.55 -9.05 -3.3 -11.65 68.65 -5.05
Q 68.35 -4.6 68.2 -4.05 Z"/>

<path fill="#818D8F" stroke="none" d="
M 67.85 3.35
Q 67.45 2.15 67.35 0.9
L -3.9 -5.45 -4.1 -3.2 67.85 3.35 Z"/>

<path fill="#A3ABAE" stroke="none" d="
M 67.75 -2.9
L 5.15 -8.35 -3.55 -9.05 -3.9 -5.45 67.35 0.9
Q 67.1 -1 67.75 -2.9 Z"/>

<path fill="#C5CFCE" stroke="none" d="
M 5.15 -8.35
L 5.15 -8.75 5.5 -9.45 68.2 -4.05
Q 68.35 -4.6 68.65 -5.05
L -3.3 -11.65 -3.55 -9.05 5.15 -8.35 Z"/>

<path fill="#FFFFFF" stroke="none" d="
M 5.15 -8.75
L 5.15 -8.35 67.75 -2.9
Q 68 -3.65 68.15 -3.95 68.2 -4 68.2 -4.05
L 5.5 -9.45 5.15 -8.75 Z"/>
</g>

<g id="shotgun_0_Layer0_0_FILL">
<path fill="#000000" stroke="none" d="
M 6.35 -7.95
Q 5.3 -9.55 7.1 -11.15
L 11.35 -12 11.6 -13.55 -6.65 -15.45
Q -7.5 -15.75 -9.75 -15.4 -10.55 -15 -10.95 -14 -11.3 -13.1 -13.4 -12.25 -15.5 -11.4 -17.8 -11.7 -20.05 -12 -22.4 -12.45 -24.65 -12.9 -26.65 -13.05 -28.55 -13.25 -29.8 -13.9
L -37.05 -16
Q -44.65 -18.35 -46.6 -19.9 -47.8 -20.75 -50 -18.25 -52.2 -15.75 -54.3 -11.35 -59.4 -0.3 -58 8.7 -57.8 10.05 -57.6 11.1 -57.5 11.15 -57.05 11.35 -55.05 12.2 -54.65 12.45 -53.95 12.85 -46.6 9.3 -37.5 4.9 -36.3 4.4 -34.05 3.6 -33.15 1.35 -32.3 -0.75 -31 -1.05 -29.2 -1.45 -21.5 -0.35
L -14.2 0.8 -10.35 -1.75 -6.05 -2.25 -3.5 -1.25 -3.95 3.25
Q -0.4 4 3.35 4.7 10.9 6.1 12.3 5.6 13.9 5.05 14.45 0.5 15.05 -3.75 14.15 -5.7 13.45 -7.2 6.4 -7.95
L 6.35 -7.95
M 5.85 -11.95
Q 5.75 -11.75 5.55 -11.5 5.1 -10.8 4.9 -10.1 4.6 -9.1 4.95 -8.1 -0.1 -8.55 -2.7 -8.2
L -2.85 -8.2 -3.3 -3.2 -3.6 -2.8 -8.5 -3.6 -12.4 -3.1 -16.05 -1 -22.8 -1.75
Q -29.95 -2.5 -31.6 -2.15 -32.85 -1.85 -33.65 -0.15 -34.55 1.65 -36.7 2.35 -37.85 2.75 -46.45 6.45 -53.3 9.45 -54 9.15 -54.4 8.95 -56.15 8.3 -56.55 8.2 -56.7 8.15 -56.8 7.35 -57 6.25 -58 -0.95 -52.9 -9.85 -50.8 -13.45 -48.7 -15.45 -46.6 -17.55 -45.55 -16.85 -43.7 -15.7 -36.8 -13.95
L -30.1 -12.4
Q -26.25 -11.65 -22.1 -11 -13.85 -9.65 -12.15 -9.85 -11.65 -9.9 -11.25 -10.1
L -10.3 -11.5 -9.55 -12.65 -9.55 -12.7
Q -9.3 -13.5 -9.3 -14.25
L 8.35 -13 8.85 -12.25 5.85 -11.95
M 6.2 -7.05
L 6.25 -7.05
Q 12.45 -6.45 13 -5.05 13.75 -3.5 13.3 0.3 12.75 4.15 11.4 4.7 10.2 5.05 3.7 3.95 0.4 3.3 -2.7 2.65
L -1.75 -7.25 -1.6 -7.25
Q -1.4 -7.3 -1.2 -7.3 1.3 -7.55 6.2 -7.05 Z"/>

<path fill="#7C5747" stroke="none" d="
M 6.25 -7.05
L 6.2 -7.05
Q 1.3 -7.55 -1.2 -7.3 -1.4 -7.3 -1.6 -7.25
L -1.75 -7.25 -2.7 2.65
Q 0.4 3.3 3.7 3.95 10.2 5.05 11.4 4.7 12.75 4.15 13.3 0.3 13.75 -3.5 13 -5.05 12.45 -6.45 6.25 -7.05
M 0.1 -5.8
Q 0.2 -5.85 0.35 -5.85 2.25 -6 6 -5.5
L 6.05 -5.5
Q 10.8 -4.9 11.2 -3.85 11.8 -2.6 11.45 0.25 11.05 3.25 10 3.6 9.05 3.85 4.05 2.85 1.55 2.25 -0.8 1.75
L -0.1 -5.8 0.1 -5.8
M 4.95 -8.1
Q 4.6 -9.1 4.9 -10.1
L -10.3 -11.5 -11.25 -10.1
Q -11.65 -9.9 -12.15 -9.85 -13.85 -9.65 -22.1 -11 -26.25 -11.65 -30.1 -12.4
L -36.8 -13.95
Q -43.7 -15.7 -45.55 -16.85 -46.6 -17.55 -48.7 -15.45 -50.8 -13.45 -52.9 -9.85 -58 -0.95 -57 6.25 -56.8 7.35 -56.7 8.15 -56.55 8.2 -56.15 8.3 -54.4 8.95 -54 9.15 -53.3 9.45 -46.45 6.45 -37.85 2.75 -36.7 2.35 -34.55 1.65 -33.65 -0.15 -32.85 -1.85 -31.6 -2.15 -29.95 -2.5 -22.8 -1.75
L -16.05 -1 -12.4 -3.1 -8.5 -3.6 -3.6 -2.8 -3.3 -3.2 -2.85 -8.2 -2.7 -8.2
Q -0.1 -8.55 4.95 -8.1
M -51.65 -8.9
Q -49.95 -11.95 -48.15 -13.65 -46.35 -15.4 -45.4 -14.85 -43.9 -13.85 -37.95 -12.35
L -12.55 -8.2 -17.15 -4.75
Q -32.8 -7.2 -40.4 -0.9 -48.05 5.45 -50.5 6.25 -52.95 7.1 -54.45 6.55 -54.8 6.45 -54.95 6.45 -55 5.75 -55.2 4.8 -56.05 -1.25 -51.65 -8.9
M 5.55 -11.5
Q 5.75 -11.75 5.85 -11.95
L 8.85 -12.25 8.35 -13 -9.3 -14.25
Q -9.3 -13.5 -9.55 -12.7
L -9.55 -12.65 5.55 -11.5 Z"/>

<path fill="#4B342C" stroke="none" d="
M 0.35 -5.85
Q 0.2 -5.85 0.1 -5.8
L -0.1 -5.8 -0.8 1.75
Q 1.55 2.25 4.05 2.85 9.05 3.85 10 3.6 11.05 3.25 11.45 0.25 11.8 -2.6 11.2 -3.85 10.8 -4.9 6.05 -5.5
L 6 -5.5
Q 2.25 -6 0.35 -5.85
M 4.9 -10.1
Q 5.1 -10.8 5.55 -11.5
L -9.55 -12.65 -10.3 -11.5 4.9 -10.1
M -48.15 -13.65
Q -49.95 -11.95 -51.65 -8.9 -56.05 -1.25 -55.2 4.8 -55 5.75 -54.95 6.45 -54.8 6.45 -54.45 6.55 -52.95 7.1 -50.5 6.25 -48.05 5.45 -40.4 -0.9 -32.8 -7.2 -17.15 -4.75
L -12.55 -8.2 -37.95 -12.35
Q -43.9 -13.85 -45.4 -14.85 -46.35 -15.4 -48.15 -13.65 Z"/>
</g>

<g id="Duplicate_Items_Folder_body_suit_copy_2_0_Layer1_0_FILL">
<path fill="#FFFFFF" stroke="none" d="
M -31.45 27.05
L -31.45 27.05
Q -31.396875 27.2654296875 -31.35 27.5
L -31.3 27.5
Q -31.35 27.3 -31.45 27.05
M 30.15 27.55
L 30.2 27.55 30.15 27.4
Q 30.1658203125 27.4865234375 30.15 27.55 Z"/>

<path fill="#000000" stroke="none" d="
M 29.05 -26.1
L 29.05 -26.15
Q 28.8498046875 -28.401953125 28.45 -30.3 28.490234375 -32.990625 25.35 -36.3 23.66484375 -38.1189453125 21 -40.15 16.2982421875 -43.6734375 14 -44.7 12.73984375 -45.3697265625 9.9 -45.8 5.966796875 -46.3904296875 5.5 -46.45 3.421484375 -46.5904296875 1.5 -46.7 1.1546875 -46.7294921875 0.8 -46.75 0.675 -46.75 0.55 -46.75
L 0.55 -46.95
Q -0.083203125 -46.9056640625 -0.75 -46.9 -1.1423828125 -46.85078125 -1.55 -46.85 -1.5998046875 -46.828125 -1.65 -46.85 -1.7931640625 -46.810546875 -1.95 -46.8 -4.55 -46.65 -7.55 -46.4 -8.1208984375 -46.35 -8.7 -46.3 -11.0611328125 -46.08984375 -13.7 -45.85 -14.6 -45.85 -18.25 -44.55 -21.8 -43.25 -28.25 -32.95 -30.0236328125 -22.57109375 -30.55 -14.95 -31.162109375 -5.7255859375 -30.45 -2.55 -29.690234375 0.6326171875 -30.1 5.4 -30.45703125 10.2064453125 -30.3 14.4 -30.15 18.603125 -30.4 20.15 -30.7220703125 22.578125 -30.8 23.55 -30.8244140625 23.8447265625 -30.9 24.15 -30.891796875 24.3482421875 -30.95 24.55 -31.090234375 25.71796875 -31.45 27.05 -31.35 27.3 -31.3 27.5
L -31.35 27.5
Q -31.396875 27.2654296875 -31.45 27.05 -32.7291015625 31.9294921875 -32.25 33.25 -31.7185546875 34.5826171875 -26.3 38.5 -20.8841796875 42.41328125 -12.45 43.85 -3.964453125 45.27734375 -2.25 45.75 -1.5935546875 45.95703125 -1.05 46.1 2.6921875 46.2501953125 5.7 45.8 8.9423828125 45.3375 13.45 44.15 21.1119140625 42.2150390625 24.75 38.9 25.4421875 38.2939453125 25.95 37.65 26.5982421875 36.896875 27.15 36.25 29.682421875 33.2970703125 30.7 32.6 30.84453125 32.5498046875 30.9 32.25 30.997265625 31.7560546875 30.9 30.6 30.80703125 29.4802734375 30.5 27.75 30.5171875 27.655859375 30.5 27.55
L 30.5 27.5 30 24.35 30 24.4 30.1 25.2
Q 30.0794921875 25.111328125 29.95 24.55 30.0302734375 23.4375 29.5 20.15 29.3505859375 19.203125 29.15 18.05 28.203125 12.755078125 28.3 7.25 28.441796875 1.7505859375 28.65 0.85 29.6013671875 -2.937109375 29.6 -8.75 29.6009765625 -9.255078125 29.6 -9.8 29.58828125 -10.33046875 29.55 -10.9 29.455078125 -15.3857421875 29.35 -20.95 29.3083984375 -23.715625 29.05 -26.1
M 20.25 -36.3
Q 20.5994140625 -36.0177734375 20.9 -35.75
L 20.95 -35.7 21.1 -35.7 21.1 -35.6
Q 22.26328125 -34.511328125 23.15 -33.6 23.96484375 -32.778515625 24.55 -32.1 25.0240234375 -31.509765625 25.35 -31.05 26.2556640625 -29.7013671875 26.1 -28.95
L 26.1 -28.9
Q 26.104296875 -28.60703125 26.05 -28 25.994140625 -26.6392578125 25.7 -23.7 25.52265625 -21.4638671875 25.2 -18.3 25.1640625 -17.913671875 25.1 -17.5 25.09140625 -17.1578125 25.05 -16.8 25.028515625 -16.5294921875 25 -16.25 24.92109375 -15.9439453125 24.95 -14.9 25.010546875 -14.0453125 24.55 -11.75 24.5373046875 -10.7392578125 24.5 -9.8 24.491015625 -7.5453125 24.45 -5.7 24.36484375 -1.8451171875 24.25 0.2 24.2904296875 0.2181640625 24.3 0.2 24.2796875 0.4046875 24.2 0.6 24.230078125 0.693359375 24.2 0.75
L 24.15 0.75
Q 24.2572265625 1.763671875 24.85 5.95 25.3509765625 9.605859375 26.2 15.7 26.7541015625 19.28515625 27.4 23.7
L 22.35 17.3 22.3 17.2 21.75 17.8 14.65 26.3 7.85 20.75 1.75 28.25
Q 1.712109375 28.2498046875 1.65 28.25
L -5.9 13.45 -16.4 26.7 -17.3 27.1 -17.05 27.65
Q -22.7958984375 27.237890625 -28.6 26.55 -28.8123046875 26.5255859375 -29.05 26.5 -28.7884765625 25.9015625 -28.5 25.2
L -28.25 24.9 -28.15 24.9 -28.2 24.85 -21.65 17 -17.3 27.05 -16.4 26.7 -21.65 14.6 -27.95 22.2
Q -27.646484375 20.43984375 -27.2 17.6 -27.13515625 16.6912109375 -27.1 15.7 -26.901953125 11.548046875 -26.65 5.95 -26.3771484375 0.74921875 -26.05 -5.7 -26.0068359375 -6.794140625 -25.95 -7.95 -25.977734375 -9.3263671875 -26 -10.55 -26.1109375 -15.411328125 -26.3 -16.8 -26.3466796875 -17.371875 -26.45 -17.35 -25.6474609375 -24.2486328125 -25.3 -28 -25.24765625 -28.7056640625 -25.2 -29.3 -21.3603515625 -35.94765625 -18.85 -38.95 -17.5212890625 -40.4837890625 -16.55 -41.1 -11.184765625 -21.9470703125 -1.25 -3.2 7.07734375 -21.555859375 10.6 -42.25
L 10.6 -42.25 10.55 -42.25
Q 10.4759765625 -42.2611328125 10.35 -42.3 10.323046875 -42.3197265625 10.25 -42.35
L 10.25 -42.4
Q 10.3265625 -42.34375 10.35 -42.35
L 10.75 -43.6 10.35 -42.35
Q 10.487109375 -42.286328125 10.6 -42.25 11.01484375 -42.0962890625 11.4 -41.95 11.6125 -41.838671875 11.8 -41.75 11.789453125 -41.7541015625 11.75 -41.75 11.290625 -41.9455078125 10.6 -42.25 10.649609375 -42.0751953125 10.7 -41.95 10.87265625 -41.9064453125 10.95 -41.9 11.017578125 -41.8994140625 11.75 -41.7 11.7765625 -41.6654296875 11.8 -41.65 12.1171875 -41.5439453125 12.55 -41.4 12.613671875 -41.37890625 12.65 -41.35 12.8828125 -41.2591796875 13.1 -41.15 14.9892578125 -40.2138671875 16.85 -38.95 18.5744140625 -37.768359375 20.25 -36.3
M 10.1 -42.45
L 10.1 -42.4
Q 10.0880859375 -42.413671875 10.05 -42.45 9.8291015625 -42.51015625 9.6 -42.6 9.8671875 -42.5138671875 10.1 -42.45
M 0.4 -42.85
L 0.4 -42.75
Q 0.4748046875 -42.7466796875 0.55 -42.75
L 0.55 -42.75
Q 0.566796875 -42.77421875 0.55 -42.8
L 4.85 -42.45
Q 4.91484375 -42.444140625 5.4 -42.4
L 6.1 -42.35
Q 6.8599609375 -42.2564453125 7.65 -42.2 6.0279296875 -26.68984375 -1.5 -11.4 -9.7107421875 -26.131640625 -13.65 -41.5
L -13.65 -41.8
Q -12.573046875 -41.95 -12.1 -41.95 -11.9837890625 -41.9595703125 -9 -42.4 -9.2890625 -42.255859375 -6.55 -42.45 -5.7205078125 -42.5240234375 -3.75 -42.75 -2.405078125 -42.8716796875 -0.55 -43.1 -2.6578125 -42.7482421875 -1.55 -42.8 -1.4998046875 -42.7978515625 -1.45 -42.8 -1.462890625 -42.7541015625 -1.5 -42.7
L 0.4 -42.85
M 9.65 -42.1
L 9.7 -42.1
Q 9.8109375 -42.0572265625 9.9 -42.05 9.75625 -41.8435546875 9.7 -42.05
L 9.7 -42.05 9.7 -42.05 9.65 -42.1
M 21.95 19.95
L 22.35 19.65 27.7 26.5
Q 25.1240234375 26.8396484375 22.5 27.1 19.5732421875 27.4021484375 16.6 27.6
L 15.35 27.8 21.95 19.95
M 14.7 27.2
L 14.95 27.7
Q 14.8529296875 27.7435546875 14.75 27.75
L 14.7 27.2
M 0.4 42.6
L 0.4 42.65
Q -0.5626953125 42.608984375 -2.25 42.2 -3.9359375 41.788671875 -10.9 40.75 -17.809765625 39.759765625 -23.3 35.9 -28.7974609375 32.0947265625 -29.65 29.8 -29.731640625 29.61875 -29.75 29.35 -6.083984375 33.1515625 17.2 30.85 20.1462890625 30.5576171875 23.05 30.15 25.83359375 29.8029296875 28.6 29.35 28.5890625 29.6521484375 28.5 29.85 28.1119140625 30.9103515625 27.15 32.05 26.0208984375 33.4408203125 24.1 34.95 24.0359375 35.0001953125 23.95 35.05 21.9087890625 36.6328125 18.55 38.1 16.134765625 39.196875 13 40.2 8.4248046875 41.7466796875 5.7 42.3 3.9736328125 42.6736328125 3 42.65 0.4818359375 42.5921875 0.4 42.6
M 13.55 27.8
Q 8.6736328125 28.1294921875 3.7 28.2
L 7.85 23.15 13.55 27.8
M 30.2 27.55
L 30.15 27.55
Q 30.1658203125 27.4865234375 30.15 27.4
L 30.2 27.55
M -15.4 27.75
L -5.9 15.8 0.45 28.25
Q -7.4146484375 28.2640625 -15.4 27.75 Z"/>

<path fill="#EEC4C4" stroke="none" d="
M -5.9 15.8
L -15.4 27.75
Q -7.4146484375 28.2640625 0.45 28.25
L -5.9 15.8
M 3.7 28.2
Q 8.6736328125 28.1294921875 13.55 27.8
L 7.85 23.15 3.7 28.2
M 22.35 19.65
L 21.95 19.95 15.35 27.8 16.6 27.6
Q 19.5732421875 27.4021484375 22.5 27.1 25.1240234375 26.8396484375 27.7 26.5
L 22.35 19.65
M 0.4 -42.75
L 0.4 -42.85 -1.5 -42.7
Q -1.462890625 -42.7541015625 -1.45 -42.8 -1.4998046875 -42.7978515625 -1.55 -42.8 -2.6578125 -42.7482421875 -0.55 -43.1 -2.405078125 -42.8716796875 -3.75 -42.75 -5.7205078125 -42.5240234375 -6.55 -42.45 -9.2890625 -42.255859375 -9 -42.4 -11.9837890625 -41.9595703125 -12.1 -41.95 -12.573046875 -41.95 -13.65 -41.8
L -13.65 -41.5
Q -9.7107421875 -26.131640625 -1.5 -11.4 6.0279296875 -26.68984375 7.65 -42.2 6.8599609375 -42.2564453125 6.1 -42.35
L 5.4 -42.4
Q 4.91484375 -42.444140625 4.85 -42.45
L 0.55 -42.8
Q 0.566796875 -42.77421875 0.55 -42.75
L 0.55 -42.75
Q 0.4748046875 -42.7466796875 0.4 -42.75
M -28.2 24.85
L -28.15 24.9 -28.25 24.9 -28.5 25.2 -28.6 26.55
Q -22.7958984375 27.237890625 -17.05 27.65
L -17.3 27.1 -17.3 27.05 -21.65 17 -28.2 24.85 Z"/>

<path fill="#4D372B" stroke="none" d="
M 28.5 29.85
Q 28.5890625 29.6521484375 28.6 29.35 25.83359375 29.8029296875 23.05 30.15
L 23.95 35.05
Q 24.0359375 35.0001953125 24.1 34.95 26.0208984375 33.4408203125 27.15 32.05 28.1119140625 30.9103515625 28.5 29.85 Z"/>

<path fill="#574331" stroke="none" d="
M 0.4 42.65
L 0.4 42.6
Q 0.4818359375 42.5921875 3 42.65 3.9736328125 42.6736328125 5.7 42.3 8.4248046875 41.7466796875 13 40.2 16.134765625 39.196875 18.55 38.1 21.9087890625 36.6328125 23.95 35.05
L 23.05 30.15
Q 20.1462890625 30.5576171875 17.2 30.85 -6.083984375 33.1515625 -29.75 29.35 -29.731640625 29.61875 -29.65 29.8 -28.7974609375 32.0947265625 -23.3 35.9 -17.809765625 39.759765625 -10.9 40.75 -3.9359375 41.788671875 -2.25 42.2 -0.5626953125 42.608984375 0.4 42.65 Z"/>

<path fill="#97A0C6" stroke="none" d="
M 14.95 27.7
L 14.7 27.2 14.75 27.75
Q 14.8529296875 27.7435546875 14.95 27.7
M -16.4 26.7
L -17.3 27.05 -17.3 27.1 -16.4 26.7
M -28.6 26.55
L -28.5 25.2
Q -28.7884765625 25.9015625 -29.05 26.5 -28.8123046875 26.5255859375 -28.6 26.55
M 10.7 -41.95
Q 10.649609375 -42.0751953125 10.6 -42.25 7.07734375 -21.555859375 -1.25 -3.2 -11.184765625 -21.9470703125 -16.55 -41.1 -17.5212890625 -40.4837890625 -18.85 -38.95 -21.3603515625 -35.94765625 -25.2 -29.3 -25.24765625 -28.7056640625 -25.3 -28 -25.6474609375 -24.2486328125 -26.45 -17.35 -26.3466796875 -17.371875 -26.3 -16.8 -26.1109375 -15.411328125 -26 -10.55 -25.977734375 -9.3263671875 -25.95 -7.95 -26.0068359375 -6.794140625 -26.05 -5.7 -26.3771484375 0.74921875 -26.65 5.95 -26.901953125 11.548046875 -27.1 15.7 -27.13515625 16.6912109375 -27.2 17.6 -27.646484375 20.43984375 -27.95 22.2
L -21.65 14.6 -16.4 26.7 -5.9 13.45 1.65 28.25
Q 1.712109375 28.2498046875 1.75 28.25
L 7.85 20.75 14.65 26.3 21.75 17.8
Q 19.1068359375 -11.6181640625 10.7 -41.95 Z"/>

<path fill="#006C23" stroke="none" d="
M 9.7 -42.05
L 9.7 -42.1 9.65 -42.1 9.7 -42.05 Z"/>

<path fill="#828DBB" stroke="none" d="
M 9.7 -42.1
L 9.7 -42.05 9.7 -42.05 9.7 -42.05
Q 9.75625 -41.8435546875 9.9 -42.05 9.8109375 -42.0572265625 9.7 -42.1
M 20.9 -35.75
Q 20.5994140625 -36.0177734375 20.25 -36.3 18.5744140625 -37.768359375 16.85 -38.95 14.9892578125 -40.2138671875 13.1 -41.15 12.8828125 -41.2591796875 12.65 -41.35 12.613671875 -41.37890625 12.55 -41.4 12.1171875 -41.5439453125 11.8 -41.65 11.7765625 -41.6654296875 11.75 -41.7 11.017578125 -41.8994140625 10.95 -41.9 10.87265625 -41.9064453125 10.7 -41.95 19.1068359375 -11.6181640625 21.75 17.8
L 22.3 17.2 22.35 17.3 27.4 23.7
Q 26.7541015625 19.28515625 26.2 15.7 25.3509765625 9.605859375 24.85 5.95 24.2572265625 1.763671875 24.15 0.75
L 24.2 0.75
Q 24.230078125 0.693359375 24.2 0.6 24.2796875 0.4046875 24.3 0.2 24.2904296875 0.2181640625 24.25 0.2 24.36484375 -1.8451171875 24.45 -5.7 24.491015625 -7.5453125 24.5 -9.8 24.5373046875 -10.7392578125 24.55 -11.75 25.010546875 -14.0453125 24.95 -14.9 24.92109375 -15.9439453125 25 -16.25 25.028515625 -16.5294921875 25.05 -16.8 25.09140625 -17.1578125 25.1 -17.5 25.1640625 -17.913671875 25.2 -18.3 25.52265625 -21.4638671875 25.7 -23.7 25.994140625 -26.6392578125 26.05 -28 26.104296875 -28.60703125 26.1 -28.9
L 26.1 -28.95
Q 26.2556640625 -29.7013671875 25.35 -31.05 25.0240234375 -31.509765625 24.55 -32.1 23.96484375 -32.778515625 23.15 -33.6 22.26328125 -34.511328125 21.1 -35.6
L 21.1 -35.7 20.95 -35.7 20.9 -35.75 Z"/>

<path fill="#006699" stroke="none" d="
M 10.1 -42.4
L 10.1 -42.45
Q 9.8671875 -42.5138671875 9.6 -42.6 9.8291015625 -42.51015625 10.05 -42.45 10.0880859375 -42.413671875 10.1 -42.4
M 10.35 -42.3
L 10.35 -42.35
Q 10.3265625 -42.34375 10.25 -42.4
L 10.25 -42.35
Q 10.323046875 -42.3197265625 10.35 -42.3
M 10.55 -42.25
L 10.6 -42.25
Q 10.487109375 -42.286328125 10.35 -42.35
L 10.35 -42.3
Q 10.4759765625 -42.2611328125 10.55 -42.25
M 10.6 -42.25
L 10.6 -42.25
Q 11.290625 -41.9455078125 11.75 -41.75 11.789453125 -41.7541015625 11.8 -41.75 11.6125 -41.838671875 11.4 -41.95 11.01484375 -42.0962890625 10.6 -42.25 Z"/>
</g>

<g id="Duplicate_Items_Folder_body_suit_copy_2_0_Layer0_0_FILL">
<path fill="#000000" stroke="none" d="
M 9.85 -0.65
L 27.05 -7.95 25.8 -16.45 -1.05 -2.95 -27.7 -18.3 -28.85 -9.9 -8.5 -1.3 -28.85 1.9 -27.25 10.3 -1 6.6 25.6 12.2 27.15 3.85 9.85 -0.65 Z"/>
</g>

<g id="ear_0_Layer0_0_FILL">
<path fill="#D3BFB4" stroke="none" d="
M 25.15 20.6
Q 26.15 18.6 24.25 14.6
L 16.25 1.4
Q 14.9 0.9 13.5 0.65 14.65 3.95 10.9 2.65 7.15 1.3 4.8 5.55 2.45 9.75 2.85 12.9 3.25 16.05 5.95 17.95 7.7 19.2 12.2 22.65 16.25 25.45 18.45 25.45 20.6 25.45 21.45 24.6 22.7 20.3 23.8 19.1 24.9 17.85 25.15 20.6 Z"/>

<path fill="#000000" stroke="none" d="
M 24 23.05
Q 25.05 22.15 25.15 20.6 24.9 17.85 23.8 19.1 22.7 20.3 21.45 24.6 20.6 25.45 18.45 25.45 16.25 25.45 12.2 22.65 7.7 19.2 5.95 17.95 3.25 16.05 2.85 12.9 2.45 9.75 4.8 5.55 7.15 1.3 10.9 2.65 14.65 3.95 13.5 0.65 11.35 0.05 9 0 2.45 -0.25 1.1 4.5 -0.5 10.1 0.25 13.7 0.9 17.15 3.85 19.25 5.75 20.6 10.65 24.35 15.05 27.4 17.45 27.4 19.8 27.4 20.75 26.5 22.1 24.7 24 23.05 Z"/>
</g>

<g id="Duplicate_Items_Folder_head_copy_2_0_Layer5_0_FILL">
<path fill="#000000" stroke="none" d="
M 46.75 -61.95
Q 44.5 -67.25 41.55 -70.85 40.65 -71.9 39.8 -72.75 28.9 -83.75 -6.9 -85.65
L -6.9 -85.7
Q -7.05 -85.7 -7.2 -85.65 -7.45 -85.7 -7.7 -85.7
L -7.7 -85.6
Q -8.35 -85.6 -8.95 -85.55 -12.7 -85.35 -16.15 -84.95 -16.25 -84.95 -16.35 -84.95 -18.05 -84.8 -19.65 -84.65 -45.5 -81.8 -54.45 -72.75 -57.45 -69.75 -59.8 -65.3 -63.1 -26.9 -59.8 10.7 -55.5 18.45 -49.15 25.8 -48.9 26.05 -48.65 26.4 -47.9 27.25 -47.15 28.1 -44.1 31.35 -40.95 34.75 -37.80234375 38.1544921875 -34.75 41.95 -31.6435546875 45.7865234375 -27.15 54.5 -4.18828125 63.122265625 13.15 54.25 21.25 40.25 29.4 32.25 31.9 29.8 34.5 27 42.05 18.65 46.75 9.65 51.35 -26.15 46.75 -61.95
M 34.45 -72.55
Q 35.2345703125 -71.6228515625 36.75 -70.1 37.55 -69.3 38.35 -68.3 41.15 -64.95 43.25 -60 47.55 -26.55 43.25 6.85 38.85 15.3 31.8 23.1 29.35 25.7 27 28 19.4 35.45 9.75 49.2 -9.1720703125 55.9640625 -22.1 49
L -29.85 37.95
Q -30.64921875 37.33671875 -31.45 36.75 -35.75 33.5 -38.7 30.3 -41.65 27.15 -44.5 24.1 -45.2 23.3 -45.9 22.5 -46.15 22.2 -46.4 21.95 -52.3 15.1 -56.35 7.85 -59.4 -27.25 -56.35 -63.1 -54.15 -67.25 -51.35 -70.1 -42.95 -78.55 -18.8 -81.2 -17.3 -81.35 -15.75 -81.45 -15.65 -81.45 -15.55 -81.45 -12.3 -81.85 -8.8 -82.05 -8.25 -82.1 -7.65 -82.1
L -7.65 -82.15
Q -7.4 -82.15 -7.2 -82.1 -7.05 -82.15 -6.9 -82.15
L -6.9 -82.1
Q 10.4025390625 -81.1947265625 33.6 -73.85 33.483203125 -73.6326171875 34.45 -72.55 Z"/>

<path fill="#F5DEDE" stroke="none" d="
M 34.45 -72.55
Q 33.483203125 -73.6326171875 33.6 -73.85 10.4025390625 -81.1947265625 -6.9 -82.1
L -6.9 -82.15
Q -7.05 -82.15 -7.2 -82.1 -7.4 -82.15 -7.65 -82.15
L -7.65 -82.1
Q -8.25 -82.1 -8.8 -82.05 -12.3 -81.85 -15.55 -81.45 -15.65 -81.45 -15.75 -81.45 -17.3 -81.35 -18.8 -81.2 -42.95 -78.55 -51.35 -70.1 -54.15 -67.25 -56.35 -63.1 -59.4 -27.25 -56.35 7.85 -52.3 15.1 -46.4 21.95 -46.15 22.2 -45.9 22.5 -45.2 23.3 -44.5 24.1 -41.65 27.15 -38.7 30.3 -35.75 33.5 -31.45 36.75 -30.64921875 37.33671875 -29.85 37.95 33.81171875 1.959765625 34.45 -72.55 Z"/>

<path fill="#D3BFB4" stroke="none" d="
M 36.75 -70.1
Q 35.2345703125 -71.6228515625 34.45 -72.55 33.81171875 1.959765625 -29.85 37.95
L -22.1 49
Q -9.1720703125 55.9640625 9.75 49.2 19.4 35.45 27 28 29.35 25.7 31.8 23.1 38.85 15.3 43.25 6.85 47.55 -26.55 43.25 -60 41.15 -64.95 38.35 -68.3 37.55 -69.3 36.75 -70.1 Z"/>
</g>

<g id="Duplicate_Items_Folder_head_copy_2_0_Layer3_0_FILL">
<path fill="#483728" stroke="none" d="
M 22.15 -107.55
L 21.75 -107.05 24.4 -105.6
Q 23.2734375 -106.5953125 22.15 -107.55 Z"/>

<path fill="#0E0E0E" stroke="none" d="
M 21.75 -107.05
L 22.15 -107.55
Q -4.5478515625 -115.4724609375 -9.85 -115.4 -15.1478515625 -115.269140625 -31.9 -109.65 -48.6517578125 -103.994140625 -57.75 -99.3
L -59.75 -101.6
Q -62.05 -104.2 -63.8 -105.6 -69.5 -110.05 -67.2 -101.1 -65.45 -94.2 -58.7 -87.5 -58.2287109375 -87.0169921875 -57.9 -86.6 -56.7353515625 -85.2849609375 -56.85 -84.75 -57.1 -83.85 -60.65 -83.25 -64.15 -82.6 -65.95 -74.5 -67.4 -67.85 -67.4 -58.1 -67.4 -49.45 -66.4 -44.9 -65.35 -40.25 -64.3 -45.7 -62.4 -55.75 -49.25 -67.9 -44.5 -72.35 -42.05 -73.5 -39.5 -74.6 -42.45 -70.75 -45.2 -67.05 -44.9 -59.8 -44.65 -53.75 -42.6 -47.5 -41.1939453125 -43.281640625 -39.9 -41.6 -39.8296875 -41.492578125 -39.8 -41.45 -39.33515625 -40.8611328125 -38.9 -40.6 -37.1 -39.45 -37.35 -45.7 -37.75 -56.9 -27.35 -62.7 -24.1 -64.55 -20.2 -65.55
L -16.9 -66.25 -16.2 -67.15 -4.55 -68.05 4.2 -60.9 8.6 -48.4 13.8 -70.55 24.75 -50.75
Q 27.1140625 -48.7220703125 28.55 -46.3 31.02421875 -42.03125 30.8 -36.45 30.55 -30.2 32.35 -31.35 34.1 -32.4 36.05 -38.25 38.099609375 -44.5046875 47.25 -34.9 56.1546875 -25.49609375 54.95 -33.95 55.2396484375 -33.0806640625 55.45 -32.5 56.45 -29.65 55.85 -37.4 55.4974609375 -41.9537109375 55.75 -48.7 55.955078125 -53.434765625 56.45 -59.25 56.7466796875 -62.8869140625 56.4 -66.1 56.0703125 -69.6396484375 54.95 -72.65 53.158203125 -77.4103515625 49.45 -80.8 42.85 -86.8 34.3 -99 33.769140625 -99.294921875 33.25 -99.6 33.1080078125 -99.6732421875 32.95 -99.75 31.7748046875 -100.5625 30.9 -101.65 29.9146484375 -102.169140625 29.1 -102.6 23.1927734375 -105.8673828125 28.15 -103.3
L 20.2 -107.9 21.75 -107.05
M 52.35 -71.45
Q 54.7466796875 -67.6974609375 54.65 -64.65
L 46.8 -59.25 47.85 -54.45
Q 48.096484375 -53.8701171875 48.35 -53.2 48.1517578125 -53.6392578125 47.9 -54.1
L 48.95 -49.35 45.85 -58.6 36 -51.6 36 -51.5 33.6 -38.4 34.35 -50.4 30.9 -47.3 24.55 -57.9 30.85 -61.1 31.2 -61.25 28.35 -67 12.75 -82.5 9.5 -84.85 10.95 -84.8 14.1 -86.05 14.35 -86 34.6 -77.95 43.55 -67.7 43.9 -67.35 46.75 -68.75 46.75 -68.75 41.35 -82.65 31.5 -89.05 14.1 -89.55 10.85 -88.75 13.75 -92.35 32.2 -92.95 42.8 -83.9 46.95 -68.85 52.35 -71.45
M 2.7 -97.15
L 6.45 -91.25 -11.2 -104.2 -38.65 -98.2 -55.9 -84 -41 -101.6 -8.3 -108.6 2.7 -97.15
M 5.4 -86.5
L 7.75 -85.8 2.15 -84.75 -25.55 -74.15 -38 -62 -39.85 -42.25 -41.05 -62.4 -28.65 -77.75 -1.5 -86.85 -22.25 -92.35 -50 -80.2 -61.65 -63.7 -52.75 -81.55 -22.4 -96.7 0.85 -89.7 5.4 -86.5
M 30.55 -68.95
L 33.15 -62.2 42.25 -66.55 33.45 -75.05 15.2 -83.25 30.55 -68.95 Z"/>

<path fill="#836049" stroke="none" d="
M 7.75 -85.8
L 5.4 -86.5 0.85 -89.7 -22.4 -96.7 -52.75 -81.55 -61.65 -63.7 -50 -80.2 -22.25 -92.35 -1.5 -86.85 -28.65 -77.75 -41.05 -62.4 -39.85 -42.25 -38 -62 -25.55 -74.15 2.15 -84.75 7.75 -85.8
M 6.45 -91.25
L 2.7 -97.15 -8.3 -108.6 -41 -101.6 -55.9 -84 -38.65 -98.2 -11.2 -104.2 6.45 -91.25
M 36 -51.6
L 35.95 -51.55 34.35 -50.45 34.35 -50.4 33.6 -38.4 36 -51.5 36 -51.6
M 47.85 -54.45
L 46.8 -59.25 45.85 -58.6 48.95 -49.35 47.9 -54.1 47.85 -54.45
M 42.25 -66.55
L 43.55 -67.7 34.6 -77.95 14.35 -86 14.1 -86.05 10.95 -84.8 9.5 -84.85 12.75 -82.5 28.35 -67 31.2 -61.25 33.15 -62.15 33.15 -62.2 30.55 -68.95 15.2 -83.25 33.45 -75.05 42.25 -66.55
M 46.75 -68.75
L 46.95 -68.85 42.8 -83.9 32.2 -92.95 13.75 -92.35 10.85 -88.75 14.1 -89.55 31.5 -89.05 41.35 -82.65 46.75 -68.75 Z"/>

<path fill="#FFFFFF" stroke="none" d="
M 30.85 -61.1
L 34.35 -50.45 35.95 -51.55 33.15 -62.15 31.2 -61.25 30.85 -61.1
M 43.9 -67.35
L 42.25 -66.55 43.65 -65.25 45.85 -58.6 46.8 -59.25 45.45 -65.55 43.9 -67.35 Z"/>

<path fill="#CCCCCC" stroke="none" d="
M 34.35 -50.45
L 30.85 -61.1 24.55 -57.9 30.9 -47.3 34.35 -50.4 34.35 -50.45
M 43.65 -65.25
L 42.25 -66.55 33.15 -62.2 33.15 -62.15 35.95 -51.55 36 -51.6 45.85 -58.6 43.65 -65.25
M 54.65 -64.65
Q 54.7466796875 -67.6974609375 52.35 -71.45
L 46.95 -68.85 47 -68.8 47.6 -66.6 46.75 -68.75 43.9 -67.35 45.45 -65.55 46.8 -59.25 54.65 -64.65 Z"/>

<path fill="#123A76" stroke="none" d="
M 42.25 -66.55
L 43.9 -67.35 43.55 -67.7 42.25 -66.55
M 46.75 -68.75
L 46.75 -68.75 47.6 -66.6 47 -68.8 46.95 -68.85 46.75 -68.75 Z"/>
</g>

<g id="Duplicate_Items_Folder_head_copy_2_0_Layer2_0_FILL">
<path fill="#B39980" stroke="none" d="
M -10.8 -19.1
L -13.75 -16.45 -16.25 -5.15
Q -24.15 4.75 -22.65 9.7 -21.45 15.8 -15.15 14.8 -15.1 14.85 -5.4 10.15 -5.3 10.05 -5.2 10
L 1.75 9.5 3.05 7.65 2.8 7.7 2.5 7.45 2.45 7.35 1.15 7.7
Q -0.35 6.95 -0.6 6.45 -0.9 5.7 -2.3 5.6 -3.65 5.6 -5.35 6.1 -7.1 6.65 -8.15 7.45 -9.2 8.35 -8.95 9.1 -8.7 9.7 -10.75 8.6 -12.85 7.55 -13.4 9.35 -14 11.2 -16.75 12.25 -19.6 13.35 -20.5 7.8 -21.95 3.4 -13.9 -5.75
L -11.15 -15.85 -9.75 -17.1 -10.8 -19.1 Z"/>
</g>

<g id="Duplicate_Items_Folder_head_copy_2_0_Layer1_0_FILL">
<path fill="#F5DEDE" stroke="none" d="
M -9.65 -20.7
L -10.05 -21.4 -11.6 -20 -13.05 -18.75 -15.75 -8.1
Q -23.75 1.35 -22.25 6.05 -21.3 11.9 -17 11 -15.35 10.65 -14.2 10.3 -20.5 11 -9.65 -20.7 Z"/>

<path fill="#D3BFB4" stroke="none" d="
M 0.7 6
L 2.05 5.85 3.25 4.1 3 4.15 2.8 3.95 -9.65 -20.7
Q -20.5 11 -14.2 10.3 -12.6 9.85 -12.1 9.45 -10.45 8.3 -10.7 7.55 -10.95 6.75 -9.9 5.95 -8.85 5.05 -7.1 4.5 -5.45 4 -4.05 4.05 -2.65 4.2 -2.35 4.95 -2.1 5.55 -0.55 6.3
L 0.7 6 Z"/>

<path fill="#000000" stroke="none" d="
M 0 8.2
L 1.3 6.3 1 6.3 0.75 6.1 0.7 6 -0.55 6.3
Q -2.1 5.55 -2.35 4.95 -2.65 4.2 -4.05 4.05 -5.45 4 -7.1 4.5 -8.85 5.05 -9.9 5.95 -10.95 6.75 -10.7 7.55 -10.45 8.3 -12.1 9.45 -12.6 9.85 -14.2 10.3 -15.35 10.65 -17 11 -21.3 11.9 -22.25 6.05 -23.75 1.35 -15.75 -8.1
L -13.05 -18.75 -11.6 -20 -12.7 -22.2 -15.65 -19.45 -18.1 -7.6
Q -25.95 2.75 -24.4 8.05 -23.2 14.5 -16.9 13.55 -16.85 13.6 -7.15 8.8 -7 8.7 -6.9 8.7
L 0 8.2
M 9.85 -10.3
L 9.9 -10.6 9.8 -10.3 9.85 -10.3 Z"/>
</g>

<g id="Duplicate_Items_Folder_head_copy_2_0_Layer0_0_FILL">
<path fill="#E4A3A3" stroke="none" d="
M -10.25 41.25
Q -11.85 42.35 -12.65 43.85 -13.3 45.25 -12.65 46.15 -12.05 47.05 -10.5 47 -8.85 46.85 -7.25 45.75 -5.65 44.7 -4.95 43.3 -4.25 41.8 -4.85 40.9 -5.5 40 -7.1 40.15 -8.65 40.2 -10.25 41.25
M -10.25 45.15
Q -11.1 45.2 -11.45 44.65 -11.85 44.15 -11.45 43.3 -11 42.4 -10.1 41.75 -9.2 41.15 -8.35 41.1 -7.45 41 -7.1 41.55 -6.75 42.1 -7.15 43 -7.5 43.8 -8.4 44.45 -9.35 45.05 -10.25 45.15 Z"/>

<path fill="#000000" stroke="none" d="
M -11.45 44.65
Q -11.1 45.2 -10.25 45.15 -9.35 45.05 -8.4 44.45 -7.5 43.8 -7.15 43 -6.75 42.1 -7.1 41.55 -7.45 41 -8.35 41.1 -9.2 41.15 -10.1 41.75 -11 42.4 -11.45 43.3 -11.85 44.15 -11.45 44.65 Z"/>
</g>

<g id="mouth_open_0_Layer0_0_FILL">
<path fill="#000000" stroke="none" d="
M 11.45 -9.8
Q 11.35 -9.8 11.25 -9.75 0.75 -6.6 -2.1 -6 -4.55 -5.5 -5.15 -5.4 -6.2 -5.4 -9.35 -6.2
L -9.7 2.2
Q -7.7 5 -5.6 6.25 -5.2 6.4 -4.85 6.65 -0.75 8.8 2.65 7.55 5.05 6.65 8.65 4.65 12.95 2.15 18.75 -2 13.1 -4.05 11.45 -9.8
M 4 -5.4
L 4 -5.25
Q 6.45 -5.85 10.45 -7.1
L 11.35 -5.65 13.95 -3.25 13.9 -3.2 14.9 -2.3
Q 10.1 0.9 6.6 2.8
L 5.45 -0.6 4.05 -4.6 5 -0.3 5.7 3.3
Q 3 4.65 1.15 5.25 0.15 5.5 -0.85 5.45
L -1 1.35 -1.05 -3.65 -1.4 1.2 -1.9 5.35
Q -3.5 4.95 -5.1 3.85 -6.7 2.85 -7.8 1.7
L -7.35 -0.75 -6.9 -3.8
Q -5.75 -3.45 -4.9 -3.45 -4.4 -3.45 -1.1 -3.9
L -1.1 -3.95
Q 0.25 -4.3 4 -5.4 Z"/>

<path fill="#EAEAEA" stroke="none" d="
M -7.8 1.7
Q -6.7 2.85 -5.1 3.85 -3.5 4.95 -1.9 5.35
L -1.4 1.2 -7.35 -0.75 -7.8 1.7
M 1.15 5.25
Q 3 4.65 5.7 3.3
L 5 -0.3 -0.85 1.35 -1 1.35 -0.85 5.45
Q 0.15 5.5 1.15 5.25
M 9.45 -1.85
L 5.45 -0.6 6.6 2.8
Q 10.1 0.9 14.9 -2.3
L 13.9 -3.2 13.4 -3.7 13.1 -3.4
Q 12.25 -2.95 11.6 -2.55
L 9.45 -2
Q 9.4 -1.9 9.45 -1.85 Z"/>

<path fill="#FFFFFF" stroke="none" d="
M 5.45 -0.6
L 9.45 -1.85
Q 9.4 -1.9 9.45 -2
L 11.6 -2.55
Q 12.25 -2.95 13.1 -3.4
L 13.4 -3.7 13.9 -3.2 13.95 -3.25 11.35 -5.65 10.45 -7.1
Q 6.45 -5.85 4 -5.25
L 4 -5.4
Q 0.25 -4.3 -1.1 -3.95
L -1.1 -3.9
Q -4.4 -3.45 -4.9 -3.45 -5.75 -3.45 -6.9 -3.8
L -7.35 -0.75 -1.4 1.2 -1.05 -3.65 -1 1.35 -0.85 1.35 5 -0.3 4.05 -4.6 5.45 -0.6 Z"/>
</g>

<g id="eye_blink_7_Layer4_0_FILL">
<path fill="#000000" stroke="none" d="
M 58.2 16.85
Q 53.45 9.85 41.35 9.2 29.2 8.55 20.7 12.75 12.25 16.95 12.1 26.9 11.85 36.8 17.2 43.1 22.5 49.25 34.65 50.75 46.85 52.25 52.2 46.5 57.55 40.6 60.25 32.25 62.95 23.8 58.2 16.85
M 41.6 11.25
Q 52.3 11.6 56.6 17.95 60.8 24.15 58.4 31.7 56 39.35 51.2 44.6 46.3 49.75 35.95 47.4 25.5 44.9 20.2 38.9 14.8 32.95 15.95 25.9 17.15 18.85 24.05 14.8 30.85 10.75 41.6 11.25 Z"/>

<path fill="#CC0000" stroke="none" d="
M 56.6 17.95
Q 52.3 11.6 41.6 11.25 30.85 10.75 24.05 14.8 17.15 18.85 15.95 25.9 14.8 32.95 20.2 38.9 25.5 44.9 35.95 47.4 46.3 49.75 51.2 44.6 56 39.35 58.4 31.7 60.8 24.15 56.6 17.95
M 41.7 13.1
Q 51.35 13.45 55.2 19.1 55.7 19.9 56.15 20.75 58.75 25.75 56.9 31.7 55.4 36.15 53.1 39.65 51.8 41.55 50.25 43.25 45.95 47.95 36.55 45.75 27.15 43.55 22.3 38.05 21.75 37.55 21.3 36.85 17.65 32.05 18.6 26.4 18.8 25.3 19.05 24.2 20.7 19.4 25.8 16.45 32 12.8 41.7 13.1 Z"/>

<path fill="#FFFFFF" stroke="none" d="
M 55.2 19.1
Q 51.35 13.45 41.7 13.1 32 12.8 25.8 16.45 20.7 19.4 19.05 24.2 18.8 25.3 18.6 26.4 17.65 32.05 21.3 36.85 21.75 37.55 22.3 38.05 27.15 43.55 36.55 45.75 45.95 47.95 50.25 43.25 51.8 41.55 53.1 39.65 55.4 36.15 56.9 31.7 58.75 25.75 56.15 20.75 55.7 19.9 55.2 19.1 Z"/>
</g>

<g id="pupil_0_Layer0_0_FILL">
<path fill="#6F563C" stroke="none" d="
M 8 -6.6
Q 7.9 -6.7 7.9 -6.75 6.05 -8.45 3.6 -8.45 1.05 -8.45 -0.75 -6.6 -1.35 -6.05 -1.75 -5.45 -2.6 -3.9 -2.6 -2.15 -2.6 0.5 -0.75 2.35 -0.15 3 0.5 3.35 1.9 4.2 3.6 4.2 5.35 4.2 6.75 3.35 7.4 3 8 2.35 9.8 0.5 9.8 -2.15 9.8 -4.75 8 -6.6
M 1.4 -6
L 1.4 -6.05
Q 2.65 -7.35 4.45 -7.35 5.7 -7.35 6.65 -6.7 7.15 -6.4 7.55 -6 8.85 -4.65 8.85 -2.8 8.85 -0.9 7.55 0.35 6.25 1.7 4.45 1.7 2.6 1.7 1.4 0.35 0.05 -0.9 0.05 -2.8 0.05 -4.65 1.4 -6 Z"/>

<path fill="#000000" stroke="none" d="
M 1.4 -6.05
L 1.4 -6
Q 0.05 -4.65 0.05 -2.8 0.05 -0.9 1.4 0.35 2.6 1.7 4.45 1.7 6.25 1.7 7.55 0.35 8.85 -0.9 8.85 -2.8 8.85 -4.65 7.55 -6 7.15 -6.4 6.65 -6.7 5.7 -7.35 4.45 -7.35 2.65 -7.35 1.4 -6.05
M 1.4 -4.7
Q 1.6 -4.9 1.85 -4.9 2.1 -4.9 2.3 -4.7 2.5 -4.55 2.5 -4.25 2.5 -4.05 2.3 -3.85 2.1 -3.7 1.85 -3.7 1.6 -3.7 1.4 -3.85 1.2 -4.05 1.2 -4.25 1.2 -4.55 1.4 -4.7 Z"/>

<path fill="#FFFFFF" stroke="none" d="
M 1.85 -4.9
Q 1.6 -4.9 1.4 -4.7 1.2 -4.55 1.2 -4.25 1.2 -4.05 1.4 -3.85 1.6 -3.7 1.85 -3.7 2.1 -3.7 2.3 -3.85 2.5 -4.05 2.5 -4.25 2.5 -4.55 2.3 -4.7 2.1 -4.9 1.85 -4.9 Z"/>
</g>

<g id="eye_blink_7_Layer1_0_FILL">
<path fill="#0D0C11" stroke="none" d="
M 37.4 -7.1
Q 29.55 -5.7 24.45 -3.8 19.2 -1.8 16.4 0.2
L 14.05 7.75
Q 17.64921875 5.5943359375 20.25 2.7 22.90234375 -0.18359375 33.45 3.05 37.95 3.55 48.35 7.1 55.9 9.6 56.65 10.2
L 56.95 5.75 56.2 4.8
Q 51.1513671875 -3.2951171875 40.75 -1.1
L 37.4 -7.1 Z"/>
</g>

<g id="Duplicate_Items_Folder_arm_suit_copy_2_0_Layer1_0_FILL">
<path fill="#A3ABCB" stroke="none" d="
M 13.5 -2.55
L 19.4 -12.15 14 -14.2 3.75 -2
Q 9.962890625 0.2951171875 13.5 -2.55 Z"/>

<path fill="#B3BAD5" stroke="none" d="
M 3.35 -21.1
L 1.95 -21.95 0.05 -19.45 -10.9 -11.5
Q -1.7822265625 -4.0240234375 3.75 -2
L 14 -14.2 3.35 -21.1 2.7 -21 3.35 -21.1 Z"/>

<path fill="#000000" stroke="none" d="
M 14 -14.2
L 14.7 -15.95 6.25 -21.35 3.35 -21.1 14 -14.2
M 40.35 -45.6
Q 40.4 -45.6 40.45 -45.6
L 40.65 -46.75
Q 38.9 -46.8 36.35 -46.85 29.35 -47.05 23.1 -42.05 16.7 -37 15.35 -36 14.6 -35.45 10.2 -31.4 6.55 -28.05 0.2 -22.15 -1.9 -20.1 -6.7 -17.05 -11.4 -14.05 -13.05 -12.4 -15.05 -10.4 -13.85 -10.05 -12.6 -9.55 -13.8 -8.25 -15.35 -6.45 -22.3 1.05 -27.35 6.5 -27.3 6.65 -29.35 9.25 -29.35 11.05 -27.8 14.3 -25.2 14.75 -28.35 17.9 -26.65 21.75
L -14.4 33.15
Q -11.65 34.85 -9.6 33.65 -7.55 32.4 -6.2 31.1 -4.9 29.8 -4.85 28.85 -4.85 27.9 -4.65 26.1 -4.45 24.3 -6.3 20.65
L -8.65 17.25
Q -8.65 14.9 -6.8 14
L -5.45 17.4
Q -4.35 20.65 0.45 21.95 1.7 22.05 3.65 22.25 5.65 22.35 7.9 20.85 10.05 19.3 9.55 16.4 8.45 13.15 8.35 11.95 8.15 10.1 9.3 9.5 9.65 9.3 11.1 6.1 12.8 2.5 13.35 1.7 17.15 -0.95 17.35 -1.25 17.95 -2.1 18.4 -3.75 18.7 -5.05 19.65 -7.05 20.35 -8.6 21.3 -10.6 25.45 -16.1 28.6 -19.85 30.3 -21.9 31.65 -23.45 33.880859375 -25.9009765625 35.8 -27.65 36.991015625 -28.701171875 38.05 -29.5
L 38.85 -33.1
Q 37.45859375 -31.193359375 35.45 -29.3 32.7453125 -26.708984375 28.9 -24.15 27.3154296875 -23.0431640625 25.5 -21.95
L 20.3 -13.6 21.45 -13.1 20.3 -13.6 15.25 -15.7 14 -14.2 19.4 -12.15 21.15 -11.5 19.4 -12.15 13.5 -2.55
Q 9.962890625 0.2951171875 3.75 -2 -1.7822265625 -4.0240234375 -10.9 -11.5
L 0.05 -19.45 1.95 -21.95 3.35 -21.1 6.25 -21.35 21.7 -36.15
Q 21.6564453125 -36.05546875 22.05 -36.3 23.2986328125 -36.9380859375 29.2 -40.45 31.07265625 -41.5333984375 32.5 -42.45 37.0830078125 -45.292578125 36.85 -45.85 36.8537109375 -45.8779296875 36.8 -45.95 37.5365234375 -45.9931640625 38.4 -45.95 39.4 -44.2 40 -42.6
L 40.35 -45.6
M 7.9 5.85
Q 7.1 7.4 6.6 8.55 6.1 9.6 6.8 13.6 7.4 17.6 5.8 18.65 4.1 19.7 1.3 19.2 -1.65 18.7 -3.2 16.8
L -4.15 16
Q -5.15 12.05 -5.15 11.7 -5.45 8.4 -9.1 13.6 -10.05 14.9 -10.55 16.1 -11.7 19.3 -8.9 21.15 -6.7 24.3 -7.3 27.55 -7.35 28.5 -7.8 29.35 -8.3 30.2 -9.2 30.95 -10.95 32 -13.35 31.3
L -25.35 20.8
Q -25.1 16.8 -23.05 14.3 -23.3 14 -23.6 13.6 -24.8 11.7 -24.95 9.65 -22.2 5.1 -19.05 0.9 -18.15 -0.2 -17.2 -1.35 -14.45 -4.8 -11.3 -7.9
L -8.7 -6 -6.15 -4.75 -2.3 -0.4 4 1.65 5.2 1.85 4.15 2.15 11.1 1.55
Q 10.1 2.95 9.35 3.8
L 9.15 3.95
Q 8.8 4.35 7.9 5.85 Z"/>

<path fill="#97A0C6" stroke="none" d="
M 15.25 -15.7
L 14.7 -15.95 14 -14.2 15.25 -15.7
M 36.85 -45.85
Q 37.0830078125 -45.292578125 32.5 -42.45 31.07265625 -41.5333984375 29.2 -40.45 23.2986328125 -36.9380859375 22.05 -36.3 21.6564453125 -36.05546875 21.7 -36.15
L 6.25 -21.35 14.7 -15.95 15.25 -15.7 22.5 -24.35 39.2 -35.5 39.6 -39.75
Q 39.65 -39.95 39.7 -40.1
L 40 -42.6
Q 39.4 -44.2 38.4 -45.95 37.5365234375 -45.9931640625 36.8 -45.95 36.8537109375 -45.8779296875 36.85 -45.85 Z"/>

<path fill="#8792BC" stroke="none" d="
M 35.45 -29.3
Q 37.45859375 -31.193359375 38.85 -33.1
L 39.1 -34.2 39.2 -35.5 22.5 -24.35 15.25 -15.7 20.3 -13.6 25.5 -21.95
Q 27.3154296875 -23.0431640625 28.9 -24.15 32.7453125 -26.708984375 35.45 -29.3 Z"/>

<path fill="#F5DEDE" stroke="none" d="
M 4.15 2.15
L 4 1.65 -2.3 -0.4 -6.15 -4.75 -8.7 -6 -11.3 -7.9
Q -14.45 -4.8 -17.2 -1.35 -18.15 -0.2 -19.05 0.9 -22.2 5.1 -24.95 9.65 -24.8 11.7 -23.6 13.6 -23.3 14 -23.05 14.3 -25.1 16.8 -25.35 20.8
L -13.35 31.3
Q -10.95 32 -9.2 30.95 -8.3 30.2 -7.8 29.35 -7.35 28.5 -7.3 27.55 -6.7 24.3 -8.9 21.15 -11.7 19.3 -10.55 16.1 -10.05 14.9 -9.1 13.6 -5.45 8.4 -5.15 11.7 -5.15 12.05 -4.15 16 -0.8 9.75 4.15 2.15 Z"/>

<path fill="#9592A9" stroke="none" d="
M 4.15 2.15
L 5.2 1.85 4 1.65 4.15 2.15 Z"/>

<path fill="#EEC4C4" stroke="none" d="
M 6.6 8.55
Q 7.1 7.4 7.9 5.85 8.8 4.35 9.15 3.95
L 9.35 3.8
Q 10.1 2.95 11.1 1.55
L 4.15 2.15
Q -0.8 9.75 -4.15 16
L -3.2 16.8
Q -1.65 18.7 1.3 19.2 4.1 19.7 5.8 18.65 7.4 17.6 6.8 13.6 6.1 9.6 6.6 8.55 Z"/>
</g>

<g id="Duplicate_Items_Folder_arm_suit_copy_2_0_Layer0_0_FILL">
<path fill="#000000" stroke="none" d="
M -3.3 -14.25
Q -3.55 -13.5 -3.3 -12.85 -3.05 -12.15 -2.4 -11.95 -1.75 -11.7 -1.15 -12.1 -0.55 -12.45 -0.3 -13.2 -0.05 -13.9 -0.3 -14.6 -0.5 -15.25 -1.15 -15.5 -1.8 -15.7 -2.45 -15.35 -3.05 -14.95 -3.3 -14.25 Z"/>
</g>

<path id="Duplicate_Items_Folder_body_suit_copy_2_0_Layer1_0_1_STROKES" stroke="#000000" stroke-width="1" stroke-linejoin="round" stroke-linecap="round" fill="none" d="
M 10.75 -43.6
L 10.375 -42.325 10.375 -42.3"/>

<path id="Duplicate_Items_Folder_arm_suit_copy_2_0_Layer1_0_1_STROKES" stroke="#000000" stroke-width="0.1" stroke-linejoin="round" stroke-linecap="round" fill="none" d="
M 20.3 -13.575
L 21.45 -13.1
M 6.275 -21.35
L 14.725 -15.925 15.25 -15.7 20.3 -13.575
M 0.075 -19.425
L 1.975 -21.95 3.35 -21.075 6.275 -21.35
M 2.7 -21
L 3.35 -21.075 14 -14.2 19.425 -12.15 21.15 -11.5"/>
</defs>

<g transform="matrix( 5.8390655517578125, 0, 0, 5.8390655517578125, 42.85,539.45) ">
<g transform="matrix( 0.308319091796875, 0.0217742919921875, -0.0217742919921875, 0.308319091796875, 33.05,-10.5) ">
<g transform="matrix( 1, 0, 0, 1, 0,0) ">
<use xlink:href="#Duplicate_Items_Folder_leg_suit_copy_0_Layer1_0_FILL"/>
</g>

<g transform="matrix( 1.15313720703125, 0.0055694580078125, -0.0055694580078125, 1.15313720703125, -2.5,17.55) ">
<g transform="matrix( 1, 0, 0, 1, 0,0) ">
<use xlink:href="#right_shoe_0_Layer0_0_FILL"/>
</g>
</g>
</g>

<g transform="matrix( 0.0822296142578125, 0.29949951171875, 0.31732177734375, -0.087127685546875, 26,-29.5) ">
<g transform="matrix( 1, 0, 0, 1, 0,0) ">
<use xlink:href="#arm_chainsaw_0_Layer2_0_FILL"/>
</g>

<g transform="matrix( 1, 0, 0, 1, 0,0) ">
<use xlink:href="#arm_chainsaw_0_Layer1_0_FILL"/>
</g>

<g transform="matrix( 0.72821044921875, -0.5364227294921875, 0.5364227294921875, 0.72821044921875, 20.15,-8.2) ">
<g transform="matrix( 1, 0, 0, 1, 0,0) ">
<use xlink:href="#chainsaw_0_Layer3_0_FILL"/>
</g>

<g transform="matrix( 1, 0, 0, 1, 0,0) ">
<use xlink:href="#chainsaw_0_Layer2_0_FILL"/>
</g>

<g transform="matrix( 1, 0, 0, 1, 0,0) ">
<use xlink:href="#chainsaw_0_Layer1_0_FILL"/>
</g>

<g transform="matrix( 1, 0, 0, 1, 0,0) ">
<use xlink:href="#chainsaw_0_Layer0_0_FILL"/>
</g>
</g>
</g>

<g transform="matrix( 0.3319091796875, -0.013824462890625, 0.0097503662109375, 0.3315277099609375, 42.15,-31.25) ">
<g transform="matrix( -0.799163818359375, 0.6917724609375, 0.6917724609375, 0.799163818359375, 33.45,-19.05) ">
<g transform="matrix( 1, 0, 0, 1, 0,0) ">
<use xlink:href="#shotgun_0_Layer5_0_FILL"/>
</g>

<g transform="matrix( 1, 0, 0, 1, 0,0) ">
<use xlink:href="#shotgun_0_Layer4_0_FILL"/>
</g>

<g transform="matrix( 1, 0, 0, 1, 0,0) ">
<use xlink:href="#shotgun_0_Layer3_0_FILL"/>
</g>

<g transform="matrix( 1, 0, 0, 1, 0,0) ">
<use xlink:href="#shotgun_0_Layer2_0_FILL"/>
</g>

<g transform="matrix( 1, 0, 0, 1, 0,0) ">
<use xlink:href="#shotgun_0_Layer1_0_FILL"/>
</g>

<g transform="matrix( 1, 0, 0, 1, 0,0) ">
<use xlink:href="#shotgun_0_Layer0_0_FILL"/>
</g>
</g>

<g transform="matrix( 1, 0, 0, 1, 0,0) ">
<use xlink:href="#Duplicate_Items_Folder_body_suit_copy_2_0_Layer1_0_FILL"/>

<use xlink:href="#Duplicate_Items_Folder_body_suit_copy_2_0_Layer1_0_1_STROKES"/>
</g>

<g transform="matrix( 1, 0, 0, 1, 0,0) ">
<use xlink:href="#Duplicate_Items_Folder_body_suit_copy_2_0_Layer0_0_FILL"/>
</g>
</g>

<g transform="matrix( -0.3310394287109375, 0.0215606689453125, 0.0215606689453125, 0.3310394287109375, 50.85,-10.75) ">
<g transform="matrix( 1, 0, 0, 1, 0,0) ">
<use xlink:href="#Duplicate_Items_Folder_leg_suit_copy_0_Layer1_0_FILL"/>
</g>

<g transform="matrix( 1.15313720703125, 0.0055694580078125, -0.0055694580078125, 1.15313720703125, -2.5,17.55) ">
<g transform="matrix( 1, 0, 0, 1, 0,0) ">
<use xlink:href="#right_shoe_0_Layer0_0_FILL"/>
</g>
</g>
</g>

<g transform="matrix( 0.2706298828125, -0.0144805908203125, 0.003875732421875, 0.2707977294921875, 43.15,-54.7) ">
<g transform="matrix( 1.0660400390625, 0.22674560546875, -0.2767181396484375, 1.30096435546875, -67.1,-32.3) ">
<g transform="matrix( 1, 0, 0, 1, 0,0) ">
<use xlink:href="#ear_0_Layer0_0_FILL"/>
</g>
</g>

<g transform="matrix( 1, 0, 0, 1, 0,0) ">
<use xlink:href="#Duplicate_Items_Folder_head_copy_2_0_Layer5_0_FILL"/>
</g>

<g transform="matrix( -0.9907073974609375, 0.452484130859375, 0.552215576171875, 1.2089996337890625, 52.6,-32.15) ">
<g transform="matrix( 1, 0, 0, 1, 0,0) ">
<use xlink:href="#ear_0_Layer0_0_FILL"/>
</g>
</g>

<g transform="matrix( 1, 0, 0, 1, 0,0) ">
<use xlink:href="#Duplicate_Items_Folder_head_copy_2_0_Layer3_0_FILL"/>
</g>

<g transform="matrix( 1, 0, 0, 1, 0,0) ">
<use xlink:href="#Duplicate_Items_Folder_head_copy_2_0_Layer2_0_FILL"/>
</g>

<g transform="matrix( 1, 0, 0, 1, 0,0) ">
<use xlink:href="#Duplicate_Items_Folder_head_copy_2_0_Layer1_0_FILL"/>
</g>

<g transform="matrix( 1, 0, 0, 1, 0,0) ">
<use xlink:href="#Duplicate_Items_Folder_head_copy_2_0_Layer0_0_FILL"/>
</g>
</g>

<g transform="matrix( 0.4535369873046875, -0.046600341796875, 0.041717529296875, 0.406036376953125, 39.8,-47.2) ">
<g transform="matrix( 1, 0, 0, 1, 0,0) ">
<use xlink:href="#mouth_open_0_Layer0_0_FILL"/>
</g>
</g>

<g transform="matrix( -0.253204345703125, 0, 0, 0.253204345703125, 55.2,-65.2) ">
<g transform="matrix( 1, 0, 0, 1, 0,0) ">
<use xlink:href="#eye_blink_7_Layer4_0_FILL"/>
</g>

<g transform="matrix( 1.5396728515625, 0, 0, 1.5396728515625, 35.95,31) ">
<g transform="matrix( 1, 0, 0, 1, 0,0) ">
<use xlink:href="#pupil_0_Layer0_0_FILL"/>
</g>
</g>

<g transform="matrix( 1, 0, 0, 1, 0,0) ">
<use xlink:href="#eye_blink_7_Layer1_0_FILL"/>
</g>
</g>

<g transform="matrix( 0.25579833984375, 0, 0, 0.229583740234375, 24,-65.6) ">
<g transform="matrix( 1, 0, 0, 1, 0,0) ">
<use xlink:href="#eye_blink_7_Layer4_0_FILL"/>
</g>

<g transform="matrix( 1.5396728515625, 0, 0, 1.5396728515625, 35.95,31) ">
<g transform="matrix( 1, 0, 0, 1, 0,0) ">
<use xlink:href="#pupil_0_Layer0_0_FILL"/>
</g>
</g>

<g transform="matrix( 1, 0, 0, 1, 0,0) ">
<use xlink:href="#eye_blink_7_Layer1_0_FILL"/>
</g>
</g>

<g transform="matrix( -0.282135009765625, -0.0988922119140625, -0.0988922119140625, 0.282135009765625, 55.35,-26.65) ">
<g transform="matrix( 1, 0, 0, 1, 0,0) ">
<use xlink:href="#Duplicate_Items_Folder_arm_suit_copy_2_0_Layer1_0_FILL"/>

<use xlink:href="#Duplicate_Items_Folder_arm_suit_copy_2_0_Layer1_0_1_STROKES"/>
</g>

<g transform="matrix( 1, 0, 0, 1, 0,0) ">
<use xlink:href="#Duplicate_Items_Folder_arm_suit_copy_2_0_Layer0_0_FILL"/>
</g>
</g>
</g>
</svg>
