
<svg xmlns="http://www.w3.org/2000/svg" version="1.1" xmlns:xlink="http://www.w3.org/1999/xlink" preserveAspectRatio="none" x="0px" y="0px" width="560px" height="544px" viewBox="0 0 560 544">
<defs>
<g id="feet_0_Layer0_0_FILL">
<path fill="#000000" stroke="none" d="
M 5.95 -9.05
L 1.55 -8.7 0.95 2.1
Q 0.85 2.05 0.75 2 -0.45 1.35 -1.75 1.4 -3.05 1.45 -4.65 5.1 -4.75 5.25 -4.45 5.9 -4.1 6.75 -2.9 7.4 -1.7 8.05 -0.35 7.7 0.9 7.4 1.6 6.5 2.2 7.25 3.15 7.45 4.1 7.6 5.55 7.1 7.05 6.65 7.95 5.6 8.9 4.6 8.65 3.55 8.4 2.45 7.05 2 6.5 1.8 5.95 1.75
L 5.95 -9.05
M 2.35 -7.8
L 5.05 -7.8 5.2 1.5
Q 4.1 1.05 3.55 2.55 4.9 1.6 7.3 3.05 7.45 3.25 7.55 3.45 7.95 4.3 7.55 5 7.1 5.65 5.7 6.1 4.25 6.5 3.4 6.45 2.5 6.35 2.05 5.7
L 2 4.7
Q 1.9 4.95 1.1 5.75 0.25 6.5 -0.2 6.6 -0.65 6.65 -1.55 6.65 -2.5 6.6 -3.1 5.85 -3.75 5.05 -3.1 3.9 -1.85 2.3 -1 2.3 -0.1 2.25 0.1 2.4 0.25 2.55 1.7 3.2 1.85 3.3 2 3.4
L 2.35 -7.8 Z"/>

<path fill="#CCCCCC" stroke="none" d="
M 5.05 -7.8
L 2.35 -7.8 2 3.4
Q 1.85 3.3 1.7 3.2 0.25 2.55 0.1 2.4 -0.1 2.25 -1 2.3 -1.85 2.3 -3.1 3.9 -3.75 5.05 -3.1 5.85 -2.5 6.6 -1.55 6.65 -0.65 6.65 -0.2 6.6 0.25 6.5 1.1 5.75 1.9 4.95 2 4.7
L 2.05 5.7
Q 2.5 6.35 3.4 6.45 4.25 6.5 5.7 6.1 7.1 5.65 7.55 5 7.95 4.3 7.55 3.45 7.45 3.25 7.3 3.05 4.9 1.6 3.55 2.55 4.1 1.05 5.2 1.5
L 5.05 -7.8 Z"/>
</g>

<g id="feet_bones_0_Layer0_0_FILL">
<path fill="#000000" stroke="none" d="
M 6.05 -8.7
L 1.65 -8.35 1.05 2.45
Q 0.95 2.4 0.85 2.35 -0.3533203125 1.7001953125 -1.65 1.75 -2.940625 1.7994140625 -4.6 5.45
L -4.55 5.45
Q -4.65 5.6 -4.35 6.25 -4 7.1 -2.8 7.75 -1.6 8.4 -0.25 8.05 1 7.75 1.7 6.85 2.284765625 7.587890625 3.25 7.75 4.205078125 7.95390625 5.65 7.45 7.15 7 8.05 5.95 9 4.95 8.75 3.9 8.5 2.8 7.15 2.35 6.6 2.15 6.05 2.1
L 6.05 -8.7
M 2.45 -7.45
L 5.15 -7.45 5.3 1.85
Q 4.1794921875 1.3767578125 3.6 2.85 5.0162109375 1.971875 7.4 3.35 7.5451171875 3.57734375 7.65 3.8 8.05 4.65 7.65 5.35 7.2 6 5.75 6.4 4.351953125 6.85 3.45 6.75 2.6169921875 6.701953125 2.15 6.05
L 2.05 5
Q 1.9984375 5.2859375 1.15 6.05 0.3572265625 6.862890625 -0.1 6.9 -0.5513671875 6.99609375 -1.5 6.95 -2.4005859375 6.9498046875 -3.05 6.15 -3.65234375 5.4 -3 4.25 -1.7486328125 2.6646484375 -0.9 2.6 -0.005078125 2.5931640625 0.15 2.75 0.3662109375 2.892578125 1.8 3.55 1.9677734375 3.62734375 2.1 3.7
L 2.45 -7.45 Z"/>

<path fill="#FFFFFF" stroke="none" d="
M 5.15 -7.45
L 2.45 -7.45 2.1 3.7
Q 1.9677734375 3.62734375 1.8 3.55 0.3662109375 2.892578125 0.15 2.75 -0.005078125 2.5931640625 -0.9 2.6 -1.7486328125 2.6646484375 -3 4.25 -3.65234375 5.4 -3.05 6.15 -2.4005859375 6.9498046875 -1.5 6.95 -0.5513671875 6.99609375 -0.1 6.9 0.3572265625 6.862890625 1.15 6.05 1.9984375 5.2859375 2.05 5
L 2.15 6.05
Q 2.6169921875 6.701953125 3.45 6.75 4.351953125 6.85 5.75 6.4 7.2 6 7.65 5.35 8.05 4.65 7.65 3.8 7.5451171875 3.57734375 7.4 3.35 5.0162109375 1.971875 3.6 2.85 4.1794921875 1.3767578125 5.3 1.85
L 5.15 -7.45 Z"/>
</g>

<g id="Duplicate_Items_Folder_body_copy_4_0_Layer1_0_FILL">
<path fill="#000000" stroke="none" d="
M 17.2 -5.6
Q 16.45 -6.25 12.85 -9.35 9.2 -12.5 1.85 -14 -5.45 -15.55 -11 -10.95 -11.15 -10.9 -11.2 -10.8 -12.45 -8.15 -11.2 -5.95
L -14.35 -5.55
Q -16.75 -3.1 -17 0.2 -17.25 6.7 -12.5 11.3 -7.8 15.9 5.15 13.9 18 11.9 18.35 9.55 18.6 7.15 18.8 6.1 19.9 4.45 20.65 2.7
L 25 0.95 22 -0.6 25.75 -3.7 22.4 -4.15
Q 22.45 -5 23.05 -7.55
L 17.2 -5.6
M 16.45 -4.3
Q 16.7 -4.1 17 -3.95 17.05 -3.95 17.1 -3.95 21.95 -6.4 22.1 -6.35 22.15 -6.3 21.4 -4.85
L 20.75 -2.95 23.85 -3.25 19.85 0.15 19.85 0.2 22.45 1.05 19.1 2.15
Q 18.1 4.45 16.7 6.55 16.55 7.45 16.3 8.3 15.4 10.85 4.2 12.55 -6.95 14.3 -11 10.35 -11.7 9.65 -12.2 8.95
L -13.2 7.5 -13.7 6.5
Q -15 3.8 -14.8 0.55 -14.65 -2.35 -12.55 -4.45
L -9.75 -4.75
Q -10.85 -6.7 -9.75 -9 -9.7 -9.1 -9.6 -9.15 -4.7 -13.1 1.7 -11.7 8.1 -10.35 11.65 -7.75 15.2 -5.2 16.45 -4.3 Z"/>

<path fill="#252538" stroke="none" d="
M 17.1 -3.95
Q 17.05 -3.95 17 -3.95
L 17 -3.9 16.45 -1.8
Q 15.05 1.4 11.35 3.95 5.6 7.9 -2.6 7.9 -9.1 7.9 -14.15 5.4 -13.95 5.95 -13.7 6.5
L -13.2 7.5 -12.2 8.95
Q -11.7 9.65 -11 10.35 -6.95 14.3 4.2 12.55 15.4 10.85 16.3 8.3 16.55 7.45 16.7 6.55 18.1 4.45 19.1 2.15
L 22.45 1.05 19.85 0.2 19.85 0.15 23.85 -3.25 20.75 -2.95 21.4 -4.85
Q 22.15 -6.3 22.1 -6.35 21.95 -6.4 17.1 -3.95 Z"/>

<path fill="#3A4252" stroke="none" d="
M 17 -3.95
Q 16.7 -4.1 16.45 -4.3 15.2 -5.2 11.65 -7.75 8.1 -10.35 1.7 -11.7 -4.7 -13.1 -9.6 -9.15 -9.7 -9.1 -9.75 -9 -10.85 -6.7 -9.75 -4.75
L -12.55 -4.45
Q -14.65 -2.35 -14.8 0.55 -15 3.8 -13.7 6.5 -13.95 5.95 -14.15 5.4 -9.1 7.9 -2.6 7.9 5.6 7.9 11.35 3.95 15.05 1.4 16.45 -1.8
L 17 -3.9 17 -3.95 Z"/>
</g>

<g id="Duplicate_Items_Folder_body_copy_4_0_Layer0_0_FILL">
<path fill="#000000" stroke="none" d="
M -5.35 2.85
L -9.4 5.85 -10.05 3.1 -15.7 4.25
Q -13.45 10.25 -8.2 12.6 -2.9 14.95 2.35 14.15
L -0.15 6.35 -4.5 9.4 -5.35 2.85
M -7.4 5.6
L -5.85 4.45 -5.8 4.95 -5.25 10.5 -4.2 10.25 -0.7 7.9 -0.6 8.1 0.7 12.75
Q -0.5052734375 12.991015625 -1.85 13
L -3.65 12.95 -5.55 12.65
Q -6.4 12.45 -7.25 12.1 -8 11.7 -10.6 9.85
L -10.65 9.8
Q -10.7 9.75 -10.75 9.7
L -10.8 9.7
Q -10.95 9.6 -11.05 9.5 -13.15 7.9 -13.3 7 -13.4 6.1 -13.55 5.4
L -12.2 5.05 -11.3 4.8 -10.65 4.7 -9.95 7.45 -7.4 5.6 Z"/>

<path fill="#FF6699" stroke="none" d="
M -2.65 12.4
Q -2.05 12.75 -1.15 12.9 -1.5 12.9875 -1.85 13 -0.5052734375 12.991015625 0.7 12.75
L -0.6 8.1
Q -2.55 9.45 -2.65 12.4
M -12.2 5.05
L -13.55 5.4
Q -13.4 6.1 -13.3 7 -13.15 7.9 -11.05 9.5 -12.45 7.2 -12.2 5.05
M -7.5 8.55
Q -6.7 9.5 -5.25 10.5
L -5.8 4.95
Q -7.4 6 -7.5 8.55 Z"/>

<path fill="#F9E8C6" stroke="none" d="
M -11.3 4.8
L -12.2 5.05
Q -12.45 7.2 -11.05 9.5 -10.95 9.6 -10.8 9.7
L -11.3 4.8
M -0.7 7.9
L -4.2 10.25
Q -3.8 11.7 -2.65 12.4 -2.55 9.45 -0.6 8.1
L -0.7 7.9
M -5.85 4.45
L -7.4 5.6
Q -8.55 6.95 -7.5 8.55 -7.4 6 -5.8 4.95
L -5.85 4.45 Z"/>

<path fill="#CC0000" stroke="none" d="
M -5.25 10.5
Q -6.7 9.5 -7.5 8.55 -8.55 6.95 -7.4 5.6
L -9.95 7.45 -10.65 4.7 -11.3 4.8 -10.8 9.7 -10.75 9.7
Q -10.7 9.75 -10.65 9.8
L -10.6 9.85
Q -8 11.7 -7.25 12.1 -6.4 12.45 -5.55 12.65
L -3.65 12.95 -1.85 13
Q -1.5 12.9875 -1.15 12.9 -2.05 12.75 -2.65 12.4 -3.8 11.7 -4.2 10.25
L -5.25 10.5 Z"/>
</g>

<g id="wing_0_Layer1_0_FILL">
<path fill="#000000" stroke="none" d="
M 12.65 3.1
L 12.2 2.75
Q 7.4783203125 2.0740234375 4.35 0.4
L 2.1 -0.85 1.8 0.55
Q 1.7603515625 1.0234375 2.05 1.7 2.39140625 2.432421875 2.9 4
L 4.9 3.95 3.9 6.3
Q 3.9345703125 6.326953125 3.95 6.35
L 3.9 6.35
Q 2.5544921875 6.5380859375 2.35 7.05 2.1302734375 7.580078125 1.8 8.35 1.46875 9.1130859375 2 9.8 2.54375 10.494921875 3.25 10.5 3.55 10.5 3.8 10.4 3.89765625 10.4482421875 4.2 10.85 4.507421875 11.2537109375 5.3 11.2 6.08984375 11.2001953125 6.4 10.75 6.758984375 10.2986328125 7.1 9.6 7.4404296875 8.955078125 6.75 7.65
L 6.75 7.65 7.9 4.95 9.05 6.5
Q 11.3916015625 5.1130859375 12.65 3.1 Z"/>
</g>

<g id="wing_0_Layer0_0_FILL">
<path fill="#FFFFFF" stroke="none" d="
M 5.7 5.2
Q 5.7 4.8796875 5.55 4.55
L 4.45 7.25
Q 4.35 7.2 4.2 7.15 4.1 7.1 4 7.1 3.95 7.1 3.9 7.05 3.7 7.1 3.4 7.2 3 7.5 2.75 8 2.6 8.5 2.65 9 2.75 9.3 2.95 9.45 3.05 9.6 3.2 9.65 3.55 9.75 4 9.55 4.2 9.35 4.35 9.2 4.25 9.6 4.35 9.95 4.4 10.4 4.8 10.5 5.1037109375 10.653125 5.65 10.45 6.239453125 10.241015625 6.3 9.8 6.3564453125 9.3552734375 6.15 8.85 5.998046875 8.3986328125 5.8 8.3 5.65 8.2498046875 5.6 8.2
L 5.6 8.1 6.8 5.15
Q 6.2927734375 5.261328125 5.7 5.2 Z"/>

<path fill="#CC0000" stroke="none" d="
M 11 3.8
Q 11.0767578125 3.769140625 11.15 3.7 11.2 3.7 11.25 3.65 11.45 3.4 11.65 3.2
L 11.6 3.2
Q 7 3.25 2.4 0.05 2.35 0 2.3 -0.05 2.4 0.25 2.55 0.65 2.55 0.7 2.6 0.8 2.619921875 0.8958984375 2.65 1 2.88203125 2.0998046875 3.25 3.25
L 3.35 3.25
Q 4.1 3.25 5 2.8 5.95 3.6 5.95 4.4 7.3 4.55 8.3 3.9
L 9.2 5.2
Q 10.1646484375 4.6029296875 11 3.8 Z"/>
</g>

<g id="beak_0_Layer1_0_FILL">
<path fill="#000000" stroke="none" d="
M 4.5 -5.95
Q 4.6 -6.4 4.7 -6.95 -0.5 -5.1 -4.85 -1.8 -5.9 -1.2 -6.35 -0.5 -7.3044921875 0.838671875 -6.35 1.7
L -6.05 1.9
Q -0.85 4.55 4.95 5.6 5.05 5.65 5.3 5.65
L 5.4 5.65
Q 5.05 4.9 4.95 4.1 4.4 2.5 4.25 0.8
L 4.35 0.2
Q 4 -2.9 4.5 -5.95
M 3.8 -6.05
Q 3.8 -5.85 3.7 -5.7 3.1 -2.7 3.55 0.2
L 3.55 1.2
Q -1.15 0.2 -5.45 0.65 -2.45 -2.8 1 -4.75 2.4 -5.45 3.8 -6.05
M 4.35 4.8
Q 4.25 4.8 4.05 4.7 -0.05 3.8 -4.5 1.55 0.65 3.1 3.8 2.05 3.8 2.3 4.05 3.45
L 4.25 3.8 4.25 4.1
Q 4.25 4.45 4.4 4.8
L 4.35 4.8 Z"/>

<path fill="#505E61" stroke="none" d="
M 4.05 4.7
Q 4.25 4.8 4.35 4.8
L 4.4 4.8
Q 4.25 4.45 4.25 4.1
L 4.25 3.8 4.05 3.45
Q 3.8 2.3 3.8 2.05 0.65 3.1 -4.5 1.55 -0.05 3.8 4.05 4.7
M 3.7 -5.7
Q 3.8 -5.85 3.8 -6.05 2.4 -5.45 1 -4.75 -2.45 -2.8 -5.45 0.65 -1.15 0.2 3.55 1.2
L 3.55 0.2
Q 3.1 -2.7 3.7 -5.7 Z"/>
</g>

<g id="Duplicate_Items_Folder_eye_copy_8_0_Layer0_0_FILL">
<path fill="#000000" stroke="none" d="
M 6.2 -5.75
Q 4.6 -8.8 0.8 -9.3 -3 -9.8 -5 -8.75 -7 -7.7 -8.35 -5.05 -9.65 -2.45 -8.95 2.6 -8.1 7.55 -3.1 8.95 1.8 9.9 6.2 7.7 10.3 5.45 9.2 1.35 7.8 -2.7 6.2 -5.75
M 0.45 -7.45
Q 3.35 -6.85 4.45 -4.8 5.35 -3.15 6.35 -0.3 6.35 -0.05 6.4 0 6.4 0.2 6.5 0.35
L 6.6 0.4
Q 6.85 1.1 6.9 1.9 6.9302734375 2.365234375 6.85 2.8 6.6896484375 4.0978515625 6.05 4.7 5.9939453125 4.71875 5.95 4.7 5.3642578125 5.4642578125 4.45 6.15 3.35 6.85 1.95 6.85 0.4 6.8 -0.25 6.8 -0.85 6.65 -1.55 6.55
L -2.6 6.35
Q -3.25 6.2 -3.8 6.1 -6.15 5.45 -6.6 2.6 -7.4 0.55 -7.4 -0.75 -7.75 -2.1 -7.3 -3.4 -6.85 -4.8 -6.4 -5.6 -5.9 -6.35 -4.5 -7.2 -3.1 -8.05 -1.4 -7.75 0.25 -7.45 0.45 -7.45 Z"/>

<path fill="#990000" stroke="none" d="
M -1.55 6.55
Q -0.85 6.65 -0.25 6.8 0.4 6.8 1.95 6.85 3.35 6.85 4.45 6.15 5.3642578125 5.4642578125 5.95 4.7 2.9490234375 4.8296875 0.35 4.45 -2.197265625 4.1244140625 -6.6 2.35 -6.6 2.45 -6.6 2.6 -6.15 5.45 -3.8 6.1 -3.25 6.2 -2.6 6.35
L -1.55 6.55 Z"/>

<path fill="#FFFF75" stroke="none" d="
M 4.45 -4.8
Q 3.35 -6.85 0.45 -7.45 0.25 -7.45 -1.4 -7.75 -3.1 -8.05 -4.5 -7.2 -5.9 -6.35 -6.4 -5.6 -6.85 -4.8 -7.3 -3.4 -7.75 -2.1 -7.4 -0.75 -7.4 0.55 -6.6 2.6 -6.6 2.45 -6.6 2.35 -2.197265625 4.1244140625 0.35 4.45 2.9490234375 4.8296875 5.95 4.7 5.9939453125 4.71875 6.05 4.7 6.6896484375 4.0978515625 6.85 2.8 6.9302734375 2.365234375 6.9 1.9 6.85 1.1 6.6 0.4
L 6.5 0.35
Q 6.4 0.2 6.4 0 6.35 -0.05 6.35 -0.3 5.35 -3.15 4.45 -4.8 Z"/>
</g>

<g id="Duplicate_Items_Folder_pupil_copy_7_0_Layer0_0_FILL">
<path fill="#CC0000" stroke="none" d="
M 2.25 -1.3
L 1.4 -2.1 0 -0.65 -1.35 -2 -2.15 -1.15 -0.65 0.3 -1.6 1.3 -0.55 2.3 0.45 1.2 1.35 2.1 2.35 1.05 1.1 -0.15 2.25 -1.3 Z"/>
</g>

<path id="wing_0_Layer1_0_1_STROKES" stroke="#00496C" stroke-width="0.1" stroke-linejoin="round" stroke-linecap="round" fill="none" d="
M 3.9 6.35
L 3.925 6.3 4.9 3.95"/>
</defs>

<g transform="matrix( 7.316009521484375, 0, 0, 7.31671142578125, 276.6,437.8) ">
<g transform="matrix( 1, 0, 0, 1, 0,0) ">
<use xlink:href="#feet_0_Layer0_0_FILL"/>
</g>
</g>

<g transform="matrix( 9.266525268554688, 0, 0, 9.2677001953125, 189.5,441.75) ">
<g transform="matrix( 1, 0, 0, 1, 0,0) ">
<use xlink:href="#feet_bones_0_Layer0_0_FILL"/>
</g>
</g>

<g transform="matrix( 9.266525268554688, 0, 0, 9.2677001953125, 278.2,289.45) ">
<g transform="matrix( 1.07135009765625, 0, 0, 1, 1.2,0) ">
<use xlink:href="#Duplicate_Items_Folder_body_copy_4_0_Layer1_0_FILL"/>
</g>

<g transform="matrix( 1, 0, 0, 1, 0,0) ">
<use xlink:href="#Duplicate_Items_Folder_body_copy_4_0_Layer0_0_FILL"/>
</g>
</g>

<g transform="matrix( 9.266525268554688, 0, 0, 9.2677001953125, 224.8,285.55) ">
<g transform="matrix( 1, 0, 0, 1, 0,0) ">
<use xlink:href="#wing_0_Layer1_0_FILL"/>

<use xlink:href="#wing_0_Layer1_0_1_STROKES"/>
</g>

<g transform="matrix( 1, 0, 0, 1, 0,0) ">
<use xlink:href="#wing_0_Layer0_0_FILL"/>
</g>
</g>

<g transform="matrix( 9.266525268554688, 0, 0, 9.2677001953125, 94.5,305.95) ">
<g transform="matrix( 1, 0, 0, 1, 0,0) ">
<use xlink:href="#beak_0_Layer1_0_FILL"/>
</g>
</g>

<g transform="matrix( 9.266525268554688, 0, 0, 9.2677001953125, 169.1,219.6) ">
<g transform="matrix( 1, 0, 0, 1, 0,0) ">
<use xlink:href="#Duplicate_Items_Folder_eye_copy_8_0_Layer0_0_FILL"/>
</g>
</g>

<g transform="matrix( 9.266525268554688, 0, 0, 9.2677001953125, 132.2,199.2) ">
<g transform="matrix( 1, 0, 0, 1, 0,0) ">
<use xlink:href="#Duplicate_Items_Folder_pupil_copy_7_0_Layer0_0_FILL"/>
</g>
</g>
</svg>
