
<svg xmlns="http://www.w3.org/2000/svg" version="1.1" xmlns:xlink="http://www.w3.org/1999/xlink" preserveAspectRatio="none" x="0px" y="0px" width="560px" height="544px" viewBox="0 0 560 544">
<defs>
<radialGradient id="Gradient_1" gradientUnits="userSpaceOnUse" cx="0" cy="0" r="21.05" fx="0" fy="0" gradientTransform="matrix( 1, 0, 0, 1, -8.25,25.8) " spreadMethod="pad">
<stop  offset="28.235294117647058%" stop-color="#D6D2CB"/>

<stop  offset="100%" stop-color="#A29A91"/>
</radialGradient>

<radialGradient id="Gradient_2" gradientUnits="userSpaceOnUse" cx="0" cy="0" r="22.55" fx="0" fy="0" gradientTransform="matrix( 1, 0, 0, 1, -4.5,6.65) " spreadMethod="pad">
<stop  offset="0%" stop-color="#BCFEFD"/>

<stop  offset="40.78431372549019%" stop-color="#00CCFF"/>

<stop  offset="94.90196078431373%" stop-color="#2880A4"/>
</radialGradient>

<radialGradient id="Gradient_3" gradientUnits="userSpaceOnUse" cx="0" cy="0" r="5.050000000000001" fx="0" fy="0" gradientTransform="matrix( 0.9999999999999999, 0, 0, 0.9999999999999999, -2.45,21.5) " spreadMethod="pad">
<stop  offset="56.470588235294116%" stop-color="#F7F7EE"/>

<stop  offset="75.68627450980392%" stop-color="#CC0000"/>
</radialGradient>

<radialGradient id="Gradient_4" gradientUnits="userSpaceOnUse" cx="0" cy="0" r="3.75" fx="0" fy="0" gradientTransform="matrix( 1, 0, 0, 1, -7.85,22.7) " spreadMethod="pad">
<stop  offset="56.470588235294116%" stop-color="#F7F7EE"/>

<stop  offset="75.68627450980392%" stop-color="#CC0000"/>
</radialGradient>

<g id="foot_0_Layer0_0_FILL">
<path fill="#000000" stroke="none" d="
M 2.05 -11.5
Q 1.25 -11.7 0.6 -11.55 -0.8 -11.55 -1.7 -10.5 -3.3 -8.45 -3.65 -7.15 -3.9 -5.75 -4.3 -3.05
L -4.25 -1.6
Q -4.35 -1.25 -4.6 -0.45 -5.05 0.5 -5.75 1.95
L -6.05 2.5 -6.1 2.5 -7.1 4.2
Q -7.9 7 -5 9.1 -4.2 9.7 -3.05 10.25 -2.9 10.2 -2.75 10.3 2.25 12.55 4.15 10.85 6.05 9.05 6.4 8.45 6.55 8.15 6.6 7.45
L 6.65 7.5
Q 6.65 7.25 6.65 7 6.7 6.7 6.65 6.45 6.7 5.6 6.7 4.7 6.75 3.4 6.9 1.95 6.7 -0.2 6.3 -3.2 5.85 -6.15 5.45 -7.2 4.95 -8.25 4.65 -9.65 4.5 -10.35 3.8 -10.8 3.1 -11.25 2.05 -11.5
M 0.45 -10.7
Q 0.7 -10.65 1 -10.7 3.05 -10.8 3.65 -9 3.7 -8.85 3.75 -8.75 4.25 -7.2 4.25 -6.55 4.2 -5.9 4.6 -3.9 5 -2 5 0.4 5 0.45 5.2 1.5 5.45 2.8 5.55 4.25 5.55 4.9 5.5 5.45 5.5 5.8 5.45 6.15 5.45 6.35 5.4 6.6
L 5.35 6.55
Q 5.35 6.75 5.3 6.95 5.25 7.1 5.2 7.25 5.15 7.4 5.05 7.7 5.1 7.8 5 7.9 4.6 8.4 3.3 9.8 2 11.15 -2.2 9.25 -2.4 9.15 -2.55 9.15
L -2.6 9.1 -2.65 9.05
Q -3.65 8.5 -4.55 7.6 -4.65 7.5 -4.7 7.4 -5.75 6.35 -5.75 5.25 -5.75 4.9 -5.8 4.95
L -5.8 4.7
Q -5.9 4.4 -5.75 3.9 -5.8 3.85 -5.75 3.8
L -5.75 3.75 -5.15 2.85 -5.1 2.9 -5 2.7 -5.1 2.65
Q -5.0333984375 2.6669921875 -5 2.6
L -3.2 -1 -3 -2.65
Q -2.7 -4.6 -2.5 -6.2
L -1.4 -8.9 0.45 -10.7 Z"/>

<path fill="#ADA69E" stroke="none" d="
M -1.4 -8.9
L -2.5 -6.2
Q -2.7 -4.6 -3 -2.65
L -3.2 -1 -5 2.6
Q -5.0333984375 2.6669921875 -5.1 2.65
L -5 2.7 -5.1 2.9 -5.15 2.85 -5.75 3.75 -5.75 3.8
Q -5.8 3.85 -5.75 3.9 -5.9 4.4 -5.8 4.7
L -5.8 4.95
Q -5.75 4.9 -5.75 5.25 -5.75 6.35 -4.7 7.4 -4.65 7.5 -4.55 7.6 -3.65 8.5 -2.65 9.05
L -2.6 9.1
Q -3.3 7.05 -1.95 5.75 -1.7 5.05 -1.35 4.4 -1.35 4.3 -1.3 4.25
L -1.2 4.25
Q -0.9 3.25 -0.6 2.1 0.65 -3.2 0.45 -10.7
L -1.4 -8.9 Z"/>

<path fill="#CBC6BF" stroke="none" d="
M 1 -10.7
Q 0.7 -10.65 0.45 -10.7 0.65 -3.2 -0.6 2.1 -0.9 3.25 -1.2 4.25
L -1.3 4.25
Q -1.35 4.3 -1.35 4.4 -1.7 5.05 -1.95 5.75 -3.3 7.05 -2.6 9.1
L -2.55 9.15
Q -2.4 9.15 -2.2 9.25 2 11.15 3.3 9.8 4.6 8.4 5 7.9 5.1 7.8 5.05 7.7 5.15 7.4 5.2 7.25 5.25 7.1 5.3 6.95 5.35 6.75 5.35 6.55
L 5.4 6.6
Q 5.45 6.35 5.45 6.15 5.5 5.8 5.5 5.45 5.55 4.9 5.55 4.25 5.45 2.8 5.2 1.5 5 0.45 5 0.4 5 -2 4.6 -3.9 4.2 -5.9 4.25 -6.55 4.25 -7.2 3.75 -8.75 3.7 -8.85 3.65 -9 3.05 -10.8 1 -10.7 Z"/>
</g>

<g id="Duplicate_Items_Folder_arm__copy_0_Layer1_0_FILL">
<path fill="#000000" stroke="none" d="
M 3.15 -13.05
Q 2.5 -13.2 1.95 -13 0.75 -12.7 -0.1 -11.5 -1.55 -9.05 -1.9 -7.5 -2.35 -5.95 -2.85 -2.9
L -2.9 -1.35
Q -3 -0.9 -3.3 -0.1 -3.7 1 -4.45 2.7
L -5.7 5.55
Q -7.05 10.05 -2.8 12.25 -2.65 12.3 -2.55 12.4 1.4 14.35 3.2 12.1 5 9.75 5.35 9 5.5 8.35 5.7 6.7 5.7 6.4 5.75 6.05 5.95 3.95 6.25 1.1 6.25 -1.25 6.1 -4.45 6 -7.7 5.65 -8.85 5.35 -9.9 5.25 -11.4 5.05 -12.8 3.15 -13.05
M 4.8 -5.05
Q 5 -3.05 4.75 -0.35 5.05 3.35 4.8 5.1 4.8 5.55 4.7 5.95 4.5 7.1 4.45 7.7 4.4 7.9 4.25 8.2
L 4.2 8.2 4.2 8.3
Q 4 8.6 2.7 10.75 1.4 12.75 -2 11.05 -2.2 10.95 -2.3 10.85
L -2.35 10.85
Q -3.25 10.3 -3.85 9.5 -4.8 8.35 -4.8 6.95
L -4.8 6.4
Q -4.75 6.2 -4.8 6.2 -4.75 5.65 -4.6 5.05 -4.6 5 -4.6 4.95
L -4.55 4.9 -3.9 3.5 -3.95 3.4
Q -3.85 3.4 -3.8 3.4
L -2.05 -0.85 -1.7 -2.7
Q -1.35 -4.9 -1.15 -6.65
L 0.05 -9.8 1.75 -12
Q 1.9 -12.05 2.2 -12.05 3.85 -12.45 4.35 -10.6 4.75 -8.7 4.65 -7.95 4.55 -7.2 4.8 -5.05 Z"/>

<path fill="#ADA69E" stroke="none" d="
M 1.75 -12
L 0.05 -9.8 -1.15 -6.65
Q -1.35 -4.9 -1.7 -2.7
L -2.05 -0.85 -3.8 3.4
Q -3.85 3.4 -3.95 3.4
L -3.9 3.5 -4.55 4.9 -4.6 4.95
Q -4.6 5 -4.6 5.05 -4.75 5.65 -4.8 6.2 -4.75 6.2 -4.8 6.4
L -4.8 6.95
Q -4.8 8.35 -3.85 9.5 -3.25 10.3 -2.35 10.85
L -2.35 10.8 -1.35 6.15 -1.4 6.15
Q 2.5 -1.1 1.75 -12 Z"/>

<path fill="#BEB8B1" stroke="none" d="
M 4.75 -0.35
Q 5 -3.05 4.8 -5.05 4.55 -7.2 4.65 -7.95 4.75 -8.7 4.35 -10.6 3.85 -12.45 2.2 -12.05 1.9 -12.05 1.75 -12 2.5 -1.1 -1.4 6.15
L -1.35 6.15 -2.35 10.8 -2.35 10.85 -2.3 10.85
Q -2.2 10.95 -2 11.05 1.4 12.75 2.7 10.75 4 8.6 4.2 8.3
L 4.2 8.2 4.25 8.2
Q 4.4 7.9 4.45 7.7 4.5 7.1 4.7 5.95 4.8 5.55 4.8 5.1 5.05 3.35 4.75 -0.35 Z"/>
</g>

<g id="Duplicate_Items_Folder_head_copy_10_0_Layer3_0_FILL">
<path fill="#A69E95" stroke="none" d="
M 2.05 17.6
Q 3.65 15.6 8.35 13.95 5.8 13.25 1.7 13.1 -4.9 13.65 -10.25 16.85
L -11.8 17.45 -11.9 18.85
Q -1.55 15.5 2.05 17.6 Z"/>

<path fill="url(#Gradient_1)" stroke="none" d="
M 1.3 19.25
Q 1.3 19 1.4 18.8 1.55 18.15 2.05 17.6 -1.55 15.5 -11.9 18.85
L -13.7 32.65
Q -9.7 35.6 -4.55 34.75 -9.7 35.6 -13.7 32.65
L -13.55 37.25
Q -10.8 38.8 -7.95 38.55 -10.8 38.8 -13.55 37.25
L -13.05 38.8
Q -11.9451171875 44.7169921875 -7.2 46.05 -2.1 46.7 0.6 41.35 2.1 36.25 2.3 31
L -1.15 31 2.3 31
Q 2.35 29.2 2.3 27.35
L -0.35 27.35 2.3 27.35
Q 2.1 23.75 1.3 20.05
L 1 19.95 1.25 19.95
Q 1.2 19.65 1.25 19.4 1.25 19.3 1.3 19.25 Z"/>

<path fill="#D6D2CB" stroke="none" d="
M 1.35 19.25
L 1.4 18.8
Q 1.3 19 1.3 19.25
L 1.35 19.25 Z"/>

<path fill="#857C69" stroke="none" d="
M 1.35 19.25
L 1.3 19.95
Q 5.95 20.8 10.8 18.95 12.8 17.8 11.5 15.5 10.5 14.55 8.35 13.95 3.65 15.6 2.05 17.6 1.55 18.15 1.4 18.8
L 1.35 19.25
M 1.3 19.95
L 1.35 19.25 1.25 19.4
Q 1.2 19.65 1.25 19.95
L 1.3 19.95 Z"/>

<path fill="url(#Gradient_2)" stroke="none" d="
M -3.95 -8.15
Q -7.15 -7.7 -13.1 -1.15 -19.05 5.35 -22.6 8.95 -25.05 12.2 -23.95 14.95 -22.9 17.7 -20.85 18 -18.8 18.25 -14.05 17.7
L -11.8 17.45 -11.8 17.15 -11.8 17.45 -10.25 16.85
Q -4.9 13.65 1.7 13.1 5.8 13.25 8.35 13.95 10.5 14.55 11.5 15.5 12.8 17.8 10.8 18.95 5.95 20.8 1.3 19.95
L 1.3 20.05 1.55 20.1
Q 7.7 22.6 11.95 20.65 16.15 18.65 15.05 14.1 13.95 9.5 11.65 7.45 9.35 5.4 6.45 0.5 3.55 -4.45 1.45 -6.55 -0.7 -8.6 -3.95 -8.15 Z"/>
</g>

<g id="Duplicate_Items_Folder_head_copy_10_0_Layer2_0_FILL">
<path fill="#A69E95" stroke="none" d="
M -8.6 42.5
Q -8.8 42.75 -8.85 43.1 -8.85 43.45 -8.7 43.75 -8.55 44.05 -8.35 44.05 -8.1 44.1 -7.9 43.85 -7.7 43.6 -7.7 43.25 -7.65 42.9 -7.8 42.6 -7.95 42.35 -8.2 42.3 -8.4 42.3 -8.6 42.5
M -10.25 41.35
Q -10.5 41.55 -10.55 41.85 -10.55 42.15 -10.35 42.4 -10.15 42.65 -9.85 42.7 -9.55 42.75 -9.3 42.55 -9.05 42.35 -9 42.05 -9 41.75 -9.2 41.5 -9.4 41.25 -9.7 41.2 -10 41.15 -10.25 41.35
M -9.4 29.5
Q -9.4 29.45 -9.4 29.4 -9.3 28.75 -9.65 28.25 -9.95 27.75 -10.45 27.7 -10.95 27.65 -11.35 28.05 -11.7 28.5 -11.8 29.15 -11.85 29.85 -11.55 30.35 -11.25 30.9 -10.75 30.95 -10.4 31 -10.1 30.8 -10.15 31.35 -9.9 31.75 -9.65 32.2 -9.3 32.25 -8.95 32.3 -8.65 31.9 -8.35 31.55 -8.25 30.95 -8.2 30.35 -8.45 29.9 -8.7 29.45 -9.05 29.4 -9.25 29.35 -9.4 29.5
M -8.8 26.85
Q -8.95 26.85 -9.1 27 -9.2 27.15 -9.25 27.4 -9.25 27.65 -9.15 27.85 -9.05 28.05 -8.9 28.05 -8.75 28.05 -8.6 27.9 -8.45 27.75 -8.45 27.5 -8.4 27.25 -8.55 27.05 -8.65 26.85 -8.8 26.85
M -3.95 15.85
Q -4.35 16.35 -4.45 17.05 -4.5 17.75 -4.2 18.25 -3.85 18.75 -3.35 18.8 -2.85 18.85 -2.45 18.4 -2.15 18.1 -2 17.7 -1.75 17.8 -1.4 17.85 -0.8 17.9 -0.4 17.65 0 17.4 0.05 17 0.05 16.55 -0.3 16.2 -0.6 15.85 -1.2 15.8 -1.8 15.75 -2.2 16 -2.55 15.5 -3 15.45 -3.5 15.4 -3.95 15.85
M 0.2 37.1
Q 0.25 36.75 0.05 36.5 -0.1 36.25 -0.35 36.2 -0.6 36.2 -0.85 36.4 -1.05 36.65 -1.1 37 -1.15 37.35 -1 37.6 -0.8 37.9 -0.55 37.9 -0.3 37.95 -0.1 37.7 0.15 37.45 0.2 37.1 Z"/>

<path fill="#000000" stroke="none" d="
M -10.3 11.85
Q -10.85 11.8 -11.3 12.15 -11.75 12.5 -11.8 13.1 -11.85 13.75 -11.5 14.2 -11.15 14.65 -10.6 14.7 -10 14.75 -9.55 14.4 -9.1 14.05 -9.05 13.4 -9 12.8 -9.35 12.35 -9.7 11.9 -10.3 11.85
M -12.45 5.4
Q -13.35 4.15 -14.35 4.15 -15.35 4.15 -16.5 5.2 -17.7 6.25 -18.3 7.75 -18.95 9.2 -18.05 10.45 -17.1 11.7 -15.65 11.85 -14.15 12 -13 10.95 -11.8 9.95 -11.65 8.3 -11.5 6.7 -12.45 5.4
M -5.25 5.55
Q -5.9 5.5 -6.5 6.1 -7.05 6.7 -7.15 7.65 -7.25 8.6 -6.8 9.3 -6.35 10.05 -5.65 10.15 -5 10.2 -4.25 10 -3.5 9.75 -3.55 8.4 -3.6 7.05 -4.1 6.35 -4.55 5.65 -5.25 5.55
M -6.35 -1.7
Q -7.45 -1.8 -7.85 -1.4 -8.25 -1.05 -8.65 0.1 -9.05 1.2 -8.45 2.05 -7.9 2.85 -6.8 2.95 -5.7 3.1 -4.85 2.5 -4 1.9 -3.9 0.95 -3.8 -0.05 -4.55 -0.8 -5.25 -1.55 -6.35 -1.7
M 4.95 9.6
Q 4.65 9.9 4.6 10.35 4.55 10.85 4.8 11.2 5.05 11.55 5.4 11.6 5.8 11.65 6.1 11.35 6.4 11.05 6.45 10.6 6.5 10.1 6.25 9.75 6 9.4 5.6 9.35 5.25 9.3 4.95 9.6
M 4.5 2.1
Q 3.65 0.75 2.25 0.6 0.9 0.5 -0.2 1.65 -1.3 2.8 -1.5 4.55 -1.65 6.35 -0.8 7.65 0.05 9 1.4 9.1 2.8 9.25 3.9 8.1 5 7 5.15 5.2 5.35 3.45 4.5 2.1
M 12.25 11.75
Q 13.2 11.85 14.1 11.6 13.7 9.65 8.35 4.25 7.75 4.55 7.6 5.9 7.4 8.1 8.75 9.8 10.15 11.55 12.25 11.75
M 2.05 -0.85
Q 3.55 -0.65 4.75 -1.55 3.25 -4.55 -0.65 -7.7 -1.4 -6.2 -1.45 -5.55 -1.65 -3.7 -0.6 -2.35 0.45 -1 2.05 -0.85 Z"/>

<path fill="#D0FBE6" stroke="none" d="
M -8.1 -3.15
Q -7.742578125 -4.1669921875 -6.45 -4.95 -5.1025390625 -5.6943359375 -5.45 -6.05 -5.7 -6.4 -6.6 -5.95 -7.5 -5.55 -8.5 -4.65 -9.45 -3.65 -10 -2.8 -10.5 -1.9 -10.2 -1.6 -9.94765625 -1.3056640625 -9.2 -1.75 -8.4076171875 -2.1330078125 -8.1 -3.15 Z"/>

<path fill="#4B463D" stroke="none" d="
M 7.6 18.2
Q 7.65 17.7 6.9 17.25 6.15 16.8 5.1 16.7 4.05 16.55 3.65 16.75 3.249609375 16.95 2.65 17.55 2.05078125 18.15 2.15 18.3 2.2990234375 18.45 4 18.75 5.7501953125 19.1 6.65 18.9 7.55 18.7 7.6 18.2
M 5.65 15.55
Q 4.85 15.75 5.65 16.25 6.4 16.75 7.75 16.9 9.1 17.1 10.15 16.75 11.15 16.4 11.3 16 11.4 15.6 10.5 15.15 9.6 14.65 8.7 14.4 7.75 14.15 7.1 14.75 6.4 15.35 5.65 15.55 Z"/>
</g>

<g id="Duplicate_Items_Folder_head_copy_10_0_Layer1_0_FILL">
<path fill="#736A62" stroke="none" d="
M 0.85 24.45
Q 1.05 23 0.25 21.95 -0.5 20.9 -1.7 20.7 -2.9 20.6 -3.8 21.5 -4.5 22.2 -4.75 23.2 -4.85 22.05 -5.45 21.15 -6.2 19.85 -7.7 19.6 -9.15 19.5 -10.15 20.65 -11.15 21.8 -11.4 23.6 -11.65 25.35 -10.75 26.65 -9.85 28 -8.45 28.1 -7.05 28.35 -5.95 27.15 -5.25 26.3 -4.9 25.05
L -4.85 25.05
Q -4.65 25.7 -4.25 26.35 -3.45 27.5 -2.4 27.7 -1.2 27.75 -0.25 26.8 0.75 25.9 0.85 24.45 Z"/>
</g>

<g id="Duplicate_Items_Folder_head_copy_10_0_Layer0_0_FILL">
<path fill="url(#Gradient_3)" stroke="none" d="
M -0.6 21.75
Q -1.15 21 -1.95 20.9 -2.75 20.8 -3.45 21.4 -4.1 22.05 -4.2 23.05 -4.25 23.45 -4.15 23.8 -4.1 24.35 -3.75 24.85 -3.2 25.65 -2.45 25.75 -1.6 25.85 -0.95 25.15 -0.25 24.5 -0.15 23.5 -0.05 22.5 -0.6 21.75 Z"/>

<path fill="url(#Gradient_4)" stroke="none" d="
M -7.6 19.9
Q -8.65 19.8 -9.4 20.65 -10.15 21.5 -10.3 22.8 -10.45 24.15 -9.85 25.15 -9.2 26.15 -8.15 26.25 -7.15 26.35 -6.4 25.5 -5.7 24.7 -5.55 23.5 -5.55 23.4 -5.55 23.3 -5.4 22 -6 21 -6.6 20 -7.6 19.9 Z"/>
</g>

<path id="Duplicate_Items_Folder_arm__copy_0_Layer0_0_1_STROKES" stroke="#000000" stroke-width="0.5" stroke-linejoin="round" stroke-linecap="round" fill="none" d="
M 2.75 5.1
L 5.15 5.75
M 0.95 7.65
L 5 7.65"/>

<path id="Duplicate_Items_Folder_head_copy_10_0_Layer3_0_1_STROKES" stroke="#000000" stroke-width="1" stroke-linejoin="round" stroke-linecap="butt" fill="none" d="
M -11.8 17.45
L -14.05 17.7
Q -18.8 18.25 -20.85 18 -22.9 17.7 -23.95 14.95 -25.05 12.2 -22.6 8.95 -19.05 5.35 -13.1 -1.15 -7.15 -7.7 -3.95 -8.15 -0.7 -8.6 1.45 -6.55 3.55 -4.45 6.45 0.5 9.35 5.4 11.65 7.45 13.95 9.5 15.05 14.1 16.15 18.65 11.95 20.65 7.7 22.6 1.55 20.1
L 1.3 20.05
Q 2.1 23.75 2.3 27.35 2.35 29.2 2.3 31 2.1 36.25 0.6 41.35 -2.1 46.7 -7.2 46.05 -11.9451171875 44.7169921875 -13.05 38.8
L -13.55 37.25 -13.7 32.65 -11.9 18.85 -11.8 17.45 -11.8 17.15
M 1.3 19.95
L 1.35 19.25
M 1.25 19.4
Q 1.2 19.65 1.25 19.95
L 1.3 19.95
Q 5.95 20.8 10.8 18.95 12.8 17.8 11.5 15.5 10.5 14.55 8.35 13.95 3.65 15.6 2.05 17.6 1.55 18.15 1.4 18.8
L 1.35 19.25
M 1.25 19.4
Q 1.25 19.3 1.3 19.25 1.3 19 1.4 18.8
M 1.3 20.05
L 1.3 19.95
M 1.25 19.95
L 1 19.95
M -11.8 17.45
L -10.25 16.85
Q -4.9 13.65 1.7 13.1 5.8 13.25 8.35 13.95"/>

<path id="Duplicate_Items_Folder_head_copy_10_0_Layer3_0_2_STROKES" stroke="#000000" stroke-width="1" stroke-linejoin="round" stroke-linecap="round" fill="none" d="
M -13.55 37.25
Q -10.8 38.8 -7.95 38.55
M -13.7 32.65
Q -9.7 35.6 -4.55 34.75
M -1.15 31
L 2.3 31
M -0.35 27.35
L 2.3 27.35"/>

<path id="Duplicate_Items_Folder_head_copy_10_0_Layer2_0_1_STROKES" stroke="#000000" stroke-width="1" stroke-linejoin="round" stroke-linecap="round" fill="none" d="
M 4.75 -1.55
Q 3.55 -0.65 2.05 -0.85 0.45 -1 -0.6 -2.35 -1.65 -3.7 -1.45 -5.55 -1.4 -6.2 -0.65 -7.7
M 14.1 11.6
Q 13.2 11.85 12.25 11.75 10.15 11.55 8.75 9.8 7.4 8.1 7.6 5.9 7.75 4.55 8.35 4.25
M 4.5 2.1
Q 5.35 3.45 5.15 5.2 5 7 3.9 8.1 2.8 9.25 1.4 9.1 0.05 9 -0.8 7.65 -1.65 6.35 -1.5 4.55 -1.3 2.8 -0.2 1.65 0.9 0.5 2.25 0.6 3.65 0.75 4.5 2.1 Z
M 4.95 9.6
Q 5.25 9.3 5.6 9.35 6 9.4 6.25 9.75 6.5 10.1 6.45 10.6 6.4 11.05 6.1 11.35 5.8 11.65 5.4 11.6 5.05 11.55 4.8 11.2 4.55 10.85 4.6 10.35 4.65 9.9 4.95 9.6 Z
M -6.35 -1.7
Q -5.25 -1.55 -4.55 -0.8 -3.8 -0.05 -3.9 0.95 -4 1.9 -4.85 2.5 -5.7 3.1 -6.8 2.95 -7.9 2.85 -8.45 2.05 -9.05 1.2 -8.65 0.1 -8.25 -1.05 -7.85 -1.4 -7.45 -1.8 -6.35 -1.7 Z
M -5.25 5.55
Q -4.55 5.65 -4.1 6.35 -3.6 7.05 -3.55 8.4 -3.5 9.75 -4.25 10 -5 10.2 -5.65 10.15 -6.35 10.05 -6.8 9.3 -7.25 8.6 -7.15 7.65 -7.05 6.7 -6.5 6.1 -5.9 5.5 -5.25 5.55 Z
M -12.45 5.4
Q -11.5 6.7 -11.65 8.3 -11.8 9.95 -13 10.95 -14.15 12 -15.65 11.85 -17.1 11.7 -18.05 10.45 -18.95 9.2 -18.3 7.75 -17.7 6.25 -16.5 5.2 -15.35 4.15 -14.35 4.15 -13.35 4.15 -12.45 5.4 Z
M -10.3 11.85
Q -9.7 11.9 -9.35 12.35 -9 12.8 -9.05 13.4 -9.1 14.05 -9.55 14.4 -10 14.75 -10.6 14.7 -11.15 14.65 -11.5 14.2 -11.85 13.75 -11.8 13.1 -11.75 12.5 -11.3 12.15 -10.85 11.8 -10.3 11.85 Z"/>

<path id="Duplicate_Items_Folder_head_copy_10_0_Layer0_0_1_STROKES" stroke="#000000" stroke-width="0.5" stroke-linejoin="round" stroke-linecap="round" fill="none" d="
M -5.55 23.5
Q -5.7 24.7 -6.4 25.5 -7.15 26.35 -8.15 26.25 -9.2 26.15 -9.85 25.15 -10.45 24.15 -10.3 22.8 -10.15 21.5 -9.4 20.65 -8.65 19.8 -7.6 19.9 -6.6 20 -6 21 -5.4 22 -5.55 23.3 -5.55 23.4 -5.55 23.5 -5.5 26.5 -8.75 27.45
M -4.15 23.8
Q -4.25 23.45 -4.2 23.05 -4.1 22.05 -3.45 21.4 -2.75 20.8 -1.95 20.9 -1.15 21 -0.6 21.75 -0.05 22.5 -0.15 23.5 -0.25 24.5 -0.95 25.15 -1.6 25.85 -2.45 25.75 -3.2 25.65 -3.75 24.85 -4.1 24.35 -4.15 23.8 -4.25 24.6 -3.85 25.2 -3.65 25.55 -3.25 25.85 -3.2 25.9 -3.15 25.95 -2.8 26.15 -2.35 26.3 -1.9 26.5 -1.35 26.6"/>
</defs>

<g transform="matrix( -6.02301025390625, -1.8772125244140625, -1.77532958984375, 5.69635009765625, 249.85,475.35) ">
<g transform="matrix( 1, 0, 0, 1, 0,0) ">
<use xlink:href="#foot_0_Layer0_0_FILL"/>
</g>
</g>

<g transform="matrix( -5.9105072021484375, -1.774658203125, -1.88848876953125, 6.29010009765625, 219.55,369.9) ">
<g transform="matrix( 1, 0, 0, 1, 0,0) ">
<use xlink:href="#Duplicate_Items_Folder_arm__copy_0_Layer1_0_FILL"/>
</g>

<g transform="matrix( 1, 0, 0, 1, 0,0) ">
<use xlink:href="#Duplicate_Items_Folder_arm__copy_0_Layer0_0_1_STROKES"/>
</g>
</g>

<g transform="matrix( 6.28607177734375, -1.7248992919921875, 1.72369384765625, 6.28125, 324.95,471.4) ">
<g transform="matrix( 1, 0, 0, 1, 0,0) ">
<use xlink:href="#foot_0_Layer0_0_FILL"/>
</g>
</g>

<g transform="matrix( 6.613006591796875, -1.9855804443359375, 2.1126708984375, 7.03753662109375, 341.65,357.55) ">
<g transform="matrix( 1, 0, 0, 1, 0,0) ">
<use xlink:href="#Duplicate_Items_Folder_arm__copy_0_Layer1_0_FILL"/>
</g>

<g transform="matrix( 1, 0, 0, 1, 0,0) ">
<use xlink:href="#Duplicate_Items_Folder_arm__copy_0_Layer0_0_1_STROKES"/>
</g>
</g>

<g transform="matrix( 8.781219482421875, -0.8865814208984375, 0.8688812255859375, 8.60516357421875, 305.2,82.55) ">
<g transform="matrix( 1, 0, 0, 1, 0,0) ">
<use xlink:href="#Duplicate_Items_Folder_head_copy_10_0_Layer3_0_FILL"/>

<use xlink:href="#Duplicate_Items_Folder_head_copy_10_0_Layer3_0_1_STROKES"/>

<use xlink:href="#Duplicate_Items_Folder_head_copy_10_0_Layer3_0_2_STROKES"/>
</g>

<g transform="matrix( 1, 0, 0, 1, 0,0) ">
<use xlink:href="#Duplicate_Items_Folder_head_copy_10_0_Layer2_0_FILL"/>

<use xlink:href="#Duplicate_Items_Folder_head_copy_10_0_Layer2_0_1_STROKES"/>
</g>

<g transform="matrix( 1, 0, 0, 1, 0,0) ">
<use xlink:href="#Duplicate_Items_Folder_head_copy_10_0_Layer1_0_FILL"/>
</g>

<g transform="matrix( 1, 0, 0, 1, 0,0) ">
<use xlink:href="#Duplicate_Items_Folder_head_copy_10_0_Layer0_0_FILL"/>

<use xlink:href="#Duplicate_Items_Folder_head_copy_10_0_Layer0_0_1_STROKES"/>
</g>
</g>
</svg>
