
<svg xmlns="http://www.w3.org/2000/svg" version="1.1" xmlns:xlink="http://www.w3.org/1999/xlink" preserveAspectRatio="none" x="0px" y="0px" width="560px" height="544px" viewBox="0 0 560 544">
<defs>
<filter id="Filter_1" x="-20%" y="-20%" width="140%" height="140%" color-interpolation-filters="sRGB">
<feColorMatrix in="SourceGraphic" type="matrix" values="1 0 0 0 0 0 1 0 0 0 0 0 1 0 0 0 0 0 0.52 0" result="result1"/>
</filter>

<g id="donut_bones_0_Layer7_0_FILL">
<path fill="#666666" stroke="none" d="
M 26.55 -14.8
Q 26.696484375 -15.224609375 26.95 -15.45 26.5 -16.5 25.85 -17.55 24.9 -19 23.45 -20.35 18.85 -24.55 15.35 -25.1 1.7 -28.85 -12.55 -25.65 -19.05 -24.55 -23.65 -20.35 -25 -19.05 -25.95 -17.65 -26.85 -16.3 -27.4 -14.75 -26.983984375 -14.485546875 -26.5 -14.25 -26.408203125 -14.4904296875 -26.3 -14.75 -25.95 -14.5 -25.55 -14.25 -24.5443359375 -13.5017578125 -23.45 -12.9 -18.9849609375 -11.1896484375 -11.55 -9.8 -1.8591796875 -7.9404296875 11.3 -9.75 20.345703125 -11.6689453125 24.8 -13.95 26.3583984375 -14.11796875 26.5 -14.65 26.5234375 -14.733984375 26.55 -14.8
M 9.9 -16.1
L 9.85 -16.1
Q 9.8 -16.05 9.75 -15.95 9.6 -15.85 9.45 -15.7 8.75 -15.15 7.4 -14.7 4.7 -13.8 0.85 -13.8 -3 -13.8 -5.75 -14.7 -8.45 -15.65 -8.45 -16.9 -8.45 -16.95 -8.45 -17 -8.4 -18.25 -5.75 -19.1 -3 -20.05 0.85 -20.05 4.7 -20.05 7.4 -19.1 9.9 -18.25 10.15 -17.15 10.9 -16.75 9.9 -16.1 Z"/>

<path fill="#DFCD86" stroke="none" d="
M 2.2 -17.85
Q 1.25 -17.85 0.3 -16.9 -0.7 -15.95 -1.15 -15.75 -1.9 -15.45 -3.15 -16.3 -4.95 -17.5 -5.3 -17.6 -5.65 -17.75 -6 -17.75
L -8.45 -17
Q -8.45 -16.95 -8.45 -16.9 -8.45 -15.65 -5.75 -14.7 -3 -13.8 0.85 -13.8 4.7 -13.8 7.4 -14.7 8.75 -15.15 9.45 -15.7 9.6 -15.85 9.75 -15.95 9.8 -16.05 9.85 -16.1
L 9.9 -16.1
Q 10.9 -16.75 10.15 -17.15 10 -17.15 9.8 -17.15 7.85 -17.2 6.75 -16.85 5.65 -16.5 5.15 -16.5 4.65 -16.5 3.9 -17.15 3.1 -17.85 2.2 -17.85
M 5.1 -5.45
Q 5.0125 -5.347265625 4.9 -5.2 0.75 0.1 -0.6 -0.8 -1.65 -1.45 -2.55 -2.4 -2.837109375 -2.7013671875 -3.05 -3 -3.948046875 -3.8904296875 -5.05 -5.2 -5.245703125 -4.9703125 -5.5 -4.55 -5.95 -3.9 -6.65 -2.55 -7.45 -1.55 -8.5 -1.85 -9.4 -2.15 -10 -3.4 -10.75 -4.75 -11.45 -5.2 -12.9 -6 -13.75 -6.2 -14.11015625 -6.2490234375 -14.4 -6.2 -15.013671875 -6.0716796875 -15.35 -5.5 -15.6 -5.15 -15.75 -3.5 -15.85 -2.25 -16.7 -1.85 -17.50078125 -1.428515625 -18.45 -2.7 -18.61953125 -2.9517578125 -18.8 -3.25 -19.4525390625 -4.2939453125 -20.15 -5.65 -20.84296875 -7.018359375 -23.2 -8.1 -25.5138671875 -9.1236328125 -25.85 -8.25 -26.128125 -7.380859375 -26.4 -7.85 -26.7515625 -7.9634765625 -27.05 -8.15 -27.65 -8.55 -28.2 -10.1
L -28.2 -10.05
Q -28.2 -4.1 -23.65 0.15 -19.05 4.4 -12.25 5.15 -0.3 6.05 12.55 5.15 18.85 4.4 23.45 0.15 28.05 -4.1 28.05 -10.05
L 28.05 -10.1
Q 28.05 -10.2 28.05 -10.3 28 -13.05 26.95 -15.45 26.696484375 -15.224609375 26.55 -14.8 27.3 -12.71953125 27.3 -10.3 26.75703125 -8.7904296875 26.15 -9.85 25.5953125 -10.9064453125 23.95 -9.2 22.3 -7.5 21.4 -7.45 20.5044921875 -7.33671875 19.75 -5.35 19.005078125 -3.3701171875 18.7 -2.8 18.4357421875 -2.234375 18.35 -1.7 18.2625 -1.110546875 17.25 -0.2 16.2962890625 0.7037109375 15.55 -0.4 14.75 -1.55 14.55 -3.8 14.4 -6.1 13.65 -6.35 13.50390625 -6.396484375 13.35 -6.45 12.6611328125 -6.1625 11.7 -5.65 10.95 -5.2 10.2 -3.8 9.55 -2.55 8.65 -2.25 7.55 -1.9 6.75 -2.9 6 -4.25 5.55 -4.9 5.325390625 -5.246484375 5.1 -5.45 Z"/>

<path fill="#373737" stroke="none" d="
M 0.3 -16.9
Q 1.25 -17.85 2.2 -17.85 3.1 -17.85 3.9 -17.15 4.65 -16.5 5.15 -16.5 5.65 -16.5 6.75 -16.85 7.85 -17.2 9.8 -17.15 10 -17.15 10.15 -17.15 9.9 -18.25 7.4 -19.1 4.7 -20.05 0.85 -20.05 -3 -20.05 -5.75 -19.1 -8.4 -18.25 -8.45 -17
L -6 -17.75
Q -5.65 -17.75 -5.3 -17.6 -4.95 -17.5 -3.15 -16.3 -1.9 -15.45 -1.15 -15.75 -0.7 -15.95 0.3 -16.9
M 4.9 -5.2
Q 5.0125 -5.347265625 5.1 -5.45 5.65390625 -5.9546875 6.15 -5.5 6.75 -5.05 6.9 -4.05 7.05 -3.2 8.55 -3.65 10 -4 10 -4.9 10 -5.8 11.3 -6.25 12.383984375 -6.640234375 13.35 -6.45 13.50390625 -6.396484375 13.65 -6.35 14.4 -6.1 14.55 -3.8 14.75 -1.55 15.55 -0.4 16.2962890625 0.7037109375 17.25 -0.2 18.2625 -1.110546875 18.35 -1.7 18.4357421875 -2.234375 18.7 -2.8 19.005078125 -3.3701171875 19.75 -5.35 20.5044921875 -7.33671875 21.4 -7.45 22.3 -7.5 23.95 -9.2 25.5953125 -10.9064453125 26.15 -9.85 26.75703125 -8.7904296875 27.3 -10.3 27.3 -12.71953125 26.55 -14.8 26.5234375 -14.733984375 26.5 -14.65 26.3583984375 -14.11796875 24.8 -13.95 20.345703125 -11.6689453125 11.3 -9.75 -1.8591796875 -7.9404296875 -11.55 -9.8 -18.9849609375 -11.1896484375 -23.45 -12.9 -24.5443359375 -13.5017578125 -25.55 -14.25 -25.95 -14.5 -26.3 -14.75 -26.408203125 -14.4904296875 -26.5 -14.25 -26.983984375 -14.485546875 -27.4 -14.75 -28.2 -12.6 -28.2 -10.1 -27.65 -8.55 -27.05 -8.15 -26.7515625 -7.9634765625 -26.4 -7.85 -26.128125 -7.380859375 -25.85 -8.25 -25.5138671875 -9.1236328125 -23.2 -8.1 -20.84296875 -7.018359375 -20.15 -5.65 -19.4525390625 -4.2939453125 -18.8 -3.25 -18.61953125 -2.9517578125 -18.45 -2.7 -17.50078125 -1.428515625 -16.7 -1.85 -15.85 -2.25 -15.75 -3.5 -15.6 -5.15 -15.35 -5.5 -15.013671875 -6.0716796875 -14.4 -6.2 -14.11015625 -6.2490234375 -13.75 -6.2 -12.9 -6 -11.45 -5.2 -10.75 -4.75 -10 -3.4 -9.4 -2.15 -8.5 -1.85 -7.45 -1.55 -6.65 -2.55 -5.95 -3.9 -5.5 -4.55 -5.245703125 -4.9703125 -5.05 -5.2 -4.2283203125 -5.9744140625 -3.8 -4.3 -3.6216796875 -3.6939453125 -3.05 -3 -2.837109375 -2.7013671875 -2.55 -2.4 -1.65 -1.45 -0.6 -0.8 0.75 0.1 4.9 -5.2 Z"/>
</g>

<g id="donut_bones_0_Layer6_0_FILL">
<path fill="#C0B072" stroke="none" d="
M 4.2 -4.7
Q 2.74609375 -3.0466796875 1.5 -2.6 0.30390625 -2.1572265625 -0.9 -2.8 -2.0521484375 -3.3943359375 -3.05 -5.05 -4.05078125 -6.7001953125 -5.2 -4.85 -5.7 -4.15 -6.4 -2.8 -7.15 -1.85 -8.2 -2.1 -9.05 -2.35 -9.75 -3.65 -10.4 -5.05 -11.1 -5.45 -12.6 -6.25 -13.4 -6.45 -13.8625 -6.5130859375 -14.2 -6.4 -14.525390625 -6.6568359375 -16.35 -5.45 -18.17109375 -4.2017578125 -19.8 -6.2 -20.2494140625 -6.8509765625 -21.05 -7.65 -21.801953125 -8.397265625 -23.25 -9.8 -24.6474609375 -11.1537109375 -26.15 -9.2 -26.4080078125 -9.3720703125 -27.1 -8.7 -27.430859375 -6.49296875 -25.95 -4.5 -24.42578125 -8.6373046875 -22.95 -6.95 -21.4203125 -5.2076171875 -19.85 -2.95 -18.2884765625 -0.651171875 -17.05 -1.45 -15.8060546875 -2.2017578125 -15.4 -3.2 -14.99765625 -4.19375 -14.8 -4.25 -14.5931640625 -4.3044921875 -14.3 -4.25 -13.5 -4.15 -11.9 -3.3 -11.1 -2.9 -10.45 -1.5 -9.8 -0.25 -8.85 0 -7.7 0.35 -7 -0.65 -6.2 -2.05 -5.8 -2.7 -4.55 -4.5 -4 -2.45 -3.7490234375 -1.596484375 -2.65 -1.05 -1.5033203125 -0.460546875 0 -0.5 1.553125 -0.539453125 3.6 -2.35 5.648828125 -4.153515625 6.35 -3.65 6.9 -3.2 7.05 -2.2 7.25 -1.35 8.7 -1.8 10.25 -2.15 10.25 -3.05 10.25 -3.9 11.6 -4.4 12.9 -4.8 13.75 -4.1 14.902734375 -0.9458984375 15.3 -0.15 15.21796875 0.121875 15.9 0.95 16.9 2.15 17.95 0.8 18.8974609375 -0.49765625 19.45 -1.4 20.0578125 -2.25625 20.2 -3.9 20.33984375 -5.547265625 21.7 -6.15 23.0578125 -6.7439453125 24.5 -8.7 25.99140625 -10.613671875 26.65 -6.3 27.25 -8.3 27.25 -10.5
L 27.25 -10.55
Q 26.5841796875 -10.7896484375 25.6 -11.1 24.6123046875 -11.407421875 23.45 -9.6 22.29453125 -7.7490234375 21.15 -7.5 20.0525390625 -7.2400390625 19.5 -5.95 19.0072265625 -4.6169921875 19 -3.6 18.9884765625 -2.537109375 18.05 -1.3 17.1591796875 -0.0560546875 16.3 -0.8 15.497265625 -1.4990234375 15.35 -2.35 15 -3.95 14.95 -5.05 14.9 -6.3 13.7 -6.6 12.6 -6.95 11.4 -6.55 10.1 -6.05 10.1 -5.15 10.1 -4.25 8.7 -3.85 7.4 -3.45 7.2 -4.4 7.05 -5.35 6.4 -5.8 5.6998046875 -6.3029296875 4.2 -4.7 Z"/>
</g>

<g id="donut_bones_0_Layer5_0_FILL">
<path fill="#000000" stroke="none" d="
M -29.4 -39.85
Q -29.4 -38.75 -29 -37.95 -29.65 -38 -30.35 -38 -32.2 -38.05 -33.5 -37.1 -34.75 -36 -34.75 -34.7 -34.85 -33.25 -33.55 -32.25 -32.25 -31.25 -30.45 -31.15 -28.95 -31.15 -27.85 -31.75
L -20.05 -21.65 -17.5 -24.5 -12.6 -24.55 -21.05 -36.15
Q -19.65 -37.55 -19.55 -39.65 -19.55 -41.95 -20.8 -42.9 -22.05 -43.85 -24.05 -44.05 -26.1 -44.3 -27.75 -43.55 -29.4 -42.1 -29.4 -39.85
M -18.5 -30.9
L -15.1 -26.05 -20.3 -23.55 -23.7 -28.3 -27.15 -32.65
Q -27.9 -32.25 -29.05 -32.25 -30.35 -32.25 -31.3 -33.1 -32.25 -33.8 -32.2 -34.8 -32.2 -35.9 -31.2 -36.5 -30.25 -37.25 -29 -37.25 -28.5 -37.25 -27.85 -37.1 -28.15 -37.75 -28.15 -38.5 -28.1 -40.15 -27.15 -41.2 -26.95 -41.4 -26.9 -41.45 -25.85 -42.35 -24.55 -42.3 -23.05 -42.3 -22.15 -41.2 -20.95 -40.15 -21.05 -38.5 -21.05 -37 -22 -35.9
L -18.35 -31
Q -18.5 -31 -18.55 -31.05
L -18.5 -30.9
M 35.35 -37.65
Q 34.7 -39.6044921875 32.6 -40.9 30.55 -42.1369140625 28.8 -41.2 27.05 -40.217578125 26.35 -39.4 26.2 -40.05 25.95 -40.8 25.35 -42.5 23.85 -43.5 22.25 -44.3 20.85 -43.8 19.25 -43.3 18.8 -41.65 18.25 -40 18.85 -38.25 19.45 -36.75 20.4 -35.9
L 12.9 -24.35 18 -25.05 20.15 -19.75 27.4 -30.95
Q 29.45 -30.15 31.6 -30.95 34 -31.8 34.95 -33.8 36.1 -35.65 35.35 -37.65
M 30.4 -38.85
Q 30.65 -38.85 30.75 -38.75 32.1 -38.05 32.55 -36.75 33.05 -35.3 32.25 -33.95 31.7 -32.45 29.85 -31.8 28.3 -31.25 26.8 -31.8
L 23.05 -26.3
Q 23.0015625 -26.396875 23.1 -26.5
L 23 -26.4 20.3 -22.45 19.25 -26.25 16.15 -27.2 16.1 -27.25 18.25 -30.45 21.65 -35.6
Q 20.9 -36.2 20.5 -37.35 20 -38.55 20.45 -39.75 20.9 -40.95 21.95 -41.3 23.05 -41.75 24.1 -41.05 25.15 -40.45 25.65 -39.25 25.85 -38.7 25.9 -38 26.4 -38.5 27.2 -38.85 29 -39.5 30.4 -38.85 Z"/>

<path fill="#FFFFCC" stroke="none" d="
M -26.9 -41.45
Q -26.95 -41.4 -27.15 -41.2 -28.1 -40.15 -28.15 -38.5 -28.15 -37.75 -27.85 -37.1 -28.5 -37.25 -29 -37.25 -30.25 -37.25 -31.2 -36.5 -32.2 -35.9 -32.2 -34.8 -32.25 -33.8 -31.3 -33.1 -30.35 -32.25 -29.05 -32.25 -27.9 -32.25 -27.15 -32.65
L -23.7 -28.3
Q -20.85 -27.55 -19.45 -29 -19.95 -28.95 -20.65 -29.4 -22.85 -37.25 -26.9 -41.45
M -18.5 -30.9
L -18.55 -31.05
Q -18.55 -30.7 -18.6 -30.45 -18.5 -30.65 -18.5 -30.9
M 30.75 -38.75
Q 30.65 -38.85 30.4 -38.85 29 -39.5 27.2 -38.85 26.4 -38.5 25.9 -38 25.85 -38.7 25.65 -39.25 25.15 -40.45 24.1 -41.05 23.05 -41.75 21.95 -41.3 20.9 -40.95 20.45 -39.75 20 -38.55 20.5 -37.35 20.9 -36.2 21.65 -35.6
L 18.25 -30.45
Q 22.1 -31.85 23 -26.4
L 23.1 -26.5 23.05 -26.55
Q 22.6 -29.15 21.45 -30.1 27.9 -33.15 30.75 -38.75 Z"/>

<path fill="#E7E3CB" stroke="none" d="
M -18.6 -30.45
Q -18.55 -30.7 -18.55 -31.05 -18.5 -31 -18.35 -31
L -22 -35.9
Q -21.05 -37 -21.05 -38.5 -20.95 -40.15 -22.15 -41.2 -23.05 -42.3 -24.55 -42.3 -25.85 -42.35 -26.9 -41.45 -22.85 -37.25 -20.65 -29.4 -19.95 -28.95 -19.45 -29 -18.8 -29.15 -18.6 -30.45
M 23.1 -26.5
Q 23.0015625 -26.396875 23.05 -26.3
L 26.8 -31.8
Q 28.3 -31.25 29.85 -31.8 31.7 -32.45 32.25 -33.95 33.05 -35.3 32.55 -36.75 32.1 -38.05 30.75 -38.75 27.9 -33.15 21.45 -30.1 22.6 -29.15 23.05 -26.55
L 23.1 -26.5 Z"/>

<path fill="#6633CC" stroke="none" d="
M -15.1 -26.05
L -18.5 -30.9
Q -18.5 -30.65 -18.6 -30.45 -18.8 -29.15 -19.45 -29 -20.85 -27.55 -23.7 -28.3
L -20.3 -23.55 -15.1 -26.05
M 18.25 -30.45
L 16.1 -27.25 16.15 -27.2 19.25 -26.25 20.3 -22.45 23 -26.4
Q 22.1 -31.85 18.25 -30.45 Z"/>
</g>

<g id="donut_bones_0_Layer4_0_FILL">
<path fill="#848484" stroke="none" d="
M -14.3 -26.85
Q -15.9 -26.85 -17.05 -25.65 -17.75 -24.95 -18 -24.05 -18.1 -24.05 -18.15 -24.05 -20.2 -24.05 -21.7 -23.25 -23.15 -22.4 -23.15 -21.2 -23.15 -20.65 -22.8 -20.15 -14.45 -18.7 -7.7 -24.75 -7.9 -25.3 -8.45 -25.75 -9.25 -26.35 -10.4 -26.35 -11.25 -26.35 -11.9 -26 -12.95 -26.85 -14.3 -26.85
M 9.35 -26.6
Q 8.95 -26.15 8.8 -25.45 13.7 -19.1 23.05 -20.15 23.3 -20.75 23.2 -21.45 23.1 -22.5 22.25 -23.25 21.65 -23.75 20.9 -23.8 20.8 -25.2 19.75 -26 18.65 -26.95 16.95 -26.6 15.9 -26.45 15.1 -25.85 15.05 -25.95 15 -25.95 13.55 -27.2 11.9 -27.4 10.25 -27.55 9.35 -26.6 Z"/>
</g>

<g id="donut_bones_0_Layer3_0_FILL">
<path fill="#FF0000" stroke="none" d="
M -19.5 -16.75
Q -19.35 -16 -18.95 -15.1 -18.35 -14.1 -17.8 -13.55 -17.25 -13 -16.95 -13.2 -16.6 -13.35 -16.7 -14.2 -16.8 -15 -17.35 -15.95 -17.75 -16.8 -18.4 -17.4 -19 -17.9 -19.25 -17.8 -19.6 -17.55 -19.5 -16.75
M -14.6 -20.1
Q -13.85 -20.2 -13.75 -20.55 -13.7 -20.8 -14 -21.05
L -16.8 -20.4
Q -16.6 -20.35 -16.4 -20.3 -15.4 -20.05 -14.6 -20.1
M -7.7 -13.75
Q -8.35 -14.1 -9.45 -14.25 -10.5 -14.5 -11.25 -14.3 -12.05 -14.15 -12.1 -13.8 -12.2 -13.45 -11.45 -13.05 -10.75 -12.7 -9.7 -12.55 -8.65 -12.35 -7.9 -12.5 -7.15 -12.7 -7.05 -13.05 -7.05 -13.4 -7.7 -13.75
M -9.05 -19.75
Q -8.65 -20.35 -8.85 -20.65 -9.1 -20.95 -9.8 -20.75 -10.6 -20.55 -11.45 -19.95 -12.3 -19.3 -12.8 -18.7 -13.25 -18 -13.05 -17.75 -12.8 -17.45 -12.05 -17.7 -11.3 -17.85 -10.4 -18.45 -9.55 -19.1 -9.05 -19.75
M -8 -24.4
Q -8.3 -24.55 -8.7 -24.6
L -10.2 -22.9
Q -10 -22.9 -9.8 -22.9 -8.75 -22.9 -8 -23.15 -7.25 -23.45 -7.25 -23.8 -7.25 -24.15 -8 -24.4
M 1.1 -23.35
Q 1.85 -23.55 1.85 -23.95 1.85 -24.3 1.15 -24.6 0.4 -24.9 -0.65 -24.95 -1.75 -25 -2.5 -24.75 -3.25 -24.5 -3.25 -24.15 -3.3 -23.8 -2.55 -23.5 -1.85 -23.2 -0.75 -23.15 0.3 -23.1 1.1 -23.35
M 17.8 -16.8
Q 17.1 -15.95 16.7 -15.25 16.4 -14.55 16.65 -14.3 16.9 -14.05 17.65 -14.4 18.35 -14.7 19.05 -15.55 19.8 -16.25 20.2 -17 20.5 -17.7 20.2 -17.95 19.9 -18.15 19.25 -17.85 18.55 -17.5 17.8 -16.8
M 11.95 -13.6
Q 12.95 -13.95 13.6 -14.4 14.25 -14.9 14.1 -15.2 14 -15.55 13.2 -15.55 12.4 -15.65 11.4 -15.3 10.4 -14.95 9.75 -14.5 9.1 -14 9.25 -13.65 9.35 -13.35 10.15 -13.3 10.95 -13.3 11.95 -13.6
M 12.8 -20.95
Q 11.85 -21.4 11.05 -21.45 10.25 -21.55 10.1 -21.25 9.95 -20.9 10.5 -20.35 11.05 -19.8 12 -19.35 12.9 -18.85 13.7 -18.7 14.5 -18.65 14.65 -19 14.8 -19.3 14.25 -19.8 13.7 -20.45 12.8 -20.95
M 17.85 -20.85
Q 18.15 -20.6 18.45 -20.3 19.25 -19.6 19.95 -19.3 20.75 -19.05 20.95 -19.35 21.15 -19.65 20.8 -20.3 20.7 -20.4 20.65 -20.5
L 17.85 -20.85
M 9.7 -25.85
Q 8.65 -25.65 8 -25.25 7.25 -24.8 7.35 -24.45 7.45 -24.15 8.2 -24 9 -23.85 10.05 -24.1 10.15 -24.15 10.3 -24.1
L 9.7 -25.85 Z"/>

<path fill="#DB0202" stroke="none" d="
M -14 -21.05
Q -14.1 -21.2 -14.3 -21.3 -14.95 -21.75 -16 -22.05 -17.05 -22.25 -17.8 -22.2 -18.6 -22.1 -18.7 -21.75 -18.8 -21.4 -18.1 -20.95 -17.6 -20.65 -16.8 -20.4
L -14 -21.05
M -8.7 -24.6
Q -9.2 -24.7 -9.8 -24.7 -10.9 -24.7 -11.65 -24.4 -12.4 -24.15 -12.4 -23.8 -12.4 -23.45 -11.65 -23.15 -11.05 -22.95 -10.2 -22.9
L -8.7 -24.6
M 18.05 -22.6
Q 17.3 -22.9 17.05 -22.65 16.85 -22.35 17.25 -21.65 17.5 -21.25 17.85 -20.85
L 20.65 -20.5
Q 20.25 -21.05 19.55 -21.65 18.8 -22.35 18.05 -22.6
M 11.55 -25.9
Q 10.75 -26.05 9.7 -25.85
L 10.3 -24.1
Q 11.15 -24.3 11.75 -24.65 12.4 -25.15 12.35 -25.45 12.3 -25.8 11.55 -25.9 Z"/>
</g>

<g id="fly_0_Layer3_0_FILL">
<path fill="#000000" stroke="none" d="
M 0.9 -1.7
Q 0.6 -2.4 0 -2.4 -0.6 -2.4 -1.2 -1.7 -1.5 -1 -1.5 0.05 -1.5 1.1 -1.2 1.8 -0.6 2.5 0 2.5 0.6 2.5 0.9 1.8 1.5 1.1 1.5 0.05 1.5 -1 0.9 -1.7 Z"/>
</g>

<g id="fly_wing_0_Layer0_0_FILL">
<path fill="#CCCCCC" stroke="none" d="
M 3 2.1
Q 3 1.2 2.4 0.6 2.1 0 1.5 0 0.9 0 0.3 0.6 0 1.2 0 2.1 0 3 0.3 3.6 0.9 4.2 1.5 4.2 2.1 4.2 2.4 3.6 3 3 3 2.1 Z"/>
</g>

<path id="donut_bones_0_Layer7_0_1_STROKES" stroke="#000000" stroke-width="2" stroke-linejoin="round" stroke-linecap="round" fill="none" d="
M -28.2 -10.1
L -28.2 -10.05
Q -28.2 -4.1 -23.65 0.15 -19.05 4.4 -12.25 5.15 -0.3 6.05 12.55 5.15 18.85 4.4 23.45 0.15 28.05 -4.1 28.05 -10.05
L 28.05 -10.1
Q 28.05 -10.2 28.05 -10.3 28 -13.05 26.95 -15.45 26.5 -16.5 25.85 -17.55 24.9 -19 23.45 -20.35 18.85 -24.55 15.35 -25.1 1.7 -28.85 -12.55 -25.65 -19.05 -24.55 -23.65 -20.35 -25 -19.05 -25.95 -17.65 -26.85 -16.3 -27.4 -14.75 -28.2 -12.6 -28.2 -10.1 Z"/>

<path id="donut_bones_0_Layer4_0_1_STROKES" stroke="#000000" stroke-width="2" stroke-linejoin="round" stroke-linecap="round" fill="none" d="
M 8.8 -25.45
Q 8.95 -26.15 9.35 -26.6 10.25 -27.55 11.9 -27.4 13.55 -27.2 15 -25.95 15.05 -25.95 15.1 -25.85 15.9 -26.45 16.95 -26.6 18.65 -26.95 19.75 -26 20.8 -25.2 20.9 -23.8 21.65 -23.75 22.25 -23.25 23.1 -22.5 23.2 -21.45 23.3 -20.75 23.05 -20.15
M -22.8 -20.15
Q -23.15 -20.65 -23.15 -21.2 -23.15 -22.4 -21.7 -23.25 -20.2 -24.05 -18.15 -24.05 -18.1 -24.05 -18 -24.05 -17.75 -24.95 -17.05 -25.65 -15.9 -26.85 -14.3 -26.85 -12.95 -26.85 -11.9 -26 -11.25 -26.35 -10.4 -26.35 -9.25 -26.35 -8.45 -25.75 -7.9 -25.3 -7.7 -24.75"/>
</defs>

<g transform="matrix( 7.0372161865234375, 0, 0, 7.0372161865234375, 276.4,469.2) ">
<g transform="matrix( 1, 0, 0, 1, 0,0) ">
<use xlink:href="#donut_bones_0_Layer7_0_FILL"/>

<use xlink:href="#donut_bones_0_Layer7_0_1_STROKES"/>
</g>

<g transform="matrix( 1, 0, 0, 1, 0,0) ">
<use xlink:href="#donut_bones_0_Layer6_0_FILL"/>
</g>

<g transform="matrix( 1, 0, 0, 1, 0,0) ">
<use xlink:href="#donut_bones_0_Layer5_0_FILL"/>
</g>

<g transform="matrix( 1, 0, 0, 1, 0,0) ">
<use xlink:href="#donut_bones_0_Layer4_0_FILL"/>

<use xlink:href="#donut_bones_0_Layer4_0_1_STROKES"/>
</g>

<g transform="matrix( 1, 0, 0, 1, 0,0) ">
<use xlink:href="#donut_bones_0_Layer3_0_FILL"/>
</g>

<g transform="matrix( -0.77203369140625, 0, 0, 0.77203369140625, -1,-30.3) ">
<g transform="matrix( 1, 0, 0, 1, -0.05,0.65) ">
<g transform="matrix( 1, 0, 0, 1, 0,0) ">
<use xlink:href="#fly_0_Layer3_0_FILL"/>
</g>

<g transform="matrix( -0.461883544921875, -0.8854217529296875, 0.8854217529296875, -0.461883544921875, 2.1,1.25) ">
<g transform="matrix( 1, 0, 0, 1, 0,0) ">
<use filter="url(#Filter_1)" xlink:href="#fly_wing_0_Layer0_0_FILL"/>
</g>
</g>

<g transform="matrix( 0.212554931640625, -0.9764404296875, 0.9764404296875, 0.212554931640625, -5.8,0.6) ">
<g transform="matrix( 1, 0, 0, 1, 0,0) ">
<use filter="url(#Filter_1)" xlink:href="#fly_wing_0_Layer0_0_FILL"/>
</g>
</g>
</g>
</g>

<g transform="matrix( -0.77203369140625, 0, 0, 0.77203369140625, 30.55,-24.25) ">
<g transform="matrix( 1, 0, 0, 1, -0.05,0.65) ">
<g transform="matrix( 1, 0, 0, 1, 0,0) ">
<use xlink:href="#fly_0_Layer3_0_FILL"/>
</g>

<g transform="matrix( -0.461883544921875, -0.8854217529296875, 0.8854217529296875, -0.461883544921875, 2.1,1.25) ">
<g transform="matrix( 1, 0, 0, 1, 0,0) ">
<use filter="url(#Filter_1)" xlink:href="#fly_wing_0_Layer0_0_FILL"/>
</g>
</g>

<g transform="matrix( 0.212554931640625, -0.9764404296875, 0.9764404296875, 0.212554931640625, -5.8,0.6) ">
<g transform="matrix( 1, 0, 0, 1, 0,0) ">
<use filter="url(#Filter_1)" xlink:href="#fly_wing_0_Layer0_0_FILL"/>
</g>
</g>
</g>
</g>

<g transform="matrix( 0.77203369140625, 0, 0, 0.77203369140625, -30.85,-25.35) ">
<g transform="matrix( 1, 0, 0, 1, -0.05,0.65) ">
<g transform="matrix( 1, 0, 0, 1, 0,0) ">
<use xlink:href="#fly_0_Layer3_0_FILL"/>
</g>

<g transform="matrix( -0.461883544921875, -0.8854217529296875, 0.8854217529296875, -0.461883544921875, 2.1,1.25) ">
<g transform="matrix( 1, 0, 0, 1, 0,0) ">
<use filter="url(#Filter_1)" xlink:href="#fly_wing_0_Layer0_0_FILL"/>
</g>
</g>

<g transform="matrix( 0.212554931640625, -0.9764404296875, 0.9764404296875, 0.212554931640625, -5.8,0.6) ">
<g transform="matrix( 1, 0, 0, 1, 0,0) ">
<use filter="url(#Filter_1)" xlink:href="#fly_wing_0_Layer0_0_FILL"/>
</g>
</g>
</g>
</g>
</g>
</svg>
