
<svg xmlns="http://www.w3.org/2000/svg" version="1.1" xmlns:xlink="http://www.w3.org/1999/xlink" preserveAspectRatio="none" x="0px" y="0px" width="560px" height="544px" viewBox="0 0 560 544">
<defs>
<radialGradient id="Gradient_1" gradientUnits="userSpaceOnUse" cx="0" cy="0" r="11.637500000000001" fx="0" fy="0" gradientTransform="matrix( 1, 0, 0, 1, -3.75,-15) " spreadMethod="pad">
<stop  offset="0%" stop-color="#F8F8F5"/>

<stop  offset="100%" stop-color="#D7D6CA"/>
</radialGradient>

<radialGradient id="Gradient_2" gradientUnits="userSpaceOnUse" cx="0" cy="0" r="17.25" fx="0" fy="0" gradientTransform="matrix( 1, 0, 0, 1, 0.15,-9.6) " spreadMethod="pad">
<stop  offset="0%" stop-color="#FFFFFF"/>

<stop  offset="100%" stop-color="#C8D6D9"/>
</radialGradient>

<radialGradient id="Gradient_3" gradientUnits="userSpaceOnUse" cx="0" cy="0" r="3.95" fx="0" fy="0" gradientTransform="matrix( 1, 0, 0, 1, -4.95,6.15) " spreadMethod="pad">
<stop  offset="0%" stop-color="#FFFFFF"/>

<stop  offset="100%" stop-color="#D7D6CA"/>
</radialGradient>

<radialGradient id="Gradient_4" gradientUnits="userSpaceOnUse" cx="0" cy="0" r="3.9479820794932694" fx="0" fy="0" gradientTransform="matrix( -0.9973449526157387, 0.07282201241321266, 0.07282201241321266, 0.9973449526157387, 6.35,5.55) " spreadMethod="pad">
<stop  offset="0%" stop-color="#FFFFFF"/>

<stop  offset="100%" stop-color="#D7D6CA"/>
</radialGradient>

<radialGradient id="Gradient_5" gradientUnits="userSpaceOnUse" cx="0" cy="0" r="5.585080572382104" fx="0" fy="0" gradientTransform="matrix( -0.9937188780130451, 0.1119052790555231, 0.10295285673108126, 0.7833369533886617, 1,5.35) " spreadMethod="pad">
<stop  offset="0%" stop-color="#FFFFFF"/>

<stop  offset="100%" stop-color="#D7D6CA"/>
</radialGradient>

<filter id="Filter_1" x="-20%" y="-20%" width="140%" height="140%" color-interpolation-filters="sRGB">
<feColorMatrix in="SourceGraphic" type="matrix" values="1 0 0 0 0 0 1 0 0 0 0 0 1 0 0 0 0 0 0.39 0" result="result1"/>
</filter>

<g id="skull_brain_0_Layer8_0_FILL">
<path fill="#B8B4A5" stroke="none" d="
M -14.1 -1.8
L -14.1 -1.7
Q -14.05 -1.75 -14.05 -1.8
L -14.1 -1.8
M -14.15 -1.7
L -14.15 -1.6
Q -14.1 -1.65 -14.1 -1.7
L -14.15 -1.7 Z"/>

<path fill="url(#Gradient_1)" stroke="none" d="
M -14.2 -1.6
L -14.15 -1.6 -14.15 -1.7
Q -14.2 -1.65 -14.2 -1.6 Z"/>

<path fill="#A6BBBF" stroke="none" d="
M 4.6 -21.6
Q 10.25 -19.95 13.85 -12.1 14.5 -18.35 11.7 -20.6 8.6 -23.1 4.65 -24.65 2.7 -25.35 0 -25.4 -1.9 -25.35 -3.85 -24.65 -7.8 -23.1 -10.9 -20.6 -11.6 -20.05 -12.05 -19.2 -3.55 -23.65 -2.3 -23.45 -1.05 -23.3 4.6 -21.6
M 14.3 -2.35
Q 14.2 -2.45 14.05 -2.5 13.75 -2 13.85 -0.85 13.95 0.3 11.7 0.55
L 10.55 -0.55
Q 9.25 -1.65 9.15 -0.5 9 0.65 7.6 0.25 6.25 -0.1 6 2.65 2.85 5.7 0.65 2.7 -2 5.95 -4.9 2.4 -6.05 -0.2 -6.95 0.1 -7.85 0.4 -8.5 -0.35 -9.2 -1.05 -10.4 -0.55
L -11.55 0.55
Q -14.3 0.45 -13.85 -0.65 -13.4 -1.75 -14.05 -1.8 -14.05 -1.75 -14.1 -1.7 -14.1 -1.65 -14.15 -1.6
L -14.2 -1.6
Q -14.3 -1.5 -14.4 -1.35 -14.85 -0.8 -15.1 -0.3 -15.5 0.65 -13.9 2.9 -13.05 4 -11.7 4.95
L -10.55 3.9
Q -9.5 2.6 -8.65 2.6 -7.75 2.6 -6.75 3.65 -6.2 4.2 -5.85 4.7 -3.2 11.5 0.4 5.3 4.6 11.3 6.65 4.7 7 4.2 7.55 3.65 8.6 2.6 9.45 2.6 10.35 2.6 11.75 3.8
L 12.4 4.6
Q 13.85 4 15.25 1.95 16.65 -0.2 16.2 -0.8 15.65 -1.4 15.1 -1.75 14.55 -2.1 14.3 -2.35
M -12.25 -14.1
Q -12.3 -14.6 -12.35 -15.05 -12.36328125 -14.6248046875 -12.35 -14.2 -12.3203125 -12.9318359375 -12.1 -11.5 -11.8 -9.4 -11.3 -7.5 -10.95 -7.75 -10.7 -7.8 -11.33671875 -9.5583984375 -11.8 -11.5 -12.053125 -12.76171875 -12.25 -14.1
M -7.7 -17.4
Q -7.4 -17.6 -7.45 -17.75 -7.5 -17.85 -7.9 -17.75 -8.2 -17.7 -8.6 -17.5 -9.05 -17.25 -9.35 -17 -9.6 -16.8 -9.55 -16.7 -9.5 -16.6 -9.15 -16.65 -8.8 -16.75 -8.35 -16.95 -7.95 -17.15 -7.7 -17.4
M -4.9 -20.55
Q -4.3 -21.05 -4.4 -21.35 -4.55 -21.6 -5.45 -21.6 -6.4 -21.55 -7.35 -21 -8.3 -20.45 -8.8 -19.85 -9.3 -19.2 -9.2 -18.9 -9.05 -18.65 -8.3 -18.85 -7.45 -19 -6.45 -19.5 -5.45 -20 -4.9 -20.55
M 12.65 -12.65
Q 12.5 -13.05 12.3 -13.4 12.1447265625 -12.46875 11.95 -11.6 11.505078125 -9.59296875 10.85 -7.8 11.15 -7.7 11.65 -7.4 12.2 -9.35 12.5 -11.5 12.6 -12.1 12.65 -12.65 Z"/>

<path fill="url(#Gradient_2)" stroke="none" d="
M 13.7 -10.85
Q 13.8 -11.5 13.85 -12.1 10.25 -19.95 4.6 -21.6 -1.05 -23.3 -2.3 -23.45 -3.55 -23.65 -12.05 -19.2 -13.7 -16.45 -12.9 -10.85 -12.35 -7.2 -11.2 -4.05 -11.85 -3.95 -13.2 -2.7 -13.35 -2.5 -13.85 -2.15 -14 -2.05 -14.05 -1.8 -13.4 -1.75 -13.85 -0.65 -14.3 0.45 -11.55 0.55
L -10.4 -0.55
Q -9.2 -1.05 -8.5 -0.35 -7.85 0.4 -6.95 0.1 -6.05 -0.2 -4.9 2.4 -2 5.95 0.65 2.7 2.85 5.7 6 2.65 6.25 -0.1 7.6 0.25 9 0.65 9.15 -0.5 9.25 -1.65 10.55 -0.55
L 11.7 0.55
Q 13.95 0.3 13.85 -0.85 13.75 -2 14.05 -2.5 14.2 -2.45 14.3 -2.35 14.15 -2.55 14 -2.7 12.65 -3.95 12.05 -4.05 13.2 -7.2 13.7 -10.85
M 12.3 -13.4
Q 12.5 -13.05 12.65 -12.65 12.6 -12.1 12.5 -11.5 12.2 -9.35 11.65 -7.4 11.15 -7.7 10.85 -7.8 11.505078125 -9.59296875 11.95 -11.6 12.1447265625 -12.46875 12.3 -13.4
M -4.4 -21.35
Q -4.3 -21.05 -4.9 -20.55 -5.45 -20 -6.45 -19.5 -7.45 -19 -8.3 -18.85 -9.05 -18.65 -9.2 -18.9 -9.3 -19.2 -8.8 -19.85 -8.3 -20.45 -7.35 -21 -6.4 -21.55 -5.45 -21.6 -4.55 -21.6 -4.4 -21.35
M -7.45 -17.75
Q -7.4 -17.6 -7.7 -17.4 -7.95 -17.15 -8.35 -16.95 -8.8 -16.75 -9.15 -16.65 -9.5 -16.6 -9.55 -16.7 -9.6 -16.8 -9.35 -17 -9.05 -17.25 -8.6 -17.5 -8.2 -17.7 -7.9 -17.75 -7.5 -17.85 -7.45 -17.75
M -12.35 -15.05
Q -12.3 -14.6 -12.25 -14.1 -12.053125 -12.76171875 -11.8 -11.5 -11.33671875 -9.5583984375 -10.7 -7.8 -10.95 -7.75 -11.3 -7.5 -11.8 -9.4 -12.1 -11.5 -12.3203125 -12.9318359375 -12.35 -14.2 -12.36328125 -14.6248046875 -12.35 -15.05 Z"/>
</g>

<g id="skull_brain_0_Layer7_0_FILL">
<path fill="#CC0000" stroke="none" d="
M 5.9 -15.95
Q 5.3 -14.85 5.3 -13.35 5.3 -11.85 5.9 -10.8 6.5 -9.7 7.35 -9.7 7.71796875 -9.7 8.05 -9.9 8.1318359375 -8.8779296875 8.45 -8.1 8.95 -6.95 9.65 -6.95 10.35 -6.95 10.8 -8.1 11.3 -9.2 11.3 -10.8 11.3 -12.4 10.8 -13.55 10.35 -14.65 9.65 -14.65 9.463671875 -14.65 9.3 -14.6 9.14140625 -15.32421875 8.8 -15.95 8.2 -17 7.35 -17 6.5 -17 5.9 -15.95
M 3.3 -14.65
Q 2.9 -15.2 2.3 -15.2 1.7 -15.2 1.25 -14.65 0.85 -14.1 0.85 -13.3 0.85 -12.5 1.25 -11.95 1.7 -11.4 2.3 -11.4 2.9 -11.4 3.3 -11.95 3.75 -12.5 3.75 -13.3 3.75 -14.1 3.3 -14.65 Z"/>
</g>

<g id="skull_brain_0_Layer6_0_FILL">
<path fill="#000000" stroke="none" d="
M -2.15 -8.85
L -10.45 -3.9 -10.4 -3.65
Q -9 -2.15 -6.35 -2.35 -4.4 -2.45 -2.1 -3.55 -0.6 -4.25 -1.2 -6.6 -1.5 -7.8 -2.15 -8.85
M 11.15 -3.65
L 3.15 -9.05
Q 2.45 -8.05 2.05 -6.9 1.3 -4.6 2.85 -3.75 5.05 -2.55 7.05 -2.3 9.55 -2 11.05 -3.45
L 11.15 -3.65
M 0.3 -3.1
L 0.25 -3
Q -1.6 -1.05 -1.75 0.85 1 -0.15 2.7 0.4 4.4 0.95 2.9 -1.05 1.45 -3.05 0.3 -3.1 Z"/>
</g>

<g id="skull_brain_0_Layer5_0_FILL">
<path fill="#5BCBE1" stroke="none" d="
M 16.2 -12.5
Q 18.1 -18.55 14.2 -25.35 10.25 -32.15 -0.85 -30.6 -11.95 -29.05 -13.85 -22.55 -15.75 -16.1 -15.2 -14.15
L -15.15 -11.15
Q 0.95 -15.8 15.7 -10.85
L 16.2 -12.5 Z"/>
</g>

<g id="skull_brain_0_Layer4_0_FILL">
<path fill="#D293BF" stroke="none" d="
M -4.2 -13.4
Q -4.236328125 -13.402734375 -4.3 -13.45 -4.2396484375 -13.393359375 -4.2 -13.35
L -4.2 -13.4
M -5.95 -13
Q -6.362109375 -12.74921875 -6.95 -12.45 -5.221484375 -13.1220703125 -4.3 -13.45 -4.455859375 -13.622265625 -4.6 -13.75 -4.7501953125 -13.6240234375 -5.05 -13.45 -5.36640625 -13.1578125 -5.95 -13
M -2.1 -19.65
Q -1.7 -19.5 -1.4 -19.55 -2.05 -19.9 -2.85 -19.95 -2.55 -19.8 -2.1 -19.65
M -3.5 -20.15
L -3.5 -20.2
Q -3.6 -20.05 -3.7 -19.8 -3.55 -19.9 -3.4 -19.9 -3.45 -20.05 -3.5 -20.15
M -3.5 -20.35
Q -3.5 -20.3 -3.5 -20.2
L -3.5 -20.15
Q -3.35 -20.1 -3.15 -20.05 -3.4 -20.3 -3.5 -20.35
M 3.45 -13.2
Q 4.3 -13.2 4.95 -13.45 5.15 -13.5 5.2 -13.55 5.2 -13.75 2.8 -13.25 3.114453125 -13.2 3.45 -13.2
M 3.95 -20.25
L 3.95 -20.2
Q 3.9 -20.1 3.8 -19.95 4 -19.95 4.15 -19.9 4.05 -20.1 3.95 -20.25
M 3.95 -20.25
Q 3.95 -20.35 3.95 -20.4 3.8 -20.35 3.55 -20.1 3.75 -20.1 3.95 -20.2
L 3.95 -20.25
M 0.75 -19.8
Q 0.75 -19.9 0.7 -19.95 0.6 -20.05 0.4 -20.05 0.1 -20.05 -0.35 -19.9 -0.5 -19.9 -0.7 -19.8 -0.8 -19.8 -1 -19.7 -1.15 -19.6 -1.4 -19.55 -1.7 -19.5 -2.1 -19.65 -2.55 -19.8 -2.85 -19.95 -2.9 -19.95 -3.1 -19.95 -3.25 -19.95 -3.4 -19.9 -3.55 -19.9 -3.7 -19.8 -3.8 -19.75 -3.8 -19.7 -4.35 -19.1 -5.1 -19.05 -5.8 -18.85 -6.45 -19.35 -7 -19.7 -7.05 -20.45 -7.15 -21.05 -6.9 -21.45 -7.15 -21.05 -7.05 -20.45 -7 -19.7 -6.45 -19.35 -5.8 -18.85 -5.1 -19.05 -4.35 -19.1 -3.8 -19.7 -3.8 -19.75 -3.7 -19.8 -3.6 -20.05 -3.5 -20.2 -3.5 -20.3 -3.5 -20.35 -3.8 -20.45 -3.85 -21 -4 -21.45 -4 -21.8 -4 -22.1 -3.65 -22.5 -3.35 -22.85 -3.05 -23.05 -2.85 -23.15 -2.7 -23.25 -2.55 -23.4 -2.3 -23.4 -2.55 -23.4 -2.7 -23.25 -2.85 -23.15 -3.05 -23.05 -3.35 -22.85 -3.65 -22.5 -4 -22.1 -4 -21.8 -4 -21.45 -3.85 -21 -3.8 -20.45 -3.5 -20.35 -3.4 -20.3 -3.15 -20.05 -3.05 -20 -2.85 -19.95 -2.05 -19.9 -1.4 -19.55 -1.15 -19.6 -1 -19.7 -0.8 -19.8 -0.7 -19.8 -0.5 -19.9 -0.35 -19.9 -0.2 -20.5 0.05 -22.1 0 -22.35 -0.05 -22.6 -0.15 -23.5 0 -24.25 -0.2 -24.8 -0.6 -25.25 -1.25 -26.15 -2.45 -26.15 -3.5 -26.15 -4.35 -25.25 -4.9 -24.5 -5.05 -23.6 -5.1 -23.7 -5.2 -23.85 -6.1 -25.25 -7.4 -25.25 -8.6 -25.25 -9.5 -23.85 -10.35 -22.5 -10.35 -20.55 -10.35 -18.75 -8.85 -17.45 -8.7958984375 -17.45 -8.65 -17.45 -7.5 -17.45 -3.55 -16.45 -7.5 -17.45 -8.65 -17.45 -8.7958984375 -17.45 -8.85 -17.45 -8.7984375 -17.4484375 -8.75 -17.4 -10.35 -17.2 -10.95 -16.8 -11.9 -16.15 -11.9 -15.25 -11.9 -14.35 -10.9 -13.5 -10.65 -13.3 -10.3 -13.15 -9.3 -12.75 -7.45 -12.75 -6.53984375 -12.79140625 -5.95 -13 -5.36640625 -13.1578125 -5.05 -13.45 -4.857421875 -13.63515625 -4.75 -13.85 -4.75 -13.907421875 -4.6 -13.75 -4.500390625 -13.7697265625 -4.45 -13.8 -4.53125 -13.9771484375 -4.45 -13.95 -4.4 -13.95 -4.3 -13.9
L -4.45 -13.8
Q -4.500390625 -13.7697265625 -4.6 -13.75 -4.455859375 -13.622265625 -4.3 -13.45
L -4.25 -13.45
Q -3.4404296875 -13.7064453125 -3.2 -13.7 -3.1501953125 -13.7 -3.1 -13.7 -2.25 -13.7 -1.5 -14 -1 -14.2 -0.6 -14.6 -0.3 -14.85 0.25 -14.25 -0.5 -15.8 -0.5 -16.6 -0.5 -17.5 0.05 -18.3 0.1 -18.35 0.15 -18.4 0.9 -19.5 0.75 -19.8
M 1.55 -19.55
Q 1.9 -19.5 2.35 -19.65 2.75 -19.9 3.15 -20 2.35 -19.95 1.55 -19.55
M 4.85 -25.7
Q 3.95 -26.7 2.7 -26.7 1.45 -26.7 0.65 -25.7 0.1 -25.15 0 -24.25 -0.15 -23.5 -0.05 -22.6 0 -22.35 0.05 -22.1 0.2 -20.6 0.4 -20.05 0.6 -20.05 0.7 -19.95 0.75 -19.9 0.75 -19.8 0.85 -19.9 1.05 -19.7 1.3 -19.6 1.55 -19.55 2.35 -19.95 3.15 -20 3.35 -20.05 3.55 -20.1 3.8 -20.35 3.95 -20.4 4.25 -20.55 4.35 -21.1 4.45 -21.7 4.45 -22 4.45 -22.35 4.1 -22.75 3.75 -23.1 3.35 -23.35 3.2 -23.5 3 -23.6 2.75 -23.7 2.55 -23.7 2.75 -23.7 3 -23.6 3.2 -23.5 3.35 -23.35 3.75 -23.1 4.1 -22.75 4.45 -22.35 4.45 -22 4.45 -21.7 4.35 -21.1 4.25 -20.55 3.95 -20.4 3.95 -20.35 3.95 -20.25 4.05 -20.1 4.15 -19.9 4.25 -19.75 4.3 -19.7 4.85 -19.1 5.7 -18.95 6.5 -18.8 7.15 -19.35 7.8 -19.7 7.95 -20.55 8.1 -21.15 7.75 -21.7 8.1 -21.15 7.95 -20.55 7.8 -19.7 7.15 -19.35 6.5 -18.8 5.7 -18.95 4.85 -19.1 4.3 -19.7 4.25 -19.75 4.15 -19.9 4 -19.95 3.8 -19.95 3.6 -20 3.45 -20 3.3 -20 3.15 -20 2.75 -19.9 2.35 -19.65 1.9 -19.5 1.55 -19.55 1 -19.35 0.7 -18.95 0.4 -18.7 0.15 -18.4 0.1 -18.35 0.05 -18.3 -0.5 -17.5 -0.5 -16.6 -0.5 -15.8 0.25 -14.25 0.15 -14.6 0.7 -14.2 0.85 -14.05 1 -13.95 1.7984375 -13.3796875 2.8 -13.25 5.2 -13.75 5.2 -13.55 5.65 -12.35 8.35 -12.25 9.7 -12.2 10.7 -12.4 11.65 -12.65 12.2 -13.05 13.35 -13.9 13.35 -14.9 13.35 -15.9 12.3 -16.6 11.6 -17.05 9.85 -17.15 9.9 -17.2 9.95 -17.3 9.9 -17.3 9.8 -17.3 8.4 -17.3 4 -16.15 8.4 -17.3 9.8 -17.3 9.9 -17.3 9.95 -17.3 11.65 -18.75 11.65 -20.65 11.65 -22.75 10.65 -24.25 9.65 -25.7 8.25 -25.7 6.85 -25.7 5.85 -24.25 5.75 -24.05 5.65 -23.9 5.5 -24.9 4.85 -25.7 Z"/>
</g>

<g id="glass_0_Layer0_0_FILL">
<path fill="#FFFFFF" stroke="none" d="
M -2.9 -11.5
L -4.95 -12.25
Q -5.1822265625 -12.1462890625 -5.45 -12.05 -6.65 -11.6 -7.45 -11.05 -8.2732421875 -10.5173828125 -8.15 -10.25
L -8.15 -10.2
Q -8.05 -9.9 -7.1 -10 -6.1 -10.1 -4.9 -10.55 -3.65 -11 -2.9 -11.5
M -14.4 -5.65
Q -13.996875 -5.366796875 -13.1 -5.4 -11.74609375 -5.3537109375 -10.6 -5.95 -9.4119140625 -6.4892578125 -9.2 -7.25 -8.98828125 -8.0109375 -7.85 -8.75 -6.6541015625 -9.496484375 -8.05 -9.55 -9.2294921875 -9.5046875 -10.8 -9 -10.9376953125 -8.9556640625 -11.1 -8.9 -12.8 -8.25 -13.85 -7.45 -14.9 -6.55 -14.65 -5.95 -14.5828125 -5.7486328125 -14.4 -5.65 Z"/>

<path fill="#A3FEFD" stroke="none" d="
M -13.1 -5.4
Q -13.996875 -5.366796875 -14.4 -5.65 -14.9763671875 -4.65703125 -15.3 -3.55 -17.2 2.9 -16.65 4.85
L -16.6 7.85
Q -0.5 3.2 14.25 8.15
L 14.75 6.5
Q 16.65 0.45 12.75 -6.35 8.8 -13.15 -2.3 -11.6 -2.5751953125 -11.5615234375 -4.9 -12.25 -5.02421875 -12.2802734375 -5.2 -12.35
L -4.95 -12.25 -2.9 -11.5
Q -3.65 -11 -4.9 -10.55 -6.1 -10.1 -7.1 -10 -8.05 -9.9 -8.15 -10.2
L -8.15 -10.25
Q -9.6056640625 -9.6904296875 -10.8 -9 -9.2294921875 -9.5046875 -8.05 -9.55 -6.6541015625 -9.496484375 -7.85 -8.75 -8.98828125 -8.0109375 -9.2 -7.25 -9.4119140625 -6.4892578125 -10.6 -5.95 -11.74609375 -5.3537109375 -13.1 -5.4 Z"/>
</g>

<g id="skull_brain_0_Layer2_0_FILL">
<path fill="url(#Gradient_3)" stroke="none" d="
M -5.35 3.8
Q -6.9 3.65 -7.2 5.7 -7.45 7.75 -6.75 9.45
L -2.3 8.8 -2.05 7.55 -2.3 8.5
Q -2.55 7.45 -2.95 6.35 -3.85 3.9 -5.35 3.8
M -6.05 5.4
L -6.2 6.2 -6.05 5.4 Z"/>

<path fill="url(#Gradient_4)" stroke="none" d="
M 4 8.4
L 4.05 8.4 4 8.1
Q 4 8.25 4 8.4
M 8.15 5.85
Q 7.55 3.15 6.3 3.25 5.05 3.35 4.35 5.9 4.1 6.85 4 7.85 4 7.95 4 8.1
L 4.05 8.4 8.4 8.7
Q 8.4 7.25 8.15 5.85
M 7.05 6.85
L 7.35 7.9 7.05 6.85 6.8 8.05 7.05 6.85 Z"/>

<path fill="url(#Gradient_5)" stroke="none" d="
M 3.5 5.6
Q 2.6 2.65 0.85 2.85 -0.9 3.05 -1.8 5.9 -2.25 7.2 -2.3 8.5
L -2.05 7.55 -1.95 9.25 -0.95 9.2 3.9 9.4 3.95 9.1
Q 4 8.55 4 8.4 4 8.25 4 8.1 4 7.95 4 7.85 3.85 6.65 3.5 5.6
M -0.6 7.1
L -0.6 8.65 -0.6 7.1 -0.35 8.45 -0.6 7.1 Z"/>
</g>

<path id="skull_brain_0_Layer8_0_1_STROKES" stroke="#000000" stroke-width="1.5" stroke-linejoin="round" stroke-linecap="round" fill="none" d="
M 14.3 -2.35
Q 14.15 -2.55 14 -2.7 12.65 -3.95 12.05 -4.05 13.2 -7.2 13.7 -10.85 13.8 -11.5 13.85 -12.1
M -12.05 -19.2
Q -13.7 -16.45 -12.9 -10.85 -12.35 -7.2 -11.2 -4.05 -11.85 -3.95 -13.2 -2.7 -13.35 -2.5 -13.85 -2.15 -14 -2.05 -14.05 -1.8
M 14.3 -2.35
Q 14.55 -2.1 15.1 -1.75 15.65 -1.4 16.2 -0.8 16.65 -0.2 15.25 1.95 13.85 4 12.4 4.6
L 11.75 3.8
Q 10.35 2.6 9.45 2.6 8.6 2.6 7.55 3.65 7 4.2 6.65 4.7 4.6 11.3 0.4 5.3 -3.2 11.5 -5.85 4.7 -6.2 4.2 -6.75 3.65 -7.75 2.6 -8.65 2.6 -9.5 2.6 -10.55 3.9
L -11.7 4.95
Q -13.05 4 -13.9 2.9 -15.5 0.65 -15.1 -0.3 -14.85 -0.8 -14.4 -1.35 -14.3 -1.5 -14.2 -1.6 -14.2 -1.65 -14.15 -1.7
L -14.1 -1.7
Q -14.05 -1.75 -14.05 -1.8
M -14.15 -1.6
Q -14.1 -1.65 -14.1 -1.7
M 13.85 -12.1
Q 14.5 -18.35 11.7 -20.6 8.6 -23.1 4.65 -24.65 2.7 -25.35 0 -25.4 -1.9 -25.35 -3.85 -24.65 -7.8 -23.1 -10.9 -20.6 -11.6 -20.05 -12.05 -19.2"/>

<path id="skull_brain_0_Layer5_0_1_STROKES" stroke="#000000" stroke-width="1.5" stroke-linejoin="round" stroke-linecap="round" fill="none" d="
M 16.2 -12.5
Q 18.1 -18.55 14.2 -25.35 10.25 -32.15 -0.85 -30.6 -11.95 -29.05 -13.85 -22.55 -15.75 -16.1 -15.2 -14.15
L -15.15 -11.15
M 16.2 -12.5
L 15.85 -10.8
Q 15.8 -10.85 15.7 -10.85"/>

<path id="skull_brain_0_Layer4_0_1_STROKES" stroke="#994D8A" stroke-width="1" stroke-linejoin="round" stroke-linecap="round" fill="none" d="
M 9.95 -17.3
Q 11.65 -18.75 11.65 -20.65 11.65 -22.75 10.65 -24.25 9.65 -25.7 8.25 -25.7 6.85 -25.7 5.85 -24.25 5.75 -24.05 5.65 -23.9 5.5 -24.9 4.85 -25.7 3.95 -26.7 2.7 -26.7 1.45 -26.7 0.65 -25.7 0.1 -25.15 0 -24.25 -0.15 -23.5 -0.05 -22.6 0 -22.35 0.05 -22.1 0.2 -20.6 0.4 -20.05 0.6 -20.05 0.7 -19.95 0.75 -19.9 0.75 -19.8
M 1.05 -19.7
Q 1.3 -19.6 1.55 -19.55 2.35 -19.95 3.15 -20 3.35 -20.05 3.55 -20.1 3.8 -20.35 3.95 -20.4 4.25 -20.55 4.35 -21.1 4.45 -21.7 4.45 -22 4.45 -22.35 4.1 -22.75 3.75 -23.1 3.35 -23.35 3.2 -23.5 3 -23.6 2.75 -23.7 2.55 -23.7
M 10.7 -12.4
Q 11.65 -12.65 12.2 -13.05 13.35 -13.9 13.35 -14.9 13.35 -15.9 12.3 -16.6 11.6 -17.05 9.85 -17.15 9.9 -17.2 9.95 -17.3 9.9 -17.3 9.8 -17.3 8.4 -17.3 4 -16.15
M 3.95 -20.4
Q 3.95 -20.35 3.95 -20.25 4.05 -20.1 4.15 -19.9 4.25 -19.75 4.3 -19.7 4.85 -19.1 5.7 -18.95 6.5 -18.8 7.15 -19.35 7.8 -19.7 7.95 -20.55 8.1 -21.15 7.75 -21.7
M 1.55 -19.55
Q 1.9 -19.5 2.35 -19.65 2.75 -19.9 3.15 -20 3.3 -20 3.45 -20 3.5 -20.05 3.55 -20.1 3.75 -20.1 3.95 -20.2
L 3.95 -20.25
M 1.55 -19.55
Q 1 -19.35 0.7 -18.95 0.4 -18.7 0.15 -18.4 0.1 -18.35 0.05 -18.3 -0.5 -17.5 -0.5 -16.6 -0.5 -15.8 0.25 -14.25 0.15 -14.6 0.7 -14.2 0.85 -14.05 1 -13.95
M 2.8 -13.25
Q 5.2 -13.75 5.2 -13.55
M 4.15 -19.9
Q 4 -19.95 3.8 -19.95 3.9 -20.1 3.95 -20.2
M 3.8 -19.95
Q 3.6 -20 3.45 -20
M 0.75 -19.8
Q 0.9 -19.5 0.15 -18.4
M -10.3 -13.15
Q -10.65 -13.3 -10.9 -13.5 -11.9 -14.35 -11.9 -15.25 -11.9 -16.15 -10.95 -16.8 -10.35 -17.2 -8.75 -17.4 -8.7984375 -17.4484375 -8.85 -17.45 -10.35 -18.75 -10.35 -20.55 -10.35 -22.5 -9.5 -23.85 -8.6 -25.25 -7.4 -25.25 -6.1 -25.25 -5.2 -23.85 -5.1 -23.7 -5.05 -23.6 -4.9 -24.5 -4.35 -25.25 -3.5 -26.15 -2.45 -26.15 -1.25 -26.15 -0.6 -25.25 -0.2 -24.8 0 -24.25
M -6.9 -21.45
Q -7.15 -21.05 -7.05 -20.45 -7 -19.7 -6.45 -19.35 -5.8 -18.85 -5.1 -19.05 -4.35 -19.1 -3.8 -19.7 -3.8 -19.75 -3.7 -19.8 -3.6 -20.05 -3.5 -20.2 -3.5 -20.3 -3.5 -20.35 -3.8 -20.45 -3.85 -21 -4 -21.45 -4 -21.8 -4 -22.1 -3.65 -22.5 -3.35 -22.85 -3.05 -23.05 -2.85 -23.15 -2.7 -23.25 -2.55 -23.4 -2.3 -23.4
M -3.5 -20.15
L -3.5 -20.2
M -3.1 -19.95
Q -2.9 -19.95 -2.85 -19.95 -3.05 -20 -3.15 -20.05 -3.15 -20 -3.1 -19.95 -3.25 -19.95 -3.4 -19.9 -3.55 -19.9 -3.7 -19.8
M -3.5 -20.35
Q -3.4 -20.3 -3.15 -20.05 -3.35 -20.1 -3.5 -20.15 -3.45 -20.05 -3.4 -19.9
M -0.35 -19.9
Q -0.5 -19.9 -0.7 -19.8 -0.8 -19.8 -1 -19.7 -1.15 -19.6 -1.4 -19.55 -1.7 -19.5 -2.1 -19.65 -2.55 -19.8 -2.85 -19.95 -2.05 -19.9 -1.4 -19.55
M -8.85 -17.45
Q -8.7958984375 -17.45 -8.65 -17.45 -7.5 -17.45 -3.55 -16.45
M 0.25 -14.25
Q -0.3 -14.85 -0.6 -14.6 -1 -14.2 -1.5 -14 -2.25 -13.7 -3.1 -13.7 -3.1501953125 -13.7 -3.2 -13.7 -3.4404296875 -13.7064453125 -4.25 -13.425
L -4.275 -13.425
Q -4.236328125 -13.402734375 -4.2 -13.375
L -4.2 -13.35
Q -4.2396484375 -13.393359375 -4.275 -13.425 -4.455859375 -13.622265625 -4.575 -13.725 -4.7501953125 -13.6240234375 -5.05 -13.45 -5.36640625 -13.1578125 -5.925 -12.975
M -4.575 -13.725
Q -4.500390625 -13.7697265625 -4.45 -13.8
M -4.45 -13.95
Q -4.4 -13.95 -4.3 -13.9
L -4.45 -13.8
M 0.05 -22.1
Q -0.2 -20.5 -0.35 -19.9 0.1 -20.05 0.4 -20.05"/>

<path id="skull_brain_0_Layer2_0_1_STROKES" stroke="#000000" stroke-width="1" stroke-linejoin="round" stroke-linecap="round" fill="none" d="
M 4.05 8.4
L 8.4 8.7
Q 8.4 7.25 8.15 5.85 7.55 3.15 6.3 3.25 5.05 3.35 4.35 5.9 4.1 6.85 4 7.85 4 7.95 4 8.1
L 4.05 8.4 3.95 9.1 3.9 9.4 -0.95 9.2 -1.95 9.25 -2.05 7.55 -2.3 8.8 -6.75 9.45
Q -7.45 7.75 -7.2 5.7 -6.9 3.65 -5.35 3.8 -3.85 3.9 -2.95 6.35 -2.55 7.45 -2.3 8.5 -2.25 7.2 -1.8 5.9 -0.9 3.05 0.85 2.85 2.6 2.65 3.5 5.6 3.85 6.65 4 7.85
M 4.05 8.4
L 4 8.4
Q 4 8.55 3.95 9.1
M 4 8.4
Q 4 8.25 4 8.1
M -2.3 8.5
L -2.05 7.55"/>

<path id="skull_brain_0_Layer2_0_2_STROKES" stroke="#80A282" stroke-width="1" stroke-linejoin="round" stroke-linecap="round" fill="none" d="
M 6.8 8.05
L 7.05 6.85 7.35 7.9
M -0.35 8.45
L -0.6 7.1 -0.6 8.65
M -6.05 5.4
L -6.2 6.2"/>

<path id="skull_brain_0_Layer1_0_1_STROKES" stroke="#000000" stroke-width="1.5" stroke-linejoin="round" stroke-linecap="round" fill="none" d="
M 15.7 -10.85
Q 0.95 -15.8 -15.15 -11.15"/>
</defs>

<g transform="matrix( 12.455657958984375, 0, 0, 12.455657958984375, 273.85,407) ">
<g transform="matrix( 1, 0, 0, 1, 0,0) ">
<use xlink:href="#skull_brain_0_Layer8_0_FILL"/>

<use xlink:href="#skull_brain_0_Layer8_0_1_STROKES"/>
</g>

<g transform="matrix( 1, 0, 0, 1, 0,0) ">
<use xlink:href="#skull_brain_0_Layer7_0_FILL"/>
</g>

<g transform="matrix( 1, 0, 0, 1, 0,0) ">
<use xlink:href="#skull_brain_0_Layer6_0_FILL"/>
</g>

<g transform="matrix( 1, 0, 0, 1, 0,0) ">
<use xlink:href="#skull_brain_0_Layer5_0_FILL"/>

<use xlink:href="#skull_brain_0_Layer5_0_1_STROKES"/>
</g>

<g transform="matrix( 1, 0, 0, 1, 0,0) ">
<use xlink:href="#skull_brain_0_Layer4_0_FILL"/>

<use xlink:href="#skull_brain_0_Layer4_0_1_STROKES"/>
</g>

<g transform="matrix( 0.88238525390625, 0, 0, 0.8380126953125, 1.3,-18.9) ">
<g transform="matrix( 1, 0, 0, 1, 0,0) ">
<use filter="url(#Filter_1)" xlink:href="#glass_0_Layer0_0_FILL"/>
</g>
</g>

<g transform="matrix( 1, 0, 0, 1, 0,0) ">
<use xlink:href="#skull_brain_0_Layer2_0_FILL"/>

<use xlink:href="#skull_brain_0_Layer2_0_1_STROKES"/>

<use xlink:href="#skull_brain_0_Layer2_0_2_STROKES"/>
</g>

<g transform="matrix( 1, 0, 0, 1, 0,0) ">
<use xlink:href="#skull_brain_0_Layer1_0_1_STROKES"/>
</g>
</g>
</svg>
