
<svg xmlns="http://www.w3.org/2000/svg" version="1.1" xmlns:xlink="http://www.w3.org/1999/xlink" preserveAspectRatio="none" x="0px" y="0px" width="560px" height="544px" viewBox="0 0 560 544">
<defs>
<radialGradient id="Gradient_1" gradientUnits="userSpaceOnUse" cx="0" cy="0" r="10.549503839043807" fx="0" fy="0" gradientTransform="matrix( -0.2808188939688103, -0.9597607768554277, 1.1991085261452998, -0.34954250515105084, -1.8,-1.55) " spreadMethod="pad">
<stop  offset="36.07843137254902%" stop-color="#F7F7F7"/>

<stop  offset="100%" stop-color="#D2E2DA"/>

<stop  offset="100%" stop-color="#BB9999"/>
</radialGradient>

<g id="Duplicate_Items_Folder_leg_suit_copy_15_0_Layer1_0_FILL">
<path fill="#000000" stroke="none" d="
M 23.8 -27.4
Q 23.8193359375 -27.0072265625 24.2 -25.95 24.6 -27.25 24.35 -23.15 24.15 -19 24.45 -14.8 24.75 -10.65 24 -5.3 23.45 -0.8 23.45 1.4 23.4 3.6 24.45 7 25.4 10.35 26.65 11.75 27.85 13.1 22.15 16.25 19.75 17.6 19.9 17.25 15.4 19.25 13.45 19.5 10.1 19.9 5.8 18.95 4.35 18.6 3.15 18.15 0 16.95 3.2 13.45 -0.04609375 9.9982421875 0.2 2.75 0.487890625 -4.4453125 0.7 -13.9 0.876953125 -21.6388671875 1.9 -31.45
L -2.45 -27.9
Q -3.5052734375 -20.9919921875 -3.55 -13.9 -3.6189453125 -1.958984375 -3.8 7.05 -3.94375 16.0529296875 0.1 20.3 -3.9 24.7 0.05 26.2 1.55 26.75 3.4 27.25 8.65 28.4 12.85 27.85 15.3 27.55 20.85 25.1 20.65 25.45 23.65 23.85 30.8 19.9 29.7 16.65 28.95 14.55 27.8 9.65 26.8 5.7 26 4.15 25.25 2.6 26 -2.9 26.85 -9.6 26.5 -14.75 26.1 -19.95 26.4 -25.1 26.7 -30.2 26.2 -28.55 25.9408203125 -29.2498046875 25.65 -29.9
L 24.25 -27.4
Q 23.780078125 -27.8392578125 23.8 -27.4 Z"/>

<path fill="#777777" stroke="none" d="
M 24.2 -25.95
Q 23.8193359375 -27.0072265625 23.8 -27.4 12.409375 -35.948046875 1.9 -31.45 0.876953125 -21.6388671875 0.7 -13.9 0.487890625 -4.4453125 0.2 2.75 -0.04609375 9.9982421875 3.2 13.45 0 16.95 3.15 18.15 4.35 18.6 5.8 18.95 10.1 19.9 13.45 19.5 15.4 19.25 19.9 17.25 19.75 17.6 22.15 16.25 27.85 13.1 26.65 11.75 25.4 10.35 24.45 7 23.4 3.6 23.45 1.4 23.45 -0.8 24 -5.3 24.75 -10.65 24.45 -14.8 24.15 -19 24.35 -23.15 24.6 -27.25 24.2 -25.95
M 12.25 -24.35
Q 12.2 -24.15 12.2 -23.9 12.15 -24.05 12.15 -24.2 12.15 -24.4 12.05 -24.6 12.2 -24.45 12.25 -24.35
M 17.15 -26.9
Q 17.1 -11.75 15 3.2 17.1 -11.75 17.15 -26.9
M 21.35 -22.9
Q 19.8 -5.7 20.7 3.75 19.8 -5.7 21.35 -22.9
M 12.65 -26.05
Q 9.9 -11.95 9.5 3.1 9.9 -11.95 12.65 -26.05
M 3.55 3.25
Q 5.55 -14 6.1 -26.8 5.55 -14 3.55 3.25 Z"/>

<path fill="#333333" stroke="none" d="
M 12.2 -23.9
Q 12.2 -24.15 12.25 -24.35 12.2 -24.45 12.05 -24.6 12.15 -24.4 12.15 -24.2 12.15 -24.05 12.2 -23.9 Z"/>
</g>

<g id="Duplicate_Items_Folder_right_shoe_copy_11_0_Layer1_0_FILL">
<path fill="#000000" stroke="none" d="
M 11.1 -5.05
Q 8.923828125 -6.5638671875 6.15 -7.3 1.024609375 -8.9490234375 -5.85 -7.25 -9.2861328125 -6.328515625 -12.1 -4.35 -16.95 -0.95 -16.75 4.1 -16.75 4.45 -16.7 4.85 -16.75 4.85 -16.8 4.85 -17.75 6.85 -17.7 9 -17.65 9.5 -17.6 9.95 0.5 15.1 17.5 8.7 17.55 8.25 17.5 7.75 17.45 5.35 16.15 3.35 16.05 3.35 15.95 3.4 15.95 3.2 15.95 2.95 15.75 -2.1 11.1 -5.05
M 2.9 -6.1
Q 5.95 -5.75 8.5 -4.25 12.55 -1.85 12.7 2.1 12.7 2.45 12.7 2.8 12.45 2.9 12.2 3 11.5 1.25 8.65 0 5 -1.5 -0.1 -1.35 -5.2 -1.15 -8.7 0.65 -9.7 1.15 -10.4 1.75 -11.7 2.8 -11.95 4.05 -12.5 3.85 -13 3.7 -13.05 3.35 -13.05 3 -13.2 -0.95 -9.95 -3.35 -7 -5.5 -2.1 -6.1 -1.65 -6.15 -1.2 -6.2 0.95 -6.35 2.9 -6.1
M 10.5 5.65
Q 11.95 5.2 13.45 4.75
L 14.55 8.8
Q 12.65 9.35 11.3 9.65
L 10.5 5.65
M 16.85 8.35
Q 16.1 8.55 15.2 8.6
L 14.3 4.45
Q 14.9 4.25 15.45 4.1 16.65 5.85 16.75 6.9 16.8 7.95 16.85 8.35
M 2.4 10.8
L 1.95 7.2
Q 3.7 7.05 5.5 6.75
L 6.25 10.45
Q 3.95 10.7 2.4 10.8
M 7.25 10.3
L 6.35 6.6
Q 7.95 6.25 9.65 5.9
L 10.45 9.75
Q 8.4 10.15 7.25 10.3
M 1.05 7.3
L 1.2 10.9
Q -0.4 10.95 -2.5 11.05
L -2.4 7.4
Q -0.7 7.4 1.05 7.3
M -0.9 -0.1
Q -0.6888671875 -0.0849609375 -0.5 -0.1
L -0.5 0.6
Q -0.6115234375 0.6380859375 -0.75 0.65
L -0.9 -0.1
M -7.55 7.05
L -7.95 10.85
Q -9.1 10.6 -10.5 10.5
L -10.25 6.65
Q -8.95 6.85 -7.55 7.05
M -7 10.95
L -6.7 7.15
Q -5.05 7.3 -3.35 7.4
L -3.8 11.1
Q -4.85 10.9 -7 10.95
M -16.85 9.55
Q -16.9 9.55 -16.95 8.45 -16.95 7.35 -15.8 5.4 -15.35 5.5 -14.85 5.6
L -15.45 9.85
Q -16.2 9.65 -16.85 9.55
M -11.15 6.45
L -11.75 10.35
Q -13 10.2 -14.3 10
L -14.25 5.8
Q -12.75 6.15 -11.15 6.45 Z"/>

<path fill="#666666" stroke="none" d="
M -11.75 10.35
L -11.15 6.45
Q -12.75 6.15 -14.25 5.8
L -14.3 10
Q -13 10.2 -11.75 10.35
M -16.95 8.45
Q -16.9 9.55 -16.85 9.55 -16.2 9.65 -15.45 9.85
L -14.85 5.6
Q -15.35 5.5 -15.8 5.4 -16.95 7.35 -16.95 8.45
M -6.7 7.15
L -7 10.95
Q -4.85 10.9 -3.8 11.1
L -3.35 7.4
Q -5.05 7.3 -6.7 7.15
M -7.95 10.85
L -7.55 7.05
Q -8.95 6.85 -10.25 6.65
L -10.5 10.5
Q -9.1 10.6 -7.95 10.85
M 1.2 10.9
L 1.05 7.3
Q -0.7 7.4 -2.4 7.4
L -2.5 11.05
Q -0.4 10.95 1.2 10.9
M 6.35 6.6
L 7.25 10.3
Q 8.4 10.15 10.45 9.75
L 9.65 5.9
Q 7.95 6.25 6.35 6.6
M 1.95 7.2
L 2.4 10.8
Q 3.95 10.7 6.25 10.45
L 5.5 6.75
Q 3.7 7.05 1.95 7.2
M 15.2 8.6
Q 16.1 8.55 16.85 8.35 16.8 7.95 16.75 6.9 16.65 5.85 15.45 4.1 14.9 4.25 14.3 4.45
L 15.2 8.6
M 13.45 4.75
Q 11.95 5.2 10.5 5.65
L 11.3 9.65
Q 12.65 9.35 14.55 8.8
L 13.45 4.75 Z"/>

<path fill="#151515" stroke="none" d="
M -0.5 -0.1
Q -0.6888671875 -0.0849609375 -0.9 -0.1
L -0.75 0.65
Q -0.6115234375 0.6380859375 -0.5 0.6
L -0.5 -0.1 Z"/>

<path fill="#0D0D0D" stroke="none" d="
M 8.5 -4.25
Q 5.95 -5.75 2.9 -6.1 0.95 -6.35 -1.2 -6.2 -1.65 -6.15 -2.1 -6.1 -7 -5.5 -9.95 -3.35 -13.2 -0.95 -13.05 3 -13.05 3.35 -13 3.7 -12.5 3.85 -11.95 4.05 -11.7 2.8 -10.4 1.75 -9.7 1.15 -8.7 0.65 -5.2 -1.15 -0.1 -1.35 5 -1.5 8.65 0 11.5 1.25 12.2 3 12.45 2.9 12.7 2.8 12.7 2.45 12.7 2.1 12.55 -1.85 8.5 -4.25 Z"/>
</g>

<g id="Duplicate_Items_Folder_right_shoe_copy_11_0_Layer0_0_FILL">
<path fill="#000000" stroke="none" d="
M 2.75 -14.05
Q 2.41953125 -13.8548828125 1.7 -12.95 1.0205078125 -11.9951171875 0.95 -11.9 0.8947265625 -11.75703125 0.85 -11.85 0.7 -12.05 0.5 -12.3 0 -13 -1.45 -15 -1.6 -15.15 -1.7 -15.3 -2 -15.75 -2.35 -16.1 -3.65 -17.65 -5.25 -17.8 -7.2 -18 -7.75 -16.35 -8.3 -14.7 -7.3 -12.4 -6.65 -10.85 -5.6 -9.8 -4.65 -9.1 -3.7 -8.4 -3.5 -8.3 -3.3 -8.2
L -4.6 -8.65
Q -5.75 -9.15 -6.75 -9.9 -6.9 -10 -7 -10.1 -9.0212890625 -11.8931640625 -10.65 -14.8
L -11.2 -11.55
Q -8.15703125 -8.5294921875 -6.5 -7.65 -4.8435546875 -6.7181640625 -4.35 -6.95
L -1.6 -7.75
Q -1.4 -7.75 -1.2 -7.75 -0.3357421875 -7.6712890625 0.2 -7.9 0.30625 -7.8853515625 0.4 -7.9 1.1837890625 -7.995703125 1.05 -7.95 1.0791015625 -7.858984375 1.2 -7.95 1.2 -7.798828125 1.2 -7.65 1.2169921875 -7.8009765625 1.2 -7.95 1.5474609375 -7.3763671875 1.7 -7.3 2.4 -7.15 3.5 -7.55 5.15 -8.1 6.9 -9.45 8.55 -10.85 9.2 -12.8 10 -14.8 9.25 -15.9 8.5 -17 6.5 -16.3 5.2046875 -15.853125 4.8 -15.6 4.43359375 -15.3466796875 3.75 -14.8 3.1255859375 -14.2423828125 2.75 -14.05
M 3.25 -12.6
Q 3.35 -12.7 3.45 -12.8 4.75 -14.15 6.2 -14.9 7.7 -15.65 7.9 -14.65 8.05 -13.7 7.4 -12.35 6.8564453125 -11.04765625 5.5 -10.05 4.143359375 -8.99609375 3.75 -8.7 3.403125 -8.413671875 2.8 -8.45 2.195703125 -8.4279296875 1.75 -8.5 1.4208984375 -9.48671875 1.95 -10.65 2.648828125 -12.0533203125 3.25 -12.6
M 0.2 -10.95
Q 0.4322265625 -10.8294921875 0.6 -9.95 0.7595703125 -9.0359375 0.65 -8.6 0.5986328125 -8.1111328125 0.1 -8.25 -0.3544921875 -8.3318359375 -1.05 -8.55 -1.5 -8.65 -1.95 -8.9 -2.4 -9.1 -2.8 -9.4 -3.15 -9.65 -3.5 -9.95 -4.8474609375 -10.9951171875 -5.6 -12.55 -6.358203125 -14.0646484375 -6.25 -15.25 -6.0921875 -16.43359375 -4.95 -16.05 -3.7576171875 -15.6185546875 -3.25 -15.15 -2.7431640625 -14.6392578125 -1.9 -13.6 -1.00625 -12.54765625 -0.5 -11.8 0.0111328125 -11.0142578125 0.2 -10.95 Z"/>
</g>

<g id="Duplicate_Items_Folder_arm_suit_copy_22_0_Layer1_0_FILL">
<path fill="#000000" stroke="none" d="
M 3.45 24.35
Q 3.55 24.15 4.05 21.9 4.25 21.35 4.4 20.8 4.55 20.1 1.3 19.9 -1.8 19.6 -4.85 15.65 -6.4 16.4 -6.7 16.85 -7.6998046875 18.4943359375 -8.05 17.75 -8.35078125 17.0671875 -11.95 22.15 -15.4986328125 27.280078125 -15 29.9 -14.451953125 32.5607421875 -14.35 33.75 -13.5 35.35 -12.35 35.25 -13.35 37.25 -12.95 39 -12.9 39.35 -12.75 39.75
L -6.7 44.5
Q -5.6 45.45 -4.9 46.1 -4.87265625 46.125 -4.85 46.15
L -4.8 46.15
Q -0.876171875 46.2955078125 -1.1 42.3 -0.9 40.9 -1.3 40.2 -1.7 39.35 -2.1 38.05 -2.45 36.65 -4.95 35.55
L -4.85 33.35
Q -4.85 31.75 -4.05 30.85
L -3.25 32.6
Q -2.5 34.4 -0.25 34.3 0.45 34 1.3 33.75 2.25 33.4 3.35 31.9 4.25 30.4 3.8 28.7 3.2 26.85 3.05 26.2 2.95 25 3.45 24.35
M 2.8 21.6
Q 2.7 21.95 2.55 22.4 2.25 23.5 2 24.4 1.9 25.15 2.4 27.6 3 29.9 2.15 30.95 1.45 32.05 0 32.35 -1.4 32.6 -2.25 31.75
L -2.1 31.45
Q -0.1 27.35 -0.3 23.8 -0.35 22.5 -0.9 22.35 -1.8 22.2 -4.05 25.45 -5.85 28.05 -6.65 30.05 -7.5 32.05 -7.4 33.4 -7.330078125 34.395703125 -7.5 35.4 -7.67421875 34.8955078125 -8.1 34.15 -7.8048828125 34.92265625 -7.55 35.55 -7.6140625 36.1357421875 -7.8 36.7 -7.306640625 36.5240234375 -7.4 35.85 -6.1001953125 38.760546875 -5 39.35 -3.65390625 40.003125 -3.4 41.1 -3.08828125 42.240625 -3.9 42.8 -4.665625 43.3625 -6.25 43.1 -8.05 39.4 -10.8 38.8 -10.3984375 38.372265625 -10 38 -11.842578125 35.3046875 -11.4 34.5 -11.55 34.3 -9.25 29 -9.25 28.95 -9.2 28.95 -8.6 27.55 -7.85 25.8
L -8.25 26.1 -8.3 26.35
Q -12.355859375 33.3939453125 -12.9 31.85 -13.4328125 30.317578125 -12.75 27.65 -12.0173828125 24.9822265625 -10.25 23.25 -8.4943359375 21.555859375 -7.4 19.6
L -6.2 17.35
Q -6 17.2 -4.65 17.6
L -3.3 19.15 2.8 21.6 Z"/>

<path fill="#A1B8A4" stroke="none" d="
M 2.55 22.4
Q 2.7 21.95 2.8 21.6
L -3.3 19.15 -4.65 17.6
Q -6 17.2 -6.2 17.35
L -7.4 19.6
Q -8.4943359375 21.555859375 -10.25 23.25 -12.0173828125 24.9822265625 -12.75 27.65 -13.4328125 30.317578125 -12.9 31.85 -12.355859375 33.3939453125 -8.3 26.35
L -8.25 26.1 -7.85 25.8
Q -8.6 27.55 -9.2 28.95 -9.25 28.95 -9.25 29 -11.55 34.3 -11.4 34.5 -11.842578125 35.3046875 -10 38 -10.3984375 38.372265625 -10.8 38.8 -8.05 39.4 -6.25 43.1 -4.665625 43.3625 -3.9 42.8 -3.08828125 42.240625 -3.4 41.1 -3.65390625 40.003125 -5 39.35 -6.1001953125 38.760546875 -7.4 35.85 -7.306640625 36.5240234375 -7.8 36.7 -7.6140625 36.1357421875 -7.55 35.55 -7.8048828125 34.92265625 -8.1 34.15 -7.67421875 34.8955078125 -7.5 35.4 -7.330078125 34.395703125 -7.4 33.4 -7.5 32.05 -6.65 30.05 -5.85 28.05 -4.05 25.45 -1.8 22.2 -0.9 22.35 -0.35 22.5 -0.3 23.8 -0.1 27.35 -2.1 31.45
L -2.25 31.75
Q -1.4 32.6 0 32.35 1.45 32.05 2.15 30.95 3 29.9 2.4 27.6 1.9 25.15 2 24.4 2.25 23.5 2.55 22.4 Z"/>
</g>

<g id="Duplicate_Items_Folder_arm_suit_copy_22_0_Layer0_0_FILL">
<path fill="#121010" stroke="none" d="
M 21.1 -37.65
Q 14.95 -19.55 9.1 -7.65 0.4 9.4 -9.05 16.7 0.1 20.8 6.15 21.2
L 17.9 -8.7 41.85 -40.9
Q 43.35 -47.6 41.95 -51.1 30.6 -52.4 28.25 -51.05 25.65 -49.9 21.1 -37.65 Z"/>
</g>

<g id="Duplicate_Items_Folder_body_suit_copy_20_0_Layer2_0_FILL">
<path fill="#FFFFFF" stroke="none" d="
M -31.45 27.05
L -31.45 27.05
Q -31.396875 27.2654296875 -31.35 27.5
L -31.3 27.5
Q -31.35 27.3 -31.45 27.05
M 30.15 27.55
L 30.2 27.55 30.15 27.4
Q 30.1658203125 27.4865234375 30.15 27.55 Z"/>

<path fill="#000000" stroke="none" d="
M -0.75 -46.9
Q -1.1423828125 -46.85078125 -1.55 -46.85 -1.5998046875 -46.828125 -1.65 -46.85 -1.7931640625 -46.810546875 -1.95 -46.8 -4.55 -46.65 -7.55 -46.4 -8.1208984375 -46.35 -8.7 -46.3 -11.0611328125 -46.08984375 -13.7 -45.85 -14.6 -45.85 -18.25 -44.55 -21.8 -43.25 -28.25 -32.95 -30.0236328125 -22.57109375 -30.55 -14.95 -31.162109375 -5.7255859375 -30.45 -2.55 -29.690234375 0.6326171875 -30.1 5.4 -30.45703125 10.2064453125 -30.3 14.4 -30.15 18.603125 -30.4 20.15 -30.7220703125 22.578125 -30.8 23.55 -30.840234375 24.033984375 -30.95 24.55 -31.090234375 25.71796875 -31.45 27.05 -31.35 27.3 -31.3 27.5
L -31.35 27.5
Q -31.396875 27.2654296875 -31.45 27.05 -32.7291015625 31.9294921875 -32.25 33.25 -31.7185546875 34.5826171875 -26.3 38.5 -20.8841796875 42.41328125 -12.45 43.85 -3.964453125 45.27734375 -2.25 45.75 -2.1001953125 45.8109375 -2 45.85 -1.4861328125 45.9853515625 -1.05 46.1 2.6921875 46.2501953125 5.7 45.8 8.9423828125 45.3375 13.45 44.15 22.490625 41.8611328125 25.95 37.65 26.5982421875 36.896875 27.15 36.25 29.682421875 33.2970703125 30.7 32.6 30.84453125 32.5498046875 30.9 32.25 30.997265625 31.7560546875 30.9 30.6 30.80703125 29.4802734375 30.5 27.75 30.5171875 27.655859375 30.5 27.55
L 30 24.35 30 24.4
Q 30.232421875 25.9318359375 29.95 24.55 30.0302734375 23.4375 29.5 20.15 29.3505859375 19.203125 29.15 18.05 28.203125 12.755078125 28.3 7.25 28.441796875 1.7505859375 28.65 0.85 29.6013671875 -2.937109375 29.6 -8.75 29.6009765625 -9.255078125 29.6 -9.8 29.58828125 -10.33046875 29.55 -10.9 29.455078125 -15.3857421875 29.35 -20.95 29.3083984375 -23.715625 29.05 -26.1
L 29.05 -26.15
Q 28.8498046875 -28.401953125 28.45 -30.3 28.490234375 -32.990625 25.35 -36.3 23.66484375 -38.1189453125 21 -40.15 16.2982421875 -43.6734375 14 -44.7 12.73984375 -45.3697265625 9.9 -45.8 5.966796875 -46.3904296875 5.5 -46.45 3.421484375 -46.5904296875 1.5 -46.7 1.1546875 -46.7294921875 0.8 -46.75 0.675 -46.75 0.55 -46.75
L 0.55 -46.95
Q -0.083203125 -46.9056640625 -0.75 -46.9
M -15.75 -41.4
Q -14.7548828125 -41.5955078125 -14 -41.75
L -21 -30.3 -12.05 -24.85 -18.4 -14.2
Q -1.010546875 -0.4455078125 -3.05 42 -5.1708984375 41.608203125 -10.9 40.75 -17.809765625 39.759765625 -23.3 35.9 -28.7974609375 32.0947265625 -29.65 29.8 -30.1 28.8 -28.45 25.15 -28.411328125 25.07265625 -28.4 25 -28.398828125 25.0259765625 -28.45 25.05 -28.3953125 24.9513671875 -27.2 17.6 -26.78671875 8.7466796875 -25.95 -7.95 -25.977734375 -9.3263671875 -26 -10.55 -26.156640625 -17.425 -26.45 -17.35 -25.501171875 -25.546875 -25.2 -29.3 -18.5 -40.9 -15.75 -41.4
M 11.75 -41.75
Q 11.2171875 -41.9751953125 10.35 -42.3 9.8955078125 -42.4828125 9.3 -42.7 10.37734375 -42.3625 11.4 -41.95 11.6125 -41.838671875 11.8 -41.75 11.789453125 -41.7541015625 11.75 -41.75
M 12.6 -41.9
Q 13.35 -41.8 14.35 -41.6 17.1 -41.1 23.8 -29.5 24.1 -25.75 25 -17.55 24.75 -17.6 24.6 -10.7 24.6 -9.55 24.55 -8.1 25.4 8.55 25.75 17.4 27 24.75 27 24.85
L 26.95 24.8
Q 27.0029296875 24.8560546875 27.05 24.95 28.7 28.6 28.25 29.6 27.4 31.9 21.9 35.75 16.4 39.55 9.45 40.6 3.75 41.4 1.6 41.85 1.0716796875 5.080859375 16.95 -14.4
L 10.65 -25.05 19.6 -30.5 12.6 -41.9
M 30.2 27.55
L 30.15 27.55
Q 30.1658203125 27.4865234375 30.15 27.4
L 30.2 27.55
M 9.35 22
Q 8.4 23.1 8.45 24.7 8.5 26.3 9.5 27.35 10.45 28.4 11.75 28.35 13.05 28.3 13.95 27.15 14.85 26.05 14.8 24.45 14.75 22.85 13.8 21.8 12.85 20.8 11.55 20.85 10.25 20.9 9.35 22
M 13.65 9.9
Q 15.05 9.85 16.05 8.65 17.05 7.45 17 5.7 16.95 4 15.9 2.85 14.8 1.75 13.4 1.8 11.95 1.9 11 3.05 10 4.25 10.05 6 10.1 7.7 11.15 8.85 12.2 10 13.65 9.9
M 26.75 24.65
L 26.75 24.7 26.85 24.7
Q 26.8 24.65 26.75 24.65
M -28.2 24.8
Q -28.2125 24.858203125 -28.25 24.9
L -28.15 24.9
Q -28.15 24.8712890625 -28.2 24.8
M -13.95 19.7
Q -14.9 20.75 -14.95 22.35 -15 23.95 -14.1 25.05 -13.2 26.2 -11.9 26.25 -10.6 26.3 -9.65 25.25 -8.65 24.2 -8.6 22.6 -8.55 21 -9.5 19.9 -10.4 18.8 -11.7 18.75 -13 18.7 -13.95 19.7
M -17.15 3.6
Q -17.2 5.35 -16.2 6.55 -15.2 7.75 -13.8 7.8 -12.35 7.9 -11.3 6.75 -10.25 5.6 -10.2 3.9 -10.15 2.15 -11.15 0.95 -12.1 -0.2 -13.55 -0.3 -14.95 -0.35 -16.05 0.75 -17.1 1.9 -17.15 3.6 Z"/>

<path fill="#121010" stroke="none" d="
M 14.35 -41.6
Q 13.35 -41.8 12.6 -41.9
L 19.6 -30.5 10.65 -25.05 16.95 -14.4
Q 1.0716796875 5.080859375 1.6 41.85 3.75 41.4 9.45 40.6 16.4 39.55 21.9 35.75 27.4 31.9 28.25 29.6 28.7 28.6 27.05 24.95 27.0029296875 24.8560546875 26.95 24.8
L 27 24.85
Q 27 24.75 25.75 17.4 25.4 8.55 24.55 -8.1 24.6 -9.55 24.6 -10.7 24.75 -17.6 25 -17.55 24.1 -25.75 23.8 -29.5 17.1 -41.1 14.35 -41.6
M 26.75 24.7
L 26.75 24.65
Q 26.8 24.65 26.85 24.7
L 26.75 24.7
M 16.05 8.65
Q 15.05 9.85 13.65 9.9 12.2 10 11.15 8.85 10.1 7.7 10.05 6 10 4.25 11 3.05 11.95 1.9 13.4 1.8 14.8 1.75 15.9 2.85 16.95 4 17 5.7 17.05 7.45 16.05 8.65
M 8.45 24.7
Q 8.4 23.1 9.35 22 10.25 20.9 11.55 20.85 12.85 20.8 13.8 21.8 14.75 22.85 14.8 24.45 14.85 26.05 13.95 27.15 13.05 28.3 11.75 28.35 10.45 28.4 9.5 27.35 8.5 26.3 8.45 24.7
M -14 -41.75
Q -14.7548828125 -41.5955078125 -15.75 -41.4 -18.5 -40.9 -25.2 -29.3 -25.501171875 -25.546875 -26.45 -17.35 -26.156640625 -17.425 -26 -10.55 -25.977734375 -9.3263671875 -25.95 -7.95 -26.78671875 8.7466796875 -27.2 17.6 -28.3953125 24.9513671875 -28.45 25.05 -28.398828125 25.0259765625 -28.4 25 -28.411328125 25.07265625 -28.45 25.15 -30.1 28.8 -29.65 29.8 -28.7974609375 32.0947265625 -23.3 35.9 -17.809765625 39.759765625 -10.9 40.75 -5.1708984375 41.608203125 -3.05 42 -1.010546875 -0.4455078125 -18.4 -14.2
L -12.05 -24.85 -21 -30.3 -14 -41.75
M -16.2 6.55
Q -17.2 5.35 -17.15 3.6 -17.1 1.9 -16.05 0.75 -14.95 -0.35 -13.55 -0.3 -12.1 -0.2 -11.15 0.95 -10.15 2.15 -10.2 3.9 -10.25 5.6 -11.3 6.75 -12.35 7.9 -13.8 7.8 -15.2 7.75 -16.2 6.55
M -14.95 22.35
Q -14.9 20.75 -13.95 19.7 -13 18.7 -11.7 18.75 -10.4 18.8 -9.5 19.9 -8.55 21 -8.6 22.6 -8.65 24.2 -9.65 25.25 -10.6 26.3 -11.9 26.25 -13.2 26.2 -14.1 25.05 -15 23.95 -14.95 22.35
M -28.25 24.9
Q -28.2125 24.858203125 -28.2 24.8 -28.15 24.8712890625 -28.15 24.9
L -28.25 24.9 Z"/>

<path fill="#006699" stroke="none" d="
M 10.35 -42.3
Q 11.2171875 -41.9751953125 11.75 -41.75 11.789453125 -41.7541015625 11.8 -41.75 11.6125 -41.838671875 11.4 -41.95 10.37734375 -42.3625 9.3 -42.7 9.8955078125 -42.4828125 10.35 -42.3 Z"/>
</g>

<g id="Duplicate_Items_Folder_body_suit_copy_20_0_Layer1_0_FILL">
<path fill="#240347" stroke="none" d="
M -7.2 -44.35
L -7.25 -43.45
Q -7.783203125 -6.0193359375 -2 28.4 4.93828125 -7.2634765625 6.95 -43.1 -1.141015625 -39.832421875 -7.2 -44.35 Z"/>
</g>

<g id="Duplicate_Items_Folder_head_copy_38_0_Layer6_0_FILL">
<path fill="#D4B9F0" stroke="none" d="
M -3.7 -13.9
L -3.65 -13.9
Q -2.55 -12.8 -1.5 -13.85
L -1.4 -13.85
Q -0.9 -14.55 -1.05 -15.25
L -1.3 -15.3
Q -2.6 -16 -3.95 -15.35 -4.3 -14.6 -3.7 -13.9
M -3.65 -13.9
L -3.6 -12.95 -3.6 -12.35 -3.85 -9.15 -2.15 -6.45 -1.15 -8.55 -1.45 -13 -1.5 -13.85
Q -2.55 -12.8 -3.65 -13.9 Z"/>

<path fill="#240347" stroke="none" d="
M -6.4 -17.8
L -6.4 -16.8 -4 -15.35 -3.95 -15.35
Q -2.6 -16 -1.3 -15.3
L -1.05 -15.35 0.15 -15.8 -1.5 -16.85
Q -1.9 -16.8 -2.25 -16.75 -2.9 -17 -3.45 -17.25
L -5.2 -16.45 -6.35 -18.7 -6.4 -17.8
M -6.35 -19.05
L -6.35 -18.7 -5.2 -16.45 -3.45 -17.25
Q -5.1 -18 -6.35 -19.05
M 0.15 -15.8
L 0.9 -18.25
Q -0.25 -17.2 -1.5 -16.85
L 0.15 -15.8 Z"/>

<path fill="#000000" stroke="none" d="
M -6.45 -15.5
L -6.4 -16.8 -6.4 -17.8 -7.3 -18.05 -7.55 -14.65 -8.65 -13.15 -5.95 -8.85 -3.6 -12.35 -3.6 -12.95 -6.45 -15.5
M 1 -16.15
L 0.75 -14.2 -0.55 -13.5 2.15 -9.15 3.75 -12.9 2.8 -14.9 2.55 -18.25 1.25 -18.1 1 -16.15 Z"/>

<path fill="#CBA1F7" stroke="none" d="
M -6.4 -16.8
L -6.45 -15.5 -3.6 -12.95 -3.65 -13.9 -3.7 -13.9
Q -4.3 -14.6 -3.95 -15.35
L -4 -15.35 -6.4 -16.8
M 0.75 -14.2
L 1 -16.15 0.15 -15.8 -1.05 -15.35 -1.05 -15.25
Q -0.9 -14.55 -1.4 -13.85
L -1.5 -13.85 -1.45 -13 -0.55 -13.5 0.75 -14.2 Z"/>

<path fill="#4F4B4B" stroke="none" d="
M 0.9 -18.25
L 0.15 -15.8 1 -16.15 1.25 -18.1 1.3 -18.65
Q 1.1 -18.45 0.9 -18.25 Z"/>

<path fill="#8CA18F" stroke="none" d="
M 1.3 -18.65
L 1.55 -20.3
Q -0.15 -18.8 -2.45 -19.35 -6.15 -19.25 -6.35 -20.1
L -6.35 -19.05
Q -5.1 -18 -3.45 -17.25 -2.9 -17 -2.25 -16.75 -1.9 -16.8 -1.5 -16.85 -0.25 -17.2 0.9 -18.25 1.1 -18.45 1.3 -18.65 Z"/>
</g>

<g id="Duplicate_Items_Folder_head_copy_38_0_Layer5_0_FILL">
<path fill="#8CA18F" stroke="none" d="
M -17.8 -39.7
Q -19.35 -40.35 -20.15 -39.35 -21.45 -37.85 -21.8 -36.7 -22.35 -35.15 -21.45 -33.75 -20.6 -32.5 -19.2 -31.95
L -18.05 -31.7
Q -18 -30.75 -17.3 -30.65 -16.6 -30.45 -16.45 -30.7 -15.85 -30.75 -15.2 -30.95 -13.85 -31.35 -13.55 -32 -13.25 -32.7 -14.7 -35.85 -16.1 -38.9 -16.3 -38.85
L -16.75 -39.1
Q -17.3 -39.5 -17.8 -39.7
M -19.95 -38.5
Q -19.35 -39.2 -18.2 -38.7 -17.9 -38.6 -17.5 -38.35
L -17.2 -38.15
Q -17.05 -38.15 -16.05 -36.05 -15 -33.85 -15.3 -33.35 -15.5 -32.85 -16.45 -32.65 -16.85 -32.5 -17.35 -32.45 -17.4 -32.25 -17.9 -32.35 -18.45 -32.5 -18.4 -33.05
L -19.25 -33.25
Q -20.25 -33.65 -20.8 -34.55 -21.45 -35.55 -21.1 -36.65 -20.8 -37.45 -19.95 -38.5
M 15.9 -39
Q 14.85 -39.7 13.5 -38.65 13.1 -38.35 12.65 -37.85
L 12.35 -37.45
Q 12.15 -37.45 11.6 -34.15 11.05 -30.7 11.55 -30.15 12.1 -29.6 13.45 -29.55 14.1 -29.55 14.7 -29.65 14.9 -29.45 15.55 -29.85 16.15 -30.15 15.95 -31
L 17 -31.65
Q 18.2 -32.5 18.65 -34 19.1 -35.5 18.2 -36.9 17.55 -37.9 15.9 -39
M 14.25 -37.9
Q 15.15 -38.65 15.9 -38.1 17.05 -37.35 17.55 -36.65 18.15 -35.7 17.8 -34.6 17.55 -33.55 16.7 -32.9
L 15.9 -32.5
Q 16.1 -31.9 15.65 -31.65 15.2 -31.4 15.05 -31.55 14.65 -31.45 14.2 -31.5 13.2 -31.5 12.85 -31.9 12.5 -32.25 12.9 -34.65 13.25 -37 13.4 -37.05
L 13.6 -37.3
Q 13.9 -37.65 14.25 -37.9 Z"/>

<path fill="#778C7A" stroke="none" d="
M -18.2 -38.7
Q -19.35 -39.2 -19.95 -38.5 -20.8 -37.45 -21.1 -36.65 -21.45 -35.55 -20.8 -34.55 -20.25 -33.65 -19.25 -33.25
L -18.4 -33.05
Q -18.45 -32.5 -17.9 -32.35 -17.4 -32.25 -17.35 -32.45 -16.85 -32.5 -16.45 -32.65 -15.5 -32.85 -15.3 -33.35 -15 -33.85 -16.05 -36.05 -17.05 -38.15 -17.2 -38.15
L -17.5 -38.35
Q -17.9 -38.6 -18.2 -38.7
M -18.2 -36.9
Q -19.55 -35.85 -19.5 -34.95 -19.5 -34.8 -19.4 -34.55 -19.5 -34.8 -19.5 -34.95 -19.55 -35.85 -18.2 -36.9 -19.8 -37.5 -20.35 -35.75 -19.8 -37.5 -18.2 -36.9
M 15.9 -38.1
Q 15.15 -38.65 14.25 -37.9 13.9 -37.65 13.6 -37.3
L 13.4 -37.05
Q 13.25 -37 12.9 -34.65 12.5 -32.25 12.85 -31.9 13.2 -31.5 14.2 -31.5 14.65 -31.45 15.05 -31.55 15.2 -31.4 15.65 -31.65 16.1 -31.9 15.9 -32.5
L 16.7 -32.9
Q 17.55 -33.55 17.8 -34.6 18.15 -35.7 17.55 -36.65 17.05 -37.35 15.9 -38.1
M 16.5 -34.6
Q 16.5 -34.4 16.45 -34.15 16.5 -34.4 16.5 -34.6 16.3 -35.5 14.75 -36.1 16.05 -37.15 17 -35.6 16.05 -37.15 14.75 -36.1 16.3 -35.5 16.5 -34.6 Z"/>
</g>

<g id="Duplicate_Items_Folder_head_copy_38_0_Layer4_0_FILL">
<path fill="#A1B8A4" stroke="none" d="
M 7.45 -50.95
Q 6.15 -52.35 2.9 -53.4 0.15 -54.25 -2 -54.4 -3.95 -54.5 -6.6 -53.55 -9.7 -52.45 -11.75 -50.5 -13.65 -48.75 -14.65 -44.8 -15.15 -42.75 -15.25 -41.2 -16.8 -38.75 -17.2 -37.95 -17.85 -36.6 -18.25 -34.7 -18.65 -32.85 -18.35 -31.35 -18 -29.85 -16.55 -29.75 -14.9 -29.7 -13.65 -27.55 -14.9 -29.7 -16.55 -29.75 -16.05 -27.9 -15.3 -25.65 -14.3 -22.3 -8.4 -21.55 -7.9 -21.45 -6.35 -22 -7.9 -21.45 -8.4 -21.55 -7.6 -20.45 -5.75 -19.45 -3.95 -18.55 -0.35 -18.85 1.4 -19.15 2.65 -19.65 1.9 -19.9 1 -20.9 1.9 -19.9 2.65 -19.65
L 4.05 -19.25
Q 8.35 -19.25 10 -21.8 11.65 -24.35 12.15 -26 12.65 -27.6 12.9 -29.1
L 12.9 -29.15
Q 10.7 -28.6 10.15 -26.4 10.7 -28.6 12.9 -29.15 14.65 -29.95 14.75 -32.3 14.85 -34.75 13.5 -37.15 12.8 -38.4 12.25 -39.45 12.5 -40.8 11.45 -45.4 10.35 -49.9 7.45 -50.95
M 11.55 -37.65
Q 11.85 -37.65 12.05 -37.45 12.35 -37.25 12.3 -36.9 12.3 -36.55 12.05 -36.35 11.8 -36.15 11.55 -36.15 11.25 -36.2 11.05 -36.4 10.85 -36.65 10.8 -37 10.85 -37.3 11.05 -37.5 11.3 -37.7 11.55 -37.65
M 8.2 -28.8
Q 8.25 -28.4 8.35 -27.95 9.2 -23.55 6.4 -22.5 3.65 -21.55 3.35 -21.85 2.55 -21.9 1.9 -22.6 1.3 -23.3 -0.05 -24.4 -1.35 -25.55 -2.6 -25.75 -3.85 -26 -5.2 -25.05 -6.6 -24.1 -6.75 -23.7 -8.3 -23.25 -9.5 -24.25 -11.05 -25.5 -11.25 -27.3 -11.35 -28.5 -10.45 -31 -9.5 -33.55 -5.7 -35.55 -1.9 -37.6 0.25 -37.45 2.35 -37.35 4.9 -34.9 7.2 -32.6 8.2 -28.8
M -5.1 -52.95
Q -2.75 -53.4 -0.85 -53.25 1 -53.05 1.1 -52.7 1.2 -52.3 -0.6 -52.2 -2.45 -52 -4.55 -50.85 -6.7 -49.7 -8.3 -49.5 -9.95 -49.4 -10.2 -50.1 -10.4 -50.8 -8.95 -51.65 -7.45 -52.5 -5.1 -52.95
M -14.9 -37.9
Q -14.6 -37.9 -14.4 -37.6 -14.2 -37.3 -14.2 -36.9 -14.2 -36.5 -14.45 -36.3 -14.65 -36.05 -14.95 -36.05 -15.25 -36.05 -15.45 -36.35 -15.65 -36.65 -15.65 -37 -15.6 -37.4 -15.4 -37.65 -15.15 -37.9 -14.9 -37.9
M -15.1 -35
Q -14.95 -34.8 -14.95 -34.6 -14.95 -34.4 -15.1 -34.25 -15.25 -34.05 -15.45 -34.1 -15.7 -34.1 -15.85 -34.3 -15.9 -34.45 -15.9 -34.65 -15.95 -34.9 -15.75 -35.05 -15.65 -35.2 -15.45 -35.15 -15.2 -35.15 -15.1 -35
M -13.05 -35.5
Q -12.9 -35.3 -12.9 -35.05 -12.95 -34.75 -13.1 -34.6 -13.2 -34.45 -13.45 -34.45 -13.7 -34.5 -13.8 -34.65 -13.95 -34.85 -13.9 -35.1 -13.9 -35.35 -13.8 -35.5 -13.65 -35.7 -13.4 -35.65 -13.2 -35.65 -13.05 -35.5
M -3.25 -19.85
Q -4.25 -20.15 -4.8 -20.85 -5.35 -21.55 -5.25 -21.95 -5.2 -22.3 -4.5 -21.9 -3.85 -21.5 -2.5 -21.65 -1.25 -21.85 -0.5 -21.25 0.3 -20.6 -0.2 -20.4 -0.7 -20.2 -1.5 -19.85 -2.3 -19.55 -3.25 -19.85 Z"/>

<path fill="#BBD9BF" stroke="none" d="
M -4.8 -20.85
Q -4.25 -20.15 -3.25 -19.85 -2.3 -19.55 -1.5 -19.85 -0.7 -20.2 -0.2 -20.4 0.3 -20.6 -0.5 -21.25 -1.25 -21.85 -2.5 -21.65 -3.85 -21.5 -4.5 -21.9 -5.2 -22.3 -5.25 -21.95 -5.35 -21.55 -4.8 -20.85
M -0.85 -53.25
Q -2.75 -53.4 -5.1 -52.95 -7.45 -52.5 -8.95 -51.65 -10.4 -50.8 -10.2 -50.1 -9.95 -49.4 -8.3 -49.5 -6.7 -49.7 -4.55 -50.85 -2.45 -52 -0.6 -52.2 1.2 -52.3 1.1 -52.7 1 -53.05 -0.85 -53.25 Z"/>

<path fill="#627465" stroke="none" d="
M -12.9 -35.05
Q -12.9 -35.3 -13.05 -35.5 -13.2 -35.65 -13.4 -35.65 -13.65 -35.7 -13.8 -35.5 -13.9 -35.35 -13.9 -35.1 -13.95 -34.85 -13.8 -34.65 -13.7 -34.5 -13.45 -34.45 -13.2 -34.45 -13.1 -34.6 -12.95 -34.75 -12.9 -35.05
M -14.95 -34.6
Q -14.95 -34.8 -15.1 -35 -15.2 -35.15 -15.45 -35.15 -15.65 -35.2 -15.75 -35.05 -15.95 -34.9 -15.9 -34.65 -15.9 -34.45 -15.85 -34.3 -15.7 -34.1 -15.45 -34.1 -15.25 -34.05 -15.1 -34.25 -14.95 -34.4 -14.95 -34.6
M -14.4 -37.6
Q -14.6 -37.9 -14.9 -37.9 -15.15 -37.9 -15.4 -37.65 -15.6 -37.4 -15.65 -37 -15.65 -36.65 -15.45 -36.35 -15.25 -36.05 -14.95 -36.05 -14.65 -36.05 -14.45 -36.3 -14.2 -36.5 -14.2 -36.9 -14.2 -37.3 -14.4 -37.6
M 12.05 -37.45
Q 11.85 -37.65 11.55 -37.65 11.3 -37.7 11.05 -37.5 10.85 -37.3 10.8 -37 10.85 -36.65 11.05 -36.4 11.25 -36.2 11.55 -36.15 11.8 -36.15 12.05 -36.35 12.3 -36.55 12.3 -36.9 12.35 -37.25 12.05 -37.45 Z"/>

<path fill="#D79494" stroke="none" d="
M 8.2 -28.8
Q 7.2 -32.6 4.9 -34.9 2.35 -37.35 0.25 -37.45 -1.9 -37.6 -5.7 -35.55 -9.5 -33.55 -10.45 -31 -11.35 -28.5 -11.25 -27.3 -6.5 -35 -0.05 -34.15 4.95 -33.8 8.2 -28.8 Z"/>

<path fill="#000000" stroke="none" d="
M 8.35 -27.95
Q 8.25 -28.4 8.2 -28.8 4.95 -33.8 -0.05 -34.15 -6.5 -35 -11.25 -27.3 -11.05 -25.5 -9.5 -24.25 -8.3 -23.25 -6.75 -23.7 -6.6 -24.1 -5.2 -25.05 -3.85 -26 -2.6 -25.75 -1.35 -25.55 -0.05 -24.4 1.3 -23.3 1.9 -22.6 2.55 -21.9 3.35 -21.85 3.65 -21.55 6.4 -22.5 9.2 -23.55 8.35 -27.95 Z"/>
</g>

<g id="Duplicate_Items_Folder_head_copy_38_0_Layer3_0_FILL">
<path fill="#E6E7D2" stroke="none" d="
M -1.3 -25.1
L -0.15 -27.4
Q -1.65 -28.25 -3.3 -27.85
L -3.05 -25.5 -1.3 -25.1
M -5.9 -33.9
L -5.25 -30.9
Q -3.4 -30.8 -2.3 -32
L -4.1 -34.35 -5.9 -33.9
M 3.2 -31.6
L 2.95 -34.55 0.95 -35.15 -0.35 -32.3
Q 1.3 -31.15 3.2 -31.6 Z"/>
</g>

<g id="Duplicate_Items_Folder_eye_copy_6_0_Layer1_0_FILL">
<path fill="#E779A3" stroke="none" d="
M 3.5 7.25
Q 7.05 5.1 10.85 0.1 6.25 5.3 -0.7 6.65 -7.1 7.45 -11.2 3.9 -11.75 3.45 -12.2 3 -12.45 2.9 -12.4 2.75 -13.2 1.9 -13.85 0.85 -13.95 2.2 -13.65 2.45 -12.4 4.65 -10.7 6.1 -6.75 9.55 -0.55 8.8 1.7 8.35 3.5 7.25 Z"/>

<path fill="#C8A2AA" stroke="none" d="
M 11.7 -2.2
L 11.7 -2.3
Q 11.6208984375 -2.3791015625 11.55 -2.5
L 11.7 -2.2 Z"/>

<path fill="#365649" stroke="none" d="
M 11.8 -2.1
Q 11.807421875 -1.9818359375 11.5 -1.8 11.598046875 -1.535546875 11.7 -1.25 11.7 -1.15 11.8 -1
L 11.8 -0.95 11.85 -0.9
Q 12.2556640625 -1.530859375 11.8 -2.1 Z"/>

<path fill="url(#Gradient_1)" stroke="none" d="
M 10.85 -3.25
Q 10.6626953125 -3.68046875 10.4 -4.1 6.5728515625 -10.8904296875 -2 -10.05 -10.55 -7.85 -11.55 -2.1 -12.15 0.9 -12.25 2.45 -12.25 2.7 -12.25 2.9 -12.25 2.95 -12.2 3 -11.75 3.45 -11.2 3.9 -7.1 7.45 -0.7 6.65 6.25 5.3 10.85 0.1 11.1203125 -0.126171875 11.35 -0.35
L 11.3 -0.35
Q 11.4 -0.45 11.45 -0.5 11.7 -0.7 11.85 -0.9
L 11.8 -0.95 11.8 -1
Q 11.7 -1.15 11.7 -1.25 11.598046875 -1.535546875 11.5 -1.8 11.807421875 -1.9818359375 11.8 -2.1 11.7841796875 -2.11328125 11.75 -2.15 11.721484375 -2.1623046875 11.65 -2.2 11.578125 -2.196875 11.4 -2.2 11.400390625 -2.16875 11.4 -2.15
L 11.35 -2.2
Q 11.1216796875 -2.748046875 10.85 -3.25
M 10.65 -4.6
Q 10.926953125 -4.01875 11.15 -3.45 11.16171875 -3.5326171875 11.15 -3.65 11.011328125 -5.0697265625 10.65 -4.6 Z"/>

<path fill="#E4ECE8" stroke="none" d="
M 11.15 -3.45
Q 10.926953125 -4.01875 10.65 -4.6 6.708203125 -12.5578125 -3.05 -11.65 -12.05 -9.45 -13.15 -3.7 -13.75 -0.7 -13.85 0.85 -13.2 1.9 -12.4 2.75 -12.35 2.8 -12.25 2.9 -12.25 2.7 -12.25 2.45 -12.15 0.9 -11.55 -2.1 -10.55 -7.85 -2 -10.05 6.5728515625 -10.8904296875 10.4 -4.1 10.6626953125 -3.68046875 10.85 -3.25 11.1216796875 -2.748046875 11.35 -2.2
L 11.4 -2.2
Q 11.578125 -2.196875 11.65 -2.2 11.721484375 -2.1623046875 11.75 -2.15
L 11.7 -2.2 11.55 -2.5 11.5 -2.55 11.5 -2.6
Q 11.4 -2.75 11.4 -2.85 11.2900390625 -3.14140625 11.15 -3.45 Z"/>
</g>

<g id="Duplicate_Items_Folder_eye_copy_6_0_Layer0_0_FILL">
<path fill="#8A00E6" stroke="none" d="
M 3.15 -0.6
Q 4.7 -2.45 4.4 -4.7 4.05 -7 2.05 -8.4 0.1 -9.75 -2.35 -9.4 -4.8 -9.05 -6.35 -7.2 -7.85 -5.3 -7.55 -3.05 -7.2 -0.75 -5.25 0.6 -3.25 2 -0.8 1.65 1.65 1.3 3.15 -0.6
M 1.55 -5.15
Q 1.7 -3.9 0.85 -2.85 0 -1.8 -1.35 -1.6 -2.7 -1.45 -3.8 -2.2 -4.9 -2.95 -5.1 -4.25 -5.25 -5.45 -4.45 -6.55 -3.55 -7.55 -2.2 -7.75 -0.85 -7.95 0.25 -7.2 1.35 -6.4 1.55 -5.15 Z"/>

<path fill="#000000" stroke="none" d="
M 0.85 -2.85
Q 1.7 -3.9 1.55 -5.15 1.35 -6.4 0.25 -7.2 -0.85 -7.95 -2.2 -7.75 -3.55 -7.55 -4.45 -6.55 -5.25 -5.45 -5.1 -4.25 -4.9 -2.95 -3.8 -2.2 -2.7 -1.45 -1.35 -1.6 0 -1.8 0.85 -2.85
M -3.1 -6.5
Q -2.7 -6.55 -2.4 -6.35 -2.05 -6.1 -2 -5.7 -1.95 -5.35 -2.2 -5.05 -2.45 -4.7 -2.85 -4.65 -3.25 -4.6 -3.55 -4.85 -3.85 -5.05 -3.9 -5.45 -3.95 -5.8 -3.75 -6.15 -3.5 -6.45 -3.1 -6.5 Z"/>

<path fill="#FFFFFF" stroke="none" d="
M -2.4 -6.35
Q -2.7 -6.55 -3.1 -6.5 -3.5 -6.45 -3.75 -6.15 -3.95 -5.8 -3.9 -5.45 -3.85 -5.05 -3.55 -4.85 -3.25 -4.6 -2.85 -4.65 -2.45 -4.7 -2.2 -5.05 -1.95 -5.35 -2 -5.7 -2.05 -6.1 -2.4 -6.35 Z"/>
</g>

<g id="Duplicate_Items_Folder_head_copy_38_0_Layer1_0_FILL">
<path fill="#000000" stroke="none" d="
M -1.95 -41.7
Q -2.15 -42.35 -2.25 -42.35 -2.4 -42.3 -2.85 -41.9 -3.25 -41.4 -3.8 -40.65 -4.25 -39.9 -4.45 -39.15 -4.6 -38.45 -3.4 -38.5 -2.25 -38.55 -2.05 -38.75 -1.9 -39 -1.8 -40 -1.8 -41 -1.95 -41.7
M 0.8 -40.35
Q 0.35 -41.15 0 -41.65 -0.35 -42.2 -0.45 -42.25 -0.6 -42.25 -0.85 -41.65 -1.15 -41 -1.15 -39.95 -1.2 -38.95 -1.05 -38.75 -0.95 -38.5 0.2 -38.35 1.4 -38.1 1.3 -38.8 1.2 -39.5 0.8 -40.35 Z"/>

<path fill="#8CA18F" stroke="none" d="
M -7.8 -47.1
Q -6.24453125 -46.8044921875 -6.2 -46.8 -4.3 -46.85 -4.85 -48.6 -5.45 -50.35 -7.75 -49.9 -10.05 -49.45 -10.85 -48.95 -11.55 -48.45 -14.05 -46.55 -16.55 -44.7 -15.7 -42.5 -14.85 -40.25 -13.75 -41.15 -13.55546875 -41.3455078125 -13.5 -43.15 -13.43359375 -44.9134765625 -11.4 -46.15 -9.31640625 -47.3865234375 -7.8 -47.1
M -8.55 -48.95
Q -6.9 -49.7 -6.55 -49.15 -6.3 -48.55 -7.65 -48.1 -7.7 -48.1 -8.45 -47.95 -9.25 -47.8 -10.9 -46.9 -12.5 -45.95 -13.45 -45.1 -14.4 -44.3 -14.45 -43.8 -14.5 -43.25 -14.85 -43.9 -15.25 -44.55 -13.35 -45.95 -11.45 -47.35 -10.85 -47.75 -10.25 -48.15 -8.55 -48.95
M 10.1 -45.75
Q 7.25 -47.55 6.45 -48 5.65 -48.4 3.3 -48.65 1.05 -48.85 0.55 -47.05 0.15 -45.25 2.05 -45.4 2.0951171875 -45.3939453125 3.2 -45.8 4.3142578125 -46.1685546875 6.55 -45.3 8.785546875 -44.381640625 9.3 -42.55 9.8546875 -40.70625 10.1 -40.5 11.65 -39.6 12.3 -41.8 13 -44 10.1 -45.75
M 11.7 -42.85
Q 11.3 -42.3 10.25 -43.3
L 9.75 -43.95
Q 9.3 -44.6 7.7 -45.6 6.1 -46.6 4.95 -47.05 3.8 -47.55 3.3 -47.3 2.8 -47.15 3.2 -47.8 3.6 -48.45 5.75 -47.4 7.9 -46.3 8.5 -46 9.1 -45.65 10.6 -44.5 12.05 -43.35 11.7 -42.85 Z"/>

<path fill="#D4F0D8" stroke="none" d="
M -6.55 -49.15
Q -6.9 -49.7 -8.55 -48.95 -10.25 -48.15 -10.85 -47.75 -11.45 -47.35 -13.35 -45.95 -15.25 -44.55 -14.85 -43.9 -14.5 -43.25 -14.45 -43.8 -14.4 -44.3 -13.45 -45.1 -12.5 -45.95 -10.9 -46.9 -9.25 -47.8 -8.45 -47.95 -7.7 -48.1 -7.65 -48.1 -6.3 -48.55 -6.55 -49.15
M 10.25 -43.3
Q 11.3 -42.3 11.7 -42.85 12.05 -43.35 10.6 -44.5 9.1 -45.65 8.5 -46 7.9 -46.3 5.75 -47.4 3.6 -48.45 3.2 -47.8 2.8 -47.15 3.3 -47.3 3.8 -47.55 4.95 -47.05 6.1 -46.6 7.7 -45.6 9.3 -44.6 9.75 -43.95
L 10.25 -43.3 Z"/>
</g>

<path id="Duplicate_Items_Folder_leg_suit_copy_15_0_Layer1_0_1_STROKES" stroke="#000000" stroke-width="0.5" stroke-linejoin="round" stroke-linecap="round" fill="none" d="
M 17.15 -26.9
Q 17.1 -11.75 15 3.2
M 21.35 -22.9
Q 19.8 -5.7 20.7 3.75
M 12.65 -26.05
Q 9.9 -11.95 9.5 3.1
M 3.55 3.25
Q 5.55 -14 6.1 -26.8"/>

<path id="Duplicate_Items_Folder_arm_suit_copy_22_0_Layer0_0_1_STROKES" stroke="#000000" stroke-width="2" stroke-linejoin="round" stroke-linecap="round" fill="none" d="
M 9.1 -7.65
Q 0.4 9.4 -9.05 16.7 0.1 20.8 6.15 21.2
L 17.9 -8.7 41.85 -40.9
Q 43.35 -47.6 41.95 -51.1 30.6 -52.4 28.25 -51.05 25.65 -49.9 21.1 -37.65 14.95 -19.55 9.1 -7.65 Z"/>

<path id="Duplicate_Items_Folder_head_copy_38_0_Layer6_0_1_STROKES" stroke="#000000" stroke-width="0.5" stroke-linejoin="round" stroke-linecap="round" fill="none" d="
M 1.3 -18.65
L 1.55 -20.3
Q -0.15 -18.8 -2.45 -19.35 -6.15 -19.25 -6.35 -20.1
L -6.35 -19.05
Q -5.1 -18 -3.45 -17.25 -2.9 -17 -2.25 -16.75 -1.9 -16.8 -1.5 -16.85 -0.25 -17.2 0.9 -18.25 1.1 -18.45 1.3 -18.65
L 1.25 -18.1 2.55 -18.25 2.8 -14.9 3.75 -12.9 2.15 -9.15 -0.55 -13.5 -1.45 -13 -1.15 -8.55 -2.15 -6.45 -3.85 -9.15 -3.6 -12.35 -5.95 -8.85 -8.65 -13.15 -7.55 -14.65 -7.3 -18.05 -6.4 -17.8 -6.35 -18.7 -6.35 -19.05
M -0.55 -13.5
L 0.75 -14.2 1 -16.15 0.15 -15.8 -1.05 -15.35 -1.05 -15.25
Q -0.9 -14.55 -1.4 -13.85
L -1.5 -13.85 -1.45 -13
M 0.9 -18.25
L 0.15 -15.8 -1.5 -16.85
M 1 -16.15
L 1.25 -18.1
M -6.4 -16.8
L -6.45 -15.5 -3.6 -12.95 -3.65 -13.9 -3.7 -13.9
Q -4.3 -14.6 -3.95 -15.35
L -4 -15.35 -6.4 -16.8 -6.4 -17.8
M -1.05 -15.35
L -1.3 -15.3
Q -2.6 -16 -3.95 -15.35
M -1.5 -13.85
Q -2.55 -12.8 -3.65 -13.9
M -6.35 -18.7
L -5.2 -16.45 -3.45 -17.25
M -3.6 -12.95
L -3.6 -12.35"/>

<path id="Duplicate_Items_Folder_head_copy_38_0_Layer5_0_1_STROKES" stroke="#000000" stroke-width="0.5" stroke-linejoin="round" stroke-linecap="round" fill="none" d="
M 12.35 -37.45
L 12.65 -37.85
Q 13.1 -38.35 13.5 -38.65 14.85 -39.7 15.9 -39 17.55 -37.9 18.2 -36.9 19.1 -35.5 18.65 -34 18.2 -32.5 17 -31.65
L 15.95 -31
Q 16.15 -30.15 15.55 -29.85 14.9 -29.45 14.7 -29.65 14.1 -29.55 13.45 -29.55 12.1 -29.6 11.55 -30.15 11.05 -30.7 11.6 -34.15 12.15 -37.45 12.35 -37.45 Z
M 17 -35.6
Q 16.05 -37.15 14.75 -36.1 16.3 -35.5 16.5 -34.6 16.5 -34.4 16.45 -34.15
M -16.3 -38.85
L -16.75 -39.1
Q -17.3 -39.5 -17.8 -39.7 -19.35 -40.35 -20.15 -39.35 -21.45 -37.85 -21.8 -36.7 -22.35 -35.15 -21.45 -33.75 -20.6 -32.5 -19.2 -31.95
L -18.05 -31.7
Q -18 -30.75 -17.3 -30.65 -16.6 -30.45 -16.45 -30.7 -15.85 -30.75 -15.2 -30.95 -13.85 -31.35 -13.55 -32 -13.25 -32.7 -14.7 -35.85 -16.1 -38.9 -16.3 -38.85 Z
M -20.35 -35.75
Q -19.8 -37.5 -18.2 -36.9 -19.55 -35.85 -19.5 -34.95 -19.5 -34.8 -19.4 -34.55"/>

<path id="Duplicate_Items_Folder_head_copy_38_0_Layer4_0_1_STROKES" stroke="#000000" stroke-width="0.5" stroke-linejoin="round" stroke-linecap="round" fill="none" d="
M -16.55 -29.75
Q -18 -29.85 -18.35 -31.35 -18.65 -32.85 -18.25 -34.7 -17.85 -36.6 -17.2 -37.95 -16.8 -38.75 -15.25 -41.2 -15.15 -42.75 -14.65 -44.8 -13.65 -48.75 -11.75 -50.5 -9.7 -52.45 -6.6 -53.55 -3.95 -54.5 -2 -54.4 0.15 -54.25 2.9 -53.4 6.15 -52.35 7.45 -50.95 10.35 -49.9 11.45 -45.4 12.5 -40.8 12.25 -39.45 12.8 -38.4 13.5 -37.15 14.85 -34.75 14.75 -32.3 14.65 -29.95 12.9 -29.15
L 12.9 -29.1
Q 12.65 -27.6 12.15 -26 11.65 -24.35 10 -21.8 8.35 -19.25 4.05 -19.25
L 2.65 -19.65
Q 1.4 -19.15 -0.35 -18.85 -3.95 -18.55 -5.75 -19.45 -7.6 -20.45 -8.4 -21.55 -14.3 -22.3 -15.3 -25.65 -16.05 -27.9 -16.55 -29.75 -14.9 -29.7 -13.65 -27.55
M 12.3 -36.9
Q 12.3 -36.55 12.05 -36.35 11.8 -36.15 11.55 -36.15 11.25 -36.2 11.05 -36.4 10.85 -36.65 10.8 -37 10.85 -37.3 11.05 -37.5 11.3 -37.7 11.55 -37.65 11.85 -37.65 12.05 -37.45 12.35 -37.25 12.3 -36.9 Z
M 8.2 -28.8
Q 8.25 -28.4 8.35 -27.95 9.2 -23.55 6.4 -22.5 3.65 -21.55 3.35 -21.85 2.55 -21.9 1.9 -22.6 1.3 -23.3 -0.05 -24.4 -1.35 -25.55 -2.6 -25.75 -3.85 -26 -5.2 -25.05 -6.6 -24.1 -6.75 -23.7 -8.3 -23.25 -9.5 -24.25 -11.05 -25.5 -11.25 -27.3 -11.35 -28.5 -10.45 -31 -9.5 -33.55 -5.7 -35.55 -1.9 -37.6 0.25 -37.45 2.35 -37.35 4.9 -34.9 7.2 -32.6 8.2 -28.8 4.95 -33.8 -0.05 -34.15 -6.5 -35 -11.25 -27.3
M 12.9 -29.15
Q 10.7 -28.6 10.15 -26.4
M 1 -20.9
Q 1.9 -19.9 2.65 -19.65
M -14.2 -36.9
Q -14.2 -36.5 -14.45 -36.3 -14.65 -36.05 -14.95 -36.05 -15.25 -36.05 -15.45 -36.35 -15.65 -36.65 -15.65 -37 -15.6 -37.4 -15.4 -37.65 -15.15 -37.9 -14.9 -37.9 -14.6 -37.9 -14.4 -37.6 -14.2 -37.3 -14.2 -36.9 Z
M -14.95 -34.6
Q -14.95 -34.4 -15.1 -34.25 -15.25 -34.05 -15.45 -34.1 -15.7 -34.1 -15.85 -34.3 -15.9 -34.45 -15.9 -34.65 -15.95 -34.9 -15.75 -35.05 -15.65 -35.2 -15.45 -35.15 -15.2 -35.15 -15.1 -35 -14.95 -34.8 -14.95 -34.6 Z
M -12.9 -35.05
Q -12.95 -34.75 -13.1 -34.6 -13.2 -34.45 -13.45 -34.45 -13.7 -34.5 -13.8 -34.65 -13.95 -34.85 -13.9 -35.1 -13.9 -35.35 -13.8 -35.5 -13.65 -35.7 -13.4 -35.65 -13.2 -35.65 -13.05 -35.5 -12.9 -35.3 -12.9 -35.05 Z
M -8.4 -21.55
Q -7.9 -21.45 -6.35 -22"/>

<path id="Duplicate_Items_Folder_head_copy_38_0_Layer3_0_1_STROKES" stroke="#000000" stroke-width="0.5" stroke-linejoin="round" stroke-linecap="round" fill="none" d="
M 0.95 -35.15
L 2.95 -34.55 3.2 -31.6
Q 1.3 -31.15 -0.35 -32.3
L 0.95 -35.15 Z
M -5.9 -33.9
L -4.1 -34.35 -2.3 -32
Q -3.4 -30.8 -5.25 -30.9
L -5.9 -33.9 Z
M -1.3 -25.1
L -3.05 -25.5 -3.3 -27.85
Q -1.65 -28.25 -0.15 -27.4
L -1.3 -25.1 Z"/>

<path id="Duplicate_Items_Folder_eye_copy_6_0_Layer1_0_1_STROKES" stroke="#000000" stroke-width="1" stroke-linejoin="round" stroke-linecap="round" fill="none" d="
M 11.175 -3.425
Q 10.926953125 -4.01875 10.65 -4.575 6.708203125 -12.5578125 -3.05 -11.65 -12.05 -9.45 -13.15 -3.7 -13.75 -0.7 -13.85 0.85
M 11.75 -2.15
L 11.7 -2.2 11.575 -2.475 11.5 -2.55 11.5 -2.6
Q 11.4 -2.75 11.4 -2.85 11.2900390625 -3.14140625 11.175 -3.425
M 11.75 -2.15
Q 11.7841796875 -2.11328125 11.825 -2.075 12.2556640625 -1.530859375 11.85 -0.9
M 11.575 -2.475
Q 11.6208984375 -2.3791015625 11.7 -2.3
L 11.7 -2.2
M 11.35 -0.35
L 11.3 -0.35
Q 11.4 -0.45 11.45 -0.5 11.7 -0.7 11.85 -0.9
M 11.45 -0.5
L 11.45 -0.35 11.35 -0.35
M 10.85 0.1
Q 7.05 5.1 3.5 7.25 1.7 8.35 -0.55 8.8 -6.75 9.55 -10.7 6.1 -12.4 4.65 -13.65 2.45 -13.95 2.2 -13.85 0.85"/>

<path id="Duplicate_Items_Folder_eye_copy_6_0_Layer0_0_1_STROKES" stroke="#000000" stroke-width="1" stroke-linejoin="round" stroke-linecap="round" fill="none" d="
M -6.35 -7.2
Q -4.8 -9.05 -2.35 -9.4 0.1 -9.75 2.05 -8.4 4.05 -7 4.4 -4.7 4.7 -2.45 3.15 -0.6 1.65 1.3 -0.8 1.65 -3.25 2 -5.25 0.6 -7.2 -0.75 -7.55 -3.05 -7.85 -5.3 -6.35 -7.2 Z"/>

<path id="Duplicate_Items_Folder_head_copy_38_0_Layer1_0_1_STROKES" stroke="#000000" stroke-width="0.5" stroke-linejoin="round" stroke-linecap="round" fill="none" d="
M 10.1 -40.5
Q 11.65 -39.6 12.3 -41.8 13 -44 10.1 -45.75 7.25 -47.55 6.45 -48 5.65 -48.4 3.3 -48.65 1.05 -48.85 0.55 -47.05 0.15 -45.25 2.05 -45.4 2.0951171875 -45.3939453125 3.2 -45.775 4.3142578125 -46.1685546875 6.55 -45.275 8.785546875 -44.381640625 9.325 -42.55 9.8546875 -40.70625 10.1 -40.5 Z
M -13.75 -41.15
Q -14.85 -40.25 -15.7 -42.5 -16.55 -44.7 -14.05 -46.55 -11.55 -48.45 -10.85 -48.95 -10.05 -49.45 -7.75 -49.9 -5.45 -50.35 -4.85 -48.6 -4.3 -46.85 -6.2 -46.8 -6.24453125 -46.8044921875 -7.775 -47.1 -9.31640625 -47.3865234375 -11.375 -46.15 -13.43359375 -44.9134765625 -13.5 -43.125 -13.55546875 -41.3455078125 -13.75 -41.15 Z"/>

<path id="Duplicate_Items_Folder_head_copy_38_0_Layer0_0_1_STROKES" stroke="#000000" stroke-width="0.5" stroke-linejoin="round" stroke-linecap="round" fill="none" d="
M 4.35 -54.35
L 2.95 -52.7 3 -54.5
M 10.45 -46.65
L 11.95 -47.15
M 9.55 -48
L 12.2 -48.35
M -11.45 -52.2
L -10.3 -50.85
M -10.85 -50.3
L -12.9 -50.85
M -8.3 -54.2
L -7.15 -52.15"/>
</defs>

<g transform="matrix( 5.21405029296875, 0, 0, 5.21405029296875, 94.55,541.6) ">
<g transform="matrix( 0.37261962890625, 0.0263519287109375, -0.0263519287109375, 0.37261962890625, 25.6,-12.7) ">
<g transform="matrix( 1, 0, 0, 1, 0,0) ">
<use xlink:href="#Duplicate_Items_Folder_leg_suit_copy_15_0_Layer1_0_FILL"/>

<use xlink:href="#Duplicate_Items_Folder_leg_suit_copy_15_0_Layer1_0_1_STROKES"/>
</g>

<g transform="matrix( 0.959228515625, -0.119903564453125, 0.10028076171875, 1.1468963623046875, 12.65,14.2) ">
<g transform="matrix( 1, 0, 0, 1, 0,0) ">
<use xlink:href="#Duplicate_Items_Folder_right_shoe_copy_11_0_Layer1_0_FILL"/>
</g>

<g transform="matrix( 1, 0, 0, 1, 0,0) ">
<use xlink:href="#Duplicate_Items_Folder_right_shoe_copy_11_0_Layer0_0_FILL"/>
</g>
</g>
</g>

<g transform="matrix( 0.33544921875, -0.13421630859375, 0.13421630859375, 0.33544921875, 20.85,-31.75) ">
<g transform="matrix( 1, 0, 0, 1, 0,0) ">
<use xlink:href="#Duplicate_Items_Folder_arm_suit_copy_22_0_Layer1_0_FILL"/>
</g>

<g transform="matrix( 1, 0, 0, 1, 0,0) ">
<use xlink:href="#Duplicate_Items_Folder_arm_suit_copy_22_0_Layer0_0_FILL"/>

<use xlink:href="#Duplicate_Items_Folder_arm_suit_copy_22_0_Layer0_0_1_STROKES"/>
</g>
</g>

<g transform="matrix( -0.400115966796875, 0.0260772705078125, 0.0260772705078125, 0.400115966796875, 47.1,-13.05) ">
<g transform="matrix( 1, 0, 0, 1, 0,0) ">
<use xlink:href="#Duplicate_Items_Folder_leg_suit_copy_15_0_Layer1_0_FILL"/>

<use xlink:href="#Duplicate_Items_Folder_leg_suit_copy_15_0_Layer1_0_1_STROKES"/>
</g>

<g transform="matrix( 0.959228515625, -0.119903564453125, 0.10028076171875, 1.1468963623046875, 12.65,14.2) ">
<g transform="matrix( 1, 0, 0, 1, 0,0) ">
<use xlink:href="#Duplicate_Items_Folder_right_shoe_copy_11_0_Layer1_0_FILL"/>
</g>

<g transform="matrix( 1, 0, 0, 1, 0,0) ">
<use xlink:href="#Duplicate_Items_Folder_right_shoe_copy_11_0_Layer0_0_FILL"/>
</g>
</g>
</g>

<g transform="matrix( 0.40118408203125, -0.0167236328125, 0.01177978515625, 0.40069580078125, 36.65,-37.9) ">
<g transform="matrix( 1, 0, 0, 1, 0,0) ">
<use xlink:href="#Duplicate_Items_Folder_body_suit_copy_20_0_Layer2_0_FILL"/>
</g>

<g transform="matrix( 1, 0, 0, 1, 0,0) ">
<use xlink:href="#Duplicate_Items_Folder_body_suit_copy_20_0_Layer1_0_FILL"/>
</g>
</g>

<g transform="matrix( 1.1572265625, 0, 0, 1.1572265625, 38.7,-38.9) ">
<g transform="matrix( 1, 0, 0, 1, 0,0) ">
<use xlink:href="#Duplicate_Items_Folder_head_copy_38_0_Layer6_0_FILL"/>

<use xlink:href="#Duplicate_Items_Folder_head_copy_38_0_Layer6_0_1_STROKES"/>
</g>

<g transform="matrix( 1, 0, 0, 1, 0,0) ">
<use xlink:href="#Duplicate_Items_Folder_head_copy_38_0_Layer5_0_FILL"/>

<use xlink:href="#Duplicate_Items_Folder_head_copy_38_0_Layer5_0_1_STROKES"/>
</g>

<g transform="matrix( 1, 0, 0, 1, 0,0) ">
<use xlink:href="#Duplicate_Items_Folder_head_copy_38_0_Layer4_0_FILL"/>

<use xlink:href="#Duplicate_Items_Folder_head_copy_38_0_Layer4_0_1_STROKES"/>
</g>

<g transform="matrix( 1, 0, 0, 1, 0,0) ">
<use xlink:href="#Duplicate_Items_Folder_head_copy_38_0_Layer3_0_FILL"/>

<use xlink:href="#Duplicate_Items_Folder_head_copy_38_0_Layer3_0_1_STROKES"/>
</g>

<g transform="matrix( -0.32513427734375, -0.171600341796875, -0.1792449951171875, 0.32086181640625, 5.1,-42.85) ">
<g transform="matrix( 1, 0, 0, 1, 0,0) ">
<use xlink:href="#Duplicate_Items_Folder_eye_copy_6_0_Layer1_0_FILL"/>

<use xlink:href="#Duplicate_Items_Folder_eye_copy_6_0_Layer1_0_1_STROKES"/>
</g>

<g transform="matrix( 1, 0, 0, 1, 0,0) ">
<use xlink:href="#Duplicate_Items_Folder_eye_copy_6_0_Layer0_0_FILL"/>

<use xlink:href="#Duplicate_Items_Folder_eye_copy_6_0_Layer0_0_1_STROKES"/>
</g>
</g>

<g transform="matrix( 0.32513427734375, -0.171600341796875, 0.1792449951171875, 0.32086181640625, -8.75,-44) ">
<g transform="matrix( 1, 0, 0, 1, 0,0) ">
<use xlink:href="#Duplicate_Items_Folder_eye_copy_6_0_Layer1_0_FILL"/>

<use xlink:href="#Duplicate_Items_Folder_eye_copy_6_0_Layer1_0_1_STROKES"/>
</g>

<g transform="matrix( 1, 0, 0, 1, 0,0) ">
<use xlink:href="#Duplicate_Items_Folder_eye_copy_6_0_Layer0_0_FILL"/>

<use xlink:href="#Duplicate_Items_Folder_eye_copy_6_0_Layer0_0_1_STROKES"/>
</g>
</g>

<g transform="matrix( 1, 0, 0, 1, 0,0) ">
<use xlink:href="#Duplicate_Items_Folder_head_copy_38_0_Layer1_0_FILL"/>

<use xlink:href="#Duplicate_Items_Folder_head_copy_38_0_Layer1_0_1_STROKES"/>
</g>

<g transform="matrix( 1, 0, 0, 1, 0,0) ">
<use xlink:href="#Duplicate_Items_Folder_head_copy_38_0_Layer0_0_1_STROKES"/>
</g>
</g>

<g transform="matrix( -0.34100341796875, -0.119537353515625, -0.119537353515625, 0.34100341796875, 52.55,-32.3) ">
<g transform="matrix( 1, 0, 0, 1, 0,0) ">
<use xlink:href="#Duplicate_Items_Folder_arm_suit_copy_22_0_Layer1_0_FILL"/>
</g>

<g transform="matrix( 1, 0, 0, 1, 0,0) ">
<use xlink:href="#Duplicate_Items_Folder_arm_suit_copy_22_0_Layer0_0_FILL"/>

<use xlink:href="#Duplicate_Items_Folder_arm_suit_copy_22_0_Layer0_0_1_STROKES"/>
</g>
</g>
</g>
</svg>
