
<svg xmlns="http://www.w3.org/2000/svg" version="1.1" xmlns:xlink="http://www.w3.org/1999/xlink" preserveAspectRatio="none" x="0px" y="0px" width="560px" height="544px" viewBox="0 0 560 544">
<defs>
<g id="miracle_tree_full_0_Layer3_0_FILL">
<path fill="#000000" stroke="none" d="
M -9.2 -71.65
Q -38.4 -51.25 -8.35 -14.4 -3.85 -3.5 -13.8 3.45 -18.55 6.95 -19.05 8.7 0.268359375 14.741796875 23.05 8.7 8.6 -20.9 -10.55 -36.9 -25.15 -53.85 -9.2 -71.65 Z"/>
</g>

<g id="miracle_tree_full_0_Layer2_0_FILL">
<path fill="#000000" stroke="none" d="
M -42.4 -34.5
L -40.8 -34.75
Q -38.9 -38.6 -38.55 -41.6 -34.75 -43.7 -28.8 -41.9
L -29.1 -34.6 -27.95 -34.35
Q -27.85 -38.9 -27.5 -42.45 -22.45 -43.6 -19.35 -41.55
L -18.9 -43.95
Q -23.05 -45.75 -28.05 -44.2 -31.75 -46.45 -33.45 -47.55 -35.25 -48.65 -35.5 -48.5 -35.8 -48.4 -35.95 -48.3
L -35.9 -47.4 -30 -44.15
Q -36 -45.5 -40.05 -43.25 -41.45 -43.9 -43.25 -45.1
L -49.8 -47.1 -50.35 -47.15 -41.95 -42.8 -51.5 -38.25 -52 -34.55
Q -49.35 -38.7 -41.1 -40.7
L -42.4 -34.5
M 23.05 -43.1
L 22.45 -42.8 15.9 -37.9
Q 14.4 -36.05 13.15 -34.75 7.1 -34.7 0.8 -30.7
L 6 -36.3 5.55 -37.05
Q 5.3 -37.1 4.9 -37.05 4.5 -37 3.05 -35.25 1.65 -33.5 -1.45 -29.8 -8.2 -28.7 -12.05 -25.2
L -10.25 -23.35
Q -7.7 -26.65 -1.15 -28.05 1.25 -25.2 3.7 -21.4
L 4.95 -22.15 0.65 -28.25
Q 6.65 -32.65 12.2 -32.6 14.25 -30.3 18.5 -27.95
L 20.55 -28.45 15.75 -33.15
Q 26.45 -35.4 31.75 -33.15
L 29.2 -36.1 15.55 -35.3 23.05 -43.1
M 8.05 -64.75
Q 7.6 -64.95 5.1 -64.25 2.6 -63.55 -2.75 -62.1 -10 -64.75 -16.05 -63.9
L -15.35 -61.35
Q -10.85 -62.75 -3.55 -60.45 -2.95 -56.8 -2.85 -52.25
L -1.15 -52.25 -1.65 -59.65
Q 7 -60.15 12.45 -57.15 13 -54.1 15.75 -49.8
L 18.1 -49.2 16.25 -55.7
Q 28.2 -51.85 32 -47.1
L 31.25 -50.95 17.4 -57.65 29.55 -60.15 28.8 -60.2 19.3 -59.6
Q 16.7 -58.85 14.65 -58.5 8.75 -61.65 0.1 -61.6
L 8.6 -63.55 8.65 -64.45
Q 8.45 -64.6 8.05 -64.75 Z"/>
</g>

<g id="blossom_copy_0_Layer1_0_FILL">
<path fill="#000099" stroke="none" d="
M 4.15 1.2
Q 4.15 0.65 3.8 0.3 3.45 -0.05 2.95 0 2.45 0.05 2.3 0.6 2.15 1.1 2 1 1.85 0.95 1.45 0.8 1 0.65 0.6 1.05 0.25 1.5 0.25 2.05 0.25 2.25 0.55 2.5 0.8 2.7 0.4 2.85 0 3 0 3.55 -0.05 4.1 0.3 4.45 0.7 4.85 1.2 4.8
L 1.25 4.8
Q 1.3 5.3 1.6 5.6 2 6 2.5 5.95 3 5.9 3.35 5.45 3.7 5 3.65 4.4 3.9 4.5 4.15 4.45 4.65 4.4 5 3.95 5.35 3.5 5.3 2.9 5.3 2.35 4.95 2 4.6 1.65 4.15 1.7 4.15 1.45 4.15 1.2
M 3.6 2.1
Q 3.6560546875 2.0689453125 3.7 2.05 3.758203125 2.08203125 3.8 2.1 3.8310546875 2.1560546875 3.8 2.2 3.81796875 2.2580078125 3.75 2.3
L 3.35 2.65 3.4 2.7
Q 3.5 2.85 3.5 3.05 3.55 3.25 3.4 3.45 3.2873046875 3.5626953125 3.15 3.6
L 3.4 3.85
Q 3.467578125 3.89140625 3.45 3.95 3.48125 3.99375 3.45 4 3.4087890625 4.0677734375 3.35 4.05 3.3064453125 4.08125 3.25 4.05
L 2.9 3.7
Q 2.879296875 3.880859375 2.8 4 2.65 4.15 2.45 4.2 2.25 4.2 2.1 4.05 2.0501953125 4.0001953125 2 3.95
L 1.65 4.25
Q 1.6302734375 4.2814453125 1.55 4.25 1.528125 4.2673828125 1.5 4.2 1.4685546875 4.18046875 1.45 4.1 1.4828125 4.078125 1.5 4.05
L 1.85 3.75
Q 1.7478515625 3.7478515625 1.65 3.65 1.5 3.5 1.5 3.3 1.5 3.1650390625 1.55 3.05
L 1.3 2.95
Q 1.2486328125 2.951171875 1.2 2.9 1.205078125 2.85 1.2 2.8 1.2486328125 2.7484375 1.3 2.7 1.3498046875 2.705078125 1.4 2.7
L 1.65 2.8
Q 1.6 2.75859375 1.6 2.7 1.6 2.5 1.75 2.35 1.9 2.2 2.05 2.25 2.1455078125 2.2818359375 2.2 2.3
L 2.05 1.85
Q 2.0677734375 1.83515625 2.1 1.8 2.1251953125 1.7470703125 2.15 1.7 2.21484375 1.7177734375 2.25 1.75 2.3029296875 1.7751953125 2.3 1.8
L 2.4 2.1
Q 2.4767578125 1.95 2.65 1.95 2.8 1.95 2.95 2.05 3.1 2.2 3.1 2.4 3.1 2.5 3.1 2.6
L 3.1 2.6 3.6 2.1 Z"/>

<path fill="#00FFFF" stroke="none" d="
M 3.7 2.05
Q 3.6560546875 2.0689453125 3.6 2.1
L 3.1 2.6 3.1 2.6
Q 3.1 2.5 3.1 2.4 3.1 2.2 2.95 2.05 2.8 1.95 2.65 1.95 2.4767578125 1.95 2.4 2.1
L 2.3 1.8
Q 2.3029296875 1.7751953125 2.25 1.75 2.21484375 1.7177734375 2.15 1.7 2.1251953125 1.7470703125 2.1 1.8 2.0677734375 1.83515625 2.05 1.85
L 2.2 2.3
Q 2.1455078125 2.2818359375 2.05 2.25 1.9 2.2 1.75 2.35 1.6 2.5 1.6 2.7 1.6 2.75859375 1.65 2.8
L 1.4 2.7
Q 1.3498046875 2.705078125 1.3 2.7 1.2486328125 2.7484375 1.2 2.8 1.205078125 2.85 1.2 2.9 1.2486328125 2.951171875 1.3 2.95
L 1.55 3.05
Q 1.5 3.1650390625 1.5 3.3 1.5 3.5 1.65 3.65 1.7478515625 3.7478515625 1.85 3.75
L 1.5 4.05
Q 1.4828125 4.078125 1.45 4.1 1.4685546875 4.18046875 1.5 4.2 1.528125 4.2673828125 1.55 4.25 1.6302734375 4.2814453125 1.65 4.25
L 2 3.95
Q 2.0501953125 4.0001953125 2.1 4.05 2.25 4.2 2.45 4.2 2.65 4.15 2.8 4 2.879296875 3.880859375 2.9 3.7
L 3.25 4.05
Q 3.3064453125 4.08125 3.35 4.05 3.4087890625 4.0677734375 3.45 4 3.48125 3.99375 3.45 3.95 3.467578125 3.89140625 3.4 3.85
L 3.15 3.6
Q 3.2873046875 3.5626953125 3.4 3.45 3.55 3.25 3.5 3.05 3.5 2.85 3.4 2.7
L 3.35 2.65 3.75 2.3
Q 3.81796875 2.2580078125 3.8 2.2 3.8310546875 2.1560546875 3.8 2.1 3.758203125 2.08203125 3.7 2.05 Z"/>
</g>

<g id="blossom_0_Layer0_0_FILL">
<path fill="#0099FF" stroke="none" d="
M 4.15 1.2
Q 4.15 0.65 3.8 0.3 3.45 -0.05 2.95 0 2.45 0.05 2.3 0.6 2.15 1.1 2 1 1.85 0.95 1.45 0.8 1 0.65 0.6 1.05 0.25 1.5 0.25 2.05 0.25 2.25 0.55 2.5 0.8 2.7 0.4 2.85 0 3 0 3.55 -0.05 4.1 0.3 4.45 0.7 4.85 1.2 4.8
L 1.25 4.8
Q 1.3 5.3 1.6 5.6 2 6 2.5 5.95 3 5.9 3.35 5.45 3.7 5 3.65 4.4 3.9 4.5 4.15 4.45 4.65 4.4 5 3.95 5.35 3.5 5.3 2.9 5.3 2.35 4.95 2 4.6 1.65 4.15 1.7 4.15 1.45 4.15 1.2
M 2.95 2.05
Q 3.1 2.2 3.1 2.4 3.1 2.5 3.1 2.6 3.2 2.55 3.3 2.6 3.35 2.65 3.4 2.7 3.5 2.85 3.5 3.05 3.55 3.25 3.4 3.45 3.25 3.6 3.1 3.65 3.05 3.65 3 3.65 2.946875 3.6 2.9 3.6 2.9 3.85 2.8 4 2.65 4.15 2.45 4.2 2.25 4.2 2.1 4.05 2 3.95 2 3.8
L 2 3.75 1.95 3.75
Q 1.8 3.8 1.65 3.65 1.5 3.5 1.5 3.3 1.5 3.1 1.65 3
L 1.75 3
Q 1.8 2.95 1.75 2.9 1.6 2.8 1.6 2.7 1.6 2.5 1.75 2.35 1.9 2.2 2.05 2.25 2.2 2.3 2.25 2.35 2.3 2.35 2.35 2.35 2.35 2.3 2.4 2.2 2.45 1.95 2.65 1.95 2.8 1.95 2.95 2.05 Z"/>

<path fill="#00FFFF" stroke="none" d="
M 3.1 2.4
Q 3.1 2.2 2.95 2.05 2.8 1.95 2.65 1.95 2.45 1.95 2.4 2.2 2.35 2.3 2.35 2.35 2.3 2.35 2.25 2.35 2.2 2.3 2.05 2.25 1.9 2.2 1.75 2.35 1.6 2.5 1.6 2.7 1.6 2.8 1.75 2.9 1.8 2.95 1.75 3
L 1.65 3
Q 1.5 3.1 1.5 3.3 1.5 3.5 1.65 3.65 1.8 3.8 1.95 3.75
L 2 3.75 2 3.8
Q 2 3.95 2.1 4.05 2.25 4.2 2.45 4.2 2.65 4.15 2.8 4 2.9 3.85 2.9 3.6 2.946875 3.6 3 3.65 3.05 3.65 3.1 3.65 3.25 3.6 3.4 3.45 3.55 3.25 3.5 3.05 3.5 2.85 3.4 2.7 3.35 2.65 3.3 2.6 3.2 2.55 3.1 2.6 3.1 2.5 3.1 2.4 Z"/>
</g>

<g id="flames_0_Layer1_0_FILL">
<path fill="#00FFFF" stroke="none" d="
M 5.5 -25.65
Q 5.15 -26.75 7.25 -29.95 8.3 -31.55 9.5 -32.9 6.45 -32 3.85 -30.65 -1.3 -28 0.45 -25.95 1.5 -24.65 4.55 -23.35 5.3 -23.05 6.2 -22.75 10 -21.35 10.55 -19.6 12.55 -16.65 11.95 -15.35 11.4 -14.05 11.05 -13.15 10.65 -12.25 9.65 -11.3 8.7 -10.35 7.6 -7.95 6.95 -6.5 4.9 -6.8 1.75 -7.35 -0.75 -8.2 -3.3 -9.15 -1.1 -10.8 1.05 -12.55 2.1 -14.95 3.25 -17.35 1.3 -18.7 -0.7 -20.05 -3.05 -20.05 -5.45 -20.05 -2.6 -18.05 0.25 -16.1 -1.65 -14.3 -3.55 -12.5 -7.4 -11.15 -11.2 -9.85 -11.05 -7.85 -10.95 -5.85 -8.5 -5 -6.1 -4.1 -4.15 -2.35 -2.35 -0.65 -2.35 0.75 -2.35 0.9 -2.35 1 6.6 8.15 17.15 1 15.25 -0.3 16.95 -0.9 18.6 -1.55 17.05 -5.25 15.5 -8.95 15.5 -10.65 15.5 -12.35 15.85 -12.95 18.55 -17.65 15.7 -20.5 14.2 -21.9 9.75 -23.4 7.75 -24.1 6.7 -24.65 5.65 -25.25 5.5 -25.65 Z"/>
</g>

<g id="flames_0_Layer0_0_FILL">
<path fill="#0066FF" stroke="none" d="
M 6.05 -25.15
Q 7.05 -27.2 4.1 -29.85 2.6 -31.2 0.85 -32.1 1.55 -30.75 2.15 -29.15 3.35 -25.95 3.15 -24.85 3.05 -24.45 2.45 -23.85 1.85 -23.3 0.7 -22.6 -1.85 -21.1 -2.7 -19.7 -4.35 -16.85 -2.8 -12.15 -2.6 -11.55 -2.35 -10.9 -1.5 -8.8 -1.35 -5.95 -1.1 -2.7 -2 -0.6 -2.45 0.5 -3.55 1.8 2.5 8.95 7.65 1.8 7.65 1.7 7.65 1.55 7.65 0.15 8.7 -1.55 9.8 -3.3 11.2 -4.2 12.6 -5.05 12.65 -7.05 12.75 -9.05 10.55 -10.35 8.35 -11.7 7.25 -13.5 6.15 -15.3 7.8 -17.25 9.45 -19.25 8.05 -19.25 6.7 -19.25 5.55 -17.9 4.45 -16.55 5.1 -14.15 5.7 -11.75 6.95 -10 8.2 -8.35 6.75 -7.4 5.3 -6.55 3.5 -6 2.3 -5.7 1.95 -7.15 1.3 -9.55 0.75 -10.5 0.2 -11.45 -0.05 -12.35 -0.25 -13.25 -0.55 -14.55 -0.9 -15.85 0.25 -18.8 0.55 -20.55 2.75 -21.95 3.25 -22.25 3.7 -22.55 5.45 -23.85 6.05 -25.15 Z"/>
</g>

<path id="blossom_copy_0_Layer1_0_1_STROKES" stroke="#0099FF" stroke-width="0.25" stroke-linejoin="round" stroke-linecap="round" fill="none" d="
M 3.8 0.3
Q 3.45 -0.05 2.95 0 2.45 0.05 2.3 0.6 2.15 1.1 2 1 1.85 0.95 1.45 0.8 1 0.65 0.6 1.05 0.25 1.5 0.25 2.05 0.25 2.25 0.55 2.5 0.8 2.7 0.4 2.85 0 3 0 3.55 -0.05 4.1 0.3 4.45 0.7 4.85 1.2 4.8
L 1.25 4.8
Q 1.3 5.3 1.6 5.6 2 6 2.5 5.95 3 5.9 3.35 5.45 3.7 5 3.65 4.4 3.9 4.5 4.15 4.45 4.65 4.4 5 3.95 5.35 3.5 5.3 2.9 5.3 2.35 4.95 2 4.6 1.65 4.15 1.7 4.15 1.45 4.15 1.2 4.15 0.65 3.8 0.3 Z"/>

<path id="blossom_0_Layer0_0_1_STROKES" stroke="#0033FF" stroke-width="0.25" stroke-linejoin="round" stroke-linecap="round" fill="none" d="
M 3.8 0.3
Q 3.45 -0.05 2.95 0 2.45 0.05 2.3 0.6 2.15 1.1 2 1 1.85 0.95 1.45 0.8 1 0.65 0.6 1.05 0.25 1.5 0.25 2.05 0.25 2.25 0.55 2.5 0.8 2.7 0.4 2.85 0 3 0 3.55 -0.05 4.1 0.3 4.45 0.7 4.85 1.2 4.8
L 1.25 4.8
Q 1.3 5.3 1.6 5.6 2 6 2.5 5.95 3 5.9 3.35 5.45 3.7 5 3.65 4.4 3.9 4.5 4.15 4.45 4.65 4.4 5 3.95 5.35 3.5 5.3 2.9 5.3 2.35 4.95 2 4.6 1.65 4.15 1.7 4.15 1.45 4.15 1.2 4.15 0.65 3.8 0.3 Z"/>
</defs>

<g transform="matrix( 2.67010498046875, 0, 0, 2.9471893310546875, 106.7,480.2) "/>

<g transform="matrix( 3.1517181396484375, 0, 0, 3.511016845703125, 292.95,465.75) ">
<g transform="matrix( 1, 0, 0, 1, 0,0) ">
<use xlink:href="#miracle_tree_full_0_Layer3_0_FILL"/>
</g>

<g transform="matrix( 1, 0, 0, 1, 0,0) ">
<use xlink:href="#miracle_tree_full_0_Layer2_0_FILL"/>
</g>

<g transform="matrix( 1.52252197265625, 0.259735107421875, -0.1703338623046875, 1.3858489990234375, -57.55,-48.15) ">
<g transform="matrix( 0.8142547607421875, -0.950103759765625, 0.950103759765625, 0.8142547607421875, -10.15,0.75) ">
<g transform="matrix( 1, 0, 0, 1, 0,0) ">
<use xlink:href="#blossom_copy_0_Layer1_0_FILL"/>

<use xlink:href="#blossom_copy_0_Layer1_0_1_STROKES"/>
</g>
</g>

<g transform="matrix( 1, 0, 0, 1, -3.8,-3.45) ">
<g transform="matrix( 1, 0, 0, 1, 0,0) ">
<use xlink:href="#blossom_0_Layer0_0_FILL"/>

<use xlink:href="#blossom_0_Layer0_0_1_STROKES"/>
</g>
</g>

<g transform="matrix( 0.8142547607421875, -0.950103759765625, 0.950103759765625, 0.8142547607421875, -1.65,2.7) ">
<g transform="matrix( 1, 0, 0, 1, 0,0) ">
<use xlink:href="#blossom_copy_0_Layer1_0_FILL"/>

<use xlink:href="#blossom_copy_0_Layer1_0_1_STROKES"/>
</g>
</g>

<g transform="matrix( 0.850555419921875, 0.5230712890625, -0.5230712890625, 0.850555419921875, 7.5,-1.35) ">
<g transform="matrix( 1, 0, 0, 1, 0,0) ">
<use xlink:href="#blossom_0_Layer0_0_FILL"/>

<use xlink:href="#blossom_0_Layer0_0_1_STROKES"/>
</g>
</g>

<g transform="matrix( -1.2475738525390625, -0.065277099609375, 0.065277099609375, -1.2475738525390625, 5.35,1.9) ">
<g transform="matrix( 1, 0, 0, 1, 0,0) ">
<use xlink:href="#blossom_copy_0_Layer1_0_FILL"/>

<use xlink:href="#blossom_copy_0_Layer1_0_1_STROKES"/>
</g>
</g>

<g transform="matrix( -0.1043701171875, -0.991455078125, 0.991455078125, -0.1043701171875, -3.4,-2.85) ">
<g transform="matrix( 1, 0, 0, 1, 0,0) ">
<use xlink:href="#blossom_0_Layer0_0_FILL"/>

<use xlink:href="#blossom_0_Layer0_0_1_STROKES"/>
</g>
</g>

<g transform="matrix( 0.99310302734375, -0.0865020751953125, 0.0865020751953125, 0.99310302734375, -12.75,-0.3) ">
<g transform="matrix( 1, 0, 0, 1, 0,0) ">
<use xlink:href="#blossom_0_Layer0_0_FILL"/>

<use xlink:href="#blossom_0_Layer0_0_1_STROKES"/>
</g>
</g>
</g>

<g transform="matrix( 2.09197998046875, -0.107391357421875, -0.0112457275390625, -1.7827606201171875, -61.65,-27.95) ">
<g transform="matrix( 0.8142547607421875, -0.950103759765625, 0.950103759765625, 0.8142547607421875, -10.15,0.75) ">
<g transform="matrix( 1, 0, 0, 1, 0,0) ">
<use xlink:href="#blossom_copy_0_Layer1_0_FILL"/>

<use xlink:href="#blossom_copy_0_Layer1_0_1_STROKES"/>
</g>
</g>

<g transform="matrix( 1, 0, 0, 1, -3.8,-3.45) ">
<g transform="matrix( 1, 0, 0, 1, 0,0) ">
<use xlink:href="#blossom_0_Layer0_0_FILL"/>

<use xlink:href="#blossom_0_Layer0_0_1_STROKES"/>
</g>
</g>

<g transform="matrix( 0.8142547607421875, -0.950103759765625, 0.950103759765625, 0.8142547607421875, -1.65,2.7) ">
<g transform="matrix( 1, 0, 0, 1, 0,0) ">
<use xlink:href="#blossom_copy_0_Layer1_0_FILL"/>

<use xlink:href="#blossom_copy_0_Layer1_0_1_STROKES"/>
</g>
</g>

<g transform="matrix( 0.850555419921875, 0.5230712890625, -0.5230712890625, 0.850555419921875, 7.5,-1.35) ">
<g transform="matrix( 1, 0, 0, 1, 0,0) ">
<use xlink:href="#blossom_0_Layer0_0_FILL"/>

<use xlink:href="#blossom_0_Layer0_0_1_STROKES"/>
</g>
</g>

<g transform="matrix( -1.2475738525390625, -0.065277099609375, 0.065277099609375, -1.2475738525390625, 5.35,1.9) ">
<g transform="matrix( 1, 0, 0, 1, 0,0) ">
<use xlink:href="#blossom_copy_0_Layer1_0_FILL"/>

<use xlink:href="#blossom_copy_0_Layer1_0_1_STROKES"/>
</g>
</g>

<g transform="matrix( -0.1043701171875, -0.991455078125, 0.991455078125, -0.1043701171875, -3.4,-2.85) ">
<g transform="matrix( 1, 0, 0, 1, 0,0) ">
<use xlink:href="#blossom_0_Layer0_0_FILL"/>

<use xlink:href="#blossom_0_Layer0_0_1_STROKES"/>
</g>
</g>

<g transform="matrix( 0.99310302734375, -0.0865020751953125, 0.0865020751953125, 0.99310302734375, -12.75,-0.3) ">
<g transform="matrix( 1, 0, 0, 1, 0,0) ">
<use xlink:href="#blossom_0_Layer0_0_FILL"/>

<use xlink:href="#blossom_0_Layer0_0_1_STROKES"/>
</g>
</g>
</g>

<g transform="matrix( 1.0476531982421875, 0.69830322265625, 0.948455810546875, -1.089111328125, -36.2,-55.05) ">
<g transform="matrix( 0.8142547607421875, -0.950103759765625, 0.950103759765625, 0.8142547607421875, -10.15,0.75) ">
<g transform="matrix( 1, 0, 0, 1, 0,0) ">
<use xlink:href="#blossom_copy_0_Layer1_0_FILL"/>

<use xlink:href="#blossom_copy_0_Layer1_0_1_STROKES"/>
</g>
</g>

<g transform="matrix( 1, 0, 0, 1, -3.8,-3.45) ">
<g transform="matrix( 1, 0, 0, 1, 0,0) ">
<use xlink:href="#blossom_0_Layer0_0_FILL"/>

<use xlink:href="#blossom_0_Layer0_0_1_STROKES"/>
</g>
</g>

<g transform="matrix( 0.8142547607421875, -0.950103759765625, 0.950103759765625, 0.8142547607421875, -1.65,2.7) ">
<g transform="matrix( 1, 0, 0, 1, 0,0) ">
<use xlink:href="#blossom_copy_0_Layer1_0_FILL"/>

<use xlink:href="#blossom_copy_0_Layer1_0_1_STROKES"/>
</g>
</g>

<g transform="matrix( 0.850555419921875, 0.5230712890625, -0.5230712890625, 0.850555419921875, 7.5,-1.35) ">
<g transform="matrix( 1, 0, 0, 1, 0,0) ">
<use xlink:href="#blossom_0_Layer0_0_FILL"/>

<use xlink:href="#blossom_0_Layer0_0_1_STROKES"/>
</g>
</g>

<g transform="matrix( -1.2475738525390625, -0.065277099609375, 0.065277099609375, -1.2475738525390625, 5.35,1.9) ">
<g transform="matrix( 1, 0, 0, 1, 0,0) ">
<use xlink:href="#blossom_copy_0_Layer1_0_FILL"/>

<use xlink:href="#blossom_copy_0_Layer1_0_1_STROKES"/>
</g>
</g>

<g transform="matrix( -0.1043701171875, -0.991455078125, 0.991455078125, -0.1043701171875, -3.4,-2.85) ">
<g transform="matrix( 1, 0, 0, 1, 0,0) ">
<use xlink:href="#blossom_0_Layer0_0_FILL"/>

<use xlink:href="#blossom_0_Layer0_0_1_STROKES"/>
</g>
</g>

<g transform="matrix( 0.99310302734375, -0.0865020751953125, 0.0865020751953125, 0.99310302734375, -12.75,-0.3) ">
<g transform="matrix( 1, 0, 0, 1, 0,0) ">
<use xlink:href="#blossom_0_Layer0_0_FILL"/>

<use xlink:href="#blossom_0_Layer0_0_1_STROKES"/>
</g>
</g>
</g>

<g transform="matrix( 0.3560638427734375, -1.148895263671875, 1.1062469482421875, 0.365570068359375, -29.15,-31.8) ">
<g transform="matrix( 0.8142547607421875, -0.950103759765625, 0.950103759765625, 0.8142547607421875, -10.15,0.75) ">
<g transform="matrix( 1, 0, 0, 1, 0,0) ">
<use xlink:href="#blossom_copy_0_Layer1_0_FILL"/>

<use xlink:href="#blossom_copy_0_Layer1_0_1_STROKES"/>
</g>
</g>

<g transform="matrix( 1, 0, 0, 1, -3.8,-3.45) ">
<g transform="matrix( 1, 0, 0, 1, 0,0) ">
<use xlink:href="#blossom_0_Layer0_0_FILL"/>

<use xlink:href="#blossom_0_Layer0_0_1_STROKES"/>
</g>
</g>

<g transform="matrix( 0.8142547607421875, -0.950103759765625, 0.950103759765625, 0.8142547607421875, -1.65,2.7) ">
<g transform="matrix( 1, 0, 0, 1, 0,0) ">
<use xlink:href="#blossom_copy_0_Layer1_0_FILL"/>

<use xlink:href="#blossom_copy_0_Layer1_0_1_STROKES"/>
</g>
</g>

<g transform="matrix( 0.850555419921875, 0.5230712890625, -0.5230712890625, 0.850555419921875, 7.5,-1.35) ">
<g transform="matrix( 1, 0, 0, 1, 0,0) ">
<use xlink:href="#blossom_0_Layer0_0_FILL"/>

<use xlink:href="#blossom_0_Layer0_0_1_STROKES"/>
</g>
</g>

<g transform="matrix( -1.2475738525390625, -0.065277099609375, 0.065277099609375, -1.2475738525390625, 5.35,1.9) ">
<g transform="matrix( 1, 0, 0, 1, 0,0) ">
<use xlink:href="#blossom_copy_0_Layer1_0_FILL"/>

<use xlink:href="#blossom_copy_0_Layer1_0_1_STROKES"/>
</g>
</g>

<g transform="matrix( -0.1043701171875, -0.991455078125, 0.991455078125, -0.1043701171875, -3.4,-2.85) ">
<g transform="matrix( 1, 0, 0, 1, 0,0) ">
<use xlink:href="#blossom_0_Layer0_0_FILL"/>

<use xlink:href="#blossom_0_Layer0_0_1_STROKES"/>
</g>
</g>

<g transform="matrix( 0.99310302734375, -0.0865020751953125, 0.0865020751953125, 0.99310302734375, -12.75,-0.3) ">
<g transform="matrix( 1, 0, 0, 1, 0,0) ">
<use xlink:href="#blossom_0_Layer0_0_FILL"/>

<use xlink:href="#blossom_0_Layer0_0_1_STROKES"/>
</g>
</g>
</g>

<g transform="matrix( -1.7411956787109375, -0.1923828125, -0.2327880859375, 1.473358154296875, 37.45,-31.55) ">
<g transform="matrix( 0.8142547607421875, -0.950103759765625, 0.950103759765625, 0.8142547607421875, -10.15,0.75) ">
<g transform="matrix( 1, 0, 0, 1, 0,0) ">
<use xlink:href="#blossom_copy_0_Layer1_0_FILL"/>

<use xlink:href="#blossom_copy_0_Layer1_0_1_STROKES"/>
</g>
</g>

<g transform="matrix( 1, 0, 0, 1, -3.8,-3.45) ">
<g transform="matrix( 1, 0, 0, 1, 0,0) ">
<use xlink:href="#blossom_0_Layer0_0_FILL"/>

<use xlink:href="#blossom_0_Layer0_0_1_STROKES"/>
</g>
</g>

<g transform="matrix( 0.8142547607421875, -0.950103759765625, 0.950103759765625, 0.8142547607421875, -1.65,2.7) ">
<g transform="matrix( 1, 0, 0, 1, 0,0) ">
<use xlink:href="#blossom_copy_0_Layer1_0_FILL"/>

<use xlink:href="#blossom_copy_0_Layer1_0_1_STROKES"/>
</g>
</g>

<g transform="matrix( 0.850555419921875, 0.5230712890625, -0.5230712890625, 0.850555419921875, 7.5,-1.35) ">
<g transform="matrix( 1, 0, 0, 1, 0,0) ">
<use xlink:href="#blossom_0_Layer0_0_FILL"/>

<use xlink:href="#blossom_0_Layer0_0_1_STROKES"/>
</g>
</g>

<g transform="matrix( -1.2475738525390625, -0.065277099609375, 0.065277099609375, -1.2475738525390625, 5.35,1.9) ">
<g transform="matrix( 1, 0, 0, 1, 0,0) ">
<use xlink:href="#blossom_copy_0_Layer1_0_FILL"/>

<use xlink:href="#blossom_copy_0_Layer1_0_1_STROKES"/>
</g>
</g>

<g transform="matrix( -0.1043701171875, -0.991455078125, 0.991455078125, -0.1043701171875, -3.4,-2.85) ">
<g transform="matrix( 1, 0, 0, 1, 0,0) ">
<use xlink:href="#blossom_0_Layer0_0_FILL"/>

<use xlink:href="#blossom_0_Layer0_0_1_STROKES"/>
</g>
</g>

<g transform="matrix( 0.99310302734375, -0.0865020751953125, 0.0865020751953125, 0.99310302734375, -12.75,-0.3) ">
<g transform="matrix( 1, 0, 0, 1, 0,0) ">
<use xlink:href="#blossom_0_Layer0_0_FILL"/>

<use xlink:href="#blossom_0_Layer0_0_1_STROKES"/>
</g>
</g>
</g>

<g transform="matrix( -0.773223876953125, 0.807525634765625, -1.0068206787109375, -0.8827362060546875, 1.35,-57.2) ">
<g transform="matrix( 0.8142547607421875, -0.950103759765625, 0.950103759765625, 0.8142547607421875, -10.15,0.75) ">
<g transform="matrix( 1, 0, 0, 1, 0,0) ">
<use xlink:href="#blossom_copy_0_Layer1_0_FILL"/>

<use xlink:href="#blossom_copy_0_Layer1_0_1_STROKES"/>
</g>
</g>

<g transform="matrix( 1, 0, 0, 1, -3.8,-3.45) ">
<g transform="matrix( 1, 0, 0, 1, 0,0) ">
<use xlink:href="#blossom_0_Layer0_0_FILL"/>

<use xlink:href="#blossom_0_Layer0_0_1_STROKES"/>
</g>
</g>

<g transform="matrix( 0.8142547607421875, -0.950103759765625, 0.950103759765625, 0.8142547607421875, -1.65,2.7) ">
<g transform="matrix( 1, 0, 0, 1, 0,0) ">
<use xlink:href="#blossom_copy_0_Layer1_0_FILL"/>

<use xlink:href="#blossom_copy_0_Layer1_0_1_STROKES"/>
</g>
</g>

<g transform="matrix( 0.850555419921875, 0.5230712890625, -0.5230712890625, 0.850555419921875, 7.5,-1.35) ">
<g transform="matrix( 1, 0, 0, 1, 0,0) ">
<use xlink:href="#blossom_0_Layer0_0_FILL"/>

<use xlink:href="#blossom_0_Layer0_0_1_STROKES"/>
</g>
</g>

<g transform="matrix( -1.2475738525390625, -0.065277099609375, 0.065277099609375, -1.2475738525390625, 5.35,1.9) ">
<g transform="matrix( 1, 0, 0, 1, 0,0) ">
<use xlink:href="#blossom_copy_0_Layer1_0_FILL"/>

<use xlink:href="#blossom_copy_0_Layer1_0_1_STROKES"/>
</g>
</g>

<g transform="matrix( -0.1043701171875, -0.991455078125, 0.991455078125, -0.1043701171875, -3.4,-2.85) ">
<g transform="matrix( 1, 0, 0, 1, 0,0) ">
<use xlink:href="#blossom_0_Layer0_0_FILL"/>

<use xlink:href="#blossom_0_Layer0_0_1_STROKES"/>
</g>
</g>

<g transform="matrix( 0.99310302734375, -0.0865020751953125, 0.0865020751953125, 0.99310302734375, -12.75,-0.3) ">
<g transform="matrix( 1, 0, 0, 1, 0,0) ">
<use xlink:href="#blossom_0_Layer0_0_FILL"/>

<use xlink:href="#blossom_0_Layer0_0_1_STROKES"/>
</g>
</g>
</g>

<g transform="matrix( -1.04815673828125, 0.31219482421875, -0.4891204833984375, -0.99688720703125, 13.25,-38.35) ">
<g transform="matrix( 0.8142547607421875, -0.950103759765625, 0.950103759765625, 0.8142547607421875, -10.15,0.75) ">
<g transform="matrix( 1, 0, 0, 1, 0,0) ">
<use xlink:href="#blossom_copy_0_Layer1_0_FILL"/>

<use xlink:href="#blossom_copy_0_Layer1_0_1_STROKES"/>
</g>
</g>

<g transform="matrix( 1, 0, 0, 1, -3.8,-3.45) ">
<g transform="matrix( 1, 0, 0, 1, 0,0) ">
<use xlink:href="#blossom_0_Layer0_0_FILL"/>

<use xlink:href="#blossom_0_Layer0_0_1_STROKES"/>
</g>
</g>

<g transform="matrix( 0.8142547607421875, -0.950103759765625, 0.950103759765625, 0.8142547607421875, -1.65,2.7) ">
<g transform="matrix( 1, 0, 0, 1, 0,0) ">
<use xlink:href="#blossom_copy_0_Layer1_0_FILL"/>

<use xlink:href="#blossom_copy_0_Layer1_0_1_STROKES"/>
</g>
</g>

<g transform="matrix( 0.850555419921875, 0.5230712890625, -0.5230712890625, 0.850555419921875, 7.5,-1.35) ">
<g transform="matrix( 1, 0, 0, 1, 0,0) ">
<use xlink:href="#blossom_0_Layer0_0_FILL"/>

<use xlink:href="#blossom_0_Layer0_0_1_STROKES"/>
</g>
</g>

<g transform="matrix( -1.2475738525390625, -0.065277099609375, 0.065277099609375, -1.2475738525390625, 5.35,1.9) ">
<g transform="matrix( 1, 0, 0, 1, 0,0) ">
<use xlink:href="#blossom_copy_0_Layer1_0_FILL"/>

<use xlink:href="#blossom_copy_0_Layer1_0_1_STROKES"/>
</g>
</g>

<g transform="matrix( -0.1043701171875, -0.991455078125, 0.991455078125, -0.1043701171875, -3.4,-2.85) ">
<g transform="matrix( 1, 0, 0, 1, 0,0) ">
<use xlink:href="#blossom_0_Layer0_0_FILL"/>

<use xlink:href="#blossom_0_Layer0_0_1_STROKES"/>
</g>
</g>

<g transform="matrix( 0.99310302734375, -0.0865020751953125, 0.0865020751953125, 0.99310302734375, -12.75,-0.3) ">
<g transform="matrix( 1, 0, 0, 1, 0,0) ">
<use xlink:href="#blossom_0_Layer0_0_FILL"/>

<use xlink:href="#blossom_0_Layer0_0_1_STROKES"/>
</g>
</g>
</g>

<g transform="matrix( -0.3409881591796875, -1.04803466796875, -1.07025146484375, 0.160491943359375, -2.7,-26.6) ">
<g transform="matrix( 0.8142547607421875, -0.950103759765625, 0.950103759765625, 0.8142547607421875, -10.15,0.75) ">
<g transform="matrix( 1, 0, 0, 1, 0,0) ">
<use xlink:href="#blossom_copy_0_Layer1_0_FILL"/>

<use xlink:href="#blossom_copy_0_Layer1_0_1_STROKES"/>
</g>
</g>

<g transform="matrix( 1, 0, 0, 1, -3.8,-3.45) ">
<g transform="matrix( 1, 0, 0, 1, 0,0) ">
<use xlink:href="#blossom_0_Layer0_0_FILL"/>

<use xlink:href="#blossom_0_Layer0_0_1_STROKES"/>
</g>
</g>

<g transform="matrix( 0.8142547607421875, -0.950103759765625, 0.950103759765625, 0.8142547607421875, -1.65,2.7) ">
<g transform="matrix( 1, 0, 0, 1, 0,0) ">
<use xlink:href="#blossom_copy_0_Layer1_0_FILL"/>

<use xlink:href="#blossom_copy_0_Layer1_0_1_STROKES"/>
</g>
</g>

<g transform="matrix( 0.850555419921875, 0.5230712890625, -0.5230712890625, 0.850555419921875, 7.5,-1.35) ">
<g transform="matrix( 1, 0, 0, 1, 0,0) ">
<use xlink:href="#blossom_0_Layer0_0_FILL"/>

<use xlink:href="#blossom_0_Layer0_0_1_STROKES"/>
</g>
</g>

<g transform="matrix( -1.2475738525390625, -0.065277099609375, 0.065277099609375, -1.2475738525390625, 5.35,1.9) ">
<g transform="matrix( 1, 0, 0, 1, 0,0) ">
<use xlink:href="#blossom_copy_0_Layer1_0_FILL"/>

<use xlink:href="#blossom_copy_0_Layer1_0_1_STROKES"/>
</g>
</g>

<g transform="matrix( -0.1043701171875, -0.991455078125, 0.991455078125, -0.1043701171875, -3.4,-2.85) ">
<g transform="matrix( 1, 0, 0, 1, 0,0) ">
<use xlink:href="#blossom_0_Layer0_0_FILL"/>

<use xlink:href="#blossom_0_Layer0_0_1_STROKES"/>
</g>
</g>

<g transform="matrix( 0.99310302734375, -0.0865020751953125, 0.0865020751953125, 0.99310302734375, -12.75,-0.3) ">
<g transform="matrix( 1, 0, 0, 1, 0,0) ">
<use xlink:href="#blossom_0_Layer0_0_FILL"/>

<use xlink:href="#blossom_0_Layer0_0_1_STROKES"/>
</g>
</g>
</g>

<g transform="matrix( -1.912567138671875, 0.149261474609375, 0.05364990234375, 1.631805419921875, 46.4,-58.1) ">
<g transform="matrix( 0.8142547607421875, -0.950103759765625, 0.950103759765625, 0.8142547607421875, -10.15,0.75) ">
<g transform="matrix( 1, 0, 0, 1, 0,0) ">
<use xlink:href="#blossom_copy_0_Layer1_0_FILL"/>

<use xlink:href="#blossom_copy_0_Layer1_0_1_STROKES"/>
</g>
</g>

<g transform="matrix( 1, 0, 0, 1, -3.8,-3.45) ">
<g transform="matrix( 1, 0, 0, 1, 0,0) ">
<use xlink:href="#blossom_0_Layer0_0_FILL"/>

<use xlink:href="#blossom_0_Layer0_0_1_STROKES"/>
</g>
</g>

<g transform="matrix( 0.8142547607421875, -0.950103759765625, 0.950103759765625, 0.8142547607421875, -1.65,2.7) ">
<g transform="matrix( 1, 0, 0, 1, 0,0) ">
<use xlink:href="#blossom_copy_0_Layer1_0_FILL"/>

<use xlink:href="#blossom_copy_0_Layer1_0_1_STROKES"/>
</g>
</g>

<g transform="matrix( 0.850555419921875, 0.5230712890625, -0.5230712890625, 0.850555419921875, 7.5,-1.35) ">
<g transform="matrix( 1, 0, 0, 1, 0,0) ">
<use xlink:href="#blossom_0_Layer0_0_FILL"/>

<use xlink:href="#blossom_0_Layer0_0_1_STROKES"/>
</g>
</g>

<g transform="matrix( -1.2475738525390625, -0.065277099609375, 0.065277099609375, -1.2475738525390625, 5.35,1.9) ">
<g transform="matrix( 1, 0, 0, 1, 0,0) ">
<use xlink:href="#blossom_copy_0_Layer1_0_FILL"/>

<use xlink:href="#blossom_copy_0_Layer1_0_1_STROKES"/>
</g>
</g>

<g transform="matrix( -0.1043701171875, -0.991455078125, 0.991455078125, -0.1043701171875, -3.4,-2.85) ">
<g transform="matrix( 1, 0, 0, 1, 0,0) ">
<use xlink:href="#blossom_0_Layer0_0_FILL"/>

<use xlink:href="#blossom_0_Layer0_0_1_STROKES"/>
</g>
</g>

<g transform="matrix( 0.99310302734375, -0.0865020751953125, 0.0865020751953125, 0.99310302734375, -12.75,-0.3) ">
<g transform="matrix( 1, 0, 0, 1, 0,0) ">
<use xlink:href="#blossom_0_Layer0_0_FILL"/>

<use xlink:href="#blossom_0_Layer0_0_1_STROKES"/>
</g>
</g>
</g>

<g transform="matrix( -1.0531005859375, 0.36114501953125, -0.487396240234375, -1.2410888671875, 12.3,-68.1) ">
<g transform="matrix( 0.8142547607421875, -0.950103759765625, 0.950103759765625, 0.8142547607421875, -10.15,0.75) ">
<g transform="matrix( 1, 0, 0, 1, 0,0) ">
<use xlink:href="#blossom_copy_0_Layer1_0_FILL"/>

<use xlink:href="#blossom_copy_0_Layer1_0_1_STROKES"/>
</g>
</g>

<g transform="matrix( 1, 0, 0, 1, -3.8,-3.45) ">
<g transform="matrix( 1, 0, 0, 1, 0,0) ">
<use xlink:href="#blossom_0_Layer0_0_FILL"/>

<use xlink:href="#blossom_0_Layer0_0_1_STROKES"/>
</g>
</g>

<g transform="matrix( 0.8142547607421875, -0.950103759765625, 0.950103759765625, 0.8142547607421875, -1.65,2.7) ">
<g transform="matrix( 1, 0, 0, 1, 0,0) ">
<use xlink:href="#blossom_copy_0_Layer1_0_FILL"/>

<use xlink:href="#blossom_copy_0_Layer1_0_1_STROKES"/>
</g>
</g>

<g transform="matrix( 0.850555419921875, 0.5230712890625, -0.5230712890625, 0.850555419921875, 7.5,-1.35) ">
<g transform="matrix( 1, 0, 0, 1, 0,0) ">
<use xlink:href="#blossom_0_Layer0_0_FILL"/>

<use xlink:href="#blossom_0_Layer0_0_1_STROKES"/>
</g>
</g>

<g transform="matrix( -1.2475738525390625, -0.065277099609375, 0.065277099609375, -1.2475738525390625, 5.35,1.9) ">
<g transform="matrix( 1, 0, 0, 1, 0,0) ">
<use xlink:href="#blossom_copy_0_Layer1_0_FILL"/>

<use xlink:href="#blossom_copy_0_Layer1_0_1_STROKES"/>
</g>
</g>

<g transform="matrix( -0.1043701171875, -0.991455078125, 0.991455078125, -0.1043701171875, -3.4,-2.85) ">
<g transform="matrix( 1, 0, 0, 1, 0,0) ">
<use xlink:href="#blossom_0_Layer0_0_FILL"/>

<use xlink:href="#blossom_0_Layer0_0_1_STROKES"/>
</g>
</g>

<g transform="matrix( 0.99310302734375, -0.0865020751953125, 0.0865020751953125, 0.99310302734375, -12.75,-0.3) ">
<g transform="matrix( 1, 0, 0, 1, 0,0) ">
<use xlink:href="#blossom_0_Layer0_0_FILL"/>

<use xlink:href="#blossom_0_Layer0_0_1_STROKES"/>
</g>
</g>
</g>

<g transform="matrix( -0.69287109375, 0.8448333740234375, -0.96258544921875, -0.55145263671875, 30.85,-63.45) ">
<g transform="matrix( 0.8142547607421875, -0.950103759765625, 0.950103759765625, 0.8142547607421875, -10.15,0.75) ">
<g transform="matrix( 1, 0, 0, 1, 0,0) ">
<use xlink:href="#blossom_copy_0_Layer1_0_FILL"/>

<use xlink:href="#blossom_copy_0_Layer1_0_1_STROKES"/>
</g>
</g>

<g transform="matrix( 1, 0, 0, 1, -3.8,-3.45) ">
<g transform="matrix( 1, 0, 0, 1, 0,0) ">
<use xlink:href="#blossom_0_Layer0_0_FILL"/>

<use xlink:href="#blossom_0_Layer0_0_1_STROKES"/>
</g>
</g>

<g transform="matrix( 0.8142547607421875, -0.950103759765625, 0.950103759765625, 0.8142547607421875, -1.65,2.7) ">
<g transform="matrix( 1, 0, 0, 1, 0,0) ">
<use xlink:href="#blossom_copy_0_Layer1_0_FILL"/>

<use xlink:href="#blossom_copy_0_Layer1_0_1_STROKES"/>
</g>
</g>

<g transform="matrix( 0.850555419921875, 0.5230712890625, -0.5230712890625, 0.850555419921875, 7.5,-1.35) ">
<g transform="matrix( 1, 0, 0, 1, 0,0) ">
<use xlink:href="#blossom_0_Layer0_0_FILL"/>

<use xlink:href="#blossom_0_Layer0_0_1_STROKES"/>
</g>
</g>

<g transform="matrix( -1.2475738525390625, -0.065277099609375, 0.065277099609375, -1.2475738525390625, 5.35,1.9) ">
<g transform="matrix( 1, 0, 0, 1, 0,0) ">
<use xlink:href="#blossom_copy_0_Layer1_0_FILL"/>

<use xlink:href="#blossom_copy_0_Layer1_0_1_STROKES"/>
</g>
</g>

<g transform="matrix( -0.1043701171875, -0.991455078125, 0.991455078125, -0.1043701171875, -3.4,-2.85) ">
<g transform="matrix( 1, 0, 0, 1, 0,0) ">
<use xlink:href="#blossom_0_Layer0_0_FILL"/>

<use xlink:href="#blossom_0_Layer0_0_1_STROKES"/>
</g>
</g>

<g transform="matrix( 0.99310302734375, -0.0865020751953125, 0.0865020751953125, 0.99310302734375, -12.75,-0.3) ">
<g transform="matrix( 1, 0, 0, 1, 0,0) ">
<use xlink:href="#blossom_0_Layer0_0_FILL"/>

<use xlink:href="#blossom_0_Layer0_0_1_STROKES"/>
</g>
</g>
</g>

<g transform="matrix( -0.98809814453125, -0.484130859375, -0.6289520263671875, 0.8785247802734375, 26.15,-49.55) ">
<g transform="matrix( 0.8142547607421875, -0.950103759765625, 0.950103759765625, 0.8142547607421875, -10.15,0.75) ">
<g transform="matrix( 1, 0, 0, 1, 0,0) ">
<use xlink:href="#blossom_copy_0_Layer1_0_FILL"/>

<use xlink:href="#blossom_copy_0_Layer1_0_1_STROKES"/>
</g>
</g>

<g transform="matrix( 1, 0, 0, 1, -3.8,-3.45) ">
<g transform="matrix( 1, 0, 0, 1, 0,0) ">
<use xlink:href="#blossom_0_Layer0_0_FILL"/>

<use xlink:href="#blossom_0_Layer0_0_1_STROKES"/>
</g>
</g>

<g transform="matrix( 0.8142547607421875, -0.950103759765625, 0.950103759765625, 0.8142547607421875, -1.65,2.7) ">
<g transform="matrix( 1, 0, 0, 1, 0,0) ">
<use xlink:href="#blossom_copy_0_Layer1_0_FILL"/>

<use xlink:href="#blossom_copy_0_Layer1_0_1_STROKES"/>
</g>
</g>

<g transform="matrix( 0.850555419921875, 0.5230712890625, -0.5230712890625, 0.850555419921875, 7.5,-1.35) ">
<g transform="matrix( 1, 0, 0, 1, 0,0) ">
<use xlink:href="#blossom_0_Layer0_0_FILL"/>

<use xlink:href="#blossom_0_Layer0_0_1_STROKES"/>
</g>
</g>

<g transform="matrix( -1.2475738525390625, -0.065277099609375, 0.065277099609375, -1.2475738525390625, 5.35,1.9) ">
<g transform="matrix( 1, 0, 0, 1, 0,0) ">
<use xlink:href="#blossom_copy_0_Layer1_0_FILL"/>

<use xlink:href="#blossom_copy_0_Layer1_0_1_STROKES"/>
</g>
</g>

<g transform="matrix( -0.1043701171875, -0.991455078125, 0.991455078125, -0.1043701171875, -3.4,-2.85) ">
<g transform="matrix( 1, 0, 0, 1, 0,0) ">
<use xlink:href="#blossom_0_Layer0_0_FILL"/>

<use xlink:href="#blossom_0_Layer0_0_1_STROKES"/>
</g>
</g>

<g transform="matrix( 0.99310302734375, -0.0865020751953125, 0.0865020751953125, 0.99310302734375, -12.75,-0.3) ">
<g transform="matrix( 1, 0, 0, 1, 0,0) ">
<use xlink:href="#blossom_0_Layer0_0_FILL"/>

<use xlink:href="#blossom_0_Layer0_0_1_STROKES"/>
</g>
</g>
</g>

<g transform="matrix( -0.88751220703125, 1.0477447509765625, -1.0477447509765625, -0.88751220703125, -9.4,-78.15) ">
<g transform="matrix( 0.8142547607421875, -0.950103759765625, 0.950103759765625, 0.8142547607421875, -10.15,0.75) ">
<g transform="matrix( 1, 0, 0, 1, 0,0) ">
<use xlink:href="#blossom_copy_0_Layer1_0_FILL"/>

<use xlink:href="#blossom_copy_0_Layer1_0_1_STROKES"/>
</g>
</g>

<g transform="matrix( 1, 0, 0, 1, -3.8,-3.45) ">
<g transform="matrix( 1, 0, 0, 1, 0,0) ">
<use xlink:href="#blossom_0_Layer0_0_FILL"/>

<use xlink:href="#blossom_0_Layer0_0_1_STROKES"/>
</g>
</g>

<g transform="matrix( 0.8142547607421875, -0.950103759765625, 0.950103759765625, 0.8142547607421875, -1.65,2.7) ">
<g transform="matrix( 1, 0, 0, 1, 0,0) ">
<use xlink:href="#blossom_copy_0_Layer1_0_FILL"/>

<use xlink:href="#blossom_copy_0_Layer1_0_1_STROKES"/>
</g>
</g>

<g transform="matrix( 0.850555419921875, 0.5230712890625, -0.5230712890625, 0.850555419921875, 7.5,-1.35) ">
<g transform="matrix( 1, 0, 0, 1, 0,0) ">
<use xlink:href="#blossom_0_Layer0_0_FILL"/>

<use xlink:href="#blossom_0_Layer0_0_1_STROKES"/>
</g>
</g>

<g transform="matrix( -1.2475738525390625, -0.065277099609375, 0.065277099609375, -1.2475738525390625, 5.35,1.9) ">
<g transform="matrix( 1, 0, 0, 1, 0,0) ">
<use xlink:href="#blossom_copy_0_Layer1_0_FILL"/>

<use xlink:href="#blossom_copy_0_Layer1_0_1_STROKES"/>
</g>
</g>

<g transform="matrix( -0.1043701171875, -0.991455078125, 0.991455078125, -0.1043701171875, -3.4,-2.85) ">
<g transform="matrix( 1, 0, 0, 1, 0,0) ">
<use xlink:href="#blossom_0_Layer0_0_FILL"/>

<use xlink:href="#blossom_0_Layer0_0_1_STROKES"/>
</g>
</g>

<g transform="matrix( 0.99310302734375, -0.0865020751953125, 0.0865020751953125, 0.99310302734375, -12.75,-0.3) ">
<g transform="matrix( 1, 0, 0, 1, 0,0) ">
<use xlink:href="#blossom_0_Layer0_0_FILL"/>

<use xlink:href="#blossom_0_Layer0_0_1_STROKES"/>
</g>
</g>
</g>

<g transform="matrix( 0.69561767578125, 1.3878631591796875, -1.3878631591796875, 0.69561767578125, -23.65,-83.35) ">
<g transform="matrix( 0.8142547607421875, -0.950103759765625, 0.950103759765625, 0.8142547607421875, -10.15,0.75) ">
<g transform="matrix( 1, 0, 0, 1, 0,0) ">
<use xlink:href="#blossom_copy_0_Layer1_0_FILL"/>

<use xlink:href="#blossom_copy_0_Layer1_0_1_STROKES"/>
</g>
</g>

<g transform="matrix( 1, 0, 0, 1, -3.8,-3.45) ">
<g transform="matrix( 1, 0, 0, 1, 0,0) ">
<use xlink:href="#blossom_0_Layer0_0_FILL"/>

<use xlink:href="#blossom_0_Layer0_0_1_STROKES"/>
</g>
</g>

<g transform="matrix( 0.8142547607421875, -0.950103759765625, 0.950103759765625, 0.8142547607421875, -1.65,2.7) ">
<g transform="matrix( 1, 0, 0, 1, 0,0) ">
<use xlink:href="#blossom_copy_0_Layer1_0_FILL"/>

<use xlink:href="#blossom_copy_0_Layer1_0_1_STROKES"/>
</g>
</g>

<g transform="matrix( 0.850555419921875, 0.5230712890625, -0.5230712890625, 0.850555419921875, 7.5,-1.35) ">
<g transform="matrix( 1, 0, 0, 1, 0,0) ">
<use xlink:href="#blossom_0_Layer0_0_FILL"/>

<use xlink:href="#blossom_0_Layer0_0_1_STROKES"/>
</g>
</g>

<g transform="matrix( -1.2475738525390625, -0.065277099609375, 0.065277099609375, -1.2475738525390625, 5.35,1.9) ">
<g transform="matrix( 1, 0, 0, 1, 0,0) ">
<use xlink:href="#blossom_copy_0_Layer1_0_FILL"/>

<use xlink:href="#blossom_copy_0_Layer1_0_1_STROKES"/>
</g>
</g>

<g transform="matrix( -0.1043701171875, -0.991455078125, 0.991455078125, -0.1043701171875, -3.4,-2.85) ">
<g transform="matrix( 1, 0, 0, 1, 0,0) ">
<use xlink:href="#blossom_0_Layer0_0_FILL"/>

<use xlink:href="#blossom_0_Layer0_0_1_STROKES"/>
</g>
</g>

<g transform="matrix( 0.99310302734375, -0.0865020751953125, 0.0865020751953125, 0.99310302734375, -12.75,-0.3) ">
<g transform="matrix( 1, 0, 0, 1, 0,0) ">
<use xlink:href="#blossom_0_Layer0_0_FILL"/>

<use xlink:href="#blossom_0_Layer0_0_1_STROKES"/>
</g>
</g>
</g>

<g transform="matrix( -1.15625, 0.518310546875, 0.5282440185546875, 1.17828369140625, -15.75,-62.9) ">
<g transform="matrix( 0.8142547607421875, -0.950103759765625, 0.950103759765625, 0.8142547607421875, -10.15,0.75) ">
<g transform="matrix( 1, 0, 0, 1, 0,0) ">
<use xlink:href="#blossom_copy_0_Layer1_0_FILL"/>

<use xlink:href="#blossom_copy_0_Layer1_0_1_STROKES"/>
</g>
</g>

<g transform="matrix( 1, 0, 0, 1, -3.8,-3.45) ">
<g transform="matrix( 1, 0, 0, 1, 0,0) ">
<use xlink:href="#blossom_0_Layer0_0_FILL"/>

<use xlink:href="#blossom_0_Layer0_0_1_STROKES"/>
</g>
</g>

<g transform="matrix( 0.8142547607421875, -0.950103759765625, 0.950103759765625, 0.8142547607421875, -1.65,2.7) ">
<g transform="matrix( 1, 0, 0, 1, 0,0) ">
<use xlink:href="#blossom_copy_0_Layer1_0_FILL"/>

<use xlink:href="#blossom_copy_0_Layer1_0_1_STROKES"/>
</g>
</g>

<g transform="matrix( 0.850555419921875, 0.5230712890625, -0.5230712890625, 0.850555419921875, 7.5,-1.35) ">
<g transform="matrix( 1, 0, 0, 1, 0,0) ">
<use xlink:href="#blossom_0_Layer0_0_FILL"/>

<use xlink:href="#blossom_0_Layer0_0_1_STROKES"/>
</g>
</g>

<g transform="matrix( -1.2475738525390625, -0.065277099609375, 0.065277099609375, -1.2475738525390625, 5.35,1.9) ">
<g transform="matrix( 1, 0, 0, 1, 0,0) ">
<use xlink:href="#blossom_copy_0_Layer1_0_FILL"/>

<use xlink:href="#blossom_copy_0_Layer1_0_1_STROKES"/>
</g>
</g>

<g transform="matrix( -0.1043701171875, -0.991455078125, 0.991455078125, -0.1043701171875, -3.4,-2.85) ">
<g transform="matrix( 1, 0, 0, 1, 0,0) ">
<use xlink:href="#blossom_0_Layer0_0_FILL"/>

<use xlink:href="#blossom_0_Layer0_0_1_STROKES"/>
</g>
</g>

<g transform="matrix( 0.99310302734375, -0.0865020751953125, 0.0865020751953125, 0.99310302734375, -12.75,-0.3) ">
<g transform="matrix( 1, 0, 0, 1, 0,0) ">
<use xlink:href="#blossom_0_Layer0_0_FILL"/>

<use xlink:href="#blossom_0_Layer0_0_1_STROKES"/>
</g>
</g>
</g>

<g transform="matrix( -0.59698486328125, 0.572784423828125, 0.572784423828125, 0.59698486328125, -51.15,-36.5) ">
<g transform="matrix( 0.8142547607421875, -0.950103759765625, 0.950103759765625, 0.8142547607421875, -10.15,0.75) ">
<g transform="matrix( 1, 0, 0, 1, 0,0) ">
<use xlink:href="#blossom_copy_0_Layer1_0_FILL"/>

<use xlink:href="#blossom_copy_0_Layer1_0_1_STROKES"/>
</g>
</g>

<g transform="matrix( 1, 0, 0, 1, -3.8,-3.45) ">
<g transform="matrix( 1, 0, 0, 1, 0,0) ">
<use xlink:href="#blossom_0_Layer0_0_FILL"/>

<use xlink:href="#blossom_0_Layer0_0_1_STROKES"/>
</g>
</g>

<g transform="matrix( 0.8142547607421875, -0.950103759765625, 0.950103759765625, 0.8142547607421875, -1.65,2.7) ">
<g transform="matrix( 1, 0, 0, 1, 0,0) ">
<use xlink:href="#blossom_copy_0_Layer1_0_FILL"/>

<use xlink:href="#blossom_copy_0_Layer1_0_1_STROKES"/>
</g>
</g>

<g transform="matrix( 0.850555419921875, 0.5230712890625, -0.5230712890625, 0.850555419921875, 7.5,-1.35) ">
<g transform="matrix( 1, 0, 0, 1, 0,0) ">
<use xlink:href="#blossom_0_Layer0_0_FILL"/>

<use xlink:href="#blossom_0_Layer0_0_1_STROKES"/>
</g>
</g>

<g transform="matrix( -1.2475738525390625, -0.065277099609375, 0.065277099609375, -1.2475738525390625, 5.35,1.9) ">
<g transform="matrix( 1, 0, 0, 1, 0,0) ">
<use xlink:href="#blossom_copy_0_Layer1_0_FILL"/>

<use xlink:href="#blossom_copy_0_Layer1_0_1_STROKES"/>
</g>
</g>

<g transform="matrix( -0.1043701171875, -0.991455078125, 0.991455078125, -0.1043701171875, -3.4,-2.85) ">
<g transform="matrix( 1, 0, 0, 1, 0,0) ">
<use xlink:href="#blossom_0_Layer0_0_FILL"/>

<use xlink:href="#blossom_0_Layer0_0_1_STROKES"/>
</g>
</g>

<g transform="matrix( 0.99310302734375, -0.0865020751953125, 0.0865020751953125, 0.99310302734375, -12.75,-0.3) ">
<g transform="matrix( 1, 0, 0, 1, 0,0) ">
<use xlink:href="#blossom_0_Layer0_0_FILL"/>

<use xlink:href="#blossom_0_Layer0_0_1_STROKES"/>
</g>
</g>
</g>

<g transform="matrix( 1.52252197265625, 0.259735107421875, -0.1703338623046875, 1.3858489990234375, -55.7,-78.15) ">
<g transform="matrix( 0.8142547607421875, -0.950103759765625, 0.950103759765625, 0.8142547607421875, -10.15,0.75) ">
<g transform="matrix( 1, 0, 0, 1, 0,0) ">
<use xlink:href="#blossom_copy_0_Layer1_0_FILL"/>

<use xlink:href="#blossom_copy_0_Layer1_0_1_STROKES"/>
</g>
</g>

<g transform="matrix( 1, 0, 0, 1, -3.8,-3.45) ">
<g transform="matrix( 1, 0, 0, 1, 0,0) ">
<use xlink:href="#blossom_0_Layer0_0_FILL"/>

<use xlink:href="#blossom_0_Layer0_0_1_STROKES"/>
</g>
</g>

<g transform="matrix( 0.8142547607421875, -0.950103759765625, 0.950103759765625, 0.8142547607421875, -1.65,2.7) ">
<g transform="matrix( 1, 0, 0, 1, 0,0) ">
<use xlink:href="#blossom_copy_0_Layer1_0_FILL"/>

<use xlink:href="#blossom_copy_0_Layer1_0_1_STROKES"/>
</g>
</g>

<g transform="matrix( 0.850555419921875, 0.5230712890625, -0.5230712890625, 0.850555419921875, 7.5,-1.35) ">
<g transform="matrix( 1, 0, 0, 1, 0,0) ">
<use xlink:href="#blossom_0_Layer0_0_FILL"/>

<use xlink:href="#blossom_0_Layer0_0_1_STROKES"/>
</g>
</g>

<g transform="matrix( -1.2475738525390625, -0.065277099609375, 0.065277099609375, -1.2475738525390625, 5.35,1.9) ">
<g transform="matrix( 1, 0, 0, 1, 0,0) ">
<use xlink:href="#blossom_copy_0_Layer1_0_FILL"/>

<use xlink:href="#blossom_copy_0_Layer1_0_1_STROKES"/>
</g>
</g>

<g transform="matrix( -0.1043701171875, -0.991455078125, 0.991455078125, -0.1043701171875, -3.4,-2.85) ">
<g transform="matrix( 1, 0, 0, 1, 0,0) ">
<use xlink:href="#blossom_0_Layer0_0_FILL"/>

<use xlink:href="#blossom_0_Layer0_0_1_STROKES"/>
</g>
</g>

<g transform="matrix( 0.99310302734375, -0.0865020751953125, 0.0865020751953125, 0.99310302734375, -12.75,-0.3) ">
<g transform="matrix( 1, 0, 0, 1, 0,0) ">
<use xlink:href="#blossom_0_Layer0_0_FILL"/>

<use xlink:href="#blossom_0_Layer0_0_1_STROKES"/>
</g>
</g>
</g>

<g transform="matrix( -0.12200927734375, 2.09039306640625, 1.94842529296875, 0.1446533203125, -53.85,-37.4) ">
<g transform="matrix( 0.8142547607421875, -0.950103759765625, 0.950103759765625, 0.8142547607421875, -10.15,0.75) ">
<g transform="matrix( 1, 0, 0, 1, 0,0) ">
<use xlink:href="#blossom_copy_0_Layer1_0_FILL"/>

<use xlink:href="#blossom_copy_0_Layer1_0_1_STROKES"/>
</g>
</g>

<g transform="matrix( 1, 0, 0, 1, -3.8,-3.45) ">
<g transform="matrix( 1, 0, 0, 1, 0,0) ">
<use xlink:href="#blossom_0_Layer0_0_FILL"/>

<use xlink:href="#blossom_0_Layer0_0_1_STROKES"/>
</g>
</g>

<g transform="matrix( 0.8142547607421875, -0.950103759765625, 0.950103759765625, 0.8142547607421875, -1.65,2.7) ">
<g transform="matrix( 1, 0, 0, 1, 0,0) ">
<use xlink:href="#blossom_copy_0_Layer1_0_FILL"/>

<use xlink:href="#blossom_copy_0_Layer1_0_1_STROKES"/>
</g>
</g>

<g transform="matrix( 0.850555419921875, 0.5230712890625, -0.5230712890625, 0.850555419921875, 7.5,-1.35) ">
<g transform="matrix( 1, 0, 0, 1, 0,0) ">
<use xlink:href="#blossom_0_Layer0_0_FILL"/>

<use xlink:href="#blossom_0_Layer0_0_1_STROKES"/>
</g>
</g>

<g transform="matrix( -1.2475738525390625, -0.065277099609375, 0.065277099609375, -1.2475738525390625, 5.35,1.9) ">
<g transform="matrix( 1, 0, 0, 1, 0,0) ">
<use xlink:href="#blossom_copy_0_Layer1_0_FILL"/>

<use xlink:href="#blossom_copy_0_Layer1_0_1_STROKES"/>
</g>
</g>

<g transform="matrix( -0.1043701171875, -0.991455078125, 0.991455078125, -0.1043701171875, -3.4,-2.85) ">
<g transform="matrix( 1, 0, 0, 1, 0,0) ">
<use xlink:href="#blossom_0_Layer0_0_FILL"/>

<use xlink:href="#blossom_0_Layer0_0_1_STROKES"/>
</g>
</g>

<g transform="matrix( 0.99310302734375, -0.0865020751953125, 0.0865020751953125, 0.99310302734375, -12.75,-0.3) ">
<g transform="matrix( 1, 0, 0, 1, 0,0) ">
<use xlink:href="#blossom_0_Layer0_0_FILL"/>

<use xlink:href="#blossom_0_Layer0_0_1_STROKES"/>
</g>
</g>
</g>

<g transform="matrix( 1.0476531982421875, 0.69830322265625, 0.948455810546875, -1.089111328125, -31,-69.25) ">
<g transform="matrix( 0.8142547607421875, -0.950103759765625, 0.950103759765625, 0.8142547607421875, -10.15,0.75) ">
<g transform="matrix( 1, 0, 0, 1, 0,0) ">
<use xlink:href="#blossom_copy_0_Layer1_0_FILL"/>

<use xlink:href="#blossom_copy_0_Layer1_0_1_STROKES"/>
</g>
</g>

<g transform="matrix( 1, 0, 0, 1, -3.8,-3.45) ">
<g transform="matrix( 1, 0, 0, 1, 0,0) ">
<use xlink:href="#blossom_0_Layer0_0_FILL"/>

<use xlink:href="#blossom_0_Layer0_0_1_STROKES"/>
</g>
</g>

<g transform="matrix( 0.8142547607421875, -0.950103759765625, 0.950103759765625, 0.8142547607421875, -1.65,2.7) ">
<g transform="matrix( 1, 0, 0, 1, 0,0) ">
<use xlink:href="#blossom_copy_0_Layer1_0_FILL"/>

<use xlink:href="#blossom_copy_0_Layer1_0_1_STROKES"/>
</g>
</g>

<g transform="matrix( 0.850555419921875, 0.5230712890625, -0.5230712890625, 0.850555419921875, 7.5,-1.35) ">
<g transform="matrix( 1, 0, 0, 1, 0,0) ">
<use xlink:href="#blossom_0_Layer0_0_FILL"/>

<use xlink:href="#blossom_0_Layer0_0_1_STROKES"/>
</g>
</g>

<g transform="matrix( -1.2475738525390625, -0.065277099609375, 0.065277099609375, -1.2475738525390625, 5.35,1.9) ">
<g transform="matrix( 1, 0, 0, 1, 0,0) ">
<use xlink:href="#blossom_copy_0_Layer1_0_FILL"/>

<use xlink:href="#blossom_copy_0_Layer1_0_1_STROKES"/>
</g>
</g>

<g transform="matrix( -0.1043701171875, -0.991455078125, 0.991455078125, -0.1043701171875, -3.4,-2.85) ">
<g transform="matrix( 1, 0, 0, 1, 0,0) ">
<use xlink:href="#blossom_0_Layer0_0_FILL"/>

<use xlink:href="#blossom_0_Layer0_0_1_STROKES"/>
</g>
</g>

<g transform="matrix( 0.99310302734375, -0.0865020751953125, 0.0865020751953125, 0.99310302734375, -12.75,-0.3) ">
<g transform="matrix( 1, 0, 0, 1, 0,0) ">
<use xlink:href="#blossom_0_Layer0_0_FILL"/>

<use xlink:href="#blossom_0_Layer0_0_1_STROKES"/>
</g>
</g>
</g>

<g transform="matrix( 0.26202392578125, -0.8455047607421875, 0.90716552734375, 0.2997894287109375, -16.8,-39.9) ">
<g transform="matrix( 0.8142547607421875, -0.950103759765625, 0.950103759765625, 0.8142547607421875, -10.15,0.75) ">
<g transform="matrix( 1, 0, 0, 1, 0,0) ">
<use xlink:href="#blossom_copy_0_Layer1_0_FILL"/>

<use xlink:href="#blossom_copy_0_Layer1_0_1_STROKES"/>
</g>
</g>

<g transform="matrix( 1, 0, 0, 1, -3.8,-3.45) ">
<g transform="matrix( 1, 0, 0, 1, 0,0) ">
<use xlink:href="#blossom_0_Layer0_0_FILL"/>

<use xlink:href="#blossom_0_Layer0_0_1_STROKES"/>
</g>
</g>

<g transform="matrix( 0.8142547607421875, -0.950103759765625, 0.950103759765625, 0.8142547607421875, -1.65,2.7) ">
<g transform="matrix( 1, 0, 0, 1, 0,0) ">
<use xlink:href="#blossom_copy_0_Layer1_0_FILL"/>

<use xlink:href="#blossom_copy_0_Layer1_0_1_STROKES"/>
</g>
</g>

<g transform="matrix( 0.850555419921875, 0.5230712890625, -0.5230712890625, 0.850555419921875, 7.5,-1.35) ">
<g transform="matrix( 1, 0, 0, 1, 0,0) ">
<use xlink:href="#blossom_0_Layer0_0_FILL"/>

<use xlink:href="#blossom_0_Layer0_0_1_STROKES"/>
</g>
</g>

<g transform="matrix( -1.2475738525390625, -0.065277099609375, 0.065277099609375, -1.2475738525390625, 5.35,1.9) ">
<g transform="matrix( 1, 0, 0, 1, 0,0) ">
<use xlink:href="#blossom_copy_0_Layer1_0_FILL"/>

<use xlink:href="#blossom_copy_0_Layer1_0_1_STROKES"/>
</g>
</g>

<g transform="matrix( -0.1043701171875, -0.991455078125, 0.991455078125, -0.1043701171875, -3.4,-2.85) ">
<g transform="matrix( 1, 0, 0, 1, 0,0) ">
<use xlink:href="#blossom_0_Layer0_0_FILL"/>

<use xlink:href="#blossom_0_Layer0_0_1_STROKES"/>
</g>
</g>

<g transform="matrix( 0.99310302734375, -0.0865020751953125, 0.0865020751953125, 0.99310302734375, -12.75,-0.3) ">
<g transform="matrix( 1, 0, 0, 1, 0,0) ">
<use xlink:href="#blossom_0_Layer0_0_FILL"/>

<use xlink:href="#blossom_0_Layer0_0_1_STROKES"/>
</g>
</g>
</g>

<g transform="matrix( -1.1120452880859375, -0.9058685302734375, -0.790069580078125, 0.8824462890625, 54.6,-48.45) ">
<g transform="matrix( 0.8142547607421875, -0.950103759765625, 0.950103759765625, 0.8142547607421875, -10.15,0.75) ">
<g transform="matrix( 1, 0, 0, 1, 0,0) ">
<use xlink:href="#blossom_copy_0_Layer1_0_FILL"/>

<use xlink:href="#blossom_copy_0_Layer1_0_1_STROKES"/>
</g>
</g>

<g transform="matrix( 1, 0, 0, 1, -3.8,-3.45) ">
<g transform="matrix( 1, 0, 0, 1, 0,0) ">
<use xlink:href="#blossom_0_Layer0_0_FILL"/>

<use xlink:href="#blossom_0_Layer0_0_1_STROKES"/>
</g>
</g>

<g transform="matrix( 0.8142547607421875, -0.950103759765625, 0.950103759765625, 0.8142547607421875, -1.65,2.7) ">
<g transform="matrix( 1, 0, 0, 1, 0,0) ">
<use xlink:href="#blossom_copy_0_Layer1_0_FILL"/>

<use xlink:href="#blossom_copy_0_Layer1_0_1_STROKES"/>
</g>
</g>

<g transform="matrix( 0.850555419921875, 0.5230712890625, -0.5230712890625, 0.850555419921875, 7.5,-1.35) ">
<g transform="matrix( 1, 0, 0, 1, 0,0) ">
<use xlink:href="#blossom_0_Layer0_0_FILL"/>

<use xlink:href="#blossom_0_Layer0_0_1_STROKES"/>
</g>
</g>

<g transform="matrix( -1.2475738525390625, -0.065277099609375, 0.065277099609375, -1.2475738525390625, 5.35,1.9) ">
<g transform="matrix( 1, 0, 0, 1, 0,0) ">
<use xlink:href="#blossom_copy_0_Layer1_0_FILL"/>

<use xlink:href="#blossom_copy_0_Layer1_0_1_STROKES"/>
</g>
</g>

<g transform="matrix( -0.1043701171875, -0.991455078125, 0.991455078125, -0.1043701171875, -3.4,-2.85) ">
<g transform="matrix( 1, 0, 0, 1, 0,0) ">
<use xlink:href="#blossom_0_Layer0_0_FILL"/>

<use xlink:href="#blossom_0_Layer0_0_1_STROKES"/>
</g>
</g>

<g transform="matrix( 0.99310302734375, -0.0865020751953125, 0.0865020751953125, 0.99310302734375, -12.75,-0.3) ">
<g transform="matrix( 1, 0, 0, 1, 0,0) ">
<use xlink:href="#blossom_0_Layer0_0_FILL"/>

<use xlink:href="#blossom_0_Layer0_0_1_STROKES"/>
</g>
</g>
</g>

<g transform="matrix( 0.97381591796875, -0.9291839599609375, 0.99774169921875, 0.74627685546875, 18.75,-60.2) ">
<g transform="matrix( 0.8142547607421875, -0.950103759765625, 0.950103759765625, 0.8142547607421875, -10.15,0.75) ">
<g transform="matrix( 1, 0, 0, 1, 0,0) ">
<use xlink:href="#blossom_copy_0_Layer1_0_FILL"/>

<use xlink:href="#blossom_copy_0_Layer1_0_1_STROKES"/>
</g>
</g>

<g transform="matrix( 1, 0, 0, 1, -3.8,-3.45) ">
<g transform="matrix( 1, 0, 0, 1, 0,0) ">
<use xlink:href="#blossom_0_Layer0_0_FILL"/>

<use xlink:href="#blossom_0_Layer0_0_1_STROKES"/>
</g>
</g>

<g transform="matrix( 0.8142547607421875, -0.950103759765625, 0.950103759765625, 0.8142547607421875, -1.65,2.7) ">
<g transform="matrix( 1, 0, 0, 1, 0,0) ">
<use xlink:href="#blossom_copy_0_Layer1_0_FILL"/>

<use xlink:href="#blossom_copy_0_Layer1_0_1_STROKES"/>
</g>
</g>

<g transform="matrix( 0.850555419921875, 0.5230712890625, -0.5230712890625, 0.850555419921875, 7.5,-1.35) ">
<g transform="matrix( 1, 0, 0, 1, 0,0) ">
<use xlink:href="#blossom_0_Layer0_0_FILL"/>

<use xlink:href="#blossom_0_Layer0_0_1_STROKES"/>
</g>
</g>

<g transform="matrix( -1.2475738525390625, -0.065277099609375, 0.065277099609375, -1.2475738525390625, 5.35,1.9) ">
<g transform="matrix( 1, 0, 0, 1, 0,0) ">
<use xlink:href="#blossom_copy_0_Layer1_0_FILL"/>

<use xlink:href="#blossom_copy_0_Layer1_0_1_STROKES"/>
</g>
</g>

<g transform="matrix( -0.1043701171875, -0.991455078125, 0.991455078125, -0.1043701171875, -3.4,-2.85) ">
<g transform="matrix( 1, 0, 0, 1, 0,0) ">
<use xlink:href="#blossom_0_Layer0_0_FILL"/>

<use xlink:href="#blossom_0_Layer0_0_1_STROKES"/>
</g>
</g>

<g transform="matrix( 0.99310302734375, -0.0865020751953125, 0.0865020751953125, 0.99310302734375, -12.75,-0.3) ">
<g transform="matrix( 1, 0, 0, 1, 0,0) ">
<use xlink:href="#blossom_0_Layer0_0_FILL"/>

<use xlink:href="#blossom_0_Layer0_0_1_STROKES"/>
</g>
</g>
</g>

<g transform="matrix( -1.7276611328125, -0.82757568359375, -0.769775390625, 1.43719482421875, 59.75,-73.35) ">
<g transform="matrix( 0.8142547607421875, -0.950103759765625, 0.950103759765625, 0.8142547607421875, -10.15,0.75) ">
<g transform="matrix( 1, 0, 0, 1, 0,0) ">
<use xlink:href="#blossom_copy_0_Layer1_0_FILL"/>

<use xlink:href="#blossom_copy_0_Layer1_0_1_STROKES"/>
</g>
</g>

<g transform="matrix( 1, 0, 0, 1, -3.8,-3.45) ">
<g transform="matrix( 1, 0, 0, 1, 0,0) ">
<use xlink:href="#blossom_0_Layer0_0_FILL"/>

<use xlink:href="#blossom_0_Layer0_0_1_STROKES"/>
</g>
</g>

<g transform="matrix( 0.8142547607421875, -0.950103759765625, 0.950103759765625, 0.8142547607421875, -1.65,2.7) ">
<g transform="matrix( 1, 0, 0, 1, 0,0) ">
<use xlink:href="#blossom_copy_0_Layer1_0_FILL"/>

<use xlink:href="#blossom_copy_0_Layer1_0_1_STROKES"/>
</g>
</g>

<g transform="matrix( 0.850555419921875, 0.5230712890625, -0.5230712890625, 0.850555419921875, 7.5,-1.35) ">
<g transform="matrix( 1, 0, 0, 1, 0,0) ">
<use xlink:href="#blossom_0_Layer0_0_FILL"/>

<use xlink:href="#blossom_0_Layer0_0_1_STROKES"/>
</g>
</g>

<g transform="matrix( -1.2475738525390625, -0.065277099609375, 0.065277099609375, -1.2475738525390625, 5.35,1.9) ">
<g transform="matrix( 1, 0, 0, 1, 0,0) ">
<use xlink:href="#blossom_copy_0_Layer1_0_FILL"/>

<use xlink:href="#blossom_copy_0_Layer1_0_1_STROKES"/>
</g>
</g>

<g transform="matrix( -0.1043701171875, -0.991455078125, 0.991455078125, -0.1043701171875, -3.4,-2.85) ">
<g transform="matrix( 1, 0, 0, 1, 0,0) ">
<use xlink:href="#blossom_0_Layer0_0_FILL"/>

<use xlink:href="#blossom_0_Layer0_0_1_STROKES"/>
</g>
</g>

<g transform="matrix( 0.99310302734375, -0.0865020751953125, 0.0865020751953125, 0.99310302734375, -12.75,-0.3) ">
<g transform="matrix( 1, 0, 0, 1, 0,0) ">
<use xlink:href="#blossom_0_Layer0_0_FILL"/>

<use xlink:href="#blossom_0_Layer0_0_1_STROKES"/>
</g>
</g>
</g>

<g transform="matrix( -1.29022216796875, 0.44244384765625, -0.487396240234375, -1.2410888671875, 21.65,-86.95) ">
<g transform="matrix( 0.8142547607421875, -0.950103759765625, 0.950103759765625, 0.8142547607421875, -10.15,0.75) ">
<g transform="matrix( 1, 0, 0, 1, 0,0) ">
<use xlink:href="#blossom_copy_0_Layer1_0_FILL"/>

<use xlink:href="#blossom_copy_0_Layer1_0_1_STROKES"/>
</g>
</g>

<g transform="matrix( 1, 0, 0, 1, -3.8,-3.45) ">
<g transform="matrix( 1, 0, 0, 1, 0,0) ">
<use xlink:href="#blossom_0_Layer0_0_FILL"/>

<use xlink:href="#blossom_0_Layer0_0_1_STROKES"/>
</g>
</g>

<g transform="matrix( 0.8142547607421875, -0.950103759765625, 0.950103759765625, 0.8142547607421875, -1.65,2.7) ">
<g transform="matrix( 1, 0, 0, 1, 0,0) ">
<use xlink:href="#blossom_copy_0_Layer1_0_FILL"/>

<use xlink:href="#blossom_copy_0_Layer1_0_1_STROKES"/>
</g>
</g>

<g transform="matrix( 0.850555419921875, 0.5230712890625, -0.5230712890625, 0.850555419921875, 7.5,-1.35) ">
<g transform="matrix( 1, 0, 0, 1, 0,0) ">
<use xlink:href="#blossom_0_Layer0_0_FILL"/>

<use xlink:href="#blossom_0_Layer0_0_1_STROKES"/>
</g>
</g>

<g transform="matrix( -1.2475738525390625, -0.065277099609375, 0.065277099609375, -1.2475738525390625, 5.35,1.9) ">
<g transform="matrix( 1, 0, 0, 1, 0,0) ">
<use xlink:href="#blossom_copy_0_Layer1_0_FILL"/>

<use xlink:href="#blossom_copy_0_Layer1_0_1_STROKES"/>
</g>
</g>

<g transform="matrix( -0.1043701171875, -0.991455078125, 0.991455078125, -0.1043701171875, -3.4,-2.85) ">
<g transform="matrix( 1, 0, 0, 1, 0,0) ">
<use xlink:href="#blossom_0_Layer0_0_FILL"/>

<use xlink:href="#blossom_0_Layer0_0_1_STROKES"/>
</g>
</g>

<g transform="matrix( 0.99310302734375, -0.0865020751953125, 0.0865020751953125, 0.99310302734375, -12.75,-0.3) ">
<g transform="matrix( 1, 0, 0, 1, 0,0) ">
<use xlink:href="#blossom_0_Layer0_0_FILL"/>

<use xlink:href="#blossom_0_Layer0_0_1_STROKES"/>
</g>
</g>
</g>

<g transform="matrix( 0.71197509765625, -1.173309326171875, 1.173309326171875, 0.71197509765625, -3.15,-67.35) ">
<g transform="matrix( 0.8142547607421875, -0.950103759765625, 0.950103759765625, 0.8142547607421875, -10.15,0.75) ">
<g transform="matrix( 1, 0, 0, 1, 0,0) ">
<use xlink:href="#blossom_copy_0_Layer1_0_FILL"/>

<use xlink:href="#blossom_copy_0_Layer1_0_1_STROKES"/>
</g>
</g>

<g transform="matrix( 1, 0, 0, 1, -3.8,-3.45) ">
<g transform="matrix( 1, 0, 0, 1, 0,0) ">
<use xlink:href="#blossom_0_Layer0_0_FILL"/>

<use xlink:href="#blossom_0_Layer0_0_1_STROKES"/>
</g>
</g>

<g transform="matrix( 0.8142547607421875, -0.950103759765625, 0.950103759765625, 0.8142547607421875, -1.65,2.7) ">
<g transform="matrix( 1, 0, 0, 1, 0,0) ">
<use xlink:href="#blossom_copy_0_Layer1_0_FILL"/>

<use xlink:href="#blossom_copy_0_Layer1_0_1_STROKES"/>
</g>
</g>

<g transform="matrix( 0.850555419921875, 0.5230712890625, -0.5230712890625, 0.850555419921875, 7.5,-1.35) ">
<g transform="matrix( 1, 0, 0, 1, 0,0) ">
<use xlink:href="#blossom_0_Layer0_0_FILL"/>

<use xlink:href="#blossom_0_Layer0_0_1_STROKES"/>
</g>
</g>

<g transform="matrix( -1.2475738525390625, -0.065277099609375, 0.065277099609375, -1.2475738525390625, 5.35,1.9) ">
<g transform="matrix( 1, 0, 0, 1, 0,0) ">
<use xlink:href="#blossom_copy_0_Layer1_0_FILL"/>

<use xlink:href="#blossom_copy_0_Layer1_0_1_STROKES"/>
</g>
</g>

<g transform="matrix( -0.1043701171875, -0.991455078125, 0.991455078125, -0.1043701171875, -3.4,-2.85) ">
<g transform="matrix( 1, 0, 0, 1, 0,0) ">
<use xlink:href="#blossom_0_Layer0_0_FILL"/>

<use xlink:href="#blossom_0_Layer0_0_1_STROKES"/>
</g>
</g>

<g transform="matrix( 0.99310302734375, -0.0865020751953125, 0.0865020751953125, 0.99310302734375, -12.75,-0.3) ">
<g transform="matrix( 1, 0, 0, 1, 0,0) ">
<use xlink:href="#blossom_0_Layer0_0_FILL"/>

<use xlink:href="#blossom_0_Layer0_0_1_STROKES"/>
</g>
</g>
</g>

<g transform="matrix( -0.3714599609375, -1.506195068359375, 1.506195068359375, -0.3714599609375, -11.1,-100.85) ">
<g transform="matrix( 0.8142547607421875, -0.950103759765625, 0.950103759765625, 0.8142547607421875, -10.15,0.75) ">
<g transform="matrix( 1, 0, 0, 1, 0,0) ">
<use xlink:href="#blossom_copy_0_Layer1_0_FILL"/>

<use xlink:href="#blossom_copy_0_Layer1_0_1_STROKES"/>
</g>
</g>

<g transform="matrix( 1, 0, 0, 1, -3.8,-3.45) ">
<g transform="matrix( 1, 0, 0, 1, 0,0) ">
<use xlink:href="#blossom_0_Layer0_0_FILL"/>

<use xlink:href="#blossom_0_Layer0_0_1_STROKES"/>
</g>
</g>

<g transform="matrix( 0.8142547607421875, -0.950103759765625, 0.950103759765625, 0.8142547607421875, -1.65,2.7) ">
<g transform="matrix( 1, 0, 0, 1, 0,0) ">
<use xlink:href="#blossom_copy_0_Layer1_0_FILL"/>

<use xlink:href="#blossom_copy_0_Layer1_0_1_STROKES"/>
</g>
</g>

<g transform="matrix( 0.850555419921875, 0.5230712890625, -0.5230712890625, 0.850555419921875, 7.5,-1.35) ">
<g transform="matrix( 1, 0, 0, 1, 0,0) ">
<use xlink:href="#blossom_0_Layer0_0_FILL"/>

<use xlink:href="#blossom_0_Layer0_0_1_STROKES"/>
</g>
</g>

<g transform="matrix( -1.2475738525390625, -0.065277099609375, 0.065277099609375, -1.2475738525390625, 5.35,1.9) ">
<g transform="matrix( 1, 0, 0, 1, 0,0) ">
<use xlink:href="#blossom_copy_0_Layer1_0_FILL"/>

<use xlink:href="#blossom_copy_0_Layer1_0_1_STROKES"/>
</g>
</g>

<g transform="matrix( -0.1043701171875, -0.991455078125, 0.991455078125, -0.1043701171875, -3.4,-2.85) ">
<g transform="matrix( 1, 0, 0, 1, 0,0) ">
<use xlink:href="#blossom_0_Layer0_0_FILL"/>

<use xlink:href="#blossom_0_Layer0_0_1_STROKES"/>
</g>
</g>

<g transform="matrix( 0.99310302734375, -0.0865020751953125, 0.0865020751953125, 0.99310302734375, -12.75,-0.3) ">
<g transform="matrix( 1, 0, 0, 1, 0,0) ">
<use xlink:href="#blossom_0_Layer0_0_FILL"/>

<use xlink:href="#blossom_0_Layer0_0_1_STROKES"/>
</g>
</g>
</g>

<g transform="matrix( -0.59698486328125, 0.572784423828125, 0.572784423828125, 0.59698486328125, 23.15,-38.55) ">
<g transform="matrix( 0.8142547607421875, -0.950103759765625, 0.950103759765625, 0.8142547607421875, -10.15,0.75) ">
<g transform="matrix( 1, 0, 0, 1, 0,0) ">
<use xlink:href="#blossom_copy_0_Layer1_0_FILL"/>

<use xlink:href="#blossom_copy_0_Layer1_0_1_STROKES"/>
</g>
</g>

<g transform="matrix( 1, 0, 0, 1, -3.8,-3.45) ">
<g transform="matrix( 1, 0, 0, 1, 0,0) ">
<use xlink:href="#blossom_0_Layer0_0_FILL"/>

<use xlink:href="#blossom_0_Layer0_0_1_STROKES"/>
</g>
</g>

<g transform="matrix( 0.8142547607421875, -0.950103759765625, 0.950103759765625, 0.8142547607421875, -1.65,2.7) ">
<g transform="matrix( 1, 0, 0, 1, 0,0) ">
<use xlink:href="#blossom_copy_0_Layer1_0_FILL"/>

<use xlink:href="#blossom_copy_0_Layer1_0_1_STROKES"/>
</g>
</g>

<g transform="matrix( 0.850555419921875, 0.5230712890625, -0.5230712890625, 0.850555419921875, 7.5,-1.35) ">
<g transform="matrix( 1, 0, 0, 1, 0,0) ">
<use xlink:href="#blossom_0_Layer0_0_FILL"/>

<use xlink:href="#blossom_0_Layer0_0_1_STROKES"/>
</g>
</g>

<g transform="matrix( -1.2475738525390625, -0.065277099609375, 0.065277099609375, -1.2475738525390625, 5.35,1.9) ">
<g transform="matrix( 1, 0, 0, 1, 0,0) ">
<use xlink:href="#blossom_copy_0_Layer1_0_FILL"/>

<use xlink:href="#blossom_copy_0_Layer1_0_1_STROKES"/>
</g>
</g>

<g transform="matrix( -0.1043701171875, -0.991455078125, 0.991455078125, -0.1043701171875, -3.4,-2.85) ">
<g transform="matrix( 1, 0, 0, 1, 0,0) ">
<use xlink:href="#blossom_0_Layer0_0_FILL"/>

<use xlink:href="#blossom_0_Layer0_0_1_STROKES"/>
</g>
</g>

<g transform="matrix( 0.99310302734375, -0.0865020751953125, 0.0865020751953125, 0.99310302734375, -12.75,-0.3) ">
<g transform="matrix( 1, 0, 0, 1, 0,0) ">
<use xlink:href="#blossom_0_Layer0_0_FILL"/>

<use xlink:href="#blossom_0_Layer0_0_1_STROKES"/>
</g>
</g>
</g>
</g>

<g transform="matrix( 0.622344970703125, 0.008270263671875, -0.0099945068359375, 0.760040283203125, 234.35,500) ">
<g transform="matrix( 1, 0, 0, 1, 0,0) ">
<use xlink:href="#flames_0_Layer1_0_FILL"/>
</g>

<g transform="matrix( 1, 0, 0, 1, 0,0) ">
<use xlink:href="#flames_0_Layer0_0_FILL"/>
</g>
</g>

<g transform="matrix( -0.9814910888671875, -0.0129241943359375, -0.0144805908203125, 1.0936737060546875, 307.3,511) ">
<g transform="matrix( 1, 0, 0, 1, 0,0) ">
<use xlink:href="#flames_0_Layer1_0_FILL"/>
</g>

<g transform="matrix( 1, 0, 0, 1, 0,0) ">
<use xlink:href="#flames_0_Layer0_0_FILL"/>
</g>
</g>

<g transform="matrix( -0.9814910888671875, -0.0129241943359375, -0.0144805908203125, 1.0936737060546875, 341.3,507.6) ">
<g transform="matrix( 1, 0, 0, 1, 0,0) ">
<use xlink:href="#flames_0_Layer1_0_FILL"/>
</g>

<g transform="matrix( 1, 0, 0, 1, 0,0) ">
<use xlink:href="#flames_0_Layer0_0_FILL"/>
</g>
</g>

<g transform="matrix( 0.622344970703125, 0.008270263671875, -0.0099945068359375, 0.760040283203125, 347.3,507.25) ">
<g transform="matrix( 1, 0, 0, 1, 0,0) ">
<use xlink:href="#flames_0_Layer1_0_FILL"/>
</g>

<g transform="matrix( 1, 0, 0, 1, 0,0) ">
<use xlink:href="#flames_0_Layer0_0_FILL"/>
</g>
</g>

<g transform="matrix( 0.6099853515625, -0.0101470947265625, 0.0090179443359375, 0.859344482421875, 319.05,509) ">
<g transform="matrix( 1, 0, 0, 1, 0,0) ">
<use xlink:href="#flames_0_Layer1_0_FILL"/>
</g>

<g transform="matrix( 1, 0, 0, 1, 0,0) ">
<use xlink:href="#flames_0_Layer0_0_FILL"/>
</g>
</g>

<g transform="matrix( 0.6099853515625, -0.0101470947265625, 0.0090179443359375, 0.859344482421875, 281.5,511.55) ">
<g transform="matrix( 1, 0, 0, 1, 0,0) ">
<use xlink:href="#flames_0_Layer1_0_FILL"/>
</g>

<g transform="matrix( 1, 0, 0, 1, 0,0) ">
<use xlink:href="#flames_0_Layer0_0_FILL"/>
</g>
</g>

<g transform="matrix( -0.622344970703125, 0.008270263671875, 0.0099945068359375, 0.760040283203125, 364.65,498.6) ">
<g transform="matrix( 1, 0, 0, 1, 0,0) ">
<use xlink:href="#flames_0_Layer1_0_FILL"/>
</g>

<g transform="matrix( 1, 0, 0, 1, 0,0) ">
<use xlink:href="#flames_0_Layer0_0_FILL"/>
</g>
</g>

<g transform="matrix( -0.622344970703125, 0.008270263671875, 0.0099945068359375, 0.760040283203125, 276.55,510.6) ">
<g transform="matrix( 1, 0, 0, 1, 0,0) ">
<use xlink:href="#flames_0_Layer1_0_FILL"/>
</g>

<g transform="matrix( 1, 0, 0, 1, 0,0) ">
<use xlink:href="#flames_0_Layer0_0_FILL"/>
</g>
</g>

<g transform="matrix( -0.9814910888671875, -0.0129241943359375, -0.0144805908203125, 1.0936737060546875, 260.75,506.25) ">
<g transform="matrix( 1, 0, 0, 1, 0,0) ">
<use xlink:href="#flames_0_Layer1_0_FILL"/>
</g>

<g transform="matrix( 1, 0, 0, 1, 0,0) ">
<use xlink:href="#flames_0_Layer0_0_FILL"/>
</g>
</g>
</svg>
