
<svg xmlns="http://www.w3.org/2000/svg" version="1.1" xmlns:xlink="http://www.w3.org/1999/xlink" preserveAspectRatio="none" x="0px" y="0px" width="560px" height="544px" viewBox="0 0 560 544">
<defs>
<filter id="Filter_1" x="-20%" y="-20%" width="140%" height="140%" color-interpolation-filters="sRGB">
<feFlood flood-color="#FF99FF" flood-opacity="1" in="SourceGraphic" result="result1"/>

<feGaussianBlur in="SourceGraphic" stdDeviation="1.6666666666666667,1.6666666666666667" result="result2"/>

<feComposite in2="result2" in="result1" operator="in" result="result3"/>

<feComposite in2="result3" in="SourceGraphic" operator="over" result="result4"/>
</filter>

<filter id="Filter_2" x="-20%" y="-20%" width="140%" height="140%" color-interpolation-filters="sRGB">
<feColorMatrix in="SourceGraphic" type="matrix" values="1 0 0 0 0 0 1 0 0 0 0 0 1 0 0 0 0 0 0 0" result="result1"/>
</filter>

<g id="full_grown_0_Layer0_0_FILL">
<path fill="#CC6666" stroke="none" d="
M 50.45 58.1
L 50.45 58.3
Q 50.5875 58.2837890625 50.7 58.25 50.5794921875 58.20078125 50.45 58.1
M 36.65 55.85
Q 35.7 55.85 36.65 56.8 36.77109375 56.8333984375 36.9 56.85
L 36.65 55.85 Z"/>

<path fill="#FFEDE6" stroke="none" d="
M 52.3 58.15
Q 52.4134765625 57.953515625 52.35 57.7 52.15 57.25 51.7 56.85 51.25 56.55 50.8 56.45 50.25 56.3 49.95 56.6 49.7 56.9 49.85 57.3 50 57.8 50.45 58.1 50.5794921875 58.20078125 50.7 58.25 51.0439453125 58.4787109375 51.4 58.55 51.9 58.7 52.15 58.35 52.2599609375 58.2583984375 52.3 58.15
M 63.7 55.5
Q 63.669921875 55.5 63.6 55.5 63.2791015625 55.5 63.05 55.75 63.020703125 55.7751953125 63 55.8 62.8 55.95 62.85 56.3 62.85 56.55 63.05 56.8 63.35 56.95 63.75 56.95 64 56.95 64.25 56.8 64.5 56.5 64.5 56.2 64.5 55.9 64.2 55.7 64 55.5400390625 63.7 55.5
M 30.6 60.6
Q 30.85 60.35 30.8 60 30.75 59.65 30.35 59.35 30 59.1 29.6 59.05 29.2 59 28.95 59.2 28.7 59.45 28.75 59.8 28.8455078125 60.08671875 29 60.25 29.123046875 60.37734375 29.25 60.45 29.6 60.75 29.95 60.75 30.2875 60.7921875 30.5 60.65 30.5609375 60.63125 30.6 60.6
M 14 43.95
Q 14 43.6 13.75 43.45 13.45 43.2 13.1 43.2 12.86484375 43.2392578125 12.65 43.4 12.6041015625 43.4458984375 12.55 43.5 12.35 43.75 12.35 44.05 12.35 44.35 12.65 44.55 12.803515625 44.703515625 13.05 44.75 13.11875 44.75 13.2 44.75 13.6 44.7 13.8 44.45 14.05 44.2 14 43.95
M 12 54.4
Q 11.75 54.7 11.8 55.2 12.05 55.6 12.45 55.95 12.85 56.3 13.35 56.45 13.95 56.5 14.15 56.25 14.45 55.95 14.3 55.55 14.1 55.05 13.7 54.7 13.3 54.3 12.75 54.25 12.25 54.2 12 54.4
M 20.5 59.1
Q 20.9 59.35 21.3 59.35 21.7 59.4 21.95 59.2 22.2 58.95 22.05 58.55 22 58.25 21.65 58 21.35 57.7 20.9 57.6 20.45 57.6 20.25 57.85 20 58.1 20.1 58.4 20.25 58.75 20.5 59.1
M 13.8 48.6
Q 13.45 48.65 13.15 48.95 12.8 49.25 12.75 49.65 12.75 49.95 13 50.2 13.3 50.4 13.65 50.4 14.05 50.2 14.4 49.9 14.7 49.6 14.7 49.3 14.75 48.9 14.45 48.65 14.25 48.5 13.8 48.6
M 9.2 47.25
Q 9.45 46.75 9.25 46.25 9.05 45.65 8.5 45.35 7.8 45.05 7.25 45.15 6.6 45.35 6.35 45.8 6.05 46.25 6.2 46.75 6.35 47.3 7 47.65 7.6 47.95 8.25 47.85 8.9 47.65 9.2 47.25
M 2.8 45.65
Q 2.95 45.4 2.85 45.15 2.8 44.85 2.5 44.6 2.2 44.4 1.85 44.25 1.55 44.25 1.35 44.5 1.2 44.7 1.25 44.9 1.35 45.2 1.65 45.45 1.95 45.7 2.25 45.75 2.6 45.8 2.8 45.65
M 8.5 39
Q 8.2 39.3 8.1 39.65 8.2 40.1 8.55 40.35 8.9 40.65 9.3 40.6 9.85 40.6 10.15 40.3 10.45 40 10.35 39.6 10.45 39.15 10.1 38.85 9.7 38.55 9.2 38.55 8.75 38.65 8.5 39
M 9.85 34.4
Q 9.8 33.95 9.35 33.6 8.9 33.25 8.3 33.15 7.75 33.15 7.4 33.55 7.1 33.8 7.15 34.3 7.3 34.75 7.75 35.15 8.2 35.5 8.7 35.55 9.3 35.55 9.6 35.25 9.95 34.95 9.85 34.4
M 54.1 68.4
Q 53.8 68.85 54 69.25 54.1 69.65 54.65 69.85 55.25 69.95 55.75 69.9 56.35 69.65 56.6 69.25 56.95 68.9 56.85 68.4 56.65 68 56.05 67.9 55.6 67.7 55 67.9 54.45 68 54.1 68.4
M 55.1 63.45
Q 55.5 63.4 55.65 63.1 55.85 62.85 55.65 62.5 55.6 62.25 55.3 62.15 55 62 54.7 62.05 54.3 62.2 54.1 62.5 54 62.7 54.1 63 54.25 63.3 54.55 63.45 54.8 63.55 55.1 63.45
M 46.8 62.2
Q 46.3 62.35 45.9 62.7 45.65 63.15 45.8 63.55 46 63.9 46.5 64.1 47.05 64.2 47.6 64.1 48.1 63.85 48.4 63.45 48.75 63.1 48.55 62.65 48.4 62.3 47.9 62.15 47.35 61.95 46.8 62.2
M 63 68
Q 63.3 67.55 63.05 66.95 62.85 66.4 62.2 66.05 61.7 65.85 61.1 66 60.6 66.1 60.3 66.7 60 67.25 60.2 67.9 60.45 68.4 61.05 68.65 61.65 68.95 62.2 68.8 62.8 68.6 63 68
M 67.45 67.95
Q 67.95 67.95 68.1 67.45 68.3 67.25 68.2 66.75 67.95 66.4 67.5 66.15 67.15 66 66.8 66.1 66.4 66.35 66.2 66.6 66.05 66.95 66.15 67.35 66.4 67.85 66.75 67.95 67.15 68.2 67.45 67.95
M 69.65 58.5
Q 69.35 58.25 68.9 58.35 68.35 58.25 68.05 58.55 67.75 58.85 67.75 59.35 67.8 59.75 68.1 60 68.45 60.3 68.95 60.35 69.5 60.3 69.8 59.95 70.1 59.65 70.1 59.3 70 58.8 69.65 58.5
M 61.85 59.65
Q 61.65 59.85 61.75 60.1 61.85 60.35 62.1 60.6 62.4 60.9 62.8 60.9 63.05 60.95 63.25 60.75 63.45 60.6 63.35 60.3 63.25 60 62.95 59.75 62.65 59.5 62.35 59.45 62 59.45 61.85 59.65
M 74.05 60.25
Q 74.45 60.6 75.05 60.65 75.6 60.65 75.9 60.35 76.25 60 76.2 59.5 76.05 59 75.65 58.65 75.2 58.25 74.65 58.25 74.05 58.2 73.7 58.5 73.4 58.85 73.5 59.35 73.6 59.85 74.05 60.25
M 71.9 55.05
Q 71.85 54.45 71.45 54.1 71 53.75 70.35 53.8 69.7 53.8 69.25 54.3 68.75 54.85 68.75 55.4 68.85 55.95 69.25 56.3 69.65 56.75 70.3 56.65 71 56.6 71.5 56.15 71.95 55.65 71.9 55.05
M 44.25 53.8
Q 44.45 53.5 44.45 53.35 44.25 53.1 43.95 53.05 43.65 53 43.3 53.1 42.9 53.15 42.7 53.45 42.55 53.65 42.6 53.9 42.7 54.1 43 54.25 43.3 54.3 43.8 54.2 44.1 54 44.25 53.8
M 55.5 50.9
Q 55.25 50.75 54.9 50.8 54.55 50.85 54.25 51.15 53.95 51.4 53.95 51.8 53.95 52.05 54.15 52.3 54.45 52.45 54.8 52.45 55.2 52.4 55.5 52.15 55.75 51.85 55.75 51.5 55.75 51.15 55.5 50.9
M 58.25 55.55
Q 58.05 55.3 57.6 55.4 57.25 55.5 56.95 55.85 56.6 56.15 56.55 56.5 56.55 56.85 56.8 57.05 57.1 57.3 57.45 57.2 57.8 57.15 58.15 56.85 58.45 56.5 58.5 56.15 58.55 55.85 58.25 55.55
M 68.1 50.3
Q 67.8 50.1 67.35 50.15 67 50.15 66.65 50.45 66.35 50.8 66.3 51.2 66.35 51.55 66.65 51.8 67 52.05 67.35 52.05 67.8 52 68.1 51.7 68.45 51.35 68.4 50.95 68.45 50.55 68.1 50.3
M 62.05 49.25
Q 61.6 48.9 61.05 48.85 60.5 48.8 60.15 49.15 59.85 49.45 60 49.9 60.1 50.4 60.6 50.75 61 51.1 61.55 51.15 62.05 51.2 62.35 50.85 62.7 50.55 62.6 50.1 62.5 49.6 62.05 49.25
M 19.95 50.7
Q 19.7 50.5 19.3 50.55 18.9 50.6 18.6 50.85 18.35 51.15 18.35 51.5 18.35 51.8 18.55 52.05 18.8 52.2 19.15 52.2 19.5 52.15 19.8 51.85 20.1 51.65 20.1 51.2 20.15 50.9 19.95 50.7
M 26.35 54.3
Q 26.35 53.95 26 53.7 25.65 53.4 25.15 53.35 24.8 53.3 24.55 53.5 24.3 53.75 24.4 54.1 24.5 54.45 24.85 54.7 25.2 55 25.55 55.05 26 55.2 26.2 54.9 26.45 54.7 26.35 54.3
M 33.9 45.45
Q 33.8 45.1 33.5 45 33.15 44.8 32.85 44.9 32.5 45 32.35 45.3 32.15 45.55 32.25 45.8 32.35 46.1 32.7 46.3 33 46.45 33.3 46.35 33.65 46.3 33.8 46.05 34 45.7 33.9 45.45
M 28.4 47.95
Q 28.2 48.25 28.25 48.55 28.35 48.9 28.7 49.2 29.05 49.45 29.4 49.5 29.85 49.6 30.1 49.35 30.3 49.15 30.25 48.8 30.2 48.35 29.85 48.1 29.5 47.9 29.05 47.85 28.65 47.75 28.4 47.95
M 26.45 42.8
Q 26.05 42.85 25.85 43.1 25.7 43.4 25.85 43.65 26.05 44.05 26.45 44.2 26.85 44.45 27.3 44.45 27.65 44.35 27.8 44.05 28 43.8 27.9 43.5 27.7 43.15 27.3 42.95 26.85 42.7 26.45 42.8
M 18.45 46
Q 18.6 46.4 19.1 46.75 19.5 47.2 20 47.2 20.6 47.25 20.9 46.95 21.25 46.65 21.05 46.15 21 45.65 20.6 45.3 20.1 44.9 19.5 44.9 19.05 44.8 18.7 45.15 18.4 45.45 18.45 46
M 18.55 39.2
Q 18.15 39.15 17.85 39.5 17.5 39.8 17.5 40.3 17.55 40.6 17.85 40.9 18.15 41.1 18.55 41.1 19.05 41.05 19.4 40.7 19.7 40.4 19.65 40.1 19.65 39.65 19.35 39.4 19.05 39.1 18.55 39.2
M 14.75 36.85
Q 14.35 36.5 13.65 36.55 13.05 36.55 12.55 37.1 12.1 37.55 12.05 38.1 12.1 38.65 12.5 39.05 13 39.35 13.6 39.35 14.3 39.3 14.75 38.8 15.25 38.35 15.2 37.75 15.25 37.15 14.75 36.85
M 14.6 20.85
Q 14 20.85 13.5 21.25 13.1 21.65 13.1 22.3 13.1 22.95 13.5 23.4 13.6361328125 23.508984375 13.75 23.6 14.16328125 23.8 14.6 23.8 15.2 23.8 15.6 23.4 16.05 22.95 16.05 22.3 16.05 21.65 15.6 21.25 15.55546875 21.20546875 15.5 21.15 15.133203125 20.85 14.6 20.85
M 11.8 17.7
Q 11.5 18 11.5 18.4 11.5 18.85 11.8 19.1 12.15 19.4 12.65 19.4 13.1 19.4 13.4 19.1 13.75 18.85 13.75 18.4 13.75 18 13.4 17.7 13.1 17.4 12.65 17.4 12.15 17.4 11.8 17.7
M 19.4 16.95
Q 19.2861328125 16.881640625 19.15 16.85 18.990625 16.8 18.8 16.8 18.45 16.8 18.2 16.95 17.95 17.2 17.95 17.5 17.95 17.7861328125 18.1 17.95 18.154296875 18.0134765625 18.2 18.05 18.45 18.25 18.8 18.25 19.15 18.25 19.4 18.05 19.65 17.85 19.65 17.5 19.65 17.2 19.4 16.95
M 15.7 13.9
Q 15.7 14.2 15.95 14.35 16.25 14.5 16.65 14.5 17.1 14.5 17.3 14.35 17.6 14.2 17.6 13.9 17.6 13.65 17.3 13.45 17.1 13.35 16.65 13.35 16.25 13.35 15.95 13.45 15.7 13.65 15.7 13.9
M 8.1 22.95
Q 8.7 22.95 9.15 22.6 9.6 22.3 9.6 21.9 9.6 21.4 9.15 21.1 8.7 20.85 8.1 20.85 7.55 20.85 7.05 21.1 6.65 21.4 6.65 21.9 6.65 22.3 7.05 22.6 7.55 22.95 8.1 22.95
M 20.95 23.6
Q 20.95 23.2 20.65 22.9 20.35 22.6 19.95 22.6 19.5 22.6 19.2 22.9 18.9 23.2 18.9 23.6 18.9 24.05 19.2 24.35 19.5 24.6 19.95 24.6 20.35 24.6 20.65 24.35 20.95 24.05 20.95 23.6
M 23.8 20.75
Q 23.8 21.2 24.2 21.4 24.7 21.8 25.25 21.8 25.85 21.8 26.3 21.4 26.75 21.2 26.75 20.75 26.75 20.35 26.3 20 25.85 19.75 25.25 19.75 24.7 19.75 24.2 20 23.8 20.35 23.8 20.75
M 23.35 12.8
Q 23.34140625 12.8 23.3 12.8 22.95 12.8 22.7 13.05 22.5583984375 13.2623046875 22.5 13.55 22.5 13.6685546875 22.5 13.8 22.5 14.25 22.7 14.5 22.95 14.85 23.3 14.85 23.65 14.85 23.9 14.5 24.15 14.25 24.15 13.8 24.15 13.35 23.9 13.05 23.6796875 12.8296875 23.35 12.8
M 28 15.65
Q 28 16 28.25 16.3 28.45 16.55 28.85 16.55 29.2 16.55 29.4 16.3 29.65 16 29.65 15.65 29.65 15.3 29.4 15 29.2 14.75 28.85 14.75 28.45 14.75 28.25 15 28 15.3 28 15.65
M 28.65 8.8
Q 28.56953125 8.562890625 28.25 8.35 27.8 8.2 27.25 8.2 26.65 8.2 26.15 8.35 25.75 8.65 25.75 9 25.75 9.35 26.15 9.6 26.6103515625 9.830078125 27.15 9.85 27.20234375 9.85 27.25 9.85 27.8 9.85 28.25 9.6 28.7 9.35 28.7 9 28.7 8.8984375 28.65 8.8
M 34.45 11.45
Q 34.45 11.8 34.75 12 35.1 12.2 35.6 12.2 36.05 12.2 36.35 12 36.7 11.8 36.7 11.45 36.7 11.15 36.35 10.9 36.05 10.75 35.6 10.75 35.1 10.75 34.75 10.9 34.45 11.15 34.45 11.45
M 52.7 4.35
Q 52.6154296875 4.2720703125 52.5 4.2 52.05 3.95 51.45 3.95 50.85 3.95 50.45 4.2 49.95 4.45 49.95 4.8 49.95 5.2 50.45 5.4 50.85 5.7 51.45 5.7 52.05 5.7 52.5 5.4 52.9 5.2 52.9 4.8 52.9 4.5509765625 52.7 4.35
M 63.05 17.05
Q 62.6 17.45 62.6 18.1 62.6 18.75 63.05 19.15 63.5 19.6 64.1 19.6 64.65 19.6 65.15 19.15 65.55 18.75 65.55 18.1 65.55 17.45 65.15 17.05 64.65 16.6 64.1 16.6 63.5 16.6 63.05 17.05
M 60.45 12.8
Q 60.2 12.6 59.85 12.6 59.5 12.6 59.25 12.8 59.05 13 59.05 13.35 59.05 13.65 59.25 13.9 59.5 14.05 59.85 14.05 60.2 14.05 60.45 13.9 60.7 13.65 60.7 13.35 60.7 13 60.45 12.8
M 43.95 13.6
Q 44.25 13.35 44.25 13.05 44.25 12.75 43.95 12.5 43.6 12.35 43.15 12.35 42.65 12.35 42.35 12.5 42 12.75 42 13.05 42 13.35 42.35 13.6 42.65 13.8 43.15 13.8 43.6 13.8 43.95 13.6
M 49.85 10.55
Q 49.5 10.55 49.25 10.85 49 11.1 49 11.45 49 11.85 49.25 12.1 49.5 12.35 49.85 12.35 50.2 12.35 50.45 12.1 50.65 11.85 50.65 11.45 50.65 11.1 50.45 10.85 50.2 10.55 49.85 10.55
M 43.05 8
Q 43.55 8 43.9 7.85 44.1544921875 7.6380859375 44.2 7.4 44.2 7.3455078125 44.2 7.3 44.2 6.95 43.9 6.75 43.55 6.5 43.05 6.5 42.6 6.5 42.3 6.75 41.9890625 6.927734375 41.95 7.2 41.95 7.2609375 41.95 7.3 41.95 7.6 42.3 7.85 42.6 8 43.05 8
M 41.35 2.8
Q 41.35 3.1 41.65 3.25 41.9 3.4 42.3 3.4 42.7 3.4 43 3.25 43.25 3.1 43.25 2.8 43.25 2.55 43 2.35 42.7 2.25 42.3 2.25 41.9 2.25 41.65 2.35 41.35 2.55 41.35 2.8
M 54.75 10.3
Q 55 10.6 55.35 10.6 55.7 10.6 55.95 10.3 56.2 10.05 56.2 9.6 56.2 9.26484375 56 8.95 55.9904296875 8.906640625 55.95 8.85 55.7 8.6 55.35 8.6 55.0693359375 8.6 54.85 8.75 54.7994140625 8.8005859375 54.75 8.85 54.55 9.2 54.55 9.6 54.55 10.05 54.75 10.3
M 66.05 15.25
Q 66.5 15.25 66.85 14.9 67.15 14.65 67.15 14.25 67.15 13.8 66.85 13.45 66.5 13.25 66.05 13.25 65.55 13.25 65.25 13.45 64.9 13.8 64.9 14.25 64.9 14.65 65.25 14.9 65.55 15.25 66.05 15.25
M 70.55 16.6
Q 69.95 16.6 69.55 16.9 69.05 17.25 69.05 17.7 69.05 18.1 69.55 18.4 69.95 18.75 70.55 18.75 71.15 18.75 71.6 18.4 72.05 18.1 72.05 17.7 72.05 17.25 71.6 16.9 71.15 16.6 70.55 16.6
M 75 11.65
Q 75 11.35 74.7 11.1 74.35 10.85 73.85 10.85 73.4 10.85 73.1 11.1 72.75 11.35 72.75 11.65 72.75 11.9 73.1 12.15 73.4 12.35 73.85 12.35 74.35 12.35 74.7 12.15 75 11.9 75 11.65
M 70.9 42.55
Q 71 42.95 71.55 43.1 72.1 43.25 72.65 43.15 73.2 42.9 73.5 42.45 73.85 42.15 73.7 41.65 73.5 41.25 73 41.1 72.5 41.05 71.9 41.2 71.3 41.35 71.1 41.65 70.75 42.15 70.9 42.55
M 79 43.15
Q 78.7 43 78.2 43.1 77.85 43.2 77.6 43.55 77.55 43.95 77.65 44.4 77.8 44.8 78.2 44.85 78.6 45.1 79 45 79.4 44.85 79.45 44.45 79.75 44.15 79.55 43.75 79.45 43.3 79 43.15
M 76.7 38.2
Q 76.8 38.55 77.15 38.55 77.45 38.75 77.8 38.65 78.1 38.55 78.25 38.25 78.3 38 78.25 37.7 78.1 37.4 77.85 37.25 77.55 37.1 77.2 37.25 76.9 37.3 76.7 37.55 76.6 37.9 76.7 38.2
M 73.3 28.5
Q 72.8 28.7 72.7 29.05 72.5 29.5 72.85 29.9 73.1 30.3 73.7 30.5 74.25 30.6 74.75 30.5 74.95 30.5 75 30.4 75.3 30.25 75.4 30 75.6 29.55 75.25 29.15 75 28.85 74.7 28.65 74.55 28.6 74.4 28.55 73.8 28.4 73.3 28.5
M 80 25.35
Q 79.85 25 79.55 24.9 79.25 24.8 78.9 25 78.6 25.2 78.45 25.55 78.4 25.95 78.5 26.25 78.6 26.45 78.9 26.6 79.25 26.7 79.65 26.45 79.85 26.35 80 26 80.15 25.7 80 25.35
M 75.05 21.4
Q 74.8 21.35 74.4 21.5 74.1 21.8 73.95 22.2 73.8 22.55 73.85 22.9 74.05 23.25 74.35 23.4 74.7 23.45 75.05 23.25 75.35 23 75.4 22.65 75.6 22.25 75.55 21.9 75.4 21.55 75.05 21.4
M 96.7 41.5
Q 96.4 41.9 96.55 42.45 96.65 42.95 97.1 43.15 97.5 43.4 97.95 43.15 98.5 42.95 98.8 42.55 99.1 42.05 99 41.6 98.9 41.05 98.5 40.85 98.1 40.6 97.55 40.85 97 41 96.7 41.5
M 90.5 44.05
Q 90.05 43.8 89.6 43.9 89.1 43.95 88.95 44.35 88.7 44.7 88.85 45.15 88.95 45.55 89.35 45.75 89.8 45.95 90.25 45.85 90.65 45.7 90.9 45.35 91.1 45 91 44.6 90.9 44.15 90.5 44.05
M 81.7 41.65
Q 82 42.25 82.6 42.55 83.2 42.85 83.65 42.6 84.25 42.5 84.55 41.95 84.8 41.4 84.5 40.85 84.25 40.25 83.8 39.9 83.2 39.7 82.65 39.8 82.1 40.05 81.85 40.55 81.55 41.1 81.7 41.65
M 89.9 37.9
Q 89.35 37.8 88.75 38.05 88.2 38.15 87.95 38.55 87.6 39.05 87.75 39.4 87.9 39.75 88.45 40 88.95 40.15 89.5 40.05 90 39.8 90.35 39.35 90.65 38.95 90.55 38.55 90.35 38.1 89.9 37.9
M 84.65 36.75
Q 84.6099609375 36.6298828125 84.55 36.5 84.419921875 36.2466796875 84.2 36.1 83.7 35.9 83.25 36.1 83.11640625 36.1267578125 83 36.15 82.7232421875 36.2935546875 82.65 36.55 82.4 37.05 82.55 37.4 82.7 37.7 83.15 37.85 83.5 38.1 84 38.05 84.45 37.85 84.65 37.45 84.8 37.1 84.65 36.75
M 82.7 28.95
Q 82.9 28.65 82.7 28.5 82.65 28.2 82.35 28.15 82 28.05 81.65 28.2 81.25 28.35 81.05 28.55 80.8 28.8 80.95 29 81.05 29.25 81.4 29.3 81.65 29.45 82.05 29.25 82.4 29.15 82.7 28.95
M 91.15 32.4
Q 91.2 32.15 91.15 32 91 31.7 90.75 31.55 90.25 31.5 89.85 31.65 89.4 31.8 89.2 32.05 88.9 32.3 89 32.65 89.1 32.95 89.5 33.05 89.9 33.1 90.35 33.05 90.8 32.85 91 32.6 91.1 32.5 91.15 32.4
M 86.95 24.5
Q 87.35 24.6 87.7 24.5 88.1 24.45 88.25 24.15 88.35 23.85 88.1 23.5 87.95 23.25 87.45 23.1 87 22.95 86.55 23 86.3 23.15 86.15 23.45 86 23.75 86.2 24.05 86.5 24.4 86.95 24.5 Z"/>

<path fill="#A63737" stroke="none" d="
M 64.05 55.35
Q 63.8890625 55.44140625 63.7 55.5 64 55.5400390625 64.2 55.7
L 64.05 55.35
M 36.8 56.95
L 36.9 56.85
Q 36.77109375 56.8333984375 36.65 56.8 36.74453125 56.891015625 36.8 56.95
M 76.4 49.2
L 76.55 49.25
Q 76.5306640625 49.19765625 76.5 49.15 76.4513671875 49.180859375 76.4 49.2 Z"/>

<path fill="#862D2D" stroke="none" d="
M 29 60.25
Q 28.8111328125 60.2146484375 28.6 60.15
L 29.25 60.45
Q 29.123046875 60.37734375 29 60.25 Z"/>

<path fill="#BF4040" stroke="none" d="
M 28.75 59.8
L 28.6 60.15
Q 28.8111328125 60.2146484375 29 60.25 28.8455078125 60.08671875 28.75 59.8
M 69.35 44.45
L 68.9 44
Q 68.614453125 44.318359375 68.3 44.6
L 69.35 44.45
M 71.35 31.6
Q 71.5787109375 32.3251953125 71.75 33.05
L 72.2 32.1
Q 71.7859375 31.8666015625 71.35 31.6
M 53.85 3.55
Q 53.5087890625 3.3115234375 53.15 3.1
L 52.5 4.2
Q 52.6154296875 4.2720703125 52.7 4.35
L 53.85 3.55 Z"/>

<path fill="#E6129C" stroke="none" d="
M 13.1 28.35
Q 12.1294921875 27.7677734375 11.4 27.45 10.4619140625 27.1078125 9.95 27.25 8.7990234375 27.5099609375 7.05 29.15 6.46953125 29.7162109375 5.8 30.45 3.55 33 2.6 34.85 1.6009765625 36.7052734375 0.15 44.6 0.075390625 45.0296875 0 45.45 2.15 53.4 12 59.15 13.9 60.6 15.65 62.25 19.3 65.65 19.15 67.1 19 68.95 19.65 69.65 20.35 70.5 21.7 69.55 23 68.65 25.85 66
L 28.35 63.4
Q 31.6 63.45 32.75 61.1 31.60234375 60.9072265625 30.5 60.65 30.2875 60.7921875 29.95 60.75 29.6 60.75 29.25 60.45
L 28.6 60.15
Q 24.9974609375 59.0787109375 22.15 57.25 19.4345703125 55.54296875 17.4 53.1 15.739453125 51.092578125 14.55 48.55
L 14.55 48.55
Q 13.6513671875 46.6560546875 13.05 44.75 12.803515625 44.703515625 12.65 44.55 12.35 44.35 12.35 44.05 12.35 43.75 12.55 43.5 12.6041015625 43.4458984375 12.65 43.4 11.9703125 40.7822265625 11.8 38.1 11.6318359375 34.303515625 12.55 30.4 12.7669921875 29.4513671875 13.05 28.5 13.0767578125 28.42578125 13.1 28.35
M 9.35 33.6
Q 9.8 33.95 9.85 34.4 9.95 34.95 9.6 35.25 9.3 35.55 8.7 35.55 8.2 35.5 7.75 35.15 7.3 34.75 7.15 34.3 7.1 33.8 7.4 33.55 7.75 33.15 8.3 33.15 8.9 33.25 9.35 33.6
M 8.1 39.65
Q 8.2 39.3 8.5 39 8.75 38.65 9.2 38.55 9.7 38.55 10.1 38.85 10.45 39.15 10.35 39.6 10.45 40 10.15 40.3 9.85 40.6 9.3 40.6 8.9 40.65 8.55 40.35 8.2 40.1 8.1 39.65
M 2.85 45.15
Q 2.95 45.4 2.8 45.65 2.6 45.8 2.25 45.75 1.95 45.7 1.65 45.45 1.35 45.2 1.25 44.9 1.2 44.7 1.35 44.5 1.55 44.25 1.85 44.25 2.2 44.4 2.5 44.6 2.8 44.85 2.85 45.15
M 9.25 46.25
Q 9.45 46.75 9.2 47.25 8.9 47.65 8.25 47.85 7.6 47.95 7 47.65 6.35 47.3 6.2 46.75 6.05 46.25 6.35 45.8 6.6 45.35 7.25 45.15 7.8 45.05 8.5 45.35 9.05 45.65 9.25 46.25
M 13.15 48.95
Q 13.45 48.65 13.8 48.6 14.25 48.5 14.45 48.65 14.75 48.9 14.7 49.3 14.7 49.6 14.4 49.9 14.05 50.2 13.65 50.4 13.3 50.4 13 50.2 12.75 49.95 12.75 49.65 12.8 49.25 13.15 48.95
M 21.3 59.35
Q 20.9 59.35 20.5 59.1 20.25 58.75 20.1 58.4 20 58.1 20.25 57.85 20.45 57.6 20.9 57.6 21.35 57.7 21.65 58 22 58.25 22.05 58.55 22.2 58.95 21.95 59.2 21.7 59.4 21.3 59.35
M 11.8 55.2
Q 11.75 54.7 12 54.4 12.25 54.2 12.75 54.25 13.3 54.3 13.7 54.7 14.1 55.05 14.3 55.55 14.45 55.95 14.15 56.25 13.95 56.5 13.35 56.45 12.85 56.3 12.45 55.95 12.05 55.6 11.8 55.2
M 62.1 19.7
Q 62.094140625 19.7126953125 62.05 19.7
L 62.05 19.65
Q 62.0375 19.65 62 19.65 58.1845703125 17.332421875 53.2 16.55 51.344140625 16.26875 49.3 16.2 49.2875 16.201171875 49.25 16.2 47.2544921875 16.1328125 45.1 16.25 45.0376953125 16.2830078125 44.95 16.3 44.9126953125 16.2955078125 44.85 16.3 44.8 16.25 44.8 16.3 43.85 16.4 42.95 16.5 42.0767578125 16.61640625 41.25 16.75 40.4955078125 16.866796875 39.75 17 39.2275390625 17.09453125 38.7 17.2 31.6119140625 18.66796875 27.1 22.35 26.2654296875 23.0603515625 25.5 23.85 21.4619140625 27.8541015625 20.75 32.6 22.468359375 33.8931640625 23.85 35.6
L 24.55 35.95
Q 32.458984375 40.205078125 39.65 48.75
L 68.3 44.6
Q 68.614453125 44.318359375 68.9 44 70.0810546875 42.8412109375 70.8 41.5 72.94453125 37.827734375 71.75 33.05 71.5787109375 32.3251953125 71.35 31.6 69.9837890625 26.9587890625 67 23.65 66.546484375 23.12890625 66.05 22.65 65.9 22.55 65.75 22.45 65.55 22.25 65.4 22.05 64.2 21.05 62.7 20.05 62.6625 20.0125 62.6 20
L 62.6 20 62.55 19.95
Q 62.3974609375 19.8166015625 62.1 19.7
M 61.35 21.05
Q 61.65 21.3 61.85 21.4
L 62.55 22.15 63.3 23.25 63.85 24.05 63.95 24.45
Q 64.1 24.9 64.15 25.15
L 64.15 25.2 64.2 25.45
Q 64.25 25.5 64 25.75 64 26.25 63.95 26.65 63.9 27 63.8 27.35 62.95 29.3 60 30.8 59.8 31.05 59.65 31.05
L 58.25 31.65 58.3 31.7
Q 57.15 32.2 55.75 32.5 55.65 32.5 55.5 32.65 52.9 33.15 49.8 33.35 48.95 33.4 48.2 33.4 48 33.4 47.8 33.45 47.45 33.35 47.05 33.4
L 42.95 33.05
Q 41.75 32.95 40.7 32.7 39.8 32.5 39.05 32.3
L 38.9 32.3
Q 37.45 31.8 36.05 31.2 34.8 30.55 33.95 30 32.7 29 32.05 28.2 31.55 27.45 31.25 26.75 31.1546875 26.3685546875 31.05 25.95 31.0046875 25.705078125 30.95 25.45 30.85 23.2 33.05 21.3 33.192578125 21.1724609375 33.35 21.05 34.225 20.3375 35.5 19.7 37.15 18.95 39.1 18.4 39.5388671875 18.2966796875 40 18.2 41.1541015625 17.984765625 42.45 17.85 42.6513671875 17.8193359375 42.85 17.8 42.9 17.75 43 17.75 43.3 17.75 43.55 17.7
L 45.1 17.45
Q 45.5 17.6 49.25 17.6 49.9 17.7 50.6 17.75 51.75 17.75 53 18 55 18.35 56.9 19 60.05 20.25 61.35 21.05
M 43.65 33.25
Q 44.1 33.25 44.4 33.55 44.7 33.6 44.7 34 44.7 34.35 44.5 34.7 44.25 35 43.85 35 43.5 35 43.25 34.85 42.9 34.55 42.9 34.1 42.85 33.8 43.05 33.55 43.3 33.25 43.65 33.25
M 47.75 36.35
Q 48.1 36.1 48.7 35.95 49.2 35.95 49.55 36.2 50 36.35 50 36.8 50.15 37.1 49.7 37.5 49.35 37.7 48.9 37.75 48.3 37.8 47.9 37.6 47.5 37.3 47.45 37.05 47.4 36.55 47.75 36.35
M 47.05 41.85
Q 47.15 41.6 47.5 41.55 47.8 41.5 48.1 41.75 48.3 41.95 48.35 42.25 48.35 42.65 48.2 43 48 43.2 47.7 43.2 47.35 43.25 47.1 43.15 46.95 42.8 46.95 42.45 46.8 42.05 47.05 41.85
M 43.85 39.05
Q 44 39.15 44 39.4 44.15 39.7 43.9 40 43.75 40.15 43.45 40.1 43.05 40.15 42.85 40 42.65 39.8 42.65 39.6 42.6 39.3 42.8 39.1 42.95 38.85 43.25 38.85 43.6 38.8 43.85 39.05
M 41.55 43.1
Q 42.1 42.85 42.6 43.15 43.15 43.3 43.35 43.75 43.5 44.15 43.2 44.6 42.9 45.1 42.3 45.2 41.65 45.45 41.25 45.15 40.7 45 40.6 44.55 40.4 44.15 40.65 43.6 40.95 43.2 41.55 43.1
M 50.15 46.3
Q 50.15 46 50.45 45.8 50.85 45.5 51.4 45.5 51.85 45.45 52.35 45.65 52.75 45.75 52.75 46.1 52.75 46.4 52.4 46.7 52.1 46.95 51.5 46.95 51.05 47 50.55 46.9 50.2 46.65 50.15 46.3
M 58.55 37.9
Q 58.9 38.1 58.9 38.4 58.9 38.65 58.6 38.8 58.4 39.05 57.95 39.1 57.6 39.1 57.2 39 57 38.75 56.9 38.5 56.95 38.2 57.15 38.1 57.5 37.8 57.85 37.75 58.3 37.7 58.55 37.9
M 59.1 42.9
Q 59.4 43.1 59.45 43.3 59.5 43.6 59.2 43.85 58.9 44.1 58.55 44.15 58.15 44.15 57.85 43.95 57.55 43.85 57.5 43.6 57.45 43.3 57.65 43.1 58.05 42.8 58.4 42.85 58.85 42.8 59.1 42.9
M 52.9 40.3
Q 53 40.6 52.75 40.9 52.65 41.1 52.25 41.1 52.05 41.1 51.8 40.95 51.5 40.7 51.5 40.4 51.5 40.05 51.6 39.8 51.9 39.6 52.15 39.5 52.45 39.6 52.7 39.75 52.9 40 52.9 40.3
M 62 32.8
Q 61.7 32.7 61.65 32.45 61.55 32.15 61.65 31.9 61.75 31.7 62.1 31.55 62.4 31.5 62.65 31.65 62.95 31.75 63.05 32.05 63.15 32.3 63 32.5 62.9 32.75 62.6 32.8 62.25 32.95 62 32.8
M 65.4 39.65
Q 65.1 39.8 64.75 39.9 64.25 39.95 63.95 39.75 63.65 39.6 63.6 39.3 63.6 39.05 63.85 38.8 64.2 38.55 64.55 38.55 64.95 38.5 65.25 38.7 65.55 38.85 65.6 39.1 65.6 39.4 65.4 39.65
M 33.65 35.6
Q 34.1 35.55 34.45 35.85 34.95 36.1 34.95 36.45 35 36.85 34.6 37.1 34.3 37.45 33.8 37.45 33.2 37.55 32.85 37.3 32.45 37.1 32.4 36.65 32.4 36.3 32.7 36.1 33.1 35.65 33.65 35.6
M 39.15 34.4
Q 39.65 34.35 40.05 34.65 40.45 35 40.6 35.55 40.65 36.1 40.3 36.55 39.95 36.9 39.4 37.05 38.85 37.05 38.45 36.75 38.1 36.35 38.05 35.8 37.9 35.25 38.25 34.9 38.6 34.4 39.15 34.4
M 30 35.05
Q 29.7 35.35 29.3 35.5 28.9 35.55 28.6 35.55 28.3 35.4 28.2 35.15 28.05 34.9 28.3 34.6 28.45 34.35 28.95 34.25 29.3 34.1 29.65 34.25 29.95 34.3 30 34.55 30.1 34.85 30 35.05
M 37.15 38.65
Q 37.45 38.35 37.85 38.25 38.25 38.25 38.5 38.55 38.8 38.75 38.85 39.1 38.9 39.5 38.6 39.8 38.45 40.05 37.95 40.1 37.6 40.1 37.25 39.95 37 39.65 36.95 39.35 36.9 38.95 37.15 38.65 Z"/>

<path fill="#FF47BE" stroke="none" d="
M 76.55 49.25
L 76.4 49.2
Q 73.1611328125 51.2544921875 69.95 52.85 66.98984375 54.3099609375 64.05 55.35
L 64.2 55.7
Q 64.5 55.9 64.5 56.2 64.5 56.5 64.25 56.8 64 56.95 63.75 56.95 63.35 56.95 63.05 56.8 62.85 56.55 62.85 56.3 62.8 55.95 63 55.8 63.020703125 55.7751953125 63.05 55.75 60.25078125 56.7142578125 57.45 57.3 54.88984375 57.890625 52.3 58.15 52.2599609375 58.2583984375 52.15 58.35 51.9 58.7 51.4 58.55 51.0439453125 58.4787109375 50.7 58.25 50.5875 58.2837890625 50.45 58.3 43.60234375 58.680859375 36.9 56.85
L 36.8 56.95
Q 40.7279296875 60.7455078125 41.9 62.65 44.85 67.55 45.8 68.6 49 72.8 52.8 73.25 56.6 73.65 62.4 72.55 68.3 71.45 71.25 69.45 74.25 67.25 76.55 63.65 79.15 59.75 78.9 56.8 78.6 53.5 77.3 50.7 76.973828125 49.9080078125 76.55 49.25
M 71.45 54.1
Q 71.85 54.45 71.9 55.05 71.95 55.65 71.5 56.15 71 56.6 70.3 56.65 69.65 56.75 69.25 56.3 68.85 55.95 68.75 55.4 68.75 54.85 69.25 54.3 69.7 53.8 70.35 53.8 71 53.75 71.45 54.1
M 75.05 60.65
Q 74.45 60.6 74.05 60.25 73.6 59.85 73.5 59.35 73.4 58.85 73.7 58.5 74.05 58.2 74.65 58.25 75.2 58.25 75.65 58.65 76.05 59 76.2 59.5 76.25 60 75.9 60.35 75.6 60.65 75.05 60.65
M 61.75 60.1
Q 61.65 59.85 61.85 59.65 62 59.45 62.35 59.45 62.65 59.5 62.95 59.75 63.25 60 63.35 60.3 63.45 60.6 63.25 60.75 63.05 60.95 62.8 60.9 62.4 60.9 62.1 60.6 61.85 60.35 61.75 60.1
M 68.9 58.35
Q 69.35 58.25 69.65 58.5 70 58.8 70.1 59.3 70.1 59.65 69.8 59.95 69.5 60.3 68.95 60.35 68.45 60.3 68.1 60 67.8 59.75 67.75 59.35 67.75 58.85 68.05 58.55 68.35 58.25 68.9 58.35
M 68.1 67.45
Q 67.95 67.95 67.45 67.95 67.15 68.2 66.75 67.95 66.4 67.85 66.15 67.35 66.05 66.95 66.2 66.6 66.4 66.35 66.8 66.1 67.15 66 67.5 66.15 67.95 66.4 68.2 66.75 68.3 67.25 68.1 67.45
M 63.05 66.95
Q 63.3 67.55 63 68 62.8 68.6 62.2 68.8 61.65 68.95 61.05 68.65 60.45 68.4 60.2 67.9 60 67.25 60.3 66.7 60.6 66.1 61.1 66 61.7 65.85 62.2 66.05 62.85 66.4 63.05 66.95
M 45.9 62.7
Q 46.3 62.35 46.8 62.2 47.35 61.95 47.9 62.15 48.4 62.3 48.55 62.65 48.75 63.1 48.4 63.45 48.1 63.85 47.6 64.1 47.05 64.2 46.5 64.1 46 63.9 45.8 63.55 45.65 63.15 45.9 62.7
M 55.65 63.1
Q 55.5 63.4 55.1 63.45 54.8 63.55 54.55 63.45 54.25 63.3 54.1 63 54 62.7 54.1 62.5 54.3 62.2 54.7 62.05 55 62 55.3 62.15 55.6 62.25 55.65 62.5 55.85 62.85 55.65 63.1
M 54 69.25
Q 53.8 68.85 54.1 68.4 54.45 68 55 67.9 55.6 67.7 56.05 67.9 56.65 68 56.85 68.4 56.95 68.9 56.6 69.25 56.35 69.65 55.75 69.9 55.25 69.95 54.65 69.85 54.1 69.65 54 69.25
M 41.25 16.75
Q 41.1916015625 14.903125 40.85 13.3 40.1369140625 9.4677734375 37.95 7 37.189453125 6.1814453125 36.25 5.5 35.8251953125 5.180859375 35.35 4.9 33.15 3.75 30.25 3.25 10.25 12.2 0.8 22.95 -0.30703125 25.6322265625 7.05 29.15 8.7990234375 27.5099609375 9.95 27.25 10.4619140625 27.1078125 11.4 27.45 12.1294921875 27.7677734375 13.1 28.35 13.0767578125 28.42578125 13.05 28.5 12.7669921875 29.4513671875 12.55 30.4 11.6318359375 34.303515625 11.8 38.1 11.9703125 40.7822265625 12.65 43.4 12.86484375 43.2392578125 13.1 43.2 13.45 43.2 13.75 43.45 14 43.6 14 43.95 14.05 44.2 13.8 44.45 13.6 44.7 13.2 44.75 13.11875 44.75 13.05 44.75 13.6513671875 46.6560546875 14.55 48.55
L 14.55 48.55
Q 15.739453125 51.092578125 17.4 53.1 19.4345703125 55.54296875 22.15 57.25 24.9974609375 59.0787109375 28.6 60.15
L 28.75 59.8
Q 28.7 59.45 28.95 59.2 29.2 59 29.6 59.05 30 59.1 30.35 59.35 30.75 59.65 30.8 60 30.85 60.35 30.6 60.6 30.5609375 60.63125 30.5 60.65 31.60234375 60.9072265625 32.75 61.1
L 35.55 59.15 36.8 56.95
Q 36.74453125 56.891015625 36.65 56.8 35.7 55.85 36.65 55.85 33.15 51.15 37.8 49.05
L 39.65 48.75
Q 32.458984375 40.205078125 24.55 35.95
L 23.85 35.6
Q 22.468359375 33.8931640625 20.75 32.6 19.2951171875 31.5017578125 17.6 30.7 13.95 28.9 13.7 28.7 13.95 28.9 17.6 30.7 19.2951171875 31.5017578125 20.75 32.6 21.4619140625 27.8541015625 25.5 23.85 26.2654296875 23.0603515625 27.1 22.35 31.6119140625 18.66796875 38.7 17.2 39.2275390625 17.09453125 39.75 17 40.4955078125 16.866796875 41.25 16.75
M 34.75 12
Q 34.45 11.8 34.45 11.45 34.45 11.15 34.75 10.9 35.1 10.75 35.6 10.75 36.05 10.75 36.35 10.9 36.7 11.15 36.7 11.45 36.7 11.8 36.35 12 36.05 12.2 35.6 12.2 35.1 12.2 34.75 12
M 28.25 8.35
Q 28.56953125 8.562890625 28.65 8.8 28.7 8.8984375 28.7 9 28.7 9.35 28.25 9.6 27.8 9.85 27.25 9.85 27.20234375 9.85 27.15 9.85 26.6103515625 9.830078125 26.15 9.6 25.75 9.35 25.75 9 25.75 8.65 26.15 8.35 26.65 8.2 27.25 8.2 27.8 8.2 28.25 8.35
M 28.25 16.3
Q 28 16 28 15.65 28 15.3 28.25 15 28.45 14.75 28.85 14.75 29.2 14.75 29.4 15 29.65 15.3 29.65 15.65 29.65 16 29.4 16.3 29.2 16.55 28.85 16.55 28.45 16.55 28.25 16.3
M 23.3 12.8
Q 23.34140625 12.8 23.35 12.8 23.6796875 12.8296875 23.9 13.05 24.15 13.35 24.15 13.8 24.15 14.25 23.9 14.5 23.65 14.85 23.3 14.85 22.95 14.85 22.7 14.5 22.5 14.25 22.5 13.8 22.5 13.6685546875 22.5 13.55 22.5583984375 13.2623046875 22.7 13.05 22.95 12.8 23.3 12.8
M 24.2 21.4
Q 23.8 21.2 23.8 20.75 23.8 20.35 24.2 20 24.7 19.75 25.25 19.75 25.85 19.75 26.3 20 26.75 20.35 26.75 20.75 26.75 21.2 26.3 21.4 25.85 21.8 25.25 21.8 24.7 21.8 24.2 21.4
M 20.65 22.9
Q 20.95 23.2 20.95 23.6 20.95 24.05 20.65 24.35 20.35 24.6 19.95 24.6 19.5 24.6 19.2 24.35 18.9 24.05 18.9 23.6 18.9 23.2 19.2 22.9 19.5 22.6 19.95 22.6 20.35 22.6 20.65 22.9
M 9.15 22.6
Q 8.7 22.95 8.1 22.95 7.55 22.95 7.05 22.6 6.65 22.3 6.65 21.9 6.65 21.4 7.05 21.1 7.55 20.85 8.1 20.85 8.7 20.85 9.15 21.1 9.6 21.4 9.6 21.9 9.6 22.3 9.15 22.6
M 15.95 14.35
Q 15.7 14.2 15.7 13.9 15.7 13.65 15.95 13.45 16.25 13.35 16.65 13.35 17.1 13.35 17.3 13.45 17.6 13.65 17.6 13.9 17.6 14.2 17.3 14.35 17.1 14.5 16.65 14.5 16.25 14.5 15.95 14.35
M 19.15 16.85
Q 19.2861328125 16.881640625 19.4 16.95 19.65 17.2 19.65 17.5 19.65 17.85 19.4 18.05 19.15 18.25 18.8 18.25 18.45 18.25 18.2 18.05 18.154296875 18.0134765625 18.1 17.95 17.95 17.7861328125 17.95 17.5 17.95 17.2 18.2 16.95 18.45 16.8 18.8 16.8 18.990625 16.8 19.15 16.85
M 11.5 18.4
Q 11.5 18 11.8 17.7 12.15 17.4 12.65 17.4 13.1 17.4 13.4 17.7 13.75 18 13.75 18.4 13.75 18.85 13.4 19.1 13.1 19.4 12.65 19.4 12.15 19.4 11.8 19.1 11.5 18.85 11.5 18.4
M 13.5 21.25
Q 14 20.85 14.6 20.85 15.133203125 20.85 15.5 21.15 15.55546875 21.20546875 15.6 21.25 16.05 21.65 16.05 22.3 16.05 22.95 15.6 23.4 15.2 23.8 14.6 23.8 14.16328125 23.8 13.75 23.6 13.6361328125 23.508984375 13.5 23.4 13.1 22.95 13.1 22.3 13.1 21.65 13.5 21.25
M 13.65 36.55
Q 14.35 36.5 14.75 36.85 15.25 37.15 15.2 37.75 15.25 38.35 14.75 38.8 14.3 39.3 13.6 39.35 13 39.35 12.5 39.05 12.1 38.65 12.05 38.1 12.1 37.55 12.55 37.1 13.05 36.55 13.65 36.55
M 17.85 39.5
Q 18.15 39.15 18.55 39.2 19.05 39.1 19.35 39.4 19.65 39.65 19.65 40.1 19.7 40.4 19.4 40.7 19.05 41.05 18.55 41.1 18.15 41.1 17.85 40.9 17.55 40.6 17.5 40.3 17.5 39.8 17.85 39.5
M 19.1 46.75
Q 18.6 46.4 18.45 46 18.4 45.45 18.7 45.15 19.05 44.8 19.5 44.9 20.1 44.9 20.6 45.3 21 45.65 21.05 46.15 21.25 46.65 20.9 46.95 20.6 47.25 20 47.2 19.5 47.2 19.1 46.75
M 25.85 43.1
Q 26.05 42.85 26.45 42.8 26.85 42.7 27.3 42.95 27.7 43.15 27.9 43.5 28 43.8 27.8 44.05 27.65 44.35 27.3 44.45 26.85 44.45 26.45 44.2 26.05 44.05 25.85 43.65 25.7 43.4 25.85 43.1
M 28.25 48.55
Q 28.2 48.25 28.4 47.95 28.65 47.75 29.05 47.85 29.5 47.9 29.85 48.1 30.2 48.35 30.25 48.8 30.3 49.15 30.1 49.35 29.85 49.6 29.4 49.5 29.05 49.45 28.7 49.2 28.35 48.9 28.25 48.55
M 33.5 45
Q 33.8 45.1 33.9 45.45 34 45.7 33.8 46.05 33.65 46.3 33.3 46.35 33 46.45 32.7 46.3 32.35 46.1 32.25 45.8 32.15 45.55 32.35 45.3 32.5 45 32.85 44.9 33.15 44.8 33.5 45
M 26 53.7
Q 26.35 53.95 26.35 54.3 26.45 54.7 26.2 54.9 26 55.2 25.55 55.05 25.2 55 24.85 54.7 24.5 54.45 24.4 54.1 24.3 53.75 24.55 53.5 24.8 53.3 25.15 53.35 25.65 53.4 26 53.7
M 19.3 50.55
Q 19.7 50.5 19.95 50.7 20.15 50.9 20.1 51.2 20.1 51.65 19.8 51.85 19.5 52.15 19.15 52.2 18.8 52.2 18.55 52.05 18.35 51.8 18.35 51.5 18.35 51.15 18.6 50.85 18.9 50.6 19.3 50.55
M 79.75 12.2
Q 80.7 10.75 78.55 8.7 76.5 6.75 74.25 6.75
L 59.05 7 66.8 9.9 59.05 7
Q 58.55 6.8 53.85 3.55
L 52.7 4.35
Q 52.9 4.5509765625 52.9 4.8 52.9 5.2 52.5 5.4 52.05 5.7 51.45 5.7 50.85 5.7 50.45 5.4 49.95 5.2 49.95 4.8 49.95 4.45 50.45 4.2 50.85 3.95 51.45 3.95 52.05 3.95 52.5 4.2
L 53.15 3.1
Q 48.715625 0.281640625 42.6 0.05 36 -0.25 35.65 2.35
L 36.05 5 36.25 5.5
Q 37.189453125 6.1814453125 37.95 7 40.1369140625 9.4677734375 40.85 13.3 41.1916015625 14.903125 41.25 16.75 42.0767578125 16.61640625 42.95 16.5 43.85 16.4 44.8 16.3 44.8 16.25 44.85 16.3 44.9126953125 16.2955078125 44.95 16.3 45.0376953125 16.2830078125 45.1 16.25 47.2544921875 16.1328125 49.25 16.2 49.2875 16.201171875 49.3 16.2 51.344140625 16.26875 53.2 16.55 58.1845703125 17.332421875 62 19.65
L 63.05 19.15
Q 62.6 18.75 62.6 18.1 62.6 17.45 63.05 17.05 63.5 16.6 64.1 16.6 64.65 16.6 65.15 17.05 65.55 17.45 65.55 18.1 65.55 18.75 65.15 19.15 64.65 19.6 64.1 19.6 63.5 19.6 63.05 19.15
L 62.6 20
Q 62.6625 20.0125 62.7 20.05 64.2 21.05 65.4 22.05 65.55 22.25 65.75 22.45 65.9 22.55 66.05 22.65 66.546484375 23.12890625 67 23.65 67.2755859375 23.5896484375 67.45 23.5 68.7171875 22.8966796875 70.9 21.05 72.3859375 19.8451171875 74.25 18.1 75.85 16.55 77 15.35 79.1 13.3 79.75 12.2
M 74.7 11.1
Q 75 11.35 75 11.65 75 11.9 74.7 12.15 74.35 12.35 73.85 12.35 73.4 12.35 73.1 12.15 72.75 11.9 72.75 11.65 72.75 11.35 73.1 11.1 73.4 10.85 73.85 10.85 74.35 10.85 74.7 11.1
M 69.55 16.9
Q 69.95 16.6 70.55 16.6 71.15 16.6 71.6 16.9 72.05 17.25 72.05 17.7 72.05 18.1 71.6 18.4 71.15 18.75 70.55 18.75 69.95 18.75 69.55 18.4 69.05 18.1 69.05 17.7 69.05 17.25 69.55 16.9
M 66.85 14.9
Q 66.5 15.25 66.05 15.25 65.55 15.25 65.25 14.9 64.9 14.65 64.9 14.25 64.9 13.8 65.25 13.45 65.55 13.25 66.05 13.25 66.5 13.25 66.85 13.45 67.15 13.8 67.15 14.25 67.15 14.65 66.85 14.9
M 55.35 10.6
Q 55 10.6 54.75 10.3 54.55 10.05 54.55 9.6 54.55 9.2 54.75 8.85 54.7994140625 8.8005859375 54.85 8.75 55.0693359375 8.6 55.35 8.6 55.7 8.6 55.95 8.85 55.9904296875 8.906640625 56 8.95 56.186328125 9.0052734375 56.35 9
L 56.2 9.6
Q 56.2 10.05 55.95 10.3 55.7 10.6 55.35 10.6
M 41.65 3.25
Q 41.35 3.1 41.35 2.8 41.35 2.55 41.65 2.35 41.9 2.25 42.3 2.25 42.7 2.25 43 2.35 43.25 2.55 43.25 2.8 43.25 3.1 43 3.25 42.7 3.4 42.3 3.4 41.9 3.4 41.65 3.25
M 43.9 7.85
Q 43.55 8 43.05 8 42.6 8 42.3 7.85 41.95 7.6 41.95 7.3 41.95 7.2609375 41.95 7.2 41.9890625 6.927734375 42.3 6.75 42.6 6.5 43.05 6.5 43.55 6.5 43.9 6.75 44.2 6.95 44.2 7.3 44.2 7.3455078125 44.2 7.4 44.1544921875 7.6380859375 43.9 7.85
M 49.25 10.85
Q 49.5 10.55 49.85 10.55 50.2 10.55 50.45 10.85 50.65 11.1 50.65 11.45 50.65 11.85 50.45 12.1 50.2 12.35 49.85 12.35 49.5 12.35 49.25 12.1 49 11.85 49 11.45 49 11.1 49.25 10.85
M 44.25 13.05
Q 44.25 13.35 43.95 13.6 43.6 13.8 43.15 13.8 42.65 13.8 42.35 13.6 42 13.35 42 13.05 42 12.75 42.35 12.5 42.65 12.35 43.15 12.35 43.6 12.35 43.95 12.5 44.25 12.75 44.25 13.05
M 59.85 12.6
Q 60.2 12.6 60.45 12.8 60.7 13 60.7 13.35 60.7 13.65 60.45 13.9 60.2 14.05 59.85 14.05 59.5 14.05 59.25 13.9 59.05 13.65 59.05 13.35 59.05 13 59.25 12.8 59.5 12.6 59.85 12.6
M 94.65 34.25
L 94.35 30.2
Q 93.8 25.8 92.4 23.8 89.6 19.8 79.45 18.55 76.54765625 18.211328125 70.9 21.05 68.7171875 22.8966796875 67.45 23.5 67.2755859375 23.5896484375 67 23.65 69.9837890625 26.9587890625 71.35 31.6 71.7859375 31.8666015625 72.2 32.1
L 71.75 33.05
Q 72.94453125 37.827734375 70.8 41.5 70.0810546875 42.8412109375 68.9 44
L 69.35 44.45
Q 71.55 45.3 74.1 46.7 75.5 47.4 76.5 49.15 76.5306640625 49.19765625 76.55 49.25
L 82.85 48.85
Q 90.05 48.25 94.3 47.6 98.7 46.8 100.4 45 100.7 44.6 102.4 41.2 103.25 39.6 99.05 36.75
L 94.65 34.25
M 87.7 24.5
Q 87.35 24.6 86.95 24.5 86.5 24.4 86.2 24.05 86 23.75 86.15 23.45 86.3 23.15 86.55 23 87 22.95 87.45 23.1 87.95 23.25 88.1 23.5 88.35 23.85 88.25 24.15 88.1 24.45 87.7 24.5
M 91.15 32
Q 91.2 32.15 91.15 32.4 91.1 32.5 91 32.6 90.8 32.85 90.35 33.05 89.9 33.1 89.5 33.05 89.1 32.95 89 32.65 88.9 32.3 89.2 32.05 89.4 31.8 89.85 31.65 90.25 31.5 90.75 31.55 91 31.7 91.15 32
M 82.7 28.5
Q 82.9 28.65 82.7 28.95 82.4 29.15 82.05 29.25 81.65 29.45 81.4 29.3 81.05 29.25 80.95 29 80.8 28.8 81.05 28.55 81.25 28.35 81.65 28.2 82 28.05 82.35 28.15 82.65 28.2 82.7 28.5
M 84.55 36.5
Q 84.6099609375 36.6298828125 84.65 36.75 84.8 37.1 84.65 37.45 84.45 37.85 84 38.05 83.5 38.1 83.15 37.85 82.7 37.7 82.55 37.4 82.4 37.05 82.65 36.55 82.7232421875 36.2935546875 83 36.15 83.11640625 36.1267578125 83.25 36.1 83.7 35.9 84.2 36.1 84.419921875 36.2466796875 84.55 36.5
M 88.75 38.05
Q 89.35 37.8 89.9 37.9 90.35 38.1 90.55 38.55 90.65 38.95 90.35 39.35 90 39.8 89.5 40.05 88.95 40.15 88.45 40 87.9 39.75 87.75 39.4 87.6 39.05 87.95 38.55 88.2 38.15 88.75 38.05
M 82.6 42.55
Q 82 42.25 81.7 41.65 81.55 41.1 81.85 40.55 82.1 40.05 82.65 39.8 83.2 39.7 83.8 39.9 84.25 40.25 84.5 40.85 84.8 41.4 84.55 41.95 84.25 42.5 83.65 42.6 83.2 42.85 82.6 42.55
M 89.6 43.9
Q 90.05 43.8 90.5 44.05 90.9 44.15 91 44.6 91.1 45 90.9 45.35 90.65 45.7 90.25 45.85 89.8 45.95 89.35 45.75 88.95 45.55 88.85 45.15 88.7 44.7 88.95 44.35 89.1 43.95 89.6 43.9
M 96.55 42.45
Q 96.4 41.9 96.7 41.5 97 41 97.55 40.85 98.1 40.6 98.5 40.85 98.9 41.05 99 41.6 99.1 42.05 98.8 42.55 98.5 42.95 97.95 43.15 97.5 43.4 97.1 43.15 96.65 42.95 96.55 42.45
M 74.4 21.5
Q 74.8 21.35 75.05 21.4 75.4 21.55 75.55 21.9 75.6 22.25 75.4 22.65 75.35 23 75.05 23.25 74.7 23.45 74.35 23.4 74.05 23.25 73.85 22.9 73.8 22.55 73.95 22.2 74.1 21.8 74.4 21.5
M 79.55 24.9
Q 79.85 25 80 25.35 80.15 25.7 80 26 79.85 26.35 79.65 26.45 79.25 26.7 78.9 26.6 78.6 26.45 78.5 26.25 78.4 25.95 78.45 25.55 78.6 25.2 78.9 25 79.25 24.8 79.55 24.9
M 72.7 29.05
Q 72.8 28.7 73.3 28.5 73.8 28.4 74.4 28.55 74.55 28.6 74.7 28.65 75 28.85 75.25 29.15 75.6 29.55 75.4 30 75.3 30.25 75 30.4 74.95 30.5 74.75 30.5 74.25 30.6 73.7 30.5 73.1 30.3 72.85 29.9 72.5 29.5 72.7 29.05
M 77.15 38.55
Q 76.8 38.55 76.7 38.2 76.6 37.9 76.7 37.55 76.9 37.3 77.2 37.25 77.55 37.1 77.85 37.25 78.1 37.4 78.25 37.7 78.3 38 78.25 38.25 78.1 38.55 77.8 38.65 77.45 38.75 77.15 38.55
M 78.2 43.1
Q 78.7 43 79 43.15 79.45 43.3 79.55 43.75 79.75 44.15 79.45 44.45 79.4 44.85 79 45 78.6 45.1 78.2 44.85 77.8 44.8 77.65 44.4 77.55 43.95 77.6 43.55 77.85 43.2 78.2 43.1
M 71.55 43.1
Q 71 42.95 70.9 42.55 70.75 42.15 71.1 41.65 71.3 41.35 71.9 41.2 72.5 41.05 73 41.1 73.5 41.25 73.7 41.65 73.85 42.15 73.5 42.45 73.2 42.9 72.65 43.15 72.1 43.25 71.55 43.1 Z"/>

<path fill="#FF6BCB" stroke="none" d="
M 69.35 44.45
L 68.3 44.6 39.65 48.75 37.8 49.05
Q 33.15 51.15 36.65 55.85
L 36.9 56.85
Q 43.60234375 58.680859375 50.45 58.3
L 50.45 58.1
Q 50 57.8 49.85 57.3 49.7 56.9 49.95 56.6 50.25 56.3 50.8 56.45 51.25 56.55 51.7 56.85 52.15 57.25 52.35 57.7 52.4134765625 57.953515625 52.3 58.15 54.88984375 57.890625 57.45 57.3 60.25078125 56.7142578125 63.05 55.75 63.2791015625 55.5 63.6 55.5 63.669921875 55.5 63.7 55.5 63.8890625 55.44140625 64.05 55.35 66.98984375 54.3099609375 69.95 52.85 73.1611328125 51.2544921875 76.4 49.2 76.4513671875 49.180859375 76.5 49.15 75.5 47.4 74.1 46.7 71.55 45.3 69.35 44.45
M 61.05 48.85
Q 61.6 48.9 62.05 49.25 62.5 49.6 62.6 50.1 62.7 50.55 62.35 50.85 62.05 51.2 61.55 51.15 61 51.1 60.6 50.75 60.1 50.4 60 49.9 59.85 49.45 60.15 49.15 60.5 48.8 61.05 48.85
M 67.35 50.15
Q 67.8 50.1 68.1 50.3 68.45 50.55 68.4 50.95 68.45 51.35 68.1 51.7 67.8 52 67.35 52.05 67 52.05 66.65 51.8 66.35 51.55 66.3 51.2 66.35 50.8 66.65 50.45 67 50.15 67.35 50.15
M 57.6 55.4
Q 58.05 55.3 58.25 55.55 58.55 55.85 58.5 56.15 58.45 56.5 58.15 56.85 57.8 57.15 57.45 57.2 57.1 57.3 56.8 57.05 56.55 56.85 56.55 56.5 56.6 56.15 56.95 55.85 57.25 55.5 57.6 55.4
M 54.9 50.8
Q 55.25 50.75 55.5 50.9 55.75 51.15 55.75 51.5 55.75 51.85 55.5 52.15 55.2 52.4 54.8 52.45 54.45 52.45 54.15 52.3 53.95 52.05 53.95 51.8 53.95 51.4 54.25 51.15 54.55 50.85 54.9 50.8
M 44.45 53.35
Q 44.45 53.5 44.25 53.8 44.1 54 43.8 54.2 43.3 54.3 43 54.25 42.7 54.1 42.6 53.9 42.55 53.65 42.7 53.45 42.9 53.15 43.3 53.1 43.65 53 43.95 53.05 44.25 53.1 44.45 53.35 Z"/>

<path fill="#9F3535" stroke="none" d="
M 62.05 19.7
Q 62.094140625 19.7126953125 62.1 19.7 62.3974609375 19.8166015625 62.55 19.95
L 62.6 20 62.6 20 63.05 19.15 62 19.65
Q 62.0375 19.65 62.05 19.65
L 62.05 19.7
M 56 8.95
Q 56.2 9.26484375 56.2 9.6
L 56.35 9
Q 56.186328125 9.0052734375 56 8.95 Z"/>

<path fill="#73034C" stroke="none" d="
M 37.85 38.25
Q 37.45 38.35 37.15 38.65 36.9 38.95 36.95 39.35 37 39.65 37.25 39.95 37.6 40.1 37.95 40.1 38.45 40.05 38.6 39.8 38.9 39.5 38.85 39.1 38.8 38.75 38.5 38.55 38.25 38.25 37.85 38.25
M 29.3 35.5
Q 29.7 35.35 30 35.05 30.1 34.85 30 34.55 29.95 34.3 29.65 34.25 29.3 34.1 28.95 34.25 28.45 34.35 28.3 34.6 28.05 34.9 28.2 35.15 28.3 35.4 28.6 35.55 28.9 35.55 29.3 35.5
M 40.05 34.65
Q 39.65 34.35 39.15 34.4 38.6 34.4 38.25 34.9 37.9 35.25 38.05 35.8 38.1 36.35 38.45 36.75 38.85 37.05 39.4 37.05 39.95 36.9 40.3 36.55 40.65 36.1 40.6 35.55 40.45 35 40.05 34.65
M 34.45 35.85
Q 34.1 35.55 33.65 35.6 33.1 35.65 32.7 36.1 32.4 36.3 32.4 36.65 32.45 37.1 32.85 37.3 33.2 37.55 33.8 37.45 34.3 37.45 34.6 37.1 35 36.85 34.95 36.45 34.95 36.1 34.45 35.85
M 64.75 39.9
Q 65.1 39.8 65.4 39.65 65.6 39.4 65.6 39.1 65.55 38.85 65.25 38.7 64.95 38.5 64.55 38.55 64.2 38.55 63.85 38.8 63.6 39.05 63.6 39.3 63.65 39.6 63.95 39.75 64.25 39.95 64.75 39.9
M 61.65 32.45
Q 61.7 32.7 62 32.8 62.25 32.95 62.6 32.8 62.9 32.75 63 32.5 63.15 32.3 63.05 32.05 62.95 31.75 62.65 31.65 62.4 31.5 62.1 31.55 61.75 31.7 61.65 31.9 61.55 32.15 61.65 32.45
M 52.75 40.9
Q 53 40.6 52.9 40.3 52.9 40 52.7 39.75 52.45 39.6 52.15 39.5 51.9 39.6 51.6 39.8 51.5 40.05 51.5 40.4 51.5 40.7 51.8 40.95 52.05 41.1 52.25 41.1 52.65 41.1 52.75 40.9
M 59.45 43.3
Q 59.4 43.1 59.1 42.9 58.85 42.8 58.4 42.85 58.05 42.8 57.65 43.1 57.45 43.3 57.5 43.6 57.55 43.85 57.85 43.95 58.15 44.15 58.55 44.15 58.9 44.1 59.2 43.85 59.5 43.6 59.45 43.3
M 58.9 38.4
Q 58.9 38.1 58.55 37.9 58.3 37.7 57.85 37.75 57.5 37.8 57.15 38.1 56.95 38.2 56.9 38.5 57 38.75 57.2 39 57.6 39.1 57.95 39.1 58.4 39.05 58.6 38.8 58.9 38.65 58.9 38.4
M 50.45 45.8
Q 50.15 46 50.15 46.3 50.2 46.65 50.55 46.9 51.05 47 51.5 46.95 52.1 46.95 52.4 46.7 52.75 46.4 52.75 46.1 52.75 45.75 52.35 45.65 51.85 45.45 51.4 45.5 50.85 45.5 50.45 45.8
M 42.6 43.15
Q 42.1 42.85 41.55 43.1 40.95 43.2 40.65 43.6 40.4 44.15 40.6 44.55 40.7 45 41.25 45.15 41.65 45.45 42.3 45.2 42.9 45.1 43.2 44.6 43.5 44.15 43.35 43.75 43.15 43.3 42.6 43.15
M 44 39.4
Q 44 39.15 43.85 39.05 43.6 38.8 43.25 38.85 42.95 38.85 42.8 39.1 42.6 39.3 42.65 39.6 42.65 39.8 42.85 40 43.05 40.15 43.45 40.1 43.75 40.15 43.9 40 44.15 39.7 44 39.4
M 47.5 41.55
Q 47.15 41.6 47.05 41.85 46.8 42.05 46.95 42.45 46.95 42.8 47.1 43.15 47.35 43.25 47.7 43.2 48 43.2 48.2 43 48.35 42.65 48.35 42.25 48.3 41.95 48.1 41.75 47.8 41.5 47.5 41.55
M 48.7 35.95
Q 48.1 36.1 47.75 36.35 47.4 36.55 47.45 37.05 47.5 37.3 47.9 37.6 48.3 37.8 48.9 37.75 49.35 37.7 49.7 37.5 50.15 37.1 50 36.8 50 36.35 49.55 36.2 49.2 35.95 48.7 35.95
M 44.4 33.55
Q 44.1 33.25 43.65 33.25 43.3 33.25 43.05 33.55 42.85 33.8 42.9 34.1 42.9 34.55 43.25 34.85 43.5 35 43.85 35 44.25 35 44.5 34.7 44.7 34.35 44.7 34 44.7 33.6 44.4 33.55
M 61.85 21.4
Q 61.65 21.3 61.35 21.05 60.05 20.25 56.9 19 55 18.35 53 18 51.75 17.75 50.6 17.75 49.9 17.7 49.25 17.6 45.5 17.6 45.1 17.45
L 43.55 17.7
Q 43.3 17.75 43 17.75 42.9 17.75 42.85 17.8 42.6513671875 17.8193359375 42.45 17.85 41.1541015625 17.984765625 40 18.2 39.5388671875 18.2966796875 39.1 18.4 37.15 18.95 35.5 19.7 34.225 20.3375 33.35 21.05 33.192578125 21.1724609375 33.05 21.3 30.85 23.2 30.95 25.45 31.0046875 25.705078125 31.05 25.95 31.1546875 26.3685546875 31.25 26.75 31.55 27.45 32.05 28.2 33.65 27.45 35.35 26.8 35.4 26.5 35.75 26.5 36 26.5 36.15 26.5 37.65 26 39.2 25.45 39.1 25.35 39.05 25.1 38.9 24.75 39.05 24.45 39.15 24.1 39.5 23.8 40.05 23.25 41.05 23.2 42.2 23 43.25 23.4 43.85 23.65 44.2 24.2 46.85 23.55 49.5 23.25 49.3 23.2 49.2 23.2 49.15 23.15 49.05 23.15 47.95 22.85 47.75 22.15 47.65 21.7 47.8 21.4 47.95 21 48.35 20.75 48.848046875 20.251953125 49.85 20.05 50.070703125 20.025390625 50.3 20 51.6 19.8 52.65 20.25 53.553515625 20.508203125 53.8 21.1 53.8291015625 21.2384765625 53.85 21.35 54.05 22 53.35 22.6 53.1 22.8 52.75 22.95 55.0056640625 22.8009765625 57.25 22.8
L 57.25 24.05 57.3 22.8
Q 59.3923828125 22.865234375 61.45 23.05 62.3796875 23.1361328125 63.3 23.25
L 62.55 22.15 61.85 21.4
M 43.3 19.5
Q 43.85 19.4 44.75 19.65 45.2 19.95 45.35 20.4 45.45 20.65 45.35 20.85 45.25 20.95 45.1 21.1 44.5 21.4 43.95 21.55 43.65 21.6 43.45 21.6 43 21.55 42.65 21.4 41.9 21.2 41.75 20.75 41.6 20.3 42.25 19.95 42.6 19.6 43.3 19.5
M 34.75 24.35
Q 34.0875 24.1015625 33.8 23.55 33.784375 23.42890625 33.75 23.3 33.6 22.8 34.15 22.2 34.7 21.65 35.55 21.6 35.856640625 21.5353515625 36.15 21.55 36.7421875 21.5615234375 37.25 21.9 38.05 22.25 38.2 22.8 38.4 23.45 37.95 23.9 37.9 23.95 37.85 23.95 37.3 24.45 36.35 24.6 35.55 24.8 34.75 24.35 Z"/>

<path fill="#130606" stroke="none" d="
M 36.15 26.5
Q 36 26.5 35.75 26.5 35.4 26.5 35.35 26.8 34.9 27.2 34.95 27.45 35.05 27.85 35.65 28 35.95 28.25 36.3 28.2 36.9 28.15 37.2 27.85 37.25 27.55 37.15 27.25 37.1 26.95 36.9 26.65 36.55 26.5 36.2 26.5
L 36.15 26.5
M 59.85 24.25
Q 58.6 23.9 57.25 24.05 56.05 24.15 55.3 24.8 54.35 25.5 54.55 26.3 54.7 27 56.05 27.45 56.25 27.45 56.5 27.6 57.45 28 58.4 27.85 59.75 27.7 60.65 26.95 61.05 26.5 61.15 26.25 61.3 25.85 61.15 25.5 61 24.8 59.85 24.25
M 50.3 20
Q 50.070703125 20.025390625 49.85 20.05 48.848046875 20.251953125 48.35 20.75 47.95 21 47.8 21.4 47.65 21.7 47.75 22.15 47.95 22.85 49.05 23.15 49.15 23.15 49.2 23.2 49.3 23.2 49.5 23.25 50.25 23.45 51.3 23.25 52.15 23.15 52.75 22.95 53.1 22.8 53.35 22.6 54.05 22 53.85 21.35 53.8291015625 21.2384765625 53.8 21.1 53.553515625 20.508203125 52.65 20.25 51.6 19.8 50.3 20
M 44.2 24.2
Q 43.85 23.65 43.25 23.4 42.2 23 41.05 23.2 40.05 23.25 39.5 23.8 39.15 24.1 39.05 24.45 38.9 24.75 39.05 25.1 39.1 25.35 39.2 25.45 39.5 25.95 40.2 26.05 40.4 26.15 40.6 26.25 41.25 26.45 42 26.4 43.15 26.25 43.95 25.7 44.2 25.45 44.3 25.2 44.45 24.85 44.3 24.45 44.25 24.35 44.2 24.2
M 43.15 29.25
Q 42.95 28.7 42.2 28.35 41.4 27.95 40.2 28 39.15 28.2 38.85 28.8 38.25 29.2 38.45 29.8 38.6 30.45 39.4 30.85 40 31.1 41.1 31.05 42.25 30.85 42.8 30.5 43.35 29.9 43.15 29.25
M 51.25 28.7
Q 51.55 28.5 51.75 28.35 52.05 27.95 51.85 27.45 51.6 26.7 50.55 26.25 49.9 26 49.25 26 48.85 26 48.55 26 47.45 26.15 46.75 26.7 46 27.4 46.3 28.2 46.45 28.9 47.45 29.25 48.55 29.8 49.55 29.6 50.65 29.5 51.25 28.7
M 56.6 30.6
Q 56.9 30.3 56.8 29.9 56.7 29.5 56.15 29.2 55.3 29.05 54.55 29.15 53.7 29.25 53.2 29.5 52.8 30 52.85 30.45 53 30.85 53.7 30.95 54.35 31.35 55.2 31.25 55.95 31.15 56.6 30.6
M 33.8 23.55
Q 34.0875 24.1015625 34.75 24.35 35.55 24.8 36.35 24.6 37.3 24.45 37.85 23.95 37.9 23.95 37.95 23.9 38.4 23.45 38.2 22.8 38.05 22.25 37.25 21.9 36.7421875 21.5615234375 36.15 21.55 35.856640625 21.5353515625 35.55 21.6 34.7 21.65 34.15 22.2 33.6 22.8 33.75 23.3 33.784375 23.42890625 33.8 23.55
M 44.75 19.65
Q 43.85 19.4 43.3 19.5 42.6 19.6 42.25 19.95 41.6 20.3 41.75 20.75 41.9 21.2 42.65 21.4 43 21.55 43.45 21.6 43.65 21.6 43.95 21.55 44.5 21.4 45.1 21.1 45.25 20.95 45.35 20.85 45.45 20.65 45.35 20.4 45.2 19.95 44.75 19.65 Z"/>

<path fill="#A6076E" stroke="none" d="
M 63.85 24.05
L 63.3 23.25
Q 62.3796875 23.1361328125 61.45 23.05 59.3923828125 22.865234375 57.3 22.8
L 57.25 24.05
Q 58.6 23.9 59.85 24.25 61 24.8 61.15 25.5 61.3 25.85 61.15 26.25 61.05 26.5 60.65 26.95 59.75 27.7 58.4 27.85 57.45 28 56.5 27.6 56.25 27.45 56.05 27.45 54.7 27 54.55 26.3 54.35 25.5 55.3 24.8 56.05 24.15 57.25 24.05
L 57.25 22.8
Q 55.0056640625 22.8009765625 52.75 22.95 52.15 23.15 51.3 23.25 50.25 23.45 49.5 23.25 46.85 23.55 44.2 24.2 44.25 24.35 44.3 24.45 44.45 24.85 44.3 25.2 44.2 25.45 43.95 25.7 43.15 26.25 42 26.4 41.25 26.45 40.6 26.25 40.4 26.15 40.2 26.05 39.5 25.95 39.2 25.45 37.65 26 36.15 26.5
L 36.2 26.5
Q 36.55 26.5 36.9 26.65 37.1 26.95 37.15 27.25 37.25 27.55 37.2 27.85 36.9 28.15 36.3 28.2 35.95 28.25 35.65 28 35.05 27.85 34.95 27.45 34.9 27.2 35.35 26.8 33.65 27.45 32.05 28.2 32.7 29 33.95 30 34.8 30.55 36.05 31.2 37.45 31.8 38.9 32.3
L 39.05 32.3
Q 39.8 32.5 40.7 32.7 41.75 32.95 42.95 33.05
L 47.05 33.4
Q 47.45 33.35 47.8 33.45 48 33.4 48.2 33.4 48.95 33.4 49.8 33.35 52.9 33.15 55.5 32.65 55.65 32.5 55.75 32.5 57.15 32.2 58.3 31.7
L 58.25 31.65 59.65 31.05
Q 59.8 31.05 60 30.8 62.95 29.3 63.8 27.35 63.9 27 63.95 26.65 64 26.25 64 25.75 64.1953125 25.4572265625 64.15 25.2
L 64.15 25.15
Q 64.1 24.9 63.95 24.45
L 63.85 24.05
M 56.8 29.9
Q 56.9 30.3 56.6 30.6 55.95 31.15 55.2 31.25 54.35 31.35 53.7 30.95 53 30.85 52.85 30.45 52.8 30 53.2 29.5 53.7 29.25 54.55 29.15 55.3 29.05 56.15 29.2 56.7 29.5 56.8 29.9
M 51.75 28.35
Q 51.55 28.5 51.25 28.7 50.65 29.5 49.55 29.6 48.55 29.8 47.45 29.25 46.45 28.9 46.3 28.2 46 27.4 46.75 26.7 47.45 26.15 48.55 26 48.85 26 49.25 26 49.9 26 50.55 26.25 51.6 26.7 51.85 27.45 52.05 27.95 51.75 28.35
M 42.2 28.35
Q 42.95 28.7 43.15 29.25 43.35 29.9 42.8 30.5 42.25 30.85 41.1 31.05 40 31.1 39.4 30.85 38.6 30.45 38.45 29.8 38.25 29.2 38.85 28.8 39.15 28.2 40.2 28 41.4 27.95 42.2 28.35 Z"/>
</g>

<g id="stink_0_Layer0_0_FILL">
<path fill="#E9E9E9" stroke="none" d="
M 5.9 14.55
Q 3.95 12.9 3.6 11.2 3.2 9.5 5.7 5.45 8.2 1.35 9.3 0.25 10.35 -0.85 3.95 2.55 3.05 3 2.1 4.1 0.15 6.3 0 9.3 -0.15 12.6 1.05 15.3 2 17.55 3.9 18.8 5.8 20.05 7.45 24.65 9.05 29.2 7.85 31.85 6.6 34.5 4.4 37.7 2.2 40.9 1.75 41.2 12.5 35.95 13.2 33.55 13.9 31.1 13.5 26.15 13.1 21.2 11.15 19.35 9.15 17.45 5.9 14.55 Z"/>
</g>

<path id="full_grown_0_Layer0_0_1_STROKES" stroke="#000000" stroke-width="1" stroke-linejoin="round" stroke-linecap="round" fill="none" d="
M 53.85 3.55
Q 58.55 6.8 59.05 7
L 74.25 6.75
Q 76.5 6.75 78.55 8.7 80.7 10.75 79.75 12.2 79.1 13.3 77 15.35 75.85 16.55 74.25 18.1 72.3859375 19.8451171875 70.925 21.05 76.54765625 18.211328125 79.45 18.55 89.6 19.8 92.4 23.8 93.8 25.8 94.35 30.2
L 94.65 34.25 99.05 36.75
Q 103.25 39.6 102.4 41.2 100.7 44.6 100.4 45 98.7 46.8 94.3 47.6 90.05 48.25 82.85 48.85
L 76.55 49.25
Q 76.973828125 49.9080078125 77.3 50.7 78.6 53.5 78.9 56.8 79.15 59.75 76.55 63.65 74.25 67.25 71.25 69.45 68.3 71.45 62.4 72.55 56.6 73.65 52.8 73.25 49 72.8 45.8 68.6 44.85 67.55 41.9 62.65 40.7279296875 60.7455078125 36.825 56.975
L 35.55 59.15 32.75 61.1
Q 31.6 63.45 28.35 63.4
L 25.85 66
Q 23 68.65 21.7 69.55 20.35 70.5 19.65 69.65 19 68.95 19.15 67.1 19.3 65.65 15.65 62.25 13.9 60.6 12 59.15 2.15 53.4 0 45.45 0.075390625 45.0296875 0.15 44.625 1.6009765625 36.7052734375 2.6 34.85 3.55 33 5.8 30.45 6.46953125 29.7162109375 7.075 29.15 -0.30703125 25.6322265625 0.8 22.95 10.25 12.2 30.25 3.25 33.15 3.75 35.35 4.9 35.8251953125 5.180859375 36.25 5.5
L 36.05 5 35.65 2.35
Q 36 -0.25 42.6 0.05 48.715625 0.281640625 53.15 3.1 53.5087890625 3.3115234375 53.85 3.55 Z
M 62.625 20
Q 62.6625 20.0125 62.7 20.05 64.2 21.05 65.4 22.05 65.55 22.25 65.75 22.45 65.9 22.55 66.05 22.65 66.546484375 23.12890625 67 23.65 67.2755859375 23.5896484375 67.45 23.5 68.7171875 22.8966796875 70.925 21.05
M 62.625 20
L 62.6 20 62.575 19.975
Q 62.3974609375 19.8166015625 62.125 19.725 62.094140625 19.7126953125 62.05 19.7
L 62.05 19.675
Q 62.0375 19.65 62 19.65 58.1845703125 17.332421875 53.2 16.55 51.344140625 16.26875 49.325 16.2 49.2875 16.201171875 49.25 16.2 47.2544921875 16.1328125 45.1 16.275 45.0376953125 16.2830078125 44.975 16.3 44.9126953125 16.2955078125 44.85 16.3 44.8 16.25 44.8 16.3 43.85 16.4 42.95 16.5 42.0767578125 16.61640625 41.25 16.75 40.4955078125 16.866796875 39.775 17 39.2275390625 17.09453125 38.7 17.2 31.6119140625 18.66796875 27.125 22.35 26.2654296875 23.0603515625 25.5 23.85 21.4619140625 27.8541015625 20.75 32.6 22.468359375 33.8931640625 23.85 35.6
M 24.55 35.95
Q 32.458984375 40.205078125 39.65 48.775
L 68.3 44.6
Q 68.614453125 44.318359375 68.9 44.025 70.0810546875 42.8412109375 70.825 41.525 72.94453125 37.827734375 71.75 33.05 71.5787109375 32.3251953125 71.375 31.625 69.9837890625 26.9587890625 67 23.65
M 36.25 5.5
Q 37.189453125 6.1814453125 37.95 7.025 40.1369140625 9.4677734375 40.875 13.3 41.1916015625 14.903125 41.25 16.75
M 69.35 44.45
Q 71.55 45.3 74.1 46.7 75.5 47.4 76.5 49.15 76.5306640625 49.19765625 76.55 49.25
M 36.825 56.975
Q 36.74453125 56.891015625 36.65 56.8 35.7 55.85 36.65 55.85 33.15 51.15 37.8 49.05
L 39.65 48.775
M 68.3 44.6
L 69.35 44.45
M 59.05 7
L 66.8 9.9
M 20.75 32.6
Q 19.2951171875 31.5017578125 17.6 30.7 13.95 28.9 13.7 28.7
M 7.075 29.15
Q 8.7990234375 27.5099609375 9.95 27.25 10.4619140625 27.1078125 11.4 27.475 12.1294921875 27.7677734375 13.1 28.35"/>
</defs>

<g filter="url(#Filter_1)" transform="matrix( 1, 0, 0, 1, 0,0) ">
<g transform="matrix( 4.711822509765625, 0, 0, 4.711822509765625, 41.35,173.25) ">
<g transform="matrix( 1, 0, 0, 1, 0,0) ">
<use xlink:href="#full_grown_0_Layer0_0_FILL"/>

<use xlink:href="#full_grown_0_Layer0_0_1_STROKES"/>
</g>

<g transform="matrix( 0.803436279296875, 0, 0, 0.803436279296875, 42.2,7.05) ">
<g transform="matrix( 0.28839111328125, 0.0775909423828125, -0.061920166015625, 0.2301483154296875, -0.3,0.25) ">
<g transform="matrix( 1, 0, 0, 1, 0,0) ">
<use filter="url(#Filter_2)" xlink:href="#stink_0_Layer0_0_FILL"/>
</g>
</g>
</g>
</g>
</g>
</svg>
