
<svg xmlns="http://www.w3.org/2000/svg" version="1.1" xmlns:xlink="http://www.w3.org/1999/xlink" preserveAspectRatio="none" x="0px" y="0px" width="560px" height="544px" viewBox="0 0 560 544">
<defs>
<radialGradient id="Gradient_1" gradientUnits="userSpaceOnUse" cx="0" cy="0" r="20.75" fx="0" fy="0" gradientTransform="matrix( 1, 0, 0, 0.8771084337349399, 34,45.65) " spreadMethod="pad">
<stop  offset="64.31372549019608%" stop-color="#EAF4EE"/>

<stop  offset="90.98039215686275%" stop-color="#FF0000"/>
</radialGradient>

<filter id="Filter_1" x="-20%" y="-20%" width="140%" height="140%" color-interpolation-filters="sRGB">
<feColorMatrix in="SourceGraphic" type="matrix" values="0 0 0 0 1 0 0 0 0 1 0 0 0 0 1 0 0 0 1 0" result="result1"/>
</filter>

<g id="Duplicate_Items_Folder_leg_3_0_Layer2_0_FILL">
<path fill="#FFFFFF" stroke="none" d="
M -3.85 7.45
Q -3 10.2 -0.3 9.65 1.482421875 4.4966796875 0.35 -2.65
L -2.35 -4.2
Q -2.81328125 1.488671875 -3.85 7.45 Z"/>

<path fill="#000000" stroke="none" d="
M 2.55 -5.25
L 3.05 -3.85
Q 2.15 1.15 3.95 5.45 4.1 5.55 4.25 5.65 4.95 6.45 5.2 7.55 5.4 8.65 5.05 9.4 4.65 10.15 3.8 10.2 2.95 10.25 2.65 10.1 2.3 10 1.1 9.7
L -0.3 9.65
Q -3 10.2 -3.85 7.45 -2.81328125 1.488671875 -2.35 -4.2
L -3.7 -5.75
Q -4.6333984375 1.6984375 -5.5 7.7 -4.2 12.1 2.3 10.75
L 3.55 11
Q 4.2 11.2 4.9 11.05 5.55 10.95 6.1 10.05 6.55 9.2 6.35 7.85 6.05 6.5 5.6 6.05 5.15 5.55 4.4 3.25 3.825 1.215234375 3.9 -1.95 4.1701171875 -3.6625 2.55 -5.25 Z"/>

<path fill="#CCCCCC" stroke="none" d="
M 2.55 -5.25
Q 0.01484375 -4.4326171875 0.35 -2.65 1.482421875 4.4966796875 -0.3 9.65
L 1.1 9.7
Q 2.3 10 2.65 10.1 2.95 10.25 3.8 10.2 4.65 10.15 5.05 9.4 5.4 8.65 5.2 7.55 4.95 6.45 4.25 5.65 4.1 5.55 3.95 5.45 2.15 1.15 3.05 -3.85
L 2.55 -5.25 Z"/>
</g>

<g id="Duplicate_Items_Folder_leg_3_0_Layer1_0_FILL">
<path fill="#000000" stroke="none" d="
M -4.75 5.65
Q -4.8662109375 5.6083984375 -5 5.55 -5.2283203125 5.6927734375 -5.9 5.85 -7.5451171875 6.3373046875 -8.2 7 -8.8552734375 7.6724609375 -8.9 8.3 -8.9 8.45 -8.9 8.6 -8.85 10.2 -7.9 10.85 -6.9 11.45 -5.8 11.65 -5 11.85 -4.45 11.6
L -4.65 10.85
Q -4.65 10.8 -4.65 10.75 -4.75 10.4 -4.8 10.05 -4.85 9.4 -4.9 8.6 -4.8416015625 7.7822265625 -4.7 7.05 -4.5955078125 6.5283203125 -4.45 6.05 -4.410546875 5.944921875 -4.4 5.85 -4.5369140625 5.798828125 -4.75 5.65 Z"/>
</g>

<g id="Duplicate_Items_Folder_leg_3_0_Layer0_0_FILL">
<path fill="#000000" stroke="none" d="
M 1.3 11.3
Q 1.3466796875 11.3 1.9 10.35 5.758203125 11.5984375 5.95 7.55 1.93203125 6.9263671875 -0.35 8
L -5.65 6.9
Q -5.842578125 7.5486328125 -5.95 8.3 -5.9 8.85 -5.85 9.35 -5.8 9.65 -5.75 9.9
L -5.7 9.95 -5.55 10.5
Q -5.45 10.6 -5.4 10.75 -5.35 10.75 -5.35 10.85 -5.1 11.15 -4.85 11.45 -4.05 12.25 -3.1 12.35 -2.7 12.5 -2.2 12.45 -0.65 12.25 0.65 11.65 1 11.5 1.3 11.3 Z"/>
</g>

<g id="Duplicate_Items_Folder_tail_copy_0_Layer0_0_FILL">
<path fill="#000000" stroke="none" d="
M 2.25 -0.15
L 2.2 -0.55
Q 1.75 -1.2 1.6 -1.45
L 1.35 -1.9
Q 1.05 -2 0.8 -2.25 0.4 -2.75 -1.15 -3.4 -1.55 -3.5 -2.15 -3.4 -3.15 -2.95 -3.8 -2 -4.3 -1.25 -4.45 -0.5 -4.5 -0.2 -4.55 0.05
L -4.55 1.55
Q -3.9 1.2 -3 0.5 -2.6 -0.65 -1.35 -0.4 -0.15 -0.2 0.8 1.95 1.3 3.05 1.3 3.6 1.4 3.4 1.55 3.2 1.95 2.75 2.1 2.1 2.5 1.15 2.25 -0.15 Z"/>
</g>

<g id="Duplicate_Items_Folder_stand_body_0_Layer2_0_FILL">
<path fill="#000000" stroke="none" d="
M 16.6 3.35
Q 16.45 3.15 16.3 2.95 16.15 2.7 16.05 2.6 16 2.55 13.7 4.25 11.35 6 8.95 7.25 6.45 8.55 6.45 8.65 6.35 8.8 6.4 8.9 6.45 9.1 6.5 9.25 6.85 9.65 7.3 9.9 7.95 10.25 9 10.25
L 9.6 11.3
Q 9.85 11.7 10.25 11.8 10.7 12 11.05 11.75
L 11.1 11.75
Q 11.45 11.6 11.5 11.15 11.5 11.1 11.55 11.1 11.6 10.7 11.35 10.3
L 11.15 9.9
Q 11.55 9.8 12 9.6
L 12.4 10.35
Q 12.7 10.75 13.15 10.95 13.6 11.05 14 10.85 14.4 10.65 14.5 10.15 14.55 9.7 14.3 9.25
L 13.95 8.6
Q 14.6 8.2 15.05 7.7
L 15.2 8
Q 15.45 8.4 15.85 8.55 16.3 8.7 16.7 8.5 17.1 8.25 17.15 7.9
L 17.15 7.85
Q 17.25 7.4 17 7
L 16.5 6.05
Q 16.95 5.2 16.95 4.55 16.95 4 16.7 3.55 16.6 3.45 16.6 3.35
M 16 3.4
Q 16.65 4.2 16.4 4.85 16.35 5 16.3 5.15 15.75 5.9 15.75 6 15.8 6.1 15.8 6.2
L 16.45 7.3
Q 16.55 7.45 16.55 7.6 16.5 7.6 16.5 7.65 16.5 7.8 16.35 7.9 16.2 7.95 16 7.9 15.85 7.8 15.75 7.7
L 15.4 7.1
Q 15.35 7 15.25 6.9 15.15 6.85 15.05 6.9 14.95 6.9 14.85 6.9 14.2 7.55 13.2 8.15 13.15 8.25 13.1 8.35 13.1 8.5 13.2 8.6
L 13.75 9.65
Q 13.85 9.75 13.85 10 13.85 10.15 13.65 10.25
L 13.6 10.25
Q 13.45 10.35 13.3 10.3 13.05 10.25 12.95 10.05
L 12.3 9
Q 12.3 8.9 12.15 8.85 12.05 8.75 11.95 8.85 11.2 9.15 10.45 9.35 10.4 9.35 10.4 9.45 10.3 9.55 10.35 9.65 10.3 9.75 10.4 9.85
L 10.8 10.65
Q 10.9 10.75 10.9 10.9 10.85 10.9 10.9 10.95 10.85 11.1 10.75 11.15
L 10.7 11.15
Q 10.6 11.3 10.35 11.2 10.2 11.15 10.2 11
L 9.35 9.8
Q 9.35 9.7 9.3 9.65 9.2 9.55 9.1 9.6 8.5 9.6 8.05 9.5 7.5 9.4 7.2 9.1
L 16 3.4 Z"/>

<path fill="#FDDFDF" stroke="none" d="
M 16.3 5.15
Q 16.35 5 16.4 4.85 12.25 7.8 8.05 9.5 8.5 9.6 9.1 9.6 9.2 9.55 9.3 9.65 9.35 9.7 9.35 9.8
L 10.2 11
Q 10.2 11.15 10.35 11.2 10.6 11.3 10.7 11.15
L 10.75 11.15
Q 10.85 11.1 10.9 10.95 10.85 10.9 10.9 10.9 10.9 10.75 10.8 10.65
L 10.4 9.85
Q 10.3 9.75 10.35 9.65 10.3 9.55 10.4 9.45 10.4 9.35 10.45 9.35 11.2 9.15 11.95 8.85 12.05 8.75 12.15 8.85 12.3 8.9 12.3 9
L 12.95 10.05
Q 13.05 10.25 13.3 10.3 13.45 10.35 13.6 10.25
L 13.65 10.25
Q 13.85 10.15 13.85 10 13.85 9.75 13.75 9.65
L 13.2 8.6
Q 13.1 8.5 13.1 8.35 13.15 8.25 13.2 8.15 14.2 7.55 14.85 6.9 14.95 6.9 15.05 6.9 15.15 6.85 15.25 6.9 15.35 7 15.4 7.1
L 15.75 7.7
Q 15.85 7.8 16 7.9 16.2 7.95 16.35 7.9 16.5 7.8 16.5 7.65 16.5 7.6 16.55 7.6 16.55 7.45 16.45 7.3
L 15.8 6.2
Q 15.8 6.1 15.75 6 15.75 5.9 16.3 5.15 Z"/>

<path fill="#FBC8C8" stroke="none" d="
M 16.4 4.85
Q 16.65 4.2 16 3.4
L 7.2 9.1
Q 7.5 9.4 8.05 9.5 12.25 7.8 16.4 4.85 Z"/>
</g>

<g id="Duplicate_Items_Folder_stand_body_0_Layer1_0_FILL">
<path fill="#000000" stroke="none" d="
M 19.8 -4.95
Q 19.45 -6.15 19.35 -6.55 19.15 -6.9 19 -7.95 18.75 -9.1 16.1 -12.05 13.3 -14.95 10.7 -15.1 7.95 -15.25 5.2 -15.25 2.15 -15.15 -0.05 -15.2 -2.3 -15.25 -3.45 -15.2 -4.55 -15.2 -6.55 -15.3 -8.1 -15.6 -8.75 -15.9 -9 -15.9 -9.7 -15.7 -16.05 -14.3 -19.15 -9.85 -18.15 -5.2 -14.2 3.15 -10.2 11.4 -0.3 10.5 9.5 9.65 14.3 5.7 19.05 1.6 19.75 -0.25 20.5 -2.15 20.25 -2.35 20.05 -2.65 20.1 -3.2 20.1 -3.7 19.8 -4.95
M 3.3 -8.15
Q 4.8 -9.1 4.7 -10.25 4.7 -10.4 4.65 -10.55 6.8 -10 8.75 -9 8.1 -8.05 8.25 -7 8.4 -5.6 9.6 -4.7 10.85 -3.8 12.45 -3.95 13.95 -4.05 15 -5.15 19.1 -2.45 17.7 -2.25 17.4 -1.9 17.25 -1.65 16.25 -0.05 15.95 0.4 15.55 0.9 12.15 4.4 8.697265625 8.0447265625 3.85 8.35 -0.9896484375 8.7169921875 -5.15 8.55 -9.2720703125 8.38125 -12.3 2.95 -15.2669921875 -2.4927734375 -16.2 -6.15 -16.262109375 -6.4248046875 -16.35 -6.7 -16.5 -7.1875 -16.6 -7.65 -16.4876953125 -7.187890625 -16.3 -6.7 -10.5 -9.7 -5.45 -10.7 -6.05 -10 -6 -9.25 -5.9 -8.1 -4.25 -7.45 -2.6 -6.75 -0.35 -6.95 1.85 -7.2 3.3 -8.15 Z"/>

<path fill="#FFFFFF" stroke="none" d="
M 4.7 -10.25
Q 4.8 -9.1 3.3 -8.15 1.85 -7.2 -0.35 -6.95 -2.6 -6.75 -4.25 -7.45 -5.9 -8.1 -6 -9.25 -6.05 -10 -5.45 -10.7 -10.5 -9.7 -16.3 -6.7 -16.2373046875 -6.426171875 -16.2 -6.15 -15.2669921875 -2.4927734375 -12.3 2.95 -9.2720703125 8.38125 -5.15 8.55 -0.9896484375 8.7169921875 3.85 8.35 8.697265625 8.0447265625 12.15 4.4 15.55 0.9 15.95 0.4 16.25 -0.05 17.25 -1.65 17.4 -1.9 17.7 -2.25 19.1 -2.45 15 -5.15 13.95 -4.05 12.45 -3.95 10.85 -3.8 9.6 -4.7 8.4 -5.6 8.25 -7 8.1 -8.05 8.75 -9 6.8 -10 4.65 -10.55 4.7 -10.4 4.7 -10.25 Z"/>
</g>

<g id="Duplicate_Items_Folder_stand_body_0_Layer0_0_FILL">
<path fill="#000000" stroke="none" d="
M 5.9 -7.05
L 9.35 -10 10.25 -4.45 13.4 -6.7 14.1 -4.7 18.6 -5.3
Q 17.05 -11.6 12.7 -13.7 8.4 -15.85 3.75 -14.4
L 5.9 -7.05
M 10.25 -13.05
Q 10.95 -12.9 11.6 -12.55 12.25 -12.2 14.35 -10.5
L 14.4 -10.45
Q 14.4 -10.4 14.5 -10.35 14.65 -10.25 14.7 -10.2 16.45 -8.7 16.6 -7.85 16.7 -6.95 16.8 -6.35
L 15.7 -6 15 -5.75 14.5 -5.7 13.85 -8.2 11.8 -6.5 10.6 -5.4 10.5 -5.85 10 -11 9.15 -10.8 6.35 -8.6 6.25 -8.75 5.15 -13.05
Q 6.057421875 -13.2888671875 7 -13.35 7.0564453125 -13.35 7.1 -13.35
L 8.7 -13.3 10.25 -13.05 Z"/>

<path fill="#FF6699" stroke="none" d="
M 10.5 -5.85
Q 11.8 -6.85 11.85 -9.2 11.2 -10.15 10 -11
L 10.5 -5.85
M 16.8 -6.35
Q 16.7 -6.95 16.6 -7.85 16.45 -8.7 14.7 -10.2 15.9 -8.05 15.7 -6
L 16.8 -6.35
M 7.9 -12.8
Q 7.4 -13.1 6.65 -13.25 6.8455078125 -13.328125 7 -13.35 6.057421875 -13.2888671875 5.15 -13.05
L 6.25 -8.75
Q 7.8 -10 7.9 -12.8 Z"/>

<path fill="#F9E8C6" stroke="none" d="
M 14.7 -10.2
Q 14.65 -10.25 14.5 -10.35
L 15 -5.75 15.7 -6
Q 15.9 -8.05 14.7 -10.2
M 11.8 -6.5
Q 12.7 -7.7 11.85 -9.2 11.8 -6.85 10.5 -5.85
L 10.6 -5.4 11.8 -6.5
M 6.25 -8.75
L 6.35 -8.6 9.15 -10.8
Q 8.8 -12.15 7.9 -12.8 7.8 -10 6.25 -8.75 Z"/>

<path fill="#CC0000" stroke="none" d="
M 11.6 -12.55
Q 10.95 -12.9 10.25 -13.05
L 8.7 -13.3 7.1 -13.35
Q 7.0564453125 -13.35 7 -13.35 6.8455078125 -13.328125 6.65 -13.25 7.4 -13.1 7.9 -12.8 8.8 -12.15 9.15 -10.8
L 10 -11
Q 11.2 -10.15 11.85 -9.2 12.7 -7.7 11.8 -6.5
L 13.85 -8.2 14.5 -5.7 15 -5.75 14.5 -10.35
Q 14.4 -10.4 14.4 -10.45
L 14.35 -10.5
Q 12.25 -12.2 11.6 -12.55 Z"/>
</g>

<g id="Duplicate_Items_Folder_head_copy_30_0_Layer1_0_FILL">
<path fill="#000000" stroke="none" d="
M 15.05 -7.75
Q 13.0609375 -14.538671875 8.45 -15.3
L -0.5 -16.7
Q -7.370703125 -16.776953125 -9.3 -15.9 -16.4986328125 -7.7619140625 -16.2 2.5 -15.9 12.8041015625 -14.75 15.5 -8.7 19.2 -3.7 20.1 -1.9 20.4 -0.1 20.4 5.9 20.3 12.1 15.85 13.953125 12.0546875 15.5 5.55 17.091796875 -0.9591796875 15.05 -7.75
M 6.5 -13.95
Q 9.9255859375 -12.55859375 12.95 -7.75 16.012890625 -2.94296875 11.95 8.75 10.85 8.95 9.75 8.8 8.5 8.65 7.45 9.65 6.45 10.6 6.25 12.05 6.05 13.6 6.4 14.95 6.75 16.25 7.3 16.35 7.8 16.4 4.9 17.65 1.9 18.9 -2.75 18.5 -7.45 18.15 -12.55 15.3 -12.85 13.95 -13.2 13.25
L -13.15 13.5
Q -13.2 13.3 -13.25 13.15 -13.35 13.05 -13.4 12.95 -13.35 12.9 -13.3 12.9 -14.2 9.45 -14.55 5.05 -14.9 -7.9 -8.95 -12.65 -8.65 -12.9 -8.55 -13 -7.4 -12.85 -6.65 -12.2 -5.75 -11.45 -4.35 -11.3 -2.95 -11.15 -1.85 -11.7 -0.7517578125 -12.1984375 -0.55 -13.5 -0.350390625 -14.753125 0 -15.4 0.20078125 -15.7240234375 0.1 -15.4 3.0626953125 -15.2984375 6.5 -13.95 Z"/>

<path fill="#FFFFFF" stroke="none" d="
M 12.95 -7.75
Q 9.9255859375 -12.55859375 6.5 -13.95 3.0626953125 -15.2984375 0.1 -15.4 0.20078125 -15.7240234375 0 -15.4 -0.350390625 -14.753125 -0.55 -13.5 -0.7517578125 -12.1984375 -1.85 -11.7 -2.95 -11.15 -4.35 -11.3 -5.75 -11.45 -6.65 -12.2 -7.4 -12.85 -8.55 -13 -8.65 -12.9 -8.95 -12.65 -14.9 -7.9 -14.55 5.05 -14.2 9.45 -13.3 12.9 -13.35 12.9 -13.4 12.95 -13.35 13.05 -13.25 13.15 -13.2 13.3 -13.15 13.5
L -13.2 13.25
Q -12.85 13.95 -12.55 15.3 -7.45 18.15 -2.75 18.5 1.9 18.9 4.9 17.65 7.8 16.4 7.3 16.35 6.75 16.25 6.4 14.95 6.05 13.6 6.25 12.05 6.45 10.6 7.45 9.65 8.5 8.65 9.75 8.8 10.85 8.95 11.95 8.75 16.012890625 -2.94296875 12.95 -7.75 Z"/>
</g>

<g id="Duplicate_Items_Folder_head_copy_30_0_Layer0_0_FILL">
<path fill="#000000" stroke="none" d="
M 7.75 -11.15
L 6.5 -6.8 10.35 -7.75 9.95 -5.8 14.45 -5.2
Q 14.5 -9.55 11.35 -12.3 8.2 -15.1 3.85 -15.1
L 3.7 -10.25 7.75 -11.15
M 4.95 -14.55
Q 5.9 -14.45 6.9 -14.15
L 9.45 -13
Q 10 -12.7 10.5 -12.2 10.95 -11.8 12.35 -10
L 12.35 -9.85 12.4 -9.85
Q 12.5 -9.7 12.55 -9.65 13.65 -8.1 13.45 -7.55 13.3 -6.9 13.2 -6.4
L 12.15 -6.55 11.35 -6.6 10.9 -6.7 11.2 -8.65 8.8 -8.05 7.35 -7.7 7.45 -8 8.6 -11.7 7.75 -11.8 4.55 -11.1 4.55 -11.3 4.95 -14.55 Z"/>

<path fill="#FF6699" stroke="none" d="
M 13.2 -6.4
Q 13.3 -6.9 13.45 -7.55 13.65 -8.1 12.55 -9.65 12.9 -7.85 12.15 -6.55
L 13.2 -6.4
M 9.7 -9.9
Q 9.4 -10.7 8.6 -11.7
L 7.45 -8
Q 8.9 -8.25 9.7 -9.9
M 6.9 -14.15
Q 5.9 -14.45 4.95 -14.55
L 4.55 -11.3
Q 6.35 -11.65 7.3 -13.55 6.95 -13.9 6.3 -14.2 6.6 -14.2 6.9 -14.15 Z"/>

<path fill="#F9E8C6" stroke="none" d="
M 12.55 -9.65
Q 12.5 -9.7 12.4 -9.85
L 11.35 -6.6 12.15 -6.55
Q 12.9 -7.85 12.55 -9.65
M 4.55 -11.3
L 4.55 -11.1 7.75 -11.8
Q 7.95 -12.8 7.3 -13.55 6.35 -11.65 4.55 -11.3
M 8.8 -8.05
Q 10 -8.65 9.7 -9.9 8.9 -8.25 7.45 -8
L 7.35 -7.7 8.8 -8.05 Z"/>

<path fill="#CC0000" stroke="none" d="
M 9.45 -13
L 6.9 -14.15
Q 6.6 -14.2 6.3 -14.2 6.95 -13.9 7.3 -13.55 7.95 -12.8 7.75 -11.8
L 8.6 -11.7
Q 9.4 -10.7 9.7 -9.9 10 -8.65 8.8 -8.05
L 11.2 -8.65 10.9 -6.7 11.35 -6.6 12.4 -9.85 12.35 -9.85 12.35 -10
Q 10.95 -11.8 10.5 -12.2 10 -12.7 9.45 -13 Z"/>
</g>

<g id="Duplicate_Items_Folder_ear_copy_6_0_Layer0_0_FILL">
<path fill="#000000" stroke="none" d="
M -3.4 -3.55
Q -2.5 -1.95 -0.8 -1.55 0.85 -1.2 1.3 0.5 1.72265625 2.0966796875 2.85 1.85 2.9240234375 1.82421875 3 1.8 4.05 -3.2 3.05 -6.15 2.05 -9.2 -3.55 -8.85 -4.9 -9.45 -6.2 -7.15
L -6.8 -5.85
Q -6.1 -5.45 -5 -5.25 -4.4 -5.15 -3.4 -3.55
M 1.8 -0.3
Q 0.9923828125 -0.0263671875 0.65 -1.2 0.3482421875 -2.40546875 -0.65 -2.75 -1.6451171875 -3.0837890625 -2.5 -4.15 -3.305078125 -5.16640625 -3.9 -5.25 -4.4984375 -5.3447265625 -5 -5.65
L -4.65 -6.5 -4.6 -6.55
Q -3.7 -8.15 -2.75 -7.75 1.2 -8 1.9 -5.85 2.6 -3.8 1.85 -0.3
L 1.8 -0.3 Z"/>

<path fill="#FFFFFF" stroke="none" d="
M 1.8 -0.3
L 1.85 -0.3
Q 2.6 -3.8 1.9 -5.85 1.2 -8 -2.75 -7.75 -3.7 -8.15 -4.6 -6.55
L -4.65 -6.5
Q -2.4630859375 -7.05859375 -0.65 -5.35 1.4994140625 -3.541796875 1.8 -0.3 Z"/>

<path fill="#FFCCCC" stroke="none" d="
M 0.65 -1.2
Q 0.9923828125 -0.0263671875 1.8 -0.3 1.4994140625 -3.541796875 -0.65 -5.35 -2.4630859375 -7.05859375 -4.65 -6.5
L -5 -5.65
Q -4.4984375 -5.3447265625 -3.9 -5.25 -3.305078125 -5.16640625 -2.5 -4.15 -1.6451171875 -3.0837890625 -0.65 -2.75 0.3482421875 -2.40546875 0.65 -1.2 Z"/>
</g>

<g id="Duplicate_Items_Folder_eye_blink_copy_6_0_Layer2_0_FILL">
<path fill="#000000" stroke="none" d="
M 53.15 47.75
Q 54.2 38.25 49.3 31.5 44.4 24.75 37.8 25.6 31.2 26.45 22.15 32.75 13.15 39 10.9 54.25 8.6 69.45 15.5 73.95 22.4 78.35 33.6 75.1 44.75 71.7 48.45 64.5 52.05 57.3 53.15 47.75
M 45.5 32.2
Q 47.65 35.25 48.1 36.1 50.95 41.05 50.2 47.75 49.65 52.85 48.2 57.1 37.05 63.6 21.4 59.4 17.65 54.75 17.65 48.45 17.65 47.25 17.8 46.05 18.45 40.55 24.75 36.6 31.05 32.6 37.2 30.85 43.3 29.1 45.5 32.2 Z"/>

<path fill="url(#Gradient_1)" stroke="none" d="
M 48.1 36.1
Q 47.65 35.25 45.5 32.2 43.3 29.1 37.2 30.85 31.05 32.6 24.75 36.6 18.45 40.55 17.8 46.05 17.65 47.25 17.65 48.45 17.65 54.75 21.4 59.4 37.05 63.6 48.2 57.1 49.65 52.85 50.2 47.75 50.95 41.05 48.1 36.1 Z"/>
</g>

<g id="Duplicate_Items_Folder_pupil_copy_3_0_Layer0_0_FILL">
<path fill="#000000" stroke="none" d="
M 1.5 -1.4
Q 0.95 -2 0.15 -2 -0.65 -2 -1.25 -1.4 -1.8 -0.75 -1.8 0.15 -1.8 1.05 -1.25 1.65 -0.65 2.3 0.15 2.3 0.95 2.3 1.5 1.65 2.1 1.05 2.1 0.15 2.1 -0.75 1.5 -1.4 Z"/>
</g>

<g id="Duplicate_Items_Folder_nose_copy_4_0_Layer1_0_FILL">
<path fill="#000000" stroke="none" d="
M 8.45 -1.55
Q 7.15 -3.8 2.2 -4.05
L -2.55 -4.4
Q -7.7 -5.25 -9 -3.15 -10.35 -1.05 -11.15 1.95 -11.95 4.9 -10.45 7.1 -9 9.3 -3.55 9.9
L 1.25 10.25
Q 5.25 10.85 7.35 8.95 9.45 7 9.6 3.8 9.7 0.6 8.45 -1.55
M 1.75 -2.75
Q 4.8 -2.65 6.1 -0.95 7.35 0.75 7.35 3.25 3.45 2.05 -0.6 2.6 -4.6 3.1 -7.25 3.35
L -8.9 2.9 -8.9 2.85
Q -8.85 2.65 -8.5 1 -8.2 -0.65 -6.45 -2.15 -4.75 -3.65 -2.2 -3.1
L 1.75 -2.75
M -8.5 4.5
Q -8.4 4.3 -8.25 4.15 -5.3 4.7 0.6 3.95 6.4 3.1 6.6 4.5 7.85 6.85 5.95 8.1 4.05 9.45 1.55 9.15 1.45 9.15 1.3 9.1 1.1 9.1 0.95 9.05
L -3 8.7
Q -3.4 8.7 -3.75 8.65 -4.25 8.6 -4.6 8.5 -5.75 8.25 -6.7 7.7 -6.9 7.55 -7.1 7.4 -7.5 7.1 -7.85 6.8 -8.3 6.3 -8.5 5.9 -8.8 5.2 -8.5 4.5 Z"/>

<path fill="#DDC2AA" stroke="none" d="
M -8.5 4.5
Q -8.8 5.2 -8.5 5.9 -8.3 6.3 -7.85 6.8 -7.5 7.1 -7.1 7.4 -6.9 7.55 -6.7 7.7 -5.75 8.25 -4.6 8.5 -4.25 8.6 -3.75 8.65 -3.4 8.7 -3 8.7
L 0.95 9.05
Q 1.1 9.1 1.3 9.1 1.45 9.15 1.55 9.15 4.05 9.45 5.95 8.1 7.85 6.85 6.6 4.5 5.05 5.7 5.2 7.35 3.25 7.25 2.55 6.55 1.3 7.3 1.6 8 -0.05 7.5 -0.3 6.6
L -1.45 7.95
Q -1.5 7 -2.6 6.5 -3.75 6.65 -3.9 7.5 -4.1 6.65 -5.2 5.95 -5.8 6.8 -6.7 6.5 -7.2 4.75 -8.5 4.5 Z"/>

<path fill="#CC0000" stroke="none" d="
M -8.25 4.15
Q -8.4 4.3 -8.5 4.5 -7.2 4.75 -6.7 6.5 -5.8 6.8 -5.2 5.95 -4.1 6.65 -3.9 7.5 -3.75 6.65 -2.6 6.5 -1.5 7 -1.45 7.95
L -0.3 6.6
Q -0.05 7.5 1.6 8 1.3 7.3 2.55 6.55 3.25 7.25 5.2 7.35 5.05 5.7 6.6 4.5 6.4 3.1 0.6 3.95 -5.3 4.7 -8.25 4.15 Z"/>

<path fill="#FDDFDF" stroke="none" d="
M 6.1 -0.95
Q 4.8 -2.65 1.75 -2.75
L -2.2 -3.1
Q -4.75 -3.65 -6.45 -2.15 -8.2 -0.65 -8.5 1 -8.85 2.65 -8.9 2.85
L -8.9 2.9 -7.25 3.35
Q -4.6 3.1 -0.6 2.6 3.45 2.05 7.35 3.25 7.35 0.75 6.1 -0.95 Z"/>
</g>

<g id="Duplicate_Items_Folder_nose_copy_4_0_Layer0_0_FILL">
<path fill="#FCEBE0" stroke="none" d="
M -6.15 -3.6
Q -6.75 -3.6 -7.2 -3.1 -7.7 -2.8 -7.7 -2.25
L -7.7 -1.4
Q -7.6 -0.85 -7.15 -0.45 -6.7 -0.15 -6.05 -0.15 -5.35 -0.15 -4.95 -0.45 -4.5 -0.85 -4.5 -1.4
L -4.5 -2.25
Q -4.55 -2.8 -4.95 -3.1 -5.4 -3.6 -6.15 -3.6
M -7.1 -1.95
Q -7.1 -2.35 -6.75 -2.6 -6.4 -2.95 -5.9 -2.95 -5.3 -2.95 -4.95 -2.6 -4.6 -2.35 -4.6 -1.95
L -4.6 -1.25
Q -4.6 -0.85 -4.95 -0.55 -5.3 -0.3 -5.8 -0.3 -6.3 -0.3 -6.7 -0.55 -7.05 -0.85 -7.1 -1.25
L -7.1 -1.95
M 3.75 -1.15
L 3.75 -0.25
Q 3.75 0.25 4.2 0.65 4.65 0.95 5.35 0.95 5.95 0.95 6.45 0.65 6.85 0.25 6.95 -0.25
L 6.95 -1.15
Q 6.95 -1.65 6.45 -1.95 6.05 -2.45 5.4 -2.45 4.65 -2.45 4.25 -1.95 3.8 -1.65 3.75 -1.15
M 3.85 -0.1
L 3.85 -0.8
Q 3.9 -1.2 4.25 -1.5 4.6 -1.85 5.15 -1.85 5.65 -1.85 6 -1.5 6.35 -1.2 6.35 -0.8
L 6.35 -0.1
Q 6.3 0.25 5.95 0.6 5.55 0.85 5.05 0.85 4.55 0.85 4.2 0.6 3.85 0.25 3.85 -0.1 Z"/>

<path fill="#000000" stroke="none" d="
M -6.75 -2.6
Q -7.1 -2.35 -7.1 -1.95
L -7.1 -1.25
Q -7.05 -0.85 -6.7 -0.55 -6.3 -0.3 -5.8 -0.3 -5.3 -0.3 -4.95 -0.55 -4.6 -0.85 -4.6 -1.25
L -4.6 -1.95
Q -4.6 -2.35 -4.95 -2.6 -5.3 -2.95 -5.9 -2.95 -6.4 -2.95 -6.75 -2.6
M 3.85 -0.8
L 3.85 -0.1
Q 3.85 0.25 4.2 0.6 4.55 0.85 5.05 0.85 5.55 0.85 5.95 0.6 6.3 0.25 6.35 -0.1
L 6.35 -0.8
Q 6.35 -1.2 6 -1.5 5.65 -1.85 5.15 -1.85 4.6 -1.85 4.25 -1.5 3.9 -1.2 3.85 -0.8 Z"/>
</g>

<g id="Duplicate_Items_Folder_eye_missing_copy_0_Layer0_0_FILL">
<path fill="#000000" stroke="none" d="
M -1.9 -7.85
Q -4.8 -8.2 -6.95 -5.3 -9.1 -2.45 -8.65 1.6 -8.15 5.65 -6.6 8.7 -4.95 11.75 -0.05 13.2 4.9 14.6 7.9 12.7 10.95 10.8 9.95 4.35 8.95 -2.15 5 -4.8 1 -7.5 -1.9 -7.85
M -5.2 -4.1
Q -3.55 -6.3 -1.35 -6.05 0.85 -5.75 3.9 -3.7 6.9 -1.7 7.7 3.25 8.45 8.2 6.1 9.65 3.85 11.1 0.05 10 -3.65 8.9 -4.95 6.6 -6.1 4.25 -6.5 1.15 -6.85 -1.9 -5.2 -4.1 Z"/>

<path fill="#333333" stroke="none" d="
M -1.35 -6.05
Q -3.55 -6.3 -5.2 -4.1 -6.85 -1.9 -6.5 1.15 -6.1 4.25 -4.95 6.6 -3.65 8.9 0.05 10 3.85 11.1 6.1 9.65 8.45 8.2 7.7 3.25 6.9 -1.7 3.9 -3.7 0.85 -5.75 -1.35 -6.05 Z"/>
</g>
</defs>

<g transform="matrix( 6.0268096923828125, 0, 0, 6.0268096923828125, 248.9,423.05) ">
<g transform="matrix( 1, 0, 0, 1, 0,0) ">
<use xlink:href="#Duplicate_Items_Folder_leg_3_0_Layer2_0_FILL"/>
</g>

<g transform="matrix( 1, 0, 0, 1, 0,0) ">
<use xlink:href="#Duplicate_Items_Folder_leg_3_0_Layer1_0_FILL"/>
</g>

<g transform="matrix( 1, 0, 0, 1, 0,0) ">
<use xlink:href="#Duplicate_Items_Folder_leg_3_0_Layer0_0_FILL"/>
</g>
</g>

<g transform="matrix( 6.0268096923828125, 0, 0, 6.0268096923828125, 377.15,406.55) ">
<g transform="matrix( 1, 0, 0, 1, 0,0) ">
<use xlink:href="#Duplicate_Items_Folder_leg_3_0_Layer2_0_FILL"/>
</g>

<g transform="matrix( 1, 0, 0, 1, 0,0) ">
<use xlink:href="#Duplicate_Items_Folder_leg_3_0_Layer1_0_FILL"/>
</g>

<g transform="matrix( 1, 0, 0, 1, 0,0) ">
<use xlink:href="#Duplicate_Items_Folder_leg_3_0_Layer0_0_FILL"/>
</g>
</g>

<g transform="matrix( 7.2939300537109375, 0, 0, 7.2939300537109375, 473.6,319.05) ">
<g transform="matrix( 1, 0, 0, 1, 0,0) ">
<use xlink:href="#Duplicate_Items_Folder_tail_copy_0_Layer0_0_FILL"/>
</g>
</g>

<g transform="matrix( 7.2608642578125, 0.6707916259765625, -0.6707916259765625, 7.2608642578125, 336.65,404.8) ">
<g transform="matrix( 1, 0, 0, 1, 0,0) ">
<use xlink:href="#Duplicate_Items_Folder_stand_body_0_Layer2_0_FILL"/>
</g>

<g transform="matrix( 1, 0, 0, 1, 0,0) ">
<use xlink:href="#Duplicate_Items_Folder_stand_body_0_Layer1_0_FILL"/>
</g>

<g transform="matrix( 1, 0, 0, 1, 0,0) ">
<use xlink:href="#Duplicate_Items_Folder_stand_body_0_Layer0_0_FILL"/>
</g>
</g>

<g transform="matrix( 7.2939300537109375, 0, 0, 7.2939300537109375, 316.4,442.15) ">
<g transform="matrix( 1, 0, 0, 1, 0,0) ">
<use xlink:href="#Duplicate_Items_Folder_leg_3_0_Layer2_0_FILL"/>
</g>

<g transform="matrix( 1, 0, 0, 1, 0,0) ">
<use xlink:href="#Duplicate_Items_Folder_leg_3_0_Layer1_0_FILL"/>
</g>

<g transform="matrix( 1, 0, 0, 1, 0,0) ">
<use xlink:href="#Duplicate_Items_Folder_leg_3_0_Layer0_0_FILL"/>
</g>
</g>

<g transform="matrix( 7.09490966796875, 0, 0, 6.1659698486328125, 439.45,432.9) ">
<g transform="matrix( 1, 0, 0, 1, 0,0) ">
<use xlink:href="#Duplicate_Items_Folder_leg_3_0_Layer2_0_FILL"/>
</g>

<g transform="matrix( 1, 0, 0, 1, 0,0) ">
<use xlink:href="#Duplicate_Items_Folder_leg_3_0_Layer1_0_FILL"/>
</g>

<g transform="matrix( 1, 0, 0, 1, 0,0) ">
<use xlink:href="#Duplicate_Items_Folder_leg_3_0_Layer0_0_FILL"/>
</g>
</g>

<g transform="matrix( 7.1598663330078125, -1.368804931640625, 1.368804931640625, 7.1598663330078125, 207.5,238) ">
<g transform="matrix( 1, 0, 0, 1, 0,0) ">
<use xlink:href="#Duplicate_Items_Folder_head_copy_30_0_Layer1_0_FILL"/>
</g>

<g transform="matrix( 1, 0, 0, 1, 0,0) ">
<use xlink:href="#Duplicate_Items_Folder_head_copy_30_0_Layer0_0_FILL"/>
</g>
</g>

<g transform="matrix( 2.7867584228515625, -6.7149200439453125, 6.7149200439453125, 2.7867584228515625, 339.8,131.15) ">
<g transform="matrix( 1, 0, 0, 1, 0,0) ">
<use xlink:href="#Duplicate_Items_Folder_ear_copy_6_0_Layer0_0_FILL"/>
</g>
</g>

<g transform="matrix( -3.2773895263671875, -6.490814208984375, -6.490814208984375, 3.2773895263671875, 74,138.95) ">
<g transform="matrix( 1, 0, 0, 1, 0,0) ">
<use xlink:href="#Duplicate_Items_Folder_ear_copy_6_0_Layer0_0_FILL"/>
</g>
</g>

<g transform="matrix( 2.1268463134765625, -0.262603759765625, 0.262603759765625, 2.1268463134765625, 78.05,133.45) ">
<g transform="matrix( 1, 0, 0, 1, 0,0) ">
<use xlink:href="#Duplicate_Items_Folder_eye_blink_copy_6_0_Layer2_0_FILL"/>
</g>

<g transform="matrix( 1.8167572021484375, 0, 0, 1.8167572021484375, 34.1,41.8) ">
<g transform="matrix( 1, 0, 0, 1, 0,2.4) ">
<use xlink:href="#Duplicate_Items_Folder_pupil_copy_3_0_Layer0_0_FILL"/>
</g>
</g>
</g>

<g transform="matrix( 8.312103271484375, -2.51776123046875, 2.51776123046875, 8.312103271484375, 218.2,323.4) ">
<g transform="matrix( 1, 0, 0, 1, 0,0) ">
<use xlink:href="#Duplicate_Items_Folder_nose_copy_4_0_Layer1_0_FILL"/>
</g>

<g transform="matrix( 1, 0, 0, 1, 0,0) ">
<use xlink:href="#Duplicate_Items_Folder_nose_copy_4_0_Layer0_0_FILL"/>
</g>
</g>

<g transform="matrix( 4.939788818359375, 0, 0, 4.385528564453125, 248.9,209.3) ">
<g transform="matrix( 1, 0, 0, 1, 0,0) ">
<use xlink:href="#Duplicate_Items_Folder_eye_missing_copy_0_Layer0_0_FILL"/>
</g>
</g>

<g transform="matrix( 4.483978271484375, -0.5115509033203125, 0.5536956787109375, 4.1429595947265625, 248.9,208.2) ">
<g transform="matrix( 1, 0, 0, 1, 0,2.4) ">
<use filter="url(#Filter_1)" xlink:href="#Duplicate_Items_Folder_pupil_copy_3_0_Layer0_0_FILL"/>
</g>
</g>
</svg>
