
<svg xmlns="http://www.w3.org/2000/svg" version="1.1" xmlns:xlink="http://www.w3.org/1999/xlink" preserveAspectRatio="none" x="0px" y="0px" width="775px" height="1250px" viewBox="0 0 775 1250">
<defs>
<radialGradient id="Gradient_1" gradientUnits="userSpaceOnUse" cx="0" cy="0" r="85.9" fx="0" fy="0" gradientTransform="matrix( 1, 0, 0, 1, 8.85,18.65) " spreadMethod="pad">
<stop  offset="0%" stop-color="#FA38AD"/>

<stop  offset="100%" stop-color="#FDACDD"/>
</radialGradient>

<g id="Layer10_0_FILL">
<path fill="#24315F" stroke="none" d="
M 735.85 796.9
Q 733.42578125 797.269921875 731 797.6 705.049609375 801.5234375 678.9 804.75 -6.453125 903.6501953125 105.85 1150.15 620.8404296875 1138.0943359375 735.85 798.6
L 735.85 796.9 Z"/>

<path fill="#182141" stroke="none" d="
M 105.85 1150.15
Q 94.5580078125 1150.41796875 83.05 1150.5 92.5796875 1151.4271484375 102.05 1152.25 407.3373046875 1179.4666015625 712.6 1149.45 722.5 1149.45 729.5 1142.4 736.5 1135.35 736.5 1125.4
L 735.85 798.6
Q 620.8404296875 1138.0943359375 105.85 1150.15 Z"/>

<path fill="#2A3A74" stroke="none" d="
M 54.95 1142.4
Q 62 1149.45 71.9 1149.45 77.4822265625 1149.998828125 83.05 1150.5 94.5580078125 1150.41796875 105.85 1150.15 -6.453125 903.6501953125 678.9 804.75 376.5826171875 842.3998046875 48.55 793.75
L 47.95 1125.4
Q 47.95 1135.35 54.95 1142.4
M 70.95 1127.7
Q 74.35 1128.75 72.15 1128.3 71.5 1128.15 70.95 1127.7 Z"/>

<path fill="#D8D8D8" stroke="none" d="
M 72.15 1128.3
Q 74.35 1128.75 70.95 1127.7 71.5 1128.15 72.15 1128.3 Z"/>

<path fill="#5370D5" stroke="none" d="
M 32 887.4
L 33.3 887.55 32 887.55 32 1142.1
Q 32 1152.45 39.3 1159.75 45.1427734375 1165.5927734375 52.85 1166.8 54.8775390625 1167.1 57 1167.1 65.0419921875 1167.879296875 73.1 1168.6 392.581640625 1198.020703125 727.15 1167.1 737.5 1167.1 744.8 1159.75 752.15 1152.45 752.15 1142.1
L 752.15 887.55 751.85 887.55 752.15 887.4 752.15 789.45 735.85 796.9 735.85 798.6 736.5 1125.4
Q 736.5 1135.35 729.5 1142.4 722.5 1149.45 712.6 1149.45 407.3373046875 1179.4666015625 102.05 1152.25 92.5796875 1151.4271484375 83.05 1150.5 77.4822265625 1149.998828125 71.9 1149.45 62 1149.45 54.95 1142.4 47.95 1135.35 47.95 1125.4
L 48.55 793.75 32 789.45 32 887.4
M 35 1117.1
Q 37.25 1117.2 39.5 1117.35 37.35 1117.75 35 1117.1 Z"/>

<path fill="#CCCCCC" stroke="none" d="
M 39.5 1117.35
Q 37.25 1117.2 35 1117.1 37.35 1117.75 39.5 1117.35 Z"/>

<path fill="#FFFFFF" stroke="none" d="
M 110.75 99.35
L 108 99.3 108 99.35 110.75 99.35 Z"/>

<path fill="#333333" stroke="none" d="
M 38.35 106.65
Q 31 114 31 124.35
L 31 191.4 31.75 191.4 31.75 124.35
Q 31.75 114 39.1 106.65 46.15 99.6 56 99.35 45.65 99.35 38.35 106.65 Z"/>

<path fill="#131313" stroke="none" d="
M 736.5 141.5
Q 736.5 131.55 729.5 124.45 722.5 117.4 712.6 117.4
L 71.8 117.45
Q 61.9 117.45 54.9 124.5 47.9 131.6 47.9 141.55
L 48.55 793.75
Q 376.5826171875 842.3998046875 678.9 804.75 705.049609375 801.5234375 731 797.6 733.42578125 797.269921875 735.85 796.9
L 736.5 141.5 Z"/>

<path fill="#5473DE" stroke="none" d="
M 752.15 124.3
Q 752.15 113.95 744.8 106.6 737.5 99.3 727.15 99.3
L 110.75 99.35 108 99.35 56 99.35
Q 46.15 99.6 39.1 106.65 31.75 114 31.75 124.35
L 31.75 191.4 32 191.4 32 789.45 48.55 793.75 47.9 141.55
Q 47.9 131.6 54.9 124.5 61.9 117.45 71.8 117.45
L 712.6 117.4
Q 722.5 117.4 729.5 124.45 736.5 131.55 736.5 141.5
L 735.85 796.9 752.15 789.45 752.15 124.3 Z"/>
</g>

<g id="cryptokeeper_text_0_Layer3_0_FILL">
<path fill="#6687F8" stroke="none" d="
M -14.6 -18.95
L -25.35 -18.95 -27.2 7.3 -31.1 -18.95 -41.85 -18.95 -34.65 17.65
Q -34.65 18.65 -35.45 18.9 -36.25 19.2 -39 19.2
L -39 25.4 -31.8 25.4
Q -26.9 25.4 -24.65 24.65 -22.4 23.9 -21.15 22.3 -19.9 20.75 -19.35 18.3 -18.8 15.9 -18 9.2
L -14.6 -18.95
M -50.55 -13.8
L -50.1 -18.95 -61.95 -18.95 -61.95 19.95 -50.1 19.95 -50.1 4.6
Q -50.1 -1.05 -49.75 -2.6 -49.4 -4.2 -47.9 -5.05 -46.35 -5.95 -43.1 -5.95
L -43.1 -19.65
Q -48 -19.3 -50.55 -13.8
M -82.8 -14.7
Q -82.8 -18.3 -82.4 -19.35 -82 -20.45 -80.45 -20.45 -79.1 -20.45 -78.7 -19.55 -78.3 -18.65 -78.3 -15.05
L -78.3 -6.85 -66 -6.85 -66 -11.35
Q -66 -17.95 -67.1 -21.1 -68.2 -24.25 -71.75 -26.35 -75.3 -28.5 -80.75 -28.5 -84.75 -28.5 -87.85 -27.1 -90.95 -25.75 -92.7 -23.4 -94.45 -21 -94.8 -18.45 -95.15 -15.9 -95.15 -10.75
L -95.15 3.1
Q -95.15 10.1 -94 13.55 -92.85 17 -89.35 19 -85.8 20.95 -80.4 20.95 -75.2 20.95 -71.6 18.65 -68.05 16.3 -67 13.25 -66 10.15 -66 2.8
L -66 0.95 -78.3 0.95 -78.3 6.9
Q -78.3 10.8 -78.75 11.85 -79.15 12.9 -80.55 12.9 -82 12.9 -82.4 11.85 -82.8 10.8 -82.8 7.35
L -82.8 -14.7
M 66.6 -11.15
L 74.6 -11.15 65.7 11.8 65.7 19.95 85.9 19.95 85.9 12.15 77.15 12.15 85.9 -10.3 85.9 -18.95 66.6 -18.95 66.6 -11.15
M 37.65 -12.9
Q 36.45 -9.85 36.45 -4.4
L 36.45 5.55
Q 36.45 10.5 37.1 13 37.75 15.45 39.25 17.2 40.75 18.9 43.5 19.8 46.2 20.65 50.15 20.65 53.65 20.65 56.4 19.65 59.1 18.65 60.8 16.5 62.55 14.4 63.05 11.95 63.6 9.5 63.6 4.25
L 63.6 -5.25
Q 63.6 -9.4 63.05 -11.45 62.45 -13.45 60.9 -15.35 59.35 -17.25 56.5 -18.45 53.65 -19.65 49.65 -19.65 44.9 -19.65 41.85 -17.8 38.8 -15.95 37.65 -12.9
M 48.3 -8.2
Q 48.3 -11.2 48.65 -11.95 49 -12.75 50.05 -12.75 51.1 -12.75 51.45 -11.95 51.75 -11.2 51.75 -8.2
L 51.75 9.75
Q 51.75 12.25 51.45 13 51.1 13.75 50 13.75 49 13.75 48.65 12.95 48.3 12.1 48.3 9.35
L 48.3 -8.2
M 14.2 -14.75
Q 13.7 -16.65 11.7 -18.15 9.7 -19.65 6.95 -19.65 4.7 -19.65 2.8 -18.6 0.9 -17.6 -0.7 -15.5
L -0.5 -18.95 -12.55 -18.95 -12.55 25.5 -0.7 25.5 -0.7 16.6
Q 0.85 18.6 2.7 19.65 4.6 20.65 6.8 20.65 9.55 20.65 11.5 19.35 13.45 18 14.1 15.75 14.7 13.5 14.7 8.2
L 14.7 -8.15
Q 14.7 -12.8 14.2 -14.75
M 2.6 -12
Q 2.85 -11.2 2.85 -7.6
L 2.85 9.05
Q 2.85 12.15 2.6 13 2.3 13.75 1.15 13.75 0 13.75 -0.35 12.9 -0.7 12 -0.7 8.5
L -0.7 -7.6
Q -0.7 -11 -0.35 -11.85 -0.05 -12.75 1.15 -12.75 2.35 -12.75 2.6 -12
M 19.15 -18
L 16.65 -18 16.65 -11.85 19.15 -11.85 19.15 7.9
Q 19.15 13.7 19.5 15.3 19.8 16.85 21.15 18.1 22.45 19.3 24.2 19.65 25.9 19.95 29.95 19.95
L 34.75 19.95 34.75 13.7
Q 31.85 13.7 31.45 13.25 31.05 12.8 31.05 8.95
L 31.05 -11.85 34.25 -11.85 34.25 -18 31.05 -18 31.05 -24.1 19.15 -24.1 19.15 -18 Z"/>
</g>

<g id="cryptokeeper_text_0_Layer2_0_FILL">
<path fill="#000000" stroke="none" d="
M -14.6 -18.95
L -25.35 -18.95 -27.2 7.3 -31.1 -18.95 -41.85 -18.95 -34.65 17.65
Q -34.65 18.65 -35.45 18.9 -36.25 19.2 -39 19.2
L -39 25.4 -31.8 25.4
Q -26.9 25.4 -24.65 24.65 -22.4 23.9 -21.15 22.3 -19.9 20.75 -19.35 18.3 -18.8 15.9 -18 9.2
L -14.6 -18.95
M -50.55 -13.8
L -50.1 -18.95 -61.95 -18.95 -61.95 19.95 -50.1 19.95 -50.1 4.6
Q -50.1 -1.05 -49.75 -2.6 -49.4 -4.2 -47.9 -5.05 -46.35 -5.95 -43.1 -5.95
L -43.1 -19.65
Q -48 -19.3 -50.55 -13.8
M -82.8 -14.7
Q -82.8 -18.3 -82.4 -19.35 -82 -20.45 -80.45 -20.45 -79.1 -20.45 -78.7 -19.55 -78.3 -18.65 -78.3 -15.05
L -78.3 -6.85 -66 -6.85 -66 -11.35
Q -66 -17.95 -67.1 -21.1 -68.2 -24.25 -71.75 -26.35 -75.3 -28.5 -80.75 -28.5 -84.75 -28.5 -87.85 -27.1 -90.95 -25.75 -92.7 -23.4 -94.45 -21 -94.8 -18.45 -95.15 -15.9 -95.15 -10.75
L -95.15 3.1
Q -95.15 10.1 -94 13.55 -92.85 17 -89.35 19 -85.8 20.95 -80.4 20.95 -75.2 20.95 -71.6 18.65 -68.05 16.3 -67 13.25 -66 10.15 -66 2.8
L -66 0.95 -78.3 0.95 -78.3 6.9
Q -78.3 10.8 -78.75 11.85 -79.15 12.9 -80.55 12.9 -82 12.9 -82.4 11.85 -82.8 10.8 -82.8 7.35
L -82.8 -14.7
M 66.6 -11.15
L 74.6 -11.15 65.7 11.8 65.7 19.95 85.9 19.95 85.9 12.15 77.15 12.15 85.9 -10.3 85.9 -18.95 66.6 -18.95 66.6 -11.15
M 37.65 -12.9
Q 36.45 -9.85 36.45 -4.4
L 36.45 5.55
Q 36.45 10.5 37.1 13 37.75 15.45 39.25 17.2 40.75 18.9 43.5 19.8 46.2 20.65 50.15 20.65 53.65 20.65 56.4 19.65 59.1 18.65 60.8 16.5 62.55 14.4 63.05 11.95 63.6 9.5 63.6 4.25
L 63.6 -5.25
Q 63.6 -9.4 63.05 -11.45 62.45 -13.45 60.9 -15.35 59.35 -17.25 56.5 -18.45 53.65 -19.65 49.65 -19.65 44.9 -19.65 41.85 -17.8 38.8 -15.95 37.65 -12.9
M 48.3 -8.2
Q 48.3 -11.2 48.65 -11.95 49 -12.75 50.05 -12.75 51.1 -12.75 51.45 -11.95 51.75 -11.2 51.75 -8.2
L 51.75 9.75
Q 51.75 12.25 51.45 13 51.1 13.75 50 13.75 49 13.75 48.65 12.95 48.3 12.1 48.3 9.35
L 48.3 -8.2
M 14.2 -14.75
Q 13.7 -16.65 11.7 -18.15 9.7 -19.65 6.95 -19.65 4.7 -19.65 2.8 -18.6 0.9 -17.6 -0.7 -15.5
L -0.5 -18.95 -12.55 -18.95 -12.55 25.5 -0.7 25.5 -0.7 16.6
Q 0.85 18.6 2.7 19.65 4.6 20.65 6.8 20.65 9.55 20.65 11.5 19.35 13.45 18 14.1 15.75 14.7 13.5 14.7 8.2
L 14.7 -8.15
Q 14.7 -12.8 14.2 -14.75
M 2.6 -12
Q 2.85 -11.2 2.85 -7.6
L 2.85 9.05
Q 2.85 12.15 2.6 13 2.3 13.75 1.15 13.75 0 13.75 -0.35 12.9 -0.7 12 -0.7 8.5
L -0.7 -7.6
Q -0.7 -11 -0.35 -11.85 -0.05 -12.75 1.15 -12.75 2.35 -12.75 2.6 -12
M 19.15 -18
L 16.65 -18 16.65 -11.85 19.15 -11.85 19.15 7.9
Q 19.15 13.7 19.5 15.3 19.8 16.85 21.15 18.1 22.45 19.3 24.2 19.65 25.9 19.95 29.95 19.95
L 34.75 19.95 34.75 13.7
Q 31.85 13.7 31.45 13.25 31.05 12.8 31.05 8.95
L 31.05 -11.85 34.25 -11.85 34.25 -18 31.05 -18 31.05 -24.1 19.15 -24.1 19.15 -18 Z"/>
</g>

<g id="cryptokeeper_text_0_Layer1_0_FILL">
<path fill="#000000" stroke="none" d="
M -14.6 -18.95
L -25.35 -18.95 -27.2 7.3 -31.1 -18.95 -41.85 -18.95 -34.65 17.65
Q -34.65 18.65 -35.45 18.9 -36.25 19.2 -39 19.2
L -39 25.4 -31.8 25.4
Q -26.9 25.4 -24.65 24.65 -22.4 23.9 -21.15 22.3 -19.9 20.75 -19.35 18.3 -18.8 15.9 -18 9.2
L -14.6 -18.95
M -50.55 -13.8
L -50.1 -18.95 -61.95 -18.95 -61.95 19.95 -50.1 19.95 -50.1 4.6
Q -50.1 -1.05 -49.75 -2.6 -49.4 -4.2 -47.9 -5.05 -46.35 -5.95 -43.1 -5.95
L -43.1 -19.65
Q -48 -19.3 -50.55 -13.8
M -82.8 -14.7
Q -82.8 -18.3 -82.4 -19.35 -82 -20.45 -80.45 -20.45 -79.1 -20.45 -78.7 -19.55 -78.3 -18.65 -78.3 -15.05
L -78.3 -6.85 -66 -6.85 -66 -11.35
Q -66 -17.95 -67.1 -21.1 -68.2 -24.25 -71.75 -26.35 -75.3 -28.5 -80.75 -28.5 -84.75 -28.5 -87.85 -27.1 -90.95 -25.75 -92.7 -23.4 -94.45 -21 -94.8 -18.45 -95.15 -15.9 -95.15 -10.75
L -95.15 3.1
Q -95.15 10.1 -94 13.55 -92.85 17 -89.35 19 -85.8 20.95 -80.4 20.95 -75.2 20.95 -71.6 18.65 -68.05 16.3 -67 13.25 -66 10.15 -66 2.8
L -66 0.95 -78.3 0.95 -78.3 6.9
Q -78.3 10.8 -78.75 11.85 -79.15 12.9 -80.55 12.9 -82 12.9 -82.4 11.85 -82.8 10.8 -82.8 7.35
L -82.8 -14.7
M 66.6 -11.15
L 74.6 -11.15 65.7 11.8 65.7 19.95 85.9 19.95 85.9 12.15 77.15 12.15 85.9 -10.3 85.9 -18.95 66.6 -18.95 66.6 -11.15
M 37.65 -12.9
Q 36.45 -9.85 36.45 -4.4
L 36.45 5.55
Q 36.45 10.5 37.1 13 37.75 15.45 39.25 17.2 40.75 18.9 43.5 19.8 46.2 20.65 50.15 20.65 53.65 20.65 56.4 19.65 59.1 18.65 60.8 16.5 62.55 14.4 63.05 11.95 63.6 9.5 63.6 4.25
L 63.6 -5.25
Q 63.6 -9.4 63.05 -11.45 62.45 -13.45 60.9 -15.35 59.35 -17.25 56.5 -18.45 53.65 -19.65 49.65 -19.65 44.9 -19.65 41.85 -17.8 38.8 -15.95 37.65 -12.9
M 48.3 -8.2
Q 48.3 -11.2 48.65 -11.95 49 -12.75 50.05 -12.75 51.1 -12.75 51.45 -11.95 51.75 -11.2 51.75 -8.2
L 51.75 9.75
Q 51.75 12.25 51.45 13 51.1 13.75 50 13.75 49 13.75 48.65 12.95 48.3 12.1 48.3 9.35
L 48.3 -8.2
M 14.2 -14.75
Q 13.7 -16.65 11.7 -18.15 9.7 -19.65 6.95 -19.65 4.7 -19.65 2.8 -18.6 0.9 -17.6 -0.7 -15.5
L -0.5 -18.95 -12.55 -18.95 -12.55 25.5 -0.7 25.5 -0.7 16.6
Q 0.85 18.6 2.7 19.65 4.6 20.65 6.8 20.65 9.55 20.65 11.5 19.35 13.45 18 14.1 15.75 14.7 13.5 14.7 8.2
L 14.7 -8.15
Q 14.7 -12.8 14.2 -14.75
M 2.6 -12
Q 2.85 -11.2 2.85 -7.6
L 2.85 9.05
Q 2.85 12.15 2.6 13 2.3 13.75 1.15 13.75 0 13.75 -0.35 12.9 -0.7 12 -0.7 8.5
L -0.7 -7.6
Q -0.7 -11 -0.35 -11.85 -0.05 -12.75 1.15 -12.75 2.35 -12.75 2.6 -12
M 19.15 -18
L 16.65 -18 16.65 -11.85 19.15 -11.85 19.15 7.9
Q 19.15 13.7 19.5 15.3 19.8 16.85 21.15 18.1 22.45 19.3 24.2 19.65 25.9 19.95 29.95 19.95
L 34.75 19.95 34.75 13.7
Q 31.85 13.7 31.45 13.25 31.05 12.8 31.05 8.95
L 31.05 -11.85 34.25 -11.85 34.25 -18 31.05 -18 31.05 -24.1 19.15 -24.1 19.15 -18 Z"/>
</g>

<g id="brain_0_Layer1_0_FILL">
<path fill="url(#Gradient_1)" stroke="none" d="
M 54.3 -25.15
Q 53.940234375 -38.790625 40.2 -39.65 33.9564453125 -55.0728515625 18.05 -52.1 2.893359375 -66.0568359375 -13.05 -54.25 -22.6251953125 -59.7322265625 -33.65 -55.25 -41.0111328125 -49.2265625 -40.6 -39.4 -57.031640625 -39.735546875 -51.35 -24.4
L -44.55 -31.05 -51.35 -24.4
Q -51.3103515625 -24.377734375 -51.3 -24.35 -60.3833984375 -8.9001953125 -51.45 1.8 -50.5564453125 -3.71640625 -46.1 -4.55 -50.5564453125 -3.71640625 -51.45 1.8 -51.378515625 1.9076171875 -51.3 2 -50.5974609375 13.850390625 -37 10.8 -36.8693359375 10.80234375 -36.75 10.75 -32.53671875 9.2123046875 -32.4 5.7 -32.53671875 9.2123046875 -36.75 10.75 -36.60234375 10.7365234375 -36.45 10.7 -25.3421875 27.440234375 -7.9 23 -7.7400390625 23.1150390625 -7.6 23.2 -12.7943359375 18.4375 -13.3 13.65 -12.7943359375 18.4375 -7.6 23.2 8.272265625 34.367578125 23.4 19.95 18.9185546875 15.9625 19.3 11.95 18.9185546875 15.9625 23.4 19.95 23.5146484375 19.8818359375 23.6 19.8 28.65 23.90546875 33.7 19.4 50.537109375 14.840234375 48.35 1 65.61640625 -6.01796875 54.3 -25.15
M 30.9 -33.9
Q 30.9802734375 -33.8033203125 31.05 -33.7 42.66484375 -33.438671875 45.55 -24.15 47.019921875 -19.528125 46.3 -12.65 47.4189453125 -21.3365234375 53.8 -24.65 47.4189453125 -21.3365234375 46.3 -12.65
L 46.25 -12.4 46.3 -12.65
Q 47.019921875 -19.528125 45.55 -24.15
L 38.85 -17.9
Q 38.7333984375 -8.1189453125 32.95 -4.5 30.38515625 -2.869921875 26.7 -2.15 24.6384765625 4.817578125 30.1 11.75 24.6384765625 4.817578125 26.7 -2.15 26.0134765625 -3.132421875 25.2 -4.15 26.0134765625 -3.132421875 26.7 -2.15 30.38515625 -2.869921875 32.95 -4.5
L 29.95 -11.55
Q 26.411328125 -22.0224609375 30.9 -33.9 21.163671875 -48.1505859375 8.15 -36.95 4.584765625 -34.01328125 3.8 -14.95 4.584765625 -34.01328125 8.15 -36.95 -6.79609375 -49.6931640625 -13.4 -33.7 -12.054296875 -28.126953125 -13 -23.4 -12.7435546875 -16.067578125 -8.4 -18.55 -8.1923828125 -26.7486328125 -3.8 -34.3 -8.1923828125 -26.7486328125 -8.4 -18.55 -8.4376953125 -16.3953125 -8.2 -14.2 -4.4548828125 -2.6625 1.15 0 9.2736328125 -10.3119140625 25 -4.55 9.2736328125 -10.3119140625 1.15 0 -0.3220703125 1.9234375 -1.55 4.35
L -1.55 4.5
Q -1.435546875 4.6447265625 -1.35 4.8 1.7951171875 10.0697265625 0.75 15.35 1.7951171875 10.0697265625 -1.35 4.8 -1.435546875 4.6447265625 -1.55 4.5 -12.6044921875 -2.19921875 -24.3 1.35 -24.043359375 4.2046875 -25.2 7.05 -24.043359375 4.2046875 -24.3 1.35 -24.7720703125 -4.6740234375 -31.8 -10.7 -31.6998046875 -10.825 -31.8 -10.95
L -32.35 -16.3 -36.4 -17.05 -32.35 -16.3 -32.3 -16.3 -32.55 -18.15 -32.6 -23.8
Q -45.96171875 -23.916015625 -40.55 -11.15 -35.2060546875 -8.781640625 -39.05 0.35 -35.2060546875 -8.781640625 -40.55 -11.15 -45.96171875 -23.916015625 -32.6 -23.8 -32.451171875 -23.8029296875 -32.3 -23.8 -30.79609375 -44.6798828125 -13.4 -33.7 -6.79609375 -49.6931640625 8.15 -36.95 21.163671875 -48.1505859375 30.9 -33.9
M 40.15 -39.4
L 35.8 -38.85 40.15 -39.4
M 7.8 -48.15
Q 11.1962890625 -46.9630859375 11.55 -45.1 16.35625 -50.16796875 28.05 -47.75 16.35625 -50.16796875 11.55 -45.1 11.1962890625 -46.9630859375 7.8 -48.15
M 19.15 -6.85
Q 16.59375 -18.6658203125 20.1 -28.6 16.59375 -18.6658203125 19.15 -6.85
M 47.75 -3
L 48.5 -6.8 47.75 -3
Q 44.525 0.2986328125 41.3 0.6 44.525 0.2986328125 47.75 -3
M 15.9 13.85
Q 18.35 10.05 22.15 11.4 18.35 10.05 15.9 13.85
M -8.75 -49.65
L -12.7 -53.8 -8.75 -49.65
Q -12.572265625 -43.6994140625 -20.1 -43.6 -12.572265625 -43.6994140625 -8.75 -49.65
M -38.1 -34.5
L -33.95 -35.45
Q -32.1298828125 -37.844140625 -33.55 -40.75 -32.1298828125 -37.844140625 -33.95 -35.45
L -38.1 -34.5 Z"/>

<path fill="#FB62BE" stroke="none" d="
M -32.3 -23.8
Q -32.451171875 -23.8029296875 -32.6 -23.8
L -32.55 -18.15 -32.3 -16.3 -32.35 -16.3 -31.8 -10.95
Q -31.6998046875 -10.825 -31.8 -10.7 -24.7720703125 -4.6740234375 -24.3 1.35 -12.6044921875 -2.19921875 -1.55 4.5
L -1.55 4.35
Q -0.3220703125 1.9234375 1.15 0 -4.4548828125 -2.6625 -8.2 -14.2 -8.4376953125 -16.3953125 -8.4 -18.55 -12.7435546875 -16.067578125 -13 -23.4 -13.7802734375 -19.4578125 -16.3 -16.1 -13.7802734375 -19.4578125 -13 -23.4 -12.054296875 -28.126953125 -13.4 -33.7 -30.79609375 -44.6798828125 -32.3 -23.8
M -25.2 -15.35
Q -23.9900390625 -9.5892578125 -15.95 -5.65 -23.9900390625 -9.5892578125 -25.2 -15.35 -26.4482421875 -23.6984375 -22.95 -29.75 -26.4482421875 -23.6984375 -25.2 -15.35
M 31.05 -33.7
Q 30.9802734375 -33.8033203125 30.9 -33.9 26.411328125 -22.0224609375 29.95 -11.55
L 32.95 -4.5
Q 38.7333984375 -8.1189453125 38.85 -17.9 38.85 -18.09296875 38.85 -18.3 38.85 -18.09296875 38.85 -17.9
L 45.55 -24.15
Q 42.66484375 -33.438671875 31.05 -33.7 Z"/>
</g>

<g id="brain_0_Layer0_0_FILL">
<path fill="#FED6EE" stroke="none" d="
M -6.8 8.15
Q -5.55 9.2 -5.3 7.8 -5.05 6.45 -6.9 5.05 -8.75 3.7 -11.6 3.15 -14.5 2.55 -16.7 3.15 -19 3.7 -19.25 5.1 -19.5 6.5 -16 5.2 -12.55 3.9 -10.35 5.45 -8.05 7.05 -6.8 8.15
M 11.65 -2.9
Q 7.7 -2.1 5.2 -0.35 2.65 1.4 3 3.05 3.35 4.7 7.1 1.55 10.8 -1.6 14.4 -1 18.1 -0.45 20.2 0.1 22.3 0.65 21.95 -1 21.6 -2.65 18.55 -3.2 15.55 -3.75 11.65 -2.9
M 3.55 -34.65
Q 3.25 -36.8 1.15 -38.4 -0.8 -39.9 -3.4 -40 -6.05 -40.1 -7.65 -38.6 -9.3 -37.15 -9 -34.95 -8.7 -32.75 -6.3 -35.7 -3.9 -38.6 -1.5 -36.85 1 -35 2.4 -33.7 3.85 -32.45 3.55 -34.65 Z"/>

<path fill="#FDBDE3" stroke="none" d="
M -15.9 -30
Q -16.2 -32.15 -18.3 -33.75 -20.25 -35.25 -22.85 -35.35 -25.5 -35.45 -27.1 -33.95 -28.75 -32.5 -28.45 -30.3 -28.15 -28.1 -25.75 -31.05 -23.35 -33.95 -20.95 -32.2 -18.45 -30.35 -17.05 -29.05 -15.6 -27.8 -15.9 -30 Z"/>

<path fill="#FA1FA3" stroke="none" d="
M -52.9 -14.15
Q -53.4 -10.6 -52.2 -8.1 -51.05 -5.6 -48.9 -5.7 -46.75 -5.85 -49.25 -9.55 -51.65 -13.25 -49.65 -16.3 -47.6 -19.4 -46.2 -21.15 -44.75 -22.95 -46.9 -22.85 -49 -22.7 -50.75 -20.1 -52.4 -17.65 -52.9 -14.15
M 42.15 11.45
Q 44.25 9.05 44.4 6.5 44.6 4 42.75 2.95 40.85 1.95 41.2 6.05 41.5 10.1 38.35 11.3 35.2 12.6 33.2 13.15 31.1 13.7 33 14.8 34.8 15.8 37.5 14.8 40.1 13.85 42.15 11.45 Z"/>

<path fill="#FDCEEF" stroke="none" d="
M -26.65 -51.6
Q -22.9 -51.5 -20.65 -51.2 -18.35 -50.95 -19.75 -52.75 -21.15 -54.45 -24.25 -54.55 -27.25 -54.7 -30.3 -53.25 -33.45 -51.75 -34.65 -49.4 -35.95 -47.1 -34.55 -45.3 -33.15 -43.55 -31.75 -47.65 -30.25 -51.7 -26.65 -51.6
M 3.1 -54.25
Q 6.65 -53 8.7 -52.05 10.8 -51.15 9.95 -52.95 9.05 -54.7 6.15 -55.75 3.35 -56.8 0.1 -56.7 -3.3 -56.55 -5 -55.15 -6.85 -53.85 -5.95 -52.05 -5.1 -50.25 -2.7 -52.9 -0.25 -55.45 3.1 -54.25 Z"/>

<path fill="#F90698" stroke="none" d="
M 10.75 20.1
Q 6.2 22.75 2.15 20.95 -1.95 19.1 -4.25 17.9 -6.65 16.55 -6.35 18.7 -6.05 20.75 -2.65 22.3 0.6 23.8 5.1 24.05 9.65 24.3 12.8 22.95 15.95 21.65 15.7 19.5 15.4 17.4 10.75 20.1 Z"/>

<path fill="#FEE7F5" stroke="none" d="
M 25.7 -32.55
Q 27.6 -31.3 27.2 -33.5 26.8 -35.65 24.05 -37.25 21.45 -38.75 18.05 -38.85 14.55 -38.95 12.45 -37.45 10.25 -36 10.65 -33.8 11.05 -31.6 14.2 -34.55 17.4 -37.45 20.55 -35.7 23.85 -33.85 25.7 -32.55 Z"/>

<path fill="#FDB5E0" stroke="none" d="
M 38.4 -28.35
Q 36.85 -30.25 34.3 -30.85 32.75 -31.2 31.4 -30.95
L 30.65 -27.25
Q 33.55 -29.55 35.5 -27.4 37.6 -25.1 38.65 -23.5 39.85 -22 40 -24.2 40.15 -26.35 38.4 -28.35 Z"/>
</g>

<g id="coin_0_Layer3_0_FILL">
<path fill="#9EB2F9" stroke="none" d="
M 106.75 227.4
Q 189.1 145.05 189.1 28.55 189.1 -87.95 106.75 -170.3 24.4 -252.65 -92.1 -252.65 -208.6 -252.65 -290.95 -170.3 -373.3 -87.95 -373.3 28.55 -373.3 145.05 -290.95 227.4 -208.6 309.75 -92.1 309.75 24.4 309.75 106.75 227.4
M 83.55 -168.55
Q 88.4373046875 -164.01015625 93.1 -159.25 93.197265625 -159.1255859375 93.3 -159.05 93.0962890625 -159.1875 92.9 -159.35 88.09453125 -164.1029296875 83.55 -168.55
M 63.7 -166.45
Q 115.8814453125 -132.351953125 147.55 -67.85 179.232421875 -3.351953125 152.1 100.85 125.004296875 205.0525390625 31.1 254.6 -62.755078125 304.1953125 -154.8 276.95 -246.843359375 249.7060546875 -316.05 161.1 -326.45 144.75 -333.6 127.1 -359.58125 46.7298828125 -316.05 -63.65 -272.513671875 -173.9916015625 -178.65 -203.95 -84.79375 -233.9076171875 -36.65 -217.2 11.5560546875 -200.4951171875 63.7 -166.45 Z"/>

<path fill="#8B9ACE" stroke="none" d="
M -316.05 161.1
Q -320.05 154.45 -323.75 147.5 -329.15 137.35 -333.6 127.1 -326.45 144.75 -316.05 161.1
M 93.1 -159.25
Q 88.4373046875 -164.01015625 83.55 -168.55 88.09453125 -164.1029296875 92.9 -159.35 92.99609375 -159.2875 93.1 -159.25 Z"/>

<path fill="#3956BD" stroke="none" d="
M 147.55 -67.85
Q 115.8814453125 -132.351953125 63.7 -166.45 11.5560546875 -200.4951171875 -36.65 -217.2 -84.79375 -233.9076171875 -178.65 -203.95 -272.513671875 -173.9916015625 -316.05 -63.65 -359.58125 46.7298828125 -333.6 127.1 -329.15 137.35 -323.75 147.5 -320.05 154.45 -316.05 161.1 -246.843359375 249.7060546875 -154.8 276.95 -62.755078125 304.1953125 31.1 254.6 125.004296875 205.0525390625 152.1 100.85 179.232421875 -3.351953125 147.55 -67.85
M 112.05 -74.05
Q 165.40390625 16.8994140625 123.05 108.15 80.6931640625 199.393359375 -6.5 239.8 -93.6453125 280.2634765625 -181.65 246 -269.6021484375 211.7876953125 -304.4 128.7 -339.1525390625 45.6513671875 -293.25 -47.8 -247.2923828125 -141.1916015625 -173.6 -184.05 -99.910546875 -226.9125 -20.6 -195.95 58.7525390625 -164.9455078125 112.05 -74.05
M 93.1 -159.25
Q 92.99609375 -159.2875 92.9 -159.35 93.0962890625 -159.1875 93.3 -159.05 93.197265625 -159.1255859375 93.1 -159.25 Z"/>

<path fill="#5370D5" stroke="none" d="
M 123.05 108.15
Q 165.40390625 16.8994140625 112.05 -74.05 58.7525390625 -164.9455078125 -20.6 -195.95 -99.910546875 -226.9125 -173.6 -184.05 -247.2923828125 -141.1916015625 -293.25 -47.8 -339.1525390625 45.6513671875 -304.4 128.7 -269.6021484375 211.7876953125 -181.65 246 -93.6453125 280.2634765625 -6.5 239.8 80.6931640625 199.393359375 123.05 108.15 Z"/>
</g>

<g id="coin_0_Layer2_0_FILL">
<path fill="#FCFCFB" stroke="none" d="
M 58.85 -15.75
Q 57.1 -23.95 40.1 -48 21.1 -74.95 -9.3 -110.4 -37.4 -143.15 -63.55 -158.55 -77.6 -166.85 -98.95 -172.85 -110.3 -176.05 -130.85 -162.7 -137.65 -158.3 -145.95 -151.75 -150.35 -148.25 -156.35 -143.4 -161.95 -139.1 -193.3 -105.85 -230 -66.9 -230.25 -66.65 -236.1 -60.8 -247.4 -33.35 -253 -19.65 -257.5 -7.1 -266.3 14.7 -255.35 57 -251.45 72.05 -245.8 86.6 -241.05 98.8 -238.15 103.35 -234.1 109.65 -231.05 107.8 -230.1 107.25 -229.35 105.95
L -228.8 104.75 -228.95 107.55
Q -230.05 111 -234.55 114.1 -241.45 118.9 -244.6 125.2 -248.9 133.85 -246 144.95 -244.05 152.4 -242.75 155.6 -240.75 160.3 -237.55 163.25 -230.9 169.4 -210.85 172.9 -192.9 176.05 -167.1 170.15 -159 168.3 -151.15 165.75
L -144.85 163.6 -147.75 166.55
Q -152.1125 169.95 -159 172.85 -165.8375 175.8 -190.05 188
L -181.85 193.25 -182.15 200.9 -166.4 192.3 -173.55 207.35
Q -153.730078125 204.113671875 -150.6 217.4
L -141.3 200.2 -141.3 219.55 -122.65 226 -113.3 204.5 -111.85 226
Q -97.525 214.7759765625 -81.2 225.85
L -73.15 204.5 -70.25 225.3 -47.3 221 -45.15 199.45 -38 218.85 -22.9 211.65 -25.8 193 -14.3 205.9 -4.25 197.3 -10.75 181.55 1.45 190.85 12.65 183.85
Q 10.26484375 173.3 -11.45 160.75 -6.8 162.35 0.75 164 15.8 167.2 30.15 167.2 46.85 167.2 54.75 156.8 62.15 147 61 129.15 60.1 114.8 53.65 106.9 51.6 104.45 49.3 102.95
L 47.35 101.9 63.85 61.75
Q 69.3 48.55 65.4 18.95 63.9 7.95 58.85 -15.75 Z"/>
</g>

<g id="coin_0_Layer1_0_FILL">
<path fill="#213C6D" stroke="none" d="
M -82.55 118.25
Q -89.15 121.8 -93.2 126.3 -97.25 130.8 -100.65 145.15 -102.35 152.35 -103.25 158.6 -103.25 162.75 -100.1 162.15 -99.75 162.1 -93.2 159.3 -91.25 158.45 -86.75 151.15 -82.55 144.3 -78.15 143.5 -73.5 142.65 -71.35 146.8 -70.7 148.05 -69.5 150.85 -68.25 153.45 -66.7 155 -63.55 158.15 -59.4 160.1
L -55.9 161.45
Q -57 158.25 -58.25 153.85 -60.75 145.05 -61.65 139.2 -62.5 133.35 -70.4 121.7
L -76.75 115.55 -82.55 118.25
M -25.55 -2.85
Q -30.3341796875 -3.8578125 -35.2 -3.65 -40.065234375 -3.38984375 -46.1 1.55 -52.094921875 6.546484375 -56.3 14.85 -68.05 38 -62.5 59.85 -57.15 80.9 -50.7 89.35 -47.5 93.5 -36.8 100.75 -44.0181640625 102.56875 -56.75 93.55
L -54.3 96.7
Q -51.05 100.45 -47.25 103.6 -35.0470703125 113.6515625 -20.5 114.4 -5.9484375 115.1453125 6.3 113.05 18.5482421875 110.95625 27.1 97.85 17.5185546875 108.051171875 7.05 102.15 20.41640625 97.95390625 22.15 76.35 26.53515625 75.9982421875 29.4 81.45 25.2060546875 68.9931640625 23.7 56.7 22.1869140625 44.4013671875 14.4 27.55 6.6125 10.7013671875 -7.05 4.4 -20.7158203125 -1.8486328125 -25.55 -2.85
M -134.1 -2.8
Q -138.6 -5.25 -145.15 -3.15 -149.95 -1.6 -162.1 5.05 -178.95 14.25 -199.4 40.95 -205.25 48.6 -211.85 68.5 -214.9173828125 77.748828125 -215.75 86.9 -212.5744140625 79.7078125 -205.85 78.95 -209.9654296875 105.4958984375 -187.9 110.5
L -206.55 114.8
Q -198.413671875 115.7 -187.9 117.05 -177.38984375 118.4 -157.65 118.4 -137.903515625 118.4 -125.7 108.35 -121.9 105.2 -118.65 101.45
L -116.2 98.3 -129 101.9
Q -125.44921875 98.234375 -122.25 94.1 -115.8 85.65 -110.45 64.6 -104.9 42.75 -116.65 19.6 -120.85 11.3 -126.45 4.5 -131.2 -1.2 -134.1 -2.8 Z"/>
</g>

<g id="coin_0_Layer0_0_FILL">
<path fill="#BBCAFC" stroke="none" d="
M -89.6 -1.5
L -89 -33.35 -89.65 -32.95 -132.7 -59.5
Q -134.1 -59.5 -89.65 -1.4
L -89.6 -1.5
M -90.25 -83
L -90.25 -83.15 -90.95 -138.05 -131.5 -70.35 -90.25 -83 Z"/>

<path fill="#3956BD" stroke="none" d="
M -89 -33.35
L -89.6 -1.5 -46.6 -58.8 -89 -33.35
M -131.5 -70.35
L -131.95 -69.55 -89.75 -43.05 -90.25 -83 -131.5 -70.35 Z"/>

<path fill="#203274" stroke="none" d="
M -90.05 -83.05
L -90.25 -83 -89.75 -43.05 -89.65 -43 -48.7 -68.7 -90.05 -83.05 Z"/>

<path fill="#6687F8" stroke="none" d="
M -90.35 -139.1
L -90.95 -138.05 -90.25 -83.15 -90.05 -83.05 -48.7 -68.7 -47.3 -69.55
Q -90.3396484375 -137.9708984375 -90.35 -139.1 Z"/>
</g>

<g id="coin_copy_0_Layer1_0_FILL">
<path fill="#BBCAFC" stroke="none" d="
M 106.75 227.4
Q 189.1 145.05 189.1 28.55 189.1 -87.95 106.75 -170.3 24.4 -252.65 -92.1 -252.65 -208.6 -252.65 -290.95 -170.3 -373.3 -87.95 -373.3 28.55 -373.3 145.05 -290.95 227.4 -208.6 309.75 -92.1 309.75 24.4 309.75 106.75 227.4
M 93.3 -159.05
Q 93.0962890625 -159.1875 92.9 -159.35 88.09453125 -164.1029296875 83.55 -168.55 88.4373046875 -164.01015625 93.1 -159.25 93.197265625 -159.1255859375 93.3 -159.05
M 63.7 -166.45
Q 115.8814453125 -132.351953125 147.55 -67.85 179.232421875 -3.351953125 152.1 100.85 125.004296875 205.0525390625 31.1 254.6 -62.755078125 304.1953125 -154.8 276.95 -246.843359375 249.7060546875 -316.05 161.1 -326.45 144.75 -333.6 127.1 -359.58125 46.7298828125 -316.05 -63.65 -272.513671875 -173.9916015625 -178.65 -203.95 -84.79375 -233.9076171875 -36.65 -217.2 11.5560546875 -200.4951171875 63.7 -166.45 Z"/>

<path fill="#8B9ACE" stroke="none" d="
M -316.05 161.1
Q -320.05 154.45 -323.75 147.5 -329.15 137.35 -333.6 127.1 -326.45 144.75 -316.05 161.1
M 92.9 -159.35
Q 92.99609375 -159.2875 93.1 -159.25 88.4373046875 -164.01015625 83.55 -168.55 88.09453125 -164.1029296875 92.9 -159.35 Z"/>

<path fill="#203274" stroke="none" d="
M 147.55 -67.85
Q 115.8814453125 -132.351953125 63.7 -166.45 11.5560546875 -200.4951171875 -36.65 -217.2 -84.79375 -233.9076171875 -178.65 -203.95 -272.513671875 -173.9916015625 -316.05 -63.65 -359.58125 46.7298828125 -333.6 127.1 -329.15 137.35 -323.75 147.5 -320.05 154.45 -316.05 161.1 -246.843359375 249.7060546875 -154.8 276.95 -62.755078125 304.1953125 31.1 254.6 125.004296875 205.0525390625 152.1 100.85 179.232421875 -3.351953125 147.55 -67.85
M 112.05 -74.05
Q 165.40390625 16.8994140625 123.05 108.15 80.6931640625 199.393359375 -6.5 239.8 -93.6453125 280.2634765625 -181.65 246 -269.6021484375 211.7876953125 -304.4 128.7 -339.1525390625 45.6513671875 -293.25 -47.8 -247.2923828125 -141.1916015625 -173.6 -184.05 -99.910546875 -226.9125 -20.6 -195.95 58.7525390625 -164.9455078125 112.05 -74.05 Z"/>

<path fill="#0E0E0E" stroke="none" d="
M 123.05 108.15
Q 165.40390625 16.8994140625 112.05 -74.05 58.7525390625 -164.9455078125 -20.6 -195.95 -99.910546875 -226.9125 -173.6 -184.05 -247.2923828125 -141.1916015625 -293.25 -47.8 -339.1525390625 45.6513671875 -304.4 128.7 -269.6021484375 211.7876953125 -181.65 246 -93.6453125 280.2634765625 -6.5 239.8 80.6931640625 199.393359375 123.05 108.15 Z"/>

<path fill="#3956BD" stroke="none" d="
M 92.9 -159.35
Q 93.0962890625 -159.1875 93.3 -159.05 93.197265625 -159.1255859375 93.1 -159.25 92.99609375 -159.2875 92.9 -159.35 Z"/>
</g>

<g id="coin_copy_0_Layer0_0_FILL">
<path fill="#3956BD" stroke="none" d="
M -93.8 147
L -95.5 244 35.45 69.25 -93.8 147
M -223.4 34.2
L -224.75 36.5 -95.95 117.3 -97.6 -4.35 -223.4 34.2 Z"/>

<path fill="#BBCAFC" stroke="none" d="
M -93.8 147
L -95.8 148.1 -227.05 67.15
Q -231.3 67.15 -95.8 244.3
L -95.5 244 -93.8 147
M -97.6 -4.35
L -97.6 -4.8 -99.75 -172.35 -223.4 34.2 -97.6 -4.35 Z"/>

<path fill="#203274" stroke="none" d="
M -96.85 -4.65
L -97.6 -4.35 -95.95 117.3 -95.8 117.45 29.05 39.25 -96.85 -4.65 Z"/>

<path fill="#6687F8" stroke="none" d="
M -97.9 -175.4
L -99.75 -172.35 -97.6 -4.8 -96.85 -4.65 29.05 39.25 33.35 36.5
Q -97.9 -172.05 -97.9 -175.4 Z"/>
</g>

<g id="level_0_Layer0_0_FILL">
<path fill="#94FFE0" stroke="none" d="
M -92.1 -252.65
Q -208.6 -252.65 -290.95 -170.3 -373.3 -87.95 -373.3 28.55 -373.3 145.05 -290.95 227.4 -208.6 309.75 -92.1 309.75 24.4 309.75 106.75 227.4 189.1 145.05 189.1 28.55 189.1 -87.95 106.75 -170.3 24.4 -252.65 -92.1 -252.65
M -19 -216.4
Q -16 -215.5 -13.05 -214.55 82.5 -182.95 130.15 -93.25 179.15 -0.85 148.45 99.2 117.795703125 199.199609375 35.1 248.85 -47.5376953125 298.5505859375 -143.95 277.1 -240.3166015625 255.6990234375 -308.75 156.7 -312.65 150.3 -316.2 143.55 -321.45 133.75 -325.75 123.85 -362.05 40.45 -334.6 -48.95 -303.95 -148.95 -211.5 -198 -124.2 -244.3 -30.25 -219.6 -27.4 -218.9 -24.6 -218.1 -21.8 -217.3 -19 -216.4
M -22.25 -226.45
Q -16.2 -224.8 -10.3 -222.75 -13.35 -223.75 -16.45 -224.7 -19.35 -225.6 -22.25 -226.45
M -323.75 147.5
Q -320.05 154.45 -316.05 161.1 -326.45 144.75 -333.6 127.1 -329.15 137.35 -323.75 147.5 Z"/>

<path fill="#8B9ACE" stroke="none" d="
M -316.05 161.1
Q -320.05 154.45 -323.75 147.5 -329.15 137.35 -333.6 127.1 -326.45 144.75 -316.05 161.1
M -10.3 -222.75
Q -16.2 -224.8 -22.25 -226.45 -19.35 -225.6 -16.45 -224.7 -13.35 -223.75 -10.3 -222.75 Z"/>

<path fill="#1FD8A3" stroke="none" d="
M -13.05 -214.55
Q -16 -215.5 -19 -216.4 -21.8 -217.3 -24.6 -218.1 -27.4 -218.9 -30.25 -219.6 -124.2 -244.3 -211.5 -198 -303.95 -148.95 -334.6 -48.95 -362.05 40.45 -325.75 123.85 -321.45 133.75 -316.2 143.55 -312.65 150.3 -308.75 156.7 -240.3166015625 255.6990234375 -143.95 277.1 -47.5376953125 298.5505859375 35.1 248.85 117.795703125 199.199609375 148.45 99.2 179.15 -0.85 130.15 -93.25 82.5 -182.95 -13.05 -214.55
M -302.5 -46.35
Q -269.1 -137.8 -195.35 -186.85 -121.65 -235.95 -34.55 -199.4 52.5 -162.9 106 -72.85 159.45 17.25 125.45 105.5 91.4490234375 193.75 5.9 234.15 -79.5970703125 274.6 -162.85 243.55 -246.1029296875 212.55 -291 128.8 -335.8990234375 45.05 -302.5 -46.35 Z"/>

<path fill="#00B07E" stroke="none" d="
M -195.35 -186.85
Q -269.1 -137.8 -302.5 -46.35 -335.8990234375 45.05 -291 128.8 -246.1029296875 212.55 -162.85 243.55 -79.5970703125 274.6 5.9 234.15 91.4490234375 193.75 125.45 105.5 159.45 17.25 106 -72.85 52.5 -162.9 -34.55 -199.4 -121.65 -235.95 -195.35 -186.85 Z"/>
</g>

<path id="Layer10_0_1_STROKES" stroke="#000000" stroke-width="10" stroke-linejoin="round" stroke-linecap="round" fill="none" d="
M 110.75 99.35
L 727.15 99.3
Q 737.5 99.3 744.8 106.6 752.15 113.95 752.15 124.3
L 752.15 789.45 752.15 887.4
M 752.15 887.55
L 752.15 1142.1
Q 752.15 1152.45 744.8 1159.75 737.5 1167.1 727.15 1167.1 392.581640625 1198.020703125 73.1 1168.625 65.0419921875 1167.879296875 57 1167.1 54.8775390625 1167.1 52.875 1166.8 45.1427734375 1165.5927734375 39.3 1159.75 32 1152.45 32 1142.1
L 32 887.55
M 32 887.4
L 32 789.45 32 191.4
M 108 99.35
L 56 99.35
M 108 99.3
L 110.75 99.35 108 99.35
M 56 99.35
Q 46.15 99.6 39.1 106.65 31.75 114 31.75 124.35
L 31.75 191.4"/>

<path id="Layer10_0_2_STROKES" stroke="#FFFFFF" stroke-width="5" stroke-linejoin="round" stroke-linecap="round" fill="none" d="
M 83.075 1150.525
Q 77.4822265625 1149.998828125 71.9 1149.45 62 1149.45 54.95 1142.4 47.95 1135.35 47.95 1125.4
L 48.55 793.75
M 735.85 798.625
L 736.5 1125.4
Q 736.5 1135.35 729.5 1142.4 722.5 1149.45 712.6 1149.45 407.3373046875 1179.4666015625 102.075 1152.275 92.5796875 1151.4271484375 83.075 1150.525
M 735.85 796.9
L 735.85 798.625"/>

<path id="Layer10_0_3_STROKES" stroke="#A3B6E5" stroke-width="5" stroke-linejoin="round" stroke-linecap="round" fill="none" d="
M 735.85 796.9
L 736.5 141.5
Q 736.5 131.55 729.5 124.45 722.5 117.4 712.6 117.4
L 71.8 117.45
Q 61.9 117.45 54.9 124.5 47.9 131.6 47.9 141.55
L 48.55 793.75"/>

<path id="cryptokeeper_text_0_Layer3_0_1_STROKES" stroke="#6385F7" stroke-width="13.85" stroke-linejoin="round" stroke-linecap="round" fill="none" d="
M 19.15 -24.1
L 19.15 -18 16.65 -18 16.65 -11.85 19.15 -11.85 19.15 7.9
Q 19.15 13.7 19.5 15.3 19.8 16.85 21.15 18.1 22.45 19.3 24.2 19.65 25.9 19.95 29.95 19.95
L 34.75 19.95 34.75 13.7
Q 31.85 13.7 31.45 13.25 31.05 12.8 31.05 8.95
L 31.05 -11.85 34.25 -11.85 34.25 -18 31.05 -18 31.05 -24.1 19.15 -24.1 Z
M -12.55 -18.95
L -12.55 25.5 -0.7 25.5 -0.7 16.6
Q 0.85 18.6 2.7 19.65 4.6 20.65 6.8 20.65 9.55 20.65 11.5 19.35 13.45 18 14.1 15.75 14.7 13.5 14.7 8.2
L 14.7 -8.15
Q 14.7 -12.8 14.2 -14.75 13.7 -16.65 11.7 -18.15 9.7 -19.65 6.95 -19.65 4.7 -19.65 2.8 -18.6 0.9 -17.6 -0.7 -15.5
L -0.5 -18.95 -12.55 -18.95 Z
M 2.85 9.05
Q 2.85 12.15 2.6 13 2.3 13.75 1.15 13.75 0 13.75 -0.35 12.9 -0.7 12 -0.7 8.5
L -0.7 -7.6
Q -0.7 -11 -0.35 -11.85 -0.05 -12.75 1.15 -12.75 2.35 -12.75 2.6 -12 2.85 -11.2 2.85 -7.6
L 2.85 9.05 Z
M 63.05 -11.45
Q 62.45 -13.45 60.9 -15.35 59.35 -17.25 56.5 -18.45 53.65 -19.65 49.65 -19.65 44.9 -19.65 41.85 -17.8 38.8 -15.95 37.65 -12.9 36.45 -9.85 36.45 -4.4
L 36.45 5.55
Q 36.45 10.5 37.1 13 37.75 15.45 39.25 17.2 40.75 18.9 43.5 19.8 46.2 20.65 50.15 20.65 53.65 20.65 56.4 19.65 59.1 18.65 60.8 16.5 62.55 14.4 63.05 11.95 63.6 9.5 63.6 4.25
L 63.6 -5.25
Q 63.6 -9.4 63.05 -11.45 Z
M 51.75 9.75
Q 51.75 12.25 51.45 13 51.1 13.75 50 13.75 49 13.75 48.65 12.95 48.3 12.1 48.3 9.35
L 48.3 -8.2
Q 48.3 -11.2 48.65 -11.95 49 -12.75 50.05 -12.75 51.1 -12.75 51.45 -11.95 51.75 -11.2 51.75 -8.2
L 51.75 9.75 Z
M 66.6 -18.95
L 66.6 -11.15 74.6 -11.15 65.7 11.8 65.7 19.95 85.9 19.95 85.9 12.15 77.15 12.15 85.9 -10.3 85.9 -18.95 66.6 -18.95 Z
M -66 -11.35
Q -66 -17.95 -67.1 -21.1 -68.2 -24.25 -71.75 -26.35 -75.3 -28.5 -80.75 -28.5 -84.75 -28.5 -87.85 -27.1 -90.95 -25.75 -92.7 -23.4 -94.45 -21 -94.8 -18.45 -95.15 -15.9 -95.15 -10.75
L -95.15 3.1
Q -95.15 10.1 -94 13.55 -92.85 17 -89.35 19 -85.8 20.95 -80.4 20.95 -75.2 20.95 -71.6 18.65 -68.05 16.3 -67 13.25 -66 10.15 -66 2.8
L -66 0.95 -78.3 0.95 -78.3 6.9
Q -78.3 10.8 -78.75 11.85 -79.15 12.9 -80.55 12.9 -82 12.9 -82.4 11.85 -82.8 10.8 -82.8 7.35
L -82.8 -14.7
Q -82.8 -18.3 -82.4 -19.35 -82 -20.45 -80.45 -20.45 -79.1 -20.45 -78.7 -19.55 -78.3 -18.65 -78.3 -15.05
L -78.3 -6.85 -66 -6.85 -66 -11.35 Z
M -61.95 -18.95
L -61.95 19.95 -50.1 19.95 -50.1 4.6
Q -50.1 -1.05 -49.75 -2.6 -49.4 -4.2 -47.9 -5.05 -46.35 -5.95 -43.1 -5.95
L -43.1 -19.65
Q -48 -19.3 -50.55 -13.8
L -50.1 -18.95 -61.95 -18.95 Z
M -25.35 -18.95
L -27.2 7.3 -31.1 -18.95 -41.85 -18.95 -34.65 17.65
Q -34.65 18.65 -35.45 18.9 -36.25 19.2 -39 19.2
L -39 25.4 -31.8 25.4
Q -26.9 25.4 -24.65 24.65 -22.4 23.9 -21.15 22.3 -19.9 20.75 -19.35 18.3 -18.8 15.9 -18 9.2
L -14.6 -18.95 -25.35 -18.95 Z"/>

<path id="cryptokeeper_text_0_Layer2_0_1_STROKES" stroke="#FFFFFF" stroke-width="5.95" stroke-linejoin="round" stroke-linecap="round" fill="none" d="
M 19.15 -24.1
L 19.15 -18 16.65 -18 16.65 -11.85 19.15 -11.85 19.15 7.9
Q 19.15 13.7 19.5 15.3 19.8 16.85 21.15 18.1 22.45 19.3 24.2 19.65 25.9 19.95 29.95 19.95
L 34.75 19.95 34.75 13.7
Q 31.85 13.7 31.45 13.25 31.05 12.8 31.05 8.95
L 31.05 -11.85 34.25 -11.85 34.25 -18 31.05 -18 31.05 -24.1 19.15 -24.1 Z
M -12.55 -18.95
L -12.55 25.5 -0.7 25.5 -0.7 16.6
Q 0.85 18.6 2.7 19.65 4.6 20.65 6.8 20.65 9.55 20.65 11.5 19.35 13.45 18 14.1 15.75 14.7 13.5 14.7 8.2
L 14.7 -8.15
Q 14.7 -12.8 14.2 -14.75 13.7 -16.65 11.7 -18.15 9.7 -19.65 6.95 -19.65 4.7 -19.65 2.8 -18.6 0.9 -17.6 -0.7 -15.5
L -0.5 -18.95 -12.55 -18.95 Z
M 2.85 9.05
Q 2.85 12.15 2.6 13 2.3 13.75 1.15 13.75 0 13.75 -0.35 12.9 -0.7 12 -0.7 8.5
L -0.7 -7.6
Q -0.7 -11 -0.35 -11.85 -0.05 -12.75 1.15 -12.75 2.35 -12.75 2.6 -12 2.85 -11.2 2.85 -7.6
L 2.85 9.05 Z
M 63.05 -11.45
Q 62.45 -13.45 60.9 -15.35 59.35 -17.25 56.5 -18.45 53.65 -19.65 49.65 -19.65 44.9 -19.65 41.85 -17.8 38.8 -15.95 37.65 -12.9 36.45 -9.85 36.45 -4.4
L 36.45 5.55
Q 36.45 10.5 37.1 13 37.75 15.45 39.25 17.2 40.75 18.9 43.5 19.8 46.2 20.65 50.15 20.65 53.65 20.65 56.4 19.65 59.1 18.65 60.8 16.5 62.55 14.4 63.05 11.95 63.6 9.5 63.6 4.25
L 63.6 -5.25
Q 63.6 -9.4 63.05 -11.45 Z
M 51.75 9.75
Q 51.75 12.25 51.45 13 51.1 13.75 50 13.75 49 13.75 48.65 12.95 48.3 12.1 48.3 9.35
L 48.3 -8.2
Q 48.3 -11.2 48.65 -11.95 49 -12.75 50.05 -12.75 51.1 -12.75 51.45 -11.95 51.75 -11.2 51.75 -8.2
L 51.75 9.75 Z
M 66.6 -18.95
L 66.6 -11.15 74.6 -11.15 65.7 11.8 65.7 19.95 85.9 19.95 85.9 12.15 77.15 12.15 85.9 -10.3 85.9 -18.95 66.6 -18.95 Z
M -66 -11.35
Q -66 -17.95 -67.1 -21.1 -68.2 -24.25 -71.75 -26.35 -75.3 -28.5 -80.75 -28.5 -84.75 -28.5 -87.85 -27.1 -90.95 -25.75 -92.7 -23.4 -94.45 -21 -94.8 -18.45 -95.15 -15.9 -95.15 -10.75
L -95.15 3.1
Q -95.15 10.1 -94 13.55 -92.85 17 -89.35 19 -85.8 20.95 -80.4 20.95 -75.2 20.95 -71.6 18.65 -68.05 16.3 -67 13.25 -66 10.15 -66 2.8
L -66 0.95 -78.3 0.95 -78.3 6.9
Q -78.3 10.8 -78.75 11.85 -79.15 12.9 -80.55 12.9 -82 12.9 -82.4 11.85 -82.8 10.8 -82.8 7.35
L -82.8 -14.7
Q -82.8 -18.3 -82.4 -19.35 -82 -20.45 -80.45 -20.45 -79.1 -20.45 -78.7 -19.55 -78.3 -18.65 -78.3 -15.05
L -78.3 -6.85 -66 -6.85 -66 -11.35 Z
M -61.95 -18.95
L -61.95 19.95 -50.1 19.95 -50.1 4.6
Q -50.1 -1.05 -49.75 -2.6 -49.4 -4.2 -47.9 -5.05 -46.35 -5.95 -43.1 -5.95
L -43.1 -19.65
Q -48 -19.3 -50.55 -13.8
L -50.1 -18.95 -61.95 -18.95 Z
M -25.35 -18.95
L -27.2 7.3 -31.1 -18.95 -41.85 -18.95 -34.65 17.65
Q -34.65 18.65 -35.45 18.9 -36.25 19.2 -39 19.2
L -39 25.4 -31.8 25.4
Q -26.9 25.4 -24.65 24.65 -22.4 23.9 -21.15 22.3 -19.9 20.75 -19.35 18.3 -18.8 15.9 -18 9.2
L -14.6 -18.95 -25.35 -18.95 Z"/>

<path id="brain_0_Layer1_0_1_STROKES" stroke="#000000" stroke-width="3" stroke-linejoin="round" stroke-linecap="round" fill="none" d="
M 30.9 -33.9
Q 26.411328125 -22.0224609375 29.95 -11.55
M 32.95 -4.475
Q 38.7333984375 -8.1189453125 38.85 -17.9 38.85 -18.09296875 38.85 -18.3
M 40.15 -39.4
L 35.8 -38.85
M 7.8 -48.15
Q 11.1962890625 -46.9630859375 11.55 -45.1 16.35625 -50.16796875 28.05 -47.75
M 25.2 -4.15
Q 26.0134765625 -3.132421875 26.7 -2.125 30.38515625 -2.869921875 32.95 -4.475
M -13.4 -33.7
Q -6.79609375 -49.6931640625 8.15 -36.95 21.163671875 -48.1505859375 30.9 -33.9
M 8.15 -36.95
Q 4.584765625 -34.01328125 3.8 -14.95
M 19.15 -6.85
Q 16.59375 -18.6658203125 20.1 -28.6
M 53.8 -24.65
Q 47.4189453125 -21.3365234375 46.3 -12.65
L 46.275 -12.375
M 41.3 0.6
Q 44.525 0.2986328125 47.75 -3
L 48.5 -6.8
M 46.3 -12.65
Q 47.019921875 -19.528125 45.575 -24.15
M -51.325 -24.4
Q -57.031640625 -39.735546875 -40.6 -39.4 -41.0111328125 -49.2265625 -33.65 -55.25 -22.6251953125 -59.7322265625 -13.05 -54.25 2.893359375 -66.0568359375 18.05 -52.1 33.9564453125 -55.0728515625 40.2 -39.65 53.940234375 -38.790625 54.3 -25.15 65.61640625 -6.01796875 48.35 1 50.537109375 14.840234375 33.7 19.4 28.65 23.90546875 23.6 19.8 23.5146484375 19.8818359375 23.425 19.975 8.272265625 34.367578125 -7.575 23.225 -7.7400390625 23.1150390625 -7.9 23 -25.3421875 27.440234375 -36.45 10.7 -36.60234375 10.7365234375 -36.75 10.775 -36.8693359375 10.80234375 -37 10.825 -50.5974609375 13.850390625 -51.3 2 -51.378515625 1.9076171875 -51.45 1.825 -60.3833984375 -8.9001953125 -51.3 -24.35 -51.3103515625 -24.377734375 -51.325 -24.4
L -44.55 -31.05
M 45.575 -24.15
Q 42.66484375 -33.438671875 31.05 -33.7
M 15.9 13.85
Q 18.35 10.05 22.15 11.4
M 19.3 11.95
Q 18.9185546875 15.9625 23.425 19.975
M 25 -4.55
Q 9.2736328125 -10.3119140625 1.15 0.025 -0.3220703125 1.9234375 -1.55 4.35
L -1.525 4.5
Q -1.435546875 4.6447265625 -1.35 4.8 1.7951171875 10.0697265625 0.75 15.35
M 30.1 11.75
Q 24.6384765625 4.817578125 26.7 -2.125
M -20.1 -43.6
Q -12.572265625 -43.6994140625 -8.75 -49.65
L -12.7 -53.8
M -38.1 -34.5
L -33.95 -35.45
Q -32.1298828125 -37.844140625 -33.55 -40.75
M -13 -23.375
Q -12.054296875 -28.126953125 -13.4 -33.7 -30.79609375 -44.6798828125 -32.3 -23.8 -32.451171875 -23.8029296875 -32.6 -23.8
L -32.55 -18.15 -32.3 -16.3 -32.35 -16.3
M -31.775 -10.7
Q -24.7720703125 -4.6740234375 -24.275 1.35 -12.6044921875 -2.19921875 -1.525 4.5
M -32.35 -16.3
L -36.4 -17.05
M -16.3 -16.1
Q -13.7802734375 -19.4578125 -13 -23.375
M -8.375 -18.55
Q -8.1923828125 -26.7486328125 -3.8 -34.3
M 1.15 0.025
Q -4.4548828125 -2.6625 -8.2 -14.2 -8.4376953125 -16.3953125 -8.375 -18.55
M -22.95 -29.75
Q -26.4482421875 -23.6984375 -25.2 -15.35 -23.9900390625 -9.5892578125 -15.95 -5.65
M -32.6 -23.8
Q -45.96171875 -23.916015625 -40.55 -11.15 -35.2060546875 -8.781640625 -39.05 0.35
M -13.3 13.65
Q -12.7943359375 18.4375 -7.575 23.225
M -36.75 10.775
Q -32.53671875 9.2123046875 -32.4 5.7
M -24.275 1.35
Q -24.043359375 4.2046875 -25.2 7.05
M -51.45 1.825
Q -50.5564453125 -3.71640625 -46.1 -4.55"/>

<path id="coin_0_Layer3_0_1_STROKES" stroke="#000000" stroke-width="30" stroke-linejoin="round" stroke-linecap="round" fill="none" d="
M 189.1 28.55
Q 189.1 145.05 106.75 227.4 24.4 309.75 -92.1 309.75 -208.6 309.75 -290.95 227.4 -373.3 145.05 -373.3 28.55 -373.3 -87.95 -290.95 -170.3 -208.6 -252.65 -92.1 -252.65 24.4 -252.65 106.75 -170.3 189.1 -87.95 189.1 28.55 Z"/>

<path id="coin_copy_0_Layer1_0_1_STROKES" stroke="#000000" stroke-width="30" stroke-linejoin="round" stroke-linecap="round" fill="none" d="
M 189.1 28.55
Q 189.1 145.05 106.75 227.4 24.4 309.75 -92.1 309.75 -208.6 309.75 -290.95 227.4 -373.3 145.05 -373.3 28.55 -373.3 -87.95 -290.95 -170.3 -208.6 -252.65 -92.1 -252.65 24.4 -252.65 106.75 -170.3 189.1 -87.95 189.1 28.55 Z"/>

<path id="level_0_Layer0_0_1_STROKES" stroke="#000000" stroke-width="30" stroke-linejoin="round" stroke-linecap="round" fill="none" d="
M 189.1 28.55
Q 189.1 145.05 106.75 227.4 24.4 309.75 -92.1 309.75 -208.6 309.75 -290.95 227.4 -373.3 145.05 -373.3 28.55 -373.3 -87.95 -290.95 -170.3 -208.6 -252.65 -92.1 -252.65 24.4 -252.65 106.75 -170.3 189.1 -87.95 189.1 28.55 Z"/>
</defs>

<g transform="matrix( 1, 0, 0, 1, 0,0) ">
<use xlink:href="#Layer10_0_FILL"/>

<use xlink:href="#Layer10_0_1_STROKES"/>

<use xlink:href="#Layer10_0_2_STROKES"/>

<use xlink:href="#Layer10_0_3_STROKES"/>
</g>

<g transform="matrix( 1.8571014404296875, 0, 0, 1.8571014404296875, 405,280.95) ">
<g transform="matrix( 1, 0, 0, 1, 0,0) ">
<use xlink:href="#cryptokeeper_text_0_Layer3_0_FILL"/>

<use xlink:href="#cryptokeeper_text_0_Layer3_0_1_STROKES"/>
</g>

<g transform="matrix( 1, 0, 0, 1, 0,0) ">
<use xlink:href="#cryptokeeper_text_0_Layer2_0_FILL"/>

<use xlink:href="#cryptokeeper_text_0_Layer2_0_1_STROKES"/>
</g>

<g transform="matrix( 1, 0, 0, 1, 0,0) ">
<use xlink:href="#cryptokeeper_text_0_Layer1_0_FILL"/>
</g>
</g>

<g transform="matrix( 1, 0, 0, 1, 342.1,1135.35) ">
<clipPath id="Mask_Mask_1">
<rect x="-2" y="-2" width="10.2" height="48.7" fill="#FFFFFF" stroke="none"/>
</clipPath>

<text clip-path="url(#Mask_Mask_1)" writing-mode="lr"/>
</g>

<g transform="matrix( 1.5540771484375, -0.001190185546875, 0.001190185546875, 1.5540771484375, 394.75,123.75) ">
<g transform="matrix( 1, 0, 0, 1, 0,0) ">
<use xlink:href="#brain_0_Layer1_0_FILL"/>

<use xlink:href="#brain_0_Layer1_0_1_STROKES"/>
</g>

<g transform="matrix( 1, 0, 0, 1, 0,0) ">
<use xlink:href="#brain_0_Layer0_0_FILL"/>
</g>
</g>

<g transform="matrix( -1.5540771484375, -0.001190185546875, -0.001190185546875, 1.5540771484375, 398.25,123.75) ">
<g transform="matrix( 1, 0, 0, 1, 0,0) ">
<use xlink:href="#brain_0_Layer1_0_FILL"/>

<use xlink:href="#brain_0_Layer1_0_1_STROKES"/>
</g>

<g transform="matrix( 1, 0, 0, 1, 0,0) ">
<use xlink:href="#brain_0_Layer0_0_FILL"/>
</g>
</g>

<g transform="matrix( 1.03485107421875, 0, 0, 1.03485107421875, 488.4,653.3) ">
<g transform="matrix( 1, 0, 0, 1, 0,0) ">
<use xlink:href="#coin_0_Layer3_0_FILL"/>

<use xlink:href="#coin_0_Layer3_0_1_STROKES"/>
</g>

<g transform="matrix( 1, 0, 0, 1, 0,0) ">
<use xlink:href="#coin_0_Layer2_0_FILL"/>
</g>

<g transform="matrix( 1, 0, 0, 1, 0,0) ">
<use xlink:href="#coin_0_Layer1_0_FILL"/>
</g>

<g transform="matrix( 1, 0, 0, 1, 0,0) ">
<use xlink:href="#coin_0_Layer0_0_FILL"/>
</g>
</g>

<g transform="matrix( 0.248382568359375, 0, 0, 0.248382568359375, 101.2,1133.1) ">
<g transform="matrix( 1, 0, 0, 1, 0,0) ">
<use xlink:href="#coin_copy_0_Layer1_0_FILL"/>

<use xlink:href="#coin_copy_0_Layer1_0_1_STROKES"/>
</g>

<g transform="matrix( 1, 0, 0, 1, 0,0) ">
<use xlink:href="#coin_copy_0_Layer0_0_FILL"/>
</g>
</g>

<g transform="matrix( 0.248382568359375, 0, 0, 0.248382568359375, 720.95,1133.1) ">
<g transform="matrix( 1, 0, 0, 1, 0,0) ">
<use xlink:href="#level_0_Layer0_0_FILL"/>

<use xlink:href="#level_0_Layer0_0_1_STROKES"/>
</g>
</g>

<g transform="matrix( 0.248382568359375, 0, 0, 0.248382568359375, 722.2,1133.35) ">
<g transform="matrix( 1, 0, 0, 1, 0,0) ">
<use xlink:href="#coin_copy_0_Layer1_0_FILL"/>

<use xlink:href="#coin_copy_0_Layer1_0_1_STROKES"/>
</g>

<g transform="matrix( 1, 0, 0, 1, 0,0) ">
<use xlink:href="#coin_copy_0_Layer0_0_FILL"/>
</g>
</g>
</svg>
