
<svg xmlns="http://www.w3.org/2000/svg" version="1.1" xmlns:xlink="http://www.w3.org/1999/xlink" preserveAspectRatio="none" x="0px" y="0px" width="563px" height="563px" viewBox="0 0 563 563">
<defs>
<g id="Symbol_1_0_Layer4_0_FILL">
<path fill="#F3BA2F" stroke="none" d="
M 278.1 -54.4
Q 278.1 -170.9 195.75 -253.25 113.4 -335.6 -3.1 -335.6 -119.6 -335.6 -201.95 -253.25 -284.3 -170.9 -284.3 -54.4 -284.3 62.1 -201.95 144.45 -119.6 226.8 -3.1 226.8 113.4 226.8 195.75 144.45 278.1 62.1 278.1 -54.4
M 182.3 -241.95
Q 182.1 -242.15 181.9 -242.3 177.1 -247.05 172.55 -251.45 177.4435546875 -246.955859375 182.1 -242.15 182.2 -242.1 182.3 -241.95
M 52.4 -300.15
Q 100.55 -283.45 152.75 -249.35 204.9 -215.3 236.55 -150.8 268.25 -86.3 241.15 17.9 214 122.1 120.15 171.7 26.25 221.25 -65.8 194 -157.85 166.75 -227.05 78.15 -237.45 61.8 -244.6 44.15 -270.6 -36.2 -227.05 -146.55 -183.5 -256.95 -89.65 -286.9 4.2 -316.85 52.4 -300.15 Z"/>

<path fill="#8B9ACE" stroke="none" d="
M -227.05 78.15
Q -231.05 71.5 -234.75 64.55 -240.15 54.4 -244.6 44.15 -237.45 61.8 -227.05 78.15
M 181.9 -242.3
Q 181.99375 -242.253125 182.1 -242.15 177.4435546875 -246.955859375 172.55 -251.45 177.1 -247.05 181.9 -242.3 Z"/>

<path fill="#F3DCA4" stroke="none" d="
M 152.75 -249.35
Q 100.55 -283.45 52.4 -300.15 4.2 -316.85 -89.65 -286.9 -183.5 -256.95 -227.05 -146.55 -270.6 -36.2 -244.6 44.15 -240.15 54.4 -234.75 64.55 -231.05 71.5 -227.05 78.15 -157.85 166.75 -65.8 194 26.25 221.25 120.15 171.7 214 122.1 241.15 17.9 268.25 -86.3 236.55 -150.8 204.9 -215.3 152.75 -249.35
M 68.45 -278.85
Q 147.75 -247.9 201.1 -156.95 254.4 -66.05 212.05 25.2 169.7 116.45 82.55 156.9 -4.65 197.3 -92.6 163.1 -180.6 128.85 -215.35 45.8 -250.15 -37.3 -204.2 -130.7 -158.3 -224.15 -84.6 -267 -10.9 -309.85 68.45 -278.85 Z"/>

<path fill="#000000" stroke="none" d="
M 201.1 -156.95
Q 147.75 -247.9 68.45 -278.85 -10.9 -309.85 -84.6 -267 -158.3 -224.15 -204.2 -130.7 -250.15 -37.3 -215.35 45.8 -180.6 128.85 -92.6 163.1 -4.65 197.3 82.55 156.9 169.7 116.45 212.05 25.2 254.4 -66.05 201.1 -156.95 Z"/>

<path fill="#3956BD" stroke="none" d="
M 181.9 -242.3
Q 182.1 -242.15 182.3 -241.95 182.2 -242.1 182.1 -242.15 181.99375 -242.253125 181.9 -242.3 Z"/>
</g>

<g id="Symbol_1_0_Layer3_0_FILL">
<path fill="#FCFCFB" stroke="none" d="
M 129.1 -130.95
Q 110.1 -157.9 82.4 -196.5 54.65 -235.15 33.45 -243.75 12.25 -252.35 -4.5 -255.65 -21.3 -259 -41.85 -245.65 -48.65 -241.25 -56.95 -234.7 -61.35 -231.2 -67.35 -226.35 -72.95 -222.05 -104.3 -188.8 -141 -149.85 -141.25 -149.6 -147.1 -143.75 -158.4 -116.3 -164 -102.6 -168.5 -90.05 -177.3 -68.25 -166.35 -25.95 -162.45 -10.9 -156.8 3.65 -152.05 15.85 -149.15 20.4 -145.1 26.7 -142.05 24.85 -141.1 24.3 -140.35 23
L -139.8 21.8 -139.95 24.6
Q -141.05 28.05 -145.55 31.15 -152.45 35.95 -155.6 42.25 -159.9 50.9 -157 62 -155.05 69.45 -153.75 72.65 -151.75 77.35 -148.55 80.3 -141.9 86.45 -121.85 89.95 -103.9 93.1 -78.1 87.2 -70 85.35 -62.15 82.8
L -55.85 80.65 -58.75 83.6
Q -63.1 87 -69.95 89.95 -76.85 92.85 -101.05 105.05
L -92.85 110.3 -93.15 117.95 -77.4 109.35 -84.55 124.4
Q -64.75 121.15 -61.6 134.45
L -52.3 117.25 -52.3 136.6 -33.65 143.05 -24.3 121.55 -22.85 143.05
Q -8.5 131.85 7.8 142.9
L 15.85 121.55 18.75 142.35 41.7 138.05 43.85 116.5 51 135.9 66.1 128.7 63.2 110.05 74.7 122.95 84.75 114.35 78.25 98.6 90.45 107.9 101.65 100.9
Q 99.25 90.35 77.55 77.8 82.2 79.4 89.75 81.05 104.8 84.25 119.15 84.25 135.85 84.25 143.75 73.85 151.15 64.05 150 46.2 149.1 31.85 142.65 23.95 140.6 21.5 138.3 20
L 136.35 18.95 152.85 -21.2
Q 158.3 -34.4 154.4 -64 152.9 -75 147.85 -98.7 146.1 -106.9 129.1 -130.95 Z"/>
</g>

<g id="Symbol_1_0_Layer2_0_FILL">
<path fill="#000000" stroke="none" d="
M 12.25 32.6
L 6.45 35.3
Q -0.15 38.85 -4.2 43.35 -8.25 47.85 -11.65 62.2 -13.35 69.4 -14.25 75.65 -14.25 79.8 -11.1 79.2 -10.75 79.15 -4.2 76.35 -2.25 75.5 2.25 68.2 6.45 61.35 10.85 60.55 15.5 59.7 17.65 63.85 18.3 65.1 19.5 67.9 20.75 70.5 22.3 72.05 25.45 75.2 29.6 77.15
L 33.1 78.5
Q 32 75.3 30.75 70.9 28.25 62.1 27.35 56.25 26.5 50.4 18.6 38.75
L 12.25 32.6
M 53.8 -86.55
Q 48.95 -86.35 42.95 -81.35 36.9 -76.4 32.7 -68.1 20.95 -44.95 26.5 -23.1 31.85 -2.05 38.3 6.4 41.5 10.55 52.2 17.8 45 19.6 32.25 10.6
L 34.7 13.75
Q 37.95 17.5 41.75 20.65 53.95 30.7 68.5 31.45 83.05 32.2 95.3 30.1 107.55 28 116.1 14.9 106.5 25.1 96.05 19.2 109.4 15 111.15 -6.6 115.55 -6.95 118.45 -1.45 114.2 -13.95 112.7 -26.25 111.2 -38.55 103.4 -55.4 95.6 -72.25 81.95 -78.5 68.3 -84.8 63.5 -85.8 58.65 -86.8 53.8 -86.55
M -110.4 -42
Q -116.25 -34.35 -122.85 -14.45 -125.9 -5.2 -126.75 3.95 -123.55 -3.25 -116.85 -4 -120.95 22.55 -98.9 27.55
L -117.55 31.85
Q -109.4 32.75 -98.9 34.1 -88.4 35.45 -68.65 35.45 -48.9 35.45 -36.7 25.4 -32.9 22.25 -29.65 18.5
L -27.2 15.35 -39.95 18.95
Q -36.45 15.3 -33.25 11.15 -26.8 2.7 -21.45 -18.35 -15.9 -40.2 -27.65 -63.35 -31.85 -71.65 -37.45 -78.45 -42.2 -84.15 -45.1 -85.75 -49.6 -88.2 -56.15 -86.1 -60.95 -84.55 -73.1 -77.9 -89.95 -68.7 -110.4 -42 Z"/>
</g>

<g id="binance_0_Layer0_0_FILL">
<path fill="#F3BA2F" stroke="none" d="
M -56.25 -0.1
L -79.75 -23.6 -103.05 -0.3 -79.55 23.2 -56.25 -0.1
M 0.15 23.1
L 23.5 -0.25 -0.2 -23.95 -23.55 -0.6 0.15 23.1
M 63.1 39.35
L 40.3 16.55 0.4 56.45 -39.05 17 -62.05 40 0.2 102.25 63.1 39.35
M 56.25 0.6
L 79.05 23.4 102.35 0.1 79.55 -22.7 56.25 0.6
M 40.1 -16.85
L 63.1 -39.85 0.85 -102.1 -62.05 -39.2 -40.15 -17.3 -0.25 -57.2 40.1 -16.85 Z"/>
</g>

<path id="Symbol_1_0_Layer4_0_1_STROKES" stroke="#000000" stroke-width="30" stroke-linejoin="round" stroke-linecap="round" fill="none" d="
M 278.1 -54.4
Q 278.1 62.1 195.75 144.45 113.4 226.8 -3.1 226.8 -119.6 226.8 -201.95 144.45 -284.3 62.1 -284.3 -54.4 -284.3 -170.9 -201.95 -253.25 -119.6 -335.6 -3.1 -335.6 113.4 -335.6 195.75 -253.25 278.1 -170.9 278.1 -54.4 Z"/>
</defs>

<g transform="matrix( 0.91461181640625, 0, 0, 0.91461181640625, 282.75,331.5) ">
<g transform="matrix( 1, 0, 0, 1, 0,0) ">
<use xlink:href="#Symbol_1_0_Layer4_0_FILL"/>

<use xlink:href="#Symbol_1_0_Layer4_0_1_STROKES"/>
</g>

<g transform="matrix( 1, 0, 0, 1, 0,0) ">
<use xlink:href="#Symbol_1_0_Layer3_0_FILL"/>
</g>

<g transform="matrix( 1, 0, 0, 1, 0,0) ">
<use xlink:href="#Symbol_1_0_Layer2_0_FILL"/>
</g>

<g transform="matrix( 0.552093505859375, 0, 0, 0.552093505859375, -3.7,-158.45) ">
<g transform="matrix( 1, 0, 0, 1, 0,0) ">
<use xlink:href="#binance_0_Layer0_0_FILL"/>
</g>
</g>
</g>
</svg>
