<svg xmlns="http://www.w3.org/2000/svg" xmlns:xlink="http://www.w3.org/1999/xlink" preserveAspectRatio="none" width="775" height="1250"><defs><path fill="#E1E1E1" d="M-14.6-18.95h-10.75L-27.2 7.3l-3.9-26.25h-10.75l7.2 36.6q0 1-.8 1.25-.8.3-3.55.3v6.2h7.2q4.9 0 7.15-.75t3.5-2.35q1.25-1.55 1.8-4 .55-2.4 1.35-9.1l3.4-28.15m-28.5-.7q-4.9.35-7.45 5.85l.45-5.15h-11.85v38.9h11.85V4.6q0-5.65.35-7.2.35-1.6 1.85-2.45 1.55-.9 4.8-.9v-13.7m-44.75-7.45q-3.1 1.35-4.85 3.7-1.75 2.4-2.1 4.95-.35 2.55-.35 7.7V3.1q0 7 1.15 10.45Q-92.85 17-89.35 19q3.55 1.95 8.95 1.95 5.2 0 8.8-2.3 3.55-2.35 4.6-5.4 1-3.1 1-10.45V.95h-12.3V6.9q0 3.9-.45 4.95-.4 1.05-1.8 1.05-1.45 0-1.85-1.05-.4-1.05-.4-4.5V-14.7q0-3.6.4-4.65.4-1.1 1.95-1.1 1.35 0 1.75.9.4.9.4 4.5v8.2H-66v-4.5q0-6.6-1.1-9.75-1.1-3.15-4.65-5.25-3.55-2.15-9-2.15-4 0-7.1 1.4M66.6-18.95v7.8h8L65.7 11.8v8.15h20.2v-7.8h-8.75L85.9-10.3v-8.65H66.6M37.65-12.9q-1.2 3.05-1.2 8.5v9.95q0 4.95.65 7.45.65 2.45 2.15 4.2 1.5 1.7 4.25 2.6 2.7.85 6.65.85 3.5 0 6.25-1 2.7-1 4.4-3.15 1.75-2.1 2.25-4.55.55-2.45.55-7.7v-9.5q0-4.15-.55-6.2-.6-2-2.15-3.9-1.55-1.9-4.4-3.1-2.85-1.2-6.85-1.2-4.75 0-7.8 1.85t-4.2 4.9M48.3-8.2q0-3 .35-3.75.35-.8 1.4-.8 1.05 0 1.4.8.3.75.3 3.75V9.75q0 2.5-.3 3.25-.35.75-1.45.75-1 0-1.35-.8-.35-.85-.35-3.6V-8.2M19.15-24.1v6.1h-2.5v6.15h2.5V7.9q0 5.8.35 7.4.3 1.55 1.65 2.8 1.3 1.2 3.05 1.55 1.7.3 5.75.3h4.8V13.7q-2.9 0-3.3-.45-.4-.45-.4-4.3v-20.8h3.2V-18h-3.2v-6.1h-11.9m-4.95 9.35q-.5-1.9-2.5-3.4t-4.75-1.5q-2.25 0-4.15 1.05-1.9 1-3.5 3.1l.2-3.45h-12.05V25.5H-.7v-8.9q1.55 2 3.4 3.05 1.9 1 4.1 1 2.75 0 4.7-1.3 1.95-1.35 2.6-3.6.6-2.25.6-7.55V-8.15q0-4.65-.5-6.6M2.6-12q.25.8.25 4.4V9.05q0 3.1-.25 3.95-.3.75-1.45.75t-1.5-.85Q-.7 12-.7 8.5V-7.6q0-3.4.35-4.25.3-.9 1.5-.9T2.6-12z" id="f"/><path d="M-14.6-18.95h-10.75L-27.2 7.3l-3.9-26.25h-10.75l7.2 36.6q0 1-.8 1.25-.8.3-3.55.3v6.2h7.2q4.9 0 7.15-.75t3.5-2.35q1.25-1.55 1.8-4 .55-2.4 1.35-9.1l3.4-28.15m-28.5-.7q-4.9.35-7.45 5.85l.45-5.15h-11.85v38.9h11.85V4.6q0-5.65.35-7.2.35-1.6 1.85-2.45 1.55-.9 4.8-.9v-13.7m-51.7 1.2q-.35 2.55-.35 7.7V3.1q0 7 1.15 10.45Q-92.85 17-89.35 19q3.55 1.95 8.95 1.95 5.2 0 8.8-2.3 3.55-2.35 4.6-5.4 1-3.1 1-10.45V.95h-12.3V6.9q0 3.9-.45 4.95-.4 1.05-1.8 1.05-1.45 0-1.85-1.05-.4-1.05-.4-4.5V-14.7q0-3.6.4-4.65.4-1.1 1.95-1.1 1.35 0 1.75.9.4.9.4 4.5v8.2H-66v-4.5q0-6.6-1.1-9.75-1.1-3.15-4.65-5.25-3.55-2.15-9-2.15-4 0-7.1 1.4-3.1 1.35-4.85 3.7-1.75 2.4-2.1 4.95m161.4-.5v7.8h8L65.7 11.8v8.15h20.2v-7.8h-8.75L85.9-10.3v-8.65H66.6M37.65-12.9q-1.2 3.05-1.2 8.5v9.95q0 4.95.65 7.45.65 2.45 2.15 4.2 1.5 1.7 4.25 2.6 2.7.85 6.65.85 3.5 0 6.25-1 2.7-1 4.4-3.15 1.75-2.1 2.25-4.55.55-2.45.55-7.7v-9.5q0-4.15-.55-6.2-.6-2-2.15-3.9-1.55-1.9-4.4-3.1-2.85-1.2-6.85-1.2-4.75 0-7.8 1.85t-4.2 4.9M48.3-8.2q0-3 .35-3.75.35-.8 1.4-.8 1.05 0 1.4.8.3.75.3 3.75V9.75q0 2.5-.3 3.25-.35.75-1.45.75-1 0-1.35-.8-.35-.85-.35-3.6V-8.2M19.15-24.1v6.1h-2.5v6.15h2.5V7.9q0 5.8.35 7.4.3 1.55 1.65 2.8 1.3 1.2 3.05 1.55 1.7.3 5.75.3h4.8V13.7q-2.9 0-3.3-.45-.4-.45-.4-4.3v-20.8h3.2V-18h-3.2v-6.1h-11.9m-4.95 9.35q-.5-1.9-2.5-3.4t-4.75-1.5q-2.25 0-4.15 1.05-1.9 1-3.5 3.1l.2-3.45h-12.05V25.5H-.7v-8.9q1.55 2 3.4 3.05 1.9 1 4.1 1 2.75 0 4.7-1.3 1.95-1.35 2.6-3.6.6-2.25.6-7.55V-8.15q0-4.65-.5-6.6M2.6-12q.25.8.25 4.4V9.05q0 3.1-.25 3.95-.3.75-1.45.75t-1.5-.85Q-.7 12-.7 8.5V-7.6q0-3.4.35-4.25.3-.9 1.5-.9T2.6-12z" id="h"/><path d="M-14.6-18.95h-10.75L-27.2 7.3l-3.9-26.25h-10.75l7.2 36.6q0 1-.8 1.25-.8.3-3.55.3v6.2h7.2q4.9 0 7.15-.75t3.5-2.35q1.25-1.55 1.8-4 .55-2.4 1.35-9.1l3.4-28.15m-28.5-.7q-4.9.35-7.45 5.85l.45-5.15h-11.85v38.9h11.85V4.6q0-5.65.35-7.2.35-1.6 1.85-2.45 1.55-.9 4.8-.9v-13.7m-51.7 1.2q-.35 2.55-.35 7.7V3.1q0 7 1.15 10.45Q-92.85 17-89.35 19q3.55 1.95 8.95 1.95 5.2 0 8.8-2.3 3.55-2.35 4.6-5.4 1-3.1 1-10.45V.95h-12.3V6.9q0 3.9-.45 4.95-.4 1.05-1.8 1.05-1.45 0-1.85-1.05-.4-1.05-.4-4.5V-14.7q0-3.6.4-4.65.4-1.1 1.95-1.1 1.35 0 1.75.9.4.9.4 4.5v8.2H-66v-4.5q0-6.6-1.1-9.75-1.1-3.15-4.65-5.25-3.55-2.15-9-2.15-4 0-7.1 1.4-3.1 1.35-4.85 3.7-1.75 2.4-2.1 4.95m161.4-.5v7.8h8L65.7 11.8v8.15h20.2v-7.8h-8.75L85.9-10.3v-8.65H66.6M37.65-12.9q-1.2 3.05-1.2 8.5v9.95q0 4.95.65 7.45.65 2.45 2.15 4.2 1.5 1.7 4.25 2.6 2.7.85 6.65.85 3.5 0 6.25-1 2.7-1 4.4-3.15 1.75-2.1 2.25-4.55.55-2.45.55-7.7v-9.5q0-4.15-.55-6.2-.6-2-2.15-3.9-1.55-1.9-4.4-3.1-2.85-1.2-6.85-1.2-4.75 0-7.8 1.85t-4.2 4.9M48.3-8.2q0-3 .35-3.75.35-.8 1.4-.8 1.05 0 1.4.8.3.75.3 3.75V9.75q0 2.5-.3 3.25-.35.75-1.45.75-1 0-1.35-.8-.35-.85-.35-3.6V-8.2M19.15-24.1v6.1h-2.5v6.15h2.5V7.9q0 5.8.35 7.4.3 1.55 1.65 2.8 1.3 1.2 3.05 1.55 1.7.3 5.75.3h4.8V13.7q-2.9 0-3.3-.45-.4-.45-.4-4.3v-20.8h3.2V-18h-3.2v-6.1h-11.9m-4.95 9.35q-.5-1.9-2.5-3.4t-4.75-1.5q-2.25 0-4.15 1.05-1.9 1-3.5 3.1l.2-3.45h-12.05V25.5H-.7v-8.9q1.55 2 3.4 3.05 1.9 1 4.1 1 2.75 0 4.7-1.3 1.95-1.35 2.6-3.6.6-2.25.6-7.55V-8.15q0-4.65-.5-6.6M2.6-12q.25.8.25 4.4V9.05q0 3.1-.25 3.95-.3.75-1.45.75t-1.5-.85Q-.7 12-.7 8.5V-7.6q0-3.4.35-4.25.3-.9 1.5-.9T2.6-12z" id="j"/><path fill="#FCFCFB" d="M58.85-15.75Q57.1-23.95 40.1-48q-19-26.95-49.4-62.4-28.1-32.75-54.25-48.15-14.05-8.3-35.4-14.3-11.35-3.2-31.9 10.15-6.8 4.4-15.1 10.95-4.4 3.5-10.4 8.35-5.6 4.3-36.95 37.55-36.7 38.95-36.95 39.2-5.85 5.85-17.15 33.3-5.6 13.7-10.1 26.25-8.8 21.8 2.15 64.1 3.9 15.05 9.55 29.6 4.75 12.2 7.65 16.75 4.05 6.3 7.1 4.45.95-.55 1.7-1.85l.55-1.2-.15 2.8q-1.1 3.45-5.6 6.55-6.9 4.8-10.05 11.1-4.3 8.65-1.4 19.75 1.95 7.45 3.25 10.65 2 4.7 5.2 7.65 6.65 6.15 26.7 9.65 17.95 3.15 43.75-2.75 8.1-1.85 15.95-4.4l6.3-2.15-2.9 2.95q-4.363 3.4-11.25 6.3-6.838 2.95-31.05 15.15l8.2 5.25-.3 7.65 15.75-8.6-7.15 15.05q19.82-3.236 22.95 10.05l9.3-17.2v19.35l18.65 6.45 9.35-21.5 1.45 21.5q14.325-11.224 30.65-.15l8.05-21.35 2.9 20.8 22.95-4.3 2.15-21.55 7.15 19.4 15.1-7.2-2.9-18.65 11.5 12.9 10.05-8.6-6.5-15.75 12.2 9.3 11.2-7q-2.385-10.55-24.1-23.1 4.65 1.6 12.2 3.25 15.05 3.2 29.4 3.2 16.7 0 24.6-10.4 7.4-9.8 6.25-27.65-.9-14.35-7.35-22.25-2.05-2.45-4.35-3.95l-1.95-1.05 16.5-40.15q5.45-13.2 1.55-42.8-1.5-11-6.55-34.7z" id="q"/><path d="M-82.55 118.25q-6.6 3.55-10.65 8.05-4.05 4.5-7.45 18.85-1.7 7.2-2.6 13.45 0 4.15 3.15 3.55.35-.05 6.9-2.85 1.95-.85 6.45-8.15 4.2-6.85 8.6-7.65 4.65-.85 6.8 3.3.65 1.25 1.85 4.05 1.25 2.6 2.8 4.15 3.15 3.15 7.3 5.1l3.5 1.35q-1.1-3.2-2.35-7.6-2.5-8.8-3.4-14.65-.85-5.85-8.75-17.5l-6.35-6.15-5.8 2.7m57-121.1q-4.784-1.008-9.65-.8-4.865.26-10.9 5.2-5.995 4.996-10.2 13.3-11.75 23.15-6.2 45 5.35 21.05 11.8 29.5 3.2 4.15 13.9 11.4-7.218 1.819-19.95-7.2l2.45 3.15q3.25 3.75 7.05 6.9 12.203 10.052 26.75 10.8 14.552.745 26.8-1.35 12.248-2.094 20.8-15.2-9.581 10.201-20.05 4.3 13.366-4.196 15.1-25.8 4.385-.352 7.25 5.1-4.194-12.457-5.7-24.75-1.513-12.299-9.3-29.15Q6.612 10.701-7.05 4.4q-13.666-6.249-18.5-7.25m-108.55.05q-4.5-2.45-11.05-.35-4.8 1.55-16.95 8.2-16.85 9.2-37.3 35.9-5.85 7.65-12.45 27.55-3.067 9.249-3.9 18.4 3.176-7.192 9.9-7.95-4.115 26.546 17.95 31.55l-18.65 4.3q8.136.9 18.65 2.25 10.51 1.35 30.25 1.35 19.746 0 31.95-10.05 3.8-3.15 7.05-6.9l2.45-3.15-12.8 3.6q3.55-3.666 6.75-7.8 6.45-8.45 11.8-29.5 5.55-21.85-6.2-45-4.2-8.3-9.8-15.1-4.75-5.7-7.65-7.3z" id="r"/><path fill="#F3BA2F" d="M56.25.6l22.8 22.8L102.35.1l-22.8-22.8L56.25.6M-39.05 17l-23 23L.2 102.25l62.9-62.9-22.8-22.8L.4 56.45-39.05 17M-.2-23.95L-23.55-.6.15 23.1 23.5-.25-.2-23.95M-56.25-.1l-23.5-23.5-23.3 23.3 23.5 23.5 23.3-23.3M40.1-16.85l23-23L.85-102.1l-62.9 62.9 21.9 21.9 39.9-39.9L40.1-16.85z" id="u"/><path id="c" stroke="#000" stroke-width="10" stroke-linejoin="round" stroke-linecap="round" fill="none" d="M752.15 789.45V124.3q0-10.35-7.35-17.7-7.3-7.3-17.65-7.3l-616.4.05H56q-9.85.25-16.9 7.3-7.35 7.35-7.35 17.7v67.05M32 789.45V191.4m76-92.1l2.75.05M32 887.4v-97.95m720.15 98.1v254.55q0 10.35-7.35 17.65-7.3 7.35-17.65 7.35-334.568 30.92-654.05 1.525-8.058-.746-16.1-1.525-2.122 0-4.125-.3-7.732-1.207-13.575-7.05-7.3-7.3-7.3-17.65V887.55m720.15-98.1v97.95"/><path id="d" stroke="#F3BA2F" stroke-width="5" stroke-linejoin="round" stroke-linecap="round" fill="none" d="M735.85 796.9l.65-655.4q0-9.95-7-17.05-7-7.05-16.9-7.05l-640.8.05q-9.9 0-16.9 7.05-7 7.1-7 17.05l.65 652.2"/><path id="e" stroke="#FFE97E" stroke-width="5" stroke-linejoin="round" stroke-linecap="round" fill="none" d="M735.85 796.9v1.725m-687.3-4.875l-.6 331.65q0 9.95 7 17 7.05 7.05 16.95 7.05 5.582.549 11.175 1.075m652.775-351.9l.65 326.775q0 9.95-7 17-7 7.05-16.9 7.05-305.263 30.017-610.525 2.825-9.495-.848-19-1.75"/><path id="g" stroke="#FC0" stroke-width="13.85" stroke-linejoin="round" stroke-linecap="round" fill="none" d="M-12.55-18.95V25.5H-.7v-8.9q1.55 2 3.4 3.05 1.9 1 4.1 1 2.75 0 4.7-1.3 1.95-1.35 2.6-3.6.6-2.25.6-7.55V-8.15q0-4.65-.5-6.6-.5-1.9-2.5-3.4t-4.75-1.5q-2.25 0-4.15 1.05-1.9 1-3.5 3.1l.2-3.45h-12.05zm31.7-5.15v6.1h-2.5v6.15h2.5V7.9q0 5.8.35 7.4.3 1.55 1.65 2.8 1.3 1.2 3.05 1.55 1.7.3 5.75.3h4.8V13.7q-2.9 0-3.3-.45-.4-.45-.4-4.3v-20.8h3.2V-18h-3.2v-6.1h-11.9zM2.85 9.05q0 3.1-.25 3.95-.3.75-1.45.75t-1.5-.85Q-.7 12-.7 8.5V-7.6q0-3.4.35-4.25.3-.9 1.5-.9T2.6-12q.25.8.25 4.4V9.05zm60.2-20.5q-.6-2-2.15-3.9-1.55-1.9-4.4-3.1-2.85-1.2-6.85-1.2-4.75 0-7.8 1.85t-4.2 4.9q-1.2 3.05-1.2 8.5v9.95q0 4.95.65 7.45.65 2.45 2.15 4.2 1.5 1.7 4.25 2.6 2.7.85 6.65.85 3.5 0 6.25-1 2.7-1 4.4-3.15 1.75-2.1 2.25-4.55.55-2.45.55-7.7v-9.5q0-4.15-.55-6.2zm-11.3 21.2q0 2.5-.3 3.25-.35.75-1.45.75-1 0-1.35-.8-.35-.85-.35-3.6V-8.2q0-3 .35-3.75.35-.8 1.4-.8 1.05 0 1.4.8.3.75.3 3.75V9.75zm14.85-28.7v7.8h8L65.7 11.8v8.15h20.2v-7.8h-8.75L85.9-10.3v-8.65H66.6zM-66-11.35q0-6.6-1.1-9.75-1.1-3.15-4.65-5.25-3.55-2.15-9-2.15-4 0-7.1 1.4-3.1 1.35-4.85 3.7-1.75 2.4-2.1 4.95-.35 2.55-.35 7.7V3.1q0 7 1.15 10.45Q-92.85 17-89.35 19q3.55 1.95 8.95 1.95 5.2 0 8.8-2.3 3.55-2.35 4.6-5.4 1-3.1 1-10.45V.95h-12.3V6.9q0 3.9-.45 4.95-.4 1.05-1.8 1.05-1.45 0-1.85-1.05-.4-1.05-.4-4.5V-14.7q0-3.6.4-4.65.4-1.1 1.95-1.1 1.35 0 1.75.9.4.9.4 4.5v8.2H-66v-4.5zm4.05-7.6v38.9h11.85V4.6q0-5.65.35-7.2.35-1.6 1.85-2.45 1.55-.9 4.8-.9v-13.7q-4.9.35-7.45 5.85l.45-5.15h-11.85zm36.6 0L-27.2 7.3l-3.9-26.25h-10.75l7.2 36.6q0 1-.8 1.25-.8.3-3.55.3v6.2h7.2q4.9 0 7.15-.75t3.5-2.35q1.25-1.55 1.8-4 .55-2.4 1.35-9.1l3.4-28.15h-10.75z"/><path id="i" stroke="#FFF" stroke-width="5.95" stroke-linejoin="round" stroke-linecap="round" fill="none" d="M-12.55-18.95V25.5H-.7v-8.9q1.55 2 3.4 3.05 1.9 1 4.1 1 2.75 0 4.7-1.3 1.95-1.35 2.6-3.6.6-2.25.6-7.55V-8.15q0-4.65-.5-6.6-.5-1.9-2.5-3.4t-4.75-1.5q-2.25 0-4.15 1.05-1.9 1-3.5 3.1l.2-3.45h-12.05zm31.7-5.15v6.1h-2.5v6.15h2.5V7.9q0 5.8.35 7.4.3 1.55 1.65 2.8 1.3 1.2 3.05 1.55 1.7.3 5.75.3h4.8V13.7q-2.9 0-3.3-.45-.4-.45-.4-4.3v-20.8h3.2V-18h-3.2v-6.1h-11.9zM2.85 9.05q0 3.1-.25 3.95-.3.75-1.45.75t-1.5-.85Q-.7 12-.7 8.5V-7.6q0-3.4.35-4.25.3-.9 1.5-.9T2.6-12q.25.8.25 4.4V9.05zm60.2-20.5q-.6-2-2.15-3.9-1.55-1.9-4.4-3.1-2.85-1.2-6.85-1.2-4.75 0-7.8 1.85t-4.2 4.9q-1.2 3.05-1.2 8.5v9.95q0 4.95.65 7.45.65 2.45 2.15 4.2 1.5 1.7 4.25 2.6 2.7.85 6.65.85 3.5 0 6.25-1 2.7-1 4.4-3.15 1.75-2.1 2.25-4.55.55-2.45.55-7.7v-9.5q0-4.15-.55-6.2zm-11.3 21.2q0 2.5-.3 3.25-.35.75-1.45.75-1 0-1.35-.8-.35-.85-.35-3.6V-8.2q0-3 .35-3.75.35-.8 1.4-.8 1.05 0 1.4.8.3.75.3 3.75V9.75zm14.85-28.7v7.8h8L65.7 11.8v8.15h20.2v-7.8h-8.75L85.9-10.3v-8.65H66.6zM-66-11.35q0-6.6-1.1-9.75-1.1-3.15-4.65-5.25-3.55-2.15-9-2.15-4 0-7.1 1.4-3.1 1.35-4.85 3.7-1.75 2.4-2.1 4.95-.35 2.55-.35 7.7V3.1q0 7 1.15 10.45Q-92.85 17-89.35 19q3.55 1.95 8.95 1.95 5.2 0 8.8-2.3 3.55-2.35 4.6-5.4 1-3.1 1-10.45V.95h-12.3V6.9q0 3.9-.45 4.95-.4 1.05-1.8 1.05-1.45 0-1.85-1.05-.4-1.05-.4-4.5V-14.7q0-3.6.4-4.65.4-1.1 1.95-1.1 1.35 0 1.75.9.4.9.4 4.5v8.2H-66v-4.5zm4.05-7.6v38.9h11.85V4.6q0-5.65.35-7.2.35-1.6 1.85-2.45 1.55-.9 4.8-.9v-13.7q-4.9.35-7.45 5.85l.45-5.15h-11.85zm36.6 0L-27.2 7.3l-3.9-26.25h-10.75l7.2 36.6q0 1-.8 1.25-.8.3-3.55.3v6.2h7.2q4.9 0 7.15-.75t3.5-2.35q1.25-1.55 1.8-4 .55-2.4 1.35-9.1l3.4-28.15h-10.75z"/><path id="m" stroke="#000" stroke-width="3" stroke-linejoin="round" stroke-linecap="round" fill="none" d="M30.9-33.9q-4.489 11.878-.95 22.35m3 7.075q5.783-3.644 5.9-13.425v-.4m1.3-21.1l-4.35.55m-28-9.3q3.396 1.187 3.75 3.05 4.806-5.068 16.5-2.65M25.2-4.15q.813 1.018 1.5 2.025 3.685-.745 6.25-2.35M-13.4-33.7q6.604-15.993 21.55-3.25 13.014-11.2 22.75 3.05M8.15-36.95q-3.565 2.937-4.35 22m15.35 8.1q-2.556-11.816.95-21.75m33.7 3.95q-6.381 3.313-7.5 12l-.025.275M41.3.6Q44.525.299 47.75-3l.75-3.8m-2.2-5.85q.72-6.878-.725-11.5m-96.9-.25q-5.707-15.336 10.725-15-.411-9.827 6.95-15.85 11.025-4.482 20.6 1 15.943-11.807 31.1 2.15 15.906-2.973 22.15 12.45 13.74.86 14.1 14.5Q65.616-6.018 48.35 1q2.187 13.84-14.65 18.4-5.05 4.505-10.1.4-.085.082-.175.175-15.153 14.393-31 3.25-.165-.11-.325-.225-17.442 4.44-28.55-12.3l-.3.075q-.12.027-.25.05Q-50.597 13.85-51.3 2l-.15-.175Q-60.383-8.9-51.3-24.35q-.01-.028-.025-.05l6.775-6.65m90.125 6.9q-2.91-9.289-14.525-9.55M15.9 13.85q2.45-3.8 6.25-2.45m-2.85.55q-.381 4.013 4.125 8.025M25-4.55Q9.274-10.312 1.15.025-.322 1.923-1.55 4.35l.025.15q.09.145.175.3 3.145 5.27 2.1 10.55m29.35-3.6q-5.462-6.932-3.4-13.875M-20.1-43.6q7.528-.1 11.35-6.05l-3.95-4.15m-25.4 19.3l4.15-.95q1.82-2.394.4-5.3M-13-23.375q.946-4.752-.4-10.325-17.396-10.98-18.9 9.9-.151-.003-.3 0l.05 5.65.25 1.85h-.05m.575 5.6q7.003 6.026 7.5 12.05 11.67-3.55 22.75 3.15M-32.35-16.3l-4.05-.75m20.1.95q2.52-3.358 3.3-7.275m4.625 4.825q.183-8.199 4.575-15.75M1.15.025Q-4.455-2.663-8.2-14.2q-.238-2.195-.175-4.35m-14.575-11.2q-3.498 6.052-2.25 14.4 1.21 5.76 9.25 9.7M-32.6-23.8q-13.362-.116-7.95 12.65 5.344 2.368 1.5 11.5m25.75 13.3q.506 4.787 5.725 9.575m-29.175-12.45q4.213-1.563 4.35-5.075m8.125-4.35q.232 2.855-.925 5.7m-26.25-5.225q.894-5.541 5.35-6.375"/><path id="p" stroke="#000" stroke-width="30" stroke-linejoin="round" stroke-linecap="round" fill="none" d="M189.1 28.55q0 116.5-82.35 198.85T-92.1 309.75q-116.5 0-198.85-82.35T-373.3 28.55q0-116.5 82.35-198.85t198.85-82.35q116.5 0 198.85 82.35T189.1 28.55z"/><path id="t" stroke="#000" stroke-width="30" stroke-linejoin="round" stroke-linecap="round" fill="none" d="M189.1 28.55q0 116.5-82.35 198.85T-92.1 309.75q-116.5 0-198.85-82.35T-373.3 28.55q0-116.5 82.35-198.85t198.85-82.35q116.5 0 198.85 82.35T189.1 28.55z"/><path id="w" stroke="#000" stroke-width="30" stroke-linejoin="round" stroke-linecap="round" fill="none" d="M189.1 28.55q0 116.5-82.35 198.85T-92.1 309.75q-116.5 0-198.85-82.35T-373.3 28.55q0-116.5 82.35-198.85t198.85-82.35q116.5 0 198.85 82.35T189.1 28.55z"/><g id="b"><path d="M105.85 1150.15q-11.292.268-22.8.35 9.53.927 19 1.75 305.287 27.217 610.55-2.8 9.9 0 16.9-7.05 7-7.05 7-17l-.65-326.8q-115.01 339.494-630 351.55z"/><path fill="#333" d="M54.95 1142.4q7.05 7.05 16.95 7.05 5.582.549 11.15 1.05 11.508-.082 22.8-.35-112.303-246.5 573.05-345.4-302.317 37.65-630.35-11l-.6 331.65q0 9.95 7 17m16-14.7q3.4 1.05 1.2.6-.65-.15-1.2-.6M31.75 124.35q0-10.35 7.35-17.7 7.05-7.05 16.9-7.3-10.35 0-17.65 7.3Q31 114 31 124.35v67.05h.75v-67.05z"/><path fill="#D8D8D8" d="M72.15 1128.3q2.2.45-1.2-.6.55.45 1.2.6z"/><path fill="#F3C962" d="M33.3 887.55H32v254.55q0 10.35 7.3 17.65 5.843 5.843 13.55 7.05 2.028.3 4.15.3 8.042.78 16.1 1.5 319.482 29.42 654.05-1.5 10.35 0 17.65-7.35 7.35-7.3 7.35-17.65V887.55h-.3l.3-.15v-97.95l-16.3 7.45v1.7l.65 326.8q0 9.95-7 17-7 7.05-16.9 7.05-305.263 30.017-610.55 2.8-9.47-.823-19-1.75-5.568-.501-11.15-1.05-9.9 0-16.95-7.05-7-7.05-7-17l.6-331.65-16.55-4.3v97.95l1.3.15m6.2 229.8q-2.15.4-4.5-.25 2.25.1 4.5.25z"/><path fill="#CCC" d="M35 1117.1q2.35.65 4.5.25-2.25-.15-4.5-.25z"/><path fill="#F3DA9D" d="M729.5 124.45q7 7.1 7 17.05l-.65 655.4 16.3-7.45V124.3q0-10.35-7.35-17.7-7.3-7.3-17.65-7.3l-616.4.05H56q-9.85.25-16.9 7.3-7.35 7.35-7.35 17.7v67.05H32v598.05l16.55 4.3-.65-652.2q0-9.95 7-17.05 7-7.05 16.9-7.05l640.8-.05q9.9 0 16.9 7.05z"/><path fill="#202020" d="M736.5 141.5q0-9.95-7-17.05-7-7.05-16.9-7.05l-640.8.05q-9.9 0-16.9 7.05-7 7.1-7 17.05l.65 652.2q328.033 48.65 630.35 11-685.353 98.9-573.05 345.4 514.99-12.056 630-351.55v-1.7l.65-655.4z"/><path fill="#FFF" d="M108 99.3v.05h2.75L108 99.3z"/></g><g id="l"><path fill="url(#a)" d="M54.3-25.15q-.36-13.64-14.1-14.5-6.244-15.423-22.15-12.45-15.157-13.957-31.1-2.15-9.575-5.482-20.6-1-7.361 6.023-6.95 15.85-16.432-.336-10.75 15l6.8-6.65-6.8 6.65q.04.022.05.05-9.083 15.45-.15 26.15.894-5.516 5.35-6.35-4.456.834-5.35 6.35.071.108.15.2.703 11.85 14.3 8.8.13.002.25-.05 4.213-1.538 4.35-5.05-.137 3.512-4.35 5.05.148-.013.3-.05Q-25.342 27.44-7.9 23q.16.115.3.2-5.194-4.762-5.7-9.55.506 4.787 5.7 9.55 15.872 11.168 31-3.25-4.481-3.987-4.1-8-.381 4.013 4.1 8 .115-.068.2-.15 5.05 4.105 10.1-.4Q50.537 14.84 48.35 1q17.266-7.018 5.95-26.15M30.9-33.9q.08.097.15.2 11.615.261 14.5 9.55 1.47 4.622.75 11.5 1.119-8.687 7.5-12-6.381 3.313-7.5 12l-.05.25.05-.25q.72-6.878-.75-11.5l-6.7 6.25q-.117 9.781-5.9 13.4-2.565 1.63-6.25 2.35-2.062 6.968 3.4 13.9-5.462-6.932-3.4-13.9-.687-.982-1.5-2 .813 1.018 1.5 2 3.685-.72 6.25-2.35l-3-7.05q-3.539-10.472.95-22.35-9.736-14.25-22.75-3.05-3.565 2.937-4.35 22 .785-19.063 4.35-22Q-6.796-49.693-13.4-33.7q1.346 5.573.4 10.3.256 7.332 4.6 4.85.208-8.199 4.6-15.75-4.392 7.551-4.6 15.75-.038 2.155.2 4.35Q-4.455-2.663 1.15 0 9.274-10.312 25-4.55 9.274-10.312 1.15 0q-1.472 1.923-2.7 4.35v.15q.114.145.2.3 3.145 5.27 2.1 10.55 1.045-5.28-2.1-10.55-.086-.155-.2-.3-11.054-6.7-22.75-3.15.257 2.855-.9 5.7 1.157-2.845.9-5.7-.472-6.024-7.5-12.05.1-.125 0-.25l-.55-5.35-4.05-.75 4.05.75h.05l-.25-1.85-.05-5.65q-13.362-.116-7.95 12.65 5.344 2.368 1.5 11.5 3.844-9.132-1.5-11.5-5.412-12.766 7.95-12.65.149-.003.3 0 1.504-20.88 18.9-9.9 6.604-15.993 21.55-3.25 13.014-11.2 22.75 3.05m9.25-5.5l-4.35.55 4.35-.55M7.8-48.15q3.396 1.187 3.75 3.05 4.806-5.068 16.5-2.65-11.694-2.418-16.5 2.65-.354-1.863-3.75-3.05m11.35 41.3q-2.556-11.816.95-21.75-3.506 9.934-.95 21.75M47.75-3l.75-3.8-.75 3.8Q44.525.299 41.3.6 44.525.299 47.75-3M15.9 13.85q2.45-3.8 6.25-2.45-3.8-1.35-6.25 2.45m-24.65-63.5l-3.95-4.15 3.95 4.15q-3.822 5.95-11.35 6.05 7.528-.1 11.35-6.05M-38.1-34.5l4.15-.95q1.82-2.394.4-5.3 1.42 2.906-.4 5.3l-4.15.95z"/><path fill="#FB62BE" d="M-32.3-23.8q-.151-.003-.3 0l.05 5.65.25 1.85h-.05l.55 5.35q.1.125 0 .25 7.028 6.026 7.5 12.05Q-12.604-2.2-1.55 4.5v-.15Q-.322 1.923 1.15 0-4.455-2.663-8.2-14.2q-.238-2.195-.2-4.35-4.344 2.482-4.6-4.85-.78 3.942-3.3 7.3 2.52-3.358 3.3-7.3.946-4.727-.4-10.3-17.396-10.98-18.9 9.9m7.1 8.45q1.21 5.76 9.25 9.7-8.04-3.94-9.25-9.7-1.248-8.348 2.25-14.4-3.498 6.052-2.25 14.4M31.05-33.7q-.07-.103-.15-.2-4.489 11.878-.95 22.35l3 7.05q5.783-3.619 5.9-13.4v-.4.4l6.7-6.25q-2.885-9.289-14.5-9.55z"/></g><g id="n"><path fill="#FED6EE" d="M-6.8 8.15q1.25 1.05 1.5-.35.25-1.35-1.6-2.75-1.85-1.35-4.7-1.9-2.9-.6-5.1 0-2.3.55-2.55 1.95t3.25.1q3.45-1.3 5.65.25 2.3 1.6 3.55 2.7M11.65-2.9Q7.7-2.1 5.2-.35 2.65 1.4 3 3.05q.35 1.65 4.1-1.5Q10.8-1.6 14.4-1q3.7.55 5.8 1.1 2.1.55 1.75-1.1-.35-1.65-3.4-2.2-3-.55-6.9.3m-8.1-31.75q-.3-2.15-2.4-3.75Q-.8-39.9-3.4-40q-2.65-.1-4.25 1.4Q-9.3-37.15-9-34.95q.3 2.2 2.7-.75 2.4-2.9 4.8-1.15Q1-35 2.4-33.7q1.45 1.25 1.15-.95z"/><path fill="#FDBDE3" d="M-15.9-30q-.3-2.15-2.4-3.75-1.95-1.5-4.55-1.6-2.65-.1-4.25 1.4-1.65 1.45-1.35 3.65.3 2.2 2.7-.75 2.4-2.9 4.8-1.15 2.5 1.85 3.9 3.15 1.45 1.25 1.15-.95z"/><path fill="#FA1FA3" d="M-52.9-14.15q-.5 3.55.7 6.05 1.15 2.5 3.3 2.4 2.15-.15-.35-3.85-2.4-3.7-.4-6.75 2.05-3.1 3.45-4.85 1.45-1.8-.7-1.7-2.1.15-3.85 2.75-1.65 2.45-2.15 5.95m95.05 25.6q2.1-2.4 2.25-4.95.2-2.5-1.65-3.55-1.9-1-1.55 3.1.3 4.05-2.85 5.25-3.15 1.3-5.15 1.85-2.1.55-.2 1.65 1.8 1 4.5 0 2.6-.95 4.65-3.35z"/><path fill="#FDCEEF" d="M-26.65-51.6q3.75.1 6 .4 2.3.25.9-1.55-1.4-1.7-4.5-1.8-3-.15-6.05 1.3-3.15 1.5-4.35 3.85-1.3 2.3.1 4.1 1.4 1.75 2.8-2.35 1.5-4.05 5.1-3.95M3.1-54.25q3.55 1.25 5.6 2.2 2.1.9 1.25-.9-.9-1.75-3.8-2.8Q3.35-56.8.1-56.7q-3.4.15-5.1 1.55-1.85 1.3-.95 3.1.85 1.8 3.25-.85 2.45-2.55 5.8-1.35z"/><path fill="#F90698" d="M10.75 20.1q-4.55 2.65-8.6.85-4.1-1.85-6.4-3.05-2.4-1.35-2.1.8.3 2.05 3.7 3.6Q.6 23.8 5.1 24.05q4.55.25 7.7-1.1 3.15-1.3 2.9-3.45-.3-2.1-4.95.6z"/><path fill="#FEE7F5" d="M25.7-32.55q1.9 1.25 1.5-.95-.4-2.15-3.15-3.75-2.6-1.5-6-1.6-3.5-.1-5.6 1.4-2.2 1.45-1.8 3.65.4 2.2 3.55-.75 3.2-2.9 6.35-1.15 3.3 1.85 5.15 3.15z"/><path fill="#FDB5E0" d="M38.4-28.35q-1.55-1.9-4.1-2.5-1.55-.35-2.9-.1l-.75 3.7q2.9-2.3 4.85-.15 2.1 2.3 3.15 3.9 1.2 1.5 1.35-.7.15-2.15-1.6-4.15z"/></g><g id="o"><path fill="#F3BA2F" d="M106.75 227.4q82.35-82.35 82.35-198.85T106.75-170.3Q24.4-252.65-92.1-252.65t-198.85 82.35Q-373.3-87.95-373.3 28.55t82.35 198.85q82.35 82.35 198.85 82.35t198.85-82.35m-23.2-395.95q4.887 4.54 9.55 9.3.097.124.2.2-.204-.137-.4-.3-4.805-4.753-9.35-9.2m-19.85 2.1q52.181 34.098 83.85 98.6 31.682 64.498 4.55 168.7-27.096 104.203-121 153.75-93.855 49.595-185.9 22.35-92.043-27.244-161.25-115.85-10.4-16.35-17.55-34-25.981-80.37 17.55-190.75 43.536-110.342 137.4-140.3 93.856-29.958 142-13.25 48.206 16.705 100.35 50.75z"/><path fill="#8B9ACE" d="M-316.05 161.1q-4-6.65-7.7-13.6-5.4-10.15-9.85-20.4 7.15 17.65 17.55 34M93.1-159.25q-4.663-4.76-9.55-9.3 4.545 4.447 9.35 9.2.096.063.2.1z"/><path fill="#F3DCA4" d="M147.55-67.85q-31.669-64.502-83.85-98.6-52.144-34.045-100.35-50.75-48.144-16.708-142 13.25-93.864 29.958-137.4 140.3-43.531 110.38-17.55 190.75 4.45 10.25 9.85 20.4 3.7 6.95 7.7 13.6 69.207 88.606 161.25 115.85 92.045 27.245 185.9-22.35 93.904-49.547 121-153.75 27.132-104.202-4.55-168.7m-35.5-6.2q53.354 90.95 11 182.2Q80.693 199.393-6.5 239.8q-87.145 40.463-175.15 6.2-87.952-34.212-122.75-117.3-34.753-83.049 11.15-176.5 45.958-93.392 119.65-136.25 73.69-42.862 153-11.9 79.353 31.004 132.65 121.9z"/><path d="M123.05 108.15q42.354-91.25-11-182.2-53.297-90.896-132.65-121.9-79.31-30.963-153 11.9-73.692 42.858-119.65 136.25-45.903 93.451-11.15 176.5 34.798 83.088 122.75 117.3 88.005 34.263 175.15-6.2 87.193-40.407 129.55-131.65z"/><path fill="#3956BD" d="M93.1-159.25q-.104-.037-.2-.1.196.162.4.3-.103-.076-.2-.2z"/></g><g id="s"><path fill="#F3BA2F" d="M106.75 227.4q82.35-82.35 82.35-198.85T106.75-170.3Q24.4-252.65-92.1-252.65t-198.85 82.35Q-373.3-87.95-373.3 28.55t82.35 198.85q82.35 82.35 198.85 82.35t198.85-82.35M93.3-159.05q-.204-.137-.4-.3-4.805-4.753-9.35-9.2 4.887 4.54 9.55 9.3.097.124.2.2m-29.6-7.4q52.181 34.098 83.85 98.6 31.682 64.498 4.55 168.7-27.096 104.203-121 153.75-93.855 49.595-185.9 22.35-92.043-27.244-161.25-115.85-10.4-16.35-17.55-34-25.981-80.37 17.55-190.75 43.536-110.342 137.4-140.3 93.856-29.958 142-13.25 48.206 16.705 100.35 50.75z"/><path fill="#8B9ACE" d="M-316.05 161.1q-4-6.65-7.7-13.6-5.4-10.15-9.85-20.4 7.15 17.65 17.55 34M92.9-159.35q.096.063.2.1-4.663-4.76-9.55-9.3 4.545 4.447 9.35 9.2z"/><path fill="#FFE97E" d="M147.55-67.85q-31.669-64.502-83.85-98.6-52.144-34.045-100.35-50.75-48.144-16.708-142 13.25-93.864 29.958-137.4 140.3-43.531 110.38-17.55 190.75 4.45 10.25 9.85 20.4 3.7 6.95 7.7 13.6 69.207 88.606 161.25 115.85 92.045 27.245 185.9-22.35 93.904-49.547 121-153.75 27.132-104.202-4.55-168.7m-35.5-6.2q53.354 90.95 11 182.2Q80.693 199.393-6.5 239.8q-87.145 40.463-175.15 6.2-87.952-34.212-122.75-117.3-34.753-83.049 11.15-176.5 45.958-93.392 119.65-136.25 73.69-42.862 153-11.9 79.353 31.004 132.65 121.9z"/><path fill="#0E0E0E" d="M123.05 108.15q42.354-91.25-11-182.2-53.297-90.896-132.65-121.9-79.31-30.963-153 11.9-73.692 42.858-119.65 136.25-45.903 93.451-11.15 176.5 34.798 83.088 122.75 117.3 88.005 34.263 175.15-6.2 87.193-40.407 129.55-131.65z"/><path fill="#3956BD" d="M92.9-159.35q.196.162.4.3-.103-.076-.2-.2-.104-.037-.2-.1z"/></g><g id="v"><path fill="#94FFE0" d="M-92.1-252.65q-116.5 0-198.85 82.35T-373.3 28.55q0 116.5 82.35 198.85t198.85 82.35q116.5 0 198.85-82.35T189.1 28.55q0-116.5-82.35-198.85T-92.1-252.65M-19-216.4q3 .9 5.95 1.85 95.55 31.6 143.2 121.3 49 92.4 18.3 192.45-30.654 100-113.35 149.65-82.638 49.7-179.05 28.25-96.367-21.401-164.8-120.4-3.9-6.4-7.45-13.15-5.25-9.8-9.55-19.7-36.3-83.4-8.85-172.8 30.65-100 123.1-149.05 87.3-46.3 181.25-21.6 2.85.7 5.65 1.5 2.8.8 5.6 1.7m-3.25-10.05q6.05 1.65 11.95 3.7-3.05-1-6.15-1.95-2.9-.9-5.8-1.75m-301.5 373.95q3.7 6.95 7.7 13.6-10.4-16.35-17.55-34 4.45 10.25 9.85 20.4z"/><path fill="#8B9ACE" d="M-316.05 161.1q-4-6.65-7.7-13.6-5.4-10.15-9.85-20.4 7.15 17.65 17.55 34M-10.3-222.75q-5.9-2.05-11.95-3.7 2.9.85 5.8 1.75 3.1.95 6.15 1.95z"/><path fill="#1FD8A3" d="M-13.05-214.55Q-16-215.5-19-216.4q-2.8-.9-5.6-1.7-2.8-.8-5.65-1.5-93.95-24.7-181.25 21.6-92.45 49.05-123.1 149.05-27.45 89.4 8.85 172.8 4.3 9.9 9.55 19.7 3.55 6.75 7.45 13.15 68.433 98.999 164.8 120.4 96.412 21.45 179.05-28.25Q117.796 199.2 148.45 99.2q30.7-100.05-18.3-192.45-47.65-89.7-143.2-121.3M-302.5-46.35q33.4-91.45 107.15-140.5 73.7-49.1 160.8-12.55Q52.5-162.9 106-72.85q53.45 90.1 19.45 178.35Q91.449 193.75 5.9 234.15q-85.497 40.45-168.75 9.4-83.253-31-128.15-114.75-44.899-83.75-11.5-175.15z"/><path fill="#00B07E" d="M-195.35-186.85Q-269.1-137.8-302.5-46.35q-33.399 91.4 11.5 175.15 44.897 83.75 128.15 114.75 83.253 31.05 168.75-9.4 85.549-40.4 119.55-128.65 34-88.25-19.45-178.35Q52.5-162.9-34.55-199.4q-87.1-36.55-160.8 12.55z"/></g><radialGradient id="a" gradientUnits="userSpaceOnUse" cx="0" cy="0" r="85.9" fx="0" fy="0" gradientTransform="translate(8.85 18.65)" spreadMethod="pad"><stop offset="0%" stop-color="#FA38AD"/><stop offset="100%" stop-color="#FDACDD"/></radialGradient></defs><g><use xlink:href="#b"/><use xlink:href="#c"/><use xlink:href="#d"/><use xlink:href="#e"/></g><g transform="translate(405 280.95) scale(1.8571)"><use xlink:href="#f"/><use xlink:href="#g"/></g><g transform="translate(405 280.95) scale(1.8571)"><use xlink:href="#h"/><use xlink:href="#i"/></g><use xlink:href="#j" transform="translate(405 280.95) scale(1.8571)"/><g transform="translate(342.1 1135.35)"><clipPath id="k"><path fill="#FFF" d="M-2-2H8.2v48.7H-2z"/></clipPath></g><g transform="rotate(-.11 162820.08 -515053.128) scale(1.55408)"><use xlink:href="#l"/><use xlink:href="#m"/></g><use xlink:href="#n" transform="rotate(-.11 162820.08 -515053.128) scale(1.55408)"/><g transform="matrix(-1.55408 -.00119 -.00119 1.55408 398.25 123.75)"><use xlink:href="#l"/><use xlink:href="#m"/></g><use xlink:href="#n" transform="matrix(-1.55408 -.00119 -.00119 1.55408 398.25 123.75)"/><g transform="translate(488.4 653.3) scale(1.03485)"><use xlink:href="#o"/><use xlink:href="#p"/></g><use xlink:href="#q" transform="translate(488.4 653.3) scale(1.03485)"/><use xlink:href="#r" transform="translate(488.4 653.3) scale(1.03485)"/><g><g transform="matrix(.24838 0 0 .24838 101.2 1133.1)"><use xlink:href="#s"/><use xlink:href="#t"/></g><use xlink:href="#u" transform="matrix(.4346 0 0 .4346 80.237 1139.496)"/></g><g><g transform="matrix(.24838 0 0 .24838 720.95 1133.1)"><use xlink:href="#v"/><use xlink:href="#w"/></g></g><g><g transform="matrix(.24838 0 0 .24838 722.2 1133.35)"><use xlink:href="#s"/><use xlink:href="#t"/></g><use xlink:href="#u" transform="matrix(.4346 0 0 .4346 701.237 1139.746)"/></g><g><use xlink:href="#u" transform="matrix(.5521 0 0 .5521 393.25 577.1)"/></g></svg>