<svg xmlns="http://www.w3.org/2000/svg" xmlns:xlink="http://www.w3.org/1999/xlink" preserveAspectRatio="none" width="563" height="563"><defs><path fill="#FCFCFB" d="M129.1-130.95q-19-26.95-46.7-65.55-27.75-38.65-48.95-47.25-21.2-8.6-37.95-11.9-16.8-3.35-37.35 10-6.8 4.4-15.1 10.95-4.4 3.5-10.4 8.35-5.6 4.3-36.95 37.55-36.7 38.95-36.95 39.2-5.85 5.85-17.15 33.3-5.6 13.7-10.1 26.25-8.8 21.8 2.15 64.1 3.9 15.05 9.55 29.6 4.75 12.2 7.65 16.75 4.05 6.3 7.1 4.45.95-.55 1.7-1.85l.55-1.2-.15 2.8q-1.1 3.45-5.6 6.55-6.9 4.8-10.05 11.1-4.3 8.65-1.4 19.75 1.95 7.45 3.25 10.65 2 4.7 5.2 7.65 6.65 6.15 26.7 9.65 17.95 3.15 43.75-2.75 8.1-1.85 15.95-4.4l6.3-2.15-2.9 2.95q-4.35 3.4-11.2 6.35-6.9 2.9-31.1 15.1l8.2 5.25-.3 7.65 15.75-8.6-7.15 15.05q19.8-3.25 22.95 10.05l9.3-17.2v19.35l18.65 6.45 9.35-21.5 1.45 21.5q14.35-11.2 30.65-.15l8.05-21.35 2.9 20.8 22.95-4.3 2.15-21.55L51 135.9l15.1-7.2-2.9-18.65 11.5 12.9 10.05-8.6-6.5-15.75 12.2 9.3 11.2-7q-2.4-10.55-24.1-23.1 4.65 1.6 12.2 3.25 15.05 3.2 29.4 3.2 16.7 0 24.6-10.4 7.4-9.8 6.25-27.65-.9-14.35-7.35-22.25-2.05-2.45-4.35-3.95l-1.95-1.05 16.5-40.15q5.45-13.2 1.55-42.8-1.5-11-6.55-34.7-1.75-8.2-18.75-32.25z" id="c"/><path d="M12.25 32.6l-5.8 2.7q-6.6 3.55-10.65 8.05-4.05 4.5-7.45 18.85-1.7 7.2-2.6 13.45 0 4.15 3.15 3.55.35-.05 6.9-2.85 1.95-.85 6.45-8.15 4.2-6.85 8.6-7.65 4.65-.85 6.8 3.3.65 1.25 1.85 4.05 1.25 2.6 2.8 4.15 3.15 3.15 7.3 5.1l3.5 1.35q-1.1-3.2-2.35-7.6-2.5-8.8-3.4-14.65-.85-5.85-8.75-17.5l-6.35-6.15M53.8-86.55q-4.85.2-10.85 5.2Q36.9-76.4 32.7-68.1q-11.75 23.15-6.2 45Q31.85-2.05 38.3 6.4q3.2 4.15 13.9 11.4-7.2 1.8-19.95-7.2l2.45 3.15q3.25 3.75 7.05 6.9 12.2 10.05 26.75 10.8t26.8-1.35q12.25-2.1 20.8-15.2-9.6 10.2-20.05 4.3 13.35-4.2 15.1-25.8 4.4-.35 7.3 5.15-4.25-12.5-5.75-24.8t-9.3-29.15q-7.8-16.85-21.45-23.1-13.65-6.3-18.45-7.3-4.85-1-9.7-.75M-110.4-42q-5.85 7.65-12.45 27.55-3.05 9.25-3.9 18.4 3.2-7.2 9.9-7.95-4.1 26.55 17.95 31.55l-18.65 4.3q8.15.9 18.65 2.25 10.5 1.35 30.25 1.35T-36.7 25.4q3.8-3.15 7.05-6.9l2.45-3.15-12.75 3.6q3.5-3.65 6.7-7.8 6.45-8.45 11.8-29.5 5.55-21.85-6.2-45-4.2-8.3-9.8-15.1-4.75-5.7-7.65-7.3-4.5-2.45-11.05-.35-4.8 1.55-16.95 8.2-16.85 9.2-37.3 35.9z" id="d"/><path fill="#F3BA2F" d="M-56.25-.1l-23.5-23.5-23.3 23.3 23.5 23.5 23.3-23.3M.15 23.1L23.5-.25-.2-23.95-23.55-.6.15 23.1M63.1 39.35l-22.8-22.8L.4 56.45-39.05 17l-23 23L.2 102.25l62.9-62.9M56.25.6l22.8 22.8L102.35.1l-22.8-22.8L56.25.6M40.1-16.85l23-23L.85-102.1l-62.9 62.9 21.9 21.9 39.9-39.9L40.1-16.85z" id="e"/><path id="b" stroke="#000" stroke-width="30" stroke-linejoin="round" stroke-linecap="round" fill="none" d="M278.1-54.4q0 116.5-82.35 198.85T-3.1 226.8q-116.5 0-198.85-82.35T-284.3-54.4q0-116.5 82.35-198.85T-3.1-335.6q116.5 0 198.85 82.35T278.1-54.4z"/><g id="a"><path fill="#F3BA2F" d="M278.1-54.4q0-116.5-82.35-198.85T-3.1-335.6q-116.5 0-198.85 82.35T-284.3-54.4q0 116.5 82.35 198.85T-3.1 226.8q116.5 0 198.85-82.35T278.1-54.4m-95.8-187.55q-.2-.2-.4-.35-4.8-4.75-9.35-9.15 4.894 4.494 9.55 9.3.1.05.2.2m-129.9-58.2q48.15 16.7 100.35 50.8 52.15 34.05 83.8 98.55 31.7 64.5 4.6 168.7-27.15 104.2-121 153.8Q26.25 221.25-65.8 194q-92.05-27.25-161.25-115.85-10.4-16.35-17.55-34-26-80.35 17.55-190.7 43.55-110.4 137.4-140.35Q4.2-316.85 52.4-300.15z"/><path fill="#8B9ACE" d="M-227.05 78.15q-4-6.65-7.7-13.6-5.4-10.15-9.85-20.4 7.15 17.65 17.55 34M181.9-242.3q.094.047.2.15-4.656-4.806-9.55-9.3 4.55 4.4 9.35 9.15z"/><path fill="#F3DCA4" d="M152.75-249.35q-52.2-34.1-100.35-50.8-48.2-16.7-142.05 13.25-93.85 29.95-137.4 140.35Q-270.6-36.2-244.6 44.15q4.45 10.25 9.85 20.4 3.7 6.95 7.7 13.6 69.2 88.6 161.25 115.85t185.95-22.3q93.85-49.6 121-153.8 27.1-104.2-4.6-168.7-31.65-64.5-83.8-98.55m-84.3-29.5q79.3 30.95 132.65 121.9 53.3 90.9 10.95 182.15-42.35 91.25-129.5 131.7-87.2 40.4-175.15 6.2-88-34.25-122.75-117.3-34.8-83.1 11.15-176.5 45.9-93.45 119.6-136.3 73.7-42.85 153.05-11.85z"/><path d="M201.1-156.95q-53.35-90.95-132.65-121.9-79.35-31-153.05 11.85-73.7 42.85-119.6 136.3-45.95 93.4-11.15 176.5 34.75 83.05 122.75 117.3 87.95 34.2 175.15-6.2 87.15-40.45 129.5-131.7 42.35-91.25-10.95-182.15z"/><path fill="#3956BD" d="M181.9-242.3q.2.15.4.35-.1-.15-.2-.2-.106-.103-.2-.15z"/></g></defs><g transform="translate(282.75 331.5) scale(.91461)"><use xlink:href="#a"/><use xlink:href="#b"/></g><use xlink:href="#c" transform="translate(282.75 331.5) scale(.91461)"/><use xlink:href="#d" transform="translate(282.75 331.5) scale(.91461)"/><use xlink:href="#e" transform="translate(279.366 186.58) scale(.50495)"/></svg>