
<svg xmlns="http://www.w3.org/2000/svg" version="1.1" xmlns:xlink="http://www.w3.org/1999/xlink" preserveAspectRatio="none" x="0px" y="0px" width="560px" height="544px" viewBox="0 0 560 544">
<defs>
<radialGradient id="Gradient_1" gradientUnits="userSpaceOnUse" cx="0" cy="0" r="11.6375" fx="0" fy="0" gradientTransform="matrix( 1.0000000000000002, 0, 0, 1.0000000000000002, 11.45,10.4) " spreadMethod="pad">
<stop  offset="0%" stop-color="#F8F8F5"/>

<stop  offset="100%" stop-color="#D7D6CA"/>
</radialGradient>

<radialGradient id="Gradient_2" gradientUnits="userSpaceOnUse" cx="0" cy="0" r="10.600000000000001" fx="0" fy="0" gradientTransform="matrix( 1, 0, 0, 1, 11.75,10.35) " spreadMethod="pad">
<stop  offset="0%" stop-color="#FFC217"/>

<stop  offset="100%" stop-color="#E8910F"/>
</radialGradient>

<radialGradient id="Gradient_3" gradientUnits="userSpaceOnUse" cx="0" cy="0" r="23.900000000000002" fx="0" fy="0" gradientTransform="matrix( 0.9999999999999999, 0, 0, 0.9999999999999999, 8.7,4.4) " spreadMethod="pad">
<stop  offset="0%" stop-color="#FFC217"/>

<stop  offset="100%" stop-color="#C77C0E"/>
</radialGradient>

<radialGradient id="Gradient_4" gradientUnits="userSpaceOnUse" cx="0" cy="0" r="26.650000000000006" fx="0" fy="0" gradientTransform="matrix( 0.9999999999999999, 0, 0, 0.9999999999999999, 15.5,3.45) " spreadMethod="pad">
<stop  offset="0%" stop-color="#FFC217"/>

<stop  offset="100%" stop-color="#E8910F"/>
</radialGradient>

<radialGradient id="Gradient_5" gradientUnits="userSpaceOnUse" cx="0" cy="0" r="20.900000000000002" fx="0" fy="0" gradientTransform="matrix( 1, 0, 0, 1, 22.3,9.3) " spreadMethod="pad">
<stop  offset="0%" stop-color="#FFC217"/>

<stop  offset="100%" stop-color="#C77C0E"/>
</radialGradient>

<filter id="Filter_1" x="-20%" y="-20%" width="140%" height="140%" color-interpolation-filters="sRGB">
<feFlood flood-color="#FEB800" flood-opacity="1" in="SourceGraphic" result="result1"/>

<feGaussianBlur in="SourceGraphic" stdDeviation="5,5" result="result2"/>

<feComposite in2="result2" in="result1" operator="in" result="result3"/>

<feComposite in2="result3" in="SourceGraphic" operator="over" result="result4"/>
</filter>

<filter id="Filter_2" x="-20%" y="-20%" width="140%" height="140%" color-interpolation-filters="sRGB">
<feFlood flood-color="#FEEFC7" flood-opacity="1" in="SourceGraphic" result="result1"/>

<feGaussianBlur in="SourceGraphic" stdDeviation="2.3333333333333335,2.3333333333333335" result="result2"/>

<feComposite in2="result2" in="result1" operator="in" result="result3"/>

<feComposite in2="result3" in="SourceGraphic" operator="over" result="result4"/>
</filter>

<g id="Symbol_1_0_Layer0_0_FILL">
<path fill="url(#Gradient_1)" stroke="none" d="
M 1.05 23.7
Q 1 23.75 1 23.8
L 1.05 23.8 1.05 23.7 Z"/>

<path fill="#B8B4A5" stroke="none" d="
M 1.1 23.7
Q 1.15 23.65 1.15 23.6
L 1.1 23.6 1.1 23.7
M 1.1 23.7
L 1.05 23.7 1.05 23.8
Q 1.1 23.75 1.1 23.7 Z"/>

<path fill="#F7B214" stroke="none" d="
M 1.1 23.7
Q 1.1 23.75 1.05 23.8
L 1 23.8
Q 0.9 23.9 0.8 24.05 0.35 24.6 0.1 25.1 -0.05 25.45 0.1 25.95 0.2 26.4 0.5 27.05 0.8 27.6 1.3 28.3 2.15 29.4 3.5 30.35
L 4.65 29.3
Q 5.7 28 6.55 28 7.45 28 8.45 29.05 9 29.6 9.35 30.1 12 36.9 15.6 30.7 19.8 36.7 21.85 30.1 22.2 29.6 23.6 30.25 24.95 30.85 25.45 30.05 25.9 29.25 26.35 28.75 26.55 27.2 26.65 25.7
L 25.75 24.85
Q 24.45 23.75 24.35 24.9 24.2 26.05 22.8 25.65 21.45 25.3 21.2 28.05 19.8 29.4 18.6 29.6 18.5 30.15 18.45 30.75 18.5 30.15 18.6 29.6 17.05 29.75 15.85 28.1 13.35 31.15 10.65 28.2 10.75 28.9 10.85 29.6 10.75 28.9 10.65 28.2 10.5 28 10.3 27.8 9.15 25.2 8.25 25.5 7.35 25.8 6.7 25.05 6 24.35 4.8 24.85
L 3.8 25.8
Q 3.85 26.8 3.95 27.8 3.85 26.8 3.8 25.8
L 3.65 25.95
Q 0.9 25.85 1.35 24.75 1.8 23.65 1.15 23.6 1.15 23.65 1.1 23.7
M 29.5 23.05
Q 29.4 22.95 29.25 22.9 28.95 23.4 29.05 24.55 29.15 25.7 26.9 25.95
L 26.65 25.7
Q 26.55 27.2 26.35 28.75 26.65 28.95 26.95 29.2
L 27.6 30
Q 29.05 29.4 30.45 27.35 31.85 25.2 31.4 24.6 30.85 24 30.3 23.65 29.75 23.3 29.5 23.05 Z"/>

<path fill="#765301" stroke="none" d="
M 4 17.85
Q 4.25 15.25 4.8 12.7 4.7 12.55 4.55 12.4 2.9 10.8 2.85 10.35 2.8 11.95 3.1 13.9 3.4 16 3.9 17.9 3.95 17.9 4 17.85
M 25.8 13.35
Q 26.25 15.55 26.5 17.8 26.65 17.9 26.85 18 27.4 16.05 27.7 13.9 27.8 13.3 27.85 12.75 27.7 12.35 27.5 12 26.4 12.65 25.8 13.35 Z"/>

<path fill="#A97601" stroke="none" d="
M 4.8 12.7
Q 4.25 15.25 4 17.85 4.25 17.65 4.5 17.6 6.05 14.3 4.8 12.7
M 26.5 17.8
Q 26.25 15.55 25.8 13.35 24 15.35 26.05 17.6 26.25 17.65 26.5 17.8 Z"/>

<path fill="url(#Gradient_2)" stroke="none" d="
M 4.3 4.8
Q 3.6 5.35 3.15 6.2 1.5 8.95 2.3 14.55 2.85 18.2 3.05 19.8 3.35 21.45 2 22.7 1.85 22.9 1.35 23.25 1.2 23.35 1.15 23.6 1.8 23.65 1.35 24.75 0.9 25.85 3.65 25.95
L 3.8 25.8
Q 3.55 21.8 4 17.85 3.95 17.9 3.9 17.9 3.4 16 3.1 13.9 2.8 11.95 2.85 10.35 2.9 10.8 4.55 12.4 4.7 12.55 4.8 12.7 5.95 7.35 8.3 2.2 6.15 3.3 4.3 4.8
M 26.9 4.8
Q 24.6 2.95 21.85 1.6 24.55 7.45 25.8 13.35 26.4 12.65 27.5 12 27.7 12.35 27.85 12.75 27.8 13.3 27.7 13.9 27.4 16.05 26.85 18 26.65 17.9 26.5 17.8 26.9 21.75 26.65 25.7
L 26.9 25.95
Q 29.15 25.7 29.05 24.55 28.95 23.4 29.25 22.9 29.4 22.95 29.5 23.05 29.35 22.85 29.2 22.7 27.85 21.45 28.2 20.9 28.4 18.2 28.9 14.55 29 13.9 29.05 13.3 29.7 7.05 26.9 4.8 Z"/>

<path fill="#FAB715" stroke="none" d="
M 13.6 4.15
Q 12.75 4.45 11.45 5 11.25 5.95 11.1 6.9 11.6 6.55 12.35 6.35 13.7 5.95 14.4 5.35 15.05 4.7 15.05 4.35 15.05 4.25 14.95 4.15 14.9 4.05 14.85 4.05 14.5 3.9 13.6 4.15
M 6.35 11.4
Q 6.5 11.6 6.75 11.05 6.95 10.45 7.65 10.15 8.3 9.85 8.85 9.75 9.35 9.6 9.2 9.4 9.05 9.2 8.3 9.1 7.5 9 6.85 9.3 6.15 9.6 6.2 10.4 6.2 11.2 6.35 11.4 Z"/>

<path fill="#FBDFB7" stroke="none" d="
M 11.45 5
Q 11.2 5.05 11 5.2 9.35 5.85 9 6.9 8.65 7.95 9 8.35 9.3 8.7 10.15 7.75 10.55 7.25 11.1 6.9 11.25 5.95 11.45 5 Z"/>

<path fill="url(#Gradient_3)" stroke="none" d="
M 11.45 5
Q 11.95 2.65 12.6 0.4 12 0.5 11.35 0.75 9.75 1.4 8.3 2.2 5.95 7.35 4.8 12.7 6.05 14.3 4.5 17.6 4.25 17.65 4 17.85 3.55 21.8 3.8 25.8
L 4.8 24.85
Q 6 24.35 6.7 25.05 7.35 25.8 8.25 25.5 9.15 25.2 10.3 27.8 10.5 28 10.65 28.2 9.2 17.25 11.1 6.9 10.55 7.25 10.15 7.75 9.3 8.7 9 8.35 8.65 7.95 9 6.9 9.35 5.85 11 5.2 11.2 5.05 11.45 5
M 6.75 11.05
Q 6.5 11.6 6.35 11.4 6.2 11.2 6.2 10.4 6.15 9.6 6.85 9.3 7.5 9 8.3 9.1 9.05 9.2 9.2 9.4 9.35 9.6 8.85 9.75 8.3 9.85 7.65 10.15 6.95 10.45 6.75 11.05 Z"/>

<path fill="url(#Gradient_4)" stroke="none" d="
M 16.95 0.1
Q 16.1 0 15.2 0 13.9 0.05 12.6 0.4 11.95 2.65 11.45 5 12.75 4.45 13.6 4.15 14.5 3.9 14.85 4.05 14.9 4.05 14.95 4.15 15.05 4.25 15.05 4.35 15.05 4.7 14.4 5.35 13.7 5.95 12.35 6.35 11.6 6.55 11.1 6.9 9.2 17.25 10.65 28.2 13.35 31.15 15.85 28.1 17.05 29.75 18.6 29.6 20.15 15 16.95 0.1 Z"/>

<path fill="url(#Gradient_5)" stroke="none" d="
M 26.5 17.8
Q 26.25 17.65 26.05 17.6 24 15.35 25.8 13.35 24.55 7.45 21.85 1.6 20.85 1.15 19.85 0.75 18.55 0.3 16.95 0.1 20.15 15 18.6 29.6 19.8 29.4 21.2 28.05 21.45 25.3 22.8 25.65 24.2 26.05 24.35 24.9 24.45 23.75 25.75 24.85
L 26.65 25.7
Q 26.9 21.75 26.5 17.8 Z"/>
</g>

<g id="Symbol_1_0_Layer0_0_STROKES_1_FILL">
<path fill="#B5720F" stroke="none" d="
M 26.55 27.55
Q 26.3494140625 27.5091796875 26.15 27.6 25.9978515625 27.7419921875 25.95 27.95 25.7630859375 28.81640625 25.6 29.25 25.4470703125 29.804296875 25.5 31.05 25.5033203125 31.282421875 25.65 31.4 25.8107421875 31.562109375 26 31.55 26.2328125 31.546875 26.35 31.4 26.5119140625 31.2396484375 26.5 31 26.4529296875 29.9955078125 26.55 29.55 26.7369140625 29.083203125 26.95 28.15 26.990625 27.9498046875 26.85 27.75 26.7576171875 27.59765625 26.55 27.55
M 18.55 14.55
Q 18.4583984375 14.7546875 18.5 14.95 18.7939453125 15.8521484375 18.7 16.8 18.6 17.85 18.5 18.85
L 18.5 18.85
Q 18.448828125 19.948828125 18.5 21.1
L 18.5 21.15
Q 18.598828125 22.27109375 18.6 23.05
L 18.6 23.05
Q 18.65 23.8751953125 18.7 24.8
L 18.7 24.85
Q 18.78828125 25.728515625 18.6 26.7
L 18.6 26.7
Q 18.446875 27.8162109375 18.45 28.7 18.4474609375 29.5111328125 18 30.55 17.9083984375 30.7365234375 17.95 30.9 18.05546875 31.116796875 18.25 31.2 18.4365234375 31.2919921875 18.6 31.2 18.81640625 31.14453125 18.9 30.95 19.4525390625 29.688671875 19.45 28.7 19.453125 27.8837890625 19.6 26.85 19.8078125 25.7740234375 19.7 24.75
L 19.7 24.75
Q 19.64921875 23.8140625 19.6 23 19.599609375 22.2111328125 19.5 21.05 19.4515625 19.9396484375 19.5 18.9 19.6009765625 17.9369140625 19.7 16.9 19.8060546875 15.74765625 19.45 14.65 19.411328125 14.4505859375 19.2 14.35 19.0451171875 14.2583984375 18.85 14.3 18.650390625 14.3884765625 18.55 14.55
M 3.8 16.8
Q 3.647265625 16.9431640625 3.6 17.15 3.396875 18.1375 3.35 19.1 3.298828125 20.15 3.35 21.15 3.3998046875 22.1865234375 3.5 23.4 3.598046875 24.54453125 3.4 25.25 3.412109375 25.3 3.4 25.3 3.19375 26.4759765625 3.55 26.8 3.5744140625 26.8255859375 3.6 26.85 3.6328125 26.9982421875 3.45 27.65 3.4216796875 27.874609375 3.5 28.05 3.6291015625 28.2267578125 3.8 28.25 4.024609375 28.328515625 4.2 28.2 4.3765625 28.1208984375 4.4 27.9 4.7490234375 26.5767578125 4.35 26.2 4.3052734375 26.0294921875 4.4 25.45
L 4.35 25.5
Q 4.601953125 24.6552734375 4.5 23.3 4.4001953125 22.1130859375 4.35 21.1 4.301171875 20.15 4.35 19.15 4.4029296875 18.2625 4.6 17.35 4.6404296875 17.1484375 4.5 16.95 4.406640625 16.7970703125 4.2 16.75 3.9984375 16.709375 3.8 16.8
M 8.5 1.75
Q 8.3 1.6580078125 8.1 1.7 7.919921875 1.80625 7.85 2 7.45 2.9369140625 7.05 3.75 6.6185546875 4.6828125 6.4 5.75
L 6.4 5.75
Q 6.2583984375 6.7212890625 5.95 7.5
L 5.95 7.55
Q 5.7228515625 8.4513671875 5.3 9.4 4.9248046875 10.4751953125 4.45 11.6 4.020703125 12.80546875 3.8 13.6 3.5984375 14.4783203125 3.7 15.95 3.716796875 16.18515625 3.85 16.3 4.0255859375 16.462890625 4.2 16.45 4.4349609375 16.4333984375 4.55 16.25 4.7126953125 16.1244140625 4.7 15.9 4.6013671875 14.621484375 4.75 13.85 4.979296875 13.0947265625 5.4 11.95 5.875 10.825 6.25 9.75 6.6771484375 8.748828125 6.9 7.8
L 6.9 7.85
Q 7.237890625 6.9892578125 7.4 5.95 7.5814453125 5.0171875 7.95 4.2 8.3498046875 3.362890625 8.75 2.4 8.841796875 2.1998046875 8.75 2 8.69375 1.819921875 8.5 1.75
M 10.8 11.35
Q 10.6626953125 11.1806640625 10.45 11.15 10.2533203125 11.1236328125 10.1 11.25 9.9306640625 11.387109375 9.9 11.6 9.761328125 12.90390625 9.55 13.65 9.3490234375 14.6005859375 9.45 15.85 9.5458984375 16.9490234375 9.45 18
L 9.45 18
Q 9.3982421875 19.0763671875 9.3 19.6
L 9.3 19.65
Q 9.2431640625 20.2814453125 9.4 21.7
L 9.4 21.7
Q 9.5998046875 23.111328125 9.7 23.9
L 9.7 23.9
Q 9.85 24.775390625 10.05 25.95 10.2423828125 27.1130859375 10.25 27.4 10.246484375 27.4361328125 10.25 27.45 10.2982421875 27.7751953125 10.35 29.6 10.3525390625 29.81875 10.5 29.95 10.646875 30.09921875 10.85 30.1 11.056640625 30.0974609375 11.2 29.95 11.3490234375 29.7908203125 11.35 29.55 11.3017578125 27.6248046875 11.25 27.3 11.2361328125 26.9572265625 11.05 25.8 10.852734375 24.64140625 10.7 23.8 10.6009765625 22.995703125 10.4 21.6 10.2626953125 20.3728515625 10.3 19.8 10.4005859375 19.2298828125 10.45 18.1 10.55390625 16.9509765625 10.45 15.75 10.3509765625 14.6994140625 10.5 13.9 10.738671875 13.09609375 10.9 11.7 10.926171875 11.503515625 10.8 11.35
M 25.9 12.2
Q 25.75234375 12.1095703125 25.55 12.15 25.3439453125 12.1966796875 25.2 12.35 25.1095703125 12.5478515625 25.15 12.75 25.3494140625 13.73828125 25.5 14.8
L 25.5 14.85
Q 25.6998046875 15.9369140625 25.85 16.8 25.9984375 17.75390625 26.05 18.95
L 26.05 19
Q 26.1498046875 20.23671875 26.2 20.95 26.2375 21.6779296875 26 22.8
L 26 22.8
Q 25.781640625 24.1298828125 25.95 25 26.0927734375 25.7453125 26.05 26.7 26.037890625 26.9267578125 26.15 27.05 26.316796875 27.234375 26.5 27.25 26.7265625 27.2623046875 26.85 27.1 27.0341796875 26.9828125 27.05 26.75 27.10703125 25.6546875 26.95 24.8 26.8197265625 24.0783203125 27 23 27.2625 21.722265625 27.2 20.9 27.15078125 20.1708984375 27.05 18.9 27.0013671875 17.6458984375 26.85 16.65 26.7017578125 15.77265625 26.5 14.65 26.350390625 13.56171875 26.15 12.55 26.103125 12.3435546875 25.9 12.2
M 22.8 2.85
L 22.85 2.85
Q 22.3328125 2.246875 22.35 1.6 22.3623046875 1.425 22.2 1.25 22.084375 1.1162109375 21.85 1.1 21.6748046875 1.0873046875 21.5 1.2 21.36640625 1.3654296875 21.35 1.55 21.2671875 2.553125 22.05 3.5
L 22.05 3.5
Q 22.6876953125 4.2787109375 22.9 5.3 23.1669921875 6.5650390625 23.75 7.7 24.253515625 8.7279296875 24.35 9.5
L 24.35 9.5
Q 24.5078125 10.4728515625 24.85 11.5 24.9412109375 11.715234375 25.1 11.8 25.32109375 11.8919921875 25.5 11.8 25.71484375 11.758984375 25.8 11.55 25.891796875 11.378515625 25.8 11.15 25.4966796875 10.240625 25.35 9.4 25.246484375 8.4720703125 24.65 7.25 24.1330078125 6.234765625 23.9 5.1 23.6123046875 3.82109375 22.8 2.85
M 16.8 -0.4
Q 16.5986328125 -0.3099609375 16.5 -0.15 16.408203125 0.05703125 16.45 0.25 16.808984375 1.2697265625 16.95 1.95
L 16.95 1.95
Q 17.174609375 2.7365234375 17.45 3.75
L 17.45 3.7
Q 17.7533203125 4.7154296875 17.75 5.8 17.7451171875 7.061328125 17.9 7.85
L 17.9 7.85
Q 18.1115234375 8.6048828125 18.25 9.6 18.3974609375 10.640625 18.4 11.85
L 18.4 11.85
Q 18.446875 13.0724609375 18.4 13.55 18.3865234375 13.76015625 18.5 13.9 18.6505859375 14.082421875 18.85 14.1 19.0599609375 14.1134765625 19.2 13.95 19.3822265625 13.8490234375 19.4 13.65 19.4529296875 13.12734375 19.4 11.8 19.4009765625 10.548828125 19.25 9.45 19.0884765625 8.3951171875 18.85 7.6
L 18.9 7.65
Q 18.7548828125 6.9384765625 18.75 5.8 18.7466796875 4.5841796875 18.4 3.45
L 18.4 3.45
Q 18.125390625 2.4634765625 17.9 1.7
L 17.95 1.75
Q 17.7908203125 1.030078125 17.4 -0.05 17.359765625 -0.251171875 17.15 -0.35 16.9927734375 -0.441796875 16.8 -0.4
M 12.75 -0.1
Q 12.587109375 -0.1419921875 12.4 -0.05 12.20625 0.032421875 12.1 0.2 11.8255859375 0.9841796875 11.4 2.2 11.0015625 3.465234375 10.95 4.6 10.896484375 5.6830078125 10.7 6.55 10.499609375 7.4625 10.35 8.35 10.1998046875 9.2748046875 10.05 10.25 10.023046875 10.4806640625 10.15 10.65 10.2720703125 10.81796875 10.45 10.85 10.6810546875 10.8771484375 10.85 10.75 11.017578125 10.6283203125 11.05 10.4 11.2 9.4251953125 11.35 8.5 11.500390625 7.6375 11.7 6.75 11.903515625 5.8166015625 11.95 4.65 11.9986328125 3.634765625 12.35 2.5 12.7744140625 1.315625 13.05 0.55 13.141796875 0.3873046875 13.05 0.2 12.9673828125 0.0060546875 12.75 -0.1 Z"/>
</g>

<g id="skull_pumpkin_0_Layer5_0_FILL">
<path fill="#000000" stroke="none" d="
M -0.45 -1.3
L -2.9 1.8 0.7 1.9 -0.45 -1.3 Z"/>

<path fill="#F9550F" stroke="none" d="
M 0.7 1.9
L 3.65 1.95 1.1 -3.25 -0.45 -1.3 0.7 1.9 Z"/>
</g>

<g id="Symbol_2_0_Layer0_0_FILL">
<path fill="#F9550F" stroke="none" d="
M 4.2 8.05
Q 2.25 3.95 5 0.9
L 4.4 0.4
Q -0.25 1.5 1.5 5.45 2.5 6.9 4.2 8.05
M 17.9 0.65
L 17.25 1.1
Q 20 4.15 18.05 8.25 19.8 7.15 20.8 5.65 22.5 1.7 17.9 0.65 Z"/>

<path fill="#000000" stroke="none" d="
M 5 0.9
Q 2.25 3.95 4.2 8.05 5.55 8.95 6.65 8.95
L 8.85 5.75 8.85 3.75
Q 6.25 2.9 5 0.9
M 17.25 1.1
Q 15.85 3.6 13.4 4
L 13.4 6 15.9 9.35
Q 16.7 9.2 18.05 8.25 20 4.15 17.25 1.1 Z"/>
</g>

<g id="skull_pumpkin_0_Layer3_0_FILL">
<path fill="#F9550F" stroke="none" d="
M 12.25 7.95
Q 13.9669921875 5.9607421875 13.25 3.45 13.3 1.2 9.95 0.6
L 10.05 4.35 7.55 2.2 6.75 5.4 4.95 3.25 3.15 6.35 0.8 3.75 0.75 4.85 0.6 3.95 -1.75 6.2 -3.5 3.4 -5.5 5.35 -6.15 2.05 -8.7 4.2 -8.55 0.45
Q -10.6 0.55 -11.4 1.45 -12.05 2.1 -12.15 3.3 -13.1634765625 5.808984375 -10.85 7.8
L -8.25 5.95 -7.55 9.15 -4.95 7.3 -3.45 9.85 -1.05 8.1 -1 8.15 0.4 10.55 2.45 8.25 4.85 9.95 6.35 7.4 8.95 9.25 9.6 6.05 12.25 7.95 Z"/>
</g>

<g id="skull_pumpkin_0_Layer1_0_FILL">
<path fill="#7E8D3F" stroke="none" d="
M 3.35 -28
L 1.7 -29.7 1.7 -31.05 -2.2 -32.1 -6.35 -31.6 -5.55 -30.95 -9.7 -28.65 -11.95 -28.75
Q -12.35 -30.3 -10.9 -31.8
L -8.65 -30.95
Q -8.55 -34.7 -11.9 -33.6
L -12.9 -31.9 -15.4 -33.45 -14.85 -31.6
Q -15.55 -31.25 -16.25 -32.25 -17 -33.3 -20.35 -33.5
L -16.5 -29.3 -16.6 -28.45
Q -19.15 -28 -21.15 -28.9
L -20.35 -27.55
Q -16.6 -22.5 -11.45 -24.2
L -8.1 -26.35 -5.65 -27.55 -5 -25.15
Q -10.7 -24.8 -11.85 -19.05 -8.2 -23.2 -3.45 -23.45
L -6.3 -17.5 -2.3 -21.8 0.8 -17.2 0.2 -23.25 1.45 -22.3 5.3 -22.55 8.2 -21.65
Q 10.9 -21.1 10.6 -20.5
L 14.2 -17.6
Q 13.45 -23.35 9.55 -23
L 6.2 -24
Q 4.35 -26.15 7.75 -25.15 4.05 -27.1 2.2 -24.65
L 3.35 -28
M 0.6 -27.85
L 1.2 -25.3 0.6 -27.85
M -14.15 -28.9
L -13.8 -27.3 -14.15 -28.9
M -13.3 -26.5
L -11.7 -26.9 -13.3 -26.5
M -13.9 -25.3
L -11.05 -25.95 -13.9 -25.3
M -17.55 -27.65
L -14.3 -25 -17.55 -27.65
M -3.6 -29.8
L -0.8 -28.9 -3.6 -29.8
M -10.2 -27.1
L -5.3 -29.1 -10.2 -27.1
M -1.9 -23.85
L -2.45 -22.3 -1.9 -23.85
M -4.3 -28.25
L -1.5 -24.65 -4.3 -28.25 Z"/>
</g>

<path id="skull_pumpkin_0_Layer5_0_1_STROKES" stroke="#000000" stroke-width="1" stroke-linejoin="round" stroke-linecap="round" fill="none" d="
M 0.7 1.9
L 3.65 1.95 1.1 -3.25 -0.45 -1.3 0.7 1.9 -2.9 1.8 -0.45 -1.3"/>

<path id="Symbol_2_0_Layer0_0_1_STROKES" stroke="#000000" stroke-width="1" stroke-linejoin="round" stroke-linecap="round" fill="none" d="
M 18.05 8.25
Q 16.7 9.2 15.9 9.35
L 13.4 6 13.4 4
Q 15.85 3.6 17.25 1.1
L 17.9 0.65
Q 19.5 -0.45 22.3 1.3
M 17.25 1.1
Q 20 4.15 18.05 8.25 19.8 7.15 20.8 5.65 22.5 1.7 17.9 0.65
M 5 0.9
Q 2.25 3.95 4.2 8.05 5.55 8.95 6.65 8.95
L 8.85 5.75 8.85 3.75
Q 6.25 2.9 5 0.9
L 4.4 0.4
Q -0.25 1.5 1.5 5.45 2.5 6.9 4.2 8.05
M 4.4 0.4
Q 2.8 -0.65 0 1.05"/>

<path id="skull_pumpkin_0_Layer3_0_1_STROKES" stroke="#000000" stroke-width="1.5" stroke-linejoin="round" stroke-linecap="round" fill="none" d="
M 0.8 3.75
L 3.15 6.35 4.95 3.25 6.75 5.4 7.55 2.2 10.05 4.35 9.95 0.6
Q 13.3 1.2 13.25 3.45 13.9669921875 5.9607421875 12.25 7.95
L 9.6 6.05 8.95 9.25 6.35 7.4 4.85 9.95 2.45 8.25 0.4 10.55 -1 8.15 -1.05 8.1 -3.45 9.85 -4.95 7.3 -7.55 9.15 -8.25 5.95 -10.85 7.8
Q -13.1634765625 5.808984375 -12.15 3.3 -12.05 2.1 -11.4 1.45 -10.6 0.55 -8.55 0.45
L -8.7 4.2 -6.15 2.05 -5.5 5.35 -3.5 3.4 -1.75 6.2 0.6 3.95"/>

<path id="skull_pumpkin_0_Layer2_0_1_STROKES" stroke="#000000" stroke-width="1.5" stroke-linejoin="round" stroke-linecap="round" fill="none" d="
M 13.45 3.75
Q 13.85 4 15.25 1.95 16.65 -0.2 16.2 -0.8 15.65 -1.4 15.1 -1.75 14.55 -2.1 14.3 -2.35 14.15 -2.55 14 -2.7 12.65 -3.95 13 -4.5 13.2 -7.2 13.7 -10.85 13.8 -11.5 13.85 -12.1 14.5 -18.35 11.7 -20.6 9.393359375 -22.46015625 6.625 -23.8 5.6607421875 -24.2533203125 4.65 -24.65 3.366015625 -25.1109375 1.75 -25.3 0.9220703125 -25.3830078125 0 -25.4 -1.2826171875 -25.3662109375 -2.6 -25.025 -3.21640625 -24.87734375 -3.85 -24.65 -5.4623046875 -24.0173828125 -6.925 -23.225 -9.065234375 -22.0796875 -10.9 -20.6 -11.6 -20.05 -12.05 -19.2 -13.7 -16.45 -12.9 -10.85 -12.35 -7.2 -12.15 -5.6 -11.85 -3.95 -13.2 -2.7 -13.35 -2.5 -13.85 -2.15 -14 -2.05 -14.05 -1.8 -14.05 -1.75 -14.1 -1.7
L -14.15 -1.7
Q -14.2 -1.65 -14.2 -1.6 -14.3 -1.5 -14.4 -1.35 -14.85 -0.8 -15.1 -0.3 -15.24375 0.0416015625 -15.125 0.55 -15.0236328125 1.0169921875 -14.7 1.625 -14.39609375 2.2021484375 -13.9 2.9 -13.05 4 -12.35 4.55"/>

<path id="skull_pumpkin_0_Layer1_0_1_STROKES" stroke="#000000" stroke-width="1" stroke-linejoin="round" stroke-linecap="round" fill="none" d="
M 1.7 -29.7
L 1.7 -31.05 -2.2 -32.1 -6.35 -31.6 -5.55 -30.95 -9.7 -28.65 -11.95 -28.75
Q -12.35 -30.3 -10.9 -31.8
L -8.65 -30.95
Q -8.55 -34.7 -11.9 -33.6
L -12.9 -31.9 -15.4 -33.45 -14.85 -31.6
Q -15.55 -31.25 -16.25 -32.25 -17 -33.3 -20.35 -33.5
L -16.5 -29.3 -16.6 -28.45
Q -19.15 -28 -21.15 -28.9
L -20.35 -27.55
Q -16.6 -22.5 -11.45 -24.2
L -8.1 -26.35 -5.65 -27.55 -5 -25.15
Q -10.7 -24.8 -11.85 -19.05 -8.2 -23.2 -3.45 -23.45
L -6.3 -17.5 -2.3 -21.8 0.8 -17.2 0.2 -23.25 1.45 -22.3 5.3 -22.55 8.2 -21.65
Q 10.9 -21.1 10.6 -20.5
L 14.2 -17.6
Q 13.45 -23.35 9.55 -23
L 6.2 -24
Q 4.35 -26.15 7.75 -25.15 4.05 -27.1 2.2 -24.65
L 3.35 -28 1.7 -29.7 Z"/>

<path id="skull_pumpkin_0_Layer1_0_2_STROKES" stroke="#59642D" stroke-width="1" stroke-linejoin="round" stroke-linecap="round" fill="none" d="
M -13.9 -25.3
L -11.05 -25.95
M -17.55 -27.65
L -14.3 -25
M -10.2 -27.1
L -5.3 -29.1
M -1.9 -23.85
L -2.45 -22.3
M -4.3 -28.25
L -1.5 -24.65"/>

<path id="skull_pumpkin_0_Layer1_0_3_STROKES" stroke="#535C2C" stroke-width="1" stroke-linejoin="round" stroke-linecap="round" fill="none" d="
M 0.6 -27.85
L 1.2 -25.3
M -14.15 -28.9
L -13.8 -27.3
M -13.3 -26.5
L -11.7 -26.9
M -3.6 -29.8
L -0.8 -28.9"/>
</defs>

<g transform="matrix( 11.3585205078125, 0, 0, 11.3585205078125, 304.65,406.8) ">
<g filter="url(#Filter_1)" transform="matrix( 0.0880279541015625, 0, 0, 0.0880279541015625, -26.8,-35.8) ">
<g transform="matrix( 11.3585205078125, 0, 0, 11.3585205078125, 132,118.25) ">
<g transform="matrix( 1, 0, 0, 1, 0,0) ">
<use xlink:href="#Symbol_1_0_Layer0_0_FILL"/>

<use xlink:href="#Symbol_1_0_Layer0_0_STROKES_1_FILL"/>
</g>
</g>
</g>

<g transform="matrix( 1, 0, 0, 1, 0,0) ">
<use xlink:href="#skull_pumpkin_0_Layer5_0_FILL"/>

<use xlink:href="#skull_pumpkin_0_Layer5_0_1_STROKES"/>
</g>

<g filter="url(#Filter_2)" transform="matrix( 0.0880279541015625, 0, 0, 0.0880279541015625, -26.8,-35.8) ">
<g transform="matrix( 11.3585205078125, 0, 0, 11.3585205078125, 184.2,277.85) ">
<g transform="matrix( 1, 0, 0, 1, 0,0) ">
<use xlink:href="#Symbol_2_0_Layer0_0_FILL"/>

<use xlink:href="#Symbol_2_0_Layer0_0_1_STROKES"/>
</g>
</g>
</g>

<g transform="matrix( 1, 0, 0, 1, 0,0) ">
<use xlink:href="#skull_pumpkin_0_Layer3_0_FILL"/>

<use xlink:href="#skull_pumpkin_0_Layer3_0_1_STROKES"/>
</g>

<g transform="matrix( 1, 0, 0, 1, 0,0) ">
<use xlink:href="#skull_pumpkin_0_Layer2_0_1_STROKES"/>
</g>

<g transform="matrix( 1, 0, 0, 1, 0,0) ">
<use xlink:href="#skull_pumpkin_0_Layer1_0_FILL"/>

<use xlink:href="#skull_pumpkin_0_Layer1_0_1_STROKES"/>

<use xlink:href="#skull_pumpkin_0_Layer1_0_2_STROKES"/>

<use xlink:href="#skull_pumpkin_0_Layer1_0_3_STROKES"/>
</g>
</g>
</svg>
