
<svg xmlns="http://www.w3.org/2000/svg" version="1.1" xmlns:xlink="http://www.w3.org/1999/xlink" preserveAspectRatio="none" x="0px" y="0px" width="560px" height="544px" viewBox="0 0 560 544">
<defs>
<g id="Layer0_0_FILL">
<path fill="#BDA788" stroke="none" d="
M 190.15 466.65
Q 180.15 466.65 173.35 468.9 166.5 471.2 166.5 475.3
L 167 476.2
Q 162 477.1 158.35 478 152.45 480.3 152.45 483.9 152.45 484.35 152.45 485.75 145.6 485.75 141.1 488 133.8 490.75 133.8 494.8 133.8 497.1 135.6 498.9 136.1 499.8 138.35 500.75
L 138.8 500.75
Q 154.25 477.1 207.4 468.9 200.15 466.65 190.15 466.65
M 236.05 466.2
Q 231.95 464.85 225.6 464.85 217.4 464.85 212.4 466.65 210.6 467.55 210.15 468.9 221.95 466.65 236.05 466.2 Z"/>

<path fill="#3C3020" stroke="none" d="
M 281.05 468.9
L 281.05 469.35 282.4 469.35
Q 281.95 468.9 287.4 469.35 292.4 469.35 307.85 473 323.75 477.1 311.05 478 319.65 478.9 326.05 481.2 332.85 483.45 335.55 486.2 336.5 486.2 336.95 486.65 337.4 488 337.85 489.35 337.85 489.8 337.85 490.3 337.85 493.45 332.85 498.45 332.4 503 332.4 503.45 332.4 507.1 320.1 509.8 308.3 512.55 292.4 512.55 280.15 512.55 271.5 504.35 261.95 515.25 251.5 515.25 240.15 515.25 232.85 510.75 230.6 509.8 229.25 508.9 221.5 510.75 211.95 510.75 203.35 510.75 196.5 508.9 195.6 509.35 194.7 509.8 190.6 513.9 185.6 513.9 179.7 513.9 176.05 509.8 172 506.65 171.5 502.1
L 171.05 502.1
Q 165.15 503 157.45 503 146.55 503 138.8 500.75
L 138.35 500.75
Q 136.1 499.8 135.6 498.9 131.1 496.65 131.1 493.45 131.1 489.35 138.8 486.2 143.8 484.35 150.15 483.9 150.15 483 150.15 481.65 150.15 478.9 156.55 476.2 159.7 475.3 164.25 474.8 163.8 473.9 163.8 473 163.8 469.85 171.05 467.55 177.45 464.85 187.9 464.85 197.9 464.85 205.6 467.55 206.05 467.55 206.5 468 207.4 466.65 210.15 464.85 215.6 463 222.85 463 230.15 463 235.15 464.85 239.25 466.65 239.7 468.9
L 240.15 468.9
Q 240.15 466.65 246.5 464.85 252.4 463.9 260.6 463.9 258.75 460.75 253.3 458.45 246.95 455.75 236.95 455.75 226.5 455.75 219.7 458.45 216.05 460.3 213.8 462.55 213.35 462.1 212.4 461.65 202.9 458.45 189.25 458.45 175.15 458.45 166.05 461.65 156.55 464.85 156.55 469.85 156.55 470.75 157 471.2 150.15 472.55 145.15 473.9 137 477.1 137 481.65 137 483 137.45 483.9 128.35 484.8 121.55 487.55 111.55 491.65 111.55 497.1 111.55 503 121.55 507.1 132 510.75 148.35 511.65 164.25 512.1 172.45 520.25 177.45 525.7 185.6 525.7 193.35 525.7 198.8 519.8 199.25 519.35 200.15 518.45 210.15 521.2 221.95 521.2 231.95 521.2 250.6 521.65 261.5 527.55 275.6 527.55 291.05 527.55 301.5 521.65 315.1 523.9 332.85 523.9 355.1 523.9 370.1 519.8 386.45 516.2 386.45 511.2 386.45 510.25 387.85 504.35 395.1 497.55 395.1 493 395.1 492.1 395.1 491.65 394.2 489.8 392.85 488 392.4 488 391.9 487.55 387.85 483.9 378.75 480.75 369.2 477.55 357.4 476.2 375.1 475.3 353.3 469.85 332.4 464.85 324.65 464.35 317.4 463.9 318.3 464.35
L 316.95 464.35
Q 316.95 463.9 316.95 463.45 316.95 460.75 308.3 458.45 300.6 456.65 288.75 456.65 277.85 456.65 269.25 458.45 261.05 460.75 261.05 463.45
L 261.05 463.9
Q 269.25 463.9 275.15 464.85 281.05 466.65 281.05 468.9 Z"/>

<path fill="#635036" stroke="none" d="
M 281.05 469.35
L 281.05 468.9
Q 281.05 466.65 275.15 464.85 269.25 463.9 261.05 463.9
L 260.6 463.9
Q 252.4 463.9 246.5 464.85 240.15 466.65 240.15 468.9
L 239.7 468.9
Q 239.25 466.65 235.15 464.85 230.15 463 222.85 463 215.6 463 210.15 464.85 207.4 466.65 206.5 468 206.05 467.55 205.6 467.55 197.9 464.85 187.9 464.85 177.45 464.85 171.05 467.55 163.8 469.85 163.8 473 163.8 473.9 164.25 474.8 159.7 475.3 156.55 476.2 150.15 478.9 150.15 481.65 150.15 483 150.15 483.9 143.8 484.35 138.8 486.2 131.1 489.35 131.1 493.45 131.1 496.65 135.6 498.9 133.8 497.1 133.8 494.8 133.8 490.75 141.1 488 145.6 485.75 152.45 485.75 152.45 484.35 152.45 483.9 152.45 480.3 158.35 478 162 477.1 167 476.2
L 166.5 475.3
Q 166.5 471.2 173.35 468.9 180.15 466.65 190.15 466.65 200.15 466.65 207.4 468.9 154.25 477.1 138.8 500.75 146.55 503 157.45 503 165.15 503 171.05 502.1
L 171.5 502.1
Q 172 506.65 176.05 509.8 179.7 513.9 185.6 513.9 190.6 513.9 194.7 509.8 195.6 509.35 196.5 508.9 203.35 510.75 211.95 510.75 221.5 510.75 229.25 508.9 230.6 509.8 232.85 510.75 240.15 515.25 251.5 515.25 261.95 515.25 271.5 504.35 280.15 512.55 292.4 512.55 308.3 512.55 320.1 509.8 332.4 507.1 332.4 503.45 332.4 503 332.85 498.45 337.85 493.45 337.85 490.3 337.85 489.8 337.85 489.35 337.4 488 336.95 486.65 336.5 486.2 335.55 486.2 332.85 483.45 326.05 481.2 319.65 478.9 311.05 478 323.75 477.1 307.85 473 292.4 469.35 287.4 469.35 281.95 468.9 282.4 469.35
L 281.05 469.35
M 225.6 464.85
Q 231.95 464.85 236.05 466.2 221.95 466.65 210.15 468.9 210.6 467.55 212.4 466.65 217.4 464.85 225.6 464.85 Z"/>
</g>

<g id="large_plant_buds_copy_0_Layer2_0_FILL">
<path fill="#669933" stroke="none" d="
M -4.6 -29.4
L -5.9 -29.75 -3.05 -5.05 -1.1 -5.35 -1.6 -8.65 -1.95 -7.6 -1.65 -8.95 -1.85 -10.25 -2.2 -10.3 -2 -11.4 -4.6 -29.4
M 0.35 -8.75
L 7.35 -32 6.35 -32.9 -1.4 -9.3 -1.2 -9.25 0.35 -8.75 Z"/>
</g>

<g id="Duplicate_Items_Folder_leaf_0_Layer0_0_FILL">
<path fill="#669933" stroke="none" d="
M 5.65 7.35
Q 5.7611328125 7.0623046875 5.85 6.75
L 2.65 3 5.65 7.35
M 2.65 3
L 0.45 0.4
Q -1.570703125 6.9611328125 5.4 7.3
L 5.6 7.4
Q 5.6 7.35 5.65 7.35
L 2.65 3 Z"/>

<path fill="#89C44D" stroke="none" d="
M 0.45 0.4
L 2.65 3 5.85 6.75
Q 7.494140625 1.566796875 0.8 0
L 0.6 0
Q 0.5236328125 0.2212890625 0.45 0.4 Z"/>
</g>

<g id="Duplicate_Items_Folder_flower_copy_0_Layer3_0_FILL">
<path fill="#FE89C5" stroke="none" d="
M -6.05 -4.3
Q -8.3 -5.1 -10.15 -4.2 -12.15 -3.05 -12.55 0.95 -12.7 4.6 -11.7 6.7 -10.8 8.85 -10.2 11.2 -9.7 13.5 -9.05 12.6 -8.45 11.75 -8.85 9.2 -9.25 6.7 -6.3 5 -3.4 3.2 -2.55 0.85 -1.7 -1.5 -2.45 -2.55 -3.25 -3.65 -4.1 -3.85 -4.85 -4.05 -6.05 -4.3 Z"/>

<path fill="#FF3399" stroke="none" d="
M 5.1 -5.4
Q 3.35 -4.45 2.75 -2.15 2.3 -0.95 2.05 -0.2 1.7 0.65 2.1 1.95 2.5 3.25 4.85 4.1 7.1 4.9 10.1 3.7 13.1 2.35 14.85 4.35 16.55 6.25 17.55 6.35 18.6 6.4 17.1 4.5 15.65 2.45 14.5 0.35 13.35 -1.85 10.4 -4.1 7.1 -6.35 5.1 -5.4 Z"/>
</g>

<g id="Duplicate_Items_Folder_flower_copy_0_Layer2_0_FILL">
<path fill="#FF3399" stroke="none" d="
M 0.65 13.8
Q 1.6484375 16.606640625 1.65 16.75 1.700390625 16.9427734375 2.25 14.5 2.7994140625 12.10703125 4.4 10.05 6.05 7.9974609375 6.45 4.6 6.85 0.9 4.5 0.05 2.4 -0.75 -0.55 0.05 -2 0.4 -3.05 1.15 -3.85 1.9 -4.55 2.9 -5.948828125 4.9951171875 -5.65 6.05 -5.30390625 7.1646484375 -2.85 9.1 -0.3462890625 11.034765625 0.65 13.8
M 6.2 -4.6
Q 7.1 -4.35 9.65 -5 12.05 -5.55 14.8 -4.95 17.3 -4.35 17.5 -4.3 17.65 -4.25 15.85 -5.55 14.1 -6.9 12.95 -8.75 11.9 -10.5 9.35 -12.25 6.4 -13.95 4.8 -12.95 3.4 -12.1 3.05 -10.1 2.8 -9.05 3.05 -8.2 3.4 -7.4 4 -6.6 5.15 -4.9 6.2 -4.6 Z"/>
</g>

<g id="Duplicate_Items_Folder_flower_copy_0_Layer1_0_FILL">
<path fill="#FFFF00" stroke="none" d="
M 7.1 -2.85
Q 6.4583984375 -5.762109375 4.3 -7.55 2.131640625 -9.2771484375 0.4 -8.75 -1.333203125 -8.2330078125 -2.95 -6.8 -4.50546875 -5.3060546875 -5 -2.95 -5.5 -0.6 -3.7 1.15 -1.9515625 2.8994140625 0.85 3.05 3.704296875 3.251171875 5.75 1.65 7.7955078125 0.1009765625 7.1 -2.85
M 2.75 -6.5
Q 4.2 -5.35 2.25 -5.55 0.3 -5.75 -1.1 -4.65 -2.45 -3.6 -1.95 -1.6 -1.45 0.45 -2.6 -0.7 -3.8 -1.9 -3.5 -3.45 -3.15 -5.05 -2.05 -6 -1.05 -7 0.15 -7.35 1.3 -7.7 2.75 -6.5 Z"/>

<path fill="#FFFFE6" stroke="none" d="
M 2.25 -5.55
Q 4.2 -5.35 2.75 -6.5 1.3 -7.7 0.15 -7.35 -1.05 -7 -2.05 -6 -3.15 -5.05 -3.5 -3.45 -3.8 -1.9 -2.6 -0.7 -1.45 0.45 -1.95 -1.6 -2.45 -3.6 -1.1 -4.65 0.3 -5.75 2.25 -5.55 Z"/>
</g>

<g id="Duplicate_Items_Folder_flower_copy_0_Layer0_0_FILL">
<path fill="#FE89C5" stroke="none" d="
M 0.25 -6.35
Q 3.25 -8.4 3.75 -9.5 4.25 -10.6 2.75 -12.35 2.05 -13.25 1.2 -13.8 0 -14.4 -1.6 -14.45 -4.95 -14.9 -7.45 -13.85 -10.3 -12.8 -10.15 -9.35 -9.95 -6.25 -8.2 -4.55 -6.55 -2.85 -6.05 -0.55 -5.65 1.6 -5.55 1.4 -5.5 1.25 -4.2 -1.45 -2.75 -4.2 0.25 -6.35 Z"/>
</g>

<path id="large_plant_buds_copy_0_Layer2_0_1_STROKES" stroke="#000000" stroke-width="1" stroke-linejoin="round" stroke-linecap="round" fill="none" d="
M -1.4 -9.3
L 6.35 -32.9 7.35 -32 0.35 -8.75 -1.2 -9.25
M -1.4 -9.3
L -1.6 -8.65 -1.1 -5.35 -3.05 -5.05 -5.9 -29.75 -4.6 -29.4 -2 -11.4 -2.2 -10.3 -1.85 -10.25 -1.65 -8.925 -1.6 -8.65 -1.95 -7.6"/>

<path id="Duplicate_Items_Folder_leaf_0_Layer0_0_1_STROKES" stroke="#000000" stroke-width="0.5" stroke-linejoin="round" stroke-linecap="round" fill="none" d="
M 5.85 6.775
Q 7.494140625 1.566796875 0.8 0
L 0.6 0
Q 0.5236328125 0.2212890625 0.45 0.425 -1.570703125 6.9611328125 5.4 7.3
L 5.6 7.4
Q 5.6 7.35 5.65 7.35
L 2.65 3.025
M 5.85 6.775
Q 5.7611328125 7.0623046875 5.65 7.35"/>

<path id="Duplicate_Items_Folder_flower_copy_0_Layer3_0_1_STROKES" stroke="#000000" stroke-width="2" stroke-linejoin="round" stroke-linecap="round" fill="none" d="
M 2.75 -2.15
Q 2.3 -0.95 2.05 -0.2 1.7 0.65 2.1 1.95 2.5 3.25 4.85 4.1 7.1 4.9 10.1 3.7 13.1 2.35 14.85 4.35 16.55 6.25 17.55 6.35 18.6 6.4 17.1 4.5 15.65 2.45 14.5 0.35 13.35 -1.85 10.4 -4.1 7.1 -6.35 5.1 -5.4 3.35 -4.45 2.75 -2.15 Z
M -6.05 -4.3
Q -4.85 -4.05 -4.1 -3.85 -3.25 -3.65 -2.45 -2.55 -1.7 -1.5 -2.55 0.85 -3.4 3.2 -6.3 5 -9.25 6.7 -8.85 9.2 -8.45 11.75 -9.05 12.6 -9.7 13.5 -10.2 11.2 -10.8 8.85 -11.7 6.7 -12.7 4.6 -12.55 0.95 -12.15 -3.05 -10.15 -4.2 -8.3 -5.1 -6.05 -4.3 Z"/>

<path id="Duplicate_Items_Folder_flower_copy_0_Layer2_0_1_STROKES" stroke="#000000" stroke-width="2" stroke-linejoin="round" stroke-linecap="round" fill="none" d="
M 9.65 -5
Q 12.05 -5.55 14.8 -4.95 17.3 -4.35 17.5 -4.3 17.65 -4.25 15.85 -5.55 14.1 -6.9 12.95 -8.75 11.9 -10.5 9.35 -12.25 6.4 -13.95 4.8 -12.95 3.4 -12.1 3.05 -10.1 2.8 -9.05 3.05 -8.2 3.4 -7.4 4 -6.6 5.15 -4.9 6.2 -4.6 7.1 -4.35 9.65 -5 Z
M 1.675 16.775
Q 1.700390625 16.9427734375 2.25 14.525 2.7994140625 12.10703125 4.425 10.05 6.05 7.9974609375 6.45 4.6 6.85 0.9 4.5 0.05 2.4 -0.75 -0.55 0.05 -2 0.4 -3.05 1.15 -3.85 1.9 -4.55 2.9 -5.948828125 4.9951171875 -5.625 6.075 -5.30390625 7.1646484375 -2.825 9.1 -0.3462890625 11.034765625 0.65 13.825 1.6484375 16.606640625 1.675 16.775 Z"/>

<path id="Duplicate_Items_Folder_flower_copy_0_Layer1_0_1_STROKES" stroke="#000000" stroke-width="2" stroke-linejoin="round" stroke-linecap="round" fill="none" d="
M 7.125 -2.825
Q 7.7955078125 0.1009765625 5.75 1.675 3.704296875 3.251171875 0.875 3.075 -1.9515625 2.8994140625 -3.7 1.15 -5.5 -0.6 -5 -2.95 -4.50546875 -5.3060546875 -2.925 -6.775 -1.333203125 -8.2330078125 0.4 -8.75 2.131640625 -9.2771484375 4.3 -7.525 6.4583984375 -5.762109375 7.125 -2.825 Z"/>

<path id="Duplicate_Items_Folder_flower_copy_0_Layer0_0_1_STROKES" stroke="#000000" stroke-width="2" stroke-linejoin="round" stroke-linecap="round" fill="none" d="
M 0.25 -6.35
Q -2.75 -4.2 -4.2 -1.45 -5.5 1.25 -5.55 1.4 -5.65 1.6 -6.05 -0.55 -6.55 -2.85 -8.2 -4.55 -9.95 -6.25 -10.15 -9.35 -10.3 -12.8 -7.45 -13.85 -4.95 -14.9 -1.6 -14.45 0 -14.4 1.2 -13.8 2.05 -13.25 2.75 -12.35 4.25 -10.6 3.75 -9.5 3.25 -8.4 0.25 -6.35 Z"/>
</defs>

<g transform="matrix( 1, 0, 0, 1, 0,0) ">
<use xlink:href="#Layer0_0_FILL"/>
</g>

<g transform="matrix( 11.470443725585938, 0, 0, 10.829605102539062, 284.65,473.45) ">
<g transform="matrix( 1, 0, 0, 1, 0,0) ">
<use xlink:href="#large_plant_buds_copy_0_Layer2_0_FILL"/>

<use xlink:href="#large_plant_buds_copy_0_Layer2_0_1_STROKES"/>
</g>

<g transform="matrix( 2.0651702880859375, 0, 0, 2.220458984375, -14.75,-14.1) ">
<g transform="matrix( 1, 0, 0, 1, 0,0) ">
<use xlink:href="#Duplicate_Items_Folder_leaf_0_Layer0_0_FILL"/>

<use xlink:href="#Duplicate_Items_Folder_leaf_0_Layer0_0_1_STROKES"/>
</g>
</g>

<g transform="matrix( -1.7933349609375, 0, 0, 1.8261566162109375, 7.6,-11.55) ">
<g transform="matrix( 1, 0, 0, 1, 0,0) ">
<use xlink:href="#Duplicate_Items_Folder_leaf_0_Layer0_0_FILL"/>

<use xlink:href="#Duplicate_Items_Folder_leaf_0_Layer0_0_1_STROKES"/>
</g>
</g>

<g transform="matrix( -0.0540313720703125, -1.3304901123046875, 1.3304901123046875, -0.0540313720703125, -14.2,-16.6) ">
<g transform="matrix( 1, 0, 0, 1, 0,0) ">
<use xlink:href="#Duplicate_Items_Folder_leaf_0_Layer0_0_FILL"/>

<use xlink:href="#Duplicate_Items_Folder_leaf_0_Layer0_0_1_STROKES"/>
</g>
</g>

<g transform="matrix( -0.282958984375, 1.3021240234375, 1.3021240234375, 0.282958984375, 6.95,-27.2) ">
<g transform="matrix( 1, 0, 0, 1, 0,0) ">
<use xlink:href="#Duplicate_Items_Folder_leaf_0_Layer0_0_FILL"/>

<use xlink:href="#Duplicate_Items_Folder_leaf_0_Layer0_0_1_STROKES"/>
</g>
</g>

<g transform="matrix( 1.31024169921875, -0.8798828125, 0.8798828125, 1.31024169921875, -17.45,-38.4) ">
<g transform="matrix( 1, 0, 0, 1, 0,0) ">
<use xlink:href="#Duplicate_Items_Folder_leaf_0_Layer0_0_FILL"/>

<use xlink:href="#Duplicate_Items_Folder_leaf_0_Layer0_0_1_STROKES"/>
</g>
</g>

<g transform="matrix( 0.404266357421875, 0.245849609375, -0.245849609375, 0.404266357421875, -7,-33) ">
<g transform="matrix( 1, 0, 0, 1, 0,0) ">
<use xlink:href="#Duplicate_Items_Folder_flower_copy_0_Layer3_0_FILL"/>

<use xlink:href="#Duplicate_Items_Folder_flower_copy_0_Layer3_0_1_STROKES"/>
</g>

<g transform="matrix( 1, 0, 0, 1, 0,0) ">
<use xlink:href="#Duplicate_Items_Folder_flower_copy_0_Layer2_0_FILL"/>

<use xlink:href="#Duplicate_Items_Folder_flower_copy_0_Layer2_0_1_STROKES"/>
</g>

<g transform="matrix( 1, 0, 0, 1, 0,0) ">
<use xlink:href="#Duplicate_Items_Folder_flower_copy_0_Layer1_0_FILL"/>

<use xlink:href="#Duplicate_Items_Folder_flower_copy_0_Layer1_0_1_STROKES"/>
</g>

<g transform="matrix( 1, 0, 0, 1, 0,0) ">
<use xlink:href="#Duplicate_Items_Folder_flower_copy_0_Layer0_0_FILL"/>

<use xlink:href="#Duplicate_Items_Folder_flower_copy_0_Layer0_0_1_STROKES"/>
</g>
</g>

<g transform="matrix( 0.340576171875, 0.207122802734375, -0.207122802734375, 0.340576171875, -5.25,-19.9) ">
<g transform="matrix( 1, 0, 0, 1, 0,0) ">
<use xlink:href="#Duplicate_Items_Folder_flower_copy_0_Layer3_0_FILL"/>

<use xlink:href="#Duplicate_Items_Folder_flower_copy_0_Layer3_0_1_STROKES"/>
</g>

<g transform="matrix( 1, 0, 0, 1, 0,0) ">
<use xlink:href="#Duplicate_Items_Folder_flower_copy_0_Layer2_0_FILL"/>

<use xlink:href="#Duplicate_Items_Folder_flower_copy_0_Layer2_0_1_STROKES"/>
</g>

<g transform="matrix( 1, 0, 0, 1, 0,0) ">
<use xlink:href="#Duplicate_Items_Folder_flower_copy_0_Layer1_0_FILL"/>

<use xlink:href="#Duplicate_Items_Folder_flower_copy_0_Layer1_0_1_STROKES"/>
</g>

<g transform="matrix( 1, 0, 0, 1, 0,0) ">
<use xlink:href="#Duplicate_Items_Folder_flower_copy_0_Layer0_0_FILL"/>

<use xlink:href="#Duplicate_Items_Folder_flower_copy_0_Layer0_0_1_STROKES"/>
</g>
</g>

<g transform="matrix( 0.3302001953125, 0.2232513427734375, -0.2232513427734375, 0.3302001953125, 6.25,-27) ">
<g transform="matrix( 1, 0, 0, 1, 0,0) ">
<use xlink:href="#Duplicate_Items_Folder_flower_copy_0_Layer3_0_FILL"/>

<use xlink:href="#Duplicate_Items_Folder_flower_copy_0_Layer3_0_1_STROKES"/>
</g>

<g transform="matrix( 1, 0, 0, 1, 0,0) ">
<use xlink:href="#Duplicate_Items_Folder_flower_copy_0_Layer2_0_FILL"/>

<use xlink:href="#Duplicate_Items_Folder_flower_copy_0_Layer2_0_1_STROKES"/>
</g>

<g transform="matrix( 1, 0, 0, 1, 0,0) ">
<use xlink:href="#Duplicate_Items_Folder_flower_copy_0_Layer1_0_FILL"/>

<use xlink:href="#Duplicate_Items_Folder_flower_copy_0_Layer1_0_1_STROKES"/>
</g>

<g transform="matrix( 1, 0, 0, 1, 0,0) ">
<use xlink:href="#Duplicate_Items_Folder_flower_copy_0_Layer0_0_FILL"/>

<use xlink:href="#Duplicate_Items_Folder_flower_copy_0_Layer0_0_1_STROKES"/>
</g>
</g>
</g>
</svg>
