
<svg xmlns="http://www.w3.org/2000/svg" version="1.1" xmlns:xlink="http://www.w3.org/1999/xlink" preserveAspectRatio="none" x="0px" y="0px" width="560px" height="544px" viewBox="0 0 560 544">
<defs>
<filter id="Filter_1" x="-32.06443446569871%" y="-36.46851320136713%" width="164.12886893139742%" height="172.93702640273426%" color-interpolation-filters="sRGB">
<feFlood flood-color="#66E0FF" flood-opacity="1" in="SourceGraphic" result="result1"/>

<feGaussianBlur in="SourceGraphic" stdDeviation="18,18" result="result2"/>

<feComposite in2="result2" in="result1" operator="in" result="result3"/>

<feComposite in2="result3" in="SourceGraphic" operator="over" result="result4"/>
</filter>

<g id="Symbol_4_0_Layer1_0_FILL">
<path fill="#66E0FF" stroke="none" d="
M 0.25 6.6
Q 0.5 6.45 0.7 6.3 0.15 6 -0.45 5.75
L 1.2 5.2 -4.3 4.35
Q -5.7 4.75 -6.8 5.25 -8.95 6.2 -8.4 8.05 -8 9.55 -7.05 12.2 -6.6591796875 13.621484375 -6.95 14.2 -7.0685546875 14.484375 -7.3 14.6
L -11.8 16.8
Q -12.45 18.15 -11.35 18.95 -10.85 19.3 -9.95 19.55 -9.95 19.35 -9.85 19.1 -9.8 18.9 -9.7 18.65
L -5.25 16.5
Q -4.433203125 16.067578125 -4.9 14.2 -4.928515625 14.128125 -4.95 14.05 -5.9 11.4 -6.3 9.9 -6.85 8.05 -4.7 7.1 -3.65 6.6 -2.2 6.25
L 0.25 6.6
M 8.75 5.15
Q 8.2111328125 4.6603515625 7.3 4.4 6.25 4.05 4.9 3.95
L 1.5 5.1 1.5 6.7 3.6 6
Q 4.9 6.1 6 6.45 8.1 7.05 8.15 8.85 8.2 10.35 8.05 12.95 8.071484375 13.3685546875 8.1 13.7 8.3216796875 14.964453125 8.95 15.2
L 13.45 16.55
Q 13.6 16.8 13.7 16.95 13.85 17.2 13.9 17.35 14.6 17 14.95 16.65 15.7 15.75 14.8 14.5
L 10.3 13.1
Q 9.45 12.85 9.4 10.9 9.45 9.1 9.5 7.85 9.5 7.35 9.5 6.95 9.5 6.85 9.5 6.8 9.443359375 5.780859375 8.75 5.15
M 1.4 5.15
L 1.2 5.2 -0.45 5.75
Q 0.15 6 0.7 6.3 1.05 6.45 1.4 5.15
M 24.05 9.3
Q 24.7 9.15 25.15 9.15 25.25 8.9 25.35 8.55 25.9 6.85 23.5 7.45 18 4.15 11.4 4.65 10.6 4.7 9.85 4.8
L 9.8 4.8 9.8 4.9 9.75 5.3 9.6 6.95
Q 9.95 6.8 10.35 6.7
L 10.35 6.6
Q 12.855078125 6.2681640625 15.2 6.45 19.9404296875 6.8275390625 24.05 9.3
M -17 11.35
Q -17.05 10.9 -17.05 10.55 -17.15 10.1 -17.2 9.6 -17.4 7.5 -16.5 6.8 -15.8 6.25 -14 5.7 -14.8 5.65 -16.45 5.55 -18.65 5.55 -19.2 6.55 -20 7.95 -20.35 9.75 -20.4 10.15 -20.45 10.45 -20.3 10.75 -20.1 10.95 -19.35 11.6 -18 11.6
L -17 11.55
Q -17 11.45 -17 11.35
M -23.7 -1.4
Q -22.95 -1.6 -20.4 -0.05 -17.35 1.85 -16.7 2.1 -15.65 2.55 -14.45 1.3 -13.8 0.65 -13.45 -0.05 -13.4 -0.1 -12.85 0.15 -12.4 -0.35 -12 -1 -13.6 -1.9 -13.6 -1.8 -14 -1.05 -14.6 -0.45 -15.8 0.8 -16.9 0.35 -17.55 0.1 -20.6 -1.8 -23.15 -3.35 -23.9 -3.15 -24.65 -2.9 -25.15 -2.2 -25.65 -1.45 -25.25 -0.55 -25.2 -0.4 -25.1 -0.25 -25.05 -0.35 -24.95 -0.45 -24.45 -1.15 -23.7 -1.4
M 23.55 -0.6
Q 23.45 -0.8 23.4 -0.95 23.1 -1.5 23 -1.75 22.95 -1.85 22.9 -1.9 22.85 -2 20.3 -0.5 19.7 -0.2 19.2 0.05 17.3 0.95 15.75 0.9 13.75 0.85 11.85 0.6 11.05 0.5 10.6 0.3 10.1 0.05 10.15 -0.3 10.3 -0.95 8.9 1 9.5 1.35 10.1 1.6 10.95 0.45 10.85 0.95 10.7 1.65 12.55 1.85 14.45 2.15 16.4 2.15 17.3 2.2 18.25 1.95 19.5 1.55 20.95 0.75 21.55 0.4 22.05 0.1 23.25 -0.55 23.55 -0.6 Z"/>

<path fill="#000000" fill-opacity="0.27058823529411763" stroke="none" d="
M 1.4 5.15
L 1.5 5.1 1.5 4.55
Q 1.45 4.85 1.4 5.15
M 9.5 6.95
Q 9.5 7.35 9.5 7.85
L 9.6 6.95
Q 9.55 6.95 9.5 6.95
M 9.75 5.3
Q 9.2525390625 5.2349609375 8.75 5.15 9.443359375 5.780859375 9.5 6.8 9.5 6.85 9.5 6.95 9.55 6.95 9.6 6.95
L 9.75 5.3 Z"/>

<path fill="#00AFDB" stroke="none" d="
M 1.5 6.7
Q 1.55 6.7 1.6 6.75 4.95 8.35 6.45 9.5 7.6 10.3 7.95 12.75 8.0236328125 13.2658203125 8.1 13.7 8.4052734375 15.6328125 8.65 16 9.25 16.9 11.1 17.4 12.05 17.7 12.9 17.75 13.45 17.55 13.9 17.35 13.85 17.2 13.7 16.95 13.6 16.8 13.45 16.55
L 8.95 15.2
Q 8.3216796875 14.964453125 8.1 13.7 8.071484375 13.3685546875 8.05 12.95 8.2 10.35 8.15 8.85 8.1 7.05 6 6.45 4.9 6.1 3.6 6
L 1.5 6.7
M 0.2 6.7
Q 0.2 6.65 0.25 6.6
L -2.2 6.25
Q -3.65 6.6 -4.7 7.1 -6.85 8.05 -6.3 9.9 -5.9 11.4 -4.95 14.05 -4.928515625 14.128125 -4.9 14.2 -4.433203125 16.067578125 -5.25 16.5
L -9.7 18.65
Q -9.8 18.9 -9.85 19.1 -9.95 19.35 -9.95 19.55 -9.4 19.7 -8.7 19.75 -7.85 19.55 -6.9 19.1 -5 18.3 -4.65 17.3 -4.462109375 16.8302734375 -4.8 14.2 -4.82578125 14.028515625 -4.85 13.85 -5.25 11.3 -4.25 10.25 -3 8.85 0.2 6.7
M 25.15 9.15
Q 24.7 9.15 24.05 9.3 19.9404296875 6.8275390625 15.2 6.45 12.855078125 6.2681640625 10.35 6.6
L 10.35 6.7
Q 10.75 6.65 11.2 6.6 11.35 6.6 11.55 6.55 13.95 6.3 15.35 7.3 16.9 8.45 18.9 9.4 20.75 10.25 21.9 10.5 22.0521484375 10.529296875 22.2 10.55 23.28203125 10.7265625 23.9 10.55 24.3 10.4 24.65 10 24.9 9.65 25.15 9.15
M -9.95 3.25
Q -10.05 3.25 -10.1 3.25 -11.1 3.55 -11.9 3.7 -12.95 3.9 -13.6 3.9 -14 3.95 -15.1 3.9 -15.75 3.85 -16.65 3.8 -18.3 3.8 -19.05 4.35 -19.3 4.55 -19.4 4.8 -20.2 6.25 -20.55 8.05 -20.85 9.65 -20.45 10.45 -20.4 10.15 -20.35 9.75 -20 7.95 -19.2 6.55 -18.65 5.55 -16.45 5.55 -14.8 5.65 -14 5.7 -13.45 5.5 -12.8 5.35 -12.5 5.25 -12.15 5.15 -11.5 5 -10.9 4.9 -10.55 4.8 -7.3 4 -9.8 3.15 -9.95 3.25
M -20.4 -0.05
Q -22.95 -1.6 -23.7 -1.4 -24.45 -1.15 -24.95 -0.45 -25.05 -0.35 -25.1 -0.25 -24.65 0.5 -23.55 1.2 -21.9 2.35 -18.35 2.75 -15.3 3 -12.85 0.15 -13.4 -0.1 -13.45 -0.05 -13.8 0.65 -14.45 1.3 -15.65 2.55 -16.7 2.1 -17.35 1.85 -20.4 -0.05
M 22.05 0.1
Q 21.55 0.4 20.95 0.75 19.5 1.55 18.25 1.95 17.3 2.2 16.4 2.15 14.45 2.15 12.55 1.85 10.7 1.65 10.85 0.95 10.95 0.45 10.1 1.6 13 3 16 3.1 19.6 3.15 21.4 2.25 21.5 2.2 21.55 2.15 22.85 1.45 23.3 0.65 23.7 0 23.55 -0.6 23.25 -0.55 22.05 0.1 Z"/>

<path fill="#00CCFF" stroke="none" d="
M -17.05 10.55
Q -17.05 10.9 -17 11.35 -17 11.45 -17 11.55
L -16.8 11.5
Q -16.95 11.05 -17.05 10.55 Z"/>
</g>

<g id="squid_head_0_Layer0_0_FILL">
<path fill="#91E9FF" stroke="none" d="
M 7.95 37.25
Q 11.45 36.55 11.9 34.2 10.1 35.85 7.8 37.15 8.1 37 7.95 37.25 Z"/>

<path fill="#01A5CD" stroke="none" d="
M 11.9 34.2
L 11.95 34.2
Q 11.95 34.1 11.5 33.35
L 11.9 34.2 Z"/>

<path fill="#D72A53" stroke="none" d="
M 28.05 21.8
Q 26.4 20.3 24.05 20.3 22.610546875 20.3 21.4 20.85 20.6587890625 21.21875 20 21.8 18.35 23.3 18.35 25.4 18.35 25.784375 18.4 26.15 18.651953125 27.774609375 20 29 21.7 30.5 24.05 30.5 26.4 30.5 28.05 29 29.75 27.5 29.75 25.4 29.75 23.3 28.05 21.8
M 33.45 8.7
Q 32.6455078125 8.1 31.6 8.1 30.35 8.1 29.45 9 28.55 9.95 28.55 11.3 28.55 11.6861328125 28.6 12 28.807421875 12.907421875 29.45 13.55 30.35 14.5 31.6 14.5 32.85 14.5 33.75 13.55 34.65 12.65 34.65 11.3 34.65 9.95 33.75 9 33.602734375 8.852734375 33.45 8.7
M 52.4 6.5
Q 52.4 5.6 51.7 4.95 51 4.3 50.05 4.3 49.1 4.3 48.4 4.95 47.8021484375 5.505078125 47.7 6.25 47.7 6.3685546875 47.7 6.5 47.7 7.4 48.4 8.05 49.1 8.7 50.05 8.7 51 8.7 51.7 8.05 51.9123046875 7.8529296875 52.05 7.6 52.4 7.1271484375 52.4 6.5
M 44.05 23.25
Q 45.6 24.7 47.75 24.7 49.9 24.7 51.45 23.25 53 21.8 53 19.75 53 17.7 51.45 16.25 49.9 14.8 47.75 14.8 45.6 14.8 44.05 16.25 42.5 17.7 42.5 19.75 42.5 21.8 44.05 23.25
M 63.45 16.6
Q 63.1810546875 16.898828125 63 17.2 62.55 18.018359375 62.55 19 62.55 20.4 63.45 21.35 64.35 22.35 65.6 22.35 65.89921875 22.35 66.15 22.3 67.0654296875 22.110546875 67.75 21.35 68.65 20.4 68.65 19 68.65 17.6 67.75 16.6 66.85 15.65 65.6 15.65 64.35 15.65 63.45 16.6 Z"/>

<path fill="#F58085" stroke="none" d="
M 69.55 45.6
Q 70.05 47.1 69.7 49.35 69.7 49.45 69.65 49.6 68.7 54.75 62.35 53.95 58.95 54 56.5 51.25 48.9 59.5 40.45 50.65 22.35 65.65 21.35 48.4 7.25 51.5 6.8 39.8 6.75 39.2 6.75 38.55 7.4 37.9 7.7 37.55 7.9 37.35 7.95 37.25 8.1 37 7.8 37.15 10.1 35.85 11.9 34.2
L 11.5 33.35
Q 5.75 33.2 0 38.65 -0.25 54.85 18.05 51.45 19.25 72.75 42.05 60.05 52.05 66.25 61.4 56.4 64.45 59.85 68.65 59.9 76.65 61.2 77.7 54.55 78.7 47.85 73.65 46.25
L 69.55 45.6 Z"/>

<path fill="#FE9B9F" stroke="none" d="
M 65.6 22.35
Q 64.35 22.35 63.45 21.35 62.55 20.4 62.55 19 62.55 18.018359375 63 17.2 60.2853515625 14.0923828125 55.05 9.6 53.6541015625 8.4244140625 52.05 7.6 51.9123046875 7.8529296875 51.7 8.05 51 8.7 50.05 8.7 49.1 8.7 48.4 8.05 47.7 7.4 47.7 6.5 47.7 6.3685546875 47.7 6.25 44.3625 5.68671875 40.35 6.4 36.6087890625 7.1044921875 33.45 8.7 33.602734375 8.852734375 33.75 9 34.65 9.95 34.65 11.3 34.65 12.65 33.75 13.55 32.85 14.5 31.6 14.5 30.35 14.5 29.45 13.55 28.807421875 12.907421875 28.6 12 27.99609375 12.592578125 27.4 13.2 24.26640625 16.3634765625 21.4 20.85 22.610546875 20.3 24.05 20.3 26.4 20.3 28.05 21.8 29.75 23.3 29.75 25.4 29.75 27.5 28.05 29 26.4 30.5 24.05 30.5 21.7 30.5 20 29 18.651953125 27.774609375 18.4 26.15 18.0501953125 26.837890625 17.7 27.55 15.9 31.15 13.3 34.65 12.95 34.7 12.9 34.15 12.4 34.15 11.95 34.2
L 11.9 34.2
Q 11.45 36.55 7.95 37.25 7.9 37.35 7.7 37.55 7.4 37.9 6.75 38.55 6.75 39.2 6.8 39.8 7.25 51.5 21.35 48.4 22.35 65.65 40.45 50.65 48.9 59.5 56.5 51.25 58.95 54 62.35 53.95 68.7 54.75 69.65 49.6 69.7 49.45 69.7 49.35 70.05 47.1 69.55 45.6 69.2546875 44.8125 69.25 45.15
L 69.25 45.25
Q 67.85 43.15 66.4 42.75
L 65.65 42.65 65.15 38.9
Q 63.85 34.8 65.9 30 67.6044921875 26.1462890625 66.15 22.3 65.89921875 22.35 65.6 22.35
M 47.75 24.7
Q 45.6 24.7 44.05 23.25 42.5 21.8 42.5 19.75 42.5 17.7 44.05 16.25 45.6 14.8 47.75 14.8 49.9 14.8 51.45 16.25 53 17.7 53 19.75 53 21.8 51.45 23.25 49.9 24.7 47.75 24.7 Z"/>

<path fill="#FFCBCD" stroke="none" d="
M 63 17.2
Q 63.1810546875 16.898828125 63.45 16.6 64.35 15.65 65.6 15.65 66.85 15.65 67.75 16.6 68.65 17.6 68.65 19 68.65 20.4 67.75 21.35 67.0654296875 22.110546875 66.15 22.3 67.6044921875 26.1462890625 65.9 30 63.85 34.8 65.15 38.9
L 65.65 42.65 66.4 42.75
Q 67.85 43.15 69.25 45.25
L 69.25 45.15 69.2 41.4
Q 70.5 36.3 73.05 30.5 75.85 24.15 71.7 17.6 68.8 13 59.65 4.9 52.6 -1.3 41.5 0.35 32 1.8 24.45 7.8 19 12.15 15.05 23.2 13.4 27.9 12.55 32 12.4 32.7 12.25 33.4 11.9 33.35 11.5 33.35 11.95 34.1 11.95 34.2 12.4 34.15 12.9 34.15 12.95 34.7 13.3 34.65 15.9 31.15 17.7 27.55 18.0501953125 26.837890625 18.4 26.15 18.35 25.784375 18.35 25.4 18.35 23.3 20 21.8 20.6587890625 21.21875 21.4 20.85 24.26640625 16.3634765625 27.4 13.2 27.99609375 12.592578125 28.6 12 28.55 11.6861328125 28.55 11.3 28.55 9.95 29.45 9 30.35 8.1 31.6 8.1 32.6455078125 8.1 33.45 8.7 36.6087890625 7.1044921875 40.35 6.4 44.3625 5.68671875 47.7 6.25 47.8021484375 5.505078125 48.4 4.95 49.1 4.3 50.05 4.3 51 4.3 51.7 4.95 52.4 5.6 52.4 6.5 52.4 7.1271484375 52.05 7.6 53.6541015625 8.4244140625 55.05 9.6 60.2853515625 14.0923828125 63 17.2 Z"/>
</g>

<g id="Symbol_4_0_Layer0_0_FILL">
<path fill="#FFFFFF" stroke="none" d="
M -0.95 -6.45
Q -2.15 -7.65 -3.85 -7.65 -5.55 -7.65 -6.8 -6.45 -8 -5.25 -8 -3.5 -8 -1.8 -6.8 -0.6 -5.55 0.65 -3.85 0.65 -2.15 0.65 -0.95 -0.6 0.25 -1.8 0.25 -3.5 0.25 -5.25 -0.95 -6.45
M -5.05 -5
Q -4.8 -5.2 -4.5 -5.2 -4.15 -5.2 -3.95 -5 -3.7 -4.8 -3.7 -4.5 -3.7 -4.25 -3.95 -4.05 -4.15 -3.85 -4.5 -3.85 -4.8 -3.85 -5.05 -4.05 -5.3 -4.25 -5.3 -4.5 -5.3 -4.8 -5.05 -5
M 8 -6.7
Q 6.8 -8 5.1 -8 3.4 -8 2.2 -6.7 1 -5.35 1 -3.45 1 -1.55 2.2 -0.25 3.4 1.1 5.1 1.1 6.8 1.1 8 -0.25 9.2 -1.55 9.2 -3.45 9.2 -5.35 8 -6.7
M 5.4 -1.95
Q 5.15 -2.15 5.15 -2.4 5.15 -2.65 5.4 -2.9 5.6 -3.05 5.9 -3.05 6.2 -3.05 6.4 -2.9 6.65 -2.65 6.65 -2.4 6.65 -2.15 6.4 -1.95 6.2 -1.7 5.9 -1.7 5.6 -1.7 5.4 -1.95 Z"/>

<path fill="#000000" stroke="none" d="
M -4.5 -5.2
Q -4.8 -5.2 -5.05 -5 -5.3 -4.8 -5.3 -4.5 -5.3 -4.25 -5.05 -4.05 -4.8 -3.85 -4.5 -3.85 -4.15 -3.85 -3.95 -4.05 -3.7 -4.25 -3.7 -4.5 -3.7 -4.8 -3.95 -5 -4.15 -5.2 -4.5 -5.2
M 5.15 -2.4
Q 5.15 -2.15 5.4 -1.95 5.6 -1.7 5.9 -1.7 6.2 -1.7 6.4 -1.95 6.65 -2.15 6.65 -2.4 6.65 -2.65 6.4 -2.9 6.2 -3.05 5.9 -3.05 5.6 -3.05 5.4 -2.9 5.15 -2.65 5.15 -2.4 Z"/>
</g>

<path id="Symbol_4_0_Layer1_0_1_STROKES" stroke="#000000" stroke-width="1" stroke-linejoin="round" stroke-linecap="round" fill="none" d="
M 10.1 1.6
Q 9.5 1.35 8.9 1 10.3 -0.95 10.15 -0.3 10.1 0.05 10.6 0.3 11.05 0.5 11.85 0.6 13.75 0.85 15.75 0.9 17.3 0.95 19.2 0.05 19.7 -0.2 20.3 -0.5 22.85 -2 22.9 -1.9 22.95 -1.85 23 -1.75 23.1 -1.5 23.4 -0.95 23.45 -0.8 23.55 -0.6 23.7 0 23.3 0.65 22.85 1.45 21.55 2.15 21.5 2.2 21.4 2.25 19.6 3.15 16 3.1 13 3 10.1 1.6 Z
M 25.15 9.15
Q 25.25 8.9 25.35 8.55 25.9 6.85 23.5 7.45 18 4.15 11.4 4.65 10.6 4.7 9.85 4.8
L 9.8 4.8 9.8 4.9 9.75 5.325 9.6 6.95
Q 9.95 6.8 10.35 6.7 10.75 6.65 11.2 6.6 11.35 6.6 11.55 6.55 13.95 6.3 15.35 7.3 16.9 8.45 18.9 9.4 20.75 10.25 21.9 10.5 22.0521484375 10.529296875 22.2 10.55 23.28203125 10.7265625 23.9 10.55 24.3 10.4 24.65 10 24.9 9.65 25.15 9.15 Z
M 1.5 5.1
L 4.9 3.95
Q 6.25 4.05 7.3 4.4 8.2111328125 4.6603515625 8.75 5.15 9.443359375 5.780859375 9.5 6.8 9.5 6.85 9.5 6.95 9.55 6.95 9.6 6.95
L 9.5 7.85
Q 9.45 9.1 9.4 10.9 9.45 12.85 10.3 13.1
L 14.8 14.5
Q 15.7 15.75 14.95 16.65 14.6 17 13.9 17.35 13.45 17.55 12.9 17.75 12.05 17.7 11.1 17.4 9.25 16.9 8.65 16 8.4052734375 15.6328125 8.1 13.7 8.0236328125 13.2658203125 7.95 12.75 7.6 10.3 6.45 9.5 4.95 8.35 1.6 6.75 1.55 6.7 1.5 6.7
L 1.5 5.1 1.4 5.15
Q 1.05 6.45 0.7 6.3 0.5 6.45 0.25 6.6 0.2 6.65 0.2 6.7 -3 8.85 -4.25 10.25 -5.25 11.3 -4.85 13.85 -4.82578125 14.028515625 -4.8 14.2 -4.462109375 16.8302734375 -4.65 17.3 -5 18.3 -6.9 19.1 -7.85 19.55 -8.7 19.75 -9.4 19.7 -9.95 19.55 -10.85 19.3 -11.35 18.95 -12.45 18.15 -11.8 16.8
L -7.3 14.6
Q -7.0685546875 14.484375 -6.95 14.225 -6.6591796875 13.621484375 -7.05 12.2 -8 9.55 -8.4 8.05 -8.95 6.2 -6.8 5.25 -5.7 4.75 -4.3 4.35
L 1.2 5.2 1.4 5.15
Q 1.45 4.85 1.5 4.55
L 1.5 5.1 Z
M 9.5 6.95
Q 9.5 7.35 9.5 7.85
M -25.1 -0.25
Q -24.65 0.5 -23.55 1.2 -21.9 2.35 -18.35 2.75 -15.3 3 -12.85 0.15 -12.4 -0.35 -12 -1 -13.6 -1.9 -13.6 -1.8 -14 -1.05 -14.6 -0.45 -15.8 0.8 -16.9 0.35 -17.55 0.1 -20.6 -1.8 -23.15 -3.35 -23.9 -3.15 -24.65 -2.9 -25.15 -2.2 -25.65 -1.45 -25.25 -0.55 -25.2 -0.4 -25.1 -0.25 Z
M -14 5.7
Q -13.45 5.5 -12.8 5.35 -12.5 5.25 -12.15 5.15 -11.5 5 -10.9 4.9 -10.55 4.8 -7.3 4 -9.8 3.15 -9.95 3.25 -10.05 3.25 -10.1 3.25 -11.1 3.55 -11.9 3.7 -12.95 3.9 -13.6 3.9 -14 3.95 -15.1 3.9 -15.75 3.85 -16.65 3.8 -18.3 3.8 -19.05 4.35 -19.3 4.55 -19.4 4.8 -20.2 6.25 -20.55 8.05 -20.85 9.65 -20.45 10.45
M -14 5.7
Q -15.8 6.25 -16.5 6.8 -17.4 7.5 -17.2 9.6 -17.15 10.1 -17.05 10.55 -16.95 11.05 -16.8 11.5
L -17 11.55 -18 11.6
Q -19.35 11.6 -20.1 10.95 -20.3 10.75 -20.45 10.45
M 0.7 6.3
Q 0.15 6 -0.45 5.75
L 1.2 5.2"/>

<path id="squid_head_0_Layer0_0_1_STROKES" stroke="#000000" stroke-width="3" stroke-linejoin="round" stroke-linecap="round" fill="none" d="
M 69.25 45.25
L 69.25 45.15 69.2 41.4
Q 70.5 36.3 73.05 30.5 75.85 24.15 71.7 17.6 68.8 13 59.65 4.9 52.6 -1.3 41.5 0.35 32 1.8 24.45 7.8 19 12.15 15.05 23.2 13.4 27.9 12.55 32 12.4 32.7 12.25 33.4 11.9 33.35 11.5 33.35 11.95 34.1 11.95 34.2
M 69.55 45.6
L 73.65 46.25
Q 78.7 47.85 77.7 54.55 76.65 61.2 68.65 59.9 64.45 59.85 61.4 56.4 52.05 66.25 42.05 60.05 19.25 72.75 18.05 51.45 -0.25 54.85 0 38.65 5.75 33.2 11.5 33.35
L 12.55 32
M 7.95 37.25
Q 7.9 37.35 7.7 37.55
M 11.95 34.2
L 11.9 34.2
Q 11.45 36.55 7.95 37.25"/>

<path id="Symbol_4_0_Layer0_0_1_STROKES" stroke="#000000" stroke-width="1" stroke-linejoin="round" stroke-linecap="round" fill="none" d="
M 5.1 -8
Q 6.8 -8 8 -6.7 9.2 -5.35 9.2 -3.45 9.2 -1.55 8 -0.25 6.8 1.1 5.1 1.1 3.4 1.1 2.2 -0.25 1 -1.55 1 -3.45 1 -5.35 2.2 -6.7 3.4 -8 5.1 -8 Z
M -0.95 -6.45
Q 0.25 -5.25 0.25 -3.5 0.25 -1.8 -0.95 -0.6 -2.15 0.65 -3.85 0.65 -5.55 0.65 -6.8 -0.6 -8 -1.8 -8 -3.5 -8 -5.25 -6.8 -6.45 -5.55 -7.65 -3.85 -7.65 -2.15 -7.65 -0.95 -6.45 Z"/>
</defs>

<g transform="matrix( 8.570938110351562, 0, 0, 8.570938110351562, 284,344.8) ">
<g transform="matrix( 1, 0, 0, 1, 0,0) ">
<use xlink:href="#Symbol_4_0_Layer1_0_FILL"/>

<use xlink:href="#Symbol_4_0_Layer1_0_1_STROKES"/>
</g>

<g filter="url(#Filter_1)" transform="matrix( 0.116668701171875, 0, 0, 0.116668701171875, -33.1,-40.2) ">
<g transform="matrix( 3.3107452392578125, 0, 0, 3.3107452392578125, 151.15,205.95) ">
<g transform="matrix( 1, 0, 0, 1, 0,0) ">
<use xlink:href="#squid_head_0_Layer0_0_FILL"/>

<use xlink:href="#squid_head_0_Layer0_0_1_STROKES"/>
</g>
</g>
</g>

<g transform="matrix( 1, 0, 0, 1, 0,0) ">
<use xlink:href="#Symbol_4_0_Layer0_0_FILL"/>

<use xlink:href="#Symbol_4_0_Layer0_0_1_STROKES"/>
</g>
</g>
</svg>
