
<svg xmlns="http://www.w3.org/2000/svg" version="1.1" xmlns:xlink="http://www.w3.org/1999/xlink" preserveAspectRatio="none" x="0px" y="0px" width="560px" height="544px" viewBox="0 0 560 544">
<defs>
<g id="Duplicate_Items_Folder_feet_0_Layer3_0_FILL">
<path fill="#FFCC33" stroke="none" d="
M 9.15 6.1
L 6.65 4.35
Q 5.55 4.25 4.75 4.55 4.65 4.55 4.45 4.6
L 4.4 4.6
Q 3.85 4.75 3.75 5.05
L 4.5 5.25
Q 4.75 6.4 3.95 6.4 3.65 6.25 3.4 6.15 3.3 6.6 3.2 7.15 3.35 7.25 3.45 7.4 4.2 8.35 5.15 8.35
L 6.6 7.8
Q 6.75 7.75 6.85 7.8
L 9.15 8.25 10 6.65
Q 9.55 6.35 9.15 6.1 Z"/>

<path fill="#000000" stroke="none" d="
M 6.65 4.35
L 9.15 6.1
Q 9.55 6.35 10 6.65
L 10.4 5.8
Q 10.05 5.55 9.7 5.2
L 7.05 3.5
Q 6.95 3.45 6.8 3.45 6 3.35 5.3 3.4 4.65 3.55 4.05 3.75 3.05 4.1 2.8 4.8 0.95 4.6 0.7 5.6 0.25 6.95 0.55 6.95 0.85 6.95 1.45 6.2 1.8 5.8 2.5 5.9 2.35 6.4 2.2 7.05 2.25 7.2 2.25 7.25 2.2 7.4 2.25 7.5 2.6 8 3 8.3 4.2 9.4 5.3 9.2 5.3 9.15 5.35 9.2
L 6.8 8.75 8.75 9.15 9.15 8.25 6.85 7.8
Q 6.75 7.75 6.6 7.8
L 5.15 8.35
Q 4.2 8.35 3.45 7.4 3.35 7.25 3.2 7.15 3.3 6.6 3.4 6.15 3.65 6.25 3.95 6.4 4.75 6.4 4.5 5.25
L 3.75 5.05
Q 3.85 4.75 4.4 4.6
L 4.45 4.6
Q 4.65 4.55 4.75 4.55 5.55 4.25 6.65 4.35 Z"/>
</g>

<g id="Duplicate_Items_Folder_feet_0_Layer2_0_FILL">
<path fill="#000000" stroke="none" d="
M 13.3 -4.25
Q 13.15 -4.15 13.15 -4 13.05 -3.9 13.05 -3.8 13.75 3.1 13.65 4.35
L 12.95 4.9
Q 12.3 5.35 10.05 5.35 9.6 5.35 9.05 5.35
L 5.75 5.2
Q 5.6 5.2 5.5 5.25 4.7 5.65 4.1 6.1 3.65 6.6 3.3 7.05 2.3 8.3 2.75 9.25 3 9.8 3.45 11.1 3.5 11.2 3.6 11.3 3.65 11.35 3.75 11.4 4.3 11.65 4.8 11.8 6.4 12.1 7.4 11.25 7.4 11.2 7.45 11.15
L 8.45 10 10.7 9.05 14.15 9.2
Q 14.95 9.25 15.3 9.55 15.55 9.8 15.5 10.15 15.5 10.25 15.55 10.4 15.55 10.5 15.65 10.55 18 12.5 19.35 11.3 20.5 11.35 21.45 9.25 21.5 9.15 21.45 9 21.45 8.9 21.4 8.8
L 19.8 6.5
Q 19.75 6.4 19.65 6.35
L 17.5 5.2 17.45 5.15 17.1 5 16.5 -0.45 16.6 -3.8
Q 16.65 -3.95 16.6 -4.05 16.55 -4.15 16.45 -4.25 16.3 -4.35 16.15 -4.3 14.75 -5.45 13.55 -4.3 13.4 -4.3 13.3 -4.25
M 15.65 -3.35
L 15.5 -0.55
Q 15.5 -0.5 15.5 -0.45
L 16.15 5.45
Q 16.15 5.6 16.25 5.7 16.3 5.85 16.45 5.85
L 17.15 6.05 19 7.2 20.4 9.1
Q 19.85 10.2 19.25 10.25 19.15 10.3 19.05 10.3 18.95 10.35 18.85 10.4 17.95 11.15 16.5 9.95 16.55 9.25 15.95 8.8 15.45 8.3 14.3 8.2
L 14.25 8.15 10.65 8.05
Q 10.55 8.05 10.45 8.15
L 8 9.15
Q 7.85 9.15 7.75 9.25
L 6.8 10.5
Q 5.95 11.1 4.7 10.7 4.55 10.6 4.35 10.6 3.95 9.5 3.7 8.85 3.55 8.35 4.05 7.7
L 4.1 7.7
Q 4.1 7.5 4.25 7.4 4.85 6.75 5.85 6.25
L 9.05 6.35
Q 9.6 6.35 10.1 6.35 12.8 6.25 13.6 5.7
L 13.65 5.7 14.45 5.05
Q 14.55 4.95 14.6 4.75 14.9 3.85 14.1 -3.35 14.8 -4.3 15.65 -3.35 Z"/>

<path fill="#FFCC33" stroke="none" d="
M 15.5 -0.55
L 15.65 -3.35
Q 14.8 -4.3 14.1 -3.35 14.9 3.85 14.6 4.75 14.55 4.95 14.45 5.05
L 13.65 5.7 13.6 5.7
Q 12.8 6.25 10.1 6.35 9.6 6.35 9.05 6.35
L 5.85 6.25
Q 4.85 6.75 4.25 7.4 4.1 7.5 4.1 7.7
L 4.05 7.7
Q 3.55 8.35 3.7 8.85 3.95 9.5 4.35 10.6 4.55 10.6 4.7 10.7 5.95 11.1 6.8 10.5
L 7.75 9.25
Q 7.85 9.15 8 9.15
L 10.45 8.15
Q 10.55 8.05 10.65 8.05
L 14.25 8.15 14.3 8.2
Q 15.45 8.3 15.95 8.8 16.55 9.25 16.5 9.95 17.95 11.15 18.85 10.4 18.95 10.35 19.05 10.3 19.15 10.3 19.25 10.25 19.85 10.2 20.4 9.1
L 19 7.2 17.15 6.05 16.45 5.85
Q 16.3 5.85 16.25 5.7 16.15 5.6 16.15 5.45
L 15.5 -0.45
Q 15.5 -0.5 15.5 -0.55 Z"/>
</g>

<g id="Duplicate_Items_Folder_feet_0_Layer1_0_FILL">
<path fill="#000000" stroke="none" d="
M 2.3 10.8
Q 2.35 9.7 4.6 9.6 5.25 9.05 4.45 8.2
L 2.7 8.85
Q 0.95 9.65 1.25 10.65 1.65 12.1 1.95 11.95 2.15 11.8 2.3 10.8
M 20.55 11.35
Q 21.35 10.6 20.5 9.45
L 19.55 8.65
Q 18.55 9.15 18.65 9.6 20.25 10.4 19.7 11.2 19.3 12.1 19.35 12.2 19.55 12.35 20.55 11.35 Z"/>
</g>

<g id="Duplicate_Items_Folder_feet_0_Layer0_0_FILL">
<path fill="#000000" stroke="none" d="
M 19.2 -8.1
Q 17.65 -9.6 15.45 -9.6 13.25 -9.6 11.65 -8.1 10.1 -6.6 10.1 -4.5 10.1 -2.85 11.1 -1.55
L 11.55 1.9
Q 11.6 2 11.7 2.05 11.8 2.15 11.95 2.15 12.05 2.1 12.1 2
L 13.25 0.55 14.75 2.85
Q 14.75 2.95 14.9 3 15 3 15.1 3 15.2 2.95 15.25 2.85
L 16.35 0.85 18.05 2
Q 18.1 2.05 18.2 2.05 18.25 2.05 18.35 2 18.45 1.9 18.5 1.85
L 19.4 -1.1
Q 20.75 -2.5 20.75 -4.5 20.75 -6.6 19.2 -8.1
M 15.45 -9
Q 17.4 -9 18.8 -7.7 20.15 -6.35 20.15 -4.5 20.15 -2.75 18.9 -1.45 18.85 -1.4 18.85 -1.35
L 18.05 1.3 16.4 0.15
Q 16.3 0.1 16.25 0.1 16.15 0.1 16.1 0.15 16 0.2 15.95 0.25
L 15 2.1 13.55 -0.1
Q 13.5 -0.2 13.4 -0.25 13.3 -0.3 13.25 -0.25 13.1 -0.25 13.05 -0.15
L 12.1 1.1 11.65 -1.7
Q 11.65 -1.8 11.6 -1.85 10.7 -3 10.7 -4.5 10.7 -6.35 12.1 -7.7 13.45 -9 15.45 -9 Z"/>

<path fill="#624137" stroke="none" d="
M 18.8 -7.7
Q 17.4 -9 15.45 -9 13.45 -9 12.1 -7.7 10.7 -6.35 10.7 -4.5 10.7 -3 11.6 -1.85 11.65 -1.8 11.65 -1.7
L 12.1 1.1 13.05 -0.15
Q 13.1 -0.25 13.25 -0.25 13.3 -0.3 13.4 -0.25 13.5 -0.2 13.55 -0.1
L 15 2.1 15.95 0.25
Q 16 0.2 16.1 0.15 16.15 0.1 16.25 0.1 16.3 0.1 16.4 0.15
L 18.05 1.3 18.85 -1.35
Q 18.85 -1.4 18.9 -1.45 20.15 -2.75 20.15 -4.5 20.15 -6.35 18.8 -7.7 Z"/>
</g>

<g id="Duplicate_Items_Folder_feet_bones_0_Layer3_0_FILL">
<path fill="#FFCC33" stroke="none" d="
M 9.15 6.1
L 6.65 4.35
Q 5.55 4.25 4.75 4.55 4.65 4.55 4.45 4.6
L 4.4 4.6
Q 3.85 4.75 3.75 5.05
L 4.5 5.25
Q 4.75 6.4 3.95 6.4 3.65 6.25 3.4 6.15 3.3 6.6 3.2 7.15 3.35 7.25 3.45 7.4 4.2 8.35 5.15 8.35
L 6.6 7.8
Q 6.75 7.75 6.85 7.8
L 9.15 8.25 10 6.65
Q 9.55 6.35 9.15 6.1 Z"/>

<path fill="#000000" stroke="none" d="
M 6.8 3.45
Q 6 3.35 5.3 3.4 4.65 3.55 4.05 3.75 3.05 4.1 2.8 4.8 0.95 4.6 0.7 5.6 0.25 6.95 0.55 6.95 0.85 6.95 1.45 6.2 1.8 5.8 2.5 5.9 2.35 6.4 2.2 7.05 2.25 7.2 2.25 7.25 2.2 7.4 2.25 7.5 2.6 8 3 8.3 4.2 9.4 5.3 9.2 5.3 9.15 5.35 9.2
L 6.8 8.75 8.75 9.15 9.15 8.25 6.85 7.8
Q 6.75 7.75 6.6 7.8
L 5.15 8.35
Q 4.2 8.35 3.45 7.4 3.35 7.25 3.2 7.15 3.3 6.6 3.4 6.15 3.65 6.25 3.95 6.4 4.75 6.4 4.5 5.25
L 3.75 5.05
Q 3.85 4.75 4.4 4.6
L 4.45 4.6
Q 4.65 4.55 4.75 4.55 5.55 4.25 6.65 4.35
L 9.15 6.1
Q 9.55 6.35 10 6.65
L 10.4 5.8
Q 10.05 5.55 9.7 5.2
L 7.05 3.5
Q 6.95 3.45 6.8 3.45 Z"/>
</g>

<g id="Duplicate_Items_Folder_feet_bones_0_Layer2_0_FILL">
<path fill="#000000" stroke="none" d="
M 13.55 -4.3
Q 13.4 -4.3 13.3 -4.25 13.15 -4.15 13.15 -4 13.05 -3.9 13.05 -3.8 13.75 3.1 13.65 4.35
L 12.95 4.9
Q 12.3 5.35 10.05 5.35 9.6 5.35 9.05 5.35
L 5.75 5.2
Q 5.6 5.2 5.5 5.25 4.7 5.65 4.1 6.1 3.65 6.6 3.3 7.05 2.3 8.3 2.75 9.25 3 9.8 3.45 11.1 3.5 11.2 3.6 11.3 3.65 11.35 3.75 11.4 4.3 11.65 4.8 11.8 6.4 12.1 7.4 11.25 7.4 11.2 7.45 11.15
L 8.45 10 10.7 9.05 14.15 9.2
Q 14.95 9.25 15.3 9.55 15.55 9.8 15.5 10.15 15.5 10.25 15.55 10.4 15.55 10.5 15.65 10.55 18 12.5 19.35 11.3 20.5 11.35 21.45 9.25 21.5 9.15 21.45 9 21.45 8.9 21.4 8.8
L 19.8 6.5
Q 19.75 6.4 19.65 6.35
L 17.5 5.2 17.45 5.15 17.1 5 16.5 -0.45 16.6 -3.8
Q 16.65 -3.95 16.6 -4.05 16.55 -4.15 16.45 -4.25 16.3 -4.35 16.15 -4.3 14.75 -5.45 13.55 -4.3
M 15.65 -3.35
L 15.5 -0.55
Q 15.5 -0.5 15.5 -0.45
L 16.15 5.45
Q 16.15 5.6 16.25 5.7 16.3 5.85 16.45 5.85
L 17.15 6.05 19 7.2 20.4 9.1
Q 19.85 10.2 19.25 10.25 19.15 10.3 19.05 10.3 18.95 10.35 18.85 10.4 17.95 11.15 16.5 9.95 16.55 9.25 15.95 8.8 15.45 8.3 14.3 8.2
L 14.25 8.15 10.65 8.05
Q 10.55 8.05 10.45 8.15
L 8 9.15
Q 7.85 9.15 7.75 9.25
L 6.8 10.5
Q 5.95 11.1 4.7 10.7 4.55 10.6 4.35 10.6 3.95 9.5 3.7 8.85 3.55 8.35 4.05 7.7
L 4.1 7.7
Q 4.1 7.5 4.25 7.4 4.85 6.75 5.85 6.25
L 9.05 6.35
Q 9.6 6.35 10.1 6.35 12.8 6.25 13.6 5.7
L 13.65 5.7 14.45 5.05
Q 14.55 4.95 14.6 4.75 14.9 3.85 14.1 -3.35 14.8 -4.3 15.65 -3.35 Z"/>

<path fill="#FFCC33" stroke="none" d="
M 15.5 -0.55
L 15.65 -3.35
Q 14.8 -4.3 14.1 -3.35 14.9 3.85 14.6 4.75 14.55 4.95 14.45 5.05
L 13.65 5.7 13.6 5.7
Q 12.8 6.25 10.1 6.35 9.6 6.35 9.05 6.35
L 5.85 6.25
Q 4.85 6.75 4.25 7.4 4.1 7.5 4.1 7.7
L 4.05 7.7
Q 3.55 8.35 3.7 8.85 3.95 9.5 4.35 10.6 4.55 10.6 4.7 10.7 5.95 11.1 6.8 10.5
L 7.75 9.25
Q 7.85 9.15 8 9.15
L 10.45 8.15
Q 10.55 8.05 10.65 8.05
L 14.25 8.15 14.3 8.2
Q 15.45 8.3 15.95 8.8 16.55 9.25 16.5 9.95 17.95 11.15 18.85 10.4 18.95 10.35 19.05 10.3 19.15 10.3 19.25 10.25 19.85 10.2 20.4 9.1
L 19 7.2 17.15 6.05 16.45 5.85
Q 16.3 5.85 16.25 5.7 16.15 5.6 16.15 5.45
L 15.5 -0.45
Q 15.5 -0.5 15.5 -0.55 Z"/>
</g>

<g id="Duplicate_Items_Folder_feet_bones_0_Layer1_0_FILL">
<path fill="#000000" stroke="none" d="
M 2.3 10.8
Q 2.35 9.7 4.6 9.6 5.25 9.05 4.45 8.2
L 2.7 8.85
Q 0.95 9.65 1.25 10.65 1.65 12.1 1.95 11.95 2.15 11.8 2.3 10.8
M 20.55 11.35
Q 21.35 10.6 20.5 9.45
L 19.55 8.65
Q 18.55 9.15 18.65 9.6 20.25 10.4 19.7 11.2 19.3 12.1 19.35 12.2 19.55 12.35 20.55 11.35 Z"/>
</g>

<g id="Duplicate_Items_Folder_feet_bones_0_Layer0_0_FILL">
<path fill="#000000" stroke="none" d="
M 19.2 -8.1
Q 17.65 -9.6 15.45 -9.6 13.25 -9.6 11.65 -8.1 10.1 -6.6 10.1 -4.5 10.1 -2.85 11.1 -1.55
L 11.55 1.9
Q 11.6 2 11.7 2.05 11.8 2.15 11.95 2.15 12.05 2.1 12.1 2
L 13.25 0.55 14.75 2.85
Q 14.75 2.95 14.9 3 15 3 15.1 3 15.2 2.95 15.25 2.85
L 16.35 0.85 18.05 2
Q 18.1 2.05 18.2 2.05 18.25 2.05 18.35 2 18.45 1.9 18.5 1.85
L 19.4 -1.1
Q 20.75 -2.5 20.75 -4.5 20.75 -6.6 19.2 -8.1
M 15.45 -9
Q 17.4 -9 18.8 -7.7 20.15 -6.35 20.15 -4.5 20.15 -2.75 18.9 -1.45 18.85 -1.4 18.85 -1.35
L 18.05 1.3 16.4 0.15
Q 16.3 0.1 16.25 0.1 16.15 0.1 16.1 0.15 16 0.2 15.95 0.25
L 15 2.1 13.55 -0.1
Q 13.5 -0.2 13.4 -0.25 13.3 -0.3 13.25 -0.25 13.1 -0.25 13.05 -0.15
L 12.1 1.1 11.65 -1.7
Q 11.65 -1.8 11.6 -1.85 10.7 -3 10.7 -4.5 10.7 -6.35 12.1 -7.7 13.45 -9 15.45 -9 Z"/>

<path fill="#624137" stroke="none" d="
M 18.8 -7.7
Q 17.4 -9 15.45 -9 13.45 -9 12.1 -7.7 10.7 -6.35 10.7 -4.5 10.7 -3 11.6 -1.85 11.65 -1.8 11.65 -1.7
L 12.1 1.1 13.05 -0.15
Q 13.1 -0.25 13.25 -0.25 13.3 -0.3 13.4 -0.25 13.5 -0.2 13.55 -0.1
L 15 2.1 15.95 0.25
Q 16 0.2 16.1 0.15 16.15 0.1 16.25 0.1 16.3 0.1 16.4 0.15
L 18.05 1.3 18.85 -1.35
Q 18.85 -1.4 18.9 -1.45 20.15 -2.75 20.15 -4.5 20.15 -6.35 18.8 -7.7 Z"/>
</g>

<g id="Duplicate_Items_Folder_body_copy_5_0_Layer1_0_FILL">
<path fill="#000000" stroke="none" d="
M 26.75 -4.6
Q 25.9 -5.4 21.8 -9.25 17.7 -13.25 8.9 -15.75 0.1 -18.3 -7.1 -13.85 -7.25 -13.85 -7.3 -13.7 -9.15 -10.9 -7.85 -8.3
L -11.75 -8.2
Q -14.95 -5.8 -15.6 -2.1 -16.55 5.1 -11.3 10.8 -6.05 16.55 8.65 15.05 23.3 13.65 24.6 11.4 25.9 9.2 27.5 8.65 28.9 6.95 30.05 5.1
L 44.05 3.45 34.55 1.4 43.05 -2.7 34.45 -2.75
Q 33.05 -3.3 40.6 -9.65
L 26.75 -4.6
M 2.7 -5.05
L 9.4 -5.05 7.7 -13.35
Q 8.05 -13.25 8.45 -13.15 16.15 -10.95 20.3 -7.65 23.15 -5.25 24.8 -4 24.8 -3.95 24.85 -3.9 25.4 -3.5 25.7 -3.25 25.7 -3.15 25.75 -3.15
L 25.15 -0.45
Q 25 0.35 24.3 1
L 26.25 2.1 24.5 4.15 27.7 5.15
Q 26.45 7.2 24.85 8.95 23.4 9.3 21.85 10.7 20.25 12.15 7.7 13.45 -4.9 14.8 -9.35 9.95 -10.2 9.05 -10.7 8.2
L -11.55 6.65 -5 7.3 -4.95 7.15 -4.4 1.3 2.75 2.85 2.7 -5.05
M 6.25 -13.8
L 7.8 -6.45 1.25 -6.45 1.25 1.5 -6 -0.05 -6.5 5.95 -9.4 5.65 -12.2 5.4 -12.25 5.35
Q -13.55 2.15 -12.9 -1.4 -12.5 -4.65 -9.7 -6.75
L -6.2 -6.8
Q -7.3 -9.1 -5.75 -11.5 -5.7 -11.6 -5.6 -11.65 -0.1 -15 6.25 -13.8
M 27.8 -1.95
L 26.65 -2.8
Q 32.7482421875 -5.0533203125 34.35 -6.05 36.0017578125 -6.9966796875 32.3 -3.1
L 30.85 -1.2 36.8 -1.4 31.4 2 36.8 3.6 28.2 4.35 26.5 3.75 28.25 1.8 25.75 0.3 27.8 -1.95 Z"/>

<path fill="#FFFFFF" stroke="none" d="
M 26.65 -2.8
L 27.8 -1.95 25.75 0.3 28.25 1.8 26.5 3.75 28.2 4.35 36.8 3.6 31.4 2 36.8 -1.4 30.85 -1.2 32.3 -3.1
Q 36.0017578125 -6.9966796875 34.35 -6.05 32.7482421875 -5.0533203125 26.65 -2.8
M 7.8 -6.45
L 6.25 -13.8
Q -0.1 -15 -5.6 -11.65 -5.7 -11.6 -5.75 -11.5 -7.3 -9.1 -6.2 -6.8
L -9.7 -6.75
Q -12.5 -4.65 -12.9 -1.4 -13.55 2.15 -12.25 5.35 -12.5 4.7 -12.65 4.05 -11.1 4.95 -9.4 5.65
L -6.5 5.95 -6 -0.05 1.25 1.5 1.25 -6.45 7.8 -6.45 Z"/>

<path fill="#CCCCCC" stroke="none" d="
M -12.25 5.35
L -12.2 5.4 -9.4 5.65
Q -11.1 4.95 -12.65 4.05 -12.5 4.7 -12.25 5.35 Z"/>

<path fill="#4B312C" stroke="none" d="
M -4.95 7.15
L -5 7.3 -11.55 6.65 -10.7 8.2
Q -10.2 9.05 -9.35 9.95 -4.9 14.8 7.7 13.45 20.25 12.15 21.85 10.7 23.4 9.3 24.85 8.95 26.45 7.2 27.7 5.15
L 24.5 4.15 26.25 2.1 24.3 1
Q 22.3 3.55 18.55 5.4 11.15 9.1 1.15 8.15 -2.1 7.85 -4.95 7.15 Z"/>

<path fill="#624137" stroke="none" d="
M 9.4 -5.05
L 2.7 -5.05 2.75 2.85 -4.4 1.3 -4.95 7.15
Q -2.1 7.85 1.15 8.15 11.15 9.1 18.55 5.4 22.3 3.55 24.3 1 25 0.35 25.15 -0.45
L 25.75 -3.15
Q 25.7 -3.15 25.7 -3.25 25.4 -3.5 24.85 -3.9 24.8 -3.95 24.8 -4 23.15 -5.25 20.3 -7.65 16.15 -10.95 8.45 -13.15 8.05 -13.25 7.7 -13.35
L 9.4 -5.05 Z"/>
</g>

<g id="Duplicate_Items_Folder_wing_0_Layer0_0_FILL">
<path fill="#000000" stroke="none" d="
M 6.55 -3.9
Q 6.05 -1.8 6.2 -0.2 6.65 3.05 8.3 6.2 9.95 9.3 10.9 10.75 11.55 11.7 12.3 12.5 13.6 14 15.05 15.2 17.95 17.45 21.45 18.65
L 24.2 19.45 22.3 11.4 27.65 13.35 23.25 4.45 28.7 5.9 21.2 -8.1
Q 15.85 -11.15 8.5 -8.8 7.15 -6.05 6.55 -3.9
M 7.3 -0.1
Q 7.2 -1.3 7.55 -3 8.1 -4.9 9.15 -7.45 14.3 -9.6 19.6 -6.85
L 19.7 -6.85
Q 18.4 0.15 16.7 4.25 14.55 9.8 11.7 9.65 10.45 8.1 9.4 5.9 7.5 2.35 7.3 -0.1
M 25.25 3.5
L 21.05 2.5 23.4 8 24.45 10.55 20.2 9 22.2 17.15 18.25 15.1
Q 16.5 13.9 14.15 12 13.65 11.65 13.25 11.25 16.05 11.75 18.25 5.75 19.6 1.75 20.7 -4.9
L 25.25 3.5 Z"/>

<path fill="#CCCCCC" stroke="none" d="
M 24.45 10.55
L 23.4 8 18.25 5.75
Q 16.05 11.75 13.25 11.25 13.65 11.65 14.15 12 16.5 13.9 18.25 15.1
L 22.2 17.15 20.2 9 24.45 10.55 Z"/>

<path fill="#FFFFFF" stroke="none" d="
M 21.05 2.5
L 25.25 3.5 20.7 -4.9
Q 19.6 1.75 18.25 5.75
L 23.4 8 21.05 2.5 Z"/>

<path fill="#624137" stroke="none" d="
M 9.15 -7.45
Q 8.1 -4.9 7.55 -3 11.55 3.8 16.7 4.25 18.4 0.15 19.7 -6.85
L 19.6 -6.85
Q 14.3 -9.6 9.15 -7.45 Z"/>

<path fill="#4B312C" stroke="none" d="
M 7.55 -3
Q 7.2 -1.3 7.3 -0.1 7.5 2.35 9.4 5.9 10.45 8.1 11.7 9.65 14.55 9.8 16.7 4.25 11.55 3.8 7.55 -3 Z"/>
</g>

<g id="Duplicate_Items_Folder_beak_0_Layer1_0_FILL">
<path fill="#000000" stroke="none" d="
M 8 -5.2
Q 8.2 -5.65 8.4 -6.2 -5 -7.6 -8.9 -4.35 -12.8 -1.15 -13.2 -0.1 -13.65 0.95 -13.35 2.45
L -12.75 2.65
Q -2.25 6.75 3.45 6.6 9.1 6.45 9.65 6.4
L 9.85 6.4
Q 9.1 5.65 8.9 4.85 7.8 3.25 7.55 1.55
L 7.75 0.95
Q 7.05 -2.15 8 -5.2
M 6.65 -5.3
Q 6.65 -5.1 6.45 -4.95 5.25 -1.95 6.2 0.95
L 6.2 1.95
Q -1.7 -0.55 -12.35 1.4 -8.15 -4.7 -2.1 -4.9 3.9 -5.2 6.65 -5.3
M 7.15 4.2
L 7.55 4.55 7.55 4.85
Q 7.55 5.2 7.8 5.55
L 7.75 5.55
Q 7.45 5.6 2.7 5.35 -2.05 5.1 -9.7 2.3 1 3.45 6.65 2.8 6.65 3.05 7.15 4.2 Z"/>

<path fill="#ECBE0B" stroke="none" d="
M 7.55 4.55
L 7.15 4.2
Q 6.65 3.05 6.65 2.8 1 3.45 -9.7 2.3 -2.05 5.1 2.7 5.35 7.45 5.6 7.75 5.55
L 7.8 5.55
Q 7.55 5.2 7.55 4.85
L 7.55 4.55 Z"/>

<path fill="#F4C713" stroke="none" d="
M 6.45 -4.95
Q 6.65 -5.1 6.65 -5.3 3.9 -5.2 -2.1 -4.9 -8.15 -4.7 -12.35 1.4 -1.7 -0.55 6.2 1.95
L 6.2 0.95
Q 5.25 -1.95 6.45 -4.95 Z"/>
</g>

<g id="Duplicate_Items_Folder_eye_copy_6_0_Layer0_0_FILL">
<path fill="#000000" stroke="none" d="
M 9.9 -0.25
Q 8.5 -4.3 6.9 -7.35 5.3 -10.4 1.5 -10.9 -2.3 -11.4 -4.3 -10.35 -6.3 -9.3 -7.65 -6.65 -8.95 -4.05 -8.25 1 -7.4 5.95 -2.4 7.35 2.5 8.3 6.9 6.1 11 3.85 9.9 -0.25
M 1.15 -9.05
Q 4.05 -8.45 5.15 -6.4 6.05 -4.75 7.05 -1.9 7.05 -1.65 7.1 -1.6 7.1 -1.4 7.2 -1.25
L 7.3 -1.2
Q 7.55 -0.5 7.6 0.3 7.65 0.75 7.55 1.25 7.4 2.5 6.75 3.1 6.7 3.1 6.65 3.15 6.05 3.85 5.15 4.55 4.05 5.25 2.65 5.25 1.1 5.2 0.45 5.2 -0.15 5.05 -0.85 4.95
L -1.9 4.75
Q -2.55 4.6 -3.1 4.5 -5.45 3.85 -5.9 1 -6.7 -1.05 -6.7 -2.35 -7.05 -3.7 -6.6 -5 -6.15 -6.4 -5.7 -7.2 -5.2 -7.95 -3.8 -8.8 -2.4 -9.65 -0.7 -9.35 0.95 -9.05 1.15 -9.05 Z"/>

<path fill="#990000" stroke="none" d="
M 6.65 3.15
Q 3.65 3.25 1.1 2.9 -1.5 2.5 -5.9 0.75 -5.9 0.85 -5.9 1 -5.45 3.85 -3.1 4.5 -2.55 4.6 -1.9 4.75
L -0.85 4.95
Q -0.15 5.05 0.45 5.2 1.1 5.2 2.65 5.25 4.05 5.25 5.15 4.55 6.05 3.85 6.65 3.15 Z"/>

<path fill="#FFFFFF" stroke="none" d="
M 5.15 -6.4
Q 4.05 -8.45 1.15 -9.05 0.95 -9.05 -0.7 -9.35 -2.4 -9.65 -3.8 -8.8 -5.2 -7.95 -5.7 -7.2 -6.15 -6.4 -6.6 -5 -7.05 -3.7 -6.7 -2.35 -6.7 -1.05 -5.9 1 -5.9 0.85 -5.9 0.75 -1.5 2.5 1.1 2.9 3.65 3.25 6.65 3.15 6.7 3.1 6.75 3.1 7.4 2.5 7.55 1.25 7.65 0.75 7.6 0.3 7.55 -0.5 7.3 -1.2
L 7.2 -1.25
Q 7.1 -1.4 7.1 -1.6 7.05 -1.65 7.05 -1.9 6.05 -4.75 5.15 -6.4 Z"/>
</g>

<g id="Duplicate_Items_Folder_pupil_copy_8_0_Layer0_0_FILL">
<path fill="#CC0000" stroke="none" d="
M 2.8 -3.25
L 3.95 -4.4 3.1 -5.2 1.7 -3.75 0.35 -5.1 -0.45 -4.25 1.05 -2.8 0.1 -1.8 1.15 -0.8 2.15 -1.9 3.05 -1 4.05 -2.05 2.8 -3.25 Z"/>
</g>
</defs>

<g transform="matrix( 6.18157958984375, 0, 0, 6.1850128173828125, 232.7,400.4) ">
<g transform="matrix( 1, 0, 0, 1, 0,0) ">
<use xlink:href="#Duplicate_Items_Folder_feet_0_Layer3_0_FILL"/>
</g>

<g transform="matrix( 1, 0, 0, 1, 0,0) ">
<use xlink:href="#Duplicate_Items_Folder_feet_0_Layer2_0_FILL"/>
</g>

<g transform="matrix( 1, 0, 0, 1, 0,0) ">
<use xlink:href="#Duplicate_Items_Folder_feet_0_Layer1_0_FILL"/>
</g>

<g transform="matrix( 1, 0, 0, 1, 0,0) ">
<use xlink:href="#Duplicate_Items_Folder_feet_0_Layer0_0_FILL"/>
</g>
</g>

<g transform="matrix( 7.8300018310546875, 0, 0, 7.83416748046875, 159,404.15) ">
<g transform="matrix( 1, 0, 0, 1, 0,0) ">
<use xlink:href="#Duplicate_Items_Folder_feet_bones_0_Layer3_0_FILL"/>
</g>

<g transform="matrix( 1, 0, 0, 1, 0,0) ">
<use xlink:href="#Duplicate_Items_Folder_feet_bones_0_Layer2_0_FILL"/>
</g>

<g transform="matrix( 1, 0, 0, 1, 0,0) ">
<use xlink:href="#Duplicate_Items_Folder_feet_bones_0_Layer1_0_FILL"/>
</g>

<g transform="matrix( 1, 0, 0, 1, 0,0) ">
<use xlink:href="#Duplicate_Items_Folder_feet_bones_0_Layer0_0_FILL"/>
</g>
</g>

<g transform="matrix( 6.7652587890625, 3.941925048828125, -3.944000244140625, 6.7688751220703125, 243.15,235.7) ">
<g transform="matrix( 1, 0, 0, 1, 0,0) ">
<use xlink:href="#Duplicate_Items_Folder_body_copy_5_0_Layer1_0_FILL"/>
</g>
</g>

<g transform="matrix( 7.6433868408203125, 1.699066162109375, -1.699951171875, 7.6474456787109375, 182.15,238.65) ">
<g transform="matrix( 1, 0, 0, 1, 0,0) ">
<use xlink:href="#Duplicate_Items_Folder_wing_0_Layer0_0_FILL"/>
</g>
</g>

<g transform="matrix( 5.7712554931640625, 2.5693817138671875, -2.57073974609375, 5.7743072509765625, 96.65,188.95) ">
<g transform="matrix( 1, 0, 0, 1, 0,0) ">
<use xlink:href="#Duplicate_Items_Folder_beak_0_Layer1_0_FILL"/>
</g>
</g>

<g transform="matrix( 7.6433868408203125, 1.699066162109375, -1.699951171875, 7.6474456787109375, 188.8,149.65) ">
<g transform="matrix( 1, 0, 0, 1, 0,0) ">
<use xlink:href="#Duplicate_Items_Folder_eye_copy_6_0_Layer0_0_FILL"/>
</g>
</g>

<g transform="matrix( 7.6433868408203125, 1.699066162109375, -1.699951171875, 7.6474456787109375, 161.7,126.35) ">
<g transform="matrix( 1, 0, 0, 1, -0.85,2.5) ">
<use xlink:href="#Duplicate_Items_Folder_pupil_copy_8_0_Layer0_0_FILL"/>
</g>
</g>
</svg>
