
<svg xmlns="http://www.w3.org/2000/svg" version="1.1" xmlns:xlink="http://www.w3.org/1999/xlink" preserveAspectRatio="none" x="0px" y="0px" width="560px" height="544px" viewBox="0 0 560 544">
<defs>
<radialGradient id="Gradient_1" gradientUnits="userSpaceOnUse" cx="0" cy="0" r="5.927860596370329" fx="0" fy="0" gradientTransform="matrix( 0.97421319312672, 0.2256294624774005, -0.2256294624774005, 0.97421319312672, -11.4,23.9) " spreadMethod="pad">
<stop  offset="56.470588235294116%" stop-color="#F7F7EE"/>

<stop  offset="75.68627450980392%" stop-color="#99FF00"/>
</radialGradient>

<radialGradient id="Gradient_2" gradientUnits="userSpaceOnUse" cx="0" cy="0" r="9.431098822512677" fx="0" fy="0" gradientTransform="matrix( 0.9754960872681105, -0.2200167805523184, 0.2200167805523184, 0.9754960872681105, -0.95,22.1) " spreadMethod="pad">
<stop  offset="56.470588235294116%" stop-color="#F7F7EE"/>

<stop  offset="75.68627450980392%" stop-color="#99FF00"/>
</radialGradient>

<g id="Duplicate_Items_Folder_foot_copy_3_0_Layer0_0_FILL">
<path fill="#000000" stroke="none" d="
M 4.1 -3.5
Q 4.1 -3.9 3.75 -4.2 3.4 -4.5 2.85 -4.7 2.45 -4.85 2.05 -4.85 1.3 -4.95 0.75 -4.5 -0.3 -3.45 -0.55 -2.8 -0.8 -2.05 -1.2 -0.65
L -1.35 0.15
Q -1.4 0.3 -1.6 0.75 -1.95 1.2 -2.4 1.95
L -2.6 2.25 -2.65 2.25 -3.35 3.05
Q -3.95 4.55 -2.55 5.85 -2.15 6.25 -1.6 6.65 -1.5 6.6 -1.45 6.7 1.05 8.3 2.25 7.5 3.4 6.7 3.65 6.4 3.75 6.25 3.8 5.9
L 3.85 5.9
Q 3.9 5.75 3.9 5.65 3.95 5.45 3.95 5.35 4 4.9 4.1 4.4 4.25 3.7 4.45 2.95 4.45 1.75 4.5 0.1 4.5 -1.5 4.35 -2.15 4.2 -2.7 4.1 -3.5 Z"/>
</g>

<g id="Duplicate_Items_Folder_head_copy_10_0_Layer6_0_FILL">
<path fill="#CC66FF" stroke="none" d="
M 9.05 18.95
Q 8.1 15 6.1 11.55 5.9 11.25 5.75 11 5.65 10.8 5.55 10.6 2.86796875 6.9599609375 0.1 5.45
L -2.9 4.35
Q -4.85 4 -6.8 4.15 -9.9369140625 4.3828125 -12.45 6.35 -14.9390625 8.723046875 -16.15 11.3 -17.1 12.95 -17.9 14.95 -19.1 17.75 -19.95 21.25 -22.2 30.15 -19.35 36.5 0.8 40.35 9.05 18.95 Z"/>

<path fill="#B952ED" stroke="none" d="
M 9.85 27.8
Q 9.85 22.15 9.05 18.95 0.8 40.35 -19.35 36.5 -19.2 36.8 -19.05 37.15 -15.8 43.7 -7.2 44.15 1.35 44.6 5.6 39.05 9.8 33.45 9.85 27.8 Z"/>
</g>

<g id="Duplicate_Items_Folder_head_copy_10_0_Layer4_0_FILL">
<path fill="url(#Gradient_1)" stroke="none" d="
M -7.95 21.9
Q -8.15 21.3 -8.4 20.95
L -11.55 21.4 -14 21.05
Q -14.75 21.9 -15.2 23.15 -15.9 25.2 -15.3 26.9 -14.7 28.7 -13.1 29.25 -11.6 29.75 -10.15 28.75 -8.8 27.7 -8.15 25.9 -8.1 25.75 -8.05 25.6 -7.4 23.65 -7.95 21.9 Z"/>

<path fill="url(#Gradient_2)" stroke="none" d="
M 0.8 29.85
Q 2.35 29.75 3.25 28.15 4.3 26.7 4.05 24.8 3.85 23.2 2.75 22
L 0.35 22.35 -2.05 21.6
Q -2.5 21.95 -2.85 22.35 -3.75 23.85 -3.5 25.7 -3.45 26.45 -3.1 27.05 -2.8 28 -1.9 28.8 -0.6 30 0.8 29.85 Z"/>
</g>

<g id="Duplicate_Items_Folder_head_copy_10_0_Layer3_0_FILL">
<path fill="#B952ED" stroke="none" d="
M -12.9 14.75
Q -12.85 14.55 -13 14.4 -13.1 14.3 -13.25 14.25 -13.4 14.25 -13.55 14.35 -13.65 14.5 -13.7 14.7 -13.7 14.9 -13.6 15 -13.5 15.15 -13.35 15.15 -13.2 15.2 -13.05 15.05 -12.9 14.95 -12.9 14.75
M -14.3 12.2
Q -14.583984375 12.0896484375 -15 12.25 -15.3556640625 12.4041015625 -15.65 12.6 -15.9 12.8 -15.95 13.15 -16 13.55 -15.75 13.8 -15.5 14.05 -15.15 14.05 -14.7982421875 14.094921875 -14.5 13.7 -14.14921875 13.3091796875 -14.1 12.8 -14.0140625 12.30390625 -14.3 12.2
M -1.5 12.2
Q -1.8 12.15 -2.1 12.35 -2.35 12.55 -2.4 12.85 -2.4 13.15 -2.2 13.4 -1.95 13.65 -1.65 13.7 -1.3 13.75 -1.05 13.55 -0.75 13.35 -0.75 13.05 -0.7 12.75 -0.95 12.5 -1.15 12.25 -1.5 12.2
M 3.8 13.6
Q 3.85 13.25 3.35 12.95 2.85 12.65 2.05 12.55 1.25 12.5 0.65 12.7 0.1 12.9 0.05 13.25 0 13.60234375 0.5 14 1.05 14.4423828125 1.85 14.4 2.65 14.407421875 3.2 14.15 3.75 13.9474609375 3.8 13.6
M 2.1 10.05
Q 2.15 9.35 1.5 8.75 0.851953125 8.20625 -0.25 7.6 -1.305859375 6.98125 -2 7.75 -2.644140625 8.58125 -2.7 9.45 -2.7580078125 10.3080078125 -1.6 10.9 -0.3802734375 11.53828125 0.15 11.6 0.6681640625 11.6599609375 1.3 11.2 1.9939453125 10.796484375 2.1 10.05 Z"/>
</g>

<g id="Duplicate_Items_Folder_head_copy_10_0_Layer1_0_FILL">
<path fill="#990000" stroke="none" d="
M -4.6 8.45
L -4.6 8.25 -5.35 7.6 -4.6 8.45
M -4.9 4.35
L -4.8 3.95 -6.15 2.3 -5.75 7.15 -5.35 7.6 -4.6 8.25 -4.9 4.35
M -3.35 3
L -3.5 4.5 -3.45 7.6 -2.85 7.6 -2.95 2.75 -3.35 3 Z"/>

<path fill="#CC0000" stroke="none" d="
M -4.6 8.45
L -4.5 8.35 -4.6 8.25 -4.6 8.45
M -3.5 4.5
L -3.35 3 -4.8 3.95 -4.9 4.35 -4.6 8.25 -4.5 8.35 -3.45 7.6 -3.5 4.5 Z"/>

<path fill="#D7D2CA" stroke="none" d="
M -2.25 -3.15
Q -2.5 -3 -2.7 -2.85
L -3.35 3 -2.95 2.75 -2.25 -3.15 Z"/>

<path fill="#E4E2DE" stroke="none" d="
M -1.8 -8.85
Q -2.3 -8.95 -2.6 -8.75 -1.35 -8.45 -0.95 -6.95 -0.5 -5.4 -1.4 -5.1 -2.4 -4.75 -4.05 -2.9
L -4.8 3.95 -3.35 3 -2.7 -2.85
Q -2.5 -3 -2.25 -3.15 -2 -3.5 -1.7 -3.75
L -1.5 -3.95
Q -0.4 -3.4 0.15 -4.1 0.7 -4.75 0.7 -5.15 0.7 -5.85 0.4 -6.9 -0.05 -8.5 -1.8 -8.85
M -6.25 -6.4
L -5.65 -7.55 -5.75 -7.8
Q -7.15 -9.1 -8.85 -9.1 -9.1 -9.1 -9.4 -9 -8.1 -8.85 -7.25 -7.85
L -6.25 -6.4 Z"/>

<path fill="#FFFFFF" stroke="none" d="
M -2.6 -8.75
Q -2.3 -8.95 -1.8 -8.85 -0.05 -8.5 0.4 -6.9 0.7 -5.85 0.7 -5.15 1.3 -5.75 0.8 -7.25 0.4 -9 -1.25 -9.1 -2.75 -9.5 -3.75 -8.15
L -4.4 -6.75 -5.35 -8.25
Q -6.7 -9.5 -8.35 -9.45 -10.1 -9.55 -9.8 -7.75 -9.55 -5.35 -8.35 -4.65 -7.15 -4.05 -6.4 -5.3
L -6.15 2.3 -4.8 3.95 -4.05 -2.9
Q -2.4 -4.75 -1.4 -5.1 -0.5 -5.4 -0.95 -6.95 -1.35 -8.45 -2.6 -8.75
M -5.65 -7.55
L -6.25 -6.4 -7.25 -7.85
Q -8.1 -8.85 -9.4 -9 -9.1 -9.1 -8.85 -9.1 -7.15 -9.1 -5.75 -7.8
L -5.65 -7.55 Z"/>
</g>

<g id="Duplicate_Items_Folder_head_copy_10_0_Layer0_0_FILL">
<path fill="#FFBFFF" stroke="none" d="
M -3.3 4
L -2.9 3.3 -2.9 1.15 -2.95 0.2
Q -4.2 -0.85 -5.5 0
L -5.6 1.05 -5.6 2.9 -5.6 3.6
Q -4.3 4.6 -3.3 4 Z"/>

<path fill="#FF99FF" stroke="none" d="
M 2.25 -1.5
Q 1.4 -2.15 0.6 -2 -0.25 -1.85 -1.05 -1.25 -1.95 -0.7 -2.15 0.1 -2.35 0.85 -2.9 1.15
L -2.9 3.3
Q -2.85 3.35 -2.8 3.5 -2.4 4.3 -1.85 4.95 -1.2 5.6 0 6.05 1.35 6.5 2.2 5.85 3.1 5.2 3.05 3.9 3 2.55 2.4 2 2.95 1.5 3 0.3 3.1 -0.9 2.25 -1.5
M -6.3 -0.25
Q -6.45 -1.15 -7.45 -1.6 -8.5 -2.15 -9 -2.4 -9.5 -2.75 -10.35 -2.25 -11.35 -1.75 -11.45 -0.55 -11.5 0.6 -11.05 1.25 -11.6 1.7 -11.85 3 -12.05 4.35 -11.25 5.1 -10.45 5.85 -9.1 5.55 -7.8 5.2 -7.15 4.7 -6.5 4.1 -6 3.35 -5.9 3.1 -5.6 2.9
L -5.6 1.05
Q -6.15 0.65 -6.3 -0.25 Z"/>
</g>

<path id="Duplicate_Items_Folder_head_copy_10_0_Layer6_0_1_STROKES" stroke="#000000" stroke-width="0.75" stroke-linejoin="round" stroke-linecap="round" fill="none" d="
M 9.05 18.95
Q 9.85 22.15 9.85 27.8 9.8 33.45 5.6 39.05 1.35 44.6 -7.2 44.15 -15.8 43.7 -19.05 37.15 -19.2 36.8 -19.35 36.5 -22.2 30.15 -19.95 21.25 -19.1 17.75 -17.9 14.95 -17.1 12.95 -16.15 11.3 -14.9390625 8.723046875 -12.45 6.35 -9.9369140625 4.3828125 -6.8 4.15 -4.85 4 -2.9 4.35
L 0.1 5.45
Q 2.86796875 6.9599609375 5.55 10.6 5.65 10.8 5.75 11 5.9 11.25 6.1 11.55 8.1 15 9.05 18.95 Z"/>

<path id="Duplicate_Items_Folder_head_copy_10_0_Layer5_0_1_STROKES" stroke="#000000" stroke-width="1" stroke-linejoin="round" stroke-linecap="round" fill="none" d="
M 8.5 30.05
L 14.1 31.45 13.2 26.7 11.75 26.5 11.4 24.8
M 13.3 24.4
L 13.2 26.7 14.85 25.45 15.25 23.6
M -19.9 27.7
L -25.5 29.1 -24.6 24.35 -26.25 23.1 -26.65 21.25
M -24.7 22.05
L -24.6 24.35 -23.15 24.15 -22.8 22.45"/>

<path id="Duplicate_Items_Folder_head_copy_10_0_Layer4_0_1_STROKES" stroke="#000000" stroke-width="0.5" stroke-linejoin="round" stroke-linecap="round" fill="none" d="
M 2.75 22
Q 3.85 23.2 4.05 24.8 4.3 26.7 3.25 28.15 2.35 29.75 0.8 29.85 -0.6 30 -1.9 28.8 -2.8 28 -3.1 27.05 -2.95 28.5 -2 29.45 -1.45 30 -0.65 30.45 -0.5 30.45 -0.4 30.55 0.4 30.75 1.25 30.85 2.1 31.05 3.1 30.95
M -8.4 20.95
Q -8.15 21.3 -7.95 21.9 -7.4 23.65 -8.05 25.6 -8.1 25.75 -8.15 25.9 -9.15 30.55 -14.45 30.85
M -3.1 27.05
Q -3.45 26.45 -3.5 25.7 -3.75 23.85 -2.85 22.35 -2.5 21.95 -2.05 21.6
M -14 21.05
Q -14.75 21.9 -15.2 23.15 -15.9 25.2 -15.3 26.9 -14.7 28.7 -13.1 29.25 -11.6 29.75 -10.15 28.75 -8.8 27.7 -8.15 25.9"/>

<path id="Duplicate_Items_Folder_head_copy_10_0_Layer4_0_2_STROKES" stroke="#000000" stroke-width="0.75" stroke-linejoin="round" stroke-linecap="round" fill="none" d="
M 2.75 22
L 4.4 21.85
M -2.05 21.6
L 0.35 22.35 2.75 22
M -4.85 20.85
L -2.05 21.6
M -8.4 20.95
L -6.7 20.65
M -14 21.05
L -11.55 21.4 -8.4 20.95
M -16.15 20.75
L -14 21.05
M -9.55 34.3
Q -7.6 38.45 -2.15 37.4"/>

<path id="Duplicate_Items_Folder_head_copy_10_0_Layer2_0_1_STROKES" stroke="#000000" stroke-width="0.7" stroke-linejoin="round" stroke-linecap="round" fill="none" d="
M 4.05 21.7
Q 6.1 20.8 5.95 18.8
M 2.5 22.1
Q 4.15 20.75 3.3 19.55
M 0.9 22.15
Q 1.7 21.4 1.6 20.45
M -12.7 21.05
Q -13.48359375 20.2861328125 -13.4 19.35
M -14.3 21
Q -15.9259765625 19.6306640625 -15.1 18.45
M -15.85 20.6
Q -17.8798828125 19.68984375 -17.75 17.7"/>

<path id="Duplicate_Items_Folder_head_copy_10_0_Layer1_0_1_STROKES" stroke="#000000" stroke-width="0.75" stroke-linejoin="round" stroke-linecap="round" fill="none" d="
M 0.7 -5.15
Q 1.3 -5.75 0.8 -7.25 0.4 -9 -1.25 -9.1 -2.75 -9.5 -3.75 -8.15
L -4.4 -6.75 -5.35 -8.25
Q -6.7 -9.5 -8.35 -9.45 -10.1 -9.55 -9.8 -7.75 -9.55 -5.35 -8.35 -4.65 -7.15 -4.05 -6.4 -5.3
L -6.15 2.3
M -2.25 -3.15
Q -2 -3.5 -1.7 -3.75
L -1.5 -3.95
Q -0.4 -3.4 0.15 -4.1 0.7 -4.75 0.7 -5.15
M -2.85 7.6
L -2.95 2.75
M -6.6 6.55
L -5.35 7.6
M -6.15 2.3
L -5.75 7.15
M -5.35 7.6
L -4.6 8.25 -4.5 8.35 -1.85 7.2
M -2.95 2.75
L -2.25 -3.15"/>

<path id="Duplicate_Items_Folder_head_copy_10_0_Layer0_0_1_STROKES" stroke="#000000" stroke-width="0.75" stroke-linejoin="round" stroke-linecap="round" fill="none" d="
M -5.6 2.9
Q -5.9 3.1 -6 3.35 -6.5 4.1 -7.15 4.7 -7.8 5.2 -9.1 5.55 -10.45 5.85 -11.25 5.1 -12.05 4.35 -11.85 3 -11.6 1.7 -11.05 1.25 -11.5 0.6 -11.45 -0.55 -11.35 -1.75 -10.35 -2.25 -9.5 -2.75 -9 -2.4 -8.5 -2.15 -7.45 -1.6 -6.45 -1.15 -6.3 -0.25 -6.15 0.65 -5.6 1.05
L -5.5 0
Q -4.2 -0.85 -2.95 0.2
L -2.9 1.15
Q -2.35 0.85 -2.15 0.1 -1.95 -0.7 -1.05 -1.25 -0.25 -1.85 0.6 -2 1.4 -2.15 2.25 -1.5 3.1 -0.9 3 0.3 2.95 1.5 2.4 2 3 2.55 3.05 3.9 3.1 5.2 2.2 5.85 1.35 6.5 0 6.05 -1.2 5.6 -1.85 4.95 -2.4 4.3 -2.8 3.5 -2.85 3.35 -2.9 3.3
L -3.3 4
Q -4.3 4.6 -5.6 3.6
L -5.6 2.9 -5.6 1.05
M -2.9 1.15
L -2.9 3.3"/>
</defs>

<g transform="matrix( -6.0545806884765625, -1.8870697021484375, -1.784759521484375, 5.726226806640625, 255.6,495.55) ">
<g transform="matrix( 1, 0, 0, 1, 0,0) ">
<use xlink:href="#Duplicate_Items_Folder_foot_copy_3_0_Layer0_0_FILL"/>
</g>
</g>

<g transform="matrix( 6.319061279296875, -1.73406982421875, 1.7327423095703125, 6.3143310546875, 331.1,491.6) ">
<g transform="matrix( 1, 0, 0, 1, 0,0) ">
<use xlink:href="#Duplicate_Items_Folder_foot_copy_3_0_Layer0_0_FILL"/>
</g>
</g>

<g transform="matrix( 8.8272705078125, -0.8912353515625, 0.873443603515625, 8.650283813476562, 311.2,100.75) ">
<g transform="matrix( 1, 0, 0, 1, 0,0) ">
<use xlink:href="#Duplicate_Items_Folder_head_copy_10_0_Layer6_0_FILL"/>

<use xlink:href="#Duplicate_Items_Folder_head_copy_10_0_Layer6_0_1_STROKES"/>
</g>

<g transform="matrix( 1, 0, 0, 1, 0,0) ">
<use xlink:href="#Duplicate_Items_Folder_head_copy_10_0_Layer5_0_1_STROKES"/>
</g>

<g transform="matrix( 1, 0, 0, 1, 0,0) ">
<use xlink:href="#Duplicate_Items_Folder_head_copy_10_0_Layer4_0_FILL"/>

<use xlink:href="#Duplicate_Items_Folder_head_copy_10_0_Layer4_0_1_STROKES"/>

<use xlink:href="#Duplicate_Items_Folder_head_copy_10_0_Layer4_0_2_STROKES"/>
</g>

<g transform="matrix( 1, 0, 0, 1, 0,0) ">
<use xlink:href="#Duplicate_Items_Folder_head_copy_10_0_Layer3_0_FILL"/>
</g>

<g transform="matrix( 1, 0, 0, 1, 0,0) ">
<use xlink:href="#Duplicate_Items_Folder_head_copy_10_0_Layer2_0_1_STROKES"/>
</g>

<g transform="matrix( 1, 0, 0, 1, 0,0) ">
<use xlink:href="#Duplicate_Items_Folder_head_copy_10_0_Layer1_0_FILL"/>

<use xlink:href="#Duplicate_Items_Folder_head_copy_10_0_Layer1_0_1_STROKES"/>
</g>

<g transform="matrix( 1, 0, 0, 1, 0,0) ">
<use xlink:href="#Duplicate_Items_Folder_head_copy_10_0_Layer0_0_FILL"/>

<use xlink:href="#Duplicate_Items_Folder_head_copy_10_0_Layer0_0_1_STROKES"/>
</g>
</g>
</svg>
