
<svg xmlns="http://www.w3.org/2000/svg" version="1.1" xmlns:xlink="http://www.w3.org/1999/xlink" preserveAspectRatio="none" x="0px" y="0px" width="560px" height="544px" viewBox="0 0 560 544">
<defs>
<filter id="Filter_1" x="-20%" y="-20%" width="140%" height="140%" color-interpolation-filters="sRGB">
<feColorMatrix in="SourceGraphic" type="matrix" values="0.39 0 0 0 0 0 0.39 0 0 0 0 0 0.39 0 0 0 0 0 1 0" result="result1"/>
</filter>

<filter id="Filter_2" x="-20%" y="-20%" width="140%" height="140%" color-interpolation-filters="sRGB">
<feColorMatrix in="SourceGraphic" type="matrix" values="0.97 0 0 0 0.03137254901960784 0 0.97 0 0 0.03137254901960784 0 0 0.97 0 0.03137254901960784 0 0 0 1 0" result="result1"/>
</filter>

<filter id="Filter_3" x="-20%" y="-20%" width="140%" height="140%" color-interpolation-filters="sRGB">
<feColorMatrix in="SourceGraphic" type="matrix" values="0.9 0 0 0 0.10196078431372549 0 0.9 0 0 0.10196078431372549 0 0 0.9 0 0.10196078431372549 0 0 0 1 0" result="result1"/>
</filter>

<filter id="Filter_4" x="-20%" y="-20%" width="140%" height="140%" color-interpolation-filters="sRGB">
<feColorMatrix in="SourceGraphic" type="matrix" values="0.7 0 0 0 0 0 0.7 0 0 0 0 0 0.7 0 0 0 0 0 1 0" result="result1"/>
</filter>

<g id="Duplicate_Items_Folder_leaf_2_0_Layer2_0_FILL">
<path fill="#444444" stroke="none" d="
M 11.05 -56.7
Q 11.1697265625 -58.1826171875 11.2 -59.35 3.492578125 -42.22109375 26.75 -12.05 26.630078125 12.5181640625 5.55 24.85 6.5130859375 24.9888671875 7.45 25.2 14.5 26.8 21.65 24.7 36.4 20.35 42.2 3.9 47.95 -12.3 35 -27.6 32 -31.15 26.25 -35.7 26.2 -33.35 24.6 -31.65 22.95 -29.9 20.65 -29.9 18.35 -29.9 16.7 -31.65 15.05 -33.4 15.05 -35.85 15.05 -38.3 16.7 -40.05 17.6 -41 18.65 -41.4 17.6 -42.2 14.15 -45.3 10.4 -48.65 11.05 -56.7 Z"/>

<path fill="#7B7B7B" stroke="none" d="
M -46.45 -9.6
Q -48.5 -9.6 -50.25 -10.35 -50.7951171875 -6.1029296875 -52.65 5.9 -54.5140625 17.9099609375 -38.95 25.65 -23.3771484375 33.433984375 -13.9 33 -4.43359375 32.6173828125 5.55 24.85 26.630078125 12.5181640625 26.75 -12.05 3.492578125 -42.22109375 11.2 -59.35 11.4052734375 -64.5197265625 10.1 -63.5 8.45 -62.3 -13 -52.65 -32.25 -44 -43.1 -27.1 -41.35 -26.45 -39.9 -25.05 -37.2 -22.4 -37.2 -18.65 -37.2 -14.9 -39.9 -12.25 -42.6 -9.6 -46.45 -9.6 Z"/>
</g>

<g id="Duplicate_Items_Folder_leaf_2_0_Layer1_0_FILL">
<path fill="#0276C1" stroke="none" d="
M 11.05 -56.7
Q 11.1697265625 -58.1826171875 11.2 -59.35 3.492578125 -42.22109375 26.75 -12.05 26.630078125 12.5181640625 5.55 24.85 6.5130859375 24.9888671875 7.45 25.2 14.5 26.8 21.65 24.7 36.4 20.35 42.2 3.9 47.95 -12.3 35 -27.6 32 -31.15 26.25 -35.7 26.2 -33.35 24.6 -31.65 22.95 -29.9 20.65 -29.9 18.35 -29.9 16.7 -31.65 15.05 -33.4 15.05 -35.85 15.05 -38.3 16.7 -40.05 17.6 -41 18.65 -41.4 17.6 -42.2 14.15 -45.3 10.4 -48.65 11.05 -56.7 Z"/>

<path fill="#0099FF" stroke="none" d="
M -46.45 -9.6
Q -48.5 -9.6 -50.25 -10.35 -50.7951171875 -6.1029296875 -52.65 5.9 -54.5140625 17.9099609375 -38.95 25.65 -23.3771484375 33.433984375 -13.9 33 -4.43359375 32.6173828125 5.55 24.85 26.630078125 12.5181640625 26.75 -12.05 3.492578125 -42.22109375 11.2 -59.35 11.4052734375 -64.5197265625 10.1 -63.5 8.45 -62.3 -13 -52.65 -32.25 -44 -43.1 -27.1 -41.35 -26.45 -39.9 -25.05 -37.2 -22.4 -37.2 -18.65 -37.2 -14.9 -39.9 -12.25 -42.6 -9.6 -46.45 -9.6 Z"/>
</g>

<g id="Duplicate_Items_Folder_leaf_2_0_Layer0_0_FILL">
<path fill="#000000" stroke="none" d="
M 29.9 -27.05
Q 23.7 -26.5 17.8 -24.75 7.3 -21.65 -3.1 -15.4
L -3.25 -30.1
Q -0.1 -46.85 9.15 -60.45 -1.85 -48.3 -5.35 -32 -17.75 -32.8 -28.05 -39.5
L -31.55 -33.85
Q -19.6 -29.4 -5.9 -28.7
L -5 2.45
Q -23.55 -2.7 -43.6 -1.75
L -44.3 2.85
Q -23.4 0.2 -4.8 5.15
L -0.8 25.05 -1.7 13.25
Q 5.65 9.4 13.05 7.15 24.3 3.75 35.7 4.1
L 37.5 -1.1
Q 25.85 -0.05 15.9 3.1 6.8 5.95 -1.85 10.55
L -3.1 -11.65
Q 7.75 -18.3 18.85 -20.95 25.2 -22.5 31.7 -22.65
L 29.9 -27.05 Z"/>
</g>

<g id="Duplicate_Items_Folder_leaf_1_0_Layer3_0_FILL">
<path fill="#000000" stroke="none" d="
M 11.05 -56.7
Q 11.1697265625 -58.1826171875 11.2 -59.35 11.4052734375 -64.5197265625 10.1 -63.5 8.45 -62.3 -13 -52.65 -32.25 -44 -43.1 -27.1 -41.35 -26.45 -39.9 -25.05 -37.2 -22.4 -37.2 -18.65 -37.2 -14.9 -39.9 -12.25 -42.6 -9.6 -46.45 -9.6 -48.5 -9.6 -50.25 -10.35 -50.8 -6.1 -51.3 0.3 -52.6 16.35 -34.4 22 -16.2 27.6 -7.9 25.6 -5.6330078125 25.050390625 -3.45 24.75 -1.4837890625 29.3974609375 2.05 34.25 6.45234375 40.345703125 10.25 37.85 14.0982421875 35.3515625 15.75 32.65
L 16.4 31.55
Q 13.45 30.3 10 29.6 3.25390625 28.1615234375 2.9 24.55 4.2466796875 24.645703125 5.55 24.85 6.5130859375 24.9888671875 7.45 25.2 14.5 26.8 21.65 24.7 36.4 20.35 42.2 3.9 47.95 -12.3 35 -27.6 32 -31.15 26.25 -35.7 26.2 -33.35 24.6 -31.65 22.95 -29.9 20.65 -29.9 18.35 -29.9 16.7 -31.65 15.05 -33.4 15.05 -35.85 15.05 -38.3 16.7 -40.05 17.6 -41 18.65 -41.4 17.6 -42.2 14.15 -45.3 10.4 -48.65 11.05 -56.7 Z"/>
</g>

<g id="Duplicate_Items_Folder_leaf_1_0_Layer2_0_FILL">
<path fill="#0066FF" stroke="none" d="
M 16.35 31.55
Q 13.45 30.3 10 29.6 3.2 28.15 2.9 24.5 2.6 20.85 -1.1 21.45 -2.7455078125 21.709765625 -4.35 22.5 -2.3482421875 28.204296875 2.05 34.25 6.45234375 40.345703125 10.25 37.85 14.0982421875 35.3515625 15.75 32.65
L 16.35 31.55 Z"/>
</g>

<g id="Duplicate_Items_Folder_leaf_1_0_Layer1_0_FILL">
<path fill="#0142A0" stroke="none" d="
M 11.05 -56.7
Q 11.1697265625 -58.1826171875 11.2 -59.35 3.492578125 -42.22109375 26.75 -12.05 26.630078125 12.5181640625 5.55 24.85 6.5130859375 24.9888671875 7.45 25.2 14.5 26.8 21.65 24.7 36.4 20.35 42.2 3.9 47.95 -12.3 35 -27.6 32 -31.15 26.25 -35.7 26.2 -33.35 24.6 -31.65 22.95 -29.9 20.65 -29.9 18.35 -29.9 16.7 -31.65 15.05 -33.4 15.05 -35.85 15.05 -38.3 16.7 -40.05 17.6 -41 18.65 -41.4 17.6 -42.2 14.15 -45.3 10.4 -48.65 11.05 -56.7 Z"/>

<path fill="#0066FF" stroke="none" d="
M -46.45 -9.6
Q -48.5 -9.6 -50.25 -10.35 -50.8 -6.1 -51.3 0.3 -52.6 16.35 -34.4 22 -16.2 27.6 -7.9 25.6 -0.7388671875 23.8638671875 5.55 24.85 26.630078125 12.5181640625 26.75 -12.05 3.492578125 -42.22109375 11.2 -59.35 11.4052734375 -64.5197265625 10.1 -63.5 8.45 -62.3 -13 -52.65 -32.25 -44 -43.1 -27.1 -41.35 -26.45 -39.9 -25.05 -37.2 -22.4 -37.2 -18.65 -37.2 -14.9 -39.9 -12.25 -42.6 -9.6 -46.45 -9.6 Z"/>
</g>

<g id="Duplicate_Items_Folder_leaf_1_0_Layer0_0_FILL">
<path fill="#000000" stroke="none" d="
M 35.65 -28.45
Q 28.28671875 -27.902734375 21.35 -26.2 8.951171875 -23.0650390625 -3.35 -16.8
L -3.55 -31.5
Q 0.1810546875 -48.2416015625 11.1 -61.9 -1.9224609375 -49.7064453125 -6.05 -33.4 -20.6779296875 -34.1833984375 -32.85 -40.9
L -37 -35.25
Q -22.90703125 -30.809375 -6.65 -30.1
L -5.6 1.05
Q -27.5611328125 -4.088671875 -51.25 -3.15
L -52.1 1.45
Q -27.3255859375 -1.1974609375 -5.4 3.75
L -0.65 23.65 -1.7 11.85
Q 6.9505859375 7.99296875 15.7 5.75 28.9826171875 2.36484375 42.5 2.7
L 44.6 -2.5
Q 30.8529296875 -1.4361328125 19.1 1.7 8.3734375 4.5630859375 -1.9 9.15
L -3.35 -13.05
Q 9.44765625 -19.7236328125 22.5 -22.35 30.090625 -23.8794921875 37.75 -24.05
L 35.65 -28.45 Z"/>
</g>

<path id="Duplicate_Items_Folder_leaf_2_0_Layer2_0_1_STROKES" stroke="#000000" stroke-width="4" stroke-linejoin="round" stroke-linecap="round" fill="none" d="
M 5.55 24.85
Q -4.43359375 32.6173828125 -13.9 33.025 -23.3771484375 33.433984375 -38.95 25.675 -54.5140625 17.9099609375 -52.65 5.9 -50.7951171875 -6.1029296875 -50.25 -10.35 -48.5 -9.6 -46.45 -9.6 -42.6 -9.6 -39.9 -12.25 -37.2 -14.9 -37.2 -18.65 -37.2 -22.4 -39.9 -25.05 -41.35 -26.45 -43.1 -27.1 -32.25 -44 -13 -52.65 8.45 -62.3 10.1 -63.5 11.4052734375 -64.5197265625 11.225 -59.35 11.1697265625 -58.1826171875 11.05 -56.7 10.4 -48.65 14.15 -45.3 17.6 -42.2 18.65 -41.4 17.6 -41 16.7 -40.05 15.05 -38.3 15.05 -35.85 15.05 -33.4 16.7 -31.65 18.35 -29.9 20.65 -29.9 22.95 -29.9 24.6 -31.65 26.2 -33.35 26.25 -35.7 32 -31.15 35 -27.6 47.95 -12.3 42.2 3.9 36.4 20.35 21.65 24.7 14.5 26.8 7.45 25.2 6.5130859375 24.9888671875 5.55 24.85 26.630078125 12.5181640625 26.75 -12.05 3.492578125 -42.22109375 11.225 -59.35"/>

<path id="Duplicate_Items_Folder_leaf_1_0_Layer3_0_1_STROKES" stroke="#000000" stroke-width="4" stroke-linejoin="round" stroke-linecap="round" fill="none" d="
M 11.05 -56.7
Q 10.4 -48.65 14.15 -45.3 17.6 -42.2 18.65 -41.4 17.6 -41 16.7 -40.05 15.05 -38.3 15.05 -35.85 15.05 -33.4 16.7 -31.65 18.35 -29.9 20.65 -29.9 22.95 -29.9 24.6 -31.65 26.2 -33.35 26.25 -35.7 32 -31.15 35 -27.6 47.95 -12.3 42.2 3.9 36.4 20.35 21.65 24.7 14.5 26.8 7.45 25.2 6.5130859375 24.9888671875 5.55 24.85 4.2466796875 24.645703125 2.9 24.55 3.25390625 28.1615234375 10 29.6 13.45 30.3 16.4 31.55
L 15.75 32.65
Q 14.0982421875 35.3515625 10.275 37.85 6.45234375 40.345703125 2.05 34.275 -1.4837890625 29.3974609375 -3.45 24.775 -5.6330078125 25.050390625 -7.9 25.6 -16.2 27.6 -34.4 22 -52.6 16.35 -51.3 0.3 -50.8 -6.1 -50.25 -10.35 -48.5 -9.6 -46.45 -9.6 -42.6 -9.6 -39.9 -12.25 -37.2 -14.9 -37.2 -18.65 -37.2 -22.4 -39.9 -25.05 -41.35 -26.45 -43.1 -27.1 -32.25 -44 -13 -52.65 8.45 -62.3 10.1 -63.5 11.4052734375 -64.5197265625 11.225 -59.35 11.1697265625 -58.1826171875 11.05 -56.7 Z"/>
</defs>

<g transform="matrix( -1.001190185546875, -1.25213623046875, 1.607574462890625, -1.2854156494140625, 148.5,309.45) ">
<g transform="matrix( 1, 0, 0, 1, 0,0) ">
<use filter="url(#Filter_1)" xlink:href="#Duplicate_Items_Folder_leaf_2_0_Layer2_0_FILL"/>

<use filter="url(#Filter_1)" xlink:href="#Duplicate_Items_Folder_leaf_2_0_Layer2_0_1_STROKES"/>
</g>

<g transform="matrix( 1, 0, 0, 1, 0,0) ">
<use filter="url(#Filter_1)" xlink:href="#Duplicate_Items_Folder_leaf_2_0_Layer1_0_FILL"/>
</g>

<g transform="matrix( 1, 0, 0, 1, 0,0) ">
<use filter="url(#Filter_1)" xlink:href="#Duplicate_Items_Folder_leaf_2_0_Layer0_0_FILL"/>
</g>
</g>

<g transform="matrix( 2.0423431396484375, -1.293182373046875, 1.6888275146484375, 2.05816650390625, 267.15,221.9) ">
<g transform="matrix( 1, 0, 0, 1, 0,0) ">
<use filter="url(#Filter_2)" xlink:href="#Duplicate_Items_Folder_leaf_1_0_Layer3_0_FILL"/>

<use filter="url(#Filter_2)" xlink:href="#Duplicate_Items_Folder_leaf_1_0_Layer3_0_1_STROKES"/>
</g>

<g transform="matrix( 1, 0, 0, 1, 0,0) ">
<use filter="url(#Filter_2)" xlink:href="#Duplicate_Items_Folder_leaf_1_0_Layer2_0_FILL"/>
</g>

<g transform="matrix( 1, 0, 0, 1, 0,0) ">
<use filter="url(#Filter_2)" xlink:href="#Duplicate_Items_Folder_leaf_1_0_Layer1_0_FILL"/>
</g>

<g transform="matrix( 1, 0, 0, 1, 0,0) ">
<use filter="url(#Filter_2)" xlink:href="#Duplicate_Items_Folder_leaf_1_0_Layer0_0_FILL"/>
</g>
</g>

<g transform="matrix( 1.26544189453125, -1.5825958251953125, -2.0318756103515625, -1.6246490478515625, 397.3,297.85) ">
<g transform="matrix( 1, 0, 0, 1, 0,0) ">
<use filter="url(#Filter_1)" xlink:href="#Duplicate_Items_Folder_leaf_2_0_Layer2_0_FILL"/>

<use filter="url(#Filter_1)" xlink:href="#Duplicate_Items_Folder_leaf_2_0_Layer2_0_1_STROKES"/>
</g>

<g transform="matrix( 1, 0, 0, 1, 0,0) ">
<use filter="url(#Filter_1)" xlink:href="#Duplicate_Items_Folder_leaf_2_0_Layer1_0_FILL"/>
</g>

<g transform="matrix( 1, 0, 0, 1, 0,0) ">
<use filter="url(#Filter_1)" xlink:href="#Duplicate_Items_Folder_leaf_2_0_Layer0_0_FILL"/>
</g>
</g>

<g transform="matrix( 0.924774169921875, 0.667694091796875, -0.7757720947265625, 1.0743865966796875, 366.55,234.25) ">
<g transform="matrix( 1, 0, 0, 1, 0,0) ">
<use filter="url(#Filter_3)" xlink:href="#Duplicate_Items_Folder_leaf_1_0_Layer3_0_FILL"/>

<use filter="url(#Filter_3)" xlink:href="#Duplicate_Items_Folder_leaf_1_0_Layer3_0_1_STROKES"/>
</g>

<g transform="matrix( 1, 0, 0, 1, 0,0) ">
<use filter="url(#Filter_3)" xlink:href="#Duplicate_Items_Folder_leaf_1_0_Layer2_0_FILL"/>
</g>

<g transform="matrix( 1, 0, 0, 1, 0,0) ">
<use filter="url(#Filter_3)" xlink:href="#Duplicate_Items_Folder_leaf_1_0_Layer1_0_FILL"/>
</g>

<g transform="matrix( 1, 0, 0, 1, 0,0) ">
<use filter="url(#Filter_3)" xlink:href="#Duplicate_Items_Folder_leaf_1_0_Layer0_0_FILL"/>
</g>
</g>

<g transform="matrix( 0.8463134765625, -0.296112060546875, 0.3439788818359375, 0.98321533203125, 291.1,238.95) ">
<g transform="matrix( 1, 0, 0, 1, 0,0) ">
<use filter="url(#Filter_4)" xlink:href="#Duplicate_Items_Folder_leaf_1_0_Layer3_0_FILL"/>

<use filter="url(#Filter_4)" xlink:href="#Duplicate_Items_Folder_leaf_1_0_Layer3_0_1_STROKES"/>
</g>

<g transform="matrix( 1, 0, 0, 1, 0,0) ">
<use filter="url(#Filter_4)" xlink:href="#Duplicate_Items_Folder_leaf_1_0_Layer2_0_FILL"/>
</g>

<g transform="matrix( 1, 0, 0, 1, 0,0) ">
<use filter="url(#Filter_4)" xlink:href="#Duplicate_Items_Folder_leaf_1_0_Layer1_0_FILL"/>
</g>

<g transform="matrix( 1, 0, 0, 1, 0,0) ">
<use filter="url(#Filter_4)" xlink:href="#Duplicate_Items_Folder_leaf_1_0_Layer0_0_FILL"/>
</g>
</g>

<g transform="matrix( -2.388885498046875, -1.1293182373046875, 1.3165435791015625, -2.7849884033203125, 255.8,334.3) ">
<g transform="matrix( 1, 0, 0, 1, 0,0) ">
<use xlink:href="#Duplicate_Items_Folder_leaf_2_0_Layer2_0_FILL"/>

<use xlink:href="#Duplicate_Items_Folder_leaf_2_0_Layer2_0_1_STROKES"/>
</g>

<g transform="matrix( 1, 0, 0, 1, 0,0) ">
<use xlink:href="#Duplicate_Items_Folder_leaf_2_0_Layer1_0_FILL"/>
</g>

<g transform="matrix( 1, 0, 0, 1, 0,0) ">
<use xlink:href="#Duplicate_Items_Folder_leaf_2_0_Layer0_0_FILL"/>
</g>
</g>
</svg>
