
<svg xmlns="http://www.w3.org/2000/svg" version="1.1" xmlns:xlink="http://www.w3.org/1999/xlink" preserveAspectRatio="none" x="0px" y="0px" width="560px" height="544px" viewBox="0 0 560 544">
<defs>
<linearGradient id="Gradient_1" gradientUnits="userSpaceOnUse" x1="12.15" y1="-18.55" x2="-10.35" y2="-18.55" spreadMethod="pad">
<stop  offset="0%" stop-color="#000000"/>

<stop  offset="44.31372549019608%" stop-color="#FFFFFF"/>

<stop  offset="100%" stop-color="#333333"/>

<stop  offset="100%" stop-color="#6C35C1"/>
</linearGradient>

<g id="body_front_0_Layer3_0_FILL">
<path fill="#151515" stroke="none" d="
M -13.45 29
Q -13.3 28.85 -13.25 28.7
L -15.15 29.4 -15.25 27.7
Q -15.35 27.85 -15.45 28 -16.05 28.8 -17.4 30.45 -18.1 31.5 -18.8 34 -19.35 36.1 -18.95 37.55 -18.5 39.05 -18.2 38.05 -17.75 37.05 -15.95 33.75 -14.1 30.45 -13.45 29 Z"/>

<path fill="#C3DDDD" stroke="none" d="
M -11.25 18.15
Q -12.1 19.45 -13.15 22.25 -14.15 25 -14.75 26.4 -15.3 27.7 -15.25 27.7
L -15.15 29.4 -13.25 28.7
Q -12.9 27.95 -12.05 26.65 -11.1 25 -10.8 24.4 -10.45 23.55 -8.95 21.95 -8.2 21.2 -5.8 18.7 -4.45 17.4 -2.35 13.95 -1.3 12.15 0.35 9.4 1.1 8.3 -0.95 6.8 -2.05 6.05 -4.75 4.95 -6.3 10.95 -7.3 13.05 -7.75 14.1 -9.1 15.5 -10.4 16.85 -11.25 18.15 Z"/>
</g>

<g id="body_front_0_Layer2_0_FILL">
<path fill="#151515" stroke="none" d="
M -8.7 31.95
Q -8.9 32.95 -9.4 35 -9.55 36.25 -9.2 38.8 -8.85 40.95 -7.85 42.1 -6.85 43.25 -6.95 42.2 -7 41.15 -6.7 37.4 -6.4 33.6 -6.4 32 -6.4 31.9 -6.4 31.7
L -7.8 33.1 -8.6 31.6
Q -8.65 31.75 -8.7 31.95 Z"/>

<path fill="#C3DDDD" stroke="none" d="
M -8.1 17.95
Q -8.7 19.7 -8.95 21.25 -9.25 22.8 -9 25.75 -8.75 28.7 -8.7 30.15 -8.65 31.65 -8.6 31.6
L -7.8 33.1 -6.4 31.7
Q -6.35 30.9 -6.15 29.35 -5.95 27.45 -5.95 26.75 -5.95 25.85 -5.25 23.75 -4.95 22.75 -3.75 19.5 -3.1 17.7 -2.65 13.7 -2.4 11.6 -2.1 8.45 -1.85 7.1 -4.35 6.65 -5.6 6.4 -8.6 6.6 -7.5 12.6 -7.5 14.95 -7.5 16.15 -8.1 17.95 Z"/>
</g>

<g id="Duplicate_Items_Folder_wing_copy_0_Layer0_0_FILL">
<path fill="#E9E9E9" stroke="none" d="
M 24.2 -6.05
Q 21.55 -15.75 25.25 -19.85 32.35 -23.45 39.4 -15.9 42.15 -22.25 50.4 -18.65 45.7 -30.5 34.3 -40.3 30.8 -43.35 26.95 -45.9 23.85 -47.85 23.85 -47.9 23.5 -42.25 22.4 -35.35 20.15 -21.5 16.25 -16 12.3 -10.4 5.65 -7.25 -0.2 -4.5 -0.35 -5.35 -0.648828125 -5.5990234375 -0.95 0.05
L -0.95 0.1
Q 13.75 -12.05 24.2 -6.05 Z"/>

<path fill="#151515" stroke="none" d="
M 25.25 -19.85
Q 21.55 -15.75 24.2 -6.05 13.75 -12.05 -0.95 0.1
L -0.95 0.05
Q -1.35 -0.05 -1.7 6.3 -1.7 6.2 -0.45 6.4 2.15 5.6 8.35 0.45 14.6 -4.75 26.1 0.9 31.85 3.7 36.3 7.45 30.85 -6.95 27.9 -11.45 35 -13.35 48.8 4.6 62.55 22.5 61.6 20.1 60.65 17.65 58.85 9.6 55.25 -6.5 50.45 -18.5 50.4 -18.6 50.4 -18.65 42.15 -22.25 39.4 -15.9 32.35 -23.45 25.25 -19.85 Z"/>
</g>

<g id="body_front_0_Layer0_0_FILL">
<path fill="#FFFFFF" stroke="none" d="
M -7.7 -9.35
L -7.85 -9.35 -7.75 -9.25 -7.7 -9.35
M -8 -9.7
L -8 -9.7 -8 -9.65 -8 -9.7
M -8.3 -10.05
Q -8.39921875 -10.0103515625 -8.25 -9.9 -8.1712890625 -9.7884765625 -8 -9.7
L -8 -9.7 -8.1 -9.9
Q -8.1197265625 -9.939453125 -8.15 -10 -8.1697265625 -10.0197265625 -8.2 -10.05
L -8.3 -10.05
M -7.95 -10.2
L -8 -10.15 -8 -10.05 -7.95 -10
Q -7.9041015625 -10.069921875 -7.9 -10.15
L -7.9 -10.2 -7.9 -10.25 -7.9 -10.2 -7.95 -10.2
M -7.75 -10.75
L -7.9 -10.7
Q -7.86640625 -10.565625 -7.8 -10.45 -7.761328125 -10.584375 -7.75 -10.75
M -5.25 -11.65
Q -6.75 -11.55 -7.2 -10.8
L -5.25 -11.65
M -7.4 -10.8
L -7.45 -10.95
Q -7.4314453125 -10.84453125 -7.45 -10.8
L -7.4 -10.8
M 8.55 -4.9
Q 6.9 -6.5748046875 5.95 -6.65 8.4095703125 9.1419921875 -1 17.1 -0.7455078125 17.048828125 0.8 17.1 2.386328125 17.2029296875 4.3 16.45 6.2181640625 15.6958984375 6.15 14.85
L 6.9 14.1
Q 6.775390625 14.075390625 6.8 14.05 10.9982421875 9.941015625 10.7 0.15 10.2 -3.2251953125 8.55 -4.9
M 3.9 -12.5
L 3.9 -12.55
Q -0.408203125 -13.064453125 -5.25 -11.65
L -7.2 -10.8 -7.25 -10.8 -7.4 -10.8 -7.45 -10.8 -7.75 -10.75
Q -7.761328125 -10.584375 -7.8 -10.45 -7.7828125 -10.365625 -7.75 -10.3
L -7.85 -10.15 -7.9 -10.2 -7.9 -10.15
Q -7.9041015625 -10.069921875 -7.95 -10
L -7.85 -10 -7.75 -9.9 -7.65 -9.85
Q -7.6740234375 -9.8259765625 -7.7 -9.85 -7.7478515625 -9.8478515625 -7.8 -9.9
L -7.9 -9.85 -7.95 -9.85 -7.95 -9.65
Q -7.800390625 -9.5267578125 -7.6 -9.4 -7.6470703125 -9.074609375 -7.7 -9.15
L -7.85 -9.1 -7.8 -9.2
Q -7.94296875 -9.351953125 -8.05 -9.5 -8.6212890625 -8.0728515625 -9.35 -7.6 -10.024609375 -7.12890625 -15.05 -4.55 -20.0806640625 -1.926953125 -19 5.65 -18.9 5.7796875 -18.9 5.95 -18.9 7.05 -19.2 8.15 -20.55 11.3 -22.3 11.8 -21.7 14.85 -14.65 14.65 -7 10.25 -5.9 5.85 -9.65 7 -12.85 6.7 -6.3099609375 1.619921875 -2.35 -3.5 1.6099609375 -8.619921875 3.9 -12.5 Z"/>

<path fill="#151515" stroke="none" d="
M 11.4 11.15
Q 12.866015625 7.2986328125 12.25 4.6 11.64453125 1.950390625 10.7 0.15 10.9982421875 9.941015625 6.8 14.05 6.775390625 14.075390625 6.9 14.1 6.75 14.3 6.75 14.55 6.8 15 6.8 15.6 6.8 15.85 6.8 16.15 6.8 19.3 10.25 22.6
L 13.7 25.25 12.5 23.85
Q 11.1552734375 21.6994140625 10.55 18.35 9.9337890625 15.051171875 11.4 11.15
M 5.95 -6.65
Q 5.35 -9.3 4.45 -10.15 3.55 -11 3.9 -12.5 1.6099609375 -8.619921875 -2.35 -3.5 -6.3099609375 1.619921875 -12.85 6.7 -9.65 7 -5.9 5.85 -7 10.25 -14.65 14.65 -13.55 16.05 -11.25 15.5 -9 14.95 -7.85 14.45 -7.3 14.25 -7.15 14.1 -11 20.3302734375 -9.85 18.9 -8.7 17.48125 -5.9 18.2 -3.1 18.904296875 -1 17.1 8.4095703125 9.1419921875 5.95 -6.65 Z"/>

<path fill="#000000" stroke="none" d="
M 4.2 -13.55
Q 4.541796875 -14.45 2.3 -15.1 -5.6802734375 -14.9029296875 -8 -11.05 -7.980078125 -11 -8 -10.95 -7.9341796875 -10.829296875 -7.9 -10.7
L -7.75 -10.75 -7.45 -10.8
Q -7.4314453125 -10.84453125 -7.45 -10.95
L -7.4 -10.8 -7.25 -10.8 -7.2 -10.8
Q -6.75 -11.55 -5.25 -11.65 -0.408203125 -13.064453125 3.9 -12.55 3.902734375 -12.6 4.2 -13.55 Z"/>
</g>

<g id="Duplicate_Items_Folder_head_copy_0_Layer7_0_FILL">
<path fill="#C3DDDD" stroke="none" d="
M -4.8 16.4
Q -2.866015625 19.178125 -0.25 16.55 -2.45 13.6 -1.1 8.9
L -3.3 8.65
Q -2.55 13.65 -4.8 16.4 Z"/>
</g>

<g id="Duplicate_Items_Folder_head_copy_0_Layer6_0_FILL">
<path fill="#C3DDDD" stroke="none" d="
M 7.1 -12.9
L 2.05 -13 -3.2 -15.45 -8.95 -14.4
Q -15.25 -22.35 -16.1 -8.65 -18.05 -2.2 -14.75 4.4 -13.5 8.55 -9.5 9.35 -7 9.85 -4.1 11.55 -2.85 12.25 -0.8 11.45 0.8 10.15 2.95 9.8 6.6 9 8.1 7.3 11.65 4.65 10.25 -10.25
L 7.1 -12.9 Z"/>
</g>

<g id="Duplicate_Items_Folder_head_copy_0_Layer5_0_FILL">
<path fill="#151515" stroke="none" d="
M -5.35 6.75
Q -10.15 7.25 -11.95 2.7 -11.85 8.6 -5.25 6.85 -5.25 6.75 -5.35 6.75
M 7.55 2
Q 5.3 6.95 0.7 6.35 0.6 6.35 0.6 6.45 7.2 8.25 7.55 2 Z"/>

<path fill="#F5FFCC" stroke="none" d="
M -11.95 2.7
Q -10.15 7.25 -5.35 6.75 -6.45 2.2 -11.8 2.2
L -12 2.2
Q -11.95 2.45 -11.95 2.7
M 0.7 6.35
Q 5.3 6.95 7.55 2 7.55 1.9 7.5 1.85
L 7.35 1.85
Q 2 1.8 0.7 6.35 Z"/>
</g>

<g id="Duplicate_Items_Folder_head_copy_0_Layer4_0_FILL">
<path fill="#000000" stroke="none" d="
M -8.2 3.75
Q -8.55 4 -8.45 4.5 -8.35 4.9 -8 5.2 -7.65 5.55 -7.4 5.5 -6.9 5.4 -6.65 5 -6.3 4.75 -6.35 4.3 -6.4 3.85 -6.75 3.6 -7.05 3.35 -7.55 3.3 -7.8 3.4 -8.2 3.75
M 2.8 5.15
Q 3.3 5.25 3.6 4.9 4.05 4.75 4 4.3 3.95 3.9 3.85 3.6 3.6 3.1 3.2 3.05 2.85 3.05 2.5 3.25 1.95 3.5 2.05 3.9 1.9 4.4 2.2 4.8 2.5 5.15 2.8 5.15 Z"/>
</g>

<g id="Duplicate_Items_Folder_head_copy_0_Layer3_0_FILL">
<path fill="#151515" stroke="none" d="
M 3.2 -7.1
L 6.4 -15.4
Q 9.65 -13.95 10.7 -8.45 13.1 -15.2 9.8 -18.35 4.55 -24.35 6.35 -30.4 0.25 -27.4 -4.6 -19.15 -6.45 -22.05 -5.1 -26 -11.3 -22.3 -15.85 -16.7 -17.85 -13.6 -18.3 -12.15 -19.35 -9.5 -18.1 -8.85 -13.7 -14.55 -8.2 -15.75
L -7.15 -11.35
Q -5.5 -15.65 -1.65 -15.9 3.35 -12.3 3.2 -7.1
M 20.8 -34.85
L 20.25 -27.9 14.6 -31.15 18.05 -24.5 19.25 -15.25 16.35 -19.55 15.2 -8.65
Q 12.8 -2.4 9.7 -0.35 8.5 3.1 10.05 4 13.7 -2.8 16.9 -1.9 22.4 -3 23.6 -9 20.55 -8.6 20 -8.6
L 21.95 -13.75
Q 23.15 -14.95 22.45 -20.5 21.85 -26.75 23.25 -28.9 24.55 -31.1 24.7 -33.5 24.8 -36 23.8 -36.2 22.2 -35.25 20.8 -34.85 Z"/>

<path fill="#FFFFFF" stroke="none" d="
M 20.25 -27.9
L 20.8 -34.85
Q 18.3 -34.25 16.8 -36.15 17 -39.55 21.95 -43.4 21.95 -43.6 18.55 -43.45 15.2 -43.55 13.2 -43.15 10.45 -43 5.95 -37 5.45 -47.1 3.8 -41.65 2.1 -36.15 0.85 -34.6 -0.4 -33.2 -6.05 -31.1 -11.8 -29.1 -14.2 -24.6 -16.65 -20.1 -15.85 -16.7 -11.3 -22.3 -5.1 -26 -6.45 -22.05 -4.6 -19.15 0.25 -27.4 6.35 -30.4 4.55 -24.35 9.8 -18.35 13.1 -15.2 10.7 -8.45 9.65 -13.95 6.4 -15.4
L 3.2 -7.1
Q 3.35 -12.3 -1.65 -15.9 -5.5 -15.65 -7.15 -11.35
L -8.2 -15.75
Q -13.7 -14.55 -18.1 -8.85 -21.55 -4.65 -18.45 -0.3 -15.45 4.05 -15.15 4.05 -14.8 4 -14.65 4.45 -16.75 -2.7 -14.25 -8.7 -11 -2.75 -10.55 -2.4 -8.4 -0.8 -4.35 -4.45 -0.4 -8.15 -1.3 -1.75 1.4 0.25 8.8 -4.5
L 9.7 -0.35
Q 12.8 -2.4 15.2 -8.65
L 16.35 -19.55 19.25 -15.25 18.05 -24.5 14.6 -31.15 20.25 -27.9 Z"/>
</g>

<g id="Duplicate_Items_Folder_head_copy_0_Layer1_0_FILL">
<path fill="#FFFFFF" stroke="none" d="
M 1.45 19.9
Q 4 17.65 0.55 14.4
L -0.15 17
Q -0.3529296875 14.6587890625 -2.45 14.05 -2.9 15.9 -3.5 17 -4.955859375 13.2482421875 -5.55 13.65 -6.1537109375 14.0892578125 -6.4 16.6 -6.597265625 19.15546875 -6.2 21.95 -6.05 21.35 -6 21.8
L -6 21.85
Q -4.15 19.55 1.45 19.9 Z"/>
</g>

<g id="arm__0_Layer1_0_FILL">
<path fill="#C3DDDD" stroke="none" d="
M 9.05 -10.5
Q 8 -10.25 7 -9.65 6.05 -9.1 5.15 -8.25 -5.5 -10.5 -11.05 -19.65
L -11.35 -16.8
Q -4.9 -8.1 4.65 -7.15
L 7.65 -2.9
Q 9.45 -0.5 9.45 -3.25
L 7.75 -5.25
Q 7.55 -6.35 9.65 -6.5 13.15 -6.1 14.15 -4.25 16.25 -6.2 14.4 -6.75 12.7 -8.2 10.5 -7.8 11.25 -10.2 14.55 -8.25 16.3 -9.35 14 -10.35 11.35 -11.15 9.05 -10.5
M 7 -9.65
Q 8 -10.25 9.05 -10.5
L 9.7 -12.6
Q 10.95 -13.4 12.3 -12.25 13.5 -12.75 12.3 -13.7 10.8 -15.3 8.75 -14.15
L 7 -9.65 Z"/>
</g>

<g id="arm__copy_2_0_Layer3_0_FILL">
<path fill="#000000" stroke="none" d="
M 7.45 -0.8
L 17.9 -12.8 17.05 -13.65 6.55 -1.6
Q 6.5 -1.5 6.5 -1.4 6.5 -1.25 6.6 -1.15
L 7.05 -0.75
Q 7.25 -0.6 7.45 -0.8 Z"/>
</g>

<g id="flames_0_Layer2_0_FILL">
<path fill="#FFFFFF" stroke="none" d="
M 6.05 -25.15
Q 7.05 -27.2 4.1 -29.85 2.6 -31.2 0.85 -32.1 1.55 -30.75 2.15 -29.15 3.35 -25.95 3.15 -24.85 3.05 -24.45 2.45 -23.85 1.85 -23.3 0.7 -22.6 -1.85 -21.1 -2.7 -19.7 -4.35 -16.85 -2.8 -12.15 -2.6 -11.55 -2.35 -10.9 -1.5 -8.8 -1.35 -5.95 -1.1 -2.7 -2 -0.6 -2.45 0.5 -3.55 1.8 2.5 8.95 7.65 1.8 7.65 1.7 7.65 1.55 7.65 0.15 8.7 -1.55 9.8 -3.3 11.2 -4.2 12.6 -5.05 12.65 -7.05 12.75 -9.05 10.55 -10.35 8.35 -11.7 7.25 -13.5 6.15 -15.3 7.8 -17.25 9.45 -19.25 8.05 -19.25 6.7 -19.25 5.55 -17.9 4.45 -16.55 5.1 -14.15 5.7 -11.75 6.95 -10 8.2 -8.35 6.75 -7.4 5.3 -6.55 3.5 -6 2.3 -5.7 1.95 -7.15 1.3 -9.55 0.75 -10.5 0.2 -11.45 -0.05 -12.35 -0.25 -13.25 -0.55 -14.55 -0.9 -15.85 0.25 -18.8 0.55 -20.55 2.75 -21.95 3.25 -22.25 3.7 -22.55 5.45 -23.85 6.05 -25.15 Z"/>
</g>

<g id="flames_0_Layer1_0_FILL">
<path fill="url(#Gradient_1)" stroke="none" d="
M 5.5 -25.65
Q 5.15 -26.75 7.25 -29.95 8.3 -31.55 9.5 -32.9 6.45 -32 3.85 -30.65 -1.3 -28 0.45 -25.95 1.5 -24.65 4.55 -23.35 5.3 -23.05 6.2 -22.75 10 -21.35 10.55 -19.6 12.55 -16.65 11.95 -15.35 11.4 -14.05 11.05 -13.15 10.65 -12.25 9.65 -11.3 8.7 -10.35 7.6 -7.95 6.95 -6.5 4.9 -6.8 1.75 -7.35 -0.75 -8.2 -3.3 -9.15 -1.1 -10.8 1.05 -12.55 2.1 -14.95 3.25 -17.35 1.3 -18.7 -0.7 -20.05 -3.05 -20.05 -5.45 -20.05 -2.6 -18.05 0.25 -16.1 -1.65 -14.3 -3.55 -12.5 -7.4 -11.15 -11.2 -9.85 -11.05 -7.85 -10.95 -5.85 -8.5 -5 -6.1 -4.1 -4.15 -2.35 -2.35 -0.65 -2.35 0.75 -2.35 0.9 -2.35 1 6.6 8.15 17.15 1 15.25 -0.3 16.95 -0.9 18.6 -1.55 17.05 -5.25 15.5 -8.95 15.5 -10.65 15.5 -12.35 15.85 -12.95 18.55 -17.65 15.7 -20.5 14.2 -21.9 9.75 -23.4 7.75 -24.1 6.7 -24.65 5.65 -25.25 5.5 -25.65 Z"/>
</g>

<g id="arm__copy_2_0_Layer1_0_FILL">
<path fill="#C3DDDD" stroke="none" d="
M 9.4 -6.3
L 10 -7.9
Q 9.9708984375 -7.8642578125 9.95 -7.85 -1.762890625 -9.8455078125 -9.4 -19.35 -7.6892578125 -16.6736328125 -8.75 -15.2 -1.9455078125 -8.521875 9.3 -6.4
L 9.4 -6.3 Z"/>
</g>

<g id="arm__copy_2_0_Layer0_0_FILL">
<path fill="#C3DDDD" stroke="none" d="
M 14.45 -5.55
Q 11.3 -6.85 10.2 -9.05 8.5 -9 8.75 -7.35 10.15 -4.85 13.35 -4.1 14 -4.8 14.45 -5.55
M 10.2 -9.05
Q 11.3 -6.85 14.45 -5.55 14.95 -6.4 15.1 -7.3 13.35 -8.15 11.7 -9.8 10.35 -10.15 10.2 -9.05
M 8.75 -7.35
Q 7.3 -6.4 8.3 -5.4 9.45 -3.45 11.75 -2.9 12.6 -3.45 13.35 -4.1 10.15 -4.85 8.75 -7.35 Z"/>
</g>

<path id="body_front_0_Layer3_0_1_STROKES" stroke="#000000" stroke-width="1" stroke-linejoin="round" stroke-linecap="round" fill="none" d="
M -13.25 28.7
Q -12.9 27.95 -12.05 26.65 -11.1 25 -10.8 24.4 -10.45 23.55 -8.95 21.95 -8.2 21.2 -5.8 18.7 -4.45 17.4 -2.35 13.95 -1.3 12.15 0.35 9.4 1.1 8.3 -0.95 6.8 -2.05 6.05 -4.75 4.95 -6.3 10.95 -7.3 13.05 -7.75 14.1 -9.1 15.5 -10.4 16.85 -11.25 18.15 -12.1 19.45 -13.15 22.25 -14.15 25 -14.75 26.4 -15.3 27.7 -15.25 27.7
L -15.15 29.4 -13.25 28.7
Q -13.3 28.85 -13.45 29 -14.1 30.45 -15.95 33.75 -17.75 37.05 -18.2 38.05 -18.5 39.05 -18.95 37.55 -19.35 36.1 -18.8 34 -18.1 31.5 -17.4 30.45 -16.05 28.8 -15.45 28 -15.35 27.85 -15.25 27.7"/>

<path id="body_front_0_Layer2_0_1_STROKES" stroke="#000000" stroke-width="1" stroke-linejoin="round" stroke-linecap="round" fill="none" d="
M -6.4 31.7
Q -6.35 30.9 -6.15 29.35 -5.95 27.45 -5.95 26.75 -5.95 25.85 -5.25 23.75 -4.95 22.75 -3.75 19.5 -3.1 17.7 -2.65 13.7 -2.4 11.6 -2.1 8.45 -1.85 7.1 -4.35 6.65 -5.6 6.4 -8.6 6.6 -7.5 12.6 -7.5 14.95 -7.5 16.15 -8.1 17.95 -8.7 19.7 -8.95 21.25 -9.25 22.8 -9 25.75 -8.75 28.7 -8.7 30.15 -8.65 31.65 -8.6 31.6
L -7.8 33.1 -6.4 31.7
Q -6.4 31.9 -6.4 32 -6.4 33.6 -6.7 37.4 -7 41.15 -6.95 42.2 -6.85 43.25 -7.85 42.1 -8.85 40.95 -9.2 38.8 -9.55 36.25 -9.4 35 -8.9 32.95 -8.7 31.95 -8.65 31.75 -8.6 31.6"/>

<path id="Duplicate_Items_Folder_wing_copy_0_Layer0_0_1_STROKES" stroke="#000000" stroke-width="1" stroke-linejoin="round" stroke-linecap="round" fill="none" d="
M 50.4 -18.65
Q 42.15 -22.25 39.4 -15.9 32.35 -23.45 25.25 -19.85 21.55 -15.75 24.2 -6.05 13.75 -12.05 -0.95 0.1
L -0.95 0.05
Q -1.35 -0.05 -1.7 6.3 -1.7 6.2 -0.45 6.4 2.15 5.6 8.35 0.45 14.6 -4.75 26.1 0.9 31.85 3.7 36.3 7.45 30.85 -6.95 27.9 -11.45 35 -13.35 48.8 4.6 62.55 22.5 61.6 20.1 60.65 17.65 58.85 9.6 55.25 -6.5 50.45 -18.5 50.4 -18.6 50.4 -18.65 45.7 -30.5 34.3 -40.3 30.8 -43.35 26.95 -45.9 23.85 -47.85 23.85 -47.9 23.5 -42.25 22.4 -35.35 20.15 -21.5 16.25 -16 12.3 -10.4 5.65 -7.25 -0.2 -4.5 -0.35 -5.35 -0.648828125 -5.5990234375 -0.95 0.05"/>

<path id="body_front_0_Layer0_0_1_STROKES" stroke="#000000" stroke-width="1" stroke-linejoin="round" stroke-linecap="round" fill="none" d="
M 3.9 -12.55
L 3.9 -12.5
Q 3.55 -11 4.45 -10.15 5.35 -9.3 5.95 -6.65 6.9 -6.5748046875 8.55 -4.9 10.2 -3.2251953125 10.7 0.15 11.64453125 1.950390625 12.25 4.625 12.866015625 7.2986328125 11.4 11.175 9.9337890625 15.051171875 10.55 18.375 11.1552734375 21.6994140625 12.5 23.85
L 13.7 25.25 10.25 22.6
Q 6.8 19.3 6.8 16.15 6.8 15.85 6.8 15.6 6.8 15 6.75 14.55 6.75 14.3 6.9 14.1
L 6.15 14.85
Q 6.2181640625 15.6958984375 4.3 16.45 2.386328125 17.2029296875 0.825 17.125 -0.7455078125 17.048828125 -1 17.1 -3.1 18.904296875 -5.9 18.2 -8.7 17.48125 -9.85 18.9 -11 20.3302734375 -7.15 14.1 -7.3 14.25 -7.85 14.45 -9 14.95 -11.25 15.5 -13.55 16.05 -14.65 14.65 -21.7 14.85 -22.3 11.8 -20.55 11.3 -19.2 8.15 -18.9 7.05 -18.9 5.95 -18.9 5.7796875 -19 5.65 -20.0806640625 -1.926953125 -15.05 -4.525 -10.024609375 -7.12890625 -9.325 -7.6 -8.6212890625 -8.0728515625 -8.05 -9.5 -8.1880859375 -9.688671875 -8.25 -9.875
M -8.3 -10.05
L -8.2 -10.05
Q -8.2490234375 -10.168359375 -8.3 -10.325
M -7.725 -10.725
L -7.45 -10.775
M -7.4 -10.775
L -7.225 -10.8 -7.2 -10.8
M -5.25 -11.65
Q -0.408203125 -13.064453125 3.9 -12.55
M 10.7 0.15
Q 10.9982421875 9.941015625 6.8 14.05 6.775390625 14.075390625 6.9 14.1
M -7.2 -10.8
L -5.25 -11.65
M -7.45 -10.775
L -7.4 -10.775
M -7.9 -10.25
L -8.275 -10.825
Q -8.137109375 -10.9322265625 -8 -11.05
M -7.875 -10.175
L -7.85 -10.15
M -7.75 -10.3
Q -7.8287109375 -10.3 -7.85 -10.275
L -7.85 -10.25
Q -7.858984375 -10.2185546875 -7.875 -10.175
L -7.9 -10.25 -7.85 -10.25
M -7.75 -10.3
Q -7.7828125 -10.365625 -7.8 -10.425 -7.86640625 -10.565625 -7.9 -10.7
M -7.925 -10
Q -7.9041015625 -10.069921875 -7.875 -10.125
L -7.875 -10.175
M -7.8 -10.425
Q -7.761328125 -10.584375 -7.725 -10.725
M -7.925 -10
Q -7.9578125 -9.8640625 -8 -9.7
L -7.975 -9.65 -7.95 -9.625 -7.95 -9.85 -7.9 -9.85
M -8 -9.7
L -8.1 -9.9
Q -8.1197265625 -9.939453125 -8.15 -9.975 -8.1697265625 -10.0197265625 -8.2 -10.05
M -8 -9.675
L -8 -9.7
M -7.95 -9.625
L -7.95 -9.6 -7.975 -9.65 -8 -9.675
Q -8.0177734375 -9.6509765625 -8.025 -9.625 -8.04140625 -9.5666015625 -8.05 -9.5
M -8 -9.675
Q -8.1712890625 -9.7884765625 -8.25 -9.875
M 3.9 -12.5
Q 1.6099609375 -8.619921875 -2.35 -3.5 -6.3099609375 1.619921875 -12.85 6.7 -9.65 7 -5.9 5.85 -7 10.25 -14.65 14.65
M 5.95 -6.65
Q 8.4095703125 9.1419921875 -1 17.1"/>

<path id="Duplicate_Items_Folder_head_copy_0_Layer7_0_1_STROKES" stroke="#000000" stroke-width="0.75" stroke-linejoin="round" stroke-linecap="round" fill="none" d="
M -4.8 16.4
Q -2.55 13.65 -3.3 8.65
L -1.1 8.9
Q -2.45 13.6 -0.25 16.55"/>

<path id="Duplicate_Items_Folder_head_copy_0_Layer6_0_1_STROKES" stroke="#000000" stroke-width="0.7" stroke-linejoin="round" stroke-linecap="round" fill="none" d="
M 2.95 9.8
Q 6.6 9 8.1 7.3 11.65 4.65 10.25 -10.25
L 7.1 -12.9 2.05 -13 -3.2 -15.45 -8.95 -14.4
Q -15.25 -22.35 -16.1 -8.65 -18.05 -2.2 -14.75 4.4 -13.5 8.55 -9.5 9.35 -7 9.85 -4.1 11.55 -2.85 12.25 -0.8 11.45 0.8 10.15 2.95 9.8 Z"/>

<path id="Duplicate_Items_Folder_head_copy_0_Layer5_0_1_STROKES" stroke="#000000" stroke-width="0.5" stroke-linejoin="round" stroke-linecap="round" fill="none" d="
M 7.55 2
Q 7.55 1.9 7.5 1.85
L 7.35 1.85
Q 2 1.8 0.7 6.35 0.6 6.35 0.6 6.45 7.2 8.25 7.55 2 Z
M -5.35 6.75
Q -6.45 2.2 -11.8 2.2
L -12 2.2
Q -11.95 2.45 -11.95 2.7 -11.85 8.6 -5.25 6.85 -5.25 6.75 -5.35 6.75 Z"/>

<path id="Duplicate_Items_Folder_head_copy_0_Layer3_0_1_STROKES" stroke="#000000" stroke-width="1" stroke-linejoin="round" stroke-linecap="round" fill="none" d="
M 9.7 -0.35
Q 12.8 -2.4 15.2 -8.65
L 16.35 -19.55 19.25 -15.25 18.05 -24.5 14.6 -31.15 20.25 -27.9 20.8 -34.85
Q 18.3 -34.25 16.8 -36.15 17 -39.55 21.95 -43.4 21.95 -43.6 18.55 -43.45 15.2 -43.55 13.2 -43.15 10.45 -43 5.95 -37 5.45 -47.1 3.8 -41.65 2.1 -36.15 0.85 -34.6 -0.4 -33.2 -6.05 -31.1 -11.8 -29.1 -14.2 -24.6 -16.65 -20.1 -15.85 -16.7 -11.3 -22.3 -5.1 -26 -6.45 -22.05 -4.6 -19.15 0.25 -27.4 6.35 -30.4 4.55 -24.35 9.8 -18.35 13.1 -15.2 10.7 -8.45 9.65 -13.95 6.4 -15.4
L 3.2 -7.1
Q 3.35 -12.3 -1.65 -15.9 -5.5 -15.65 -7.15 -11.35
L -8.2 -15.75
Q -13.7 -14.55 -18.1 -8.85 -21.55 -4.65 -18.45 -0.3 -15.45 4.05 -15.15 4.05 -14.8 4 -14.65 4.45 -16.75 -2.7 -14.25 -8.7 -11 -2.75 -10.55 -2.4 -8.4 -0.8 -4.35 -4.45 -0.4 -8.15 -1.3 -1.75 1.4 0.25 8.8 -4.5
L 9.7 -0.35
Q 8.5 3.1 10.05 4 13.7 -2.8 16.9 -1.9 22.4 -3 23.6 -9 20.55 -8.6 20 -8.6
L 21.95 -13.75
Q 23.15 -14.95 22.45 -20.5 21.85 -26.75 23.25 -28.9 24.55 -31.1 24.7 -33.5 24.8 -36 23.8 -36.2 22.2 -35.25 20.8 -34.85
M -18.1 -8.85
Q -19.35 -9.5 -18.3 -12.15 -17.85 -13.6 -15.85 -16.7"/>

<path id="Duplicate_Items_Folder_head_copy_0_Layer2_0_1_STROKES" stroke="#000000" stroke-width="0.5" stroke-linejoin="round" stroke-linecap="round" fill="none" d="
M 0.1 3.8
Q 2.35 0.05 6.55 -0.3
M -4.75 4.35
Q -7.55 -0.05 -11 -0.5"/>

<path id="Duplicate_Items_Folder_head_copy_0_Layer1_0_1_STROKES" stroke="#000000" stroke-width="0.7" stroke-linejoin="round" stroke-linecap="round" fill="none" d="
M -6.2 21.95
Q -6.597265625 19.15546875 -6.375 16.625 -6.1537109375 14.0892578125 -5.55 13.675 -4.955859375 13.2482421875 -3.5 17 -2.9 15.9 -2.45 14.05 -0.3529296875 14.6587890625 -0.15 17
L 0.55 14.4
Q 4 17.65 1.45 19.9 -4.15 19.55 -6 21.85"/>

<path id="arm__0_Layer1_0_1_STROKES" stroke="#000000" stroke-width="1" stroke-linejoin="round" stroke-linecap="round" fill="none" d="
M 7 -9.65
Q 8 -10.25 9.05 -10.5
L 9.7 -12.6
Q 10.95 -13.4 12.3 -12.25 13.5 -12.75 12.3 -13.7 10.8 -15.3 8.75 -14.15
L 7 -9.65
Q 6.05 -9.1 5.15 -8.25 -5.5 -10.5 -11.05 -19.65
M -11.35 -16.8
Q -4.9 -8.1 4.65 -7.15
L 7.65 -2.9
Q 9.45 -0.5 9.45 -3.25
L 7.75 -5.25
Q 7.55 -6.35 9.65 -6.5 13.15 -6.1 14.15 -4.25 16.25 -6.2 14.4 -6.75 12.7 -8.2 10.5 -7.8 11.25 -10.2 14.55 -8.25 16.3 -9.35 14 -10.35 11.35 -11.15 9.05 -10.5"/>

<path id="arm__copy_2_0_Layer3_0_1_STROKES" stroke="#000000" stroke-width="0.5" stroke-linejoin="round" stroke-linecap="round" fill="none" d="
M 17.05 -13.625
L 6.55 -1.6
Q 6.5 -1.5 6.5 -1.4 6.5 -1.25 6.6 -1.15
L 7.05 -0.75
Q 7.25 -0.6 7.45 -0.8
L 17.9 -12.775"/>

<path id="arm__copy_2_0_Layer1_0_1_STROKES" stroke="#000000" stroke-width="1" stroke-linejoin="round" stroke-linecap="round" fill="none" d="
M 9.4 -6.275
L 9.3 -6.4
Q -1.9455078125 -8.521875 -8.725 -15.175
M -9.4 -19.325
Q -1.762890625 -9.8455078125 9.95 -7.85 9.9708984375 -7.8642578125 10 -7.875"/>

<path id="arm__copy_2_0_Layer0_0_1_STROKES" stroke="#000000" stroke-width="1" stroke-linejoin="round" stroke-linecap="round" fill="none" d="
M 13.35 -4.1
Q 12.6 -3.45 11.75 -2.9 9.45 -3.45 8.3 -5.4 7.3 -6.4 8.75 -7.35 8.5 -9 10.2 -9.05 10.35 -10.15 11.7 -9.8 13.35 -8.15 15.1 -7.3 14.95 -6.4 14.45 -5.55 14 -4.8 13.35 -4.1 10.15 -4.85 8.75 -7.35
M 10.2 -9.05
Q 11.3 -6.85 14.45 -5.55"/>
</defs>

<g transform="matrix( 5.007568359375, 0, 0, 5.007568359375, 282.9,468.75) "/>

<g transform="matrix( 3.291015625, 0, 0, 3.291015625, 291.75,393.1) ">
<g transform="matrix( 1, 0, 0, 1, 0,0) ">
<use xlink:href="#body_front_0_Layer3_0_FILL"/>

<use xlink:href="#body_front_0_Layer3_0_1_STROKES"/>
</g>

<g transform="matrix( 1, 0, 0, 1, 0,0) ">
<use xlink:href="#body_front_0_Layer2_0_FILL"/>

<use xlink:href="#body_front_0_Layer2_0_1_STROKES"/>
</g>

<g transform="matrix( 1.05364990234375, 0, 0, 1, 1,-17.1) ">
<g transform="matrix( 1, 0, 0, 1, 0,0) ">
<use xlink:href="#Duplicate_Items_Folder_wing_copy_0_Layer0_0_FILL"/>

<use xlink:href="#Duplicate_Items_Folder_wing_copy_0_Layer0_0_1_STROKES"/>
</g>
</g>

<g transform="matrix( -1.05364990234375, 0, 0, 1, -8.05,-17.65) ">
<g transform="matrix( 1, 0, 0, 1, 0,0) ">
<use xlink:href="#Duplicate_Items_Folder_wing_copy_0_Layer0_0_FILL"/>

<use xlink:href="#Duplicate_Items_Folder_wing_copy_0_Layer0_0_1_STROKES"/>
</g>
</g>

<g transform="matrix( 1, 0, 0, 1, 0,0) ">
<use xlink:href="#body_front_0_Layer0_0_FILL"/>

<use xlink:href="#body_front_0_Layer0_0_1_STROKES"/>
</g>
</g>

<g transform="matrix( 5.24237060546875, -0.516632080078125, 0.5186920166015625, 5.014892578125, 284.55,244.2) ">
<g transform="matrix( 1, 0, 0, 1, 0,0) ">
<use xlink:href="#Duplicate_Items_Folder_head_copy_0_Layer7_0_FILL"/>

<use xlink:href="#Duplicate_Items_Folder_head_copy_0_Layer7_0_1_STROKES"/>
</g>

<g transform="matrix( 1, 0, 0, 1, 0,0) ">
<use xlink:href="#Duplicate_Items_Folder_head_copy_0_Layer6_0_FILL"/>

<use xlink:href="#Duplicate_Items_Folder_head_copy_0_Layer6_0_1_STROKES"/>
</g>

<g transform="matrix( 1, 0, 0, 1, 0,0) ">
<use xlink:href="#Duplicate_Items_Folder_head_copy_0_Layer5_0_FILL"/>

<use xlink:href="#Duplicate_Items_Folder_head_copy_0_Layer5_0_1_STROKES"/>
</g>

<g transform="matrix( 1, 0, 0, 1, 0,0) ">
<use xlink:href="#Duplicate_Items_Folder_head_copy_0_Layer4_0_FILL"/>
</g>

<g transform="matrix( 1, 0, 0, 1, 0,0) ">
<use xlink:href="#Duplicate_Items_Folder_head_copy_0_Layer3_0_FILL"/>

<use xlink:href="#Duplicate_Items_Folder_head_copy_0_Layer3_0_1_STROKES"/>
</g>

<g transform="matrix( 1, 0, 0, 1, 0,0) ">
<use xlink:href="#Duplicate_Items_Folder_head_copy_0_Layer2_0_1_STROKES"/>
</g>

<g transform="matrix( 1, 0, 0, 1, 0,0) ">
<use xlink:href="#Duplicate_Items_Folder_head_copy_0_Layer1_0_FILL"/>

<use xlink:href="#Duplicate_Items_Folder_head_copy_0_Layer1_0_1_STROKES"/>
</g>
</g>

<g transform="matrix( -3.0852813720703125, -0.9263763427734375, -0.9857177734375, 3.2834930419921875, 207.45,374) ">
<g transform="matrix( 1, 0, 0, 1, 0,0) ">
<use xlink:href="#arm__0_Layer1_0_FILL"/>

<use xlink:href="#arm__0_Layer1_0_1_STROKES"/>
</g>
</g>

<g transform="matrix( 3.0353546142578125, -0.91143798828125, 0.969818115234375, 3.2303619384765625, 348.75,373.4) ">
<g transform="matrix( 1, 0, 0, 1, 0,0) ">
<use xlink:href="#arm__copy_2_0_Layer3_0_FILL"/>

<use xlink:href="#arm__copy_2_0_Layer3_0_1_STROKES"/>
</g>

<g transform="matrix( -0.31256103515625, -0.337615966796875, -0.3762359619140625, 0.3482513427734375, 19.5,-12.4) ">
<g transform="matrix( 1, 0, 0, 1, 0,0) ">
<use xlink:href="#flames_0_Layer2_0_FILL"/>
</g>

<g transform="matrix( 1, 0, 0, 1, 0,0) ">
<use xlink:href="#flames_0_Layer1_0_FILL"/>
</g>
</g>

<g transform="matrix( 0.198150634765625, 0.2140960693359375, -0.2614593505859375, 0.242034912109375, 16.75,-14.75) ">
<g transform="matrix( 1, 0, 0, 1, 0,0) ">
<use xlink:href="#flames_0_Layer2_0_FILL"/>
</g>

<g transform="matrix( 1, 0, 0, 1, 0,0) ">
<use xlink:href="#flames_0_Layer1_0_FILL"/>
</g>
</g>

<g transform="matrix( 1, 0, 0, 1, 0,0) ">
<use xlink:href="#arm__copy_2_0_Layer1_0_FILL"/>

<use xlink:href="#arm__copy_2_0_Layer1_0_1_STROKES"/>
</g>

<g transform="matrix( 1, 0, 0, 1, 0,0) ">
<use xlink:href="#arm__copy_2_0_Layer0_0_FILL"/>

<use xlink:href="#arm__copy_2_0_Layer0_0_1_STROKES"/>
</g>
</g>
</svg>
