
<svg xmlns="http://www.w3.org/2000/svg" version="1.1" xmlns:xlink="http://www.w3.org/1999/xlink" preserveAspectRatio="none" x="0px" y="0px" width="560px" height="544px" viewBox="0 0 560 544">
<defs>
<g id="flamingo_0_Layer2_0_FILL">
<path fill="#00FFFF" stroke="none" d="
M -1.45 -1.9
Q -12.2 -3.9 -19.95 -0.6 -19.45 1.45 -16.85 0.7 -16.3 0.8 -16 1.15
L -9.6 0.1 -16 1.15
Q -15.6 1.65 -15.75 2.7
L -18.25 4.45
Q -18.9 7.15 -13.9 4.9
L -8.2 2.3 -13.9 4.9
Q -12.6 5.6 -12.1 8
L -13.85 9.75
Q -12.05 12.9 -7.95 9.25 -4.15 8.1 1.7 0.15
L 0.5 -21.9 1 -27.3 0.05 -32.1 -1.05 -49.8 -3.45 -48.7 -2.55 -31.6
Q -4.6 -29.6 -3.75 -26
L -2.1 -23.35 -1.45 -1.9
M -12.1 8.55
L -7.35 4.3 -12.1 8.55 Z"/>
</g>

<g id="flamingo_0_Layer1_0_FILL">
<path fill="#00FFFF" stroke="none" d="
M 5.45 -21.05
L 7.15 -23.8
Q 8.05 -27.55 5.95 -29.6
L 6.85 -47.25 4.4 -48.4 3.25 -30.1 2.25 -25.15 2.8 -19.55 1.55 3.2
Q 7.6 11.45 11.5 12.65 15.75 16.4 17.6 13.15
L 15.8 11.35
Q 16.3 8.85 17.65 8.15
L 11.75 5.45 17.65 8.15
Q 22.85 10.45 22.15 7.65
L 19.6 5.85
Q 19.4 4.75 19.85 4.25
L 13.2 3.15 19.85 4.25
Q 20.15 3.9 20.7 3.8 23.4 4.55 23.9 2.45 15.9 -0.95 4.8 1.1
L 5.45 -21.05
M 15.8 11.9
L 10.9 7.5 15.8 11.9 Z"/>
</g>

<g id="flamingo_0_Layer0_0_FILL">
<path fill="#000000" stroke="none" d="
M -68.45 -133.5
L -68.3 -132.65
Q -66.5 -130.35 -63.9 -128.55 -61.35 -126.8 -61.45 -128.55 -62.5 -133.6 -60.65 -137.5
L -68.45 -133.5
M -60.95 -157.9
Q -62.4 -157.9 -63.45 -156.5 -64.5 -155.05 -64.5 -153.05 -64.5 -151.05 -63.45 -149.65 -62.4 -148.2 -60.95 -148.2 -59.5 -148.2 -58.45 -149.65 -57.4 -151.05 -57.4 -153.05 -57.4 -155.05 -58.45 -156.5 -59.5 -157.9 -60.95 -157.9
M 16.6 -82.15
Q 12.9 -85.55 9.65 -87 2.1 -90.4 -17.3 -88.55 -20.75 -88.2 -23.4 -88
L -24.9 -90.1
Q -25.65 -91.3 -26.2 -93.85 -27.95 -102.05 -27.7 -123.35 -27.45 -144.65 -31.65 -150.1 -35.9 -155.55 -37.15 -156.55 -38.4 -157.6 -39.35 -158.4 -43.4 -161.85 -50.8 -162.6 -52.15 -162.75 -53.35 -162.8 -50 -159.35 -50.7 -149.7 -49.5 -150.35 -46.9 -150.5 -44.25 -150.7 -40.95 -146.55 -37.65 -142.4 -37.3 -135.05 -36.95 -127.75 -37.55 -113.8 -38.45 -92.4 -38.3 -88.8 -37.95 -79.2 -34.3 -76.15 -28.8 -71.55 -24.65 -66.95 -19.15 -58.15 -15 -54.05 -12.6 -51.65 -4.7 -49.15 6.2 -45.7 8 -44.9 11.7 -43.25 19.85 -40.8 26.8 -38.25 29.6 -34.3 34.2 -27.85 42 -20.5 40.85 -31.2 38.05 -43.3 32.55 -67.55 24.5 -74.75 18.9 -80.1 16.6 -82.15
M 5.2 -85.45
L 7.95 -84.05 7.15 -82.45 4.45 -83.9 5.2 -85.45
M 8.05 -81.7
L 8.9 -83.3 11.65 -81.85 10.8 -80.3 8.05 -81.7
M 0.4 -84.75
L 0.95 -86.4 3.85 -85.55 3.3 -83.85 0.4 -84.75
M 14.9 -79.3
L 14 -77.8 11.35 -79.25 12.25 -80.8 14.9 -79.3
M 16.05 -78.7
L 18.35 -76.65 17.25 -75.4 14.9 -77.35 16.05 -78.7
M 18.9 -74.5
L 20.15 -75.65 22.25 -73.4 20.95 -72.2 18.9 -74.5
M 16.65 -64.8
L 16.25 -62.85
Q 10.3 -65.8 7.65 -67.45 5.6 -68.75 -0.6 -71.3 -6.95 -73.9 -8.15 -73.9
L -15.25 -73.9
Q -15.3 -77.6 -14 -78.85 -14.5 -80.85 -12.1 -83.4 -4.85 -84.9 -0.75 -83.3 3.3 -81.7 7.9 -78.55 12.3 -75.55 14.1 -73.55 16.4 -71 18.4 -70 19.45 -67.3 17.55 -66.95 10.8 -72.5 8.05 -74 4.1 -76.5 0.5 -77.9 -3.15 -79.3 -5.7 -79 -8.3 -78.75 -9.35 -78.15
L -9.95 -77.6
Q -6.5 -77.5 -2.85 -75.95 -1 -75.15 4.15 -72.8 9.25 -70.5 10.9 -69.35 12.5 -68.2 16.65 -64.8
M 6.35 -64.65
L 8.25 -64.35
Q 8.1 -57.5 6.05 -52.1
L 4.15 -52.4
Q 7.05 -58.2 6.35 -64.65
M 1.15 -68.3
L 4.2 -67.95
Q 4.85 -59.95 2.5 -53.5
L -0.55 -53.85
Q 3.15 -60.8 1.15 -68.3
M 0.55 -51
L 3.35 -49.8 2.7 -48.2 -0.1 -49.35 0.55 -51
M 17.3 -49.8
Q 19.85 -53.55 19.05 -59.65
L 20.8 -58.45
Q 20.8 -52.45 19.05 -48.6
L 17.3 -49.8
M 13.5 -50.9
Q 15.75 -54.8 14.6 -60.85
L 16.45 -59.75
Q 16.8 -53.75 15.35 -49.8
L 13.5 -50.9
M 12 -60.9
Q 12 -54.9 10.25 -51.05
L 8.5 -52.25
Q 11.05 -56 10.25 -62.1
L 12 -60.9
M 22.9 -72.4
L 24.95 -70.1 23.6 -68.95 21.55 -71.2 22.9 -72.4
M 29.45 -62.9
L 27.95 -62.1 26.45 -64.7 28 -65.6 29.45 -62.9
M 27.1 -66.55
L 25.75 -65.5 23.8 -67.75 25.15 -68.9 27.1 -66.55
M 30.1 -57.9
L 28.95 -60.35 30.3 -61.05 31.55 -58.65 30.1 -57.9
M 30.4 -56.95
L 31.8 -57.6 33.05 -55.2 31.7 -54.55 30.4 -56.95
M 32.65 -51.15
L 31.5 -53.55 32.95 -54.15 34.05 -51.7 32.65 -51.15
M 33.1 -50.3
L 34.6 -50.75 35.15 -48.05 33.8 -47.75 33.1 -50.3
M 25.6 -40.6
L 26.75 -41.65 28.9 -39.6 27.6 -38.55 25.6 -40.6
M 24.6 -42.55
L 23.8 -41.4 21.4 -42.6 22.25 -43.8 24.6 -42.55
M 17.75 -45.6
L 20.05 -44.35 19.35 -43.2 17 -44.5 17.75 -45.6
M 16.05 -46
L 15.35 -44.8 13.05 -45.95 13.65 -47.1 16.05 -46
M 12.4 -47.65
L 11.85 -46.4 9.35 -47.15 9.75 -48.3 12.4 -47.65
M 7.05 -47.6
L 4.05 -48.2 4.5 -49.95 7.45 -49.3 7.05 -47.6
M -40.05 -155.1
L -35.95 -150.4 -38.65 -148.1 -42.7 -152.75 -40.05 -155.1
M -42.3 -156.05
L -44 -153 -49.45 -156.05 -47.65 -159.1 -42.3 -156.05
M -50.7 -161.25
L -48.45 -161.25 -48.45 -159.1 -50.7 -159.1 -50.7 -161.25
M -35.6 -140.75
L -37.4 -146.7 -34 -147.7 -32.25 -141.75 -35.6 -140.75
M -34.7 -138.95
L -31.15 -139 -31.05 -132.8 -34.6 -132.75 -34.7 -138.95
M -34.4 -124.45
L -34.5 -130.65 -30.95 -130.7 -30.85 -124.5 -34.4 -124.45
M -31.15 -115.95
L -34.7 -115.9 -34.8 -122.1 -31.25 -122.15 -31.15 -115.95
M -34.45 -113.85
L -30.9 -113.8 -31 -107.6 -34.55 -107.65 -34.45 -113.85
M -31.5 -105.3
L -31.65 -99.1 -35.2 -99.15 -35.05 -105.35 -31.5 -105.3
M -8.9 -87.1
L -5.8 -87.25 -5.75 -85.5 -8.8 -85.25 -8.9 -87.1
M -3.55 -87.15
L -0.5 -87.2 -0.45 -85.45 -3.5 -85.4 -3.55 -87.15
M -13.15 -86.95
L -10.15 -87.25 -9.95 -85.4 -13 -85.25 -13.15 -86.95
M -34.9 -90.95
L -35.35 -97.1 -31.8 -97.35 -31.35 -91.2 -34.9 -90.95
M -34.3 -88.45
L -30.95 -89.65 -28.85 -83.8 -32.15 -82.6 -34.3 -88.45
M -24 -81.7
L -27.45 -75.95 -31.1 -80.3 -27.7 -83 -24 -81.7
M -25.5 -74.6
L -20.5 -84.55 -14.25 -83.85 -21.6 -71.1 -25.5 -74.6
M -3.25 -69.35
L -0.2 -69
Q 0.5 -61.3 -1.85 -55.2
L -4.9 -55.55
Q -1.2 -62.15 -3.25 -69.35
M -8.8 -70.25
L -5.75 -70.25
Q -4.1 -63.8 -5.75 -58.35
L -8.8 -58.35
Q -5.95 -64.3 -8.8 -70.25
M -14.1 -71.9
L -13.35 -66.45 -15.75 -66.35
Q -17.4 -68.55 -16.65 -71.9
L -14.1 -71.9
M -16.05 -64.15
L -13.5 -64.9 -10.85 -60.5 -13 -58.85
Q -16.25 -61.2 -16.05 -64.15
M -7.45 -53.5
L -6.65 -55.05 -3.9 -53.8 -4.65 -52.25 -7.45 -53.5
M -7.6 -55.45
L -8.65 -54 -11.1 -55.85 -10.1 -57.2 -7.6 -55.45
M -4 -51.25
L -3.25 -52.85 -0.4 -51.7 -1.1 -50 -4 -51.25 Z"/>

<path fill="#00FFFF" stroke="none" d="
M -62.35 -162.1
Q -69.2 -158.85 -70.15 -150.6
L -69.7 -140.5
Q -70 -136.9 -68.45 -133.5
L -60.65 -137.5
Q -60.4 -138.1 -60.3 -138.15 -59.3 -139.1 -58.55 -139.6 -62.9 -140.35 -64.9 -143.05 -67.7 -139.2 -68.3 -134.15 -67.7 -139.2 -64.9 -143.05
L -67.3 -146.3 -64.9 -143.05
Q -62.9 -140.35 -58.55 -139.6 -52.95 -143.6 -50.85 -149.65 -50.8 -149.7 -50.7 -149.7 -50 -159.35 -53.35 -162.8 -58.95 -163.15 -62.35 -162.1
M -63.45 -156.5
Q -62.4 -157.9 -60.95 -157.9 -59.5 -157.9 -58.45 -156.5 -57.4 -155.05 -57.4 -153.05 -57.4 -151.05 -58.45 -149.65 -59.5 -148.2 -60.95 -148.2 -62.4 -148.2 -63.45 -149.65 -64.5 -151.05 -64.5 -153.05 -64.5 -155.05 -63.45 -156.5
M -3.25 -52.85
L -4 -51.25 -1.1 -50 -0.4 -51.7 -3.25 -52.85
M -8.65 -54
L -7.6 -55.45 -10.1 -57.2 -11.1 -55.85 -8.65 -54
M -6.65 -55.05
L -7.45 -53.5 -4.65 -52.25 -3.9 -53.8 -6.65 -55.05
M -13.5 -64.9
L -16.05 -64.15
Q -16.25 -61.2 -13 -58.85
L -10.85 -60.5 -13.5 -64.9
M -13.35 -66.45
L -14.1 -71.9 -16.65 -71.9
Q -17.4 -68.55 -15.75 -66.35
L -13.35 -66.45
M -5.75 -70.25
L -8.8 -70.25
Q -5.95 -64.3 -8.8 -58.35
L -5.75 -58.35
Q -4.1 -63.8 -5.75 -70.25
M -0.2 -69
L -3.25 -69.35
Q -1.2 -62.15 -4.9 -55.55
L -1.85 -55.2
Q 0.5 -61.3 -0.2 -69
M -20.5 -84.55
L -25.5 -74.6 -21.6 -71.1 -14.25 -83.85 -20.5 -84.55
M -27.45 -75.95
L -24 -81.7 -27.7 -83 -31.1 -80.3 -27.45 -75.95
M -30.95 -89.65
L -34.3 -88.45 -32.15 -82.6 -28.85 -83.8 -30.95 -89.65
M -35.35 -97.1
L -34.9 -90.95 -31.35 -91.2 -31.8 -97.35 -35.35 -97.1
M -10.15 -87.25
L -13.15 -86.95 -13 -85.25 -9.95 -85.4 -10.15 -87.25
M -0.5 -87.2
L -3.55 -87.15 -3.5 -85.4 -0.45 -85.45 -0.5 -87.2
M -5.8 -87.25
L -8.9 -87.1 -8.8 -85.25 -5.75 -85.5 -5.8 -87.25
M -31.65 -99.1
L -31.5 -105.3 -35.05 -105.35 -35.2 -99.15 -31.65 -99.1
M -30.9 -113.8
L -34.45 -113.85 -34.55 -107.65 -31 -107.6 -30.9 -113.8
M -34.7 -115.9
L -31.15 -115.95 -31.25 -122.15 -34.8 -122.1 -34.7 -115.9
M -34.5 -130.65
L -34.4 -124.45 -30.85 -124.5 -30.95 -130.7 -34.5 -130.65
M -31.15 -139
L -34.7 -138.95 -34.6 -132.75 -31.05 -132.8 -31.15 -139
M -37.4 -146.7
L -35.6 -140.75 -32.25 -141.75 -34 -147.7 -37.4 -146.7
M -48.45 -161.25
L -50.7 -161.25 -50.7 -159.1 -48.45 -159.1 -48.45 -161.25
M -44 -153
L -42.3 -156.05 -47.65 -159.1 -49.45 -156.05 -44 -153
M -35.95 -150.4
L -40.05 -155.1 -42.7 -152.75 -38.65 -148.1 -35.95 -150.4
M 4.05 -48.2
L 7.05 -47.6 7.45 -49.3 4.5 -49.95 4.05 -48.2
M 11.85 -46.4
L 12.4 -47.65 9.75 -48.3 9.35 -47.15 11.85 -46.4
M 15.35 -44.8
L 16.05 -46 13.65 -47.1 13.05 -45.95 15.35 -44.8
M 20.05 -44.35
L 17.75 -45.6 17 -44.5 19.35 -43.2 20.05 -44.35
M 23.8 -41.4
L 24.6 -42.55 22.25 -43.8 21.4 -42.6 23.8 -41.4
M 26.75 -41.65
L 25.6 -40.6 27.6 -38.55 28.9 -39.6 26.75 -41.65
M 34.6 -50.75
L 33.1 -50.3 33.8 -47.75 35.15 -48.05 34.6 -50.75
M 31.5 -53.55
L 32.65 -51.15 34.05 -51.7 32.95 -54.15 31.5 -53.55
M 31.8 -57.6
L 30.4 -56.95 31.7 -54.55 33.05 -55.2 31.8 -57.6
M 28.95 -60.35
L 30.1 -57.9 31.55 -58.65 30.3 -61.05 28.95 -60.35
M 25.75 -65.5
L 27.1 -66.55 25.15 -68.9 23.8 -67.75 25.75 -65.5
M 27.95 -62.1
L 29.45 -62.9 28 -65.6 26.45 -64.7 27.95 -62.1
M 24.95 -70.1
L 22.9 -72.4 21.55 -71.2 23.6 -68.95 24.95 -70.1
M 10.25 -51.05
Q 12 -54.9 12 -60.9
L 10.25 -62.1
Q 11.05 -56 8.5 -52.25
L 10.25 -51.05
M 14.6 -60.85
Q 15.75 -54.8 13.5 -50.9
L 15.35 -49.8
Q 16.8 -53.75 16.45 -59.75
L 14.6 -60.85
M 19.05 -59.65
Q 19.85 -53.55 17.3 -49.8
L 19.05 -48.6
Q 20.8 -52.45 20.8 -58.45
L 19.05 -59.65
M 3.35 -49.8
L 0.55 -51 -0.1 -49.35 2.7 -48.2 3.35 -49.8
M 4.2 -67.95
L 1.15 -68.3
Q 3.15 -60.8 -0.55 -53.85
L 2.5 -53.5
Q 4.85 -59.95 4.2 -67.95
M 8.25 -64.35
L 6.35 -64.65
Q 7.05 -58.2 4.15 -52.4
L 6.05 -52.1
Q 8.1 -57.5 8.25 -64.35
M 16.25 -62.85
L 16.65 -64.8
Q 12.5 -68.2 10.9 -69.35 9.25 -70.5 4.15 -72.8 -1 -75.15 -2.85 -75.95 -6.5 -77.5 -9.95 -77.6
L -9.35 -78.15
Q -8.3 -78.75 -5.7 -79 -3.15 -79.3 0.5 -77.9 4.1 -76.5 8.05 -74 10.8 -72.5 17.55 -66.95 19.45 -67.3 18.4 -70 16.4 -71 14.1 -73.55 12.3 -75.55 7.9 -78.55 3.3 -81.7 -0.75 -83.3 -4.85 -84.9 -12.1 -83.4 -14.5 -80.85 -14 -78.85 -15.3 -77.6 -15.25 -73.9
L -8.15 -73.9
Q -6.95 -73.9 -0.6 -71.3 5.6 -68.75 7.65 -67.45 10.3 -65.8 16.25 -62.85
M 20.15 -75.65
L 18.9 -74.5 20.95 -72.2 22.25 -73.4 20.15 -75.65
M 18.35 -76.65
L 16.05 -78.7 14.9 -77.35 17.25 -75.4 18.35 -76.65
M 14 -77.8
L 14.9 -79.3 12.25 -80.8 11.35 -79.25 14 -77.8
M 0.95 -86.4
L 0.4 -84.75 3.3 -83.85 3.85 -85.55 0.95 -86.4
M 8.9 -83.3
L 8.05 -81.7 10.8 -80.3 11.65 -81.85 8.9 -83.3
M 7.95 -84.05
L 5.2 -85.45 4.45 -83.9 7.15 -82.45 7.95 -84.05 Z"/>
</g>

<path id="flamingo_0_Layer2_0_1_STROKES" stroke="#000000" stroke-width="1.5" stroke-linejoin="round" stroke-linecap="round" fill="none" d="
M -13.9 4.9
Q -12.6 5.6 -12.1 8
L -13.85 9.75
Q -12.05 12.9 -7.95 9.25 -4.15 8.1 1.7 0.15
L 0.5 -21.9 1 -27.3 0.05 -32.1 -1.05 -49.8 -3.45 -48.7 -2.55 -31.6
Q -4.6 -29.6 -3.75 -26
L -2.1 -23.35 -1.45 -1.9
Q -12.2 -3.9 -19.95 -0.6 -19.45 1.45 -16.85 0.7 -16.3 0.8 -16 1.15
L -9.6 0.1
M -16 1.15
Q -15.6 1.65 -15.75 2.7
L -18.25 4.45
Q -18.9 7.15 -13.9 4.9
L -8.2 2.3
M -12.1 8.55
L -7.35 4.3"/>

<path id="flamingo_0_Layer1_0_1_STROKES" stroke="#000000" stroke-width="1.5" stroke-linejoin="round" stroke-linecap="round" fill="none" d="
M 17.65 8.15
Q 16.3 8.85 15.8 11.35
L 17.6 13.15
Q 15.75 16.4 11.5 12.65 7.6 11.45 1.55 3.2
L 2.8 -19.55 2.25 -25.15 3.25 -30.1 4.4 -48.4 6.85 -47.25 5.95 -29.6
Q 8.05 -27.55 7.15 -23.8
L 5.45 -21.05 4.8 1.1
Q 15.9 -0.95 23.9 2.45 23.4 4.55 20.7 3.8 20.15 3.9 19.85 4.25 19.4 4.75 19.6 5.85
L 22.15 7.65
Q 22.85 10.45 17.65 8.15
L 11.75 5.45
M 19.85 4.25
L 13.2 3.15
M 15.8 11.9
L 10.9 7.5"/>

<path id="flamingo_0_Layer0_0_1_STROKES" stroke="#000000" stroke-width="1.5" stroke-linejoin="round" stroke-linecap="round" fill="none" d="
M -50.7 -149.7
Q -49.5 -150.35 -46.9 -150.5 -44.25 -150.7 -40.95 -146.55 -37.65 -142.4 -37.3 -135.05 -36.95 -127.75 -37.55 -113.8 -38.45 -92.4 -38.3 -88.8 -37.95 -79.2 -34.3 -76.15 -28.8 -71.55 -24.65 -66.95 -19.15 -58.15 -15 -54.05 -12.6 -51.65 -4.7 -49.15 6.2 -45.7 8 -44.9 11.7 -43.25 19.85 -40.8 26.8 -38.25 29.6 -34.3 34.2 -27.85 42 -20.5 40.85 -31.2 38.05 -43.3 32.55 -67.55 24.5 -74.75 18.9 -80.1 16.6 -82.15 12.9 -85.55 9.65 -87 2.1 -90.4 -17.3 -88.55 -20.75 -88.2 -23.4 -88
L -24.9 -90.1
Q -25.65 -91.3 -26.2 -93.85 -27.95 -102.05 -27.7 -123.35 -27.45 -144.65 -31.65 -150.1 -35.9 -155.55 -37.15 -156.55 -38.4 -157.6 -39.35 -158.4 -43.4 -161.85 -50.8 -162.6 -52.15 -162.75 -53.35 -162.8 -50 -159.35 -50.7 -149.7 -50.8 -149.7 -50.85 -149.65 -52.95 -143.6 -58.55 -139.6 -59.3 -139.1 -60.3 -138.15 -60.4 -138.1 -60.65 -137.5 -62.5 -133.6 -61.45 -128.55 -61.35 -126.8 -63.9 -128.55 -66.5 -130.35 -68.3 -132.65
L -68.45 -133.5
Q -70 -136.9 -69.7 -140.5
L -70.15 -150.6
Q -69.2 -158.85 -62.35 -162.1 -58.95 -163.15 -53.35 -162.8
M -67.3 -146.3
L -64.9 -143.05
Q -62.9 -140.35 -58.55 -139.6
M -64.9 -143.05
Q -67.7 -139.2 -68.3 -134.15
M -68.45 -133.5
L -60.65 -137.5"/>
</defs>

<g transform="matrix( 2.9651641845703125, 0, 0, 2.9651641845703125, 318.4,491.55) ">
<g transform="matrix( 1, 0, 0, 1, 0,0) ">
<use xlink:href="#flamingo_0_Layer2_0_FILL"/>

<use xlink:href="#flamingo_0_Layer2_0_1_STROKES"/>
</g>

<g transform="matrix( 1, 0, 0, 1, 0,0) ">
<use xlink:href="#flamingo_0_Layer1_0_FILL"/>

<use xlink:href="#flamingo_0_Layer1_0_1_STROKES"/>
</g>

<g transform="matrix( 1, 0, 0, 1, 0,0) ">
<use xlink:href="#flamingo_0_Layer0_0_FILL"/>

<use xlink:href="#flamingo_0_Layer0_0_1_STROKES"/>
</g>
</g>
</svg>
