
<svg xmlns="http://www.w3.org/2000/svg" version="1.1" xmlns:xlink="http://www.w3.org/1999/xlink" preserveAspectRatio="none" x="0px" y="0px" width="560px" height="544px" viewBox="0 0 560 544">
<defs>
<g id="Layer0_0_MEMBER_0_FILL">
<path fill="#000000" stroke="none" d="
M 139.95 275.9
Q 144.6 278.75 146.65 283.05 147.8 285.6 148.75 291.2 149.7 296.75 151 299.45 153.1 303.9 157.95 306.9 165.55 311.6 168.1 315 172.45 320.75 175.95 334.9 177.7 341.95 183 346.7 186.1 349.55 192.9 353.1 199.15 356.35 200.95 358.35 203.95 361.7 202.45 366.9 199.05 378.65 204.6 387.7 210.3 396.9 224.15 401.15 215.35 395 214.5 389.75 213.8 385.55 218.3 380.6 224.65 374.75 228 371.45 234.1 365.45 235.95 359.9 238.95 350.85 248.2 345.35 259.45 339.9 264.95 335.9 272.35 330.5 276.9 320.35 280.5 312.35 280.95 305.2 281.35 298.95 284.7 293.95 289 287.45 301.95 275.9 258.85 291.2 195.1 285.1 175.15 283.15 155.55 279.35
L 139.95 275.9 Z"/>
</g>

<g id="Layer0_0_MEMBER_1_FILL">
<path fill="#4C4C4C" stroke="none" d="
M 226.25 328.65
Q 230.7 326.55 239 322.3 254.4 314.9 270.45 315.9 262.7 313.25 251.8 314.05 237.95 315.05 227.7 321.9 216.45 329.45 199.8 326.4 183.5 323.4 171.7 312.15
L 174.75 316.3
Q 178.7 321.2 183.15 325 197.4 337.2 211.45 333.9 218.55 332.25 226.25 328.65 Z"/>
</g>

<g id="Layer0_0_MEMBER_2_FILL">
<path fill="#6B6B6B" stroke="none" d="
M 231.3 337.55
Q 221.1 345.25 209.5 344.2 205.9 343.85 202.55 342.65
L 199.95 341.55
Q 205.15 348.7 216.8 348.9 228.3 349.15 233.6 342.55 238.3 336.75 248 332.6 255.2 329.5 263.6 327.9 259.6 327.25 253.55 328.1 241.5 329.85 231.3 337.55 Z"/>
</g>

<g id="Layer0_0_MEMBER_3_FILL">
<path fill="#303030" stroke="none" d="
M 221.6 301.5
Q 213.8 305.45 209.15 306.55 201.75 308.35 197.55 305.05
L 198.9 306.6
Q 200.65 308.35 202.7 309.5 209.2 313.05 216.25 308.85 224.15 304.1 229.7 304.25 234.4 304.35 237.7 308.05 236.7 304.3 232.05 301.8 226.7 298.9 221.6 301.5 Z"/>
</g>

<g id="Layer0_0_MEMBER_4_FILL">
<path fill="#000000" stroke="none" d="
M 275.45 294.9
L 275.45 235.9 167.95 235.9 167.95 294.9 275.45 294.9 Z"/>
</g>

<g id="Layer0_1_MEMBER_0_FILL">
<path fill="#000000" stroke="none" d="
M 278.75 90.45
Q 262.45 84.7 254.1 79.25 245.7 73.75 243.95 67.7 241.75 60.2 249.4 50.3 256.95 40.75 253.6 30.05 250.85 21.05 241.1 12.95 232.85 6.05 224.7 3.45 218.7 1.5 214.4 1.5 209.55 1.5 208.55 4.2 207.3 7.5 213.25 12.5 216.1 14.9 217.25 18.7 218.4 22.55 217.5 26.65 216.1 33.1 210.6 38 205.05 42.95 196.35 45.45 183.8 49 175.05 56.35 167.7 62.55 164.85 69.65 163.35 73.3 163.4 76.65 163.4 80 164.95 82.65
L 165.4 83.45
Q 168.1 88.05 168.95 90.6 170.4 94.95 169.45 99.15 167 109.85 147.85 123.65 127.75 138.15 120.4 157.4 114.8 172.05 116.9 188.4 118.4 200.4 123.7 212.1 126.35 218 128.95 221.9 129.35 222.45 130.05 222.55
L 130.2 222.55
Q 130.9 222.55 131.25 222.1
L 189.95 161.8
Q 199.8 160.2 214 160.2 235.8 160.2 255.2 164.85 280.75 170.9 299.85 184.6 300.3 184.9 300.75 184.9 301.25 184.9 301.6 184.6 315 175.45 321.45 163.3 327.9 151.15 326.2 138.15 324.2 122.9 311.6 110.25 299.05 97.6 278.75 90.45 Z"/>
</g>

<g id="Layer0_1_MEMBER_1_FILL">
<path fill="#000000" stroke="none" d="
M 255.65 40.7
Q 256.8 35.2 255.05 29.6 252.15 20.25 242.15 11.85 233.6 4.75 225.15 2 218.85 0 214.4 0 208.5 0 207.1 3.7 205.55 7.95 212.3 13.65 214.8 15.8 215.85 19.2 216.85 22.6 216.05 26.35 214.75 32.4 209.45 37 204.2 41.65 195.9 44 183 47.65 174 55.3 166.45 61.7 163.45 69.1 161.85 73.1 161.9 76.75 161.95 80.45 163.65 83.4
L 164.1 84.2
Q 166.7 88.6 167.5 91 168.85 94.85 168.05 98.55 165.9 108.75 147 122.45 126.5 137.25 119 156.9 113.3 171.85 115.4 188.55 116.95 200.8 122.3 212.75 125.05 218.8 127.7 222.75 128.45 223.9 129.95 224.05
L 130.2 224.05
Q 131.45 224.05 132.35 223.15
L 190.7 163.2
Q 201 161.7 214 161.7 235.6 161.7 254.8 166.25 280.1 172.3 299 185.8 299.75 186.4 300.75 186.4 301.6 186.4 302.45 185.85 316.2 176.45 322.8 163.9 329.4 151.35 327.65 137.95 325.65 122.5 313.3 109.75 300.4 96.5 279.25 89.05 263.35 83.4 255.2 78.2 247.05 72.95 245.35 67.25 243.4 60.45 250.6 51.2 254.5 46.2 255.65 40.7
M 246.95 20.95
Q 258.85 35.85 248.25 49.4 237 63.8 246 74.35 253.5 83.15 278.25 91.9 297.4 98.65 309.45 110.2 320.9 121.15 324 134.45 327.05 147.65 321.3 160.3 315.25 173.5 300.75 183.4 281.3 169.5 255.2 163.3 235.7 158.7 214 158.7 204.7 158.7 196.05 159.55
L 189.25 160.4 130.2 221.05
Q 127.85 217.6 125.2 211.75 119.85 200.05 118.35 188.2 113.55 150.3 148.75 124.9 169.05 110.25 171.1 98.6 171.9 94.15 170.15 89.5 169.3 87.15 166.25 81.9 164.2 78.35 165.25 73.4 166.3 68.45 170.25 63.45 179.35 51.85 196.75 46.9 213.8 42.05 218.25 29.55 220.1 24.35 218.95 19.35 217.85 14.45 214.25 11.4 209.55 7.45 209.85 5.15 210.1 3 214.4 3 218.5 3 224.25 4.9 229.45 6.55 235.5 10.65 242.45 15.3 246.95 20.95 Z"/>
</g>

<g id="Layer0_1_MEMBER_2_FILL">
<path fill="#6B6B6B" stroke="none" d="
M 236.85 36.2
Q 235.8 28.3 230.05 22.9 235.2 30.75 232.25 38.15 230.1 43.7 222.8 49.8 214.45 56.1 211.35 58.7 206.2 63.05 207.55 65.65 211.55 73.4 209.2 81.55 205.85 93.15 189.5 112.05 175.75 127.9 182.4 144.6 186.25 154.2 195.25 161.55
L 196.2 162.3 222 145.2
Q 211.3 138.75 211.5 124.7 211.65 112.45 220.3 92.95 223.85 85 224.25 78.65 224.5 75.05 223.55 69.75 222.75 65.3 223.4 62.95 224.4 59.4 229.05 55.05 238.2 46.6 236.85 36.2 Z"/>
</g>

<g id="Layer0_1_MEMBER_3_FILL">
<path fill="#6B6B6B" stroke="none" d="
M 240.2 80
Q 236.95 75.45 234.35 66 235.15 81.85 242.25 90.3 247 95.95 263.15 108.8 274.8 119.05 268.15 130.15 266.05 133.6 262.4 136.7
L 259.15 139.15 259.8 140.25
Q 260.85 141.5 262.9 142.25 269.5 144.6 283.65 140.7 276.4 130.75 275.35 124.65 274.25 118.55 278.65 112.5 282.6 107.1 272 99.1 263.35 92.55 252.3 88.65 244.35 85.85 240.2 80 Z"/>
</g>

<g id="Layer0_1_MEMBER_4_FILL">
<path fill="#6B6B6B" stroke="none" d="
M 313 143.25
Q 310.1 128.25 293.45 112.25 309.85 137.8 300.3 151 297.35 155.15 292.1 157.55
L 287.5 159.1 288.7 161.65
Q 290.2 165.15 291.55 170 316.8 162.9 313 143.25 Z"/>
</g>

<g id="Layer0_1_MEMBER_5_FILL">
<path fill="#6B6B6B" stroke="none" d="
M 168.55 65.8
Q 162.45 75.3 166.25 81.9 169.3 87.15 170.15 89.5 171.9 94.15 171.1 98.6 169.05 110.25 148.75 124.9 113.55 150.3 118.35 188.2 119.85 200.05 125.2 211.75 127.85 217.6 130.2 221.05
L 132.2 219 134.95 209.05
Q 129.6 199.55 127.15 187.35 122.3 162.95 136.9 149.65 164.35 124.55 171.35 113.15 175.05 107.15 175.85 101.5 176.5 96.8 175.35 89.8 174 81.2 177.85 69.8 181.6 58.65 188.65 49.8 175.05 55.8 168.55 65.8 Z"/>
</g>

<g id="Layer0_1_MEMBER_6_FILL">
<path fill="#FEFCDE" stroke="none" d="
M 193.85 125.55
L 193.55 125.65 184.65 134.25 184.8 135.05
Q 185.6 139.1 181.5 143.95 178.55 147.5 174.25 150 170 152.45 166.75 152.45 164.4 152.45 163.35 151.1
L 162.8 150.45 157.35 151.1 156.95 151.6
Q 148.2 162.5 143.7 175.45 139.15 188.4 139.15 202.4 139.15 225.85 156.3 246.9 171.4 265.5 194.05 276
L 194.05 280.8
Q 194.05 289.7 200.35 296 206.65 302.3 215.55 302.3
L 240.85 302.3
Q 249.75 302.3 256.05 296 262.35 289.7 262.35 280.8
L 262.35 276.2
Q 281.35 267.4 291.5 248.35 301.65 229.3 301.65 202.4 301.65 185.9 295.25 170.8 289.1 156.2 277.85 144.95 266.55 133.7 252 127.55 236.9 121.15 220.4 121.15 206.6 121.15 193.85 125.55 Z"/>
</g>

<g id="Layer0_1_MEMBER_7_FILL">
<path fill="#000000" stroke="none" d="
M 183.35 135.35
Q 183.95 138.6 180.35 143 177.6 146.35 173.65 148.65 169.7 150.95 166.75 150.95 165.1 150.95 164.5 150.15
L 163.45 148.85 156.55 149.7 155.8 150.65
Q 146.9 161.8 142.25 174.95 137.65 188.1 137.65 202.4 137.65 214.15 142.2 225.75 146.7 237.35 155.4 248.05 162.7 257 172.25 264.4 181.85 271.85 192.55 276.95
L 192.55 280.8
Q 192.55 290.35 199.3 297.05 206.05 303.8 215.55 303.8
L 240.85 303.8
Q 250.35 303.8 257.1 297.05 263.85 290.3 263.85 280.8
L 263.85 277.15
Q 283.6 267.6 293.6 247.65 303.15 228.8 303.15 202.4 303.15 185.6 296.65 170.2 290.35 155.35 278.9 143.9 267.4 132.45 252.55 126.15 237.2 119.65 220.4 119.65 206.4 119.65 193.4 124.15
L 192.75 124.35 183.05 133.75 183.35 135.35
M 186.3 134.8
L 194.35 126.95
Q 206.85 122.65 220.4 122.65 236.65 122.65 251.45 128.9 265.75 134.95 276.8 146 287.85 157.05 293.9 171.35 300.15 186.15 300.15 202.4 300.15 228.05 290.95 246.3 280.9 266.3 260.85 275.2
L 260.85 280.8
Q 260.85 289.1 255 294.95 249.15 300.8 240.85 300.8
L 215.55 300.8
Q 207.25 300.8 201.4 294.95 195.55 289.1 195.55 280.8
L 195.55 275.05
Q 173 264.8 157.75 246.15 140.65 225.25 140.65 202.4 140.65 188.45 145.3 175.5 149.8 163 158.15 152.55
L 162.15 152.05
Q 163.75 153.95 166.75 153.95 173.15 153.95 180.15 147.55 187.45 140.85 186.3 134.8 Z"/>
</g>

<g id="Layer0_1_MEMBER_8_MEMBER_0_FILL">
<path fill="#D3CFA5" stroke="none" d="
M 220.4 122.65
Q 217.55 122.65 214.05 122.9 245 125.35 266.15 148.15 287.45 171.05 287.45 202.4 287.45 228.05 278.25 246.3 268.2 266.3 248.15 275.2
L 248.15 280.8
Q 248.15 289.1 242.3 294.95 236.5904296875 300.6595703125 228.55 300.8
L 240.85 300.8
Q 249.15 300.8 255 294.95 260.85 289.1 260.85 280.8
L 260.85 275.2
Q 280.9 266.3 290.95 246.3 300.15 228.05 300.15 202.4 300.15 186.15 293.9 171.35 287.85 157.05 276.8 146 265.75 134.95 251.45 128.9 236.65 122.65 220.4 122.65 Z"/>
</g>

<g id="Layer0_1_MEMBER_9_FILL">
<path fill="#D3CFA5" stroke="none" d="
M 244 226.55
L 246.9 244.1 255.35 255.8 244 226.55 Z"/>
</g>

<g id="Layer0_1_MEMBER_10_FILL">
<path fill="#3A3621" stroke="none" d="
M 245.85 242.6
Q 245.45 242.05 244.85 241.9
L 244.55 241.9
Q 244.05 241.9 243.65 242.15
L 225.6 255.7
Q 225.15 256.05 225 256.6 224.9 257.1 225.15 257.6 225.65 258.4 226.5 258.4
L 226.95 258.3 244.25 252.45 251.65 258.1
Q 252.1 258.4 252.6 258.4 253.1 258.4 253.6 258 254 257.65 254.05 257.15 254.15 256.6 253.85 256.15
L 245.85 242.6 Z"/>
</g>

<g id="Layer0_1_MEMBER_11_FILL">
<path fill="#000000" stroke="none" d="
M 245.15 240.45
L 244.55 240.4
Q 243.55 240.4 242.75 240.95
L 224.7 254.5
Q 223.8 255.2 223.55 256.25 223.35 257.3 223.85 258.3 224.65 259.9 226.5 259.9 227 259.9 227.45 259.75
L 244 254.1 250.75 259.3
Q 251.6 259.9 252.6 259.9 253.7 259.9 254.6 259.15 255.4 258.45 255.55 257.35 255.7 256.3 255.15 255.35
L 247.15 241.85
Q 246.45 240.7 245.15 240.45
M 252.6 256.9
L 244.55 250.75 226.5 256.9 244.55 243.4 252.6 256.9 Z"/>
</g>

<g id="Layer0_1_MEMBER_12_FILL">
<path fill="#3A3621" stroke="none" d="
M 220.35 242.05
Q 229.3 233.1 229.3 220.5
L 229.1 216.6 175.15 201.25 174.55 202.05
Q 168.35 210.25 168.35 220.5 168.35 233.1 177.3 242.05 186.2 250.95 198.8 250.95 211.45 250.95 220.35 242.05 Z"/>
</g>

<g id="Layer0_1_MEMBER_13_FILL">
<path fill="#000000" stroke="none" d="
M 230.8 220.5
Q 230.8 219.05 230.65 217.45
L 230.5 215.4 174.6 199.5 173.35 201.15
Q 166.85 209.7 166.85 220.5 166.85 233.7 176.25 243.1 185.6 252.45 198.8 252.45 212.05 252.45 221.4 243.1 230.8 233.7 230.8 220.5
M 227.8 220.5
Q 227.8 232.5 219.3 241 210.85 249.45 198.8 249.45 186.8 249.45 178.35 241 169.85 232.5 169.85 220.5 169.85 210.75 175.75 202.95
L 227.7 217.75 227.8 220.5 Z"/>
</g>

<g id="Layer0_1_MEMBER_14_MEMBER_0_FILL">
<path fill="#A8A37B" stroke="none" d="
M 227.8 220.5
L 227.7 217.75 222.5 216.25 222.55 217.7
Q 222.55 229.7 214.05 238.2 205.55 246.7 193.55 246.7 187.95 246.7 182.75 244.6 189.95 249.45 198.8 249.45 210.85 249.45 219.3 241 227.8 232.5 227.8 220.5 Z"/>
</g>

<g id="Layer0_1_MEMBER_15_FILL">
<path fill="#3A3621" stroke="none" d="
M 287.65 237.65
Q 294.05 231.25 294.05 222.15 294.05 214.8 289.6 208.9
L 289 208.1 250.4 219.1 250.3 220.1
Q 250.2 220.8 250.2 222.15 250.2 231.25 256.65 237.65 263.1 244.1 272.15 244.1 281.2 244.1 287.65 237.65 Z"/>
</g>

<g id="Layer0_1_MEMBER_16_FILL">
<path fill="#000000" stroke="none" d="
M 295.55 222.15
Q 295.55 214.3 290.8 208
L 289.55 206.4 249 217.9 248.8 219.95
Q 248.7 220.75 248.7 222.15 248.7 231.85 255.55 238.75 262.45 245.6 272.15 245.6 281.85 245.6 288.7 238.75 295.55 231.85 295.55 222.15
M 292.55 222.15
Q 292.55 230.6 286.55 236.6 280.6 242.6 272.15 242.6 263.7 242.6 257.7 236.6 251.7 230.65 251.7 222.15 251.7 220.9 251.8 220.25
L 288.4 209.8
Q 292.55 215.3 292.55 222.15 Z"/>
</g>

<g id="Layer0_1_MEMBER_17_FILL">
<path fill="#A8A37B" stroke="none" d="
M 286.55 236.6
Q 292.55 230.6 292.55 222.15 292.55 215.3 288.4 209.8
L 283.65 211.15
Q 286.9 216.2 286.9 222.15 286.9 229.85 281.85 235.65 276.8 241.4 269.3 242.4 270.5 242.6 272.15 242.6 280.6 242.6 286.55 236.6 Z"/>
</g>

<g id="Layer0_1_MEMBER_18_MEMBER_0_FILL">
<path fill="#D3CFA5" stroke="none" d="
M 186.3 134.8
Q 187 138.5 184.15 142.85 181.6 146.85 177.15 149.95 172.7 153.05 168.65 153.75 164.25 154.55 162.15 152.05
L 159.35 152.4
Q 156.45 155.5 153.65 158.7 147.4 168.3 144.1 179.2 140.65 190.5 140.65 202.4 140.65 225.25 157.75 246.15 173 264.8 195.55 275.05
L 195.55 280.8
Q 195.55 287.25 199.3 292.5
L 199.3 266.6
Q 186.7 266.6 176.3 257.1 163.6 245.6 163.6 226 163.6 210.45 172.5 200 180.3 190.9 194.05 186.55 206.15 182.7 220.35 183.2 233.55 183.7 243.65 187.65 249.4 185.2 257.95 185.4 267.5 185.65 275.75 189.3 297.25 198.85 297.25 225 297.25 227.2 297.1 229.3 300.15 216.8 300.15 202.4 300.15 186.15 293.9 171.35 287.85 157.05 276.8 146 265.75 134.95 251.45 128.9 236.65 122.65 220.4 122.65 206.85 122.65 194.35 126.95
L 186.3 134.8 Z"/>
</g>

<g id="Layer0_1_MEMBER_19_MEMBER_0_FILL">
<path fill="#D3CFA5" stroke="none" d="
M 271.85 268.9
Q 276.8 265.35 280.95 260.9 277.65 263.1 271.85 265.9
L 271.85 268.9 Z"/>
</g>

<g id="Layer0_1_MEMBER_20_FILL">
<path fill="#2D2D2D" stroke="none" d="
M 248.05 95.8
L 245.35 94.05
Q 245 93.55 244.55 93.35 244.25 93.2 243.9 93.2
L 243.45 93.25
Q 242.85 93.5 242.6 93.9 242 94.25 234 97.45 221.35 102.4 213.3 105.9 199.5 111.85 189.85 117.3 158.3 135.05 141.4 159 124.55 182.95 124.55 210.05 124.55 227.85 133.85 244.45 143.1 261.05 160.95 275.25 172.1 284.15 185.65 291.3 192.45 294.9 197.1 296.8
L 197.65 296.9
Q 198.1 296.9 198.5 296.65 199.15 296.15 199.15 295.4
L 199.15 258.6
Q 199.15 257.95 198.7 257.55 198.3 257.1 197.65 257.1 184.6 257.1 174.15 247.65 161.8 236.55 161.8 218 161.8 196.85 179.15 185.9 193.8 176.65 216.3 176.65 231.8 176.65 243.45 181.05
L 244 181.15 244.55 181.05
Q 249.75 178.9 257.7 178.9 274.05 178.9 285.15 187.4 298.5 197.6 298.5 217 298.5 234.35 290.55 244.2 285.05 251 272.85 256.5 272 256.95 272 257.9
L 272 296.25
Q 272 297.2 272.85 297.6 273.15 297.75 273.5 297.75 273.95 297.75 274.45 297.4 288.2 285.85 299.3 264.1 313 237.2 313 210.05
L 313 209.5
Q 313 192.15 312.45 184.35 311.55 171.6 308.55 161.9 301.5 139.15 277.2 117.45 263.25 105.05 248.05 95.8 Z"/>
</g>

<g id="Layer0_1_MEMBER_21_FILL">
<path fill="#000000" stroke="none" d="
M 244.9 91.85
Q 244.45 91.7 244 91.7
L 243.9 91.7
Q 243.45 91.7 243 91.85 242.2 92.05 241.65 92.7 240.75 93.15 233.45 96.05 220.45 101.15 212.7 104.55 198.8 110.55 189.1 116 174.5 124.2 162.6 134.25 150.65 144.3 142.25 155.4 123.05 180.95 123.05 210.05 123.05 230.4 134.7 249 144.05 263.75 160 276.4 171.35 285.4 184.75 292.55 191.55 296.2 196.55 298.2 197.25 298.4 197.65 298.4 198.5 298.4 199.35 297.9 200.65 296.95 200.65 295.4
L 200.65 258.6
Q 200.65 257.35 199.75 256.5 198.9 255.6 197.65 255.6 186.3 255.6 176.3 247.45 163.3 236.9 163.3 218 163.3 197.6 180.2 187.05 194.45 178.15 216.3 178.15 231.5 178.15 242.95 182.45 243.35 182.65 244 182.65 244.5 182.65 245.1 182.4 250.2 180.4 257.7 180.4 273.45 180.4 284.15 188.6 297 198.4 297 217 297 233.8 289.3 243.3 284.05 249.85 272.25 255.15 270.5 255.95 270.5 257.9
L 270.5 296.25
Q 270.5 298.15 272.2 298.95 272.8 299.25 273.5 299.25 274.55 299.25 275.4 298.55 289.35 286.85 300.6 264.8 314.5 237.55 314.5 210.05
L 314.5 209.5
Q 314.5 192 313.95 184.05 313 171.2 309.95 161.35 302.85 138.3 278.2 116.35 264.55 104.2 248.85 94.5
L 246.45 93
Q 245.9 92.15 244.9 91.85
M 243.9 94.85
L 243.9 94.7 243.95 94.8 244 94.7 244 94.85
Q 244.45 95.5 253.5 101.05 265.05 108.6 276.2 118.6 300.3 140.05 307.15 162.5 310.1 172.1 310.95 184.8 311.5 192.5 311.5 210.05 311.5 236.75 297.9 263.45 286.9 285 273.5 296.25
L 273.5 257.9
Q 285.7 252.35 291.25 245.65 300 235.25 300 217 300 196.45 285.6 185.85 274.05 177.4 257.7 177.4 249.45 177.4 244 179.65 238.3 177.5 231.2 176.35 223.9 175.15 216.3 175.15 193.45 175.15 178.35 184.65 160.3 196.05 160.3 218 160.3 237.6 173.6 249.1 184.5 258.6 197.65 258.6
L 197.65 295.4
Q 179.75 288.3 161.85 274.05 126.05 245.6 126.05 210.05 126.05 181.9 144.65 157.2 161.35 135.05 190.55 118.6 203.55 111.3 225.1 102.6 243.75 95.05 243.9 94.85 Z"/>
</g>

<g id="Layer0_1_MEMBER_22_FILL">
<path fill="#6B6B6B" stroke="none" d="
M 12.05 -303.1
L 12.05 -302.95
Q 11.9 -302.75 -6.75 -295.2 -28.3 -286.5 -41.3 -279.2 -70.5 -262.75 -87.2 -240.6 -105.8 -215.9 -105.8 -187.75 -105.8 -152.2 -70 -123.75 -52.1 -109.5 -34.2 -102.4
L -34.2 -139.2
Q -47.35 -139.2 -58.25 -148.7 -71.55 -160.2 -71.55 -179.8 -71.55 -195.35 -62.25 -205.8 -54.1 -214.9 -39.75 -219.25 -27.05 -223.1 -12.2 -222.6 1.6 -222.1 12.15 -218.15
L 12.4 -218.25 12.4 -302.7 12.15 -302.95 12.15 -303.1 12.1 -303 12.05 -303.1 Z"/>
</g>

<g id="Layer0_1_MEMBER_23_FILL">
<path fill="#BABABA" stroke="none" d="
M 168.1 140.6
Q 165.25 143.35 163.95 144.85 161.2 147.7 160 149.2
L 152.85 158.4
Q 152.05 159.4 149.7 163.2 147.2 167.2 146.75 168.1
L 144.1 173.1
Q 143.25 174.75 141.75 178.2 140.1 182 139.65 183.35
L 137.85 188.6
Q 137.45 189.6 137.05 191.2
L 135 199.2 134.95 199.25
Q 134.8 199.95 135.3 200.55 135.8 201.15 136.65 201.2
L 136.9 201.25 139.4 201.5
Q 139.45 201.5 140.65 201.65
L 157.4 205.2
Q 158.3 205.35 159.15 204.9 160 204.45 160.2 203.65
L 160.25 203.55 160.55 202.45 163.3 196.8
Q 163.55 196.3 164.7 194.6
L 166.25 192.45
Q 167.35 191.1 167.9 190.4
L 171.6 186.45
Q 172.95 185.2 173.6 184.55
L 175.7 182.75 182.55 177.9
Q 183.15 177.5 185 176.45
L 190.1 173.75
Q 191.5 173.1 191.35 171.65
L 190.7 167.9
Q 190.45 166.65 190.4 166
L 190.2 164.05
Q 189.9 161.5 189.85 160.25
L 189.4 148.6
Q 189.35 145.1 189.5 140.8
L 189.5 140.65
Q 189.5 140.15 189.2 139.75 188.75 139.25 188.05 139.2 187.3 139.1 186.7 139.5 185.1 140.45 184.75 140.75
L 182.95 142.05
Q 180.65 143.85 179.6 144.8
L 170.7 153.8 163.3 163.6
Q 162.8 164.3 161.15 167
L 159.15 170.45
Q 157.45 173.7 157.35 173.95
L 154.2 181.15
Q 153.85 182 152.95 184.8 152.15 187.2 151.9 188.45
L 150.95 192.15 152.25 188.5
Q 152.55 187.5 153.65 184.95 154.95 181.9 155.2 181.4
L 158.8 174.45
Q 160.15 172.2 160.8 171.1
L 163 167.75
Q 164.45 165.55 165.3 164.5
L 170.3 158.25 181.95 146.8
Q 183 145.9 185.2 144.3
L 185.55 144.05 185.55 160.65
Q 185.55 162 185.85 164.65
L 186.65 171.15 185.35 171.8
Q 184.15 172.35 182.65 173.25 180.3 174.55 180 174.75
L 172.6 180
Q 171.8 180.6 170.3 181.9
L 164.1 188.2 162.3 190.45
Q 161.75 191.25 160.65 192.8 159.45 194.55 159.1 195.2
L 157.75 197.7
Q 157.4 198.35 156.6 200.25
L 156.4 200.8
Q 152.1 199.75 148.35 199.05
L 141.65 197.9
Q 140.3 197.75 140.25 197.75
L 139.75 197.7 140.55 194.4
Q 141.6 190 141.85 189.25
L 143.5 184.15
Q 143.6 183.8 145.4 179.1 146.7 175.75 147.5 174.1
L 149.9 169.15
Q 150.25 168.4 152.6 164.3 155.25 159.8 155.45 159.55
L 162 150.3
Q 163.1 148.8 165.6 145.85 165.65 145.8 169.45 141.55 170.3 140.6 173.55 137.35 174.9 135.95 177.8 133.3 179.35 132.05 182.35 129.5 184.25 127.9 187.2 125.85 184.2 127.65 182.05 129.15 178.8 131.55 177.15 132.75 174 135.25 172.55 136.6 169.2 139.55 168.1 140.6 Z"/>
</g>

<g id="Layer0_1_MEMBER_24_FILL">
<path fill="#BABABA" stroke="none" d="
M 139.2 207.35
L 138.05 212
Q 137.85 212.9 137.75 213.9
L 137.6 219.65 138 223.5
Q 138 223.75 138.4 225.4
L 140.55 232.9
Q 140.65 233.25 141.35 234.75
L 143.55 239.55 157.85 237.7 158.25 238.65 160.6 243.45 163.7 248 167.5 252.15 172.05 255.75
Q 172.45 256.05 174.5 257.35 175.15 257.75 177.1 258.8 179.4 259.95 179.8 260.1
L 186.85 262.75 189.75 263.5 191.25 283.55 187.95 282 175.7 274.75
Q 172.55 272.6 172.35 272.45
L 165.95 267.6 171.7 273.05
Q 172.15 273.45 174.8 275.6
L 186.6 283.75 188.45 284.75
Q 190.15 285.65 190.35 285.75
L 194.45 287.55 193.65 261.05 188.15 259.45
Q 187.3 259.15 186.85 259
L 181.75 256.95
Q 180.9 256.65 179.3 255.75 177.7 254.95 177 254.45
L 172.7 251.4 168.95 247.9 165.8 244
Q 164.65 242.2 164.5 241.9 163.8 240.8 163.3 239.75 163.15 239.55 162.25 237.55
L 160.75 233.8 145.9 235.85 143.95 232 142.6 228.5
Q 142.35 227.95 142.05 226.75
L 140.45 219.55 140.2 214.1 140.65 209.5 158.2 214.6 139.2 207.35 Z"/>
</g>

<g id="Layer0_1_MEMBER_25_FILL">
<path fill="#6B6B6B" stroke="none" d="
M 25.4 -286.75
L 23.25 -289.95
Q 22.85 -290.5 22.25 -290.55 21.65 -290.55 21.2 -290.05 20.75 -289.5 20.75 -288.7
L 20.4 -273.25
Q 20.3 -268.1 20.3 -257.8 20.3 -247.5 20.4 -242.35
L 20.75 -226.85
Q 20.75 -226.05 21.2 -225.5 21.65 -224.95 22.25 -225
L 22.5 -225.05 23.75 -225.45
Q 24.9 -225.75 25 -225.75
L 26.3 -226
Q 26.9 -226.15 27.6 -226.15
L 30.25 -226.3 34.2 -226.05
Q 34.65 -226.05 35.55 -225.85
L 36.9 -225.6
Q 37.5 -225.55 38.2 -225.3
L 39.55 -224.95
Q 40.45 -224.75 40.85 -224.55
L 43.5 -223.65 41.05 -225.25
Q 40.65 -225.55 39.75 -225.95
L 38.45 -226.6
Q 37.9 -226.95 37.15 -227.2
L 33.1 -228.55
Q 32.2 -228.85 31.75 -228.9
L 30.35 -229.1
Q 29.4 -229.3 28.95 -229.3
L 27.55 -229.35
Q 26.6 -229.45 26.1 -229.4
L 23.65 -229.15 23.7 -284.15 26.45 -281.4
Q 26.6 -281.2 27.6 -280.35 28.35 -279.7 29.85 -278.35
L 34.65 -274.75
Q 37.25 -272.95 39.6 -271.65
L 30.9 -280.25 25.4 -286.75 Z"/>
</g>

<g id="Layer0_1_MEMBER_26_FILL">
<path fill="#6B6B6B" stroke="none" d="
M 286.4 140.55
Q 288.2 143.05 290.05 146.1
L 296.15 157.85
Q 299.2 164.9 300.9 170.2
L 302.8 176.5
Q 303.359765625 178.4591796875 304.25 182.3
L 302.7 184.85
Q 302.45 185.2 300.9 187.95
L 298.8 191.9 296.7 189.05 290.55 182.15 285.85 178.15
Q 285.3921875 177.775390625 283.9 176.8 283.4416015625 170.7654296875 283.3 169.35 283.1 166.5 282.5 161.2 281.9 155.8 281.5 153.1 281.1404296875 150.16796875 280.8 147.95
L 285.3 152.7
Q 286.5 154.25 286.75 154.65 287.05 155 288.15 156.6
L 291.75 162.9 294.65 169.6
Q 295.25 171.1 296.25 174.2 296.5 174.95 297.75 178.9 296.9 174.8 296.7 174.1
L 295.35 169.35
Q 295.05 168.1 294.6 167
L 292.85 162.4
Q 292.15 160.7 291.85 160.1
L 289.55 155.7 285.25 149.6
Q 284.15 148.35 283.6 147.7
L 279.95 144.25
Q 279.5 143.9 279.05 143.95 278.6 144.05 278.3 144.4 278.05 144.75 278.1 145.2
L 278.1 145.3 279.85 161.5
Q 280.35 166.9 280.5 169.6 280.75 172.3 281.05 177.7 281.05 178.35 281.7 178.85
L 281.75 178.85
Q 282.5 179.4 284.1 180.5 284.85 181 286.35 182.3
L 287.45 183.3
Q 288.2 183.9 288.5 184.3 289.7 185.4 290.55 186.4
L 292.5 188.6
Q 292.85 189 294.35 190.85
L 296.1 193.2
Q 296.8 194.15 297.75 195.65 297.95 195.95 298.35 196.2 298.9 196.45 299.5 196.25 300.05 196.05 300.3 195.5
L 306.95 183.25
Q 307.25 182.8 307.1 182.25 306.2 178.7 305.3 175.75 304.05 171.7 303.2 169.4 302.35 166.9 300.7 163.1 298.9 159 297.85 157.05
L 294.6 151.15
Q 292.95 148.3 290.95 145.5 288.65 142.3 286.85 140.2 284.6 137.45 282.25 135.4
L 286.4 140.55 Z"/>
</g>

<g id="Layer0_1_MEMBER_27_FILL">
<path fill="#6B6B6B" stroke="none" d="
M 308.5 196.05
Q 308.4 195.75 308.25 195.7 307.8 195.45 307.55 195.85
L 301.25 206.65 307.6 197.55 307.7 205.3
Q 307.65 209.55 307.15 214.4 307 216.65 306.7 218.9
L 304.75 230.65 303.05 229.9 302.7 229.8
Q 302.15 229.75 301.7 230.05 301.2 230.4 301.1 230.95
L 301.1 231
Q 300.15 236.1 298.2 240.45 296.95 243.1 295.9 244.85
L 293.05 248.85
Q 291.7 250.5 291.4 250.75
L 287.8 254.1
Q 287.45 254.4 285.85 255.65 284.5 256.6 283.8 257 283.3 257.35 281.65 258.3
L 279.45 259.45
Q 277.9 260.15 277.15 260.5
L 277.1 260.5
Q 276.35 260.85 276.35 261.7
L 276.3 286.4
Q 276.3 286.75 276.5 286.95 277.05 287.6 277.65 287.05
L 279.65 285.3
Q 280.3 284.7 281.5 283.4
L 283.25 281.45
Q 284.05 280.55 284.9 279.4
L 287.85 275.05
Q 288.55 273.85 289.05 272.75
L 290.15 270.4 287.4 274.75
Q 286 276.7 284.15 278.8
L 278.05 284.6 278.9 262.6
Q 279.6068359375 262.3212890625 280.6 261.9
L 285.3 259.45 289.65 256.35 293.55 252.75 296.95 248.6
Q 297.15 248.3 298.45 246.4 299.95 243.8 300.9 241.65 302.7248046875 237.419921875 303.55 233.2
L 305.2 233.85 305.25 233.9 305.5 233.95
Q 306.05 234.05 306.5 233.75 306.95 233.45 307.05 232.9
L 308.55 223.75 309.25 214.5
Q 309.4 212.25 309.4 209.9
L 309.35 205.3
Q 309.3 203 309.05 200.65
L 308.5 196.05 Z"/>
</g>

<g id="Layer0_1_MEMBER_28_FILL">
<path fill="#BABABA" stroke="none" d="
M 235.25 106.55
Q 235.25 106.25 235.1 105.85 234.8 105.25 234.15 105 233.5 104.8 232.9 105.05
L 214.9 113.55 197.15 122.5 231.8 109.1 231.65 154.25
Q 231.7845703125 159.0068359375 231.95 168
L 229.6 167.55
Q 227.45 167.1 225.15 166.95
L 216.15 166.95 207.35 168.25
Q 204.5 168.95 203.05 169.3
L 198.85 170.65 203.2 169.9
Q 206.85 169.4 207.55 169.35
L 211.9 169
Q 212.6 169 214.05 168.95
L 218.4 169
Q 219.15 169 220.55 169.1
L 224.85 169.6
Q 227.2 169.95 229 170.4
L 231.05 170.95
Q 232.5 171.4 232.95 171.6
L 233.5 171.7
Q 234.15 171.75 234.65 171.3 235.1 170.85 235.15 170.2
L 235.45 154.25 235.25 106.55 Z"/>
</g>

<g id="Layer0_2_MEMBER_0_FILL">
<path fill="#CECECE" stroke="none" d="
M 350.1 255.45
Q 349.75 255 349.25 254.9 343.8 253.75 338.3 253.75 331.45 253.75 326.55 255.45 320.75 257.45 319.75 261.3 318.1 267.4 329.95 274.2 331.95 275.35 331.85 278.2 331.75 281.3 329.25 284.7 326.5 288.45 322.05 290.65 315 294.15 309.5 301.1 304.45 307.45 303.45 313.05
L 303.35 313.7 303.35 313.75
Q 303.1 315.25 303.1 316.2 303.1 322.45 307.55 326.95 312 331.4 318.3 331.4 324.55 331.4 329 326.95 333.45 322.45 333.45 316.2 333.45 313.85 332.7 311.5
L 332.55 311
Q 331.85 308.1 331.8 306.6 331.65 304.1 332.75 302.7 334.85 300.05 341.8 300.05
L 345.4 300.15
Q 350.45 300.15 351.8 297.2 353.35 293.8 348.95 286.9 345.85 282.15 337.85 272.95
L 334.35 268.95
Q 332.45 266.55 333.2 264.85 334 262.65 338.3 260.8 342.5 258.95 349.2 257.85 349.75 257.8 350.1 257.35 350.45 256.95 350.45 256.4 350.45 255.85 350.1 255.45 Z"/>
</g>

<g id="Layer0_2_MEMBER_1_FILL">
<path fill="#000000" stroke="none" d="
M 349.45 259.35
Q 350.5 259.15 351.2 258.35 351.9 257.55 351.95 256.45 352 255.35 351.3 254.5 350.65 253.7 349.55 253.45 344.1 252.25 338.3 252.25 331 252.25 325.75 254.2 319.5 256.5 318.3 260.9 316.35 268.15 329.2 275.5 330.4 276.3 330.35 278.15 330.25 280.9 328 283.95 325.45 287.3 321.35 289.3 314.05 292.95 308.3 300.2 303.05 306.95 302 312.8
L 301.95 313.05 301.9 313.15 301.9 313.2 301.85 313.5 301.85 313.55
Q 301.6 315.15 301.6 316.2 301.6 323.1 306.5 328 311.4 332.9 318.3 332.9 325.15 332.9 330.05 328 334.95 323.1 334.95 316.2 334.95 313.5 334.15 311.1
L 334.05 310.65
Q 333.45 308.1 333.35 306.8 333.15 304.65 333.95 303.6 335.6 301.55 341.8 301.55
L 345.4 301.65
Q 351.45 301.65 353.2 297.8 355 293.8 350.7 286.85 347.6 281.85 338.95 272
L 335.55 268
Q 334.2 266.35 334.6 265.35 335.2 263.8 338.8 262.2 342.95 260.4 349.45 259.35
M 334.4 261.3
Q 329.25 265 333.2 269.9 334.6 271.6 339.6 277.25 344.55 283 347.1 286.85 355.1 298.65 345.4 298.65
L 344.35 298.65
Q 343.45 298.55 341.8 298.55 332.5 298.55 330.75 303.25 329.8 305.75 331.25 311.9 331.95 314 331.95 316.2 331.95 321.85 327.95 325.9 323.95 329.9 318.3 329.9 312.65 329.9 308.6 325.9 304.6 321.85 304.6 316.2 304.6 315.15 304.85 313.9
L 304.85 313.7 304.9 313.35
Q 305.85 308.3 310.5 302.25 315.85 295.4 322.7 292 330.1 288.35 332.6 281.8 335.05 275.4 330.7 272.9 317.9 265.55 321.9 260.15 325.5 255.25 338.3 255.25 343.8 255.25 348.95 256.4 338.85 258.05 334.4 261.3 Z"/>
</g>

<g id="Layer0_3_FILL">
<path fill="#B2B2B2" stroke="none" d="
M 338.4 257.15
Q 328.15 258.6 327.3 262.4 326.75 264.6 329 267.6 330.4 269.4 334.25 273.65 340.2 280.75 342.05 284.6 345.7 292.25 338.4 293.1 330.75 294 328.1 300.85 326.1 306.1 327.3 312.95 328.6 320.75 321.35 325.5 314 330.25 308.15 325.3
L 308.15 325.35
Q 312.3 329.9 318.3 329.9 323.95 329.9 327.95 325.9 331.95 321.85 331.95 316.2 331.95 314 331.25 311.9 329.7 305.35 330.9 302.8 333.2 298 344.35 298.65 355.35 299.3 347.4 287.3 344.85 283.35 339.75 277.5 334.6 271.65 333.2 269.9 329.3 265 334.25 261.35 338.55 258.15 348.5 256.45 343.55 256.45 338.4 257.15 Z"/>
</g>

<g id="Layer0_4_MEMBER_0_FILL">
<path fill="#FEFCDE" stroke="none" d="
M 157.2 262.6
Q 149.7 262.6 144.15 267.55 138 272.95 137.5 281.1 137 289.3 142.4 295.4 145.2 298.6 149.1 300.35 152.95 302.1 157.2 302.1 164.7 302.1 170.25 297.15 173.2 294.55 174.95 291.05 176.7 287.55 176.9 283.6 177.15 279.65 175.9 275.95 174.65 272.25 172 269.3 169.25 266.1 165.35 264.35 161.45 262.6 157.2 262.6 Z"/>
</g>

<g id="Layer0_4_MEMBER_1_FILL">
<path fill="#000000" stroke="none" d="
M 157.2 261.1
Q 153.35 261.1 149.7 262.5 146.1 263.85 143.15 266.4 139.95 269.2 138.1 273 136.25 276.75 136 281 135.75 285.25 137.1 289.25 138.45 293.2 141.25 296.4 144.3 299.85 148.45 301.75 152.6 303.6 157.2 303.6 165.15 303.6 171.25 298.3 174.45 295.5 176.3 291.7 178.15 287.95 178.4 283.7 178.65 279.45 177.3 275.5 175.95 271.5 173.15 268.3 170.1 264.9 165.95 263 161.75 261.1 157.2 261.1
M 145.15 268.65
Q 150.3 264.1 157.2 264.1 161.05 264.1 164.6 265.65 168.25 267.3 170.9 270.3 175.9 275.95 175.4 283.5 174.95 291.05 169.25 296.05 164.1 300.6 157.2 300.6 153.35 300.6 149.8 299.05 146.15 297.4 143.5 294.4 138.5 288.75 139 281.2 139.45 273.65 145.15 268.65 Z"/>
</g>

<g id="Layer0_4_MEMBER_2_FILL">
<path fill="#D3CFA5" stroke="none" d="
M 139 281.2
Q 138.5 288.75 143.5 294.4 148.5 300.1 156.05 300.55 163.6 301.05 169.25 296.05
L 169.35 296
Q 161.85 297.05 156.25 292.65 151.2 288.7 150.05 282.5 149 276.8 151.85 271.65 154.3 267.2 159 264.2 155.25 263.85 151.75 264.95 148.05 266.1 145.15 268.65 139.45 273.65 139 281.2 Z"/>
</g>

<g id="Layer0_4_MEMBER_3_FILL">
<path fill="#FEFCDE" stroke="none" d="
M 236.65 339.95
Q 233.85 336.75 229.95 335 226.05 333.25 221.8 333.25 214.3 333.25 208.75 338.2 202.65 343.6 202.1 351.75 201.6 359.95 207 366.05 209.8 369.25 213.7 371 217.55 372.75 221.8 372.75 229.25 372.75 234.85 367.85 237.85 365.2 239.55 361.75 241.3 358.2 241.5 354.25 241.75 350.3 240.5 346.6 239.25 342.9 236.65 339.95 Z"/>
</g>

<g id="Layer0_4_MEMBER_4_FILL">
<path fill="#000000" stroke="none" d="
M 221.8 331.75
Q 217.95 331.75 214.3 333.15 210.7 334.5 207.75 337.05 204.55 339.85 202.7 343.65 200.85 347.45 200.6 351.7 200.35 355.95 201.7 359.9 203.05 363.85 205.85 367.05 208.9 370.5 213.05 372.4 217.2 374.25 221.8 374.25 229.85 374.25 235.85 368.95 239.05 366.15 240.9 362.4 242.75 358.6 243 354.35 243.25 350.1 241.9 346.15 240.55 342.15 237.75 338.95 234.7 335.55 230.55 333.65 226.35 331.75 221.8 331.75
M 209.75 339.3
Q 214.9 334.75 221.8 334.75 225.65 334.75 229.2 336.3 232.85 337.95 235.5 340.95 240.5 346.6 240 354.15 239.55 361.7 233.85 366.7 228.7 371.25 221.8 371.25 217.9 371.25 214.4 369.7 210.75 368.1 208.1 365.1 203.1 359.4 203.6 351.85 204.1 344.35 209.75 339.3 Z"/>
</g>

<g id="Layer0_4_MEMBER_5_FILL">
<path fill="#D3CFA5" stroke="none" d="
M 216.35 335.6
Q 212.65 336.75 209.75 339.3 204.1 344.35 203.6 351.85 203.1 359.4 208.1 365.1 213.1 370.75 220.65 371.25 228.2 371.7 233.85 366.7
L 233.95 366.65
Q 226.45 367.7 220.85 363.35 215.8 359.4 214.65 353.2 213.6 347.5 216.45 342.35 218.9 337.85 223.6 334.9 219.9 334.5 216.35 335.6 Z"/>
</g>

<g id="Layer0_5_MEMBER_0_FILL">
<path fill="#CECECE" stroke="none" d="
M 350.1 255.45
Q 349.75 255 349.25 254.9 343.8 253.75 338.3 253.75 331.45 253.75 326.55 255.45 320.75 257.45 319.75 261.3 318.1 267.4 329.95 274.2 331.95 275.35 331.85 278.2 331.75 281.3 329.25 284.7 326.5 288.45 322.05 290.65 315 294.15 309.5 301.1 304.45 307.45 303.45 313.05
L 303.35 313.7 303.35 313.75
Q 303.1 315.25 303.1 316.2 303.1 322.45 307.55 326.95 312 331.4 318.3 331.4 324.55 331.4 329 326.95 333.45 322.45 333.45 316.2 333.45 313.85 332.7 311.5
L 332.55 311
Q 331.85 308.1 331.8 306.6 331.65 304.1 332.75 302.7 334.85 300.05 341.8 300.05
L 345.4 300.15
Q 350.45 300.15 351.8 297.2 353.35 293.8 348.95 286.9 345.85 282.15 337.85 272.95
L 334.35 268.95
Q 332.45 266.55 333.2 264.85 334 262.65 338.3 260.8 342.5 258.95 349.2 257.85 349.75 257.8 350.1 257.35 350.45 256.95 350.45 256.4 350.45 255.85 350.1 255.45 Z"/>
</g>

<g id="Layer0_5_MEMBER_1_FILL">
<path fill="#000000" stroke="none" d="
M 349.45 259.35
Q 350.5 259.15 351.2 258.35 351.9 257.55 351.95 256.45 352 255.35 351.3 254.5 350.65 253.7 349.55 253.45 344.1 252.25 338.3 252.25 331 252.25 325.75 254.2 319.5 256.5 318.3 260.9 316.35 268.15 329.2 275.5 330.4 276.3 330.35 278.15 330.25 280.9 328 283.95 325.45 287.3 321.35 289.3 314.05 292.95 308.3 300.2 303.05 306.95 302 312.8
L 301.95 313.05 301.9 313.15 301.9 313.2 301.85 313.5 301.85 313.55
Q 301.6 315.15 301.6 316.2 301.6 323.1 306.5 328 311.4 332.9 318.3 332.9 325.15 332.9 330.05 328 334.95 323.1 334.95 316.2 334.95 313.5 334.15 311.1
L 334.05 310.65
Q 333.45 308.1 333.35 306.8 333.15 304.65 333.95 303.6 335.6 301.55 341.8 301.55
L 345.4 301.65
Q 351.45 301.65 353.2 297.8 355 293.8 350.7 286.85 347.6 281.85 338.95 272
L 335.55 268
Q 334.2 266.35 334.6 265.35 335.2 263.8 338.8 262.2 342.95 260.4 349.45 259.35
M 334.4 261.3
Q 329.25 265 333.2 269.9 334.6 271.6 339.6 277.25 344.55 283 347.1 286.85 355.1 298.65 345.4 298.65
L 344.35 298.65
Q 343.45 298.55 341.8 298.55 332.5 298.55 330.75 303.25 329.8 305.75 331.25 311.9 331.95 314 331.95 316.2 331.95 321.85 327.95 325.9 323.95 329.9 318.3 329.9 312.65 329.9 308.6 325.9 304.6 321.85 304.6 316.2 304.6 315.15 304.85 313.9
L 304.85 313.7 304.9 313.35
Q 305.85 308.3 310.5 302.25 315.85 295.4 322.7 292 330.1 288.35 332.6 281.8 335.05 275.4 330.7 272.9 317.9 265.55 321.9 260.15 325.5 255.25 338.3 255.25 343.8 255.25 348.95 256.4 338.85 258.05 334.4 261.3 Z"/>
</g>

<g id="Layer0_6_FILL">
<path fill="#B2B2B2" stroke="none" d="
M 338.4 257.15
Q 328.15 258.6 327.3 262.4 326.75 264.6 329 267.6 330.4 269.4 334.25 273.65 340.2 280.75 342.05 284.6 345.7 292.25 338.4 293.1 330.75 294 328.1 300.85 326.1 306.1 327.3 312.95 328.6 320.75 321.35 325.5 314 330.25 308.15 325.3
L 308.15 325.35
Q 312.3 329.9 318.3 329.9 323.95 329.9 327.95 325.9 331.95 321.85 331.95 316.2 331.95 314 331.25 311.9 329.7 305.35 330.9 302.8 333.2 298 344.35 298.65 355.35 299.3 347.4 287.3 344.85 283.35 339.75 277.5 334.6 271.65 333.2 269.9 329.3 265 334.25 261.35 338.55 258.15 348.5 256.45 343.55 256.45 338.4 257.15 Z"/>
</g>

<path id="Layer0_0_MEMBER_0_1_STROKES" stroke="#000000" stroke-width="3" stroke-linejoin="round" stroke-linecap="butt" fill="none" d="
M 188.4618995666504 395.181819152832
L 206.37062149047853 399.1424018859863
Q 228.8713233947754 403.50478286743163 251.7738235473633 405.74337310791014 324.958504486084 412.746142578125 374.4370887756348 395.181819152832 359.5705535888672 408.44116134643554 354.6341751098633 415.90312881469725 350.7883918762207 421.6431037902832 350.32919387817384 428.8180725097656 349.8125961303711 437.0262367248535 345.67981414794923 446.210196685791 340.456436920166 457.86234588623046 331.96127395629884 464.06151885986327 325.6473014831543 468.653498840332 312.73235778808595 474.9100715637207 302.11340408325196 481.2240440368652 298.6694190979004 491.61339874267577 296.5456283569336 497.98477096557616 289.54285888671876 504.8727409362793 285.6970756530762 508.661124420166 278.40730743408204 515.3768951416016 273.2413299560547 521.0594703674317 274.04492645263673 525.8810493469239 275.02072219848634 531.9080230712891 285.1230781555176 538.9681922912598 269.22334747314454 534.0892135620118 262.6797760009766 523.5276596069336 256.3084037780762 513.1383049011231 260.2115867614746 499.6493637084961 261.9335792541504 493.6797897338867 258.48959426879884 489.83400650024413 256.4232032775879 487.53801651000975 249.24823455810548 483.8070327758789 241.4418685913086 479.7316505432129 237.88308410644532 476.4598648071289 231.79871063232423 471.00688858032225 229.78971939086915 462.9135238647461 225.771736907959 446.6693946838379 220.77795867919923 440.06842346191405 217.8505714416504 436.1652404785156 209.12580947875978 430.76966400146483 203.55803375244142 427.32567901611327 201.14724426269532 422.2171012878418 199.65485076904298 419.1175148010254 198.56425552368165 412.746142578125 197.47366027832032 406.31737060546874 196.15346603393556 403.3899833679199 193.80007629394532 398.453604888916 188.4618995666504 395.181819152832 Z"/>

<path id="Layer0_0_MEMBER_4_1_STROKES" stroke="#000000" stroke-width="3" stroke-linejoin="round" stroke-linecap="butt" fill="none" d="
M 344.0152214050293 416.9937240600586
L 220.60575942993165 416.9937240600586 220.60575942993165 349.2620193481445 344.0152214050293 349.2620193481445 344.0152214050293 416.9937240600586 Z"/>
</defs>

<g transform="matrix( 1.1479949951171875, 0, 0, 1.1479949951171875, 27.8,78.45) ">
<use xlink:href="#Layer0_0_MEMBER_0_FILL"/>

<use xlink:href="#Layer0_0_MEMBER_0_1_STROKES" transform="matrix( 0.8710784912109375, 0, 0, 0.8710784912109375, -24.2,-68.3) "/>
</g>

<g transform="matrix( 1.1479949951171875, 0, 0, 1.1479949951171875, 27.8,78.45) ">
<use xlink:href="#Layer0_0_MEMBER_1_FILL"/>
</g>

<g transform="matrix( 1.1479949951171875, 0, 0, 1.1479949951171875, 27.8,78.45) ">
<use xlink:href="#Layer0_0_MEMBER_2_FILL"/>
</g>

<g transform="matrix( 1.1479949951171875, 0, 0, 1.1479949951171875, 27.8,78.45) ">
<use xlink:href="#Layer0_0_MEMBER_3_FILL"/>
</g>

<g transform="matrix( 1.1479949951171875, 0, 0, 1.1479949951171875, 27.8,78.45) ">
<use xlink:href="#Layer0_0_MEMBER_4_FILL"/>

<use xlink:href="#Layer0_0_MEMBER_4_1_STROKES" transform="matrix( 0.8710784912109375, 0, 0, 0.8710784912109375, -24.2,-68.3) "/>
</g>

<g transform="matrix( 1.1479949951171875, 0, 0, 1.1479949951171875, 27.8,78.45) ">
<use xlink:href="#Layer0_1_MEMBER_0_FILL"/>
</g>

<g transform="matrix( 1.1479949951171875, 0, 0, 1.1479949951171875, 27.8,78.45) ">
<use xlink:href="#Layer0_1_MEMBER_1_FILL"/>
</g>

<g transform="matrix( 1.1479949951171875, 0, 0, 1.1479949951171875, 27.8,78.45) ">
<use xlink:href="#Layer0_1_MEMBER_2_FILL"/>
</g>

<g transform="matrix( 1.1479949951171875, 0, 0, 1.1479949951171875, 27.8,78.45) ">
<use xlink:href="#Layer0_1_MEMBER_3_FILL"/>
</g>

<g transform="matrix( 1.1479949951171875, 0, 0, 1.1479949951171875, 27.8,78.45) ">
<use xlink:href="#Layer0_1_MEMBER_4_FILL"/>
</g>

<g transform="matrix( 1.1479949951171875, 0, 0, 1.1479949951171875, 27.8,78.45) ">
<use xlink:href="#Layer0_1_MEMBER_5_FILL"/>
</g>

<g transform="matrix( 1.1479949951171875, 0, 0, 1.1479949951171875, 27.8,78.45) ">
<use xlink:href="#Layer0_1_MEMBER_6_FILL"/>
</g>

<g transform="matrix( 1.1479949951171875, 0, 0, 1.1479949951171875, 27.8,78.45) ">
<use xlink:href="#Layer0_1_MEMBER_7_FILL"/>
</g>

<g transform="matrix( 1.1479949951171875, 0, 0, 1.1479949951171875, 27.8,78.45) ">
<use xlink:href="#Layer0_1_MEMBER_8_MEMBER_0_FILL"/>
</g>

<g transform="matrix( 1.1479949951171875, 0, 0, 1.1479949951171875, 27.8,78.45) ">
<use xlink:href="#Layer0_1_MEMBER_9_FILL"/>
</g>

<g transform="matrix( 1.1479949951171875, 0, 0, 1.1479949951171875, 27.8,78.45) ">
<use xlink:href="#Layer0_1_MEMBER_10_FILL"/>
</g>

<g transform="matrix( 1.1479949951171875, 0, 0, 1.1479949951171875, 27.8,78.45) ">
<use xlink:href="#Layer0_1_MEMBER_11_FILL"/>
</g>

<g transform="matrix( 1.1479949951171875, 0, 0, 1.1479949951171875, 27.8,78.45) ">
<use xlink:href="#Layer0_1_MEMBER_12_FILL"/>
</g>

<g transform="matrix( 1.1479949951171875, 0, 0, 1.1479949951171875, 27.8,78.45) ">
<use xlink:href="#Layer0_1_MEMBER_13_FILL"/>
</g>

<g transform="matrix( 1.1479949951171875, 0, 0, 1.1479949951171875, 27.8,78.45) ">
<use xlink:href="#Layer0_1_MEMBER_14_MEMBER_0_FILL"/>
</g>

<g transform="matrix( 1.1479949951171875, 0, 0, 1.1479949951171875, 27.8,78.45) ">
<use xlink:href="#Layer0_1_MEMBER_15_FILL"/>
</g>

<g transform="matrix( 1.1479949951171875, 0, 0, 1.1479949951171875, 27.8,78.45) ">
<use xlink:href="#Layer0_1_MEMBER_16_FILL"/>
</g>

<g transform="matrix( 1.1479949951171875, 0, 0, 1.1479949951171875, 27.8,78.45) ">
<use xlink:href="#Layer0_1_MEMBER_17_FILL"/>
</g>

<g transform="matrix( 1.1479949951171875, 0, 0, 1.1479949951171875, 27.8,78.45) ">
<use xlink:href="#Layer0_1_MEMBER_18_MEMBER_0_FILL"/>
</g>

<g transform="matrix( 1.1479949951171875, 0, 0, 1.1479949951171875, 27.8,78.45) ">
<use xlink:href="#Layer0_1_MEMBER_19_MEMBER_0_FILL"/>
</g>

<g transform="matrix( 1.1479949951171875, 0, 0, 1.1479949951171875, 27.8,78.45) ">
<use xlink:href="#Layer0_1_MEMBER_20_FILL"/>
</g>

<g transform="matrix( 1.1479949951171875, 0, 0, 1.1479949951171875, 27.8,78.45) ">
<use xlink:href="#Layer0_1_MEMBER_21_FILL"/>
</g>

<g transform="matrix( 1.1479949951171875, 0, 0, 1.1479949951171875, 294,535.1) ">
<use xlink:href="#Layer0_1_MEMBER_22_FILL"/>
</g>

<g transform="matrix( 1.1479949951171875, 0, 0, 1.1479949951171875, 27.8,78.45) ">
<use xlink:href="#Layer0_1_MEMBER_23_FILL"/>
</g>

<g transform="matrix( 1.1479949951171875, 0, 0, 1.1479949951171875, 27.8,78.45) ">
<use xlink:href="#Layer0_1_MEMBER_24_FILL"/>
</g>

<g transform="matrix( 1.1479949951171875, 0, 0, 1.1479949951171875, 294,535.1) ">
<use xlink:href="#Layer0_1_MEMBER_25_FILL"/>
</g>

<g transform="matrix( 1.1479949951171875, 0, 0, 1.1479949951171875, 27.8,78.45) ">
<use xlink:href="#Layer0_1_MEMBER_26_FILL"/>
</g>

<g transform="matrix( 1.1479949951171875, 0, 0, 1.1479949951171875, 27.8,78.45) ">
<use xlink:href="#Layer0_1_MEMBER_27_FILL"/>
</g>

<g transform="matrix( 1.1479949951171875, 0, 0, 1.1479949951171875, 27.8,78.45) ">
<use xlink:href="#Layer0_1_MEMBER_28_FILL"/>
</g>

<g transform="matrix( 0.7960968017578125, 0, 0.1139068603515625, 0.7960968017578125, 57,-100.95) ">
<use xlink:href="#Layer0_2_MEMBER_0_FILL"/>
</g>

<g transform="matrix( 0.7960968017578125, 0, 0.1139068603515625, 0.7960968017578125, 57,-100.95) ">
<use xlink:href="#Layer0_2_MEMBER_1_FILL"/>
</g>

<g transform="matrix( 0.7960968017578125, 0, 0.1139068603515625, 0.7960968017578125, 57,-100.95) ">
<use xlink:href="#Layer0_3_FILL"/>
</g>

<g transform="matrix( 1.1479949951171875, 0, 0, 1.1479949951171875, 27.8,78.45) ">
<use xlink:href="#Layer0_4_MEMBER_0_FILL"/>
</g>

<g transform="matrix( 1.1479949951171875, 0, 0, 1.1479949951171875, 27.8,78.45) ">
<use xlink:href="#Layer0_4_MEMBER_1_FILL"/>
</g>

<g transform="matrix( 1.1479949951171875, 0, 0, 1.1479949951171875, 27.8,78.45) ">
<use xlink:href="#Layer0_4_MEMBER_2_FILL"/>
</g>

<g transform="matrix( 1.1479949951171875, 0, 0, 1.1479949951171875, 27.8,78.45) ">
<use xlink:href="#Layer0_4_MEMBER_3_FILL"/>
</g>

<g transform="matrix( 1.1479949951171875, 0, 0, 1.1479949951171875, 27.8,78.45) ">
<use xlink:href="#Layer0_4_MEMBER_4_FILL"/>
</g>

<g transform="matrix( 1.1479949951171875, 0, 0, 1.1479949951171875, 27.8,78.45) ">
<use xlink:href="#Layer0_4_MEMBER_5_FILL"/>
</g>

<g transform="matrix( -0.7401580810546875, 0, -0.10601806640625, 0.9954833984375, 505.45,-210.1) ">
<use xlink:href="#Layer0_5_MEMBER_0_FILL"/>
</g>

<g transform="matrix( -0.7401580810546875, 0, -0.10601806640625, 0.9954833984375, 505.45,-210.1) ">
<use xlink:href="#Layer0_5_MEMBER_1_FILL"/>
</g>

<g transform="matrix( -0.740234375, 0, -0.105926513671875, 0.9954833984375, 505.8,-210.1) ">
<use xlink:href="#Layer0_6_FILL"/>
</g>
</svg>
