
<svg xmlns="http://www.w3.org/2000/svg" version="1.1" xmlns:xlink="http://www.w3.org/1999/xlink" preserveAspectRatio="none" x="0px" y="0px" width="560px" height="544px" viewBox="0 0 560 544">
<defs>
<radialGradient id="Gradient_1" gradientUnits="userSpaceOnUse" cx="0" cy="0" r="4.150790587345983" fx="0" fy="0" gradientTransform="matrix( -0.9666833138324123, 0.25597533232322445, 0.25597533232322445, 0.9666833138324123, -15.65,-0.55) " spreadMethod="pad">
<stop  offset="0%" stop-color="#99FF00"/>

<stop  offset="100%" stop-color="#00CC00"/>
</radialGradient>

<radialGradient id="Gradient_2" gradientUnits="userSpaceOnUse" cx="0" cy="0" r="4.150000000000001" fx="0" fy="0" gradientTransform="matrix( 0.9999999999999998, 0, 0, 0.9999999999999998, 6.95,-3) " spreadMethod="pad">
<stop  offset="0%" stop-color="#99FF00"/>

<stop  offset="100%" stop-color="#00CC00"/>
</radialGradient>

<g id="Duplicate_Items_Folder_body_front_0_Layer0_0_FILL">
<path fill="#000000" stroke="none" d="
M -24.6 19.4
L -20.75 3.75 -27.3 15.65 -24.95 14.5 -24.6 19.4
M -0.35 20.8
L -2.45 9.75 -7.3 15.8 -8 3.75 -13.1 22 -5.8 18.05 -0.35 20.8
M 15.55 16.15
L 18.3 17.4 11.4 3.45 15.05 16.8 15.55 16.15
M 7.3 15.5
L 9.9 18.05 2.45 -0.1 5.6 18.8 7.3 15.5 Z"/>

<path fill="#1A1A1A" stroke="none" d="
M 3.55 22.8
L 5.6 18.8 2.45 -0.1 9.9 18.05 12.2 20.25 15.05 16.8 11.4 3.45 18.3 17.4 23.05 19.6
Q 9.3 -5.45 4.65 -29.25
L -16.4 -28
Q -21.05 -5.15 -31.6 17.7
L -27.3 15.65 -20.75 3.75 -24.6 19.4 -24.5 21.5 -16.65 17.05 -16.3 23.75 -13.1 22 -8 3.75 -7.3 15.8 -2.45 9.75 -0.35 20.8 3.55 22.8 Z"/>
</g>

<g id="Duplicate_Items_Folder_head_copy_2_0_Layer3_0_FILL">
<path fill="#E9F1F3" stroke="none" d="
M 13.8 6.65
L 14 5.05
Q 13.3 5.85 12.6 6.6 10.920703125 8.30234375 9.25 9.35 11.7443359375 8.4650390625 13.8 6.65 Z"/>

<path fill="#F0E8F4" stroke="none" d="
M 5.65 -14.6
L 2.85 -20.5
Q 0.0919921875 -15.5859375 -8.2 -13.65 -11.769140625 -15.194140625 -17.95 -18.85
L -17.9 -18.9 -20.9 -20.15
Q -24.2763671875 -7.6880859375 -20.2 0
L -18.35 4.75
Q -16.865234375 8.2515625 -14.2 11.45 -12.0814453125 11.859375 -9.8 11.65 -2.6 14.95 5.35 10.25 5.4876953125 10.2365234375 5.6 10.2 19.226171875 -2.5900390625 9.65 -15.6
L 5.65 -14.6 Z"/>

<path fill="#BEA9D6" stroke="none" d="
M 13.35 -27.75
Q 11.5 -29.35 9.45 -30.3 7.1 -32.1 4.95 -31.6 3.3 -31.8 1.55 -31.65
L -13.6 -30.2
Q -16.2 -30 -18.45 -28.95
L -22.4 -26.3
Q -23.5 -25.4 -24.4 -24.15 -28.65 -18.8 -28 -11.6
L -27.25 -3.9
Q -26.65 3.15 -21.5 7.75 -20.65 8.55 -19.7 9.15 -17.112890625 10.894140625 -14.2 11.45 -16.865234375 8.2515625 -18.35 4.75
L -20.2 0
Q -24.2763671875 -7.6880859375 -20.9 -20.15
L -17.9 -18.9 -17.95 -18.85
Q -11.769140625 -15.194140625 -8.2 -13.65 0.0919921875 -15.5859375 2.85 -20.5
L 5.65 -14.6 9.65 -15.6
Q 19.226171875 -2.5900390625 5.6 10.2 7.5373046875 10.0033203125 9.25 9.35 10.920703125 8.30234375 12.6 6.6 13.3 5.85 14 5.05
L 13.8 6.65
Q 15.0908203125 5.5525390625 16.2 4.1 20.25 -1.1 19.75 -7.8 19.75 -8.1 19.75 -8.35
L 19.05 -16.05
Q 18.8 -18.95 17.85 -21.4 16.35 -25.05 13.35 -27.75 Z"/>
</g>

<g id="Duplicate_Items_Folder_head_copy_2_0_Layer2_0_FILL">
<path fill="url(#Gradient_1)" stroke="none" d="
M -19.4 -1.05
Q -19.6 -0.65 -19.7 -0.2 -19.9 0.8 -19.5 1.8 -19 3.25 -17.55 3.9 -16.2 4.55 -14.7 4 -13.25 3.45 -12.55 2.05 -11.9 0.65 -12.45 -0.85 -13 -2.25 -14.4 -2.9 -15.85 -3.55 -17.3 -3 -17.95 -2.75 -18.5 -2.3
L -18.55 -2.25
Q -19.05 -1.8 -19.4 -1.05
M -16 -1.4
Q -15.85 -1.95 -15.25 -2.15 -14.75 -2.35 -14.2 -2.1 -13.65 -1.8 -13.45 -1.25 -13.25 -0.65 -13.45 -0.1 -13.7 0.5 -14.2 0.65 -14.75 0.85 -15.25 0.6 -15.8 0.35 -16.05 -0.25 -16.25 -0.8 -16 -1.4
M -16.2 2.25
Q -15.9 2.35 -15.8 2.65 -15.75 2.9 -15.9 3.15 -16.05 3.4 -16.3 3.55 -16.65 3.6 -16.9 3.55 -17.2 3.45 -17.3 3.2 -17.4 2.95 -17.25 2.65 -17.1 2.4 -16.8 2.25 -16.45 2.2 -16.2 2.25 Z"/>

<path fill="#D6FD35" stroke="none" d="
M -15.8 2.65
Q -15.9 2.35 -16.2 2.25 -16.45 2.2 -16.8 2.25 -17.1 2.4 -17.25 2.65 -17.4 2.95 -17.3 3.2 -17.2 3.45 -16.9 3.55 -16.65 3.6 -16.3 3.55 -16.05 3.4 -15.9 3.15 -15.75 2.9 -15.8 2.65
M -15.25 -2.15
Q -15.85 -1.95 -16 -1.4 -16.25 -0.8 -16.05 -0.25 -15.8 0.35 -15.25 0.6 -14.75 0.85 -14.2 0.65 -13.7 0.5 -13.45 -0.1 -13.25 -0.65 -13.45 -1.25 -13.65 -1.8 -14.2 -2.1 -14.75 -2.35 -15.25 -2.15
M 9.2 -0.35
Q 9 -0.55 8.7 -0.6 8.4 -0.65 8.15 -0.45 7.9 -0.3 7.85 0 7.85 0.25 8.1 0.45 8.3 0.7 8.6 0.7 8.9 0.75 9.15 0.55 9.4 0.45 9.45 0.15 9.45 -0.1 9.2 -0.35
M 4.6 -3.15
Q 4.55 -2.55 4.9 -2.05 5.25 -1.55 5.8 -1.5 6.4 -1.45 6.85 -1.85 7.3 -2.25 7.3 -2.85 7.4 -3.45 7.05 -3.95 6.7 -4.45 6.1 -4.5 5.55 -4.55 5.1 -4.15 4.65 -3.8 4.6 -3.15 Z"/>

<path fill="#000000" stroke="none" d="
M -20.65 -4.1
L -20.75 -2.3 -22.6 -1.1 -19.7 -0.2
Q -19.6 -0.65 -19.4 -1.05 -19.05 -1.8 -18.55 -2.25
L -20.65 -4.1
M 10.9 -3.7
L 13.45 -5.35 11.35 -6.05 10.75 -7.75 9.2 -5.45
Q 9.85 -5.1 10.4 -4.45 10.7 -4.15 10.9 -3.7 Z"/>

<path fill="#FF0000" stroke="none" d="
M 0.4 6
Q 1.6 5.4 1.7 4.35 1.8 3.3 0.75 2.45 -0.25 1.6 -1.8 1.45 -3.3 1.3 -4.5 1.9 -5.151171875 2.26796875 -5.5 2.75 -5.53203125 2.75625 -5.6 2.75 -6.7 2.65 -7.5 3.1 -8.25 3.55 -8.35 4.3 -8.4 5.05 -7.75 5.65 -7.05 6.25 -5.95 6.35
L -5.95 6.35
Q -5.9380859375 6.44921875 -5.95 6.55 -6 7.45 -5.45 8.15 -4.9 8.85 -4.1 8.9 -3.25 9 -2.55 8.45 -1.85 7.9 -1.8 7 -1.771484375 6.7578125 -1.8 6.5 -0.558984375 6.5419921875 0.4 6
M -3.3 3.9
L -1.95 4.35 -3.3 3.9 -7.15 4.65 -3.3 3.9 Z"/>

<path fill="url(#Gradient_2)" stroke="none" d="
M 5.05 -5.05
Q 3.85 -4 3.7 -2.5 3.55 -0.95 4.55 0.25 5.55 1.45 7.1 1.6 8.7 1.8 9.85 0.8 11.1 -0.2 11.2 -1.75 11.35 -2.8 10.9 -3.7 10.7 -4.15 10.4 -4.45 9.85 -5.1 9.2 -5.45
L 9.2 -5.5
Q 8.55 -5.8 7.85 -5.85 6.3 -6 5.05 -5.05
M 4.9 -2.05
Q 4.55 -2.55 4.6 -3.15 4.65 -3.8 5.1 -4.15 5.55 -4.55 6.1 -4.5 6.7 -4.45 7.05 -3.95 7.4 -3.45 7.3 -2.85 7.3 -2.25 6.85 -1.85 6.4 -1.45 5.8 -1.5 5.25 -1.55 4.9 -2.05
M 8.7 -0.6
Q 9 -0.55 9.2 -0.35 9.45 -0.1 9.45 0.15 9.4 0.45 9.15 0.55 8.9 0.75 8.6 0.7 8.3 0.7 8.1 0.45 7.85 0.25 7.85 0 7.9 -0.3 8.15 -0.45 8.4 -0.65 8.7 -0.6 Z"/>
</g>

<g id="Duplicate_Items_Folder_head_copy_2_0_Layer0_0_FILL">
<path fill="#7205DF" stroke="none" d="
M 9.6 -28.05
L 7.85 -31.6
Q -0.1 -24.05 -8.3 -22.8 -16.5 -23.25 -21.5 -26.3
L -29.2 -28.2 -27.5 -22.5 -31.25 -17.6 -31.05 -1.05
Q -34.95 7.9 -32.85 17.4 -29.65 21 -23.6 23.05 -23.996875 17.19609375 -26.05 15.05 -17.2958984375 23.7853515625 -15.1 15.9 -30.05 7.95 -24.25 -20.25 -23.65 -14.15 -16.8 -16.05 -20.7 -19.9 -17.15 -22.85 -5.8552734375 -12.1162109375 2.7 -25.25 6.5 -21.25 8.4 -15.55
L 14.75 -17
Q 20.35 -1.55 11.55 16.2 17.1 16.5 20.85 9.75 25 9.35 27.55 14.15 27.7 13.9 27.85 13.65 28.15 6.4 20.55 1.3
L 23.95 -10.85
Q 22.1 -21.45 13.5 -23.25
L 14.05 -30.95 9.6 -28.05 Z"/>

<path fill="#9933FF" stroke="none" d="
M 17.55 -27.85
Q 17.6 -27.8 17.7 -27.8 18.5 -32.1 24.6 -35.9 20.45 -38.95 17 -34.3
L 18.25 -41.35 12.55 -37.7
Q 14.05 -41.2 11.3 -44.1 9.2 -34.55 5 -33.5
L -22.3 -30.15 -22.55 -29.9
Q -29.4 -33.3 -29.95 -39.15 -33.45 -36 -31.2 -32.3
L -37.7 -36.45 -34.7 -29.65
Q -37.75 -31.25 -41.2 -28.6 -33.05 -24.2 -32.95 -20.6 -37.55 -12.5 -34.65 -2.7 -39.15 10.3 -32.85 17.4 -34.95 7.9 -31.05 -1.05
L -31.25 -17.6 -27.5 -22.5 -29.2 -28.2 -21.5 -26.3
Q -16.5 -23.25 -8.3 -22.8 -0.1 -24.05 7.85 -31.6
L 9.6 -28.05 14.05 -30.95 13.5 -23.25
Q 22.1 -21.45 23.95 -10.85
L 20.55 1.3
Q 28.15 6.4 27.85 13.65 31.3 8.2 28.25 3.55 24.95 -1.3 26.75 -6.6 28.5 -11.95 27.4 -17.7 26.25 -23.45 24.2 -24.95 22.15 -26.45 17.7 -27.8 17.6 -27.8 17.55 -27.85 16.4 -28.15 15.1 -28.55 16.4 -28.15 17.55 -27.85 Z"/>
</g>

<path id="Duplicate_Items_Folder_body_front_0_Layer0_0_1_STROKES" stroke="#000000" stroke-width="2" stroke-linejoin="round" stroke-linecap="round" fill="none" d="
M -0.35 20.8
L 3.55 22.8 5.6 18.8
M 9.9 18.05
L 12.2 20.25 15.05 16.8
M 18.3 17.4
L 23.05 19.6
Q 9.3 -5.45 4.65 -29.25
L -16.4 -28
Q -21.05 -5.15 -31.6 17.7
L -27.3 15.65
M -24.6 19.4
L -24.5 21.5 -16.65 17.05 -16.3 23.75 -13.1 22
M -0.35 20.8
L -5.8 18.05 -13.1 22
M 5.6 18.8
L 7.3 15.5 9.9 18.05
M 15.05 16.8
L 15.55 16.15 18.3 17.4
M -27.3 15.65
L -24.95 14.5 -24.6 19.4"/>

<path id="Duplicate_Items_Folder_head_copy_2_0_Layer3_0_1_STROKES" stroke="#000000" stroke-width="2" stroke-linejoin="round" stroke-linecap="round" fill="none" d="
M 13.8 6.675
Q 15.0908203125 5.5525390625 16.2 4.1 20.25 -1.1 19.75 -7.8 19.75 -8.1 19.75 -8.35
L 19.05 -16.05
Q 18.8 -18.95 17.85 -21.4 16.35 -25.05 13.35 -27.75 11.5 -29.35 9.45 -30.3 7.1 -32.1 4.95 -31.6 3.3 -31.8 1.55 -31.65
L -13.6 -30.2
Q -16.2 -30 -18.45 -28.95
L -22.4 -26.3
Q -23.5 -25.4 -24.4 -24.15 -28.65 -18.8 -28 -11.6
L -27.25 -3.9
Q -26.65 3.15 -21.5 7.75 -20.65 8.55 -19.7 9.15 -17.112890625 10.894140625 -14.2 11.45
M 5.625 10.225
Q 7.5373046875 10.0033203125 9.25 9.375 11.7443359375 8.4650390625 13.8 6.675
M -14.2 11.45
Q -12.0814453125 11.859375 -9.8 11.65 -2.6 14.95 5.35 10.25 5.4876953125 10.2365234375 5.625 10.225"/>

<path id="Duplicate_Items_Folder_head_copy_2_0_Layer2_0_1_STROKES" stroke="#000000" stroke-width="1" stroke-linejoin="round" stroke-linecap="round" fill="none" d="
M 10.9 -3.7
Q 11.35 -2.8 11.2 -1.75 11.1 -0.2 9.85 0.8 8.7 1.8 7.1 1.6 5.55 1.45 4.55 0.25 3.55 -0.95 3.7 -2.5 3.85 -4 5.05 -5.05 6.3 -6 7.85 -5.85 8.55 -5.8 9.2 -5.5
L 9.2 -5.45
M 10.9 -3.7
Q 10.7 -4.15 10.4 -4.45 9.85 -5.1 9.2 -5.45
M -19.7 -0.2
Q -19.6 -0.65 -19.4 -1.05 -19.05 -1.8 -18.55 -2.25
L -18.5 -2.3
Q -17.95 -2.75 -17.3 -3 -15.85 -3.55 -14.4 -2.9 -13 -2.25 -12.45 -0.85 -11.9 0.65 -12.55 2.05 -13.25 3.45 -14.7 4 -16.2 4.55 -17.55 3.9 -19 3.25 -19.5 1.8 -19.9 0.8 -19.7 -0.2 Z
M -7.15 4.65
L -3.3 3.9 -1.95 4.35"/>

<path id="Duplicate_Items_Folder_head_copy_2_0_Layer1_0_1_STROKES" stroke="#000000" stroke-width="1" stroke-linejoin="round" stroke-linecap="round" fill="none" d="
M 1.4 -3.55
L 5.4 -7.6
M -17.15 -5.4
L -10.95 -2.9"/>

<path id="Duplicate_Items_Folder_head_copy_2_0_Layer0_0_1_STROKES" stroke="#000000" stroke-width="2" stroke-linejoin="round" stroke-linecap="round" fill="none" d="
M 15.1 -28.55
Q 16.4 -28.15 17.55 -27.85 17.6 -27.8 17.7 -27.8 18.5 -32.1 24.6 -35.9 20.45 -38.95 17 -34.3
L 18.25 -41.35 12.55 -37.7
Q 14.05 -41.2 11.3 -44.1 9.2 -34.55 5 -33.5
L -22.3 -30.15
M -22.55 -29.9
Q -29.4 -33.3 -29.95 -39.15 -33.45 -36 -31.2 -32.3
L -37.7 -36.45 -34.7 -29.65
Q -37.75 -31.25 -41.2 -28.6 -33.05 -24.2 -32.95 -20.6 -37.55 -12.5 -34.65 -2.7 -39.15 10.3 -32.85 17.4
M 27.85 13.65
Q 31.3 8.2 28.25 3.55 24.95 -1.3 26.75 -6.6 28.5 -11.95 27.4 -17.7 26.25 -23.45 24.2 -24.95 22.15 -26.45 17.7 -27.8
M -32.85 17.4
Q -29.65 21 -23.6 23.05 -23.996875 17.19609375 -26.025 15.075 -17.2958984375 23.7853515625 -15.1 15.9 -30.05 7.95 -24.25 -20.25 -23.65 -14.15 -16.8 -16.05 -20.7 -19.9 -17.15 -22.85 -5.8552734375 -12.1162109375 2.7 -25.25 6.5 -21.25 8.4 -15.55
L 14.75 -17
Q 20.35 -1.55 11.55 16.2 17.1 16.5 20.85 9.75 25 9.35 27.55 14.15 27.7 13.9 27.85 13.65"/>
</defs>

<g transform="matrix( 4.525787353515625, 0, 0, 4.525787353515625, 330.15,423.7) ">
<g transform="matrix( 1, 0, 0, 1, 0,0) ">
<use xlink:href="#Duplicate_Items_Folder_body_front_0_Layer0_0_FILL"/>

<use xlink:href="#Duplicate_Items_Folder_body_front_0_Layer0_0_1_STROKES"/>
</g>
</g>

<g transform="matrix( 5.542816162109375, -0.559600830078125, 0.548431396484375, 5.4316864013671875, 315.4,261.15) ">
<g transform="matrix( 1, 0, 0, 1, 0,0) ">
<use xlink:href="#Duplicate_Items_Folder_head_copy_2_0_Layer3_0_FILL"/>

<use xlink:href="#Duplicate_Items_Folder_head_copy_2_0_Layer3_0_1_STROKES"/>
</g>

<g transform="matrix( 1, 0, 0, 1, 0,0) ">
<use xlink:href="#Duplicate_Items_Folder_head_copy_2_0_Layer2_0_FILL"/>

<use xlink:href="#Duplicate_Items_Folder_head_copy_2_0_Layer2_0_1_STROKES"/>
</g>

<g transform="matrix( 1, 0, 0, 1, 0,0) ">
<use xlink:href="#Duplicate_Items_Folder_head_copy_2_0_Layer1_0_1_STROKES"/>
</g>

<g transform="matrix( 1, 0, 0, 1, 0,0) ">
<use xlink:href="#Duplicate_Items_Folder_head_copy_2_0_Layer0_0_FILL"/>

<use xlink:href="#Duplicate_Items_Folder_head_copy_2_0_Layer0_0_1_STROKES"/>
</g>
</g>
</svg>
