
<svg xmlns="http://www.w3.org/2000/svg" version="1.1" xmlns:xlink="http://www.w3.org/1999/xlink" preserveAspectRatio="none" x="0px" y="0px" width="560px" height="544px" viewBox="0 0 560 544">
<defs>
<g id="girls_blue_gnome_girl_0_Layer10_0_FILL">
<path fill="#000000" stroke="none" d="
M 0.9 14.9
Q 1.05 14.05 0.6 13.45 0.25 13.1 -0.3 12.75 -1.65 11.9 -4.6 12.25 -7.55 12.6 -7.95 12.95 -8.4 13.35 -9.1 14.7 -9.3 15.35 -9.2 15.7 -9.1 16.25 -8.15 16.4 -6.6 16.6 -4.45 16.8 -2.3 16.95 -0.75 16.55 0.75 16.15 0.9 14.9
M -0.85 13.1
Q -0.45 13.35 -0.15 13.7 0.25 14.2 0.3 14.95 0.35 15.65 -1.1 15.95 -2.55 16.25 -4.2 16.05 -5.85 15.8 -6.85 15.8 -7.9 15.8 -8.5 15.25
L -8.3 14.8
Q -7.75 13.55 -7.35 13.3 -7 12.95 -4.5 12.65 -2 12.35 -0.85 13.1 Z"/>

<path fill="#A46442" stroke="none" d="
M -4.2 16.05
Q -2.55 16.25 -1.1 15.95 0.35 15.65 0.3 14.95 0.25 14.2 -0.15 13.7 -2.65 15.6 -8.5 15.25 -7.9 15.8 -6.85 15.8 -5.85 15.8 -4.2 16.05 Z"/>

<path fill="#70452E" stroke="none" d="
M -0.15 13.7
Q -0.45 13.35 -0.85 13.1 -2 12.35 -4.5 12.65 -7 12.95 -7.35 13.3 -7.75 13.55 -8.3 14.8
L -8.5 15.25
Q -2.65 15.6 -0.15 13.7 Z"/>
</g>

<g id="girls_blue_gnome_girl_0_Layer9_0_FILL">
<path fill="#000000" stroke="none" d="
M 5.7 17.15
Q 8 17 9.7 16.75 10.55 16.6 10.7 16.05 10.8 15.6 10.55 14.95 9.9 13.55 9.45 13.05 9 12.7 5.85 12.35 2.8 12.05 1.3 12.85 0.85 13.25 0.45 13.7 -0.05 14.25 0.05 15.15 0.3 16.55 1.85 16.9 3.45 17.4 5.7 17.15
M 9.75 15.05
Q 10.05 15.6 9.8 15.5 10.15 15.85 9.1 16 8 16.15 6 16.15 4 16.1 2.55 16.1 1.1 16.05 0.95 15.25 0.8 14.45 1.25 13.9 1.5 13.55 2.05 13.3 3.15 12.5 5.8 12.85 8.45 13.15 8.85 13.5 9.3 13.8 9.75 15.05 Z"/>

<path fill="#A46442" stroke="none" d="
M 9.1 16
Q 10.15 15.85 9.8 15.5 3.85 15.85 1.25 13.9 0.8 14.45 0.95 15.25 1.1 16.05 2.55 16.1 4 16.1 6 16.15 8 16.15 9.1 16 Z"/>

<path fill="#70452E" stroke="none" d="
M 9.8 15.5
Q 10.05 15.6 9.75 15.05 9.3 13.8 8.85 13.5 8.45 13.15 5.8 12.85 3.15 12.5 2.05 13.3 1.5 13.55 1.25 13.9 3.85 15.85 9.8 15.5 Z"/>
</g>

<g id="girls_blue_gnome_girl_0_Layer8_0_FILL">
<path fill="#000000" stroke="none" d="
M 14.35 -0.9
Q 12.05 -1.2 8.9 -4.85 10.25 -4.6 11.9 -4.9 8.65 -5.5 4 -13.7
L -6.15 -12.3
Q -7.55 -7.05 -13.2 -4.5 -11.75 -3.9 -10.5 -3.9 -12.9 -1.5 -14.75 -1.3 -12.55 -0.65 -10.8 -1.05 -12.3 0.55 -14.5 1.8 -9.4 3.6 -6.8 -0.8
L -7.1 4.95 -5.2 3 -5.1 3.3 -4.7 5.35 -4.35 4.85 -1.55 10.8
Q -0.85 9.5 -0.3 8.35 0.3 9.7 1.1 11.15
L 4.15 4.8 4.3 4.95 4.45 4.1 4.75 3.4 6.65 5.35 6.3 -1.2
Q 8.9 3.25 14.1 1.4 12.5 0.5 11.25 -0.55 12.7 -0.5 14.35 -0.9 Z"/>
</g>

<g id="girls_blue_gnome_girl_0_Layer7_0_FILL">
<path fill="#000000" stroke="none" d="
M -6.8 2.5
Q -7.4 1.5 -8.4 1.15 -9.45 0.85 -10.5 1.3 -10.85 1.5 -11.1 1.7 -12.1 2.4 -12.75 3.55 -12.9 3.95 -13.1 4.4 -13.65 6.15 -13.1 7.65 -12.45 9.1 -11.35 9.3 -10.15 9.55 -9.55 9.55 -8.95 9.55 -8.4 9.2 -7.1 8.2 -6.5 6.5 -5.95 4.7 -6.5 3.15 -6.65 2.8 -6.8 2.5
M -8.7 2
Q -7.6 2.4 -7.15 3.65 -6.75 4.95 -7.2 6.45 -7.6 7.8 -8.7 8.6 -9.1 8.9 -9.55 9.1 -10.3 8.95 -11.25 8.8 -12.1 8.55 -12.55 7.35 -12.95 6.15 -12.55 4.75 -12.4 4.3 -12.2 4 -11.75 3.05 -10.95 2.45 -9.8 1.65 -8.7 2
M 13 4.3
Q 12.85 3.85 12.65 3.45 12.05 2.3 11.05 1.6 10.75 1.35 10.45 1.2 9.4 0.75 8.35 1 7.3 1.35 6.75 2.4 6.55 2.7 6.45 3.05 5.9 4.6 6.45 6.35 7.05 8.1 8.35 9.1 8.85 9.4 9.5 9.4 10.1 9.4 11.3 9.2 12.4 8.95 13 7.5 13.6 6.05 13 4.3
M 10.9 2.35
Q 11.7 2.9 12.15 3.9 12.3 4.2 12.5 4.65 12.9 6.05 12.5 7.25 12.05 8.45 11.15 8.65 10.25 8.85 9.5 8.95 9.05 8.8 8.65 8.5 7.55 7.7 7.15 6.3 6.7 4.8 7.1 3.55 7.55 2.3 8.65 1.9 9.75 1.55 10.9 2.35 Z"/>

<path fill="#287BA4" stroke="none" d="
M -12.2 4
Q -12.4 4.3 -12.55 4.75 -12.95 6.15 -12.55 7.35 -12.1 8.55 -11.25 8.8 -10.3 8.95 -9.55 9.1 -11.8 7.2 -12.2 4
M 12.5 4.65
Q 12.3 4.2 12.15 3.9 11.75 7.05 9.5 8.95 10.25 8.85 11.15 8.65 12.05 8.45 12.5 7.25 12.9 6.05 12.5 4.65 Z"/>

<path fill="#3399CC" stroke="none" d="
M -7.15 3.65
Q -7.6 2.4 -8.7 2 -9.8 1.65 -10.95 2.45 -11.75 3.05 -12.2 4 -11.8 7.2 -9.55 9.1 -9.1 8.9 -8.7 8.6 -7.6 7.8 -7.2 6.45 -6.75 4.95 -7.15 3.65
M 12.15 3.9
Q 11.7 2.9 10.9 2.35 9.75 1.55 8.65 1.9 7.55 2.3 7.1 3.55 6.7 4.8 7.15 6.3 7.55 7.7 8.65 8.5 9.05 8.8 9.5 8.95 11.75 7.05 12.15 3.9 Z"/>
</g>

<g id="girls_blue_gnome_girl_0_Layer6_0_FILL">
<path fill="#000000" stroke="none" d="
M 0.55 -2.65
Q 0.4 -2.65 0.2 -2.6
L 0.15 -2.6
Q -0.1 -2.65 -0.4 -2.65 -3.65 -2.65 -6.15 -1 -7 -0.5 -7.6 0.1 -9.385546875 1.885546875 -10.4 4.05 -11.0341796875 5.501171875 -11.35 7.1 -11.7 8.7 -11.65 9.95 -11.55 10.6 -11.45 11.2 -11.4 11.45 -11.3 11.7 -5.65 14.75 -0.05 14.75 0.1 14.75 0.2 14.75 5.85 14.8 11.45 11.7 11.55 11.45 11.65 11.2 11.75 10.6 11.8 9.95 11.85 8.7 11.5 7.1 11.2537109375 5.8529296875 10.8 4.7 9.7916015625 2.1416015625 7.75 0.1 7.15 -0.5 6.35 -1 3.8 -2.65 0.55 -2.65
M 0.2 -0.7
Q 0.4 -0.8 0.55 -0.8 4.05 -0.8 6.5 1.55 7.867578125 2.97578125 8.7 4.65 9.3447265625 5.833203125 9.7 7.15 10.2 8.75 10.3 9.95 5.15 13.2 0.2 13.15 0.1 13.15 -0.05 13.15 -5 13.2 -10.15 9.95 -10.05 8.75 -9.55 7.15 -9.1193359375 5.5537109375 -8.3 4.1 -7.5091796875 2.7583984375 -6.35 1.55 -3.9 -0.8 -0.4 -0.8 -0.2 -0.8 -0.05 -0.8
L -0.05 -0.7
Q 0.1 -0.7 0.2 -0.7 Z"/>

<path fill="#3399CC" stroke="none" d="
M 9.7 7.15
Q 9.3447265625 5.833203125 8.7 4.65 6.080078125 9.0671875 0.4 6.75
L 0.4 6.65
Q -6.3736328125 10.08046875 -8.3 4.1 -9.1193359375 5.5537109375 -9.55 7.15 -10.05 8.75 -10.15 9.95 -5 13.2 -0.05 13.15 0.1 13.15 0.2 13.15 5.15 13.2 10.3 9.95 10.2 8.75 9.7 7.15 Z"/>

<path fill="#287BA4" stroke="none" d="
M 0.55 -0.8
Q 0.4 -0.8 0.2 -0.7 0.1 -0.7 -0.05 -0.7
L -0.05 -0.8
Q -0.2 -0.8 -0.4 -0.8 -3.9 -0.8 -6.35 1.55 -7.5091796875 2.7583984375 -8.3 4.1 -6.3736328125 10.08046875 0.4 6.65
L 0.4 6.75
Q 6.080078125 9.0671875 8.7 4.65 7.867578125 2.97578125 6.5 1.55 4.05 -0.8 0.55 -0.8 Z"/>
</g>

<g id="girls_blue_gnome_girl_0_Layer5_0_FILL">
<path fill="#000000" stroke="none" d="
M 8.65 -4.2
Q 8.65 -5.05 8.45 -5.75 7.9 -7.8 5.85 -9.3 3.25 -11.45 -0.5 -11.45 -4.3 -11.45 -7 -9.3 -9.65 -7.25 -9.65 -4.2 -9.65 -1.3 -7 0.7 -6.05 1.6 -4.85 2.15 -2.85 2.9 -0.5 2.9 3.25 2.9 5.85 0.7 8.65 -1.3 8.65 -4.2
M 4.7 -8.25
Q 6.4 -7 6.8 -5.25 7.05 -4.75 7.05 -4.05 7.05 -1.75 4.7 0 2.55 1.75 -0.5 1.75 -2.45 1.75 -4.1 1.1 -5 0.65 -5.85 0 -8 -1.75 -8 -4.05 -8 -6.45 -5.85 -8.25 -3.7 -9.95 -0.5 -9.95 2.55 -9.95 4.7 -8.25 Z"/>

<path fill="#E4DEC5" stroke="none" d="
M 7.05 -4.05
Q 7.05 -4.75 6.8 -5.25 3.1 -0.65 -4.1 1.1 -2.45 1.75 -0.5 1.75 2.55 1.75 4.7 0 7.05 -1.75 7.05 -4.05 Z"/>

<path fill="#EFEBDC" stroke="none" d="
M 6.8 -5.25
Q 6.4 -7 4.7 -8.25 2.55 -9.95 -0.5 -9.95 -3.7 -9.95 -5.85 -8.25 -8 -6.45 -8 -4.05 -8 -1.75 -5.85 0 -5 0.65 -4.1 1.1 3.1 -0.65 6.8 -5.25 Z"/>
</g>

<g id="girls_blue_gnome_girl_0_Layer4_0_FILL">
<path fill="#000000" stroke="none" d="
M 3.5 -3.35
Q 3.55 -3.7 3.45 -4.05 3.3 -5.15 2.5 -6 1.4 -7.2 -0.25 -7.45 -1.95 -7.7 -3.2 -6.9 -4.5 -6.05 -4.6 -4.6 -4.75 -3.25 -3.6 -2 -3.2 -1.55 -2.4 -1.2 -1.55 -0.7 -0.25 -0.55 0.9 -0.35 2.15 -1.05 3.4 -1.9 3.5 -3.35
M 1.9 -5.55
Q 2.55 -4.85 2.75 -4 2.8 -3.7 2.8 -3.4 2.7 -2.25 1.55 -1.85 0.35 -1.5 -0.65 -1.55 -1.65 -1.65 -2.1 -2.05 -2.5 -2.15 -3.1 -2.8 -3.75 -3.5 -3.75 -4.55 -3.8 -5.6 -2.75 -6.35 -1.75 -6.95 -0.3 -6.75 1.05 -6.55 1.9 -5.55 Z"/>

<path fill="#BDA9C0" stroke="none" d="
M 1.55 -1.85
Q 2.7 -2.25 2.8 -3.4 2.8 -3.7 2.75 -4 0.9 -2 -2.1 -2.05 -1.65 -1.65 -0.65 -1.55 0.35 -1.5 1.55 -1.85 Z"/>

<path fill="#E6D5E4" stroke="none" d="
M 2.75 -4
Q 2.55 -4.85 1.9 -5.55 1.05 -6.55 -0.3 -6.75 -1.75 -6.95 -2.75 -6.35 -3.8 -5.6 -3.75 -4.55 -3.75 -3.5 -3.1 -2.8 -2.5 -2.15 -2.1 -2.05 0.9 -2 2.75 -4 Z"/>
</g>

<g id="girls_blue_gnome_girl_0_Layer3_0_FILL">
<path fill="#000000" stroke="none" d="
M 3.4 -18.6
L 5.55 -21.7
Q -6.5294921875 -27.0888671875 -8.65 -7.15 -6.20234375 -7.6720703125 -5.65 -7.9 -5.3568359375 -7.9826171875 -5.6 -8 2.45 -10.15 7.95 -7.25
L 3.4 -18.6
M 2.3 -18.85
L 6.45 -8.95
Q 1.7 -11.2 -4.35 -9.4 -3.985546875 -9.366796875 -5.3 -9.1 -5.9537109375 -8.95234375 -7.05 -8.75 -5.2775390625 -23.8162109375 3.2 -21.1 3.36640625 -21.0466796875 3.5 -21
L 2.3 -18.85 Z"/>

<path fill="#6FB8DB" stroke="none" d="
M -5.3 -9.1
Q -5.1734375 -13.9 -2.45 -18.7 0.2103515625 -20.87421875 3.2 -21.1 -5.2775390625 -23.8162109375 -7.05 -8.75 -5.9537109375 -8.95234375 -5.3 -9.1 Z"/>

<path fill="#3399CC" stroke="none" d="
M 6.45 -8.95
L 2.3 -18.85 3.5 -21
Q 3.36640625 -21.0466796875 3.2 -21.1 0.2103515625 -20.87421875 -2.45 -18.7 -5.1734375 -13.9 -5.3 -9.1 -3.985546875 -9.366796875 -4.35 -9.4 1.7 -11.2 6.45 -8.95 Z"/>
</g>

<g id="girls_blue_gnome_girl_0_Layer2_0_FILL">
<path fill="#000000" stroke="none" d="
M 6.55 -9.45
Q 6.4 -10.7 5.6 -11.55 4.65 -12.7 3.25 -12.7 1.8 -12.7 0.85 -11.55 0.45 -11.05 0.2 -10.35 -0.1 -11.4 -0.75 -12.2 -1.85 -13.5 -3.45 -13.5 -5.1 -13.5 -6.25 -12.2 -7 -11.15 -7.25 -9.8 -7.3 -9.4 -7.3 -8.85 -7.3 -6.9 -6.25 -5.6 -5.1 -4.2 -3.45 -4.2 -2.75 -4.2 -2.15 -4.45 -1.4 -4.75 -0.75 -5.6 -0.15 -6.25 0.2 -7.2 0.4 -6.45 0.85 -5.8 1.8 -4.6 3.25 -4.6 4.65 -4.6 5.6 -5.8 6.6 -6.95 6.6 -8.7 6.6 -9.1 6.55 -9.45
M 6 -8.7
Q 6 -7.25 5.2 -6.25 4.45 -5.35 3.3 -5.35 2.95 -5.35 2.65 -5.4 1.9 -5.65 1.35 -6.25 0.6 -7.25 0.6 -8.7 0.6 -9.95 1.35 -10.9 2.15 -11.85 3.3 -11.85 4.45 -11.85 5.2 -10.9 5.95 -10.05 6 -8.9 6 -8.8 6 -8.7
M -1.25 -11.45
Q -0.3 -10.35 -0.3 -8.8 -0.3 -7.2 -1.25 -6.1 -1.9 -5.3 -2.7 -5.05 -3.05 -5 -3.4 -5 -4.75 -5 -5.65 -6.1 -6.5 -7.2 -6.5 -8.8 -6.5 -9.05 -6.45 -9.2 -6.4 -10.55 -5.65 -11.45 -4.75 -12.55 -3.4 -12.55 -2.15 -12.55 -1.25 -11.45 Z"/>

<path fill="#CCCCCC" stroke="none" d="
M -6.45 -9.2
Q -6.5 -9.05 -6.5 -8.8 -6.5 -7.2 -5.65 -6.1 -4.75 -5 -3.4 -5 -3.05 -5 -2.7 -5.05 -5.7 -6.85 -6.45 -9.2
M 5.2 -6.25
Q 6 -7.25 6 -8.7 6 -8.8 6 -8.9 5.4 -6.95 2.65 -5.4 2.95 -5.35 3.3 -5.35 4.45 -5.35 5.2 -6.25 Z"/>

<path fill="#FFFFFF" stroke="none" d="
M -0.3 -8.8
Q -0.3 -10.35 -1.25 -11.45 -2.15 -12.55 -3.4 -12.55 -4.75 -12.55 -5.65 -11.45 -6.4 -10.55 -6.45 -9.2 -5.7 -6.85 -2.7 -5.05 -1.9 -5.3 -1.25 -6.1 -0.3 -7.2 -0.3 -8.8
M 6 -8.9
Q 5.95 -10.05 5.2 -10.9 4.45 -11.85 3.3 -11.85 2.15 -11.85 1.35 -10.9 0.6 -9.95 0.6 -8.7 0.6 -7.25 1.35 -6.25 1.9 -5.65 2.65 -5.4 5.4 -6.95 6 -8.9 Z"/>
</g>

<g id="girls_blue_gnome_girl_0_Layer1_0_FILL">
<path fill="#000000" stroke="none" d="
M -2.35 -10.1
Q -2 -10.1 -1.7 -9.9 -2.15 -10.3 -2.65 -10.3 -3.2 -10.3 -3.6 -9.9 -4.05 -9.4 -4.05 -8.8 -4.05 -8.15 -3.6 -7.75 -3.2 -7.3 -2.65 -7.3 -2.4 -7.3 -2.15 -7.4 -2.25 -7.4 -2.35 -7.4 -2.85 -7.4 -3.2 -7.8 -3.6 -8.15 -3.6 -8.75 -3.6 -9.3 -3.2 -9.75 -2.85 -10.1 -2.35 -10.1
M 2.25 -9.7
Q 1.8 -9.7 1.45 -9.4 1.1 -9 1.1 -8.45 1.1 -7.95 1.45 -7.6 1.8 -7.2 2.25 -7.2 2.75 -7.2 3.15 -7.6 3.5 -7.95 3.5 -8.45 3.5 -9 3.15 -9.4 2.75 -9.7 2.25 -9.7
M 1.6 -7.65
Q 1.3 -7.95 1.3 -8.35 1.3 -8.8 1.6 -9.15 1.85 -9.4 2.25 -9.4 2.65 -9.4 3 -9.15 3.25 -8.8 3.25 -8.35 3.25 -7.95 3 -7.65 2.65 -7.35 2.25 -7.35 1.85 -7.35 1.6 -7.65 Z"/>

<path fill="#CC0000" stroke="none" d="
M -1.5 -9.75
Q -1.6 -9.85 -1.7 -9.9 -2 -10.1 -2.35 -10.1 -2.85 -10.1 -3.2 -9.75 -3.6 -9.3 -3.6 -8.75 -3.6 -8.15 -3.2 -7.8 -2.85 -7.4 -2.35 -7.4 -2.25 -7.4 -2.15 -7.4 -1.8 -7.5 -1.5 -7.8 -1.15 -8.15 -1.15 -8.75 -1.15 -9.3 -1.5 -9.75
M 1.3 -8.35
Q 1.3 -7.95 1.6 -7.65 1.85 -7.35 2.25 -7.35 2.65 -7.35 3 -7.65 3.25 -7.95 3.25 -8.35 3.25 -8.8 3 -9.15 2.65 -9.4 2.25 -9.4 1.85 -9.4 1.6 -9.15 1.3 -8.8 1.3 -8.35 Z"/>
</g>

<g id="boys_blue_gnome_0_Layer10_0_FILL">
<path fill="#000000" stroke="none" d="
M -6.2 2.95
Q -6.35 2.6 -6.5 2.3 -7.1 1.3 -8.1 0.95 -9.15 0.65 -10.2 1.1 -10.55 1.3 -10.8 1.5 -11.8 2.2 -12.45 3.35 -12.6 3.75 -12.8 4.2 -13.35 5.95 -12.8 7.45 -12.15 8.9 -11.05 9.1 -9.85 9.35 -9.25 9.35 -8.65 9.35 -8.1 9 -6.8 8 -6.2 6.3 -5.65 4.5 -6.2 2.95
M -8.4 1.8
Q -7.3 2.2 -6.85 3.45 -6.45 4.75 -6.9 6.25 -7.3 7.6 -8.4 8.4 -8.8 8.7 -9.25 8.9 -10 8.75 -10.95 8.6 -11.8 8.35 -12.25 7.15 -12.65 5.95 -12.25 4.55 -12.1 4.1 -11.9 3.8 -11.45 2.85 -10.65 2.25 -9.5 1.45 -8.4 1.8
M 11.5 7.3
Q 12.1 5.85 11.5 4.1 11.35 3.65 11.15 3.25 10.55 2.1 9.55 1.4 9.25 1.15 8.95 1 7.9 0.55 6.85 0.8 5.8 1.15 5.25 2.2 5.05 2.5 4.95 2.85 4.4 4.4 4.95 6.15 5.55 7.9 6.85 8.9 7.35 9.2 8 9.2 8.6 9.2 9.8 9 10.9 8.75 11.5 7.3
M 11 4.45
Q 11.4 5.85 11 7.05 10.55 8.25 9.65 8.45 8.75 8.65 8 8.75 7.55 8.6 7.15 8.3 6.05 7.5 5.65 6.1 5.2 4.6 5.6 3.35 6.05 2.1 7.15 1.7 8.25 1.35 9.4 2.15 10.2 2.7 10.65 3.7 10.8 4 11 4.45 Z"/>

<path fill="#287BA4" stroke="none" d="
M -11.9 3.8
Q -12.1 4.1 -12.25 4.55 -12.65 5.95 -12.25 7.15 -11.8 8.35 -10.95 8.6 -10 8.75 -9.25 8.9 -11.5 7 -11.9 3.8
M 11 7.05
Q 11.4 5.85 11 4.45 10.8 4 10.65 3.7 10.25 6.85 8 8.75 8.75 8.65 9.65 8.45 10.55 8.25 11 7.05 Z"/>

<path fill="#3399CC" stroke="none" d="
M -6.85 3.45
Q -7.3 2.2 -8.4 1.8 -9.5 1.45 -10.65 2.25 -11.45 2.85 -11.9 3.8 -11.5 7 -9.25 8.9 -8.8 8.7 -8.4 8.4 -7.3 7.6 -6.9 6.25 -6.45 4.75 -6.85 3.45
M 9.4 2.15
Q 8.25 1.35 7.15 1.7 6.05 2.1 5.6 3.35 5.2 4.6 5.65 6.1 6.05 7.5 7.15 8.3 7.55 8.6 8 8.75 10.25 6.85 10.65 3.7 10.2 2.7 9.4 2.15 Z"/>
</g>

<g id="boys_blue_gnome_0_Layer9_0_FILL">
<path fill="#000000" stroke="none" d="
M 6.5 -0.3
Q 5.85 -0.85 5.2 -1.3 2.75 -2.85 -0.4 -2.85 -3.55 -2.85 -6 -1.3 -6.8 -0.85 -7.4 -0.3 -10.25 2.45 -10.25 6.1 -10.25 9.75 -7.4 12.35 -6.35 13.3 -4.6 13.7 -2.95 14.05 0.4 14.3 3.7 14.5 6.6 12.15 9.5 9.75 9.5 6.1 9.5 5.15 9.25 4.2 8.65 1.6 6.5 -0.3
M 5.45 11.3
Q 3.15 13.25 0.65 13.15 -1.95 13 -4.25 12.8 -5.25 12.2 -6.15 11.4 -8.45 9.3 -8.45 6.35 -8.45 3.3 -6.15 1.05 -3.8 -1.1 -0.4 -1.1 2.9 -1.1 5.3 1.05 7.05 2.65 7.5 4.8 7.7 5.4 7.7 6.35 7.7 9.3 5.45 11.3 Z"/>

<path fill="#3399CC" stroke="none" d="
M 7.5 4.8
Q 7.05 2.65 5.3 1.05 2.9 -1.1 -0.4 -1.1 -3.8 -1.1 -6.15 1.05 -8.45 3.3 -8.45 6.35 -8.45 9.3 -6.15 11.4 -5.25 12.2 -4.25 12.8 3.5 10.55 7.5 4.8 Z"/>

<path fill="#287BA4" stroke="none" d="
M 0.65 13.15
Q 3.15 13.25 5.45 11.3 7.7 9.3 7.7 6.35 7.7 5.4 7.5 4.8 3.5 10.55 -4.25 12.8 -1.95 13 0.65 13.15 Z"/>
</g>

<g id="boys_blue_gnome_0_Layer8_0_FILL">
<path fill="#000000" stroke="none" d="
M 0.9 14.7
Q 1.05 13.85 0.6 13.25 0.25 12.9 -0.3 12.55 -1.65 11.7 -4.6 12.05 -7.55 12.4 -7.95 12.75 -8.4 13.15 -9.1 14.5 -9.3 15.15 -9.2 15.5 -9.1 16.05 -8.15 16.2 -6.6 16.4 -4.45 16.6 -2.3 16.75 -0.75 16.35 0.75 15.95 0.9 14.7
M -1.1 15.75
Q -2.55 16.05 -4.2 15.85 -5.85 15.6 -6.85 15.6 -7.9 15.6 -8.5 15.05
L -8.3 14.6
Q -7.75 13.35 -7.35 13.1 -7 12.75 -4.5 12.45 -2 12.15 -0.85 12.9 -0.45 13.15 -0.15 13.5 0.25 14 0.3 14.75 0.35 15.45 -1.1 15.75 Z"/>

<path fill="#70452E" stroke="none" d="
M -0.15 13.5
Q -0.45 13.15 -0.85 12.9 -2 12.15 -4.5 12.45 -7 12.75 -7.35 13.1 -7.75 13.35 -8.3 14.6
L -8.5 15.05
Q -2.65 15.4 -0.15 13.5 Z"/>

<path fill="#A46442" stroke="none" d="
M -4.2 15.85
Q -2.55 16.05 -1.1 15.75 0.35 15.45 0.3 14.75 0.25 14 -0.15 13.5 -2.65 15.4 -8.5 15.05 -7.9 15.6 -6.85 15.6 -5.85 15.6 -4.2 15.85 Z"/>
</g>

<g id="boys_blue_gnome_0_Layer7_0_FILL">
<path fill="#000000" stroke="none" d="
M 5.7 16.95
Q 8 16.8 9.7 16.55 10.55 16.4 10.7 15.85 10.8 15.4 10.55 14.75 9.9 13.35 9.45 12.85 9 12.5 5.85 12.15 2.8 11.85 1.3 12.65 0.85 13.05 0.45 13.5 -0.05 14.05 0.05 14.95 0.3 16.35 1.85 16.7 3.45 17.2 5.7 16.95
M 9.1 15.8
Q 8 15.95 6 15.95 4 15.9 2.55 15.9 1.1 15.85 0.95 15.05 0.8 14.25 1.25 13.7 1.5 13.35 2.05 13.1 3.15 12.3 5.8 12.65 8.45 12.95 8.85 13.3 9.3 13.6 9.75 14.85 10.05 15.4 9.8 15.3 10.15 15.65 9.1 15.8 Z"/>

<path fill="#70452E" stroke="none" d="
M 9.8 15.3
Q 10.05 15.4 9.75 14.85 9.3 13.6 8.85 13.3 8.45 12.95 5.8 12.65 3.15 12.3 2.05 13.1 1.5 13.35 1.25 13.7 3.85 15.65 9.8 15.3 Z"/>

<path fill="#A46442" stroke="none" d="
M 6 15.95
Q 8 15.95 9.1 15.8 10.15 15.65 9.8 15.3 3.85 15.65 1.25 13.7 0.8 14.25 0.95 15.05 1.1 15.85 2.55 15.9 4 15.9 6 15.95 Z"/>
</g>

<g id="boys_blue_gnome_0_Layer6_0_FILL">
<path fill="#000000" stroke="none" d="
M 8.45 -7.1
Q 7.9 -8.75 5.85 -9.95 3.25 -11.65 -0.5 -11.65 -4.3 -11.65 -7 -9.95 -9.65 -8.3 -9.65 -5.85 -9.65 -3.55 -7 -1.95 -6.05 -1.25 -4.85 -0.8 -2.85 -0.2 -0.5 -0.2 3.25 -0.2 5.85 -1.95 8.65 -3.55 8.65 -5.85 8.65 -6.55 8.45 -7.1
M 7.05 -5.75
Q 7.05 -3.9 4.7 -2.5 2.55 -1.1 -0.5 -1.1 -2.45 -1.1 -4.1 -1.65 -5 -2 -5.85 -2.5 -8 -3.9 -8 -5.75 -8 -7.65 -5.85 -9.1 -3.7 -10.45 -0.5 -10.45 2.55 -10.45 4.7 -9.1 6.4 -8.1 6.8 -6.7 7.05 -6.3 7.05 -5.75 Z"/>

<path fill="#EFEBDC" stroke="none" d="
M 6.8 -6.7
Q 6.4 -8.1 4.7 -9.1 2.55 -10.45 -0.5 -10.45 -3.7 -10.45 -5.85 -9.1 -8 -7.65 -8 -5.75 -8 -3.9 -5.85 -2.5 -5 -2 -4.1 -1.65 3.1 -3.05 6.8 -6.7 Z"/>

<path fill="#E4DEC5" stroke="none" d="
M 4.7 -2.5
Q 7.05 -3.9 7.05 -5.75 7.05 -6.3 6.8 -6.7 3.1 -3.05 -4.1 -1.65 -2.45 -1.1 -0.5 -1.1 2.55 -1.1 4.7 -2.5 Z"/>
</g>

<g id="boys_blue_gnome_0_Layer5_0_FILL">
<path fill="#999999" stroke="none" d="
M 4.95 -4.9
L 5.05 -4.6 7.9 0.15 4.95 -1.25 4.5 4.7 3.15 3.2 1.15 9.55 -1.25 1.3 -3.6 4.9 -6.25 -1.6 -8.3 1 -7.35 -4.3 -7.75 -4.3 -8.25 -3.25 -9.65 2.85 -7.15 -0.05 -4.3 7.1 -1.75 4.65
Q -1.3 8.05 0.95 13.65
L 3.8 5.2 5.3 6.8 6.1 0.35 9.55 1.85 6.4 -3.25 5.7 -4.95 4.95 -4.9 Z"/>

<path fill="#000000" stroke="none" d="
M 8.45 -5.9
Q 7.5 -4.35 6.4 -3.25
L 9.55 1.85 6.1 0.35 5.3 6.8 3.8 5.2 0.95 13.65
Q -1.3 8.05 -1.75 4.65
L -4.3 7.1 -7.15 -0.05 -9.65 2.85 -8.25 -3.25
Q -8.25 -3.65 -9.2 -4.35
L -11.15 5.6 -7.55 2.25 -5.1 10.35 -2.4 6.75
Q -1.9 11.25 0.8 16.25
L 4.5 8.35 6.4 10.35 7.45 2.2 11.3 4.4 8.45 -5.9 Z"/>

<path fill="#FFFFFF" stroke="none" d="
M 4.95 -4.9
L 4.45 -6.1 -6.95 -5.5 -7.3 -4.6 -7.35 -4.3 -8.3 1 -6.25 -1.6 -3.6 4.9 -1.25 1.3 1.15 9.55 3.15 3.2 4.5 4.7 4.95 -1.25 7.9 0.15 5.05 -4.6 4.95 -4.9 Z"/>
</g>

<g id="boys_blue_gnome_0_Layer4_0_FILL">
<path fill="#000000" stroke="none" d="
M 3.7 -6.3
Q 2.3 -7.4 0.1 -7.65 -2.05 -7.9 -3.7 -7.15 -5.4 -6.35 -5.55 -4.95 -5.7 -3.65 -4.25 -2.5 -3.7 -2.05 -2.65 -1.7 -1.55 -1.25 0.1 -1.1 1.65 -0.9 3.25 -1.6 4.85 -2.4 5 -3.75 5.05 -4.1 4.95 -4.45 4.75 -5.45 3.7 -6.3
M 4 -4.4
Q 4.1 -4.1 4.1 -3.8 3.95 -2.7 2.45 -2.35 0.9 -2 -0.4 -2.05 -1.7 -2.15 -2.3 -2.55 -2.8 -2.6 -3.6 -3.25 -4.4 -3.9 -4.45 -4.9 -4.5 -5.9 -3.15 -6.6 -1.8 -7.2 0.05 -7 1.8 -6.8 2.95 -5.85 3.8 -5.2 4 -4.4 Z"/>

<path fill="#E6D5E4" stroke="none" d="
M 4 -4.4
Q 3.8 -5.2 2.95 -5.85 1.8 -6.8 0.05 -7 -1.8 -7.2 -3.15 -6.6 -4.5 -5.9 -4.45 -4.9 -4.4 -3.9 -3.6 -3.25 -2.8 -2.6 -2.3 -2.55 1.65 -2.5 4 -4.4 Z"/>

<path fill="#BDA9C0" stroke="none" d="
M 4.1 -3.8
Q 4.1 -4.1 4 -4.4 1.65 -2.5 -2.3 -2.55 -1.7 -2.15 -0.4 -2.05 0.9 -2 2.45 -2.35 3.95 -2.7 4.1 -3.8 Z"/>
</g>

<g id="boys_blue_gnome_0_Layer3_0_FILL">
<path fill="#000000" stroke="none" d="
M 7.6 -7.45
L 0.35 -30.15
Q -5.95 -19.8 -8.25 -7.45 -6 -8.15 -3.7 -8.4 1.95 -9.1 7.6 -7.45
M 0.45 -25.1
L 5.6 -8.85
Q 0.85 -11.1 -5.2 -9.3 -4.65 -9.25 -6 -8.85 -4.55 -17.85 -0.15 -26.8
L 0.45 -25.1 Z"/>

<path fill="#6FB8DB" stroke="none" d="
M -0.15 -26.8
Q -4.55 -17.85 -6 -8.85 -4.65 -9.25 -5.2 -9.3
L 0.45 -25.1 -0.15 -26.8 Z"/>

<path fill="#3399CC" stroke="none" d="
M 5.6 -8.85
L 0.45 -25.1 -5.2 -9.3
Q 0.85 -11.1 5.6 -8.85 Z"/>
</g>

<g id="boys_blue_gnome_0_Layer2_0_FILL">
<path fill="#000000" stroke="none" d="
M 6.55 -9.65
Q 6.4 -10.9 5.6 -11.75 4.65 -12.9 3.25 -12.9 1.8 -12.9 0.85 -11.75 0.45 -11.25 0.2 -10.55 -0.1 -11.6 -0.75 -12.4 -1.85 -13.7 -3.45 -13.7 -5.1 -13.7 -6.25 -12.4 -7 -11.35 -7.25 -10 -7.3 -9.6 -7.3 -9.05 -7.3 -7.1 -6.25 -5.8 -5.1 -4.4 -3.45 -4.4 -2.75 -4.4 -2.15 -4.65 -1.4 -4.95 -0.75 -5.8 -0.15 -6.45 0.2 -7.4 0.4 -6.65 0.85 -6 1.8 -4.8 3.25 -4.8 4.65 -4.8 5.6 -6 6.6 -7.15 6.6 -8.9 6.6 -9.3 6.55 -9.65
M 5.2 -11.1
Q 5.95 -10.25 6 -9.1 6 -9 6 -8.9 6 -7.45 5.2 -6.45 4.45 -5.55 3.3 -5.55 2.95 -5.55 2.65 -5.6 1.9 -5.85 1.35 -6.45 0.6 -7.45 0.6 -8.9 0.6 -10.15 1.35 -11.1 2.15 -12.05 3.3 -12.05 4.45 -12.05 5.2 -11.1
M -1.25 -11.65
Q -0.3 -10.55 -0.3 -9 -0.3 -7.4 -1.25 -6.3 -1.9 -5.5 -2.7 -5.25 -3.05 -5.2 -3.4 -5.2 -4.75 -5.2 -5.65 -6.3 -6.5 -7.4 -6.5 -9 -6.5 -9.25 -6.45 -9.4 -6.4 -10.75 -5.65 -11.65 -4.75 -12.75 -3.4 -12.75 -2.15 -12.75 -1.25 -11.65 Z"/>

<path fill="#CCCCCC" stroke="none" d="
M -6.45 -9.4
Q -6.5 -9.25 -6.5 -9 -6.5 -7.4 -5.65 -6.3 -4.75 -5.2 -3.4 -5.2 -3.05 -5.2 -2.7 -5.25 -5.7 -7.05 -6.45 -9.4
M 6 -8.9
Q 6 -9 6 -9.1 5.4 -7.15 2.65 -5.6 2.95 -5.55 3.3 -5.55 4.45 -5.55 5.2 -6.45 6 -7.45 6 -8.9 Z"/>

<path fill="#FFFFFF" stroke="none" d="
M -0.3 -9
Q -0.3 -10.55 -1.25 -11.65 -2.15 -12.75 -3.4 -12.75 -4.75 -12.75 -5.65 -11.65 -6.4 -10.75 -6.45 -9.4 -5.7 -7.05 -2.7 -5.25 -1.9 -5.5 -1.25 -6.3 -0.3 -7.4 -0.3 -9
M 6 -9.1
Q 5.95 -10.25 5.2 -11.1 4.45 -12.05 3.3 -12.05 2.15 -12.05 1.35 -11.1 0.6 -10.15 0.6 -8.9 0.6 -7.45 1.35 -6.45 1.9 -5.85 2.65 -5.6 5.4 -7.15 6 -9.1 Z"/>
</g>

<g id="boys_blue_gnome_0_Layer1_0_FILL">
<path fill="#000000" stroke="none" d="
M -2.35 -10.3
Q -2 -10.3 -1.7 -10.1 -2.15 -10.5 -2.65 -10.5 -3.2 -10.5 -3.6 -10.1 -4.05 -9.6 -4.05 -9 -4.05 -8.35 -3.6 -7.95 -3.2 -7.5 -2.65 -7.5 -2.4 -7.5 -2.15 -7.6 -2.25 -7.6 -2.35 -7.6 -2.85 -7.6 -3.2 -8 -3.6 -8.35 -3.6 -8.95 -3.6 -9.5 -3.2 -9.95 -2.85 -10.3 -2.35 -10.3
M 2.25 -9.9
Q 1.8 -9.9 1.45 -9.6 1.1 -9.2 1.1 -8.65 1.1 -8.15 1.45 -7.8 1.8 -7.4 2.25 -7.4 2.75 -7.4 3.15 -7.8 3.5 -8.15 3.5 -8.65 3.5 -9.2 3.15 -9.6 2.75 -9.9 2.25 -9.9
M 1.6 -9.35
Q 1.85 -9.6 2.25 -9.6 2.65 -9.6 3 -9.35 3.25 -9 3.25 -8.55 3.25 -8.15 3 -7.85 2.65 -7.55 2.25 -7.55 1.85 -7.55 1.6 -7.85 1.3 -8.15 1.3 -8.55 1.3 -9 1.6 -9.35 Z"/>

<path fill="#CC0000" stroke="none" d="
M -1.7 -10.1
Q -2 -10.3 -2.35 -10.3 -2.85 -10.3 -3.2 -9.95 -3.6 -9.5 -3.6 -8.95 -3.6 -8.35 -3.2 -8 -2.85 -7.6 -2.35 -7.6 -2.25 -7.6 -2.15 -7.6 -1.8 -7.7 -1.5 -8 -1.15 -8.35 -1.15 -8.95 -1.15 -9.5 -1.5 -9.95 -1.6 -10.05 -1.7 -10.1
M 2.25 -9.6
Q 1.85 -9.6 1.6 -9.35 1.3 -9 1.3 -8.55 1.3 -8.15 1.6 -7.85 1.85 -7.55 2.25 -7.55 2.65 -7.55 3 -7.85 3.25 -8.15 3.25 -8.55 3.25 -9 3 -9.35 2.65 -9.6 2.25 -9.6 Z"/>
</g>
</defs>

<g transform="matrix( 7.99676513671875, 0, 0, 7.99676513671875, 176,366.9) ">
<g transform="matrix( 1, 0, 0, 1, 0,0) ">
<use xlink:href="#girls_blue_gnome_girl_0_Layer10_0_FILL"/>
</g>

<g transform="matrix( 1, 0, 0, 1, 0,0) ">
<use xlink:href="#girls_blue_gnome_girl_0_Layer9_0_FILL"/>
</g>

<g transform="matrix( 1, 0, 0, 1, 0,0) ">
<use xlink:href="#girls_blue_gnome_girl_0_Layer8_0_FILL"/>
</g>

<g transform="matrix( 1, 0, 0, 1, 0,0) ">
<use xlink:href="#girls_blue_gnome_girl_0_Layer7_0_FILL"/>
</g>

<g transform="matrix( 1, 0, 0, 1, 0,0) ">
<use xlink:href="#girls_blue_gnome_girl_0_Layer6_0_FILL"/>
</g>

<g transform="matrix( 1, 0, 0, 1, 0,0) ">
<use xlink:href="#girls_blue_gnome_girl_0_Layer5_0_FILL"/>
</g>

<g transform="matrix( 1, 0, 0, 1, 0,0) ">
<use xlink:href="#girls_blue_gnome_girl_0_Layer4_0_FILL"/>
</g>

<g transform="matrix( 1, 0, 0, 1, 0,0) ">
<use xlink:href="#girls_blue_gnome_girl_0_Layer3_0_FILL"/>
</g>

<g transform="matrix( 1, 0, 0, 1, 0,0) ">
<use xlink:href="#girls_blue_gnome_girl_0_Layer2_0_FILL"/>
</g>

<g transform="matrix( 1, 0, 0, 1, 0,0) ">
<use xlink:href="#girls_blue_gnome_girl_0_Layer1_0_FILL"/>
</g>
</g>

<g transform="matrix( 7.99676513671875, 0, 0, 7.99676513671875, 404.9,368.5) ">
<g transform="matrix( 1, 0, 0, 1, 0,0) ">
<use xlink:href="#boys_blue_gnome_0_Layer10_0_FILL"/>
</g>

<g transform="matrix( 1, 0, 0, 1, 0,0) ">
<use xlink:href="#boys_blue_gnome_0_Layer9_0_FILL"/>
</g>

<g transform="matrix( 1, 0, 0, 1, 0,0) ">
<use xlink:href="#boys_blue_gnome_0_Layer8_0_FILL"/>
</g>

<g transform="matrix( 1, 0, 0, 1, 0,0) ">
<use xlink:href="#boys_blue_gnome_0_Layer7_0_FILL"/>
</g>

<g transform="matrix( 1, 0, 0, 1, 0,0) ">
<use xlink:href="#boys_blue_gnome_0_Layer6_0_FILL"/>
</g>

<g transform="matrix( 1, 0, 0, 1, 0,0) ">
<use xlink:href="#boys_blue_gnome_0_Layer5_0_FILL"/>
</g>

<g transform="matrix( 1, 0, 0, 1, 0,0) ">
<use xlink:href="#boys_blue_gnome_0_Layer4_0_FILL"/>
</g>

<g transform="matrix( 1, 0, 0, 1, 0,0) ">
<use xlink:href="#boys_blue_gnome_0_Layer3_0_FILL"/>
</g>

<g transform="matrix( 1, 0, 0, 1, 0,0) ">
<use xlink:href="#boys_blue_gnome_0_Layer2_0_FILL"/>
</g>

<g transform="matrix( 1, 0, 0, 1, 0,0) ">
<use xlink:href="#boys_blue_gnome_0_Layer1_0_FILL"/>
</g>
</g>
</svg>
