
<svg xmlns="http://www.w3.org/2000/svg" version="1.1" xmlns:xlink="http://www.w3.org/1999/xlink" preserveAspectRatio="none" x="0px" y="0px" width="560px" height="544px" viewBox="0 0 560 544">
<defs>
<g id="arm_suit_sickle_0_Layer3_0_FILL">
<path fill="#000000" stroke="none" d="
M 8.65 -5.45
L 11.1 -22.8 -26.55 -27.95 -29 -10.55 8.65 -5.45 Z"/>
</g>

<g id="arm_suit_sickle_0_Layer2_0_FILL">
<path fill="#151D39" stroke="none" d="
M 29.5 -20
L 29.4 -20
Q 29.6 -19.9 29.9 -19.9 29.65 -19.95 29.5 -20 Z"/>

<path fill="#000000" stroke="none" d="
M 10.7 -27.85
Q 8.55 -28.55 6.25 -29.35 3.65 -30.8 1.6 -32 0.3 -32.7 -0.75 -33.45 -1.85 -34.15 -2.6 -34.65 -4.5 -36.2 -5.9 -36.65 -6.25 -36.8 -11.05 -36.9 -16.65 -35.85 -18.6 -28.45
L -17.1 -25.8
Q -14.85 -20.35 -16.55 -13.1
L -18.1 -5.75
Q -16.4 -1.95 -14.15 -2.1 -6.95 -2.15 -3.15 -1.55 1.9 -0.7 6.05 0.05 8.5 0.45 10.7 0.8 22.6 -13.1 15.1 -26.4 13 -27.05 10.7 -27.85
M 9.4 -25.45
L 10.2 -25.15
Q 16.15 -15.25 7.15 -6.65 2.65 -8.05 -10.65 -8.85 -10.7 -8.85 -10.9 -8.8
L -10.6 -8.9
Q -10.65 -8.95 -10.7 -8.95 -13.95 -10.25 -12.85 -24.25 -16.65 -26.9 -13.4 -32.1 -7.7 -34.4 -7.25 -34.1
L -6 -33.5
Q -3.65 -32.7 7.05 -26.7
L 9.4 -25.45 Z"/>

<path fill="#333333" stroke="none" d="
M -10.65 -8.85
L -10.6 -8.9 -10.9 -8.8
Q -10.7 -8.85 -10.65 -8.85 Z"/>

<path fill="#584F38" stroke="none" d="
M 10.2 -25.15
L 9.4 -25.45 7.05 -26.7
Q -3.65 -32.7 -6 -33.5
L -7.25 -34.1
Q -7.7 -34.4 -13.4 -32.1 -16.65 -26.9 -12.85 -24.25 -13.95 -10.25 -10.7 -8.95 -10.65 -8.95 -10.6 -8.9
L -10.65 -8.85
Q 2.65 -8.05 7.15 -6.65 16.15 -15.25 10.2 -25.15 Z"/>
</g>

<g id="arm_suit_sickle_0_Layer1_0_FILL">
<path fill="#000000" stroke="none" d="
M -45.4 -29.8
Q -46.1 -29.95 -46.85 -30.2 -51.65 -26 -48.05 -17.7 -47.8 -17.8 -47.3 -17.75 -46.85 -17.7 -46.4 -17.7 -42.8 -17.55 -42.65 -16.8 -43.8 -16.25 -45.7 -15.05 -47.6 -14 -48.5 -13.8 -49.35 -13.5 -48.5 -10.2 -48.65 -7.75 -43.2 -4.25 -42.2 -4.45 -41.2 -4.55 -31.5 -5.75 -31 -5.6 -30.4 -5.5 -28.3 -6.3 -20.95 -7.4 -16.3 -12.1 -11.35 -17.05 -15.35 -25.95 -19.3 -34.9 -20.5 -38.1 -20.8 -38.8 -20.85 -39
L -21.05 -39.95
Q -22.55 -44.85 -23.5 -48.3
L -23.2 -47.5
Q -24.25 -54.25 -33.9 -45.75 -35.3 -44.6 -34.85 -41.95 -34.3 -39.25 -33.15 -36.15 -34.85 -35.85 -36.8 -37.2 -38.95 -38.45 -41.55 -39.7 -42.8 -40.4 -44.1 -40.95 -49 -34.4 -46.8 -30.45 -45.9 -30 -45.4 -29.8 Z"/>
</g>

<g id="sickle_0_Layer0_0_FILL">
<path fill="#412205" stroke="none" d="
M 26.75 35.7
Q 27.140234375 40.430859375 27.75 45.45
L 38.25 95.15 41.8 94.8
Q 32.9078125 61.476953125 30.85 34 28.6666015625 34.7751953125 26.75 35.7
M 27.35 0
Q 26.466015625 5.8001953125 26.15 12.35
L 30.3 12.15
Q 30.5015625 6.3416015625 31.05 0.85
L 27.35 0 Z"/>

<path fill="#5B2F02" stroke="none" d="
M 26.75 35.7
Q 24.5703125 36.7361328125 22.75 37.95 25.4052734375 61.5560546875 33.5 95.65
L 38.25 95.15 27.75 45.45
Q 27.140234375 40.430859375 26.75 35.7
M 27.35 0
L 22.75 1.7
Q 21.7896484375 6.4740234375 21.5 12.6
L 25.7 12.4 26.15 12.35
Q 26.466015625 5.8001953125 27.35 0 Z"/>

<path fill="#FF0000" stroke="none" d="
M 4.75 38.15
Q 0.04609375 33.8462890625 0.05 42.85 0.5849609375 49.902734375 3.65 57.9 8.15 69.7 15.6 77.4 17.15 79 18.4 80.2 17.05 78.45 15.05 75.65 10.7 69.5 8.05 61.55 8 61.45 7.95 61.35 6.85 58 6.05 54.4 4.09609375 45.551953125 4.75 38.15 Z"/>

<path fill="#CC0000" stroke="none" d="
M 9.55 43.2
L 9.5 43.4 9.4 55.6 7.95 61.35
Q 8 61.45 8.05 61.55 10.7 69.5 15.05 75.65 17.05 78.45 18.4 80.2 19.65 81.45 20.5 82.35 22.8 84.6 22.45 84 21.75 82.9 18.25 76.85 18.15 76.65 18 76.45
L 17.5 75.15 14.5 67.45
Q 13.05 57.8 13.55 54 14.05 50.2 17.25 44.15 17.3904296875 43.8037109375 17.55 43.45 11.67578125 49.01015625 9.55 43.2
M 16.6 40.5
Q 16.6 39.7 16.05 39.25 15.55 38.8 14.8 39 14.05 39.2 13.5 39.85 13 40.5 12.95 41.25 12.95 42.05 13.45 42.5 14 42.95 14.75 42.75 15.55 42.6 16.05 41.95 16.6 41.3 16.6 40.5
M 16.55 31.7
Q 16.15 31.75 15.85 32.1 15.6 32.45 15.65 32.85 15.7 33.3 16 33.5 16.3 33.75 16.7 33.7 17.1 33.65 17.4 33.3 17.65 32.95 17.6 32.5 17.6 32.1 17.3 31.85 17 31.65 16.55 31.7 Z"/>

<path fill="#990000" stroke="none" d="
M 9.55 43.2
Q 9.559765625 37.2984375 4.75 38.05 4.7810546875 38.109765625 4.75 38.15 4.09609375 45.551953125 6.05 54.4 6.85 58 7.95 61.35
L 9.4 55.6 9.5 43.4 9.55 43.2 Z"/>

<path fill="#878586" stroke="none" d="
M 26.15 12.35
L 25.7 12.4
Q 23.6044921875 13.5671875 21.45 15 19.5482421875 16.29765625 17.6 17.8 7.4 25.6 5.6 33.1 5.036328125 35.4822265625 4.75 38.05 9.559765625 37.2984375 9.55 43.2
L 12.6 36.85 15.8 27.05 25.65 21.7 33.9 11.95 30.3 12.15 26.15 12.35 Z"/>

<path fill="#E1E1E1" stroke="none" d="
M 25.7 12.4
L 21.5 12.6 18.45 12.75
Q 14.1 15.8 9.65 20.4 0.7 29.55 0.1 37.15 -0.136328125 39.9267578125 0.05 42.85 0.04609375 33.8462890625 4.75 38.15 4.7810546875 38.109765625 4.75 38.05 5.036328125 35.4822265625 5.6 33.1 7.4 25.6 17.6 17.8 19.5482421875 16.29765625 21.45 15 23.6044921875 13.5671875 25.7 12.4 Z"/>

<path fill="#ADADAD" stroke="none" d="
M 34.6 11.9
L 33.9 11.95 25.65 21.7 15.8 27.05 12.6 36.85 9.55 43.2
Q 11.67578125 49.01015625 17.55 43.45 19.046484375 40.433984375 22.6 38.05 22.6703125 38.0025390625 22.75 37.95 24.5703125 36.7361328125 26.75 35.7 28.6666015625 34.7751953125 30.85 34 31.3466796875 33.8177734375 31.85 33.65
L 36.35 32.4 34.6 11.9
M 15.85 32.1
Q 16.15 31.75 16.55 31.7 17 31.65 17.3 31.85 17.6 32.1 17.6 32.5 17.65 32.95 17.4 33.3 17.1 33.65 16.7 33.7 16.3 33.75 16 33.5 15.7 33.3 15.65 32.85 15.6 32.45 15.85 32.1
M 16.05 39.25
Q 16.6 39.7 16.6 40.5 16.6 41.3 16.05 41.95 15.55 42.6 14.75 42.75 14 42.95 13.45 42.5 12.95 42.05 12.95 41.25 13 40.5 13.5 39.85 14.05 39.2 14.8 39 15.55 38.8 16.05 39.25 Z"/>
</g>

<g id="body_suit_0_Layer0_0_FILL">
<path fill="#000000" stroke="none" d="
M 24.25 -20.55
Q 21.8 -27.8 16.2 -29.6 13.9 -30.4 10.5 -30.75 6.4 -31.4 0.75 -31.35 -4.65 -31.45 -11.3 -31.55
L -18.5 -28.4
Q -25.9 -24.2 -27.4 -18.05 -28.45 -13.1 -36 -4.65 -44 4.15 -45.95 9.8 -49.8 21.3 -51.1 33.65
L -65.6 55.55
Q -73.5 68.05 -66.3 75.1 -59.05 82.05 -56.6 77.85 -54.2 73.65 -41.65 72.4 -29.9 74.45 -28.4 79.05 -26.95 83.7 -21.75 88 -16.55 92.2 -14.75 92.85 -12.5 93.7 -9.05 94.05 -3.65 94.65 4.4 93.8 18.2005859375 92.3439453125 22.7 90.45 27.24765625 88.617578125 29.75 87.65 32.3029296875 86.7263671875 39.3 78.7 44.9923828125 79.509375 54.6 88.05 64.2525390625 96.596875 62.9 77.9 61.55 59.2 50.9 48.35 40.25 37.45 37.15 29.45 34.05 21.4 31.35 12.8 28.6 4.05 27 -6.85 25.1 -17.85 24.25 -20.55
M 0.15 -25.1
Q 5.65 -25.15 9.5 -24.5 12.15 -24.25 14.1 -23.5 19.2 -21.9 21.35 -15.3 22.15 -13.05 24.05 -2.2 25.55 7.2 30.55 26.85 31.9 32.15 37.2 40.35 37.25 40.35 37.25 40.45 37.45 40.7 37.7 41.1 38.25 42 38.9 43 44.05 50.75 49.65 59 53.1 64.15 54 68.55 57.9 71.6 57.65 78.25 57.45 84.9 55.05 78.15 52.7 71.4 45 69 37.25 66.65 35.05 70.85 32.8 75.1 31.35 76.9 27.6 81.7 22.05 84 17.95 85.65 10.75 86.8 7.4 87.3 3.5 87.75 -3.4 88.4 -8.15 88.05 -10.8 87.85 -12.55 87.4 -13.05 87.3 -13.45 87.1 -15.4 86.4 -18.15 82.7 -20.95 79.05 -25.5 71.55 -30.1 64.1 -50.85 65.75 -58.4 67.1 -61.9 71.1 -64.4 69 -64.2 66.4 -64 63.85 -56.55 52.55 -55.55 51.25 -53.7 48.95 -50.3 45 -47.5 41.85 -46.65 35.3 -45.8 30 -44.9 23.75 -43.85 19.15 -42.95 14.8 -42.05 12.1 -40.45 7.45 -34.35 0.4 -33.75 -0.4 -33.05 -1.15 -26.2 -8.6 -25.15 -12.95 -23.85 -18.6 -17.15 -22.35
L -10.65 -25.4
Q -4.7 -25.2 0.15 -25.1 Z"/>

<path fill="#5E563C" stroke="none" d="
M 22.05 84
Q 27.6 81.7 31.35 76.9 32.8 75.1 35.05 70.85 37.25 66.65 45 69 52.7 71.4 55.05 78.15 57.45 84.9 57.65 78.25 57.9 71.6 54 68.55 53.1 64.15 49.65 59 44.05 50.75 38.9 43 -4.05 26.8 -45.8 30 -46.65 35.3 -47.5 41.85 -50.3 45 -53.7 48.95 -55.55 51.25 -56.55 52.55 -64 63.85 -64.2 66.4 -64.4 69 -61.9 71.1 -58.4 67.1 -50.85 65.75 -30.1 64.1 -25.5 71.55 -20.95 79.05 -18.15 82.7 -15.4 86.4 -13.45 87.1 -13.05 87.3 -12.55 87.4 -14.2 70.6 -5.45 54 10.75 65.35 10.75 86.8 17.95 85.65 22.05 84
M 21.05 56.15
Q 25.6 53.05 32 53 38.3 53 42.85 56.2 46.75 58.95 47.25 62.65
L 47.2 62.65
Q 42.45 58.25 30.5 56.75 18.5 55.25 16.5 63.15 16.8 59.15 21.05 56.15
M -56 59.55
Q -55.6 55.55 -50.65 52.9 -45.4 50.1 -38.1 50.5 -30.75 51 -25.55 54.5 -21.05 57.55 -20.55 61.3
L -20.6 61.25
Q -27.7 57.6 -35.3 55.1 -42.85 52.6 -56 59.55
M 37.25 40.45
Q 37.25 40.35 37.2 40.35 10.25 6.7 -34.35 0.4 -40.45 7.45 -42.05 12.1 -42.95 14.8 -43.85 19.15 -3.6 20.75 37.25 40.45 Z"/>

<path fill="#827353" stroke="none" d="
M -50.65 52.9
Q -55.6 55.55 -56 59.55 -42.85 52.6 -35.3 55.1 -27.7 57.6 -20.6 61.25
L -20.55 61.3
Q -21.05 57.55 -25.55 54.5 -30.75 51 -38.1 50.5 -45.4 50.1 -50.65 52.9
M 32 53
Q 25.6 53.05 21.05 56.15 16.8 59.15 16.5 63.15 18.5 55.25 30.5 56.75 42.45 58.25 47.2 62.65
L 47.25 62.65
Q 46.75 58.95 42.85 56.2 38.3 53 32 53 Z"/>

<path fill="#534935" stroke="none" d="
M 3.5 87.75
Q 7.4 87.3 10.75 86.8 10.75 65.35 -5.45 54 -14.2 70.6 -12.55 87.4 -10.8 87.85 -8.15 88.05 -3.4 88.4 3.5 87.75 Z"/>

<path fill="#4E4532" stroke="none" d="
M 37.7 41.1
Q 37.45 40.7 37.25 40.45 -3.6 20.75 -43.85 19.15 -44.9 23.75 -45.8 30 -4.05 26.8 38.9 43 38.25 42 37.7 41.1 Z"/>

<path fill="#48402F" stroke="none" d="
M 9.5 -24.5
Q 5.65 -25.15 0.15 -25.1 -4.7 -25.2 -10.65 -25.4
L -17.15 -22.35
Q -23.85 -18.6 -25.15 -12.95 -26.2 -8.6 -33.05 -1.15 -33.75 -0.4 -34.35 0.4 10.25 6.7 37.2 40.35 31.9 32.15 30.55 26.85 25.55 7.2 24.05 -2.2 22.15 -13.05 21.35 -15.3 19.2 -21.9 14.1 -23.5 12.15 -24.25 9.5 -24.5 Z"/>
</g>

<g id="right_shoe_0_Layer0_0_FILL">
<path fill="#000000" stroke="none" d="
M 11.1 -5.05
Q 8.923828125 -6.5638671875 6.15 -7.3 1.024609375 -8.9490234375 -5.85 -7.25 -9.2861328125 -6.328515625 -12.1 -4.35 -16.95 -0.95 -16.75 4.1 -16.75 4.45 -16.7 4.85 -16.75 4.85 -16.8 4.85 -17.75 6.85 -17.7 9 -17.65 9.5 -17.6 9.95 0.5 15.1 17.5 8.7 17.55 8.25 17.5 7.75 17.45 5.35 16.15 3.35 16.05 3.35 15.95 3.4 15.95 3.2 15.95 2.95 15.75 -2.1 11.1 -5.05
M 2.9 -6.1
Q 5.95 -5.75 8.5 -4.25 12.55 -1.85 12.7 2.1 12.7 2.45 12.7 2.8 12.45 2.9 12.2 3 11.5 1.25 8.65 0 5 -1.5 -0.1 -1.35 -5.2 -1.15 -8.7 0.65 -9.7 1.15 -10.4 1.75 -11.7 2.8 -11.95 4.05 -12.5 3.85 -13 3.7 -13.05 3.35 -13.05 3 -13.2 -0.95 -9.95 -3.35 -7 -5.5 -2.1 -6.1 -1.65 -6.15 -1.2 -6.2 0.95 -6.35 2.9 -6.1
M 10.5 5.65
Q 11.95 5.2 13.45 4.75
L 14.55 8.8
Q 12.65 9.35 11.3 9.65
L 10.5 5.65
M 10.5 3.55
Q 10.5 3.7 10.45 3.8 8.5 4.35 6.55 4.65 -1.75 6.05 -9.65 4.5 -9.65 4.35 -9.65 4.15 -9.7 2.25 -7.3 1.25 -4.9 0.25 -0.5 -0.1 3.9 -0.5 7.2 0.5 10.45 1.55 10.5 3.45 10.5 3.5 10.5 3.55
M 16.85 8.35
Q 16.1 8.55 15.2 8.6
L 14.3 4.45
Q 14.9 4.25 15.45 4.1 16.65 5.85 16.75 6.9 16.8 7.95 16.85 8.35
M 1.05 7.3
L 1.2 10.9
Q -0.4 10.95 -2.5 11.05
L -2.4 7.4
Q -0.7 7.4 1.05 7.3
M 2.4 10.8
L 1.95 7.2
Q 3.7 7.05 5.5 6.75
L 6.25 10.45
Q 3.95 10.7 2.4 10.8
M 7.25 10.3
L 6.35 6.6
Q 7.95 6.25 9.65 5.9
L 10.45 9.75
Q 8.4 10.15 7.25 10.3
M -7.55 7.05
L -7.95 10.85
Q -9.1 10.6 -10.5 10.5
L -10.25 6.65
Q -8.95 6.85 -7.55 7.05
M -7 10.95
L -6.7 7.15
Q -5.05 7.3 -3.35 7.4
L -3.8 11.1
Q -4.85 10.9 -7 10.95
M -16.85 9.55
Q -16.9 9.55 -16.95 8.45 -16.95 7.35 -15.8 5.4 -15.35 5.5 -14.85 5.6
L -15.45 9.85
Q -16.2 9.65 -16.85 9.55
M -11.15 6.45
L -11.75 10.35
Q -13 10.2 -14.3 10
L -14.25 5.8
Q -12.75 6.15 -11.15 6.45 Z"/>

<path fill="#666666" stroke="none" d="
M -11.75 10.35
L -11.15 6.45
Q -12.75 6.15 -14.25 5.8
L -14.3 10
Q -13 10.2 -11.75 10.35
M -16.95 8.45
Q -16.9 9.55 -16.85 9.55 -16.2 9.65 -15.45 9.85
L -14.85 5.6
Q -15.35 5.5 -15.8 5.4 -16.95 7.35 -16.95 8.45
M -6.7 7.15
L -7 10.95
Q -4.85 10.9 -3.8 11.1
L -3.35 7.4
Q -5.05 7.3 -6.7 7.15
M -7.95 10.85
L -7.55 7.05
Q -8.95 6.85 -10.25 6.65
L -10.5 10.5
Q -9.1 10.6 -7.95 10.85
M 6.35 6.6
L 7.25 10.3
Q 8.4 10.15 10.45 9.75
L 9.65 5.9
Q 7.95 6.25 6.35 6.6
M 1.95 7.2
L 2.4 10.8
Q 3.95 10.7 6.25 10.45
L 5.5 6.75
Q 3.7 7.05 1.95 7.2
M 1.2 10.9
L 1.05 7.3
Q -0.7 7.4 -2.4 7.4
L -2.5 11.05
Q -0.4 10.95 1.2 10.9
M 15.2 8.6
Q 16.1 8.55 16.85 8.35 16.8 7.95 16.75 6.9 16.65 5.85 15.45 4.1 14.9 4.25 14.3 4.45
L 15.2 8.6
M 13.45 4.75
Q 11.95 5.2 10.5 5.65
L 11.3 9.65
Q 12.65 9.35 14.55 8.8
L 13.45 4.75 Z"/>

<path fill="#999999" stroke="none" d="
M 10.45 3.8
Q 10.5 3.7 10.5 3.55 10.5 3.5 10.5 3.45 10.45 1.55 7.2 0.5 3.9 -0.5 -0.5 -0.1 -4.9 0.25 -7.3 1.25 -9.7 2.25 -9.65 4.15 -9.65 4.35 -9.65 4.5 -1.75 6.05 6.55 4.65 8.5 4.35 10.45 3.8
M 6.55 3.1
Q 6.55 3.2 5.8 3.35 5.1 3.55 1.1 3.9 -2.9 4.3 -4.85 3.95 -6.8 3.6 -6.8 3.5 -6.85 2.15 -5.25 1.55 -3.7 0.9 -0.75 0.65 2.15 0.4 4.3 1.05 6.5 1.7 6.55 3.05
L 6.55 3.1 Z"/>

<path fill="#CCCCCC" stroke="none" d="
M 5.8 3.35
Q 6.55 3.2 6.55 3.1
L 6.55 3.05
Q 6.5 1.7 4.3 1.05 2.15 0.4 -0.75 0.65 -3.7 0.9 -5.25 1.55 -6.85 2.15 -6.8 3.5 -6.8 3.6 -4.85 3.95 -2.9 4.3 1.1 3.9 5.1 3.55 5.8 3.35 Z"/>

<path fill="#333333" stroke="none" d="
M 8.5 -4.25
Q 5.95 -5.75 2.9 -6.1 0.95 -6.35 -1.2 -6.2 -1.65 -6.15 -2.1 -6.1 -7 -5.5 -9.95 -3.35 -13.2 -0.95 -13.05 3 -13.05 3.35 -13 3.7 -12.5 3.85 -11.95 4.05 -11.7 2.8 -10.4 1.75 -9.7 1.15 -8.7 0.65 -5.2 -1.15 -0.1 -1.35 5 -1.5 8.65 0 11.5 1.25 12.2 3 12.45 2.9 12.7 2.8 12.7 2.45 12.7 2.1 12.55 -1.85 8.5 -4.25 Z"/>
</g>

<g id="head_0_Layer2_0_FILL">
<path fill="#000000" stroke="none" d="
M 70.7 -60.55
Q 57.25 -74.4 51.1 -74.4 49.6 -74.4 27.3 -79.3 7.2 -83.95 -2.05 -82.05 -9.8 -80.55 -20.85 -78.65 -29.3 -76.3 -38 -68.55 -44.5 -62.7 -50.1 -54.8 -54.3 -48.7 -58.8 -46 -63.4 -43.25 -69.25 -41.5 -73.9 -39.3 -78.4 -33.35 -87.65 -33.6 -89 -28 -90.5 -22.6 -83.55 -13.9 -81.9 -11.85 -70.1 0.55 -64.65 6.25 -62.35 18.75 -60.45 31.3 -52 45.95 -45.2 57.95 -45.2 56.2 -44.25 60 -42.35 63.8 -37.55 73.05 -30.5 74.4 -19.6 76.6 -17.45 76.6 -13.35 76.7 -8.45 75.2 -6.4 74.55 -4.25 73.7 2.4 71 9.5 62.45 13.45 57.65 20.5 48.95 21.45 48 36 35.5 47.7 25.3 54.8 16.85 63.35 6.55 66.9 -9.8 68.4 -16.2 68.65 -21.1 69.6 -21.1 76.95 -20.55 84.15 -20 86.75 -25.45 89.2 -30.9 86.6 -38.75 83.9 -46.65 70.7 -60.55
M 45.4 -68
Q 50.85 -68 62.7 -55.65 74.4 -43.4 76.55 -36.3 78.3 -30.05 76 -28.85 75.05 -28.45 66.5 -28.45 60.75 -28.45 56.4 -37.95 54.65 -42.3 53.7 -46.4 55.6 -37.15 59.3 -30.35 62.55 -24.6 59.4 -10.9 56.3 3.55 48.65 12.5 42.4 20 32.05 29.1 19.3 40 18.45 40.95 12.2 48.7 8.8 52.8 2.55 60.4 -3.45 62.7 -5.35 63.5 -7.1 64.05 -11.45 65.45 -15 65.3 -16.9 65.3 -26.55 63.4 -32.8 62.15 -37.05 54 -38.65 50.6 -39.5 47.35 -39.5 48.85 -45.45 38.2 -52.95 25.3 -54.7 14.3 -56.6 3.25 -61.5 -1.9 -71.85 -12.65 -73.35 -14.4 -74.7646484375 -16.197265625 -75.8 -17.85 -75.8173828125 -17.6951171875 -75.85 -17.55 -75.95 -17.25 -76 -16.95 -79.75 -22.75 -78.65 -26.6 -78.1298828125 -28.916796875 -76.05 -30.1 -73.7470703125 -31.7400390625 -69.15 -31.7 -65.6908203125 -35.975390625 -62.35 -38.05 -61.590625 -38.515625 -60.85 -38.9 -55.55 -40.55 -51.6 -42.85 -51.36796875 -42.980078125 -51.15 -43.15 -47.5962890625 -45.4775390625 -44.4 -50.25 -39.5 -57.2 -33.65 -62.35 -30.9806640625 -64.775 -28.35 -66.6
L -24.7 -68.9
Q -21.328515625 -70.783984375 -18 -71.7 -8.35 -73.3 -1.55 -74.7 6.65 -76.3 24.45 -72.25 44.05 -68 45.4 -68 Z"/>

<path fill="#5E563C" stroke="none" d="
M -76.05 -30.1
Q -73.696484375 -31.4291015625 -69.4 -31.35 -69.259765625 -31.528515625 -69.15 -31.7 -73.7470703125 -31.7400390625 -76.05 -30.1
M -52.15 -42.5
Q -51.640234375 -42.7859375 -51.15 -43.15 -51.36796875 -42.980078125 -51.6 -42.85 -55.55 -40.55 -60.85 -38.9 -61.590625 -38.515625 -62.35 -38.05 -61.8666015625 -38.3078125 -61.4 -38.55 -56.1 -40.2 -52.15 -42.5
M 44.85 -67.65
Q 50.3 -67.65 62.15 -55.3 73.85 -43.05 76 -35.95 76.75 -33.2 76.75 -31.45 73.25 -37.55 64.95 -46.25 53.1 -58.6 47.65 -58.6 46.3 -58.6 26.7 -62.85 8.9 -66.9 0.7 -65.3 -6.1 -63.9 -15.75 -62.3 -23.2 -60.25 -30.85 -53.3 -36.7 -48.15 -41.6 -41.2 -45.25 -35.75 -49.35 -33.45 -53.3 -31.15 -58.6 -29.5 -62.55 -27.45 -66.6 -22.3 -74.5083984375 -22.4455078125 -75.8 -17.85 -74.7646484375 -16.197265625 -73.35 -14.4 -71.85 -12.65 -61.5 -1.9 -56.6 3.25 -54.7 14.3 -52.95 25.3 -45.45 38.2 -39.5 48.85 -39.5 47.35 -38.65 50.6 -37.05 54 -32.8 62.15 -26.55 63.4 -16.9 65.3 -15 65.3 -11.45 65.45 -7.1 64.05
L 6.35 38.35 29.75 19.45
Q 46.65 3.55 50.45 -14.15
L 42.7 -41.1 36.7 -55.5
Q 46.65 -57.95 53.45 -47.6
L 53.7 -46.4
Q 54.65 -42.3 56.4 -37.95 60.75 -28.45 66.5 -28.45 75.05 -28.45 76 -28.85 78.3 -30.05 76.55 -36.3 74.4 -43.4 62.7 -55.65 50.85 -68 45.4 -68 44.05 -68 24.45 -72.25 6.65 -76.3 -1.55 -74.7 -8.35 -73.3 -18 -71.7 -21.328515625 -70.783984375 -24.7 -68.9 -21.5966796875 -70.51171875 -18.55 -71.35 -8.9 -72.95 -2.1 -74.35 6.1 -75.95 23.9 -71.9 43.5 -67.65 44.85 -67.65 Z"/>

<path fill="#29241B" stroke="none" d="
M 53.7 -46.4
L 53.45 -47.6
Q 46.65 -57.95 36.7 -55.5
L 42.7 -41.1 50.45 -14.15
Q 46.65 3.55 29.75 19.45
L 6.35 38.35 -7.1 64.05
Q -5.35 63.5 -3.45 62.7 2.55 60.4 8.8 52.8 12.2 48.7 18.45 40.95 19.3 40 32.05 29.1 42.4 20 48.65 12.5 56.3 3.55 59.4 -10.9 62.55 -24.6 59.3 -30.35 55.6 -37.15 53.7 -46.4 Z"/>

<path fill="#877856" stroke="none" d="
M 62.15 -55.3
Q 50.3 -67.65 44.85 -67.65 43.5 -67.65 23.9 -71.9 6.1 -75.95 -2.1 -74.35 -8.9 -72.95 -18.55 -71.35 -21.5966796875 -70.51171875 -24.7 -68.9
L -28.35 -66.6
Q -30.9806640625 -64.775 -33.65 -62.35 -39.5 -57.2 -44.4 -50.25 -47.5962890625 -45.4775390625 -51.15 -43.15 -51.640234375 -42.7859375 -52.15 -42.5 -56.1 -40.2 -61.4 -38.55 -61.8666015625 -38.3078125 -62.35 -38.05 -65.6908203125 -35.975390625 -69.15 -31.7 -69.259765625 -31.528515625 -69.4 -31.35 -73.696484375 -31.4291015625 -76.05 -30.1 -78.1298828125 -28.916796875 -78.65 -26.6 -79.75 -22.75 -76 -16.95 -75.95 -17.25 -75.85 -17.55 -75.8173828125 -17.6951171875 -75.8 -17.85 -74.5083984375 -22.4455078125 -66.6 -22.3 -62.55 -27.45 -58.6 -29.5 -53.3 -31.15 -49.35 -33.45 -45.25 -35.75 -41.6 -41.2 -36.7 -48.15 -30.85 -53.3 -23.2 -60.25 -15.75 -62.3 -6.1 -63.9 0.7 -65.3 8.9 -66.9 26.7 -62.85 46.3 -58.6 47.65 -58.6 53.1 -58.6 64.95 -46.25 73.25 -37.55 76.75 -31.45 76.75 -33.2 76 -35.95 73.85 -43.05 62.15 -55.3 Z"/>
</g>

<g id="head_0_Layer1_0_FILL">
<path fill="#000000" stroke="none" d="
M -44.8 -20.55
Q -52.15 -18.65 -58.8 -22.7 -57.45 -21.5 -56.5 -19.6 -49.95 -10.6 -48.85 -5.7 -47.65 0.25 -47.35 12.9 -47.25 17.4 -46.15 20.8 -44.25 24.5 -42.2 27.6 -41.8 28.15 -41.25 28.85 -36.6 35.1 -27.1 43.8
L -19.75 50.35
Q -20.05 50.45 -20.3 50.6
L -19.5 50.45 -18.65 51.3
Q -17.85 49.65 -18.4 49.8
L -13.75 47.45
Q -12.55 45.7 -10.65 43.95 -7.1 40.65 -1.1 38.5 2.95 37.15 7.85 33.2 10.15 31.15 12.5 28.7 16.55 24.9 19.15 21.2 23.65 15.35 25 8.85 26.5 1.65 24.3 -6.4 16 -18.65 4.85 -25.6 -3.95 -30.6 -15.4 -27.2
L -44.8 -20.55 Z"/>

<path fill="#534935" stroke="none" d="
M -66.8 -24.9
Q -59.35 -14.4 -58.1 -9 -56.9 -2.6 -51.7 9.25 -49.15 15.5 -46.15 20.8 -47.25 17.4 -47.35 12.9 -47.65 0.25 -48.85 -5.7 -49.95 -10.6 -56.5 -19.6 -57.45 -21.5 -58.8 -22.7 -52.15 -18.65 -44.8 -20.55
L -15.4 -27.2
Q -3.95 -30.6 4.85 -25.6 16 -18.65 24.3 -6.4 26.5 1.65 25 8.85 27.2 0 24.45 -9.8 15.05 -23.8 2.55 -31.4 -7.65 -37.25 -20.3 -33.35
L -53.5 -25.7
Q -61.9 -23.55 -69.25 -28.3 -67.9 -26.8 -66.8 -24.9 Z"/>
</g>

<g id="eye_7_Layer2_0_FILL">
<path fill="#FF0000" stroke="none" d="
M -16.85 -11.25
Q -18.6 -8.15 -16.3 -2.6 -14 2.8 -9.95 7.4 -5.75 12 1.35 12 8.5 11.8 14.25 7 16.95 4.7 18.1 2.2 -0.55 1.85 -16.85 -11.25 Z"/>
</g>

<g id="arm_suit_0_Layer0_0_FILL">
<path fill="#48402F" stroke="none" d="
M 39.1 -34.2
L 39.2 -35.5 22.5 -24.35 3.75 -2
Q 9.962890625 0.2951171875 13.5 -2.55
L 25.5 -21.95
Q 34.8 -27.55 38.85 -33.1
L 39.1 -34.2 Z"/>

<path fill="#584F38" stroke="none" d="
M 40 -42.6
Q 39.4 -44.2 38.4 -45.95 37.5365234375 -45.9931640625 36.8 -45.95 36.8537109375 -45.8779296875 36.85 -45.85 37.1470703125 -45.128515625 29.2 -40.45 21.3923828125 -35.81171875 21.7 -36.15
L -9.45 -10.15
Q -1.7822265625 -4.0240234375 3.75 -2
L 22.5 -24.35 39.2 -35.5 39.6 -39.75
Q 39.65 -39.95 39.7 -40.1
L 40 -42.6 Z"/>

<path fill="#000000" stroke="none" d="
M 38.4 -45.95
Q 39.4 -44.2 40 -42.6
L 40.35 -45.6
Q 40.4 -45.6 40.45 -45.6
L 40.65 -46.75
Q 38.9 -46.8 36.35 -46.85 29.35 -47.05 23.1 -42.05 16.7 -37 15.35 -36 14.6 -35.45 10.2 -31.4 6.55 -28.05 0.2 -22.15 -1.9 -20.1 -6.7 -17.05 -11.4 -14.05 -13.05 -12.4 -15.05 -10.4 -13.85 -10.05 -12.6 -9.55 -13.8 -8.25 -15.35 -6.45 -22.3 1.05 -25.112109375 4.0849609375 -26.35 5.45 -27.659765625 7.925 -29.35 11.05 -27.878125 19.068359375 -26.95 21.05 -26.80078125 21.40859375 -26.65 21.75
L -14.4 33.15
Q -11.65 34.85 -9.6 33.65 -7.55 32.4 -6.2 31.1 -4.9 29.8 -4.85 28.85 -4.85 27.9 -4.65 26.1 -4.45 24.3 -6.3 20.65
L -8.65 17.25
Q -8.65 14.9 -6.8 14
L -5.45 17.4
Q -4.35 20.65 0.45 21.95 1.7 22.05 3.65 22.25 5.65 22.35 7.9 20.85 10.05 19.3 9.55 16.4 8.45 13.15 8.35 11.95 8.15 10.1 9.3 9.5 9.65 9.3 11.1 6.1 12.8 2.5 13.35 1.7 17.15 -0.95 17.35 -1.25 17.95 -2.1 18.4 -3.75 18.7 -5.05 19.65 -7.05 20.35 -8.6 21.3 -10.6 25.45 -16.1 28.6 -19.85 30.3 -21.9 31.65 -23.45 35.2 -27.35 38.05 -29.5
L 38.85 -33.1
Q 34.8 -27.55 25.5 -21.95
L 13.5 -2.55
Q 9.962890625 0.2951171875 3.75 -2 -1.7822265625 -4.0240234375 -9.45 -10.15
L 21.7 -36.15
Q 21.3923828125 -35.81171875 29.2 -40.45 37.1470703125 -45.128515625 36.85 -45.85 36.8537109375 -45.8779296875 36.8 -45.95 37.5365234375 -45.9931640625 38.4 -45.95
M 4.1 1.65
Q 4.06796875 1.6857421875 4 1.7
L 4 1.65 4.1 1.65 Z"/>

<path fill="#9592A9" stroke="none" d="
M 4 1.7
Q 4.06796875 1.6857421875 4.1 1.65
L 4 1.65 4 1.7 Z"/>
</g>

<path id="sickle_0_Layer0_0_1_STROKES" stroke="#000000" stroke-width="1" stroke-linejoin="round" stroke-linecap="round" fill="none" d="
M 18.25 76.85
Q 18.15 76.65 18 76.45
L 17.5 75.15"/>

<path id="sickle_0_Layer0_0_2_STROKES" stroke="#000000" stroke-width="1.3" stroke-linejoin="round" stroke-linecap="round" fill="none" d="
M 22.75 37.95
Q 24.5703125 36.7361328125 26.75 35.7
M 30.85 34
Q 31.3466796875 33.8177734375 31.85 33.65
M 18.4 80.2
Q 19.65 81.45 20.5 82.35 22.8 84.6 22.45 84 21.75 82.9 18.25 76.85 17.95 76.05 17.5 75.15"/>

<path id="sickle_0_Layer0_0_3_STROKES" stroke="#000000" stroke-width="1.5" stroke-linejoin="round" stroke-linecap="round" fill="none" d="
M 31.85 33.65
L 36.35 32.4 34.6 11.9 33.9 11.95
M 17.55 43.475
Q 19.046484375 40.433984375 22.6 38.05 22.6703125 38.0025390625 22.75 37.95
M 30.85 34
Q 28.6666015625 34.7751953125 26.75 35.7
M 21.525 12.6
Q 21.7896484375 6.4740234375 22.75 1.7
L 27.35 0 31.05 0.85
Q 30.5015625 6.3416015625 30.325 12.15
L 33.9 11.95
M 25.7 12.4
L 21.525 12.6 18.45 12.75
Q 14.1 15.8 9.65 20.4 0.7 29.55 0.1 37.15 -0.136328125 39.9267578125 0.075 42.875
M 4.775 38.175
Q 4.7810546875 38.109765625 4.775 38.05 5.036328125 35.4822265625 5.6 33.1 7.4 25.6 17.6 17.8 19.5482421875 16.29765625 21.45 15.025 23.6044921875 13.5671875 25.7 12.4
L 26.175 12.375 30.325 12.15
M 7.95 61.35
Q 8 61.45 8.05 61.55 10.7 69.5 15.05 75.65 17.05 78.45 18.4 80.2
M 17.5 75.15
L 14.5 67.45
Q 13.05 57.8 13.55 54 14.05 50.2 17.25 44.15 17.3904296875 43.8037109375 17.55 43.475
M 38.25 95.15
L 41.8 94.8
Q 32.9078125 61.476953125 30.85 34
M 4.775 38.175
Q 4.09609375 45.551953125 6.05 54.4 6.85 58 7.95 61.35
M 18.4 80.2
Q 17.15 79 15.6 77.4 8.15 69.7 3.65 57.9 0.5849609375 49.902734375 0.075 42.875
M 22.75 37.95
Q 25.4052734375 61.5560546875 33.5 95.65
L 38.25 95.15"/>
</defs>

<g transform="matrix( 7.7949676513671875, 0, 0, 7.7949676513671875, 26.2,507.1) ">
<g transform="matrix( 0.2397918701171875, -0.095947265625, 0.095947265625, 0.2397918701171875, 30.35,-20.75) ">
<g transform="matrix( 1, 0, 0, 1, 0,0) ">
<use xlink:href="#arm_suit_sickle_0_Layer3_0_FILL"/>
</g>

<g transform="matrix( 1, 0, 0, 1, 0,0) ">
<use xlink:href="#arm_suit_sickle_0_Layer2_0_FILL"/>
</g>

<g transform="matrix( 1, 0, 0, 1, 0,0) ">
<use xlink:href="#arm_suit_sickle_0_Layer1_0_FILL"/>
</g>

<g transform="matrix( 2.084564208984375, 1.08807373046875, -1.08807373046875, 2.084564208984375, -34,-171.15) ">
<g transform="matrix( 1, 0, 0, 1, 0,0) ">
<use xlink:href="#sickle_0_Layer0_0_FILL"/>

<use xlink:href="#sickle_0_Layer0_0_1_STROKES"/>

<use xlink:href="#sickle_0_Layer0_0_2_STROKES"/>

<use xlink:href="#sickle_0_Layer0_0_3_STROKES"/>
</g>
</g>
</g>

<g transform="matrix( 0.286773681640625, -0.0119476318359375, 0.0084228515625, 0.2864227294921875, 41.65,-25.1) ">
<g transform="matrix( 1, 0, 0, 1, 0,0) ">
<use xlink:href="#body_suit_0_Layer0_0_FILL"/>
</g>
</g>

<g transform="matrix( 0.29052734375, 0.0205230712890625, -0.0205230712890625, 0.29052734375, 33.85,-7.5) ">
<g transform="matrix( 1.59381103515625, -0.0698699951171875, 0.072967529296875, 1.66473388671875, -8.45,13.85) ">
<g transform="matrix( 1, 0, 0, 1, 0,0) ">
<use xlink:href="#right_shoe_0_Layer0_0_FILL"/>
</g>
</g>
</g>

<g transform="matrix( -0.2859954833984375, 0.0186309814453125, 0.0186309814453125, 0.2859954833984375, 49.25,-7.4) ">
<g transform="matrix( 1.59381103515625, -0.0698699951171875, 0.072967529296875, 1.66473388671875, -8.45,13.85) ">
<g transform="matrix( 1, 0, 0, 1, 0,0) ">
<use xlink:href="#right_shoe_0_Layer0_0_FILL"/>
</g>
</g>
</g>

<g transform="matrix( 0.23382568359375, -0.0125274658203125, 0.00335693359375, 0.23394775390625, 41.6,-42.85) ">
<g transform="matrix( 1, 0, 0, 1, 0,0) ">
<use xlink:href="#head_0_Layer2_0_FILL"/>
</g>

<g transform="matrix( 1, 0, 0, 1, 0,0) ">
<use xlink:href="#head_0_Layer1_0_FILL"/>
</g>

<g transform="matrix( -0.94830322265625, 0.08740234375, 0.08740234375, 0.94830322265625, -1.05,6.4) ">
<g transform="matrix( 1, 0, 0, 1, 0,0) ">
<use xlink:href="#eye_7_Layer2_0_FILL"/>
</g>
</g>

<g transform="matrix( 0.623443603515625, 0.0325927734375, -0.0325927734375, 0.623443603515625, -33.45,8.6) ">
<g transform="matrix( 1, 0, 0, 1, 0,0) ">
<use xlink:href="#eye_7_Layer2_0_FILL"/>
</g>
</g>
</g>

<g transform="matrix( -0.243743896484375, -0.0854339599609375, -0.0854339599609375, 0.243743896484375, 52.35,-19.25) ">
<g transform="matrix( 1, 0, 0, 1, 0,0) ">
<use xlink:href="#arm_suit_0_Layer0_0_FILL"/>
</g>
</g>
</g>
</svg>
