
<svg xmlns="http://www.w3.org/2000/svg" version="1.1" xmlns:xlink="http://www.w3.org/1999/xlink" preserveAspectRatio="none" x="0px" y="0px" width="560px" height="544px" viewBox="0 0 560 544">
<defs>
<radialGradient id="Gradient_1" gradientUnits="userSpaceOnUse" cx="0" cy="0" r="35.3125" fx="0" fy="0" gradientTransform="matrix( 1, 0, 0, 1, 79.85,26.4) " spreadMethod="pad">
<stop  offset="0%" stop-color="#FBFFF5"/>

<stop  offset="100%" stop-color="#00FFFF"/>
</radialGradient>

<g id="arm_suit_copy_5_0_Layer1_0_FILL">
<path fill="#000000" stroke="none" d="
M 8.75 8.45
Q 8 7.55 7.75 7.35 7.55 7 6.35 6.5 5.15 6 1.25 6.3 -2.7 6.55 -3.3 7.05 -3.95 7.5 -4.65 7.9 -4.8 8.1 -4.85 8.2 -5 8.35 -5.2 8.5 -7.5 10.4 -7.7 10.6
L -8.75 15.65
Q -8.95 16.5 -9.2 17.15 -9.3 17.6 -9.35 18.55 -9.45 19.4 -8.7 19.6 -8.05 19.8 -5.85 18.3 -4.95 17.95 -4.65 17.45 -4.3 17.1 -4.15 15.9 -3.9 14.65 -2.3 13.3
L -1.6 13.4
Q -0.65 12.95 0.1 13.15
L -0.65 14.2
Q -1.55 15.15 -0.85 16.4 -0.5 16.7 0.5 17 1.6 17.35 3.15 16.8 4.65 16.2 4.95 16 5.85 15.4 6.5 15.35 7.1 15.2 9.15 13.3
L 9.95 12.7
Q 8.9 13.45 8.3 12.4 7.9 11.25 8.75 8.45
M 7.7 8.95
L 7.25 10.2
Q 7.95 11.8 7.55 13.45 7.65 13.45 7.05 13.95 6.4 14.2 5.75 14.6 5.15 15 3.7 15.45 2.3 15.9 1.7 16.35 1 16.75 0.45 16 -0.15 15.3 0.4 14.15 0.85 13.5 3.2 12.85 6.15 12.1 2.6 11.5 -0.9 10.95 -2.35 11.85 -3 12.2 -3.4 12.2 -5.15 14.15 -5.25 15.05 -5.25 16.05 -5.85 16.65 -6.4 17.25 -7.45 17.9 -8.35 18.5 -7.8 15.45 -7.5 13.15 -6.3 11.45 -5.4 10.1 -3.85 9.2 -3.55 8.8 -3.1 8.5 -3.05 8.5 -3 8.4 -2 7.75 0 7.8 2.2 7.95 2.75 7.85 4.3 7.8 5.8 7.8 7.5 7.95 7.4 8 7.55 8.05 7.7 8.95 Z"/>

<path fill="#FF0000" stroke="none" d="
M 7.25 10.2
L 7.7 8.95
Q 7.55 8.05 7.4 8 7.5 7.95 5.8 7.8 4.3 7.8 2.75 7.85 2.2 7.95 0 7.8 -2 7.75 -3 8.4 -3.05 8.5 -3.1 8.5 -3.55 8.8 -3.85 9.2 -5.4 10.1 -6.3 11.45 -7.5 13.15 -7.8 15.45 -8.35 18.5 -7.45 17.9 -6.4 17.25 -5.85 16.65 -5.25 16.05 -5.25 15.05 -5.15 14.15 -3.4 12.2 -3 12.2 -2.35 11.85 -0.9 10.95 2.6 11.5 6.15 12.1 3.2 12.85 0.85 13.5 0.4 14.15 -0.15 15.3 0.45 16 1 16.75 1.7 16.35 2.3 15.9 3.7 15.45 5.15 15 5.75 14.6 6.4 14.2 7.05 13.95 7.65 13.45 7.55 13.45 7.95 11.8 7.25 10.2 Z"/>
</g>

<g id="arm_suit_copy_5_0_Layer0_0_FILL">
<path fill="#FF0000" stroke="none" d="
M 21.9 -4.55
Q 19.4 -2.7 18.55 -2.05 15.5 0.35 12.55 3.05 10.9 4.3 11.15 5.4
L 11.25 12.35
Q 17.5 8.95 21.45 7.05 22 6.75 22.55 6.45 28.95 3.3 35.3 -0.2 44.05 -5.15 52.55 -10.65 61.35 -16.65 56.05 -23.25 33.85 -13.6 33.95 -13.25 25.9 -7.4 21.9 -4.55
M 35.55 -6.8
L 36.35 -4.95 35.55 -6.8 32.25 -5.55 35.55 -6.8 34.45 -9.35 35.55 -6.8 39.6 -8.4 38.65 -12 39.6 -8.4 43.55 -9.95 39.6 -8.4 40.1 -6.85 39.6 -8.4 35.55 -6.8 Z"/>
</g>

<g id="arm_suit_copy_3_0_Layer1_0_FILL">
<path fill="#000000" stroke="none" d="
M 8.6 -3.45
Q 7.65 -4.1 7.35 -4.25 7.05 -4.5 5.8 -4.7 4.5 -4.9 0.75 -3.6 -2.95 -2.3 -3.45 -1.65 -3.95 -1.05 -4.5 -0.5 -4.55 -0.25 -4.6 -0.15 -4.75 0.05 -4.9 0.25 -6.6 2.65 -6.75 2.9
L -6.45 8.05
Q -6.45 8.95 -6.5 9.6 -6.5 10.1 -6.3 11 -6.15 11.85 -5.4 11.85 -4.75 11.9 -2.95 9.9 -2.2 9.3 -2.05 8.75 -1.75 8.25 -1.95 7.1 -2.05 5.85 -0.85 4.15
L -0.1 4.05
Q 0.65 3.35 1.45 3.35
L 0.95 4.55
Q 0.35 5.7 1.4 6.7 1.8 6.95 2.85 7 3.95 7.05 5.3 6.1 6.6 5.1 6.85 4.85 7.6 4.05 8.2 3.8 8.75 3.5 10.25 1.15
L 10.8 0.3
Q 10.03984375 1.3892578125 9.2 0.5 8.45 -0.5 8.6 -3.45
M 7.7 -2.7
L 7.6 -1.35
Q 8.7 0 8.75 1.7 8.85 1.7 8.35 2.3 7.8 2.75 7.3 3.3 6.8 3.8 5.5 4.65 4.3 5.4 3.8 6.05 3.25 6.55 2.5 6 1.7 5.4 2.05 3.9
L 2 4.25
Q 2.25 3.5 4.4 2.25 7 0.75 3.45 1.1 -0.05 1.5 -1.25 2.75 -1.8 3.25 -2.2 3.35 -3.4 5.7 -3.2 6.55 -2.95 7.55 -3.4 8.25 -3.8 9 -4.6 9.9 -5.35 10.7 -5.6 7.6 -5.9 5.3 -5.2 3.35 -4.65 1.8 -3.4 0.55 -3.2 0.1 -2.85 -0.3 -2.8 -0.3 -2.75 -0.45 -2 -1.3 0 -1.8 2.1 -2.25 2.65 -2.45 4.1 -2.9 5.55 -3.25 7.25 -3.6 7.2 -3.55 7.35 -3.55 7.7 -2.7 Z"/>

<path fill="#FF0000" stroke="none" d="
M 7.6 -1.35
L 7.7 -2.7
Q 7.35 -3.55 7.2 -3.55 7.25 -3.6 5.55 -3.25 4.1 -2.9 2.65 -2.45 2.1 -2.25 0 -1.8 -2 -1.3 -2.75 -0.45 -2.8 -0.3 -2.85 -0.3 -3.2 0.1 -3.4 0.55 -4.65 1.8 -5.2 3.35 -5.9 5.3 -5.6 7.6 -5.35 10.7 -4.6 9.9 -3.8 9 -3.4 8.25 -2.95 7.55 -3.2 6.55 -3.4 5.7 -2.2 3.35 -1.8 3.25 -1.25 2.75 -0.05 1.5 3.45 1.1 7 0.75 4.4 2.25 2.25 3.5 2 4.25
L 2.05 3.9
Q 1.7 5.4 2.5 6 3.25 6.55 3.8 6.05 4.3 5.4 5.5 4.65 6.8 3.8 7.3 3.3 7.8 2.75 8.35 2.3 8.85 1.7 8.75 1.7 8.7 0 7.6 -1.35 Z"/>
</g>

<g id="arm_suit_copy_3_0_Layer0_0_FILL">
<path fill="#FF0000" stroke="none" d="
M 10.15 -7
L 12 -0.3
Q 17.15 -5.2 20.5 -8.1 20.95 -8.5 21.4 -8.9 26.8 -13.6 31.95 -18.65 39.15 -25.7 45.95 -33.2 52.9 -41.25 42.9 -46.8 27.1 -31.2 27.3 -30.9 21.05 -23.2 17.95 -19.4 16 -16.95 15.35 -16.1 13.05 -13 10.85 -9.65 9.6 -8 10.15 -7
M 28.8 -27.3
L 30.5 -25.1 34.05 -27.7 32.2 -30.9 34.05 -27.7 37.45 -30.2 34.05 -27.7 34.9 -26.3 34.05 -27.7 30.5 -25.1 31.75 -23.5 30.5 -25.1 27.7 -23.05 30.5 -25.1 28.8 -27.3 Z"/>
</g>

<g id="Duplicate_Items_Folder_body_suit_copy_18_0_Layer1_0_FILL">
<path fill="#000000" stroke="none" d="
M 10 -7.7
Q 25.2767578125 -14.359375 29.35 -53.4 -11.2583984375 -45.9328125 -31.35 -55.3 -29.1685546875 -15.6291015625 -11.2 -8.15
L -11.55 0.7
Q -33.7 11.75 -24.8 45.25
L -39.35 83.6
Q -10.7123046875 97.621875 26 87
L 18 49.65
Q 33.2 19.5 9.25 0.55
L 10 -7.7 Z"/>
</g>

<g id="Duplicate_Items_Folder_body_suit_copy_18_0_Layer0_0_FILL">
<path fill="#92A4CB" stroke="none" d="
M 18.95 16.9
L 18 16.95 18.95 16.95 18.95 16.9 Z"/>

<path fill="#7086BA" stroke="none" d="
M -23.6 21.3
Q -23.7 22.25 -23.8 23.15
L -23.65 23.15 -23.6 21.3
M -7.65 13.8
L -8 13.85 -7.65 13.85 -7.65 13.8 Z"/>

<path fill="#D2CFC7" stroke="none" d="
M -1.15 -11.4
Q -0.95 -11.4 -0.7 -11.35 -0.66328125 -12.5640625 -0.45 -12.7 -1.0623046875 -12.80234375 -1.15 -11.4 Z"/>

<path fill="#000000" stroke="none" d="
M -1.15 -11.05
Q -1.2 -10.7 -1.15 -10.35 -1.2 -8.95 -1.1 -7.45 -0.85 -8.9 -0.75 -10.3 -0.75 -10.4 -0.75 -10.5 -0.75 -10.95 -0.7 -11.35 -0.95 -11.4 -1.15 -11.4 -1.15 -11.2 -1.15 -11.05 Z"/>

<path fill="#FF0000" stroke="none" d="
M 17.5 -35.45
Q 12.15 -39.2 5.3 -40 -1.5 -40.8 -9.2 -40.25 -16.85 -39.7 -19.2 -37.45 -18.35 -37.6 -19.7 -36.5 -16.87734375 -23.2892578125 -9.45 -17.35 -2.02421875 -11.4197265625 -1.15 -11.4 -1.0623046875 -12.80234375 -0.45 -12.7 -0.66328125 -12.5640625 -0.7 -11.35 -0.15 -11.35 0.5 -11.4 15.24140625 -18.1080078125 18.05 -35.35 16.6 -36.15 17.5 -35.45
M -0.25 -12.6
Q -1.75 -24.3 -10.15 -29.4 -1.75 -24.3 -0.25 -12.6 0.7 -24.9 9.5 -28.95 0.7 -24.9 -0.25 -12.6 Z"/>
</g>

<g id="Duplicate_Items_Folder_head_copy_34_7_Layer11_0_FILL">
<path fill="#FF0000" stroke="none" d="
M -18.55 34.95
L 4.55 36.05
Q -1.4 11.7 1.9 -8.7
L -13.15 -8.8
Q -10.75 12.15 -18.55 34.95 Z"/>
</g>

<g id="Duplicate_Items_Folder_head_copy_34_7_Layer10_0_FILL">
<path fill="#000000" stroke="none" d="
M -59.25 -17.9
Q -58 -13 -57.15 -9.65 -56.85 -8.9 -56.65 -8.3 -55.55 -5.75 -55.3 -3.35 -55.1 -2 -55.25 -1.1 -54.85 3.15 -57.2 6.2 -57.65 6.85 -58.2 7.45 -54 6.6 -51.6 4.65 -47.95 1.7 -49.85 -3.25 -50.15 -4.15 -56.9 -17.75 -60.25 -24.55 -61.4 -28.6 -60.8 -24.4 -59.25 -17.9
M -67.7 -13.8
Q -67.5 -15.75 -67.3 -17.55 -68.5 -21.75 -68.45 -21.75 -68.9 -18.8 -69.25 -14.75 -70.1 -6.55 -69.4 -3.65 -69.1615234375 -2.6001953125 -68.6 -1.45 -68.6310546875 -1.50703125 -68.6 -1.6 -68.9 -4.8 -67.7 -13.8
M -64.35 -58.35
Q -63.55 -60.85 -61.95 -63.9 -66.75 -59.05 -68.3 -55.35 -70.25 -52.6 -71.3 -45.25 -72.5 -37.2 -70.55 -33.5 -67.15 -28 -63.25 -21.1 -65.4 -28.4 -67.35 -34.15 -68.4 -38.1 -67.1 -47.05 -65.85 -55.2 -64.35 -58.35 Z"/>

<path fill="#202020" stroke="none" d="
M -67.3 -17.55
Q -67.5 -15.75 -67.7 -13.8 -68.9 -4.8 -68.6 -1.6 -68.6310546875 -1.50703125 -68.6 -1.45 -68.5880859375 -1.35703125 -68.55 -1.3
L -68.55 -1.25
Q -67.4 1.3 -65.1 3.9 -61.35 8.1 -58.5 7.5 -58.3 7.5 -58.2 7.45 -57.65 6.85 -57.2 6.2 -54.85 3.15 -55.25 -1.1 -55.65 1.7 -57.3 2.75 -58.95 3.85 -61.35 3.05 -63.8 2.2 -65.45 -2.85 -67.15 -7.9 -66.9 -11.55 -66.65 -15.2 -67.3 -17.55
M -61.95 -63.9
Q -63.55 -60.85 -64.35 -58.35 -65.85 -55.2 -67.1 -47.05 -68.4 -38.1 -67.35 -34.15 -65.4 -28.4 -63.25 -21.1 -63.05 -20.9 -62.9 -20.65 -58.65 -13.1 -57.15 -9.65 -58 -13 -59.25 -17.9 -60.8 -24.4 -61.4 -28.6 -62 -30.7 -62.05 -32.1 -62.15 -34.6 -61.05 -37.8 -60.3 -40.25 -58.85 -43.1 -57 -46.7 -53.75 -52.7 -52.35 -55.7 -54 -61.7 -54.1 -62.05 -54.2 -62.5 -55.9 -68.3 -56.7 -68.75 -58.95 -66.85 -61.5 -64.3 -61.75 -64.15 -61.95 -63.9 Z"/>
</g>

<g id="Duplicate_Items_Folder_head_copy_34_7_Layer9_0_FILL">
<path fill="#D7FFFF" stroke="none" d="
M 50.75 -171.1
Q 42.2 -187.5 23.2 -191.85 -12.45 -198.4 -35.4 -190.95 -51.95 -184.1 -62.85 -171.7 -78.75 -147.6 -57.95 -128.05 -56.7 -128.15 -55.65 -128.8 -36.05 -186.9 50.75 -171.1 Z"/>

<path fill="#101010" stroke="none" d="
M 23.2 -191.85
Q 21.25 -192.3 19.2 -192.65 -2.9 -196.05 -24.35 -195.1 -40.1 -194.5 -51.6 -187.45 -65.4 -178.9 -72.35 -161.35 -77.65 -151.4 -75.8 -143.45 -75.65 -137.7 -69.05 -131.45 -62.45 -125.25 -57.95 -128.05 -78.75 -147.6 -62.85 -171.7 -51.95 -184.1 -35.4 -190.95 -12.45 -198.4 23.2 -191.85 Z"/>

<path fill="#000000" stroke="none" d="
M 53.25 -168.75
L 50.75 -171.1
Q -36.05 -186.9 -55.65 -128.8 -54.6 -128.55 -53.45 -128.25 -54.6 -128.55 -55.65 -128.8 -56.7 -128.15 -57.95 -128.05
L -57.85 -127.3 -57.95 -128.05
Q -62.45 -125.25 -69.05 -131.45 -75.65 -137.7 -75.8 -143.45 -78.45 -138.1 -80.95 -130.9 -86.05 -116.3 -85.75 -106.95 -85.55 -98.15 -82.1 -90.7 -78.7 -83.3 -75.2 -77.9 -71.7 -72.55 -70.5 -65.9 -69.35 -59.25 -64.1 -56.9 -61.5 -55.7 -59.15 -55.6 -60.8 -54.3 -58.7 -52.6 -56.65 -50.95 -49.35 -45.95 -42.05 -40.95 -39.85 -32.9 -37.7 -24.9 -27.1 -21.1 -16.5 -17.4 -10.2 -9.05 -4.75 -1.75 -4.55 -1.2 -3.4 -1.55 27.1 -7.9 31.55 -8.8 39.75 -18.9 44.15 -24.2 50.45 -32.3 54.8 -36.65 58.25 -42.9 62.45 -50.55 62 -55.85 61.35 -63.6 63.95 -77.25 67.1 -93.9 73.1 -103.95 79.3 -114.45 73.75 -136.45 68.25 -158.55 53.25 -168.75 Z"/>
</g>

<g id="Duplicate_Items_Folder_head_copy_34_7_Layer8_0_FILL">
<path fill="#CC0000" stroke="none" d="
M 16.5 -20.2
Q 21.5 -18.25 26.35 -14.6 34.85 -28.95 34.15 -37.05 33.1 -47.15 34.4 -47.9 34.5 -48.85 34.6 -49.65 27 -27.35 16.5 -20.2 Z"/>

<path fill="#FF0000" stroke="none" d="
M 34.25 -63.45
Q 31.85 -70.3 21.5 -82.95 10.35 -96.6 -0.9 -103.1 -10.85 -108.95 -27.75 -105.3 -44.65 -101.7 -52.15 -100.6 -59.65 -99.55 -60.9 -90.1 -62.75 -85.8 -63.8 -74.5 -64.85 -63.2 -63.95 -58.8 -63.05 -54.4 -62.9 -54.15 -61.2 -50.75 -56.75 -47.2 -54.35 -45.3 -52.15 -44.1 -54.05 -44 -56.85 -42.75 -59.65 -41.55 -58.25 -35.3 -56.85 -29.15 -54.7 -24.7 -52.6 -20.3 -48.65 -16.85
L -48.15 -16.55
Q -48.025 -16.475 -47.9 -16.4 -47.8587890625 -16.3826171875 -47.85 -16.35 -47.749609375 -16.31328125 -47.7 -16.3 -43.487109375 -14.010546875 -40.5 -14.7 -43.487109375 -14.010546875 -47.7 -16.3 -45.6177734375 -15.03984375 -39.55 -6.15 -32.55 4.15 -31.4 6.2 -30.25 8.2 -24.85 12.8 -19.45 17.4 -13.25 16.15 -9.65 16.55 -0.15 12.15 9.15 7.8 12.55 4.35 18.45 -1.7 25.4 -13.05 25.9 -13.85 26.35 -14.6 21.5 -18.25 16.5 -20.2 27 -27.35 34.6 -49.65 35 -52.3 35.75 -54.15 36.65 -56.55 34.25 -63.45
M -39.9 -71.95
Q -35.65 -70 -32.55 -67.85 -27.7 -69.9 -19.75 -70.5 -11.85 -71.05 -7.6 -67.35 -3.4 -63.75 -5.7 -62.9 -8.05 -62.1 -15.7 -52.15 -23.4 -42.15 -26.8 -49.05 -30.25 -56.05 -34.5 -56.8 -38.75 -57.6 -42.4 -62.45 -46.1 -67.35 -39.55 -67.55 -32.95 -67.7 -32.55 -67.85 -35.65 -70 -39.9 -71.95
M -48.75 -80.4
L -45.6 -82.25 -48.75 -80.4
Q -46.3 -76.1 -41.25 -72.65
L -38.15 -76.3 -41.25 -72.65
Q -40.7 -72.3 -40.2 -71.95 -40.7 -72.3 -41.25 -72.65
L -43.7 -69.75 -41.25 -72.65
Q -46.3 -76.1 -48.75 -80.4
L -52.3 -78.3 -48.75 -80.4
Q -50.95 -84.15 -51.25 -88.6 -50.95 -84.15 -48.75 -80.4
M -8.45 6.05
Q -6.25 7.35 -6.3 9.05 -6.3 10.65 -8.15 10.15 -10.1 9.55 -13.35 9.2 -16.6 8.85 -19.25 9.35 -21.85 9.8 -21.85 8.15 -21.85 6.55 -19.55 5.45 -17.25 4.4 -14 4.55 -10.65 4.75 -8.45 6.05 Z"/>

<path fill="#FF7272" stroke="none" d="
M -6.3 9.05
Q -6.25 7.35 -8.45 6.05 -10.65 4.75 -14 4.55 -17.25 4.4 -19.55 5.45 -21.85 6.55 -21.85 8.15 -21.85 9.8 -19.25 9.35 -16.6 8.85 -13.35 9.2 -10.1 9.55 -8.15 10.15 -6.3 10.65 -6.3 9.05
M -5.7 -62.9
Q -3.4 -63.75 -7.6 -67.35 -11.85 -71.05 -19.75 -70.5 -27.7 -69.9 -32.55 -67.85 -32.95 -67.7 -39.55 -67.55 -46.1 -67.35 -42.4 -62.45 -38.75 -57.6 -34.5 -56.8 -30.25 -56.05 -26.8 -49.05 -23.4 -42.15 -15.7 -52.15 -8.05 -62.1 -5.7 -62.9 Z"/>
</g>

<g id="Duplicate_Items_Folder_head_copy_34_7_Layer7_0_FILL">
<path fill="#000000" stroke="none" d="
M -30.05 -51.75
Q -29.25 -55.15 -32.75 -57.6 -46.75 -64.55 -64.7 -62.7 -45.3 -60.55 -30.05 -51.75
M -12.8 -59.55
Q -15.85 -56.5 -14.45 -53.25 -0.95 -64.55 17.85 -69.9 -0.2 -68.7 -12.8 -59.55 Z"/>
</g>

<g id="Duplicate_Items_Folder_head_copy_34_7_Layer5_0_FILL">
<path fill="#D7FFFF" stroke="none" d="
M -23.45 -7.6
Q -25.3 -5.15 -25.25 -4 -15.15 -7.75 -5 -5.15
L -4.95 -5.15 -4.9 -5.15
Q -4.7 -5.15 -4.9 -5.25
L -4.9 -5.3
Q -5 -5.5 -5.65 -6.15 -6.55 -6.7 -8.3 -8.55 -10.1 -10.4 -12.3 -10.3 -14.5 -10.4 -15.65 -7.6 -17.15 -9.7 -18.25 -10.25 -18.85 -10.4 -19 -10.45 -19.35 -10.45 -19.95 -10.35 -21.6 -10.05 -23.45 -7.6
M -25.25 -3.75
Q -24.9 -2.55 -22.95 -0.3 -21 2 -20.2 2.1 -19.5 2.15 -18.8 2.25 -18.1 2.35 -12.85 2.4 -7.65 2.45 -6.65 -0.5 -5.6 -3.55 -4.95 -5.15
L -5 -5.15
Q -15.15 -7.75 -25.25 -4 -25.1 -3.7 -24.95 -3.4 -25.1 -3.65 -25.25 -3.75 Z"/>
</g>

<g id="Duplicate_Items_Folder_head_copy_34_7_Layer4_0_FILL">
<path fill="#000000" stroke="none" d="
M -17.7 -23.25
Q -18.7 -23.3 -17.75 -22.5 -16.8 -21.7 -18 -20.65 -19.3 -19.6 -19.05 -18.2 -18.8 -16.85 -17.75 -17.1 -16.75 -17.4 -15.95 -17.5 -15.25 -17.7 -15.2 -19.6 -15.2 -21.65 -15.95 -22.4 -16.65 -23.15 -17.7 -23.25
M -17.5 -25.65
Q -18.35 -26.3 -20 -26.4 -21.65 -26.65 -22.6 -25.15 -23.55 -23.65 -24 -21.3 -24.5 -18.95 -23.3 -18.7 -22 -18.5 -20.8 -17.5 -19.75 -16.5 -20.8 -19.7 -21.85 -22.9 -19.25 -23.95 -16.65 -25.1 -17.5 -25.65 Z"/>
</g>

<g id="Duplicate_Items_Folder_eye_blink_copy_7_14_Layer1_0_FILL">
<path fill="#000000" stroke="none" d="
M 118.1 11.6
Q 119.6 9.75 120.75 6.9 119.85 7.45 118.05 8.6 116.2 9.8 115.25 10.45 116.7 9.35 118.25 2.35 119.85 -4.85 119.45 -4.9 118.6 -1.9 115.6 3.85 112.5 9.55 110.9 11.2 109.25 12.8 97.05 12.8 83.75 12.8 79.75 14.4 74.3 16.55 70.4 25.9 67.3 34.95 66.5 35.4 80.95 41 93 37.4 99.75 35.35 106.55 29.5 109.85 26.6 112.35 22.05 113.55 19.9 114.7 15.9 114.8 15.75 114.85 15.6 115.65 14.8 118.1 11.6
M 112.05 14.2
Q 112.1 19.9 108.35 24.7 105.15 28.8 97.25 32.8 89.35 36.8 81.8 36.3 74.2 35.7 71.85 34.75 69.5 33.75 70.15 33.2 70.15 32.4 72.05 28.2 74.4 23.05 76.65 21.15 78.55 18.8 82.1 17.6 85.6 16.5 91.5 16.2 96.5 16.15 104.5 15.35 111.75 14.55 112.05 14.2 Z"/>

<path fill="url(#Gradient_1)" stroke="none" d="
M 108.35 24.7
Q 112.1 19.9 112.05 14.2 111.75 14.55 104.5 15.35 96.5 16.15 91.5 16.2 85.6 16.5 82.1 17.6 78.55 18.8 76.65 21.15 74.4 23.05 72.05 28.2 70.15 32.4 70.15 33.2 69.5 33.75 71.85 34.75 74.2 35.7 81.8 36.3 89.35 36.8 97.25 32.8 105.15 28.8 108.35 24.7 Z"/>
</g>

<g id="Duplicate_Items_Folder_head_copy_34_7_Layer2_0_FILL">
<path fill="#202020" stroke="none" d="
M 33.35 -60.35
Q 32.6 -60.15 30.85 -55.55 30.75 -55.15 30.65 -54.9 28.9 -50 29.85 -47.15 32.15 -41.2 33.5 -37.7 34.6 -34.85 35.1 -32.65 35.75 -29.55 35.55 -27.5 35.45 -26.3 34.75 -24.6 33.55 -21.35 30.3 -16.2 23.85 -5.95 23.45 -5.2 21.65 -1.4 24.5 1.95 26.4 4.2 29.85 5.9 29.95 5.9 30.05 5.95 32.45 7.15 35.85 4.4 37.7 2.9 38.75 1.2 36.55 2.4 34.6 2.6 30.75 2.95 29.4 1.65 28.05 0.35 27.95 -2.25 27.85 -3 28.1 -4.2 28.45 -6.2 29.5 -8.15 29.75 -8.55 30 -9.15 31.5 -11.8 35.55 -17.35 35.7 -17.5 35.75 -17.7 39.55 -22.75 42.75 -26.75 44.6 -29.55 44.15 -36.7 43.7 -43.3 42.2 -46.15 41.15 -49.7 37.35 -54.95 37.25 -55.25 37.05 -55.4 35.1 -58.25 33.35 -60.35 Z"/>
</g>

<g id="Duplicate_Items_Folder_head_copy_34_7_Layer1_0_FILL">
<path fill="#D7FFFF" stroke="none" d="
M 16.5 -73
Q 19.2 -66.4 24.5 -61.8
L 29.85 -57.6
Q 45.3 -46.5 41.45 -51.65 37.55 -56.75 36.55 -66.4 34.7 -85.6 27.15 -93.55 20.55 -100.75 -2.6 -108.05 -10.3 -116.6 -15.65 -117.9 -21.05 -119.2 -31.65 -120.05 -35.15 -122.95 -41.05 -126.35 -52.9 -133.05 -58.95 -123.65 -65.8 -100.15 -51.3 -89 -36.85 -77.9 -36.1 -82.2 -35.45 -86.5 -35.65 -87.95 -42.45 -97.05 -43.45 -105.85 -42.45 -97.05 -35.65 -87.95 -35.65 -88.1 -35.65 -88.25 -34.1 -86.45 -28.7 -82 -23.3 -77.6 -21.55 -78.1 -19.85 -78.7 -20.1 -82.8 -26.45 -88 -28.15 -92.85 -26.45 -88 -20.1 -82.8 -10.5 -75 -2.05 -70.7 6.45 -66.45 12.45 -64.15 18.5 -61.85 24.5 -61.8 19.2 -66.4 16.5 -73 Z"/>
</g>

<g id="Duplicate_Items_Folder_head_copy_34_7_Layer0_0_FILL">
<path fill="#202020" stroke="none" d="
M 29.2 -131.95
Q 22.9 -135.25 14.05 -138.5 -3.55 -145.05 -16.2 -145.65 -28.6 -146.2 -36.75 -141.2 -39.3 -139.6 -41.1 -137.7
L -42.4 -136.05
Q -32.4 -140.35 -1.3 -129.3 29.8 -118.2 44.15 -108.05 35.4 -114.9 24.45 -123.8 13.5 -132.7 -5.8 -134.95 0.55 -138.9 29.2 -131.95 Z"/>
</g>

<path id="arm_suit_copy_5_0_Layer0_0_1_STROKES" stroke="#000000" stroke-width="1.5" stroke-linejoin="round" stroke-linecap="round" fill="none" d="
M 40.1 -6.85
L 39.6 -8.4 35.55 -6.8 36.35 -4.95
M 34.45 -9.35
L 35.55 -6.8 32.25 -5.55
M 38.65 -12
L 39.6 -8.4 43.55 -9.95
M 56.05 -23.25
Q 33.85 -13.6 33.95 -13.25 25.9 -7.4 21.9 -4.55 19.4 -2.7 18.55 -2.05 15.5 0.35 12.55 3.05 10.9 4.3 11.15 5.4
L 11.25 12.35
Q 17.5 8.95 21.45 7.05 22 6.75 22.55 6.45 28.95 3.3 35.3 -0.2 44.05 -5.15 52.55 -10.65
M 22.55 6.45
L 22.9 6.6"/>

<path id="arm_suit_copy_3_0_Layer0_0_1_STROKES" stroke="#000000" stroke-width="1.5" stroke-linejoin="round" stroke-linecap="round" fill="none" d="
M 28.8 -27.3
L 30.5 -25.1 34.05 -27.7 32.2 -30.9
M 37.45 -30.2
L 34.05 -27.7 34.9 -26.3
M 42.9 -46.8
Q 27.1 -31.2 27.3 -30.9 21.05 -23.2 17.95 -19.4 16 -16.95 15.35 -16.1 13.05 -13 10.85 -9.65 9.6 -8 10.15 -7
L 12 -0.3
Q 17.15 -5.2 20.5 -8.1 20.95 -8.5 21.4 -8.9 26.8 -13.6 31.95 -18.65 39.15 -25.7 45.95 -33.2
M 21.4 -8.9
L 21.8 -8.85
M 31.75 -23.5
L 30.5 -25.1 27.7 -23.05"/>

<path id="Duplicate_Items_Folder_body_suit_copy_18_0_Layer0_0_1_STROKES" stroke="#CC0000" stroke-width="3" stroke-linejoin="round" stroke-linecap="round" fill="none" d="
M 9.5 -28.95
Q 0.7 -24.9 -0.25 -12.6 -1.75 -24.3 -10.15 -29.4"/>

<path id="Duplicate_Items_Folder_head_copy_34_7_Layer11_0_1_STROKES" stroke="#000000" stroke-width="2" stroke-linejoin="round" stroke-linecap="round" fill="none" d="
M -18.55 34.95
Q -10.75 12.15 -13.15 -8.8
L 1.9 -8.7
Q -1.4 11.7 4.55 36.05"/>

<path id="Duplicate_Items_Folder_head_copy_34_7_Layer10_0_1_STROKES" stroke="#000000" stroke-width="2" stroke-linejoin="round" stroke-linecap="round" fill="none" d="
M -63.25 -21.1
Q -63.05 -20.9 -62.9 -20.65 -58.65 -13.1 -57.15 -9.65
M -61.4 -28.6
Q -62 -30.7 -62.05 -32.1 -62.15 -34.6 -61.05 -37.8 -60.3 -40.25 -58.85 -43.1 -57 -46.7 -53.75 -52.7 -52.35 -55.7 -54 -61.7 -54.1 -62.05 -54.2 -62.5 -55.9 -68.3 -56.7 -68.75 -58.95 -66.85 -61.5 -64.3 -61.75 -64.15 -61.95 -63.9 -66.75 -59.05 -68.3 -55.35 -70.25 -52.6 -71.3 -45.25 -72.5 -37.2 -70.55 -33.5 -67.15 -28 -63.25 -21.1
M -68.6 -1.425
Q -68.5880859375 -1.35703125 -68.55 -1.3
L -68.55 -1.25
Q -67.4 1.3 -65.1 3.9 -61.35 8.1 -58.5 7.5 -58.3 7.5 -58.2 7.45
M -55.25 -1.1
Q -55.65 1.7 -57.3 2.75 -58.95 3.85 -61.35 3.05 -63.8 2.2 -65.45 -2.85 -67.15 -7.9 -66.9 -11.55 -66.65 -15.2 -67.3 -17.55 -68.5 -21.75 -68.45 -21.75 -68.9 -18.8 -69.25 -14.75 -70.1 -6.55 -69.4 -3.65 -69.1615234375 -2.6001953125 -68.6 -1.425
M -58.2 7.45
Q -54 6.6 -51.6 4.65 -47.95 1.7 -49.85 -3.25 -50.15 -4.15 -56.9 -17.75 -60.25 -24.55 -61.4 -28.6
M -57.15 -9.65
Q -56.85 -8.9 -56.65 -8.3 -55.55 -5.75 -55.3 -3.35 -55.1 -2 -55.25 -1.1"/>

<path id="Duplicate_Items_Folder_head_copy_34_7_Layer9_0_1_STROKES" stroke="#000000" stroke-width="2" stroke-linejoin="round" stroke-linecap="round" fill="none" d="
M 50.75 -171.1
L 53.25 -168.75
Q 68.25 -158.55 73.75 -136.45 79.3 -114.45 73.1 -103.95 67.1 -93.9 63.95 -77.25 61.35 -63.6 62 -55.85 62.45 -50.55 58.25 -42.9 54.8 -36.65 50.45 -32.3 44.15 -24.2 39.75 -18.9 31.55 -8.8 27.1 -7.9 -3.4 -1.55 -4.55 -1.2 -4.75 -1.75 -10.2 -9.05 -16.5 -17.4 -27.1 -21.1 -37.7 -24.9 -39.85 -32.9 -42.05 -40.95 -49.35 -45.95 -56.65 -50.95 -58.7 -52.6 -60.8 -54.3 -59.15 -55.6 -61.5 -55.7 -64.1 -56.9 -69.35 -59.25 -70.5 -65.9 -71.7 -72.55 -75.2 -77.9 -78.7 -83.3 -82.1 -90.7 -85.55 -98.15 -85.75 -106.95 -86.05 -116.3 -80.95 -130.9 -78.45 -138.1 -75.8 -143.45 -77.65 -151.4 -72.35 -161.35 -65.4 -178.9 -51.6 -187.45 -40.1 -194.5 -24.35 -195.1 -2.9 -196.05 19.2 -192.65 21.25 -192.3 23.2 -191.85 42.2 -187.5 50.75 -171.1 -36.05 -186.9 -55.65 -128.8 -54.6 -128.55 -53.45 -128.25
M -55.65 -128.8
Q -56.7 -128.15 -57.95 -128.05
L -57.85 -127.3
M -57.95 -128.05
Q -62.45 -125.25 -69.05 -131.45 -75.65 -137.7 -75.8 -143.45
M -57.95 -128.05
Q -78.75 -147.6 -62.85 -171.7 -51.95 -184.1 -35.4 -190.95 -12.45 -198.4 23.2 -191.85"/>

<path id="Duplicate_Items_Folder_head_copy_34_7_Layer8_0_1_STROKES" stroke="#000000" stroke-width="2" stroke-linejoin="round" stroke-linecap="round" fill="none" d="
M 34.6 -49.65
Q 35 -52.3 35.75 -54.15 36.65 -56.55 34.25 -63.45 31.85 -70.3 21.5 -82.95 10.35 -96.6 -0.9 -103.1 -10.85 -108.95 -27.75 -105.3 -44.65 -101.7 -52.15 -100.6 -59.65 -99.55 -60.9 -90.1 -62.75 -85.8 -63.8 -74.5 -64.85 -63.2 -63.95 -58.8 -63.05 -54.4 -62.9 -54.15 -61.2 -50.75 -56.75 -47.2 -54.35 -45.3 -52.15 -44.1 -54.05 -44 -56.85 -42.75 -59.65 -41.55 -58.25 -35.3 -56.85 -29.15 -54.7 -24.7 -52.6 -20.3 -48.65 -16.85
L -48.15 -16.55
Q -48.025 -16.475 -47.9 -16.4 -47.8587890625 -16.3826171875 -47.825 -16.35 -47.749609375 -16.31328125 -47.675 -16.275 -43.487109375 -14.010546875 -40.5 -14.7
M 26.35 -14.6
Q 34.85 -28.95 34.15 -37.05 33.1 -47.15 34.4 -47.9 34.5 -48.85 34.6 -49.65
M -47.675 -16.275
Q -45.6177734375 -15.03984375 -39.55 -6.15 -32.55 4.15 -31.4 6.2 -30.25 8.2 -24.85 12.8 -19.45 17.4 -13.25 16.15 -9.65 16.55 -0.15 12.15 9.15 7.8 12.55 4.35 18.45 -1.7 25.4 -13.05 25.9 -13.85 26.35 -14.6
M -39.9 -71.95
Q -35.65 -70 -32.55 -67.85
M -51.25 -88.6
Q -50.95 -84.15 -48.75 -80.4
L -45.6 -82.25
M -52.3 -78.3
L -48.75 -80.4
Q -46.3 -76.1 -41.25 -72.65
L -38.15 -76.3
M -40.2 -71.95
Q -40.7 -72.3 -41.25 -72.65
L -43.7 -69.75"/>

<path id="Duplicate_Items_Folder_head_copy_34_7_Layer6_0_1_STROKES" stroke="#000000" stroke-width="2" stroke-linejoin="round" stroke-linecap="round" fill="none" d="
M 18.05 -9.85
Q 13.5 -9.85 9.3 -9.2
L 10.95 -5.95
M 2.85 -11.25
L 3 -6.35
Q 5.95 -8.65 9.3 -9.2
L 6.8 -14.2
M 3.6 -3.2
L 3 -6.35
Q -13.35 -3.5 -28.7 -6.4
L -29.5 -2.95
M -36.05 -10
L -38.5 -5.3
Q -32.8 -6.5 -28.7 -6.4
L -30.25 -9.6
M -37.45 -3.5
L -38.5 -5.3"/>

<path id="Duplicate_Items_Folder_head_copy_34_7_Layer5_0_1_STROKES" stroke="#000000" stroke-width="1" stroke-linejoin="round" stroke-linecap="round" fill="none" d="
M -4.95 -5.15
Q -5.6 -3.55 -6.65 -0.5 -7.65 2.45 -12.85 2.4 -18.1 2.35 -18.8 2.25 -19.5 2.15 -20.2 2.1 -21 2 -22.95 -0.3 -24.9 -2.55 -25.25 -3.75 -25.1 -3.65 -24.95 -3.4 -25.1 -3.7 -25.25 -4 -25.3 -5.15 -23.45 -7.6 -21.6 -10.05 -19.95 -10.35 -19.35 -10.45 -19 -10.45 -18.85 -10.4 -18.25 -10.25 -17.15 -9.7 -15.65 -7.6 -14.5 -10.4 -12.3 -10.3 -10.1 -10.4 -8.3 -8.55 -6.55 -6.7 -5.65 -6.15 -5 -5.5 -4.9 -5.3
L -4.9 -5.25
Q -4.7 -5.15 -4.9 -5.15
L -4.95 -5.15 -5 -5.15
Q -15.15 -7.75 -25.25 -4"/>

<path id="Duplicate_Items_Folder_head_copy_34_7_Layer4_0_1_STROKES" stroke="#000000" stroke-width="2" stroke-linejoin="round" stroke-linecap="round" fill="none" d="
M -30.4 -53.1
L -22.5 -40.4 -22.95 -31.3"/>

<path id="Duplicate_Items_Folder_head_copy_34_7_Layer2_0_1_STROKES" stroke="#000000" stroke-width="2" stroke-linejoin="round" stroke-linecap="round" fill="none" d="
M 33.35 -60.35
Q 35.1 -58.25 37.05 -55.4 37.25 -55.25 37.35 -54.95 41.15 -49.7 42.2 -46.15 43.7 -43.3 44.15 -36.7 44.6 -29.55 42.75 -26.75 39.55 -22.75 35.75 -17.7 35.7 -17.5 35.55 -17.35 31.5 -11.8 30 -9.15 29.75 -8.55 29.5 -8.15 28.45 -6.2 28.1 -4.2 27.85 -3 27.95 -2.25 28.05 0.35 29.4 1.65 30.75 2.95 34.6 2.6 36.55 2.4 38.75 1.2 37.7 2.9 35.85 4.4 32.45 7.15 30.05 5.95 29.95 5.9 29.85 5.9 26.4 4.2 24.5 1.95 21.65 -1.4 23.45 -5.2 23.85 -5.95 30.3 -16.2 33.55 -21.35 34.75 -24.6 35.45 -26.3 35.55 -27.5 35.75 -29.55 35.1 -32.65 34.6 -34.85 33.5 -37.7 32.15 -41.2 29.85 -47.15 28.9 -50 30.65 -54.9 30.75 -55.15 30.85 -55.55 32.6 -60.15 33.35 -60.35 Z"/>

<path id="Duplicate_Items_Folder_head_copy_34_7_Layer1_0_1_STROKES" stroke="#000000" stroke-width="2" stroke-linejoin="round" stroke-linecap="round" fill="none" d="
M 16.5 -73
Q 19.2 -66.4 24.5 -61.8
L 29.85 -57.6
Q 45.3 -46.5 41.45 -51.65 37.55 -56.75 36.55 -66.4 34.7 -85.6 27.15 -93.55 20.55 -100.75 -2.6 -108.05 -10.3 -116.6 -15.65 -117.9 -21.05 -119.2 -31.65 -120.05 -35.15 -122.95 -41.05 -126.35 -52.9 -133.05 -58.95 -123.65 -65.8 -100.15 -51.3 -89 -36.85 -77.9 -36.1 -82.2 -35.45 -86.5 -35.65 -87.95 -42.45 -97.05 -43.45 -105.85
M -20.1 -82.8
Q -10.5 -75 -2.05 -70.7 6.45 -66.45 12.45 -64.15 18.5 -61.85 24.5 -61.8
M -28.15 -92.85
Q -26.45 -88 -20.1 -82.8 -19.85 -78.7 -21.55 -78.1 -23.3 -77.6 -28.7 -82 -34.1 -86.45 -35.65 -88.25 -35.65 -88.1 -35.65 -87.95"/>
</defs>

<g transform="matrix( 4.5453338623046875, 0, 0, 4.5453338623046875, 94.95,528.05) ">
<g transform="matrix( -0.2031097412109375, -0.2498779296875, -0.2498779296875, 0.2031097412109375, 56.85,-25.8) ">
<g transform="matrix( 1, 0, 0, 1, 0,0) ">
<use xlink:href="#arm_suit_copy_5_0_Layer1_0_FILL"/>
</g>

<g transform="matrix( 1, 0, 0, 1, 0,0) ">
<use xlink:href="#arm_suit_copy_5_0_Layer0_0_FILL"/>

<use xlink:href="#arm_suit_copy_5_0_Layer0_0_1_STROKES"/>
</g>
</g>

<g transform="matrix( 0.29205322265625, -0.1602783203125, 0.1697998046875, 0.3094482421875, 27.9,-22.25) ">
<g transform="matrix( 1, 0, 0, 1, 0,0) ">
<use xlink:href="#arm_suit_copy_3_0_Layer1_0_FILL"/>
</g>

<g transform="matrix( 1, 0, 0, 1, 0,0) ">
<use xlink:href="#arm_suit_copy_3_0_Layer0_0_FILL"/>

<use xlink:href="#arm_suit_copy_3_0_Layer0_0_1_STROKES"/>
</g>
</g>

<g transform="matrix( 0.358154296875, -0.014923095703125, 0.0105133056640625, 0.357696533203125, 42.35,-31.15) ">
<g transform="matrix( 1, 0, 0, 1, 0,0) ">
<use xlink:href="#Duplicate_Items_Folder_body_suit_copy_18_0_Layer1_0_FILL"/>
</g>

<g transform="matrix( 1, 0, 0, 1, 0,0) ">
<use xlink:href="#Duplicate_Items_Folder_body_suit_copy_18_0_Layer0_0_FILL"/>

<use xlink:href="#Duplicate_Items_Folder_body_suit_copy_18_0_Layer0_0_1_STROKES"/>
</g>
</g>

<g transform="matrix( 0.2920379638671875, -0.0156402587890625, 0.004180908203125, 0.292205810546875, 43.75,-55.7) ">
<g transform="matrix( 1, 0, 0, 1, 0,0) ">
<use xlink:href="#Duplicate_Items_Folder_head_copy_34_7_Layer11_0_FILL"/>

<use xlink:href="#Duplicate_Items_Folder_head_copy_34_7_Layer11_0_1_STROKES"/>
</g>

<g transform="matrix( 1, 0, 0, 1, 0,0) ">
<use xlink:href="#Duplicate_Items_Folder_head_copy_34_7_Layer10_0_FILL"/>

<use xlink:href="#Duplicate_Items_Folder_head_copy_34_7_Layer10_0_1_STROKES"/>
</g>

<g transform="matrix( 1, 0, 0, 1, 0,0) ">
<use xlink:href="#Duplicate_Items_Folder_head_copy_34_7_Layer9_0_FILL"/>

<use xlink:href="#Duplicate_Items_Folder_head_copy_34_7_Layer9_0_1_STROKES"/>
</g>

<g transform="matrix( 1, 0, 0, 1, 0,0) ">
<use xlink:href="#Duplicate_Items_Folder_head_copy_34_7_Layer8_0_FILL"/>

<use xlink:href="#Duplicate_Items_Folder_head_copy_34_7_Layer8_0_1_STROKES"/>
</g>

<g transform="matrix( 1, 0, 0, 1, 0,0) ">
<use xlink:href="#Duplicate_Items_Folder_head_copy_34_7_Layer7_0_FILL"/>
</g>

<g transform="matrix( 1, 0, 0, 1, 0,0) ">
<use xlink:href="#Duplicate_Items_Folder_head_copy_34_7_Layer6_0_1_STROKES"/>
</g>

<g transform="matrix( 1, 0, 0, 1, 0,0) ">
<use xlink:href="#Duplicate_Items_Folder_head_copy_34_7_Layer5_0_FILL"/>

<use xlink:href="#Duplicate_Items_Folder_head_copy_34_7_Layer5_0_1_STROKES"/>
</g>

<g transform="matrix( 1, 0, 0, 1, 0,0) ">
<use xlink:href="#Duplicate_Items_Folder_head_copy_34_7_Layer4_0_FILL"/>

<use xlink:href="#Duplicate_Items_Folder_head_copy_34_7_Layer4_0_1_STROKES"/>
</g>

<g transform="matrix( 0.774139404296875, 0.0317840576171875, -0.008392333984375, 0.6907196044921875, -64.7,-64.8) ">
<g transform="matrix( 1, 0, 0, 1, 0,0) ">
<use xlink:href="#Duplicate_Items_Folder_eye_blink_copy_7_14_Layer1_0_FILL"/>
</g>
</g>

<g transform="matrix( -0.772216796875, -0.0700836181640625, -0.094024658203125, 0.68353271484375, 26.8,-55.9) ">
<g transform="matrix( 1, 0, 0, 1, 0,0) ">
<use xlink:href="#Duplicate_Items_Folder_eye_blink_copy_7_14_Layer1_0_FILL"/>
</g>
</g>

<g transform="matrix( 1, 0, 0, 1, 0,0) ">
<use xlink:href="#Duplicate_Items_Folder_head_copy_34_7_Layer2_0_FILL"/>

<use xlink:href="#Duplicate_Items_Folder_head_copy_34_7_Layer2_0_1_STROKES"/>
</g>

<g transform="matrix( 1, 0, 0, 1, 0,0) ">
<use xlink:href="#Duplicate_Items_Folder_head_copy_34_7_Layer1_0_FILL"/>

<use xlink:href="#Duplicate_Items_Folder_head_copy_34_7_Layer1_0_1_STROKES"/>
</g>

<g transform="matrix( 1, 0, 0, 1, 0,0) ">
<use xlink:href="#Duplicate_Items_Folder_head_copy_34_7_Layer0_0_FILL"/>
</g>
</g>
</g>
</svg>
