
<svg xmlns="http://www.w3.org/2000/svg" version="1.1" xmlns:xlink="http://www.w3.org/1999/xlink" preserveAspectRatio="none" x="0px" y="0px" width="560px" height="544px" viewBox="0 0 560 544">
<defs>
<g id="Layer0_0_MEMBER_0_MEMBER_0_MEMBER_0_FILL">
<path fill="#000000" stroke="none" d="
M 64.7 49.2
L 64.4 48.55 64.25 48.7 64.4 49 64.5 49.35 64.7 49.65 64.95 50.3 65.05 50.65 65.25 50.95 65.45 51.6 65.65 51.9 65.6 51.95 65.9 51.85 66.15 51.85 66.4 51.9 66.65 51.85 66.95 51.9 67.2 51.8 67.45 51.8 67.75 51.75 68 51.8 68.25 51.8 68.5 51.75 68.8 51.75 69.05 51.7 69.05 51.45 68.8 51.55 67.5 51.55 67.25 51.6 66.75 51.6 66.5 51.65 66.25 51.6 66 51.7 65.75 51.65 65.45 51.05 65.35 50.7 64.9 49.85 64.7 49.2 Z"/>
</g>

<g id="Layer0_0_MEMBER_0_MEMBER_1_MEMBER_0_FILL">
<path fill="#000000" stroke="none" d="
M 62.65 49.4
L 62.9 49.35 63.4 49.15 63.65 49 63.9 48.9 64.15 48.85 64.4 48.7 64.65 48.65 64.85 48.5 65.15 48.45 65.9 48.15 66.15 48.35 66.4 48.25 66.65 48.35 66.9 48.4 67.15 48.35 67.4 48.35 67.65 48.4 67.95 48.3 68.2 48.4 68.45 48.45 68.7 48.4 68.95 48.4 68.95 48.3 68.7 48.3 68.45 48.15 67.95 48.25 67.4 48.05 66.9 48.15 66.65 48 66.4 48 66.1 48.1 65.85 47.95 65.6 47.9 65.35 48.05 65.1 48.25 64.85 48.25 64.6 48.45 64.1 48.65 63.85 48.7 63.6 48.8 63.4 49 63.1 49 62.85 49.1 62.6 49.25 62.35 49.3 62.15 49.45 62.15 49.65 62.45 49.6 62.65 49.4 Z"/>
</g>

<g id="Layer0_0_MEMBER_0_MEMBER_2_MEMBER_0_FILL">
<path fill="#000000" stroke="none" d="
M 64.15 44.75
L 64.05 44.45 64 44.1 63.9 43.75 63.7 43.8 63.85 44.15 63.85 44.5 64.05 45.2 64.2 45.45 64.25 45.85 64.4 46.15 64.6 46.8 64.7 47.5 64.9 48.15 64.95 48.5 65.25 49.5 65.3 49.85 65.6 50.45 65.65 50.8 65.85 51.45 65.9 51.8 65.9 51.85 66 51.7 65.9 51.05 65.75 50.75 65.7 50.4 65.4 49.4 65.35 49.05 65.25 48.75 65.2 48.4 65.05 48.1 64.95 47.35 64.8 47.05 64.75 46.75 64.55 46.45 64.55 46.05 64.45 45.75 64.4 45.4 64.2 45.1 64.15 44.75 Z"/>
</g>

<g id="Layer0_0_MEMBER_0_MEMBER_3_MEMBER_0_FILL">
<path fill="#000000" stroke="none" d="
M 65.45 47.8
L 65.45 47.6 64.35 47.8 64.4 48 64.65 47.95 64.95 47.95 65.2 47.85 65.45 47.8 Z"/>
</g>

<g id="Layer0_0_MEMBER_0_MEMBER_4_MEMBER_0_FILL">
<path fill="#000000" stroke="none" d="
M 66.7 47.3
L 65.9 47.3 65.9 47.55 66.7 47.55 66.7 47.3 Z"/>
</g>

<g id="Layer0_0_MEMBER_0_MEMBER_5_MEMBER_0_FILL">
<path fill="#000000" stroke="none" d="
M 67 47.5
L 67.45 47.3 67.7 47.25 67.65 47 67.45 47.1 67.2 47.15 66.95 47.25 67 47.5 Z"/>
</g>

<g id="Layer0_0_MEMBER_0_MEMBER_6_MEMBER_0_FILL">
<path fill="#000000" stroke="none" d="
M 67.9 47.3
L 68.7 47.3 68.7 47.1 68.15 47.1 67.9 47.05 67.9 47.3 Z"/>
</g>

<g id="Layer0_0_MEMBER_0_MEMBER_7_MEMBER_0_FILL">
<path fill="#000000" stroke="none" d="
M 66.25 47.45
L 66.25 47.8 66.4 48.9 66.4 49.6 66.55 50.7 66.55 51.05 66.65 51.75 66.65 51.8 66.8 51.75 66.7 51 66.7 50.3 66.5 48.85 66.5 48.15 66.4 47.4 66.25 47.45 Z"/>
</g>

<g id="Layer0_0_MEMBER_0_MEMBER_8_MEMBER_0_FILL">
<path fill="#000000" stroke="none" d="
M 67.3 47.6
L 67.3 47.95 67.25 48.3 67.3 48.65 67.25 48.95 67.25 49.3 67.3 49.65 67.25 50 67.3 50.35 67.25 50.7 67.25 51.05 67.3 51.4 67.3 51.75 67.45 51.7 67.45 50 67.4 49.65 67.45 49.3 67.4 48.95 67.45 48.65 67.45 47.25 67.25 47.25 67.3 47.6 Z"/>
</g>

<g id="Layer0_0_MEMBER_0_MEMBER_9_MEMBER_0_FILL">
<path fill="#000000" stroke="none" d="
M 68.2 47.2
L 68.2 48.25 68.25 48.6 68.2 48.9 68.2 51.35 68.25 51.65 68.35 51.65 68.4 51.35 68.4 50.65 68.35 50.3 68.35 49.95 68.4 49.6 68.4 49.25 68.35 48.9 68.4 48.6 68.35 48.25 68.35 47.9 68.4 47.55 68.35 47.2 68.2 47.2 Z"/>
</g>

<g id="Layer0_0_MEMBER_1_FILL">
<path fill="#000000" stroke="none" d="
M 33.7 -159.3
L 33.7 -167.35 29.7 -157.3 29.7 -148.7 23.65 -134.35 16.8 -127.75 21.65 -125.75 13.9 -103.95 6.15 -98.8 1.6 -103.95 4.15 -111.4 4.75 -118.6 7.6 -121.15 9.9 -125.2
Q 10.45 -126.05 10.2 -130.05 9.6 -134.35 8.45 -137.2 7.6 -139.25 6.45 -140.1
L 11.9 -140.4 5.9 -144.95 5.9 -151.25 4.15 -158.75 2.45 -161.6 1.6 -165.05 -1.3 -169.9 -0.4 -159.85 -3.3 -145.8 -9.9 -139.8 -6.15 -138.95
Q -6.15 -136.05 -7.3 -131.5
L -6.75 -125.45
Q -6.15 -123.45 -4.15 -121.15
L -3 -115.45
Q -3 -112 -3.85 -107.7
L -5 -100.8 -3.3 -93.95
Q -7.3 -92.2 -8.15 -93.35 -11.3 -97.1 -14.45 -104.25 -16.5 -109.1 -16.5 -109.4
L -16.5 -114.3
Q -16.5 -115.45 -17.6 -119.15 -18.5 -122.3 -17.9 -124.05 -16.5 -126.05 -15.9 -127.2 -14.45 -129.2 -15.6 -131.2 -14.45 -131.5 -11.3 -132.05
L -15.9 -136.95 -17.9 -151.25 -17.9 -158.75 -20.2 -165.9 -20.5 -179.1
Q -22.2 -182.25 -22.5 -184.55 -22.8 -183.4 -22.5 -179.65
L -25.1 -166.2 -25.35 -157.3 -25.95 -155.55 -25.65 -141.25 -30.55 -130.35 -26.8 -130.9
Q -26.5 -129.2 -26.5 -126.9 -25.95 -126.35 -24.8 -126.05
L -24.5 -122.05
Q -24.2 -120.3 -24.2 -116.3 -24.2 -112.3 -23.65 -110.55 -23.05 -108.55 -19.9 -106.55
L -17.6 -101.4
Q -16.2 -97.35 -13.6 -89.65 -11.3 -85.35 -6.15 -85.35
L -2.7 -85.35
Q -1.55 -84.75 -0.4 -82.45 0.45 -81.3 2.15 -79.6 3.3 -77.85 3.6 -75.85
L 3.9 -63.25
Q 3.6 -62.4 1.6 -61.55 -0.15 -60.95 -1 -60.95 -5 -59.8 -5.85 -63.55 -7 -68.1 -5.85 -70.4 -5.6 -71.3 -4.7 -71.3 -3.85 -71 -3.55 -71.55
L -3.55 -75
Q -3.55 -77.6 -4.15 -78.15 -4.45 -78.15 -6.45 -78.75 -8.75 -79 -12.75 -83.6
L -16.2 -87.9 -17.05 -93.35 -22.8 -92.5 -26.25 -85.9 -30.25 -82.15 -25.65 -83.05 -24.8 -77.6 -32.25 -76.15 -29.95 -67.85 -34.25 -64.7
Q -36.85 -63.25 -37.7 -62.4 -35.95 -62.1 -32.25 -62.1 -32.25 -54.65 -32.8 -53.8 -33.95 -52.05 -39.7 -50.35 -42.3 -49.5 -42.85 -50.05 -43.7 -50.65 -43.7 -55.2
L -46 -66.4 -38.85 -67.55 -46.85 -72.15 -46.85 -79.6
Q -46.85 -80.45 -49.15 -85.6
L -54.9 -103.4 -58.35 -110 -55.75 -96.5 -56.6 -78.45 -56.05 -68.7 -62.05 -62.1 -56.6 -63.8 -50.6 -49.75
Q -51.15 -48.65 -53.45 -48.05 -56.35 -47.5 -56.6 -47.2 -57.2 -42.6 -60.9 -44.9
L -65.8 -44.3 -70.4 -44.6 -70.4 -50.35 -67.5 -52.95 -64.35 -52.95 -66.35 -55.8 -68.95 -56.35 -71.25 -52.95 -72.65 -50.05 -72.65 -39.75 -57.5 -39.75 -49.45 -43.75 -39.15 4.4 44.3 10.45 56.65 -30 64.1 -27.1 66.4 -20.25 66.4 -33.7 62.35 -40.6 49.75 -46.6 44.9 -47.75 38.55 -44.6 35.4 -41.15 40.6 -68.4 50.9 -65.55 42.85 -78.45 43.75 -108.25 44.9 -114.85 44.3 -124.6 39.45 -115.15 36.55 -111.4 29.95 -85.9 26.8 -79.3 20.5 -73.85 26.25 -71.3 27.7 -41.75 16.2 -47.75 15.35 -54.95 15.35 -69.85 9.6 -85.6 22.5 -101.65 32.55 -122.9 38.55 -122.3 36.55 -132.35 36.55 -147.55 33.7 -159.3 Z"/>
</g>

<g id="Layer0_0_MEMBER_2_FILL">
<path fill="#FF0000" stroke="none" d="
M 74.25 46.35
Q 73.65 47.5 73.65 49.15 73.65 50.1 73.9 51
L 77.4 51
Q 77.65 50.1 77.65 49.15 77.65 47.5 77.05 46.35 76.5 45.2 75.65 45.2 74.8 45.2 74.25 46.35 Z"/>
</g>

<g id="Layer0_0_MEMBER_3_FILL">
<path fill="#FF0000" stroke="none" d="
M 76.15 29.35
L 76.7 29.35
Q 76.9 29.35 76.9 29.15
L 76.95 28.55
Q 76.95 27.8 76.8 27.3 76.65 26.75 76.45 26.75 75.95 26.75 75.95 28.55
L 75.95 29.15
Q 76 29.35 76.15 29.35 Z"/>
</g>

<g id="Layer0_0_MEMBER_4_FILL">
<path fill="#FF0000" stroke="none" d="
M 66.9 41.05
L 67.3 40.85 67.4 40.65 67.35 40.35
Q 67.1 39.55 66.75 39.7 66.4 39.9 66.65 40.7
L 66.75 41
Q 66.75 41.2 66.9 41.05 Z"/>
</g>

<g id="Layer0_0_MEMBER_5_FILL">
<path fill="#FF0000" stroke="none" d="
M 71.8 29.4
L 72.05 29.4 72.15 29.3 72.2 29
Q 72.2 28.15 71.95 28.15 71.7 28.15 71.7 29
L 71.7 29.3 71.8 29.4 Z"/>
</g>

<g id="Layer0_0_MEMBER_6_FILL">
<path fill="#FF0000" stroke="none" d="
M 73.85 38.55
L 74.1 38.55 74.2 38.45 74.2 38.15
Q 74.2 37.3 73.95 37.3 73.7 37.3 73.7 38.15
L 73.75 38.45 73.85 38.55 Z"/>
</g>

<g id="Layer0_0_MEMBER_7_FILL">
<path fill="#FF0000" stroke="none" d="
M 79.65 29.85
L 79.85 30.05 79.95 30.05 80.05 29.9
Q 80.25 29.55 80.05 29.35 79.85 29.15 79.65 29.6
L 79.6 29.75 79.65 29.85 Z"/>
</g>

<g id="Layer0_0_MEMBER_8_FILL">
<path fill="#FF0000" stroke="none" d="
M 80 30.95
L 80.2 31.15
Q 80.3 31.25 80.35 31.15
L 80.4 31.05
Q 80.55 30.6 80.4 30.45 80.2 30.25 80 30.7
L 79.95 30.85 80 30.95 Z"/>
</g>

<g id="Layer0_0_MEMBER_9_FILL">
<path fill="#FF0000" stroke="none" d="
M 79.1 31.5
L 79.35 31.7
Q 79.35 31.8 79.45 31.7
L 79.5 31.6
Q 79.65 31.15 79.5 31 79.3 30.8 79.1 31.25
L 79.05 31.4 79.1 31.5 Z"/>
</g>

<g id="Layer0_0_MEMBER_10_FILL">
<path fill="#FF0000" stroke="none" d="
M 84.05 46.85
L 84.4 46.85
Q 84.55 46.85 84.55 46.7
L 84.6 46.3
Q 84.6 45.2 84.25 45.2 83.9 45.2 83.9 46.3
L 83.9 46.7 84.05 46.85 Z"/>
</g>

<g id="Layer0_0_MEMBER_11_FILL">
<path fill="#FF0000" stroke="none" d="
M 82.65 49.4
L 83 49.4 83.15 49.25 83.15 48.85
Q 83.15 47.75 82.8 47.75 82.45 47.75 82.45 48.85
L 82.5 49.25
Q 82.5 49.4 82.65 49.4 Z"/>
</g>

<g id="Layer0_0_MEMBER_12_FILL">
<path fill="#FF0000" stroke="none" d="
M 71.15 39.05
L 71.5 39 71.6 38.9 71.6 38.6
Q 71.5 37.85 71.2 37.95 70.9 37.95 71 38.75
L 71.05 39
Q 71.05 39.15 71.15 39.05 Z"/>
</g>

<g id="Layer0_0_MEMBER_13_FILL">
<path fill="#FF0000" stroke="none" d="
M 81.2 40
L 81.95 40.2 82.3 40.15 82.35 39.9
Q 82.45 39.2 81.75 39 81.05 38.8 80.95 39.6 80.9 39.75 80.95 39.85 80.95 40 81.2 40 Z"/>
</g>

<g id="Layer0_0_MEMBER_14_FILL">
<path fill="#FF0000" stroke="none" d="
M 71.15 41.05
L 71.4 40.95 71.45 40.8 71.45 40.6
Q 71.35 40.05 71.15 40.15 70.9 40.3 71 40.85
L 71.05 41.05
Q 71.05 41.15 71.15 41.05 Z"/>
</g>

<g id="Layer0_0_MEMBER_15_FILL">
<path fill="#FF0000" stroke="none" d="
M 71.95 36.55
L 72.2 36.55 72.3 36.5 72.3 36.35
Q 72.3 35.95 72.05 35.95 71.85 35.95 71.85 36.35
L 71.85 36.5 71.95 36.55 Z"/>
</g>

<g id="Layer0_0_MEMBER_16_MEMBER_0_FILL">
<path fill="#000000" stroke="none" d="
M 71.85 28.15
L 71.9 28.3 71.85 28.45 71.9 28.65 71.9 29.1 71.95 29.25 71.95 29.45 72.05 29.45 72.05 29.1 72 28.95 72 28.3 71.95 28.15 71.9 28.1 71.85 28.15 Z"/>
</g>

<g id="Layer0_0_MEMBER_16_MEMBER_1_FILL">
<path fill="#000000" stroke="none" d="
M 72.4 28.6
L 72.4 28.45 72.25 28.55 72.15 28.5 72.05 28.55 71.7 28.55 71.6 28.6 71.45 28.6 71.45 28.7 71.5 28.75 71.6 28.7 71.7 28.7 71.8 28.65 72.3 28.65 72.4 28.6 Z"/>
</g>

<g id="Layer0_0_MEMBER_17_MEMBER_0_FILL">
<path fill="#000000" stroke="none" d="
M 76.6 27.05
L 76.6 26.75 76.65 26.7 76.55 26.7 76.5 26.65 76.4 26.7 76.45 27.05 76.3 27.35 76.35 27.7 76.2 28.7 76.25 29.05 76.2 29.4 76.25 29.4 76.35 29.45 76.4 29.4 76.4 29.05 76.5 28.75 76.45 28.4 76.5 28.05 76.5 27.75 76.6 27.05 Z"/>
</g>

<g id="Layer0_0_MEMBER_17_MEMBER_1_FILL">
<path fill="#000000" stroke="none" d="
M 77.1 27.75
L 76.9 27.55 76.65 27.6 76.4 27.5 76.15 27.5 75.95 27.45 75.7 27.45 75.45 27.4 75.45 27.45 75.4 27.65 75.45 27.65 75.65 27.7 75.9 27.8 76.15 27.75 76.4 27.8 76.65 27.8 76.85 27.9 77.1 27.95 77.35 27.95 77.35 27.9 77.4 27.8 77.35 27.65 77.1 27.75 Z"/>
</g>

<g id="Layer0_0_MEMBER_18_MEMBER_0_FILL">
<path fill="#000000" stroke="none" d="
M 81.75 38.4
L 81.6 38.45 81.7 38.8 81.55 39.1 81.6 39.45 81.45 40.45 81.45 41.15 81.5 41.15 81.6 41.2 81.65 41.15 81.65 40.8 81.75 40.5 81.7 40.15 81.75 39.8 81.75 39.5 81.85 38.8 81.85 38.5 81.9 38.45 81.8 38.45 81.75 38.4 Z"/>
</g>

<g id="Layer0_0_MEMBER_18_MEMBER_1_FILL">
<path fill="#000000" stroke="none" d="
M 82.15 39.3
L 81.9 39.35 81.65 39.25 81.4 39.25 81.15 39.2 80.95 39.2 80.7 39.15 80.7 39.2 80.65 39.4 80.9 39.45 81.15 39.55 81.4 39.5 81.65 39.55 81.9 39.55 82.1 39.65 82.35 39.7 82.6 39.7 82.6 39.65 82.65 39.55 82.6 39.4 82.35 39.5 82.15 39.3 Z"/>
</g>

<g id="Layer0_0_MEMBER_19_MEMBER_0_FILL">
<path fill="#000000" stroke="none" d="
M 79.5 31.3
L 79.45 31.25 79.35 31.2 79.3 31.1 79.25 31.05 79.15 31 79.1 30.9 79.05 30.95 79.05 31 79.15 31.05 79.2 31.15 79.25 31.2 79.35 31.25 79.4 31.35 79.6 31.55 79.65 31.5 79.65 31.45 79.55 31.4 79.5 31.3 Z"/>
</g>

<g id="Layer0_0_MEMBER_20_MEMBER_0_FILL">
<path fill="#000000" stroke="none" d="
M 80.35 30.4
L 80.35 30.5 80 31.2 80.05 31.25 80.45 30.45 80.4 30.45 80.4 30.4 80.35 30.4 Z"/>
</g>

<g id="Layer0_0_MEMBER_21_MEMBER_0_FILL">
<path fill="#000000" stroke="none" d="
M 84.35 44.65
L 84.2 44.65 84.3 45 84.15 45.35 84.2 45.65 84.05 46.7 84.05 47.35 84.1 47.35 84.2 47.45 84.2 47.4 84.25 47.4 84.25 47.05 84.3 46.7 84.3 46.35 84.35 46.05 84.35 45.7 84.45 45.05 84.45 44.7 84.5 44.65 84.4 44.7 84.35 44.65 Z"/>
</g>

<g id="Layer0_0_MEMBER_21_MEMBER_1_FILL">
<path fill="#000000" stroke="none" d="
M 84.75 45.55
L 84.5 45.55 83.75 45.4 83.55 45.4 83.3 45.35 83.3 45.4 83.25 45.6 83.25 45.65 83.5 45.65 83.75 45.75 84 45.7 84.25 45.8 84.5 45.8 85.2 45.95 85.2 45.85 85.25 45.75 85.2 45.6 84.95 45.7 84.75 45.55 Z"/>
</g>

<g id="Layer0_0_MEMBER_22_MEMBER_0_FILL">
<path fill="#000000" stroke="none" d="
M 82.65 47.5
L 82.7 47.85 82.6 48.2 82.6 48.55 82.55 48.85 82.55 49.2 82.5 49.55 82.5 49.9 82.45 50.2 82.5 50.2 82.65 50.3 82.65 49.9 82.75 49.55 82.7 49.2 82.75 48.9 82.75 48.55 82.85 48.2 82.85 47.9 82.9 47.55 82.9 47.5 82.85 47.55 82.75 47.5 82.65 47.5 Z"/>
</g>

<g id="Layer0_0_MEMBER_22_MEMBER_1_FILL">
<path fill="#000000" stroke="none" d="
M 82.2 48.25
L 81.95 48.25 81.7 48.2 81.7 48.3 81.65 48.5 81.7 48.45 81.7 48.5 81.95 48.5 82.15 48.6 82.4 48.6 82.65 48.65 82.9 48.65 83.15 48.7 83.35 48.8 83.65 48.8 83.6 48.7 83.65 48.6 83.65 48.45 83.4 48.55 83.15 48.4 82.9 48.4 82.2 48.25 Z"/>
</g>

<g id="Layer0_0_MEMBER_23_MEMBER_0_FILL">
<path fill="#000000" stroke="none" d="
M 66.8 39.7
L 66.9 39.85 66.9 40.1 67 40.3 67.15 41 67.25 41.2 67.3 41.4 67.4 41.4 67.4 41.35 67.3 40.9 67.2 40.7 67.2 40.5 67.1 40.25 66.95 39.6 66.95 39.55 66.9 39.6 66.85 39.6 66.8 39.7 Z"/>
</g>

<g id="Layer0_0_MEMBER_23_MEMBER_1_FILL">
<path fill="#000000" stroke="none" d="
M 67.3 40
L 67.15 40.15 66.85 40.25 66.55 40.45 66.35 40.5 66.4 40.55 66.4 40.65 66.45 40.7 66.6 40.6 66.75 40.55 66.9 40.4 67.05 40.35 67.2 40.25 67.5 40.15 67.65 40.05 67.7 40.05 67.65 40 67.65 39.95 67.6 39.85 67.5 40 67.3 40 Z"/>
</g>

<g id="Layer0_0_MEMBER_24_FILL">
<path fill="#000000" stroke="none" d="
M 77 42.5
L 76.95 42.45 76.9 42.5 76.85 43 76.85 43.6 76.8 43.65 76.7 43.65 76.6 43.6 76.55 43.1 76.55 43 76.6 42.5 76.55 42.45 76.5 42.45 76.45 42.5 76.5 43.05 76.45 43.6 76.4 43.65 76.25 43.7 76.2 43.6 76.2 42.5 76.15 42.45 76.1 42.5 76.05 43.05 76.1 43.65 76.05 43.7 75.85 43.65 75.8 43.6 75.8 42.5 75.7 42.45 75.65 42.5 75.6 43 75.6 43.1 75.65 43.6 75.6 43.65 75.5 43.65 75.45 43.6 75.4 42.5 75.35 42.4 75.25 42.5 75.25 43.6 75.2 43.65 75.05 43.65 75 43.6 74.95 42.5 74.9 42.45 74.9 42.4 74.85 42.5 74.9 43.05 74.85 43.65 74.8 43.7 74.65 43.7 74.6 43.6 74.6 42.5 74.55 42.4 74.5 42.4 74.45 42.5 74.5 43.65 74.45 43.7 74.25 43.65 74.2 43.6 74.15 43.1 74.15 42.5 74.1 42.4 74.05 42.4 74 42.45 74.05 43.6 74 43.7 73.8 43.7 73.75 43.65 73.8 43.1 73.8 43 73.75 42.45 73.7 42.45 73.65 43.8 73.6 44.25 73.6 44.4 73.65 44.75 73.65 44.9 73.6 45 73.6 45.9 73.65 46 73.65 46.6 73.6 47.05 73.65 47.15 73.65 47.85 73.7 48 73.75 48 73.8 47.9 73.8 47.85 73.75 47.8 73.8 47.35 73.85 47.25 73.95 47.25 74 47.35 74 47.85 74.1 47.95
Q 74.1 48 74.15 47.95
L 74.2 47.8 74.15 47.3 74.2 47.25 74.4 47.25 74.5 47.3 74.5 47.85 74.45 47.85 74.5 48 74.55 48 74.55 47.3 74.6 47.25 74.85 47.25 74.9 47.3 74.85 47.8 74.9 47.9
Q 74.95 47.95 74.95 47.9
L 75 47.8 75.05 47.8 74.95 47.3 75 47.25 75.2 47.25 75.25 47.3 75.2 47.85 75.3 47.95
Q 75.35 48 75.35 47.95
L 75.4 47.9 75.4 47.85 75.35 47.8 75.4 47.3 75.45 47.25 75.6 47.25 75.65 47.3 75.7 47.8 75.7 47.95 75.75 47.95 75.75 47.85 75.8 47.85 75.75 47.8 75.75 47.3 75.8 47.25 75.95 47.25 76.05 47.35 76.05 47.85 76.1 47.9 76.15 47.85 76.15 47.8 76.2 47.8 76.2 47.35 76.3 47.25 76.4 47.25 76.45 47.3 76.5 47.8 76.45 47.8 76.45 47.85 76.5 47.9
Q 76.5 47.95 76.55 47.9
L 76.6 47.8 76.55 47.8 76.6 47.3 76.65 47.25 76.85 47.25 76.9 47.3 76.85 47.8
Q 76.8 47.85 76.85 47.85
L 76.9 47.9
Q 76.9 48 77 47.9
L 77.05 47.85 77.05 47.8 77 47.75 77 47.3 77.05 47.25 77.2 47.25 77.25 47.35 77.3 47.8 77.25 47.85 77.3 47.95 77.35 47.95 77.45 47.85 77.4 47.8 77.45 47.35 77.5 47.25 77.65 47.25 77.7 47.3 77.65 47.8 77.65 47.85 77.7 47.9
Q 77.75 47.95 77.75 47.9
L 77.8 47.85 77.85 47.85 77.85 47.3 77.8 47.2 77.8 47.05 77.85 46.6 77.8 46.15 77.8 45.9 77.85 45.5 77.85 44.8 77.8 44.4 77.8 42.5 77.75 42.45 77.7 42.5 77.7 43.6 77.65 43.7 77.45 43.7 77.4 43.6 77.45 43.1 77.45 43 77.4 42.5 77.3 42.45 77.25 42.5 77.3 43.65 77.25 43.7 77.1 43.65 77.05 43.6 77 42.5
M 75.4 43.8
L 75.6 43.85 75.65 43.9 75.7 44.8 75.65 44.85 75.45 44.8 75.4 44.75 75.35 43.85 75.4 43.8
M 75.75 43.85
L 75.8 43.8 76 43.85 76.05 43.9 76.1 44.8 76.05 44.85 75.85 44.8 75.8 44.75 75.75 43.85
M 74.8 43.85
L 74.85 43.9 74.8 44.3 74.85 44.8
Q 74.9 44.8 74.85 44.85
L 74.65 44.8 74.6 44.75 74.55 43.85 74.6 43.8 74.8 43.85
M 75 43.8
L 75.2 43.85 75.25 43.9 75.3 44.8 75.25 44.85 75.05 44.8 75 44.75 74.95 43.85 75 43.8
M 74.2 43.8
L 74.4 43.85 74.45 43.9 74.4 44.3 74.45 44.8 74.4 44.85 74.25 44.8 74.2 44.75 74.15 43.85 74.2 43.8
M 73.8 43.9
L 73.85 43.85 73.95 43.85 74 43.9 74.05 44.25 74.05 44.75 74 44.8 73.85 44.8 73.75 44.75 73.75 44.25 73.8 43.9
M 74.6 45.05
Q 74.6 44.95 74.65 45
L 74.75 45 74.85 45.05 74.9 45.4 74.9 45.5 74.85 45.9 74.8 45.95 74.65 45.95 74.6 45.9 74.55 45.5 74.55 45.4 74.6 45.05
M 74.4 44.95
L 74.45 45.05 74.5 45.4 74.5 45.5 74.45 45.9 74.4 45.95 74.25 45.95 74.2 45.9 74.15 45.5 74.15 45.4 74.2 45.05 74.25 44.95 74.4 44.95
M 73.75 45.4
L 73.8 45.05
Q 73.8 44.95 73.85 45
L 73.95 45 74 45.05 74.05 45.4 74.05 45.9 74 45.95 73.85 45.95 73.75 45.9 73.75 45.4
M 73.75 46.15
L 73.8 46.1 74 46.1 74.05 46.2 74.05 47.05 74 47.1 73.85 47.1 73.8 47.05 73.75 46.15
M 74.15 46.15
L 74.2 46.1 74.4 46.1 74.45 46.2 74.5 47.05 74.45 47.1 74.25 47.1 74.2 47.05 74.15 46.15
M 74.55 46.15
L 74.6 46.1 74.8 46.1 74.85 46.2 74.9 47.05 74.85 47.1 74.65 47.1 74.6 47.05 74.55 46.15
M 75.8 45.05
L 75.85 45 76 45 76.05 45.05 76.1 45.4 76.1 45.5 76.05 45.9 76 45.95 75.85 45.95 75.8 45.9 75.75 45.5 75.75 45.4 75.8 45.05
M 75.4 45.05
L 75.45 45 75.6 45 75.65 45.05 75.7 45.4 75.7 45.5 75.65 45.9 75.6 45.95 75.45 45.95 75.4 45.9 75.35 45.5 75.35 45.4 75.4 45.05
M 75 45.05
Q 75 44.95 75.05 45
L 75.2 45 75.25 45.05 75.3 45.4 75.3 45.5 75.25 45.9 75.2 45.95 75.05 45.95 75 45.9 74.95 45.5 74.95 45.4 75 45.05
M 75.2 46.1
L 75.25 46.2 75.3 47.05 75.25 47.1 75.05 47.1 75 47.05 74.95 46.15 75 46.1 75.2 46.1
M 75.75 46.15
L 75.8 46.1 76 46.1 76.05 46.2 76.1 47.05 76.05 47.1 75.85 47.1 75.8 47.05 75.75 46.15
M 75.6 46.1
L 75.65 46.2 75.7 47.05 75.65 47.1 75.45 47.1 75.4 47.05 75.35 46.15 75.4 46.1 75.6 46.1
M 77.45 43.8
L 77.6 43.85 77.65 43.9 77.7 44.8 77.65 44.85 77.5 44.8 77.4 44.75 77.4 43.85 77.45 43.8
M 77.3 44.8
L 77.25 44.85 77.05 44.8 77 44.75 77 43.85 77.05 43.8 77.2 43.85 77.25 43.9 77.3 44.8
M 76.6 43.8
L 76.8 43.85 76.85 43.9 76.9 44.8 76.85 44.85 76.65 44.8 76.6 44.75 76.55 43.85 76.6 43.8
M 76.2 43.8
L 76.4 43.85 76.45 43.9 76.5 44.8 76.45 44.85 76.25 44.8 76.2 44.75 76.15 43.85 76.2 43.8
M 77.05 45
L 77.2 45 77.25 45.05 77.3 45.4 77.3 45.5 77.25 45.9 77.2 45.95 77.05 45.95 77 45.9 76.95 45.5 77 45.4 77 45.05 77.05 45
M 76.8 45
L 76.85 45.05 76.9 45.4 76.9 45.5 76.85 45.9 76.8 45.95 76.65 45.95 76.6 45.9 76.55 45.5 76.55 45.4 76.6 45.05 76.65 45 76.8 45
M 76.4 45
L 76.45 45.05 76.5 45.4 76.5 45.5 76.45 45.9 76.4 45.95 76.25 45.95 76.2 45.9 76.15 45.5 76.15 45.4 76.2 45.05 76.25 45 76.4 45
M 76.2 46.15
L 76.2 46.1 76.4 46.1 76.45 46.2 76.5 47.05 76.45 47.1 76.25 47.1 76.2 47.05 76.25 46.6 76.2 46.15
M 76.8 46.1
L 76.85 46.2 76.9 47.05 76.85 47.1 76.65 47.1 76.6 47.05 76.65 46.6 76.6 46.15 76.65 46.1 76.8 46.1
M 77 46.15
L 77.05 46.1 77.2 46.1 77.25 46.2 77.3 47.05 77.25 47.1 77.05 47.1 77 47.05 77.05 46.6 77 46.15
M 77.65 44.95
L 77.7 45.05 77.7 45.9 77.6 45.95 77.5 45.95 77.45 45.9 77.4 45.5 77.4 45.05 77.5 44.95 77.65 44.95
M 77.4 46.15
L 77.45 46.1 77.6 46.1 77.65 46.2 77.7 46.6 77.7 47.05 77.65 47.1 77.5 47.1
Q 77.45 47.1 77.45 47.05
L 77.4 46.15 Z"/>
</g>
</defs>

<g transform="matrix( 15.85028076171875, 0, 0, 15.85028076171875, -903.05,-296.55) ">
<use xlink:href="#Layer0_0_MEMBER_0_MEMBER_0_MEMBER_0_FILL"/>
</g>

<g transform="matrix( 15.85028076171875, 0, 0, 15.85028076171875, -903.05,-296.55) ">
<use xlink:href="#Layer0_0_MEMBER_0_MEMBER_1_MEMBER_0_FILL"/>
</g>

<g transform="matrix( 15.85028076171875, 0, 0, 15.85028076171875, -903.05,-296.55) ">
<use xlink:href="#Layer0_0_MEMBER_0_MEMBER_2_MEMBER_0_FILL"/>
</g>

<g transform="matrix( 15.85028076171875, 0, 0, 15.85028076171875, -903.05,-296.55) ">
<use xlink:href="#Layer0_0_MEMBER_0_MEMBER_3_MEMBER_0_FILL"/>
</g>

<g transform="matrix( 15.85028076171875, 0, 0, 15.85028076171875, -903.05,-296.55) ">
<use xlink:href="#Layer0_0_MEMBER_0_MEMBER_4_MEMBER_0_FILL"/>
</g>

<g transform="matrix( 15.85028076171875, 0, 0, 15.85028076171875, -903.05,-296.55) ">
<use xlink:href="#Layer0_0_MEMBER_0_MEMBER_5_MEMBER_0_FILL"/>
</g>

<g transform="matrix( 15.85028076171875, 0, 0, 15.85028076171875, -903.05,-296.55) ">
<use xlink:href="#Layer0_0_MEMBER_0_MEMBER_6_MEMBER_0_FILL"/>
</g>

<g transform="matrix( 15.85028076171875, 0, 0, 15.85028076171875, -903.05,-296.55) ">
<use xlink:href="#Layer0_0_MEMBER_0_MEMBER_7_MEMBER_0_FILL"/>
</g>

<g transform="matrix( 15.85028076171875, 0, 0, 15.85028076171875, -903.05,-296.55) ">
<use xlink:href="#Layer0_0_MEMBER_0_MEMBER_8_MEMBER_0_FILL"/>
</g>

<g transform="matrix( 15.85028076171875, 0, 0, 15.85028076171875, -903.05,-296.55) ">
<use xlink:href="#Layer0_0_MEMBER_0_MEMBER_9_MEMBER_0_FILL"/>
</g>

<g transform="matrix( 2.7640533447265625, 0, 0, 2.7640533447265625, 298.7,510.7) ">
<use xlink:href="#Layer0_0_MEMBER_1_FILL"/>
</g>

<g transform="matrix( 15.85028076171875, 0, 0, 15.85028076171875, -903.05,-296.55) ">
<use xlink:href="#Layer0_0_MEMBER_2_FILL"/>
</g>

<g transform="matrix( 15.85028076171875, 0, 0, 15.85028076171875, -903.05,-296.55) ">
<use xlink:href="#Layer0_0_MEMBER_3_FILL"/>
</g>

<g transform="matrix( 15.85028076171875, 0, 0, 15.85028076171875, -903.05,-296.55) ">
<use xlink:href="#Layer0_0_MEMBER_4_FILL"/>
</g>

<g transform="matrix( 15.85028076171875, 0, 0, 15.85028076171875, -903.05,-296.55) ">
<use xlink:href="#Layer0_0_MEMBER_5_FILL"/>
</g>

<g transform="matrix( 15.85028076171875, 0, 0, 15.85028076171875, -903.05,-296.55) ">
<use xlink:href="#Layer0_0_MEMBER_6_FILL"/>
</g>

<g transform="matrix( 15.85028076171875, 0, 0, 15.85028076171875, -903.05,-296.55) ">
<use xlink:href="#Layer0_0_MEMBER_7_FILL"/>
</g>

<g transform="matrix( 15.85028076171875, 0, 0, 15.85028076171875, -903.05,-296.55) ">
<use xlink:href="#Layer0_0_MEMBER_8_FILL"/>
</g>

<g transform="matrix( 15.85028076171875, 0, 0, 15.85028076171875, -903.05,-296.55) ">
<use xlink:href="#Layer0_0_MEMBER_9_FILL"/>
</g>

<g transform="matrix( 15.85028076171875, 0, 0, 15.85028076171875, -903.05,-296.55) ">
<use xlink:href="#Layer0_0_MEMBER_10_FILL"/>
</g>

<g transform="matrix( 15.85028076171875, 0, 0, 15.85028076171875, -903.05,-296.55) ">
<use xlink:href="#Layer0_0_MEMBER_11_FILL"/>
</g>

<g transform="matrix( 15.85028076171875, 0, 0, 15.85028076171875, -903.05,-296.55) ">
<use xlink:href="#Layer0_0_MEMBER_12_FILL"/>
</g>

<g transform="matrix( 15.85028076171875, 0, 0, 15.85028076171875, -903.05,-296.55) ">
<use xlink:href="#Layer0_0_MEMBER_13_FILL"/>
</g>

<g transform="matrix( 15.85028076171875, 0, 0, 15.85028076171875, -903.05,-296.55) ">
<use xlink:href="#Layer0_0_MEMBER_14_FILL"/>
</g>

<g transform="matrix( 15.85028076171875, 0, 0, 15.85028076171875, -903.05,-296.55) ">
<use xlink:href="#Layer0_0_MEMBER_15_FILL"/>
</g>

<g transform="matrix( 15.85028076171875, 0, 0, 15.85028076171875, -903.05,-296.55) ">
<use xlink:href="#Layer0_0_MEMBER_16_MEMBER_0_FILL"/>
</g>

<g transform="matrix( 15.85028076171875, 0, 0, 15.85028076171875, -903.05,-296.55) ">
<use xlink:href="#Layer0_0_MEMBER_16_MEMBER_1_FILL"/>
</g>

<g transform="matrix( 15.85028076171875, 0, 0, 15.85028076171875, -903.05,-296.55) ">
<use xlink:href="#Layer0_0_MEMBER_17_MEMBER_0_FILL"/>
</g>

<g transform="matrix( 15.85028076171875, 0, 0, 15.85028076171875, -903.05,-296.55) ">
<use xlink:href="#Layer0_0_MEMBER_17_MEMBER_1_FILL"/>
</g>

<g transform="matrix( 15.85028076171875, 0, 0, 15.85028076171875, -903.05,-296.55) ">
<use xlink:href="#Layer0_0_MEMBER_18_MEMBER_0_FILL"/>
</g>

<g transform="matrix( 15.85028076171875, 0, 0, 15.85028076171875, -903.05,-296.55) ">
<use xlink:href="#Layer0_0_MEMBER_18_MEMBER_1_FILL"/>
</g>

<g transform="matrix( 15.85028076171875, 0, 0, 15.85028076171875, -903.05,-296.55) ">
<use xlink:href="#Layer0_0_MEMBER_19_MEMBER_0_FILL"/>
</g>

<g transform="matrix( 15.85028076171875, 0, 0, 15.85028076171875, -903.05,-296.55) ">
<use xlink:href="#Layer0_0_MEMBER_20_MEMBER_0_FILL"/>
</g>

<g transform="matrix( 15.85028076171875, 0, 0, 15.85028076171875, -903.05,-296.55) ">
<use xlink:href="#Layer0_0_MEMBER_21_MEMBER_0_FILL"/>
</g>

<g transform="matrix( 15.85028076171875, 0, 0, 15.85028076171875, -903.05,-296.55) ">
<use xlink:href="#Layer0_0_MEMBER_21_MEMBER_1_FILL"/>
</g>

<g transform="matrix( 15.85028076171875, 0, 0, 15.85028076171875, -903.05,-296.55) ">
<use xlink:href="#Layer0_0_MEMBER_22_MEMBER_0_FILL"/>
</g>

<g transform="matrix( 15.85028076171875, 0, 0, 15.85028076171875, -903.05,-296.55) ">
<use xlink:href="#Layer0_0_MEMBER_22_MEMBER_1_FILL"/>
</g>

<g transform="matrix( 15.85028076171875, 0, 0, 15.85028076171875, -903.05,-296.55) ">
<use xlink:href="#Layer0_0_MEMBER_23_MEMBER_0_FILL"/>
</g>

<g transform="matrix( 15.85028076171875, 0, 0, 15.85028076171875, -903.05,-296.55) ">
<use xlink:href="#Layer0_0_MEMBER_23_MEMBER_1_FILL"/>
</g>

<g transform="matrix( 15.85028076171875, 0, 0, 15.85028076171875, -903.05,-296.55) ">
<use xlink:href="#Layer0_0_MEMBER_24_FILL"/>
</g>
</svg>
