
<svg xmlns="http://www.w3.org/2000/svg" version="1.1" xmlns:xlink="http://www.w3.org/1999/xlink" preserveAspectRatio="none" x="0px" y="0px" width="560px" height="544px" viewBox="0 0 560 544">
<defs>
<g id="wing_broken_flap_0_Layer1_0_FILL">
<path fill="#003366" stroke="none" d="
M 6.7 3.5
L 7.8 9.45
Q 24.85 2.1 31.05 12.8 33.7 -7.7 48.15 5.9 40.1 -11.75 57.5 -12.6 28 -28.1 6.7 3.5 Z"/>
</g>

<g id="wing_broken_flap_0_Layer0_0_FILL">
<path fill="#FF0000" stroke="none" d="
M 16.6 -1.4
Q 30.6 -7.95 39.55 -10.15
L 40.1 -13.4
Q 27.55 -12.25 16.6 -1.4 Z"/>
</g>

<g id="wing_flap_0_Layer1_0_FILL">
<path fill="#003366" stroke="none" d="
M 5.6 5.05
L 6.7 11.25
Q 24.4 3.6 30.9 14.75 33.65 -6.6 48.7 7.55 40.25 -10.8 58.4 -11.7 27.75 -27.8 5.6 5.05 Z"/>
</g>

<g id="wing_flap_0_Layer0_0_FILL">
<path fill="#FF0000" stroke="none" d="
M 15.85 -0.05
Q 30.4 -6.85 39.7 -9.1
L 40.25 -12.5
Q 27.25 -11.3 15.85 -0.05 Z"/>
</g>

<g id="body_0_Layer5_0_FILL">
<path fill="#404040" stroke="none" d="
M 43.05 23.55
Q 45.05 20.45 45.05 15.4 44.95 14.4 45.05 13.7 41.75 18.3 38 21.5 29 29.2 16.4 29.05 12.5 28.85 8.25 28.15 13.15 30.3 20.8 30.1 31.7 29.8 38.35 27.35 41.4 26.15 43.05 23.55 Z"/>

<path fill="#6F6F6F" stroke="none" d="
M 33.65 -6.95
Q 33.7 -5.65 33.65 -5.6 33.55 -5.75 33.5 -5.65 33 -5.95 32.6 -6.15 31.7 -6.85 30.9 -7.2 29.45 -7.65 28.15 -7.6 11.85 -8.8 0.45 19.3 1.35 22.9 4.4 25.6 6.05 27 8.25 28.15 12.5 28.85 16.4 29.05 29 29.2 38 21.5 41.75 18.3 45.05 13.7 44.5 7 43.05 2.2
L 44.4 -22.5 33.65 -6.95 Z"/>

<path fill="#333333" stroke="none" d="
M 33.05 -6.6
Q 31.9 -7.05 30.9 -7.2 31.7 -6.85 32.6 -6.15
L 33.05 -6.6
M 33.5 -5.65
L 33.05 -6.6 32.6 -6.15
Q 33 -5.95 33.5 -5.65 Z"/>

<path fill="#9D9D9D" stroke="none" d="
M 28.45 -8.6
Q 27.4 -9.25 26.15 -9.6 24.9 -10 21.8 -10.1 18.65 -10.25 11.7 -6.8
L -0.55 -21.75 4.1 0.85
Q 1.35 5.4 0.35 11.7 -0.5 15.85 0.45 19.3 11.85 -8.8 28.15 -7.6 29.45 -7.65 30.9 -7.2 29.55 -8.1 28.45 -8.6 Z"/>
</g>

<g id="body_0_Layer4_0_FILL">
<path fill="#000000" stroke="none" d="
M 14.3 10.7
Q 12.65 10.45 10.4 10.45 8.25 10.3 7.7 10.05 6.65 9.45 5.85 9.95 5.05 17.2 13.35 18.7 15.15 17.85 16.55 16.4 18 14.6 16.75 12.9 15.55 10.95 14.3 10.7
M 11.9 12.25
Q 12.7 11.7 13.7 12.05 14.6 12.15 14.95 13.15 15.2 14 14.95 15.1 14.75 16 13.75 16.4 12.95 17.15 12.1 16.75 11.3 16.55 10.9 15.75 10.45 14.8 10.75 13.75 11.15 12.95 11.9 12.25
M 38.15 8.5
Q 37.75 8.9 35.5 9.1 33.45 9.45 31.9 9.75 30.45 10.15 29.45 12.15 28.55 14.1 30.05 15.65 31.65 17 33.5 17.6 41.6 15.45 39.85 8.4 39.2 7.85 38.15 8.5
M 31.6 11.5
Q 32.3 10.9 33.35 11.3 34.3 11.35 34.75 12.35 34.95 13.2 34.85 14.35 34.7 15.2 33.7 15.6 32.9 16.35 32.05 15.95 31.25 15.75 30.85 14.95 30.25 14 30.5 12.95 30.9 12.15 31.6 11.5 Z"/>

<path fill="#0099FF" stroke="none" d="
M 13.7 12.05
Q 12.7 11.7 11.9 12.25 11.15 12.95 10.75 13.75 10.45 14.8 10.9 15.75 11.3 16.55 12.1 16.75 12.95 17.15 13.75 16.4 14.75 16 14.95 15.1 15.2 14 14.95 13.15 14.6 12.15 13.7 12.05
M 33.35 11.3
Q 32.3 10.9 31.6 11.5 30.9 12.15 30.5 12.95 30.25 14 30.85 14.95 31.25 15.75 32.05 15.95 32.9 16.35 33.7 15.6 34.7 15.2 34.85 14.35 34.95 13.2 34.75 12.35 34.3 11.35 33.35 11.3 Z"/>
</g>

<g id="body_0_Layer3_0_FILL">
<path fill="#003366" stroke="none" d="
M 4.35 -10.45
L 6.6 -1.1
Q 7.2 -1.8 8.7 -2.55 10.2 -3.3 11.65 -3.9
L 4.35 -10.45
M 34.7 -3.9
Q 36.5 -3.6 38.3 -2.5 39.15 -1.8 40.2 -0.9
L 41.15 -12.1 34.7 -3.9 Z"/>
</g>

<g id="body_0_Layer2_0_FILL">
<path fill="#834127" stroke="none" d="
M 4.9 4.75
Q 4.75 4.7 4.6 4.7
L -0.8 4.45
Q -1.75 4.4 -2.5 5.05 -3.2 5.65 -3.25 6.55
L -3.25 6.6
Q -3.3 7.55 -2.65 8.25 -1.95 8.9 -1 8.95
L 4.05 9.2 4.45 9.25
Q 5.35 9.3 6.05 8.65 6.8 7.95 6.85 7.05
L 6.85 7
Q 6.9 6.1 6.2 5.4 5.65 4.85 4.9 4.75
M 3.3 6.15
Q 3.6 5.8 4.15 5.85 4.65 5.85 5 6.2 5.3 6.5 5.3 6.95 5.25 7.45 4.9 7.75 4.6 8.05 4.1 8.05 3.55 8 3.2 7.7 2.85 7.35 2.85 6.9 2.9 6.45 3.3 6.15
M 41.35 11.35
L 41.55 11.4 45.8 11.6
Q 46.8 11.65 47.45 10.95 48.2 10.35 48.25 9.35
L 48.25 9.3
Q 48.3 8.35 47.7 7.55 47.05 6.9 46.05 6.85
L 41.55 6.65
Q 41.3 6.65 41.1 6.65 40.35 6.75 39.8 7.25 39.05 7.85 38.95 8.85
L 38.95 8.9
Q 38.9 9.9 39.6 10.6 40.35 11.3 41.35 11.35
M 41.2 7.75
Q 41.6 7.8 41.9 8.1 42.15 8.5 42.15 8.95 42.1 9.4 41.75 9.75 41.5 10.05 41.1 10 40.7 10.05 40.35 9.65 40.1 9.3 40.1 8.85 40.15 8.4 40.5 8.1 40.85 7.8 41.2 7.75
M 27.55 -8.3
Q 27.55 -8.35 27.55 -8.4 27.55 -9.75 26.65 -10.6 25.75 -11.55 24.45 -11.6 23.05 -11.65 22.05 -10.8 21.2 -10.05 21.05 -8.95 21 -8.8 21 -8.65
L 20.8 -5.65
Q 20.8 -4.3 21.7 -3.35 22.6 -2.4 24 -2.35 25.3 -2.3 26.3 -3.15 27.35 -4 27.4 -5.35
L 27.55 -8.3
M 24.25 -6.75
Q 24.85 -6.7 25.2 -6.3 25.6 -5.85 25.6 -5.3 25.6 -4.7 25.1 -4.35 24.7 -3.9 24.1 -4 23.5 -4 23.15 -4.45 22.7 -4.8 22.75 -5.4 22.75 -5.95 23.25 -6.4 23.7 -6.75 24.25 -6.75 Z"/>

<path fill="#999999" stroke="none" d="
M 4.15 5.85
Q 3.6 5.8 3.3 6.15 2.9 6.45 2.85 6.9 2.85 7.35 3.2 7.7 3.55 8 4.1 8.05 4.6 8.05 4.9 7.75 5.25 7.45 5.3 6.95 5.3 6.5 5 6.2 4.65 5.85 4.15 5.85
M 41.9 8.1
Q 41.6 7.8 41.2 7.75 40.85 7.8 40.5 8.1 40.15 8.4 40.1 8.85 40.1 9.3 40.35 9.65 40.7 10.05 41.1 10 41.5 10.05 41.75 9.75 42.1 9.4 42.15 8.95 42.15 8.5 41.9 8.1
M 25.2 -6.3
Q 24.85 -6.7 24.25 -6.75 23.7 -6.75 23.25 -6.4 22.75 -5.95 22.75 -5.4 22.7 -4.8 23.15 -4.45 23.5 -4 24.1 -4 24.7 -3.9 25.1 -4.35 25.6 -4.7 25.6 -5.3 25.6 -5.85 25.2 -6.3 Z"/>

<path fill="#D2C8AF" stroke="none" d="
M 41.55 11.4
L 41.35 11.35
Q 40.35 11.3 39.6 10.6 38.9 9.9 38.95 8.9
L 38.95 8.85
Q 39.05 7.85 39.8 7.25 40.35 6.75 41.1 6.65 40.45 3.3 38.75 0.35 31.25 26.65 5.3 20.25 6.45 23.15 8.55 25.65 13.8 31.9 21.6 32.25 29.4 32.6 35.2 26.75 41.05 21.05 41.5 12.5 41.55 11.95 41.55 11.4 Z"/>

<path fill="#EADFC3" stroke="none" d="
M 27.55 -8.4
Q 27.55 -8.35 27.55 -8.3
L 27.4 -5.35
Q 27.35 -4 26.3 -3.15 25.3 -2.3 24 -2.35 22.6 -2.4 21.7 -3.35 20.8 -4.3 20.8 -5.65
L 21 -8.65
Q 21 -8.8 21.05 -8.95 14.85 -8.3 10.05 -3.55 6.4 0.05 4.9 4.75 5.65 4.85 6.2 5.4 6.9 6.1 6.85 7
L 6.85 7.05
Q 6.8 7.95 6.05 8.65 5.35 9.3 4.45 9.25
L 4.05 9.2
Q 3.9 9.95 3.85 10.75 3.6 15.95 5.3 20.25 31.25 26.65 38.75 0.35 37.85 -1.05 36.8 -2.4 32.9 -7.05 27.55 -8.4
M 18.7 -1.75
Q 20.25 -0.15 17.25 -0.35 14.15 -0.6 13.05 1.2 11.9 3 12.1 4.85 12.25 6.65 10.7 5.1 9.2 3.5 9.3 1.4 9.4 -0.7 11 -2.15 12.7 -3.6 14.95 -3.45 17.25 -3.3 18.7 -1.75 Z"/>

<path fill="#FAF7EF" stroke="none" d="
M 17.25 -0.35
Q 20.25 -0.15 18.7 -1.75 17.25 -3.3 14.95 -3.45 12.7 -3.6 11 -2.15 9.4 -0.7 9.3 1.4 9.2 3.5 10.7 5.1 12.25 6.65 12.1 4.85 11.9 3 13.05 1.2 14.15 -0.6 17.25 -0.35 Z"/>
</g>

<g id="body_0_Layer1_0_FILL">
<path fill="#FF0000" stroke="none" d="
M 13.4 16
Q 13.6 15.95 13.7 15.75 13.8 15.6 13.8 15.45 13.75 15.25 13.6 15.1 13.4 15 13.2 15.05 13.05 15.1 13 15.25 12.95 15.4 12.95 15.55 13 15.75 13.1 15.9 13.25 16.05 13.4 16
M 9.05 21.75
Q 8.9 21.7 8.7 21.7 8.55 21.75 8.4 21.9 8.3 22.1 8.35 22.3 8.4 22.55 8.55 22.65 8.75 22.8 8.9 22.75 9.1 22.7 9.2 22.5 9.35 22.35 9.35 22.15 9.25 21.9 9.05 21.75
M 14.25 9.95
Q 14.15 10.45 13.95 10.55 13.7 10.6 13.2 11.05 12.75 11.5 13.05 11.9 13 12.1 13.1 12.3 13.3 13.5 14.95 11.95 16.6 10.4 16.65 14.5 16.95 14.45 17.25 14.35 18.8 14.1 19.65 13.05 19.75 12.95 19.85 12.85 19.85 12.8 19.9 12.75 20.45 11.85 19.4 11.4 18.25 10.95 17.85 9.85 17.4 8.7 16.55 8.8 15.65 8.9 15.25 9.05 14.4 9.45 14.25 9.95
M 37.9 12.55
Q 38 13.1 37.5 13.5 37 13.95 36.55 13.95 36.05 14 36.05 14.1 35.75 14 35.35 14.1 34.85 14.2 34.45 14.55 34.05 14.8 33.85 14.95 33.7 15.1 34.45 15.55 35.2 15.95 35.65 15.8 36.2 15.75 36.5 15.4 36.75 15.15 36.8 14.95 37.25 15.25 37.8 15.1 38.4 15 38.7 14.45 39.05 13.95 38.95 13.35 38.8 12.7 38.3 12.3 37.8 11.95 37.9 12.55
M 24.25 18.1
Q 23.75 18.25 23.3 18.4 22.7 18.75 22.2 19.3 21.95 19.65 21.8 20.05 21.65 20.6 21.7 21.2 21.15 21.45 17.45 22.15 13.7 22.8 16.15 24.7 16.7 25.15 17.25 25.45
L 19.6 26.25 16.8 23.3 19.6 26.25 19.85 26.3
Q 20.6 25.35 22.35 23.3 24.1 21.25 26 23.2 27.8 25.1 29.2 24.05 30.3 23.15 30.45 22.35 30.5 22.1 30.4 21.85
L 30.4 21.8
Q 30.15 20.7 28.5 20.25 28.15 20.15 27.8 20.15 27.75 20.1 27.75 20.05 27.55 19 26.55 18.4 25.55 17.85 24.25 18.1
M 21.9 4
Q 22.05 3.85 22.05 3.6 22 3.35 21.8 3.2 21.55 3.1 21.35 3.2 21.1 3.25 20.95 3.4 20.8 3.6 20.8 3.85 20.85 4.1 21.1 4.2 21.3 4.35 21.55 4.25 21.8 4.2 21.9 4
M 38.1 2
Q 38.05 2 38 2.05 37.8 2.25 37.85 2.5 37.9 2.75 38.15 2.9 38.45 3.05 38.8 2.95 39.15 2.9 39.35 2.7 39.55 2.5 39.5 2.25 39.45 2.05 39.3 1.9 39.25 1.85 39.2 1.85 38.95 1.7 38.6 1.8 38.3 1.85 38.1 2
M 32.55 -2.1
Q 32.05 -2.35 31.65 -2.45 31.7 -2.25 31.9 -2.2 32.1 -2.05 32.4 -2.1 32.45 -2.1 32.55 -2.1
M 32.65 -3.15
Q 32.4 -3.3 32.1 -3.25 31.8 -3.2 31.7 -2.95 31.55 -2.75 31.6 -2.55 31.6 -2.5 31.65 -2.45 32.05 -2.35 32.55 -2.1 32.75 -2.25 32.8 -2.4 32.95 -2.6 32.9 -2.85 32.85 -3.05 32.65 -3.15 Z"/>
</g>

<g id="body_0_Layer1_0_STROKES_1_FILL">
<path fill="#FF0000" stroke="none" d="
M 15.1 24.3
Q 14.9326171875 24.405859375 14.85 24.6 14.7580078125 24.787109375 14.8 24.95 14.9064453125 25.1671875 15.1 25.25 16.15 25.7001953125 17.25 26.2 18.6921875 26.8669921875 19.05 26.45 19.116015625 26.5080078125 19.2 26.6
L 19.25 26.6 19.35 26.7
Q 20.0546875 27.1568359375 20.3 27.35 20.65390625 27.6673828125 21.95 29.35 22.073828125 29.518359375 22.25 29.55 22.4826171875 29.5767578125 22.65 29.45 22.81875 29.3263671875 22.85 29.1 22.8765625 28.9177734375 22.75 28.75 22.0970703125 27.9046875 21.65 27.35 21.83515625 27.3416015625 21.95 27.2 22.076171875 27.046484375 22.05 26.85 21.9576171875 26.03671875 21.15 25.85
L 21.1 25.85
Q 20.7033203125 25.80625 19.85 25.75 19.2681640625 24.85390625 18.55 24.05
L 18.55 24.05
Q 17.7701171875 23.1984375 17.2 23 17.1765625 22.9759765625 17.15 22.95 17.0052734375 22.8017578125 16.8 22.8 16.6193359375 22.7990234375 16.55 22.8 16.2583984375 22.90390625 16.2 23.05 15.973046875 23.359765625 16.3 23.7 16.35234375 23.79765625 16.8 23.9 17.2005859375 24.07578125 17.8 24.75
L 17.8 24.7
Q 18.1958984375 25.1490234375 18.55 25.6
L 18.5 25.65
Q 18.38125 25.620703125 17.65 25.3 16.5498046875 24.7998046875 15.5 24.35 15.3123046875 24.2580078125 15.1 24.3
M 16.2 14.7
Q 16.2826171875 14.894140625 16.45 14.95 17.287890625 15.287890625 17.65 15.55
L 17.65 15.55
Q 17.844140625 15.683984375 17.9 15.55 17.9017578125 15.7552734375 18.05 15.9 18.1947265625 16.0482421875 18.4 16.05 18.6052734375 16.0482421875 18.75 15.9 18.8982421875 15.7552734375 18.9 15.55 19.0166015625 15.2564453125 18.2 14.7 17.7814453125 14.4 16.8 14 16.63671875 13.958203125 16.45 14.05 16.25546875 14.133203125 16.15 14.3 16.1080078125 14.513671875 16.2 14.7
M 9.5 17.95
Q 9.6892578125 18.1130859375 9.9 18.1 10.3869140625 18.059765625 11.45 18.3 12.7384765625 18.70390625 13.5 18.65
L 13.5 18.65
Q 13.993359375 18.6537109375 14.2 18.85 14.365625 19.033203125 14.55 19.05 14.7748046875 19.0626953125 14.9 18.9 15.08359375 18.7845703125 15.1 18.55 15.1125 18.37578125 14.95 18.2 14.5134765625 17.6521484375 13.5 17.65
L 13.45 17.65
Q 12.840234375 17.6896484375 11.75 17.35
L 11.7 17.35
Q 10.407421875 17.0404296875 9.8 17.1 9.6013671875 17.1171875 9.45 17.25 9.33671875 17.439453125 9.35 17.65 9.3671875 17.848828125 9.5 17.95
M 17.1 6.05
Q 16.9552734375 5.9017578125 16.75 5.9 16.5447265625 5.9017578125 16.4 6.05 16.2517578125 6.1947265625 16.25 6.4 16.2466796875 6.4923828125 16.15 6.5 15.61484375 6.5509765625 14.65 6.85 14.448828125 6.940234375 14.35 7.1 14.258203125 7.3072265625 14.3 7.5 14.3900390625 7.7013671875 14.55 7.8 14.75703125 7.891796875 14.95 7.8 15.7849609375 7.5490234375 16.25 7.5 17.253515625 7.407421875 17.25 6.4 17.2482421875 6.1947265625 17.1 6.05
M 29.95 22.35
Q 29.9517578125 22.5552734375 30.1 22.7 30.2232421875 22.8263671875 30.4 22.85 30.4611328125 22.8833984375 30.55 22.95 30.922265625 23.140234375 31.6 23.55 31.812890625 23.678125 32 23.6 32.220703125 23.589453125 32.3 23.4 32.4283203125 23.2375 32.35 23 32.3390625 22.8296875 32.15 22.7 31.4275390625 22.259765625 31.05 22.05 30.8341796875 21.9375 30.7 21.9 30.6068359375 21.850390625 30.55 21.85 30.3650390625 21.8197265625 30.25 21.85 29.96015625 22.0052734375 29.95 22.35
M 22.2 19.8
Q 22.1220703125 19.6240234375 21.9 19.55 21.1349609375 19.3736328125 20.05 19 18.9974609375 18.673828125 18.5 18.5 18.01484375 18.3458984375 16.05 18.4 15.86796875 18.402734375 15.7 18.55 15.58828125 18.709765625 15.6 18.9 15.6025390625 19.1318359375 15.75 19.25 15.909765625 19.4115234375 16.1 19.4 17.7853515625 19.3541015625 18.2 19.45 18.7025390625 19.6259765625 19.75 19.95 20.86484375 20.3259765625 21.65 20.5 21.8732421875 20.5783203125 22.05 20.45 22.226171875 20.3716796875 22.25 20.15 22.3287109375 19.9763671875 22.2 19.8
M 20.35 17.25
Q 21.0369140625 17.7873046875 21.55 18.2 22.3044921875 18.8333984375 23.25 18.9 23.475 18.9123046875 23.6 18.75 23.7837890625 18.634375 23.8 18.4 23.8125 18.2248046875 23.65 18.05 23.5345703125 17.91640625 23.3 17.9 22.6953125 17.8666015625 22.2 17.45 21.662890625 17.0126953125 20.95 16.45 20.7953125 16.3236328125 20.6 16.35 20.38671875 16.380859375 20.25 16.55 20.1234375 16.704296875 20.15 16.9 20.18125 17.1130859375 20.35 17.25
M 20.95 14.2
Q 21.1837890625 14.183984375 21.3 14 21.4625 13.87578125 21.45 13.65 21.4337890625 13.4666015625 21.25 13.3 20.0935546875 12.2654296875 19.85 12.35 19.6447265625 12.3517578125 19.5 12.5 19.3517578125 12.6447265625 19.35 12.85 19.3517578125 13.0552734375 19.5 13.2 19.6447265625 13.3482421875 19.85 13.35 19.90078125 13.4296875 20.6 14.05 20.7744140625 14.212109375 20.95 14.2
M 30.1 1.2
Q 29.900390625 1.1580078125 29.7 1.25 28.5296875 1.741015625 27.95 1.75
L 27.9 1.75
Q 27.2166015625 1.8078125 26.35 2
L 26.35 2
Q 25.599609375 2.2751953125 24.65 2.55 24.44921875 2.6396484375 24.35 2.8 24.2583984375 3.00625 24.3 3.2 24.389453125 3.4005859375 24.55 3.5 24.756640625 3.59140625 24.95 3.5 25.900390625 3.2248046875 26.65 2.95 27.39296875 2.791796875 28 2.75 28.719140625 2.7380859375 30.1 2.15 30.2931640625 2.080078125 30.35 1.9 30.4419921875 1.7 30.35 1.5 30.280078125 1.30625 30.1 1.2
M 28.4 -2.3
Q 28.2013671875 -2.2828125 28.05 -2.15 27.93671875 -1.960546875 27.95 -1.75 27.9671875 -1.551171875 28.1 -1.45 28.2892578125 -1.2869140625 28.5 -1.3 29.63828125 -1.41015625 30.7 -1.7
L 30.7 -1.65
Q 31.5560546875 -1.820703125 32.25 -1.45 32.882421875 -1.0357421875 32.95 -1 32.8921875 -0.9888671875 32.7 -0.8 32.346875 -0.4982421875 31.55 -0.5 31.3447265625 -0.4982421875 31.2 -0.35 31.0517578125 -0.2052734375 31.05 0 31.0517578125 0.2052734375 31.2 0.35 31.3447265625 0.4982421875 31.55 0.5 32.8537109375 0.4982421875 33.4 -0.1 34.130078125 -0.83359375 33.9 -1.25 33.92421875 -1.5603515625 32.75 -2.3 31.7435546875 -2.8791015625 30.5 -2.65
L 30.45 -2.65
Q 29.4615234375 -2.3900390625 28.4 -2.3
M 22.1 -0.75
Q 21.9533203125 -0.8775390625 21.75 -0.85 21.5578125 -0.804296875 21.45 -0.65 21.3224609375 -0.4541015625 21.35 -0.25 21.3962890625 -0.0578125 21.55 0.05 22.228515625 0.5388671875 23.15 0.35 23.7501953125 0.218359375 24.35 0.3 25.1294921875 0.453515625 26.45 0.45 27.7837890625 0.4990234375 28.4 0.55 29.1736328125 0.6578125 30.4 0.55 30.598046875 0.5328125 30.7 0.35 30.86328125 0.2109375 30.85 0 30.8328125 -0.1984375 30.65 -0.35 30.511328125 -0.4630859375 30.3 -0.45 29.2263671875 -0.3578125 28.55 -0.45
L 28.55 -0.45
Q 27.8908203125 -0.5 26.5 -0.55
L 26.5 -0.55
Q 25.26328125 -0.5548828125 24.55 -0.7
L 24.5 -0.7
Q 23.7375 -0.8158203125 22.95 -0.65 22.471484375 -0.5388671875 22.1 -0.75 Z"/>
</g>

<g id="body_0_Layer0_0_FILL">
<path fill="#000000" stroke="none" d="
M 26.2 27.85
Q 26.25 27.25 25.85 26.85 25.55 26.5 24.95 26.45 24.4 26.5 24 26.75 23.6 27.15 23.55 27.7 23.55 28.25 23.9 28.65 24.3 29.05 24.85 29.05 25.35 29.1 25.75 28.7 26.2 28.4 26.2 27.85
M 18.95 27.45
Q 19 27 18.65 26.6 18.25 26.2 17.8 26.15 17.15 26.1 16.7 26.5 16.35 26.75 16.25 27.3 16.2 27.85 16.6 28.3 17 28.65 17.55 28.7 18.05 28.7 18.5 28.45 18.9 28 18.95 27.45
M 16.9 22.95
Q 16.45 23.35 16.45 23.95 16.4 24.4 16.6 24.75 16.7 24.8 16.8 24.85 17.1 25.25 17.65 25.3 18.15 25.35 18.6 25.05 18.7 25 18.75 24.9 19.05 24.55 19.05 24.1 19.15 23.5 18.8 23.1 18.5 22.8 17.95 22.65 17.3 22.7 16.9 22.95
M 19.15 19.55
Q 18.75 19.15 18.25 19.15 17.7 19.05 17.25 19.45 16.85 19.75 16.75 20.3 16.75 20.9 17.05 21.25 17.35 21.7 18 21.75 18.55 21.8 18.95 21.4 19.35 21.1 19.35 20.55 19.45 19.95 19.15 19.55
M 13.8 23.05
Q 14.2 22.65 14.25 22.15 14.3 21.6 13.9 21.15 13.55 20.75 13.1 20.7 12.45 20.65 12.05 21.05 11.6 21.4 11.55 21.95 11.5 22.5 11.9 22.95 12.2 23.3 12.8 23.4 13.35 23.4 13.8 23.05
M 6.15 15.6
Q 5.8 15.95 5.75 16.35 5.95 17.6 7.25 17.75 7.7 17.7 8.1 17.35 8.45 17 8.6 16.45 8.45 15.95 8.15 15.55 7.75 15.15 7.15 15.2 6.6 15.3 6.15 15.6
M 9.4 13.9
Q 9.35 14.35 9.75 14.75 10.15 15.15 10.7 15.1 11.3 15.1 11.7 14.65 12.15 14.35 12.2 13.75 12.15 13.25 11.85 12.9 11.4 12.55 10.85 12.5 10.3 12.55 9.85 12.9 9.4 13.35 9.4 13.9
M 13.65 6.6
Q 12.5 7.45 12.35 8.9 12.25 10.2 13.2 11.2 14.1 12.3 15.45 12.35 16.85 12.5 17.9 11.65 18.95 10.65 19.1 9.3 19.15 7.95 18.25 6.95 17.4 5.95 16.1 5.8 14.65 5.7 13.65 6.6
M 11.45 4.55
Q 11.45 4.05 11.1 3.7 10.7 3.35 10.1 3.3 9.5 3.35 9.1 3.7 8.7 4.15 8.6 4.65 8.6 5.2 9 5.6 9.45 5.95 10.1 5.9 10.55 5.95 10.95 5.5 11.35 5.1 11.45 4.55
M 34.7 14.3
Q 34.35 13.9 33.75 13.8 33.2 13.75 32.7 14.05 32.35 14.35 32.25 14.85 32.25 15.45 32.6 15.85 32.95 16.3 33.5 16.4 34.05 16.45 34.55 16.15 34.95 15.8 35 15.3 35 14.75 34.7 14.3
M 36 17.1
Q 35.6 17.5 35.5 17.95 35.45 18.5 35.85 18.9 36.1 19.3 36.55 19.45 37.9 19.4 38.25 18.2 38.3 17.8 38 17.4 37.55 17 37.05 16.85 36.45 16.8 36 17.1
M 29.3 23.85
Q 29.75 24.3 30.25 24.3 30.85 24.35 31.25 23.95 31.65 23.6 31.7 23.05 31.7 22.5 31.35 22.1 30.95 21.7 30.4 21.65 29.85 21.65 29.5 22 29.05 22.4 29 22.95 29 23.5 29.3 23.85
M 24.1 20.75
Q 24.05 21.3 24.45 21.65 24.8 22.1 25.35 22.1 25.9 22.15 26.35 21.75 26.75 21.4 26.75 20.85 26.85 20.3 26.4 19.9 26.1 19.5 25.5 19.45 24.95 19.45 24.55 19.8 24.1 20.2 24.1 20.75
M 24.35 23.4
Q 23.95 23.75 23.95 24.3 23.9 24.75 24.15 25.15 24.2 25.2 24.25 25.3 24.65 25.65 25.15 25.7 25.7 25.7 26.1 25.35 26.15 25.3 26.3 25.25 26.55 24.9 26.6 24.45 26.6 23.85 26.25 23.5 25.85 23.1 25.3 23.05 24.75 23.05 24.35 23.4
M 23.05 16.4
Q 22.65 16.05 22.1 16 21.55 16 21.1 16.4 20.7 16.8 20.65 17.35 20.6 17.8 21 18.25 21.45 18.6 22 18.6 22.6 18.55 22.95 18.15 23.4 17.8 23.45 17.2 23.45 16.7 23.05 16.4
M 21.5 2.35
Q 21.45 1.85 21.15 1.55 20.7 1.15 20.15 1.2 19.5 1.15 19.15 1.6 18.75 1.95 18.75 2.55 18.65 3 19.1 3.4 19.5 3.8 20.1 3.8 20.65 3.75 21.05 3.3 21.4 3.05 21.5 2.35
M 27.4 2.95
Q 27.4 2.4 27.1 2 26.75 1.55 26.15 1.5 25.6 1.4 25.1 1.75 24.7 2 24.65 2.5 24.65 3.1 24.95 3.5 25.35 3.95 25.85 4.05 26.45 4.1 26.9 3.8 27.35 3.45 27.4 2.95
M 32.75 10
Q 32.8 8.6 31.85 7.6 30.95 6.6 29.55 6.5 28.15 6.5 27.15 7.4 26.1 8.3 26.05 9.65 26 11.05 26.9 12.05 27.8 13.05 29.2 13.1 30.55 13.2 31.65 12.25 32.7 11.35 32.75 10
M 32 1.35
Q 32.05 0.8 31.65 0.4 31.35 -0.05 30.75 -0.1 30.25 -0.2 29.7 0.15 29.35 0.4 29.3 0.9 29.25 1.5 29.6 1.9 29.9 2.4 30.45 2.45 31.05 2.5 31.5 2.2 32 1.85 32 1.35
M 36.75 5.3
Q 36.4 4.85 35.8 4.8 35.25 4.7 34.75 5.05 34.35 5.3 34.3 5.8 34.3 6.4 34.6 6.8 35 7.3 35.5 7.35 36.1 7.45 36.55 7.1 37 6.8 37.05 6.25 37.05 5.7 36.75 5.3
M 30 -5
Q 29.6 -4.7 29.5 -4.2 29.5 -3.6 29.8 -3.25 30.2 -2.75 30.7 -2.65 31.3 -2.6 31.8 -2.95 32.2 -3.25 32.25 -3.75 32.25 -4.3 31.95 -4.75 31.6 -5.2 31 -5.25 30.45 -5.3 30 -5
M 16.8 -0.55
Q 16.4 -0.9 15.8 -0.95 15.25 -0.9 14.85 -0.55 14.45 -0.1 14.35 0.4 14.35 0.9 14.75 1.3 15.15 1.7 15.75 1.65 16.3 1.65 16.7 1.2 17.1 0.85 17.2 0.3 17.2 -0.2 16.8 -0.55
M 17.3 -5.65
Q 16.8 -6.05 16.35 -6.05 15.7 -6.05 15.3 -5.65 14.85 -5.25 14.85 -4.7 14.8 -4.2 15.2 -3.8 15.65 -3.5 16.2 -3.4 16.7 -3.45 17.2 -3.85 17.6 -4.25 17.6 -4.85 17.6 -5.35 17.3 -5.65 Z"/>
</g>

<path id="wing_broken_flap_0_Layer1_0_1_STROKES" stroke="#000000" stroke-width="1" stroke-linejoin="round" stroke-linecap="round" fill="none" d="
M 6.7 3.5
Q 28 -28.1 57.5 -12.6 40.1 -11.75 48.15 5.9 33.7 -7.7 31.05 12.8 24.85 2.1 7.8 9.45
L 6.7 3.5 Z"/>

<path id="wing_flap_0_Layer1_0_1_STROKES" stroke="#000000" stroke-width="1" stroke-linejoin="round" stroke-linecap="round" fill="none" d="
M 5.6 5.05
Q 27.75 -27.8 58.4 -11.7 40.25 -10.8 48.7 7.55 33.65 -6.6 30.9 14.75 24.4 3.6 6.7 11.25
L 5.6 5.05 Z"/>

<path id="body_0_Layer5_0_1_STROKES" stroke="#000000" stroke-width="2" stroke-linejoin="round" stroke-linecap="round" fill="none" d="
M 0.45 19.3
Q -0.5 15.85 0.35 11.7 1.35 5.4 4.1 0.85
L -0.55 -21.75 11.7 -6.8
Q 18.65 -10.25 21.8 -10.1 24.9 -10 26.15 -9.6 27.4 -9.25 28.45 -8.6 29.55 -8.1 30.9 -7.2
M 33.65 -6.95
L 44.4 -22.5 43.05 2.2
Q 44.5 7 45.05 13.7 44.95 14.4 45.05 15.4 45.05 20.45 43.05 23.55 41.4 26.15 38.35 27.35 31.7 29.8 20.8 30.1 13.15 30.3 8.25 28.15 6.05 27 4.4 25.6 1.35 22.9 0.45 19.3
M 30.9 -7.2
Q 31.7 -6.85 32.6 -6.15
L 33.05 -6.6"/>

<path id="body_0_Layer4_0_1_STROKES" stroke="#000000" stroke-width="1" stroke-linejoin="round" stroke-linecap="round" fill="none" d="
M 38.15 8.5
L 38.5 6.45
M 39.85 8.4
L 40.85 7.1
M 24.55 21.65
Q 22.65 26.85 21 21.5
L 19.2 21.35
M 26.55 21.75
L 24.55 21.65
M 5.85 9.95
L 5.05 8.8
M 7.7 10.05
L 7.25 7.9"/>

<path id="body_0_Layer4_0_2_STROKES" stroke="#FFFFFF" stroke-width="1" stroke-linejoin="round" stroke-linecap="round" fill="none" d="
M 26.55 21.75
L 25.6 24.1 24.55 21.65
M 21 21.5
L 19.45 23.65 19.2 21.35"/>

<path id="body_0_Layer2_0_1_STROKES" stroke="#000000" stroke-width="1" stroke-linejoin="round" stroke-linecap="round" fill="none" d="
M 21.05 -8.95
Q 21 -8.8 21 -8.65
L 20.8 -5.65
Q 20.8 -4.3 21.7 -3.35 22.6 -2.4 24 -2.35 25.3 -2.3 26.3 -3.15 27.35 -4 27.4 -5.35
L 27.55 -8.3
Q 27.55 -8.35 27.55 -8.4 27.55 -9.75 26.65 -10.6 25.75 -11.55 24.45 -11.6 23.05 -11.65 22.05 -10.8 21.2 -10.05 21.05 -8.95 14.85 -8.3 10.05 -3.55 6.4 0.05 4.9 4.75 5.65 4.85 6.2 5.4 6.9 6.1 6.85 7
L 6.85 7.05
Q 6.8 7.95 6.05 8.65 5.35 9.3 4.45 9.25
L 4.05 9.2
Q 3.9 9.95 3.85 10.75 3.6 15.95 5.3 20.25
M 38.75 0.35
Q 37.85 -1.05 36.8 -2.4 32.9 -7.05 27.55 -8.4
M 41.1 6.65
Q 40.35 6.75 39.8 7.25 39.05 7.85 38.95 8.85
L 38.95 8.9
Q 38.9 9.9 39.6 10.6 40.35 11.3 41.35 11.35
L 41.55 11.4 45.8 11.6
Q 46.8 11.65 47.45 10.95 48.2 10.35 48.25 9.35
L 48.25 9.3
Q 48.3 8.35 47.7 7.55 47.05 6.9 46.05 6.85
L 41.55 6.65
Q 41.3 6.65 41.1 6.65 40.45 3.3 38.75 0.35
M 41.55 11.4
Q 41.55 11.95 41.5 12.5 41.05 21.05 35.2 26.75 29.4 32.6 21.6 32.25 13.8 31.9 8.55 25.65 6.45 23.15 5.3 20.25
M 4.05 9.2
L -1 8.95
Q -1.95 8.9 -2.65 8.25 -3.3 7.55 -3.25 6.6
L -3.25 6.55
Q -3.2 5.65 -2.5 5.05 -1.75 4.4 -0.8 4.45
L 4.6 4.7
Q 4.75 4.7 4.9 4.75"/>
</defs>

<g transform="matrix( 4.4202728271484375, 0, 0, 4.4202728271484375, 300.6,225.35) ">
<g transform="matrix( 1, 0, 0, 1, 0,0) ">
<use xlink:href="#wing_broken_flap_0_Layer1_0_FILL"/>

<use xlink:href="#wing_broken_flap_0_Layer1_0_1_STROKES"/>
</g>

<g transform="matrix( 1, 0, 0, 1, 0,0) ">
<use xlink:href="#wing_broken_flap_0_Layer0_0_FILL"/>
</g>
</g>

<g transform="matrix( -4.4202728271484375, 0, 0, 4.4202728271484375, 266.15,225.7) ">
<g transform="matrix( 1, 0, 0, 1, 0,0) ">
<use xlink:href="#wing_flap_0_Layer1_0_FILL"/>

<use xlink:href="#wing_flap_0_Layer1_0_1_STROKES"/>
</g>

<g transform="matrix( 1, 0, 0, 1, 0,0) ">
<use xlink:href="#wing_flap_0_Layer0_0_FILL"/>
</g>
</g>

<g transform="matrix( 3.5780181884765625, 0, 0, 3.5780181884765625, 198.5,190.7) ">
<g transform="matrix( 1, 0, 0, 1, 0,0) ">
<use xlink:href="#body_0_Layer5_0_FILL"/>

<use xlink:href="#body_0_Layer5_0_1_STROKES"/>
</g>

<g transform="matrix( 1, 0, 0, 1, 0,0) ">
<use xlink:href="#body_0_Layer4_0_FILL"/>

<use xlink:href="#body_0_Layer4_0_1_STROKES"/>

<use xlink:href="#body_0_Layer4_0_2_STROKES"/>
</g>

<g transform="matrix( 1, 0, 0, 1, 0,0) ">
<use xlink:href="#body_0_Layer3_0_FILL"/>
</g>

<g transform="matrix( 1, 0, 0, 1, 0,0) ">
<use xlink:href="#body_0_Layer2_0_FILL"/>

<use xlink:href="#body_0_Layer2_0_1_STROKES"/>
</g>

<g transform="matrix( 1, 0, 0, 1, 0,0) ">
<use xlink:href="#body_0_Layer1_0_FILL"/>

<use xlink:href="#body_0_Layer1_0_STROKES_1_FILL"/>
</g>

<g transform="matrix( 1, 0, 0, 1, 0,0) ">
<use xlink:href="#body_0_Layer0_0_FILL"/>
</g>
</g>
</svg>
