
<svg xmlns="http://www.w3.org/2000/svg" version="1.1" xmlns:xlink="http://www.w3.org/1999/xlink" preserveAspectRatio="none" x="0px" y="0px" width="560px" height="544px" viewBox="0 0 560 544">
<defs>
<filter id="Filter_1" x="-20%" y="-20%" width="140%" height="140%" color-interpolation-filters="sRGB">
<feColorMatrix in="SourceGraphic" type="matrix" values="-1.0722049925624746 0.28937826440295833 1.7828267281595163 0 0 0.584820347119408 0.782304290886134 -0.36712463800554207 0 0 -1.0662570851956243 2.8281317355970406 -0.7618746504014163 0 0 0 0 0 1 0 " result="result1"/>
</filter>

<filter id="Filter_2" x="-20%" y="-20%" width="140%" height="140%" color-interpolation-filters="sRGB">
<feColorMatrix in="SourceGraphic" type="matrix" values="0.6706175941604369 1.1582645511166443 -0.8288821452770813 0 0 0.00844482678992331 0.6754143234363853 0.31614084977369133 0 0 0.8877771020972879 -0.19382701199037855 0.30604990989309067 0 0 0 0 0 1 0 " result="result1"/>
</filter>

<filter id="Filter_3" x="-20%" y="-20%" width="140%" height="140%" color-interpolation-filters="sRGB">
<feColorMatrix in="SourceGraphic" type="matrix" values="1.5047087715268628 0.6092246795723755 -1.113933451099238 0 0 -0.33746982650724916 1.0491264094535975 0.2883434170536518 0 0 0.7394232266572327 -1.046643133357957 1.3072199067007242 0 0 0 0 0 1 0 " result="result1"/>
</filter>

<g id="leg_0_Layer2_0_FILL">
<path fill="#000000" stroke="none" d="
M 6.45 -15.4
Q 7.85 -16.8 8.3 -18.55
L 7.15 -18.9
Q 6.8 -17.45 5.6 -16.35 4.75 -15.5 3.7 -15.1 3.35 -12.6 3.3 -11.45 2.8 -5.3 3.1 0.65 3.2 2.6 3.3 4.05 3.35 5.1 3.4 5.95 3.45 7.65 3.55 8.6 3.65 10.55 4.75 13.2 4.85 13.55 4.9 13.75 5.05 13.95 5.2 14.1 5.9 15.4 6.15 17.2 6.35 19.05 6 20.25 5.6 21.5 4.75 21.55 3.9 21.65 3.6 21.4 3.25 21.2 2.05 20.75
L 0.65 20.65
Q -2.05 21.55 -2.9 17.1 -2.7 15.05 -2.5 13.2 -2 10.35 -2 8.45 -2 7.6 -2 5.95 -2.05 5.1 -2.05 4.05 -2.1 3.3 -2.1 2.35 -2.2 2.4 -2.25 2.4 -2.6 2.4 -3.35 1.3 -4.1 0.1 -3.8 -1.85 -3.55 -3.8 -3.1 -4.75 -2.65 -5.7 -2.25 -5.35 -2.25 -7.65 -1.85 -10.1 -2.05 -10.65 -2.25 -11.4 -4.2 -17.95 -4.2 -20.25 -4.2 -21.3 -3.85 -22.2
L -5 -22.55
Q -5.4 -21.5 -5.05 -18.05 -4.75 -14.6 -4 -12.75 -3.25 -10.95 -3.35 -10.4 -3.45 -9.9 -3.3 -6 -3.7 -5.9 -4.1 -4.65 -4.6 -3.4 -4.65 -1.5 -4.7 0.35 -4.2 1.6 -3.7 2.85 -3.3 3 -3.3 3.5 -3.3 4.05 -3.3 4.8 -3.3 5.55 -3.3 5.75 -3.3 5.95 -3.35 6.8 -3.35 7.6 -3.8 10.55 -4.2 13.2 -4.4 15.4 -4.55 17.45 -3.25 24.65 3.25 22.5
L 4.5 22.9
Q 5.15 23.25 5.85 22.95 6.5 22.8 7.05 21.3 7.5 19.9 7.3 17.75 7 15.5 6.55 14.75 6.35 14.35 6.05 13.2 5.75 12.55 5.35 11.5 4.9 9.9 4.7 8.25 4.6 7.5 4.5 5.95 4.4 5.1 4.35 4.05 4.25 2.7 4.15 0.9 3.85 -4.5 4.75 -14.15 5.65 -14.6 6.45 -15.4
M 2.15 -14.75
Q 2.1 -14.75 2.05 -14.7
L 2 -14.6
Q 2.05 -14.65 2.15 -14.75 Z"/>

<path fill="#FD1313" stroke="none" d="
M 1.95 -14.55
L 2 -14.6 2.05 -14.7 4.6 -19.65
Q 1.9 -23.05 -3.85 -22.2 -4.2 -21.3 -4.2 -20.25 -4.2 -17.95 -2.25 -11.4 -2.05 -10.65 -1.85 -10.1 -2.25 -7.65 -2.25 -5.35 -2.65 -5.7 -3.1 -4.75 -3.55 -3.8 -3.8 -1.85 -4.1 0.1 -3.35 1.3 -2.6 2.4 -2.25 2.4 -2.2 2.4 -2.1 2.35 -2.1 3.3 -2.05 4.05 -2.05 5.1 -2 5.95 -2 7.6 -2 8.45 -2 10.35 -2.5 13.2 -2.7 15.05 -2.9 17.1 -2.05 21.55 0.65 20.65 1.4 17.2 1.65 13.2 1.9 10.6 1.55 7.6 1.55 6.8 1.55 5.95 1.55 5.75 1.55 5.55 1.55 4.8 1.55 4.05 1.6 -4.45 1.95 -14.55 Z"/>

<path fill="#CC0000" stroke="none" d="
M 2 -14.6
L 1.95 -14.55
Q 1.6 -4.45 1.55 4.05 1.55 4.8 1.55 5.55 1.55 5.75 1.55 5.95 1.55 6.8 1.55 7.6 1.9 10.6 1.65 13.2 1.4 17.2 0.65 20.65
L 2.05 20.75
Q 3.25 21.2 3.6 21.4 3.9 21.65 4.75 21.55 5.6 21.5 6 20.25 6.35 19.05 6.15 17.2 5.9 15.4 5.2 14.1 5.05 13.95 4.9 13.75 4.85 13.55 4.75 13.2 3.65 10.55 3.55 8.6 3.45 7.65 3.4 5.95 3.35 5.1 3.3 4.05 3.2 2.6 3.1 0.65 2.8 -5.3 3.3 -11.45 3.35 -12.6 3.7 -15.1 4.75 -15.5 5.6 -16.35 6.8 -17.45 7.15 -18.9
L 4.6 -19.65 2.05 -14.7
Q 2.1 -14.75 2.15 -14.75 2.05 -14.65 2 -14.6 Z"/>
</g>

<g id="leg_0_Layer1_0_FILL">
<path fill="#000000" stroke="none" d="
M 6.65 17.65
L 1.5 18.45 -4.15 16.95 -6.2 18.45
Q -9.2 20.35 -9.3 23.3 -9.45 26.25 -8.1 26.35 -6.75 26.4 -4.65 26.65 -2.55 26.85 0.25 26.8 3.55 26.7 4.7 25.75 7.65 23.25 7.6 20.95 7.55 19.15 6.65 17.65 Z"/>
</g>

<g id="leg_0_Layer0_0_FILL">
<path fill="#000000" stroke="none" d="
M -0.15 1.9
Q -0.1 1.85 -0.1 1.8 -0.2 1.7 -0.25 1.65 -0.3 1.6 -0.35 1.65 -0.45 1.65 -0.5 1.65
L -0.55 1.7
Q -0.6 1.8 -0.5 1.9 -0.55 1.9 -0.5 1.95
L -0.45 2
Q -0.4 2.05 -0.25 2.05 -0.2 2 -0.15 1.9
M -2.45 -2.7
Q -2.55 -2.55 -2.45 -2.45 -2.45 -2.35 -2.3 -2.3
L -2.25 -2.25
Q -2.15 -2.2 -2.1 -2.25 -2 -2.25 -1.9 -2.4 -1.85 -2.5 -1.9 -2.6 -1.9 -2.7 -2 -2.8 -2.1 -2.85 -2.15 -2.8 -2.2 -2.85 -2.25 -2.8 -2.4 -2.8 -2.45 -2.7
M -0.95 -2
Q -1.05 -1.9 -0.95 -1.75 -0.95 -1.55 -0.85 -1.5 -0.75 -1.45 -0.65 -1.5 -0.6 -1.45 -0.5 -1.45 -0.45 -1.5 -0.35 -1.6 -0.3 -1.7 -0.25 -1.85 -0.35 -2.05 -0.5 -2.1 -0.6 -2.15 -0.7 -2.15 -0.9 -2.1 -0.95 -2
M -1.8 1.3
Q -1.75 1.15 -1.75 1 -1.8 0.9 -1.9 0.85 -2 0.75 -2.15 0.75 -2.25 0.8 -2.3 0.95 -2.4 1.05 -2.4 1.15 -2.35 1.3 -2.25 1.4 -2.15 1.45 -2 1.4 -1.9 1.4 -1.8 1.3
M -1.7 -0.3
Q -1.65 -0.45 -1.65 -0.55 -1.7 -0.7 -1.8 -0.75 -1.9 -0.85 -2 -0.75 -2.1 -0.75 -2.15 -0.6 -2.25 -0.5 -2.25 -0.4 -2.2 -0.3 -2.1 -0.2 -2 -0.15 -1.9 -0.2 -1.8 -0.2 -1.7 -0.3
M 0.3 -0.25
Q 0.25 -0.35 0.15 -0.4 0 -0.5 -0.1 -0.5 -0.2 -0.4 -0.25 -0.3 -0.35 -0.2 -0.35 -0.1 -0.35 0 -0.2 0.1 -0.1 0.15 0.05 0.15 0.15 0.1 0.25 0 0.3 -0.1 0.3 -0.25
M 0.05 -3.35
L 0.65 -3.5 0.3 -1.6
Q 0.25 -1.5 0.35 -1.4 0.4 -1.25 0.45 -1.2
L 1.85 -0.25 0.05 0.3
Q -0.1 0.35 -0.15 0.45 -0.2 0.5 -0.25 0.6 -0.25 0.65 -0.25 0.75
L 0.5 2.8 -0.55 2.15 -1.3 1.6
Q -1.4 1.55 -1.55 1.55 -1.65 1.45 -1.75 1.55
L -2.8 2.2 -2.9 2.25 -2.9 3.1 -1.55 2.3 0.95 4.05
Q 1.05 4.15 1.2 4.15 1.3 4.1 1.4 4 1.5 4 1.5 3.85 1.55 3.75 1.5 3.65
L 0.55 0.9 2.65 0.25
Q 2.8 0.2 2.9 0.05 2.95 -0.05 2.9 -0.15 2.9 -0.3 2.75 -0.35
L 1.05 -1.65 1.5 -3.8
Q 1.5 -3.95 1.45 -4.05 1.4 -4.2 1.3 -4.2 1.25 -4.25 1.1 -4.3
L -1.35 -3.85 -2.6 -6.6
Q -2.6 -6.2 -2.9 -5.25
L -2.9 -5.05 -2.45 -5.15 -2 -3.65 -1.95 -3.45
Q -1.95 -3.3 -1.85 -3.25 -1.8 -3.2 -1.75 -3.2
L -1.7 -3.15
Q -1.55 -3.05 -1.4 -3.1
L 0.05 -3.35 Z"/>

<path fill="#D2CEB5" stroke="none" d="
M -2 -3.65
L -2.45 -5.15 -2.9 -5.05
Q -5.1 -0.3 -2.9 2.25
L -2.8 2.2
Q -2.95 0.25 -2.25 -2.25
L -2.3 -2.3
Q -2.45 -2.35 -2.45 -2.45 -2.55 -2.55 -2.45 -2.7 -2.4 -2.8 -2.25 -2.8 -2.2 -2.85 -2.15 -2.8
L -2 -3.65 Z"/>

<path fill="#F9E8C6" stroke="none" d="
M -1.7 -3.15
L -1.75 -3.2
Q -1.8 -3.2 -1.85 -3.25 -1.95 -3.3 -1.95 -3.45
L -2 -3.65 -2.15 -2.8
Q -2.1 -2.85 -2 -2.8 -1.9 -2.7 -1.9 -2.6 -1.85 -2.5 -1.9 -2.4 -2 -2.25 -2.1 -2.25 -2.15 -2.2 -2.25 -2.25 -2.95 0.25 -2.8 2.2
L -1.75 1.55
Q -1.65 1.45 -1.55 1.55 -1.4 1.55 -1.3 1.6
L -0.55 2.15
Q -0.55 2 -0.5 1.95 -0.55 1.9 -0.5 1.9 -0.6 1.8 -0.55 1.7
L -0.5 1.65
Q -0.45 0.55 -1 -0.65
L -0.65 -1.5
Q -0.75 -1.45 -0.85 -1.5 -0.95 -1.55 -0.95 -1.75 -1.05 -1.9 -0.95 -2 -0.9 -2.1 -0.7 -2.15 -0.6 -2.15 -0.5 -2.1
L 0.05 -3.35 -1.4 -3.1
Q -1.55 -3.05 -1.7 -3.15
M -1.65 -0.55
Q -1.65 -0.45 -1.7 -0.3 -1.8 -0.2 -1.9 -0.2 -2 -0.15 -2.1 -0.2 -2.2 -0.3 -2.25 -0.4 -2.25 -0.5 -2.15 -0.6 -2.1 -0.75 -2 -0.75 -1.9 -0.85 -1.8 -0.75 -1.7 -0.7 -1.65 -0.55
M -1.75 1
Q -1.75 1.15 -1.8 1.3 -1.9 1.4 -2 1.4 -2.15 1.45 -2.25 1.4 -2.35 1.3 -2.4 1.15 -2.4 1.05 -2.3 0.95 -2.25 0.8 -2.15 0.75 -2 0.75 -1.9 0.85 -1.8 0.9 -1.75 1 Z"/>

<path fill="#CC0000" stroke="none" d="
M 0.65 -3.5
L 0.05 -3.35 -0.5 -2.1
Q -0.35 -2.05 -0.25 -1.85 -0.3 -1.7 -0.35 -1.6 -0.45 -1.5 -0.5 -1.45 -0.6 -1.45 -0.65 -1.5
L -1 -0.65
Q -0.45 0.55 -0.5 1.65 -0.45 1.65 -0.35 1.65 -0.3 1.6 -0.25 1.65 -0.2 1.7 -0.1 1.8 -0.1 1.85 -0.15 1.9 -0.2 2 -0.25 2.05 -0.4 2.05 -0.45 2
L -0.5 1.95
Q -0.55 2 -0.55 2.15
L 0.5 2.8 -0.25 0.75
Q -0.25 0.65 -0.25 0.6 -0.2 0.5 -0.15 0.45 -0.1 0.35 0.05 0.3
L 1.85 -0.25 0.45 -1.2
Q 0.4 -1.25 0.35 -1.4 0.25 -1.5 0.3 -1.6
L 0.65 -3.5
M 0.15 -0.4
Q 0.25 -0.35 0.3 -0.25 0.3 -0.1 0.25 0 0.15 0.1 0.05 0.15 -0.1 0.15 -0.2 0.1 -0.35 0 -0.35 -0.1 -0.35 -0.2 -0.25 -0.3 -0.2 -0.4 -0.1 -0.5 0 -0.5 0.15 -0.4 Z"/>
</g>

<g id="back_leg_0_Layer1_0_FILL">
<path fill="#CC0000" stroke="none" d="
M 9.1 -16
Q 9.05 -17.1 7.3 -15.3 2.9806640625 -21.2171875 -7.05 -17.45 -9.20703125 -20.550390625 -16.15 -18.95 -16 -17.55 -15.8 -15.55 -15.2 -9.6 -12.8 -7.85 -11.1 -6.6 -10.25 -6.05 -9.75 -5.75 -9.35 -5.55 -8.15 -4.9 -4.6 0.05 -1 4.9 -0.65 8.85 -0.3 12.8 -0.5 17.6 -0.7 22.4 -1.7 24.45 -2.75 26.4 -3.95 27.8
L -0.35 29.45 4.95 30.15 6.75 25.3
Q 3.5 19.7 3.5 16.75 3.45 14.05 3.9 10.9
L 3.8 10.9
Q 4.3 6.8 5.15 5.5 5.75 4.2 6.75 -0.9 7.35 -5.8 7.4 -8.45 7.45 -11.1 7.65 -13.2 7.85 -15.35 9.1 -16 Z"/>

<path fill="#000000" stroke="none" d="
M 7.4 -8.45
Q 7.35 -5.8 6.75 -0.9 5.75 4.2 5.15 5.5 4.3 6.8 3.8 10.9
L 3.9 10.9
Q 3.45 14.05 3.5 16.75 3.5 19.7 6.75 25.3
L 4.95 30.15 -0.35 29.45 -3.95 27.8
Q -2.75 26.4 -1.7 24.45 -0.7 22.4 -0.5 17.6 -0.3 12.8 -0.65 8.85 -1 4.9 -4.6 0.05 -8.15 -4.9 -9.35 -5.55 -9.75 -5.75 -10.25 -6.05 -11.1 -6.6 -12.8 -7.85 -15.2 -9.6 -15.8 -15.55 -16 -17.55 -16.15 -18.95
L -17.35 -18.95
Q -17.4 -11.9 -16.55 -10.15 -15.9 -8.75 -13.75 -6.9 -11.5 -5.1 -10.6 -4.4 -10.35 -4.2 -9.95 -3.7 -8.6 -2.45 -5.85 0.85 -2.25 5.3 -2 8.9 -1.8 12.45 -1.65 17.1 -1.6 21.65 -2.85 23.85 -4.1 26.05 -5.4 27.6 -5.6 27.75 -5.65 27.95 -5.6 28.15 -5.5 28.25 -5.4 28.45 -5.2 28.55
L -0.8 30.6
Q -0.75 30.6 -0.6 30.6
L 5.25 31.45
Q 5.45 31.4 5.7 31.35 5.85 31.3 5.9 31.05
L 8.05 25.5
Q 8.1 25.35 8.05 25.25 8.05 25.1 8.05 25.05 4.85 19.55 4.75 16.65 4.75 14.2 5.15 11.05
L 5.15 11
Q 5.55 7.25 6.25 6.05 7.05 4.7 7.95 -0.75 8.7 -5.65 8.85 -8.85 8.9 -10.7 9.1 -14.55
L 9.1 -14.6
Q 9.1 -14.85 9.1 -16 7.85 -15.35 7.65 -13.2 7.45 -11.1 7.4 -8.45 Z"/>
</g>

<g id="back_leg_0_Layer0_0_FILL">
<path fill="#000000" stroke="none" d="
M 4.4 35.15
Q 5.55 34.35 6.25 33.65 6.25 32.5 6.3 31.55 6.35 30.35 6.3 29.25 6.15 28.3 6.8 27.35
L 0.3 28.65 -5.75 27.6 -7.8 29.2
Q -8.55 29.9 -9.05 30.65 -10.55 32.35 -11.1 33.4 -11.8 34.45 -11 35.25 -10.2 36.1 -7.75 36.25 -5.3 36.35 -4.1 36.4 -3 36.4 -0.1 36.2 3.3 35.85 4.4 35.15 Z"/>
</g>

<g id="tail_0_Layer0_0_FILL">
<path fill="#000000" stroke="none" d="
M 11.85 -13.2
Q 11.727734375 -14.9873046875 11.65 -15.5 11.2306640625 -18.7796875 8 -20.4 5.5859375 -21.605859375 -0.4 -23.55 -4.550390625 -25.654296875 -6.55 -23.95 -6.8642578125 -23.7142578125 -7.1 -23.4 -7.814453125 -22.64765625 -7.95 -21.7 -7.9708984375 -21.53828125 -7.95 -21.4
L -7.95 -21.35
Q -7.98984375 -20.9453125 -7.75 -20.65
L -5.4 -17.75
Q -5.1130859375 -16.796484375 -4.9 -15.55 -4.9046875 -15.3716796875 -4.85 -15.2 -4.839453125 -15.1623046875 -4.85 -15.15 -4.43984375 -12.5076171875 -4.9 -10.7
L -4.9 -10.7
Q -6.60859375 -3.535546875 -6.6 0.9 -6.6130859375 3.3626953125 -5.3 6.6 -3.308984375 11.380859375 -3.2 11.7
L -3.2 11.75
Q -2.3763671875 14.411328125 0.2 15.65 0.3109375 15.6953125 0.4 15.7
L 3.2 16.45
Q 3.269140625 16.4654296875 3.3 16.45 6.480078125 17.0349609375 9.2 16.2
L 9.25 16.2
Q 10.4896484375 15.823046875 11.65 15.15
L 11.7 15.15
Q 16.357421875 12.3859375 15.5 10.95 15.3126953125 9.9095703125 13.55 10.05 12.6333984375 10.104296875 10.95 10.65
L 11 10.65
Q 8.834765625 11.328125 8.2 10.75 7.53203125 9.578125 7.35 4.75 7.3525390625 4.7009765625 7.35 4.65 7.2923828125 4.2203125 6.95 2.35
L 5.4 0.2
Q 6.696484375 -2.5462890625 8.9 -3.85
L 7.1 -9.35 11.85 -13.2
M 7.1 -18.6
Q 9.628125 -17.265234375 9.7 -14.45
L 6.65 -11.65 3.4 -10.3 4.8 -6.5 4.3 -6.9 6.25 -4.75 4 -2.35 2.4 2.5 5.25 3.8
Q 5.26796875 4.3888671875 5.35 4.95 5.576953125 10.5345703125 6.55 11.85 7.644921875 13.7779296875 11.6 12.55
L 11.6 12.55
Q 12.312890625 12.3171875 12.85 12.15 12.098046875 12.616015625 10.7 13.45
L 10.7 13.4
Q 9.71015625 13.9767578125 8.65 14.3
L 8.65 14.3
Q 8.029296875 14.4880859375 7.35 14.55 5.2955078125 14.8814453125 2.95 14.3
L 3.2 14.4 3 14.35
Q 2.953125 14.3208984375 2.9 14.3
L 2.85 14.3
Q 2.837109375 14.2873046875 2.8 14.25 2.7244140625 14.25546875 2.65 14.25
L 2 14.05 0.95 13.8
Q 0.9251953125 13.787109375 0.9 13.75 -0.751953125 12.8982421875 -1.3 11.15
L -1.3 11.15
Q -1.3908203125 10.819140625 -3.45 5.85 -4.5869140625 3.0373046875 -4.6 0.9 -4.5916015625 -3.35703125 -2.95 -10.2 -2.513671875 -11.7953125 -2.7 -13.95 -2.7232421875 -14.676171875 -2.85 -15.5 -2.8744140625 -15.6400390625 -2.95 -15.8 -3.1919921875 -17.3630859375 -3.55 -18.5 -3.6080078125 -18.676953125 -3.75 -18.85
L -5.95 -21.55
Q -5.8349609375 -21.8521484375 -5.6 -22.1 -5.546484375 -22.1484375 -5.5 -22.2 -5.4357421875 -22.2857421875 -5.35 -22.35 -5.2978515625 -22.3822265625 -5.25 -22.4 -3.94375 -23.0921875 -1.3 -21.75 -1.225 -21.7197265625 -1.15 -21.7 4.7443359375 -19.7791015625 7.1 -18.6 Z"/>

<path fill="#FFCC00" stroke="none" d="
M 0.9 13.75
Q 0.9251953125 13.787109375 0.95 13.8
L 2 14.05 -1.1 7.1 -1.3 0.1
Q 1.5 -3.45 -0.05 -10.75
L -2.7 -13.95
Q -2.513671875 -11.7953125 -2.95 -10.2 -4.5916015625 -3.35703125 -4.6 0.9 -4.5869140625 3.0373046875 -3.45 5.85 -1.3908203125 10.819140625 -1.3 11.15
L -1.3 11.15
Q -0.751953125 12.8982421875 0.9 13.75 Z"/>

<path fill="#FFF4CC" stroke="none" d="
M 5.35 4.95
Q 5.26796875 4.3888671875 5.25 3.8
L 2.4 2.5 2.75 7 4.1 11.45
Q 4.058984375 13.051171875 7.35 14.55 8.029296875 14.4880859375 8.65 14.3
L 8.65 14.3
Q 9.71015625 13.9767578125 10.7 13.4
L 10.7 13.45
Q 12.098046875 12.616015625 12.85 12.15 12.312890625 12.3171875 11.6 12.55
L 11.6 12.55
Q 7.644921875 13.7779296875 6.55 11.85 5.576953125 10.5345703125 5.35 4.95
M 3.25 -7.95
Q 4.1716796875 -6.6884765625 4 -6.4
L 2.15 -1.05 2.25 -0.5 4.5 -3.85 4 -2.35 6.25 -4.75 4.3 -6.9 5.65 -4.9 3.25 -7.95
M 9.7 -14.45
Q 9.628125 -17.265234375 7.1 -18.6 4.7443359375 -19.7791015625 -1.15 -21.7 -1.225 -21.7197265625 -1.3 -21.75 -3.94375 -23.0921875 -5.25 -22.4 0.21171875 -20.2927734375 4 -16.55 4.9427734375 -14.253515625 6.65 -11.65
L 9.7 -14.45 Z"/>

<path fill="#FEE481" stroke="none" d="
M 4.8 -6.5
L 3.4 -10.3 6.65 -11.65
Q 4.9427734375 -14.253515625 4 -16.55 0.21171875 -20.2927734375 -5.25 -22.4 -5.2978515625 -22.3822265625 -5.35 -22.35 -5.4357421875 -22.2857421875 -5.5 -22.2 -5.546484375 -22.1484375 -5.6 -22.1 -5.8349609375 -21.8521484375 -5.95 -21.55
L -3.75 -18.85
Q -3.6080078125 -18.676953125 -3.55 -18.5 -3.1919921875 -17.3630859375 -2.95 -15.8 -2.8744140625 -15.6400390625 -2.85 -15.5 -2.7232421875 -14.676171875 -2.7 -13.95
L -0.05 -10.75
Q 1.5 -3.45 -1.3 0.1
L -1.1 7.1 2 14.05 2.65 14.25
Q 2.7244140625 14.25546875 2.8 14.25 2.837109375 14.2873046875 2.85 14.3
L 2.9 14.3
Q 2.953125 14.3208984375 3 14.35
L 3.2 14.4 2.95 14.3
Q 5.2955078125 14.8814453125 7.35 14.55 4.058984375 13.051171875 4.1 11.45
L 2.75 7 2.4 2.5 4 -2.35 4.5 -3.85 2.25 -0.5 2.15 -1.05 4 -6.4
Q 4.1716796875 -6.6884765625 3.25 -7.95
L 5.65 -4.9 4.3 -6.9 4.8 -6.5 Z"/>
</g>

<g id="stand_body_0_Layer2_0_FILL">
<path fill="#000000" stroke="none" d="
M 10.35 -11.1
Q 8.5267578125 -11.1087890625 2.05 -11.95 -2.6283203125 -12.5611328125 -5.2 -14.35 -6.7138671875 -15.3916015625 -9.1 -17.85 -9.11171875 -17.888671875 -9.15 -17.95 -10.8515625 -19.3869140625 -11.85 -22.4 -11.9939453125 -22.8189453125 -13.55 -28.9 -14.7353515625 -33.6734375 -19 -42.05 -19.1904296875 -42.4123046875 -19.6 -42.55 -19.955859375 -42.6751953125 -20.35 -42.5 -20.6830078125 -42.3404296875 -20.85 -42
L -23.85 -34.25 -28.55 -26.35
Q -28.692578125 -26.09296875 -28.7 -25.85 -28.7056640625 -25.5462890625 -28.6 -25.3
L -25.1 -19.1
Q -25.049609375 -19.075 -25.05 -19.05 -20.9544921875 -12.80703125 -20 -10.55 -19.330078125 -9.0328125 -18.95 -5.25 -18.6025390625 -1.8990234375 -18.6 1.6 -18.603515625 9.8189453125 -15.25 14.55 -11.683203125 19.615234375 -7.6 19.15 -2.0033203125 20.7552734375 2 20.6 5.949609375 20.4533203125 9.95 19.85 13.81640625 19.25234375 16.05 19.05 19.35390625 18.739453125 24 16.95 28.1080078125 15.4056640625 29.95 13.85 31.8177734375 12.3193359375 33.15 10.15
L 33.15 10.15
Q 34.5103515625 7.954296875 34.4 2.8
L 34.4 2.75
Q 34.3998046875 2.4646484375 34.4 2.15 34.2482421875 -7.105859375 29.85 -12.05
L 29.85 -12.1
Q 26.3296875 -16.3080078125 15.6 -12.15 12.9279296875 -11.0998046875 10.35 -11.1
M 1.8 -9.95
Q 8.473046875 -9.09140625 10.35 -9.1 13.272265625 -9.1005859375 16.3 -10.3
L 16.3 -10.3
Q 25.3880859375 -13.794140625 28.35 -10.75
L 28.35 -10.75
Q 32.24140625 -6.2486328125 32.4 2.1 32.4 2.4509765625 32.4 2.8
L 32.4 2.8
Q 32.486328125 7.2513671875 31.4 9.15
L 31.45 9.1
Q 30.28203125 10.98046875 28.65 12.3 26.991796875 13.6943359375 23.3 15.1 18.9458984375 16.760546875 15.85 17.05 13.5833984375 17.24765625 9.65 17.85 5.750390625 18.4466796875 1.9 18.6 -1.9130859375 18.74140625 -7.3 17.2 -7.461328125 17.1369140625 -7.65 17.15 -10.7771484375 17.398828125 -13.6 13.4 -16.596484375 9.0806640625 -16.6 1.6 -16.59765625 -2.001171875 -16.95 -5.45 -17.369921875 -9.6673828125 -18.15 -11.35 -19.145703125 -13.69296875 -23.4 -20.15
L -23.35 -20.1 -26.55 -25.8 -23.6 -30.8 -22.1 -33.3
Q -22.0576171875 -33.348046875 -22.05 -33.45
L -19.8 -39.15
Q -16.512890625 -32.4359375 -15.5 -28.4 -13.9060546875 -22.180859375 -13.75 -21.75 -12.5486328125 -18.11328125 -10.45 -16.4 -7.962109375 -13.7919921875 -6.35 -12.7 -3.471875 -10.6388671875 1.8 -9.95
M 24.95 -36.2
Q 24.8 -36.6 24.8 -36.9 24.75 -36.6 24.9 -36.2 25.05 -35.95 25.15 -35.7 25.05 -36 24.95 -36.2 Z"/>

<path fill="#CC0000" stroke="none" d="
M 31.4 9.15
Q 32.486328125 7.2513671875 32.4 2.8
L 32.4 2.8
Q 32.4 2.4509765625 32.4 2.1 10.50546875 5.3140625 0.65 1.2 -8.415234375 -2.277734375 -11.1 -7.55
L -23.6 -30.8 -26.55 -25.8 -23.35 -20.1 -23.4 -20.15
Q -19.145703125 -13.69296875 -18.15 -11.35 -17.369921875 -9.6673828125 -16.95 -5.45 -16.59765625 -2.001171875 -16.6 1.6 -16.596484375 9.0806640625 -13.6 13.4 -10.7771484375 17.398828125 -7.65 17.15 -7.461328125 17.1369140625 -7.3 17.2 -1.9130859375 18.74140625 1.9 18.6 5.750390625 18.4466796875 9.65 17.85 13.5833984375 17.24765625 15.85 17.05 18.9458984375 16.760546875 23.3 15.1 26.991796875 13.6943359375 28.65 12.3 30.28203125 10.98046875 31.45 9.1
L 31.4 9.15 Z"/>

<path fill="#FD1313" stroke="none" d="
M 10.35 -9.1
Q 8.473046875 -9.09140625 1.8 -9.95 -3.471875 -10.6388671875 -6.35 -12.7 -7.962109375 -13.7919921875 -10.45 -16.4 -12.5486328125 -18.11328125 -13.75 -21.75 -13.9060546875 -22.180859375 -15.5 -28.4 -16.512890625 -32.4359375 -19.8 -39.15
L -22.05 -33.45
Q -22.0576171875 -33.348046875 -22.1 -33.3
L -23.6 -30.8 -11.1 -7.55
Q -8.415234375 -2.277734375 0.65 1.2 10.50546875 5.3140625 32.4 2.1 32.24140625 -6.2486328125 28.35 -10.75
L 28.35 -10.75
Q 25.3880859375 -13.794140625 16.3 -10.3
L 16.3 -10.3
Q 13.272265625 -9.1005859375 10.35 -9.1 Z"/>
</g>

<g id="stand_body_0_Layer1_0_FILL">
<path fill="#000000" stroke="none" d="
M 7.55 -14.1
Q 7.6716796875 -14.502734375 7.45 -14.9 7.2873046875 -15.235546875 6.9 -15.35
L -1.8 -17.95 0.4 -20.4
Q 0.66328125 -20.6330078125 0.7 -21 0.7322265625 -21.312109375 0.55 -21.6 0.354296875 -21.88671875 0 -22
L -6.05 -24.2 -3.45 -25.4
Q -3.1228515625 -25.5626953125 -3 -25.9 -2.8359375 -26.23046875 -2.95 -26.6 -3.048828125 -26.923828125 -3.35 -27.15
L -9.1 -30.9 -5.15 -32.85
Q -4.8123046875 -33.0341796875 -4.7 -33.4 -4.5265625 -33.7505859375 -4.65 -34.1 -4.7859375 -34.4498046875 -5.15 -34.65
L -10 -37.2 -6.95 -39.3
Q -6.59609375 -39.5048828125 -6.55 -39.9 -6.448046875 -40.3025390625 -6.7 -40.65 -6.8876953125 -40.9896484375 -7.3 -41.1
L -20.05 -43.85
Q -20.391796875 -43.9064453125 -20.75 -43.75 -21.062890625 -43.5478515625 -21.2 -43.2 -21.3205078125 -42.849609375 -21.2 -42.5
L -11.8 -18.2
Q -11.7048828125 -18.01875 -11.6 -17.9
L -7.45 -13.45
Q -7.2173828125 -13.2015625 -6.95 -13.15
L 0.85 -11.25
Q 1.0423828125 -10.9916015625 1.35 -10.9 1.7501953125 -10.779296875 2.1 -11
L 7.05 -13.55
Q 7.433984375 -13.7109375 7.55 -14.1
M 1.8 -13.05
Q 1.80234375 -13.068359375 1.75 -13.1 -1.755078125 -11.933203125 -6.2 -15
L -10 -19.1 -18.65 -41.5 -10.05 -39.65 -12.55 -37.95
Q -12.80859375 -37.71953125 -12.9 -37.4 -13.0076171875 -37.0443359375 -12.9 -36.75 -12.7380859375 -36.39453125 -12.45 -36.25
L -7.8 -33.8 -11.55 -31.9
Q -11.876953125 -31.734765625 -12.05 -31.4 -12.162109375 -31.055859375 -12.05 -30.7 -11.948828125 -30.3642578125 -11.65 -30.2
L -5.95 -26.45 -9.1 -24.95
Q -9.466015625 -24.765625 -9.6 -24.4 -9.7322265625 -23.9923828125 -9.55 -23.65 -9.3673828125 -23.246484375 -9 -23.1
L -2.05 -20.6 -4.35 -18.15
Q -4.569140625 -17.8685546875 -4.6 -17.55 -4.6240234375 -17.1705078125 -4.45 -16.9 -4.2294921875 -16.594140625 -3.9 -16.5
L 3.95 -14.15 1.8 -13.05 Z"/>

<path fill="#3399FF" stroke="none" d="
M 1.75 -13.1
Q 1.80234375 -13.068359375 1.8 -13.05
L 3.95 -14.15 -3.9 -16.5
Q -4.2294921875 -16.594140625 -4.45 -16.9 -4.6240234375 -17.1705078125 -4.6 -17.55 -4.569140625 -17.8685546875 -4.35 -18.15
L -2.05 -20.6 -9 -23.1
Q -9.3673828125 -23.246484375 -9.55 -23.65 -9.7322265625 -23.9923828125 -9.6 -24.4 -9.466015625 -24.765625 -9.1 -24.95
L -5.95 -26.45 -11.65 -30.2
Q -11.948828125 -30.3642578125 -12.05 -30.7 -12.162109375 -31.055859375 -12.05 -31.4 -11.876953125 -31.734765625 -11.55 -31.9
L -7.8 -33.8 -12.45 -36.25
Q -12.7380859375 -36.39453125 -12.9 -36.75 -13.0076171875 -37.0443359375 -12.9 -37.4 -12.80859375 -37.71953125 -12.55 -37.95
L -10.05 -39.65 -18.65 -41.5 -10 -19.1 -6.2 -15
Q -1.755078125 -11.933203125 1.75 -13.1 Z"/>
</g>

<g id="stand_body_0_Layer0_0_FILL">
<path fill="#000000" stroke="none" d="
M 5.75 -11.25
Q 5.5 -11.45 5.15 -11.45 4.8 -11.45 4.6 -11.25 4.35 -11.05 4.35 -10.7
L 3.9 -6.2 -1.25 -4.55
Q -1.55 -4.45 -1.65 -4.2 -1.9 -4 -1.85 -3.8 -1.85 -3.55 -1.6 -3.3
L 2.45 0.5 -1.6 5.9
Q 0 4.95 8.8 3.5
L 13.9 4.6
Q 14.2 3.85 14.25 3.6
L 15.6 -0.45 22.65 -1.25
Q 22.95 -1.3 23.1 -1.5 23.4 -1.65 23.4 -1.9 23.45 -2.15 23.35 -2.4 23.2 -2.6 22.95 -2.75
L 15.6 -5.95 15.95 -11.2
Q 15.25 -10.7 11.75 -10.75
L 10.7 -10.05 5.75 -11.25
M 5.9 -9.2
L 7.1 -8.3 14.1 -10.25 13.95 -7.55 13.85 -5.55
Q 13.85 -5.3 13.95 -5.15 14.1 -4.9 14.3 -4.8
L 17.05 -3.55 19.65 -2.45 14.8 -1.9
Q 14.5 -1.85 14.3 -1.65 14.2 -1.55 14.1 -1.3
L 12.65 2.9 7.8 1.9 1.1 3.95 3.75 1.55 4.05 1.25
Q 4.35 1.05 4.35 0.75 4.35 0.6 4.35 0.5 4.35 0.4 4.35 0.3 4.35 0.05 4.1 -0.2
L 1.7 -2.45 0.65 -3.5 5.05 -4.95
Q 5.25 -5 5.45 -5.2 5.6 -5.45 5.6 -5.6
L 5.9 -9.2
M 5.6 0.85
Q 5.7 0.95 5.75 1.05 5.95 1.2 6.35 1.2 6.7 1.2 6.85 1.05 7.1 0.85 7.1 0.55 7.1 0.4 7.05 0.3 6.9 0.15 6.85 0.1 6.7 -0.1 6.35 -0.1 5.95 -0.1 5.75 0.1 5.55 0.25 5.55 0.55 5.55 0.75 5.6 0.85
M 11.65 1.4
Q 11.65 1.15 11.5 0.95 11.25 0.8 10.9 0.8 10.6 0.8 10.4 0.95 10.2 1.15 10.2 1.4 10.2 1.6 10.4 1.8 10.6 1.95 10.9 1.95 11.25 1.95 11.5 1.8 11.6 1.65 11.65 1.6 11.65 1.5 11.65 1.45
L 11.65 1.4
M 12.65 -7.95
Q 12.5 -7.75 12.5 -7.6 12.5 -7.4 12.65 -7.3 12.8 -7.2 12.95 -7.15 13 -7.15 13.1 -7.15 13.25 -7.15 13.45 -7.3 13.5 -7.35 13.55 -7.4 13.6 -7.5 13.6 -7.6 13.6 -7.75 13.45 -7.95 13.25 -8.05 13.1 -8.05 12.85 -8.05 12.65 -7.95
M 5.85 -3.8
Q 5.5 -3.8 5.2 -3.55 5.05 -3.3 5.05 -3 5.05 -2.75 5.2 -2.5 5.5 -2.25 5.85 -2.25 6.2 -2.25 6.4 -2.5 6.7 -2.75 6.7 -3 6.7 -3.2 6.6 -3.3 6.5 -3.45 6.4 -3.55 6.2 -3.8 5.85 -3.8
M 13.2 -3.25
Q 13.5 -3.1 13.85 -3.1 14.2 -3.1 14.35 -3.25 14.65 -3.45 14.65 -3.75 14.65 -4 14.35 -4.2 14.2 -4.35 13.85 -4.35 13.5 -4.35 13.2 -4.2 13 -4 13 -3.75 13 -3.45 13.2 -3.25
M 9.8 -2.55
Q 9.55 -2.4 9.55 -2.15 9.55 -1.9 9.8 -1.75 9.95 -1.55 10.3 -1.55 10.65 -1.55 10.85 -1.75 11.1 -1.9 11.1 -2.15 11.1 -2.4 10.85 -2.55 10.65 -2.75 10.3 -2.75 9.95 -2.75 9.8 -2.55
M 9.05 -6.4
Q 8.8 -6.6 8.45 -6.6 8.1 -6.6 7.9 -6.4 7.7 -6.25 7.7 -5.95 7.7 -5.65 7.9 -5.5 8.1 -5.3 8.45 -5.3 8.8 -5.3 9.05 -5.5 9.2 -5.65 9.2 -5.95 9.2 -6.25 9.05 -6.4
M 10 -6.65
Q 9.744140625 -6.35 9.9 -6.35 10.1 -6.35 10.3 -6.35 10.3662109375 -6.3998046875 10 -6.65 Z"/>

<path fill="#D2CEB5" stroke="none" d="
M 14.3 -1.65
Q 14.5 -1.85 14.8 -1.9
L 19.65 -2.45 17.05 -3.55
Q 13.15 -1.15 7.05 0.3 7.1 0.4 7.1 0.55 7.1 0.85 6.85 1.05 6.7 1.2 6.35 1.2 5.95 1.2 5.75 1.05 5.7 0.95 5.6 0.85
L 3.75 1.55 1.1 3.95 7.8 1.9 12.65 2.9 14.1 -1.3
Q 14.2 -1.55 14.3 -1.65
M 11.5 0.95
Q 11.65 1.15 11.65 1.4
L 11.65 1.45
Q 11.65 1.5 11.65 1.6 11.6 1.65 11.5 1.8 11.25 1.95 10.9 1.95 10.6 1.95 10.4 1.8 10.2 1.6 10.2 1.4 10.2 1.15 10.4 0.95 10.6 0.8 10.9 0.8 11.25 0.8 11.5 0.95 Z"/>

<path fill="#F9E8C6" stroke="none" d="
M 5.05 -3
L 1.7 -2.45 4.1 -0.2
Q 4.35 0.05 4.35 0.3 4.35 0.4 4.35 0.5 4.35 0.6 4.35 0.75 4.35 1.05 4.05 1.25
L 3.75 1.55 5.6 0.85
Q 5.55 0.75 5.55 0.55 5.55 0.25 5.75 0.1 5.95 -0.1 6.35 -0.1 6.7 -0.1 6.85 0.1 6.9 0.15 7.05 0.3 13.15 -1.15 17.05 -3.55
L 14.3 -4.8
Q 14.1 -4.9 13.95 -5.15 13.85 -5.3 13.85 -5.55
L 13.95 -7.55
Q 13.8 -7.5 13.55 -7.4 13.5 -7.35 13.45 -7.3 13.25 -7.15 13.1 -7.15 13 -7.15 12.95 -7.15 10.45 -5.95 8.75 -3.65
L 6.6 -3.3
Q 6.7 -3.2 6.7 -3 6.7 -2.75 6.4 -2.5 6.2 -2.25 5.85 -2.25 5.5 -2.25 5.2 -2.5 5.05 -2.75 5.05 -3
M 9.55 -2.15
Q 9.55 -2.4 9.8 -2.55 9.95 -2.75 10.3 -2.75 10.65 -2.75 10.85 -2.55 11.1 -2.4 11.1 -2.15 11.1 -1.9 10.85 -1.75 10.65 -1.55 10.3 -1.55 9.95 -1.55 9.8 -1.75 9.55 -1.9 9.55 -2.15
M 13.85 -3.1
Q 13.5 -3.1 13.2 -3.25 13 -3.45 13 -3.75 13 -4 13.2 -4.2 13.5 -4.35 13.85 -4.35 14.2 -4.35 14.35 -4.2 14.65 -4 14.65 -3.75 14.65 -3.45 14.35 -3.25 14.2 -3.1 13.85 -3.1 Z"/>

<path fill="#666633" stroke="none" d="
M 7.1 -8.3
L 5.9 -9.2 5.6 -5.6
Q 5.6 -5.45 5.45 -5.2 5.25 -5 5.05 -4.95
L 0.65 -3.5 1.7 -2.45 5.05 -3
Q 5.05 -3.3 5.2 -3.55 5.5 -3.8 5.85 -3.8 6.2 -3.8 6.4 -3.55 6.5 -3.45 6.6 -3.3
L 8.75 -3.65
Q 10.45 -5.95 12.95 -7.15 12.8 -7.2 12.65 -7.3 12.5 -7.4 12.5 -7.6 12.5 -7.75 12.65 -7.95 12.85 -8.05 13.1 -8.05 13.25 -8.05 13.45 -7.95 13.6 -7.75 13.6 -7.6 13.6 -7.5 13.55 -7.4 13.8 -7.5 13.95 -7.55
L 14.1 -10.25 7.1 -8.3
M 9.9 -6.35
Q 9.744140625 -6.35 10 -6.65 10.3662109375 -6.3998046875 10.3 -6.35 10.1 -6.35 9.9 -6.35
M 8.45 -6.6
Q 8.8 -6.6 9.05 -6.4 9.2 -6.25 9.2 -5.95 9.2 -5.65 9.05 -5.5 8.8 -5.3 8.45 -5.3 8.1 -5.3 7.9 -5.5 7.7 -5.65 7.7 -5.95 7.7 -6.25 7.9 -6.4 8.1 -6.6 8.45 -6.6 Z"/>
</g>

<g id="head_0_Layer1_0_FILL">
<path fill="#000000" stroke="none" d="
M 9.35 -17.05
L 0.35 -18.85
Q -6.5 -19.05 -8.45 -17.9 -15.65 -7.5 -15.35 5.6 -15.05 18.65 -13.9 22.05 -10.5146484375 24.7078125 -7.45 26.2 -5.0521484375 27.4154296875 -2.85 27.9 -1.05 28.3 0.75 28.3 6.75 28.2 12.95 22.5 14.8 17.7 16.4 9.4 17.95 1.15 15.95 -7.5 13.9 -16.15 9.35 -17.05
M 4.6 -16.55
Q 5.9458984375 -16.07265625 7.35 -15.35 10.75 -13.6 13.95 -4.85 17.15 3.95 10.95 21
L 10.7 21.3
Q 9.95 21.8 7.7 23.3 5.55 24.646484375 3.45 25.3 0.73046875 26.1828125 -1.9 25.9 -4.469921875 25.65390625 -7.15 24.45 -7.2521484375 24.3955078125 -7.35 24.35 -9.490234375 23.3814453125 -11.7 21.8 -12 20.1 -12.35 19.2
L -12.3 19.55 -12.35 19.4 -12.4 19.45
Q -12.4 19.35 -12.85 16.85 -13.35 14.35 -13.7 8.8 -14.05 -7.7 -8.1 -13.75 -7.8 -14.05 -6.2 -16.1 -6.2 -16.05 -5.9 -16.4 -5.65 -16.85 -2.1 -17.2 -0.723828125 -17.343359375 0.05 -17.35 0.1244140625 -17.3267578125 0.15 -17.35 0.6669921875 -17.327734375 0.9 -17.25 1.05 -17.65 0.95 -17.2
L 1 -17.2
Q 2.731640625 -17.1412109375 4.6 -16.55 Z"/>

<path fill="#9159C8" stroke="none" d="
M -2.1 -17.2
Q -5.65 -16.85 -5.9 -16.4 -6.2 -16.05 -6.2 -16.1 -7.8 -14.05 -8.1 -13.75 -14.05 -7.7 -13.7 8.8 -13.35 14.35 -12.85 16.85 -12.4 19.35 -12.4 19.45
L -12.35 19.4 -12.3 19.55 -12.35 19.2
Q -12 20.1 -11.7 21.8 -9.490234375 23.3814453125 -7.35 24.35 -7.2521484375 24.3955078125 -7.15 24.45 -6.6919921875 2.634765625 0.05 -17.35 -0.723828125 -17.343359375 -2.1 -17.2
M 7.35 -15.35
Q 5.9458984375 -16.07265625 4.6 -16.55 6.3921875 4.3998046875 3.45 25.3 5.55 24.646484375 7.7 23.3 9.95 21.8 10.7 21.3
L 10.95 21
Q 17.15 3.95 13.95 -4.85 10.75 -13.6 7.35 -15.35 Z"/>

<path fill="#663399" stroke="none" d="
M 4.6 -16.55
Q 2.731640625 -17.1412109375 1 -17.2
L 0.95 -17.2
Q 1.05 -17.65 0.9 -17.25 0.6669921875 -17.327734375 0.15 -17.35 0.1244140625 -17.3267578125 0.05 -17.35 -6.6919921875 2.634765625 -7.15 24.45 -4.469921875 25.65390625 -1.9 25.9 0.73046875 26.1828125 3.45 25.3 6.3921875 4.3998046875 4.6 -16.55 Z"/>
</g>

<g id="head_0_Layer0_0_FILL">
<path fill="#33FF33" stroke="none" d="
M 3.1 -20.65
L 0.6 -21.65
Q -3.55 -22.9 -7.2 -19.45 -4.25 -20.35 -2.2 -18.55 -4.65 -16.9 -5.1 -13.85 -3.5 -15.95 -0.4 -17.1 -2.1 -13.7 -1.8 -9.95 -1.7 -11.4 1.95 -16.2 1.15 -13.1 2.7 -10.7 4.9 -13.05 4.6 -16 7.55 -15.35 8.4 -12.6 9.15 -16.05 6.65 -17.85 9.3 -18.55 11.85 -17.7 8.5236328125 -21.994921875 3.1 -20.65 Z"/>
</g>

<g id="ear_0_Layer0_0_FILL">
<path fill="#000000" stroke="none" d="
M 2.95 -4.55
Q 4.35 -6.1 6.35 -5.5 8.25 -4.9 8.7 -6.25 8.7 -6.35 8.75 -6.45 4.25 -10.65 0.6 -11.45 -3.15 -12.3 -6.3 -6.3 -7.75 -5.3 -6.15 -2.5
L -5.25 -1.1
Q -4.35 -1.55 -3.45 -2.55 -3 -3.1 -0.7 -3.15 1.5 -3.05 2.95 -4.55
M 4.2 -5.85
Q 2.75 -6.3 1.8 -5.5 0.8 -4.7 -0.7 -4.45 -2.3 -4.25 -2.8 -3.7 -3.25 -3.15 -3.9 -2.8
L -4.5 -3.75 -4.55 -3.8
Q -5.65 -5.7 -4.65 -6.4 -2.45 -10.7 0.2 -10.05 2.75 -9.5 5.9 -6.55
L 5.95 -6.5
Q 5.6 -5.55 4.2 -5.85 Z"/>

<path fill="#663399" stroke="none" d="
M 5.95 -6.5
L 5.9 -6.55
Q 2.75 -9.5 0.2 -10.05 -2.45 -10.7 -4.65 -6.4 -5.65 -5.7 -4.55 -3.8
L -4.5 -3.75
Q -3.7 -6.3 -0.85 -7.15 2.35 -8.2 5.95 -6.5 Z"/>

<path fill="#FFCCCC" stroke="none" d="
M 1.8 -5.5
Q 2.75 -6.3 4.2 -5.85 5.6 -5.55 5.95 -6.5 2.35 -8.2 -0.85 -7.15 -3.7 -6.3 -4.5 -3.75
L -3.9 -2.8
Q -3.25 -3.15 -2.8 -3.7 -2.3 -4.25 -0.7 -4.45 0.8 -4.7 1.8 -5.5 Z"/>
</g>

<g id="eye_0_Layer0_0_FILL">
<path fill="#000000" stroke="none" d="
M 52.55 47.2
Q 53.6 38 48.7 31.5 43.8 24.95 37.2 25.75 30.6 26.55 21.55 32.65 12.55 38.75 10.3 53.45 8 68.2 14.9 72.5 21.8 76.8 33 73.6 44.15 70.35 47.85 63.4 51.45 56.45 52.55 47.2
M 47.5 35.9
Q 50.35 40.7 49.6 47.2 49.05 52.1 47.6 56.2 36.45 62.5 20.8 58.4 17.05 53.9 17.05 47.85 17.05 46.65 17.2 45.55 17.85 40.2 24.15 36.4 30.45 32.55 36.6 30.85 42.7 29.15 44.9 32.1 47.05 35.1 47.5 35.9 Z"/>

<path fill="#FFFFFF" stroke="none" d="
M 49.6 47.2
Q 50.35 40.7 47.5 35.9 47.05 35.1 44.9 32.1 42.7 29.15 36.6 30.85 30.45 32.55 24.15 36.4 17.85 40.2 17.2 45.55 17.05 46.65 17.05 47.85 17.05 53.9 20.8 58.4 36.45 62.5 47.6 56.2 49.05 52.1 49.6 47.2
M 46 38.2
Q 48.3 41.85 47.7 46.85 47.25 50.65 46.05 53.8 37 58.65 24.3 55.5 21.25 52.05 21.25 47.35 21.25 46.45 21.35 45.6 21.9 41.5 27 38.55 32.1 35.6 37.1 34.3 42.1 33 43.85 35.25 45.6 37.55 46 38.2 Z"/>

<path fill="#CC0000" stroke="none" d="
M 47.7 46.85
Q 48.3 41.85 46 38.2 45.6 37.55 43.85 35.25 42.1 33 37.1 34.3 32.1 35.6 27 38.55 21.9 41.5 21.35 45.6 21.25 46.45 21.25 47.35 21.25 52.05 24.3 55.5 37 58.65 46.05 53.8 47.25 50.65 47.7 46.85 Z"/>
</g>

<g id="nose_0_Layer4_0_FILL">
<path fill="#000000" stroke="none" d="
M 11.05 -3.1
Q 9.45 -6.35 3.3 -6.7
L -2.55 -7.2
Q -8.9 -8.4 -10.5 -5.4 -12.2 -2.4 -13.15 1.9 -14.15 6.1 -12.3 9.25 -10.5 12.4 -3.8 13.25
L 2.15 13.75
Q 7.1 14.6 9.7 11.9 12.25 9.1 12.45 4.55 12.6 -0.05 11.05 -3.1
M 2.75 -4.85
Q 6.55 -4.7 8.15 -2.25 9.7 0.15 9.7 3.75 5.1576171875 1.2302734375 0.75 0.1 -3.6123046875 -0.980859375 -9.1 0.1
L -9.85 0.2
Q -9.403125 -1.990234375 -7.35 -3.95 -5.25 -6.1 -2.1 -5.35
L 2.75 -4.85
M -9.9 5.55
Q -9.8 5.25 -9.6 5.05 -5.836328125 9.8341796875 1.4 8.85 8.686328125 7.9158203125 8.75 5.55 10.3 8.9 7.95 10.65 5.6 12.6 2.5 12.15 2.4 12.15 2.2 12.1 1.95 12.1 1.75 12
L -3.1 11.5
Q -3.6 11.5 -4.05 11.45 -4.65 11.4 -5.1 11.25 -6.5 10.9 -7.7 10.1 -7.9 9.9 -8.15 9.65 -8.65 9.25 -9.1 8.8 -9.65 8.1 -9.9 7.5 -10.25 6.55 -9.9 5.55
M -10.5 2.65
Q -9.9359375 0.7353515625 -6.65 0.45 -3.3607421875 0.203515625 0.35 1 4.0587890625 1.851953125 8.85 4.4 6.89765625 7.3296875 0.45 8.2 -5.9931640625 9.1177734375 -10.5 2.65 Z"/>

<path fill="#870101" stroke="none" d="
M -6.65 0.45
Q -9.9359375 0.7353515625 -10.5 2.65 -5.9931640625 9.1177734375 0.45 8.2 6.89765625 7.3296875 8.85 4.4 4.0587890625 1.851953125 0.35 1 -3.3607421875 0.203515625 -6.65 0.45 Z"/>

<path fill="#FFCC00" stroke="none" d="
M -9.6 5.05
Q -9.8 5.25 -9.9 5.55 -10.25 6.55 -9.9 7.5 -9.65 8.1 -9.1 8.8 -8.65 9.25 -8.15 9.65 -7.9 9.9 -7.7 10.1 -6.5 10.9 -5.1 11.25 -4.65 11.4 -4.05 11.45 -3.6 11.5 -3.1 11.5
L 1.75 12
Q 1.95 12.1 2.2 12.1 2.4 12.15 2.5 12.15 5.6 12.6 7.95 10.65 10.3 8.9 8.75 5.55 8.686328125 7.9158203125 1.4 8.85 -5.836328125 9.8341796875 -9.6 5.05 Z"/>

<path fill="#F3D8BE" stroke="none" d="
M 8.15 -2.25
Q 6.55 -4.7 2.75 -4.85
L -2.1 -5.35
Q -5.25 -6.1 -7.35 -3.95 -9.403125 -1.990234375 -9.85 0.2
L -9.1 0.1
Q -3.6123046875 -0.980859375 0.75 0.1 5.1576171875 1.2302734375 9.7 3.75 9.7 0.15 8.15 -2.25 Z"/>
</g>

<g id="nose_0_Layer3_0_FILL">
<path fill="#FCEBE0" stroke="none" d="
M -5.5 -5.35
Q -6.05 -6.05 -7 -6.05 -7.75 -6.05 -8.3 -5.35 -8.9 -4.9 -8.9 -4.1
L -8.9 -2.9
Q -8.8 -2.1 -8.25 -1.55 -7.7 -1.1 -6.85 -1.1 -6 -1.1 -5.5 -1.55 -4.95 -2.1 -4.95 -2.9
L -4.95 -4.1
Q -5 -4.9 -5.5 -5.35
M -6.7 -5.1
Q -5.95 -5.1 -5.5 -4.6 -5.1 -4.25 -5.1 -3.7
L -5.1 -2.7
Q -5.1 -2.1 -5.5 -1.7 -5.95 -1.35 -6.55 -1.35 -7.2 -1.35 -7.7 -1.7 -8.1 -2.1 -8.15 -2.7
L -8.15 -3.7
Q -8.15 -4.25 -7.75 -4.6 -7.3 -5.1 -6.7 -5.1
M 7.25 -4.4
Q 6.35 -4.4 5.85 -3.7 5.3 -3.25 5.25 -2.55
L 5.25 -1.25
Q 5.25 -0.55 5.8 0.05 6.35 0.45 7.2 0.45 7.95 0.45 8.55 0.05 9.05 -0.55 9.2 -1.25
L 9.2 -2.55
Q 9.2 -3.25 8.55 -3.7 8.05 -4.4 7.25 -4.4
M 5.8 -0.05
Q 5.35 -0.55 5.35 -1.05
L 5.35 -2.05
Q 5.4 -2.6 5.85 -3.05 6.3 -3.55 6.95 -3.55 7.6 -3.55 8 -3.05 8.45 -2.6 8.45 -2.05
L 8.45 -1.05
Q 8.4 -0.55 7.95 -0.05 7.45 0.3 6.85 0.3 6.2 0.3 5.8 -0.05 Z"/>

<path fill="#000000" stroke="none" d="
M -5.5 -4.6
Q -5.95 -5.1 -6.7 -5.1 -7.3 -5.1 -7.75 -4.6 -8.15 -4.25 -8.15 -3.7
L -8.15 -2.7
Q -8.1 -2.1 -7.7 -1.7 -7.2 -1.35 -6.55 -1.35 -5.95 -1.35 -5.5 -1.7 -5.1 -2.1 -5.1 -2.7
L -5.1 -3.7
Q -5.1 -4.25 -5.5 -4.6
M 5.35 -1.05
Q 5.35 -0.55 5.8 -0.05 6.2 0.3 6.85 0.3 7.45 0.3 7.95 -0.05 8.4 -0.55 8.45 -1.05
L 8.45 -2.05
Q 8.45 -2.6 8 -3.05 7.6 -3.55 6.95 -3.55 6.3 -3.55 5.85 -3.05 5.4 -2.6 5.35 -2.05
L 5.35 -1.05 Z"/>
</g>

<g id="nose_0_Layer2_0_FILL">
<path fill="#000000" stroke="none" d="
M 0.25 4.45
Q 0.25 4.4 0.15 4.35 0.1 4.3 -0.05 4.25 -0.35 4.25 -1 4.15
L -3.05 4.1 -3.25 5.1 -3.2 4.05 -4.6 4.2 -4.5 8.6
Q -4.45 8.85 -4.4 9.05 -4.35 9.45 -4.25 9.8
L -2.35 10
Q -0.903515625 10.1927734375 -0.35 8.2 -0.3021484375 8.345703125 -0.25 8.45 0.15 10.25 1.35 10.1
L 2.9 10.05
Q 2.95 9.75 3 9.4 3.05 9.25 3.15 9.05
L 3.3 5.5 2.2 5.35 2.25 6.15 2.05 5.35 0.4 5.35
Q 0.253515625 5.3646484375 0.1 5.35 0.1416015625 5.2265625 0.15 5.1 0.2 4.9 0.2 4.7
L 0.25 4.45
M 0.05 6.05
L 0.05 5.95 0.05 5.9
Q 0.1517578125 5.8427734375 0.75 5.8
L 2 5.85 2.2 6.8 2.4 5.85 3.05 5.95 2.7 9.65 1.8 9.7 1.5 9.75
Q 0.8 9.8 0.45 8.7 0.35 8.4 0.25 7.95 0.08671875 6.3982421875 0.05 6.05
M -3.25 5.9
L -2.95 4.7 -1.45 4.7
Q -0.55 4.85 -0.55 4.95 -0.55 5.1 -0.95 7.35 -1.05 7.9 -1.15 8.3 -1.65 9.65 -2.55 9.55
L -2.9 9.45 -4 9.35 -4.25 4.75 -3.45 4.7 -3.25 5.9 Z"/>

<path fill="#967836" stroke="none" d="
M -0.55 4.95
Q -0.55 4.85 -1.45 4.7 -1.35 6.65 -2.3 8.55 -2.55 9 -2.9 9.45
L -2.55 9.55
Q -1.65 9.65 -1.15 8.3 -1.05 7.9 -0.95 7.35 -0.55 5.1 -0.55 4.95
M 0.05 5.95
L 0.05 6.05
Q 0.08671875 6.3982421875 0.25 7.95 0.35 8.4 0.45 8.7 0.8 9.8 1.5 9.75
L 1.8 9.7
Q 1.5 9.35 1.35 8.9 0.65 7.4 0.75 5.8 0.1517578125 5.8427734375 0.05 5.9
L 0.05 5.95 Z"/>

<path fill="#F2E9C2" stroke="none" d="
M -2.95 4.7
L -3.25 5.9 -3.45 4.7 -4.25 4.75 -4 9.35 -2.9 9.45
Q -2.55 9 -2.3 8.55 -1.35 6.65 -1.45 4.7
L -2.95 4.7
M -3.8 5.95
Q -3.8 5.7 -3.8 5.6 -3.75 5.4 -3.7 5.4
L -3.65 5.55
Q -3.65 5.7 -3.6 5.95 -3.6 6.25 -3.65 6.45 -3.7 6.6 -3.75 6.65 -3.8 6.65 -3.8 6.5 -3.8 6.3 -3.8 5.95
M -2.95 7.8
Q -2.9 7.75 -2.75 7.8 -2.65 7.75 -2.6 7.85 -2.6 7.95 -2.6 8.15 -2.6 8.35 -2.6 8.5 -2.6 8.55 -2.65 8.65 -2.7 8.7 -2.75 8.7
L -2.8 8.65
Q -2.85 8.6 -2.95 8.45 -3 8.4 -2.95 8.2 -2.95 8.05 -2.95 7.8
M -3.7 8.4
Q -3.55 8.3 -3.55 8.2 -3.35 8.25 -3.35 8.35 -3.3 8.5 -3.2 8.65 -3.2 8.75 -3.25 8.75 -3.25 8.85 -3.3 8.9 -3.4 9 -3.5 9 -3.55 9 -3.65 8.9
L -3.7 8.85
Q -3.75 8.75 -3.8 8.65 -3.75 8.5 -3.7 8.4
M 2 5.85
L 0.75 5.8
Q 0.65 7.4 1.35 8.9 1.5 9.35 1.8 9.7
L 2.7 9.65 3.05 5.95 2.4 5.85 2.2 6.8 2 5.85
M 2.6 6.4
Q 2.65 6.4 2.6 6.6 2.6 6.65 2.6 6.85 2.6 7.15 2.6 7.3
L 2.6 7.45
Q 2.55 7.4 2.5 7.25 2.45 7.1 2.45 6.85 2.5 6.65 2.5 6.55
L 2.6 6.4
M 1.6 8.4
Q 1.65 8.3 1.7 8.35 1.85 8.3 1.9 8.35 1.9 8.55 1.9 8.7 1.95 8.85 1.9 8.9 1.8 9 1.75 9.05
L 1.65 9.1 1.65 9.05
Q 1.6 8.95 1.6 8.9 1.6 8.8 1.6 8.65 1.6 8.5 1.6 8.4
M 2.1 9.25
Q 2.1 9.2 2.1 9.15 2.05 9.15 2.1 9.05 2.15 8.9 2.2 8.8 2.2 8.7 2.35 8.7 2.35 8.75 2.5 8.85 2.55 8.9 2.55 9.05 2.5 9.15 2.45 9.2
L 2.3 9.35
Q 2.2 9.35 2.1 9.25 Z"/>

<path fill="#69703A" stroke="none" d="
M -3.55 8.2
Q -3.55 8.3 -3.7 8.4 -3.75 8.5 -3.8 8.65 -3.75 8.75 -3.7 8.85
L -3.65 8.9
Q -3.55 9 -3.5 9 -3.4 9 -3.3 8.9 -3.25 8.85 -3.25 8.75 -3.2 8.75 -3.2 8.65 -3.3 8.5 -3.35 8.35 -3.35 8.25 -3.55 8.2
M 2.1 9.15
Q 2.1 9.2 2.1 9.25 2.2 9.35 2.3 9.35
L 2.45 9.2
Q 2.5 9.15 2.55 9.05 2.55 8.9 2.5 8.85 2.35 8.75 2.35 8.7 2.2 8.7 2.2 8.8 2.15 8.9 2.1 9.05 2.05 9.15 2.1 9.15 Z"/>

<path fill="#B3BF8D" stroke="none" d="
M -2.75 7.8
Q -2.9 7.75 -2.95 7.8 -2.95 8.05 -2.95 8.2 -3 8.4 -2.95 8.45 -2.85 8.6 -2.8 8.65
L -2.75 8.7
Q -2.7 8.7 -2.65 8.65 -2.6 8.55 -2.6 8.5 -2.6 8.35 -2.6 8.15 -2.6 7.95 -2.6 7.85 -2.65 7.75 -2.75 7.8
M -3.8 5.6
Q -3.8 5.7 -3.8 5.95 -3.8 6.3 -3.8 6.5 -3.8 6.65 -3.75 6.65 -3.7 6.6 -3.65 6.45 -3.6 6.25 -3.6 5.95 -3.65 5.7 -3.65 5.55
L -3.7 5.4
Q -3.75 5.4 -3.8 5.6
M 1.7 8.35
Q 1.65 8.3 1.6 8.4 1.6 8.5 1.6 8.65 1.6 8.8 1.6 8.9 1.6 8.95 1.65 9.05
L 1.65 9.1 1.75 9.05
Q 1.8 9 1.9 8.9 1.95 8.85 1.9 8.7 1.9 8.55 1.9 8.35 1.85 8.3 1.7 8.35
M 2.6 6.6
Q 2.65 6.4 2.6 6.4
L 2.5 6.55
Q 2.5 6.65 2.45 6.85 2.45 7.1 2.5 7.25 2.55 7.4 2.6 7.45
L 2.6 7.3
Q 2.6 7.15 2.6 6.85 2.6 6.65 2.6 6.6 Z"/>
</g>

<g id="nose_0_Layer1_0_FILL">
<path fill="#000000" stroke="none" d="
M 7.5 5.4
Q 7.55 5.05 7.55 4.75 7.6 2.55 6 2.25
L 4.05 1.8
Q 3.8 2.1 3.65 2.4 3.5 2.6 3.4 2.85
L 1.95 7 3.4 7.6 3.65 6.55 3.55 7.55 5.65 8.2
Q 6.35 8.4 6.65 8.4 6.8 8.4 6.95 8.4 7.05 8.45 7.05 8.4 7.05 8.35 7.05 8.1 7.15 7.95 7.15 7.7 7.3 6.95 7.5 5.4
M 5.35 2.55
L 5.7 2.6
Q 6.7 2.8 6.75 4.3 6.75 4.7 6.65 5.15 6.35 7.45 6.3 7.6 6.3 7.7 5.3 7.5
L 3.8 7 3.85 5.75 3.3 6.9 2.5 6.55 4.15 2.3 5.35 2.55
M -1 -0.05
L -2.85 -0.4
Q -3.05 -0.05 -3.3 0.35 -3.3 0.5 -3.4 0.75
L -4.45 3.95 -4.2 0.95
Q -4.2 0.65 -4.25 0.4 -4.3 -0.05 -4.35 -0.55
L -6.5 -1
Q -8.2 -1.35 -9.1 1.15 -9.25 1.45 -9.35 1.95 -9.8 3.75 -10 4.65 -10.1 4.9 -10.1 5.1 -10.2 5.35 -10.2 5.4 -10.2 5.45 -10.1 5.55 -10 5.6 -9.85 5.65 -9.5 5.75 -8.75 5.9
L -6.35 6.2 -6 5 -6.25 6.25 -4.6 6.25 -4.5 5.15 -3.5 5.55 -3.3 4.5 -3.35 5.6 -1.35 6.05
Q -0.75 6.15 -0.45 6.2 -0.3 6.2 -0.2 6.2 -0.1 6.15 -0.1 6.1 -0.1 6.05 -0.05 5.8 0 5.65 -0.05 5.45 0.1 4.7 0.3 3.15 0.35 2.75 0.4 2.4 0.45 0.15 -1 -0.05
M -6.35 -0.4
L -5.95 -0.3 -4.65 0 -4.95 5.5 -5.85 5.55 -5.9 4 -6.4 5.45 -8.15 5.25
Q -9.2 5 -9.15 4.9 -9.15 4.7 -8.45 2.05 -8.3 1.4 -8.1 1 -7.4 -0.6 -6.35 -0.4
M -1.65 0.35
L -1.3 0.3
Q -0.4 0.5 -0.4 1.95 -0.35 2.4 -0.45 2.95 -0.75 5.2 -0.75 5.35 -0.75 5.45 -1.7 5.35
L -3.05 4.95 -3 3.75 -3.55 4.85 -4.3 4.6 -2.75 0.15 -1.65 0.35 Z"/>

<path fill="#F2E9C2" stroke="none" d="
M 5.65 3.6
Q 5.55 3.1 5.35 2.55
L 4.15 2.3 2.5 6.55 3.3 6.9 3.85 5.75 3.8 7 5.3 7.5
Q 6.05 5.7 5.65 3.6
M 5.3 3.6
Q 5.35 3.75 5.25 3.95 5.2 4.15 5.2 4.25 5.05 4.25 5 4.2 4.85 4.2 4.75 4.1 4.8 3.9 4.85 3.75 4.9 3.55 4.95 3.5 5.15 3.35 5.2 3.35
L 5.25 3.4
Q 5.3 3.4 5.35 3.4 5.35 3.5 5.3 3.6
M 4.2 3
Q 4.25 2.9 4.35 2.85
L 4.4 2.85
Q 4.45 2.8 4.5 2.8 4.65 2.85 4.75 2.9 4.8 3 4.75 3.05 4.75 3.2 4.8 3.25 4.6 3.35 4.55 3.45 4.5 3.55 4.25 3.55 4.3 3.45 4.2 3.25 4.15 3.15 4.2 3
M 3.5 5
Q 3.5 4.85 3.6 4.9 3.65 4.95 3.65 5.15 3.6 5.35 3.5 5.65 3.4 5.85 3.4 6
L 3.3 6.1
Q 3.25 6.1 3.2 5.9 3.2 5.8 3.4 5.55 3.45 5.2 3.5 5
M -1.4 1.35
Q -1.45 0.85 -1.65 0.35
L -2.75 0.15 -4.3 4.6 -3.55 4.85 -3 3.75 -3.05 4.95 -1.7 5.35
Q -1 3.55 -1.4 1.35
M -2.25 0.95
Q -2.2 1 -2.2 1.05 -2.35 1.25 -2.4 1.3 -2.5 1.4 -2.7 1.4 -2.6 1.3 -2.7 1.15 -2.75 1.05 -2.75 0.9 -2.65 0.8 -2.55 0.7
L -2.55 0.65
Q -2.45 0.65 -2.4 0.65 -2.3 0.7 -2.2 0.8 -2.15 0.85 -2.25 0.95
M -1.7 1.2
Q -1.7 1.3 -1.7 1.4 -1.7 1.5 -1.75 1.7 -1.8 1.9 -1.8 2 -2 2.1 -2 2.05 -2.2 2.05 -2.15 1.95 -2.15 1.75 -2.1 1.55 -2.05 1.35 -2 1.3 -1.85 1.2 -1.8 1.15
L -1.75 1.15
Q -1.7 1.15 -1.7 1.2
M -3.25 2.85
Q -3.2 2.9 -3.25 3.05 -3.25 3.35 -3.35 3.6 -3.45 3.8 -3.55 4
L -3.55 4.1
Q -3.6 4.1 -3.7 3.95 -3.6 3.8 -3.5 3.55 -3.4 3.25 -3.4 3.05 -3.35 2.85 -3.25 2.85
M -4.95 5.5
L -4.65 0 -5.95 -0.3
Q -6.4 0.25 -6.7 0.75 -8.05 2.95 -8.15 5.25
L -6.4 5.45 -5.9 4 -5.85 5.55 -4.95 5.5
M -5.05 0.55
Q -5.05 0.65 -5 0.8 -5.05 0.95 -5.1 1.1 -5.3 1.2 -5.3 1.35 -5.55 1.25 -5.55 1.1 -5.55 0.95 -5.7 0.75 -5.65 0.65 -5.6 0.6 -5.55 0.5 -5.5 0.45 -5.4 0.4 -5.25 0.4 -5.2 0.4 -5.1 0.5
L -5.05 0.55
M -6.2 0.65
L -6.15 0.7
Q -6.1 0.75 -5.95 1 -5.9 1.05 -6 1.3 -6 1.5 -6.05 1.75 -6.15 1.8 -6.3 1.75 -6.4 1.8 -6.5 1.65 -6.45 1.55 -6.45 1.3 -6.45 1.05 -6.35 0.9 -6.35 0.8 -6.3 0.7 -6.25 0.65 -6.2 0.65
M -5.25 3.2
Q -5.15 3.25 -5.2 3.45 -5.25 3.65 -5.3 4 -5.3 4.35 -5.3 4.5 -5.4 4.7 -5.45 4.7
L -5.5 4.5
Q -5.5 4.3 -5.5 4 -5.45 3.7 -5.4 3.45 -5.35 3.25 -5.25 3.2 Z"/>

<path fill="#B3BF8D" stroke="none" d="
M 3.6 4.9
Q 3.5 4.85 3.5 5 3.45 5.2 3.4 5.55 3.2 5.8 3.2 5.9 3.25 6.1 3.3 6.1
L 3.4 6
Q 3.4 5.85 3.5 5.65 3.6 5.35 3.65 5.15 3.65 4.95 3.6 4.9
M 5.25 3.95
Q 5.35 3.75 5.3 3.6 5.35 3.5 5.35 3.4 5.3 3.4 5.25 3.4
L 5.2 3.35
Q 5.15 3.35 4.95 3.5 4.9 3.55 4.85 3.75 4.8 3.9 4.75 4.1 4.85 4.2 5 4.2 5.05 4.25 5.2 4.25 5.2 4.15 5.25 3.95
M -3.25 3.05
Q -3.2 2.9 -3.25 2.85 -3.35 2.85 -3.4 3.05 -3.4 3.25 -3.5 3.55 -3.6 3.8 -3.7 3.95 -3.6 4.1 -3.55 4.1
L -3.55 4
Q -3.45 3.8 -3.35 3.6 -3.25 3.35 -3.25 3.05
M -1.7 1.4
Q -1.7 1.3 -1.7 1.2 -1.7 1.15 -1.75 1.15
L -1.8 1.15
Q -1.85 1.2 -2 1.3 -2.05 1.35 -2.1 1.55 -2.15 1.75 -2.15 1.95 -2.2 2.05 -2 2.05 -2 2.1 -1.8 2 -1.8 1.9 -1.75 1.7 -1.7 1.5 -1.7 1.4
M -5.2 3.45
Q -5.15 3.25 -5.25 3.2 -5.35 3.25 -5.4 3.45 -5.45 3.7 -5.5 4 -5.5 4.3 -5.5 4.5
L -5.45 4.7
Q -5.4 4.7 -5.3 4.5 -5.3 4.35 -5.3 4 -5.25 3.65 -5.2 3.45
M -6.15 0.7
L -6.2 0.65
Q -6.25 0.65 -6.3 0.7 -6.35 0.8 -6.35 0.9 -6.45 1.05 -6.45 1.3 -6.45 1.55 -6.5 1.65 -6.4 1.8 -6.3 1.75 -6.15 1.8 -6.05 1.75 -6 1.5 -6 1.3 -5.9 1.05 -5.95 1 -6.1 0.75 -6.15 0.7 Z"/>

<path fill="#69703A" stroke="none" d="
M 4.35 2.85
Q 4.25 2.9 4.2 3 4.15 3.15 4.2 3.25 4.3 3.45 4.25 3.55 4.5 3.55 4.55 3.45 4.6 3.35 4.8 3.25 4.75 3.2 4.75 3.05 4.8 3 4.75 2.9 4.65 2.85 4.5 2.8 4.45 2.8 4.4 2.85
L 4.35 2.85
M -2.2 1.05
Q -2.2 1 -2.25 0.95 -2.15 0.85 -2.2 0.8 -2.3 0.7 -2.4 0.65 -2.45 0.65 -2.55 0.65
L -2.55 0.7
Q -2.65 0.8 -2.75 0.9 -2.75 1.05 -2.7 1.15 -2.6 1.3 -2.7 1.4 -2.5 1.4 -2.4 1.3 -2.35 1.25 -2.2 1.05
M -5 0.8
Q -5.05 0.65 -5.05 0.55
L -5.1 0.5
Q -5.2 0.4 -5.25 0.4 -5.4 0.4 -5.5 0.45 -5.55 0.5 -5.6 0.6 -5.65 0.65 -5.7 0.75 -5.55 0.95 -5.55 1.1 -5.55 1.25 -5.3 1.35 -5.3 1.2 -5.1 1.1 -5.05 0.95 -5 0.8 Z"/>

<path fill="#967836" stroke="none" d="
M 5.7 2.6
L 5.35 2.55
Q 5.55 3.1 5.65 3.6 6.05 5.7 5.3 7.5 6.3 7.7 6.3 7.6 6.35 7.45 6.65 5.15 6.75 4.7 6.75 4.3 6.7 2.8 5.7 2.6
M -1.3 0.3
L -1.65 0.35
Q -1.45 0.85 -1.4 1.35 -1 3.55 -1.7 5.35 -0.75 5.45 -0.75 5.35 -0.75 5.2 -0.45 2.95 -0.35 2.4 -0.4 1.95 -0.4 0.5 -1.3 0.3
M -5.95 -0.3
L -6.35 -0.4
Q -7.4 -0.6 -8.1 1 -8.3 1.4 -8.45 2.05 -9.15 4.7 -9.15 4.9 -9.2 5 -8.15 5.25 -8.05 2.95 -6.7 0.75 -6.4 0.25 -5.95 -0.3 Z"/>
</g>

<g id="nose_0_Layer0_0_FILL">
<path fill="#000000" stroke="none" d="
M 11.05 -3.1
Q 9.45 -6.35 3.3 -6.7
L -2.55 -7.2
Q -8.9 -8.4 -10.5 -5.4 -12.2 -2.4 -13.15 1.9 -13.193359375 2.082421875 -13.25 2.25
L -10.4 2.35
Q -8.15703125 1.6255859375 -4.75 2 -1.2939453125 2.37890625 1.35 3 3.9953125 3.671875 8.85 4.4
L 8.8 4.4 12.45 4.75
Q 12.4447265625 4.6681640625 12.45 4.55 12.6 -0.05 11.05 -3.1
M 6.15 -4.05
Q 6.605859375 -4.4 7.25 -4.4 8.05 -4.4 8.55 -3.7 9.2 -3.25 9.2 -2.55
L 9.2 -1.25
Q 9.128515625 -0.916796875 8.95 -0.6 9.7 1.2931640625 9.7 3.75 4.8142578125 2.780859375 0.45 1.45 -3.8666015625 0.1685546875 -8.4 0.8
L -10.35 1.2
Q -9.584765625 -1.08984375 -8.75 -2.35 -8.8611328125 -2.58828125 -8.9 -2.9
L -8.9 -4.1
Q -8.9 -4.9 -8.3 -5.35 -7.75 -6.05 -7 -6.05 -6.05 -6.05 -5.5 -5.35 -5.4474609375 -5.302734375 -5.4 -5.25 -3.921484375 -5.78359375 -2.1 -5.35
L 2.75 -4.85
Q 4.7689453125 -4.7703125 6.15 -4.05
M -5.5 -4.6
Q -5.7205078125 -4.844921875 -6.05 -5 -6.3173828125 -5.1 -6.7 -5.1 -7.3 -5.1 -7.75 -4.6 -8.15 -4.25 -8.15 -3.7
L -8.15 -2.7
Q -8.1 -2.1 -7.7 -1.7 -7.2 -1.35 -6.55 -1.35 -5.95 -1.35 -5.5 -1.7 -5.1 -2.1 -5.1 -2.7
L -5.1 -3.7
Q -5.1 -4.25 -5.5 -4.6
M 5.85 -3.05
Q 5.4 -2.6 5.35 -2.05
L 5.35 -1.05
Q 5.35 -0.55 5.8 -0.05 6.2 0.3 6.85 0.3 7.45 0.3 7.95 -0.05 8.4 -0.55 8.45 -1.05
L 8.45 -2.05
Q 8.45 -2.6 8 -3.05 7.6 -3.55 6.95 -3.55 6.3 -3.55 5.85 -3.05 Z"/>

<path fill="#FCEBE0" stroke="none" d="
M -5.4 -5.25
Q -5.4474609375 -5.302734375 -5.5 -5.35 -6.05 -6.05 -7 -6.05 -7.75 -6.05 -8.3 -5.35 -8.9 -4.9 -8.9 -4.1
L -8.9 -2.9
Q -8.8611328125 -2.58828125 -8.75 -2.35 -8.5857421875 -1.8857421875 -8.25 -1.55 -7.7 -1.1 -6.85 -1.1 -6 -1.1 -5.5 -1.55 -4.95 -2.1 -4.95 -2.9
L -4.95 -4.1
Q -4.9947265625 -4.816015625 -5.4 -5.25
M -6.05 -5
Q -5.7205078125 -4.844921875 -5.5 -4.6 -5.1 -4.25 -5.1 -3.7
L -5.1 -2.7
Q -5.1 -2.1 -5.5 -1.7 -5.95 -1.35 -6.55 -1.35 -7.2 -1.35 -7.7 -1.7 -8.1 -2.1 -8.15 -2.7
L -8.15 -3.7
Q -8.15 -4.25 -7.75 -4.6 -7.3 -5.1 -6.7 -5.1 -6.3173828125 -5.1 -6.05 -5
M 7.25 -4.4
Q 6.605859375 -4.4 6.15 -4.05 5.9921875 -3.8990234375 5.85 -3.7 5.3 -3.25 5.25 -2.55
L 5.25 -1.25
Q 5.25 -0.55 5.8 0.05 6.35 0.45 7.2 0.45 7.95 0.45 8.55 0.05 8.8119140625 -0.264453125 8.95 -0.6 9.128515625 -0.916796875 9.2 -1.25
L 9.2 -2.55
Q 9.2 -3.25 8.55 -3.7 8.05 -4.4 7.25 -4.4
M 5.35 -2.05
Q 5.4 -2.6 5.85 -3.05 6.3 -3.55 6.95 -3.55 7.6 -3.55 8 -3.05 8.45 -2.6 8.45 -2.05
L 8.45 -1.05
Q 8.4 -0.55 7.95 -0.05 7.45 0.3 6.85 0.3 6.2 0.3 5.8 -0.05 5.35 -0.55 5.35 -1.05
L 5.35 -2.05 Z"/>

<path fill="#F3D8BE" stroke="none" d="
M 5.85 -3.7
Q 5.9921875 -3.8990234375 6.15 -4.05 4.7689453125 -4.7703125 2.75 -4.85
L -2.1 -5.35
Q -3.921484375 -5.78359375 -5.4 -5.25 -4.9947265625 -4.816015625 -4.95 -4.1
L -4.95 -2.9
Q -4.95 -2.1 -5.5 -1.55 -6 -1.1 -6.85 -1.1 -7.7 -1.1 -8.25 -1.55 -8.5857421875 -1.8857421875 -8.75 -2.35 -9.584765625 -1.08984375 -10.35 1.2
L -8.4 0.8
Q -3.8666015625 0.1685546875 0.45 1.45 4.8142578125 2.780859375 9.7 3.75 9.7 1.2931640625 8.95 -0.6 8.8119140625 -0.264453125 8.55 0.05 7.95 0.45 7.2 0.45 6.35 0.45 5.8 0.05 5.25 -0.55 5.25 -1.25
L 5.25 -2.55
Q 5.3 -3.25 5.85 -3.7 Z"/>
</g>

<g id="pupil_0_Layer0_0_FILL">
<path fill="#FFFFFF" stroke="none" d="
M 1.5 -1.4
Q 0.95 -2 0.15 -2 -0.65 -2 -1.25 -1.4 -1.8 -0.75 -1.8 0.15 -1.8 1.05 -1.25 1.65 -0.65 2.3 0.15 2.3 0.95 2.3 1.5 1.65 2.1 1.05 2.1 0.15 2.1 -0.75 1.5 -1.4 Z"/>
</g>

<path id="head_0_Layer0_0_1_STROKES" stroke="#000000" stroke-width="1" stroke-linejoin="round" stroke-linecap="round" fill="none" d="
M -1.8 -9.95
Q -1.7 -11.4 1.95 -16.2 1.15 -13.1 2.7 -10.7 4.9 -13.05 4.6 -16 7.55 -15.35 8.4 -12.6 9.15 -16.05 6.65 -17.85 9.3 -18.55 11.85 -17.7 8.5236328125 -21.994921875 3.1 -20.65
L 0.6 -21.65
Q -3.55 -22.9 -7.2 -19.45 -4.25 -20.35 -2.2 -18.55 -4.65 -16.9 -5.1 -13.85 -3.5 -15.95 -0.4 -17.1 -2.1 -13.7 -1.8 -9.95 -1.85 -9.8 -1.8 -9.65"/>
</defs>

<g filter="url(#Filter_1)" transform="matrix( 1, 0, 0, 1, 0,0) ">
<g transform="matrix( 4.0256805419921875, 0, 0, 4.0256805419921875, 234.05,361.8) ">
<g transform="matrix( 1, 0, 0, 1, 0,0) ">
<use xlink:href="#leg_0_Layer2_0_FILL"/>
</g>

<g transform="matrix( 1, 0, 0, 1, 0,0) ">
<use xlink:href="#leg_0_Layer1_0_FILL"/>
</g>

<g transform="matrix( 1, 0, 0, 1, 0,0) ">
<use xlink:href="#leg_0_Layer0_0_FILL"/>
</g>
</g>
</g>

<g filter="url(#Filter_2)" transform="matrix( 1, 0, 0, 1, 0,0) ">
<g transform="matrix( 4.0599517822265625, 0, 0, 4.0599517822265625, 381.25,334.55) ">
<g transform="matrix( 1, 0, 0, 1, 0,0) ">
<use xlink:href="#back_leg_0_Layer1_0_FILL"/>
</g>

<g transform="matrix( 1, 0, 0, 1, 0,0) ">
<use xlink:href="#back_leg_0_Layer0_0_FILL"/>
</g>
</g>
</g>

<g transform="matrix( 4.8720703125, 0, 0, 4.8720703125, 452.8,313.3) ">
<g transform="matrix( 1, 0, 0, 1, 0,0) ">
<use xlink:href="#tail_0_Layer0_0_FILL"/>
</g>
</g>

<g transform="matrix( 4.8720703125, 0, 0, 4.8720703125, 288.9,276.25) ">
<g transform="matrix( 1, 0, 0, 1, 0,0) ">
<use xlink:href="#stand_body_0_Layer2_0_FILL"/>
</g>

<g transform="matrix( 1, 0, 0, 1, 0,0) ">
<use xlink:href="#stand_body_0_Layer1_0_FILL"/>
</g>

<g transform="matrix( 1, 0, 0, 1, 0,0) ">
<use xlink:href="#stand_body_0_Layer0_0_FILL"/>
</g>
</g>

<g transform="matrix( 4.8720703125, 0, 0, 4.8720703125, 277.2,400.05) ">
<g transform="matrix( 1, 0, 0, 1, 0,0) ">
<use xlink:href="#leg_0_Layer2_0_FILL"/>
</g>

<g transform="matrix( 1, 0, 0, 1, 0,0) ">
<use xlink:href="#leg_0_Layer1_0_FILL"/>
</g>

<g transform="matrix( 1, 0, 0, 1, 0,0) ">
<use xlink:href="#leg_0_Layer0_0_FILL"/>
</g>
</g>

<g filter="url(#Filter_3)" transform="matrix( 1, 0, 0, 1, 0,0) ">
<g transform="matrix( 4.0599517822265625, 0, 0, 4.0599517822265625, 408.25,383.45) ">
<g transform="matrix( 1, 0, 0, 1, 0,0) ">
<use xlink:href="#back_leg_0_Layer1_0_FILL"/>
</g>

<g transform="matrix( 1, 0, 0, 1, 0,0) ">
<use xlink:href="#back_leg_0_Layer0_0_FILL"/>
</g>
</g>
</g>

<g transform="matrix( 4.8185272216796875, 0.67828369140625, -0.67828369140625, 4.8185272216796875, 137.1,141.1) ">
<g transform="matrix( 1, 0, 0, 1, 0,0) ">
<use xlink:href="#head_0_Layer1_0_FILL"/>
</g>

<g transform="matrix( 1, 0, 0, 1, 0,0) ">
<use xlink:href="#head_0_Layer0_0_FILL"/>

<use xlink:href="#head_0_Layer0_0_1_STROKES"/>
</g>
</g>

<g transform="matrix( 4.4866790771484375, -1.8656005859375, 1.8656005859375, 4.4866790771484375, 234.05,112.1) ">
<g transform="matrix( 1, 0, 0, 1, 0,0) ">
<use xlink:href="#ear_0_Layer0_0_FILL"/>
</g>
</g>

<g transform="matrix( -2.945709228515625, -3.864288330078125, -3.864288330078125, 2.945709228515625, 64.3,70.7) ">
<g transform="matrix( 1, 0, 0, 1, 0,0) ">
<use xlink:href="#ear_0_Layer0_0_FILL"/>
</g>
</g>

<g transform="matrix( 1.4162750244140625, 0.199371337890625, -0.199371337890625, 1.4162750244140625, 75.05,40.25) ">
<g transform="matrix( 1, 0, 0, 1, 0,0) ">
<use xlink:href="#eye_0_Layer0_0_FILL"/>
</g>
</g>

<g transform="matrix( 5.7430572509765625, 0.80853271484375, -0.80853271484375, 5.7430572509765625, 123.75,225.15) ">
<g transform="matrix( 1, 0, 0, 1, 0,0) ">
<use xlink:href="#nose_0_Layer4_0_FILL"/>
</g>

<g transform="matrix( 1, 0, 0, 1, 0,0) ">
<use xlink:href="#nose_0_Layer3_0_FILL"/>
</g>

<g transform="matrix( 1, 0, 0, 1, 0,0) ">
<use xlink:href="#nose_0_Layer2_0_FILL"/>
</g>

<g transform="matrix( 1, 0, 0, 1, 0,0) ">
<use xlink:href="#nose_0_Layer1_0_FILL"/>
</g>

<g transform="matrix( 1, 0, 0, 1, 0,0) ">
<use xlink:href="#nose_0_Layer0_0_FILL"/>
</g>
</g>

<g transform="matrix( -1.380889892578125, -0.3656005859375, -0.3656005859375, 1.380889892578125, 238.7,73.65) ">
<g transform="matrix( 1, 0, 0, 1, 0,0) ">
<use xlink:href="#eye_0_Layer0_0_FILL"/>
</g>
</g>

<g transform="matrix( 2.9858551025390625, 0.420318603515625, -0.420318603515625, 2.9858551025390625, 123.25,103.05) ">
<g transform="matrix( 1, 0, 0, 1, 0,2.4) ">
<use xlink:href="#pupil_0_Layer0_0_FILL"/>
</g>
</g>

<g transform="matrix( 2.9858551025390625, 0.420318603515625, -0.420318603515625, 2.9858551025390625, 168.55,114.3) ">
<g transform="matrix( 1, 0, 0, 1, 0,2.4) ">
<use xlink:href="#pupil_0_Layer0_0_FILL"/>
</g>
</g>
</svg>
