
<svg xmlns="http://www.w3.org/2000/svg" version="1.1" xmlns:xlink="http://www.w3.org/1999/xlink" preserveAspectRatio="none" x="0px" y="0px" width="560px" height="544px" viewBox="0 0 560 544">
<defs>
<radialGradient id="Gradient_1" gradientUnits="userSpaceOnUse" cx="0" cy="0" r="35.20000000000001" fx="0" fy="0" gradientTransform="matrix( 0.9999999999999998, 0, 0, 0.9999999999999998, 37.6,22.45) " spreadMethod="pad">
<stop  offset="0%" stop-color="#F0F1B4"/>

<stop  offset="51.76470588235294%" stop-color="#B5DE27"/>
</radialGradient>

<g id="leg_suit_0_Layer0_0_FILL">
<path fill="#000000" stroke="none" d="
M 40.65 38.1
Q 42.4 31.6 42.4 29.2 42.65 21.15 42.6 16 42.45 6.3 40.9 3.85 40.65 3.35 40.25 2.85 38.35 0.55 35.35 0.05 31.25 -0.5 25.65 2.3 20.4 5 13.05 21.8 7.05 35.55 4.9 44.65 2.95 53.05 0 59.05 3 62.7 10.5 65.1 16.65 67 21.7 67 24.6 67 31.5 65.3 31.25 65.65 34.95 64.4 43.85 61.4 42.95 58.05 42.25 55.85 41.45 50.85 40.7 46.75 39.9 45.1 39.15 43.5 40.65 38.1
M 38.7 3.55
Q 39.05 3.9 39.3 4.3 40.5 6.35 40.6 14.15 40.65 18.25 40.45 24.75 40.45 26.75 39.65 31.65 38.85 36.65 38.9 37.35 38.95 38 38.85 38.3
L 37.4 40.7 34.05 33.7 29.45 40.95 29.25 40.35 26.2 33.3 20.85 39.4 18.7 32 11.95 34.25
Q 13.85 27.85 17.6 18.8 23.3 5.25 27.4 3.15 31.8 0.9 34.95 1.35 36.5 1.55 37.7 2.45 38.25 2.95 38.7 3.55
M 16.45 37.1
L 18.8 45.2 24.6 38.65 28.1 46.85 30.15 43.55 33.05 38.95 36.7 46.55 37.7 44.9
Q 38.3 46.4 38.75 49.45 39.45 53.8 40 55.7 40.85 58.6 33.25 61.25 30.15 62.35 30.45 62 24.6 63.45 22.15 63.45 17.95 63.45 12.75 61.8 6.5 59.8 3.95 56.55 6.45 51.4 8.05 44.05 8.6 42 9.25 39.65
L 16.45 37.1 Z"/>

<path fill="#698371" stroke="none" d="
M 38.75 49.45
Q 38.3 46.4 37.7 44.9
L 36.7 46.55 33.05 38.95 30.15 43.55
Q 29.65 52.65 30.45 62 30.15 62.35 33.25 61.25 40.85 58.6 40 55.7 39.45 53.8 38.75 49.45 Z"/>

<path fill="#8EA494" stroke="none" d="
M 18.8 45.2
L 16.45 37.1 9.25 39.65
Q 8.6 42 8.05 44.05 6.45 51.4 3.95 56.55 6.5 59.8 12.75 61.8 17.95 63.45 22.15 63.45 24.6 63.45 30.45 62 29.65 52.65 30.15 43.55
L 28.1 46.85 24.6 38.65 18.8 45.2 Z"/>

<path fill="#212C58" stroke="none" d="
M 37.7 2.45
Q 36.5 1.55 34.95 1.35 31.8 0.9 27.4 3.15 23.3 5.25 17.6 18.8 13.85 27.85 11.95 34.25
L 18.7 32 20.85 39.4 26.2 33.3 29.25 40.35
Q 38.95 15.45 37.7 2.45 Z"/>

<path fill="#000033" stroke="none" d="
M 39.3 4.3
Q 39.05 3.9 38.7 3.55 38.25 2.95 37.7 2.45 38.95 15.45 29.25 40.35
L 29.45 40.95 34.05 33.7 37.4 40.7 38.85 38.3
Q 38.95 38 38.9 37.35 38.85 36.65 39.65 31.65 40.45 26.75 40.45 24.75 40.65 18.25 40.6 14.15 40.5 6.35 39.3 4.3 Z"/>
</g>

<g id="arm_suit_0_Layer0_0_FILL">
<path fill="#151D39" stroke="none" d="
M 69.7 1
Q 68.65 0.9 67.75 0.9
L 51.25 22.75 49.75 34.5 50.65 32.7 55.05 26.35
Q 55.15 26.25 55.25 26.15
L 55.3 26.05
Q 55.4 25.95 55.5 25.9
L 55.5 25.85
Q 55.65 25.65 55.75 25.55 56.65 24.6 58.5 22.7 61.5 19.55 63.75 17.25 65.9 15 66.5 13.75 67.25 12.5 67.3 11.55 67.4 9.85 67.8 9.1 67.9 9 67.95 8.95 68.45 8.35 68.95 7.1 69 6.9 69.05 6.75
L 69.7 1.25 69.7 1 Z"/>

<path fill="#212C58" stroke="none" d="
M 67.75 0.9
Q 66.75 0.85 65.95 0.95 65.25 0.9 64.75 0.9 64.2 0.9 63.8 0.95 61.55 1.05 61.75 1.15 62 1.15 60.15 1.6 59.3 1.8 57.65 2.9 55.95 4.05 53.4 6.25 48.4 10.4 48.9 9.95 49.3 9.45 39.65 18.35
L 41.3 20.85 51.5 19.9 51.25 22.75 67.75 0.9 Z"/>

<path fill="#000000" stroke="none" d="
M 69.7 1.25
Q 69.75 1.25 69.8 1.25
L 70 0.1
Q 68.25 0.05 65.7 0 58.7 -0.2 52.45 4.8 46.05 9.85 44.7 10.85 43.95 11.4 39.55 15.45 35.9 18.8 29.55 24.7 27.45 26.75 22.65 29.8 17.95 32.8 16.3 34.45 14.3 36.45 15.5 36.8 16.75 37.3 15.55 38.6 14 40.4 7.05 47.9 2 53.35 2.05 53.5 0 56.1 0 57.9 1.55 61.15 4.15 61.6 1 64.75 2.7 68.6
L 14.95 80
Q 17.7 81.7 19.75 80.5 21.8 79.25 23.15 77.95 24.45 76.65 24.5 75.7 24.5 74.75 24.7 72.95 24.9 71.15 23.05 67.5
L 20.7 64.1
Q 20.7 61.75 22.55 60.85
L 23.9 64.25
Q 25 67.5 29.8 68.8 31.05 68.9 33 69.1 35 69.2 37.25 67.7 39.4 66.15 38.9 63.25 37.8 60 37.7 58.8 37.5 56.95 38.65 56.35 39 56.15 40.45 52.95 42.15 49.35 42.7 48.55 46.5 45.9 46.7 45.6 47.3 44.75 47.75 43.1 48.05 41.8 49 39.8 49.7 38.25 50.65 36.25 54.8 30.75 57.95 27 59.65 24.95 61 23.4 64.55 19.5 67.4 17.35
L 68.45 12.65 68.95 7.1
Q 68.45 8.35 67.95 8.95 67.9 9 67.8 9.1 67.4 9.85 67.3 11.55 67.25 12.5 66.5 13.75 65.9 15 63.75 17.25 61.5 19.55 58.5 22.7 56.65 24.6 55.75 25.55 55.65 25.65 55.5 25.85
L 55.5 25.9
Q 55.4 25.95 55.3 26.05
L 55.25 26.15
Q 55.15 26.25 55.05 26.35
L 50.65 32.7 49.75 34.5 51.25 22.75 51.5 19.9 41.3 20.85 39.65 18.35
Q 49.3 9.45 48.9 9.95 48.4 10.4 53.4 6.25 55.95 4.05 57.65 2.9 59.3 1.8 60.15 1.6 62 1.15 61.75 1.15 61.55 1.05 63.8 0.95 64.2 0.9 64.75 0.9 65.25 0.9 65.95 0.95 66.75 0.85 67.75 0.9 68.65 0.9 69.7 1
L 69.7 1.25
M 44.95 43.65
L 44.4 44.8
Q 44.25 45.15 39.2 46.4
L 34.15 47.65 33.3 47 38.9 33.35 26.3 41.75 25.25 40.9 29.45 33.15 26.45 34.05 18.25 35.2
Q 19.3 34.2 23.15 32.15 27 30.1 28.25 28.9 31.4 25.95 34.75 22.8
L 34.7 22.8
Q 36 21.55 37.4 20.35
L 35.4 24.9
Q 42.8 23.15 47.9 23.3 47.75 33.45 44.95 43.65
M 18.8 38.2
Q 19.45 37.5 20.15 36.95 20.3 36.75 20.5 36.5
L 24.7 36.05 24.5 36.8 23.2 42.1 24.2 44.6 32.2 39.65 31.2 48.2 32.9 49.9 33.5 50.65 40.45 48.4
Q 39.45 49.8 38.7 50.65
L 38.5 50.8
Q 38.15 51.2 37.25 52.7 36.45 54.25 35.95 55.4 35.45 56.45 36.15 60.45 36.75 64.45 35.15 65.5 33.45 66.55 30.65 66.05 27.7 65.55 26.15 63.65
L 25.2 62.85
Q 24.2 58.9 24.2 58.55 23.9 55.25 20.25 60.45 19.3 61.75 18.8 62.95 17.65 66.15 20.45 68 22.65 71.15 22.05 74.4 22 75.35 21.55 76.2 21.05 77.05 20.15 77.8 18.4 78.85 16 78.15
L 4 67.65
Q 4.25 63.65 6.3 61.15 6.05 60.85 5.75 60.45 4.55 58.55 4.4 56.5 7.15 51.95 10.3 47.75 11.2 46.65 12.15 45.5 15.25 41.65 18.8 38.2 Z"/>

<path fill="#728D79" stroke="none" d="
M 36.15 60.45
Q 35.45 56.45 35.95 55.4 36.45 54.25 37.25 52.7 38.15 51.2 38.5 50.8
L 38.7 50.65
Q 39.45 49.8 40.45 48.4
L 33.5 50.65 32.9 49.9
Q 28.7 56.3 25.2 62.85
L 26.15 63.65
Q 27.7 65.55 30.65 66.05 33.45 66.55 35.15 65.5 36.75 64.45 36.15 60.45 Z"/>

<path fill="#8EA494" stroke="none" d="
M 16.7 45.5
Q 15.75 46.65 14.9 47.75 9.9 54.15 5.75 60.45 6.05 60.85 6.3 61.15 4.25 63.65 4 67.65
L 16 78.15
Q 18.4 78.85 20.15 77.8 21.05 77.05 21.55 76.2 22 75.35 22.05 74.4 22.65 71.15 20.45 68 17.65 66.15 18.8 62.95 19.3 61.75 20.25 60.45 23.9 55.25 24.2 58.55 24.2 58.9 25.2 62.85 28.7 56.3 32.9 49.9
L 31.2 48.2 32.2 39.65 24.2 44.6 23.2 42.1 24.5 36.8
Q 18.75 42.95 16.7 45.5 Z"/>

<path fill="#AEBDB3" stroke="none" d="
M 20.15 36.95
Q 19.45 37.5 18.8 38.2 15.25 41.65 12.15 45.5 11.2 46.65 10.3 47.75 7.15 51.95 4.4 56.5 4.55 58.55 5.75 60.45 9.9 54.15 14.9 47.75 15.75 46.65 16.7 45.5 18.75 42.95 24.5 36.8
L 24.7 36.05 20.5 36.5
Q 20.3 36.75 20.15 36.95 Z"/>

<path fill="#FFFFFF" stroke="none" d="
M 37.4 20.35
Q 36 21.55 34.7 22.8
L 34.75 22.8
Q 31.4 25.95 28.25 28.9 27 30.1 23.15 32.15 19.3 34.2 18.25 35.2
L 26.45 34.05
Q 27.3 33.05 28.25 32.15 28.3 32.05 28.45 31.9 32 28.15 35.4 24.9
L 37.4 20.35 Z"/>

<path fill="#F2F2F2" stroke="none" d="
M 44.4 44.8
L 44.95 43.65
Q 47.75 33.45 47.9 23.3 42.8 23.15 35.4 24.9 32 28.15 28.45 31.9 28.3 32.05 28.25 32.15 27.3 33.05 26.45 34.05
L 29.45 33.15 25.25 40.9 26.3 41.75 38.9 33.35 33.3 47 34.15 47.65 39.2 46.4
Q 44.25 45.15 44.4 44.8 Z"/>
</g>

<g id="body_suit_0_Layer5_0_FILL">
<path fill="#000000" stroke="none" d="
M 25.25 -37.65
Q 19.8185546875 -47.49765625 16 -47.2 12.19140625 -46.8974609375 6.65 -47.15 3.3345703125 -47.30234375 -3.25 -46.8 -5.4701171875 -46.64375 -8.1 -46.4 -10.619921875 -46.156640625 -13.5 -45.85 -14.3 -45.85 -15 -45.75 -24.2 -44.7 -28.5 -30.85 -37.05 11.45 -31 30.65 -30.75 31.75 -30.4 32.85 -29.55 35.35 -28 37.4 -23.25 43.6 -12 45.65 4.6462890625 48.4658203125 12.9 47.65 14.642578125 47.4765625 16 47.15 21.75 44.6 25.65 40.8 32.5 33.95 33.4 23.2 33.6 20.75 33.5 18.15
L 28.5 -30.35
Q 26.969140625 -34.5326171875 25.25 -37.65
M 13.2 -44.8
Q 17.1439453125 -45.25859375 24.65 -33.75 25.6529296875 -31.692578125 26.55 -29.25
L 30.65 10.65 31.2 16
Q 31.21015625 16.241796875 31.2 16.45 31.2267578125 16.4916015625 31.2 16.5 31.28984375 16.4654296875 31.35 16.4 31.35 16.95 31.4 17.15 30.15 30.85 24 37.05 23.0580078125 37.9662109375 22 38.8
L 14.95 43
Q 14.901171875 43.02734375 14.85 43.05 14.6375 43.1005859375 14.4 43.15 14 43.231640625 13.55 43.3 11.490234375 43.6357421875 9.25 43.8 9.1056640625 43.8490234375 8.9 43.85 8.7515625 43.916796875 8.5 44
L 9.7 42.1 8.65 43.55
Q 2.85 44.1 -6.7 43.3 -16.9 42.4 -21.5 38.6 -26.1 34.7 -27.35 32.15 -28.6 29.55 -28.45 29.6 -28.35 29.6 -28.6 29.05 -28.95 28.5 -28.55 28.05 -29.4 27.4 -29.15 27.45 -29.0806640625 27.45 -29 27.45 -29.0697265625 27.256640625 -29.15 27.05 -29.0072265625 27.31796875 -28.95 27.45 -28.903515625 27.4822265625 -28.85 27.5 -28.8 27.5 -28.75 27.55
L -22.05 18.95 -18.15 32.25 -9.7 23.25 -5.6 35.6 -10 20.3 -18.55 30.75 -22.45 15.25 -26.85 21.7 -29.25 25.3
Q -29.3115234375 25.27265625 -29.4 25.25 -30.1533203125 23.7716796875 -30.15 22.85 -34.0447265625 4.6349609375 -26.65 -29.75 -22.740625 -42.3580078125 -8.7 -43.8 -8.5734375 -43.81328125 -8.45 -43.85 -8.2560546875 -43.8330078125 -8.05 -43.85
L -8.1 -43.85
Q -5.2767578125 -43.8869140625 -3 -43.95 -1.8169921875 -43.972265625 -0.8 -44 3.49921875 -44.1123046875 5.4 -44.2 6.54921875 -44.2119140625 -0.95 -44.3 10.46484375 -44.4396484375 13.2 -44.8
M 22.65 22.3
Q 22.3900390625 22.423828125 22.1 22.55
L 20 19.35 16.2 13.65 15.9 14.5 10.65 30.15 9.2 28.75 1.75 20 -4.8 38.05 -4.6 38.65 1.9 23 10.75 31.75 16.2 17.55 21.35 24.25 22.65 22.3 Z"/>

<path fill="#D1D0BE" stroke="none" d="
M -29.4 25.25
Q -29.3115234375 25.27265625 -29.25 25.3
L -26.85 21.7
Q -23.116015625 -9.9833984375 -9.05 -42.3 -29.782421875 -9.6357421875 -30.15 22.85 -30.1533203125 23.7716796875 -29.4 25.25
M 9.2 28.75
L 10.65 30.15 15.9 14.5
Q 17.96484375 -13.0537109375 -0.8 -44 -1.8169921875 -43.972265625 -3 -43.95 18.155078125 -11.5806640625 9.2 28.75 Z"/>

<path fill="#FFFFFF" stroke="none" d="
M -29 27.45
L -28.95 27.45
Q -29.0072265625 27.31796875 -29.15 27.05 -29.0697265625 27.256640625 -29 27.45 Z"/>

<path fill="#212C58" stroke="none" d="
M -8.1 -43.85
L -8.05 -43.85
Q -8.2560546875 -43.8330078125 -8.45 -43.85 -8.5734375 -43.81328125 -8.7 -43.8 -22.740625 -42.3580078125 -26.65 -29.75 -34.0447265625 4.6349609375 -30.15 22.85 -29.782421875 -9.6357421875 -9.05 -42.3 -8.5669921875 -43.066796875 -8.1 -43.85
M 14.85 43.05
Q 14.901171875 43.02734375 14.95 43 14.7271484375 43.0560546875 14.4 43.15 14.6375 43.1005859375 14.85 43.05
M 8.65 43.55
L 9.7 42.1 22.6 25
Q 22.35 25.05 22.1 25.2
L 21.35 24.25 16.2 17.55 10.75 31.75 1.9 23 -4.6 38.65 -4.8 38.05 -5.6 35.6 -9.7 23.25 -18.15 32.25 -22.05 18.95 -28.75 27.55
Q -28.8 27.5 -28.85 27.5 -28.903515625 27.4822265625 -28.95 27.45
L -29 27.45
Q -29.0806640625 27.45 -29.15 27.45 -29.4 27.4 -28.55 28.05 -28.95 28.5 -28.6 29.05 -28.35 29.6 -28.45 29.6 -28.6 29.55 -27.35 32.15 -26.1 34.7 -21.5 38.6 -16.9 42.4 -6.7 43.3 2.85 44.1 8.65 43.55
M 31.2 16.5
Q 31.2267578125 16.4916015625 31.2 16.45 30.169921875 17.5927734375 28.7 18.7 30.1744140625 17.6447265625 31.2 16.5
M 24.65 -33.75
Q 17.1439453125 -45.25859375 13.2 -44.8 10.46484375 -44.4396484375 -0.95 -44.3 6.54921875 -44.2119140625 5.4 -44.2 3.49921875 -44.1123046875 -0.8 -44 17.96484375 -13.0537109375 15.9 14.5
L 16.2 13.65 20 19.35
Q 26.70390625 2.0779296875 24.65 -33.75 Z"/>

<path fill="#F4F4DF" stroke="none" d="
M 1.75 20
L 9.2 28.75
Q 18.155078125 -11.5806640625 -3 -43.95 -5.2767578125 -43.8869140625 -8.1 -43.85 -8.5669921875 -43.066796875 -9.05 -42.3 -23.116015625 -9.9833984375 -26.85 21.7
L -22.45 15.25 -18.55 30.75 -10 20.3 -5.6 35.6 -4.8 38.05 1.75 20 Z"/>

<path fill="#000033" stroke="none" d="
M 22.65 22.3
L 21.35 24.25 22.1 25.2
Q 22.35 25.05 22.6 25
L 9.7 42.1 8.5 44
Q 8.7515625 43.916796875 8.9 43.85 9.1056640625 43.8490234375 9.25 43.8 11.490234375 43.6357421875 13.55 43.3 14 43.231640625 14.4 43.15 14.7271484375 43.0560546875 14.95 43
L 22 38.8
Q 23.0580078125 37.9662109375 24 37.05 30.15 30.85 31.4 17.15 31.35 16.95 31.35 16.4 31.28984375 16.4654296875 31.2 16.5 30.1744140625 17.6447265625 28.7 18.7 30.169921875 17.5927734375 31.2 16.45 31.21015625 16.241796875 31.2 16
L 30.65 10.65 22.65 22.3 Z"/>

<path fill="#141B36" stroke="none" d="
M 26.55 -29.25
Q 25.6529296875 -31.692578125 24.65 -33.75 26.70390625 2.0779296875 20 19.35
L 22.1 22.55
Q 22.3900390625 22.423828125 22.65 22.3
L 30.65 10.65 26.55 -29.25 Z"/>
</g>

<g id="body_suit_0_Layer4_0_FILL">
<path fill="#D8D8D8" stroke="none" d="
M 12.55 -42.6
Q 9.1 -42.45 5.75 -42.25 -3.5 -41.8 -13.1 -41.2 -9.95 -33.15 -3.9 -25.4 4.8 -30.6 12.55 -42.6 Z"/>
</g>

<g id="body_suit_0_Layer3_0_FILL">
<path fill="#CC0000" stroke="none" d="
M -7.9 -22.35
L -8.55 -22.35 -16.4 -20.15 -16.25 -19.4 -8.65 -21.5
Q -8.6 -21.6 -8.5 -21.7 -8.5 -21.6 -8.5 -21.55
L -8.05 -21.65
Q -8.15 -21.8 -8.2 -22 -8.05 -22.2 -7.9 -22.35
M -22.25 -9.55
L -24.85 -9.75 -17.25 -22.6 -17.55 -23.85 -26 -9.45 -23.1 -9.25 -24.2 -2.95
Q -23.65 -3.4 -23.1 -3.85
L -23.2 -3.85
Q -23.15 -3.9 -23.05 -3.95
L -22.25 -9.55
M 23.55 10.15
L 22.6 9.9 19.85 19.8
Q 20 20 20.1 20.3
L 20.1 20.35
Q 20.35 21.05 20.4 21.75
L 23.55 10.15
M 9.3 -9.95
Q 9.45 -9.05 9.6 -8.15
L 15.35 -3.4 17.35 -6.2 26.85 10.85 28.5 11.3 17.85 -7.65 15.65 -4.6 9.3 -9.95 Z"/>

<path fill="#586D5E" stroke="none" d="
M -21.35 -8.95
L -22.45 -5.3
Q -18.9 -9.95 -3.5 -18.35
L -12.7 -15.7
Q -12.6 -15.95 -12.5 -16.1
L -21.35 -8.95
M 14.15 -2.85
L 10.75 -6.45
Q 13.65 0.65 12.85 23.4
L 16 11.4
Q 16.2 11.65 16.3 11.85
L 14.15 -2.85 Z"/>

<path fill="#000000" stroke="none" d="
M -20.85 -10.95
L -24 -9.95
Q -19.4 -15.15 -17.55 -21.5
L -17.65 -17.15 -8.8 -21.05 -8.75 -21.05
Q -8.6 -21.25 -8.45 -21.35 -8.25 -21.55 -8.05 -21.65
L -8.5 -21.55 -8.65 -21.5 -16.25 -19.4 -16.4 -20.15 -17.15 -22.75 -17.25 -22.6 -24.85 -9.75 -22.25 -9.55 -23.05 -3.95
Q -21.95 -4.95 -20.75 -5.95
L -2.75 -18.65 -9.65 -17.3
Q -10.35 -17.6 -9.7 -19.3 -9.45 -19.95 -9.2 -20.4 -9 -20.75 -8.8 -21.05 -8.95 -20.95 -9 -20.85 -11.35 -18.95 -12.5 -16.1 -12.6 -15.95 -12.7 -15.7
L -3.5 -18.35
Q -18.9 -9.95 -22.45 -5.3
L -21.35 -8.95 -20.85 -10.95
M 9.6 -8.15
L 9.55 -8.25
Q 9.95 -6.25 9.55 1.65 9.55 1.75 9.55 1.85 9.5 13.25 12.7 24.45
L 15.75 15.85
Q 16.6 15.25 18.05 17.1 18.65 17.8 19 18.45 19.25 18.85 19.4 19.25 19.4 19.05 19.35 18.95 18.8 15 16.3 11.85 16.2 11.65 16 11.4
L 12.85 23.4
Q 13.65 0.65 10.75 -6.45
L 14.15 -2.85 16.05 -0.95 17.05 -5.1
Q 19.85 3.55 25.8 9.8
L 20.95 6.75 19.4 19.25 19.4 19.3
Q 19.65 19.95 19.65 20.6
L 19.85 19.8 22.6 9.9 23.55 10.15 27 11.05 26.85 10.85 17.35 -6.2 15.35 -3.4 9.6 -8.15 Z"/>

<path fill="#728D79" stroke="none" d="
M -24 -9.95
L -20.85 -10.95 -21.35 -8.95 -12.5 -16.1
Q -11.35 -18.95 -9 -20.85 -8.95 -20.95 -8.8 -21.05
L -17.65 -17.15 -17.55 -21.5
Q -19.4 -15.15 -24 -9.95
M 16.05 -0.95
L 14.15 -2.85 16.3 11.85
Q 18.8 15 19.35 18.95 19.4 19.05 19.4 19.25
L 20.95 6.75 25.8 9.8
Q 19.85 3.55 17.05 -5.1
L 16.05 -0.95 Z"/>
</g>

<g id="body_suit_0_Layer2_0_FILL">
<path fill="#D8D8D8" stroke="none" d="
M -0.85 -41.3
L -3.95 -41.65 -18.95 11.25 -13.95 15.5 -7.75 20.75 -4 18.7 5.5 13.15 -0.85 -41.3 Z"/>
</g>

<g id="body_suit_0_Layer1_0_FILL">
<path fill="#000000" stroke="none" d="
M -2.3 -39.7
L -4.9 -40 -17.65 10.8 -13.4 14.9 -8.15 19.95 -4.95 17.95 3.1 12.65 -2.3 -39.7
M -2.9 -37.95
L -2.55 -37.9 -0.4 10.75 -2.6 12.95 -7.6 17.95 -11.3 13.6 -14.65 9.65 -5.95 -30.45 -4.3 -38.15 -2.9 -37.95 Z"/>

<path fill="#CC0000" stroke="none" d="
M -14.65 9.65
L -11.3 13.6
Q -10.2 -8.65 -5.95 -30.45
L -14.65 9.65 Z"/>

<path fill="#990000" stroke="none" d="
M -2.9 -37.95
L -4.3 -38.15 -5.95 -30.45
Q -10.2 -8.65 -11.3 13.6
L -7.6 17.95 -2.6 12.95
Q -2.2 -11.4 -2.9 -37.95 Z"/>

<path fill="#6C0000" stroke="none" d="
M -2.55 -37.9
L -2.9 -37.95
Q -2.2 -11.4 -2.6 12.95
L -0.4 10.75 -2.55 -37.9 Z"/>
</g>

<g id="body_suit_0_Layer0_0_FILL">
<path fill="#000000" stroke="none" d="
M 10.65 -45.9
Q 7.2 -45.75 3.9 -45.6 -5.4 -45.2 -15 -44.65 -11.85 -37.6 -5.8 -30.85 2.9 -35.4 10.65 -45.9
M 2.6 -43.9
Q 5.55 -44.25 8.75 -44.75 1.8 -36.45 -5.3 -32.9
L -5.7 -33.4 -13.45 -43.8
Q -5.7 -43.15 2.6 -43.9 Z"/>

<path fill="#990000" stroke="none" d="
M -13.45 -43.8
L -5.7 -33.4 2.6 -43.9
Q -5.7 -43.15 -13.45 -43.8 Z"/>

<path fill="#6C0000" stroke="none" d="
M 8.75 -44.75
Q 5.55 -44.25 2.6 -43.9
L -5.7 -33.4 -5.3 -32.9
Q 1.8 -36.45 8.75 -44.75 Z"/>
</g>

<g id="head_0_Layer0_0_FILL">
<path fill="#000000" stroke="none" d="
M 127.75 22.1
Q 124.45 18.65 121.85 16.55 119.2 14.4 108.7 8.7 98.2 2.95 83.7 0.6 69.15 -1.75 47.3 5.35 25.45 12.4 18.05 23.75 10.6 35 3.45 49.15 -3.7 63.25 4 84.45 11.65 105.65 32.1 119.35 52.55 133.05 58.3 135.6 64.05 138.15 71.75 136.3 79.4 134.45 97.5 131.25 112.3 128.65 113.7 128.95 114.75 128 118.1 125.15 124.35 119.85 127.25 117.15 131.35 113.3 133.6 110.35 137.35 105.3 138.95 102.7 140.5 100.05 141.8 95.85 143.1 91.65 146.75 75.6 146.95 74.7 148.85 73.75 151.55 73.75 153.45 71.65 155.4 69.55 155.4 66.6 155.4 63.65 153.75 61.55 152.05 59.45 150.65 58.75 149.25 58.05 148 57.65 147.75 54.65 145 49.7 141.45 43.35 139.65 40.3 131.05 25.55 127.75 22.1
M 124.5 26.65
Q 128.85 30.7 132.65 37.65 136.35 44.55 141 53.4 142.65 56.55 144.1 59.2 144.6 59.25 145.65 59.25 147.4 59.25 149.9 61.25 152.4 63.25 152.6 65.75 152.8 68.25 150.55 69.95 148.3 71.65 146.4 71.6 144.45 71.55 143.5 70.7 143.2 70.65 142.95 70.6 142.5 73 141.75 75.6 141.5021484375 76.4625 141.25 77.25 141.3 78.08203125 141.3 78.9 141.3 88.15 136.9 94.65 136.1921875 95.6947265625 135.45 96.55 134.8623046875 97.9810546875 134.2 99.1 132.75 101.45 129.3 106.1 126 110.5 123.7 114.25 123.45 114.65 123.15 115.1 108.55 117.6 91.75 121.1 74.9 124.6 71.95 124.35 68.95 124.1 65.65 125.35 62.3 126.55 41.4 114.9 20.45 103.2 11.7 82.4 10 78.35 9.7 78 9.7 78.1 9.65 78.2
L 8.15 72.3
Q 4.7 58.3 10.05 48.7 14.3396484375 40.9548828125 18.4 34.4 21.15234375 29.95078125 23.8 26.05 24.3 25.3 24.9 24.65 25.75 23.5 26.8 22.5 33.2 16.05 46.4 11.35 48.3 10.6 50.4 9.95 70.4 3.6 83.7 5.75 88.7 6.55 93.15 7.9
L 101.55 10.85 102.8 11.45
Q 104.7 12.3 106.45 13.25 108.1 14.15 109.5 14.95 109.25 14.9 109 14.85 116.2 19.1 118.15 20.85 120.15 22.55 124.5 26.65 Z"/>

<path fill="#708B77" stroke="none" d="
M 18.4 34.4
L 12.15 45
Q 18 47.05 21 47 22.6814453125 46.9720703125 24.15 46.05 25.3451171875 45.324609375 26.4 44.05 28.4931640625 41.520703125 28.6 39.95 28.6255859375 39.7109375 28.6 39.5 28.4 37.85 26.2 35.95 24 34.05 20.85 34.05 19.55 34.05 18.4 34.4
M 116.4 59
L 116.35 59
Q 113.75 50.95 100.05 39.5 86.35 28 62 31.05 37.6 34.05 34.75 48.95 31.8 63.8 29.25 78 26.7 92.2 38.2 103.4 49.7 114.55 70.2 118.5 90.7 122.4 98.95 108.75 104.3 93.15 118.35 97.85 121.85 101.2 126.3 101.2 128.6 101.2 130.65 100.3 133.55 99.8 134.75 97.4 135.10859375 97.0087890625 135.45 96.55 136.1921875 95.6947265625 136.9 94.65 141.3 88.15 141.3 78.9 141.3 78.08203125 141.25 77.25 141.09765625 73.35859375 140.1 69.95 140.9 71.15 140.85 64.25 140.5 64.7 140.15 64.7 139.75 64.7 138.15 62.7 136.5 60.7 129.95 59.65 123.35 58.55 116.4 59
M 84 23.3
Q 83.2 23.75 83.2 24.4 83.2 25.05 84 25.5 84.85 25.95 86 25.95 87.15 25.95 87.95 25.5 88.8 25.05 88.8 24.4 88.8 23.75 87.95 23.3 87.15 22.85 86 22.85 84.85 22.85 84 23.3
M 102.4 23.05
Q 104.35 21.9 104.35 20.3 104.35 18.7 102.4 17.55 100.45 16.4 97.65 16.4 94.85 16.4 92.9 17.55 90.95 18.7 90.95 20.3 90.95 21.9 92.9 23.05 94.85 24.2 97.65 24.2 100.45 24.2 102.4 23.05 Z"/>

<path fill="#BAC7BD" stroke="none" d="
M 18.4 34.4
Q 14.3396484375 40.9548828125 10.05 48.7 4.7 58.3 8.15 72.3
L 9.65 78.2
Q 9.7 78.1 9.7 78 15.3619140625 59.3546875 24.15 46.05 22.6814453125 46.9720703125 21 47 18 47.05 12.15 45
L 18.4 34.4
M 102.8 11.45
L 101.55 10.85 93.15 7.9
Q 88.6 6.65 83.6 5.85 70.3 3.7 50.3 10.05 48.3 10.7 46.4 11.35 33.2 16.05 26.8 22.5 25.75 23.5 24.9 24.65 24.3 25.3 23.8 26.05 21.15234375 29.95078125 18.4 34.4 19.55 34.05 20.85 34.05 24 34.05 26.2 35.95 28.4 37.85 28.6 39.5 28.6255859375 39.7109375 28.6 39.95 55.9505859375 5.61328125 109 14.85 109.25 14.9 109.5 14.95 108.1 14.15 106.45 13.25 104.7 12.3 102.8 11.45 Z"/>

<path fill="#8EA494" stroke="none" d="
M 83.6 5.85
Q 88.6 6.65 93.15 7.9 88.7 6.55 83.7 5.75 70.4 3.6 50.4 9.95 48.3 10.6 46.4 11.35 48.3 10.7 50.3 10.05 70.3 3.7 83.6 5.85
M 132.65 37.65
Q 128.85 30.7 124.5 26.65 120.15 22.55 118.15 20.85 116.2 19.1 109 14.85 55.9505859375 5.61328125 28.6 39.95 28.4931640625 41.520703125 26.4 44.05 25.3451171875 45.324609375 24.15 46.05 15.3619140625 59.3546875 9.7 78 10 78.35 11.7 82.4 20.45 103.2 41.4 114.9 62.3 126.55 65.65 125.35 68.95 124.1 71.95 124.35 74.9 124.6 91.75 121.1 108.55 117.6 123.15 115.1 123.45 114.65 123.7 114.25 126 110.5 129.3 106.1 132.75 101.45 134.2 99.1 134.8623046875 97.9810546875 135.45 96.55 135.10859375 97.0087890625 134.75 97.4 133.55 99.8 130.65 100.3 128.6 101.2 126.3 101.2 121.85 101.2 118.35 97.85 104.3 93.15 98.95 108.75 90.7 122.4 70.2 118.5 49.7 114.55 38.2 103.4 26.7 92.2 29.25 78 31.8 63.8 34.75 48.95 37.6 34.05 62 31.05 86.35 28 100.05 39.5 113.75 50.95 116.35 59
L 116.4 59
Q 123.35 58.55 129.95 59.65 136.5 60.7 138.15 62.7 139.75 64.7 140.15 64.7 140.5 64.7 140.85 64.25 140.9 71.15 140.1 69.95 141.09765625 73.35859375 141.25 77.25 141.5021484375 76.4625 141.75 75.6 142.5 73 142.95 70.6 143.2 70.65 143.5 70.7 144.45 71.55 146.4 71.6 148.3 71.65 150.55 69.95 152.8 68.25 152.6 65.75 152.4 63.25 149.9 61.25 147.4 59.25 145.65 59.25 144.6 59.25 144.1 59.2 142.65 56.55 141 53.4 136.35 44.55 132.65 37.65
M 104.35 20.3
Q 104.35 21.9 102.4 23.05 100.45 24.2 97.65 24.2 94.85 24.2 92.9 23.05 90.95 21.9 90.95 20.3 90.95 18.7 92.9 17.55 94.85 16.4 97.65 16.4 100.45 16.4 102.4 17.55 104.35 18.7 104.35 20.3
M 83.2 24.4
Q 83.2 23.75 84 23.3 84.85 22.85 86 22.85 87.15 22.85 87.95 23.3 88.8 23.75 88.8 24.4 88.8 25.05 87.95 25.5 87.15 25.95 86 25.95 84.85 25.95 84 25.5 83.2 25.05 83.2 24.4 Z"/>
</g>

<g id="Duplicate_Items_Folder_eye_0_Layer0_0_FILL">
<path fill="#000000" stroke="none" d="
M 60.8 30.8
Q 62.4 17.35 54.95 7.8 47.5017578125 -1.7564453125 32 0.1 16.5443359375 2.0103515625 6.75 10.4 -3.0486328125 18.8361328125 -4.25 37.3 -5.45625 55.8119140625 5.2 61.3 15.8673828125 66.7943359375 31.95 65.75 48.087890625 64.69765625 53.65 54.5 59.15 44.35 60.8 30.8
M 53.15 9.8
Q 59.85 18.4 58.4 30.55 56.9 42.75 51.95 51.9 46.95 61.1 33.25 59.85 19.55 58.55 11.6 50.65 3.55 42.75 3.55 31.65 3.55 20.6 11.35 12.8 19.15 4.95 32.8 3.15 46.4 1.2 53.15 9.8 Z"/>

<path fill="#32A84A" stroke="none" d="
M 58.4 30.55
Q 59.85 18.4 53.15 9.8 46.4 1.2 32.8 3.15 19.15 4.95 11.35 12.8 3.55 20.6 3.55 31.65 3.55 42.75 11.6 50.65 19.55 58.55 33.25 59.85 46.95 61.1 51.95 51.9 56.9 42.75 58.4 30.55
M 51.6 12.05
Q 52.45 13.1 53.15 14.25 57.5 21.3 56.35 30.8 55.5 38 53.3 44.05 52.1 47.2 50.55 50.1 46.05 58.4 33.65 57.2 21.35 56.05 14.1 48.9 13.3 48.1 12.6 47.25 6.9 40.65 6.9 31.8 6.9 30.05 7.1 28.4 8.1 20.6 13.95 14.8 21 7.75 33.3 6 45.55 4.3 51.6 12.05 Z"/>

<path fill="#9ED776" stroke="none" d="
M 12.6 47.25
Q 13.3 48.1 14.1 48.9 21.35 56.05 33.65 57.2 46.05 58.4 50.55 50.1 52.1 47.2 53.3 44.05 36.35 53.2 12.6 47.25
M 53.15 14.25
Q 52.45 13.1 51.6 12.05 45.55 4.3 33.3 6 21 7.75 13.95 14.8 8.1 20.6 7.1 28.4 16.1 19.55 26.45 17 36.75 14.45 43.8 14.2 50.8 13.9 53.15 14.25 Z"/>

<path fill="url(#Gradient_1)" stroke="none" d="
M 56.35 30.8
Q 57.5 21.3 53.15 14.25 50.8 13.9 43.8 14.2 36.75 14.45 26.45 17 16.1 19.55 7.1 28.4 6.9 30.05 6.9 31.8 6.9 40.65 12.6 47.25 36.35 53.2 53.3 44.05 55.5 38 56.35 30.8 Z"/>
</g>

<g id="pupil_0_Layer0_0_FILL">
<path fill="#E9F4D7" stroke="none" d="
M 16.5 8.45
Q 16.5 4.95 14.1 2.45 14 2.35 13.95 2.3 11.6 0 8.25 0 4.85 0 2.45 2.45 1.7 3.25 1.15 4.1 0 6.05 0 8.45 0 11.95 2.45 14.4 4.85 16.9 8.25 16.9 11.65 16.9 14.1 14.4 16.5 11.95 16.5 8.45
M 13.45 3.3
Q 15.2 5.1 15.2 7.55 15.2 10.05 13.45 11.75 11.75 13.5 9.35 13.5 6.95 13.5 5.3 11.75 3.55 10.05 3.55 7.55 3.55 5.1 5.3 3.3
L 5.35 3.25
Q 7 1.55 9.35 1.55 11 1.55 12.35 2.4 12.95 2.75 13.45 3.3 Z"/>

<path fill="#CC0000" stroke="none" d="
M 15.2 7.55
Q 15.2 5.1 13.45 3.3 12.95 2.75 12.35 2.4 11 1.55 9.35 1.55 7 1.55 5.35 3.25
L 5.3 3.3
Q 3.55 5.1 3.55 7.55 3.55 10.05 5.3 11.75 6.95 13.5 9.35 13.5 11.75 13.5 13.45 11.75 15.2 10.05 15.2 7.55 Z"/>
</g>

<g id="ear_0_Layer0_0_FILL">
<path fill="#8EA494" stroke="none" d="
M 23.8 19.1
Q 24.9 17.85 25.15 20.6 26.15 18.6 24.25 14.6
L 16.25 1.4
Q 14.9 0.9 13.5 0.65 14.65 3.95 10.9 2.65 7.15 1.3 4.8 5.55 2.45 9.75 2.85 12.9 3.25 16.05 5.95 17.95 7.7 19.2 12.2 22.65 16.25 25.45 18.45 25.45 20.6 25.45 21.45 24.6 22.7 20.3 23.8 19.1 Z"/>

<path fill="#000000" stroke="none" d="
M 24 23.05
Q 25.05 22.15 25.15 20.6 24.9 17.85 23.8 19.1 22.7 20.3 21.45 24.6 20.6 25.45 18.45 25.45 16.25 25.45 12.2 22.65 7.7 19.2 5.95 17.95 3.25 16.05 2.85 12.9 2.45 9.75 4.8 5.55 7.15 1.3 10.9 2.65 14.65 3.95 13.5 0.65 11.35 0.05 9 0 2.45 -0.25 1.1 4.5 -0.5 10.1 0.25 13.7 0.9 17.15 3.85 19.25 5.75 20.6 10.65 24.35 15.05 27.4 17.45 27.4 19.8 27.4 20.75 26.5 22.1 24.7 24 23.05 Z"/>
</g>

<g id="teeth_0_Layer0_0_FILL">
<path fill="#000000" stroke="none" d="
M 8.35 6.05
Q 2.3 5.55 1.05 16.25 0.1 26.85 0 27.4 0.1 27.95 4.4 28.5
L 11.75 27.9 12.5 24.35 12.3 28.25 17.1 27.4
Q 17.85 16.7 15.1 6.75
L 8.35 6.05
M 10.45 8.05
L 14.4 8.65 16 25.45 13.05 25.9 12.3 21.25 11.35 25.8 6.2 26.15
Q 2.75 25.6 2.75 25.3 2.85 24.75 3.75 16.1 4.65 7.5 9.2 7.9
L 10.45 8.05
M 27.1 5.9
L 21.8 6.5
Q 17.25 7.2 19.4 16.45 21.65 25.55 21.8 26.1 22 26.5 25.4 26.2
L 30.7 24.35 30.2 21.15 31.25 24.5 34.55 22.95
Q 32 13.75 27.1 5.9
M 23 8
L 24.05 7.9 27.1 7.55 33.25 21.45 31.1 22.4 29.25 18.65 29.8 22.7 26.05 23.85
Q 23.4 24.05 23.2 23.8 23.2 23.3 21.4 15.8 19.5 8.4 23 8
M 49 0.35
Q 47.45 -0.35 45.75 0.35
L 40.2 2.85
Q 40.2 13.2 43.35 23.35
L 47.6 22.85 46.55 19.1 48 22.35 54.4 20.95
Q 57.95 19.25 57.85 18.75 57.65 18.2 54.25 8.2 51.9 1.7 49 0.35
M 44.4 2.95
L 45.45 2.35
Q 49.2 0.8 51.95 8.85 54.8 16.95 55.05 17.45 55.1 17.8 52.3 19.15
L 47.9 20.2 45.95 16.1 46.4 20.75 43.8 21.1 41.2 4.45 44.4 2.95 Z"/>

<path fill="#7F814F" stroke="none" d="
M 9.2 7.9
Q 4.65 7.5 3.75 16.1 2.85 24.75 2.75 25.3 2.75 25.6 6.2 26.15 4.9 17.25 10.45 8.05
L 9.2 7.9
M 24.05 7.9
L 23 8
Q 19.5 8.4 21.4 15.8 23.2 23.3 23.2 23.8 23.4 24.05 26.05 23.85 22.55 16.6 24.05 7.9
M 45.45 2.35
L 44.4 2.95
Q 51.3 10.3 52.3 19.15 55.1 17.8 55.05 17.45 54.8 16.95 51.95 8.85 49.2 0.8 45.45 2.35 Z"/>

<path fill="#F2E9C2" stroke="none" d="
M 14.4 8.65
L 10.45 8.05
Q 4.9 17.25 6.2 26.15
L 11.35 25.8 12.3 21.25 13.05 25.9 16 25.45 14.4 8.65
M 12.65 9.8
Q 13 9.8 13.25 10.2 13.5 10.55 13.5 11.05 13.6 11.7 13.35 12.15 13.05 12.55 12.8 12.65 12.35 12.65 12.15 12.15 11.9 11.85 11.75 11.3 11.75 10.7 12 10.25 12.25 9.85 12.65 9.8
M 9.45 11.85
Q 9.75 11.3 10 11.25 10.45 11.25 10.65 11.8 10.9 12.15 10.85 12.85 10.9 13.55 10.75 14.15 10.5 14.65 10.15 14.65 9.85 14.7 9.55 14.2 9.4 13.65 9.4 12.95 9.4 12.3 9.45 11.85
M 13.55 21.15
Q 13.5 20.2 13.6 19.45 13.75 18.8 13.85 18.8 14.05 18.8 14.15 19.35 14.4 20.05 14.4 21 14.5 22.05 14.3 22.6 14.25 23.4 14.1 23.4 14.05 23.4 13.85 22.7 13.7 22.15 13.55 21.15
M 27.1 7.55
L 24.05 7.9
Q 22.55 16.6 26.05 23.85
L 29.8 22.7 29.25 18.65 31.1 22.4 33.25 21.45 27.1 7.55
M 24.6 10.6
Q 24.95 10.45 25.3 10.9 25.5 11.25 25.7 11.8 25.9 12.35 26.05 12.9 26.05 13.3 25.7 13.45 25.5 13.55 25.15 13.25 24.85 12.75 24.6 12.2 24.45 11.65 24.35 11.15 24.35 10.7 24.6 10.6
M 25.95 10.35
Q 25.75 9.85 25.85 9.35 25.9 9 26.2 8.9 26.4 8.8 26.75 9.15 27 9.35 27.2 9.85 27.45 10.35 27.35 10.75 27.3 11.15 27 11.25 26.8 11.3 26.45 11.05 26.2 10.8 25.95 10.35
M 29.7 16.85
Q 29.65 16.3 29.7 16.3 29.8 16.3 30.05 16.7 30.4 17.25 30.75 18.05 31.05 18.85 31.15 19.45 31.3 20.1 31.1 20.1 31.05 20.1 30.75 19.55 30.4 19.1 30.15 18.3 29.8 17.5 29.7 16.85
M 44.4 2.95
L 41.2 4.45 43.8 21.1 46.4 20.75 45.95 16.1 47.9 20.2 52.3 19.15
Q 51.3 10.3 44.4 2.95
M 42.55 5.7
Q 42.7 5.2 42.95 5.15 43.3 5.1 43.6 5.45 43.9 5.75 44.05 6.35 44.15 6.95 43.9 7.3 43.85 7.8 43.5 7.85 43.25 7.95 42.9 7.6 42.6 7.25 42.55 6.6 42.4 6.05 42.55 5.7
M 45.15 7.6
Q 45.05 6.95 45.1 6.45 45.15 5.9 45.5 5.85 45.8 5.75 46.15 6.25 46.35 6.7 46.5 7.3 46.65 8 46.65 8.6 46.5 9.1 46.2 9.15 45.85 9.25 45.6 8.85 45.3 8.25 45.15 7.6
M 44.15 16.45
Q 43.9 15.5 43.9 14.8 43.9 14.25 44.05 14.15 44.15 14.15 44.4 14.7 44.7 15.35 44.9 16.3 45.05 17.3 45.05 17.9 45.05 18.6 44.95 18.6 44.85 18.7 44.55 18 44.25 17.45 44.15 16.45 Z"/>

<path fill="#B3BF8D" stroke="none" d="
M 13.6 19.45
Q 13.5 20.2 13.55 21.15 13.7 22.15 13.85 22.7 14.05 23.4 14.1 23.4 14.25 23.4 14.3 22.6 14.5 22.05 14.4 21 14.4 20.05 14.15 19.35 14.05 18.8 13.85 18.8 13.75 18.8 13.6 19.45
M 10 11.25
Q 9.75 11.3 9.45 11.85 9.4 12.3 9.4 12.95 9.4 13.65 9.55 14.2 9.85 14.7 10.15 14.65 10.5 14.65 10.75 14.15 10.9 13.55 10.85 12.85 10.9 12.15 10.65 11.8 10.45 11.25 10 11.25
M 29.7 16.3
Q 29.65 16.3 29.7 16.85 29.8 17.5 30.15 18.3 30.4 19.1 30.75 19.55 31.05 20.1 31.1 20.1 31.3 20.1 31.15 19.45 31.05 18.85 30.75 18.05 30.4 17.25 30.05 16.7 29.8 16.3 29.7 16.3
M 25.3 10.9
Q 24.95 10.45 24.6 10.6 24.35 10.7 24.35 11.15 24.45 11.65 24.6 12.2 24.85 12.75 25.15 13.25 25.5 13.55 25.7 13.45 26.05 13.3 26.05 12.9 25.9 12.35 25.7 11.8 25.5 11.25 25.3 10.9
M 43.9 14.8
Q 43.9 15.5 44.15 16.45 44.25 17.45 44.55 18 44.85 18.7 44.95 18.6 45.05 18.6 45.05 17.9 45.05 17.3 44.9 16.3 44.7 15.35 44.4 14.7 44.15 14.15 44.05 14.15 43.9 14.25 43.9 14.8
M 45.1 6.45
Q 45.05 6.95 45.15 7.6 45.3 8.25 45.6 8.85 45.85 9.25 46.2 9.15 46.5 9.1 46.65 8.6 46.65 8 46.5 7.3 46.35 6.7 46.15 6.25 45.8 5.75 45.5 5.85 45.15 5.9 45.1 6.45 Z"/>

<path fill="#69703A" stroke="none" d="
M 13.25 10.2
Q 13 9.8 12.65 9.8 12.25 9.85 12 10.25 11.75 10.7 11.75 11.3 11.9 11.85 12.15 12.15 12.35 12.65 12.8 12.65 13.05 12.55 13.35 12.15 13.6 11.7 13.5 11.05 13.5 10.55 13.25 10.2
M 25.85 9.35
Q 25.75 9.85 25.95 10.35 26.2 10.8 26.45 11.05 26.8 11.3 27 11.25 27.3 11.15 27.35 10.75 27.45 10.35 27.2 9.85 27 9.35 26.75 9.15 26.4 8.8 26.2 8.9 25.9 9 25.85 9.35
M 42.95 5.15
Q 42.7 5.2 42.55 5.7 42.4 6.05 42.55 6.6 42.6 7.25 42.9 7.6 43.25 7.95 43.5 7.85 43.85 7.8 43.9 7.3 44.15 6.95 44.05 6.35 43.9 5.75 43.6 5.45 43.3 5.1 42.95 5.15 Z"/>
</g>

<g id="Duplicate_Items_Folder_nose_0_Layer0_0_FILL">
<path fill="#000000" stroke="none" d="
M 5.3 0.1
Q 3.5 0.75 2.05 2.5 0.6 4.25 0.15 6.6 -0.25 8.85 0.3 11.1 0.95 13.4 2.4 13.15 3.9 12.8 5.15 11.35 6.4 10 6.8 7.75 7.25 5.45 7.2 2.45 7.2 -0.55 5.3 0.1
M 12.05 6.25
Q 11.75 5.2 11.05 5.05 10.35 4.95 9.7 5.85 9.1 6.85 8.8 8.35 8.55 9.9 8.75 11.05 9.05 12.2 10.7 12.7 12.3 13.2 12.5 12.05 12.65 10.85 12.5 9.15 12.3 7.45 12.05 6.25 Z"/>
</g>
</defs>

<g transform="matrix( 6.6171417236328125, 0, 0, 6.6171417236328125, 13,517.25) ">
<g transform="matrix( 0.340576171875, 0.0047760009765625, -0.0047760009765625, 0.340576171875, 22.15,-20.25) ">
<g transform="matrix( 1, 0, 0, 1, 0,0) ">
<use xlink:href="#leg_suit_0_Layer0_0_FILL"/>
</g>
</g>

<g transform="matrix( 0.3394775390625, -0.026947021484375, 0.026947021484375, 0.3394775390625, 12.7,-40.05) ">
<g transform="matrix( 1, 0, 0, 1, 0,0) ">
<use xlink:href="#arm_suit_0_Layer0_0_FILL"/>
</g>
</g>

<g transform="matrix( 0.34063720703125, -0.0142059326171875, 0.0099945068359375, 0.340240478515625, 40.25,-28.95) ">
<g transform="matrix( 1, 0, 0, 1, 0,0) ">
<use xlink:href="#body_suit_0_Layer5_0_FILL"/>
</g>

<g transform="matrix( 1, 0, 0, 1, 0,0) ">
<use xlink:href="#body_suit_0_Layer4_0_FILL"/>
</g>

<g transform="matrix( 1, 0, 0, 1, 0,0) ">
<use xlink:href="#body_suit_0_Layer3_0_FILL"/>
</g>

<g transform="matrix( 1, 0, 0, 1, 0,0) ">
<use xlink:href="#body_suit_0_Layer2_0_FILL"/>
</g>

<g transform="matrix( 1, 0, 0, 1, 0,0) ">
<use xlink:href="#body_suit_0_Layer1_0_FILL"/>
</g>

<g transform="matrix( 1, 0, 0, 1, 0,0) ">
<use xlink:href="#body_suit_0_Layer0_0_FILL"/>
</g>
</g>

<g transform="matrix( -0.339385986328125, -0.0282745361328125, -0.0282745361328125, 0.339385986328125, 68.05,-39.6) ">
<g transform="matrix( 1, 0, 0, 1, 0,0) ">
<use xlink:href="#arm_suit_0_Layer0_0_FILL"/>
</g>
</g>

<g transform="matrix( -0.34063720703125, 0, 0, 0.34063720703125, 60.95,-19.25) ">
<g transform="matrix( 1, 0, 0, 1, 0,0) ">
<use xlink:href="#leg_suit_0_Layer0_0_FILL"/>
</g>
</g>

<g transform="matrix( -0.271759033203125, 0.060516357421875, 0.0710601806640625, 0.26898193359375, 56.85,-81.45) ">
<g transform="matrix( 1, 0, 0, 1, 0,0) ">
<use xlink:href="#head_0_Layer0_0_FILL"/>
</g>
</g>

<g transform="matrix( 0.23992919921875, 0, 0, 0.21533203125, 20,-63.8) ">
<g transform="matrix( 1, 0, 0, 1, 0,0) ">
<use xlink:href="#Duplicate_Items_Folder_eye_0_Layer0_0_FILL"/>
</g>
</g>

<g transform="matrix( 0.209716796875, 0, 0, 0.209716796875, 27,-59.5) ">
<g transform="matrix( 1, 0, 0, 1, 0,0) ">
<use xlink:href="#pupil_0_Layer0_0_FILL"/>
</g>
</g>

<g transform="matrix( -0.3140106201171875, 0, 0, 0.3283538818359375, 62.6,-57.85) ">
<g transform="matrix( 1, 0, 0, 1, 0,0) ">
<use xlink:href="#ear_0_Layer0_0_FILL"/>
</g>
</g>

<g transform="matrix( -0.30279541015625, 0, 0, 0.30279541015625, 55.3,-68.55) ">
<g transform="matrix( 1, 0, 0, 1, 0,0) ">
<use xlink:href="#Duplicate_Items_Folder_eye_0_Layer0_0_FILL"/>
</g>
</g>

<g transform="matrix( -0.32623291015625, 0, 0, 0.32623291015625, 48.4,-62.15) ">
<g transform="matrix( 1, 0, 0, 1, 0,0) ">
<use xlink:href="#pupil_0_Layer0_0_FILL"/>
</g>
</g>

<g transform="matrix( -0.266204833984375, 0.0305633544921875, 0.0305633544921875, 0.266204833984375, 45.05,-44.6) ">
<g transform="matrix( 1, 0, 0, 1, 0,0) ">
<use xlink:href="#teeth_0_Layer0_0_FILL"/>
</g>
</g>

<g transform="matrix( -0.34368896484375, -0.0876312255859375, -0.0876312255859375, 0.34368896484375, 38.9,-51.85) ">
<g transform="matrix( 1, 0, 0, 1, 0,0) ">
<use xlink:href="#Duplicate_Items_Folder_nose_0_Layer0_0_FILL"/>
</g>
</g>
</g>
</svg>
