
<svg xmlns="http://www.w3.org/2000/svg" version="1.1" xmlns:xlink="http://www.w3.org/1999/xlink" preserveAspectRatio="none" x="0px" y="0px" width="560px" height="544px" viewBox="0 0 560 544">
<defs>
<radialGradient id="Gradient_1" gradientUnits="userSpaceOnUse" cx="0" cy="0" r="11.637500000000001" fx="0" fy="0" gradientTransform="matrix( 1, 0, 0, 1.2116004296455425, -22,-17.2) " spreadMethod="pad">
<stop  offset="0%" stop-color="#FFFFFF"/>

<stop  offset="100%" stop-color="#80CCCC"/>
</radialGradient>

<radialGradient id="Gradient_2" gradientUnits="userSpaceOnUse" cx="0" cy="0" r="11.637500000000001" fx="0" fy="0" gradientTransform="matrix( -1, 0, 0, 1.2116004296455425, 18.1,-15.7) " spreadMethod="pad">
<stop  offset="0%" stop-color="#FFFFFF"/>

<stop  offset="100%" stop-color="#80CCCC"/>
</radialGradient>

<g id="Duplicate_Items_Folder_tail_copy_2_0_Layer2_0_FILL">
<path fill="#945849" stroke="none" d="
M -58.05 11
L -65.75 16.05
Q -63.25 27.8 -55 39.25 -43.3 55.45 -26.95 61.6 -15.2 66.05 -3.1 49.6
L -9.4 37.9
Q -19.65 52.7 -26.2 50.4 -40.05 45.5 -49.45 32.15 -56.8 21.8 -58.05 11 Z"/>
</g>

<g id="Duplicate_Items_Folder_tail_copy_2_0_Layer1_0_FILL">
<path fill="#9B5A4A" stroke="none" d="
M -59 -1.45
Q -76.75 -6.3 -75.8 -24.8 -90.5 -17.25 -89.25 -3.5 -89.55 12.65 -76.25 21.8
L -77.2 24.05 -54.3 12.55
Q -59 -1.35 -59 -1.45
M -65.4 4.2
Q -65.35 4.25 -61.55 14.25
L -74.2 20.4 -73.8 18.95
Q -82.4 11.55 -83.4 0.5 -85.15 -9.15 -77.1 -13.2 -76.25 -0.5 -65.4 4.2 Z"/>

<path fill="#B7796A" stroke="none" d="
M -61.55 14.25
Q -65.35 4.25 -65.4 4.2 -76.25 -0.5 -77.1 -13.2 -85.15 -9.15 -83.4 0.5 -82.4 11.55 -73.8 18.95
L -74.2 20.4 -61.55 14.25 Z"/>
</g>

<g id="Duplicate_Items_Folder_tail_copy_2_0_Layer0_0_FILL">
<path fill="#EC0202" stroke="none" d="
M -71.9 19.9
L -73.5 20.55
Q -79.9 18.5 -87.9 22.1 -87.5 34.6 -77.35 42.25
L -76.85 41.95
Q -67.95 36.15 -67 29.15
L -71.9 19.9
M -47.9 5.05
Q -56.35 8.75 -59.45 14.55
L -59.9 14.7 -54.7 24.7
Q -47.4 26.45 -39.7 24.45 -38.1 10.6 -47.9 5.05 Z"/>

<path fill="#FF0000" stroke="none" d="
M -54.7 24.7
L -59.9 14.7 -60.75 13.25 -72.45 18.85 -71.9 19.9 -67 29.15 -66.25 30.55 -54.55 25 -54.7 24.7 Z"/>
</g>

<g id="Duplicate_Items_Folder_leg_suit_copy_2_0_Layer3_0_FILL">
<path fill="#333333" stroke="none" d="
M 26.65 -18.8
Q 25.75 -19.25 24.9 -19.6 24.35 -19.8 23.8 -20 23.9 -19.15 24.05 -18.25
L 26.65 -18.8 Z"/>

<path fill="#C9997A" stroke="none" d="
M 15.4 -21.3
Q 14.95 -21.25 14.45 -21.25 13.7 -3.2 9.5 16.35 9.05 18.2 8.6 20.1 11.3 26.25 19.85 24.5
L 24.25 24.45
Q 28.05 24.9 29.2 25.1 30.15 25.35 32.8 25.1 35.5 24.85 36.8 23 37.9 21.25 37.25 18.75 36.45 16.25 34.25 14.5 33.75 14.3 33.25 14.1 27.6 4.45 27.9 -5.65
L 27.45 -18.35
Q 27.1 -18.55 26.65 -18.8
L 24.05 -18.25
Q 23.9 -19.15 23.8 -20 19.2 -21.7 15.4 -21.3 Z"/>

<path fill="#000000" stroke="none" d="
M 14.45 -21.25
Q 14.95 -21.25 15.4 -21.3
L 11.45 -22.1
Q 11.9 4.5 6 16.6 4.8 19.05 3.4 20.9 7.5 30.85 28.05 26.65
L 32 27
Q 34.05 27.3 36.25 26.85 38.35 26.55 40.1 24.35 41.5 22.3 40.9 19.25 39.9 16.15 38.5 15.25 37.1 14.1 34.65 8.95 32.65 3.75 30.75 -5.15
L 30.6 -17.95 26.65 -18.8
Q 27.1 -18.55 27.45 -18.35
L 27.9 -5.65
Q 27.6 4.45 33.25 14.1 33.75 14.3 34.25 14.5 36.45 16.25 37.25 18.75 37.9 21.25 36.8 23 35.5 24.85 32.8 25.1 30.15 25.35 29.2 25.1 28.05 24.9 24.25 24.45
L 19.85 24.5
Q 11.3 26.25 8.6 20.1 9.05 18.2 9.5 16.35 13.7 -3.2 14.45 -21.25 Z"/>
</g>

<g id="Duplicate_Items_Folder_leg_suit_copy_2_0_Layer2_0_FILL">
<path fill="#D0AD8C" stroke="none" d="
M 1.4 16.95
L 1.25 17.05
Q -0.8 15.55 -6.85 15.25 -8.5 15.9 -9.75 17.1 -12.45 20.2 -13.05 23.15
L -12.85 23.25
Q -8.3 26.4 0.15 26.2 -0.05 24.7 -0.25 22.85 0.15 19.6 1.4 16.95 Z"/>

<path fill="#9C7652" stroke="none" d="
M 0.65 27.8
Q 0.3 27 0.15 26.2 -8.3 26.4 -12.85 23.25 -12.45 26.15 -9.55 27.35 -6.85 28.35 -3.55 28.55 -1 28.9 0.65 28 0.65 27.9 0.65 27.8 Z"/>

<path fill="#E1C7B7" stroke="none" d="
M 1.4 16.95
Q 1.95 15.95 2.3 15.3 -0.05 13.85 -2.65 13.95 -4.6 13.95 -6.85 15.25 -0.8 15.55 1.25 17.05
L 1.4 16.95 Z"/>

<path fill="#000000" stroke="none" d="
M 1.4 29.75
L 0.65 28
Q -1 28.9 -3.55 28.55 -6.85 28.35 -9.55 27.35 -12.45 26.15 -12.85 23.25
L -13.05 23.15
Q -12.45 20.2 -9.75 17.1 -8.5 15.9 -6.85 15.25 -4.6 13.95 -2.65 13.95 -0.05 13.85 2.3 15.3
L 3.25 13.7
Q 0.65 12.3 -2.65 12.35 -5.9 12.25 -9 14.7 -10.25 15.45 -11.2 16.2 -14.5 19.6 -14.8 22.9 -14.8 23.25 -14.8 23.55 -14.7 27.25 -11.2 28.55 -7.5 29.8 -3.55 30.05 -0.6 30.4 1.4 29.75 Z"/>
</g>

<g id="Duplicate_Items_Folder_leg_suit_copy_2_0_Layer1_0_FILL">
<path fill="#D0AD8C" stroke="none" d="
M 8 10.5
Q 8.0158203125 10.8224609375 8.1 11.1 8.187890625 10.5373046875 8.1 10.3 7.966015625 9.7865234375 8 10.5 Z"/>

<path fill="#C9997A" stroke="none" d="
M 6.4 6.25
Q 7.4947265625 6.6271484375 7.65 7.45 6.90234375 -0.626953125 7 0.8 7.0958984375 2.27109375 6.4 6.25
M 31.8 -0.55
Q 31.7 -1.9 31.35 -3.1 34.85 -10.5 34.25 -19.9 33.6 -30.2 27.85 -35.1 22.048828125 -40.050390625 15.35 -41.5 8.655859375 -42.898046875 2.5 -36.05 -3.6103515625 -29.1521484375 -2.3 -16.9 -0.9900390625 -4.6009765625 6.4 6.25 7.0958984375 2.27109375 7 0.8 6.90234375 -0.626953125 7.65 7.45 7.4947265625 6.6271484375 6.4 6.25 7.5953125 8.0892578125 8.1 10.3 8.187890625 10.5373046875 8.1 11.1 8.6822265625 12.6916015625 11.8 13.45 15.55 14.35 20.65 13.65 25.75 13 29.45 13.25 33.05 13.45 32.85 10.1 32.65 6.7 30.75 4.95 31.95 2.4 31.8 -0.55 Z"/>
</g>

<g id="Duplicate_Items_Folder_leg_suit_copy_2_0_Layer0_0_FILL">
<path fill="#E1C7B7" stroke="none" d="
M 1.4 16.7
Q 0.65 17.3 0.15 17.9 11.05 13.35 19.3 16.65
L 19.65 16.1
Q 15.2919921875 12.6001953125 10.75 12.7 6 12.65 2.5 15.6 2.1 16.05 1.4 16.7 Z"/>

<path fill="#9C7652" stroke="none" d="
M 21.85 24.65
L 22.05 24.6
Q 22.05 24.5 22.25 24.5 22.4 24.2 22.6 24 20.0658203125 25.0236328125 17.5 25.7 9.8908203125 27.737890625 2.2 26.65 1 26.45 -0.25 26.2 -0.25 26.35 -0.05 26.35 0.85 27.25 1.95 27.75 4.7 29.7 9.8 29.35 14.2408203125 28.7890625 18 27.7 18.2896484375 27.628125 18.55 27.55 18.75 27.35 19.9 27 20.4 26.55 21.15 25.8 21.85 25.35 21.85 24.75
L 21.85 24.65 Z"/>

<path fill="#000000" stroke="none" d="
M 20.6 16.95
L 23.7 17 23.7 16.9 21.45 14.7
Q 21.15 14.7 21.15 14.5 16.8 10.55 11.05 10.75 5.4 10.9 0.65 14.4 0.45 14.45 0.3 14.7 -0.05 14.95 -0.25 15.25 -0.4 15.4 -0.4 15.5
L -1.7 16.65 -1.5 16.6
Q -1.9 17.2 -2.45 17.9 -3.55 19.9 -4.1 22.4 -3.9 23.6 -3.7 24.75 -3.55 25.4 -3.35 26.05
L -3.15 26.15 -2.65 27.4
Q -2.25 27.6 -2.05 27.95 -1.9 27.95 -1.9 28.15 -1 28.8 -0.05 29.45 2.9 31.15 6.3 31.25 7.85 31.5 9.6 31.3 15.3 30.6 20 28.95 21.35 28.55 22.4 28.1 22.6 28.1 24.95 25.4 25.35 24.7 25.55 24.25 25.55 23.95 25.7 23.75 25.7 23.5 25.7 23.3
L 25.35 23.4 22.6 23.75
Q 22.6 23.9 22.6 24 22.4 24.2 22.25 24.5 22.05 24.5 22.05 24.6
L 21.85 24.65 21.85 24.75
Q 21.85 25.35 21.15 25.8 20.4 26.55 19.9 27 18.75 27.35 18.55 27.55 18.2896484375 27.628125 18 27.7 14.2408203125 28.7890625 9.8 29.35 4.7 29.7 1.95 27.75 0.85 27.25 -0.05 26.35 -0.25 26.35 -0.25 26.2 -0.4 25.75 -0.6 25.1 -1.3 23.85 -1.2 22.15 -1 19.8 0.15 17.9 0.65 17.3 1.4 16.7 2.1 16.05 2.5 15.6 6 12.65 10.75 12.7 15.2919921875 12.6001953125 19.65 16.1 19.6921875 16.0939453125 19.7 16.1
L 19.9 16.05
Q 20.2 16.5 20.6 16.95 Z"/>

<path fill="#D0AD8C" stroke="none" d="
M 21.15 17.5
L 20.95 17.4
Q 20.2 17.05 19.9 16.85 19.5 16.65 19.3 16.65 11.05 13.35 0.15 17.9 -1 19.8 -1.2 22.15 -1.3 23.85 -0.6 25.1 -0.4 25.75 -0.25 26.2 1 26.45 2.2 26.65 9.8908203125 27.737890625 17.5 25.7 20.0658203125 25.0236328125 22.6 24 22.6 23.9 22.6 23.75
L 25.35 23.4 25.15 17.9
Q 23.3 17.75 21.15 17.5 Z"/>

<path fill="#9B5A4A" stroke="none" d="
M 20.95 17.4
L 20.95 17.3
Q 20.75 17.05 20.6 16.95 20.2 16.5 19.9 16.05
L 19.7 16.1
Q 19.6921875 16.0939453125 19.65 16.1
L 19.3 16.65
Q 19.5 16.65 19.9 16.85 20.2 17.05 20.95 17.4 Z"/>
</g>

<g id="Duplicate_Items_Folder_body_suit_copy_3_0_Layer0_0_FILL">
<path fill="#784E42" stroke="none" d="
M 37.55 -24.65
Q 34.5 -27.4 21.3 -27.9 10.2 -35.8 -1.65 -35.8 -11.9 -35.8 -21.15 -30.1 -33.9 -31.05 -36.7 -28.55 -39.05 -26.55 -35.6 -13.3 -32.2 0.15 -31.9 20.05 -31.5 39.9 -15.6 26.4 -19.8 33.4 -18.6 41.45 -19.3 46.6 -14.1 56.95 -13.8 49.5 -6.25 51.05 -0.3 36.8 0.45 58.55
L 9.05 47.35
Q 18.55 47.9 17.1 58.55 22.9 54.8 19.95 43.8
L 16.95 38.2
Q 19.6 16.3 26.4 33.3 39.1 21.85 33.25 6 33.25 4.2 36.65 -9.15 40.1 -22.4 37.55 -24.65
M 30.6 -25.6
Q 32.3 -24.05 29.45 -13.95 26.6 -3.85 25.9 11.3 25.25 26.35 13.4 16.05 16.45 21.35 15.45 27.5 15.85 31.35 11.7 39.25 11.6 33.65 5.8 34.8 1.55 23.95 0.55 40.5
L -5.8 32
Q -12.95 32.5 -12.1 40.5 -16.35 37.55 -13.95 29.25
L -11.5 25
Q -13.1 8.4 -18.55 21.3 -27.95 12.7 -23.2 0.6 -23.15 -0.75 -25.45 -10.85 -27.8 -20.95 -25.75 -22.65 -23.45 -24.65 -13.35 -25.2 -4.8 -31.1 4.25 -31.1 12 -31.1 18.85 -26.85 28.6 -27.45 30.6 -25.6 Z"/>

<path fill="#5C3C34" stroke="none" d="
M 29.45 -13.95
Q 32.3 -24.05 30.6 -25.6 28.6 -27.45 18.85 -26.85 12 -31.1 4.25 -31.1 -4.8 -31.1 -13.35 -25.2 -23.45 -24.65 -25.75 -22.65 -27.8 -20.95 -25.45 -10.85 -23.15 -0.75 -23.2 0.6 -27.95 12.7 -18.55 21.3 -13.1 8.4 -11.5 25
L -13.95 29.25
Q -16.35 37.55 -12.1 40.5 -12.95 32.5 -5.8 32
L 0.55 40.5
Q 1.55 23.95 5.8 34.8 11.6 33.65 11.7 39.25 15.85 31.35 15.45 27.5 16.45 21.35 13.4 16.05 25.25 26.35 25.9 11.3 26.6 -3.85 29.45 -13.95 Z"/>
</g>

<g id="Duplicate_Items_Folder_arm_suit_copy_4_0_Layer1_0_FILL">
<path fill="#CC0000" stroke="none" d="
M 78.7 -13.95
Q 80.9841796875 -11.4546875 78.85 -10.55 74.0263671875 -12.459375 72.3 -7.4 71.5587890625 -3.6498046875 74.35 0.1 75.8576171875 0.65390625 77.35 1 79.45 1.45 80.75 1.4 85.75 0.35 87.1 -4.2 87.2 -4.25 87.35 -4.25 92.3 -6 91.4 -10.55
L 92.65 -11.6
Q 93.9 -13.55 93.2 -16.45 92.45 -19.45 83.9 -22.35 83.1103515625 -22.6341796875 82.1 -22.95 79.8921875 -20.914453125 84.2 -16.65 85.8658203125 -12.4095703125 78.7 -13.95
M 87.1 -4.7
L 83.4 -6.15 87.1 -4.7
M 90.75 -10.7
L 87.65 -13.2 90.75 -10.7 Z"/>

<path fill="#C69575" stroke="none" d="
M 53.7 -15.7
L 50.6 -10.75 43.4 -16.3 38.85 0.1 47.8 6.75
Q 57.3 13.35 60.15 13 63.05 12.6 66.1 5.65 67.6 2.2 68.55 -1.2 68.85 -2 68.95 -2.7 69.05 -2.65 69.15 -2.6 69.45 -2.4 69.75 -2.2 70.15 -1.95 70.55 -1.75
L 69.75 -2.35 65.85 -5.6 53.7 -15.7 Z"/>

<path fill="#E1C7B7" stroke="none" d="
M 71.15 -25.9
Q 67.6 -26.75 62 -25.35
L 58.1 -22.75 53.7 -15.7 65.85 -5.6 69.75 -2.35 70.55 -1.75
Q 72.4509765625 -0.6435546875 74.35 0.1 71.5587890625 -3.6498046875 72.3 -7.4 74.0263671875 -12.459375 78.85 -10.55 80.9841796875 -11.4546875 78.7 -13.95 85.8658203125 -12.4095703125 84.2 -16.65 79.8921875 -20.914453125 82.1 -22.95 78.307421875 -24.152734375 71.4 -25.85
L 71.25 -25.85
Q 71.2 -25.9 71.15 -25.9 Z"/>
</g>

<g id="Duplicate_Items_Folder_arm_suit_copy_4_0_Layer0_0_FILL">
<path fill="#784E42" stroke="none" d="
M 23.7 -27.9
Q 24.15 -26.55 24.5 -25.3 25.8 -21.5 28.05 -15.85 28.35 -15.05 28.65 -14.25 29.05 -13.3 29.4 -12.45 31.35 -7.5 32.3 -5.8 34.7822265625 11.6609375 48.55 6.2
L 49.15 -5.45
Q 48.3416015625 -8.594140625 52.75 -17.8
L 52.5 -17.85
Q 49.772265625 -20.209375 50.05 -23.9
L 49.9 -25.1
Q 49.72421875 -25.02890625 49.55 -24.95 48.403515625 -26.96171875 40.1 -33.75 31.84609375 -40.4857421875 27.7 -41.35 25.15 -36.85 24.2 -34.8 22.65 -31.35 23.7 -27.9 Z"/>
</g>

<g id="Duplicate_Items_Folder_head_copy_8_7_Layer9_0_FILL">
<path fill="#D0AD8C" stroke="none" d="
M -24.7 -57.7
Q -17.7 -63.5 -17.55 -72.25 -17.45 -81 -24.25 -87.55 -31.05 -94.1 -40.85 -94.65 -50.65 -95.15 -57.65 -89.35 -64.3 -83.85 -64.75 -75.6 -64.8 -75.2 -64.8 -74.8 -64.8 -74.45 -64.8 -74.1 -64.65 -65.8 -58.1 -59.5 -51.25 -52.95 -41.45 -52.45 -31.65 -51.9 -24.7 -57.7
M -29.3 -81.4
Q -24.5 -76.8 -24.55 -70.65 -24.7 -64.5 -29.6 -60.45 -34.45 -56.35 -41.35 -56.75 -48.2 -57.1 -53 -61.7 -57.8 -66.3 -57.7 -72.45 -57.6 -78.55 -52.7 -82.65 -47.8 -86.7 -40.9 -86.35 -34.05 -85.95 -29.3 -81.4
M 44.25 -81.8
Q 45.5478515625 -81.10234375 46.7 -80.15 51.6 -76.05 51.7 -69.95 51.8 -63.8 47 -59.2 44.92734375 -57.213671875 42.45 -56.05 39.2419921875 -54.448828125 35.35 -54.25 31.26640625 -54.01328125 27.9 -55.35 25.5796875 -56.2765625 23.6 -57.95 18.7 -62 18.55 -68.15 18.5 -74.3 23.3 -78.9 28.05 -83.45 34.9 -83.85 36.1900390625 -83.9154296875 37.4 -83.85
L 36.85 -84.3 28.4 -91.05
Q 22.688671875 -89.325390625 18.25 -85.05 12.434765625 -79.4484375 11.65 -72.25 11.535546875 -71.0169921875 11.55 -69.75 11.7 -61 18.7 -55.2 25.65 -49.4 35.45 -49.95 45.25 -50.45 52.1 -57 58.65 -63.3 58.8 -71.6 58.8 -71.95 58.8 -72.3 58.8 -72.7 58.75 -73.1 58.71171875 -73.8021484375 58.6 -74.5 58.402734375 -76.3123046875 57.85 -78
L 51.05 -77.9 50.55 -77.9 51.05 -77.9 48.7 -82.35 44.25 -81.8 Z"/>

<path fill="#A36843" stroke="none" d="
M -24.55 -70.65
Q -24.5 -76.8 -29.3 -81.4 -34.05 -85.95 -40.9 -86.35 -47.8 -86.7 -52.7 -82.65 -57.6 -78.55 -57.7 -72.45 -57.8 -66.3 -53 -61.7 -48.2 -57.1 -41.35 -56.75 -34.45 -56.35 -29.6 -60.45 -24.7 -64.5 -24.55 -70.65
M 40.5 -81.35
L 44.25 -81.8
Q 41.1748046875 -83.5505859375 37.4 -83.85
L 40.5 -81.35
M 46.7 -80.15
Q 45.5478515625 -81.10234375 44.25 -81.8
L 44.25 -81.8 40.5 -81.35 37.4 -83.85 37.4 -83.85
Q 36.1900390625 -83.9154296875 34.9 -83.85 28.05 -83.45 23.3 -78.9 18.5 -74.3 18.55 -68.15 18.7 -62 23.6 -57.95 25.5796875 -56.2765625 27.9 -55.35 31.26640625 -54.01328125 35.35 -54.25 39.2419921875 -54.448828125 42.45 -56.05 44.92734375 -57.213671875 47 -59.2 51.8 -63.8 51.7 -69.95 51.6 -76.05 46.7 -80.15 Z"/>

<path fill="#FF3366" stroke="none" d="
M 36.85 -84.3
L 37.4 -83.85 37.4 -83.85 36.85 -84.3
M 44.25 -81.8
L 48.7 -82.35 51.05 -77.9 57.85 -78
Q 57.03125 -80.545703125 55.45 -82.8
L 51 -82.7 48.65 -87.15 40.45 -86.15 33.15 -92
Q 30.673046875 -91.728125 28.4 -91.05
L 36.85 -84.3 37.4 -83.85
Q 41.1748046875 -83.5505859375 44.25 -81.8
L 44.25 -81.8 Z"/>

<path fill="#CC3399" stroke="none" d="
M 51 -82.7
L 55.45 -82.8
Q 53.925390625 -84.9681640625 51.65 -86.85 44.65 -92.65 34.85 -92.15 33.985546875 -92.1015625 33.15 -92
L 40.45 -86.15 48.65 -87.15 51 -82.7 Z"/>
</g>

<g id="Duplicate_Items_Folder_head_copy_8_7_Layer8_0_FILL">
<path fill="#9B5A4A" stroke="none" d="
M 30.55 30.75
Q 30.5076171875 30.9740234375 30.45 31.2 29.8318359375 34.6771484375 29.55 38.2 28.85 39.4 28.05 40.35 27.6 40.75 27.2 41.15 34.05 48.9 33.75 58.95
L 39.5 59.35 46.7 52.7 47.65 52.25
Q 44.2828125 42.3462890625 38.7 32.85 35.8484375 28.0064453125 32.4 23.25 31.25 26.95 30.55 30.75
M -34.05 36.4
L -34.7 36.45
Q -45.65 39.5 -50.85 50
L -50.85 50.05 -39.1 56.25 -29.25 60.2
Q -30.65 50.45 -21.5 42.75 -22.15 42.35 -22.8 42 -29.95 44.2 -33.95 37.6 -34 37 -34.05 36.4
M -45.3 -9.9
Q -56.05 -12.5 -66.75 -4.85
L -67.2 3.4 -63.5 10.55 -67.75 17.35 -72 21.6
Q -73.25 29.45 -66.85 34.7
L -60.5 37.1 -60.35 37.15 -60.05 36.8
Q -52.25 20.65 -40.35 12.95 -41.2009765625 11.1306640625 -42.15 9.35 -42.79765625 8.0892578125 -43.5 6.85 -46.7 -1.65 -45.3 -9.9
M -46.8 12.35
Q -47.35 8.15 -50.8 8.85 -47.35 8.15 -46.8 12.35 -49.7 17.65 -53.75 17.75 -54 17.75 -54.2 17.8 -59.75 18.45 -59.45 10.2 -52.3154296875 7.14140625 -50.4 -7.35 -52.3154296875 7.14140625 -59.45 10.2 -59.75 18.45 -54.2 17.8 -54 17.75 -53.75 17.75 -49.7 17.65 -46.8 12.35
M -57.15 -36.45
Q -49.2 -39.9 -42.8 -35.7
L -33.5 -49.8
Q -43.65 -53 -54.9 -50.35
L -71.1 -41.7 -72.8 -39.5
Q -74.3 -36.75 -73.25 -34.2 -72.2 -31.55 -69.65 -28.85
L -66.9 -25.45 -66.15 -24.95 -67.7 -22.5 -67.25 -22.2 -57.15 -36.45
M 60.6 -0.05
L 60.65 -0.5 65.2 -8.9
Q 62.35 -11.8 61.1 -13.1 61 -13.2 60.9 -13.3
L 60.05 -14.2
Q 51.45 -22.35 39.7 -20.55
L 40.55 -10.6
Q 40.6 -10.35 40.65 -10.15 51.5 -10.6 60.6 -0.05
M 5.15 -102.4
Q -3.45 -113.05 2.85 -126.25 -7.85 -126.55 -11.4 -115.95 -16.6 -104.25 -11.8 -92.2
L -22.2 -82.25 -24.5 -80.7
Q -23.15 -70.8 -11 -60.35
L -11.05 -60 -10.2 -59.9
Q -10.3123046875 -57.5798828125 -5.45 -56.4 -3.8015625 -56.0142578125 -1.6 -55.75 0.3728515625 -55.5150390625 2.25 -55.8 6.4537109375 -56.3935546875 10.3 -59.45
L 9.95 -60.05
Q 20.65 -69.7 22 -79.65 20.25 -80 18.55 -80.25 16.6 -80.55 14.8 -80.75
L 9.2 -87.25 3.3 -88.8
Q 5.15 -102.35 5.15 -102.4 Z"/>

<path fill="#FFCCCC" stroke="none" d="
M 29.5 12.9
L 29.45 17.25 29.45 18.15 29.45 17.25 25.45 21.7 30.45 31.2
Q 30.5076171875 30.9740234375 30.55 30.75 31.25 26.95 32.4 23.25 33.3755859375 20.0185546875 34.65 16.85 35.179296875 13.3626953125 35.55 10.05
L 29.5 12.9 Z"/>

<path fill="#DABAA5" stroke="none" d="
M 38.65 8.6
L 35.55 10.05
Q 35.179296875 13.3626953125 34.65 16.85 36.3810546875 12.6609375 38.65 8.6
M -21.8 -59.35
L -21.75 -58.9 -30.3 -54.7 -33.5 -49.8 -42.8 -35.7 -42.85 -35.65 -44.95 -11.8
Q -45.15 -10.85 -45.3 -9.9 -46.7 -1.65 -43.5 6.85 -42.79765625 8.0892578125 -42.15 9.35 -44.7228515625 -33.353515625 -22.65 -49.75 -14.3166015625 -55.9041015625 -5.45 -56.4 -10.3123046875 -57.5798828125 -10.2 -59.9
L -11.05 -60 -18 -61.05
Q -19.4 -60 -20.65 -59.6
L -20.7 -59.6
Q -21.25 -59.45 -21.8 -59.35
M 10.3 -59.45
Q 6.4537109375 -56.3935546875 2.25 -55.8 13.3876953125 -53.4380859375 25.3 -42.65 39.9181640625 -29.0822265625 35.55 10.05
L 38.65 8.6
Q 38.87265625 8.196484375 39.1 7.8 42.45 -1 40.65 -10.15 40.6 -10.35 40.55 -10.6
L 39.7 -20.55 38.45 -34.2 25.9 -53.05 17.35 -57.2 17.15 -57.8
Q 13.9 -57.2 10.45 -59.15
L 10.3 -59.45 Z"/>

<path fill="#784E42" stroke="none" d="
M -11.9 48.45
Q -18.04453125 44.5541015625 -21.5 42.75 -30.65 50.45 -29.25 60.2 -29.3 60.25 -29.35 60.35 -29.6 60.65 -29.7 61 -30.55 63.2 -25.75 65.7 -22.55 70 -12.85 66.85 -12.15 71.9 -4.7 72.55
L 10.1 71.25 18.8 73.1
Q 25.15 72.15 25.15 68
L 33.2 66 33.75 59 33.75 58.95
Q 34.05 48.9 27.2 41.15 23.7 44.15 18.4 42.55 11.4939453125 48.9953125 6.5 50.3 1.5171875 51.6630859375 -2.15 52 -5.7671875 52.3869140625 -11.9 48.45
M -34.7 36.45
L -34.05 36.4
Q -35.05 24.45 -40.35 12.95 -52.25 20.65 -60.05 36.8
L -59.05 37.6 -50.85 50
Q -45.65 39.5 -34.7 36.45
M -42.8 -35.7
Q -49.2 -39.9 -57.15 -36.45
L -67.25 -22.2 -67.7 -22.5 -68.15 -21.85
Q -70.5 -18.65 -73.1 -16.75 -75.7 -14.8 -74.3 -11.8
L -72.35 -9.25 -66.7 -6.15 -66.75 -4.85
Q -56.05 -12.5 -45.3 -9.9 -45.15 -10.85 -44.95 -11.8
L -42.85 -35.65 -42.8 -35.7
M -47.75 -33.05
Q -51.45 -26.85 -52.85 -26.3 -56.85 -24.85 -59.05 -21.1 -60.95 -14.75 -56.5 -14.2 -56.35 -14.2 -56.2 -14.15 -53.7 -13.65 -51.1 -15.7 -50.35 -16.3 -49.65 -17.05 -49.2 -20.35 -51.9 -20.6 -49.2 -20.35 -49.65 -17.05 -50.35 -16.3 -51.1 -15.7 -53.7 -13.65 -56.2 -14.15 -56.35 -14.2 -56.5 -14.2 -60.95 -14.75 -59.05 -21.1 -56.85 -24.85 -52.85 -26.3 -51.45 -26.85 -47.75 -33.05
M -24.5 -80.7
L -25.05 -81.55 -45.85 -76.6 -62.7 -57.95
Q -68.9 -51.5 -70.55 -49.55 -72.15 -47.6 -71.8 -44.45
L -71.1 -41.7 -54.9 -50.35
Q -43.65 -53 -33.5 -49.8
L -30.3 -54.7 -21.75 -58.9 -21.8 -59.35
Q -26.1 -58.65 -29.95 -62.2 -34.95 -66.05 -40.65 -64.8 -46.55 -61.75 -43.9 -58.15 -43.8 -58.05 -43.7 -57.9 -42 -55.1 -37.1 -55.15 -34.35 -57.15 -36.2 -59.3 -34.35 -57.15 -37.1 -55.15 -42 -55.1 -43.7 -57.9 -43.8 -58.05 -43.9 -58.15 -46.55 -61.75 -40.65 -64.8 -34.95 -66.05 -29.95 -62.2 -26.1 -58.65 -21.8 -59.35 -21.25 -59.45 -20.7 -59.6
L -20.65 -59.6 -18.45 -61.15 -18 -61.05 -11.05 -60 -11 -60.35
Q -23.15 -70.8 -24.5 -80.7
M 60.6 -0.05
Q 51.5 -10.6 40.65 -10.15 42.45 -1 39.1 7.8 38.87265625 8.196484375 38.65 8.6 36.3810546875 12.6609375 34.65 16.85 33.3755859375 20.0185546875 32.4 23.25 35.8484375 28.0064453125 38.7 32.85 44.2828125 42.3462890625 47.65 52.25
L 47.9 52.7 52.85 52.65 53.35 48.5 57.9 47.95 58.4 41.35
Q 64.5 41.7 64.15 36.75 67.9 34.15 65.1 31.4
L 57.8 25.7 61.95 21.7 59.2 11.4 60.6 -0.05
M 46.2 19.85
Q 49.65 21.25 51.9 23.6 53.45 25.15 54.45 27.1 55.05 28.3 55.45 29.7 55.75 37.95 50.2 37.3 50 37.25 49.75 37.25 45.7 37.15 42.8 31.85 43.35 27.65 46.8 28.35 43.35 27.65 42.8 31.85 45.7 37.15 49.75 37.25 50 37.25 50.2 37.3 55.75 37.95 55.45 29.7 55.05 28.3 54.45 27.1 53.45 25.15 51.9 23.6 49.65 21.25 46.2 19.85
M 54.7 -50.75
L 51.9 -55.35 44.9 -63.75
Q 37.3 -72.7 34.5 -75.2 31.7 -77.75 22.95 -79.5 22.55 -79.6 22.15 -79.65 22.05 -79.65 22 -79.65 20.65 -69.7 9.95 -60.05
L 10.3 -59.45 10.45 -59.15
Q 13.9 -57.2 17.15 -57.8 19.85 -58.3 22.35 -60.6 23.85 -61.75 25.45 -62.45 29.1 -64.05 33.05 -63.2 33.95 -62.7 34.7 -62.2 38.55 -59.6 36.3 -56.55 36.2 -56.45 36.1 -56.3 34.4 -53.5 29.5 -53.55 28.95 -53.95 28.6 -54.35 28.25 -54.7 28.1 -55.05 27.8 -55.65 27.9 -56.2 27.9 -56.4 27.95 -56.6 28.15 -57.15 28.6 -57.7 28.15 -57.15 27.95 -56.6 27.9 -56.4 27.9 -56.2 27.8 -55.65 28.1 -55.05 28.25 -54.7 28.6 -54.35 28.95 -53.95 29.5 -53.55 34.4 -53.5 36.1 -56.3 36.2 -56.45 36.3 -56.55 38.55 -59.6 34.7 -62.2 33.95 -62.7 33.05 -63.2 29.1 -64.05 25.45 -62.45 23.85 -61.75 22.35 -60.6 19.85 -58.3 17.15 -57.8
L 17.35 -57.2 25.9 -53.05 38.45 -34.2 39.7 -20.55
Q 51.45 -22.35 60.05 -14.2 60.15 -21.15 60.2 -21.2
L 66.45 -32.3 61.1 -34.7 56.2 -39.9 54.7 -50.75
M 42.6 -32.25
Q 42.15 -34.15 44.1 -35 42.15 -34.15 42.6 -32.25 42.7 -31.65 43.1 -30.9 47.45 -28.7 50.2 -30.35 50.35 -30.45 50.5 -30.5 54.45 -32.55 50.55 -37.9 48.65 -39.4 46.55 -40.1 44.75 -40.65 42.85 -40.65 41.4 -40.7 39.85 -40.4 41.4 -40.7 42.85 -40.65 44.75 -40.65 46.55 -40.1 48.65 -39.4 50.55 -37.9 54.45 -32.55 50.5 -30.5 50.35 -30.45 50.2 -30.35 47.45 -28.7 43.1 -30.9 42.7 -31.65 42.6 -32.25 Z"/>

<path fill="#D0AD8C" stroke="none" d="
M 25.3 -42.65
Q 13.3876953125 -53.4380859375 2.25 -55.8 0.3728515625 -55.5150390625 -1.6 -55.75 -3.8015625 -56.0142578125 -5.45 -56.4 -14.3166015625 -55.9041015625 -22.65 -49.75 -44.7228515625 -33.353515625 -42.15 9.35 -41.2009765625 11.1306640625 -40.35 12.95 -35.05 24.45 -34.05 36.4 -34 37 -33.95 37.6 -29.95 44.2 -22.8 42 -22.15 42.35 -21.5 42.75 -18.04453125 44.5541015625 -11.9 48.45 -5.7671875 52.3869140625 -2.15 52 1.5171875 51.6630859375 6.5 50.3 11.4939453125 48.9953125 18.4 42.55 23.7 44.15 27.2 41.15 27.6 40.75 28.05 40.35 28.85 39.4 29.55 38.2 29.8318359375 34.6771484375 30.45 31.2
L 25.45 21.7 25 22.25 25.45 21.7 29.45 17.25 29.5 12.9 35.55 10.05
Q 39.9181640625 -29.0822265625 25.3 -42.65 Z"/>
</g>

<g id="Duplicate_Items_Folder_head_copy_8_7_Layer7_0_FILL">
<path fill="#EC0202" stroke="none" d="
M -21.65 -84.85
Q -13.25 -85.5 -9.9 -89.75
L -9.8 -97.55 -11.15 -97.7
Q -14.85 -101.3 -21.85 -101.8 -26.3 -93.5 -22.1 -84.85
L -21.65 -84.85
M 0.4 -88.25
Q 4.85 -84.5 10.95 -83.05 17.35 -91.55 12.65 -98.7 5.3 -99.3 0.95 -96.6
L 0.55 -96.65 0.4 -88.25 Z"/>

<path fill="#FF0000" stroke="none" d="
M 0.55 -96.65
L 0.55 -97.9 -9.8 -98.45 -9.8 -97.55 -9.9 -89.75 -9.95 -88.55 0.4 -88 0.4 -88.25 0.55 -96.65 Z"/>
</g>

<g id="Duplicate_Items_Folder_head_copy_8_7_Layer6_0_FILL">
<path fill="#CC0000" stroke="none" d="
M 13.85 28.2
Q 12.7115234375 27.744921875 11.35 28.5 9.9845703125 29.257421875 9.1 30.1 7.25 27.25 4.55 27.1 1.9 26.95 -0.05 29.6 -0.20859375 29.81953125 -0.35 30.05 -2.25 26.65 -5.1 26.5 -6.657421875 26.4166015625 -8 27.35 -9.6529296875 25.726171875 -12.3 24.85 -14.89296875 24.0162109375 -17 25.6 -19.111328125 27.1876953125 -18.9 33.55 -18.6373046875 39.9099609375 -16.7 41.1 -14.7693359375 42.2880859375 -13.3 42 -11.8275390625 41.762109375 -10.9 39.45 -11.1271484375 43.783984375 -8.4 46.7 -5.633984375 49.6724609375 -4.35 45.25 -3.019921875 40.87265625 -2 40.95 -0.92890625 41.0755859375 0.2 43.9 1.330078125 46.731640625 3.35 47.25 5.4216796875 47.801171875 7.95 44.55 10.4796875 41.303515625 10.8 38.3 10.9052734375 38.346484375 11 38.35 12.35 38.45 13.35 37.15 14.40234375 35.8990234375 14.7 32.3 14.9927734375 28.7029296875 13.85 28.2 Z"/>
</g>

<g id="Duplicate_Items_Folder_head_copy_8_7_Layer5_0_FILL">
<path fill="#AD9585" stroke="none" d="
M -23.65 -34.1
Q -30.55 -34.45 -34.35 -30.5 -38.2 -26.6 -39.8 -20.8 -41.45 -15 -37.65 -7.4 -33.85 0.2 -26.7 0.85 -19.6 1.45 -13.25 -5.85 -6.9 -13.15 -6.85 -19 -6.75 -24.9 -11.8 -29.35 -16.8 -33.75 -23.65 -34.1
M 20 -31.6
Q 13.15 -31.25 8.15 -26.85 3.1 -22.4 3.2 -16.5 3.25 -10.65 9.3 -4.2 15.3 2.2 22.5 1.7 29.65 1.15 33.75 -5.65 37.8 -12.5 36.15 -18.3 34.55 -24.1 30.7 -28 26.9 -31.95 20 -31.6 Z"/>
</g>

<g id="Duplicate_Items_Folder_head_copy_8_7_Layer4_0_FILL">
<path fill="url(#Gradient_1)" stroke="none" d="
M -10.65 -14.25
L -16.2 -19.4
Q -21.6984375 -26.9359375 -25.65 -26.05 -29.551171875 -25.160546875 -31 -21.3 -32.449609375 -17.396484375 -32.75 -15.35 -21.9 -11.3 -10.65 -14.25 Z"/>

<path fill="url(#Gradient_2)" stroke="none" d="
M 6.75 -12.75
Q 18 -9.8 28.85 -13.85 28.5443359375 -15.9048828125 27.4 -19.15 26.3166015625 -22.3853515625 22.8 -24.35 19.327734375 -26.31953125 12.3 -17.9
L 6.75 -12.75 Z"/>
</g>

<g id="Duplicate_Items_Folder_head_copy_8_7_Layer3_0_FILL">
<path fill="#784E42" stroke="none" d="
M -31.5 -41.45
Q -35.45 -36.85 -32.05 -31.85 -26.25 -32.85 -10.8 -27.55 -18.65 -36.2 -31.5 -41.45
M 5.55 -25
Q 20.1 -30.3 25.9 -29.3 29.3 -34.3 25.35 -38.9 12.5 -33.7 5.55 -25 Z"/>
</g>

<g id="Duplicate_Items_Folder_head_copy_8_7_Layer2_0_FILL">
<path fill="#572919" stroke="none" d="
M 10.2 5.35
L 10.2 5.25
Q 1.2 -2.2 -13.2 3.2
L -13.35 3.55
Q -9.15 9.95 -3.8 12.05 -2.55 12.55 -1.1 12.5 3.6 12.35 10.4 6.55
L 10.2 5.35
M 1 7.4
Q 1 6.65 1.75 6.1 2.5 5.6 3.5 5.65 4.5 5.7 5.2 6.3 5.95 6.9 5.95 7.65 5.95 8.4 5.2 9 4.4 9.55 3.35 9.8 2.3 10.05 1.65 9.1 1 8.15 1 7.4
M -8.9 6.85
Q -8.9 6.25 -8.1 5.85 -7.35 5.45 -6.55 5.15 -5.8 4.85 -4.6 5.7 -3.45 6.55 -3.45 7.15 -3.45 7.75 -4.3 9.35 -5.15 10.9 -6.2 9.7 -7.3 8.5 -8.1 8 -8.9 7.45 -8.9 6.85 Z"/>

<path fill="#1B0B07" stroke="none" d="
M -8.1 5.85
Q -8.9 6.25 -8.9 6.85 -8.9 7.45 -8.1 8 -7.3 8.5 -6.2 9.7 -5.15 10.9 -4.3 9.35 -3.45 7.75 -3.45 7.15 -3.45 6.55 -4.6 5.7 -5.8 4.85 -6.55 5.15 -7.35 5.45 -8.1 5.85
M 1.75 6.1
Q 1 6.65 1 7.4 1 8.15 1.65 9.1 2.3 10.05 3.35 9.8 4.4 9.55 5.2 9 5.95 8.4 5.95 7.65 5.95 6.9 5.2 6.3 4.5 5.7 3.5 5.65 2.5 5.6 1.75 6.1 Z"/>

<path fill="#E1C7B7" stroke="none" d="
M 5.4 -5.65
L 2.7 -23.25
Q -1.4 -30.85 -7.3 -23.75
L -9.5 -6.15
Q -14.55 -0.95 -13.2 3.2 1.2 -2.2 10.2 5.25 11.05 0.1 5.4 -5.65 Z"/>
</g>

<g id="Duplicate_Items_Folder_head_copy_8_7_Layer1_0_FILL">
<path fill="#000000" stroke="none" d="
M -18.9 19.85
L -18.95 20.9 -18.95 21.85
Q -18.9142578125 21.6654296875 -18.9 21.4
L -18.9 21.9
Q -18.890625 22.3544921875 -18.8 21
L -17.5 21.05 -15.9 22.7 -16.1 21.3 -18.9 19.85
M 5.75 30.15
L 9 26.35 8.25 23.65
Q 6.0271484375 24.4974609375 3.3 25.25
L -10.05 24.4 -13.15 22.8 -14 24.65 -9.05 29.7
Q -1.1 32.3 5.75 30.15
M -8.5 29.1
Q -1.15 31.698828125 5.15 29.4 -1.15 31.698828125 -8.5 29.1
M 14.5 21.4
L 14.25 20.65
Q 12.9689453125 21.5599609375 11.2 22.4
L 10.9 24.1 13.2 21.5 14.5 21.4 Z"/>

<path fill="#FFFFFF" stroke="none" d="
M -18.85 19.3
Q -18.85 19.25 -18.85 19.2
L -18.9 19.55 -18.85 19.3
M 14.2 19.65
Q 14.2 19.6 14.2 19.55 13.75 18.3 13.3 18.6 12.05 19.45 3.55 22.25
L -1.7 22.15
Q -7.2 22 -8.15 21.9 -9.2 21.75 -13.65 19.75 -18.15 17.75 -18.25 17.6
L -18.65 17.4
Q -18.6583984375 17.4755859375 -18.7 17.55 -18.7583984375 18.3755859375 -18.85 19.2 -18.85 19.25 -18.85 19.3 -18.8693359375 19.5830078125 -18.9 19.85
L -16.1 21.3 -15.9 22.7
Q -15.742578125 28.965234375 -14 24.65
L -13.15 22.8 -10.05 24.4 3.3 25.25
Q 6.0271484375 24.4974609375 8.25 23.65
L 9 26.35
Q 10.5333984375 31.149609375 10.9 24.1
L 11.2 22.4
Q 12.9689453125 21.5599609375 14.25 20.65
L 14.2 19.65 Z"/>

<path fill="#3A309C" stroke="none" d="
M 14.5 21.4
L 13.2 21.5 10.9 24.1
Q 10.5333984375 31.149609375 9 26.35
L 5.75 30.15
Q -1.1 32.3 -9.05 29.7
L -14 24.65
Q -15.742578125 28.965234375 -15.9 22.7
L -17.5 21.05 -18.8 21
Q -18.7935546875 26.61328125 -18.15 27.6 -16.85 29.6 -9.15 35.9 1.45 37.65 4.9 36.6 8.3 35.5 8.85 34.4 12.2 31.15 15.3 26.6 15.1607421875 24.9759765625 14.5 21.4 Z"/>

<path fill="#C16C57" stroke="none" d="
M 14.55 21.3
Q 14.5126953125 21.0521484375 14.5 21.3 14.7931640625 22.687890625 14.75 22.3 14.6412109375 21.5826171875 14.55 21.3 Z"/>
</g>

<path id="Duplicate_Items_Folder_tail_copy_2_0_Layer2_0_1_STROKES" stroke="#000000" stroke-width="2" stroke-linejoin="round" stroke-linecap="round" fill="none" d="
M -58.05 11
Q -56.8 21.8 -49.45 32.15 -40.05 45.5 -26.2 50.4 -19.65 52.7 -9.4 37.9
L -3.1 49.6
Q -15.2 66.05 -26.95 61.6 -43.3 55.45 -55 39.25 -63.25 27.8 -65.75 16.05
L -58.05 11 Z"/>

<path id="Duplicate_Items_Folder_tail_copy_2_0_Layer1_0_1_STROKES" stroke="#000000" stroke-width="2" stroke-linejoin="round" stroke-linecap="round" fill="none" d="
M -77.2 24.05
L -76.25 21.8
Q -89.55 12.65 -89.25 -3.5 -90.5 -17.25 -75.8 -24.8 -76.75 -6.3 -59 -1.45 -59 -1.35 -54.3 12.55"/>

<path id="Duplicate_Items_Folder_tail_copy_2_0_Layer0_0_1_STROKES" stroke="#000000" stroke-width="2" stroke-linejoin="round" stroke-linecap="round" fill="none" d="
M -54.7 24.7
Q -47.4 26.45 -39.7 24.45 -38.1 10.6 -47.9 5.05 -56.35 8.75 -59.45 14.55
L -59.9 14.7 -54.7 24.7 -54.55 25 -66.25 30.55 -67 29.15
Q -67.95 36.15 -76.85 41.95
M -77.35 42.25
Q -87.5 34.6 -87.9 22.1 -79.9 18.5 -73.5 20.55
L -71.9 19.9 -72.45 18.85 -60.75 13.25 -59.9 14.7
M -67 29.15
L -71.9 19.9"/>

<path id="Duplicate_Items_Folder_leg_suit_copy_2_0_Layer1_0_1_STROKES" stroke="#000000" stroke-width="2" stroke-linejoin="round" stroke-linecap="round" fill="none" d="
M 8.125 10.3
Q 7.5953125 8.0892578125 6.425 6.275 -0.9900390625 -4.6009765625 -2.3 -16.875 -3.6103515625 -29.1521484375 2.525 -36.025 8.655859375 -42.898046875 15.35 -41.475 22.048828125 -40.050390625 27.85 -35.1 33.6 -30.2 34.25 -19.9 34.85 -10.5 31.35 -3.1 31.7 -1.9 31.8 -0.55 31.95 2.4 30.75 4.95
M 8.125 11.125
Q 8.187890625 10.5373046875 8.125 10.3
M 6.425 6.275
Q 7.0958984375 2.27109375 7 0.825 6.90234375 -0.626953125 7.675 7.475 7.4947265625 6.6271484375 6.425 6.275 Z"/>

<path id="Duplicate_Items_Folder_body_suit_copy_3_0_Layer0_0_1_STROKES" stroke="#000000" stroke-width="2" stroke-linejoin="round" stroke-linecap="round" fill="none" d="
M 37.55 -24.65
Q 40.1 -22.4 36.65 -9.15 33.25 4.2 33.25 6 39.1 21.85 26.4 33.3 19.6 16.3 16.95 38.2
L 19.95 43.8
Q 22.9 54.8 17.1 58.55 18.55 47.9 9.05 47.35
L 0.45 58.55
Q -0.3 36.8 -6.25 51.05 -13.8 49.5 -14.1 56.95 -19.3 46.6 -18.6 41.45 -19.8 33.4 -15.6 26.4 -31.5 39.9 -31.9 20.05 -32.2 0.15 -35.6 -13.3 -39.05 -26.55 -36.7 -28.55 -33.9 -31.05 -21.15 -30.1 -11.9 -35.8 -1.65 -35.8 10.2 -35.8 21.3 -27.9 34.5 -27.4 37.55 -24.65 Z"/>

<path id="Duplicate_Items_Folder_arm_suit_copy_4_0_Layer1_0_1_STROKES" stroke="#000000" stroke-width="2" stroke-linejoin="round" stroke-linecap="round" fill="none" d="
M 53.7 -15.7
L 58.1 -22.75 62 -25.35
Q 67.6 -26.75 71.15 -25.9 71.2 -25.9 71.25 -25.85
L 71.4 -25.85
Q 78.307421875 -24.152734375 82.1 -22.95 83.1103515625 -22.6341796875 83.9 -22.35 92.45 -19.45 93.2 -16.45 93.9 -13.55 92.65 -11.6
L 91.4 -10.55
Q 92.3 -6 87.35 -4.25 87.2 -4.25 87.1 -4.2 85.75 0.35 80.75 1.4 79.45 1.45 77.35 1 75.8576171875 0.65390625 74.375 0.1 72.4509765625 -0.6435546875 70.55 -1.75 70.15 -1.95 69.75 -2.2 69.45 -2.4 69.15 -2.6 69.05 -2.65 68.95 -2.7 68.85 -2 68.55 -1.2 67.6 2.2 66.1 5.65 63.05 12.6 60.15 13 57.3 13.35 47.8 6.75
L 38.85 0.1 43.4 -16.3 50.6 -10.75 53.7 -15.7 Z
M 69.75 -2.35
L 65.85 -5.6
M 87.1 -4.7
L 83.4 -6.15
M 90.75 -10.7
L 87.65 -13.2"/>

<path id="Duplicate_Items_Folder_arm_suit_copy_4_0_Layer0_0_1_STROKES" stroke="#000000" stroke-width="2" stroke-linejoin="round" stroke-linecap="round" fill="none" d="
M 24.5 -25.3
Q 24.15 -26.55 23.7 -27.9 22.65 -31.35 24.2 -34.8 25.15 -36.85 27.7 -41.35 27.5 -41.5 27.3 -41.65
M 24.5 -25.3
Q 25.8 -21.5 28.05 -15.85 28.35 -15.05 28.65 -14.25 29.05 -13.3 29.4 -12.45 31.35 -7.5 32.3 -5.8 34.7822265625 11.6609375 48.55 6.2
L 49.15 -5.45
Q 48.3416015625 -8.594140625 52.75 -17.8
M 24.5 -25.3
Q 25.9 -20.9 26.55 -19.1 27.7 -16.1 28.65 -14.25"/>

<path id="Duplicate_Items_Folder_head_copy_8_7_Layer9_0_1_STROKES" stroke="#000000" stroke-width="2" stroke-linejoin="round" stroke-linecap="round" fill="none" d="
M 44.275 -81.8
L 44.25 -81.8 40.5 -81.35 37.425 -83.825
M 36.85 -84.275
L 28.4 -91.05
Q 22.688671875 -89.325390625 18.25 -85.05 12.434765625 -79.4484375 11.675 -72.25 11.535546875 -71.0169921875 11.55 -69.75 11.7 -61 18.7 -55.2 25.65 -49.4 35.45 -49.95 45.25 -50.45 52.1 -57 58.65 -63.3 58.8 -71.6 58.8 -71.95 58.8 -72.3 58.8 -72.7 58.75 -73.1 58.71171875 -73.8021484375 58.625 -74.475 58.402734375 -76.3123046875 57.85 -78
L 51.05 -77.9 50.55 -77.9
M 44.275 -81.8
L 48.7 -82.35 51.05 -77.9
M 57.85 -78
Q 57.03125 -80.545703125 55.475 -82.775
M 33.15 -92
Q 30.673046875 -91.728125 28.4 -91.05
L 27.65 -91.65
M 57.85 -78
L 58.3 -78
M 55.475 -82.775
Q 53.925390625 -84.9681640625 51.65 -86.85 44.65 -92.65 34.85 -92.15 33.985546875 -92.1015625 33.15 -92
M 36.85 -84.275
L 37.425 -83.825
M -24.7 -57.7
Q -31.65 -51.9 -41.45 -52.45 -51.25 -52.95 -58.1 -59.5 -64.65 -65.8 -64.8 -74.1 -64.8 -74.45 -64.8 -74.8 -64.8 -75.2 -64.75 -75.6 -64.3 -83.85 -57.65 -89.35 -50.65 -95.15 -40.85 -94.65 -31.05 -94.1 -24.25 -87.55 -17.45 -81 -17.55 -72.25 -17.7 -63.5 -24.7 -57.7 Z"/>

<path id="Duplicate_Items_Folder_head_copy_8_7_Layer8_0_1_STROKES" stroke="#000000" stroke-width="2" stroke-linejoin="round" stroke-linecap="round" fill="none" d="
M -22.2 -82.25
L -11.8 -92.2
Q -16.6 -104.25 -11.4 -115.95 -7.85 -126.55 2.85 -126.25 -3.45 -113.05 5.15 -102.4 5.15 -102.35 3.3 -88.8
L 9.2 -87.25 14.8 -80.75
Q 16.6 -80.55 18.55 -80.25 20.25 -80 22 -79.65
M 22.15 -79.65
Q 22.55 -79.6 22.95 -79.5 31.7 -77.75 34.5 -75.2 37.3 -72.7 44.9 -63.75
L 51.9 -55.35 54.7 -50.75 56.2 -39.9 61.1 -34.7 66.45 -32.3 60.2 -21.2
Q 60.15 -21.15 60.05 -14.2
L 60.9 -13.3
M 61.1 -13.1
Q 62.35 -11.8 65.2 -8.9
L 60.65 -0.5 60.6 -0.05 59.2 11.4 61.95 21.7 57.8 25.7 65.1 31.4
Q 67.9 34.15 64.15 36.75 64.5 41.7 58.4 41.35
L 57.9 47.95 53.35 48.5 52.85 52.65 47.9 52.7 46.7 52.7 39.5 59.35 33.75 58.95 33.75 59 33.2 66 25.15 68
Q 25.15 72.15 18.8 73.1
L 10.1 71.25 -4.7 72.55
Q -12.15 71.9 -12.85 66.85 -22.55 70 -25.75 65.7 -30.55 63.2 -29.7 61
M -29.35 60.35
Q -29.3 60.25 -29.25 60.2
L -39.1 56.25 -50.85 50.05 -50.85 50 -59.05 37.6 -60.35 37.15
M -60.5 37.1
L -66.85 34.7
Q -73.25 29.45 -72 21.6
L -67.75 17.35 -63.5 10.55 -67.2 3.4 -66.75 -4.85 -66.7 -6.15 -72.35 -9.25 -74.3 -11.8
Q -75.7 -14.8 -73.1 -16.75 -70.5 -18.65 -68.15 -21.85
L -67.7 -22.5 -66.15 -24.95
M -66.9 -25.45
L -69.65 -28.85
Q -72.2 -31.55 -73.25 -34.2 -74.3 -36.75 -72.8 -39.5
L -71.1 -41.7 -71.8 -44.45
Q -72.15 -47.6 -70.55 -49.55 -68.9 -51.5 -62.7 -57.95
L -45.85 -76.6 -25.05 -81.55 -22.2 -82.25
M -11.05 -60
L -10.2 -59.9
Q -10.3123046875 -57.5798828125 -5.45 -56.4 -3.8015625 -56.0142578125 -1.6 -55.75 0.3728515625 -55.5150390625 2.275 -55.8 6.4537109375 -56.3935546875 10.3 -59.45
M 17.15 -57.8
Q 13.9 -57.2 10.45 -59.15
M 28.6 -57.7
Q 28.15 -57.15 27.95 -56.6 27.9 -56.4 27.9 -56.2 27.8 -55.65 28.1 -55.05 28.25 -54.7 28.6 -54.35 28.95 -53.95 29.5 -53.55 34.4 -53.5 36.1 -56.3 36.2 -56.45 36.3 -56.55 38.55 -59.6 34.7 -62.2 33.95 -62.7 33.05 -63.2 29.1 -64.05 25.45 -62.45 23.85 -61.75 22.35 -60.6 19.85 -58.3 17.15 -57.8
M 39.7 -20.55
L 38.45 -34.2 25.9 -53.05 17.35 -57.2
M 39.85 -40.4
Q 41.4 -40.7 42.85 -40.65 44.75 -40.65 46.55 -40.1 48.65 -39.4 50.55 -37.9 54.45 -32.55 50.5 -30.5 50.35 -30.45 50.2 -30.35 47.45 -28.7 43.1 -30.9 42.7 -31.65 42.6 -32.25 42.15 -34.15 44.1 -35
M 40.65 -10.15
Q 40.6 -10.35 40.55 -10.6
L 39.7 -20.55
M 35.55 10.05
L 38.65 8.6
Q 38.87265625 8.196484375 39.1 7.8 42.45 -1 40.65 -10.15
M -21.75 -58.9
L -30.3 -54.7 -33.5 -49.8 -42.8 -35.7 -42.85 -35.65 -44.95 -11.8
Q -45.15 -10.85 -45.3 -9.9 -46.7 -1.65 -43.5 6.85 -42.79765625 8.0892578125 -42.15 9.35
M -21.8 -59.35
Q -26.1 -58.65 -29.95 -62.2 -34.95 -66.05 -40.65 -64.8 -46.55 -61.75 -43.9 -58.15 -43.8 -58.05 -43.7 -57.9 -42 -55.1 -37.1 -55.15 -34.35 -57.15 -36.2 -59.3
M -20.65 -59.6
L -20.7 -59.6
Q -21.25 -59.45 -21.8 -59.35
M -18.45 -61.15
L -18 -61.05 -11.05 -60
M -18 -61.05
Q -19.4 -60 -20.65 -59.6
M -47.75 -33.05
Q -51.45 -26.85 -52.85 -26.3 -56.85 -24.85 -59.05 -21.1 -60.95 -14.75 -56.5 -14.2 -56.35 -14.2 -56.2 -14.15 -53.7 -13.65 -51.1 -15.7 -50.35 -16.3 -49.65 -17.05 -49.2 -20.35 -51.9 -20.6
M -21.5 42.75
Q -18.04453125 44.5541015625 -11.9 48.475 -5.7671875 52.3869140625 -2.125 52.025 1.5171875 51.6630859375 6.5 50.325 11.4939453125 48.9953125 18.4 42.55 23.7 44.15 27.2 41.15 27.6 40.75 28.05 40.35 28.85 39.4 29.55 38.2 29.8318359375 34.6771484375 30.475 31.2
L 25.475 21.725 25 22.25
M -34.05 36.4
Q -34 37 -33.95 37.6 -29.95 44.2 -22.8 42 -22.15 42.35 -21.5 42.75
M -40.35 12.95
Q -35.05 24.45 -34.05 36.4
M -50.4 -7.35
Q -52.3154296875 7.14140625 -59.45 10.2 -59.75 18.45 -54.2 17.8 -54 17.75 -53.75 17.75 -49.7 17.65 -46.8 12.35 -47.35 8.15 -50.8 8.85
M -42.15 9.35
Q -41.2009765625 11.1306640625 -40.35 12.95
M 46.2 19.85
Q 49.65 21.25 51.9 23.6 53.45 25.15 54.45 27.1 55.05 28.3 55.45 29.7 55.75 37.95 50.2 37.3 50 37.25 49.75 37.25 45.7 37.15 42.8 31.85 43.35 27.65 46.8 28.35
M 25.475 21.725
L 29.45 17.25 29.5 12.9 35.55 10.05
M 38.65 8.6
Q 36.3810546875 12.6609375 34.675 16.85
M 29.45 18.15
L 29.45 17.25
M 34.675 16.85
Q 33.3755859375 20.0185546875 32.4 23.25 31.25 26.95 30.55 30.75 30.5076171875 30.9740234375 30.475 31.2"/>

<path id="Duplicate_Items_Folder_head_copy_8_7_Layer7_0_1_STROKES" stroke="#000000" stroke-width="2" stroke-linejoin="round" stroke-linecap="round" fill="none" d="
M -9.8 -97.55
L -9.8 -98.45 0.55 -97.9 0.55 -96.65 0.95 -96.6
Q 5.3 -99.3 12.65 -98.7 17.35 -91.55 10.95 -83.05 4.85 -84.5 0.4 -88.25
L 0.4 -88 -9.95 -88.55 -9.9 -89.75
Q -13.25 -85.5 -21.65 -84.85
M -22.1 -84.85
Q -26.3 -93.5 -21.85 -101.8 -14.85 -101.3 -11.15 -97.7
L -9.8 -97.55 -9.9 -89.75
M 0.55 -96.65
L 0.4 -88.25"/>

<path id="Duplicate_Items_Folder_head_copy_8_7_Layer6_0_1_STROKES" stroke="#000000" stroke-width="2" stroke-linejoin="round" stroke-linecap="round" fill="none" d="
M 15.1 45.35
L 16.5 49.05 18.35 46.75
M 24.5 56.25
L 19.125 56.05 20.4 59.4
M 18 56
L 19.125 56.05 16.5 49.05 14.25 51.85"/>

<path id="Duplicate_Items_Folder_head_copy_8_7_Layer4_0_1_STROKES" stroke="#000000" stroke-width="2" stroke-linejoin="round" stroke-linecap="round" fill="none" d="
M 28.85 -13.85
Q 28.5443359375 -15.9048828125 27.425 -19.15 26.3166015625 -22.3853515625 22.825 -24.35 19.327734375 -26.31953125 12.3 -17.9
L 6.75 -12.75
M -32.75 -15.35
Q -32.449609375 -17.396484375 -31 -21.275 -29.551171875 -25.160546875 -25.625 -26.05 -21.6984375 -26.9359375 -16.2 -19.4
L -10.65 -14.25"/>

<path id="Duplicate_Items_Folder_head_copy_8_7_Layer4_0_2_STROKES" stroke="#8E7260" stroke-width="2" stroke-linejoin="round" stroke-linecap="round" fill="none" d="
M 9 -10.45
Q 15.2 -4.7 23.8 -9.55
M 7.1 -10.9
Q 10.75 0.5 28.05 -7.05
M -12.9 -11.95
Q -19.1 -6.2 -27.7 -11.05
M -11 -12.4
Q -14.65 -1 -31.95 -8.55"/>

<path id="Duplicate_Items_Folder_head_copy_8_7_Layer4_0_3_STROKES" stroke="#CC0000" stroke-width="2" stroke-linejoin="round" stroke-linecap="round" fill="none" d="
M 6.75 -12.75
Q 18 -9.8 28.85 -13.85
M -10.65 -14.25
Q -21.9 -11.3 -32.75 -15.35"/>

<path id="Duplicate_Items_Folder_head_copy_8_7_Layer3_0_1_STROKES" stroke="#BC825C" stroke-width="2" stroke-linejoin="round" stroke-linecap="round" fill="none" d="
M 14.9 25.25
Q 14.85 33.2 21.3 38.4
M 10.75 -1.3
Q 13.65 7 22.95 9.25
M -19.7 23.4
Q -20.3 33.25 -27.3 36.25
M -28.5 7.3
Q -17.5 4.2 -12.7 -3.8
M -17.9 -44.95
Q -6.336328125 -40.9896484375 15.7 -43.55
M -7.7 -29.6
Q -2.35 -25.95 3.2 -29"/>

<path id="Duplicate_Items_Folder_head_copy_8_7_Layer2_0_1_STROKES" stroke="#BC825C" stroke-width="2" stroke-linejoin="round" stroke-linecap="round" fill="none" d="
M 10.2 5.25
Q 11.05 0.1 5.4 -5.65
L 2.7 -23.25
M -7.3 -23.75
L -9.5 -6.15
Q -14.55 -0.95 -13.2 3.2 1.2 -2.2 10.2 5.25
L 10.2 5.35 10.4 6.55
Q 3.6 12.35 -1.1 12.5
L -1.2 17.8
M -13.2 3.2
L -13.35 3.55
Q -9.15 9.95 -3.8 12.05 -2.55 12.55 -1.1 12.5
M -13.75 3.15
L -13.2 3.2"/>

<path id="Duplicate_Items_Folder_head_copy_8_7_Layer1_0_1_STROKES" stroke="#FFFFFF" stroke-width="2" stroke-linejoin="round" stroke-linecap="round" fill="none" d="
M -8.5 29.1
Q -1.15 31.698828125 5.15 29.4"/>

<path id="Duplicate_Items_Folder_head_copy_8_7_Layer1_0_2_STROKES" stroke="#C16C57" stroke-width="2" stroke-linejoin="round" stroke-linecap="round" fill="none" d="
M -18.25 17.6
Q -18.15 17.75 -13.65 19.75 -9.2 21.75 -8.15 21.9 -7.2 22 -1.7 22.15
L 3.55 22.25
Q 12.05 19.45 13.3 18.6 13.75 18.3 14.2 19.55 14.2 19.6 14.2 19.65"/>

<path id="Duplicate_Items_Folder_head_copy_8_7_Layer1_0_3_STROKES" stroke="#9C6541" stroke-width="2" stroke-linejoin="round" stroke-linecap="round" fill="none" d="
M 14.2 19.65
L 14.4 20.85
Q 14.455078125 21.1119140625 14.5 21.325 14.5126953125 21.0521484375 14.575 21.325 14.6412109375 21.5826171875 14.75 22.3 14.7931640625 22.687890625 14.5 21.325 14.5005859375 21.3609375 14.5 21.4
L 14.5 21.425
Q 15.1607421875 24.9759765625 15.3 26.6 12.2 31.15 8.85 34.4 8.3 35.5 4.9 36.6 1.45 37.65 -9.15 35.9 -16.85 29.6 -18.15 27.6 -18.7935546875 26.61328125 -18.775 21 -18.890625 22.3544921875 -18.9 21.925
L -18.9 21.4
Q -18.9142578125 21.6654296875 -18.925 21.85 -18.9927734375 22.9271484375 -18.95 20.9
L -18.875 19.85
Q -18.8693359375 19.5830078125 -18.85 19.3
M -18.85 19.2
Q -18.7583984375 18.3755859375 -18.675 17.55 -18.6583984375 17.4755859375 -18.65 17.4
M 14.4 20.85
L 14.5 21.4
M -18.85 19.3
Q -18.85 19.25 -18.85 19.2"/>

<path id="Duplicate_Items_Folder_head_copy_8_7_Layer0_0_1_STROKES" stroke="#000000" stroke-width="2" stroke-linejoin="round" stroke-linecap="round" fill="none" d="
M -39.35 -17.3
L -36.75 -13.55 -33.1 -16.5
M -34.15 -9.8
L -36.75 -13.55 -40.3 -10.65 -38.55 -7.6
M -41.4 -9.75
L -40.3 -10.65 -42.3 -14.1"/>
</defs>

<g transform="matrix( 5.5020599365234375, 0, 0, 5.5020599365234375, 61.5,520.95) ">
<g transform="matrix( 0.27783203125, -0.000274658203125, 0.000274658203125, 0.27783203125, 25.9,-11.65) ">
<g transform="matrix( 1, 0, 0, 1, 37,-47) ">
<use xlink:href="#Duplicate_Items_Folder_tail_copy_2_0_Layer2_0_FILL"/>

<use xlink:href="#Duplicate_Items_Folder_tail_copy_2_0_Layer2_0_1_STROKES"/>
</g>

<g transform="matrix( 1, 0, 0, 1, 37,-47) ">
<use xlink:href="#Duplicate_Items_Folder_tail_copy_2_0_Layer1_0_FILL"/>

<use xlink:href="#Duplicate_Items_Folder_tail_copy_2_0_Layer1_0_1_STROKES"/>
</g>

<g transform="matrix( 1, 0, 0, 1, 37,-47) ">
<use xlink:href="#Duplicate_Items_Folder_tail_copy_2_0_Layer0_0_FILL"/>

<use xlink:href="#Duplicate_Items_Folder_tail_copy_2_0_Layer0_0_1_STROKES"/>
</g>
</g>

<g transform="matrix( 0.3326416015625, 0.02349853515625, -0.02349853515625, 0.3326416015625, 31.65,-8.4) ">
<g transform="matrix( 1, 0, 0, 1, 0,0) ">
<use xlink:href="#Duplicate_Items_Folder_leg_suit_copy_2_0_Layer3_0_FILL"/>
</g>

<g transform="matrix( 1, 0, 0, 1, 0,0) ">
<use xlink:href="#Duplicate_Items_Folder_leg_suit_copy_2_0_Layer2_0_FILL"/>
</g>

<g transform="matrix( 1, 0, 0, 1, 0,0) ">
<use xlink:href="#Duplicate_Items_Folder_leg_suit_copy_2_0_Layer1_0_FILL"/>

<use xlink:href="#Duplicate_Items_Folder_leg_suit_copy_2_0_Layer1_0_1_STROKES"/>
</g>

<g transform="matrix( 1, 0, 0, 1, 0,0) ">
<use xlink:href="#Duplicate_Items_Folder_leg_suit_copy_2_0_Layer0_0_FILL"/>
</g>
</g>

<g transform="matrix( -0.357177734375, 0.023284912109375, 0.023284912109375, 0.357177734375, 54.7,-8.55) ">
<g transform="matrix( 1, 0, 0, 1, 0,0) ">
<use xlink:href="#Duplicate_Items_Folder_leg_suit_copy_2_0_Layer3_0_FILL"/>
</g>

<g transform="matrix( 1, 0, 0, 1, 0,0) ">
<use xlink:href="#Duplicate_Items_Folder_leg_suit_copy_2_0_Layer2_0_FILL"/>
</g>

<g transform="matrix( 1, 0, 0, 1, 0,0) ">
<use xlink:href="#Duplicate_Items_Folder_leg_suit_copy_2_0_Layer1_0_FILL"/>

<use xlink:href="#Duplicate_Items_Folder_leg_suit_copy_2_0_Layer1_0_1_STROKES"/>
</g>

<g transform="matrix( 1, 0, 0, 1, 0,0) ">
<use xlink:href="#Duplicate_Items_Folder_leg_suit_copy_2_0_Layer0_0_FILL"/>
</g>
</g>

<g transform="matrix( 0.358154296875, -0.014923095703125, 0.0105133056640625, 0.357696533203125, 42.35,-30.85) ">
<g transform="matrix( 1, 0, 0, 1, 0,0) ">
<use xlink:href="#Duplicate_Items_Folder_body_suit_copy_3_0_Layer0_0_FILL"/>

<use xlink:href="#Duplicate_Items_Folder_body_suit_copy_3_0_Layer0_0_1_STROKES"/>
</g>
</g>

<g transform="matrix( 0.21759033203125, 0.32440185546875, -0.29705810546875, 0.19927978515625, 17.6,-47.5) ">
<g transform="matrix( 1, 0, 0, 1, 0,0) ">
<use xlink:href="#Duplicate_Items_Folder_arm_suit_copy_4_0_Layer1_0_FILL"/>

<use xlink:href="#Duplicate_Items_Folder_arm_suit_copy_4_0_Layer1_0_1_STROKES"/>
</g>

<g transform="matrix( 1, 0, 0, 1, 0,0) ">
<use xlink:href="#Duplicate_Items_Folder_arm_suit_copy_4_0_Layer0_0_FILL"/>

<use xlink:href="#Duplicate_Items_Folder_arm_suit_copy_4_0_Layer0_0_1_STROKES"/>
</g>
</g>

<g transform="matrix( -0.234588623046875, 0.2459716796875, 0.25311279296875, 0.22711181640625, 69.6,-39.4) ">
<g transform="matrix( 1, 0, 0, 1, 0,0) ">
<use xlink:href="#Duplicate_Items_Folder_arm_suit_copy_4_0_Layer1_0_FILL"/>

<use xlink:href="#Duplicate_Items_Folder_arm_suit_copy_4_0_Layer1_0_1_STROKES"/>
</g>

<g transform="matrix( 1, 0, 0, 1, 0,0) ">
<use xlink:href="#Duplicate_Items_Folder_arm_suit_copy_4_0_Layer0_0_FILL"/>

<use xlink:href="#Duplicate_Items_Folder_arm_suit_copy_4_0_Layer0_0_1_STROKES"/>
</g>
</g>

<g transform="matrix( 0.2920379638671875, -0.0156402587890625, 0.004180908203125, 0.292205810546875, 43.4,-56.15) ">
<g transform="matrix( 1, 0, 0, 1, 0,0) ">
<use xlink:href="#Duplicate_Items_Folder_head_copy_8_7_Layer9_0_FILL"/>

<use xlink:href="#Duplicate_Items_Folder_head_copy_8_7_Layer9_0_1_STROKES"/>
</g>

<g transform="matrix( 1, 0, 0, 1, 0,0) ">
<use xlink:href="#Duplicate_Items_Folder_head_copy_8_7_Layer8_0_FILL"/>

<use xlink:href="#Duplicate_Items_Folder_head_copy_8_7_Layer8_0_1_STROKES"/>
</g>

<g transform="matrix( 1, 0, 0, 1, 0,0) ">
<use xlink:href="#Duplicate_Items_Folder_head_copy_8_7_Layer7_0_FILL"/>

<use xlink:href="#Duplicate_Items_Folder_head_copy_8_7_Layer7_0_1_STROKES"/>
</g>

<g transform="matrix( 1, 0, 0, 1, 0,0) ">
<use xlink:href="#Duplicate_Items_Folder_head_copy_8_7_Layer6_0_FILL"/>

<use xlink:href="#Duplicate_Items_Folder_head_copy_8_7_Layer6_0_1_STROKES"/>
</g>

<g transform="matrix( 1, 0, 0, 1, 0,0) ">
<use xlink:href="#Duplicate_Items_Folder_head_copy_8_7_Layer5_0_FILL"/>
</g>

<g transform="matrix( 1, 0, 0, 1, 0,0) ">
<use xlink:href="#Duplicate_Items_Folder_head_copy_8_7_Layer4_0_FILL"/>

<use xlink:href="#Duplicate_Items_Folder_head_copy_8_7_Layer4_0_1_STROKES"/>

<use xlink:href="#Duplicate_Items_Folder_head_copy_8_7_Layer4_0_2_STROKES"/>

<use xlink:href="#Duplicate_Items_Folder_head_copy_8_7_Layer4_0_3_STROKES"/>
</g>

<g transform="matrix( 1, 0, 0, 1, 0,0) ">
<use xlink:href="#Duplicate_Items_Folder_head_copy_8_7_Layer3_0_FILL"/>

<use xlink:href="#Duplicate_Items_Folder_head_copy_8_7_Layer3_0_1_STROKES"/>
</g>

<g transform="matrix( 1, 0, 0, 1, 0,0) ">
<use xlink:href="#Duplicate_Items_Folder_head_copy_8_7_Layer2_0_FILL"/>

<use xlink:href="#Duplicate_Items_Folder_head_copy_8_7_Layer2_0_1_STROKES"/>
</g>

<g transform="matrix( 1, 0, 0, 1, 0,0) ">
<use xlink:href="#Duplicate_Items_Folder_head_copy_8_7_Layer1_0_FILL"/>

<use xlink:href="#Duplicate_Items_Folder_head_copy_8_7_Layer1_0_1_STROKES"/>

<use xlink:href="#Duplicate_Items_Folder_head_copy_8_7_Layer1_0_2_STROKES"/>

<use xlink:href="#Duplicate_Items_Folder_head_copy_8_7_Layer1_0_3_STROKES"/>
</g>

<g transform="matrix( 1, 0, 0, 1, 0,0) ">
<use xlink:href="#Duplicate_Items_Folder_head_copy_8_7_Layer0_0_1_STROKES"/>
</g>
</g>
</g>
</svg>
