
<svg xmlns="http://www.w3.org/2000/svg" version="1.1" xmlns:xlink="http://www.w3.org/1999/xlink" preserveAspectRatio="none" x="0px" y="0px" width="560px" height="544px" viewBox="0 0 560 544">
<defs>
<g id="bil_hand_relaxed_0_Layer0_0_FILL">
<path fill="#EEB9AC" stroke="none" d="
M 15.15 9.8
Q 14.331640625 9.1439453125 13.35 8.65 10.9689453125 7.4951171875 7.75 7.5 6.1388671875 7.501171875 1.55 9.75 1.0185546875 12.1322265625 0.65 13.95 0.91484375 15.352734375 1.95 16.95 3.0728515625 18.7080078125 3.8 19.05 9.0904296875 21.637890625 10.3 21.65 10.8486328125 21.6568359375 11.65 21.2 12.2337890625 21.1837890625 12.35 21.4 10.053125 23.6376953125 10.05 26.5 10.0568359375 28.8341796875 12.45 28.8 13.9642578125 28.8333984375 15.5 28.1 16.12421875 27.755859375 17.1 27.2 17.016015625 26.713671875 17 26.1 17.0306640625 24.9283203125 17.5 23.8 17.956640625 22.70859375 17.95 21.5 17.95078125 19.3955078125 16.35 16.45 15.315625 16.9849609375 14.25 16.55 13.1734375 16.1326171875 10.25 14.7 7.323046875 13.2876953125 6.8 11.2 7.323046875 13.2876953125 10.25 14.7 13.1734375 16.1326171875 14.25 16.55 15.315625 16.9849609375 16.35 16.45 17.3619140625 16.0326171875 17.6 15.15 17.7212890625 14.831640625 17.7 14.45 17.725 11.8591796875 15.15 9.8
M 24.35 21.05
Q 26.2916015625 22.81953125 27.55 22.8 29.5865234375 22.8158203125 30 22.55 30.69765625 22.1544921875 30.7 20.25 30.70625 15.804296875 26.05 13.05 18.603515625 8.6595703125 14.1 8.65 13.710546875 8.65 13.35 8.65 14.331640625 9.1439453125 15.15 9.8 17.725 11.8591796875 17.7 14.45 17.7212890625 14.831640625 17.6 15.15 20.0890625 16.4439453125 22.9 19.55 23.684765625 20.4353515625 24.35 21.05
M 24.45 22.65
Q 24.4470703125 21.80390625 24.35 21.05 23.684765625 20.4353515625 22.9 19.55 20.0890625 16.4439453125 17.6 15.15 17.3619140625 16.0326171875 16.35 16.45 17.95078125 19.3955078125 17.95 21.5 17.956640625 22.70859375 17.5 23.8 17.0306640625 24.9283203125 17 26.1 17.016015625 26.713671875 17.1 27.2 17.5802734375 29.280859375 20.05 29.25 21.4837890625 29.273828125 22.8 27.65 24.4490234375 25.71875 24.45 22.65 Z"/>
</g>

<g id="Duplicate_Items_Folder_arm_suit_open_back_hand_short_copy_0_Layer0_0_FILL">
<path fill="#151D39" stroke="none" d="
M -27.75 16.75
Q -27.55 16.65 -27.4 16.45
L -27.5 16.55
Q -27.6 16.65 -27.75 16.75 Z"/>

<path fill="#000000" stroke="none" d="
M 12.75 -1.25
Q 7.25 -5.6 5.85 -10.55
L 5.5 -13.2
Q -0.35 -17.45 -5.35 -15.45 -9.1 -13 -9.3 -12.7 -10.1 -11.7 -10.75 -9.7 -11 -9 -11.5 -7.9 -11.85 -6.9 -12.45 -5.75 -13.4 -3.9 -14.65 -1.55 -15.95 0.1 -17.2 1.65 -18.6 3.35 -19.9 4.9 -18.05 18.05 -0.6 22 0.9 20.65 2.6 19.15 5.45 16.65 8.95 13.55 11.55 11.25 17.3 7.8 19.15 6.7 18.2 3.15
L 12.75 -1.25
M 10.6 4.55
Q 10.5 4.55 10.5 4.6
L 10.8 4.55
Q 10.65 4.6 10.6 4.65 0.55 11.8 -2.15 14.95 -14.25 13.35 -15.3 3.35
L -14.85 2.75 -13.7 0.65
Q -8.8 -8.8 -7.35 -10.55
L -6.75 -11.55
Q -6.55 -12 -0.7 -13.2 4.85 -11.1 3.4 -7.4 12.35 2.05 10.6 4.55 Z"/>

<path fill="#333333" stroke="none" d="
M 10.6 4.65
Q 10.65 4.6 10.8 4.55
L 10.5 4.6 10.6 4.65 Z"/>

<path fill="#3399CC" stroke="none" d="
M 10.5 4.6
Q 10.5 4.55 10.6 4.55 12.35 2.05 3.4 -7.4 4.85 -11.1 -0.7 -13.2 -6.55 -12 -6.75 -11.55
L -7.35 -10.55
Q -8.8 -8.8 -13.7 0.65
L -14.85 2.75 -15.3 3.35
Q -14.25 13.35 -2.15 14.95 0.55 11.8 10.6 4.65
L 10.5 4.6 Z"/>
</g>

<g id="spoon_0_Layer0_0_FILL">
<path fill="#EA0404" stroke="none" d="
M 1.15 4.9
L 2.05 5.35 3.6 4.5 5.2 5.75
Q 5 3.6 3.7 1.2 2.7 1.35 1.9 2.55 1.3 3.6 1.15 4.9 Z"/>

<path fill="#9E7A58" stroke="none" d="
M 0.15 4.45
Q 0 5.2 0 6 0 8.5 1.15 10.25 2.05 11.55 3.25 11.9
L 2.55 33.45
Q 3.1 34.1 3.7 34.15
L 3.7 10.95
Q 2.7 10.75 1.9 9.5 1.05 8.1 1.05 6.05 1.05 5.45 1.15 4.9
L 0.15 4.45 Z"/>

<path fill="#CF0505" stroke="none" d="
M 3.7 1.2
L 3.7 0.05
Q 2.25 0.15 1.15 1.75 0.4 2.95 0.15 4.45
L 1.15 4.9
Q 1.3 3.6 1.9 2.55 2.7 1.35 3.7 1.2 Z"/>

<path fill="#B39577" stroke="none" d="
M 5.2 5.8
L 5.2 5.75 3.6 4.5 2.05 5.35 1.15 4.9
Q 1.05 5.45 1.05 6.05 1.05 8.1 1.9 9.5 2.7 10.75 3.7 10.95 5.4 8.6 5.2 5.8 Z"/>

<path fill="#7D6246" stroke="none" d="
M 6.9 4.65
Q 7 5.3 7 6.05 7 8.1 6.1 9.5 5.25 10.95 4 10.95 3.85 10.95 3.7 10.95
L 3.7 34.15
Q 4.35 34.2 5 33.45
L 4.7 11.95
Q 5.9 11.6 6.8 10.25 8 8.5 8 6 8 5.6 8 5.25
L 6.9 4.65 Z"/>

<path fill="#990000" stroke="none" d="
M 6.1 2.55
Q 6.7 3.5 6.9 4.65
L 8 5.25
Q 7.8 3.25 6.8 1.75 5.65 0 4 0 3.85 0 3.7 0.05
L 3.7 1.2
Q 3.85 1.15 4 1.15 5.25 1.15 6.1 2.55 Z"/>

<path fill="#A4805B" stroke="none" d="
M 6.9 4.65
L 6.4 4.4 5.2 5.8
Q 5.4 8.6 3.7 10.95 3.85 10.95 4 10.95 5.25 10.95 6.1 9.5 7 8.1 7 6.05 7 5.3 6.9 4.65 Z"/>

<path fill="#D20202" stroke="none" d="
M 6.4 4.4
L 6.9 4.65
Q 6.7 3.5 6.1 2.55 5.25 1.15 4 1.15 3.85 1.15 3.7 1.2 5 3.6 5.2 5.75
L 5.2 5.8 6.4 4.4 Z"/>
</g>

<g id="left_shoe_0_Layer1_0_FILL">
<path fill="#000000" stroke="none" d="
M 23.65 -18.65
Q 23.3548828125 -17.9197265625 23.05 -16.7 22.25 -13.3 22.6 -10.1 22.7 -9 23 -7.9
L 22.95 -7.9 22.95 -7.85
Q 21.85 -4.4 23.8 -1.95
L 37.1 -1.2 37.05 -1.3
Q 45.5 -1 53.5 -2.65 55.4 -3.1 57.3 -3.6 57.35 -4 57.3 -4.45 57.25 -6.45 56.2 -8.15
L 56.15 -8.2
Q 56.15 -8.25 56.15 -8.3 56.65 -8.4 57.15 -8.55 57.15 -8.7 57.15 -8.9 57.05 -13.5 55.6 -15.4 54.8 -16.45 53.5 -17.3 52.35 -18.05 50.8 -18.7 48.05 -19.9 44.8 -20.35 29.835546875 -21.52109375 23.9 -18.55 23.78359375 -18.5783203125 23.65 -18.65
M 24.1 -18.5
Q 24.2443359375 -18.489453125 24.45 -18.5 24.6619140625 -18.4482421875 31.55 -18.9 38.436328125 -19.3060546875 40.9 -18.7
L 43.35 -18.3
Q 40.15 -12.75 40.6 -7.95 34.35 -7.45 30.35 -7.85 27.85 -8.05 25.6 -8 23.55 -13.1 24.7 -17.85 24.8248046875 -17.6646484375 25.35 -18.15 24.76484375 -18.258203125 24.1 -18.5
M 53.5 -15.1
Q 53.65 -14.95 53.75 -14.8 54.85 -13.4 54.95 -10 54.95 -9.85 54.95 -9.7 54.5 -9.55 54.05 -9.5 53.75 -9.45 53.5 -9.35 50.9 -8.75 48.4 -8.55 47.15 -8.45 42.7 -7.9 42.7 -12.95 45.65 -18.1 48.15 -18.2 50.2 -17.3 52.4 -16.35 53.5 -15.1 Z"/>

<path fill="#FF33CC" stroke="none" d="
M 53.75 -14.8
Q 53.65 -14.95 53.5 -15.1 52.4 -16.35 50.2 -17.3 48.15 -18.2 45.65 -18.1 42.7 -12.95 42.7 -7.9 47.15 -8.45 48.4 -8.55 50.9 -8.75 53.5 -9.35 53.75 -9.45 54.05 -9.5 54.5 -9.55 54.95 -9.7 54.95 -9.85 54.95 -10 54.85 -13.4 53.75 -14.8 Z"/>

<path fill="#DCBEAB" stroke="none" d="
M 24.45 -18.5
Q 24.2443359375 -18.489453125 24.1 -18.5 24.76484375 -18.258203125 25.35 -18.15 24.8248046875 -17.6646484375 24.7 -17.85 23.55 -13.1 25.6 -8 27.85 -8.05 30.35 -7.85 34.35 -7.45 40.6 -7.95 40.15 -12.75 43.35 -18.3
L 40.9 -18.7
Q 38.436328125 -19.3060546875 31.55 -18.9 24.6619140625 -18.4482421875 24.45 -18.5 Z"/>
</g>

<g id="left_shoe_0_Layer0_0_FILL">
<path fill="#FF33CC" stroke="none" d="
M 24.05 -6.75
Q 22.99296875 -4.756640625 24.55 -2.95 42.90546875 -1.6736328125 55.75 -4.25 56.353515625 -5.9642578125 55.1 -8.05 39.5375 -5.65703125 24.05 -6.75 Z"/>
</g>

<g id="Duplicate_Items_Folder_body_suit_copy_3_0_Layer3_0_FILL">
<path fill="#000000" stroke="none" d="
M 34.9 -17.55
L 24.7 -33.65
Q 12.7 -29.05 -4.15 -30 -17.45 -30.75 -27.55 -34.5
L -38.45 -18
Q -46.6 -3.85 -44.25 1.1 -43.65 6.05 -42.4 8.05 -40.9 10.45 -40.05 9.5
L -40.8 10.7
Q -50.079296875 34.3244140625 -50.05 61.6 -43.07421875 69.7341796875 -38.65 71.5 -34.22265625 73.31328125 -26.3 75.3 -5.35390625 78.24609375 10.45 77 15.3005859375 76.2771484375 19.05 76.75
L 21.95 76
Q 23.64921875 75.8654296875 25.85 75.55
L 24.15 75.6
Q 25.073828125 75.5615234375 25.95 75.55 29.2759765625 75.118359375 33.75 74.35 45.313671875 72.4556640625 49.05 68.4
L 37.25 11.2 36.5 9.95
Q 37.35 10.9 38.85 8.55 40.1 6.5 40.7 1.55 43.05 -3.4 34.9 -17.55
M 3.45 -23
Q 7.75 -23.2 11.55 -23.75 17 -24.65 21.65 -26.4 23.25 -27.05 24.7 -27.7
L 32.4 -15.15
Q 39.95 -1.35 37.4 3.1
L 37.35 3.15
Q 35.35 6.65 34.9 7.05 34.45 7.4 34.15 7.7 23.160546875 11.92109375 15.5 9.65 12.85 9.4 10.05 9.05 9.9 9 9.8 9 9.25 8.95 8.75 8.8 8.55 8.8 8.35 8.75 8.45 8.8 8.55 8.9 8.65 8.95 3.45 9.6 3.8615234375 10.23203125 4.25 10.85 5.8298828125 12.155078125 10.4 13.3 17.139453125 15.0490234375 22.45 14.55 27.7642578125 14.103125 34.5 12.45
L 44.55 65.2
Q 44.2365234375 66.380859375 34.45 69.8 24.70859375 73.207421875 19.55 73.1 14.446875 73.05 11 73.6 9.0017578125 73.72421875 4.65 74.1 0.2916015625 74.4751953125 -8.5 74.25 -17.2318359375 74.025 -20 73.05 -25.0392578125 73.2201171875 -33.5 70.25 -42.067578125 67.2412109375 -46.05 60.3 -45.8822265625 39.50078125 -39.55 18.3
L -38.05 12
Q -24.7 15.3 -13.35 9.1 -12.7 8.8 -12.1 8.4 -12 8.35 -11.9 8.3 -12.6 8.4 -13.35 8.55 -28.75 10.7 -37.7 7.25 -38 6.9 -38.45 6.55 -38.9 6.15 -40.9 2.7
L -40.95 2.65
Q -43.5 -1.8 -35.95 -15.65
L -28.1 -28.25
Q -19.1 -24.3 -6.95 -23.3 -5.65 -23.2 -4.25 -23.15 -0.25 -22.9 3.45 -23
M -4.2 71.95
Q -4.301953125 71.941015625 -4.4 71.95 -4.796484375 71.976953125 -5.2 72 -4.7087890625 71.987109375 -4.2 71.95 Z"/>

<path fill="#2D84A8" stroke="none" d="
M -11.85 8.55
Q -12 8.45 -12.1 8.4 -12.7 8.8 -13.35 9.1 -24.7 15.3 -38.05 12
L -39.55 18.3
Q -32.9 23.35 -11.85 8.55
M 34.5 12.45
Q 27.7642578125 14.103125 22.45 14.55 17.139453125 15.0490234375 10.4 13.3 5.8298828125 12.155078125 4.25 10.85 31.126171875 52.8607421875 11 73.6 14.446875 73.05 19.55 73.1 24.70859375 73.207421875 34.45 69.8 44.2365234375 66.380859375 44.55 65.2
L 34.5 12.45
M 21.65 -26.4
Q 17 -24.65 11.55 -23.75 34.2 -4.85 15.5 9.65 23.160546875 11.92109375 34.15 7.7 34.45 7.4 34.9 7.05 35.35 6.65 37.35 3.15
L 37.4 3.1
Q 39.95 -1.35 32.4 -15.15
L 24.7 -27.7
Q 23.25 -27.05 21.65 -26.4 Z"/>

<path fill="#3399CC" stroke="none" d="
M 11.55 -23.75
Q 7.75 -23.2 3.45 -23 -0.25 -22.9 -4.25 -23.15 -5.65 -23.2 -6.95 -23.3 -19.1 -24.3 -28.1 -28.25
L -35.95 -15.65
Q -43.5 -1.8 -40.95 2.65
L -40.9 2.7
Q -38.9 6.15 -38.45 6.55 -38 6.9 -37.7 7.25 -28.75 10.7 -13.35 8.55 -12.6 8.4 -11.9 8.3 -12 8.35 -12.1 8.4 -12 8.45 -11.85 8.55 -32.9 23.35 -39.55 18.3 -45.8822265625 39.50078125 -46.05 60.3 -42.067578125 67.2412109375 -33.5 70.25 -25.0392578125 73.2201171875 -20 73.05 -17.2318359375 74.025 -8.5 74.25 0.2916015625 74.4751953125 4.65 74.1 9.0017578125 73.72421875 11 73.6 31.126171875 52.8607421875 4.25 10.85 3.8615234375 10.23203125 3.45 9.6 8.65 8.95 8.55 8.9 8.45 8.8 8.35 8.75 8.55 8.8 8.75 8.8 9.25 8.95 9.8 9 9.9 9 10.05 9.05 12.85 9.4 15.5 9.65 34.2 -4.85 11.55 -23.75
M -4.4 71.95
Q -4.301953125 71.941015625 -4.2 71.95 -4.7087890625 71.987109375 -5.2 72 -4.796484375 71.976953125 -4.4 71.95 Z"/>
</g>

<g id="Duplicate_Items_Folder_body_suit_copy_3_0_Layer2_0_FILL">
<path fill="#F6C427" stroke="none" d="
M -2.65 24.75
Q -14.95 20.55 -29.8 19.1 -42.75 40.45 -39.1 59.45 -17.85 68 5.5 67.1 9.75 39.45 -2.65 24.75
M -19.2 -17.35
L -18.55 -28.85 -24.85 -29.35 -25.45 -17.85 -30.7 -18.3
Q -31.1 -3 -25.1 12 -14.85 14.3 -2.7 14.75 10.2 2.65 6.75 -15.35 -6.55 -10.45 -19.2 -17.35
M 10 -25.8
L 9.45 -25.85 9.35 -23.7 10 -25.8 Z"/>

<path fill="#F5B82C" stroke="none" d="
M 5.5 67.1
Q 12.15 68.3 23.1 66 24.5 52.7 20.05 36.25 10.05 29.05 -2.65 24.75 9.75 39.45 5.5 67.1
M 10 -25.8
L 9.35 -23.7 8.9 -15.2 6.75 -15.35
Q 10.2 2.65 -2.7 14.75 3.8 15 10.75 14.7 18.95 0.95 20.35 -14.35
L 15.15 -14.75 15.7 -25.35 10 -25.8 Z"/>

<path fill="#ECA80B" stroke="none" d="
M 20.05 36.25
Q 17.2 25.9 10.6 15.1
L 10.75 14.7
Q 3.8 15 -2.7 14.75 -14.85 14.3 -25.1 12
L -25.1 12.1
Q -27.7 15.55 -29.8 19.1 -14.95 20.55 -2.65 24.75 10.05 29.05 20.05 36.25 Z"/>
</g>

<g id="Duplicate_Items_Folder_body_suit_copy_3_0_Layer1_0_FILL">
<path fill="#CC0000" stroke="none" d="
M -0.4 46.3
Q -0.9 48.7 -0.85 50.55 -0.85 52.4 0.25 52.8 1.3 53.2 2.5 51.9 3.65 50.55 2.4 47.9 1.15 45.15 1.15 42.5 1.3 39.9 1.15 40.05 1 40.15 0.55 42 0.15 43.9 -0.4 46.3
M -3.9 24.95
Q -3.85 27.75 -2.2 29.8 -1.31640625 30.8978515625 -0.3 31.4 0.0544921875 32.851953125 1 34 2.45 35.7 4.35 35.7 6.25 35.7 7.6 34 9 32.3 9 29.95 8.95 27.6 7.5 25.9 7.256640625 25.6044921875 7 25.35 7.0037109375 25.1572265625 7 24.95 6.95 22.15 5.3 20.05 3.65 18 1.45 18 -0.75 18 -2.35 20.05 -3.95 22.15 -3.9 24.95
M -20.35 42.2
L -20.4 42.2
Q -21.85 42.2 -22.8 43.35 -23.75 44.5 -23.75 45.95 -23.7 47.45 -22.7 48.5 -21.7 49.6 -20.25 49.6 -20.08828125 49.6 -19.95 49.55 -19.71953125 50.273046875 -19.3 50.85 -18.5 51.95 -17.35 51.95 -16.15 51.95 -15.35 50.85 -14.5 49.75 -14.55 48.25 -14.55 47.1935546875 -15 46.3 -14.15 44.9478515625 -14.15 43.1 -14.2 41.2 -15.15 39.8 -16.05 38.4 -17.4 38.4 -18.7 38.4 -19.55 39.8 -20.1921875 40.8576171875 -20.35 42.2
M -22.75 23.25
Q -22.75234375 21.658203125 -22.85 21.5 -22.951171875 21.3966796875 -23.35 23.55 -23.6908203125 25.6953125 -25.2 27.65 -26.7142578125 29.65 -25.95 30.9 -25.1876953125 32.2119140625 -24.3 32.05 -23.353515625 31.8943359375 -23 30.4 -22.65 28.95 -22.65 26.9 -22.6994140625 24.8470703125 -22.75 23.25
M -15.8 -11
Q -17.25 -11 -18.25 -9.4 -19.25 -7.75 -19.2 -5.4 -19.1904296875 -4.9537109375 -19.15 -4.55 -19.5955078125 -4.8 -20.1 -4.8 -21.4 -4.8 -22.35 -2.9 -23.25 -0.95 -23.2 1.7 -23.15 4.35 -22.2 6.25 -21.2 8.15 -19.9 8.15 -18.55 8.15 -17.65 6.25 -17.5416015625 6.033203125 -17.45 5.8 -17.323828125 6.527734375 -17.1 7.1 -16.65 8.3 -16.05 8.3 -15.45 8.3 -15.05 7.1 -14.785546875 6.339453125 -14.7 5.3 -14.548046875 5.3052734375 -14.4 5.25 -14.5 5.87109375 -14.5 6.55 -14.45 8.3 -13.75 9.5 -13.05 10.7 -12.2 10.7 -11.3 10.7 -10.65 9.5 -10 8.3 -10.05 6.55 -10.05 4.8 -10.75 3.6 -11.137890625 2.962890625 -11.6 2.65 -11.45 2.211328125 -11.45 1.7 -11.5 0.2 -12.6 -0.9 -12.8775390625 -1.1775390625 -13.2 -1.4 -13.169921875 -1.4171875 -13.15 -1.45 -12.1 -3.05 -12.15 -5.4 -12.2 -7.75 -13.25 -9.4 -14.3 -11 -15.8 -11
M 1.45 -2.2
Q 1.931640625 -2.2 2.35 -2.3 2.4931640625 -1.2076171875 3 -0.35 3.7 0.75 4.6 0.75 5.5 0.75 6.1 -0.35 6.75 -1.45 6.75 -2.95 6.7 -4.4 6 -5.5 5.43828125 -6.4505859375 4.7 -6.6 4.4666015625 -7.51328125 3.8 -8.25 2.85 -9.25 1.35 -9.25 -0.1 -9.25 -1.1 -8.25 -2.05 -7.2 -2.05 -5.75 -2 -4.25 -1 -3.25 0 -2.2 1.45 -2.2 Z"/>
</g>

<g id="Duplicate_Items_Folder_right_shoe_0_Layer1_0_FILL">
<path fill="#000000" stroke="none" d="
M 13 -2.15
Q 11.25 -3.3 9.15 -3.85 5.15 -5.15 -0.15 -3.8 -2.9 -3.15 -5.05 -1.6 -8.85 1.05 -8.65 5 -8.65 5.25 -8.65 5.55
L -8.7 5.55
Q -9.45 7.1 -9.4 8.8 -9.35 9.2 -9.35 9.55 4.75 13.55 17.95 8.55 18 8.2 17.95 7.8 17.9 5.95 16.9 4.4 16.85 4.4 16.75 4.45 16.75 4.3 16.75 4.1 16.6 0.15 13 -2.15
M 6.6 -2.95
Q 8.95 -2.65 10.95 -1.5 14.1 0.35 14.2 3.45 14.2 3.7 14.2 4 14.0828125 4.0390625 12.5 4.5
L 12.5 4.55
Q 14.4251953125 4.0427734375 13.75 4.25 13.4232421875 4.3623046875 11.75 4.7 11.627734375 4.7625 11.5 4.8
L 11.5 4.75
Q 10.18828125 5.048828125 8.05 5.45 3.19453125 6.4599609375 -2.7 5.35 -2.648046875 5.417578125 -2.6 5.45 -5.35 4.8 -5.75 4.7 -5.8 4.4 -5.8 4.15 -5.9 1.05 -3.4 -0.8 -1.1 -2.5 2.7 -2.95 3.05 -3 3.4 -3 5.1 -3.15 6.6 -2.95 Z"/>

<path fill="#E8CCC1" stroke="none" d="
M 11.75 4.7
Q 13.4232421875 4.3623046875 13.75 4.25 14.4251953125 4.0427734375 12.5 4.55
L 12.5 4.5
Q 12.1591796875 4.6046875 11.75 4.7 Z"/>

<path fill="#FF33CC" stroke="none" d="
M 10.95 -1.5
Q 8.95 -2.65 6.6 -2.95 5.1 -3.15 3.4 -3 3.05 -3 2.7 -2.95 -1.1 -2.5 -3.4 -0.8 -5.9 1.05 -5.8 4.15 -5.8 4.4 -5.75 4.7 -5.35 4.8 -2.6 5.45 -2.648046875 5.417578125 -2.7 5.35 3.19453125 6.4599609375 8.05 5.45 10.18828125 5.048828125 11.5 4.75
L 11.5 4.8
Q 11.627734375 4.7625 11.75 4.7 12.1591796875 4.6046875 12.5 4.5 14.0828125 4.0390625 14.2 4 14.2 3.7 14.2 3.45 14.1 0.35 10.95 -1.5 Z"/>
</g>

<g id="Duplicate_Items_Folder_right_shoe_0_Layer0_0_FILL">
<path fill="#FF33CC" stroke="none" d="
M 16.9 8.35
L 15.85 5.05
Q 4.0248046875 8.7015625 -7.8 6.25
L -8.4 9
Q 4.9234375 11.4529296875 16.9 8.35 Z"/>
</g>

<g id="Duplicate_Items_Folder_head_copy_5_0_Layer3_0_FILL">
<path fill="#F3CFC7" stroke="none" d="
M -36.95 -7.4
Q -34.75 -4.15 -34.9 -0.25 -35.2 5.15 -40.05 8.6 -42.75 10.5 -46 11.2 -41.4 15.3 -41.6 20.45 -41.9 25.6 -46.9 28.85 -47.55 29.25 -48.35 29.8 -46.5 32.75 -46.7 36.45 -46.7 37.4 -46.9 38.35 -44.7 40.2 -43.8 42.35 -42.05 43.45 -40.25 44.05 -40.9 45.65 -40.95 47.5 -41.3 53.95 -34.25 59.15 -28.15 63.6 -19.75 64.9 8.05 58.45 9 44.15 17.25 41.9 24.85 37.2 32.75 32.3 33.1 24.45 33.55 16.65 26.15 10.35 18.9 4.1 8.1 3.15 8 3.15 7.95 3.15 4.45 -1 3.6 -5.9 -4.9 -7.05 -10.65 -12.9 -11.9 -14.2 -12.95 -15.55 -13 -15.55 -13.05 -15.5 -20.5 -11.3 -30.85 -12.2 -31.45 -12.2 -31.95 -12.35 -32.3 -9.45 -36.35 -7.6 -36.65 -7.55 -36.95 -7.4
M -29.7 46.25
Q -25.5943359375 45.3974609375 -20.4 47.05 -15.1671875 48.7072265625 -11.9 51.95 -8.5830078125 55.192578125 -8.55 56.1 -8.455078125 57.05 -12.2 54.75 -15.896875 52.5041015625 -21.2 50.6 -26.5017578125 48.7451171875 -30.55 50.15 -34.5994140625 51.6015625 -34.2 49.35 -33.8 47.1 -29.7 46.25 Z"/>

<path fill="#F5EBE7" stroke="none" d="
M -20.4 47.05
Q -25.5943359375 45.3974609375 -29.7 46.25 -33.8 47.1 -34.2 49.35 -34.5994140625 51.6015625 -30.55 50.15 -26.5017578125 48.7451171875 -21.2 50.6 -15.896875 52.5041015625 -12.2 54.75 -8.455078125 57.05 -8.55 56.1 -8.5830078125 55.192578125 -11.9 51.95 -15.1671875 48.7072265625 -20.4 47.05 Z"/>

<path fill="#ECB1A4" stroke="none" d="
M -51.3 -47.65
Q -59.95 -32.9 -61.2 -10.75 -62.25 11.4 -55.1 27.6 -51.4 35.95 -46.6 40.2 -45.25 41.45 -43.8 42.35 -44.7 40.2 -46.9 38.35 -46.7 37.4 -46.7 36.45 -46.5 32.75 -48.35 29.8 -47.55 29.25 -46.9 28.85 -41.9 25.6 -41.6 20.45 -41.4 15.3 -46 11.2 -42.75 10.5 -40.05 8.6 -35.2 5.15 -34.9 -0.25 -34.75 -4.15 -36.95 -7.4 -36.65 -7.55 -36.35 -7.6 -32.3 -9.45 -31.95 -12.35 -31.45 -12.2 -30.85 -12.2 -20.5 -11.3 -13.05 -15.5 -13 -15.55 -12.95 -15.55 -11.9 -14.2 -10.65 -12.9 -4.9 -7.05 3.6 -5.9 4.45 -1 7.95 3.15 8 3.15 8.1 3.15 18.9 4.1 26.15 10.35 33.55 16.65 33.1 24.45 32.75 32.3 24.85 37.2 17.25 41.9 9 44.15 8.05 58.45 -19.75 64.9 -18.2 65.1 -16.65 65.2 -6.3 66.15 1.25 62.3 6.85 59.35 8.55 55.15 23.95 54.15 36.05 46 40.9 42.75 44.5 38.95 47.3 35.85 49.1 32.45 53 25.7 53.4 17.45 54.25 -0.15 39.05 -14.05 34.35 -18.4 28.8 -21.6 16.85 -28.55 1.3 -30 -3.6 -30.4 -8.05 -30.25 -9.7 -37.7 -12.6 -44.25 -19.8 -60.5 -31.15 -61.5 -42.6 -62.45 -51.3 -47.65 Z"/>
</g>

<g id="Duplicate_Items_Folder_head_copy_5_0_Layer2_0_FILL">
<path fill="#000000" stroke="none" d="
M 1.6 56.6
L 3.25 51.15
Q -2.9 46.05 -16.05 42.35 -24.4 40.2 -28.55 42.25 -5.25 45.95 1.6 56.6 Z"/>
</g>

<g id="Duplicate_Items_Folder_head_copy_5_0_Layer1_0_FILL">
<path fill="#5E563C" stroke="none" d="
M -25.15 -126.7
Q -25.35 -126.95 -25.4 -127.15 -25.3 -126.6 -25.15 -126
L -25.15 -126.7 Z"/>

<path fill="#7B7B7B" stroke="none" d="
M 65.1 -101.8
Q 61.65 -102.65 58.6 -100.75 55.8 -98.95 54.95 -95.9 48.85 -96.25 43.65 -94.05 40.65 -92.85 38.6 -91 36 -92.2 33.05 -92.95 24.15 -95.15 16.65 -92.3 16.1 -91.25 15.75 -90.05 14.15 -90.3 12.7 -90.45 8.1 -87.75 6.1 -83.35 -0.15 -84.5 -5.65 -81.2 -9.5 -78.95 -11.55 -75.4 -17.8 -76.9 -23.35 -72.95 -28.9 -68.9 -30.45 -61.65 -30.6 -60.7 -30.75 -59.8 -30.8 -59.8 -30.85 -59.8 -36.75 -61.3 -41.85 -58.45 -46.9 -55.55 -48.1 -50.15 -49.1 -45.2 -46.4 -40.6 -47.5 -39.2 -47.9 -37.2 -48.7 -33.5 -46.7 -30.35 -44.7 -27.1 -41.2 -26.25 -39.7 -25.8 -38.45 -25.95 -38.2 -25.9 -37.95 -25.8 -35.3 -25.15 -32.8 -26.65 -32.7 -26.8 -32.45 -26.95 -30.7 -28.3 -30 -30.35 -29.3 -29.95 -28.4 -29.5
L -29.95 -28.45
Q -29.55 -28.4 -29 -28.3 -17.7 -25.5 -8.85 -28.25 -8.75 -28.25 -8.7 -28.25 -7.7 -26.8 -6.6 -25.35 -1.05 -18.55 8.05 -16 8.45 -10.5 12.3 -5.35 17.15 1.2 25.2 3.8 27.6 5.8 30.3 7.4 28.2 9.05 27.7 11.4 26.75 15.65 31.45 20.05 35.95 24.25 42.95 26.15 43.2 29.7 45.45 33.1 48.9 38.3 55 39.8 61.15 41.3 66.4 38.1 68.5 36.95 69.95 35.2 76.05 35.35 81.45 33.3 90.55 29.85 92.1 22.15 93.65 14.9 87.45 7.8 87.55 7.75 87.65 7.7 95 4.6 96.45 -1.9 96.9 -3.95 96.6 -5.95 99.55 -9.2 100.45 -13.65 102.35 -22.45 95.4 -30.55 95.05 -31 94.6 -31.45 98.45 -35.6 99.7 -41.8 101 -48.05 99.2 -53.75 100.15 -55.95 100.6 -58.35 102.65 -68 96.6 -76.8 93.7 -80.8 89.85 -83.55 86.3 -86.65 80.8 -88.05 78.2 -88.75 75.75 -88.8 75.15 -88.85 74.5 -88.8 74.8 -91.05 74.05 -92.95 73.45 -94.45 72.6 -95.1 72.25 -95.75 71.75 -96.25 71.3 -96.9 70.7 -97.4 70.65 -97.55 70.6 -97.7 68.55 -100.9 65.1 -101.8 Z"/>

<path fill="#D9D9D9" stroke="none" d="
M 35.5 -108.1
Q 24.3 -110.8 15.2 -106.75 7 -102.9 4.8 -95.75 -2.6 -96.95 -8.9 -94.5 -9.5 -94.25 -9.95 -94 -13.95 -96.15 -18.95 -97.45 -28.4 -99.7 -36 -97.1 -43.65 -94.4 -44.9 -88.2 -45.2 -86.9 -45.15 -85.6 -51.25 -87.05 -56.3 -85.35 -61.3 -83.75 -62.1 -80 -62.4 -78.3 -61.8 -76.65 -63.15 -77.2 -64.45 -77.5 -71.6 -79.2 -77.9 -74.9 -84.15 -70.55 -85.9 -62.75 -87.3 -55.9 -84.6 -50 -86.4 -46.5 -87.35 -42.5 -89.65 -31.15 -83.3 -21.15 -80.65 -17 -77.2 -14.05 -77.35 -13.3 -77.5 -12.65 -78.95 -5.2 -75.9 1.1 -75 3 -73.7 4.4 -73.75 4.55 -73.75 4.6 -73.8 5.05 -68.7 7.65
L -62.75 10.15
Q -62.75 10.1 -62.75 10.05 -64 8.65 -64.85 6.7 -68.05 0.45 -66.5 -6.95 -66.4 -7.7 -66.2 -8.35 -69.65 -11.3 -72.3 -15.5 -78.7 -25.4 -76.4 -36.85 -75.4 -40.9 -73.65 -44.25 -76.35 -50.2 -74.9 -57.1 -73.15 -64.9 -66.95 -69.25 -60.6 -73.55 -53.5 -71.85 -52.2 -71.55 -50.8 -70.95 -51.5 -72.7 -51.2 -74.35 -50.4 -78.05 -45.3 -79.75 -40.3 -81.35 -34.2 -79.95 -34.2 -81.2 -33.9 -82.6 -32.7 -88.7 -25.1 -91.45 -17.45 -94.05 -7.95 -91.75 -2.95 -90.55 1 -88.25 1.5 -88.6 2.05 -88.85 7 -90.8 12.7 -90.45 14.15 -90.3 15.75 -90.05 16.1 -91.25 16.65 -92.3 19.35 -97.9 26.15 -101 35.4 -105.15 46.45 -102.45 47.6 -102.15 48.85 -101.75 43.2 -106.15 35.5 -108.1 Z"/>

<path fill="#A6A6A6" stroke="none" d="
M 27.85 -117.4
Q 16.35 -120.2 7 -115.9 -1.5 -112.05 -3.8 -104.65 -11.4 -105.9 -17.85 -103.3 -18.45 -103 -18.95 -102.75 -23 -105.05 -28.3 -106.4 -37.95 -108.7 -45.8 -105.95 -53.7 -103.15 -54.95 -96.85 -55.25 -95.45 -55.25 -94.1 -61.5 -95.65 -66.7 -93.9 -71.95 -92.2 -72.7 -88.4 -73.05 -86.65 -72.35 -84.8 -73.75 -85.45 -75.1 -85.75 -82.5 -87.5 -88.95 -83.05 -95.4 -78.55 -97.2 -70.45 -98.65 -63.4 -95.95 -57.3 -97.75 -53.75 -98.65 -49.6 -101.1 -37.85 -94.5 -27.55 -91.9 -23.25 -88.2 -20.25 -88.4 -19.5 -88.55 -18.75 -90.1 -11.1 -86.95 -4.6 -85.95 -2.65 -84.7 -1.2 -84.7 -1 -84.7 -0.95 -85.7 3.55 -83.45 7.5 -81.2 11.45 -76.9 12.45 -76.5 12.55 -76.1 12.7 -80.5 14.55 -81.3 18.25 -82.15 22.4 -78.4 26.3 -74.45 30.4 -68.3 31.9 -62.2 33.4 -57.1 31.55 -52.1 29.65 -51.2 25.7 -50.35 21.6 -54.15 17.55 -53.8 16.75 -53.65 15.8 -52.85 12.2 -54.5 9 -53.6 8.65 -52.75 8.4 -46.75 6.2 -45.65 1.3 -44.65 -3.6 -49.15 -8.45 -45.45 -8.55 -42.25 -9.85 -36.3 -12.35 -35.25 -17.5 -34.45 -21.2 -36.4 -24.7 -36.05 -24.8 -35.8 -24.9 -31.3 -25.8 -30.35 -28.3 -30.25 -28.4 -30.25 -28.55 -30.1 -28.55 -29.95 -28.45
L -28.4 -29.5
Q -29.3 -29.95 -30 -30.35 -30.7 -28.3 -32.45 -26.95 -32.7 -26.8 -32.8 -26.65 -35.3 -25.15 -37.95 -25.8 -38.2 -25.9 -38.45 -25.95 -39.7 -25.8 -41.2 -26.25 -44.7 -27.1 -46.7 -30.35 -48.7 -33.5 -47.9 -37.2 -47.5 -39.2 -46.4 -40.6 -49.1 -45.2 -48.1 -50.15 -46.9 -55.55 -41.85 -58.45 -36.75 -61.3 -30.85 -59.8 -30.8 -59.8 -30.75 -59.8 -30.6 -60.7 -30.45 -61.65 -28.9 -68.9 -23.35 -72.95 -17.8 -76.9 -11.55 -75.4 -9.5 -78.95 -5.65 -81.2 -0.15 -84.5 6.1 -83.35 8.1 -87.75 12.7 -90.45 7 -90.8 2.05 -88.85 1.5 -88.6 1 -88.25 -2.95 -90.55 -7.95 -91.75 -17.45 -94.05 -25.1 -91.45 -32.7 -88.7 -33.9 -82.6 -34.2 -81.2 -34.2 -79.95 -40.3 -81.35 -45.3 -79.75 -50.4 -78.05 -51.2 -74.35 -51.5 -72.7 -50.8 -70.95 -52.2 -71.55 -53.5 -71.85 -60.6 -73.55 -66.95 -69.25 -73.15 -64.9 -74.9 -57.1 -76.35 -50.2 -73.65 -44.25 -75.4 -40.9 -76.4 -36.85 -78.7 -25.4 -72.3 -15.5 -69.65 -11.3 -66.2 -8.35 -66.4 -7.7 -66.5 -6.95 -68.05 0.45 -64.85 6.7 -64 8.65 -62.75 10.05 -62.75 10.1 -62.75 10.15
L -68.7 7.65
Q -73.8 5.05 -73.75 4.6 -73.75 4.55 -73.7 4.4 -75 3 -75.9 1.1 -78.95 -5.2 -77.5 -12.65 -77.35 -13.3 -77.2 -14.05 -80.65 -17 -83.3 -21.15 -89.65 -31.15 -87.35 -42.5 -86.4 -46.5 -84.6 -50 -87.3 -55.9 -85.9 -62.75 -84.15 -70.55 -77.9 -74.9 -71.6 -79.2 -64.45 -77.5 -63.15 -77.2 -61.8 -76.65 -62.4 -78.3 -62.1 -80 -61.3 -83.75 -56.3 -85.35 -51.25 -87.05 -45.15 -85.6 -45.2 -86.9 -44.9 -88.2 -43.65 -94.4 -36 -97.1 -28.4 -99.7 -18.95 -97.45 -13.95 -96.15 -9.95 -94 -9.5 -94.25 -8.9 -94.5 -2.6 -96.95 4.8 -95.75 7 -102.9 15.2 -106.75 24.3 -110.8 35.5 -108.1 43.2 -106.15 48.85 -101.75 47.6 -102.15 46.45 -102.45 35.4 -105.15 26.15 -101 19.35 -97.9 16.65 -92.3 24.15 -95.15 33.05 -92.95 36 -92.2 38.6 -91 40.65 -92.85 43.65 -94.05 48.85 -96.25 54.95 -95.9 55.8 -98.95 58.6 -100.75 61.65 -102.65 65.1 -101.8 68.55 -100.9 70.6 -97.7 70.65 -97.55 70.7 -97.4 71.3 -96.9 71.75 -96.25 72.25 -95.75 72.6 -95.1 73.45 -94.45 74.05 -92.95 74.8 -91.05 74.5 -88.8 75.15 -88.85 75.75 -88.8 75.2 -92.95 72.75 -96.95 72.3 -97.7 71.75 -98.5 66.2 -106.55 56.2 -109.05 49.55 -110.7 43.65 -109 37.4 -115 27.85 -117.4 Z"/>
</g>

<g id="Duplicate_Items_Folder_head_copy_5_0_Layer0_0_FILL">
<path fill="#8C8C8C" stroke="none" d="
M -63.1 -8.45
Q -65.85 -11.8 -70.2 -12.35 -74.5 -12.85 -77.9 -10.15 -81.3 -7.45 -81.65 -3.15 -82.25 1.25 -79.4 4.6 -76.7 8 -72.3 8.4 -68.1 8.85 -64.65 6.3 -61.25 3.5 -60.7 -0.8 -60.3 -5.2 -63.1 -8.45
M -79.6 -3.8
Q -79.55 -3.9 -79.55 -4.1 -78.15 -8.05 -74.7 -9.3 -72 -10.7 -69 -9.6 -65.9 -8.6 -65 -7.1 -64 -5.55 -63.45 -3.75 -62.9 -1.95 -63.3 0 -63.7 1.8 -63.85 2.4 -63.75 -0.65 -64.5 -2.65 -65.2 -4.85 -66.15 -6.2 -67.2 -7.55 -69.5 -8.1 -71.85 -8.75 -73.95 -7.65 -76.65 -6.65 -77.75 -3.45 -78 -0.55 -76.65 1.1
L -76.65 1.25
Q -75.05 3.5 -71.75 3.5 -68.85 2.85 -68.35 0.75 -67.4 -1.6 -68.8 -3.35 -70.6 -4.75 -72.45 -3.95 -72.45 -3.75 -72.5 -3.8 -74.3 -3.2 -73.95 -1.45 -73.6 0 -71.95 -0.15
L -71.5 -0.2
Q -71.1 -0.15 -70.95 0.2 -70.7 0.3 -70.6 0.5
L -71.8 1.25
Q -75.05 1.7 -75.65 -1 -76.35 -4.2 -73.25 -5.55
L -73.35 -5.45
Q -70.5 -7.1 -67.6 -4.7 -67.55 -4.65 -67.5 -4.5 -66.35 -3.15 -66.5 0.9
L -66.5 1.2
Q -67.1 4.3 -71.4 5.25 -71.45 5.3 -71.65 5.25 -76.05 5.35 -78.1 2.3 -79.9 0.2 -79.6 -3.8
M -29 -100.45
Q -34.75 -103.4 -41.2 -101.15 -47.6 -99.05 -50.55 -93 -53.4 -86.9 -51.2 -80.75 -48.85 -74.4 -42.8 -71.35 -36.9 -68.45 -30.6 -70.65 -24.15 -72.85 -21.4 -78.85 -18.35 -84.95 -20.65 -91.25 -22.8 -97.55 -29 -100.45
M -26.55 -87.5
L -26.45 -87.7
Q -27.6 -91.9 -32.35 -93.6 -36.85 -94.2 -38.75 -91.45 -41.4 -88.5 -40.1 -85.1 -38.3 -82.1 -35.25 -82.5 -35.2 -82.7 -35 -82.65 -32.1 -82.55 -31.7 -85.25 -31.55 -87.55 -33.9 -88.25
L -34.7 -88.5
Q -35.25 -88.65 -35.3 -89.2 -35.45 -89.5 -35.65 -89.8
L -33.45 -90.25
Q -28.4 -89.3 -29 -84.95 -29.65 -80 -34.9 -79.8
L -34.75 -79.85
Q -39.65 -78.85 -42.6 -83.9 -42.7 -84 -42.7 -84.2 -43.55 -86.75 -41.35 -92.6
L -41.2 -92.85
Q -38.65 -97.15 -31.95 -96.4 -31.85 -96.25 -31.65 -96.25 -25.15 -94.05 -23.85 -88.65 -22.3 -84.6 -24.75 -79 -24.8 -78.75 -24.9 -78.6 -29.15 -73.6 -34.7 -73.6 -39.45 -72.95 -43.2 -76.05 -47.1 -79.1 -47.65 -81.85 -48.35 -84.5 -48.15 -87.35 -47.95 -90.25 -46.45 -92.9 -44.8 -95.35 -44.4 -96 -46 -91.7 -45.95 -88.3 -46.2 -84.9 -45.5 -82.45 -44.7 -79.95 -41.55 -77.95 -38.5 -75.75 -35 -76.3
L -34.95 -76.25
Q -30.45 -76.35 -27.15 -80.4 -25.4 -84.55 -26.55 -87.5
M 41.4 20.45
Q 45.55 22 49.45 20 53.35 18.1 54.7 13.9 56.2 9.85 54.35 6 52.4 2 48.35 0.55 44.1 -0.8 40.35 1.05 36.45 3.05 34.9 7.2 33.45 11.25 35.4 15.1 37.25 19.1 41.4 20.45
M 41.3 3.25
Q 42.95 2.6 44.85 2.55 46.7 2.4 48.55 3.25 50.25 4 50.65 4.3 47.8 3.5 45.6 3.8 43.35 4 41.85 4.6 40.3 5.3 39.2 7.45 38.05 9.65 38.65 11.8
L 38.65 11.9
Q 39.05 14.75 41.95 16.55 44.75 17.4 46.55 16.45
L 46.7 16.5
Q 49.35 15.4 49.95 12.25 50 9.3 48.1 8.3 46 6.8 44 7.85 42.1 9.3 42.65 11.3 42.75 11.3 42.75 11.35 42.95 13.25 44.75 13.3 46.15 13.25 46.55 11.6
L 46.6 11.15
Q 46.65 10.75 46.95 10.65 47.15 10.5 47.4 10.4
L 47.75 11.8
Q 47.55 15.1 44.8 15.05 41.55 15 40.9 11.65
L 40.95 11.7
Q 39.95 8.6 42.95 6.4 43.05 6.3 43.15 6.25 44.8 5.5 48.75 6.5
L 48.9 6.6
Q 51.85 7.85 51.8 12.3 51.85 12.4 51.85 12.5 50.9 16.85 47.45 18.15 44.95 19.45 41.2 18.3 41.05 18.3 40.95 18.2 37.4 15.75 36.9 12.3 36.15 9.25 37.9 6.6 39.6 3.95 41.3 3.25 Z"/>

<path fill="#000000" stroke="none" d="
M -79.55 -4.1
Q -79.55 -3.9 -79.6 -3.8 -79.9 0.2 -78.1 2.3 -76.05 5.35 -71.65 5.25 -71.45 5.3 -71.4 5.25 -67.1 4.3 -66.5 1.2
L -66.5 0.9
Q -66.35 -3.15 -67.5 -4.5 -67.55 -4.65 -67.6 -4.7 -70.5 -7.1 -73.35 -5.45
L -73.25 -5.55
Q -76.35 -4.2 -75.65 -1 -75.05 1.7 -71.8 1.25
L -70.6 0.5
Q -70.7 0.3 -70.95 0.2 -71.1 -0.15 -71.5 -0.2
L -71.95 -0.15
Q -73.6 0 -73.95 -1.45 -74.3 -3.2 -72.5 -3.8 -72.45 -3.75 -72.45 -3.95 -70.6 -4.75 -68.8 -3.35 -67.4 -1.6 -68.35 0.75 -68.85 2.85 -71.75 3.5 -75.05 3.5 -76.65 1.25
L -76.65 1.1
Q -78 -0.55 -77.75 -3.45 -76.65 -6.65 -73.95 -7.65 -71.85 -8.75 -69.5 -8.1 -67.2 -7.55 -66.15 -6.2 -65.2 -4.85 -64.5 -2.65 -63.75 -0.65 -63.85 2.4 -63.7 1.8 -63.3 0 -62.9 -1.95 -63.45 -3.75 -64 -5.55 -65 -7.1 -65.9 -8.6 -69 -9.6 -72 -10.7 -74.7 -9.3 -78.15 -8.05 -79.55 -4.1
M -19.4 -49.7
L -19.2 -49.6
Q -16.85 -49.6 -14.5 -47.3 -12.55 -43.95 -13.5 -40.8
L -13.6 -40.7
Q -14.1 -38.2 -16.55 -36.6 -18.65 -34.9 -20.65 -35.1 -22.6 -35.25 -25 -36.2 -27.3 -37.05 -29.9 -39.4 -29.6 -38.85 -28.15 -37.1 -26.75 -35.4 -24.85 -34.45 -22.9 -33.55 -20.8 -33.3 -18.7 -33.05 -15.6 -34.9 -12.45 -36.8 -11.65 -40.25 -10.15 -44.2 -12.6 -48.4 -12.65 -48.55 -12.8 -48.7 -16 -51.85 -19.35 -51.9 -23.45 -52.3 -26.65 -48.4 -26.8 -48.25 -26.85 -48.2 -29.25 -43.65 -26.85 -40.85
L -26.7 -40.6
Q -23.1 -37.45 -21.15 -37.4 -21 -37.4 -20.85 -37.5 -16.65 -38.2 -16 -41.8 -14.8 -45.5 -18.15 -47.2 -21 -48.85 -22.95 -45.5
L -23.2 -43.9
Q -22.95 -43.95 -22.8 -43.95 -22.4 -43.9 -22.05 -44.2
L -21.7 -44.6
Q -20.5 -46.15 -19.05 -45.45 -17.2 -44.4 -18 -42.35 -18.05 -42.3 -17.95 -42.25 -18.6 -40.05 -21.1 -39.45 -23.75 -39.5 -25.15 -42.15 -26.55 -44.15 -25 -47.2 -22.6 -50 -19.4 -49.7
M -81.45 -72.65
Q -85.25 -69.7 -83.9 -65.75
L -83.95 -65.8
Q -83.1 -61.45 -78.95 -61.5 -75.25 -61.55 -75.15 -65.85
L -75.65 -67.65
Q -75.95 -67.45 -76.15 -67.25 -76.55 -67.15 -76.65 -66.65
L -76.75 -66
Q -77.15 -63.95 -79 -63.8 -81.3 -63.85 -81.6 -66.25 -81.6 -66.35 -81.75 -66.4 -82.4 -68.95 -80.15 -70.8 -77.5 -72.2 -74.65 -70.4 -72.2 -69.15 -72.2 -65.3 -73.05 -61.2 -76.4 -59.8
L -76.55 -59.85
Q -78.9 -58.45 -82.5 -59.5 -86.25 -61.8 -86.9 -65.45
L -86.85 -65.5
Q -87.7 -68.35 -86.25 -71.15 -85.05 -74 -83 -74.95 -81.1 -75.8 -78.1 -76.1 -75.35 -76.55 -71.55 -75.65 -72.2 -75.95 -74.4 -76.95 -76.75 -77.9 -79.15 -77.75 -81.6 -77.6 -83.7 -76.7 -85.95 -75.85 -88.05 -72.3 -90.15 -68.8 -89.1 -64.95 -88.35 -60.3 -83.7 -57.4 -83.55 -57.3 -83.35 -57.25 -78.5 -55.9 -75.3 -57.7 -71 -59.4 -69.85 -65 -69.8 -65.2 -69.8 -65.25 -69.95 -71 -73.8 -72.6
L -74.05 -72.7
Q -79.2 -73.9 -81.2 -72.8 -81.35 -72.8 -81.45 -72.65
M -26.45 -87.7
L -26.55 -87.5
Q -25.4 -84.55 -27.15 -80.4 -30.45 -76.35 -34.95 -76.25
L -35 -76.3
Q -38.5 -75.75 -41.55 -77.95 -44.7 -79.95 -45.5 -82.45 -46.2 -84.9 -45.95 -88.3 -46 -91.7 -44.4 -96 -44.8 -95.35 -46.45 -92.9 -47.95 -90.25 -48.15 -87.35 -48.35 -84.5 -47.65 -81.85 -47.1 -79.1 -43.2 -76.05 -39.45 -72.95 -34.7 -73.6 -29.15 -73.6 -24.9 -78.6 -24.8 -78.75 -24.75 -79 -22.3 -84.6 -23.85 -88.65 -25.15 -94.05 -31.65 -96.25 -31.85 -96.25 -31.95 -96.4 -38.65 -97.15 -41.2 -92.85
L -41.35 -92.6
Q -43.55 -86.75 -42.7 -84.2 -42.7 -84 -42.6 -83.9 -39.65 -78.85 -34.75 -79.85
L -34.9 -79.8
Q -29.65 -80 -29 -84.95 -28.4 -89.3 -33.45 -90.25
L -35.65 -89.8
Q -35.45 -89.5 -35.3 -89.2 -35.25 -88.65 -34.7 -88.5
L -33.9 -88.25
Q -31.55 -87.55 -31.7 -85.25 -32.1 -82.55 -35 -82.65 -35.2 -82.7 -35.25 -82.5 -38.3 -82.1 -40.1 -85.1 -41.4 -88.5 -38.75 -91.45 -36.85 -94.2 -32.35 -93.6 -27.6 -91.9 -26.45 -87.7
M 44.85 2.55
Q 42.95 2.6 41.3 3.25 39.6 3.95 37.9 6.6 36.15 9.25 36.9 12.3 37.4 15.75 40.95 18.2 41.05 18.3 41.2 18.3 44.95 19.45 47.45 18.15 50.9 16.85 51.85 12.5 51.85 12.4 51.8 12.3 51.85 7.85 48.9 6.6
L 48.75 6.5
Q 44.8 5.5 43.15 6.25 43.05 6.3 42.95 6.4 39.95 8.6 40.95 11.7
L 40.9 11.65
Q 41.55 15 44.8 15.05 47.55 15.1 47.75 11.8
L 47.4 10.4
Q 47.15 10.5 46.95 10.65 46.65 10.75 46.6 11.15
L 46.55 11.6
Q 46.15 13.25 44.75 13.3 42.95 13.25 42.75 11.35 42.75 11.3 42.65 11.3 42.1 9.3 44 7.85 46 6.8 48.1 8.3 50 9.3 49.95 12.25 49.35 15.4 46.7 16.5
L 46.55 16.45
Q 44.75 17.4 41.95 16.55 39.05 14.75 38.65 11.9
L 38.65 11.8
Q 38.05 9.65 39.2 7.45 40.3 5.3 41.85 4.6 43.35 4 45.6 3.8 47.8 3.5 50.65 4.3 50.25 4 48.55 3.25 46.7 2.4 44.85 2.55
M 83.2 13.05
Q 82.75 12.5 81.15 10.65 79.35 8.85 77.2 8 74.95 7 72.7 6.8 70.45 6.55 67.3 8.5 64.15 10.45 63.65 14.1 62.65 18.1 65.7 22.55 65.85 22.75 66.1 22.9 69.85 26.1 73.35 26.05 77.85 26.45 80.85 22.4 81 22.3 81 22.25 83 17.5 80.1 14.55
L 79.9 14.4
Q 75.7 11.15 73.55 11.05 73.4 11.05 73.3 11.1 68.8 11.95 68.6 15.7
L 68.55 15.65
Q 67.8 19.55 71.55 21.3 74.85 22.9 76.45 19.45
L 76.55 17.75
Q 76.35 17.85 76.15 17.85 75.7 17.7 75.4 18.15
L 75.1 18.6
Q 73.95 20.1 72.3 19.35 70.25 18.4 70.85 16.2 70.85 16.15 70.75 16.15 71.15 13.7 73.8 13.2 76.6 13.25 78.5 15.95 80.3 18 78.85 21.2 76.7 24.2 73.2 23.95
L 73.05 23.85
Q 70.5 23.85 67.6 21.4 65 17.9 65.85 14.6
L 65.85 14.55
Q 66.15 11.9 68.5 10.15 70.55 8.45 72.7 8.55 74.75 8.65 77.5 9.7 80.15 10.6 83.2 13.05
M 19.05 -51.95
L 19.35 -52.05
Q 22.05 -56 28.65 -57.3 36.45 -56.85 40.45 -51.4
L 40.45 -51.35
Q 44.1 -47.45 44 -41.85 44.35 -36.3 41.9 -33.2 39.55 -30.25 35.05 -27.4 31.05 -24.5 24.3 -22.8 25.6 -22.8 29.9 -23 34.5 -23.4 38.15 -25.65 41.8 -27.9 44.5 -31 47.35 -34.15 47.8 -41.45 48.3 -48.85 43.5 -54.05 38.6 -60.8 28.9 -61.7 28.6 -61.7 28.2 -61.65 19.25 -59.8 15.7 -54.35 10.25 -48 13 -38.25 13.15 -37.9 13.15 -37.8 18 -28.8 25.4 -29.45
L 25.85 -29.55
Q 35 -31.85 37.4 -35.1 37.65 -35.3 37.65 -35.5 41.2 -43.4 35.9 -48.55
L 36.05 -48.45
Q 31.15 -54.7 24.6 -51.15 18.8 -48.15 22 -41.25
L 24.3 -38.9
Q 24.65 -39.35 24.85 -39.8 25.45 -40.35 25.15 -41.2
L 24.8 -42.25
Q 23.75 -45.95 26.6 -47.6 30.25 -49.45 32.7 -45.9 32.75 -45.65 33.05 -45.8 36.05 -42.25 33.95 -37.4 31 -33.1 25.05 -33.7 20.1 -33.6 16.95 -39.65 14.9 -46.95 19.05 -51.95
M 75.45 -79.05
Q 75.25 -79.05 74.95 -78.95 68 -77.55 65.25 -73.35 60.9 -68.3 63.15 -60.75 63.2 -60.45 63.25 -60.4 66.95 -53.35 72.75 -53.85
L 73.1 -53.9
Q 80.3 -55.65 82.2 -58.2 82.35 -58.4 82.35 -58.55 85.2 -64.8 81 -68.75
L 81.15 -68.7
Q 77.3 -73.6 72.15 -70.8 67.6 -68.45 70.1 -63.05
L 71.95 -61.2
Q 72.15 -61.65 72.3 -61.95 72.75 -62.35 72.55 -63.1
L 72.3 -63.95
Q 71.45 -66.75 73.65 -68.05 76.55 -69.45 78.5 -66.65 78.55 -66.45 78.7 -66.5 81.15 -63.85 79.45 -60.1 77.2 -56.7 72.5 -57.15 68.6 -57.1 66.15 -61.85 64.65 -67.5 67.85 -71.4
L 68 -71.45
Q 70.15 -74.65 75.3 -75.6 81.4 -75.2 84.5 -71
L 84.55 -70.95
Q 87.4 -67.9 87.4 -63.45 87.6 -59.2 85.7 -56.75 83.8 -54.45 80.4 -52.2 77.25 -49.9 71.9 -48.6 72.9 -48.6 76.35 -48.8 79.85 -49.1 82.75 -50.85 85.6 -52.55 87.7 -55 90 -57.5 90.3 -63.2 90.65 -68.95 86.95 -73.1 83.15 -78.35 75.45 -79.05
M 13.5 -107.05
Q 10 -105.75 7.15 -100.75 4.3 -95.65 6.6 -90.4 8.35 -84.05 16.3 -80.35 16.55 -80.3 16.9 -80.25 24.95 -78.65 29.75 -81.5 36.55 -84.2 37.45 -92 37.5 -92.3 37.5 -92.4 36.5 -100.2 29.95 -102.15
L 29.65 -102.2
Q 21.2 -103.55 18.05 -101.95 17.85 -101.85 17.75 -101.65 12 -97.2 14.8 -91.95
L 14.65 -92
Q 16.7 -86.1 23.5 -86.5 29.3 -86.8 28.9 -92.8
L 27.75 -95.15
Q 27.4 -94.9 27.05 -94.65 26.4 -94.45 26.25 -93.7
L 26.2 -92.8
Q 25.9 -89.95 22.95 -89.65 19.2 -89.5 18.35 -92.85 18.35 -92.95 18.1 -92.95 16.7 -96.45 20.15 -99.2 24.05 -101.35 28.9 -99 33.05 -97.55 33.7 -92.2 32.95 -86.5 27.85 -84.25
L 27.55 -84.25
Q 23.95 -82.2 17.95 -83.45 11.6 -86.15 10 -91.25
L 10.05 -91.3
Q 8.25 -95.2 10.15 -99.25 11.85 -103.3 14.9 -104.7 17.9 -106.1 22.55 -106.65 26.95 -107.45 33.15 -106.5 32.1 -106.9 28.4 -108.1 24.45 -109.35 20.6 -108.85 16.8 -108.5 13.5 -107.05 Z"/>

<path fill="#B3B3B3" stroke="none" d="
M -20.35 -54.75
Q -25.35 -54.85 -28.95 -51.3 -32.5 -48 -32.65 -43 -32.85 -37.9 -29.45 -34.3 -25.9 -30.65 -20.95 -30.55 -15.95 -30.55 -12.2 -34 -8.65 -37.35 -8.5 -42.3 -8.3 -47.35 -11.8 -50.9 -15.25 -54.6 -20.35 -54.75
M -19.2 -49.6
L -19.4 -49.7
Q -22.6 -50 -25 -47.2 -26.55 -44.15 -25.15 -42.15 -23.75 -39.5 -21.1 -39.45 -18.6 -40.05 -17.95 -42.25 -18.05 -42.3 -18 -42.35 -17.2 -44.4 -19.05 -45.45 -20.5 -46.15 -21.7 -44.6
L -22.05 -44.2
Q -22.4 -43.9 -22.8 -43.95 -22.95 -43.95 -23.2 -43.9
L -22.95 -45.5
Q -21 -48.85 -18.15 -47.2 -14.8 -45.5 -16 -41.8 -16.65 -38.2 -20.85 -37.5 -21 -37.4 -21.15 -37.4 -23.1 -37.45 -26.7 -40.6
L -26.85 -40.85
Q -29.25 -43.65 -26.85 -48.2 -26.8 -48.25 -26.65 -48.4 -23.45 -52.3 -19.35 -51.9 -16 -51.85 -12.8 -48.7 -12.65 -48.55 -12.6 -48.4 -10.15 -44.2 -11.65 -40.25 -12.45 -36.8 -15.6 -34.9 -18.7 -33.05 -20.8 -33.3 -22.9 -33.55 -24.85 -34.45 -26.75 -35.4 -28.15 -37.1 -29.6 -38.85 -29.9 -39.4 -27.3 -37.05 -25 -36.2 -22.6 -35.25 -20.65 -35.1 -18.65 -34.9 -16.55 -36.6 -14.1 -38.2 -13.6 -40.7
L -13.5 -40.8
Q -12.55 -43.95 -14.5 -47.3 -16.85 -49.6 -19.2 -49.6
M 86.65 16.75
Q 86.15 11.55 82.05 7.7 77.8 3.95 72.55 4 67.15 3.95 63.6 7.55 60.15 11.15 60.6 16.3 61.05 21.55 65.25 25.25 69.4 29.1 74.8 29.1 80.15 29.2 83.6 25.5 87.05 22.05 86.65 16.75
M 81.15 10.65
Q 82.75 12.5 83.2 13.05 80.15 10.6 77.5 9.7 74.75 8.65 72.7 8.55 70.55 8.45 68.5 10.15 66.15 11.9 65.85 14.55
L 65.85 14.6
Q 65 17.9 67.6 21.4 70.5 23.85 73.05 23.85
L 73.2 23.95
Q 76.7 24.2 78.85 21.2 80.3 18 78.5 15.95 76.6 13.25 73.8 13.2 71.15 13.7 70.75 16.15 70.85 16.15 70.85 16.2 70.25 18.4 72.3 19.35 73.95 20.1 75.1 18.6
L 75.4 18.15
Q 75.7 17.7 76.15 17.85 76.35 17.85 76.55 17.75
L 76.45 19.45
Q 74.85 22.9 71.55 21.3 67.8 19.55 68.55 15.65
L 68.6 15.7
Q 68.8 11.95 73.3 11.1 73.4 11.05 73.55 11.05 75.7 11.15 79.9 14.4
L 80.1 14.55
Q 83 17.5 81 22.25 81 22.3 80.85 22.4 77.85 26.45 73.35 26.05 69.85 26.1 66.1 22.9 65.85 22.75 65.7 22.55 62.65 18.1 63.65 14.1 64.15 10.45 67.3 8.5 70.45 6.55 72.7 6.8 74.95 7 77.2 8 79.35 8.85 81.15 10.65
M 72.9 -82.25
Q 65 -81.1 60.5 -74.6 55.95 -68.3 57.3 -60.4 58.5 -52.9 64.8 -48.15 71.2 -43.5 78.9 -44.8 86.75 -46.15 91.2 -52.45 95.65 -58.85 94.5 -66.7 93.25 -74.4 87.05 -78.85 80.55 -83.65 72.9 -82.25
M 74.95 -78.95
Q 75.25 -79.05 75.45 -79.05 83.15 -78.35 86.95 -73.1 90.65 -68.95 90.3 -63.2 90 -57.5 87.7 -55 85.6 -52.55 82.75 -50.85 79.85 -49.1 76.35 -48.8 72.9 -48.6 71.9 -48.6 77.25 -49.9 80.4 -52.2 83.8 -54.45 85.7 -56.75 87.6 -59.2 87.4 -63.45 87.4 -67.9 84.55 -70.95
L 84.5 -71
Q 81.4 -75.2 75.3 -75.6 70.15 -74.65 68 -71.45
L 67.85 -71.4
Q 64.65 -67.5 66.15 -61.85 68.6 -57.1 72.5 -57.15 77.2 -56.7 79.45 -60.1 81.15 -63.85 78.7 -66.5 78.55 -66.45 78.5 -66.65 76.55 -69.45 73.65 -68.05 71.45 -66.75 72.3 -63.95
L 72.55 -63.1
Q 72.75 -62.35 72.3 -61.95 72.15 -61.65 71.95 -61.2
L 70.1 -63.05
Q 67.6 -68.45 72.15 -70.8 77.3 -73.6 81.15 -68.7
L 81 -68.75
Q 85.2 -64.8 82.35 -58.55 82.35 -58.4 82.2 -58.2 80.3 -55.65 73.1 -53.9
L 72.75 -53.85
Q 66.95 -53.35 63.25 -60.4 63.2 -60.45 63.15 -60.75 60.9 -68.3 65.25 -73.35 68 -77.55 74.95 -78.95 Z"/>

<path fill="#D0D0D0" stroke="none" d="
M -91.05 -61.2
Q -88.5 -56.15 -83.15 -54.45 -77.75 -52.7 -72.7 -55.35 -67.75 -57.9 -66.1 -63.35 -64.35 -68.55 -66.85 -73.6 -69.4 -78.6 -74.75 -80.35 -80.2 -82.05 -85.05 -79.5 -90.05 -76.9 -91.85 -71.4 -93.55 -66.2 -91.05 -61.2
M -83.9 -65.75
Q -85.25 -69.7 -81.45 -72.65 -81.35 -72.8 -81.2 -72.8 -79.2 -73.9 -74.05 -72.7
L -73.8 -72.6
Q -69.95 -71 -69.8 -65.25 -69.8 -65.2 -69.85 -65 -71 -59.4 -75.3 -57.7 -78.5 -55.9 -83.35 -57.25 -83.55 -57.3 -83.7 -57.4 -88.35 -60.3 -89.1 -64.95 -90.15 -68.8 -88.05 -72.3 -85.95 -75.85 -83.7 -76.7 -81.6 -77.6 -79.15 -77.75 -76.75 -77.9 -74.4 -76.95 -72.2 -75.95 -71.55 -75.65 -75.35 -76.55 -78.1 -76.1 -81.1 -75.8 -83 -74.95 -85.05 -74 -86.25 -71.15 -87.7 -68.35 -86.85 -65.5
L -86.9 -65.45
Q -86.25 -61.8 -82.5 -59.5 -78.9 -58.45 -76.55 -59.85
L -76.4 -59.8
Q -73.05 -61.2 -72.2 -65.3 -72.2 -69.15 -74.65 -70.4 -77.5 -72.2 -80.15 -70.8 -82.4 -68.95 -81.75 -66.4 -81.6 -66.35 -81.6 -66.25 -81.3 -63.85 -79 -63.8 -77.15 -63.95 -76.75 -66
L -76.65 -66.65
Q -76.55 -67.15 -76.15 -67.25 -75.95 -67.45 -75.65 -67.65
L -75.15 -65.85
Q -75.25 -61.55 -78.95 -61.5 -83.1 -61.45 -83.95 -65.8
L -83.9 -65.75
M 10.9 -110.8
Q 3.25 -106.8 1.1 -99.15 -0.8 -91.75 3.95 -85.15 8.8 -78.25 17.75 -76.35 26.65 -74.3 34.25 -78.4 41.85 -82.2 43.85 -89.95 45.8 -97.25 41.1 -104.05 36.2 -110.85 27.3 -112.85 18.3 -114.75 10.9 -110.8
M 7.15 -100.75
Q 10 -105.75 13.5 -107.05 16.8 -108.5 20.6 -108.85 24.45 -109.35 28.4 -108.1 32.1 -106.9 33.15 -106.5 26.95 -107.45 22.55 -106.65 17.9 -106.1 14.9 -104.7 11.85 -103.3 10.15 -99.25 8.25 -95.2 10.05 -91.3
L 10 -91.25
Q 11.6 -86.15 17.95 -83.45 23.95 -82.2 27.55 -84.25
L 27.85 -84.25
Q 32.95 -86.5 33.7 -92.2 33.05 -97.55 28.9 -99 24.05 -101.35 20.15 -99.2 16.7 -96.45 18.1 -92.95 18.35 -92.95 18.35 -92.85 19.2 -89.5 22.95 -89.65 25.9 -89.95 26.2 -92.8
L 26.25 -93.7
Q 26.4 -94.45 27.05 -94.65 27.4 -94.9 27.75 -95.15
L 28.9 -92.8
Q 29.3 -86.8 23.5 -86.5 16.7 -86.1 14.65 -92
L 14.8 -91.95
Q 12 -97.2 17.75 -101.65 17.85 -101.85 18.05 -101.95 21.2 -103.55 29.65 -102.2
L 29.95 -102.15
Q 36.5 -100.2 37.5 -92.4 37.5 -92.3 37.45 -92 36.55 -84.2 29.75 -81.5 24.95 -78.65 16.9 -80.25 16.55 -80.3 16.3 -80.35 8.35 -84.05 6.6 -90.4 4.3 -95.65 7.15 -100.75 Z"/>

<path fill="#B7B7B7" stroke="none" d="
M 25.55 -65.8
Q 15.55 -64.3 9.7 -56 3.9 -47.95 5.7 -37.95 7.05 -28.25 15.15 -22.3 23.35 -16.3 33.2 -17.85 43.2 -19.6 48.85 -27.6 54.65 -35.85 53.05 -46 51.6 -55.7 43.6 -61.55 35.35 -67.5 25.55 -65.8
M 19.35 -52.05
L 19.05 -51.95
Q 14.9 -46.95 16.95 -39.65 20.1 -33.6 25.05 -33.7 31 -33.1 33.95 -37.4 36.05 -42.25 33.05 -45.8 32.75 -45.65 32.7 -45.9 30.25 -49.45 26.6 -47.6 23.75 -45.95 24.8 -42.25
L 25.15 -41.2
Q 25.45 -40.35 24.85 -39.8 24.65 -39.35 24.3 -38.9
L 22 -41.25
Q 18.8 -48.15 24.6 -51.15 31.15 -54.7 36.05 -48.45
L 35.9 -48.55
Q 41.2 -43.4 37.65 -35.5 37.65 -35.3 37.4 -35.1 35 -31.85 25.85 -29.55
L 25.4 -29.45
Q 18 -28.8 13.15 -37.8 13.15 -37.9 13 -38.25 10.25 -48 15.7 -54.35 19.25 -59.8 28.2 -61.65 28.6 -61.7 28.9 -61.7 38.6 -60.8 43.5 -54.05 48.3 -48.85 47.8 -41.45 47.35 -34.15 44.5 -31 41.8 -27.9 38.15 -25.65 34.5 -23.4 29.9 -23 25.6 -22.8 24.3 -22.8 31.05 -24.5 35.05 -27.4 39.55 -30.25 41.9 -33.2 44.35 -36.3 44 -41.85 44.1 -47.45 40.45 -51.35
L 40.45 -51.4
Q 36.45 -56.85 28.65 -57.3 22.05 -56 19.35 -52.05 Z"/>
</g>

<g id="Duplicate_Items_Folder_eye_copy_3_7_Layer1_0_FILL">
<path fill="#DABFB9" stroke="none" d="
M -8.35 -1.6
Q -8.4 -1.6 -8.4 -1.65
L -8.45 -1.55 -8.35 -1.6
M -8.5 -1.65
L -8.4 -1.65
Q -8.45 -1.7 -8.5 -1.7
L -8.5 -1.65
M -8.65 -0.75
L -8.75 -0.75 -9.05 0.2 -8.65 -0.75 Z"/>

<path fill="#EDA9A3" stroke="none" d="
M 16.7 8.65
Q 17.65 7.3 18.25 5.95 18.45 5.4 18.65 4.85
L 17.25 4.7
Q 16.7 5.75 15.95 6.9 13 11.15 8.85 12.5 4.7 13.7 1.8 11.35 -1.05 8.95 -2.9 5.7 -3.9 3.9 -4.15 2.4
L -8.75 1.85 -8.55 1.95
Q -8.529296875 2.0826171875 -8.2 1.95 -7.393359375 3.903125 -6.45 5.7 -4.2 9.95 -0.7 13.2 2.85 16.45 7.95 15.2 13.1 13.85 16.7 8.65 Z"/>

<path fill="#000000" stroke="none" d="
M 18.25 5.95
Q 17.65 7.3 16.7 8.65 13.1 13.85 7.95 15.2 2.85 16.45 -0.7 13.2 -4.2 9.95 -6.45 5.7 -7.393359375 3.903125 -8.2 1.95 -8.1263671875 4.3650390625 -6.95 7 -4.603515625 12.0556640625 -1.55 14.85 1.5099609375 17.6828125 6.35 17.8 12.9 17.3 16.4 11.4 18.05 8.55 18.55 5.9 18.4 5.9 18.25 5.95
M 19.65 -3.85
L 19.25 -3.95 17.7 0.65
Q 4.7263671875 -3.786328125 -7.5 -1.5
L -7.9 -1.5 -8.6 -1.1 -8.65 -1.1 -8.65 -1.05 -8.75 -0.75 -8.65 -0.75 -8.85 1.9 -8.7 1.9 -8.55 1.95 -8.75 1.85 -4.15 2.4
Q -3.9 3.9 -2.9 5.7 -1.05 8.95 1.8 11.35 4.7 13.7 8.85 12.5 13 11.15 15.95 6.9 16.7 5.75 17.25 4.7
L 18.65 4.85 21.4 5.15 21.55 2.1
Q 20.3974609375 1.6232421875 19.25 1.2
L 19.65 -3.85
M 16 4.6
Q 15.6 5.2 15.15 5.9 12.55 9.35 8.8 10.45 5.15 11.45 2.55 9.5 0 7.6 -1.65 5 -2.45 3.7 -2.7 2.55
L -0.05 2.85 7.7 3.7 16 4.6 Z"/>

<path fill="#CC0000" stroke="none" d="
M 1.15 6.55
Q 2.35 7.4 4.05 7.05 5.7 6.8 6.75 5.55 7.5 4.7 7.7 3.7
L -0.05 2.85
Q -0.25 3.5 -0.2 4.15 -0.1 5.7 1.15 6.55 Z"/>

<path fill="#FFFFFF" stroke="none" d="
M 15.15 5.9
Q 15.6 5.2 16 4.6
L 7.7 3.7
Q 7.5 4.7 6.75 5.55 5.7 6.8 4.05 7.05 2.35 7.4 1.15 6.55 -0.1 5.7 -0.2 4.15 -0.25 3.5 -0.05 2.85
L -2.7 2.55
Q -2.45 3.7 -1.65 5 0 7.6 2.55 9.5 5.15 11.45 8.8 10.45 12.55 9.35 15.15 5.9 Z"/>
</g>

<g id="eye_copy_7_Layer1_0_FILL">
<path fill="#EDA9A3" stroke="none" d="
M 19.15 5.55
Q 19.35 5 19.55 4.45
L 18.15 4.3
Q 17.6 5.35 16.85 6.5 13.9 10.75 9.75 12.1 5.6 13.3 2.7 10.95 -0.15 8.55 -2 5.3 -3 3.5 -3.25 2
L -6.95 1.6
Q -6.6 3.3 -5.55 5.3 -3.3 9.55 0.2 12.8 3.75 16.05 8.85 14.8 14 13.45 17.6 8.25 18.55 6.9 19.15 5.55 Z"/>

<path fill="#000000" stroke="none" d="
M -6.6 -1.9
L -7.85 -0.5 -7.45 1.55 -7.55 2.15
Q -7.127734375 4.1859375 -6.05 6.6 -3.7 11.65 -0.1 15.65 3.55 19.55 8.65 18.35 13.8 16.9 17.3 11 18.95 8.15 19.45 5.5 19.3 5.5 19.15 5.55 18.55 6.9 17.6 8.25 14 13.45 8.85 14.8 3.75 16.05 0.2 12.8 -3.3 9.55 -5.55 5.3 -6.6 3.3 -6.95 1.6
L -3.25 2
Q -3 3.5 -2 5.3 -0.15 8.55 2.7 10.95 5.6 13.3 9.75 12.1 13.9 10.75 16.85 6.5 17.6 5.35 18.15 4.3
L 19.55 4.45 22.3 4.75 22.45 1.7
Q 20.182421875 0.4787109375 17.85 -0.45
L 18.4 -4.35 18.05 -5.3 15.55 -1.25
Q 5.107421875 -4.6158203125 -6.6 -1.9
M 16.9 4.2
Q 16.5 4.8 16.05 5.5 13.45 8.95 9.7 10.05 6.05 11.05 3.45 9.1 0.9 7.2 -0.75 4.6 -1.55 3.3 -1.8 2.15
L 6.05 3 6.15 3 12.7 3.75 16.9 4.2 Z"/>

<path fill="#CC0000" stroke="none" d="
M 12.15 5.65
Q 12.9 4.8 13.1 3.8
L 12.7 3.75 6.15 3 6.05 3 5.35 2.95
Q 5.15 3.6 5.2 4.25 5.2814453125 5.5130859375 6.1 6.3 6.3185546875 6.492578125 6.55 6.65 7.75 7.5 9.45 7.15 11.1 6.9 12.15 5.65 Z"/>

<path fill="#FFFFFF" stroke="none" d="
M 16.05 5.5
Q 16.5 4.8 16.9 4.2
L 12.7 3.75 13.1 3.8
Q 12.9 4.8 12.15 5.65 11.1 6.9 9.45 7.15 7.75 7.5 6.55 6.65 6.3185546875 6.492578125 6.1 6.3 5.2814453125 5.5130859375 5.2 4.25 5.15 3.6 5.35 2.95
L 6.05 3 -1.8 2.15
Q -1.55 3.3 -0.75 4.6 0.9 7.2 3.45 9.1 6.05 11.05 9.7 10.05 13.45 8.95 16.05 5.5 Z"/>
</g>

<g id="bil_hand_back_relaxed_0_Layer0_0_FILL">
<path fill="#FFCF9C" stroke="none" d="
M -0.25 19.25
L -0.2 19.65 0.2 19.45 -0.25 19.25 Z"/>

<path fill="#EEB9AC" stroke="none" d="
M 18.6 9.5
Q 18.495703125 8.296484375 17.2 5.15 15.912890625 2.0099609375 11.55 1.15 7.187109375 0.28984375 4.5 3.9 1.804296875 7.5033203125 0.4 12.2
L 0.05 13.75 0.4 12.2
Q -3.2 13.65 -2.55 17.45 -2.45 18 -2.3 18.55
L -0.25 19.25 0.2 19.45
Q 3 18.85 5.1 17.05 3 18.85 0.2 19.45 1.2 22.05 4.05 22.25 4.55 22.2 5.05 22.15 9.4240234375 20.3857421875 10.85 18.9 9.4240234375 20.3857421875 5.05 22.15 6.75 24.95 9.95 24.4 14.85 23.6 16.9 19.1 19 14.5 18.6 9.5 Z"/>
</g>

<g id="arm__0_Layer0_0_FILL">
<path fill="#9592A9" stroke="none" d="
M 5.1 1.85
L 5.2 1.85 5 1.8 4.95 1.8 4.3 1.7 4 1.65 4.1 2 4.15 2.1 4.15 2.15 5.1 1.85 Z"/>

<path fill="#2880A4" stroke="none" d="
M 39.1 -34.2
L 39.2 -35.5 22.5 -24.35 3.75 -2
Q 9.962890625 0.2951171875 13.5 -2.55
L 25.5 -21.95
Q 34.8 -27.55 38.85 -33.1
L 39.1 -34.2 Z"/>

<path fill="#3399CC" stroke="none" d="
M 40 -42.6
Q 39.4 -44.2 38.4 -45.95 37.5365234375 -45.9931640625 36.8 -45.95 36.8537109375 -45.8779296875 36.85 -45.85 37.1470703125 -45.128515625 29.2 -40.45 21.3923828125 -35.81171875 21.7 -36.15
L -9.45 -10.15
Q -1.7822265625 -4.0240234375 3.75 -2
L 22.5 -24.35 39.2 -35.5 39.6 -39.75
Q 39.65 -39.95 39.7 -40.1
L 40 -42.6 Z"/>

<path fill="#000000" stroke="none" d="
M 38.4 -45.95
Q 39.4 -44.2 40 -42.6
L 40.35 -45.6
Q 40.4 -45.6 40.45 -45.6
L 40.65 -46.75
Q 38.9 -46.8 36.35 -46.85 29.35 -47.05 23.1 -42.05 16.7 -37 15.35 -36 14.6 -35.45 10.2 -31.4 6.55 -28.05 0.2 -22.15 -1.9 -20.1 -6.7 -17.05 -11.3951171875 -14.0458984375 -13.5 -11.85 -15.6146484375 -9.61875 -6.4 -3.95 1.6462890625 1.0294921875 4.3 1.7
L 4.95 1.8 4.95 1.8
Q 4.9998046875 1.81328125 5 1.8
L 5.2 1.85 5.1 1.85
Q 9.0876953125 3.9068359375 13.45 0.9 17.9470703125 -2.1037109375 18.4 -3.75 18.7 -5.05 19.65 -7.05 20.35 -8.6 21.3 -10.6 25.45 -16.1 28.6 -19.85 30.3 -21.9 31.65 -23.45 35.2 -27.35 38.05 -29.5
L 38.85 -33.1
Q 34.8 -27.55 25.5 -21.95
L 13.5 -2.55
Q 9.962890625 0.2951171875 3.75 -2 -1.7822265625 -4.0240234375 -9.45 -10.15
L 21.7 -36.15
Q 21.3923828125 -35.81171875 29.2 -40.45 37.1470703125 -45.128515625 36.85 -45.85 36.8537109375 -45.8779296875 36.8 -45.95 37.5365234375 -45.9931640625 38.4 -45.95 Z"/>
</g>

<path id="bil_hand_relaxed_0_Layer0_0_1_STROKES" stroke="#000000" stroke-width="1.25" stroke-linejoin="round" stroke-linecap="round" fill="none" d="
M 12.375 21.4
Q 12.2337890625 21.1837890625 11.675 21.2
M 24.375 21.075
Q 23.684765625 20.4353515625 22.9 19.575 20.0890625 16.4439453125 17.625 15.15 17.3619140625 16.0326171875 16.375 16.475 17.95078125 19.3955078125 17.95 21.5 17.956640625 22.70859375 17.5 23.825 17.0306640625 24.9283203125 17.025 26.125 17.016015625 26.713671875 17.1 27.2
M 17.625 15.15
Q 17.7212890625 14.831640625 17.725 14.45 17.725 11.8591796875 15.175 9.825 14.331640625 9.1439453125 13.35 8.65
M 16.375 16.475
Q 15.315625 16.9849609375 14.25 16.55 13.1734375 16.1326171875 10.25 14.725 7.323046875 13.2876953125 6.8 11.2"/>

<path id="bil_hand_relaxed_0_Layer0_0_2_STROKES" stroke="#000000" stroke-width="2.5" stroke-linejoin="round" stroke-linecap="round" fill="none" d="
M 11.675 21.2
Q 10.8486328125 21.6568359375 10.3 21.65 9.0904296875 21.637890625 3.8 19.075 3.0728515625 18.7080078125 1.975 16.95 0.91484375 15.352734375 0.65 13.975 1.0185546875 12.1322265625 1.575 9.775 6.1388671875 7.501171875 7.75 7.5 10.9689453125 7.4951171875 13.35 8.65 13.710546875 8.65 14.1 8.65 18.603515625 8.6595703125 26.075 13.075 30.70625 15.804296875 30.7 20.25 30.69765625 22.1544921875 30 22.575 29.5865234375 22.8158203125 27.55 22.825 26.2916015625 22.81953125 24.375 21.075 24.4470703125 21.80390625 24.45 22.675 24.4490234375 25.71875 22.825 27.65 21.4837890625 29.273828125 20.05 29.275 17.5802734375 29.280859375 17.1 27.2 16.12421875 27.755859375 15.5 28.1 13.9642578125 28.8333984375 12.475 28.825 10.0568359375 28.8341796875 10.05 26.525 10.053125 23.6376953125 12.375 21.4"/>

<path id="spoon_0_Layer0_0_1_STROKES" stroke="#000000" stroke-width="0.75" stroke-linejoin="round" stroke-linecap="round" fill="none" d="
M 8 5.25
Q 7.8 3.25 6.8 1.75 5.65 0 4 0 3.85 0 3.7 0.05
M 3.7 34.15
Q 4.35 34.2 5 33.45
L 4.7 11.95
Q 5.9 11.6 6.8 10.25 8 8.5 8 6 8 5.6 8 5.25
M 0.15 4.45
Q 0 5.2 0 6 0 8.5 1.15 10.25 2.05 11.55 3.25 11.9
L 2.55 33.45
Q 3.1 34.1 3.7 34.15
M 0.15 4.45
Q 0.4 2.95 1.15 1.75 2.25 0.15 3.7 0.05"/>

<path id="Duplicate_Items_Folder_body_suit_copy_3_0_Layer2_0_1_STROKES" stroke="#000000" stroke-width="2" stroke-linejoin="round" stroke-linecap="round" fill="none" d="
M 10 -25.8
L 15.7 -25.35 15.15 -14.75 20.35 -14.35
Q 18.95 0.95 10.75 14.7
L 10.6 15.1
Q 17.2 25.9 20.05 36.25 24.5 52.7 23.1 66 12.15 68.3 5.5 67.1 -17.85 68 -39.1 59.45 -42.75 40.45 -29.8 19.1 -27.7 15.55 -25.1 12.1
L -25.1 12
Q -31.1 -3 -30.7 -18.3
L -25.45 -17.85 -24.85 -29.35 -18.55 -28.85 -19.2 -17.35
Q -6.55 -10.45 6.75 -15.35
L 8.9 -15.2 9.35 -23.7 10 -25.8 Z"/>

<path id="Duplicate_Items_Folder_head_copy_5_0_Layer3_0_1_STROKES" stroke="#000000" stroke-width="3.5" stroke-linejoin="round" stroke-linecap="round" fill="none" d="
M -43.8 42.35
Q -45.25 41.45 -46.6 40.2 -51.4 35.95 -55.1 27.6 -62.25 11.4 -61.2 -10.75 -59.95 -32.9 -51.3 -47.65 -42.6 -62.45 -31.15 -61.5 -19.8 -60.5 -12.6 -44.25 -9.7 -37.7 -8.05 -30.25 -3.6 -30.4 1.3 -30 16.85 -28.55 28.8 -21.6 34.35 -18.4 39.05 -14.05 54.25 -0.15 53.4 17.45 53 25.7 49.1 32.45 47.3 35.85 44.5 38.95 40.9 42.75 36.05 46 23.95 54.15 8.55 55.15 6.85 59.35 1.25 62.3 -6.3 66.15 -16.65 65.2 -18.2 65.1 -19.75 64.9 -28.15 63.6 -34.25 59.15 -41.3 53.95 -40.95 47.5 -40.9 45.65 -40.25 44.05 -42.05 43.45 -43.8 42.35 Z"/>

<path id="Duplicate_Items_Folder_head_copy_5_0_Layer1_0_1_STROKES" stroke="#000000" stroke-width="3.5" stroke-linejoin="round" stroke-linecap="round" fill="none" d="
M -29.95 -28.45
Q -30.1 -28.55 -30.25 -28.55 -30.25 -28.4 -30.35 -28.3 -31.3 -25.8 -35.8 -24.9 -36.05 -24.8 -36.4 -24.7 -34.45 -21.2 -35.25 -17.5 -36.3 -12.35 -42.25 -9.85 -45.45 -8.55 -49.15 -8.45 -44.65 -3.6 -45.65 1.3 -46.75 6.2 -52.75 8.4 -53.6 8.65 -54.5 9 -52.85 12.2 -53.65 15.8 -53.8 16.75 -54.15 17.55 -50.35 21.6 -51.2 25.7 -52.1 29.65 -57.1 31.55 -62.2 33.4 -68.3 31.9 -74.45 30.4 -78.4 26.3 -82.15 22.4 -81.3 18.25 -80.5 14.55 -76.1 12.7 -76.5 12.55 -76.9 12.45 -81.2 11.45 -83.45 7.5 -85.7 3.55 -84.7 -0.95 -84.7 -1 -84.7 -1.2 -85.95 -2.65 -86.95 -4.6 -90.1 -11.1 -88.55 -18.75 -88.4 -19.5 -88.2 -20.25 -91.9 -23.25 -94.5 -27.55 -101.1 -37.85 -98.65 -49.6 -97.75 -53.75 -95.95 -57.3 -98.65 -63.4 -97.2 -70.45 -95.4 -78.55 -88.95 -83.05 -82.5 -87.5 -75.1 -85.75 -73.75 -85.45 -72.35 -84.8 -73.05 -86.65 -72.7 -88.4 -71.95 -92.2 -66.7 -93.9 -61.5 -95.65 -55.25 -94.1 -55.25 -95.45 -54.95 -96.85 -53.7 -103.15 -45.8 -105.95 -37.95 -108.7 -28.3 -106.4 -23 -105.05 -18.95 -102.75 -18.45 -103 -17.85 -103.3 -11.4 -105.9 -3.8 -104.65 -1.5 -112.05 7 -115.9 16.35 -120.2 27.85 -117.4 37.4 -115 43.65 -109 49.55 -110.7 56.2 -109.05 66.2 -106.55 71.75 -98.5 72.3 -97.7 72.75 -96.95 75.2 -92.95 75.75 -88.8 78.2 -88.75 80.8 -88.05 86.3 -86.65 89.85 -83.55 93.7 -80.8 96.6 -76.8 102.65 -68 100.6 -58.35 100.15 -55.95 99.2 -53.75 101 -48.05 99.7 -41.8 98.45 -35.6 94.6 -31.45 95.05 -31 95.4 -30.55 102.35 -22.45 100.45 -13.65 99.55 -9.2 96.6 -5.95 96.9 -3.95 96.45 -1.9 95 4.6 87.65 7.7 87.55 7.75 87.45 7.8 93.65 14.9 92.1 22.15 90.55 29.85 81.45 33.3 76.05 35.35 69.95 35.2 68.5 36.95 66.4 38.1 61.15 41.3 55 39.8 48.9 38.3 45.45 33.1 43.2 29.7 42.95 26.15 35.95 24.25 31.45 20.05 26.75 15.65 27.7 11.4 28.2 9.05 30.3 7.4 27.6 5.8 25.2 3.8 17.15 1.2 12.3 -5.35 8.45 -10.5 8.05 -16 -1.05 -18.55 -6.6 -25.35 -7.7 -26.8 -8.7 -28.25 -8.75 -28.25 -8.85 -28.25 -17.7 -25.5 -29 -28.3 -29.55 -28.4 -29.95 -28.45 Z
M 74.5 -88.8
Q 75.15 -88.85 75.75 -88.8"/>

<path id="bil_hand_back_relaxed_0_Layer0_0_1_STROKES" stroke="#000000" stroke-width="2.5" stroke-linejoin="round" stroke-linecap="round" fill="none" d="
M 0.4 12.2
Q 1.804296875 7.5033203125 4.5 3.9 7.187109375 0.28984375 11.55 1.15 15.912890625 2.0099609375 17.2 5.15 18.495703125 8.296484375 18.6 9.5 19 14.5 16.9 19.1 14.85 23.6 9.95 24.4 6.75 24.95 5.05 22.15 4.55 22.2 4.05 22.25 1.2 22.05 0.2 19.45
M -0.25 19.25
L -2.3 18.55
M 0.05 13.75
L 0.4 12.2
M 0.2 19.45
L -0.25 19.25
M -2.3 18.55
Q -2.45 18 -2.55 17.45 -3.2 13.65 0.4 12.2"/>

<path id="bil_hand_back_relaxed_0_Layer0_0_2_STROKES" stroke="#000000" stroke-width="1.25" stroke-linejoin="round" stroke-linecap="round" fill="none" d="
M 0.2 19.45
L -0.2 19.65 -0.25 19.25
M 5.1 17.05
Q 3 18.85 0.2 19.45
M 5.05 22.15
Q 9.4240234375 20.3857421875 10.85 18.9"/>
</defs>

<g transform="matrix( 5.9354095458984375, 0, 0, 5.9354095458984375, 53.5,532.8) ">
<g transform="matrix( -0.32806396484375, 0.18450927734375, 0.18450927734375, 0.32806396484375, 23.5,-24.45) ">
<g transform="matrix( 0.21612548828125, -0.9750213623046875, 0.9750213623046875, 0.21612548828125, -3.1,-3.45) ">
<g transform="matrix( 1, 0, 0, 1, 0,0) ">
<use xlink:href="#bil_hand_relaxed_0_Layer0_0_FILL"/>

<use xlink:href="#bil_hand_relaxed_0_Layer0_0_1_STROKES"/>

<use xlink:href="#bil_hand_relaxed_0_Layer0_0_2_STROKES"/>
</g>
</g>

<g transform="matrix( 1, 0, 0, 1, 0,0) ">
<use xlink:href="#Duplicate_Items_Folder_arm_suit_open_back_hand_short_copy_0_Layer0_0_FILL"/>
</g>
</g>

<g transform="matrix( 0.970367431640625, -0.238433837890625, 0.238433837890625, 0.970367431640625, 5.1,-47.4) ">
<g transform="matrix( 1, 0, 0, 1, 0,0) ">
<use xlink:href="#spoon_0_Layer0_0_FILL"/>

<use xlink:href="#spoon_0_Layer0_0_1_STROKES"/>
</g>
</g>

<g transform="matrix( -0.51287841796875, 0.0362548828125, 0.0362548828125, 0.51287841796875, 42.8,-1.95) ">
<g transform="matrix( 1, 0, 0, 1, 0,0) ">
<use xlink:href="#left_shoe_0_Layer1_0_FILL"/>
</g>

<g transform="matrix( 1, 0, 0, 1, 0,0) ">
<use xlink:href="#left_shoe_0_Layer0_0_FILL"/>
</g>
</g>

<g transform="matrix( 0.3398284912109375, 0.001007080078125, -0.0051727294921875, 0.3392333984375, 40.2,-28.05) ">
<g transform="matrix( 1, 0, 0, 1, 0,0) ">
<use xlink:href="#Duplicate_Items_Folder_body_suit_copy_3_0_Layer3_0_FILL"/>
</g>

<g transform="matrix( 1, 0, 0, 1, 0,0) ">
<use xlink:href="#Duplicate_Items_Folder_body_suit_copy_3_0_Layer2_0_FILL"/>

<use xlink:href="#Duplicate_Items_Folder_body_suit_copy_3_0_Layer2_0_1_STROKES"/>
</g>

<g transform="matrix( 1, 0, 0, 1, 0,0) ">
<use xlink:href="#Duplicate_Items_Folder_body_suit_copy_3_0_Layer1_0_FILL"/>
</g>
</g>

<g transform="matrix( -0.39593505859375, 0.02581787109375, 0.02581787109375, 0.39593505859375, 51.5,-10.65) ">
<g transform="matrix( 1.7541961669921875, 0.0084686279296875, -0.0084686279296875, 1.7541961669921875, -3.35,6.9) ">
<g transform="matrix( 1, 0, 0, 1, 0,0) ">
<use xlink:href="#Duplicate_Items_Folder_right_shoe_0_Layer1_0_FILL"/>
</g>

<g transform="matrix( 1, 0, 0, 1, 0,0) ">
<use xlink:href="#Duplicate_Items_Folder_right_shoe_0_Layer0_0_FILL"/>
</g>
</g>
</g>

<g transform="matrix( 0.27691650390625, -0.0580902099609375, 0.0471649169921875, 0.278778076171875, 40.7,-52.65) ">
<g transform="matrix( 1, 0, 0, 1, 0,0) ">
<use xlink:href="#Duplicate_Items_Folder_head_copy_5_0_Layer3_0_FILL"/>

<use xlink:href="#Duplicate_Items_Folder_head_copy_5_0_Layer3_0_1_STROKES"/>
</g>

<g transform="matrix( 1, 0, 0, 1, 0,0) ">
<use xlink:href="#Duplicate_Items_Folder_head_copy_5_0_Layer2_0_FILL"/>
</g>

<g transform="matrix( 1, 0, 0, 1, 0,0) ">
<use xlink:href="#Duplicate_Items_Folder_head_copy_5_0_Layer1_0_FILL"/>

<use xlink:href="#Duplicate_Items_Folder_head_copy_5_0_Layer1_0_1_STROKES"/>
</g>

<g transform="matrix( 1, 0, 0, 1, 0,0) ">
<use xlink:href="#Duplicate_Items_Folder_head_copy_5_0_Layer0_0_FILL"/>
</g>
</g>

<g transform="matrix( -0.59161376953125, -0.0443878173828125, -0.0443878173828125, 0.59161376953125, 49.05,-51.05) ">
<g transform="matrix( 1, 0, 0, 1, 0,0) ">
<use xlink:href="#Duplicate_Items_Folder_eye_copy_3_7_Layer1_0_FILL"/>
</g>
</g>

<g transform="matrix( 0.4802093505859375, -0.067962646484375, 0.067962646484375, 0.4802093505859375, 27.25,-49.7) ">
<g transform="matrix( 1, 0, 0, 1, 0,0) ">
<use xlink:href="#eye_copy_7_Layer1_0_FILL"/>
</g>
</g>

<g transform="matrix( -0.31689453125, -0.15716552734375, -0.15716552734375, 0.31689453125, 54.55,-18.75) ">
<g transform="matrix( 1.2773284912109375, 0.225738525390625, -0.225738525390625, 1.2773284912109375, -14.6,-12.6) ">
<g transform="matrix( 1, 0, 0, 1, 0,0) ">
<use xlink:href="#bil_hand_back_relaxed_0_Layer0_0_FILL"/>

<use xlink:href="#bil_hand_back_relaxed_0_Layer0_0_1_STROKES"/>

<use xlink:href="#bil_hand_back_relaxed_0_Layer0_0_2_STROKES"/>
</g>
</g>

<g transform="matrix( 1, 0, 0, 1, 0,0) ">
<use xlink:href="#arm__0_Layer0_0_FILL"/>
</g>
</g>
</g>
</svg>
