
<svg xmlns="http://www.w3.org/2000/svg" version="1.1" xmlns:xlink="http://www.w3.org/1999/xlink" preserveAspectRatio="none" x="0px" y="0px" width="560px" height="544px" viewBox="0 0 560 544">
<defs>
<filter id="Filter_1" x="-20%" y="-20%" width="140%" height="140%" color-interpolation-filters="sRGB">
<feColorMatrix in="SourceGraphic" type="matrix" values="1 0 0 0 0 0 1 0 0 0 0 0 1 0 0 0 0 0 0.34 0" result="result1"/>
</filter>

<g id="Duplicate_Items_Folder_shadow_copy_4_0_Layer0_0_FILL">
<path fill="#000000" stroke="none" d="
M 0 18.4
L 35.35 15.15 35.35 0 0 3.25 0 18.4 Z"/>
</g>

<g id="house_feet_0_Layer12_0_FILL">
<path fill="#826F53" stroke="none" d="
M -12.9 -27.1
Q -12.75 -26.6 -12.6 -26.25
L -12.65 -27 -12.9 -27.1
M 4.1 0.65
Q 4.8 4.55 5.2 8.55
L 12.3 13.1 12.4 13.1
Q 12.3 8.95 11.7 4.8
L 4.1 0.65
M 1.9 -18.4
Q 1.5 -18.45 1.1 -18.55 -1 -22.55 -5.8 -26.3
L -12.65 -27 -12.6 -26.25 -12.2 -23.1
Q -4.6 -17.85 -1 -16.2 0.55 -12.35 1.8 -8.35 3.25 -3.9 4.1 0.65
L 11.7 4.8
Q 10.85 -0.15 9.2 -5 7 -11.1 3.55 -17.05
L 1.9 -18.4 Z"/>

<path fill="#BDB898" stroke="none" d="
M 4.1 0.65
Q 3.25 -3.9 1.8 -8.35 0.55 -12.35 -1 -16.2 -4.6 -17.85 -12.2 -23.1
L -11.75 -19.1
Q -11.5 -19.1 -11.25 -19.1 -11.5 -19.1 -11.75 -19.1
L -10.25 -7.2 4.1 0.65
M 5.2 8.55
Q 4.8 4.55 4.1 0.65
L -10.25 -7.2 -9.45 -0.7 5.2 8.55
M 16.1 7.25
L 11.7 4.8
Q 12.3 8.95 12.4 13.1
L 12.3 13.1 16.45 15.75 16.1 7.25
M 9.2 -5
L 15.7 -1.95 15.05 -12.65 3.55 -17.05
Q 7 -11.1 9.2 -5
M 15.7 -1.95
L 9.2 -5
Q 10.85 -0.15 11.7 4.8
L 16.1 7.25 15.7 -1.95
M 14.6 -22
L 14.6 -22.25 -13.55 -33.9 -12.65 -27 -5.8 -26.3
Q -1 -22.55 1.1 -18.55 1.5 -18.45 1.9 -18.4
L 3.55 -17.05 15.05 -12.65 14.6 -22
M 14.05 -32.25
L 14.05 -32.1 14.6 -31.85 14.05 -32.1 14.6 -22.25 14.9 -22.1 24.3 -23.5 14.9 -22.1 14.6 -22 15.05 -12.65 15.15 -12.65 67.15 -21.6 67.25 -29.9 33.1 -24.8 67.25 -29.9 67.4 -39.4 14.05 -32.25
M 13.5 -43
L 13.4 -43.4 9.9 -52.7 -14.95 -57.95 -16.2 -54.85 -14.55 -41.6 14.05 -32.1 14.05 -32.25 13.5 -43
M -14.7 -50.35
L 3.6 -45.5 -14.7 -50.35
M 6.05 -62.75
L 3.25 -70.95 -9.05 -73 -11.9 -65.8 6.05 -62.75 Z"/>

<path fill="#A99978" stroke="none" d="
M 14.6 -22.25
L 14.05 -32.1 -14.55 -41.6 -13.55 -33.9 14.6 -22.25
M 15.15 -12.65
L 15.05 -12.65 15.7 -1.95 16.1 7.25 16.45 15.75 16.65 15.85 66.75 5.6 67.15 -21.6 15.15 -12.65
M 16.7 -2.2
L 50.85 -7.25 16.7 -2.2
M 16.65 7.6
L 66.4 -2.25 16.65 7.6
M 67.55 -52
L 48.6 -91.55 33.1 -90.25 24.3 -89.55 -3.6 -87.2 -9.05 -73 3.25 -70.95 -3.1 -86.8 3.25 -70.95 6.05 -62.75 6.75 -62.75 6.05 -62.75 -11.9 -65.8 -14.95 -57.95 9.9 -52.7 11.05 -52.5 9.9 -52.7 13.4 -43.4 13.5 -43 14.05 -32.25 67.4 -39.4 67.55 -52 Z"/>
</g>

<g id="house_feet_0_Layer11_0_FILL">
<path fill="#342923" stroke="none" d="
M 74.2 -54.05
Q 61.15 -74.55 54.45 -95.1
L -8.3 -90.3
Q -11.5 -72.2 -21.3 -54.05
L -17.35 -50.85
Q -6.95 -63.9 -5.95 -83.25 -1.3 -60.95 11.05 -41.75
L 74.6 -48.5 74.2 -54.05 Z"/>
</g>

<g id="house_feet_0_Layer10_0_FILL">
<path fill="#E8E6DB" stroke="none" d="
M 58.8 -5
L 58.8 -40.7 28.4 -35.8 28.4 0.55 58.8 -5
M 31.5 -3.45
L 31.5 -15.2 41.3 -17 41.3 -5.15 31.5 -3.45
M 31.6 -19.25
L 31.6 -31 41.4 -32.8 41.4 -21 31.6 -19.25
M 45.75 -34
L 55.55 -35.8 55.55 -23.95 45.75 -22.25 45.75 -34
M 45.7 -6.4
L 45.7 -18.15 55.5 -19.95 55.5 -8.15 45.7 -6.4 Z"/>

<path fill="#CC0000" stroke="none" d="
M 45.7 -18.15
L 45.7 -6.4 55.5 -8.15 55.5 -19.95 45.7 -18.15
M 55.55 -35.8
L 45.75 -34 45.75 -22.25 55.55 -23.95 55.55 -35.8
M 31.6 -31
L 31.6 -19.25 41.4 -21 41.4 -32.8 31.6 -31
M 31.5 -15.2
L 31.5 -3.45 41.3 -5.15 41.3 -17 31.5 -15.2 Z"/>
</g>

<g id="house_feet_0_Layer9_0_FILL">
<path fill="#D9D9D9" stroke="none" d="
M -16.5 -23.4
Q -21.2 -23.35 -23.7 -23.25
L -22.45 6.45 -14.25 4.95 -15.35 -23.4
Q -15.95 -23.4 -16.5 -23.4 Z"/>

<path fill="#F2F2F2" stroke="none" d="
M -33.6 -24.1
Q -34.75 -24.5 -37.2 -26.55
L -47.3 -0.3 -44.85 6.15 -35.25 6.3 -31.4 -23.65
Q -32.65 -23.8 -33.6 -24.1
M -42.5 -31.7
L -42.6 -31.8
Q -44.8 -34.05 -47.45 -36.9
L -54.5 -22.65 -53.25 -15.75 -52.25 -13.05 -42.5 -31.7
M -56.55 -33.5
L -51.6 -41.45
Q -55.9 -46.15 -59.85 -50.65
L -56.55 -33.5 Z"/>

<path fill="#000000" stroke="none" d="
M -14.25 -23.4
Q -14.8 -23.4 -15.35 -23.4
L -14.25 4.95 -1.45 2.6
Q -1.4 -10.95 -8.5 -23.4
L -14.25 -23.4
M -23.7 -23.25
Q -28.4 -23.15 -31.4 -23.65
L -35.25 6.3 -22.45 6.45 -23.7 -23.25
M -52.25 -13.05
L -47.3 -0.3 -37.2 -26.55
Q -39.4 -28.5 -42.5 -31.7
L -52.25 -13.05
M -47.45 -36.9
Q -47.95 -37.45 -48.5 -38 -50.1 -39.7 -51.6 -41.45
L -56.55 -33.5 -54.5 -22.65 -47.45 -36.9 Z"/>
</g>

<g id="house_feet_0_Layer8_0_FILL">
<path fill="#000000" stroke="none" d="
M -27 -21.05
Q -29.2 -23 -32.35 -26.25 -35.4 -7.25 -39.45 -4.3
L -30.15 11.4
Q -24.95 -3.6 -27 -21.05
M -13.55 -17.75
Q -18.25 -17.7 -21.2 -18.15 -17.05 -3.2 -17.75 11.75
L -9 11.95
Q -9.45 -2.95 -13.55 -17.75
M -1.25 -17.9
L -4.05 -17.9
Q -4.75 -17.9 -5.45 -17.9 1.2 -3.9 1.65 11.55
L 8 11.4
Q 7.8 -3.65 -1.25 -17.9
M -41.45 -35.95
Q -42.7 -30.55 -46.35 -28.05
L -44.35 -17.15
Q -40.25 -20.25 -37.25 -31.4 -37.75 -31.95 -38.3 -32.5 -39.95 -34.2 -41.45 -35.95 Z"/>

<path fill="#F2F2F2" stroke="none" d="
M -5.45 -17.9
Q -5.95 -17.9 -6.35 -17.9 -11.05 -17.85 -13.55 -17.75 -9.45 -2.95 -9 11.95
L 1.65 11.55
Q 1.2 -3.9 -5.45 -17.9
M -21.2 -18.15
Q -22.45 -18.3 -23.4 -18.65 -24.6 -19 -27 -21.05 -24.95 -3.6 -30.15 11.4
L -34.7 11.6 -17.75 11.75
Q -17.05 -3.2 -21.2 -18.15
M -44.35 -17.15
L -43.05 -10.25 -39.45 -4.3
Q -35.4 -7.25 -32.35 -26.25
L -32.4 -26.3
Q -34.6 -28.6 -37.25 -31.4 -40.25 -20.25 -44.35 -17.15
M -49.65 -45.2
L -46.35 -28.05
Q -42.7 -30.55 -41.45 -35.95 -45.75 -40.65 -49.65 -45.2 Z"/>
</g>

<g id="house_feet_0_Layer7_0_FILL">
<path fill="#C10202" stroke="none" d="
M -60.85 -40.8
L -58.9 -32.6 -55.05 -30.6
Q -55.3 -41.8 -59.55 -51.55
L -62.8 -49.1 -60.85 -40.8 Z"/>

<path fill="#DB0202" stroke="none" d="
M -82 -70.25
Q -82.1 -70.2 -82.15 -70.1 -89.3 -47.6 -73.4 -25.15 -66.1 -14 -61.95 -0.55
L -58.9 17.8
Q -57.95 17.9 -52.8 15.7 -44.7 12.4 -43.85 9.1 -43.15 6.45 -50.75 -11.6 -58.6 -30.3 -58.9 -32.6
L -60.85 -40.8 -65.1 -57.5
Q -67.85 -66.35 -70.95 -68.2 -74.1 -70.1 -78.35 -70.4 -80.45 -70.5 -82 -70.25 Z"/>

<path fill="#8F0101" stroke="none" d="
M -82.15 -70.1
Q -85.05 -70.1 -87.25 -62.8 -89.55 -55.7 -89.15 -48.25 -88.85 -40.7 -83.35 -29.85 -77.95 -19 -76.55 -16.65 -75.1 -14.5 -73.65 -10.1 -72.15 -5.7 -72.7 -3.9 -73.65 -0.85 -76.35 0.25
L -83.35 3.3 -82.15 12.25 -73.8 13.9
Q -72.55 15.05 -70.65 16.3 -66.9 18.65 -64.05 18.65 -62.95 18.65 -58.9 17.8
L -61.95 -0.55
Q -66.1 -14 -73.4 -25.15 -89.3 -47.6 -82.15 -70.1 Z"/>
</g>

<g id="house_feet_0_Layer6_0_FILL">
<path fill="#C10202" stroke="none" d="
M -44.95 -30.2
L -40.9 -28.1
Q -40.8 -40 -44.95 -50.35
L -48.55 -47.75 -44.95 -30.2 Z"/>

<path fill="#F40202" stroke="none" d="
M -68.2 -70.35
Q -68.3 -70.25 -68.4 -70.2 -76.75 -46.2 -60.6 -22.25 -53.2 -10.4 -49.25 3.95
L -46.3 24.15
Q -44.15 24.7 -35.4 20 -26.6 15.2 -28.05 13.95 -29.45 12.65 -37.65 -6.5 -45.95 -25.6 -44.95 -30.2
L -48.55 -47.75 -50.6 -56.7
Q -53.35 -66.1 -56.55 -68.15 -59.75 -70.2 -64.3 -70.5 -66.6 -70.55 -68.2 -70.35 Z"/>

<path fill="#BA0101" stroke="none" d="
M -68.4 -70.2
Q -71.5 -70.1 -74.1 -62.45 -76.75 -54.85 -76.6 -46.85 -76.45 -38.85 -71.05 -27.25 -65.65 -15.75 -64.25 -13.3 -62.8 -10.95 -61.4 -6.25 -60 -1.55 -60.6 0.35 -61.7 3.6 -64.6 4.7
L -72.2 8 -71.2 17.5 -62.4 19.3
Q -61.1 20.55 -59.15 21.9 -55.2 24.4 -52.25 24.4 -51.05 24.4 -46.3 24.15
L -49.25 3.95
Q -53.2 -10.4 -60.6 -22.25 -76.75 -46.2 -68.4 -70.2 Z"/>
</g>

<g id="house_feet_0_Layer5_0_FILL">
<path fill="#42322D" stroke="none" d="
M 25.4 -54.85
Q 26.1 -53.4 27.35 -52.15 29.65 -50.05 32.4 -50.35 35.05 -50.65 36.55 -53.2 38 -55.75 37.55 -59.05 37.55 -59.2 37.45 -59.35
L 29.5 -58.5
Q 29.3 -58.05 29 -57.55 27.7 -55.3 25.4 -54.85
M 19.85 -56.45
Q 19.45 -56.95 19.15 -57.35
L 11.4 -56.4
Q 11.45 -56.25 11.45 -56.1 11.95 -52.8 14.3 -50.65 16.55 -48.55 19.2 -48.85 21.9 -49.2 23.45 -51.7 24.3 -53.1 24.55 -54.65 21.95 -54.6 19.85 -56.45
M 17 -62.25
Q 17.1 -62.1 17.1 -61.95 17.5 -59.3 19.15 -57.35 19.45 -56.95 19.85 -56.45 21.95 -54.6 24.55 -54.65 24.7 -54.65 24.85 -54.65 25.15 -54.65 25.4 -54.85 27.7 -55.3 29 -57.55 29.3 -58.05 29.5 -58.5 30.5 -60.7 30.1 -63.35 30.1 -63.5 30.05 -63.7
L 17 -62.25
M 7.15 -80.75
Q 6.75 -81.15 6.5 -81.55
L -0.55 -80.7
Q -0.45 -80.5 -0.45 -80.35 0 -77.4 2.15 -75.5 4.15 -73.65 6.6 -73.85 8.95 -74.2 10.45 -76.45 11.15 -77.7 11.4 -79.1 9.05 -79.05 7.15 -80.75
M 16.4 -86.95
Q 16.4 -87.1 16.3 -87.25
L 4.55 -86
Q 4.65 -85.85 4.65 -85.7 5.05 -83.25 6.5 -81.55 6.75 -81.15 7.15 -80.75 9.05 -79.05 11.4 -79.1 11.55 -79.1 11.7 -79.1 11.95 -79.1 12.15 -79.25 14.2 -79.65 15.45 -81.8 15.7 -82.15 15.85 -82.55 16.8 -84.6 16.4 -86.95
M 23.15 -83.1
Q 23.15 -83.25 23.05 -83.35
L 15.85 -82.55
Q 15.7 -82.15 15.45 -81.8 14.2 -79.65 12.15 -79.25 12.8 -78 13.95 -76.85 16 -74.95 18.5 -75.2 20.85 -75.5 22.25 -77.8 23.6 -80.15 23.15 -83.1
M 43.9 -69.65
Q 44.75 -71.05 45 -72.6 42.4 -72.55 40.3 -74.4 39.9 -74.9 39.6 -75.3
L 31.85 -74.35
Q 31.9 -74.2 31.9 -74 32.4 -70.75 34.75 -68.6 37 -66.5 39.65 -66.8 42.35 -67.15 43.9 -69.65
M 49.95 -76.45
Q 49.75 -76 49.45 -75.5 48.15 -73.25 45.85 -72.75 46.55 -71.35 47.8 -70.1 50.1 -68 52.85 -68.3 55.5 -68.6 57 -71.1 58.45 -73.7 58 -77 58 -77.15 57.9 -77.3
L 49.95 -76.45
M 50.55 -81.3
Q 50.55 -81.45 50.5 -81.6
L 37.45 -80.2
Q 37.55 -80.05 37.55 -79.9 37.95 -77.25 39.6 -75.3 39.9 -74.9 40.3 -74.4 42.4 -72.55 45 -72.6 45.15 -72.6 45.3 -72.6 45.6 -72.6 45.85 -72.75 48.15 -73.25 49.45 -75.5 49.75 -76 49.95 -76.45 50.95 -78.65 50.55 -81.3 Z"/>
</g>

<g id="house_feet_0_Layer4_0_FILL">
<path fill="#A90101" stroke="none" d="
M 46.4 -105.15
L 46.4 -105.6 44.2 -105.45 44.35 -94.3 46.7 -94.45 46.4 -105.15
M 47.6 -105.15
L 46.4 -105.15 46.7 -94.45 47.25 -84.3 51.5 -78.25 57.9 -80.45 57.05 -105.15 47.6 -105.15 Z"/>

<path fill="#760101" stroke="none" d="
M 47.6 -105.15
L 47.5 -111.3 42.5 -109.2 44.2 -105.45 46.4 -105.6 46.4 -105.15 47.6 -105.15 Z"/>

<path fill="#990000" stroke="none" d="
M 47.65 -111.3
L 47.5 -111.3 47.6 -105.15 57.05 -105.15 60.5 -105.6 60.5 -110.3 47.65 -111.3 Z"/>
</g>

<g id="Duplicate_Items_Folder_star_copy_0_Layer0_0_FILL">
<path fill="#FFFFFF" stroke="none" d="
M 1.05 -1.25
L 0.55 -9.65 -0.4 -1.15 -4.9 -4.75 -1.2 -0.65 -9.4 0.25 -1 0.75 -5.3 5.65 -0.4 1.55 0.2 10.65 1 1.55 4.9 5.15 1.55 0.75 9.5 0.4 1.85 -0.65 5.45 -4.75 1.05 -1.25 Z"/>
</g>

<path id="house_feet_0_Layer12_0_1_STROKES" stroke="#000000" stroke-width="1" stroke-linejoin="round" stroke-linecap="round" fill="none" d="
M 33.1 -90.25
L 48.6 -91.55 67.55 -52 67.4 -39.4 67.25 -29.9 67.15 -21.6 66.75 5.6 16.65 15.85 16.45 15.75 12.3 13.1 5.2 8.55 -9.45 -0.7 -10.25 -7.2 -11.75 -19.1 -12.2 -23.1 -12.6 -26.25
M -12.65 -27
L -13.55 -33.9 -14.55 -41.6 -16.2 -54.85 -14.95 -57.95 -11.9 -65.8 -9.05 -73 -3.6 -87.2 24.3 -89.55
M 9.9 -52.7
L 11.05 -52.5
M 6.75 -62.75
L 6.05 -62.75 3.25 -70.95
M -11.9 -65.8
L 6.05 -62.75
M 9.9 -52.7
L 13.4 -43.4 13.5 -43 14.05 -32.25 67.4 -39.4
M 14.05 -32.25
L 14.05 -32.1 14.6 -31.85
M 14.6 -22
L 14.9 -22.1 14.6 -22.25 14.6 -22 15.05 -12.65 15.15 -12.65 67.15 -21.6
M 3.55 -17.05
L 15.05 -12.65 15.7 -1.95 16.1 7.25 16.45 15.75
M 15.7 -1.95
L 9.2 -5
M 16.1 7.25
L 11.7 4.8
M 14.05 -32.1
L 14.6 -22.25 -13.55 -33.9
M 14.9 -22.1
L 24.3 -23.5
M 33.1 -24.8
L 67.25 -29.9
M 16.7 -2.2
L 50.85 -7.25
M 4.1 0.65
L -10.25 -7.2
M 12.4 13.1
L 12.3 13.1
M 11.7 4.8
L 4.1 0.65
M 16.65 7.6
L 66.4 -2.25
M -12.6 -26.25
L -12.65 -27
M -11.25 -19.1
Q -11.5 -19.1 -11.75 -19.1
M -9.05 -73
L 3.25 -70.95 -3.1 -86.8
M -14.7 -50.35
L 3.6 -45.5
M -14.55 -41.6
L 14.05 -32.1
M -14.95 -57.95
L 9.9 -52.7"/>

<path id="house_feet_0_Layer11_0_1_STROKES" stroke="#000000" stroke-width="1" stroke-linejoin="round" stroke-linecap="round" fill="none" d="
M 74.2 -54.05
L 74.6 -48.5 11.05 -41.75
Q -1.3 -60.95 -5.95 -83.25 -6.95 -63.9 -17.35 -50.85
L -21.3 -54.05
Q -11.5 -72.2 -8.3 -90.3
L 54.45 -95.1
Q 61.15 -74.55 74.2 -54.05 Z"/>

<path id="house_feet_0_Layer10_0_1_STROKES" stroke="#000000" stroke-width="1" stroke-linejoin="round" stroke-linecap="round" fill="none" d="
M 31.5 -15.2
L 41.3 -17 41.3 -5.15 31.5 -3.45 31.5 -15.2 Z
M 31.6 -31
L 41.4 -32.8 41.4 -21 31.6 -19.25 31.6 -31 Z
M 55.55 -35.8
L 55.55 -23.95 45.75 -22.25 45.75 -34 55.55 -35.8 Z
M 45.7 -18.15
L 55.5 -19.95 55.5 -8.15 45.7 -6.4 45.7 -18.15 Z
M 58.8 -5
L 28.4 0.55 28.4 -35.8 58.8 -40.7 58.8 -5 Z"/>

<path id="house_feet_0_Layer9_0_1_STROKES" stroke="#000000" stroke-width="1" stroke-linejoin="round" stroke-linecap="round" fill="none" d="
M -47.45 -36.9
Q -47.95 -37.45 -48.5 -38 -50.1 -39.7 -51.6 -41.45
L -56.55 -33.5 -54.5 -22.65 -47.45 -36.9
Q -44.8 -34.05 -42.6 -31.8
L -42.5 -31.7
Q -39.4 -28.5 -37.2 -26.55 -34.75 -24.5 -33.6 -24.1 -32.65 -23.8 -31.4 -23.65 -28.4 -23.15 -23.7 -23.25 -21.2 -23.35 -16.5 -23.4 -15.95 -23.4 -15.35 -23.4 -14.8 -23.4 -14.25 -23.4
L -8.5 -23.4
Q -1.4 -10.95 -1.45 2.6
L -14.25 4.95 -22.45 6.45 -35.25 6.3 -44.85 6.15 -47.3 -0.3 -52.25 -13.05 -53.25 -15.75 -54.5 -22.65
M -52.25 -13.05
L -42.5 -31.7
M -51.6 -41.45
Q -55.9 -46.15 -59.85 -50.65
L -56.55 -33.5
M -47.3 -0.3
L -37.2 -26.55
M -31.4 -23.65
L -35.25 6.3
M -14.25 4.95
L -15.35 -23.4
M -23.7 -23.25
L -22.45 6.45"/>

<path id="house_feet_0_Layer8_0_1_STROKES" stroke="#000000" stroke-width="1" stroke-linejoin="round" stroke-linecap="round" fill="none" d="
M -41.45 -35.95
Q -45.75 -40.65 -49.65 -45.2
L -46.35 -28.05
Q -42.7 -30.55 -41.45 -35.95 -39.95 -34.2 -38.3 -32.5 -37.75 -31.95 -37.25 -31.4 -34.6 -28.6 -32.4 -26.3
L -32.35 -26.25
Q -29.2 -23 -27 -21.05 -24.6 -19 -23.4 -18.65 -22.45 -18.3 -21.2 -18.15 -18.25 -17.7 -13.55 -17.75 -11.05 -17.85 -6.35 -17.9 -5.95 -17.9 -5.45 -17.9 -4.75 -17.9 -4.05 -17.9
L -1.25 -17.9
Q 7.8 -3.65 8 11.4
L 1.65 11.55 -9 11.95 -17.75 11.75 -34.7 11.6 -30.15 11.4 -39.45 -4.3 -43.05 -10.25 -44.35 -17.15 -46.35 -28.05
M -39.45 -4.3
Q -35.4 -7.25 -32.35 -26.25
M -37.25 -31.4
Q -40.25 -20.25 -44.35 -17.15
M 1.65 11.55
Q 1.2 -3.9 -5.45 -17.9
M -13.55 -17.75
Q -9.45 -2.95 -9 11.95
M -17.75 11.75
Q -17.05 -3.2 -21.2 -18.15
M -27 -21.05
Q -24.95 -3.6 -30.15 11.4"/>

<path id="house_feet_0_Layer7_0_1_STROKES" stroke="#000000" stroke-width="1" stroke-linejoin="round" stroke-linecap="round" fill="none" d="
M -82.15 -70.1
Q -85.05 -70.1 -87.25 -62.8 -89.55 -55.7 -89.15 -48.25 -88.85 -40.7 -83.35 -29.85 -77.95 -19 -76.55 -16.65 -75.1 -14.5 -73.65 -10.1 -72.15 -5.7 -72.7 -3.9 -73.65 -0.85 -76.35 0.25
L -83.35 3.3 -82.15 12.25 -73.8 13.9
Q -72.55 15.05 -70.65 16.3 -66.9 18.65 -64.05 18.65 -62.95 18.65 -58.9 17.8
M -82.15 -70.1
Q -82.1 -70.2 -82 -70.25 -80.45 -70.5 -78.35 -70.4 -74.1 -70.1 -70.95 -68.2 -67.85 -66.35 -65.1 -57.5
L -62.8 -49.1 -59.55 -51.55
Q -55.3 -41.8 -55.05 -30.6
L -58.9 -32.6
Q -58.6 -30.3 -50.75 -11.6 -43.15 6.45 -43.85 9.1 -44.7 12.4 -52.8 15.7 -57.95 17.9 -58.9 17.8
M -58.9 -32.6
L -60.85 -40.8 -62.8 -49.1"/>

<path id="house_feet_0_Layer6_0_1_STROKES" stroke="#000000" stroke-width="1" stroke-linejoin="round" stroke-linecap="round" fill="none" d="
M -68.4 -70.2
Q -71.5 -70.1 -74.1 -62.45 -76.75 -54.85 -76.6 -46.85 -76.45 -38.85 -71.05 -27.25 -65.65 -15.75 -64.25 -13.3 -62.8 -10.95 -61.4 -6.25 -60 -1.55 -60.6 0.35 -61.7 3.6 -64.6 4.7
L -72.2 8 -71.2 17.5 -62.4 19.3
Q -61.1 20.55 -59.15 21.9 -55.2 24.4 -52.25 24.4 -51.05 24.4 -46.3 24.15
M -68.4 -70.2
Q -68.3 -70.25 -68.2 -70.35 -66.6 -70.55 -64.3 -70.5 -59.75 -70.2 -56.55 -68.15 -53.35 -66.1 -50.6 -56.7
L -48.55 -47.75 -44.95 -50.35
Q -40.8 -40 -40.9 -28.1
L -44.95 -30.2
Q -45.95 -25.6 -37.65 -6.5 -29.45 12.65 -28.05 13.95 -26.6 15.2 -35.4 20 -44.15 24.7 -46.3 24.15
M -44.95 -30.2
L -48.55 -47.75"/>

<path id="house_feet_0_Layer5_0_1_STROKES" stroke="#000000" stroke-width="1" stroke-linejoin="round" stroke-linecap="round" fill="none" d="
M 50.5 -81.6
Q 50.55 -81.45 50.55 -81.3 50.95 -78.65 49.95 -76.45
M 57.9 -77.3
Q 58 -77.15 58 -77 58.45 -73.7 57 -71.1 55.5 -68.6 52.85 -68.3 50.1 -68 47.8 -70.1 46.55 -71.35 45.85 -72.75 45.6 -72.6 45.3 -72.6 45.15 -72.6 45 -72.6 44.75 -71.05 43.9 -69.65 42.35 -67.15 39.65 -66.8 37 -66.5 34.75 -68.6 32.4 -70.75 31.9 -74 31.9 -74.2 31.85 -74.35
M 39.6 -75.3
Q 37.95 -77.25 37.55 -79.9 37.55 -80.05 37.45 -80.2
M 49.95 -76.45
Q 49.75 -76 49.45 -75.5 48.15 -73.25 45.85 -72.75
M 45 -72.6
Q 42.4 -72.55 40.3 -74.4 39.9 -74.9 39.6 -75.3
M 23.05 -83.35
Q 23.15 -83.25 23.15 -83.1 23.6 -80.15 22.25 -77.8 20.85 -75.5 18.5 -75.2 16 -74.95 13.95 -76.85 12.8 -78 12.15 -79.25 11.95 -79.1 11.7 -79.1 11.55 -79.1 11.4 -79.1 11.15 -77.7 10.45 -76.45 8.95 -74.2 6.6 -73.85 4.15 -73.65 2.15 -75.5 0 -77.4 -0.45 -80.35 -0.45 -80.5 -0.55 -80.7
M 6.5 -81.55
Q 5.05 -83.25 4.65 -85.7 4.65 -85.85 4.55 -86
M 16.3 -87.25
Q 16.4 -87.1 16.4 -86.95 16.8 -84.6 15.85 -82.55
M 11.4 -79.1
Q 9.05 -79.05 7.15 -80.75 6.75 -81.15 6.5 -81.55
M 15.85 -82.55
Q 15.7 -82.15 15.45 -81.8 14.2 -79.65 12.15 -79.25
M 19.15 -57.35
Q 17.5 -59.3 17.1 -61.95 17.1 -62.1 17 -62.25
M 30.05 -63.7
Q 30.1 -63.5 30.1 -63.35 30.5 -60.7 29.5 -58.5
M 37.45 -59.35
Q 37.55 -59.2 37.55 -59.05 38 -55.75 36.55 -53.2 35.05 -50.65 32.4 -50.35 29.65 -50.05 27.35 -52.15 26.1 -53.4 25.4 -54.85 25.15 -54.65 24.85 -54.65 24.7 -54.65 24.55 -54.65 24.3 -53.1 23.45 -51.7 21.9 -49.2 19.2 -48.85 16.55 -48.55 14.3 -50.65 11.95 -52.8 11.45 -56.1 11.45 -56.25 11.4 -56.4
M 19.15 -57.35
Q 19.45 -56.95 19.85 -56.45 21.95 -54.6 24.55 -54.65
M 29.5 -58.5
Q 29.3 -58.05 29 -57.55 27.7 -55.3 25.4 -54.85"/>

<path id="house_feet_0_Layer4_0_1_STROKES" stroke="#000000" stroke-width="1" stroke-linejoin="round" stroke-linecap="round" fill="none" d="
M 57.05 -105.15
L 60.5 -105.6 60.5 -110.3 47.65 -111.3 47.5 -111.3 47.6 -105.15 57.05 -105.15 57.9 -80.45 51.5 -78.25 47.25 -84.3 46.7 -94.45 44.35 -94.3 44.2 -105.45 42.5 -109.2 47.5 -111.3
M 44.2 -105.45
L 46.4 -105.6 46.4 -105.15 47.6 -105.15
M 46.7 -94.45
L 46.4 -105.15"/>
</defs>

<g transform="matrix( 2.731048583984375, 0, 0, 2.731048583984375, 302.05,452.75) ">
<g transform="matrix( 1.56695556640625, 0, 0, 1.56695556640625, -38.7,-7.35) ">
<g transform="matrix( 1, 0, 0, 1, 0,0) ">
<use filter="url(#Filter_1)" xlink:href="#Duplicate_Items_Folder_shadow_copy_4_0_Layer0_0_FILL"/>
</g>
</g>

<g transform="matrix( 1, 0, 0, 1, 0,0) ">
<use xlink:href="#house_feet_0_Layer12_0_FILL"/>

<use xlink:href="#house_feet_0_Layer12_0_1_STROKES"/>
</g>

<g transform="matrix( 1, 0, 0, 1, 0,0) ">
<use xlink:href="#house_feet_0_Layer11_0_FILL"/>

<use xlink:href="#house_feet_0_Layer11_0_1_STROKES"/>
</g>

<g transform="matrix( 1, 0, 0, 1, 0,0) ">
<use xlink:href="#house_feet_0_Layer10_0_FILL"/>

<use xlink:href="#house_feet_0_Layer10_0_1_STROKES"/>
</g>

<g transform="matrix( 1, 0, 0, 1, 0,0) ">
<use xlink:href="#house_feet_0_Layer9_0_FILL"/>

<use xlink:href="#house_feet_0_Layer9_0_1_STROKES"/>
</g>

<g transform="matrix( 1, 0, 0, 1, 0,0) ">
<use xlink:href="#house_feet_0_Layer8_0_FILL"/>

<use xlink:href="#house_feet_0_Layer8_0_1_STROKES"/>
</g>

<g transform="matrix( 1, 0, 0, 1, 0,0) ">
<use xlink:href="#house_feet_0_Layer7_0_FILL"/>

<use xlink:href="#house_feet_0_Layer7_0_1_STROKES"/>
</g>

<g transform="matrix( 1, 0, 0, 1, 0,0) ">
<use xlink:href="#house_feet_0_Layer6_0_FILL"/>

<use xlink:href="#house_feet_0_Layer6_0_1_STROKES"/>
</g>

<g transform="matrix( 1, 0, 0, 1, 0,0) ">
<use xlink:href="#house_feet_0_Layer5_0_FILL"/>

<use xlink:href="#house_feet_0_Layer5_0_1_STROKES"/>
</g>

<g transform="matrix( 1, 0, 0, 1, 0,0) ">
<use xlink:href="#house_feet_0_Layer4_0_FILL"/>

<use xlink:href="#house_feet_0_Layer4_0_1_STROKES"/>
</g>

<g transform="matrix( 0.5057373046875, 0, 0, 0.463134765625, -66.5,-55.15) ">
<g transform="matrix( 1, 0, 0, 1, -0.1,-0.15) ">
<g transform="matrix( 1.1455078125, 0, 0, 1, -0.05,-0.5) ">
<use xlink:href="#Duplicate_Items_Folder_star_copy_0_Layer0_0_FILL"/>
</g>
</g>
</g>

<g transform="matrix( 0.5057373046875, 0, 0, 0.463134765625, -53.65,9.95) ">
<g transform="matrix( 1, 0, 0, 1, -0.1,-0.15) ">
<g transform="matrix( 1.1455078125, 0, 0, 1, -0.05,-0.5) ">
<use xlink:href="#Duplicate_Items_Folder_star_copy_0_Layer0_0_FILL"/>
</g>
</g>
</g>
</g>
</svg>
