
<svg xmlns="http://www.w3.org/2000/svg" version="1.1" xmlns:xlink="http://www.w3.org/1999/xlink" preserveAspectRatio="none" x="0px" y="0px" width="560px" height="544px" viewBox="0 0 560 544">
<defs>
<radialGradient id="Gradient_1" gradientUnits="userSpaceOnUse" cx="0" cy="0" r="18.75" fx="0" fy="0" gradientTransform="matrix( 1.0000000000000002, 0, 0, 1.0000000000000002, 34.6,37.3) " spreadMethod="pad">
<stop  offset="64.31372549019608%" stop-color="#EAF4EE"/>

<stop  offset="90.98039215686275%" stop-color="#9DC00C"/>
</radialGradient>

<radialGradient id="Gradient_2" gradientUnits="userSpaceOnUse" cx="0" cy="0" r="8.5375" fx="0" fy="0" gradientTransform="matrix( -1, 0, 0, 0.849194729136164, -0.4,-2.6) " spreadMethod="pad">
<stop  offset="64.31372549019608%" stop-color="#EAF4EE"/>

<stop  offset="90.98039215686275%" stop-color="#9DC00C"/>
</radialGradient>

<g id="leg_3_0_Layer2_0_FILL">
<path fill="#869AAC" stroke="none" d="
M -3.85 7.45
Q -3 10.2 -0.3 9.65 1.482421875 4.4966796875 0.35 -2.65
L -2.35 -4.2
Q -2.81328125 1.488671875 -3.85 7.45 Z"/>

<path fill="#657E89" stroke="none" d="
M 3.05 -3.85
L 2.55 -5.25
Q 0.01484375 -4.4326171875 0.35 -2.65 1.482421875 4.4966796875 -0.3 9.65
L 1.1 9.7
Q 2.3 10 2.65 10.1 2.95 10.25 3.8 10.2 4.65 10.15 5.05 9.4 5.4 8.65 5.2 7.55 4.95 6.45 4.25 5.65 4.1 5.55 3.95 5.45 2.15 1.15 3.05 -3.85 Z"/>

<path fill="#000000" stroke="none" d="
M 3.9 -1.95
Q 4.1701171875 -3.6625 2.55 -5.25
L 3.05 -3.85
Q 2.15 1.15 3.95 5.45 4.1 5.55 4.25 5.65 4.95 6.45 5.2 7.55 5.4 8.65 5.05 9.4 4.65 10.15 3.8 10.2 2.95 10.25 2.65 10.1 2.3 10 1.1 9.7
L -0.3 9.65
Q -3 10.2 -3.85 7.45 -2.81328125 1.488671875 -2.35 -4.2
L -3.7 -5.75
Q -4.6333984375 1.6984375 -5.5 7.7 -4.2 12.1 2.3 10.75
L 3.55 11
Q 4.2 11.2 4.9 11.05 5.55 10.95 6.1 10.05 6.55 9.2 6.35 7.85 6.05 6.5 5.6 6.05 5.15 5.55 4.4 3.25 3.825 1.215234375 3.9 -1.95 Z"/>
</g>

<g id="leg_3_0_Layer1_0_FILL">
<path fill="#000000" stroke="none" d="
M -4.75 5.65
Q -4.8662109375 5.6083984375 -5 5.55 -5.2283203125 5.6927734375 -5.9 5.85 -7.5451171875 6.3373046875 -8.2 7 -8.8552734375 7.6724609375 -8.9 8.3 -8.9 8.45 -8.9 8.6 -8.85 10.2 -7.9 10.85 -6.9 11.45 -5.8 11.65 -5 11.85 -4.45 11.6
L -4.65 10.85
Q -4.65 10.8 -4.65 10.75 -4.75 10.4 -4.8 10.05 -4.85 9.4 -4.9 8.6 -4.8416015625 7.7822265625 -4.7 7.05 -4.5955078125 6.5283203125 -4.45 6.05 -4.410546875 5.944921875 -4.4 5.85 -4.5369140625 5.798828125 -4.75 5.65 Z"/>
</g>

<g id="leg_3_0_Layer0_0_FILL">
<path fill="#000000" stroke="none" d="
M 1.3 11.3
Q 1.3466796875 11.3 1.9 10.35 5.758203125 11.5984375 5.95 7.55 1.93203125 6.9263671875 -0.35 8
L -5.65 6.9
Q -5.842578125 7.5486328125 -5.95 8.3 -5.9 8.85 -5.85 9.35 -5.8 9.65 -5.75 9.9
L -5.7 9.95 -5.55 10.5
Q -5.45 10.6 -5.4 10.75 -5.35 10.75 -5.35 10.85 -5.1 11.15 -4.85 11.45 -4.05 12.25 -3.1 12.35 -2.7 12.5 -2.2 12.45 -0.65 12.25 0.65 11.65 1 11.5 1.3 11.3 Z"/>
</g>

<g id="Duplicate_Items_Folder_tail_0_Layer0_0_FILL">
<path fill="#000000" stroke="none" d="
M 1.2 -0.85
Q 0.8 -0.95 0.4 -1.2 -0.15 -1.7 -2.4 -2.35 -2.95 -2.45 -3.85 -2.35 -5.25 -1.9 -6.15 -0.95 -6.9 -0.2 -7.1 0.55 -7.2 0.85 -7.25 1.1
L -7.25 2.6
Q -6.35 2.25 -5 1.55 -4.8 3.4 -3.75 4.1 -2.7 4.95 -2 5.1 -1.9 5.1 -1.8 5.15 -1.1 5.3 -0.55 5.2 -0.1 5.15 0.2 5.05 0.5 4.95 0.6 4.95 1.15 4.65 1.5 4.25 2.1 3.8 2.3 3.15 2.85 2.2 2.5 0.9
L 2.45 0.5
Q 1.8 -0.15 1.55 -0.4
L 1.2 -0.85
M 0.05 -0.35
Q 0.3 -0.25 0.45 -0.2 0.55 0.05 0.7 0.2 0.8 0.35 0.8 0.45 0.9 0.65 0.85 0.85 0.9 1.25 1 1.45 0.95 1.75 0.9 2 0.8 2.85 0.3 3.35 0.15 3.55 0 3.55 -0.05 3.6 -0.1 3.55 -0.25 3.75 -0.6 3.75 -1.2 3.9 -1.95 3.75 -2 3.75 -2.1 3.65
L -2.15 3.65
Q -3.05 3.35 -3.4 2.7 -3.5 2.65 -3.55 2.5 -3.85 1.65 -3.8 1.1 -3.3 0.45 -2.8 1.05 -2.3 1.6 -1.9 2.1 -1.8 1.9 -1.7 1.4 -1.7 1.1 -2 0.75 -2.35 0.45 -2.65 0.4 -2.85 0.4 -3.85 0.45 -4.85 0.6 -5.9 1.2 -6.1 1.35 -6.2 1.5
L -6.1 1.25
Q -5.95 0.45 -5.3 -0.35 -4.7 -1.05 -3.7 -1.45 -2.8 -1.75 -1.95 -1.55 -1.7 -1.4 -1.45 -1.4
L -1.45 -1.3
Q -1.2 -1.25 -0.85 -1.05 -0.3 -0.6 0.05 -0.35 Z"/>

<path fill="#AAB8C4" stroke="none" d="
M 0.5 0.6
Q 0.55 0.8 0.45 0.95 0.4 1.95 -0.2 2.7 -0.85 3.6 -2.1 3.65 -2 3.75 -1.95 3.75 -1.2 3.9 -0.6 3.75 -0.25 3.75 -0.1 3.55 -0.05 3.6 0 3.55 0.15 3.55 0.3 3.35 0.8 2.85 0.9 2 0.95 1.75 1 1.45 0.9 1.25 0.85 0.85 0.9 0.65 0.8 0.45 0.8 0.35 0.7 0.2 0.55 0.05 0.45 -0.2 0.5 0.3 0.5 0.6 Z"/>

<path fill="#6D849A" stroke="none" d="
M 0.45 -0.2
Q 0.3 -0.25 0.05 -0.35 -0.3 -0.6 -0.85 -1.05 -1.2 -1.25 -1.45 -1.3
L -1.45 -1.4
Q -1.7 -1.4 -1.95 -1.55 -2.8 -1.75 -3.7 -1.45 -4.7 -1.05 -5.3 -0.35 -5.95 0.45 -6.1 1.25
L -6.2 1.5
Q -6.1 1.35 -5.9 1.2 -4.85 0.6 -3.85 0.45 -2.85 0.4 -2.65 0.4 -2.35 0.45 -2 0.75 -1.7 1.1 -1.7 1.4 -1.8 1.9 -1.9 2.1 -2.3 1.6 -2.8 1.05 -3.3 0.45 -3.8 1.1 -3.85 1.65 -3.55 2.5 -3.5 2.65 -3.4 2.7 -3.05 3.35 -2.15 3.65
L -2.1 3.65
Q -0.85 3.6 -0.2 2.7 0.4 1.95 0.45 0.95 0.55 0.8 0.5 0.6 0.5 0.3 0.45 -0.2 Z"/>
</g>

<g id="Duplicate_Items_Folder_stand_body_0_Layer2_0_FILL">
<path fill="#000000" stroke="none" d="
M 9.35 -13
Q 6.85 -13.15 4.35 -13.15 1.6 -13.05 -0.4 -13.1 -2.45 -13.15 -3.5 -13.1 -4.5 -13.1 -6.3 -13.2 -7.7 -13.45 -8.3 -13.75 -8.5 -13.75 -9.15 -13.55 -14.9 -12.25 -17.7 -8.2 -16.8 -3.95 -13.25 3.7 -9.6 11.25 -0.65 10.45 8.25 9.65 12.6 6.05 16.9 2.3 17.55 0.6 18.2 -1.15 18 -1.35 17.8 -1.6 17.85 -2.1 17.85 -2.55 17.6 -3.7 17.25 -4.8 17.15 -5.15 17 -5.5 16.85 -6.45 16.65 -7.5 14.25 -10.2 11.7 -12.85 9.35 -13
M 0.05 -11.95
Q 0.45 -11.95 0.9 -11.9
L 2.7 -11.9
Q 3.15 -11.95 3.6 -11.95 3.7125 -11.95 3.8 -11.95
L 7.15 -11.9
Q 8.05 -11.9 9 -11.9 11.15 -11.7 13.4 -9.3 15.8 -6.95 15.9 -5.65
L 16.2 -4.5
Q 16.35 -4.6 16.35 -3.35 16.2 -2.4 15.7 -1.25 15.4 -0.9 15.25 -0.7 14.35 0.8 14.1 1.2 13.75 1.65 10.65 4.85 7.5 8.2 -0.4 8.8 -1.35 8.9 -2.25 8.9 -2.687109375 8.9064453125 -3.1 8.85
L -3.9 8.8
Q -9.3607421875 8.2212890625 -11.85 2.85 -13.9232421875 -1.521875 -15 -4.65 -15.096484375 -4.9748046875 -15.2 -5.3 -15.35 -5.9 -15.5 -6.45
L -15.8 -7.55
Q -13.45 -11.2 -8.3 -12.35 -7.7 -12.6 -7.55 -12.6 -7.5 -12.55 -7.45 -12.55 -7.3 -12.6 -7.2 -12.6 -6.65 -12.3 -5.35 -12.1 -3.95 -11.95 -3.1 -11.9
L -2.9 -11.9
Q -1.95 -11.95 -0.55 -11.95 -0.3 -11.95 0.05 -11.95 Z"/>

<path fill="#869AAC" stroke="none" d="
M 15.25 -0.7
Q 15.4 -0.9 15.7 -1.25 15.2 -1.55 14.65 -1.8 -4.45 -12.65 -15.15 -5.3 -15.0728515625 -4.9763671875 -15 -4.65 -13.9232421875 -1.521875 -11.85 2.85 -9.3607421875 8.2212890625 -3.9 8.8
L -3.1 8.85
Q -2.687109375 8.9064453125 -2.25 8.9 -1.35 8.9 -0.4 8.8 7.5 8.2 10.65 4.85 13.75 1.65 14.1 1.2 14.35 0.8 15.25 -0.7 Z"/>

<path fill="#B9C6CE" stroke="none" d="
M 0.9 -11.9
Q 0.45 -11.95 0.05 -11.95 -0.3 -11.95 -0.55 -11.95 -1.95 -11.95 -2.9 -11.9
L -3.1 -11.9
Q -3.95 -11.95 -5.35 -12.1 -6.65 -12.3 -7.2 -12.6 -7.3 -12.6 -7.45 -12.55 -7.65 -12.5 -8 -12.35 -13.35 -11.2 -15.8 -7.55
L -15.5 -6.45
Q -15.3376953125 -5.900390625 -15.15 -5.3 -4.45 -12.65 14.65 -1.8 15.2 -1.55 15.7 -1.25 16.2 -2.4 16.35 -3.35 16.35 -4.6 16.2 -4.5
L 15.9 -5.65
Q 15.8 -6.95 13.4 -9.3 11.15 -11.7 9 -11.9 8.05 -11.9 7.15 -11.9
L 3.8 -11.95
Q 3.7125 -11.95 3.6 -11.95 3.15 -11.95 2.7 -11.9
L 0.9 -11.9 Z"/>
</g>

<g id="Duplicate_Items_Folder_stand_body_0_Layer1_0_FILL">
<path fill="#000000" stroke="none" d="
M 3.1 -16.25
Q 3 -16.3 2.9 -16.2 2.8 -16.1 2.8 -15.85
L 2.4 -12.65 -0.25 -13.05
Q -0.4 -13.1 -0.55 -13.05 -0.7 -12.95 -0.75 -12.8 -0.85 -12.65 -0.75 -12.5
L 0.5 -10.3 -1.1 -8.35
Q -1.15 -8.25 -1.15 -8.05 -1.2 -7.9 -1.05 -7.85 -1 -7.75 -0.85 -7.75
L 2 -6.9 2.1 -3.45
Q 2.45 -4.3 5.6 -7.05
L 8.05 -7.75
Q 7.95 -8.15 7.9 -8.25
L 7.15 -10.5 9.85 -12.45
Q 9.9 -12.6 9.95 -12.75 10.05 -12.85 9.95 -13 9.95 -13.1 9.8 -13.15 9.6 -13.25 9.45 -13.25
L 5.45 -13.05 3.55 -16.1
Q 3.5 -16.25 3.45 -16.25 3.25 -16.3 3.1 -16.25
M 3.5 -14.6
L 4.85 -12.4
Q 4.9 -12.25 5 -12.2 5.15 -12.15 5.25 -12.15
L 6.8 -12.25 8.2 -12.35 6.35 -10.95
Q 6.3 -10.85 6.25 -10.7 6.25 -10.6 6.25 -10.5
L 7.05 -8.25 4.65 -7.45 2.55 -5 2.95 -6.7 2.95 -6.95
Q 2.9 -7.15 2.85 -7.25 2.8 -7.3 2.75 -7.35 2.7 -7.4 2.7 -7.45 2.6 -7.55 2.5 -7.65
L 0.05 -8.3 1.3 -10
Q 1.45 -10.15 1.45 -10.2 1.45 -10.35 1.4 -10.45
L 0.4 -12.2 2.7 -11.75
Q 2.85 -11.75 2.95 -11.8 3.05 -11.85 3.15 -11.9 3.15 -12.05 3.25 -12.15
L 3.5 -14.6 Z"/>

<path fill="#FE7878" stroke="none" d="
M 6.8 -12.25
Q 6.55 -11.7 6.25 -11.1 6.1 -10.95 5.95 -10.75 5.6 -10.1 5.1 -9.45 4.5 -8.75 3.85 -8.1
L 3.8 -8.1
Q 3.65 -8.15 3.45 -8.05 3.35 -7.95 3.3 -7.85 3.25 -7.75 3.35 -7.6
L 3.4 -7.5 2.95 -6.7 2.55 -5 4.65 -7.45 7.05 -8.25 6.25 -10.5
Q 6.25 -10.6 6.25 -10.7 6.3 -10.85 6.35 -10.95
L 8.2 -12.35 6.8 -12.25 Z"/>

<path fill="#FFCCCC" stroke="none" d="
M 4.85 -12.4
L 3.5 -14.6 3.25 -12.15
Q 3.15 -12.05 3.15 -11.9 3.05 -11.85 2.95 -11.8 2.85 -11.75 2.7 -11.75
L 0.4 -12.2 1.4 -10.45
Q 1.45 -10.35 1.45 -10.2 1.45 -10.15 1.3 -10
L 0.05 -8.3 2.5 -7.65
Q 2.6 -7.55 2.7 -7.45 2.7 -7.4 2.75 -7.35 2.8 -7.3 2.85 -7.25 2.9 -7.15 2.95 -6.95
L 2.95 -6.7 3.4 -7.5 3.35 -7.6
Q 3.25 -7.75 3.3 -7.85 3.35 -7.95 3.45 -8.05 3.65 -8.15 3.8 -8.1
L 3.85 -8.1
Q 4.5 -8.75 5.1 -9.45 5.6 -10.1 5.95 -10.75 6.1 -10.95 6.25 -11.1 6.55 -11.7 6.8 -12.25
L 5.25 -12.15
Q 5.15 -12.15 5 -12.2 4.9 -12.25 4.85 -12.4 Z"/>
</g>

<g id="bone_0_Layer0_0_FILL">
<path fill="#000000" stroke="none" d="
M -0.9 -4.65
L -2.05 -4.5 -1.8 -2.5 -4 -2.25 -3.9 -1.15
Q -3.8365234375 -1.16953125 -3.8 -1.2
L -3.6 -1.05 1.5 3.75
Q 1.25 4.1 1.15 4.6 1 5.65 1.55 6.55 2.1 7.4 2.95 7.75 3.9 8.15 4.65 7.7 5.35 7.3 5.6 6.35 5.65 5.65 5.45 5.05 6.1 5.15 6.9 4.65 7.6 4.15 8 3.25 8.3 2.3 8 1.45 7.6 0.6 6.8 0.45 5.85 0.25 4.6 0.6
L -0.9 -4.5
Q -0.882421875 -4.5736328125 -0.9 -4.65
M -2.35 -1.2
L -1.9 -1.25 -0.4 -1.4 -0.65 -3.35 3.45 0.55 3.45 0.5 4.5 1.45
Q 5.05 1.3 5.6 1.35 5.6970703125 1.3984375 5.75 1.4
L 5.8 1.45
Q 5.85 1.45 5.9 1.45 6.3 1.65 6.6 2.1 6.85 2.65 6.8 3.25 6.65 3.85 6.05 4.2 5.65 4.45 5.15 4.2
L 4.95 4.15
Q 4.8 4.1 4.7 4 4.7 3.95 4.65 3.95 5.1 5.15 5.05 5.7 5.1 5.8 5.05 5.9
L 5 5.9
Q 4.9 6.45 4.4 6.7 3.9 7.05 3.2 6.7 2.6 6.35 2.3 5.75 2 5 2.05 4.45 2.15 3.95 2.5 3.3
L -2.35 -1.2 Z"/>

<path fill="#E8E6CE" stroke="none" d="
M 2.65 4.1
Q 2.8 3.9 3.05 3.8 2.8 3.85 2.6 4.05 2.509375 4.2314453125 2.5 4.4 2.5140625 4.2359375 2.65 4.1
M 5.6 1.4
Q 5.696875 1.4 5.75 1.4 5.6970703125 1.3984375 5.6 1.35 5.05 1.3 4.5 1.45
L 4.55 1.5
Q 5.1 1.3 5.6 1.4
M -0.4 -1.4
L -1.9 -1.25 2.55 2.85 1.75 2 1.65 0.55 3.45 1.7 3.45 0.55 -0.65 -3.35 -0.4 -1.4 Z"/>

<path fill="#990000" stroke="none" d="
M 5.75 1.4
Q 5.696875 1.4 5.6 1.4 5.1 1.3 4.55 1.5
L 4.5 1.45 3.45 0.5 3.45 0.55 3.45 1.7 1.65 0.55 1.75 2 2.55 2.85 3.35 3.7
Q 3.2 3.7 3.1 3.75
L 3.05 3.8
Q 2.8 3.9 2.65 4.1 2.5140625 4.2359375 2.5 4.4
L 2.5 4.5 2.45 4.55 2.45 4.6
Q 2.45 4.7 2.5 4.9 2.6 5.45 2.95 5.8 3.3 6.2 3.55 6.3 3.8 6.35 4.05 6.35 4.65 6.35 4.85 6.15 4.99765625 5.953125 5 5.85
L 5 5.9 5.05 5.9
Q 5.1 5.8 5.05 5.7 5.1 5.15 4.65 3.95 4.7 3.95 4.7 4 4.8 4.1 4.95 4.15
L 5.15 4.2
Q 5.65 4.45 6.05 4.2 6.65 3.85 6.8 3.25 6.85 2.65 6.6 2.1 6.3 1.65 5.9 1.45 5.85 1.45 5.8 1.45
L 5.75 1.4 Z"/>

<path fill="#CFCDAF" stroke="none" d="
M -1.9 -1.25
L -2.35 -1.2 2.5 3.3
Q 2.15 3.95 2.05 4.45 2 5 2.3 5.75 2.6 6.35 3.2 6.7 3.9 7.05 4.4 6.7 4.9 6.45 5 5.9
L 5 5.85
Q 4.99765625 5.953125 4.85 6.15 4.65 6.35 4.05 6.35 3.8 6.35 3.55 6.3 3.3 6.2 2.95 5.8 2.6 5.45 2.5 4.9 2.45 4.7 2.45 4.6
L 2.45 4.55 2.5 4.5 2.5 4.4
Q 2.509375 4.2314453125 2.6 4.05 2.8 3.85 3.05 3.8
L 3.1 3.75
Q 3.2 3.7 3.35 3.7
L 2.55 2.85 -1.9 -1.25 Z"/>
</g>

<g id="Duplicate_Items_Folder_head_0_Layer1_0_FILL">
<path fill="#000000" stroke="none" d="
M 13.7 -15.6
Q 11.15 -16.8 8.75 -17.55 -2.55 -21.2 -11.95 -16 -20 -1.15 -16.95 11.65 -9.85 17.1 -3.35 18.55 7.4 21 16.45 12.55 20.1 -1.25 13.7 -15.6
M 8.35 -16.4
Q 10.35 -15.75 12.45 -14.75 18.25 -1.6 14.9 11.1 6.85 18.65 -2.75 16.7 -8.9 15.4 -15.7 10.25 -18.5 -1.45 -11 -15.1 -2.25 -19.95 8.35 -16.4 Z"/>

<path fill="#BDC9D2" stroke="none" d="
M -15.7 10.25
Q -8.9 15.4 -2.75 16.7 18.9646484375 8.86171875 8.35 -16.4 -2.25 -19.95 -11 -15.1 -18.5 -1.45 -15.7 10.25 Z"/>

<path fill="#9AAEBA" stroke="none" d="
M 12.45 -14.75
Q 10.35 -15.75 8.35 -16.4 18.9646484375 8.86171875 -2.75 16.7 6.85 18.65 14.9 11.1 18.25 -1.6 12.45 -14.75 Z"/>
</g>

<g id="Duplicate_Items_Folder_head_0_Layer0_0_FILL">
<path fill="#000000" stroke="none" d="
M -9.8 2.3
Q -9.9 2.2 -9.95 2.3 -10.1 2.2 -10.15 2.3
L -12.1 4.4 -12.25 4.35 -14.65 3.5
Q -14.75 3.5 -14.85 3.5 -14.95 3.6 -14.95 3.65 -15.1 3.75 -15.05 3.85 -15.1 3.9 -15 4.05
L -13.55 6.05 -15.15 7.1
Q -15.3 7.2 -15.35 7.3 -15.35 7.45 -15.25 7.55 -15.25 7.65 -15.1 7.7
L -13.35 8.3 -13.25 10.25
Q -13.15 10.35 -13.1 10.45 -13.05 10.55 -12.95 10.55 -12.9 10.6 -12.75 10.55
L -10.8 9.55 -9.1 11.6
Q -9.3 10.9 -9 7.85
L -8.1 6.2
Q -8.4 6.05 -8.5 5.95
L -9.9 5.05 -9.6 2.55
Q -9.6 2.5 -9.65 2.4 -9.65 2.3 -9.8 2.3
M -8.95 6.45
L -9.75 8 -9.65 10.5 -10.3 9.3 -10.4 9.15
Q -10.45 9 -10.55 9 -10.6 9 -10.7 8.95
L -10.75 8.95
Q -10.9 8.9 -10.95 9
L -12.1 9.5 -12.6 9.75 -12.75 8.1
Q -12.75 8 -12.8 7.95 -12.9 7.85 -12.95 7.85
L -14.35 7.3 -12.9 6.45
Q -12.85 6.35 -12.8 6.3 -12.8 6.25 -12.8 6.1 -12.85 6.05 -12.85 5.95
L -13.95 4.45 -12.9 4.85 -12.15 5.05
Q -12.1 5.1 -11.95 5.05 -11.85 5.05 -11.8 5
L -10.35 3.45 -10.6 5.15
Q -10.6 5.25 -10.55 5.35 -10.5 5.45 -10.45 5.45
L -8.95 6.45
M -11.8 7.75
Q -11.9 7.75 -11.95 7.8 -12 7.75 -12.05 7.85 -12.15 7.9 -12.2 8 -12.25 8.15 -12.25 8.25 -12.1 8.3 -12 8.35 -11.95 8.4 -11.8 8.35 -11.7 8.2 -11.6 8.15 -11.65 8.05 -11.65 7.95 -11.7 7.8 -11.8 7.75
M -12.9 4.95
Q -12.95 4.9 -12.95 4.95 -13.05 4.9 -13.15 4.9 -13.2 5 -13.2 5.1
L -13.2 5.2
Q -13.15 5.25 -13.05 5.25 -13 5.3 -12.95 5.3 -12.85 5.25 -12.85 5.15
L -12.8 5.15
Q -12.85 5.1 -12.9 5.05 -12.85 5.05 -12.9 4.95
M -12.6 6.9
Q -12.55 6.75 -12.55 6.65 -12.6 6.6 -12.75 6.6 -12.9 6.55 -12.95 6.55 -13 6.65 -13.05 6.75 -13.15 6.85 -13.1 7 -13 7.05 -12.85 7.1 -12.8 7.15 -12.7 7.05 -12.6 7.05 -12.6 6.9
M -11.05 6.4
Q -11.15 6.4 -11.25 6.35 -11.3 6.45 -11.4 6.5 -11.4 6.7 -11.3 6.75 -11.25 6.9 -11.15 6.9 -11.1 6.95 -10.95 6.85
L -10.9 6.75
Q -10.9 6.6 -10.9 6.5 -11 6.45 -11.05 6.4
M -11.75 5.25
Q -11.75 5.35 -11.7 5.4 -11.6 5.5 -11.5 5.55 -11.4 5.55 -11.35 5.5 -11.2 5.5 -11.2 5.35 -11.15 5.25 -11.15 5.2 -11.2 5.05 -11.3 5 -11.45 5 -11.55 4.95 -11.65 5.1 -11.75 5.25
M -9.45 6.9
Q -9.4 6.75 -9.4 6.7 -9.45 6.7 -9.5 6.65
L -9.6 6.6
Q -9.7 6.55 -9.8 6.55 -9.9 6.6 -10 6.75 -10 6.9 -9.9 6.95 -9.85 7.1 -9.7 7.1
L -9.65 7.1
Q -9.5 7 -9.45 6.9
M 10.6 -14.55
Q 10.45 -14.6 10.3 -14.55
L 8.1 -13.7 6.35 -15.45
Q 6.15 -15.5 6.05 -15.5 5.95 -15.55 5.85 -15.5 5.75 -15.45 5.65 -15.3
L 4.6 -12.8 1.25 -13.25
Q 2 -12.8 4.35 -9.6
L 4.85 -7.3
Q 5.2 -7.35 5.4 -7.35
L 7.55 -7.65 9.3 -5
Q 9.35 -4.95 9.5 -4.9 9.55 -4.8 9.7 -4.9 9.85 -4.9 9.9 -5.05 10.05 -5.1 10.05 -5.25
L 10.15 -8.9 13.35 -10.15
Q 13.45 -10.25 13.55 -10.35 13.6 -10.5 13.55 -10.6 13.6 -10.7 13.45 -10.85 13.45 -10.9 13.3 -10.95
L 10.15 -11.7 10.8 -14.05
Q 10.9 -14.25 10.85 -14.4 10.75 -14.5 10.6 -14.55
M 5.9 -13.75
L 6.2 -14.45 7.7 -13
Q 7.75 -12.85 7.9 -12.9 8.05 -12.85 8.1 -12.9
L 9.9 -13.55 9.25 -11.55
Q 9.25 -11.4 9.25 -11.3 9.3 -11.2 9.35 -11.1 9.45 -11.1 9.55 -11
L 11.9 -10.5 10.6 -9.95 9.65 -9.55
Q 9.55 -9.55 9.5 -9.35 9.35 -9.3 9.35 -9.2
L 9.3 -7.85 9.3 -6.5 8.1 -8.35
Q 8 -8.45 7.9 -8.5 7.75 -8.55 7.7 -8.5
L 5.4 -8.2 4.9 -10.4 2.7 -12.65 4.4 -12.05 4.55 -12
Q 4.7 -11.95 4.85 -12 4.9 -12.05 5 -12.1
L 5.05 -12.1
Q 5.2 -12.2 5.25 -12.3
L 5.9 -13.75
M 10.25 -10.25
L 10.25 -10.2
Q 10.3 -10.15 10.4 -10.15 10.4 -10.1 10.5 -10.05 10.55 -10.05 10.6 -10.1 10.65 -10.15 10.7 -10.25 10.75 -10.4 10.65 -10.45 10.65 -10.5 10.6 -10.55 10.45 -10.6 10.4 -10.5 10.3 -10.5 10.25 -10.45 10.2 -10.3 10.25 -10.25
M 5.95 -9.5
Q 5.75 -9.55 5.6 -9.5 5.6 -9.45 5.55 -9.35 5.5 -9.2 5.55 -9.05 5.65 -8.85 5.7 -8.85 5.75 -8.85 5.8 -8.85
L 5.85 -8.85 5.9 -8.9
Q 6.05 -8.9 6.15 -9.05 6.2 -9.15 6.15 -9.35 6.05 -9.5 5.95 -9.5
M 5.6 -11
L 5.7 -11.15
Q 5.7 -11.2 5.65 -11.35 5.6 -11.55 5.45 -11.55 5.3 -11.6 5.15 -11.55 5.15 -11.5 5.1 -11.45 5.05 -11.4 5 -11.35 4.95 -11.25 5 -11.05 5.1 -10.95 5.25 -10.95 5.3 -10.85 5.45 -10.95 5.55 -10.95 5.6 -11
M 9.15 -11.7
Q 9.15 -11.8 9.1 -11.95 9.1 -12.1 8.95 -12.2 8.8 -12.2 8.65 -12.1 8.5 -12.1 8.55 -11.95 8.45 -11.8 8.55 -11.7 8.6 -11.5 8.7 -11.45 8.8 -11.45 8.95 -11.5 9.1 -11.6 9.15 -11.7
M 6.8 -12.6
Q 6.65 -12.55 6.55 -12.4 6.55 -12.2 6.55 -12.05 6.65 -12 6.75 -11.9 6.95 -11.85 7.1 -11.85 7.2 -11.95 7.2 -12 7.3 -12 7.3 -12.15 7.3 -12.25 7.25 -12.4 7.2 -12.55 7.1 -12.65 6.9 -12.6 6.8 -12.6
M 8.6 -9.5
Q 8.55 -9.4 8.5 -9.3 8.4 -9.2 8.5 -9.05 8.55 -8.9 8.65 -8.85 8.8 -8.75 8.9 -8.8 9.05 -8.9 9.15 -9 9.15 -9.2 9.1 -9.35 9.05 -9.45 8.95 -9.5 8.75 -9.5 8.6 -9.5
M 7.7 -10.05
Q 7.7 -10.2 7.7 -10.35 7.6 -10.5 7.45 -10.5 7.3 -10.55 7.2 -10.5 7.1 -10.45 7.05 -10.3
L 7.1 -10.1
Q 7.15 -9.95 7.25 -9.85 7.4 -9.85 7.5 -9.85 7.6 -9.95 7.7 -10.05 Z"/>

<path fill="#CC0000" stroke="none" d="
M -12.9 4.95
L -12.9 4.85 -13.95 4.45 -12.85 5.95
Q -12.85 6.05 -12.8 6.1 -12.8 6.25 -12.8 6.3 -12.85 6.35 -12.9 6.45
L -14.35 7.3 -12.95 7.85
Q -12.9 7.85 -12.8 7.95 -12.75 8 -12.75 8.1
L -12.6 9.75 -12.1 9.5 -12 8.35
Q -12.1 8.3 -12.25 8.25 -12.25 8.15 -12.2 8 -12.15 7.9 -12.05 7.85 -12 7.75 -11.95 7.8
L -11.9 7.05
Q -12.65 6.15 -12.85 5.15 -12.85 5.25 -12.95 5.3 -13 5.3 -13.05 5.25 -13.15 5.25 -13.2 5.2
L -13.2 5.1
Q -13.2 5 -13.15 4.9 -13.05 4.9 -12.95 4.95 -12.95 4.9 -12.9 4.95
M -12.55 6.65
Q -12.55 6.75 -12.6 6.9 -12.6 7.05 -12.7 7.05 -12.8 7.15 -12.85 7.1 -13 7.05 -13.1 7 -13.15 6.85 -13.05 6.75 -13 6.65 -12.95 6.55 -12.9 6.55 -12.75 6.6 -12.6 6.6 -12.55 6.65
M 5.9 -13.75
L 6.8 -12.6
Q 6.9 -12.6 7.1 -12.65 7.2 -12.55 7.25 -12.4 7.3 -12.25 7.3 -12.15 7.3 -12 7.2 -12
L 7.75 -11.2
Q 9.2 -11 10.25 -10.25 10.2 -10.3 10.25 -10.45 10.3 -10.5 10.4 -10.5 10.45 -10.6 10.6 -10.55 10.65 -10.5 10.65 -10.45 10.75 -10.4 10.7 -10.25 10.65 -10.15 10.6 -10.1 10.55 -10.05 10.5 -10.05 10.6 -10 10.6 -9.95
L 11.9 -10.5 9.55 -11
Q 9.45 -11.1 9.35 -11.1 9.3 -11.2 9.25 -11.3 9.25 -11.4 9.25 -11.55
L 9.9 -13.55 8.1 -12.9
Q 8.05 -12.85 7.9 -12.9 7.75 -12.85 7.7 -13
L 6.2 -14.45 5.9 -13.75
M 9.1 -11.95
Q 9.15 -11.8 9.15 -11.7 9.1 -11.6 8.95 -11.5 8.8 -11.45 8.7 -11.45 8.6 -11.5 8.55 -11.7 8.45 -11.8 8.55 -11.95 8.5 -12.1 8.65 -12.1 8.8 -12.2 8.95 -12.2 9.1 -12.1 9.1 -11.95 Z"/>

<path fill="#F9E8C6" stroke="none" d="
M -9.75 8
L -8.95 6.45 -10.45 5.45
Q -10.5 5.45 -10.55 5.35 -10.6 5.25 -10.6 5.15
L -10.35 3.45 -11.8 5
Q -11.85 5.05 -11.95 5.05 -12.1 5.1 -12.15 5.05
L -12.9 4.85 -12.9 4.95
Q -12.85 5.05 -12.9 5.05 -12.85 5.1 -12.8 5.15
L -12.85 5.15
Q -12.65 6.15 -11.9 7.05
L -11.95 7.8
Q -11.9 7.75 -11.8 7.75 -11.7 7.8 -11.65 7.95 -11.65 8.05 -11.6 8.15 -11.7 8.2 -11.8 8.35 -11.95 8.4 -12 8.35
L -12.1 9.5 -10.95 9
Q -10.9 8.9 -10.75 8.95
L -10.7 8.95
Q -10.6 9 -10.55 9 -10.45 9 -10.4 9.15
L -10.3 9.3 -9.65 10.5 -9.75 8
M -9.4 6.7
Q -9.4 6.75 -9.45 6.9 -9.5 7 -9.65 7.1
L -9.7 7.1
Q -9.85 7.1 -9.9 6.95 -10 6.9 -10 6.75 -9.9 6.6 -9.8 6.55 -9.7 6.55 -9.6 6.6
L -9.5 6.65
Q -9.45 6.7 -9.4 6.7
M -11.7 5.4
Q -11.75 5.35 -11.75 5.25 -11.65 5.1 -11.55 4.95 -11.45 5 -11.3 5 -11.2 5.05 -11.15 5.2 -11.15 5.25 -11.2 5.35 -11.2 5.5 -11.35 5.5 -11.4 5.55 -11.5 5.55 -11.6 5.5 -11.7 5.4
M -11.25 6.35
Q -11.15 6.4 -11.05 6.4 -11 6.45 -10.9 6.5 -10.9 6.6 -10.9 6.75
L -10.95 6.85
Q -11.1 6.95 -11.15 6.9 -11.25 6.9 -11.3 6.75 -11.4 6.7 -11.4 6.5 -11.3 6.45 -11.25 6.35
M 6.55 -12.4
Q 6.65 -12.55 6.8 -12.6
L 5.9 -13.75 5.25 -12.3
Q 5.2 -12.2 5.05 -12.1
L 5 -12.1
Q 4.9 -12.05 4.85 -12 4.7 -11.95 4.55 -12
L 4.4 -12.05 5.1 -11.45
Q 5.15 -11.5 5.15 -11.55 5.3 -11.6 5.45 -11.55 5.6 -11.55 5.65 -11.35 5.7 -11.2 5.7 -11.15
L 5.6 -11
Q 7.45 -8.85 9.3 -7.85
L 9.35 -9.2
Q 9.35 -9.3 9.5 -9.35 9.55 -9.55 9.65 -9.55
L 10.6 -9.95
Q 10.6 -10 10.5 -10.05 10.4 -10.1 10.4 -10.15 10.3 -10.15 10.25 -10.2
L 10.25 -10.25
Q 9.2 -11 7.75 -11.2
L 7.2 -12
Q 7.2 -11.95 7.1 -11.85 6.95 -11.85 6.75 -11.9 6.65 -12 6.55 -12.05 6.55 -12.2 6.55 -12.4
M 7.7 -10.35
Q 7.7 -10.2 7.7 -10.05 7.6 -9.95 7.5 -9.85 7.4 -9.85 7.25 -9.85 7.15 -9.95 7.1 -10.1
L 7.05 -10.3
Q 7.1 -10.45 7.2 -10.5 7.3 -10.55 7.45 -10.5 7.6 -10.5 7.7 -10.35
M 8.5 -9.3
Q 8.55 -9.4 8.6 -9.5 8.75 -9.5 8.95 -9.5 9.05 -9.45 9.1 -9.35 9.15 -9.2 9.15 -9 9.05 -8.9 8.9 -8.8 8.8 -8.75 8.65 -8.85 8.55 -8.9 8.5 -9.05 8.4 -9.2 8.5 -9.3 Z"/>

<path fill="#FFCCCC" stroke="none" d="
M -9.9 1.85
Q -10 1.95 -10.05 1.95
L -12.25 4.35 -12.1 4.4 -10.15 2.3
Q -10.1 2.2 -9.95 2.3 -9.9 2.2 -9.8 2.3 -9.65 2.3 -9.65 2.4 -9.6 2.5 -9.6 2.55
L -9.9 5.05 -8.5 5.95
Q -8.4 6.05 -8.1 6.2
L -9 7.85
Q -9.3 10.9 -9.1 11.6
L -10.8 9.55 -12.75 10.55
Q -12.9 10.6 -12.95 10.55 -13.05 10.55 -13.1 10.45 -13.15 10.35 -13.25 10.25
L -13.35 8.3 -15.1 7.7
Q -15.25 7.65 -15.25 7.55 -15.35 7.45 -15.35 7.3 -15.3 7.2 -15.15 7.1
L -13.55 6.05 -15 4.05
Q -15.1 3.9 -15.05 3.85 -15.1 3.75 -14.95 3.65 -14.95 3.6 -14.85 3.5 -14.75 3.5 -14.65 3.5
L -12.25 4.35 -15.15 3.25
Q -15.25 3.3 -15.3 3.35 -15.5 3.4 -15.5 3.45 -15.6 3.55 -15.55 3.65 -15.55 3.75 -15.5 3.85
L -13.85 6.2 -15.75 7.3
Q -15.85 7.4 -15.85 7.55 -15.9 7.7 -15.9 7.8 -15.75 7.9 -15.6 7.95
L -13.65 8.7 -13.45 10.85
Q -13.45 10.95 -13.4 11.05 -13.3 11.15 -13.25 11.15 -13.15 11.15 -12.95 11.2
L -10.85 10.05 -8.9 12.3
Q -9.1 11.6 -8.85 8.05
L -7.8 6.3
Q -8.1 6.1 -8.2 6
L -9.85 5 -9.5 2.2
Q -9.45 2.1 -9.45 2 -9.55 1.95 -9.7 1.9 -9.7 1.8 -9.9 1.85
M 11.15 -15.05
Q 11.05 -15.2 10.95 -15.3 10.75 -15.3 10.6 -15.2
L 8.05 -14.3 6.1 -16.2
Q 6 -16.3 5.8 -16.35 5.7 -16.4 5.65 -16.3 5.5 -16.25 5.35 -16.1
L 4.25 -13.3 0.45 -13.8
Q 1.3 -13.25 3.95 -9.65
L 4.45 -7.1
Q 4.9 -7.2 5.1 -7.2
L 7.5 -7.55 9.45 -4.6
Q 9.55 -4.45 9.65 -4.4 9.8 -4.4 9.95 -4.5 10.05 -4.4 10.2 -4.55 10.2 -4.7 10.25 -4.8
L 10.4 -8.95 14 -10.35
Q 14.1 -10.45 14.15 -10.55 14.25 -10.75 14.2 -10.8 14.25 -10.95 14.15 -11.05 14.05 -11.15 13.9 -11.2
L 10.35 -12.1 11.2 -14.7
Q 11.25 -14.9 11.15 -15.05
M 10.3 -14.55
Q 10.45 -14.6 10.6 -14.55 10.75 -14.5 10.85 -14.4 10.9 -14.25 10.8 -14.05
L 10.15 -11.7 13.3 -10.95
Q 13.45 -10.9 13.45 -10.85 13.6 -10.7 13.55 -10.6 13.6 -10.5 13.55 -10.35 13.45 -10.25 13.35 -10.15
L 10.15 -8.9 10.05 -5.25
Q 10.05 -5.1 9.9 -5.05 9.85 -4.9 9.7 -4.9 9.55 -4.8 9.5 -4.9 9.35 -4.95 9.3 -5
L 7.55 -7.65 5.4 -7.35
Q 5.2 -7.35 4.85 -7.3
L 4.35 -9.6
Q 2 -12.8 1.25 -13.25
L 4.6 -12.8 5.65 -15.3
Q 5.75 -15.45 5.85 -15.5 5.95 -15.55 6.05 -15.5 6.15 -15.5 6.35 -15.45
L 8.1 -13.7 10.3 -14.55 Z"/>

<path fill="#D2CEB5" stroke="none" d="
M 5.45 -10.95
Q 5.3 -10.85 5.25 -10.95 5.1 -10.95 5 -11.05 4.95 -11.25 5 -11.35 5.05 -11.4 5.1 -11.45
L 4.4 -12.05 2.7 -12.65 4.9 -10.4 5.4 -8.2 7.7 -8.5
Q 7.75 -8.55 7.9 -8.5 8 -8.45 8.1 -8.35
L 9.3 -6.5 9.3 -7.85
Q 7.45 -8.85 5.6 -11 5.55 -10.95 5.45 -10.95
M 5.6 -9.5
Q 5.75 -9.55 5.95 -9.5 6.05 -9.5 6.15 -9.35 6.2 -9.15 6.15 -9.05 6.05 -8.9 5.9 -8.9
L 5.85 -8.85 5.8 -8.85
Q 5.75 -8.85 5.7 -8.85 5.65 -8.85 5.55 -9.05 5.5 -9.2 5.55 -9.35 5.6 -9.45 5.6 -9.5 Z"/>
</g>

<g id="Duplicate_Items_Folder_ear_0_Layer0_0_FILL">
<path fill="#000000" stroke="none" d="
M 5.95 -1.2
Q 6.0380859375 -1.9734375 6 -2.75 5.9 -5.3 1.75 -7.6 -0.35 -8.8 -2.4 -9.45
L -3.9 -9.1
Q -3.75 -8.15 -3.2 -7 -2.85 -6.25 -3.3 -4.75 -3.95 -3.05 -4.25 -2.2 -5.7 2.45 -5.55 4.4 -5.45 5.65 -2.45 6.5 0.4 7.3 2.1 6.8 3.7 6.3 4.9 3.3 4.97109375 3.1294921875 5.05 2.95
L 5.95 -1.2
M 5 -2.4
Q 5.0095703125 -2.1712890625 5 -1.95
L 4.35 1.45 3.8 3.1
Q 2.9505859375 4.8638671875 1.9 5.2 0.55 5.6 -1.8 5 -4.15 4.3 -4.25 3.3 -4.4 1.75 -3.2 -1.95 -3 -2.65 -2.45 -4.05 -2.1 -5.25 -2.4 -5.8 -2.8 -6.75 -2.95 -7.5
L -1.75 -7.8
Q -0.1 -7.25 1.55 -6.3 4.9 -4.45 5 -2.4 Z"/>

<path fill="#536571" stroke="none" d="
M 5 -1.95
Q 5.0095703125 -2.1712890625 5 -2.4 4.9 -4.45 1.55 -6.3 -0.1 -7.25 -1.75 -7.8
L -2.95 -7.5
Q -2.8 -6.75 -2.4 -5.8 -2.1 -5.25 -2.45 -4.05 -3 -2.65 -3.2 -1.95 -4.4 1.75 -4.25 3.3 -4.15 4.3 -1.8 5 0.55 5.6 1.9 5.2 2.9505859375 4.8638671875 3.8 3.1
L 4.35 1.45 5 -1.95 Z"/>
</g>

<g id="Duplicate_Items_Folder_eye_0_Layer0_0_FILL">
<path fill="#000000" stroke="none" d="
M 53.75 39.4
Q 54.8 30.2 49.9 23.7 45 17.15 38.4 17.95 31.8 18.75 22.75 24.85 13.75 30.95 11.5 45.65 9.2 60.4 16.1 64.7 23 69 34.2 65.8 45.35 62.55 49.05 55.6 52.65 48.65 53.75 39.4
M 48.7 28.1
Q 51.55 32.9 50.8 39.4 50.25 44.3 48.8 48.4 37.65 54.7 22 50.6 18.25 46.1 18.25 40.05 18.25 38.85 18.4 37.75 19.05 32.4 25.35 28.6 31.65 24.75 37.8 23.05 43.9 21.35 46.1 24.3 48.25 27.3 48.7 28.1 Z"/>

<path fill="url(#Gradient_1)" stroke="none" d="
M 50.8 39.4
Q 51.55 32.9 48.7 28.1 48.25 27.3 46.1 24.3 43.9 21.35 37.8 23.05 31.65 24.75 25.35 28.6 19.05 32.4 18.4 37.75 18.25 38.85 18.25 40.05 18.25 46.1 22 50.6 37.65 54.7 48.8 48.4 50.25 44.3 50.8 39.4 Z"/>
</g>

<g id="Duplicate_Items_Folder_nose_0_Layer1_0_FILL">
<path fill="#000000" stroke="none" d="
M 7.75 -5.65
Q 5.75 -7.95 2.7 -8.15
L -2.75 -8.55
Q -5.9 -8.8 -8.25 -6.8 -10.55 -4.75 -10.8 -1.65 -11 1.45 -9 3.85 -7 6.2 -3.85 6.45
L 1.6 6.85
Q 4.65 7.05 7 5 9.45 3 9.65 -0.1 9.9 -3.2 7.75 -5.65
M 2.15 -6.8
Q 4.7 -6.6 6.35 -4.75 8.05 -2.8 7.85 -0.15 7.7 2.35 5.7 4 3.8 5.75 1.25 5.55
L -3.25 5.2
Q -5.8 5.05 -7.45 3.05 -9.1 1.1 -8.95 -1.4 -8.75 -4.05 -6.8 -5.7 -4.9 -7.3 -2.35 -7.15
L 2.15 -6.8 Z"/>

<path fill="#FFCCCC" stroke="none" d="
M 6.35 -4.75
Q 4.7 -6.6 2.15 -6.8
L -2.35 -7.15
Q -4.9 -7.3 -6.8 -5.7 -8.75 -4.05 -8.95 -1.4 -9.1 1.1 -7.45 3.05 -5.8 5.05 -3.25 5.2
L 1.25 5.55
Q 3.8 5.75 5.7 4 7.7 2.35 7.85 -0.15 8.05 -2.8 6.35 -4.75
M 0.75 -6.15
Q 1.75 -6.1 2.5 -5.7 -6.4 -5.95 -7.65 0.05 -8.1 -0.8 -8 -1.9 -7.85 -3.9 -6.3 -5.25 -4.8 -6.55 -2.75 -6.4
L 0.75 -6.15 Z"/>

<path fill="#E1E6EA" stroke="none" d="
M 2.5 -5.7
Q 1.75 -6.1 0.75 -6.15
L -2.75 -6.4
Q -4.8 -6.55 -6.3 -5.25 -7.85 -3.9 -8 -1.9 -8.1 -0.8 -7.65 0.05 -6.4 -5.95 2.5 -5.7 Z"/>
</g>

<g id="Duplicate_Items_Folder_nose_0_Layer0_0_FILL">
<path fill="#000000" stroke="none" d="
M -2.3 -3.85
Q -2.9 -4.7 -3.65 -4.7 -4.5 -4.75 -5.05 -3.85 -5.6 -3.1 -5.65 -2
L -5.65 -0.05
Q -5.7 1.05 -5.1 1.8 -4.55 2.6 -3.75 2.6 -3 2.55 -2.4 1.8 -1.85 1.05 -1.8 -0.05
L -1.75 -2
Q -1.75 -3.1 -2.3 -3.85
M 2.8 -4.2
Q 2.05 -4.3 1.3 -3.5 0.6 -2.9 0.5 -1.75
L 0.25 0.15
Q 0.05 1.25 0.55 2.1 1 2.95 1.8 3.05 2.6 3.2 3.2 2.5 3.9 1.8 4.05 0.75
L 4.3 -1.2
Q 4.45 -2.3 3.95 -3.15 3.6 -4.05 2.8 -4.2 Z"/>
</g>

<g id="Duplicate_Items_Folder_eye_missing_0_Layer1_0_FILL">
<path fill="#576F7D" stroke="none" d="
M 9.7 -2.1
Q 9.0455078125 -5.3533203125 5.1 -8.1 1.05 -10.85 -1.85 -11.15 -4.8 -11.55 -7 -8.6 -8.85 -6.15 -8.7 -2.85 -8.7 -2.3 -8.65 -1.65 -8.6 -1.3 -8.55 -1 -8.5 -0.6 -8.45 -0.2 -7.9 3.05 -6.6 5.6 -4.9453125 8.700390625 0.55 10.8 6.08984375 12.9533203125 8.65 11 11.1984375 9.0873046875 11.15 6.6 11.1107421875 4.1140625 11.4 3.25 11.6828125 2.4345703125 11 1.8 10.3642578125 1.1607421875 9.7 -2.1 Z"/>
</g>

<g id="Duplicate_Items_Folder_eye_missing_0_Layer0_0_FILL">
<path fill="#000000" stroke="none" d="
M 9.1 0.85
Q 9.092578125 0.8005859375 9.05 0.75 8.1697265625 -5.2203125 4.5 -7.7 0.75 -10.25 -1.95 -10.55 -4.65 -10.9 -6.7 -8.2 -8.391796875 -5.916015625 -8.35 -2.9 -8.3193359375 -2.3279296875 -8.25 -1.75 -8.215234375 -1.45703125 -8.2 -1.2 -8.119921875 -0.7841796875 -8.05 -0.4 -7.53671875 2.576953125 -6.35 4.95 -4.8 7.8 -0.25 9.15 4.4 10.45 7.2 8.7 9.4447265625 7.2822265625 9.35 3.2 9.32890625 2.8634765625 9.3 2.45 9.233984375 1.703515625 9.1 0.85
M 6.3 -2.4
Q 6.35 -1.95 6.35 -1.45 6.35 -1.1353515625 6.25 0.05 1.6138671875 -5.6 -5.9 -6.85 -5.6341796875 -7.237890625 -5.15 -7.95 -4.2 -9.15 -1.7 -8.45 0.8 -7.75 3.4 -6.2 6 -4.6 6.3 -2.4
M 5.2 2.35
Q 5.0193359375 2.6380859375 4.8 2.9 -1.65 4.55 -6.25 1.95 -6.6048828125 0.9744140625 -6.85 -0.15 -0.4443359375 -0.465234375 5.2 2.35
M -6.95 -0.95
Q -7.00859375 -1.326171875 -7.05 -1.75 -7.100390625 -2.194921875 -7.1 -2.65 -0.40390625 -2.634765625 5.05 1.4 -0.359375 -1.3626953125 -6.95 -0.95
M -7.1 -3.4
Q -6.99453125 -4.819921875 -6.4 -6.05 0.40859375 -4.944921875 5.85 0.25 3.3578125 -1.1640625 -0.15 -2.6 -3.8685546875 -4.0240234375 -7.1 -3.4 Z"/>

<path fill="#6666FF" stroke="none" d="
M -6.4 -6.05
Q -6.99453125 -4.819921875 -7.1 -3.4 -3.8685546875 -4.0240234375 -0.15 -2.6 3.3578125 -1.1640625 5.85 0.25 0.40859375 -4.944921875 -6.4 -6.05 Z"/>

<path fill="#CC0000" stroke="none" d="
M -7.05 -1.75
Q -7.00859375 -1.326171875 -6.95 -0.95 -0.359375 -1.3626953125 5.05 1.4 -0.40390625 -2.634765625 -7.1 -2.65 -7.100390625 -2.194921875 -7.05 -1.75 Z"/>

<path fill="url(#Gradient_2)" stroke="none" d="
M 4.8 2.9
Q 5.0193359375 2.6380859375 5.2 2.35 -0.4443359375 -0.465234375 -6.85 -0.15 -6.6048828125 0.9744140625 -6.25 1.95 -1.65 4.55 4.8 2.9 Z"/>

<path fill="#FFCCCC" stroke="none" d="
M 6.35 -1.45
Q 6.35 -1.95 6.3 -2.4 6 -4.6 3.4 -6.2 0.8 -7.75 -1.7 -8.45 -4.2 -9.15 -5.15 -7.95 -5.6341796875 -7.237890625 -5.9 -6.85 1.6138671875 -5.6 6.25 0.05 6.35 -1.1353515625 6.35 -1.45 Z"/>
</g>

<g id="Duplicate_Items_Folder_pupil_0_Layer0_0_FILL">
<path fill="#CC0000" stroke="none" d="
M 1.5 -1.4
Q 0.95 -2 0.15 -2 -0.65 -2 -1.25 -1.4 -1.8 -0.75 -1.8 0.15 -1.8 1.05 -1.25 1.65 -0.65 2.3 0.15 2.3 0.95 2.3 1.5 1.65 2.1 1.05 2.1 0.15 2.1 -0.75 1.5 -1.4 Z"/>
</g>

<path id="Layer0_0_1_STROKES" stroke="#666666" stroke-width="1" stroke-linejoin="round" stroke-linecap="round" fill="none" d="
M 244.95 150.95
L 252.1 151.4"/>
</defs>

<g transform="matrix( 1, 0, 0, 1, 0,0) ">
<use xlink:href="#Layer0_0_1_STROKES"/>
</g>

<g transform="matrix( 6.2001953125, 0, 0, 6.2001953125, 279.75,411.05) ">
<g transform="matrix( 1, 0, 0, 1, 0,0) ">
<use xlink:href="#leg_3_0_Layer2_0_FILL"/>
</g>

<g transform="matrix( 1, 0, 0, 1, 0,0) ">
<use xlink:href="#leg_3_0_Layer1_0_FILL"/>
</g>

<g transform="matrix( 1, 0, 0, 1, 0,0) ">
<use xlink:href="#leg_3_0_Layer0_0_FILL"/>
</g>
</g>

<g transform="matrix( 6.2001953125, 0, 0, 6.2001953125, 411.7,393.9) ">
<g transform="matrix( 1, 0, 0, 1, 0,0) ">
<use xlink:href="#leg_3_0_Layer2_0_FILL"/>
</g>

<g transform="matrix( 1, 0, 0, 1, 0,0) ">
<use xlink:href="#leg_3_0_Layer1_0_FILL"/>
</g>

<g transform="matrix( 1, 0, 0, 1, 0,0) ">
<use xlink:href="#leg_3_0_Layer0_0_FILL"/>
</g>
</g>

<g transform="matrix( 7.503662109375, 0, 0, 7.503662109375, 510.75,303.9) ">
<g transform="matrix( 1, 0, 0, 1, 0,0) ">
<use xlink:href="#Duplicate_Items_Folder_tail_0_Layer0_0_FILL"/>
</g>
</g>

<g transform="matrix( 7.4696502685546875, 0.6900177001953125, -0.6900177001953125, 7.4696502685546875, 370.2,392) ">
<g transform="matrix( 1, 0, 0, 1, 0,0) ">
<use xlink:href="#Duplicate_Items_Folder_stand_body_0_Layer2_0_FILL"/>
</g>

<g transform="matrix( 1, 0, 0, 1, 0,0) ">
<use xlink:href="#Duplicate_Items_Folder_stand_body_0_Layer1_0_FILL"/>
</g>

<g transform="matrix( -0.507171630859375, -0.67327880859375, 0.686553955078125, -0.517181396484375, 4.4,-11.9) ">
<g transform="matrix( 1, 0, 0, 1, 0,0) ">
<use xlink:href="#bone_0_Layer0_0_FILL"/>
</g>
</g>
</g>

<g transform="matrix( 7.503662109375, 0, 0, 7.503662109375, 349.25,430.6) ">
<g transform="matrix( 1, 0, 0, 1, 0,0) ">
<use xlink:href="#leg_3_0_Layer2_0_FILL"/>
</g>

<g transform="matrix( 1, 0, 0, 1, 0,0) ">
<use xlink:href="#leg_3_0_Layer1_0_FILL"/>
</g>

<g transform="matrix( 1, 0, 0, 1, 0,0) ">
<use xlink:href="#leg_3_0_Layer0_0_FILL"/>
</g>
</g>

<g transform="matrix( 7.298980712890625, 0, 0, 6.343414306640625, 476,421.1) ">
<g transform="matrix( 1, 0, 0, 1, 0,0) ">
<use xlink:href="#leg_3_0_Layer2_0_FILL"/>
</g>

<g transform="matrix( 1, 0, 0, 1, 0,0) ">
<use xlink:href="#leg_3_0_Layer1_0_FILL"/>
</g>

<g transform="matrix( 1, 0, 0, 1, 0,0) ">
<use xlink:href="#leg_3_0_Layer0_0_FILL"/>
</g>
</g>

<g transform="matrix( 7.444366455078125, -0.919158935546875, 0.919158935546875, 7.444366455078125, 237.3,220.5) ">
<g transform="matrix( 1, 0, 0, 1, 0,0) ">
<use xlink:href="#Duplicate_Items_Folder_head_0_Layer1_0_FILL"/>
</g>

<g transform="matrix( 1, 0, 0, 1, 0,0) ">
<use xlink:href="#Duplicate_Items_Folder_head_0_Layer0_0_FILL"/>
</g>
</g>

<g transform="matrix( 5.9319305419921875, -4.573028564453125, 4.573028564453125, 5.9319305419921875, 369.75,138.5) ">
<g transform="matrix( 1, 0, 0, 1, 0,0) ">
<use xlink:href="#Duplicate_Items_Folder_ear_0_Layer0_0_FILL"/>
</g>
</g>

<g transform="matrix( -5.9319305419921875, -4.573028564453125, -4.573028564453125, 5.9319305419921875, 101.1,144.75) ">
<g transform="matrix( 1, 0, 0, 1, 0,0) ">
<use xlink:href="#Duplicate_Items_Folder_ear_0_Layer0_0_FILL"/>
</g>
</g>

<g transform="matrix( 2.1879119873046875, -0.2700958251953125, 0.2700958251953125, 2.1879119873046875, 104.35,95.25) ">
<g transform="matrix( 1, 0, 0, 1, 0,0) ">
<use xlink:href="#Duplicate_Items_Folder_eye_0_Layer0_0_FILL"/>
</g>
</g>

<g transform="matrix( 8.87261962890625, -1.095550537109375, 1.095550537109375, 8.87261962890625, 248.3,308.6) ">
<g transform="matrix( 1, 0, 0, 1, 0,0) ">
<use xlink:href="#Duplicate_Items_Folder_nose_0_Layer1_0_FILL"/>
</g>

<g transform="matrix( 1, 0, 0, 1, 0,0) ">
<use xlink:href="#Duplicate_Items_Folder_nose_0_Layer0_0_FILL"/>
</g>
</g>

<g transform="matrix( 5.0819091796875, 0, 0, 4.883026123046875, 279.75,179.05) ">
<g transform="matrix( 1, 0, 0, 1, 0,0) ">
<use xlink:href="#Duplicate_Items_Folder_eye_missing_0_Layer1_0_FILL"/>
</g>

<g transform="matrix( 1, 0, 0, 1, 0,0) ">
<use xlink:href="#Duplicate_Items_Folder_eye_missing_0_Layer0_0_FILL"/>
</g>
</g>

<g transform="matrix( 4.6128692626953125, -0.56964111328125, 0.56964111328125, 4.6128692626953125, 201.6,169.55) ">
<g transform="matrix( 1, 0, 0, 1, 0,0) ">
<use xlink:href="#Duplicate_Items_Folder_pupil_0_Layer0_0_FILL"/>
</g>
</g>
</svg>
