
<svg xmlns="http://www.w3.org/2000/svg" version="1.1" xmlns:xlink="http://www.w3.org/1999/xlink" preserveAspectRatio="none" x="0px" y="0px" width="560px" height="544px" viewBox="0 0 560 544">
<defs>
<g id="leg_3_0_Layer2_0_FILL">
<path fill="#E6BFB9" stroke="none" d="
M -3.3 -8.35
Q -3.445703125 -8.346875 -2.85 -3.05 -2.21328125 2.240625 -5 7.1 -4.3 9.45 -2.25 9 -0.45 3.2 -1.25 -7.75 -2.4 -8.45 -3.3 -8.35 Z"/>

<path fill="#FBF5F4" stroke="none" d="
M -0.25 -2.2
L -0.35 -7
Q -0.45 -7.1 -0.55 -7.2 -0.9 -7.5 -1.25 -7.75 -0.45 3.2 -2.25 9
L -1.15 9.05
Q -0.2 9.3 0.05 9.4 0.3 9.5 0.95 9.45 1.6 9.4 1.9 8.8 2.2 8.15 2.05 7.2 1.85 6.2 1.3 5.5 1.2 5.4 1.05 5.35 -0.35 1.6 -0.25 -2.2 Z"/>

<path fill="#000000" stroke="none" d="
M 0.45 -1.95
L 0.4 -6.8 -0.55 -7.2
Q -0.45 -7.1 -0.35 -7
L -0.25 -2.2
Q -0.35 1.6 1.05 5.35 1.2 5.4 1.3 5.5 1.85 6.2 2.05 7.2 2.2 8.15 1.9 8.8 1.6 9.4 0.95 9.45 0.3 9.5 0.05 9.4 -0.2 9.3 -1.15 9.05
L -2.25 9
Q -4.3 9.45 -5 7.1 -2.21328125 2.240625 -2.85 -3.05 -3.445703125 -8.346875 -3.3 -8.35
L -4.3 -8.75
Q -2.23984375 1.73984375 -6.25 7.3 -5.25 11.15 -0.2 9.95
L 0.75 10.2
Q 1.25 10.35 1.8 10.2 2.3 10.15 2.7 9.35 3.05 8.6 2.9 7.4 2.7 6.25 2.35 5.9 2 5.4 1.4 3.4 0.9 1.4 0.45 -1.95 Z"/>
</g>

<g id="leg_3_0_Layer1_0_FILL">
<path fill="#FBF5F4" stroke="none" d="
M -7.5 8
Q -7.45 9.1 -6.9 9.6 -6.4 10.05 -5.8 10.2 -5.3 10.35 -5 10.05 -5 10 -5 9.95 -5.1 9.65 -5.1 9.35 -6.7 9.25 -7.5 8 Z"/>

<path fill="#000000" stroke="none" d="
M -4.7 5.25
L -4.5 4.7
Q -5 4.15 -5.6 4.1 -6.25 4 -6.8 4.9 -7.05 5.1 -7.2 5.4 -7.85 6.6 -7.9 7.85 -7.9 7.95 -7.9 8.1 -7.85 9.45 -7.2 10.05 -6.55 10.55 -5.8 10.75 -5.2 10.95 -4.85 10.7
L -5 10.05
Q -5.3 10.35 -5.8 10.2 -6.4 10.05 -6.9 9.6 -7.45 9.1 -7.5 8
L -7.55 7.95
Q -7.45 6.9 -6.95 5.75 -6.7 5.3 -6.4 5.1 -5.95 4.65 -5.6 4.7 -5.15 4.7 -4.7 5.25 Z"/>

<path fill="#E6BFB9" stroke="none" d="
M -4.85 5.9
L -4.9 5.9
Q -5.25 5.3 -6.4 5.1 -6.7 5.3 -6.95 5.75 -7.45 6.9 -7.55 7.95
L -7.5 8
Q -6.7 9.25 -5.1 9.35 -5.15 8.8 -5.2 8.1 -5.1 6.9 -4.85 5.9 Z"/>

<path fill="#FFF7F7" stroke="none" d="
M -4.9 5.9
L -4.85 5.9
Q -4.8 5.5 -4.7 5.25 -5.15 4.7 -5.6 4.7 -5.95 4.65 -6.4 5.1 -5.25 5.3 -4.9 5.9 Z"/>
</g>

<g id="leg_3_0_Layer0_0_FILL">
<path fill="#FBF5F4" stroke="none" d="
M -5.2 9.35
Q -5.2 9.4 -5.15 9.4 -4.95 9.75 -4.8 9.95 -4.25 10.75 -3.3 10.7 -2.4 10.55 -1.65 10.2 -1.6 10.1 -1.4 10 -1.3 9.85 -1.15 9.55 -1 9.4 -1 9.2
L -1 9.1
Q -0.95 9 -0.9 8.95 -3 10.45 -5.2 9.35 Z"/>

<path fill="#000000" stroke="none" d="
M -3.1 4.4
Q -2.25 4.45 -1.4 5.9 -1.35 6.05 -1.3 6.2
L -0.65 6.3 -0.65 6.25 -1.1 5.4
Q -1.15 5.4 -1.15 5.3 -2 3.75 -3.05 3.7 -4.1 3.65 -5 4.9 -5.05 4.9 -5.1 5 -5.15 5.1 -5.2 5.2 -5.2 5.25 -5.2 5.3
L -5.45 5.7 -5.4 5.7
Q -5.5 5.9 -5.55 6.15 -5.8 6.9 -5.9 7.85 -5.85 8.3 -5.85 8.75 -5.8 9 -5.75 9.2
L -5.7 9.25 -5.6 9.75
Q -5.55 9.85 -5.55 9.95 -5.5 9.95 -5.5 10.05 -5.3 10.3 -5.15 10.55 -4.6 11.25 -3.95 11.35 -3.65 11.45 -3.3 11.45 -2.25 11.25 -1.4 10.75 -1.15 10.6 -0.95 10.45 -0.9 10.45 -0.45 9.45 -0.35 9.2 -0.35 9.05 -0.35 8.95 -0.3 8.9 -0.3 8.8 -0.3 8.7
L -0.35 8.75 -0.9 8.85
Q -0.9 8.9 -0.9 8.95 -0.95 9 -1 9.1
L -1 9.2
Q -1 9.4 -1.15 9.55 -1.3 9.85 -1.4 10 -1.6 10.1 -1.65 10.2 -2.4 10.55 -3.3 10.7 -4.25 10.75 -4.8 9.95 -4.95 9.75 -5.15 9.4 -5.2 9.4 -5.2 9.35 -5.2 9.2 -5.2 8.95 -5.4 8.4 -5.35 7.8 -5.3 6.9 -5.1 6.2 -5 6 -4.85 5.8 -4.75 5.55 -4.65 5.4 -4.05 4.35 -3.1 4.4 Z"/>

<path fill="#FFF7F7" stroke="none" d="
M -2.25 5.4
Q -1.45 6.1 -1.4 6.15 -1.35 6.25 -1.2 6.4
L -1.2 6.35
Q -1.25 6.25 -1.3 6.2 -1.35 6.05 -1.4 5.9 -2.25 4.45 -3.1 4.4 -4.05 4.35 -4.65 5.4 -4.75 5.55 -4.85 5.8 -5 6 -5.1 6.2 -3.05 4.7 -2.25 5.4 Z"/>

<path fill="#E6BFB9" stroke="none" d="
M -1.4 6.15
Q -1.45 6.1 -2.25 5.4 -3.05 4.7 -5.1 6.2 -5.3 6.9 -5.35 7.8 -5.4 8.4 -5.2 8.95 -5.2 9.2 -5.2 9.35 -3 10.45 -0.9 8.95 -0.9 8.9 -0.9 8.85
L -0.35 8.75 -0.4 6.65
Q -0.75 6.55 -1.15 6.4
L -1.2 6.4
Q -1.35 6.25 -1.4 6.15 Z"/>
</g>

<g id="tail_0_Layer0_0_FILL">
<path fill="#000000" stroke="none" d="
M -1.3 -5.2
Q -2 -5.45 -2.35 -4.8 -2.65 -4.25 -3.05 -2.05 -3.5 0.15 -5.3 1.3 -7.1 2.4 -8.35 3.2 -6.15 4.2 -4.3 3.25 -2.5 2.35 -1.65 1.7 -0.9 1.05 -0.25 -0.05 0.35 -1.15 -0.05 -3.05 -0.5 -4.95 -1.3 -5.2 Z"/>
</g>

<g id="stand_body_0_Layer1_0_FILL">
<path fill="#E6BFB9" stroke="none" d="
M 5.85 -2.45
Q 2.6119140625 -2.8794921875 0.55 -2.85 -2.82265625 -2.98203125 -3.6 -5.4 -6.573828125 -9.4171875 -11.15 -6.6 -11.01640625 -6.268359375 -10.9 -5.9 -10.05 -3.45 -8.2 0.1 -5.9517578125 4.5525390625 3 4.3 3.3880859375 4.2904296875 3.6 4.2
L 3.55 4.2 4.9 3.9
Q 9.1328125 -1.9693359375 5.85 -2.45 Z"/>

<path fill="#FBF5F4" stroke="none" d="
M 4.3 -10.85
Q 2.4390625 -10.8017578125 0.6 -10.85 -1.1890625 -10.849609375 -1.65 -10.85 -2.058203125 -10.8484375 -3.55 -10.85 -4.9916015625 -10.8115234375 -5.45 -10.9 -5.85703125 -10.93828125 -7.7 -10.65 -9.49765625 -10.30390625 -11.4 -7.6 -11.2775390625 -7.1408203125 -11.15 -6.6 -6.573828125 -9.4171875 -3.6 -5.4 -2.82265625 -2.98203125 0.55 -2.85 2.6119140625 -2.8794921875 5.85 -2.45 9.1328125 -1.9693359375 4.9 3.9 7.723046875 3.126953125 9.2 1.65 11.6 -0.75 11.9 -1.05 12.05 -1.4 12.8 -2.5 12.95 -2.65 13.1 -2.9 13.5 -3.75 13.65 -4.45 13.65 -5.4 13.5 -5.3
L 13.3 -6.2
Q 13.2 -7.1 11.4 -8.9 9.6 -10.65 7.9 -10.8 6.1572265625 -10.848828125 4.3 -10.85 Z"/>
</g>

<g id="stand_body_0_Layer0_0_FILL">
<path fill="#FF0000" stroke="none" d="
M 4.4 1.2
Q 4.25 0.6 3.95 0.25 3.65 -0.15 3.35 -0.05 3.1 0.05 3.05 0.55 2.95 1.05 3.1 1.65 3.25 2.2 3.55 2.55 3.85 2.95 4.15 2.85 4.4 2.75 4.5 2.3 4.55 1.85 4.4 1.2
M 3.55 -5.1
Q 3 -4.95 2.7 -4.55 2.3 -4.1 2.3 -3.5 2.25 -2.9 2.6 -2.5 2.95 -2.1 3.5 -2.25 4.1 -2.3 4.25 -2.3 4.35 -2.05 4.85 -1.25 5.4 -0.45 5.8 -0.3 6.3 -0.15 6.5 -0.95 6.7 -1.75 6.75 -2.05 6.8 -2.3 7 -2.3 7.25 -2.2 7.5 -2.5 7.7 -2.8 7.7 -3.15 7.55 -3.6 7.7 -3.65 8.1 -3.8 8.35 -4.1 8.7 -4.4 8.7 -4.75 8.6 -5.15 8.25 -5.35 7.9 -5.55 7.4 -5.5 7.2 -5.5 7.05 -5.45 6.85 -5.5 6.7 -5.55 6.05 -5.8 5.2 -5.7 4.3 -5.6 3.65 -5.15 3.6 -5.1 3.55 -5.1 Z"/>
</g>

<g id="head_0_Layer4_0_FILL">
<path fill="#FFFFFF" stroke="none" d="
M -3 18.25
Q -3.8 16.85 -3.75 15.05 -4.9 15.95 -5.2 17.85 -4.1 17.95 -3 18.25
M 7.05 21.45
Q 7.85 20.5 7.45 18.35 6.1 20.4 4.95 20.85 6.15 21.1 7.05 21.45 Z"/>

<path fill="#FBF5F4" stroke="none" d="
M 4.95 20.85
Q 3.75 20.55 1.35 20.45 -0.6 18.75 -3 18.25 -4.1 17.95 -5.2 17.85 -6.6 17.65 -7.9 17.85 -8.05 18.75 -6.8 20.1 -5.5 21.45 1.25 23.75 7.95 26 10.05 23.1 9.8 22.25 7.05 21.45 6.15 21.1 4.95 20.85 Z"/>

<path fill="#EEE8E8" stroke="none" d="
M 0.55 10
Q 5.1 5.3 3.15 0.95 0.45 -1.6 -3.4 -1.5 -4 -1.05 -4.85 -0.5 -7.45 1.4 -7.95 3.7 -8.5 6.05 -8.05 6.85
L -7.35 8.6 -7.1 9.8
Q -7.05 10.8 -7 10.25 -4.4 12.3 0.55 10 Z"/>

<path fill="#DEB5A9" stroke="none" d="
M 4 -4.85
Q 2.05 -4.85 1.15 -4 -0.8 -2.9 -1.45 -2.65 -2.25 -2.25 -3.4 -1.5 0.45 -1.6 3.15 0.95 5.1 5.3 0.55 10 -4.4 12.3 -7 10.25 -7.1 12.95 -7.45 13.9 -8.05 15.9 -7.9 17.85 -6.6 17.65 -5.2 17.85 -4.9 15.95 -3.75 15.05 -3.8 16.85 -3 18.25 -0.6 18.75 1.35 20.45 3.75 20.55 4.95 20.85 6.1 20.4 7.45 18.35 7.85 20.5 7.05 21.45 9.8 22.25 10.05 23.1 10.6 22.55 11.05 21.9
L 13.85 16
Q 19.05 12.3 17.15 4.5 14.9 1 11.8 -2.45 8.3 -4.85 4 -4.85 Z"/>
</g>

<g id="head_0_Layer3_0_FILL">
<path fill="#1E1815" stroke="none" d="
M 1.95 17.45
L 2.4 16 1.95 17.45 2.55 17.65
Q 5.55 17.1 6.85 13.65 4 10.95 0.15 11.5 -1.05 14.65 1.5 17.3
L 1.95 17.45
M 5.1 14.2
Q 5.35 14.55 5.3 14.95 5.15 15.2 4.8 15.35 4.7 15.35 4.6 15.35 4.6 15.3 4 14.9 3.15 14.45 3.25 14.1 3.4 13.8 3.65 13.75 4.1 13.65 4.5 13.7 4.95 13.8 5.1 14.2
M 1.7 13.95
Q 1.4 14.1 1.15 14.1 0.95 14.1 0.75 13.7 0.55 13.4 0.65 13.15 0.75 12.9 1.1 12.65 1.5 12.7 1.75 12.75 2.15 12.9 2.45 13.3 2.65 13.55 2.35 13.65 2.1 13.75 1.7 13.95 Z"/>

<path fill="#000000" stroke="none" d="
M 1.15 14.1
Q 1.4 14.1 1.7 13.95 2.1 13.75 2.35 13.65 2.65 13.55 2.45 13.3 2.15 12.9 1.75 12.75 1.5 12.7 1.1 12.65 0.75 12.9 0.65 13.15 0.55 13.4 0.75 13.7 0.95 14.1 1.15 14.1
M 5.3 14.95
Q 5.35 14.55 5.1 14.2 4.95 13.8 4.5 13.7 4.1 13.65 3.65 13.75 3.4 13.8 3.25 14.1 3.15 14.45 4 14.9 4.6 15.3 4.6 15.35 4.7 15.35 4.8 15.35 5.15 15.2 5.3 14.95 Z"/>
</g>

<g id="head_0_Layer2_0_FILL">
<path fill="#836447" stroke="none" d="
M 21.6 -0.1
Q 22.8 -1.65 22.85 -3.2 22 -4.85 21.05 -4.65 20.65 -5.05 21.2 -6.75 21.85 -8.35 21.85 -9.6 21.85 -10.2 21.5 -10.85 20.75 -5.85 18.65 -1.35 18.75 3.65 21.75 0.75
L 21.6 -0.1
M 3.55 -16.45
Q 2.75 -15.55 2.15 -14 1.45 -12.35 0.85 -12.3 0.35 -13.1 -1.3 -12.45 -2.35 -11.25 -2.5 -9.4
L -3.15 -8.9
Q -2.95 -4.65 0.45 -8.2 1.9 -13 4.6 -17.2 3.95 -16.95 3.55 -16.45 Z"/>

<path fill="#C99797" stroke="none" d="
M 19.7 -5.85
Q 18.3 -2.85 17.2 -2.05 16.6 -0.4 18.1 2.2 19.45 2.45 20.6 3.9 21.6 3.3 21.9 2
L 21.75 0.75
Q 18.75 3.65 18.65 -1.35 20.75 -5.85 21.5 -10.85 21.3 -11.35 20.8 -11.85 21.15 -9.45 19.7 -5.85
M 5.8 -17.4
Q 5.15 -17.3 4.6 -17.2 1.9 -13 0.45 -8.2 -2.95 -4.65 -3.15 -8.9
L -4.1 -8.05
Q -4.75 -6.85 -4.45 -5.7 -2.6 -6 -1.5 -5.15 1.35 -6.05 2.05 -7.65 1.7 -9 2.65 -12.25 4 -15.9 5.8 -17.4 Z"/>

<path fill="#FFF4F0" stroke="none" d="
M 18.8 -6.2
Q 18.3 -5.3 16.1 -3.85 15.1 -3.15 14.1 -2.7 12.75 -2.35 17.8 5 20.2 5.3 20.6 3.9 19.45 2.45 18.1 2.2 16.6 -0.4 17.2 -2.05 18.3 -2.85 19.7 -5.85 21.15 -9.45 20.8 -11.85 20.75 -11.9 20.75 -11.95 19.6 -7.6 18.8 -6.2
M 6 -17.3
Q 5.85 -17.35 5.8 -17.4 4 -15.9 2.65 -12.25 1.7 -9 2.05 -7.65 1.35 -6.05 -1.5 -5.15 -2.6 -6 -4.45 -5.7 -4.8 -5.15 -4.4 -4.6 -4 -4 -2.75 -3.3 -2.3 -3.4 -1.8 -3.45 5.4 -4.75 4.65 -5.9 4.25 -7 3.95 -8.25 3.35 -10.75 3.55 -11.75 3.85 -13.35 6 -17.3 Z"/>
</g>

<g id="head_0_Layer1_0_FILL">
<path fill="#FFFFFF" stroke="none" d="
M -0.5 2.7
Q -0.95 2.2 -2 2.3 -2.2 2.3 -2.4 2.4 -3.8 2.6 -5.25 3.45 -6.2 3.9 -6.5 4.75 -6.7 5.2 -6.6 5.8 -6.5 7.35 -5.45 8.3 -4.3 9.3 -2.9 9.05 -1.5 8.85 -0.6 7.65 0.3 6.3 0.15 4.75 0.05 3.25 -0.5 2.7
M -4.2 5.05
Q -4 4.3 -3.35 3.95 -2.9 3.75 -2.45 3.8 -2.25 3.8 -2 3.9 -1.35 4.15 -1 4.8 -0.7 5.45 -0.95 6.2 -1.15 6.95 -1.85 7.25 -2.5 7.6 -3.15 7.3 -3.85 7.1 -4.15 6.4 -4.35 6 -4.3 5.55 -4.3 5.25 -4.2 5.05
M 12.45 7
Q 11.65 6.35 11.05 6.5 10.25 6.65 9.4 7.85 8.45 9.2 8.6 10.8 8.8 12.35 9.85 13.25 10.9 14.15 12.35 13.95 13.7 13.65 14.6 12.4 15 11.95 15.05 11.45 15.2 10.6 14.75 9.7 13.85 8.2 12.75 7.25 12.65 7.1 12.45 7
M 11.65 8.3
Q 11.9 8.35 12.15 8.45 12.5 8.7 12.75 9.05 13.15 9.7 13 10.45 12.95 10.7 12.8 10.95 12.6 11.35 12.25 11.6 11.6 12 10.9 11.85 10.2 11.75 9.85 11.1 9.45 10.45 9.6 9.75 9.75 9 10.4 8.55 10.95 8.15 11.65 8.3 Z"/>

<path fill="#99CC00" stroke="none" d="
M -3.35 3.95
Q -4 4.3 -4.2 5.05 -4.3 5.25 -4.3 5.55 -4.35 6 -4.15 6.4 -3.85 7.1 -3.15 7.3 -2.5 7.6 -1.85 7.25 -1.15 6.95 -0.95 6.2 -0.7 5.45 -1 4.8 -1.35 4.15 -2 3.9 -2.25 3.8 -2.45 3.8 -2.9 3.75 -3.35 3.95
M -2.75 5.7
Q -2.85 5.45 -2.75 5.2 -2.7 4.95 -2.5 4.85 -2.25 4.7 -2 4.8 -1.8 4.85 -1.7 5.1 -1.6 5.35 -1.65 5.65 -1.75 5.9 -2 6 -2.15 6.1 -2.4 6 -2.6 5.95 -2.75 5.7 Z"/>

<path fill="#000000" stroke="none" d="
M -2.75 5.2
Q -2.85 5.45 -2.75 5.7 -2.6 5.95 -2.4 6 -2.15 6.1 -2 6 -1.75 5.9 -1.65 5.65 -1.6 5.35 -1.7 5.1 -1.8 4.85 -2 4.8 -2.25 4.7 -2.5 4.85 -2.7 4.95 -2.75 5.2
M 11.2 9.1
Q 11 9.05 10.75 9.2 10.55 9.4 10.5 9.65 10.45 9.95 10.55 10.1 10.75 10.3 10.95 10.35 11.15 10.4 11.35 10.3 11.55 10.1 11.65 9.85 11.75 9.6 11.55 9.4 11.4 9.15 11.2 9.1 Z"/>

<path fill="#FF0000" stroke="none" d="
M 12.15 8.45
Q 11.9 8.35 11.65 8.3 10.95 8.15 10.4 8.55 9.75 9 9.6 9.75 9.45 10.45 9.85 11.1 10.2 11.75 10.9 11.85 11.6 12 12.25 11.6 12.6 11.35 12.8 10.95 12.95 10.7 13 10.45 13.15 9.7 12.75 9.05 12.5 8.7 12.15 8.45
M 10.75 9.2
Q 11 9.05 11.2 9.1 11.4 9.15 11.55 9.4 11.75 9.6 11.65 9.85 11.55 10.1 11.35 10.3 11.15 10.4 10.95 10.35 10.75 10.3 10.55 10.1 10.45 9.95 10.5 9.65 10.55 9.4 10.75 9.2 Z"/>
</g>

<g id="head_0_Layer0_0_FILL">
<path fill="#000000" stroke="none" d="
M 14.25 -4.85
Q 13.25 -4.45 12.4 -3.9 10.2 -2.5 9.3 0 10 0.95 11.05 1.45 11.9 1.85 12.9 2.05 12.9 2.2 12.95 2.3 13.7 3.5 15.1 4.1 15.1 5.05 15.45 5.85 15.9 7.25 17.2 8.15 20.4 7.1 22.1 2.95 22 2.65 21.8 2.55 20.25 1.25 17.7 0.95 17.2 -0.1 16.3 -0.55 16.15 -0.6 15.95 -0.7 15.95 -0.9 16.05 -1.05 15.85 -3.5 14.25 -4.85
M 12.75 -3.45
Q 13.2 -3.8 13.95 -3.95
L 14.05 -3.9
Q 15.5 -3.2 15.35 -0.95 15.25 -0.95 15.1 -0.9 15.05 -0.6 14.95 -0.45 14.9 -0.45 14.9 -0.4 14.35 0.55 13.5 1.15 13.3 1.4 13.1 1.45 11.95 1.45 11.3 1 10.65 0.6 10.35 -0.4
L 10.3 -0.45
Q 11.1 -2.55 12.75 -3.45
M 15 -0.2
Q 15.05 -0.25 15 -0.35 15.15 -0.35 15.3 -0.25 15.6 -0.15 15.9 0 16.75 0.5 17.05 1.25 17.15 1.45 17.2 1.7 17.05 1.65 17 1.7 16.45 2 16.1 2.45 15.75 2.85 15.5 3.35 15.4 3.4 15.35 3.65 15.25 3.7 15.2 3.75 15.1 3.75 15.05 3.65 13.8 3.2 13.3 2.1 13.2 1.95 13.15 1.75 13.4 1.65 13.7 1.55 14.75 0.9 15 -0.2
M 21.45 3
L 21.45 3.1
Q 20.3 6.05 17.5 7.25 17.35 7.25 17.2 7.25 16.25 6.65 15.9 5.8 15.5 4.9 15.55 3.7 15.7 3.6 15.75 3.6 16.3 2.75 17.15 2.15 17.35 2.05 17.6 1.8 20.3 1.8 21.45 3
M 2.1 -1.45
Q 2.85 -0.9 3.8 -0.7 5.2 -0.35 6.7 -0.9 7.5 -4.15 5.1 -7.85 4.8 -7.9 4.55 -7.8 2.6 -7.25 0.9 -5.3 -0.15 -5.55 -1.05 -5.05 -1.2 -4.9 -1.4 -4.8 -1.55 -4.95 -1.6 -5 -3.8 -6.3 -5.8 -5.7 -6 -4.65 -6.05 -3.65 -6.1 -1.05 -4.55 1.1 -3.35 1.1 -2.3 0.5 -1.55 0.05 -0.8 -0.75 -0.65 -0.7 -0.55 -0.7 0.85 -0.6 2.1 -1.45
M 4.75 -7.35
L 4.8 -7.25
Q 6.6 -4.6 6.05 -1.6 5.95 -1.5 5.85 -1.4 4.95 -1 3.95 -1.15 3 -1.25 2.05 -2
L 2.05 -2.2
Q 1.65 -3.2 1.65 -4.25 1.6 -4.45 1.6 -4.7 3.05 -6.95 4.75 -7.35
M 1.15 -4.25
Q 1.1 -3.7 1.3 -3.15 1.45 -2.65 1.7 -2.15 1.75 -2 1.85 -1.85 1.8 -1.75 1.85 -1.7 1.8 -1.65 1.7 -1.6 0.65 -0.8 -0.55 -1 -0.75 -1.05 -0.95 -1.05 -0.85 -1.45 -0.8 -1.75 -0.75 -2.9 -1.5 -3.7 -1.55 -3.75 -1.6 -3.75 -1.55 -3.9 -1.4 -3.95 -1.1 -4.2 -0.85 -4.35 0.05 -4.75 0.8 -4.6 1.1 -4.65 1.25 -4.45 1.2 -4.35 1.15 -4.25
M -5.5 -3.65
Q -5.5 -4.25 -5.25 -4.95
L -5.1 -4.95
Q -3.7 -5.75 -1.95 -4.4 -2 -4.3 -2 -4.2 -1.85 -4 -1.75 -3.8 -1.8 -3.75 -1.75 -3.7 -1.25 -2.75 -1.2 -1.7 -1.1 -1.35 -1.2 -1.25 -1.8 -0.3 -2.6 0.05 -3.3 0.4 -4.25 0.1
L -4.35 0.05
Q -5.6 -1.75 -5.5 -3.65 Z"/>

<path fill="#C60041" stroke="none" d="
M 15.75 3.6
Q 16.1 3.8 16.65 4.1 17.6 4.6 17.85 4.4 18.35 3.9 17.75 3.05 17.55 2.55 17.15 2.15 16.3 2.75 15.75 3.6
M 21.45 3.1
L 21.45 3
Q 19.6 6 17.2 7.25 17.35 7.25 17.5 7.25 20.3 6.05 21.45 3.1
M 15 -0.35
Q 15.05 -0.25 15 -0.2 14.75 0.9 13.7 1.55 13.4 1.65 13.15 1.75 13.2 1.95 13.3 2.1 13.8 3.2 15.05 3.65 15.1 3.75 15.2 3.75 15.25 3.7 15.35 3.65 15.4 3.4 15.5 3.35 15.75 2.85 16.1 2.45 16.45 2 17 1.7 17.05 1.65 17.2 1.7 17.15 1.45 17.05 1.25 16.75 0.5 15.9 0 15.6 -0.15 15.3 -0.25 15.15 -0.35 15 -0.35
M 16.3 1.55
Q 16.05 1.85 15.75 2.15 15.45 2.45 15 2.9
L 15 3
Q 14.8 3.05 14.5 2.5
L 14.55 2.5
Q 16.05 1.7 15.5 0.4 16.2 0.6 16.3 1.55
M 14.2 -0.7
Q 13.25 -1.3 12.85 -1 12.55 -0.65 13 0.45 13.25 0.7 13.5 1.15 14.35 0.55 14.9 -0.4 14.55 -0.5 14.2 -0.7
M 13.95 -3.95
Q 13.2 -3.8 12.75 -3.45 11.1 -2.55 10.3 -0.45
L 10.35 -0.4
Q 11.55 -2.5 14.05 -3.9
L 13.95 -3.95
M -1.75 -3.7
Q -2 -3.5 -2.4 -3.4 -3.35 -2.9 -3.4 -2.4 -3.25 -1.9 -2.05 -1.7 -1.75 -1.75 -1.2 -1.7 -1.25 -2.75 -1.75 -3.7
M -5.25 -4.95
Q -5.5 -4.25 -5.5 -3.65 -5.6 -1.75 -4.35 0.05
L -4.25 0.1
Q -5.4 -2.15 -5.1 -4.95
L -5.25 -4.95
M 1.3 -3.15
Q 1.1 -3.7 1.15 -4.25 1.2 -4.35 1.25 -4.45 1.1 -4.65 0.8 -4.6 0.05 -4.75 -0.85 -4.35 -1.1 -4.2 -1.4 -3.95 -1.55 -3.9 -1.6 -3.75 -1.55 -3.75 -1.5 -3.7 -0.75 -2.9 -0.8 -1.75 -0.85 -1.45 -0.95 -1.05 -0.75 -1.05 -0.55 -1 0.65 -0.8 1.7 -1.6 1.8 -1.65 1.85 -1.7 1.8 -1.75 1.85 -1.85 1.75 -2 1.7 -2.15 1.45 -2.65 1.3 -3.15
M 1.15 -1.9
Q 1.1 -1.75 0.4 -1.8 0.6 -3.55 -0.75 -3.8 -0.2 -4.25 0.65 -3.85 0.75 -3.45 0.85 -3.05 0.95 -2.6 1.1 -1.95
L 1.15 -1.9
M 3.85 -3.55
Q 3.75 -4.15 2.7 -4.2 2.2 -4.25 1.65 -4.25 1.65 -3.2 2.05 -2.2 2.45 -2.4 2.95 -2.75 3.95 -3.15 3.85 -3.55
M 4.8 -7.25
L 4.75 -7.35
Q 6.15 -4.05 5.85 -1.4 5.95 -1.5 6.05 -1.6 6.6 -4.6 4.8 -7.25 Z"/>

<path fill="#FF0054" stroke="none" d="
M 17.6 1.8
Q 17.35 2.05 17.15 2.15 17.55 2.55 17.75 3.05 18.35 3.9 17.85 4.4 17.6 4.6 16.65 4.1 16.1 3.8 15.75 3.6 15.7 3.6 15.55 3.7 15.5 4.9 15.9 5.8 16.25 6.65 17.2 7.25 19.6 6 21.45 3 20.3 1.8 17.6 1.8
M 12.85 -1
Q 13.25 -1.3 14.2 -0.7 14.55 -0.5 14.9 -0.4 14.9 -0.45 14.95 -0.45 15.05 -0.6 15.1 -0.9 15.25 -0.95 15.35 -0.95 15.5 -3.2 14.05 -3.9 11.55 -2.5 10.35 -0.4 10.65 0.6 11.3 1 11.95 1.45 13.1 1.45 13.3 1.4 13.5 1.15 13.25 0.7 13 0.45 12.55 -0.65 12.85 -1
M -2.4 -3.4
Q -2 -3.5 -1.75 -3.7 -1.8 -3.75 -1.75 -3.8 -1.85 -4 -2 -4.2 -2 -4.3 -1.95 -4.4 -3.7 -5.75 -5.1 -4.95 -5.4 -2.15 -4.25 0.1 -3.3 0.4 -2.6 0.05 -1.8 -0.3 -1.2 -1.25 -1.1 -1.35 -1.2 -1.7 -1.75 -1.75 -2.05 -1.7 -3.25 -1.9 -3.4 -2.4 -3.35 -2.9 -2.4 -3.4
M 2.7 -4.2
Q 3.75 -4.15 3.85 -3.55 3.95 -3.15 2.95 -2.75 2.45 -2.4 2.05 -2.2
L 2.05 -2
Q 3 -1.25 3.95 -1.15 4.95 -1 5.85 -1.4 6.15 -4.05 4.75 -7.35 3.05 -6.95 1.6 -4.7 1.6 -4.45 1.65 -4.25 2.2 -4.25 2.7 -4.2 Z"/>

<path fill="#FFFFFF" stroke="none" d="
M 15.75 2.15
Q 16.05 1.85 16.3 1.55 16.2 0.6 15.5 0.4 16.05 1.7 14.55 2.5
L 14.5 2.5
Q 14.8 3.05 15 3
L 15 2.9
Q 15.45 2.45 15.75 2.15
M 0.4 -1.8
Q 1.1 -1.75 1.15 -1.9
L 1.1 -1.95
Q 0.95 -2.6 0.85 -3.05 0.75 -3.45 0.65 -3.85 -0.2 -4.25 -0.75 -3.8 0.6 -3.55 0.4 -1.8 Z"/>
</g>

<path id="stand_body_0_Layer1_0_1_STROKES" stroke="#000000" stroke-width="1" stroke-linejoin="round" stroke-linecap="round" fill="none" d="
M 4.9 3.9
Q 7.723046875 3.126953125 9.2 1.65 11.6 -0.75 11.9 -1.05 12.05 -1.4 12.8 -2.5 12.95 -2.65 13.1 -2.9 13.5 -3.75 13.65 -4.45 13.65 -5.4 13.5 -5.3
L 13.3 -6.2
Q 13.2 -7.1 11.4 -8.9 9.6 -10.65 7.9 -10.8 6.1572265625 -10.848828125 4.3 -10.825 2.4390625 -10.8017578125 0.625 -10.825 -1.1890625 -10.849609375 -1.625 -10.85 -2.058203125 -10.8484375 -3.525 -10.825 -4.9916015625 -10.8115234375 -5.425 -10.875 -5.85703125 -10.93828125 -7.675 -10.625 -9.49765625 -10.30390625 -11.4 -7.6 -11.2775390625 -7.1408203125 -11.125 -6.6
M 3.575 4.225
L 4.9 3.9
M 3.6 4.2
Q 3.3880859375 4.2904296875 3.025 4.3 -5.9517578125 4.5525390625 -8.2 0.1 -10.05 -3.45 -10.9 -5.9 -11.01640625 -6.268359375 -11.125 -6.6"/>

<path id="head_0_Layer4_0_1_STROKES" stroke="#000000" stroke-width="0.8" stroke-linejoin="round" stroke-linecap="round" fill="none" d="
M 10.05 23.1
Q 10.6 22.55 11.05 21.9
L 13.85 16
Q 19.05 12.3 17.15 4.5 14.9 1 11.8 -2.45 8.3 -4.85 4 -4.85 2.05 -4.85 1.15 -4 -0.8 -2.9 -1.45 -2.65 -2.25 -2.25 -3.4 -1.5
M -7 10.25
Q -7.1 12.95 -7.45 13.9 -8.05 15.9 -7.9 17.85 -6.6 17.65 -5.2 17.85 -4.9 15.95 -3.75 15.05 -3.8 16.85 -3 18.25 -0.6 18.75 1.35 20.45 3.75 20.55 4.95 20.85 6.1 20.4 7.45 18.35 7.85 20.5 7.05 21.45 9.8 22.25 10.05 23.1 7.95 26 1.25 23.75 -5.5 21.45 -6.8 20.1 -8.05 18.75 -7.9 17.85
M 4.95 20.85
Q 6.15 21.1 7.05 21.45
M -3.4 -1.5
Q -4 -1.05 -4.85 -0.5 -7.45 1.4 -7.95 3.7 -8.5 6.05 -8.05 6.85
L -7.35 8.6 -7.1 9.8
Q -7.05 10.8 -7 10.25
M -5.2 17.85
Q -4.1 17.95 -3 18.25"/>

<path id="head_0_Layer3_0_1_STROKES" stroke="#000000" stroke-width="0.8" stroke-linejoin="round" stroke-linecap="round" fill="none" d="
M 2.4 16
L 1.95 17.45 1.5 17.3
Q -1.05 14.65 0.15 11.5 4 10.95 6.85 13.65 5.55 17.1 2.55 17.65
L 1.95 17.45 1.1 20.7"/>

<path id="head_0_Layer2_0_1_STROKES" stroke="#000000" stroke-width="0.8" stroke-linejoin="round" stroke-linecap="round" fill="none" d="
M 4.65 -5.9
Q 4.25 -7 3.95 -8.25 3.35 -10.75 3.55 -11.75 3.85 -13.35 6 -17.3 5.85 -17.35 5.8 -17.4 4 -15.9 2.65 -12.25 1.7 -9 2.05 -7.65 1.35 -6.05 -1.5 -5.15 -2.6 -6 -4.45 -5.7 -4.8 -5.15 -4.4 -4.6 -4 -4 -2.75 -3.3
M 4.6 -17.2
Q 3.95 -16.95 3.55 -16.45 2.75 -15.55 2.15 -14 1.45 -12.35 0.85 -12.3 0.35 -13.1 -1.3 -12.45 -2.35 -11.25 -2.5 -9.4
L -3.15 -8.9
M 5.8 -17.4
Q 5.15 -17.3 4.6 -17.2
M 14.1 -2.7
Q 15.1 -3.15 16.1 -3.85 18.3 -5.3 18.8 -6.2 19.6 -7.6 20.75 -11.95 20.75 -11.9 20.8 -11.85 21.3 -11.35 21.5 -10.85 21.85 -10.2 21.85 -9.6 21.85 -8.35 21.2 -6.75 20.65 -5.05 21.05 -4.65 22 -4.85 22.85 -3.2 22.8 -1.65 21.6 -0.1
L 21.75 0.75 21.9 2
Q 21.6 3.3 20.6 3.9 20.2 5.3 17.8 5
M 20.8 -11.85
Q 21.15 -9.45 19.7 -5.85 18.3 -2.85 17.2 -2.05 16.6 -0.4 18.1 2.2 19.45 2.45 20.6 3.9
M -3.15 -8.9
L -4.1 -8.05
Q -4.75 -6.85 -4.45 -5.7"/>

<path id="head_0_Layer1_0_1_STROKES" stroke="#000000" stroke-width="0.8" stroke-linejoin="round" stroke-linecap="round" fill="none" d="
M 11.65 8.3
Q 10.95 8.15 10.4 8.55 9.75 9 9.6 9.75 9.45 10.45 9.85 11.1 10.2 11.75 10.9 11.85 11.6 12 12.25 11.6 12.6 11.35 12.8 10.95 12.95 10.7 13 10.45 13.15 9.7 12.75 9.05 12.5 8.7 12.15 8.45 11.9 8.35 11.65 8.3 Z
M 11.05 6.5
Q 10.25 6.65 9.4 7.85 8.45 9.2 8.6 10.8 8.8 12.35 9.85 13.25 10.9 14.15 12.35 13.95 13.7 13.65 14.6 12.4 15 11.95 15.05 11.45 15.2 10.6 14.75 9.7 13.85 8.2 12.75 7.25 12.65 7.1 12.45 7 11.65 6.35 11.05 6.5 Z
M 14.4 6.3
Q 13.45 4.6 12.05 4.7
M -0.5 2.7
Q 0.05 3.25 0.15 4.75 0.3 6.3 -0.6 7.65 -1.5 8.85 -2.9 9.05 -4.3 9.3 -5.45 8.3 -6.5 7.35 -6.6 5.8 -6.7 5.2 -6.5 4.75 -6.2 3.9 -5.25 3.45 -3.8 2.6 -2.4 2.4 -2.2 2.3 -2 2.3 -0.95 2.2 -0.5 2.7 Z
M -4.2 5.05
Q -4 4.3 -3.35 3.95 -2.9 3.75 -2.45 3.8 -2.25 3.8 -2 3.9 -1.35 4.15 -1 4.8 -0.7 5.45 -0.95 6.2 -1.15 6.95 -1.85 7.25 -2.5 7.6 -3.15 7.3 -3.85 7.1 -4.15 6.4 -4.35 6 -4.3 5.55 -4.3 5.25 -4.2 5.05 Z
M -0.5 0.8
Q 0.9 0.45 1.55 2.15"/>

<path id="head_0_Layer1_0_2_STROKES" stroke="#666666" stroke-width="0.8" stroke-linejoin="round" stroke-linecap="round" fill="none" d="
M 9.05 2.15
Q 6.5 4.75 5.6 8.35
M 5.6 1.8
Q 6.4 4.95 5.1 7.3"/>
</defs>

<g transform="matrix( 7.177093505859375, 0, 0, 6.848785400390625, 239,422.2) ">
<g transform="matrix( 1, 0, 0, 1, 0,0) ">
<use xlink:href="#leg_3_0_Layer2_0_FILL"/>
</g>

<g transform="matrix( 1, 0, 0, 1, 0,0) ">
<use xlink:href="#leg_3_0_Layer1_0_FILL"/>
</g>

<g transform="matrix( 1, 0, 0, 1, 0,0) ">
<use xlink:href="#leg_3_0_Layer0_0_FILL"/>
</g>
</g>

<g transform="matrix( 7.177093505859375, 0, 0, 7.177093505859375, 357.5,401.3) ">
<g transform="matrix( 1, 0, 0, 1, 0,0) ">
<use xlink:href="#leg_3_0_Layer2_0_FILL"/>
</g>

<g transform="matrix( 1, 0, 0, 1, 0,0) ">
<use xlink:href="#leg_3_0_Layer1_0_FILL"/>
</g>

<g transform="matrix( 1, 0, 0, 1, 0,0) ">
<use xlink:href="#leg_3_0_Layer0_0_FILL"/>
</g>
</g>

<g transform="matrix( 8.685943603515625, 0, 0, 8.685943603515625, 471.9,296.85) ">
<g transform="matrix( 1, 0, 0, 1, 0,0) ">
<use xlink:href="#tail_0_Layer0_0_FILL"/>
</g>
</g>

<g transform="matrix( 8.646636962890625, 0.7988128662109375, -0.7988128662109375, 8.646636962890625, 309.2,399.25) ">
<g transform="matrix( 1, 0, 0, 1, 0,0) ">
<use xlink:href="#stand_body_0_Layer1_0_FILL"/>

<use xlink:href="#stand_body_0_Layer1_0_1_STROKES"/>
</g>

<g transform="matrix( 1, 0, 0, 1, 0,0) ">
<use xlink:href="#stand_body_0_Layer0_0_FILL"/>
</g>
</g>

<g transform="matrix( 8.685943603515625, 0, 0, 7.91790771484375, 284.85,446.8) ">
<g transform="matrix( 1, 0, 0, 1, 0,0) ">
<use xlink:href="#leg_3_0_Layer2_0_FILL"/>
</g>

<g transform="matrix( 1, 0, 0, 1, 0,0) ">
<use xlink:href="#leg_3_0_Layer1_0_FILL"/>
</g>

<g transform="matrix( 1, 0, 0, 1, 0,0) ">
<use xlink:href="#leg_3_0_Layer0_0_FILL"/>
</g>
</g>

<g transform="matrix( 8.449066162109375, 0, 0, 7.3425750732421875, 432,432.75) ">
<g transform="matrix( 1, 0, 0, 1, 0,0) ">
<use xlink:href="#leg_3_0_Layer2_0_FILL"/>
</g>

<g transform="matrix( 1, 0, 0, 1, 0,0) ">
<use xlink:href="#leg_3_0_Layer1_0_FILL"/>
</g>

<g transform="matrix( 1, 0, 0, 1, 0,0) ">
<use xlink:href="#leg_3_0_Layer0_0_FILL"/>
</g>
</g>

<g transform="matrix( 8.617050170898438, -1.0640106201171875, 1.0640106201171875, 8.617050170898438, 155.05,201.25) ">
<g transform="matrix( 1, 0, 0, 1, 0,0) ">
<use xlink:href="#head_0_Layer4_0_FILL"/>

<use xlink:href="#head_0_Layer4_0_1_STROKES"/>
</g>

<g transform="matrix( 1, 0, 0, 1, 0,0) ">
<use xlink:href="#head_0_Layer3_0_FILL"/>

<use xlink:href="#head_0_Layer3_0_1_STROKES"/>
</g>

<g transform="matrix( 1, 0, 0, 1, 0,0) ">
<use xlink:href="#head_0_Layer2_0_FILL"/>

<use xlink:href="#head_0_Layer2_0_1_STROKES"/>
</g>

<g transform="matrix( 1, 0, 0, 1, 0,0) ">
<use xlink:href="#head_0_Layer1_0_FILL"/>

<use xlink:href="#head_0_Layer1_0_1_STROKES"/>

<use xlink:href="#head_0_Layer1_0_2_STROKES"/>
</g>

<g transform="matrix( 1, 0, 0, 1, 0,0) ">
<use xlink:href="#head_0_Layer0_0_FILL"/>
</g>
</g>

<g transform="matrix( 8.685943603515625, 0, 0, 8.685943603515625, 192.8,499.05) "/>
</svg>
