
<svg xmlns="http://www.w3.org/2000/svg" version="1.1" xmlns:xlink="http://www.w3.org/1999/xlink" preserveAspectRatio="none" x="0px" y="0px" width="560px" height="544px" viewBox="0 0 560 544">
<defs>
<g id="Duplicate_Items_Folder_foot_copy_2_0_Layer1_0_FILL">
<path fill="#000000" stroke="none" d="
M 5.7 -15.8
Q 4.35 -16.45 2.1 -16.9 0.45 -17.25 -0.9 -17.15 -3.8 -17.3 -5.65 -16.1 -8.8 -13.65 -9.4 -12 -9.9 -10.3 -10.6 -6.9
L -10.5 -5.05
Q -10.6 -4.6 -11.15 -3.7 -11.95 -2.55 -13.4 -0.75
L -14.05 -0.05 -14.1 -0.1 -16 1.95
Q -17.65 5.4 -11.45 8.4 -9.7 9.25 -7.35 10.05 -7.05 10.1 -6.75 10.25 3.7 13.6 7.5 11.75 11.4 9.65 12.05 8.9 12.3 8.55 12.45 7.7
L 12.5 7.7
Q 12.5 7.45 12.55 7.15 12.65 6.7 12.55 6.4 12.55 5.35 12.55 4.2 12.55 2.55 12.7 0.7 12.25 -2 11.3 -5.9 10.25 -9.7 9.35 -11.1 8.3 -12.45 7.55 -14.25 7.25 -15.15 5.7 -15.8
M 5.5 -13.55
Q 5.6 -13.4 5.7 -13.25 6.9 -11.2 6.9 -10.35 6.85 -9.55 7.8 -7 8.7 -4.5 8.75 -1.45 8.85 -1.35 9.25 -0.05 9.8 1.65 10.05 3.5 10.15 4.35 10.05 5 10.05 5.5 9.95 5.9 9.95 6.15 9.95 6.45
L 9.8 6.4
Q 9.8 6.65 9.75 6.9 9.7 7.15 9.55 7.3 9.5 7.5 9.25 7.8 9.3 7.9 9.15 8.05 8.3 8.65 5.75 10.3 3.15 11.9 -5.7 8.9 -6.1 8.8 -6.45 8.75
L -6.55 8.7 -6.6 8.65
Q -8.7 7.8 -10.55 6.6 -10.8 6.4 -11 6.25 -13.15 4.8 -13.25 3.45 -13.25 2.95 -13.3 3
L -13.4 2.75
Q -13.6 2.35 -13.25 1.75 -13.3 1.65 -13.25 1.6
L -13.25 1.55 -12.1 0.45 -11.95 0.5 -11.85 0.3 -11.95 0.2
Q -11.89765625 0.24921875 -11.75 0.2
L -8.15 -4.2 -7.85 -6.25
Q -7.35 -8.7 -7.05 -10.7
L -4.9 -14 -1.15 -16.1
Q -0.7 -16.05 -0.05 -16.05 4.15 -15.9 5.5 -13.55 Z"/>

<path fill="#94BEFC" stroke="none" d="
M -1.15 -16.1
L -4.9 -14 -7.05 -10.7
Q -7.35 -8.7 -7.85 -6.25
L -8.15 -4.2 -11.75 0.2
Q -11.89765625 0.24921875 -11.95 0.2
L -11.85 0.3 -11.95 0.5 -12.1 0.45 -13.25 1.55 -13.25 1.6
Q -13.3 1.65 -13.25 1.75 -13.6 2.35 -13.4 2.75
L -13.3 3
Q -13.25 2.95 -13.25 3.45 -13.15 4.8 -11 6.25 -10.8 6.4 -10.55 6.6 -8.7 7.8 -6.6 8.65
L -6.55 8.7
Q -8.1 6.05 -5.25 4.5 -4.75 3.65 -4.15 2.85 -4.15 2.75 -4.1 2.7
L -3.9 2.75
Q -3.25 1.45 -2.75 0.05 -0.35 -6.55 -1.15 -16.1 Z"/>

<path fill="#DEECFE" stroke="none" d="
M 5.7 -13.25
Q 5.6 -13.4 5.5 -13.55 4.15 -15.9 -0.05 -16.05 -0.7 -16.05 -1.15 -16.1 -0.35 -6.55 -2.75 0.05 -3.25 1.45 -3.9 2.75
L -4.1 2.7
Q -4.15 2.75 -4.15 2.85 -4.75 3.65 -5.25 4.5 -8.1 6.05 -6.55 8.7
L -6.45 8.75
Q -6.1 8.8 -5.7 8.9 3.15 11.9 5.75 10.3 8.3 8.65 9.15 8.05 9.3 7.9 9.25 7.8 9.5 7.5 9.55 7.3 9.7 7.15 9.75 6.9 9.8 6.65 9.8 6.4
L 9.95 6.45
Q 9.95 6.15 9.95 5.9 10.05 5.5 10.05 5 10.15 4.35 10.05 3.5 9.8 1.65 9.25 -0.05 8.85 -1.35 8.75 -1.45 8.7 -4.5 7.8 -7 6.85 -9.55 6.9 -10.35 6.9 -11.2 5.7 -13.25 Z"/>
</g>

<g id="Duplicate_Items_Folder_foot_copy_2_0_Layer0_0_FILL">
<path fill="#000000" stroke="none" d="
M 6.2 7.7
Q 2.7 5.55 1.15 8.35 -1.9 6.2 -5.35 8.3 -3.8 11.2 -3.2 17.25 -0.3 14.65 0.45 11.7 4.45 14.4 5.7 17.65 7.55 13.65 7.05 10.45 10.4 10.4 14.4 13.9 13.7 8.45 9.75 4.75 7 5.75 6.2 7.7
M 3.9 8.4
Q 4.35 8.35 4.85 8.4 6.7 11.9 5.65 15.55
L 5.6 15.5
Q 5.65 12.15 3.9 8.4
M 13.45 12.45
L 13.35 12.4
Q 12.25 9.5 9.55 6.9 9.9 6.7 10.3 6.55 13 8.95 13.45 12.45
M -2.7 15.45
L -2.7 15.35
Q -1.05 12.75 -0.55 9 -0.2 9.2 0.2 9.4 -0.15 13 -2.7 15.45 Z"/>

<path fill="#E1E1E1" stroke="none" d="
M -2.7 15.35
L -2.7 15.45
Q -0.15 13 0.2 9.4 -0.2 9.2 -0.55 9 -1.05 12.75 -2.7 15.35
M 13.35 12.4
L 13.45 12.45
Q 13 8.95 10.3 6.55 9.9 6.7 9.55 6.9 12.25 9.5 13.35 12.4
M 4.85 8.4
Q 4.35 8.35 3.9 8.4 5.65 12.15 5.6 15.5
L 5.65 15.55
Q 6.7 11.9 4.85 8.4 Z"/>
</g>

<g id="Duplicate_Items_Folder_arm__copy_3_0_Layer3_0_FILL">
<path fill="#DEECFE" stroke="none" d="
M 6.95 -4.05
Q 8.55 -7.6 5.25 -13.4 2 -19.3 -2.3 -20.3 -6.6 -21.4 -10.5 -19.2 -14.35 -17 -13.55 -10.85 -12.85 -4.8 -11.15 -1.55 -9.5 1.65 -6.7 1.25 -5.05 0.95 -2.55 0.6 -1.85 0.45 -1 0.4 -0.15 0.2 0.7 0.15 5.45 -0.5 6.95 -4.05
M 0.9 -10.3
Q 3.05 -6.4 2.05 -4.05 0.95 -1.7 -2.15 -1.25 -2.75 -1.2 -3.35 -1.15 -3.85 -1.05 -4.35 -0.95 -6 -0.75 -7.1 -0.5 -9 -0.25 -10.1 -2.4 -11.2 -4.6 -11.75 -8.6 -12.25 -12.8 -9.6 -14.15 -7.05 -15.7 -4.2 -14.95 -1.3 -14.25 0.9 -10.3 Z"/>

<path fill="#94BEFC" stroke="none" d="
M 2.05 -4.05
Q 3.05 -6.4 0.9 -10.3 -1.3 -14.25 -4.2 -14.95 -7.05 -15.7 -9.6 -14.15 -12.25 -12.8 -11.75 -8.6 -11.2 -4.6 -10.1 -2.4 -9 -0.25 -7.1 -0.5 -6 -0.75 -4.35 -0.95 -3.85 -1.05 -3.35 -1.15 -2.75 -1.2 -2.15 -1.25 0.95 -1.7 2.05 -4.05 Z"/>
</g>

<g id="Duplicate_Items_Folder_arm__copy_3_0_Layer0_0_FILL">
<path fill="#000000" stroke="none" d="
M -13.05 -15.55
Q -15.9 -17.2 -19.4 -16.4 -17.15 -14.85 -15.45 -11.9
L -14.55 -12.25 -14.55 -12.3
Q -13.35 -13.35 -13.05 -15.55
M -18.25 -16
L -18.45 -16.15
Q -16.05 -16.6 -14.3 -15.4 -14.3 -15.15 -14.45 -14.85 -16.35 -16 -18.25 -16
M -13.7 -16.65
L -12.45 -16.5 -12.5 -16.6
Q -10.45 -17.3 -9.1 -19.7 -11.45 -23.2 -16.05 -24 -14.25 -20.95 -13.7 -16.65
M -10.5 -20.2
Q -10.75 -19.9 -11 -19.6 -12.65 -21.95 -15 -22.95
L -15 -23.2
Q -12.1 -22.55 -10.5 -20.2
M -8.3 -19.75
L -7.35 -18.95
Q -7.35 -19 -7.35 -19.05 -5.4 -18.4 -2.8 -19.4 -2.5 -23.7 -5.65 -27.2 -6.05 -23.55 -8.3 -19.75
M -5.35 -25.7
L -5.3 -25.9
Q -3.35 -23.6 -3.6 -20.75 -3.9 -20.65 -4.35 -20.55 -4.2 -23.4 -5.35 -25.7
M 2.2 -16.4
Q 3.7 -19.4 2.45 -22.8 1.15 -20.25 -1.65 -18.2
L -1.2 -17.35 -1.15 -17.45
Q 0.05 -16.4 2.2 -16.4
M 2.25 -21.8
Q 3.05 -19.6 2 -17.6 1.75 -17.6 1.4 -17.7 2.4 -19.7 2.15 -21.65
L 2.25 -21.8 Z"/>

<path fill="#E1E1E1" stroke="none" d="
M -18.45 -16.15
L -18.25 -16
Q -16.35 -16 -14.45 -14.85 -14.3 -15.15 -14.3 -15.4 -16.05 -16.6 -18.45 -16.15
M -11 -19.6
Q -10.75 -19.9 -10.5 -20.2 -12.1 -22.55 -15 -23.2
L -15 -22.95
Q -12.65 -21.95 -11 -19.6
M -5.3 -25.9
L -5.35 -25.7
Q -4.2 -23.4 -4.35 -20.55 -3.9 -20.65 -3.6 -20.75 -3.35 -23.6 -5.3 -25.9
M 2 -17.6
Q 3.05 -19.6 2.25 -21.8
L 2.15 -21.65
Q 2.4 -19.7 1.4 -17.7 1.75 -17.6 2 -17.6 Z"/>
</g>

<g id="Duplicate_Items_Folder_body_front_copy_3_0_Layer2_0_FILL">
<path fill="#CCF5FF" stroke="none" d="
M -8.5 -28.8
L -8.55 -28.8
Q -8.690625 -28.753125 -8.8 -28.75 -8.64375 -28.7521484375 -8.5 -28.8 Z"/>

<path fill="#94BEFC" stroke="none" d="
M 20.5 -5.35
Q 19.4869140625 -12.6115234375 15.3 -20.65 11.112890625 -28.638671875 7.2 -28.95 3.2955078125 -29.20390625 -2.85 -29.15 -4.6 -29.1 -8.1 -28.85 -8.3 -28.85 -8.5 -28.8 -8.64375 -28.7521484375 -8.8 -28.75
L -8.85 -28.75
Q -12.7 -28.85 -14.55 -28.75 -20.7 -28.35 -23.1 -25.9 -25.85 -23.25 -29.85 -16.25 -34 -9.25 -34.65 -2.7 -35.35 3.9 -30.45 13.4 -28.7 17.6 -22.85 19.5 -15.75 20.7 -9.4 20.2 -7.7 20.05 -6.1 19.9 -6.05 19.9 -6 19.9 -5.908984375 19.9 -5.85 19.85
L -5.8 19.85
Q -5.6 19.85 -5.35 19.9 -3.95 19.9 -2.55 19.95 3.9 20.05 10.8 18.35 16.5 16.05 17.75 11.75 21.554296875 1.9537109375 20.5 -5.35
M -8.05 -28.5
L -8.05 -28.05
Q 12.8 -20.7 5.25 8.1 2.05 14.5 -5.65 14.75
L -5.65 14.85
Q -5.95 14.8 -6.3 14.85 -6.35 14.85 -6.4 14.85 -6.65 14.85 -13.85 15.95 -21.05 17.05 -30.35 5.6 -30.05 -19.7 -20.4 -24.25 -10.7 -28.9 -9.7 -28.6 -8.8 -28.25 -8.6 -28.3 -8.35 -28.45 -8.05 -28.5 Z"/>

<path fill="#DEECFE" stroke="none" d="
M -8.05 -28.05
L -8.05 -28.5
Q -8.35 -28.45 -8.6 -28.3 -8.8 -28.25 -9.7 -28.6 -10.7 -28.9 -20.4 -24.25 -30.05 -19.7 -30.35 5.6 -21.05 17.05 -13.85 15.95 -6.65 14.85 -6.4 14.85 -6.35 14.85 -6.3 14.85 -5.95 14.8 -5.65 14.85
L -5.65 14.75
Q 2.05 14.5 5.25 8.1 12.8 -20.7 -8.05 -28.05 Z"/>
</g>

<g id="Duplicate_Items_Folder_bone_0_Layer0_0_FILL">
<path fill="#000000" stroke="none" d="
M -0.85 -6.65
Q -1.05 -7.6 -1.95 -7.85 -2.75 -8.05 -3.7 -7.75 -4.6 -7.3 -5 -6.55 -5.5 -5.7 -5.25 -5.05 -6 -5.25 -6.65 -5.1 -7.55 -4.85 -8 -4.1 -8.35 -3.3 -7.9 -2.4 -7.55 -1.6 -6.55 -1.05 -5.6 -0.6 -4.65 -0.8 -4.1 -0.95 -3.8 -1.2
L -0.9 1.2 1.5 3.75
Q 1.25 4.1 1.15 4.6 1 5.65 1.55 6.55 2.1 7.4 2.95 7.75 3.9 8.15 4.65 7.7 5.35 7.3 5.6 6.35 5.65 5.65 5.45 5.05 6.1 5.15 6.9 4.65 7.6 4.15 8 3.25 8.3 2.3 8 1.45 7.6 0.6 6.8 0.45 5.85 0.25 4.6 0.6
L -0.9 -4.5
Q -0.6 -5.75 -0.85 -6.65
M -3.6 -6.55
Q -3.05 -6.6 -2.5 -6.35 -1.85 -6.1 -1.7 -5.45 -1.55 -5 -1.7 -4.35
L 3.45 0.55 3.45 0.5 4.5 1.45
Q 5.05 1.3 5.6 1.35 5.6970703125 1.3984375 5.75 1.4
L 5.8 1.45
Q 5.85 1.45 5.9 1.45 6.3 1.65 6.6 2.1 6.85 2.65 6.8 3.25 6.65 3.85 6.05 4.2 5.65 4.45 5.15 4.2
L 4.95 4.15
Q 4.8 4.1 4.7 4 4.7 3.95 4.65 3.95 5.1 5.15 5.05 5.7 5.1 5.8 5.05 5.9
L 5 5.9
Q 4.9 6.45 4.4 6.7 3.9 7.05 3.2 6.7 2.6 6.35 2.3 5.75 2 5 2.05 4.45 2.15 3.95 2.5 3.3
L -3.45 -2.2
Q -4 -1.85 -4.55 -1.75 -5.05 -1.55 -5.8 -1.85 -6.5 -2.1 -6.85 -2.75 -7.25 -3.35 -6.95 -3.9 -6.7 -4.45 -6.15 -4.6 -6.1 -4.65 -6 -4.6 -5.45 -4.65 -4.1 -4.25 -4.85 -5.05 -4.55 -5.7 -4.2 -6.3 -3.6 -6.55 Z"/>

<path fill="#E8E6CE" stroke="none" d="
M 3.05 3.8
Q 2.8 3.85 2.6 4.05 2.509375 4.2314453125 2.5 4.4 2.5140625 4.2359375 2.65 4.1 2.8 3.9 3.05 3.8
M 5.75 1.4
Q 5.6970703125 1.3984375 5.6 1.35 5.05 1.3 4.5 1.45
L 4.55 1.5
Q 5.1 1.3 5.6 1.4 5.696875 1.4 5.75 1.4
M -2.5 -6.35
Q -3.05 -6.6 -3.6 -6.55 -4.2 -6.3 -4.55 -5.7 -4.85 -5.05 -4.1 -4.25 -5.45 -4.65 -6 -4.6 -6.1 -4.65 -6.15 -4.6
L -6.1 -4.5
Q -6.2 -4.55 -6.4 -4.35 -6.55 -4.2 -6.55 -3.6 -6.55 -2.95 -5.95 -2.6 -5.45 -2.25 -5 -2.2 -4.45 -2 -4.2 -2.3 -3.95 -2.55 -3.85 -3
L 2.55 2.85 1.75 2 1.65 0.55 3.45 1.7 3.45 0.55 -1.7 -4.35
Q -1.55 -5 -1.7 -5.45 -1.85 -6.1 -2.5 -6.35 Z"/>

<path fill="#990000" stroke="none" d="
M 5.8 1.45
L 5.75 1.4
Q 5.696875 1.4 5.6 1.4 5.1 1.3 4.55 1.5
L 4.5 1.45 3.45 0.5 3.45 0.55 3.45 1.7 1.65 0.55 1.75 2 2.55 2.85 3.35 3.7
Q 3.2 3.7 3.1 3.75
L 3.05 3.8
Q 2.8 3.9 2.65 4.1 2.5140625 4.2359375 2.5 4.4
L 2.5 4.5 2.45 4.55 2.45 4.6
Q 2.45 4.7 2.5 4.9 2.6 5.45 2.95 5.8 3.3 6.2 3.55 6.3 3.8 6.35 4.05 6.35 4.65 6.35 4.85 6.15 4.99765625 5.953125 5 5.85
L 5 5.9 5.05 5.9
Q 5.1 5.8 5.05 5.7 5.1 5.15 4.65 3.95 4.7 3.95 4.7 4 4.8 4.1 4.95 4.15
L 5.15 4.2
Q 5.65 4.45 6.05 4.2 6.65 3.85 6.8 3.25 6.85 2.65 6.6 2.1 6.3 1.65 5.9 1.45 5.85 1.45 5.8 1.45 Z"/>

<path fill="#CFCDAF" stroke="none" d="
M -6.15 -4.6
Q -6.7 -4.45 -6.95 -3.9 -7.25 -3.35 -6.85 -2.75 -6.5 -2.1 -5.8 -1.85 -5.05 -1.55 -4.55 -1.75 -4 -1.85 -3.45 -2.2
L 2.5 3.3
Q 2.15 3.95 2.05 4.45 2 5 2.3 5.75 2.6 6.35 3.2 6.7 3.9 7.05 4.4 6.7 4.9 6.45 5 5.9
L 5 5.85
Q 4.99765625 5.953125 4.85 6.15 4.65 6.35 4.05 6.35 3.8 6.35 3.55 6.3 3.3 6.2 2.95 5.8 2.6 5.45 2.5 4.9 2.45 4.7 2.45 4.6
L 2.45 4.55 2.5 4.5 2.5 4.4
Q 2.509375 4.2314453125 2.6 4.05 2.8 3.85 3.05 3.8
L 3.1 3.75
Q 3.2 3.7 3.35 3.7
L 2.55 2.85 -3.85 -3
Q -3.95 -2.55 -4.2 -2.3 -4.45 -2 -5 -2.2 -5.45 -2.25 -5.95 -2.6 -6.55 -2.95 -6.55 -3.6 -6.55 -4.2 -6.4 -4.35 -6.2 -4.55 -6.1 -4.5
L -6.15 -4.6 Z"/>
</g>

<g id="Duplicate_Items_Folder_body_front_copy_3_0_Layer0_0_FILL">
<path fill="#000000" stroke="none" d="
M 3.4 -5.45
Q 2.6 -4.75 1.3 -2.9 0 -1 -0.3 0.75 -0.6 2.45 0.55 4.95 0.5 5.2 0.6 5.45 0.75 5.65 0.95 5.75 1.35 6.25 2.1 6.65 4.7 9.9 13.15 6.65 14.25 6.1 14.55 5.2 14.05 1.55 14 -0.1 13.9 -1.8 13.25 -3.25 12.65 -4.75 11.8 -5.45 11.3 -5.9 10.3 -6.05
L 10.2 -6.05
Q 9.8 -6.1 9.3 -6.15 8.8 -6.15 7.75 -6.05
L 7.55 -6.05
Q 6.45 -6.15 5.95 -6.15 4.15 -6.05 3.4 -5.45
M 2.45 -2.2
Q 3.5 -3.7 4.15 -4.25 4.75 -4.75 6.2 -4.85 6.6 -4.85 7.5 -4.75
L 7.65 -4.75
Q 8.25 -4.8 8.65 -4.85 6.2 -0.6 1.15 0.85 1.15 0.8 1.15 0.75 1.4 -0.7 2.45 -2.2
M 8.1 -1.7
Q 9.15 -2.9 9.95 -4.3
L 10.3 -4.6
Q 10.65 -4.45 10.9 -4.25 11.5 -3.75 12 -2.75 11.75 -2.7 11.65 -2.45 8.45 3.35 2 3.85 1.85 3.85 1.75 3.95 1.35 3 1.2 2.25 1.25 2.25 1.3 2.25 4.25 1.45 6.4 -0.2 7.3 -0.9 8.1 -1.7
M 12.65 0.05
Q 12.7 1.4 13.1 4.3 12.9 5.05 12 5.5 11.3 5.75 10.65 6 8.1 6.95 6.65 6.8 4.2 6.9 3.05 5.5 2.8 5.35 2.65 5.2 7.60859375 4.6189453125 10.8 1.1 11.7228515625 0.07265625 12.5 -1.2 12.6 -0.6 12.65 0.05 Z"/>

<path fill="#FF6699" stroke="none" d="
M 4.95 6
Q 4.5 5.75 4.3 5.4 8.65 5.05 10.8 1.1 7.60859375 4.6189453125 2.65 5.2 2.8 5.35 3.05 5.5 4.2 6.9 6.65 6.8 5.55 6.65 4.95 6
M 11.35 5.2
Q 11.2 5.7 10.65 6 11.3 5.75 12 5.5 12.9 5.05 13.1 4.3 12.7 1.4 12.65 0.05 12.6 -0.6 12.5 -1.2 11.7228515625 0.07265625 10.8 1.1 11 1.75 11.1 2.5 11.1 3.35 11.35 5.2 Z"/>

<path fill="#E60000" stroke="none" d="
M 10.65 6
Q 11.2 5.7 11.35 5.2 11.1 3.35 11.1 2.5 11 1.75 10.8 1.1 8.65 5.05 4.3 5.4 4.5 5.75 4.95 6 5.55 6.65 6.65 6.8 8.1 6.95 10.65 6 Z"/>

<path fill="#F4EFE8" stroke="none" d="
M 9.1 -0.35
Q 9.1 -0.45 9.05 -0.5 8.8 -1.2 8.5 -1.5 8.35 -1.65 8.1 -1.7 7.3 -0.9 6.4 -0.2 5 1.2 2.9 1.75 2.85 2.4 3.2 3.3 3.2 3.4 3.2 3.45 7 3.15 9.1 -0.35 Z"/>

<path fill="#D2BFA4" stroke="none" d="
M 9.05 -0.5
Q 9.1 -0.45 9.1 -0.35 7 3.15 3.2 3.45 3.2 3.4 3.2 3.3 2.85 2.4 2.9 1.75 5 1.2 6.4 -0.2 4.25 1.45 1.3 2.25 1.25 2.25 1.2 2.25 1.35 3 1.75 3.95 1.85 3.85 2 3.85 8.45 3.35 11.65 -2.45 11.75 -2.7 12 -2.75 11.5 -3.75 10.9 -4.25 10.65 -4.45 10.3 -4.6
L 9.95 -4.3
Q 9.15 -2.9 8.1 -1.7 8.35 -1.65 8.5 -1.5 8.8 -1.2 9.05 -0.5 Z"/>

<path fill="#DBCBB5" stroke="none" d="
M 4.15 -4.25
Q 3.5 -3.7 2.45 -2.2 1.4 -0.7 1.15 0.75 1.15 0.8 1.15 0.85 6.2 -0.6 8.65 -4.85 8.25 -4.8 7.65 -4.75
L 7.5 -4.75
Q 6.6 -4.85 6.2 -4.85 4.75 -4.75 4.15 -4.25
M 2 -0.2
Q 2.15 -1.1 2.8 -2 3.4 -2.95 3.85 -3.25 4.2 -3.6 5.1 -3.6 5.3 -3.6 5.85 -3.6
L 5.95 -3.6
Q 6.5 -3.6 6.75 -3.6 6.85 -3.6 7.05 -3.6 5.5 -0.65 1.95 0.3 1.95 0.05 2 -0.2 Z"/>

<path fill="#F1ECE2" stroke="none" d="
M 2.8 -2
Q 2.15 -1.1 2 -0.2 1.95 0.05 1.95 0.3 5.5 -0.65 7.05 -3.6 6.85 -3.6 6.75 -3.6 6.5 -3.6 5.95 -3.6
L 5.85 -3.6
Q 5.3 -3.6 5.1 -3.6 4.2 -3.6 3.85 -3.25 3.4 -2.95 2.8 -2 Z"/>
</g>

<g id="ear_2_0_Layer0_0_FILL">
<path fill="#000000" stroke="none" d="
M 12.05 -3.15
Q 10.4 -4.75 8.5 -4.85 7 -5.15 5.5 -4.4 1.75 -2.9 0.2 1.65 -0.45 3.45 -0.4 5.35 -0.5 7.35 0.4 9.25 0.9 10.45 1.6 11.45 2.75 12.6 4.4 13.25 5.75 13.75 7.2 13.55 8.15 13.3 9.25 12.85 11.5 11.75 13.1 9.1 13.75 7.8 14.15 6.45 14.3 5.75 14.45 5.15 14.55 4.05 14.55 2.95 14.45 2.45 14.45 2.1 14 -1.25 12.05 -3.15
M 6 -2.2
Q 8.85 -3.4 11.15 -1.45 12.95 0.1 13.3 2.85 13.25 3.1 13.35 3.5 13.35 4.4 13.35 5.3 13.1 6.95 12.3 8.6 10.95 10.8 8.95 11.8 7.9 12.25 6.85 12.35 8.2 11.65 9.25 10.5 10.15 9.15 10.25 6.5 10.25 5.95 10.3 5.6 10.15 5.3 10.25 5.05 9.85 3.15 8.5 2.75 6.3 1.9 4.35 2.85 2.25 3.8 1.45 6 1.3 6.3 1.3 6.55
L 1.3 6.65 1.25 6.55
Q 1.05 4.5 1.8 2.5 3 -1 6 -2.2 Z"/>

<path fill="#94BEFC" stroke="none" d="
M 13.3 2.85
Q 11.5 5.7 10.25 5.05 10.15 5.3 10.3 5.6 10.25 5.95 10.25 6.5 10.15 9.15 9.25 10.5 8.2 11.65 6.85 12.35 7.9 12.25 8.95 11.8 10.95 10.8 12.3 8.6 13.1 6.95 13.35 5.3 13.35 4.4 13.35 3.5 13.25 3.1 13.3 2.85 Z"/>

<path fill="#DEECFE" stroke="none" d="
M 11.15 -1.45
Q 8.85 -3.4 6 -2.2 3 -1 1.8 2.5 1.05 4.5 1.25 6.55
L 1.3 6.65 1.3 6.55
Q 1.3 6.3 1.45 6 2.25 3.8 4.35 2.85 6.3 1.9 8.5 2.75 9.85 3.15 10.25 5.05 11.5 5.7 13.3 2.85 12.95 0.1 11.15 -1.45 Z"/>
</g>

<g id="Duplicate_Items_Folder_head_copy_4_0_Layer0_0_FILL">
<path fill="#000000" stroke="none" d="
M 12.7 -13.75
Q 8.85546875 -18.2599609375 3.55 -20.1 0.8259765625 -20.985546875 -2.3 -21.2 -11.32109375 -21.9408203125 -21.75 -16.65 -32.43203125 -11.2333984375 -33.85 -5.15 -35.5375 0.9396484375 -27.3 8.4 -19.340234375 15.646484375 -3.15 14.25 13.3546875 12.8251953125 14.6 9.9
L 14.6 9.85
Q 15.84296875 7.3216796875 17.15 0.35
L 17.15 0.3
Q 18.53984375 -6.957421875 12.7 -13.75
M 11.2 -12.45
Q 16.3501953125 -6.45390625 15.2 -0.05 13.9568359375 6.5779296875 12.8 9
L 12.8 9
Q 11.55078125 10.9744140625 -3.3 12.25 -17.655859375 13.4845703125 -25.15 7.55 -25.5298828125 7.2521484375 -25.95 6.9 -33.063671875 0.4591796875 -31.9 -4.65 -30.4685546875 -9.96640625 -20.85 -14.85 -10.9791015625 -19.859375 -2.45 -19.2 1.016796875 -18.9662109375 3.95 -17.8 8.0947265625 -16.08046875 11.2 -12.45 Z"/>

<path fill="#DEECFE" stroke="none" d="
M -2.45 -19.2
Q -10.9791015625 -19.859375 -20.85 -14.85 -30.4685546875 -9.96640625 -31.9 -4.65 -33.063671875 0.4591796875 -25.95 6.9 -25.5298828125 7.2521484375 -25.15 7.55 -3.8900390625 10.658984375 7.45 3 12.74765625 -7.0162109375 3.95 -17.8 1.016796875 -18.9662109375 -2.45 -19.2 Z"/>

<path fill="#94BEFC" stroke="none" d="
M 15.2 -0.05
Q 16.3501953125 -6.45390625 11.2 -12.45 8.0947265625 -16.08046875 3.95 -17.8 12.74765625 -7.0162109375 7.45 3 -3.8900390625 10.658984375 -25.15 7.55 -17.655859375 13.4845703125 -3.3 12.25 11.55078125 10.9744140625 12.8 9
L 12.8 9
Q 13.9568359375 6.5779296875 15.2 -0.05 Z"/>
</g>

<g id="Duplicate_Items_Folder_eye_copy_9_0_Layer2_0_FILL">
<path fill="#94BEFC" stroke="none" d="
M 120.95 -103.95
Q 106.6 -117.4 86.9 -117.3 67.2 -117.15 53.35 -103.55 39.55 -89.9 39.95 -70.75 40.35 -51.55 54.7 -38.1 69.1 -24.6 88.8 -24.75 108.5 -24.85 122.3 -38.5 136.15 -52.1 135.75 -71.3 135.35 -90.45 120.95 -103.95 Z"/>
</g>

<g id="Duplicate_Items_Folder_eye_copy_9_0_Layer1_0_FILL">
<path fill="#000000" stroke="none" d="
M 99.5 -52.15
L 97.95 -50.2 96.4 -38.95
Q 100.5 -39.65 104.6 -42 114.1 -47.35 119.05 -58.1
L 111.05 -60.05
Q 103.9 -51.05 99.5 -52.15
M 97.95 -50.2
Q 97.5 -50.15 97 -50
L 95.75 -49.05 97.95 -50.2
M 72.15 -56.85
Q 67.3 -59.65 64.2 -66.1
L 56.15 -58.15
Q 60.2 -50.85 66 -47.45 74.3 -42.6 85.65 -38.9 80.55 -41.65 81.8 -41.15 89.1 -37.65 96.4 -38.95
L 97.95 -50.2 95.75 -49.05 97 -50
Q 86.7 -50.65 84.75 -51.6 82.8 -52.6 86.55 -50.5 78.2 -53.25 72.15 -56.85
M 53.05 -65.1
Q 54.45 -61.25 56.15 -58.15
L 64.2 -66.1 69.5 -71.45 62.1 -71.5 51.4 -71.55
Q 52 -68.3 53.05 -65.1
M 109.95 -106.95
L 101.95 -102.15
Q 109.45 -98 112.55 -88.55 115.9 -78.35 112.35 -67.85 110.8 -63.25 111.05 -60.05
L 119.05 -58.1
Q 120 -60.25 120.8 -62.55 125.55 -76.7 121.05 -90.7 117.55 -101.3 109.95 -106.95
M 97.2 -113.6
Q 96.65 -113.35 90.15 -115.8
L 92.2 -106.2 94 -97.8 101.95 -102.15 109.95 -106.95
Q 107.7 -108.7 105 -109.95 99.85 -112.35 97.2 -113.6
M 88.75 -107.45
Q 90.8 -106.75 92.2 -106.2
L 90.15 -115.8
Q 89.4 -116.05 88.7 -116.35 80.9 -119.55 69.45 -112.9 58.1 -106.35 53.25 -92.25 49.75 -81.55 51.4 -71.55
L 62.1 -71.5
Q 59.6 -80.25 62.75 -89.7 66.25 -100.15 74.6 -104.9 83.1 -109.8 88.75 -107.45 Z"/>

<path fill="#CCF5FF" stroke="none" d="
M 97 -50
Q 97.5 -50.15 97.95 -50.2
L 99.5 -52.15 97 -50 Z"/>

<path fill="#99CC00" stroke="none" d="
M 92.2 -106.2
Q 90.8 -106.75 88.75 -107.45 83.1 -109.8 74.6 -104.9 66.25 -100.15 62.75 -89.7 59.6 -80.25 62.1 -71.5
L 69.5 -71.45 64.2 -66.1
Q 67.3 -59.65 72.15 -56.85 78.2 -53.25 86.55 -50.5 82.8 -52.6 84.75 -51.6 86.7 -50.65 97 -50
L 99.5 -52.15
Q 103.9 -51.05 111.05 -60.05 110.8 -63.25 112.35 -67.85 115.9 -78.35 112.55 -88.55 109.45 -98 101.95 -102.15
L 94 -97.8 94.1 -97.4 94 -97.8 92.2 -106.2 Z"/>
</g>

<g id="Duplicate_Items_Folder_eye_copy_9_0_Layer0_0_FILL">
<path fill="#000000" stroke="none" d="
M 105.55 -80.4
Q 103.8 -82.75 101.25 -83.6 100.6 -83.85 99.85 -83.95 96.4 -84.5 93.4 -82.25 90.45 -80 89.95 -76.3 89.8 -75.45 89.9 -74.6 90 -71.9 91.65 -69.6 93.95 -66.55 97.4 -66 100.9 -65.45 103.8 -67.7 106.8 -69.95 107.25 -73.65 107.85 -77.35 105.55 -80.4 Z"/>
</g>

<g id="teeth_0_Layer1_0_FILL">
<path fill="#990000" stroke="none" d="
M 4 16.7
Q 3.95 16.25 3.85 15.9 3.45 14.15 2.7 13.75 1.9 13.35 0.9 14.7 0.05 15.75 0.35 19.35 0.55 21.35 0.95 24.85 0.95 25.3 1.15 26.15 1 24.85 0.9 23.85 0.5 19.2 1.6 17.85 2.9 16.2 3.9 16.65 3.95 16.65 4 16.7
M 8.2 10.75
Q 7.85 10.55 6.65 10.8 5.95 10.95 6.05 12.7 6.3 15.55 6.25 16.35 6 18.3 6.8 21 7.55 23.7 9 26.15 10.2 28.25 9.2 29.65 8.1 31 6 30.55 5.5 30.45 5.15 30.35 5.15 30.4 5.15 30.45 5.2 32.15 5 35.1 5 35.65 5.25 36.65 5.5 37.65 8.2 38.25 10.85 38.8 12.2 37.05 13.6 35.3 12 32.6 10.2 29.45 9.2 25.95 8.15 22.5 8.45 20 8.55 18.95 8.2 15.3 8.1 13.45 8.7 13.05 8.7 12.9 8.7 12.75 8.85 11.2 8.2 10.75
M 8.9 -2.4
L 8.6 -2.6 -10.65 0.4 -10.6 1
Q -11.6 6.05 -12.4 11.3 -14.05 21.85 -13.1 22.85 -12.25 23.8 -10.65 21.05 -10.2 20.1 -9.9 19.4
L -8.7 20.05
Q -8.5 18.45 -8.25 27.9 -7.9 39.55 -6.2 41.55 -4.5 43.4 -3.45 39.5 -2.45 35.6 -2.2 38.6 -1.95 41.55 -2.35 44.2 -2.55 45.55 -0.8 47.1 1.65 49.4 3.25 49.75 5.2 50.2 5.5 47.85 5.75 46.05 3.75 39.55 3.7 39.25 3.65 39.05 3.2 39.75 2.2 39.55 0.95 39.2 -0.95 37.5 -2.35 36.3 -2.2 35.15 -1.9 33.15 -2.1 30.8 -2.25 28.5 -3.05 31.55 -3.85 34.6 -5.15 33.1 -6.5 31.6 -6.75 22.5 -6.95 15.2 -7.15 16.35
L -8.05 15.9
Q -8.3 16.45 -8.65 17.15 -9.9 19.35 -10.6 18.6 -11.3 17.85 -10 9.55 -9.4 5.5 -8.6 1.5
L -8.65 1.1 6.35 -1.3 6.55 -1.1
Q 6.75 -0.3 8.15 2.6 9.75 5.8 10.5 7.95
L 10.55 7.95
Q 11.55 10.6 11.55 12.7 11.55 13.05 11.5 13.55 11.7 14.2 11.6 15.4 11.4 17.55 12.85 19.15 14.3 20.7 14.7 19.05 15.3 16.7 15.3 15.3 15.3 12.65 14 9.3
L 13.95 9.25
Q 13 6.45 10.95 2.3 9.15 -1.35 8.9 -2.4 Z"/>

<path fill="#E60000" stroke="none" d="
M 6.55 -1.1
L 6.35 -1.3 -8.65 1.1 -8.6 1.5
Q -9.4 5.5 -10 9.55 -11.3 17.85 -10.6 18.6 -9.9 19.35 -8.65 17.15 -8.3 16.45 -8.05 15.9
L -7.15 16.35
Q -6.95 15.2 -6.75 22.5 -6.5 31.6 -5.15 33.1 -3.85 34.6 -3.05 31.55 -2.25 28.5 -2.1 30.8 -1.9 33.15 -2.2 35.15 -2.35 36.3 -0.95 37.5 0.95 39.2 2.2 39.55 3.2 39.75 3.65 39.05 3.85 38.65 3.95 38.05 4.15 36.65 2.6 31.55 2.2 30.3 1.9 29.2 1.35 27.3 1.15 26.15 0.95 25.3 0.95 24.85 0.55 21.35 0.35 19.35 0.05 15.75 0.9 14.7 1.9 13.35 2.7 13.75 3.45 14.15 3.85 15.9 3.95 16.25 4 16.7 4.1 17.95 3.95 20.05 3.65 23.8 3.65 24.5 3.7 25.8 3.5 28.15 3.55 28.55 3.75 29.3 3.9 29.95 5.15 30.35 5.5 30.45 6 30.55 8.1 31 9.2 29.65 10.2 28.25 9 26.15 7.55 23.7 6.8 21 6 18.3 6.25 16.35 6.3 15.55 6.05 12.7 5.95 10.95 6.65 10.8 7.85 10.55 8.2 10.75 8.85 11.2 8.7 12.75 8.7 12.9 8.7 13.05 8.6 14.55 9.65 15.65 10.8 16.85 11.1 15.6 11.4 14.35 11.5 13.55 11.55 13.05 11.55 12.7 11.55 10.6 10.55 7.95
L 10.5 7.95
Q 9.75 5.8 8.15 2.6 6.75 -0.3 6.55 -1.1 Z"/>
</g>

<g id="teeth_0_Layer0_0_FILL">
<path fill="#000000" stroke="none" d="
M 9.8 -8.65
L 5.75 -2.4 1.25 -6.85 -1.5 -3.55 -4.9 -7.35 -8.2 -2.8 -12.3 -6.5 -11.3 6.8 -7.4 1.8 -3.9 6.15 0.5 2.65 5.3 7.15 7.85 1.95 12.1 5.35 9.8 -8.65 Z"/>
</g>

<g id="Duplicate_Items_Folder_nose_copy_7_0_Layer0_0_FILL">
<path fill="#000000" stroke="none" d="
M 22.8 -0.95
Q 23.65 -0.05 24.9 -0.25 26.15 -0.5 27.15 -1.45 28.1 -2.45 27.55 -3.3 27 -4.15 25 -4.6 22.9 -5.1 22.3 -4.6 21.7 -4.2 21.85 -3.05 21.95 -2 22.8 -0.95 Z"/>
</g>

<path id="Duplicate_Items_Folder_arm__copy_3_0_Layer3_0_1_STROKES" stroke="#000000" stroke-width="2" stroke-linejoin="round" stroke-linecap="round" fill="none" d="
M 6.95 -4.05
Q 5.45 -0.5 0.7 0.15 -0.15 0.2 -1 0.4 -1.85 0.45 -2.55 0.6 -5.05 0.95 -6.7 1.25 -9.5 1.65 -11.15 -1.55 -12.85 -4.8 -13.55 -10.85 -14.35 -17 -10.5 -19.2 -6.6 -21.4 -2.3 -20.3 2 -19.3 5.25 -13.4 8.55 -7.6 6.95 -4.05 Z"/>

<path id="Duplicate_Items_Folder_body_front_copy_3_0_Layer2_0_1_STROKES" stroke="#000000" stroke-width="2" stroke-linejoin="round" stroke-linecap="round" fill="none" d="
M -8.5 -28.8
Q -8.3 -28.85 -8.1 -28.85 -4.6 -29.1 -2.85 -29.15 3.2955078125 -29.20390625 7.2 -28.925 11.112890625 -28.638671875 15.3 -20.625 19.4869140625 -12.6115234375 20.525 -5.325 21.554296875 1.9537109375 17.75 11.75 16.5 16.05 10.8 18.35 3.9 20.05 -2.55 19.95 -3.95 19.9 -5.35 19.9 -5.6 19.85 -5.8 19.85
L -5.825 19.85
Q -5.908984375 19.9 -6 19.9 -6.05 19.9 -6.1 19.9 -7.7 20.05 -9.4 20.2 -15.75 20.7 -22.85 19.5 -28.7 17.6 -30.45 13.4 -35.35 3.9 -34.65 -2.7 -34 -9.25 -29.85 -16.25 -25.85 -23.25 -23.1 -25.9 -20.7 -28.35 -14.55 -28.75 -12.7 -28.85 -8.85 -28.75
L -8.775 -28.75
Q -8.690625 -28.753125 -8.55 -28.8
L -8.5 -28.8
Q -8.64375 -28.7521484375 -8.775 -28.75"/>

<path id="Duplicate_Items_Folder_eye_copy_9_0_Layer1_0_1_STROKES" stroke="#000000" stroke-width="5" stroke-linejoin="round" stroke-linecap="round" fill="none" d="
M 62.1 -71.5
L 69.5 -71.45 64.2 -66.1
M 97 -50
L 99.5 -52.15
Q 103.9 -51.05 111.05 -60.05
M 101.95 -102.15
L 94 -97.8 94.1 -97.4
M 90.15 -115.8
L 88.15 -125.1
M 112.5 -108.45
L 109.95 -106.95
M 92.2 -106.2
L 90.15 -115.8
M 109.95 -106.95
L 101.95 -102.15
M 56.15 -58.15
L 47.85 -49.8
M 41.4 -71.6
L 51.4 -71.55 62.1 -71.5
M 64.2 -66.1
L 56.15 -58.15
M 96.4 -38.95
L 97.95 -50.2 95.75 -49.05 97 -50
M 97.95 -50.2
L 99.5 -52.15
M 126.4 -56.95
L 119.05 -58.1 111.05 -60.05
M 95.05 -29.25
L 96.4 -38.95
M 94 -97.8
L 92.2 -106.2"/>
</defs>

<g transform="matrix( -4.334930419921875, -1.350982666015625, -1.277801513671875, 4.0998382568359375, 212.4,453) ">
<g transform="matrix( 1, 0, 0, 1, 0,0) ">
<use xlink:href="#Duplicate_Items_Folder_foot_copy_2_0_Layer1_0_FILL"/>
</g>

<g transform="matrix( 1, 0, 0, 1, 0,0) ">
<use xlink:href="#Duplicate_Items_Folder_foot_copy_2_0_Layer0_0_FILL"/>
</g>
</g>

<g transform="matrix( 3.6633453369140625, -2.479522705078125, 2.6387939453125, 3.89862060546875, 205.35,291.45) ">
<g transform="matrix( 1, 0, 0, 1, 0,0) ">
<use xlink:href="#Duplicate_Items_Folder_arm__copy_3_0_Layer3_0_FILL"/>

<use xlink:href="#Duplicate_Items_Folder_arm__copy_3_0_Layer3_0_1_STROKES"/>
</g>

<g transform="matrix( 1, 0, 0, 1, 0,0) ">
<use xlink:href="#Duplicate_Items_Folder_arm__copy_3_0_Layer0_0_FILL"/>
</g>
</g>

<g transform="matrix( 5.160430908203125, 0, 0, 5.160430908203125, 337.35,344.95) ">
<g transform="matrix( 1, 0, 0, 1, 0,0) ">
<use xlink:href="#Duplicate_Items_Folder_body_front_copy_3_0_Layer2_0_FILL"/>

<use xlink:href="#Duplicate_Items_Folder_body_front_copy_3_0_Layer2_0_1_STROKES"/>
</g>

<g transform="matrix( 0.956787109375, 0.270599365234375, 0.270599365234375, -0.956787109375, 15.15,-4.1) ">
<g transform="matrix( 1, 0, 0, 1, 0,0) ">
<use xlink:href="#Duplicate_Items_Folder_bone_0_Layer0_0_FILL"/>
</g>
</g>

<g transform="matrix( 1, 0, 0, 1, 0,0) ">
<use xlink:href="#Duplicate_Items_Folder_body_front_copy_3_0_Layer0_0_FILL"/>
</g>
</g>

<g transform="matrix( 4.736663818359375, -1.2998199462890625, 1.240478515625, 4.520904541015625, 403.35,453.9) ">
<g transform="matrix( 1, 0, 0, 1, 0,0) ">
<use xlink:href="#Duplicate_Items_Folder_foot_copy_2_0_Layer1_0_FILL"/>
</g>

<g transform="matrix( 1, 0, 0, 1, 0,0) ">
<use xlink:href="#Duplicate_Items_Folder_foot_copy_2_0_Layer0_0_FILL"/>
</g>
</g>

<g transform="matrix( 0.8941650390625, -4.3823394775390625, 4.1345977783203125, 0.8435516357421875, 220.6,77.2) ">
<g transform="matrix( 1, 0, 0, 1, 0,0) ">
<use xlink:href="#ear_2_0_Layer0_0_FILL"/>
</g>
</g>

<g transform="matrix( 6.320068359375, -0.6380462646484375, 0.625213623046875, 6.1932830810546875, 320.4,159.5) ">
<g transform="matrix( 1, 0, 0, 1, 0,0) ">
<use xlink:href="#Duplicate_Items_Folder_head_copy_4_0_Layer0_0_FILL"/>
</g>
</g>

<g transform="matrix( -4.3826904296875, 2.3212738037109375, 2.470550537109375, 4.66412353515625, 361.85,283.35) ">
<g transform="matrix( 1, 0, 0, 1, 0,0) ">
<use xlink:href="#Duplicate_Items_Folder_arm__copy_3_0_Layer3_0_FILL"/>

<use xlink:href="#Duplicate_Items_Folder_arm__copy_3_0_Layer3_0_1_STROKES"/>
</g>

<g transform="matrix( 1, 0, 0, 1, 0,0) ">
<use xlink:href="#Duplicate_Items_Folder_arm__copy_3_0_Layer0_0_FILL"/>
</g>
</g>

<g transform="matrix( 4.8859405517578125, 1.586761474609375, -1.50567626953125, 4.6368408203125, 360.1,43.65) ">
<g transform="matrix( 1, 0, 0, 1, 0,0) ">
<use xlink:href="#ear_2_0_Layer0_0_FILL"/>
</g>
</g>

<g transform="matrix( -0.93096923828125, 0.004791259765625, 0.0188751220703125, 0.874298095703125, 354,162.7) ">
<g transform="matrix( 1, 0, 0, 1, 0,0) ">
<use xlink:href="#Duplicate_Items_Folder_eye_copy_9_0_Layer2_0_FILL"/>
</g>

<g transform="matrix( 1, 0, 0, 1, 0,0) ">
<use xlink:href="#Duplicate_Items_Folder_eye_copy_9_0_Layer1_0_FILL"/>

<use xlink:href="#Duplicate_Items_Folder_eye_copy_9_0_Layer1_0_1_STROKES"/>
</g>

<g transform="matrix( 1, 0, 0, 1, 0,0) ">
<use xlink:href="#Duplicate_Items_Folder_eye_copy_9_0_Layer0_0_FILL"/>
</g>
</g>

<g transform="matrix( 4.0752410888671875, -0.04632568359375, -0.10040283203125, 4.7882537841796875, 213.5,227) ">
<g transform="matrix( 0.886993408203125, 0.047088623046875, -0.043243408203125, 0.814544677734375, 0.2,-0.65) ">
<use xlink:href="#teeth_0_Layer1_0_FILL"/>
</g>

<g transform="matrix( 1, 0, 0, 1, 0,0) ">
<use xlink:href="#teeth_0_Layer0_0_FILL"/>
</g>
</g>

<g transform="matrix( 17.978485107421875, -6.832672119140625, 6.832672119140625, 17.978485107421875, -281.25,369.45) ">
<g transform="matrix( 1, 0, 0, 1, 0,0) ">
<use xlink:href="#Duplicate_Items_Folder_nose_copy_7_0_Layer0_0_FILL"/>
</g>
</g>
</svg>
