
<svg xmlns="http://www.w3.org/2000/svg" version="1.1" xmlns:xlink="http://www.w3.org/1999/xlink" preserveAspectRatio="none" x="0px" y="0px" width="560px" height="544px" viewBox="0 0 560 544">
<defs>
<g id="tiny_tree_0_Layer6_0_FILL">
<path fill="#3A3434" stroke="none" d="
M -7.7 -39.9
Q -8.1 -40.45 -8.45 -41.05 -9.25 -42.35 -10.65 -45.65 -11.8 -48.25 -12.8 -48.25 -13.65 -48.25 -15.15 -48.25 -15.4748046875 -48.3771484375 -15.7 -48.9
L -15.7 -42.75
Q -15.465625 -42.735546875 -15.25 -42.75 -14 -42.9 -12.7 -41.8 -11.2 -40.45 -10.95 -38.75 -9.35 -39.4 -7.7 -39.9
M 11.55 -41.8
Q 12.9 -42.9 14.15 -42.75 14.5208984375 -42.7251953125 14.95 -42.85
L 14.95 -50.1
Q 14.6857421875 -48.496875 14 -48.25 12.55 -48.25 11.65 -48.25 10.75 -48.25 9.45 -45.65 8.35 -42.95 7.65 -41.6 7.5 -41.25 7.3 -41.05 7.15 -40.65 6.85 -40.25 6.8 -40.15 6.75 -40.1 6.7 -40 6.6 -39.95 6.8 -39.9 7 -39.85
L 5.75 -36.4
Q 6.45 -28.05 4.75 -19.7 1.85 -14.85 0.45 -15.55 0.35 -12.8 0.15 -10.15
L 4.05 -10.15
Q 4.6 -13.4 5.6 -16.9
L 7.3 -22.5 6.4 -22.95 7.2 -26.05
Q 6.05 -25.75 6.5 -28.25 6.945703125 -30.8521484375 7.15 -31.9 7.4125 -32.94375 7.1 -35.55 6.833203125 -38.1083984375 9.8 -38.6
L 9.9 -38.75
Q 10.15 -40.45 11.55 -41.8 Z"/>

<path fill="#4B4645" stroke="none" d="
M 7 -39.85
Q 6.8 -39.9 6.6 -39.95 6.4 -39.6 6.15 -39.25 6.0515625 -39.1515625 6.05 -39.1
L 6.05 -39.45
Q 6.05 -39.6 6 -39.75
L 5.95 -39.65 5.95 -40.15
Q 1.05 -45.8 -6.95 -40.1
L -7.05 -39.4 -7.05 -39.45
Q -7.15 -39.25 -7.15 -39.1 -7.45 -39.45 -7.7 -39.9 -9.35 -39.4 -10.95 -38.75
L -10.95 -38.6
Q -9.9 -37.85 -8.6 -35.5 -7.3 -33.1 -7.35 -31.8 -7.35 -30.5 -7.3 -30.1
L -7.3 -26.7 -8.1 -26.3 -7.05 -23.55 -7.75 -23.7 -6.65 -17.7
Q -5.05 -14.05 -4.3 -10.15
L 0.15 -10.15
Q 0.35 -12.8 0.45 -15.55 1.85 -14.85 4.75 -19.7 6.45 -28.05 5.75 -36.4
L 7 -39.85
M -2.55 -36.6
Q -2.55 -36.35 -2.7 -36.15 -2.8 -35.9 -2.95 -35.9 -3.1 -35.9 -3.25 -36.15 -3.35 -36.35 -3.35 -36.6 -3.35 -36.9 -3.25 -37.1 -3.1 -37.35 -2.95 -37.35 -2.8 -37.35 -2.7 -37.1 -2.55 -36.9 -2.55 -36.6 Z"/>

<path fill="#FF0000" stroke="none" d="
M -2.7 -36.15
Q -2.55 -36.35 -2.55 -36.6 -2.55 -36.9 -2.7 -37.1 -2.8 -37.35 -2.95 -37.35 -3.1 -37.35 -3.25 -37.1 -3.35 -36.9 -3.35 -36.6 -3.35 -36.35 -3.25 -36.15 -3.1 -35.9 -2.95 -35.9 -2.8 -35.9 -2.7 -36.15 Z"/>

<path fill="#675E5C" stroke="none" d="
M 3.8 -44.2
Q 2.15 -45.9 0 -45.9 -2.15 -45.9 -3.3 -44.7 -4.35 -43.65 -4.85 -43.35 -6.5 -42.35 -6.95 -40.15
L -6.95 -40.1
Q 1.05 -45.8 5.95 -40.15
L 5.9 -40.4
Q 5.4 -42.4 3.8 -44.2 Z"/>
</g>

<g id="tiny_tree_0_Layer5_0_FILL">
<path fill="#000000" stroke="none" d="
M -1.95 -34.65
Q -2 -35.05 -2.2 -34.65 -2.4 -34.3 -2.85 -34.15 -3.15 -33.85 -3.55 -34.15 -3.85 -34.35 -3.8 -34.05 -3.75 -33.75 -3.4 -33.6 -3.05 -33.45 -2.75 -33.6 -2.3 -33.75 -2.05 -34.05 -1.8 -34.35 -1.95 -34.65
M -2.75 -37.95
Q -3 -38.05 -3.6 -37.35 -4.15 -36.65 -4.15 -36.05 -4.15 -35.45 -3.85 -35.05 -3.5 -34.6 -3.05 -34.6 -2.6 -34.6 -2.3 -35
L -2.3 -35.05
Q -1.95 -35.45 -1.95 -36.05 -1.95 -36.65 -2.15 -37.2 -2.4 -37.85 -2.75 -37.95
M 0.7 -29
Q 2.015625 -28.451171875 2.6 -28.25 3.23359375 -27.99765625 3.25 -28.55 3.25546875 -29.05078125 2.15 -30.85 1.95 -31.05 1.95 -31.15
L 0.9 -29.8 1.1 -31.95
Q 0.3 -32.45 -0.45 -32.35 -1.2 -32.2 -2.05 -31.95
L -1.6 -29.9 -2.85 -31.05
Q -2.85 -31 -2.95 -30.85 -4.0021484375 -29.0509765625 -3.5 -28.3 -2.9927734375 -27.5478515625 -1.8 -28.55 -0.612890625 -29.5515625 0.7 -29
M 2.65 -34.15
Q 2.6 -34.15 2.55 -34.05 2.5 -34.05 2.45 -34.05 2.15 -34 1.95 -34.15 1.5 -34.3 1.3 -34.65 1.05 -35.05 1.05 -34.65 0.95 -34.35 1.15 -34.05 1.35 -33.75 1.75 -33.6 2.15 -33.45 2.5 -33.6 2.8 -33.75 2.9 -34.05 2.95 -34.35 2.65 -34.15
M 2.9 -37.2
Q 2.15 -37.95 1.95 -37.7 1.7 -37.6 1.55 -37.05 1.35 -36.6 1.35 -35.9 1.35 -35.35 1.65 -34.9 2 -34.5 2.45 -34.5 2.5 -34.5 2.55 -34.5 2.95 -34.5 3.25 -34.9 3.6 -35.35 3.6 -35.9 3.6 -36.6 2.9 -37.2 Z"/>

<path fill="#FFFFFF" stroke="none" d="
M -2.9 -31.05
L -2.85 -31.05 -1.6 -29.9 -2.05 -31.95
Q -2.4 -31.7 -2.9 -31.05
M 1.95 -31.15
Q 1.35 -31.85 1.1 -31.95
L 0.9 -29.8 1.95 -31.15 Z"/>
</g>

<g id="base_fuzz_0_Layer0_0_FILL">
<path fill="#866552" stroke="none" d="
M 5.85 23.2
Q 6 22.5 5.95 21.7
L 5.8 21.65
Q 5.3 21.95 4.9 22.3 3.25 23.7 4.55 24.8
L 4.6 24.85
Q 4.75 24.7 4.9 24.65 5.15 24.5 5.3 24.3 5.65 23.85 5.8 23.25
L 5.85 23.2
M 9.25 17.45
L 9.15 17.3
Q 8.95 17.4 8.8 17.55 6.1 18.8 7.05 20.1 7.05 20.25 7.2 20.25
L 7.25 20.4
Q 7.8 20.05 8.2 19.65 9 18.7 9.25 17.45
M 17.3 8.6
Q 17.3 8.95 17.45 9.25 17.55 9.3 17.55 9.4 17.6 9.9 18.1 10.25
L 18.2 10.1
Q 18.95 9.45 17.85 8.45 17.7 8.3 17.45 8.15
L 17.3 8.2
Q 17.3 8.45 17.3 8.6
M 12.4 10.55
Q 12.2 10.4 11.9 10.25
L 11.8 10.25 11.65 10.4
Q 11.6 11.2 11.65 11.95 11.75 13.4 12.6 14.25 12.75 14.4 12.9 14.45
L 13.05 14.4
Q 13.45 13.85 13.55 13.4 14.45 11.75 12.4 10.55
M 16.45 5.85
L 16.2 6.15
Q 16.15 6.3 16.05 6.4 14.8 7.85 14.3 9.25 14.1 9.55 14 9.85 13.85 10.4 13.8 10.85 13.7 10.95 13.8 10.95 13.8 11 13.85 11
L 13.85 10.85
Q 14.25 10.65 14.45 10.4 15.35 9.75 15.75 8.9 16.2 8 16.3 6.8 16.45 6.45 16.45 5.85
M 21.35 8.75
Q 21.5 8.75 21.65 8.9
L 21.95 8.9
Q 21.65 8.5 21.35 8.2 21.15 8 21 7.8 19.45 6.25 17.55 5.95
L 17.55 6.7
Q 18.4 7.4 19.75 8.05 20.45 8.35 21.35 8.75
M 16.35 27
L 16.6 27.15
Q 17.55 25.9 16.6 25.1
L 16.6 25
Q 16.05 25.75 16.35 27
M 17.55 21.65
L 17.55 23.2
Q 18.35 24.05 19.6 25.1
L 19.8 25.15
Q 19.6 22.5 17.55 21.65
M 16.45 21.5
Q 16.15 21.55 15.75 21.65 13.7 22.5 13.45 25.15
L 13.7 25.1
Q 14.95 24.05 15.75 23.2 16.3 22.5 16.65 21.95 16.75 21.65 16.85 21.5 16.85 21.35 16.95 21.25
L 16.75 21.4 16.65 21.4
Q 16.6 21.4 16.45 21.5
M 13.8 21.95
L 13.7 22.1
Q 15.05 21.65 15.75 21.25 16.45 20.9 16.65 20.4 16.95 19.9 16.75 19.3
L 16.6 19.2
Q 16.15 19.35 15.75 19.6 14.4 20.45 13.8 21.95
M 12.85 22
L 12.85 21.95
Q 13.35 20.6 12.85 19.65
L 12.6 19.9
Q 11.5 20.7 12.85 22
M 11 21.5
L 10.65 21.7
Q 8.3 23.4 11.35 25.55 11.45 25.6 11.65 25.6
L 11.65 25.55
Q 11.65 25.45 11.8 25.4 12.45 22.95 11 21.5
M 14.65 18.05
L 14.6 18.2
Q 13.55 18.95 14.65 20.25
L 14.8 20.1
Q 15.1 18.85 14.65 18.05
M 10.2 18.5
Q 10.25 18.5 10.25 18.55 10.35 19.05 10.85 19.45
L 10.95 19.3
Q 11.8 18.55 10.2 17.3
L 10.05 17.4
Q 10.05 17.95 10.2 18.5
M 18.7 18.2
L 18.65 18.05
Q 18.2 18.85 18.5 20.1
L 18.65 20.25
Q 19.65 18.95 18.7 18.2
M 17.1 14.15
Q 16.85 14.4 16.65 14.6 16.3 14.95 16.3 15.25 16.3 15.55 16.6 15.75
L 16.65 15.75
Q 16.85 15.55 17 15.25 17.25 14.8 17.15 14.25
L 17.1 14.15
M 6.7 24.15
Q 6.6 24.05 6.55 24.05
L 6.55 24.15
Q 6.55 24.45 6.7 24.6
L 6.7 24.65
Q 6.75 24.7 6.9 24.85
L 6.95 24.8
Q 8.3 23.7 6.7 22.3
L 6.7 24.15
M 6.3 24.45
L 6.25 24.35
Q 6 24.6 5.8 24.8 5.45 25.1 5.45 25.55 5.45 25.75 5.7 26.05
L 5.8 26.05
Q 6 25.75 6.15 25.55 6.4 25 6.3 24.45
M 16.65 11.35
Q 16.15 11.75 15.75 12.05 14.15 13.5 15.4 14.6
L 15.5 14.65
Q 15.65 14.5 15.75 14.45 16.45 13.85 16.65 13.05 16.85 12.3 16.8 11.5
L 16.65 11.35
M 27.95 23.75
Q 28 24.05 28.1 24.2
L 28.1 24.3
Q 28.15 24.35 28.3 24.5
L 28.4 24.45
Q 29.8 23.35 28.1 21.95
L 28.1 23.75
Q 28 23.75 28 23.7
L 27.95 23.75
M 27.75 24
Q 27.45 24.2 27.2 24.5 26.9 24.8 26.9 25.1 26.85 25.4 27.15 25.6
L 27.2 25.6
Q 27.45 25.4 27.6 25.1 27.8 24.65 27.75 24.05
L 27.75 24
M 27.35 21.35
L 27.2 21.25
Q 26.8 21.55 26.35 21.95 24.7 23.35 25.95 24.45
L 26.1 24.5
Q 26.2 24.35 26.35 24.3 27 23.7 27.2 22.9 27.45 22.15 27.35 21.35
M 22.65 21.7
L 22.25 21.5
Q 20.85 22.95 21.5 25.4 21.55 25.45 21.55 25.55
L 21.65 25.6
Q 21.8 25.6 21.85 25.55 25 23.4 22.65 21.7
M 20.45 22
Q 21.7 20.7 20.7 19.9
L 20.45 19.65
Q 19.9 20.6 20.45 21.95
L 20.45 22
M 22.6 13.7
L 22.8 13.35
Q 23.9 10.95 19.95 10.35 19.8 10.25 19.65 10.25
L 19.75 10.4
Q 19.75 10.55 19.75 10.65 20.55 13.05 22.6 13.7
M 24.05 17.3
L 24.05 17.45
Q 24.2 18.7 25.1 19.65 25.55 20.05 26.05 20.4
L 26.1 20.25
Q 26.2 20.25 26.2 20.1 27.3 18.7 24.05 17.3
M 23.05 18.55
Q 23.05 18.5 23.1 18.5 23.25 17.95 23.25 17.4
L 23.1 17.3
Q 21.5 18.55 22.4 19.3
L 22.45 19.45
Q 22.95 19.05 23.05 18.55
M 22.1 16.05
L 22.15 15.75
Q 22.65 14.6 20.75 14.1 21.05 15.5 22.1 16.05
M 24.15 7.9
L 24 8.2
Q 23.75 11.5 25 13 25.15 13.15 25.3 13.35
L 25.45 13.15
Q 25.8 12.55 25.95 12.05 26.9 9.6 24.2 7.9
L 24.15 7.9
M 7.4 10.8
L 7.35 10.7
Q 7.05 10.95 6.8 11.15 6.55 11.5 6.55 11.8 6.45 12.1 6.8 12.3 7.05 12.1 7.25 11.8 7.5 11.35 7.4 10.8
M 10.2 12.05
Q 10.35 11.65 10.25 11.15
L 10.05 11.3
Q 10 11.5 9.9 11.65 8.45 13.4 7.85 15.05 7.8 15.65 7.65 16.05
L 7.65 16.15 7.7 16.2 7.7 16.15 7.8 16.15 7.8 16.05
Q 8.05 15.9 8.3 15.65 10.05 14.4 10.2 12.05
M 12.45 4.6
Q 12.45 5.15 12.45 5.65
L 12.55 5.55
Q 13.55 4.75 13.7 3.9 13.85 3.65 13.95 3.45
L 13.45 3.6
Q 12.6 3.9 12.45 4.6
M 11.15 5.3
Q 11.15 5.15 11.15 4.85
L 10.85 5
Q 10.35 5.2 9.9 5.45 7.9 6.7 9.4 8.95
L 9.55 9 9.75 8.95
Q 11.5 6.8 11.15 5.3
M 12.9 2.55
L 13.2 2.4
Q 12.9 2.35 12.6 2.4 11.3 2.25 9.55 2.55
L 9.55 2.65
Q 10.95 3.1 12.05 2.95 12.55 2.8 12.9 2.55
M 17.55 2.55
L 17.55 3.75
Q 17.7 3.95 17.9 4.2 18.35 3.25 17.55 2.55
M 15.9 4.2
Q 15.85 4.25 15.75 4.25 14.55 4.75 13.35 5.8
L 13.35 6
Q 14.8 5.8 15.75 5.5 16.3 5.3 16.65 5.05 17.25 4.7 17.4 4.2 17.45 4.05 17.45 3.9
L 17.45 3.75
Q 17 3.75 16.65 3.95 16.3 4.05 15.9 4.2
M 20.85 5.65
Q 20.85 5.15 20.75 4.6 20.7 3.9 19.8 3.6
L 19.35 3.45
Q 19.45 3.65 19.6 3.9 19.65 4.75 20.75 5.55
L 20.85 5.65
M 22.45 2.05
L 22.15 2
Q 22.15 2.2 22.15 2.35 21.85 3.6 23.05 5.3 23.25 5.65 23.6 6
L 23.85 6.15 23.9 6.1
Q 24 6 24.05 6 25.4 3.75 23.4 2.55 22.95 2.35 22.45 2.05 Z"/>

<path fill="#4E3429" stroke="none" d="
M 26.5 6.7
L 28 8 28.1 8.05
Q 29.65 9.1 30.3 8.65 29.7 7.4 28.85 6.15
L 26.5 6.7
M 21.65 8.9
Q 21.5 8.75 21.35 8.75 20.45 8.35 19.75 8.05
L 17.85 8.45
Q 18.95 9.45 18.2 10.1
L 18.1 10.25
Q 17.6 9.9 17.55 9.4 17.55 9.3 17.45 9.25 17.3 8.95 17.3 8.6
L 15.75 8.9
Q 15.35 9.75 14.45 10.4 14.25 10.65 13.85 10.85
L 13.85 11
Q 13.8 11 13.8 10.95 13.7 10.95 13.8 10.85 13.85 10.4 14 9.85 14.1 9.55 14.3 9.25
L 12.9 9.45 12.4 10.55
Q 14.45 11.75 13.55 13.4 13.45 13.85 13.05 14.4
L 12.9 14.45
Q 12.75 14.4 12.6 14.25 11.75 13.4 11.65 11.95
L 8.8 17.55
Q 8.95 17.4 9.15 17.3
L 9.25 17.45
Q 9 18.7 8.2 19.65 7.8 20.05 7.25 20.4
L 5.85 23.2 5.8 23.25
Q 5.65 23.85 5.3 24.3
L 3.6 27.6
Q 4.25 27.45 4.85 27.2 5.95 26.9 6.75 26.5 8 27.2 6.9 28.25 6.75 28.45 6.45 28.7 7.85 29.05 9.3 28.85 11.15 28.4 12.9 27.15 13.15 26.9 13.35 26.8 13.45 26.9 13.45 27.05 13.85 28.25 12.75 29.35 14.9 29 16.6 28.1
L 16.6 28
Q 16.65 28 16.75 28.1 18.4 29 20.55 29.35 19.45 28.25 19.8 27.05 19.8 26.9 19.9 26.8 20.15 26.9 20.4 27.15 22.1 28.4 23.9 28.85 25.4 29.05 26.85 28.7 26.5 28.45 26.35 28.25 25.25 27.2 26.5 26.5 27.35 26.9 28.4 27.2 29.55 27.65 30.8 27.65 31.9 27.65 33.3 27.45 30.15 25.7 30.2 24.3
L 30.3 24.2 30.35 24.2
Q 31.25 24.5 33.25 23.75 33.1 23.75 33 23.75 32.15 23.4 31.55 22.9 30.15 22.1 29.25 20.85 28.25 19.65 27.75 18.2 27.2 16.95 27.05 15.5 29.05 18.85 32.8 18.2 30.75 16.85 29.95 15.65 29.05 14.4 28.85 14 28.55 13.65 28.6 13.55 28.45 13.55 28.45 13.5 27.9 12.05 28 8.9 28 8.35 28 8
L 26.5 6.7 21 7.8
Q 21.15 8 21.35 8.2 21.65 8.5 21.95 8.9
L 21.65 8.9
M 24 8.2
L 24.15 7.9 24.2 7.9
Q 26.9 9.6 25.95 12.05 25.8 12.55 25.45 13.15
L 25.3 13.35
Q 25.15 13.15 25 13 23.75 11.5 24 8.2
M 22.15 15.75
L 22.1 16.05
Q 21.05 15.5 20.75 14.1 22.65 14.6 22.15 15.75
M 23.1 18.5
Q 23.05 18.5 23.05 18.55 22.95 19.05 22.45 19.45
L 22.4 19.3
Q 21.5 18.55 23.1 17.3
L 23.25 17.4
Q 23.25 17.95 23.1 18.5
M 24.05 17.45
L 24.05 17.3
Q 27.3 18.7 26.2 20.1 26.2 20.25 26.1 20.25
L 26.05 20.4
Q 25.55 20.05 25.1 19.65 24.2 18.7 24.05 17.45
M 22.8 13.35
L 22.6 13.7
Q 20.55 13.05 19.75 10.65 19.75 10.55 19.75 10.4
L 19.65 10.25
Q 19.8 10.25 19.95 10.35 23.9 10.95 22.8 13.35
M 20.7 19.9
Q 21.7 20.7 20.45 22
L 20.45 21.95
Q 19.9 20.6 20.45 19.65
L 20.7 19.9
M 22.25 21.5
L 22.65 21.7
Q 25 23.4 21.85 25.55 21.8 25.6 21.65 25.6
L 21.55 25.55
Q 21.55 25.45 21.5 25.4 20.85 22.95 22.25 21.5
M 27.2 21.25
L 27.35 21.35
Q 27.45 22.15 27.2 22.9 27 23.7 26.35 24.3 26.2 24.35 26.1 24.5
L 25.95 24.45
Q 24.7 23.35 26.35 21.95 26.8 21.55 27.2 21.25
M 27.2 24.5
Q 27.45 24.2 27.75 24
L 27.75 24.05
Q 27.8 24.65 27.6 25.1 27.45 25.4 27.2 25.6
L 27.15 25.6
Q 26.85 25.4 26.9 25.1 26.9 24.8 27.2 24.5
M 28.1 24.2
Q 28 24.05 27.95 23.75
L 28 23.7
Q 28 23.75 28.1 23.75
L 28.1 21.95
Q 29.8 23.35 28.4 24.45
L 28.3 24.5
Q 28.15 24.35 28.1 24.3
L 28.1 24.2
M 15.75 12.05
Q 16.15 11.75 16.65 11.35
L 16.8 11.5
Q 16.85 12.3 16.65 13.05 16.45 13.85 15.75 14.45 15.65 14.5 15.5 14.65
L 15.4 14.6
Q 14.15 13.5 15.75 12.05
M 6.25 24.35
L 6.3 24.45
Q 6.4 25 6.15 25.55 6 25.75 5.8 26.05
L 5.7 26.05
Q 5.45 25.75 5.45 25.55 5.45 25.1 5.8 24.8 6 24.6 6.25 24.35
M 6.55 24.05
Q 6.6 24.05 6.7 24.15
L 6.7 22.3
Q 8.3 23.7 6.95 24.8
L 6.9 24.85
Q 6.75 24.7 6.7 24.65
L 6.7 24.6
Q 6.55 24.45 6.55 24.15
L 6.55 24.05
M 16.65 14.6
Q 16.85 14.4 17.1 14.15
L 17.15 14.25
Q 17.25 14.8 17 15.25 16.85 15.55 16.65 15.75
L 16.6 15.75
Q 16.3 15.55 16.3 15.25 16.3 14.95 16.65 14.6
M 18.65 18.05
L 18.7 18.2
Q 19.65 18.95 18.65 20.25
L 18.5 20.1
Q 18.2 18.85 18.65 18.05
M 10.25 18.55
Q 10.25 18.5 10.2 18.5 10.05 17.95 10.05 17.4
L 10.2 17.3
Q 11.8 18.55 10.95 19.3
L 10.85 19.45
Q 10.35 19.05 10.25 18.55
M 14.6 18.2
L 14.65 18.05
Q 15.1 18.85 14.8 20.1
L 14.65 20.25
Q 13.55 18.95 14.6 18.2
M 10.65 21.7
L 11 21.5
Q 12.45 22.95 11.8 25.4 11.65 25.45 11.65 25.55
L 11.65 25.6
Q 11.45 25.6 11.35 25.55 8.3 23.4 10.65 21.7
M 12.85 21.95
L 12.85 22
Q 11.5 20.7 12.6 19.9
L 12.85 19.65
Q 13.35 20.6 12.85 21.95
M 13.7 22.1
L 13.8 21.95
Q 14.4 20.45 15.75 19.6 16.15 19.35 16.6 19.2
L 16.75 19.3
Q 16.95 19.9 16.65 20.4 16.45 20.9 15.75 21.25 15.05 21.65 13.7 22.1
M 15.75 21.65
Q 16.15 21.55 16.45 21.5 16.6 21.4 16.65 21.4
L 16.75 21.4 16.95 21.25
Q 16.85 21.35 16.85 21.5 16.75 21.65 16.65 21.95 16.3 22.5 15.75 23.2 14.95 24.05 13.7 25.1
L 13.45 25.15
Q 13.7 22.5 15.75 21.65
M 17.55 23.2
L 17.55 21.65
Q 19.6 22.5 19.8 25.15
L 19.6 25.1
Q 18.35 24.05 17.55 23.2
M 16.6 27.15
L 16.35 27
Q 16.05 25.75 16.6 25
L 16.6 25.1
Q 17.55 25.9 16.6 27.15 Z"/>

<path fill="#37251E" stroke="none" d="
M 28.85 6.15
Q 27.45 4.4 25.4 2.7 27 2.05 28.55 2.7 27.8 1.4 25.8 0.65 24.8 0.3 23.35 0
L 20.75 0.05 19.05 1.45
Q 18.8 1.15 18.55 0.95 17.85 0.35 17.55 0.5
L 17.55 0.2 16.65 0.5 15.75 0.2 15.75 0.35
Q 15.35 0.3 15.35 0.15 14.95 0.3 14.65 0.3 13.8 0.5 13.05 0.65 11 0.8 10 0 8.5 0.3 7.5 0.65 5.5 1.4 4.75 2.7 6.3 2.05 7.85 2.7 4.35 5.55 3 8.65 3.65 9.1 5.2 8.05
L 5.3 8 7.35 6.25 5.3 8
Q 5.3 8.35 5.3 8.9 5.45 12.05 4.75 13.5 4.75 13.55 4.6 13.55 4.75 13.65 4.5 14 4.25 14.4 3.4 15.65 2.5 16.85 0.45 18.2 4.25 18.85 6.25 15.5 6.1 16.95 5.6 18.2 5.05 19.65 4.05 20.85 3.15 22.1 1.75 22.9 1.15 23.4 0.3 23.75 0.2 23.75 0.05 23.75 2.05 24.5 2.85 24.2
L 3 24.2 3.1 24.3
Q 3.15 25.7 0 27.45 1.4 27.65 2.4 27.65 3 27.65 3.6 27.6
L 5.3 24.3
Q 5.15 24.5 4.9 24.65 4.75 24.7 4.6 24.85
L 4.55 24.8
Q 3.25 23.7 4.9 22.3 5.3 21.95 5.8 21.65
L 5.95 21.7
Q 6 22.5 5.85 23.2
L 7.25 20.4 7.2 20.25
Q 7.05 20.25 7.05 20.1 6.1 18.8 8.8 17.55
L 11.65 11.95
Q 11.6 11.2 11.65 10.4
L 11.8 10.25 11.9 10.25
Q 12.2 10.4 12.4 10.55
L 12.9 9.45 14.3 9.25
Q 14.8 7.85 16.05 6.4 16.15 6.3 16.2 6.15
L 16.45 5.85
Q 16.45 6.45 16.3 6.8 16.2 8 15.75 8.9
L 17.3 8.6
Q 17.3 8.45 17.3 8.2
L 17.45 8.15
Q 17.7 8.3 17.85 8.45
L 19.75 8.05
Q 18.4 7.4 17.55 6.7
L 17.55 5.95
Q 19.45 6.25 21 7.8
L 26.5 6.7 25.95 6.25 26.5 6.7 28.85 6.15
M 22.15 2
L 22.45 2.05
Q 22.95 2.35 23.4 2.55 25.4 3.75 24.05 6 24 6 23.9 6.1
L 23.85 6.15 23.6 6
Q 23.25 5.65 23.05 5.3 21.85 3.6 22.15 2.35 22.15 2.2 22.15 2
M 20.75 4.6
Q 20.85 5.15 20.85 5.65
L 20.75 5.55
Q 19.65 4.75 19.6 3.9 19.45 3.65 19.35 3.45
L 19.8 3.6
Q 20.7 3.9 20.75 4.6
M 15.75 4.25
Q 15.85 4.25 15.9 4.2 16.3 4.05 16.65 3.95 17 3.75 17.45 3.75
L 17.45 3.9
Q 17.45 4.05 17.4 4.2 17.25 4.7 16.65 5.05 16.3 5.3 15.75 5.5 14.8 5.8 13.35 6
L 13.35 5.8
Q 14.55 4.75 15.75 4.25
M 17.55 3.75
L 17.55 2.55
Q 18.35 3.25 17.9 4.2 17.7 3.95 17.55 3.75
M 13.2 2.4
L 12.9 2.55
Q 12.55 2.8 12.05 2.95 10.95 3.1 9.55 2.65
L 9.55 2.55
Q 11.3 2.25 12.6 2.4 12.9 2.35 13.2 2.4
M 11.15 4.85
Q 11.15 5.15 11.15 5.3 11.5 6.8 9.75 8.95
L 9.55 9 9.4 8.95
Q 7.9 6.7 9.9 5.45 10.35 5.2 10.85 5
L 11.15 4.85
M 12.45 5.65
Q 12.45 5.15 12.45 4.6 12.6 3.9 13.45 3.6
L 13.95 3.45
Q 13.85 3.65 13.7 3.9 13.55 4.75 12.55 5.55
L 12.45 5.65
M 10.25 11.15
Q 10.35 11.65 10.2 12.05 10.05 14.4 8.3 15.65 8.05 15.9 7.8 16.05
L 7.8 16.15 7.7 16.15 7.7 16.2 7.65 16.15 7.65 16.05
Q 7.8 15.65 7.85 15.05 8.45 13.4 9.9 11.65 10 11.5 10.05 11.3
L 10.25 11.15
M 7.35 10.7
L 7.4 10.8
Q 7.5 11.35 7.25 11.8 7.05 12.1 6.8 12.3 6.45 12.1 6.55 11.8 6.55 11.5 6.8 11.15 7.05 10.95 7.35 10.7 Z"/>
</g>

<g id="tiny_tree_0_Layer3_0_FILL">
<path fill="#FF0000" stroke="none" d="
M -3.3 -36.5
Q -3.3 -36.2 -3.15 -36 -3.05 -35.75 -2.85 -35.75 -2.7 -35.75 -2.55 -36 -2.4 -36.2 -2.4 -36.5 -2.4 -36.8 -2.55 -37.05 -2.7 -37.25 -2.85 -37.25 -3.05 -37.25 -3.15 -37.05 -3.3 -36.8 -3.3 -36.5
M 1.9 -35.95
Q 2.05 -35.7 2.2 -35.7 2.4 -35.7 2.5 -35.95 2.65 -36.2 2.65 -36.45 2.65 -36.75 2.5 -36.95 2.4 -37.2 2.2 -37.2 2.05 -37.2 1.9 -36.95 1.75 -36.75 1.75 -36.45 1.75 -36.2 1.9 -35.95 Z"/>
</g>

<g id="top_fuzz_copy_0_Layer0_0_FILL">
<path fill="#866552" stroke="none" d="
M 27.65 36.25
L 27.45 36.4
Q 26.85 37 25.95 38.4 27.6 37.65 27.45 37 28.2 36.8 27.65 36.25
M 23.55 28.4
Q 23.25 28.4 22.9 28.7 22.15 29.05 20.9 30.15 22.3 29 22.9 28.95 23.05 28.95 23.2 29 23.5 28.85 23.7 28.8 23.9 28.55 24.2 28.4 23.9 28.35 23.55 28.4
M 20.25 26.85
Q 20.45 26.95 20.6 26.95 21.05 26.95 21 26.5
L 20.85 26.5
Q 20.75 26.5 20.6 26.5 19.65 26.6 18.2 27.4 20.05 27.45 20.25 26.85
M 37.2 36.55
Q 37.25 36.4 37.25 36.35 37.153125 36.3984375 37 36.25 37.1515625 36.4046875 37.2 36.55
M 37.35 36.65
L 37.4 36.65
Q 37.35 36.55 37.25 36.55 37.25 36.65 37.35 36.65
M 35.05 37
Q 34.5 36.85 33.95 36.65 34.05 36.7 34.8 39.25 34.65 36.9 35.05 37
M 31.6 36.05
L 31.5 36.2
Q 30.4 36.35 30 39.7 30.6 37.2 31.2 37.15 31.35 36.65 31.6 36.05
M 39.05 28.05
Q 39.55 28.4 40 28.55 40.65 28.85 41.45 28.85
L 40.35 28.5
Q 40.35 28.25 40.65 28.1 40.5 27.9 40.3 27.9
L 39.05 28.05
M 30.95 23.35
Q 31.05 23.35 31.1 23.3
L 31.05 23.3 30.95 23.35
M 30.6 19.7
Q 31.2 19.6 31.75 19.4 30.8 19.1 30.1 19 30.45 19.3 30.6 19.7
M 31.85 19.4
L 31.75 19.4
Q 31.2 19.6 30.6 19.7 30.75 19.85 30.8 20 30.9 20 31.1 20
L 31.2 20
Q 31.85 20.05 32.65 19.85
L 32.65 19.75
Q 32.35 19.6 31.9 19.45 31.9 19.4 31.85 19.4
M 32 18.05
Q 31.9 18 31.85 18 31.1 17.55 30 17.25 30.3 17.7 30.6 18 30.95 18.2 31.25 18.5 31.6 18.75 32 19 32.05 19.1 32.3 19.25
L 32.35 19.25
Q 32.6 19.4 32.8 19.55
L 32.8 19.6
Q 32.85 19.7 33 19.75
L 33.15 19.75 33.15 19.7
Q 33 19.3 32.85 19.1
L 32.85 19
Q 32.6 18.45 32 18.05
M 31.25 13.25
Q 31.35 13.3 31.5 13.35
L 32.35 14.05
Q 32.45 14.05 32.5 14.1
L 32.6 14.2 32.3 14.2
Q 32.45 14.25 32.65 14.35
L 32.65 14.1
Q 32.05 13.45 31.25 13.25
M 29.8 18.5
L 29.7 18.5
Q 28.85 18.6 28.05 18.8 27.6 18.95 27.15 19.1 27.9 19.4 28.4 19.55 28.9 19.3 29.4 18.8 29.55 18.75 29.8 18.5
M 25.9 17.8
Q 26.25 17.85 26.4 17.9 26.65 17.9 26.8 18 27.45 18.15 28.2 18.2 28.85 18.2 29.55 18.2 29.8 18.2 29.95 18.2
L 30 18.2
Q 29.85 18.15 29.8 18.15 28.85 17.4 27.8 17.4 27.5 17.4 27.3 17.4 26.65 17.5 25.9 17.8
M 25.6 18
L 25.9 18.2
Q 26.05 18.15 26.1 18.15 25.9 17.9 25.6 17.7 25.6 17.8 25.6 18
M 25.6 17.7
L 25.75 17.7 25.75 17.35
Q 25.7 17.5 25.6 17.7
M 27.05 9.05
Q 27.000390625 9.198828125 27.05 9.2 27.15 9.1 27.3 9.2 27.15 9.05 27.05 9.05
M 26.85 8.95
Q 26.95 9.05 27.05 9.05
L 26.95 8.95 26.85 8.95
M 28.85 7.95
Q 29.351171875 7.95 29.95 7.95 29.85 7.95 28.1 5.65 29.196875 7.943359375 28.85 7.95
M 32.35 6.5
Q 32.45 7.05 32.35 7.75
L 32.5 7.45
Q 33.4 7 32.35 3.75 32.85 6.25 32.35 6.5
M 36.7 3.75
Q 35.45 5 35.9 5.5 35.2 5.95 35.95 6.25
L 36.1 6.05
Q 36.45 5.4 36.7 3.75
M 44.4 27.55
L 44.45 27.4
Q 43.5 26.95 42.85 26.8 42.55 26.85 42.2 27
L 42.05 27.1
Q 42.2 27.1 42.25 27.15 43.15 27.4 44.4 27.55
M 45.55 22.85
L 45.2 22.75
Q 43.65 24.15 43.8 25.35 43.75 25.4 43.75 25.65
L 43.8 25.5
Q 44.15 25.4 44.55 25.4 46.1 24.8 45.55 22.85
M 46.6 12.8
Q 46.45 12.8 46.3 12.8 45.95 12.95 46.2 13.35
L 46.45 13.3
Q 46.45 13.25 46.5 13.15 47.3 12.85 48.4 11.75 46.65 12.05 46.6 12.8
M 43.35 11.6
Q 43.2 11.75 43.15 11.7 43 11.9 42.7 12.15 42.55 12.35 42.4 12.55 42.65 12.55 43 12.35 43.2 12.2 43.5 11.9 44.1 11.15 44.9 9.55 43.85 11.4 43.35 11.6
M 29 36.65
Q 29.2 35.6 28.6 34.85
L 28.55 35
Q 27.95 35.7 29 36.65
M 26.7 33.2
L 26.65 33.2
Q 26.65 33.6 26.95 34.05
L 26.85 34.05
Q 27.05 34.6 27.2 34.8
L 27.45 34.65
Q 28.05 34.05 26.7 33.2
M 29.8 33.6
L 29.8 33.7
Q 29.2 34.35 30.1 35.4
L 30.1 35.3
Q 30.25 34.2 29.8 33.6
M 28.75 31.5
Q 28.7 31.5 28.6 31.35 28.7 31.65 28.75 31.8 28.75 31.7 28.75 31.55 28.85 31.5 28.75 31.5
M 25 35.25
L 25 35.4
Q 25.3 35.15 25.7 34.95 26.1 34.2 26.1 33.2
L 26.05 33.1
Q 24.05 34.3 24.8 35.15 24.85 35.4 25 35.25
M 22 26.35
Q 21.85 26.5 21.8 26.8 21.8 26.85 21.7 26.95 21.7 27.15 21.85 27.4 22.25 27.15 22.4 26.85 22.75 26.35 22.8 25.9
L 22.6 25.9
Q 22.25 26.05 22 26.35
M 25 27.1
L 25.15 26.85
Q 24 26.85 22.95 27.4 22.9 27.4 22.8 27.4 22.6 27.45 22.25 27.6
L 22.25 27.75
Q 22.6 27.9 22.9 27.9 23.1 27.9 23.25 27.9 24.85 28.05 25 27.1
M 24.6 25.55
L 24.5 25.55
Q 23.55 25.7 23.65 27
L 23.7 26.95
Q 24.5 26.2 24.6 25.55
M 28.55 28.35
L 28.7 28.35
Q 29.5 28.05 29.2 26.75 28.55 27.4 28.55 28.35
M 26.55 30.85
Q 26.25 30.45 25.95 30.05 25.95 30.1 24.8 32.5 26.35 30.55 26.55 30.85
M 27.65 27.4
L 27.5 27.6
Q 26.85 28.35 27 28.95
L 27.15 28.95
Q 27.8 28.5 27.65 27.4
M 28.6 26.5
L 28.6 26.35
Q 28.25 26.3 27.9 26.35 27.45 26.35 27.05 26.45 26.1 26.6 26.2 27.4
L 26.2 27.7
Q 27.65 27.6 28.6 26.5
M 38.45 34.7
Q 38.75 35.6 39.4 36.05
L 39.35 35.9
Q 39.55 35.1 38.45 34.6
L 38.35 34.6 38.45 34.7
M 31.25 34.65
L 31.25 34.5
Q 29.95 35.25 29.4 36.65
L 29.4 36.7
Q 32 35.9 31.25 34.65
M 32.3 32
L 32.3 32.1 32.35 32.1 32.3 32
M 33.45 33.6
L 33.45 33.75
Q 33.45 34.7 34.05 35.1 34.55 34.45 33.45 33.6
M 35 33.85
Q 35.45 33.2 34.25 32.3 34.2 33.2 34.85 33.9
L 35 33.85
M 33.7 32.35
L 33.55 32.3
Q 32.65 32.75 32.2 33.25 32.35 33.85 32.8 34.45 33.55 33.6 33.7 32.35
M 33.1 31.2
L 33 31
Q 33.15 30.75 33.1 30.55 32.95 30.75 32.8 31 32.85 31.05 33.1 31.2
M 31.1 30.7
L 30.9 30.7 30.95 30.85
Q 30.9 31 30.75 31.25 30.6 31.5 30.6 31.8 30.65 32 30.8 32.3
L 30.9 32.1
Q 31.25 31.7 31.25 31.15 31.2 31 31.1 30.75
L 31.1 30.7
M 30.5 26.3
Q 31.2 25.75 30.6 24.8 30.05 25.6 30.5 26.3
M 34.2 30.1
L 34.2 30.05 34.4 30.1
Q 34.35 30.05 34.1 29.95
L 34.05 29.95
Q 34.35 30.95 35.05 31.35 34.5 30.9 34.2 30.1
M 35.8 21
L 35.8 21.2
Q 35.2 21.5 35.45 21.95 35.35 22.2 35.45 22.45 35.65 22.9 36.3 23.4 36.7 23.8 37.2 24
L 37.35 24
Q 37.2 23.5 37.15 23.05
L 37.15 23
Q 36.85 21.8 35.8 21
M 36.55 19.7
Q 35.95 20.35 37.05 21.3
L 37.25 21.3
Q 37.2 20.25 36.7 19.6
L 36.55 19.7
M 39.75 20.8
Q 39.55 20.7 39.55 20.65
L 39.6 20.4
Q 39.05 20.85 38.75 21.35 38.6 21.65 38.35 21.9 38.25 22.4 38.1 22.9 38.1 23.15 37.95 23.35 37.85 23.85 37.85 24.3
L 38 24.4
Q 38.1 24.4 38.15 24.3 38.35 24.1 38.6 23.95 39.35 23.3 39.6 22.55
L 39.7 22.45
Q 39.7 22.4 39.75 22.3
L 39.75 22.1
Q 40.15 21.5 39.75 20.8
M 38.3 19.7
L 38.35 19.55
Q 37.55 20.1 37.4 21.45
L 37.5 21.5
Q 38.1 21.15 38.25 20.8 38.25 20.7 38.3 20.65 38.25 20 38.3 19.75
L 38.3 19.7
M 32.6 24.65
Q 32.5 24.5 32.35 24.4
L 32.2 24.45
Q 32.05 25.2 32.6 25.7 32.65 25.75 32.65 25.85 32.85 25.7 33 25.55 32.85 25.1 32.6 24.65
M 35.15 17.55
L 34.9 17.5
Q 35.45 18.2 36.3 18.75 36.45 18.8 36.6 18.9
L 36.7 18.75
Q 36.45 18.15 35.8 17.7 35.5 17.7 35.15 17.55
M 33.25 12.95
Q 33.25 13.15 33.4 13.35 33.4 13.15 33.4 12.85 33.3 12.8 33.1 12.7
L 33.25 12.95
M 39.2 17.9
Q 39.1 18.15 39.1 18.2 39.25 18.75 39.6 19.15 39.7 19.3 40 19.6 40.2 19.75 40.35 20.1 40.45 20.1 40.45 20.2
L 40.55 20.2
Q 40.5 19.1 40.3 18.2 40.15 17.9 39.85 17.7 39.75 17.65 39.75 17.4 39.6 17.2 39.4 17.1
L 39.4 17.2
Q 39.1 17.55 39.2 17.9
M 37.55 16.55
Q 37.25 17.05 37.55 17.5 37.65 17.7 38.1 18
L 38.15 18
Q 38.15 17.9 38.1 17.8 38.1 16.8 37.5 16.4
L 37.55 16.55
M 38.45 14.05
L 38.3 14.1
Q 37.65 14.6 38.6 15.7 38.95 14.85 38.45 14.05
M 28.25 24.6
Q 28.25 24.45 28.2 24.3 28.05 24.15 27.95 23.85
L 27.8 23.85
Q 27.45 24.8 27.75 25.65
L 27.8 25.4
Q 28.3 25.1 28.25 24.6
M 29.5 22.75
Q 29.4 22.7 29.35 22.55 29.2 22.45 29.05 22.3
L 29 22.3
Q 28.7 23.2 28.6 23.85 28.6 24.25 28.75 24.5 28.75 24.65 28.75 24.8 28.85 25.05 28.9 25.25
L 29 25.1
Q 29.4 24.9 29.55 24.5 29.7 24.4 29.7 24.25 29.8 23.8 29.65 23.3 29.65 23 29.5 22.75
M 27.2 24
Q 27.15 24 27 24.1 26.65 24.3 26.5 24.6 26.4 24.75 26.4 24.9
L 26.55 24.9
Q 26.8 24.9 26.95 24.8 27.15 24.6 27.35 24.4 27.5 24.25 27.65 23.85
L 27.6 23.85
Q 27.45 23.85 27.2 24
M 27.2 22.85
Q 27.45 22.4 27.6 22.2 26.25 22.55 26.55 23.55
L 26.55 23.8
Q 27 23.65 27.3 23.4 27.8 23.2 28.1 22.85 28.3 22.7 28.3 22.55 27.8 22.6 27.2 22.85
M 20.35 24.4
Q 21.15 24 21.85 23.35
L 21.85 23.2
Q 19.45 23.15 19.35 24.25 19.45 24.4 19.5 24.4
L 19.45 24.6
Q 19.8 24.45 20.35 24.4
M 21.95 24.4
L 21.8 24.4
Q 21.7 24.8 21.65 25.1
L 21.85 25.1
Q 22.8 24.9 22.25 23.65
L 22.25 23.55
Q 22 23.85 21.95 24.4
M 30.3 10.75
L 30.15 10.9
Q 30 11.55 31.55 12.05 31.2 11.25 30.3 10.75
M 25.45 10.3
Q 25.55 11.1 26.65 11.25
L 26.8 11.15 26.55 11.1
Q 26.05 10.35 25.25 10.15
L 25.45 10.3
M 39.25 11.05
Q 39.6 11.4 40.15 11.6 40.15 11.55 40.15 8.85 39.55 11.25 39.25 11.05
M 35.5 7.95
L 35.65 7.75
Q 35.95 7 34.55 6.4 34.9 7.45 35.5 7.95
M 38.1 8.75
L 38.15 8.85
Q 38 8.45 37.55 8.1
L 37.55 7.95
Q 37.2 7.75 36.9 7.5
L 36.85 7.65
Q 36.55 8.45 38.1 8.75
M 38.65 6.25
Q 38.5 6.55 38.35 6.9 38.25 7.75 38.65 8.6
L 38.75 8.75
Q 40.15 7 38.95 6.4 38.9 6.25 38.75 6.4
L 38.65 6.25
M 35.2 12
Q 35.2 11.7 35 11.45 34.85 11.25 34.8 11.05
L 34.7 11.15 34.65 11.25
Q 34.55 11.7 34.8 12.2 34.9 12.35 35.05 12.55
L 35.3 12.55
Q 35.35 12.55 35.2 12.4 35.2 12.15 35.2 12
M 33.45 11.7
L 33.4 11.7 33.45 11.75 33.45 11.7
M 35.05 9.4
L 35 9.35
Q 35.35 8.45 34.05 7.95 34.4 8.95 35.05 9.4
M 31.7 10.5
L 31.6 10.45
Q 31.2 9.55 30.5 9.35
L 30.45 9.4
Q 30.45 10.15 31.7 10.5
M 32 9.65
Q 31.6 10.6 32 11.85
L 32.3 11.9
Q 32.85 11.1 33 10.5 32.65 10 32 9.65
M 33.4 8.9
L 33.45 9.05
Q 34.2 7.95 34.05 6.55
L 34.05 6.5
Q 32.15 7.95 33.4 8.9
M 40.8 25.4
L 40.65 25.4
Q 40.35 25.85 40.15 26.15 40.05 26.35 40 26.5 39.9 26.6 39.9 26.8 40.3 26.65 40.45 26.5 41 26.15 40.8 25.4
M 42.9 24.8
L 42.85 24.8
Q 42.1 25.35 41.75 25.85 41.75 26.05 41.75 26.15
L 41.75 26.3
Q 42.4 26.05 42.65 25.65 42.9 25.1 42.9 24.8
M 42.4 24.4
Q 42.2 24.4 41.95 24.4 41.65 24.4 41.4 24.4 41.25 24.4 41 24.4 39.85 24.6 39.55 25.1 39.45 25.2 39.4 25.35
L 39.35 25.4 39.4 25.5
Q 39.45 25.5 39.55 25.5 40.95 25.4 42.4 24.5
L 42.4 24.4
M 41.55 24.1
Q 42.05 24 42.5 23.8 43.15 23.4 43.75 23 43.85 22.85 44.1 22.7
L 43.85 22.55
Q 43.85 22.7 43.65 22.7 41.95 23 40.95 23.55 40.35 23.85 40.05 24.1
L 40.35 24
Q 40.95 24.15 41.55 24.1
M 42.35 17.85
L 42.1 17.7
Q 41.9 17.9 41.65 18.2 41.3 18.65 41.15 19 41.1 19.4 41 19.85
L 41.1 19.9
Q 43.2 19 42.35 17.85
M 40.95 18.05
L 41 18
Q 41 17.05 40.35 16.3
L 40.35 16.7
Q 40.15 16.95 40.35 17.4 40.35 17.55 40.45 17.7 40.65 17.8 40.95 18.05
M 41.95 16.9
Q 41.9 16.75 41.8 16.6
L 41.75 16.7
Q 41.55 16.75 41.45 16.8 41.25 17.1 41.25 17.35 41 17.7 41.15 17.9
L 41.25 17.9
Q 41.4 17.85 41.45 17.7 41.6 17.7 41.65 17.55 41.9 17.2 41.95 16.9
M 39.9 15.65
Q 40.15 15.65 40.3 15.6 39.9 15.05 39.6 14.75 39.35 15.15 39.1 15.65
L 39.25 15.85
Q 39.6 15.85 39.9 15.65
M 39.55 13.1
Q 39.05 13.6 39.55 14.4 39.6 14.45 39.6 14.6
L 39.7 14.4
Q 40.05 13.5 39.6 13
L 39.55 13.1
M 41.1 14.9
Q 41.25 14.6 41 14.1
L 40.95 13.9
Q 40.15 14.2 39.6 14.75 39.9 15.05 40.3 15.6 40.45 15.45 40.65 15.35 41 15.15 41.1 14.9
M 43.5 13.65
L 43.5 13.75
Q 43.15 14.75 43.2 15.45
L 43.3 15.45
Q 44.1 14.9 43.5 13.65
M 44.55 12.65
L 44.45 12.55
Q 44.1 12.65 43.8 12.65 43.65 12.7 43.45 12.8 42.05 13.1 42.2 14.1
L 42.1 14.35
Q 43.2 14.05 44 13.15 44.1 13.15 44.15 13.15 44.4 12.95 44.55 12.65
M 45.25 13.75
Q 45.35 13.6 45.25 13.45 45.25 13.3 45.25 13.15 45.2 12.95 44.95 12.8 44.75 13.1 44.7 13.5 44.6 14.05 44.75 14.55
L 44.95 14.4
Q 45.2 14.1 45.25 13.75
M 46.15 14.85
L 45.95 14.9
Q 45.2 15.45 46.15 16.55 46.3 16.15 46.2 15.65
L 46.35 15.65
Q 46.2 15.2 46.15 14.85
M 48.4 14.9
L 48.5 14.7
Q 48.15 14.85 47.7 15.15 47.1 15.7 46.65 16.7
L 46.75 16.75
Q 49 16 48.65 15.05 48.55 14.85 48.4 14.9
M 104.25 36.25
L 104.25 36
Q 103.4 36.25 104.05 36.8 103.65 37.25 104.7 38.75 104.7 37.05 104.25 36.25
M 101.6 27.35
Q 101.45 27.35 101.4 27.45
L 100.35 28.1
Q 101.1 28.1 101.7 27.3
L 101.6 27.35
M 101.7 27.3
L 101.75 27.3 101.7 27.2
Q 101.55 27.2 101.45 27.2
L 101.7 27.3
M 115.85 29.8
Q 115.8 29.7 115.7 29.7
L 115.55 29.7
Q 115.2 30.05 115.65 30.2 115.8 30.2 115.95 30.2 115.8 30.95 117.6 31.6 116.65 30.3 115.85 29.8
M 112.6 30.9
Q 112.35 30.45 112.2 30.35 111.8 30.2 111.5 30.15 111.75 30.3 111.9 30.5 112.05 30.8 112.2 31.1 112.25 31 112.5 31.15 112.8 31.25 113.25 32.15 112.9 31.4 112.6 30.9
M 100.8 34.4
L 100.75 34.05
Q 100.75 34.7 100.6 35.45 101.1 35.7 100.3 38.2 101.75 35 100.8 34.4
M 98.55 33.65
Q 97.9 33.5 97.15 33.5 97.5 33.6 96.2 35.85 98.15 33.65 98.3 33.65
L 98.55 33.65
M 95.45 32.1
Q 95.55 32.1 95.75 32 95.55 32.05 95.45 31.9 95.4 31.9 95.45 32.1
M 100.25 28.1
L 100.15 28.15
Q 100.25 28.15 100.3 28.1
L 100.25 28.1
M 98.05 21.2
Q 97.5 21.25 96.65 21.5 97.15 21.7 97.6 21.85 98.3 22.2 99.2 22.35 99.15 22.2 99.05 22 98.4 21.4 98.05 21.2
M 95.8 22.65
Q 95.6 22.75 95.3 22.75 96.05 23.1 96.7 23.25 96.95 23.25 97.15 23.25
L 97.2 23.3
Q 98.25 23.4 99.2 22.8 99.4 22.9 99.5 22.75 99.2 22.65 99.15 22.65 98.3 22.6 97.65 22.6 96.85 22.6 96.2 22.6 96.05 22.65 95.8 22.65
M 95 23.1
Q 95.15 22.9 95.15 22.8 95 22.8 94.95 22.8 95 22.95 95 23.1
M 94.95 22.8
Q 95.3 22.65 95.55 22.45 95.45 22.45 95.4 22.35
L 94.95 22.45
Q 94.95 22.65 94.95 22.8
M 90.9 12.9
Q 90.9 13 91 13
L 91.2 13.05
Q 91.35 12.55 90.9 12.45 90.75 12.45 90.55 12.4 90.3 11.8 88.5 11.8 89.95 12.75 90.9 12.9
M 94 11.2
Q 94.45 11.35 94.7 11.3
L 94.85 11.45
Q 94.65 11.15 94.2 10.85 93.9 10.7 93.75 10.65 93.6 10.7 93.4 10.65 92.8 10.4 91.2 8.8 92.6 10.25 93.4 10.85 93.75 11.15 94 11.2
M 99 3.2
L 99.15 3.3
Q 99.7 2.95 98.9 2.65 99.2 1.95 97.75 0.95 98.4 2.55 99 3.2
M 115.25 16.7
Q 114.85 16.65 114.55 16.5
L 114.4 16.45
Q 114.4 16.55 114.45 16.7 114.15 17.9 115.55 19.5
L 116 19.6
Q 116.75 17.6 115.25 16.7
M 115.35 14.5
L 115.25 14.45
Q 114 14.35 113.05 14.6 112.9 14.6 112.85 14.65
L 112.9 14.75
Q 113.35 14.8 113.65 15.05 114.3 14.95 115.35 14.5
M 102.95 21.55
L 102.95 21.5 102.8 21.4
Q 102.65 21.5 102.55 21.55
L 102.55 21.7
Q 102.3 21.8 102 21.85
L 102 21.95
Q 101.75 22 101.6 22.15 101.25 22.35 100.9 22.6 100.5 22.8 100.1 23.05 99.8 23.3 99.4 23.75 100.6 23.55 101.35 23.15 101.4 23.15 101.55 23.1 102.15 22.8 102.55 22.15
L 102.55 22.05
Q 102.8 21.8 102.95 21.55
M 101.6 21.65
Q 102.05 21.55 102.45 21.4
L 102.45 21.25
Q 101.6 21.05 100.95 20.95
L 100.9 20.9
Q 100.65 20.9 100.6 20.9 100.25 21.4 99.7 21.95 100.45 21.85 101.55 21.7 101.6 21.7 101.6 21.65
M 110.95 12.85
Q 110.3 13.05 109.9 13.25
L 111.15 13.65
Q 111.4 13.5 111.5 13.5 111.25 13.2 111.3 12.9
L 112.4 12.7
Q 111.5 12.55 110.95 12.85
M 101.9 0
Q 102 3.5 102.95 3.8
L 103.15 4.05
Q 103 3.35 102.85 2.8 102.2 2.7 101.9 0
M 106.75 3.45
Q 106.3 3.45 106.85 0.95 105.9 3.35 105.75 3.65 106.15 3.6 106.75 3.45
M 109.1 4.05
Q 109.05 4.05 108.95 4.1 109.05 4.1 109.2 4.05
L 109.1 4.05
M 109.05 4.3
L 108.95 4.1
Q 108.8 4.15 108.65 4.3 108.9 4.25 109.05 4.3
M 107.35 33.65
L 107.2 33.8
Q 106.75 34.7 106.85 35.55 107 36 107 36.4
L 107.1 36.15
Q 107.25 36.3 107.4 36.15 108.6 35.7 107.35 33.65
M 108.15 31.25
Q 108.45 31.15 108.8 33.75 109.1 30.9 109.2 30.8 108.6 30.95 108.15 31.25
M 105.3 34.75
Q 105.75 34.55 106.15 34.35
L 106.1 34.25
Q 106.6 33.95 106.75 33.5
L 106.7 33.6
Q 105.15 33.9 105.35 34.6
L 105.3 34.75
M 104.2 34.4
L 104.05 34.25
Q 103.3 34.7 102.85 35.7 104.35 35.3 104.2 34.4
M 103.6 32.65
L 103.65 32.55
Q 103 32.95 102.5 33.95
L 102.5 34.1
Q 103.9 33.6 103.6 32.65
M 102 32.8
L 101.9 32.95
Q 100.6 33.75 102.35 35.65
L 102.35 35.55
Q 102.65 34.05 102 32.8
M 103.45 30.6
L 103.6 30.9
Q 103.75 30.65 103.8 30.45 104.05 30.2 104.1 29.9 104.1 29.65 104.1 29.35 104.35 29.4 104.25 29.35
L 104.1 29.25 104.05 29.35
Q 103.95 29.4 103.8 29.55 103.45 30.2 103.45 30.6
M 107.65 27.95
L 107.7 28
Q 108.2 27.3 108 26.25 106.9 27.45 107.65 27.95
M 109.05 27.8
L 108.95 27.65
Q 108.2 28.55 108.65 29.2
L 108.75 29.25
Q 109.3 28.8 109.05 27.8
M 110 26.9
Q 109.85 26.7 109.4 26.5 109.05 26.25 108.65 26.2
L 108.6 26.35
Q 108.9 27.8 110.2 28.45
L 110.35 28.15
Q 110.85 27.45 110 26.9
M 114.4 28.4
L 114.25 28.3
Q 114 28.7 114.1 29.35 114.1 29.8 114.25 30.05 114.45 29.9 114.6 29.7 114.6 29.55 114.6 29.5 114.75 29.25 114.7 29.05 114.7 28.6 114.4 28.4
M 111.5 28.25
L 111.5 28.4
Q 111.3 29.5 112.7 29.9 112.85 30 113.05 30.15 113.3 30.2 113.65 30.3
L 113.7 30.15
Q 113.65 29.9 113.45 29.65 113.35 29.55 113.3 29.55 112.55 28.6 111.5 28.25
M 112.75 27.2
L 112.7 27.15
Q 112.5 27.8 112.85 28.95
L 112.85 29.05
Q 113.6 27.7 112.75 27.2
M 115.85 26.25
L 115.85 26.35
Q 114.75 27.35 115.5 27.85
L 115.7 28
Q 115.8 27.65 116 27.3
L 115.85 27.2
Q 116 26.7 115.85 26.25
M 118.25 28.1
Q 118.7 27.15 116.5 26.1
L 116.35 26.2
Q 116.75 27.15 117.25 28 117.7 28.25 118 28.4
L 118 28.15
Q 118.15 28.25 118.25 28.1
M 100.35 30.95
Q 99.05 31.3 99 32.05
L 99.05 32.25
Q 99.8 32 100.3 31.1
L 100.35 30.95
M 95.45 29.85
L 95.3 29.8
Q 94.15 29.7 93.9 30.6
L 93.75 30.75
Q 94.6 30.65 95.25 29.85
L 95.45 29.85
M 98.9 30.6
L 99 30.65
Q 99.95 30.3 100.35 29.35 98.85 29.8 98.9 30.6
M 105.8 30.95
L 105.75 30.95
Q 105.75 31 105.75 31.1 105.8 31.05 105.8 30.95
M 102.35 28.3
Q 102.2 28.4 102.2 28.75
L 102.05 28.8
Q 102.3 28.8 102.45 28.8 102.45 28.45 102.35 28.3
M 101.2 29.65
L 100.9 29.8
Q 100.3 30.95 100.65 32 101.25 31.7 101.75 31.1 101.7 30.5 101.2 29.65
M 92.75 13.7
L 93.05 13.8
Q 92.95 13.25 92.75 12.75 92.6 12.4 92.25 12.1 92.1 12.4 92 12.6 92.1 12.7 92.1 12.85 92.15 13.05 92.15 13.2 92.45 13.5 92.75 13.7
M 91.95 14.5
L 91.7 14.5
Q 91.8 14.95 91.8 15.35
L 91.95 15.35
Q 92 15.85 92.25 16.15 92.9 14.8 91.95 14.5
M 94 12.75
L 93.9 12.7
Q 93.7 14.1 94.7 14.35 94.8 13.7 94 12.75
M 101.1 17.4
L 101.2 17.45 101.25 17.45
Q 101.2 17.4 101.1 17.4
M 96.65 16.55
L 96.55 16.65
Q 96.1 17.75 97.5 18.25 97.35 17.95 97.2 17.6 97.65 17.8 98.25 17.95 98.25 17.75 98.1 17.65 97.8 17.25 97.35 16.85 97 16.65 96.65 16.55
M 98.1 14.95
L 98.05 14.65
Q 97.6 15.55 97.95 16.5
L 98.1 16.5
Q 98.15 16.2 98.3 16.05 98.4 15.9 98.45 15.75 98.45 15.25 98.1 14.95
M 96.7 15.35
L 96.65 15.35
Q 96.65 15.45 96.65 15.7 96.8 15.9 97.05 16.15 97.2 16.3 97.35 16.35 97.5 16.45 97.75 16.45
L 97.8 16.45
Q 97.65 16.15 97.5 15.9 97.35 15.7 97.15 15.45 97 15.4 96.7 15.35
M 99.2 15.25
L 99.2 15.1
Q 99.05 15.4 99 15.7 99 15.75 98.9 15.9 98.85 16.3 98.85 16.55 98.75 17.4 98.9 18.2
L 99 18.2
Q 99.15 18.1 99.35 18.1 99.5 17.95 99.55 17.8 99.65 17.6 99.7 17.3 99.85 16.85 99.85 16.35 99.85 16.15 99.8 16 99.7 15.6 99.2 15.25
M 99 14
L 99.05 13.8
Q 98.15 12.55 96.65 12.25
L 96.65 12.55
Q 96.5 13.4 97.35 13.7 97.75 13.85 98.25 13.95 98.6 14 99 14
M 100.95 14.3
L 100.95 14.15
Q 100.35 14.8 100.8 15.9
L 100.9 15.9
Q 101.55 14.9 100.95 14.3
M 89.5 15.05
Q 89.35 15.05 89.3 15.25 89.2 16.45 91.7 16.55
L 91.8 16.45
Q 91.05 15.6 90.3 15.1 89.75 15.05 89.35 14.9
L 89.5 15.05
M 99.35 11.9
L 99.15 11.9
Q 99.05 12.85 99.55 13.7 100.15 12.25 99.35 11.9
M 97.75 11.15
L 97.6 11.05
Q 97.45 11.65 98.05 12.55
L 98.15 12.7
Q 98.45 11.6 97.75 11.15
M 96.8 9.8
Q 97 9.4 97.45 9 97.05 9.15 95.8 7.05 96.8 9.75 96.8 9.8
M 99.7 8.6
Q 99.8 8.5 99.7 8.45 99.7 8.353125 99.7 8.3 99.6986328125 8.358203125 99.65 8.65
L 99.7 8.6
M 92.65 11.75
L 92.65 11.9
Q 92.9 12.1 93.2 12.25 93.2 12.3 93.35 12.3 94.3 12.9 95.55 13
L 95.45 12.85
Q 95.3 11.75 93.75 11.75 93.6 11.8 93.35 11.75 93.05 11.75 92.65 11.75
M 99.85 4.85
L 100 4.9
Q 100.5 4.3 100.5 3.05 99.35 4.05 99.85 4.85
M 96.95 4.55
Q 96.65 4.25 96.4 4.05
L 96.4 4.15
Q 96.2 4.05 96.1 4.15 95.25 5.15 97.15 6.5
L 97.2 6.45
Q 97.3 5.4 96.95 4.55
M 98.7 5
L 98.55 4.9
Q 98.3 5.15 98.1 5.55 97.8 6.1 97.8 6.5
L 97.9 6.5
Q 99.2 5.7 98.7 5
M 112.4 15.6
Q 112.5 15.6 112.4 15.9 112.7 16.55 113.45 17.25
L 113.5 17.25
Q 113.5 16.8 113.3 16.35 113.15 15.7 112.5 15.45
L 112.4 15.6
M 110.7 24.05
Q 110.3 24.3 110.15 24.4 110.05 24.55 110.05 24.65 109.7 25.15 109.9 25.45
L 109.9 25.8
Q 110.65 25.25 110.7 24.15
L 110.7 24.05
M 111.15 24.55
Q 111.1 24.4 110.95 24.3 110.8 24.5 110.85 24.85 110.85 25.1 111.1 25.45 111.15 25.5 111.4 25.6
L 111.45 25.65
Q 111.6 25.5 111.65 25.45 111.6 25 111.4 24.7 111.3 24.55 111.15 24.55
M 110.55 21.8
L 110.4 21.8
Q 110.4 21.85 110.35 21.85 110.15 22.2 109.9 22.45 109.6 22.5 109.4 22.75 108.95 23.25 108.9 23.6 108.9 23.85 108.9 24.05 108.8 24.4 109.05 24.85
L 109.05 25
Q 109.2 24.8 109.4 24.55 109.45 24.4 109.55 24.35 109.75 24.15 110.05 23.85 110.35 22.9 110.55 21.8
M 111.1 22.05
L 111 22.15
Q 111.1 22.65 111.1 23.05 111.1 23.55 111.45 24.05 111.65 24.3 111.9 24.55
L 112.05 24.5
Q 113.05 23.3 111.1 22.05
M 107.65 23.85
Q 107.25 24.15 107.1 24.3 106.85 24.85 107.05 25.3
L 107 25.45
Q 107.55 25.1 107.7 24.05 107.8 24 107.8 23.85
L 107.65 23.85
M 108.3 21.1
Q 108.3 21.05 108.2 20.9 108 20.55 107.55 20
L 107.5 20.15
Q 107.5 21.55 108.2 22.3
L 108.2 22
Q 108.15 21.7 108.3 21.1
M 107.25 20.3
L 107.05 20.25
Q 105.8 21.2 106.4 21.95
L 106.55 22
Q 107.05 21.35 107.25 20.3
M 106.1 22.9
Q 105.15 23.3 104.55 24
L 104.7 24
Q 105.15 23.9 105.45 23.9 106.15 23.55 106.45 22.9
L 106.4 22.75
Q 106.25 22.75 106.1 22.9
M 103.45 15.25
Q 103.3 15.1 103 14.95 102.95 15.05 102.95 15.1 102.45 15.55 102.5 16.35
L 102.55 16.35
Q 102.7 16.35 102.85 16.2 103.25 15.75 103.45 15.25
M 110.5 17.6
Q 110.7 17.9 111.3 18.2 112.35 19 114 19.5 114.3 19.5 114.25 19.65
L 114.4 19.6
Q 114.3 19.35 114.1 19.15 113.5 18.55 112.9 18.2 112.55 17.95 111.9 17.75 111.4 17.6 110.8 17.65
L 110.5 17.6
M 109.9 16.15
Q 109.9 16.2 110 16.3 109.9 16.35 109.9 16.45 110.3 17.1 111.5 17.3 111.65 17.3 111.8 17.4 112.1 17.45 112.5 17.45 112.6 17.45 112.9 17.45
L 112.85 17.4
Q 111.5 16.35 110 16.05
L 109.9 16.15
M 108.5 17.15
Q 108.45 17.1 108.35 17
L 108.2 17.1
Q 108.15 17.6 108.2 18.2 108.2 18.5 108.3 18.7 108.35 19.15 108.5 19.65 108.65 20 108.8 20.3 109.1 20.9 109.55 21.5
L 109.4 21.25
Q 109.55 21.1 109.75 20.95 110.3 20.4 109.9 19.65 109.9 19.45 109.9 19.35 109.9 19.3 109.9 19.2
L 109.85 19.2
Q 109.7 18.4 108.95 17.65 108.75 17.4 108.5 17.15
M 107.35 18.4
L 107.35 18.35
Q 107.5 17.8 107.7 17.4
L 107.5 17.4
Q 107 17.65 106.6 17.9 105.9 18.35 105.6 18.75 105.45 19.15 105.5 19.35 105.2 19.8 105.75 20.25
L 105.8 20.4
Q 106.85 19.65 107.35 18.4
M 111.15 15.05
Q 111 14.9 110.65 14.8 110.65 14.95 110.65 15.1 110.7 15.25 110.8 15.45 110.95 15.75 111.25 16.3
L 111.4 16.3
Q 111.6 15.55 111.15 15.05
M 104.1 9.9
Q 104.2 9.8 104.05 9.55
L 104.2 9.3
Q 103.95 9.4 103.8 9.55 103.95 9.75 104.1 9.9
M 105.15 10.7
L 105.15 10.65
Q 105.5 9.8 106.15 9.3 105.3 9.75 105 10.7
L 105.05 10.8
Q 105.2 10.7 105.35 10.65
L 105.15 10.7
M 102 8.15
L 101.9 8.05 101.9 7.9
Q 101.75 8.2 101.7 8.45 101.6 8.8 101.75 9 101.75 9.25 101.9 9.45 101.75 9.7 101.85 9.7
L 102.05 9.6 102.05 9.55
Q 102.15 9.4 102.3 9.25 102.35 8.65 102 8.15
M 106.3 6.6
Q 105.5 7.35 105.45 8.3 106.85 7.5 106.4 6.65
L 106.3 6.6
M 104.7 8.2
L 104.85 8.15
Q 104.85 6.8 104.25 5.85 103.65 6.4 103.55 7.05 103.75 7.6 104.7 8.2
M 105.6 5.35
L 105.6 5.3
Q 104.9 5.55 104.85 6.6
L 104.75 6.8
Q 106 6.1 105.6 5.35
M 102.65 5.7
L 102.65 5.4
Q 103.55 4.3 101.05 3.15 101.4 4.7 102.65 5.7
M 101.55 4.7
L 101.55 4.55
Q 100.5 5.55 100.95 6.4
L 100.95 6.45
Q 101.55 5.85 101.55 4.7
M 111.1 5.15
L 111.15 4.9
Q 110.35 5.3 110.05 6.1
L 109.9 6.25 110.05 6.3
Q 111 6 111.1 5.15 Z"/>

<path fill="#855947" stroke="none" d="
M 23.65 16.1
L 22.95 15.7
Q 22.95 15.85 21.85 15.95 23.5 16 23.65 16.1
M 48.85 24.1
Q 48.85 24 49.8 23.55 48.35 24 48.15 24
L 48.85 24.1
M 92 24.5
L 92.75 24.3
Q 92.45 24.35 90.9 24.3 92 24.4 92 24.5
M 118.7 18.65
Q 119 18.65 120.4 19.15 119.5 18.65 119.5 18.55
L 118.7 18.65 Z"/>

<path fill="#6D4A3D" stroke="none" d="
M 24.6 16.55
L 24.35 16.55
Q 25 17.1 25.6 17.7 25.1 17.1 24.6 16.55
M 29.85 15.65
Q 29.803125 15.65 29.8 15.55 29.8 15.808203125 29.8 16.15 29.8453125 16.2859375 29.85 16.45 29.85 16.238671875 29.85 16.1 29.85 15.85 29.85 15.65
M 25.75 17.7
L 25.6 17.7
Q 25.9 17.9 26.1 18.15 26.25 18.2 26.35 18.2 26.8 18.75 27.15 19.1 27.6 18.95 28.05 18.8 28.85 18.6 29.7 18.5
L 29.8 18.5
Q 29.55 18.75 29.4 18.8 28.9 19.3 28.4 19.55 29 19.75 29.35 20.05 29.85 19.85 30.6 19.7 30.45 19.3 30.1 19 30.8 19.1 31.75 19.4
L 31.85 19.4
Q 31.9 19.4 31.9 19.45 32.35 19.6 32.65 19.75
L 32.65 19.85
Q 31.85 20.05 31.2 20
L 31.1 20
Q 30.9 20 30.8 20 30.75 19.85 30.6 19.7 29.85 19.85 29.35 20.05 29.8 20.25 29.85 20.4 29.95 20.55 30.3 20.35 30.45 20.4 30.75 20.35 30.8 20.35 30.9 20.35 30.9 20.25 30.95 20.2 31.05 20.25 31.05 20.35 31.5 21.2 31.5 21.35 31.55 21.6 31.9 21.65 32 21.8 32.35 21.8 33 21.6 33.6 21.6 34.35 21.6 34.85 21.8 34.2 21.45 33.55 20.8 33.25 20.35 32.95 19.85 32.85 19.75 32.8 19.6
L 32.8 19.55
Q 32.6 19.4 32.35 19.25
L 32.3 19.25
Q 32.05 19.1 32 19 31.6 18.75 31.25 18.5 30.95 18.2 30.6 18 30.3 17.7 30 17.25
L 30 17.2
Q 29.95 16.95 29.85 16.7
L 29.85 16.75
Q 29.95 17.05 29.95 17.35 30 17.65 30 17.8 30 17.9 30 18.15 30.1 18.2 30.1 18.35 29.85 18.3 29.55 18.2 28.85 18.2 28.2 18.2 27.45 18.15 26.8 18 26.65 17.9 26.4 17.9 26.25 17.85 25.9 17.8
L 25.75 17.7
M 41.65 27.9
L 41.6 27.85 41.4 27.75 40.3 27.9
Q 40.5 27.9 40.65 28.1 41 27.9 41.65 27.9
M 42.2 29
L 42.1 29
Q 42.4 29.65 42.65 30.4 42.7 30.45 42.85 30.45 42.4 29.65 42.2 29
M 37.5 29.65
Q 37.55 29.05 37.7 28.5 37.55 29 37.35 29.5 37.4 29.6 37.5 29.65
M 99.15 25.45
Q 99.05 25.25 99.15 25 99.19765625 24.808984375 99.2 24.45 99.190625 24.715625 99.05 24.95 99 25.25 98.9 25.5 99 25.5 99.15 25.45
M 93.75 23.9
Q 94.45 23.45 94.95 22.8 94.35 23.4 93.55 24 93.7 23.9 93.75 23.9
M 112.55 13.7
Q 111.95 13.65 111.5 13.5 111.4 13.5 111.15 13.65
L 112.2 13.85 112.4 13.85
Q 112.55 13.8 112.55 13.7
M 102.3 19.15
Q 102 19.2 101.85 19.3 101.45 19.3 101.35 19.5 101.35 19.8 100.8 20.6
L 100.75 20.7
Q 100.65 20.6 100.6 20.6
L 100.5 20.6
Q 100.25 20.4 100.1 20.55 99.7 20.25 99.55 20.45 99.4 20.6 98.05 21.2 98.4 21.4 99.05 22 99.15 22.2 99.2 22.35 98.3 22.2 97.6 21.85 97.15 21.7 96.65 21.5 96.35 21.85 95.7 22.2 95.7 22.35 95.55 22.45 95.3 22.65 94.95 22.8 95 22.8 95.15 22.8
L 95.3 22.75
Q 95.6 22.75 95.8 22.65 96.05 22.65 96.2 22.6 96.85 22.6 97.65 22.6 98.3 22.6 99.15 22.65 99.35 22.6 99.65 22.6 99.65 22.75 99.55 22.9 99.5 23.05 99.4 23.15 99.4 23.4 99.35 23.7
L 99.35 23.75 99.4 23.75
Q 99.8 23.3 100.1 23.05 100.5 22.8 100.9 22.6 101.25 22.35 101.6 22.15 101.75 22 102 21.95
L 102 21.85
Q 102.3 21.8 102.55 21.7
L 102.55 21.55
Q 102.65 21.4 102.7 21.25 103 20.9 103.45 20.4 104.2 19.8 104.9 19.45 104.25 19.6 103.6 19.5 103 19.45 102.3 19.15
M 102.45 21.4
Q 102.05 21.55 101.6 21.65 101.6 21.7 101.55 21.7 100.45 21.85 99.7 21.95 100.25 21.4 100.6 20.9 100.65 20.9 100.9 20.9
L 100.95 20.95
Q 101.6 21.05 102.45 21.25
L 102.45 21.4
M 113.85 11.3
L 113.8 11.3
Q 113.45 11.9 113.15 12.7 113.5 11.9 114.1 11.05 113.90625 11.1953125 113.85 11.3
M 108.45 11.35
Q 108.35 11.45 108.3 11.6 108.45 12.1 108.6 12.6 108.5 12 108.45 11.35 Z"/>

<path fill="#583C30" stroke="none" d="
M 24.6 16.55
Q 24.3 16.15 23.75 15.85 24.35 16.3 24.35 16.55
L 24.6 16.55
M 25.75 17.35
L 25.75 17.7 25.9 17.8
Q 26.65 17.5 27.3 17.4 27.5 17.4 27.8 17.4 27.65 17.35 27.5 17.25 26.95 16.8 26.35 16.45 25.25 15.8 24.2 15 24.35 14.9 25.7 13.9 24 13.5 22.65 14.75 22.25 15.3 21.7 15.85 22.25 15.65 22.75 15.65 23.25 15.65 23.75 15.85 24.3 16.15 24.6 16.55 25.45 16.75 25.75 17.35
M 29.65 15.15
L 29.7 15.15
Q 29.7 15.45 29.8 15.5
L 29.8 15.55
Q 29.803125 15.65 29.85 15.65 30 15.85 30.1 16 30.3 16.25 30.25 16.55 30.25 16.7 30.15 16.8 30.1 17.1 30 17.2
L 30 17.25
Q 31.1 17.55 31.85 18 31.9 18 32 18.05 32 18 31.9 17.9 31.75 17.7 31.6 17.25 31.55 17.1 31.5 16.95 31.5 16.75 31.35 16.6 31.2 16.15 31.05 15.65 30.9 15.45 30.9 15.15 30.8 15 30.75 14.9 30.6 14.6 30.6 14.25 30.6 14.2 31.5 14.1 31.75 14.1 32 14.1 32.3 14.1 32.5 14.1 32.45 14.05 32.35 14.05
L 31.5 13.35
Q 31.35 13.3 31.25 13.25 30.5 13.1 29.4 13.15 28.6 13.35 27.9 13.65 28.85 13.75 29.2 14.35 29.4 14.55 29.65 14.75 29.65 14.9 29.65 15.15
M 42.85 30.45
Q 42.7 30.45 42.65 30.4 42.85 30.9 43.15 31.2 43 30.7 42.85 30.45
M 42.05 29.2
Q 42.05 29.05 42.05 29
L 41.45 28.85
Q 40.65 28.85 40 28.55 41.15 29.95 42.4 31.95 42.2 32 40.65 32.5 41.9 33.45 43.8 32.6 44.45 32.35 45.1 31.85 43.8 32 43.15 31.2 42.85 30.9 42.65 30.4 41.95 29.95 42.05 29.2
M 37 33.55
Q 36.15 32.6 35.45 32.6 35.75 33.75 36.1 34.7 36.7 34.05 37 33.55
M 30.6 29.15
Q 30.6 28.95 30.5 28.8 30.3 27.9 29.85 27.6 29.3 28.7 29.05 29.65 29.4 29.5 29.85 29.45 30.3 29.3 30.6 29.15
M 37.35 29.5
Q 37.05 28.85 37.55 28.35 37.7 28.2 37.8 28.05
L 36.3 27.45
Q 36.3 28.25 36.25 29.15 36.25 29.45 36.15 29.65 36.15 30.1 36.1 30.6 35.95 30.6 34.65 30.25 34.4 30.15 34.2 30.1 34.5 30.9 35.05 31.35 35.65 31.8 36.7 31.85 37.55 32 38.35 32 37.2 31.5 37.2 30.45 37.35 29.95 37.5 29.65 37.4 29.6 37.35 29.5
M 36.85 13.45
Q 36.45 13.65 36.25 13.9 36.3 14.1 36.45 14.25 37 15 37.55 15.15 37.55 14.05 37.5 12.95 37.15 13.15 36.85 13.45
M 28.85 10.45
Q 28.55 11.1 28.55 11.85 29.7 12.35 30.4 12.15 29.55 11.05 28.85 10.45
M 93.55 24
Q 93.4 24.05 92.9 24.55 93.4 24.3 93.75 23.9 93.7 23.9 93.55 24
M 92.9 24.55
Q 92.4 24.8 91.8 24.7 91.35 24.65 90.7 24.35 91.2 24.95 91.55 25.6 92.8 27.15 94.6 26.75
L 94.45 26.65
Q 93.4 25.6 93.25 25.45 94.35 24.7 95.45 24.2 96.25 23.85 96.85 23.45 97 23.4 97.15 23.25 96.95 23.25 96.7 23.25 96.05 23.1 95.3 22.75
L 95.15 22.8
Q 95.15 22.9 95 23.1 94.65 23.75 93.75 23.9 93.4 24.3 92.9 24.55
M 101.4 23.25
Q 101.45 23.15 101.55 23.1 101.4 23.15 101.35 23.15 100.6 23.55 99.4 23.75
L 99.35 23.75
Q 99.5 24 99.55 24.2 99.55 24.35 99.55 24.5 99.65 24.8 99.35 25.1 99.25 25.25 99.15 25.45 99 25.5 98.9 25.5 98.85 25.65 98.85 25.9 98.85 26.05 98.75 26.05 98.75 26.1 98.7 26.35 98.55 26.6 98.3 26.85 97.8 27.35 96.85 27.35 97.6 27.8 98.4 27.95 99.5 28.25 100.25 28.1
L 100.3 28.1 100.35 28.1 101.4 27.45
Q 101.45 27.35 101.6 27.35 101.45 27.3 101.2 27.3 100.8 27.2 100.6 27.15 99.7 27.05 99.65 27.05 99.65 26.7 99.95 26.25 100 26.2 100 26.1 100.15 25.75 100.3 25.5 100.5 25.1 100.75 24.55 100.8 24.4 100.9 24.2 100.95 24.05 101.05 23.9 101.2 23.45 101.4 23.25
M 114.1 11.05
Q 114.15 10.9 114.45 10.4 114.1021484375 10.7974609375 113.85 11.3 113.90625 11.1953125 114.1 11.05
M 113.8 11.3
L 113.85 11.3
Q 114.1021484375 10.7974609375 114.45 10.4 115.25 9.6 116.5 9.9 115.85 9.3 115.25 8.95 113.45 7.9 111.95 8.7 113.5 9.55 113.7 9.55 112.35 11.45 110.95 12.85 111.5 12.55 112.4 12.7
L 113.05 12.7
Q 113.05 12.55 113.15 12.45 113.15 11.6 113.8 11.3
M 106.6 29.2
Q 106.85 28 107 26.9 106.3 26.85 105.75 27.65 105.6 27.7 105.45 27.95 105.65 28.25 105.9 28.6 106.25 28.75 106.6 29.2
M 97.3 29.35
Q 97.3 30.05 97.45 30.9 98.3 30.2 99.25 29.1 98.55 28.8 97.3 29.35
M 106.7 8.05
Q 107.4 8.15 108.35 7.25 108.15 6.65 107.55 5.85 107.2 6.8 106.7 8.05
M 105.15 10.65
Q 105.35 10.5 105.6 10.5 107 10.25 107.1 10.25 107.1 10.8 107.1 11.2 107.2 11.5 107.2 11.8 107.1 12.75 107.05 13.55
L 108.6 13.1
Q 108.5 13.05 108.35 12.85 107.95 12.15 108.3 11.6 108.35 11.45 108.45 11.35 108.35 11.05 108.15 10.55 108.3 9.45 109.6 9.1 108.75 8.95 107.95 9 106.85 9 106.15 9.3 105.5 9.8 105.15 10.65
M 101.25 11.6
Q 101.25 11.5 101.35 11.2 101.1 11.05 100.65 10.85 100.25 10.7 99.8 10.4 100 11.6 100.35 12.85 100.95 12.45 101.25 11.6 Z"/>

<path fill="#744E3F" stroke="none" d="
M 25.9 18.2
L 25.6 18
Q 25.6 17.8 25.6 17.7 25 17.1 24.35 16.55 24.35 16.3 23.75 15.85 23.25 15.65 22.75 15.65
L 22.95 15.7 23.65 16.1
Q 23.5 16 21.85 15.95 23.5 16.45 23.4 16.55 23.35 17.1 23.1 17.55 22.9 18.75 22.8 19.55 24.65 19 26.35 18.2 26.25 18.2 26.1 18.15 26.05 18.15 25.9 18.2
M 25.6 17.7
Q 25.7 17.5 25.75 17.35 25.45 16.75 24.6 16.55 25.1 17.1 25.6 17.7
M 25.75 13.9
Q 25.95 13.75 26.25 13.8 26.2 13.65 26.05 13.5 23.1 13.5 21.3 15.85 22.25 16.15 21.85 15.95 22.95 15.85 22.95 15.7
L 22.75 15.65
Q 22.25 15.65 21.7 15.85 22.25 15.3 22.65 14.75 24 13.5 25.7 13.9
L 25.75 13.9
M 26.35 13.95
L 26.25 13.8
Q 25.95 13.75 25.75 13.9
L 25 14.6
Q 25.75 14.2 26.35 13.95
M 45.2 22.75
L 45.55 22.85
Q 46.1 24.8 44.55 25.4 44.6 25.4 44.55 25.5 43.95 26.3 42.85 26.8 43.5 26.95 44.45 27.4
L 44.4 27.55
Q 43.15 27.4 42.25 27.15 41.9 27.4 41.55 27.6 41.55 27.7 41.4 27.75
L 41.6 27.85 42.1 27.9
Q 42.05 27.9 41.75 27.9
L 41.65 27.9
Q 41 27.9 40.65 28.1 40.35 28.25 40.35 28.5
L 41.45 28.85 42.05 29 42.1 29 42.2 29 43.8 29.45
Q 44.85 29.35 45.4 29.2 46.95 29 47.6 28.1 46.6 28.35 45.55 27.45 49.5 26.85 50.35 23.4 49.4 23.4 49.8 23.55 48.85 24 48.85 24.1
L 49.4 24.3 48.85 24.1 48.15 24
Q 48.35 24 49.8 23.55 48.15 23.55 48.15 23.5 48 23 47.9 22.55 47.7 21.3 47.45 20.5 44.75 22.3 43.2 24.8 43.15 25.1 43 25.4
L 43.15 25.4
Q 43.45 25.2 43.8 25.35 43.65 24.15 45.2 22.75
M 46.1 12.4
L 46 12.4
Q 46.0984375 12.4984375 46.1 12.55 46.1 12.4984375 46.1 12.4
M 94.45 26.65
L 94.6 26.75 94.65 26.85
Q 94.95 27 95.15 26.9
L 95.15 26.85
Q 94.7 26.55 94 26.05
L 94.45 26.65
M 95 23.1
Q 95 22.95 94.95 22.8 94.45 23.45 93.75 23.9 94.65 23.75 95 23.1
M 92.75 24.3
L 92 24.5 91.8 24.7
Q 92.4 24.8 92.9 24.55 93.4 24.05 93.55 24 94.35 23.4 94.95 22.8 94.95 22.65 94.95 22.45
L 95.4 22.35
Q 95.45 22.45 95.55 22.45 95.7 22.35 95.7 22.2 94.15 21.35 92.3 20.6 92.3 21.4 92.45 22.75 92.6 23.25 92.5 23.85 92.6 23.9 90.9 24.3 92.45 24.35 92.75 24.3
M 90.9 24.3
Q 91.4 24.05 90.3 24.3 92 27 94.95 27.3 95.1 27.15 95.15 26.9 94.95 27 94.65 26.85
L 94.6 26.75
Q 92.8 27.15 91.55 25.6 91.2 24.95 90.7 24.35 91.35 24.65 91.8 24.7
L 92 24.5
Q 92 24.4 90.9 24.3
M 119.5 18.55
L 120.05 18.5 119.5 18.55
Q 119.5 18.65 120.4 19.15 119.9 19.2 120.9 19.45 120.4 15.6 116.5 14.6 117.6 13.8 118.65 14.25 118.05 13.1 116.6 12.85 115.95 12.55 114.9 12.3
L 113.15 12.7 113.05 12.7 112.4 12.7 111.3 12.9
Q 111.25 13.2 111.5 13.5 111.95 13.65 112.55 13.7
L 112.7 13.7
Q 113 13.8 113 13.85
L 112.4 13.85 112.2 13.85
Q 112.25 13.95 112.35 14 112.75 14.25 113.05 14.6 114 14.35 115.25 14.45
L 115.35 14.5
Q 114.3 14.95 113.65 15.05 114.7 15.7 115.25 16.55 115.35 16.65 115.25 16.7 116.75 17.6 116 19.6
L 115.55 19.5
Q 114.15 17.9 114.45 16.7 114 16.8 113.7 16.55
L 113.65 16.55
Q 113.65 16.85 113.8 17.25 115.1 19.95 117.6 22.2 117.9 21.4 118.25 20.1 118.5 19.6 118.7 19.05 118.65 19 120.4 19.15 119 18.65 118.7 18.65
L 119.5 18.55 Z"/>

<path fill="#4E3429" stroke="none" d="
M 43 10.3
L 43 9.95
Q 42.85 9.65 43.05 8.55 43 7.45 43.8 6.1 41.1 6.55 41.15 9.35 40.85 8.3 40.45 7.45 40.2 6.35 39.6 5.45 38.9 4.5 41.4 3.4 38.75 1.25 36.7 3.75 36.45 5.4 36.1 6.05
L 35.95 6.25
Q 35.2 5.95 35.9 5.5 34.1 5.75 32.35 3.75 33.4 7 32.5 7.45
L 32.35 7.75
Q 32.45 7.05 32.35 6.5 31.1 7 28.1 5.65 29.85 7.95 29.95 7.95 29.351171875 7.95 28.85 7.95 28.3 8.4 25.25 7.65 27.2 8.7 26.95 8.95
L 27.05 9.05
Q 27.15 9.05 27.3 9.2 27.15 9.1 27.05 9.2 22.5998046875 9.2001953125 21.45 10.6 24.6 10 26.05 13.5 26.2 13.65 26.25 13.8
L 26.35 13.95
Q 25.75 14.2 25 14.6
L 25.75 13.9 25.7 13.9
Q 24.35 14.9 24.2 15 25.25 15.8 26.35 16.45 26.95 16.8 27.5 17.25 27.65 17.35 27.8 17.4 28.85 17.4 29.8 18.15 29.85 18.15 30 18.2
L 29.95 18.2
Q 29.8 18.2 29.55 18.2 29.85 18.3 30.1 18.35 30.1 18.2 30 18.15 30 17.9 30 17.8 30 17.65 29.95 17.35 29.95 17.05 29.85 16.75
L 29.85 16.7
Q 29.95 16.95 30 17.2 30.1 17.1 30.15 16.8 30.25 16.7 30.25 16.55 30.3 16.25 30.1 16 30 15.85 29.85 15.65 29.85 15.85 29.85 16.1 29.85 16.238671875 29.85 16.45 29.8453125 16.2859375 29.8 16.15 29.8 15.808203125 29.8 15.55
L 29.8 15.5
Q 29.7 15.45 29.7 15.15
L 29.65 15.15
Q 29.65 14.9 29.65 14.75 29.4 14.55 29.2 14.35 28.85 13.75 27.9 13.65 28.6 13.35 29.4 13.15 30.5 13.1 31.25 13.25 32.05 13.45 32.65 14.1
L 32.65 14.35
Q 32.45 14.25 32.3 14.2
L 32.6 14.2 32.5 14.1
Q 32.3 14.1 32 14.1 31.75 14.1 31.5 14.1 30.6 14.2 30.6 14.25 30.6 14.6 30.75 14.9 30.8 15 30.9 15.15 30.9 15.45 31.05 15.65 31.2 16.15 31.35 16.6 31.5 16.75 31.5 16.95 31.55 17.1 31.6 17.25 31.75 17.7 31.9 17.9 32 18 32 18.05 32.6 18.45 32.85 19
L 32.85 19.1
Q 33 19.3 33.15 19.7
L 33.15 19.75 33 19.75
Q 32.85 19.7 32.8 19.6 32.85 19.75 32.95 19.85 33.25 20.35 33.55 20.8 34.2 21.45 34.85 21.8 34.35 21.6 33.6 21.6 33 21.6 32.35 21.8 32 21.8 31.9 21.65 31.55 21.6 31.5 21.35 31.5 21.2 31.05 20.35 31.05 20.25 30.95 20.2 30.9 20.25 30.9 20.35 30.8 20.35 30.75 20.35 30.45 20.4 30.3 20.35 29.95 20.55 29.85 20.4 29.8 20.25 29.35 20.05 27.05 20.7 26.35 21.8 26.7 21.75 27.15 21.65 27.8 21.45 28.55 21.6 29.05 21.75 29.55 22.1
L 29.65 22.2
Q 30 22.55 30.45 23 30.6 23.3 30.95 23.35
L 31.05 23.3 31.1 23.3
Q 31.05 23.35 30.95 23.35 30.6 23.3 30.45 23 30 22.55 29.65 22.2
L 29.55 22.1
Q 29.05 21.75 28.55 21.6 27.8 21.45 27.15 21.65 26.7 21.75 26.35 21.8 27.05 20.7 29.35 20.05 29 19.75 28.4 19.55 27.9 19.4 27.15 19.1 26.8 18.75 26.35 18.2 24.65 19 22.8 19.55 22.9 18.75 23.1 17.55 23.35 17.1 23.4 16.55 22.1 18.75 21.05 19.25
L 20.9 19.3 20.6 19.55
Q 20.45 19.7 19.3 20.2 18.2 20.7 16.6 20.8 18.4 22.55 21.15 21.1 20.25 21.9 19.5 22.7 18.7 23.4 18.25 24.3 17.6 25.25 15.2 24 14.6 27 18.2 27.4 19.65 26.6 20.6 26.5 20.75 26.5 20.85 26.5
L 21 26.5
Q 21.05 26.95 20.6 26.95 20.45 26.95 20.25 26.85 20.55 27.1 20.6 27.4
L 20.75 27.4
Q 21.3 28.5 20.55 30.45
L 20.9 30.15
Q 22.15 29.05 22.9 28.7 23.25 28.4 23.55 28.4 23.9 28.35 24.2 28.4 23.9 28.55 23.7 28.8 23.5 28.85 23.2 29 23.05 28.95 22.9 28.95 22.9 29.75 22.65 30.15
L 22.75 30.4 22.6 30.7
Q 22.6 31 21.95 31.85 21.5 32.95 20.25 33.9 22.95 34.3 24 31.8 23.9 32.9 23.85 33.85 23.65 34.85 23.9 35.9 24.2 37 21.35 37.15 22.9 40 25.95 38.4 26.85 37 27.45 36.4
L 27.65 36.25
Q 28.2 36.8 27.45 37 29.2 37.35 30 39.7 30.4 36.35 31.5 36.2
L 31.6 36.05
Q 31.35 36.65 31.2 37.15 32.6 37.15 34.8 39.25 34.05 36.7 33.95 36.65 34.5 36.85 35.05 37 35.75 36.8 38.25 38.3 36.85 36.8 37.35 36.65 37.25 36.65 37.25 36.55
L 37.2 36.55
Q 37.1515625 36.4046875 37 36.25 37.153125 36.3984375 37.25 36.35 41.55 37.8 43.15 36.8 39.75 36.4 40.05 32.35
L 40.05 32.3
Q 40.55 32.15 41.45 32.1
L 40.5 32.45 40.65 32.5
Q 42.2 32 42.4 31.95 41.15 29.95 40 28.55 39.55 28.4 39.05 28.05
L 40.3 27.9 41.4 27.75
Q 41.55 27.7 41.55 27.6 41.9 27.4 42.25 27.15 42.2 27.1 42.05 27.1
L 42.2 27
Q 42.55 26.85 42.85 26.8 43.95 26.3 44.55 25.5 44.6 25.4 44.55 25.4 44.15 25.4 43.8 25.5
L 43.75 25.65
Q 43.75 25.4 43.8 25.35 43.45 25.2 43.15 25.4
L 43 25.4
Q 43.15 25.1 43.2 24.8 44.75 22.3 47.45 20.5 47.7 21.3 47.9 22.55 48 23 48.15 23.5 48.4 21.1 49.15 20.25
L 49.3 20.2 49.45 19.85
Q 49.5 19.6 50.4 18.8 51.2 18.05 52.7 17.25 50.2 16.3 48.35 18.5 48.7 17.5 49.15 16.55 49.6 15.6 49.6 14.6 49.8 13.5 52.55 13.95 51.85 10.8 48.4 11.75 47.3 12.85 46.5 13.15 46.45 13.25 46.45 13.3
L 46.2 13.35
Q 45.95 12.95 46.3 12.8 46.45 12.8 46.6 12.8 46.35 12.65 46.1 12.55 46.0984375 12.4984375 46 12.4 45.1 11.55 44.9 9.55 44.1 11.15 43.5 11.9 43.2 12.2 43 12.35 42.65 12.55 42.4 12.55 42.55 12.35 42.7 12.15 43 11.9 43.15 11.7 43.2 11.75 43.35 11.6 43.05 10.95 43.15 10.45
L 43 10.3
M 48.5 14.7
L 48.4 14.9
Q 48.55 14.85 48.65 15.05 49 16 46.75 16.75
L 46.65 16.7
Q 47.1 15.7 47.7 15.15 48.15 14.85 48.5 14.7
M 45.95 14.9
L 46.15 14.85
Q 46.2 15.2 46.35 15.65
L 46.2 15.65
Q 46.3 16.15 46.15 16.55 45.2 15.45 45.95 14.9
M 45.25 13.45
Q 45.35 13.6 45.25 13.75 45.2 14.1 44.95 14.4
L 44.75 14.55
Q 44.6 14.05 44.7 13.5 44.75 13.1 44.95 12.8 45.2 12.95 45.25 13.15 45.25 13.3 45.25 13.45
M 44.45 12.55
L 44.55 12.65
Q 44.4 12.95 44.15 13.15 44.1 13.15 44 13.15 43.2 14.05 42.1 14.35
L 42.2 14.1
Q 42.05 13.1 43.45 12.8 43.65 12.7 43.8 12.65 44.1 12.65 44.45 12.55
M 43.5 13.75
L 43.5 13.65
Q 44.1 14.9 43.3 15.45
L 43.2 15.45
Q 43.15 14.75 43.5 13.75
M 41.1 14.9
Q 41.4 15.35 41.45 15.45
L 41.45 15.5
Q 40.85 15.3 41 17.2 40.55 16.15 40.3 15.6 40.15 15.65 39.9 15.65 39.6 15.85 39.25 15.85
L 39.1 15.65
Q 39.35 15.15 39.6 14.75 39.45 14.6 39.55 14.4 39.05 13.6 39.55 13.1
L 39.6 13
Q 40.05 13.5 39.7 14.4
L 39.6 14.6
Q 39.6 14.45 39.55 14.4 39.45 14.6 39.6 14.75 40.15 14.2 40.95 13.9
L 41 14.1
Q 41.25 14.6 41.1 14.9
M 41.8 16.6
Q 41.9 16.75 41.95 16.9 41.9 17.2 41.65 17.55 41.6 17.7 41.45 17.7 41.4 17.85 41.25 17.9
L 41.15 17.9
Q 41 17.7 41.25 17.35 41.25 17.1 41.45 16.8 41.55 16.75 41.75 16.7
L 41.8 16.6
M 41 18
L 40.95 18.05
Q 40.65 17.8 40.45 17.7 40.35 17.55 40.35 17.4 40.15 16.95 40.35 16.7
L 40.35 16.3
Q 41 17.05 41 18
M 42.1 17.7
L 42.35 17.85
Q 43.2 19 41.1 19.9
L 41 19.85
Q 41.1 19.4 41.15 19 41.3 18.65 41.65 18.2 41.9 17.9 42.1 17.7
M 42.5 23.8
Q 42.05 24 41.55 24.1 40.95 24.15 40.35 24
L 40.05 24.1
Q 40.35 23.85 40.95 23.55 41.95 23 43.65 22.7 43.85 22.7 43.85 22.55
L 44.1 22.7
Q 43.85 22.85 43.75 23 43.15 23.4 42.5 23.8
M 41.95 24.4
Q 42.2 24.4 42.4 24.4
L 42.4 24.5
Q 40.95 25.4 39.55 25.5 39.45 25.5 39.4 25.5
L 39.35 25.4 39.4 25.35
Q 39.45 25.2 39.55 25.1 39.85 24.6 41 24.4 41.25 24.4 41.4 24.4 41.65 24.4 41.95 24.4
M 42.85 24.8
L 42.9 24.8
Q 42.9 25.1 42.65 25.65 42.4 26.05 41.75 26.3
L 41.75 26.15
Q 41.75 26.05 41.75 25.85 42.1 25.35 42.85 24.8
M 40.65 25.4
L 40.8 25.4
Q 41 26.15 40.45 26.5 40.3 26.65 39.9 26.8 39.9 26.6 40 26.5 40.05 26.35 40.15 26.15 40.35 25.85 40.65 25.4
M 33.45 9.05
L 33.4 8.9
Q 32.15 7.95 34.05 6.5
L 34.05 6.55
Q 34.2 7.95 33.45 9.05
M 32 11.85
Q 31.6 10.6 32 9.65 32.65 10 33 10.5 32.85 11.1 32.3 11.9
L 32 11.85
M 31.6 10.45
L 31.7 10.5
Q 30.45 10.15 30.45 9.4
L 30.5 9.35
Q 31.2 9.55 31.6 10.45
M 35 9.35
L 35.05 9.4
Q 34.4 8.95 34.05 7.95 35.35 8.45 35 9.35
M 33.4 11.7
L 33.45 11.7 33.45 11.75 33.4 11.7
M 35 11.45
Q 35.2 11.7 35.2 12 35.2 12.15 35.2 12.4 35.35 12.55 35.3 12.55
L 35.05 12.55
Q 34.9 12.35 34.8 12.2 34.55 11.7 34.65 11.25
L 34.7 11.15 34.8 11.05
Q 34.85 11.25 35 11.45
M 38.35 6.9
Q 38.5 6.55 38.65 6.25
L 38.75 6.4
Q 38.9 6.25 38.95 6.4 40.15 7 38.75 8.75
L 38.65 8.6
Q 38.25 7.75 38.35 6.9
M 38.15 8.85
L 38.1 8.75
Q 36.55 8.45 36.85 7.65
L 36.9 7.5
Q 37.2 7.75 37.55 7.95
L 37.55 8.1
Q 38 8.45 38.15 8.85
M 35.65 7.75
L 35.5 7.95
Q 34.9 7.45 34.55 6.4 35.95 7 35.65 7.75
M 40.15 11.6
Q 39.6 11.4 39.25 11.05 39.55 11.25 40.15 8.85 40.15 11.55 40.15 11.6
M 26.65 11.25
Q 25.55 11.1 25.45 10.3
L 25.25 10.15
Q 26.05 10.35 26.55 11.1
L 26.8 11.15 26.65 11.25
M 30.15 10.9
L 30.3 10.75
Q 31.2 11.25 31.55 12.05 30 11.55 30.15 10.9
M 28.55 11.85
Q 28.55 11.1 28.85 10.45 29.55 11.05 30.4 12.15 29.7 12.35 28.55 11.85
M 21.8 24.4
L 21.95 24.4
Q 22 23.85 22.25 23.55
L 22.25 23.65
Q 22.8 24.9 21.85 25.1
L 21.65 25.1
Q 21.7 24.8 21.8 24.4
M 21.85 23.35
Q 21.15 24 20.35 24.4 19.8 24.45 19.45 24.6
L 19.5 24.4
Q 19.45 24.4 19.35 24.25 19.45 23.15 21.85 23.2
L 21.85 23.35
M 27.6 22.2
Q 27.45 22.4 27.2 22.85 27.8 22.6 28.3 22.55 28.3 22.7 28.1 22.85 27.8 23.2 27.3 23.4 27 23.65 26.55 23.8
L 26.55 23.55
Q 26.25 22.55 27.6 22.2
M 27 24.1
Q 27.15 24 27.2 24 27.45 23.85 27.6 23.85
L 27.65 23.85
Q 27.5 24.25 27.35 24.4 27.15 24.6 26.95 24.8 26.8 24.9 26.55 24.9
L 26.4 24.9
Q 26.4 24.75 26.5 24.6 26.65 24.3 27 24.1
M 29.35 22.55
Q 29.4 22.7 29.5 22.75 29.65 23 29.65 23.3 29.8 23.8 29.7 24.25 29.7 24.4 29.55 24.5 29.4 24.9 29 25.1
L 28.9 25.25
Q 28.85 25.05 28.75 24.8 28.75 24.65 28.75 24.5 28.6 24.25 28.6 23.85 28.7 23.2 29 22.3
L 29.05 22.3
Q 29.2 22.45 29.35 22.55
M 28.2 24.3
Q 28.25 24.45 28.25 24.6 28.3 25.1 27.8 25.4
L 27.75 25.65
Q 27.45 24.8 27.8 23.85
L 27.95 23.85
Q 28.05 24.15 28.2 24.3
M 38.3 14.1
L 38.45 14.05
Q 38.95 14.85 38.6 15.7 37.65 14.6 38.3 14.1
M 36.25 13.9
Q 36.45 13.65 36.85 13.45 37.15 13.15 37.5 12.95 37.55 14.05 37.55 15.15 37 15 36.45 14.25 36.3 14.1 36.25 13.9
M 37.55 17.5
Q 37.25 17.05 37.55 16.55
L 37.5 16.4
Q 38.1 16.8 38.1 17.8 38.15 17.9 38.15 18
L 38.1 18
Q 37.65 17.7 37.55 17.5
M 39.1 18.2
Q 39.1 18.15 39.2 17.9 39.1 17.55 39.4 17.2
L 39.4 17.1
Q 39.6 17.2 39.75 17.4 39.75 17.65 39.85 17.7 40.15 17.9 40.3 18.2 40.5 19.1 40.55 20.2
L 40.45 20.2
Q 40.45 20.1 40.35 20.1 40.2 19.75 40 19.6 39.7 19.3 39.6 19.15 39.25 18.75 39.1 18.2
M 33.4 13.35
Q 33.25 13.15 33.25 12.95
L 33.1 12.7
Q 33.3 12.8 33.4 12.85 33.4 13.15 33.4 13.35
M 34.9 17.5
L 35.15 17.55
Q 35.5 17.7 35.8 17.7 36.45 18.15 36.7 18.75
L 36.6 18.9
Q 36.45 18.8 36.3 18.75 35.45 18.2 34.9 17.5
M 32.35 24.4
Q 32.5 24.5 32.6 24.65 32.85 25.1 33 25.55 32.85 25.7 32.65 25.85 32.65 25.75 32.6 25.7 32.05 25.2 32.2 24.45
L 32.35 24.4
M 38.35 19.55
L 38.3 19.7 38.3 19.75
Q 38.25 20 38.3 20.65 38.25 20.7 38.25 20.8 38.1 21.15 37.5 21.5
L 37.4 21.45
Q 37.55 20.1 38.35 19.55
M 39.55 20.65
Q 39.55 20.7 39.75 20.8 40.15 21.5 39.75 22.1
L 39.75 22.3
Q 39.7 22.4 39.7 22.45
L 39.6 22.55
Q 39.35 23.3 38.6 23.95 38.35 24.1 38.15 24.3 38.1 24.4 38 24.4
L 37.85 24.3
Q 37.85 23.85 37.95 23.35 38.1 23.15 38.1 22.9 38.25 22.4 38.35 21.9 38.6 21.65 38.75 21.35 39.05 20.85 39.6 20.4
L 39.55 20.65
M 37.05 21.3
Q 35.95 20.35 36.55 19.7
L 36.7 19.6
Q 37.2 20.25 37.25 21.3
L 37.05 21.3
M 35.8 21.2
L 35.8 21
Q 36.85 21.8 37.15 23
L 37.15 23.05
Q 37.2 23.5 37.35 24
L 37.2 24
Q 36.7 23.8 36.3 23.4 35.65 22.9 35.45 22.45 35.35 22.2 35.45 21.95 35.2 21.5 35.8 21.2
M 37.55 28.35
Q 37.05 28.85 37.35 29.5 37.55 29 37.7 28.5 37.55 29.05 37.5 29.65 37.35 29.95 37.2 30.45 37.2 31.5 38.35 32 37.55 32 36.7 31.85 35.65 31.8 35.05 31.35 34.35 30.95 34.05 29.95
L 34.1 29.95
Q 34.35 30.05 34.4 30.1
L 34.2 30.05 34.2 30.1
Q 34.4 30.15 34.65 30.25 35.95 30.6 36.1 30.6 36.15 30.1 36.15 29.65 36.25 29.45 36.25 29.15 36.3 28.25 36.3 27.45
L 37.8 28.05
Q 37.7 28.2 37.55 28.35
M 30.6 24.8
Q 31.2 25.75 30.5 26.3 30.05 25.6 30.6 24.8
M 30.9 30.7
L 31.1 30.7 31.1 30.75
Q 31.2 31 31.25 31.15 31.25 31.7 30.9 32.1
L 30.8 32.3
Q 30.65 32 30.6 31.8 30.6 31.5 30.75 31.25 30.9 31 30.95 30.85
L 30.9 30.7
M 30.5 28.8
Q 30.6 28.95 30.6 29.15 30.3 29.3 29.85 29.45 29.4 29.5 29.05 29.65 29.3 28.7 29.85 27.6 30.3 27.9 30.5 28.8
M 33 31
L 33.1 31.2
Q 32.85 31.05 32.8 31 32.95 30.75 33.1 30.55 33.15 30.75 33 31
M 33.55 32.3
L 33.7 32.35
Q 33.55 33.6 32.8 34.45 32.35 33.85 32.2 33.25 32.65 32.75 33.55 32.3
M 34.25 32.3
Q 35.45 33.2 35 33.85
L 34.85 33.9
Q 34.2 33.2 34.25 32.3
M 33.45 33.75
L 33.45 33.6
Q 34.55 34.45 34.05 35.1 33.45 34.7 33.45 33.75
M 32.3 32.1
L 32.3 32 32.35 32.1 32.3 32.1
M 31.25 34.5
L 31.25 34.65
Q 32 35.9 29.4 36.7
L 29.4 36.65
Q 29.95 35.25 31.25 34.5
M 35.45 32.6
Q 36.15 32.6 37 33.55 36.7 34.05 36.1 34.7 35.75 33.75 35.45 32.6
M 39.4 36.05
Q 38.75 35.6 38.45 34.7
L 38.35 34.6 38.45 34.6
Q 39.55 35.1 39.35 35.9
L 39.4 36.05
M 28.6 26.35
L 28.6 26.5
Q 27.65 27.6 26.2 27.7
L 26.2 27.4
Q 26.1 26.6 27.05 26.45 27.45 26.35 27.9 26.35 28.25 26.3 28.6 26.35
M 27.5 27.6
L 27.65 27.4
Q 27.8 28.5 27.15 28.95
L 27 28.95
Q 26.85 28.35 27.5 27.6
M 25.95 30.05
Q 26.25 30.45 26.55 30.85 26.35 30.55 24.8 32.5 25.95 30.1 25.95 30.05
M 28.7 28.35
L 28.55 28.35
Q 28.55 27.4 29.2 26.75 29.5 28.05 28.7 28.35
M 24.5 25.55
L 24.6 25.55
Q 24.5 26.2 23.7 26.95
L 23.65 27
Q 23.55 25.7 24.5 25.55
M 25.15 26.85
L 25 27.1
Q 24.85 28.05 23.25 27.9 23.1 27.9 22.9 27.9 22.6 27.9 22.25 27.75
L 22.25 27.6
Q 22.6 27.45 22.8 27.4 22.9 27.4 22.95 27.4 24 26.85 25.15 26.85
M 21.8 26.8
Q 21.85 26.5 22 26.35 22.25 26.05 22.6 25.9
L 22.8 25.9
Q 22.75 26.35 22.4 26.85 22.25 27.15 21.85 27.4 21.7 27.15 21.7 26.95 21.8 26.85 21.8 26.8
M 25 35.4
L 25 35.25
Q 24.85 35.4 24.8 35.15 24.05 34.3 26.05 33.1
L 26.1 33.2
Q 26.1 34.2 25.7 34.95 25.3 35.15 25 35.4
M 28.6 31.35
Q 28.7 31.5 28.75 31.5 28.85 31.5 28.75 31.55 28.75 31.7 28.75 31.8 28.7 31.65 28.6 31.35
M 29.8 33.7
L 29.8 33.6
Q 30.25 34.2 30.1 35.3
L 30.1 35.4
Q 29.2 34.35 29.8 33.7
M 26.65 33.2
L 26.7 33.2
Q 28.05 34.05 27.45 34.65
L 27.2 34.8
Q 27.05 34.6 26.85 34.05
L 26.95 34.05
Q 26.65 33.6 26.65 33.2
M 28.6 34.85
Q 29.2 35.6 29 36.65 27.95 35.7 28.55 35
L 28.6 34.85
M 41.45 15.45
Q 41.4 15.35 41.1 14.9 41 15.15 40.65 15.35 40.45 15.45 40.3 15.6 40.55 16.15 41 17.2 40.85 15.3 41.45 15.5
L 41.45 15.45
M 111.95 8.7
L 111.9 8.8 112.75 9.25
Q 111.9 9 111.4 8.95
L 111.4 8.85
Q 111.5 4.55 115.05 4.45 113.45 3.3 109.05 4.3 108.9 4.25 108.65 4.3 108.8 4.15 108.95 4.1 109.05 4.05 109.1 4.05 108.6 3.8 110.3 2.25 107.5 3.75 106.75 3.45 106.15 3.6 105.75 3.65 105.9 3.35 106.85 0.95 104.25 2.95 102.85 2.8 103 3.35 103.15 4.05
L 102.95 3.8
Q 102 3.5 101.9 0 100.75 2.4 98.9 2.65 99.7 2.95 99.15 3.3
L 99 3.2
Q 98.4 2.55 97.75 0.95 94.65 -1.2 92.8 1.7 95.7 2.25 95.3 3.45 94.85 4.3 95 5.5 94.95 6.6 94.85 7.75 94.05 4.9 91.3 5 92.45 6.25 92.8 7.4 93.25 8.45 93.35 8.7
L 93.4 9.1 93.35 9.25
Q 93.5 9.75 93.4 10.65 93.6 10.7 93.75 10.65 93.9 10.7 94.2 10.85 94.65 11.15 94.85 11.45
L 94.7 11.3
Q 94.45 11.35 94 11.2 93.75 11.15 93.4 10.85 92.6 10.25 91.2 8.8 91.8 10.85 91.05 11.95 91 12 91 12.1 90.85 12.3 90.55 12.4 90.75 12.45 90.9 12.45 91.35 12.55 91.2 13.05
L 91 13
Q 90.9 13 90.9 12.9 89.95 12.75 88.5 11.8 84.6 11.75 85.05 15.05 87.7 13.95 88.1 15.05 88.55 16 89.35 16.85 89.9 17.65 90.75 18.7 88.1 16.95 86 18.5 87.75 18.85 88.8 19.5 89.95 20.15 90.1 20.4
L 90.3 20.55 90.45 20.75
Q 91.4 21.4 92.5 23.85 92.6 23.25 92.45 22.75 92.3 21.4 92.3 20.6 94.15 21.35 95.7 22.2 96.35 21.85 96.65 21.5 97.5 21.25 98.05 21.2 99.4 20.6 99.55 20.45 99.7 20.25 100.1 20.55 100.25 20.4 100.5 20.6
L 100.6 20.6
Q 100.65 20.6 100.75 20.7
L 100.8 20.6
Q 101.35 19.8 101.35 19.5 101.45 19.3 101.85 19.3 102 19.2 102.3 19.15 103 19.45 103.6 19.5 104.25 19.6 104.9 19.45 104.2 19.8 103.45 20.4 103 20.9 102.7 21.25 102.65 21.4 102.55 21.55 102.65 21.5 102.8 21.4
L 102.95 21.5 102.95 21.55
Q 102.8 21.8 102.55 22.05
L 102.55 22.15
Q 102.15 22.8 101.55 23.1 101.45 23.15 101.4 23.25 101.2 23.45 101.05 23.9 100.95 24.05 100.9 24.2 100.8 24.4 100.75 24.55 100.5 25.1 100.3 25.5 100.15 25.75 100 26.1 100 26.2 99.95 26.25 99.65 26.7 99.65 27.05 99.7 27.05 100.6 27.15 100.8 27.2 101.2 27.3 101.45 27.3 101.6 27.35
L 101.7 27.3 101.45 27.2
Q 101.55 27.2 101.7 27.2
L 101.75 27.3 101.7 27.3
Q 101.1 28.1 100.35 28.1
L 100.3 28.1
Q 100.25 28.15 100.15 28.15
L 100.25 28.1
Q 99.5 28.25 98.4 27.95 97.6 27.8 96.85 27.35 97.8 27.35 98.3 26.85 98.55 26.6 98.7 26.35 98.75 26.1 98.75 26.05 98.85 26.05 98.85 25.9 98.85 25.65 98.9 25.5 99 25.25 99.05 24.95 99.190625 24.715625 99.2 24.45 99.19765625 24.808984375 99.15 25 99.05 25.25 99.15 25.45 99.25 25.25 99.35 25.1 99.65 24.8 99.55 24.5 99.55 24.35 99.55 24.2 99.5 24 99.35 23.75
L 99.35 23.7
Q 99.4 23.4 99.4 23.15 99.5 23.05 99.55 22.9 99.65 22.75 99.65 22.6 99.35 22.6 99.15 22.65 99.2 22.65 99.5 22.75 99.4 22.9 99.2 22.8 98.25 23.4 97.2 23.3
L 97.15 23.25
Q 97 23.4 96.85 23.45 96.25 23.85 95.45 24.2 94.35 24.7 93.25 25.45 93.4 25.6 94.45 26.65
L 94 26.05
Q 94.7 26.55 95.15 26.85
L 95.15 26.9
Q 95.1 27.15 94.95 27.3 92.95 30.9 89.9 29.85 90.85 31.45 95.45 31.9 95.55 32.05 95.75 32 95.55 32.1 95.45 32.1 95.4 32.1 95.3 32.1 95.6 32.55 93.5 33.35 96.7 32.95 97.15 33.5 97.9 33.5 98.55 33.65
L 98.3 33.65
Q 98.15 33.65 96.2 35.85 99.4 34.7 100.6 35.45 100.75 34.7 100.75 34.05
L 100.8 34.4
Q 101.75 35 100.3 38.2 102.35 36.45 104.05 36.8 103.4 36.25 104.25 36
L 104.25 36.25
Q 104.7 37.05 104.7 38.75 106.55 41.65 109.45 39.7 107.05 38.2 107.85 37.2 108.65 36.4 108.95 35.35 109.55 34.4 110 33.3 109.6 36.25 112.25 36.95 111.6 35.5 111.75 34.35 111.75 33.15 111.9 32.95
L 111.9 32.5 112.05 32.35
Q 112.05 31.9 112.5 31.15 112.25 31 112.2 31.1 112.05 30.8 111.9 30.5 111.75 30.3 111.5 30.15 111.8 30.2 112.2 30.35 112.35 30.45 112.6 30.9 112.9 31.4 113.25 32.15
L 113.4 32.45
Q 113.45 32.55 113.5 32.7
L 113.8 33.5
Q 114.25 31.4 115.25 30.6
L 115.35 30.6
Q 115.65 30.35 115.95 30.2 115.8 30.2 115.65 30.2 115.2 30.05 115.55 29.7
L 115.7 29.7
Q 115.8 29.7 115.85 29.8 116.65 30.3 117.6 31.6 121.05 32.95 122.1 29.7 119.3 29.85 119.15 28.7 119.3 27.65 118.95 26.55 118.65 25.5 118.35 24.4 119.95 26.9 122.6 26.2 121.2 25.15 120.45 24.3 119.65 23.4 119.6 23.15
L 119.45 22.65 119.35 22.6
Q 118.65 21.65 118.7 19.05 118.5 19.6 118.25 20.1 117.9 21.4 117.6 22.2 115.1 19.95 113.8 17.25 113.65 16.85 113.65 16.55
L 113.7 16.55
Q 114 16.8 114.45 16.7 114.4 16.55 114.4 16.45
L 114.55 16.5
Q 114.85 16.65 115.25 16.7 115.35 16.65 115.25 16.55 114.7 15.7 113.65 15.05 113.35 14.8 112.9 14.75
L 112.85 14.65
Q 112.9 14.6 113.05 14.6 112.75 14.25 112.35 14 112.25 13.95 112.2 13.85
L 111.15 13.65 109.9 13.25
Q 110.3 13.05 110.95 12.85 112.35 11.45 113.7 9.55 113.5 9.55 111.95 8.7
M 111.15 4.9
L 111.1 5.15
Q 111 6 110.05 6.3
L 109.9 6.25 110.05 6.1
Q 110.35 5.3 111.15 4.9
M 101.55 4.55
L 101.55 4.7
Q 101.55 5.85 100.95 6.45
L 100.95 6.4
Q 100.5 5.55 101.55 4.55
M 102.65 5.4
L 102.65 5.7
Q 101.4 4.7 101.05 3.15 103.55 4.3 102.65 5.4
M 105.6 5.3
L 105.6 5.35
Q 106 6.1 104.75 6.8
L 104.85 6.6
Q 104.9 5.55 105.6 5.3
M 104.85 8.15
L 104.7 8.2
Q 103.75 7.6 103.55 7.05 103.65 6.4 104.25 5.85 104.85 6.8 104.85 8.15
M 105.45 8.3
Q 105.5 7.35 106.3 6.6
L 106.4 6.65
Q 106.85 7.5 105.45 8.3
M 101.9 8.05
L 102 8.15
Q 102.35 8.65 102.3 9.25 102.15 9.4 102.05 9.55
L 102.05 9.6 101.85 9.7
Q 101.75 9.7 101.9 9.45 101.75 9.25 101.75 9 101.6 8.8 101.7 8.45 101.75 8.2 101.9 7.9
L 101.9 8.05
M 101.35 11.2
Q 101.25 11.5 101.25 11.6 100.95 12.45 100.35 12.85 100 11.6 99.8 10.4 100.25 10.7 100.65 10.85 101.1 11.05 101.35 11.2
M 105.15 10.65
L 105.15 10.7 105.35 10.65
Q 105.2 10.7 105.05 10.8
L 105 10.7
Q 105.3 9.75 106.15 9.3 106.85 9 107.95 9 108.75 8.95 109.6 9.1 108.3 9.45 108.15 10.55 108.35 11.05 108.45 11.35 108.5 12 108.6 12.6 108.45 12.1 108.3 11.6 107.95 12.15 108.35 12.85 108.5 13.05 108.6 13.1
L 107.05 13.55
Q 107.1 12.75 107.2 11.8 107.2 11.5 107.1 11.2 107.1 10.8 107.1 10.25 107 10.25 105.6 10.5 105.35 10.5 105.15 10.65
M 104.05 9.55
Q 104.2 9.8 104.1 9.9 103.95 9.75 103.8 9.55 103.95 9.4 104.2 9.3
L 104.05 9.55
M 108.35 7.25
Q 107.4 8.15 106.7 8.05 107.2 6.8 107.55 5.85 108.15 6.65 108.35 7.25
M 110.65 14.8
Q 111 14.9 111.15 15.05 111.6 15.55 111.4 16.3
L 111.25 16.3
Q 110.95 15.75 110.8 15.45 110.7 15.25 110.65 15.1 110.65 14.95 110.65 14.8
M 107.35 18.35
L 107.35 18.4
Q 106.85 19.65 105.8 20.4
L 105.75 20.25
Q 105.2 19.8 105.5 19.35 105.45 19.15 105.6 18.75 105.9 18.35 106.6 17.9 107 17.65 107.5 17.4
L 107.7 17.4
Q 107.5 17.8 107.35 18.35
M 108.35 17
Q 108.45 17.1 108.5 17.15 108.75 17.4 108.95 17.65 109.7 18.4 109.85 19.2
L 109.9 19.2
Q 109.9 19.3 109.9 19.35 109.9 19.45 109.9 19.65 110.3 20.4 109.75 20.95 109.55 21.1 109.4 21.25
L 109.55 21.5
Q 109.1 20.9 108.8 20.3 108.65 20 108.5 19.65 108.35 19.15 108.3 18.7 108.2 18.5 108.2 18.2 108.15 17.6 108.2 17.1
L 108.35 17
M 110 16.3
Q 109.9 16.2 109.9 16.15
L 110 16.05
Q 111.5 16.35 112.85 17.4
L 112.9 17.45
Q 112.6 17.45 112.5 17.45 112.1 17.45 111.8 17.4 111.65 17.3 111.5 17.3 110.3 17.1 109.9 16.45 109.9 16.35 110 16.3
M 111.3 18.2
Q 110.7 17.9 110.5 17.6
L 110.8 17.65
Q 111.4 17.6 111.9 17.75 112.55 17.95 112.9 18.2 113.5 18.55 114.1 19.15 114.3 19.35 114.4 19.6
L 114.25 19.65
Q 114.3 19.5 114 19.5 112.35 19 111.3 18.2
M 103 14.95
Q 103.3 15.1 103.45 15.25 103.25 15.75 102.85 16.2 102.7 16.35 102.55 16.35
L 102.5 16.35
Q 102.45 15.55 102.95 15.1 102.95 15.05 103 14.95
M 104.55 24
Q 105.15 23.3 106.1 22.9 106.25 22.75 106.4 22.75
L 106.45 22.9
Q 106.15 23.55 105.45 23.9 105.15 23.9 104.7 24
L 104.55 24
M 107.05 20.25
L 107.25 20.3
Q 107.05 21.35 106.55 22
L 106.4 21.95
Q 105.8 21.2 107.05 20.25
M 108.2 20.9
Q 108.3 21.05 108.3 21.1 108.15 21.7 108.2 22
L 108.2 22.3
Q 107.5 21.55 107.5 20.15
L 107.55 20
Q 108 20.55 108.2 20.9
M 107.1 24.3
Q 107.25 24.15 107.65 23.85
L 107.8 23.85
Q 107.8 24 107.7 24.05 107.55 25.1 107 25.45
L 107.05 25.3
Q 106.85 24.85 107.1 24.3
M 111 22.15
L 111.1 22.05
Q 113.05 23.3 112.05 24.5
L 111.9 24.55
Q 111.65 24.3 111.45 24.05 111.1 23.55 111.1 23.05 111.1 22.65 111 22.15
M 110.4 21.8
L 110.55 21.8
Q 110.35 22.9 110.05 23.85 109.75 24.15 109.55 24.35 109.45 24.4 109.4 24.55 109.2 24.8 109.05 25
L 109.05 24.85
Q 108.8 24.4 108.9 24.05 108.9 23.85 108.9 23.6 108.95 23.25 109.4 22.75 109.6 22.5 109.9 22.45 110.15 22.2 110.35 21.85 110.4 21.85 110.4 21.8
M 110.95 24.3
Q 111.1 24.4 111.15 24.55 111.3 24.55 111.4 24.7 111.6 25 111.65 25.45 111.6 25.5 111.45 25.65
L 111.4 25.6
Q 111.15 25.5 111.1 25.45 110.85 25.1 110.85 24.85 110.8 24.5 110.95 24.3
M 110.15 24.4
Q 110.3 24.3 110.7 24.05
L 110.7 24.15
Q 110.65 25.25 109.9 25.8
L 109.9 25.45
Q 109.7 25.15 110.05 24.65 110.05 24.55 110.15 24.4
M 112.4 15.9
Q 112.5 15.6 112.4 15.6
L 112.5 15.45
Q 113.15 15.7 113.3 16.35 113.5 16.8 113.5 17.25
L 113.45 17.25
Q 112.7 16.55 112.4 15.9
M 98.55 4.9
L 98.7 5
Q 99.2 5.7 97.9 6.5
L 97.8 6.5
Q 97.8 6.1 98.1 5.55 98.3 5.15 98.55 4.9
M 96.4 4.05
Q 96.65 4.25 96.95 4.55 97.3 5.4 97.2 6.45
L 97.15 6.5
Q 95.25 5.15 96.1 4.15 96.2 4.05 96.4 4.15
L 96.4 4.05
M 100 4.9
L 99.85 4.85
Q 99.35 4.05 100.5 3.05 100.5 4.3 100 4.9
M 92.65 11.9
L 92.65 11.75
Q 93.05 11.75 93.35 11.75 93.6 11.8 93.75 11.75 95.3 11.75 95.45 12.85
L 95.55 13
Q 94.3 12.9 93.35 12.3 93.2 12.3 93.2 12.25 92.9 12.1 92.65 11.9
M 99.7 8.45
Q 99.8 8.5 99.7 8.6
L 99.65 8.65
Q 99.6986328125 8.358203125 99.7 8.3
L 99.8 8.2
Q 99.15 8.35 99.4 6.3 98.15 8.95 97.45 9 97 9.4 96.8 9.8 96.8 9.75 95.8 7.05 97.05 9.15 97.45 9 98.15 8.95 99.4 6.3 99.15 8.35 99.8 8.2
L 99.7 8.3
Q 99.7 8.353125 99.7 8.45
M 97.6 11.05
L 97.75 11.15
Q 98.45 11.6 98.15 12.7
L 98.05 12.55
Q 97.45 11.65 97.6 11.05
M 99.15 11.9
L 99.35 11.9
Q 100.15 12.25 99.55 13.7 99.05 12.85 99.15 11.9
M 89.3 15.25
Q 89.35 15.05 89.5 15.05
L 89.35 14.9
Q 89.75 15.05 90.3 15.1 91.05 15.6 91.8 16.45
L 91.7 16.55
Q 89.2 16.45 89.3 15.25
M 100.95 14.15
L 100.95 14.3
Q 101.55 14.9 100.9 15.9
L 100.8 15.9
Q 100.35 14.8 100.95 14.15
M 99.05 13.8
L 99 14
Q 98.6 14 98.25 13.95 97.75 13.85 97.35 13.7 96.5 13.4 96.65 12.55
L 96.65 12.25
Q 98.15 12.55 99.05 13.8
M 99.2 15.1
L 99.2 15.25
Q 99.7 15.6 99.8 16 99.85 16.15 99.85 16.35 99.85 16.85 99.7 17.3 99.65 17.6 99.55 17.8 99.5 17.95 99.35 18.1 99.15 18.1 99 18.2
L 98.9 18.2
Q 98.75 17.4 98.85 16.55 98.85 16.3 98.9 15.9 99 15.75 99 15.7 99.05 15.4 99.2 15.1
M 96.65 15.35
L 96.7 15.35
Q 97 15.4 97.15 15.45 97.35 15.7 97.5 15.9 97.65 16.15 97.8 16.45
L 97.75 16.45
Q 97.5 16.45 97.35 16.35 97.2 16.3 97.05 16.15 96.8 15.9 96.65 15.7 96.65 15.45 96.65 15.35
M 98.05 14.65
L 98.1 14.95
Q 98.45 15.25 98.45 15.75 98.4 15.9 98.3 16.05 98.15 16.2 98.1 16.5
L 97.95 16.5
Q 97.6 15.55 98.05 14.65
M 96.55 16.65
L 96.65 16.55
Q 97 16.65 97.35 16.85 97.8 17.25 98.1 17.65 98.25 17.75 98.25 17.95 97.65 17.8 97.2 17.6 97.35 17.95 97.5 18.25 96.1 17.75 96.55 16.65
M 101.2 17.45
L 101.1 17.4
Q 101.2 17.4 101.25 17.45
L 101.2 17.45
M 93.9 12.7
L 94 12.75
Q 94.8 13.7 94.7 14.35 93.7 14.1 93.9 12.7
M 91.7 14.5
L 91.95 14.5
Q 92.9 14.8 92.25 16.15 92 15.85 91.95 15.35
L 91.8 15.35
Q 91.8 14.95 91.7 14.5
M 93.05 13.8
L 92.75 13.7
Q 92.45 13.5 92.15 13.2 92.15 13.05 92.1 12.85 92.1 12.7 92 12.6 92.1 12.4 92.25 12.1 92.6 12.4 92.75 12.75 92.95 13.25 93.05 13.8
M 97.45 30.9
Q 97.3 30.05 97.3 29.35 98.55 28.8 99.25 29.1 98.3 30.2 97.45 30.9
M 100.9 29.8
L 101.2 29.65
Q 101.7 30.5 101.75 31.1 102.15 30.75 102.3 30.05
L 102.3 30
Q 102.35 29.4 102.45 28.8 102.3 28.8 102.05 28.8
L 102.2 28.75
Q 102.2 28.4 102.35 28.3 102.45 28.45 102.45 28.8 102.35 29.4 102.3 30
L 102.3 30.05
Q 102.15 30.75 101.75 31.1 101.25 31.7 100.65 32 100.25 32.1 99.85 32.35 101.7 33.1 105.75 30.95
L 105.8 30.95
Q 105.8 31.05 105.75 31.1 105.75 31 105.75 30.95 101.7 33.1 99.85 32.35 100.25 32.1 100.65 32 100.3 30.95 100.9 29.8
M 99 30.65
L 98.9 30.6
Q 98.85 29.8 100.35 29.35 99.95 30.3 99 30.65
M 95.3 29.8
L 95.45 29.85 95.25 29.85
Q 94.6 30.65 93.75 30.75
L 93.9 30.6
Q 94.15 29.7 95.3 29.8
M 99 32.05
Q 99.05 31.3 100.35 30.95
L 100.3 31.1
Q 99.8 32 99.05 32.25
L 99 32.05
M 116.5 26.1
Q 118.7 27.15 118.25 28.1 118.15 28.25 118 28.15
L 118 28.4
Q 117.7 28.25 117.25 28 116.75 27.15 116.35 26.2
L 116.5 26.1
M 115.85 26.35
L 115.85 26.25
Q 116 26.7 115.85 27.2
L 116 27.3
Q 115.8 27.65 115.7 28
L 115.5 27.85
Q 114.75 27.35 115.85 26.35
M 112.7 27.15
L 112.75 27.2
Q 113.6 27.7 112.85 29.05
L 112.85 28.95
Q 112.5 27.8 112.7 27.15
M 111.5 28.4
L 111.5 28.25
Q 112.55 28.6 113.3 29.55 113.35 29.55 113.45 29.65 113.65 29.9 113.7 30.15
L 113.65 30.3
Q 113.3 30.2 113.05 30.15 112.85 30 112.7 29.9 111.3 29.5 111.5 28.4
M 114.25 28.3
L 114.4 28.4
Q 114.7 28.6 114.7 29.05 114.75 29.25 114.6 29.5 114.6 29.55 114.6 29.7 114.45 29.9 114.25 30.05 114.1 29.8 114.1 29.35 114 28.7 114.25 28.3
M 109.4 26.5
Q 109.85 26.7 110 26.9 110.85 27.45 110.35 28.15
L 110.2 28.45
Q 108.9 27.8 108.6 26.35
L 108.65 26.2
Q 109.05 26.25 109.4 26.5
M 108.95 27.65
L 109.05 27.8
Q 109.3 28.8 108.75 29.25
L 108.65 29.2
Q 108.2 28.55 108.95 27.65
M 107.7 28
L 107.65 27.95
Q 106.9 27.45 108 26.25 108.2 27.3 107.7 28
M 107 26.9
Q 106.85 28 106.6 29.2 106.25 28.75 105.9 28.6 105.65 28.25 105.45 27.95 105.6 27.7 105.75 27.65 106.3 26.85 107 26.9
M 103.6 30.9
L 103.45 30.6
Q 103.45 30.2 103.8 29.55 103.95 29.4 104.05 29.35
L 104.1 29.25 104.25 29.35
Q 104.35 29.4 104.1 29.35 104.1 29.65 104.1 29.9 104.05 30.2 103.8 30.45 103.75 30.65 103.6 30.9
M 101.9 32.95
L 102 32.8
Q 102.65 34.05 102.35 35.55
L 102.35 35.65
Q 100.6 33.75 101.9 32.95
M 103.65 32.55
L 103.6 32.65
Q 103.9 33.6 102.5 34.1
L 102.5 33.95
Q 103 32.95 103.65 32.55
M 104.05 34.25
L 104.2 34.4
Q 104.35 35.3 102.85 35.7 103.3 34.7 104.05 34.25
M 106.15 34.35
Q 105.75 34.55 105.3 34.75
L 105.35 34.6
Q 105.15 33.9 106.7 33.6
L 106.75 33.5
Q 106.6 33.95 106.1 34.25
L 106.15 34.35
M 108.8 33.75
Q 108.45 31.15 108.15 31.25 107.4 31.15 105.2 33.15 107.4 31.15 108.15 31.25 108.6 30.95 109.2 30.8 109.1 30.9 108.8 33.75
M 107.2 33.8
L 107.35 33.65
Q 108.6 35.7 107.4 36.15 107.25 36.3 107.1 36.15
L 107 36.4
Q 107 36 106.85 35.55 106.75 34.7 107.2 33.8 Z"/>
</g>

<g id="tiny_tree_0_Layer1_0_FILL">
<path fill="#E14848" stroke="none" d="
M -6.6 -43.9
Q -6.9 -44.6 -7.05 -45
L -8.1 -44.15 -8.05 -41.35 -8.55 -41.55 -8.1 -39.95
Q -7.95 -40.1 -7.9 -40.15 -7.2 -40.6 -6.2 -41.85 -6.2 -42.05 -6 -42.2
L -6.6 -43.9
M 6.1 -45.35
Q 5.8 -44.85 5.6 -44.2
L 5.05 -42.4
Q 5.2 -42.3 5.25 -42.1 6.1 -40.9 6.85 -40.45 7 -40.45 7.1 -40.3
L 7.55 -41.95 7 -41.7 7.1 -44.55 6.1 -45.35 Z"/>

<path fill="#4B4645" stroke="none" d="
M -9 -43.75
L -9.6 -44
Q -9.95 -43.35 -10.05 -42.55 -10.65 -40.25 -9.95 -39.3 -9.2 -38.3 -8.25 -37.75
L -6.6 -38.25 -4.3 -42.85 -6.6 -45.4 -7.3 -45.35
Q -7.2 -45.15 -7.05 -45 -6.9 -44.6 -6.6 -43.9
L -6 -42.2
Q -6.2 -42.05 -6.2 -41.85 -7.2 -40.6 -7.9 -40.15 -7.95 -40.1 -8.1 -39.95 -8.55 -39.75 -8.95 -39.95 -9.45 -42.85 -9 -43.75
M 6.2 -45.65
L 5.5 -45.65 3.2 -42.9 5.6 -38.6 7.2 -38.2
Q 8.2 -38.75 8.9 -39.8 9.65 -40.8 9.1 -43.05 8.85 -43.85 8.6 -44.45
L 7.95 -44.2
Q 8.4 -43.25 7.85 -40.4 7.45 -40.2 7.1 -40.3 7 -40.45 6.85 -40.45 6.1 -40.9 5.25 -42.1 5.2 -42.3 5.05 -42.4
L 5.6 -44.2
Q 5.8 -44.85 6.1 -45.35 6.1 -45.5 6.2 -45.65 Z"/>

<path fill="#4D312B" stroke="none" d="
M -9.55 -45.15
L -9.65 -45 -9.45 -44.55
Q -9.55 -44.3 -9.6 -44
L -9 -43.75
Q -8.65 -44.85 -8.35 -45.25
L -9.55 -45.15
M 7.95 -44.2
L 8.6 -44.45
Q 8.45 -44.7 8.4 -45
L 8.6 -45.5 8.45 -45.55 7.2 -45.65
Q 7.6 -45.3 7.95 -44.2 Z"/>

<path fill="#EC8A8A" stroke="none" d="
M -8.35 -45.3
L -8.35 -45.25
Q -8.65 -44.85 -9 -43.75 -9.45 -42.85 -8.95 -39.95 -8.55 -39.75 -8.1 -39.95
L -8.55 -41.55 -8.05 -41.35 -8.1 -44.15 -7.05 -45
Q -7.2 -45.15 -7.3 -45.35 -7.5 -45.7 -7.55 -45.65 -7.9 -45.7 -8.25 -45.3
L -8.35 -45.3
M 6.2 -45.65
Q 6.1 -45.5 6.1 -45.35
L 7.1 -44.55 7 -41.7 7.55 -41.95 7.1 -40.3
Q 7.45 -40.2 7.85 -40.4 8.4 -43.25 7.95 -44.2 7.6 -45.3 7.2 -45.65
L 7.15 -45.65
Q 6.85 -46.05 6.55 -46 6.5 -46 6.2 -45.65 Z"/>

<path fill="#675E5C" stroke="none" d="
M -3.25 -44.4
L -3.35 -44.45
Q -3.35 -44.6 -5.9 -45.7 -6.2 -45.8 -6.35 -45.85 -7.55 -46.4 -8.25 -47.7
L -8.65 -46.1 -10.05 -45.65 -9.45 -45.4 -9.55 -45.15 -8.35 -45.25 -8.35 -45.3 -8.25 -45.3
Q -7.9 -45.7 -7.55 -45.65 -7.5 -45.7 -7.3 -45.35
L -6.6 -45.4 -4.3 -42.85 -3.25 -44.4
M 5.5 -45.65
L 6.2 -45.65
Q 6.5 -46 6.55 -46 6.85 -46.05 7.15 -45.65
L 7.2 -45.65 8.45 -45.55 8.35 -45.85 8.95 -46.15 7.6 -46.6 7.3 -47.8
Q 6.5 -46.7 5.3 -46.1 5.1 -46.05 4.95 -45.95 2.3 -44.6 2.3 -44.45
L 2.15 -44.45 3.2 -42.9 5.5 -45.65 Z"/>
</g>

<path id="tiny_tree_0_Layer6_0_1_STROKES" stroke="#000000" stroke-width="1.5" stroke-linejoin="round" stroke-linecap="round" fill="none" d="
M 14.95 -42.825
Q 14.5208984375 -42.7251953125 14.15 -42.75 12.9 -42.9 11.55 -41.8 10.15 -40.45 9.9 -38.75
L 9.8 -38.6
Q 6.833203125 -38.1083984375 7.125 -35.525 7.4125 -32.94375 7.175 -31.9 6.945703125 -30.8521484375 6.5 -28.25 6.05 -25.75 7.2 -26.05
L 6.4 -22.95 7.3 -22.5 5.6 -16.9
Q 4.6 -13.4 4.05 -10.15
M -4.3 -10.15
Q -5.05 -14.05 -6.65 -17.7
L -7.75 -23.7 -7.05 -23.55 -8.1 -26.3 -7.3 -26.7 -7.3 -30.1
Q -7.35 -30.5 -7.325 -31.8 -7.3 -33.1 -8.6 -35.475 -9.9 -37.85 -10.95 -38.6
L -10.95 -38.75
Q -11.2 -40.45 -12.7 -41.8 -14 -42.9 -15.25 -42.75 -15.465625 -42.735546875 -15.7 -42.75
M -15.7 -48.875
Q -15.4748046875 -48.3771484375 -15.15 -48.25 -13.65 -48.25 -12.8 -48.25 -11.8 -48.25 -10.65 -45.65 -9.25 -42.35 -8.45 -41.05 -8.1 -40.45 -7.7 -39.9 -7.45 -39.45 -7.15 -39.1 -7.15 -39.25 -7.05 -39.45
L -7.05 -39.4 -6.95 -40.1 -6.95 -40.15
Q -6.5 -42.35 -4.85 -43.35 -4.35 -43.65 -3.3 -44.7 -2.15 -45.9 0 -45.9 2.15 -45.9 3.8 -44.2 5.4 -42.4 5.9 -40.4
L 5.95 -40.15 5.95 -39.65 6 -39.75
Q 6.05 -39.6 6.05 -39.45
L 6.05 -39.1
Q 6.0515625 -39.1515625 6.15 -39.25 6.4 -39.6 6.6 -39.95 6.7 -40 6.75 -40.1 6.8 -40.15 6.85 -40.25 7.15 -40.65 7.3 -41.05 7.5 -41.25 7.65 -41.6 8.35 -42.95 9.45 -45.65 10.75 -48.25 11.65 -48.25 12.55 -48.25 14 -48.25 14.6857421875 -48.496875 14.95 -50.1"/>

<path id="base_fuzz_0_Layer0_0_1_STROKES" stroke="#000000" stroke-width="1" stroke-linejoin="round" stroke-linecap="round" fill="none" d="
M 15.75 0.2
L 16.65 0.5 17.55 0.2 17.55 0.5
Q 17.85 0.35 18.55 0.95 18.8 1.15 19.05 1.45
L 20.75 0.05 23.35 0
Q 24.8 0.3 25.8 0.65 27.8 1.4 28.55 2.7 27 2.05 25.4 2.7 27.45 4.4 28.85 6.15 29.7 7.4 30.3 8.65 29.65 9.1 28.1 8.05
L 28 8
Q 28 8.35 28 8.9 27.9 12.05 28.45 13.5 28.45 13.55 28.6 13.55 28.55 13.65 28.85 14 29.05 14.4 29.95 15.65 30.75 16.85 32.8 18.2 29.05 18.85 27.05 15.5 27.2 16.95 27.75 18.2 28.25 19.65 29.25 20.85 30.15 22.1 31.55 22.9 32.15 23.4 33 23.75 33.1 23.75 33.25 23.75 31.25 24.5 30.35 24.2
L 30.3 24.2 30.2 24.3
Q 30.15 25.7 33.3 27.45 31.9 27.65 30.8 27.65 29.55 27.65 28.4 27.2 27.35 26.9 26.5 26.5 25.25 27.2 26.35 28.25 26.5 28.45 26.85 28.7 25.4 29.05 23.9 28.85 22.1 28.4 20.4 27.15 20.15 26.9 19.9 26.8 19.8 26.9 19.8 27.05 19.45 28.25 20.55 29.35 18.4 29 16.75 28.1
M 16.6 28.1
Q 14.9 29 12.75 29.35 13.85 28.25 13.45 27.05 13.45 26.9 13.35 26.8 13.15 26.9 12.9 27.15 11.15 28.4 9.3 28.85 7.85 29.05 6.45 28.7 6.75 28.45 6.9 28.25 8 27.2 6.75 26.5 5.95 26.9 4.85 27.2 4.25 27.45 3.6 27.6 3 27.65 2.4 27.65 1.4 27.65 0 27.45 3.15 25.7 3.1 24.3
L 3 24.2 2.85 24.2
Q 2.05 24.5 0.05 23.75 0.2 23.75 0.3 23.75 1.15 23.4 1.75 22.9 3.15 22.1 4.05 20.85 5.05 19.65 5.6 18.2 6.1 16.95 6.25 15.5 4.25 18.85 0.45 18.2 2.5 16.85 3.4 15.65 4.25 14.4 4.5 14 4.75 13.65 4.6 13.55 4.75 13.55 4.75 13.5 5.45 12.05 5.3 8.9 5.3 8.35 5.3 8
L 5.2 8.05
Q 3.65 9.1 3 8.65 4.35 5.55 7.85 2.7 6.3 2.05 4.75 2.7 5.5 1.4 7.5 0.65 8.5 0.3 10 0 11 0.8 13.05 0.65 13.8 0.5 14.65 0.3 14.95 0.3 15.35 0.15
M 25.95 6.25
L 26.5 6.7 28 8
M 5.3 8
L 7.35 6.25"/>

<path id="top_fuzz_copy_0_Layer0_0_1_STROKES" stroke="#000000" stroke-width="1" stroke-linejoin="round" stroke-linecap="round" fill="none" d="
M 111.95 8.7
L 111.9 8.8
M 112.75 9.25
Q 111.9 9 111.4 8.95
L 111.4 8.85
Q 111.5 4.55 115.05 4.45 113.45 3.3 109.05 4.3 108.9 4.25 108.65 4.3 108.8 4.15 108.95 4.1 109.05 4.05 109.1 4.05 108.6 3.8 110.3 2.25 107.5 3.75 106.75 3.45
M 106.85 0.95
Q 104.25 2.95 102.85 2.8
M 101.9 0
Q 100.75 2.4 98.9 2.65
M 97.75 0.95
Q 94.65 -1.2 92.8 1.7 95.7 2.25 95.3 3.45 94.85 4.3 95 5.5 94.95 6.6 94.85 7.75 94.05 4.9 91.3 5 92.45 6.25 92.8 7.4 93.25 8.45 93.35 8.7
L 93.4 9.1 93.35 9.25
Q 93.5 9.75 93.4 10.65 93.6 10.7 93.75 10.65
M 91.2 8.8
Q 91.8 10.85 91.05 11.95 91 12 91 12.1 90.85 12.3 90.55 12.4
M 88.5 11.8
Q 84.6 11.75 85.05 15.05 87.7 13.95 88.1 15.05 88.55 16 89.35 16.85 89.9 17.65 90.75 18.7 88.1 16.95 86 18.5 87.75 18.85 88.8 19.5 89.95 20.15 90.1 20.4
L 90.3 20.55 90.45 20.75
Q 91.4 21.4 92.5 23.85
M 94.45 26.65
L 94 26.05
Q 94.7 26.55 95.15 26.85
L 95.15 26.9
Q 95.1 27.15 94.95 27.3 92.95 30.9 89.9 29.85 90.85 31.45 95.45 31.9 95.55 32.05 95.75 32 95.55 32.1 95.45 32.1 95.4 32.1 95.3 32.1 95.6 32.55 93.5 33.35 96.7 32.95 97.15 33.5
M 96.2 35.85
Q 99.4 34.7 100.6 35.45
M 100.3 38.2
Q 102.35 36.45 104.05 36.8
M 104.7 38.75
Q 106.55 41.65 109.45 39.7 107.05 38.2 107.85 37.2 108.65 36.4 108.95 35.35 109.55 34.4 110 33.3 109.6 36.25 112.25 36.95 111.6 35.5 111.75 34.35 111.75 33.15 111.9 32.95
L 111.9 32.5 112.05 32.35
Q 112.05 31.9 112.5 31.15 112.25 31 112.2 31.1
M 113.25 32.15
L 113.4 32.45
Q 113.45 32.55 113.5 32.7
L 113.8 33.5
Q 114.25 31.4 115.25 30.6
L 115.35 30.6
Q 115.65 30.35 115.95 30.2
M 117.6 31.6
Q 121.05 32.95 122.1 29.7 119.3 29.85 119.15 28.7 119.3 27.65 118.95 26.55 118.65 25.5 118.35 24.4 119.95 26.9 122.6 26.2 121.2 25.15 120.45 24.3 119.65 23.4 119.6 23.15
L 119.45 22.65 119.35 22.6
Q 118.65 21.65 118.7 19.05
M 111.95 8.7
Q 113.45 7.9 115.25 8.95 115.85 9.3 116.5 9.9 115.25 9.6 114.45 10.4 114.15 10.9 114.1 11.05 113.5 11.9 113.15 12.7
L 114.9 12.3
Q 115.95 12.55 116.6 12.85 118.05 13.1 118.65 14.25 117.6 13.8 116.5 14.6 120.4 15.6 120.9 19.45 119.9 19.2 120.4 19.15 118.65 19 118.7 19.05
M 111.9 8.8
Q 111.65 8.8 111.4 8.85
M 113.8 11.3
L 113.85 11.3
Q 114.1021484375 10.7974609375 114.45 10.4
M 113.85 11.3
Q 113.90625 11.1953125 114.1 11.05
M 109.2 4.05
L 109.1 4.05
M 106.75 3.45
Q 106.3 3.45 106.85 0.95
M 102.85 2.8
Q 102.2 2.7 101.9 0
M 119.5 18.55
L 120.05 18.5
M 113.05 12.7
Q 113.05 12.55 113.15 12.45 113.15 11.6 113.8 11.3 113.45 11.9 113.15 12.7
L 113.05 12.7 112.4 12.7
M 119.5 18.55
L 118.7 18.65
Q 119 18.65 120.4 19.15 119.5 18.65 119.5 18.55 Z
M 98.9 2.65
Q 99.2 1.95 97.75 0.95
M 93.4 10.65
Q 92.8 10.4 91.2 8.8
M 99.7 8.6
L 99.65 8.65
Q 99.6986328125 8.358203125 99.7 8.3
L 99.8 8.2
Q 99.15 8.35 99.4 6.3 98.15 8.95 97.45 9
M 90.9 24.3
Q 91.4 24.05 90.3 24.3 92 27 94.95 27.3
M 90.9 24.3
Q 92.45 24.35 92.75 24.3
L 92 24.5 91.8 24.7
Q 92.4 24.8 92.9 24.55 93.4 24.05 93.55 24
M 92.9 24.55
Q 93.4 24.3 93.75 23.9 93.7 23.9 93.55 24
M 94.6 26.75
Q 92.8 27.15 91.55 25.6 91.2 24.95 90.7 24.35 91.35 24.65 91.8 24.7
M 92 24.5
Q 92 24.4 90.9 24.3 92.6 23.9 92.5 23.85
M 90.55 12.4
Q 90.3 11.8 88.5 11.8
M 101.75 31.1
Q 102.15 30.75 102.3 30.05
L 102.3 30
Q 102.35 29.4 102.45 28.8 102.45 28.45 102.35 28.3
M 94.6 26.75
L 94.45 26.65
M 95.15 26.9
Q 94.95 27 94.65 26.85
L 94.6 26.75
M 105.75 30.95
Q 101.7 33.1 99.85 32.35 100.25 32.1 100.65 32 101.25 31.7 101.75 31.1
M 97.15 33.5
Q 97.5 33.6 96.2 35.85
M 100.6 35.45
Q 101.1 35.7 100.3 38.2
M 112.5 31.15
Q 112.8 31.25 113.25 32.15
M 115.95 30.2
Q 115.8 30.95 117.6 31.6
M 105.8 30.95
L 105.75 30.95
M 108.15 31.25
Q 107.4 31.15 105.2 33.15
M 104.05 36.8
Q 103.65 37.25 104.7 38.75
M 36.7 3.75
Q 38.75 1.25 41.4 3.4 38.9 4.5 39.6 5.45 40.2 6.35 40.45 7.45 40.85 8.3 41.15 9.35 41.1 6.55 43.8 6.1 43 7.45 43.05 8.55 42.85 9.65 43 9.95
L 43 10.3 43.15 10.45
Q 43.05 10.95 43.35 11.6 43.85 11.4 44.9 9.55 45.1 11.55 46 12.4
L 46.1 12.4
Q 46.1 12.4984375 46.1 12.55 46.35 12.65 46.6 12.8 46.65 12.05 48.4 11.75 51.85 10.8 52.55 13.95 49.8 13.5 49.6 14.6 49.6 15.6 49.15 16.55 48.7 17.5 48.35 18.5 50.2 16.3 52.7 17.25 51.2 18.05 50.4 18.8 49.5 19.6 49.45 19.85
L 49.3 20.2 49.15 20.25
Q 48.4 21.1 48.15 23.5 48.15 23.55 49.8 23.55 49.4 23.4 50.35 23.4 49.5 26.85 45.55 27.45 46.6 28.35 47.6 28.1 46.95 29 45.4 29.2 44.85 29.35 43.8 29.45
L 42.2 29
Q 42.4 29.65 42.85 30.45 43 30.7 43.15 31.2 43.8 32 45.1 31.85 44.45 32.35 43.8 32.6 41.9 33.45 40.65 32.5
L 40.5 32.45
Q 40.3 32.45 40.05 32.35 39.75 36.4 43.15 36.8 41.55 37.8 37.25 36.35
M 37.2 36.55
L 37.25 36.55
M 37.4 36.65
L 37.35 36.65
Q 36.85 36.8 38.25 38.3 35.75 36.8 35.05 37 34.65 36.9 34.8 39.25 32.6 37.15 31.2 37.15 30.6 37.2 30 39.7 29.2 37.35 27.45 37 27.6 37.65 25.95 38.4 22.9 40 21.35 37.15 24.2 37 23.9 35.9 23.65 34.85 23.85 33.85 23.9 32.9 24 31.8 22.95 34.3 20.25 33.9 21.5 32.95 21.95 31.85 22.6 31 22.6 30.7
L 22.75 30.4 22.65 30.15
Q 22.9 29.75 22.9 28.95 22.3 29 20.9 30.15
L 20.55 30.45
Q 21.3 28.5 20.75 27.4
L 20.6 27.4
Q 20.55 27.1 20.25 26.85 20.05 27.45 18.2 27.4 14.6 27 15.2 24 17.6 25.25 18.25 24.3 18.7 23.4 19.5 22.7 20.25 21.9 21.15 21.1 18.4 22.55 16.6 20.8 18.2 20.7 19.3 20.2 20.45 19.7 20.6 19.55
L 20.9 19.3 21.05 19.25
Q 22.1 18.75 23.4 16.55 23.5 16.45 21.85 15.95 22.25 16.15 21.3 15.85 23.1 13.5 26.05 13.5 24.6 10 21.45 10.6 22.5998046875 9.2001953125 27.05 9.2
M 26.85 8.95
L 26.95 8.95
Q 27.2 8.7 25.25 7.65 28.3 8.4 28.85 7.95 29.196875 7.943359375 28.1 5.65 31.1 7 32.35 6.5 32.85 6.25 32.35 3.75 34.1 5.75 35.9 5.5 35.45 5 36.7 3.75
M 43.35 11.6
Q 43.2 11.75 43.15 11.7
M 46 12.4
Q 46.0984375 12.4984375 46.1 12.55
M 40.3 15.6
Q 40.55 16.15 41 17.2 40.85 15.3 41.45 15.5
L 41.45 15.45
Q 41.4 15.35 41.1 14.9
M 39.6 14.75
Q 39.9 15.05 40.3 15.6
M 41.45 28.85
L 42.05 29 42.1 29 42.2 29
M 49.8 23.55
Q 48.85 24 48.85 24.1
L 49.4 24.3
M 48.85 24.1
L 48.15 24
Q 48.35 24 49.8 23.55
M 42.05 29
Q 42.05 29.05 42.05 29.2 41.95 29.95 42.65 30.4 42.4 29.65 42.1 29
M 42.85 30.45
Q 42.7 30.45 42.65 30.4 42.85 30.9 43.15 31.2
M 40.5 32.45
L 41.45 32.1
Q 40.55 32.15 40.05 32.3
L 40.05 32.35
M 27.05 9.2
Q 27.15 9.1 27.3 9.2 27.15 9.05 27.05 9.05
L 26.95 8.95
M 25.75 13.9
L 25 14.6
Q 25.75 14.2 26.35 13.95
L 26.25 13.8
Q 25.95 13.75 25.75 13.9
L 25.7 13.9
M 26.25 13.8
Q 26.2 13.65 26.05 13.5
M 24.35 16.55
Q 24.35 16.3 23.75 15.85 23.25 15.65 22.75 15.65
L 22.95 15.7 23.65 16.1
Q 23.5 16 21.85 15.95 22.95 15.85 22.95 15.7
M 24.6 16.55
L 24.35 16.55
M 29.35 20.05
Q 29.85 19.85 30.6 19.7 31.2 19.6 31.75 19.4
M 22.75 15.65
Q 22.25 15.65 21.7 15.85 22.25 15.3 22.65 14.75 24 13.5 25.7 13.9
M 23.75 15.85
Q 24.3 16.15 24.6 16.55
M 30.95 23.35
Q 30.6 23.3 30.45 23 30 22.55 29.65 22.2
L 29.55 22.1
Q 29.05 21.75 28.55 21.6 27.8 21.45 27.15 21.65 26.7 21.75 26.35 21.8 27.05 20.7 29.35 20.05
M 39.55 14.4
Q 39.45 14.6 39.6 14.75
M 37.25 36.35
Q 37.153125 36.3984375 37 36.25 37.1515625 36.4046875 37.2 36.55
M 37.25 36.55
Q 37.25 36.65 37.35 36.65
M 22.9 28.95
Q 23.05 28.95 23.2 29"/>

<path id="tiny_tree_0_Layer1_0_1_STROKES" stroke="#000000" stroke-width="1.2" stroke-linejoin="round" stroke-linecap="round" fill="none" d="
M 5.6 -38.6
L 7.2 -38.2
Q 8.2 -38.75 8.9 -39.8 9.65 -40.8 9.1 -43.05 8.85 -43.85 8.6 -44.45
M 7.95 -44.2
Q 8.4 -43.25 7.85 -40.4 7.45 -40.2 7.1 -40.3 7 -40.45 6.85 -40.45 6.1 -40.9 5.25 -42.1 5.2 -42.3 5.05 -42.4
L 5.6 -44.2
Q 5.8 -44.85 6.1 -45.35 6.1 -45.5 6.2 -45.65 6.5 -46 6.55 -46 6.85 -46.05 7.15 -45.65
L 7.2 -45.65
M 8.45 -45.55
L 8.35 -45.85 8.95 -46.15 7.6 -46.6 7.3 -47.8
Q 6.5 -46.7 5.3 -46.1 5.1 -46.05 4.95 -45.95 2.3 -44.6 2.3 -44.45
M 2.15 -44.45
L 3.2 -42.9
M 8.6 -44.45
Q 8.45 -44.7 8.4 -45
L 8.6 -45.5 8.45 -45.55
M 7.2 -45.65
Q 7.6 -45.3 7.95 -44.2
M -3.35 -44.45
Q -3.35 -44.6 -5.9 -45.7 -6.2 -45.8 -6.35 -45.85 -7.55 -46.4 -8.25 -47.7
L -8.65 -46.1 -10.05 -45.65 -9.45 -45.4 -9.55 -45.15
M -8.35 -45.25
L -8.35 -45.3 -8.25 -45.3
Q -7.9 -45.7 -7.55 -45.65 -7.5 -45.7 -7.3 -45.35
M -4.3 -42.85
L -3.25 -44.4
M -9.55 -45.15
L -9.65 -45 -9.45 -44.55
Q -9.55 -44.3 -9.6 -44
M -9 -43.75
Q -8.65 -44.85 -8.35 -45.25
M -7.05 -45
Q -6.9 -44.6 -6.6 -43.9
L -6 -42.2
Q -6.2 -42.05 -6.2 -41.85 -7.2 -40.6 -7.9 -40.15 -7.95 -40.1 -8.1 -39.95 -8.55 -39.75 -8.95 -39.95 -9.45 -42.85 -9 -43.75
M -7.3 -45.35
Q -7.2 -45.15 -7.05 -45
M -9.6 -44
Q -9.95 -43.35 -10.05 -42.55 -10.65 -40.25 -9.95 -39.3 -9.2 -38.3 -8.25 -37.75
L -6.6 -38.25"/>
</defs>

<g transform="matrix( 8.035171508789062, 0, 0, 8.035171508789062, 287.3,526.15) ">
<g transform="matrix( 1, 0, 0, 1, -0.3,-0.5) ">
<g transform="matrix( 1, 0, 0, 1, 0,0) ">
<use xlink:href="#tiny_tree_0_Layer6_0_FILL"/>

<use xlink:href="#tiny_tree_0_Layer6_0_1_STROKES"/>
</g>

<g transform="matrix( 1, 0, 0, 1, 0,0) ">
<use xlink:href="#tiny_tree_0_Layer5_0_FILL"/>
</g>

<g transform="matrix( 0.812957763671875, 0, 0, 0.71795654296875, -13.9,-20.65) ">
<g transform="matrix( 1, 0, 0, 1, 0,0) ">
<use xlink:href="#base_fuzz_0_Layer0_0_FILL"/>

<use xlink:href="#base_fuzz_0_Layer0_0_1_STROKES"/>
</g>
</g>

<g transform="matrix( 1, 0, 0, 1, 0,0) ">
<use xlink:href="#tiny_tree_0_Layer3_0_FILL"/>
</g>

<g transform="matrix( 0.58837890625, 0, 0, 0.625030517578125, -41.05,-61.15) ">
<g transform="matrix( 1, 0, 0, 1, 0,0) ">
<use xlink:href="#top_fuzz_copy_0_Layer0_0_FILL"/>

<use xlink:href="#top_fuzz_copy_0_Layer0_0_1_STROKES"/>
</g>
</g>

<g transform="matrix( 1, 0, 0, 1, 0,0) ">
<use xlink:href="#tiny_tree_0_Layer1_0_FILL"/>

<use xlink:href="#tiny_tree_0_Layer1_0_1_STROKES"/>
</g>
</g>
</g>
</svg>
