
<svg xmlns="http://www.w3.org/2000/svg" version="1.1" xmlns:xlink="http://www.w3.org/1999/xlink" preserveAspectRatio="none" x="0px" y="0px" width="560px" height="544px" viewBox="0 0 560 544">
<defs>
<g id="Duplicate_Items_Folder_leg_suit_0_Layer1_0_FILL">
<path fill="#FFFFFF" stroke="none" d="
M -2.65 12.75
Q -8.05 17.15 -5.55 20.75 2.05 25.4 9.25 14.45
L 9.35 18.8 11.8 17.1
Q 12.35 11.1 9.25 9.3 -0.05 20.6 -2.65 12.75 Z"/>

<path fill="#FFF7F0" stroke="none" d="
M 14.8 -19.15
Q 15.55 -20.45 16.2 -21.85 16.3 -22.15 16.45 -22.4
L -1.65 -24.8
Q -1.7 -22.85 -1.6 -21.35
L 14.8 -19.15 Z"/>

<path fill="#E0CBBB" stroke="none" d="
M 12.95 -16.05
L 12.5 -16 12.5 -15.4
Q 12.7 -15.7 12.95 -16.05 Z"/>

<path fill="#F7E4D5" stroke="none" d="
M 12.5 -16
L 12.95 -16.05
Q 13.95 -17.55 14.8 -19.15
L -1.6 -21.35
Q -1.4 -18.65 -0.65 -17.4
L -0.6 -17.4
Q -0.35 -16.1 -0.9 -15.3 -1.1 -13.9 -0.95 -12.8 -0.65 -12 0 -10.15 0.15 -9.9 0.65 -8
L 0.7 -6.95
Q 0.85 -2.35 -0.5 7.8
L -0.8 8.4
Q -1.45 11.1 -2.65 12.75 -0.05 20.6 9.25 9.3 7.75 8.8 7.5 6.3
L 7.55 6.3
Q 9.3 1.15 10.2 -3.1 14.45 -8.8 12.3 -15
L 12.95 -15.95 12.95 -16.05
Q 12.7 -15.7 12.5 -15.4
L 12.5 -16 Z"/>

<path fill="#F1D9C6" stroke="none" d="
M 7.9 -39.6
L 0.4 -42.05
Q -0.9 -34.4 -1.4 -29 -1.65 -26.7 -1.65 -24.8
L 16.45 -22.4
Q 20.8 -32.25 20.85 -45.5
L 7.9 -39.6 Z"/>
</g>

<g id="arm_suit_copy_5_0_Layer1_0_FILL">
<path fill="#F1D9C6" stroke="none" d="
M 9.35 20.45
L 9.05 20.3 9.3 20.5 9.35 20.45
M 26.1 2.3
L 26.1 2.45 25.95 2.3 25.95 2.2 25.8 2.3 5.2 17.05 5.15 17.1
Q 5.05 17.2 5.05 17.3
L 5.1 17.4
Q 4.95 17.5 4.9 17.6 4.85 17.65 4.8 17.65 4.65 17.8 4.65 17.85 2.25 18.25 -1.15 19.6 -4.65 21 -5.1 22.45 -5.4 22.8 -5.55 24.15 -5.75 25.4 -4.7 24.6 -3.6 23.75 -3.3 22.85 -3.05 21.95 2.15 21.7
L 1.9 21.95
Q 0.3 23.55 0.8 23.4 1.45 23.15 1.85 22.9 1.45 23.15 0.8 23.4 0.3 23.55 1.9 21.95 -0.65 24.25 -0.65 24.45 -0.75 24.75 -0.7 25.2
L -0.65 25.25
Q -0.65 25.75 0.25 25.8 0.35 25.8 0.4 25.8 1.05 25.6 1.75 25.15 1.8 25.1 1.85 25.1
L 2 25.1
Q 2.2 24.85 2.6 24.85 6.05 23.75 6 22.2 6.2 21.55 8.2 20.8
L 8.55 20.75 9.05 20.3 9.35 20.45 14.6 17.8 25.95 11.05 27.7 9.95 27.7 10.05 33.9 6.85 43.15 1.2
Q 43 1.3 39.85 -6.9
L 25.25 2.35 25.8 2.3 25.95 2.2 25.95 2.3 26.1 2.3
M 38.65 0.5
L 35.9 2.2 35.9 3.85 35.9 2.2 33.65 1.4
Q 34.15 4.5 31.85 4.55 34.15 4.5 33.65 1.4 30.1 0.8 30.3 2.5 30.1 0.8 33.65 1.4
L 33.95 -0.1 33.65 1.4 35.9 2.2
Q 35.55 -1.25 38.05 -1.85 35.55 -1.25 35.9 2.2
L 38.65 0.5 Z"/>

<path fill="#000000" stroke="none" d="
M 27.7 9.95
L 25.95 11.05 27.7 10.05 27.7 9.95 Z"/>
</g>

<g id="arm_suit_copy_5_0_Layer0_0_FILL">
<path fill="#ECE4B3" stroke="none" d="
M 45 -15.05
Q 42.4 -12.95 41.95 -11.45 44.3 -3.85 49.4 1.9 49.5 1.95 49.75 2.05 51.15 2.6 55.85 -0.9 60.6 -4.5 63.15 -6.3 65.7 -8.15 64.35 -11.4 62.9 -14.7 61.05 -16 59.15 -17.35 53.35 -17.25 47.45 -17.25 45 -15.05 Z"/>

<path fill="#ECECEC" stroke="none" d="
M 41.95 -11.45
L 41.6 -11.85 37.65 -9.35
Q 40.65 -1.8 44.65 3.25 44.9 3.5 45.05 3.7
L 48.55 1.45 49.4 1.9
Q 44.3 -3.85 41.95 -11.45 Z"/>
</g>

<g id="arm_suit_copy_3_0_Layer1_0_FILL">
<path fill="#F1D9C6" stroke="none" d="
M 15.5 7.7
L 15.55 7.65 15.25 7.6 15.5 7.7
M 32.05 -14.4
L 38.05 -23.2
Q 38 -23.05 32.45 -29.8
L 23.1 -15.55 23.45 -15.85 23.6 -16 23.65 -15.9 23.75 -15.95 23.8 -15.8 23.65 -15.9 23.6 -16 23.45 -15.85 10.8 5.9 10.8 5.95
Q 10.7 6.1 10.75 6.2
L 10.85 6.3
Q 10.75 6.45 10.75 6.55 10.7 6.6 10.7 6.65 10.55 6.8 10.6 6.85 8.7 8.1 6.2 10.65 3.65 13.25 3.8 14.8 3.65 15.25 3.95 16.6 4.25 17.85 4.9 16.7 5.55 15.5 5.5 14.55 5.4 13.6 9.75 11.45
L 9.45 12.3
Q 8.8 13.85 9.2 13.6 9.6 13.1 9.95 12.7 9.6 13.1 9.2 13.6 8.8 13.85 9.45 12.3 8.25 15 8.3 15.15 8.35 15.45 8.5 15.9
L 8.55 15.9
Q 8.8 16.4 9.5 16.1 9.6 16.05 9.7 16 10.2 15.6 10.6 14.9 10.65 14.85 10.7 14.85
L 10.85 14.8
Q 10.9 14.45 11.3 14.3 13.85 12.05 13.25 10.55 13.2 9.8 14.65 8.35
L 14.95 8.2 15.25 7.6 15.55 7.65 26.65 -7.45 27.75 -9.15 27.8 -9.05 32.05 -14.4
M 32.15 -19.55
L 32.7 -18 32.15 -19.55 29.95 -19.55
Q 31.45 -16.75 29.45 -15.8 31.45 -16.75 29.95 -19.55 26.75 -18.85 27.5 -17.25 26.75 -18.85 29.95 -19.55
L 29.7 -21.1 29.95 -19.55 32.15 -19.55
Q 30.65 -22.75 32.6 -24.25 30.65 -22.75 32.15 -19.55
L 34 -22.3 32.15 -19.55 Z"/>

<path fill="#000000" stroke="none" d="
M 26.65 -7.45
L 27.8 -9.05 27.75 -9.15 26.65 -7.45 Z"/>
</g>

<g id="arm_suit_copy_3_0_Layer0_0_FILL">
<path fill="#ECECEC" stroke="none" d="
M 29.75 -31.3
Q 34.9 -25.15 40.05 -21.75 40.35 -21.65 40.55 -21.5
L 42.8 -24.95 43.7 -24.8
Q 37.35 -28.45 32.7 -34.9
L 32.3 -35.2 29.75 -31.3 Z"/>

<path fill="#ECE4B3" stroke="none" d="
M 34.1 -39.5
Q 32.6 -36.55 32.7 -34.9 37.35 -28.45 43.7 -24.8 43.8 -24.8 44.05 -24.8 45.4 -24.75 48.25 -29.8 51.15 -35 52.75 -37.65 54.3 -40.4 52 -43.05 49.65 -45.7 47.6 -46.25 45.45 -46.9 40.5 -44.65 35.5 -42.55 34.1 -39.5 Z"/>
</g>

<g id="Duplicate_Items_Folder_head_copy_7_Layer4_0_FILL">
<path fill="#F1D9C6" stroke="none" d="
M -0.45 -1.8
L -13.55 -1.85
Q -11.45 16.4 -18.25 36.25 -12.65 86.8 1.85 37.25 -3.3 16 -0.45 -1.8 Z"/>
</g>

<g id="Duplicate_Items_Folder_head_copy_7_Layer3_0_FILL">
<path fill="#58322C" stroke="none" d="
M 29.7 -76.65
Q 18.85 -85.95 4.65 -85.35 -9.5 -84.65 -18.7 -74.45 -27.9 -64.2 -26.75 -50.45 -25.5 -36.6 -14.65 -27.35 -3.75 -18 10.4 -18.7 24.6 -19.35 33.75 -29.6 42.9 -39.8 41.75 -53.65 40.55 -67.4 29.7 -76.65 Z"/>
</g>

<g id="eye_blink_14_Layer1_0_FILL">
<path fill="#000000" stroke="none" d="
M 46.85 37.1
Q 49.15 27.2 45.1 18.8 41.1 10.35 33.15 8.35 25.2 6.45 17.95 12.05 10.65 17.65 8.4 27.5 6.1 37.4 10.15 45.85 14.2 54.25 22.1 56.2 30.1 58.2 37.3 52.6 44.6 46.95 46.85 37.1
M 12.65 46.95
Q 9.5 40.65 11.25 33.2 13 25.7 18.55 21.5 24.2 17.35 30.4 18.9 36.7 20.5 39.85 26.85 43.05 33.25 41.35 40.7 39.6 48.2 33.95 52.3 28.4 56.5 22.1 54.9 15.85 53.35 12.65 46.95
M 13.8 37.4
Q 12.5 43 14.65 47.6 16.85 52.3 21.25 53.4 25.65 54.5 29.7 51.35 33.7 48.25 34.95 42.65 36.25 37.1 34.05 32.4 31.85 27.75 27.45 26.65 23.05 25.5 19.05 28.65 15.05 31.85 13.8 37.4
M 26.5 36.25
Q 25.15 37.3 23.6 36.9 22.15 36.55 21.4 34.95 20.6 33.45 21 31.6 21.4 29.85 22.75 28.8 24.1 27.85 25.65 28.2 27.15 28.55 27.9 30.15 28.7 31.7 28.25 33.45 27.85 35.25 26.5 36.25
M 28.2 42.65
Q 27.4 42.45 26.9 41.65 26.55 40.95 26.75 39.95 27 39.1 27.65 38.55 28.35 38.05 29.2 38.25 30 38.5 30.45 39.25 30.9 40.05 30.65 40.9 30.45 41.9 29.75 42.35 29 42.9 28.2 42.65 Z"/>

<path fill="#990033" stroke="none" d="
M 11.25 33.2
Q 9.5 40.65 12.65 46.95 15.85 53.35 22.1 54.9 28.4 56.5 33.95 52.3 39.6 48.2 41.35 40.7 43.05 33.25 39.85 26.85 36.7 20.5 30.4 18.9 24.2 17.35 18.55 21.5 13 25.7 11.25 33.2
M 14.65 47.6
Q 12.5 43 13.8 37.4 15.05 31.85 19.05 28.65 23.05 25.5 27.45 26.65 31.85 27.75 34.05 32.4 36.25 37.1 34.95 42.65 33.7 48.25 29.7 51.35 25.65 54.5 21.25 53.4 16.85 52.3 14.65 47.6 Z"/>

<path fill="#FFFFFF" stroke="none" d="
M 26.9 41.65
Q 27.4 42.45 28.2 42.65 29 42.9 29.75 42.35 30.45 41.9 30.65 40.9 30.9 40.05 30.45 39.25 30 38.5 29.2 38.25 28.35 38.05 27.65 38.55 27 39.1 26.75 39.95 26.55 40.95 26.9 41.65
M 23.6 36.9
Q 25.15 37.3 26.5 36.25 27.85 35.25 28.25 33.45 28.7 31.7 27.9 30.15 27.15 28.55 25.65 28.2 24.1 27.85 22.75 28.8 21.4 29.85 21 31.6 20.6 33.45 21.4 34.95 22.15 36.55 23.6 36.9 Z"/>
</g>

<g id="Duplicate_Items_Folder_head_copy_7_Layer1_0_FILL">
<path fill="#CC0000" stroke="none" d="
M -63.25 -111.65
Q -62.05 -110.7 -60.5 -110.8 -59 -110.85 -58 -111.9 -56.95 -113 -57.1 -114.4 -57.25 -115.85 -58.4 -116.85 -59.6 -117.85 -61.1 -117.75 -62.6 -117.7 -63.65 -116.6 -64.65 -115.5 -64.55 -114.1 -64.4 -112.6 -63.25 -111.65
M -52.3 -32.75
Q -53.55 -32.7 -54.4 -32.2 -55.25 -31.7 -55.2 -31.1 -55.15 -30.5 -54.2 -30.05 -53.3 -29.65 -52 -29.7 -51.6 -29.7 -51.15 -29.8 -51.95 -29.45 -51.95 -29.05 -51.9 -28.6 -50.9 -28.3 -49.85 -28 -48.4 -28.1 -46.9 -28.2 -45.9 -28.55 -44.9 -28.9 -44.95 -29.35 -44.95 -29.7 -45.6 -29.95 -45.5 -30.25 -45.45 -30.65 -45.5 -31.15 -45.9 -31.5 -46 -31.65 -46.15 -31.7 -46.7 -32.05 -47.45 -32.05 -47.5 -32.05 -47.5 -32.1 -47.55 -32.1 -47.6 -32.1 -48.45 -32.05 -48.95 -31.6 -49.05 -31.55 -49.1 -31.45 -49.2 -32 -50.1 -32.45 -51.05 -32.8 -52.3 -32.75
M -49.95 -30.3
Q -49.65 -30.4 -49.45 -30.6 -49.45 -30.55 -49.45 -30.5 -49.45 -30.4 -49.35 -30.25 -49.9 -30.15 -50.35 -30.05 -50.1 -30.15 -49.95 -30.3
M -5.4 -71.9
Q -15.9 -60.95 -27.85 -50.3
L -29.3 -44.4
Q -15.3 -51.8 -1.9 -62.85 2.35 -66.4 6.55 -70.25 8.6 -78.25 -5.4 -71.9
M -15.75 -73.35
Q -23.85 -66.7 -32.35 -60.15 -22.4 -61.1 -27.85 -50.3 -15.9 -60.95 -5.4 -71.9 -5.75 -76.35 -15.75 -73.35
M 27.7 -11.2
Q 28.3 -11.55 28.95 -11.95 32.1 -14.4 34.15 -22.55 39.55 -21.65 44.2 -28.95
L 45.4 -38
Q 37.2 -28.75 30.4 -25.05 18.95 -18.75 1.95 -16.55 8.9 -8.9 21.15 -12.5 24.8 -10 27.7 -11.2
M 36.4 -58.85
Q 35.75 -63 34.75 -66.9 27.1 -79 19.75 -69.85 27.25 -58.8 30.05 -45.4 27.45 -61.65 36.4 -58.85
M 43.85 -66.15
Q 44.3 -66.7 44.2 -67.45 44.2 -68.15 43.65 -68.65 43.1 -69.1 42.5 -69.1 41.9 -69.1 41.45 -68.6 41.1 -68.05 41.1 -67.3 41.2 -66.55 41.65 -66.1 42.2 -65.6 42.8 -65.6 43.4 -65.65 43.85 -66.15
M 47.55 -76.4
Q 48 -76.35 48.3 -76.85 48.65 -77.35 48.55 -77.95 48.5 -78.55 48.1 -79 47.75 -79.45 47.3 -79.45 46.85 -79.4 46.55 -78.95 46.3 -78.45 46.35 -77.85 46.4 -77.25 46.75 -76.8 47.1 -76.35 47.55 -76.4
M 42.3 -80.8
Q 43 -81.55 42.9 -82.55 42.85 -83.55 42.05 -84.2 41.25 -84.85 40.25 -84.8 39.25 -84.75 38.6 -84 38 -83.3 38.05 -82.3 38.15 -81.3 38.9 -80.6 39.7 -79.95 40.7 -80 41.7 -80.05 42.3 -80.8
M -41.2 -16.3
Q -42 -15.6 -41.95 -14.6 -41.85 -13.6 -40.9 -12.95 -40.35 -12.55 -39.75 -12.4 -39.4 -12.15 -39 -11.95 -38.8 -11.8 -38.55 -11.65 -38.6 -11.45 -38.55 -11.25 -38.4 -9.35 -36.1 -8.15 -33.75 -6.9 -30.65 -7.05 -27.6 -7.15 -25.6 -8.6 -23.45 -10.1 -23.65 -11.95 -23.8 -13.85 -26.15 -15.1 -28.4 -16.35 -31.5 -16.2 -31.9 -16.2 -32.25 -16.15 -32.55 -16.35 -32.9 -16.55 -34.35 -17.3 -36.2 -17.25 -37.15 -17.2 -38 -16.9 -38.6 -17.15 -39.3 -17.1 -40.45 -17.05 -41.2 -16.3
M 14.1 -89.55
Q 13.6 -89.7 12.95 -89.65 11.85 -89.6 11.05 -88.8 10.35 -88 10.4 -86.95 10.5 -85.85 11.4 -85.05 12.25 -84.35 13.4 -84.4 14.6 -84.5 15.4 -85.3 16.2 -86.1 16.05 -87.2 16.3 -87.2 16.55 -87.2 17.45 -87.25 18 -87.9 18.6 -88.5 18.5 -89.45 18.45 -90.4 17.75 -91.05 17.1 -91.65 16.2 -91.6 15.25 -91.55 14.6 -90.9 14.1 -90.35 14.1 -89.55 Z"/>

<path fill="#B6AE7D" stroke="none" d="
M -35.45 7.65
Q -35.65 7.65 -35.85 7.6 -34.7 8.95 -29.6 13.8 2.65 18.2 27 3.9 -19.35 13.8 -53.6 -17.9 -46.95 -6.95 -35.45 7.65 Z"/>

<path fill="#C6BC7F" stroke="none" d="
M -36.65 -28.65
Q -26 -25.85 -15.45 -25.65 -1.7 -42.6 -1.9 -62.85 -15.3 -51.8 -29.3 -44.4 -38.6 -39.55 -48.05 -36.3
L -36.65 -28.65 Z"/>

<path fill="#DBD193" stroke="none" d="
M -74.25 -20.8
L -73 -17.8 -74.25 -20.8
Q -74.25 -20.25 -74.25 -19.7 -61.05 15.5 -30.5 14.6
L -29.6 13.8
Q -34.7 8.95 -35.85 7.6 -57.8 5.3 -67 -23.1 -71.95 -41.65 -69.8 -60.5 -74.35 -43.65 -74.25 -20.8
M -49.45 -30.6
Q -49.65 -30.4 -49.95 -30.3 -50.1 -30.15 -50.35 -30.05 -49.9 -30.15 -49.35 -30.25 -49.45 -30.4 -49.45 -30.5 -49.45 -30.55 -49.45 -30.6
M -32.35 -60.15
Q -23.85 -66.7 -15.75 -73.35 -0.6 -86.05 12.8 -99.7 -22.6 -100.4 -48 -88.65 -60.9 -68.5 -62.8 -46.2
L -57.35 -42.6
Q -44.35 -51.15 -32.35 -60.15
M 37.55 -41.85
Q 34.35 -39.8 31.25 -38 8.45 -25.1 -15.45 -25.65 -26 -25.85 -36.65 -28.65 -41.3 -29.85 -45.9 -31.5 -45.5 -31.15 -45.45 -30.65 -45.5 -30.25 -45.6 -29.95 -44.95 -29.7 -44.95 -29.35 -44.9 -28.9 -45.9 -28.55 -46.9 -28.2 -48.4 -28.1 -49.85 -28 -50.9 -28.3 -51.9 -28.6 -51.95 -29.05 -51.95 -29.45 -51.15 -29.8 -51.6 -29.7 -52 -29.7 -53.3 -29.65 -54.2 -30.05 -55.15 -30.5 -55.2 -31.1 -55.25 -31.7 -54.4 -32.2 -53.55 -32.7 -52.3 -32.75 -51.05 -32.8 -50.1 -32.45 -49.2 -32 -49.1 -31.45 -49.05 -31.55 -48.95 -31.6 -48.45 -32.05 -47.6 -32.1 -47.55 -32.1 -47.5 -32.1 -50.6 -33.25 -53.6 -34.65 -58.2 -36.65 -62.8 -39.1
L -63.25 -38.75
Q -62.05 -34.9 -60.6 -31.25 -29.95 -14.3 -6.95 -15.7 -2.3 -16 1.95 -16.55 18.95 -18.75 30.4 -25.05 37.2 -28.75 45.4 -38 54.95 -48.65 66.45 -66.65 52.25 -51.4 37.55 -41.85
M 30.05 -45.4
Q 30.85 -41.8 31.25 -38 34.35 -39.8 37.55 -41.85 37.5 -42.75 37.5 -43.65
L 37.2 -42.9 37.5 -43.65
Q 37.6 -51.6 36.4 -58.85 27.45 -61.65 30.05 -45.4
M 13.9 -77.35
Q 17.05 -73.65 19.75 -69.85 27.1 -79 34.75 -66.9 31.45 -78.95 24.55 -88.95 19.25 -82.85 13.9 -77.35
M 76.8 -78.5
Q 70.9 -84.65 64.1 -88.95 56.95 -59.75 37.5 -43.65 37.5 -42.75 37.55 -41.85 52.25 -51.4 66.45 -66.65 67.6 -67.85 70.1 -71.15 72.8 -73.6 76.8 -78.5 Z"/>

<path fill="#F0E8B9" stroke="none" d="
M -50.65 -38.1
L -48.05 -36.3
Q -38.6 -39.55 -29.3 -44.4
L -27.85 -50.3
Q -39.75 -44.3 -50.65 -38.1
M -60.8 -81.6
Q -66.5 -72.6 -69.8 -60.5 -71.95 -41.65 -67 -23.1 -57.8 5.3 -35.85 7.6 -36.85 6.55 -35.45 7.65 -46.95 -6.95 -53.6 -17.9 -58.25 -25.4 -60.6 -31.25 -62.05 -34.9 -63.25 -38.75
L -62.8 -39.1
Q -62.95 -39.2 -63.1 -39.3 -63.05 -42.8 -62.8 -46.2 -60.9 -68.5 -48 -88.65 -54.8 -85.55 -60.8 -81.6
M -27.85 -50.3
Q -22.4 -61.1 -32.35 -60.15 -44.35 -51.15 -57.35 -42.6
L -50.65 -38.1
Q -39.75 -44.3 -27.85 -50.3
M -81.35 -42.6
Q -81.3755859375 -42.28359375 -81.4 -42 -81.49140625 -40.425 -81.45 -38.85 -82.25 -27.8 -74.25 -20.8 -74.35 -43.65 -69.8 -60.5 -66.5 -72.6 -60.8 -81.6 -68 -76.9 -74.15 -71 -80.7 -56 -81.35 -42.6
M 34.75 -66.9
Q 35.75 -63 36.4 -58.85 37.6 -51.6 37.5 -43.65 56.95 -59.75 64.1 -88.95 49.75 -98.05 31.5 -99.4
L 24.55 -88.95
Q 31.45 -78.95 34.75 -66.9
M 42.9 -82.55
Q 43 -81.55 42.3 -80.8 41.7 -80.05 40.7 -80 39.7 -79.95 38.9 -80.6 38.15 -81.3 38.05 -82.3 38 -83.3 38.6 -84 39.25 -84.75 40.25 -84.8 41.25 -84.85 42.05 -84.2 42.85 -83.55 42.9 -82.55
M 48.3 -76.85
Q 48 -76.35 47.55 -76.4 47.1 -76.35 46.75 -76.8 46.4 -77.25 46.35 -77.85 46.3 -78.45 46.55 -78.95 46.85 -79.4 47.3 -79.45 47.75 -79.45 48.1 -79 48.5 -78.55 48.55 -77.95 48.65 -77.35 48.3 -76.85
M 44.2 -67.45
Q 44.3 -66.7 43.85 -66.15 43.4 -65.65 42.8 -65.6 42.2 -65.6 41.65 -66.1 41.2 -66.55 41.1 -67.3 41.1 -68.05 41.45 -68.6 41.9 -69.1 42.5 -69.1 43.1 -69.1 43.65 -68.65 44.2 -68.15 44.2 -67.45
M 70.1 -71.15
Q 67.6 -67.85 66.45 -66.65 54.95 -48.65 45.4 -38
L 44.2 -28.95
Q 39.55 -21.65 34.15 -22.55 32.1 -14.4 28.95 -11.95 41.05 -19.2 52.7 -31.65 65.3 -45.9 70.1 -71.15
M 76.85 -78.5
L 76.8 -78.5
Q 72.8 -73.6 70.1 -71.15 65.3 -45.9 52.7 -31.65 41.05 -19.2 28.95 -11.95 28.3 -11.55 27.7 -11.2 9.2 -0.55 -10.45 -1.7 9.2 -0.55 27.7 -11.2 24.8 -10 21.15 -12.5 8.9 -8.9 1.95 -16.55 -2.3 -16 -6.95 -15.7 -29.95 -14.3 -60.6 -31.25 -58.25 -25.4 -53.6 -17.9 -19.35 13.8 27 3.9 80.75 -21.8 76.85 -78.5
M -41.95 -14.6
Q -42 -15.6 -41.2 -16.3 -40.45 -17.05 -39.3 -17.1 -38.6 -17.15 -38 -16.9 -37.15 -17.2 -36.2 -17.25 -34.35 -17.3 -32.9 -16.55 -32.55 -16.35 -32.25 -16.15 -31.9 -16.2 -31.5 -16.2 -28.4 -16.35 -26.15 -15.1 -23.8 -13.85 -23.65 -11.95 -23.45 -10.1 -25.6 -8.6 -27.6 -7.15 -30.65 -7.05 -33.75 -6.9 -36.1 -8.15 -38.4 -9.35 -38.55 -11.25 -38.6 -11.45 -38.55 -11.65 -38.8 -11.8 -39 -11.95 -39.4 -12.15 -39.75 -12.4 -40.35 -12.55 -40.9 -12.95 -41.85 -13.6 -41.95 -14.6
M 13.75 -99.65
Q 13.3 -99.7 12.8 -99.7 -0.6 -86.05 -15.75 -73.35 -5.75 -76.35 -5.4 -71.9 7.3 -85.3 13.75 -99.65
M 31.5 -99.4
Q 25.55 -99.85 19.25 -99.5 16.5 -99.55 13.75 -99.65 7.3 -85.3 -5.4 -71.9 8.6 -78.25 6.55 -70.25 10.2 -73.65 13.9 -77.35 19.25 -82.85 24.55 -88.95
L 31.5 -99.4
M 12.95 -89.65
Q 13.6 -89.7 14.1 -89.55 14.1 -90.35 14.6 -90.9 15.25 -91.55 16.2 -91.6 17.1 -91.65 17.75 -91.05 18.45 -90.4 18.5 -89.45 18.6 -88.5 18 -87.9 17.45 -87.25 16.55 -87.2 16.3 -87.2 16.05 -87.2 16.2 -86.1 15.4 -85.3 14.6 -84.5 13.4 -84.4 12.25 -84.35 11.4 -85.05 10.5 -85.85 10.4 -86.95 10.35 -88 11.05 -88.8 11.85 -89.6 12.95 -89.65 Z"/>

<path fill="#58322C" stroke="none" d="
M -50.65 -38.1
L -57.35 -42.6 -62.8 -46.2
Q -63.05 -42.8 -63.1 -39.3 -62.95 -39.2 -62.8 -39.1 -58.2 -36.65 -53.6 -34.65 -50.6 -33.25 -47.5 -32.1 -47.5 -32.05 -47.45 -32.05 -46.7 -32.05 -46.15 -31.7 -46 -31.65 -45.9 -31.5 -41.3 -29.85 -36.65 -28.65
L -48.05 -36.3 -50.65 -38.1 Z"/>
</g>

<g id="Duplicate_Items_Folder_head_copy_7_Layer0_0_FILL">
<path fill="#CC0000" stroke="none" d="
M -54.35 -118.95
Q -56.95 -116.5 -51.8 -116.1 -46.7 -115.75 -44.9 -115.9 -43.05 -115.95 -41.95 -117.3 -41 -118.35 -37.9 -119.1 -37.35 -118 -36.4 -116.75 -35.75 -115.85 -34.95 -114.85 -31.3 -110.65 -28.45 -110.9 -25.55 -111.2 -24.8 -115.55 -24.45 -117.75 -24.35 -119.5 -24.2 -121.3 -24.35 -122.75 -24.6 -125.7 -26.95 -127.75 -29.25 -129.75 -32.2 -129.6 -35 -129.5 -36.85 -127.55 -36.95 -127.7 -36.95 -127.85 -38.55 -132.75 -45.15 -127.05 -51.75 -121.4 -54.35 -118.95
M -70.6 -103.35
Q -70.6 -103.1 -70.6 -102.9 -70.35 -100 -66.9 -98.05 -63.4 -96.2 -58.7 -96.4 -57.65 -95.3 -50.8 -102.8 -43.9 -110.25 -40.85 -102.5 -37.95 -94.7 -34.3 -96.75 -30.65 -98.75 -31.05 -103.15 -31.45 -107.6 -36.15 -110.5 -40.8 -113.4 -47.1 -113.15 -47.65 -113.15 -48.15 -113.1 -53 -112.65 -56.55 -110.25 -58.15 -110.45 -59.8 -110.35 -64.55 -110.15 -67.7 -107.95 -70.6 -105.85 -70.6 -103.35
M -71.75 -81.65
Q -71.5 -82.45 -71.55 -83.3 -71.65 -84.8 -72.9 -85.85 -74.1 -86.95 -75.6 -86.9 -77.15 -86.8 -78.1 -85.65 -79.1 -84.45 -78.6 -83.05 -78.15 -81.75 -74.35 -81.9 -72.35 -81.95 -71.75 -81.65
M -56.9 -89
Q -58.45 -90.3 -60.5 -90.15 -62.6 -90.05 -63.95 -88.65 -65.35 -87.2 -65.15 -85.35 -65 -83.5 -64.8 -81.75 -64.5 -80.05 -61.45 -80.45 -58.35 -80.9 -56.7 -82.45 -54.95 -83.95 -55.1 -85.8 -55.25 -87.7 -56.9 -89
M -15.25 -100.8
Q -14.65 -101.5 -14.7 -102.4 -14.8 -103.3 -15.5 -103.9 -16.15 -104.5 -17.1 -104.45 -18.05 -104.4 -18.6 -103.8 -19.1 -103.1 -19.05 -102.15 -19 -101.25 -18.35 -100.65 -17.65 -100.05 -16.75 -100.1 -15.8 -100.1 -15.25 -100.8
M 67.4 -104.7
Q 68.35 -106.8 68.05 -108.25 67.7 -109.7 66.65 -109.65 65.65 -109.6 65.1 -108.15 64.5 -106.65 64.7 -104.55 64.9 -102.45 65.7 -101.1 66.55 -99.6 67.55 -99.65 68.6 -99.65 67.5 -101.05 66.35 -102.5 67.4 -104.7
M 60.5 -119.45
Q 59.55 -119.4 58.9 -118.65 58.85 -118.45 58.75 -118.35 58.3 -117.65 58.4 -116.7 58.5 -115.7 59.25 -114.95 60.05 -114.2 61 -114.25 62 -114.35 62.6 -115.1 63.25 -115.9 63.15 -117 63.1 -117.2 63.1 -117.45 62.9 -118.15 62.3 -118.8 61.5 -119.5 60.5 -119.45
M 70.3 -128.65
Q 68.25 -128.55 66.95 -126.55 65.65 -124.5 65.9 -121.7 66.05 -119.85 66.75 -116.65 67.15 -114.85 67.7 -112.6 69.25 -106.35 71.35 -106.8 73.4 -107.3 74.8 -113.25
L 74.8 -113.3
Q 76.2 -119.35 75.95 -122.2 75.7 -124.95 74.05 -126.85 72.4 -128.7 70.3 -128.65 Z"/>

<path fill="#ECEAEA" stroke="none" d="
M 47.2 -142.9
Q 42.05 -148.25 37.25 -152.5 -42 -158.15 -98.8 -110.85 -99.15 -103.75 -97.65 -96.95 -97.6 -97.65 -97.4 -97.2 -40.75 -158.5 47.2 -142.9 Z"/>

<path fill="#F5F5F5" stroke="none" d="
M 58.4 -116.7
Q 58.3 -117.65 58.75 -118.35 14.35 -127.25 -24.35 -119.5 -24.45 -117.75 -24.8 -115.55 -25.55 -111.2 -28.45 -110.9 -31.3 -110.65 -34.95 -114.85 -35.75 -115.85 -36.4 -116.75 -42.35 -115.15 -48.15 -113.1 -47.65 -113.15 -47.1 -113.15 -40.8 -113.4 -36.15 -110.5 -31.45 -107.6 -31.05 -103.15 -30.65 -98.75 -34.3 -96.75 -37.95 -94.7 -40.85 -102.5 -43.9 -110.25 -50.8 -102.8 -57.65 -95.3 -58.7 -96.4 -63.4 -96.2 -66.9 -98.05 -70.35 -100 -70.6 -102.9 -70.6 -103.1 -70.6 -103.35 -85.35 -95.7 -98.95 -85.15 -97.95 -76.85 -94.95 -68.7 -95.05 -68.3 -94.5 -66.9 -91.55 -50.35 -82.25 -34.8 -81.95 -34.9 -81.6 -35 -83.85 -69.5 -37.4 -84.75 -23.2 -89.4 -16.1 -90.75 -15.95 -90.8 -15.85 -90.8
L -3.85 -92.75
Q 34.7 -97.6 59.9 -87.1 68.95 -83.25 75.15 -77.9
L 77.75 -75.2
Q 81.45 -94.5 80.75 -112.1 77.65 -112.5 74.8 -113.25 73.4 -107.3 71.35 -106.8 69.25 -106.35 67.7 -112.6 67.15 -114.85 66.75 -116.65 64.9 -117.05 63.1 -117.45 63.1 -117.2 63.15 -117 63.25 -115.9 62.6 -115.1 62 -114.35 61 -114.25 60.05 -114.2 59.25 -114.95 58.5 -115.7 58.4 -116.7
M 68.05 -108.25
Q 68.35 -106.8 67.4 -104.7 66.35 -102.5 67.5 -101.05 68.6 -99.65 67.55 -99.65 66.55 -99.6 65.7 -101.1 64.9 -102.45 64.7 -104.55 64.5 -106.65 65.1 -108.15 65.65 -109.6 66.65 -109.65 67.7 -109.7 68.05 -108.25
M -14.7 -102.4
Q -14.65 -101.5 -15.25 -100.8 -15.8 -100.1 -16.75 -100.1 -17.65 -100.05 -18.35 -100.65 -19 -101.25 -19.05 -102.15 -19.1 -103.1 -18.6 -103.8 -18.05 -104.4 -17.1 -104.45 -16.15 -104.5 -15.5 -103.9 -14.8 -103.3 -14.7 -102.4
M -60.5 -90.15
Q -58.45 -90.3 -56.9 -89 -55.25 -87.7 -55.1 -85.8 -54.95 -83.95 -56.7 -82.45 -58.35 -80.9 -61.45 -80.45 -64.5 -80.05 -64.8 -81.75 -65 -83.5 -65.15 -85.35 -65.35 -87.2 -63.95 -88.65 -62.6 -90.05 -60.5 -90.15
M -71.55 -83.3
Q -71.5 -82.45 -71.75 -81.65 -72.35 -81.95 -74.35 -81.9 -78.15 -81.75 -78.6 -83.05 -79.1 -84.45 -78.1 -85.65 -77.15 -86.8 -75.6 -86.9 -74.1 -86.95 -72.9 -85.85 -71.65 -84.8 -71.55 -83.3 Z"/>

<path fill="#FFFFFF" stroke="none" d="
M 74.85 -147.1
Q 70.7 -140.6 66 -139.65 56.1 -138.5 47.7 -142.3 47.5 -142.65 47.2 -142.9 -40.75 -158.5 -97.4 -97.2 -97.4 -97.15 -97.4 -97.05
L -99.55 -93.45
Q -99.55 -89.35 -98.95 -85.15 -85.35 -95.7 -70.6 -103.35 -70.6 -105.85 -67.7 -107.95 -64.55 -110.15 -59.8 -110.35 -58.15 -110.45 -56.55 -110.25 -53 -112.65 -48.15 -113.1 -42.35 -115.15 -36.4 -116.75 -37.35 -118 -37.9 -119.1 -41 -118.35 -41.95 -117.3 -43.05 -115.95 -44.9 -115.9 -46.7 -115.75 -51.8 -116.1 -56.95 -116.5 -54.35 -118.95 -51.75 -121.4 -45.15 -127.05 -38.55 -132.75 -36.95 -127.85 -36.95 -127.7 -36.85 -127.55 -35 -129.5 -32.2 -129.6 -29.25 -129.75 -26.95 -127.75 -24.6 -125.7 -24.35 -122.75 -24.2 -121.3 -24.35 -119.5 14.35 -127.25 58.75 -118.35 58.85 -118.45 58.9 -118.65 59.55 -119.4 60.5 -119.45 61.5 -119.5 62.3 -118.8 62.9 -118.15 63.1 -117.45 64.9 -117.05 66.75 -116.65 66.05 -119.85 65.9 -121.7 65.65 -124.5 66.95 -126.55 68.25 -128.55 70.3 -128.65 72.4 -128.7 74.05 -126.85 75.7 -124.95 75.95 -122.2 76.2 -119.35 74.8 -113.3
L 74.8 -113.25
Q 77.65 -112.5 80.75 -112.1 80.15 -130.5 74.85 -147.1
M 37.25 -152.5
Q 21.65 -166.2 9.45 -167.45 -66.15 -169.55 -95.9 -126.65 -98.55 -118.6 -98.8 -110.85 -42 -158.15 37.25 -152.5 Z"/>
</g>

<g id="Duplicate_Items_Folder_body_suit_0_Layer1_0_FILL">
<path fill="#F0E9B5" stroke="none" d="
M -15.6 -29.45
L -14.45 -36.05
Q -19.95 -31.8 -20.85 -29.45 -22.4 -25.55 -21.1 -21.15 -19.9 -16.75 -16.2 -14.45 -12.5 -12.2 -14.55 -8.55 -16.6 -4.9 -19.6 1.3 -22.6 7.45 -25.55 19.95 -28.5 32.35 -25.3 30.6
L -19.1 30.45 -15.75 34.3 -1.05 29.1
Q 0.8 6.15 -1.65 -18.4
L -1.8 -18.6 -7.75 -28.15 -15.6 -29.45
M -2.65 -6.8
Q -3.15 -6.1 -3.85 -6.15 -4.5 -6.15 -4.95 -6.9 -5.4 -7.65 -5.4 -8.65 -5.35 -9.6 -4.85 -10.3 -4.4 -11 -3.7 -11 -3 -10.95 -2.55 -10.2 -2.1 -9.45 -2.1 -8.45 -2.15 -7.5 -2.65 -6.8
M -4.6 10.75
Q -4.05 10 -3.3 10 -2.55 10.05 -2.05 10.85 -1.55 11.65 -1.6 12.75 -1.6 13.85 -2.15 14.55 -2.7 15.3 -3.45 15.25 -4.15 15.25 -4.65 14.45 -5.15 13.7 -5.15 12.6 -5.1 11.5 -4.6 10.75
M -9.25 28.95
Q -9.3 28.2 -8.95 27.6 -8.85 27.4 -8.75 27.25
L -8.8 30.1
Q -9.15 29.6 -9.25 28.95
M 12.75 -29.35
L 4.9 -28.2 -1.8 -18.6 -1.65 -18.4
Q 0.8 6.15 -1.05 29.1
L 1.9 35.5 7.6 28.85 15.05 34.8 17.4 29.95
Q 23.85 31.9 21.5 19.75 19.05 7.55 16 0.9 12.85 -5.8 10.3 -9.5 7.75 -13.2 11.5 -15.2 15.25 -17.25 16.45 -21.65 17.75 -26.05 16.2 -29.95 15.4 -32.05 13 -36
L 12.75 -29.35 Z"/>

<path fill="#E5E5E5" stroke="none" d="
M -8.95 27.6
Q -9.3 28.2 -9.25 28.95 -9.15 29.6 -8.8 30.1
L -8.75 27.25
Q -8.85 27.4 -8.95 27.6 Z"/>

<path fill="#CDC8A4" stroke="none" d="
M -3.3 10
Q -4.05 10 -4.6 10.75 -5.1 11.5 -5.15 12.6 -5.15 13.7 -4.65 14.45 -4.15 15.25 -3.45 15.25 -2.7 15.3 -2.15 14.55 -1.6 13.85 -1.6 12.75 -1.55 11.65 -2.05 10.85 -2.55 10.05 -3.3 10
M -3.85 -6.15
Q -3.15 -6.1 -2.65 -6.8 -2.15 -7.5 -2.1 -8.45 -2.1 -9.45 -2.55 -10.2 -3 -10.95 -3.7 -11 -4.4 -11 -4.85 -10.3 -5.35 -9.6 -5.4 -8.65 -5.4 -7.65 -4.95 -6.9 -4.5 -6.15 -3.85 -6.15 Z"/>

<path fill="#FFFFFF" stroke="none" d="
M 4.9 -28.2
L 12.75 -29.35 13 -36
Q 12.95 -46.05 6.5 -39.75
L -1.85 -18.7 -7.65 -39.65 -8.3 -40.45 -10.2 -44.45
Q -13.75 -44.65 -14.7 -38.1
L -14.45 -36.05 -15.6 -29.45 -7.75 -28.15 -1.8 -18.6 4.9 -28.2 Z"/>
</g>

<g id="Duplicate_Items_Folder_body_suit_0_Layer0_0_FILL">
<path fill="#CC0000" stroke="none" d="
M -7.95 29.1
Q -7.65 28.8 -7.65 28.35 -7.65 27.9 -7.9 27.55 -8.15 27.25 -8.55 27.2 -8.9 27.2 -9.2 27.5 -9.5 27.85 -9.5 28.3 -9.5 28.75 -9.25 29.05 -9 29.4 -8.6 29.4 -8.25 29.45 -7.95 29.1
M -13.85 22.35
Q -14.35 22.9 -14.4 23.7 -14.4 24.55 -13.9 25.1 -13.4 25.7 -12.65 25.7 -11.9 25.75 -11.35 25.2 -10.85 24.7 -10.8 23.85 -10.8 23.05 -11.35 22.45 -11.8 21.85 -12.55 21.8 -13.3 21.8 -13.85 22.35
M -7.85 4.7
Q -8.25 4.1 -8.75 4.05 -9.25 4.05 -9.6 4.6 -9.95 5.2 -10 6 -10 6.85 -9.7 7.4 -9.3 8 -8.8 8 -8.3 8.05 -7.9 7.5 -7.5 6.95 -7.5 6.15 -7.45 5.3 -7.85 4.7
M -6 0.7
Q -6.4 0.7 -6.7 1.15 -7 1.65 -7.05 2.4 -7.05 3.15 -6.75 3.65 -6.45 4.2 -6.05 4.2 -5.6 4.25 -5.3 3.75 -4.9 3.3 -4.9 2.55 -4.85 1.8 -5.2 1.25 -5.55 0.75 -6 0.7
M -10.25 -2.5
Q -10.55 -2 -10.6 -1.25 -10.6 -0.5 -10.3 0 -10 0.5 -9.55 0.5 -9.1 0.55 -8.8 0.05 -8.45 -0.4 -8.45 -1.15 -8.4 -1.9 -8.75 -2.45 -9 -2.95 -9.5 -3 -9.95 -3 -10.25 -2.5
M 8.2 16.7
Q 7.85 16.7 7.55 17.1 7.3 17.55 7.25 18.2 7.25 18.85 7.5 19.3 7.8 19.8 8.15 19.8 8.55 19.85 8.8 19.4 9.05 18.95 9.1 18.3 9.1 17.65 8.8 17.2 8.6 16.75 8.2 16.7
M 5.5 17.25
Q 5.55 15.9 5.1 14.9 4.65 13.95 3.95 13.9 3.3 13.85 2.8 14.8 2.35 15.75 2.3 17.1 2.25 18.45 2.7 19.4 3.15 20.4 3.8 20.45 4.45 20.5 4.95 19.55 5.45 18.6 5.5 17.25
M 3 -5.75
Q 2.05 -3.9 1.95 -1.3 1.9 1.35 2.8 3.25 3.5 4.9 4.6 5.15 4.7 6.05 4.95 6.8 5.6 8.75 6.55 8.8 7.55 8.85 8.25 6.95 9 5.1 9.05 2.4 9.1 -0.3 8.5 -2.3 8.2 -3.25 7.85 -3.75 7.65 -4.7 7.25 -5.5 6.45 -7.4 5.2 -7.5 3.95 -7.55 3 -5.75 Z"/>
</g>

<path id="Duplicate_Items_Folder_leg_suit_0_Layer1_0_1_STROKES" stroke="#000000" stroke-width="1.5" stroke-linejoin="round" stroke-linecap="round" fill="none" d="
M -1.65 -24.8
Q -1.65 -26.7 -1.4 -29 -0.9 -34.4 0.4 -42.05
L 7.9 -39.6 20.85 -45.5
Q 20.8 -32.25 16.45 -22.4 16.3 -22.15 16.2 -21.85 15.55 -20.45 14.8 -19.15 13.95 -17.55 12.95 -16.05
L 12.95 -15.95 12.3 -15
Q 14.45 -8.8 10.2 -3.1 9.3 1.15 7.55 6.3
M 7.5 6.3
Q 7.75 8.8 9.25 9.3 12.35 11.1 11.8 17.1
L 9.35 18.8 9.25 14.45
Q 2.05 25.4 -5.55 20.75 -8.05 17.15 -2.65 12.75 -1.45 11.1 -0.8 8.4
M -0.5 7.8
Q 0.85 -2.35 0.7 -6.95
L 0.65 -8
Q 0.15 -9.9 0 -10.15 -0.8 -11.05 -0.95 -12.8 -1.1 -13.9 -0.9 -15.3 -0.85 -16.3 -0.65 -17.4 -1.4 -18.65 -1.6 -21.35 -1.7 -22.85 -1.65 -24.8
M 12.95 -16.05
Q 12.7 -15.7 12.5 -15.4
L 12.5 -16 12.95 -16.05 Z"/>

<path id="arm_suit_copy_5_0_Layer1_0_1_STROKES" stroke="#000000" stroke-width="0.75" stroke-linejoin="round" stroke-linecap="round" fill="none" d="
M 26.1 2.45
L 25.95 2.3 25.95 2.2 25.8 2.3 5.2 17.05 5.15 17.1
Q 5.05 17.2 5.05 17.3
M 5.1 17.4
Q 4.95 17.5 4.9 17.6 4.85 17.65 4.8 17.65 4.65 17.8 4.65 17.85 2.25 18.25 -1.15 19.6 -4.65 21 -5.1 22.45 -5.4 22.8 -5.55 24.15 -5.75 25.4 -4.7 24.6 -3.6 23.75 -3.3 22.85 -3.05 21.95 2.15 21.7
L 1.9 21.95
Q 0.3 23.55 0.8 23.4 1.45 23.15 1.85 22.9
M 25.95 11.05
L 27.7 9.95 27.7 10.05 33.9 6.85 43.15 1.2
Q 43 1.3 39.85 -6.9
L 25.25 2.35
M 27.7 10.05
L 25.95 11.05 14.6 17.8 9.35 20.45 9.3 20.5
M 9.05 20.3
L 8.55 20.75 8.2 20.8
Q 6.2 21.55 6 22.2 6.05 23.75 2.6 24.85 2.2 24.85 2 25.1
L 1.85 25.1
Q 1.8 25.1 1.75 25.15 1.05 25.6 0.4 25.8 0.35 25.8 0.25 25.8 -0.65 25.75 -0.65 25.25
L -0.7 25.2
Q -0.75 24.75 -0.65 24.45 -0.65 24.25 1.9 21.95
M 9.35 20.45
L 9.05 20.3"/>

<path id="arm_suit_copy_5_0_Layer1_0_2_STROKES" stroke="#CC0000" stroke-width="0.75" stroke-linejoin="round" stroke-linecap="round" fill="none" d="
M 38.65 0.5
L 35.9 2.2 35.9 3.85
M 35.9 2.2
L 33.65 1.4
Q 34.15 4.5 31.85 4.55
M 30.3 2.5
Q 30.1 0.8 33.65 1.4
L 33.95 -0.1
M 38.05 -1.85
Q 35.55 -1.25 35.9 2.2"/>

<path id="arm_suit_copy_5_0_Layer0_0_1_STROKES" stroke="#000000" stroke-width="1.5" stroke-linejoin="round" stroke-linecap="round" fill="none" d="
M 41.95 -11.45
L 41.6 -11.85 37.65 -9.35
Q 40.65 -1.8 44.65 3.25 44.9 3.5 45.05 3.7
L 48.55 1.45 49.4 1.9
Q 44.3 -3.85 41.95 -11.45 42.4 -12.95 45 -15.05 47.45 -17.25 53.35 -17.25 59.15 -17.35 61.05 -16 62.9 -14.7 64.35 -11.4 65.7 -8.15 63.15 -6.3 60.6 -4.5 55.85 -0.9 51.15 2.6 49.75 2.05 49.5 1.95 49.4 1.9"/>

<path id="arm_suit_copy_3_0_Layer1_0_1_STROKES" stroke="#000000" stroke-width="0.75" stroke-linejoin="round" stroke-linecap="round" fill="none" d="
M 27.8 -9.05
L 32.05 -14.4 38.05 -23.2
Q 38 -23.05 32.45 -29.8
L 23.1 -15.55
M 23.45 -15.85
L 23.6 -16 23.65 -15.9 23.8 -15.8
M 26.65 -7.45
L 27.8 -9.05 27.75 -9.15 26.65 -7.45 15.55 7.65 15.5 7.7
M 15.25 7.6
L 14.95 8.2 14.65 8.35
Q 13.2 9.8 13.25 10.55 13.85 12.05 11.3 14.3 10.9 14.45 10.85 14.8
L 10.7 14.85
Q 10.65 14.85 10.6 14.9 10.2 15.6 9.7 16 9.6 16.05 9.5 16.1 8.8 16.4 8.55 15.9
L 8.5 15.9
Q 8.35 15.45 8.3 15.15 8.25 15 9.45 12.3
L 9.75 11.45
Q 5.4 13.6 5.5 14.55 5.55 15.5 4.9 16.7 4.25 17.85 3.95 16.6 3.65 15.25 3.8 14.8 3.65 13.25 6.2 10.65 8.7 8.1 10.6 6.85 10.55 6.8 10.7 6.65 10.7 6.6 10.75 6.55 10.75 6.45 10.85 6.3
M 10.75 6.2
Q 10.7 6.1 10.8 5.95
L 10.8 5.9 23.45 -15.85
M 15.55 7.65
L 15.25 7.6
M 9.45 12.3
Q 8.8 13.85 9.2 13.6 9.6 13.1 9.95 12.7"/>

<path id="arm_suit_copy_3_0_Layer1_0_2_STROKES" stroke="#CC0000" stroke-width="0.75" stroke-linejoin="round" stroke-linecap="round" fill="none" d="
M 34 -22.3
L 32.15 -19.55 32.7 -18
M 32.6 -24.25
Q 30.65 -22.75 32.15 -19.55
L 29.95 -19.55
Q 31.45 -16.75 29.45 -15.8
M 27.5 -17.25
Q 26.75 -18.85 29.95 -19.55
L 29.7 -21.1"/>

<path id="arm_suit_copy_3_0_Layer0_0_1_STROKES" stroke="#000000" stroke-width="1.5" stroke-linejoin="round" stroke-linecap="round" fill="none" d="
M 43.7 -24.8
Q 43.8 -24.8 44.05 -24.8 45.4 -24.75 48.25 -29.8 51.15 -35 52.75 -37.65 54.3 -40.4 52 -43.05 49.65 -45.7 47.6 -46.25 45.45 -46.9 40.5 -44.65 35.5 -42.55 34.1 -39.5 32.6 -36.55 32.7 -34.9 37.35 -28.45 43.7 -24.8
L 42.8 -24.95 40.55 -21.5
Q 40.35 -21.65 40.05 -21.75 34.9 -25.15 29.75 -31.3
L 32.3 -35.2 32.7 -34.9"/>

<path id="Duplicate_Items_Folder_head_copy_7_Layer4_0_1_STROKES" stroke="#000000" stroke-width="2" stroke-linejoin="round" stroke-linecap="round" fill="none" d="
M -18.25 36.25
Q -11.45 16.4 -13.55 -1.85
L -0.45 -1.8
Q -3.3 16 1.85 37.25"/>

<path id="Duplicate_Items_Folder_head_copy_7_Layer3_0_1_STROKES" stroke="#000000" stroke-width="3" stroke-linejoin="round" stroke-linecap="round" fill="none" d="
M 29.7 -76.65
Q 40.55 -67.4 41.75 -53.65 42.9 -39.8 33.75 -29.6 24.6 -19.35 10.4 -18.7 -3.75 -18 -14.65 -27.35 -25.5 -36.6 -26.75 -50.45 -27.9 -64.2 -18.7 -74.45 -9.5 -84.65 4.65 -85.35 18.85 -85.95 29.7 -76.65 Z"/>

<path id="eye_blink_14_Layer1_0_1_STROKES" stroke="#000000" stroke-width="1" stroke-linejoin="round" stroke-linecap="round" fill="none" d="
M 45.1 18.8
Q 41.1 10.35 33.15 8.35 25.2 6.45 17.95 12.05 10.65 17.65 8.4 27.5 6.1 37.4 10.15 45.85 14.2 54.25 22.1 56.2 30.1 58.2 37.3 52.6 44.6 46.95 46.85 37.1 49.15 27.2 45.1 18.8 Z
M 12.65 46.95
Q 15.85 53.35 22.1 54.9 28.4 56.5 33.95 52.3 39.6 48.2 41.35 40.7 43.05 33.25 39.85 26.85 36.7 20.5 30.4 18.9 24.2 17.35 18.55 21.5 13 25.7 11.25 33.2 9.5 40.65 12.65 46.95 Z
M 13.8 37.4
Q 12.5 43 14.65 47.6 16.85 52.3 21.25 53.4 25.65 54.5 29.7 51.35 33.7 48.25 34.95 42.65 36.25 37.1 34.05 32.4 31.85 27.75 27.45 26.65 23.05 25.5 19.05 28.65 15.05 31.85 13.8 37.4 Z"/>

<path id="Duplicate_Items_Folder_head_copy_7_Layer1_0_1_STROKES" stroke="#000000" stroke-width="3" stroke-linejoin="round" stroke-linecap="round" fill="none" d="
M 12.8 -99.7
Q 13.3 -99.7 13.75 -99.65 16.5 -99.55 19.25 -99.5 25.55 -99.85 31.5 -99.4 49.75 -98.05 64.1 -88.95 70.9 -84.65 76.8 -78.5
L 76.85 -78.55 76.85 -78.5
Q 80.75 -21.8 27 3.9 2.65 18.2 -29.6 13.8
L -30.5 14.6
Q -61.05 15.5 -74.25 -19.7 -74.25 -20.25 -74.25 -20.8 -82.25 -27.8 -81.45 -38.85 -81.49140625 -40.425 -81.4 -41.975 -81.3755859375 -42.28359375 -81.35 -42.6 -87.35 -49.6 -86.2 -56.95 -80.8 -64.65 -74.15 -71 -68 -76.9 -60.8 -81.6 -54.8 -85.55 -48 -88.65 -47.8 -88.95 -47.6 -89.35
M 76.8 -78.5
L 76.85 -78.5
M 66.45 -66.65
Q 67.6 -67.85 70.1 -71.15 72.8 -73.6 76.8 -78.5
M 34.75 -66.9
Q 35.75 -63 36.4 -58.85 37.6 -51.6 37.5 -43.65 56.95 -59.75 64.1 -88.95
M 13.9 -77.35
Q 17.05 -73.65 19.75 -69.85
M 34.75 -66.9
Q 31.45 -78.95 24.55 -88.95 19.25 -82.85 13.9 -77.35 10.2 -73.65 6.55 -70.25 2.35 -66.4 -1.9 -62.85 -1.7 -42.6 -15.45 -25.65 8.45 -25.1 31.25 -38 30.85 -41.8 30.05 -45.4 27.25 -58.8 19.75 -69.85
M 31.25 -38
Q 34.35 -39.8 37.55 -41.85 37.5 -42.75 37.5 -43.65
L 37.2 -42.9
M 27.7 -11.2
Q 28.3 -11.55 28.95 -11.95
M 45.4 -38
Q 37.2 -28.75 30.4 -25.05 18.95 -18.75 1.95 -16.55
M -10.45 -1.7
Q 9.2 -0.55 27.7 -11.2
M 37.55 -41.85
Q 52.25 -51.4 66.45 -66.65 54.95 -48.65 45.4 -38
M 28.95 -11.95
Q 41.05 -19.2 52.7 -31.65 65.3 -45.9 70.1 -71.15
M 24.55 -88.95
L 31.5 -99.4
M -15.75 -73.35
Q -23.85 -66.7 -32.35 -60.15
M -27.85 -50.3
Q -15.9 -60.95 -5.4 -71.9
M -15.75 -73.35
Q -0.6 -86.05 12.8 -99.7 -22.6 -100.4 -48 -88.65 -60.9 -68.5 -62.8 -46.2
L -57.35 -42.6
Q -44.35 -51.15 -32.35 -60.15
M -60.8 -81.6
Q -66.5 -72.6 -69.8 -60.5 -71.95 -41.65 -67 -23.1 -57.8 5.3 -35.85 7.6 -36.85 6.55 -35.45 7.65 -46.95 -6.95 -53.6 -17.9 -58.25 -25.4 -60.6 -31.25 -62.05 -34.9 -63.25 -38.75
L -62.8 -39.1
Q -62.95 -39.2 -63.1 -39.3 -63.05 -42.8 -62.8 -46.2
M -57.35 -42.6
L -50.65 -38.1
Q -39.75 -44.3 -27.85 -50.3
M -1.9 -62.85
Q -15.3 -51.8 -29.3 -44.4
M -47.5 -32.1
Q -50.6 -33.25 -53.6 -34.65 -58.2 -36.65 -62.8 -39.1
M -47.45 -32.05
Q -47.5 -32.05 -47.5 -32.1
M -45.9 -31.5
Q -41.3 -29.85 -36.65 -28.65
L -48.05 -36.3 -50.65 -38.1
M -74.25 -20.8
L -73 -17.8
M -36.65 -28.65
Q -26 -25.85 -15.45 -25.65
M -69.8 -60.5
Q -74.35 -43.65 -74.25 -20.8
M -29.3 -44.4
Q -38.6 -39.55 -48.05 -36.3
M 1.95 -16.55
Q -2.3 -16 -6.95 -15.7 -29.95 -14.3 -60.6 -31.25
M -74.15 -71
Q -80.7 -56 -81.35 -42.6
M -35.45 7.65
Q -35.65 7.65 -35.85 7.6 -34.7 8.95 -29.6 13.8
M -53.6 -17.9
Q -19.35 13.8 27 3.9
M -5.4 -71.9
Q 7.3 -85.3 13.75 -99.65"/>

<path id="Duplicate_Items_Folder_head_copy_7_Layer0_0_1_STROKES" stroke="#000000" stroke-width="3" stroke-linejoin="round" stroke-linecap="round" fill="none" d="
M -98.8 -110.85
Q -98.55 -118.6 -95.9 -126.65 -66.15 -169.55 9.45 -167.45 21.65 -166.2 37.25 -152.5 42.05 -148.25 47.2 -142.9 47.5 -142.65 47.7 -142.3 56.1 -138.5 66 -139.65 70.7 -140.6 74.85 -147.1 80.15 -130.5 80.75 -112.1 81.45 -94.5 77.75 -75.2
L 75.15 -77.9
Q 68.95 -83.25 59.9 -87.1 34.7 -97.6 -3.85 -92.75
L -15.85 -90.8
Q -15.95 -90.8 -16.1 -90.75 -23.2 -89.4 -37.4 -84.75 -83.85 -69.5 -81.6 -35 -81.95 -34.9 -82.25 -34.8 -91.55 -50.35 -94.5 -66.9
L -95.6 -69.2
M -98.95 -85.15
Q -97.95 -76.85 -94.95 -68.7 -95.05 -68.3 -94.5 -66.9
M -97.4 -97.2
Q -97.4 -97.15 -97.4 -97.05
L -99.55 -93.45
Q -99.55 -89.35 -98.95 -85.15
M -97.4 -97.2
Q -97.55 -97.05 -97.65 -96.95 -97.6 -97.65 -97.4 -97.2 Z
M -97.65 -96.95
Q -99.15 -103.75 -98.8 -110.85
M -97.4 -97.2
Q -40.75 -158.5 47.2 -142.9"/>

<path id="Duplicate_Items_Folder_body_suit_0_Layer1_0_1_STROKES" stroke="#000000" stroke-width="1.5" stroke-linejoin="round" stroke-linecap="round" fill="none" d="
M 13 -36
L 12.75 -29.35 4.9 -28.2 -1.8 -18.6 -1.65 -18.4
Q 0.8 6.15 -1.05 29.1
L 1.9 35.5 7.6 28.85 15.05 34.8 17.4 29.95
Q 23.85 31.9 21.5 19.75 19.05 7.55 16 0.9 12.85 -5.8 10.3 -9.5 7.75 -13.2 11.5 -15.2 15.25 -17.25 16.45 -21.65 17.75 -26.05 16.2 -29.95 15.4 -32.05 13 -36 12.95 -46.05 6.5 -39.75
L -1.85 -18.7 -7.65 -39.65 -8.3 -40.45 -10.2 -44.45
Q -13.75 -44.65 -14.7 -38.1
L -14.45 -36.05 -15.6 -29.45 -7.75 -28.15 -1.8 -18.6
M -8.3 -40.45
Q -8.2 -40.55 -8.1 -40.6
L -7.65 -39.65
M -2.65 -6.8
Q -3.15 -6.1 -3.85 -6.15 -4.5 -6.15 -4.95 -6.9 -5.4 -7.65 -5.4 -8.65 -5.35 -9.6 -4.85 -10.3 -4.4 -11 -3.7 -11 -3 -10.95 -2.55 -10.2 -2.1 -9.45 -2.1 -8.45 -2.15 -7.5 -2.65 -6.8 Z
M -1.05 29.1
L -15.75 34.3 -19.1 30.45 -25.3 30.6
Q -28.5 32.35 -25.55 19.95 -22.6 7.45 -19.6 1.3 -16.6 -4.9 -14.55 -8.55 -12.5 -12.2 -16.2 -14.45 -19.9 -16.75 -21.1 -21.15 -22.4 -25.55 -20.85 -29.45 -19.95 -31.8 -14.45 -36.05
M -3.3 10
Q -2.55 10.05 -2.05 10.85 -1.55 11.65 -1.6 12.75 -1.6 13.85 -2.15 14.55 -2.7 15.3 -3.45 15.25 -4.15 15.25 -4.65 14.45 -5.15 13.7 -5.15 12.6 -5.1 11.5 -4.6 10.75 -4.05 10 -3.3 10 Z"/>
</defs>

<g transform="matrix( 5.0972900390625, 0, 0, 5.0972900390625, 69.05,544.15) ">
<g transform="matrix( 0.3332366943359375, 0.01171875, -0.01171875, 0.3332366943359375, 34.25,-9.2) ">
<g transform="matrix( 1, 0, 0, 1, 0,0) ">
<use xlink:href="#Duplicate_Items_Folder_leg_suit_0_Layer1_0_FILL"/>

<use xlink:href="#Duplicate_Items_Folder_leg_suit_0_Layer1_0_1_STROKES"/>
</g>
</g>

<g transform="matrix( -0.357177734375, 0.023284912109375, 0.023284912109375, 0.357177734375, 50,-9.2) ">
<g transform="matrix( 1, 0, 0, 1, 0,0) ">
<use xlink:href="#Duplicate_Items_Folder_leg_suit_0_Layer1_0_FILL"/>

<use xlink:href="#Duplicate_Items_Folder_leg_suit_0_Layer1_0_1_STROKES"/>
</g>
</g>

<g transform="matrix( -0.2031097412109375, -0.2498779296875, -0.2498779296875, 0.2031097412109375, 56.85,-25.8) ">
<g transform="matrix( 1, 0, 0, 1, 0,0) ">
<use xlink:href="#arm_suit_copy_5_0_Layer1_0_FILL"/>

<use xlink:href="#arm_suit_copy_5_0_Layer1_0_1_STROKES"/>

<use xlink:href="#arm_suit_copy_5_0_Layer1_0_2_STROKES"/>
</g>

<g transform="matrix( 1, 0, 0, 1, 0,0) ">
<use xlink:href="#arm_suit_copy_5_0_Layer0_0_FILL"/>

<use xlink:href="#arm_suit_copy_5_0_Layer0_0_1_STROKES"/>
</g>
</g>

<g transform="matrix( 0.29205322265625, -0.1602783203125, 0.1697998046875, 0.3094482421875, 27.9,-22.25) ">
<g transform="matrix( 1, 0, 0, 1, 0,0) ">
<use xlink:href="#arm_suit_copy_3_0_Layer1_0_FILL"/>

<use xlink:href="#arm_suit_copy_3_0_Layer1_0_1_STROKES"/>

<use xlink:href="#arm_suit_copy_3_0_Layer1_0_2_STROKES"/>
</g>

<g transform="matrix( 1, 0, 0, 1, 0,0) ">
<use xlink:href="#arm_suit_copy_3_0_Layer0_0_FILL"/>

<use xlink:href="#arm_suit_copy_3_0_Layer0_0_1_STROKES"/>
</g>
</g>

<g transform="matrix( 0.2920379638671875, -0.0156402587890625, 0.004180908203125, 0.292205810546875, 43.75,-55.7) ">
<g transform="matrix( 1, 0, 0, 1, 0,0) ">
<use xlink:href="#Duplicate_Items_Folder_head_copy_7_Layer4_0_FILL"/>

<use xlink:href="#Duplicate_Items_Folder_head_copy_7_Layer4_0_1_STROKES"/>
</g>

<g transform="matrix( 1, 0, 0, 1, 0,0) ">
<use xlink:href="#Duplicate_Items_Folder_head_copy_7_Layer3_0_FILL"/>

<use xlink:href="#Duplicate_Items_Folder_head_copy_7_Layer3_0_1_STROKES"/>
</g>

<g transform="matrix( -0.86480712890625, 0.083770751953125, 0.038970947265625, 0.7722015380859375, 33.25,-76.55) ">
<g transform="matrix( 1, 0, 0, 1, 0,0) ">
<use xlink:href="#eye_blink_14_Layer1_0_FILL"/>

<use xlink:href="#eye_blink_14_Layer1_0_1_STROKES"/>
</g>
</g>

<g transform="matrix( 1, 0, 0, 1, 0,0) ">
<use xlink:href="#Duplicate_Items_Folder_head_copy_7_Layer1_0_FILL"/>

<use xlink:href="#Duplicate_Items_Folder_head_copy_7_Layer1_0_1_STROKES"/>
</g>

<g transform="matrix( 1, 0, 0, 1, 0,0) ">
<use xlink:href="#Duplicate_Items_Folder_head_copy_7_Layer0_0_FILL"/>

<use xlink:href="#Duplicate_Items_Folder_head_copy_7_Layer0_0_1_STROKES"/>
</g>
</g>

<g transform="matrix( 0.358154296875, -0.014923095703125, 0.0105133056640625, 0.357696533203125, 42.35,-31.15) ">
<g transform="matrix( 1, 0, 0, 1, 0,0) ">
<use xlink:href="#Duplicate_Items_Folder_body_suit_0_Layer1_0_FILL"/>

<use xlink:href="#Duplicate_Items_Folder_body_suit_0_Layer1_0_1_STROKES"/>
</g>

<g transform="matrix( 1, 0, 0, 1, 0,0) ">
<use xlink:href="#Duplicate_Items_Folder_body_suit_0_Layer0_0_FILL"/>
</g>
</g>
</g>
</svg>
