
<svg xmlns="http://www.w3.org/2000/svg" version="1.1" xmlns:xlink="http://www.w3.org/1999/xlink" preserveAspectRatio="none" x="0px" y="0px" width="560px" height="544px" viewBox="0 0 560 544">
<defs>
<g id="leaf_2_0_Layer0_0_FILL">
<path fill="#000000" stroke="none" d="
M 44.9 1.9
Q 43.65 0.2 40.55 0.35 40.5 0.35 40.45 0.35 37.35 0.75 35.25 0.95 34.6 1 33.95 1.05 30.95 1.15 28.2 0.55 20.4 -1.1 18.3 2.25 18.25 2.3 18.2 2.4 17.4 3.75 16.8 4.5
L 16.8 4.55
Q 15.85 5.55 14.25 6
L 14.3 6
Q 12.45 6.5 10.3 6.55 7.9 6.5 6.95 6.55
L 6.9 6.55
Q 2.9 6.7 0.7 11.6 -1.45 16 3.15 30.5 5.25 37.3 7.8 43.3 7.7 43.8 7.95 44.25 8.25 44.8 8.8 44.95
L 28.1 50.35
Q 28.5 50.45 28.95 50.35 29.35 50.2 29.65 49.9 29.9 49.55 29.95 49.1
L 31.8 32.1 31.85 32.8
Q 31.9 33.3 32.2 33.65 32.5 34 33 34.1
L 43.25 36.5
Q 43.6 36.6 44 36.5
L 55.45 32.9
Q 55.9 32.75 56.2 32.35 56.45 31.95 56.45 31.45 56.45 30.95 56.15 30.6 53.65 27.55 51.2 23.1
L 51.15 23.1
Q 46.25 14.5 46.2 8 46.2 3.5 44.95 1.95
L 44.9 1.9
M 40.8 3.25
Q 42 3.2 42.6 3.7 43.3 4.8 43.3 8 43.25 15.1 48.65 24.55
L 48.65 24.5
Q 50.6 28.05 52.6 30.75
L 43.5 33.6 38.35 32.15
Q 31.45 30.15 33.55 15.7 33.5 15.2 33.25 9.8 33.2 9.45 33.2 9.1 33.2 9 33.2 8.9
L 33.15 8.9
Q 33.1 8.9 33.05 8.95 32.65 9.25 31.75 12 30.75 15.05 31.15 10.45
L 27.25 47.1 10.55 42.45 10.55 42.4
Q 8 36.45 5.9 29.65
L 5.9 29.6
Q 1.75 16.7 3.35 12.8 4.7 9.75 7.1 9.45 8 9.4 10.3 9.45
L 10.35 9.45
Q 12.85 9.4 15.05 8.8 17.6 8.05 19 6.4
L 19.05 6.4
Q 19.7 5.55 20.65 3.95 22.2 2.2 27.6 3.4 30.5 4 33.65 3.95 34.55 3.9 35.45 3.85
L 35.5 3.85
Q 37.65 3.65 40.8 3.25 Z"/>

<path fill="#02A23E" stroke="none" d="
M 33.15 8.9
L 33.2 8.9
Q 33.2 9 33.2 9.1
L 33.65 3.95
Q 30.5 4 27.6 3.4 22.2 2.2 20.65 3.95 19.7 5.55 19.05 6.4
L 19 6.4
Q 17.6 8.05 15.05 8.8 12.85 9.4 10.35 9.45
L 10.3 9.45
Q 8 9.4 7.1 9.45 4.7 9.75 3.35 12.8 1.75 16.7 5.9 29.6
L 5.9 29.65
Q 8 36.45 10.55 42.4
L 10.55 42.45 27.25 47.1 31.15 10.45
Q 30.75 15.05 31.75 12 32.65 9.25 33.05 8.95 33.1 8.9 33.15 8.9 Z"/>

<path fill="#028629" stroke="none" d="
M 42.6 3.7
Q 42 3.2 40.8 3.25 37.65 3.65 35.5 3.85
L 35.45 3.85
Q 34.55 3.9 33.65 3.95
L 33.2 9.1
Q 33.2 9.45 33.25 9.8 33.5 15.2 33.55 15.7 31.45 30.15 38.35 32.15
L 43.5 33.6 52.6 30.75
Q 50.6 28.05 48.65 24.5
L 48.65 24.55
Q 43.25 15.1 43.3 8 43.3 4.8 42.6 3.7 Z"/>
</g>

<g id="leaf_3_0_Layer0_0_FILL">
<path fill="#000000" stroke="none" d="
M 97.95 10.35
Q 98.45 7.4 97.4 4.7 95.35 -1.1 87.25 0.25
L 87.2 0.25
Q 79 1.6 77.1 1.8 74.8 2 68.75 2 60.4 2 57.1 2.3 51.1 2.8 47.65 4.55 44.6 6.1 39.75 8.85
L 35.9 11.05
Q 35.8 10.55 35.4 10.2 35 9.85 34.45 9.85
L 26 9.85
Q 25.45 9.85 25.05 10.2
L 16 18.05
Q 15.7 18.3 15.6 18.7
L 12.05 28.7 2.55 41.75
Q 2.35 42 2.3 42.3
L 0.6 49.65
Q 0.55 49.65 0.6 49.7 -0.9 58.35 1.25 62 2.7 64.7 8.25 76.55
L 8.25 76.6
Q 14.2 88.3 18.5 91.4 20.1 92.55 21.5 92.25 22.9 92.1 24.05 90.55 25.6 88.35 26.45 82.35 26.45 82.3 26.45 82.25 27.45 69 28.05 65.75 29.1 59.75 31.7 51.9 33.75 45.6 35.65 41.75 40.35 40.55 44.7 38.55 52.15 35.1 55.9 33.6 61.95 31.15 67.95 29.55 77 27.15 91.5 22.35 91.8 22.2 92.1 22
L 97.25 16.85
Q 97.65 16.4 97.65 15.85 97.65 15.2 97.25 14.8 97 14.5 96.65 14.45 96.6 14.3 96.55 14.2 98.45 12.4 97.95 10.45 97.90078125 10.40078125 97.95 10.4 97.90078125 10.39921875 97.95 10.35
M 95.1 10.4
Q 95 10.65 95.1 10.95 95.05 11.7 94.05 12.5 93.3 13.1 92.05 13.7
L 88.2 15.7 85.8 13.65
Q 85.4 13.4 84.95 13.45 78.35 14.05 71.8 14.05 67.8 14 60.7 17.15 52.3 20.8 50.35 21.35 45.65 22.55 41.45 27.8 39.15 30.65 35.05 37.05
L 35.1 37
Q 34.4 37.95 33.7 39.2
L 33.7 39.25
Q 32.9 40.65 32.15 42.45 30.55 45.95 28.95 51 26.3 59.05 25.2 65.25 24.55 68.6 23.55 82.05
L 23.6 81.95
Q 22.9 87 21.65 88.85 21.35 89.25 21.05 89.4 20.7 89.35 20.2 89.05 16.35 86.1 10.9 75.35 10.85 75.35 10.85 75.3 5.3 63.3 3.8 60.6 2.2 57.55 3.45 50.2
L 3.45 50.3 5.1 43.2 14.55 30.2
Q 14.65 30 14.75 29.85
L 18.2 20 26.55 12.75 33.55 12.75 34.2 12.75 31.3 16.45 23.65 26.05 23.6 26.2
Q 23.25 26.7 23.4 27.25 23.5 27.8 24 28.15 24.45 28.45 25 28.4 25.6 28.3 25.95 27.85
L 37.3 13.6 41.2 11.35 41.15 11.4
Q 45.9 8.7 48.95 7.15 52 5.6 57.35 5.2 60.6 4.9 68.75 4.9 75 4.9 77.35 4.7 79.25 4.5 87.7 3.1 93.15 2.2 94.7 5.75 95.45 7.7 95.1 9.85 95 10.15 95.1 10.4
M 84.7 16.4
L 87.3 17.95
Q 87.6 18.1 87.9 18.15 88.2 18.2 88.55 18.1
L 92.05 17.9 90.3 19.7
Q 76.1 24.4 67.2 26.75 61.05 28.35 54.8 30.9 51.05 32.4 43.5 35.9 40.75 37.15 37.85 38.1 41.55 32.25 43.7 29.6
L 43.7 29.65
Q 47.25 25.25 51.1 24.15 53.1 23.6 61.85 19.8 68.2 17 71.8 16.95 78.25 16.95 84.7 16.4
M 93.15 16.35
Q 93.65 16.1 94.1 15.9
L 93.45 16.55 93.15 16.35
M 35 11.75
Q 35 11.8 34.95 11.85
L 34.85 12 35 11.75 Z"/>

<path fill="#057F2A" stroke="none" d="
M 94.1 15.9
Q 93.65 16.1 93.15 16.35
L 93.45 16.55 94.1 15.9
M 87.3 17.95
L 84.7 16.4
Q 78.25 16.95 71.8 16.95 68.2 17 61.85 19.8 53.1 23.6 51.1 24.15 47.25 25.25 43.7 29.65
L 43.7 29.6
Q 41.55 32.25 37.85 38.1 40.75 37.15 43.5 35.9 51.05 32.4 54.8 30.9 61.05 28.35 67.2 26.75 76.1 24.4 90.3 19.7
L 92.05 17.9 88.55 18.1
Q 88.2 18.2 87.9 18.15 87.6 18.1 87.3 17.95 Z"/>

<path fill="#00A23D" stroke="none" d="
M 95.1 10.95
Q 95 10.65 95.1 10.4 95 10.15 95.1 9.85 95.45 7.7 94.7 5.75 93.15 2.2 87.7 3.1 79.25 4.5 77.35 4.7 75 4.9 68.75 4.9 60.6 4.9 57.35 5.2 52 5.6 48.95 7.15 45.9 8.7 41.15 11.4
L 41.2 11.35 37.3 13.6 25.95 27.85
Q 25.6 28.3 25 28.4 24.45 28.45 24 28.15 23.5 27.8 23.4 27.25 23.25 26.7 23.6 26.2
L 23.65 26.05 31.3 16.45 33.55 12.75 26.55 12.75 18.2 20 14.75 29.85
Q 14.65 30 14.55 30.2
L 5.1 43.2 3.45 50.3 3.45 50.2
Q 2.2 57.55 3.8 60.6 5.3 63.3 10.85 75.3 10.85 75.35 10.9 75.35 16.35 86.1 20.2 89.05 20.7 89.35 21.05 89.4 21.35 89.25 21.65 88.85 22.9 87 23.6 81.95
L 23.55 82.05
Q 24.55 68.6 25.2 65.25 26.3 59.05 28.95 51 30.55 45.95 32.15 42.45 32.9 40.65 33.7 39.25
L 33.7 39.2
Q 34.4 37.95 35.1 37
L 35.05 37.05
Q 39.15 30.65 41.45 27.8 45.65 22.55 50.35 21.35 52.3 20.8 60.7 17.15 67.8 14 71.8 14.05 78.35 14.05 84.95 13.45 85.4 13.4 85.8 13.65
L 88.2 15.7 92.05 13.7
Q 93.3 13.1 94.05 12.5 95.05 11.7 95.1 10.95 Z"/>
</g>

<g id="leaf1_0_Layer0_0_FILL">
<path fill="#000000" stroke="none" d="
M 93.85 23.45
Q 92 21.85 89.75 19.9
L 79.9 11.8
Q 79.85 11.75 79.8 11.75
L 75.55 8.75
Q 75.5 8.7 75.45 8.7 72.55 6.9 68.25 6.15 59.7 4.65 52.8 9.95
L 52.75 9.95
Q 47.65 13.95 40.5 20.3
L 40.6 20.2
Q 35.25 24 28.6 22.95 25.05 22.35 20.8 22.45
L 20.75 22.45
Q 16.15 22.6 15.8 22.55
L 15.75 22.55
Q 14.7 22.45 14.35 22.05
L 14.35 22
Q 13.95 20.95 14.65 18.1 16.1 12.15 18.25 7.2
L 20.05 3.3
Q 20.2 2.9 20.15 2.45 20.05 1.95 19.7 1.65 19.35 1.3 18.9 1.25
L 9.25 0
Q 8.7 -0.05 8.3 0.25 -1.8 6.7 0.4 18.05
L 4.05 37.9
Q 4.1 38.2 4.3 38.45 4.5 38.7 4.8 38.9
L 15.85 44.75 24.05 59.4
Q 24.1 59.5 24.2 59.65
L 25.05 60.7
Q 25.05 60.75 25.15 60.8 26.45 62.1 28.1 62.9
L 28.1 62.85
Q 33.15 65.4 38.85 61.05 41.5 59.05 46.7 54.6 50.25 51.55 55.7 47.85 58.8 45.75 60.85 43.3 60.9 43.25 60.95 43.2 62.4 41.2 63 40.65 63 40.6 63.05 40.55 63.6 40.05 64.45 40.1
L 64.5 40.1
Q 66.1 40.2 70.1 41.45 83.05 45.5 84.4 45.9
L 84.45 45.9
Q 91.35 47.65 93.55 46.1 96.65 44.3 99.4 40.3 102.95 35.05 101.35 31.65 100.5 29.45 93.9 23.5
L 93.85 23.45
M 87.85 22.1
L 87.9 22.15
Q 89.5 23.55 90.95 24.8 91.45 25.2 91.95 25.65 97.8 30.95 98.7 32.8 99.45 35.05 97 38.65 94.65 42 92.05 43.6
L 92.05 43.65
Q 90.35 44.45 85.15 43.1
L 85.2 43.1
Q 83.85 42.7 70.95 38.7 66.5 37.3 64.65 37.2 62.35 37.05 61.05 38.5 61 38.5 60.95 38.55 60.25 39.25 58.65 41.4 56.8 43.55 54.05 45.45 48.45 49.25 44.8 52.4 39.7 56.75 37.1 58.75 32.95 61.9 29.35 60.25
L 29.3 60.25
Q 28.2 59.7 27.3 58.85
L 26.5 57.9 18.2 42.95
Q 17.95 42.6 17.6 42.4
L 6.75 36.65 3.25 17.5
Q 1.45 8.35 9.4 3
L 11.5 3.25 16.55 3.9 15.6 6 15.6 6.05
Q 13.4 11.25 11.85 17.4 10.85 21.5 11.65 23.15 12.3 25.15 15.5 25.45 16.1 25.5 20.85 25.35 24.85 25.25 28.15 25.8 35.95 27 42.3 22.55 42.35 22.5 42.4 22.45 49.45 16.15 54.55 12.25 60.4 7.75 67.75 9 71.45 9.6 73.95 11.15
L 73.85 11.1 78.05 14.05 87.85 22.1 Z"/>

<path fill="#018F2C" stroke="none" d="
M 98.7 32.8
Q 97.8 30.95 91.95 25.65 91.45 25.2 90.95 24.8 72.4 9.45 52.05 29.05 45.3 39.7 29.6 41.8
L 12.65 35.8
Q 8.25 28.3 6.75 19.55
L 11.5 3.25 9.4 3
Q 1.45 8.35 3.25 17.5
L 6.75 36.65 17.6 42.4
Q 17.95 42.6 18.2 42.95
L 26.5 57.9 27.3 58.85
Q 28.2 59.7 29.3 60.25
L 29.35 60.25
Q 32.95 61.9 37.1 58.75 39.7 56.75 44.8 52.4 48.45 49.25 54.05 45.45 56.8 43.55 58.65 41.4 60.25 39.25 60.95 38.55 61 38.5 61.05 38.5 62.35 37.05 64.65 37.2 66.5 37.3 70.95 38.7 83.85 42.7 85.2 43.1
L 85.15 43.1
Q 90.35 44.45 92.05 43.65
L 92.05 43.6
Q 94.65 42 97 38.65 99.45 35.05 98.7 32.8 Z"/>

<path fill="#00DC49" stroke="none" d="
M 87.9 22.15
L 87.85 22.1 78.05 14.05 73.85 11.1 73.95 11.15
Q 71.45 9.6 67.75 9 60.4 7.75 54.55 12.25 49.45 16.15 42.4 22.45 42.35 22.5 42.3 22.55 35.95 27 28.15 25.8 24.85 25.25 20.85 25.35 16.1 25.5 15.5 25.45 12.3 25.15 11.65 23.15 10.85 21.5 11.85 17.4 13.4 11.25 15.6 6.05
L 15.6 6 16.55 3.9 11.5 3.25 6.75 19.55
Q 8.25 28.3 12.65 35.8
L 29.6 41.8
Q 45.3 39.7 52.05 29.05 72.4 9.45 90.95 24.8 89.5 23.55 87.9 22.15 Z"/>
</g>

<g id="Duplicate_Items_Folder_stem_0_Layer0_0_FILL">
<path fill="#000000" stroke="none" d="
M 68 0.95
Q 67.6 0.6 67.15 0.6
L 52.1 0
Q 51.65 0 51.3 0.25 43.35 5.1 39.05 8.8 36.5 10.85 24.35 12.55
L 24.4 12.5 12.15 13.85
Q 11.7 13.9 11.4 14.2
L 0.55 23.25
Q 0.15 23.55 0.05 24 -0.05 24.4 0.1 24.85
L 4.65 37.2 4.65 37.15
Q 9 50.4 9.05 56.25 9.05 61.05 8.45 77.15
L 8.45 77.2
Q 8.15 92.35 9.7 97.65 10.8 101.75 8.45 129 5.95 157.35 7.3 162.65 8.8 169.25 22.8 185.4 29.9 193.55 38.9 203 40.7 205.6 36.7 221.45 33.1 235.55 29 245.5 26.35 251.95 23.15 263.7 21.6 269.5 20.55 274.05 20.45 274.45 20.6 274.9 20.75 275.3 21.15 275.55 21.55 275.8 22 275.8 22.45 275.8 22.8 275.55
L 23.2 275.3
Q 23.85 275.25 25 275.7 25.65 276.05 30.3 278.5 32.9 279.85 36.15 281.3 39.3 282.7 43.1 284.15 49.5 286.6 53.05 286.25 54.6 286.1 55.65 285.4 57.05 284.5 58.4 282.2 58.4 282.15 58.4 282.1 59.65 279.55 60.55 278.1 62.7 274.6 62.4 269.05 62.05 261.35 63.15 254.75 64.6 246.15 65.7 234.75 67.2 219.8 67.35 218.55 68.4 210.5 66.05 200.8
L 66.05 200.75
Q 63.4 189.85 58.45 185.9 54.95 183.05 46.3 177.7 36.3 171.45 31.2 167.8 25.45 163.65 24.9 159 24.8 156.25 24.7 154.8 24.45 151.9 23.25 149.6
L 23.25 149.55
Q 21.15 145.5 21.9 133.4
L 21.9 133.35
Q 23.4 118.2 24 111.85 24.8 103.3 24.7 94.1 24.6 88.05 24 79.05 23.4 70 22.95 65.55 22.2 58.05 20.95 52.35 19.8 47.1 19.35 40.05
L 19.2 35.1 27.15 32.95 45.8 30.05 60.45 37.7
Q 60.9 37.9 61.4 37.85 61.9 37.7 62.25 37.35 62.55 36.9 62.55 36.4
L 62.55 18 68.45 2.6
Q 68.6 2.15 68.5 1.7 68.35 1.2 68 0.95
M 65.05 3.45
L 60.75 14.6 59.75 17.2
Q 59.65 17.45 59.65 17.7
L 59.65 34.05 46.75 27.3
Q 46.3 27.05 45.85 27.15
L 26.55 30.15
Q 26.45 30.15 26.35 30.15
L 24 30.8 17.3 32.6
Q 16.8 32.75 16.55 33.15 16.25 33.55 16.25 34.05
L 16.45 40.25
Q 16.9 47.55 18.1 52.95
L 18.1 53
Q 19.3 58.55 20.05 65.85 20.5 70.3 21.1 79.25 21.7 88.15 21.8 94.15 21.9 103.2 21.1 111.6 20.5 117.9 19 133.1
L 19 133.15
Q 18.15 146.5 20.7 150.95 21.65 152.7 21.8 155 21.9 156.45 22 159.2 22 159.25 22 159.3 22.45 165.05 29.5 170.15 34.6 173.85 44.75 180.15 53.15 185.35 56.6 188.15 56.7 188.2 56.8 188.35 60.95 192 63.25 201.45 65.4 210.6 64.45 218.2 64.3 219.5 62.8 234.45 61.7 245.75 60.3 254.25
L 60.3 254.3
Q 59.15 261.15 59.5 269.2 59.7 273.7 58.05 276.6 57.15 278.1 55.85 280.75 55.8 280.75 55.8 280.8 54.95 282.3 54.05 282.95
L 54.1 282.95
Q 53.65 283.15 53.15 283.25 50.35 283.85 44.15 281.45 40.05 279.9 36.75 278.4 33.95 277.15 31.65 275.95 26.3 273.1 26.2 273.05 26.15 273 26.1 273 24.85 272.5 23.9 272.4 24.8 268.75 25.95 264.45 29.05 252.95 31.7 246.6 35.9 236.45 39.5 222.15 44.1 204.1 41.1 201.1 41.05 201.1 41.05 201.05 32.1 191.65 25 183.5 11.7 168.15 10.1 161.95 8.95 156.85 11.35 129.25 13.8 101.05 12.5 96.85 11.05 91.75 11.35 77.25 11.95 61.05 11.95 56.25 12 50.1 7.4 36.25
L 7.35 36.2 3.15 24.85 12.9 16.7 24.7 15.4 24.75 15.4
Q 29.1 14.8 33.65 14.7 39.1 12.7 40.95 11 45 7.5 52.4 2.95
L 65.05 3.45 Z"/>

<path fill="#02641F" stroke="none" d="
M 62.8 234.45
Q 64.3 219.5 64.45 218.2 65.4 210.6 63.25 201.45 60.95 192 56.8 188.35 61.3 235.8 53.15 283.25 53.65 283.15 54.1 282.95
L 54.05 282.95
Q 54.95 282.3 55.8 280.8 55.8 280.75 55.85 280.75 57.15 278.1 58.05 276.6 59.7 273.7 59.5 269.2 59.15 261.15 60.3 254.3
L 60.3 254.25
Q 61.7 245.75 62.8 234.45
M 59.65 17.7
Q 59.65 17.45 59.75 17.2
L 60.75 14.6
Q 46.4 14.6 24 30.8
L 26.35 30.15
Q 26.45 30.15 26.55 30.15
L 45.85 27.15
Q 46.3 27.05 46.75 27.3
L 59.65 34.05 59.65 17.7 Z"/>

<path fill="#02A23E" stroke="none" d="
M 33.65 14.7
Q 29.1 14.8 24.75 15.4
L 24.7 15.4 12.9 16.7 3.15 24.85 7.35 36.2 7.4 36.25
Q 12 50.1 11.95 56.25 11.95 61.05 11.35 77.25 11.05 91.75 12.5 96.85 13.8 101.05 11.35 129.25 8.95 156.85 10.1 161.95 11.7 168.15 25 183.5 32.1 191.65 41.05 201.05 41.05 201.1 41.1 201.1 44.1 204.1 39.5 222.15 35.9 236.45 31.7 246.6 29.05 252.95 25.95 264.45 24.8 268.75 23.9 272.4 24.85 272.5 26.1 273 26.15 273 26.2 273.05 26.3 273.1 31.65 275.95 33.95 277.15 36.75 278.4
L 44.95 239.4 47.85 207.5
Q 51.8 199 44.2 188.2
L 19.5 169.55 13.5 155.65 16.5 109.3 17.1 80.65 13.65 43.6 7.5 24.95 20.75 23.15 33.65 14.7 Z"/>

<path fill="#037F29" stroke="none" d="
M 60.75 14.6
L 65.05 3.45 52.4 2.95
Q 45 7.5 40.95 11 39.1 12.7 33.65 14.7
L 20.75 23.15 7.5 24.95 13.65 43.6 17.1 80.65 16.5 109.3 13.5 155.65 19.5 169.55 44.2 188.2
Q 51.8 199 47.85 207.5
L 44.95 239.4 36.75 278.4
Q 40.05 279.9 44.15 281.45 50.35 283.85 53.15 283.25 61.3 235.8 56.8 188.35 56.7 188.2 56.6 188.15 53.15 185.35 44.75 180.15 34.6 173.85 29.5 170.15 22.45 165.05 22 159.3 22 159.25 22 159.2 21.9 156.45 21.8 155 21.65 152.7 20.7 150.95 18.15 146.5 19 133.15
L 19 133.1
Q 20.5 117.9 21.1 111.6 21.9 103.2 21.8 94.15 21.7 88.15 21.1 79.25 20.5 70.3 20.05 65.85 19.3 58.55 18.1 53
L 18.1 52.95
Q 16.9 47.55 16.45 40.25
L 16.25 34.05
Q 16.25 33.55 16.55 33.15 16.8 32.75 17.3 32.6
L 24 30.8
Q 46.4 14.6 60.75 14.6 Z"/>
</g>

<g id="flower_0_Layer14_0_FILL">
<path fill="#000000" stroke="none" d="
M -48.7 -10.55
Q -53.15 -9.3 -54.75 -5.3
L -54.75 -5.25
Q -56.15 -2.05 -58.5 5.65
L -58.5 5.7 -60.6 12.6
Q -60.8 13.1 -60.65 13.7 -60.65 14.35 -60.35 14.7 -60.1 15.05 -59.7 15.1
L -55.95 15.15 -56 15.1
Q -52.45 15.25 -51.75 15.8 -51.15 16.3 -48.35 21.1 -45.1 26.7 -44.25 27.5 -43 28.8 -37.35 28.55 -33.2 28.3 -31.3 27.45 -30.65 27.1 -30.2 26.8 -28.2 24.95 -18.45 14.1 -15.6 11.1 -9.8 7.35 -9.55 7.25 -9.35 6.75 -9.2 6.15 -9.2 5.7
L -10.2 -6.75
Q -10.3 -7.25 -10.5 -7.6 -10.65 -7.9 -10.85 -8.05 -11.15 -8.3 -11.4 -8.25 -13.8 -7.25 -16.5 -6.45 -22.05 -4.9 -24.6 -5.8
L -24.65 -5.7
Q -29.25 -7.75 -31.8 -8.75
L -31.75 -8.75
Q -32.45 -9 -33.05 -9.3 -37.15 -10.75 -40.3 -11 -45.8 -11.45 -48.7 -10.5
L -48.7 -10.55
M -53.1 -3.4
Q -51.9 -6.35 -48.35 -7.3 -45.5 -8 -40.35 -7.6 -37.8 -7.5 -34.6 -6.45 -34.1 -6.25 -33.45 -6.05
L -33.5 -6
Q -32.9 -5.8 -32.3 -5.6
L -32.25 -5.55
Q -29.7 -4.5 -25.05 -2.45
L -25 -2.45
Q -22.2 -1.4 -16.15 -3.1 -13.95 -3.75 -12.05 -4.45
L -11.25 4.75
Q -16.75 8.3 -19.6 11.25
L -19.6 11.3
Q -29.25 22 -31.1 23.85
L -31.15 23.95
Q -31.45 24.05 -31.85 24.35 -32.45 24.55 -33.2 24.75 -34.8 25.15 -37.4 25.25 -42.25 25.45 -43.3 24.6 -44 23.95 -46.95 18.85 -50.25 13.25 -50.9 12.7 -51.8 11.95 -56.05 11.85
L -58.15 11.8 -56.75 7.3
Q -54.4 -0.25 -53.1 -3.4 Z"/>

<path fill="#E7A602" stroke="none" d="
M -33.45 -6.05
Q -34.1 -6.25 -34.6 -6.45
L -44.4 2 -34 8.45 -41.55 18.5 -33.2 24.75
Q -32.45 24.55 -31.85 24.35 -31.45 24.05 -31.15 23.95
L -31.1 23.85
Q -29.25 22 -19.6 11.3
L -19.6 11.25
Q -16.75 8.3 -11.25 4.75
L -12.05 -4.45
Q -13.95 -3.75 -16.15 -3.1 -22.2 -1.4 -25 -2.45
L -25.05 -2.45
Q -29.7 -4.5 -32.25 -5.55
L -32.3 -5.6
Q -32.9 -5.8 -33.5 -6
L -33.45 -6.05 Z"/>

<path fill="#FFC000" stroke="none" d="
M -48.35 -7.3
Q -51.9 -6.35 -53.1 -3.4 -54.4 -0.25 -56.75 7.3
L -58.15 11.8 -56.05 11.85
Q -51.8 11.95 -50.9 12.7 -50.25 13.25 -46.95 18.85 -44 23.95 -43.3 24.6 -42.25 25.45 -37.4 25.25 -34.8 25.15 -33.2 24.75
L -41.55 18.5 -34 8.45 -44.4 2 -34.6 -6.45
Q -37.8 -7.5 -40.35 -7.6 -45.5 -8 -48.35 -7.3 Z"/>
</g>

<g id="flower_0_Layer13_0_FILL">
<path fill="#000000" stroke="none" d="
M -45.7 -38.5
Q -47.3 -35.75 -50.8 -27.9
L -53.8 -20.75
Q -53.9 -20.55 -53.95 -20.35 -54.3 -18.65 -53.55 -16.75
L -53.55 -16.7
Q -53.25 -15.75 -51.95 -12.4 -51.85 -12.05 -51.7 -11.7 -51.55 -11.05 -51 -10.7 -50.55 -10.4 -50.05 -10.45 -47 -8.85 -44.4 -7.3 -40.4 -4.65 -26.1 -4.5 -17.35 -4.3 -17.3 -6.4
L -9.1 -23.4
Q -16.35 -29.25 -16.5 -29.8 -16.6 -30.3 -17.05 -30.7
L -19.05 -32.3 -19.05 -32.35
Q -20.75 -33.85 -21.1 -34.6 -21.45 -36.1 -28.3 -39 -29.6 -39.55 -34.35 -41.45 -34.85 -41.65 -35.5 -41.9
L -35.45 -41.8
Q -42.2 -44.45 -45.7 -38.5
M -47.8 -26.6
Q -44.45 -34.15 -42.9 -36.8 -40.75 -40.35 -36.55 -38.8
L -36.5 -38.75
Q -36 -38.5 -35.55 -38.4 -35.3 -38.35 -35.15 -38.2 -30.75 -36.45 -29.55 -36 -24.65 -33.9 -24.15 -33.35 -23.75 -32.1 -21.15 -29.85
L -21.1 -29.85 -13.45 -23 -18.75 -10.05
Q -19.65 -7.4 -20.35 -7.2 -20.5 -7.15 -20.7 -7.2 -21.05 -7.2 -21.55 -7.3 -21.55 -7.203125 -21.55 -7.15 -21.5515625 -7.2029296875 -21.6 -7.3 -24.25 -7.4 -30.25 -8 -37.9 -8.7 -40.25 -9.4 -42.65 -10.05 -42.75 -10.15 -42.85 -10.1 -42.85 -10.2 -44.55 -11.2 -46.4 -12.15 -47 -12.5 -47.55 -12.85 -47.65 -12.8 -47.7 -12.85 -48.2 -13.15 -48.7 -13.45 -48.8 -13.85 -49.2 -14.25 -49.4 -14.7 -49.55 -15.2 -50.3 -17.1 -50.55 -17.85 -50.9 -18.8 -50.8 -19.6
L -47.8 -26.6 Z"/>

<path fill="#E7A602" stroke="none" d="
M -47.55 -12.85
Q -47 -12.5 -46.4 -12.15 -46.75 -13.7 -47.55 -12.85
M -46.4 -12.15
Q -44.55 -11.2 -42.85 -10.2 -41.15 -10.65 -32.8 -12.1 -36.95 -12.75 -36.4 -12.95 -39.85 -13.65 -42.35 -14.15 -44.45 -13.4 -46.4 -12.15
M -49.55 -15.2
Q -49.4 -14.7 -49.2 -14.25 -48.8 -13.85 -48.7 -13.45 -48.2 -13.15 -47.7 -12.85 -48.25 -15.15 -48.85 -15.2
L -48.9 -15.2
Q -49.1 -15.3 -49.55 -15.2 Z"/>

<path fill="#E8A705" stroke="none" d="
M -42.85 -10.2
Q -42.85 -10.1 -42.75 -10.15 -42.65 -10.05 -40.25 -9.4 -37.9 -8.7 -30.25 -8 -24.25 -7.4 -21.6 -7.3 -21.5515625 -7.2029296875 -21.55 -7.15 -21.55 -7.203125 -21.55 -7.3 -21.05 -7.2 -20.7 -7.2 -20.5 -7.15 -20.35 -7.2 -19.65 -7.4 -18.75 -10.05
L -13.45 -23 -21.1 -29.85 -21.15 -29.85
Q -23.75 -32.1 -24.15 -33.35 -24.65 -33.9 -29.55 -36 -30.75 -36.45 -35.15 -38.2 -37.45 -22 -46.4 -12.15 -44.45 -13.4 -42.35 -14.15 -39.85 -13.65 -36.4 -12.95 -36.95 -12.75 -32.8 -12.1 -41.15 -10.65 -42.85 -10.2 Z"/>

<path fill="#FFC000" stroke="none" d="
M -42.9 -36.8
Q -44.45 -34.15 -47.8 -26.6
L -50.8 -19.6
Q -50.9 -18.8 -50.55 -17.85 -50.3 -17.1 -49.55 -15.2 -49.1 -15.3 -48.9 -15.2
L -48.85 -15.2
Q -48.25 -15.15 -47.7 -12.85 -47.65 -12.8 -47.55 -12.85 -46.75 -13.7 -46.4 -12.15 -37.45 -22 -35.15 -38.2 -35.3 -38.35 -35.55 -38.4 -36 -38.5 -36.5 -38.75
L -36.55 -38.8
Q -40.75 -40.35 -42.9 -36.8 Z"/>
</g>

<g id="flower_0_Layer12_0_FILL">
<path fill="#000000" stroke="none" d="
M 0.7 40.9
Q 0.9 41.35 1.15 42.05
L 1.2 41.9
Q 3.1 46.7 7 47.35 6.3 47.4 5.55 47.5 20.85 48.7 29.05 41.05 29.3 41 29.4 40.9 30.9 40 31.8 38.15
L 31.85 38.1
Q 32.35 37.2 33.9 34 34.1 33.7 34.25 33.35 34.6 32.85 34.5 32.2 34.4 31.65 34 31.3 33.15 28 32.45 25.05 31.7 20.35 22.1 9.8 16.3 3.25 14.7 4.6
L -3.25 10.15
Q -2.65 19.45 -2.95 19.9 -3.2 20.35 -3.2 20.9
L -3 23.5 -3.05 23.55
Q -3 25.75 -3.3 26.5 -4.15 27.85 -1.6 34.8 -1.15 36.15 0.7 40.9
M 28.15 23.4
Q 28.2 23.5 28.25 23.6 28.95 24.75 29.7 25.95 32 29.9 30.55 31.1 30.7 31.15 30.65 31.2 30.8 31.8 30.9 32.35 30.65 32.7 30.7 33.25 30.45 33.7 30.2 34.15 29.35 36 28.95 36.7 28.5 37.6 27.8 38.1
L 20.7 40.65
Q 13.75 45.8 9.8 45.35 5.85 44.85 4.15 40.7
L 4.1 40.65
Q 3.95 40.05 3.75 39.7 3.6 39.45 3.65 39.25 1.9 34.9 1.45 33.65 -0.4 28.65 -0.35 27.9 0.35 26.75 0.25 23.35
L 0.2 23.3 0 13.1 13.05 8.15
Q 15.6 7 16.25 7.4 16.35 7.5 16.5 7.65 16.7 7.9 16.95 8.35
L 17.05 8.25 17 8.4
Q 18.75 10.4 22.35 15.15 27.05 21.25 28.15 23.4 Z"/>

<path fill="#E7A602" stroke="none" d="
M 30.7 33.25
Q 30.65 32.7 30.9 32.35 30.8 31.8 30.65 31.2 29.35 33.15 29.75 33.65
L 29.8 33.7
Q 29.8 33.9 30.2 34.15 30.45 33.7 30.7 33.25
M 25.05 18.8
Q 26.15 21.95 27.1 24.35 29.7 31.1 30.55 31.1 32 29.9 29.7 25.95 28.95 24.75 28.25 23.6 29.3 25.65 29.3 25.75 29.35 25.8 29.3 25.85 29.05 25.7 28.75 25.5 27.7 23.9 25.05 18.8
M 22.55 22.05
Q 23.25 23.2 22.95 23 24.75 26.05 26.1 28.2 27.5 28.9 26.35 23.8 25.9 21.75 25.05 18.8 24.1 20.1 23.1 21.4 22.15 20.65 21.1 19.85 22.05 21.25 22.55 22.05 Z"/>

<path fill="#E8A705" stroke="none" d="
M 26.35 23.8
Q 26.75 24.1 27.1 24.35 26.15 21.95 25.05 18.8 25.9 21.75 26.35 23.8
M 22.55 22.05
Q 22.05 21.25 21.1 19.85 22.15 20.65 23.1 21.4 24.1 20.1 25.05 18.8 27.7 23.9 28.75 25.5 29.05 25.7 29.3 25.85 29.35 25.8 29.3 25.75 29.3 25.65 28.25 23.6 28.2 23.5 28.15 23.4 27.05 21.25 22.35 15.15 18.75 10.4 17 8.4
L 17.05 8.25 16.95 8.35
Q 16.7 7.9 16.5 7.65 16.35 7.5 16.25 7.4 15.6 7 13.05 8.15
L 0 13.1 0.2 23.3 0.25 23.35
Q 0.35 26.75 -0.35 27.9 -0.4 28.65 1.45 33.65 1.9 34.9 3.65 39.25 20.5 32.75 22.55 22.05 Z"/>

<path fill="#FFC000" stroke="none" d="
M 22.95 23
Q 23.25 23.2 22.55 22.05 20.5 32.75 3.65 39.25 3.6 39.45 3.75 39.7 3.95 40.05 4.1 40.65
L 4.15 40.7
Q 5.85 44.85 9.8 45.35 13.75 45.8 20.7 40.65
L 27.8 38.1
Q 28.5 37.6 28.95 36.7 29.35 36 30.2 34.15 29.8 33.9 29.8 33.7
L 29.75 33.65
Q 29.35 33.15 30.65 31.2 30.7 31.15 30.55 31.1 29.7 31.1 27.1 24.35 26.75 24.1 26.35 23.8 27.5 28.9 26.1 28.2 24.75 26.05 22.95 23 Z"/>
</g>

<g id="flower_0_Layer11_0_FILL">
<path fill="#000000" stroke="none" d="
M -12.55 16.05
Q -13.35 18.2 -14.5 20.65 -16.85 25.5 -19 27.15
L -18.95 27.15
Q -23 29.85 -25.2 31.45
L -25.15 31.4
Q -25.8 31.75 -26.3 32.15 -29.6 34.65 -31.75 37.1 -35.25 41.05 -36.5 43.65
L -36.5 43.7
Q -38.45 47.5 -37 50.4 -36.95 50.45 -36.95 50.5 -35.7 52.9 -32.4 57.75
L -32.35 57.75 -29.35 62.2
Q -29.15 62.55 -28.75 62.7 -28.35 62.85 -27.95 62.8 -27.55 62.8 -27.3 62.5
L -25 59.65
Q -22.75 56.95 -22.05 56.65 -21.45 56.35 -16.7 56.2 -11.2 55.95 -10.25 55.6 -8.7 55.2 -5.45 50.75 -3.05 47.5 -2.45 45.65 -2.25 45 -2.2 44.55 -2.15 42.3 -2.95 30.4 -3.1 27 -1.9 21.05 -1.85 20.75 -2 20.45 -2.2 20.15 -2.55 19.9
L -10.85 15.65
Q -11.2 15.55 -11.55 15.5 -11.85 15.55 -12.15 15.6 -12.45 15.75 -12.55 16.05
M -12.15 21.65
Q -11.3 19.75 -10.5 17.95
L -4.4 21.1
Q -5.5 26.8 -5.4 30.1
L -5.4 30.15
Q -4.6 41.9 -4.6 44.1
L -4.6 44.15
Q -4.6 44.4 -4.75 44.8 -4.95 45.3 -5.2 46 -6 47.45 -7.55 49.45 -10.3 53.2 -11.45 53.7 -12.3 53.9 -17.3 54.15 -22.75 54.45 -23.45 54.85 -24.4 55.2 -27.05 58.35
L -28.4 59.95 -30.35 57.05 -30.3 57.05
Q -33.6 52.25 -34.75 49.95 -35.85 47.85 -34.2 44.75 -33 42.3 -29.7 38.4 -28.05 36.55 -25.45 34.55 -25 34.15 -24.45 33.8 -23.95 33.45 -23.55 33.05
L -23.5 33.05
Q -21.2 31.55 -17.25 28.75
L -17.15 28.75
Q -14.85 27.05 -12.15 21.65
M 5.85 -75.55
Q 5.8 -75.5 5.75 -75.55 2.45 -75.9 -5 -76
L -11.9 -75.95
Q -12.4 -76 -12.9 -75.75 -13.45 -75.5 -13.7 -75.05 -14.05 -74.6 -14.05 -74.25
L -13.6 -70.2 -13.6 -70.3
Q -13.15 -66.4 -13.55 -65.55 -13.9 -64.75 -18.05 -60.25 -22.9 -54.85 -23.5 -53.75 -24.55 -52.05 -23.5 -46.1 -22.75 -41.7 -21.65 -39.95 -21.25 -39.35 -20.8 -39 -18.85 -37.55 -7.25 -30.6 -4.05 -28.55 0.25 -23.55 0.45 -23.25 0.9 -23.25 1.4 -23.25 1.95 -23.4
L 13.4 -28.5
Q 13.85 -28.75 14.2 -29.05 14.5 -29.3 14.65 -29.65 14.8 -30 14.65 -30.25 13.45 -32.5 12.2 -35.15 10 -40.5 10.45 -43.55
L 10.4 -43.5
Q 11.75 -49.1 12.25 -52.15
L 12.3 -52.15
Q 12.55 -52.95 12.65 -53.7 13.4 -58.45 13.2 -62 12.8 -67.85 11.5 -70.7
L 11.5 -70.75
Q 9.85 -75.05 5.85 -75.55
M 4.25 -73.15
Q 7.15 -72.8 8.5 -69.3 9.65 -66.55 10.1 -60.9 10.25 -58.2 9.65 -54.4 9.6 -53.7 9.45 -53 9.35 -52.35 9.3 -51.65
L 9.25 -51.6
Q 8.5 -48.5 7.4 -43
L 7.35 -42.9
Q 6.8 -39.6 9.2 -33.6 10.1 -31.6 11 -29.65
L 2.5 -25.9
Q -1.6 -30.7 -4.8 -32.65
L -4.8 -32.7
Q -16.25 -39.5 -18.2 -41
L -18.25 -41
Q -18.5 -41.15 -18.75 -41.55 -19 -42.1 -19.4 -42.8 -19.95 -44.5 -20.35 -47.25 -21.3 -52.25 -20.65 -53.65 -20.1 -54.6 -15.65 -59.4 -10.95 -64.75 -10.6 -65.65 -10.1 -66.75 -10.5 -71.3
L -10.8 -73.6 -6.25 -73.6
Q 1.1 -73.55 4.25 -73.15 Z"/>

<path fill="#FFC000" stroke="none" d="
M -26.15 45.45
L -25.45 34.55
Q -28.05 36.55 -29.7 38.4 -33 42.3 -34.2 44.75 -35.85 47.85 -34.75 49.95 -33.6 52.25 -30.3 57.05
L -30.35 57.05 -28.4 59.95 -27.05 58.35
Q -24.4 55.2 -23.45 54.85 -22.75 54.45 -17.3 54.15 -12.3 53.9 -11.45 53.7 -10.3 53.2 -7.55 49.45 -6 47.45 -5.2 46
L -14.15 49.9 -15.8 40.05 -26.15 45.45
M 8.5 -69.3
Q 7.15 -72.8 4.25 -73.15 1.1 -73.55 -6.25 -73.6
L -10.8 -73.6 -10.5 -71.3
Q -10.1 -66.75 -10.6 -65.65 -10.95 -64.75 -15.65 -59.4 -20.1 -54.6 -20.65 -53.65 -21.3 -52.25 -20.35 -47.25 -19.95 -44.5 -19.4 -42.8
L -14.7 -53.75 -4.25 -48.9 0.35 -62.1 9.65 -54.4
Q 10.25 -58.2 10.1 -60.9 9.65 -66.55 8.5 -69.3 Z"/>

<path fill="#E7A602" stroke="none" d="
M -10.5 17.95
Q -11.3 19.75 -12.15 21.65 -14.85 27.05 -17.15 28.75
L -17.25 28.75
Q -21.2 31.55 -23.5 33.05
L -23.55 33.05
Q -23.95 33.45 -24.45 33.8 -25 34.15 -25.45 34.55
L -26.15 45.45 -15.8 40.05 -14.15 49.9 -5.2 46
Q -4.95 45.3 -4.75 44.8 -4.6 44.4 -4.6 44.15
L -4.6 44.1
Q -4.6 41.9 -5.4 30.15
L -5.4 30.1
Q -5.5 26.8 -4.4 21.1
L -10.5 17.95
M 9.25 -51.6
L 9.3 -51.65
Q 9.35 -52.35 9.45 -53 9.6 -53.7 9.65 -54.4
L 0.35 -62.1 -4.25 -48.9 -14.7 -53.75 -19.4 -42.8
Q -19 -42.1 -18.75 -41.55 -18.5 -41.15 -18.25 -41
L -18.2 -41
Q -16.25 -39.5 -4.8 -32.7
L -4.8 -32.65
Q -1.6 -30.7 2.5 -25.9
L 11 -29.65
Q 10.1 -31.6 9.2 -33.6 6.8 -39.6 7.35 -42.9
L 7.4 -43
Q 8.5 -48.5 9.25 -51.6 Z"/>
</g>

<g id="flower_0_Layer10_0_FILL">
<path fill="#000000" stroke="none" d="
M -14.8 9.5
Q -15.15 9.5 -15.35 9.7 -17.2 11.55 -19.45 13.5 -24.1 17.3 -26.85 18.15
L -26.85 18.2
Q -31.95 19.55 -34.75 20.3
L -34.7 20.3
Q -35.45 20.5 -36.1 20.65 -40.5 22.05 -43.6 23.6 -48.9 26.3 -51.3 28.4
L -51.3 28.35
Q -55 31.4 -55 34.55
L -55 34.6
Q -55.05 37.2 -54.35 42.85
L -54.3 42.85 -53.65 47.95
Q -53.65 48.35 -53.25 48.6 -53 48.95 -52.65 49 -52.25 49.05 -51.85 48.85
L -48.3 46.9 -48.35 46.9
Q -45 45.1 -44.1 45 -43.35 45 -38.9 46.25 -33.7 47.7 -32.6 47.7 -30.95 47.8 -25.7 44.6 -21.9 42.25 -20.45 40.75 -19.95 40.2 -19.6 39.75 -18.5 37.65 -13.5 26.25 -11.9 23 -7.9 17.8 -7.65 17.55 -7.65 17.15 -7.8 16.75 -7.95 16.45
L -13.65 9.9
Q -13.9 9.65 -14.25 9.55 -14.5 9.45 -14.8 9.5
M -14.5 12.2
L -10.25 17.05
Q -14.1 22.05 -15.6 25.2
L -15.6 25.25
Q -20.6 36.55 -21.65 38.6
L -21.65 38.65
Q -21.9 38.9 -22.15 39.25 -22.65 39.7 -23.25 40.2 -24.65 41.3 -27.05 42.75 -31.45 45.45 -32.8 45.55 -33.7 45.55 -38.4 44.15 -43.7 42.75 -44.5 42.8 -45.65 42.85 -49.65 45.05
L -51.65 46.2 -52.1 42.85
Q -52.75 37.3 -52.75 34.8 -52.7 32.45 -49.7 30 -47.35 28.1 -42.35 25.55 -39.85 24.25 -36.5 23.1 -35.9 22.95 -35.25 22.7
L -35.25 22.75
Q -34.6 22.55 -33.95 22.4
L -33.9 22.4
Q -31.1 21.6 -26 20.3
L -25.9 20.3
Q -22.85 19.4 -17.85 15.15 -16 13.65 -14.5 12.2
M 1.55 -18.25
Q 1.95 -18.55 2.2 -18.95 2.35 -19.45 2.2 -19.9 -0.95 -28.4 -1.6 -33.25 -3.45 -50.15 -4.1 -53.35 -4.3 -54 -4.7 -54.95 -5.95 -57.6 -9.95 -62.3 -15.35 -68.8 -17.5 -69.45 -18.85 -69.95 -26.2 -70.6 -32.5 -71.1 -33.4 -71.45 -34.45 -72 -38.1 -75.9
L -38.05 -75.9 -41.8 -80.05
Q -42.2 -80.45 -42.7 -80.55 -43.25 -80.65 -43.75 -80.4 -44.3 -80.2 -44.45 -79.7
L -47.35 -73.55 -47.4 -73.55
Q -50.6 -66.6 -51.55 -63.3
L -51.55 -63.35
Q -52.85 -59.35 -49.3 -53.65
L -49.3 -53.7
Q -47.05 -49.95 -41.3 -44.05 -38 -40.55 -32.85 -36.8 -32.1 -36.25 -31.25 -35.7
L -31.3 -35.75
Q -27.95 -33.4 -21.95 -29.35
L -22 -29.35
Q -18.8 -26.9 -14.4 -19.85 -12.25 -16.35 -10.65 -13.2 -10.45 -12.85 -10.05 -12.6 -9.65 -12.4 -9.25 -12.4 -8.8 -12.4 -8.35 -12.6
L 1.55 -18.25
M -34.8 -68.9
Q -33.8 -68.4 -26.45 -67.75 -19.85 -67.2 -18.65 -66.8 -17 -66.1 -12.4 -60.6 -9.9 -57.65 -8.55 -55.5 -7.95 -54.6 -7.55 -53.8 -7.3 -53.25 -7.2 -52.85
L -7.2 -52.8
Q -6.6 -49.65 -4.7 -32.95
L -4.7 -32.9
Q -4.1 -28.2 -1.15 -20.05
L -8.55 -15.9
Q -9.95 -18.45 -11.65 -21.2 -16.45 -28.95 -20 -31.55
L -20.05 -31.6
Q -26.05 -35.65 -29.35 -38
L -29.4 -38
Q -30.2 -38.5 -30.95 -39.05
L -30.95 -39
Q -31.7 -39.6 -32.4 -40.15 -36.3 -43.1 -38.95 -45.9 -44.35 -51.5 -46.55 -55.1
L -46.6 -55.1
Q -49.4 -59.55 -48.55 -62.55 -47.55 -65.75 -44.5 -72.5
L -44.5 -72.45 -42.6 -76.5 -40.45 -74.1
Q -36.15 -69.45 -34.8 -68.9
M 6.2 -77.3
L 6.15 -77.3
Q 1.45 -73.65 -0.55 -71.75 -0.55 -71.7 -0.6 -71.7 -3.05 -69.35 -2.6 -64.9 -2.45 -61.85 -0.7 -56.6 0.35 -53.45 2.45 -49.75 2.8 -49.2 3.2 -48.65
L 3.2 -48.7
Q 4.6 -46.35 7.35 -42.2
L 7.3 -42.2
Q 8.65 -39.8 9 -34.1 9.2 -31.3 9.15 -28.85 9.15 -28.55 9.35 -28.3 9.55 -28.1 9.85 -28 10.15 -27.9 10.55 -27.9
L 19.65 -29.1
Q 20 -29.2 20.35 -29.45 20.6 -29.65 20.65 -30 21.6 -36.15 23 -39.45 23 -39.55 23.05 -39.65 25.85 -46 27.4 -49.5 28.55 -52.35 28.9 -53.35 29.05 -53.8 29.1 -54.55 29.15 -55.25 29.05 -56.2 28.85 -58 28.2 -60.65 26.85 -66.25 25.6 -67.15 24.85 -67.85 19.9 -70.1 15.7 -72 15.2 -72.5 14.65 -73.05 13.6 -76.55
L 13.65 -76.5 12.55 -80.15
Q 12.45 -80.5 12.1 -80.7 11.75 -80.9 11.35 -80.9 10.9 -80.85 10.65 -80.6
L 6.2 -77.3
M 7.85 -75.85
L 7.8 -75.85 10.7 -78.05 11.3 -75.95
Q 12.55 -71.85 13.25 -71.15 13.8 -70.6 18.65 -68.3 23.15 -66.3 23.85 -65.75 24.7 -64.85 25.8 -60.1 26.45 -57.6 26.7 -55.85 26.7 -55.7 26.7 -55.6 26.7 -55 26.7 -54.5 26.7 -54.05 26.55 -53.8
L 26.5 -53.75
Q 26.25 -52.95 25.35 -50.75 25.25 -50.55 25.1 -50.3 25.25 -48.2 22.2 -43.45 21.5 -42 20.75 -40.25
L 20.75 -40.2
Q 19.4 -37 18.4 -30.95
L 11.65 -30.05
Q 11.6 -32.1 11.5 -34.3 11 -40.55 9.5 -43.1
L 9.45 -43.15
Q 6.85 -47.3 5.35 -49.65
L 5.3 -49.65
Q 5.05 -50.2 4.7 -50.75 4.4 -51.25 4.1 -51.8 2.45 -54.75 1.65 -57.2 0.05 -62.2 -0.2 -65.1 -0.5 -68.7 1.2 -70.45 3.1 -72.3 7.85 -75.85 Z"/>

<path fill="#FFC000" stroke="none" d="
M -38.4 44.15
Q -33.7 45.55 -32.8 45.55 -31.45 45.45 -27.05 42.75 -24.65 41.3 -23.25 40.2
L -33.5 41.1 -30.25 31.3 -42.45 33.2 -36.5 23.1
Q -39.85 24.25 -42.35 25.55 -47.35 28.1 -49.7 30 -52.7 32.45 -52.75 34.8 -52.75 37.3 -52.1 42.85
L -51.65 46.2 -49.65 45.05
Q -45.65 42.85 -44.5 42.8 -43.7 42.75 -38.4 44.15
M -26.45 -67.75
Q -33.8 -68.4 -34.8 -68.9 -36.15 -69.45 -40.45 -74.1
L -42.6 -76.5 -44.5 -72.45 -44.5 -72.5
Q -47.55 -65.75 -48.55 -62.55 -49.4 -59.55 -46.6 -55.1
L -46.55 -55.1
Q -44.35 -51.5 -38.95 -45.9 -36.3 -43.1 -32.4 -40.15
L -36 -55.65 -21 -47.55 -21.35 -61.5 -8.55 -55.5
Q -9.9 -57.65 -12.4 -60.6 -17 -66.1 -18.65 -66.8 -19.85 -67.2 -26.45 -67.75
M 7.8 -75.85
L 7.85 -75.85
Q 3.1 -72.3 1.2 -70.45 -0.5 -68.7 -0.2 -65.1 0.05 -62.2 1.65 -57.2 2.45 -54.75 4.1 -51.8
L 7.45 -62.85 14.9 -53.8 19.95 -62.95 26.7 -55.85
Q 26.45 -57.6 25.8 -60.1 24.7 -64.85 23.85 -65.75 23.15 -66.3 18.65 -68.3 13.8 -70.6 13.25 -71.15 12.55 -71.85 11.3 -75.95
L 10.7 -78.05 7.8 -75.85 Z"/>

<path fill="#E7A602" stroke="none" d="
M -10.25 17.05
L -14.5 12.2
Q -16 13.65 -17.85 15.15 -22.85 19.4 -25.9 20.3
L -26 20.3
Q -31.1 21.6 -33.9 22.4
L -33.95 22.4
Q -34.6 22.55 -35.25 22.75
L -35.25 22.7
Q -35.9 22.95 -36.5 23.1
L -42.45 33.2 -30.25 31.3 -33.5 41.1 -23.25 40.2
Q -22.65 39.7 -22.15 39.25 -21.9 38.9 -21.65 38.65
L -21.65 38.6
Q -20.6 36.55 -15.6 25.25
L -15.6 25.2
Q -14.1 22.05 -10.25 17.05
M -7.2 -52.8
L -7.2 -52.85
Q -7.3 -53.25 -7.55 -53.8 -7.95 -54.6 -8.55 -55.5
L -21.35 -61.5 -21 -47.55 -36 -55.65 -32.4 -40.15
Q -31.7 -39.6 -30.95 -39
L -30.95 -39.05
Q -30.2 -38.5 -29.4 -38
L -29.35 -38
Q -26.05 -35.65 -20.05 -31.6
L -20 -31.55
Q -16.45 -28.95 -11.65 -21.2 -9.95 -18.45 -8.55 -15.9
L -1.15 -20.05
Q -4.1 -28.2 -4.7 -32.9
L -4.7 -32.95
Q -6.6 -49.65 -7.2 -52.8
M 5.3 -49.65
L 5.35 -49.65
Q 6.85 -47.3 9.45 -43.15
L 9.5 -43.1
Q 11 -40.55 11.5 -34.3 11.6 -32.1 11.65 -30.05
L 18.4 -30.95
Q 19.4 -37 20.75 -40.2
L 20.75 -40.25
Q 21.5 -42 22.2 -43.45 25.25 -48.2 25.1 -50.3 25.05 -51.25 24.4 -51.65 22.2 -53.1 22.45 -53.35
L 25.6 -55.2
Q 26.15 -55.45 26.7 -55.6 26.7 -55.7 26.7 -55.85
L 19.95 -62.95 14.9 -53.8 7.45 -62.85 4.1 -51.8
Q 4.4 -51.25 4.7 -50.75 5.05 -50.2 5.3 -49.65 Z"/>
</g>

<g id="flower_0_Layer9_0_FILL">
<path fill="#000000" stroke="none" d="
M 23.5 -5.55
Q 23.3 -5.4 23.05 -5.2
L 15.85 6.95
Q 15.6 7.4 15.65 7.9 15.65 8.3 15.95 8.7
L 17.6 10.5
Q 18.95 11.95 19.1 12.7 19.15 14.1 24.75 17.4 25.85 18.15 29.75 20.5 30.25 20.65 30.65 20.9 36.3 24.1 37.7 19.6 39.05 15.1 44.95 8.9
L 49.8 5.05
Q 49.95 4.95 49.95 4.75 50.55 3.35 50.1 1.5 50.05 0.65 49.3 -2.3 49.3 -2.7 49.2 -3 49.15 -3.55 48.75 -3.95 48.4 -4.35 47.95 -4.4 45.45 -6.15 43.4 -7.85 40.2 -10.7 31.45 -9.45 24.55 -8.55 23.55 -5.7
L 23.5 -5.55
M 26.2 -4.45
Q 26.3 -4.85 26.65 -4.95 26.7 -5.1 26.9 -5.2 27.1 -5.4 27.55 -5.55 29.05 -6.25 31.85 -6.6 38.85 -7.55 41.3 -5.8 41.45 -5.7 41.5 -5.7 41.65 -5.65 41.7 -5.55 43 -4.55 44.45 -3.4 44.95 -3 45.45 -2.65 45.5 -2.6 45.55 -2.6 45.9 -2.3 46.3 -2 46.35 -1.55 46.65 -1.2 46.75 -0.75 46.85 -0.3 47.25 1.4 47.35 2.1 47.45 3 47.25 3.65
L 42.5 7.25
Q 36.9 13.8 36.25 17.05 35.6 20.3 32.1 18.4
L 32.05 18.35
Q 31.6 18.1 31.3 17.95 31.1 17.9 30.9 17.75 27.35 15.65 26.3 15.05 22.3 12.5 21.9 12 21.8 10.9 19.75 8.5
L 19.75 8.55 18.9 7.55 25.6 -3.6
Q 25.7 -3.8 25.75 -3.9 26.05 -4.15 26.2 -4.45 Z"/>

<path fill="#E7A602" stroke="none" d="
M 46.85 -0.3
Q 46.75 -0.75 46.65 -1.2 46.35 -1.55 46.3 -2 45.9 -2.3 45.55 -2.6 45.75 -0.55 46.2 -0.4
L 46.25 -0.35
Q 46.5 -0.3 46.85 -0.3
M 44.45 -3.4
Q 44.5 -1.95 45.45 -2.65 44.95 -3 44.45 -3.4
M 31.85 -6.6
Q 29.05 -6.25 27.55 -5.55 29.85 -5.95 33.45 -5.95 39.4 -6.05 41.3 -5.8 38.85 -7.55 31.85 -6.6
M 26.9 -5.2
Q 26.7 -5.1 26.65 -4.95 36.65 -4.2 35.55 -4.05 38.45 -3 40.65 -2.2 42.65 -2.6 44.45 -3.4 43 -4.55 41.7 -5.55 39.55 -5.35 26.9 -5.2 Z"/>

<path fill="#FFC000" stroke="none" d="
M 45.45 -2.65
Q 44.5 -1.95 44.45 -3.4 35.25 3.95 30.9 17.75 31.1 17.9 31.3 17.95 31.6 18.1 32.05 18.35
L 32.1 18.4
Q 35.6 20.3 36.25 17.05 36.9 13.8 42.5 7.25
L 47.25 3.65
Q 47.45 3 47.35 2.1 47.25 1.4 46.85 -0.3 46.5 -0.3 46.25 -0.35
L 46.2 -0.4
Q 45.75 -0.55 45.55 -2.6 45.5 -2.6 45.45 -2.65 Z"/>

<path fill="#E8A705" stroke="none" d="
M 27.55 -5.55
Q 27.1 -5.4 26.9 -5.2 39.55 -5.35 41.7 -5.55 41.65 -5.65 41.5 -5.7 41.45 -5.7 41.3 -5.8 39.4 -6.05 33.45 -5.95 29.85 -5.95 27.55 -5.55
M 26.65 -4.95
Q 26.3 -4.85 26.2 -4.45 26.05 -4.15 25.75 -3.9 25.7 -3.8 25.6 -3.6
L 18.9 7.55 19.75 8.55 19.75 8.5
Q 21.8 10.9 21.9 12 22.3 12.5 26.3 15.05 27.35 15.65 30.9 17.75 35.25 3.95 44.45 -3.4 42.65 -2.6 40.65 -2.2 38.45 -3 35.55 -4.05 36.65 -4.2 26.65 -4.95 Z"/>
</g>

<g id="flower_0_Layer8_0_FILL">
<path fill="#000000" stroke="none" d="
M 26.7 -26.45
Q 26.6 -26.2 26.55 -25.85
L 28.2 -11.8
Q 28.25 -11.3 28.6 -10.95 28.85 -10.65 29.35 -10.5
L 31.65 -10.05 31.7 -10.05
Q 33.65 -9.7 34.25 -9.25 35.15 -8.2 41.65 -8.9 42.95 -9 47.5 -9.5 47.95 -9.7 48.45 -9.75 54.9 -10.6 55.15 -16.65 55.25 -19.5 54.7 -27.05
L 54.05 -34
Q 54.1 -34.15 54 -34.3 53.6 -35.8 52.15 -37 51.55 -37.6 49.2 -39.55 48.95 -39.85 48.65 -40 48.3 -40.45 47.7 -40.5 47.2 -40.6 46.85 -40.35 43.75 -40.25 41.1 -40.35 36.85 -40.7 30.6 -34.4 25.7 -29.45 26.6 -26.55
L 26.7 -26.45
M 29.45 -27.2
Q 29.35 -27.6 29.55 -27.9 29.45 -28.05 29.6 -28.2 29.65 -28.5 29.9 -28.9 30.65 -30.35 32.7 -32.35 37.65 -37.35 40.7 -37.45 40.85 -37.5 40.9 -37.45 41.05 -37.55 41.15 -37.5 42.8 -37.45 44.65 -37.45 45.3 -37.45 45.9 -37.45 45.95 -37.45 46 -37.5 46.5 -37.5 47 -37.45 47.3 -37.15 47.75 -37.05 48.1 -36.75 48.45 -36.45 49.8 -35.3 50.3 -34.8 50.95 -34.2 51.2 -33.55
L 51.8 -26.8
Q 52.35 -19.55 52.25 -16.8 52 -13.2 48.05 -12.6
L 48 -12.6
Q 47.5 -12.55 47.15 -12.45 47 -12.4 46.75 -12.4 42.6 -11.9 41.45 -11.75 36.7 -11.3 36.1 -11.5 35.3 -12.3 32.25 -13
L 32.25 -12.95 31 -13.2 29.5 -26.15
Q 29.45 -26.4 29.45 -26.5 29.55 -26.9 29.45 -27.2 Z"/>

<path fill="#E7A602" stroke="none" d="
M 45.9 -37.45
Q 45.3 -37.45 44.65 -37.45 45.6 -36.35 45.9 -37.45
M 47 -37.45
Q 46.5 -37.5 46 -37.5 47.4 -35.95 47.85 -36.15
L 47.95 -36.15
Q 48.15 -36.2 48.45 -36.45 48.1 -36.75 47.75 -37.05 47.3 -37.15 47 -37.45
M 32.7 -32.35
Q 30.65 -30.35 29.9 -28.9 31.45 -30.6 34.35 -32.8 39.05 -36.5 40.7 -37.45 37.65 -37.35 32.7 -32.35
M 29.6 -28.2
Q 29.45 -28.05 29.55 -27.9 37.95 -33.35 37.2 -32.55 40.1 -33.5 42.35 -34.2 43.7 -35.7 44.65 -37.45 42.8 -37.45 41.15 -37.5 39.55 -36.05 29.6 -28.2 Z"/>

<path fill="#FFC000" stroke="none" d="
M 46 -37.5
Q 45.95 -37.45 45.9 -37.45 45.6 -36.35 44.65 -37.45 41.8 -26 46.75 -12.4 47 -12.4 47.15 -12.45 47.5 -12.55 48 -12.6
L 48.05 -12.6
Q 52 -13.2 52.25 -16.8 52.35 -19.55 51.8 -26.8
L 51.2 -33.55
Q 50.95 -34.2 50.3 -34.8 49.8 -35.3 48.45 -36.45 48.15 -36.2 47.95 -36.15
L 47.85 -36.15
Q 47.4 -35.95 46 -37.5 Z"/>

<path fill="#E8A705" stroke="none" d="
M 29.9 -28.9
Q 29.65 -28.5 29.6 -28.2 39.55 -36.05 41.15 -37.5 41.05 -37.55 40.9 -37.45 40.85 -37.5 40.7 -37.45 39.05 -36.5 34.35 -32.8 31.45 -30.6 29.9 -28.9
M 29.55 -27.9
Q 29.35 -27.6 29.45 -27.2 29.55 -26.9 29.45 -26.5 29.45 -26.4 29.5 -26.15
L 31 -13.2 32.25 -12.95 32.25 -13
Q 35.3 -12.3 36.1 -11.5 36.7 -11.3 41.45 -11.75 42.6 -11.9 46.75 -12.4 41.8 -26 44.65 -37.45 43.7 -35.7 42.35 -34.2 40.1 -33.5 37.2 -32.55 37.95 -33.35 29.55 -27.9 Z"/>
</g>

<g id="flower_0_Layer7_0_FILL">
<path fill="#000000" stroke="none" d="
M 28.85 -59.15
L 28.8 -59.15
Q 27.9 -59.05 24.8 -58.45 24.5 -58.45 24.2 -58.35 23.6 -58.35 23.2 -57.9 22.85 -57.6 22.8 -57.15 20.9 -54.7 19.15 -52.7 16.15 -49.65 17.05 -40.8 17.75 -33.85 20.65 -32.75
L 20.75 -32.7
Q 20.9 -32.45 21.15 -32.25
L 33.05 -24.55
Q 33.45 -24.3 33.95 -24.35 34.4 -24.35 34.8 -24.65
L 36.55 -26.15 36.6 -26.15
Q 38.15 -27.4 38.9 -27.6 40.25 -27.65 43.9 -33.15 44.6 -34.2 47.05 -38.05 47.3 -38.5 47.6 -39
L 47.55 -38.95
Q 50.95 -44.45 46.4 -48.5 44.3 -50.4 38.05 -54.8
L 32.35 -58.7
Q 32.2 -58.8 32.05 -58.85 30.6 -59.45 28.85 -59.15
M 25.95 -55.7
Q 26.4 -55.8 26.85 -55.9 28.6 -56.2 29.3 -56.3 30.15 -56.45 30.85 -56.2
L 36.4 -52.4
Q 42.4 -48.2 44.45 -46.35 47.15 -43.85 45.1 -40.45
L 45.05 -40.4
Q 44.8 -40 44.6 -39.6 44.5 -39.45 44.4 -39.3 42.15 -35.75 41.5 -34.75 38.85 -30.8 38.3 -30.45 37.15 -30.3 34.75 -28.45
L 34.75 -28.4 33.75 -27.6 22.75 -34.7
Q 22.6 -34.8 22.45 -34.85 22.25 -35.2 21.9 -35.35 21.65 -35.5 21.45 -35.8 21.3 -35.9 21.25 -36.05 21.05 -36.35 20.9 -36.75 20.25 -38.25 19.95 -41.1 19.25 -48.05 21.15 -50.6 21.2 -50.7 21.3 -50.75 21.3 -50.85 21.4 -50.85 22.5 -52.15 23.65 -53.6 24.05 -54.1 24.45 -54.55 24.45 -54.6 24.5 -54.65 24.8 -55.05 25.15 -55.45 25.55 -55.45 25.95 -55.7 Z"/>

<path fill="#E7A602" stroke="none" d="
M 20.9 -36.75
Q 20.55 -39.05 20.7 -42.65 20.85 -48.7 21.15 -50.6 19.25 -48.05 19.95 -41.1 20.25 -38.25 20.9 -36.75
M 24.45 -54.55
Q 24.05 -54.1 23.65 -53.6 25.1 -53.65 24.45 -54.55
M 23.65 -53.6
Q 22.5 -52.15 21.4 -50.85 21.5 -48.8 21.25 -36.05 21.3 -35.9 21.45 -35.8 22.55 -45.8 22.7 -44.7 23.85 -47.6 24.7 -49.75 24.4 -51.7 23.65 -53.6
M 26.85 -55.9
Q 26.4 -55.8 25.95 -55.7 25.55 -55.45 25.15 -55.45 24.8 -55.05 24.5 -54.65 26.55 -54.75 26.7 -55.25
L 26.75 -55.3
Q 26.85 -55.5 26.85 -55.9 Z"/>

<path fill="#E8A705" stroke="none" d="
M 23.65 -53.6
Q 24.4 -51.7 24.7 -49.75 23.85 -47.6 22.7 -44.7 22.55 -45.8 21.45 -35.8 21.65 -35.5 21.9 -35.35 22.25 -35.2 22.45 -34.85 22.6 -34.8 22.75 -34.7
L 33.75 -27.6 34.75 -28.4 34.75 -28.45
Q 37.15 -30.3 38.3 -30.45 38.85 -30.8 41.5 -34.75 42.15 -35.75 44.4 -39.3 30.7 -44.1 23.65 -53.6
M 21.4 -50.85
Q 21.3 -50.85 21.3 -50.75 21.2 -50.7 21.15 -50.6 20.85 -48.7 20.7 -42.65 20.55 -39.05 20.9 -36.75 21.05 -36.35 21.25 -36.05 21.5 -48.8 21.4 -50.85 Z"/>

<path fill="#FFC000" stroke="none" d="
M 29.3 -56.3
Q 28.6 -56.2 26.85 -55.9 26.85 -55.5 26.75 -55.3
L 26.7 -55.25
Q 26.55 -54.75 24.5 -54.65 24.45 -54.6 24.45 -54.55 25.1 -53.65 23.65 -53.6 30.7 -44.1 44.4 -39.3 44.5 -39.45 44.6 -39.6 44.8 -40 45.05 -40.4
L 45.1 -40.45
Q 47.15 -43.85 44.45 -46.35 42.4 -48.2 36.4 -52.4
L 30.85 -56.2
Q 30.15 -56.45 29.3 -56.3 Z"/>
</g>

<g id="flower_0_Layer6_0_FILL">
<path fill="#000000" stroke="none" d="
M 34.5 -30.9
Q 25.85 -38.3 12.85 -35.15
L 12.8 -35.15
Q 0.1 -32.2 -9.4 -20.9 -18.9 -9.65 -19.65 3.4 -20.45 16.7 -11.7 24
L -11.7 24.05
Q -3.05 31.35 10 28.25 22.65 25.3 32.15 14.05 41.7 2.75 42.45 -10.25 43.25 -23.65 34.5 -30.9
M 13.5 -32.35
Q 25 -35.1 32.65 -28.7
L 32.65 -28.65
Q 40.25 -22.25 39.55 -10.4 38.8 1.65 29.95 12.2 21.15 22.7 9.35 25.45 -2.15 28.15 -9.85 21.8 -17.45 15.3 -16.75 3.55 -16 -8.55 -7.2 -19.05 1.65 -29.6 13.5 -32.35 Z"/>

<path fill="#D85B01" stroke="none" d="
M 32.65 -28.7
Q 25 -35.1 13.5 -32.35 1.65 -29.6 -7.2 -19.05 -16 -8.55 -16.75 3.55 -17.45 15.3 -9.85 21.8 -2.15 28.15 9.35 25.45 21.15 22.7 29.95 12.2 38.8 1.65 39.55 -10.4 40.25 -22.25 32.65 -28.65
L 32.65 -28.7
M 29.9 -22.75
Q 42.243359375 -18.2142578125 36.1 -6.3 30.001171875 5.658203125 24 13.75 18.0546875 21.8966796875 7.3 20 -3.405859375 18.1017578125 -9.05 13.4 -14.6 8.65 -14.1 0.05 -13.6 -8.5 -7.3 -16 -0.9998046875 -23.455078125 8.25 -25.4 17.5525390625 -27.2857421875 29.9 -22.75 Z"/>

<path fill="#FF8000" stroke="none" d="
M 36.1 -6.3
Q 42.243359375 -18.2142578125 29.9 -22.75 17.5525390625 -27.2857421875 8.25 -25.4 -0.9998046875 -23.455078125 -7.3 -16 -13.6 -8.5 -14.1 0.05 -14.6 8.65 -9.05 13.4 -3.405859375 18.1017578125 7.3 20 18.0546875 21.8966796875 24 13.75 30.001171875 5.658203125 36.1 -6.3 Z"/>
</g>

<g id="flower_0_Layer5_0_FILL">
<path fill="#000000" stroke="none" d="
M 18.95 18.35
L 19.15 17.45
Q 3.55 4.15 -6.9 6.6 -7.15 6.6 -7.2 6.8 -7.3 7 -7.25 7.15 -7.25 7.4 -7.05 7.5 -7 7.6 -1.65 8.3 3.6 8.85 8.3 11.4 13.05 13.9 15.05 15.4 16.6 16.55 18.95 18.35 Z"/>
</g>

<g id="bil_eyewhites_front_0_Layer0_0_FILL">
<path fill="#FEFEFE" stroke="none" d="
M 61.55 21.65
Q 61.8 19.05 61.75 17.35 61.7 14.35 60.4 11.2
L 54 3 45 2 40 6 34 5 23 0 7 3 0 15 0 20 4 29 13 34 22 34 32 28 41 28 50 34 56.4 30.85
Q 61.6 26.3 61.55 21.65 Z"/>
</g>

<g id="Mask_Mask_bil_eyewhites_front_0_Layer0_0_FILL">
<path fill="#FFFFFF" stroke="none" d="
M 61.55 21.65
Q 61.8 19.05 61.75 17.35 61.7 14.35 60.4 11.2
L 54 3 45 2 40 6 34 5 23 0 7 3 0 15 0 20 4 29 13 34 22 34 32 28 41 28 50 34 56.4 30.85
Q 61.6 26.3 61.55 21.65 Z"/>
</g>

<g id="bil_pupil_0_Layer1_0_FILL">
<path fill="#3399CC" stroke="none" d="
M 13.7 6.85
Q 13.7 4 11.7 2 9.7 0 6.85 0 4 0 2 2 0 4 0 6.85 0 9.7 2 11.7 4 13.7 6.85 13.7 9.7 13.7 11.7 11.7 13.7 9.7 13.7 6.85
M 7.3 4
Q 8.4763671875 3.997265625 9.3 4.8 10.1275390625 5.6611328125 10.1 6.85 10.1275390625 8.0263671875 9.3 8.85 8.4763671875 9.6775390625 7.3 9.65 6.1111328125 9.6775390625 5.25 8.85 4.447265625 8.0263671875 4.45 6.85 4.447265625 5.6611328125 5.25 4.8 6.1111328125 3.997265625 7.3 4 Z"/>

<path fill="#000000" stroke="none" d="
M 9.3 4.8
Q 8.4763671875 3.997265625 7.3 4 6.1111328125 3.997265625 5.25 4.8 4.447265625 5.6611328125 4.45 6.85 4.447265625 8.0263671875 5.25 8.85 6.1111328125 9.6775390625 7.3 9.65 8.4763671875 9.6775390625 9.3 8.85 10.1275390625 8.0263671875 10.1 6.85 10.1275390625 5.6611328125 9.3 4.8 Z"/>
</g>

<g id="bil_pupil_0_Layer0_0_FILL">
<path fill="#FEFEFE" stroke="none" d="
M 6.9 4
Q 6.9 3.15 6.3 2.55 5.75 2 4.9 2 4.05 2 3.45 2.55 2.9 3.15 2.9 4 2.9 4.85 3.45 5.4 4.05 6 4.9 6 5.75 6 6.3 5.4 6.9 4.85 6.9 4 Z"/>
</g>

<g id="bil_mask_side_0_Layer0_0_FILL">
<path fill="#FF8000" stroke="none" d="
M 46.85 6.9
Q 47.784765625 6.59921875 48.7 6.55 51.5255859375 6.356640625 54.35 8.5 57.4951171875 10.9208984375 59.15 15 57.19765625 7.7419921875 57 5
L 48.6 2 14 0 3.65 8.95 -0.05 30 17.75 42 34.6 35 42.05 36 50.65 39 53.9 33.2
Q 50.6185546875 33.89453125 47.25 31.35 44.35 29.1 43.35 23.05 42.925 20.5 42.85 17.95 42.825 15.45 43.15 12.95 43.75 8 46.85 6.9
M 37.65 18.25
Q 37.6630859375 20.069140625 37.2 22 35.7091796875 28.2 30.45 31.85 28.7005859375 33.0607421875 26.85 33.75
L 23.15 34.7
Q 21.15625 34.9283203125 19.1 34.6
L 15 33.3
Q 11.776953125 31.772265625 9.7 28.55 6.4662109375 23.55 7.9 17.3 9.3408203125 11.1 14.7 7.45 19.36015625 4.246875 24.6 4.55 25.3326171875 4.6337890625 26.05 4.75 32.180078125 5.75 35.4 10.75 37.6634765625 14.22734375 37.65 18.25 Z"/>
</g>

<path id="bil_mask_side_0_Layer0_0_1_STROKES" stroke="#000000" stroke-width="4" stroke-linejoin="round" stroke-linecap="round" fill="none" d="
M 53.9 33.2
Q 50.6185546875 33.89453125 47.275 31.35 44.35 29.1 43.35 23.05 42.925 20.5 42.875 17.975 42.825 15.45 43.15 12.95 43.75 8 46.85 6.925 47.784765625 6.59921875 48.725 6.55 51.5255859375 6.356640625 54.375 8.525 57.4951171875 10.9208984375 59.15 15
M 53.9 33.2
Q 54.3484375 33.107421875 54.8 32.95 58.4943359375 31.659375 59.95 26.925 60.2107421875 26.0921875 60.375 25.25 60.9380859375 22.301171875 60.35 19.125 60.15390625 17.991015625 59.8 16.825 59.510546875 15.8697265625 59.15 15
M 37.2 22
Q 35.7091796875 28.2 30.45 31.85 28.7005859375 33.0607421875 26.875 33.775
L 23.175 34.7
Q 21.15625 34.9283203125 19.1 34.6
L 15 33.325
Q 11.776953125 31.772265625 9.7 28.55 6.4662109375 23.55 7.9 17.3 9.3408203125 11.1 14.7 7.45 19.36015625 4.246875 24.6 4.575 25.3326171875 4.6337890625 26.075 4.75 32.180078125 5.75 35.4 10.75 37.6634765625 14.22734375 37.675 18.25 37.6630859375 20.069140625 37.2 22 Z"/>
</defs>

<g transform="matrix( 1.4542083740234375, 0, 0, 1.4542083740234375, 72,22) ">
<g transform="matrix( 1, 0, 0, 1, 114.35,212.7) ">
<g transform="matrix( 1, 0, 0, 1, 0,0) ">
<use xlink:href="#leaf_2_0_Layer0_0_FILL"/>
</g>
</g>

<g transform="matrix( 0.2361907958984375, 0.67364501953125, -0.738433837890625, 0.2588958740234375, 116.45,18.2) ">
<g transform="matrix( 1, 0, 0, 1, 0,0) ">
<use xlink:href="#leaf_3_0_Layer0_0_FILL"/>
</g>
</g>

<g transform="matrix( -0.383758544921875, -0.6005706787109375, -0.6583251953125, 0.420654296875, 167.85,137.8) ">
<g transform="matrix( 1, 0, 0, 1, 0,0) ">
<use xlink:href="#leaf_3_0_Layer0_0_FILL"/>
</g>
</g>

<g transform="matrix( 1, 0, 0, 1, 36.85,233.1) ">
<g transform="matrix( 1, 0, 0, 1, 0,0) ">
<use xlink:href="#leaf1_0_Layer0_0_FILL"/>
</g>
</g>

<g transform="matrix( 1, 0, 0, 1, 81.8,66.85) ">
<g transform="matrix( 1, 0, 0, 1, 0,0) ">
<use xlink:href="#Duplicate_Items_Folder_stem_0_Layer0_0_FILL"/>
</g>
</g>

<g transform="matrix( 1, 0, 0, 1, 0,113.65) ">
<g transform="matrix( 1, 0, 0, 1, 0,0) ">
<use xlink:href="#leaf_3_0_Layer0_0_FILL"/>
</g>
</g>

<g transform="matrix( 1.45928955078125, 0, 0, 1.45928955078125, 205.7,118.05) ">
<g transform="matrix( 1, 0, 0, 1, 0,0) ">
<use xlink:href="#flower_0_Layer14_0_FILL"/>
</g>

<g transform="matrix( 1, 0, 0, 1, 0,0) ">
<use xlink:href="#flower_0_Layer13_0_FILL"/>
</g>

<g transform="matrix( 1, 0, 0, 1, 0,0) ">
<use xlink:href="#flower_0_Layer12_0_FILL"/>
</g>

<g transform="matrix( 1, 0, 0, 1, 0,0) ">
<use xlink:href="#flower_0_Layer11_0_FILL"/>
</g>

<g transform="matrix( 1, 0, 0, 1, 0,0) ">
<use xlink:href="#flower_0_Layer10_0_FILL"/>
</g>

<g transform="matrix( 1, 0, 0, 1, 0,0) ">
<use xlink:href="#flower_0_Layer9_0_FILL"/>
</g>

<g transform="matrix( 1, 0, 0, 1, 0,0) ">
<use xlink:href="#flower_0_Layer8_0_FILL"/>
</g>

<g transform="matrix( 1, 0, 0, 1, 0,0) ">
<use xlink:href="#flower_0_Layer7_0_FILL"/>
</g>

<g transform="matrix( 1, 0, 0, 1, 0,0) ">
<use xlink:href="#flower_0_Layer6_0_FILL"/>
</g>

<g transform="matrix( 1, 0, 0, 1, 0,0) ">
<use xlink:href="#flower_0_Layer5_0_FILL"/>
</g>

<g transform="matrix( 0.58026123046875, 0.250030517578125, -0.26715087890625, 0.6199951171875, 2.3,-26.55) ">
<g transform="matrix( 1, 0, 0, 1, 0,0) ">
<use xlink:href="#bil_eyewhites_front_0_Layer0_0_FILL"/>
</g>
</g>

<mask id="Mask_Mask_1">
<g transform="matrix( 0.58026123046875, 0.250030517578125, -0.26715087890625, 0.6199951171875, 2.3,-26.55) ">
<g transform="matrix( 1, 0, 0, 1, 0,0) ">
<use xlink:href="#Mask_Mask_bil_eyewhites_front_0_Layer0_0_FILL"/>
</g>
</g>
</mask>

<g mask="url(#Mask_Mask_1)">
<g transform="matrix( 0.45318603515625, 0.195281982421875, -0.208648681640625, 0.4842376708984375, 27,-6.45) ">
<g transform="matrix( 1, 0, 0, 1, 0,0) ">
<use xlink:href="#bil_pupil_0_Layer1_0_FILL"/>
</g>

<g transform="matrix( 1, 0, 0, 1, 0,0) ">
<use xlink:href="#bil_pupil_0_Layer0_0_FILL"/>
</g>
</g>
</g>

<g mask="url(#Mask_Mask_1)">
<g transform="matrix( 0.58026123046875, 0.250030517578125, -0.26715087890625, 0.6199951171875, 11.3,-15.45) ">
<g transform="matrix( 1, 0, 0, 1, 0,0) ">
<use xlink:href="#bil_pupil_0_Layer1_0_FILL"/>
</g>

<g transform="matrix( 1, 0, 0, 1, 0,0) ">
<use xlink:href="#bil_pupil_0_Layer0_0_FILL"/>
</g>
</g>
</g>

<g transform="matrix( 0.6199951171875, 0.26715087890625, -0.26715087890625, 0.6199951171875, 1.55,-29.1) ">
<g transform="matrix( 1, 0, 0, 1, 0,0) ">
<use xlink:href="#bil_mask_side_0_Layer0_0_FILL"/>

<use xlink:href="#bil_mask_side_0_Layer0_0_1_STROKES"/>
</g>
</g>
</g>
</g>
</svg>
