
<svg xmlns="http://www.w3.org/2000/svg" version="1.1" xmlns:xlink="http://www.w3.org/1999/xlink" preserveAspectRatio="none" x="0px" y="0px" width="560px" height="544px" viewBox="0 0 560 544">
<defs>
<filter id="Filter_1" x="-20%" y="-23.238445529312685%" width="140%" height="146.47689105862537%" color-interpolation-filters="sRGB">
<feFlood flood-color="#AB5ED5" flood-opacity="1" in="SourceGraphic" result="result1"/>

<feGaussianBlur in="SourceGraphic" stdDeviation="4.333333333333333,4.333333333333333" result="result2"/>

<feComposite in2="result2" in="result1" operator="in" result="result3"/>

<feComposite in2="result3" in="SourceGraphic" operator="over" result="result4"/>
</filter>

<filter id="Filter_2" x="-20%" y="-20.215330221646%" width="140%" height="140.430660443292%" color-interpolation-filters="sRGB">
<feFlood flood-color="#00CCFF" flood-opacity="1" in="SourceGraphic" result="result1"/>

<feGaussianBlur in="SourceGraphic" stdDeviation="4,4" result="result2"/>

<feComposite in2="result2" in="result1" operator="in" result="result3"/>

<feComposite in2="result3" in="SourceGraphic" operator="over" result="result4"/>
</filter>

<filter id="Filter_3" x="-20%" y="-26.239714363179324%" width="140%" height="152.47942872635866%" color-interpolation-filters="sRGB">
<feFlood flood-color="#00FFFF" flood-opacity="1" in="SourceGraphic" result="result1"/>

<feGaussianBlur in="SourceGraphic" stdDeviation="7,7" result="result2"/>

<feComposite in2="result2" in="result1" operator="in" result="result3"/>

<feComposite in2="result3" in="SourceGraphic" operator="over" result="result4"/>
</filter>

<g id="Duplicate_Items_Folder_final_tree_0_Layer14_0_FILL">
<path fill="#82A001" stroke="none" d="
M -23.25 9.35
Q -26.5 9.5 -29.3 9.8 -37.05 10.6 -37.05 11.7 -37.05 12.85 -29.3 13.65 -21.55 14.5 -10.6 14.5 0.4 14.5 8.15 13.65 15.9 12.85 15.9 11.75 15.9 11.55 15.7 11.4 16.05 11.4 16.4 11.4 20.35 11.4 23.15 10.75 25.95 10.1 25.95 9.25 25.95 8.35 23.15 7.7 20.35 7.1 16.4 7.1 12.5 7.1 9.7 7.7 6.9 8.35 6.9 9.2 6.9 9.45 7.15 9.7 2.6 9.25 -3 9.1 -6.6 9 -10.6 9 -17.6 9 -23.25 9.35
M 58.75 -7.7
Q 56.6 -7.7 54.85 -7.35 55.2 -6.9 53.3 -7 53.05 -6.9 52.85 -6.85 50.4 -5.95 50.4 -4.8 50.4 -3.9 51.75 -3.2 51.2 -2.8 51.2 -2.3 51.2 -0.85 55.9 0.2 60.65 1.25 67.35 1.25 74.05 1.25 78.75 0.2 83.5 -0.85 83.5 -2.3 83.5 -3.7 78.75 -4.75 74.05 -5.8 67.35 -5.8 66.95 -5.8 66.6 -5.8 66 -6.35 64.65 -6.85 62.2 -7.7 58.75 -7.7 Z"/>

<path fill="#4E4D18" stroke="none" d="
M -90.7 -6.05
Q -92.3 -5.65 -93.7 -5.25 -90.95 -5.4 -87.85 -5.4 -83.65 -5.4 -80.05 -5.1 -78.7 -5.55 -77 -5.95 -67.95 -8 -55.15 -8 -53.45 -8 -51.85 -7.95 -58.05 -8.55 -65.25 -8.55 -80.15 -8.55 -90.7 -6.05 Z"/>

<path fill="#DAFE45" stroke="none" d="
M 76.55 -10.3
Q 77.9 -9.9 79.25 -9.4 81.25 -8.65 82.9 -7.9 82.3 -7.1 86.1 -6.25 89.65 -4.15 89.65 -2.25 89.7 1 79.35 3.25 69.05 5.55 54.45 5.55 42.85 5.55 33.9 4.1 36.9 6.2 36.9 8.6 36.9 13.7 23.45 17.25 10.05 20.9 -8.9 20.9 -27.85 20.9 -42.3 17.3 -56.8 13.7 -56.6 10.65 -56.4 7.6 -63.6 5.8 -69.3 5.9 -77 4.1 -81.85 2.95 -84.05 1.65 -85.85 1.7 -87.85 1.7 -96.1 1.7 -101.95 0.65 -107.75 -0.35 -107.75 -1.85 -107.75 -3.3 -101.95 -4.35 -98.95 -4.9 -95.3 -5.15 -99 -5.4 -103.3 -5.4 -112.9 -5.4 -119.7 -4.15 -126.45 -2.85 -126.45 -1.1 -126.45 0.7 -119.7 1.95 -112.9 3.2 -103.3 3.2 -101 3.2 -98.9 3.15 -96.3 4.75 -90.7 6.1 -80.15 8.65 -65.25 8.65 -64.5 8.65 -63.7 8.65 -64.65 10.05 -64.65 11.55 -64.65 17.75 -49.05 22.1 -33.45 26.5 -11.4 26.5 10.65 26.5 26.25 22.1 41.85 17.75 41.85 11.55 41.85 8.65 38.4 6.1 48.8 7.85 62.3 7.85 79.3 7.85 91.3 5.1 103.3 2.35 103.3 -1.5 103.3 -3.45 100.3 -5.1 100.55 -5.1 100.8 -5.1 108.65 -5.3 113.55 -6.25 118.4 -7.25 118.4 -8.1 118.4 -8.9 113.65 -9.45 108.9 -10.05 102.65 -10 96.4 -9.95 90.1 -9.4 88.15 -9.25 86.7 -9.05 81.95 -9.85 76.55 -10.3 Z"/>

<path fill="#99CC00" stroke="none" d="
M 39.2 -2.95
Q 37.85 -2.8 36.4 -2.6 46 -0.8 22.05 5 9.25 8.1 -3 9.1 2.6 9.25 7.15 9.7 6.9 9.45 6.9 9.2 6.9 8.35 9.7 7.7 12.5 7.1 16.4 7.1 20.35 7.1 23.15 7.7 25.95 8.35 25.95 9.25 25.95 10.1 23.15 10.75 20.35 11.4 16.4 11.4 16.05 11.4 15.7 11.4 15.9 11.55 15.9 11.75 15.9 12.85 8.15 13.65 0.4 14.5 -10.6 14.5 -21.55 14.5 -29.3 13.65 -37.05 12.85 -37.05 11.7 -37.05 10.6 -29.3 9.8 -26.5 9.5 -23.25 9.35 -23.65 9.3 -24 9.3 -46.15 7.75 -60.3 4.95 -74.5 2.1 -74.9 -2.25 -75.35 -6.65 -48.25 -6.05 -42.35 -6.35 -35.7 -6.35 -35.45 -6.35 -35.2 -6.35 -42.45 -7.75 -51.85 -7.95 -53.45 -8 -55.15 -8 -67.95 -8 -77 -5.95 -78.7 -5.55 -80.05 -5.1 -83.65 -5.4 -87.85 -5.4 -90.95 -5.4 -93.7 -5.25 -94.55 -5.2 -95.3 -5.15 -98.95 -4.9 -101.95 -4.35 -107.75 -3.3 -107.75 -1.85 -107.75 -0.35 -101.95 0.65 -96.1 1.7 -87.85 1.7 -85.85 1.7 -84.05 1.65 -81.85 2.95 -77 4.1 -69.3 5.9 -63.6 5.8 -56.4 7.6 -56.6 10.65 -56.8 13.7 -42.3 17.3 -27.85 20.9 -8.9 20.9 10.05 20.9 23.45 17.25 36.9 13.7 36.9 8.6 36.9 6.2 33.9 4.1 42.85 5.55 54.45 5.55 69.05 5.55 79.35 3.25 89.7 1 89.65 -2.25 89.65 -4.15 86.1 -6.25 82.3 -7.1 82.9 -7.9 81.25 -8.65 79.25 -9.4 77.9 -9.9 76.55 -10.3 67.45 -13.1 57.85 -11.75 51.05 -10.85 45.8 -10.1 44.65 -9.95 43.65 -9.8 44.15 -9.75 44.7 -9.7 45.75 -9.6 46.9 -9.5 48.15 -8.6 49.3 -8 50.75 -7.95 52.55 -7.75 51.75 -7.55 51.1 -7.3 47.9 -6.3 47.9 -5.6 47.95 -4.05 39.2 -2.95
M 54.85 -7.35
Q 56.6 -7.7 58.75 -7.7 62.2 -7.7 64.65 -6.85 66 -6.35 66.6 -5.8 66.95 -5.8 67.35 -5.8 74.05 -5.8 78.75 -4.75 83.5 -3.7 83.5 -2.3 83.5 -0.85 78.75 0.2 74.05 1.25 67.35 1.25 60.65 1.25 55.9 0.2 51.2 -0.85 51.2 -2.3 51.2 -2.8 51.75 -3.2 50.4 -3.9 50.4 -4.8 50.4 -5.95 52.85 -6.85 53.05 -6.9 53.3 -7 55.2 -6.9 54.85 -7.35
M 57.5 -8.95
Q 55.2 -8.45 53.5 -8 50.6 -9.4 53.9 -9.35
L 57.5 -8.95 Z"/>

<path fill="#474216" stroke="none" d="
M 53.5 -8
Q 55.2 -8.45 57.5 -8.95
L 53.9 -9.35
Q 50.6 -9.4 53.5 -8 Z"/>

<path fill="#26230D" stroke="none" d="
M 2.2 -11.55
Q 9 -13.7 18.55 -13.7 24 -13.7 28.55 -13 13.9 -11.2 22.25 -8.6 30.55 -6.05 33.85 -8 34.15 -8.2 34.5 -8.35 34.6 -8.45 34.8 -8.5 38.75 -9.15 39.1 -9.05 39.9 -8.9 40.6 -8.7 40.75 -8.7 40.9 -8.65 41.9 -8.1 43.25 -7.3 44.85 -8.25 49.3 -8 48.15 -8.6 46.9 -9.5 45.75 -9.6 44.7 -9.7 44.15 -9.75 43.65 -9.8 44.65 -9.95 45.8 -10.1 45.5 -10.1 45.2 -10.05 43.25 -11.55 39.45 -12.85 31.6 -15.45 20.5 -15.45 9.4 -15.45 1.5 -12.85 -1.4 -11.85 -3.25 -10.75 -1.9 -10.6 -0.65 -10.4 0.55 -11 2.2 -11.55 Z"/>

<path fill="#5F7601" stroke="none" d="
M 5.6 -9
Q 4.2 -9.6 1.4 -10.1 0.4 -10.3 -0.65 -10.4 -1.9 -10.6 -3.25 -10.75 -7.35 -11.15 -12.4 -11.15 -20.5 -11.15 -26.25 -10.1 -32 -9.05 -32 -7.6 -32 -6.9 -30.75 -6.3 -31.6 -6.3 -32.4 -6.3 -33.8 -6.35 -35.2 -6.35 -35.45 -6.35 -35.7 -6.35 -42.35 -6.35 -48.25 -6.05 -75.35 -6.65 -74.9 -2.25 -74.5 2.1 -60.3 4.95 -46.15 7.75 -24 9.3 -23.65 9.3 -23.25 9.35 -17.6 9 -10.6 9 -6.6 9 -3 9.1 9.25 8.1 22.05 5 46 -0.8 36.4 -2.6 37.85 -2.8 39.2 -2.95 47.95 -4.05 47.9 -5.6 47.9 -6.3 51.1 -7.3 51.75 -7.55 52.55 -7.75 50.75 -7.95 49.3 -8 44.85 -8.25 43.25 -7.3 41.9 -8.1 40.9 -8.65 40.75 -8.7 40.6 -8.7 39.9 -8.9 39.1 -9.05 38.75 -9.15 34.8 -8.5 34.6 -8.45 34.5 -8.35 34.15 -8.2 33.85 -8 30.55 -6.05 22.25 -8.6 13.9 -11.2 28.55 -13 27.4 -12.95 26.1 -12.75 15.85 -11.55 11.9 -10.35 7.9 -9.2 5.6 -9 Z"/>

<path fill="#676621" stroke="none" d="
M 1.4 -10.1
Q 4.2 -9.6 5.6 -9 7.9 -9.2 11.9 -10.35 15.85 -11.55 26.1 -12.75 27.4 -12.95 28.55 -13 24 -13.7 18.55 -13.7 9 -13.7 2.2 -11.55 0.55 -11 -0.65 -10.4 0.4 -10.3 1.4 -10.1 Z"/>
</g>

<g id="Duplicate_Items_Folder_final_tree_0_Layer13_0_FILL">
<path fill="#2F1E0D" stroke="none" d="
M 4.55 -15.55
Q 4.6 -15.5 4.75 -15.45 4.4 -15.7 4.1 -15.95 4.3 -15.75 4.55 -15.55
M 11.55 -18.25
Q 11.55 -19.75 10.35 -20.85 9.2 -22 7.6 -22.5 6 -23.05 4.25 -21.15 3.8 -20.65 3.5 -20.2 3.4 -19.95 3.25 -19.75 3.05 -19.4 2.9 -19.1
L 2.85 -18.75
Q 2.75 -18.3 2.85 -17.85 3.05 -17 3.7 -16.3
L 3.9 -16.1
Q 4 -16 4.1 -15.95 4.4 -15.7 4.75 -15.45 4.95 -15.35 5.2 -15.2 6.35 -14.65 7.65 -14.65 9.2 -14.65 10.35 -15.75 11.55 -16.8 11.55 -18.25
M 9.05 -25.15
Q 9.6 -25.15 9.95 -25.55 10.3 -25.95 10.3 -26.5 10.3 -27.1 9.95 -27.5 9.6 -27.85 9.05 -27.85 8.55 -27.85 8.2 -27.5 7.85 -27.1 7.85 -26.5 7.85 -25.95 8.2 -25.55 8.55 -25.15 9.05 -25.15 Z"/>

<path fill="#6B441D" stroke="none" d="
M 3.7 -16.3
Q 3.05 -17 2.85 -17.85 2.75 -18.3 2.85 -18.75 2.5 -17.4 3.7 -16.3 Z"/>

<path fill="#B59464" stroke="none" d="
M 2.45 -36.95
Q 2.65 -36.5 2.75 -35.95 11.65 -40.25 20.5 -39.4 18.25 -42.45 15.25 -45.3 6.9 -46.35 0.9 -41.9 1.9 -39.45 2.45 -36.95
M 23.85 -54.3
Q 22.45 -54.3 21.45 -53.2 20.45 -52.1 20.45 -50.6 20.45 -50.35 20.45 -50.15 20.6 -48.9 21.45 -47.9 22.45 -46.85 23.85 -46.85 25.3 -46.85 26.3 -47.9 27.3 -49 27.3 -50.6 27.3 -52.1 26.3 -53.2 25.3 -54.3 23.85 -54.3
M 16.9 -51.15
Q 16.5 -50.65 16.5 -49.95 16.5 -49.15 16.9 -48.7 17.3 -48.15 17.9 -48.15 18.45 -48.15 18.85 -48.7 19.25 -49.15 19.25 -49.95 19.25 -50.65 18.85 -51.15 18.45 -51.65 17.9 -51.65 17.3 -51.65 16.9 -51.15
M 4.4 -52.45
Q 4.4 -50.95 5.4 -49.95 6.4 -48.9 7.85 -48.9 9.2 -48.9 10.2 -49.95 11.2 -50.95 11.2 -52.5 11.2 -54 10.2 -55.05 9.2 -56 7.85 -56 6.4 -56 5.4 -55.05 4.4 -54 4.4 -52.45 Z"/>

<path fill="#423847" stroke="none" d="
M 27.45 -24.9
Q 26.45 -28.75 24.8 -32.25 24.25 -33.35 23.7 -34.4 13.2 -36.9 3.75 -31.3 5.15 -23.55 3.5 -20.2 3.8 -20.65 4.25 -21.15 6 -23.05 7.6 -22.5 9.2 -22 10.35 -20.85 11.55 -19.75 11.55 -18.25 11.55 -16.8 10.35 -15.75 9.2 -14.65 7.65 -14.65 6.35 -14.65 5.2 -15.2 7.35 -14.05 11.25 -13.15 21.5 -10.75 28.9 -14.7 28.9 -14.8 28.9 -14.9 28.8 -17.25 28.5 -19.5 28.1 -22.25 27.45 -24.9
M 9.95 -25.55
Q 9.6 -25.15 9.05 -25.15 8.55 -25.15 8.2 -25.55 7.85 -25.95 7.85 -26.5 7.85 -27.1 8.2 -27.5 8.55 -27.85 9.05 -27.85 9.6 -27.85 9.95 -27.5 10.3 -27.1 10.3 -26.5 10.3 -25.95 9.95 -25.55
M 16.9 -25.7
Q 18.25 -27.2 20.2 -27.2 22.15 -27.2 23.5 -25.7 24.85 -24.25 24.85 -22.1 24.85 -19.95 23.5 -18.5 22.15 -17 20.2 -17 18.25 -17 16.9 -18.5 15.55 -19.95 15.55 -22.1 15.55 -24.25 16.9 -25.7
M 40.4 -45.75
Q 34.5 -49.15 38.1 -42.4 46.35 -38 38.1 -33.65
L 32.8 -34.35
Q 26.55 -33.55 27.45 -24.9 28.1 -22.25 28.5 -19.5 28.8 -17.25 28.9 -14.9
L 29.35 -14.95
Q 47.9 -7.6 62.45 -15.35
L 62.75 -15.35
Q 62.45 -20.6 61.7 -26.25 60.15 -37.5 55.7 -42.7 53.5 -45.35 50.3 -47.7 50.4 -41.9 45.15 -45.85 41.75 -50.2 40.4 -45.75
M 30.6 -30
Q 31.8 -31.3 33.45 -31.3 35.1 -31.3 36.3 -30 37.45 -28.7 37.45 -26.95 37.45 -25.05 36.3 -23.75 35.1 -22.5 33.45 -22.5 31.8 -22.5 30.6 -23.75 29.4 -25.05 29.4 -26.9 29.4 -28.7 30.6 -30
M 45.5 -32.25
Q 45.5 -35.5 47.5 -37.8 49.55 -40.05 52.4 -40.05 55.3 -40.05 57.35 -37.8 59.35 -35.5 59.35 -32.3 59.35 -29.05 57.35 -26.8 55.3 -24.5 52.4 -24.5 49.55 -24.5 47.5 -26.8 45.5 -29.05 45.5 -32.25
M 42.35 -21.1
Q 42.35 -22.5 43.3 -23.55 44.25 -24.55 45.65 -24.55 47 -24.55 47.95 -23.55 48.9 -22.5 48.9 -21.1 48.9 -19.75 47.95 -18.7 47 -17.65 45.65 -17.65 44.25 -17.65 43.3 -18.7 42.35 -19.75 42.35 -21.1 Z"/>

<path fill="#1F1B21" stroke="none" d="
M 20.2 -27.2
Q 18.25 -27.2 16.9 -25.7 15.55 -24.25 15.55 -22.1 15.55 -19.95 16.9 -18.5 18.25 -17 20.2 -17 22.15 -17 23.5 -18.5 24.85 -19.95 24.85 -22.1 24.85 -24.25 23.5 -25.7 22.15 -27.2 20.2 -27.2
M 43.3 -23.55
Q 42.35 -22.5 42.35 -21.1 42.35 -19.75 43.3 -18.7 44.25 -17.65 45.65 -17.65 47 -17.65 47.95 -18.7 48.9 -19.75 48.9 -21.1 48.9 -22.5 47.95 -23.55 47 -24.55 45.65 -24.55 44.25 -24.55 43.3 -23.55
M 47.5 -37.8
Q 45.5 -35.5 45.5 -32.25 45.5 -29.05 47.5 -26.8 49.55 -24.5 52.4 -24.5 55.3 -24.5 57.35 -26.8 59.35 -29.05 59.35 -32.3 59.35 -35.5 57.35 -37.8 55.3 -40.05 52.4 -40.05 49.55 -40.05 47.5 -37.8
M 33.45 -31.3
Q 31.8 -31.3 30.6 -30 29.4 -28.7 29.4 -26.9 29.4 -25.05 30.6 -23.75 31.8 -22.5 33.45 -22.5 35.1 -22.5 36.3 -23.75 37.45 -25.05 37.45 -26.95 37.45 -28.7 36.3 -30 35.1 -31.3 33.45 -31.3 Z"/>

<path fill="#A07E4E" stroke="none" d="
M 21.75 -37.5
Q 21.15 -38.5 20.5 -39.4 11.65 -40.25 2.75 -35.95 3.35 -33.45 3.75 -31.3 13.2 -36.9 23.7 -34.4 22.85 -36.05 21.75 -37.5 Z"/>

<path fill="#A897AC" stroke="none" d="
M 22.5 -39.65
Q 22.1 -38.55 21.75 -37.5 22.85 -36.05 23.7 -34.4 24.25 -33.35 24.8 -32.25 29.6 -45.5 42.7 -52.25 39.75 -53.8 35.5 -56.6 30.25 -52.05 26.8 -47.45 23.95 -43.55 22.5 -39.65 Z"/>

<path fill="#CBB492" stroke="none" d="
M 35.5 -56.6
Q 34.4 -57.35 33.2 -58.2 31.9 -59.1 30.5 -60.1
L -9.15 -60.1
Q -8.45 -59.15 -7.8 -58.2 -2 -49.85 0.9 -41.9 6.9 -46.35 15.25 -45.3 18.25 -42.45 20.5 -39.4
L 22.5 -39.65
Q 23.95 -43.55 26.8 -47.45 30.25 -52.05 35.5 -56.6
M 5.4 -49.95
Q 4.4 -50.95 4.4 -52.45 4.4 -54 5.4 -55.05 6.4 -56 7.85 -56 9.2 -56 10.2 -55.05 11.2 -54 11.2 -52.5 11.2 -50.95 10.2 -49.95 9.2 -48.9 7.85 -48.9 6.4 -48.9 5.4 -49.95
M 16.5 -49.95
Q 16.5 -50.65 16.9 -51.15 17.3 -51.65 17.9 -51.65 18.45 -51.65 18.85 -51.15 19.25 -50.65 19.25 -49.95 19.25 -49.15 18.85 -48.7 18.45 -48.15 17.9 -48.15 17.3 -48.15 16.9 -48.7 16.5 -49.15 16.5 -49.95
M 21.45 -53.2
Q 22.45 -54.3 23.85 -54.3 25.3 -54.3 26.3 -53.2 27.3 -52.1 27.3 -50.6 27.3 -49 26.3 -47.9 25.3 -46.85 23.85 -46.85 22.45 -46.85 21.45 -47.9 20.6 -48.9 20.45 -50.15 20.45 -50.35 20.45 -50.6 20.45 -52.1 21.45 -53.2 Z"/>

<path fill="#8F7A96" stroke="none" d="
M 43.65 -51.75
Q 43.2 -51.95 42.7 -52.25 29.6 -45.5 24.8 -32.25 26.45 -28.75 27.45 -24.9 26.55 -33.55 32.8 -34.35
L 38.1 -33.65
Q 46.35 -38 38.1 -42.4 34.5 -49.15 40.4 -45.75 41.75 -50.2 45.15 -45.85 50.4 -41.9 50.3 -47.7 47.4 -49.85 43.65 -51.75 Z"/>
</g>

<g id="Duplicate_Items_Folder_cap_copy_0_Layer0_0_FILL">
<path fill="#6A44C4" stroke="none" d="
M 98.25 29
Q 97.55 29.8 97.25 31.15 96.7 33.4 97.75 35.45 98.8 37.55 100.8 38.2 102.75 38.85 104.5 37.7 105.6 36.95 106.25 35.85 108.45 37.95 110.6 40.45 110.1 38.25 109.35 35.65 106.95 27.15 98.15 14.35 89.4 1.55 66.25 0.2 43.1 -1.2 26.55 8.5 9.95 18.15 3.55 38.8 1.8 44.6 0.8 51 9.25 34.3 20.65 26.6 20.75 28.5 21.6 30.2 23 33.05 25.75 33.95 28.45 34.9 30.9 33.35 33.35 31.7 34.1 28.45 34.8 25.3 33.35 22.45 33.05 21.85 32.7 21.35 33.9 21 35.2 20.75 35.2 21.7 35.65 22.6 36.35 23.95 37.7 24.4 39.1 24.9 40.3 24.15 41.55 23.35 41.9 21.85 42.1 21 41.9 20.2 44 20.2 46.15 20.4 74 10.6 98.25 29
M 76.35 24.35
Q 74.65 21.2 71.45 20.15 68.25 19.05 65.4 20.7 62.6 22.4 61.8 25.85 61 29.35 62.7 32.55 64.45 35.8 67.65 36.9 70.85 37.95 73.65 36.2 76.45 34.5 77.25 31.05 78.05 27.55 76.35 24.35
M 18.55 38.15
Q 15.65 38.6 13.6 41.15 11.5 43.7 11.75 46.9 11.75 47.5 12.7 49.8
L 15.95 48.6 18.55 47.7
Q 19.3 47.35 20.05 47.1
L 26.65 45.1
Q 27.2 45.65 27.15 45.05 27.15 44.95 27.2 44.85 26.85 41.8 24.1 39.75 21.35 37.6 18.55 38.15
M 84.15 28.2
Q 83.15 27.85 82.2 28.5 81.2 29.2 80.9 30.5 80.6 31.85 81.15 33.05 81.7 34.2 82.7 34.55 83.75 34.9 84.7 34.25 85.65 33.55 85.95 32.2 86.25 30.9 85.75 29.7 85.2 28.55 84.15 28.2 Z"/>

<path fill="#886AD0" stroke="none" d="
M 97.25 31.15
Q 97.55 29.8 98.25 29 74 10.6 46.15 20.4 44 20.2 41.9 20.2 42.1 21 41.9 21.85 41.55 23.35 40.3 24.15 39.1 24.9 37.7 24.4 36.35 23.95 35.65 22.6 35.2 21.7 35.2 20.75 33.9 21 32.7 21.35 33.05 21.85 33.35 22.45 34.8 25.3 34.1 28.45 33.35 31.7 30.9 33.35 28.45 34.9 25.75 33.95 23 33.05 21.6 30.2 20.75 28.5 20.65 26.6 9.25 34.3 0.8 51 0.7 51.7 0.6 52.4
L 0 58.3
Q 14.5 64.25 28 67.2 29.3 67.5 30.65 67.75 33.4 68.25 36 68.65 36.05 68.65 36.1 68.7 36.1 68.65 36.15 68.7 60.55 72.3 82.05 65.85 98 61 112.35 50.55
L 112.2 47.75
Q 111.9 45.25 110.6 40.45 108.45 37.95 106.25 35.85 105.6 36.95 104.5 37.7 102.75 38.85 100.8 38.2 98.8 37.55 97.75 35.45 96.7 33.4 97.25 31.15
M 82.2 28.5
Q 83.15 27.85 84.15 28.2 85.2 28.55 85.75 29.7 86.25 30.9 85.95 32.2 85.65 33.55 84.7 34.25 83.75 34.9 82.7 34.55 81.7 34.2 81.15 33.05 80.6 31.85 80.9 30.5 81.2 29.2 82.2 28.5
M 107.9 47.1
Q 108.05 47.15 108.2 47.2 108 47.4 107.8 47.6 96.5 58.4 79.1 62.95 69.6 65.35 58.35 65.95 47.1 67.05 36.4 65.3 32.4 64.65 28.5 63.55 16.65 60.4 5.55 53.75 5.4 53.7 5.2 53.55 5.15 53.55 5.1 53.55 5.15 53.45 5.2 53.45 5.5 53.3 5.75 53.2 10.8197265625 50.665234375 15.95 48.6
L 12.7 49.8
Q 11.75 47.5 11.75 46.9 11.5 43.7 13.6 41.15 15.65 38.6 18.55 38.15 21.35 37.6 24.1 39.75 26.85 41.8 27.2 44.85 30.25 43.95 33.45 43.2 47.1 40.05 61.7 40 71.6 40 81.9 41.45 94.6 43.15 107.9 47.1
M 71.45 20.15
Q 74.65 21.2 76.35 24.35 78.05 27.55 77.25 31.05 76.45 34.5 73.65 36.2 70.85 37.95 67.65 36.9 64.45 35.8 62.7 32.55 61 29.35 61.8 25.85 62.6 22.4 65.4 20.7 68.25 19.05 71.45 20.15 Z"/>

<path fill="#0B9CFD" stroke="none" d="
M 57.3 57.05
L 79.1 62.95
Q 96.5 58.4 107.8 47.6
L 57.3 57.05
M 20.05 47.1
Q 19.3 47.35 18.55 47.7
L 15.95 48.6
Q 10.8197265625 50.665234375 5.75 53.2
L 55.25 57.25 56.7 57.3 56.7 57.15 57.3 57.05 57.05 56.55 81.9 41.45
Q 71.6 40 61.7 40
L 56.85 56.6 55.45 56.75 33.45 43.2
Q 30.25 43.95 27.2 44.85 27.15 44.95 27.15 45.05 27.2 45.65 26.65 45.1
L 20.05 47.1 Z"/>

<path fill="#56BBFE" stroke="none" d="
M 55.45 56.75
L 56.85 56.6 61.7 40
Q 47.1 40.05 33.45 43.2
L 55.45 56.75
M 107.8 47.6
L 107.9 47.1
Q 94.6 43.15 81.9 41.45
L 57.05 56.55 57.3 57.05 107.8 47.6 Z"/>

<path fill="#0162A0" stroke="none" d="
M 57.3 57.05
L 56.7 57.15 56.7 57.3 55.25 57.25 36.4 65.3
Q 47.1 67.05 58.35 65.95 69.6 65.35 79.1 62.95
L 57.3 57.05 Z"/>

<path fill="#0171BA" stroke="none" d="
M 28.5 63.55
Q 32.4 64.65 36.4 65.3
L 55.25 57.25 5.75 53.2 5.55 53.75
Q 16.65 60.4 28.5 63.55 Z"/>
</g>

<g id="Duplicate_Items_Folder_final_tree_0_Layer11_0_FILL">
<path fill="#7A9801" stroke="none" d="
M -81.9 -106.45
Q -81.95 -108.25 -83.9 -109.05 -84.85 -109.55 -85.4 -109.15 -86.4 -108.25 -87.35 -106.7 -89.3 -103.6 -91.25 -102.1 -93.15 -100.7 -93.1 -103.55 -93.1 -104.95 -91.1 -106.25 -97.7 -105.35 -102.15 -101.95 -106.65 -98.6 -106.55 -92.75 -106.45 -86.9 -106.05 -83.7
L -105.65 -81.1 -106.05 -75.75 -100.9 -41.7
Q -101.65 -73.7 -94.2 -73.8 -97.65 -80.15 -92.55 -79.6 -90.35 -83.8 -87.8 -79.8
L -88.7 -95.4
Q -88.15 -98.3 -83.05 -94.8
L -81.55 -106.2 -81.9 -106.45
M -98.6 -95.9
Q -97.45 -95.95 -96.5 -95 -95.7 -94 -95.6 -92.6 -95.55 -91.15 -96.3 -90.15 -97.2 -89.1 -98.35 -89.05 -99.5 -89 -100.35 -89.95 -101.25 -90.95 -101.3 -92.35 -101.4 -93.8 -100.55 -94.8 -99.75 -95.85 -98.6 -95.9
M -43.9 -113.15
Q -42.75 -113.95 -41.55 -114.3
L -41.25 -107.3 -35.65 -110.85 -30.6 -79.7
Q -31.6 -109 -25.3 -110.5
L -25.55 -110.55
Q -23.85 -113.95 -29.7 -114 -34.55 -117.4 -37.6 -117.85 -42.45 -118.85 -44.65 -119.15 -48.5 -119.8 -50 -118.85 -51.2 -118.05 -50.3 -115.45 -49.25 -112.7 -50.35 -111.6 -51.1 -110.8 -50.7 -109.9 -50.3 -109.1 -49.3 -108.65 -48.25 -108.2 -47.4 -108.35 -46.6 -108.65 -46.5 -109.7 -46.3 -111.65 -43.9 -113.15 Z"/>
</g>

<g id="Duplicate_Items_Folder_final_tree_0_Layer10_0_FILL">
<path fill="#6B5B71" stroke="none" d="
M -0.65 -64.9
L -7.3 -71.35
Q -8.9 -70 -10.1 -68.55 -10.75 -69.2 -11.8 -69.6 -13.7 -70.1 -15.65 -69 -17.65 -68 -18.65 -66 -19.6 -63.95 -19 -62.2 -18.4 -60.5 -16.5 -59.95 -15.7 -59.7 -14.8 -59.75 -16.35 -54.4 -15.65 -48 -15.5 -46.2 -15.1 -44.25 -11.9 -40.6 -8.65 -38.1
L 2.25 -60.4 -0.65 -64.9
M -25.65 -93.2
Q -25.85 -93.65 -26.4 -93.8 -26.95 -93.95 -27.5 -93.65 -28 -93.45 -28.2 -92.95 -28.45 -92.5 -28.25 -92.1 -28.05 -91.7 -27.5 -91.5 -26.95 -91.35 -26.4 -91.6 -26 -91.8 -25.75 -92.3 -25.55 -92.75 -25.65 -93.2
M -16.4 -75.3
Q -16.75 -76.1 -17.65 -76.35 -18.6 -76.65 -19.55 -76.2 -20.55 -75.75 -20.95 -74.85 -21.4 -74 -21.05 -73.2 -20.7 -72.4 -19.75 -72.1 -18.85 -71.85 -17.85 -72.3 -16.85 -72.7 -16.45 -73.6 -16 -74.45 -16.4 -75.3
M -31.55 -101.7
Q -33.1 -101 -33.85 -99.45 -34.55 -98.05 -34 -96.7 -33.5 -95.4 -32.1 -94.95 -30.6 -94.55 -29 -95.3 -27.45 -96.05 -26.75 -97.5 -26 -99 -26.55 -100.3 -27.15 -101.6 -28.65 -102 -30.05 -102.4 -31.55 -101.7 Z"/>

<path fill="#683380" stroke="none" d="
M -27.2 -120
Q -28.15 -118.55 -29.85 -115.05 -22.2 -116.5 -18.15 -110.6 -17.4 -112.7 -16.75 -114.65
L -16.7 -114.7
Q -16.7 -114.85 -16.75 -114.9 -18.3 -120.55 -25.95 -121.3 -26.2 -121.5 -27.2 -120 Z"/>

<path fill="#A897AC" stroke="none" d="
M -20.95 -100.6
Q -24.15 -108.4 -33.65 -106.75 -34.25 -105.35 -34.85 -103.8 -40.5 -90.9 -29.35 -67.4 -24.45 -57.1 -19.45 -49.85 -17.3 -46.75 -15.1 -44.25 -15.5 -46.2 -15.65 -48 -16.35 -54.4 -14.8 -59.75 -15.7 -59.7 -16.5 -59.95 -18.4 -60.5 -19 -62.2 -19.6 -63.95 -18.65 -66 -17.65 -68 -15.65 -69 -13.7 -70.1 -11.8 -69.6 -10.75 -69.2 -10.1 -68.55 -8.9 -70 -7.3 -71.35
L -10 -74.05
Q -20.1 -85.2 -21.4 -90.35 -22.3 -94.2 -20.95 -100.6
M -33.85 -99.45
Q -33.1 -101 -31.55 -101.7 -30.05 -102.4 -28.65 -102 -27.15 -101.6 -26.55 -100.3 -26 -99 -26.75 -97.5 -27.45 -96.05 -29 -95.3 -30.6 -94.55 -32.1 -94.95 -33.5 -95.4 -34 -96.7 -34.55 -98.05 -33.85 -99.45
M -17.65 -76.35
Q -16.75 -76.1 -16.4 -75.3 -16 -74.45 -16.45 -73.6 -16.85 -72.7 -17.85 -72.3 -18.85 -71.85 -19.75 -72.1 -20.7 -72.4 -21.05 -73.2 -21.4 -74 -20.95 -74.85 -20.55 -75.75 -19.55 -76.2 -18.6 -76.65 -17.65 -76.35
M -26.4 -93.8
Q -25.85 -93.65 -25.65 -93.2 -25.55 -92.75 -25.75 -92.3 -26 -91.8 -26.4 -91.6 -26.95 -91.35 -27.5 -91.5 -28.05 -91.7 -28.25 -92.1 -28.45 -92.5 -28.2 -92.95 -28 -93.45 -27.5 -93.65 -26.95 -93.95 -26.4 -93.8 Z"/>

<path fill="#9C54BC" stroke="none" d="
M -33.65 -106.75
Q -24.15 -108.4 -20.95 -100.6 -20.45 -102.95 -19.6 -105.6 -18.85 -108.2 -18.15 -110.6 -22.2 -116.5 -29.85 -115.05 -31.4 -111.75 -33.65 -106.75 Z"/>
</g>

<g id="Duplicate_Items_Folder_Symbol_2_0_Layer0_0_FILL">
<path fill="#9394DB" stroke="none" d="
M 131.45 35.8
L 130.5 33.15
Q 129.5 30.85 126.75 26.65 123.5 25 120.35 23.65 119.9 24.95 118.8 26 117.05 27.65 114.55 27.65 112.05 27.65 110.25 26 108.5 24.4 108.5 22.05 108.5 20.7 109.1 19.65 75.65 9.85 45.5 28.1 42.9 28.6 40.45 29.25 40.85 30 40.85 30.85 40.85 32.4 39.6 33.5 38.4 34.6 36.65 34.6 34.95 34.6 33.7 33.5 32.95 32.8 32.7 31.95 31.25 32.55 29.9 33.25 30.45 33.6 31 34.1 33.45 36.4 33.45 39.65 33.45 42.95 31 45.25 28.55 47.55 25.1 47.55 21.65 47.55 19.2 45.25 17.75 43.9 17.15 42.15 5.8 53.05 0.3 71.7 0.35 72.4 0.45 73.15
L 1.3 78.95
Q 19.95 80 36.6 78.5 38.25 78.35 39.95 78.15 43.25 77.8 46.45 77.35 46.5 77.35 46.6 77.35 46.6 77.3 46.65 77.35 76.3 73.05 99.85 60
L 98.85 58 99.9 60
Q 117.35 50.3 131.45 35.8
M 125.35 33.9
Q 125.5 33.9 125.7 33.9 125.5 34.15 125.35 34.4 114.95 48.3 95.65 58.15 85.15 63.5 72.05 67.65 59.1 72.25 46.05 74 41.15 74.65 36.25 74.9 21.5 75.65 6.65 72.85 6.4 72.8 6.15 72.75 6.1 72.75 6.05 72.75 6.1 72.65 6.15 72.65 6.45 72.4 6.75 72.2 12.55 67.8 18.7 63.85
L 13.95 66.75
Q 12.25 64.85 12.05 64.3 10.95 61.35 12.75 58.25 14.5 55.15 17.75 53.8 20.95 52.4 24.75 53.55 28.5 54.65 29.7 57.45 33.1 55.6 36.6 53.9 51.9 46.5 69.05 41.85 80.7 38.65 93.2 36.75 108.6 34.35 125.35 33.9
M 90.05 24.35
Q 91 23.4 92.3 23.4 93.6 23.4 94.55 24.35 95.5 25.3 95.5 26.65 95.5 28.05 94.55 29 93.6 29.95 92.3 29.95 91 29.95 90.05 29 89.1 28.05 89.1 26.65 89.1 25.3 90.05 24.35
M 84.95 28.35
Q 84.95 31.9 82.1 34.4 79.25 36.95 75.2 36.95 71.15 36.95 68.25 34.4 65.4 31.9 65.4 28.3 65.4 24.75 68.25 22.25 71.15 19.75 75.2 19.75 79.25 19.75 82.1 22.25 84.95 24.75 84.95 28.35 Z"/>

<path fill="#6666CC" stroke="none" d="
M 82.1 34.4
Q 84.95 31.9 84.95 28.35 84.95 24.75 82.1 22.25 79.25 19.75 75.2 19.75 71.15 19.75 68.25 22.25 65.4 24.75 65.4 28.3 65.4 31.9 68.25 34.4 71.15 36.95 75.2 36.95 79.25 36.95 82.1 34.4
M 92.3 23.4
Q 91 23.4 90.05 24.35 89.1 25.3 89.1 26.65 89.1 28.05 90.05 29 91 29.95 92.3 29.95 93.6 29.95 94.55 29 95.5 28.05 95.5 26.65 95.5 25.3 94.55 24.35 93.6 23.4 92.3 23.4
M 29.7 57.45
Q 28.5 54.65 24.75 53.55 20.95 52.4 17.75 53.8 14.5 55.15 12.75 58.25 10.95 61.35 12.05 64.3 12.25 64.85 13.95 66.75
L 18.7 63.85 20.3 62.9
Q 21.1 62.35 21.95 61.85
L 29.15 57.85
Q 29.95 58.2 29.75 57.65 29.7 57.55 29.7 57.45
M 126.75 26.65
Q 125.5 24.75 123.95 22.5 118.85 15.15 105.1 5.75 91.35 -3.7 63.75 2.4 36.1 8.5 19.2 23 2.25 37.45 0.3 59.2 -0.25 65.3 0.3 71.7 5.8 53.05 17.15 42.15 17.75 43.9 19.2 45.25 21.65 47.55 25.1 47.55 28.55 47.55 31 45.25 33.45 42.95 33.45 39.65 33.45 36.4 31 34.1 30.45 33.6 29.9 33.25 31.25 32.55 32.7 31.95 32.95 32.8 33.7 33.5 34.95 34.6 36.65 34.6 38.4 34.6 39.6 33.5 40.85 32.4 40.85 30.85 40.85 30 40.45 29.25 42.9 28.6 45.5 28.1 75.65 9.85 109.1 19.65 108.5 20.7 108.5 22.05 108.5 24.4 110.25 26 112.05 27.65 114.55 27.65 117.05 27.65 118.8 26 119.9 24.95 120.35 23.65 123.5 25 126.75 26.65 Z"/>

<path fill="#89D0FE" stroke="none" d="
M 66.2 59.8
L 67.8 59.15 69.05 41.85
Q 51.9 46.5 36.6 53.9
L 66.2 59.8
M 125.35 34.4
L 125.35 33.9
Q 108.6 34.35 93.2 36.75
L 68 59.05 68.4 59.5 125.35 34.4 Z"/>

<path fill="#016BB1" stroke="none" d="
M 67.75 59.95
L 66.1 60.3 46.05 74
Q 59.1 72.25 72.05 67.65 85.15 63.5 95.65 58.15
L 68.4 59.5 67.75 59.8 67.75 59.95 Z"/>

<path fill="#0099FF" stroke="none" d="
M 6.75 72.2
L 6.65 72.85
Q 21.5 75.65 36.25 74.9 41.15 74.65 46.05 74
L 66.1 60.3 6.75 72.2 Z"/>

<path fill="#56BBFE" stroke="none" d="
M 21.95 61.85
Q 21.1 62.35 20.3 62.9
L 18.7 63.85
Q 12.55 67.8 6.75 72.2
L 66.1 60.3 67.75 59.95 67.75 59.8 68.4 59.5 68 59.05 93.2 36.75
Q 80.7 38.65 69.05 41.85
L 67.8 59.15 66.2 59.8 36.6 53.9
Q 33.1 55.6 29.7 57.45 29.7 57.55 29.75 57.65 29.95 58.2 29.15 57.85
L 21.95 61.85 Z"/>

<path fill="#0294F4" stroke="none" d="
M 95.65 58.15
Q 114.95 48.3 125.35 34.4
L 68.4 59.5 95.65 58.15 Z"/>
</g>

<g id="Duplicate_Items_Folder_final_tree_0_Layer8_0_FILL">
<path fill="#B59464" stroke="none" d="
M -31.9 -28
Q -31.6 -26.95 -31.35 -25.9 -31.05 -26.75 -30.65 -27.55
L -31.9 -28 Z"/>

<path fill="#BD9F75" stroke="none" d="
M -28 -40.4
Q -27.9 -40.45 -27.85 -40.6
L -28.25 -40.85
Q -28.3 -40.75 -28.3 -40.7
L -28 -40.4 Z"/>

<path fill="#846840" stroke="none" d="
M -27.2 -41.45
Q -27.5 -41.05 -27.85 -40.6 -27.9 -40.45 -28 -40.4 -30.55 -36.7 -32.25 -32.95 -32.65 -31.9 -33.05 -30.95 -32.4 -29.5 -31.9 -28
L -30.65 -27.55
Q -26.8 -35.95 -20.35 -41.45 -18.1 -43.35 -15.45 -44.95 -17.45 -46.55 -21.55 -47.8 -24.4 -45.2 -27.2 -41.45
M -27.65 -45.95
Q -28.25 -46.95 -29.25 -46.95 -30.35 -46.95 -31.3 -45.95 -32.1 -44.9 -32.35 -43.35 -32.4 -43.25 -32.4 -43 -32.45 -42.15 -32.2 -41.45 -32.1 -41.1 -31.9 -40.85 -31.3 -39.8 -30.25 -39.8 -29.25 -39.8 -28.3 -40.7 -28.3 -40.75 -28.25 -40.85 -28.1 -41.1 -27.85 -41.45 -27.4 -42.3 -27.2 -43.35 -27 -44.9 -27.65 -45.95
M -48.05 -35.15
Q -47.65 -32.8 -47.55 -30.4 -47.45 -29.9 -47.45 -29.35 -40.25 -33.6 -33.7 -32.65 -35.05 -35.65 -36.95 -38.4 -43.1 -39.35 -48.05 -35.15
M -33.55 -43.9
Q -33.75 -44.35 -34.15 -44.3 -34.6 -44.35 -35 -43.9 -35.3 -43.45 -35.35 -42.8 -35.5 -42.1 -35.25 -41.6 -35.25 -41.5 -35.15 -41.45 -34.95 -41.1 -34.6 -41.1 -34.25 -41.1 -33.95 -41.45 -33.9 -41.5 -33.8 -41.6 -33.45 -42.1 -33.3 -42.8 -33.3 -42.9 -33.3 -43 -33.3 -43.5 -33.55 -43.9 Z"/>

<path fill="#5B3A17" stroke="none" d="
M -10.3 -40.6
Q -11 -35.15 -14.45 -38.9 -16.45 -43 -18.05 -38.75 -22.05 -41.95 -20.15 -35.6 -14.55 -31.45 -21.25 -27.25
L -25.15 -27.85
Q -29.85 -27.2 -30.25 -18.9 -30.15 -16.4 -30.25 -13.75 -30.25 -11.6 -30.45 -9.4
L -30.1 -9.4
Q -23.8 -6 -17.8 -6 -11.4 -6 -5.25 -9.8
L -5 -9.8
Q -4.65 -14.85 -4.55 -20.15 -4.3 -30.95 -6.95 -35.85 -8.3 -38.4 -10.3 -40.6
M -15.9 -25.9
Q -15.5 -29 -13.65 -31.25 -11.9 -33.4 -9.7 -33.4 -7.55 -33.4 -6.3 -31.25 -5.05 -29 -5.45 -25.95 -5.9 -22.85 -7.7 -20.75 -9.5 -18.55 -11.65 -18.55 -13.85 -18.55 -15.05 -20.75 -16.3 -22.85 -15.9 -25.9
M -22.6 -20.8
Q -22.85 -19.1 -23.85 -17.8 -24.9 -16.6 -26.15 -16.6 -27.35 -16.6 -28.1 -17.8 -28.9 -19.1 -28.65 -20.8 -28.35 -22.55 -27.25 -23.75 -26.2 -25.05 -25.05 -25.05 -23.75 -25.05 -23.05 -23.75 -22.35 -22.55 -22.6 -20.8
M -19.6 -15.25
Q -19.4 -16.7 -18.6 -17.6 -17.85 -18.55 -16.75 -18.55 -15.75 -18.55 -15.1 -17.6 -14.55 -16.7 -14.75 -15.25 -14.95 -13.95 -15.75 -13 -16.55 -12 -17.6 -12 -18.65 -12 -19.2 -13 -19.8 -13.95 -19.6 -15.25 Z"/>

<path fill="#432912" stroke="none" d="
M -18.6 -17.6
Q -19.4 -16.7 -19.6 -15.25 -19.8 -13.95 -19.2 -13 -18.65 -12 -17.6 -12 -16.55 -12 -15.75 -13 -14.95 -13.95 -14.75 -15.25 -14.55 -16.7 -15.1 -17.6 -15.75 -18.55 -16.75 -18.55 -17.85 -18.55 -18.6 -17.6
M -23.85 -17.8
Q -22.85 -19.1 -22.6 -20.8 -22.35 -22.55 -23.05 -23.75 -23.75 -25.05 -25.05 -25.05 -26.2 -25.05 -27.25 -23.75 -28.35 -22.55 -28.65 -20.8 -28.9 -19.1 -28.1 -17.8 -27.35 -16.6 -26.15 -16.6 -24.9 -16.6 -23.85 -17.8
M -13.65 -31.25
Q -15.5 -29 -15.9 -25.9 -16.3 -22.85 -15.05 -20.75 -13.85 -18.55 -11.65 -18.55 -9.5 -18.55 -7.7 -20.75 -5.9 -22.85 -5.45 -25.95 -5.05 -29 -6.3 -31.25 -7.55 -33.4 -9.7 -33.4 -11.9 -33.4 -13.65 -31.25 Z"/>

<path fill="#B0894F" stroke="none" d="
M -14.8 -44.55
Q -15.15 -44.7 -15.45 -44.95 -18.1 -43.35 -20.35 -41.45 -26.8 -35.95 -30.65 -27.55 -31.05 -26.75 -31.35 -25.9 -30.55 -22.55 -30.25 -18.9 -29.85 -27.2 -25.15 -27.85
L -21.25 -27.25
Q -14.55 -31.45 -20.15 -35.6 -22.05 -41.95 -18.05 -38.75 -16.45 -43 -14.45 -38.9 -11 -35.15 -10.3 -40.6 -10.7 -41.05 -11.1 -41.45 -12.8 -43.05 -14.8 -44.55 Z"/>

<path fill="#6B441D" stroke="none" d="
M -49.15 -10.65
Q -49.55 -11.35 -49.6 -12.25 -49.6 -12.5 -49.55 -12.8 -49.8 -11.65 -49.15 -10.65
M -48.8 -14.45
Q -48.55 -14.85 -48.15 -15.25 -46.6 -17.1 -45.5 -16.7 -44.35 -16.15 -43.6 -15.05 -42.85 -14 -43.1 -12.6 -43.3 -11.1 -44.25 -10.15 -45.25 -9.1 -46.4 -9.1 -47.4 -9.1 -48.2 -9.65 -46.75 -8.6 -43.95 -7.7 -36.55 -5.35 -30.5 -9.15 -30.5 -9.3 -30.45 -9.4 -30.25 -11.6 -30.25 -13.75 -30.15 -16.4 -30.25 -18.9 -30.55 -22.55 -31.35 -25.9 -31.6 -26.95 -31.9 -28 -39.5 -30.4 -47.25 -25.05 -47.2 -17.55 -48.8 -14.45
M -44.65 -19.5
Q -44.85 -19.95 -44.8 -20.45 -44.7 -21 -44.45 -21.3 -44.1 -21.7 -43.7 -21.7 -43.3 -21.7 -43.1 -21.3 -42.9 -21 -42.95 -20.45 -43.1 -19.95 -43.35 -19.5 -43.7 -19.15 -44.05 -19.15 -44.5 -19.15 -44.65 -19.5
M -38.1 -19.65
Q -36.9 -21.1 -35.4 -21.1 -33.95 -21.1 -33.2 -19.65 -32.35 -18.35 -32.6 -16.25 -32.85 -14.2 -34.1 -12.8 -35.25 -11.4 -36.7 -11.4 -38.2 -11.4 -39 -12.8 -39.85 -14.2 -39.55 -16.25 -39.3 -18.35 -38.1 -19.65 Z"/>

<path fill="#2F1E0D" stroke="none" d="
M -48.6 -9.95
L -48.55 -9.95
Q -48.68671875 -10.1322265625 -48.75 -10.15 -48.690625 -10.13125 -48.6 -9.95
M -35.4 -21.1
Q -36.9 -21.1 -38.1 -19.65 -39.3 -18.35 -39.55 -16.25 -39.85 -14.2 -39 -12.8 -38.2 -11.4 -36.7 -11.4 -35.25 -11.4 -34.1 -12.8 -32.85 -14.2 -32.6 -16.25 -32.35 -18.35 -33.2 -19.65 -33.95 -21.1 -35.4 -21.1
M -44.8 -20.45
Q -44.85 -19.95 -44.65 -19.5 -44.5 -19.15 -44.05 -19.15 -43.7 -19.15 -43.35 -19.5 -43.1 -19.95 -42.95 -20.45 -42.9 -21 -43.1 -21.3 -43.3 -21.7 -43.7 -21.7 -44.1 -21.7 -44.45 -21.3 -44.7 -21 -44.8 -20.45
M -48.15 -15.25
Q -48.55 -14.85 -48.8 -14.45 -48.95 -14.2 -49.05 -14 -49.3 -13.65 -49.4 -13.35
L -49.55 -12.8
Q -49.6 -12.5 -49.6 -12.25 -49.55 -11.35 -49.15 -10.65 -49 -10.4 -48.75 -10.15 -48.68671875 -10.1322265625 -48.55 -9.95
L -48.55 -9.9
Q -48.35 -9.8 -48.2 -9.65 -47.4 -9.1 -46.4 -9.1 -45.25 -9.1 -44.25 -10.15 -43.3 -11.1 -43.1 -12.6 -42.85 -14 -43.6 -15.05 -44.35 -16.15 -45.5 -16.7 -46.6 -17.1 -48.15 -15.25 Z"/>

<path fill="#A07E4E" stroke="none" d="
M -47.45 -29.35
Q -47.3 -27.1 -47.25 -25.05 -39.5 -30.4 -31.9 -28 -32.4 -29.5 -33.05 -30.95 -33.3 -31.9 -33.7 -32.65 -40.25 -33.6 -47.45 -29.35 Z"/>

<path fill="#9C54BC" stroke="none" d="
M -45.8 -80.85
Q -49.55 -78.65 -52.4 -77.3 -59.35 -74.1 -61.5 -75.95 -61.5 -73.65 -60.75 -70.65 -56.15 -70.7 -52.4 -72.05 -47.35 -73.9 -43.75 -78
L -44.55 -79.55
Q -45.2 -80.25 -45.8 -80.85 Z"/>

<path fill="#683380" stroke="none" d="
M -52.4 -77.3
Q -49.55 -78.65 -45.8 -80.85 -49 -83.8 -49.75 -83.45
L -50.2 -83.45 -60.9 -79.55
Q -61.45 -78.05 -61.5 -76.55 -61.5 -76.3 -61.5 -75.95 -59.35 -74.1 -52.4 -77.3 Z"/>

<path fill="#8E7C94" stroke="none" d="
M -37.25 -64.35
Q -38.9 -66.45 -39.95 -68.45 -40.65 -69.7 -41.1 -70.85 -42.25 -73.95 -42.8 -75.65
L -43.75 -78
Q -47.35 -73.9 -52.4 -72.05 -56.15 -70.7 -60.75 -70.65 -59.6 -65.4 -56.05 -58.2 -55.85 -57.8 -55.7 -57.4 -55.45 -56.8 -55.1 -56.2 -53.6 -53.2 -52.4 -50.25 -50.55 -45.8 -49.4 -41.45 -48.55 -38.2 -48.05 -35.15 -43.1 -39.35 -36.95 -38.4 -35.05 -35.65 -33.7 -32.65
L -32.25 -32.95
Q -30.55 -36.7 -28 -40.4
L -28.3 -40.7
Q -29.25 -39.8 -30.25 -39.8 -31.3 -39.8 -31.9 -40.85 -32.1 -41.1 -32.2 -41.45 -32.45 -42.15 -32.4 -43 -32.4 -43.25 -32.35 -43.35 -32.1 -44.9 -31.3 -45.95 -30.35 -46.95 -29.25 -46.95 -28.25 -46.95 -27.65 -45.95 -27 -44.9 -27.2 -43.35 -27.4 -42.3 -27.85 -41.45 -28.1 -41.1 -28.25 -40.85
L -27.85 -40.6
Q -27.5 -41.05 -27.2 -41.45 -24.4 -45.2 -21.55 -47.8 -26.15 -50.15 -30.3 -55.6 -33.75 -60 -36.15 -63 -36.75 -63.75 -37.25 -64.35
M -36.8 -62.6
Q -35.85 -61.05 -36.15 -58.95 -36.35 -56.8 -37.75 -55.2 -39.2 -53.7 -40.9 -53.7 -42.6 -53.7 -43.6 -55.2 -44.65 -56.8 -44.4 -58.95 -44.15 -61.05 -42.65 -62.6 -42.1 -63.25 -41.55 -63.55 -41.5 -63.55 -41.45 -63.55 -40.55 -64.1 -39.55 -64.1 -37.85 -64.1 -36.8 -62.6
M -40.45 -68.25
Q -40.05 -67.45 -40.25 -66.3 -40.4 -65.2 -40.95 -64.55 -41.3 -64.1 -41.6 -63.85 -42 -63.7 -42.4 -63.7 -43.2 -63.75 -43.55 -64.55 -44.05 -65.2 -43.9 -66.3 -43.75 -67.45 -43.1 -68.25 -42.45 -68.95 -41.65 -68.95 -40.9 -68.95 -40.45 -68.25
M -52.4 -64.05
Q -52.25 -64.1 -52.15 -64.1 -51.35 -64.1 -50.9 -63.2 -50.5 -62.35 -50.65 -60.95 -50.8 -59.7 -51.5 -58.8 -51.9 -58.25 -52.4 -58.05 -52.65 -58 -52.9 -58 -53.4 -58 -53.75 -58.15 -54.05 -58.45 -54.3 -58.8 -54.75 -59.7 -54.65 -60.95 -54.45 -62.35 -53.65 -63.2 -53.1 -63.95 -52.4 -64.05
M -42 -41.75
Q -43.1 -41.75 -43.7 -42.8 -44.35 -43.75 -44.15 -45.2 -43.95 -46.6 -43 -47.6 -42.2 -48.6 -41.15 -48.6 -40.1 -48.6 -39.4 -47.6 -38.85 -46.6 -39 -45.2 -39.2 -43.75 -40.1 -42.8 -41 -41.75 -42 -41.75
M -34.15 -44.3
Q -33.75 -44.35 -33.55 -43.9 -33.3 -43.5 -33.3 -43 -33.3 -42.9 -33.3 -42.8 -33.45 -42.1 -33.8 -41.6 -33.9 -41.5 -33.95 -41.45 -34.25 -41.1 -34.6 -41.1 -34.95 -41.1 -35.15 -41.45 -35.25 -41.5 -35.25 -41.6 -35.5 -42.1 -35.35 -42.8 -35.3 -43.45 -35 -43.9 -34.6 -44.35 -34.15 -44.3 Z"/>

<path fill="#6B5B71" stroke="none" d="
M -43.7 -42.8
Q -43.1 -41.75 -42 -41.75 -41 -41.75 -40.1 -42.8 -39.2 -43.75 -39 -45.2 -38.85 -46.6 -39.4 -47.6 -40.1 -48.6 -41.15 -48.6 -42.2 -48.6 -43 -47.6 -43.95 -46.6 -44.15 -45.2 -44.35 -43.75 -43.7 -42.8
M -52.15 -64.1
Q -52.25 -64.1 -52.4 -64.05 -53.1 -63.95 -53.65 -63.2 -54.45 -62.35 -54.65 -60.95 -54.75 -59.7 -54.3 -58.8 -54.05 -58.45 -53.75 -58.15 -53.4 -58 -52.9 -58 -52.65 -58 -52.4 -58.05 -51.9 -58.25 -51.5 -58.8 -50.8 -59.7 -50.65 -60.95 -50.5 -62.35 -50.9 -63.2 -51.35 -64.1 -52.15 -64.1
M -40.25 -66.3
Q -40.05 -67.45 -40.45 -68.25 -40.9 -68.95 -41.65 -68.95 -42.45 -68.95 -43.1 -68.25 -43.75 -67.45 -43.9 -66.3 -44.05 -65.2 -43.55 -64.55 -43.2 -63.75 -42.4 -63.7 -42 -63.7 -41.6 -63.85 -41.3 -64.1 -40.95 -64.55 -40.4 -65.2 -40.25 -66.3
M -36.15 -58.95
Q -35.85 -61.05 -36.8 -62.6 -37.85 -64.1 -39.55 -64.1 -40.55 -64.1 -41.45 -63.55 -41.5 -63.55 -41.55 -63.55 -42.1 -63.25 -42.65 -62.6 -44.15 -61.05 -44.4 -58.95 -44.65 -56.8 -43.6 -55.2 -42.6 -53.7 -40.9 -53.7 -39.2 -53.7 -37.75 -55.2 -36.35 -56.8 -36.15 -58.95 Z"/>
</g>

<g id="Duplicate_Items_Folder_final_tree_0_Layer7_0_FILL">
<path fill="#99CC00" stroke="none" d="
M 48.5 -159
Q 46.05 -160.6 43.65 -155.65 41.2 -150.8 41.5 -146.85 41.8 -142.95 41.8 -141.85 41.7 -137.75 41.3 -129.55
L 40.7 -119.9
Q 44.2 -95.45 45.1 -85.45
L 46.2 -85.35
Q 46.2 -85.5 46.2 -85.65 46.55 -90.25 46.8 -95.85
L 46.7 -104.2
Q 46.95 -111.95 48.95 -109.3 50.9 -106.65 49.4 -115 48.65 -119.15 47.5 -123.85
L 46.05 -133.6
Q 44.55 -140.2 44.75 -141.85 44.9 -143.45 46.05 -141.6 48.15 -138.25 50.25 -139.55 51.1 -140.15 51.3 -140.1 52.2 -144.1 52.25 -150.3 52.35 -156.55 48.5 -159 Z"/>

<path fill="#7A9801" stroke="none" d="
M 81.2 -169.95
Q 81.35 -168.2 82.35 -167.85 83.3 -167.55 84.4 -168.35 85.5 -169.2 85.9 -170.45 86.3 -171.95 85.45 -173.2 84.2 -174.95 85.25 -179.45 86.15 -183.65 84.75 -184.85 83 -186.35 78.75 -185.05 76.3 -184.35 70.9 -182.4 67.55 -181.55 62.3 -175.7 55.75 -175.25 57.75 -169.95
L 57.55 -169.85
Q 64.65 -167.8 64.85 -159
L 69.1 -171.05 75.5 -165.75 75.5 -177.05
Q 76.85 -176.5 78.2 -175.35 80.95 -173.05 81.2 -169.95
M 131.25 -181.3
Q 133.55 -179.3 133.6 -177 133.8 -172.4 131.6 -174.6 129.35 -176.85 127.05 -181.75 125.9 -184.25 124.8 -185.55 124.1 -186.15 123.1 -185.35 120.95 -183.9 120.95 -181
L 120.6 -180.6 122.75 -162.2
Q 128.3 -168.2 129.1 -163.6 139.25 -152.65 131.5 -141.7 132.8 -141.6 134.05 -138.4 137.85 -139.2 138.6 -139.6 138.95 -139.8 138.6 -139.9 138.95 -139.8 138.6 -139.6 139.4 -103.9 145.05 -110.35
L 149.3 -133.1 148.6 -141.6 148.95 -145.8
Q 149.25 -151 149.1 -160.45 148.95 -169.9 143.8 -175.05 138.65 -180.25 131.25 -181.3
M 137.85 -169.9
Q 138.75 -174.05 140 -165.05 140.05 -165.05 140.1 -165.05 141.4 -165.05 142.35 -163.45 143.3 -161.8 143.3 -159.5 143.3 -157.25 142.35 -155.65 141.4 -154 140.1 -164.1 140.05 -164.6 140 -165.05 138.75 -164.95 137.8 -163.45 136.9 -161.8 136.9 -163.7 136.9 -165.6 137.85 -169.9 Z"/>

<path fill="#676621" stroke="none" d="
M 140 -165.05
Q 138.75 -174.05 137.85 -169.9 136.9 -165.6 136.9 -163.7 136.9 -161.8 137.8 -163.45 138.75 -164.95 140 -165.05 Z"/>
</g>

<g id="Duplicate_Items_Folder_final_tree_0_Layer6_0_FILL">
<path fill="#A897AC" stroke="none" d="
M 27.85 -115.55
Q 27.75 -115.6 27.7 -115.6 19.75 -107.65 13.8 -103.85 8.05 -100.2 5.7 -94.85 6 -94.7 6.25 -94.55 7.05 -94.1 7.1 -93.3 7.2 -92.5 6.5 -91.85 5.85 -91.1 4.75 -90.95 4.55 -90.9 4.4 -90.9 3.95 -89.15 3.6 -86.8 3.05 -82.3 2.7 -81.2 1.7 -76.6 8.5 -70.4
L 14 -66.35 19 -70.4 14.9 -76.7
Q 10.7 -83.35 10.55 -85.55 10.3 -87.8 15.6 -92.9 19.95 -97.15 23.65 -99.45 26.3 -101.1 30.55 -109.85 34.65 -118.2 35.75 -123.35 35.85 -123.8 35.85 -124.2 33.1 -121.15 29.55 -117.5 29.45 -117.4 29.35 -117.3
L 29.4 -117.25
Q 29.8 -116.95 29.8 -116.55 29.85 -116.15 29.55 -115.8 29.25 -115.4 28.75 -115.3 28.3 -115.25 27.85 -115.55
M 5.3 -87.4
Q 5.2 -87.95 5.7 -88.4 6.2 -88.75 6.9 -88.85 7.6 -89 8.2 -88.75 8.75 -88.5 8.85 -87.95 8.9 -87.4 8.4 -87 7.9 -86.55 7.15 -86.45 6.45 -86.35 5.9 -86.6 5.35 -86.85 5.3 -87.4 Z"/>

<path fill="#D2CCD5" stroke="none" d="
M 5.7 -88.4
Q 5.2 -87.95 5.3 -87.4 5.35 -86.85 5.9 -86.6 6.45 -86.35 7.15 -86.45 7.9 -86.55 8.4 -87 8.9 -87.4 8.85 -87.95 8.75 -88.5 8.2 -88.75 7.6 -89 6.9 -88.85 6.2 -88.75 5.7 -88.4
M 31.25 -129.75
Q 28.5 -130.95 25.7 -131.3 31.5 -127.65 29.95 -122.85 26.65 -119.05 22.1 -114.35 13 -105 6.3 -100.7 -0.5 -96.35 -2.6 -89.55 -3.3 -87.25 -3.85 -83.6 -4.45 -79.2 -4.75 -77.95 -5.8 -73.4 1.05 -67.3
L 8.05 -62.05 8.3 -61.8 14 -66.35 8.5 -70.4
Q 1.7 -76.6 2.7 -81.2 3.05 -82.3 3.6 -86.8 3.95 -89.15 4.4 -90.9 4.55 -90.9 4.75 -90.95 5.85 -91.1 6.5 -91.85 7.2 -92.5 7.1 -93.3 7.05 -94.1 6.25 -94.55 6 -94.7 5.7 -94.85 8.05 -100.2 13.8 -103.85 19.75 -107.65 27.7 -115.6 27.75 -115.6 27.85 -115.55 28.3 -115.25 28.75 -115.3 29.25 -115.4 29.55 -115.8 29.85 -116.15 29.8 -116.55 29.8 -116.95 29.4 -117.25
L 29.35 -117.3
Q 29.45 -117.4 29.55 -117.5 33.1 -121.15 35.85 -124.2 36 -127.65 31.25 -129.75 Z"/>
</g>

<g id="Duplicate_Items_Folder_final_tree_0_Layer5_0_FILL">
<path fill="#6B5B71" stroke="none" d="
M 66.9 -88
Q 65.5 -89.7 63.45 -89.7 62.3 -89.7 61.3 -89.1 60.8 -91.1 59.95 -93.05
L 50.4 -88.15 27.45 -69.85 25.9 -54.25
Q 31.75 -55.2 29.35 -53.4 26.95 -51.6 42.2 -56 44.95 -56.85 48 -58.2 51.15 -59.65 54.6 -61.75 60.4 -70.45 61.7 -78.35 62.5 -78 63.45 -78 65.5 -78 66.9 -79.7 68.35 -81.4 68.35 -83.85 68.35 -86.3 66.9 -88
M 74.85 -92.6
Q 74.85 -93.7 74.1 -94.45 73.75 -94.85 73.3 -95 72.85 -95.2 72.35 -95.2 71.35 -95.2 70.6 -94.45 69.85 -93.7 69.85 -92.65 69.85 -91.55 70.6 -90.8 71.35 -90.05 72.35 -90.05 72.85 -90.05 73.3 -90.2 73.75 -90.4 74.1 -90.8 74.85 -91.55 74.85 -92.6
M 87.75 -109.75
Q 87.75 -109.15 88.1 -108.75 88.5 -108.35 89.1 -108.35 89.7 -108.35 90.1 -108.75 90.5 -109.15 90.5 -109.7 90.5 -110.3 90.1 -110.7 89.7 -111.1 89.1 -111.1 88.5 -111.1 88.1 -110.7 87.75 -110.3 87.75 -109.75
M 95.15 -119.25
Q 93.55 -119.25 92.35 -118 91.2 -116.75 91.2 -115 91.2 -113.2 92.35 -111.95 93.55 -110.7 95.15 -110.7 96.75 -110.7 97.9 -111.95 99.05 -113.2 99.05 -114.95 99.05 -116.75 97.9 -118 96.75 -119.25 95.15 -119.25 Z"/>

<path fill="#A897AC" stroke="none" d="
M 87.05 -120.05
Q 85.3 -112.8 82.6 -109 80.3 -105.7 73.3 -100.95 69.35 -98.25 63.85 -95.05
L 59.95 -93.05
Q 60.8 -91.1 61.3 -89.1 62.3 -89.7 63.45 -89.7 65.5 -89.7 66.9 -88 68.35 -86.3 68.35 -83.85 68.35 -81.4 66.9 -79.7 65.5 -78 63.45 -78 62.5 -78 61.7 -78.35 60.4 -70.45 54.6 -61.75 63.15 -67 73.3 -76.3 76.3 -79.05 79.45 -82.1 101.4 -103.8 102.1 -119.3 102.2 -121.1 102.25 -122.7 93.85 -127.4 87.05 -120.05
M 92.35 -118
Q 93.55 -119.25 95.15 -119.25 96.75 -119.25 97.9 -118 99.05 -116.75 99.05 -114.95 99.05 -113.2 97.9 -111.95 96.75 -110.7 95.15 -110.7 93.55 -110.7 92.35 -111.95 91.2 -113.2 91.2 -115 91.2 -116.75 92.35 -118
M 88.1 -108.75
Q 87.75 -109.15 87.75 -109.75 87.75 -110.3 88.1 -110.7 88.5 -111.1 89.1 -111.1 89.7 -111.1 90.1 -110.7 90.5 -110.3 90.5 -109.7 90.5 -109.15 90.1 -108.75 89.7 -108.35 89.1 -108.35 88.5 -108.35 88.1 -108.75
M 74.1 -94.45
Q 74.85 -93.7 74.85 -92.6 74.85 -91.55 74.1 -90.8 73.75 -90.4 73.3 -90.2 72.85 -90.05 72.35 -90.05 71.35 -90.05 70.6 -90.8 69.85 -91.55 69.85 -92.65 69.85 -93.7 70.6 -94.45 71.35 -95.2 72.35 -95.2 72.85 -95.2 73.3 -95 73.75 -94.85 74.1 -94.45 Z"/>

<path fill="#9C54BC" stroke="none" d="
M 89.05 -131.6
Q 88.65 -128.8 88.15 -125.75 87.65 -122.65 87.05 -120.05 93.85 -127.4 102.25 -122.7 102.5 -128.75 102.55 -132.7 95.8 -136.65 89.05 -131.6 Z"/>

<path fill="#683380" stroke="none" d="
M 102.55 -132.7
Q 102.55 -136.95 102.35 -138.8 102.1 -140.8 101.7 -140.6 93.95 -142.15 89.8 -136.6 89.7 -136.5 89.65 -136.4 89.6 -136.35 89.6 -136.25 89.35 -134 89.05 -131.6 95.8 -136.65 102.55 -132.7 Z"/>
</g>

<g id="Duplicate_Items_Folder_final_tree_0_Layer4_0_FILL">
<path fill="#A897AC" stroke="none" d="
M -83.4 -23.3
Q -82.45 -21.95 -82.65 -19.6 -82.85 -17.3 -87.6 -19.65 -87.7 -19.55 -87.8 -19.4
L -86.4 -18.95
Q -81.35 -17.35 -80.4 -16.45 -77.25 -13.3 -77.65 -4.2
L -69.25 -2.4
Q -69.85 -9.75 -69.85 -10.55 -69.85 -17.1 -75.1 -21.75 -80.35 -26.4 -87.75 -26.4 -94 -26.4 -98.75 -23.05
L -98.65 -22.9
Q -93.7 -24.8 -94.1 -21.4 -98.2 -19.4 -94.9 -18.4
L -94.65 -17.85
Q -92.4 -19.35 -88.65 -19.35 -88.05 -19.6 -87.6 -19.65 -87.7 -19.65 -87.75 -19.7 -89.15 -20.1 -89.15 -20.55 -89.15 -22.25 -88.15 -23.5 -87.15 -24.7 -85.75 -24.7 -84.4 -24.7 -83.4 -23.3
M -75.8 -19.1
Q -75.2 -19.65 -74.35 -19.65 -73.55 -19.65 -72.95 -19.1 -72.4 -18.5 -72.4 -17.65 -72.4 -16.8 -72.95 -16.2 -73 -16.2 -73 -16.15 -72.95 -16.2 -72.9 -16.2 -72.6 -16.2 -72.4 -15.9 -72.15 -15.6 -72.15 -15.15 -72.15 -14.75 -72.4 -14.45 -72.6 -14.15 -72.9 -14.15 -73.2 -14.15 -73.45 -14.45 -73.65 -14.75 -73.65 -15.15 -73.65 -15.55 -73.45 -15.85 -73.9 -15.65 -74.35 -15.65 -75.2 -15.65 -75.8 -16.2 -76.35 -16.8 -76.35 -17.65 -76.35 -18.5 -75.8 -19.1
M 74.55 -40.15
Q 76.05 -42.3 78.2 -42.3 80.35 -42.3 81.9 -40.45 83.45 -38.55 83.45 -35.85 83.45 -35.15 81.3 -34.55 81.2 -34.5 81.1 -34.45 81.8 -34.4 82.7 -34 88.5 -34 92 -31.7
L 92.4 -32.5
Q 97.55 -34.1 91.2 -37.2 90.55 -42.5 98.25 -39.55
L 98.4 -39.75
Q 91.05 -44.95 81.3 -44.95 69.8 -44.95 61.65 -37.75 53.5 -30.5 53.5 -20.3 53.5 -19.05 52.5 -7.7
L 65.6 -10.45
Q 64.95 -24.6 69.9 -29.5 71.35 -30.9 79.2 -33.4
L 81.4 -34.1
Q 81.2 -34.3 81.05 -34.45 73.65 -30.85 73.35 -34.4 73.05 -38.05 74.55 -40.15
M 62.7 -33.6
Q 63.6 -32.7 63.6 -31.4 63.6 -30.05 62.7 -29.15 61.8 -28.25 60.5 -28.25 59.75 -28.25 59.1 -28.55 59.4 -28.1 59.4 -27.5 59.4 -26.85 59.05 -26.4 58.7 -25.9 58.2 -25.9 57.75 -25.9 57.4 -26.4 57.05 -26.85 57.05 -27.5 57.05 -28.15 57.4 -28.65 57.75 -29.1 58.2 -29.1 58.3 -29.1 58.4 -29.05 58.35 -29.1 58.3 -29.15 57.4 -30.05 57.4 -31.4 57.4 -32.7 58.3 -33.6 59.2 -34.5 60.5 -34.5 61.8 -34.5 62.7 -33.6 Z"/>

<path fill="#423847" stroke="none" d="
M -74.35 -19.65
Q -75.2 -19.65 -75.8 -19.1 -76.35 -18.5 -76.35 -17.65 -76.35 -16.8 -75.8 -16.2 -75.2 -15.65 -74.35 -15.65 -73.9 -15.65 -73.45 -15.85 -73.65 -15.55 -73.65 -15.15 -73.65 -14.75 -73.45 -14.45 -73.2 -14.15 -72.9 -14.15 -72.6 -14.15 -72.4 -14.45 -72.15 -14.75 -72.15 -15.15 -72.15 -15.6 -72.4 -15.9 -72.6 -16.2 -72.9 -16.2 -72.95 -16.2 -73 -16.15 -73 -16.2 -72.95 -16.2 -72.4 -16.8 -72.4 -17.65 -72.4 -18.5 -72.95 -19.1 -73.55 -19.65 -74.35 -19.65
M -82.65 -19.6
Q -82.45 -21.95 -83.4 -23.3 -84.4 -24.7 -85.75 -24.7 -87.15 -24.7 -88.15 -23.5 -89.15 -22.25 -89.15 -20.55 -89.15 -20.1 -87.75 -19.7 -87.7 -19.65 -87.6 -19.65 -82.85 -17.3 -82.65 -19.6
M -105.5 -10.15
Q -105.35 -5.8 -103.85 -2.85
L -98.4 -2.6
Q -99.7 -6.05 -99.7 -8.65 -99.7 -13.2 -96.35 -16.45 -95.55 -17.25 -94.65 -17.85
L -94.9 -18.4
Q -98.2 -19.4 -94.1 -21.4 -93.7 -24.8 -98.65 -22.9
L -98.75 -23.05
Q -99.6 -22.45 -100.4 -21.75 -105.65 -17.1 -105.5 -10.15
M 100.95 -37.75
Q 99.7 -38.85 98.4 -39.75
L 98.25 -39.55
Q 90.55 -42.5 91.2 -37.2 97.55 -34.1 92.4 -32.5
L 92 -31.7
Q 93.4 -30.75 94.7 -29.5 99.85 -24.45 99.85 -17.35 99.85 -13.3 97.85 -8
L 106.3 -8.35
Q 108.65 -12.95 108.85 -19.7 109.1 -30.5 100.95 -37.75
M 78.2 -42.3
Q 76.05 -42.3 74.55 -40.15 73.05 -38.05 73.35 -34.4 73.65 -30.85 81.05 -34.45
L 81.1 -34.45
Q 81.2 -34.5 81.3 -34.55 83.45 -35.15 83.45 -35.85 83.45 -38.55 81.9 -40.45 80.35 -42.3 78.2 -42.3
M 63.6 -31.4
Q 63.6 -32.7 62.7 -33.6 61.8 -34.5 60.5 -34.5 59.2 -34.5 58.3 -33.6 57.4 -32.7 57.4 -31.4 57.4 -30.05 58.3 -29.15 58.35 -29.1 58.4 -29.05 58.3 -29.1 58.2 -29.1 57.75 -29.1 57.4 -28.65 57.05 -28.15 57.05 -27.5 57.05 -26.85 57.4 -26.4 57.75 -25.9 58.2 -25.9 58.7 -25.9 59.05 -26.4 59.4 -26.85 59.4 -27.5 59.4 -28.1 59.1 -28.55 59.75 -28.25 60.5 -28.25 61.8 -28.25 62.7 -29.15 63.6 -30.05 63.6 -31.4 Z"/>
</g>

<g id="Duplicate_Items_Folder_final_tree_0_Layer3_0_FILL">
<path fill="#99CC00" stroke="none" d="
M -60.55 -152.95
Q -63.75 -155.05 -66.9 -148.6 -70.1 -142.25 -69.7 -137.1 -69.3 -132 -69.3 -130.55 -69.45 -125.25 -70 -114.55
L -70.75 -101.95
Q -66.2 -70 -65 -56.95
L -63.55 -56.8
Q -63.55 -57 -63.55 -57.2 -63.15 -63.2 -62.8 -70.5
L -62.95 -81.4
Q -62.6 -91.55 -60 -88.1 -57.45 -84.65 -59.4 -95.5 -60.35 -100.95 -61.85 -107.1
L -63.75 -119.8
Q -65.75 -128.4 -65.5 -130.55 -65.3 -132.7 -63.75 -130.25 -61 -125.9 -58.3 -127.6 -57.15 -128.35 -56.95 -128.3
L -56.9 -128.3
Q -55.75 -133.5 -55.65 -141.6 -55.55 -149.75 -60.55 -152.95 Z"/>

<path fill="#7A9801" stroke="none" d="
M -12.6 -179.65
Q -11.4 -185.15 -13.25 -186.75 -15.55 -188.7 -21.1 -187 -24.25 -186.05 -31.35 -183.55 -35.7 -182.4 -42.55 -174.75 -51.1 -174.2 -48.5 -167.3
L -48.75 -167.15
Q -39.5 -164.45 -39.2 -152.95
L -33.65 -168.7 -25.3 -161.8 -25.3 -176.55
Q -23.55 -175.85 -21.8 -174.35 -18.2 -171.35 -17.9 -167.3 -17.7 -165 -16.35 -164.55 -15.15 -164.15 -13.7 -165.2 -12.25 -166.3 -11.75 -167.95 -11.2 -169.85 -12.3 -171.5 -13.95 -173.8 -12.6 -179.65
M 60.05 -159.65
Q 59.8 -172 53.1 -178.75 46.4 -185.55 36.7 -186.9 39.7 -184.25 39.8 -181.25 40.05 -175.25 37.15 -178.15 34.25 -181.05 31.25 -187.5 29.75 -190.75 28.3 -192.45 27.4 -193.2 26.05 -192.2 23.25 -190.3 23.25 -186.5
L 22.8 -186 25.6 -161.95
Q 32.85 -169.8 33.9 -163.8
L 33.45 -130.85
Q 36.95 -139.5 40.4 -130.85 47.75 -132.45 43.2 -118.8 54.05 -119.2 54.75 -94.25
L 60.3 -123.95 59.4 -135.05 59.85 -140.55
Q 60.25 -147.3 60.05 -159.65
M 48.25 -151.25
Q 46.55 -151.25 45.3 -153.4 44.1 -155.5 44.1 -158.5 44.1 -161.45 45.3 -163.6 46.55 -165.7 48.25 -165.7 50 -165.7 51.2 -163.6 52.45 -161.45 52.45 -158.45 52.45 -155.5 51.2 -153.4 50 -151.25 48.25 -151.25 Z"/>
</g>

<g id="Duplicate_Items_Folder_final_tree_0_Layer2_0_FILL">
<path fill="#99CC00" stroke="none" d="
M -32.35 -177.05
Q -30.25 -178.5 -30.45 -180.15 -30.65 -181.85 -33 -182.8 -35.3 -183.7 -38.4 -183.35 -41.5 -183 -43.55 -181.6 -45.6 -180.15 -45.4 -178.5 -45.2 -176.8 -42.9 -175.85 -40.6 -174.9 -37.5 -175.25 -34.4 -175.6 -32.35 -177.05
M 9.1 -200.2
Q 6.2 -201.65 2.4 -201.25 -1.4 -200.8 -3.95 -198.75 -5.9 -197.1 -6.15 -195.15 -8.45 -195.35 -11.1 -195.05 -13.35 -194.8 -15.2 -194.25 -15.45 -194.45 -15.8 -194.5
L -10.9 -191.9 -15.8 -194.5 -15.85 -194.55
Q -19.1 -196 -23.5 -195.5 -27.85 -195 -30.75 -192.85 -33.6 -190.7 -33.3 -188.2 -33 -185.7 -29.75 -184.25 -26.45 -182.75 -22.1 -183.25 -20.55 -183.4 -19.2 -183.8
L -19.15 -183.8 -19.05 -183.85 -15.2 -185.6 -19.05 -183.85 -19 -183.85
Q -15.05 -182.6 -9.75 -183.2 -4.4 -183.8 -0.85 -185.9 1.15 -187.1 2 -188.4 2.35 -186.6 5.3 -185.55 8.5 -184.4 12.75 -184.9 17.05 -185.4 19.95 -187.25 22.85 -189.05 22.6 -191.1 22.35 -193.15 19.15 -194.25 16.2 -195.25 12.4 -194.95 12.35 -194.9 12.2 -194.9
L 7.85 -194.4 12.2 -194.9
Q 12.35 -195.6 12.25 -196.35 12 -198.8 9.1 -200.2 Z"/>
</g>

<g id="Duplicate_Items_Folder_final_tree_0_Layer1_0_FILL">
<path fill="#8F7A96" stroke="none" d="
M -24.25 -36.8
Q -34.65 -31.75 -24.25 -26.7
L -17.6 -27.5
Q -9.75 -26.65 -10.85 -16.7 -9.6 -21.1 -7.5 -25.15 -13.55 -40.3 -30.05 -48.05 -30.7 -47.75 -31.25 -47.5 -35.95 -45.35 -39.65 -42.8 -39.75 -36.2 -33.15 -40.75 -28.85 -45.75 -27.15 -40.6 -19.75 -44.5 -24.25 -36.8
M 19 -24.05
Q 19.5 -26.5 20.25 -29.35 9.05 -34.35 -2.1 -33.3 -2.95 -32.3 -3.7 -31.2 -5.05 -29.45 -6.15 -27.6 7.1 -30.5 19 -24.05 Z"/>

<path fill="#A897AC" stroke="none" d="
M -3.7 -31.2
Q -4.1 -32.4 -4.6 -33.6 -6.45 -38.1 -10.05 -42.55 -14.35 -47.85 -21 -53.1 -26.35 -49.9 -30.05 -48.05 -13.55 -40.3 -7.5 -25.15 -6.85 -26.4 -6.15 -27.6 -5.05 -29.45 -3.7 -31.2
M 20.6 -30.55
Q 21.35 -33.35 22.55 -36.2 15.05 -41.3 4.5 -40.1 0.75 -36.85 -2.1 -33.3 9.05 -34.35 20.25 -29.35 20.4 -29.95 20.6 -30.55 Z"/>

<path fill="#56475A" stroke="none" d="
M -55.3 -5.75
L -54.95 -5.75
Q -36.6 3.15 -13.25 -5.3
L -12.65 -5.25
Q -12.55 -7.95 -12.15 -10.5 -11.7 -13.7 -10.85 -16.7 -9.75 -26.65 -17.6 -27.5
L -24.25 -26.7
Q -34.65 -31.75 -24.25 -36.8 -19.75 -44.5 -27.15 -40.6 -28.85 -45.75 -33.15 -40.75 -39.75 -36.2 -39.65 -42.8 -43.65 -40.15 -46.45 -37.1 -52 -31.2 -53.95 -18.25 -54.9 -11.8 -55.3 -5.75
M -48.5 -18.9
Q -51.05 -21.5 -51.05 -25.2 -51.05 -28.85 -48.5 -31.5 -45.95 -34.1 -42.3 -34.1 -38.65 -34.1 -36.1 -31.5 -33.55 -28.85 -33.55 -25.15 -33.55 -21.5 -36.1 -18.9 -38.65 -16.25 -42.3 -16.25 -45.95 -16.25 -48.5 -18.9
M -23.45 -19
Q -23.45 -21.05 -22 -22.55 -20.5 -24.05 -18.4 -24.05 -16.3 -24.05 -14.8 -22.55 -13.3 -21.05 -13.3 -18.95 -13.3 -16.9 -14.8 -15.4 -16.3 -13.9 -18.4 -13.9 -20.5 -13.9 -22 -15.4 -23.45 -16.9 -23.45 -19
M -36.65 -15.15
Q -35.45 -16.3 -33.75 -16.3 -32 -16.3 -30.8 -15.15 -29.6 -13.95 -29.6 -12.35 -29.6 -10.75 -30.8 -9.6 -32 -8.4 -33.75 -8.4 -35.45 -8.4 -36.65 -9.6 -37.85 -10.75 -37.85 -12.35 -37.85 -13.95 -36.65 -15.15
M 14.15 -13.95
Q 16.15 -14.55 18.35 -12.4 18.9 -11.85 19.3 -11.3 17.25 -15.1 19 -24.05 7.1 -30.5 -6.15 -27.6 -6.85 -26.4 -7.5 -25.15 -9.6 -21.1 -10.85 -16.7 -11.7 -13.7 -12.15 -10.5 -12.55 -7.95 -12.65 -5.25 -12.65 -5.1 -12.65 -5 -3.35 -0.45 9.55 -3.2 14.45 -4.25 17.15 -5.55 15.7 -4.95 14.1 -4.95 12.1 -4.95 10.65 -6.15 9.2 -7.35 9.2 -9.1 9.2 -10.8 10.65 -12.05 12.1 -13.35 14.15 -13.95
M 12.3 -20.1
Q 12.95 -20.1 13.4 -19.65 13.85 -19.2 13.85 -18.55 13.85 -17.9 13.4 -17.45 12.95 -17 12.3 -17 11.65 -17 11.2 -17.45 10.75 -17.9 10.75 -18.55 10.75 -19.2 11.2 -19.65 11.65 -20.1 12.3 -20.1
M 2.45 -17.65
Q 4.15 -15.95 4.15 -13.5 4.15 -11.05 2.45 -9.35 0.75 -7.65 -1.7 -7.65 -4.15 -7.65 -5.85 -9.35 -7.55 -11.05 -7.55 -13.5 -7.55 -15.95 -5.85 -17.65 -4.15 -19.35 -1.7 -19.35 0.75 -19.35 2.45 -17.65 Z"/>

<path fill="#28222B" stroke="none" d="
M -33.75 -16.3
Q -35.45 -16.3 -36.65 -15.15 -37.85 -13.95 -37.85 -12.35 -37.85 -10.75 -36.65 -9.6 -35.45 -8.4 -33.75 -8.4 -32 -8.4 -30.8 -9.6 -29.6 -10.75 -29.6 -12.35 -29.6 -13.95 -30.8 -15.15 -32 -16.3 -33.75 -16.3
M -22 -22.55
Q -23.45 -21.05 -23.45 -19 -23.45 -16.9 -22 -15.4 -20.5 -13.9 -18.4 -13.9 -16.3 -13.9 -14.8 -15.4 -13.3 -16.9 -13.3 -18.95 -13.3 -21.05 -14.8 -22.55 -16.3 -24.05 -18.4 -24.05 -20.5 -24.05 -22 -22.55
M -51.05 -25.2
Q -51.05 -21.5 -48.5 -18.9 -45.95 -16.25 -42.3 -16.25 -38.65 -16.25 -36.1 -18.9 -33.55 -21.5 -33.55 -25.15 -33.55 -28.85 -36.1 -31.5 -38.65 -34.1 -42.3 -34.1 -45.95 -34.1 -48.5 -31.5 -51.05 -28.85 -51.05 -25.2
M 18.35 -12.4
Q 16.15 -14.55 14.15 -13.95 12.1 -13.35 10.65 -12.05 9.2 -10.8 9.2 -9.1 9.2 -7.35 10.65 -6.15 12.1 -4.95 14.1 -4.95 15.7 -4.95 17.15 -5.55 17.4392578125 -5.7306640625 17.75 -5.9 18.3484375 -6.2341796875 18.8 -6.6
L 19.05 -6.8
Q 19.9 -7.6 20.15 -8.65 20.2625 -9.1375 20.15 -9.65
L 20.05 -10
Q 19.9 -10.4 19.6 -10.8 19.45 -11.05 19.3 -11.3 18.9 -11.85 18.35 -12.4
M 4.15 -13.5
Q 4.15 -15.95 2.45 -17.65 0.75 -19.35 -1.7 -19.35 -4.15 -19.35 -5.85 -17.65 -7.55 -15.95 -7.55 -13.5 -7.55 -11.05 -5.85 -9.35 -4.15 -7.65 -1.7 -7.65 0.75 -7.65 2.45 -9.35 4.15 -11.05 4.15 -13.5
M 13.4 -19.65
Q 12.95 -20.1 12.3 -20.1 11.65 -20.1 11.2 -19.65 10.75 -19.2 10.75 -18.55 10.75 -17.9 11.2 -17.45 11.65 -17 12.3 -17 12.95 -17 13.4 -17.45 13.85 -17.9 13.85 -18.55 13.85 -19.2 13.4 -19.65 Z"/>

<path fill="#2F1E0D" stroke="none" d="
M 17.75 -5.9
Q 17.875390625 -5.94453125 18 -6 18.45 -6.3 18.8 -6.6 18.3484375 -6.2341796875 17.75 -5.9 Z"/>

<path fill="#6B441D" stroke="none" d="
M 20.15 -8.65
Q 19.9 -7.6 19.05 -6.8 20.5357421875 -8.1056640625 20.15 -9.65 20.2625 -9.1375 20.15 -8.65 Z"/>

<path fill="#BC8AD2" stroke="none" d="
M 32.65 -90.95
Q 33.7 -91.8 33.7 -92.95 33.7 -94.15 32.65 -95.05 31.65 -95.9 30.2 -95.9 29.45 -95.9 28.85 -95.65 28.2 -95.45 27.7 -95.05 26.7 -94.15 26.7 -93 26.7 -91.8 27.7 -90.95 28.75 -90.05 30.2 -90.05 31.65 -90.05 32.65 -90.95
M -3.3 -43.1
Q -2.2 -44.2 -2.05 -45.65 -2.05 -45.9 -2.05 -46.15 -2.05 -47.95 -3.3 -49.2 -4.55 -50.45 -6.35 -50.45 -8.15 -50.45 -9.4 -49.2 -10.65 -47.95 -10.65 -46.15 -10.65 -44.35 -9.4 -43.1 -8.15 -41.85 -6.35 -41.85 -4.55 -41.85 -3.3 -43.1
M 13.85 -52.4
Q 12.1 -52.4 10.85 -51.25 9.6 -50.05 9.6 -48.35 9.6 -46.6 10.85 -45.4 12.1 -44.2 13.85 -44.2 15.65 -44.2 16.9 -45.4 18.15 -46.6 18.15 -48.3 18.15 -50.05 16.9 -51.25 15.65 -52.4 13.85 -52.4
M 17.9 -70.4
Q 16.4 -71.1 14.65 -71.1 11.8 -71.1 9.7 -69.25 7.65 -67.4 7.65 -64.85 7.65 -62.25 9.7 -60.4 11.8 -58.55 14.65 -58.55 17.5 -58.55 19.55 -60.4 21.6 -62.25 21.6 -64.85 21.6 -67.4 19.55 -69.25 18.75 -69.95 17.9 -70.4
M 5.15 -118.15
Q 3.15 -118.15 1.7 -116.7 0.25 -115.25 0.25 -113.25 0.25 -111.2 1.7 -109.8 3.15 -108.35 5.15 -108.35 7.2 -108.35 8.6 -109.8 10.05 -111.2 10.05 -113.25 10.05 -115.25 8.6 -116.7 7.2 -118.15 5.15 -118.15
M 15.9 -131.7
Q 15 -133.95 14.15 -136.15 1.85 -137.95 -7.35 -127.9 -5.2 -121.6 -3.6 -117.05 3.05 -125.75 18.45 -125.75 17.25 -128.3 15.9 -131.7 Z"/>

<path fill="#CBC1CE" stroke="none" d="
M 1.2 -109.35
Q 4.6 -105.75 10.65 -100.8 22.6 -91.6 23.35 -87.5 23.45 -86.75 22.8 -85.6
L 27.7 -90.95
Q 26.7 -91.8 26.7 -93 26.7 -94.15 27.7 -95.05 28.2 -95.45 28.85 -95.65 29.45 -95.9 30.2 -95.9 31.65 -95.9 32.65 -95.05 33.7 -94.15 33.7 -92.95 33.7 -91.8 32.65 -90.95 31.65 -90.05 30.2 -90.05 28.75 -90.05 27.7 -90.95
L 22.8 -85.6
Q 21.25 -82.95 15.4 -78.15 12.15 -75.5 7.6 -72.2 4.7 -70.1 1.25 -67.7 -6.65 -62.3 -12.95 -58.2 -17.35 -55.35 -21 -53.1 -14.35 -47.85 -10.05 -42.55 -6.45 -38.1 -4.6 -33.6
L -2.1 -33.3
Q 0.75 -36.85 4.5 -40.1 15.05 -41.3 22.55 -36.2 26.85 -46.9 36.15 -58.2 37.5 -59.9 39 -61.55 39.65 -62.3 40.25 -63 53.25 -78.05 54.2 -86.15 54.75 -91.4 49.55 -97.55 46.3 -101.45 40.7 -105.7 35.8 -109.4 23.15 -118.05 21.4 -119.25 18.45 -125.75 3.05 -125.75 -3.6 -117.05 -3.2 -115.95 -2.85 -114.95 -2.05 -112.8 1.2 -109.35
M 17.3 -115.35
Q 18.15 -114.55 18.15 -113.4 18.15 -112.3 17.3 -111.5 16.45 -110.7 15.25 -110.7 14.05 -110.7 13.15 -111.5 12.3 -112.3 12.3 -113.45 12.3 -114.55 13.15 -115.35 14.05 -116.15 15.25 -116.15 16.45 -116.15 17.3 -115.35
M 1.7 -116.7
Q 3.15 -118.15 5.15 -118.15 7.2 -118.15 8.6 -116.7 10.05 -115.25 10.05 -113.25 10.05 -111.2 8.6 -109.8 7.2 -108.35 5.15 -108.35 3.15 -108.35 1.7 -109.8 0.25 -111.2 0.25 -113.25 0.25 -115.25 1.7 -116.7
M 24.35 -106.5
Q 25.95 -108 28.2 -108 30.5 -108 32.05 -106.5 33.65 -105 33.65 -102.95 33.65 -100.85 32.05 -99.35 30.6 -97.95 28.5 -97.85 28.35 -97.85 28.2 -97.85 25.95 -97.85 24.35 -99.35 22.8 -100.85 22.8 -102.95 22.8 -105 24.35 -106.5
M 48.35 -89.25
Q 46.7 -87.7 44.35 -87.7 42.05 -87.7 40.4 -89.25 38.75 -90.8 38.75 -92.95 38.75 -95.1 40.4 -96.65 42.05 -98.2 44.35 -98.2 46.7 -98.2 48.35 -96.65 50.05 -95.1 50.05 -92.95 50.05 -90.8 48.35 -89.25
M 17.1 -76.05
Q 18 -76.95 19.3 -76.95 20.6 -76.95 21.5 -76.05 22.4 -75.1 22.4 -73.75 22.4 -72.45 21.5 -71.55 20.6 -70.6 19.3 -70.6 18.65 -70.6 18.1 -70.8 17.55 -71.05 17.1 -71.55 16.2 -72.45 16.2 -73.8 16.2 -75.1 17.1 -76.05
M 14.65 -71.1
Q 16.4 -71.1 17.9 -70.4 18.75 -69.95 19.55 -69.25 21.6 -67.4 21.6 -64.85 21.6 -62.25 19.55 -60.4 17.5 -58.55 14.65 -58.55 11.8 -58.55 9.7 -60.4 7.65 -62.25 7.65 -64.85 7.65 -67.4 9.7 -69.25 11.8 -71.1 14.65 -71.1
M 10.85 -51.25
Q 12.1 -52.4 13.85 -52.4 15.65 -52.4 16.9 -51.25 18.15 -50.05 18.15 -48.3 18.15 -46.6 16.9 -45.4 15.65 -44.2 13.85 -44.2 12.1 -44.2 10.85 -45.4 9.6 -46.6 9.6 -48.35 9.6 -50.05 10.85 -51.25
M 35.85 -71.05
Q 37.25 -71.05 38.2 -70 39.2 -68.9 39.2 -67.35 39.2 -65.8 38.2 -64.75 37.75 -64.2 37.2 -63.95 36.55 -63.65 35.85 -63.65 34.5 -63.65 33.5 -64.75 32.55 -65.8 32.55 -67.35 32.55 -68.9 33.5 -70 34.5 -71.05 35.85 -71.05
M 0 -46.8
Q 0.5 -47.35 1.2 -47.35 1.95 -47.35 2.45 -46.8 2.95 -46.2 2.95 -45.4 2.95 -44.55 2.45 -44 1.95 -43.4 1.2 -43.4 0.5 -43.4 0 -44 -0.5 -44.55 -0.5 -45.4 -0.5 -46.2 0 -46.8
M -2.05 -45.65
Q -2.2 -44.2 -3.3 -43.1 -4.55 -41.85 -6.35 -41.85 -8.15 -41.85 -9.4 -43.1 -10.65 -44.35 -10.65 -46.15 -10.65 -47.95 -9.4 -49.2 -8.15 -50.45 -6.35 -50.45 -4.55 -50.45 -3.3 -49.2 -2.05 -47.95 -2.05 -46.15 -2.05 -45.9 -2.05 -45.65 Z"/>

<path fill="#B4A5B8" stroke="none" d="
M 1.2 -47.35
Q 0.5 -47.35 0 -46.8 -0.5 -46.2 -0.5 -45.4 -0.5 -44.55 0 -44 0.5 -43.4 1.2 -43.4 1.95 -43.4 2.45 -44 2.95 -44.55 2.95 -45.4 2.95 -46.2 2.45 -46.8 1.95 -47.35 1.2 -47.35
M 38.2 -70
Q 37.25 -71.05 35.85 -71.05 34.5 -71.05 33.5 -70 32.55 -68.9 32.55 -67.35 32.55 -65.8 33.5 -64.75 34.5 -63.65 35.85 -63.65 36.55 -63.65 37.2 -63.95 37.75 -64.2 38.2 -64.75 39.2 -65.8 39.2 -67.35 39.2 -68.9 38.2 -70
M 19.3 -76.95
Q 18 -76.95 17.1 -76.05 16.2 -75.1 16.2 -73.8 16.2 -72.45 17.1 -71.55 17.55 -71.05 18.1 -70.8 18.65 -70.6 19.3 -70.6 20.6 -70.6 21.5 -71.55 22.4 -72.45 22.4 -73.75 22.4 -75.1 21.5 -76.05 20.6 -76.95 19.3 -76.95
M 44.35 -87.7
Q 46.7 -87.7 48.35 -89.25 50.05 -90.8 50.05 -92.95 50.05 -95.1 48.35 -96.65 46.7 -98.2 44.35 -98.2 42.05 -98.2 40.4 -96.65 38.75 -95.1 38.75 -92.95 38.75 -90.8 40.4 -89.25 42.05 -87.7 44.35 -87.7
M 28.2 -108
Q 25.95 -108 24.35 -106.5 22.8 -105 22.8 -102.95 22.8 -100.85 24.35 -99.35 25.95 -97.85 28.2 -97.85 28.35 -97.85 28.5 -97.85 30.6 -97.95 32.05 -99.35 33.65 -100.85 33.65 -102.95 33.65 -105 32.05 -106.5 30.5 -108 28.2 -108
M 18.15 -113.4
Q 18.15 -114.55 17.3 -115.35 16.45 -116.15 15.25 -116.15 14.05 -116.15 13.15 -115.35 12.3 -114.55 12.3 -113.45 12.3 -112.3 13.15 -111.5 14.05 -110.7 15.25 -110.7 16.45 -110.7 17.3 -111.5 18.15 -112.3 18.15 -113.4 Z"/>

<path fill="#A865C5" stroke="none" d="
M 14.15 -136.15
Q 12.75 -139.85 11.55 -143.35 -2.25 -147.3 -9.85 -135.2 -8.55 -131.3 -7.35 -127.9 1.85 -137.95 14.15 -136.15 Z"/>
</g>

<path id="Duplicate_Items_Folder_final_tree_0_Layer14_0_1_STROKES" stroke="#000000" stroke-width="2" stroke-linejoin="round" stroke-linecap="round" fill="none" d="
M 45.8 -10.1
Q 45.5 -10.1 45.2 -10.05 43.25 -11.55 39.45 -12.85 31.6 -15.45 20.5 -15.45 9.4 -15.45 1.5 -12.85 -1.4 -11.85 -3.25 -10.75
M 45.8 -10.1
Q 51.05 -10.85 57.85 -11.75 67.45 -13.1 76.55 -10.3 81.95 -9.85 86.7 -9.05 88.15 -9.25 90.1 -9.4 96.4 -9.95 102.65 -10 108.9 -10.05 113.65 -9.45 118.4 -8.9 118.4 -8.1 118.4 -7.25 113.55 -6.25 108.65 -5.3 100.8 -5.1 100.55 -5.1 100.3 -5.1 103.3 -3.45 103.3 -1.5 103.3 2.35 91.3 5.1 79.3 7.85 62.3 7.85 48.8 7.85 38.4 6.1 41.85 8.65 41.85 11.55 41.85 17.75 26.25 22.1 10.65 26.5 -11.4 26.5 -33.45 26.5 -49.05 22.1 -64.65 17.75 -64.65 11.55 -64.65 10.05 -63.7 8.65 -64.5 8.65 -65.25 8.65 -80.15 8.65 -90.7 6.1 -96.3 4.75 -98.9 3.15 -101 3.2 -103.3 3.2 -112.9 3.2 -119.7 1.95 -126.45 0.7 -126.45 -1.1 -126.45 -2.85 -119.7 -4.15 -112.9 -5.4 -103.3 -5.4 -99 -5.4 -95.3 -5.15
M -93.7 -5.25
Q -92.3 -5.65 -90.7 -6.05 -80.15 -8.55 -65.25 -8.55 -58.05 -8.55 -51.85 -7.95"/>

<path id="Duplicate_Items_Folder_final_tree_0_Layer13_0_1_STROKES" stroke="#000000" stroke-width="2" stroke-linejoin="round" stroke-linecap="round" fill="none" d="
M 50.3 -47.7
Q 47.4 -49.85 43.65 -51.75 43.2 -51.95 42.7 -52.25
M 24.8 -32.25
Q 26.45 -28.75 27.45 -24.9
M 50.3 -47.7
Q 53.5 -45.35 55.7 -42.7 60.15 -37.5 61.7 -26.25 62.45 -20.6 62.75 -15.35
M 62.45 -15.35
Q 47.9 -7.6 29.35 -14.95 29.1 -14.85 28.9 -14.7 21.5 -10.75 11.25 -13.15 7.35 -14.05 5.2 -15.2 4.95 -15.35 4.75 -15.45
M 4.1 -15.95
Q 4 -16 3.9 -16.1
L 3.7 -16.3
Q 2.5 -17.4 2.85 -18.75
L 2.9 -19.1
Q 3.05 -19.4 3.25 -19.75 3.4 -19.95 3.5 -20.2 5.15 -23.55 3.75 -31.3 3.35 -33.45 2.75 -35.95 2.65 -36.5 2.45 -36.95 1.9 -39.45 0.9 -41.9 -2 -49.85 -7.8 -58.2 -8.45 -59.15 -9.15 -60.1
M 30.5 -60.1
Q 31.9 -59.1 33.2 -58.2 34.4 -57.35 35.5 -56.6 39.75 -53.8 42.7 -52.25
M 20.5 -39.4
Q 21.15 -38.5 21.75 -37.5 22.85 -36.05 23.7 -34.4 24.25 -33.35 24.8 -32.25
M 15.25 -45.3
Q 18.25 -42.45 20.5 -39.4
M 4.1 -15.95
Q 4.4 -15.7 4.75 -15.45
M 28.9 -14.9
Q 28.9 -14.8 28.9 -14.7
M 27.45 -24.9
Q 28.1 -22.25 28.5 -19.5 28.8 -17.25 28.9 -14.9"/>

<path id="Duplicate_Items_Folder_cap_copy_0_Layer0_0_1_STROKES" stroke="#000000" stroke-width="2" stroke-linejoin="round" stroke-linecap="round" fill="none" d="
M 0.8 51
Q 0.7 51.7 0.6 52.4
L 0 58.3
Q 14.5 64.25 28 67.2 29.3 67.5 30.65 67.75 33.4 68.25 36 68.65 36.05 68.65 36.1 68.7 36.1 68.65 36.15 68.7 60.55 72.3 82.05 65.85 98 61 112.35 50.55
L 112.2 47.75
Q 111.9 45.25 110.6 40.45 110.1 38.25 109.35 35.65 106.95 27.15 98.15 14.35 89.4 1.55 66.25 0.2 43.1 -1.2 26.55 8.5 9.95 18.15 3.55 38.8 1.8 44.6 0.8 51 Z
M 107.8 47.6
L 107.9 47.1
Q 94.6 43.15 81.9 41.45
M 107.8 47.6
Q 96.5 58.4 79.1 62.95 69.6 65.35 58.35 65.95 47.1 67.05 36.4 65.3 32.4 64.65 28.5 63.55 16.65 60.4 5.55 53.75
M 5.75 53.2
Q 10.8197265625 50.665234375 15.975 48.6
M 27.2 44.85
Q 30.25 43.95 33.45 43.2 47.1 40.05 61.7 40 71.6 40 81.9 41.45
M 15.975 48.6
L 18.55 47.7
Q 19.3 47.35 20.05 47.1
L 26.65 45.1
M 5.55 53.75
L 5.75 53.2"/>

<path id="Duplicate_Items_Folder_final_tree_0_Layer11_0_1_STROKES" stroke="#000000" stroke-width="2" stroke-linejoin="round" stroke-linecap="round" fill="none" d="
M -25.55 -110.55
Q -23.85 -113.95 -29.7 -114 -34.55 -117.4 -37.6 -117.85 -42.45 -118.85 -44.65 -119.15 -48.5 -119.8 -50 -118.85 -51.2 -118.05 -50.3 -115.45 -49.25 -112.7 -50.35 -111.6 -51.1 -110.8 -50.7 -109.9 -50.3 -109.1 -49.3 -108.65 -48.25 -108.2 -47.4 -108.35 -46.6 -108.65 -46.5 -109.7 -46.3 -111.65 -43.9 -113.15 -42.75 -113.95 -41.55 -114.3
L -41.25 -107.3 -35.65 -110.85 -30.6 -79.7
Q -31.6 -109 -25.3 -110.5
M -81.55 -106.2
L -83.05 -94.8
Q -88.15 -98.3 -88.7 -95.4
L -87.8 -79.8
Q -90.35 -83.8 -92.55 -79.6 -97.65 -80.15 -94.2 -73.8 -101.65 -73.7 -100.9 -41.7
L -106.05 -75.75 -105.65 -81.1 -106.05 -83.7
Q -106.45 -86.9 -106.55 -92.75 -106.65 -98.6 -102.15 -101.95 -97.7 -105.35 -91.1 -106.25 -93.1 -104.95 -93.1 -103.55 -93.15 -100.7 -91.25 -102.1 -89.3 -103.6 -87.35 -106.7 -86.4 -108.25 -85.4 -109.15 -84.85 -109.55 -83.9 -109.05 -81.95 -108.25 -81.9 -106.45
M -95.6 -92.6
Q -95.7 -94 -96.5 -95 -97.45 -95.95 -98.6 -95.9 -99.75 -95.85 -100.55 -94.8 -101.4 -93.8 -101.3 -92.35 -101.25 -90.95 -100.35 -89.95 -99.5 -89 -98.35 -89.05 -97.2 -89.1 -96.3 -90.15 -95.55 -91.15 -95.6 -92.6 Z"/>

<path id="Duplicate_Items_Folder_final_tree_0_Layer10_0_1_STROKES" stroke="#000000" stroke-width="2" stroke-linejoin="round" stroke-linecap="round" fill="none" d="
M -20.95 -100.6
Q -20.45 -102.95 -19.6 -105.6 -18.85 -108.2 -18.15 -110.6
M -29.85 -115.05
Q -31.4 -111.75 -33.65 -106.75 -34.25 -105.35 -34.85 -103.8 -40.5 -90.9 -29.35 -67.4 -24.45 -57.1 -19.45 -49.85 -17.3 -46.75 -15.1 -44.25
M -7.3 -71.35
L -10 -74.05
Q -20.1 -85.2 -21.4 -90.35 -22.3 -94.2 -20.95 -100.6
M -29.85 -115.05
Q -28.15 -118.55 -27.2 -120 -26.2 -121.5 -25.95 -121.3 -18.3 -120.55 -16.75 -114.9 -16.7 -114.85 -16.7 -114.7
L -16.75 -114.65
Q -17.4 -112.7 -18.15 -110.6
M -7.3 -71.35
L -0.65 -64.9 2.25 -60.4
M -8.65 -38.1
Q -11.9 -40.6 -15.1 -44.25"/>

<path id="Duplicate_Items_Folder_Symbol_2_0_Layer0_0_1_STROKES" stroke="#000000" stroke-width="2" stroke-linejoin="round" stroke-linecap="round" fill="none" d="
M 0.3 71.7
Q -0.25 65.3 0.3 59.2 2.25 37.45 19.2 23 36.1 8.5 63.75 2.4 91.35 -3.7 105.1 5.75 118.85 15.15 123.95 22.5 125.5 24.75 126.75 26.65 129.5 30.85 130.5 33.15
L 131.45 35.8
Q 117.35 50.3 99.9 60
L 99.85 60
Q 76.3 73.05 46.65 77.35 46.6 77.3 46.6 77.35 46.5 77.35 46.45 77.35 43.25 77.8 39.95 78.15 38.25 78.35 36.6 78.5 19.95 80 1.3 78.95
L 0.45 73.15
Q 0.35 72.4 0.3 71.7 Z
M 125.35 34.4
L 125.35 33.9
Q 108.6 34.35 93.2 36.75
M 125.35 34.4
Q 114.95 48.3 95.65 58.15 85.15 63.5 72.05 67.65 59.1 72.25 46.05 74 41.15 74.65 36.25 74.9 21.5 75.65 6.65 72.85
M 6.75 72.2
Q 12.55 67.8 18.7 63.85
M 29.7 57.45
Q 33.1 55.6 36.6 53.9 51.9 46.5 69.05 41.85 80.7 38.65 93.2 36.75
M 18.7 63.85
L 20.3 62.9
Q 21.1 62.35 21.95 61.85
L 29.15 57.85
Q 29.95 58.2 29.75 57.65 29.7 57.55 29.7 57.45
M 6.65 72.85
L 6.75 72.2"/>

<path id="Duplicate_Items_Folder_final_tree_0_Layer8_0_1_STROKES" stroke="#000000" stroke-width="2" stroke-linejoin="round" stroke-linecap="round" fill="none" d="
M -21.55 -47.8
Q -26.15 -50.15 -30.3 -55.6 -33.75 -60 -36.15 -63 -36.75 -63.75 -37.25 -64.35 -38.9 -66.45 -39.95 -68.45 -40.65 -69.7 -41.1 -70.85 -42.25 -73.95 -42.8 -75.65
L -43.75 -78
M -60.75 -70.65
Q -59.6 -65.4 -56.05 -58.2 -55.85 -57.8 -55.7 -57.4 -55.45 -56.8 -55.1 -56.2 -53.6 -53.2 -52.4 -50.25 -50.55 -45.8 -49.4 -41.45 -48.55 -38.2 -48.05 -35.15
M -21.55 -47.8
Q -17.45 -46.55 -15.45 -44.95 -15.15 -44.7 -14.8 -44.55 -12.8 -43.05 -11.1 -41.45 -10.7 -41.05 -10.3 -40.6 -8.3 -38.4 -6.95 -35.85 -4.3 -30.95 -4.55 -20.15 -4.65 -14.85 -5 -9.8
M -5.25 -9.8
Q -11.4 -6 -17.8 -6 -23.8 -6 -30.1 -9.4 -30.25 -9.3 -30.5 -9.15 -36.55 -5.35 -43.95 -7.7 -46.75 -8.6 -48.2 -9.65 -48.35 -9.8 -48.55 -9.9
L -48.55 -9.95
M -48.75 -10.15
Q -49 -10.4 -49.15 -10.65 -49.8 -11.65 -49.55 -12.8
L -49.4 -13.35
Q -49.3 -13.65 -49.05 -14 -48.95 -14.2 -48.8 -14.45 -47.2 -17.55 -47.25 -25.05 -47.3 -27.1 -47.45 -29.35 -47.45 -29.9 -47.55 -30.4 -47.65 -32.8 -48.05 -35.15
M -45.8 -80.85
Q -49 -83.8 -49.75 -83.45
L -50.2 -83.45 -60.9 -79.55
Q -61.45 -78.05 -61.5 -76.55 -61.5 -76.3 -61.5 -75.95 -61.5 -73.65 -60.75 -70.65
M -43.75 -78
L -44.55 -79.55
Q -45.2 -80.25 -45.8 -80.85
M -48.75 -10.15
Q -48.68671875 -10.1322265625 -48.55 -9.95
M -30.25 -18.9
Q -30.15 -16.4 -30.25 -13.75 -30.25 -11.6 -30.45 -9.4
M -33.7 -32.65
Q -33.3 -31.9 -33.05 -30.95 -32.4 -29.5 -31.9 -28 -31.6 -26.95 -31.35 -25.9 -30.55 -22.55 -30.25 -18.9
M -30.5 -9.15
Q -30.5 -9.3 -30.45 -9.4"/>

<path id="Duplicate_Items_Folder_final_tree_0_Layer7_0_1_STROKES" stroke="#000000" stroke-width="2" stroke-linejoin="round" stroke-linecap="round" fill="none" d="
M 138.6 -139.6
Q 139.4 -103.9 145.05 -110.35
L 149.3 -133.1 148.6 -141.6 148.95 -145.8
Q 149.25 -151 149.1 -160.45 148.95 -169.9 143.8 -175.05 138.65 -180.25 131.25 -181.3 133.55 -179.3 133.6 -177 133.8 -172.4 131.6 -174.6 129.35 -176.85 127.05 -181.75 125.9 -184.25 124.8 -185.55 124.1 -186.15 123.1 -185.35 120.95 -183.9 120.95 -181
M 120.6 -180.6
L 122.75 -162.2
Q 128.3 -168.2 129.1 -163.6 139.25 -152.65 131.5 -141.7 132.8 -141.6 134.05 -138.4 137.85 -139.2 138.6 -139.6 138.95 -139.8 138.6 -139.9
M 140 -165.05
Q 138.75 -164.95 137.8 -163.45 136.9 -161.8 136.9 -163.7 136.9 -165.6 137.85 -169.9 138.75 -174.05 140 -165.05 140.05 -165.05 140.1 -165.05 141.4 -165.05 142.35 -163.45 143.3 -161.8 143.3 -159.5 143.3 -157.25 142.35 -155.65 141.4 -154 140.1 -164.1 140.05 -164.6 140 -165.05 Z
M 57.75 -169.95
Q 55.75 -175.25 62.3 -175.7 67.55 -181.55 70.9 -182.4 76.3 -184.35 78.75 -185.05 83 -186.35 84.75 -184.85 86.15 -183.65 85.25 -179.45 84.2 -174.95 85.45 -173.2 86.3 -171.95 85.9 -170.45 85.5 -169.2 84.4 -168.35 83.3 -167.55 82.35 -167.85 81.35 -168.2 81.2 -169.95 80.95 -173.05 78.2 -175.35 76.85 -176.5 75.5 -177.05
L 75.5 -165.75 69.1 -171.05 64.85 -159
Q 64.65 -167.8 57.55 -169.85
M 46.2 -85.35
Q 46.2 -85.5 46.2 -85.65 46.55 -90.25 46.8 -95.85
L 46.7 -104.2
Q 46.95 -111.95 48.95 -109.3 50.9 -106.65 49.4 -115 48.65 -119.15 47.5 -123.85
L 46.05 -133.6
Q 44.55 -140.2 44.75 -141.85 44.9 -143.45 46.05 -141.6 48.15 -138.25 50.25 -139.55 51.1 -140.15 51.3 -140.1 52.2 -144.1 52.25 -150.3 52.35 -156.55 48.5 -159 46.05 -160.6 43.65 -155.65 41.2 -150.8 41.5 -146.85 41.8 -142.95 41.8 -141.85 41.7 -137.75 41.3 -129.55
L 40.7 -119.9
Q 44.2 -95.45 45.1 -85.45
M 46.2 -85.35
Q 45.55 -76.55 45.4 -81.65 45.3 -83.15 45.1 -85.45"/>

<path id="Duplicate_Items_Folder_final_tree_0_Layer6_0_1_STROKES" stroke="#000000" stroke-width="2" stroke-linejoin="round" stroke-linecap="round" fill="none" d="
M 8.05 -62.05
L 1.05 -67.3
Q -5.8 -73.4 -4.75 -77.95 -4.45 -79.2 -3.85 -83.6 -3.3 -87.25 -2.6 -89.55 -0.5 -96.35 6.3 -100.7 13 -105 22.1 -114.35 26.65 -119.05 29.95 -122.85 31.5 -127.65 25.7 -131.3 28.5 -130.95 31.25 -129.75 36 -127.65 35.85 -124.2 35.85 -123.8 35.75 -123.35 34.65 -118.2 30.55 -109.85 26.3 -101.1 23.65 -99.45 19.95 -97.15 15.6 -92.9 10.3 -87.8 10.55 -85.55 10.7 -83.35 14.9 -76.7
L 19 -70.4 14 -66.35 8.3 -61.8"/>

<path id="Duplicate_Items_Folder_final_tree_0_Layer5_0_1_STROKES" stroke="#000000" stroke-width="2" stroke-linejoin="round" stroke-linecap="round" fill="none" d="
M 102.55 -132.7
Q 102.55 -136.95 102.35 -138.8 102.1 -140.8 101.7 -140.6 93.95 -142.15 89.8 -136.6 89.7 -136.5 89.65 -136.4 89.6 -136.35 89.6 -136.25 89.35 -134 89.05 -131.6
M 102.55 -132.7
Q 102.5 -128.75 102.25 -122.7 102.2 -121.1 102.1 -119.3 101.4 -103.8 79.45 -82.1 76.3 -79.05 73.3 -76.3 63.15 -67 54.6 -61.75 51.15 -59.65 48 -58.2 44.95 -56.85 42.2 -56 26.95 -51.6 29.35 -53.4 31.75 -55.2 25.9 -54.25
L 27.45 -69.85 50.4 -88.15 59.95 -93.05 63.85 -95.05
Q 69.35 -98.25 73.3 -100.95 80.3 -105.7 82.6 -109 85.3 -112.8 87.05 -120.05 87.65 -122.65 88.15 -125.75 88.65 -128.8 89.05 -131.6"/>

<path id="Duplicate_Items_Folder_final_tree_0_Layer4_0_1_STROKES" stroke="#000000" stroke-width="2" stroke-linejoin="round" stroke-linecap="round" fill="none" d="
M 82.7 -34
Q 88.5 -34 92 -31.7
M 98.4 -39.75
Q 91.05 -44.95 81.3 -44.95 69.8 -44.95 61.65 -37.75 53.5 -30.5 53.5 -20.3 53.5 -19.05 52.5 -7.7
M 65.6 -10.45
Q 64.95 -24.6 69.9 -29.5 71.35 -30.9 79.2 -33.4
L 81.4 -34.1
M 106.3 -8.35
Q 108.65 -12.95 108.85 -19.7 109.1 -30.5 100.95 -37.75 99.7 -38.85 98.4 -39.75
M 92 -31.7
Q 93.4 -30.75 94.7 -29.5 99.85 -24.45 99.85 -17.35 99.85 -13.3 97.85 -8
M -98.75 -23.05
Q -99.6 -22.45 -100.4 -21.75 -105.65 -17.1 -105.5 -10.15 -105.35 -5.8 -103.85 -2.85
M -98.4 -2.6
Q -99.7 -6.05 -99.7 -8.65 -99.7 -13.2 -96.35 -16.45 -95.55 -17.25 -94.65 -17.85
M -98.75 -23.05
Q -94 -26.4 -87.75 -26.4 -80.35 -26.4 -75.1 -21.75 -69.85 -17.1 -69.85 -10.55 -69.85 -9.75 -69.25 -2.4
M -77.65 -4.2
Q -77.25 -13.3 -80.4 -16.45 -81.35 -17.35 -86.4 -18.95
L -87.8 -19.4
M -94.65 -17.85
Q -92.4 -19.35 -88.65 -19.35"/>

<path id="Duplicate_Items_Folder_final_tree_0_Layer3_0_1_STROKES" stroke="#000000" stroke-width="2" stroke-linejoin="round" stroke-linecap="round" fill="none" d="
M 48.25 -151.25
Q 46.55 -151.25 45.3 -153.4 44.1 -155.5 44.1 -158.5 44.1 -161.45 45.3 -163.6 46.55 -165.7 48.25 -165.7 50 -165.7 51.2 -163.6 52.45 -161.45 52.45 -158.45 52.45 -155.5 51.2 -153.4 50 -151.25 48.25 -151.25 Z
M 22.8 -186
L 25.6 -161.95
Q 32.85 -169.8 33.9 -163.8
L 33.45 -130.85
Q 36.95 -139.5 40.4 -130.85 47.75 -132.45 43.2 -118.8 54.05 -119.2 54.75 -94.25
L 60.3 -123.95 59.4 -135.05 59.85 -140.55
Q 60.25 -147.3 60.05 -159.65 59.8 -172 53.1 -178.75 46.4 -185.55 36.7 -186.9 39.7 -184.25 39.8 -181.25 40.05 -175.25 37.15 -178.15 34.25 -181.05 31.25 -187.5 29.75 -190.75 28.3 -192.45 27.4 -193.2 26.05 -192.2 23.25 -190.3 23.25 -186.5
M -48.5 -167.3
Q -51.1 -174.2 -42.55 -174.75 -35.7 -182.4 -31.35 -183.55 -24.25 -186.05 -21.1 -187 -15.55 -188.7 -13.25 -186.75 -11.4 -185.15 -12.6 -179.65 -13.95 -173.8 -12.3 -171.5 -11.2 -169.85 -11.75 -167.95 -12.25 -166.3 -13.7 -165.2 -15.15 -164.15 -16.35 -164.55 -17.7 -165 -17.9 -167.3 -18.2 -171.35 -21.8 -174.35 -23.55 -175.85 -25.3 -176.55
L -25.3 -161.8 -33.65 -168.7 -39.2 -152.95
Q -39.5 -164.45 -48.75 -167.15
M -63.55 -56.8
Q -63.55 -57 -63.55 -57.2 -63.15 -63.2 -62.8 -70.5
L -62.95 -81.4
Q -62.6 -91.55 -60 -88.1 -57.45 -84.65 -59.4 -95.5 -60.35 -100.95 -61.85 -107.1
L -63.75 -119.8
Q -65.75 -128.4 -65.5 -130.55 -65.3 -132.7 -63.75 -130.25 -61 -125.9 -58.3 -127.6 -57.15 -128.35 -56.95 -128.3
L -56.9 -128.3
Q -55.75 -133.5 -55.65 -141.6 -55.55 -149.75 -60.55 -152.95 -63.75 -155.05 -66.9 -148.6 -70.1 -142.25 -69.7 -137.1 -69.3 -132 -69.3 -130.55 -69.45 -125.25 -70 -114.55
L -70.75 -101.95
Q -66.2 -70 -65 -56.95
M -63.55 -56.8
Q -64.4 -45.35 -64.65 -51.95 -64.75 -53.95 -65 -56.95"/>

<path id="Duplicate_Items_Folder_final_tree_0_Layer2_0_1_STROKES" stroke="#000000" stroke-width="2" stroke-linejoin="round" stroke-linecap="round" fill="none" d="
M -15.8 -194.5
Q -15.45 -194.45 -15.2 -194.25 -13.35 -194.8 -11.1 -195.05 -8.45 -195.35 -6.15 -195.15 -5.9 -197.1 -3.95 -198.75 -1.4 -200.8 2.4 -201.25 6.2 -201.65 9.1 -200.2 12 -198.8 12.25 -196.35 12.35 -195.6 12.2 -194.9 12.35 -194.9 12.4 -194.95 16.2 -195.25 19.15 -194.25 22.35 -193.15 22.6 -191.1 22.85 -189.05 19.95 -187.25 17.05 -185.4 12.75 -184.9 8.5 -184.4 5.3 -185.55 2.35 -186.6 2 -188.4 1.15 -187.1 -0.85 -185.9 -4.4 -183.8 -9.75 -183.2 -15.05 -182.6 -19 -183.85
L -19.05 -183.85 -19.15 -183.8 -19.2 -183.8
Q -20.55 -183.4 -22.1 -183.25 -26.45 -182.75 -29.75 -184.25 -33 -185.7 -33.3 -188.2 -33.6 -190.7 -30.75 -192.85 -27.85 -195 -23.5 -195.5 -19.1 -196 -15.85 -194.55
L -15.8 -194.5 -10.9 -191.9
M 12.2 -194.9
L 7.85 -194.4
M -19.05 -183.85
L -15.2 -185.6
M -32.35 -177.05
Q -34.4 -175.6 -37.5 -175.25 -40.6 -174.9 -42.9 -175.85 -45.2 -176.8 -45.4 -178.5 -45.6 -180.15 -43.55 -181.6 -41.5 -183 -38.4 -183.35 -35.3 -183.7 -33 -182.8 -30.65 -181.85 -30.45 -180.15 -30.25 -178.5 -32.35 -177.05 Z"/>

<path id="Duplicate_Items_Folder_final_tree_0_Layer1_0_1_STROKES" stroke="#000000" stroke-width="2" stroke-linejoin="round" stroke-linecap="round" fill="none" d="
M -7.35 -127.9
Q -8.55 -131.3 -9.85 -135.2 -2.25 -147.3 11.55 -143.35 12.75 -139.85 14.15 -136.15 15 -133.95 15.9 -131.7 17.25 -128.3 18.45 -125.75 21.4 -119.25 23.15 -118.05 35.8 -109.4 40.7 -105.7 46.3 -101.45 49.55 -97.55 54.75 -91.4 54.2 -86.15 53.25 -78.05 40.25 -63 39.65 -62.3 39 -61.55 37.5 -59.9 36.15 -58.2 26.85 -46.9 22.55 -36.2 21.35 -33.35 20.6 -30.55 20.4 -29.95 20.25 -29.35 19.5 -26.5 19 -24.05 17.25 -15.1 19.3 -11.3 19.45 -11.05 19.6 -10.8 19.9 -10.4 20.05 -10
L 20.15 -9.65
Q 20.5357421875 -8.1056640625 19.05 -6.8
L 18.825 -6.6
M 17.75 -5.875
Q 17.4392578125 -5.7306640625 17.15 -5.55 14.45 -4.25 9.55 -3.2 -3.35 -0.45 -12.65 -5 -12.95 -5.15 -13.25 -5.3 -36.6 3.15 -54.95 -5.75
M -55.3 -5.75
Q -54.9 -11.8 -53.95 -18.25 -52 -31.2 -46.45 -37.1 -43.65 -40.15 -39.65 -42.8 -35.95 -45.35 -31.25 -47.5 -30.7 -47.75 -30.05 -48.05 -26.35 -49.9 -21 -53.1 -17.35 -55.35 -12.95 -58.2 -6.65 -62.3 1.25 -67.7 4.7 -70.1 7.6 -72.2 12.15 -75.5 15.4 -78.15 21.25 -82.95 22.8 -85.6 23.45 -86.75 23.35 -87.5 22.6 -91.6 10.65 -100.8 4.6 -105.75 1.2 -109.35 -2.05 -112.8 -2.85 -114.95 -3.2 -115.95 -3.6 -117.05 -5.2 -121.6 -7.35 -127.9
M 27.7 -90.95
L 22.8 -85.6
M 18.825 -6.6
Q 18.3484375 -6.2341796875 17.75 -5.875
M 4.5 -40.1
Q 0.75 -36.85 -2.1 -33.3 -2.95 -32.3 -3.7 -31.2
M -7.5 -25.15
Q -6.85 -26.4 -6.15 -27.6 -5.05 -29.45 -3.7 -31.2
M -10.85 -16.7
Q -9.6 -21.1 -7.5 -25.15
M -12.65 -5
Q -12.65 -5.1 -12.65 -5.25 -12.55 -7.95 -12.15 -10.5 -11.7 -13.7 -10.85 -16.7"/>
</defs>

<g transform="matrix( 1.8479766845703125, 0, 0, 1.8479766845703125, 258.75,444.65) ">
<g transform="matrix( 1, 0, 0, 1, 0,0) ">
<use xlink:href="#Duplicate_Items_Folder_final_tree_0_Layer14_0_FILL"/>

<use xlink:href="#Duplicate_Items_Folder_final_tree_0_Layer14_0_1_STROKES"/>
</g>

<g transform="matrix( 1, 0, 0, 1, 0,0) ">
<use xlink:href="#Duplicate_Items_Folder_final_tree_0_Layer13_0_FILL"/>

<use xlink:href="#Duplicate_Items_Folder_final_tree_0_Layer13_0_1_STROKES"/>
</g>

<g filter="url(#Filter_1)" transform="matrix( 0.5411224365234375, 0, 0, 0.5411224365234375, -140,-240.6) ">
<g transform="matrix( 1.411346435546875, -0.1854248046875, 0.1854248046875, 1.411346435546875, 54.8,236.25) ">
<g transform="matrix( 1, 0, 0, 1, 0,0) ">
<use xlink:href="#Duplicate_Items_Folder_cap_copy_0_Layer0_0_FILL"/>

<use xlink:href="#Duplicate_Items_Folder_cap_copy_0_Layer0_0_1_STROKES"/>
</g>
</g>
</g>

<g transform="matrix( 1, 0, 0, 1, 0,0) ">
<use xlink:href="#Duplicate_Items_Folder_final_tree_0_Layer11_0_FILL"/>

<use xlink:href="#Duplicate_Items_Folder_final_tree_0_Layer11_0_1_STROKES"/>
</g>

<g transform="matrix( 1, 0, 0, 1, 0,0) ">
<use xlink:href="#Duplicate_Items_Folder_final_tree_0_Layer10_0_FILL"/>

<use xlink:href="#Duplicate_Items_Folder_final_tree_0_Layer10_0_1_STROKES"/>
</g>

<g filter="url(#Filter_2)" transform="matrix( 0.5411224365234375, 0, 0, 0.5411224365234375, -140,-240.6) ">
<g transform="matrix( 1.7483673095703125, 0.202392578125, -0.202392578125, 1.7483673095703125, 349.9,87.85) ">
<g transform="matrix( 1, 0, 0, 1, 0,0) ">
<use xlink:href="#Duplicate_Items_Folder_cap_copy_0_Layer0_0_FILL"/>

<use xlink:href="#Duplicate_Items_Folder_cap_copy_0_Layer0_0_1_STROKES"/>
</g>
</g>
</g>

<g filter="url(#Filter_3)" transform="matrix( 0.5411224365234375, 0, 0, 0.5411224365234375, -140,-240.6) ">
<g transform="matrix( 1.8479766845703125, 0, 0, 1.8479766845703125, 134.75,87.8) ">
<g transform="matrix( 1, 0, 0, 1, 0,0) ">
<use xlink:href="#Duplicate_Items_Folder_Symbol_2_0_Layer0_0_FILL"/>

<use xlink:href="#Duplicate_Items_Folder_Symbol_2_0_Layer0_0_1_STROKES"/>
</g>
</g>
</g>

<g transform="matrix( 1, 0, 0, 1, 0,0) ">
<use xlink:href="#Duplicate_Items_Folder_final_tree_0_Layer8_0_FILL"/>

<use xlink:href="#Duplicate_Items_Folder_final_tree_0_Layer8_0_1_STROKES"/>
</g>

<g transform="matrix( 1, 0, 0, 1, 0,0) ">
<use xlink:href="#Duplicate_Items_Folder_final_tree_0_Layer7_0_FILL"/>

<use xlink:href="#Duplicate_Items_Folder_final_tree_0_Layer7_0_1_STROKES"/>
</g>

<g transform="matrix( 1, 0, 0, 1, 0,0) ">
<use xlink:href="#Duplicate_Items_Folder_final_tree_0_Layer6_0_FILL"/>

<use xlink:href="#Duplicate_Items_Folder_final_tree_0_Layer6_0_1_STROKES"/>
</g>

<g transform="matrix( 1, 0, 0, 1, 0,0) ">
<use xlink:href="#Duplicate_Items_Folder_final_tree_0_Layer5_0_FILL"/>

<use xlink:href="#Duplicate_Items_Folder_final_tree_0_Layer5_0_1_STROKES"/>
</g>

<g transform="matrix( 1, 0, 0, 1, 0,0) ">
<use xlink:href="#Duplicate_Items_Folder_final_tree_0_Layer4_0_FILL"/>

<use xlink:href="#Duplicate_Items_Folder_final_tree_0_Layer4_0_1_STROKES"/>
</g>

<g transform="matrix( 1, 0, 0, 1, 0,0) ">
<use xlink:href="#Duplicate_Items_Folder_final_tree_0_Layer3_0_FILL"/>

<use xlink:href="#Duplicate_Items_Folder_final_tree_0_Layer3_0_1_STROKES"/>
</g>

<g transform="matrix( 1, 0, 0, 1, 0,0) ">
<use xlink:href="#Duplicate_Items_Folder_final_tree_0_Layer2_0_FILL"/>

<use xlink:href="#Duplicate_Items_Folder_final_tree_0_Layer2_0_1_STROKES"/>
</g>

<g transform="matrix( 1, 0, 0, 1, 0,0) ">
<use xlink:href="#Duplicate_Items_Folder_final_tree_0_Layer1_0_FILL"/>

<use xlink:href="#Duplicate_Items_Folder_final_tree_0_Layer1_0_1_STROKES"/>
</g>
</g>
</svg>
