
<svg xmlns="http://www.w3.org/2000/svg" version="1.1" xmlns:xlink="http://www.w3.org/1999/xlink" preserveAspectRatio="none" x="0px" y="0px" width="560px" height="544px" viewBox="0 0 560 544">
<defs>
<linearGradient id="Gradient_1" gradientUnits="userSpaceOnUse" x1="0.01249999999999929" y1="4.35" x2="11.9875" y2="4.35" spreadMethod="pad">
<stop  offset="0%" stop-color="#999999"/>

<stop  offset="46.27450980392157%" stop-color="#666666"/>

<stop  offset="100%" stop-color="#8C8C8C"/>
</linearGradient>

<g id="Layer0_0_FILL">
<path fill="#FFCC00" stroke="none" d="
M 260.25 512.45
L 285.75 522.15
Q 276.55 491.3 273.5 439.6 259.4 395.3 260.25 512.45
M 264.1 299.35
Q 269.3 324.55 266.7 356.05 275.4 395.95 275.25 270.25 259.1 268.95 264.1 299.35 Z"/>

<path fill="#FF6600" stroke="none" d="
M 343.1 192.7
L 381.9 176.05 407.75 140.35 431.65 149.7 440.05 169.1 433.1 185.75 415.2 174.6 428.9 199.65 448.3 206.45 456.7 163.6 433.1 120.65 405.8 121.3 379 146.95 363.65 122.55 365.9 155.7 343.1 171.85 323.75 183 323.75 167.65 319.55 152.45 312.6 137.3 312.6 115.15 300.15 134.55 287.7 130.35 271.05 137.3 265.55 157.95 273.8 174.6 293.2 171.85 278 164.9 286.25 148.25 307.1 164.9 307.1 192.7 283.5 210.65 257.15 207.9 229.55 188.5 226 182.85 226.95 157.95 212.9 168.15 186.55 134.55 175.55 115.15
Q 168.3 94.8 176.85 66.65
L 196.25 52.75 208.7 55.5 212.9 76.35 200.45 94.3 221.3 98.5 226.8 72.15 253.1 58.25 229.55 58.25 220.3 47.6
Q 208.85 35.8 197.7 30.65 186.55 25.45 171.5 41.3 164.1 49.4 158.9 58.25
L 136.8 61 157.45 77.65 158.9 131.8 138.1 124.85 124.35 95.75 115.95 128.85 99.3 152.45 117.4 181.55 139.55 187.05 147.75 167.65 129.85 174.6 124.35 160.85 135.35 140
Q 169.9 164.9 183.8 178.8 194.8 189.8 214.35 218.25
L 190.75 232.45 223.9 232.3
Q 240.2 257.5 243.45 268.8 247.15 281.4 241.35 357.2
L 221.3 356.05 239.85 375.6
Q 234.4 442.5 227.25 446.7 220.15 450.6 201.25 462.05 182.35 473.5 178.8 491.6
L 179.6 493.25
Q 207.4 478.85 235.05 494.55 208.55 511.5 212.9 534.75
L 260.25 512.45
Q 259.4 395.3 273.5 439.6 276.55 491.3 285.75 522.15
L 304.35 504.4
Q 318.25 492.9 365.1 516.85 355.1 467.7 298.85 457.2
L 298.05 447.85 311.3 432.3 296.45 431.35 294.65 414.2 294.65 351.85 298.85 310.35 309.85 289.65 321 290.6 336.15 299.35
Q 341.85 313.9 334.4 328.4
L 348.6 314.55
Q 353.8 297.9 340.35 281.25
L 311.3 274.3 294.65 281.25 297.4 245.2 308.55 220.35 329.25 205.15 350.05 220.35 343.1 192.7
M 266.7 356.05
Q 269.3 324.55 264.1 299.35 259.1 268.95 275.25 270.25 275.4 395.95 266.7 356.05 Z"/>
</g>

<g id="Duplicate_Items_Folder_chain_link_0_Layer0_0_FILL">
<path fill="url(#Gradient_1)" stroke="none" d="
M 12 4.35
Q 12 2.55 10.7 1.25 9.4 0 7.6 0
L 4.35 0
Q 2.55 0 1.3 1.25 1.1666015625 1.3833984375 1.05 1.5
L 4.9 2 4.85 2.35
Q 5.0669921875 2.3 5.3 2.3
L 6.75 2.3
Q 7.5 2.3 8.1 2.85 8.65 3.4 8.65 4.2 8.65 5 8.1 5.55 7.5 6.1 6.75 6.1
L 5.3 6.1
Q 4.5 6.1 3.95 5.55 3.5279296875 5.1279296875 3.4 4.55
L 0 4.1
Q 0 4.2421875 0 4.35 0 6.2 1.3 7.45 2.55 8.75 4.35 8.75
L 7.6 8.75
Q 9.4 8.75 10.7 7.45 12 6.2 12 4.35 Z"/>
</g>

<g id="Duplicate_Items_Folder_skull_0_Layer1_0_FILL">
<path fill="#D5D5D5" stroke="none" d="
M -4.1 -10.15
Q -2.55 -10.95 -1 -11.4 -1.4 -11.35 -1.85 -11.25 -6.5 -10.45 -8.35 -8.6 -10.2 -6.7 -9.35 -4.2 -8.55 -1.65 -6.25 0.15 -5.5 0.8 -5 1.05 -10 -4.5 -7 -8 -6.9 -8 -6.6 -7.85 -6.25 -7.8 -5.5 -8.65 -4.75 -9.55 -3.95 -9.45 -3.85 -9.45 -3.8 -9.45 -4 -10 -4.1 -10.15 Z"/>

<path fill="#FFFFFF" stroke="none" d="
M 7.05 -5
Q 7.4 -8.3 5.2 -10.15 3.15 -11.85 -1 -11.4 -2.55 -10.95 -4.1 -10.15 -4 -10 -3.8 -9.45 -3.85 -9.45 -3.95 -9.45 -4.75 -9.55 -5.5 -8.65 -6.25 -7.8 -6.6 -7.85 -6.9 -8 -7 -8 -10 -4.5 -5 1.05
L -4.95 1.1
Q -4.75 1.5 -4.75 1.75 -4.75 3.4 -3.85 4.6 0.1 5.95 3.45 4.3 4.1 3.15 4.1 1.8 4.1 1.2 4.25 0.95 4.25 0.5 4.5 0.25 6.7 -1.65 7.05 -5
M 2.4 -10.3
Q 3.1 -10.3 3.6 -9.8 4.15 -9.3 4.15 -8.55
L 4.15 -8.15
Q 4.15 -7.4 3.6 -6.9 3.1 -6.35 2.4 -6.35 2.95 -11.9 -1.9 -8.5
L -1.9 -8.6
Q -1.9 -9.3 -1.4 -9.9 -0.9 -10.3 -0.3 -10.65 1.05 -11.35 2.4 -10.3 Z"/>

<path fill="#777777" stroke="none" d="
M 3.6 -9.8
Q 3.1 -10.3 2.4 -10.3 1.05 -11.35 -0.3 -10.65 -0.9 -10.3 -1.4 -9.9 -1.9 -9.3 -1.9 -8.6
L -1.9 -8.5
Q 2.95 -11.9 2.4 -6.35 3.1 -6.35 3.6 -6.9 4.15 -7.4 4.15 -8.15
L 4.15 -8.55
Q 4.15 -9.3 3.6 -9.8 Z"/>
</g>

<g id="Duplicate_Items_Folder_skull_0_Layer0_0_FILL">
<path fill="#FF0000" stroke="none" d="
M 1.75 0.85
Q 1.45 0.85 1.25 1.05 1.05 1.25 1.05 1.45 2 2.45 1.25 3.4 1.25 3.6 1.5 3.8 1.75 3.85 2.1 3.8 2.4 3.8 2.6 3.6 2.75 3.45 2.75 3.25 1.55 2.65 2.6 1.2 2.5 1.05 2.35 0.95 2.1 0.8 1.75 0.85
M -1.7 1.25
Q -2.05 1.1 -2.35 1.1 -2.75 1.1 -2.9 1.3 -3.15 1.5 -3.15 1.75 -2.05 2.6 -3 3.65 -2.9 3.9 -2.65 4.05 -2.4 4.15 -2.1 4.1 -1.7 4.1 -1.45 3.9 -1.25 3.8 -1.25 3.5 -2.4 2.95 -1.4 1.65 -1.45 1.4 -1.7 1.25
M -0.75 0.3
Q -1 0.5 -1 0.7 -0.2 1.8 -0.7 3.6 -0.7 3.85 -0.45 3.9 -0.25 4.1 0.05 4.05 0.35 3.95 0.55 3.85 0.75 3.65 0.75 3.45 -0.2 2.15 0.45 0.5 0.45 0.3 0.25 0.25 0 0.1 -0.3 0.1 -0.6 0.15 -0.75 0.3 Z"/>

<path fill="#000000" stroke="none" d="
M -2.4 -6.65
Q -3.15 -7.4 -4.1 -7.4 -5.15 -7.4 -6 -6.8 -6.9 -6.15 -6.85 -5 -6.75 -3.8 -5.8 -2.55 -4.85 -1.35 -3.85 -1.35 -2.9 -1.35 -2.35 -2.55 -1.7 -3.6 -1.7 -4.75 -1.7 -5.85 -2.4 -6.65
M 1.65 -1.85
Q 2.75 -1.95 3.65 -3.3 4.55 -4.65 4.8 -6.35 5.05 -8 3.9 -8.55 2.75 -9.05 1.7 -9.05 0.55 -9.05 -0.2 -8.1 -0.95 -7.15 -0.95 -5.75 -0.95 -4.4 -0.2 -3.05 0.55 -1.65 1.65 -1.85 Z"/>
</g>

<path id="Layer0_0_1_STROKES" stroke="#FFCC00" stroke-width="2" stroke-linejoin="round" stroke-linecap="round" fill="none" d="
M 178.8 491.6
Q 182.35 473.5 201.25 462.05 220.15 450.6 227.25 446.7 234.4 442.5 239.85 375.6
L 221.3 356.05 241.35 357.2
Q 247.15 281.4 243.45 268.8 240.2 257.5 223.9 232.3
L 190.75 232.45 214.35 218.25
Q 194.8 189.8 183.8 178.8 169.9 164.9 135.35 140
L 124.35 160.85 129.85 174.6 147.75 167.65 139.55 187.05 117.4 181.55 99.3 152.45 115.95 128.85 124.35 95.75 138.1 124.85 158.9 131.8 157.45 77.65 136.8 61 158.9 58.25
Q 164.1 49.4 171.5 41.3 186.55 25.45 197.7 30.65 208.85 35.8 220.3 47.6
L 229.55 58.25 253.1 58.25 226.8 72.15 221.3 98.5 200.45 94.3 212.9 76.35 208.7 55.5 196.25 52.75 176.85 66.65
Q 168.3 94.8 175.55 115.15
L 186.55 134.55 212.9 168.15 226.95 157.95 226 182.85 229.55 188.5 257.15 207.9 283.5 210.65 307.1 192.7 307.1 164.9 286.25 148.25 278 164.9 293.2 171.85 273.8 174.6 265.55 157.95 271.05 137.3 287.7 130.35 300.15 134.55 312.6 115.15 312.6 137.3 319.55 152.45 323.75 167.65 323.75 183 343.1 171.85 365.9 155.7 363.65 122.55 379 146.95 405.8 121.3 433.1 120.65 456.7 163.6 448.3 206.45 428.9 199.65 415.2 174.6 433.1 185.75 440.05 169.1 431.65 149.7 407.75 140.35 381.9 176.05 343.1 192.7 350.05 220.35 329.25 205.15 308.55 220.35 297.4 245.2 294.65 281.25 311.3 274.3 340.35 281.25
Q 353.8 297.9 348.6 314.55
L 334.4 328.4
Q 341.85 313.9 336.15 299.35
L 321 290.6 309.85 289.65 298.85 310.35 294.65 351.85 294.65 414.2 296.45 431.35 311.3 432.3 298.05 447.85 298.85 457.2
Q 355.1 467.7 365.1 516.85 318.25 492.9 304.35 504.4
L 285.75 522.15 260.25 512.45 212.9 534.75
Q 208.55 511.5 235.05 494.55 207.4 478.85 179.6 493.25"/>

<path id="Duplicate_Items_Folder_chain_link_0_Layer0_0_1_STROKES" stroke="#333333" stroke-width="1.5" stroke-linejoin="round" stroke-linecap="round" fill="none" d="
M 0 4.125
Q 0 4.2421875 0 4.35 0 6.2 1.3 7.45 2.55 8.75 4.35 8.75
L 7.6 8.75
Q 9.4 8.75 10.7 7.45 12 6.2 12 4.35 12 2.55 10.7 1.25 9.4 0 7.6 0
L 4.35 0
Q 2.55 0 1.3 1.25 1.1666015625 1.3833984375 1.05 1.525"/>

<path id="Duplicate_Items_Folder_chain_link_0_Layer0_0_2_STROKES" stroke="#FFFFFF" stroke-width="1.5" stroke-linejoin="round" stroke-linecap="round" fill="none" d="
M 4.85 2.35
Q 5.0669921875 2.3 5.3 2.3
L 6.75 2.3
Q 7.5 2.3 8.1 2.85 8.65 3.4 8.65 4.2 8.65 5 8.1 5.55 7.5 6.1 6.75 6.1
L 5.3 6.1
Q 4.5 6.1 3.95 5.55 3.5279296875 5.1279296875 3.425 4.55"/>

<path id="Duplicate_Items_Folder_skull_0_Layer1_0_1_STROKES" stroke="#000000" stroke-width="1.5" stroke-linejoin="round" stroke-linecap="round" fill="none" d="
M -1 -11.4
Q 3.15 -11.85 5.2 -10.15 7.4 -8.3 7.05 -5 6.7 -1.65 4.5 0.25 4.25 0.5 4.25 0.95 4.1 1.2 4.1 1.8 4.1 3.15 3.45 4.3 0.1 5.95 -3.85 4.6 -4.75 3.4 -4.75 1.75 -4.75 1.5 -4.95 1.1
L -5 1.05
Q -5.5 0.8 -6.25 0.15 -8.55 -1.65 -9.35 -4.2 -10.2 -6.7 -8.35 -8.6 -6.5 -10.45 -1.85 -11.25 -1.4 -11.35 -1 -11.4 Z"/>
</defs>

<g transform="matrix( 1, 0, 0, 1, 0,0) ">
<use xlink:href="#Layer0_0_FILL"/>

<use xlink:href="#Layer0_0_1_STROKES"/>
</g>

<g transform="matrix( -1.1963348388671875, 2.410614013671875, -2.410614013671875, -1.1963348388671875, 192.8,160.6) ">
<g transform="matrix( 1, 0, 0, 1, 0,0) ">
<use xlink:href="#Duplicate_Items_Folder_chain_link_0_Layer0_0_FILL"/>

<use xlink:href="#Duplicate_Items_Folder_chain_link_0_Layer0_0_1_STROKES"/>

<use xlink:href="#Duplicate_Items_Folder_chain_link_0_Layer0_0_2_STROKES"/>
</g>
</g>

<g transform="matrix( 0.7372283935546875, -2.5867919921875, 2.5867919921875, 0.7372283935546875, 173.85,166.9) ">
<g transform="matrix( 1, 0, 0, 1, 0,0) ">
<use xlink:href="#Duplicate_Items_Folder_chain_link_0_Layer0_0_FILL"/>

<use xlink:href="#Duplicate_Items_Folder_chain_link_0_Layer0_0_1_STROKES"/>

<use xlink:href="#Duplicate_Items_Folder_chain_link_0_Layer0_0_2_STROKES"/>
</g>
</g>

<g transform="matrix( -0.3459930419921875, -2.664154052734375, 2.664154052734375, -0.3459930419921875, 185.5,150.9) ">
<g transform="matrix( 1, 0, 0, 1, 0,0) ">
<use xlink:href="#Duplicate_Items_Folder_chain_link_0_Layer0_0_FILL"/>

<use xlink:href="#Duplicate_Items_Folder_chain_link_0_Layer0_0_1_STROKES"/>

<use xlink:href="#Duplicate_Items_Folder_chain_link_0_Layer0_0_2_STROKES"/>
</g>
</g>

<g transform="matrix( -1.7787017822265625, 2.0137176513671875, -2.0137176513671875, -1.7787017822265625, 260,286.65) ">
<g transform="matrix( 1, 0, 0, 1, 0,0) ">
<use xlink:href="#Duplicate_Items_Folder_chain_link_0_Layer0_0_FILL"/>

<use xlink:href="#Duplicate_Items_Folder_chain_link_0_Layer0_0_1_STROKES"/>

<use xlink:href="#Duplicate_Items_Folder_chain_link_0_Layer0_0_2_STROKES"/>
</g>
</g>

<g transform="matrix( 2.597198486328125, -0.6942596435546875, 0.6942596435546875, 2.597198486328125, 245.65,269.4) ">
<g transform="matrix( 1, 0, 0, 1, 0,0) ">
<use xlink:href="#Duplicate_Items_Folder_chain_link_0_Layer0_0_FILL"/>

<use xlink:href="#Duplicate_Items_Folder_chain_link_0_Layer0_0_1_STROKES"/>

<use xlink:href="#Duplicate_Items_Folder_chain_link_0_Layer0_0_2_STROKES"/>
</g>
</g>

<g transform="matrix( 2.1800384521484375, -1.5682525634765625, 1.5682525634765625, 2.1800384521484375, 265.2,273.25) ">
<g transform="matrix( 1, 0, 0, 1, 0,0) ">
<use xlink:href="#Duplicate_Items_Folder_chain_link_0_Layer0_0_FILL"/>

<use xlink:href="#Duplicate_Items_Folder_chain_link_0_Layer0_0_1_STROKES"/>

<use xlink:href="#Duplicate_Items_Folder_chain_link_0_Layer0_0_2_STROKES"/>
</g>
</g>

<g transform="matrix( 0.5748443603515625, -2.617218017578125, 2.617218017578125, 0.5748443603515625, 287.3,269.05) ">
<g transform="matrix( 1, 0, 0, 1, 0,0) ">
<use xlink:href="#Duplicate_Items_Folder_chain_link_0_Layer0_0_FILL"/>

<use xlink:href="#Duplicate_Items_Folder_chain_link_0_Layer0_0_1_STROKES"/>

<use xlink:href="#Duplicate_Items_Folder_chain_link_0_Layer0_0_2_STROKES"/>
</g>
</g>

<g transform="matrix( -0.0985565185546875, 2.6805877685546875, -2.6805877685546875, -0.0985565185546875, 244.8,290.35) ">
<g transform="matrix( 1, 0, 0, 1, 0,0) ">
<use xlink:href="#Duplicate_Items_Folder_chain_link_0_Layer0_0_FILL"/>

<use xlink:href="#Duplicate_Items_Folder_chain_link_0_Layer0_0_1_STROKES"/>

<use xlink:href="#Duplicate_Items_Folder_chain_link_0_Layer0_0_2_STROKES"/>
</g>
</g>

<g transform="matrix( -1.547637939453125, -2.408782958984375, 2.408782958984375, -1.547637939453125, 232.7,414.95) ">
<g transform="matrix( 1, 0, 0, 1, 0,0) ">
<use xlink:href="#Duplicate_Items_Folder_chain_link_0_Layer0_0_FILL"/>

<use xlink:href="#Duplicate_Items_Folder_chain_link_0_Layer0_0_1_STROKES"/>

<use xlink:href="#Duplicate_Items_Folder_chain_link_0_Layer0_0_2_STROKES"/>
</g>
</g>

<g transform="matrix( 2.7758026123046875, 0.6998443603515625, -0.6998443603515625, 2.7758026123046875, 239.2,388.6) ">
<g transform="matrix( 1, 0, 0, 1, 0,0) ">
<use xlink:href="#Duplicate_Items_Folder_chain_link_0_Layer0_0_FILL"/>

<use xlink:href="#Duplicate_Items_Folder_chain_link_0_Layer0_0_1_STROKES"/>

<use xlink:href="#Duplicate_Items_Folder_chain_link_0_Layer0_0_2_STROKES"/>
</g>
</g>

<g transform="matrix( 2.8406524658203125, -0.3292236328125, 0.3292236328125, 2.8406524658203125, 255.3,402.3) ">
<g transform="matrix( 1, 0, 0, 1, 0,0) ">
<use xlink:href="#Duplicate_Items_Folder_chain_link_0_Layer0_0_FILL"/>

<use xlink:href="#Duplicate_Items_Folder_chain_link_0_Layer0_0_1_STROKES"/>

<use xlink:href="#Duplicate_Items_Folder_chain_link_0_Layer0_0_2_STROKES"/>
</g>
</g>

<g transform="matrix( 2.475555419921875, -1.4246063232421875, 1.4246063232421875, 2.475555419921875, 276,407.15) ">
<g transform="matrix( 1, 0, 0, 1, 0,0) ">
<use xlink:href="#Duplicate_Items_Folder_chain_link_0_Layer0_0_FILL"/>

<use xlink:href="#Duplicate_Items_Folder_chain_link_0_Layer0_0_1_STROKES"/>

<use xlink:href="#Duplicate_Items_Folder_chain_link_0_Layer0_0_2_STROKES"/>
</g>
</g>

<g transform="matrix( 0.13775634765625, 2.69873046875, -2.66253662109375, 0.1462860107421875, 455.8,220.9) ">
<g transform="matrix( 1, 0, 0, 1, 0,0) ">
<use xlink:href="#Duplicate_Items_Folder_chain_link_0_Layer0_0_FILL"/>

<use xlink:href="#Duplicate_Items_Folder_chain_link_0_Layer0_0_1_STROKES"/>

<use xlink:href="#Duplicate_Items_Folder_chain_link_0_Layer0_0_2_STROKES"/>
</g>
</g>

<g transform="matrix( -1.2294769287109375, -2.3701324462890625, 2.38763427734375, -1.2623138427734375, 440,235.1) ">
<g transform="matrix( 1, 0, 0, 1, 0,0) ">
<use xlink:href="#Duplicate_Items_Folder_chain_link_0_Layer0_0_FILL"/>

<use xlink:href="#Duplicate_Items_Folder_chain_link_0_Layer0_0_1_STROKES"/>

<use xlink:href="#Duplicate_Items_Folder_chain_link_0_Layer0_0_2_STROKES"/>
</g>
</g>

<g transform="matrix( -1.1952667236328125, -2.388031005859375, 2.4050445556640625, -1.2283477783203125, 440,213.8) ">
<g transform="matrix( 1, 0, 0, 1, 0,0) ">
<use xlink:href="#Duplicate_Items_Folder_chain_link_0_Layer0_0_FILL"/>

<use xlink:href="#Duplicate_Items_Folder_chain_link_0_Layer0_0_1_STROKES"/>

<use xlink:href="#Duplicate_Items_Folder_chain_link_0_Layer0_0_2_STROKES"/>
</g>
</g>

<g transform="matrix( 2.9294586181640625, -1.35467529296875, 1.35467529296875, 2.9294586181640625, 295.55,314.1) ">
<g transform="matrix( 1, 0, 0, 1, 0,0) ">
<use xlink:href="#Duplicate_Items_Folder_skull_0_Layer1_0_FILL"/>

<use xlink:href="#Duplicate_Items_Folder_skull_0_Layer1_0_1_STROKES"/>
</g>

<g transform="matrix( 1, 0, 0, 1, 0,0) ">
<use xlink:href="#Duplicate_Items_Folder_skull_0_Layer0_0_FILL"/>
</g>
</g>

<g transform="matrix( 2.84912109375, 1.5054779052734375, -1.5054779052734375, 2.84912109375, 185.7,51.7) ">
<g transform="matrix( 1, 0, 0, 1, 0,0) ">
<use xlink:href="#Duplicate_Items_Folder_skull_0_Layer1_0_FILL"/>

<use xlink:href="#Duplicate_Items_Folder_skull_0_Layer1_0_1_STROKES"/>
</g>

<g transform="matrix( 1, 0, 0, 1, 0,0) ">
<use xlink:href="#Duplicate_Items_Folder_skull_0_Layer0_0_FILL"/>
</g>
</g>

<g transform="matrix( 3.1807403564453125, 0.4652252197265625, -0.4652252197265625, 3.1807403564453125, 446.8,282.15) ">
<g transform="matrix( 1, 0, 0, 1, 0,0) ">
<use xlink:href="#Duplicate_Items_Folder_skull_0_Layer1_0_FILL"/>

<use xlink:href="#Duplicate_Items_Folder_skull_0_Layer1_0_1_STROKES"/>
</g>

<g transform="matrix( 1, 0, 0, 1, 0,0) ">
<use xlink:href="#Duplicate_Items_Folder_skull_0_Layer0_0_FILL"/>
</g>
</g>

<g transform="matrix( 2.84912109375, 1.5054779052734375, -1.5054779052734375, 2.84912109375, 329.95,507.85) ">
<g transform="matrix( 1, 0, 0, 1, 0,0) ">
<use xlink:href="#Duplicate_Items_Folder_skull_0_Layer1_0_FILL"/>

<use xlink:href="#Duplicate_Items_Folder_skull_0_Layer1_0_1_STROKES"/>
</g>

<g transform="matrix( 1, 0, 0, 1, 0,0) ">
<use xlink:href="#Duplicate_Items_Folder_skull_0_Layer0_0_FILL"/>
</g>
</g>

<g transform="matrix( 0.52203369140625, -3.1766510009765625, 3.1766510009765625, 0.52203369140625, 182.95,485.25) ">
<g transform="matrix( 1, 0, 0, 1, 0,0) ">
<use xlink:href="#Duplicate_Items_Folder_skull_0_Layer1_0_FILL"/>

<use xlink:href="#Duplicate_Items_Folder_skull_0_Layer1_0_1_STROKES"/>
</g>

<g transform="matrix( 1, 0, 0, 1, 0,0) ">
<use xlink:href="#Duplicate_Items_Folder_skull_0_Layer0_0_FILL"/>
</g>
</g>
</svg>
