
<svg xmlns="http://www.w3.org/2000/svg" version="1.1" xmlns:xlink="http://www.w3.org/1999/xlink" preserveAspectRatio="none" x="0px" y="0px" width="560px" height="544px" viewBox="0 0 560 544">
<defs>
<linearGradient id="Gradient_1" gradientUnits="userSpaceOnUse" x1="0.01249999999999929" y1="4.35" x2="11.9875" y2="4.35" spreadMethod="pad">
<stop  offset="0%" stop-color="#999999"/>

<stop  offset="46.27450980392157%" stop-color="#666666"/>

<stop  offset="100%" stop-color="#8C8C8C"/>
</linearGradient>

<g id="Layer0_0_FILL">
<path fill="#441B6D" stroke="none" d="
M 259.25 512.95
L 284.8 522.65
Q 275.6 491.75 272.5 440 258.45 395.75 259.25 512.95 Z"/>

<path fill="#0B0514" stroke="none" d="
M 404.9 121.55
L 378.1 147.25 362.7 122.85 365 156 342.2 172.15 322.8 183.3 322.8 167.95 318.6 152.75 311.65 137.55 311.65 115.4 299.2 134.8 286.75 130.6 270.1 137.55 264.6 158.25 272.85 174.9 292.25 172.15 277.05 165.2 285.3 148.55 306.15 165.2 306.15 193 282.55 210.95 256.2 208.2 228.55 188.8 225 183.15 225.95 158.25 211.9 168.45 185.55 134.8 174.55 115.4
Q 167.3 95.05 175.85 66.95
L 195.25 53.05 207.7 55.75 211.9 76.65 199.45 94.55 220.3 98.75 225.8 72.45 252.15 58.5 228.55 58.5 219.35 47.85
Q 207.85 36.05 196.7 30.9 185.55 25.7 170.5 41.55 163.1 49.65 157.9 58.5
L 135.75 61.25 156.45 77.9 157.9 132.05 137.05 125.1 123.3 96.05 114.9 129.15 98.25 152.75 116.35 181.85 138.5 187.35 146.75 167.95 128.8 174.9 123.3 161.15 134.3 140.3
Q 168.9 165.2 182.8 179.1 193.8 190.1 213.35 218.55
L 189.75 232.8 222.9 232.6
Q 239.2 257.85 242.45 269.15 246.15 281.75 240.35 357.6
L 220.3 356.45 238.9 376
Q 233.4 442.95 226.3 447.15 219.2 451 200.25 462.5 181.35 473.95 177.8 492.05
L 178.6 493.7
Q 206.4 479.3 234.05 495 207.55 511.95 211.9 535.25
L 259.25 512.95
Q 258.45 395.75 272.5 440 275.6 491.75 284.8 522.65
L 303.4 504.85
Q 317.3 493.35 364.2 517.3 354.15 468.15 297.9 457.65
L 297.1 448.25 310.35 432.75 295.5 431.8 293.7 414.65 293.7 352.25 297.9 310.7 308.9 290 320.05 291 335.25 299.7
Q 340.9 314.25 333.45 328.8
L 347.7 314.9
Q 352.85 298.25 339.45 281.6
L 310.35 274.65 293.7 281.6 296.45 245.55 307.6 220.65 328.3 205.45 349.15 220.65 342.2 193 381 176.35 406.85 140.65 430.8 150 439.2 169.4 432.25 186.05 414.3 174.9 428.05 199.95 447.45 206.75 455.85 163.9 432.25 120.9 404.9 121.55
M 265.75 356.45
Q 268.3 324.95 263.15 299.7 258.15 269.3 274.3 270.6 274.45 396.4 265.75 356.45 Z"/>

<path fill="#1E0E36" stroke="none" d="
M 263.15 299.7
Q 268.3 324.95 265.75 356.45 274.45 396.4 274.3 270.6 258.15 269.3 263.15 299.7 Z"/>
</g>

<g id="chain_link_0_Layer0_0_FILL">
<path fill="url(#Gradient_1)" stroke="none" d="
M 12 4.35
Q 12 2.55 10.7 1.25 9.4 0 7.6 0
L 4.35 0
Q 2.55 0 1.3 1.25 1.1666015625 1.3833984375 1.05 1.5
L 4.9 2 4.85 2.35
Q 5.0669921875 2.3 5.3 2.3
L 6.75 2.3
Q 7.5 2.3 8.1 2.85 8.65 3.4 8.65 4.2 8.65 5 8.1 5.55 7.5 6.1 6.75 6.1
L 5.3 6.1
Q 4.5 6.1 3.95 5.55 3.5279296875 5.1279296875 3.4 4.55
L 0 4.1
Q 0 4.2421875 0 4.35 0 6.2 1.3 7.45 2.55 8.75 4.35 8.75
L 7.6 8.75
Q 9.4 8.75 10.7 7.45 12 6.2 12 4.35 Z"/>
</g>

<g id="skull_0_Layer1_0_FILL">
<path fill="#D5D5D5" stroke="none" d="
M -1 -11.4
Q -1.4 -11.35 -1.85 -11.25 -6.5 -10.45 -8.35 -8.6 -10.2 -6.7 -9.35 -4.2 -8.55 -1.65 -6.25 0.15 -5.5 0.8 -5 1.05 -10 -4.5 -7 -8 -6.9 -8 -6.6 -7.85 -6.25 -7.8 -5.5 -8.65 -4.75 -9.55 -3.95 -9.45 -3.85 -9.45 -3.8 -9.45 -4 -10 -4.1 -10.15 -2.55 -10.95 -1 -11.4 Z"/>

<path fill="#999999" stroke="none" d="
M 7.05 -5
Q 7.4 -8.3 5.2 -10.15 3.15 -11.85 -1 -11.4 -2.55 -10.95 -4.1 -10.15 -4 -10 -3.8 -9.45 -3.85 -9.45 -3.95 -9.45 -4.75 -9.55 -5.5 -8.65 -6.25 -7.8 -6.6 -7.85 -6.9 -8 -7 -8 -10 -4.5 -5 1.05
L -4.95 1.1
Q -4.75 1.5 -4.75 1.75 -4.75 3.4 -3.85 4.6 0.1 5.95 3.45 4.3 4.1 3.15 4.1 1.8 4.1 1.2 4.25 0.95 4.25 0.5 4.5 0.25 6.7 -1.65 7.05 -5
M 2.4 -10.3
Q 3.1 -10.3 3.6 -9.8 4.15 -9.3 4.15 -8.55
L 4.15 -8.15
Q 4.15 -7.4 3.6 -6.9 3.1 -6.35 2.4 -6.35 2.95 -11.9 -1.9 -8.5
L -1.9 -8.6
Q -1.9 -9.3 -1.4 -9.9 -0.9 -10.3 -0.3 -10.65 1.05 -11.35 2.4 -10.3 Z"/>

<path fill="#777777" stroke="none" d="
M 3.6 -9.8
Q 3.1 -10.3 2.4 -10.3 1.05 -11.35 -0.3 -10.65 -0.9 -10.3 -1.4 -9.9 -1.9 -9.3 -1.9 -8.6
L -1.9 -8.5
Q 2.95 -11.9 2.4 -6.35 3.1 -6.35 3.6 -6.9 4.15 -7.4 4.15 -8.15
L 4.15 -8.55
Q 4.15 -9.3 3.6 -9.8 Z"/>
</g>

<g id="skull_0_Layer0_0_FILL">
<path fill="#FFFFFF" stroke="none" d="
M 1.75 0.85
Q 1.45 0.85 1.25 1.05 1.05 1.25 1.05 1.45 2 2.45 1.25 3.4 1.25 3.6 1.5 3.8 1.75 3.85 2.1 3.8 2.4 3.8 2.6 3.6 2.75 3.45 2.75 3.25 1.55 2.65 2.6 1.2 2.5 1.05 2.35 0.95 2.1 0.8 1.75 0.85
M -1.7 1.25
Q -2.05 1.1 -2.35 1.1 -2.75 1.1 -2.9 1.3 -3.15 1.5 -3.15 1.75 -2.05 2.6 -3 3.65 -2.9 3.9 -2.65 4.05 -2.4 4.15 -2.1 4.1 -1.7 4.1 -1.45 3.9 -1.25 3.8 -1.25 3.5 -2.4 2.95 -1.4 1.65 -1.45 1.4 -1.7 1.25
M -0.75 0.3
Q -1 0.5 -1 0.7 -0.2 1.8 -0.7 3.6 -0.7 3.85 -0.45 3.9 -0.25 4.1 0.05 4.05 0.35 3.95 0.55 3.85 0.75 3.65 0.75 3.45 -0.2 2.15 0.45 0.5 0.45 0.3 0.25 0.25 0 0.1 -0.3 0.1 -0.6 0.15 -0.75 0.3 Z"/>

<path fill="#000000" stroke="none" d="
M -2.4 -6.65
Q -3.15 -7.4 -4.1 -7.4 -5.15 -7.4 -6 -6.8 -6.9 -6.15 -6.85 -5 -6.75 -3.8 -5.8 -2.55 -4.85 -1.35 -3.85 -1.35 -2.9 -1.35 -2.35 -2.55 -1.7 -3.6 -1.7 -4.75 -1.7 -5.85 -2.4 -6.65
M 1.65 -1.85
Q 2.75 -1.95 3.65 -3.3 4.55 -4.65 4.8 -6.35 5.05 -8 3.9 -8.55 2.75 -9.05 1.7 -9.05 0.55 -9.05 -0.2 -8.1 -0.95 -7.15 -0.95 -5.75 -0.95 -4.4 -0.2 -3.05 0.55 -1.65 1.65 -1.85 Z"/>
</g>

<path id="Layer0_0_1_STROKES" stroke="#411E69" stroke-width="2" stroke-linejoin="round" stroke-linecap="round" fill="none" d="
M 177.8 492.05
Q 181.35 473.95 200.25 462.5 219.2 451 226.3 447.15 233.4 442.95 238.9 376
L 220.3 356.45 240.35 357.6
Q 246.15 281.75 242.45 269.15 239.2 257.85 222.9 232.6
L 189.75 232.8 213.35 218.55
Q 193.8 190.1 182.8 179.1 168.9 165.2 134.3 140.3
L 123.3 161.15 128.8 174.9 146.75 167.95 138.5 187.35 116.35 181.85 98.25 152.75 114.9 129.15 123.3 96.05 137.05 125.1 157.9 132.05 156.45 77.9 135.75 61.25 157.9 58.5
Q 163.1 49.65 170.5 41.55 185.55 25.7 196.7 30.9 207.85 36.05 219.35 47.85
L 228.55 58.5 252.15 58.5 225.8 72.45 220.3 98.75 199.45 94.55 211.9 76.65 207.7 55.75 195.25 53.05 175.85 66.95
Q 167.3 95.05 174.55 115.4
L 185.55 134.8 211.9 168.45 225.95 158.25 225 183.15 228.55 188.8 256.2 208.2 282.55 210.95 306.15 193 306.15 165.2 285.3 148.55 277.05 165.2 292.25 172.15 272.85 174.9 264.6 158.25 270.1 137.55 286.75 130.6 299.2 134.8 311.65 115.4 311.65 137.55 318.6 152.75 322.8 167.95 322.8 183.3 342.2 172.15 365 156 362.7 122.85 378.1 147.25 404.9 121.55 432.25 120.9 455.85 163.9 447.45 206.75 428.05 199.95 414.3 174.9 432.25 186.05 439.2 169.4 430.8 150 406.85 140.65 381 176.35 342.2 193 349.15 220.65 328.3 205.45 307.6 220.65 296.45 245.55 293.7 281.6 310.35 274.65 339.45 281.6
Q 352.85 298.25 347.7 314.9
L 333.45 328.8
Q 340.9 314.25 335.25 299.7
L 320.05 291 308.9 290 297.9 310.7 293.7 352.25 293.7 414.65 295.5 431.8 310.35 432.75 297.1 448.25 297.9 457.65
Q 354.15 468.15 364.2 517.3 317.3 493.35 303.4 504.85
L 284.8 522.65 259.25 512.95 211.9 535.25
Q 207.55 511.95 234.05 495 206.4 479.3 178.6 493.7"/>

<path id="chain_link_0_Layer0_0_1_STROKES" stroke="#CCCCCC" stroke-width="1.5" stroke-linejoin="round" stroke-linecap="round" fill="none" d="
M 4.85 2.35
Q 5.0669921875 2.3 5.3 2.3
L 6.75 2.3
Q 7.5 2.3 8.1 2.85 8.65 3.4 8.65 4.2 8.65 5 8.1 5.55 7.5 6.1 6.75 6.1
L 5.3 6.1
Q 4.5 6.1 3.95 5.55 3.5279296875 5.1279296875 3.425 4.55"/>

<path id="chain_link_0_Layer0_0_2_STROKES" stroke="#333333" stroke-width="1.5" stroke-linejoin="round" stroke-linecap="round" fill="none" d="
M 0 4.125
Q 0 4.2421875 0 4.35 0 6.2 1.3 7.45 2.55 8.75 4.35 8.75
L 7.6 8.75
Q 9.4 8.75 10.7 7.45 12 6.2 12 4.35 12 2.55 10.7 1.25 9.4 0 7.6 0
L 4.35 0
Q 2.55 0 1.3 1.25 1.1666015625 1.3833984375 1.05 1.525"/>

<path id="skull_0_Layer1_0_1_STROKES" stroke="#000000" stroke-width="1.5" stroke-linejoin="round" stroke-linecap="round" fill="none" d="
M -1 -11.4
Q 3.15 -11.85 5.2 -10.15 7.4 -8.3 7.05 -5 6.7 -1.65 4.5 0.25 4.25 0.5 4.25 0.95 4.1 1.2 4.1 1.8 4.1 3.15 3.45 4.3 0.1 5.95 -3.85 4.6 -4.75 3.4 -4.75 1.75 -4.75 1.5 -4.95 1.1
L -5 1.05
Q -5.5 0.8 -6.25 0.15 -8.55 -1.65 -9.35 -4.2 -10.2 -6.7 -8.35 -8.6 -6.5 -10.45 -1.85 -11.25 -1.4 -11.35 -1 -11.4 Z"/>
</defs>

<g transform="matrix( 1, 0, 0, 1, 0,0) ">
<use xlink:href="#Layer0_0_FILL"/>

<use xlink:href="#Layer0_0_1_STROKES"/>
</g>

<g transform="matrix( -1.1968841552734375, 2.41168212890625, -2.41168212890625, -1.1968841552734375, 191.9,161.05) ">
<g transform="matrix( 1, 0, 0, 1, 0,0) ">
<use xlink:href="#chain_link_0_Layer0_0_FILL"/>

<use xlink:href="#chain_link_0_Layer0_0_1_STROKES"/>

<use xlink:href="#chain_link_0_Layer0_0_2_STROKES"/>
</g>
</g>

<g transform="matrix( 0.737548828125, -2.5879669189453125, 2.5879669189453125, 0.737548828125, 173,167.3) ">
<g transform="matrix( 1, 0, 0, 1, 0,0) ">
<use xlink:href="#chain_link_0_Layer0_0_FILL"/>

<use xlink:href="#chain_link_0_Layer0_0_1_STROKES"/>

<use xlink:href="#chain_link_0_Layer0_0_2_STROKES"/>
</g>
</g>

<g transform="matrix( -0.3460845947265625, -2.6653289794921875, 2.6653289794921875, -0.3460845947265625, 184.6,151.3) ">
<g transform="matrix( 1, 0, 0, 1, 0,0) ">
<use xlink:href="#chain_link_0_Layer0_0_FILL"/>

<use xlink:href="#chain_link_0_Layer0_0_1_STROKES"/>

<use xlink:href="#chain_link_0_Layer0_0_2_STROKES"/>
</g>
</g>

<g transform="matrix( -1.7794952392578125, 2.0146331787109375, -2.0146331787109375, -1.7794952392578125, 259.15,287.15) ">
<g transform="matrix( 1, 0, 0, 1, 0,0) ">
<use xlink:href="#chain_link_0_Layer0_0_FILL"/>

<use xlink:href="#chain_link_0_Layer0_0_1_STROKES"/>

<use xlink:href="#chain_link_0_Layer0_0_2_STROKES"/>
</g>
</g>

<g transform="matrix( 2.5983734130859375, -0.694580078125, 0.694580078125, 2.5983734130859375, 244.8,269.85) ">
<g transform="matrix( 1, 0, 0, 1, 0,0) ">
<use xlink:href="#chain_link_0_Layer0_0_FILL"/>

<use xlink:href="#chain_link_0_Layer0_0_1_STROKES"/>

<use xlink:href="#chain_link_0_Layer0_0_2_STROKES"/>
</g>
</g>

<g transform="matrix( 2.1810150146484375, -1.5689239501953125, 1.5689239501953125, 2.1810150146484375, 264.3,273.7) ">
<g transform="matrix( 1, 0, 0, 1, 0,0) ">
<use xlink:href="#chain_link_0_Layer0_0_FILL"/>

<use xlink:href="#chain_link_0_Layer0_0_1_STROKES"/>

<use xlink:href="#chain_link_0_Layer0_0_2_STROKES"/>
</g>
</g>

<g transform="matrix( 0.575103759765625, -2.6183319091796875, 2.6183319091796875, 0.575103759765625, 286.5,269.45) ">
<g transform="matrix( 1, 0, 0, 1, 0,0) ">
<use xlink:href="#chain_link_0_Layer0_0_FILL"/>

<use xlink:href="#chain_link_0_Layer0_0_1_STROKES"/>

<use xlink:href="#chain_link_0_Layer0_0_2_STROKES"/>
</g>
</g>

<g transform="matrix( -0.098602294921875, 2.6818084716796875, -2.6818084716796875, -0.098602294921875, 243.95,290.85) ">
<g transform="matrix( 1, 0, 0, 1, 0,0) ">
<use xlink:href="#chain_link_0_Layer0_0_FILL"/>

<use xlink:href="#chain_link_0_Layer0_0_1_STROKES"/>

<use xlink:href="#chain_link_0_Layer0_0_2_STROKES"/>
</g>
</g>

<g transform="matrix( -1.5483245849609375, -2.4098663330078125, 2.4098663330078125, -1.5483245849609375, 231.8,415.45) ">
<g transform="matrix( 1, 0, 0, 1, 0,0) ">
<use xlink:href="#chain_link_0_Layer0_0_FILL"/>

<use xlink:href="#chain_link_0_Layer0_0_1_STROKES"/>

<use xlink:href="#chain_link_0_Layer0_0_2_STROKES"/>
</g>
</g>

<g transform="matrix( 2.777008056640625, 0.7001190185546875, -0.7001190185546875, 2.777008056640625, 238.25,389.15) ">
<g transform="matrix( 1, 0, 0, 1, 0,0) ">
<use xlink:href="#chain_link_0_Layer0_0_FILL"/>

<use xlink:href="#chain_link_0_Layer0_0_1_STROKES"/>

<use xlink:href="#chain_link_0_Layer0_0_2_STROKES"/>
</g>
</g>

<g transform="matrix( 2.8419342041015625, -0.329315185546875, 0.329315185546875, 2.8419342041015625, 254.45,402.85) ">
<g transform="matrix( 1, 0, 0, 1, 0,0) ">
<use xlink:href="#chain_link_0_Layer0_0_FILL"/>

<use xlink:href="#chain_link_0_Layer0_0_1_STROKES"/>

<use xlink:href="#chain_link_0_Layer0_0_2_STROKES"/>
</g>
</g>

<g transform="matrix( 2.4766693115234375, -1.4252471923828125, 1.4252471923828125, 2.4766693115234375, 275.15,407.7) ">
<g transform="matrix( 1, 0, 0, 1, 0,0) ">
<use xlink:href="#chain_link_0_Layer0_0_FILL"/>

<use xlink:href="#chain_link_0_Layer0_0_1_STROKES"/>

<use xlink:href="#chain_link_0_Layer0_0_2_STROKES"/>
</g>
</g>

<g transform="matrix( 0.1378173828125, 2.6999664306640625, -2.663726806640625, 0.146331787109375, 455.1,221.3) ">
<g transform="matrix( 1, 0, 0, 1, 0,0) ">
<use xlink:href="#chain_link_0_Layer0_0_FILL"/>

<use xlink:href="#chain_link_0_Layer0_0_1_STROKES"/>

<use xlink:href="#chain_link_0_Layer0_0_2_STROKES"/>
</g>
</g>

<g transform="matrix( -1.23004150390625, -2.3712005615234375, 2.388671875, -1.26287841796875, 439.25,235.55) ">
<g transform="matrix( 1, 0, 0, 1, 0,0) ">
<use xlink:href="#chain_link_0_Layer0_0_FILL"/>

<use xlink:href="#chain_link_0_Layer0_0_1_STROKES"/>

<use xlink:href="#chain_link_0_Layer0_0_2_STROKES"/>
</g>
</g>

<g transform="matrix( -1.19580078125, -2.389068603515625, 2.4061431884765625, -1.2288970947265625, 439.25,214.2) ">
<g transform="matrix( 1, 0, 0, 1, 0,0) ">
<use xlink:href="#chain_link_0_Layer0_0_FILL"/>

<use xlink:href="#chain_link_0_Layer0_0_1_STROKES"/>

<use xlink:href="#chain_link_0_Layer0_0_2_STROKES"/>
</g>
</g>

<g transform="matrix( 2.9307403564453125, -1.355224609375, 1.355224609375, 2.9307403564453125, 294.65,314.6) ">
<g transform="matrix( 1, 0, 0, 1, 0,0) ">
<use xlink:href="#skull_0_Layer1_0_FILL"/>

<use xlink:href="#skull_0_Layer1_0_1_STROKES"/>
</g>

<g transform="matrix( 1, 0, 0, 1, 0,0) ">
<use xlink:href="#skull_0_Layer0_0_FILL"/>
</g>
</g>

<g transform="matrix( 2.8504180908203125, 1.5061492919921875, -1.5061492919921875, 2.8504180908203125, 184.75,52.1) ">
<g transform="matrix( 1, 0, 0, 1, 0,0) ">
<use xlink:href="#skull_0_Layer1_0_FILL"/>

<use xlink:href="#skull_0_Layer1_0_1_STROKES"/>
</g>

<g transform="matrix( 1, 0, 0, 1, 0,0) ">
<use xlink:href="#skull_0_Layer0_0_FILL"/>
</g>
</g>

<g transform="matrix( 3.18212890625, 0.465423583984375, -0.465423583984375, 3.18212890625, 446,282.6) ">
<g transform="matrix( 1, 0, 0, 1, 0,0) ">
<use xlink:href="#skull_0_Layer1_0_FILL"/>

<use xlink:href="#skull_0_Layer1_0_1_STROKES"/>
</g>

<g transform="matrix( 1, 0, 0, 1, 0,0) ">
<use xlink:href="#skull_0_Layer0_0_FILL"/>
</g>
</g>

<g transform="matrix( 2.8504180908203125, 1.5061492919921875, -1.5061492919921875, 2.8504180908203125, 329.15,508.45) ">
<g transform="matrix( 1, 0, 0, 1, 0,0) ">
<use xlink:href="#skull_0_Layer1_0_FILL"/>

<use xlink:href="#skull_0_Layer1_0_1_STROKES"/>
</g>

<g transform="matrix( 1, 0, 0, 1, 0,0) ">
<use xlink:href="#skull_0_Layer0_0_FILL"/>
</g>
</g>

<g transform="matrix( 0.5222625732421875, -3.1780853271484375, 3.1780853271484375, 0.5222625732421875, 182,485.8) ">
<g transform="matrix( 1, 0, 0, 1, 0,0) ">
<use xlink:href="#skull_0_Layer1_0_FILL"/>

<use xlink:href="#skull_0_Layer1_0_1_STROKES"/>
</g>

<g transform="matrix( 1, 0, 0, 1, 0,0) ">
<use xlink:href="#skull_0_Layer0_0_FILL"/>
</g>
</g>
</svg>
