
<svg xmlns="http://www.w3.org/2000/svg" version="1.1" xmlns:xlink="http://www.w3.org/1999/xlink" preserveAspectRatio="none" x="0px" y="0px" width="560px" height="544px" viewBox="0 0 560 544">
<defs>
<g id="Layer0_0_FILL">
<path fill="#BDA788" stroke="none" d="
M 201.35 491.35
Q 193.8 491.35 188.6 492.95 183.15 494.75 183.15 497.85
L 183.95 498.4
Q 179.8 499.45 177.2 499.95 172.5 501.75 172.5 504.65 172.5 504.9 172.5 505.95 167.55 505.95 163.95 507.75 158.45 509.55 158.45 512.95 158.45 514.5 160.05 515.8 160.3 516.6 162.1 517.1
L 162.35 517.1
Q 174.05 499.45 214.35 492.95 209.15 491.35 201.35 491.35
M 218.25 491.35
Q 216.7 491.9 216.45 492.95 225.25 491.35 236.2 491.1 233.05 489.8 228.15 489.8 221.9 489.8 218.25 491.35 Z"/>

<path fill="#3C3020" stroke="none" d="
M 254.65 489.3
Q 253.35 486.7 249.2 485.15 244.25 483.05 236.7 483.05 228.9 483.05 223.7 485.15 221.1 486.45 219.3 488.25 218.75 488 218.25 487.75 210.95 485.15 200.85 485.15 189.9 485.15 182.9 487.75 175.9 489.8 175.9 493.7 175.9 494.5 176.15 494.75 170.95 496.05 167.3 496.85 160.8 499.45 160.8 502.8 160.8 503.6 161.35 504.65 154.3 505.15 149.1 507.25 141.6 510.35 141.6 514.5 141.6 518.9 149.1 522.05 157.15 524.9 169.4 525.4 181.6 525.7 187.85 531.9 191.5 536.1 198 536.1 203.7 536.1 207.85 531.65 208.1 531.4 209.15 530.6 216.45 532.7 225.25 532.7 233.05 532.7 247.1 533.2 255.4 537.4 266.05 537.4 277.75 537.4 285.8 533.2 296.2 534.8 309.75 534.8 326.65 534.8 337.8 531.65 350.3 528.8 350.3 525.15 350.3 524.65 351.05 519.95 356.8 514.75 356.8 511.4 356.8 510.6 356.8 510.35 356 508.8 355.2 507.75 354.7 507.75 354.45 507.25 351.05 504.65 344.3 502.05 337 499.7 328.2 498.4 341.7 497.85 325.05 493.7 309.2 489.8 303.25 489.55 297.8 489.3 298.55 489.55
L 297.5 489.55
Q 297.5 489.3 297.5 489.05 297.5 486.7 291 485.15 285.05 483.85 276.2 483.85 267.9 483.85 261.15 485.15 255.15 486.7 255.15 489.05
L 255.15 489.3
Q 261.15 489.3 265.8 489.8 270.25 491.35 270.25 492.95
L 270.25 493.45 271.25 493.45
Q 271 492.95 274.9 493.45 279.05 493.45 290.75 496.3 302.7 499.45 293.1 499.95 299.6 500.75 304.55 502.55 309.75 504.1 311.55 506.2 312.05 506.2 312.85 506.45 313.1 507.75 313.35 508.55 313.35 508.8 313.35 509.3 313.35 511.65 309.75 515.3 309.2 518.9 309.2 519.2 309.2 522.05 299.85 524.1 291 526.2 279.05 526.2 269.45 526.2 262.95 519.95 255.7 528.3 247.6 528.3 239.05 528.3 233.6 524.9 232 524.1 230.75 523.35 225 524.9 218 524.9 211.25 524.9 206.3 523.35 205.25 523.6 204.75 524.1 201.6 527.25 198 527.25 193.3 527.25 190.7 524.1 187.6 521.8 187.3 518.4
L 187.05 518.4
Q 182.4 518.9 176.4 518.9 168.35 518.9 162.35 517.1
L 162.1 517.1
Q 160.3 516.6 160.05 515.8 156.65 514 156.65 511.65 156.65 508.55 162.35 506.2 166 504.9 170.95 504.65 170.95 503.6 170.95 502.8 170.95 500.75 175.9 498.4 177.95 497.85 181.6 497.6 181.35 496.85 181.35 496.3 181.35 493.7 187.05 491.9 191.5 489.8 199.55 489.8 207.05 489.8 213.05 491.9 213.3 491.9 213.55 492.4 214.35 491.35 216.45 489.8 220.6 488.5 226.3 488.5 231.75 488.5 235.4 489.8 238.5 491.35 238.8 492.95
L 239.05 492.95
Q 239.05 491.35 244 489.8 248.65 489.3 254.65 489.3 Z"/>

<path fill="#635036" stroke="none" d="
M 255.15 489.3
L 254.65 489.3
Q 248.65 489.3 244 489.8 239.05 491.35 239.05 492.95
L 238.8 492.95
Q 238.5 491.35 235.4 489.8 231.75 488.5 226.3 488.5 220.6 488.5 216.45 489.8 214.35 491.35 213.55 492.4 213.3 491.9 213.05 491.9 207.05 489.8 199.55 489.8 191.5 489.8 187.05 491.9 181.35 493.7 181.35 496.3 181.35 496.85 181.6 497.6 177.95 497.85 175.9 498.4 170.95 500.75 170.95 502.8 170.95 503.6 170.95 504.65 166 504.9 162.35 506.2 156.65 508.55 156.65 511.65 156.65 514 160.05 515.8 158.45 514.5 158.45 512.95 158.45 509.55 163.95 507.75 167.55 505.95 172.5 505.95 172.5 504.9 172.5 504.65 172.5 501.75 177.2 499.95 179.8 499.45 183.95 498.4
L 183.15 497.85
Q 183.15 494.75 188.6 492.95 193.8 491.35 201.35 491.35 209.15 491.35 214.35 492.95 174.05 499.45 162.35 517.1 168.35 518.9 176.4 518.9 182.4 518.9 187.05 518.4
L 187.3 518.4
Q 187.6 521.8 190.7 524.1 193.3 527.25 198 527.25 201.6 527.25 204.75 524.1 205.25 523.6 206.3 523.35 211.25 524.9 218 524.9 225 524.9 230.75 523.35 232 524.1 233.6 524.9 239.05 528.3 247.6 528.3 255.7 528.3 262.95 519.95 269.45 526.2 279.05 526.2 291 526.2 299.85 524.1 309.2 522.05 309.2 519.2 309.2 518.9 309.75 515.3 313.35 511.65 313.35 509.3 313.35 508.8 313.35 508.55 313.1 507.75 312.85 506.45 312.05 506.2 311.55 506.2 309.75 504.1 304.55 502.55 299.6 500.75 293.1 499.95 302.7 499.45 290.75 496.3 279.05 493.45 274.9 493.45 271 492.95 271.25 493.45
L 270.25 493.45 270.25 492.95
Q 270.25 491.35 265.8 489.8 261.15 489.3 255.15 489.3
M 216.45 492.95
Q 216.7 491.9 218.25 491.35 221.9 489.8 228.15 489.8 233.05 489.8 236.2 491.1 225.25 491.35 216.45 492.95 Z"/>
</g>

<g id="Duplicate_Items_Folder_final_0_Layer11_0_FILL">
<path fill="#FF3399" stroke="none" d="
M 3.55 -92.05
Q 2.9734375 -88.03984375 1.05 -84.5 -0.826953125 -80.9548828125 -2.7 -79.2 -4.5251953125 -77.402734375 -5.8 -74.6 -7.01875 -71.74375 -6.05 -69.9 -5.09453125 -68.005078125 -4.35 -66.75
L -0.75 -62.75
Q -0.25 -62.9 0.8 -62.45 1.75 -62 1.95 -65.05 2 -68.15 -0.5 -69 -1.5 -69.45 -2.05 -70.75 -2.9 -71.65 -2.7 -73.5
L 3.6 -83.6
Q 4.45 -86.15 5.05 -89.85 5.6 -93.65 4.65 -97.3 3.6458984375 -101 0.45 -102 -1.508984375 -102.57421875 -2.3 -100.55 -1.461328125 -102.2994140625 0.7 -99.9 4.1400390625 -96.0576171875 3.55 -92.05 Z"/>
</g>

<g id="Duplicate_Items_Folder_final_0_Layer10_0_FILL">
<path fill="#FFE6E6" stroke="none" d="
M 22.3 -54.35
L 23.1 -54.4
Q 22.8 -54.6 22.4 -54.55
L 22.3 -54.35 Z"/>

<path fill="#99CC00" stroke="none" d="
M 25.15 -53.6
Q 24.85 -53.6 24.4 -54.05 23.75 -54.25 23.1 -54.4
L 22.3 -54.35 19.6 -49.05 25.45 -46.55
Q 25.75 -46.5 25.75 -46.55 25.95 -46.5 25.9 -46.4 26.2 -46.3 26.3 -46.3 27.75 -45.8 29.2 -45.2
L 33.55 -42.95
Q 34.05 -43.4 34.35 -43.85 34.45 -44.6 34.6 -44.65 34.75 -44.9 34.9 -45.3 35.05 -46.05 34.9 -46.65 34.65 -47.45 34.25 -48.25 33.95 -49.1 29.15 -51.6 27.7 -52.4 25.85 -53.1 25.5 -53.4 25.15 -53.6 Z"/>

<path fill="#000000" stroke="none" d="
M 24.4 -54.05
Q 24.85 -53.6 25.15 -53.6 25.5 -53.4 25.85 -53.1 27.7 -52.4 29.15 -51.6 33.95 -49.1 34.25 -48.25 34.65 -47.45 34.9 -46.65 35.05 -46.05 34.9 -45.3 34.75 -44.9 34.6 -44.65 34.45 -44.6 34.35 -43.85 34.05 -43.4 33.55 -42.95
L 29.2 -45.2
Q 27.75 -45.8 26.3 -46.3 26.2 -46.3 25.9 -46.4 25.95 -46.5 25.75 -46.55 25.75 -46.5 25.45 -46.55
L 19.6 -49.05
Q 17.5 -47.65 21.7 -46.05 23.85 -45.35 25.65 -45.05
L 31.9 -42.35 33.95 -41.15 34.05 -41.2
Q 34.15 -41.3 34.3 -41.5 34.5 -41.85 34.7 -41.75 35.35 -42.45 35.4 -42.65 35.75 -43 35.65 -43.25
L 35.6 -43.35
Q 35.7 -43.45 35.75 -43.6 36.35 -44.9 36.45 -46.25 36.3 -47.6 36.1 -48.2 35.6 -48.7 35 -50.05 34.45 -50.75 29.2 -53.75
L 29.25 -53.75
Q 28.85 -54 28.5 -54.25 27.2 -54.7 25.8 -55.05
L 22.2 -55.2 22.4 -54.55
Q 22.8 -54.6 23.1 -54.4 23.75 -54.25 24.4 -54.05 Z"/>
</g>

<g id="Duplicate_Items_Folder_final_0_Layer9_0_FILL">
<path fill="#FFE6E6" stroke="none" d="
M 30.95 -47.3
L 30.95 -47.2 31.05 -47.35 31.3 -47.65
Q 31.05 -47.55 30.95 -47.3 Z"/>

<path fill="#99FF00" stroke="none" d="
M 36 -43.85
Q 35.95 -44.9 35.85 -45.95 35.8 -46.8 36.95 -45.8
L 38.05 -44.75
Q 37.95 -45.05 38.65 -45.2
L 41.9 -46.4
Q 42.1 -46.95 42.1 -47.4 41.85 -47.75 41.85 -47.85 41.85 -48.1 41.75 -48.5 41.45 -49.15 41.15 -49.5 40.7 -49.95 40.25 -50.15 39.65 -50.55 35.85 -49.45 34.75 -49.05 33.45 -48.45 33.05 -48.35 32.8 -48.4 32.6 -48.25 32.25 -48.2 32.15 -48.1 31.95 -47.95
L 31.55 -47.1 31.05 -47.35 30.95 -47.2 34.1 -43.9 36 -43.85 Z"/>

<path fill="#000000" stroke="none" d="
M 42.25 -49.95
Q 41.65 -50.9 41.3 -51.05 40.75 -51.25 39.8 -51.85 39.15 -51.9 35.05 -50.7
L 35.05 -50.8
Q 34.7 -50.9 34.35 -50.55 33.5 -50.25 32.55 -49.5
L 31.95 -47.95
Q 32.15 -48.1 32.25 -48.2 32.6 -48.25 32.8 -48.4 33.05 -48.35 33.45 -48.45 34.75 -49.05 35.85 -49.45 39.65 -50.55 40.25 -50.15 40.7 -49.95 41.15 -49.5 41.45 -49.15 41.75 -48.5 41.85 -48.1 41.85 -47.85 41.85 -47.75 42.1 -47.4 42.1 -46.95 41.9 -46.4
L 38.65 -45.2
Q 37.95 -45.05 38.05 -44.75
L 36.95 -45.8
Q 35.8 -46.8 35.85 -45.95 35.95 -44.9 36 -43.85
L 34.1 -43.9 34.05 -41.25
Q 35.55 -42.1 36.55 -43.2
L 43 -45.5
Q 42.9 -45.65 42.95 -45.85
L 43.1 -46.25
Q 43.15 -47 43.15 -47.05 43.25 -47.3 43 -47.75
L 42.95 -47.75
Q 42.9 -47.9 42.95 -48.05 42.6 -49.05 42.25 -49.95 Z"/>
</g>

<g id="Duplicate_Items_Folder_final_0_Layer8_0_FILL">
<path fill="#FFE6E6" stroke="none" d="
M 16.25 -60
Q 15.7 -59.9 15.3 -59.8
L 15.5 -59.55 16.25 -60
M 29.7 -56.8
L 29.75 -57.5
Q 29.45 -57.2 29.4 -56.65
L 29.7 -56.7 29.7 -56.8 Z"/>

<path fill="#99FF00" stroke="none" d="
M 41.65 -65.5
Q 41.15 -66.2 40.5 -66.4 39.8 -66.6 39.1 -66.45 38.1 -66.4 34.45 -62.75 34 -62.4 33.75 -62.2 33.1 -61.25 32.35 -60.35 32.05 -60.1 31.8 -59.9 31.5 -59.5 31.3 -59.35 30.9 -59.05 30.6 -58.75 30.45 -58.45 30.2 -58.3
L 30.2 -60.5
Q 30.2 -60.75 30.25 -60.75 28.35 -60.85 25.3 -60.75 22.95 -60.75 20.15 -60.6 19.7 -60.45 19.3 -60.45 18.65 -60.45 18.1 -60.5 17.05 -60.25 16.25 -60
L 15.5 -59.55 19.95 -51.1 23.5 -52.4
Q 23.55 -52.4 23.6 -52.35 23.8 -52.45 23.85 -52.5 24.25 -52.55 24.5 -52.6 26.45 -52.9 28.55 -53.25
L 34.95 -53.4
Q 35.3 -53.8 35.4 -54.2
L 35 -54.95 37.25 -56.25
Q 36.7 -57.35 36.2 -58.5 35.85 -59.25 36.55 -59.3 36.95 -59.25 37.55 -59.05
L 39.3 -58.5
Q 39.2 -58.75 39.8 -59.5
L 43.1 -63.05
Q 43 -63.85 42.65 -64.3 42.3 -64.75 42.15 -64.95 41.95 -65.2 41.65 -65.5
M 29.75 -57.5
L 29.7 -56.8 29.7 -56.7 29.4 -56.65
Q 29.45 -57.2 29.75 -57.5 Z"/>

<path fill="#000000" stroke="none" d="
M 43.55 -65.55
Q 43.55 -65.7 43.35 -65.75 42.5 -66.8 41.5 -67.65 40.4 -68.25 39.75 -68.25 39 -68.05 37.7 -68.15 36.9 -67.95 32.6 -63.7
L 32.5 -63.7
Q 32.15 -63.5 31.85 -63.05
L 31.8 -62.95
Q 29.75 -63.25 23.9 -63.3
L 23.8 -63.4
Q 23.3 -63.5 22.7 -63.45 21.1 -63.1 19.05 -62.8
L 14.9 -60.55 15.3 -59.8
Q 15.7 -59.9 16.25 -60 17.05 -60.25 18.1 -60.5 18.65 -60.45 19.3 -60.45 19.7 -60.45 20.15 -60.6 22.95 -60.75 25.3 -60.75 28.35 -60.85 30.25 -60.75 30.2 -60.75 30.2 -60.5
L 30.2 -58.3
Q 30.45 -58.45 30.6 -58.75 30.9 -59.05 31.3 -59.35 31.5 -59.5 31.8 -59.9 32.05 -60.1 32.35 -60.35 33.1 -61.25 33.75 -62.2 34 -62.4 34.45 -62.75 38.1 -66.4 39.1 -66.45 39.8 -66.6 40.5 -66.4 41.15 -66.2 41.65 -65.5 41.95 -65.2 42.15 -64.95 42.3 -64.75 42.65 -64.3 43 -63.85 43.1 -63.05
L 39.8 -59.5
Q 39.2 -58.75 39.3 -58.5
L 37.55 -59.05
Q 36.95 -59.25 36.55 -59.3 35.85 -59.25 36.2 -58.5 36.7 -57.35 37.25 -56.25
L 35 -54.95 35.4 -54.2
Q 35.3 -53.8 34.95 -53.4
L 28.55 -53.25
Q 26.45 -52.9 24.5 -52.6 24.25 -52.55 23.85 -52.5 23.8 -52.45 23.6 -52.35 23.55 -52.4 23.5 -52.4
L 19.95 -51.1 19.1 -49.25
Q 21.95 -49.7 24.35 -50.75
L 33.4 -51.7 36.5 -51.55
Q 36.55 -51.8 36.65 -51.85 37.75 -53.9 38.55 -55.65
L 43.5 -60.4 44.95 -62.7
Q 44.9 -62.85 44.75 -63.05 44.5 -63.3 44.5 -63.7 44.2 -64.75 44.1 -64.75 44.2 -65.15 43.7 -65.5
L 43.55 -65.55 Z"/>
</g>

<g id="Duplicate_Items_Folder_final_0_Layer7_0_FILL">
<path fill="#7A9801" stroke="none" d="
M -2.3 -17.8
L -4.7 -18.8 -4.6 -18.75 -4.85 -11.85 -2.3 -17.8
M 3.7 -29.45
Q 3.7060546875 -29.4248046875 3.7 -29.4 3.45 -28.2 2.9 -28.1 2.6 -28.075 2.45 -28.5
L 0.45 -27.3
Q 0.8 -26.3 0.95 -25.1 1.1 -23.85 0.95 -22.85 0.82265625 -22.341015625 0.65 -22.1 0.521875 -21.824609375 0.35 -21.8 0.1294921875 -21.7755859375 -0.05 -22
L -1.4 -19.85 0.1 -14.4 3.6 -21.7 6.2 -13.2 6.2 -20.1 6.25 -20.15 6.3 -29.45 3.7 -29.45 Z"/>

<path fill="#CCCCCC" stroke="none" d="
M -4.1 -46.7
L -4.1 -46.75
Q -4.1142578125 -46.8353515625 -4.3 -47
L -4.3 -45.25 -4.1 -46.7
M -5.15 -47.5
L -5.15 -47.35 -5.05 -47.3
Q -5.1 -47.45 -5.15 -47.5 Z"/>

<path fill="#B0B98A" stroke="none" d="
M -4.1 -47.05
Q -4.08515625 -46.9314453125 -4.1 -46.75
L -4.1 -46.7 -4.3 -45.25 -4.35 -42.95 -2.8 -42.95
Q -3.7 -44.6 -3.9 -47 -4.0080078125 -47.3603515625 -4.1 -47.05 Z"/>

<path fill="#CC0000" stroke="none" d="
M -4.4 -47.15
L -4.3 -47.1 -4.3 -47
Q -4.1142578125 -46.8353515625 -4.1 -46.75 -4.08515625 -46.9314453125 -4.1 -47.05
L -4.15 -47.1 -4.45 -47.2 -4.55 -47.25
Q -4.4787109375 -47.1931640625 -4.45 -47.15
L -4.4 -47.15
M 0.05 -43.25
Q 0.3115234375 -44.4271484375 0.25 -45.9
L -0.9 -46.2
Q -0.85 -47.15 -0.95 -47.95 -0.95 -48.1 -0.9 -48.15 -0.95 -48.3 -0.95 -48.4
L -2 -49.05
Q -2.1 -49.95 -2.55 -50.2 -2.65 -50.2 -2.8 -50.2 -3.05 -50.2 -3.2 -49.8
L -2.8 -49.55
Q -2.85 -49.2 -2.8 -48.65 -2.8 -48.3 -2.75 -47.9
L -2.75 -47.9
Q -2.751171875 -47.091015625 -2.8 -46.7
L -3.9 -47
Q -3.7 -44.6 -2.8 -42.95 -2 -41.3 -1.2 -41.4 -0.4 -41.5 0.05 -43.25 Z"/>

<path fill="#ACB685" stroke="none" d="
M -2.8 -50.2
L -3.35 -52.45
Q -3.6 -51.9 -4.1 -51.05 -4.3 -50.8 -4.4 -50.5
L -4.2 -50.4
Q -4.35 -49.85 -4.45 -49.2 -4.45 -49.15 -4.45 -49.1 -4.494140625 -48.86171875 -4.55 -48.65 -4.6962890625 -47.7712890625 -4.45 -47.2
L -4.15 -47.1 -4.1 -47.05
Q -4.0080078125 -47.3603515625 -3.9 -47
L -2.8 -46.7
Q -2.751171875 -47.091015625 -2.75 -47.9
L -2.75 -47.9
Q -2.8 -48.3 -2.8 -48.65 -2.85 -49.2 -2.8 -49.55
L -3.2 -49.8
Q -3.05 -50.2 -2.8 -50.2 Z"/>

<path fill="#635036" stroke="none" d="
M 8.55 -2.4
L 8.45 -2.35 5.9 -0.15 5.65 0.1 5.65 -0.05 0.2 1.6 -5.3 0.75 -5.3 1.1 -7.65 3.35 -11.9 7.45 -12.15 9.95
Q -7.5240234375 6.4400390625 -5.45 9.2 -4.558984375 10.9126953125 -4.7 11.7 -0.582421875 4.648046875 6.6 8.45
L 8.25 5.95 8.25 5.95
Q 13.8716796875 8.173046875 13.95 12.1
L 14.6 7.2 14.85 7.15 14.85 6.1 8.55 -2.4 Z"/>

<path fill="#000000" stroke="none" d="
M 5.9 -0.15
L 5.65 -0.05 5.65 0.1 5.9 -0.15
M 30.65 -54.75
L 30.2 -55.85
Q 29.15 -55.55 28.2 -55.2 24.53203125 -49.9125 22.75 -52.45 21.01796875 -54.9875 21.65 -50.4
L 16.3 -48.4
Q 15.75 -48.9 15.55 -48.85 15.65 -48.5 15.65 -48.05 14.7671875 -48.32890625 12.5 -47.35 11.851171875 -47.70625 11.35 -47.4 10.55 -46.95 9.8 -46.4 9.51875 -46.2052734375 9.25 -46.05 8.9552734375 -45.776953125 8.7 -45.55 7.65 -44.75 7.05 -44.05
L 6.4 -29.5 6.3 -29.45 6.25 -20.15 6.2 -20.1 6.2 -13.2 6.2 -12.15 6.1 -12.1 5.95 -5 5.9 -1.4 5.65 -1.4 5.65 -0.05 5.9 -0.15 8.45 -2.35 8.85 -12.85 8.75 -12.8
Q 8.8 -14.55 8.8 -15.4 8.75 -16.05 8.8 -16.15
L 8.8 -18.95 8.95 -18.95 9.05 -30.1 8.95 -30.1
Q 9.1 -31.85 9.1 -32.65 9.1 -33.3 9.05 -33.35
L 9.2 -43.5 9.5 -43.4 11.6 -45.15
Q 11.75 -45.2 16.95 -45.95 22.15 -46.7 30.9 -54.05
L 30.5 -54.8
Q 30.55 -54.8 30.65 -54.75
M 3.5 -68.95
Q 5.9 -69 7.9 -63.7 7.855859375 -62.1078125 7.7 -60.7 7.7173828125 -60.484765625 7.7 -60.3
L 8.15 -59.95 8.4 -59.9
Q 8.35 -59.85 8.3 -59.8 7.8 -58.75 7.25 -57.85 5.35 -54.9 11.65 -57.7
L 11.95 -57.35
Q 12.05 -57.4 12.15 -57.55 13 -58.5 15.15 -59.4 17.05 -60.45 19.05 -60.85 19.9 -61.1 21.2 -61.35
L 18.85 -62.8
Q 14.55 -61.6 10.95 -59.55
L 10.85 -59.2 10.55 -59.3 9.95 -64.5
Q 9.75 -64.55 9.25 -65.95 8.8 -67 7.35 -68.5 5.95 -69.95 5.9 -69.95 4.05 -71.05 3.65 -71.05 2.6 -70.95 0.95 -70.8 -0.1 -70.55 -1.2 -69.85 -1.9 -69.35 -2.55 -69 -4.2 -67.45 -3.15 -65.3 -2 -63.2 -1.7 -62.4 -1.6 -61.4 -1.35 -60.15 -1.25 -60.05 -1.25 -59.95 -1.3439453125 -59.8994140625 -2.65 -58.75 -3.9685546875 -57.6017578125 -5.5 -54.8 -7.025390625 -51.94765625 -6.4 -51.75
L -6.05 -51.55 -6.3 -51.65
Q -6.65 -50.45 -6.8 -49.75 -7 -49.35 -7.05 -49.15
L -6.65 -49.6 -7.3 -47.95 -7.2 -46.55 -7.3 -1.65 -7.5 -1.7 -7.45 0.8 -7.6 0.85 -7.65 3.35 -5.3 1.1 -5.3 0.75 -5.3 0 -5.1 -0.05 -4.95 -5.3 -4.8 -9.35 -4.95 -9.35 -4.85 -11.85 -4.6 -18.75 -4.7 -18.8 -4.55 -26.65 -4.6 -26.65 -4.35 -42.95 -4.3 -45.25 -4.3 -47 -4.3 -47.1 -4.4 -47.15 -4.45 -47.15
Q -4.4787109375 -47.1931640625 -4.55 -47.25
L -4.45 -47.2
Q -4.6962890625 -47.7712890625 -4.55 -48.65 -4.494140625 -48.86171875 -4.45 -49.1 -4.45 -49.15 -4.45 -49.2 -4.35 -49.85 -4.2 -50.4
L -4.4 -50.5
Q -4.3 -50.8 -4.1 -51.05 -3.6 -51.9 -3.35 -52.45 -2.998046875 -53.4048828125 -3.3 -53.75 -3.605859375 -54.0357421875 -2.95 -54.6 -2.2921875 -55.169140625 -2.1 -55.35 -2.25 -54.45 -1.6 -56.25
L -1.5 -56.35
Q -0.1 -58.85 0.25 -59.55 0.4 -59.75 0.6 -59.95
L 0.75 -60
Q 0.8 -60.15 0.8 -60.3 0.75 -60.95 0.25 -62.1 -0.05 -62.7 -0.5 -63.55 -1.65 -66.6 -0.3 -67.75 0.95 -68.7 3.5 -68.95
M -5.15 -47.35
L -5.15 -47.5
Q -5.1 -47.45 -5.05 -47.3
L -5.15 -47.35 Z"/>

<path fill="#4D3C2B" stroke="none" d="
M 5.65 -0.05
L 5.65 -1.4 5.9 -1.4 5.95 -5 3.15 -14.35 -0.35 -7.05 -1.85 -12.5 -4.95 -5.3 -5.1 -0.05 -5.3 0 -5.3 0.75 0.2 1.6 5.65 -0.05
M 0.95 -25.1
Q 0.8 -26.3 0.45 -27.3 0.05 -28.2 -0.4 -28.2 -0.75 -28.1 -0.95 -27.1 -1.15 -26.1 -0.95 -24.9 -0.8 -23.55 -0.4 -22.6 -0.246875 -22.16640625 -0.05 -22 0.1294921875 -21.7755859375 0.35 -21.8 0.521875 -21.824609375 0.65 -22.1 0.82265625 -22.341015625 0.95 -22.85 1.1 -23.85 0.95 -25.1
M 9 -53.5
Q 8.4 -52.15 8.45 -50.9 8.6 -49.75 9.5 -49.4 9.85 -49.25 10.15 -49.4 10.4 -49.55 10.6 -50.1 10.8 -51.1 11.65 -51.85 12.55 -52.65 13.35 -52.75 14.15 -52.55 15 -52.8 15.85 -53.2 16.35 -54.15 16.75 -55.1 16.45 -56 16.15 -57 15.3 -57.4 14.5 -57.7 13.55 -57.35 13.5 -57.3 13.45 -57.3 13.2 -57.3 12.45 -56.75 12.38828125 -56.7267578125 12.3 -56.7 11.98046875 -56.5537109375 11.6 -56.3 9.6 -54.9 9 -53.5 Z"/>

<path fill="#B10101" stroke="none" d="
M 6.2 -13.2
L 3.6 -21.7 0.1 -14.4 -1.4 -19.85 -2.3 -17.8 -4.85 -11.85 -4.95 -9.35 -4.8 -9.35 -4.95 -5.3 -1.85 -12.5 -0.35 -7.05 3.15 -14.35 5.95 -5 6.1 -12.1 6.2 -12.15 6.2 -13.2 Z"/>

<path fill="#9AA66A" stroke="none" d="
M 3.75 -32.3
Q 3.55 -33.9 3.05 -34.95 2.5 -36.2 1.7 -36.1 0.9 -36.1 0.25 -35.5 -0.4 -34.8 1.05 -33.05 2.65 -31.2 2.4 -29.7 2.35 -28.875 2.45 -28.5 2.6 -28.075 2.9 -28.1 3.45 -28.2 3.7 -29.4 3.7060546875 -29.4248046875 3.7 -29.45 3.9951171875 -30.6828125 3.75 -32.3 Z"/>

<path fill="#D6CFC2" stroke="none" d="
M 15.5 -49.1
Q 15.5134765625 -49.0314453125 15.5 -49 14.999609375 -48.8419921875 12.9 -48.35 14.1390625 -48.6041015625 14.8 -48.75 15.5458984375 -48.8755859375 15.55 -48.85 15.75 -48.9 16.3 -48.4 16.2525390625 -48.826953125 16.1 -49.15 15.8935546875 -49.08359375 15.7 -49.05 15.7890625 -49.064453125 15.5 -49.1 Z"/>

<path fill="#99FF00" stroke="none" d="
M 15.3 -57.4
Q 16.15 -57 16.45 -56 16.75 -55.1 16.35 -54.15 15.85 -53.2 15 -52.8 14.15 -52.55 13.35 -52.75 12.55 -52.65 11.65 -51.85 10.8 -51.1 10.6 -50.1 10.4 -49.55 10.15 -49.4
L 11.35 -47.4
Q 11.851171875 -47.70625 12.5 -47.35 14.7671875 -48.32890625 15.65 -48.05 15.65 -48.5 15.55 -48.85 15.5458984375 -48.8755859375 14.8 -48.75 14.1390625 -48.6041015625 12.9 -48.35 14.999609375 -48.8419921875 15.5 -49 15.5134765625 -49.0314453125 15.5 -49.1 15.7890625 -49.064453125 15.7 -49.05 15.8935546875 -49.08359375 16.1 -49.15 16.2525390625 -48.826953125 16.3 -48.4
L 21.65 -50.4
Q 21.01796875 -54.9875 22.75 -52.45 24.53203125 -49.9125 28.2 -55.2 29.15 -55.55 30.2 -55.85
L 21.2 -61.35
Q 19.9 -61.1 19.05 -60.85 17.05 -60.45 15.15 -59.4 13 -58.5 12.15 -57.55 12.05 -57.4 11.95 -57.35
L 12.3 -56.7
Q 12.38828125 -56.7267578125 12.45 -56.75 13.2 -57.3 13.45 -57.3 13.5 -57.3 13.55 -57.35 14.5 -57.7 15.3 -57.4 Z"/>

<path fill="#99CC00" stroke="none" d="
M 7.9 -63.7
Q 5.9 -69 3.5 -68.95 0.95 -68.7 -0.3 -67.75 -1.65 -66.6 -0.5 -63.55 -0.05 -62.7 0.25 -62.1 0.75 -60.95 0.8 -60.3 0.8 -60.15 0.75 -60
L 0.6 -59.95
Q 0.4 -59.75 0.25 -59.55 -0.1 -58.85 -1.5 -56.35
L -1.6 -56.25
Q -2.25 -54.45 -2.1 -55.35 -2.2921875 -55.169140625 -2.95 -54.6 -3.605859375 -54.0357421875 -3.3 -53.75 -2.998046875 -53.4048828125 -3.35 -52.45
L -2.8 -50.2
Q -2.65 -50.2 -2.55 -50.2 -2.1 -49.95 -2 -49.05
L -0.95 -48.4
Q -0.95 -48.3 -0.9 -48.15 -0.95 -48.1 -0.95 -47.95 -0.85 -47.15 -0.9 -46.2
L 0.25 -45.9
Q 0.3115234375 -44.4271484375 0.05 -43.25 -0.4 -41.5 -1.2 -41.4 -2 -41.3 -2.8 -42.95
L -4.35 -42.95 -4.6 -26.65 -4.55 -26.65 -4.7 -18.8 -2.3 -17.8 -1.4 -19.85 -0.05 -22
Q -0.246875 -22.16640625 -0.4 -22.6 -0.8 -23.55 -0.95 -24.9 -1.15 -26.1 -0.95 -27.1 -0.75 -28.1 -0.4 -28.2 0.05 -28.2 0.45 -27.3
L 2.45 -28.5
Q 2.35 -28.875 2.4 -29.7 2.65 -31.2 1.05 -33.05 -0.4 -34.8 0.25 -35.5 0.9 -36.1 1.7 -36.1 2.5 -36.2 3.05 -34.95 3.55 -33.9 3.75 -32.3 3.9951171875 -30.6828125 3.7 -29.45
L 6.3 -29.45 6.4 -29.5 7.05 -44.05
Q 7.65 -44.75 8.7 -45.55 8.9552734375 -45.776953125 9.25 -46.05 9.51875 -46.2052734375 9.8 -46.4 10.55 -46.95 11.35 -47.4
L 10.15 -49.4
Q 9.85 -49.25 9.5 -49.4 8.6 -49.75 8.45 -50.9 8.4 -52.15 9 -53.5 9.6 -54.9 11.6 -56.3 11.98046875 -56.5537109375 12.3 -56.7
L 11.95 -57.35 11.65 -57.7
Q 5.35 -54.9 7.25 -57.85 7.8 -58.75 8.3 -59.8 8.35 -59.85 8.4 -59.9
L 8.15 -59.95 7.7 -60.3
Q 7.7173828125 -60.484765625 7.7 -60.7 7.855859375 -62.1078125 7.9 -63.7
M 0.45 -52.8
Q 0.4 -52.9 0.25 -53.1 0.35 -53.1 0.45 -53.2 0.5 -53.05 0.65 -52.85
L 0.7 -52.75 0.45 -52.8
M 1 -47.85
Q 1.15 -47.95 1.25 -48.05 1.337890625 -48.137890625 1.45 -48.2 1.4322265625 -48.164453125 1.4 -48.1 1.2 -47.9 1.05 -47.75
L 1 -47.85 Z"/>

<path fill="#E8E6CE" stroke="none" d="
M 1.25 -48.05
Q 1.15 -47.95 1 -47.85
L 1.05 -47.75
Q 1.2 -47.9 1.4 -48.1 1.4322265625 -48.164453125 1.45 -48.2 1.337890625 -48.137890625 1.25 -48.05
M 0.65 -52.85
L 0.45 -52.8 0.7 -52.75 0.65 -52.85 Z"/>

<path fill="#B1A96B" stroke="none" d="
M 0.45 -52.8
L 0.65 -52.85
Q 0.5 -53.05 0.45 -53.2 0.35 -53.1 0.25 -53.1 0.4 -52.9 0.45 -52.8 Z"/>
</g>

<g id="Duplicate_Items_Folder_final_0_Layer6_0_FILL">
<path fill="#99CC00" stroke="none" d="
M 31.7 -70.8
Q 30.85 -71 30.65 -71.05 30.6 -71.1 30.55 -71.15 30.25 -71.35 29.8 -71.35 28.6 -71.5 27.9 -71.5 26.7 -71.15 26 -70.65 24.8 -70 22.7 -63.9 21.95 -62 21.5 -59.55 21.25 -58.95 20.95 -58.7 20.8 -58.25 20.7 -57.7 20.6 -57.35 20.65 -57.1
L 21.4 -56.05 20.75 -55.35 22.6 -55.7 20.35 -55.2 28.25 -56.7 30.3 -59.4
Q 28.8 -60.25 27.4 -61.05 26 -61.65 28.8 -62.3
L 31.35 -63.1
Q 30.85 -63.05 31.2 -64.3
L 33 -69.9
Q 32.55 -70.55 31.7 -70.8 Z"/>

<path fill="#000000" stroke="none" d="
M 19.4 -62.85
Q 19.1 -61.2 19 -59.3
L 20.65 -57.1
Q 20.6 -57.35 20.7 -57.7 20.8 -58.25 20.95 -58.7 21.25 -58.95 21.5 -59.55 21.95 -62 22.7 -63.9 24.8 -70 26 -70.65 26.7 -71.15 27.9 -71.5 28.6 -71.5 29.8 -71.35 30.25 -71.35 30.55 -71.15 30.6 -71.1 30.65 -71.05 30.85 -71 31.7 -70.8 32.55 -70.55 33 -69.9
L 31.2 -64.3
Q 30.85 -63.05 31.35 -63.1
L 28.8 -62.3
Q 26 -61.65 27.4 -61.05 28.8 -60.25 30.3 -59.4
L 28.25 -56.7 29.5 -54.8
Q 32.35 -57.3 32 -59.8
L 34.1 -68.05 35.35 -70.7
Q 35.25 -70.85 35 -71 34.5 -71.05 34.45 -71.5 33.3 -72.2 33.1 -72.2 32.9 -72.5 32.15 -72.6
L 31.95 -72.65
Q 31.7 -72.65 31.6 -72.7 29.9 -73.3 28.2 -73.5 26.3 -73.35 25.55 -72.85 25.4 -72.75 25.25 -72.55 24.55 -72.05 23.2 -71.4 22.4 -70.75 19.95 -63.75
L 19.75 -63.8
Q 19.5 -63.35 19.4 -62.85 Z"/>
</g>

<g id="Duplicate_Items_Folder_final_0_Layer5_0_FILL">
<path fill="#666699" stroke="none" d="
M 8 -41.15
L 2.85 -37.85 5.45 -34.2 4.4 -31.4 7.15 -29.05
Q 7.35 -31.8 7.55 -34.6 7.8 -38.25 8 -41.15 Z"/>

<path fill="#FF9999" stroke="none" d="
M 26.8 -46.05
Q 27.930859375 -45.9693359375 30.85 -44.25
L 29.3 -49.25 26.35 -46.1
Q 26.535546875 -46.0689453125 26.8 -46.05
M 0 -63.85
Q 0.05 -64 0.15 -64 0.2 -64.1 0.4 -64.1
L 3.85 -64.65 1.6 -66.7
Q 1.45 -66.85 1.45 -67.1 1.4 -67.35 1.5 -67.45
L 2.75 -68.85 0.75 -69.25
Q -1.85 -65.8 -1.2 -62.3 -1.05 -62.25 -0.9 -62.2
L -0.4 -62 0 -63.85 Z"/>

<path fill="#B10101" stroke="none" d="
M 43.05 -64.9
Q 42.9 -64.95 42.8 -65.05
L 42.35 -65.35 41.55 -63.65
Q 41.45 -63.5 41.35 -63.55 41.3 -63.45 41.1 -63.5
L 37.65 -63.7 39.4 -61.2
Q 39.5 -61 39.45 -60.75 39.45 -60.5 39.3 -60.45
L 37.75 -59.35 39.6 -58.5
Q 44.101171875 -62.1978515625 43.05 -64.9 Z"/>
</g>

<g id="Duplicate_Items_Folder_final_0_Layer4_0_FILL">
<path fill="#000000" stroke="none" d="
M 38.65 -46.1
Q 38.65 -46.05 38.65 -46
L 40.05 -44.05
Q 40.1 -44.05 40.15 -44 40.2 -43.95 40.25 -43.95
L 41.85 -43.95
Q 43.2 -44.35 44.85 -45.7 44.9 -45.75 44.85 -45.85 44.75 -46.7 44.25 -47.45
L 44.55 -47.75
Q 44.6 -47.8 44.65 -47.85 44.65 -47.95 44.55 -48 44.5 -48.1 44.45 -48.05 44.45 -48.1 44.45 -48.15 44.45 -48.2 44.35 -48.3 43.05 -49.25 41.2 -48.75 39.05 -48.15 38.5 -46.3 38.5 -46.25 38.55 -46.2 38.6 -46.1 38.65 -46.1
M 39.05 -46.15
Q 39 -46.15 39 -46.2 39.55 -47.8 41.45 -48.35 42.95 -48.75 44.1 -48
L 43.9 -47.85
Q 43.85 -47.9 43.8 -47.85
L 43 -47.8
Q 42.95 -47.75 42.9 -47.7
L 42.45 -47.3
Q 42.4 -47.25 42.45 -47.15 42.45 -47.1 42.55 -47 42.6 -46.9 42.7 -46.9 42.8 -46.9 42.85 -46.95
L 43.2 -47.35 43.65 -47.3
Q 43.7 -47.3 43.75 -47.3
L 43.8 -47.35 43.85 -47.3
Q 44.25 -46.75 44.4 -46 42.9 -44.75 41.6 -44.4
L 40.3 -44.4 40.2 -44.55 39.55 -45.5 39.05 -46.15
M 33.15 -72.7
L 33.2 -72.8
Q 33.2 -72.9 33.2 -72.95
L 33.2 -73.35
Q 33.25 -73.45 33.2 -73.55 33.1 -73.65 32.95 -73.65 32.85 -73.65 32.75 -73.6 32.75 -73.65 32.75 -73.7 32.65 -73.8 32.5 -73.8 30.4 -73.65 29 -71.3 27.4 -68.55 28.4 -65.9 28.45 -65.8 28.6 -65.75 28.65 -65.7 28.75 -65.7
L 28.85 -65.7 31.9 -64.7
Q 31.95 -64.7 32.05 -64.7 32.15 -64.75 32.2 -64.8
L 33.7 -66.2
Q 33.75 -66.3 33.8 -66.3 34.8 -68.05 35.25 -71.2 35.25 -71.3 35.15 -71.35 34.3 -72.35 33.15 -72.7
M 32.5 -73.2
L 32.45 -72.8
Q 32.4 -72.8 32.4 -72.7
L 31.65 -71.9
Q 31.55 -71.85 31.55 -71.75
L 31.5 -70.85
Q 31.55 -70.7 31.6 -70.6 31.7 -70.55 31.85 -70.5 31.95 -70.55 32.05 -70.6 32.2 -70.65 32.2 -70.8
L 32.25 -71.65 32.65 -72
Q 32.75 -72.05 32.8 -72.1
L 32.8 -72.2 32.85 -72.2
Q 33.8 -71.9 34.55 -71.15 34.15 -68.25 33.2 -66.55
L 31.9 -65.3 31.65 -65.4 30.15 -65.9 29.1 -66.2
Q 29.05 -66.2 29 -66.2 28.15 -68.65 29.55 -71.1 30.75 -73.05 32.5 -73.2 Z"/>

<path fill="#C2CAA4" stroke="none" d="
M 39.55 -45.5
L 40.2 -44.55 41.45 -46.15 39.55 -45.5
M 31.65 -65.4
L 31.45 -68.5 30.15 -65.9 31.65 -65.4 Z"/>

<path fill="#F2EED1" stroke="none" d="
M 39 -46.2
Q 39 -46.15 39.05 -46.15
L 39.55 -45.5 41.45 -46.15 40.2 -44.55 40.3 -44.4 41.6 -44.4
Q 42.9 -44.75 44.4 -46 44.25 -46.75 43.85 -47.3
L 43.8 -47.35 43.75 -47.3
Q 43.7 -47.3 43.65 -47.3
L 43.2 -47.35 42.85 -46.95
Q 42.8 -46.9 42.7 -46.9 42.6 -46.9 42.55 -47 42.45 -47.1 42.45 -47.15 42.4 -47.25 42.45 -47.3
L 42.9 -47.7
Q 42.95 -47.75 43 -47.8
L 43.8 -47.85
Q 43.85 -47.9 43.9 -47.85
L 44.1 -48
Q 42.95 -48.75 41.45 -48.35 39.55 -47.8 39 -46.2
M 40.05 -46.65
Q 40.05 -47 40.25 -47.25 40.5 -47.6 40.7 -47.65 41 -47.8 41.1 -47.7 41.2 -47.7 41.05 -47.45 41.1 -47.15 40.85 -46.9 40.65 -46.6 40.35 -46.5 40.2 -46.35 40.1 -46.4 39.9 -46.5 40.05 -46.65
M 32.45 -72.8
L 32.5 -73.2
Q 30.75 -73.05 29.55 -71.1 28.15 -68.65 29 -66.2 29.05 -66.2 29.1 -66.2
L 30.15 -65.9 31.45 -68.5 31.65 -65.4 31.9 -65.3 33.2 -66.55
Q 34.15 -68.25 34.55 -71.15 33.8 -71.9 32.85 -72.2
L 32.8 -72.2 32.8 -72.1
Q 32.75 -72.05 32.65 -72
L 32.25 -71.65 32.2 -70.8
Q 32.2 -70.65 32.05 -70.6 31.95 -70.55 31.85 -70.5 31.7 -70.55 31.6 -70.6 31.55 -70.7 31.5 -70.85
L 31.55 -71.75
Q 31.55 -71.85 31.65 -71.9
L 32.4 -72.7
Q 32.4 -72.8 32.45 -72.8
M 29.45 -69.6
Q 29.6 -70 29.75 -70 29.95 -70.05 30 -69.7 30.25 -69.35 30.25 -68.75 30.3 -68.25 30.1 -67.9 30 -67.5 29.85 -67.45 29.65 -67.45 29.65 -67.75 29.35 -68.1 29.3 -68.65 29.3 -69.3 29.45 -69.6 Z"/>

<path fill="#BAB17A" stroke="none" d="
M 40.25 -47.25
Q 40.05 -47 40.05 -46.65 39.9 -46.5 40.1 -46.4 40.2 -46.35 40.35 -46.5 40.65 -46.6 40.85 -46.9 41.1 -47.15 41.05 -47.45 41.2 -47.7 41.1 -47.7 41 -47.8 40.7 -47.65 40.5 -47.6 40.25 -47.25
M 29.75 -70
Q 29.6 -70 29.45 -69.6 29.3 -69.3 29.3 -68.65 29.35 -68.1 29.65 -67.75 29.65 -67.45 29.85 -67.45 30 -67.5 30.1 -67.9 30.3 -68.25 30.25 -68.75 30.25 -69.35 30 -69.7 29.95 -70.05 29.75 -70 Z"/>
</g>

<g id="Duplicate_Items_Folder_final_0_Layer3_0_FILL">
<path fill="#FF3399" stroke="none" d="
M 0.7 -8.05
Q 2.55 -8.85 4.9 -10.1 9.5 -12.7 11.4 -15.55 13.4 -18.3 11.7 -20.95 10.85 -22.2 8.45 -22.95 9.65 -21.75 9.05 -19.55 8.45 -17.4 6.55 -16.2 4.7 -15.1 -0.5 -12 -6.4 -8.4 -8.5 -7.6 -10.5 -6.7 -12.1 -3.3 -13.6 -0.05 -10.35 3.15
L -12.2 -0.3 -10.35 3.15
Q -9.82734375 3.473046875 -9.1 4.2 -8.322265625 4.9244140625 -7.4 3.95 -6.4345703125 3.034765625 -8.4 1.25 -10.3537109375 -0.546875 -8.3 -2.55
L -7.35 -2.85 0.7 -8.05
M 9.1 -39.55
Q 8.5 -37.4 6.6 -36.45 4.7 -35.55 -0.6 -32.95 -1.75 -32.5 -2.65 -32 -3.05 -31.85 -3.4 -31.65 -7.2 -29.9 -8.75 -29.5 -10.35 -28.95 -11.55 -27 -11.65 -27 -11.65 -26.95 -12.15 -26.3 -12.5 -25.6 -13.2 -24.1 -12.8 -22.55
L -10.7 -19.05
Q -10.5943359375 -18.898046875 -9.25 -17.9 -7.8701171875 -16.845703125 -6.2 -17.55 -4.476171875 -18.2154296875 -7.3 -20.6 -10.07421875 -22.9763671875 -8.65 -24.45
L -7.6 -24.6 0.55 -28.95
Q 2.5 -29.55 4.9 -30.5 9.55 -32.6 11.45 -35.2 13.55 -37.75 11.85 -40.6 11 -41.9 8.5 -42.8 9.75 -41.65 9.1 -39.55 Z"/>

<path fill="#81B432" stroke="none" d="
M -12.8 -22.55
Q -12.4 -20.85 -10.7 -19.05
L -12.8 -22.55 Z"/>
</g>

<g id="Duplicate_Items_Folder_final_0_Layer2_0_FILL">
<path fill="#FF3399" stroke="none" d="
M 0.95 -51.3
Q 2.9 -51.9 5.3 -52.85 9.95 -54.95 11.85 -57.55 13.95 -60.1 12.25 -62.95 11.4 -64.25 8.9 -65.15 10.15 -64 9.5 -61.9 8.9 -59.75 7 -58.8 5.1 -57.9 -0.2 -55.3 -1.35 -54.85 -2.25 -54.35 -2.65 -54.2 -3 -54 -6.8 -52.25 -8.35 -51.85 -9.95 -51.3 -11.15 -49.35 -11.25 -49.35 -11.25 -49.3 -11.75 -48.65 -12.1 -47.95 -12.8 -46.45 -12.4 -44.9
L -10.3 -41.4
Q -10.2 -41.25 -8.8 -40.2 -7.45 -39.2 -5.75 -39.85 -4.1 -40.55 -6.85 -42.95 -9.65 -45.35 -8.25 -46.8
L -7.2 -46.95 0.95 -51.3 Z"/>
</g>

<g id="Duplicate_Items_Folder_final_0_Layer1_0_FILL">
<path fill="#E5E2B9" stroke="none" d="
M -8.35 -52.5
L -10.35 -52.5
Q -9.4 -50.9 -8.05 -50.45
L -4.2 -52.15 -4.6 -53.85
Q -6.35 -53.75 -8.1 -54.5
L -8.35 -52.5
M 5.15 -52.4
L 7.05 -51.5
Q 7.25 -53.4 8.35 -54.85
L 6.85 -55.9 3.55 -53.65
Q 3.15 -52.25 4.15 -50.7
L 5.15 -52.4
M 3.35 -77.1
L 3.05 -79.05 4.95 -79.65
Q 3.55 -80.9 2.15 -80.95
L -1.05 -78.2 -0.15 -76.7
Q 1.45 -77.3 3.35 -77.1
M 4.25 -90.1
Q 3.75 -91.45 2.05 -92.25
L 2.25 -90.25 0.25 -89.8
Q 1.15 -88.1 1.25 -86.35
L 2.95 -86.1 4.25 -90.1 Z"/>

<path fill="#C3232F" stroke="none" d="
M -10.35 -52.5
L -8.35 -52.5 -8.1 -54.5
Q -9.6 -55.25 -11.2 -56.65 -11.15 -53.95 -10.35 -52.5
M 7.05 -51.5
L 5.15 -52.4 4.15 -50.7
Q 5 -49.25 7.25 -47.8 6.75 -49.8 7.05 -51.5
M 3.05 -79.05
L 3.35 -77.1
Q 5.05 -76.8 6.95 -75.95 6.1 -78.5 4.95 -79.65
L 3.05 -79.05
M 0.25 -89.8
L 2.25 -90.25 2.05 -92.25
Q 0.55 -92.9 -2.2 -92.7 -0.65 -91.25 0.25 -89.8 Z"/>
</g>

<g id="Duplicate_Items_Folder_final_0_Layer0_0_FILL">
<path fill="#E5E2B9" stroke="none" d="
M -9.5 -9.95
L -9.6 -7.9 -11.6 -7.7
Q -10.55 -6.25 -9.05 -5.95
L -5.5 -8 -6 -9.65
Q -7.75 -9.4 -9.5 -9.95
M -8.4 -33.35
Q -8.3 -31.35 -9.2 -29.7
L -7.5 -28.6 -4.15 -31.45
Q -3.95 -33.05 -5.2 -34.65
L -6.1 -32.7 -8.4 -33.35
M 9.8 -11.1
L 10.25 -13 12.3 -12.75
Q 11.95 -14.6 12.5 -16.35
L 10.8 -16.9 8.3 -13.7
Q 8.4 -12.25 9.8 -11.1
M 8.7 -32.9
Q 10.6 -33.7 12.7 -33.55
L 12.05 -35.65 14.1 -36.4
Q 12.5 -37.75 10.85 -37.7
L 7.75 -34.55 8.7 -32.9 Z"/>

<path fill="#C3232F" stroke="none" d="
M -9.6 -7.9
L -9.5 -9.95
Q -11.15 -10.45 -12.9 -11.75 -12.55 -9.1 -11.6 -7.7
L -9.6 -7.9
M -5.2 -34.65
Q -6.5 -36.1 -9.25 -37.4 -8.35 -35.15 -8.4 -33.35
L -6.1 -32.7 -5.2 -34.65
M 10.25 -13
L 9.8 -11.1
Q 11.1 -10 13.65 -9.3 12.6 -11.05 12.3 -12.75
L 10.25 -13
M 16.85 -32.55
Q 15.55 -35.15 14.1 -36.4
L 12.05 -35.65 12.7 -33.55
Q 14.7 -33.45 16.85 -32.55 Z"/>
</g>

<path id="Duplicate_Items_Folder_final_0_Layer11_0_1_STROKES" stroke="#000000" stroke-width="1.2" stroke-linejoin="round" stroke-linecap="round" fill="none" d="
M -2.275 -100.55
Q -1.508984375 -102.57421875 0.45 -101.975 3.6458984375 -101 4.65 -97.3 5.6 -93.65 5.05 -89.85 4.45 -86.15 3.6 -83.6
L -2.7 -73.5
Q -2.9 -71.65 -2.05 -70.75 -1.5 -69.45 -0.5 -69 2 -68.15 1.95 -65.05 1.75 -62 0.8 -62.45 -0.25 -62.9 -0.75 -62.75
L -4.35 -66.75
Q -5.09453125 -68.005078125 -6.05 -69.875 -7.01875 -71.74375 -5.775 -74.575 -4.5251953125 -77.402734375 -2.675 -79.175 -0.826953125 -80.9548828125 1.075 -84.5 2.9734375 -88.03984375 3.55 -92.05 4.1400390625 -96.0576171875 0.7 -99.9 -1.461328125 -102.2994140625 -2.275 -100.55 -2.7453125 -99.293359375 -1.25 -97.25"/>

<path id="Duplicate_Items_Folder_final_0_Layer7_0_1_STROKES" stroke="#000000" stroke-width="1.2" stroke-linejoin="round" stroke-linecap="round" fill="none" d="
M -7.625 3.35
L -5.3 1.125 -5.3 0.775 -5.3 0
M 5.65 -0.05
L 5.9 -0.125 8.475 -2.325 8.55 -2.4 14.85 6.1
M -11.9 7.45
L -7.625 3.35
M 5.9 -0.125
L 5.65 0.1"/>

<path id="Duplicate_Items_Folder_final_0_Layer5_0_1_STROKES" stroke="#000000" stroke-width="1.2" stroke-linejoin="round" stroke-linecap="round" fill="none" d="
M 39.6 -58.5
L 37.75 -59.35 39.3 -60.45
Q 39.45 -60.5 39.45 -60.75 39.5 -61 39.4 -61.2
L 37.65 -63.7 41.1 -63.5
Q 41.3 -63.45 41.35 -63.55 41.45 -63.5 41.55 -63.65
L 42.35 -65.35 42.8 -65.05
Q 42.9 -64.95 43.05 -64.9
M 0.75 -69.25
L 2.75 -68.85 1.5 -67.45
Q 1.4 -67.35 1.45 -67.1 1.45 -66.85 1.6 -66.7
L 3.85 -64.65 0.4 -64.1
Q 0.2 -64.1 0.15 -64 0.05 -64 0 -63.85
L -0.4 -62 -0.9 -62.2
Q -1.05 -62.25 -1.2 -62.3
M 26.375 -46.075
L 29.3 -49.25 30.85 -44.25
M 7.15 -29.05
L 4.4 -31.4 5.45 -34.2 2.85 -37.85 8 -41.15"/>

<path id="Duplicate_Items_Folder_final_0_Layer3_0_1_STROKES" stroke="#000000" stroke-width="1.2" stroke-linejoin="round" stroke-linecap="round" fill="none" d="
M -12.8 -22.55
Q -13.2 -24.1 -12.5 -25.6 -12.15 -26.3 -11.65 -26.95 -11.65 -27 -11.55 -27 -10.35 -28.95 -8.75 -29.5 -7.2 -29.9 -3.4 -31.65 -3.05 -31.85 -2.65 -32 -1.75 -32.5 -0.6 -32.95 4.7 -35.55 6.6 -36.45 8.5 -37.4 9.1 -39.55 9.75 -41.65 8.5 -42.8 11 -41.9 11.85 -40.6 13.55 -37.75 11.45 -35.2 9.55 -32.6 4.9 -30.5 2.5 -29.55 0.55 -28.95
L -7.6 -24.6 -8.65 -24.45
Q -10.07421875 -22.9763671875 -7.275 -20.6 -4.476171875 -18.2154296875 -6.175 -17.525 -7.8701171875 -16.845703125 -9.225 -17.875 -10.5943359375 -18.898046875 -10.7 -19.05 -12.4 -20.85 -12.8 -22.55
L -10.7 -19.05
M -10.35 3.15
Q -13.6 -0.05 -12.1 -3.3 -10.5 -6.7 -8.5 -7.6 -6.4 -8.4 -0.5 -12 4.7 -15.1 6.55 -16.2 8.45 -17.4 9.05 -19.55 9.65 -21.75 8.45 -22.95 10.85 -22.2 11.7 -20.95 13.4 -18.3 11.4 -15.55 9.5 -12.7 4.9 -10.1 2.55 -8.85 0.7 -8.05
L -7.35 -2.85 -8.3 -2.55
Q -10.3537109375 -0.546875 -8.4 1.25 -6.4345703125 3.034765625 -7.375 3.975 -8.322265625 4.9244140625 -9.075 4.2 -9.82734375 3.473046875 -10.35 3.15
L -12.2 -0.3"/>

<path id="Duplicate_Items_Folder_final_0_Layer2_0_1_STROKES" stroke="#000000" stroke-width="1.2" stroke-linejoin="round" stroke-linecap="round" fill="none" d="
M 0.95 -51.3
L -7.2 -46.95 -8.25 -46.8
Q -9.65 -45.35 -6.85 -42.95 -4.1 -40.55 -5.75 -39.85 -7.45 -39.2 -8.8 -40.2 -10.2 -41.25 -10.3 -41.4
L -12.4 -44.9
Q -12.8 -46.45 -12.1 -47.95 -11.75 -48.65 -11.25 -49.3 -11.25 -49.35 -11.15 -49.35 -9.95 -51.3 -8.35 -51.85 -6.8 -52.25 -3 -54 -2.65 -54.2 -2.25 -54.35 -1.35 -54.85 -0.2 -55.3 5.1 -57.9 7 -58.8 8.9 -59.75 9.5 -61.9 10.15 -64 8.9 -65.15 11.4 -64.25 12.25 -62.95 13.95 -60.1 11.85 -57.55 9.95 -54.95 5.3 -52.85 2.9 -51.9 0.95 -51.3 Z"/>

<path id="Duplicate_Items_Folder_final_0_Layer1_0_1_STROKES" stroke="#000000" stroke-width="1.2" stroke-linejoin="round" stroke-linecap="round" fill="none" d="
M 0.25 -89.8
Q 1.15 -88.1 1.25 -86.35
L 2.95 -86.1 4.25 -90.1
Q 3.75 -91.45 2.05 -92.25
M 0.25 -89.8
Q -0.65 -91.25 -2.2 -92.7 0.55 -92.9 2.05 -92.25
M 3.35 -77.1
Q 5.05 -76.8 6.95 -75.95 6.1 -78.5 4.95 -79.65 3.55 -80.9 2.15 -80.95
L -1.05 -78.2 -0.15 -76.7
Q 1.45 -77.3 3.35 -77.1 Z
M 7.05 -51.5
Q 7.25 -53.4 8.35 -54.85
L 6.85 -55.9 3.55 -53.65
Q 3.15 -52.25 4.15 -50.7 5 -49.25 7.25 -47.8 6.75 -49.8 7.05 -51.5 Z
M -8.1 -54.5
Q -9.6 -55.25 -11.2 -56.65 -11.15 -53.95 -10.35 -52.5 -9.4 -50.9 -8.05 -50.45
L -4.2 -52.15 -4.6 -53.85
Q -6.35 -53.75 -8.1 -54.5 Z"/>

<path id="Duplicate_Items_Folder_final_0_Layer0_0_1_STROKES" stroke="#000000" stroke-width="1.2" stroke-linejoin="round" stroke-linecap="round" fill="none" d="
M 12.7 -33.55
Q 10.6 -33.7 8.7 -32.9
L 7.75 -34.55 10.85 -37.7
Q 12.5 -37.75 14.1 -36.4 15.55 -35.15 16.85 -32.55 14.7 -33.45 12.7 -33.55 Z
M 9.8 -11.1
Q 11.1 -10 13.65 -9.3 12.6 -11.05 12.3 -12.75 11.95 -14.6 12.5 -16.35
L 10.8 -16.9 8.3 -13.7
Q 8.4 -12.25 9.8 -11.1 Z
M -5.2 -34.65
Q -6.5 -36.1 -9.25 -37.4 -8.35 -35.15 -8.4 -33.35
M -5.2 -34.65
Q -3.95 -33.05 -4.15 -31.45
L -7.5 -28.6 -9.2 -29.7
Q -8.3 -31.35 -8.4 -33.35
M -9.5 -9.95
Q -11.15 -10.45 -12.9 -11.75 -12.55 -9.1 -11.6 -7.7 -10.55 -6.25 -9.05 -5.95
L -5.5 -8 -6 -9.65
Q -7.75 -9.4 -9.5 -9.95 Z"/>
</defs>

<g transform="matrix( 1, 0, 0, 1, 0,0) ">
<use xlink:href="#Layer0_0_FILL"/>
</g>

<g transform="matrix( 4.0855255126953125, 0, 0, 4.4946441650390625, 240.9,471.35) ">
<g transform="matrix( 1, 0, 0, 1, 0,0) ">
<use xlink:href="#Duplicate_Items_Folder_final_0_Layer11_0_FILL"/>

<use xlink:href="#Duplicate_Items_Folder_final_0_Layer11_0_1_STROKES"/>
</g>

<g transform="matrix( 1, 0, 0, 1, 0,0) ">
<use xlink:href="#Duplicate_Items_Folder_final_0_Layer10_0_FILL"/>
</g>

<g transform="matrix( 1, 0, 0, 1, 0,0) ">
<use xlink:href="#Duplicate_Items_Folder_final_0_Layer9_0_FILL"/>
</g>

<g transform="matrix( 1, 0, 0, 1, 0,0) ">
<use xlink:href="#Duplicate_Items_Folder_final_0_Layer8_0_FILL"/>
</g>

<g transform="matrix( 1, 0, 0, 1, 0,0) ">
<use xlink:href="#Duplicate_Items_Folder_final_0_Layer7_0_FILL"/>

<use xlink:href="#Duplicate_Items_Folder_final_0_Layer7_0_1_STROKES"/>
</g>

<g transform="matrix( 1, 0, 0, 1, 0,0) ">
<use xlink:href="#Duplicate_Items_Folder_final_0_Layer6_0_FILL"/>
</g>

<g transform="matrix( 1, 0, 0, 1, 0,0) ">
<use xlink:href="#Duplicate_Items_Folder_final_0_Layer5_0_FILL"/>

<use xlink:href="#Duplicate_Items_Folder_final_0_Layer5_0_1_STROKES"/>
</g>

<g transform="matrix( 1, 0, 0, 1, 0,0) ">
<use xlink:href="#Duplicate_Items_Folder_final_0_Layer4_0_FILL"/>
</g>

<g transform="matrix( 1, 0, 0, 1, 0,0) ">
<use xlink:href="#Duplicate_Items_Folder_final_0_Layer3_0_FILL"/>

<use xlink:href="#Duplicate_Items_Folder_final_0_Layer3_0_1_STROKES"/>
</g>

<g transform="matrix( 1, 0, 0, 1, 0,0) ">
<use xlink:href="#Duplicate_Items_Folder_final_0_Layer2_0_FILL"/>

<use xlink:href="#Duplicate_Items_Folder_final_0_Layer2_0_1_STROKES"/>
</g>

<g transform="matrix( 1, 0, 0, 1, 0,0) ">
<use xlink:href="#Duplicate_Items_Folder_final_0_Layer1_0_FILL"/>

<use xlink:href="#Duplicate_Items_Folder_final_0_Layer1_0_1_STROKES"/>
</g>

<g transform="matrix( 1, 0, 0, 1, 0,0) ">
<use xlink:href="#Duplicate_Items_Folder_final_0_Layer0_0_FILL"/>

<use xlink:href="#Duplicate_Items_Folder_final_0_Layer0_0_1_STROKES"/>
</g>
</g>
</svg>
