
<svg xmlns="http://www.w3.org/2000/svg" version="1.1" xmlns:xlink="http://www.w3.org/1999/xlink" preserveAspectRatio="none" x="0px" y="0px" width="560px" height="544px" viewBox="0 0 560 544">
<defs>
<linearGradient id="Gradient_1" gradientUnits="userSpaceOnUse" x1="0.01249999999999929" y1="4.35" x2="11.9875" y2="4.35" spreadMethod="pad">
<stop  offset="0%" stop-color="#999999"/>

<stop  offset="46.27450980392157%" stop-color="#666666"/>

<stop  offset="100%" stop-color="#8C8C8C"/>
</linearGradient>

<g id="Layer0_0_FILL">
<path fill="#010265" stroke="none" d="
M 258.35 510.95
L 283.75 520.6
Q 274.6 489.85 271.55 438.35 257.55 394.25 258.35 510.95
M 262.2 298.6
Q 267.35 323.75 264.75 355.1 273.45 394.9 273.3 269.65 257.2 268.35 262.2 298.6 Z"/>

<path fill="#000022" stroke="none" d="
M 403.4 121.2
L 376.65 146.8 361.35 122.5 363.6 155.5 340.9 171.6 321.6 182.7 321.6 167.4 317.4 152.3 310.5 137.15 310.5 115.1 298.1 134.4 285.7 130.25 269.1 137.15 263.65 157.75 271.85 174.35 291.15 171.6 276.05 164.7 284.25 148.1 305 164.7 305 192.35 281.5 210.25 255.25 207.5 227.75 188.2 224.2 182.55 225.15 157.75 211.15 167.9 184.9 134.4 174 115.1
Q 166.75 94.8 175.25 66.8
L 194.6 52.95 207 55.7 211.15 76.45 198.75 94.35 219.55 98.5 225 72.25 251.25 58.45 227.75 58.45 218.55 47.8
Q 207.15 36.05 196.05 30.9 184.9 25.75 169.95 41.55 162.55 49.55 157.4 58.45
L 135.35 61.15 155.95 77.75 157.4 131.7 136.65 124.75 122.95 95.8 114.55 128.8 98 152.3 116 181.25 138.1 186.75 146.3 167.4 128.4 174.35 122.95 160.65 133.9 139.9
Q 168.35 164.7 182.2 178.5 193.15 189.45 212.6 217.8
L 189.1 231.95 222.1 231.8
Q 238.35 256.9 241.6 268.2 245.3 280.75 239.5 356.25
L 219.55 355.1 238.05 374.6
Q 232.55 441.25 225.5 445.45 218.4 449.3 199.55 460.7 180.75 472.15 177.2 490.2
L 178 491.8
Q 205.7 477.45 233.2 493.1 206.8 510 211.15 533.15
L 258.35 510.95
Q 257.55 394.25 271.55 438.35 274.6 489.85 283.75 520.6
L 302.3 502.9
Q 316.1 491.45 362.8 515.3 352.85 466.35 296.8 455.9
L 296 446.55 309.2 431.1 294.4 430.15 292.6 413.05 292.6 350.95 296.8 309.55 307.75 288.95 318.85 289.9 334 298.6
Q 339.65 313.1 332.2 327.6
L 346.4 313.75
Q 351.55 297.15 338.2 280.6
L 309.2 273.65 292.6 280.6 295.35 244.7 306.45 219.9 327.05 204.75 347.85 219.9 340.9 192.35 379.55 175.8 405.3 140.2 429.15 149.55 437.5 168.85 430.6 185.45 412.7 174.35 426.4 199.3 445.7 206.05 454.1 163.4 430.6 120.55 403.4 121.2
M 264.75 355.1
Q 267.35 323.75 262.2 298.6 257.2 268.35 273.3 269.65 273.45 394.9 264.75 355.1 Z"/>
</g>

<g id="Duplicate_Items_Folder_chain_link_copy_3_0_Layer0_0_FILL">
<path fill="url(#Gradient_1)" stroke="none" d="
M 12 4.35
Q 12 2.55 10.7 1.25 9.4 0 7.6 0
L 4.35 0
Q 2.55 0 1.3 1.25 1.1666015625 1.3833984375 1.05 1.5
L 4.9 2 4.85 2.35
Q 5.0669921875 2.3 5.3 2.3
L 6.75 2.3
Q 7.5 2.3 8.1 2.85 8.65 3.4 8.65 4.2 8.65 5 8.1 5.55 7.5 6.1 6.75 6.1
L 5.3 6.1
Q 4.5 6.1 3.95 5.55 3.5279296875 5.1279296875 3.4 4.55
L 0 4.1
Q 0 4.2421875 0 4.35 0 6.2 1.3 7.45 2.55 8.75 4.35 8.75
L 7.6 8.75
Q 9.4 8.75 10.7 7.45 12 6.2 12 4.35 Z"/>
</g>

<g id="Duplicate_Items_Folder_skull_copy_3_0_Layer1_0_FILL">
<path fill="#FFFFFF" stroke="none" d="
M -1 -11.4
Q -1.4 -11.35 -1.85 -11.25 -6.5 -10.45 -8.35 -8.6 -10.2 -6.7 -9.35 -4.2 -8.55 -1.65 -6.25 0.15 -5.5 0.8 -5 1.05 -10 -4.5 -7 -8 -6.9 -8 -6.6 -7.85 -6.25 -7.8 -5.5 -8.65 -4.75 -9.55 -3.95 -9.45 -3.85 -9.45 -3.8 -9.45 -4 -10 -4.1 -10.15 -2.55 -10.95 -1 -11.4
M 3.6 -9.8
Q 3.1 -10.3 2.4 -10.3 1.05 -11.35 -0.3 -10.65 -0.9 -10.3 -1.4 -9.9 -1.9 -9.3 -1.9 -8.6
L -1.9 -8.5
Q 2.95 -11.9 2.4 -6.35 3.1 -6.35 3.6 -6.9 4.15 -7.4 4.15 -8.15
L 4.15 -8.55
Q 4.15 -9.3 3.6 -9.8 Z"/>

<path fill="#FFFF00" stroke="none" d="
M 7.05 -5
Q 7.4 -8.3 5.2 -10.15 3.15 -11.85 -1 -11.4 -2.55 -10.95 -4.1 -10.15 -4 -10 -3.8 -9.45 -3.85 -9.45 -3.95 -9.45 -4.75 -9.55 -5.5 -8.65 -6.25 -7.8 -6.6 -7.85 -6.9 -8 -7 -8 -10 -4.5 -5 1.05
L -4.95 1.1
Q -4.75 1.5 -4.75 1.75 -4.75 3.4 -3.85 4.6 0.1 5.95 3.45 4.3 4.1 3.15 4.1 1.8 4.1 1.2 4.25 0.95 4.25 0.5 4.5 0.25 6.7 -1.65 7.05 -5
M 2.4 -10.3
Q 3.1 -10.3 3.6 -9.8 4.15 -9.3 4.15 -8.55
L 4.15 -8.15
Q 4.15 -7.4 3.6 -6.9 3.1 -6.35 2.4 -6.35 2.95 -11.9 -1.9 -8.5
L -1.9 -8.6
Q -1.9 -9.3 -1.4 -9.9 -0.9 -10.3 -0.3 -10.65 1.05 -11.35 2.4 -10.3 Z"/>
</g>

<g id="Duplicate_Items_Folder_skull_copy_3_0_Layer0_0_FILL">
<path fill="#000000" stroke="none" d="
M 1.75 0.85
Q 1.45 0.85 1.25 1.05 1.05 1.25 1.05 1.45 2 2.45 1.25 3.4 1.25 3.6 1.5 3.8 1.75 3.85 2.1 3.8 2.4 3.8 2.6 3.6 2.75 3.45 2.75 3.25 1.55 2.65 2.6 1.2 2.5 1.05 2.35 0.95 2.1 0.8 1.75 0.85
M -1.7 1.25
Q -2.05 1.1 -2.35 1.1 -2.75 1.1 -2.9 1.3 -3.15 1.5 -3.15 1.75 -2.05 2.6 -3 3.65 -2.9 3.9 -2.65 4.05 -2.4 4.15 -2.1 4.1 -1.7 4.1 -1.45 3.9 -1.25 3.8 -1.25 3.5 -2.4 2.95 -1.4 1.65 -1.45 1.4 -1.7 1.25
M -0.75 0.3
Q -1 0.5 -1 0.7 -0.2 1.8 -0.7 3.6 -0.7 3.85 -0.45 3.9 -0.25 4.1 0.05 4.05 0.35 3.95 0.55 3.85 0.75 3.65 0.75 3.45 -0.2 2.15 0.45 0.5 0.45 0.3 0.25 0.25 0 0.1 -0.3 0.1 -0.6 0.15 -0.75 0.3
M -2.4 -6.65
Q -3.15 -7.4 -4.1 -7.4 -5.15 -7.4 -6 -6.8 -6.9 -6.15 -6.85 -5 -6.75 -3.8 -5.8 -2.55 -4.85 -1.35 -3.85 -1.35 -2.9 -1.35 -2.35 -2.55 -1.7 -3.6 -1.7 -4.75 -1.7 -5.85 -2.4 -6.65
M 1.65 -1.85
Q 2.75 -1.95 3.65 -3.3 4.55 -4.65 4.8 -6.35 5.05 -8 3.9 -8.55 2.75 -9.05 1.7 -9.05 0.55 -9.05 -0.2 -8.1 -0.95 -7.15 -0.95 -5.75 -0.95 -4.4 -0.2 -3.05 0.55 -1.65 1.65 -1.85 Z"/>
</g>

<path id="Layer0_0_1_STROKES" stroke="#0000FF" stroke-width="2" stroke-linejoin="round" stroke-linecap="round" fill="none" d="
M 177.2 490.2
Q 180.75 472.15 199.55 460.7 218.4 449.3 225.5 445.45 232.55 441.25 238.05 374.6
L 219.55 355.1 239.5 356.25
Q 245.3 280.75 241.6 268.2 238.35 256.9 222.1 231.8
L 189.1 231.95 212.6 217.8
Q 193.15 189.45 182.2 178.5 168.35 164.7 133.9 139.9
L 122.95 160.65 128.4 174.35 146.3 167.4 138.1 186.75 116 181.25 98 152.3 114.55 128.8 122.95 95.8 136.65 124.75 157.4 131.7 155.95 77.75 135.35 61.15 157.4 58.45
Q 162.55 49.55 169.95 41.55 184.9 25.75 196.05 30.9 207.15 36.05 218.55 47.8
L 227.75 58.45 251.25 58.45 225 72.25 219.55 98.5 198.75 94.35 211.15 76.45 207 55.7 194.6 52.95 175.25 66.8
Q 166.75 94.8 174 115.1
L 184.9 134.4 211.15 167.9 225.15 157.75 224.2 182.55 227.75 188.2 255.25 207.5 281.5 210.25 305 192.35 305 164.7 284.25 148.1 276.05 164.7 291.15 171.6 271.85 174.35 263.65 157.75 269.1 137.15 285.7 130.25 298.1 134.4 310.5 115.1 310.5 137.15 317.4 152.3 321.6 167.4 321.6 182.7 340.9 171.6 363.6 155.5 361.35 122.5 376.65 146.8 403.4 121.2 430.6 120.55 454.1 163.4 445.7 206.05 426.4 199.3 412.7 174.35 430.6 185.45 437.5 168.85 429.15 149.55 405.3 140.2 379.55 175.8 340.9 192.35 347.85 219.9 327.05 204.75 306.45 219.9 295.35 244.7 292.6 280.6 309.2 273.65 338.2 280.6
Q 351.55 297.15 346.4 313.75
L 332.2 327.6
Q 339.65 313.1 334 298.6
L 318.85 289.9 307.75 288.95 296.8 309.55 292.6 350.95 292.6 413.05 294.4 430.15 309.2 431.1 296 446.55 296.8 455.9
Q 352.85 466.35 362.8 515.3 316.1 491.45 302.3 502.9
L 283.75 520.6 258.35 510.95 211.15 533.15
Q 206.8 510 233.2 493.1 205.7 477.45 178 491.8"/>

<path id="Duplicate_Items_Folder_chain_link_copy_3_0_Layer0_0_1_STROKES" stroke="#CCCCCC" stroke-width="1.5" stroke-linejoin="round" stroke-linecap="round" fill="none" d="
M 4.85 2.35
Q 5.0669921875 2.3 5.3 2.3
L 6.75 2.3
Q 7.5 2.3 8.1 2.85 8.65 3.4 8.65 4.2 8.65 5 8.1 5.55 7.5 6.1 6.75 6.1
L 5.3 6.1
Q 4.5 6.1 3.95 5.55 3.5279296875 5.1279296875 3.425 4.55"/>

<path id="Duplicate_Items_Folder_chain_link_copy_3_0_Layer0_0_2_STROKES" stroke="#333333" stroke-width="1.5" stroke-linejoin="round" stroke-linecap="round" fill="none" d="
M 0 4.125
Q 0 4.2421875 0 4.35 0 6.2 1.3 7.45 2.55 8.75 4.35 8.75
L 7.6 8.75
Q 9.4 8.75 10.7 7.45 12 6.2 12 4.35 12 2.55 10.7 1.25 9.4 0 7.6 0
L 4.35 0
Q 2.55 0 1.3 1.25 1.1666015625 1.3833984375 1.05 1.525"/>

<path id="Duplicate_Items_Folder_skull_copy_3_0_Layer1_0_1_STROKES" stroke="#000000" stroke-width="1.5" stroke-linejoin="round" stroke-linecap="round" fill="none" d="
M -1 -11.4
Q 3.15 -11.85 5.2 -10.15 7.4 -8.3 7.05 -5 6.7 -1.65 4.5 0.25 4.25 0.5 4.25 0.95 4.1 1.2 4.1 1.8 4.1 3.15 3.45 4.3 0.1 5.95 -3.85 4.6 -4.75 3.4 -4.75 1.75 -4.75 1.5 -4.95 1.1
L -5 1.05
Q -5.5 0.8 -6.25 0.15 -8.55 -1.65 -9.35 -4.2 -10.2 -6.7 -8.35 -8.6 -6.5 -10.45 -1.85 -11.25 -1.4 -11.35 -1 -11.4 Z"/>
</defs>

<g transform="matrix( 1, 0, 0, 1, 0,0) ">
<use xlink:href="#Layer0_0_FILL"/>

<use xlink:href="#Layer0_0_1_STROKES"/>
</g>

<g transform="matrix( 1.3061981201171875, 0, 0, 3.2196502685546875, 123.1,467.8) "/>

<g transform="matrix( -1.191925048828125, 2.401702880859375, -2.401702880859375, -1.191925048828125, 191.2,160.45) ">
<g transform="matrix( 1, 0, 0, 1, 0,0) ">
<use xlink:href="#Duplicate_Items_Folder_chain_link_copy_3_0_Layer0_0_FILL"/>

<use xlink:href="#Duplicate_Items_Folder_chain_link_copy_3_0_Layer0_0_1_STROKES"/>

<use xlink:href="#Duplicate_Items_Folder_chain_link_copy_3_0_Layer0_0_2_STROKES"/>
</g>
</g>

<g transform="matrix( 0.7344818115234375, -2.577239990234375, 2.577239990234375, 0.7344818115234375, 172.35,166.8) ">
<g transform="matrix( 1, 0, 0, 1, 0,0) ">
<use xlink:href="#Duplicate_Items_Folder_chain_link_copy_3_0_Layer0_0_FILL"/>

<use xlink:href="#Duplicate_Items_Folder_chain_link_copy_3_0_Layer0_0_1_STROKES"/>

<use xlink:href="#Duplicate_Items_Folder_chain_link_copy_3_0_Layer0_0_2_STROKES"/>
</g>
</g>

<g transform="matrix( -0.3446502685546875, -2.654266357421875, 2.654266357421875, -0.3446502685546875, 183.95,150.9) ">
<g transform="matrix( 1, 0, 0, 1, 0,0) ">
<use xlink:href="#Duplicate_Items_Folder_chain_link_copy_3_0_Layer0_0_FILL"/>

<use xlink:href="#Duplicate_Items_Folder_chain_link_copy_3_0_Layer0_0_1_STROKES"/>

<use xlink:href="#Duplicate_Items_Folder_chain_link_copy_3_0_Layer0_0_2_STROKES"/>
</g>
</g>

<g transform="matrix( -1.772125244140625, 2.0062713623046875, -2.0062713623046875, -1.772125244140625, 258.15,286.05) ">
<g transform="matrix( 1, 0, 0, 1, 0,0) ">
<use xlink:href="#Duplicate_Items_Folder_chain_link_copy_3_0_Layer0_0_FILL"/>

<use xlink:href="#Duplicate_Items_Folder_chain_link_copy_3_0_Layer0_0_1_STROKES"/>

<use xlink:href="#Duplicate_Items_Folder_chain_link_copy_3_0_Layer0_0_2_STROKES"/>
</g>
</g>

<g transform="matrix( 2.5876007080078125, -0.6916961669921875, 0.6916961669921875, 2.5876007080078125, 243.85,268.8) ">
<g transform="matrix( 1, 0, 0, 1, 0,0) ">
<use xlink:href="#Duplicate_Items_Folder_chain_link_copy_3_0_Layer0_0_FILL"/>

<use xlink:href="#Duplicate_Items_Folder_chain_link_copy_3_0_Layer0_0_1_STROKES"/>

<use xlink:href="#Duplicate_Items_Folder_chain_link_copy_3_0_Layer0_0_2_STROKES"/>
</g>
</g>

<g transform="matrix( 2.1719818115234375, -1.56243896484375, 1.56243896484375, 2.1719818115234375, 263.3,272.7) ">
<g transform="matrix( 1, 0, 0, 1, 0,0) ">
<use xlink:href="#Duplicate_Items_Folder_chain_link_copy_3_0_Layer0_0_FILL"/>

<use xlink:href="#Duplicate_Items_Folder_chain_link_copy_3_0_Layer0_0_1_STROKES"/>

<use xlink:href="#Duplicate_Items_Folder_chain_link_copy_3_0_Layer0_0_2_STROKES"/>
</g>
</g>

<g transform="matrix( 0.5727081298828125, -2.6074981689453125, 2.6074981689453125, 0.5727081298828125, 285.35,268.5) ">
<g transform="matrix( 1, 0, 0, 1, 0,0) ">
<use xlink:href="#Duplicate_Items_Folder_chain_link_copy_3_0_Layer0_0_FILL"/>

<use xlink:href="#Duplicate_Items_Folder_chain_link_copy_3_0_Layer0_0_1_STROKES"/>

<use xlink:href="#Duplicate_Items_Folder_chain_link_copy_3_0_Layer0_0_2_STROKES"/>
</g>
</g>

<g transform="matrix( -0.0981903076171875, 2.6706695556640625, -2.6706695556640625, -0.0981903076171875, 243.05,289.75) ">
<g transform="matrix( 1, 0, 0, 1, 0,0) ">
<use xlink:href="#Duplicate_Items_Folder_chain_link_copy_3_0_Layer0_0_FILL"/>

<use xlink:href="#Duplicate_Items_Folder_chain_link_copy_3_0_Layer0_0_1_STROKES"/>

<use xlink:href="#Duplicate_Items_Folder_chain_link_copy_3_0_Layer0_0_2_STROKES"/>
</g>
</g>

<g transform="matrix( -1.5419158935546875, -2.3998870849609375, 2.3998870849609375, -1.5419158935546875, 231,413.9) ">
<g transform="matrix( 1, 0, 0, 1, 0,0) ">
<use xlink:href="#Duplicate_Items_Folder_chain_link_copy_3_0_Layer0_0_FILL"/>

<use xlink:href="#Duplicate_Items_Folder_chain_link_copy_3_0_Layer0_0_1_STROKES"/>

<use xlink:href="#Duplicate_Items_Folder_chain_link_copy_3_0_Layer0_0_2_STROKES"/>
</g>
</g>

<g transform="matrix( 2.7655029296875, 0.6971893310546875, -0.6971893310546875, 2.7655029296875, 237.4,387.65) ">
<g transform="matrix( 1, 0, 0, 1, 0,0) ">
<use xlink:href="#Duplicate_Items_Folder_chain_link_copy_3_0_Layer0_0_FILL"/>

<use xlink:href="#Duplicate_Items_Folder_chain_link_copy_3_0_Layer0_0_1_STROKES"/>

<use xlink:href="#Duplicate_Items_Folder_chain_link_copy_3_0_Layer0_0_2_STROKES"/>
</g>
</g>

<g transform="matrix( 2.8301544189453125, -0.3279571533203125, 0.3279571533203125, 2.8301544189453125, 253.5,401.3) ">
<g transform="matrix( 1, 0, 0, 1, 0,0) ">
<use xlink:href="#Duplicate_Items_Folder_chain_link_copy_3_0_Layer0_0_FILL"/>

<use xlink:href="#Duplicate_Items_Folder_chain_link_copy_3_0_Layer0_0_1_STROKES"/>

<use xlink:href="#Duplicate_Items_Folder_chain_link_copy_3_0_Layer0_0_2_STROKES"/>
</g>
</g>

<g transform="matrix( 2.466400146484375, -1.419342041015625, 1.419342041015625, 2.466400146484375, 274.1,406.15) ">
<g transform="matrix( 1, 0, 0, 1, 0,0) ">
<use xlink:href="#Duplicate_Items_Folder_chain_link_copy_3_0_Layer0_0_FILL"/>

<use xlink:href="#Duplicate_Items_Folder_chain_link_copy_3_0_Layer0_0_1_STROKES"/>

<use xlink:href="#Duplicate_Items_Folder_chain_link_copy_3_0_Layer0_0_2_STROKES"/>
</g>
</g>

<g transform="matrix( 0.137237548828125, 2.688751220703125, -2.6527099609375, 0.145751953125, 453.25,220.55) ">
<g transform="matrix( 1, 0, 0, 1, 0,0) ">
<use xlink:href="#Duplicate_Items_Folder_chain_link_copy_3_0_Layer0_0_FILL"/>

<use xlink:href="#Duplicate_Items_Folder_chain_link_copy_3_0_Layer0_0_1_STROKES"/>

<use xlink:href="#Duplicate_Items_Folder_chain_link_copy_3_0_Layer0_0_2_STROKES"/>
</g>
</g>

<g transform="matrix( -1.224945068359375, -2.361358642578125, 2.3787689208984375, -1.2576446533203125, 437.55,234.65) ">
<g transform="matrix( 1, 0, 0, 1, 0,0) ">
<use xlink:href="#Duplicate_Items_Folder_chain_link_copy_3_0_Layer0_0_FILL"/>

<use xlink:href="#Duplicate_Items_Folder_chain_link_copy_3_0_Layer0_0_1_STROKES"/>

<use xlink:href="#Duplicate_Items_Folder_chain_link_copy_3_0_Layer0_0_2_STROKES"/>
</g>
</g>

<g transform="matrix( -1.190826416015625, -2.379150390625, 2.396148681640625, -1.22381591796875, 437.55,213.45) ">
<g transform="matrix( 1, 0, 0, 1, 0,0) ">
<use xlink:href="#Duplicate_Items_Folder_chain_link_copy_3_0_Layer0_0_FILL"/>

<use xlink:href="#Duplicate_Items_Folder_chain_link_copy_3_0_Layer0_0_1_STROKES"/>

<use xlink:href="#Duplicate_Items_Folder_chain_link_copy_3_0_Layer0_0_2_STROKES"/>
</g>
</g>

<g transform="matrix( 2.9185791015625, -1.349639892578125, 1.349639892578125, 2.9185791015625, 293.6,313.4) ">
<g transform="matrix( 1, 0, 0, 1, 0,0) ">
<use xlink:href="#Duplicate_Items_Folder_skull_copy_3_0_Layer1_0_FILL"/>

<use xlink:href="#Duplicate_Items_Folder_skull_copy_3_0_Layer1_0_1_STROKES"/>
</g>

<g transform="matrix( 1, 0, 0, 1, 0,0) ">
<use xlink:href="#Duplicate_Items_Folder_skull_copy_3_0_Layer0_0_FILL"/>
</g>
</g>

<g transform="matrix( 2.8386077880859375, 1.499908447265625, -1.499908447265625, 2.8386077880859375, 184.1,52.05) ">
<g transform="matrix( 1, 0, 0, 1, 0,0) ">
<use xlink:href="#Duplicate_Items_Folder_skull_copy_3_0_Layer1_0_FILL"/>

<use xlink:href="#Duplicate_Items_Folder_skull_copy_3_0_Layer1_0_1_STROKES"/>
</g>

<g transform="matrix( 1, 0, 0, 1, 0,0) ">
<use xlink:href="#Duplicate_Items_Folder_skull_copy_3_0_Layer0_0_FILL"/>
</g>
</g>

<g transform="matrix( 3.1689453125, 0.4635009765625, -0.4635009765625, 3.1689453125, 444.3,281.55) ">
<g transform="matrix( 1, 0, 0, 1, 0,0) ">
<use xlink:href="#Duplicate_Items_Folder_skull_copy_3_0_Layer1_0_FILL"/>

<use xlink:href="#Duplicate_Items_Folder_skull_copy_3_0_Layer1_0_1_STROKES"/>
</g>

<g transform="matrix( 1, 0, 0, 1, 0,0) ">
<use xlink:href="#Duplicate_Items_Folder_skull_copy_3_0_Layer0_0_FILL"/>
</g>
</g>

<g transform="matrix( 2.8386077880859375, 1.499908447265625, -1.499908447265625, 2.8386077880859375, 327.85,506.45) ">
<g transform="matrix( 1, 0, 0, 1, 0,0) ">
<use xlink:href="#Duplicate_Items_Folder_skull_copy_3_0_Layer1_0_FILL"/>

<use xlink:href="#Duplicate_Items_Folder_skull_copy_3_0_Layer1_0_1_STROKES"/>
</g>

<g transform="matrix( 1, 0, 0, 1, 0,0) ">
<use xlink:href="#Duplicate_Items_Folder_skull_copy_3_0_Layer0_0_FILL"/>
</g>
</g>

<g transform="matrix( 0.5200958251953125, -3.1649169921875, 3.1649169921875, 0.5200958251953125, 181.35,483.9) ">
<g transform="matrix( 1, 0, 0, 1, 0,0) ">
<use xlink:href="#Duplicate_Items_Folder_skull_copy_3_0_Layer1_0_FILL"/>

<use xlink:href="#Duplicate_Items_Folder_skull_copy_3_0_Layer1_0_1_STROKES"/>
</g>

<g transform="matrix( 1, 0, 0, 1, 0,0) ">
<use xlink:href="#Duplicate_Items_Folder_skull_copy_3_0_Layer0_0_FILL"/>
</g>
</g>
</svg>
