
<svg xmlns="http://www.w3.org/2000/svg" version="1.1" xmlns:xlink="http://www.w3.org/1999/xlink" preserveAspectRatio="none" x="0px" y="0px" width="560px" height="544px" viewBox="0 0 560 544">
<defs>
<radialGradient id="Gradient_1" gradientUnits="userSpaceOnUse" cx="0" cy="0" r="10.05" fx="0" fy="0" gradientTransform="matrix( 1, 0, 0, 1, 9.95,2.25) " spreadMethod="pad">
<stop  offset="0%" stop-color="#7B7B7B"/>

<stop  offset="0%" stop-color="#CCCCCC"/>

<stop  offset="100%" stop-color="#626262"/>
</radialGradient>

<radialGradient id="Gradient_2" gradientUnits="userSpaceOnUse" cx="0" cy="0" r="7.450000000000001" fx="0" fy="0" gradientTransform="matrix( 0.9999999999999999, 0, 0, 0.9999999999999999, 13.65,-20.45) " spreadMethod="pad">
<stop  offset="0%" stop-color="#7B7B7B"/>

<stop  offset="0%" stop-color="#CCCCCC"/>

<stop  offset="100%" stop-color="#626262"/>
</radialGradient>

<radialGradient id="Gradient_3" gradientUnits="userSpaceOnUse" cx="0" cy="0" r="13" fx="0" fy="0" gradientTransform="matrix( 1, 0, 0, 1, 12.45,-12.9) " spreadMethod="pad">
<stop  offset="0%" stop-color="#7B7B7B"/>

<stop  offset="0%" stop-color="#CCCCCC"/>

<stop  offset="100%" stop-color="#626262"/>
</radialGradient>

<radialGradient id="Gradient_4" gradientUnits="userSpaceOnUse" cx="0" cy="0" r="23.950000000000003" fx="0" fy="0" gradientTransform="matrix( 0.9999999999999999, 0, 0, 0.9999999999999999, -5,-10.15) " spreadMethod="pad">
<stop  offset="0%" stop-color="#7B7B7B"/>

<stop  offset="0%" stop-color="#CCCCCC"/>

<stop  offset="100%" stop-color="#626262"/>
</radialGradient>

<radialGradient id="Gradient_5" gradientUnits="userSpaceOnUse" cx="0" cy="0" r="25.900000000000002" fx="0" fy="0" gradientTransform="matrix( 1, 0, 0, 1, 5.8,-17.65) " spreadMethod="pad">
<stop  offset="0%" stop-color="#7B7B7B"/>

<stop  offset="0%" stop-color="#CCCCCC"/>

<stop  offset="100%" stop-color="#626262"/>
</radialGradient>

<radialGradient id="Gradient_6" gradientUnits="userSpaceOnUse" cx="0" cy="0" r="17.95" fx="0" fy="0" gradientTransform="matrix( 1.0000000000000002, 0, 0, 1.0000000000000002, 7.55,0.95) " spreadMethod="pad">
<stop  offset="0%" stop-color="#7B7B7B"/>

<stop  offset="0%" stop-color="#CCCCCC"/>

<stop  offset="100%" stop-color="#626262"/>
</radialGradient>

<radialGradient id="Gradient_7" gradientUnits="userSpaceOnUse" cx="0" cy="0" r="9.450000000000003" fx="0" fy="0" gradientTransform="matrix( 0.9999999999999998, 0, 0, 0.9999999999999998, 2.2,2.35) " spreadMethod="pad">
<stop  offset="0%" stop-color="#7B7B7B"/>

<stop  offset="0%" stop-color="#CCCCCC"/>

<stop  offset="100%" stop-color="#626262"/>
</radialGradient>

<radialGradient id="Gradient_8" gradientUnits="userSpaceOnUse" cx="0" cy="0" r="11.9" fx="0" fy="0" gradientTransform="matrix( 1, 0, 0, 1, -3.75,-3.75) " spreadMethod="pad">
<stop  offset="0%" stop-color="#7B7B7B"/>

<stop  offset="0%" stop-color="#CCCCCC"/>

<stop  offset="100%" stop-color="#626262"/>
</radialGradient>

<radialGradient id="Gradient_9" gradientUnits="userSpaceOnUse" cx="0" cy="0" r="12.350000000000001" fx="0" fy="0" gradientTransform="matrix( 1, 0, 0, 1, 2.3,-3.15) " spreadMethod="pad">
<stop  offset="0%" stop-color="#7B7B7B"/>

<stop  offset="0%" stop-color="#CCCCCC"/>

<stop  offset="100%" stop-color="#626262"/>
</radialGradient>

<radialGradient id="Gradient_10" gradientUnits="userSpaceOnUse" cx="0" cy="0" r="27.85" fx="0" fy="0" gradientTransform="matrix( 1, 0, 0, 1, 22.75,-21.4) " spreadMethod="pad">
<stop  offset="0%" stop-color="#E5E5E7"/>

<stop  offset="100%" stop-color="#666666"/>
</radialGradient>

<radialGradient id="Gradient_11" gradientUnits="userSpaceOnUse" cx="0" cy="0" r="17.2" fx="0" fy="0" gradientTransform="matrix( 1.0000000000000002, 0, 0, 1.0000000000000002, -21.25,5.75) " spreadMethod="pad">
<stop  offset="0%" stop-color="#E5E5E7"/>

<stop  offset="100%" stop-color="#666666"/>
</radialGradient>

<radialGradient id="Gradient_12" gradientUnits="userSpaceOnUse" cx="0" cy="0" r="24.75" fx="0" fy="0" gradientTransform="matrix( 1, 0, 0, 1, -8.55,7.15) " spreadMethod="pad">
<stop  offset="0%" stop-color="#E5E5E7"/>

<stop  offset="100%" stop-color="#666666"/>
</radialGradient>

<radialGradient id="Gradient_13" gradientUnits="userSpaceOnUse" cx="0" cy="0" r="17.7" fx="0" fy="0" gradientTransform="matrix( 1.0000000000000002, 0, 0, 1.0000000000000002, -0.25,15.1) " spreadMethod="pad">
<stop  offset="0%" stop-color="#E5E5E7"/>

<stop  offset="100%" stop-color="#666666"/>
</radialGradient>

<radialGradient id="Gradient_14" gradientUnits="userSpaceOnUse" cx="0" cy="0" r="41.400000000000006" fx="0" fy="0" gradientTransform="matrix( 1, 0, 0, 1, 26.8,-30.15) " spreadMethod="pad">
<stop  offset="0%" stop-color="#E5E5E7"/>

<stop  offset="100%" stop-color="#666666"/>
</radialGradient>

<radialGradient id="Gradient_15" gradientUnits="userSpaceOnUse" cx="0" cy="0" r="9.550000000000004" fx="0" fy="0" gradientTransform="matrix( 0.9999999999999996, 0, 0, 0.9999999999999996, 24.85,-39.05) " spreadMethod="pad">
<stop  offset="0%" stop-color="#E5E5E7"/>

<stop  offset="100%" stop-color="#666666"/>
</radialGradient>

<radialGradient id="Gradient_16" gradientUnits="userSpaceOnUse" cx="0" cy="0" r="10.96500113999082" fx="0" fy="0" gradientTransform="matrix( 0.9598722212270387, 0.28043772734186645, -0.2610578843954773, 0.8948927478185575, 29.1,-44.3) " spreadMethod="pad">
<stop  offset="0%" stop-color="#E5E5E7"/>

<stop  offset="100%" stop-color="#666666"/>
</radialGradient>

<radialGradient id="Gradient_17" gradientUnits="userSpaceOnUse" cx="0" cy="0" r="50.050000000000004" fx="0" fy="0" gradientTransform="matrix( 1, 0, 0, 1, -0.4,-6.95) " spreadMethod="pad">
<stop  offset="0%" stop-color="#E5E5E7"/>

<stop  offset="100%" stop-color="#666666"/>
</radialGradient>

<radialGradient id="Gradient_18" gradientUnits="userSpaceOnUse" cx="0" cy="0" r="16.775000000000002" fx="0" fy="0" gradientTransform="matrix( 1, 0, 0, 0.823397913561848, -16.05,38.75) " spreadMethod="pad">
<stop  offset="0%" stop-color="#E5E5E7"/>

<stop  offset="100%" stop-color="#666666"/>
</radialGradient>

<radialGradient id="Gradient_19" gradientUnits="userSpaceOnUse" cx="0" cy="0" r="16.775000000000002" fx="0" fy="0" gradientTransform="matrix( -1, 0, 0, 0.823397913561848, 14.5,38.6) " spreadMethod="pad">
<stop  offset="0%" stop-color="#E5E5E7"/>

<stop  offset="100%" stop-color="#666666"/>
</radialGradient>

<radialGradient id="Gradient_20" gradientUnits="userSpaceOnUse" cx="0" cy="0" r="3.2024404756372924" fx="0" fy="0" gradientTransform="matrix( 0.9992379325530456, -0.03903273174035334, 0.03903273174035334, 0.9992379325530456, 5.15,14.15) " spreadMethod="pad">
<stop  offset="0%" stop-color="#E5E5E7"/>

<stop  offset="100%" stop-color="#666666"/>
</radialGradient>

<radialGradient id="Gradient_21" gradientUnits="userSpaceOnUse" cx="0" cy="0" r="3.2024404756372915" fx="0" fy="0" gradientTransform="matrix( 0.9992379325530459, -0.039032731740353356, 0.039032731740353356, 0.9992379325530459, 5.05,4.6) " spreadMethod="pad">
<stop  offset="0%" stop-color="#E5E5E7"/>

<stop  offset="100%" stop-color="#666666"/>
</radialGradient>

<radialGradient id="Gradient_22" gradientUnits="userSpaceOnUse" cx="0" cy="0" r="3.2024404756372924" fx="0" fy="0" gradientTransform="matrix( 0.9992379325530456, -0.03903273174035334, 0.03903273174035334, 0.9992379325530456, 4.9,-4.8) " spreadMethod="pad">
<stop  offset="0%" stop-color="#E5E5E7"/>

<stop  offset="100%" stop-color="#666666"/>
</radialGradient>

<radialGradient id="Gradient_23" gradientUnits="userSpaceOnUse" cx="0" cy="0" r="3.2024404756372915" fx="0" fy="0" gradientTransform="matrix( 0.9992379325530459, -0.039032731740353356, 0.039032731740353356, 0.9992379325530459, 4.75,-14.2) " spreadMethod="pad">
<stop  offset="0%" stop-color="#E5E5E7"/>

<stop  offset="100%" stop-color="#666666"/>
</radialGradient>

<radialGradient id="Gradient_24" gradientUnits="userSpaceOnUse" cx="0" cy="0" r="3.200390601161052" fx="0" fy="0" gradientTransform="matrix( 0.9998779520346953, -0.015623093000542114, 0.015623093000542114, 0.9998779520346953, 4.65,-23.6) " spreadMethod="pad">
<stop  offset="0%" stop-color="#E5E5E7"/>

<stop  offset="100%" stop-color="#666666"/>
</radialGradient>

<radialGradient id="Gradient_25" gradientUnits="userSpaceOnUse" cx="0" cy="0" r="3.200390601161052" fx="0" fy="0" gradientTransform="matrix( 0.9998779520346953, -0.015623093000542114, 0.015623093000542114, 0.9998779520346953, 4.5,-33) " spreadMethod="pad">
<stop  offset="0%" stop-color="#E5E5E7"/>

<stop  offset="100%" stop-color="#666666"/>
</radialGradient>

<radialGradient id="Gradient_26" gradientUnits="userSpaceOnUse" cx="0" cy="0" r="15.75" fx="0" fy="0" gradientTransform="matrix( 1, 0, 0, 1, -17.6,1.55) " spreadMethod="pad">
<stop  offset="0%" stop-color="#E5E5E7"/>

<stop  offset="100%" stop-color="#757575"/>
</radialGradient>

<radialGradient id="Gradient_27" gradientUnits="userSpaceOnUse" cx="0" cy="0" r="13.15" fx="0" fy="0" gradientTransform="matrix( 1, 0, 0, 1, -24.85,-2) " spreadMethod="pad">
<stop  offset="0%" stop-color="#E5E5E7"/>

<stop  offset="100%" stop-color="#757575"/>
</radialGradient>

<radialGradient id="Gradient_28" gradientUnits="userSpaceOnUse" cx="0" cy="0" r="14.950000000000001" fx="0" fy="0" gradientTransform="matrix( 1, 0, 0, 1, -26.9,7.25) " spreadMethod="pad">
<stop  offset="0%" stop-color="#E5E5E7"/>

<stop  offset="100%" stop-color="#FFFFFF"/>
</radialGradient>

<linearGradient id="Gradient_29" gradientUnits="userSpaceOnUse" x1="-2.375" y1="-22.05" x2="38.375" y2="-22.05" spreadMethod="pad">
<stop  offset="0%" stop-color="#E5E5E7"/>

<stop  offset="100%" stop-color="#666666"/>
</linearGradient>

<radialGradient id="Gradient_30" gradientUnits="userSpaceOnUse" cx="0" cy="0" r="24.464531085839354" fx="0" fy="0" gradientTransform="matrix( -0.9595524196900663, 0.2815300230294071, -0.2815300230294071, -0.9595524196900663, 2.6,19.85) " spreadMethod="pad">
<stop  offset="0%" stop-color="#E5E5E7"/>

<stop  offset="100%" stop-color="#666666"/>
</radialGradient>

<radialGradient id="Gradient_31" gradientUnits="userSpaceOnUse" cx="0" cy="0" r="9.55" fx="0" fy="0" gradientTransform="matrix( 1, 0, 0, 1, 20.85,-43.65) " spreadMethod="pad">
<stop  offset="0%" stop-color="#E5E5E7"/>

<stop  offset="100%" stop-color="#666666"/>
</radialGradient>

<radialGradient id="Gradient_32" gradientUnits="userSpaceOnUse" cx="0" cy="0" r="10.96500113999082" fx="0" fy="0" gradientTransform="matrix( 0.9598722212270387, 0.28043772734186645, -0.2610578843954773, 0.8948927478185575, 25.1,-48.9) " spreadMethod="pad">
<stop  offset="0%" stop-color="#E5E5E7"/>

<stop  offset="100%" stop-color="#666666"/>
</radialGradient>

<radialGradient id="Gradient_33" gradientUnits="userSpaceOnUse" cx="0" cy="0" r="74.3875" fx="0" fy="0" gradientTransform="matrix( 1, 0, 0, 1, -1.15,-60.75) " spreadMethod="pad">
<stop  offset="0%" stop-color="#E1E1E1"/>

<stop  offset="36.470588235294116%" stop-color="#CCCCCC"/>

<stop  offset="100%" stop-color="#666666"/>
</radialGradient>

<radialGradient id="Gradient_34" gradientUnits="userSpaceOnUse" cx="0" cy="0" r="53.712500000000006" fx="0" fy="0" gradientTransform="matrix( 1, 0, 0, 1, -19.1,-119.85) " spreadMethod="pad">
<stop  offset="0%" stop-color="#E5E5E7"/>

<stop  offset="100%" stop-color="#757575"/>
</radialGradient>

<linearGradient id="Gradient_35" gradientUnits="userSpaceOnUse" x1="1.7125000000000004" y1="-159.625" x2="16.887500000000003" y2="-157.675" spreadMethod="pad">
<stop  offset="0%" stop-color="#F2F2F2"/>

<stop  offset="100%" stop-color="#999999"/>
</linearGradient>

<radialGradient id="Gradient_36" gradientUnits="userSpaceOnUse" cx="0" cy="0" r="119" fx="0" fy="0" gradientTransform="matrix( 1, 0, -0.020693277310924373, 1.0414915966386555, -26.1,26.35) " spreadMethod="pad">
<stop  offset="0%" stop-color="#E5E5E7"/>

<stop  offset="100%" stop-color="#666666"/>
</radialGradient>

<radialGradient id="Gradient_37" gradientUnits="userSpaceOnUse" cx="0" cy="0" r="16.502367254427472" fx="0" fy="0" gradientTransform="matrix( 0.998341616447778, -0.05756749836876413, 0.05756749836876413, 0.998341616447778, -61.15,-31.15) " spreadMethod="pad">
<stop  offset="0%" stop-color="#E5E5E7"/>

<stop  offset="100%" stop-color="#666666"/>
</radialGradient>

<radialGradient id="Gradient_38" gradientUnits="userSpaceOnUse" cx="0" cy="0" r="16.498887273086034" fx="0" fy="0" gradientTransform="matrix( 0.998552188842153, 0.05379150637920551, -0.05379150637920551, 0.998552188842153, 53.8,-26.3) " spreadMethod="pad">
<stop  offset="0%" stop-color="#E5E5E7"/>

<stop  offset="100%" stop-color="#666666"/>
</radialGradient>

<radialGradient id="Gradient_39" gradientUnits="userSpaceOnUse" cx="0" cy="0" r="21.5" fx="0" fy="0" gradientTransform="matrix( 1, 0, 0, 1, -28.5,-27.6) " spreadMethod="pad">
<stop  offset="0%" stop-color="#F7F7F7"/>

<stop  offset="100%" stop-color="#6A6A6A"/>
</radialGradient>

<linearGradient id="Gradient_40" gradientUnits="userSpaceOnUse" x1="-35.1375" y1="-62.650000000000006" x2="-26.3625" y2="-35.75" spreadMethod="pad">
<stop  offset="0%" stop-color="#E1E1E1"/>

<stop  offset="36.470588235294116%" stop-color="#CCCCCC"/>

<stop  offset="100%" stop-color="#333333"/>
</linearGradient>

<radialGradient id="Gradient_41" gradientUnits="userSpaceOnUse" cx="0" cy="0" r="21.5" fx="0" fy="0" gradientTransform="matrix( -1, 0, 0, 1, 26,-25.5) " spreadMethod="pad">
<stop  offset="0%" stop-color="#F7F7F7"/>

<stop  offset="100%" stop-color="#6A6A6A"/>
</radialGradient>

<linearGradient id="Gradient_42" gradientUnits="userSpaceOnUse" x1="28.037499999999998" y1="-61.050000000000004" x2="19.2625" y2="-34.15" spreadMethod="pad">
<stop  offset="0%" stop-color="#E1E1E1"/>

<stop  offset="36.470588235294116%" stop-color="#CCCCCC"/>

<stop  offset="100%" stop-color="#333333"/>
</linearGradient>

<linearGradient id="Gradient_43" gradientUnits="userSpaceOnUse" x1="-16.8" y1="-36.55" x2="7.900000000000001" y2="-36.55" spreadMethod="pad">
<stop  offset="2.3529411764705883%" stop-color="#A0A2A3"/>

<stop  offset="55.294117647058826%" stop-color="#E5E5E7"/>

<stop  offset="100%" stop-color="#757575"/>
</linearGradient>

<linearGradient id="Gradient_44" gradientUnits="userSpaceOnUse" x1="-10.9" y1="-22.95" x2="3.9000000000000004" y2="-22.95" spreadMethod="pad">
<stop  offset="0%" stop-color="#F7F7F7"/>

<stop  offset="100%" stop-color="#D0D0D0"/>
</linearGradient>

<g id="leg_suit_0_Layer1_0_FILL">
<path fill="url(#Gradient_1)" stroke="none" d="
M 6.35 8.25
Q 11.907421875 10.833984375 12.8 11.5 12.35 9.35 11.9 8.35 11.3 6.9 12.5 2.05 12.74765625 1.02421875 12.95 0.1
L 9.3 -0.75
Q 8.1142578125 3.7498046875 6.35 8.25 Z"/>

<path fill="url(#Gradient_2)" stroke="none" d="
M 12 -18
L 14.1 -17.8
Q 14.05 -20.9 13.9 -23.15 13.753125 -25.15625 11.8 -27.75 12.2310546875 -22.8626953125 12 -18 Z"/>

<path fill="url(#Gradient_3)" stroke="none" d="
M 14.1 -17.8
L 12 -18
Q 11.644140625 -9.375390625 9.3 -0.75
L 12.95 0.1
Q 13.0623046875 -0.2841796875 13.15 -0.65 13.95 -4.35 13.95 -5.95 14.05 -9.75 14.1 -12.8 14.1 -15.6 14.1 -17.8 Z"/>

<path fill="#000000" stroke="none" d="
M 16.7 -27.45
L 10.6 -29.55 10.25 -29.7
Q 11.1 -28.75 11.75 -27.85 11.7927734375 -27.793359375 11.8 -27.75 13.753125 -25.15625 13.9 -23.15 14.05 -20.9 14.1 -17.8 14.1 -15.6 14.1 -12.8 14.05 -9.75 13.95 -5.95 13.95 -4.35 13.15 -0.65 13.0623046875 -0.2841796875 12.95 0.1 12.74765625 1.02421875 12.5 2.05 11.3 6.9 11.9 8.35 12.35 9.35 12.8 11.5 11.907421875 10.833984375 6.35 8.25 5.9876953125 8.0666015625 5.55 7.85 1.844921875 6.141015625 -3.2 6.4 -5.2359375 6.5216796875 -7.55 6.95 -8.9994140625 7.262890625 -10.6 7.7 -16.126171875 9.241796875 -17.3 10.3 -17.003515625 9.1755859375 -16.75 7.95 -15.7 2.95 -13.45 -3.55 -12 -7.75 -10.05 -12.6 -8.9 -15.45 -7.85 -17.8 -5.25 -23.65 -3 -26.8 -2.75 -27.15 0.15 -28.95
L -5.45 -27.45
Q -8.65 -22.55 -12.4 -14 -18.4 -0.25 -20.55 8.85 -22.5 17.25 -25.45 23.25 -23.3 25.85 -18.8 27.85 -17.05 28.6 -14.95 29.3 -8.8 31.2 -3.75 31.2 -0.85 31.2 6.05 29.5 5.8 29.85 9.5 28.6 18.4 25.6 17.5 22.25 16.8 20.05 16 15.05 15.25 10.95 14.45 9.3 13.7 7.7 15.2 2.3 16.95 -4.2 16.95 -6.6 17.2 -14.65 17.15 -19.8 17.1 -24.45 16.7 -27.45 Z"/>

<path fill="url(#Gradient_4)" stroke="none" d="
M 6.15 -30.65
Q 1.45 -30.25 0.15 -28.95 -2.75 -27.15 -3 -26.8 -5.25 -23.65 -7.85 -17.8 -8.9 -15.45 -10.05 -12.6 -12 -7.75 -13.45 -3.55 -15.7 2.95 -16.75 7.95 -17.003515625 9.1755859375 -17.3 10.3 -16.126171875 9.241796875 -10.6 7.7 -8.9994140625 7.262890625 -7.55 6.95 -5.2359375 6.5216796875 -3.2 6.4 -2.4322265625 -10.698828125 3.3 -27.8 3.3779296875 -27.936328125 3.4 -28.1
L 6.9 -30.2 7 -30.25 7.3 -30.45 4.55 -30.3
Q 6.4 -30.5 6.15 -30.65 Z"/>

<path fill="url(#Gradient_5)" stroke="none" d="
M 7.2 -30.3
Q 7.05 -30.25 6.9 -30.2
L 3.4 -28.1
Q 3.3779296875 -27.936328125 3.3 -27.8 -2.4322265625 -10.698828125 -3.2 6.4 1.844921875 6.141015625 5.55 7.85 5.9876953125 8.0666015625 6.35 8.25 8.1142578125 3.7498046875 9.3 -0.75 11.644140625 -9.375390625 12 -18 12.2310546875 -22.8626953125 11.8 -27.75 11.7927734375 -27.793359375 11.75 -27.85 11.1 -28.75 10.25 -29.7
L 10.6 -29.55
Q 9.25 -30.85 7.2 -30.3 Z"/>
</g>

<g id="right_shoe_0_Layer0_0_FILL">
<path fill="#000000" stroke="none" d="
M 11.1 -5.05
Q 8.923828125 -6.5638671875 6.15 -7.3 1.024609375 -8.9490234375 -5.85 -7.25 -9.2861328125 -6.328515625 -12.1 -4.35 -16.95 -0.95 -16.75 4.1 -16.75 4.45 -16.7 4.85 -16.75 4.85 -16.8 4.85 -17.75 6.85 -17.7 9 -17.65 9.5 -17.6 9.95 0.5 15.1 17.5 8.7 17.55 8.25 17.5 7.75 17.45 5.35 16.15 3.35 16.05 3.35 15.95 3.4 15.95 3.2 15.95 2.95 15.75 -2.1 11.1 -5.05
M 2.9 -6.1
Q 5.95 -5.75 8.5 -4.25 12.55 -1.85 12.7 2.1 12.7 2.45 12.7 2.8 12.4806640625 2.8876953125 10.5 3.65 10.4787109375 3.742578125 10.45 3.8 8.5 4.35 6.55 4.65 -1.75 6.05 -12.6 3.95 -12.28984375 3.9919921875 -12 4 -12.528515625 3.84140625 -13 3.7 -13.05 3.35 -13.05 3 -13.2 -0.95 -9.95 -3.35 -7 -5.5 -2.1 -6.1 -1.65 -6.15 -1.2 -6.2 -0.617578125 -6.240625 -0.05 -6.25 1.478125 -6.2822265625 2.9 -6.1 Z"/>

<path fill="url(#Gradient_6)" stroke="none" d="
M -0.5 -0.1
Q -0.6888671875 -0.0849609375 -0.9 -0.1 -4.9978515625 0.2869140625 -8.1 0.85 -9.0365234375 1.063671875 -9.75 1.25 -11.353515625 1.7046875 -11.8 2.2 -12.38203125 2.9013671875 -11.95 4
L -11.95 4.05 -12 4
Q -12.28984375 3.9919921875 -12.6 3.95 -1.75 6.05 6.55 4.65 8.5 4.35 10.45 3.8 10.4787109375 3.742578125 10.5 3.65 10.5 3.613671875 10.5 3.55 10.5 3.5 10.5 3.45 10.4912109375 3.1189453125 10.35 2.8 9.88359375 1.3669921875 7.2 0.5 3.9 -0.5 -0.5 -0.1
M -6.8 3.5
Q -6.85 2.15 -5.25 1.55 -3.7 0.9 -0.75 0.65 2.15 0.4 4.3 1.05 6.5 1.7 6.55 3.05
L 6.55 3.1
Q 6.55 3.2 5.8 3.35 5.1 3.55 1.1 3.9 -2.9 4.3 -4.85 3.95 -6.8 3.6 -6.8 3.5 Z"/>

<path fill="url(#Gradient_7)" stroke="none" d="
M -5.25 1.55
Q -6.85 2.15 -6.8 3.5 -6.8 3.6 -4.85 3.95 -2.9 4.3 1.1 3.9 5.1 3.55 5.8 3.35 6.55 3.2 6.55 3.1
L 6.55 3.05
Q 6.5 1.7 4.3 1.05 2.15 0.4 -0.75 0.65 -3.7 0.9 -5.25 1.55 Z"/>

<path fill="#CCCCCC" stroke="none" d="
M -0.9 -0.1
Q -0.6888671875 -0.0849609375 -0.5 -0.1 3.9 -0.5 7.2 0.5 9.88359375 1.3669921875 10.35 2.8 10.880078125 0.978125 8.65 0 5 -1.5 -0.1 -1.35 -5.2 -1.15 -8.7 0.65 -9.2794921875 0.93984375 -9.75 1.25 -9.0365234375 1.063671875 -8.1 0.85 -4.9978515625 0.2869140625 -0.9 -0.1 Z"/>

<path fill="url(#Gradient_8)" stroke="none" d="
M -0.1 -1.35
L -0.05 -6.25
Q -0.617578125 -6.240625 -1.2 -6.2 -1.65 -6.15 -2.1 -6.1 -7 -5.5 -9.95 -3.35 -13.2 -0.95 -13.05 3 -13.05 3.35 -13 3.7 -12.528515625 3.84140625 -12 4
L -11.95 4.05 -11.95 4
Q -12.38203125 2.9013671875 -11.8 2.2 -11.353515625 1.7046875 -9.75 1.25 -9.2794921875 0.93984375 -8.7 0.65 -5.2 -1.15 -0.1 -1.35 Z"/>

<path fill="url(#Gradient_9)" stroke="none" d="
M 8.5 -4.25
Q 5.95 -5.75 2.9 -6.1 1.478125 -6.2822265625 -0.05 -6.25
L -0.1 -1.35
Q 5 -1.5 8.65 0 10.880078125 0.978125 10.35 2.8 10.4912109375 3.1189453125 10.5 3.45 10.5 3.5 10.5 3.55 10.5 3.613671875 10.5 3.65 12.4806640625 2.8876953125 12.7 2.8 12.7 2.45 12.7 2.1 12.55 -1.85 8.5 -4.25 Z"/>
</g>

<g id="arm_suit_0_Layer1_0_FILL">
<path fill="url(#Gradient_10)" stroke="none" d="
M 39.1 -34.2
L 39.2 -35.5 22.5 -24.35 3.75 -2
Q 10.3490234375 3.2873046875 13.5 -2.55
L 25.5 -21.95
Q 34.8 -27.55 38.85 -33.1
L 39.1 -34.2 Z"/>

<path fill="#000000" stroke="none" d="
M 36.85 -45.85
Q 36.8537109375 -45.8779296875 36.8 -45.95 37.5365234375 -45.9931640625 38.4 -45.95 39.4 -44.2 40 -42.6
L 40.35 -45.6
Q 40.4 -45.6 40.45 -45.6
L 40.65 -46.75
Q 38.9 -46.8 36.35 -46.85 29.35 -47.05 23.1 -42.05 16.7 -37 15.35 -36 14.6 -35.45 10.2 -31.4 6.55 -28.05 0.2 -22.15 -1.9 -20.1 -6.7 -17.05 -11.4 -14.05 -13.05 -12.4 -15.05 -10.4 -13.85 -10.05 -12.6 -9.55 -13.8 -8.25 -15.35 -6.45 -22.3 1.05 -27.35 6.5 -27.3 6.65 -29.35 9.25 -29.35 11.05 -27.8 14.3 -25.2 14.75 -28.35 17.9 -26.65 21.75
L -14.4 33.15
Q -11.65 34.85 -9.6 33.65 -7.55 32.4 -6.2 31.1 -4.9 29.8 -4.85 28.85 -4.85 27.9 -4.65 26.1 -4.45 24.3 -6.3 20.65
L -8.65 17.25
Q -8.65 14.9 -6.8 14
L -5.45 17.4
Q -4.35 20.65 0.45 21.95 1.7 22.05 3.65 22.25 5.65 22.35 7.9 20.85 10.05 19.3 9.55 16.4 8.45 13.15 8.35 11.95 8.15 10.1 9.3 9.5 9.65 9.3 11.1 6.1 12.8 2.5 13.35 1.7 17.15 -0.95 17.35 -1.25 17.95 -2.1 18.4 -3.75 18.7 -5.05 19.65 -7.05 20.35 -8.6 21.3 -10.6 25.45 -16.1 28.6 -19.85 30.3 -21.9 31.65 -23.45 35.2 -27.35 38.05 -29.5
L 38.85 -33.1
Q 34.8 -27.55 25.5 -21.95
L 13.5 -2.55
Q 10.3490234375 3.2873046875 3.75 -2 -1.7822265625 -4.0240234375 -9.45 -10.15
L 21.7 -36.15
Q 21.3923828125 -35.81171875 29.2 -40.45 37.1470703125 -45.128515625 36.85 -45.85
M 8.45 4.95
Q 8.2103515625 5.3328125 7.9 5.85 7.1 7.4 6.6 8.55 6.3748046875 9.023046875 6.4 10.1 6.4154296875 11.4021484375 6.8 13.6 7.4 17.6 5.8 18.65 4.1 19.7 1.3 19.2 -1.65 18.7 -3.2 16.8
L -4.15 16
Q -5.15 12.05 -5.15 11.7 -5.45 8.4 -9.1 13.6 -10.05 14.9 -10.55 16.1 -11.7 19.3 -8.9 21.15 -6.8076171875 24.1458984375 -7.25 27.2 -7.270703125 27.391015625 -7.3 27.55 -7.35 28.5 -7.8 29.35 -8.3 30.2 -9.2 30.95 -10.95 32 -13.35 31.3
L -25.35 20.8
Q -25.1 16.8 -23.05 14.3 -23.3 14 -23.6 13.6 -24.8 11.7 -24.95 9.65 -22.2 5.1 -19.05 0.9 -18.15 -0.2 -17.2 -1.35 -14.45 -4.8 -11.3 -7.9
L -8.7 -6 -6.15 -4.75 -2.3 -0.4 4 1.65 5.2 1.85 4.15 2.15 8.45 4.95 Z"/>

<path fill="url(#Gradient_11)" stroke="none" d="
M -12.65 -1.35
Q -10.6 -3.9 -8.7 -6
L -11.3 -7.9
Q -14.45 -4.8 -17.2 -1.35 -18.15 -0.2 -19.05 0.9 -22.2 5.1 -24.95 9.65 -24.8 11.7 -23.6 13.6 -19.45 7.3 -14.45 0.9 -13.6 -0.2 -12.65 -1.35 Z"/>

<path fill="#CC0000" stroke="none" d="
M 6.4 10.1
Q 3.351953125 13.681640625 1.55 6.15 -3.1521484375 5.1544921875 -4.2 7.75
L -6.8 5.75
Q -13.1609375 6.5833984375 -16.55 12.85
L -14.3 22
Q -10.962109375 27.7931640625 -7.25 27.2 -6.8076171875 24.1458984375 -8.9 21.15 -11.7 19.3 -10.55 16.1 -10.05 14.9 -9.1 13.6 -5.45 8.4 -5.15 11.7 -5.15 12.05 -4.15 16
L -3.2 16.8
Q -1.65 18.7 1.3 19.2 4.1 19.7 5.8 18.65 7.4 17.6 6.8 13.6 6.4154296875 11.4021484375 6.4 10.1 Z"/>

<path fill="#9592A9" stroke="none" d="
M 4 1.65
L 4.15 2.15 5.2 1.85 4 1.65 Z"/>

<path fill="url(#Gradient_12)" stroke="none" d="
M 1.55 6.15
Q 2.806640625 4.2125 4.15 2.15
L 4 1.65 -2.3 -0.4 -6.15 -4.75 -8.7 -6
Q -10.6 -3.9 -12.65 -1.35 -13.6 -0.2 -14.45 0.9 -19.45 7.3 -23.6 13.6 -23.3 14 -23.05 14.3 -25.1 16.8 -25.35 20.8
L -13.35 31.3
Q -10.95 32 -9.2 30.95 -8.3 30.2 -7.8 29.35 -7.35 28.5 -7.3 27.55 -7.270703125 27.391015625 -7.25 27.2 -10.962109375 27.7931640625 -14.3 22
L -16.55 12.85
Q -13.1609375 6.5833984375 -6.8 5.75
L -4.2 7.75
Q -3.1521484375 5.1544921875 1.55 6.15 Z"/>

<path fill="url(#Gradient_13)" stroke="none" d="
M 7.9 5.85
Q 8.2103515625 5.3328125 8.45 4.95
L 4.15 2.15
Q 2.806640625 4.2125 1.55 6.15 3.351953125 13.681640625 6.4 10.1 6.3748046875 9.023046875 6.6 8.55 7.1 7.4 7.9 5.85 Z"/>

<path fill="url(#Gradient_14)" stroke="none" d="
M 36.8 -45.95
Q 36.8537109375 -45.8779296875 36.85 -45.85 37.1470703125 -45.128515625 29.2 -40.45 21.3923828125 -35.81171875 21.7 -36.15
L -9.45 -10.15
Q -1.7822265625 -4.0240234375 3.75 -2
L 22.5 -24.35 39.2 -35.5 39.6 -39.75
Q 39.65 -39.95 39.7 -40.1
L 40 -42.6
Q 39.4 -44.2 38.4 -45.95 37.5365234375 -45.9931640625 36.8 -45.95 Z"/>
</g>

<g id="arm_suit_0_Layer0_0_FILL">
<path fill="url(#Gradient_15)" stroke="none" d="
M 31.2 -37.1
L 21.75 -45.3 15.3 -39.6 28.8 -32.95 29.15 -33 31.2 -37.1 Z"/>

<path fill="url(#Gradient_16)" stroke="none" d="
M 29.2 -52.15
L 29 -52.4 18.75 -47.9 21.75 -45.3 31.2 -37.1 31.6 -36.75 32 -36.7 35.8 -40.6 35.75 -41.05
Q 34.05 -43.9 32.4 -46.75 29.75 -51.25 29.2 -52.15 Z"/>
</g>

<g id="body_suit_0_Layer4_0_FILL">
<path fill="#FFFFFF" stroke="none" d="
M -31.45 27.05
Q -31.396875 27.2654296875 -31.35 27.5
L -31.3 27.5
Q -31.35 27.3 -31.45 27.05
L -31.45 27.05
M 30.15 27.4
Q 30.1658203125 27.4865234375 30.15 27.55
L 30.2 27.55 30.15 27.4 Z"/>

<path fill="#000000" stroke="none" d="
M 29.05 -26.1
L 29.05 -26.15
Q 28.8498046875 -28.401953125 28.45 -30.3 28.490234375 -32.990625 25.35 -36.3 23.66484375 -38.1189453125 21 -40.15 16.2982421875 -43.6734375 14 -44.7 12.73984375 -45.3697265625 9.9 -45.8 5.966796875 -46.3904296875 5.5 -46.45 3.421484375 -46.5904296875 1.5 -46.7 1.1546875 -46.7294921875 0.8 -46.75 0.675 -46.75 0.55 -46.75
L 0.55 -46.95
Q -0.083203125 -46.9056640625 -0.75 -46.9 -1.1423828125 -46.85078125 -1.55 -46.85 -1.5998046875 -46.828125 -1.65 -46.85 -1.7931640625 -46.810546875 -1.95 -46.8 -4.55 -46.65 -7.55 -46.4 -8.1208984375 -46.35 -8.7 -46.3 -11.0611328125 -46.08984375 -13.7 -45.85 -14.6 -45.85 -18.25 -44.55 -21.8 -43.25 -28.25 -32.95 -30.0236328125 -22.57109375 -30.55 -14.95 -31.162109375 -5.7255859375 -30.45 -2.55 -29.690234375 0.6326171875 -30.1 5.4 -30.45703125 10.2064453125 -30.3 14.4 -30.15 18.603125 -30.4 20.15 -30.7220703125 22.578125 -30.8 23.55 -30.840234375 24.033984375 -30.95 24.55 -31.090234375 25.71796875 -31.45 27.05 -31.35 27.3 -31.3 27.5
L -31.35 27.5
Q -31.396875 27.2654296875 -31.45 27.05 -32.7291015625 31.9294921875 -32.25 33.25 -31.7185546875 34.5826171875 -26.3 38.5 -20.8841796875 42.41328125 -12.45 43.85 -3.964453125 45.27734375 -2.25 45.75 -1.5935546875 45.95703125 -2.2 42.9 2.6921875 46.2501953125 5.7 45.8 8.9423828125 45.3375 13.45 44.15 22.490625 41.8611328125 25.95 37.65 26.5982421875 36.896875 27.15 36.25 29.682421875 33.2970703125 30.7 32.6 30.84453125 32.5498046875 30.9 32.25 30.997265625 31.7560546875 30.9 30.6 30.80703125 29.4802734375 30.5 27.75 30.5171875 27.655859375 30.5 27.55
L 30 24.35 30 24.4
Q 30.232421875 25.9318359375 29.95 24.55 30.0302734375 23.4375 29.5 20.15 29.3505859375 19.203125 29.15 18.05 28.203125 12.755078125 28.3 7.25 28.441796875 1.7505859375 28.65 0.85 29.6013671875 -2.937109375 29.6 -8.75 29.6009765625 -9.255078125 29.6 -9.8 29.58828125 -10.33046875 29.55 -10.9 29.455078125 -15.3857421875 29.35 -20.95 29.3083984375 -23.715625 29.05 -26.1
M 20.25 -36.3
Q 20.5994140625 -36.0177734375 20.9 -35.75
L 20.95 -35.7 21.1 -35.7 21.1 -35.6
Q 22.26328125 -34.511328125 23.15 -33.6 23.96484375 -32.778515625 24.55 -32.1 25.0240234375 -31.509765625 25.35 -31.05 26.2556640625 -29.7013671875 26.1 -28.95
L 26.1 -28.9
Q 26.1140625 -27.95 25.7 -23.7 25.52265625 -21.4638671875 25.2 -18.3 25.1640625 -17.913671875 25.1 -17.5 25.066015625 -16.898828125 25 -16.25 24.92109375 -15.9439453125 24.95 -14.9 25.010546875 -14.0453125 24.55 -11.75 24.5373046875 -10.7392578125 24.5 -9.8 24.419921875 -2.836328125 24.25 0.2 24.2904296875 0.2181640625 24.3 0.2 24.2796875 0.4046875 24.2 0.6 24.230078125 0.693359375 24.2 0.75
L 24.15 0.75
Q 24.3201171875 2.5185546875 26 14.2 26.759765625 19.3255859375 27.8 26.35 28.8740234375 29.01875 28.5 29.85 28.1119140625 30.9103515625 27.15 32.05 26.0208984375 33.4408203125 24.1 34.95 20.543359375 37.7392578125 13 40.2 8.4248046875 41.7466796875 5.7 42.3 3.9736328125 42.6736328125 3 42.65 0.4818359375 42.5921875 0.4 42.6
L 0.4 42.65
Q -0.5626953125 42.608984375 -2.25 42.2 -3.9359375 41.788671875 -10.9 40.75 -17.809765625 39.759765625 -23.3 35.9 -28.7974609375 32.0947265625 -29.65 29.8 -30.1 28.8 -28.45 25.15 -28.411328125 25.07265625 -28.4 25 -28.398828125 25.0259765625 -28.45 25.05 -28.422265625 25.0412109375 -28.4 24.95
L -28.4 24.85
Q -28.2193359375 23.8916015625 -27.2 17.6 -27.12734375 16.5119140625 -27.1 15.3
L -28.4 15 -27.1 15.3
Q -26.6837890625 6.69765625 -25.95 -7.95 -25.977734375 -9.3263671875 -26 -10.55 -26.156640625 -17.425 -26.45 -17.35 -25.501171875 -25.546875 -25.2 -29.3 -18.5 -40.9 -15.75 -41.4 -12.95 -41.95 -12.1 -41.95 -11.9837890625 -41.9595703125 -9 -42.4 -9.2890625 -42.255859375 -6.55 -42.45 -5.7205078125 -42.5240234375 -3.75 -42.75 -2.5966796875 -42.85078125 -1.05 -43.05
L -1.05 -43.5 -1.05 -43.05
Q -0.7927734375 -43.04609375 -0.55 -43.1 -0.823828125 -43.029296875 -1.05 -43
L -1.05 -42.75 0.4 -42.85 0.4 -42.75
Q 0.4748046875 -42.7466796875 0.55 -42.75
L 0.55 -42.75
Q 0.566796875 -42.77421875 0.55 -42.8
L 4.85 -42.45
Q 4.91484375 -42.444140625 5.4 -42.4
L 6.1 -42.35
Q 7.1451171875 -42.2306640625 8.25 -42.15 8.5572265625 -42.1009765625 9.7 -42.05 9.6951171875 -42.0515625 9.65 -42.1 9.991796875 -42.028125 10.2 -42 10.8001953125 -41.9125 10.95 -41.9 11.017578125 -41.8994140625 11.75 -41.7 11.7765625 -41.6654296875 11.8 -41.65 12.1171875 -41.5439453125 12.55 -41.4 12.613671875 -41.37890625 12.65 -41.35 12.8828125 -41.2591796875 13.1 -41.15 16.7560546875 -39.3384765625 20.25 -36.3
M 11.8 -41.75
Q 11.789453125 -41.7541015625 11.75 -41.75 11.2171875 -41.9751953125 10.35 -42.3 9.8955078125 -42.4828125 9.3 -42.7 10.37734375 -42.3625 11.4 -41.95 11.6125 -41.838671875 11.8 -41.75
M 30.15 27.55
Q 30.1658203125 27.4865234375 30.15 27.4
L 30.2 27.55 30.15 27.55
M -1.05 -43
Q -2.5025390625 -42.75546875 -1.55 -42.8 -1.4998046875 -42.7978515625 -1.45 -42.8 -1.462890625 -42.7541015625 -1.5 -42.7
L -1.05 -42.75 -1.05 -43
M -28.25 24.9
L -28.15 24.9
Q -28.15 24.8712890625 -28.2 24.8 -28.2125 24.858203125 -28.25 24.9 Z"/>

<path fill="#006699" stroke="none" d="
M 11.75 -41.75
Q 11.789453125 -41.7541015625 11.8 -41.75 11.6125 -41.838671875 11.4 -41.95 10.37734375 -42.3625 9.3 -42.7 9.8955078125 -42.4828125 10.35 -42.3 11.2171875 -41.9751953125 11.75 -41.75 Z"/>

<path fill="url(#Gradient_17)" stroke="none" d="
M -1.1 21.8
L -0.65 22.3 -1.1 21.1 -1.1 21.8
M -1.7 21.8
L -1.1 21.95 -1.45 21.55 -1.7 21.8
M -1.1 21.1
L -1.4 21.5 -1.1 21.8 -1.1 21.1
M -1.4 21.5
L -1.45 21.55 -1.1 21.95 -1.1 21.8 -1.4 21.5
M -1.8 21.05
L -1.45 21.55 -1.4 21.5 -1.1 21.1 -1.8 21.05
M -0.55 -43.1
Q -0.7927734375 -43.04609375 -1.05 -43.05
L -1.05 -43
Q -0.823828125 -43.029296875 -0.55 -43.1
M -6.55 -42.45
Q -9.2890625 -42.255859375 -9 -42.4 -11.9837890625 -41.9595703125 -12.1 -41.95 -12.95 -41.95 -15.75 -41.4 -18.5 -40.9 -25.2 -29.3 -25.501171875 -25.546875 -26.45 -17.35 -26.156640625 -17.425 -26 -10.55 -25.977734375 -9.3263671875 -25.95 -7.95 -26.6837890625 6.69765625 -27.1 15.3 -15.2986328125 19.4861328125 -1.7 21.8
L -1.45 21.55 -1.8 21.05 -1.1 21.1 -0.65 22.3 -1.05 -42.75 -1.5 -42.7
Q -1.462890625 -42.7541015625 -1.45 -42.8 -1.4998046875 -42.7978515625 -1.55 -42.8 -2.5025390625 -42.75546875 -1.05 -43
L -1.05 -43.05
Q -2.5966796875 -42.85078125 -3.75 -42.75 -5.7205078125 -42.5240234375 -6.55 -42.45
M 0.4 42.65
L 0.4 42.6
Q 0.4818359375 42.5921875 3 42.65 3.9736328125 42.6736328125 5.7 42.3 8.4248046875 41.7466796875 13 40.2 20.543359375 37.7392578125 24.1 34.95 26.0208984375 33.4408203125 27.15 32.05 28.1119140625 30.9103515625 28.5 29.85 28.8740234375 29.01875 27.8 26.35 26.759765625 19.3255859375 26 14.2 12.9861328125 20.352734375 -0.65 22.3
L -1.1 21.8 -1.1 21.95 -1.7 21.8
Q -15.2986328125 19.4861328125 -27.1 15.3 -27.12734375 16.5119140625 -27.2 17.6 -28.2193359375 23.8916015625 -28.4 24.85
L -28.4 24.95
Q -28.422265625 25.0412109375 -28.45 25.05 -28.398828125 25.0259765625 -28.4 25 -28.411328125 25.07265625 -28.45 25.15 -30.1 28.8 -29.65 29.8 -28.7974609375 32.0947265625 -23.3 35.9 -17.809765625 39.759765625 -10.9 40.75 -3.9359375 41.788671875 -2.25 42.2 -0.5626953125 42.608984375 0.4 42.65
M -28.15 24.9
L -28.25 24.9
Q -28.2125 24.858203125 -28.2 24.8 -28.15 24.8712890625 -28.15 24.9
M 20.9 -35.75
Q 20.5994140625 -36.0177734375 20.25 -36.3 16.7560546875 -39.3384765625 13.1 -41.15 12.8828125 -41.2591796875 12.65 -41.35 12.613671875 -41.37890625 12.55 -41.4 12.1171875 -41.5439453125 11.8 -41.65 11.7765625 -41.6654296875 11.75 -41.7 11.017578125 -41.8994140625 10.95 -41.9 10.8001953125 -41.9125 10.2 -42 9.991796875 -42.028125 9.65 -42.1 9.6951171875 -42.0515625 9.7 -42.05 8.5572265625 -42.1009765625 8.25 -42.15 7.1451171875 -42.2306640625 6.1 -42.35
L 5.4 -42.4
Q 4.91484375 -42.444140625 4.85 -42.45
L 0.55 -42.8
Q 0.566796875 -42.77421875 0.55 -42.75
L 0.55 -42.75
Q 0.4748046875 -42.7466796875 0.4 -42.75
L 0.4 -42.85 -1.05 -42.75 -0.65 22.3
Q 12.9861328125 20.352734375 26 14.2 24.3201171875 2.5185546875 24.15 0.75
L 24.2 0.75
Q 24.230078125 0.693359375 24.2 0.6 24.2796875 0.4046875 24.3 0.2 24.2904296875 0.2181640625 24.25 0.2 24.419921875 -2.836328125 24.5 -9.8 24.5373046875 -10.7392578125 24.55 -11.75 25.010546875 -14.0453125 24.95 -14.9 24.92109375 -15.9439453125 25 -16.25 25.066015625 -16.898828125 25.1 -17.5 25.1640625 -17.913671875 25.2 -18.3 25.52265625 -21.4638671875 25.7 -23.7 26.1140625 -27.95 26.1 -28.9
L 26.1 -28.95
Q 26.2556640625 -29.7013671875 25.35 -31.05 25.0240234375 -31.509765625 24.55 -32.1 23.96484375 -32.778515625 23.15 -33.6 22.26328125 -34.511328125 21.1 -35.6
L 21.1 -35.7 20.95 -35.7 20.9 -35.75 Z"/>
</g>

<g id="body_suit_0_Layer3_0_FILL">
<path fill="url(#Gradient_18)" stroke="none" d="
M -1.55 42.35
L -1.8 41.2
Q -9.3 39.5 -14.75 37.8 -20.25 36.05 -23.85 33.4
L -29.65 25.9
Q -37.5 31.15 -35.35 39.15 -26.6408203125 44.9173828125 -4.55 49.1
L -1.55 42.35 Z"/>

<path fill="url(#Gradient_19)" stroke="none" d="
M 0.25 41.05
L 0 42.2 3 48.95
Q 19.31328125 49.81953125 33.8 39 35.95 31 28.1 25.75
L 22.3 33.25
Q 18.7 35.9 13.2 37.65 7.75 39.35 0.25 41.05 Z"/>
</g>

<g id="body_suit_0_Layer2_0_FILL">
<path fill="url(#Gradient_20)" stroke="none" d="
M 2.85 14.15
Q 2.9 15.15 3.5 15.8 4.2 16.5 5.2 16.45 6.25 16.45 6.85 15.8 7.55 15.2 7.5 14.2 7.5 13.2 6.85 12.5 6.25 11.85 5.2 11.85 4.2 11.9 3.5 12.5 2.85 13.15 2.85 14.15 Z"/>

<path fill="url(#Gradient_21)" stroke="none" d="
M 5.05 2.3
Q 4.05 2.3 3.4 2.95 2.75 3.6 2.75 4.6 2.8 5.6 3.4 6.25 4.05 6.9 5.05 6.9 6.1 6.85 6.75 6.25 7.45 5.65 7.4 4.65 7.45 3.65 6.75 2.95 6.1 2.25 5.05 2.3 Z"/>

<path fill="url(#Gradient_22)" stroke="none" d="
M 4.95 -2.5
Q 6 -2.55 6.6 -3.15 7.3 -3.75 7.3 -4.75 7.25 -5.75 6.6 -6.45 6 -7.15 4.95 -7.1 3.95 -7.1 3.25 -6.5 2.6 -5.8 2.6 -4.8 2.65 -3.8 3.25 -3.2 3.95 -2.5 4.95 -2.5 Z"/>

<path fill="url(#Gradient_23)" stroke="none" d="
M 4.75 -16.5
Q 3.75 -16.45 3.1 -15.85 2.5 -15.2 2.45 -14.2 2.5 -13.2 3.1 -12.55 3.75 -11.85 4.75 -11.9 5.8 -11.9 6.45 -12.5 7.15 -13.15 7.15 -14.15 7.15 -15.15 6.45 -15.8 5.8 -16.5 4.75 -16.5 Z"/>

<path fill="url(#Gradient_24)" stroke="none" d="
M 4.7 -25.9
Q 3.7 -25.9 3.05 -25.3 2.4 -24.65 2.35 -23.65 2.35 -22.65 2.95 -22 3.65 -21.3 4.65 -21.3 5.7 -21.3 6.35 -21.9 7 -22.5 7 -23.5 7.05 -24.5 6.4 -25.2 5.75 -25.9 4.7 -25.9 Z"/>

<path fill="url(#Gradient_25)" stroke="none" d="
M 6.85 -32.9
Q 6.9 -33.9 6.25 -34.6 5.65 -35.3 4.6 -35.3 3.6 -35.3 2.9 -34.7 2.25 -34.05 2.2 -33.05 2.25 -32.05 2.85 -31.4 3.5 -30.7 4.5 -30.7 5.55 -30.7 6.2 -31.3 6.9 -31.9 6.85 -32.9 Z"/>
</g>

<g id="body_suit_0_Layer1_0_FILL">
<path fill="#CC0000" stroke="none" d="
M 23.35 -25.2
Q 22.2 -27.3 20.5 -27.85 19.1 -28.25 17.8 -27.55
L 16.85 -26.75 15.8 -27.55
Q 14.55 -28.25 13.15 -27.85 11.45 -27.3 10.25 -25.2 9.05 -23.05 9.7 -21.7 10.25 -20.5 13.65 -17.3
L 16.65 -14.6 16.65 -14.4 16.85 -14.5 16.95 -14.4 16.95 -14.65 20 -17.3
Q 23.4 -20.5 23.95 -21.7 24.55 -23.05 23.35 -25.2 Z"/>
</g>

<g id="body_suit_0_Layer0_0_FILL">
<path fill="#000000" stroke="none" d="
M -19.2 -10.5
L -20.3 -10.3 -19.2 -10.5 -28.8 -16.4 -27.9 8.1
Q -15.55 6.45 -14.6 0.3
L -24.7 -5.95 -18.95 -10.35 -19.2 -10.5 Z"/>
</g>

<g id="arm_suit_copy_0_Layer4_0_FILL">
<path fill="#808080" stroke="none" d="
M 19.35 -11.55
L 19.35 -11.55 8.05 -17.85 -6.15 5.5 5.2 11.85 19.35 -11.55 Z"/>

<path fill="#000000" stroke="none" d="
M 8.05 -17.85
L 6.95 -18.45 -11.1 11.25 3.4 19.3 21.4 -10.45 19.35 -11.55 5.2 11.85 -6.15 5.5 8.05 -17.85 Z"/>
</g>

<g id="axe_0_Layer1_0_FILL">
<path fill="#000000" stroke="none" d="
M -28.2 -7.05
Q -30.85 -5.15 -31.6 -2.5 -32.15 -0.7 -31.7 1.55
L 36.6 25 35.85 24.75 44.5 27.85
Q 53.3125 31.1416015625 58.55 31.1 63.7875 31.1083984375 64.3 31.35 70.3 27.45 64.9 22.25 58.7455078125 22.7271484375 48 19.25
L 42.6 17.1 42.6 17.1 -28.2 -7.05
M -29.7 -2.2
Q -29.5 -3.65 -27.4 -4.4
L 2.05 5.55 25.1 13.3 42.9 19.35 42.95 19.35 43.1 19.4 43.1 19.4 45.1 20.1
Q 51.7 22.8 58.4 24.05
L 62.8 24.7
Q 65.6 27.75 60.9 29.35
L 61 29.45 56.5 28.85
Q 49.868359375 27.8107421875 42.6 24.85
L 42.6 24.9 42.55 24.9 26 19.45 -1.6 10.3 -29.6 1.1
Q -30.392578125 -0.633984375 -29.9 -1.8 -29.9044921875 -1.789453125 -29.9 -1.8 -29.8 -2 -29.7 -2.2 Z"/>

<path fill="#B08E77" stroke="none" d="
M 42.6 24.85
L 42.55 24.9 42.6 24.9 42.6 24.85
M -29.9 -1.8
Q -29.9044921875 -1.789453125 -29.9 -1.8
L -29.75 -1.75
Q -29.8 -1.95 -29.7 -2.2 -29.8 -2 -29.9 -1.8 Z"/>

<path fill="#B6B6B7" stroke="none" d="
M 42.75 22.5
Q 42.6787109375 22.4771484375 42.6 22.45
L 42.6 22.45 42.75 22.5
M -1.35 8.2
Q -1.3736328125 8.20859375 -1.4 8.2
L -1.4 8.2 -1.35 8.2 Z"/>

<path fill="#666666" stroke="none" d="
M 42.6 22.5
L 42.6 22.45 42.6 22.45
Q 33.575 19.5640625 25.65 17
L 26 19.45 42.55 24.9 42.6 24.85
Q 49.868359375 27.8107421875 56.5 28.85
L 61 29.45
Q 58.901171875 28.6587890625 56.85 27.85 56.8228515625 27.8681640625 56.75 27.85 49.2255859375 25.0091796875 42.6 22.5
M -29.75 -1.75
L -29.9 -1.8
Q -30.392578125 -0.633984375 -29.6 1.1
L -1.6 10.3 -1.4 8.2 -1.4 8.2
Q -25.3126953125 0.290625 -29.75 -1.75 Z"/>

<path fill="#6A503E" stroke="none" d="
M 42.95 19.35
L 42.9 19.35 42.9 19.35 42.95 19.35 Z"/>

<path fill="#A2A2A2" stroke="none" d="
M 45.1 20.1
L 43.1 19.4 42.9 19.4 42.9 19.35 42.9 19.35 25.1 13.3 25.65 17
Q 33.575 19.5640625 42.6 22.45 42.6787109375 22.4771484375 42.75 22.5
L 42.6 22.45 42.6 22.5
Q 49.2255859375 25.0091796875 56.75 27.85 56.8228515625 27.8681640625 56.85 27.85 58.901171875 28.6587890625 61 29.45
L 60.9 29.35
Q 65.6 27.75 62.8 24.7
L 58.4 24.05
Q 51.7 22.8 45.1 20.1
M -27.4 -4.4
Q -29.5 -3.65 -29.7 -2.2 -29.8 -1.95 -29.75 -1.75 -25.3126953125 0.290625 -1.4 8.2
L -1.2 7.8
Q -1.90703125 5.5927734375 2.05 5.55
L -27.4 -4.4 Z"/>

<path fill="#8F0101" stroke="none" d="
M -1.4 8.2
L -1.6 10.3 26 19.45 25.65 17
Q 9.9791015625 11.95859375 -1.35 8.2
L -1.4 8.2 Z"/>

<path fill="#CC0000" stroke="none" d="
M -1.2 7.8
L -1.35 8.2
Q 9.9791015625 11.95859375 25.65 17
L 25.1 13.3 2.05 5.55
Q -1.90703125 5.5927734375 -1.2 7.8 Z"/>

<path fill="#DDDDDD" stroke="none" d="
M -1.35 8.2
L -1.2 7.8 -1.4 8.2
Q -1.3736328125 8.20859375 -1.35 8.2 Z"/>
</g>

<g id="axe_0_Layer0_0_FILL">
<path fill="#000000" stroke="none" d="
M -17.65 -6.6
Q -20.9 -7.5 -24.45 -8.05
L -29.4 2.35 -29.7 2.8 -45.75 22
Q -44.1 23.3 -42.35 24.45 -41.1 25.25 -39.85 26.05 -28.5 33 -15 34.45
L -10.15 10.5 -5.7 -0.45
Q -10.05 -3.75 -15.3 -5.8 -16.45 -6.2 -17.65 -6.6
M -20.7 -5.65
L -18.2 -4.9
Q -11.7 -2.7 -7.9 0.25
L -11.65 9.5 -13 16.25 -14.75 25.05 -16.05 32.4
Q -28.2 30.75 -38.5 24.35 -39.75 23.55 -41 22.75 -42.2 21.9 -43.4 21
L -35.75 12.05 -32.6 8.3 -28 2.75 -23.75 -6.2
Q -21.15 -5.85 -20.7 -5.65 Z"/>

<path fill="#CC0000" stroke="none" d="
M -34.65 14.75
L -35.75 12.05 -43.4 21
Q -42.2 21.9 -41 22.75
L -34.65 14.75
M -34.35 19.2
L -38.5 24.35
Q -28.2 30.75 -16.05 32.4
L -14.75 25.05 -17.35 21.3
Q -22.03203125 15.7787109375 -24.55 21.8 -28.240234375 22.509375 -27.95 19.6 -31.2759765625 16.073828125 -33.35 18.8
L -34.35 19.2 Z"/>

<path fill="#626262" stroke="none" d="
M -34.35 19.2
L -33.35 18.8
Q -31.2759765625 16.073828125 -27.95 19.6 -28.240234375 22.509375 -24.55 21.8 -22.03203125 15.7787109375 -17.35 21.3
L -14.75 25.05 -13 16.25
Q -21.25 15.35 -28.4 11.15
L -34.35 19.2
M -32.6 8.3
L -35.75 12.05 -34.65 14.75 -30.6 9.7
Q -31.6 9.05 -32.6 8.3 Z"/>

<path fill="#8C8C8C" stroke="none" d="
M -34.65 14.75
L -34.35 19.2 -28.4 11.15
Q -29.5 10.45 -30.6 9.7
L -34.65 14.75 Z"/>

<path fill="#FE6767" stroke="none" d="
M -34.35 19.2
L -34.65 14.75 -41 22.75
Q -39.75 23.55 -38.5 24.35
L -34.35 19.2 Z"/>

<path fill="url(#Gradient_26)" stroke="none" d="
M -11.65 9.5
L -7.9 0.25
Q -11.7 -2.7 -18.2 -4.9 -19.35 -2.45 -21.35 1.15 -23.05 4.4 -23.45 5.05 -24.65 6.85 -28.4 11.15 -21.25 15.35 -13 16.25
L -11.65 9.5 Z"/>

<path fill="url(#Gradient_27)" stroke="none" d="
M -20.7 -5.65
Q -21.15 -5.85 -23.75 -6.2
L -28 2.75 -32.6 8.3
Q -31.6 9.05 -30.6 9.7 -29.65 8.65 -27.9 6.45 -26.15 4.25 -25.8 3.75 -22.8 -1.85 -20.7 -5.65 Z"/>

<path fill="url(#Gradient_28)" stroke="none" d="
M -18.2 -4.9
L -20.7 -5.65
Q -22.8 -1.85 -25.8 3.75 -26.15 4.25 -27.9 6.45 -29.65 8.65 -30.6 9.7 -29.5 10.45 -28.4 11.15 -24.65 6.85 -23.45 5.05 -23.05 4.4 -21.35 1.15 -19.35 -2.45 -18.2 -4.9 Z"/>
</g>

<g id="arm_suit_copy_0_Layer2_0_FILL">
<path fill="#333333" stroke="none" d="
M -2.2 -9.05
L -2.3 -9.1
Q -2.35 -9 -2.45 -8.9
L -2.3 -9 -2.3 -9 -2.3 -9
Q -2.2 -9.0046875 -2.2 -9.05 Z"/>

<path fill="url(#Gradient_29)" stroke="none" d="
M 38.4 -40.2
Q 38.2 -44.9 33.8 -47.7 33.35 -47.9 32.9 -48.1 32.8 -48.15 32.7 -48.2
L 32.5 -48.3
Q 29.3 -49.5 29.05 -49.4
L 20.8 -41.05
Q 12.1 -33.2 7.7 -25.25 8 -22.4 -2.3 -9.1
L -2.2 -9.05
Q -2.2 -9.0046875 -2.3 -9
L -2.3 -9 -2.3 -9
Q -3.2650390625 -5.9310546875 9.05 0.75 8.75 4.95 15.15 5.3 20.8 2.3 20.85 1.85
L 21.1 0.65
Q 22.05 -1.55 23.95 -12.6
L 24.45 -15.05 27.7 -24.2
Q 27.7 -24.3 27.9 -24.45
L 27.9 -24.6
Q 27.9 -24.7 28.05 -24.9
L 28 -24.95
Q 28.05 -25.15 28.25 -25.4 28.25 -25.45 28.3 -25.45 29 -26.8 30.6 -29.7 31.9 -32.1 32.8 -31.95
L 34.35 -33.9
Q 37.8 -38.75 38.4 -40.2
M 33 -33.1
Q 32.95 -32.9 32.85 -32.8
L 32.8 -32.7
Q 32.85 -32.9 33 -33.1 Z"/>

<path fill="#151D39" stroke="none" d="
M 32.85 -32.8
Q 32.95 -32.9 33 -33.1 32.85 -32.9 32.8 -32.7
L 32.85 -32.8 Z"/>

<path fill="#000000" stroke="none" d="
M 29.35 -50.55
Q 27.95 -50.3 26.35 -49.85 17.8 -47.95 11.9 -39.85 7.65 -34.2 3.95 -30.8 1 -25.95 -3.5 -18.5 -5.5 -15.4 -10.25 -10.1 -11.8 -8.45 -9.7 -5.25
L -2.6 -2.45
Q 4.55 0.15 7.6 4.7
L 8.8 7.2
Q 16.2 9.7 20.7 6.15 23.8 2.55 23.9 2.2 24.35 0.9 24.35 -1.3 24.4 -2.1 24.55 -3.35 24.55 -4.45 24.85 -5.75 25.15 -7.9 25.65 -10.7 28.8 -18.7 31.35 -24.25 32.2 -25.9 32.8 -27.35 32.85 -27.35 32.85 -27.5
L 37.2 -34.05
Q 38.5 -37.5 38.4 -40.2 37.8 -38.75 34.35 -33.9
L 32.8 -31.95
Q 31.9 -32.1 30.6 -29.7 29 -26.8 28.3 -25.45 28.25 -25.45 28.25 -25.4 28.05 -25.15 28 -24.95
L 28.05 -24.9
Q 27.9 -24.7 27.9 -24.6
L 27.9 -24.45
Q 27.7 -24.3 27.7 -24.2
L 24.45 -15.05 23.95 -12.6
Q 22.05 -1.55 21.1 0.65
L 20.85 1.85
Q 20.8 2.3 15.15 5.3 8.75 4.95 9.05 0.75 -3.2650390625 -5.9310546875 -2.3 -9
L -2.45 -8.9
Q -2.35 -9 -2.3 -9.1 8 -22.4 7.7 -25.25 12.1 -33.2 20.8 -41.05
L 29.05 -49.4
Q 29.3 -49.5 32.5 -48.3
L 32.7 -48.2
Q 32.8 -48.15 32.9 -48.1
L 32.85 -48.15 29.35 -50.55 Z"/>
</g>

<g id="arm_suit_copy_0_Layer1_0_FILL">
<path fill="#000000" stroke="none" d="
M 15.5 22.15
L 15 21.45
Q 14.85 21.35 14.5 20.75 12.8 18 8.35 10.15 4.05 2.3 -2.5 3.1 -8.75 3.8 -13.85 8.35 -15.65 9.45 -15.9 9.9 -16 10.3 -22.65 16.55 -23.25 17.2 -24 17.8 -24.6 23.7 -22.65 24.95 -20.7 27.45 -20 26.95 -19.25 26.5 -17.35 25.7 -15.4 25 -14.3 24.5 -13.9 25.05 -15.85 27.65 -16.05 28 -16.3 28.3 -16.6 28.75 -16.8 28.85 -12.7 36.1 -6.7 35 -6.45 34.4 -6.15 33.8 -6.3 34.3 -6.5 35.15 -4.85 38.95 2.9 39.15 3.2 37.9 3.45 36.65 4 34.05 4.3 31.85 4.45 29.65 5.65 28.6 7.3 31.2 9 33.1 10.7 34.9 12.45 34.55 24.35 32.5 19.95 27.9
L 20.35 28.6
Q 18.35 26 15.5 22.15
M 5.4 9.75
Q 5.3 9.7 5.3 9.75
L 5.35 9.8
Q 7.2 11.65 7.95 13.6 8.6 15 8.8 16.15
L 8.8 16.25
Q 11.65 22.15 12.6 24.2 13.6 26.7 15.3 27.25
L 15.35 27.25
Q 16.7 27.7 17.45 28.55
L 17.4 28.55
Q 18 30 16.8 31.15
L 16.9 31.2 16.15 31.7
Q 15.15 31.95 13.8 31.9 10.4 32 9.3 28.85 8.75 27.7 7.35 23.9 7.3 23.9 7.25 23.85 7.2 23.8 7.2 23.7 3.95 25.1 3.85 25.5
L 3.85 25.55
Q 2.9 28.6 2.25 31.65 2.2 31.7 2.15 31.7 2.1 31.75 1.45 34.7 1.35 35.1 1.25 35.5 1.25 35.65 1.2 35.75 -2.6 36.95 -4 33.5 -4 33.4 -3.95 33.35 -3.25 31.75 -1.95 27.55 -2.35 27.5 -2.8 27.35 -3.65 27.1 -4.55 26.7 -5.8 29.45 -7.35 32.1 -12.55 32.4 -13.55 29.45 -12.15 27.4 -9.45 23 -9.6 22.75 -9.75 22.55 -11.55 20.6 -12.6 19.65 -16.95 22.3 -19.35 23.85 -19.4 23.85 -19.45 23.85 -23.15 22.5 -21.35 19.5 -13.45 14.4 -13.85 14.45 -12.5 12.6 -10.7 10.85 -8.9 8.75 -6.85 7.6
L -6.8 7.65
Q -4.9 6.45 -2.3 5.7 0 5.1 5.4 9.75
M -8.45 23.9
Q -8.1 26.05 -5.9 25.9 -7.2 25.1 -8.45 23.9
M -14.15 19.65
Q -14.1 19.8 -12.8 19.35 -13.55 18.6 -13.65 18.65 -13.85 18.75 -14 18.85 -14.1 19.05 -14.1 19.15 -14.25 19.4 -14.2 19.5 -14.25 19.5 -14.15 19.65
M 0 29.15
Q 0.05 29.2 0.15 29.2 0.5 29.1 0.6 28.5
L 0.6 28.3
Q 0.6 28.25 0.55 28.2 0.5 28.1 -1.05 27.75 -1.2 27.7 -1.45 27.65 -1.15 28.8 -0.65 29 -0.55 29.05 -0.4 29.1 -0.2 29.15 0 29.15
M 5.3 9.85
Q 5.35 10 5.4 10.05 5.45 10.25 5.55 10.3 5.6 10.35 5.65 10.35 5.75 10.35 5.3 9.85 Z"/>

<path fill="url(#Gradient_30)" stroke="none" d="
M 5.3 9.75
Q 5.3 9.7 5.4 9.75 0 5.1 -2.3 5.7 -4.9 6.45 -6.8 7.65
L -6.85 7.6
Q -8.9 8.75 -10.7 10.85 -12.5 12.6 -13.85 14.45 -13.45 14.4 -21.35 19.5 -23.15 22.5 -19.45 23.85 -19.4 23.85 -19.35 23.85 -16.95 22.3 -12.6 19.65 -11.55 20.6 -9.75 22.55 -9.6 22.75 -9.45 23 -12.15 27.4 -13.55 29.45 -12.55 32.4 -7.35 32.1 -5.8 29.45 -4.55 26.7 -3.65 27.1 -2.8 27.35 -2.35 27.5 -1.95 27.55 -3.25 31.75 -3.95 33.35 -4 33.4 -4 33.5 -2.6 36.95 1.2 35.75 1.25 35.65 1.25 35.5 1.35 35.1 1.45 34.7 2.1 31.75 2.15 31.7 2.2 31.7 2.25 31.65 2.9 28.6 3.85 25.55
L 3.85 25.5
Q 3.95 25.1 7.2 23.7 7.2 23.8 7.25 23.85 7.3 23.9 7.35 23.9 8.75 27.7 9.3 28.85 10.4 32 13.8 31.9 15.15 31.95 16.15 31.7
L 16.9 31.2 16.8 31.15
Q 18 30 17.4 28.55
L 17.45 28.55
Q 16.7 27.7 15.35 27.25
L 15.3 27.25
Q 13.6 26.7 12.6 24.2 11.65 22.15 8.8 16.25
L 8.8 16.15
Q 8.6 15 7.95 13.6 7.2 11.65 5.35 9.8
L 5.3 9.75
M 5.4 10.05
Q 5.35 10 5.3 9.85 5.75 10.35 5.65 10.35 5.6 10.35 5.55 10.3 5.45 10.25 5.4 10.05
M 0.15 29.2
Q 0.05 29.2 0 29.15 -0.2 29.15 -0.4 29.1 -0.55 29.05 -0.65 29 -1.15 28.8 -1.45 27.65 -1.2 27.7 -1.05 27.75 0.5 28.1 0.55 28.2 0.6 28.25 0.6 28.3
L 0.6 28.5
Q 0.5 29.1 0.15 29.2
M -12.8 19.35
Q -14.1 19.8 -14.15 19.65 -14.25 19.5 -14.2 19.5 -14.25 19.4 -14.1 19.15 -14.1 19.05 -14 18.85 -13.85 18.75 -13.65 18.65 -13.55 18.6 -12.8 19.35
M -5.9 25.9
Q -8.1 26.05 -8.45 23.9 -7.2 25.1 -5.9 25.9 Z"/>
</g>

<g id="arm_suit_copy_0_Layer0_0_FILL">
<path fill="url(#Gradient_31)" stroke="none" d="
M 11.3 -44.2
L 24.8 -37.55 25.15 -37.6 27.2 -41.7 17.75 -49.9 11.3 -44.2 Z"/>

<path fill="url(#Gradient_32)" stroke="none" d="
M 28.4 -51.35
Q 25.75 -55.85 25.2 -56.75
L 25 -57 14.75 -52.5 17.75 -49.9 27.2 -41.7 27.6 -41.35 28 -41.3 31.8 -45.2 31.75 -45.65
Q 30.05 -48.5 28.4 -51.35 Z"/>
</g>

<g id="head_mouth_open_0_Layer13_0_FILL">
<path fill="url(#Gradient_33)" stroke="none" d="
M 52.85 -23.05
Q 52.8 -55.6 53.55 -77.8
L -3.9 -98.3 -56.1 -81
Q -56.15 -61.25 -55.15 -40.55 -53.1 1.95 -48.65 14.65 -44.25 27.35 -19.4 18.75
L 1.6 24
Q 9.9 24.2 19 23.65 37.25 22.55 45.05 16.05 52.85 9.5 52.85 -23.05 Z"/>
</g>

<g id="head_mouth_open_0_Layer12_0_FILL">
<path fill="#000000" stroke="none" d="
M -14.25 -85.05
Q -14.45 -85.35 -14.55 -85.5
L -15.3 -85.35 -15.45 -85.2
Q -16 -84.9 -15.75 -84.45 -15.9 -84.25 -15.6 -83.95 -15.05 -83.45 -14.9 -83.5 -14.6 -83.5 -14.45 -83.7 -14.1 -83.95 -13.85 -84.35 -14.05 -84.75 -14.25 -85.05
M -13.65 -85.4
L -11.8 -81.1 -3.75 -75.95 -9.45 -76.8
Q -9.7 -76.75 -10.15 -76.2
L -10.4 -76.15
Q -10.45 -76.05 -10.5 -75.85 -10.75 -75.8 -11.1 -75.55
L -11.75 -68.15 -17.1 -72.15
Q -17.4 -72.05 -17.75 -72.05
L -18.25 -72 -22.65 -68.9 -22.4 -75.15
Q -22.4 -75.65 -22.65 -76.2 -22.8 -76.25 -23 -76.4 -23.25 -76.5 -23.5 -76.8
L -30.45 -77.15 -24.8 -81.4 -24.75 -81.75
Q -24.35 -82.2 -24.6 -82.35
L -25.25 -85.25 -27.55 -85.15 -27.05 -83.05 -34.15 -77.75
Q -33.8 -74.9 -30.3 -74.05
L -24.7 -74.5 -25.85 -72.15
Q -24.65 -66.45 -24.55 -66.2 -24.1 -65.65 -23.85 -65.55 -23.25 -65.4 -22.7 -65.55
L -17.45 -69.55 -11.3 -65.1
Q -10.95 -65.35 -10.8 -65.3 -10.35 -65.35 -9.95 -65.65 -9.65 -65.75 -9.75 -65.9
L -8.65 -74.1 -0.85 -75.55
Q -1.9 -75.4 -10.65 -83.95
L -11.4 -85.5 -13.65 -85.4
M -20.3 -75.6
Q -20.65 -75.7 -20.9 -75.9 -21.3 -75.9 -21.65 -75.75 -21.95 -75.65 -22.1 -74.8 -22 -74.55 -21.8 -74.5 -21.55 -73.9 -21 -73.85 -20.75 -73.75 -20.65 -74.15 -20.25 -74.25 -19.85 -74.75 -20.05 -75.05 -20.3 -75.6
M -23 -83.85
Q -23.5 -84.1 -23.55 -83.9 -23.9 -83.7 -24.05 -83.15 -24.05 -82.8 -23.85 -82.5 -23.5 -82.15 -23.05 -81.8 -22.75 -81.7 -22.45 -82.05 -22.15 -82.45 -22.15 -82.85 -22.05 -83.25 -22.35 -83.55 -22.6 -84.2 -23 -83.85
M -15.6 -75.9
Q -15.9 -75.9 -16.5 -75.75
L -16.55 -74.85
Q -16.65 -74.45 -16.5 -74 -16.3 -73.65 -15.75 -73.6 -15.2 -73.4 -15.1 -73.75 -14.55 -74.25 -14.6 -74.3 -14.5 -75.1 -14.85 -75.35 -15 -75.95 -15.6 -75.9
M -17.9 -81.05
Q -18.1 -81.4 -18.3 -81.5 -18.9 -81.45 -18.95 -81.25 -19.25 -81.2 -19.4 -80.7 -19.1 -80.35 -19.05 -79.75 -18.7 -79.35 -18.4 -79.45 -18 -79.4 -17.6 -79.6 -17.6 -79.9 -17.25 -80.45 -17.35 -80.75 -17.9 -81.05 Z"/>

<path fill="#999900" stroke="none" d="
M -13.65 -85.4
L -14.55 -85.5
Q -14.45 -85.35 -14.25 -85.05 -14.05 -84.75 -13.85 -84.35 -14.1 -83.95 -14.45 -83.7 -14.6 -83.5 -14.9 -83.5 -15.05 -83.45 -15.6 -83.95 -15.9 -84.25 -15.75 -84.45 -16 -84.9 -15.45 -85.2
L -15.3 -85.35 -25.25 -85.25 -24.6 -82.35
Q -24.35 -82.2 -24.75 -81.75
L -24.8 -81.4 -30.45 -77.15 -23.5 -76.8
Q -23.25 -76.5 -23 -76.4 -22.8 -76.25 -22.65 -76.2 -22.4 -75.65 -22.4 -75.15
L -22.65 -68.9 -18.25 -72 -17.75 -72.05
Q -17.4 -72.05 -17.1 -72.15
L -11.75 -68.15 -11.1 -75.55
Q -10.75 -75.8 -10.5 -75.85 -10.45 -76.05 -10.4 -76.15
L -10.15 -76.2
Q -9.7 -76.75 -9.45 -76.8
L -3.75 -75.95 -11.8 -81.1 -13.65 -85.4
M -18.3 -81.5
Q -18.1 -81.4 -17.9 -81.05 -17.35 -80.75 -17.25 -80.45 -17.6 -79.9 -17.6 -79.6 -18 -79.4 -18.4 -79.45 -18.7 -79.35 -19.05 -79.75 -19.1 -80.35 -19.4 -80.7 -19.25 -81.2 -18.95 -81.25 -18.9 -81.45 -18.3 -81.5
M -16.5 -75.75
Q -15.9 -75.9 -15.6 -75.9 -15 -75.95 -14.85 -75.35 -14.5 -75.1 -14.6 -74.3 -14.55 -74.25 -15.1 -73.75 -15.2 -73.4 -15.75 -73.6 -16.3 -73.65 -16.5 -74 -16.65 -74.45 -16.55 -74.85
L -16.5 -75.75
M -23.55 -83.9
Q -23.5 -84.1 -23 -83.85 -22.6 -84.2 -22.35 -83.55 -22.05 -83.25 -22.15 -82.85 -22.15 -82.45 -22.45 -82.05 -22.75 -81.7 -23.05 -81.8 -23.5 -82.15 -23.85 -82.5 -24.05 -82.8 -24.05 -83.15 -23.9 -83.7 -23.55 -83.9
M -20.9 -75.9
Q -20.65 -75.7 -20.3 -75.6 -20.05 -75.05 -19.85 -74.75 -20.25 -74.25 -20.65 -74.15 -20.75 -73.75 -21 -73.85 -21.55 -73.9 -21.8 -74.5 -22 -74.55 -22.1 -74.8 -21.95 -75.65 -21.65 -75.75 -21.3 -75.9 -20.9 -75.9 Z"/>
</g>

<g id="head_mouth_open_0_Layer11_0_FILL">
<path fill="url(#Gradient_34)" stroke="none" d="
M -43.95 -87.1
Q 0 -90.25 46.6 -72.7 -0.1 -91.25 -43.95 -87.1
M 29.2 -110.4
L 29.2 -107.55 29.25 -107.55 29.2 -110.4
M 15.35 -141.75
L 15.5 -142.4
Q 9.35 -148.5 -1.95 -144.75
L -62 -89.5 -62.05 -84.95
Q -53.05 -86.5 -43.95 -87.1 -0.1 -91.25 46.6 -72.7 50.9 -71.05 55.3 -69.25 56.7 -68.65 58.15 -68.05
L 58.6 -72.1 38.25 -104.9 29.25 -107.55 29.2 -107.55 29.3 -104.05 32.05 -100.3 34.4 -103.1 32.05 -100.3 35 -96.4 32.05 -100.3 28.8 -96.35 32.05 -100.3 29.3 -104.05 29.2 -107.55 28.95 -107.65 29.2 -107.55 29.2 -110.4 29.1 -115.1 14.75 -118.05 29.1 -115.1 19.9 -118.05
Q 16.1689453125 -125.4919921875 21.05 -132.6
L 15.35 -141.75
M 7.3 -114.8
L 1.9 -118.25 7.3 -114.8
M 14.1 -118.35
L 7.7 -114.45 14.1 -118.35 Z"/>

<path fill="#D9D9D9" stroke="none" d="
M 55.3 -69.25
Q 50.9 -71.05 46.6 -72.7 0 -90.25 -43.95 -87.1 -51.75 -86.4 -59.45 -84.95 -51.75 -86.4 -43.95 -87.1 -53.05 -86.5 -62.05 -84.95
L -62.1 -81.45
Q -4.55 -91.6 57.8 -65.1
L 58.15 -68.05
Q 56.7 -68.65 55.3 -69.25 Z"/>

<path fill="#000000" stroke="none" d="
M 29.2 -110.4
L 29.25 -107.55 38.25 -104.9 21.05 -132.6
Q 16.1689453125 -125.4919921875 19.9 -118.05
L 29.1 -115.1 29.2 -110.4 Z"/>

<path fill="url(#Gradient_35)" stroke="none" d="
M 20.55 -170.5
Q 20.1 -170.8 19.7 -171.1 10.05 -177.7 2.65 -172.65 2.6 -172.35 2.55 -172 1.5 -165.8 0.5 -159.5 -1.75 -145.5 -1.9 -144.8
L -1.95 -144.75
Q 9.35 -148.5 15.5 -142.4
L 20.55 -170.5 Z"/>
</g>

<g id="head_mouth_open_0_Layer10_0_FILL">
<path fill="url(#Gradient_36)" stroke="none" d="
M 55 -66.15
L 47.4 -70.1 46.45 -2.7
Q 46.2 2.55 43.8 10.85 41.4 19.15 32.5 18.95 29.4 18.85 11.7 19.6 8.8 16.3 4.95 16.05 1.05 15.8 -3.25 15.7 -7.55 15.6 -12.75 16 -18 16.35 -21.45 18.9 -26.8 18.4 -34.9 18.35
L -41.15 15.3
Q -47.85 10.75 -50.5 3.3 -53.15 -3.95 -54.3 -42.7 -54.85 -60.5 -54.8 -80.05 -54.8 -81.5 -54.7 -83.9
L -61.25 -82.55 -61.4 -19.6 -58.15 -1.1
Q -56.25 13.55 -47.45 28.6 -7.1 62.65 39.9 32.75 50.9 16.3 52.85 -3.1
L 52.95 -22.05 55 -66.15 Z"/>
</g>

<g id="head_mouth_open_0_Layer9_0_FILL">
<path fill="url(#Gradient_37)" stroke="none" d="
M -64.1 -15.05
L -57.4 -15.1 -58.2 -34.35 -64.9 -34.3 -64.1 -15.05 Z"/>

<path fill="url(#Gradient_38)" stroke="none" d="
M 57.1 -29.15
L 50.4 -29.9 49.1 -10.6 55.75 -9.9 57.1 -29.15 Z"/>
</g>

<g id="head_mouth_open_0_Layer8_0_FILL">
<path fill="url(#Gradient_39)" stroke="none" d="
M -45.15 -24.35
Q -47.2 -17.5 -43.15 -13.15 -39.1 -8.85 -34.25 -10 -29.45 -11.2 -25.2 -15.35 -21 -19.55 -16.3 -25.55 -11.65 -31.55 -19.15 -32.45 -26.65 -33.35 -29.25 -30.1 -31.9 -26.8 -37.5 -29 -43.15 -31.2 -45.15 -24.35 Z"/>

<path fill="url(#Gradient_40)" stroke="none" d="
M -16.75 -59.4
Q -22.1 -63.7 -29.3 -64.95 -36.55 -66.25 -42.05 -64.25 -47.55 -62.3 -48.15 -52.4 -48.8 -42.5 -44.2 -37.7 -39.65 -32.95 -32.25 -33.4 -24.85 -33.9 -19.75 -38 -14.7 -42.15 -13 -48.65 -11.35 -55.15 -16.75 -59.4 Z"/>

<path fill="url(#Gradient_41)" stroke="none" d="
M 20.05 -9.95
Q 24.55 -6.1 30.6 -6.45 36.6 -6.75 40.65 -11.05 44.7 -15.4 42.65 -22.25 40.65 -29.1 35 -26.9 29.4 -24.7 26.75 -28 24.15 -31.25 16.65 -30.35 9.15 -29.45 12.35 -21.65 15.6 -13.85 20.05 -9.95 Z"/>

<path fill="url(#Gradient_42)" stroke="none" d="
M 22.3 -63.3
Q 15.2 -62 10.4 -57.35 5.6 -52.65 6.6 -46.6 7.6 -40.55 12.65 -36.4 17.75 -32.3 25.15 -31.8 32.55 -31.35 37.1 -36.1 41.7 -40.9 41.05 -50.8 40.45 -60.7 34.95 -62.65 29.45 -64.65 22.3 -63.3 Z"/>
</g>

<g id="mouth_2_0_Layer2_0_FILL">
<path fill="#000000" stroke="none" d="
M 43.65 16.4
Q 45.5076171875 11.962109375 41.85 4.95 41.7958984375 4.9845703125 41.65 5
L 42 4.9 41.55 4.6
Q 38.23515625 -2.978125 31.2 -1 20.3 3.05 9.25 0.85 4.5779296875 2.6927734375 1.8 7.45 -0.1640625 15.0890625 11.7 17.5 23.56875 19.966015625 31.45 17.3 39.3796875 14.63359375 43.65 16.4 Z"/>
</g>

<g id="mouth_2_0_Layer1_0_FILL">
<path fill="#000000" stroke="none" d="
M 21.35 14.55
Q 21.35 13.75 21.3 13
L 19.45 12.9 19.45 14.5 19.2 13 16.35 12.95
Q 15.45 13.2 15.05 13.25 15.05 12.8 15.1 12.2
L 12.75 11.5 12.55 13.2 12.5 11.6 8.7 10.9
Q 6.4 10.95 6.5 11 6.3912109375 11.32265625 6.5 15.95 6.6576171875 20.6337890625 9.75 20.6
L 13.05 20.85
Q 13.65 19.45 14.2 18.05 14.55 16.65 14.95 15.25 14.95 16.2 15.2 17.65 15.75 21.45 18.05 21.25
L 20.45 20.7
Q 21.4 17.8 21.35 14.55
M 20.9 13.95
L 20.3 20.2 18.9 20.45 18.4 20.5
Q 16.65 20.8 16.35 17.65 15.7 14.5 15.7 14.25 15.6 14.2 17 13.8
L 19.05 13.95 19.55 15.55 19.7 13.8 20.9 13.95
M 7.8 12.15
Q 7.8 12 9.5 12.1
L 12.2 12.55 12.4 14.55 13.05 12.65 14.45 12.95 12.8 20.1 10.75 19.9 10.25 19.95
Q 7.95 19.8 7.85 16.1 7.7 12.45 7.8 12.15
M 34 11.1
L 30.9 11.6 30.8 12.95 30.65 11.4 28.5 11.95
Q 28.65 13.2 28.95 14.4 29.6 17.15 31 19.8
L 33.95 19.9
Q 34.7 20.1 35.35 19.45 36.15 18.85 36.25 16.85 36.25 16.45 36.25 15.85 36 11.7 36 11.5 35.9615234375 11.384765625 34.8 11.2 34.4515625 11.1578125 34 11.1
M 33.5 12.1
Q 34.85 12.4 34.95 12.25 34.85 12.65 35.1 16 35.2 19.35 33.45 19.35
L 32.85 19.15 31.15 19.05 29.25 12.75 30.4 12.4 31.05 14.1 31.25 12.45 33.5 12.1 Z"/>

<path fill="#F2E9C2" stroke="none" d="
M 14.45 12.95
L 13.05 12.65 12.4 14.55 12.2 12.55 9.5 12.1
Q 8.35 15.8 10.75 19.9
L 12.8 20.1 14.45 12.95
M 13.4 14.2
Q 13.4 14.35 13.3 14.8 13.25 15.3 13.25 15.5 13.15 15.85 13 15.7 12.9 15.85 12.9 15.5 12.8 15.25 12.9 14.7 13 14.3 13.15 14
L 13.3 13.8
Q 13.4 13.9 13.4 14.2
M 11 17.15
Q 11.05 17.15 11.3 17.35 11.25 17.75 11.3 18 11.25 18.4 11.15 18.3 10.9 18.6 10.75 18.6 10.6 18.6 10.5 18.25 10.5 18.1 10.6 17.85 10.6 17.6 10.65 17.3 10.75 17.15 11 17.15
M 12.35 18.15
Q 12.25 18.4 12.4 18.55 12.5 18.8 12.4 18.95 12.35 19.15 12.2 19.35
L 12.05 19.4
Q 11.8 19.4 11.65 19.1 11.65 18.9 11.65 18.65 11.7 18.6 11.95 18.4 11.95 18.25 12.35 18.15
M 20.3 20.2
L 20.9 13.95 19.7 13.8 19.55 15.55 19.05 13.95 17 13.8
Q 16.65 17.15 18.9 20.45
L 20.3 20.2
M 20 15.1
L 20 14.75
Q 20.15 14.75 20.2 15.05 20.2 15.25 20.3 15.6 20.2 16.05 20.15 16.2 20.15 16.45 20.05 16.35
L 20 16.2
Q 19.9 16.05 20 15.55 19.8 15.3 20 15.1
M 18.65 18.1
Q 18.8 18.1 18.9 18.15 18.9 18.45 18.95 18.7 18.95 18.9 18.9 19.1 18.8 19.3 18.65 19.35 18.45 19.35 18.4 19.15 18.4 18.95 18.4 18.7 18.4 18.45 18.45 18.15 18.45 18.05 18.65 18.1
M 19.35 19.65
Q 19.3 19.45 19.2 19.3 19.35 19.1 19.35 18.9 19.55 18.85 19.7 18.7 19.75 18.85 19.9 18.9 19.8 19.1 19.9 19.3 19.8 19.55 19.9 19.65 19.7 19.8 19.6 19.8 19.35 19.85 19.35 19.65
M 31.25 12.45
L 31.05 14.1 30.4 12.4 29.25 12.75 31.15 19.05 32.85 19.15
Q 34.6 15.6 33.5 12.1
L 31.25 12.45
M 30.15 13.65
Q 30.1 13.45 30.15 13.45
L 30.4 13.65
Q 30.5 13.95 30.65 14.35 30.55 14.7 30.65 15
L 30.75 15.25
Q 30.55 15.3 30.5 15.05 30.25 14.8 30.25 14.35 30 14 30.15 13.65
M 32.3 17
Q 32.2 16.8 32.55 16.8
L 32.85 16.85
Q 32.85 17.15 32.95 17.4 33.05 17.65 33.05 17.85 33.05 18.05 32.8 18.1 32.6 18.1 32.55 17.9 32.35 17.75 32.3 17.4 32.2 17.15 32.3 17
M 31.3 17.85
Q 31.4 17.65 31.55 17.6 31.7 17.65 31.8 17.85 32.05 17.85 32.05 18.1
L 32.05 18.4
Q 31.9 18.6 31.7 18.6 31.65 18.65 31.45 18.45 31.3 18.4 31.4 18.25 31.25 18.05 31.3 17.85 Z"/>

<path fill="#69703A" stroke="none" d="
M 12.4 18.55
Q 12.25 18.4 12.35 18.15 11.95 18.25 11.95 18.4 11.7 18.6 11.65 18.65 11.65 18.9 11.65 19.1 11.8 19.4 12.05 19.4
L 12.2 19.35
Q 12.35 19.15 12.4 18.95 12.5 18.8 12.4 18.55
M 19.2 19.3
Q 19.3 19.45 19.35 19.65 19.35 19.85 19.6 19.8 19.7 19.8 19.9 19.65 19.8 19.55 19.9 19.3 19.8 19.1 19.9 18.9 19.75 18.85 19.7 18.7 19.55 18.85 19.35 18.9 19.35 19.1 19.2 19.3
M 31.55 17.6
Q 31.4 17.65 31.3 17.85 31.25 18.05 31.4 18.25 31.3 18.4 31.45 18.45 31.65 18.65 31.7 18.6 31.9 18.6 32.05 18.4
L 32.05 18.1
Q 32.05 17.85 31.8 17.85 31.7 17.65 31.55 17.6 Z"/>

<path fill="#B3BF8D" stroke="none" d="
M 11.3 17.35
Q 11.05 17.15 11 17.15 10.75 17.15 10.65 17.3 10.6 17.6 10.6 17.85 10.5 18.1 10.5 18.25 10.6 18.6 10.75 18.6 10.9 18.6 11.15 18.3 11.25 18.4 11.3 18 11.25 17.75 11.3 17.35
M 13.3 14.8
Q 13.4 14.35 13.4 14.2 13.4 13.9 13.3 13.8
L 13.15 14
Q 13 14.3 12.9 14.7 12.8 15.25 12.9 15.5 12.9 15.85 13 15.7 13.15 15.85 13.25 15.5 13.25 15.3 13.3 14.8
M 18.9 18.15
Q 18.8 18.1 18.65 18.1 18.45 18.05 18.45 18.15 18.4 18.45 18.4 18.7 18.4 18.95 18.4 19.15 18.45 19.35 18.65 19.35 18.8 19.3 18.9 19.1 18.95 18.9 18.95 18.7 18.9 18.45 18.9 18.15
M 20 14.75
L 20 15.1
Q 19.8 15.3 20 15.55 19.9 16.05 20 16.2
L 20.05 16.35
Q 20.15 16.45 20.15 16.2 20.2 16.05 20.3 15.6 20.2 15.25 20.2 15.05 20.15 14.75 20 14.75
M 32.55 16.8
Q 32.2 16.8 32.3 17 32.2 17.15 32.3 17.4 32.35 17.75 32.55 17.9 32.6 18.1 32.8 18.1 33.05 18.05 33.05 17.85 33.05 17.65 32.95 17.4 32.85 17.15 32.85 16.85
L 32.55 16.8
M 30.15 13.45
Q 30.1 13.45 30.15 13.65 30 14 30.25 14.35 30.25 14.8 30.5 15.05 30.55 15.3 30.75 15.25
L 30.65 15
Q 30.55 14.7 30.65 14.35 30.5 13.95 30.4 13.65
L 30.15 13.45 Z"/>

<path fill="#7F814F" stroke="none" d="
M 9.5 12.1
Q 7.8 12 7.8 12.15 7.7 12.45 7.85 16.1 7.95 19.8 10.25 19.95
L 10.75 19.9
Q 8.35 15.8 9.5 12.1
M 17 13.8
Q 15.6 14.2 15.7 14.25 15.7 14.5 16.35 17.65 16.65 20.8 18.4 20.5
L 18.9 20.45
Q 16.65 17.15 17 13.8
M 34.95 12.25
Q 34.85 12.4 33.5 12.1 34.6 15.6 32.85 19.15
L 33.45 19.35
Q 35.2 19.35 35.1 16 34.85 12.65 34.95 12.25 Z"/>
</g>

<g id="mouth_2_0_Layer0_0_FILL">
<path fill="#7F814F" stroke="none" d="
M 9.55 2.25
L 9 2.2
Q 7.3443359375 2.383984375 7.55 5 7.56796875 5.2513671875 7.6 5.5 8.15 8.6 8.15 8.9 8.15 8.85 9.6 8.95 9.2095703125 8.04375 9 7.1 8.5763671875 4.7380859375 9.55 2.25
M 16.45 0.35
L 15.9 0.3
Q 14.1 0.35 14.6 2.75 15.25 5.25 15.15 5.4 15.25 5.45 16.65 5.4 15.3 3.1 16.45 0.35
M 32.15 -0.8
L 31.7 -0.7
Q 34.4 2.9 33.6 6.55 35.35 6.4 35.35 6.3 35.35 6 34.85 2.55 34.45 -0.85 32.15 -0.8
M 23.95 -0.45
L 23.45 -0.35
Q 25.95 2.5 26 5.65 27.35 5.2 27.25 5.1 27.2 4.85 26.25 2 25.6 -0.9 23.95 -0.45 Z"/>

<path fill="#F2E9C2" stroke="none" d="
M 12.65 8.4
L 13.8 7.9 11.35 2.2 9.55 2.25
Q 8.5763671875 4.7380859375 9 7.1 9.2095703125 8.04375 9.6 8.95
L 11.85 8.4 11.85 6.8 12.65 8.4
M 10.5 2.9
Q 10.65 2.7 10.8 2.7 10.827734375 2.64453125 10.9 2.65 10.9611328125 2.7111328125 11.05 2.8 11.2 2.85 11.15 3 11.35 3.2 11.25 3.35 11.2 3.55 11.05 3.6 10.85 3.6 10.8 3.4 10.6916015625 3.4 10.6 3.35 10.5283203125 3.2916015625 10.5 3.15
L 10.5 2.9
M 10.4 4.3
Q 10.45 4.5 10.15 4.5
L 9.8 4.45
Q 9.75 4.15 9.7 3.9 9.55 3.7 9.55 3.5 9.55 3.35 9.75 3.25 9.9 3.2 10.05 3.4 10.2 3.6 10.35 3.85 10.359375 3.897265625 10.35 3.95 10.4 4.1376953125 10.4 4.3
M 12.1 5.75
Q 12.25 5.6 12.35 5.85 12.65 6.05 12.7 6.5 12.95 6.75 12.8 7.2 12.9 7.35 12.8 7.4
L 12.55 7.2
Q 12.45 6.85 12.3 6.5 12.3 6.2 12.2 5.95
L 12.1 5.75
M 19.1 4.65
L 19.45 5.3 20.65 4.95 18 0.4 16.45 0.35
Q 15.3 3.1 16.65 5.4
L 18.7 5.3 18.75 3.9 19.1 4.65
M 18.1 1.1
Q 18.2 1.15 18.1 1.35 18.1 1.4 17.9 1.55 17.85 1.45 17.6 1.45 17.55 1.35 17.4 1.15 17.35 0.95 17.5 0.9 17.5 0.7 17.65 0.75 17.75 0.7 18 0.9 18.05 0.9 18.1 1.1
M 16.55 1.35
Q 16.55 1.2 16.7 1.25 16.9 1.15 17.05 1.3 17.15 1.4 17.2 1.65 17.25 1.75 17.25 1.95 17.3 2 17 2.2
L 16.75 2.1
Q 16.7 1.95 16.6 1.7 16.55 1.45 16.55 1.35
M 19.55 4.25
Q 19.4 4.05 19.25 3.8 19.2 3.65 18.95 3.4
L 18.95 3.25
Q 19.15 3.2 19.25 3.4 19.35 3.5 19.5 3.75 19.75 4.05 19.7 4.25 19.85 4.4 19.6 4.5
L 19.55 4.25
M 31.7 -0.7
L 29.55 -0.6 28.55 6.2 30 6.4 30.45 4.5 30.9 6.35 33.6 6.55
Q 34.4 2.9 31.7 -0.7
M 32.05 0.9
Q 32.05 1 32 1.25 32 1.5 32 1.75 31.95 1.9 31.7 1.95 31.6 1.95 31.35 1.75 31.4 1.45 31.3 1.2 31.35 0.8 31.45 0.85 31.7 0.55 31.85 0.55 31.95 0.55 32.05 0.9
M 30.9 0.6
Q 30.85 0.65 30.6 0.9 30.6 1.05 30.2 1.1 30.3 0.9 30.1 0.85 30 0.6 30.05 0.4 30.1 0.15 30.25 0.05
L 30.45 -0.05
Q 30.7 -0.1 30.9 0.15 30.9 0.35 30.9 0.6
M 30 4.45
Q 29.95 4.8 29.8 5.05
L 29.65 5.25
Q 29.55 5.25 29.55 5 29.55 4.8 29.55 4.3 29.6 3.85 29.55 3.65 29.65 3.35 29.8 3.5 29.9 3.35 29.9 3.65 30 3.9 30 4.45
M 23.3 5.9
L 23.25 4.25 23.9 5.7 26 5.65
Q 25.95 2.5 23.45 -0.35
L 22.1 0.05 22.05 5.9 23.3 5.9
M 24.05 0.8
Q 24.1 1 24.1 1.25 24.15 1.5 24.05 1.75 24.1 1.9 23.9 1.8 23.75 1.8 23.65 1.8 23.65 1.55 23.5 1.3 23.5 1.1 23.6 0.9 23.65 0.75 23.8 0.7 23.95 0.7 24.05 0.8
M 23.05 0.45
Q 23.15 0.6 23.2 0.8 23.1 0.95 23.1 1.15 22.95 1.2 22.8 1.35 22.7 1.2 22.6 1.2 22.65 1 22.55 0.9 22.6 0.65 22.55 0.5 22.7 0.35 22.75 0.35 23 0.25 23.05 0.45
M 22.6 3.75
Q 22.6 3.5 22.65 3.55
L 22.75 3.75
Q 22.85 3.85 22.8 4.3 23 4.55 22.85 4.75
L 22.9 5.05
Q 22.75 5.05 22.6 4.8 22.6 4.65 22.5 4.3 22.5 3.85 22.6 3.75 Z"/>

<path fill="#B3BF8D" stroke="none" d="
M 12.35 5.85
Q 12.25 5.6 12.1 5.75
L 12.2 5.95
Q 12.3 6.2 12.3 6.5 12.45 6.85 12.55 7.2
L 12.8 7.4
Q 12.9 7.35 12.8 7.2 12.95 6.75 12.7 6.5 12.65 6.05 12.35 5.85
M 10.15 4.5
Q 10.45 4.5 10.4 4.3 10.4 4.1376953125 10.35 3.95 10.359375 3.897265625 10.35 3.85 10.2 3.6 10.05 3.4 9.9 3.2 9.75 3.25 9.55 3.35 9.55 3.5 9.55 3.7 9.7 3.9 9.75 4.15 9.8 4.45
L 10.15 4.5
M 19.25 3.8
Q 19.4 4.05 19.55 4.25
L 19.6 4.5
Q 19.85 4.4 19.7 4.25 19.75 4.05 19.5 3.75 19.35 3.5 19.25 3.4 19.15 3.2 18.95 3.25
L 18.95 3.4
Q 19.2 3.65 19.25 3.8
M 16.7 1.25
Q 16.55 1.2 16.55 1.35 16.55 1.45 16.6 1.7 16.7 1.95 16.75 2.1
L 17 2.2
Q 17.3 2 17.25 1.95 17.25 1.75 17.2 1.65 17.15 1.4 17.05 1.3 16.9 1.15 16.7 1.25
M 29.8 5.05
Q 29.95 4.8 30 4.45 30 3.9 29.9 3.65 29.9 3.35 29.8 3.5 29.65 3.35 29.55 3.65 29.6 3.85 29.55 4.3 29.55 4.8 29.55 5 29.55 5.25 29.65 5.25
L 29.8 5.05
M 32 1.25
Q 32.05 1 32.05 0.9 31.95 0.55 31.85 0.55 31.7 0.55 31.45 0.85 31.35 0.8 31.3 1.2 31.4 1.45 31.35 1.75 31.6 1.95 31.7 1.95 31.95 1.9 32 1.75 32 1.5 32 1.25
M 22.65 3.55
Q 22.6 3.5 22.6 3.75 22.5 3.85 22.5 4.3 22.6 4.65 22.6 4.8 22.75 5.05 22.9 5.05
L 22.85 4.75
Q 23 4.55 22.8 4.3 22.85 3.85 22.75 3.75
L 22.65 3.55
M 24.1 1.25
Q 24.1 1 24.05 0.8 23.95 0.7 23.8 0.7 23.65 0.75 23.6 0.9 23.5 1.1 23.5 1.3 23.65 1.55 23.65 1.8 23.75 1.8 23.9 1.8 24.1 1.9 24.05 1.75 24.15 1.5 24.1 1.25 Z"/>

<path fill="#69703A" stroke="none" d="
M 10.8 2.7
Q 10.65 2.7 10.5 2.9
L 10.5 3.15
Q 10.5283203125 3.2916015625 10.6 3.35 10.6916015625 3.4 10.8 3.4 10.85 3.6 11.05 3.6 11.2 3.55 11.25 3.35 11.35 3.2 11.15 3 11.2 2.85 11.05 2.8 10.9611328125 2.7111328125 10.9 2.65 10.827734375 2.64453125 10.8 2.7
M 18.1 1.35
Q 18.2 1.15 18.1 1.1 18.05 0.9 18 0.9 17.75 0.7 17.65 0.75 17.5 0.7 17.5 0.9 17.35 0.95 17.4 1.15 17.55 1.35 17.6 1.45 17.85 1.45 17.9 1.55 18.1 1.4 18.1 1.35
M 30.6 0.9
Q 30.85 0.65 30.9 0.6 30.9 0.35 30.9 0.15 30.7 -0.1 30.45 -0.05
L 30.25 0.05
Q 30.1 0.15 30.05 0.4 30 0.6 30.1 0.85 30.3 0.9 30.2 1.1 30.6 1.05 30.6 0.9
M 23.2 0.8
Q 23.15 0.6 23.05 0.45 23 0.25 22.75 0.35 22.7 0.35 22.55 0.5 22.6 0.65 22.55 0.9 22.65 1 22.6 1.2 22.7 1.2 22.8 1.35 22.95 1.2 23.1 1.15 23.1 0.95 23.2 0.8 Z"/>

<path fill="#000000" stroke="none" d="
M 18.1 -0.1
L 15.45 -0.1
Q 13.05 -0.2 13.6 2.95 14.4 5.85 14.4 6.15 14.45 6.25 16.3 6.3
L 19.2 5.8 19.1 4.65 18.75 3.9 18.7 5.3 16.65 5.4
Q 15.25 5.45 15.15 5.4 15.25 5.25 14.6 2.75 14.1 0.35 15.9 0.3
L 16.45 0.35 18 0.4 20.65 4.95 19.45 5.3 19.1 4.65 19.45 5.9 21.25 5.45
Q 20.4 2.5 18.1 -0.1
M 32.55 -1.4
L 29.2 -1.3
Q 28.8 0.05 28.35 1.45 28.15 2.8 27.9 4.15 27.8 3.25 27.4 1.9 26.45 -1.65 24.2 -1.2
L 21.85 -0.45
Q 21 3 21.75 6.85
L 23.6 6.8 23.45 5.25 23.8 6.6 26.7 6.35
Q 27.6 6.15 28 6 28.05 6.4 28 6.95
L 30.45 7.4 30.45 5.85 30.7 7.35 34.55 7.55 36.75 7.25
Q 36.796875 6.8953125 36.4 3.3 36.059375 -0.2859375 32.55 -1.4
M 23.45 -0.35
L 23.95 -0.45
Q 25.6 -0.9 26.25 2 27.2 4.85 27.25 5.1 27.35 5.2 26 5.65
L 23.9 5.7 23.25 4.25 23.3 5.9 22.05 5.9 22.1 0.05 23.45 -0.35
M 31.7 -0.7
L 32.15 -0.8
Q 34.45 -0.85 34.85 2.55 35.35 6 35.35 6.3 35.35 6.4 33.6 6.55
L 30.9 6.35 30.45 4.5 30 6.4 28.55 6.2 29.55 -0.6 31.7 -0.7 Z"/>
</g>

<g id="head_mouth_open_0_Layer5_0_FILL">
<path fill="url(#Gradient_43)" stroke="none" d="
M 4.2 -20.4
L 9.05 -18.95
Q 11.4 -22.7 8.35 -26.6
L 4.55 -30.25 1.15 -49.3 -3.3 -54.15 -3.8 -54.05 -8.25 -49.85 -10.85 -33.25 -14.75 -28.05
Q -22.4 -24.6 -16.15 -20.6
L -11.3 -21.4 -3.55 -19.9 -3.5 -20 4.2 -20.4 Z"/>
</g>

<g id="head_mouth_open_0_Layer4_0_FILL">
<path fill="#333333" stroke="none" d="
M 3.4 -22.6
Q 3.4 -25.25 1.4 -27.2 -0.6 -29.15 -3.45 -29.3 -6.25 -29.45 -8.3 -27.7 -10.35 -25.95 -10.4 -23.3 -10.4 -20.65 -8.4 -18.7 -6.4 -16.75 -3.6 -16.6 -0.75 -16.45 1.3 -18.2 3.35 -19.95 3.4 -22.6 Z"/>
</g>

<g id="head_mouth_open_0_Layer3_0_FILL">
<path fill="#000000" stroke="none" d="
M -20.25 -61
Q -32.3314453125 -66.728125 -36.7 -68.5 -41.0185546875 -70.221875 -47.1 -72.65
L -47.8 -64.65
Q -44.05 -64.05 -39.75 -63 -30.25 -60.8 -21.5 -55.2 -13.1 -49.75 -13 -49.4
L -11.35 -55.05 -20.25 -61 Z"/>
</g>

<g id="eyebrow_backup_0_Layer0_0_FILL">
<path fill="#000000" stroke="none" d="
M 0 11.4
L 0.35 14.25
Q 0.4 13.9 6.85 9.7 13.55 5.35 20.85 4.55 28.15 3.7 33.55 11.6
L 34.95 10.45
Q 31.95 3.45 26.95 1.4 21.95 -0.65 17.4 0.3 12.85 1.25 6.85 5.6
L 0 11.4 Z"/>
</g>

<g id="head_mouth_open_0_Layer2_0_FILL">
<path fill="#F2F2F2" stroke="none" d="
M -29.1 -59
Q -34.2 -59.95 -38.4 -56.5 -42.65 -53.1 -44 -49.6 -43.35 -45.95 -42.25 -44.25 -41.2 -42.55 -35.9 -40.45 -30.55 -38.3 -24.6 -41.45 -18.7 -44.65 -15.2 -50.35
L -19.4 -53.8
Q -24.1 -58.05 -29.1 -59
M 31.9 -52.65
Q 27.65 -56 23.3 -55.8 18.9 -55.6 13.9 -52.65
L 8.3 -47.95
Q 12.3 -41.85 18.2 -38.65 24.15 -35.5 29.5 -37.65 34.85 -39.75 35.9 -41.45 37 -43.15 37.65 -46.8 36.1 -49.3 31.9 -52.65 Z"/>
</g>

<g id="head_mouth_open_0_Layer1_0_FILL">
<path fill="#FF0000" stroke="none" d="
M -33.75 -54.45
Q -35.7 -52.7 -35.75 -50.1 -35.8 -47.4 -33.9 -45.5 -31.95 -43.55 -29.15 -43.4 -26.3 -43.25 -24.35 -44.95 -22.35 -46.65 -22.3 -49.3 -22.25 -51.95 -24.2 -53.9 -26.1 -55.8 -28.95 -55.95 -31.75 -56.1 -33.75 -54.45 Z"/>

<path fill="#406FD9" stroke="none" d="
M 23.05 -52.35
Q 20.25 -52.5 18.25 -50.85 16.3 -49.1 16.25 -46.5 16.2 -43.8 18.1 -41.9 20.05 -39.95 22.85 -39.8 25.7 -39.65 27.65 -41.35 29.65 -43.05 29.7 -45.65 29.75 -48.35 27.8 -50.3 25.9 -52.2 23.05 -52.35 Z"/>
</g>

<g id="head_mouth_open_0_Layer0_0_FILL">
<path fill="#000000" stroke="none" d="
M -27.65 -51.85
Q -28.9 -51.95 -29.8 -51.15 -30.65 -50.35 -30.7 -49.1 -30.7 -47.85 -29.85 -46.95 -29 -46.05 -27.75 -45.95 -26.5 -45.85 -25.65 -46.7 -24.7 -47.5 -24.7 -48.7 -24.65 -50 -25.55 -50.9 -26.4 -51.75 -27.65 -51.85
M -28.4 -49.65
Q -28.5 -50 -28.15 -50.35 -27.8 -50.7 -27.25 -50.65 -26.7 -50.6 -26.3 -50.2 -25.9 -49.8 -25.95 -49.3 -25.95 -48.75 -26.35 -48.4 -26.7 -48.05 -26.9 -48.6 -27.15 -49.1 -27.7 -49.2 -28.25 -49.35 -28.4 -49.65
M 23.8 -48.1
Q 22.85 -48.95 21.55 -48.85 20.2 -48.75 19.3 -47.85 18.4 -46.85 18.4 -45.55 18.4 -44.2 19.4 -43.35 20.3 -42.45 21.6 -42.55 22.95 -42.65 23.85 -43.6 24.75 -44.55 24.75 -45.9 24.7 -47.2 23.8 -48.1
M 22.3 -46.5
Q 22.15 -46.15 21.55 -46 21 -45.9 20.75 -45.35 20.5 -44.8 20.15 -45.15 19.75 -45.55 19.75 -46.1 19.7 -46.7 20.1 -47.1 20.5 -47.5 21.1 -47.55 21.65 -47.6 22.05 -47.2 22.45 -46.85 22.3 -46.5 Z"/>

<path fill="#FFFFFF" stroke="none" d="
M -28.15 -50.35
Q -28.5 -50 -28.4 -49.65 -28.25 -49.35 -27.7 -49.2 -27.15 -49.1 -26.9 -48.6 -26.7 -48.05 -26.35 -48.4 -25.95 -48.75 -25.95 -49.3 -25.9 -49.8 -26.3 -50.2 -26.7 -50.6 -27.25 -50.65 -27.8 -50.7 -28.15 -50.35
M 21.55 -46
Q 22.15 -46.15 22.3 -46.5 22.45 -46.85 22.05 -47.2 21.65 -47.6 21.1 -47.55 20.5 -47.5 20.1 -47.1 19.7 -46.7 19.75 -46.1 19.75 -45.55 20.15 -45.15 20.5 -44.8 20.75 -45.35 21 -45.9 21.55 -46 Z"/>
</g>

<path id="leg_suit_0_Layer0_0_1_STROKES" stroke="#000000" stroke-width="1" stroke-linejoin="round" stroke-linecap="round" fill="none" d="
M 14.9 -11.95
Q 6.9458984375 -17.650390625 -1.25 -15.6
M 13.1 0.35
Q 1.7 -4.7 -9.4 -2.7"/>

<path id="arm_suit_0_Layer0_0_1_STROKES" stroke="#000000" stroke-width="2" stroke-linejoin="round" stroke-linecap="round" fill="none" d="
M 21.75 -45.3
L 18.75 -47.9 29 -52.4 29.2 -52.15
Q 29.75 -51.25 32.4 -46.75 34.05 -43.9 35.75 -41.05
M 35.8 -40.6
L 32 -36.7
M 31.6 -36.75
L 31.2 -37.1 29.15 -33
M 28.8 -32.95
L 15.3 -39.6 21.75 -45.3 31.2 -37.1"/>

<path id="body_suit_0_Layer4_0_1_STROKES" stroke="#000000" stroke-width="2" stroke-linejoin="round" stroke-linecap="round" fill="none" d="
M -1.05 -42.725
L -0.65 22.325
Q 12.9861328125 20.352734375 26.025 14.2
M -28.4 15
L -27.075 15.3
Q -15.2986328125 19.4861328125 -1.675 21.825
L -1.45 21.55 -1.8 21.075 -1.1 21.1 -0.65 22.325 -1.1 21.825 -1.1 21.975 -1.675 21.825
M -1.05 -43.025
L -1.05 -43 -1.05 -42.725
M -1.05 -43.5
L -1.05 -43.025
M -1.45 21.55
L -1.4 21.5 -1.1 21.1 -1.1 21.825 -1.4 21.5
M -1.1 21.975
L -1.45 21.55"/>

<path id="body_suit_0_Layer3_0_1_STROKES" stroke="#000000" stroke-width="2" stroke-linejoin="round" stroke-linecap="round" fill="none" d="
M 0 42.2
L 3 48.95
Q 19.31328125 49.81953125 33.8 39 35.95 31 28.1 25.75
L 22.3 33.25
Q 18.7 35.9 13.2 37.65 7.75 39.35 0.25 41.05
M -1.55 42.35
L -4.55 49.1
Q -26.6408203125 44.9173828125 -35.35 39.15 -37.5 31.15 -29.65 25.9
L -23.85 33.4
Q -20.25 36.05 -14.75 37.8 -9.3 39.5 -1.8 41.2"/>

<path id="body_suit_0_Layer2_0_1_STROKES" stroke="#000000" stroke-width="1" stroke-linejoin="round" stroke-linecap="round" fill="none" d="
M 6.2 -31.3
Q 5.55 -30.7 4.5 -30.7 3.5 -30.7 2.85 -31.4 2.25 -32.05 2.2 -33.05 2.25 -34.05 2.9 -34.7 3.6 -35.3 4.6 -35.3 5.65 -35.3 6.25 -34.6 6.9 -33.9 6.85 -32.9 6.9 -31.9 6.2 -31.3 Z
M 4.7 -25.9
Q 5.75 -25.9 6.4 -25.2 7.05 -24.5 7 -23.5 7 -22.5 6.35 -21.9 5.7 -21.3 4.65 -21.3 3.65 -21.3 2.95 -22 2.35 -22.65 2.35 -23.65 2.4 -24.65 3.05 -25.3 3.7 -25.9 4.7 -25.9 Z
M 4.75 -16.5
Q 5.8 -16.5 6.45 -15.8 7.15 -15.15 7.15 -14.15 7.15 -13.15 6.45 -12.5 5.8 -11.9 4.75 -11.9 3.75 -11.85 3.1 -12.55 2.5 -13.2 2.45 -14.2 2.5 -15.2 3.1 -15.85 3.75 -16.45 4.75 -16.5 Z
M 4.95 -2.5
Q 3.95 -2.5 3.25 -3.2 2.65 -3.8 2.6 -4.8 2.6 -5.8 3.25 -6.5 3.95 -7.1 4.95 -7.1 6 -7.15 6.6 -6.45 7.25 -5.75 7.3 -4.75 7.3 -3.75 6.6 -3.15 6 -2.55 4.95 -2.5 Z
M 5.05 2.3
Q 6.1 2.25 6.75 2.95 7.45 3.65 7.4 4.65 7.45 5.65 6.75 6.25 6.1 6.85 5.05 6.9 4.05 6.9 3.4 6.25 2.8 5.6 2.75 4.6 2.75 3.6 3.4 2.95 4.05 2.3 5.05 2.3 Z
M 2.85 14.15
Q 2.85 13.15 3.5 12.5 4.2 11.9 5.2 11.85 6.25 11.85 6.85 12.5 7.5 13.2 7.5 14.2 7.55 15.2 6.85 15.8 6.25 16.45 5.2 16.45 4.2 16.5 3.5 15.8 2.9 15.15 2.85 14.15 Z"/>

<path id="body_suit_0_Layer0_0_1_STROKES" stroke="#000000" stroke-width="2" stroke-linejoin="round" stroke-linecap="round" fill="none" d="
M 14.55 0.75
L 16.95 1.825 17.1 -2.45
M 20 6.5
L 20.875 3.575 16.95 1.825 16.85 5.2
M 21.75 0.65
L 20.875 3.575 26.05 5.85
M -19.175 -10.5
L -20.3 -10.3
M -8.85 -14.35
L -15.225 -13.6 -15.225 -13.175 -19.175 -10.5
M -15.25 -16.65
L -15.225 -13.6"/>

<path id="arm_suit_copy_0_Layer0_0_1_STROKES" stroke="#000000" stroke-width="2" stroke-linejoin="round" stroke-linecap="round" fill="none" d="
M 17.75 -49.9
L 14.75 -52.5 25 -57 25.2 -56.75
Q 25.75 -55.85 28.4 -51.35 30.05 -48.5 31.75 -45.65
M 31.8 -45.2
L 28 -41.3
M 27.6 -41.35
L 27.2 -41.7 25.15 -37.6
M 24.8 -37.55
L 11.3 -44.2 17.75 -49.9 27.2 -41.7"/>

<path id="head_mouth_open_0_Layer14_0_1_STROKES" stroke="#000000" stroke-width="2" stroke-linejoin="round" stroke-linecap="round" fill="none" d="
M 48.25 -67.85
Q 40.65 -67.45 35.4 -72.15 30.2 -76.85 30.3 -83.75 30.4 -90.65 35.75 -95.85 41.15 -101.05 48.75 -101.45 56.35 -101.8 61.55 -97.15 66.8 -92.45 66.7 -85.55 66.6 -78.7 61.2 -73.45 55.85 -68.2 48.25 -67.85 Z"/>

<path id="head_mouth_open_0_Layer12_0_1_STROKES" stroke="#000000" stroke-width="2" stroke-linejoin="round" stroke-linecap="round" fill="none" d="
M 38.15 -6.75
L 40.625 -0.625 49.6 -4.95
M 42.25 3.35
L 40.625 -0.625 34.05 2.55 34.8 7.2
M 28.4 5.25
L 34.05 2.55 33 -3.85"/>

<path id="head_mouth_open_0_Layer11_0_1_STROKES" stroke="#000000" stroke-width="2" stroke-linejoin="round" stroke-linecap="round" fill="none" d="
M 2.65 -172.65
Q 10.05 -177.7 19.7 -171.1 20.1 -170.8 20.55 -170.5
L 20.9 -170.45
M -1.95 -144.75
L -1.9 -144.8
Q -1.75 -145.5 0.5 -159.5 1.5 -165.8 2.55 -172 2.6 -172.35 2.65 -172.65
L 2.2 -172.7
M 15.5 -142.4
L 15.35 -141.75 21.05 -132.575 38.25 -104.875 58.6 -72.1 58.15 -68.05 57.8 -65.1
Q -4.55 -91.6 -62.1 -81.45
L -62.05 -84.95 -62 -89.5 -1.95 -144.75 -2.65 -144.85
M 7.3 -114.8
L 1.9 -118.25
M 14.1 -118.35
L 7.7 -114.45
M 28.95 -107.65
L 29.225 -107.55 29.2 -110.375 29.1 -115.1 14.75 -118.05
M 29.275 -107.55
L 29.225 -107.55 29.3 -104.025 32.075 -100.3 34.4 -103.1
M 29.275 -107.55
L 38.25 -104.875
M 20.55 -170.5
L 15.5 -142.4
M 35 -96.4
L 32.075 -100.3 28.8 -96.35"/>

<path id="head_mouth_open_0_Layer11_0_2_STROKES" stroke="#DDDDDD" stroke-width="2" stroke-linejoin="round" stroke-linecap="round" fill="none" d="
M 55.3 -69.25
Q 50.9 -71.05 46.6 -72.7
M -59.45 -84.95
Q -51.75 -86.4 -43.95 -87.1 -0.1 -91.25 46.6 -72.7"/>

<path id="head_mouth_open_0_Layer10_0_1_STROKES" stroke="#000000" stroke-width="2" stroke-linejoin="round" stroke-linecap="round" fill="none" d="
M 47.4 -70.1
L 46.45 -2.7
Q 46.2 2.55 43.8 10.85 41.4 19.15 32.5 18.95 29.4 18.85 11.7 19.6 8.8 16.3 4.95 16.05 1.05 15.8 -3.25 15.7 -7.55 15.6 -12.75 16 -18 16.35 -21.45 18.9 -26.8 18.4 -34.9 18.35
L -41.15 15.3
Q -47.85 10.75 -50.5 3.3 -53.15 -3.95 -54.3 -42.7 -54.85 -60.5 -54.8 -80.05 -54.8 -81.5 -54.7 -83.9
L -61.25 -82.55 -61.4 -19.6 -58.15 -1.1
Q -56.25 13.55 -47.45 28.6 -7.1 62.65 39.9 32.75 50.9 16.3 52.85 -3.1
L 52.95 -22.05 55 -66.15 47.4 -70.1 Z"/>

<path id="head_mouth_open_0_Layer9_0_1_STROKES" stroke="#000000" stroke-width="2" stroke-linejoin="round" stroke-linecap="round" fill="none" d="
M 57.1 -29.15
L 55.75 -9.9 49.1 -10.6 50.4 -29.9 57.1 -29.15 Z
M -64.1 -15.05
L -64.9 -34.3 -58.2 -34.35 -57.4 -15.1 -64.1 -15.05 Z"/>

<path id="head_mouth_open_0_Layer6_0_1_STROKES" stroke="#DDDDDD" stroke-width="2" stroke-linejoin="round" stroke-linecap="round" fill="none" d="
M 22.9 -8.65
L 21.55 -0.7
M 8.7 -25.45
L 22.75 -8.9
M -31.5 -9
L -30.15 -1.05
M -17.3 -25.8
L -31.35 -9.25"/>

<path id="head_mouth_open_0_Layer6_0_2_STROKES" stroke="#EAEAEA" stroke-width="2" stroke-linejoin="round" stroke-linecap="round" fill="none" d="
M 6.25 -44.35
Q 15.6 -26.75 34.4 -32.1
M -13.7 -45.75
Q -23.05 -28.15 -41.85 -33.5"/>

<path id="head_mouth_open_0_Layer5_0_1_STROKES" stroke="#666666" stroke-width="2" stroke-linejoin="round" stroke-linecap="round" fill="none" d="
M 1.15 -49.3
L 4.55 -30.25 8.35 -26.6
Q 11.4 -22.7 9.05 -18.95
L 4.2 -20.4 -3.5 -20 -3.55 -19.9 -11.3 -21.4 -16.15 -20.6
Q -22.4 -24.6 -14.75 -28.05
L -10.85 -33.25 -8.25 -49.85"/>

<path id="head_mouth_open_0_Layer4_0_1_STROKES" stroke="url(#Gradient_44)" stroke-width="2" stroke-linejoin="round" stroke-linecap="round" fill="none" d="
M 3.4 -22.6
Q 3.35 -19.95 1.3 -18.2 -0.75 -16.45 -3.6 -16.6 -6.4 -16.75 -8.4 -18.7 -10.4 -20.65 -10.4 -23.3 -10.35 -25.95 -8.3 -27.7 -6.25 -29.45 -3.45 -29.3 -0.6 -29.15 1.4 -27.2 3.4 -25.25 3.4 -22.6 Z"/>

<path id="head_mouth_open_0_Layer2_0_1_STROKES" stroke="#000000" stroke-width="2" stroke-linejoin="round" stroke-linecap="round" fill="none" d="
M 8.3 -47.95
L 13.9 -52.65
Q 18.9 -55.6 23.3 -55.8 27.65 -56 31.9 -52.65 36.1 -49.3 37.65 -46.8
M -15.2 -50.35
L -19.4 -53.8
Q -24.1 -58.05 -29.1 -59 -34.2 -59.95 -38.4 -56.5 -42.65 -53.1 -44 -49.6"/>
</defs>

<g transform="matrix( 4.9261322021484375, 0, 0, 4.9261322021484375, 82.65,526.85) ">
<g transform="matrix( 0.3514251708984375, 0.02484130859375, -0.0230255126953125, 0.32562255859375, 33.95,-8.55) ">
<g transform="matrix( 1, 0, 0, 1, 0,0) ">
<use xlink:href="#leg_suit_0_Layer1_0_FILL"/>
</g>

<g transform="matrix( 1, 0, 0, 1, 0,0) ">
<use xlink:href="#leg_suit_0_Layer0_0_1_STROKES"/>
</g>

<g transform="matrix( 1.15313720703125, 0.0055694580078125, -0.0055694580078125, 1.15313720703125, -2.5,17.55) ">
<g transform="matrix( 1, 0, 0, 1, 0,0) ">
<use xlink:href="#right_shoe_0_Layer0_0_FILL"/>
</g>
</g>
</g>

<g transform="matrix( -0.294677734375, -0.103302001953125, -0.103302001953125, 0.294677734375, 56.45,-25.95) ">
<g transform="matrix( 1, 0, 0, 1, 0,0) ">
<use xlink:href="#arm_suit_0_Layer1_0_FILL"/>
</g>

<g transform="matrix( 1, 0, 0, 1, 0,0) ">
<use xlink:href="#arm_suit_0_Layer0_0_FILL"/>

<use xlink:href="#arm_suit_0_Layer0_0_1_STROKES"/>
</g>
</g>

<g transform="matrix( -0.3457489013671875, 0.0225372314453125, 0.0225372314453125, 0.3457489013671875, 51.3,-9.05) ">
<g transform="matrix( 1, 0, 0, 1, 0,0) ">
<use xlink:href="#leg_suit_0_Layer1_0_FILL"/>
</g>

<g transform="matrix( 1, 0, 0, 1, 0,0) ">
<use xlink:href="#leg_suit_0_Layer0_0_1_STROKES"/>
</g>

<g transform="matrix( 1.15313720703125, 0.0055694580078125, -0.0055694580078125, 1.15313720703125, -2.5,17.55) ">
<g transform="matrix( 1, 0, 0, 1, 0,0) ">
<use xlink:href="#right_shoe_0_Layer0_0_FILL"/>
</g>
</g>
</g>

<g transform="matrix( 0.3466796875, -0.0144500732421875, 0.0101776123046875, 0.34625244140625, 42.25,-30.35) ">
<g transform="matrix( 1, 0, 0, 1, 0,0) ">
<use xlink:href="#body_suit_0_Layer4_0_FILL"/>

<use xlink:href="#body_suit_0_Layer4_0_1_STROKES"/>
</g>

<g transform="matrix( 1, 0, 0, 1, 0,0) ">
<use xlink:href="#body_suit_0_Layer3_0_FILL"/>

<use xlink:href="#body_suit_0_Layer3_0_1_STROKES"/>
</g>

<g transform="matrix( 1, 0, 0, 1, 0,0) ">
<use xlink:href="#body_suit_0_Layer2_0_FILL"/>

<use xlink:href="#body_suit_0_Layer2_0_1_STROKES"/>
</g>

<g transform="matrix( 1, 0, 0, 1, 0,0) ">
<use xlink:href="#body_suit_0_Layer1_0_FILL"/>
</g>

<g transform="matrix( 1, 0, 0, 1, 0,0) ">
<use xlink:href="#body_suit_0_Layer0_0_FILL"/>

<use xlink:href="#body_suit_0_Layer0_0_1_STROKES"/>
</g>
</g>

<g transform="matrix( 0.28985595703125, -0.115966796875, 0.115966796875, 0.28985595703125, 28.45,-25.7) ">
<g transform="matrix( 1, 0, 0, 1, 0,0) ">
<use xlink:href="#arm_suit_copy_0_Layer4_0_FILL"/>
</g>

<g transform="matrix( -0.96136474609375, -0.8218994140625, -0.8218994140625, 0.96136474609375, 31.9,29.4) ">
<g transform="matrix( 1, 0, 0, 1, 0,0) ">
<use xlink:href="#axe_0_Layer1_0_FILL"/>
</g>

<g transform="matrix( 1, 0, 0, 1, 0,0) ">
<use xlink:href="#axe_0_Layer0_0_FILL"/>
</g>
</g>

<g transform="matrix( 1, 0, 0, 1, 0,0) ">
<use xlink:href="#arm_suit_copy_0_Layer2_0_FILL"/>
</g>

<g transform="matrix( 1, 0, 0, 1, 0,0) ">
<use xlink:href="#arm_suit_copy_0_Layer1_0_FILL"/>
</g>

<g transform="matrix( 1, 0, 0, 1, 0,0) ">
<use xlink:href="#arm_suit_copy_0_Layer0_0_FILL"/>

<use xlink:href="#arm_suit_copy_0_Layer0_0_1_STROKES"/>
</g>
</g>

<g transform="matrix( 0.282684326171875, -0.0151214599609375, 0.0040435791015625, 0.2828369140625, 43.3,-54.85) ">
<g transform="matrix( 1, 0, 0, 1, 0,0) ">
<use xlink:href="#head_mouth_open_0_Layer14_0_1_STROKES"/>
</g>

<g transform="matrix( 1, 0, 0, 1, 0,0) ">
<use xlink:href="#head_mouth_open_0_Layer13_0_FILL"/>
</g>

<g transform="matrix( 1, 0, 0, 1, 0,0) ">
<use xlink:href="#head_mouth_open_0_Layer12_0_FILL"/>

<use xlink:href="#head_mouth_open_0_Layer12_0_1_STROKES"/>
</g>

<g transform="matrix( 1, 0, 0, 1, 0,0) ">
<use xlink:href="#head_mouth_open_0_Layer11_0_FILL"/>

<use xlink:href="#head_mouth_open_0_Layer11_0_1_STROKES"/>

<use xlink:href="#head_mouth_open_0_Layer11_0_2_STROKES"/>
</g>

<g transform="matrix( 1, 0, 0, 1, 0,0) ">
<use xlink:href="#head_mouth_open_0_Layer10_0_FILL"/>

<use xlink:href="#head_mouth_open_0_Layer10_0_1_STROKES"/>
</g>

<g transform="matrix( 1, 0, 0, 1, 0,0) ">
<use xlink:href="#head_mouth_open_0_Layer9_0_FILL"/>

<use xlink:href="#head_mouth_open_0_Layer9_0_1_STROKES"/>
</g>

<g transform="matrix( 1, 0, 0, 1, 0,0) ">
<use xlink:href="#head_mouth_open_0_Layer8_0_FILL"/>
</g>

<g transform="matrix( 1.10162353515625, 0.012939453125, -0.0143585205078125, 1.2220916748046875, -24.95,-8.75) ">
<g transform="matrix( 1, 0, 0, 1, 0,0) ">
<use xlink:href="#mouth_2_0_Layer2_0_FILL"/>
</g>

<g transform="matrix( 1, 0, 0, 1, 0,0) ">
<use xlink:href="#mouth_2_0_Layer1_0_FILL"/>
</g>

<g transform="matrix( 1, 0, 0, 1, 0,0) ">
<use xlink:href="#mouth_2_0_Layer0_0_FILL"/>
</g>
</g>

<g transform="matrix( 1, 0, 0, 1, 0,0) ">
<use xlink:href="#head_mouth_open_0_Layer6_0_1_STROKES"/>

<use xlink:href="#head_mouth_open_0_Layer6_0_2_STROKES"/>
</g>

<g transform="matrix( 1, 0, 0, 1, 0,0) ">
<use xlink:href="#head_mouth_open_0_Layer5_0_FILL"/>

<use xlink:href="#head_mouth_open_0_Layer5_0_1_STROKES"/>
</g>

<g transform="matrix( 1, 0, 0, 1, 0,0) ">
<use xlink:href="#head_mouth_open_0_Layer4_0_FILL"/>

<use xlink:href="#head_mouth_open_0_Layer4_0_1_STROKES"/>
</g>

<g transform="matrix( 1, 0, 0, 1, 0,0) ">
<use xlink:href="#head_mouth_open_0_Layer3_0_FILL"/>
</g>

<g transform="matrix( 1, 0, 0, 1, 6.05,-68.25) ">
<g transform="matrix( 1, 0, 0, 1, 0,0) ">
<use xlink:href="#eyebrow_backup_0_Layer0_0_FILL"/>
</g>
</g>

<g transform="matrix( 1, 0, 0, 1, 0,0) ">
<use xlink:href="#head_mouth_open_0_Layer2_0_FILL"/>

<use xlink:href="#head_mouth_open_0_Layer2_0_1_STROKES"/>
</g>

<g transform="matrix( 1, 0, 0, 1, 0,0) ">
<use xlink:href="#head_mouth_open_0_Layer1_0_FILL"/>
</g>

<g transform="matrix( 1, 0, 0, 1, 0,0) ">
<use xlink:href="#head_mouth_open_0_Layer0_0_FILL"/>
</g>
</g>
</g>
</svg>
