
<svg xmlns="http://www.w3.org/2000/svg" version="1.1" xmlns:xlink="http://www.w3.org/1999/xlink" preserveAspectRatio="none" x="0px" y="0px" width="560px" height="544px" viewBox="0 0 560 544">
<defs>
<linearGradient id="Gradient_1" gradientUnits="userSpaceOnUse" x1="-19.65" y1="-6.1625000000000005" x2="23.85" y2="21.0625" spreadMethod="pad">
<stop  offset="0%" stop-color="#DBDFDC"/>

<stop  offset="100%" stop-color="#9BA89E"/>
</linearGradient>

<linearGradient id="Gradient_2" gradientUnits="userSpaceOnUse" x1="-7.387499999999999" y1="22.3125" x2="11.1875" y2="31.7875" spreadMethod="pad">
<stop  offset="1.5686274509803921%" stop-color="#A9B4AC"/>

<stop  offset="100%" stop-color="#707E72"/>
</linearGradient>

<radialGradient id="Gradient_3" gradientUnits="userSpaceOnUse" cx="0" cy="0" r="30.575000000000003" fx="0" fy="0" gradientTransform="matrix( 0.9999999999999999, 0, 0, 0.9999999999999999, 27.25,19.4) " spreadMethod="pad">
<stop  offset="66.66666666666667%" stop-color="#000000"/>

<stop  offset="82.3529411764706%" stop-color="#565761"/>

<stop  offset="100%" stop-color="#B8B9CF"/>
</radialGradient>

<radialGradient id="Gradient_4" gradientUnits="userSpaceOnUse" cx="0" cy="0" r="21.75" fx="0" fy="0" gradientTransform="matrix( 1, 0, 0, 1, 32.4,16.2) " spreadMethod="pad">
<stop  offset="23.92156862745098%" stop-color="#FFFFFF"/>

<stop  offset="100%" stop-color="#D1D6FA"/>
</radialGradient>

<g id="leg_suit_copy_0_Layer3_0_FILL">
<path fill="#FCC87A" stroke="none" d="
M 0.3 13.1
L 0.3 13.45
Q 0.3107421875 13.13203125 0.45 12.9
L 0.3 12.9 0.3 13.1 Z"/>

<path fill="#BEC6C0" stroke="none" d="
M 8.45 12.25
L 8.45 12.2
Q 8.45 12.15 8.45 12.1
L 8.7 12.15 10.6 -1.9 -2.45 -2.9
Q -3.35 -0.4 -2.55 1.4 -2 2.45 -1.9 2.7 -0.95 3.4 -0.6 3.5 -0.2 3.5 0.15 3.75 0.3 4 0.4 4.4
L 0.3 12.9 0.45 12.9 8.9 14.75 8.9 14.65
Q 8.85 14.4 8.8 14.15 8.5 12.65 8.45 12.25 Z"/>

<path fill="#FDD194" stroke="none" d="
M 8.45 12.2
L 8.45 12.25 8.5 12.3
Q 8.55 12.35 8.6 12.45
L 8.7 12.15 8.45 12.1
Q 8.45 12.15 8.45 12.2 Z"/>

<path fill="#000000" stroke="none" d="
M 12.5 -3.7
Q 12.25 -3.95 11.85 -3.95
L -2.9 -5
Q -3.25 -5.1 -3.6 -4.85 -4.05 -4.7 -4.2 -4.3 -5.8 -1.35 -4.8 1.15 -3.6 5.8 -2 5.85
L -2 13.1
Q -2.05 13.55 -1.7 13.8 -1.4 14.05 -0.95 14 -0.45 13.95 -0.05 13.65 0.2 13.4 0.3 13.1
L 0.3 12.9 0.4 4.4
Q 0.3 4 0.15 3.75 -0.2 3.5 -0.6 3.5 -0.95 3.4 -1.9 2.7 -2 2.45 -2.55 1.4 -3.35 -0.4 -2.45 -2.9
L 10.6 -1.9 8.7 12.15 8.6 12.45
Q 8.55 12.35 8.5 12.3
L 8.45 12.25
Q 8.5 12.65 8.8 14.15 8.85 14.4 8.9 14.65
L 8.9 14.75
Q 9.15 15.8 9.55 16.1 10.05 16.45 10.4 14.5 10.75 12.55 10.8 12.15
L 13.05 -2.8
Q 13.1 -3.2 12.8 -3.5 12.65 -3.65 12.5 -3.7 Z"/>
</g>

<g id="leg_suit_copy_0_Layer2_0_FILL">
<path fill="#918F77" stroke="none" d="
M -14.9 27.95
Q -14.35 27.25 -10.6 25.65 -15.35 26.45 -15.95 27.15
L -16 27.25 -14.9 27.95
M -19.65 21.15
L -19.7 21.1
Q -20 21 -21.15 20.6
L -24.45 21.15
Q -26.15 23.6 -24.95 25.05 -23.75 26.35 -22.85 25.85
L -22.95 26.7
Q -22.95 27.6 -22.5 28.05 -20.35 30.55 -18.6 30 -16.95 29.45 -16.75 29.6
L -16.55 28.5
Q -16.35 27.65 -16 27.25
L -15.95 27.15
Q -17.8 27.35 -18.3 26.45 -19.05 26.3 -19.05 25.55
L -17.35 24.55
Q -18.95 25.1 -19 25.05 -20 25.25 -20.8 25.05 -21.55 25.2 -22.55 25.55 -21.55 25.2 -20.8 25.05 -21.1 24.9 -21.4 24.75 -22.35 24.1 -19.65 21.15 Z"/>

<path fill="#678B30" stroke="none" d="
M -19.65 21.15
L -19.65 21.1 -19.7 21.1 -19.65 21.15
M 9.9 25.3
L 7.6 25.65
Q 8.75 25.95 10.8 25.35
L 9.9 25.3
M 10.8 25.35
Q 10.95 25.3 11.15 25.25 11.35 25.2 11.6 25.1 10.9 25.2 9.9 25.3
L 10.8 25.35
M 11.75 25.15
L 11.8 25.15 11.85 25.1
Q 11.8 25.125 11.75 25.15
M 11.75 25.2
L 11.75 25.15
Q 11.7 25.175 11.65 25.2 11.7 25.2 11.75 25.2
M 11.65 25.2
L 11.55 25.2
Q 11.45 25.3 11.3 25.4 11.55 25.25 11.75 25.2 11.7 25.2 11.65 25.2
M 11.85 25.1
L 11.9 25.05
Q 11.8 25.1 11.7 25.15
L 11.65 25.2
Q 11.7 25.175 11.75 25.15 11.8 25.125 11.85 25.1
M 11.9 25.1
L 11.9 25.05 11.85 25.1 11.9 25.1
M 11.9 25.05
Q 11.8 25.05 11.75 25.05 11.75 25.1 11.7 25.15 11.8 25.1 11.9 25.05
M 12.15 25.05
L 12.1 25.05
Q 12.05 25.05 12 25.05
L 11.9 25.05 11.9 25.1 12.05 25.05 12.15 25.05
M 12.35 25
L 12.5 24.95 12.45 24.95 12.4 24.95
Q 12.375 24.975 12.35 25
M 12.5 24.9
Q 12.5248046875 24.9091796875 12.55 24.9
L 12.5 24.9 12.5 24.9
M 12.5 24.95
L 12.55 24.9
Q 12.5248046875 24.9091796875 12.5 24.9
L 12.5 24.95
M 13.25 24.75
Q 13.45 24.75 13.6 24.75
L 13.6 24.7
Q 13.45 24.7 13.25 24.75
M 13.1 24.8
Q 13.0009765625 24.803515625 12.85 24.8 12.731640625 24.8669921875 12.6 24.9
L 12.55 24.9 12.5 24.95 12.35 25
Q 13.3 24.85 13.25 24.75
L 13.2 24.75
Q 13.15 24.75 13.15 24.8
L 13.1 24.8
M 12.85 24.8
Q 13.0009765625 24.803515625 13.1 24.8 12.99375 24.8 12.95 24.8 12.898828125 24.8169921875 12.85 24.8
M 12.9 24.6
L 12.8 24.65
Q 12.65 24.7 12.3 24.85 12.9 24.65 12.9 24.6 Z"/>

<path fill="#9DA69F" stroke="none" d="
M 12.45 24.95
L 12.45 24.9
Q 12.425390625 24.9423828125 12.4 24.95
L 12.45 24.95
M 12.55 24.9
L 12.6 24.9
Q 12.731640625 24.8669921875 12.85 24.8 12.7109375 24.8583984375 12.55 24.9
M 9.95 12.2
L 8.9 11.95 8.55 17.2
Q 8.55 17.55 9 17.95 11.75 20.25 7.75 22.85 3.7 25.4 0.3 24
L -2.15 26.15
Q -3.3 25.4 -4.9 25.95 -5.75 26.2 -6.8 26.65 -7.85 27.1 -9.1 27.75 -11.65 29.1 -11.9 28.55
L -14.15 27.75
Q -13.85 27.65 -13.65 27.6
L -13.7 27.55
Q -13.8 27.35 -14.9 27.95
L -16 27.25
Q -16.35 27.65 -16.55 28.5
L -16.75 29.6
Q -16.55 29.7 -16.75 30.3 -17.25 31.4 -14.45 32.35
L -13.55 32.75
Q -11.4 33.6 -7.7 32.05 -4.15 30.55 -3.35 29.45 -2.95 28.85 -2.35 28.55 -1.85 28.15 -1.2 28.1
L -1.2 28.05 2.9 27.25
Q 6.35 26.5 7.6 25.65
L 9.9 25.3
Q 10.9 25.2 11.6 25.1 11.65 25.05 11.75 25.05 11.8 25.05 11.9 25.05
L 12 25.05
Q 12.1 24.95 12.2 24.95
L 12.3 24.85
Q 12.65 24.7 12.8 24.65
L 12.9 24.6
Q 12.9 24.65 12.3 24.85
L 12.2 24.95
Q 12.1 24.95 12 25.05 12.05 25.05 12.1 25.05 12.2484375 24.97578125 12.35 24.95
L 12.4 24.95
Q 12.425390625 24.9423828125 12.45 24.9 12.4578125 24.9 12.5 24.9
L 12.55 24.9
Q 12.7109375 24.8583984375 12.85 24.8 12.898828125 24.8169921875 12.95 24.8 12.99375 24.8 13.1 24.8
L 13.15 24.8
Q 13.15 24.75 13.2 24.75
L 13.25 24.75
Q 13.45 24.7 13.6 24.7 17.05 23.25 15.45 18.3 13.1 15.2 11.25 14.25
L 9.95 12.2 Z"/>

<path fill="#BEC6C0" stroke="none" d="
M 8.9 11.95
L 8.9 11.05 5.95 11.25 -0.55 9.6 -3.45 12.7 -8.5 16.3
Q -9.2 16.75 -9.8 17.15 -11.75 18.35 -13.2 18.95 -13.9 19.2 -14.5 19.4 -15.05 19.5 -15.5 19.55
L -19.55 21.15
Q -19.6 21.15 -19.65 21.15 -22.35 24.1 -21.4 24.75 -21.1 24.9 -20.8 25.05 -20 25.25 -19 25.05 -18.95 25.1 -17.35 24.55
L -19.05 25.55
Q -19.05 26.3 -18.3 26.45 -17.8 27.35 -15.95 27.15 -15.35 26.45 -10.6 25.65 -14.35 27.25 -14.9 27.95 -13.8 27.35 -13.7 27.55
L -13.65 27.6
Q -13.85 27.65 -14.15 27.75
L -11.9 28.55
Q -11.65 29.1 -9.1 27.75 -7.85 27.1 -6.8 26.65 -5.75 26.2 -4.9 25.95 -3.3 25.4 -2.15 26.15
L 0.3 24
Q 3.7 25.4 7.75 22.85 11.75 20.25 9 17.95 8.55 17.55 8.55 17.2
L 8.9 11.95
M -11.65 21.65
L -11.05 20.1
Q -10.6 19.75 -8.95 18.75 -7.7 17.95 -5.75 16.85
L -1.25 14.25 -1.2 15.8 1.6 16.1 -11.65 21.65 Z"/>

<path fill="#CDCCC2" stroke="none" d="
M -11.05 20.1
L -11.65 21.65 1.6 16.1 -1.2 15.8 -1.25 14.25 -5.75 16.85
Q -7.7 17.95 -8.95 18.75 -10.6 19.75 -11.05 20.1 Z"/>
</g>

<g id="leg_suit_copy_0_Layer1_0_FILL">
<path fill="#E7E2C2" stroke="none" d="
M -12.8 26.2
Q -13.6 25.85 -15.05 26.45 -15.95 26.9 -16.45 27.5 -16.6 27.7 -16.7 27.95 -16.95 28.6 -16.6 29.1 -16.5 29.3 -16.25 29.55 -15.5 30.15 -14 30.15 -12.3 30.25 -11 29.65 -9.65 29.1 -9.8 28.7 -9.95 28.3 -10.9 27.45 -11.9 26.55 -12.8 26.2
M -21 24.9
Q -21.7 25.3 -22.05 25.75 -22.2 25.85 -22.3 26.1 -22.45 26.6 -22.2 27 -22.15 27.15 -21.95 27.25 -21.35 27.75 -20.15 27.75 -18.85 27.8 -17.9 27.35 -16.8 26.95 -16.9 26.65 -17.05 26.35 -17.8 25.7 -18.55 25 -19.3 24.7 -19.85 24.45 -21 24.9
M -24.45 22.2
Q -24.65 22.65 -24.4 22.95 -24.35 23.1 -24.2 23.25 -23.65 23.6 -22.7 23.6 -21.6 23.7 -20.8 23.35 -19.9 22.95 -20 22.7 -20.1 22.45 -20.7 21.85 -21.35 21.3 -21.95 21.1 -22.5 20.9 -23.35 21.3 -24 21.5 -24.25 21.9 -24.4 22.05 -24.45 22.2 Z"/>
</g>

<g id="leg_suit_copy_0_Layer0_0_FILL">
<path fill="#3A4545" stroke="none" d="
M 18.3 5.95
L 21.6 -3.25 -11.9 -10.3 -10.8 2.65
Q 1.0845703125 6.4490234375 18.3 5.95 Z"/>

<path fill="#677674" stroke="none" d="
M -10.8 2.65
L -6.85 12 13.7 13.05 13.5 12.7 13.7 13.05 18.3 5.95
Q 1.0845703125 6.4490234375 -10.8 2.65 Z"/>
</g>

<g id="Duplicate_Items_Folder_leg_suit_copy_4_0_Layer3_0_FILL">
<path fill="#FCC87A" stroke="none" d="
M 0.45 12.9
L 0.3 12.9 0.3 13.1 0.3 13.45
Q 0.3107421875 13.13203125 0.45 12.9 Z"/>

<path fill="#BEC6C0" stroke="none" d="
M 8.45 12.25
L 8.45 12.2
Q 8.45 12.15 8.45 12.1
L 8.7 12.15 10.6 -1.9 -2.45 -2.9
Q -3.35 -0.4 -2.55 1.4 -2 2.45 -1.9 2.7 -0.95 3.4 -0.6 3.5 -0.2 3.5 0.15 3.75 0.3 4 0.4 4.4
L 0.3 12.9 0.45 12.9 8.9 14.75 8.9 14.65
Q 8.85 14.4 8.8 14.15 8.5 12.65 8.45 12.25 Z"/>

<path fill="#FDD194" stroke="none" d="
M 8.45 12.2
L 8.45 12.25 8.5 12.3
Q 8.55 12.35 8.6 12.45
L 8.7 12.15 8.45 12.1
Q 8.45 12.15 8.45 12.2 Z"/>

<path fill="#000000" stroke="none" d="
M 12.5 -3.7
Q 12.25 -3.95 11.85 -3.95
L -2.9 -5
Q -3.25 -5.1 -3.6 -4.85 -4.05 -4.7 -4.2 -4.3 -5.8 -1.35 -4.8 1.15 -3.6 5.8 -2 5.85
L -2 13.1
Q -2.05 13.55 -1.7 13.8 -1.4 14.05 -0.95 14 -0.45 13.95 -0.05 13.65 0.2 13.4 0.3 13.1
L 0.3 12.9 0.4 4.4
Q 0.3 4 0.15 3.75 -0.2 3.5 -0.6 3.5 -0.95 3.4 -1.9 2.7 -2 2.45 -2.55 1.4 -3.35 -0.4 -2.45 -2.9
L 10.6 -1.9 8.7 12.15 8.6 12.45
Q 8.55 12.35 8.5 12.3
L 8.45 12.25
Q 8.5 12.65 8.8 14.15 8.85 14.4 8.9 14.65
L 8.9 14.75
Q 9.15 15.8 9.55 16.1 10.05 16.45 10.4 14.5 10.75 12.55 10.8 12.15
L 13.05 -2.8
Q 13.1 -3.2 12.8 -3.5 12.65 -3.65 12.5 -3.7 Z"/>
</g>

<g id="Duplicate_Items_Folder_leg_suit_copy_4_0_Layer2_0_FILL">
<path fill="#918F77" stroke="none" d="
M -14.9 27.95
Q -14.35 27.25 -10.6 25.65 -15.35 26.45 -15.95 27.15
L -16 27.25 -14.9 27.95
M -19.65 21.15
L -19.7 21.1
Q -20 21 -21.15 20.6
L -24.45 21.15
Q -26.15 23.6 -24.95 25.05 -23.75 26.35 -22.85 25.85
L -22.95 26.7
Q -22.95 27.6 -22.5 28.05 -20.35 30.55 -18.6 30 -16.95 29.45 -16.75 29.6
L -16.55 28.5
Q -16.35 27.65 -16 27.25
L -15.95 27.15
Q -17.8 27.35 -18.3 26.45 -19.05 26.3 -19.05 25.55
L -17.35 24.55
Q -18.95 25.1 -19 25.05 -20 25.25 -20.8 25.05 -21.55 25.2 -22.55 25.55 -21.55 25.2 -20.8 25.05 -21.1 24.9 -21.4 24.75 -22.35 24.1 -19.65 21.15 Z"/>

<path fill="#678B30" stroke="none" d="
M -19.65 21.15
L -19.65 21.1 -19.7 21.1 -19.65 21.15
M 9.9 25.3
L 7.6 25.65
Q 8.75 25.95 10.8 25.35
L 9.9 25.3
M 10.8 25.35
Q 10.95 25.3 11.15 25.25 11.35 25.2 11.6 25.1 10.9 25.2 9.9 25.3
L 10.8 25.35
M 11.75 25.15
L 11.8 25.15 11.85 25.1
Q 11.8 25.125 11.75 25.15
M 11.75 25.2
L 11.75 25.15
Q 11.7 25.175 11.65 25.2 11.7 25.2 11.75 25.2
M 11.65 25.2
L 11.55 25.2
Q 11.45 25.3 11.3 25.4 11.55 25.25 11.75 25.2 11.7 25.2 11.65 25.2
M 11.85 25.1
L 11.9 25.05
Q 11.8 25.1 11.7 25.15
L 11.65 25.2
Q 11.7 25.175 11.75 25.15 11.8 25.125 11.85 25.1
M 11.9 25.1
L 11.9 25.05 11.85 25.1 11.9 25.1
M 11.9 25.05
Q 11.8 25.05 11.75 25.05 11.75 25.1 11.7 25.15 11.8 25.1 11.9 25.05
M 12.15 25.05
L 12.1 25.05
Q 12.05 25.05 12 25.05
L 11.9 25.05 11.9 25.1 12.05 25.05 12.15 25.05
M 12.5 24.9
L 12.5 24.95 12.55 24.9
Q 12.5248046875 24.9091796875 12.5 24.9
M 12.5 24.9
L 12.5 24.9
Q 12.5248046875 24.9091796875 12.55 24.9
L 12.5 24.9
M 12.45 24.95
L 12.4 24.95
Q 12.375 24.975 12.35 25
L 12.5 24.95 12.45 24.95
M 13.25 24.75
Q 13.45 24.75 13.6 24.75
L 13.6 24.7
Q 13.45 24.7 13.25 24.75
M 13.1 24.8
Q 13.0009765625 24.803515625 12.85 24.8 12.731640625 24.8669921875 12.6 24.9
L 12.55 24.9 12.5 24.95 12.35 25
Q 13.3 24.85 13.25 24.75
L 13.2 24.75
Q 13.15 24.75 13.15 24.8
L 13.1 24.8
M 12.85 24.8
Q 13.0009765625 24.803515625 13.1 24.8 12.99375 24.8 12.95 24.8 12.898828125 24.8169921875 12.85 24.8
M 12.9 24.6
L 12.8 24.65
Q 12.65 24.7 12.3 24.85 12.9 24.65 12.9 24.6 Z"/>

<path fill="#9DA69F" stroke="none" d="
M 12.55 24.9
L 12.6 24.9
Q 12.731640625 24.8669921875 12.85 24.8 12.7109375 24.8583984375 12.55 24.9
M 12.4 24.95
L 12.45 24.95 12.45 24.9
Q 12.425390625 24.9423828125 12.4 24.95
M 9.95 12.2
L 8.9 11.95 8.55 17.2
Q 8.55 17.55 9 17.95 11.75 20.25 7.75 22.85 3.7 25.4 0.3 24
L -2.15 26.15
Q -3.3 25.4 -4.9 25.95 -5.75 26.2 -6.8 26.65 -7.85 27.1 -9.1 27.75 -11.65 29.1 -11.9 28.55
L -14.15 27.75
Q -13.85 27.65 -13.65 27.6
L -13.7 27.55
Q -13.8 27.35 -14.9 27.95
L -16 27.25
Q -16.35 27.65 -16.55 28.5
L -16.75 29.6
Q -16.55 29.7 -16.75 30.3 -17.25 31.4 -14.45 32.35
L -13.55 32.75
Q -11.4 33.6 -7.7 32.05 -4.15 30.55 -3.35 29.45 -2.95 28.85 -2.35 28.55 -1.85 28.15 -1.2 28.1
L -1.2 28.05 2.9 27.25
Q 6.35 26.5 7.6 25.65
L 9.9 25.3
Q 10.9 25.2 11.6 25.1 11.65 25.05 11.75 25.05 11.8 25.05 11.9 25.05
L 12 25.05
Q 12.1 24.95 12.2 24.95
L 12.3 24.85
Q 12.65 24.7 12.8 24.65
L 12.9 24.6
Q 12.9 24.65 12.3 24.85
L 12.2 24.95
Q 12.1 24.95 12 25.05 12.05 25.05 12.1 25.05 12.2484375 24.97578125 12.35 24.95
L 12.4 24.95
Q 12.425390625 24.9423828125 12.45 24.9 12.4578125 24.9 12.5 24.9
L 12.55 24.9
Q 12.7109375 24.8583984375 12.85 24.8 12.898828125 24.8169921875 12.95 24.8 12.99375 24.8 13.1 24.8
L 13.15 24.8
Q 13.15 24.75 13.2 24.75
L 13.25 24.75
Q 13.45 24.7 13.6 24.7 17.05 23.25 15.45 18.3 13.1 15.2 11.25 14.25
L 9.95 12.2 Z"/>

<path fill="#BEC6C0" stroke="none" d="
M 8.9 11.95
L 8.9 11.05 5.95 11.25 -0.55 9.6 -3.45 12.7 -8.5 16.3
Q -9.2 16.75 -9.8 17.15 -11.75 18.35 -13.2 18.95 -13.9 19.2 -14.5 19.4 -15.05 19.5 -15.5 19.55
L -19.55 21.15
Q -19.6 21.15 -19.65 21.15 -22.35 24.1 -21.4 24.75 -21.1 24.9 -20.8 25.05 -20 25.25 -19 25.05 -18.95 25.1 -17.35 24.55
L -19.05 25.55
Q -19.05 26.3 -18.3 26.45 -17.8 27.35 -15.95 27.15 -15.35 26.45 -10.6 25.65 -14.35 27.25 -14.9 27.95 -13.8 27.35 -13.7 27.55
L -13.65 27.6
Q -13.85 27.65 -14.15 27.75
L -11.9 28.55
Q -11.65 29.1 -9.1 27.75 -7.85 27.1 -6.8 26.65 -5.75 26.2 -4.9 25.95 -3.3 25.4 -2.15 26.15
L 0.3 24
Q 3.7 25.4 7.75 22.85 11.75 20.25 9 17.95 8.55 17.55 8.55 17.2
L 8.9 11.95
M -11.65 21.65
L -11.05 20.1
Q -10.6 19.75 -8.95 18.75 -7.7 17.95 -5.75 16.85
L -1.25 14.25 -1.2 15.8 1.6 16.1 -11.65 21.65 Z"/>

<path fill="#CDCCC2" stroke="none" d="
M -11.05 20.1
L -11.65 21.65 1.6 16.1 -1.2 15.8 -1.25 14.25 -5.75 16.85
Q -7.7 17.95 -8.95 18.75 -10.6 19.75 -11.05 20.1 Z"/>
</g>

<g id="Duplicate_Items_Folder_leg_suit_copy_4_0_Layer1_0_FILL">
<path fill="#E7E2C2" stroke="none" d="
M -12.8 26.2
Q -13.6 25.85 -15.05 26.45 -15.95 26.9 -16.45 27.5 -16.6 27.7 -16.7 27.95 -16.95 28.6 -16.6 29.1 -16.5 29.3 -16.25 29.55 -15.5 30.15 -14 30.15 -12.3 30.25 -11 29.65 -9.65 29.1 -9.8 28.7 -9.95 28.3 -10.9 27.45 -11.9 26.55 -12.8 26.2
M -21 24.9
Q -21.7 25.3 -22.05 25.75 -22.2 25.85 -22.3 26.1 -22.45 26.6 -22.2 27 -22.15 27.15 -21.95 27.25 -21.35 27.75 -20.15 27.75 -18.85 27.8 -17.9 27.35 -16.8 26.95 -16.9 26.65 -17.05 26.35 -17.8 25.7 -18.55 25 -19.3 24.7 -19.85 24.45 -21 24.9
M -24.45 22.2
Q -24.65 22.65 -24.4 22.95 -24.35 23.1 -24.2 23.25 -23.65 23.6 -22.7 23.6 -21.6 23.7 -20.8 23.35 -19.9 22.95 -20 22.7 -20.1 22.45 -20.7 21.85 -21.35 21.3 -21.95 21.1 -22.5 20.9 -23.35 21.3 -24 21.5 -24.25 21.9 -24.4 22.05 -24.45 22.2 Z"/>
</g>

<g id="Duplicate_Items_Folder_leg_suit_copy_4_0_Layer0_0_FILL">
<path fill="#677674" stroke="none" d="
M 13.7 13.05
L 13.5 12.7 13.7 13.05 18.3 5.95
Q 4.1052734375 6.8951171875 -10.8 2.65
L -6.85 12 13.7 13.05 Z"/>

<path fill="#3A4545" stroke="none" d="
M 21.6 -3.25
L -11.9 -10.3 -10.8 2.65
Q 4.1052734375 6.8951171875 18.3 5.95
L 21.6 -3.25 Z"/>
</g>

<g id="arm_chainsaw_0_Layer1_0_FILL">
<path fill="#BEC6C0" stroke="none" d="
M 43.35 17.55
Q 43.5 17.35 43.65 17.15
L 43.45 17.3 43.35 17.55
M 63.75 -4.05
Q 63.9 -4.15 64.05 -4.25
L 63.9 -4.2 63.75 -4.05
M 26.35 -31.55
Q 25.8001953125 -32.036328125 25.25 -32.55
L 11.45 -27.95
Q 8.15 -26.8 0.4 -21 -7.2 -15.45 -8.5 -12.15 -9.8 -9.05 -9.95 -5.4 -10.05 -4.8 -9.9 -4.1 -9.55 1.1 -8.05 3.9 -7.45 4.85 -6.95 5.4
L -3.5 9.05 -3.3 9 2.35 12.15 5.8 12.35
Q 16.25 11.9 26 4.85 30.2 3.15 35.75 -4.2 39.7 -9.5 41.4 -11.35 35.4064453125 -22.7236328125 26.35 -31.55 Z"/>

<path fill="#9592A9" stroke="none" d="
M 74.7 13.6
L 74.5 14.2 75 13.85 74.7 13.6 Z"/>

<path fill="#919474" stroke="none" d="
M 63.65 14.6
Q 63.9125 14.6 64.1 14.6 63.912109375 14.59375 63.65 14.55
L 63.65 14.6 Z"/>

<path fill="#AD861B" stroke="none" d="
M 46.4 -38.05
L 46.95 -38.25 46.05 -37.95 46.4 -38.05 Z"/>

<path fill="#8C8337" stroke="none" d="
M 37.6 -35.45
L 37.65 -35.55 28.3 -33.45
Q 37.9 -24.8 43.45 -13.65 44.45 -15.15 46.1 -18.1 44.3 -14.6 44.75 -15.3 50.35 -25.25 53.85 -27.5
L 55.15 -28.05 55.05 -27.95
Q 55.7 -27.95 56.35 -28.15
L 56.8 -28.05
Q 56.70078125 -28.14921875 56.65 -28.15 56.80078125 -28.150390625 57.1 -28.3
L 57.2 -28.3
Q 57.55 -28.35 58.75 -28.35 60 -28.35 60.9 -28.15 61.75 -28.15 64.05 -26.6 66.35 -25 67.5 -25.55 68.75 -26.2 69.35 -27.8 70 -29.55 69.3 -31
L 69.1 -31.7
Q 66.95 -33.45 66.7 -33.6 64.75 -34.7 69.3 -35.15 70.35 -35.25 71.35 -35.1 73.7 -34.7 73.95 -32.65 75.3 -30.5 77.4 -29.85 78 -29.55 78.75 -29.55 79.4 -29.6 80.2 -29.85 81.45 -30.5 81.8 -32
L 79.15 -41.6
Q 75.7 -44.55 73.9 -44.85 71.95 -45.2 72.35 -45 70.6 -45.5 67.55 -44.55
L 46.95 -38.25 46.4 -38.05 37.6 -35.45 Z"/>

<path fill="#C0B661" stroke="none" d="
M 28.3 -33.45
L 26.35 -31.55
Q 35.4064453125 -22.7236328125 41.4 -11.35 42 -12.15 42.35 -12.4 42.75 -12.7 43.45 -13.65 37.9 -24.8 28.3 -33.45 Z"/>

<path fill="#DFAA31" stroke="none" d="
M 25.25 -32.55
Q 25.8001953125 -32.036328125 26.35 -31.55
L 28.3 -33.45 25.25 -32.55 Z"/>
</g>

<g id="Duplicate_Items_Folder_body_suit_copy_4_0_Layer1_0_FILL">
<path fill="#B8C1BA" stroke="none" d="
M -34.3 -15.15
L -30 -14.95 -33.5 -34.85
Q -34.15 -22.3 -34.3 -15.15
M 38.2 -33.95
Q 38.739453125 -37.70859375 38.45 -37.25
L 37.25 -34.35 33.5 -13.1 36.35 -13.05
Q 36.85 -20.3 38.2 -33.95 Z"/>

<path fill="#526161" stroke="none" d="
M -24.7 -44.85
Q -33.5060546875 -45.7259765625 -34.75 -43.95
L -34.95 -43.7 -33.5 -34.85 -30 -14.95 -28.3 -5.6
Q -23.15 -3.9 -17.8 -6.65
L -19.75 -14.65 -24.7 -44.85
M -22.3 -8.35
Q -23.15 -7.8 -24.35 -7.85 -25.55 -7.85 -26.35 -8.45 -27.1 -9 -27.1 -9.8 -27.1 -10.6 -26.25 -11.2 -25.4 -11.75 -24.2 -11.7 -23 -11.65 -22.2 -11.05 -21.45 -10.45 -21.5 -9.65 -21.5 -8.9 -22.3 -8.35
M 37.25 -34.35
L 38.7 -39.3
Q 33.83203125 -45.18515625 31.15 -43.15
L 23.35 -13.4 21.45 -5.8
Q 26.45 -3.35 32 -4.75
L 33.5 -13.1 37.25 -34.35
M 27.8 -10.7
Q 29 -10.65 29.8 -10.1 30.55 -9.5 30.5 -8.7 30.5 -7.9 29.65 -7.4 28.85 -6.75 27.65 -6.85 26.45 -6.85 25.65 -7.5 24.85 -8.05 24.85 -8.85 24.9 -9.65 25.75 -10.2 26.6 -10.7 27.8 -10.7 Z"/>

<path fill="#CC3300" stroke="none" d="
M -24.35 -7.85
Q -23.15 -7.8 -22.3 -8.35 -21.5 -8.9 -21.5 -9.65 -21.45 -10.45 -22.2 -11.05 -23 -11.65 -24.2 -11.7 -25.4 -11.75 -26.25 -11.2 -27.1 -10.6 -27.1 -9.8 -27.1 -9 -26.35 -8.45 -25.55 -7.85 -24.35 -7.85
M 29.8 -10.1
Q 29 -10.65 27.8 -10.7 26.6 -10.7 25.75 -10.2 24.9 -9.65 24.85 -8.85 24.85 -8.05 25.65 -7.5 26.45 -6.85 27.65 -6.85 28.85 -6.75 29.65 -7.4 30.5 -7.9 30.5 -8.7 30.55 -9.5 29.8 -10.1 Z"/>

<path fill="#A9B4AA" stroke="none" d="
M 31.15 -43.15
Q 16.65 -46.4 1.3 -46 0.5 -46.05 -0.3 -46.05 -14.75 -46.5 -24.7 -44.85
L -19.75 -14.65 23.35 -13.4 31.15 -43.15 Z"/>

<path fill="#3A4545" stroke="none" d="
M 36.35 -13.05
L 33.5 -13.1 32 -4.75
Q 26.45 -3.35 21.45 -5.8
L 23.35 -13.4 -19.75 -14.65 -17.8 -6.65
Q -23.15 -3.9 -28.3 -5.6
L -30 -14.95 -34.3 -15.15
Q -34.5 -9.8 -34.3 -7.45 -34.15 -3.95 -40.15 14.25 -45.7 31.75 -45.35 38.85 -45 45.95 -42.4 50.7 -39.8 55.3 -34.5 59.5 -23 68.5 0.6 70.55 0.5 70.5 0.65 70.5 0.85 70.5 1.15 70.5 24.65 68.6 36.15 59.6 41.5 55.35 44 50.75 46.65 46 46 40 45.3 34.05 39.95 15.05 35.85 -3.9 36 -7.4 36.05 -9.25 36.35 -13.05
M 30.35 6
L 29.55 26.15
Q -0.8 31.65 -25.5 23
L -22.8 -1
Q 0.05 1.35 22.1 -0.35
L 30.35 6 Z"/>
</g>

<g id="Duplicate_Items_Folder_body_suit_copy_4_0_Layer1_1_FILL">
<path fill="#526161" stroke="none" d="
M 29.55 26.15
L 30.35 6 22.1 -0.35
Q 0.05 1.35 -22.8 -1
L -25.5 23
Q -0.8 31.65 29.55 26.15
M 0.4 4.1
Q 1.35 3.55 2.7 3.55 4 3.6 4.85 4.3 5.75 4.95 5.7 5.85 5.65 6.7 4.75 7.35 3.8 7.9 2.5 7.9 1.2 7.85 0.25 7.2 -0.65 6.55 -0.6 5.65 -0.45 4.75 0.4 4.1 Z"/>

<path fill="#CC3300" stroke="none" d="
M 2.7 3.55
Q 1.35 3.55 0.4 4.1 -0.45 4.75 -0.6 5.65 -0.65 6.55 0.25 7.2 1.2 7.85 2.5 7.9 3.8 7.9 4.75 7.35 5.65 6.7 5.7 5.85 5.75 4.95 4.85 4.3 4 3.6 2.7 3.55 Z"/>
</g>

<g id="Duplicate_Items_Folder_body_suit_copy_4_0_Layer0_0_FILL">
<path fill="#1A1A1A" stroke="none" d="
M 11.85 -15.95
Q 11.85 -16.05 11.85 -16.2 11.9 -16.85 11 -17.35 10.05 -17.8 8.65 -17.9 8.05 -17.9 7.6 -17.8 6.75 -18.25 5.6 -18.35 5.15 -18.35 4.7 -18.25 4.5 -18.75 4.05 -19.15 3.35 -19.75 2.45 -19.75 1.55 -19.75 0.75 -19.25 0.45 -18.95 0.2 -18.65 0.5 -18.55 0.65 -18.5 1.65 -18.05 1.65 -17.45
L 1.65 -17.4
Q 2.1 -17.35 2.55 -17.2 2.1 -17.35 1.65 -17.4
L 1.65 -17.45
Q 1.65 -18.05 0.65 -18.5 0.5 -18.55 0.2 -18.65 -0.65 -18.95 -1.8 -18.95 -3.2 -19 -4.2 -18.65 -5.3 -18.25 -5.35 -17.7
L -5.35 -17.55
Q -5.45 -17.6 -6.65 -17.75 -7.85 -17.9 -8.9 -17.35 -9.9 -16.9 -9.2 -15.95 -10.25 -15.8 -11.2 -15.55 -12.25 -15.25 -12.5 -14.7
L 14.2 -13.95
Q 14.2 -14 14.2 -14.1 14.25 -14.95 12.9 -15.55 12.4 -15.8 11.85 -15.95 Z"/>
</g>

<g id="Duplicate_Items_Folder_ear_copy_0_Layer1_0_FILL">
<path fill="#C0C7C0" stroke="none" d="
M 21.45 24.6
Q 22.7 20.3 23.8 19.1 24.9 17.85 25.15 20.6 26.15 18.6 24.25 14.6
L 16.25 1.4
Q 14.9 0.9 13.5 0.65 14.65 3.95 10.9 2.65 7.15 1.3 4.8 5.55 2.45 9.75 2.85 12.9 3.25 16.05 5.95 17.95 7.7 19.2 12.2 22.65 16.25 25.45 18.45 25.45 20.6 25.45 21.45 24.6 Z"/>

<path fill="#000000" stroke="none" d="
M 23.8 19.1
Q 22.7 20.3 21.45 24.6 20.6 25.45 18.45 25.45 16.25 25.45 12.2 22.65 7.7 19.2 5.95 17.95 3.25 16.05 2.85 12.9 2.45 9.75 4.8 5.55 7.15 1.3 10.9 2.65 14.65 3.95 13.5 0.65 11.35 0.05 9 0 2.45 -0.25 1.1 4.5 -0.5 10.1 0.25 13.7 0.9 17.15 3.85 19.25 5.75 20.6 10.65 24.35 15.05 27.4 17.45 27.4 19.8 27.4 20.75 26.5 22.1 24.7 24 23.05 25.05 22.15 25.15 20.6 24.9 17.85 23.8 19.1 Z"/>
</g>

<g id="Duplicate_Items_Folder_ear_copy_0_Layer0_0_FILL">
<path fill="#000000" stroke="none" d="
M 11.55 7.5
Q 14.15 8.4 13.85 7.05 13.55 5.7 11.35 5.4 9.15 5.1 7.15 6.35 5.1 7.6 4.35 9.65 3.5 11.6 4.85 13.15 6.15 14.65 5.85 12.8 5.55 10.95 7.25 8.75 8.9 6.55 11.55 7.5
M 16.9 11.15
Q 15.9 10.5 14.8 10.6 13.7 10.7 13.3 11.6 12.9 12.5 13.7 12 14.45 11.45 15.85 11.75 17.2 12 17.35 13.4 17.5 14.75 18.1 14.35 18.6 13.95 18.3 12.85 17.9 11.8 16.9 11.15 Z"/>
</g>

<g id="Duplicate_Items_Folder_head_copy_7_0_Layer7_0_FILL">
<path fill="#B6C0BA" stroke="none" d="
M 30.75 -10.25
L 32.75 -10.75
Q 32.7 -10.8 32.7 -10.85 31.3 -16.2 29.5 -20.55 28.15 -16.05 27.85 -12.15
L 30.75 -10.25
M 0.45 -36.8
Q 3 -38.7 6.3 -39.75 0.7 -40.7 -4.2 -40.15 -4.45 -40.15 -4.55 -40.15 -4.65 -40.15 -4.75 -40.1
L -4.15 -37.65 0.45 -36.8 Z"/>

<path fill="url(#Gradient_1)" stroke="none" d="
M 29.5 -20.55
Q 29.4 -20.8 29.3 -21 26.0095703125 -29.2259765625 20.55 -33.85 -6.24921875 -39.5703125 -38 46.45 -35.13359375 50.1181640625 -31.9 52.95 -21.6 61.95 -7.75 62.1 8.5 61.95 20.05 57.7 31.6 53.5 35.9 42.6 39.6 29.75 37 20.75 36.3 12.1 35.45 2.2 34.8 -1.8 34.05 -5.3 33.4 -8.2 32.75 -10.75
L 30.75 -10.25 27.85 -12.15
Q 27.4 -7.1 28.05 -2.8
L 30.85 -4.55 28.05 -2.8
Q 28.6 0.5 29.85 3.3 28.6 0.5 28.05 -2.8
L 25.7 -1.4 28.05 -2.8
Q 27.4 -7.1 27.85 -12.15
L 24.8 -14.2 27.85 -12.15
Q 28.15 -16.05 29.5 -20.55 Z"/>

<path fill="#DFE3E0" stroke="none" d="
M 6.3 -39.75
Q 3 -38.7 0.45 -36.8
L 4.15 -34.9 0.45 -36.8
Q -1.6 -35.3 -3.25 -33.15
L 1.5 -31.15 -3.25 -33.15
Q -5.3 -30.5 -6.55 -26.95
L -2.2 -24.95 -6.55 -26.95
Q -7.3 -24.95 -7.9 -22.6 -7.3 -24.95 -6.55 -26.95
L -10.3 -26 -6.55 -26.95
Q -5.3 -30.5 -3.25 -33.15
L -8.45 -32.65 -3.25 -33.15
Q -1.6 -35.3 0.45 -36.8
L -4.15 -37.65 -4.75 -40.1
Q -8.05 -39.8 -11.15 -38.8 -19.1 -36.2 -24.45 -29.8 -28.2 -25.45 -33.35 -13.65 -38.4 -1.4 -37 -5.75 -43.15 5.6 -45.35 11.4 -49.9 23.15 -45.7 32.6
L -45.7 33.6
Q -42.259765625 40.9591796875 -38 46.45 -6.24921875 -39.5703125 20.55 -33.85 16.586328125 -37.1837890625 11.45 -38.6 8.8 -39.3 6.3 -39.75 Z"/>
</g>

<g id="Duplicate_Items_Folder_head_copy_7_0_Layer6_0_FILL">
<path fill="#9EADA0" stroke="none" d="
M 14.3 -18.95
Q 12.7 -18.6 2.7 -18.9 -7.55 -19.2 -13.75 -22.15 -19.95 -25.2 -24.35 -21.1 -28.75 -17.05 -28.85 -10.8 -29 -4.55 -24.8 0.05 -20.5 4.7 -8.55 3.6 -5.4 3.25 -3.6 3.05 -2.55 5.75 2.15 9 6.85 12.25 13.25 12.7 19.6 13.25 23.45 9 27.2 4.8 27.35 -2 27.5 -8.9 21.65 -14.1 15.8 -19.25 14.3 -18.95 Z"/>
</g>

<g id="Duplicate_Items_Folder_head_copy_7_0_Layer5_0_FILL">
<path fill="url(#Gradient_2)" stroke="none" d="
M 6.1 33.2
Q 9.9 29.5 12.35 25.15 14.7 20.7 8.65 16.9 2.7 13.05 -6.1 12.25 -14.85 11.45 -21.95 10.7 -29.15 9.95 -28.3 18.95 -27.55 27.95 -21.35 31.85 -15.15 35.8 -6.45 36.3 2.25 36.8 6.1 33.2 Z"/>
</g>

<g id="Duplicate_Items_Folder_head_copy_7_0_Layer4_0_FILL">
<path fill="#0C1416" stroke="none" d="
M 1.3 16.5
L 9 19.9 9.5 18.4
Q 5.95 16.05 2.15 14.15 1.8 14 1.5 13.8 -3.95 11.15 -5.8 10.55 -10.2 9.2 -16.85 9 -23.2 8.9 -25.75 11.05 -26.814453125 11.827734375 -27.1 12
L -26.2 11.45
Q -23.2779296875 13.7822265625 -15.9 16.3
L -12.65 17.25
Q -9.052734375 18.0859375 1.3 16.5 Z"/>

<path fill="#31CEDF" stroke="none" d="
M 9 19.9
L 1.3 16.5
Q -9.052734375 18.0859375 -12.65 17.25
L -15.9 16.3
Q -23.2779296875 13.7822265625 -26.2 11.45
L -27.7 12.8 -26.75 15.55
Q -19.8009765625 19.0498046875 -17.35 19.6 -14.8458984375 20.2001953125 -12.8 20.7 -10.75859375 21.19921875 -3.35 20.6
L 3.1 20.4 8.9 21.55 9.25 19.95 9 19.9 Z"/>
</g>

<g id="Duplicate_Items_Folder_head_copy_7_0_Layer3_0_FILL">
<path fill="#818F88" stroke="none" d="
M 1 4.05
L 0.95 4.05 -5.2 -0.8
Q -10.4 -1.1 -12.85 0.5 -14.1 4.35 -7.75 6.75
L -7.3 6.75
Q 2.55 6.9 1 4.05 Z"/>

<path fill="#DAE0DD" stroke="none" d="
M -0.2 -10.05
Q -0.2 -10.1 -2.5 -10.45 -3.65 -10.7 -4.85 -10.9
L -5.4 -10.45 -13.65 1.1
Q -13.3 0.75 -12.85 0.5 -10.4 -1.1 -5.2 -0.8
L 0.95 4.05 1 4.05 2.05 4.9 -0.2 -10.05 Z"/>
</g>

<g id="Duplicate_Items_Folder_head_copy_7_0_Layer2_0_FILL">
<path fill="#FD0B0B" stroke="none" d="
M 32.15 -92.45
Q 32.15 -92.5 32.2 -92.5 31.7 -94.5 27.7 -94.65
L 16.45 -88.05 7.4 -78.7 10.05 -76.7
Q 18.55 -87.35 32.15 -92.45 Z"/>

<path fill="#CC0000" stroke="none" d="
M 32.15 -92.45
L 32.25 -92.2
Q 32.25 -92.35 32.2 -92.5 32.15 -92.5 32.15 -92.45 Z"/>

<path fill="#BA0101" stroke="none" d="
M 32.25 -92.2
L 32.15 -92.45
Q 18.55 -87.35 10.05 -76.7
L 12.95 -72.9
Q 23.8 -82.5 32.5 -84.1 34.8 -87.95 32.25 -92.2 Z"/>
</g>

<g id="Duplicate_Items_Folder_head_copy_7_0_Layer1_0_FILL">
<path fill="#A6A6A6" stroke="none" d="
M 8 -40.1
L 7.55 -69.6 -3.25 -71.45 -5.5 -40.45
Q -1.3626953125 -42.172265625 8 -40.1 Z"/>

<path fill="#D0D0D0" stroke="none" d="
M 12.55 -76.6
L 5.75 -79.35 -3.25 -71.8 -3.25 -71.45 7.55 -69.6 12.8 -76.25 12.55 -76.6 Z"/>

<path fill="#666666" stroke="none" d="
M 12.25 -69.1
L 15 -73.4 12.8 -76.25 7.55 -69.6 8 -40.1 15.6 -37.25 12.25 -69.1 Z"/>
</g>

<g id="Duplicate_Items_Folder_eye_blink_7_Layer3_0_FILL">
<path fill="url(#Gradient_3)" stroke="none" d="
M 36.25 -8.95
Q 24.95 -13 12.9 -4.95 0.75 3.05 -1.55 15.4 -3.85 27.7 4.25 36.9 12.2 46.15 21.85 48.55 31.45 51 43.85 42.6 56.2 34.2 56.6 24 56.5 14.55 52 4.85 47.45 -4.9 36.25 -8.95 Z"/>
</g>

<g id="Duplicate_Items_Folder_eye_blink_7_Layer2_0_FILL">
<path fill="url(#Gradient_4)" stroke="none" d="
M 47.3 24.6
Q 48.1 16.15 44.85 9.05 41.5 1.95 33.3 -1 25.05 -4 16.25 1.9 7.4 7.75 5.7 16.8 4 25.75 9.95 32.45 15.75234375 39.2482421875 23 40.4 30.2423828125 41.5548828125 38.25 36.3 46.3099609375 31.093359375 47.3 24.6 Z"/>
</g>

<g id="Duplicate_Items_Folder_eye_blink_7_Layer1_0_FILL">
<path fill="#000000" stroke="none" d="
M 23.95 19.9
Q 24.15 21.65 25.3 22.6 26.55 23.55 28.2 23.35 30.05 23.15 31.05 22 32.05 20.65 31.85 19 31.8 17.25 30.55 16.25 29.3 15.35 27.6 15.5 25.85 15.75 24.9 17 23.9 18.25 23.95 19.9 Z"/>
</g>

<path id="leg_suit_copy_0_Layer2_0_1_STROKES" stroke="#000000" stroke-width="2" stroke-linejoin="round" stroke-linecap="round" fill="none" d="
M 9.95 12.2
L 11.25 14.25
Q 13.1 15.2 15.45 18.3 17.05 23.25 13.6 24.7
M 13.6 24.75
Q 13.45 24.75 13.25 24.75 13.3 24.85 12.35 25
L 12.25 25.05 11.3 25.4 10.8 25.35
Q 8.75 25.95 7.6 25.65 6.35 26.5 2.9 27.25
L -1.2 28.05 -1.2 28.1
Q -1.85 28.15 -2.35 28.55 -2.95 28.85 -3.35 29.45 -4.15 30.55 -7.7 32.05 -11.4 33.6 -13.55 32.75
L -14.45 32.35
Q -17.25 31.4 -16.75 30.3 -16.55 29.7 -16.75 29.6 -16.95 29.45 -18.6 30 -20.35 30.55 -22.5 28.05 -22.95 27.6 -22.95 26.7
L -22.85 25.85
Q -23.75 26.35 -24.95 25.05 -26.15 23.6 -24.45 21.15
L -21.15 20.6
Q -20 21 -19.7 21.1
L -19.65 21.1
M -19.65 21.15
Q -19.6 21.15 -19.55 21.15
L -15.5 19.55
Q -15.05 19.5 -14.5 19.4 -13.9 19.2 -13.2 18.95 -11.75 18.35 -9.8 17.15 -9.2 16.75 -8.5 16.3
L -3.45 12.7 -0.55 9.6
M -16 27.25
Q -16.35 27.65 -16.55 28.5
M 12.3 24.85
Q 12.65 24.7 12.8 24.65
L 12.9 24.6
Q 12.9 24.65 12.3 24.85
L 12.2 24.95
Q 12.1 24.95 12 25.05 12.05 25.05 12.1 25.05 12.2484375 24.97578125 12.375 24.95
L 12.4 24.95
Q 12.425390625 24.9423828125 12.45 24.925 12.4578125 24.9 12.5 24.9
L 12.55 24.9
Q 12.7109375 24.8583984375 12.85 24.825 12.898828125 24.8169921875 12.95 24.8 12.99375 24.8 13.125 24.8
L 13.15 24.8
Q 13.15 24.75 13.2 24.75
L 13.25 24.75
Q 13.45 24.7 13.6 24.7
M 12.85 24.825
Q 13.0009765625 24.803515625 13.125 24.8
M 12.55 24.9
L 12.6 24.9
Q 12.731640625 24.8669921875 12.85 24.825
M 12.55 24.9
L 12.5 24.95 12.35 25
Q 12.375 24.975 12.4 24.95
L 12.45 24.95 12.45 24.925 12.5 24.925 12.5 24.9
M 12.5 24.925
Q 12.5248046875 24.9091796875 12.55 24.9
M 12.45 24.95
L 12.5 24.95 12.5 24.925
M 12.25 25.05
L 12.3 25 12.15 25.05
Q 12.200390625 25.05 12.25 25.05 Z
M 11.9 25.1
L 12.075 25.075 12.15 25.05 12.1 25.05
M 12.3 25
L 12.35 25
M 12.375 24.95
Q 12.2595703125 24.976953125 12.15 25.05
M 11.75 25.05
Q 11.8 25.05 11.9 25.05
L 12 25.05
M 11.9 25.1
L 11.9 25.05 11.85 25.1 11.9 25.1 11.8 25.15 11.75 25.15 11.75 25.2
Q 11.9076171875 25.1052734375 12.075 25.075
M 11.15 25.25
Q 11.3 25.25 11.45 25.2
L 11.55 25.2 11.65 25.2 11.7 25.15
Q 11.75 25.1 11.75 25.05 11.65 25.05 11.6 25.1 11.35 25.2 11.15 25.25 10.95 25.3 10.8 25.35
L 9.9 25.3 7.6 25.65
M 11.9 25.05
Q 11.8 25.1 11.7 25.15
M 11.85 25.1
L 11.8 25.15
M 11.65 25.2
Q 11.7 25.175 11.75 25.15 11.8 25.125 11.85 25.1
M 11.75 25.2
Q 11.7 25.2 11.65 25.2
M 11.55 25.2
Q 11.45 25.3 11.3 25.4 11.55 25.25 11.75 25.2
M 9.9 25.3
Q 10.9 25.2 11.6 25.1
M -19.7 21.1
L -19.65 21.15
M -20.8 25.05
Q -20 25.25 -19 25.05 -18.95 25.1 -17.35 24.55
M -10.6 25.65
Q -15.35 26.45 -15.95 27.15
M -22.55 25.55
Q -21.55 25.2 -20.8 25.05
M -15.95 27.15
L -16 27.25"/>

<path id="leg_suit_copy_0_Layer1_0_1_STROKES" stroke="#000000" stroke-width="1" stroke-linejoin="round" stroke-linecap="round" fill="none" d="
M -24.4 22.95
Q -24.35 23.1 -24.2 23.25 -23.65 23.6 -22.7 23.6 -21.6 23.7 -20.8 23.35 -19.9 22.95 -20 22.7 -20.1 22.45 -20.7 21.85 -21.35 21.3 -21.95 21.1 -22.5 20.9 -23.35 21.3 -24 21.5 -24.25 21.9 -24.4 22.05 -24.45 22.2 -24.65 22.65 -24.4 22.95 Z
M -22.05 25.75
Q -22.2 25.85 -22.3 26.1 -22.45 26.6 -22.2 27 -22.15 27.15 -21.95 27.25 -21.35 27.75 -20.15 27.75 -18.85 27.8 -17.9 27.35 -16.8 26.95 -16.9 26.65 -17.05 26.35 -17.8 25.7 -18.55 25 -19.3 24.7 -19.85 24.45 -21 24.9 -21.7 25.3 -22.05 25.75 Z
M -15.05 26.45
Q -15.95 26.9 -16.45 27.5 -16.6 27.7 -16.7 27.95 -16.95 28.6 -16.6 29.1 -16.5 29.3 -16.25 29.55 -15.5 30.15 -14 30.15 -12.3 30.25 -11 29.65 -9.65 29.1 -9.8 28.7 -9.95 28.3 -10.9 27.45 -11.9 26.55 -12.8 26.2 -13.6 25.85 -15.05 26.45 Z"/>

<path id="leg_suit_copy_0_Layer0_0_1_STROKES" stroke="#000000" stroke-width="2" stroke-linejoin="round" stroke-linecap="round" fill="none" d="
M -10.775 2.675
L -6.85 12 13.7 13.05 13.5 12.7
M 13.7 13.05
L 18.3 5.975
Q 1.0845703125 6.4490234375 -10.775 2.675
L -11.9 -10.3
M 18.3 5.975
L 21.6 -3.25"/>

<path id="Duplicate_Items_Folder_leg_suit_copy_4_0_Layer2_0_1_STROKES" stroke="#000000" stroke-width="2" stroke-linejoin="round" stroke-linecap="round" fill="none" d="
M 9.95 12.2
L 11.25 14.25
Q 13.1 15.2 15.45 18.3 17.05 23.25 13.6 24.7
M 13.6 24.75
Q 13.45 24.75 13.25 24.75 13.3 24.85 12.35 25
L 12.25 25.05 11.3 25.4 10.8 25.35
Q 8.75 25.95 7.6 25.65 6.35 26.5 2.9 27.25
L -1.2 28.05 -1.2 28.1
Q -1.85 28.15 -2.35 28.55 -2.95 28.85 -3.35 29.45 -4.15 30.55 -7.7 32.05 -11.4 33.6 -13.55 32.75
L -14.45 32.35
Q -17.25 31.4 -16.75 30.3 -16.55 29.7 -16.75 29.6 -16.95 29.45 -18.6 30 -20.35 30.55 -22.5 28.05 -22.95 27.6 -22.95 26.7
L -22.85 25.85
Q -23.75 26.35 -24.95 25.05 -26.15 23.6 -24.45 21.15
L -21.15 20.6
Q -20 21 -19.7 21.1
L -19.65 21.1
M -19.65 21.15
Q -19.6 21.15 -19.55 21.15
L -15.5 19.55
Q -15.05 19.5 -14.5 19.4 -13.9 19.2 -13.2 18.95 -11.75 18.35 -9.8 17.15 -9.2 16.75 -8.5 16.3
L -3.45 12.7 -0.55 9.6
M -16 27.25
Q -16.35 27.65 -16.55 28.5
M 12.3 24.85
Q 12.65 24.7 12.8 24.65
L 12.9 24.6
Q 12.9 24.65 12.3 24.85
L 12.2 24.95
Q 12.1 24.95 12 25.05 12.05 25.05 12.1 25.05 12.2484375 24.97578125 12.375 24.95
L 12.4 24.95
Q 12.425390625 24.9423828125 12.45 24.925 12.4578125 24.9 12.5 24.9
L 12.55 24.9
Q 12.7109375 24.8583984375 12.85 24.825 12.898828125 24.8169921875 12.95 24.8 12.99375 24.8 13.125 24.8
L 13.15 24.8
Q 13.15 24.75 13.2 24.75
L 13.25 24.75
Q 13.45 24.7 13.6 24.7
M 12.85 24.825
Q 13.0009765625 24.803515625 13.125 24.8
M 12.45 24.95
L 12.4 24.95
Q 12.375 24.975 12.35 25
L 12.5 24.95 12.45 24.95 12.45 24.925 12.5 24.925 12.5 24.9
M 12.5 24.95
L 12.5 24.925
Q 12.5248046875 24.9091796875 12.55 24.9
L 12.6 24.9
Q 12.731640625 24.8669921875 12.85 24.825
M 12.55 24.9
L 12.5 24.95
M 11.9 25.1
L 12.075 25.075 12.15 25.05 12.1 25.05
M 12.25 25.05
L 12.3 25 12.15 25.05
Q 12.200390625 25.05 12.25 25.05 Z
M 12.375 24.95
Q 12.2595703125 24.976953125 12.15 25.05
M 12.3 25
L 12.35 25
M 11.75 25.05
Q 11.8 25.05 11.9 25.05
L 12 25.05
M 11.9 25.1
L 11.9 25.05 11.85 25.1 11.9 25.1 11.8 25.15 11.75 25.15 11.75 25.2
Q 11.9076171875 25.1052734375 12.075 25.075
M 11.15 25.25
Q 11.3 25.25 11.45 25.2
L 11.55 25.2 11.65 25.2 11.7 25.15
Q 11.75 25.1 11.75 25.05 11.65 25.05 11.6 25.1 11.35 25.2 11.15 25.25 10.95 25.3 10.8 25.35
L 9.9 25.3 7.6 25.65
M 11.75 25.2
Q 11.7 25.2 11.65 25.2 11.7 25.175 11.75 25.15 11.8 25.125 11.85 25.1
L 11.8 25.15
M 11.9 25.05
Q 11.8 25.1 11.7 25.15
M 11.55 25.2
Q 11.45 25.3 11.3 25.4 11.55 25.25 11.75 25.2
M 9.9 25.3
Q 10.9 25.2 11.6 25.1
M -19.7 21.1
L -19.65 21.15
M -20.8 25.05
Q -20 25.25 -19 25.05 -18.95 25.1 -17.35 24.55
M -10.6 25.65
Q -15.35 26.45 -15.95 27.15
M -22.55 25.55
Q -21.55 25.2 -20.8 25.05
M -15.95 27.15
L -16 27.25"/>

<path id="Duplicate_Items_Folder_leg_suit_copy_4_0_Layer1_0_1_STROKES" stroke="#000000" stroke-width="1" stroke-linejoin="round" stroke-linecap="round" fill="none" d="
M -24.4 22.95
Q -24.35 23.1 -24.2 23.25 -23.65 23.6 -22.7 23.6 -21.6 23.7 -20.8 23.35 -19.9 22.95 -20 22.7 -20.1 22.45 -20.7 21.85 -21.35 21.3 -21.95 21.1 -22.5 20.9 -23.35 21.3 -24 21.5 -24.25 21.9 -24.4 22.05 -24.45 22.2 -24.65 22.65 -24.4 22.95 Z
M -22.05 25.75
Q -22.2 25.85 -22.3 26.1 -22.45 26.6 -22.2 27 -22.15 27.15 -21.95 27.25 -21.35 27.75 -20.15 27.75 -18.85 27.8 -17.9 27.35 -16.8 26.95 -16.9 26.65 -17.05 26.35 -17.8 25.7 -18.55 25 -19.3 24.7 -19.85 24.45 -21 24.9 -21.7 25.3 -22.05 25.75 Z
M -15.05 26.45
Q -15.95 26.9 -16.45 27.5 -16.6 27.7 -16.7 27.95 -16.95 28.6 -16.6 29.1 -16.5 29.3 -16.25 29.55 -15.5 30.15 -14 30.15 -12.3 30.25 -11 29.65 -9.65 29.1 -9.8 28.7 -9.95 28.3 -10.9 27.45 -11.9 26.55 -12.8 26.2 -13.6 25.85 -15.05 26.45 Z"/>

<path id="Duplicate_Items_Folder_leg_suit_copy_4_0_Layer0_0_1_STROKES" stroke="#000000" stroke-width="2" stroke-linejoin="round" stroke-linecap="round" fill="none" d="
M -11.9 -10.3
L -10.775 2.675
Q 4.1052734375 6.8951171875 18.3 5.975
L 21.6 -3.25
M 13.5 12.7
L 13.7 13.05 18.3 5.975
M -10.775 2.675
L -6.85 12 13.7 13.05"/>

<path id="arm_chainsaw_0_Layer1_0_1_STROKES" stroke="#000000" stroke-width="2" stroke-linejoin="round" stroke-linecap="round" fill="none" d="
M 26.35 -31.525
Q 25.8001953125 -32.036328125 25.25 -32.55
L 28.3 -33.45
M 25.25 -32.55
L 11.45 -27.95
Q 8.15 -26.8 0.4 -21 -7.2 -15.45 -8.5 -12.15 -9.8 -9.05 -9.95 -5.4 -10.05 -4.8 -9.9 -4.1 -9.55 1.1 -8.05 3.9 -7.45 4.85 -6.95 5.4
L -3.5 9.05 -3.3 9 2.35 12.15 5.8 12.35
Q 16.25 11.9 26 4.85 30.2 3.15 35.75 -4.2 39.7 -9.5 41.4 -11.35 35.4064453125 -22.7236328125 26.35 -31.525
M 28.3 -33.45
L 37.65 -35.55 37.6 -35.45 46.425 -38.05 46.05 -37.95 46.95 -38.225 67.55 -44.55
Q 70.6 -45.5 72.35 -45 71.95 -45.2 73.9 -44.85 75.7 -44.55 79.15 -41.6
L 81.8 -32
Q 81.45 -30.5 80.2 -29.85 79.4 -29.6 78.75 -29.55 78 -29.55 77.4 -29.85 75.3 -30.5 73.95 -32.65 73.7 -34.7 71.35 -35.1 70.35 -35.25 69.3 -35.15 64.75 -34.7 66.7 -33.6 66.95 -33.45 69.1 -31.7
L 69.3 -31
Q 70 -29.55 69.35 -27.8 68.75 -26.2 67.5 -25.55 66.35 -25 64.05 -26.6 61.75 -28.15 60.9 -28.15 60 -28.35 58.75 -28.35 57.55 -28.35 57.2 -28.3
L 57.1 -28.3
Q 56.80078125 -28.150390625 56.65 -28.15 56.70078125 -28.14921875 56.8 -28.05
L 56.35 -28.15
Q 55.7 -27.95 55.05 -27.95
L 55.15 -28.05 53.85 -27.5
Q 50.35 -25.25 44.75 -15.3 44.3 -14.6 46.1 -18.1 44.45 -15.15 43.45 -13.65 42.75 -12.7 42.35 -12.4 42 -12.15 41.4 -11.35
M 46.95 -38.225
L 46.425 -38.05"/>

<path id="Duplicate_Items_Folder_body_suit_copy_4_0_Layer1_0_1_STROKES" stroke="#000000" stroke-width="2" stroke-linejoin="round" stroke-linecap="round" fill="none" d="
M 36.35 -13.05
Q 36.85 -20.3 38.2 -33.95 38.739453125 -37.70859375 38.45 -37.225
M 37.25 -34.35
L 33.5 -13.1 36.35 -13.05
Q 36.05 -9.25 36 -7.4 35.85 -3.9 39.95 15.05 45.3 34.05 46 40 46.65 46 44 50.75 41.5 55.35 36.15 59.6 24.65 68.6 1.15 70.5 0.85 70.65 0.6 70.55 -23 68.5 -34.5 59.5 -39.8 55.3 -42.4 50.7 -45 45.95 -45.35 38.85 -45.7 31.75 -40.15 14.25 -34.15 -3.95 -34.3 -7.45 -34.5 -9.8 -34.3 -15.15 -34.15 -22.3 -33.5 -34.85
L -34.95 -43.7
M -34.75 -43.95
Q -33.5060546875 -45.7259765625 -24.7 -44.85 -14.75 -46.5 -0.3 -46.05 0.5 -46.05 1.3 -46 16.65 -46.4 31.15 -43.15 33.83203125 -45.18515625 38.7 -39.3 38.0638671875 -36.6447265625 38.45 -37.225
M 38.7 -39.3
L 37.25 -34.35
M 27.8 -10.7
Q 29 -10.65 29.8 -10.1 30.55 -9.5 30.5 -8.7 30.5 -7.9 29.65 -7.4 28.85 -6.75 27.65 -6.85 26.45 -6.85 25.65 -7.5 24.85 -8.05 24.85 -8.85 24.9 -9.65 25.75 -10.2 26.6 -10.7 27.8 -10.7 Z
M 23.35 -13.4
L 21.45 -5.8
Q 26.45 -3.35 32 -4.75
L 33.5 -13.1
M 31.15 -43.15
L 23.35 -13.4 -19.75 -14.65 -17.8 -6.65
Q -23.15 -3.9 -28.3 -5.6
L -30 -14.95 -34.3 -15.15
M 0.6 70.55
Q 0.5 70.5 0.65 70.5 0.85 70.5 1.15 70.5
M -26.25 -11.2
Q -25.4 -11.75 -24.2 -11.7 -23 -11.65 -22.2 -11.05 -21.45 -10.45 -21.5 -9.65 -21.5 -8.9 -22.3 -8.35 -23.15 -7.8 -24.35 -7.85 -25.55 -7.85 -26.35 -8.45 -27.1 -9 -27.1 -9.8 -27.1 -10.6 -26.25 -11.2 Z
M -24.7 -44.85
L -19.75 -14.65
M -33.5 -34.85
L -30 -14.95"/>

<path id="Duplicate_Items_Folder_body_suit_copy_4_0_Layer1_1_1_STROKES" stroke="#000000" stroke-width="2" stroke-linejoin="round" stroke-linecap="round" fill="none" d="
M 2.7 3.55
Q 4 3.6 4.85 4.3 5.75 4.95 5.7 5.85 5.65 6.7 4.75 7.35 3.8 7.9 2.5 7.9 1.2 7.85 0.25 7.2 -0.65 6.55 -0.6 5.65 -0.45 4.75 0.4 4.1 1.35 3.55 2.7 3.55 Z
M 29.55 26.15
Q -0.8 31.65 -25.5 23
L -22.8 -1
Q 0.05 1.35 22.1 -0.35
L 30.35 6 29.55 26.15 Z"/>

<path id="Duplicate_Items_Folder_body_suit_copy_4_0_Layer0_0_1_STROKES" stroke="#000000" stroke-width="1.7" stroke-linejoin="round" stroke-linecap="round" fill="none" d="
M -5.35 -17.55
L -5.35 -17.7
Q -5.3 -18.25 -4.2 -18.65 -3.2 -19 -1.8 -18.95 -0.65 -18.95 0.2 -18.65 0.5 -18.55 0.65 -18.5 1.65 -18.05 1.65 -17.45
L 1.65 -17.4"/>

<path id="Duplicate_Items_Folder_body_suit_copy_4_0_Layer0_0_2_STROKES" stroke="#000000" stroke-width="2" stroke-linejoin="round" stroke-linecap="round" fill="none" d="
M 11.85 -15.95
Q 12.4 -15.8 12.9 -15.55 14.25 -14.95 14.2 -14.1 14.2 -14 14.2 -13.95
M -9.2 -15.95
Q -9.9 -16.9 -8.9 -17.35 -7.85 -17.9 -6.65 -17.75 -5.45 -17.6 -5.35 -17.55
M 4.7 -18.25
Q 5.15 -18.35 5.6 -18.35 6.75 -18.25 7.6 -17.8
M 1.65 -17.4
Q 2.1 -17.35 2.55 -17.2"/>

<path id="Duplicate_Items_Folder_body_suit_copy_4_0_Layer0_0_3_STROKES" stroke="#000000" stroke-width="1.8" stroke-linejoin="round" stroke-linecap="round" fill="none" d="
M 7.6 -17.8
Q 8.05 -17.9 8.65 -17.9 10.05 -17.8 11 -17.35 11.9 -16.85 11.85 -16.2 11.85 -16.05 11.85 -15.95
M -12.5 -14.7
Q -12.25 -15.25 -11.2 -15.55 -10.25 -15.8 -9.2 -15.95"/>

<path id="Duplicate_Items_Folder_body_suit_copy_4_0_Layer0_0_4_STROKES" stroke="#000000" stroke-width="1.9" stroke-linejoin="round" stroke-linecap="round" fill="none" d="
M 0.2 -18.65
Q 0.45 -18.95 0.75 -19.25 1.55 -19.75 2.45 -19.75 3.35 -19.75 4.05 -19.15 4.5 -18.75 4.7 -18.25"/>

<path id="Duplicate_Items_Folder_head_copy_7_0_Layer7_0_1_STROKES" stroke="#000000" stroke-width="2" stroke-linejoin="round" stroke-linecap="round" fill="none" d="
M 6.3 -39.75
Q 3 -38.7 0.45 -36.8
L 4.15 -34.9
M 20.575 -33.825
Q 16.586328125 -37.1837890625 11.45 -38.6 8.8 -39.3 6.3 -39.75 0.7 -40.7 -4.2 -40.15 -4.45 -40.15 -4.55 -40.15 -4.65 -40.15 -4.75 -40.1
M -4.15 -37.65
L 0.45 -36.8
Q -1.6 -35.3 -3.25 -33.15
L 1.5 -31.15
M 29.5 -20.55
Q 29.4 -20.8 29.3 -21 26.0095703125 -29.2259765625 20.575 -33.825
M -38 46.45
Q -35.13359375 50.1181640625 -31.9 52.95 -21.6 61.95 -7.75 62.1 8.5 61.95 20.05 57.7 31.6 53.5 35.9 42.6 39.6 29.75 37 20.75 36.3 12.1 35.45 2.2 34.8 -1.8 34.05 -5.3 33.4 -8.2 32.75 -10.75
M 30.75 -10.25
L 27.85 -12.15
Q 27.4 -7.1 28.05 -2.8
L 30.85 -4.55
M 29.85 3.3
Q 28.6 0.5 28.05 -2.8
L 25.7 -1.4
M 32.75 -10.75
Q 32.7 -10.8 32.7 -10.85 31.3 -16.2 29.5 -20.55 28.15 -16.05 27.85 -12.15
L 24.8 -14.2
M -3.25 -33.15
Q -5.3 -30.5 -6.55 -26.95
L -2.2 -24.95
M -8.45 -32.65
L -3.25 -33.15
M -10.3 -26
L -6.55 -26.95
Q -7.3 -24.95 -7.9 -22.6
M -4.75 -40.1
Q -8.05 -39.8 -11.15 -38.8 -19.1 -36.2 -24.45 -29.8 -28.2 -25.45 -33.35 -13.65 -38.4 -1.4 -37 -5.75 -43.15 5.6 -45.35 11.4 -49.9 23.15 -45.7 32.6
M -45.7 33.6
Q -42.259765625 40.9591796875 -38 46.45"/>

<path id="Duplicate_Items_Folder_head_copy_7_0_Layer4_0_1_STROKES" stroke="#000000" stroke-width="2" stroke-linejoin="round" stroke-linecap="round" fill="none" d="
M -27.7 12.8
L -26.75 15.55
Q -19.8009765625 19.0498046875 -17.325 19.625 -14.8458984375 20.2001953125 -12.8 20.7 -10.75859375 21.19921875 -3.35 20.6
L 3.1 20.4 8.9 21.55
M 9.25 19.95
L 9 19.9
M 9.5 18.4
Q 5.95 16.05 2.15 14.15 1.8 14 1.5 13.8 -3.95 11.15 -5.8 10.55 -10.2 9.2 -16.85 9 -23.2 8.9 -25.75 11.05 -26.814453125 11.827734375 -27.075 12
L -26.2 11.45
M 9.25 19.95
L 12.45 21.15 13.05 21.35 9.5 18.4
M 13.05 21.35
L 13.6 21.85 12.45 21.15 13.15 22.4 8.9 21.55"/>

<path id="Duplicate_Items_Folder_head_copy_7_0_Layer2_0_1_STROKES" stroke="#000000" stroke-width="2" stroke-linejoin="round" stroke-linecap="round" fill="none" d="
M 10.05 -76.7
L 12.95 -72.9
Q 23.8 -82.5 32.5 -84.1 34.8 -87.95 32.25 -92.2 32.25 -92.35 32.2 -92.5 31.7 -94.5 27.7 -94.65
L 16.45 -88.05 7.4 -78.7 10.05 -76.7 Z"/>

<path id="Duplicate_Items_Folder_head_copy_7_0_Layer1_0_1_STROKES" stroke="#000000" stroke-width="2" stroke-linejoin="round" stroke-linecap="round" fill="none" d="
M 12.8 -76.25
L 15 -73.4 12.25 -69.1 15.6 -37.25 8 -40.1
Q -1.3626953125 -42.172265625 -5.5 -40.45
L -3.25 -71.45 -3.25 -71.8 5.75 -79.35 12.55 -76.6 12.8 -76.25 7.55 -69.6 8 -40.1
M -3.25 -71.45
L 7.55 -69.6"/>

<path id="Duplicate_Items_Folder_eye_blink_7_Layer2_0_1_STROKES" stroke="#000000" stroke-width="2" stroke-linejoin="round" stroke-linecap="round" fill="none" d="
M 47.3 24.6
Q 46.3099609375 31.093359375 38.275 36.325 30.2423828125 41.5548828125 23 40.4 15.75234375 39.2482421875 9.95 32.45 4 25.75 5.7 16.8 7.4 7.75 16.25 1.9 25.05 -4 33.3 -1 41.5 1.95 44.85 9.05 48.1 16.15 47.3 24.6 Z"/>
</defs>

<g transform="matrix( 4.0865631103515625, 0, 0, 4.0865631103515625, 106.7,533) ">
<g transform="matrix( 0.479217529296875, 0.0338287353515625, -0.0338287353515625, 0.479217529296875, 28.15,-16.05) ">
<g transform="matrix( 1, 0, 0, 1, 0,0) ">
<use xlink:href="#leg_suit_copy_0_Layer3_0_FILL"/>
</g>

<g transform="matrix( 1, 0, 0, 1, 0,0) ">
<use xlink:href="#leg_suit_copy_0_Layer2_0_FILL"/>

<use xlink:href="#leg_suit_copy_0_Layer2_0_1_STROKES"/>
</g>

<g transform="matrix( 1, 0, 0, 1, 0,0) ">
<use xlink:href="#leg_suit_copy_0_Layer1_0_FILL"/>

<use xlink:href="#leg_suit_copy_0_Layer1_0_1_STROKES"/>
</g>

<g transform="matrix( 1, 0, 0, 1, 0,0) ">
<use xlink:href="#leg_suit_copy_0_Layer0_0_FILL"/>

<use xlink:href="#leg_suit_copy_0_Layer0_0_1_STROKES"/>
</g>
</g>

<g transform="matrix( -0.4937744140625, 0.02142333984375, 0.02142333984375, 0.4937744140625, 58.35,-15.65) ">
<g transform="matrix( 1, 0, 0, 1, 0,0) ">
<use xlink:href="#Duplicate_Items_Folder_leg_suit_copy_4_0_Layer3_0_FILL"/>
</g>

<g transform="matrix( 1, 0, 0, 1, 0,0) ">
<use xlink:href="#Duplicate_Items_Folder_leg_suit_copy_4_0_Layer2_0_FILL"/>

<use xlink:href="#Duplicate_Items_Folder_leg_suit_copy_4_0_Layer2_0_1_STROKES"/>
</g>

<g transform="matrix( 1, 0, 0, 1, 0,0) ">
<use xlink:href="#Duplicate_Items_Folder_leg_suit_copy_4_0_Layer1_0_FILL"/>

<use xlink:href="#Duplicate_Items_Folder_leg_suit_copy_4_0_Layer1_0_1_STROKES"/>
</g>

<g transform="matrix( 1, 0, 0, 1, 0,0) ">
<use xlink:href="#Duplicate_Items_Folder_leg_suit_copy_4_0_Layer0_0_FILL"/>

<use xlink:href="#Duplicate_Items_Folder_leg_suit_copy_4_0_Layer0_0_1_STROKES"/>
</g>
</g>

<g transform="matrix( 0.0912017822265625, 0.53350830078125, 0.5550994873046875, -0.102630615234375, 31.2,-65) ">
<g transform="matrix( 1, 0, 0, 1, 0,0) ">
<use xlink:href="#arm_chainsaw_0_Layer1_0_FILL"/>

<use xlink:href="#arm_chainsaw_0_Layer1_0_1_STROKES"/>
</g>
</g>

<g transform="matrix( -0.0912017822265625, 0.53350830078125, -0.5550994873046875, -0.102630615234375, 54.1,-64.1) ">
<g transform="matrix( 1, 0, 0, 1, 0,0) ">
<use xlink:href="#arm_chainsaw_0_Layer1_0_FILL"/>

<use xlink:href="#arm_chainsaw_0_Layer1_0_1_STROKES"/>
</g>
</g>

<g transform="matrix( 0.4946136474609375, -0.020599365234375, 0.0145263671875, 0.4940185546875, 41.95,-46.85) ">
<g transform="matrix( 1, 0, 0, 1, 0,0) ">
<use xlink:href="#Duplicate_Items_Folder_body_suit_copy_4_0_Layer1_0_FILL"/>

<use xlink:href="#Duplicate_Items_Folder_body_suit_copy_4_0_Layer1_0_1_STROKES"/>
</g>

<g transform="matrix( 1, 0, 0, 1, 0,0) ">
<use xlink:href="#Duplicate_Items_Folder_body_suit_copy_4_0_Layer1_1_FILL"/>

<use xlink:href="#Duplicate_Items_Folder_body_suit_copy_4_0_Layer1_1_1_STROKES"/>
</g>

<g transform="matrix( 1, 0, 0, 1, 0,0) ">
<use xlink:href="#Duplicate_Items_Folder_body_suit_copy_4_0_Layer0_0_FILL"/>

<use xlink:href="#Duplicate_Items_Folder_body_suit_copy_4_0_Layer0_0_1_STROKES"/>

<use xlink:href="#Duplicate_Items_Folder_body_suit_copy_4_0_Layer0_0_2_STROKES"/>

<use xlink:href="#Duplicate_Items_Folder_body_suit_copy_4_0_Layer0_0_3_STROKES"/>

<use xlink:href="#Duplicate_Items_Folder_body_suit_copy_4_0_Layer0_0_4_STROKES"/>
</g>
</g>

<g transform="matrix( 0.430084228515625, -0.069091796875, 0.052276611328125, 0.433074951171875, 43.6,-85.4) ">
<g transform="matrix( -0.48895263671875, 0.12213134765625, 0.149078369140625, 0.5967254638671875, 41.7,1.35) ">
<g transform="matrix( 1, 0, 0, 1, 0,0) ">
<use xlink:href="#Duplicate_Items_Folder_ear_copy_0_Layer1_0_FILL"/>
</g>

<g transform="matrix( 1, 0, 0, 1, 0,0) ">
<use xlink:href="#Duplicate_Items_Folder_ear_copy_0_Layer0_0_FILL"/>
</g>
</g>

<g transform="matrix( 0.42181396484375, 0.27490234375, -0.335540771484375, 0.514739990234375, -38.65,-16) ">
<g transform="matrix( 1, 0, 0, 1, 0,0) ">
<use xlink:href="#Duplicate_Items_Folder_ear_copy_0_Layer1_0_FILL"/>
</g>

<g transform="matrix( 1, 0, 0, 1, 0,0) ">
<use xlink:href="#Duplicate_Items_Folder_ear_copy_0_Layer0_0_FILL"/>
</g>
</g>

<g transform="matrix( 1, 0, 0, 1, 0,0) ">
<use xlink:href="#Duplicate_Items_Folder_head_copy_7_0_Layer7_0_FILL"/>

<use xlink:href="#Duplicate_Items_Folder_head_copy_7_0_Layer7_0_1_STROKES"/>
</g>

<g transform="matrix( 1, 0, 0, 1, 0,0) ">
<use xlink:href="#Duplicate_Items_Folder_head_copy_7_0_Layer6_0_FILL"/>
</g>

<g transform="matrix( 1, 0, 0, 1, 0,0) ">
<use xlink:href="#Duplicate_Items_Folder_head_copy_7_0_Layer5_0_FILL"/>
</g>

<g transform="matrix( 1, 0, 0, 1, 0,0) ">
<use xlink:href="#Duplicate_Items_Folder_head_copy_7_0_Layer4_0_FILL"/>

<use xlink:href="#Duplicate_Items_Folder_head_copy_7_0_Layer4_0_1_STROKES"/>
</g>

<g transform="matrix( 1, 0, 0, 1, 0,0) ">
<use xlink:href="#Duplicate_Items_Folder_head_copy_7_0_Layer3_0_FILL"/>
</g>

<g transform="matrix( 1, 0, 0, 1, 0,0) ">
<use xlink:href="#Duplicate_Items_Folder_head_copy_7_0_Layer2_0_FILL"/>

<use xlink:href="#Duplicate_Items_Folder_head_copy_7_0_Layer2_0_1_STROKES"/>
</g>

<g transform="matrix( 1, 0, 0, 1, 0,0) ">
<use xlink:href="#Duplicate_Items_Folder_head_copy_7_0_Layer1_0_FILL"/>

<use xlink:href="#Duplicate_Items_Folder_head_copy_7_0_Layer1_0_1_STROKES"/>
</g>

<g transform="matrix( -0.425048828125, -0.132568359375, -0.132568359375, 0.425048828125, 25.95,-8.05) ">
<g transform="matrix( 1, 0, 0, 1, 0,0) ">
<use xlink:href="#Duplicate_Items_Folder_eye_blink_7_Layer3_0_FILL"/>
</g>

<g transform="matrix( 1, 0, 0, 1, 0,0) ">
<use xlink:href="#Duplicate_Items_Folder_eye_blink_7_Layer2_0_FILL"/>

<use xlink:href="#Duplicate_Items_Folder_eye_blink_7_Layer2_0_1_STROKES"/>
</g>

<g transform="matrix( 1, 0, 0, 1, 0,0) ">
<use xlink:href="#Duplicate_Items_Folder_eye_blink_7_Layer1_0_FILL"/>
</g>
</g>

<g transform="matrix( -0.330413818359375, -0.236572265625, -0.236572265625, 0.330413818359375, -6.25,-10.3) ">
<g transform="matrix( 1, 0, 0, 1, 0,0) ">
<use xlink:href="#Duplicate_Items_Folder_eye_blink_7_Layer3_0_FILL"/>
</g>

<g transform="matrix( 1, 0, 0, 1, 0,0) ">
<use xlink:href="#Duplicate_Items_Folder_eye_blink_7_Layer2_0_FILL"/>

<use xlink:href="#Duplicate_Items_Folder_eye_blink_7_Layer2_0_1_STROKES"/>
</g>

<g transform="matrix( 1, 0, 0, 1, 0,0) ">
<use xlink:href="#Duplicate_Items_Folder_eye_blink_7_Layer1_0_FILL"/>
</g>
</g>
</g>
</g>
</svg>
