
<svg xmlns="http://www.w3.org/2000/svg" version="1.1" xmlns:xlink="http://www.w3.org/1999/xlink" preserveAspectRatio="none" x="0px" y="0px" width="560px" height="544px" viewBox="0 0 560 544">
<defs>
<g id="voodoo_donut_0_Layer4_0_FILL">
<path fill="#00CCFF" stroke="none" d="
M 26.2 -14.9
Q 26.6 -15.2 26.95 -15.45 26.5 -16.5 25.85 -17.55 24.9 -19 23.45 -20.35 18.85 -24.55 15.35 -25.1 1.7 -28.85 -12.55 -25.65 -19.05 -24.55 -23.65 -20.35 -25 -19.05 -25.95 -17.65 -26.85 -16.3 -27.4 -14.75 -23 -11.95 -17.55 -10.9 -0.45 -7.6 16.3 -10.55 21.95 -11.8 26.2 -14.9 Z"/>

<path fill="#DDB788" stroke="none" d="
M 8.65 -2.25
Q 7.55 -1.9 6.75 -2.9 6 -4.25 5.55 -4.9 4.35 -6.75 3.8 -4.6 3.55 -3.75 2.5 -2.7 1.6 -1.75 0.5 -1.05 -0.9 -0.15 -5.15 -5.35 -5.8 -6.2 -6.45 -5.65 -7.05 -5.2 -7.2 -4.2 -7.35 -3.35 -8.9 -3.75 -10.4 -4.1 -10.4 -5 -10.4 -5.9 -11.75 -6.3 -13 -6.75 -14.15 -6.35 -14.9 -6.1 -15.05 -4.1 -15.35 -1.8 -16 -0.95 -17.05 0.25 -17.85 -1 -18.75 -2.3 -18.3 -3.8 -17.85 -5.3 -18.85 -6.55 -19.85 -7.8 -21 -7.7 -23.05 -7.4 -23.85 -7.4 -25.85 -7.4 -27.05 -8.15 -27.65 -8.55 -28.2 -10.1
L -28.2 -10.05
Q -28.2 -4.1 -23.65 0.15 -19.05 4.4 -12.25 5.15 -0.3 6.05 12.55 5.15 18.85 4.4 23.45 0.15 28.05 -4.1 28.05 -10.05
L 28.05 -10.1
Q 28.05 -10.2 28.05 -10.3 27.6 -9.9 27.3 -9.6 27.65 -8.85 26.2 -7.5 24.75 -6.15 23 -6.65 21.2 -7.25 20.75 -6.55 19.9 -4.85 19.25 -3.8 18.05 -1.9 17.1 -2.35 16.2 -2.75 16.1 -4 15.95 -5.65 15.7 -6 15.2 -6.85 14.05 -6.65 13.2 -6.45 11.7 -5.65 10.95 -5.2 10.2 -3.8 9.55 -2.55 8.65 -2.25 Z"/>

<path fill="#0196BA" stroke="none" d="
M 6.75 -2.9
Q 7.55 -1.9 8.65 -2.25 9.55 -2.55 10.2 -3.8 10.95 -5.2 11.7 -5.65 13.2 -6.45 14.05 -6.65 15.2 -6.85 15.7 -6 15.95 -5.65 16.1 -4 16.2 -2.75 17.1 -2.35 18.05 -1.9 19.25 -3.8 19.9 -4.85 20.75 -6.55 21.2 -7.25 23 -6.65 24.75 -6.15 26.2 -7.5 27.65 -8.85 27.3 -9.6 27.6 -9.9 28.05 -10.3 28 -13.05 26.95 -15.45 26.6 -15.2 26.2 -14.9 21.95 -11.8 16.3 -10.55 -0.45 -7.6 -17.55 -10.9 -23 -11.95 -27.4 -14.75 -28.2 -12.6 -28.2 -10.1 -27.65 -8.55 -27.05 -8.15 -25.85 -7.4 -23.85 -7.4 -23.05 -7.4 -21 -7.7 -19.85 -7.8 -18.85 -6.55 -17.85 -5.3 -18.3 -3.8 -18.75 -2.3 -17.85 -1 -17.05 0.25 -16 -0.95 -15.35 -1.8 -15.05 -4.1 -14.9 -6.1 -14.15 -6.35 -13 -6.75 -11.75 -6.3 -10.4 -5.9 -10.4 -5 -10.4 -4.1 -8.9 -3.75 -7.35 -3.35 -7.2 -4.2 -7.05 -5.2 -6.45 -5.65 -5.8 -6.2 -5.15 -5.35 -0.9 -0.15 0.5 -1.05 1.6 -1.75 2.5 -2.7 3.55 -3.75 3.8 -4.6 4.35 -6.75 5.55 -4.9 6 -4.25 6.75 -2.9 Z"/>
</g>

<g id="voodoo_donut_0_Layer2_0_FILL">
<path fill="#D1AC80" stroke="none" d="
M 16.85 -2.15
Q 16.95 -0.9 17.85 -0.5 18.85 -0.05 20.05 -1.9 20.7 -2.95 21.6 -4.7 22.05 -5.35 23.85 -4.85 25.35 -4.35 26.6 -5.2 27.55 -7.6 27.55 -10.3
L 27.55 -10.35
Q 27.55 -10.45 27.55 -10.55 27.1 -10.1 26.8 -9.9 27.15 -9.15 25.7 -7.75 24.3 -6.35 22.6 -6.95 20.85 -7.45 20.4 -6.8 19.6 -5.05 18.95 -4.05 17.8 -2.2 16.85 -2.65
L 16.8 -2.65
Q 16.8 -2.4 16.85 -2.15
M 3.85 -4.85
Q 3.6 -4 2.6 -2.95 1.7 -1.95 0.6 -1.3 -0.75 -0.4 -4.85 -5.55 -5.55 -6.45 -6.25 -5.95 -6.9 -5.5 -7.05 -4.55 -7.25 -3.6 -8.6 -3.95 -10 -4.35 -10 -5.25 -10 -6.15 -11.3 -6.6 -12.55 -7 -13.7 -6.65 -14.85 -6.3 -14.9 -5.05 -15 -3.95 -15.35 -2.35 -15.5 -1.5 -16.05 -0.75 -16.65 -0.05 -17.25 -1.3 -17.9 -2.55 -17.55 -4.15 -17.3 -5.55 -18.3 -6.85 -19.25 -8.05 -20.35 -7.9 -22.4 -7.65 -23.15 -7.65 -25.1 -7.65 -26.3 -8.45 -26.9 -8.8 -27.45 -10.35
L -27.45 -10.3
Q -27.45 -8.1 -26.8 -6.1 -25.65 -5.55 -23.9 -5.55 -23.05 -5.55 -20.95 -5.8 -19.85 -5.95 -19.25 -4.7 -18.65 -3.45 -18.8 -1.9 -18.95 -0.45 -17.95 0.85 -16.95 2.15 -15.9 0.95 -15.2 0.1 -14.9 -2.25
L -14.9 -2.35
Q -14.45 -3.75 -13.75 -4.15 -12.85 -4.85 -11.55 -4.45 -10.15 -4 -10.15 -3.15 -10.15 -2.25 -8.6 -1.9 -7.1 -1.5 -6.9 -2.35 -6.75 -3.35 -6.15 -3.8 -5.5 -4.3 -4.8 -3.45 -0.5 1.7 0.95 0.8 2.05 0.15 3 -0.8 4.05 -1.9 4.3 -2.75 4.9 -4.85 6.1 -3.05 6.55 -2.4 7.35 -1 8.1 -0.05 9.25 -0.4 10.2 -0.65 10.85 -1.9 11.55 -3.35 12.35 -3.75 13.95 -4.6 14.75 -4.75 15.35 -4.85 15.85 -4.7 15.65 -5.95 15.45 -6.3 15 -7.1 13.85 -6.9 13.05 -6.7 11.55 -5.9 10.8 -5.45 10.15 -4.05 9.45 -2.75 8.6 -2.5 7.5 -2.2 6.75 -3.15 6 -4.5 5.55 -5.2 4.4 -7 3.85 -4.85 Z"/>
</g>

<g id="pin_0_Layer0_0_FILL">
<path fill="#C8C8C8" stroke="none" d="
M -0.5 -8.65
Q -1.2 -8.65 -1.85 -8.7
L -0.55 16.95 1.35 -8.75
Q 0.5 -8.65 -0.5 -8.65 Z"/>

<path fill="#99FF00" stroke="none" d="
M 1.35 -8.75
Q 2.55 -8.9 3.55 -9.15 5.25 -9.6 5.65 -10.65 6.05 -11.7 4.85 -14.05 3.6 -16.4 0.5 -16.5 -2.65 -16.7 -4.4 -14.1 -6.15 -11.55 -5.6 -10.35 -5.05 -9.2 -4.05 -8.95 -3.1 -8.7 -1.85 -8.7 -1.2 -8.65 -0.5 -8.65 0.5 -8.65 1.35 -8.75 Z"/>
</g>

<g id="voodoo_donut_0_Layer0_0_FILL">
<path fill="#000000" stroke="none" d="
M -6.55 -19.8
Q -8.15 -19.75 -9.2 -18.65 -10.4 -17.5 -10.4 -16 -10.4 -14.45 -9.2 -13.45 -8.15 -12.5 -6.55 -12.55 -4.9 -12.6 -3.85 -13.65
L -3.8 -13.65
Q -2.65 -14.75 -2.65 -16.3 -2.65 -17.8 -3.8 -18.85 -4.9 -19.85 -6.55 -19.8
M -6.55 -17.8
Q -5.7 -17.85 -5.15 -17.35 -4.65 -16.9 -4.65 -16.2 -4.65 -15.55 -5.15 -15.1
L -5.15 -15.05
Q -5.7 -14.6 -6.55 -14.55 -7.35 -14.5 -7.85 -14.95
L -7.9 -15
Q -8.4 -15.45 -8.4 -16.1 -8.4 -16.8 -7.85 -17.25 -7.35 -17.75 -6.55 -17.8
M 4.1 -22.9
Q 2.95 -23.9 1.35 -23.85 -0.25 -23.8 -1.35 -22.7
L -1.4 -22.7
Q -2.55 -21.7 -2.55 -20.3 -2.55 -18.9 -1.4 -17.85
L -1.35 -17.8
Q -0.25 -16.9 1.35 -16.95 2.95 -17 4.1 -18
L 4.15 -18
Q 5.2 -19.1 5.2 -20.5 5.2 -21.95 4.1 -22.9
M 0 -21.45
L 0 -21.5
Q 0.55 -22.05 1.35 -22.05 2.15 -22.1 2.7 -21.6 3.2 -21.2 3.2 -20.45 3.2 -19.8 2.75 -19.25 2.7 -19.25 2.7 -19.2 2.1 -18.8 1.35 -18.75 0.55 -18.75 0 -19.15 -0.55 -19.65 -0.55 -20.3 -0.55 -21 0 -21.45 Z"/>

<path fill="#FF0000" stroke="none" d="
M -5.15 -17.35
Q -5.7 -17.85 -6.55 -17.8 -7.35 -17.75 -7.85 -17.25 -8.4 -16.8 -8.4 -16.1 -8.4 -15.45 -7.9 -15
L -7.85 -14.95
Q -7.35 -14.5 -6.55 -14.55 -5.7 -14.6 -5.15 -15.05
L -5.15 -15.1
Q -4.65 -15.55 -4.65 -16.2 -4.65 -16.9 -5.15 -17.35
M 0 -21.5
L 0 -21.45
Q -0.55 -21 -0.55 -20.3 -0.55 -19.65 0 -19.15 0.55 -18.75 1.35 -18.75 2.1 -18.8 2.7 -19.2 2.7 -19.25 2.75 -19.25 3.2 -19.8 3.2 -20.45 3.2 -21.2 2.7 -21.6 2.15 -22.1 1.35 -22.05 0.55 -22.05 0 -21.5 Z"/>
</g>

<path id="voodoo_donut_0_Layer4_0_1_STROKES" stroke="#000000" stroke-width="2" stroke-linejoin="round" stroke-linecap="round" fill="none" d="
M 28.05 -10.3
Q 28 -13.05 26.95 -15.45
M -27.4 -14.75
Q -28.2 -12.6 -28.2 -10.1
L -28.2 -10.05
Q -28.2 -4.1 -23.65 0.15 -19.05 4.4 -12.25 5.15 -0.3 6.05 12.55 5.15 18.85 4.4 23.45 0.15 28.05 -4.1 28.05 -10.05
L 28.05 -10.1
Q 28.05 -10.2 28.05 -10.3
M 26.95 -15.45
Q 26.5 -16.5 25.85 -17.55 24.9 -19 23.45 -20.35 18.85 -24.55 15.35 -25.1 1.7 -28.85 -12.55 -25.65 -19.05 -24.55 -23.65 -20.35 -25 -19.05 -25.95 -17.65 -26.85 -16.3 -27.4 -14.75"/>

<path id="voodoo_donut_0_Layer3_0_1_STROKES" stroke="#000000" stroke-width="1" stroke-linejoin="round" stroke-linecap="round" fill="none" d="
M 14.7 -19.75
L 13.45 -20.15 12.3 -18.1
M 12.3 -23.45
L 14.5 -22.625 15.45 -24.95
M 11.75 -20.7
L 13.45 -20.15 13.6 -20.425 14.5 -22.625 15.8 -22.15
M 13.05 -11.25
L 13.05 -9.65 18.075 -10.65 17.45 -12.35
M 13.05 -9.65
L 13.05 -8.65
M 18.6 -9.25
L 18.075 -10.65 21 -11.25
M 10.1 -9.05
L 13.05 -9.65
M -20.8 -18.85
L -18.875 -18.375 -18.75 -19.75
M -18 -15.5
L -19.175 -15.45 -19.3 -14.05
M -21.15 -15.35
L -19.175 -15.45 -18.875 -18.375 -17.85 -18.1"/>

<path id="pin_0_Layer0_0_1_STROKES" stroke="#000000" stroke-width="1.5" stroke-linejoin="round" stroke-linecap="round" fill="none" d="
M -1.85 -8.7
Q -3.1 -8.7 -4.05 -8.95 -5.05 -9.2 -5.6 -10.35 -6.15 -11.55 -4.4 -14.1 -2.65 -16.7 0.5 -16.5 3.6 -16.4 4.85 -14.05 6.05 -11.7 5.65 -10.65 5.25 -9.6 3.55 -9.15 2.55 -8.9 1.35 -8.75
L -0.55 16.95 -1.85 -8.7
Q -1.2 -8.65 -0.5 -8.65 0.5 -8.65 1.35 -8.75"/>

<path id="voodoo_donut_0_Layer0_0_1_STROKES" stroke="#000000" stroke-width="1.5" stroke-linejoin="round" stroke-linecap="round" fill="none" d="
M 1.2 -11.45
Q 2.0498046875 -14.27890625 8.8 -14.95"/>
</defs>

<g transform="matrix( 6.7381591796875, 0, 0, 6.7381591796875, 278.65,441.95) ">
<g transform="matrix( 1, 0, 0, 1, 0,0) ">
<use xlink:href="#voodoo_donut_0_Layer4_0_FILL"/>

<use xlink:href="#voodoo_donut_0_Layer4_0_1_STROKES"/>
</g>

<g transform="matrix( 1, 0, 0, 1, 0,0) ">
<use xlink:href="#voodoo_donut_0_Layer3_0_1_STROKES"/>
</g>

<g transform="matrix( 1, 0, 0, 1, 0,0) ">
<use xlink:href="#voodoo_donut_0_Layer2_0_FILL"/>
</g>

<g transform="matrix( 0.404083251953125, 0.584869384765625, -0.5181884765625, 0.3990478515625, 27.05,-24.8) ">
<g transform="matrix( 1, 0, 0, 1, 0,0) ">
<use xlink:href="#pin_0_Layer0_0_FILL"/>

<use xlink:href="#pin_0_Layer0_0_1_STROKES"/>
</g>
</g>

<g transform="matrix( -0.8397216796875, -0.17767333984375, 0.076202392578125, -0.48199462890625, -14.7,2.8) ">
<g transform="matrix( 1, 0, 0, 1, 0,0) ">
<use xlink:href="#pin_0_Layer0_0_FILL"/>

<use xlink:href="#pin_0_Layer0_0_1_STROKES"/>
</g>
</g>

<g transform="matrix( 0.52880859375, -0.470947265625, 0.45782470703125, 0.463531494140625, -19.75,-29.65) ">
<g transform="matrix( 1, 0, 0, 1, 0,0) ">
<use xlink:href="#pin_0_Layer0_0_FILL"/>

<use xlink:href="#pin_0_Layer0_0_1_STROKES"/>
</g>
</g>

<g transform="matrix( -0.42864990234375, -0.5638885498046875, 0.49774169921875, -0.4206390380859375, -27.3,0) ">
<g transform="matrix( 1, 0, 0, 1, 0,0) ">
<use xlink:href="#pin_0_Layer0_0_FILL"/>

<use xlink:href="#pin_0_Layer0_0_1_STROKES"/>
</g>
</g>

<g transform="matrix( 0.478424072265625, -0.710906982421875, -0.38958740234375, -0.2925262451171875, 23.75,-0.2) ">
<g transform="matrix( 1, 0, 0, 1, 0,0) ">
<use xlink:href="#pin_0_Layer0_0_FILL"/>

<use xlink:href="#pin_0_Layer0_0_1_STROKES"/>
</g>
</g>

<g transform="matrix( 1, 0, 0, 1, 0,0) ">
<use xlink:href="#voodoo_donut_0_Layer0_0_FILL"/>

<use xlink:href="#voodoo_donut_0_Layer0_0_1_STROKES"/>
</g>
</g>
</svg>
