
<svg xmlns="http://www.w3.org/2000/svg" version="1.1" xmlns:xlink="http://www.w3.org/1999/xlink" preserveAspectRatio="none" x="0px" y="0px" width="560px" height="544px" viewBox="0 0 560 544">
<defs>
<radialGradient id="Gradient_1" gradientUnits="userSpaceOnUse" cx="0" cy="0" r="38.550000000000004" fx="0" fy="0" gradientTransform="matrix( 1, 0, 0, 1, 57.1,-137.35) " spreadMethod="pad">
<stop  offset="47.05882352941177%" stop-color="#E0BB85"/>

<stop  offset="77.6470588235294%" stop-color="#D3A54B"/>
</radialGradient>

<radialGradient id="Gradient_2" gradientUnits="userSpaceOnUse" cx="0" cy="0" r="26.938546963412858" fx="0" fy="0" gradientTransform="matrix( -0.00881636267622621, 0.9999611351193411, -1.4092259709315262, -0.16519079540718584, 22.55,46.05) " spreadMethod="pad">
<stop  offset="47.05882352941177%" stop-color="#1B431B"/>

<stop  offset="77.6470588235294%" stop-color="#62C061"/>
</radialGradient>

<radialGradient id="Gradient_3" gradientUnits="userSpaceOnUse" cx="0" cy="0" r="32.9" fx="0" fy="0" gradientTransform="matrix( 1.0000000000000002, 0, 0, 1.0000000000000002, 24.65,28.7) " spreadMethod="pad">
<stop  offset="47.05882352941177%" stop-color="#62C061"/>

<stop  offset="77.6470588235294%" stop-color="#62C061"/>
</radialGradient>

<radialGradient id="Gradient_4" gradientUnits="userSpaceOnUse" cx="0" cy="0" r="28.610719691227622" fx="0" fy="0" gradientTransform="matrix( -0.3875295735185423, -0.9218572718423047, -1.546186201445458, 0.44126817277759606, 21.85,29) " spreadMethod="pad">
<stop  offset="47.05882352941177%" stop-color="#000000"/>

<stop  offset="77.6470588235294%" stop-color="#D2CFC7"/>
</radialGradient>

<g id="Duplicate_Items_Folder_body_suit_copy_2_0_Layer1_0_FILL">
<path fill="#000000" stroke="none" d="
M -0.8 -60.6
Q -14.3 -66.15 -28.3 -60.15 -63.2720703125 -30.42265625 -77 54
L -76.65 54.45
Q -80 59.4 -72.05 62.5 -64.95 67.7 -55.3 66.4
L -48.55 65.65 -48.3 65.45 43 68.5 43.25 68.75 50 70
Q 59.55 71.9 66.75 67.15 74.75 64.6 71.6 59.45
L 71.9 59
Q 56.7296875 -35.9640625 26.6 -58.3 12.65 -65.15 -0.8 -60.6 Z"/>
</g>

<g id="Duplicate_Items_Folder_body_suit_copy_2_0_Layer0_0_FILL">
<path fill="#000000" stroke="none" d="
M -29.35 74.75
Q -25.8041015625 75.4681640625 -22.3 76.05
L -24 45.05
Q -29.9123046875 59.748828125 -29.35 74.75
M 16.6 78
Q 19.591796875 77.796484375 22.55 77.5 22.4998046875 60.5443359375 19.1 43.45
L 16.6 78
M 4.55 -1.55
L 4.65 -0.85 12.5 -0.4 16.9 -0.15
Q 16.662109375 -0.2939453125 16.4 -0.45
L 16.4 -5.15
Q 15.4001953125 -5.342578125 15.55 -5.5
L -15.2 -7.3 -15.4 -2.05 -10.75 -1.8 -10.45 -2.45 -10.75 -1.8 -1.9 -1.25 4.65 -0.85 4.55 -1.55 Z"/>

<path fill="#222222" stroke="none" d="
M 15.55 -5.5
Q 24.1900390625 -14.09453125 28.5 -41.75 0.1220703125 -54.7443359375 -30.5 -44.2 -27.5884765625 -14.8193359375 -15.55 -7.3
L -15.2 -7.3 15.55 -5.5 Z"/>

<path fill="#1A1A1A" stroke="none" d="
M 16.9 -0.15
L 12.5 -0.4
Q 19.89140625 6.90078125 20.6 13.85 19.89140625 6.90078125 12.5 -0.4
L 4.65 -0.85
Q 8.90859375 10.8232421875 8.7 21.35 8.90859375 10.8232421875 4.65 -0.85
L -1.9 -1.25
Q -7.2671875 24.7765625 -5.55 51 -7.2671875 24.7765625 -1.9 -1.25
L -10.75 -1.8
Q -20.1876953125 10.797265625 -22 26.75 -20.1876953125 10.797265625 -10.75 -1.8
L -15.4 -2.05
Q -42.3470703125 9.70625 -42.8 71.4 -36.0744140625 73.340625 -29.35 74.75 -29.9123046875 59.748828125 -24 45.05
L -22.3 76.05
Q -8.7255859375 78.2890625 6.1 78.4 7.673828125 73.2681640625 5.05 64.65 7.673828125 73.2681640625 6.1 78.4 10.74921875 78.3697265625 16.6 78
L 19.1 43.45
Q 22.4998046875 60.5443359375 22.55 77.5 31.3986328125 76.6310546875 40.25 74.85 45.5642578125 17.4544921875 16.9 -0.15 Z"/>
</g>

<g id="arm_suit_broom_0_Layer2_0_FILL">
<path fill="#000000" stroke="none" d="
M 15.65 -18.05
L 16 -18.55 6.6 -24.45 5.9 -24.7 3.4 -20.3 8.4 -20.15 3.4 -20.3 -8.7 -21.95 -10.6 -7.55 8.55 -6.55 9.7 -8.1 8.55 -6.55 9.9 -7.4 15.65 -18.05 Z"/>

<path fill="#1E1E1E" stroke="none" d="
M 24.4 -55
Q 21.4 -53.25 18.05 -51.4 11.35 -47.8 9.6 -47.5
L 9.75 -47.05
Q 7.25 -46.55 4.85 -43.7 2.3 -40.75 2.25 -37.7 2.1 -35.1 3.95 -30.05
L 5.8 -25.5 5.9 -24.7 6.6 -24.45 16 -18.55 16.25 -18.4 25.9 -24.45 35.85 -49.95 35.6 -50.45 24.65 -55.5 24.4 -55 Z"/>
</g>

<g id="broom_0_Layer1_0_FILL">
<path fill="#D3A54B" stroke="none" d="
M 47.15 -86.8
L 42.45 -89.1 36.35 -92.15 34.45 -86.15 43.9 -81.25 47.15 -86.8
M 41.05 -106.15
L 40.85 -106.25 37.25 -95 41.8 -96.9 41.05 -106.15
M 47.1 -99.15
L 48.9 -99.95 47.1 -99.15 47.55 -94.3 51.35 -95.45 51.95 -95.1 54.2 -98.9 46.95 -102.9 47.1 -99.15 Z"/>

<path fill="#B07B2D" stroke="none" d="
M 41.8 -96.9
L 42.15 -92.65 47.55 -94.3 47.1 -99.15 41.8 -96.9
M 42.15 -92.65
L 41.8 -96.9 37.25 -95 36.35 -92.15 42.45 -89.1 42.15 -92.65 39.6 -91.9 42.15 -92.65
M 51.95 -95.1
L 51.35 -95.45 47.55 -94.3 47.95 -90.4 47.55 -94.3 42.15 -92.65 42.45 -89.1 47.15 -86.8 51.95 -95.1
M 47.1 -99.15
L 46.95 -102.9 41.05 -106.15 41.8 -96.9 47.1 -99.15 Z"/>

<path fill="url(#Gradient_1)" stroke="none" d="
M 47.45 -154.35
L 44.35 -149.2 38 -146.75 39.45 -136.95 43.75 -135.1 45.65 -121.3 40.85 -106.25 41.05 -106.15 46.95 -102.9 54.2 -98.9 73.85 -132.75 70.3 -147.25 69.65 -147.3 68.3 -136.05 63.15 -123.15 68.3 -136.05 69.65 -147.3 69.95 -147.6
Q 59.65 -158 59.6 -157.95
L 58.3 -157.25 61.85 -142.95 60 -136.7 61.85 -142.95 58.3 -157.25 58.2 -157.55 50.25 -155.2 54 -143.9 52.9 -128.45 54 -143.9 50.25 -155.2 47.45 -154.35
M 41.5 -147.55
L 45.2 -138.9 41.5 -147.55
M 45.2 -149.6
L 50.05 -143 45.2 -149.6 Z"/>
</g>

<g id="broom_0_Layer0_0_FILL">
<path fill="#65483D" stroke="none" d="
M 40.15 -77.4
Q 36.35 -77.6 33.5 -80.05
L -18.3 31.5
Q -16.95 36 -11.8 34.5
L 40.15 -77.4 Z"/>

<path fill="#4A352D" stroke="none" d="
M 42.25 -76.55
L 45.2 -82.9
Q 37.7 -83.8 34.15 -88.4
L 31.2 -81 33.5 -80.05
Q 36.35 -77.6 40.15 -77.4
L 42.25 -76.55 Z"/>
</g>

<g id="arm_suit_broom_0_Layer0_0_FILL">
<path fill="#41A541" stroke="none" d="
M -7.5 -30
Q -9.25 -30.05 -10.8 -30.45 -11.05 -30.2 -11.25 -30.05 -11.25 -26.75 -12.15 -23.55 -13.2 -20.3 -15.3 -17.3 -11.35 -14.4 -8.35 -13.85 -11.35 -14.4 -15.3 -17.3 -17 -14.75 -19.4 -12.4
L -19.4 -12.3 -19.45 -12.3
Q -21.9 -9.9 -25.15 -7.6 -24.95 -7.4 -24.6 -7.3 -16.05 -3.4 -11.75 -6.95 -11.5 -7.6 -11.2 -8.2 -10.75 -9 -10.3 -9.8 -8.25 -11.35 -7.3 -12.95 -7.2 -13.15 -7.1 -13.3 -6.65 -14.35 -6.55 -15.35 -4.85 -17.3 -3.15 -18.65 -3.05 -19.45 -3 -20.25 -2.75 -27.05 -7.5 -30
M -18.75 -11.6
Q -16.15 -9.8 -13 -9.25 -16.15 -9.8 -18.75 -11.6
M -11.25 -23.3
Q -8.65 -20.9 -5.05 -20.2 -8.65 -20.9 -11.25 -23.3 Z"/>

<path fill="#A6CE39" stroke="none" d="
M -10.8 -30.45
Q -11.3 -30.55 -11.75 -30.7
L -11.25 -30.05
Q -11.05 -30.2 -10.8 -30.45 Z"/>

<path fill="#62C061" stroke="none" d="
M -11.75 -30.7
Q -12.15 -31.2 -13.75 -32.3
L -12.7 -31.75
Q -15.1 -33.7 -18.2 -32.95 -25.2 -27.2 -25.05 -22.75 -27.4 -17.8 -27.7 -13.6 -27.95 -9.15 -25.15 -7.6 -21.9 -9.9 -19.45 -12.3
L -19.4 -12.3 -19.4 -12.4
Q -17 -14.75 -15.3 -17.3 -16.1 -17.7 -16.85 -18.3 -16.1 -17.7 -15.3 -17.3 -13.2 -20.3 -12.15 -23.55 -11.25 -26.75 -11.25 -30.05
L -11.75 -30.7 Z"/>
</g>

<g id="Duplicate_Items_Folder_head_copy_5_7_Layer8_0_FILL">
<path fill="#000000" stroke="none" d="
M 3.8 -92.35
L 14.2 -94.3
Q -21.15 -101.25 -56.65 -99
L -57.3 -99.05 -62.7 -81.7 3.8 -92.35
M 22.1 -102.95
L 22.9 -103.25 -14.65 -196.75 -20.9 -197.6 -51.65 -104.5 -51.05 -104
Q -13.4 -112.75 22.1 -102.95 Z"/>

<path fill="#1E1E1E" stroke="none" d="
M 23.05 -102.9
L 22.9 -103.25 22.1 -102.95
Q -13.4 -112.75 -51.05 -104
L -51.65 -104.5 -56.45 -101.85 -56.65 -99
Q -21.15 -101.25 14.2 -94.3
L 3.8 -92.35 29.2 -95.4 3.8 -92.35 -62.7 -81.7 -64.95 -74.45 -64.45 -73.95 -12.15 -66.8 40.95 -72.65 27.4 -101.25 23.05 -102.9 Z"/>
</g>

<g id="Duplicate_Items_Folder_head_copy_5_7_Layer7_0_FILL">
<path fill="#000000" stroke="none" d="
M 59.15 -54.15
Q 91.45 -67.6 91.5 -70.35 91.55 -73.15 59.35 -68.45 27.15 -63.75 -14.1 -61.15 -55.35 -58.55 -85.15 -60.8 -115 -63.1 -117.05 -58.15 -119.15 -53.25 -87.85 -48.1 -56.6 -42.95 -14.85 -41.85 26.85 -40.75 59.15 -54.15 Z"/>
</g>

<g id="Duplicate_Items_Folder_head_copy_5_7_Layer6_0_FILL">
<path fill="#000000" stroke="none" d="
M -49.1 -67.2
Q -66.25 -60.6 -69.1 -51.25
L -68.85 -51.15
Q -70.05 -45.1 -62.25 -23.65 -62.1 -23.25 -61.95 -22.9 -54.4 -1.95 -44.3 13.05
L -42.95 12.65
Q -47.6 -5.85 -48.3 -23.05 -49.25 -45.3 -43.55 -65.45 -43 -67.45 -42.35 -69.45 -46.15 -68.35 -49.1 -67.2
M 24.95 -67.05
L 24 -63.7
Q 30.15 -44.6 30.8 -24 31.4 -5.3 27.45 14.7
L 27.75 14.75
Q 37.4 -0.45 44.3 -21.9 44.65 -23.05 45.05 -24.15 51.1 -43.75 49.8 -49.45
L 50 -49.55
Q 46.75 -58.95 29.35 -65.55 27.35 -66.3 24.95 -67.05 Z"/>

<path fill="#44AB43" stroke="none" d="
M 18.5 31.3
Q 21.4 26.35 24.5 21.05
L 3.85 -2.4 -10.05 5.25 -21.15 -5.6 -38.5 21.6
Q -36.25 24.95 -34 28.2 -5.75 7.25 18.5 31.3 Z"/>

<path fill="#62C061" stroke="none" d="
M 11.7 42.85
Q 14.95 37.35 18.5 31.3 -5.75 7.25 -34 28.2 -29.25 35.2 -24.7 41.85 -16.35 53.9 -10.05 55.4 -7.45 56 -2.4 56.45
L -2.35 56.45
Q -2.3 56.45 -2.2 56.45 -1.95 56.3 -1.65 56.25 4.95 54.6 11.7 42.85
M 27.25 15.6
Q 27.35 15.1 27.45 14.7 31.4 -5.3 30.8 -24 -7.7 -42.15 -48.3 -23.05 -47.6 -5.85 -42.95 12.65 -42.4 14.6 -41.9 16.55
L -41.85 16.6
Q -40.2 19.1 -38.5 21.6
L -21.15 -5.6 -10.05 5.25 3.85 -2.4 24.5 21.05
Q 24.75 20.6 25 20.2 26 18.45 27 16.75 27.15 16.1 27.25 15.6 Z"/>

<path fill="#41A541" stroke="none" d="
M 24 -63.7
Q 23.35 -65.8 22.6 -67.75 14.4 -70.15 -8.05 -68.65 -8.1 -68.65 -8.15 -68.65 -9.85 -68.6 -11.55 -68.4 -9.85 -68.6 -8.15 -68.65
L -8.3 -70.15
Q -33.75 -72.1 -42.35 -69.45 -43 -67.45 -43.55 -65.45 -49.25 -45.3 -48.3 -23.05 -7.7 -42.15 30.8 -24 30.15 -44.6 24 -63.7 Z"/>
</g>

<g id="Duplicate_Items_Folder_head_copy_5_7_Layer5_0_FILL">
<path fill="#FF0000" stroke="none" d="
M -11.7 23.65
L -2.65 24.2 7.7 19.3
Q 0.5 20.1 -8.6 19.35 -20.75 18.35 -22.3 16.6
L -23.05 16.75
Q -22.75 17.2 -22.45 17.65 -21.75 18.7 -20.95 19.75
L -11.7 23.65 Z"/>

<path fill="#FFFFFF" stroke="none" d="
M 7.7 19.3
L 7.75 19.25 7.85 18.85 -0.85 15.95 -7.85 16.25 -15 15.1
Q -18.85 15.4 -22.3 16.6 -20.75 18.35 -8.6 19.35 0.5 20.1 7.7 19.3 Z"/>

<path fill="#BAD4B4" stroke="none" d="
M 7.95 19.5
L 7.7 19.3 -2.65 24.2 -11.7 23.65 -20.95 19.75
Q -17.3 24.5 -12 28 -8.35 28.9 -4.7 28.45 3.15 24.55 7.95 19.5
M 8.35 19.05
Q 8.65 18.7 8.9 18.4 5.4 14.35 -0.85 12.45 -5.2 12.4 -8.1 14.8 -13.85 11.55 -17 11.95 -20.2 12.3 -23.5 15.15
L -23.85 15.35
Q -23.45 16.05 -23.05 16.75
L -22.3 16.6
Q -18.85 15.4 -15 15.1
L -7.85 16.25 -0.85 15.95 7.85 18.85 8.35 19.05 Z"/>
</g>

<g id="Duplicate_Items_Folder_head_copy_5_7_Layer3_0_FILL">
<path fill="#86CF85" stroke="none" d="
M -9.8 6.45
Q -9.65 6.6 -9.5 6.75 -9.55 6.65 -9.95 6.25 -9.9 6.35 -9.8 6.45
M -8.9 -4.95
Q -10.4 -4.95 -11.55 -3.45 -12.7 -1.85 -12.75 0.45 -12.75 1.55 -11.5 3.8 -11.45 3.85 -11.4 3.9 -11.35 4.05 -11.25 4.15 -10.95 4.7 -10.55 5.35 -9 6.25 -8.95 6.25 -8.4 6.3 -7.9 6.15 -7.4 5.95 -6.9 5.55
L -2.55 1.85 -6.2 4.75
Q -5.05 3.15 -5 0.85 -5 -1.45 -6.1 -3.15 -7.2 -4.85 -8.8 -4.95 -8.85 -4.95 -8.9 -4.95 Z"/>

<path fill="#6DC66C" stroke="none" d="
M -11.25 4.15
Q -11.35 4.05 -11.4 3.9
L -11.8 3.65
Q -11.55 3.9 -11.25 4.15
M -8.6 -31.95
L -11.2 -31.2 -8.9 -4.95
Q -8.85 -4.95 -8.8 -4.95 -7.2 -4.85 -6.1 -3.15 -5 -1.45 -5 0.85 -5.05 3.15 -6.2 4.75
L -2.55 1.85 1.75 -3.95 -8.6 -31.95 Z"/>

<path fill="#49B748" stroke="none" d="
M -11.2 -31.2
L -12.65 -30.8 -13.1 -30.35 -19.75 -4.25
Q -13.25 6.55 -9.5 6.95 -9.65 6.75 -9.8 6.55 -10.05 6.35 -10.3 6.15
L -9.95 6.4 -10 6.35 -12.35 4.35
Q -12.7 4.1 -13 3.9 -12.8 4 -12.6 4.15
L -13 3.8 -12.45 4.25
Q -11.9 4.55 -11.4 4.85 -12.5 3.8 -14.1 2.3 -12.15 4.05 -11.05 5.05 -10.8 5.2 -10.55 5.35 -10.95 4.7 -11.25 4.15 -11.55 3.9 -11.8 3.65
L -11.4 3.9
Q -11.45 3.85 -11.5 3.8 -12.75 1.55 -12.75 0.45 -12.7 -1.85 -11.55 -3.45 -10.4 -4.95 -8.9 -4.95
L -11.2 -31.2 Z"/>
</g>

<g id="eye_blink_14_Layer3_0_FILL">
<path fill="url(#Gradient_2)" stroke="none" d="
M 49.15 48.65
Q 49.8 47.75 49.65 47.75 48.55 49 46.85 50.3 46.6888671875 50.4611328125 46.5 50.6 46.2685546875 50.8814453125 46 51.15 45.6 51.6 45.2 51.9 45.12265625 51.7841796875 45.85 47.1 46.104296875 45.7240234375 46.4 43.95
L 45.9 45.25
Q 45.4513671875 46.2408203125 44.95 47 41.873828125 52.1478515625 37.5 48.9 32.05 44.85 24 51.05 16 57.2 9.55 51.5 5.3 46.6 4.8 42.4 4.5 38.2 5.45 33.35 4.8 29 4.05 27.25 3.65 27.6 3.25 28.1 -1.95390625 33.54921875 -0.05 30.9 -0.16875 31.06875 -0.4 31.3 -1.3923828125 32.20234375 -2.2 33.35 -2.990625 34.540234375 -3.6 36 -4.915625 39.2982421875 -5.05 43.95 -5.35 52.6 -2.2 56.95 1 61.4 8.05 68.3
L 22.4 71.4
Q 32.95 70.95 38.3 66.35 44.35 63.7 51.05 53.15 57.5 42.8 54.6 37.6 54.1755859375 38.9505859375 53.55 40.55 53.35546875 41.009375 53.15 41.5 52.4 45.9 49.6 48.2 49.4 48.5 49.15 48.65 Z"/>

<path fill="url(#Gradient_3)" stroke="none" d="
M 44.45 45.65
Q 44.6798828125 46.624609375 44.95 47 45.4513671875 46.2408203125 45.9 45.25
L 46.4 43.95
Q 46.104296875 45.7240234375 45.85 47.1 46.3744140625 46.641015625 46.95 45.2
L 47.45 43.9
Q 46.7578125 48.7171875 46.5 50.6 46.6888671875 50.4611328125 46.85 50.3 48.55 49 49.65 47.75 49.8 47.75 49.15 48.65 49.4 48.5 49.6 48.2 52.4 45.9 53.15 41.5 53.35546875 41.009375 53.55 40.55 53.76328125 38.3974609375 53.6 35.8 53 27.1 49.6 22.35 46.05 17.65 38.65 10
L 24.55 5.5
Q 14.5 5.05 9.8 9.25 4.2 11.35 -1.2 21.5 -6.0298828125 30.6076171875 -3.6 36 -2.990625 34.540234375 -2.2 33.35 -1.6115234375 31.550390625 -0.8 29.45 1 25 9.05 21.3 17.15 17.55 24.55 17.7 31.9 17.9 38.8 26.85 43.4 32.2 44.25 36.5 44.95 40.75 44.45 45.65 Z"/>
</g>

<g id="eye_blink_14_Layer2_0_FILL">
<path fill="#333333" stroke="none" d="
M 8.45 49.7
Q 8.65 49.85 8.8 49.65 8.4 49.5 7.9 49.25 8.2 49.5 8.45 49.7
M 8.8 49.65
Q 8.65 49.85 8.45 49.7 9.1 50.5 9.9 51.2
L 9.95 51.05 9.4 50
Q 9.1 49.9 8.8 49.65 Z"/>

<path fill="#EDECE7" stroke="none" d="
M 9.65 50.05
Q 9.65 50.1953125 9.75 50.25 9.75 50.3 9.8 50.3
L 9.9 50.35 10.05 50.3
Q 9.85 50.2 9.65 50.05
M 9.55 49.9
Q 9.6 50 9.65 50.05 9.85 50.2 10.05 50.3
L 10.1 50.25 10.2 50.3
Q 9.65 49.65 9.05 49.1 9.3 49.5 9.55 49.9
M 54.55 36.2
L 54.55 36.1
Q 44.15 27.35 32.65 23.35 22.35 19.6 8.5 24.5 4.05 28.6 3.6 32.05 3.15 35.45 4.1 39.5 6.95 45.1 9.05 49.1 9.65 49.65 10.2 50.3
L 10.4 50.25
Q 19.05 52.2 26.3 52.15 41.5 52 50.8 42.45 52.75 40.35 54.5 37.8
L 54.25 36.65
Q 54.4 36.45 54.55 36.2 Z"/>

<path fill="#C3C2AF" stroke="none" d="
M 9.75 50.25
Q 9.65 50.1953125 9.65 50.05 9.3 49.8 8.9 49.55 8.9 49.7 8.8 49.65 9.1 49.9 9.4 50 9.54765625 50.14765625 9.75 50.25
M 7.7 48.95
Q 7.75 49.1 7.8 49.2 7.9 49.2 7.9 49.25 8.4 49.5 8.8 49.65 8.9 49.7 8.9 49.55 8.1 49.15 7.7 48.95
M 2.7 44.45
L 3.6 45.2
Q 6.3 47.45 7.25 48.45 7.35 48.6 7.4 48.65 7.65 48.85 7.7 48.95 8.1 49.15 8.9 49.55 8.95 49.5 8.95 49.45 9 49.3 9.05 49.1 6.95 45.1 4.1 39.5 3.45 43.05 2.7 44.45 Z"/>

<path fill="#000000" stroke="none" d="
M 10.4 50.25
L 10.2 53
Q 18.4 53.6 26.3 52.15 19.05 52.2 10.4 50.25
M 54.75 39.25
L 54.8 39.65 54.85 39.65 54.75 39.25
M 54.5 37.8
Q 52.75 40.35 50.8 42.45 52.8 41.15 54.8 39.65
L 54.75 39.25 54.5 37.8
M 54.7 35.95
Q 53.85 33.4 51.55 29.6 49.25 25.85 41 21 32.65 16.1 23.95 16.85 15.05 17.7 8.5 24.5 22.35 19.6 32.65 23.35 44.15 27.35 54.55 36.1 54.6 36.05 54.7 36
L 54.7 35.95 Z"/>

<path fill="url(#Gradient_4)" stroke="none" d="
M 9.05 49.1
Q 9 49.3 8.95 49.45 9.35 49.65 9.55 49.9 9.3 49.5 9.05 49.1
M 7.8 49.2
Q 7.75 49.1 7.7 48.95 6.7 48.4 7.8 49.2 Z"/>
</g>

<g id="eye_blink_14_Layer1_0_FILL">
<path fill="#000000" stroke="none" d="
M 18.7 33
Q 15.2 37.85 15.45 44.5 15.4 48.35 17.85 54
L 37.2 51.55
Q 39.05 47.7 39.05 42.75 38.9 36 35.5 31.8 32 27.45 27.05 27.9 22.15 28.3 18.7 33
M 19.95 39.55
Q 19.64609375 39.094140625 19.45 38.55 19.324609375 38.0673828125 19.3 37.5 19.3 36.25 19.85 35.3 20.45 34.35 21.2 34.35 21.71640625 34.35 22.05 34.6 22.358203125 34.78046875 22.55 35.1 22.9 35.65 23.1 36.35 23.2 36.75 23.2 37.15 23.15 38.4 22.65 39.25 22.25 39.95 21.75 40.15 21.55 40.2 21.3 40.2 20.5 40.25 19.95 39.55 Z"/>

<path fill="#FFFFFF" stroke="none" d="
M 19.45 38.55
Q 19.64609375 39.094140625 19.95 39.55 20.5 40.25 21.3 40.2 21.55 40.2 21.75 40.15 22.25 39.95 22.65 39.25 23.15 38.4 23.2 37.15 23.2 36.75 23.1 36.35 22.9 35.65 22.55 35.1 22.358203125 34.78046875 22.05 34.6 21.71640625 34.35 21.2 34.35 20.45 34.35 19.85 35.3 19.3 36.25 19.3 37.5 19.324609375 38.0673828125 19.45 38.55 Z"/>
</g>

<g id="Duplicate_Items_Folder_head_copy_5_7_Layer1_0_FILL">
<path fill="#000000" stroke="none" d="
M -44.3 -40.75
L -44.2 -40.7
Q -45 -39.95 -45.6 -39.3
L -43.55 -39.1
Q -38.55 -42.7 -35.85 -43.05 -32.95 -43.45 -32.55 -43.35 -31.35 -43.3 -31.2 -43.3 -29.75 -42.95 -28.55 -42.5 -28.05 -42.55 -25.35 -41.15 -22.9 -39.85 -18.85 -34.45
L -18.7 -37.3
Q -20.65 -40.6 -23.5 -44.2
L -26.4 -47.8
Q -27.4 -48.85 -28.4 -49.35 -28.9 -49.8 -29.55 -49.85 -31.2 -50.15 -33.2 -49.15
L -36.85 -46.65
Q -41.3 -43.6 -44.3 -40.75
M 23 -34.45
L 25.1 -34.4
Q 24.55 -35.15 23.85 -36
L 23.95 -36.05
Q 21.25 -39.15 17.2 -42.7
L 13.85 -45.55
Q 11.95 -46.8 10.3 -46.7 9.6 -46.7 9.05 -46.3 8.05 -45.95 6.95 -45
L 3.65 -41.75
Q 0.45 -38.4 -1.85 -35.4
L -2.05 -32.55
Q 2.6 -37.45 5.15 -38.5 8 -39.55 8.45 -39.5 9.7 -39.75 11.25 -40 11.4 -40.05 12.55 -39.9 12.95 -39.95 15.8 -39.2 18.45 -38.6 23 -34.45 Z"/>
</g>

<g id="Duplicate_Items_Folder_head_copy_5_7_Layer0_0_FILL">
<path fill="#333333" stroke="none" d="
M -22.85 -52.7
Q -21.95 -52.75 -21.05 -52.75
L -21.5 -52.85 -22.85 -52.7 Z"/>

<path fill="#444444" stroke="none" d="
M 86.6 -70.35
Q 90.05 -72 37.2 -75.9 10.75 -77.85 -16.3 -79.55
L -16.35 -79.55 -16.75 -79.5 -55.7 -76.55 -61.1 -76.15
Q -61.55 -76.1 -62.05 -76.05 -63.5 -75.95 -64.9 -75.75 -91.3 -72.6 -113.1 -60.35
L -112.75 -59.7
Q -110.2 -60.65 -105.85 -61.5 -97.15 -63.25 -88.15 -62.75 -80.25 -62.3 -54.9 -57.1 -30.25 -52.05 -21.5 -52.85
L -21.05 -52.75
Q 6.45 -53.85 44.15 -61.2 83.1 -68.75 86.6 -70.35 Z"/>
</g>

<g id="Duplicate_Items_Folder_arm_suit_copy_2_0_Layer2_0_FILL">
<path fill="#000000" stroke="none" d="
M 6 -27.3
L 5.9 -26.6 10.6 -26.45 5.9 -26.6 4.6 -13.2 10.75 -12.85 11.9 -14.4 10.75 -12.85 12.1 -13.7 17.85 -24.35 18.2 -24.85 8.8 -30.75 8.1 -31 6 -27.3
M 5.9 -26.6
L 5.6 -26.6 -6.5 -28.25 -8.4 -13.85 4.6 -13.2 5.9 -26.6
M 5.6 -26.6
L 5.9 -26.6 6 -27.3 5.6 -26.6 Z"/>

<path fill="#1E1E1E" stroke="none" d="
M 28.1 -30.75
L 30.5 -36.95 7.15 -39.2 6.7 -34.9 8 -31.8 8.1 -31 8.8 -30.75 18.2 -24.85 18.45 -24.7 28.1 -30.75
M 26.85 -61.8
L 26.6 -61.3
Q 23.6 -59.55 20.25 -57.7 13.55 -54.1 11.8 -53.8
L 11.95 -53.35
Q 9.45 -52.85 7.05 -50 4.5 -47.05 4.45 -44 4.3 -41.4 6.15 -36.35
L 6.7 -34.9 7.15 -39.2 30.5 -36.95 38.05 -56.25 37.8 -56.75 26.85 -61.8 Z"/>
</g>

<g id="Duplicate_Items_Folder_arm_suit_copy_2_0_Layer1_0_FILL">
<path fill="#358635" stroke="none" d="
M -7.35 -27.65
Q -7.314453125 -29.3896484375 -8.15 -31.4 -8.043359375 -30.080078125 -7.35 -27.65 Z"/>

<path fill="#3F9E3F" stroke="none" d="
M -15.8 -26
Q -15.8357421875 -25.9876953125 -15.9 -26 -16.8912109375 -24.0390625 -18 -24.25 -17.88046875 -24.230859375 -17.7 -24.25
L -18.25 -24.3
Q -18.4423828125 -24.3931640625 -18.65 -24.55 -19.0587890625 -23.0322265625 -19.15 -22.15 -19.4 -19.3 -17.2 -17.1 -14.9501953125 -14.8509765625 -10.2 -16.1 -5.4009765625 -17.2966796875 -3.25 -18.45 -1.0912109375 -19.6056640625 -1.25 -23.4 -1.420703125 -27.14375 -5.55 -31.4 -8.3728515625 -34.323046875 -8.15 -31.4 -7.314453125 -29.3896484375 -7.35 -27.65 -8.175390625 -27.4822265625 -9.5 -27.15 -10.820703125 -26.820703125 -11.75 -24.8 -12.15078125 -25.795703125 -12.55 -26.5
L -12.55 -26.45
Q -14.2 -26.5 -15.8 -26 Z"/>

<path fill="#62C061" stroke="none" d="
M -15.9 -26
Q -15.8357421875 -25.9876953125 -15.8 -26 -14.2 -26.5 -12.55 -26.45
L -16.6 -33.9
Q -21.5 -33.55 -21.4 -30.9
L -21.45 -30.4 -18.25 -24.3 -17.7 -24.25
Q -17.88046875 -24.230859375 -18 -24.25 -16.8912109375 -24.0390625 -15.9 -26
M -16.3 -34.5
L -16.6 -33.9 -12.55 -26.45 -12.55 -26.5
Q -11.690625 -28.20234375 -10.55 -28.5 -9.35 -28.8 -8.6 -28.95 -8.0439453125 -31.0072265625 -9.3 -32.2 -10.2 -34.15 -12 -36.35 -14.85 -37.75 -16.3 -34.5
M -10.35 -35.75
L -10.3 -35.75 -10.65 -35.9
Q -10.5408203125 -35.8541015625 -10.45 -35.8 -10.4 -35.8 -10.35 -35.75
M 5.75 -24.95
Q 5.6251953125 -24.916015625 5.5 -24.9 3.6818359375 -24.769921875 1.75 -24.55 -3.7982421875 -35.796484375 -7.25 -46
L -8.55 -48.8
Q -11.438671875 -52.8658203125 -14 -50.25
L -10.2 -35.7
Q -10.235546875 -35.735546875 -10.3 -35.75
L -10.35 -35.75
Q -10.4 -35.8 -10.45 -35.8 -10.5408203125 -35.8541015625 -10.65 -35.9 -10.8841796875 -36.0490234375 -11.15 -36.2 -9.0818359375 -33.6181640625 -8.15 -31.4 -8.3728515625 -34.323046875 -5.55 -31.4 -1.420703125 -27.14375 -1.25 -23.4 -1.0912109375 -19.6056640625 -3.25 -18.45 -5.4009765625 -17.2966796875 -10.2 -16.1 -14.9501953125 -14.8509765625 -17.2 -17.1 -19.4 -19.3 -19.15 -22.15 -19.0587890625 -23.0322265625 -18.65 -24.55
L -21.6 -29.3 -21.55 -29.9
Q -24.8 -30.6 -25.05 -26.35
L -23.45 -21.65
Q -19.603125 -17.8564453125 -19.75 -15.9
L -18.8 -14.25
Q -18.5 -13.9 -18.2 -13.5 -17.75 -12.95 -17.25 -12.4 -15 -9.85 -12.95 -9.1 -10.55 -6.7 -2.6 -10.2 1.15 -14.5 2.6 -14.95 3.4859375 -15.186328125 4.85 -15.85
L 4.95 -16.7 4.9 -15.85
Q 5.6 -16.3 6.5 -16.95 8.7 -18.6 11.6 -18.1 14.45 -17.65 17.2 -20.25 18.55 -21.5 18.55 -23
L 14.95 -24.6 15.55 -24.5
Q 11.295703125 -25.4291015625 5.75 -24.95 Z"/>
</g>

<g id="Duplicate_Items_Folder_arm_suit_copy_2_0_Layer0_0_FILL">
<path fill="#ABDDAA" stroke="none" d="
M -17.75 -20.65
L -19.85 -23.45
Q -21.75 -23.3 -22.15 -21.6
L -20 -18.85
Q -18.25 -18.95 -17.75 -20.65
M -8.35 -29.45
Q -11.5 -29.55 -12.7 -26.95
L -9.85 -21.75
Q -6.85 -21.45 -5.4 -24.1
L -8.35 -29.45
M -14.65 -27.5
Q -17.45 -27.75 -18.4 -25.4
L -15.8 -21
Q -13.2 -20.75 -12.05 -23.05
L -14.65 -27.5 Z"/>
</g>

<path id="Duplicate_Items_Folder_body_suit_copy_2_0_Layer0_0_1_STROKES" stroke="#000000" stroke-width="3" stroke-linejoin="round" stroke-linecap="round" fill="none" d="
M 15.55 -5.5
L 16.25 -5.45
M 4.55 -1.55
L 4.675 -0.85 12.525 -0.375 16.925 -0.125
Q 16.662109375 -0.2939453125 16.4 -0.45
L 16.4 -5.15
Q 15.4001953125 -5.342578125 15.55 -5.5
L -15.2 -7.275 -15.4 -2.05 -10.725 -1.775 -10.45 -2.45
M 15.55 -5.5
Q 24.1900390625 -14.09453125 28.525 -41.725 0.1220703125 -54.7443359375 -30.475 -44.175 -27.5884765625 -14.8193359375 -15.55 -7.3
L -15.2 -7.275
M 5.05 64.65
Q 7.673828125 73.2681640625 6.1 78.4 10.74921875 78.3697265625 16.6 78
L 19.1 43.45
Q 22.4998046875 60.5443359375 22.575 77.5 31.3986328125 76.6310546875 40.25 74.85 45.5642578125 17.4544921875 16.925 -0.125
M 16.6 78
Q 19.591796875 77.796484375 22.575 77.5
M 4.675 -0.85
Q 8.90859375 10.8232421875 8.7 21.35
M 12.525 -0.375
Q 19.89140625 6.90078125 20.6 13.85
M -10.725 -1.775
L -1.9 -1.25 4.675 -0.85
M -29.325 74.75
Q -25.8041015625 75.4681640625 -22.275 76.05
L -24 45.05
Q -29.9123046875 59.748828125 -29.325 74.75 -36.0744140625 73.340625 -42.8 71.4 -42.3470703125 9.70625 -15.4 -2.05
M -1.9 -1.25
Q -7.2671875 24.7765625 -5.55 51
M -10.725 -1.775
Q -20.1876953125 10.797265625 -22 26.75
M -22.275 76.05
Q -8.7255859375 78.2890625 6.1 78.4"/>

<path id="arm_suit_broom_0_Layer2_0_1_STROKES" stroke="#000000" stroke-width="3" stroke-linejoin="round" stroke-linecap="round" fill="none" d="
M 24.4 -55
Q 21.4 -53.25 18.05 -51.4 11.35 -47.8 9.6 -47.5
M 9.75 -47.05
Q 7.25 -46.55 4.85 -43.7 2.3 -40.75 2.25 -37.7 2.1 -35.1 3.95 -30.05
L 5.8 -25.5
M 6.6 -24.45
L 16 -18.55 16.25 -18.4 25.9 -24.45 35.85 -49.95
M 35.6 -50.45
L 24.65 -55.5
M 15.65 -18.05
L 16.25 -18.4
M 5.9 -24.7
L 3.4 -20.3 8.4 -20.15
M 8.55 -6.55
L 9.7 -8.1
M 9.9 -7.4
L 15.65 -18.05
M 3.4 -20.3
L -8.7 -21.95 -10.6 -7.55 8.55 -6.55"/>

<path id="broom_0_Layer1_0_1_STROKES" stroke="#000000" stroke-width="2" stroke-linejoin="round" stroke-linecap="round" fill="none" d="
M 50.25 -155.2
L 47.45 -154.35 44.35 -149.2 38 -146.75 39.45 -136.95 43.75 -135.1 45.65 -121.3 40.85 -106.25 41.05 -106.15 46.95 -102.9 54.2 -98.9 73.85 -132.75 70.3 -147.25
M 50.25 -155.2
L 58.2 -157.55 59.6 -157.95
Q 59.65 -158 69.95 -147.6 70.1 -147.45 70.3 -147.25
M 48.9 -99.95
L 47.1 -99.15 46.95 -102.9
M 40.85 -106.25
L 40.15 -106.65
M 54.2 -98.9
L 51.95 -95.1
M 39.6 -91.9
L 42.15 -92.65 41.8 -96.9 37.25 -95 36.35 -92.15 42.45 -89.1 42.15 -92.65 47.55 -94.3 47.1 -99.15 41.8 -96.9 41.05 -106.15
M 47.95 -90.4
L 47.55 -94.3 51.35 -95.45
M 42.45 -89.1
L 47.15 -86.8 51.95 -95.1
M 47.15 -86.8
L 43.9 -81.25 34.45 -86.15 36.35 -92.15
M 37.25 -95
L 40.85 -106.25"/>

<path id="broom_0_Layer1_0_2_STROKES" stroke="#9C6D27" stroke-width="2" stroke-linejoin="round" stroke-linecap="round" fill="none" d="
M 69.65 -147.3
L 68.3 -136.05 63.15 -123.15
M 50.25 -155.2
L 54 -143.9 52.9 -128.45
M 41.5 -147.55
L 45.2 -138.9
M 58.3 -157.25
L 61.85 -142.95 60 -136.7
M 45.2 -149.6
L 50.05 -143"/>

<path id="broom_0_Layer0_0_1_STROKES" stroke="#000000" stroke-width="2" stroke-linejoin="round" stroke-linecap="round" fill="none" d="
M 33.5 -80.05
L 31.2 -81 34.15 -88.4
Q 37.7 -83.8 45.2 -82.9
L 42.25 -76.55 40.15 -77.4 -11.8 34.5
Q -16.95 36 -18.3 31.5
L 33.5 -80.05
Q 36.35 -77.6 40.15 -77.4"/>

<path id="arm_suit_broom_0_Layer0_0_1_STROKES" stroke="#000000" stroke-width="2.5" stroke-linejoin="round" stroke-linecap="round" fill="none" d="
M -11.75 -30.7
Q -12.15 -31.2 -13.75 -32.3
M -12.7 -31.75
Q -15.1 -33.7 -18.2 -32.95 -25.2 -27.2 -25.05 -22.75 -27.4 -17.8 -27.7 -13.6 -27.95 -9.15 -25.15 -7.6
M -11.75 -30.7
Q -11.3 -30.55 -10.8 -30.45 -9.25 -30.05 -7.5 -30 -2.75 -27.05 -3 -20.25 -3.05 -19.45 -3.15 -18.65 -4.85 -17.3 -6.55 -15.35 -6.65 -14.35 -7.1 -13.3 -7.2 -13.15 -7.3 -12.95 -8.25 -11.35 -10.3 -9.8 -10.75 -9 -11.2 -8.2 -11.5 -7.6 -11.75 -6.95 -16.05 -3.4 -24.6 -7.3 -24.95 -7.4 -25.15 -7.6"/>

<path id="arm_suit_broom_0_Layer0_0_2_STROKES" stroke="#000000" stroke-width="1.25" stroke-linejoin="round" stroke-linecap="round" fill="none" d="
M -12.7 -31.75
L -13.75 -32.3"/>

<path id="arm_suit_broom_0_Layer0_0_3_STROKES" stroke="#000000" stroke-width="2" stroke-linejoin="round" stroke-linecap="round" fill="none" d="
M -15.3 -17.3
Q -16.1 -17.7 -16.85 -18.3
M -18.75 -11.6
Q -16.15 -9.8 -13 -9.25
M -11.25 -23.3
Q -8.65 -20.9 -5.05 -20.2
M -8.35 -13.85
Q -11.35 -14.4 -15.3 -17.3"/>

<path id="Duplicate_Items_Folder_head_copy_5_7_Layer8_0_1_STROKES" stroke="#000000" stroke-width="5" stroke-linejoin="round" stroke-linecap="round" fill="none" d="
M -64.45 -73.95
L -12.15 -66.8 40.95 -72.65 27.4 -101.25 23.05 -102.9 22.9 -103.25
M 22.1 -102.95
Q -13.4 -112.75 -51.05 -104
M -51.65 -104.5
L -56.45 -101.85
M 3.8 -92.35
L 29.2 -95.4
M 22.9 -103.25
L -14.65 -196.75 -20.9 -197.6 -51.65 -104.5
M -56.45 -101.85
L -57.3 -99.05 -56.65 -99
M -64.95 -74.45
L -62.7 -81.7 -57.3 -99.05"/>

<path id="Duplicate_Items_Folder_head_copy_5_7_Layer7_0_1_STROKES" stroke="#000000" stroke-width="5" stroke-linejoin="round" stroke-linecap="round" fill="none" d="
M 59.15 -54.15
Q 26.85 -40.75 -14.85 -41.85 -56.6 -42.95 -87.85 -48.1 -119.15 -53.25 -117.05 -58.15 -115 -63.1 -85.15 -60.8 -55.35 -58.55 -14.1 -61.15 27.15 -63.75 59.35 -68.45 91.55 -73.15 91.5 -70.35 91.45 -67.6 59.15 -54.15 Z"/>

<path id="Duplicate_Items_Folder_head_copy_5_7_Layer6_0_1_STROKES" stroke="#000000" stroke-width="5" stroke-linejoin="round" stroke-linecap="round" fill="none" d="
M 24.95 -67.05
Q 23.8 -67.4 22.6 -67.75 23.35 -65.8 24 -63.7 30.15 -44.6 30.8 -24 31.4 -5.3 27.45 14.7
M 27.75 14.75
Q 37.4 -0.45 44.3 -21.9 44.65 -23.05 45.05 -24.15 51.1 -43.75 49.8 -49.45
M 50 -49.55
Q 46.75 -58.95 29.35 -65.55 27.35 -66.3 24.95 -67.05
M 22.6 -68.3
L 22.6 -67.75
Q 14.4 -70.15 -8.05 -68.65 -8.1 -68.65 -8.15 -68.65 -9.85 -68.6 -11.55 -68.4
M 50 -49.55
L 50.05 -49.5
Q 50.35 -48.55 50.55 -47.6
M 27.45 14.7
Q 27.35 15.1 27.25 15.6 27.4 15.25 27.7 14.85 27.7 14.8 27.75 14.75
M 27.25 15.6
Q 27.15 16.1 27 16.75 26 18.45 25 20.2 24.75 20.6 24.5 21.05 21.4 26.35 18.5 31.3 14.95 37.35 11.7 42.85 4.95 54.6 -1.65 56.25 -1.95 56.3 -2.2 56.45
L -0.9 56.5
M -8.3 -70.15
Q -33.75 -72.1 -42.35 -69.45 -43 -67.45 -43.55 -65.45 -49.25 -45.3 -48.3 -23.05
M -42.35 -69.45
Q -46.15 -68.35 -49.1 -67.2 -66.25 -60.6 -69.1 -51.25
M -68.85 -51.15
Q -70.05 -45.1 -62.25 -23.65 -62.1 -23.25 -61.95 -22.9 -54.4 -1.95 -44.3 13.05
M -48.3 -23.05
Q -47.6 -5.85 -42.95 12.65
M -42.4 -70.05
L -42.35 -69.45
M -69.1 -51.25
Q -69.4 -50.3 -69.55 -49.3
M -34 28.2
Q -29.25 35.2 -24.7 41.85 -16.35 53.9 -10.05 55.4 -7.45 56 -2.4 56.45
L -2.35 56.45
Q -2.3 56.45 -2.2 56.45
M -38.5 21.6
Q -36.25 24.95 -34 28.2
M -42.95 12.65
Q -42.4 14.6 -41.9 16.55
L -41.85 16.6
Q -40.2 19.1 -38.5 21.6
M -44.3 13.05
Q -43.05 14.85 -41.9 16.55
M -2.4 56.45
Q -2.5 56.45 -2.65 56.5
L -5.5 56.45 -5.5 56.25 -2.4 56.45 Z"/>

<path id="Duplicate_Items_Folder_head_copy_5_7_Layer5_0_1_STROKES" stroke="#000000" stroke-width="2" stroke-linejoin="round" stroke-linecap="round" fill="none" d="
M -23.5 15.15
Q -20.2 12.3 -17 11.95 -13.85 11.55 -8.1 14.8 -5.2 12.4 -0.85 12.45 5.4 14.35 8.9 18.4 8.65 18.7 8.35 19.05 8.25 19.15 8.15 19.3 8.05 19.4 7.95 19.5 3.15 24.55 -4.7 28.45 -8.35 28.9 -12 28 -17.3 24.5 -20.95 19.75 -21.75 18.7 -22.45 17.65 -22.75 17.2 -23.05 16.75 -23.45 16.05 -23.85 15.35
M 8.35 19.05
L 7.85 18.85
M -20.95 19.75
L -11.7 23.65 -2.65 24.2 7.7 19.3
Q 0.5 20.1 -8.6 19.35 -20.75 18.35 -22.3 16.6
L -23.05 16.75
M 7.85 18.85
L -0.85 15.95 -7.85 16.25 -15 15.1
Q -18.85 15.4 -22.3 16.6"/>

<path id="Duplicate_Items_Folder_head_copy_5_7_Layer4_0_1_STROKES" stroke="#388C37" stroke-width="5" stroke-linejoin="round" stroke-linecap="round" fill="none" d="
M 4 -4.85
L 14.05 13.2 11.2 27.35
M -26.05 24.1
L -31.2 10.8 -22.9 -5.8
M -12.4 41.8
Q -4.45 38.15 0.2 42.5"/>

<path id="Duplicate_Items_Folder_head_copy_5_7_Layer3_0_1_STROKES" stroke="#388C37" stroke-width="5" stroke-linejoin="round" stroke-linecap="round" fill="none" d="
M -11.2 -31.2
L -12.65 -30.8
M -13.1 -30.35
L -19.75 -4.25
M -11.2 -31.2
L -8.6 -31.95 1.75 -3.95 -2.55 1.85"/>

<path id="eye_blink_14_Layer2_0_1_STROKES" stroke="#000000" stroke-width="3" stroke-linejoin="round" stroke-linecap="round" fill="none" d="
M 9.8 50.3
L 9.95 51.05 9.9 51.2"/>

<path id="eye_blink_14_Layer2_0_2_STROKES" stroke="#000000" stroke-width="6" stroke-linejoin="round" stroke-linecap="round" fill="none" d="
M 26.3 52.15
Q 41.5 52 50.8 42.45 52.75 40.35 54.5 37.8
M 26.3 52.15
Q 19.05 52.2 10.4 50.25"/>

<path id="eye_blink_14_Layer2_0_3_STROKES" stroke="#000000" stroke-width="5" stroke-linejoin="round" stroke-linecap="round" fill="none" d="
M 54.7 35.95
L 54.7 36
Q 54.6 36.05 54.55 36.1
L 54.55 36.2 54.75 39.25
M 10.4 50.25
L 10.2 50.3
Q 10.15 50.35 10.05 50.3
L 9.9 50.35 9.8 50.3
M 8.45 49.7
Q 8.2 49.5 7.9 49.25 7.9 49.2 7.8 49.2 6.7 48.4 7.7 48.95 7.65 48.85 7.4 48.65 7.75 49.1 4.75 46.7 5.8 47.7 7.35 49.15 1.9 44.9 0.2 43.15 -0.35 42.6 3.95 46.05 4.35 46.45 4.75 46.7 3.1 45.15 -0.3 42.2
L -0.925 41.675 -2.8 40.05
M 54.55 36.2
Q 54.4 36.45 54.25 36.65
M 54.75 39.25
L 54.8 39.65
M -0.925 41.675
Q 2.123046875 44.118359375 1.85 43.8
L 2.7 44.45
Q 3.45 43.05 4.1 39.5 3.15 35.45 3.6 32.05 4.05 28.6 8.5 24.5
M 2.7 44.45
L 3.6 45.2
Q 6.3 47.45 7.25 48.45 7.35 48.6 7.4 48.65 6.55 47.9 -0.3 42.2
M 7.8 49.2
Q 7.75 49.1 7.7 48.95 8.1 49.15 8.9 49.55 8.95 49.5 8.95 49.45 9 49.3 9.05 49.1
M 9.65 50.05
Q 9.3 49.8 8.9 49.55 8.9 49.7 8.8 49.65 9.1 49.9 9.4 50 9.54765625 50.14765625 9.75 50.25 9.75 50.3 9.8 50.3
M 9.65 50.05
Q 9.85 50.2 10.05 50.3
L 10.1 50.25 10.2 50.3
Q 9.65 49.65 9.05 49.1
M 8.8 49.65
Q 8.65 49.85 8.45 49.7
M 9.95 51.05
L 9.4 50
M 7.9 49.25
Q 8.4 49.5 8.8 49.65"/>

<path id="Duplicate_Items_Folder_head_copy_5_7_Layer0_0_1_STROKES" stroke="#000000" stroke-width="5" stroke-linejoin="round" stroke-linecap="round" fill="none" d="
M -21.05 -52.75
Q 6.45 -53.85 44.15 -61.2 83.1 -68.75 86.6 -70.35 90.05 -72 37.2 -75.9 10.75 -77.85 -16.3 -79.55
L -16.35 -79.55 -16.75 -79.5 -55.7 -76.55 -61.1 -76.15
Q -61.55 -76.1 -62.05 -76.05 -63.5 -75.95 -64.9 -75.75 -91.3 -72.6 -113.1 -60.35
M -112.75 -59.7
Q -110.2 -60.65 -105.85 -61.5 -97.15 -63.25 -88.15 -62.75 -80.25 -62.3 -54.9 -57.1 -30.25 -52.05 -21.5 -52.85
L -21.05 -52.75
Q -21.95 -52.75 -22.85 -52.7
M -16.75 -79.5
Q -37.5 -79.15 -55.7 -76.55"/>

<path id="Duplicate_Items_Folder_arm_suit_copy_2_0_Layer2_0_1_STROKES" stroke="#000000" stroke-width="3" stroke-linejoin="round" stroke-linecap="round" fill="none" d="
M 26.6 -61.3
Q 23.6 -59.55 20.25 -57.7 13.55 -54.1 11.8 -53.8
M 11.95 -53.35
Q 9.45 -52.85 7.05 -50 4.5 -47.05 4.45 -44 4.3 -41.4 6.15 -36.35
L 6.725 -34.9
M 30.5 -36.925
L 38.05 -56.25
M 37.8 -56.75
L 26.85 -61.8
M 18.2 -24.85
L 18.45 -24.7 28.1 -30.75 30.5 -36.925
M 5.925 -26.6
L 5.6 -26.6 6 -27.3
M 5.6 -26.6
L -6.5 -28.25 -8.4 -13.85 4.625 -13.175
M 5.925 -26.6
L 10.6 -26.45
M 6.725 -34.9
L 8 -31.8
M 8.8 -30.75
L 18.2 -24.85
M 17.85 -24.35
L 18.45 -24.7
M 8.1 -31
L 6 -27.3
M 11.9 -14.4
L 10.75 -12.85 4.625 -13.175
M 12.1 -13.7
L 17.85 -24.35"/>

<path id="Duplicate_Items_Folder_arm_suit_copy_2_0_Layer1_0_1_STROKES" stroke="#000000" stroke-width="2" stroke-linejoin="round" stroke-linecap="round" fill="none" d="
M 15.55 -24.5
Q 11.295703125 -25.4291015625 5.75 -24.925 5.6251953125 -24.916015625 5.5 -24.9 3.6818359375 -24.769921875 1.75 -24.55 -3.7982421875 -35.796484375 -7.225 -46
L -8.55 -48.775
Q -11.438671875 -52.8658203125 -14 -50.25
L -10.2 -35.7
Q -10.235546875 -35.735546875 -10.3 -35.75
L -10.35 -35.75
Q -10.4 -35.8 -10.45 -35.8 -10.5408203125 -35.8541015625 -10.625 -35.9 -10.8841796875 -36.0490234375 -11.125 -36.175
M -21.55 -29.9
Q -24.8 -30.6 -25.05 -26.35
L -23.45 -21.65
Q -19.603125 -17.8564453125 -19.75 -15.9
L -18.8 -14.25
Q -18.5 -13.9 -18.2 -13.5 -17.75 -12.95 -17.25 -12.4 -15 -9.85 -12.95 -9.1 -10.55 -6.7 -2.6 -10.2 1.15 -14.5 2.6 -14.95 3.4859375 -15.186328125 4.875 -15.85
M 4.9 -15.85
Q 5.6 -16.3 6.5 -16.95 8.7 -18.6 11.6 -18.1 14.45 -17.65 17.2 -20.25 18.55 -21.5 18.55 -23
L 14.95 -24.6
M -8.55 -48.775
L -8.7 -49.1
Q -8.7 -49.2 -8.75 -49.25 -8.8 -49.35 -8.85 -49.45
L -8.025 -48 -7.225 -46
M -8.025 -48
Q -8.2869140625 -48.41953125 -8.55 -48.775
M -8.6 -28.95
Q -8.0439453125 -31.0072265625 -9.3 -32.2 -10.2 -34.15 -12 -36.35 -14.85 -37.75 -16.3 -34.5
L -16.6 -33.9 -12.55 -26.45
M -21.4 -30.9
Q -21.5 -33.55 -16.6 -33.9
M -17.7 -24.25
L -18.225 -24.3
M -18.2 -13.5
L -18.95 -14.15 -19.75 -15.9
M -18.225 -24.3
L -21.45 -30.4"/>

<path id="Duplicate_Items_Folder_arm_suit_copy_2_0_Layer0_0_1_STROKES" stroke="#000000" stroke-width="1" stroke-linejoin="round" stroke-linecap="round" fill="none" d="
M -18.4 -25.4
L -15.8 -21
Q -13.2 -20.75 -12.05 -23.05
L -14.65 -27.5
Q -17.45 -27.75 -18.4 -25.4 Z
M -12.7 -26.95
L -9.85 -21.75
Q -6.85 -21.45 -5.4 -24.1
L -8.35 -29.45
Q -11.5 -29.55 -12.7 -26.95 Z
M -18.35 -23.75
L -18.75 -22.4
M -19.85 -23.45
Q -21.75 -23.3 -22.15 -21.6
L -20 -18.85
Q -18.25 -18.95 -17.75 -20.65
L -19.85 -23.45 Z"/>
</defs>

<g transform="matrix( 5.21484375, 0, 0, 5.21484375, 109.15,539.4) ">
<g transform="matrix( 0.31884765625, -0.0132904052734375, 0.009368896484375, 0.3184661865234375, 33.6,-26.95) ">
<g transform="matrix( 1, 0, 0, 1, 0,0) ">
<use xlink:href="#Duplicate_Items_Folder_body_suit_copy_2_0_Layer1_0_FILL"/>
</g>

<g transform="matrix( 1, 0, 0, 1, 0,0) ">
<use xlink:href="#Duplicate_Items_Folder_body_suit_copy_2_0_Layer0_0_FILL"/>

<use xlink:href="#Duplicate_Items_Folder_body_suit_copy_2_0_Layer0_0_1_STROKES"/>
</g>
</g>

<g transform="matrix( 0.266632080078125, -0.106689453125, 0.106689453125, 0.266632080078125, 21.05,-22.1) ">
<g transform="matrix( 1, 0, 0, 1, 0,0) ">
<use xlink:href="#arm_suit_broom_0_Layer2_0_FILL"/>

<use xlink:href="#arm_suit_broom_0_Layer2_0_1_STROKES"/>
</g>

<g transform="matrix( 0.999237060546875, -0.0357818603515625, 0.0357818603515625, 0.999237060546875, -29.95,15.9) ">
<g transform="matrix( 1, 0, 0, 1, 0,0) ">
<use xlink:href="#broom_0_Layer1_0_FILL"/>

<use xlink:href="#broom_0_Layer1_0_1_STROKES"/>

<use xlink:href="#broom_0_Layer1_0_2_STROKES"/>
</g>

<g transform="matrix( 1, 0, 0, 1, 0,0) ">
<use xlink:href="#broom_0_Layer0_0_FILL"/>

<use xlink:href="#broom_0_Layer0_0_1_STROKES"/>
</g>
</g>

<g transform="matrix( 1, 0, 0, 1, 0,0) ">
<use xlink:href="#arm_suit_broom_0_Layer0_0_FILL"/>

<use xlink:href="#arm_suit_broom_0_Layer0_0_1_STROKES"/>

<use xlink:href="#arm_suit_broom_0_Layer0_0_2_STROKES"/>

<use xlink:href="#arm_suit_broom_0_Layer0_0_3_STROKES"/>
</g>
</g>

<g transform="matrix( 0.260009765625, -0.0139312744140625, 0.00372314453125, 0.2601318359375, 34.55,-49.5) ">
<g transform="matrix( 1, 0, 0, 1, 0,0) ">
<use xlink:href="#Duplicate_Items_Folder_head_copy_5_7_Layer8_0_FILL"/>

<use xlink:href="#Duplicate_Items_Folder_head_copy_5_7_Layer8_0_1_STROKES"/>
</g>

<g transform="matrix( 1, 0, 0, 1, 0,0) ">
<use xlink:href="#Duplicate_Items_Folder_head_copy_5_7_Layer7_0_FILL"/>

<use xlink:href="#Duplicate_Items_Folder_head_copy_5_7_Layer7_0_1_STROKES"/>
</g>

<g transform="matrix( 1, 0, 0, 1, 0,0) ">
<use xlink:href="#Duplicate_Items_Folder_head_copy_5_7_Layer6_0_FILL"/>

<use xlink:href="#Duplicate_Items_Folder_head_copy_5_7_Layer6_0_1_STROKES"/>
</g>

<g transform="matrix( 1, 0, 0, 1, 0,0) ">
<use xlink:href="#Duplicate_Items_Folder_head_copy_5_7_Layer5_0_FILL"/>

<use xlink:href="#Duplicate_Items_Folder_head_copy_5_7_Layer5_0_1_STROKES"/>
</g>

<g transform="matrix( 1, 0, 0, 1, 0,0) ">
<use xlink:href="#Duplicate_Items_Folder_head_copy_5_7_Layer4_0_1_STROKES"/>
</g>

<g transform="matrix( 1, 0, 0, 1, 0,0) ">
<use xlink:href="#Duplicate_Items_Folder_head_copy_5_7_Layer3_0_FILL"/>

<use xlink:href="#Duplicate_Items_Folder_head_copy_5_7_Layer3_0_1_STROKES"/>
</g>

<g transform="matrix( 0.507568359375, 0.026611328125, -0.0030517578125, 0.338653564453125, -44,-40.15) ">
<g transform="matrix( 1, 0, 0, 1, 0,0) ">
<use xlink:href="#eye_blink_14_Layer3_0_FILL"/>
</g>

<g transform="matrix( 1, 0, 0, 1, 0,0) ">
<use xlink:href="#eye_blink_14_Layer2_0_FILL"/>

<use xlink:href="#eye_blink_14_Layer2_0_1_STROKES"/>

<use xlink:href="#eye_blink_14_Layer2_0_2_STROKES"/>

<use xlink:href="#eye_blink_14_Layer2_0_3_STROKES"/>
</g>

<g transform="matrix( 1, 0, 0, 1, 0,0) ">
<use xlink:href="#eye_blink_14_Layer1_0_FILL"/>
</g>
</g>

<g transform="matrix( -0.507354736328125, -0.0272674560546875, -0.032806396484375, 0.3369598388671875, 26.05,-37.4) ">
<g transform="matrix( 1, 0, 0, 1, 0,0) ">
<use xlink:href="#eye_blink_14_Layer3_0_FILL"/>
</g>

<g transform="matrix( 1, 0, 0, 1, 0,0) ">
<use xlink:href="#eye_blink_14_Layer2_0_FILL"/>

<use xlink:href="#eye_blink_14_Layer2_0_1_STROKES"/>

<use xlink:href="#eye_blink_14_Layer2_0_2_STROKES"/>

<use xlink:href="#eye_blink_14_Layer2_0_3_STROKES"/>
</g>

<g transform="matrix( 1, 0, 0, 1, 0,0) ">
<use xlink:href="#eye_blink_14_Layer1_0_FILL"/>
</g>
</g>

<g transform="matrix( 1, 0, 0, 1, 0,0) ">
<use xlink:href="#Duplicate_Items_Folder_head_copy_5_7_Layer1_0_FILL"/>
</g>

<g transform="matrix( 1, 0, 0, 1, 0,0) ">
<use xlink:href="#Duplicate_Items_Folder_head_copy_5_7_Layer0_0_FILL"/>

<use xlink:href="#Duplicate_Items_Folder_head_copy_5_7_Layer0_0_1_STROKES"/>
</g>
</g>

<g transform="matrix( -0.285614013671875, -0.02777099609375, -0.02777099609375, 0.285614013671875, 49.5,-24.1) ">
<g transform="matrix( 1, 0, 0, 1, 0,0) ">
<use xlink:href="#Duplicate_Items_Folder_arm_suit_copy_2_0_Layer2_0_FILL"/>

<use xlink:href="#Duplicate_Items_Folder_arm_suit_copy_2_0_Layer2_0_1_STROKES"/>
</g>

<g transform="matrix( 1, 0, 0, 1, 0,0) ">
<use xlink:href="#Duplicate_Items_Folder_arm_suit_copy_2_0_Layer1_0_FILL"/>

<use xlink:href="#Duplicate_Items_Folder_arm_suit_copy_2_0_Layer1_0_1_STROKES"/>
</g>

<g transform="matrix( 1, 0, 0, 1, 0,0) ">
<use xlink:href="#Duplicate_Items_Folder_arm_suit_copy_2_0_Layer0_0_FILL"/>

<use xlink:href="#Duplicate_Items_Folder_arm_suit_copy_2_0_Layer0_0_1_STROKES"/>
</g>
</g>
</g>
</svg>
