
<svg xmlns="http://www.w3.org/2000/svg" version="1.1" xmlns:xlink="http://www.w3.org/1999/xlink" preserveAspectRatio="none" x="0px" y="0px" width="560px" height="544px" viewBox="0 0 560 544">
<defs>
<radialGradient id="Gradient_1" gradientUnits="userSpaceOnUse" cx="0" cy="0" r="81.6625" fx="0" fy="0" gradientTransform="matrix( 1, 0, -0.01928669830093372, 1.0645951324047145, 27.65,0.85) " spreadMethod="pad">
<stop  offset="0%" stop-color="#CDE6F5"/>

<stop  offset="100%" stop-color="#BEDEF3"/>
</radialGradient>

<radialGradient id="Gradient_2" gradientUnits="userSpaceOnUse" cx="0" cy="0" r="81.66250000000001" fx="0" fy="0" gradientTransform="matrix( -0.9999999999999999, 0, -0.019286698300933717, 1.0645951324047145, 39.25,-0.6) " spreadMethod="pad">
<stop  offset="0%" stop-color="#CDE6F5"/>

<stop  offset="100%" stop-color="#BEDEF3"/>
</radialGradient>

<radialGradient id="Gradient_3" gradientUnits="userSpaceOnUse" cx="0" cy="0" r="81.66250000000001" fx="0" fy="0" gradientTransform="matrix( -0.9999999999999999, 0, -0.015153834379305064, 0.8308587172814939, 39.2,3.05) " spreadMethod="pad">
<stop  offset="0%" stop-color="#CDE6F5"/>

<stop  offset="100%" stop-color="#BEDEF3"/>
</radialGradient>

<radialGradient id="Gradient_4" gradientUnits="userSpaceOnUse" cx="0" cy="0" r="81.6625" fx="0" fy="0" gradientTransform="matrix( 1, 0, -0.01928669830093372, 1.0645951324047145, 27.4,13.15) " spreadMethod="pad">
<stop  offset="0%" stop-color="#CDE6F5"/>

<stop  offset="100%" stop-color="#BEDEF3"/>
</radialGradient>

<radialGradient id="Gradient_5" gradientUnits="userSpaceOnUse" cx="0" cy="0" r="81.66250000000001" fx="0" fy="0" gradientTransform="matrix( 0.9999999999999999, 0, -0.019286698300933717, 1.0645951324047145, -3.4,-0.15) " spreadMethod="pad">
<stop  offset="0%" stop-color="#CDE6F5"/>

<stop  offset="100%" stop-color="#BEDEF3"/>
</radialGradient>

<radialGradient id="Gradient_6" gradientUnits="userSpaceOnUse" cx="0" cy="0" r="52.3125" fx="0" fy="0" gradientTransform="matrix( 1, 0, 0.004301075268817204, 0.6910394265232975, -38.35,-1.05) " spreadMethod="pad">
<stop  offset="0%" stop-color="#CDE6F5"/>

<stop  offset="100%" stop-color="#BEDEF3"/>
</radialGradient>

<radialGradient id="Gradient_7" gradientUnits="userSpaceOnUse" cx="0" cy="0" r="52.31249999999999" fx="0" fy="0" gradientTransform="matrix( 1.0000000000000002, 0, 0.004301075268817205, 0.6910394265232976, 15.85,-0.75) " spreadMethod="pad">
<stop  offset="0%" stop-color="#CDE6F5"/>

<stop  offset="100%" stop-color="#BEDEF3"/>
</radialGradient>

<g id="Layer0_0_FILL">
<path fill="#F0F0F0" stroke="none" d="
M 348.25 439.7
Q 348.35 439.9 348.5 440.15 365.85 442 378.1 448.9 375.35 445.15 371.25 441.85 358.95 438.75 348.25 439.7
M 323.75 499.45
L 311.45 499.45
Q 287.85 469.7 265.7 470 241.55 470.4 219 506.3 220.25 434.65 154.3 488.3
L 141.95 481.45
Q 150.85 461.65 186.05 447 166.55 439.05 134.5 462.85 128.35 469.85 121.95 475.65 110.2 486.45 131.85 494.65 153.4 502.65 190.8 493.45 191.55 504.05 202.95 509.5 214.4 514.95 262.75 516.7 311.15 518.4 355.55 492.4 365.65 497.35 402.05 499.75 438.55 502.15 442 489.85 445.2 477.55 414.85 474.8 406.45 474 400.25 472.6 402.25 476.8 403.7 481.45
L 394.15 485.6
Q 339.65 437.4 323.75 499.45 Z"/>

<path fill="#BBC4D0" stroke="none" d="
M 168.45 521.1
Q 174.1 522.85 185 527.3 201.4 534.45 262.4 535.3 323.4 536.15 357.75 523.15 376.05 529.5 398.6 529.5 431.9 529.5 449.15 522.15 466.25 514.65 463.35 496.7 460.4 478.75 446.6 472.6 432.4 466.25 412.45 464.05 399.45 462.6 389.15 457.1 395.95 463.65 400.25 472.6 406.45 474 414.85 474.8 445.2 477.55 442 489.85 438.55 502.15 402.05 499.75 365.65 497.35 355.55 492.4 311.15 518.4 262.75 516.7 214.4 514.95 202.95 509.5 191.55 504.05 190.8 493.45 153.4 502.65 131.85 494.65 110.2 486.45 121.95 475.65 128.35 469.85 134.5 462.85 133.45 463.6 132.4 464.4 137.7 452.35 145.45 443.65 140.25 447.3 133.75 452.1 102.2 475.2 100.45 490.2 98.75 505.25 121.45 514.65 144.2 524 168.45 521.1 Z"/>

<path fill="#000000" stroke="none" d="
M 299 423.4
L 299 413.95
Q 299 408.85 295.05 405.1 291.3 401.55 284.8 398.8 277.4 394.05 270.5 392.65 259.75 390.45 250.1 396.25 244.65 401.55 240.75 405.1 237 408.85 237 413.95
L 237 423.4
Q 237 428.5 240.75 432.1 244.65 435.9 250.1 435.9 262.3 425.95 273.05 428.2 279.8 429.6 286 435.9 291.3 449 295.25 440.3 299 431.4 299 423.4 Z"/>

<path fill="#FF0000" stroke="none" d="
M 319.65 326.9
Q 314.55 321.4 308.05 319.6 304.8 318.65 301.2 318.65 290.25 318.65 282.75 326.9 275.05 334.9 275.05 346.35 275.05 357.8 282.75 366 290.25 374 301.2 374 305.75 374 309.75 372.6 315.2 370.65 319.65 366 327.15 357.8 327.15 346.35 327.15 334.9 319.65 326.9
M 293.7 334.7
L 301.55 346.15 311.65 338.3 301.55 346.15 310.1 356.95 301.55 346.15 292.15 355.6 301.55 346.15 293.7 334.7
M 232.85 325.5
Q 232.4 325.6 231.95 325.7 223.55 327.65 218.7 335.55 213.4 343.6 215.05 353.7 216.8 363.6 224.65 369.75 226.1 370.8 227.6 371.65 234 375.25 241.4 373.8 250.6 372.3 255.9 364.1 261.2 355.7 259.55 345.8 257.8 335.75 249.95 329.9 242.1 323.95 232.85 325.5
M 237.1 351.3
L 230.65 361 237.1 351.3 227.55 343.25 237.1 351.3 240.2 340.2 237.1 351.3 246.85 357.45 237.1 351.3 Z"/>

<path fill="#343D41" stroke="none" d="
M 224.65 247.25
L 223.15 247.95
Q 234.65 271.7 231.95 325.7 232.4 325.6 232.85 325.5 242.1 323.95 249.95 329.9 257.8 335.75 259.55 345.8 261.2 355.7 255.9 364.1 250.6 372.3 241.4 373.8 234 375.25 227.6 371.65 223.15 402.15 215.05 422.7 215.6 422.7 216.1 422.7 215.6 422.7 215.05 422.7 213.05 427.5 210.8 431.95 213.05 427.5 215.05 422.7 168.85 417.6 145.45 443.65 137.7 452.35 132.4 464.4 133.45 463.6 134.5 462.85 166.55 439.05 186.05 447 150.85 461.65 141.95 481.45
L 154.3 488.3
Q 220.25 434.65 219 506.3 241.55 470.4 265.7 470 270.4 454.75 272.15 439.45 272.8 433.8 273.05 428.2 262.3 425.95 250.1 435.9 244.65 435.9 240.75 432.1 237 428.5 237 423.4
L 237 413.95
Q 237 408.85 240.75 405.1 244.65 401.55 250.1 396.25 259.75 390.45 270.5 392.65 270.3 391.6 270.1 390.55
L 261.4 387.85
Q 265.8 348.55 254.9 309.25
L 224.65 247.25 Z"/>

<path fill="#4A616B" stroke="none" d="
M 398.1 81.65
L 387.15 80.5 376.2 161.85 351.4 183.85 363.75 132.95 354.2 132.95 337.6 192.1 289.4 239.05 290.75 183.85
Q 325.6 147.6 327.85 83.2
L 318.3 82.55
Q 315.55 133.1 288.05 165.9
L 274.75 17.25 261.75 18.45 264.45 88.85
Q 240.85 73.15 230.15 44.6
L 238.35 75 221.75 66.65
Q 233.9 92.95 259.15 101.2 260.4 100.65 261.4 100.3
L 261.05 101.7
Q 262.75 102.15 264.45 102.55 270.6 161.85 263.1 221.1 235.6 161.3 174.9 110.9
L 176.3 75 186.05 62.55 170.85 70.95 170.85 44.6 161.25 44.6 166.7 97.05 134.95 79.15 134.95 91.6
Q 151.9 105.45 166.4 119.95 212.85 166.75 234.2 221.1
L 165.35 199.05
Q 164.2 179.95 158.35 161
L 158.2 160.8
Q 158.05 160.45 158.05 160.1 157.85 159.95 157.85 159.75 150.15 136.05 134.95 112.25
L 126.75 130.05
Q 142.65 146.65 149 163.2 155.15 179.75 151.5 196.35 124.05 185.75 107.45 197.7 124.35 203.5 148.45 208.95 148.6 208.95 148.8 209.15 155.45 210.5 162.65 212.05
L 162.8 212.05
Q 166.7 212.9 170.85 213.75 180.4 215.5 188.6 218.55 213.05 227.6 222.75 247.25 222.95 247.4 223.15 247.95
L 224.65 247.25 254.9 309.25
Q 265.8 348.55 261.4 387.85
L 270.1 390.55
Q 270.3 391.6 270.5 392.65 277.4 394.05 284.8 398.8 291.3 401.55 295.05 405.1 299 408.85 299 413.95
L 299 423.4
Q 299 431.4 295.25 440.3 291.3 449 286 435.9 279.8 429.6 273.05 428.2 272.8 433.8 272.15 439.45 270.4 454.75 265.7 470 287.85 469.7 311.45 499.45
L 323.75 499.45
Q 339.65 437.4 394.15 485.6
L 403.7 481.45
Q 402.25 476.8 400.25 472.6 395.95 463.65 389.15 457.1 384.3 452.4 378.1 448.9 365.85 442 348.5 440.15 348.35 439.9 348.25 439.7 335.15 417.7 315.55 426.65 311.6 399.65 309.75 372.6 305.75 374 301.2 374 290.25 374 282.75 366 275.05 357.8 275.05 346.35 275.05 334.9 282.75 326.9 290.25 318.65 301.2 318.65 304.8 318.65 308.05 319.6 308.15 293.8 310.1 267.9 345.25 192.55 416.2 163.2
L 415.5 156.55 392.8 159.05 392.8 128.65 409.2 120.45 406.45 110.9 394.15 117.75 398.1 81.65 Z"/>
</g>

<g id="icicle_copy_0_Layer4_0_FILL">
<path fill="url(#Gradient_1)" stroke="none" d="
M -3.8 57.8
Q -3.9 57.65 -3.9 57.45
L -3.95 57.55
Q -3.95 57.7 -3.9 57.8
L -3.8 57.8
M -3.95 57.55
L -4.1 57.8 -3.9 57.8
Q -3.95 57.7 -3.95 57.55
M -7.7 10.45
L -8.2 10.9
Q -8 11.85 -7.8 12.75 -7.75 11.55 -7.7 10.45
M 11.7 -2.25
Q 11.45 -2.75 13.35 -2.6 13.35 -2.85 13.35 -3.05
L 13.05 -2.85 11.25 -10.15
Q 5.174609375 -19.2732421875 -3.7 -14.4
L -5.35 0.8
Q -5.75 1.25 -6.15 2
L -6.75 9.55 -7.7 10.45
Q -7.75 11.55 -7.8 12.75 -6.7 17.05 -4.65 20.3
L -5.25 23.45
Q -6.4 29.35 -4.5 35.15 -6.05 49.95 -3.95 57.55
L -3.9 57.45
Q -3.9 57.65 -3.8 57.8
L 5.25 57.8 5.9 58.7
Q 5.9 58.25 5.9 57.8 3.7 44.6 4.5 42.85 5.3 41.1 4.65 30.15 7.55 25.55 4.55 20.85 7.7 14.1 6 7.4
L 10 6.85
Q 12.9 2.45 11.7 -2.25 Z"/>

<path fill="url(#Gradient_2)" stroke="none" d="
M -7.75 14.7
Q -7.8 14.45 -7.8 14.2 -8.05 12.85 -8.35 11.55 -8.45 13 -8.45 14.7 -8.25 17.5 -7.95 21.3
L -8.95 22.4 -7.9 22.4
Q -7.3 18.6 -7.75 14.7
M -16.95 22.4
L -16.8 22.4
Q -16.85 22.05 -16.85 21.7 -16.9 22.05 -16.95 22.4
M -20.5 -9.95
Q -23.8 -6 -20.65 -2.1 -21 3.05 -18.25 4.75 -16.65 6.45 -16.75 20.85
L -8.45 14.7
Q -8.45 13 -8.35 11.55 -8.4 11.3 -8.45 11.1
L -8.3 11 -8.25 10.95 -8.1 7.15
Q -7.2 -7.55 -7.7 10.45
L -6.75 9.55 -6.15 2
Q -5.75 1.25 -5.35 0.8
L -3.7 -14.4 -5.15 -10.15
Q -13.530078125 -14.13984375 -20.5 -9.95 Z"/>

<path fill="url(#Gradient_3)" stroke="none" d="
M -7.75 14.15
L -7.8 14.2
Q -7.8 14.45 -7.75 14.7 -7.75 14.45 -7.75 14.15
M -16.85 21.7
Q -16.85 22.05 -16.8 22.4 -16.1 29.65 -15.85 26.3 -14.85 28.8 -14.3 30.5 -12.55 33.6 -10.75 29.6
L -9.75 27.15
Q -8.4 25.15 -9.65 23.15
L -8.95 22.4 -7.95 21.3
Q -8.25 17.5 -8.45 14.7
L -16.75 20.85
Q -16.8 21.25 -16.85 21.7
M -16.95 21
Q -16.9 21.35 -16.85 21.7 -16.8 21.25 -16.75 20.85
L -16.95 21 Z"/>

<path fill="url(#Gradient_4)" stroke="none" d="
M 5.9 58.7
L 5.25 57.8 -3.8 57.8
Q -3.75 58.05 -3.65 58.35 -3.3 59.85 -2.7 60.95 -4.45 68.1 -1.5 74.4
L -2.2 84.3
Q 0.1 93.55 3.05 89.25 5.9 84.95 4.3 76 8 69.85 5.75 62.7 5.8705078125 60.5708984375 5.9 58.7 Z"/>

<path fill="url(#Gradient_5)" stroke="none" d="
M 13.35 -3.05
Q 13.35 -2.85 13.35 -2.6
L 12.05 -2.55
Q 13.4 -1.6 13.8 -0.65 15.3 2.55 15.15 10.25 15.15 10.85 15.15 11.35 15.05 21.55 15.85 24.05 14.3 27.55 15.55 31
L 17.1 36.75 17.5 39.6
Q 20.75 41.4 20.55 37.05
L 21.2 27.95
Q 24.3 28.25 23.25 21.15
L 23.2 12.35 25 8.5 25.1 2.2
Q 25.25 2.5 25.45 2.75 27.95 -5.35 25.7 -9.9 20.12578125 -16.214453125 11.25 -10.15
L 13.05 -2.85 13.35 -3.05 Z"/>
</g>

<g id="icicle_copy_0_Layer3_0_FILL">
<path fill="#F1F4F9" stroke="none" d="
M -3.65 31.5
L -1.75 33.85 -1.55 21.6 -3.55 25.8
Q -4.95 28.15 -3.65 31.5
M 0.75 82.45
Q 1.05 83.25 1.5 83.25 1.9 83.25 2.15 82.45 2.45 81.75 2.5 80.6 2.5 79.5 2.2 78.75 2 78 1.6 78 1.15 78 0.8 78.75 0.55 79.5 0.55 80.6 0.5 81.75 0.75 82.45
M 18.4 32.35
Q 20.85 34.6 18.5 26.65
L 17 28.75 16.9 32.35 18.4 32.35
M -5.25 -5.9
L -5.2 -8.05
Q -12.1232421875 -12.2732421875 -18.1 -7.6 -20.1 -5.7 -17.95 -3.9
L -14.35 -2.6 -12.45 -2.55 -11.1 9.25 -10.15 11.1 -8.4 4.35
Q -8.75 -0.35 -7.3 -2.4
L -6.35 -2.35
Q -7.4 3.8 -4.3 10
L -1.65 2.65 -0.1 1.95 0.05 1.05 1.9 1.05 3.2 0.4 2.55 -2.75 9.4 -4.05 8.5 -5.1 12.9 -5.1 12.9 -6.25
Q 13.2 -6.2 13.5 -6.1
L 17.1 -3.35
Q 19.7 4.05 18.9 11.35 18.75 12.8 18.5 14.15
L 18.75 14.15 18.6 23 19.75 24.3
Q 22.1 19.65 20.2 14.15
L 21.2 14.15
Q 21.65 12.75 20.2 8.65 18.7 4.55 22.9 -0.8 23.45 -0.15 24.8 -0.45 25.15 -0.55 21.5 -6.65
L 25.65 -8.15
Q 19.52265625 -13.06015625 12.5 -8.3
L 12.5 -7.4
Q 9.275 -11.1615234375 6.05 -7.45 0.4 -14.221484375 -5.25 -5.9 Z"/>

<path fill="#82BAD3" stroke="none" d="
M -14.1 10.6
L -12.05 5.7 -13.45 2.55 -15.05 9.8 -13.65 13.95 -14.3 21.75 -14.15 22.4 -13.8 22.4 -12.65 28.15 -12.4 22.4 -12.35 22.4 -12.35 21 -12.5 21 -13.45 16.6 -10.65 11.6 -14.1 10.6
M 1.9 1.05
L 0.05 1.05 -0.1 1.95 -0.6 8.1 0.3 12.8
Q -5.6 12.6 -1.5 18.2
L 0.45 22.9 -0.55 36.3 -0.25 37.15 -0.6 40.15 0.35 43.45 -0.6 45.5 1.1 51.5
Q 0.35 52 -0.75 53.7
L -1.6 59.45 0.3 62.7 -0.6 72 0.65 74 0.95 68.35 2.3 63.45 1.65 60.05 2.3 57.8
Q 2.8 52.85 2.15 51.7
L 1.7 42.85 2.85 42 2.05 37.6 2 35.25 0.85 35.25 1 30.95 2.4 23.9 1.75 19 2.45 15.85 1.7 12 2.8 10.7 2 4.45 2.05 1.05 1.9 1.05 Z"/>
</g>

<g id="Duplicate_Items_Folder_star_copy_4_0_Layer0_0_FILL">
<path fill="#FFFFFF" stroke="none" d="
M 1.85 -0.65
L 5.45 -4.75 1.05 -1.25 0.55 -9.65 -0.4 -1.15 -4.9 -4.75 -1.2 -0.65 -9.4 0.25 -1 0.75 -5.3 5.65 -0.4 1.55 0.2 10.65 1 1.55 4.9 5.15 1.55 0.75 9.5 0.4 1.85 -0.65 Z"/>
</g>

<g id="Duplicate_Items_Folder_icicle_copy_2_0_Layer5_0_FILL">
<path fill="url(#Gradient_6)" stroke="none" d="
M -29.25 -5.15
Q -30.85 -3.35 -29.25 -2.3 -28.05 -2.15 -27.35 -1.2 -26.3 0.1 -26.25 3.3 -26.25 7.3 -25.8 8.7 -25.75 8.9 -25.65 9 -23.3 14.4 -21 7.8
L -21.15 4.2 -20.05 2.6 -20.05 0
Q -18.4 -0.9 -17.9 0.55
L -18 3.6 -18.6 4.7 -18.8 13.15 -16.75 15.35 -16.85 16.9 -18.4 17.85 -18.15 19.75
Q -15.1 23.45 -12 19.75
L -12.15 19 -12.35 14.2 -11.3 11.05 -11.75 7.7 -11.75 4.75 -11.05 -0.45
Q -11 -0.5 -9 -1.95
L -8.85 -2 -4.9 -5.1 -5.8 -5.1 -29.25 -5.15 Z"/>

<path fill="url(#Gradient_7)" stroke="none" d="
M 24.45 -2
Q 24.7 -2 24.9 -2
L 24.9 -4.9 -5.55 -5.15
Q -5.69296875 -5.10234375 -5.8 -5.1
L -4.9 -5.1 -8.85 -2
Q -8.85 -1.95 -8.9 -1.9 -5.35 -3.9 -4.6 7.3
L -4.9 8.6
Q -6.7 11.05 -4.2 13.55 -5 16.3 -2.8 19.15 -3.8 22.1 -1.8 24.7
L -2.05 28.8
Q -1.65 30.2 0.7 29.4 2.85 28.6 1.95 25.35 4.25 22.8 2.65 19.85 4.85 16.9 1.05 13.55
L 1.55 11.45
Q 3.35 9.45 1.35 7.55 3.25 4.75 2.1 1.95
L 4.6 1.75 5.05 -1.95
Q 6.4 -2.95 7.7 -1.95
L 8.35 2.1 9.35 3.1
Q 7.85 5.45 10.35 12.5 8.6 14.5 10.2 16.5
L 9.75 19
Q 10.9 25.7 15.45 21.7 17 16.25 15.15 14.95 16.25 10.7 14.5 7 14 4.05 16.4 3.55
L 17.25 5.85 17.4 8.9
Q 18.1 11.5 19.2 11.25
L 19.3 18.45
Q 19.85 19.75 20.8 18.6
L 21.4 13.8
Q 22.9 13.25 22.75 11.05
L 22 8.55
Q 23.65 6.3 22 3.25 22.1 1.9 22.5 0.55 23.25 -2 24.45 -2 Z"/>
</g>

<g id="Duplicate_Items_Folder_icicle_copy_2_0_Layer4_0_FILL">
<path fill="#F1F4F9" stroke="none" d="
M 14.6 9.4
L 13.85 9.4
Q 12.7 11.45 13.9 13.8
L 14.65 12.75 14.6 9.4
M -2.55 7.9
L -3.75 9.65
Q -4.6 10.65 -3.75 11.95
L -2.5 12.95 -2.55 7.9
M 4.15 -2.8
L 3.5 -3.25 9.95 -3.25 13.35 -2
Q 16.05 3.8 18.95 -2
L 21.3 -3.25
Q 22.75 -3.85 24.9 -3.55
L 24.9 -4.15
Q 6.126953125 -14.4029296875 -1.3 -8.7
L -10.7 -9.85
Q -23.3404296875 -12.5787109375 -27.3 -3.6
L -28.75 -3.7
Q -28.2 -3.65 -27.6 -3.5
L -25.25 -2.4
Q -23.2 1.35 -24.1 4.9
L -23.95 4.9 -23.95 5.1
Q -23.55 4.95 -23 4.9
L -22.4 4.9
Q -20.7 1.4 -21.5 -1.3 -20.95 -0.85 -19.25 -1.45 -19.2 -1.45 -19.15 -1.45 -18.35 -1.3 -16.35 0.1
L -16.45 3.05 -17.55 5.65 -16.15 6.2 -17.25 7.8 -16.45 9.1 -17.35 11.15 -15.75 14.1 -15.45 16.5 -15.55 19.05 -14.1 18.4 -14.05 14.95 -14.85 10.75 -12.55 8.8 -14.55 6.55 -13.35 4.65 -14 1.8 -13.7 -1.15 -12.3 -2 -10.95 -1.85 -7.65 -4.65
Q -4.1634765625 0.1541015625 -4.45 3.05
L -2.9 0 -1.85 -0.3 -1.8 -0.7 -0.65 -0.7 0.25 -0.95 -0.25 -2.25 4.15 -2.8 Z"/>

<path fill="#82BAD3" stroke="none" d="
M -1.8 -0.7
L -1.85 -0.3 -2.15 2.25 -1.5 4.25 -2.55 6.45 -1.3 8.45 -1.7 14 -1.5 14.35 -1.65 15.6 -1 16.95 -2.05 18.5 -0.8 19.85 -1.25 23.7 -0.4 24.55 -0.45 23.85 -0.3 22.15 0.5 20.2 0.05 18.75 0.45 17.85 -0.15 16.65 0.55 16.35 0 14.5 -0.05 13.55 -0.8 13.55 -0.75 11.8 0.05 8.85 -0.45 6.8 -0.05 5.5 -0.6 3.9 0.1 3.35 -0.5 0.75 -0.55 -0.7 -0.65 -0.7 -1.8 -0.7
M 12.8 -0.3
L 11.55 -0.3 11.5 1.1 11.05 3.7 11.75 4.3 11.25 5.9 11.65 7.2 11.2 9.2 12.15 12.15 12.25 14 11.5 14 11.45 14.95 10.95 16.7 11.7 17.05 11.15 18.2 11.55 19.15 11.15 20.55 12.45 20.45 12.4 20.25 13.65 18.85 12.55 17.35 13.15 16 12.9 14.75 13.15 14.4 12.55 8.8 13.75 6.85 12.6 4.6 13.2 2.65 12.8 -0.3
M 20.85 -2
L 19.95 -2 19.5 1.95 20.05 2.5 19.65 4.1 19.95 5.4 19.6 7.45 20.25 10.35 20.3 13.8 20.85 12.6 20.55 7 21.4 5.1 20.65 2.85 21.05 0.9 20.85 -2 Z"/>
</g>

<path id="Layer0_0_1_STROKES" stroke="#000000" stroke-width="3" stroke-linejoin="round" stroke-linecap="round" fill="none" d="
M 398.1 81.65
L 398.25 79.15 387.15 80.5
M 398.1 81.65
L 394.15 117.75 406.45 110.9 409.2 120.45 392.8 128.65 392.8 159.05 415.5 156.55 416.2 156.35 416.2 163.2
Q 345.25 192.55 310.1 267.9 308.15 293.8 308.05 319.6
M 309.75 372.6
Q 311.6 399.65 315.55 426.65 335.15 417.7 348.25 439.7
M 389.15 457.1
Q 384.3 452.4 378.1 448.9
M 145.45 443.65
Q 168.85 417.6 215.05 422.7 223.15 402.15 227.6 371.65
M 231.95 325.7
Q 234.65 271.7 223.15 247.95 222.95 247.4 222.75 247.25 213.05 227.6 188.6 218.55 180.4 215.5 170.85 213.75 166.7 212.9 162.8 212.05
L 162.65 212.05
Q 155.45 210.5 148.8 209.15 148.6 208.95 148.45 208.95 124.35 203.5 107.45 197.7 124.05 185.75 151.5 196.35 155.15 179.75 149 163.2 142.65 146.65 126.75 130.05
L 134.95 112.25
Q 150.15 136.05 157.85 159.75 157.85 159.95 158.05 160.1 158.05 160.45 158.2 160.8
L 158.35 161
Q 164.2 179.95 165.35 199.05
L 234.2 221.1
Q 212.85 166.75 166.4 119.95 151.9 105.45 134.95 91.6
L 134.95 79.15 166.7 97.05 161.25 44.6 170.85 44.6 170.85 70.95 186.05 62.55 176.3 75 174.9 110.9
Q 235.6 161.3 263.1 221.1 270.6 161.85 264.45 102.55 262.75 102.15 261.05 101.7 260.5 101.5 260 101.3 259.55 101.2 259.15 101.2 233.9 92.95 221.75 66.65
L 238.35 75 230.15 44.6
Q 240.85 73.15 264.45 88.85
L 261.75 18.45 274.2 13 274.75 17.25 288.05 165.9
Q 315.55 133.1 318.3 82.55 318.3 82.2 318.3 81.85
L 327.85 83.2
Q 325.6 147.6 290.75 183.85
L 289.4 239.05 337.6 192.1 354.2 132.95 363.75 132.95 351.4 183.85 376.2 161.85 387.15 80.5
M 265.7 470
Q 287.85 469.7 311.45 499.45
L 323.75 499.45
Q 339.65 437.4 394.15 485.6
L 403.7 481.45
Q 402.25 476.8 400.25 472.6 395.95 463.65 389.15 457.1
M 210.8 431.95
Q 213.05 427.5 215.05 422.7 215.6 422.7 216.1 422.7
M 134.5 462.85
Q 166.55 439.05 186.05 447 150.85 461.65 141.95 481.45
L 154.3 488.3
Q 220.25 434.65 219 506.3 241.55 470.4 265.7 470
M 145.45 443.65
Q 137.7 452.35 132.4 464.4 133.45 463.6 134.5 462.85
M 378.1 448.9
Q 365.85 442 348.5 440.15 348.35 439.9 348.25 439.7"/>

<path id="Layer0_0_2_STROKES" stroke="#00FFFF" stroke-width="3" stroke-linejoin="round" stroke-linecap="round" fill="none" d="
M 308.05 319.6
Q 314.55 321.4 319.65 326.9 327.15 334.9 327.15 346.35 327.15 357.8 319.65 366 315.2 370.65 309.75 372.6
M 227.6 371.65
Q 226.1 370.8 224.65 369.75 216.8 363.6 215.05 353.7 213.4 343.6 218.7 335.55 223.55 327.65 231.95 325.7 232.4 325.6 232.85 325.5 242.1 323.95 249.95 329.9 257.8 335.75 259.55 345.8 261.2 355.7 255.9 364.1 250.6 372.3 241.4 373.8 234 375.25 227.6 371.65 Z
M 309.75 372.6
Q 305.75 374 301.2 374 290.25 374 282.75 366 275.05 357.8 275.05 346.35 275.05 334.9 282.75 326.9 290.25 318.65 301.2 318.65 304.8 318.65 308.05 319.6"/>

<path id="Layer0_0_3_STROKES" stroke="#FFFFFF" stroke-width="2" stroke-linejoin="round" stroke-linecap="round" fill="none" d="
M 246.85 357.45
L 237.1 351.3 230.65 361
M 240.2 340.2
L 237.1 351.3 227.55 343.25
M 293.7 334.7
L 301.55 346.15 311.65 338.3
M 310.1 356.95
L 301.55 346.15 292.15 355.6"/>

<path id="icicle_copy_0_Layer4_0_1_STROKES" stroke="#1881C3" stroke-width="1" stroke-linejoin="round" stroke-linecap="round" fill="none" d="
M -5.35 0.8
Q -5.75 1.25 -6.15 2
M -7.7 10.45
Q -7.75 11.55 -7.8 12.75 -6.7 17.05 -4.65 20.3
L -5.25 23.45
Q -6.4 29.35 -4.5 35.15 -6.05 49.95 -3.95 57.55
L -3.9 57.45
Q -3.9 57.65 -3.8 57.8
M 5.9 58.7
Q 5.9 58.25 5.9 57.8 3.7 44.6 4.5 42.85 5.3 41.1 4.65 30.15 7.55 25.55 4.55 20.85 7.7 14.1 6 7.4
L 10 6.85
Q 12.9 2.45 11.7 -2.25
M 12.05 -2.55
Q 13.4 -1.6 13.8 -0.65 15.3 2.55 15.15 10.25 15.15 10.85 15.15 11.35 15.05 21.55 15.85 24.05 14.3 27.55 15.55 31
L 17.1 36.75 17.5 39.6
Q 20.75 41.4 20.55 37.05
L 21.2 27.95
Q 24.3 28.25 23.25 21.15
L 23.2 12.35 25 8.5 25.1 2.2
Q 25.25 2.5 25.45 2.75 27.95 -5.35 25.7 -9.9
M -3.8 57.8
Q -3.75 58.05 -3.65 58.35 -3.3 59.85 -2.7 60.95 -4.45 68.1 -1.5 74.4
L -2.2 84.3
Q 0.1 93.55 3.05 89.25 5.9 84.95 4.3 76 8 69.85 5.75 62.7 5.8705078125 60.5708984375 5.9 58.7
M -16.75 20.85
Q -16.65 6.45 -18.25 4.75 -21 3.05 -20.65 -2.1 -23.8 -6 -20.5 -9.95
M -8.35 11.55
Q -8.35 11.25 -8.3 11
L -8.45 11.1
M -8.3 11
L -8.25 10.95 -8.2 10.9
M -16.95 21
Q -16.9 21.35 -16.85 21.7 -16.8 21.25 -16.75 20.85
M -16.8 22.4
Q -16.85 22.05 -16.85 21.7 -16.9 22.05 -16.95 22.4
M -7.75 14.15
Q -7.75 14.45 -7.75 14.7
M -8.95 22.4
L -9.65 23.15
Q -8.4 25.15 -9.75 27.15
L -10.75 29.6
Q -12.55 33.6 -14.3 30.5 -14.85 28.8 -15.85 26.3 -16.1 29.65 -16.8 22.4
M -7.75 14.7
Q -7.8 14.45 -7.8 14.2
M -8.35 11.55
Q -8.45 13 -8.45 14.7 -8.25 17.5 -7.95 21.3
L -8.95 22.4
M -7.8 14.2
Q -7.8 13.45 -7.8 12.75 -8 11.85 -8.2 10.9
M -4.1 57.8
L -3.95 57.55
Q -3.95 57.7 -3.9 57.8 -3.8 58.1 -3.65 58.35"/>

<path id="Duplicate_Items_Folder_icicle_copy_2_0_Layer5_0_1_STROKES" stroke="#1881C3" stroke-width="1" stroke-linejoin="round" stroke-linecap="round" fill="none" d="
M -8.9 -1.9
Q -5.35 -3.9 -4.6 7.3
L -4.9 8.6
Q -6.7 11.05 -4.2 13.55 -5 16.3 -2.8 19.15 -3.8 22.1 -1.8 24.7
L -2.05 28.8
Q -1.65 30.2 0.7 29.4 2.85 28.6 1.95 25.35 4.25 22.8 2.65 19.85 4.85 16.9 1.05 13.55
L 1.55 11.45
Q 3.35 9.45 1.35 7.55 3.25 4.75 2.1 1.95
L 4.6 1.75 5.05 -1.95
Q 6.4 -2.95 7.7 -1.95
L 8.35 2.1 9.35 3.1
Q 7.85 5.45 10.35 12.5 8.6 14.5 10.2 16.5
L 9.75 19
Q 10.9 25.7 15.45 21.7 17 16.25 15.15 14.95 16.25 10.7 14.5 7 14 4.05 16.4 3.55
L 17.25 5.85 17.4 8.9
Q 18.1 11.5 19.2 11.25
L 19.3 18.45
Q 19.85 19.75 20.8 18.6
L 21.4 13.8
Q 22.9 13.25 22.75 11.05
L 22 8.55
Q 23.65 6.3 22 3.25 22.1 1.9 22.5 0.55 23.25 -2 24.45 -2 24.7 -2 24.9 -2
M -29.25 -5.15
Q -30.85 -3.35 -29.25 -2.3 -28.05 -2.15 -27.35 -1.2 -26.3 0.1 -26.25 3.3 -26.25 7.3 -25.8 8.7 -25.75 8.9 -25.65 9 -23.3 14.4 -21 7.8
L -21.15 4.2 -20.05 2.6 -20.05 0
Q -18.4 -0.9 -17.9 0.55
L -18 3.6 -18.6 4.7 -18.8 13.15 -16.75 15.35 -16.85 16.9 -18.4 17.85 -18.15 19.75
Q -15.1 23.45 -12 19.75
L -12.15 19 -12.35 14.2 -11.3 11.05 -11.75 7.7 -11.75 4.75 -11.05 -0.45
Q -11 -0.5 -9 -1.95
M -25.8 8.7
L -26 8.7 -25.7 9.15
Q -25.7 9.05 -25.65 9"/>
</defs>

<g transform="matrix( 1, 0, 0, 1, 0,0) ">
<use xlink:href="#Layer0_0_FILL"/>

<use xlink:href="#Layer0_0_1_STROKES"/>

<use xlink:href="#Layer0_0_2_STROKES"/>

<use xlink:href="#Layer0_0_3_STROKES"/>
</g>

<g transform="matrix( 0.990997314453125, 0, 0, 0.990997314453125, 156.7,218.15) ">
<g transform="matrix( 1, 0, 0, 1, 0,0) ">
<use xlink:href="#icicle_copy_0_Layer4_0_FILL"/>

<use xlink:href="#icicle_copy_0_Layer4_0_1_STROKES"/>
</g>

<g transform="matrix( 1, 0, 0, 1, 0,0) ">
<use xlink:href="#icicle_copy_0_Layer3_0_FILL"/>
</g>

<g transform="matrix( -0.0152740478515625, 0.65924072265625, 0.566925048828125, 0.0031890869140625, 6.8,16.2) ">
<g transform="matrix( 1, 0, 0, 1, -0.1,-0.15) ">
<g transform="matrix( 1, 0, 0, 1, 0,0) ">
<use xlink:href="#Duplicate_Items_Folder_star_copy_4_0_Layer0_0_FILL"/>
</g>
</g>
</g>

<g transform="matrix( -0.0086822509765625, 0.65924072265625, -0.567047119140625, 0.0031890869140625, 0.1,64.95) ">
<g transform="matrix( 1, 0, 0, 1, -0.1,-0.15) ">
<g transform="matrix( 1, 0, 0, 1, 0,0) ">
<use xlink:href="#Duplicate_Items_Folder_star_copy_4_0_Layer0_0_FILL"/>
</g>
</g>
</g>
</g>

<g transform="matrix( 1.3618316650390625, -0.6864471435546875, -0.1319122314453125, 1.454376220703125, 390.05,184.35) ">
<g transform="matrix( 1, 0, 0, 1, 0,0) ">
<use xlink:href="#Duplicate_Items_Folder_icicle_copy_2_0_Layer5_0_FILL"/>

<use xlink:href="#Duplicate_Items_Folder_icicle_copy_2_0_Layer5_0_1_STROKES"/>
</g>

<g transform="matrix( 1, 0, 0, 1, 0,0) ">
<use xlink:href="#Duplicate_Items_Folder_icicle_copy_2_0_Layer4_0_FILL"/>
</g>

<g transform="matrix( 0.0021209716796875, 0.373291015625, -0.3632049560546875, 0.001800537109375, 21.75,0.15) ">
<g transform="matrix( 1, 0, 0, 1, -0.1,-0.15) ">
<g transform="matrix( 1, 0, 0, 1, 0,0) ">
<use xlink:href="#Duplicate_Items_Folder_star_copy_4_0_Layer0_0_FILL"/>
</g>
</g>
</g>

<g transform="matrix( 0.0021209716796875, 0.373291015625, -0.3632049560546875, 0.001800537109375, -1.7,23.5) ">
<g transform="matrix( 1, 0, 0, 1, -0.1,-0.15) ">
<g transform="matrix( 1, 0, 0, 1, 0,0) ">
<use xlink:href="#Duplicate_Items_Folder_star_copy_4_0_Layer0_0_FILL"/>
</g>
</g>
</g>
</g>

<g transform="matrix( -0.59405517578125, -0.135284423828125, 0.01910400390625, 0.442901611328125, 247.95,96.85) ">
<g transform="matrix( 1, 0, 0, 1, 0,0) ">
<use xlink:href="#icicle_copy_0_Layer4_0_FILL"/>

<use xlink:href="#icicle_copy_0_Layer4_0_1_STROKES"/>
</g>

<g transform="matrix( 1, 0, 0, 1, 0,0) ">
<use xlink:href="#icicle_copy_0_Layer3_0_FILL"/>
</g>

<g transform="matrix( -0.0152740478515625, 0.65924072265625, 0.566925048828125, 0.0031890869140625, 6.8,16.2) ">
<g transform="matrix( 1, 0, 0, 1, -0.1,-0.15) ">
<g transform="matrix( 1, 0, 0, 1, 0,0) ">
<use xlink:href="#Duplicate_Items_Folder_star_copy_4_0_Layer0_0_FILL"/>
</g>
</g>
</g>

<g transform="matrix( -0.0086822509765625, 0.65924072265625, -0.567047119140625, 0.0031890869140625, 0.1,64.95) ">
<g transform="matrix( 1, 0, 0, 1, -0.1,-0.15) ">
<g transform="matrix( 1, 0, 0, 1, 0,0) ">
<use xlink:href="#Duplicate_Items_Folder_star_copy_4_0_Layer0_0_FILL"/>
</g>
</g>
</g>
</g>
</svg>
